<svg xmlns="http://www.w3.org/2000/svg" viewBox="0 0 262.96 136.49"><title>caution-brn_hzrd_dnt_tch_brnr_whle_hot</title><g id="frame"><polyline points="0.85 26.49 262.18 26.49 262.18 0.56 0.85 0.56"/><rect x="0.5" y="0.5" width="261.96" height="135.49" style="fill:none;stroke:#000;stroke-miterlimit:10"/><path d="M86,91.28" style="fill:none;stroke:#000"/><path d="M86,15.38" style="fill:none;stroke:#000"/><line x1="0.72" y1="47.61" x2="262.39" y2="47.61" style="fill:none;stroke:#000"/><line x1="75.81" y1="47.36" x2="75.81" y2="135.86" style="fill:none;stroke:#000"/><path d="M34.75,88.83c-.81,2-2.4,3.39-4.22,3.39-2.65,0-4.79-2.89-4.79-6.45s2.15-6.45,4.79-6.45a4.74,4.74,0,0,1,4.13,3.18" style="fill:none;stroke:#000;stroke-width:0.5px"/><path d="M33.7,88.84a3.52,3.52,0,0,1-3,2.11c-2.05,0-3.72-2.32-3.72-5.18s1.67-5.18,3.72-5.18a3.45,3.45,0,0,1,2.89,1.91" style="fill:none;stroke:#000;stroke-width:0.5px"/><path d="M33.59,82.5l0,0" style="fill:none;stroke:#000;stroke-width:0.5px"/><path d="M30.42,88.71c-1.08,0-2-1.38-2-3.08s.88-3.08,2-3.08" style="fill:none;stroke:#000;stroke-width:0.5px"/><path d="M30.24,82.56l12.93,0c2.5-.08,7.6,1.94,5.37,9.85l-4.78,0c-1-1.67-1.12-3.52-3.79-3.52l-9.7-.16" style="fill:none;stroke:#000;stroke-width:0.5px"/><path d="M19.7,92.93,22,93a4.23,4.23,0,0,1,1.83-3.54h0v-2c-1.4-.9-1.69-2.87-1.69-3.91h-2a4.1,4.1,0,0,1-2.11,3.81v2.13a4.85,4.85,0,0,1,1.64,3.45Z" style="fill:none;stroke:#000;stroke-width:0.5px"/><path d="M19,83.56c0,.46-.23,2.13-1.14,2.58l-2.53,0c.91-.45,1.15-2.09,1.13-2.55Z" style="fill:none;stroke:#000;stroke-width:0.5px"/><rect x="14.55" y="87.02" width="2.46" height="2.52" transform="translate(-72.72 102.84) rotate(-89.2)" style="fill:none;stroke:#000;stroke-width:0.5px"/><path d="M18.41,93c0-.46-.18-2.13-1.08-2.6l-2.53,0c.9.47,1.1,2.12,1.07,2.57Z" style="fill:none;stroke:#000;stroke-width:0.5px"/><path d="M20.78,88.05c.08-.28.25-.47.43-.47s.48.38.48.86-.22.86-.48.86-.36-.2-.44-.49" style="fill:none;stroke:#000;stroke-width:0.5px"/><path d="M12.9,92.4A4.48,4.48,0,0,1,10,93.46a5.08,5.08,0,0,1,0-10.12,4.38,4.38,0,0,1,2.52.8l2.65.07a5.22,5.22,0,0,0-1.84,4c0,1.79.24,3.47,1.24,4.21Z" style="fill:none;stroke:#000;stroke-width:0.5px"/><path d="M49.06,82.9l2,0a3.72,3.72,0,0,1,1.61-3.11h0V78.08a4.17,4.17,0,0,1-1.49-3.44H49.47A3.61,3.61,0,0,1,47.61,78v1.88a4.25,4.25,0,0,1,1.45,3Z" style="fill:none;stroke:#000;stroke-width:0.5px"/><path d="M48.44,74.66c0,.4-.2,1.87-1,2.26l-2.22,0c.8-.39,1-1.84,1-2.24Z" style="fill:none;stroke:#000;stroke-width:0.5px"/><rect x="44.54" y="77.7" width="2.16" height="2.22" transform="translate(-33.78 123.39) rotate(-89.25)" style="fill:none;stroke:#000;stroke-width:0.5px"/><path d="M47.92,83c0-.4-.16-1.87-.95-2.29l-2.22,0c.79.41,1,1.86.94,2.26Z" style="fill:none;stroke:#000;stroke-width:0.5px"/><path d="M50,78.6c.07-.24.21-.41.38-.41s.43.34.43.75-.19.75-.43.75-.32-.18-.39-.43" style="fill:none;stroke:#000;stroke-width:0.5px"/><path d="M38.11,82.48a4.58,4.58,0,0,1-1.65-3.57,4.29,4.29,0,0,1,4.1-4.45,3.85,3.85,0,0,1,2.22.71l2.34.06a4.58,4.58,0,0,0-1.62,3.51c0,1.57.21,3.05,1.09,3.7h-1.5" style="fill:none;stroke:#000;stroke-width:0.5px"/><path d="M40.11,108.62a.89.89,0,0,0,.27-.13c.43-.3.64-.93.86-.13s-.46-.32-.2.36-.08,1.63.48,1-.16-.53.63-.3c.19.05.35,0,.34.09-.09.41-.29.6-.17.76.46.67.13,1.15.69.43.41-.52,0-1,.57-.67s.78-.39.78.41-.29.13.17.58.46,1,.64.25-.3-1,.26-.84.43-.46.6.25.22.48.43.71.47.76.47,0-.39-1,0-.93.34-.25.65.34,0,.34.3.59.73.63.73.3,0,.13,0-.55-.43-1.26.35-.79c.61.36.34,1.16.94,1s.12-.79.11-.8c-.11-.23-.18-.55-.19-.51s-.21-.29.48-.12.29.54.59.54.46-.24.25-.75-1.15-.21-.15-.5,1.12-.3.78-.35a11.49,11.49,0,0,0-1.17-.17" style="fill:none;stroke:#000;stroke-width:0.5px"/><path d="M43.78,92.79,39.89,106.5a1,1,0,0,0,.32.34" style="fill:none;stroke:#000;stroke-width:0.5px"/><path d="M41.54,113h2.18a1.2,1.2,0,0,1,.84.26.84.84,0,0,1,.29.65.82.82,0,0,1-.21.56.94.94,0,0,1-.41.25,1.05,1.05,0,0,1,.6.32.89.89,0,0,1,.19.58,1,1,0,0,1-.14.51,1,1,0,0,1-.37.36,1.24,1.24,0,0,1-.44.12l-.52,0h-2Zm1.17,1.44h.51a.59.59,0,0,0,.38-.09.33.33,0,0,0,.11-.26.31.31,0,0,0-.11-.25.6.6,0,0,0-.37-.09h-.51Zm0,1.44h.59a.67.67,0,0,0,.42-.1.35.35,0,0,0,.12-.28.32.32,0,0,0-.12-.26.71.71,0,0,0-.43-.1h-.59Z"/><path d="M47.94,113h1.16v2.19a1.79,1.79,0,0,1-.1.61,1.39,1.39,0,0,1-.79.81,2.41,2.41,0,0,1-.81.12,5.4,5.4,0,0,1-.6,0,1.62,1.62,0,0,1-.54-.15,1.36,1.36,0,0,1-.4-.32,1.13,1.13,0,0,1-.25-.42,2.15,2.15,0,0,1-.11-.62V113h1.16v2.24a.63.63,0,0,0,.17.47.65.65,0,0,0,.47.17.66.66,0,0,0,.47-.17.64.64,0,0,0,.17-.47Z"/><path d="M49.88,116.63V113h1.93a2.88,2.88,0,0,1,.82.09.88.88,0,0,1,.46.33,1,1,0,0,1,.17.59,1,1,0,0,1-.13.53,1,1,0,0,1-.37.36,1.41,1.41,0,0,1-.41.14,1.19,1.19,0,0,1,.3.14,1.21,1.21,0,0,1,.19.19,1.59,1.59,0,0,1,.16.23l.57,1.06H52.26l-.62-1.12a.87.87,0,0,0-.21-.28.5.5,0,0,0-.29-.08H51v1.49ZM51,114.44h.49l.31,0a.32.32,0,0,0,.19-.11.36.36,0,0,0,0-.48.73.73,0,0,0-.43-.09H51Z"/><path d="M54,113H55l1.42,2v-2h1.09v3.67H56.46l-1.41-2v2H54Z"/><line x1="44.29" y1="92.98" x2="40.81" y2="108.03" style="fill:none;stroke:#000;stroke-width:0.5px"/><line x1="44.81" y1="93.08" x2="41.89" y2="109.16" style="fill:none;stroke:#000;stroke-width:0.5px"/><line x1="45.39" y1="93.18" x2="43.49" y2="109.78" style="fill:none;stroke:#000;stroke-width:0.5px"/><line x1="45.92" y1="93.23" x2="45.15" y2="110.21" style="fill:none;stroke:#000;stroke-width:0.5px"/><line x1="46.8" y1="106.67" x2="46.87" y2="110.41" style="fill:none;stroke:#000;stroke-width:0.5px"/><line x1="46.52" y1="93.26" x2="46.77" y2="105.26" style="fill:none;stroke:#000;stroke-width:0.5px"/><line x1="48.25" y1="107.7" x2="48.5" y2="110.72" style="fill:none;stroke:#000;stroke-width:0.5px"/><line x1="47.02" y1="93.02" x2="47.97" y2="104.3" style="fill:none;stroke:#000;stroke-width:0.5px"/><line x1="49.57" y1="108.3" x2="49.79" y2="110.08" style="fill:none;stroke:#000;stroke-width:0.5px"/><line x1="47.61" y1="92.85" x2="49.06" y2="104.38" style="fill:none;stroke:#000;stroke-width:0.5px"/><line x1="50.82" y1="108.3" x2="50.87" y2="108.59" style="fill:none;stroke:#000;stroke-width:0.5px"/><line x1="48.18" y1="92.55" x2="50.15" y2="104.4" style="fill:none;stroke:#000;stroke-width:0.5px"/><rect x="39.48" y="94.88" width="12.91" height="6.49" style="fill:#fff"/><path d="M37,95.39h1.74v1.92H40.6V95.39h1.75v5.5H40.6V98.67H38.69v2.23H37Z"/><path d="M43.29,98.15a2.8,2.8,0,0,1,.77-2.1,2.94,2.94,0,0,1,2.14-.75,3,3,0,0,1,2.17.74,2.75,2.75,0,0,1,.76,2.07,3.33,3.33,0,0,1-.33,1.58,2.32,2.32,0,0,1-1,1,3.24,3.24,0,0,1-1.57.34,3.67,3.67,0,0,1-1.58-.3,2.35,2.35,0,0,1-1-.94A3.06,3.06,0,0,1,43.29,98.15Zm1.74,0a1.81,1.81,0,0,0,.32,1.2,1.23,1.23,0,0,0,1.74,0,2,2,0,0,0,.31-1.28,1.67,1.67,0,0,0-.32-1.14,1.11,1.11,0,0,0-.87-.36,1.07,1.07,0,0,0-.85.37A1.81,1.81,0,0,0,45,98.16Z"/><path d="M49.47,95.39h5.3v1.36H53v4.14H51.25V96.75H49.47Z"/><path d="M39.77,106.38a11.45,11.45,0,0,1-1.4-2.34c-.75-1.25-1.67-1.29-1.67-.27a2.38,2.38,0,0,0,.25,1.22c.25.51.35,1,1.05,2.38l.92,1.66c0,.32-1.43-.31-3.8-2-.41-.3-2.2-1-2.58-.29s1,1.54,1.43,1.78c2.66,1.62,4.3,2.59,4.3,2.85,0,.49-.33.37-2.73-.41-2.77-.9-2.6-.86-2.93-1a2.48,2.48,0,0,0-2.2,0c-.57.58-.2.83.45,1.29a6.84,6.84,0,0,0,2.78,1.32,27.61,27.61,0,0,0,3.18,1.15c1.16.31,2.77,1,2.22,1.08a16.47,16.47,0,0,1-4.09-.08c-1.27-.18-3.17-.47-3.43.27a1.1,1.1,0,0,0,.8,1.17c1.11.38.46.41,3.65.71l4.95.47c4.15.4,7.35.52,10.8,1.08,1.79.29,2.14-.28,5.23,1.71,2.51,1.61,8.65,6.33,9.36,7" style="fill:none;stroke:#000;stroke-width:0.5px"/><path d="M51.34,109.84c2.43-1.24-1.2-1.94-1.86-2.33s-.5-.15-1.44-.64-.88-1.17-.35-1.62c.37-.31.83-.34,1.9,0a17.67,17.67,0,0,1,2.51.65c1.23.45.81.27,1.49.77a21.39,21.39,0,0,1,2.2,2.53,31.55,31.55,0,0,0,4.35,4.14c1.1,1,7.93,6.22,7.93,6.22" style="fill:none;stroke:#000;stroke-width:0.5px"/><line x1="35.73" y1="97.58" x2="5.72" y2="106.23" style="fill:none;stroke:#000;stroke-width:0.5px"/><path d="M53.89,98.8" style="fill:none;stroke:#000;stroke-width:0.5px"/><path d="M67.56,94.86" style="fill:none;stroke:#000;stroke-width:0.5px"/><line x1="60.47" y1="90.44" x2="49.4" y2="93.63" style="fill:none;stroke:#000;stroke-width:0.5px"/><polyline points="69.59 101.26 58.57 94.88 55.73 95.69" style="fill:none;stroke:#000;stroke-width:0.5px"/><line x1="60.47" y1="90.44" x2="69.28" y2="95.53" style="fill:none;stroke:#000;stroke-width:0.5px"/><line x1="60.78" y1="86.46" x2="60.78" y2="49.16" style="fill:none;stroke:#000;stroke-width:0.5px"/><path d="M35.41,101.36l-18.17,5.15,0,0a3.86,3.86,0,0,0-2.4,3.53,3.67,3.67,0,0,0,1.6,3l38.05,20.67" style="fill:none;stroke:#000;stroke-width:0.5px"/><path d="M40.2,108.22c-.49-.15-.71.1-.63-.24s.29,0,.33-.65,0-.65-.12-.88" style="fill:none;stroke:#000;stroke-width:0.5px"/></g><g id="text"><path d="M98.67,33h3.43a9.92,9.92,0,0,1,1.52.08,2.23,2.23,0,0,1,.9.35,2.2,2.2,0,0,1,.66.72,1.94,1.94,0,0,1,.26,1A2,2,0,0,1,104.23,37a2.26,2.26,0,0,1,1.21.78,2.07,2.07,0,0,1,.42,1.29,2.55,2.55,0,0,1-.27,1.14,2.3,2.3,0,0,1-.74.88,2.46,2.46,0,0,1-1.16.41q-.43,0-2.09.06H98.67Zm1.73,1.43v2h1.14q1,0,1.26,0a1.15,1.15,0,0,0,.7-.31.91.91,0,0,0,.25-.67.94.94,0,0,0-.22-.65,1,1,0,0,0-.65-.3q-.26,0-1.48,0Zm0,3.42v2.3H102a7.85,7.85,0,0,0,1.19-.05,1.07,1.07,0,0,0,.63-.34,1.06,1.06,0,0,0,.24-.73,1.12,1.12,0,0,0-.19-.66,1.06,1.06,0,0,0-.54-.39,5.89,5.89,0,0,0-1.54-.12Z"/><path d="M111.41,41.61v-.93a2.4,2.4,0,0,1-.89.79,2.5,2.5,0,0,1-1.17.29,2.29,2.29,0,0,1-1.12-.28,1.63,1.63,0,0,1-.72-.77,3.45,3.45,0,0,1-.22-1.38V35.39h1.65v2.86a7.93,7.93,0,0,0,.09,1.61.88.88,0,0,0,.33.47,1,1,0,0,0,.61.17,1.3,1.3,0,0,0,.76-.23,1.18,1.18,0,0,0,.46-.57,6.67,6.67,0,0,0,.12-1.68V35.39h1.65v6.22Z"/><path d="M116.22,41.61h-1.65V35.39h1.53v.88a2.66,2.66,0,0,1,.71-.83,1.3,1.3,0,0,1,.71-.2,2.09,2.09,0,0,1,1.08.31L118.1,37a1.44,1.44,0,0,0-.77-.27.91.91,0,0,0-.59.19,1.3,1.3,0,0,0-.38.69,9.78,9.78,0,0,0-.14,2.09Z"/><path d="M125,41.61h-1.65V38.43a4.91,4.91,0,0,0-.11-1.3.91.91,0,0,0-.34-.46,1,1,0,0,0-.57-.16,1.32,1.32,0,0,0-.77.23,1.18,1.18,0,0,0-.47.62,5.37,5.37,0,0,0-.13,1.43v2.82H119.3V35.39h1.53v.91a2.55,2.55,0,0,1,3-.86,1.67,1.67,0,0,1,.68.5,1.81,1.81,0,0,1,.32.69,5.14,5.14,0,0,1,.09,1.11Z"/><path d="M130,41.61V33h1.73V36.4h3.4V33h1.73v8.59h-1.73V37.85h-3.4v3.76Z"/><path d="M139.88,37.29,138.38,37a2.33,2.33,0,0,1,.87-1.34,3.17,3.17,0,0,1,1.83-.43,3.94,3.94,0,0,1,1.64.26,1.64,1.64,0,0,1,.76.66,3.4,3.4,0,0,1,.22,1.47l0,1.92a6.67,6.67,0,0,0,.08,1.21,3.53,3.53,0,0,0,.3.83h-1.63q-.06-.16-.16-.49l-.06-.19a3,3,0,0,1-.9.62,2.58,2.58,0,0,1-1,.21,2.12,2.12,0,0,1-1.51-.52,1.73,1.73,0,0,1-.55-1.32,1.77,1.77,0,0,1,.25-.94,1.65,1.65,0,0,1,.71-.63,5.52,5.52,0,0,1,1.31-.38,9,9,0,0,0,1.6-.4v-.16a.85.85,0,0,0-.23-.68,1.4,1.4,0,0,0-.88-.2,1.18,1.18,0,0,0-.69.17A1.2,1.2,0,0,0,139.88,37.29Zm2.2,1.34a10.29,10.29,0,0,1-1,.25,3,3,0,0,0-.9.29.69.69,0,0,0-.32.58.81.81,0,0,0,.26.6.9.9,0,0,0,.66.25,1.43,1.43,0,0,0,.85-.29,1,1,0,0,0,.39-.54,3.25,3.25,0,0,0,.06-.8Z"/><path d="M144.66,41.61V40.33L147,37.65q.57-.66.85-.93l-.76,0h-2.2V35.39H150v1.17l-2.38,2.74-.84.91.85,0h2.55v1.45Z"/><path d="M152.55,37.29,151.06,37a2.33,2.33,0,0,1,.87-1.34,3.17,3.17,0,0,1,1.83-.43,3.94,3.94,0,0,1,1.64.26,1.64,1.64,0,0,1,.76.66,3.4,3.4,0,0,1,.22,1.47l0,1.92a6.67,6.67,0,0,0,.08,1.21,3.53,3.53,0,0,0,.3.83H155.1q-.06-.16-.16-.49l-.06-.19a3,3,0,0,1-.9.62,2.58,2.58,0,0,1-1,.21,2.12,2.12,0,0,1-1.51-.52,1.73,1.73,0,0,1-.55-1.32,1.77,1.77,0,0,1,.25-.94,1.65,1.65,0,0,1,.71-.63,5.52,5.52,0,0,1,1.31-.38,9,9,0,0,0,1.6-.4v-.16a.85.85,0,0,0-.23-.68,1.4,1.4,0,0,0-.88-.2,1.18,1.18,0,0,0-.69.17A1.2,1.2,0,0,0,152.55,37.29Zm2.2,1.34a10.29,10.29,0,0,1-1,.25,3,3,0,0,0-.9.29.69.69,0,0,0-.32.58.81.81,0,0,0,.26.6.9.9,0,0,0,.66.25,1.43,1.43,0,0,0,.85-.29,1,1,0,0,0,.39-.54,3.25,3.25,0,0,0,.06-.8Z"/><path d="M159.57,41.61h-1.65V35.39h1.53v.88a2.66,2.66,0,0,1,.71-.83,1.3,1.3,0,0,1,.71-.2,2.09,2.09,0,0,1,1.08.31L161.45,37a1.44,1.44,0,0,0-.77-.27.91.91,0,0,0-.59.19,1.3,1.3,0,0,0-.38.69,9.78,9.78,0,0,0-.14,2.09Z"/><path d="M168.37,41.61h-1.53V40.7a2.47,2.47,0,0,1-.9.79,2.31,2.31,0,0,1-1,.26,2.37,2.37,0,0,1-1.84-.86,3.52,3.52,0,0,1-.76-2.41,3.47,3.47,0,0,1,.74-2.41,2.43,2.43,0,0,1,1.88-.82,2.33,2.33,0,0,1,1.8.87V33h1.65ZM164,38.36a2.85,2.85,0,0,0,.28,1.44,1.24,1.24,0,0,0,1.11.64,1.21,1.21,0,0,0,1-.48,2.23,2.23,0,0,0,.4-1.44,2.44,2.44,0,0,0-.39-1.54,1.22,1.22,0,0,0-1-.47,1.24,1.24,0,0,0-1,.47A2.1,2.1,0,0,0,164,38.36Z"/><path d="M90.94,83.6V77.88h2a4.78,4.78,0,0,1,1,.08,1.93,1.93,0,0,1,.84.41,2.33,2.33,0,0,1,.68,1,3.83,3.83,0,0,1,.22,1.36,4,4,0,0,1-.15,1.16,2.82,2.82,0,0,1-.39.83,2.09,2.09,0,0,1-.52.52,2.14,2.14,0,0,1-.68.29,3.94,3.94,0,0,1-.92.1Zm.76-.68h1.22a3,3,0,0,0,.89-.11,1.28,1.28,0,0,0,.51-.3,1.81,1.81,0,0,0,.42-.72,3.55,3.55,0,0,0,.15-1.1,2.66,2.66,0,0,0-.29-1.38,1.48,1.48,0,0,0-.72-.65,3,3,0,0,0-1-.12H91.7Z"/><path d="M96.36,81.53A2.14,2.14,0,0,1,97,79.82a1.93,1.93,0,0,1,1.3-.46,1.86,1.86,0,0,1,1.4.56,2.13,2.13,0,0,1,.54,1.55,2.75,2.75,0,0,1-.24,1.26,1.71,1.71,0,0,1-.7.71,2,2,0,0,1-1,.25,1.87,1.87,0,0,1-1.41-.56A2.23,2.23,0,0,1,96.36,81.53Zm.72,0a1.77,1.77,0,0,0,.35,1.19,1.16,1.16,0,0,0,1.75,0,1.81,1.81,0,0,0,.35-1.21,1.71,1.71,0,0,0-.35-1.17,1.16,1.16,0,0,0-1.74,0A1.76,1.76,0,0,0,97.09,81.53Z"/><path d="M103.3,83.6V79.45h.63V80a1.49,1.49,0,0,1,1.32-.68,1.73,1.73,0,0,1,.69.13,1.08,1.08,0,0,1,.47.35,1.35,1.35,0,0,1,.22.52,4,4,0,0,1,0,.68V83.6H106V81.08a1.89,1.89,0,0,0-.08-.64.67.67,0,0,0-.29-.34.92.92,0,0,0-.49-.13,1.14,1.14,0,0,0-.78.29,1.41,1.41,0,0,0-.33,1.08V83.6Z"/><path d="M107.48,81.53a2.14,2.14,0,0,1,.64-1.71,1.93,1.93,0,0,1,1.3-.46,1.86,1.86,0,0,1,1.4.56,2.13,2.13,0,0,1,.54,1.55,2.75,2.75,0,0,1-.24,1.26,1.71,1.71,0,0,1-.7.71,2,2,0,0,1-1,.25,1.87,1.87,0,0,1-1.41-.56A2.23,2.23,0,0,1,107.48,81.53Zm.72,0a1.77,1.77,0,0,0,.35,1.19,1.16,1.16,0,0,0,1.75,0,1.81,1.81,0,0,0,.35-1.21,1.71,1.71,0,0,0-.35-1.17,1.16,1.16,0,0,0-1.74,0A1.76,1.76,0,0,0,108.21,81.53Z"/><path d="M113.73,83l.1.62a2.65,2.65,0,0,1-.53.06,1.21,1.21,0,0,1-.59-.12.68.68,0,0,1-.3-.32,2.52,2.52,0,0,1-.09-.83V80h-.52v-.55h.52v-1L113,78v1.45h.71V80H113v2.43a1.22,1.22,0,0,0,0,.39.3.3,0,0,0,.12.14.48.48,0,0,0,.24.05Z"/><path d="M116.63,83.6V79.45h.63v.63a1.71,1.71,0,0,1,.45-.58.78.78,0,0,1,.45-.14,1.37,1.37,0,0,1,.72.23l-.24.65a1,1,0,0,0-.52-.15.67.67,0,0,0-.41.14.75.75,0,0,0-.26.38,2.74,2.74,0,0,0-.12.82V83.6Z"/><path d="M122.15,82.27l.73.09a1.77,1.77,0,0,1-.64,1,2.16,2.16,0,0,1-2.63-.21,2.19,2.19,0,0,1-.53-1.57,2.29,2.29,0,0,1,.54-1.62,1.82,1.82,0,0,1,1.4-.58,1.77,1.77,0,0,1,1.36.57,2.25,2.25,0,0,1,.53,1.59s0,.1,0,.19H119.8a1.59,1.59,0,0,0,.39,1,1.15,1.15,0,0,0,.87.36,1.08,1.08,0,0,0,.66-.2A1.35,1.35,0,0,0,122.15,82.27Zm-2.31-1.14h2.32a1.4,1.4,0,0,0-.27-.79,1.08,1.08,0,0,0-.87-.41,1.11,1.11,0,0,0-.81.32A1.28,1.28,0,0,0,119.84,81.13Z"/><path d="M126.46,83.09a2.65,2.65,0,0,1-.75.47,2.18,2.18,0,0,1-.78.14,1.51,1.51,0,0,1-1.05-.33,1.1,1.1,0,0,1-.37-.85,1.13,1.13,0,0,1,.14-.56,1.15,1.15,0,0,1,.36-.4,1.7,1.7,0,0,1,.51-.23,4.79,4.79,0,0,1,.63-.11A6.49,6.49,0,0,0,126.4,81c0-.1,0-.16,0-.18a.78.78,0,0,0-.2-.61,1.17,1.17,0,0,0-.8-.24,1.24,1.24,0,0,0-.73.17,1.06,1.06,0,0,0-.35.62l-.69-.09a1.69,1.69,0,0,1,.31-.71,1.35,1.35,0,0,1,.62-.42,2.77,2.77,0,0,1,.94-.15,2.48,2.48,0,0,1,.86.13,1.13,1.13,0,0,1,.49.31,1.1,1.1,0,0,1,.22.48,4,4,0,0,1,0,.65v.94a9.89,9.89,0,0,0,0,1.24,1.57,1.57,0,0,0,.18.5h-.73A1.48,1.48,0,0,1,126.46,83.09Zm-.06-1.57a5.21,5.21,0,0,1-1.15.27,2.59,2.59,0,0,0-.61.14.61.61,0,0,0-.28.23.62.62,0,0,0,.12.8.92.92,0,0,0,.62.19,1.45,1.45,0,0,0,.72-.18,1.1,1.1,0,0,0,.46-.49,1.71,1.71,0,0,0,.11-.7Z"/><path d="M130.91,82.08l.69.09a1.79,1.79,0,0,1-.58,1.12,1.69,1.69,0,0,1-1.15.4,1.78,1.78,0,0,1-1.37-.56,2.26,2.26,0,0,1-.52-1.6,2.89,2.89,0,0,1,.22-1.18,1.55,1.55,0,0,1,.68-.76,2,2,0,0,1,1-.25,1.72,1.72,0,0,1,1.11.34,1.57,1.57,0,0,1,.55,1l-.68.11a1.14,1.14,0,0,0-.35-.63.89.89,0,0,0-.6-.21,1.09,1.09,0,0,0-.86.38,1.81,1.81,0,0,0-.33,1.21,1.87,1.87,0,0,0,.32,1.21,1,1,0,0,0,.84.38,1,1,0,0,0,.69-.25A1.27,1.27,0,0,0,130.91,82.08Z"/><path d="M132.2,83.6V77.88h.7v2.05a1.57,1.57,0,0,1,1.24-.57,1.67,1.67,0,0,1,.8.18,1.07,1.07,0,0,1,.49.5,2.31,2.31,0,0,1,.15.93V83.6h-.7V81a1.09,1.09,0,0,0-.23-.77A.85.85,0,0,0,134,80a1.14,1.14,0,0,0-.59.16.91.91,0,0,0-.39.44,2,2,0,0,0-.12.77V83.6Z"/><path d="M138.88,78.68v-.81h.7v.81Zm0,4.92V79.45h.7V83.6Z"/><path d="M140.65,83.6V79.45h.63V80a1.49,1.49,0,0,1,1.32-.68,1.73,1.73,0,0,1,.69.13,1.08,1.08,0,0,1,.47.35,1.35,1.35,0,0,1,.22.52,4,4,0,0,1,0,.68V83.6h-.7V81.08a1.89,1.89,0,0,0-.08-.64.67.67,0,0,0-.29-.34.92.92,0,0,0-.49-.13,1.14,1.14,0,0,0-.78.29,1.4,1.4,0,0,0-.33,1.08V83.6Z"/><path d="M146.64,83l.1.62a2.66,2.66,0,0,1-.53.06,1.21,1.21,0,0,1-.59-.12.68.68,0,0,1-.3-.32,2.51,2.51,0,0,1-.09-.83V80h-.52v-.55h.52v-1l.7-.42v1.45h.71V80h-.71v2.43a1.24,1.24,0,0,0,0,.39.3.3,0,0,0,.12.14.47.47,0,0,0,.24.05Z"/><path d="M147.06,81.53a2.14,2.14,0,0,1,.64-1.71,1.93,1.93,0,0,1,1.3-.46,1.86,1.86,0,0,1,1.4.56,2.13,2.13,0,0,1,.54,1.55,2.75,2.75,0,0,1-.24,1.26,1.71,1.71,0,0,1-.7.71,2,2,0,0,1-1,.25,1.87,1.87,0,0,1-1.41-.56A2.23,2.23,0,0,1,147.06,81.53Zm.72,0a1.77,1.77,0,0,0,.35,1.19,1.16,1.16,0,0,0,1.75,0,1.81,1.81,0,0,0,.35-1.21,1.71,1.71,0,0,0-.35-1.17,1.16,1.16,0,0,0-1.74,0A1.76,1.76,0,0,0,147.79,81.53Z"/><path d="M155.53,83l.1.62a2.66,2.66,0,0,1-.53.06,1.21,1.21,0,0,1-.59-.12.68.68,0,0,1-.3-.32,2.51,2.51,0,0,1-.09-.83V80h-.52v-.55h.52v-1l.7-.42v1.45h.71V80h-.71v2.43a1.24,1.24,0,0,0,0,.39A.3.3,0,0,0,155,83a.47.47,0,0,0,.24.05Z"/><path d="M156.22,83.6V77.88h.7v2.05a1.57,1.57,0,0,1,1.24-.57,1.67,1.67,0,0,1,.8.18,1.07,1.07,0,0,1,.49.5,2.31,2.31,0,0,1,.15.93V83.6h-.7V81a1.09,1.09,0,0,0-.23-.77A.85.85,0,0,0,158,80a1.14,1.14,0,0,0-.59.16.91.91,0,0,0-.39.44,2,2,0,0,0-.12.77V83.6Z"/><path d="M163.51,82.27l.73.09a1.77,1.77,0,0,1-.64,1,2.16,2.16,0,0,1-2.63-.21,2.19,2.19,0,0,1-.53-1.57,2.29,2.29,0,0,1,.54-1.62,1.82,1.82,0,0,1,1.4-.58,1.77,1.77,0,0,1,1.36.57,2.25,2.25,0,0,1,.53,1.59s0,.1,0,.19h-3.09a1.6,1.6,0,0,0,.39,1,1.15,1.15,0,0,0,.87.36,1.08,1.08,0,0,0,.66-.2A1.35,1.35,0,0,0,163.51,82.27Zm-2.31-1.14h2.32a1.4,1.4,0,0,0-.27-.79,1.08,1.08,0,0,0-.87-.41,1.11,1.11,0,0,0-.81.32A1.28,1.28,0,0,0,161.2,81.13Z"/><path d="M168,83.6h-.65V77.88h.7v2a1.39,1.39,0,0,1,1.14-.56,1.73,1.73,0,0,1,.72.15,1.48,1.48,0,0,1,.56.43,2.07,2.07,0,0,1,.35.67,2.79,2.79,0,0,1,.13.84,2.37,2.37,0,0,1-.53,1.65,1.65,1.65,0,0,1-1.27.58,1.32,1.32,0,0,1-1.15-.61Zm0-2.11a2.15,2.15,0,0,0,.2,1.08,1,1,0,0,0,1.7.14,1.82,1.82,0,0,0,.34-1.19,1.85,1.85,0,0,0-.32-1.2,1,1,0,0,0-.78-.39,1,1,0,0,0-.8.4A1.76,1.76,0,0,0,168,81.5Z"/><path d="M174.51,83.6V83a1.52,1.52,0,0,1-1.32.7,1.68,1.68,0,0,1-.69-.14,1.13,1.13,0,0,1-.47-.35,1.34,1.34,0,0,1-.22-.52,3.61,3.61,0,0,1,0-.66V79.45h.7v2.3a4.13,4.13,0,0,0,0,.74.73.73,0,0,0,.28.44.87.87,0,0,0,.53.16,1.16,1.16,0,0,0,.59-.16.91.91,0,0,0,.39-.44,2.21,2.21,0,0,0,.12-.81V79.45h.7V83.6Z"/><path d="M176.23,83.6V79.45h.63v.63a1.71,1.71,0,0,1,.45-.58.78.78,0,0,1,.45-.14,1.37,1.37,0,0,1,.72.23l-.24.65a1,1,0,0,0-.52-.15.67.67,0,0,0-.41.14.75.75,0,0,0-.26.38,2.74,2.74,0,0,0-.12.82V83.6Z"/><path d="M178.9,83.6V79.45h.63V80a1.49,1.49,0,0,1,1.32-.68,1.73,1.73,0,0,1,.69.13,1.08,1.08,0,0,1,.47.35,1.35,1.35,0,0,1,.22.52,4,4,0,0,1,0,.68V83.6h-.7V81.08a1.89,1.89,0,0,0-.08-.64.67.67,0,0,0-.29-.34.92.92,0,0,0-.49-.13,1.14,1.14,0,0,0-.78.29,1.4,1.4,0,0,0-.33,1.08V83.6Z"/><path d="M186.19,82.27l.73.09a1.77,1.77,0,0,1-.64,1,2.16,2.16,0,0,1-2.63-.21,2.19,2.19,0,0,1-.53-1.57,2.29,2.29,0,0,1,.54-1.62,1.82,1.82,0,0,1,1.4-.58,1.77,1.77,0,0,1,1.36.57,2.25,2.25,0,0,1,.53,1.59s0,.1,0,.19h-3.09a1.6,1.6,0,0,0,.39,1,1.15,1.15,0,0,0,.87.36,1.08,1.08,0,0,0,.66-.2A1.35,1.35,0,0,0,186.19,82.27Zm-2.31-1.14h2.32a1.4,1.4,0,0,0-.27-.79,1.08,1.08,0,0,0-.87-.41,1.11,1.11,0,0,0-.81.32A1.28,1.28,0,0,0,183.88,81.13Z"/><path d="M187.79,83.6V79.45h.63v.63a1.71,1.71,0,0,1,.45-.58.78.78,0,0,1,.45-.14,1.37,1.37,0,0,1,.72.23l-.24.65a1,1,0,0,0-.52-.15.67.67,0,0,0-.41.14.75.75,0,0,0-.26.38,2.74,2.74,0,0,0-.12.82V83.6Z"/><path d="M192.69,83.6V77.88h.7v2.05a1.57,1.57,0,0,1,1.24-.57,1.67,1.67,0,0,1,.8.18,1.07,1.07,0,0,1,.49.5,2.31,2.31,0,0,1,.15.93V83.6h-.7V81a1.09,1.09,0,0,0-.23-.77.85.85,0,0,0-.65-.24,1.14,1.14,0,0,0-.59.16.91.91,0,0,0-.39.44,2,2,0,0,0-.12.77V83.6Z"/><path d="M196.88,81.53a2.14,2.14,0,0,1,.64-1.71,1.93,1.93,0,0,1,1.3-.46,1.86,1.86,0,0,1,1.4.56,2.13,2.13,0,0,1,.54,1.55,2.75,2.75,0,0,1-.24,1.26,1.71,1.71,0,0,1-.7.71,2,2,0,0,1-1,.25,1.87,1.87,0,0,1-1.41-.56A2.23,2.23,0,0,1,196.88,81.53Zm.72,0a1.77,1.77,0,0,0,.35,1.19,1.16,1.16,0,0,0,1.75,0A1.81,1.81,0,0,0,200,81.5a1.71,1.71,0,0,0-.35-1.17,1.16,1.16,0,0,0-1.74,0A1.76,1.76,0,0,0,197.6,81.53Z"/><path d="M204.31,83.6V83a1.52,1.52,0,0,1-1.32.7,1.68,1.68,0,0,1-.69-.14,1.13,1.13,0,0,1-.47-.35,1.34,1.34,0,0,1-.22-.52,3.61,3.61,0,0,1,0-.66V79.45h.7v2.3a4.13,4.13,0,0,0,0,.74.73.73,0,0,0,.28.44.87.87,0,0,0,.53.16,1.16,1.16,0,0,0,.59-.16.91.91,0,0,0,.39-.44,2.21,2.21,0,0,0,.12-.81V79.45h.7V83.6Z"/><path d="M205.75,82.36l.7-.11a1,1,0,0,0,.33.64,1.14,1.14,0,0,0,.75.22,1.1,1.1,0,0,0,.72-.2.59.59,0,0,0,.23-.46.43.43,0,0,0-.21-.37,3,3,0,0,0-.72-.24,6.66,6.66,0,0,1-1.07-.34,1,1,0,0,1-.61-1A1.06,1.06,0,0,1,206,80a1.13,1.13,0,0,1,.35-.39,1.44,1.44,0,0,1,.45-.21,2.1,2.1,0,0,1,.61-.08,2.4,2.4,0,0,1,.86.14,1.17,1.17,0,0,1,.54.38,1.48,1.48,0,0,1,.24.64l-.69.09a.75.75,0,0,0-.27-.5,1,1,0,0,0-.63-.18,1.14,1.14,0,0,0-.69.16.47.47,0,0,0-.21.38.39.39,0,0,0,.09.25.63.63,0,0,0,.27.19l.62.18a8.59,8.59,0,0,1,1,.33,1.05,1.05,0,0,1,.46.37,1,1,0,0,1,.17.6A1.18,1.18,0,0,1,209,83a1.33,1.33,0,0,1-.59.48,2.16,2.16,0,0,1-.87.17,2,2,0,0,1-1.23-.34A1.57,1.57,0,0,1,205.75,82.36Z"/><path d="M210,78.68v-.81h.7v.81Zm0,4.92V79.45h.7V83.6Z"/><path d="M211.81,83.6V79.45h.63V80a1.49,1.49,0,0,1,1.32-.68,1.73,1.73,0,0,1,.69.13,1.08,1.08,0,0,1,.47.35,1.35,1.35,0,0,1,.22.52,4,4,0,0,1,0,.68V83.6h-.7V81.08a1.89,1.89,0,0,0-.08-.64.67.67,0,0,0-.29-.34.92.92,0,0,0-.49-.13,1.14,1.14,0,0,0-.78.29,1.4,1.4,0,0,0-.33,1.08V83.6Z"/><path d="M216.13,83.95l.68.1a.65.65,0,0,0,.24.46,1.17,1.17,0,0,0,.71.2,1.26,1.26,0,0,0,.75-.2,1,1,0,0,0,.36-.55,4.5,4.5,0,0,0,.05-.9,1.45,1.45,0,0,1-1.15.54,1.57,1.57,0,0,1-1.32-.62A2.38,2.38,0,0,1,216,81.5a2.75,2.75,0,0,1,.21-1.1,1.71,1.71,0,0,1,.62-.78,1.68,1.68,0,0,1,1-.27A1.49,1.49,0,0,1,219,80v-.5h.65V83a3.4,3.4,0,0,1-.2,1.37,1.44,1.44,0,0,1-.62.64,2.17,2.17,0,0,1-1.05.23,2,2,0,0,1-1.2-.33A1.13,1.13,0,0,1,216.13,83.95Zm.58-2.49a1.8,1.8,0,0,0,.32,1.19,1,1,0,0,0,.81.38,1,1,0,0,0,.81-.37,1.74,1.74,0,0,0,.33-1.17,1.7,1.7,0,0,0-.34-1.15,1,1,0,0,0-.81-.39,1,1,0,0,0-.8.38A1.69,1.69,0,0,0,216.72,81.45Z"/><path d="M222.67,81.53a2.14,2.14,0,0,1,.64-1.71,1.93,1.93,0,0,1,1.3-.46,1.86,1.86,0,0,1,1.4.56,2.13,2.13,0,0,1,.54,1.55,2.75,2.75,0,0,1-.24,1.26,1.71,1.71,0,0,1-.7.71,2,2,0,0,1-1,.25,1.87,1.87,0,0,1-1.41-.56A2.23,2.23,0,0,1,222.67,81.53Zm.72,0a1.77,1.77,0,0,0,.35,1.19,1.16,1.16,0,0,0,1.75,0,1.81,1.81,0,0,0,.35-1.21,1.71,1.71,0,0,0-.35-1.17,1.16,1.16,0,0,0-1.74,0A1.76,1.76,0,0,0,223.4,81.53Z"/><path d="M227.38,83.6V79.45H228v.63a1.71,1.71,0,0,1,.45-.58.78.78,0,0,1,.45-.14,1.37,1.37,0,0,1,.72.23l-.24.65a1,1,0,0,0-.52-.15.67.67,0,0,0-.41.14.75.75,0,0,0-.26.38,2.74,2.74,0,0,0-.12.82V83.6Z"/><path d="M93.56,91.68l.69.09a1.79,1.79,0,0,1-.58,1.12,1.69,1.69,0,0,1-1.15.4,1.78,1.78,0,0,1-1.37-.56,2.26,2.26,0,0,1-.52-1.6A2.89,2.89,0,0,1,90.86,90a1.55,1.55,0,0,1,.68-.76,2,2,0,0,1,1-.25,1.72,1.72,0,0,1,1.11.34,1.57,1.57,0,0,1,.55,1l-.68.11a1.13,1.13,0,0,0-.35-.63.89.89,0,0,0-.6-.21,1.09,1.09,0,0,0-.86.38,1.81,1.81,0,0,0-.33,1.21,1.87,1.87,0,0,0,.32,1.21,1,1,0,0,0,.84.38,1,1,0,0,0,.69-.25A1.26,1.26,0,0,0,93.56,91.68Z"/><path d="M94.59,91.13a2.14,2.14,0,0,1,.64-1.71,1.93,1.93,0,0,1,1.3-.46,1.86,1.86,0,0,1,1.4.56,2.13,2.13,0,0,1,.54,1.55,2.74,2.74,0,0,1-.24,1.26,1.69,1.69,0,0,1-.7.71,2,2,0,0,1-1,.25,1.86,1.86,0,0,1-1.41-.56A2.23,2.23,0,0,1,94.59,91.13Zm.72,0a1.76,1.76,0,0,0,.35,1.19,1.16,1.16,0,0,0,1.75,0,1.81,1.81,0,0,0,.35-1.21,1.72,1.72,0,0,0-.35-1.17,1.16,1.16,0,0,0-1.74,0A1.76,1.76,0,0,0,95.31,91.13Z"/><path d="M99.3,93.2V89.05h.63v.58a1.46,1.46,0,0,1,1.26-.68,1.37,1.37,0,0,1,.76.19,1,1,0,0,1,.42.54,1.49,1.49,0,0,1,1.28-.73,1.26,1.26,0,0,1,.95.34,1.46,1.46,0,0,1,.33,1.05V93.2h-.7V90.59a1.93,1.93,0,0,0-.07-.61.59.59,0,0,0-.25-.3.78.78,0,0,0-.42-.11,1,1,0,0,0-.73.29,1.28,1.28,0,0,0-.29.93V93.2h-.7v-2.7a1.18,1.18,0,0,0-.17-.7.65.65,0,0,0-.56-.23,1,1,0,0,0-.55.16.89.89,0,0,0-.37.46A2.57,2.57,0,0,0,100,91V93.2Z"/><path d="M106.61,93.2H106V87.48h.7v2A1.39,1.39,0,0,1,107.8,89a1.75,1.75,0,0,1,.72.15,1.49,1.49,0,0,1,.56.43,2.11,2.11,0,0,1,.35.67,2.78,2.78,0,0,1,.13.84,2.37,2.37,0,0,1-.53,1.65,1.65,1.65,0,0,1-1.27.58,1.32,1.32,0,0,1-1.15-.61Zm0-2.11a2.15,2.15,0,0,0,.2,1.08,1,1,0,0,0,1.7.14,1.82,1.82,0,0,0,.34-1.19,1.85,1.85,0,0,0-.32-1.2,1,1,0,0,0-.78-.39,1,1,0,0,0-.8.4A1.76,1.76,0,0,0,106.6,91.1Z"/><path d="M113.13,93.2v-.61a1.52,1.52,0,0,1-1.32.7,1.68,1.68,0,0,1-.69-.14,1.12,1.12,0,0,1-.47-.35,1.32,1.32,0,0,1-.22-.52,3.55,3.55,0,0,1,0-.66V89.05h.7v2.3a4.08,4.08,0,0,0,0,.74.73.73,0,0,0,.28.44.87.87,0,0,0,.53.16,1.15,1.15,0,0,0,.59-.16.9.9,0,0,0,.39-.44,2.21,2.21,0,0,0,.12-.81V89.05h.7V93.2Z"/><path d="M114.58,92l.7-.11a1,1,0,0,0,.33.64,1.14,1.14,0,0,0,.75.22,1.1,1.1,0,0,0,.72-.2.59.59,0,0,0,.23-.46.43.43,0,0,0-.21-.37,3.06,3.06,0,0,0-.72-.24,6.46,6.46,0,0,1-1.07-.34,1,1,0,0,1-.61-1,1.07,1.07,0,0,1,.13-.51,1.14,1.14,0,0,1,.35-.39,1.48,1.48,0,0,1,.45-.21,2.14,2.14,0,0,1,.61-.08,2.4,2.4,0,0,1,.86.14,1.17,1.17,0,0,1,.54.38,1.49,1.49,0,0,1,.24.64l-.69.09a.75.75,0,0,0-.27-.5,1,1,0,0,0-.63-.18,1.15,1.15,0,0,0-.69.16.47.47,0,0,0-.21.38.39.39,0,0,0,.09.25.61.61,0,0,0,.27.19l.62.18a8.77,8.77,0,0,1,1,.33,1.06,1.06,0,0,1,.46.37,1,1,0,0,1,.17.6,1.18,1.18,0,0,1-.21.66,1.33,1.33,0,0,1-.59.48,2.15,2.15,0,0,1-.87.17,2,2,0,0,1-1.23-.34A1.56,1.56,0,0,1,114.58,92Z"/><path d="M120.4,92.57l.1.62a2.58,2.58,0,0,1-.53.06,1.2,1.2,0,0,1-.59-.12.67.67,0,0,1-.3-.32A2.52,2.52,0,0,1,119,92V89.6h-.52v-.55H119V88l.7-.42v1.45h.71v.55h-.71V92a1.21,1.21,0,0,0,0,.39.29.29,0,0,0,.12.14.47.47,0,0,0,.24.05Z"/><path d="M121.09,88.28v-.81h.7v.81Zm0,4.92V89.05h.7V93.2Z"/><path d="M122.6,91.13a2.14,2.14,0,0,1,.64-1.71,1.93,1.93,0,0,1,1.3-.46,1.86,1.86,0,0,1,1.4.56,2.13,2.13,0,0,1,.54,1.55,2.74,2.74,0,0,1-.24,1.26,1.7,1.7,0,0,1-.7.71,2,2,0,0,1-1,.25,1.86,1.86,0,0,1-1.41-.56A2.23,2.23,0,0,1,122.6,91.13Zm.72,0a1.77,1.77,0,0,0,.35,1.19,1.16,1.16,0,0,0,1.75,0,1.81,1.81,0,0,0,.35-1.21,1.71,1.71,0,0,0-.35-1.17,1.16,1.16,0,0,0-1.74,0A1.76,1.76,0,0,0,123.32,91.13Z"/><path d="M127.31,93.2V89.05h.63v.59a1.49,1.49,0,0,1,1.32-.68,1.73,1.73,0,0,1,.69.13,1.09,1.09,0,0,1,.47.35,1.36,1.36,0,0,1,.22.52,4,4,0,0,1,0,.68V93.2H130V90.68a1.9,1.9,0,0,0-.08-.64.68.68,0,0,0-.29-.34.93.93,0,0,0-.49-.13,1.14,1.14,0,0,0-.78.29,1.41,1.41,0,0,0-.33,1.08V93.2Z"/><path d="M136.69,91.68l.69.09a1.79,1.79,0,0,1-.58,1.12,1.69,1.69,0,0,1-1.15.4,1.78,1.78,0,0,1-1.37-.56,2.26,2.26,0,0,1-.52-1.6A2.89,2.89,0,0,1,134,90a1.55,1.55,0,0,1,.68-.76,2,2,0,0,1,1-.25,1.72,1.72,0,0,1,1.11.34,1.57,1.57,0,0,1,.55,1l-.68.11a1.14,1.14,0,0,0-.35-.63.89.89,0,0,0-.6-.21,1.09,1.09,0,0,0-.86.38,1.81,1.81,0,0,0-.33,1.21,1.87,1.87,0,0,0,.32,1.21,1,1,0,0,0,.84.38,1,1,0,0,0,.69-.25A1.26,1.26,0,0,0,136.69,91.68Z"/><path d="M138,93.2V87.48h.7v2.05a1.57,1.57,0,0,1,1.24-.57,1.67,1.67,0,0,1,.8.18,1.07,1.07,0,0,1,.49.5,2.32,2.32,0,0,1,.15.93V93.2h-.7V90.57a1.09,1.09,0,0,0-.23-.77.85.85,0,0,0-.65-.24,1.15,1.15,0,0,0-.59.16.92.92,0,0,0-.39.44,2,2,0,0,0-.12.77V93.2Z"/><path d="M145.14,92.69a2.6,2.6,0,0,1-.75.47,2.16,2.16,0,0,1-.78.14,1.51,1.51,0,0,1-1.05-.33,1.1,1.1,0,0,1-.37-.85,1.13,1.13,0,0,1,.14-.56,1.15,1.15,0,0,1,.36-.4,1.72,1.72,0,0,1,.51-.23,5.15,5.15,0,0,1,.63-.11,6.41,6.41,0,0,0,1.25-.24c0-.1,0-.16,0-.18a.78.78,0,0,0-.2-.61,1.18,1.18,0,0,0-.8-.24,1.25,1.25,0,0,0-.73.17,1.06,1.06,0,0,0-.35.62l-.69-.09a1.7,1.7,0,0,1,.31-.71,1.36,1.36,0,0,1,.62-.42,2.77,2.77,0,0,1,.94-.15,2.5,2.5,0,0,1,.86.13,1.15,1.15,0,0,1,.49.31,1.11,1.11,0,0,1,.22.48,4,4,0,0,1,0,.65v.94a9.87,9.87,0,0,0,0,1.24,1.55,1.55,0,0,0,.18.5h-.73A1.47,1.47,0,0,1,145.14,92.69Zm-.06-1.57a5.1,5.1,0,0,1-1.15.27,2.7,2.7,0,0,0-.61.14.62.62,0,0,0-.28.23.62.62,0,0,0,.12.8.92.92,0,0,0,.62.19,1.44,1.44,0,0,0,.72-.18,1.09,1.09,0,0,0,.46-.49,1.7,1.7,0,0,0,.11-.7Z"/><path d="M146.88,93.2V89.05h.63v.58a1.48,1.48,0,0,1,.52-.49,1.46,1.46,0,0,1,.74-.19,1.37,1.37,0,0,1,.76.19,1,1,0,0,1,.42.54,1.49,1.49,0,0,1,1.28-.73,1.27,1.27,0,0,1,.95.34,1.46,1.46,0,0,1,.33,1.05V93.2h-.7V90.59a1.92,1.92,0,0,0-.07-.61.59.59,0,0,0-.25-.3.78.78,0,0,0-.42-.11,1,1,0,0,0-.73.29,1.28,1.28,0,0,0-.29.93V93.2h-.7v-2.7a1.19,1.19,0,0,0-.17-.7.65.65,0,0,0-.56-.23,1,1,0,0,0-.55.16.89.89,0,0,0-.37.46,2.59,2.59,0,0,0-.11.87V93.2Z"/><path d="M154.19,93.2h-.65V87.48h.7v2a1.39,1.39,0,0,1,1.14-.56,1.75,1.75,0,0,1,.72.15,1.5,1.5,0,0,1,.56.43,2.09,2.09,0,0,1,.35.67,2.79,2.79,0,0,1,.13.84,2.37,2.37,0,0,1-.53,1.65,1.65,1.65,0,0,1-1.27.58,1.32,1.32,0,0,1-1.15-.61Zm0-2.11a2.15,2.15,0,0,0,.2,1.08,1,1,0,0,0,1.7.14,1.82,1.82,0,0,0,.34-1.19,1.85,1.85,0,0,0-.32-1.2,1,1,0,0,0-.78-.39,1,1,0,0,0-.8.4A1.76,1.76,0,0,0,154.18,91.1Z"/><path d="M160.83,91.87l.73.09a1.77,1.77,0,0,1-.64,1,2.16,2.16,0,0,1-2.63-.21,2.19,2.19,0,0,1-.53-1.57,2.29,2.29,0,0,1,.54-1.62,1.83,1.83,0,0,1,1.4-.58,1.78,1.78,0,0,1,1.36.57,2.25,2.25,0,0,1,.53,1.59s0,.1,0,.19h-3.09a1.6,1.6,0,0,0,.39,1,1.15,1.15,0,0,0,.87.36,1.07,1.07,0,0,0,.66-.2A1.34,1.34,0,0,0,160.83,91.87Zm-2.31-1.14h2.32a1.41,1.41,0,0,0-.27-.79,1.08,1.08,0,0,0-.87-.41,1.12,1.12,0,0,0-.81.32A1.29,1.29,0,0,0,158.52,90.73Z"/><path d="M162.43,93.2V89.05h.63v.63a1.72,1.72,0,0,1,.45-.58A.78.78,0,0,1,164,89a1.38,1.38,0,0,1,.72.23l-.24.65a1,1,0,0,0-.52-.15.67.67,0,0,0-.41.14.75.75,0,0,0-.26.38,2.74,2.74,0,0,0-.12.82V93.2Z"/><path d="M167.33,88.28v-.81h.7v.81Zm0,4.92V89.05h.7V93.2Z"/><path d="M169.27,93.2V89.6h-.62v-.55h.62v-.44a1.93,1.93,0,0,1,.07-.62.9.9,0,0,1,.36-.44,1.29,1.29,0,0,1,.72-.17,3.44,3.44,0,0,1,.66.07l-.11.61a2.42,2.42,0,0,0-.41,0,.62.62,0,0,0-.45.14.74.74,0,0,0-.13.51v.38h.81v.55H170v3.6Z"/><path d="M175.09,92.57l.1.62a2.59,2.59,0,0,1-.53.06,1.2,1.2,0,0,1-.59-.12.68.68,0,0,1-.3-.32,2.51,2.51,0,0,1-.09-.83V89.6h-.52v-.55h.52V88l.7-.42v1.45h.71v.55h-.71V92a1.23,1.23,0,0,0,0,.39.29.29,0,0,0,.12.14.46.46,0,0,0,.24.05Z"/><path d="M175.77,93.2V87.48h.7v2.05a1.57,1.57,0,0,1,1.24-.57,1.67,1.67,0,0,1,.8.18,1.07,1.07,0,0,1,.49.5,2.32,2.32,0,0,1,.15.93V93.2h-.7V90.57a1.09,1.09,0,0,0-.23-.77.85.85,0,0,0-.65-.24,1.15,1.15,0,0,0-.59.16.92.92,0,0,0-.39.44,2,2,0,0,0-.12.77V93.2Z"/><path d="M183.06,91.87l.73.09a1.77,1.77,0,0,1-.64,1,2.16,2.16,0,0,1-2.63-.21,2.19,2.19,0,0,1-.53-1.57,2.29,2.29,0,0,1,.54-1.62,1.83,1.83,0,0,1,1.4-.58,1.78,1.78,0,0,1,1.36.57,2.25,2.25,0,0,1,.53,1.59s0,.1,0,.19h-3.09a1.6,1.6,0,0,0,.39,1,1.15,1.15,0,0,0,.87.36,1.07,1.07,0,0,0,.66-.2A1.34,1.34,0,0,0,183.06,91.87Zm-2.31-1.14h2.32a1.41,1.41,0,0,0-.27-.79,1.08,1.08,0,0,0-.87-.41,1.12,1.12,0,0,0-.81.32A1.29,1.29,0,0,0,180.75,90.73Z"/><path d="M187.66,93.2l-1.27-4.15h.73l.66,2.39.25.89.21-.86.66-2.43h.72l.62,2.41.21.79.24-.8.71-2.4h.68l-1.3,4.15h-.73l-.66-2.48-.16-.71-.84,3.19Z"/><path d="M195.38,92.69a2.6,2.6,0,0,1-.75.47,2.16,2.16,0,0,1-.78.14A1.51,1.51,0,0,1,192.8,93a1.1,1.1,0,0,1-.37-.85,1.13,1.13,0,0,1,.14-.56,1.15,1.15,0,0,1,.36-.4,1.72,1.72,0,0,1,.51-.23,5.15,5.15,0,0,1,.63-.11,6.41,6.41,0,0,0,1.25-.24c0-.1,0-.16,0-.18a.78.78,0,0,0-.2-.61,1.18,1.18,0,0,0-.8-.24,1.25,1.25,0,0,0-.73.17,1.06,1.06,0,0,0-.35.62l-.69-.09a1.7,1.7,0,0,1,.31-.71,1.36,1.36,0,0,1,.62-.42,2.77,2.77,0,0,1,.94-.15,2.5,2.5,0,0,1,.86.13,1.15,1.15,0,0,1,.49.31,1.11,1.11,0,0,1,.22.48,4,4,0,0,1,0,.65v.94a9.87,9.87,0,0,0,0,1.24,1.55,1.55,0,0,0,.18.5h-.73A1.47,1.47,0,0,1,195.38,92.69Zm-.06-1.57a5.1,5.1,0,0,1-1.15.27,2.7,2.7,0,0,0-.61.14.62.62,0,0,0-.28.23.62.62,0,0,0,.12.8.92.92,0,0,0,.62.19,1.44,1.44,0,0,0,.72-.18,1.09,1.09,0,0,0,.46-.49,1.7,1.7,0,0,0,.11-.7Z"/><path d="M198.66,92.57l.1.62a2.59,2.59,0,0,1-.53.06,1.2,1.2,0,0,1-.59-.12.68.68,0,0,1-.3-.32,2.51,2.51,0,0,1-.09-.83V89.6h-.52v-.55h.52V88l.7-.42v1.45h.71v.55H198V92a1.23,1.23,0,0,0,0,.39.29.29,0,0,0,.12.14.46.46,0,0,0,.24.05Z"/><path d="M202.18,91.87l.73.09a1.77,1.77,0,0,1-.64,1,2.16,2.16,0,0,1-2.63-.21,2.19,2.19,0,0,1-.53-1.57,2.29,2.29,0,0,1,.54-1.62A1.83,1.83,0,0,1,201,89a1.78,1.78,0,0,1,1.36.57,2.25,2.25,0,0,1,.53,1.59s0,.1,0,.19h-3.09a1.6,1.6,0,0,0,.39,1,1.15,1.15,0,0,0,.87.36,1.07,1.07,0,0,0,.66-.2A1.34,1.34,0,0,0,202.18,91.87Zm-2.31-1.14h2.32a1.41,1.41,0,0,0-.27-.79,1.08,1.08,0,0,0-.87-.41,1.12,1.12,0,0,0-.81.32A1.29,1.29,0,0,0,199.88,90.73Z"/><path d="M203.79,93.2V89.05h.63v.63a1.72,1.72,0,0,1,.45-.58.78.78,0,0,1,.45-.14,1.38,1.38,0,0,1,.72.23l-.24.65a1,1,0,0,0-.52-.15.67.67,0,0,0-.41.14.75.75,0,0,0-.26.38,2.74,2.74,0,0,0-.12.82V93.2Z"/><path d="M208.68,93.2V87.48h.7v2.05a1.57,1.57,0,0,1,1.24-.57,1.67,1.67,0,0,1,.8.18,1.07,1.07,0,0,1,.49.5,2.32,2.32,0,0,1,.15.93V93.2h-.7V90.57a1.09,1.09,0,0,0-.23-.77.85.85,0,0,0-.65-.24,1.15,1.15,0,0,0-.59.16.92.92,0,0,0-.39.44,2,2,0,0,0-.12.77V93.2Z"/><path d="M216,91.87l.73.09a1.77,1.77,0,0,1-.64,1,2.16,2.16,0,0,1-2.63-.21,2.19,2.19,0,0,1-.53-1.57,2.29,2.29,0,0,1,.54-1.62,1.83,1.83,0,0,1,1.4-.58,1.78,1.78,0,0,1,1.36.57,2.25,2.25,0,0,1,.53,1.59s0,.1,0,.19h-3.09a1.6,1.6,0,0,0,.39,1,1.15,1.15,0,0,0,.87.36,1.07,1.07,0,0,0,.66-.2A1.34,1.34,0,0,0,216,91.87Zm-2.31-1.14H216a1.41,1.41,0,0,0-.27-.79,1.08,1.08,0,0,0-.87-.41,1.12,1.12,0,0,0-.81.32A1.29,1.29,0,0,0,213.66,90.73Z"/><path d="M220.29,92.69a2.6,2.6,0,0,1-.75.47,2.16,2.16,0,0,1-.78.14,1.51,1.51,0,0,1-1.05-.33,1.1,1.1,0,0,1-.37-.85,1.13,1.13,0,0,1,.14-.56,1.15,1.15,0,0,1,.36-.4,1.72,1.72,0,0,1,.51-.23,5.15,5.15,0,0,1,.63-.11,6.41,6.41,0,0,0,1.25-.24c0-.1,0-.16,0-.18a.78.78,0,0,0-.2-.61,1.18,1.18,0,0,0-.8-.24,1.25,1.25,0,0,0-.73.17,1.06,1.06,0,0,0-.35.62l-.69-.09a1.7,1.7,0,0,1,.31-.71,1.36,1.36,0,0,1,.62-.42,2.77,2.77,0,0,1,.94-.15,2.5,2.5,0,0,1,.86.13,1.15,1.15,0,0,1,.49.31,1.11,1.11,0,0,1,.22.48,4,4,0,0,1,0,.65v.94a9.87,9.87,0,0,0,0,1.24,1.55,1.55,0,0,0,.18.5h-.73A1.47,1.47,0,0,1,220.29,92.69Zm-.06-1.57a5.1,5.1,0,0,1-1.15.27,2.7,2.7,0,0,0-.61.14.62.62,0,0,0-.28.23.62.62,0,0,0,.12.8.92.92,0,0,0,.62.19,1.44,1.44,0,0,0,.72-.18,1.09,1.09,0,0,0,.46-.49,1.7,1.7,0,0,0,.11-.7Z"/><path d="M223.56,92.57l.1.62a2.59,2.59,0,0,1-.53.06,1.2,1.2,0,0,1-.59-.12.68.68,0,0,1-.3-.32,2.51,2.51,0,0,1-.09-.83V89.6h-.52v-.55h.52V88l.7-.42v1.45h.71v.55h-.71V92a1.23,1.23,0,0,0,0,.39.29.29,0,0,0,.12.14.46.46,0,0,0,.24.05Z"/><path d="M227.09,91.87l.73.09a1.77,1.77,0,0,1-.64,1,2.16,2.16,0,0,1-2.63-.21,2.19,2.19,0,0,1-.53-1.57,2.29,2.29,0,0,1,.54-1.62A1.83,1.83,0,0,1,226,89a1.78,1.78,0,0,1,1.36.57,2.25,2.25,0,0,1,.53,1.59s0,.1,0,.19h-3.09a1.6,1.6,0,0,0,.39,1,1.15,1.15,0,0,0,.87.36,1.07,1.07,0,0,0,.66-.2A1.34,1.34,0,0,0,227.09,91.87Zm-2.31-1.14h2.32a1.41,1.41,0,0,0-.27-.79,1.08,1.08,0,0,0-.87-.41,1.12,1.12,0,0,0-.81.32A1.29,1.29,0,0,0,224.78,90.73Z"/><path d="M228.69,93.2V89.05h.63v.63a1.72,1.72,0,0,1,.45-.58.78.78,0,0,1,.45-.14,1.38,1.38,0,0,1,.72.23l-.24.65a1,1,0,0,0-.52-.15.67.67,0,0,0-.41.14.75.75,0,0,0-.26.38,2.74,2.74,0,0,0-.12.82V93.2Z"/><path d="M90.85,97.88v-.81h.7v.81Zm0,4.92V98.65h.7v4.15Z"/><path d="M92.34,101.56l.7-.11a1,1,0,0,0,.33.64,1.14,1.14,0,0,0,.75.22,1.1,1.1,0,0,0,.72-.2.59.59,0,0,0,.23-.46.43.43,0,0,0-.21-.37,3,3,0,0,0-.72-.24,6.66,6.66,0,0,1-1.07-.34,1,1,0,0,1-.61-1,1.07,1.07,0,0,1,.13-.51,1.12,1.12,0,0,1,.35-.39,1.43,1.43,0,0,1,.45-.21,2.1,2.1,0,0,1,.61-.08,2.4,2.4,0,0,1,.86.14,1.17,1.17,0,0,1,.54.38,1.49,1.49,0,0,1,.24.64l-.69.09a.75.75,0,0,0-.27-.5,1,1,0,0,0-.63-.18,1.15,1.15,0,0,0-.69.16.46.46,0,0,0-.21.38.39.39,0,0,0,.09.25.62.62,0,0,0,.27.19l.62.18a8.59,8.59,0,0,1,1,.33,1,1,0,0,1,.46.37,1,1,0,0,1,.17.6,1.18,1.18,0,0,1-.21.66,1.33,1.33,0,0,1-.59.48,2.15,2.15,0,0,1-.87.17,2,2,0,0,1-1.23-.34A1.56,1.56,0,0,1,92.34,101.56Z"/><path d="M98.57,101.56l.7-.11a1,1,0,0,0,.33.64,1.14,1.14,0,0,0,.75.22,1.1,1.1,0,0,0,.72-.2.59.59,0,0,0,.23-.46.43.43,0,0,0-.21-.37,3,3,0,0,0-.72-.24,6.66,6.66,0,0,1-1.07-.34,1,1,0,0,1-.61-1,1.07,1.07,0,0,1,.13-.51,1.12,1.12,0,0,1,.35-.39,1.43,1.43,0,0,1,.45-.21,2.1,2.1,0,0,1,.61-.08,2.4,2.4,0,0,1,.86.14,1.17,1.17,0,0,1,.54.38,1.49,1.49,0,0,1,.24.64l-.69.09a.75.75,0,0,0-.27-.5,1,1,0,0,0-.63-.18,1.15,1.15,0,0,0-.69.16.46.46,0,0,0-.21.38.39.39,0,0,0,.09.25.62.62,0,0,0,.27.19l.62.18a8.59,8.59,0,0,1,1,.33,1,1,0,0,1,.46.37,1,1,0,0,1,.17.6,1.18,1.18,0,0,1-.21.66,1.33,1.33,0,0,1-.59.48,2.15,2.15,0,0,1-.87.17,2,2,0,0,1-1.23-.34A1.56,1.56,0,0,1,98.57,101.56Z"/><path d="M104.38,102.17l.1.62a2.65,2.65,0,0,1-.53.06,1.21,1.21,0,0,1-.59-.12.68.68,0,0,1-.3-.32,2.52,2.52,0,0,1-.09-.83V99.2h-.52v-.55H103v-1l.7-.42v1.45h.71v.55h-.71v2.43a1.22,1.22,0,0,0,0,.39.3.3,0,0,0,.12.14.48.48,0,0,0,.24.05Z"/><path d="M105.07,97.88v-.81h.7v.81Zm0,4.92V98.65h.7v4.15Z"/><path d="M106.83,102.8V97.08h.7v5.73Z"/><path d="M108.61,102.8V97.08h.7v5.73Z"/><path d="M112.63,102.8V97.08h.7v2.05a1.57,1.57,0,0,1,1.24-.57,1.68,1.68,0,0,1,.8.18,1.07,1.07,0,0,1,.49.5,2.31,2.31,0,0,1,.15.93v2.63h-.7v-2.63a1.09,1.09,0,0,0-.23-.77.85.85,0,0,0-.65-.24,1.14,1.14,0,0,0-.59.16.91.91,0,0,0-.39.44,2,2,0,0,0-.12.77v2.27Z"/><path d="M116.81,100.73a2.14,2.14,0,0,1,.64-1.71,1.93,1.93,0,0,1,1.3-.46,1.86,1.86,0,0,1,1.4.56,2.13,2.13,0,0,1,.54,1.55,2.75,2.75,0,0,1-.24,1.26,1.71,1.71,0,0,1-.7.71,2,2,0,0,1-1,.25,1.87,1.87,0,0,1-1.41-.56A2.23,2.23,0,0,1,116.81,100.73Zm.72,0a1.77,1.77,0,0,0,.35,1.19,1.16,1.16,0,0,0,1.75,0,1.81,1.81,0,0,0,.35-1.21,1.71,1.71,0,0,0-.35-1.17,1.16,1.16,0,0,0-1.74,0A1.76,1.76,0,0,0,117.54,100.73Z"/><path d="M123.06,102.17l.1.62a2.66,2.66,0,0,1-.53.06,1.21,1.21,0,0,1-.59-.12.68.68,0,0,1-.3-.32,2.54,2.54,0,0,1-.09-.83V99.2h-.52v-.55h.52v-1l.7-.42v1.45h.71v.55h-.71v2.43a1.24,1.24,0,0,0,0,.39.3.3,0,0,0,.12.14.47.47,0,0,0,.24.05Z"/><path d="M123.95,102.8V102h.8v.8Z"/><path d="M86.24,81.11a1.73,1.73,0,1,1-.51-1.22A1.67,1.67,0,0,1,86.24,81.11Z"/><path d="M90.32,117.61l2.2-5.73h.82l2.34,5.73h-.86l-.67-1.73H91.76l-.63,1.73ZM92,115.26h1.94l-.6-1.59c-.18-.48-.32-.88-.41-1.19a7.26,7.26,0,0,1-.31,1.09Z"/><path d="M96.18,117.61v-5.73h.7v5.73Z"/><path d="M98,117.61v-5.73h.7v5.73Z"/><path d="M99.49,115.54a2.14,2.14,0,0,1,.64-1.71,1.93,1.93,0,0,1,1.3-.46,1.86,1.86,0,0,1,1.4.56,2.13,2.13,0,0,1,.54,1.55,2.75,2.75,0,0,1-.24,1.26,1.7,1.7,0,0,1-.7.71,2,2,0,0,1-1,.25,1.86,1.86,0,0,1-1.41-.56A2.23,2.23,0,0,1,99.49,115.54Zm.72,0a1.76,1.76,0,0,0,.35,1.19,1.16,1.16,0,0,0,1.75,0,1.81,1.81,0,0,0,.35-1.21,1.71,1.71,0,0,0-.35-1.17,1.16,1.16,0,0,0-1.74,0A1.76,1.76,0,0,0,100.21,115.54Z"/><path d="M105,117.61l-1.27-4.15h.73l.66,2.39.25.89.21-.86.66-2.43h.72l.62,2.41.21.79.24-.8.71-2.4h.68l-1.3,4.15h-.73l-.66-2.48-.16-.71-.84,3.19Z"/><path d="M113.74,117l.1.62a2.65,2.65,0,0,1-.53.06,1.21,1.21,0,0,1-.59-.12.68.68,0,0,1-.3-.32,2.52,2.52,0,0,1-.09-.83V114h-.52v-.55h.52v-1l.7-.42v1.45h.71V114H113v2.43a1.21,1.21,0,0,0,0,.39.29.29,0,0,0,.12.14.48.48,0,0,0,.24.05Z"/><path d="M114.42,117.61v-5.73h.7v2.05a1.57,1.57,0,0,1,1.24-.57,1.68,1.68,0,0,1,.8.18,1.07,1.07,0,0,1,.49.5,2.31,2.31,0,0,1,.15.93v2.63h-.7V115a1.09,1.09,0,0,0-.23-.77.85.85,0,0,0-.65-.24,1.15,1.15,0,0,0-.59.16.91.91,0,0,0-.39.44,2,2,0,0,0-.12.77v2.27Z"/><path d="M121.71,116.28l.73.09a1.77,1.77,0,0,1-.64,1,2.16,2.16,0,0,1-2.63-.21,2.19,2.19,0,0,1-.53-1.57,2.29,2.29,0,0,1,.54-1.62,1.83,1.83,0,0,1,1.4-.58,1.78,1.78,0,0,1,1.36.57,2.25,2.25,0,0,1,.53,1.59s0,.1,0,.19h-3.09a1.59,1.59,0,0,0,.39,1,1.15,1.15,0,0,0,.87.36,1.08,1.08,0,0,0,.66-.2A1.35,1.35,0,0,0,121.71,116.28Zm-2.31-1.14h2.32a1.4,1.4,0,0,0-.27-.79,1.08,1.08,0,0,0-.87-.41,1.11,1.11,0,0,0-.81.32A1.29,1.29,0,0,0,119.4,115.14Z"/><path d="M126.31,117.61,125,113.46h.73l.66,2.39.25.89.21-.86.66-2.43h.72l.62,2.41.21.79.24-.8.71-2.4h.68l-1.3,4.15h-.73l-.66-2.48-.16-.71-.84,3.19Z"/><path d="M134,117.1a2.65,2.65,0,0,1-.75.47,2.16,2.16,0,0,1-.78.14,1.51,1.51,0,0,1-1.05-.33,1.1,1.1,0,0,1-.37-.85,1.13,1.13,0,0,1,.14-.56,1.15,1.15,0,0,1,.36-.4,1.72,1.72,0,0,1,.51-.23,4.79,4.79,0,0,1,.63-.11A6.49,6.49,0,0,0,134,115c0-.1,0-.16,0-.18a.78.78,0,0,0-.2-.61,1.18,1.18,0,0,0-.8-.24,1.25,1.25,0,0,0-.73.17,1.06,1.06,0,0,0-.35.62l-.69-.09a1.7,1.7,0,0,1,.31-.71,1.35,1.35,0,0,1,.62-.42,2.77,2.77,0,0,1,.94-.15,2.48,2.48,0,0,1,.86.13,1.14,1.14,0,0,1,.49.31,1.11,1.11,0,0,1,.22.48,4,4,0,0,1,0,.65v.94a9.88,9.88,0,0,0,0,1.24,1.55,1.55,0,0,0,.18.5h-.73A1.48,1.48,0,0,1,134,117.1Zm-.06-1.57a5.15,5.15,0,0,1-1.15.27,2.59,2.59,0,0,0-.61.14.62.62,0,0,0-.28.23.62.62,0,0,0,.12.8.92.92,0,0,0,.62.19,1.44,1.44,0,0,0,.72-.18,1.1,1.1,0,0,0,.46-.49,1.7,1.7,0,0,0,.11-.7Z"/><path d="M137.31,117l.1.62a2.66,2.66,0,0,1-.53.06,1.21,1.21,0,0,1-.59-.12.68.68,0,0,1-.3-.32,2.51,2.51,0,0,1-.09-.83V114h-.52v-.55h.52v-1l.7-.42v1.45h.71V114h-.71v2.43a1.23,1.23,0,0,0,0,.39.29.29,0,0,0,.12.14.47.47,0,0,0,.24.05Z"/><path d="M140.84,116.28l.73.09a1.77,1.77,0,0,1-.64,1,2.16,2.16,0,0,1-2.63-.21,2.19,2.19,0,0,1-.53-1.57,2.29,2.29,0,0,1,.54-1.62,1.83,1.83,0,0,1,1.4-.58,1.78,1.78,0,0,1,1.36.57,2.25,2.25,0,0,1,.53,1.59s0,.1,0,.19h-3.09a1.6,1.6,0,0,0,.39,1,1.15,1.15,0,0,0,.87.36,1.08,1.08,0,0,0,.66-.2A1.34,1.34,0,0,0,140.84,116.28Zm-2.31-1.14h2.32a1.4,1.4,0,0,0-.27-.79,1.08,1.08,0,0,0-.87-.41,1.11,1.11,0,0,0-.81.32A1.29,1.29,0,0,0,138.53,115.14Z"/><path d="M142.44,117.61v-4.15h.63v.63a1.71,1.71,0,0,1,.45-.58.78.78,0,0,1,.45-.14,1.38,1.38,0,0,1,.72.23l-.24.65a1,1,0,0,0-.52-.15.67.67,0,0,0-.41.14.75.75,0,0,0-.26.38,2.74,2.74,0,0,0-.12.82v2.17Z"/><path d="M147.33,117.61v-5.73h.7v2.05a1.57,1.57,0,0,1,1.24-.57,1.67,1.67,0,0,1,.8.18,1.07,1.07,0,0,1,.49.5,2.31,2.31,0,0,1,.15.93v2.63H150V115a1.09,1.09,0,0,0-.23-.77.85.85,0,0,0-.65-.24,1.15,1.15,0,0,0-.59.16.91.91,0,0,0-.39.44,2,2,0,0,0-.12.77v2.27Z"/><path d="M154.62,116.28l.73.09a1.77,1.77,0,0,1-.64,1,2.16,2.16,0,0,1-2.63-.21,2.19,2.19,0,0,1-.53-1.57,2.29,2.29,0,0,1,.54-1.62,1.83,1.83,0,0,1,1.4-.58,1.78,1.78,0,0,1,1.36.57,2.25,2.25,0,0,1,.53,1.59s0,.1,0,.19h-3.09a1.6,1.6,0,0,0,.39,1,1.15,1.15,0,0,0,.87.36,1.08,1.08,0,0,0,.66-.2A1.34,1.34,0,0,0,154.62,116.28Zm-2.31-1.14h2.32a1.4,1.4,0,0,0-.27-.79,1.08,1.08,0,0,0-.87-.41,1.11,1.11,0,0,0-.81.32A1.29,1.29,0,0,0,152.31,115.14Z"/><path d="M158.94,117.1a2.65,2.65,0,0,1-.75.47,2.16,2.16,0,0,1-.78.14,1.51,1.51,0,0,1-1.05-.33,1.1,1.1,0,0,1-.37-.85,1.13,1.13,0,0,1,.14-.56,1.15,1.15,0,0,1,.36-.4,1.72,1.72,0,0,1,.51-.23,4.79,4.79,0,0,1,.63-.11,6.49,6.49,0,0,0,1.25-.24c0-.1,0-.16,0-.18a.78.78,0,0,0-.2-.61,1.18,1.18,0,0,0-.8-.24,1.25,1.25,0,0,0-.73.17,1.06,1.06,0,0,0-.35.62l-.69-.09a1.7,1.7,0,0,1,.31-.71,1.35,1.35,0,0,1,.62-.42,2.77,2.77,0,0,1,.94-.15,2.48,2.48,0,0,1,.86.13,1.14,1.14,0,0,1,.49.31,1.11,1.11,0,0,1,.22.48,4,4,0,0,1,0,.65v.94a9.88,9.88,0,0,0,0,1.24,1.55,1.55,0,0,0,.18.5h-.73A1.48,1.48,0,0,1,158.94,117.1Zm-.06-1.57a5.15,5.15,0,0,1-1.15.27,2.59,2.59,0,0,0-.61.14.62.62,0,0,0-.28.23.62.62,0,0,0,.12.8.92.92,0,0,0,.62.19,1.44,1.44,0,0,0,.72-.18,1.1,1.1,0,0,0,.46-.49,1.7,1.7,0,0,0,.11-.7Z"/><path d="M162.21,117l.1.62a2.66,2.66,0,0,1-.53.06,1.21,1.21,0,0,1-.59-.12.68.68,0,0,1-.3-.32,2.51,2.51,0,0,1-.09-.83V114h-.52v-.55h.52v-1l.7-.42v1.45h.71V114h-.71v2.43a1.23,1.23,0,0,0,0,.39.29.29,0,0,0,.12.14.47.47,0,0,0,.24.05Z"/><path d="M165.74,116.28l.73.09a1.77,1.77,0,0,1-.64,1,2.16,2.16,0,0,1-2.63-.21,2.19,2.19,0,0,1-.53-1.57,2.29,2.29,0,0,1,.54-1.62,1.83,1.83,0,0,1,1.4-.58,1.78,1.78,0,0,1,1.36.57,2.25,2.25,0,0,1,.53,1.59s0,.1,0,.19h-3.09a1.6,1.6,0,0,0,.39,1,1.15,1.15,0,0,0,.87.36,1.08,1.08,0,0,0,.66-.2A1.34,1.34,0,0,0,165.74,116.28Zm-2.31-1.14h2.32a1.4,1.4,0,0,0-.27-.79,1.08,1.08,0,0,0-.87-.41,1.11,1.11,0,0,0-.81.32A1.29,1.29,0,0,0,163.43,115.14Z"/><path d="M167.34,117.61v-4.15H168v.63a1.71,1.71,0,0,1,.45-.58.78.78,0,0,1,.45-.14,1.38,1.38,0,0,1,.72.23l-.24.65a1,1,0,0,0-.52-.15.67.67,0,0,0-.41.14.75.75,0,0,0-.26.38,2.74,2.74,0,0,0-.12.82v2.17Z"/><path d="M173.77,117l.1.62a2.66,2.66,0,0,1-.53.06,1.21,1.21,0,0,1-.59-.12.68.68,0,0,1-.3-.32,2.51,2.51,0,0,1-.09-.83V114h-.52v-.55h.52v-1l.7-.42v1.45h.71V114h-.71v2.43a1.23,1.23,0,0,0,0,.39.29.29,0,0,0,.12.14.47.47,0,0,0,.24.05Z"/><path d="M174.2,115.54a2.14,2.14,0,0,1,.64-1.71,1.93,1.93,0,0,1,1.3-.46,1.86,1.86,0,0,1,1.4.56,2.13,2.13,0,0,1,.54,1.55,2.75,2.75,0,0,1-.24,1.26,1.7,1.7,0,0,1-.7.71,2,2,0,0,1-1,.25,1.86,1.86,0,0,1-1.41-.56A2.23,2.23,0,0,1,174.2,115.54Zm.72,0a1.77,1.77,0,0,0,.35,1.19,1.16,1.16,0,0,0,1.75,0,1.81,1.81,0,0,0,.35-1.21,1.71,1.71,0,0,0-.35-1.17,1.16,1.16,0,0,0-1.74,0A1.76,1.76,0,0,0,174.92,115.54Z"/><path d="M183.84,116.09l.69.09a1.79,1.79,0,0,1-.58,1.12,1.69,1.69,0,0,1-1.15.4,1.78,1.78,0,0,1-1.37-.56,2.26,2.26,0,0,1-.52-1.6,2.89,2.89,0,0,1,.22-1.18,1.55,1.55,0,0,1,.68-.76,2,2,0,0,1,1-.25,1.72,1.72,0,0,1,1.11.34,1.57,1.57,0,0,1,.55,1l-.68.11a1.14,1.14,0,0,0-.35-.63.89.89,0,0,0-.6-.21,1.09,1.09,0,0,0-.86.38,1.81,1.81,0,0,0-.33,1.21,1.87,1.87,0,0,0,.32,1.21,1,1,0,0,0,.84.38,1,1,0,0,0,.69-.25A1.27,1.27,0,0,0,183.84,116.09Z"/><path d="M184.87,115.54a2.14,2.14,0,0,1,.64-1.71,1.93,1.93,0,0,1,1.3-.46,1.86,1.86,0,0,1,1.4.56,2.13,2.13,0,0,1,.54,1.55,2.75,2.75,0,0,1-.24,1.26,1.7,1.7,0,0,1-.7.71,2,2,0,0,1-1,.25,1.86,1.86,0,0,1-1.41-.56A2.23,2.23,0,0,1,184.87,115.54Zm.72,0a1.77,1.77,0,0,0,.35,1.19,1.16,1.16,0,0,0,1.75,0,1.81,1.81,0,0,0,.35-1.21,1.71,1.71,0,0,0-.35-1.17,1.16,1.16,0,0,0-1.74,0A1.76,1.76,0,0,0,185.59,115.54Z"/><path d="M189.32,115.54a2.14,2.14,0,0,1,.64-1.71,1.93,1.93,0,0,1,1.3-.46,1.86,1.86,0,0,1,1.4.56,2.13,2.13,0,0,1,.54,1.55,2.75,2.75,0,0,1-.24,1.26,1.7,1.7,0,0,1-.7.71,2,2,0,0,1-1,.25,1.86,1.86,0,0,1-1.41-.56A2.23,2.23,0,0,1,189.32,115.54Zm.72,0a1.77,1.77,0,0,0,.35,1.19,1.16,1.16,0,0,0,1.75,0,1.81,1.81,0,0,0,.35-1.21,1.71,1.71,0,0,0-.35-1.17,1.16,1.16,0,0,0-1.74,0A1.76,1.76,0,0,0,190,115.54Z"/><path d="M194,117.61v-5.73h.7v5.73Z"/><path d="M200.74,117.1a2.65,2.65,0,0,1-.75.47,2.16,2.16,0,0,1-.78.14,1.51,1.51,0,0,1-1.05-.33,1.1,1.1,0,0,1-.37-.85,1.13,1.13,0,0,1,.14-.56,1.15,1.15,0,0,1,.36-.4,1.72,1.72,0,0,1,.51-.23,4.79,4.79,0,0,1,.63-.11,6.49,6.49,0,0,0,1.25-.24c0-.1,0-.16,0-.18a.78.78,0,0,0-.2-.61,1.18,1.18,0,0,0-.8-.24,1.25,1.25,0,0,0-.73.17,1.06,1.06,0,0,0-.35.62l-.69-.09a1.7,1.7,0,0,1,.31-.71,1.35,1.35,0,0,1,.62-.42,2.77,2.77,0,0,1,.94-.15,2.48,2.48,0,0,1,.86.13,1.14,1.14,0,0,1,.49.31,1.11,1.11,0,0,1,.22.48,4,4,0,0,1,0,.65v.94a9.88,9.88,0,0,0,0,1.24,1.55,1.55,0,0,0,.18.5h-.73A1.48,1.48,0,0,1,200.74,117.1Zm-.06-1.57a5.15,5.15,0,0,1-1.15.27,2.59,2.59,0,0,0-.61.14.62.62,0,0,0-.28.23.62.62,0,0,0,.12.8.92.92,0,0,0,.62.19,1.44,1.44,0,0,0,.72-.18,1.1,1.1,0,0,0,.46-.49,1.7,1.7,0,0,0,.11-.7Z"/><path d="M202.48,117.61v-4.15h.63v.59a1.49,1.49,0,0,1,1.32-.68,1.73,1.73,0,0,1,.69.13,1.08,1.08,0,0,1,.47.35,1.36,1.36,0,0,1,.22.52,4,4,0,0,1,0,.68v2.55h-.7v-2.52a1.89,1.89,0,0,0-.08-.64.67.67,0,0,0-.29-.34.93.93,0,0,0-.49-.13,1.14,1.14,0,0,0-.78.29,1.4,1.4,0,0,0-.33,1.08v2.27Z"/><path d="M209.62,117.61v-.52a1.29,1.29,0,0,1-1.16.62,1.63,1.63,0,0,1-.91-.27,1.8,1.8,0,0,1-.64-.76,2.64,2.64,0,0,1-.23-1.13,3,3,0,0,1,.21-1.13,1.63,1.63,0,0,1,.62-.78,1.66,1.66,0,0,1,.93-.27,1.38,1.38,0,0,1,1.14.57v-2.05h.7v5.73Zm-2.22-2.07a1.8,1.8,0,0,0,.34,1.19,1,1,0,0,0,.79.39,1,1,0,0,0,.78-.38,1.74,1.74,0,0,0,.32-1.15,2,2,0,0,0-.33-1.25,1,1,0,0,0-.81-.4,1,1,0,0,0-.78.38A1.89,1.89,0,0,0,207.4,115.54Z"/><path d="M216.31,117.1a2.65,2.65,0,0,1-.75.47,2.16,2.16,0,0,1-.78.14,1.51,1.51,0,0,1-1.05-.33,1.1,1.1,0,0,1-.37-.85,1.13,1.13,0,0,1,.14-.56,1.15,1.15,0,0,1,.36-.4,1.72,1.72,0,0,1,.51-.23,4.79,4.79,0,0,1,.63-.11,6.49,6.49,0,0,0,1.25-.24c0-.1,0-.16,0-.18a.78.78,0,0,0-.2-.61,1.18,1.18,0,0,0-.8-.24,1.25,1.25,0,0,0-.73.17,1.06,1.06,0,0,0-.35.62l-.69-.09a1.7,1.7,0,0,1,.31-.71,1.35,1.35,0,0,1,.62-.42,2.77,2.77,0,0,1,.94-.15,2.48,2.48,0,0,1,.86.13,1.14,1.14,0,0,1,.49.31,1.11,1.11,0,0,1,.22.48,4,4,0,0,1,0,.65v.94a9.88,9.88,0,0,0,0,1.24,1.55,1.55,0,0,0,.18.5h-.73A1.48,1.48,0,0,1,216.31,117.1Zm-.06-1.57a5.15,5.15,0,0,1-1.15.27,2.59,2.59,0,0,0-.61.14.62.62,0,0,0-.28.23.62.62,0,0,0,.12.8.92.92,0,0,0,.62.19,1.44,1.44,0,0,0,.72-.18,1.1,1.1,0,0,0,.46-.49,1.7,1.7,0,0,0,.11-.7Z"/><path d="M218,117.61v-5.73h.7v5.73Z"/><path d="M220.59,117.61l-1.27-4.15H220l.66,2.39.25.89.21-.86.66-2.43h.72l.62,2.41.21.79.24-.8.71-2.4H225l-1.3,4.15H223l-.66-2.48-.16-.71-.84,3.19Z"/><path d="M228.31,117.1a2.65,2.65,0,0,1-.75.47,2.16,2.16,0,0,1-.78.14,1.51,1.51,0,0,1-1.05-.33,1.1,1.1,0,0,1-.37-.85,1.13,1.13,0,0,1,.14-.56,1.15,1.15,0,0,1,.36-.4,1.72,1.72,0,0,1,.51-.23,4.79,4.79,0,0,1,.63-.11,6.49,6.49,0,0,0,1.25-.24c0-.1,0-.16,0-.18a.78.78,0,0,0-.2-.61,1.18,1.18,0,0,0-.8-.24,1.25,1.25,0,0,0-.73.17,1.06,1.06,0,0,0-.35.62l-.69-.09a1.7,1.7,0,0,1,.31-.71,1.35,1.35,0,0,1,.62-.42,2.77,2.77,0,0,1,.94-.15,2.48,2.48,0,0,1,.86.13,1.14,1.14,0,0,1,.49.31,1.11,1.11,0,0,1,.22.48,4,4,0,0,1,0,.65v.94a9.88,9.88,0,0,0,0,1.24,1.55,1.55,0,0,0,.18.5h-.73A1.48,1.48,0,0,1,228.31,117.1Zm-.06-1.57a5.15,5.15,0,0,1-1.15.27,2.59,2.59,0,0,0-.61.14.62.62,0,0,0-.28.23.62.62,0,0,0,.12.8.92.92,0,0,0,.62.19,1.44,1.44,0,0,0,.72-.18,1.1,1.1,0,0,0,.46-.49,1.7,1.7,0,0,0,.11-.7Z"/><path d="M230,119.21l-.08-.66a1.6,1.6,0,0,0,.4.06.76.76,0,0,0,.38-.08.64.64,0,0,0,.23-.22,3.42,3.42,0,0,0,.21-.52l.06-.17-1.57-4.16h.76l.86,2.4q.17.46.3,1a9.46,9.46,0,0,1,.29-.95l.89-2.42h.7l-1.58,4.22a8.27,8.27,0,0,1-.39.94,1.38,1.38,0,0,1-.43.51,1,1,0,0,1-.58.16A1.43,1.43,0,0,1,230,119.21Z"/><path d="M233.77,116.37l.7-.11a1,1,0,0,0,.33.64,1.14,1.14,0,0,0,.75.22,1.1,1.1,0,0,0,.72-.2.59.59,0,0,0,.23-.46.43.43,0,0,0-.21-.37,3,3,0,0,0-.72-.24,6.56,6.56,0,0,1-1.07-.34,1,1,0,0,1-.61-1,1.06,1.06,0,0,1,.13-.51,1.13,1.13,0,0,1,.35-.39,1.48,1.48,0,0,1,.45-.21,2.1,2.1,0,0,1,.61-.08,2.4,2.4,0,0,1,.86.14,1.17,1.17,0,0,1,.54.38,1.49,1.49,0,0,1,.24.64l-.69.09a.75.75,0,0,0-.27-.5,1,1,0,0,0-.63-.18,1.14,1.14,0,0,0-.69.16.47.47,0,0,0-.21.38.38.38,0,0,0,.09.25.61.61,0,0,0,.27.19l.62.18a8.77,8.77,0,0,1,1,.33,1.05,1.05,0,0,1,.46.37,1,1,0,0,1,.17.6,1.18,1.18,0,0,1-.21.66,1.33,1.33,0,0,1-.59.48,2.16,2.16,0,0,1-.87.17,1.94,1.94,0,0,1-1.23-.34A1.57,1.57,0,0,1,233.77,116.37Z"/><path d="M243,117.61V117a1.52,1.52,0,0,1-1.32.7,1.68,1.68,0,0,1-.69-.14,1.12,1.12,0,0,1-.47-.35,1.34,1.34,0,0,1-.22-.52,3.61,3.61,0,0,1,0-.66v-2.57h.7v2.3a4.13,4.13,0,0,0,0,.74.73.73,0,0,0,.28.44.87.87,0,0,0,.53.16,1.16,1.16,0,0,0,.59-.16.9.9,0,0,0,.39-.44,2.21,2.21,0,0,0,.12-.81v-2.22h.7v4.15Z"/><path d="M244.44,116.37l.7-.11a1,1,0,0,0,.33.64,1.14,1.14,0,0,0,.75.22,1.1,1.1,0,0,0,.72-.2.59.59,0,0,0,.23-.46.43.43,0,0,0-.21-.37,3,3,0,0,0-.72-.24,6.56,6.56,0,0,1-1.07-.34,1,1,0,0,1-.61-1,1.06,1.06,0,0,1,.13-.51,1.13,1.13,0,0,1,.35-.39,1.48,1.48,0,0,1,.45-.21,2.1,2.1,0,0,1,.61-.08,2.4,2.4,0,0,1,.86.14,1.17,1.17,0,0,1,.54.38,1.49,1.49,0,0,1,.24.64l-.69.09a.75.75,0,0,0-.27-.5,1,1,0,0,0-.63-.18,1.14,1.14,0,0,0-.69.16.47.47,0,0,0-.21.38.38.38,0,0,0,.09.25.61.61,0,0,0,.27.19l.62.18a8.77,8.77,0,0,1,1,.33,1.05,1.05,0,0,1,.46.37,1,1,0,0,1,.17.6,1.18,1.18,0,0,1-.21.66,1.33,1.33,0,0,1-.59.48,2.16,2.16,0,0,1-.87.17,1.94,1.94,0,0,1-1.23-.34A1.57,1.57,0,0,1,244.44,116.37Z"/><path d="M251.57,116.28l.73.09a1.77,1.77,0,0,1-.64,1,2.16,2.16,0,0,1-2.63-.21,2.19,2.19,0,0,1-.53-1.57,2.29,2.29,0,0,1,.54-1.62,1.83,1.83,0,0,1,1.4-.58,1.78,1.78,0,0,1,1.36.57,2.25,2.25,0,0,1,.53,1.59s0,.1,0,.19h-3.09a1.6,1.6,0,0,0,.39,1,1.15,1.15,0,0,0,.87.36,1.08,1.08,0,0,0,.66-.2A1.34,1.34,0,0,0,251.57,116.28Zm-2.31-1.14h2.32a1.4,1.4,0,0,0-.27-.79,1.08,1.08,0,0,0-.87-.41,1.11,1.11,0,0,0-.81.32A1.29,1.29,0,0,0,249.26,115.14Z"/><path d="M90.73,127.56l.68.1a.65.65,0,0,0,.24.46,1.17,1.17,0,0,0,.71.2,1.25,1.25,0,0,0,.75-.2,1,1,0,0,0,.36-.55,4.48,4.48,0,0,0,.05-.9,1.44,1.44,0,0,1-1.15.54,1.56,1.56,0,0,1-1.32-.62,2.37,2.37,0,0,1-.47-1.48,2.76,2.76,0,0,1,.21-1.1,1.72,1.72,0,0,1,.62-.78,1.69,1.69,0,0,1,1-.27,1.49,1.49,0,0,1,1.21.59v-.5h.65v3.59a3.4,3.4,0,0,1-.2,1.37,1.44,1.44,0,0,1-.62.64,2.17,2.17,0,0,1-1.05.23,2,2,0,0,1-1.2-.33A1.13,1.13,0,0,1,90.73,127.56Zm.58-2.49a1.8,1.8,0,0,0,.32,1.19,1.07,1.07,0,0,0,1.63,0,1.74,1.74,0,0,0,.33-1.17,1.7,1.7,0,0,0-.34-1.15,1,1,0,0,0-.81-.39,1,1,0,0,0-.8.38A1.69,1.69,0,0,0,91.31,125.06Z"/><path d="M95.3,127.21v-5.73H96v5.73Z"/><path d="M96.83,125.14a2.14,2.14,0,0,1,.64-1.71,1.93,1.93,0,0,1,1.3-.46,1.86,1.86,0,0,1,1.4.56,2.13,2.13,0,0,1,.54,1.55,2.74,2.74,0,0,1-.24,1.26,1.69,1.69,0,0,1-.7.71,2,2,0,0,1-1,.25,1.86,1.86,0,0,1-1.41-.56A2.23,2.23,0,0,1,96.83,125.14Zm.72,0a1.76,1.76,0,0,0,.35,1.19,1.16,1.16,0,0,0,1.75,0,1.81,1.81,0,0,0,.35-1.21,1.72,1.72,0,0,0-.35-1.17,1.16,1.16,0,0,0-1.74,0A1.76,1.76,0,0,0,97.55,125.14Z"/><path d="M102.69,127.21l-1.58-4.15h.74l.89,2.48q.14.4.27.84.09-.33.26-.79l.92-2.53h.72l-1.57,4.15Z"/><path d="M108.38,125.88l.73.09a1.77,1.77,0,0,1-.64,1,2.16,2.16,0,0,1-2.63-.21,2.19,2.19,0,0,1-.53-1.57,2.29,2.29,0,0,1,.54-1.62,1.83,1.83,0,0,1,1.4-.58,1.78,1.78,0,0,1,1.36.57,2.25,2.25,0,0,1,.53,1.59s0,.1,0,.19H106a1.59,1.59,0,0,0,.39,1,1.15,1.15,0,0,0,.87.36,1.07,1.07,0,0,0,.66-.2A1.35,1.35,0,0,0,108.38,125.88Zm-2.31-1.14h2.32a1.41,1.41,0,0,0-.27-.79,1.08,1.08,0,0,0-.87-.41,1.12,1.12,0,0,0-.81.32A1.29,1.29,0,0,0,106.07,124.74Z"/><path d="M109.71,126l.7-.11a1,1,0,0,0,.33.64,1.14,1.14,0,0,0,.75.22,1.1,1.1,0,0,0,.72-.2.59.59,0,0,0,.23-.46.43.43,0,0,0-.21-.37,3.06,3.06,0,0,0-.72-.24,6.46,6.46,0,0,1-1.07-.34,1,1,0,0,1-.61-1,1.07,1.07,0,0,1,.13-.51,1.14,1.14,0,0,1,.35-.39,1.48,1.48,0,0,1,.45-.21,2.14,2.14,0,0,1,.61-.08,2.4,2.4,0,0,1,.86.14,1.17,1.17,0,0,1,.54.38,1.49,1.49,0,0,1,.24.64l-.69.09a.75.75,0,0,0-.27-.5,1,1,0,0,0-.63-.18,1.15,1.15,0,0,0-.69.16.47.47,0,0,0-.21.38.39.39,0,0,0,.09.25.61.61,0,0,0,.27.19l.62.18a8.77,8.77,0,0,1,1,.33,1.06,1.06,0,0,1,.46.37,1,1,0,0,1,.17.6,1.18,1.18,0,0,1-.21.66,1.33,1.33,0,0,1-.59.48,2.15,2.15,0,0,1-.87.17,2,2,0,0,1-1.23-.34A1.56,1.56,0,0,1,109.71,126Z"/><path d="M117,127.21l-1.27-4.15h.73l.66,2.39.25.89.21-.86.66-2.43h.72l.62,2.41.21.79.24-.8.71-2.4h.68l-1.3,4.15h-.73l-.66-2.48-.16-.71-.84,3.19Z"/><path d="M122,127.21v-5.73h.7v2.05a1.57,1.57,0,0,1,1.24-.57,1.67,1.67,0,0,1,.8.18,1.07,1.07,0,0,1,.49.5,2.32,2.32,0,0,1,.15.93v2.63h-.7v-2.63a1.09,1.09,0,0,0-.23-.77.85.85,0,0,0-.65-.24,1.15,1.15,0,0,0-.59.16.92.92,0,0,0-.39.44,2,2,0,0,0-.12.77v2.27Z"/><path d="M129.28,125.88l.73.09a1.77,1.77,0,0,1-.64,1,2.16,2.16,0,0,1-2.63-.21,2.19,2.19,0,0,1-.53-1.57,2.29,2.29,0,0,1,.54-1.62,1.83,1.83,0,0,1,1.4-.58,1.78,1.78,0,0,1,1.36.57,2.25,2.25,0,0,1,.53,1.59s0,.1,0,.19h-3.09a1.6,1.6,0,0,0,.39,1,1.15,1.15,0,0,0,.87.36,1.07,1.07,0,0,0,.66-.2A1.34,1.34,0,0,0,129.28,125.88ZM127,124.74h2.32A1.41,1.41,0,0,0,129,124a1.08,1.08,0,0,0-.87-.41,1.12,1.12,0,0,0-.81.32A1.29,1.29,0,0,0,127,124.74Z"/><path d="M130.89,127.21v-4.15h.63v.59a1.49,1.49,0,0,1,1.32-.68,1.73,1.73,0,0,1,.69.13,1.09,1.09,0,0,1,.47.35,1.36,1.36,0,0,1,.22.52,4,4,0,0,1,0,.68v2.55h-.7v-2.52a1.9,1.9,0,0,0-.08-.64.68.68,0,0,0-.29-.34.93.93,0,0,0-.49-.13,1.14,1.14,0,0,0-.78.29,1.41,1.41,0,0,0-.33,1.08v2.27Z"/><path d="M137.56,127.21v-5.73h.7v2.05a1.57,1.57,0,0,1,1.24-.57,1.67,1.67,0,0,1,.8.18,1.07,1.07,0,0,1,.49.5,2.32,2.32,0,0,1,.15.93v2.63h-.7v-2.63a1.09,1.09,0,0,0-.23-.77.85.85,0,0,0-.65-.24,1.15,1.15,0,0,0-.59.16.92.92,0,0,0-.39.44,2,2,0,0,0-.12.77v2.27Z"/><path d="M144.71,126.7a2.6,2.6,0,0,1-.75.47,2.16,2.16,0,0,1-.78.14,1.51,1.51,0,0,1-1.05-.33,1.1,1.1,0,0,1-.37-.85,1.13,1.13,0,0,1,.14-.56,1.15,1.15,0,0,1,.36-.4,1.72,1.72,0,0,1,.51-.23,5.15,5.15,0,0,1,.63-.11,6.41,6.41,0,0,0,1.25-.24c0-.1,0-.16,0-.18a.78.78,0,0,0-.2-.61,1.18,1.18,0,0,0-.8-.24,1.25,1.25,0,0,0-.73.17,1.06,1.06,0,0,0-.35.62l-.69-.09a1.7,1.7,0,0,1,.31-.71,1.36,1.36,0,0,1,.62-.42,2.77,2.77,0,0,1,.94-.15,2.5,2.5,0,0,1,.86.13,1.15,1.15,0,0,1,.49.31,1.11,1.11,0,0,1,.22.48,4,4,0,0,1,0,.65v.94a9.87,9.87,0,0,0,0,1.24,1.55,1.55,0,0,0,.18.5h-.73A1.47,1.47,0,0,1,144.71,126.7Zm-.06-1.57a5.1,5.1,0,0,1-1.15.27,2.7,2.7,0,0,0-.61.14.62.62,0,0,0-.28.23.62.62,0,0,0,.12.8.92.92,0,0,0,.62.19,1.44,1.44,0,0,0,.72-.18,1.09,1.09,0,0,0,.46-.49,1.7,1.7,0,0,0,.11-.7Z"/><path d="M146.46,127.21v-4.15h.63v.59a1.49,1.49,0,0,1,1.32-.68,1.73,1.73,0,0,1,.69.13,1.09,1.09,0,0,1,.47.35,1.36,1.36,0,0,1,.22.52,4,4,0,0,1,0,.68v2.55h-.7v-2.52A1.9,1.9,0,0,0,149,124a.68.68,0,0,0-.29-.34.93.93,0,0,0-.49-.13,1.14,1.14,0,0,0-.78.29,1.41,1.41,0,0,0-.33,1.08v2.27Z"/><path d="M153.6,127.21v-.52a1.29,1.29,0,0,1-1.16.62,1.62,1.62,0,0,1-.91-.27,1.79,1.79,0,0,1-.64-.76,2.64,2.64,0,0,1-.23-1.13,3,3,0,0,1,.21-1.13,1.63,1.63,0,0,1,.62-.78,1.66,1.66,0,0,1,.93-.27,1.38,1.38,0,0,1,1.14.57v-2.05h.7v5.73Zm-2.22-2.07a1.8,1.8,0,0,0,.34,1.19,1,1,0,0,0,.79.39,1,1,0,0,0,.78-.38,1.74,1.74,0,0,0,.32-1.15,2,2,0,0,0-.33-1.25,1,1,0,0,0-.81-.4,1,1,0,0,0-.78.38A1.89,1.89,0,0,0,151.37,125.14Z"/><path d="M155.34,127.21v-5.73h.7v5.73Z"/><path d="M157.14,122.29v-.81h.7v.81Zm0,4.92v-4.15h.7v4.15Z"/><path d="M158.91,127.21v-4.15h.63v.59a1.49,1.49,0,0,1,1.32-.68,1.73,1.73,0,0,1,.69.13,1.09,1.09,0,0,1,.47.35,1.36,1.36,0,0,1,.22.52,4,4,0,0,1,0,.68v2.55h-.7v-2.52a1.9,1.9,0,0,0-.08-.64.68.68,0,0,0-.29-.34.93.93,0,0,0-.49-.13,1.14,1.14,0,0,0-.78.29,1.41,1.41,0,0,0-.33,1.08v2.27Z"/><path d="M163.23,127.56l.68.1a.65.65,0,0,0,.24.46,1.17,1.17,0,0,0,.71.2,1.25,1.25,0,0,0,.75-.2,1,1,0,0,0,.36-.55,4.48,4.48,0,0,0,.05-.9,1.45,1.45,0,0,1-1.15.54,1.56,1.56,0,0,1-1.32-.62,2.37,2.37,0,0,1-.47-1.48,2.75,2.75,0,0,1,.21-1.1,1.72,1.72,0,0,1,.62-.78,1.69,1.69,0,0,1,1-.27,1.49,1.49,0,0,1,1.21.59v-.5h.65v3.59a3.39,3.39,0,0,1-.2,1.37,1.44,1.44,0,0,1-.62.64,2.17,2.17,0,0,1-1.05.23,2,2,0,0,1-1.2-.33A1.13,1.13,0,0,1,163.23,127.56Zm.58-2.49a1.8,1.8,0,0,0,.32,1.19,1.07,1.07,0,0,0,1.63,0,1.74,1.74,0,0,0,.33-1.17,1.7,1.7,0,0,0-.34-1.15,1,1,0,0,0-.81-.39,1,1,0,0,0-.8.38A1.69,1.69,0,0,0,163.81,125.06Z"/><path d="M171.57,126.58l.1.62a2.59,2.59,0,0,1-.53.06,1.2,1.2,0,0,1-.59-.12.68.68,0,0,1-.3-.32,2.51,2.51,0,0,1-.09-.83v-2.39h-.52v-.55h.52v-1l.7-.42v1.45h.71v.55h-.71V126a1.23,1.23,0,0,0,0,.39.29.29,0,0,0,.12.14.46.46,0,0,0,.24.05Z"/><path d="M172.25,127.21v-5.73h.7v2.05a1.57,1.57,0,0,1,1.24-.57,1.67,1.67,0,0,1,.8.18,1.07,1.07,0,0,1,.49.5,2.32,2.32,0,0,1,.15.93v2.63h-.7v-2.63a1.09,1.09,0,0,0-.23-.77.85.85,0,0,0-.65-.24,1.15,1.15,0,0,0-.59.16.92.92,0,0,0-.39.44,2,2,0,0,0-.12.77v2.27Z"/><path d="M179.54,125.88l.73.09a1.77,1.77,0,0,1-.64,1,2.16,2.16,0,0,1-2.63-.21,2.19,2.19,0,0,1-.53-1.57,2.29,2.29,0,0,1,.54-1.62,1.83,1.83,0,0,1,1.4-.58,1.78,1.78,0,0,1,1.36.57,2.25,2.25,0,0,1,.53,1.59s0,.1,0,.19h-3.09a1.6,1.6,0,0,0,.39,1,1.15,1.15,0,0,0,.87.36,1.07,1.07,0,0,0,.66-.2A1.34,1.34,0,0,0,179.54,125.88Zm-2.31-1.14h2.32a1.41,1.41,0,0,0-.27-.79,1.08,1.08,0,0,0-.87-.41,1.12,1.12,0,0,0-.81.32A1.29,1.29,0,0,0,177.23,124.74Z"/><path d="M183.37,127.21v-4.15H184v.58a1.48,1.48,0,0,1,.52-.49,1.46,1.46,0,0,1,.74-.19,1.37,1.37,0,0,1,.76.19,1,1,0,0,1,.42.54,1.49,1.49,0,0,1,1.28-.73,1.27,1.27,0,0,1,.95.34,1.46,1.46,0,0,1,.33,1.05v2.85h-.7V124.6a1.92,1.92,0,0,0-.07-.61.59.59,0,0,0-.25-.3.78.78,0,0,0-.42-.11,1,1,0,0,0-.73.29,1.28,1.28,0,0,0-.29.93v2.41h-.7v-2.7a1.19,1.19,0,0,0-.17-.7.65.65,0,0,0-.56-.23,1,1,0,0,0-.55.16.89.89,0,0,0-.37.46,2.59,2.59,0,0,0-.11.87v2.15Z"/><path d="M192.75,126.7a2.6,2.6,0,0,1-.75.47,2.16,2.16,0,0,1-.78.14,1.51,1.51,0,0,1-1.05-.33,1.1,1.1,0,0,1-.37-.85,1.13,1.13,0,0,1,.14-.56,1.15,1.15,0,0,1,.36-.4,1.72,1.72,0,0,1,.51-.23,5.15,5.15,0,0,1,.63-.11,6.41,6.41,0,0,0,1.25-.24c0-.1,0-.16,0-.18a.78.78,0,0,0-.2-.61,1.18,1.18,0,0,0-.8-.24,1.25,1.25,0,0,0-.73.17,1.06,1.06,0,0,0-.35.62l-.69-.09a1.7,1.7,0,0,1,.31-.71,1.36,1.36,0,0,1,.62-.42,2.77,2.77,0,0,1,.94-.15,2.5,2.5,0,0,1,.86.13,1.15,1.15,0,0,1,.49.31,1.11,1.11,0,0,1,.22.48,4,4,0,0,1,0,.65v.94a9.87,9.87,0,0,0,0,1.24,1.55,1.55,0,0,0,.18.5h-.73A1.47,1.47,0,0,1,192.75,126.7Zm-.06-1.57a5.1,5.1,0,0,1-1.15.27,2.7,2.7,0,0,0-.61.14.62.62,0,0,0-.28.23.62.62,0,0,0,.12.8.92.92,0,0,0,.62.19,1.44,1.44,0,0,0,.72-.18,1.09,1.09,0,0,0,.46-.49,1.7,1.7,0,0,0,.11-.7Z"/><path d="M194.49,122.29v-.81h.7v.81Zm0,4.92v-4.15h.7v4.15Z"/><path d="M196.26,127.21v-4.15h.63v.59a1.49,1.49,0,0,1,1.32-.68,1.73,1.73,0,0,1,.69.13,1.09,1.09,0,0,1,.47.35,1.36,1.36,0,0,1,.22.52,4,4,0,0,1,0,.68v2.55h-.7v-2.52a1.9,1.9,0,0,0-.08-.64.68.68,0,0,0-.29-.34.93.93,0,0,0-.49-.13,1.14,1.14,0,0,0-.78.29,1.41,1.41,0,0,0-.33,1.08v2.27Z"/><path d="M203.59,127.21h-.65v-5.73h.7v2a1.39,1.39,0,0,1,1.14-.56,1.75,1.75,0,0,1,.72.15,1.5,1.5,0,0,1,.56.43,2.09,2.09,0,0,1,.35.67,2.79,2.79,0,0,1,.13.84,2.37,2.37,0,0,1-.53,1.65,1.65,1.65,0,0,1-1.27.58,1.32,1.32,0,0,1-1.15-.61Zm0-2.11a2.15,2.15,0,0,0,.2,1.08,1,1,0,0,0,1.7.14,1.82,1.82,0,0,0,.34-1.19,1.85,1.85,0,0,0-.32-1.2,1,1,0,0,0-.78-.39,1,1,0,0,0-.8.4A1.76,1.76,0,0,0,203.58,125.11Z"/><path d="M210.1,127.21v-.61a1.52,1.52,0,0,1-1.32.7,1.68,1.68,0,0,1-.69-.14,1.12,1.12,0,0,1-.47-.35,1.33,1.33,0,0,1-.22-.52,3.6,3.6,0,0,1,0-.66v-2.57h.7v2.3a4.13,4.13,0,0,0,0,.74.73.73,0,0,0,.28.44.87.87,0,0,0,.53.16,1.15,1.15,0,0,0,.59-.16.9.9,0,0,0,.39-.44,2.2,2.2,0,0,0,.12-.81v-2.22h.7v4.15Z"/><path d="M211.83,127.21v-4.15h.63v.63a1.72,1.72,0,0,1,.45-.58.78.78,0,0,1,.45-.14,1.38,1.38,0,0,1,.72.23l-.24.65a1,1,0,0,0-.52-.15.67.67,0,0,0-.41.14.75.75,0,0,0-.26.38,2.74,2.74,0,0,0-.12.82v2.17Z"/><path d="M214.5,127.21v-4.15h.63v.59a1.49,1.49,0,0,1,1.32-.68,1.73,1.73,0,0,1,.69.13,1.09,1.09,0,0,1,.47.35,1.36,1.36,0,0,1,.22.52,4,4,0,0,1,0,.68v2.55h-.7v-2.52a1.9,1.9,0,0,0-.08-.64.68.68,0,0,0-.29-.34.93.93,0,0,0-.49-.13,1.14,1.14,0,0,0-.78.29,1.41,1.41,0,0,0-.33,1.08v2.27Z"/><path d="M221.79,125.88l.73.09a1.77,1.77,0,0,1-.64,1,2.16,2.16,0,0,1-2.63-.21,2.19,2.19,0,0,1-.53-1.57,2.29,2.29,0,0,1,.54-1.62,1.83,1.83,0,0,1,1.4-.58,1.78,1.78,0,0,1,1.36.57,2.25,2.25,0,0,1,.53,1.59s0,.1,0,.19h-3.09a1.6,1.6,0,0,0,.39,1,1.15,1.15,0,0,0,.87.36,1.07,1.07,0,0,0,.66-.2A1.34,1.34,0,0,0,221.79,125.88Zm-2.31-1.14h2.32a1.41,1.41,0,0,0-.27-.79,1.08,1.08,0,0,0-.87-.41,1.12,1.12,0,0,0-.81.32A1.29,1.29,0,0,0,219.48,124.74Z"/><path d="M223.39,127.21v-4.15H224v.63a1.72,1.72,0,0,1,.45-.58.78.78,0,0,1,.45-.14,1.38,1.38,0,0,1,.72.23l-.24.65a1,1,0,0,0-.52-.15.67.67,0,0,0-.41.14.75.75,0,0,0-.26.38,2.74,2.74,0,0,0-.12.82v2.17Z"/><path d="M225.82,127.21v-.8h.8v.8Z"/><path d="M86.24,115.12a1.73,1.73,0,1,1-.51-1.22A1.67,1.67,0,0,1,86.24,115.12Z"/><path d="M86.24,57.37a1.73,1.73,0,1,1-.51-1.22A1.67,1.67,0,0,1,86.24,57.37Z"/><path d="M92.4,60.6V55.55H90.51v-.68H95v.68H93.15V60.6Z"/><path d="M95.73,60.6V54.87h.7v2.05a1.57,1.57,0,0,1,1.24-.57,1.68,1.68,0,0,1,.8.18A1.07,1.07,0,0,1,99,57a2.32,2.32,0,0,1,.15.93V60.6h-.7V58a1.09,1.09,0,0,0-.23-.77.85.85,0,0,0-.65-.24,1.14,1.14,0,0,0-.59.16.92.92,0,0,0-.39.44,2,2,0,0,0-.12.77V60.6Z"/><path d="M103,59.26l.73.09a1.77,1.77,0,0,1-.64,1,2.16,2.16,0,0,1-2.63-.21,2.19,2.19,0,0,1-.53-1.57,2.29,2.29,0,0,1,.54-1.62,1.82,1.82,0,0,1,1.4-.58,1.77,1.77,0,0,1,1.36.57,2.25,2.25,0,0,1,.53,1.59s0,.1,0,.19h-3.09a1.59,1.59,0,0,0,.39,1,1.15,1.15,0,0,0,.87.36,1.07,1.07,0,0,0,.66-.2A1.35,1.35,0,0,0,103,59.26Zm-2.31-1.14H103a1.41,1.41,0,0,0-.27-.79,1.08,1.08,0,0,0-.87-.41,1.12,1.12,0,0,0-.81.32A1.28,1.28,0,0,0,100.72,58.13Z"/><path d="M109.56,59.08l.69.09a1.79,1.79,0,0,1-.58,1.12,1.69,1.69,0,0,1-1.15.4,1.78,1.78,0,0,1-1.37-.56,2.26,2.26,0,0,1-.52-1.6,2.89,2.89,0,0,1,.22-1.18,1.55,1.55,0,0,1,.68-.76,2,2,0,0,1,1-.25,1.72,1.72,0,0,1,1.11.34,1.57,1.57,0,0,1,.55,1l-.68.11a1.13,1.13,0,0,0-.35-.63.89.89,0,0,0-.6-.21,1.09,1.09,0,0,0-.86.38,1.81,1.81,0,0,0-.33,1.21,1.87,1.87,0,0,0,.32,1.21,1,1,0,0,0,.84.38,1,1,0,0,0,.69-.25A1.26,1.26,0,0,0,109.56,59.08Z"/><path d="M110.59,58.53a2.14,2.14,0,0,1,.64-1.71,1.93,1.93,0,0,1,1.3-.46,1.86,1.86,0,0,1,1.4.56,2.13,2.13,0,0,1,.54,1.55,2.74,2.74,0,0,1-.24,1.26,1.7,1.7,0,0,1-.7.71,2,2,0,0,1-1,.25,1.87,1.87,0,0,1-1.41-.56A2.23,2.23,0,0,1,110.59,58.53Zm.72,0a1.77,1.77,0,0,0,.35,1.19,1.16,1.16,0,0,0,1.75,0,1.81,1.81,0,0,0,.35-1.21,1.72,1.72,0,0,0-.35-1.17,1.16,1.16,0,0,0-1.74,0A1.76,1.76,0,0,0,111.32,58.53Z"/><path d="M115.31,60.6V56.45h.63V57a1.48,1.48,0,0,1,.52-.49,1.46,1.46,0,0,1,.74-.19,1.36,1.36,0,0,1,.76.19,1,1,0,0,1,.42.54,1.49,1.49,0,0,1,1.28-.73,1.26,1.26,0,0,1,.95.34,1.46,1.46,0,0,1,.33,1.05V60.6h-.7V58a1.93,1.93,0,0,0-.07-.61.59.59,0,0,0-.25-.3.78.78,0,0,0-.42-.11,1,1,0,0,0-.73.29,1.28,1.28,0,0,0-.29.93V60.6h-.7V57.9a1.18,1.18,0,0,0-.17-.7A.65.65,0,0,0,117,57a1,1,0,0,0-.55.16.89.89,0,0,0-.37.46,2.57,2.57,0,0,0-.11.87V60.6Z"/><path d="M122.62,60.6H122V54.87h.7v2a1.39,1.39,0,0,1,1.14-.56,1.75,1.75,0,0,1,.72.15,1.47,1.47,0,0,1,.56.43,2.11,2.11,0,0,1,.35.67,2.77,2.77,0,0,1,.13.84,2.37,2.37,0,0,1-.53,1.65,1.65,1.65,0,0,1-1.27.58,1.32,1.32,0,0,1-1.15-.61Zm0-2.11a2.16,2.16,0,0,0,.2,1.08,1,1,0,0,0,1.7.14,1.82,1.82,0,0,0,.34-1.19,1.85,1.85,0,0,0-.32-1.2,1,1,0,0,0-.78-.39,1,1,0,0,0-.8.4A1.76,1.76,0,0,0,122.61,58.49Z"/><path d="M129.14,60.6V60a1.52,1.52,0,0,1-1.32.7,1.68,1.68,0,0,1-.69-.14,1.13,1.13,0,0,1-.47-.35,1.32,1.32,0,0,1-.22-.52,3.55,3.55,0,0,1,0-.66V56.45h.7v2.3a4.09,4.09,0,0,0,0,.74.74.74,0,0,0,.28.44.87.87,0,0,0,.53.16,1.15,1.15,0,0,0,.59-.16.9.9,0,0,0,.39-.44,2.22,2.22,0,0,0,.12-.81V56.45h.7V60.6Z"/><path d="M130.59,59.36l.7-.11a1,1,0,0,0,.33.64,1.14,1.14,0,0,0,.75.22,1.1,1.1,0,0,0,.72-.2.59.59,0,0,0,.23-.46.43.43,0,0,0-.21-.37,3.06,3.06,0,0,0-.72-.24,6.56,6.56,0,0,1-1.07-.34,1,1,0,0,1-.61-1,1.07,1.07,0,0,1,.13-.51,1.14,1.14,0,0,1,.35-.39,1.43,1.43,0,0,1,.45-.21,2.14,2.14,0,0,1,.61-.08,2.4,2.4,0,0,1,.86.14,1.17,1.17,0,0,1,.54.38,1.49,1.49,0,0,1,.24.64l-.69.09a.75.75,0,0,0-.27-.5,1,1,0,0,0-.63-.18,1.15,1.15,0,0,0-.69.16.46.46,0,0,0-.21.38.39.39,0,0,0,.09.25.62.62,0,0,0,.27.19l.62.18a8.59,8.59,0,0,1,1,.33,1.06,1.06,0,0,1,.46.37,1,1,0,0,1,.17.6,1.18,1.18,0,0,1-.21.66,1.33,1.33,0,0,1-.59.48,2.15,2.15,0,0,1-.87.17,2,2,0,0,1-1.23-.34A1.56,1.56,0,0,1,130.59,59.36Z"/><path d="M136.4,60l.1.62a2.59,2.59,0,0,1-.53.06,1.2,1.2,0,0,1-.59-.12.67.67,0,0,1-.3-.32,2.51,2.51,0,0,1-.09-.83V57h-.52v-.55H135v-1l.7-.42v1.45h.71V57h-.71v2.43a1.21,1.21,0,0,0,0,.39.29.29,0,0,0,.12.14.46.46,0,0,0,.24.05Z"/><path d="M137.09,55.68v-.81h.7v.81Zm0,4.92V56.45h.7V60.6Z"/><path d="M138.61,58.53a2.14,2.14,0,0,1,.64-1.71,1.93,1.93,0,0,1,1.3-.46,1.86,1.86,0,0,1,1.4.56,2.14,2.14,0,0,1,.54,1.55,2.74,2.74,0,0,1-.24,1.26,1.7,1.7,0,0,1-.7.71,2,2,0,0,1-1,.25,1.86,1.86,0,0,1-1.41-.56A2.23,2.23,0,0,1,138.61,58.53Zm.72,0a1.76,1.76,0,0,0,.35,1.19,1.16,1.16,0,0,0,1.75,0,1.81,1.81,0,0,0,.35-1.21,1.72,1.72,0,0,0-.35-1.17,1.16,1.16,0,0,0-1.74,0A1.76,1.76,0,0,0,139.33,58.53Z"/><path d="M143.32,60.6V56.45H144V57a1.49,1.49,0,0,1,1.32-.68,1.73,1.73,0,0,1,.69.13,1.09,1.09,0,0,1,.47.35,1.37,1.37,0,0,1,.22.52,4.1,4.1,0,0,1,0,.68V60.6H146V58.08a1.89,1.89,0,0,0-.08-.64.68.68,0,0,0-.29-.34.92.92,0,0,0-.49-.13,1.14,1.14,0,0,0-.78.29,1.41,1.41,0,0,0-.33,1.08V60.6Z"/><path d="M152.7,59.08l.69.09a1.8,1.8,0,0,1-.58,1.12,1.69,1.69,0,0,1-1.15.4,1.78,1.78,0,0,1-1.37-.56,2.26,2.26,0,0,1-.52-1.6,2.89,2.89,0,0,1,.22-1.18,1.55,1.55,0,0,1,.68-.76,2,2,0,0,1,1-.25,1.73,1.73,0,0,1,1.11.34,1.57,1.57,0,0,1,.55,1l-.68.11a1.14,1.14,0,0,0-.35-.63.9.9,0,0,0-.6-.21,1.09,1.09,0,0,0-.86.38,1.81,1.81,0,0,0-.33,1.21,1.87,1.87,0,0,0,.32,1.21,1,1,0,0,0,.84.38,1,1,0,0,0,.69-.25A1.26,1.26,0,0,0,152.7,59.08Z"/><path d="M154,60.6V54.87h.7v2.05a1.57,1.57,0,0,1,1.24-.57,1.68,1.68,0,0,1,.8.18,1.07,1.07,0,0,1,.49.5,2.32,2.32,0,0,1,.15.93V60.6h-.7V58a1.09,1.09,0,0,0-.23-.77.85.85,0,0,0-.65-.24,1.14,1.14,0,0,0-.59.16.92.92,0,0,0-.39.44,2,2,0,0,0-.12.77V60.6Z"/><path d="M161.15,60.09a2.62,2.62,0,0,1-.75.47,2.18,2.18,0,0,1-.78.14,1.51,1.51,0,0,1-1.05-.33,1.1,1.1,0,0,1-.37-.85,1.16,1.16,0,0,1,.5-1,1.7,1.7,0,0,1,.51-.23,5.12,5.12,0,0,1,.63-.11,6.41,6.41,0,0,0,1.25-.24c0-.1,0-.16,0-.18a.78.78,0,0,0-.2-.61,1.18,1.18,0,0,0-.8-.24,1.24,1.24,0,0,0-.73.17,1.06,1.06,0,0,0-.35.62l-.69-.09a1.7,1.7,0,0,1,.31-.71,1.35,1.35,0,0,1,.62-.42,2.77,2.77,0,0,1,.94-.15,2.5,2.5,0,0,1,.86.13,1.14,1.14,0,0,1,.49.31,1.12,1.12,0,0,1,.22.48,4,4,0,0,1,0,.65v.94a9.88,9.88,0,0,0,0,1.24,1.55,1.55,0,0,0,.18.5h-.73A1.47,1.47,0,0,1,161.15,60.09Zm-.06-1.57a5.18,5.18,0,0,1-1.15.27,2.68,2.68,0,0,0-.61.14.61.61,0,0,0-.16,1,.92.92,0,0,0,.62.19,1.45,1.45,0,0,0,.72-.18,1.09,1.09,0,0,0,.46-.49,1.71,1.71,0,0,0,.11-.7Z"/><path d="M162.89,60.6V56.45h.63V57a1.47,1.47,0,0,1,.52-.49,1.45,1.45,0,0,1,.74-.19,1.36,1.36,0,0,1,.76.19,1,1,0,0,1,.42.54,1.49,1.49,0,0,1,1.28-.73,1.27,1.27,0,0,1,.95.34,1.46,1.46,0,0,1,.33,1.05V60.6h-.7V58a2,2,0,0,0-.07-.61.59.59,0,0,0-.25-.3.78.78,0,0,0-.42-.11,1,1,0,0,0-.73.29,1.28,1.28,0,0,0-.29.93V60.6h-.7V57.9a1.19,1.19,0,0,0-.17-.7.65.65,0,0,0-.56-.23,1,1,0,0,0-.55.16.89.89,0,0,0-.37.46,2.55,2.55,0,0,0-.11.87V60.6Z"/><path d="M170.2,60.6h-.65V54.87h.7v2a1.39,1.39,0,0,1,1.14-.56,1.75,1.75,0,0,1,.72.15,1.48,1.48,0,0,1,.56.43,2.13,2.13,0,0,1,.35.67,2.79,2.79,0,0,1,.13.84,2.37,2.37,0,0,1-.53,1.65,1.65,1.65,0,0,1-1.27.58,1.32,1.32,0,0,1-1.15-.61Zm0-2.11a2.15,2.15,0,0,0,.2,1.08,1,1,0,0,0,1.7.14,1.82,1.82,0,0,0,.34-1.19,1.85,1.85,0,0,0-.32-1.2,1,1,0,0,0-.78-.39,1,1,0,0,0-.8.4A1.75,1.75,0,0,0,170.19,58.49Z"/><path d="M176.84,59.26l.73.09a1.78,1.78,0,0,1-.64,1,1.92,1.92,0,0,1-1.19.35,1.9,1.9,0,0,1-1.44-.56,2.19,2.19,0,0,1-.53-1.57,2.29,2.29,0,0,1,.54-1.62,1.82,1.82,0,0,1,1.4-.58,1.77,1.77,0,0,1,1.36.57,2.25,2.25,0,0,1,.53,1.59s0,.1,0,.19h-3.09a1.59,1.59,0,0,0,.39,1,1.15,1.15,0,0,0,.87.36,1.07,1.07,0,0,0,.66-.2A1.36,1.36,0,0,0,176.84,59.26Zm-2.31-1.14h2.32a1.41,1.41,0,0,0-.27-.79,1.08,1.08,0,0,0-.87-.41,1.12,1.12,0,0,0-.81.32A1.28,1.28,0,0,0,174.53,58.13Z"/><path d="M178.44,60.6V56.45h.63v.63a1.72,1.72,0,0,1,.45-.58.78.78,0,0,1,.45-.14,1.37,1.37,0,0,1,.72.23l-.24.65a1,1,0,0,0-.52-.15.67.67,0,0,0-.41.14.75.75,0,0,0-.26.38,2.74,2.74,0,0,0-.12.82V60.6Z"/><path d="M186,60.09a2.62,2.62,0,0,1-.75.47,2.18,2.18,0,0,1-.78.14,1.51,1.51,0,0,1-1.05-.33,1.1,1.1,0,0,1-.37-.85,1.16,1.16,0,0,1,.5-1,1.7,1.7,0,0,1,.51-.23,5.12,5.12,0,0,1,.63-.11A6.41,6.41,0,0,0,186,58c0-.1,0-.16,0-.18a.78.78,0,0,0-.2-.61,1.18,1.18,0,0,0-.8-.24,1.24,1.24,0,0,0-.73.17,1.06,1.06,0,0,0-.35.62l-.69-.09a1.7,1.7,0,0,1,.31-.71,1.35,1.35,0,0,1,.62-.42,2.77,2.77,0,0,1,.94-.15,2.5,2.5,0,0,1,.86.13,1.14,1.14,0,0,1,.49.31,1.12,1.12,0,0,1,.22.48,4,4,0,0,1,0,.65v.94a9.88,9.88,0,0,0,0,1.24,1.55,1.55,0,0,0,.18.5h-.73A1.47,1.47,0,0,1,186,60.09ZM186,58.52a5.18,5.18,0,0,1-1.15.27,2.68,2.68,0,0,0-.61.14.61.61,0,0,0-.16,1,.92.92,0,0,0,.62.19,1.45,1.45,0,0,0,.72-.18,1.09,1.09,0,0,0,.46-.49,1.71,1.71,0,0,0,.11-.7Z"/><path d="M187.79,60.6V56.45h.63V57a1.49,1.49,0,0,1,1.32-.68,1.73,1.73,0,0,1,.69.13,1.09,1.09,0,0,1,.47.35,1.37,1.37,0,0,1,.22.52,4.1,4.1,0,0,1,0,.68V60.6h-.7V58.08a1.89,1.89,0,0,0-.08-.64.68.68,0,0,0-.29-.34.92.92,0,0,0-.49-.13,1.14,1.14,0,0,0-.78.29,1.41,1.41,0,0,0-.33,1.08V60.6Z"/><path d="M194.93,60.6v-.52a1.29,1.29,0,0,1-1.16.62,1.62,1.62,0,0,1-.91-.27,1.8,1.8,0,0,1-.64-.76,2.64,2.64,0,0,1-.23-1.13,2.94,2.94,0,0,1,.21-1.13,1.63,1.63,0,0,1,.62-.78,1.66,1.66,0,0,1,.93-.27,1.38,1.38,0,0,1,.67.16,1.41,1.41,0,0,1,.48.41V54.87h.7V60.6Zm-2.22-2.07a1.8,1.8,0,0,0,.34,1.19,1,1,0,0,0,.79.39,1,1,0,0,0,.78-.38,1.74,1.74,0,0,0,.32-1.15,2,2,0,0,0-.33-1.25,1,1,0,0,0-.81-.4,1,1,0,0,0-.78.38A1.89,1.89,0,0,0,192.7,58.53Z"/><path d="M199.56,60.6h-.65V54.87h.7v2a1.39,1.39,0,0,1,1.14-.56,1.75,1.75,0,0,1,.72.15,1.48,1.48,0,0,1,.56.43,2.13,2.13,0,0,1,.35.67,2.79,2.79,0,0,1,.13.84,2.37,2.37,0,0,1-.53,1.65,1.65,1.65,0,0,1-1.27.58,1.32,1.32,0,0,1-1.15-.61Zm0-2.11a2.15,2.15,0,0,0,.2,1.08,1,1,0,0,0,1.7.14,1.82,1.82,0,0,0,.34-1.19,1.85,1.85,0,0,0-.32-1.2,1,1,0,0,0-.78-.39,1,1,0,0,0-.8.4A1.75,1.75,0,0,0,199.55,58.49Z"/><path d="M206.08,60.6V60a1.52,1.52,0,0,1-1.32.7,1.67,1.67,0,0,1-.69-.14,1.13,1.13,0,0,1-.47-.35,1.3,1.3,0,0,1-.22-.52,3.51,3.51,0,0,1,0-.66V56.45h.7v2.3a4,4,0,0,0,0,.74.72.72,0,0,0,.28.44.87.87,0,0,0,.53.16,1.16,1.16,0,0,0,.59-.16.91.91,0,0,0,.39-.44,2.23,2.23,0,0,0,.12-.81V56.45h.7V60.6Z"/><path d="M207.8,60.6V56.45h.63v.63a1.7,1.7,0,0,1,.45-.58.78.78,0,0,1,.45-.14,1.37,1.37,0,0,1,.72.23l-.24.65a1,1,0,0,0-.52-.15.66.66,0,0,0-.41.14.74.74,0,0,0-.26.38,2.74,2.74,0,0,0-.12.82V60.6Z"/><path d="M210.47,60.6V56.45h.63V57a1.49,1.49,0,0,1,1.32-.68,1.74,1.74,0,0,1,.69.13,1.1,1.1,0,0,1,.47.35,1.39,1.39,0,0,1,.22.52,4.1,4.1,0,0,1,0,.68V60.6h-.7V58.08a1.89,1.89,0,0,0-.08-.64.68.68,0,0,0-.29-.34.93.93,0,0,0-.49-.13,1.13,1.13,0,0,0-.78.29,1.4,1.4,0,0,0-.33,1.08V60.6Z"/><path d="M217.76,59.26l.73.09a1.78,1.78,0,0,1-.64,1,1.92,1.92,0,0,1-1.19.35,1.9,1.9,0,0,1-1.44-.56,2.19,2.19,0,0,1-.53-1.57,2.29,2.29,0,0,1,.54-1.62,1.82,1.82,0,0,1,1.4-.58,1.77,1.77,0,0,1,1.36.57,2.25,2.25,0,0,1,.53,1.59s0,.1,0,.19h-3.09a1.59,1.59,0,0,0,.39,1,1.15,1.15,0,0,0,.87.36,1.08,1.08,0,0,0,.66-.2A1.36,1.36,0,0,0,217.76,59.26Zm-2.31-1.14h2.32a1.42,1.42,0,0,0-.27-.79,1.08,1.08,0,0,0-.87-.41,1.11,1.11,0,0,0-.81.32A1.28,1.28,0,0,0,215.45,58.13Z"/><path d="M219.36,60.6V56.45H220v.63a1.7,1.7,0,0,1,.45-.58.78.78,0,0,1,.45-.14,1.37,1.37,0,0,1,.72.23l-.24.65a1,1,0,0,0-.52-.15.66.66,0,0,0-.41.14.74.74,0,0,0-.26.38,2.74,2.74,0,0,0-.12.82V60.6Z"/><path d="M224,59.36l.7-.11a1,1,0,0,0,.33.64,1.14,1.14,0,0,0,.75.22,1.1,1.1,0,0,0,.72-.2.59.59,0,0,0,.23-.46.43.43,0,0,0-.21-.37,3.09,3.09,0,0,0-.72-.24,6.56,6.56,0,0,1-1.07-.34,1,1,0,0,1-.61-1,1.05,1.05,0,0,1,.13-.51,1.13,1.13,0,0,1,.35-.39,1.43,1.43,0,0,1,.45-.21,2.13,2.13,0,0,1,.61-.08,2.41,2.41,0,0,1,.86.14,1.17,1.17,0,0,1,.54.38,1.49,1.49,0,0,1,.24.64l-.69.09a.76.76,0,0,0-.27-.5,1,1,0,0,0-.63-.18,1.15,1.15,0,0,0-.69.16.46.46,0,0,0-.21.38.38.38,0,0,0,.09.25.62.62,0,0,0,.27.19l.62.18a8.71,8.71,0,0,1,1,.33,1.08,1.08,0,0,1,.46.37,1,1,0,0,1,.17.6,1.18,1.18,0,0,1-.21.66,1.33,1.33,0,0,1-.59.48,2.16,2.16,0,0,1-.87.17,2,2,0,0,1-1.23-.34A1.56,1.56,0,0,1,224,59.36Z"/><path d="M228.24,60.6V54.87h.7V60.6Z"/><path d="M232.87,59.26l.73.09a1.78,1.78,0,0,1-.64,1,1.92,1.92,0,0,1-1.19.35,1.9,1.9,0,0,1-1.44-.56,2.19,2.19,0,0,1-.53-1.57,2.29,2.29,0,0,1,.54-1.62,1.82,1.82,0,0,1,1.4-.58,1.77,1.77,0,0,1,1.36.57,2.25,2.25,0,0,1,.53,1.59s0,.1,0,.19h-3.09a1.59,1.59,0,0,0,.39,1,1.15,1.15,0,0,0,.87.36,1.08,1.08,0,0,0,.66-.2A1.36,1.36,0,0,0,232.87,59.26Zm-2.31-1.14h2.32a1.42,1.42,0,0,0-.27-.79,1.08,1.08,0,0,0-.87-.41,1.11,1.11,0,0,0-.81.32A1.28,1.28,0,0,0,230.56,58.13Z"/><path d="M237.32,59.26l.73.09a1.78,1.78,0,0,1-.64,1,1.92,1.92,0,0,1-1.19.35,1.9,1.9,0,0,1-1.44-.56,2.19,2.19,0,0,1-.53-1.57,2.29,2.29,0,0,1,.54-1.62,1.82,1.82,0,0,1,1.4-.58,1.77,1.77,0,0,1,1.36.57,2.25,2.25,0,0,1,.53,1.59s0,.1,0,.19H235a1.59,1.59,0,0,0,.39,1,1.15,1.15,0,0,0,.87.36,1.08,1.08,0,0,0,.66-.2A1.36,1.36,0,0,0,237.32,59.26ZM235,58.13h2.32a1.42,1.42,0,0,0-.27-.79,1.08,1.08,0,0,0-.87-.41,1.11,1.11,0,0,0-.81.32A1.28,1.28,0,0,0,235,58.13Z"/><path d="M240.08,60.6l-1.58-4.15h.74l.89,2.48c.1.27.18.55.27.84.06-.22.15-.48.26-.79l.92-2.53h.72l-1.57,4.15Z"/><path d="M245.77,59.26l.73.09a1.78,1.78,0,0,1-.64,1,1.92,1.92,0,0,1-1.19.35,1.9,1.9,0,0,1-1.44-.56,2.19,2.19,0,0,1-.53-1.57,2.29,2.29,0,0,1,.54-1.62,1.82,1.82,0,0,1,1.4-.58,1.77,1.77,0,0,1,1.36.57,2.25,2.25,0,0,1,.53,1.59s0,.1,0,.19h-3.09a1.59,1.59,0,0,0,.39,1,1.15,1.15,0,0,0,.87.36,1.08,1.08,0,0,0,.66-.2A1.36,1.36,0,0,0,245.77,59.26Zm-2.31-1.14h2.32a1.42,1.42,0,0,0-.27-.79,1.08,1.08,0,0,0-.87-.41,1.11,1.11,0,0,0-.81.32A1.28,1.28,0,0,0,243.46,58.13Z"/><path d="M93.56,69.69a2.6,2.6,0,0,1-.75.47,2.18,2.18,0,0,1-.78.14A1.51,1.51,0,0,1,91,70a1.1,1.1,0,0,1-.37-.85,1.16,1.16,0,0,1,.5-1,1.7,1.7,0,0,1,.51-.23,5.15,5.15,0,0,1,.63-.11,6.4,6.4,0,0,0,1.25-.24c0-.1,0-.16,0-.18a.78.78,0,0,0-.2-.61,1.18,1.18,0,0,0-.8-.24,1.24,1.24,0,0,0-.73.17,1.06,1.06,0,0,0-.35.62l-.69-.09a1.71,1.71,0,0,1,.31-.71,1.35,1.35,0,0,1,.62-.42A2.77,2.77,0,0,1,92.6,66a2.5,2.5,0,0,1,.86.13,1.14,1.14,0,0,1,.49.31,1.11,1.11,0,0,1,.22.48,4,4,0,0,1,0,.65v.94a10,10,0,0,0,0,1.24,1.57,1.57,0,0,0,.18.5H93.7A1.5,1.5,0,0,1,93.56,69.69Zm-.06-1.57a5.16,5.16,0,0,1-1.15.27,2.69,2.69,0,0,0-.61.14.6.6,0,0,0-.37.56.6.6,0,0,0,.21.47.92.92,0,0,0,.62.19,1.45,1.45,0,0,0,.72-.18,1.09,1.09,0,0,0,.46-.49,1.7,1.7,0,0,0,.11-.7Z"/><path d="M95.3,70.2V66.05h.63v.59A1.49,1.49,0,0,1,97.25,66a1.73,1.73,0,0,1,.69.13,1.09,1.09,0,0,1,.47.35,1.36,1.36,0,0,1,.22.52,4,4,0,0,1,0,.68V70.2H98V67.68a1.89,1.89,0,0,0-.08-.64.68.68,0,0,0-.29-.34.92.92,0,0,0-.49-.13,1.14,1.14,0,0,0-.78.29A1.41,1.41,0,0,0,96,67.93V70.2Z"/><path d="M102.44,70.2v-.52a1.29,1.29,0,0,1-1.16.62,1.62,1.62,0,0,1-.91-.27,1.8,1.8,0,0,1-.64-.76,2.64,2.64,0,0,1-.23-1.13A3,3,0,0,1,99.7,67a1.64,1.64,0,0,1,.62-.78,1.66,1.66,0,0,1,.93-.27,1.38,1.38,0,0,1,.67.16,1.4,1.4,0,0,1,.48.41V64.47h.7V70.2Zm-2.22-2.07a1.8,1.8,0,0,0,.34,1.19,1,1,0,0,0,.79.39,1,1,0,0,0,.78-.38,1.74,1.74,0,0,0,.32-1.15,2,2,0,0,0-.33-1.25,1,1,0,0,0-.81-.4,1,1,0,0,0-.78.38A1.89,1.89,0,0,0,100.22,68.13Z"/><path d="M106.42,70.2V64.47h.7v2.05a1.57,1.57,0,0,1,1.24-.57,1.68,1.68,0,0,1,.8.18,1.07,1.07,0,0,1,.49.5,2.32,2.32,0,0,1,.15.93V70.2h-.7V67.57a1.09,1.09,0,0,0-.23-.77.85.85,0,0,0-.65-.24,1.14,1.14,0,0,0-.59.16.92.92,0,0,0-.39.44,2,2,0,0,0-.12.77V70.2Z"/><path d="M110.61,68.12a2.14,2.14,0,0,1,.64-1.71,1.93,1.93,0,0,1,1.3-.46,1.86,1.86,0,0,1,1.4.56,2.13,2.13,0,0,1,.54,1.55,2.74,2.74,0,0,1-.24,1.26,1.7,1.7,0,0,1-.7.71,2,2,0,0,1-1,.25,1.87,1.87,0,0,1-1.41-.56A2.23,2.23,0,0,1,110.61,68.12Zm.72,0a1.77,1.77,0,0,0,.35,1.19,1.16,1.16,0,0,0,1.75,0,1.81,1.81,0,0,0,.35-1.21,1.72,1.72,0,0,0-.35-1.17,1.16,1.16,0,0,0-1.74,0A1.76,1.76,0,0,0,111.33,68.12Z"/><path d="M118,70.2v-.61a1.52,1.52,0,0,1-1.32.7,1.68,1.68,0,0,1-.69-.14,1.13,1.13,0,0,1-.47-.35,1.32,1.32,0,0,1-.22-.52,3.55,3.55,0,0,1,0-.66V66.05h.7v2.3a4.09,4.09,0,0,0,0,.74.74.74,0,0,0,.28.44.87.87,0,0,0,.53.16,1.15,1.15,0,0,0,.59-.16.9.9,0,0,0,.39-.44,2.22,2.22,0,0,0,.12-.81V66.05h.7V70.2Z"/><path d="M119.48,69l.7-.11a1,1,0,0,0,.33.64,1.14,1.14,0,0,0,.75.22,1.1,1.1,0,0,0,.72-.2.59.59,0,0,0,.23-.46.43.43,0,0,0-.21-.37,3.06,3.06,0,0,0-.72-.24,6.56,6.56,0,0,1-1.07-.34,1,1,0,0,1-.61-1,1.07,1.07,0,0,1,.13-.51,1.14,1.14,0,0,1,.35-.39,1.43,1.43,0,0,1,.45-.21,2.14,2.14,0,0,1,.61-.08,2.4,2.4,0,0,1,.86.14,1.17,1.17,0,0,1,.54.38,1.49,1.49,0,0,1,.24.64l-.69.09a.75.75,0,0,0-.27-.5,1,1,0,0,0-.63-.18,1.15,1.15,0,0,0-.69.16.46.46,0,0,0-.21.38.39.39,0,0,0,.09.25.62.62,0,0,0,.27.19l.62.18a8.59,8.59,0,0,1,1,.33,1.06,1.06,0,0,1,.46.37,1,1,0,0,1,.17.6,1.18,1.18,0,0,1-.21.66,1.33,1.33,0,0,1-.59.48,2.15,2.15,0,0,1-.87.17A2,2,0,0,1,120,70,1.56,1.56,0,0,1,119.48,69Z"/><path d="M123.77,65.28v-.81h.7v.81Zm0,4.92V66.05h.7V70.2Z"/><path d="M125.54,70.2V66.05h.63v.59A1.49,1.49,0,0,1,127.5,66a1.73,1.73,0,0,1,.69.13,1.09,1.09,0,0,1,.47.35,1.36,1.36,0,0,1,.22.52,4,4,0,0,1,0,.68V70.2h-.7V67.68a1.89,1.89,0,0,0-.08-.64.68.68,0,0,0-.29-.34.92.92,0,0,0-.49-.13,1.14,1.14,0,0,0-.78.29,1.41,1.41,0,0,0-.33,1.08V70.2Z"/><path d="M129.86,70.54l.68.1a.65.65,0,0,0,.24.46,1.17,1.17,0,0,0,.71.2,1.26,1.26,0,0,0,.75-.2,1,1,0,0,0,.36-.55,4.5,4.5,0,0,0,.05-.9,1.44,1.44,0,0,1-1.15.54,1.57,1.57,0,0,1-1.32-.62,2.38,2.38,0,0,1-.47-1.48,2.76,2.76,0,0,1,.21-1.1,1.72,1.72,0,0,1,.62-.78,1.68,1.68,0,0,1,1-.27,1.49,1.49,0,0,1,1.21.59v-.5h.65v3.59a3.4,3.4,0,0,1-.2,1.37,1.44,1.44,0,0,1-.62.64,2.17,2.17,0,0,1-1.05.23,2,2,0,0,1-1.2-.33A1.13,1.13,0,0,1,129.86,70.54Zm.58-2.49a1.8,1.8,0,0,0,.32,1.19,1.07,1.07,0,0,0,1.63,0,1.74,1.74,0,0,0,.33-1.17,1.7,1.7,0,0,0-.34-1.15,1,1,0,0,0-.81-.39,1,1,0,0,0-.8.38A1.69,1.69,0,0,0,130.45,68.05Z"/><path d="M137.31,70.2h-.65V64.47h.7v2A1.39,1.39,0,0,1,138.5,66a1.75,1.75,0,0,1,.72.15,1.48,1.48,0,0,1,.56.43,2.13,2.13,0,0,1,.35.67,2.79,2.79,0,0,1,.13.84,2.37,2.37,0,0,1-.53,1.65,1.65,1.65,0,0,1-1.27.58,1.32,1.32,0,0,1-1.15-.61Zm0-2.11a2.15,2.15,0,0,0,.2,1.08,1,1,0,0,0,1.7.14,1.82,1.82,0,0,0,.34-1.19,1.85,1.85,0,0,0-.32-1.2,1,1,0,0,0-.78-.39,1,1,0,0,0-.8.4A1.75,1.75,0,0,0,137.31,68.09Z"/><path d="M144,68.86l.73.09a1.78,1.78,0,0,1-.64,1,1.92,1.92,0,0,1-1.19.35,1.9,1.9,0,0,1-1.44-.56,2.19,2.19,0,0,1-.53-1.57,2.29,2.29,0,0,1,.54-1.62,1.82,1.82,0,0,1,1.4-.58,1.77,1.77,0,0,1,1.36.57,2.25,2.25,0,0,1,.53,1.59s0,.1,0,.19h-3.09a1.59,1.59,0,0,0,.39,1,1.15,1.15,0,0,0,.87.36,1.07,1.07,0,0,0,.66-.2A1.36,1.36,0,0,0,144,68.86Zm-2.31-1.14H144a1.41,1.41,0,0,0-.27-.79,1.08,1.08,0,0,0-.87-.41,1.12,1.12,0,0,0-.81.32A1.28,1.28,0,0,0,141.65,67.73Z"/><path d="M148.27,68.68l.69.09a1.8,1.8,0,0,1-.58,1.12,1.69,1.69,0,0,1-1.15.4,1.78,1.78,0,0,1-1.37-.56,2.26,2.26,0,0,1-.52-1.6,2.89,2.89,0,0,1,.22-1.18,1.55,1.55,0,0,1,.68-.76,2,2,0,0,1,1-.25,1.73,1.73,0,0,1,1.11.34,1.57,1.57,0,0,1,.55,1l-.68.11a1.14,1.14,0,0,0-.35-.63.9.9,0,0,0-.6-.21,1.09,1.09,0,0,0-.86.38,1.81,1.81,0,0,0-.33,1.21,1.87,1.87,0,0,0,.32,1.21,1,1,0,0,0,.84.38,1,1,0,0,0,.69-.25A1.26,1.26,0,0,0,148.27,68.68Z"/><path d="M149.3,68.12a2.14,2.14,0,0,1,.64-1.71,1.93,1.93,0,0,1,1.3-.46,1.86,1.86,0,0,1,1.4.56,2.14,2.14,0,0,1,.54,1.55,2.74,2.74,0,0,1-.24,1.26,1.7,1.7,0,0,1-.7.71,2,2,0,0,1-1,.25,1.86,1.86,0,0,1-1.41-.56A2.23,2.23,0,0,1,149.3,68.12Zm.72,0a1.76,1.76,0,0,0,.35,1.19,1.16,1.16,0,0,0,1.75,0,1.81,1.81,0,0,0,.35-1.21,1.72,1.72,0,0,0-.35-1.17,1.16,1.16,0,0,0-1.74,0A1.76,1.76,0,0,0,150,68.12Z"/><path d="M154,70.2V66.05h.63v.58a1.47,1.47,0,0,1,.52-.49,1.45,1.45,0,0,1,.74-.19,1.36,1.36,0,0,1,.76.19,1,1,0,0,1,.42.54,1.49,1.49,0,0,1,1.28-.73,1.27,1.27,0,0,1,.95.34,1.46,1.46,0,0,1,.33,1.05V70.2h-.7V67.59a2,2,0,0,0-.07-.61.59.59,0,0,0-.25-.3.78.78,0,0,0-.42-.11,1,1,0,0,0-.73.29,1.28,1.28,0,0,0-.29.93V70.2h-.7V67.5a1.19,1.19,0,0,0-.17-.7.65.65,0,0,0-.56-.23,1,1,0,0,0-.55.16.89.89,0,0,0-.37.46,2.55,2.55,0,0,0-.11.87V70.2Z"/><path d="M163.52,68.86l.73.09a1.78,1.78,0,0,1-.64,1,1.92,1.92,0,0,1-1.19.35,1.9,1.9,0,0,1-1.44-.56,2.19,2.19,0,0,1-.53-1.57,2.29,2.29,0,0,1,.54-1.62,1.82,1.82,0,0,1,1.4-.58,1.77,1.77,0,0,1,1.36.57,2.25,2.25,0,0,1,.53,1.59s0,.1,0,.19h-3.09a1.59,1.59,0,0,0,.39,1,1.15,1.15,0,0,0,.87.36,1.07,1.07,0,0,0,.66-.2A1.36,1.36,0,0,0,163.52,68.86Zm-2.31-1.14h2.32a1.41,1.41,0,0,0-.27-.79,1.08,1.08,0,0,0-.87-.41,1.12,1.12,0,0,0-.81.32A1.28,1.28,0,0,0,161.21,67.73Z"/><path d="M168.5,70.2l-1.58-4.15h.74l.89,2.48q.14.4.27.84.09-.33.26-.79l.92-2.53h.72l-1.57,4.15Z"/><path d="M174.19,68.86l.73.09a1.78,1.78,0,0,1-.64,1,1.92,1.92,0,0,1-1.19.35,1.9,1.9,0,0,1-1.44-.56,2.19,2.19,0,0,1-.53-1.57,2.29,2.29,0,0,1,.54-1.62,1.82,1.82,0,0,1,1.4-.58,1.77,1.77,0,0,1,1.36.57,2.25,2.25,0,0,1,.53,1.59s0,.1,0,.19h-3.09a1.59,1.59,0,0,0,.39,1,1.15,1.15,0,0,0,.87.36,1.07,1.07,0,0,0,.66-.2A1.36,1.36,0,0,0,174.19,68.86Zm-2.31-1.14h2.32a1.41,1.41,0,0,0-.27-.79,1.08,1.08,0,0,0-.87-.41,1.12,1.12,0,0,0-.81.32A1.28,1.28,0,0,0,171.88,67.73Z"/><path d="M175.79,70.2V66.05h.63v.63a1.72,1.72,0,0,1,.45-.58.78.78,0,0,1,.45-.14,1.37,1.37,0,0,1,.72.23l-.24.65a1,1,0,0,0-.52-.15.67.67,0,0,0-.41.14.75.75,0,0,0-.26.38,2.74,2.74,0,0,0-.12.82V70.2Z"/><path d="M178.43,71.8l-.08-.66a1.55,1.55,0,0,0,.4.06.78.78,0,0,0,.38-.08.64.64,0,0,0,.23-.22,3.58,3.58,0,0,0,.21-.52l.06-.17-1.57-4.16h.76l.86,2.4q.17.46.3,1a9.21,9.21,0,0,1,.29-.95l.89-2.42h.7l-1.58,4.22a8.38,8.38,0,0,1-.39.94,1.4,1.4,0,0,1-.43.51,1,1,0,0,1-.58.16A1.39,1.39,0,0,1,178.43,71.8Z"/><path d="M184.68,70.2V64.47h.7v2.05a1.57,1.57,0,0,1,1.24-.57,1.68,1.68,0,0,1,.8.18,1.07,1.07,0,0,1,.49.5,2.32,2.32,0,0,1,.15.93V70.2h-.7V67.57a1.09,1.09,0,0,0-.23-.77.85.85,0,0,0-.65-.24,1.14,1.14,0,0,0-.59.16.92.92,0,0,0-.39.44,2,2,0,0,0-.12.77V70.2Z"/><path d="M188.87,68.12a2.14,2.14,0,0,1,.64-1.71,1.93,1.93,0,0,1,1.3-.46,1.86,1.86,0,0,1,1.4.56,2.14,2.14,0,0,1,.54,1.55,2.74,2.74,0,0,1-.24,1.26,1.7,1.7,0,0,1-.7.71,2,2,0,0,1-1,.25,1.86,1.86,0,0,1-1.41-.56A2.23,2.23,0,0,1,188.87,68.12Zm.72,0a1.76,1.76,0,0,0,.35,1.19,1.16,1.16,0,0,0,1.75,0A1.81,1.81,0,0,0,192,68.1a1.72,1.72,0,0,0-.35-1.17,1.16,1.16,0,0,0-1.74,0A1.76,1.76,0,0,0,189.59,68.12Z"/><path d="M195.12,69.57l.1.62a2.59,2.59,0,0,1-.53.06,1.2,1.2,0,0,1-.59-.12.67.67,0,0,1-.3-.32,2.51,2.51,0,0,1-.09-.83V66.6h-.52v-.55h.52V65l.7-.42v1.45h.71v.55h-.71V69a1.21,1.21,0,0,0,0,.39.29.29,0,0,0,.12.14.46.46,0,0,0,.24.05Z"/><path d="M200.72,70.2v-.52a1.29,1.29,0,0,1-1.16.62,1.62,1.62,0,0,1-.91-.27,1.8,1.8,0,0,1-.64-.76,2.64,2.64,0,0,1-.23-1.13A2.94,2.94,0,0,1,198,67a1.63,1.63,0,0,1,.62-.78,1.66,1.66,0,0,1,.93-.27,1.38,1.38,0,0,1,.67.16,1.41,1.41,0,0,1,.48.41V64.47h.7V70.2Zm-2.22-2.07a1.8,1.8,0,0,0,.34,1.19,1,1,0,0,0,.79.39,1,1,0,0,0,.78-.38,1.74,1.74,0,0,0,.32-1.15,2,2,0,0,0-.33-1.25,1,1,0,0,0-.81-.4,1,1,0,0,0-.78.38A1.89,1.89,0,0,0,198.5,68.13Z"/><path d="M205.2,70.2v-.61a1.52,1.52,0,0,1-1.32.7,1.68,1.68,0,0,1-.69-.14,1.13,1.13,0,0,1-.47-.35,1.3,1.3,0,0,1-.22-.52,3.51,3.51,0,0,1,0-.66V66.05h.7v2.3a4,4,0,0,0,0,.74.74.74,0,0,0,.28.44.87.87,0,0,0,.53.16,1.16,1.16,0,0,0,.59-.16.91.91,0,0,0,.39-.44,2.23,2.23,0,0,0,.12-.81V66.05h.7V70.2Z"/><path d="M206.92,70.2V66.05h.63v.63a1.7,1.7,0,0,1,.45-.58.78.78,0,0,1,.45-.14,1.37,1.37,0,0,1,.72.23l-.24.65a1,1,0,0,0-.52-.15.66.66,0,0,0-.41.14.74.74,0,0,0-.26.38,2.74,2.74,0,0,0-.12.82V70.2Z"/><path d="M209.59,65.28v-.81h.7v.81Zm0,4.92V66.05h.7V70.2Z"/><path d="M211.37,70.2V66.05H212v.59a1.49,1.49,0,0,1,1.32-.68,1.74,1.74,0,0,1,.69.13,1.1,1.1,0,0,1,.47.35,1.39,1.39,0,0,1,.22.52,4.1,4.1,0,0,1,0,.68V70.2H214V67.68A1.89,1.89,0,0,0,214,67a.68.68,0,0,0-.29-.34.93.93,0,0,0-.49-.13,1.13,1.13,0,0,0-.78.29,1.4,1.4,0,0,0-.33,1.08V70.2Z"/><path d="M215.69,70.54l.68.1a.65.65,0,0,0,.24.46,1.17,1.17,0,0,0,.71.2,1.26,1.26,0,0,0,.75-.2,1,1,0,0,0,.36-.55,4.65,4.65,0,0,0,.05-.9,1.45,1.45,0,0,1-1.15.54,1.57,1.57,0,0,1-1.32-.62,2.38,2.38,0,0,1-.47-1.48,2.74,2.74,0,0,1,.21-1.1,1.71,1.71,0,0,1,.62-.78,1.68,1.68,0,0,1,1-.27,1.49,1.49,0,0,1,1.21.59v-.5h.65v3.59A3.41,3.41,0,0,1,219,71a1.45,1.45,0,0,1-.62.64,2.17,2.17,0,0,1-1.05.23,2,2,0,0,1-1.2-.33A1.13,1.13,0,0,1,215.69,70.54Zm.58-2.49a1.8,1.8,0,0,0,.32,1.19,1,1,0,0,0,.81.38,1,1,0,0,0,.81-.37,1.74,1.74,0,0,0,.33-1.17,1.7,1.7,0,0,0-.34-1.15,1,1,0,0,0-.81-.39,1,1,0,0,0-.8.38A1.69,1.69,0,0,0,216.27,68.05Z"/><path d="M222.23,68.12a2.14,2.14,0,0,1,.64-1.71,1.93,1.93,0,0,1,1.3-.46,1.86,1.86,0,0,1,1.4.56,2.14,2.14,0,0,1,.54,1.55,2.74,2.74,0,0,1-.24,1.26,1.71,1.71,0,0,1-.7.71,2,2,0,0,1-1,.25,1.86,1.86,0,0,1-1.41-.56A2.23,2.23,0,0,1,222.23,68.12Zm.72,0a1.76,1.76,0,0,0,.35,1.19,1.16,1.16,0,0,0,1.75,0,1.82,1.82,0,0,0,.35-1.21,1.72,1.72,0,0,0-.35-1.17,1.16,1.16,0,0,0-1.74,0A1.76,1.76,0,0,0,223,68.12Z"/><path d="M226.94,71.79V66.05h.64v.54a1.56,1.56,0,0,1,.51-.47,1.4,1.4,0,0,1,.69-.16,1.64,1.64,0,0,1,.94.27,1.69,1.69,0,0,1,.61.77,2.84,2.84,0,0,1,.21,1.09,2.77,2.77,0,0,1-.23,1.15,1.73,1.73,0,0,1-.66.78,1.71,1.71,0,0,1-.92.27,1.33,1.33,0,0,1-.63-.15,1.41,1.41,0,0,1-.46-.37v2Zm.64-3.64a1.8,1.8,0,0,0,.32,1.18,1,1,0,0,0,.79.38,1,1,0,0,0,.8-.4,1.88,1.88,0,0,0,.33-1.23,1.84,1.84,0,0,0-.33-1.19,1,1,0,0,0-.78-.39,1,1,0,0,0-.79.42A1.88,1.88,0,0,0,227.58,68.15Z"/><path d="M234.23,68.86,235,69a1.78,1.78,0,0,1-.64,1,1.92,1.92,0,0,1-1.19.35,1.9,1.9,0,0,1-1.44-.56,2.19,2.19,0,0,1-.53-1.57,2.29,2.29,0,0,1,.54-1.62,1.82,1.82,0,0,1,1.4-.58,1.77,1.77,0,0,1,1.36.57,2.25,2.25,0,0,1,.53,1.59s0,.1,0,.19h-3.09a1.59,1.59,0,0,0,.39,1,1.15,1.15,0,0,0,.87.36,1.08,1.08,0,0,0,.66-.2A1.36,1.36,0,0,0,234.23,68.86Zm-2.31-1.14h2.32a1.42,1.42,0,0,0-.27-.79,1.08,1.08,0,0,0-.87-.41,1.11,1.11,0,0,0-.81.32A1.28,1.28,0,0,0,231.92,67.73Z"/><path d="M235.83,70.2V66.05h.63v.63a1.7,1.7,0,0,1,.45-.58.78.78,0,0,1,.45-.14,1.37,1.37,0,0,1,.72.23l-.24.65a1,1,0,0,0-.52-.15.66.66,0,0,0-.41.14.74.74,0,0,0-.26.38,2.74,2.74,0,0,0-.12.82V70.2Z"/><path d="M241.21,69.69a2.63,2.63,0,0,1-.75.47,2.19,2.19,0,0,1-.78.14,1.5,1.5,0,0,1-1.05-.33,1.1,1.1,0,0,1-.37-.85,1.12,1.12,0,0,1,.14-.56,1.14,1.14,0,0,1,.36-.4,1.69,1.69,0,0,1,.51-.23,5.08,5.08,0,0,1,.63-.11,6.44,6.44,0,0,0,1.25-.24c0-.1,0-.16,0-.18a.78.78,0,0,0-.2-.61,1.18,1.18,0,0,0-.8-.24,1.23,1.23,0,0,0-.73.17,1.05,1.05,0,0,0-.35.62l-.69-.09a1.69,1.69,0,0,1,.31-.71,1.35,1.35,0,0,1,.62-.42,2.76,2.76,0,0,1,.94-.15,2.51,2.51,0,0,1,.86.13,1.15,1.15,0,0,1,.49.31,1.13,1.13,0,0,1,.22.48,4,4,0,0,1,0,.65v.94a9.69,9.69,0,0,0,0,1.24,1.52,1.52,0,0,0,.18.5h-.73A1.43,1.43,0,0,1,241.21,69.69Zm-.06-1.57a5.18,5.18,0,0,1-1.15.27,2.68,2.68,0,0,0-.61.14.61.61,0,0,0-.16,1,.91.91,0,0,0,.62.19,1.46,1.46,0,0,0,.72-.18,1.09,1.09,0,0,0,.46-.49,1.72,1.72,0,0,0,.11-.7Z"/><path d="M244.49,69.57l.1.62a2.6,2.6,0,0,1-.53.06,1.2,1.2,0,0,1-.59-.12.67.67,0,0,1-.3-.32,2.48,2.48,0,0,1-.09-.83V66.6h-.52v-.55h.52V65l.7-.42v1.45h.71v.55h-.71V69a1.21,1.21,0,0,0,0,.39.28.28,0,0,0,.12.14.46.46,0,0,0,.24.05Z"/><path d="M245.18,65.28v-.81h.7v.81Zm0,4.92V66.05h.7V70.2Z"/><path d="M246.69,68.12a2.14,2.14,0,0,1,.64-1.71,1.93,1.93,0,0,1,1.3-.46,1.86,1.86,0,0,1,1.4.56,2.14,2.14,0,0,1,.54,1.55,2.74,2.74,0,0,1-.24,1.26,1.71,1.71,0,0,1-.7.71,2,2,0,0,1-1,.25,1.86,1.86,0,0,1-1.41-.56A2.23,2.23,0,0,1,246.69,68.12Zm.72,0a1.76,1.76,0,0,0,.35,1.19,1.16,1.16,0,0,0,1.75,0,1.82,1.82,0,0,0,.35-1.21,1.72,1.72,0,0,0-.35-1.17,1.16,1.16,0,0,0-1.74,0A1.76,1.76,0,0,0,247.41,68.12Z"/><path d="M251.4,70.2V66.05H252v.59a1.49,1.49,0,0,1,1.32-.68,1.74,1.74,0,0,1,.69.13,1.1,1.1,0,0,1,.47.35,1.39,1.39,0,0,1,.22.52,4.1,4.1,0,0,1,0,.68V70.2h-.7V67.68A1.89,1.89,0,0,0,254,67a.68.68,0,0,0-.29-.34.93.93,0,0,0-.49-.13,1.13,1.13,0,0,0-.78.29,1.4,1.4,0,0,0-.33,1.08V70.2Z"/><path d="M256,70.2v-.8h.8v.8Z"/></g><g id="caution_text" data-name="caution text"><path d="M80.18,5.2A1.23,1.23,0,0,0,79,4.36a1.12,1.12,0,0,0-1.13.85L69.81,19c-1.06,1.76-.14,2.47.92,2.54H87.24c1.13-.07,2-.78.92-2.54Z" style="fill:#fff"/><path d="M79.58,15.56a.53.53,0,0,1-.49.49H79a.48.48,0,0,1-.49-.49c-1.62-5.15-2.4-8.75.49-8.75S81.13,10.41,79.58,15.56Z"/><path d="M79,21.14A1.55,1.55,0,1,1,79,18h.07a1.51,1.51,0,0,1,1.48,1.55A1.52,1.52,0,0,1,79,21.14Z"/><path d="M111.16,15.65l3.36,1.07a7.54,7.54,0,0,1-2.57,4.18,8.09,8.09,0,0,1-10.19-1,9,9,0,0,1-2.2-6.39,9.39,9.39,0,0,1,2.21-6.66,7.59,7.59,0,0,1,5.82-2.37,7.15,7.15,0,0,1,5.12,1.86,6.78,6.78,0,0,1,1.76,3.16l-3.43.82a3.55,3.55,0,0,0-3.62-2.88,3.91,3.91,0,0,0-3.1,1.37,6.72,6.72,0,0,0-1.19,4.44q0,3.26,1.17,4.64a3.81,3.81,0,0,0,3,1.38,3.47,3.47,0,0,0,2.38-.88A5.11,5.11,0,0,0,111.16,15.65Z" style="fill:#fff"/><path d="M131.69,22h-3.77l-1.5-3.9h-6.87L118.14,22h-3.68l6.69-17.18h3.67Zm-6.39-6.8-2.37-6.37-2.32,6.37Z" style="fill:#fff"/><path d="M132.21,4.78h3.47v9.3a19.3,19.3,0,0,0,.13,2.87,2.78,2.78,0,0,0,1.06,1.69,3.69,3.69,0,0,0,2.29.64,3.5,3.5,0,0,0,2.23-.6,2.38,2.38,0,0,0,.9-1.48,19.33,19.33,0,0,0,.15-2.92V4.78h3.47v9a23.19,23.19,0,0,1-.28,4.37,4.84,4.84,0,0,1-1,2.16,5.24,5.24,0,0,1-2,1.4,8.79,8.79,0,0,1-3.3.52,9.51,9.51,0,0,1-3.73-.57,5.34,5.34,0,0,1-2-1.48,4.73,4.73,0,0,1-1-1.9,20.86,20.86,0,0,1-.34-4.36Z" style="fill:#fff"/><path d="M152.14,22V7.69H147V4.78H160.7V7.69h-5.09V22Z" style="fill:#fff"/><path d="M161.53,22V4.78H165V22Z" style="fill:#fff"/><path d="M166.31,13.48a10.93,10.93,0,0,1,.79-4.41,8.09,8.09,0,0,1,1.6-2.36,6.69,6.69,0,0,1,2.22-1.55,9.43,9.43,0,0,1,3.7-.68,8.07,8.07,0,0,1,6.08,2.36A9,9,0,0,1,183,13.4a9,9,0,0,1-2.26,6.51,8,8,0,0,1-6,2.35,8.09,8.09,0,0,1-6.09-2.34A8.87,8.87,0,0,1,166.31,13.48Zm3.57-.12a6.44,6.44,0,0,0,1.35,4.42,4.63,4.63,0,0,0,6.83,0,6.57,6.57,0,0,0,1.33-4.48,6.46,6.46,0,0,0-1.29-4.41,4.8,4.8,0,0,0-6.9,0A6.49,6.49,0,0,0,169.88,13.36Z" style="fill:#fff"/><path d="M184.42,22V4.78h3.38l7,11.47V4.78H198V22h-3.48l-6.93-11.2V22Z" style="fill:#fff"/></g></svg>