<svg xmlns="http://www.w3.org/2000/svg" viewBox="0 0 262.96 93.86"><title>caution-wtr_dmge_hzrd_tp_vlve_dschrge</title><g id="frame"><polyline points="0.85 26.49 262.18 26.49 262.18 0.56 0.85 0.56"/><rect x="0.5" y="0.5" width="261.96" height="92.86" style="fill:none;stroke:#000;stroke-miterlimit:10"/><path d="M86,66.53" style="fill:none;stroke:#000"/><path d="M86,10.25" style="fill:none;stroke:#000"/><line x1="0.72" y1="46.62" x2="262.39" y2="46.62" style="fill:none;stroke:#000"/></g><g id="text"><path d="M72.46,39.61,70.41,31h1.78l1.29,5.9L75.05,31h2.06l1.51,6,1.32-6h1.75L79.6,39.61H77.76L76,33.19l-1.71,6.42Z"/><path d="M83.34,35.28,81.85,35a2.33,2.33,0,0,1,.87-1.34,3.17,3.17,0,0,1,1.83-.43,3.94,3.94,0,0,1,1.64.26,1.64,1.64,0,0,1,.76.66,3.4,3.4,0,0,1,.22,1.47l0,1.92a6.67,6.67,0,0,0,.08,1.21,3.53,3.53,0,0,0,.3.83H85.89q-.06-.16-.16-.49l-.06-.19a3,3,0,0,1-.9.62,2.58,2.58,0,0,1-1,.21,2.12,2.12,0,0,1-1.51-.52,1.73,1.73,0,0,1-.55-1.32,1.77,1.77,0,0,1,.25-.94,1.65,1.65,0,0,1,.71-.63A5.52,5.52,0,0,1,83.95,36a9,9,0,0,0,1.6-.4v-.16a.85.85,0,0,0-.23-.68,1.4,1.4,0,0,0-.88-.2,1.18,1.18,0,0,0-.69.17A1.2,1.2,0,0,0,83.34,35.28Zm2.2,1.34a10.29,10.29,0,0,1-1,.25,3,3,0,0,0-.9.29.69.69,0,0,0-.32.58.81.81,0,0,0,.26.6.9.9,0,0,0,.66.25,1.43,1.43,0,0,0,.85-.29,1,1,0,0,0,.39-.54,3.25,3.25,0,0,0,.06-.8Z"/><path d="M91.64,33.38V34.7H90.52v2.51a6.24,6.24,0,0,0,0,.89.36.36,0,0,0,.15.21.46.46,0,0,0,.28.08,2.13,2.13,0,0,0,.66-.16l.14,1.28a3.27,3.27,0,0,1-1.3.25,2.06,2.06,0,0,1-.8-.15,1.17,1.17,0,0,1-.52-.39,1.53,1.53,0,0,1-.23-.64,8,8,0,0,1-.05-1.16V34.7h-.76V33.38h.76V32.15l1.65-1v2.2Z"/><path d="M96.39,37.63,98,37.9a2.69,2.69,0,0,1-1,1.37,2.93,2.93,0,0,1-1.71.47,2.78,2.78,0,0,1-2.4-1.06,3.56,3.56,0,0,1-.62-2.14,3.44,3.44,0,0,1,.81-2.42,2.66,2.66,0,0,1,2-.88,2.76,2.76,0,0,1,2.19.92A4.06,4.06,0,0,1,98.12,37H94a1.67,1.67,0,0,0,.4,1.14,1.25,1.25,0,0,0,.95.41,1,1,0,0,0,.65-.21A1.3,1.3,0,0,0,96.39,37.63ZM96.48,36a1.59,1.59,0,0,0-.37-1.09,1.19,1.19,0,0,0-1.75,0A1.52,1.52,0,0,0,94,36Z"/><path d="M101,39.61H99.39V33.38h1.53v.88a2.66,2.66,0,0,1,.71-.83,1.3,1.3,0,0,1,.71-.2,2.09,2.09,0,0,1,1.08.31L102.91,35a1.44,1.44,0,0,0-.77-.27.91.91,0,0,0-.59.19,1.3,1.3,0,0,0-.38.69,9.78,9.78,0,0,0-.14,2.09Z"/><path d="M107.47,31h3.17a6.19,6.19,0,0,1,1.63.16,2.87,2.87,0,0,1,1.29.79,3.75,3.75,0,0,1,.82,1.39,6.34,6.34,0,0,1,.28,2,5.65,5.65,0,0,1-.26,1.83,3.79,3.79,0,0,1-.92,1.52,3,3,0,0,1-1.22.69,5.25,5.25,0,0,1-1.54.18h-3.26Zm1.73,1.45v5.69h1.29a4.73,4.73,0,0,0,1-.08,1.6,1.6,0,0,0,.7-.36,1.82,1.82,0,0,0,.45-.83,5.6,5.6,0,0,0,.18-1.57,5.13,5.13,0,0,0-.18-1.53,2,2,0,0,0-.49-.83,1.65,1.65,0,0,0-.8-.4,7.86,7.86,0,0,0-1.42-.08Z"/><path d="M117.36,35.28,115.86,35a2.33,2.33,0,0,1,.87-1.34,3.17,3.17,0,0,1,1.83-.43,3.94,3.94,0,0,1,1.64.26,1.64,1.64,0,0,1,.76.66,3.4,3.4,0,0,1,.22,1.47l0,1.92a6.67,6.67,0,0,0,.08,1.21,3.53,3.53,0,0,0,.3.83h-1.63q-.06-.16-.16-.49l-.06-.19a3,3,0,0,1-.9.62,2.58,2.58,0,0,1-1,.21,2.12,2.12,0,0,1-1.51-.52,1.73,1.73,0,0,1-.55-1.32,1.77,1.77,0,0,1,.25-.94,1.65,1.65,0,0,1,.71-.63A5.52,5.52,0,0,1,118,36a9,9,0,0,0,1.6-.4v-.16a.85.85,0,0,0-.23-.68,1.4,1.4,0,0,0-.88-.2,1.18,1.18,0,0,0-.69.17A1.2,1.2,0,0,0,117.36,35.28Zm2.2,1.34a10.29,10.29,0,0,1-1,.25,3,3,0,0,0-.9.29.69.69,0,0,0-.32.58.81.81,0,0,0,.26.6.9.9,0,0,0,.66.25,1.43,1.43,0,0,0,.85-.29,1,1,0,0,0,.39-.54,3.25,3.25,0,0,0,.06-.8Z"/><path d="M122.68,33.38h1.52v.85a2.44,2.44,0,0,1,1.94-1,2.09,2.09,0,0,1,1,.25,1.89,1.89,0,0,1,.72.74,2.87,2.87,0,0,1,.88-.74,2.17,2.17,0,0,1,1-.25,2.26,2.26,0,0,1,1.16.28,1.71,1.71,0,0,1,.71.82,3.55,3.55,0,0,1,.17,1.29v4h-1.65V36.05a2.65,2.65,0,0,0-.17-1.2.78.78,0,0,0-.7-.35,1.12,1.12,0,0,0-.65.21,1.17,1.17,0,0,0-.44.62,4.45,4.45,0,0,0-.13,1.29v3h-1.65V36.2a4.73,4.73,0,0,0-.09-1.17.75.75,0,0,0-.27-.39.86.86,0,0,0-.5-.13,1.2,1.2,0,0,0-.69.21,1.12,1.12,0,0,0-.44.59,4.4,4.4,0,0,0-.13,1.28v3h-1.65Z"/><path d="M134.7,35.28,133.21,35a2.33,2.33,0,0,1,.87-1.34,3.17,3.17,0,0,1,1.83-.43,3.94,3.94,0,0,1,1.64.26,1.64,1.64,0,0,1,.76.66,3.4,3.4,0,0,1,.22,1.47l0,1.92a6.67,6.67,0,0,0,.08,1.21,3.53,3.53,0,0,0,.3.83h-1.63q-.06-.16-.16-.49l-.06-.19a3,3,0,0,1-.9.62,2.58,2.58,0,0,1-1,.21,2.12,2.12,0,0,1-1.51-.52,1.73,1.73,0,0,1-.55-1.32,1.77,1.77,0,0,1,.25-.94,1.65,1.65,0,0,1,.71-.63A5.51,5.51,0,0,1,135.3,36a9,9,0,0,0,1.6-.4v-.16a.85.85,0,0,0-.23-.68,1.4,1.4,0,0,0-.88-.2,1.18,1.18,0,0,0-.69.17A1.2,1.2,0,0,0,134.7,35.28Zm2.2,1.34a10.29,10.29,0,0,1-1,.25,3,3,0,0,0-.9.29.69.69,0,0,0-.32.58.81.81,0,0,0,.26.6.9.9,0,0,0,.66.25,1.43,1.43,0,0,0,.85-.29,1,1,0,0,0,.39-.54,3.25,3.25,0,0,0,.06-.8Z"/><path d="M140,40l1.88.23a.64.64,0,0,0,.22.45,1.24,1.24,0,0,0,.74.18,1.92,1.92,0,0,0,1-.19.8.8,0,0,0,.33-.42,2.5,2.5,0,0,0,.08-.76V38.6a2.23,2.23,0,0,1-1.86,1,2.29,2.29,0,0,1-2-1.06,3.6,3.6,0,0,1-.57-2.09,3.43,3.43,0,0,1,.75-2.39,2.43,2.43,0,0,1,1.87-.83,2.28,2.28,0,0,1,1.9,1v-.87h1.54V39a5.56,5.56,0,0,1-.18,1.65,2,2,0,0,1-.51.86,2.26,2.26,0,0,1-.88.49,4.61,4.61,0,0,1-1.39.18,3.59,3.59,0,0,1-2.24-.54,1.7,1.7,0,0,1-.66-1.37Q140,40.13,140,40Zm1.47-3.65a2.24,2.24,0,0,0,.38,1.45,1.19,1.19,0,0,0,.95.46,1.31,1.31,0,0,0,1-.47,2.06,2.06,0,0,0,.42-1.4,2.18,2.18,0,0,0-.4-1.44,1.27,1.27,0,0,0-1-.47,1.22,1.22,0,0,0-1,.46A2.16,2.16,0,0,0,141.46,36.37Z"/><path d="M151.08,37.63l1.64.28a2.69,2.69,0,0,1-1,1.37,2.93,2.93,0,0,1-1.71.47,2.78,2.78,0,0,1-2.4-1.06,3.56,3.56,0,0,1-.62-2.14,3.44,3.44,0,0,1,.81-2.42,2.66,2.66,0,0,1,2-.88,2.76,2.76,0,0,1,2.19.92,4.06,4.06,0,0,1,.77,2.81h-4.12a1.67,1.67,0,0,0,.4,1.14,1.25,1.25,0,0,0,.95.41,1,1,0,0,0,.65-.21A1.3,1.3,0,0,0,151.08,37.63Zm.09-1.66a1.59,1.59,0,0,0-.37-1.09,1.19,1.19,0,0,0-1.75,0,1.52,1.52,0,0,0-.35,1.07Z"/><path d="M157.5,39.61V31h1.73V34.4h3.4V31h1.73v8.59h-1.73V35.85h-3.4v3.76Z"/><path d="M167.38,35.28,165.88,35a2.33,2.33,0,0,1,.87-1.34,3.17,3.17,0,0,1,1.83-.43,3.94,3.94,0,0,1,1.64.26,1.64,1.64,0,0,1,.76.66,3.4,3.4,0,0,1,.22,1.47l0,1.92a6.67,6.67,0,0,0,.08,1.21,3.53,3.53,0,0,0,.3.83h-1.63q-.06-.16-.16-.49l-.06-.19a3,3,0,0,1-.9.62,2.58,2.58,0,0,1-1,.21,2.12,2.12,0,0,1-1.51-.52,1.73,1.73,0,0,1-.55-1.32A1.77,1.77,0,0,1,166,37a1.65,1.65,0,0,1,.71-.63A5.52,5.52,0,0,1,168,36a9,9,0,0,0,1.6-.4v-.16a.85.85,0,0,0-.23-.68,1.4,1.4,0,0,0-.88-.2,1.18,1.18,0,0,0-.69.17A1.2,1.2,0,0,0,167.38,35.28Zm2.2,1.34a10.29,10.29,0,0,1-1,.25,3,3,0,0,0-.9.29.69.69,0,0,0-.32.58.81.81,0,0,0,.26.6.9.9,0,0,0,.66.25,1.43,1.43,0,0,0,.85-.29,1,1,0,0,0,.39-.54,3.25,3.25,0,0,0,.06-.8Z"/><path d="M172.16,39.61V38.32l2.33-2.68q.57-.66.85-.93l-.76,0h-2.2V33.38h5.14v1.17l-2.38,2.74-.84.91.85,0h2.55v1.45Z"/><path d="M180.05,35.28,178.56,35a2.33,2.33,0,0,1,.87-1.34,3.17,3.17,0,0,1,1.83-.43,3.94,3.94,0,0,1,1.64.26,1.64,1.64,0,0,1,.76.66,3.4,3.4,0,0,1,.22,1.47l0,1.92a6.67,6.67,0,0,0,.08,1.21,3.53,3.53,0,0,0,.3.83H182.6q-.06-.16-.16-.49l-.06-.19a3,3,0,0,1-.9.62,2.58,2.58,0,0,1-1,.21,2.12,2.12,0,0,1-1.51-.52,1.73,1.73,0,0,1-.55-1.32,1.77,1.77,0,0,1,.25-.94,1.65,1.65,0,0,1,.71-.63,5.52,5.52,0,0,1,1.31-.38,9,9,0,0,0,1.6-.4v-.16a.85.85,0,0,0-.23-.68,1.4,1.4,0,0,0-.88-.2,1.18,1.18,0,0,0-.69.17A1.2,1.2,0,0,0,180.05,35.28Zm2.2,1.34a10.29,10.29,0,0,1-1,.25,3,3,0,0,0-.9.29.69.69,0,0,0-.32.58.81.81,0,0,0,.26.6.9.9,0,0,0,.66.25,1.43,1.43,0,0,0,.85-.29,1,1,0,0,0,.39-.54,3.25,3.25,0,0,0,.06-.8Z"/><path d="M187.07,39.61h-1.65V33.38H187v.88a2.66,2.66,0,0,1,.71-.83,1.3,1.3,0,0,1,.71-.2,2.09,2.09,0,0,1,1.08.31L188.95,35a1.44,1.44,0,0,0-.77-.27.91.91,0,0,0-.59.19,1.3,1.3,0,0,0-.38.69,9.78,9.78,0,0,0-.14,2.09Z"/><path d="M195.87,39.61h-1.53v-.91a2.47,2.47,0,0,1-.9.79,2.31,2.31,0,0,1-1,.26,2.37,2.37,0,0,1-1.84-.86,3.52,3.52,0,0,1-.76-2.41,3.47,3.47,0,0,1,.74-2.41,2.43,2.43,0,0,1,1.88-.82,2.33,2.33,0,0,1,1.8.87V31h1.65Zm-4.39-3.25a2.85,2.85,0,0,0,.28,1.44,1.24,1.24,0,0,0,1.11.64,1.21,1.21,0,0,0,1-.48,2.23,2.23,0,0,0,.4-1.44,2.44,2.44,0,0,0-.39-1.54,1.22,1.22,0,0,0-1-.47,1.24,1.24,0,0,0-1,.47A2.1,2.1,0,0,0,191.48,36.36Z"/><path d="M39.33,66.61V60.3H37v-.84h5.67v.84H40.27v6.31Z"/><path d="M45.94,64.94l.91.11a2.22,2.22,0,0,1-.8,1.24A2.7,2.7,0,0,1,42.77,66a2.74,2.74,0,0,1-.67-2,2.87,2.87,0,0,1,.67-2,2.28,2.28,0,0,1,1.75-.72,2.22,2.22,0,0,1,1.7.71,2.81,2.81,0,0,1,.66,2c0,.05,0,.13,0,.23H43a2,2,0,0,0,.48,1.31,1.44,1.44,0,0,0,1.08.45,1.34,1.34,0,0,0,.83-.25A1.68,1.68,0,0,0,45.94,64.94Zm-2.89-1.42H46a1.76,1.76,0,0,0-.33-1A1.35,1.35,0,0,0,44.53,62a1.4,1.4,0,0,0-1,.41A1.6,1.6,0,0,0,43.06,63.52Z"/><path d="M48,66.61V61.42h.79v.73a1.85,1.85,0,0,1,.65-.61,1.82,1.82,0,0,1,.92-.23,1.7,1.7,0,0,1,.94.24,1.28,1.28,0,0,1,.52.67,1.86,1.86,0,0,1,1.6-.91,1.58,1.58,0,0,1,1.19.43A1.83,1.83,0,0,1,55,63.05v3.56h-.87V63.34a2.4,2.4,0,0,0-.09-.76.73.73,0,0,0-.31-.37,1,1,0,0,0-.53-.14,1.23,1.23,0,0,0-.91.36,1.6,1.6,0,0,0-.36,1.16v3H51V63.24a1.48,1.48,0,0,0-.21-.88.81.81,0,0,0-.7-.29,1.28,1.28,0,0,0-.69.2,1.11,1.11,0,0,0-.46.57,3.22,3.22,0,0,0-.14,1.08v2.69Z"/><path d="M56.28,68.6V61.42h.8v.67a2,2,0,0,1,.64-.59,1.76,1.76,0,0,1,.86-.2,2,2,0,0,1,1.17.34,2.1,2.1,0,0,1,.77,1A3.52,3.52,0,0,1,60.79,64a3.47,3.47,0,0,1-.29,1.43,2.17,2.17,0,0,1-2,1.32,1.66,1.66,0,0,1-.79-.19,1.79,1.79,0,0,1-.57-.47V68.6Zm.8-4.55a2.26,2.26,0,0,0,.41,1.48,1.24,1.24,0,0,0,1,.48,1.27,1.27,0,0,0,1-.5A2.35,2.35,0,0,0,59.89,64a2.29,2.29,0,0,0-.41-1.48,1.23,1.23,0,0,0-1-.49,1.26,1.26,0,0,0-1,.52A2.35,2.35,0,0,0,57.08,64Z"/><path d="M65.4,64.94l.91.11a2.22,2.22,0,0,1-.8,1.24A2.7,2.7,0,0,1,62.22,66a2.74,2.74,0,0,1-.67-2,2.87,2.87,0,0,1,.67-2A2.28,2.28,0,0,1,64,61.31a2.22,2.22,0,0,1,1.7.71,2.81,2.81,0,0,1,.66,2c0,.05,0,.13,0,.23H62.46a2,2,0,0,0,.48,1.31A1.44,1.44,0,0,0,64,66a1.34,1.34,0,0,0,.83-.25A1.68,1.68,0,0,0,65.4,64.94Zm-2.89-1.42h2.9a1.76,1.76,0,0,0-.33-1A1.35,1.35,0,0,0,64,62a1.4,1.4,0,0,0-1,.41A1.6,1.6,0,0,0,62.51,63.52Z"/><path d="M67.4,66.61V61.42h.79v.79a2.15,2.15,0,0,1,.56-.73,1,1,0,0,1,.56-.18,1.71,1.71,0,0,1,.9.28l-.3.82a1.26,1.26,0,0,0-.64-.19.84.84,0,0,0-.52.17.93.93,0,0,0-.33.48,3.42,3.42,0,0,0-.15,1v2.71Z"/><path d="M74.12,66a3.26,3.26,0,0,1-.94.59,2.73,2.73,0,0,1-1,.17,1.89,1.89,0,0,1-1.31-.42,1.38,1.38,0,0,1-.46-1.07,1.41,1.41,0,0,1,.17-.7,1.44,1.44,0,0,1,.45-.51,2.14,2.14,0,0,1,.63-.29,6.34,6.34,0,0,1,.78-.13,8,8,0,0,0,1.57-.3c0-.12,0-.2,0-.23a1,1,0,0,0-.25-.76,1.47,1.47,0,0,0-1-.3,1.55,1.55,0,0,0-.92.22,1.33,1.33,0,0,0-.44.77l-.86-.12A2.13,2.13,0,0,1,71,62a1.69,1.69,0,0,1,.78-.52,3.46,3.46,0,0,1,1.18-.18,3.12,3.12,0,0,1,1.08.16,1.42,1.42,0,0,1,.61.39,1.38,1.38,0,0,1,.27.6,5,5,0,0,1,0,.81v1.17A12.55,12.55,0,0,0,75,66a2,2,0,0,0,.22.62H74.3A1.88,1.88,0,0,1,74.12,66ZM74,64a6.46,6.46,0,0,1-1.44.33,3.33,3.33,0,0,0-.77.18.76.76,0,0,0-.35.29.78.78,0,0,0,.14,1,1.15,1.15,0,0,0,.78.23,1.81,1.81,0,0,0,.9-.22,1.37,1.37,0,0,0,.58-.61,2.12,2.12,0,0,0,.14-.88Z"/><path d="M78.22,65.82l.13.78a3.25,3.25,0,0,1-.66.08,1.5,1.5,0,0,1-.74-.15.85.85,0,0,1-.37-.4,3.16,3.16,0,0,1-.11-1v-3h-.64v-.68h.64V60.14l.87-.53v1.81h.88v.68h-.88v3a1.56,1.56,0,0,0,0,.48.37.37,0,0,0,.15.17.58.58,0,0,0,.3.06Z"/><path d="M82.48,66.61v-.76a1.9,1.9,0,0,1-1.65.88,2.1,2.1,0,0,1-.86-.18,1.41,1.41,0,0,1-.59-.44,1.64,1.64,0,0,1-.27-.65,4.43,4.43,0,0,1-.05-.82V61.42h.88V64.3a5.1,5.1,0,0,0,.05.93.92.92,0,0,0,.35.54A1.09,1.09,0,0,0,81,66a1.45,1.45,0,0,0,.74-.2,1.12,1.12,0,0,0,.49-.55,2.75,2.75,0,0,0,.14-1V61.42h.88v5.19Z"/><path d="M84.63,66.61V61.42h.79v.79a2.14,2.14,0,0,1,.56-.73,1,1,0,0,1,.56-.18,1.71,1.71,0,0,1,.9.28l-.3.82a1.26,1.26,0,0,0-.64-.19.84.84,0,0,0-.52.17.94.94,0,0,0-.33.48,3.42,3.42,0,0,0-.15,1v2.71Z"/><path d="M91.52,64.94l.91.11a2.22,2.22,0,0,1-.8,1.24,2.39,2.39,0,0,1-1.48.44,2.37,2.37,0,0,1-1.8-.7,2.73,2.73,0,0,1-.67-2,2.87,2.87,0,0,1,.67-2,2.28,2.28,0,0,1,1.75-.72,2.22,2.22,0,0,1,1.7.71,2.81,2.81,0,0,1,.66,2c0,.05,0,.13,0,.23H88.58a2,2,0,0,0,.48,1.31,1.44,1.44,0,0,0,1.08.45,1.34,1.34,0,0,0,.83-.25A1.69,1.69,0,0,0,91.52,64.94Zm-2.89-1.42h2.9a1.76,1.76,0,0,0-.33-1A1.35,1.35,0,0,0,90.11,62a1.4,1.4,0,0,0-1,.41A1.61,1.61,0,0,0,88.63,63.52Z"/><path d="M93.19,64.46v-.88h2.7v.88Z"/><path d="M97,66.61V59.45h2.7a6.54,6.54,0,0,1,1.09.07,2.15,2.15,0,0,1,.88.33,1.75,1.75,0,0,1,.57.69,2.33,2.33,0,0,1-.36,2.52,2.79,2.79,0,0,1-2.1.63H97.92v2.91Zm.95-3.75h1.85a2,2,0,0,0,1.3-.34,1.22,1.22,0,0,0,.39-1,1.29,1.29,0,0,0-.23-.77,1.06,1.06,0,0,0-.6-.42,4,4,0,0,0-.88-.06H97.92Z"/><path d="M103.52,66.61V61.42h.79v.79a2.14,2.14,0,0,1,.56-.73,1,1,0,0,1,.56-.18,1.71,1.71,0,0,1,.9.28l-.3.82a1.26,1.26,0,0,0-.64-.19.84.84,0,0,0-.52.17.94.94,0,0,0-.33.48,3.42,3.42,0,0,0-.15,1v2.71Z"/><path d="M110.41,64.94l.91.11a2.22,2.22,0,0,1-.8,1.24,2.39,2.39,0,0,1-1.48.44,2.37,2.37,0,0,1-1.8-.7,2.73,2.73,0,0,1-.67-2,2.87,2.87,0,0,1,.67-2,2.28,2.28,0,0,1,1.75-.72,2.22,2.22,0,0,1,1.7.71,2.81,2.81,0,0,1,.66,2c0,.05,0,.13,0,.23h-3.87a2,2,0,0,0,.48,1.31A1.44,1.44,0,0,0,109,66a1.34,1.34,0,0,0,.83-.25A1.69,1.69,0,0,0,110.41,64.94Zm-2.89-1.42h2.9a1.76,1.76,0,0,0-.33-1A1.35,1.35,0,0,0,109,62a1.4,1.4,0,0,0-1,.41A1.61,1.61,0,0,0,107.52,63.52Z"/><path d="M112.07,65.06l.87-.14a1.22,1.22,0,0,0,.41.8,1.42,1.42,0,0,0,.94.28,1.37,1.37,0,0,0,.9-.25.74.74,0,0,0,.29-.58.53.53,0,0,0-.26-.47,3.81,3.81,0,0,0-.9-.3A8.24,8.24,0,0,1,113,64a1.28,1.28,0,0,1-.76-1.19,1.33,1.33,0,0,1,.16-.64,1.42,1.42,0,0,1,.43-.49,1.81,1.81,0,0,1,.56-.26,2.67,2.67,0,0,1,.76-.1,3,3,0,0,1,1.07.18,1.46,1.46,0,0,1,.68.48,1.86,1.86,0,0,1,.3.8l-.86.12a.94.94,0,0,0-.34-.62,1.24,1.24,0,0,0-.79-.22,1.44,1.44,0,0,0-.86.2.58.58,0,0,0-.26.47.49.49,0,0,0,.11.31.77.77,0,0,0,.34.23l.78.22a10.79,10.79,0,0,1,1.3.41,1.32,1.32,0,0,1,.58.46,1.29,1.29,0,0,1,.21.75,1.47,1.47,0,0,1-.26.83,1.65,1.65,0,0,1-.74.6,2.69,2.69,0,0,1-1.09.21,2.43,2.43,0,0,1-1.54-.42A2,2,0,0,1,112.07,65.06Z"/><path d="M117.07,65.06l.87-.14a1.22,1.22,0,0,0,.41.8,1.42,1.42,0,0,0,.94.28,1.37,1.37,0,0,0,.9-.25.74.74,0,0,0,.29-.58.53.53,0,0,0-.26-.47,3.81,3.81,0,0,0-.9-.3A8.24,8.24,0,0,1,118,64a1.28,1.28,0,0,1-.76-1.19,1.33,1.33,0,0,1,.16-.64,1.42,1.42,0,0,1,.43-.49,1.81,1.81,0,0,1,.56-.26,2.67,2.67,0,0,1,.76-.1,3,3,0,0,1,1.07.18,1.46,1.46,0,0,1,.68.48,1.86,1.86,0,0,1,.3.8l-.86.12a.94.94,0,0,0-.34-.62,1.24,1.24,0,0,0-.79-.22,1.44,1.44,0,0,0-.86.2.58.58,0,0,0-.26.47.49.49,0,0,0,.11.31.77.77,0,0,0,.34.23l.78.22a10.79,10.79,0,0,1,1.3.41,1.32,1.32,0,0,1,.58.46,1.29,1.29,0,0,1,.21.75,1.47,1.47,0,0,1-.26.83,1.65,1.65,0,0,1-.74.6,2.69,2.69,0,0,1-1.09.21,2.43,2.43,0,0,1-1.54-.42A2,2,0,0,1,117.07,65.06Z"/><path d="M125.82,66.61v-.76a1.9,1.9,0,0,1-1.65.88,2.1,2.1,0,0,1-.86-.18,1.41,1.41,0,0,1-.59-.44,1.64,1.64,0,0,1-.27-.65,4.43,4.43,0,0,1-.05-.82V61.42h.88V64.3a5.1,5.1,0,0,0,.05.93.92.92,0,0,0,.35.54,1.09,1.09,0,0,0,.66.2,1.45,1.45,0,0,0,.74-.2,1.12,1.12,0,0,0,.49-.55,2.75,2.75,0,0,0,.14-1V61.42h.88v5.19Z"/><path d="M128,66.61V61.42h.79v.79a2.14,2.14,0,0,1,.56-.73,1,1,0,0,1,.56-.18,1.71,1.71,0,0,1,.9.28l-.3.82a1.26,1.26,0,0,0-.64-.19.84.84,0,0,0-.52.17.94.94,0,0,0-.33.48,3.42,3.42,0,0,0-.15,1v2.71Z"/><path d="M134.86,64.94l.91.11a2.22,2.22,0,0,1-.8,1.24,2.39,2.39,0,0,1-1.48.44,2.37,2.37,0,0,1-1.8-.7,2.73,2.73,0,0,1-.67-2,2.87,2.87,0,0,1,.67-2,2.28,2.28,0,0,1,1.75-.72,2.22,2.22,0,0,1,1.7.71,2.81,2.81,0,0,1,.66,2c0,.05,0,.13,0,.23h-3.87a2,2,0,0,0,.48,1.31,1.44,1.44,0,0,0,1.08.45,1.34,1.34,0,0,0,.83-.25A1.69,1.69,0,0,0,134.86,64.94ZM132,63.52h2.9a1.76,1.76,0,0,0-.33-1,1.35,1.35,0,0,0-1.09-.51,1.4,1.4,0,0,0-1,.41A1.61,1.61,0,0,0,132,63.52Z"/><path d="M139.78,66.61V59.45H143a4.23,4.23,0,0,1,1.46.19,1.59,1.59,0,0,1,.8.68,2,2,0,0,1,.3,1.08,1.8,1.8,0,0,1-.49,1.28,2.5,2.5,0,0,1-1.52.66,2.45,2.45,0,0,1,.57.36,4.92,4.92,0,0,1,.79,1l1.25,1.95H144.9L144,65.12q-.41-.64-.68-1a2.12,2.12,0,0,0-.48-.48,1.4,1.4,0,0,0-.43-.19,2.83,2.83,0,0,0-.53,0h-1.1v3.18Zm.95-4h2a3.06,3.06,0,0,0,1-.13,1.08,1.08,0,0,0,.56-.43,1.16,1.16,0,0,0,.19-.64,1.07,1.07,0,0,0-.37-.83,1.73,1.73,0,0,0-1.17-.33h-2.27Z"/><path d="M150.42,64.94l.91.11a2.22,2.22,0,0,1-.8,1.24,2.39,2.39,0,0,1-1.48.44,2.37,2.37,0,0,1-1.8-.7,2.73,2.73,0,0,1-.67-2,2.87,2.87,0,0,1,.67-2,2.28,2.28,0,0,1,1.75-.72,2.22,2.22,0,0,1,1.7.71,2.81,2.81,0,0,1,.66,2c0,.05,0,.13,0,.23h-3.87a2,2,0,0,0,.48,1.31,1.44,1.44,0,0,0,1.08.45,1.34,1.34,0,0,0,.83-.25A1.69,1.69,0,0,0,150.42,64.94Zm-2.89-1.42h2.9a1.76,1.76,0,0,0-.33-1A1.35,1.35,0,0,0,149,62a1.4,1.4,0,0,0-1,.41A1.61,1.61,0,0,0,147.54,63.52Z"/><path d="M152.42,66.61V59.45h.88v7.16Z"/><path d="M154.66,60.46v-1h.88v1Zm0,6.15V61.42h.88v5.19Z"/><path d="M160.43,64.94l.91.11a2.22,2.22,0,0,1-.8,1.24,2.39,2.39,0,0,1-1.48.44,2.37,2.37,0,0,1-1.8-.7,2.73,2.73,0,0,1-.67-2,2.87,2.87,0,0,1,.67-2,2.28,2.28,0,0,1,1.75-.72,2.22,2.22,0,0,1,1.7.71,2.81,2.81,0,0,1,.66,2c0,.05,0,.13,0,.23H157.5a2,2,0,0,0,.48,1.31,1.44,1.44,0,0,0,1.08.45,1.34,1.34,0,0,0,.83-.25A1.69,1.69,0,0,0,160.43,64.94Zm-2.89-1.42h2.9a1.76,1.76,0,0,0-.33-1A1.35,1.35,0,0,0,159,62a1.4,1.4,0,0,0-1,.41A1.61,1.61,0,0,0,157.54,63.52Z"/><path d="M162.65,66.61v-4.5h-.78v-.68h.78v-.55a2.43,2.43,0,0,1,.09-.78,1.13,1.13,0,0,1,.45-.55,1.61,1.61,0,0,1,.9-.21,4.31,4.31,0,0,1,.82.09l-.13.77a2.93,2.93,0,0,0-.52,0,.77.77,0,0,0-.57.17.93.93,0,0,0-.17.64v.48h1v.68h-1v4.5Z"/><path d="M170.16,66.61l-2.77-7.16h1l1.86,5.2q.22.62.38,1.17.17-.59.39-1.17l1.93-5.2h1l-2.8,7.16Z"/><path d="M177.31,66a3.26,3.26,0,0,1-.94.59,2.73,2.73,0,0,1-1,.17,1.89,1.89,0,0,1-1.31-.42,1.38,1.38,0,0,1-.46-1.07,1.41,1.41,0,0,1,.17-.7,1.44,1.44,0,0,1,.45-.51,2.14,2.14,0,0,1,.63-.29,6.34,6.34,0,0,1,.78-.13,8,8,0,0,0,1.57-.3c0-.12,0-.2,0-.23a1,1,0,0,0-.25-.76,1.47,1.47,0,0,0-1-.3,1.55,1.55,0,0,0-.92.22,1.33,1.33,0,0,0-.44.77l-.86-.12a2.13,2.13,0,0,1,.39-.89,1.69,1.69,0,0,1,.78-.52,3.46,3.46,0,0,1,1.18-.18,3.12,3.12,0,0,1,1.08.16,1.42,1.42,0,0,1,.61.39,1.38,1.38,0,0,1,.27.6,5,5,0,0,1,0,.81v1.17a12.55,12.55,0,0,0,.06,1.55,2,2,0,0,0,.22.62h-.92A1.88,1.88,0,0,1,177.31,66Zm-.07-2a6.46,6.46,0,0,1-1.44.33,3.33,3.33,0,0,0-.77.18.76.76,0,0,0-.35.29.78.78,0,0,0,.14,1,1.15,1.15,0,0,0,.78.23,1.81,1.81,0,0,0,.9-.22,1.37,1.37,0,0,0,.58-.61,2.12,2.12,0,0,0,.14-.88Z"/><path d="M179.47,66.61V59.45h.88v7.16Z"/><path d="M183.15,66.61l-2-5.19h.93l1.11,3.11q.18.5.33,1,.12-.41.33-1L185,61.42h.9l-2,5.19Z"/><path d="M190.26,64.94l.91.11a2.22,2.22,0,0,1-.8,1.24,2.39,2.39,0,0,1-1.48.44,2.37,2.37,0,0,1-1.8-.7,2.73,2.73,0,0,1-.67-2,2.87,2.87,0,0,1,.67-2,2.28,2.28,0,0,1,1.75-.72,2.22,2.22,0,0,1,1.7.71,2.81,2.81,0,0,1,.66,2c0,.05,0,.13,0,.23h-3.87a2,2,0,0,0,.48,1.31,1.44,1.44,0,0,0,1.08.45,1.34,1.34,0,0,0,.83-.25A1.69,1.69,0,0,0,190.26,64.94Zm-2.89-1.42h2.9a1.76,1.76,0,0,0-.33-1,1.35,1.35,0,0,0-1.09-.51,1.4,1.4,0,0,0-1,.41A1.61,1.61,0,0,0,187.37,63.52Z"/><path d="M198.41,66.61V66a1.61,1.61,0,0,1-1.45.77,2,2,0,0,1-1.14-.34,2.25,2.25,0,0,1-.81-1,3.31,3.31,0,0,1-.29-1.41,3.68,3.68,0,0,1,.26-1.41,2,2,0,0,1,.78-1,2.07,2.07,0,0,1,1.16-.34,1.73,1.73,0,0,1,.83.2,1.75,1.75,0,0,1,.6.52V59.45h.87v7.16ZM195.63,64a2.25,2.25,0,0,0,.42,1.49,1.27,1.27,0,0,0,1,.49,1.24,1.24,0,0,0,1-.47,2.17,2.17,0,0,0,.4-1.44,2.44,2.44,0,0,0-.41-1.56,1.26,1.26,0,0,0-1-.5,1.22,1.22,0,0,0-1,.48A2.36,2.36,0,0,0,195.63,64Z"/><path d="M200.62,60.46v-1h.88v1Zm0,6.15V61.42h.88v5.19Z"/><path d="M202.48,65.06l.87-.14a1.22,1.22,0,0,0,.41.8,1.42,1.42,0,0,0,.94.28,1.37,1.37,0,0,0,.9-.25.74.74,0,0,0,.29-.58.53.53,0,0,0-.26-.47,3.81,3.81,0,0,0-.9-.3,8.24,8.24,0,0,1-1.34-.42,1.28,1.28,0,0,1-.76-1.19,1.33,1.33,0,0,1,.16-.64,1.42,1.42,0,0,1,.43-.49,1.81,1.81,0,0,1,.56-.26,2.67,2.67,0,0,1,.76-.1,3,3,0,0,1,1.07.18,1.46,1.46,0,0,1,.68.48,1.86,1.86,0,0,1,.3.8l-.86.12a.94.94,0,0,0-.34-.62,1.24,1.24,0,0,0-.79-.22,1.44,1.44,0,0,0-.86.2.58.58,0,0,0-.26.47.49.49,0,0,0,.11.31.77.77,0,0,0,.34.23l.78.22a10.79,10.79,0,0,1,1.3.41,1.32,1.32,0,0,1,.58.46,1.29,1.29,0,0,1,.21.75,1.47,1.47,0,0,1-.26.83,1.65,1.65,0,0,1-.74.6,2.69,2.69,0,0,1-1.09.21,2.43,2.43,0,0,1-1.54-.42A2,2,0,0,1,202.48,65.06Z"/><path d="M211.22,64.71l.86.11a2.24,2.24,0,0,1-.73,1.4,2.11,2.11,0,0,1-1.43.51,2.23,2.23,0,0,1-1.71-.7,2.83,2.83,0,0,1-.65-2,3.61,3.61,0,0,1,.28-1.47,1.94,1.94,0,0,1,.85-.94,2.52,2.52,0,0,1,1.24-.31,2.15,2.15,0,0,1,1.38.43,2,2,0,0,1,.69,1.21l-.85.13a1.42,1.42,0,0,0-.43-.79A1.12,1.12,0,0,0,210,62a1.36,1.36,0,0,0-1.08.48,2.26,2.26,0,0,0-.42,1.51,2.34,2.34,0,0,0,.4,1.52,1.3,1.3,0,0,0,1,.47,1.23,1.23,0,0,0,.86-.32A1.57,1.57,0,0,0,211.22,64.71Z"/><path d="M212.83,66.61V59.45h.88V62a2,2,0,0,1,1.55-.71,2.09,2.09,0,0,1,1,.23,1.33,1.33,0,0,1,.61.63,2.87,2.87,0,0,1,.18,1.16v3.29h-.88V63.32a1.36,1.36,0,0,0-.29-1,1.06,1.06,0,0,0-.81-.3,1.42,1.42,0,0,0-.73.2,1.14,1.14,0,0,0-.49.55,2.52,2.52,0,0,0-.15,1v2.84Z"/><path d="M221.78,66a3.26,3.26,0,0,1-.94.59,2.73,2.73,0,0,1-1,.17,1.89,1.89,0,0,1-1.31-.42,1.38,1.38,0,0,1-.46-1.07,1.41,1.41,0,0,1,.17-.7,1.44,1.44,0,0,1,.45-.51,2.14,2.14,0,0,1,.63-.29,6.34,6.34,0,0,1,.78-.13,8,8,0,0,0,1.57-.3c0-.12,0-.2,0-.23a1,1,0,0,0-.25-.76,1.47,1.47,0,0,0-1-.3,1.55,1.55,0,0,0-.92.22,1.33,1.33,0,0,0-.44.77l-.86-.12a2.13,2.13,0,0,1,.39-.89,1.69,1.69,0,0,1,.78-.52,3.46,3.46,0,0,1,1.18-.18,3.12,3.12,0,0,1,1.08.16,1.42,1.42,0,0,1,.61.39,1.38,1.38,0,0,1,.27.6,5,5,0,0,1,0,.81v1.17a12.55,12.55,0,0,0,.06,1.55,2,2,0,0,0,.22.62H222A1.88,1.88,0,0,1,221.78,66Zm-.07-2a6.46,6.46,0,0,1-1.44.33,3.33,3.33,0,0,0-.77.18.76.76,0,0,0-.35.29.78.78,0,0,0,.14,1,1.15,1.15,0,0,0,.78.23,1.81,1.81,0,0,0,.9-.22,1.37,1.37,0,0,0,.58-.61,2.12,2.12,0,0,0,.14-.88Z"/><path d="M223.95,66.61V61.42h.79v.79a2.14,2.14,0,0,1,.56-.73,1,1,0,0,1,.56-.18,1.71,1.71,0,0,1,.9.28l-.3.82a1.26,1.26,0,0,0-.64-.19.84.84,0,0,0-.52.17.94.94,0,0,0-.33.48,3.42,3.42,0,0,0-.15,1v2.71Z"/><path d="M227.12,67l.85.13a.81.81,0,0,0,.3.58,1.46,1.46,0,0,0,.89.24,1.57,1.57,0,0,0,.94-.24,1.2,1.2,0,0,0,.45-.68,5.62,5.62,0,0,0,.06-1.13,1.81,1.81,0,0,1-1.44.68,2,2,0,0,1-1.66-.77,3,3,0,0,1-.59-1.85,3.45,3.45,0,0,1,.27-1.37,2.15,2.15,0,0,1,.78-1,2.1,2.1,0,0,1,1.2-.34,1.86,1.86,0,0,1,1.51.74v-.62h.81v4.48a4.26,4.26,0,0,1-.25,1.72,1.81,1.81,0,0,1-.78.8,2.71,2.71,0,0,1-1.32.29,2.48,2.48,0,0,1-1.5-.42A1.41,1.41,0,0,1,227.12,67Zm.73-3.12a2.25,2.25,0,0,0,.41,1.49,1.34,1.34,0,0,0,2,0A2.18,2.18,0,0,0,230.7,64a2.13,2.13,0,0,0-.42-1.44,1.31,1.31,0,0,0-1-.48,1.27,1.27,0,0,0-1,.48A2.11,2.11,0,0,0,227.85,63.92Z"/><path d="M236.4,64.94l.91.11a2.22,2.22,0,0,1-.8,1.24,2.39,2.39,0,0,1-1.48.44,2.37,2.37,0,0,1-1.8-.7,2.73,2.73,0,0,1-.67-2,2.87,2.87,0,0,1,.67-2,2.28,2.28,0,0,1,1.75-.72,2.22,2.22,0,0,1,1.7.71,2.81,2.81,0,0,1,.66,2c0,.05,0,.13,0,.23h-3.87a2,2,0,0,0,.48,1.31A1.44,1.44,0,0,0,235,66a1.34,1.34,0,0,0,.83-.25A1.69,1.69,0,0,0,236.4,64.94Zm-2.89-1.42h2.9a1.76,1.76,0,0,0-.33-1A1.35,1.35,0,0,0,235,62a1.4,1.4,0,0,0-1,.41A1.61,1.61,0,0,0,233.51,63.52Z"/><path d="M37.39,80.6V73.42h.8v.67a2,2,0,0,1,.64-.59,1.76,1.76,0,0,1,.86-.2,2.05,2.05,0,0,1,1.17.34,2.1,2.1,0,0,1,.77,1A3.52,3.52,0,0,1,41.89,76a3.47,3.47,0,0,1-.29,1.43,2.17,2.17,0,0,1-2,1.32,1.65,1.65,0,0,1-.79-.19,1.78,1.78,0,0,1-.57-.47V80.6Zm.8-4.55a2.25,2.25,0,0,0,.41,1.48,1.24,1.24,0,0,0,1,.48,1.27,1.27,0,0,0,1-.5A2.35,2.35,0,0,0,41,76a2.29,2.29,0,0,0-.41-1.48,1.23,1.23,0,0,0-1-.49,1.26,1.26,0,0,0-1,.53A2.35,2.35,0,0,0,38.19,76Z"/><path d="M43,72.46v-1h.88v1Zm0,6.15V73.42h.88v5.19Z"/><path d="M45.18,80.6V73.42H46v.67a2,2,0,0,1,.64-.59,1.76,1.76,0,0,1,.86-.2,2.05,2.05,0,0,1,1.17.34,2.1,2.1,0,0,1,.77,1A3.52,3.52,0,0,1,49.68,76a3.47,3.47,0,0,1-.29,1.43,2.17,2.17,0,0,1-2,1.32,1.65,1.65,0,0,1-.79-.19,1.78,1.78,0,0,1-.57-.47V80.6ZM46,76a2.25,2.25,0,0,0,.41,1.48,1.24,1.24,0,0,0,1,.48,1.27,1.27,0,0,0,1-.5A2.35,2.35,0,0,0,48.78,76a2.29,2.29,0,0,0-.41-1.48,1.23,1.23,0,0,0-1-.49,1.26,1.26,0,0,0-1,.53A2.35,2.35,0,0,0,46,76Z"/><path d="M54.29,76.94l.91.11a2.21,2.21,0,0,1-.8,1.24A2.7,2.7,0,0,1,51.11,78a2.74,2.74,0,0,1-.67-2,2.87,2.87,0,0,1,.67-2,2.28,2.28,0,0,1,1.75-.72,2.22,2.22,0,0,1,1.7.71,2.82,2.82,0,0,1,.66,2c0,.05,0,.13,0,.23H51.35a2,2,0,0,0,.48,1.31,1.44,1.44,0,0,0,1.08.45,1.34,1.34,0,0,0,.83-.25A1.68,1.68,0,0,0,54.29,76.94ZM51.4,75.52h2.9a1.76,1.76,0,0,0-.33-1A1.35,1.35,0,0,0,52.88,74a1.4,1.4,0,0,0-1,.41A1.61,1.61,0,0,0,51.4,75.52Z"/><path d="M59.08,78.61V73.42h.79v.73a1.84,1.84,0,0,1,.65-.61,1.82,1.82,0,0,1,.92-.23,1.71,1.71,0,0,1,.94.24,1.29,1.29,0,0,1,.52.67,1.86,1.86,0,0,1,1.6-.91,1.58,1.58,0,0,1,1.19.43,1.82,1.82,0,0,1,.42,1.32v3.56h-.87V75.34a2.4,2.4,0,0,0-.09-.76.74.74,0,0,0-.31-.37,1,1,0,0,0-.53-.14,1.22,1.22,0,0,0-.91.36A1.6,1.6,0,0,0,63,75.6v3h-.88V75.24a1.48,1.48,0,0,0-.21-.88.81.81,0,0,0-.7-.29,1.28,1.28,0,0,0-.69.2,1.11,1.11,0,0,0-.46.57A3.22,3.22,0,0,0,60,75.92v2.69Z"/><path d="M70.81,78.61v-.76a1.9,1.9,0,0,1-1.65.88,2.09,2.09,0,0,1-.86-.18,1.41,1.41,0,0,1-.59-.44,1.66,1.66,0,0,1-.27-.65,4.47,4.47,0,0,1-.05-.82V73.42h.88V76.3a5.09,5.09,0,0,0,.05.93.92.92,0,0,0,.35.54,1.09,1.09,0,0,0,.66.2,1.45,1.45,0,0,0,.74-.2,1.13,1.13,0,0,0,.49-.55,2.76,2.76,0,0,0,.14-1V73.42h.88v5.19Z"/><path d="M72.62,77.06l.87-.14a1.22,1.22,0,0,0,.41.8,1.42,1.42,0,0,0,.94.28,1.38,1.38,0,0,0,.9-.25.74.74,0,0,0,.29-.58.53.53,0,0,0-.26-.47,3.84,3.84,0,0,0-.9-.3A8.25,8.25,0,0,1,73.52,76a1.28,1.28,0,0,1-.76-1.19,1.33,1.33,0,0,1,.16-.64,1.42,1.42,0,0,1,.43-.49,1.81,1.81,0,0,1,.56-.26,2.65,2.65,0,0,1,.76-.11,3,3,0,0,1,1.07.18,1.46,1.46,0,0,1,.68.48,1.86,1.86,0,0,1,.3.8l-.86.12a.94.94,0,0,0-.34-.62,1.25,1.25,0,0,0-.79-.22,1.44,1.44,0,0,0-.86.2.58.58,0,0,0-.26.47.49.49,0,0,0,.11.31.77.77,0,0,0,.34.23l.78.22a10.68,10.68,0,0,1,1.3.41,1.32,1.32,0,0,1,.58.46,1.29,1.29,0,0,1,.21.75,1.47,1.47,0,0,1-.26.83,1.65,1.65,0,0,1-.74.6,2.69,2.69,0,0,1-1.09.21,2.43,2.43,0,0,1-1.54-.42A2,2,0,0,1,72.62,77.06Z"/><path d="M79.89,77.82l.13.78a3.21,3.21,0,0,1-.66.08,1.5,1.5,0,0,1-.74-.15.84.84,0,0,1-.37-.4,3.16,3.16,0,0,1-.11-1v-3h-.64v-.68h.64V72.14l.87-.53v1.81h.88v.68H79v3a1.55,1.55,0,0,0,0,.48.36.36,0,0,0,.15.17.58.58,0,0,0,.3.06Z"/><path d="M85.44,77.82l.13.78a3.21,3.21,0,0,1-.66.08,1.5,1.5,0,0,1-.74-.15.84.84,0,0,1-.37-.4,3.16,3.16,0,0,1-.11-1v-3H83v-.68h.64V72.14l.87-.53v1.81h.88v.68h-.88v3a1.55,1.55,0,0,0,0,.48.36.36,0,0,0,.15.17.58.58,0,0,0,.3.06Z"/><path d="M89.85,76.94l.91.11a2.21,2.21,0,0,1-.8,1.24A2.7,2.7,0,0,1,86.68,78a2.74,2.74,0,0,1-.67-2,2.87,2.87,0,0,1,.67-2,2.28,2.28,0,0,1,1.75-.72,2.22,2.22,0,0,1,1.7.71,2.82,2.82,0,0,1,.66,2c0,.05,0,.13,0,.23H86.92a2,2,0,0,0,.48,1.31,1.44,1.44,0,0,0,1.08.45,1.34,1.34,0,0,0,.83-.25A1.69,1.69,0,0,0,89.85,76.94ZM87,75.52h2.9a1.76,1.76,0,0,0-.33-1A1.35,1.35,0,0,0,88.44,74a1.4,1.4,0,0,0-1,.41A1.61,1.61,0,0,0,87,75.52Z"/><path d="M91.86,78.61V73.42h.79v.79a2.14,2.14,0,0,1,.56-.73,1,1,0,0,1,.56-.18,1.72,1.72,0,0,1,.9.28l-.3.82a1.26,1.26,0,0,0-.64-.19.83.83,0,0,0-.52.17.94.94,0,0,0-.33.48,3.42,3.42,0,0,0-.15,1v2.71Z"/><path d="M95.19,78.61V73.42H96v.73a1.84,1.84,0,0,1,.65-.61,1.82,1.82,0,0,1,.92-.23,1.71,1.71,0,0,1,.95.24,1.29,1.29,0,0,1,.52.67,1.86,1.86,0,0,1,1.6-.91,1.58,1.58,0,0,1,1.19.43,1.83,1.83,0,0,1,.42,1.32v3.56h-.87V75.34a2.41,2.41,0,0,0-.08-.76.74.74,0,0,0-.31-.37,1,1,0,0,0-.53-.14,1.23,1.23,0,0,0-.91.36,1.6,1.6,0,0,0-.36,1.16v3h-.88V75.24a1.48,1.48,0,0,0-.21-.88.81.81,0,0,0-.7-.29,1.28,1.28,0,0,0-.69.2,1.11,1.11,0,0,0-.46.57,3.21,3.21,0,0,0-.14,1.08v2.69Z"/><path d="M103.53,72.46v-1h.88v1Zm0,6.15V73.42h.88v5.19Z"/><path d="M105.75,78.61V73.42h.79v.74a1.86,1.86,0,0,1,1.65-.85,2.17,2.17,0,0,1,.86.17,1.36,1.36,0,0,1,.59.44,1.7,1.7,0,0,1,.27.65,5.08,5.08,0,0,1,0,.85v3.19h-.88V75.46a2.36,2.36,0,0,0-.1-.8.84.84,0,0,0-.36-.42,1.15,1.15,0,0,0-.61-.16,1.43,1.43,0,0,0-1,.36,1.76,1.76,0,0,0-.41,1.35v2.83Z"/><path d="M114.69,78a3.24,3.24,0,0,1-.94.59,2.72,2.72,0,0,1-1,.17,1.89,1.89,0,0,1-1.31-.42,1.38,1.38,0,0,1-.46-1.07,1.41,1.41,0,0,1,.17-.7,1.44,1.44,0,0,1,.45-.51,2.15,2.15,0,0,1,.63-.29,6.54,6.54,0,0,1,.78-.13,8,8,0,0,0,1.57-.3c0-.12,0-.2,0-.23a1,1,0,0,0-.25-.76,1.47,1.47,0,0,0-1-.3,1.55,1.55,0,0,0-.92.22A1.33,1.33,0,0,0,112,75l-.86-.12a2.13,2.13,0,0,1,.39-.89,1.68,1.68,0,0,1,.78-.52,3.46,3.46,0,0,1,1.18-.18,3.13,3.13,0,0,1,1.08.16,1.42,1.42,0,0,1,.61.39,1.38,1.38,0,0,1,.27.6,5,5,0,0,1,0,.81v1.17a12.56,12.56,0,0,0,.06,1.55,2,2,0,0,0,.22.62h-.92A1.87,1.87,0,0,1,114.69,78Zm-.07-2a6.4,6.4,0,0,1-1.44.33,3.39,3.39,0,0,0-.77.18.76.76,0,0,0-.35.29.78.78,0,0,0,.14,1A1.15,1.15,0,0,0,113,78a1.82,1.82,0,0,0,.9-.22,1.37,1.37,0,0,0,.58-.61,2.12,2.12,0,0,0,.14-.88Z"/><path d="M118.79,77.82l.13.78a3.21,3.21,0,0,1-.66.08,1.5,1.5,0,0,1-.74-.15.84.84,0,0,1-.37-.4,3.16,3.16,0,0,1-.11-1v-3h-.64v-.68H117V72.14l.87-.53v1.81h.88v.68h-.88v3a1.55,1.55,0,0,0,0,.48.36.36,0,0,0,.15.17.58.58,0,0,0,.3.06Z"/><path d="M123.2,76.94l.91.11a2.21,2.21,0,0,1-.8,1.24A2.7,2.7,0,0,1,120,78a2.74,2.74,0,0,1-.67-2,2.87,2.87,0,0,1,.67-2,2.28,2.28,0,0,1,1.75-.72,2.22,2.22,0,0,1,1.7.71,2.82,2.82,0,0,1,.66,2c0,.05,0,.13,0,.23h-3.87a2,2,0,0,0,.48,1.31,1.44,1.44,0,0,0,1.08.45,1.34,1.34,0,0,0,.83-.25A1.69,1.69,0,0,0,123.2,76.94Zm-2.89-1.42h2.9a1.76,1.76,0,0,0-.33-1,1.35,1.35,0,0,0-1.09-.51,1.4,1.4,0,0,0-1,.41A1.61,1.61,0,0,0,120.31,75.52Z"/><path d="M131.37,78a3.24,3.24,0,0,1-.94.59,2.72,2.72,0,0,1-1,.17,1.89,1.89,0,0,1-1.31-.42,1.38,1.38,0,0,1-.46-1.07,1.41,1.41,0,0,1,.17-.7,1.44,1.44,0,0,1,.45-.51,2.15,2.15,0,0,1,.63-.29,6.54,6.54,0,0,1,.78-.13,8,8,0,0,0,1.57-.3c0-.12,0-.2,0-.23a1,1,0,0,0-.25-.76,1.47,1.47,0,0,0-1-.3,1.55,1.55,0,0,0-.92.22,1.33,1.33,0,0,0-.44.77l-.86-.12a2.13,2.13,0,0,1,.39-.89,1.68,1.68,0,0,1,.78-.52,3.46,3.46,0,0,1,1.18-.18,3.13,3.13,0,0,1,1.08.16,1.42,1.42,0,0,1,.61.39,1.38,1.38,0,0,1,.27.6,5,5,0,0,1,0,.81v1.17a12.56,12.56,0,0,0,.06,1.55,2,2,0,0,0,.22.62h-.92A1.87,1.87,0,0,1,131.37,78Zm-.07-2a6.4,6.4,0,0,1-1.44.33,3.39,3.39,0,0,0-.77.18.76.76,0,0,0-.35.29.78.78,0,0,0,.14,1,1.15,1.15,0,0,0,.78.23,1.82,1.82,0,0,0,.9-.22,1.37,1.37,0,0,0,.58-.61,2.12,2.12,0,0,0,.14-.88Z"/><path d="M135.47,77.82l.13.78a3.21,3.21,0,0,1-.66.08,1.5,1.5,0,0,1-.74-.15.84.84,0,0,1-.37-.4,3.16,3.16,0,0,1-.11-1v-3h-.64v-.68h.64V72.14l.87-.53v1.81h.88v.68h-.88v3a1.55,1.55,0,0,0,0,.48.36.36,0,0,0,.15.17.58.58,0,0,0,.3.06Z"/><path d="M142.49,78a3.24,3.24,0,0,1-.94.59,2.72,2.72,0,0,1-1,.17,1.89,1.89,0,0,1-1.31-.42,1.38,1.38,0,0,1-.46-1.07,1.41,1.41,0,0,1,.17-.7,1.44,1.44,0,0,1,.45-.51,2.15,2.15,0,0,1,.63-.29,6.54,6.54,0,0,1,.78-.13,8,8,0,0,0,1.57-.3c0-.12,0-.2,0-.23a1,1,0,0,0-.25-.76,1.47,1.47,0,0,0-1-.3,1.55,1.55,0,0,0-.92.22,1.33,1.33,0,0,0-.44.77L139,74.9a2.13,2.13,0,0,1,.39-.89,1.68,1.68,0,0,1,.78-.52,3.46,3.46,0,0,1,1.18-.18,3.13,3.13,0,0,1,1.08.16,1.42,1.42,0,0,1,.61.39,1.38,1.38,0,0,1,.27.6,5,5,0,0,1,0,.81v1.17a12.56,12.56,0,0,0,.06,1.55,2,2,0,0,0,.22.62h-.92A1.87,1.87,0,0,1,142.49,78Zm-.07-2a6.4,6.4,0,0,1-1.44.33,3.39,3.39,0,0,0-.77.18.76.76,0,0,0-.35.29.78.78,0,0,0,.14,1,1.15,1.15,0,0,0,.78.23,1.82,1.82,0,0,0,.9-.22,1.37,1.37,0,0,0,.58-.61,2.12,2.12,0,0,0,.14-.88Z"/><path d="M148,78.61V78a1.61,1.61,0,0,1-1.45.77,2,2,0,0,1-1.14-.34,2.25,2.25,0,0,1-.81-1,3.32,3.32,0,0,1-.29-1.41,3.68,3.68,0,0,1,.26-1.41,2,2,0,0,1,.78-1,2.07,2.07,0,0,1,1.16-.34,1.73,1.73,0,0,1,.83.2,1.75,1.75,0,0,1,.6.51V71.45h.87v7.16ZM145.25,76a2.25,2.25,0,0,0,.42,1.49,1.27,1.27,0,0,0,1,.49,1.24,1.24,0,0,0,1-.47,2.17,2.17,0,0,0,.4-1.44,2.44,2.44,0,0,0-.41-1.56,1.26,1.26,0,0,0-1-.5,1.22,1.22,0,0,0-1,.48A2.36,2.36,0,0,0,145.25,76Z"/><path d="M153.78,76.94l.91.11a2.21,2.21,0,0,1-.8,1.24A2.7,2.7,0,0,1,150.6,78a2.74,2.74,0,0,1-.67-2,2.87,2.87,0,0,1,.67-2,2.28,2.28,0,0,1,1.75-.72,2.22,2.22,0,0,1,1.7.71,2.82,2.82,0,0,1,.66,2c0,.05,0,.13,0,.23h-3.87a2,2,0,0,0,.48,1.31,1.44,1.44,0,0,0,1.08.45,1.34,1.34,0,0,0,.83-.25A1.69,1.69,0,0,0,153.78,76.94Zm-2.89-1.42h2.9a1.76,1.76,0,0,0-.33-1,1.35,1.35,0,0,0-1.09-.51,1.4,1.4,0,0,0-1,.41A1.61,1.61,0,0,0,150.89,75.52Z"/><path d="M159.1,80.6V78.06a1.57,1.57,0,0,1-.57.48,1.68,1.68,0,0,1-.78.19,2.07,2.07,0,0,1-1.59-.74,2.91,2.91,0,0,1-.67-2,3.45,3.45,0,0,1,.27-1.4,2,2,0,0,1,.79-.94,2.1,2.1,0,0,1,1.13-.32,1.74,1.74,0,0,1,1.51.81v-.69H160V80.6ZM156.39,76a2.29,2.29,0,0,0,.42,1.5,1.27,1.27,0,0,0,1,.5,1.23,1.23,0,0,0,1-.48,2.19,2.19,0,0,0,.41-1.45,2.42,2.42,0,0,0-.43-1.56,1.27,1.27,0,0,0-1-.52,1.21,1.21,0,0,0-1,.49A2.37,2.37,0,0,0,156.39,76Z"/><path d="M164.75,78.61v-.76a1.9,1.9,0,0,1-1.65.88,2.1,2.1,0,0,1-.86-.18,1.41,1.41,0,0,1-.59-.44,1.65,1.65,0,0,1-.27-.65,4.42,4.42,0,0,1-.05-.82V73.42h.88V76.3a5.09,5.09,0,0,0,.05.93.92.92,0,0,0,.35.54,1.09,1.09,0,0,0,.66.2,1.45,1.45,0,0,0,.74-.2,1.13,1.13,0,0,0,.49-.55,2.76,2.76,0,0,0,.14-1V73.42h.88v5.19Z"/><path d="M170.3,78a3.24,3.24,0,0,1-.94.59,2.72,2.72,0,0,1-1,.17,1.89,1.89,0,0,1-1.31-.42,1.38,1.38,0,0,1-.46-1.07,1.41,1.41,0,0,1,.17-.7,1.44,1.44,0,0,1,.45-.51,2.15,2.15,0,0,1,.63-.29,6.54,6.54,0,0,1,.78-.13,8,8,0,0,0,1.57-.3c0-.12,0-.2,0-.23a1,1,0,0,0-.25-.76,1.47,1.47,0,0,0-1-.3,1.55,1.55,0,0,0-.92.22,1.33,1.33,0,0,0-.44.77l-.86-.12a2.13,2.13,0,0,1,.39-.89,1.68,1.68,0,0,1,.78-.52,3.46,3.46,0,0,1,1.18-.18,3.13,3.13,0,0,1,1.08.16,1.42,1.42,0,0,1,.61.39,1.38,1.38,0,0,1,.27.6,5,5,0,0,1,0,.81v1.17a12.56,12.56,0,0,0,.06,1.55,2,2,0,0,0,.22.62h-.92A1.87,1.87,0,0,1,170.3,78Zm-.07-2a6.4,6.4,0,0,1-1.44.33,3.39,3.39,0,0,0-.77.18.76.76,0,0,0-.35.29.78.78,0,0,0,.14,1,1.15,1.15,0,0,0,.78.23,1.82,1.82,0,0,0,.9-.22,1.37,1.37,0,0,0,.58-.61,2.12,2.12,0,0,0,.14-.88Z"/><path d="M174.39,77.82l.13.78a3.21,3.21,0,0,1-.66.08,1.5,1.5,0,0,1-.74-.15.84.84,0,0,1-.37-.4,3.16,3.16,0,0,1-.11-1v-3H172v-.68h.64V72.14l.87-.53v1.81h.88v.68h-.88v3a1.55,1.55,0,0,0,0,.48.36.36,0,0,0,.15.17.58.58,0,0,0,.3.06Z"/><path d="M178.8,76.94l.91.11a2.21,2.21,0,0,1-.8,1.24,2.7,2.7,0,0,1-3.29-.26,2.74,2.74,0,0,1-.67-2,2.87,2.87,0,0,1,.67-2,2.28,2.28,0,0,1,1.75-.72,2.22,2.22,0,0,1,1.7.71,2.82,2.82,0,0,1,.66,2c0,.05,0,.13,0,.23h-3.87a2,2,0,0,0,.48,1.31,1.44,1.44,0,0,0,1.08.45,1.34,1.34,0,0,0,.83-.25A1.69,1.69,0,0,0,178.8,76.94Zm-2.89-1.42h2.9a1.76,1.76,0,0,0-.33-1,1.35,1.35,0,0,0-1.09-.51,1.4,1.4,0,0,0-1,.41A1.61,1.61,0,0,0,175.92,75.52Z"/><path d="M187,78.61V78a1.61,1.61,0,0,1-1.45.77,2,2,0,0,1-1.14-.34,2.25,2.25,0,0,1-.81-1,3.32,3.32,0,0,1-.29-1.41,3.68,3.68,0,0,1,.26-1.41,2,2,0,0,1,.78-1,2.07,2.07,0,0,1,1.16-.34,1.73,1.73,0,0,1,.83.2,1.75,1.75,0,0,1,.6.51V71.45h.87v7.16ZM184.18,76a2.25,2.25,0,0,0,.42,1.49,1.27,1.27,0,0,0,1,.49,1.24,1.24,0,0,0,1-.47,2.17,2.17,0,0,0,.4-1.44,2.44,2.44,0,0,0-.41-1.56,1.26,1.26,0,0,0-1-.5,1.22,1.22,0,0,0-1,.48A2.36,2.36,0,0,0,184.18,76Z"/><path d="M189.15,78.61V73.42h.79v.79a2.14,2.14,0,0,1,.56-.73,1,1,0,0,1,.56-.18,1.72,1.72,0,0,1,.9.28l-.3.82a1.26,1.26,0,0,0-.64-.19.83.83,0,0,0-.52.17.94.94,0,0,0-.33.48,3.42,3.42,0,0,0-.15,1v2.71Z"/><path d="M195.87,78a3.24,3.24,0,0,1-.94.59,2.72,2.72,0,0,1-1,.17,1.89,1.89,0,0,1-1.31-.42,1.38,1.38,0,0,1-.46-1.07,1.41,1.41,0,0,1,.17-.7,1.44,1.44,0,0,1,.45-.51,2.15,2.15,0,0,1,.63-.29,6.54,6.54,0,0,1,.78-.13,8,8,0,0,0,1.57-.3c0-.12,0-.2,0-.23a1,1,0,0,0-.25-.76,1.47,1.47,0,0,0-1-.3,1.55,1.55,0,0,0-.92.22,1.33,1.33,0,0,0-.44.77l-.86-.12a2.13,2.13,0,0,1,.39-.89,1.68,1.68,0,0,1,.78-.52,3.46,3.46,0,0,1,1.18-.18,3.13,3.13,0,0,1,1.08.16,1.42,1.42,0,0,1,.61.39,1.38,1.38,0,0,1,.27.6,5,5,0,0,1,0,.81v1.17a12.56,12.56,0,0,0,.06,1.55,2,2,0,0,0,.22.62H196A1.87,1.87,0,0,1,195.87,78Zm-.07-2a6.4,6.4,0,0,1-1.44.33,3.39,3.39,0,0,0-.77.18.76.76,0,0,0-.35.29.78.78,0,0,0,.14,1,1.15,1.15,0,0,0,.78.23,1.82,1.82,0,0,0,.9-.22,1.37,1.37,0,0,0,.58-.61,2.12,2.12,0,0,0,.14-.88Z"/><path d="M198.05,72.46v-1h.88v1Zm0,6.15V73.42h.88v5.19Z"/><path d="M200.27,78.61V73.42h.79v.74a1.86,1.86,0,0,1,1.65-.85,2.17,2.17,0,0,1,.86.17,1.36,1.36,0,0,1,.59.44,1.7,1.7,0,0,1,.27.65,5.08,5.08,0,0,1,0,.85v3.19h-.88V75.46a2.36,2.36,0,0,0-.1-.8.84.84,0,0,0-.36-.42,1.15,1.15,0,0,0-.61-.16,1.43,1.43,0,0,0-1,.36,1.76,1.76,0,0,0-.41,1.35v2.83Z"/><path d="M206.08,78.61v-1h1v1Z"/><path d="M30.24,63.12a1.73,1.73,0,1,1-.51-1.22A1.67,1.67,0,0,1,30.24,63.12Z"/></g><g id="caution_text" data-name="caution text"><path d="M96.12,15.65l3.36,1.07a7.54,7.54,0,0,1-2.57,4.18,8.09,8.09,0,0,1-10.19-1,9,9,0,0,1-2.2-6.39,9.39,9.39,0,0,1,2.21-6.66,7.59,7.59,0,0,1,5.82-2.37,7.15,7.15,0,0,1,5.12,1.86,6.78,6.78,0,0,1,1.76,3.16L96,10.34a3.55,3.55,0,0,0-3.62-2.88,3.91,3.91,0,0,0-3.1,1.37,6.72,6.72,0,0,0-1.19,4.44q0,3.26,1.17,4.64a3.81,3.81,0,0,0,3,1.38,3.47,3.47,0,0,0,2.38-.88A5.11,5.11,0,0,0,96.12,15.65Z" style="fill:#fff"/><path d="M116.65,22h-3.77l-1.5-3.9h-6.87L103.09,22H99.41L106.1,4.78h3.67Zm-6.39-6.8L107.9,8.79l-2.32,6.37Z" style="fill:#fff"/><path d="M117.17,4.78h3.47v9.3a19.3,19.3,0,0,0,.13,2.87,2.78,2.78,0,0,0,1.06,1.69,3.69,3.69,0,0,0,2.29.64,3.5,3.5,0,0,0,2.23-.6,2.38,2.38,0,0,0,.9-1.48,19.33,19.33,0,0,0,.15-2.92V4.78h3.47v9a23.19,23.19,0,0,1-.28,4.37,4.84,4.84,0,0,1-1,2.16,5.24,5.24,0,0,1-2,1.4,8.79,8.79,0,0,1-3.3.52,9.51,9.51,0,0,1-3.73-.57,5.34,5.34,0,0,1-2-1.48,4.73,4.73,0,0,1-1-1.9,20.86,20.86,0,0,1-.34-4.36Z" style="fill:#fff"/><path d="M137.1,22V7.69H132V4.78h13.65V7.69h-5.09V22Z" style="fill:#fff"/><path d="M146.49,22V4.78H150V22Z" style="fill:#fff"/><path d="M151.26,13.48A10.93,10.93,0,0,1,152,9.07a8.09,8.09,0,0,1,1.6-2.36,6.69,6.69,0,0,1,2.22-1.55,9.43,9.43,0,0,1,3.7-.68,8.07,8.07,0,0,1,6.08,2.36,9,9,0,0,1,2.28,6.55,9,9,0,0,1-2.26,6.51,8,8,0,0,1-6,2.35,8.09,8.09,0,0,1-6.09-2.34A8.87,8.87,0,0,1,151.26,13.48Zm3.57-.12a6.44,6.44,0,0,0,1.35,4.42,4.63,4.63,0,0,0,6.83,0,6.57,6.57,0,0,0,1.33-4.48A6.46,6.46,0,0,0,163,8.91a4.8,4.8,0,0,0-6.9,0A6.49,6.49,0,0,0,154.84,13.36Z" style="fill:#fff"/><path d="M169.37,22V4.78h3.38l7,11.47V4.78H183V22h-3.48l-6.93-11.2V22Z" style="fill:#fff"/></g></svg>