<svg id="Layer_1" data-name="Layer 1" xmlns="http://www.w3.org/2000/svg" viewBox="0 0 261.08 114.84"><title>CautionAcid</title><polyline points="0.81 26.41 260.26 26.41 260.26 0.56 0.81 0.56"/><polygon points="0.5 0.5 260.58 0.5 260.58 114.34 0.5 114.34 0.5 0.5 0.5 0.5" style="fill:none;stroke:#000;stroke-miterlimit:10"/><line x1="0.72" y1="46.47" x2="260.51" y2="46.47" style="fill:none;stroke:#000"/><line x1="85.12" y1="46.58" x2="85.12" y2="114.34" style="fill:none;stroke:#000"/><rect width="261.07" height="114.83" style="fill:none"/><path d="M88.69,36.34l1.68.53a3.76,3.76,0,0,1-1.28,2.08A4,4,0,0,1,84,38.46a4.46,4.46,0,0,1-1.1-3.19A4.68,4.68,0,0,1,84,32a3.78,3.78,0,0,1,2.9-1.18,3.56,3.56,0,0,1,2.55.93,3.38,3.38,0,0,1,.88,1.58l-1.71.41a1.77,1.77,0,0,0-1.8-1.44,2,2,0,0,0-1.54.68,3.35,3.35,0,0,0-.59,2.21,3.59,3.59,0,0,0,.58,2.31,1.9,1.9,0,0,0,1.52.69A1.73,1.73,0,0,0,88,37.71,2.55,2.55,0,0,0,88.69,36.34Z" transform="translate(0)"/><path d="M93.48,30.92v3.15a2.46,2.46,0,0,1,2.92-.72,1.68,1.68,0,0,1,.69.54,2,2,0,0,1,.31.72,6.46,6.46,0,0,1,.08,1.23v3.64H95.84V36.21A4.84,4.84,0,0,0,95.75,35a.81.81,0,0,0-.33-.42,1.06,1.06,0,0,0-.59-.15,1.36,1.36,0,0,0-.73.2,1.15,1.15,0,0,0-.47.6,3.58,3.58,0,0,0-.15,1.18v3.11H91.83V30.92Z" transform="translate(0)"/><path d="M102.74,37.51l1.64.27a2.68,2.68,0,0,1-1,1.37,2.92,2.92,0,0,1-1.7.47,2.78,2.78,0,0,1-2.4-1.06,3.55,3.55,0,0,1-.61-2.14A3.43,3.43,0,0,1,99.47,34a2.66,2.66,0,0,1,2-.87,2.75,2.75,0,0,1,2.18.91,4,4,0,0,1,.77,2.8h-4.11a1.66,1.66,0,0,0,.4,1.14,1.24,1.24,0,0,0,.95.41,1,1,0,0,0,.65-.21A1.3,1.3,0,0,0,102.74,37.51Zm.09-1.66a1.58,1.58,0,0,0-.37-1.08,1.18,1.18,0,0,0-1.74,0,1.51,1.51,0,0,0-.34,1.06Z" transform="translate(0)"/><path d="M105.68,33.28h1.51v.85a2.43,2.43,0,0,1,1.93-1,2.08,2.08,0,0,1,1,.25,1.89,1.89,0,0,1,.72.74,2.87,2.87,0,0,1,.88-.74,2.16,2.16,0,0,1,1-.25,2.25,2.25,0,0,1,1.16.28,1.7,1.7,0,0,1,.71.81,3.53,3.53,0,0,1,.17,1.28v4h-1.64V35.94a2.64,2.64,0,0,0-.17-1.19.78.78,0,0,0-.7-.35,1.12,1.12,0,0,0-.65.21,1.16,1.16,0,0,0-.44.62,4.42,4.42,0,0,0-.13,1.28v3h-1.64v-3.4a4.74,4.74,0,0,0-.09-1.17.75.75,0,0,0-.27-.39.86.86,0,0,0-.5-.13,1.2,1.2,0,0,0-.68.2,1.13,1.13,0,0,0-.44.59,4.4,4.4,0,0,0-.13,1.28v3h-1.64Z" transform="translate(0)"/><path d="M116.43,32.44V30.92h1.64v1.52Zm0,7v-6.2h1.64v6.2Z" transform="translate(0)"/><path d="M125.17,35.11l-1.62.29a1.18,1.18,0,0,0-.37-.73,1.12,1.12,0,0,0-.75-.25,1.23,1.23,0,0,0-1,.42,2.17,2.17,0,0,0-.36,1.42,2.51,2.51,0,0,0,.37,1.56,1.22,1.22,0,0,0,1,.46,1.11,1.11,0,0,0,.77-.27,1.6,1.6,0,0,0,.42-.91l1.61.27a2.86,2.86,0,0,1-1,1.68,3,3,0,0,1-1.91.57,2.84,2.84,0,0,1-2.17-.86,3.33,3.33,0,0,1-.81-2.38,3.34,3.34,0,0,1,.81-2.39,2.88,2.88,0,0,1,2.2-.86,3,3,0,0,1,1.8.49A2.7,2.7,0,0,1,125.17,35.11Z" transform="translate(0)"/><path d="M127.64,35.17l-1.49-.27a2.32,2.32,0,0,1,.86-1.33,3.17,3.17,0,0,1,1.82-.43,3.93,3.93,0,0,1,1.64.26,1.63,1.63,0,0,1,.76.66,3.38,3.38,0,0,1,.22,1.47l0,1.92a6.63,6.63,0,0,0,.08,1.21,3.49,3.49,0,0,0,.29.83h-1.62q-.06-.16-.16-.48l-.06-.19a3,3,0,0,1-.9.61,2.58,2.58,0,0,1-1,.2,2.11,2.11,0,0,1-1.51-.52,1.73,1.73,0,0,1-.55-1.31,1.77,1.77,0,0,1,.25-.94,1.64,1.64,0,0,1,.7-.63,5.49,5.49,0,0,1,1.31-.38,9,9,0,0,0,1.59-.4v-.16a.85.85,0,0,0-.23-.67,1.4,1.4,0,0,0-.88-.2,1.17,1.17,0,0,0-.68.17A1.2,1.2,0,0,0,127.64,35.17Zm2.2,1.33q-.32.1-1,.25a3,3,0,0,0-.89.29.69.69,0,0,0-.32.58.8.8,0,0,0,.26.6.9.9,0,0,0,.65.25,1.42,1.42,0,0,0,.85-.29,1,1,0,0,0,.39-.54,3.23,3.23,0,0,0,.06-.8Z" transform="translate(0)"/><path d="M133.06,39.48V30.92h1.64v8.56Z" transform="translate(0)"/><path d="M139.73,39.48V30.92h1.73v3.37h3.39V30.92h1.73v8.56h-1.73V35.74h-3.39v3.74Z" transform="translate(0)"/><path d="M149.57,35.17l-1.49-.27a2.32,2.32,0,0,1,.86-1.33,3.17,3.17,0,0,1,1.82-.43,3.93,3.93,0,0,1,1.63.26,1.64,1.64,0,0,1,.76.66,3.39,3.39,0,0,1,.22,1.47l0,1.92a6.63,6.63,0,0,0,.08,1.21,3.51,3.51,0,0,0,.29.83h-1.62q-.06-.16-.16-.48l-.06-.19a3,3,0,0,1-.9.61,2.58,2.58,0,0,1-1,.2,2.11,2.11,0,0,1-1.51-.52,1.73,1.73,0,0,1-.55-1.31,1.76,1.76,0,0,1,.25-.94,1.64,1.64,0,0,1,.7-.63,5.5,5.5,0,0,1,1.31-.38,9,9,0,0,0,1.59-.4v-.16a.85.85,0,0,0-.23-.67,1.4,1.4,0,0,0-.88-.2,1.17,1.17,0,0,0-.68.17A1.19,1.19,0,0,0,149.57,35.17Zm2.2,1.33q-.32.1-1,.25a3,3,0,0,0-.89.29.69.69,0,0,0-.32.58.81.81,0,0,0,.26.6.9.9,0,0,0,.65.25,1.42,1.42,0,0,0,.85-.29,1,1,0,0,0,.39-.54,3.23,3.23,0,0,0,.06-.8Z" transform="translate(0)"/><path d="M154.34,39.48V38.2l2.32-2.67q.57-.65.85-.93l-.75,0h-2.19V33.28h5.13v1.16l-2.37,2.73-.83.91.85,0h2.54v1.44Z" transform="translate(0)"/><path d="M162.21,35.17l-1.49-.27a2.32,2.32,0,0,1,.86-1.33,3.17,3.17,0,0,1,1.82-.43,3.93,3.93,0,0,1,1.63.26,1.64,1.64,0,0,1,.76.66,3.39,3.39,0,0,1,.22,1.47l0,1.92a6.63,6.63,0,0,0,.08,1.21,3.51,3.51,0,0,0,.29.83h-1.62q-.06-.16-.16-.48l-.06-.19a3,3,0,0,1-.9.61,2.58,2.58,0,0,1-1,.2,2.11,2.11,0,0,1-1.51-.52,1.73,1.73,0,0,1-.55-1.31,1.76,1.76,0,0,1,.25-.94,1.64,1.64,0,0,1,.7-.63,5.5,5.5,0,0,1,1.31-.38,9,9,0,0,0,1.59-.4v-.16a.85.85,0,0,0-.23-.67,1.4,1.4,0,0,0-.88-.2,1.17,1.17,0,0,0-.68.17A1.19,1.19,0,0,0,162.21,35.17Zm2.2,1.33q-.32.1-1,.25a3,3,0,0,0-.89.29.69.69,0,0,0-.32.58.81.81,0,0,0,.26.6.9.9,0,0,0,.65.25,1.42,1.42,0,0,0,.85-.29,1,1,0,0,0,.39-.54,3.23,3.23,0,0,0,.06-.8Z" transform="translate(0)"/><path d="M169.2,39.48h-1.64v-6.2h1.52v.88a2.64,2.64,0,0,1,.7-.82,1.29,1.29,0,0,1,.71-.2,2.08,2.08,0,0,1,1.08.31l-.51,1.43a1.44,1.44,0,0,0-.77-.27.91.91,0,0,0-.58.19,1.3,1.3,0,0,0-.38.69,9.81,9.81,0,0,0-.14,2.08Z" transform="translate(0)"/><path d="M178,39.48h-1.52v-.91a2.48,2.48,0,0,1-.9.79,2.3,2.3,0,0,1-1,.26,2.36,2.36,0,0,1-1.83-.86,3.51,3.51,0,0,1-.76-2.4,3.46,3.46,0,0,1,.74-2.4,2.42,2.42,0,0,1,1.88-.82,2.32,2.32,0,0,1,1.8.86V30.92H178Zm-4.38-3.24a2.85,2.85,0,0,0,.27,1.44,1.24,1.24,0,0,0,1.11.64,1.21,1.21,0,0,0,1-.48,2.23,2.23,0,0,0,.4-1.44,2.43,2.43,0,0,0-.39-1.54,1.22,1.22,0,0,0-1-.47,1.23,1.23,0,0,0-1,.46A2.1,2.1,0,0,0,173.59,36.25Z" transform="translate(0)"/><path d="M101.57,15.42l3.34,1.06a7.52,7.52,0,0,1-2.55,4.16,8,8,0,0,1-10.12-1,8.94,8.94,0,0,1-2.19-6.37,9.38,9.38,0,0,1,2.2-6.64A7.52,7.52,0,0,1,98,4.3a7.08,7.08,0,0,1,5.08,1.86,6.76,6.76,0,0,1,1.75,3.15l-3.41.82a3.53,3.53,0,0,0-3.6-2.87,3.87,3.87,0,0,0-3.08,1.37A6.72,6.72,0,0,0,93.6,13q0,3.25,1.16,4.63a3.77,3.77,0,0,0,3,1.38,3.44,3.44,0,0,0,2.36-.88A5.09,5.09,0,0,0,101.57,15.42Z" transform="translate(0)" style="fill:#fff"/><path d="M123.25,21.72H119.5L118,17.83H111.2l-1.41,3.89h-3.65l6.64-17.12h3.64Zm-6.34-6.77-2.35-6.35-2.3,6.35Z" transform="translate(0)" style="fill:#fff"/><path d="M125.05,4.59h3.44v9.27a19.41,19.41,0,0,0,.13,2.86,2.77,2.77,0,0,0,1.05,1.69,3.66,3.66,0,0,0,2.28.64,3.47,3.47,0,0,0,2.21-.6,2.38,2.38,0,0,0,.9-1.48,19.36,19.36,0,0,0,.15-2.91V4.59h3.44v9a23.17,23.17,0,0,1-.28,4.36,4.83,4.83,0,0,1-1,2.15,5.21,5.21,0,0,1-2,1.4,8.71,8.71,0,0,1-3.28.52,9.42,9.42,0,0,1-3.71-.57,5.3,5.3,0,0,1-2-1.47,4.72,4.72,0,0,1-1-1.9,20.87,20.87,0,0,1-.34-4.35Z" transform="translate(0)" style="fill:#fff"/><path d="M146.12,21.72V7.49h-5.06V4.59h13.56v2.9h-5V21.72Z" transform="translate(0)" style="fill:#fff"/><path d="M156.74,21.72V4.59h3.44V21.72Z" transform="translate(0)" style="fill:#fff"/><path d="M162.76,13.26a10.92,10.92,0,0,1,.78-4.39,8.05,8.05,0,0,1,1.59-2.35A6.63,6.63,0,0,1,167.33,5,9.33,9.33,0,0,1,171,4.3a8,8,0,0,1,6,2.35,9,9,0,0,1,2.26,6.53,9,9,0,0,1-2.25,6.49,8.94,8.94,0,0,1-12.05,0A8.87,8.87,0,0,1,162.76,13.26Zm3.55-.12a6.44,6.44,0,0,0,1.34,4.41,4.59,4.59,0,0,0,6.78,0,6.57,6.57,0,0,0,1.32-4.47,6.46,6.46,0,0,0-1.29-4.39,4.75,4.75,0,0,0-6.85,0A6.49,6.49,0,0,0,166.31,13.14Z" transform="translate(0)" style="fill:#fff"/><path d="M182,21.72V4.59h3.35l7,11.44V4.59h3.2V21.72H192.1l-6.88-11.17V21.72Z" transform="translate(0)" style="fill:#fff"/><path d="M77.74,4.41a1.39,1.39,0,0,0-1.35-1,1.26,1.26,0,0,0-1.27,1L66,20c-1.19,2-.16,2.78,1,2.86H85.69c1.27-.08,2.23-.88,1-2.86l-9-15.59Z" transform="translate(0)" style="fill:#fff"/><path d="M76.39,22.06a1.75,1.75,0,0,1,0-3.5h.08a1.75,1.75,0,0,1-.08,3.5Z" transform="translate(0)"/><path d="M77,15.78a.6.6,0,0,1-.56.56h-.08a.54.54,0,0,1-.56-.56C74,10,73.13,5.92,76.39,5.92S78.77,10,77,15.78Z" transform="translate(0)"/><path d="M96.14,63.6a1.29,1.29,0,1,1-.38-.92A1.26,1.26,0,0,1,96.14,63.6Z" transform="translate(0)"/><path d="M99.56,66.78V60.34h2.09a7.57,7.57,0,0,1,1.55.1,1.69,1.69,0,0,1,.93.63,2,2,0,0,1,.37,1.25,2.1,2.1,0,0,1-.22,1,1.76,1.76,0,0,1-.55.63,1.88,1.88,0,0,1-.67.31,7.42,7.42,0,0,1-1.35.09h-.85v2.43Zm1.3-5.35v1.83h.71a3.33,3.33,0,0,0,1-.1.85.85,0,0,0,.41-.32.87.87,0,0,0,.15-.5.83.83,0,0,0-.21-.58.9.9,0,0,0-.52-.29,6.25,6.25,0,0,0-.94,0Z" transform="translate(0)"/><path d="M106.74,66.78H105.5V62.11h1.15v.66a2,2,0,0,1,.53-.62,1,1,0,0,1,.53-.15,1.58,1.58,0,0,1,.81.23l-.38,1.08a1.08,1.08,0,0,0-.58-.2.69.69,0,0,0-.44.14,1,1,0,0,0-.28.52,7.3,7.3,0,0,0-.1,1.56Z" transform="translate(0)"/><path d="M108.77,64.38a2.53,2.53,0,0,1,.3-1.19,2.09,2.09,0,0,1,.86-.88,2.56,2.56,0,0,1,1.24-.3,2.33,2.33,0,0,1,1.74.69,2.38,2.38,0,0,1,.68,1.74,2.41,2.41,0,0,1-.68,1.76,2.31,2.31,0,0,1-1.72.7,2.71,2.71,0,0,1-1.22-.29,2,2,0,0,1-.89-.85A2.83,2.83,0,0,1,108.77,64.38Zm1.27.07a1.55,1.55,0,0,0,.33,1.06,1.08,1.08,0,0,0,1.62,0,1.57,1.57,0,0,0,.33-1.07,1.54,1.54,0,0,0-.33-1.06,1.08,1.08,0,0,0-1.62,0A1.55,1.55,0,0,0,110,64.45Z" transform="translate(0)"/><path d="M118.84,66.78h-1.15v-.69a1.86,1.86,0,0,1-.67.6,1.73,1.73,0,0,1-.78.2,1.78,1.78,0,0,1-1.38-.65,2.64,2.64,0,0,1-.57-1.81,2.61,2.61,0,0,1,.56-1.8,1.82,1.82,0,0,1,1.41-.62,1.75,1.75,0,0,1,1.35.65V60.34h1.23Zm-3.3-2.43a2.14,2.14,0,0,0,.21,1.08.93.93,0,0,0,.83.48.91.91,0,0,0,.73-.36,1.67,1.67,0,0,0,.3-1.08,1.83,1.83,0,0,0-.29-1.16.92.92,0,0,0-.74-.35.93.93,0,0,0-.74.35A1.58,1.58,0,0,0,115.54,64.34Z" transform="translate(0)"/><path d="M123.13,66.78v-.7a1.8,1.8,0,0,1-.67.59,1.89,1.89,0,0,1-.88.21,1.71,1.71,0,0,1-.84-.21,1.21,1.21,0,0,1-.54-.58,2.58,2.58,0,0,1-.17-1v-3h1.23v2.14a5.89,5.89,0,0,0,.07,1.21.65.65,0,0,0,.25.35.76.76,0,0,0,.46.13,1,1,0,0,0,.57-.17.88.88,0,0,0,.34-.43,5,5,0,0,0,.09-1.26v-2h1.23v4.67Z" transform="translate(0)"/><path d="M129.62,63.49l-1.22.22a.88.88,0,0,0-.28-.55.84.84,0,0,0-.56-.19.93.93,0,0,0-.74.32,1.63,1.63,0,0,0-.27,1.07,1.88,1.88,0,0,0,.28,1.17.92.92,0,0,0,.75.34.83.83,0,0,0,.58-.2,1.2,1.2,0,0,0,.32-.69l1.21.21a2.15,2.15,0,0,1-.73,1.26,2.24,2.24,0,0,1-1.44.43,2.13,2.13,0,0,1-1.63-.65,2.94,2.94,0,0,1,0-3.59,2.17,2.17,0,0,1,1.65-.64,2.26,2.26,0,0,1,1.36.37A2,2,0,0,1,129.62,63.49Z" transform="translate(0)"/><path d="M132.7,62.11v1h-.84V65a4.59,4.59,0,0,0,0,.67.27.27,0,0,0,.11.16.34.34,0,0,0,.21.06,1.6,1.6,0,0,0,.5-.12l.11,1a2.45,2.45,0,0,1-1,.18,1.54,1.54,0,0,1-.6-.11.88.88,0,0,1-.39-.29,1.15,1.15,0,0,1-.17-.48,6,6,0,0,1,0-.87v-2H130v-1h.57v-.93l1.24-.72v1.65Z" transform="translate(0)"/><path d="M140.12,63.49l-1.22.22a.88.88,0,0,0-.28-.55.84.84,0,0,0-.56-.19.93.93,0,0,0-.74.32,1.63,1.63,0,0,0-.27,1.07,1.88,1.88,0,0,0,.28,1.17.92.92,0,0,0,.75.34.83.83,0,0,0,.58-.2A1.2,1.2,0,0,0,139,65l1.21.21a2.15,2.15,0,0,1-.73,1.26,2.24,2.24,0,0,1-1.44.43,2.13,2.13,0,0,1-1.63-.65,2.94,2.94,0,0,1,0-3.59A2.17,2.17,0,0,1,138,62a2.26,2.26,0,0,1,1.36.37A2,2,0,0,1,140.12,63.49Z" transform="translate(0)"/><path d="M140.77,64.38a2.52,2.52,0,0,1,.3-1.19,2.09,2.09,0,0,1,.86-.88,2.56,2.56,0,0,1,1.24-.3,2.33,2.33,0,0,1,1.74.69,2.38,2.38,0,0,1,.68,1.74,2.4,2.4,0,0,1-.68,1.76,2.31,2.31,0,0,1-1.72.7,2.71,2.71,0,0,1-1.22-.29,2,2,0,0,1-.88-.85A2.83,2.83,0,0,1,140.77,64.38Zm1.27.07a1.55,1.55,0,0,0,.33,1.06,1.08,1.08,0,0,0,1.62,0,1.57,1.57,0,0,0,.33-1.07,1.54,1.54,0,0,0-.33-1.06,1.08,1.08,0,0,0-1.62,0A1.55,1.55,0,0,0,142,64.45Z" transform="translate(0)"/><path d="M150.8,66.78h-1.23V64.4a3.66,3.66,0,0,0-.08-1,.69.69,0,0,0-.26-.34.74.74,0,0,0-.43-.12,1,1,0,0,0-.58.18.88.88,0,0,0-.35.46,4,4,0,0,0-.1,1.07v2.11h-1.23V62.11h1.15v.69a1.87,1.87,0,0,1,1.54-.79,1.84,1.84,0,0,1,.75.15,1.25,1.25,0,0,1,.51.38,1.34,1.34,0,0,1,.24.52,3.89,3.89,0,0,1,.07.83Z" transform="translate(0)"/><path d="M154.2,62.11v1h-.84V65a4.59,4.59,0,0,0,0,.67.27.27,0,0,0,.11.16.34.34,0,0,0,.21.06,1.6,1.6,0,0,0,.5-.12l.11,1a2.46,2.46,0,0,1-1,.18,1.54,1.54,0,0,1-.6-.11.88.88,0,0,1-.39-.29,1.14,1.14,0,0,1-.17-.48,5.83,5.83,0,0,1,0-.87v-2h-.57v-1h.57v-.93l1.24-.72v1.65Z" transform="translate(0)"/><path d="M156,63.54l-1.12-.2a1.75,1.75,0,0,1,.65-1,2.38,2.38,0,0,1,1.37-.33,3,3,0,0,1,1.23.2,1.24,1.24,0,0,1,.57.5,2.56,2.56,0,0,1,.16,1.11v1.44a5,5,0,0,0,.06.91,2.63,2.63,0,0,0,.22.63h-1.22c0-.08-.07-.2-.12-.37l0-.14a2.21,2.21,0,0,1-.68.46,1.94,1.94,0,0,1-.77.15,1.59,1.59,0,0,1-1.14-.39,1.3,1.3,0,0,1-.42-1,1.33,1.33,0,0,1,.19-.71,1.23,1.23,0,0,1,.53-.47,4.11,4.11,0,0,1,1-.29,6.62,6.62,0,0,0,1.2-.3v-.12a.64.64,0,0,0-.18-.51,1,1,0,0,0-.66-.15.89.89,0,0,0-.51.13A.9.9,0,0,0,156,63.54Zm1.65,1a7.45,7.45,0,0,1-.75.19,2.29,2.29,0,0,0-.67.22.52.52,0,0,0-.24.43.61.61,0,0,0,.19.45.67.67,0,0,0,.49.19,1.07,1.07,0,0,0,.64-.22.78.78,0,0,0,.29-.41,2.45,2.45,0,0,0,0-.6Z" transform="translate(0)"/><path d="M160.06,61.48V60.34h1.24v1.14Zm0,5.3V62.11h1.24v4.67Z" transform="translate(0)"/><path d="M166.8,66.78h-1.23V64.4a3.68,3.68,0,0,0-.08-1,.69.69,0,0,0-.26-.34.74.74,0,0,0-.43-.12,1,1,0,0,0-.58.18.88.88,0,0,0-.35.46,4,4,0,0,0-.09,1.07v2.11h-1.24V62.11h1.15v.69a1.87,1.87,0,0,1,1.54-.79,1.84,1.84,0,0,1,.75.15,1.26,1.26,0,0,1,.51.38,1.36,1.36,0,0,1,.24.52,3.9,3.9,0,0,1,.07.83Z" transform="translate(0)"/><path d="M167.62,65.45l1.24-.19a.91.91,0,0,0,.32.55,1.08,1.08,0,0,0,.68.19,1.21,1.21,0,0,0,.72-.18.39.39,0,0,0,.16-.33.33.33,0,0,0-.09-.23,1,1,0,0,0-.41-.16,6.67,6.67,0,0,1-1.89-.6,1.2,1.2,0,0,1-.55-1.05,1.29,1.29,0,0,1,.48-1,2.23,2.23,0,0,1,1.48-.41,2.58,2.58,0,0,1,1.42.31,1.59,1.59,0,0,1,.64.92l-1.17.22a.71.71,0,0,0-.28-.42,1,1,0,0,0-.59-.15,1.35,1.35,0,0,0-.7.14.29.29,0,0,0-.14.25.27.27,0,0,0,.12.22,4.61,4.61,0,0,0,1.15.35,3.44,3.44,0,0,1,1.38.55,1.14,1.14,0,0,1,.39.92,1.41,1.41,0,0,1-.54,1.1,2.38,2.38,0,0,1-1.59.46,2.61,2.61,0,0,1-1.51-.39A1.77,1.77,0,0,1,167.62,65.45Z" transform="translate(0)"/><path d="M175.53,62.11h1.15v.69a1.72,1.72,0,0,1,.61-.57,1.67,1.67,0,0,1,.85-.22,1.78,1.78,0,0,1,1.38.64,2.58,2.58,0,0,1,.57,1.78,2.65,2.65,0,0,1-.57,1.82,1.78,1.78,0,0,1-1.38.65,1.58,1.58,0,0,1-.7-.15,2.32,2.32,0,0,1-.66-.53v2.35h-1.24Zm1.22,2.25a1.79,1.79,0,0,0,.31,1.16,1,1,0,0,0,.76.38.89.89,0,0,0,.72-.34,1.78,1.78,0,0,0,.29-1.13,1.68,1.68,0,0,0-.29-1.09.91.91,0,0,0-.73-.36,1,1,0,0,0-.75.35A1.55,1.55,0,0,0,176.75,64.37Z" transform="translate(0)"/><path d="M182.29,60.34v2.37a1.85,1.85,0,0,1,2.2-.54,1.26,1.26,0,0,1,.52.4,1.47,1.47,0,0,1,.24.54,4.81,4.81,0,0,1,.06.93v2.74h-1.24V64.31a3.67,3.67,0,0,0-.07-.93.61.61,0,0,0-.25-.31.8.8,0,0,0-.45-.12,1,1,0,0,0-.55.15.86.86,0,0,0-.35.45,2.7,2.7,0,0,0-.11.89v2.34h-1.23V60.34Z" transform="translate(0)"/><path d="M186.27,64.38a2.53,2.53,0,0,1,.3-1.19,2.09,2.09,0,0,1,.86-.88,2.56,2.56,0,0,1,1.24-.3,2.33,2.33,0,0,1,1.74.69,2.38,2.38,0,0,1,.68,1.74,2.41,2.41,0,0,1-.68,1.76,2.31,2.31,0,0,1-1.72.7,2.71,2.71,0,0,1-1.22-.29,2,2,0,0,1-.88-.85A2.83,2.83,0,0,1,186.27,64.38Zm1.27.07a1.55,1.55,0,0,0,.33,1.06,1.08,1.08,0,0,0,1.62,0,1.57,1.57,0,0,0,.33-1.07,1.54,1.54,0,0,0-.33-1.06,1.08,1.08,0,0,0-1.62,0A1.55,1.55,0,0,0,187.54,64.45Z" transform="translate(0)"/><path d="M191.62,65.45l1.24-.19a.9.9,0,0,0,.32.55,1.08,1.08,0,0,0,.68.19,1.21,1.21,0,0,0,.72-.18.39.39,0,0,0,.16-.33.33.33,0,0,0-.09-.23,1,1,0,0,0-.41-.16,6.68,6.68,0,0,1-1.89-.6,1.2,1.2,0,0,1-.55-1.05,1.29,1.29,0,0,1,.48-1,2.24,2.24,0,0,1,1.49-.41,2.58,2.58,0,0,1,1.42.31,1.59,1.59,0,0,1,.64.92l-1.16.22a.72.72,0,0,0-.28-.42,1,1,0,0,0-.59-.15,1.35,1.35,0,0,0-.7.14.29.29,0,0,0-.14.25.27.27,0,0,0,.12.22,4.63,4.63,0,0,0,1.15.35,3.44,3.44,0,0,1,1.38.55,1.14,1.14,0,0,1,.39.92,1.41,1.41,0,0,1-.54,1.1,2.38,2.38,0,0,1-1.59.46,2.6,2.6,0,0,1-1.51-.39A1.78,1.78,0,0,1,191.62,65.45Z" transform="translate(0)"/><path d="M197,62.11h1.15v.69a1.72,1.72,0,0,1,.61-.57,1.67,1.67,0,0,1,.85-.22,1.78,1.78,0,0,1,1.38.64,2.58,2.58,0,0,1,.57,1.78,2.65,2.65,0,0,1-.57,1.82,1.78,1.78,0,0,1-1.38.65,1.58,1.58,0,0,1-.7-.15,2.32,2.32,0,0,1-.66-.53v2.35H197Zm1.22,2.25a1.79,1.79,0,0,0,.31,1.16,1,1,0,0,0,.76.38.89.89,0,0,0,.72-.34,1.78,1.78,0,0,0,.29-1.13,1.68,1.68,0,0,0-.29-1.09.91.91,0,0,0-.73-.36,1,1,0,0,0-.75.35A1.55,1.55,0,0,0,198.25,64.37Z" transform="translate(0)"/><path d="M203.79,60.34v2.37a1.85,1.85,0,0,1,2.2-.54,1.26,1.26,0,0,1,.52.4,1.47,1.47,0,0,1,.24.54,4.81,4.81,0,0,1,.06.93v2.74h-1.24V64.31a3.67,3.67,0,0,0-.07-.93.61.61,0,0,0-.25-.31.8.8,0,0,0-.45-.12,1,1,0,0,0-.55.15.86.86,0,0,0-.35.45,2.7,2.7,0,0,0-.11.89v2.34h-1.23V60.34Z" transform="translate(0)"/><path d="M207.77,64.38a2.53,2.53,0,0,1,.3-1.19,2.09,2.09,0,0,1,.86-.88,2.56,2.56,0,0,1,1.24-.3,2.33,2.33,0,0,1,1.74.69,2.38,2.38,0,0,1,.68,1.74,2.41,2.41,0,0,1-.68,1.76,2.31,2.31,0,0,1-1.72.7,2.71,2.71,0,0,1-1.22-.29,2,2,0,0,1-.88-.85A2.83,2.83,0,0,1,207.77,64.38Zm1.27.07a1.55,1.55,0,0,0,.33,1.06,1.08,1.08,0,0,0,1.62,0,1.57,1.57,0,0,0,.33-1.07,1.54,1.54,0,0,0-.33-1.06,1.08,1.08,0,0,0-1.62,0A1.55,1.55,0,0,0,209,64.45Z" transform="translate(0)"/><path d="M214.73,66.78H213.5V62.11h1.15v.66a2,2,0,0,1,.53-.62,1,1,0,0,1,.53-.15,1.58,1.58,0,0,1,.81.23l-.38,1.08a1.08,1.08,0,0,0-.58-.2.69.69,0,0,0-.44.14,1,1,0,0,0-.28.52,7.3,7.3,0,0,0-.1,1.56Z" transform="translate(0)"/><path d="M217.05,61.48V60.34h1.23v1.14Zm0,5.3V62.11h1.23v4.67Z" transform="translate(0)"/><path d="M223.63,63.49l-1.22.22a.88.88,0,0,0-.28-.55.84.84,0,0,0-.56-.19.92.92,0,0,0-.74.32,1.63,1.63,0,0,0-.27,1.07,1.88,1.88,0,0,0,.28,1.17.92.92,0,0,0,.75.34.83.83,0,0,0,.58-.2,1.19,1.19,0,0,0,.32-.69l1.21.21a2.15,2.15,0,0,1-.72,1.26,2.24,2.24,0,0,1-1.44.43,2.13,2.13,0,0,1-1.63-.65,2.95,2.95,0,0,1,0-3.59,2.17,2.17,0,0,1,1.65-.64,2.26,2.26,0,0,1,1.36.37A2,2,0,0,1,223.63,63.49Z" transform="translate(0)"/><path d="M228,63.54l-1.12-.2a1.74,1.74,0,0,1,.65-1,2.38,2.38,0,0,1,1.37-.33,3,3,0,0,1,1.23.2,1.23,1.23,0,0,1,.57.5,2.56,2.56,0,0,1,.16,1.11v1.44a5.07,5.07,0,0,0,.06.91,2.59,2.59,0,0,0,.22.63h-1.22c0-.08-.07-.2-.12-.37l0-.14a2.21,2.21,0,0,1-.68.46,1.94,1.94,0,0,1-.77.15,1.59,1.59,0,0,1-1.14-.39,1.3,1.3,0,0,1-.42-1,1.33,1.33,0,0,1,.19-.71,1.24,1.24,0,0,1,.53-.47,4.14,4.14,0,0,1,1-.29,6.6,6.6,0,0,0,1.2-.3v-.12a.64.64,0,0,0-.18-.51,1,1,0,0,0-.66-.15.89.89,0,0,0-.52.13A.9.9,0,0,0,228,63.54Zm1.65,1a7.49,7.49,0,0,1-.75.19,2.29,2.29,0,0,0-.67.22.51.51,0,0,0-.24.43.61.61,0,0,0,.19.45.67.67,0,0,0,.49.19,1.07,1.07,0,0,0,.64-.22.78.78,0,0,0,.29-.41,2.52,2.52,0,0,0,0-.6Z" transform="translate(0)"/><path d="M236.13,63.49l-1.22.22a.88.88,0,0,0-.28-.55.84.84,0,0,0-.56-.19.93.93,0,0,0-.74.32,1.64,1.64,0,0,0-.27,1.07,1.88,1.88,0,0,0,.28,1.17.92.92,0,0,0,.75.34.84.84,0,0,0,.58-.2A1.22,1.22,0,0,0,235,65l1.21.21a2.16,2.16,0,0,1-.72,1.26,2.25,2.25,0,0,1-1.44.43,2.13,2.13,0,0,1-1.63-.65,2.94,2.94,0,0,1,0-3.59,2.17,2.17,0,0,1,1.65-.64,2.25,2.25,0,0,1,1.36.37A2,2,0,0,1,236.13,63.49Z" transform="translate(0)"/><path d="M237.07,61.48V60.34h1.23v1.14Zm0,5.3V62.11h1.23v4.67Z" transform="translate(0)"/><path d="M243.85,66.78h-1.15v-.69a1.84,1.84,0,0,1-.67.6,1.74,1.74,0,0,1-.79.2,1.78,1.78,0,0,1-1.38-.65,2.63,2.63,0,0,1-.57-1.81,2.6,2.6,0,0,1,.56-1.8,1.82,1.82,0,0,1,1.41-.62,1.75,1.75,0,0,1,1.35.65V60.34h1.23Zm-3.29-2.43a2.13,2.13,0,0,0,.21,1.08.93.93,0,0,0,.83.48.91.91,0,0,0,.72-.36,1.67,1.67,0,0,0,.3-1.08,1.83,1.83,0,0,0-.29-1.16.92.92,0,0,0-.74-.35.93.93,0,0,0-.74.35A1.58,1.58,0,0,0,240.56,64.34Z" transform="translate(0)"/><path d="M245.07,66.78V65.54h1.23v1.23Z" transform="translate(0)"/><path d="M96.14,79.4a1.3,1.3,0,1,1-.38-.92A1.26,1.26,0,0,1,96.14,79.4Z" transform="translate(0)"/><path d="M99.58,82.58V76.14h1.3V79l2.63-2.86h1.75l-2.43,2.51,2.56,3.93h-1.68l-1.77-3-1.05,1.08v1.95Z" transform="translate(0)"/><path d="M108.76,81.09l1.23.21a2,2,0,0,1-.75,1,2.21,2.21,0,0,1-1.28.35,2.09,2.09,0,0,1-1.8-.79,2.67,2.67,0,0,1-.46-1.61,2.57,2.57,0,0,1,.61-1.82,2,2,0,0,1,1.53-.66,2.07,2.07,0,0,1,1.64.69,3,3,0,0,1,.58,2.11H107a1.25,1.25,0,0,0,.3.85.93.93,0,0,0,.71.31.76.76,0,0,0,.49-.16A1,1,0,0,0,108.76,81.09Zm.07-1.25a1.19,1.19,0,0,0-.28-.82.89.89,0,0,0-1.31,0,1.14,1.14,0,0,0-.26.8Z" transform="translate(0)"/><path d="M113.76,81.09l1.23.21a2,2,0,0,1-.75,1,2.21,2.21,0,0,1-1.28.35,2.09,2.09,0,0,1-1.8-.79,2.67,2.67,0,0,1-.46-1.61,2.57,2.57,0,0,1,.61-1.82,2,2,0,0,1,1.53-.66,2.07,2.07,0,0,1,1.64.69,3,3,0,0,1,.58,2.11H112a1.25,1.25,0,0,0,.3.85.93.93,0,0,0,.71.31.76.76,0,0,0,.49-.16A1,1,0,0,0,113.76,81.09Zm.07-1.25a1.19,1.19,0,0,0-.28-.82.89.89,0,0,0-1.31,0,1.14,1.14,0,0,0-.26.8Z" transform="translate(0)"/><path d="M116,77.91h1.15v.69a1.72,1.72,0,0,1,.61-.57,1.67,1.67,0,0,1,.85-.22,1.78,1.78,0,0,1,1.38.64,2.58,2.58,0,0,1,.57,1.78A2.65,2.65,0,0,1,120,82a1.78,1.78,0,0,1-1.38.65,1.57,1.57,0,0,1-.7-.15,2.33,2.33,0,0,1-.66-.53v2.35H116Zm1.22,2.25a1.8,1.8,0,0,0,.31,1.16,1,1,0,0,0,.76.38.89.89,0,0,0,.72-.34,1.78,1.78,0,0,0,.29-1.13,1.69,1.69,0,0,0-.29-1.09.91.91,0,0,0-.73-.36,1,1,0,0,0-.75.35A1.55,1.55,0,0,0,117.25,80.17Z" transform="translate(0)"/><path d="M123.78,80.18a2.52,2.52,0,0,1,.3-1.19,2.08,2.08,0,0,1,.86-.88,2.54,2.54,0,0,1,1.24-.3,2.33,2.33,0,0,1,1.74.69,2.38,2.38,0,0,1,.68,1.74,2.41,2.41,0,0,1-.68,1.76,2.31,2.31,0,0,1-1.72.7,2.71,2.71,0,0,1-1.22-.29,2,2,0,0,1-.89-.85A2.83,2.83,0,0,1,123.78,80.18Zm1.27.07a1.55,1.55,0,0,0,.33,1.06,1.08,1.08,0,0,0,1.62,0,1.57,1.57,0,0,0,.33-1.07,1.54,1.54,0,0,0-.33-1.05,1.08,1.08,0,0,0-1.62,0A1.55,1.55,0,0,0,125,80.25Z" transform="translate(0)"/><path d="M132.63,82.58v-.7a1.8,1.8,0,0,1-.67.59,1.89,1.89,0,0,1-.88.21,1.71,1.71,0,0,1-.84-.21,1.21,1.21,0,0,1-.54-.58,2.58,2.58,0,0,1-.17-1v-3h1.23v2.14a5.89,5.89,0,0,0,.07,1.21.65.65,0,0,0,.25.35.76.76,0,0,0,.46.13,1,1,0,0,0,.57-.17.88.88,0,0,0,.34-.43,5,5,0,0,0,.09-1.26v-2h1.23v4.67Z" transform="translate(0)"/><path d="M137.2,77.91v1h-.84v1.88a4.59,4.59,0,0,0,0,.67.27.27,0,0,0,.11.16.34.34,0,0,0,.21.06,1.6,1.6,0,0,0,.5-.12l.11,1a2.45,2.45,0,0,1-1,.18,1.54,1.54,0,0,1-.6-.11.88.88,0,0,1-.39-.29,1.15,1.15,0,0,1-.17-.48,6,6,0,0,1,0-.87v-2h-.57v-1h.57V77l1.24-.72v1.65Z" transform="translate(0)"/><path d="M140.27,80.18a2.52,2.52,0,0,1,.3-1.19,2.07,2.07,0,0,1,.86-.88,2.54,2.54,0,0,1,1.24-.3,2.33,2.33,0,0,1,1.74.69,2.38,2.38,0,0,1,.68,1.74A2.41,2.41,0,0,1,144.4,82a2.31,2.31,0,0,1-1.72.7,2.71,2.71,0,0,1-1.22-.29,2,2,0,0,1-.88-.85A2.83,2.83,0,0,1,140.27,80.18Zm1.27.07a1.55,1.55,0,0,0,.33,1.06,1.08,1.08,0,0,0,1.62,0,1.57,1.57,0,0,0,.33-1.07,1.54,1.54,0,0,0-.33-1.05,1.08,1.08,0,0,0-1.62,0A1.55,1.55,0,0,0,141.54,80.25Z" transform="translate(0)"/><path d="M145.51,77.91h.69v-.35a2.35,2.35,0,0,1,.13-.88,1,1,0,0,1,.46-.47,1.77,1.77,0,0,1,.85-.18,3.43,3.43,0,0,1,1,.16l-.17.86a2.49,2.49,0,0,0-.57-.07.5.5,0,0,0-.38.13.72.72,0,0,0-.12.48v.33h.92v1h-.92v3.7H146.2v-3.7h-.69Z" transform="translate(0)"/><path d="M152.73,82.58H151.5V77.91h1.15v.66a2,2,0,0,1,.53-.62,1,1,0,0,1,.53-.15,1.57,1.57,0,0,1,.81.23l-.38,1.08a1.09,1.09,0,0,0-.58-.2.68.68,0,0,0-.44.14,1,1,0,0,0-.28.52,7.23,7.23,0,0,0-.1,1.56Z" transform="translate(0)"/><path d="M157.75,81.09l1.23.21a2,2,0,0,1-.75,1,2.21,2.21,0,0,1-1.28.35,2.09,2.09,0,0,1-1.8-.79,2.67,2.67,0,0,1-.46-1.61,2.57,2.57,0,0,1,.61-1.82,2,2,0,0,1,1.53-.66,2.07,2.07,0,0,1,1.64.69,3,3,0,0,1,.58,2.11H156a1.26,1.26,0,0,0,.3.85.94.94,0,0,0,.71.31.75.75,0,0,0,.49-.16A1,1,0,0,0,157.75,81.09Zm.07-1.25a1.19,1.19,0,0,0-.28-.82.89.89,0,0,0-1.31,0,1.14,1.14,0,0,0-.26.8Z" transform="translate(0)"/><path d="M161,79.34l-1.12-.2a1.75,1.75,0,0,1,.65-1,2.38,2.38,0,0,1,1.37-.33,3,3,0,0,1,1.23.2,1.24,1.24,0,0,1,.57.5,2.55,2.55,0,0,1,.16,1.11V81a4.85,4.85,0,0,0,.06.91,2.67,2.67,0,0,0,.22.63h-1.22c0-.08-.07-.2-.12-.37l0-.14a2.21,2.21,0,0,1-.68.46,1.94,1.94,0,0,1-.77.15,1.58,1.58,0,0,1-1.13-.39,1.3,1.3,0,0,1-.42-1,1.32,1.32,0,0,1,.19-.71,1.22,1.22,0,0,1,.53-.47,4.11,4.11,0,0,1,1-.29,6.75,6.75,0,0,0,1.2-.3v-.12a.64.64,0,0,0-.18-.51,1,1,0,0,0-.66-.15.89.89,0,0,0-.51.13A.9.9,0,0,0,161,79.34Zm1.65,1a7.42,7.42,0,0,1-.75.19,2.3,2.3,0,0,0-.67.22.51.51,0,0,0-.24.43.61.61,0,0,0,.19.45.67.67,0,0,0,.49.19,1.07,1.07,0,0,0,.64-.22.77.77,0,0,0,.29-.41,2.39,2.39,0,0,0,0-.6Z" transform="translate(0)"/><path d="M169.13,79.29l-1.22.22a.88.88,0,0,0-.28-.55.84.84,0,0,0-.56-.18.92.92,0,0,0-.74.32,1.63,1.63,0,0,0-.27,1.07,1.88,1.88,0,0,0,.28,1.17.92.92,0,0,0,.75.34.83.83,0,0,0,.58-.2,1.19,1.19,0,0,0,.32-.69l1.21.21a2.15,2.15,0,0,1-.72,1.26,2.24,2.24,0,0,1-1.44.43A2.13,2.13,0,0,1,165.4,82a2.95,2.95,0,0,1,0-3.59,2.17,2.17,0,0,1,1.65-.64,2.25,2.25,0,0,1,1.36.37A2,2,0,0,1,169.13,79.29Z" transform="translate(0)"/><path d="M171.3,76.14V78.5a1.85,1.85,0,0,1,2.2-.54,1.25,1.25,0,0,1,.52.4,1.47,1.47,0,0,1,.24.54,4.92,4.92,0,0,1,.06.93v2.74h-1.24V80.11a3.64,3.64,0,0,0-.07-.93.6.6,0,0,0-.25-.31.8.8,0,0,0-.45-.12,1,1,0,0,0-.55.15.87.87,0,0,0-.35.45,2.7,2.7,0,0,0-.11.89v2.34h-1.23V76.14Z" transform="translate(0)"/><path d="M177.78,80.18a2.52,2.52,0,0,1,.3-1.19,2.07,2.07,0,0,1,.86-.88,2.54,2.54,0,0,1,1.24-.3,2.33,2.33,0,0,1,1.74.69,2.38,2.38,0,0,1,.68,1.74,2.41,2.41,0,0,1-.68,1.76,2.31,2.31,0,0,1-1.72.7,2.71,2.71,0,0,1-1.22-.29,2,2,0,0,1-.88-.85A2.83,2.83,0,0,1,177.78,80.18Zm1.27.07a1.55,1.55,0,0,0,.33,1.06,1.08,1.08,0,0,0,1.62,0,1.57,1.57,0,0,0,.33-1.07,1.54,1.54,0,0,0-.33-1.05,1.08,1.08,0,0,0-1.62,0A1.55,1.55,0,0,0,179,80.25Z" transform="translate(0)"/><path d="M183,77.91h.69v-.35a2.35,2.35,0,0,1,.13-.88,1,1,0,0,1,.46-.47,1.77,1.77,0,0,1,.85-.18,3.43,3.43,0,0,1,1,.16L186,77a2.49,2.49,0,0,0-.57-.07.5.5,0,0,0-.38.13.72.72,0,0,0-.12.48v.33h.92v1h-.92v3.7h-1.23v-3.7H183Z" transform="translate(0)"/><path d="M193.13,79.29l-1.22.22a.89.89,0,0,0-.28-.55.84.84,0,0,0-.56-.18.92.92,0,0,0-.74.32,1.63,1.63,0,0,0-.28,1.07,1.89,1.89,0,0,0,.28,1.17.92.92,0,0,0,.75.34.83.83,0,0,0,.58-.2,1.2,1.2,0,0,0,.32-.69l1.21.21a2.15,2.15,0,0,1-.73,1.26,2.24,2.24,0,0,1-1.44.43A2.13,2.13,0,0,1,189.4,82a2.94,2.94,0,0,1,0-3.59,2.17,2.17,0,0,1,1.65-.64,2.25,2.25,0,0,1,1.36.37A2,2,0,0,1,193.13,79.29Z" transform="translate(0)"/><path d="M195.3,76.14V78.5a1.85,1.85,0,0,1,2.2-.54,1.26,1.26,0,0,1,.52.4,1.47,1.47,0,0,1,.24.54,4.82,4.82,0,0,1,.06.93v2.74h-1.24V80.11a3.64,3.64,0,0,0-.07-.93.61.61,0,0,0-.25-.31.8.8,0,0,0-.45-.12,1,1,0,0,0-.55.15.86.86,0,0,0-.35.45,2.7,2.7,0,0,0-.11.89v2.34h-1.23V76.14Z" transform="translate(0)"/><path d="M199.56,77.28V76.14h1.23v1.14Zm0,5.3V77.91h1.23v4.67Z" transform="translate(0)"/><path d="M202.06,82.58V76.14h1.24v6.44Z" transform="translate(0)"/><path d="M208.85,82.58H207.7v-.69a1.87,1.87,0,0,1-.68.6,1.73,1.73,0,0,1-.78.2,1.78,1.78,0,0,1-1.38-.65,2.64,2.64,0,0,1-.57-1.81,2.61,2.61,0,0,1,.56-1.8,1.82,1.82,0,0,1,1.41-.62,1.75,1.75,0,0,1,1.35.65V76.14h1.23Zm-3.3-2.43a2.15,2.15,0,0,0,.21,1.08.93.93,0,0,0,.84.48.91.91,0,0,0,.72-.36,1.67,1.67,0,0,0,.3-1.08,1.83,1.83,0,0,0-.29-1.16.92.92,0,0,0-.74-.35.93.93,0,0,0-.74.35A1.58,1.58,0,0,0,205.55,80.14Z" transform="translate(0)"/><path d="M211.25,82.58H210V77.91h1.15v.66a2,2,0,0,1,.53-.62,1,1,0,0,1,.53-.15A1.56,1.56,0,0,1,213,78l-.38,1.08a1.08,1.08,0,0,0-.58-.2.69.69,0,0,0-.44.14,1,1,0,0,0-.28.52,7.3,7.3,0,0,0-.1,1.56Z" transform="translate(0)"/><path d="M216.27,81.09l1.23.21a2,2,0,0,1-.75,1,2.21,2.21,0,0,1-1.28.35,2.09,2.09,0,0,1-1.8-.79,2.68,2.68,0,0,1-.46-1.61,2.57,2.57,0,0,1,.61-1.82,2,2,0,0,1,1.53-.66,2.07,2.07,0,0,1,1.64.69,3,3,0,0,1,.58,2.11h-3.09a1.25,1.25,0,0,0,.3.85.93.93,0,0,0,.71.31.75.75,0,0,0,.49-.16A1,1,0,0,0,216.27,81.09Zm.07-1.25a1.19,1.19,0,0,0-.28-.82.89.89,0,0,0-1.31,0,1.14,1.14,0,0,0-.26.8Z" transform="translate(0)"/><path d="M222.82,82.58h-1.24V80.2a3.68,3.68,0,0,0-.08-1,.69.69,0,0,0-.26-.35.74.74,0,0,0-.43-.12,1,1,0,0,0-.58.18.89.89,0,0,0-.35.47,4,4,0,0,0-.09,1.07v2.11h-1.23V77.91h1.15v.69a1.87,1.87,0,0,1,1.54-.79A1.84,1.84,0,0,1,222,78a1.25,1.25,0,0,1,.51.38,1.39,1.39,0,0,1,.24.52,3.88,3.88,0,0,1,.07.83Z" transform="translate(0)"/><path d="M224.07,82.58V81.34h1.23v1.23Z" transform="translate(0)"/><path d="M96.14,95.2a1.3,1.3,0,1,1-.38-.92A1.26,1.26,0,0,1,96.14,95.2Z" transform="translate(0)"/><path d="M99.55,91.94h1.3v3.49a7.22,7.22,0,0,0,0,1.08,1,1,0,0,0,.4.64,1.39,1.39,0,0,0,.86.24,1.31,1.31,0,0,0,.83-.23.89.89,0,0,0,.34-.56,7.26,7.26,0,0,0,.06-1.09V91.94h1.3v3.38a8.68,8.68,0,0,1-.11,1.64,1.81,1.81,0,0,1-.39.81,2,2,0,0,1-.76.53,3.29,3.29,0,0,1-1.24.2,3.56,3.56,0,0,1-1.4-.21,2,2,0,0,1-.75-.55,1.77,1.77,0,0,1-.36-.71,7.82,7.82,0,0,1-.13-1.63Z" transform="translate(0)"/><path d="M105.62,97l1.24-.19a.91.91,0,0,0,.32.55,1.08,1.08,0,0,0,.68.19,1.21,1.21,0,0,0,.72-.18.39.39,0,0,0,.16-.33.33.33,0,0,0-.09-.23,1,1,0,0,0-.41-.16,6.67,6.67,0,0,1-1.89-.6,1.2,1.2,0,0,1-.55-1.05,1.29,1.29,0,0,1,.48-1,2.24,2.24,0,0,1,1.49-.41,2.6,2.6,0,0,1,1.42.31,1.6,1.6,0,0,1,.64.92l-1.16.21a.72.72,0,0,0-.28-.42,1,1,0,0,0-.6-.14,1.34,1.34,0,0,0-.7.14.29.29,0,0,0-.14.25.28.28,0,0,0,.12.22,4.64,4.64,0,0,0,1.15.35,3.43,3.43,0,0,1,1.38.55,1.14,1.14,0,0,1,.39.92,1.41,1.41,0,0,1-.54,1.1,2.38,2.38,0,0,1-1.59.46,2.6,2.6,0,0,1-1.51-.39A1.78,1.78,0,0,1,105.62,97Z" transform="translate(0)"/><path d="M113.76,96.89l1.23.21a2,2,0,0,1-.75,1,2.21,2.21,0,0,1-1.28.35,2.09,2.09,0,0,1-1.8-.79,2.67,2.67,0,0,1-.46-1.61,2.57,2.57,0,0,1,.61-1.82,2,2,0,0,1,1.53-.66,2.07,2.07,0,0,1,1.64.69,3,3,0,0,1,.58,2.11H112a1.25,1.25,0,0,0,.3.85.93.93,0,0,0,.71.31.76.76,0,0,0,.49-.16A1,1,0,0,0,113.76,96.89Zm.07-1.25a1.19,1.19,0,0,0-.28-.82.89.89,0,0,0-1.31,0,1.14,1.14,0,0,0-.26.8Z" transform="translate(0)"/><path d="M119.75,98.38h-1.23V93.71h1.15v.66a2,2,0,0,1,.53-.62,1,1,0,0,1,.53-.15,1.57,1.57,0,0,1,.81.23l-.38,1.08a1.08,1.08,0,0,0-.58-.2.69.69,0,0,0-.44.14,1,1,0,0,0-.28.52,7.3,7.3,0,0,0-.1,1.56Z" transform="translate(0)"/><path d="M125.14,98.38v-.7a1.8,1.8,0,0,1-.67.59,1.89,1.89,0,0,1-.88.21,1.71,1.71,0,0,1-.84-.21,1.21,1.21,0,0,1-.54-.58,2.58,2.58,0,0,1-.17-1v-3h1.23v2.14a5.89,5.89,0,0,0,.07,1.21.65.65,0,0,0,.25.35.76.76,0,0,0,.46.13,1,1,0,0,0,.57-.17.88.88,0,0,0,.34-.43,5,5,0,0,0,.09-1.26v-2h1.23v4.67Z" transform="translate(0)"/><path d="M127.51,98.38V91.94h1.23v2.32a1.75,1.75,0,0,1,1.35-.65,1.82,1.82,0,0,1,1.41.62,2.56,2.56,0,0,1,.56,1.77,2.69,2.69,0,0,1-.57,1.84,1.77,1.77,0,0,1-1.38.65,1.71,1.71,0,0,1-.79-.2,1.88,1.88,0,0,1-.67-.59v.69Zm1.23-2.43A2,2,0,0,0,129,97a1,1,0,0,0,.85.49.87.87,0,0,0,.7-.35,1.72,1.72,0,0,0,.29-1.1,1.82,1.82,0,0,0-.29-1.15.92.92,0,0,0-.74-.35.93.93,0,0,0-.74.35A1.58,1.58,0,0,0,128.74,95.94Z" transform="translate(0)"/><path d="M133,98.38V91.94h1.23v2.32a1.75,1.75,0,0,1,1.35-.65,1.82,1.82,0,0,1,1.41.62,2.56,2.56,0,0,1,.56,1.77,2.69,2.69,0,0,1-.57,1.84,1.77,1.77,0,0,1-1.38.65,1.71,1.71,0,0,1-.79-.2,1.88,1.88,0,0,1-.67-.59v.69Zm1.23-2.43a2,2,0,0,0,.23,1.07,1,1,0,0,0,.85.49.87.87,0,0,0,.7-.35,1.72,1.72,0,0,0,.29-1.1,1.82,1.82,0,0,0-.29-1.15.92.92,0,0,0-.74-.35.93.93,0,0,0-.74.35A1.58,1.58,0,0,0,134.24,95.94Z" transform="translate(0)"/><path d="M141.26,96.89l1.23.21a2,2,0,0,1-.75,1,2.21,2.21,0,0,1-1.28.35,2.09,2.09,0,0,1-1.8-.79,2.67,2.67,0,0,1-.46-1.61,2.57,2.57,0,0,1,.61-1.82,2,2,0,0,1,1.53-.66,2.07,2.07,0,0,1,1.64.69,3,3,0,0,1,.58,2.11h-3.09a1.25,1.25,0,0,0,.3.85.93.93,0,0,0,.71.31.76.76,0,0,0,.49-.16A1,1,0,0,0,141.26,96.89Zm.07-1.25a1.19,1.19,0,0,0-.28-.82.89.89,0,0,0-1.31,0,1.14,1.14,0,0,0-.26.8Z" transform="translate(0)"/><path d="M144.75,98.38h-1.24V93.71h1.15v.66a2,2,0,0,1,.53-.62,1,1,0,0,1,.53-.15,1.56,1.56,0,0,1,.81.23l-.38,1.08a1.08,1.08,0,0,0-.58-.2.69.69,0,0,0-.44.14,1,1,0,0,0-.28.52,7.3,7.3,0,0,0-.1,1.56Z" transform="translate(0)"/><path d="M149.28,96a2.51,2.51,0,0,1,.3-1.19,2.07,2.07,0,0,1,.86-.88,2.54,2.54,0,0,1,1.24-.3,2.33,2.33,0,0,1,1.74.69A2.38,2.38,0,0,1,154.1,96a2.4,2.4,0,0,1-.68,1.76,2.31,2.31,0,0,1-1.72.7,2.71,2.71,0,0,1-1.22-.29,2,2,0,0,1-.88-.85A2.82,2.82,0,0,1,149.28,96Zm1.27.07a1.55,1.55,0,0,0,.33,1.06,1.08,1.08,0,0,0,1.62,0,1.57,1.57,0,0,0,.33-1.07A1.54,1.54,0,0,0,152.5,95a1.08,1.08,0,0,0-1.62,0A1.55,1.55,0,0,0,150.55,96Z" transform="translate(0)"/><path d="M156.25,98.38H155V93.71h1.15v.66a2,2,0,0,1,.53-.62,1,1,0,0,1,.53-.15,1.57,1.57,0,0,1,.81.23l-.38,1.08a1.09,1.09,0,0,0-.58-.2.68.68,0,0,0-.44.14,1,1,0,0,0-.28.52,7.23,7.23,0,0,0-.1,1.56Z" transform="translate(0)"/><path d="M165.31,98.38h-1.24V96a3.69,3.69,0,0,0-.08-1,.69.69,0,0,0-.26-.35.74.74,0,0,0-.43-.12,1,1,0,0,0-.58.18.89.89,0,0,0-.35.47,4.06,4.06,0,0,0-.09,1.07v2.11h-1.24V93.71h1.15v.69a1.91,1.91,0,0,1,2.29-.64,1.26,1.26,0,0,1,.51.38,1.4,1.4,0,0,1,.24.52,3.89,3.89,0,0,1,.07.83Z" transform="translate(0)"/><path d="M169.27,96.89l1.23.21a2,2,0,0,1-.75,1,2.21,2.21,0,0,1-1.28.35,2.09,2.09,0,0,1-1.8-.79,2.67,2.67,0,0,1-.46-1.61,2.57,2.57,0,0,1,.61-1.82,2,2,0,0,1,1.53-.66,2.07,2.07,0,0,1,1.64.69,3,3,0,0,1,.58,2.11h-3.09a1.26,1.26,0,0,0,.3.85.94.94,0,0,0,.71.31.75.75,0,0,0,.49-.16A1,1,0,0,0,169.27,96.89Zm.07-1.25a1.19,1.19,0,0,0-.28-.82.89.89,0,0,0-1.31,0,1.14,1.14,0,0,0-.26.8Z" transform="translate(0)"/><path d="M171.29,96a2.52,2.52,0,0,1,.3-1.19,2.08,2.08,0,0,1,.86-.88,2.54,2.54,0,0,1,1.24-.3,2.33,2.33,0,0,1,1.74.69A2.38,2.38,0,0,1,176.1,96a2.4,2.4,0,0,1-.68,1.76,2.31,2.31,0,0,1-1.72.7,2.71,2.71,0,0,1-1.22-.29,2,2,0,0,1-.89-.85A2.83,2.83,0,0,1,171.29,96Zm1.27.07a1.55,1.55,0,0,0,.33,1.06,1.08,1.08,0,0,0,1.62,0,1.57,1.57,0,0,0,.33-1.07A1.54,1.54,0,0,0,174.5,95a1.08,1.08,0,0,0-1.62,0A1.55,1.55,0,0,0,172.55,96Z" transform="translate(0)"/><path d="M177,93.71h1.15v.69a1.72,1.72,0,0,1,.61-.57,1.68,1.68,0,0,1,.85-.22,1.78,1.78,0,0,1,1.38.64,2.58,2.58,0,0,1,.57,1.78,2.65,2.65,0,0,1-.57,1.82,1.78,1.78,0,0,1-1.38.65,1.57,1.57,0,0,1-.7-.15,2.33,2.33,0,0,1-.66-.53v2.35H177ZM178.26,96a1.8,1.8,0,0,0,.31,1.16,1,1,0,0,0,.76.38.89.89,0,0,0,.72-.34,1.78,1.78,0,0,0,.29-1.13,1.69,1.69,0,0,0-.29-1.09.91.91,0,0,0-.73-.36,1,1,0,0,0-.75.35A1.55,1.55,0,0,0,178.26,96Z" transform="translate(0)"/><path d="M183.75,98.38h-1.23V93.71h1.15v.66a2,2,0,0,1,.53-.62,1,1,0,0,1,.54-.15,1.57,1.57,0,0,1,.81.23l-.38,1.08a1.08,1.08,0,0,0-.58-.2.69.69,0,0,0-.44.14,1,1,0,0,0-.28.52,7.36,7.36,0,0,0-.1,1.56Z" transform="translate(0)"/><path d="M188.77,96.89l1.23.21a2,2,0,0,1-.75,1,2.21,2.21,0,0,1-1.28.35,2.09,2.09,0,0,1-1.8-.79,2.67,2.67,0,0,1-.46-1.61,2.57,2.57,0,0,1,.61-1.82,2,2,0,0,1,1.53-.66,2.07,2.07,0,0,1,1.64.69,3,3,0,0,1,.58,2.11H187a1.24,1.24,0,0,0,.3.85.93.93,0,0,0,.71.31.76.76,0,0,0,.49-.16A1,1,0,0,0,188.77,96.89Zm.07-1.25a1.19,1.19,0,0,0-.28-.82.85.85,0,0,0-.64-.28.86.86,0,0,0-.67.29,1.14,1.14,0,0,0-.26.8Z" transform="translate(0)"/><path d="M195.32,98.38h-1.24V96a3.69,3.69,0,0,0-.08-1,.69.69,0,0,0-.26-.35.74.74,0,0,0-.43-.12,1,1,0,0,0-.58.18.89.89,0,0,0-.35.47,4.06,4.06,0,0,0-.09,1.07v2.11h-1.24V93.71h1.15v.69a1.91,1.91,0,0,1,2.29-.64,1.26,1.26,0,0,1,.51.38,1.4,1.4,0,0,1,.24.52,3.89,3.89,0,0,1,.07.83Z" transform="translate(0)"/><path d="M199.27,96.89l1.23.21a2,2,0,0,1-.75,1,2.21,2.21,0,0,1-1.28.35,2.09,2.09,0,0,1-1.8-.79,2.67,2.67,0,0,1-.46-1.61,2.57,2.57,0,0,1,.61-1.82,2,2,0,0,1,1.53-.66,2.07,2.07,0,0,1,1.64.69,3,3,0,0,1,.58,2.11h-3.09a1.26,1.26,0,0,0,.3.85.94.94,0,0,0,.71.31.75.75,0,0,0,.49-.16A1,1,0,0,0,199.27,96.89Zm.07-1.25a1.19,1.19,0,0,0-.28-.82.89.89,0,0,0-1.31,0,1.14,1.14,0,0,0-.26.8Z" transform="translate(0)"/><path d="M204,98.69l1.41.17a.48.48,0,0,0,.16.34.92.92,0,0,0,.55.13,1.45,1.45,0,0,0,.73-.14.6.6,0,0,0,.25-.31,1.87,1.87,0,0,0,.06-.57v-.68a1.67,1.67,0,0,1-1.4.76,1.72,1.72,0,0,1-1.49-.79A2.71,2.71,0,0,1,203.8,96a2.57,2.57,0,0,1,.56-1.79,1.82,1.82,0,0,1,1.4-.62,1.71,1.71,0,0,1,1.43.76v-.66h1.16V97.9a4.14,4.14,0,0,1-.14,1.23,1.52,1.52,0,0,1-.38.64,1.7,1.7,0,0,1-.66.36,3.45,3.45,0,0,1-1,.13,2.69,2.69,0,0,1-1.68-.41,1.28,1.28,0,0,1-.5-1S204,98.75,204,98.69Zm1.1-2.74a1.68,1.68,0,0,0,.29,1.09.89.89,0,0,0,.71.34,1,1,0,0,0,.76-.35,1.54,1.54,0,0,0,.31-1,1.64,1.64,0,0,0-.3-1.08,1,1,0,0,0-.76-.35.91.91,0,0,0-.73.35A1.61,1.61,0,0,0,205.07,95.95Z" transform="translate(0)"/><path d="M209.58,98.38V91.94h1.24v6.44Z" transform="translate(0)"/><path d="M211.79,96a2.51,2.51,0,0,1,.3-1.19,2.07,2.07,0,0,1,.86-.88,2.54,2.54,0,0,1,1.24-.3,2.33,2.33,0,0,1,1.74.69,2.38,2.38,0,0,1,.68,1.74,2.4,2.4,0,0,1-.68,1.76,2.31,2.31,0,0,1-1.72.7,2.71,2.71,0,0,1-1.22-.29,2,2,0,0,1-.88-.85A2.82,2.82,0,0,1,211.79,96Zm1.27.07a1.55,1.55,0,0,0,.33,1.06,1.08,1.08,0,0,0,1.62,0,1.57,1.57,0,0,0,.33-1.07A1.54,1.54,0,0,0,215,95a1.08,1.08,0,0,0-1.62,0A1.55,1.55,0,0,0,213.06,96Z" transform="translate(0)"/><path d="M218.86,98.38,217,93.71h1.3l.88,2.38.26.79.13-.4.13-.4.89-2.38h1.27L220,98.38Z" transform="translate(0)"/><path d="M225.28,96.89l1.23.21a2,2,0,0,1-.75,1,2.2,2.2,0,0,1-1.28.35,2.09,2.09,0,0,1-1.8-.79,2.67,2.67,0,0,1-.46-1.61,2.57,2.57,0,0,1,.61-1.82,2,2,0,0,1,1.53-.66,2.07,2.07,0,0,1,1.64.69,3,3,0,0,1,.57,2.11h-3.09a1.24,1.24,0,0,0,.3.85.93.93,0,0,0,.71.31.76.76,0,0,0,.49-.16A1,1,0,0,0,225.28,96.89Zm.07-1.25a1.2,1.2,0,0,0-.28-.82.85.85,0,0,0-.64-.28.86.86,0,0,0-.67.29,1.14,1.14,0,0,0-.26.8Z" transform="translate(0)"/><path d="M227.15,97l1.24-.19a.9.9,0,0,0,.32.55,1.08,1.08,0,0,0,.68.19,1.21,1.21,0,0,0,.72-.18.39.39,0,0,0,.16-.33.33.33,0,0,0-.09-.23,1,1,0,0,0-.41-.16,6.68,6.68,0,0,1-1.89-.6,1.2,1.2,0,0,1-.55-1.05,1.3,1.3,0,0,1,.48-1,2.24,2.24,0,0,1,1.49-.41,2.6,2.6,0,0,1,1.42.31,1.6,1.6,0,0,1,.64.92l-1.16.21a.73.73,0,0,0-.28-.42,1,1,0,0,0-.6-.14,1.34,1.34,0,0,0-.7.14.29.29,0,0,0-.14.25.28.28,0,0,0,.12.22,4.64,4.64,0,0,0,1.15.35,3.42,3.42,0,0,1,1.38.55,1.14,1.14,0,0,1,.39.92A1.41,1.41,0,0,1,231,98a2.38,2.38,0,0,1-1.59.46,2.6,2.6,0,0,1-1.51-.39A1.78,1.78,0,0,1,227.15,97Z" transform="translate(0)"/><path d="M232.59,98.38V97.14h1.23v1.23Z" transform="translate(0)"/><path d="M31.86,52.3C38.17,54.1,45,55,52,56.53c4.7,1,10.25,2.21,15.25,3.27,3.21.68,6.37.84,7.22,3.68,1,3.29-1.31,6.43-4.22,6.4a24.67,24.67,0,0,1-4.22-1c-11.13-2.35-24.45-4.68-35.27-7.35.63,3,.84,8.41,1.5,12.94.34,2.34,1.31,5.18-.27,6.4A2.69,2.69,0,0,1,28,79.68C29.25,70,30.36,60.9,31.86,52.3ZM65.77,67.69c1.59.34,3.66,1.11,5,1,3.09-.36,3.71-5,1.5-6.54-.87-.6-3.08-.85-4.77-1.23-11.34-2.54-23.76-4.7-34.73-7.08-.48,1.47-.88,4.53-1.36,6.81C42.27,63.11,54.73,65.34,65.77,67.69Z" transform="translate(0)" style="fill-rule:evenodd"/><path d="M33.08,60.2c10.52.85,23.13,1.05,33.23,1.64,2,.12,5.22.07,6.13,1.09a3.35,3.35,0,0,1-1.36,5.18c-1.81.53-7.1-1.27-9.4-1.63-9.88-1.57-19.15-4.25-28.33-6C33.12,60.53,33.1,60.37,33.08,60.2Z" transform="translate(0)" style="fill-rule:evenodd"/><path d="M34.85,65.92c.66,0,.61.79.41,1.23C34.65,67.23,34.58,66.29,34.85,65.92Z" transform="translate(0)" style="fill-rule:evenodd"/><path d="M26,66.19c.37-.1.27.27.54.27.11.47-.2.52-.14,1-.39-.11-.35.19-.68.14A1.91,1.91,0,0,1,26,66.19Z" transform="translate(0)" style="fill-rule:evenodd"/><path d="M34.58,67.56h.68A1.69,1.69,0,0,1,35,68.78c-.34,0-.42-.21-.68-.27C34.17,68,34.71,68.1,34.58,67.56Z" transform="translate(0)" style="fill-rule:evenodd"/><path d="M25.73,67.83c.87-.36,1.18,1.2.41,1.23C25.65,69,25.75,68.35,25.73,67.83Z" transform="translate(0)" style="fill-rule:evenodd"/><path d="M34.58,69.05c-.08.56-.13,1.15-.82,1.09C33.41,69.62,34,68.65,34.58,69.05Z" transform="translate(0)" style="fill-rule:evenodd"/><path d="M27.23,70.55a1.6,1.6,0,0,1-1-1.09C26.94,68.65,27.91,70,27.23,70.55Z" transform="translate(0)" style="fill-rule:evenodd"/><path d="M27.5,70.55c.69.26.65,1.55-.14,1.63-.31-.1.13-.94-.41-.82C26.93,70.89,27.41,70.92,27.5,70.55Z" transform="translate(0)" style="fill-rule:evenodd"/><path d="M33.9,70.55c0,.6,0,1.17-.41,1.36C32.73,71.88,33,70.17,33.9,70.55Z" transform="translate(0)" style="fill-rule:evenodd"/><path d="M33.22,72.32h.41a3.39,3.39,0,0,1,.14,1.36c-.38.11-.35-.19-.68-.14C33.17,72.88,32.82,72.63,33.22,72.32Z" transform="translate(0)" style="fill-rule:evenodd"/><path d="M27.91,72.46v1.23a.6.6,0,0,0-.54.27C26.77,73.62,27.18,72.34,27.91,72.46Z" transform="translate(0)" style="fill-rule:evenodd"/><path d="M33.35,74.23c.38-.11.35.19.68.13v1.23C33.19,75.79,33.22,74.57,33.35,74.23Z" transform="translate(0)" style="fill-rule:evenodd"/><path d="M27.36,74.37c.51.16.19,1.32-.14,1.5-.69.07-.37-1-.27-1.36C27.15,74.51,27.34,74.52,27.36,74.37Z" transform="translate(0)" style="fill-rule:evenodd"/><path d="M33.76,76.14c0,.36.05.78-.14,1-.38.11-.35-.19-.68-.14C33.05,76.52,33.06,76,33.76,76.14Z" transform="translate(0)" style="fill-rule:evenodd"/><path d="M27.77,77.23c-.61.11-.76-.24-.82-.68C27.43,76.08,28,76.33,27.77,77.23Z" transform="translate(0)" style="fill-rule:evenodd"/><path d="M34.72,76.82q.64-.09.54.55C34.94,77.31,34.62,77.27,34.72,76.82Z" transform="translate(0)" style="fill-rule:evenodd"/><path d="M25.86,77.23c.6-.11.55.45.82.68a6.07,6.07,0,0,0,.68-.55c.5.55-.59.67-.54,1.23C26.14,78.49,26.08,77.78,25.86,77.23Z" transform="translate(0)" style="fill-rule:evenodd"/><path d="M33.49,79c-.27-.09-.36-.36-.41-.68h.54A.89.89,0,0,1,33.49,79Z" transform="translate(0)" style="fill-rule:evenodd"/><path d="M27.36,78.45c.42.65-.69.94-.82,1.5a.37.37,0,0,1-.41-.27A3.88,3.88,0,0,1,27.36,78.45Z" transform="translate(0)" style="fill-rule:evenodd"/><path d="M33.49,79.68q.1.64-.54.54C33,79.91,33,79.58,33.49,79.68Z" transform="translate(0)" style="fill-rule:evenodd"/><path d="M27.91,80.36c-.08.43.26.42,0,.68C27.44,81.09,27.33,80.25,27.91,80.36Z" transform="translate(0)" style="fill-rule:evenodd"/><path d="M32.13,81.31v.41a.89.89,0,0,1-.68.14C31.35,81.35,31.66,81.25,32.13,81.31Z" transform="translate(0)" style="fill-rule:evenodd"/><path d="M30.63,81.58c.52.12.74.53.82,1.09A.75.75,0,0,1,30.63,81.58Z" transform="translate(0)" style="fill-rule:evenodd"/><path d="M31.72,83.35c-.53-.13-.79.3-1.09,0C30.58,82.81,31.91,82.49,31.72,83.35Z" transform="translate(0)" style="fill-rule:evenodd"/><path d="M26,81.31c-.09.17.29.61-.14,1,.39.32.54-1.16,1.23-.54.11-.47-.25-.58,0-.82.81.72,1.07-.12,1.77,0-.73,1-2.08,1.37-3.27,1.91,0,.4.31.51.54.68.43-.66,1.69-1.79,2.31-1.36.17-.33.29-.71,1-.55,0,.64-.46.9-.68,1.36-.47.06-.41-.41-.68-.55.12.53.3,1-.54.82.44.33,1.08.46,1.36,1-.31.58-.32-.16-.68-.27-.06.95,1.06.88,1.63.82s.72,1.12,1.36.68-.43-.65-.27-1.23c-.3,0-.29.34-.27.68-.45-.14-.57-.61-1.36-.41-.18-.69.14-.58,0-1s-.59.56-.82,0c.06-.57.84-.43,1.23-.68s-.56-.57-.14-1.23c.56.12.69.67,1.09,1,.19.59-.53.29-.41.82A23.29,23.29,0,0,1,32.4,85c0-.62-.55-.72-.68-1.23.14-.36.11-.89.68-.82.13-.59-.67-.24-.68-.68s.84-.16,1-.54-.78-.13-.55-.82a.78.78,0,0,1,1,.41c-.1-.58.61-.85.82-1.5.43-.07.48.25,1,.14-.23-1.18-1,0-1.5-.54.49-.87,2.64-.09,3.13-1-.88-.72-1.57.13-2.72.41.22-.9-.34-.61-.41-1a2.84,2.84,0,0,1,2.59,0c.43-.43-.23-.46-.14-1,5.13-.72,10,.09,14.84-.27-.19,2.45-1.21,4.05-3,4.9H43.3c-1.36,0-3.32-.52-3.68.68,2.68.24,6.51.14,10.35.14s7.91-.58,10.49,0A2.87,2.87,0,0,1,61,87.71H40.3c-.24.12-.25.48-.41.68,2.92.09,7,.44,9.53,0,3.7.4,9.42-.08,13.35,0,3.77.07,4.3,4.13,1.09,5.45H40.16v.68c6.63.32,13.85,0,20.7.14,2.28.5,2.26,4.63.14,5.31H40.16v.68a70.34,70.34,0,0,0,7.49.14c3.88,0,8.79-.84,9.4,1.77A3.1,3.1,0,0,1,55.69,106H32.81c-2.6,0-5.29.34-7.49,0-3.78-.58-6.15-3.56-8.31-5.72-1.57,0-3.67.17-6.27.14-.15-5.82-.45-12.15-.14-18,2.35.09,4,0,6.4,0,1.89-2.61,4.26-4.73,8.31-5.17-.06.71,1.19,1.77,0,2-.07.43.68.05.54.54s-.48,0-.82.14c-.28.34.73.54.82,1,.38-.13-.2-.36.14-.54.53-.12.48.33.82.41-.32-.66.23-1.2,1-1.23A2.21,2.21,0,0,1,26,81.31Zm9.53-.54c-.74-.36.39-.53.27-1.09-.17-.19-.64-.08-.82-.27-.11.47.2.52.14,1-.32,0-.56.27-.82,0,.4.81-.51.41-.55,1.09,0,.32.65.08.55.54.36-.14.77-.22.82-.68-.51-.14-.39.34-.82.27,0-.18-.19-.26-.14-.54.8.27.24-.3,1.23-.27C35.4,80.84,35.51,80.92,35.53,80.77Zm-1.09,1.77c.26.26,0,.34,0,.68a.74.74,0,0,0,.68-.82A7.12,7.12,0,0,1,32.67,82C32.83,82.88,33.59,82.56,34.44,82.54Zm-1.36.82c.69.08.9.65,1.63.68-.07-.2.16-.7-.14-.68.11.81-.9.26-.68-.27C33.62,83.16,33,82.86,33.08,83.35ZM32.4,84c.32.22.87.22,1.23.41C33.71,83.63,32.79,83.72,32.4,84Z" transform="translate(0)" style="fill-rule:evenodd"/></svg>