<svg id="caution_text" data-name="caution text" xmlns="http://www.w3.org/2000/svg" viewBox="0 0 262.96 142.74"><title>caution-dnt_oprte_undr_cndtns</title><polyline points="0.85 26.49 262.18 26.49 262.18 0.56 0.85 0.56"/><rect x="0.5" y="0.5" width="261.96" height="141.74" style="fill:none;stroke:#000;stroke-miterlimit:10"/><path d="M86,101.29" style="fill:none;stroke:#000"/><path d="M86,15.38" style="fill:none;stroke:#000"/><line x1="0.72" y1="57.62" x2="262.39" y2="57.62" style="fill:none;stroke:#000"/><path d="M38.89,32.45h2.64a5.15,5.15,0,0,1,1.36.14,2.39,2.39,0,0,1,1.08.66,3.13,3.13,0,0,1,.68,1.16,5.28,5.28,0,0,1,.23,1.69,4.7,4.7,0,0,1-.22,1.52,3.16,3.16,0,0,1-.77,1.26,2.54,2.54,0,0,1-1,.57,4.37,4.37,0,0,1-1.28.15H38.89Zm1.45,1.21V38.4h1.08a4,4,0,0,0,.87-.07,1.33,1.33,0,0,0,.58-.3,1.51,1.51,0,0,0,.38-.69A4.67,4.67,0,0,0,43.4,36a4.28,4.28,0,0,0-.15-1.27,1.64,1.64,0,0,0-.41-.69,1.38,1.38,0,0,0-.67-.34A6.57,6.57,0,0,0,41,33.66Z"/><path d="M45.79,36.94a2.81,2.81,0,0,1,.34-1.32,2.31,2.31,0,0,1,1-1,2.83,2.83,0,0,1,1.38-.34,2.59,2.59,0,0,1,1.93.76A2.64,2.64,0,0,1,51.14,37a2.67,2.67,0,0,1-.76,2,2.57,2.57,0,0,1-1.91.77,3,3,0,0,1-1.36-.32,2.21,2.21,0,0,1-1-.94A3.15,3.15,0,0,1,45.79,36.94Zm1.41.07a1.72,1.72,0,0,0,.37,1.18,1.2,1.2,0,0,0,1.8,0A1.74,1.74,0,0,0,49.73,37a1.71,1.71,0,0,0-.36-1.17,1.2,1.2,0,0,0-1.8,0A1.72,1.72,0,0,0,47.19,37Z"/><path d="M59.71,39.61H58.34V37a4.09,4.09,0,0,0-.09-1.09.76.76,0,0,0-.29-.38.82.82,0,0,0-.48-.14,1.1,1.1,0,0,0-.64.2,1,1,0,0,0-.39.52,4.48,4.48,0,0,0-.1,1.19v2.35H55V34.42h1.27v.76a2.13,2.13,0,0,1,2.54-.72,1.39,1.39,0,0,1,.57.42,1.51,1.51,0,0,1,.27.58,4.3,4.3,0,0,1,.08.92Z"/><path d="M60.78,36.94a2.81,2.81,0,0,1,.34-1.32,2.31,2.31,0,0,1,1-1,2.83,2.83,0,0,1,1.38-.34,2.59,2.59,0,0,1,1.93.76A2.64,2.64,0,0,1,66.13,37a2.67,2.67,0,0,1-.76,2,2.57,2.57,0,0,1-1.91.77,3,3,0,0,1-1.36-.32,2.21,2.21,0,0,1-1-.94A3.15,3.15,0,0,1,60.78,36.94Zm1.41.07a1.72,1.72,0,0,0,.37,1.18,1.2,1.2,0,0,0,1.8,0A1.74,1.74,0,0,0,64.72,37a1.71,1.71,0,0,0-.36-1.17,1.2,1.2,0,0,0-1.8,0A1.72,1.72,0,0,0,62.19,37Z"/><path d="M69.59,34.42v1.09h-.94v2.09a5.17,5.17,0,0,0,0,.74.3.3,0,0,0,.12.17.39.39,0,0,0,.23.07,1.77,1.77,0,0,0,.55-.13l.12,1.06a2.73,2.73,0,0,1-1.08.21,1.72,1.72,0,0,1-.67-.12,1,1,0,0,1-.44-.32,1.27,1.27,0,0,1-.19-.53,6.65,6.65,0,0,1,0-1V35.52h-.63V34.42h.63v-1l1.38-.8v1.83Z"/><path d="M73,36.94a2.81,2.81,0,0,1,.34-1.32,2.31,2.31,0,0,1,1-1,2.83,2.83,0,0,1,1.38-.34,2.59,2.59,0,0,1,1.93.76A2.64,2.64,0,0,1,78.35,37a2.67,2.67,0,0,1-.76,2,2.57,2.57,0,0,1-1.91.77,3,3,0,0,1-1.36-.32,2.21,2.21,0,0,1-1-.94A3.15,3.15,0,0,1,73,36.94Zm1.41.07a1.72,1.72,0,0,0,.37,1.18,1.2,1.2,0,0,0,1.8,0A1.74,1.74,0,0,0,76.94,37a1.71,1.71,0,0,0-.36-1.17,1.2,1.2,0,0,0-1.8,0A1.72,1.72,0,0,0,74.41,37Z"/><path d="M79.39,34.42h1.28v.76a1.91,1.91,0,0,1,.67-.63,1.86,1.86,0,0,1,.94-.24,2,2,0,0,1,1.53.71,2.87,2.87,0,0,1,.63,2,3,3,0,0,1-.63,2,2,2,0,0,1-1.54.72,1.75,1.75,0,0,1-.78-.17,2.62,2.62,0,0,1-.73-.59v2.61H79.39Zm1.36,2.5a2,2,0,0,0,.35,1.29,1.06,1.06,0,0,0,.84.42,1,1,0,0,0,.8-.38A2,2,0,0,0,83,37a1.87,1.87,0,0,0-.33-1.21,1,1,0,0,0-.81-.4,1.05,1.05,0,0,0-.83.39A1.73,1.73,0,0,0,80.74,36.93Z"/><path d="M88.54,38l1.37.23a2.24,2.24,0,0,1-.83,1.15,2.44,2.44,0,0,1-1.42.39,2.32,2.32,0,0,1-2-.88,3,3,0,0,1-.51-1.79,2.86,2.86,0,0,1,.67-2,2.22,2.22,0,0,1,1.7-.73,2.3,2.3,0,0,1,1.83.76A3.38,3.38,0,0,1,90,37.41H86.54a1.39,1.39,0,0,0,.33.95,1,1,0,0,0,.79.34.84.84,0,0,0,.54-.18A1.09,1.09,0,0,0,88.54,38Zm.08-1.39a1.32,1.32,0,0,0-.31-.91,1,1,0,0,0-1.46,0,1.27,1.27,0,0,0-.29.89Z"/><path d="M92.41,39.61H91V34.42h1.27v.74a2.22,2.22,0,0,1,.59-.69,1.08,1.08,0,0,1,.59-.17,1.74,1.74,0,0,1,.9.26L94,35.76a1.2,1.2,0,0,0-.64-.22.76.76,0,0,0-.49.16,1.09,1.09,0,0,0-.31.57A8.14,8.14,0,0,0,92.41,38Z"/><path d="M96,36l-1.25-.22a1.94,1.94,0,0,1,.72-1.11A2.65,2.65,0,0,1,97,34.3a3.28,3.28,0,0,1,1.37.22,1.36,1.36,0,0,1,.63.55,2.83,2.83,0,0,1,.18,1.23v1.6a5.56,5.56,0,0,0,.07,1,2.94,2.94,0,0,0,.25.7H98.14c0-.09-.08-.23-.13-.41L98,39a2.47,2.47,0,0,1-.75.51,2.16,2.16,0,0,1-.85.17,1.77,1.77,0,0,1-1.26-.43,1.44,1.44,0,0,1-.46-1.1,1.47,1.47,0,0,1,.21-.78,1.37,1.37,0,0,1,.59-.53,4.61,4.61,0,0,1,1.09-.32,7.51,7.51,0,0,0,1.33-.34v-.14a.71.71,0,0,0-.2-.56,1.17,1.17,0,0,0-.74-.17,1,1,0,0,0-.57.14A1,1,0,0,0,96,36Zm1.84,1.11q-.26.09-.83.21a2.52,2.52,0,0,0-.75.24A.57.57,0,0,0,96,38a.67.67,0,0,0,.21.5.75.75,0,0,0,.55.21,1.19,1.19,0,0,0,.71-.24.86.86,0,0,0,.33-.45,2.72,2.72,0,0,0,.05-.67Z"/><path d="M102.93,34.42v1.09H102v2.09a5.17,5.17,0,0,0,0,.74.3.3,0,0,0,.12.17.39.39,0,0,0,.23.07,1.77,1.77,0,0,0,.55-.13l.12,1.06a2.73,2.73,0,0,1-1.08.21,1.72,1.72,0,0,1-.67-.12,1,1,0,0,1-.44-.32,1.27,1.27,0,0,1-.19-.53,6.65,6.65,0,0,1,0-1V35.52H100V34.42h.63v-1l1.38-.8v1.83Z"/><path d="M106.88,38l1.37.23a2.24,2.24,0,0,1-.83,1.15,2.44,2.44,0,0,1-1.42.39,2.32,2.32,0,0,1-2-.88,3,3,0,0,1-.51-1.79,2.86,2.86,0,0,1,.67-2,2.22,2.22,0,0,1,1.7-.73,2.3,2.3,0,0,1,1.83.76,3.38,3.38,0,0,1,.64,2.34h-3.44a1.39,1.39,0,0,0,.33.95,1,1,0,0,0,.79.34.84.84,0,0,0,.54-.18A1.09,1.09,0,0,0,106.88,38Zm.08-1.39a1.32,1.32,0,0,0-.31-.91,1,1,0,0,0-1.46,0,1.27,1.27,0,0,0-.29.89Z"/><path d="M114.6,34.42v1.09h-.94v2.09a5.17,5.17,0,0,0,0,.74.3.3,0,0,0,.12.17.39.39,0,0,0,.23.07,1.77,1.77,0,0,0,.55-.13l.12,1.06a2.73,2.73,0,0,1-1.08.21,1.72,1.72,0,0,1-.67-.12,1,1,0,0,1-.44-.32,1.27,1.27,0,0,1-.19-.53,6.65,6.65,0,0,1,0-1V35.52h-.63V34.42h.63v-1l1.38-.8v1.83Z"/><path d="M116.92,32.45v2.63a2.06,2.06,0,0,1,2.44-.6,1.4,1.4,0,0,1,.57.45,1.63,1.63,0,0,1,.26.61,5.4,5.4,0,0,1,.07,1v3h-1.37V36.87a4,4,0,0,0-.08-1,.68.68,0,0,0-.28-.35.89.89,0,0,0-.5-.13,1.14,1.14,0,0,0-.61.17,1,1,0,0,0-.39.5,3,3,0,0,0-.12,1v2.6h-1.37V32.45Z"/><path d="M124.66,38l1.37.23a2.24,2.24,0,0,1-.83,1.15,2.44,2.44,0,0,1-1.42.39,2.32,2.32,0,0,1-2-.88,3,3,0,0,1-.51-1.79,2.86,2.86,0,0,1,.67-2,2.22,2.22,0,0,1,1.7-.73,2.3,2.3,0,0,1,1.83.76,3.38,3.38,0,0,1,.64,2.34h-3.44a1.39,1.39,0,0,0,.33.95,1,1,0,0,0,.79.34.84.84,0,0,0,.54-.18A1.09,1.09,0,0,0,124.66,38Zm.08-1.39a1.32,1.32,0,0,0-.31-.91,1,1,0,0,0-1.46,0,1.27,1.27,0,0,0-.29.89Z"/><path d="M131,39.61l-1.64-5.19h1.33l1,3.4.89-3.4h1.32l.86,3.4,1-3.4h1.35l-1.67,5.19h-1.32l-.89-3.33-.88,3.33Z"/><path d="M138.8,36l-1.25-.22a1.94,1.94,0,0,1,.72-1.11,2.65,2.65,0,0,1,1.52-.36,3.28,3.28,0,0,1,1.37.22,1.36,1.36,0,0,1,.63.55A2.83,2.83,0,0,1,142,36.3v1.6a5.55,5.55,0,0,0,.07,1,3,3,0,0,0,.25.7h-1.36c0-.09-.08-.23-.13-.41l0-.16a2.46,2.46,0,0,1-.75.51,2.16,2.16,0,0,1-.85.17,1.77,1.77,0,0,1-1.26-.43,1.44,1.44,0,0,1-.46-1.1,1.48,1.48,0,0,1,.21-.78,1.37,1.37,0,0,1,.59-.53,4.61,4.61,0,0,1,1.09-.32,7.49,7.49,0,0,0,1.33-.34v-.14a.71.71,0,0,0-.2-.56,1.17,1.17,0,0,0-.74-.17,1,1,0,0,0-.57.14A1,1,0,0,0,138.8,36Zm1.84,1.11q-.26.09-.83.21a2.52,2.52,0,0,0-.75.24.57.57,0,0,0-.27.48.68.68,0,0,0,.21.5.75.75,0,0,0,.55.21,1.19,1.19,0,0,0,.71-.24.86.86,0,0,0,.33-.45,2.69,2.69,0,0,0,.05-.67Z"/><path d="M145.71,34.42v1.09h-.94v2.09a5.05,5.05,0,0,0,0,.74.3.3,0,0,0,.12.17.39.39,0,0,0,.23.07,1.77,1.77,0,0,0,.55-.13l.12,1.06a2.72,2.72,0,0,1-1.08.21,1.72,1.72,0,0,1-.67-.12,1,1,0,0,1-.44-.32,1.28,1.28,0,0,1-.19-.53,6.65,6.65,0,0,1,0-1V35.52h-.63V34.42h.63v-1l1.38-.8v1.83Z"/><path d="M149.67,38l1.37.23a2.24,2.24,0,0,1-.83,1.15,2.45,2.45,0,0,1-1.42.39,2.32,2.32,0,0,1-2-.88,3,3,0,0,1-.51-1.79,2.86,2.86,0,0,1,.67-2,2.22,2.22,0,0,1,1.7-.73,2.3,2.3,0,0,1,1.83.76,3.38,3.38,0,0,1,.64,2.34h-3.44a1.39,1.39,0,0,0,.33.95,1,1,0,0,0,.79.34.84.84,0,0,0,.54-.18A1.08,1.08,0,0,0,149.67,38Zm.08-1.39a1.32,1.32,0,0,0-.31-.91,1,1,0,0,0-1.46,0,1.27,1.27,0,0,0-.29.89Z"/><path d="M153.54,39.61h-1.37V34.42h1.27v.74a2.22,2.22,0,0,1,.59-.69,1.08,1.08,0,0,1,.59-.17,1.74,1.74,0,0,1,.9.26l-.42,1.2a1.2,1.2,0,0,0-.64-.22.76.76,0,0,0-.49.16,1.09,1.09,0,0,0-.31.57,8.09,8.09,0,0,0-.12,1.74Z"/><path d="M160.26,32.45v2.63a2.06,2.06,0,0,1,2.44-.6,1.4,1.4,0,0,1,.57.45,1.65,1.65,0,0,1,.26.61,5.45,5.45,0,0,1,.07,1v3h-1.37V36.87a4,4,0,0,0-.08-1,.68.68,0,0,0-.28-.35.89.89,0,0,0-.5-.13,1.14,1.14,0,0,0-.61.17,1,1,0,0,0-.39.5,3,3,0,0,0-.12,1v2.6h-1.37V32.45Z"/><path d="M168,38l1.37.23a2.24,2.24,0,0,1-.83,1.15,2.45,2.45,0,0,1-1.42.39,2.32,2.32,0,0,1-2-.88,3,3,0,0,1-.51-1.79,2.86,2.86,0,0,1,.67-2A2.22,2.22,0,0,1,167,34.3a2.3,2.3,0,0,1,1.83.76,3.38,3.38,0,0,1,.64,2.34H166a1.39,1.39,0,0,0,.33.95,1,1,0,0,0,.79.34.84.84,0,0,0,.54-.18A1.09,1.09,0,0,0,168,38Zm.08-1.39a1.32,1.32,0,0,0-.31-.91.94.94,0,0,0-.71-.31,1,1,0,0,0-.74.33,1.26,1.26,0,0,0-.29.89Z"/><path d="M171.59,36l-1.25-.22a1.94,1.94,0,0,1,.72-1.11,2.65,2.65,0,0,1,1.52-.36,3.28,3.28,0,0,1,1.37.22,1.37,1.37,0,0,1,.63.55,2.85,2.85,0,0,1,.18,1.23v1.6a5.46,5.46,0,0,0,.07,1,2.92,2.92,0,0,0,.25.7h-1.36c0-.09-.08-.23-.13-.41l0-.16a2.47,2.47,0,0,1-.75.51,2.16,2.16,0,0,1-.85.17,1.76,1.76,0,0,1-1.26-.43,1.44,1.44,0,0,1-.46-1.1,1.48,1.48,0,0,1,.21-.78,1.37,1.37,0,0,1,.59-.53,4.62,4.62,0,0,1,1.09-.32,7.49,7.49,0,0,0,1.33-.34v-.14a.71.71,0,0,0-.2-.56,1.17,1.17,0,0,0-.74-.17,1,1,0,0,0-.57.14A1,1,0,0,0,171.59,36Zm1.84,1.11q-.26.09-.83.21a2.52,2.52,0,0,0-.75.24.57.57,0,0,0-.27.48.67.67,0,0,0,.21.5.75.75,0,0,0,.55.21,1.19,1.19,0,0,0,.71-.24.86.86,0,0,0,.33-.45,2.69,2.69,0,0,0,.05-.67Z"/><path d="M178.51,34.42v1.09h-.94v2.09a5.05,5.05,0,0,0,0,.74.3.3,0,0,0,.12.17.39.39,0,0,0,.23.07,1.78,1.78,0,0,0,.55-.13l.12,1.06a2.73,2.73,0,0,1-1.08.21,1.72,1.72,0,0,1-.67-.12,1,1,0,0,1-.44-.32,1.29,1.29,0,0,1-.19-.53,6.65,6.65,0,0,1,0-1V35.52h-.63V34.42h.63v-1l1.38-.8v1.83Z"/><path d="M182.46,38l1.37.23a2.24,2.24,0,0,1-.83,1.15,2.45,2.45,0,0,1-1.42.39,2.32,2.32,0,0,1-2-.88,3,3,0,0,1-.51-1.79,2.86,2.86,0,0,1,.67-2,2.22,2.22,0,0,1,1.7-.73,2.3,2.3,0,0,1,1.83.76,3.38,3.38,0,0,1,.64,2.34h-3.44a1.39,1.39,0,0,0,.33.95,1,1,0,0,0,.79.34.84.84,0,0,0,.54-.18A1.09,1.09,0,0,0,182.46,38Zm.08-1.39a1.32,1.32,0,0,0-.31-.91,1,1,0,0,0-1.46,0,1.27,1.27,0,0,0-.29.89Z"/><path d="M186.33,39.61H185V34.42h1.27v.74a2.22,2.22,0,0,1,.59-.69,1.08,1.08,0,0,1,.59-.17,1.74,1.74,0,0,1,.9.26l-.42,1.2a1.2,1.2,0,0,0-.64-.22.76.76,0,0,0-.49.16,1.08,1.08,0,0,0-.31.57,8.09,8.09,0,0,0-.12,1.74Z"/><path d="M191.69,33.72V32.45h1.37v1.27Zm0,5.89V34.42h1.37v5.19Z"/><path d="M193.87,34.42h.76V34a2.62,2.62,0,0,1,.14-1,1.1,1.1,0,0,1,.51-.52,2,2,0,0,1,.94-.2,3.82,3.82,0,0,1,1.15.18l-.19,1a2.7,2.7,0,0,0-.63-.08.56.56,0,0,0-.43.14.8.8,0,0,0-.13.53v.37h1V35.5h-1v4.11h-1.37V35.5h-.76Z"/><path d="M200.58,33.72V32.45h1.37v1.27Zm0,5.89V34.42h1.37v5.19Z"/><path d="M205.73,34.42v1.09h-.94v2.09a5.05,5.05,0,0,0,0,.74.3.3,0,0,0,.12.17.39.39,0,0,0,.23.07,1.78,1.78,0,0,0,.55-.13l.12,1.06a2.73,2.73,0,0,1-1.08.21,1.72,1.72,0,0,1-.67-.12,1,1,0,0,1-.44-.32,1.29,1.29,0,0,1-.19-.53,6.65,6.65,0,0,1,0-1V35.52h-.63V34.42h.63v-1l1.38-.8v1.83Z"/><path d="M210.83,32.45v2.63a2.06,2.06,0,0,1,2.44-.6,1.39,1.39,0,0,1,.57.45,1.62,1.62,0,0,1,.26.61,5.35,5.35,0,0,1,.07,1v3h-1.37V36.87a4.07,4.07,0,0,0-.08-1,.68.68,0,0,0-.28-.35.89.89,0,0,0-.5-.13,1.14,1.14,0,0,0-.61.17,1,1,0,0,0-.39.5,3,3,0,0,0-.12,1v2.6h-1.37V32.45Z"/><path d="M216.6,36l-1.25-.22a1.94,1.94,0,0,1,.72-1.11,2.65,2.65,0,0,1,1.52-.36,3.28,3.28,0,0,1,1.37.22,1.37,1.37,0,0,1,.63.55,2.85,2.85,0,0,1,.18,1.23v1.6a5.46,5.46,0,0,0,.07,1,2.92,2.92,0,0,0,.25.7h-1.36c0-.09-.08-.23-.13-.41l0-.16a2.47,2.47,0,0,1-.75.51,2.16,2.16,0,0,1-.85.17,1.76,1.76,0,0,1-1.26-.43,1.44,1.44,0,0,1-.46-1.1,1.48,1.48,0,0,1,.21-.78,1.37,1.37,0,0,1,.59-.53,4.62,4.62,0,0,1,1.09-.32,7.49,7.49,0,0,0,1.33-.34v-.14a.71.71,0,0,0-.2-.56,1.17,1.17,0,0,0-.74-.17,1,1,0,0,0-.57.14A1,1,0,0,0,216.6,36Zm1.84,1.11q-.26.09-.83.21a2.52,2.52,0,0,0-.75.24.57.57,0,0,0-.27.48.67.67,0,0,0,.21.5.75.75,0,0,0,.55.21,1.19,1.19,0,0,0,.71-.24.86.86,0,0,0,.33-.45,2.69,2.69,0,0,0,.05-.67Z"/><path d="M220.65,38.13l1.38-.21a1,1,0,0,0,.36.61,1.2,1.2,0,0,0,.75.21,1.36,1.36,0,0,0,.8-.2.44.44,0,0,0,.18-.37.36.36,0,0,0-.1-.26,1.1,1.1,0,0,0-.46-.18,7.41,7.41,0,0,1-2.1-.67,1.34,1.34,0,0,1-.62-1.17,1.44,1.44,0,0,1,.53-1.13A2.48,2.48,0,0,1,223,34.3a2.88,2.88,0,0,1,1.58.35,1.77,1.77,0,0,1,.71,1l-1.29.24a.8.8,0,0,0-.32-.46,1.15,1.15,0,0,0-.66-.16,1.49,1.49,0,0,0-.78.15.32.32,0,0,0-.16.28.3.3,0,0,0,.14.25,5.14,5.14,0,0,0,1.28.39,3.82,3.82,0,0,1,1.53.61,1.27,1.27,0,0,1,.43,1,1.57,1.57,0,0,1-.6,1.23,2.64,2.64,0,0,1-1.76.51,2.89,2.89,0,0,1-1.68-.43A2,2,0,0,1,220.65,38.13Z"/><path d="M34.11,51.61V44.45h1.37V47A1.94,1.94,0,0,1,37,46.3a2,2,0,0,1,1.57.69,2.84,2.84,0,0,1,.62,2,3,3,0,0,1-.63,2,2,2,0,0,1-1.54.72,1.9,1.9,0,0,1-.88-.22,2.1,2.1,0,0,1-.74-.66v.76Zm1.36-2.71a2.2,2.2,0,0,0,.25,1.19,1.09,1.09,0,0,0,.95.55,1,1,0,0,0,.77-.39A1.91,1.91,0,0,0,37.77,49a2,2,0,0,0-.32-1.28,1,1,0,0,0-.83-.39,1,1,0,0,0-.82.38A1.76,1.76,0,0,0,35.48,48.9Z"/><path d="M43.28,50l1.37.23a2.24,2.24,0,0,1-.83,1.15,2.44,2.44,0,0,1-1.42.39,2.32,2.32,0,0,1-2-.88,3,3,0,0,1-.51-1.79,2.86,2.86,0,0,1,.67-2,2.22,2.22,0,0,1,1.7-.73,2.3,2.3,0,0,1,1.83.76,3.38,3.38,0,0,1,.64,2.34H41.29a1.39,1.39,0,0,0,.33.95,1,1,0,0,0,.79.34.84.84,0,0,0,.54-.18A1.09,1.09,0,0,0,43.28,50Zm.08-1.39a1.32,1.32,0,0,0-.31-.91,1,1,0,0,0-1.46,0,1.27,1.27,0,0,0-.29.89Z"/><path d="M48.84,50l1.37.23a2.24,2.24,0,0,1-.83,1.15,2.44,2.44,0,0,1-1.42.39,2.32,2.32,0,0,1-2-.88,3,3,0,0,1-.51-1.79,2.86,2.86,0,0,1,.67-2,2.22,2.22,0,0,1,1.7-.73,2.3,2.3,0,0,1,1.83.76,3.38,3.38,0,0,1,.64,2.34H46.85a1.39,1.39,0,0,0,.33.95,1,1,0,0,0,.79.34.84.84,0,0,0,.54-.18A1.09,1.09,0,0,0,48.84,50Zm.08-1.39a1.32,1.32,0,0,0-.31-.91,1,1,0,0,0-1.46,0,1.27,1.27,0,0,0-.29.89Z"/><path d="M56.12,51.61H54.75V49a4.09,4.09,0,0,0-.09-1.09.76.76,0,0,0-.29-.38.82.82,0,0,0-.48-.14,1.1,1.1,0,0,0-.64.2,1,1,0,0,0-.39.52,4.48,4.48,0,0,0-.1,1.19v2.35H51.39V46.42h1.27v.76a2.13,2.13,0,0,1,2.54-.72,1.39,1.39,0,0,1,.57.42,1.51,1.51,0,0,1,.27.58,4.3,4.3,0,0,1,.08.92Z"/><path d="M63.29,50l1.37.23a2.24,2.24,0,0,1-.83,1.15,2.44,2.44,0,0,1-1.42.39,2.32,2.32,0,0,1-2-.88,3,3,0,0,1-.51-1.79,2.86,2.86,0,0,1,.67-2,2.22,2.22,0,0,1,1.7-.73,2.3,2.3,0,0,1,1.83.76,3.38,3.38,0,0,1,.64,2.34H61.3a1.39,1.39,0,0,0,.33.95,1,1,0,0,0,.79.34.84.84,0,0,0,.54-.18A1.09,1.09,0,0,0,63.29,50Zm.08-1.39a1.32,1.32,0,0,0-.31-.91,1,1,0,0,0-1.46,0,1.27,1.27,0,0,0-.29.89Z"/><path d="M65.19,51.61l1.87-2.67-1.79-2.51h1.67l.92,1.43,1-1.43h1.61l-1.76,2.46,1.92,2.73H68.92L67.86,50,66.8,51.61Z"/><path d="M71.37,46.42h1.28v.76a1.91,1.91,0,0,1,.67-.63,1.86,1.86,0,0,1,.94-.24A2,2,0,0,1,75.8,47a2.87,2.87,0,0,1,.63,2,3,3,0,0,1-.63,2,2,2,0,0,1-1.54.72,1.75,1.75,0,0,1-.78-.17,2.62,2.62,0,0,1-.73-.59v2.61H71.37Zm1.36,2.5a2,2,0,0,0,.35,1.29,1.06,1.06,0,0,0,.84.42,1,1,0,0,0,.8-.38A2,2,0,0,0,75,49a1.87,1.87,0,0,0-.33-1.21,1,1,0,0,0-.81-.4,1.05,1.05,0,0,0-.83.39A1.73,1.73,0,0,0,72.73,48.93Z"/><path d="M77.2,48.94a2.81,2.81,0,0,1,.34-1.32,2.31,2.31,0,0,1,1-1,2.83,2.83,0,0,1,1.38-.34,2.59,2.59,0,0,1,1.93.76A2.64,2.64,0,0,1,82.56,49a2.67,2.67,0,0,1-.76,2,2.57,2.57,0,0,1-1.91.77,3,3,0,0,1-1.36-.32,2.21,2.21,0,0,1-1-.94A3.15,3.15,0,0,1,77.2,48.94Zm1.41.07A1.72,1.72,0,0,0,79,50.2a1.2,1.2,0,0,0,1.8,0A1.74,1.74,0,0,0,81.14,49a1.71,1.71,0,0,0-.36-1.17,1.2,1.2,0,0,0-1.8,0A1.72,1.72,0,0,0,78.61,49Z"/><path d="M83.15,50.13l1.38-.21a1,1,0,0,0,.36.61,1.21,1.21,0,0,0,.75.21,1.36,1.36,0,0,0,.8-.2.44.44,0,0,0,.18-.37.36.36,0,0,0-.1-.26,1.09,1.09,0,0,0-.46-.18,7.41,7.41,0,0,1-2.1-.67,1.34,1.34,0,0,1-.62-1.17,1.44,1.44,0,0,1,.53-1.13,2.48,2.48,0,0,1,1.65-.46,2.88,2.88,0,0,1,1.58.35,1.77,1.77,0,0,1,.71,1l-1.29.24a.8.8,0,0,0-.31-.46,1.15,1.15,0,0,0-.66-.16,1.49,1.49,0,0,0-.78.15.33.33,0,0,0-.16.28.3.3,0,0,0,.14.25,5.13,5.13,0,0,0,1.28.39,3.82,3.82,0,0,1,1.53.61A1.27,1.27,0,0,1,88,50a1.57,1.57,0,0,1-.6,1.23,2.64,2.64,0,0,1-1.76.51A2.89,2.89,0,0,1,84,51.29,2,2,0,0,1,83.15,50.13Z"/><path d="M92.19,50l1.37.23a2.24,2.24,0,0,1-.83,1.15,2.44,2.44,0,0,1-1.42.39,2.32,2.32,0,0,1-2-.88,3,3,0,0,1-.51-1.79,2.86,2.86,0,0,1,.67-2,2.22,2.22,0,0,1,1.7-.73,2.3,2.3,0,0,1,1.83.76,3.38,3.38,0,0,1,.64,2.34H90.2a1.39,1.39,0,0,0,.33.95,1,1,0,0,0,.79.34.84.84,0,0,0,.54-.18A1.09,1.09,0,0,0,92.19,50Zm.08-1.39a1.32,1.32,0,0,0-.31-.91,1,1,0,0,0-1.46,0,1.27,1.27,0,0,0-.29.89Z"/><path d="M99.51,51.61H98.23v-.76a2.06,2.06,0,0,1-.75.66,1.92,1.92,0,0,1-.87.22A2,2,0,0,1,95.08,51a2.93,2.93,0,0,1-.64-2,2.89,2.89,0,0,1,.62-2,2,2,0,0,1,1.57-.69,1.94,1.94,0,0,1,1.5.72V44.45h1.37ZM95.85,48.9a2.38,2.38,0,0,0,.23,1.2,1,1,0,0,0,.93.54,1,1,0,0,0,.81-.4,1.86,1.86,0,0,0,.33-1.2,2,2,0,0,0-.32-1.29,1,1,0,0,0-.83-.39,1,1,0,0,0-.82.39A1.75,1.75,0,0,0,95.85,48.9Z"/><path d="M106,46.42v1.09h-.94v2.09a5.17,5.17,0,0,0,0,.74.3.3,0,0,0,.12.17.39.39,0,0,0,.23.07,1.77,1.77,0,0,0,.55-.13l.12,1.06a2.73,2.73,0,0,1-1.08.21,1.72,1.72,0,0,1-.67-.12,1,1,0,0,1-.44-.32,1.27,1.27,0,0,1-.19-.53,6.65,6.65,0,0,1,0-1V47.52h-.63V46.42h.63v-1l1.38-.8v1.83Z"/><path d="M106.65,48.94a2.81,2.81,0,0,1,.34-1.32,2.31,2.31,0,0,1,1-1,2.83,2.83,0,0,1,1.38-.34,2.59,2.59,0,0,1,1.93.76A2.64,2.64,0,0,1,112,49a2.67,2.67,0,0,1-.76,2,2.57,2.57,0,0,1-1.91.77A3,3,0,0,1,108,51.4a2.21,2.21,0,0,1-1-.94A3.15,3.15,0,0,1,106.65,48.94Zm1.41.07a1.72,1.72,0,0,0,.37,1.18,1.2,1.2,0,0,0,1.8,0,1.74,1.74,0,0,0,.36-1.19,1.71,1.71,0,0,0-.36-1.17,1.2,1.2,0,0,0-1.8,0A1.72,1.72,0,0,0,108.06,49Z"/><path d="M115.54,48.94a2.81,2.81,0,0,1,.34-1.32,2.31,2.31,0,0,1,1-1,2.83,2.83,0,0,1,1.38-.34,2.59,2.59,0,0,1,1.93.76,2.64,2.64,0,0,1,.75,1.93,2.67,2.67,0,0,1-.76,2,2.57,2.57,0,0,1-1.91.77,3,3,0,0,1-1.36-.32,2.21,2.21,0,0,1-1-.94A3.15,3.15,0,0,1,115.54,48.94Zm1.41.07a1.72,1.72,0,0,0,.37,1.18,1.2,1.2,0,0,0,1.8,0,1.74,1.74,0,0,0,.36-1.19,1.71,1.71,0,0,0-.36-1.17,1.2,1.2,0,0,0-1.8,0A1.72,1.72,0,0,0,116.94,49Z"/><path d="M123.28,51.61h-1.37V46.42h1.27v.74a2.22,2.22,0,0,1,.59-.69,1.08,1.08,0,0,1,.59-.17,1.74,1.74,0,0,1,.9.26l-.42,1.2a1.2,1.2,0,0,0-.64-.22.76.76,0,0,0-.49.16,1.09,1.09,0,0,0-.31.57,8.14,8.14,0,0,0-.11,1.74Z"/><path d="M131.64,50l1.37.23a2.24,2.24,0,0,1-.83,1.15,2.44,2.44,0,0,1-1.42.39,2.32,2.32,0,0,1-2-.88,3,3,0,0,1-.51-1.79,2.86,2.86,0,0,1,.67-2,2.22,2.22,0,0,1,1.7-.73,2.3,2.3,0,0,1,1.83.76,3.38,3.38,0,0,1,.64,2.34h-3.44a1.39,1.39,0,0,0,.33.95,1,1,0,0,0,.79.34.84.84,0,0,0,.54-.18A1.09,1.09,0,0,0,131.64,50Zm.08-1.39a1.32,1.32,0,0,0-.31-.91,1,1,0,0,0-1.46,0,1.27,1.27,0,0,0-.29.89Z"/><path d="M133.54,51.61l1.87-2.67-1.79-2.51h1.67l.92,1.43,1-1.43h1.61L137,48.88l1.92,2.73h-1.68L136.21,50l-1.06,1.61Z"/><path d="M141.12,44.45v2.63a2.06,2.06,0,0,1,2.44-.6,1.4,1.4,0,0,1,.57.45,1.65,1.65,0,0,1,.26.61,5.45,5.45,0,0,1,.07,1v3H143.1V48.87a4,4,0,0,0-.08-1,.68.68,0,0,0-.28-.35.89.89,0,0,0-.5-.13,1.14,1.14,0,0,0-.61.17,1,1,0,0,0-.39.5,3,3,0,0,0-.12,1v2.6h-1.37V44.45Z"/><path d="M145.87,45.72V44.45h1.37v1.27Zm0,5.89V46.42h1.37v5.19Z"/><path d="M148.59,51.61V44.45H150V47a1.94,1.94,0,0,1,1.5-.72A2,2,0,0,1,153,47a2.84,2.84,0,0,1,.62,2,3,3,0,0,1-.63,2,2,2,0,0,1-1.54.72,1.9,1.9,0,0,1-.88-.22,2.1,2.1,0,0,1-.75-.66v.76Zm1.36-2.71a2.21,2.21,0,0,0,.25,1.19,1.09,1.09,0,0,0,.95.55,1,1,0,0,0,.77-.39,1.91,1.91,0,0,0,.32-1.22,2,2,0,0,0-.32-1.28,1,1,0,0,0-.83-.39,1,1,0,0,0-.82.38A1.76,1.76,0,0,0,149.95,48.9Z"/><path d="M154.75,45.72V44.45h1.37v1.27Zm0,5.89V46.42h1.37v5.19Z"/><path d="M159.91,46.42v1.09H159v2.09a5.05,5.05,0,0,0,0,.74.3.3,0,0,0,.12.17.39.39,0,0,0,.23.07,1.77,1.77,0,0,0,.55-.13l.12,1.06a2.72,2.72,0,0,1-1.08.21,1.72,1.72,0,0,1-.67-.12,1,1,0,0,1-.44-.32,1.28,1.28,0,0,1-.19-.53,6.65,6.65,0,0,1,0-1V47.52H157V46.42h.63v-1l1.38-.8v1.83Z"/><path d="M160.38,50.13l1.38-.21a1,1,0,0,0,.36.61,1.21,1.21,0,0,0,.75.21,1.35,1.35,0,0,0,.8-.2.43.43,0,0,0,.18-.37.36.36,0,0,0-.1-.26,1.09,1.09,0,0,0-.46-.18,7.42,7.42,0,0,1-2.1-.67,1.34,1.34,0,0,1-.62-1.17,1.44,1.44,0,0,1,.53-1.13,2.49,2.49,0,0,1,1.65-.46,2.88,2.88,0,0,1,1.58.35,1.77,1.77,0,0,1,.71,1l-1.29.24a.8.8,0,0,0-.31-.46,1.15,1.15,0,0,0-.66-.16,1.49,1.49,0,0,0-.78.15.33.33,0,0,0-.16.28A.3.3,0,0,0,162,48a5.14,5.14,0,0,0,1.28.39,3.81,3.81,0,0,1,1.53.61,1.27,1.27,0,0,1,.43,1,1.57,1.57,0,0,1-.6,1.23,2.64,2.64,0,0,1-1.76.51,2.89,2.89,0,0,1-1.68-.43A2,2,0,0,1,160.38,50.13Z"/><path d="M171.58,46.42v1.09h-.94v2.09a5.05,5.05,0,0,0,0,.74.3.3,0,0,0,.12.17.39.39,0,0,0,.23.07,1.78,1.78,0,0,0,.55-.13l.12,1.06a2.73,2.73,0,0,1-1.08.21,1.72,1.72,0,0,1-.67-.12,1,1,0,0,1-.44-.32,1.29,1.29,0,0,1-.19-.53,6.65,6.65,0,0,1,0-1V47.52h-.63V46.42h.63v-1l1.38-.8v1.83Z"/><path d="M173.9,44.45v2.63a2.06,2.06,0,0,1,2.44-.6,1.39,1.39,0,0,1,.57.45,1.62,1.62,0,0,1,.26.61,5.35,5.35,0,0,1,.07,1v3h-1.37V48.87a4.07,4.07,0,0,0-.08-1,.68.68,0,0,0-.28-.35.89.89,0,0,0-.5-.13,1.14,1.14,0,0,0-.61.17,1,1,0,0,0-.39.5,3,3,0,0,0-.12,1v2.6h-1.37V44.45Z"/><path d="M181.64,50l1.37.23a2.24,2.24,0,0,1-.83,1.15,2.45,2.45,0,0,1-1.42.39,2.32,2.32,0,0,1-2-.88,3,3,0,0,1-.51-1.79,2.86,2.86,0,0,1,.67-2,2.22,2.22,0,0,1,1.7-.73,2.3,2.3,0,0,1,1.83.76,3.38,3.38,0,0,1,.64,2.34h-3.44a1.39,1.39,0,0,0,.33.95,1,1,0,0,0,.79.34.84.84,0,0,0,.54-.18A1.09,1.09,0,0,0,181.64,50Zm.08-1.39a1.32,1.32,0,0,0-.31-.91,1,1,0,0,0-1.46,0,1.27,1.27,0,0,0-.29.89Z"/><path d="M186.38,46.42h.76V46a2.62,2.62,0,0,1,.14-1,1.1,1.1,0,0,1,.51-.52,2,2,0,0,1,.94-.2,3.82,3.82,0,0,1,1.15.18l-.19,1a2.7,2.7,0,0,0-.63-.08.56.56,0,0,0-.43.14.8.8,0,0,0-.13.53v.37h1V47.5h-1v4.11h-1.37V47.5h-.76Z"/><path d="M190,48.94a2.81,2.81,0,0,1,.34-1.32,2.32,2.32,0,0,1,1-1,2.84,2.84,0,0,1,1.38-.34,2.59,2.59,0,0,1,1.93.76,2.64,2.64,0,0,1,.75,1.93,2.67,2.67,0,0,1-.76,2,2.56,2.56,0,0,1-1.91.77,3,3,0,0,1-1.36-.32,2.21,2.21,0,0,1-1-.94A3.15,3.15,0,0,1,190,48.94Zm1.41.07a1.72,1.72,0,0,0,.37,1.18,1.2,1.2,0,0,0,1.8,0,1.74,1.74,0,0,0,.36-1.19,1.71,1.71,0,0,0-.36-1.17,1.2,1.2,0,0,0-1.8,0A1.72,1.72,0,0,0,191.4,49Z"/><path d="M196.42,51.61V44.45h1.37v7.16Z"/><path d="M199.2,51.61V44.45h1.37v7.16Z"/><path d="M201.66,48.94a2.81,2.81,0,0,1,.34-1.32,2.32,2.32,0,0,1,1-1,2.84,2.84,0,0,1,1.38-.34,2.59,2.59,0,0,1,1.93.76A2.64,2.64,0,0,1,207,49a2.67,2.67,0,0,1-.76,2,2.56,2.56,0,0,1-1.91.77A3,3,0,0,1,203,51.4a2.21,2.21,0,0,1-1-.94A3.15,3.15,0,0,1,201.66,48.94Zm1.41.07a1.72,1.72,0,0,0,.37,1.18,1.2,1.2,0,0,0,1.8,0A1.74,1.74,0,0,0,205.6,49a1.71,1.71,0,0,0-.36-1.17,1.2,1.2,0,0,0-1.8,0A1.72,1.72,0,0,0,203.06,49Z"/><path d="M209,51.61l-1.64-5.19h1.33l1,3.4.89-3.4h1.32l.86,3.4,1-3.4h1.35l-1.67,5.19h-1.32l-.89-3.33-.88,3.33Z"/><path d="M215.86,45.72V44.45h1.37v1.27Zm0,5.89V46.42h1.37v5.19Z"/><path d="M223.36,51.61H222V49a4.09,4.09,0,0,0-.09-1.09.77.77,0,0,0-.29-.38.82.82,0,0,0-.48-.14,1.1,1.1,0,0,0-.64.2,1,1,0,0,0-.39.52,4.45,4.45,0,0,0-.11,1.19v2.35h-1.37V46.42h1.27v.76a2.13,2.13,0,0,1,2.54-.72,1.38,1.38,0,0,1,.57.42,1.52,1.52,0,0,1,.27.58,4.33,4.33,0,0,1,.08.92Z"/><path d="M224.62,51.95l1.57.19a.54.54,0,0,0,.18.38,1,1,0,0,0,.62.15,1.6,1.6,0,0,0,.81-.16.66.66,0,0,0,.27-.35,2.09,2.09,0,0,0,.06-.63v-.76a1.86,1.86,0,0,1-1.55.84,1.91,1.91,0,0,1-1.66-.88,3,3,0,0,1-.48-1.74,2.86,2.86,0,0,1,.63-2,2,2,0,0,1,1.56-.69,1.9,1.9,0,0,1,1.59.84v-.73h1.28v4.65a4.65,4.65,0,0,1-.15,1.37,1.69,1.69,0,0,1-.42.71,1.88,1.88,0,0,1-.73.41,3.83,3.83,0,0,1-1.15.15,3,3,0,0,1-1.87-.45,1.42,1.42,0,0,1-.55-1.15S224.62,52,224.62,51.95Zm1.23-3a1.87,1.87,0,0,0,.32,1.21,1,1,0,0,0,.79.38,1.09,1.09,0,0,0,.85-.39,1.71,1.71,0,0,0,.35-1.16,1.81,1.81,0,0,0-.33-1.2,1.06,1.06,0,0,0-.84-.39,1,1,0,0,0-.81.38A1.79,1.79,0,0,0,225.85,48.91Z"/><path d="M231.12,47.79V46.42h1.37v1.37Zm0,3.81V50.24h1.37v1.37Z"/><path d="M26.44,71.61V65.17H31.1v.76H27.3v2h3.56v.76H27.3v2.19h4v.76Z"/><path d="M31.8,71.61l1.71-2.43-1.58-2.24h1L33.63,68l.33.52.36-.51.79-1.1H36l-1.61,2.2,1.74,2.47h-1l-1-1.45L34,69.77l-1.23,1.84Z"/><path d="M36.83,73.4V66.94h.72v.61a1.78,1.78,0,0,1,.58-.53,1.59,1.59,0,0,1,.78-.18,1.84,1.84,0,0,1,1.05.31,1.89,1.89,0,0,1,.69.87,3.17,3.17,0,0,1,.23,1.23,3.11,3.11,0,0,1-.26,1.29,2,2,0,0,1-1.78,1.18,1.49,1.49,0,0,1-.71-.17,1.62,1.62,0,0,1-.52-.42V73.4Zm.72-4.1a2,2,0,0,0,.36,1.33,1.12,1.12,0,0,0,.88.43,1.14,1.14,0,0,0,.9-.45,2.12,2.12,0,0,0,.38-1.38,2.06,2.06,0,0,0-.37-1.34,1.11,1.11,0,0,0-.88-.44,1.14,1.14,0,0,0-.89.47A2.12,2.12,0,0,0,37.55,69.3Z"/><path d="M41.54,69.28a2.41,2.41,0,0,1,.72-1.92,2.17,2.17,0,0,1,1.47-.52,2.09,2.09,0,0,1,1.57.63,2.4,2.4,0,0,1,.61,1.74,3.09,3.09,0,0,1-.27,1.42,1.92,1.92,0,0,1-.79.8,2.29,2.29,0,0,1-1.13.29,2.1,2.1,0,0,1-1.58-.63A2.51,2.51,0,0,1,41.54,69.28Zm.81,0a2,2,0,0,0,.39,1.34,1.3,1.3,0,0,0,2,0,2,2,0,0,0,.39-1.37,1.93,1.93,0,0,0-.39-1.31,1.3,1.3,0,0,0-2,0A2,2,0,0,0,42.35,69.28Z"/><path d="M46.52,70.22l.78-.12a1.09,1.09,0,0,0,.37.72,1.28,1.28,0,0,0,.84.25,1.23,1.23,0,0,0,.81-.22.66.66,0,0,0,.26-.52.48.48,0,0,0-.23-.42,3.43,3.43,0,0,0-.81-.27,7.41,7.41,0,0,1-1.21-.38,1.15,1.15,0,0,1-.68-1.07,1.2,1.2,0,0,1,.14-.58,1.28,1.28,0,0,1,.39-.44,1.63,1.63,0,0,1,.5-.23,2.39,2.39,0,0,1,.68-.09,2.7,2.7,0,0,1,1,.16,1.31,1.31,0,0,1,.61.43,1.67,1.67,0,0,1,.27.72l-.77.11a.85.85,0,0,0-.31-.56,1.12,1.12,0,0,0-.71-.2,1.29,1.29,0,0,0-.78.18.52.52,0,0,0-.23.42.44.44,0,0,0,.1.28.7.7,0,0,0,.3.21l.7.2a9.75,9.75,0,0,1,1.17.37,1.19,1.19,0,0,1,.52.42,1.16,1.16,0,0,1,.19.68,1.33,1.33,0,0,1-.23.75,1.49,1.49,0,0,1-.67.54,2.42,2.42,0,0,1-1,.19,2.19,2.19,0,0,1-1.39-.38A1.75,1.75,0,0,1,46.52,70.22Z"/><path d="M54.53,70.11l.82.1a2,2,0,0,1-.72,1.11,2.15,2.15,0,0,1-1.34.4,2.13,2.13,0,0,1-1.62-.63,2.46,2.46,0,0,1-.6-1.77,2.58,2.58,0,0,1,.61-1.83,2.05,2.05,0,0,1,1.57-.65,2,2,0,0,1,1.53.64,2.53,2.53,0,0,1,.59,1.79s0,.12,0,.21H51.89a1.79,1.79,0,0,0,.44,1.18,1.29,1.29,0,0,0,1,.41,1.21,1.21,0,0,0,.74-.23A1.52,1.52,0,0,0,54.53,70.11Zm-2.6-1.28h2.61a1.58,1.58,0,0,0-.3-.88,1.21,1.21,0,0,0-1-.46,1.26,1.26,0,0,0-.92.36A1.44,1.44,0,0,0,51.94,68.83Z"/><path d="M59.37,71.61V71a1.45,1.45,0,0,1-1.3.69,1.83,1.83,0,0,1-1-.31,2,2,0,0,1-.73-.86,3,3,0,0,1-.26-1.27A3.32,3.32,0,0,1,56.29,68a1.84,1.84,0,0,1,.7-.87,1.87,1.87,0,0,1,1-.3,1.55,1.55,0,0,1,.75.18,1.58,1.58,0,0,1,.54.46V65.17h.79v6.44Zm-2.5-2.33a2,2,0,0,0,.38,1.34,1.14,1.14,0,0,0,.89.44,1.12,1.12,0,0,0,.88-.42,2,2,0,0,0,.36-1.29A2.19,2.19,0,0,0,59,67.94a1.14,1.14,0,0,0-.91-.45,1.09,1.09,0,0,0-.88.43A2.12,2.12,0,0,0,56.87,69.28Z"/><path d="M65.58,70.9l.11.7a2.93,2.93,0,0,1-.6.07,1.35,1.35,0,0,1-.67-.14.76.76,0,0,1-.33-.36,2.83,2.83,0,0,1-.1-.93V67.56h-.58v-.62H64V65.79l.79-.47v1.63h.79v.62h-.79v2.73a1.4,1.4,0,0,0,0,.44.33.33,0,0,0,.14.15.52.52,0,0,0,.27.06Z"/><path d="M66.06,69.28a2.41,2.41,0,0,1,.72-1.92,2.17,2.17,0,0,1,1.47-.52,2.09,2.09,0,0,1,1.57.63,2.4,2.4,0,0,1,.61,1.74,3.09,3.09,0,0,1-.27,1.42,1.91,1.91,0,0,1-.79.8,2.29,2.29,0,0,1-1.13.29,2.1,2.1,0,0,1-1.58-.63A2.51,2.51,0,0,1,66.06,69.28Zm.81,0a2,2,0,0,0,.39,1.34,1.3,1.3,0,0,0,2,0,2,2,0,0,0,.39-1.37,1.93,1.93,0,0,0-.39-1.31,1.3,1.3,0,0,0-2,0A2,2,0,0,0,66.87,69.28Z"/><path d="M74,71.61V67.56h-.7v-.62H74v-.5a2.18,2.18,0,0,1,.08-.7,1,1,0,0,1,.4-.5,1.46,1.46,0,0,1,.81-.19,3.87,3.87,0,0,1,.74.08l-.12.69a2.65,2.65,0,0,0-.46,0,.69.69,0,0,0-.51.15.83.83,0,0,0-.15.58v.43h.91v.62h-.91v4.05Z"/><path d="M76.34,71.61V65.17h.79v6.44Z"/><path d="M78.06,69.28a2.41,2.41,0,0,1,.72-1.92,2.17,2.17,0,0,1,1.47-.52,2.09,2.09,0,0,1,1.57.63,2.4,2.4,0,0,1,.61,1.74,3.09,3.09,0,0,1-.27,1.42,1.91,1.91,0,0,1-.79.8,2.29,2.29,0,0,1-1.13.29,2.1,2.1,0,0,1-1.58-.63A2.51,2.51,0,0,1,78.06,69.28Zm.81,0a2,2,0,0,0,.39,1.34,1.3,1.3,0,0,0,2,0,2,2,0,0,0,.39-1.37,1.93,1.93,0,0,0-.39-1.31,1.3,1.3,0,0,0-2,0A2,2,0,0,0,78.88,69.28Z"/><path d="M83.07,69.28a2.41,2.41,0,0,1,.72-1.92,2.17,2.17,0,0,1,1.47-.52,2.09,2.09,0,0,1,1.57.63,2.4,2.4,0,0,1,.61,1.74,3.09,3.09,0,0,1-.27,1.42,1.91,1.91,0,0,1-.79.8,2.29,2.29,0,0,1-1.13.29,2.1,2.1,0,0,1-1.58-.63A2.51,2.51,0,0,1,83.07,69.28Zm.81,0a2,2,0,0,0,.39,1.34,1.3,1.3,0,0,0,2,0,2,2,0,0,0,.39-1.37,1.93,1.93,0,0,0-.39-1.31,1.3,1.3,0,0,0-2,0A2,2,0,0,0,83.88,69.28Z"/><path d="M91.4,71.61V71a1.45,1.45,0,0,1-1.3.69,1.83,1.83,0,0,1-1-.31,2,2,0,0,1-.73-.86,3,3,0,0,1-.26-1.27A3.3,3.3,0,0,1,88.32,68a1.83,1.83,0,0,1,.7-.87,1.87,1.87,0,0,1,1-.3,1.56,1.56,0,0,1,.75.18,1.58,1.58,0,0,1,.54.46V65.17h.79v6.44Zm-2.5-2.33a2,2,0,0,0,.38,1.34,1.14,1.14,0,0,0,.89.44,1.12,1.12,0,0,0,.88-.42,2,2,0,0,0,.36-1.29A2.19,2.19,0,0,0,91,67.94a1.14,1.14,0,0,0-.91-.45,1.09,1.09,0,0,0-.88.43A2.12,2.12,0,0,0,88.9,69.28Z"/><path d="M93.38,66.08v-.91h.79v.91Zm0,5.53V66.94h.79v4.67Z"/><path d="M95.37,71.61V66.94h.71v.66a1.68,1.68,0,0,1,1.49-.77,2,2,0,0,1,.78.15,1.23,1.23,0,0,1,.53.4,1.53,1.53,0,0,1,.25.58,4.53,4.53,0,0,1,0,.77v2.87h-.79V68.77a2.1,2.1,0,0,0-.09-.72.76.76,0,0,0-.33-.38,1,1,0,0,0-.55-.14,1.28,1.28,0,0,0-.87.32,1.58,1.58,0,0,0-.37,1.22v2.55Z"/><path d="M100.23,72l.77.11a.73.73,0,0,0,.27.52,1.32,1.32,0,0,0,.8.22,1.41,1.41,0,0,0,.85-.22,1.08,1.08,0,0,0,.4-.62,5.11,5.11,0,0,0,.06-1,1.63,1.63,0,0,1-1.29.61,1.76,1.76,0,0,1-1.49-.69,2.67,2.67,0,0,1-.53-1.67,3.1,3.1,0,0,1,.24-1.23,1.94,1.94,0,0,1,.7-.87,1.89,1.89,0,0,1,1.08-.31,1.67,1.67,0,0,1,1.36.67v-.56h.73v4a3.84,3.84,0,0,1-.22,1.54,1.63,1.63,0,0,1-.7.72,2.44,2.44,0,0,1-1.18.26,2.23,2.23,0,0,1-1.35-.38A1.27,1.27,0,0,1,100.23,72Zm.66-2.8a2,2,0,0,0,.36,1.34,1.2,1.2,0,0,0,1.83,0,2,2,0,0,0,.37-1.32,1.92,1.92,0,0,0-.38-1.29,1.18,1.18,0,0,0-.92-.44,1.14,1.14,0,0,0-.9.43A1.9,1.9,0,0,0,100.89,69.19Z"/><path d="M107.59,69.28a2.41,2.41,0,0,1,.72-1.92,2.17,2.17,0,0,1,1.47-.52,2.09,2.09,0,0,1,1.57.63,2.4,2.4,0,0,1,.61,1.74,3.09,3.09,0,0,1-.27,1.42,1.91,1.91,0,0,1-.79.8,2.29,2.29,0,0,1-1.13.29,2.1,2.1,0,0,1-1.58-.63A2.51,2.51,0,0,1,107.59,69.28Zm.81,0a2,2,0,0,0,.39,1.34,1.3,1.3,0,0,0,2,0,2,2,0,0,0,.39-1.37,1.93,1.93,0,0,0-.39-1.31,1.3,1.3,0,0,0-2,0A2,2,0,0,0,108.4,69.28Z"/><path d="M112.88,71.61V66.94h.71v.71a1.91,1.91,0,0,1,.5-.65.88.88,0,0,1,.51-.16,1.54,1.54,0,0,1,.81.25l-.27.73a1.13,1.13,0,0,0-.58-.17.75.75,0,0,0-.47.16.84.84,0,0,0-.29.43,3.08,3.08,0,0,0-.13.92v2.44Z"/><path d="M119.25,71.61l-1.43-4.67h.82l.74,2.69.28,1,.24-1,.74-2.73h.81l.7,2.71.23.89.27-.9.8-2.7h.77l-1.46,4.67h-.82l-.74-2.79L121,68l-.94,3.59Z"/><path d="M127.93,71a3,3,0,0,1-.85.53,2.45,2.45,0,0,1-.87.15,1.69,1.69,0,0,1-1.18-.38,1.24,1.24,0,0,1-.41-1,1.27,1.27,0,0,1,.16-.63,1.29,1.29,0,0,1,.41-.46,1.93,1.93,0,0,1,.57-.26,5.65,5.65,0,0,1,.7-.12,7.22,7.22,0,0,0,1.41-.27c0-.11,0-.18,0-.21a.88.88,0,0,0-.22-.68,1.33,1.33,0,0,0-.9-.27,1.4,1.4,0,0,0-.82.2,1.2,1.2,0,0,0-.39.69l-.77-.11a1.92,1.92,0,0,1,.35-.8,1.52,1.52,0,0,1,.7-.47,3.1,3.1,0,0,1,1.06-.17,2.8,2.8,0,0,1,1,.14,1.29,1.29,0,0,1,.55.35,1.25,1.25,0,0,1,.25.54,4.44,4.44,0,0,1,0,.73v1.05a11.34,11.34,0,0,0,0,1.4,1.77,1.77,0,0,0,.2.56h-.83A1.67,1.67,0,0,1,127.93,71Zm-.07-1.77a5.81,5.81,0,0,1-1.29.3,3,3,0,0,0-.69.16.68.68,0,0,0-.31.26.67.67,0,0,0-.11.38.67.67,0,0,0,.24.53,1,1,0,0,0,.7.21,1.62,1.62,0,0,0,.81-.2,1.22,1.22,0,0,0,.52-.55,1.91,1.91,0,0,0,.13-.79Z"/><path d="M131.62,70.9l.11.7a2.93,2.93,0,0,1-.6.07,1.35,1.35,0,0,1-.67-.14.76.76,0,0,1-.33-.36,2.83,2.83,0,0,1-.1-.93V67.56h-.58v-.62H130V65.79l.79-.47v1.63h.79v.62h-.79v2.73a1.4,1.4,0,0,0,0,.44.33.33,0,0,0,.14.15.52.52,0,0,0,.27.06Z"/><path d="M135.59,70.11l.82.1a2,2,0,0,1-.72,1.11,2.15,2.15,0,0,1-1.34.4,2.13,2.13,0,0,1-1.62-.63,2.46,2.46,0,0,1-.6-1.77,2.58,2.58,0,0,1,.61-1.83,2.05,2.05,0,0,1,1.57-.65,2,2,0,0,1,1.53.64,2.54,2.54,0,0,1,.59,1.79s0,.12,0,.21h-3.48a1.79,1.79,0,0,0,.44,1.18,1.29,1.29,0,0,0,1,.41,1.21,1.21,0,0,0,.74-.23A1.52,1.52,0,0,0,135.59,70.11ZM133,68.83h2.61a1.58,1.58,0,0,0-.3-.88,1.21,1.21,0,0,0-1-.46,1.26,1.26,0,0,0-.92.36A1.44,1.44,0,0,0,133,68.83Z"/><path d="M137.39,71.61V66.94h.71v.71a1.91,1.91,0,0,1,.5-.65.88.88,0,0,1,.51-.16,1.54,1.54,0,0,1,.81.25l-.27.73a1.13,1.13,0,0,0-.58-.17.75.75,0,0,0-.47.16.84.84,0,0,0-.29.43,3.08,3.08,0,0,0-.13.92v2.44Z"/><path d="M145.92,71.61V71a1.45,1.45,0,0,1-1.3.69,1.83,1.83,0,0,1-1-.31,2,2,0,0,1-.73-.86,3,3,0,0,1-.26-1.27,3.3,3.3,0,0,1,.23-1.27,1.83,1.83,0,0,1,.7-.87,1.87,1.87,0,0,1,1-.3,1.56,1.56,0,0,1,.75.18,1.58,1.58,0,0,1,.54.46V65.17h.79v6.44Zm-2.5-2.33a2,2,0,0,0,.38,1.34,1.14,1.14,0,0,0,.89.44,1.12,1.12,0,0,0,.88-.42,2,2,0,0,0,.36-1.29,2.19,2.19,0,0,0-.37-1.41,1.14,1.14,0,0,0-.91-.45,1.09,1.09,0,0,0-.88.43A2.12,2.12,0,0,0,143.42,69.28Z"/><path d="M150.95,71a3,3,0,0,1-.85.53,2.45,2.45,0,0,1-.87.15,1.69,1.69,0,0,1-1.18-.38,1.24,1.24,0,0,1-.41-1,1.27,1.27,0,0,1,.16-.63,1.29,1.29,0,0,1,.41-.46,1.93,1.93,0,0,1,.57-.26,5.65,5.65,0,0,1,.7-.12,7.22,7.22,0,0,0,1.41-.27c0-.11,0-.18,0-.21a.88.88,0,0,0-.22-.68,1.33,1.33,0,0,0-.9-.27,1.4,1.4,0,0,0-.82.2,1.2,1.2,0,0,0-.39.69l-.77-.11a1.92,1.92,0,0,1,.35-.8,1.52,1.52,0,0,1,.7-.47,3.1,3.1,0,0,1,1.06-.17,2.8,2.8,0,0,1,1,.14,1.29,1.29,0,0,1,.55.35,1.25,1.25,0,0,1,.25.54,4.44,4.44,0,0,1,0,.73v1.05a11.34,11.34,0,0,0,0,1.4,1.77,1.77,0,0,0,.2.56h-.83A1.67,1.67,0,0,1,150.95,71Zm-.07-1.77a5.81,5.81,0,0,1-1.29.3,3,3,0,0,0-.69.16.68.68,0,0,0-.31.26.67.67,0,0,0-.11.38.67.67,0,0,0,.24.53,1,1,0,0,0,.7.21,1.62,1.62,0,0,0,.81-.2,1.22,1.22,0,0,0,.52-.55,1.91,1.91,0,0,0,.13-.79Z"/><path d="M152.91,71.61V66.94h.71v.65a1.66,1.66,0,0,1,.58-.55,1.64,1.64,0,0,1,.83-.21,1.54,1.54,0,0,1,.85.22,1.15,1.15,0,0,1,.47.6,1.68,1.68,0,0,1,1.44-.82,1.42,1.42,0,0,1,1.07.38,1.64,1.64,0,0,1,.37,1.18v3.2h-.79V68.67a2.18,2.18,0,0,0-.08-.68.67.67,0,0,0-.28-.34.87.87,0,0,0-.47-.13,1.11,1.11,0,0,0-.82.33,1.44,1.44,0,0,0-.33,1v2.71h-.79v-3a1.33,1.33,0,0,0-.19-.79.73.73,0,0,0-.63-.26,1.15,1.15,0,0,0-.62.18,1,1,0,0,0-.41.51,2.9,2.9,0,0,0-.13,1v2.42Z"/><path d="M163.45,71a3,3,0,0,1-.85.53,2.45,2.45,0,0,1-.87.15,1.69,1.69,0,0,1-1.18-.38,1.24,1.24,0,0,1-.41-1,1.27,1.27,0,0,1,.16-.63,1.29,1.29,0,0,1,.41-.46,1.93,1.93,0,0,1,.57-.26,5.65,5.65,0,0,1,.7-.12,7.22,7.22,0,0,0,1.41-.27c0-.11,0-.18,0-.21a.88.88,0,0,0-.22-.68,1.33,1.33,0,0,0-.9-.27,1.4,1.4,0,0,0-.82.2,1.2,1.2,0,0,0-.39.69l-.77-.11a1.92,1.92,0,0,1,.35-.8,1.52,1.52,0,0,1,.7-.47,3.1,3.1,0,0,1,1.06-.17,2.8,2.8,0,0,1,1,.14,1.29,1.29,0,0,1,.55.35,1.25,1.25,0,0,1,.25.54,4.44,4.44,0,0,1,0,.73v1.05a11.34,11.34,0,0,0,0,1.4,1.77,1.77,0,0,0,.2.56h-.83A1.67,1.67,0,0,1,163.45,71Zm-.07-1.77a5.81,5.81,0,0,1-1.29.3,3,3,0,0,0-.69.16.68.68,0,0,0-.31.26.67.67,0,0,0-.11.38.67.67,0,0,0,.24.53,1,1,0,0,0,.7.21,1.62,1.62,0,0,0,.81-.2,1.22,1.22,0,0,0,.52-.55,1.91,1.91,0,0,0,.13-.79Z"/><path d="M165.26,72l.77.11a.73.73,0,0,0,.27.52,1.32,1.32,0,0,0,.8.22,1.41,1.41,0,0,0,.85-.22,1.08,1.08,0,0,0,.4-.62,5.11,5.11,0,0,0,.06-1,1.63,1.63,0,0,1-1.29.61,1.76,1.76,0,0,1-1.49-.69,2.67,2.67,0,0,1-.53-1.67,3.1,3.1,0,0,1,.24-1.23,1.94,1.94,0,0,1,.7-.87,1.89,1.89,0,0,1,1.08-.31,1.67,1.67,0,0,1,1.36.67v-.56h.73v4a3.84,3.84,0,0,1-.22,1.54,1.63,1.63,0,0,1-.7.72,2.44,2.44,0,0,1-1.18.26,2.23,2.23,0,0,1-1.35-.38A1.27,1.27,0,0,1,165.26,72Zm.66-2.8a2,2,0,0,0,.36,1.34,1.2,1.2,0,0,0,1.83,0,2,2,0,0,0,.37-1.32,1.92,1.92,0,0,0-.38-1.29,1.18,1.18,0,0,0-.92-.44,1.14,1.14,0,0,0-.9.43A1.9,1.9,0,0,0,165.92,69.19Z"/><path d="M173.61,70.11l.82.1a2,2,0,0,1-.72,1.11,2.15,2.15,0,0,1-1.34.4,2.13,2.13,0,0,1-1.62-.63,2.46,2.46,0,0,1-.6-1.77,2.58,2.58,0,0,1,.61-1.83,2.05,2.05,0,0,1,1.57-.65,2,2,0,0,1,1.53.64,2.54,2.54,0,0,1,.59,1.79s0,.12,0,.21H171a1.79,1.79,0,0,0,.44,1.18,1.29,1.29,0,0,0,1,.41,1.21,1.21,0,0,0,.74-.23A1.52,1.52,0,0,0,173.61,70.11ZM171,68.83h2.61a1.58,1.58,0,0,0-.3-.88,1.21,1.21,0,0,0-1-.46,1.26,1.26,0,0,0-.92.36A1.44,1.44,0,0,0,171,68.83Z"/><path d="M26.55,82.41v-.9h.9v.9Z"/><path d="M19.24,68.12a1.73,1.73,0,1,1-.51-1.22A1.67,1.67,0,0,1,19.24,68.12Z"/><path d="M26.44,84.61V78.17H31.1v.76H27.3v2h3.56v.76H27.3v2.19h4v.76Z"/><path d="M31.8,84.61l1.71-2.43-1.58-2.24h1L33.63,81l.33.52.36-.51.79-1.1H36l-1.61,2.2,1.74,2.47h-1l-1-1.45L34,82.77l-1.23,1.84Z"/><path d="M38.56,83.9l.11.7a2.93,2.93,0,0,1-.6.07,1.35,1.35,0,0,1-.67-.14.76.76,0,0,1-.33-.36,2.83,2.83,0,0,1-.1-.93V80.56h-.58v-.62H37V78.79l.79-.47v1.63h.8v.62h-.8v2.73a1.38,1.38,0,0,0,0,.43.33.33,0,0,0,.14.15.52.52,0,0,0,.27.06Z"/><path d="M42.52,83.11l.82.1a2,2,0,0,1-.72,1.11,2.15,2.15,0,0,1-1.34.4,2.13,2.13,0,0,1-1.62-.63,2.46,2.46,0,0,1-.6-1.77,2.58,2.58,0,0,1,.61-1.83,2.05,2.05,0,0,1,1.57-.65,2,2,0,0,1,1.53.64,2.53,2.53,0,0,1,.59,1.79s0,.12,0,.21H39.88a1.79,1.79,0,0,0,.44,1.18,1.29,1.29,0,0,0,1,.41,1.21,1.21,0,0,0,.74-.23A1.52,1.52,0,0,0,42.52,83.11Zm-2.6-1.28h2.61a1.58,1.58,0,0,0-.3-.88,1.21,1.21,0,0,0-1-.46,1.26,1.26,0,0,0-.92.37A1.44,1.44,0,0,0,39.93,81.83Z"/><path d="M44.33,84.61V79.94H45v.71a1.93,1.93,0,0,1,.5-.66.88.88,0,0,1,.51-.16,1.54,1.54,0,0,1,.81.25l-.27.73a1.13,1.13,0,0,0-.58-.17.76.76,0,0,0-.47.16.85.85,0,0,0-.29.43,3.08,3.08,0,0,0-.13.92v2.44Z"/><path d="M47.33,84.61V79.94H48v.66a1.68,1.68,0,0,1,1.49-.77,2,2,0,0,1,.78.15,1.23,1.23,0,0,1,.53.4,1.52,1.52,0,0,1,.25.58,4.54,4.54,0,0,1,0,.77v2.87h-.79V81.77a2.13,2.13,0,0,0-.09-.72.77.77,0,0,0-.33-.38,1,1,0,0,0-.55-.14,1.28,1.28,0,0,0-.87.32,1.58,1.58,0,0,0-.37,1.22v2.55Z"/><path d="M55.38,84a3,3,0,0,1-.85.53,2.45,2.45,0,0,1-.87.15,1.69,1.69,0,0,1-1.18-.38,1.24,1.24,0,0,1-.41-1,1.3,1.3,0,0,1,.56-1.08A1.92,1.92,0,0,1,53.2,82a5.63,5.63,0,0,1,.7-.12,7.23,7.23,0,0,0,1.41-.27c0-.11,0-.18,0-.21a.87.87,0,0,0-.22-.68,1.32,1.32,0,0,0-.9-.27,1.4,1.4,0,0,0-.82.2,1.2,1.2,0,0,0-.39.69l-.77-.11a1.92,1.92,0,0,1,.35-.8,1.52,1.52,0,0,1,.7-.47,3.1,3.1,0,0,1,1.06-.17,2.8,2.8,0,0,1,1,.14,1.28,1.28,0,0,1,.55.35,1.25,1.25,0,0,1,.25.54,4.45,4.45,0,0,1,0,.73v1.05A11.19,11.19,0,0,0,56.17,84a1.76,1.76,0,0,0,.2.56h-.83A1.67,1.67,0,0,1,55.38,84Zm-.07-1.77a5.8,5.8,0,0,1-1.29.3,3,3,0,0,0-.69.16A.69.69,0,0,0,53,83a.7.7,0,0,0,.13.9,1,1,0,0,0,.7.21,1.63,1.63,0,0,0,.81-.2,1.23,1.23,0,0,0,.52-.55,1.91,1.91,0,0,0,.13-.79Z"/><path d="M57.32,84.61V78.17h.79v6.44Z"/><path d="M64.87,84.61V84a1.45,1.45,0,0,1-1.3.69,1.83,1.83,0,0,1-1-.31,2,2,0,0,1-.73-.86,3,3,0,0,1-.26-1.27A3.3,3.3,0,0,1,61.79,81a1.83,1.83,0,0,1,.7-.87,1.87,1.87,0,0,1,1-.3,1.56,1.56,0,0,1,.75.18,1.58,1.58,0,0,1,.54.46V78.17h.79v6.44Zm-2.5-2.33a2,2,0,0,0,.38,1.34,1.14,1.14,0,0,0,.89.44,1.12,1.12,0,0,0,.88-.42,2,2,0,0,0,.36-1.29,2.19,2.19,0,0,0-.37-1.41,1.14,1.14,0,0,0-.91-.45,1.09,1.09,0,0,0-.88.43A2.12,2.12,0,0,0,62.37,82.28Z"/><path d="M69.89,84a3,3,0,0,1-.85.53,2.45,2.45,0,0,1-.87.15A1.69,1.69,0,0,1,67,84.34a1.24,1.24,0,0,1-.41-1,1.27,1.27,0,0,1,.16-.63,1.29,1.29,0,0,1,.41-.46,1.93,1.93,0,0,1,.57-.26,5.63,5.63,0,0,1,.7-.12,7.22,7.22,0,0,0,1.41-.27c0-.11,0-.18,0-.21a.88.88,0,0,0-.22-.68,1.33,1.33,0,0,0-.9-.27,1.4,1.4,0,0,0-.82.2,1.2,1.2,0,0,0-.39.69l-.77-.11a1.92,1.92,0,0,1,.35-.8,1.52,1.52,0,0,1,.7-.47,3.1,3.1,0,0,1,1.06-.17,2.8,2.8,0,0,1,1,.14,1.29,1.29,0,0,1,.55.35,1.25,1.25,0,0,1,.25.54,4.44,4.44,0,0,1,0,.73v1.05a11.34,11.34,0,0,0,0,1.39,1.77,1.77,0,0,0,.2.56h-.83A1.67,1.67,0,0,1,69.89,84Zm-.07-1.77a5.81,5.81,0,0,1-1.29.3,3,3,0,0,0-.69.16.68.68,0,0,0-.31.26.7.7,0,0,0,.13.9,1,1,0,0,0,.7.21,1.62,1.62,0,0,0,.81-.2,1.22,1.22,0,0,0,.52-.55,1.91,1.91,0,0,0,.13-.79Z"/><path d="M71.85,84.61V79.94h.71v.66a1.67,1.67,0,0,1,.58-.55,1.65,1.65,0,0,1,.83-.21,1.54,1.54,0,0,1,.85.22,1.15,1.15,0,0,1,.47.6,1.68,1.68,0,0,1,1.44-.82,1.42,1.42,0,0,1,1.07.38,1.64,1.64,0,0,1,.37,1.18v3.2h-.79V81.67a2.18,2.18,0,0,0-.08-.68.67.67,0,0,0-.28-.34.87.87,0,0,0-.47-.13,1.11,1.11,0,0,0-.82.33,1.44,1.44,0,0,0-.33,1v2.71h-.79v-3a1.33,1.33,0,0,0-.19-.79.73.73,0,0,0-.63-.26,1.15,1.15,0,0,0-.62.18,1,1,0,0,0-.41.51,2.9,2.9,0,0,0-.13,1v2.42Z"/><path d="M82.4,84a3,3,0,0,1-.85.53,2.45,2.45,0,0,1-.87.15,1.69,1.69,0,0,1-1.18-.38,1.24,1.24,0,0,1-.41-1,1.27,1.27,0,0,1,.16-.63,1.29,1.29,0,0,1,.41-.46,1.93,1.93,0,0,1,.57-.26,5.63,5.63,0,0,1,.7-.12,7.22,7.22,0,0,0,1.41-.27c0-.11,0-.18,0-.21a.88.88,0,0,0-.22-.68,1.33,1.33,0,0,0-.9-.27,1.4,1.4,0,0,0-.82.2,1.2,1.2,0,0,0-.39.69l-.77-.11a1.92,1.92,0,0,1,.35-.8,1.52,1.52,0,0,1,.7-.47,3.1,3.1,0,0,1,1.06-.17,2.8,2.8,0,0,1,1,.14,1.29,1.29,0,0,1,.55.35,1.25,1.25,0,0,1,.25.54,4.44,4.44,0,0,1,0,.73v1.05a11.34,11.34,0,0,0,0,1.39,1.77,1.77,0,0,0,.2.56h-.83A1.67,1.67,0,0,1,82.4,84Zm-.07-1.77a5.81,5.81,0,0,1-1.29.3,3,3,0,0,0-.69.16A.68.68,0,0,0,80,83a.7.7,0,0,0,.13.9,1,1,0,0,0,.7.21,1.62,1.62,0,0,0,.81-.2,1.22,1.22,0,0,0,.52-.55,1.91,1.91,0,0,0,.13-.79Z"/><path d="M84.21,85l.77.11a.73.73,0,0,0,.27.52,1.32,1.32,0,0,0,.8.22,1.41,1.41,0,0,0,.85-.22,1.08,1.08,0,0,0,.4-.62,5.11,5.11,0,0,0,.06-1,1.63,1.63,0,0,1-1.29.61,1.76,1.76,0,0,1-1.49-.69,2.67,2.67,0,0,1-.53-1.67A3.1,3.1,0,0,1,84.29,81a1.94,1.94,0,0,1,.7-.87,1.89,1.89,0,0,1,1.08-.31,1.67,1.67,0,0,1,1.36.67v-.56h.73v4a3.84,3.84,0,0,1-.22,1.54,1.63,1.63,0,0,1-.7.72,2.44,2.44,0,0,1-1.18.26,2.23,2.23,0,0,1-1.35-.38A1.27,1.27,0,0,1,84.21,85Zm.66-2.8a2,2,0,0,0,.36,1.34,1.2,1.2,0,0,0,1.83,0,2,2,0,0,0,.37-1.32A1.92,1.92,0,0,0,87,80.93a1.18,1.18,0,0,0-.92-.43,1.14,1.14,0,0,0-.9.43A1.9,1.9,0,0,0,84.87,82.19Z"/><path d="M92.56,83.11l.82.1a2,2,0,0,1-.72,1.11,2.15,2.15,0,0,1-1.34.4,2.13,2.13,0,0,1-1.62-.63,2.46,2.46,0,0,1-.6-1.77,2.58,2.58,0,0,1,.61-1.83,2.05,2.05,0,0,1,1.57-.65,2,2,0,0,1,1.53.64,2.54,2.54,0,0,1,.59,1.79s0,.12,0,.21H89.91a1.79,1.79,0,0,0,.44,1.18,1.29,1.29,0,0,0,1,.41,1.21,1.21,0,0,0,.74-.23A1.52,1.52,0,0,0,92.56,83.11ZM90,81.83h2.61a1.58,1.58,0,0,0-.3-.88,1.21,1.21,0,0,0-1-.46,1.26,1.26,0,0,0-.92.37A1.44,1.44,0,0,0,90,81.83Z"/><path d="M94.59,84.61v-.9h.9v.9Z"/><path d="M19.24,81.12a1.73,1.73,0,1,1-.51-1.22A1.67,1.67,0,0,1,19.24,81.12Z"/><path d="M26.47,97.61V91.17h4.35v.76H27.32v2h3v.76h-3v2.93Z"/><path d="M31.83,92.08v-.91h.79v.91Zm0,5.53V92.94h.79v4.67Z"/><path d="M33.81,97.61V92.94h.71v.71A1.93,1.93,0,0,1,35,93a.88.88,0,0,1,.51-.16,1.54,1.54,0,0,1,.81.25l-.27.73a1.13,1.13,0,0,0-.58-.17.76.76,0,0,0-.47.16.85.85,0,0,0-.29.43,3.08,3.08,0,0,0-.13.92v2.44Z"/><path d="M36.82,92.08v-.91h.79v.91Zm0,5.53V92.94h.79v4.67Z"/><path d="M38.82,97.61V92.94h.71v.66A1.68,1.68,0,0,1,41,92.84a2,2,0,0,1,.78.15,1.23,1.23,0,0,1,.53.4,1.52,1.52,0,0,1,.25.58,4.54,4.54,0,0,1,0,.77v2.87h-.79V94.77a2.13,2.13,0,0,0-.09-.72.77.77,0,0,0-.33-.38,1,1,0,0,0-.55-.14,1.28,1.28,0,0,0-.87.32,1.58,1.58,0,0,0-.37,1.22v2.55Z"/><path d="M43.68,98l.77.11a.73.73,0,0,0,.27.52,1.32,1.32,0,0,0,.8.22,1.41,1.41,0,0,0,.85-.22,1.08,1.08,0,0,0,.4-.62,5,5,0,0,0,.06-1,1.63,1.63,0,0,1-1.29.61A1.76,1.76,0,0,1,44,96.92a2.67,2.67,0,0,1-.53-1.67A3.11,3.11,0,0,1,43.76,94a1.94,1.94,0,0,1,.7-.87,1.89,1.89,0,0,1,1.08-.31,1.67,1.67,0,0,1,1.36.67v-.56h.73v4a3.84,3.84,0,0,1-.22,1.54,1.63,1.63,0,0,1-.7.72,2.44,2.44,0,0,1-1.18.26,2.24,2.24,0,0,1-1.35-.38A1.27,1.27,0,0,1,43.68,98Zm.65-2.8a2,2,0,0,0,.36,1.34,1.2,1.2,0,0,0,1.83,0,2,2,0,0,0,.37-1.32,1.92,1.92,0,0,0-.38-1.29,1.18,1.18,0,0,0-.92-.43,1.14,1.14,0,0,0-.9.43A1.9,1.9,0,0,0,44.34,95.19Z"/><path d="M52.19,97.61l-1.43-4.67h.82l.74,2.69.28,1,.24-1,.74-2.73h.81l.7,2.71.23.89.27-.9.8-2.7h.77l-1.46,4.67h-.82l-.74-2.79L54,94,53,97.61Z"/><path d="M57.83,92.08v-.91h.79v.91Zm0,5.53V92.94h.79v4.67Z"/><path d="M61.56,96.9l.11.7a2.93,2.93,0,0,1-.6.07,1.35,1.35,0,0,1-.67-.14.76.76,0,0,1-.33-.36,2.83,2.83,0,0,1-.1-.93V93.56H59.4v-.62H60V91.79l.79-.47v1.63h.79v.62h-.79v2.73a1.4,1.4,0,0,0,0,.43.33.33,0,0,0,.14.15.52.52,0,0,0,.27.06Z"/><path d="M62.33,97.61V91.17h.79v2.31a1.77,1.77,0,0,1,1.4-.64,1.89,1.89,0,0,1,.9.2,1.2,1.2,0,0,1,.55.57,2.59,2.59,0,0,1,.17,1v3h-.79v-3a1.23,1.23,0,0,0-.26-.86,1,1,0,0,0-.73-.27,1.28,1.28,0,0,0-.66.18,1,1,0,0,0-.44.5,2.27,2.27,0,0,0-.13.86v2.55Z"/><path d="M67,95.28a2.41,2.41,0,0,1,.72-1.92,2.17,2.17,0,0,1,1.47-.52,2.1,2.1,0,0,1,1.57.63,2.4,2.4,0,0,1,.61,1.74,3.09,3.09,0,0,1-.27,1.42,1.91,1.91,0,0,1-.79.8,2.29,2.29,0,0,1-1.13.29,2.1,2.1,0,0,1-1.58-.63A2.51,2.51,0,0,1,67,95.28Zm.81,0a2,2,0,0,0,.39,1.34,1.3,1.3,0,0,0,2,0,2,2,0,0,0,.39-1.37,1.93,1.93,0,0,0-.39-1.31,1.3,1.3,0,0,0-2,0A2,2,0,0,0,67.85,95.28Z"/><path d="M75.4,97.61v-.69a1.71,1.71,0,0,1-1.48.79,1.89,1.89,0,0,1-.77-.16,1.26,1.26,0,0,1-.53-.4,1.48,1.48,0,0,1-.24-.59,4,4,0,0,1,0-.74V92.94h.79v2.59a4.63,4.63,0,0,0,0,.83.82.82,0,0,0,.32.49,1,1,0,0,0,.6.18,1.3,1.3,0,0,0,.67-.18,1,1,0,0,0,.44-.5,2.47,2.47,0,0,0,.13-.91v-2.5h.79v4.67Z"/><path d="M79.07,96.9l.11.7a2.93,2.93,0,0,1-.6.07,1.35,1.35,0,0,1-.67-.14.76.76,0,0,1-.33-.36,2.83,2.83,0,0,1-.1-.93V93.56h-.58v-.62h.58V91.79l.79-.47v1.63h.79v.62h-.79v2.73a1.4,1.4,0,0,0,0,.43.33.33,0,0,0,.14.15.52.52,0,0,0,.27.06Z"/><path d="M83.21,97.61l-1.43-4.67h.82l.74,2.69.28,1,.24-1,.74-2.73h.81l.7,2.71.23.89.27-.9.8-2.7h.77l-1.46,4.67H85.9l-.74-2.79L85,94,84,97.61Z"/><path d="M91.89,97a3,3,0,0,1-.85.53,2.45,2.45,0,0,1-.87.15A1.69,1.69,0,0,1,89,97.34a1.24,1.24,0,0,1-.41-1,1.27,1.27,0,0,1,.16-.63,1.29,1.29,0,0,1,.41-.46,1.93,1.93,0,0,1,.57-.26,5.63,5.63,0,0,1,.7-.12,7.22,7.22,0,0,0,1.41-.27c0-.11,0-.18,0-.21a.88.88,0,0,0-.22-.68,1.33,1.33,0,0,0-.9-.27,1.4,1.4,0,0,0-.82.2,1.2,1.2,0,0,0-.39.69l-.77-.11a1.92,1.92,0,0,1,.35-.8,1.52,1.52,0,0,1,.7-.47,3.1,3.1,0,0,1,1.06-.17,2.8,2.8,0,0,1,1,.14,1.29,1.29,0,0,1,.55.35,1.25,1.25,0,0,1,.25.54,4.44,4.44,0,0,1,0,.73v1.05a11.34,11.34,0,0,0,0,1.39,1.77,1.77,0,0,0,.2.56h-.83A1.67,1.67,0,0,1,91.89,97Zm-.07-1.77a5.81,5.81,0,0,1-1.29.3,3,3,0,0,0-.69.16.68.68,0,0,0-.31.26.7.7,0,0,0,.13.9,1,1,0,0,0,.7.21,1.62,1.62,0,0,0,.81-.2,1.22,1.22,0,0,0,.52-.55,1.91,1.91,0,0,0,.13-.79Z"/><path d="M95.58,96.9l.11.7a2.93,2.93,0,0,1-.6.07,1.35,1.35,0,0,1-.67-.14.76.76,0,0,1-.33-.36,2.83,2.83,0,0,1-.1-.93V93.56h-.58v-.62H94V91.79l.79-.47v1.63h.79v.62h-.79v2.73a1.4,1.4,0,0,0,0,.43.33.33,0,0,0,.14.15.52.52,0,0,0,.27.06Z"/><path d="M99.55,96.11l.82.1a2,2,0,0,1-.72,1.11,2.15,2.15,0,0,1-1.34.4,2.13,2.13,0,0,1-1.62-.63,2.46,2.46,0,0,1-.6-1.77,2.58,2.58,0,0,1,.61-1.83,2.05,2.05,0,0,1,1.57-.65,2,2,0,0,1,1.53.64,2.54,2.54,0,0,1,.59,1.79s0,.12,0,.21H96.91a1.79,1.79,0,0,0,.44,1.18,1.29,1.29,0,0,0,1,.41,1.21,1.21,0,0,0,.74-.23A1.52,1.52,0,0,0,99.55,96.11ZM97,94.83h2.61a1.58,1.58,0,0,0-.3-.88,1.21,1.21,0,0,0-1-.46,1.26,1.26,0,0,0-.92.37A1.44,1.44,0,0,0,97,94.83Z"/><path d="M101.35,97.61V92.94h.71v.71a1.92,1.92,0,0,1,.5-.66.88.88,0,0,1,.51-.16,1.54,1.54,0,0,1,.81.25l-.27.73a1.13,1.13,0,0,0-.58-.17.76.76,0,0,0-.47.16.84.84,0,0,0-.29.43,3.08,3.08,0,0,0-.13.92v2.44Z"/><path d="M104.08,97.61v-.9h.9v.9Z"/><path d="M19.24,94.12a1.73,1.73,0,1,1-.51-1.22A1.67,1.67,0,0,1,19.24,94.12Z"/><path d="M26.14,107.21l.8-.07a1.77,1.77,0,0,0,.27.79,1.45,1.45,0,0,0,.65.5,2.46,2.46,0,0,0,1,.19,2.37,2.37,0,0,0,.86-.14,1.19,1.19,0,0,0,.56-.4.92.92,0,0,0,.18-.55.84.84,0,0,0-.18-.53,1.31,1.31,0,0,0-.58-.38,11.55,11.55,0,0,0-1.15-.31,5.83,5.83,0,0,1-1.24-.4,1.74,1.74,0,0,1-.69-.6,1.47,1.47,0,0,1-.23-.8,1.64,1.64,0,0,1,.28-.91,1.71,1.71,0,0,1,.81-.64,3.07,3.07,0,0,1,1.18-.22,3.22,3.22,0,0,1,1.26.23,1.82,1.82,0,0,1,.84.68,2,2,0,0,1,.32,1l-.82.06a1.32,1.32,0,0,0-.45-.92,1.74,1.74,0,0,0-1.12-.31,1.8,1.8,0,0,0-1.13.28.85.85,0,0,0-.35.68.73.73,0,0,0,.25.57,3.38,3.38,0,0,0,1.29.46,8.55,8.55,0,0,1,1.43.41,2,2,0,0,1,.83.66,1.6,1.6,0,0,1,.27.92,1.75,1.75,0,0,1-.29,1,1.94,1.94,0,0,1-.85.71,3,3,0,0,1-1.24.25,3.7,3.7,0,0,1-1.47-.26,2.05,2.05,0,0,1-.93-.77A2.18,2.18,0,0,1,26.14,107.21Z"/><path d="M32,106.94a2.41,2.41,0,0,1,.72-1.92,2.17,2.17,0,0,1,1.47-.52,2.1,2.1,0,0,1,1.57.63,2.4,2.4,0,0,1,.61,1.74,3.09,3.09,0,0,1-.27,1.42,1.91,1.91,0,0,1-.79.8,2.28,2.28,0,0,1-1.13.29,2.1,2.1,0,0,1-1.58-.63A2.51,2.51,0,0,1,32,106.94Zm.81,0a2,2,0,0,0,.39,1.34,1.3,1.3,0,0,0,2,0,2,2,0,0,0,.39-1.37,1.93,1.93,0,0,0-.39-1.31,1.3,1.3,0,0,0-2,0A2,2,0,0,0,32.85,106.94Z"/><path d="M37,106.94a2.41,2.41,0,0,1,.72-1.92,2.17,2.17,0,0,1,1.47-.52,2.1,2.1,0,0,1,1.57.63,2.4,2.4,0,0,1,.61,1.74,3.09,3.09,0,0,1-.27,1.42,1.91,1.91,0,0,1-.79.8,2.28,2.28,0,0,1-1.13.29,2.1,2.1,0,0,1-1.58-.63A2.51,2.51,0,0,1,37,106.94Zm.81,0a2,2,0,0,0,.39,1.34,1.3,1.3,0,0,0,2,0,2,2,0,0,0,.39-1.37,1.93,1.93,0,0,0-.39-1.31,1.3,1.3,0,0,0-2,0A2,2,0,0,0,37.85,106.94Z"/><path d="M44.07,108.57l.11.7a2.93,2.93,0,0,1-.6.07,1.34,1.34,0,0,1-.67-.14.75.75,0,0,1-.33-.36,2.83,2.83,0,0,1-.1-.93v-2.69H41.9v-.62h.58v-1.16l.79-.47v1.63h.8v.62h-.8V108a1.38,1.38,0,0,0,0,.44.33.33,0,0,0,.14.15.53.53,0,0,0,.27.06Z"/><path d="M44.84,103.75v-.91h.79v.91Zm0,5.53v-4.67h.79v4.67Z"/><path d="M46.84,109.28v-4.67h.71v.66A1.68,1.68,0,0,1,49,104.5a2,2,0,0,1,.78.15,1.23,1.23,0,0,1,.53.4,1.53,1.53,0,0,1,.25.58,4.53,4.53,0,0,1,0,.77v2.87h-.79v-2.84a2.13,2.13,0,0,0-.09-.72.76.76,0,0,0-.33-.38,1,1,0,0,0-.55-.14,1.29,1.29,0,0,0-.87.32,1.59,1.59,0,0,0-.37,1.22v2.55Z"/><path d="M51.7,109.66l.77.11a.73.73,0,0,0,.27.52,1.32,1.32,0,0,0,.8.22,1.41,1.41,0,0,0,.85-.22,1.08,1.08,0,0,0,.4-.62,5,5,0,0,0,.06-1,1.63,1.63,0,0,1-1.29.61,1.76,1.76,0,0,1-1.49-.69,2.67,2.67,0,0,1-.53-1.67,3.1,3.1,0,0,1,.24-1.23,1.94,1.94,0,0,1,.7-.87,1.89,1.89,0,0,1,1.08-.31,1.67,1.67,0,0,1,1.36.67v-.56h.73v4a3.84,3.84,0,0,1-.22,1.54,1.63,1.63,0,0,1-.7.72,2.44,2.44,0,0,1-1.18.26,2.24,2.24,0,0,1-1.35-.37A1.27,1.27,0,0,1,51.7,109.66Zm.65-2.8a2,2,0,0,0,.36,1.34,1.2,1.2,0,0,0,1.83,0,2,2,0,0,0,.37-1.32,1.92,1.92,0,0,0-.38-1.29,1.18,1.18,0,0,0-.92-.44,1.14,1.14,0,0,0-.9.43A1.9,1.9,0,0,0,52.36,106.86Z"/><path d="M57.07,109.28v-.9H58v.9Z"/><path d="M19.24,105.79a1.73,1.73,0,1,1-.51-1.22A1.67,1.67,0,0,1,19.24,105.79Z"/><path d="M16,122.61v-6.44h2.22a5.31,5.31,0,0,1,1.15.09,2.18,2.18,0,0,1,.94.46,2.62,2.62,0,0,1,.76,1.1,4.33,4.33,0,0,1,.25,1.53,4.5,4.5,0,0,1-.17,1.3,3.16,3.16,0,0,1-.44.94,2.34,2.34,0,0,1-.59.58,2.41,2.41,0,0,1-.77.32,4.39,4.39,0,0,1-1,.11Zm.85-.76h1.38a3.33,3.33,0,0,0,1-.12,1.43,1.43,0,0,0,.58-.33,2,2,0,0,0,.47-.82,4,4,0,0,0,.17-1.24,3,3,0,0,0-.33-1.55,1.67,1.67,0,0,0-.81-.73,3.34,3.34,0,0,0-1.1-.13H16.85Z"/><path d="M22.11,120.27a2.41,2.41,0,0,1,.72-1.92,2.17,2.17,0,0,1,1.47-.52,2.09,2.09,0,0,1,1.57.63,2.4,2.4,0,0,1,.61,1.74,3.09,3.09,0,0,1-.27,1.42,1.92,1.92,0,0,1-.79.8,2.3,2.3,0,0,1-1.13.29,2.09,2.09,0,0,1-1.58-.63A2.5,2.5,0,0,1,22.11,120.27Zm.81,0a2,2,0,0,0,.39,1.34,1.3,1.3,0,0,0,2,0,2,2,0,0,0,.39-1.37,1.93,1.93,0,0,0-.39-1.31,1.3,1.3,0,0,0-2,0A2,2,0,0,0,22.92,120.27Z"/><path d="M29.91,122.61v-4.67h.71v.66a1.68,1.68,0,0,1,1.49-.77,2,2,0,0,1,.78.15,1.23,1.23,0,0,1,.53.4,1.52,1.52,0,0,1,.25.58,4.54,4.54,0,0,1,0,.77v2.87h-.79v-2.84a2.13,2.13,0,0,0-.09-.72.76.76,0,0,0-.33-.38,1,1,0,0,0-.55-.14,1.28,1.28,0,0,0-.87.32,1.58,1.58,0,0,0-.37,1.22v2.55Z"/><path d="M34.62,120.27a2.41,2.41,0,0,1,.72-1.92,2.17,2.17,0,0,1,1.47-.52,2.09,2.09,0,0,1,1.57.63,2.4,2.4,0,0,1,.61,1.74,3.09,3.09,0,0,1-.27,1.42,1.92,1.92,0,0,1-.79.8,2.3,2.3,0,0,1-1.13.29,2.09,2.09,0,0,1-1.58-.63A2.5,2.5,0,0,1,34.62,120.27Zm.81,0a2,2,0,0,0,.39,1.34,1.3,1.3,0,0,0,2,0,2,2,0,0,0,.39-1.37,1.93,1.93,0,0,0-.39-1.31,1.3,1.3,0,0,0-2,0A2,2,0,0,0,35.43,120.27Z"/><path d="M41.64,121.9l.11.7a2.93,2.93,0,0,1-.6.07,1.36,1.36,0,0,1-.67-.14.77.77,0,0,1-.33-.36,2.84,2.84,0,0,1-.1-.93v-2.68h-.58v-.62h.58v-1.16l.79-.47v1.63h.8v.62h-.8v2.73a1.38,1.38,0,0,0,0,.43.32.32,0,0,0,.14.15.51.51,0,0,0,.27.06Z"/><path d="M44.62,120.27a2.41,2.41,0,0,1,.72-1.92,2.17,2.17,0,0,1,1.47-.52,2.09,2.09,0,0,1,1.57.63,2.4,2.4,0,0,1,.61,1.74,3.09,3.09,0,0,1-.27,1.42,1.92,1.92,0,0,1-.79.8,2.3,2.3,0,0,1-1.13.29,2.09,2.09,0,0,1-1.58-.63A2.5,2.5,0,0,1,44.62,120.27Zm.81,0a2,2,0,0,0,.39,1.34,1.3,1.3,0,0,0,2,0,2,2,0,0,0,.39-1.37,1.93,1.93,0,0,0-.39-1.31,1.3,1.3,0,0,0-2,0A2,2,0,0,0,45.44,120.27Z"/><path d="M49.92,124.4v-6.46h.72v.61a1.78,1.78,0,0,1,.58-.53,1.59,1.59,0,0,1,.78-.18,1.84,1.84,0,0,1,1.05.31,1.89,1.89,0,0,1,.69.87,3.17,3.17,0,0,1,.23,1.23,3.11,3.11,0,0,1-.26,1.29,2,2,0,0,1-1.78,1.18,1.49,1.49,0,0,1-.71-.17,1.62,1.62,0,0,1-.52-.42v2.27Zm.72-4.1a2,2,0,0,0,.36,1.33,1.12,1.12,0,0,0,.88.43,1.14,1.14,0,0,0,.9-.45,2.12,2.12,0,0,0,.38-1.38,2.06,2.06,0,0,0-.37-1.34,1.11,1.11,0,0,0-.88-.44,1.14,1.14,0,0,0-.89.47A2.12,2.12,0,0,0,50.64,120.3Z"/><path d="M58.12,121.1l.82.1a2,2,0,0,1-.72,1.11,2.15,2.15,0,0,1-1.34.4,2.13,2.13,0,0,1-1.62-.63,2.46,2.46,0,0,1-.6-1.77,2.58,2.58,0,0,1,.61-1.83,2.05,2.05,0,0,1,1.57-.65,2,2,0,0,1,1.53.64,2.53,2.53,0,0,1,.59,1.79s0,.12,0,.21H55.48a1.8,1.8,0,0,0,.44,1.18,1.3,1.3,0,0,0,1,.41,1.21,1.21,0,0,0,.74-.23A1.52,1.52,0,0,0,58.12,121.1Zm-2.6-1.28h2.61a1.58,1.58,0,0,0-.3-.88,1.21,1.21,0,0,0-1-.46,1.26,1.26,0,0,0-.92.36A1.45,1.45,0,0,0,55.53,119.83Z"/><path d="M59.92,122.61v-4.67h.71v.71a1.93,1.93,0,0,1,.5-.66.88.88,0,0,1,.51-.16,1.54,1.54,0,0,1,.81.25l-.27.73a1.12,1.12,0,0,0-.58-.17.75.75,0,0,0-.47.16.84.84,0,0,0-.29.43,3.08,3.08,0,0,0-.13.92v2.44Z"/><path d="M66,122a2.91,2.91,0,0,1-.85.53,2.45,2.45,0,0,1-.87.15,1.69,1.69,0,0,1-1.18-.38,1.24,1.24,0,0,1-.41-1,1.3,1.3,0,0,1,.56-1.08,1.92,1.92,0,0,1,.57-.26,5.63,5.63,0,0,1,.7-.12,7.23,7.23,0,0,0,1.41-.27c0-.11,0-.18,0-.21a.87.87,0,0,0-.22-.68,1.32,1.32,0,0,0-.9-.27,1.39,1.39,0,0,0-.82.2,1.19,1.19,0,0,0-.39.69l-.77-.11a1.92,1.92,0,0,1,.35-.8,1.52,1.52,0,0,1,.7-.47,3.1,3.1,0,0,1,1.06-.17,2.8,2.8,0,0,1,1,.14,1.28,1.28,0,0,1,.55.35,1.25,1.25,0,0,1,.25.54,4.48,4.48,0,0,1,0,.73v1.05a11.19,11.19,0,0,0,.05,1.39,1.76,1.76,0,0,0,.2.56h-.83A1.67,1.67,0,0,1,66,122Zm-.07-1.77a5.8,5.8,0,0,1-1.29.3,3,3,0,0,0-.69.16.68.68,0,0,0-.31.26.7.7,0,0,0,.13.9,1,1,0,0,0,.7.21,1.64,1.64,0,0,0,.81-.2,1.23,1.23,0,0,0,.52-.55,1.9,1.9,0,0,0,.13-.79Z"/><path d="M69.66,121.9l.11.7a2.93,2.93,0,0,1-.6.07,1.36,1.36,0,0,1-.67-.14.77.77,0,0,1-.33-.36,2.84,2.84,0,0,1-.1-.93v-2.68H67.5v-.62h.58v-1.16l.79-.47v1.63h.8v.62h-.8v2.73a1.38,1.38,0,0,0,0,.43.32.32,0,0,0,.14.15.51.51,0,0,0,.27.06Z"/><path d="M73.63,121.1l.82.1a2,2,0,0,1-.72,1.11,2.15,2.15,0,0,1-1.34.4,2.13,2.13,0,0,1-1.62-.63,2.46,2.46,0,0,1-.6-1.77,2.58,2.58,0,0,1,.61-1.83,2.05,2.05,0,0,1,1.57-.65,2,2,0,0,1,1.53.64,2.53,2.53,0,0,1,.59,1.79s0,.12,0,.21H71a1.8,1.8,0,0,0,.44,1.18,1.3,1.3,0,0,0,1,.41,1.21,1.21,0,0,0,.74-.23A1.52,1.52,0,0,0,73.63,121.1ZM71,119.83h2.61a1.58,1.58,0,0,0-.3-.88,1.21,1.21,0,0,0-1-.46,1.26,1.26,0,0,0-.92.36A1.45,1.45,0,0,0,71,119.83Z"/><path d="M79.67,121.9l.11.7a2.93,2.93,0,0,1-.6.07,1.36,1.36,0,0,1-.67-.14.77.77,0,0,1-.33-.36,2.84,2.84,0,0,1-.1-.93v-2.68h-.58v-.62h.58v-1.16l.79-.47v1.63h.8v.62h-.8v2.73a1.38,1.38,0,0,0,0,.43.32.32,0,0,0,.14.15.51.51,0,0,0,.27.06Z"/><path d="M80.44,122.61v-6.44h.79v2.31a1.77,1.77,0,0,1,1.4-.64,1.89,1.89,0,0,1,.9.2,1.2,1.2,0,0,1,.55.56,2.6,2.6,0,0,1,.17,1v3h-.79v-3a1.23,1.23,0,0,0-.26-.86,1,1,0,0,0-.73-.27,1.29,1.29,0,0,0-.66.18,1,1,0,0,0-.44.5,2.27,2.27,0,0,0-.13.86v2.55Z"/><path d="M88.64,121.1l.82.1a2,2,0,0,1-.72,1.11,2.15,2.15,0,0,1-1.34.4,2.13,2.13,0,0,1-1.62-.63,2.46,2.46,0,0,1-.6-1.77,2.58,2.58,0,0,1,.61-1.83,2.05,2.05,0,0,1,1.57-.65,2,2,0,0,1,1.53.64,2.53,2.53,0,0,1,.59,1.79s0,.12,0,.21H86a1.8,1.8,0,0,0,.44,1.18,1.3,1.3,0,0,0,1,.41,1.21,1.21,0,0,0,.74-.23A1.52,1.52,0,0,0,88.64,121.1ZM86,119.83h2.61a1.58,1.58,0,0,0-.3-.88,1.21,1.21,0,0,0-1-.46,1.26,1.26,0,0,0-.92.36A1.45,1.45,0,0,0,86,119.83Z"/><path d="M93.81,122.61l-1.43-4.67h.82l.74,2.69.28,1,.24-1,.74-2.73H96l.7,2.71.23.89.27-.9.8-2.7h.77l-1.46,4.67h-.82l-.74-2.79-.18-.79-.94,3.59Z"/><path d="M102.5,122a2.91,2.91,0,0,1-.85.53,2.45,2.45,0,0,1-.87.15,1.69,1.69,0,0,1-1.18-.38,1.24,1.24,0,0,1-.41-1,1.3,1.3,0,0,1,.56-1.08,1.92,1.92,0,0,1,.57-.26,5.63,5.63,0,0,1,.7-.12,7.23,7.23,0,0,0,1.41-.27c0-.11,0-.18,0-.21a.87.87,0,0,0-.22-.68,1.32,1.32,0,0,0-.9-.27,1.39,1.39,0,0,0-.82.2,1.19,1.19,0,0,0-.39.69l-.77-.11a1.92,1.92,0,0,1,.35-.8,1.52,1.52,0,0,1,.7-.47,3.1,3.1,0,0,1,1.06-.17,2.8,2.8,0,0,1,1,.14,1.28,1.28,0,0,1,.55.35,1.25,1.25,0,0,1,.25.54,4.48,4.48,0,0,1,0,.73v1.05a11.19,11.19,0,0,0,.05,1.39,1.76,1.76,0,0,0,.2.56h-.83A1.67,1.67,0,0,1,102.5,122Zm-.07-1.77a5.8,5.8,0,0,1-1.29.3,3,3,0,0,0-.69.16.68.68,0,0,0-.31.26.7.7,0,0,0,.13.9,1,1,0,0,0,.7.21,1.64,1.64,0,0,0,.81-.2,1.23,1.23,0,0,0,.52-.55,1.9,1.9,0,0,0,.13-.79Z"/><path d="M106.19,121.9l.11.7a2.93,2.93,0,0,1-.6.07,1.36,1.36,0,0,1-.67-.14.77.77,0,0,1-.33-.36,2.84,2.84,0,0,1-.1-.93v-2.68H104v-.62h.58v-1.16l.79-.47v1.63h.8v.62h-.8v2.73a1.38,1.38,0,0,0,0,.43.32.32,0,0,0,.14.15.51.51,0,0,0,.27.06Z"/><path d="M110.15,121.1l.82.1a2,2,0,0,1-.72,1.11,2.15,2.15,0,0,1-1.34.4,2.13,2.13,0,0,1-1.62-.63,2.46,2.46,0,0,1-.6-1.77,2.58,2.58,0,0,1,.61-1.83,2.05,2.05,0,0,1,1.57-.65,2,2,0,0,1,1.53.64,2.53,2.53,0,0,1,.59,1.79s0,.12,0,.21h-3.48a1.8,1.8,0,0,0,.44,1.18,1.3,1.3,0,0,0,1,.41,1.21,1.21,0,0,0,.74-.23A1.52,1.52,0,0,0,110.15,121.1Zm-2.6-1.28h2.61a1.58,1.58,0,0,0-.3-.88,1.21,1.21,0,0,0-1-.46,1.26,1.26,0,0,0-.92.36A1.45,1.45,0,0,0,107.56,119.83Z"/><path d="M112,122.61v-4.67h.71v.71a1.93,1.93,0,0,1,.5-.66.88.88,0,0,1,.51-.16,1.54,1.54,0,0,1,.81.25l-.27.73a1.12,1.12,0,0,0-.58-.17.75.75,0,0,0-.47.16.84.84,0,0,0-.29.43,3.08,3.08,0,0,0-.13.92v2.44Z"/><path d="M117.46,122.61v-6.44h.79v2.31a1.77,1.77,0,0,1,1.4-.64,1.89,1.89,0,0,1,.9.2,1.2,1.2,0,0,1,.55.56,2.6,2.6,0,0,1,.17,1v3h-.79v-3a1.23,1.23,0,0,0-.26-.86,1,1,0,0,0-.73-.27,1.29,1.29,0,0,0-.66.18,1,1,0,0,0-.44.5,2.27,2.27,0,0,0-.13.86v2.55Z"/><path d="M125.66,121.1l.82.1a2,2,0,0,1-.72,1.11,2.15,2.15,0,0,1-1.34.4,2.13,2.13,0,0,1-1.62-.63,2.46,2.46,0,0,1-.6-1.77,2.58,2.58,0,0,1,.61-1.83,2.05,2.05,0,0,1,1.57-.65,2,2,0,0,1,1.53.64,2.53,2.53,0,0,1,.59,1.79s0,.12,0,.21H123a1.8,1.8,0,0,0,.44,1.18,1.3,1.3,0,0,0,1,.41,1.21,1.21,0,0,0,.74-.23A1.52,1.52,0,0,0,125.66,121.1Zm-2.6-1.28h2.61a1.58,1.58,0,0,0-.3-.88,1.21,1.21,0,0,0-1-.46,1.26,1.26,0,0,0-.92.36A1.45,1.45,0,0,0,123.06,119.83Z"/><path d="M130.52,122a2.9,2.9,0,0,1-.85.53,2.45,2.45,0,0,1-.87.15,1.69,1.69,0,0,1-1.18-.38,1.24,1.24,0,0,1-.41-1,1.3,1.3,0,0,1,.56-1.08,1.92,1.92,0,0,1,.57-.26,5.7,5.7,0,0,1,.7-.12,7.21,7.21,0,0,0,1.41-.27c0-.11,0-.18,0-.21a.88.88,0,0,0-.22-.68,1.32,1.32,0,0,0-.9-.27,1.39,1.39,0,0,0-.82.2,1.19,1.19,0,0,0-.39.69l-.77-.11a1.92,1.92,0,0,1,.35-.8,1.52,1.52,0,0,1,.7-.47,3.11,3.11,0,0,1,1.06-.17,2.8,2.8,0,0,1,1,.14,1.28,1.28,0,0,1,.55.35,1.25,1.25,0,0,1,.25.54,4.61,4.61,0,0,1,0,.73v1.05a11.26,11.26,0,0,0,.05,1.39,1.74,1.74,0,0,0,.2.56h-.83A1.67,1.67,0,0,1,130.52,122Zm-.07-1.77a5.79,5.79,0,0,1-1.29.3,3,3,0,0,0-.69.16.69.69,0,0,0-.31.26.7.7,0,0,0,.13.9,1,1,0,0,0,.7.21,1.63,1.63,0,0,0,.81-.2,1.23,1.23,0,0,0,.52-.55,1.89,1.89,0,0,0,.13-.79Z"/><path d="M134.21,121.9l.11.7a2.93,2.93,0,0,1-.6.07,1.36,1.36,0,0,1-.67-.14.77.77,0,0,1-.33-.36,2.84,2.84,0,0,1-.1-.93v-2.68H132v-.62h.58v-1.16l.79-.47v1.63h.79v.62h-.79v2.73a1.4,1.4,0,0,0,0,.43.32.32,0,0,0,.14.15.51.51,0,0,0,.27.06Z"/><path d="M138.17,121.1l.82.1a2,2,0,0,1-.72,1.11,2.15,2.15,0,0,1-1.34.4,2.13,2.13,0,0,1-1.62-.63,2.46,2.46,0,0,1-.6-1.77,2.58,2.58,0,0,1,.61-1.83,2.05,2.05,0,0,1,1.57-.65,2,2,0,0,1,1.53.64,2.54,2.54,0,0,1,.59,1.79s0,.12,0,.21h-3.48a1.8,1.8,0,0,0,.44,1.18,1.3,1.3,0,0,0,1,.41,1.21,1.21,0,0,0,.74-.23A1.52,1.52,0,0,0,138.17,121.1Zm-2.6-1.28h2.61a1.58,1.58,0,0,0-.3-.88,1.21,1.21,0,0,0-1-.46,1.26,1.26,0,0,0-.92.36A1.45,1.45,0,0,0,135.58,119.83Z"/><path d="M140,122.61v-4.67h.71v.71a1.92,1.92,0,0,1,.5-.66.88.88,0,0,1,.51-.16,1.54,1.54,0,0,1,.81.25l-.27.73a1.12,1.12,0,0,0-.58-.17.75.75,0,0,0-.47.16.84.84,0,0,0-.29.43,3.08,3.08,0,0,0-.13.92v2.44Z"/><path d="M148.54,122.61v-.69a1.71,1.71,0,0,1-1.48.79,1.89,1.89,0,0,1-.77-.16,1.27,1.27,0,0,1-.53-.4,1.49,1.49,0,0,1-.24-.59,4,4,0,0,1,0-.74v-2.89h.79v2.59a4.61,4.61,0,0,0,0,.83.82.82,0,0,0,.32.49,1,1,0,0,0,.6.18,1.31,1.31,0,0,0,.67-.18,1,1,0,0,0,.44-.5,2.47,2.47,0,0,0,.13-.91v-2.5h.79v4.67Z"/><path d="M150.49,122.61v-4.67h.71v.66a1.68,1.68,0,0,1,1.49-.77,2,2,0,0,1,.78.15,1.23,1.23,0,0,1,.53.4,1.52,1.52,0,0,1,.25.58,4.54,4.54,0,0,1,0,.77v2.87h-.79v-2.84a2.1,2.1,0,0,0-.09-.72.75.75,0,0,0-.33-.38,1,1,0,0,0-.55-.14,1.28,1.28,0,0,0-.87.32,1.58,1.58,0,0,0-.37,1.22v2.55Z"/><path d="M157.22,121.9l.11.7a2.93,2.93,0,0,1-.6.07,1.36,1.36,0,0,1-.67-.14.77.77,0,0,1-.33-.36,2.84,2.84,0,0,1-.1-.93v-2.68h-.58v-.62h.58v-1.16l.79-.47v1.63h.79v.62h-.79v2.73a1.4,1.4,0,0,0,0,.43.32.32,0,0,0,.14.15.51.51,0,0,0,.27.06Z"/><path d="M158,117.07v-.91h.79v.91Zm0,5.53v-4.67h.79v4.67Z"/><path d="M160,122.61v-6.44h.79v6.44Z"/><path d="M167.54,122a2.91,2.91,0,0,1-.85.53,2.45,2.45,0,0,1-.87.15,1.69,1.69,0,0,1-1.18-.38,1.24,1.24,0,0,1-.41-1,1.27,1.27,0,0,1,.16-.63,1.29,1.29,0,0,1,.41-.46,1.93,1.93,0,0,1,.57-.26,5.63,5.63,0,0,1,.7-.12,7.22,7.22,0,0,0,1.41-.27c0-.11,0-.18,0-.21a.88.88,0,0,0-.22-.68,1.33,1.33,0,0,0-.9-.27,1.4,1.4,0,0,0-.82.2,1.2,1.2,0,0,0-.39.69l-.77-.11a1.92,1.92,0,0,1,.35-.8,1.52,1.52,0,0,1,.7-.47,3.1,3.1,0,0,1,1.06-.17,2.8,2.8,0,0,1,1,.14,1.29,1.29,0,0,1,.55.35,1.25,1.25,0,0,1,.25.54,4.46,4.46,0,0,1,0,.73v1.05a11.34,11.34,0,0,0,0,1.39,1.77,1.77,0,0,0,.2.56h-.83A1.67,1.67,0,0,1,167.54,122Zm-.07-1.77a5.81,5.81,0,0,1-1.29.3,3,3,0,0,0-.69.16.68.68,0,0,0-.31.26.67.67,0,0,0-.11.38.67.67,0,0,0,.24.53,1,1,0,0,0,.7.21,1.63,1.63,0,0,0,.81-.2,1.23,1.23,0,0,0,.52-.55,1.91,1.91,0,0,0,.13-.79Z"/><path d="M169.48,122.61v-6.44h.79v6.44Z"/><path d="M171.48,122.61v-6.44h.79v6.44Z"/><path d="M179,120.9l.78.1a2,2,0,0,1-.65,1.26,1.9,1.9,0,0,1-1.29.46,2,2,0,0,1-1.54-.63,2.54,2.54,0,0,1-.58-1.8A3.27,3.27,0,0,1,176,119a1.76,1.76,0,0,1,.76-.85,2.27,2.27,0,0,1,1.11-.28,1.94,1.94,0,0,1,1.24.38,1.77,1.77,0,0,1,.62,1.09l-.77.12a1.28,1.28,0,0,0-.39-.71,1,1,0,0,0-.67-.24,1.23,1.23,0,0,0-1,.43,2,2,0,0,0-.37,1.36,2.1,2.1,0,0,0,.36,1.37,1.17,1.17,0,0,0,.94.43,1.11,1.11,0,0,0,.78-.29A1.42,1.42,0,0,0,179,120.9Z"/><path d="M180.2,120.27a2.41,2.41,0,0,1,.72-1.92,2.17,2.17,0,0,1,1.47-.52,2.09,2.09,0,0,1,1.57.63,2.4,2.4,0,0,1,.61,1.74,3.09,3.09,0,0,1-.27,1.42,1.91,1.91,0,0,1-.79.8,2.3,2.3,0,0,1-1.13.29,2.09,2.09,0,0,1-1.58-.63A2.5,2.5,0,0,1,180.2,120.27Zm.81,0a2,2,0,0,0,.39,1.34,1.3,1.3,0,0,0,2,0,2,2,0,0,0,.39-1.37,1.93,1.93,0,0,0-.39-1.31,1.3,1.3,0,0,0-2,0A2,2,0,0,0,181,120.27Z"/><path d="M185.49,122.61v-4.67h.71v.71a1.92,1.92,0,0,1,.5-.66.88.88,0,0,1,.51-.16,1.54,1.54,0,0,1,.81.25l-.27.73a1.12,1.12,0,0,0-.58-.17.75.75,0,0,0-.47.16.84.84,0,0,0-.29.43,3.08,3.08,0,0,0-.13.92v2.44Z"/><path d="M188.49,122.61v-4.67h.71v.71a1.92,1.92,0,0,1,.5-.66.88.88,0,0,1,.51-.16,1.54,1.54,0,0,1,.81.25l-.27.73a1.12,1.12,0,0,0-.58-.17.75.75,0,0,0-.47.16.84.84,0,0,0-.29.43,3.08,3.08,0,0,0-.13.92v2.44Z"/><path d="M194.69,121.1l.82.1a2,2,0,0,1-.72,1.11,2.15,2.15,0,0,1-1.34.4,2.13,2.13,0,0,1-1.62-.63,2.46,2.46,0,0,1-.6-1.77,2.58,2.58,0,0,1,.61-1.83,2.05,2.05,0,0,1,1.57-.65,2,2,0,0,1,1.53.64,2.54,2.54,0,0,1,.59,1.79s0,.12,0,.21H192a1.8,1.8,0,0,0,.44,1.18,1.3,1.3,0,0,0,1,.41,1.21,1.21,0,0,0,.74-.23A1.52,1.52,0,0,0,194.69,121.1Zm-2.6-1.28h2.61a1.58,1.58,0,0,0-.3-.88,1.21,1.21,0,0,0-1-.46,1.26,1.26,0,0,0-.92.36A1.45,1.45,0,0,0,192.09,119.83Z"/><path d="M199.55,120.9l.78.1a2,2,0,0,1-.65,1.26,1.9,1.9,0,0,1-1.29.46,2,2,0,0,1-1.54-.63,2.54,2.54,0,0,1-.58-1.8,3.27,3.27,0,0,1,.25-1.32,1.76,1.76,0,0,1,.76-.85,2.27,2.27,0,0,1,1.11-.28,1.94,1.94,0,0,1,1.24.38,1.77,1.77,0,0,1,.62,1.09l-.77.12a1.28,1.28,0,0,0-.39-.71,1,1,0,0,0-.67-.24,1.23,1.23,0,0,0-1,.43,2,2,0,0,0-.37,1.36,2.1,2.1,0,0,0,.36,1.37,1.17,1.17,0,0,0,.94.43,1.11,1.11,0,0,0,.78-.29A1.42,1.42,0,0,0,199.55,120.9Z"/><path d="M202.73,121.9l.11.7a2.93,2.93,0,0,1-.6.07,1.36,1.36,0,0,1-.67-.14.77.77,0,0,1-.33-.36,2.84,2.84,0,0,1-.1-.93v-2.68h-.58v-.62h.58v-1.16l.79-.47v1.63h.79v.62h-.79v2.73a1.4,1.4,0,0,0,0,.43.32.32,0,0,0,.14.15.51.51,0,0,0,.27.06Z"/><path d="M203.51,117.07v-.91h.79v.91Zm0,5.53v-4.67h.79v4.67Z"/><path d="M206.8,122.61,205,117.94h.83l1,2.79q.16.45.3.94.11-.37.29-.89l1-2.85h.81l-1.77,4.67Z"/><path d="M213.2,121.1l.82.1a2,2,0,0,1-.72,1.11,2.15,2.15,0,0,1-1.34.4,2.13,2.13,0,0,1-1.62-.63,2.46,2.46,0,0,1-.6-1.77,2.58,2.58,0,0,1,.61-1.83,2.05,2.05,0,0,1,1.57-.65,2,2,0,0,1,1.53.64,2.54,2.54,0,0,1,.59,1.79s0,.12,0,.21h-3.48a1.8,1.8,0,0,0,.44,1.18,1.3,1.3,0,0,0,1,.41,1.21,1.21,0,0,0,.74-.23A1.52,1.52,0,0,0,213.2,121.1Zm-2.6-1.28h2.61a1.58,1.58,0,0,0-.3-.88,1.21,1.21,0,0,0-1-.46,1.26,1.26,0,0,0-.92.36A1.45,1.45,0,0,0,210.6,119.83Z"/><path d="M217.19,121.21l.78-.12a1.1,1.1,0,0,0,.37.72,1.29,1.29,0,0,0,.84.25,1.24,1.24,0,0,0,.81-.22.66.66,0,0,0,.26-.52.48.48,0,0,0-.23-.42,3.46,3.46,0,0,0-.81-.27,7.47,7.47,0,0,1-1.21-.38,1.15,1.15,0,0,1-.68-1.07,1.2,1.2,0,0,1,.14-.58,1.28,1.28,0,0,1,.39-.44,1.62,1.62,0,0,1,.5-.23,2.38,2.38,0,0,1,.68-.09,2.7,2.7,0,0,1,1,.16,1.32,1.32,0,0,1,.61.43,1.68,1.68,0,0,1,.27.72l-.77.11a.85.85,0,0,0-.3-.56,1.12,1.12,0,0,0-.71-.2,1.29,1.29,0,0,0-.78.18.52.52,0,0,0-.23.42.43.43,0,0,0,.1.28.7.7,0,0,0,.3.21l.7.2a9.68,9.68,0,0,1,1.17.37,1.19,1.19,0,0,1,.52.42,1.16,1.16,0,0,1,.19.68,1.33,1.33,0,0,1-.23.75,1.48,1.48,0,0,1-.67.54,2.41,2.41,0,0,1-1,.19,2.19,2.19,0,0,1-1.39-.38A1.75,1.75,0,0,1,217.19,121.21Z"/><path d="M223.73,121.9l.11.7a2.93,2.93,0,0,1-.6.07,1.36,1.36,0,0,1-.67-.14.77.77,0,0,1-.33-.36,2.84,2.84,0,0,1-.1-.93v-2.68h-.58v-.62h.58v-1.16l.79-.47v1.63h.79v.62h-.79v2.73a1.4,1.4,0,0,0,0,.43.32.32,0,0,0,.14.15.51.51,0,0,0,.27.06Z"/><path d="M227.7,121.1l.82.1a2,2,0,0,1-.72,1.11,2.15,2.15,0,0,1-1.34.4,2.13,2.13,0,0,1-1.62-.63,2.46,2.46,0,0,1-.6-1.77,2.58,2.58,0,0,1,.61-1.83,2.05,2.05,0,0,1,1.57-.65,2,2,0,0,1,1.53.64,2.54,2.54,0,0,1,.59,1.79s0,.12,0,.21h-3.48a1.8,1.8,0,0,0,.44,1.18,1.3,1.3,0,0,0,1,.41,1.21,1.21,0,0,0,.74-.23A1.52,1.52,0,0,0,227.7,121.1Zm-2.6-1.28h2.61a1.58,1.58,0,0,0-.3-.88,1.21,1.21,0,0,0-1-.46,1.26,1.26,0,0,0-.92.36A1.45,1.45,0,0,0,225.11,119.83Z"/><path d="M229.51,124.4v-6.46h.72v.61a1.77,1.77,0,0,1,.58-.53,1.59,1.59,0,0,1,.78-.18,1.85,1.85,0,0,1,1.05.31,1.89,1.89,0,0,1,.69.87,3.17,3.17,0,0,1,.23,1.23,3.11,3.11,0,0,1-.26,1.29,2,2,0,0,1-1.78,1.18,1.49,1.49,0,0,1-.71-.17,1.61,1.61,0,0,1-.52-.42v2.27Zm.72-4.1a2,2,0,0,0,.36,1.33,1.12,1.12,0,0,0,.88.43,1.14,1.14,0,0,0,.9-.45,2.12,2.12,0,0,0,.38-1.38,2.06,2.06,0,0,0-.37-1.34,1.11,1.11,0,0,0-.88-.44,1.14,1.14,0,0,0-.89.47A2.12,2.12,0,0,0,230.23,120.3Z"/><path d="M234.2,121.21l.78-.12a1.1,1.1,0,0,0,.37.72,1.29,1.29,0,0,0,.84.25,1.24,1.24,0,0,0,.81-.22.66.66,0,0,0,.26-.52.48.48,0,0,0-.23-.42,3.46,3.46,0,0,0-.81-.27,7.47,7.47,0,0,1-1.21-.38,1.15,1.15,0,0,1-.68-1.07,1.2,1.2,0,0,1,.14-.58,1.28,1.28,0,0,1,.39-.44,1.62,1.62,0,0,1,.5-.23,2.38,2.38,0,0,1,.68-.09,2.7,2.7,0,0,1,1,.16,1.32,1.32,0,0,1,.61.43,1.68,1.68,0,0,1,.27.72l-.77.11a.85.85,0,0,0-.3-.56,1.12,1.12,0,0,0-.71-.2,1.29,1.29,0,0,0-.78.18.52.52,0,0,0-.23.42.43.43,0,0,0,.1.28.7.7,0,0,0,.3.21l.7.2a9.68,9.68,0,0,1,1.17.37,1.19,1.19,0,0,1,.52.42,1.16,1.16,0,0,1,.19.68,1.33,1.33,0,0,1-.23.75,1.48,1.48,0,0,1-.67.54,2.41,2.41,0,0,1-1,.19,2.19,2.19,0,0,1-1.39-.38A1.75,1.75,0,0,1,234.2,121.21Z"/><path d="M15.9,133.41V127h.79v2.31a1.77,1.77,0,0,1,1.4-.64,1.89,1.89,0,0,1,.9.2,1.2,1.2,0,0,1,.55.56,2.6,2.6,0,0,1,.17,1v3h-.79v-3a1.23,1.23,0,0,0-.26-.86,1,1,0,0,0-.73-.27,1.29,1.29,0,0,0-.66.18,1,1,0,0,0-.44.5,2.27,2.27,0,0,0-.13.86v2.55Z"/><path d="M24,132.83a2.91,2.91,0,0,1-.85.53,2.45,2.45,0,0,1-.87.15,1.69,1.69,0,0,1-1.18-.38,1.24,1.24,0,0,1-.41-1,1.3,1.3,0,0,1,.56-1.08,1.92,1.92,0,0,1,.57-.26,5.63,5.63,0,0,1,.7-.12,7.23,7.23,0,0,0,1.41-.27c0-.11,0-.18,0-.21a.87.87,0,0,0-.22-.68,1.32,1.32,0,0,0-.9-.27,1.39,1.39,0,0,0-.82.2,1.19,1.19,0,0,0-.39.69l-.77-.11a1.92,1.92,0,0,1,.35-.8,1.52,1.52,0,0,1,.7-.47,3.1,3.1,0,0,1,1.06-.17,2.8,2.8,0,0,1,1,.14,1.28,1.28,0,0,1,.55.35,1.25,1.25,0,0,1,.25.54,4.48,4.48,0,0,1,0,.73v1.05a11.19,11.19,0,0,0,.05,1.39,1.76,1.76,0,0,0,.2.56h-.83A1.67,1.67,0,0,1,24,132.83Zm-.07-1.77a5.8,5.8,0,0,1-1.29.3,3,3,0,0,0-.69.16.68.68,0,0,0-.31.26.7.7,0,0,0,.13.9,1,1,0,0,0,.7.21,1.64,1.64,0,0,0,.81-.2,1.23,1.23,0,0,0,.52-.55,1.9,1.9,0,0,0,.13-.79Z"/><path d="M27.21,133.41l-1.78-4.67h.83l1,2.79q.16.45.3.94.11-.37.29-.89l1-2.85h.81l-1.77,4.67Z"/><path d="M33.61,131.9l.82.1a2,2,0,0,1-.72,1.11,2.15,2.15,0,0,1-1.34.4,2.13,2.13,0,0,1-1.62-.63,2.46,2.46,0,0,1-.6-1.77,2.58,2.58,0,0,1,.61-1.83,2.05,2.05,0,0,1,1.57-.65,2,2,0,0,1,1.53.64,2.53,2.53,0,0,1,.59,1.79s0,.12,0,.21H31a1.8,1.8,0,0,0,.44,1.18,1.3,1.3,0,0,0,1,.41,1.21,1.21,0,0,0,.74-.23A1.52,1.52,0,0,0,33.61,131.9ZM31,130.62h2.61a1.58,1.58,0,0,0-.3-.88,1.21,1.21,0,0,0-1-.46,1.26,1.26,0,0,0-.92.36A1.45,1.45,0,0,0,31,130.62Z"/><path d="M38.65,133.41h-.73V127h.79v2.3a1.57,1.57,0,0,1,1.28-.63,2,2,0,0,1,.81.17,1.66,1.66,0,0,1,.63.49,2.37,2.37,0,0,1,.39.76A3.13,3.13,0,0,1,42,131a2.67,2.67,0,0,1-.59,1.86,1.86,1.86,0,0,1-1.42.65,1.49,1.49,0,0,1-1.3-.69Zm0-2.37a2.42,2.42,0,0,0,.23,1.21,1.13,1.13,0,0,0,1.91.16,2,2,0,0,0,.38-1.34,2.08,2.08,0,0,0-.36-1.35,1.11,1.11,0,0,0-.88-.43,1.14,1.14,0,0,0-.9.45A2,2,0,0,0,38.64,131Z"/><path d="M46.12,131.9l.82.1a2,2,0,0,1-.72,1.11,2.15,2.15,0,0,1-1.34.4,2.13,2.13,0,0,1-1.62-.63,2.46,2.46,0,0,1-.6-1.77,2.58,2.58,0,0,1,.61-1.83,2.05,2.05,0,0,1,1.57-.65,2,2,0,0,1,1.53.64,2.53,2.53,0,0,1,.59,1.79s0,.12,0,.21H43.48a1.8,1.8,0,0,0,.44,1.18,1.3,1.3,0,0,0,1,.41,1.21,1.21,0,0,0,.74-.23A1.52,1.52,0,0,0,46.12,131.9Zm-2.6-1.28h2.61a1.58,1.58,0,0,0-.3-.88,1.21,1.21,0,0,0-1-.46,1.26,1.26,0,0,0-.92.36A1.45,1.45,0,0,0,43.52,130.62Z"/><path d="M51.12,131.9l.82.1a2,2,0,0,1-.72,1.11,2.15,2.15,0,0,1-1.34.4,2.13,2.13,0,0,1-1.62-.63,2.46,2.46,0,0,1-.6-1.77,2.58,2.58,0,0,1,.61-1.83,2.05,2.05,0,0,1,1.57-.65,2,2,0,0,1,1.53.64,2.53,2.53,0,0,1,.59,1.79s0,.12,0,.21H48.48a1.8,1.8,0,0,0,.44,1.18,1.3,1.3,0,0,0,1,.41,1.21,1.21,0,0,0,.74-.23A1.52,1.52,0,0,0,51.12,131.9Zm-2.6-1.28h2.61a1.58,1.58,0,0,0-.3-.88,1.21,1.21,0,0,0-1-.46,1.26,1.26,0,0,0-.92.36A1.45,1.45,0,0,0,48.52,130.62Z"/><path d="M52.93,133.41v-4.67h.71v.66a1.68,1.68,0,0,1,1.49-.77,2,2,0,0,1,.78.15,1.23,1.23,0,0,1,.53.4,1.52,1.52,0,0,1,.25.58,4.54,4.54,0,0,1,0,.77v2.87h-.79v-2.84a2.13,2.13,0,0,0-.09-.72.76.76,0,0,0-.33-.38,1,1,0,0,0-.55-.14,1.28,1.28,0,0,0-.87.32,1.58,1.58,0,0,0-.37,1.22v2.55Z"/><path d="M60.44,133.41v-4.67h.71v.66a1.66,1.66,0,0,1,.58-.55,1.64,1.64,0,0,1,.83-.21,1.54,1.54,0,0,1,.85.22,1.15,1.15,0,0,1,.47.6,1.68,1.68,0,0,1,1.44-.82,1.42,1.42,0,0,1,1.07.38,1.64,1.64,0,0,1,.37,1.18v3.2H66v-2.94a2.18,2.18,0,0,0-.08-.68.66.66,0,0,0-.28-.34.87.87,0,0,0-.47-.13,1.11,1.11,0,0,0-.82.33,1.44,1.44,0,0,0-.33,1v2.71h-.79v-3a1.33,1.33,0,0,0-.19-.79.73.73,0,0,0-.63-.26,1.15,1.15,0,0,0-.62.18,1,1,0,0,0-.41.51,2.89,2.89,0,0,0-.13,1v2.42Z"/><path d="M71,132.83a2.91,2.91,0,0,1-.85.53,2.45,2.45,0,0,1-.87.15,1.69,1.69,0,0,1-1.18-.38,1.24,1.24,0,0,1-.41-1,1.3,1.3,0,0,1,.56-1.08,1.92,1.92,0,0,1,.57-.26,5.63,5.63,0,0,1,.7-.12,7.23,7.23,0,0,0,1.41-.27c0-.11,0-.18,0-.21a.87.87,0,0,0-.22-.68,1.32,1.32,0,0,0-.9-.27,1.39,1.39,0,0,0-.82.2,1.19,1.19,0,0,0-.39.69l-.77-.11a1.92,1.92,0,0,1,.35-.8,1.52,1.52,0,0,1,.7-.47,3.1,3.1,0,0,1,1.06-.17,2.8,2.8,0,0,1,1,.14,1.28,1.28,0,0,1,.55.35,1.25,1.25,0,0,1,.25.54,4.48,4.48,0,0,1,0,.73v1.05a11.19,11.19,0,0,0,.05,1.39,1.76,1.76,0,0,0,.2.56h-.83A1.67,1.67,0,0,1,71,132.83Zm-.07-1.77a5.8,5.8,0,0,1-1.29.3,3,3,0,0,0-.69.16.68.68,0,0,0-.31.26.7.7,0,0,0,.13.9,1,1,0,0,0,.7.21,1.64,1.64,0,0,0,.81-.2,1.23,1.23,0,0,0,.52-.55,1.9,1.9,0,0,0,.13-.79Z"/><path d="M76,133.41v-.59a1.45,1.45,0,0,1-1.31.69,1.83,1.83,0,0,1-1-.31,2,2,0,0,1-.73-.86,3,3,0,0,1-.26-1.27,3.32,3.32,0,0,1,.23-1.27,1.83,1.83,0,0,1,.7-.87,1.86,1.86,0,0,1,1-.3,1.55,1.55,0,0,1,1.29.64V127h.79v6.44Zm-2.5-2.33a2,2,0,0,0,.38,1.34,1.14,1.14,0,0,0,.89.44,1.12,1.12,0,0,0,.88-.42,2,2,0,0,0,.36-1.29,2.2,2.2,0,0,0-.37-1.41,1.13,1.13,0,0,0-.91-.45,1.1,1.1,0,0,0-.88.43A2.13,2.13,0,0,0,73.47,131.08Z"/><path d="M81.14,131.9l.82.1a2,2,0,0,1-.72,1.11,2.15,2.15,0,0,1-1.34.4,2.13,2.13,0,0,1-1.62-.63,2.46,2.46,0,0,1-.6-1.77,2.58,2.58,0,0,1,.61-1.83,2.05,2.05,0,0,1,1.57-.65,2,2,0,0,1,1.53.64,2.53,2.53,0,0,1,.59,1.79s0,.12,0,.21H78.5a1.8,1.8,0,0,0,.44,1.18,1.3,1.3,0,0,0,1,.41,1.21,1.21,0,0,0,.74-.23A1.52,1.52,0,0,0,81.14,131.9Zm-2.6-1.28h2.61a1.58,1.58,0,0,0-.3-.88,1.21,1.21,0,0,0-1-.46,1.26,1.26,0,0,0-.92.36A1.45,1.45,0,0,0,78.54,130.62Z"/><path d="M86.18,133.41h-.73V127h.79v2.3a1.57,1.57,0,0,1,1.28-.63,2,2,0,0,1,.81.17,1.66,1.66,0,0,1,.63.49,2.37,2.37,0,0,1,.39.76,3.13,3.13,0,0,1,.14.95,2.67,2.67,0,0,1-.59,1.86,1.86,1.86,0,0,1-1.42.65,1.49,1.49,0,0,1-1.3-.69Zm0-2.37a2.42,2.42,0,0,0,.23,1.21,1.13,1.13,0,0,0,1.91.16,2,2,0,0,0,.38-1.34,2.08,2.08,0,0,0-.36-1.35,1.11,1.11,0,0,0-.88-.43,1.14,1.14,0,0,0-.9.45A2,2,0,0,0,86.17,131Z"/><path d="M90.42,135.2l-.09-.74a1.76,1.76,0,0,0,.45.07.87.87,0,0,0,.42-.09.72.72,0,0,0,.26-.25,3.88,3.88,0,0,0,.24-.59l.07-.19L90,128.74h.85l1,2.7c.13.34.24.7.34,1.08a10.74,10.74,0,0,1,.33-1.06l1-2.72h.79l-1.78,4.75a9.33,9.33,0,0,1-.44,1.06,1.57,1.57,0,0,1-.48.57,1.15,1.15,0,0,1-.65.18A1.59,1.59,0,0,1,90.42,135.2Z"/><path d="M100.5,132.83a2.91,2.91,0,0,1-.85.53,2.45,2.45,0,0,1-.87.15,1.69,1.69,0,0,1-1.18-.38,1.24,1.24,0,0,1-.41-1,1.3,1.3,0,0,1,.56-1.08,1.92,1.92,0,0,1,.57-.26,5.63,5.63,0,0,1,.7-.12,7.23,7.23,0,0,0,1.41-.27c0-.11,0-.18,0-.21a.87.87,0,0,0-.22-.68,1.32,1.32,0,0,0-.9-.27,1.39,1.39,0,0,0-.82.2,1.19,1.19,0,0,0-.39.69l-.77-.11a1.92,1.92,0,0,1,.35-.8,1.52,1.52,0,0,1,.7-.47,3.1,3.1,0,0,1,1.06-.17,2.8,2.8,0,0,1,1,.14,1.28,1.28,0,0,1,.55.35,1.25,1.25,0,0,1,.25.54,4.48,4.48,0,0,1,0,.73v1.05a11.19,11.19,0,0,0,.05,1.39,1.76,1.76,0,0,0,.2.56h-.83A1.67,1.67,0,0,1,100.5,132.83Zm-.07-1.77a5.8,5.8,0,0,1-1.29.3,3,3,0,0,0-.69.16.68.68,0,0,0-.31.26.7.7,0,0,0,.13.9,1,1,0,0,0,.7.21,1.64,1.64,0,0,0,.81-.2,1.23,1.23,0,0,0,.52-.55,1.9,1.9,0,0,0,.13-.79Z"/><path d="M107.94,135.2v-2.29a1.4,1.4,0,0,1-.52.43,1.5,1.5,0,0,1-.71.17,1.86,1.86,0,0,1-1.43-.66,2.61,2.61,0,0,1-.6-1.82,3.11,3.11,0,0,1,.24-1.26,1.81,1.81,0,0,1,.71-.85,1.89,1.89,0,0,1,1-.29,1.56,1.56,0,0,1,1.36.73v-.62h.71v6.46Zm-2.44-4.14a2.06,2.06,0,0,0,.38,1.35,1.15,1.15,0,0,0,.91.45,1.11,1.11,0,0,0,.87-.43,2,2,0,0,0,.36-1.3,2.18,2.18,0,0,0-.38-1.4,1.14,1.14,0,0,0-.9-.47,1.09,1.09,0,0,0-.87.44A2.13,2.13,0,0,0,105.5,131.06Z"/><path d="M113,133.41v-.69a1.71,1.71,0,0,1-1.48.79,1.89,1.89,0,0,1-.77-.16,1.27,1.27,0,0,1-.53-.4,1.49,1.49,0,0,1-.24-.59,4,4,0,0,1,0-.74v-2.89h.79v2.59a4.6,4.6,0,0,0,0,.83.82.82,0,0,0,.32.49,1,1,0,0,0,.6.18,1.31,1.31,0,0,0,.67-.18,1,1,0,0,0,.44-.5,2.48,2.48,0,0,0,.13-.91v-2.5h.79v4.67Z"/><path d="M118,132.83a2.91,2.91,0,0,1-.85.53,2.45,2.45,0,0,1-.87.15,1.69,1.69,0,0,1-1.18-.38,1.24,1.24,0,0,1-.41-1,1.3,1.3,0,0,1,.56-1.08,1.92,1.92,0,0,1,.57-.26,5.63,5.63,0,0,1,.7-.12,7.23,7.23,0,0,0,1.41-.27c0-.11,0-.18,0-.21a.87.87,0,0,0-.22-.68,1.32,1.32,0,0,0-.9-.27,1.39,1.39,0,0,0-.82.2,1.19,1.19,0,0,0-.39.69l-.77-.11a1.92,1.92,0,0,1,.35-.8,1.52,1.52,0,0,1,.7-.47,3.1,3.1,0,0,1,1.06-.17,2.8,2.8,0,0,1,1,.14,1.28,1.28,0,0,1,.55.35,1.25,1.25,0,0,1,.25.54,4.48,4.48,0,0,1,0,.73v1.05a11.19,11.19,0,0,0,.05,1.39,1.76,1.76,0,0,0,.2.56h-.83A1.67,1.67,0,0,1,118,132.83Zm-.07-1.77a5.8,5.8,0,0,1-1.29.3,3,3,0,0,0-.69.16.68.68,0,0,0-.31.26.7.7,0,0,0,.13.9,1,1,0,0,0,.7.21,1.64,1.64,0,0,0,.81-.2,1.23,1.23,0,0,0,.52-.55,1.9,1.9,0,0,0,.13-.79Z"/><path d="M120,133.41V127h.79v6.44Z"/><path d="M122,127.87V127h.79v.91Zm0,5.53v-4.67h.79v4.67Z"/><path d="M124.17,133.41v-4.05h-.7v-.62h.7v-.5a2.17,2.17,0,0,1,.08-.7,1,1,0,0,1,.4-.5,1.45,1.45,0,0,1,.81-.19,3.88,3.88,0,0,1,.74.08l-.12.69a2.65,2.65,0,0,0-.47,0,.7.7,0,0,0-.51.15.84.84,0,0,0-.15.58v.43h.91v.62H125v4.05Z"/><path d="M126.48,127.87V127h.79v.91Zm0,5.53v-4.67h.79v4.67Z"/><path d="M131.67,131.9l.82.1a2,2,0,0,1-.72,1.11,2.15,2.15,0,0,1-1.34.4,2.13,2.13,0,0,1-1.62-.63,2.46,2.46,0,0,1-.6-1.77,2.58,2.58,0,0,1,.61-1.83,2,2,0,0,1,1.57-.65,2,2,0,0,1,1.53.64,2.54,2.54,0,0,1,.59,1.79s0,.12,0,.21H129a1.8,1.8,0,0,0,.44,1.18,1.3,1.3,0,0,0,1,.41,1.21,1.21,0,0,0,.74-.23A1.52,1.52,0,0,0,131.67,131.9Zm-2.6-1.28h2.61a1.58,1.58,0,0,0-.3-.88,1.21,1.21,0,0,0-1-.46,1.26,1.26,0,0,0-.92.36A1.45,1.45,0,0,0,129.08,130.62Z"/><path d="M136.51,133.41v-.59a1.45,1.45,0,0,1-1.3.69,1.83,1.83,0,0,1-1-.31,2,2,0,0,1-.73-.86,3,3,0,0,1-.26-1.27,3.3,3.3,0,0,1,.23-1.27,1.82,1.82,0,0,1,.7-.87,1.86,1.86,0,0,1,1-.3,1.56,1.56,0,0,1,.75.18,1.58,1.58,0,0,1,.54.46V127h.79v6.44Zm-2.5-2.33a2,2,0,0,0,.38,1.34,1.14,1.14,0,0,0,.89.44,1.12,1.12,0,0,0,.88-.42,2,2,0,0,0,.36-1.29,2.2,2.2,0,0,0-.37-1.41,1.14,1.14,0,0,0-.91-.45,1.1,1.1,0,0,0-.88.43A2.13,2.13,0,0,0,134,131.08Z"/><path d="M140.67,132l.78-.12a1.1,1.1,0,0,0,.37.72,1.29,1.29,0,0,0,.84.25,1.24,1.24,0,0,0,.81-.22.66.66,0,0,0,.26-.52.48.48,0,0,0-.23-.42,3.46,3.46,0,0,0-.81-.27,7.47,7.47,0,0,1-1.21-.38,1.15,1.15,0,0,1-.68-1.07,1.2,1.2,0,0,1,.14-.58,1.28,1.28,0,0,1,.39-.44,1.62,1.62,0,0,1,.5-.23,2.38,2.38,0,0,1,.68-.09,2.7,2.7,0,0,1,1,.16,1.32,1.32,0,0,1,.61.43,1.68,1.68,0,0,1,.27.72l-.77.11a.85.85,0,0,0-.3-.56,1.12,1.12,0,0,0-.71-.2,1.29,1.29,0,0,0-.78.18.52.52,0,0,0-.23.42.43.43,0,0,0,.1.28.7.7,0,0,0,.3.21l.7.2a9.68,9.68,0,0,1,1.17.37,1.19,1.19,0,0,1,.52.42,1.16,1.16,0,0,1,.19.68,1.33,1.33,0,0,1-.23.75,1.48,1.48,0,0,1-.67.54,2.41,2.41,0,0,1-1,.19,2.19,2.19,0,0,1-1.39-.38A1.75,1.75,0,0,1,140.67,132Z"/><path d="M148.68,131.9l.82.1a2,2,0,0,1-.72,1.11,2.15,2.15,0,0,1-1.34.4,2.13,2.13,0,0,1-1.62-.63,2.46,2.46,0,0,1-.6-1.77,2.58,2.58,0,0,1,.61-1.83,2.05,2.05,0,0,1,1.57-.65,2,2,0,0,1,1.53.64,2.54,2.54,0,0,1,.59,1.79s0,.12,0,.21H146a1.8,1.8,0,0,0,.44,1.18,1.3,1.3,0,0,0,1,.41,1.21,1.21,0,0,0,.74-.23A1.52,1.52,0,0,0,148.68,131.9Zm-2.6-1.28h2.61a1.58,1.58,0,0,0-.3-.88,1.21,1.21,0,0,0-1-.46,1.26,1.26,0,0,0-.92.36A1.45,1.45,0,0,0,146.09,130.62Z"/><path d="M150.49,133.41v-4.67h.71v.71a1.92,1.92,0,0,1,.5-.66.88.88,0,0,1,.51-.16,1.54,1.54,0,0,1,.81.25l-.27.73a1.12,1.12,0,0,0-.58-.17.75.75,0,0,0-.47.16.84.84,0,0,0-.29.43,3.08,3.08,0,0,0-.13.92v2.44Z"/><path d="M154.79,133.41,153,128.74h.83l1,2.79q.16.45.3.94.11-.37.29-.89l1-2.85h.81l-1.77,4.67Z"/><path d="M158,127.87V127h.79v.91Zm0,5.53v-4.67h.79v4.67Z"/><path d="M163,131.7l.78.1a2,2,0,0,1-.65,1.26,1.9,1.9,0,0,1-1.29.46,2,2,0,0,1-1.54-.63,2.54,2.54,0,0,1-.58-1.8,3.27,3.27,0,0,1,.25-1.32,1.76,1.76,0,0,1,.76-.85,2.27,2.27,0,0,1,1.11-.28,1.94,1.94,0,0,1,1.24.38,1.77,1.77,0,0,1,.62,1.09l-.77.12a1.28,1.28,0,0,0-.39-.71,1,1,0,0,0-.67-.24,1.23,1.23,0,0,0-1,.43,2,2,0,0,0-.37,1.36,2.1,2.1,0,0,0,.36,1.37,1.17,1.17,0,0,0,.94.43,1.11,1.11,0,0,0,.78-.29A1.42,1.42,0,0,0,163,131.7Z"/><path d="M167.69,131.9l.82.1a2,2,0,0,1-.72,1.11,2.15,2.15,0,0,1-1.34.4,2.13,2.13,0,0,1-1.62-.63,2.46,2.46,0,0,1-.6-1.77,2.58,2.58,0,0,1,.61-1.83,2.05,2.05,0,0,1,1.57-.65,2,2,0,0,1,1.53.64,2.54,2.54,0,0,1,.59,1.79s0,.12,0,.21H165a1.8,1.8,0,0,0,.44,1.18,1.3,1.3,0,0,0,1,.41,1.21,1.21,0,0,0,.74-.23A1.52,1.52,0,0,0,167.69,131.9Zm-2.6-1.28h2.61a1.58,1.58,0,0,0-.3-.88,1.21,1.21,0,0,0-1-.46,1.26,1.26,0,0,0-.92.36A1.45,1.45,0,0,0,165.09,130.62Z"/><path d="M173.72,132.7l.11.7a2.93,2.93,0,0,1-.6.07,1.36,1.36,0,0,1-.67-.14.77.77,0,0,1-.33-.36,2.84,2.84,0,0,1-.1-.93v-2.68h-.58v-.62h.58v-1.16l.79-.47v1.63h.79v.62h-.79v2.73a1.4,1.4,0,0,0,0,.43.32.32,0,0,0,.14.15.51.51,0,0,0,.27.06Z"/><path d="M177.69,131.9l.82.1a2,2,0,0,1-.72,1.11,2.15,2.15,0,0,1-1.34.4,2.13,2.13,0,0,1-1.62-.63,2.46,2.46,0,0,1-.6-1.77,2.58,2.58,0,0,1,.61-1.83,2.05,2.05,0,0,1,1.57-.65,2,2,0,0,1,1.53.64,2.54,2.54,0,0,1,.59,1.79s0,.12,0,.21h-3.48a1.8,1.8,0,0,0,.44,1.18,1.3,1.3,0,0,0,1,.41,1.21,1.21,0,0,0,.74-.23A1.52,1.52,0,0,0,177.69,131.9Zm-2.6-1.28h2.61a1.58,1.58,0,0,0-.3-.88,1.21,1.21,0,0,0-1-.46,1.26,1.26,0,0,0-.92.36A1.45,1.45,0,0,0,175.1,130.62Z"/><path d="M182.55,131.7l.78.1a2,2,0,0,1-.65,1.26,1.9,1.9,0,0,1-1.29.46,2,2,0,0,1-1.54-.63,2.54,2.54,0,0,1-.58-1.8,3.27,3.27,0,0,1,.25-1.32,1.76,1.76,0,0,1,.76-.85,2.27,2.27,0,0,1,1.11-.28,1.94,1.94,0,0,1,1.24.38,1.77,1.77,0,0,1,.62,1.09l-.77.12a1.28,1.28,0,0,0-.39-.71,1,1,0,0,0-.67-.24,1.23,1.23,0,0,0-1,.43,2,2,0,0,0-.37,1.36,2.1,2.1,0,0,0,.36,1.37,1.17,1.17,0,0,0,.94.43,1.11,1.11,0,0,0,.78-.29A1.42,1.42,0,0,0,182.55,131.7Z"/><path d="M184,133.41V127h.79v2.31a1.77,1.77,0,0,1,1.4-.64,1.89,1.89,0,0,1,.9.2,1.2,1.2,0,0,1,.55.56,2.6,2.6,0,0,1,.17,1v3H187v-3a1.23,1.23,0,0,0-.26-.86,1,1,0,0,0-.73-.27,1.29,1.29,0,0,0-.66.18,1,1,0,0,0-.44.5,2.27,2.27,0,0,0-.13.86v2.55Z"/><path d="M189,133.41v-4.67h.71v.66a1.68,1.68,0,0,1,1.49-.77,2,2,0,0,1,.78.15,1.23,1.23,0,0,1,.53.4,1.52,1.52,0,0,1,.25.58,4.54,4.54,0,0,1,0,.77v2.87H192v-2.84a2.1,2.1,0,0,0-.09-.72.75.75,0,0,0-.33-.38,1,1,0,0,0-.55-.14,1.28,1.28,0,0,0-.87.32,1.58,1.58,0,0,0-.37,1.22v2.55Z"/><path d="M194,127.87V127h.79v.91Zm0,5.53v-4.67h.79v4.67Z"/><path d="M199.06,131.7l.78.1a2,2,0,0,1-.65,1.26,1.9,1.9,0,0,1-1.29.46,2,2,0,0,1-1.54-.63,2.54,2.54,0,0,1-.58-1.8,3.27,3.27,0,0,1,.25-1.32,1.76,1.76,0,0,1,.76-.85,2.27,2.27,0,0,1,1.11-.28,1.94,1.94,0,0,1,1.24.38,1.77,1.77,0,0,1,.62,1.09l-.77.12a1.28,1.28,0,0,0-.39-.71,1,1,0,0,0-.67-.24,1.23,1.23,0,0,0-1,.43,2,2,0,0,0-.37,1.36,2.1,2.1,0,0,0,.36,1.37,1.17,1.17,0,0,0,.94.43,1.11,1.11,0,0,0,.78-.29A1.42,1.42,0,0,0,199.06,131.7Z"/><path d="M200.52,127.87V127h.79v.91Zm0,5.53v-4.67h.79v4.67Z"/><path d="M205.56,132.83a2.91,2.91,0,0,1-.85.53,2.45,2.45,0,0,1-.87.15,1.69,1.69,0,0,1-1.18-.38,1.24,1.24,0,0,1-.41-1,1.27,1.27,0,0,1,.16-.63,1.29,1.29,0,0,1,.41-.46,1.93,1.93,0,0,1,.57-.26,5.63,5.63,0,0,1,.7-.12,7.22,7.22,0,0,0,1.41-.27c0-.11,0-.18,0-.21a.88.88,0,0,0-.22-.68,1.33,1.33,0,0,0-.9-.27,1.4,1.4,0,0,0-.82.2,1.2,1.2,0,0,0-.39.69l-.77-.11a1.92,1.92,0,0,1,.35-.8,1.52,1.52,0,0,1,.7-.47,3.1,3.1,0,0,1,1.06-.17,2.8,2.8,0,0,1,1,.14,1.29,1.29,0,0,1,.55.35,1.25,1.25,0,0,1,.25.54,4.46,4.46,0,0,1,0,.73v1.05a11.34,11.34,0,0,0,0,1.39,1.77,1.77,0,0,0,.2.56h-.83A1.67,1.67,0,0,1,205.56,132.83Zm-.07-1.77a5.81,5.81,0,0,1-1.29.3,3,3,0,0,0-.69.16.68.68,0,0,0-.31.26.67.67,0,0,0-.11.38.67.67,0,0,0,.24.53,1,1,0,0,0,.7.21,1.63,1.63,0,0,0,.81-.2,1.23,1.23,0,0,0,.52-.55,1.91,1.91,0,0,0,.13-.79Z"/><path d="M207.52,133.41v-4.67h.71v.66a1.68,1.68,0,0,1,1.49-.77,2,2,0,0,1,.78.15,1.23,1.23,0,0,1,.53.4,1.52,1.52,0,0,1,.25.58,4.54,4.54,0,0,1,0,.77v2.87h-.79v-2.84a2.1,2.1,0,0,0-.09-.72.75.75,0,0,0-.33-.38,1,1,0,0,0-.55-.14,1.28,1.28,0,0,0-.87.32,1.58,1.58,0,0,0-.37,1.22v2.55Z"/><path d="M212.75,133.41v-.9h.9v.9Z"/><path d="M80.18,5.2A1.23,1.23,0,0,0,79,4.36a1.12,1.12,0,0,0-1.13.85L69.81,19c-1.06,1.76-.14,2.47.92,2.54H87.24c1.13-.07,2-.78.92-2.54Z" style="fill:#fff"/><path d="M79.58,15.56a.53.53,0,0,1-.49.49H79a.48.48,0,0,1-.49-.49c-1.62-5.15-2.4-8.75.49-8.75S81.13,10.41,79.58,15.56Z"/><path d="M79,21.14A1.55,1.55,0,1,1,79,18h.07a1.51,1.51,0,0,1,1.48,1.55A1.52,1.52,0,0,1,79,21.14Z"/><path d="M111.16,15.65l3.36,1.07a7.54,7.54,0,0,1-2.57,4.18,8.09,8.09,0,0,1-10.19-1,9,9,0,0,1-2.2-6.39,9.39,9.39,0,0,1,2.21-6.66,7.59,7.59,0,0,1,5.82-2.37,7.15,7.15,0,0,1,5.12,1.86,6.78,6.78,0,0,1,1.76,3.16l-3.43.82a3.55,3.55,0,0,0-3.62-2.88,3.91,3.91,0,0,0-3.1,1.37,6.72,6.72,0,0,0-1.19,4.44q0,3.26,1.17,4.64a3.81,3.81,0,0,0,3,1.38,3.47,3.47,0,0,0,2.38-.88A5.11,5.11,0,0,0,111.16,15.65Z" style="fill:#fff"/><path d="M131.69,22h-3.77l-1.5-3.9h-6.87L118.14,22h-3.68l6.69-17.18h3.67Zm-6.39-6.8-2.37-6.37-2.32,6.37Z" style="fill:#fff"/><path d="M132.21,4.78h3.47v9.3a19.3,19.3,0,0,0,.13,2.87,2.78,2.78,0,0,0,1.06,1.69,3.69,3.69,0,0,0,2.29.64,3.5,3.5,0,0,0,2.23-.6,2.38,2.38,0,0,0,.9-1.48,19.33,19.33,0,0,0,.15-2.92V4.78h3.47v9a23.19,23.19,0,0,1-.28,4.37,4.84,4.84,0,0,1-1,2.16,5.24,5.24,0,0,1-2,1.4,8.79,8.79,0,0,1-3.3.52,9.51,9.51,0,0,1-3.73-.57,5.34,5.34,0,0,1-2-1.48,4.73,4.73,0,0,1-1-1.9,20.86,20.86,0,0,1-.34-4.36Z" style="fill:#fff"/><path d="M152.14,22V7.69H147V4.78H160.7V7.69h-5.09V22Z" style="fill:#fff"/><path d="M161.53,22V4.78H165V22Z" style="fill:#fff"/><path d="M166.31,13.48a10.93,10.93,0,0,1,.79-4.41,8.09,8.09,0,0,1,1.6-2.36,6.69,6.69,0,0,1,2.22-1.55,9.43,9.43,0,0,1,3.7-.68,8.07,8.07,0,0,1,6.08,2.36A9,9,0,0,1,183,13.4a9,9,0,0,1-2.26,6.51,8,8,0,0,1-6,2.35,8.09,8.09,0,0,1-6.09-2.34A8.87,8.87,0,0,1,166.31,13.48Zm3.57-.12a6.44,6.44,0,0,0,1.35,4.42,4.63,4.63,0,0,0,6.83,0,6.57,6.57,0,0,0,1.33-4.48,6.46,6.46,0,0,0-1.29-4.41,4.8,4.8,0,0,0-6.9,0A6.49,6.49,0,0,0,169.88,13.36Z" style="fill:#fff"/><path d="M184.42,22V4.78h3.38l7,11.47V4.78H198V22h-3.48l-6.93-11.2V22Z" style="fill:#fff"/></svg>