<svg id="Layer_1" data-name="Layer 1" xmlns="http://www.w3.org/2000/svg" viewBox="0 0 254.39 83.08"><title>caution-fall_hzard_spcl_trnng_and_eqpmnt_rqird</title><rect x="6.32" y="5.16" width="241.77" height="22.99"/><path d="M91.22,18.52l2.94.93a6.6,6.6,0,0,1-2.25,3.66A7.08,7.08,0,0,1,83,22.26a7.83,7.83,0,0,1-1.93-5.59A8.22,8.22,0,0,1,83,10.84a6.64,6.64,0,0,1,5.1-2.08,6.25,6.25,0,0,1,4.48,1.63,5.93,5.93,0,0,1,1.54,2.77l-3,.72A3.11,3.11,0,0,0,88,11.36a3.42,3.42,0,0,0-2.71,1.2,5.88,5.88,0,0,0-1,3.89,6.31,6.31,0,0,0,1,4.06,3.33,3.33,0,0,0,2.67,1.21A3,3,0,0,0,90,20.94,4.47,4.47,0,0,0,91.22,18.52Z" style="fill:#fff"/><path d="M110.35,24.05H107l-1.31-3.41h-6l-1.24,3.41H95.27l5.85-15h3.21Zm-5.59-5.95-2.07-5.58-2,5.58Z" style="fill:#fff"/><path d="M112,9h3v8.14a16.89,16.89,0,0,0,.11,2.51,2.43,2.43,0,0,0,.93,1.48,3.23,3.23,0,0,0,2,.56,3.06,3.06,0,0,0,1.95-.53,2.08,2.08,0,0,0,.79-1.3,16.91,16.91,0,0,0,.13-2.55V9h3v7.9a20.29,20.29,0,0,1-.25,3.82,4.24,4.24,0,0,1-.91,1.89A4.58,4.58,0,0,1,121,23.85a7.69,7.69,0,0,1-2.89.46,8.33,8.33,0,0,1-3.27-.5,4.66,4.66,0,0,1-1.76-1.29,4.14,4.14,0,0,1-.85-1.67A18.26,18.26,0,0,1,112,17Z" style="fill:#fff"/><path d="M130.55,24.05V11.56h-4.46V9H138v2.54h-4.45V24.05Z" style="fill:#fff"/><path d="M139.92,24.05V9h3v15Z" style="fill:#fff"/><path d="M145.25,16.63a9.56,9.56,0,0,1,.69-3.86,7.08,7.08,0,0,1,1.4-2.06,5.86,5.86,0,0,1,1.94-1.35,8.25,8.25,0,0,1,3.24-.59,7.06,7.06,0,0,1,5.32,2.06,7.9,7.9,0,0,1,2,5.73,7.87,7.87,0,0,1-2,5.7,7,7,0,0,1-5.29,2.06,7.08,7.08,0,0,1-5.33-2A7.76,7.76,0,0,1,145.25,16.63Zm3.13-.1a5.63,5.63,0,0,0,1.18,3.87,4.05,4.05,0,0,0,6,0,5.75,5.75,0,0,0,1.16-3.92,5.65,5.65,0,0,0-1.13-3.86,4.2,4.2,0,0,0-6,0A5.68,5.68,0,0,0,148.38,16.52Z" style="fill:#fff"/><path d="M162.26,24.05V9h3l6.15,10V9h2.82v15h-3l-6.06-9.8v9.8Z" style="fill:#fff"/><rect x="0.24" y="0.24" width="253.91" height="82.6" style="fill:none;stroke:#000;stroke-width:0.48597px"/><path d="M6.32,40.78l2.47-6.44h.92l2.64,6.44h-1l-.75-2H7.93l-.71,2Zm1.86-2.65h2.18l-.67-1.78q-.31-.81-.46-1.34a8.21,8.21,0,0,1-.35,1.23Z" style="fill:#231f20"/><path d="M13,40.78V34.34h.85V40H17v.76Z" style="fill:#231f20"/><path d="M18,40.78V34.34h.85V40H22v.76Z" style="fill:#231f20"/><path d="M27.57,40.78V34.34H30a5.87,5.87,0,0,1,1,.06,2,2,0,0,1,.8.3,1.58,1.58,0,0,1,.52.62A2.1,2.1,0,0,1,32,37.59a2.51,2.51,0,0,1-1.89.57H28.42v2.62Zm.85-3.38h1.67a1.77,1.77,0,0,0,1.17-.31,1.1,1.1,0,0,0,.35-.87,1.16,1.16,0,0,0-.2-.69,1,1,0,0,0-.54-.38,3.64,3.64,0,0,0-.8-.06H28.42Z" style="fill:#231f20"/><path d="M33.59,40.78V34.34h4.66v.76H34.44v2H38v.76H34.44V40h4v.76Z" style="fill:#231f20"/><path d="M39.59,40.78V34.34h2.86a3.8,3.8,0,0,1,1.31.17,1.43,1.43,0,0,1,.72.61,1.83,1.83,0,0,1,.27,1,1.62,1.62,0,0,1-.44,1.16,2.25,2.25,0,0,1-1.37.6,2.21,2.21,0,0,1,.51.32,4.43,4.43,0,0,1,.71.86l1.12,1.75H44.19l-.85-1.34q-.37-.58-.62-.89a1.92,1.92,0,0,0-.43-.43,1.27,1.27,0,0,0-.39-.17,2.56,2.56,0,0,0-.47,0h-1v2.86Zm.85-3.6h1.83a2.75,2.75,0,0,0,.91-.12,1,1,0,0,0,.5-.39,1,1,0,0,0,.17-.58,1,1,0,0,0-.33-.75,1.55,1.55,0,0,0-1-.29h-2Z" style="fill:#231f20"/><path d="M45.78,38.71l.8-.07a1.77,1.77,0,0,0,.27.79,1.45,1.45,0,0,0,.65.5,2.46,2.46,0,0,0,1,.19,2.37,2.37,0,0,0,.86-.15,1.19,1.19,0,0,0,.56-.4.92.92,0,0,0,.18-.55.84.84,0,0,0-.18-.53,1.3,1.3,0,0,0-.58-.38,11.36,11.36,0,0,0-1.15-.31,5.86,5.86,0,0,1-1.24-.4,1.74,1.74,0,0,1-.69-.6A1.47,1.47,0,0,1,46,36a1.64,1.64,0,0,1,.28-.91,1.71,1.71,0,0,1,.81-.64,3.07,3.07,0,0,1,1.18-.22,3.22,3.22,0,0,1,1.26.23,1.82,1.82,0,0,1,.84.68,2,2,0,0,1,.32,1l-.82.06a1.32,1.32,0,0,0-.45-.92A1.74,1.74,0,0,0,48.33,35a1.8,1.8,0,0,0-1.13.28.85.85,0,0,0-.35.68.73.73,0,0,0,.25.57,3.38,3.38,0,0,0,1.29.46,8.55,8.55,0,0,1,1.43.41,2,2,0,0,1,.83.66,1.6,1.6,0,0,1,.27.92,1.75,1.75,0,0,1-.29,1,1.94,1.94,0,0,1-.85.71,3,3,0,0,1-1.24.25,3.7,3.7,0,0,1-1.47-.25,2.05,2.05,0,0,1-.93-.77A2.18,2.18,0,0,1,45.78,38.71Z" style="fill:#231f20"/><path d="M51.82,37.64a3.5,3.5,0,0,1,.86-2.51,2.93,2.93,0,0,1,2.22-.91,3.08,3.08,0,0,1,1.61.43,2.79,2.79,0,0,1,1.09,1.19A3.87,3.87,0,0,1,58,37.57a3.8,3.8,0,0,1-.4,1.75,2.7,2.7,0,0,1-1.12,1.17,3.2,3.2,0,0,1-1.56.4,3,3,0,0,1-1.63-.44,2.83,2.83,0,0,1-1.09-1.2A3.64,3.64,0,0,1,51.82,37.64Zm.88,0a2.58,2.58,0,0,0,.63,1.83,2.18,2.18,0,0,0,3.16,0,2.74,2.74,0,0,0,.62-1.92,3.3,3.3,0,0,0-.27-1.37,2,2,0,0,0-.78-.91A2.11,2.11,0,0,0,54.91,35a2.18,2.18,0,0,0-1.56.62A2.78,2.78,0,0,0,52.7,37.66Z" style="fill:#231f20"/><path d="M59.07,40.78V34.34h.87l3.38,5.06V34.34h.82v6.44h-.87l-3.38-5.06v5.06Z" style="fill:#231f20"/><path d="M65.29,38.71l.8-.07a1.77,1.77,0,0,0,.27.79,1.45,1.45,0,0,0,.65.5,2.46,2.46,0,0,0,1,.19,2.37,2.37,0,0,0,.86-.15,1.19,1.19,0,0,0,.56-.4.92.92,0,0,0,.18-.55.84.84,0,0,0-.18-.53,1.3,1.3,0,0,0-.58-.38,11.36,11.36,0,0,0-1.15-.31,5.86,5.86,0,0,1-1.24-.4,1.74,1.74,0,0,1-.69-.6,1.47,1.47,0,0,1-.23-.8,1.64,1.64,0,0,1,.28-.91,1.71,1.71,0,0,1,.81-.64,3.07,3.07,0,0,1,1.18-.22,3.22,3.22,0,0,1,1.26.23,1.82,1.82,0,0,1,.84.68,2,2,0,0,1,.32,1l-.82.06a1.32,1.32,0,0,0-.45-.92A1.74,1.74,0,0,0,67.83,35a1.8,1.8,0,0,0-1.13.28.85.85,0,0,0-.35.68.73.73,0,0,0,.25.57,3.38,3.38,0,0,0,1.29.46,8.55,8.55,0,0,1,1.43.41,2,2,0,0,1,.83.66,1.6,1.6,0,0,1,.27.92,1.75,1.75,0,0,1-.29,1,1.94,1.94,0,0,1-.85.71,3,3,0,0,1-1.24.25,3.7,3.7,0,0,1-1.47-.25,2.05,2.05,0,0,1-.93-.77A2.18,2.18,0,0,1,65.29,38.71Z" style="fill:#231f20"/><path d="M77.57,40.78l-1.71-6.44h.87l1,4.22q.16.66.27,1.32.25-1,.29-1.19l1.23-4.35h1l.92,3.26a17.28,17.28,0,0,1,.5,2.28q.12-.61.32-1.4l1-4.14h.86l-1.77,6.44h-.82L80.2,35.87q-.17-.62-.2-.76-.1.44-.19.76l-1.37,4.91Z" style="fill:#231f20"/><path d="M84.68,37.64a3.5,3.5,0,0,1,.86-2.51,2.93,2.93,0,0,1,2.22-.91,3.08,3.08,0,0,1,1.61.43,2.79,2.79,0,0,1,1.09,1.19,3.87,3.87,0,0,1,.38,1.73,3.8,3.8,0,0,1-.4,1.75,2.7,2.7,0,0,1-1.12,1.17,3.2,3.2,0,0,1-1.56.4,3,3,0,0,1-1.63-.44A2.83,2.83,0,0,1,85,39.25,3.64,3.64,0,0,1,84.68,37.64Zm.88,0a2.58,2.58,0,0,0,.63,1.83,2.18,2.18,0,0,0,3.16,0A2.74,2.74,0,0,0,90,37.56a3.3,3.3,0,0,0-.27-1.37,2,2,0,0,0-.78-.91A2.11,2.11,0,0,0,87.77,35a2.18,2.18,0,0,0-1.56.62A2.78,2.78,0,0,0,85.56,37.66Z" style="fill:#231f20"/><path d="M92,40.78V34.34h2.86a3.8,3.8,0,0,1,1.31.17,1.43,1.43,0,0,1,.72.61,1.83,1.83,0,0,1,.27,1,1.62,1.62,0,0,1-.44,1.16,2.25,2.25,0,0,1-1.37.6,2.21,2.21,0,0,1,.51.32,4.43,4.43,0,0,1,.71.86l1.12,1.75H96.56l-.85-1.34q-.37-.58-.62-.89a1.92,1.92,0,0,0-.43-.43,1.27,1.27,0,0,0-.39-.17,2.56,2.56,0,0,0-.47,0h-1v2.86Zm.85-3.6h1.83a2.75,2.75,0,0,0,.91-.12,1,1,0,0,0,.5-.39,1,1,0,0,0,.17-.58,1,1,0,0,0-.33-.75,1.55,1.55,0,0,0-1-.29h-2Z" style="fill:#231f20"/><path d="M98.4,40.78V34.34h.85v3.19l3.2-3.19h1.16l-2.7,2.61,2.82,3.83H102.6l-2.29-3.26-1.05,1v2.23Z" style="fill:#231f20"/><path d="M104.59,40.78V34.34h.85v6.44Z" style="fill:#231f20"/><path d="M106.93,40.78V34.34h.87l3.38,5.06V34.34H112v6.44h-.87l-3.38-5.06v5.06Z" style="fill:#231f20"/><path d="M116.46,38.25V37.5h2.73v2.39a4.82,4.82,0,0,1-1.3.75,3.86,3.86,0,0,1-1.37.25,3.65,3.65,0,0,1-1.72-.41,2.68,2.68,0,0,1-1.17-1.18,3.7,3.7,0,0,1-.4-1.72,4,4,0,0,1,.39-1.76,2.62,2.62,0,0,1,1.13-1.21,3.55,3.55,0,0,1,1.7-.4,3.38,3.38,0,0,1,1.26.23,2.1,2.1,0,0,1,.89.63,2.8,2.8,0,0,1,.49,1.05l-.77.21a2.38,2.38,0,0,0-.36-.77,1.48,1.48,0,0,0-.62-.45,2.26,2.26,0,0,0-.89-.17,2.6,2.6,0,0,0-1,.18,1.87,1.87,0,0,0-.69.47,2.22,2.22,0,0,0-.41.64,3.37,3.37,0,0,0-.25,1.3,3.15,3.15,0,0,0,.3,1.44,1.9,1.9,0,0,0,.86.86,2.67,2.67,0,0,0,1.2.28,2.86,2.86,0,0,0,1.08-.21,2.79,2.79,0,0,0,.8-.46v-1.2Z" style="fill:#231f20"/><path d="M125,37.64a3.5,3.5,0,0,1,.86-2.51,2.93,2.93,0,0,1,2.22-.91,3.08,3.08,0,0,1,1.61.43,2.79,2.79,0,0,1,1.09,1.19,3.87,3.87,0,0,1,.38,1.73,3.8,3.8,0,0,1-.4,1.75,2.7,2.7,0,0,1-1.12,1.17,3.2,3.2,0,0,1-1.56.4,3,3,0,0,1-1.63-.44,2.83,2.83,0,0,1-1.09-1.2A3.64,3.64,0,0,1,125,37.64Zm.88,0a2.58,2.58,0,0,0,.63,1.83,2.18,2.18,0,0,0,3.16,0,2.74,2.74,0,0,0,.62-1.92,3.31,3.31,0,0,0-.27-1.37,2,2,0,0,0-.78-.91,2.11,2.11,0,0,0-1.15-.32,2.18,2.18,0,0,0-1.56.62A2.78,2.78,0,0,0,125.93,37.66Z" style="fill:#231f20"/><path d="M132.3,40.78V34.34h.88l3.38,5.06V34.34h.82v6.44h-.87l-3.38-5.06v5.06Z" style="fill:#231f20"/><path d="M143.68,40.78V34.34h2.86a3.8,3.8,0,0,1,1.31.17,1.43,1.43,0,0,1,.72.61,1.83,1.83,0,0,1,.27,1,1.62,1.62,0,0,1-.44,1.16,2.25,2.25,0,0,1-1.37.6,2.21,2.21,0,0,1,.51.32,4.43,4.43,0,0,1,.71.86l1.12,1.75h-1.07l-.85-1.34q-.37-.58-.62-.89a2,2,0,0,0-.43-.43,1.27,1.27,0,0,0-.39-.17,2.56,2.56,0,0,0-.47,0h-1v2.86Zm.85-3.6h1.83a2.75,2.75,0,0,0,.91-.12,1,1,0,0,0,.5-.39,1,1,0,0,0,.17-.58,1,1,0,0,0-.33-.75,1.55,1.55,0,0,0-1-.29h-2Z" style="fill:#231f20"/><path d="M149.91,37.64a3.5,3.5,0,0,1,.86-2.51,2.93,2.93,0,0,1,2.22-.91,3.09,3.09,0,0,1,1.61.43,2.79,2.79,0,0,1,1.09,1.19,3.87,3.87,0,0,1,.38,1.73,3.8,3.8,0,0,1-.39,1.75,2.7,2.7,0,0,1-1.12,1.17,3.2,3.2,0,0,1-1.56.4,3,3,0,0,1-1.63-.44,2.83,2.83,0,0,1-1.08-1.2A3.64,3.64,0,0,1,149.91,37.64Zm.88,0a2.58,2.58,0,0,0,.63,1.83,2.18,2.18,0,0,0,3.16,0,2.74,2.74,0,0,0,.62-1.92,3.29,3.29,0,0,0-.27-1.37,2,2,0,0,0-.78-.91A2.11,2.11,0,0,0,153,35a2.18,2.18,0,0,0-1.56.62A2.78,2.78,0,0,0,150.79,37.66Z" style="fill:#231f20"/><path d="M156.91,37.64a3.5,3.5,0,0,1,.86-2.51,2.93,2.93,0,0,1,2.22-.91,3.09,3.09,0,0,1,1.61.43,2.79,2.79,0,0,1,1.09,1.19,3.87,3.87,0,0,1,.38,1.73,3.8,3.8,0,0,1-.39,1.75,2.7,2.7,0,0,1-1.12,1.17,3.2,3.2,0,0,1-1.56.4,3,3,0,0,1-1.63-.44,2.83,2.83,0,0,1-1.08-1.2A3.64,3.64,0,0,1,156.91,37.64Zm.88,0a2.58,2.58,0,0,0,.63,1.83,2.18,2.18,0,0,0,3.16,0,2.74,2.74,0,0,0,.62-1.92,3.29,3.29,0,0,0-.27-1.37,2,2,0,0,0-.78-.91A2.11,2.11,0,0,0,160,35a2.18,2.18,0,0,0-1.56.62A2.78,2.78,0,0,0,157.79,37.66Z" style="fill:#231f20"/><path d="M164.21,40.78V34.34h4.35v.76h-3.49v2h3v.76h-3v2.93Z" style="fill:#231f20"/><path d="M169.38,38.71l.8-.07a1.76,1.76,0,0,0,.27.79,1.45,1.45,0,0,0,.65.5,2.46,2.46,0,0,0,1,.19,2.37,2.37,0,0,0,.86-.15,1.19,1.19,0,0,0,.56-.4.92.92,0,0,0,.18-.55.84.84,0,0,0-.18-.53,1.3,1.3,0,0,0-.58-.38,11.42,11.42,0,0,0-1.15-.31,5.84,5.84,0,0,1-1.24-.4,1.74,1.74,0,0,1-.69-.6,1.47,1.47,0,0,1-.23-.8,1.63,1.63,0,0,1,.28-.91,1.71,1.71,0,0,1,.81-.64,3.06,3.06,0,0,1,1.18-.22,3.22,3.22,0,0,1,1.26.23,1.83,1.83,0,0,1,.84.68,2,2,0,0,1,.32,1l-.82.06a1.32,1.32,0,0,0-.45-.92,1.74,1.74,0,0,0-1.12-.31,1.8,1.8,0,0,0-1.13.28.85.85,0,0,0-.35.68.73.73,0,0,0,.25.57A3.39,3.39,0,0,0,172,37a8.52,8.52,0,0,1,1.43.41,2,2,0,0,1,.83.66,1.6,1.6,0,0,1,.27.92,1.75,1.75,0,0,1-.29,1,1.94,1.94,0,0,1-.85.71,3,3,0,0,1-1.24.25,3.7,3.7,0,0,1-1.46-.25,2.05,2.05,0,0,1-.93-.77A2.18,2.18,0,0,1,169.38,38.71Z" style="fill:#231f20"/><path d="M180.25,38.71l.8-.07a1.76,1.76,0,0,0,.27.79,1.45,1.45,0,0,0,.65.5,2.46,2.46,0,0,0,1,.19,2.37,2.37,0,0,0,.86-.15,1.19,1.19,0,0,0,.56-.4.92.92,0,0,0,.18-.55.84.84,0,0,0-.18-.53,1.3,1.3,0,0,0-.58-.38,11.42,11.42,0,0,0-1.15-.31,5.84,5.84,0,0,1-1.24-.4,1.74,1.74,0,0,1-.69-.6,1.47,1.47,0,0,1-.23-.8,1.63,1.63,0,0,1,.28-.91,1.71,1.71,0,0,1,.81-.64,3.06,3.06,0,0,1,1.18-.22,3.22,3.22,0,0,1,1.26.23,1.83,1.83,0,0,1,.84.68,2,2,0,0,1,.32,1l-.82.06a1.32,1.32,0,0,0-.45-.92A1.74,1.74,0,0,0,182.8,35a1.8,1.8,0,0,0-1.13.28.85.85,0,0,0-.35.68.73.73,0,0,0,.25.57,3.39,3.39,0,0,0,1.29.46,8.52,8.52,0,0,1,1.43.41,2,2,0,0,1,.83.66,1.6,1.6,0,0,1,.27.92,1.75,1.75,0,0,1-.29,1,1.94,1.94,0,0,1-.85.71,3,3,0,0,1-1.24.25,3.7,3.7,0,0,1-1.46-.25,2.05,2.05,0,0,1-.93-.77A2.18,2.18,0,0,1,180.25,38.71Z" style="fill:#231f20"/><path d="M186.57,40.78V34.34h.85V37h3.35V34.34h.85v6.44h-.85v-3h-3.35v3Z" style="fill:#231f20"/><path d="M192.78,37.64a3.5,3.5,0,0,1,.86-2.51,2.93,2.93,0,0,1,2.22-.91,3.09,3.09,0,0,1,1.61.43,2.79,2.79,0,0,1,1.09,1.19,3.87,3.87,0,0,1,.38,1.73,3.8,3.8,0,0,1-.39,1.75,2.7,2.7,0,0,1-1.12,1.17,3.2,3.2,0,0,1-1.56.4,3,3,0,0,1-1.63-.44,2.83,2.83,0,0,1-1.08-1.2A3.64,3.64,0,0,1,192.78,37.64Zm.88,0a2.58,2.58,0,0,0,.63,1.83,2.18,2.18,0,0,0,3.16,0,2.74,2.74,0,0,0,.62-1.92,3.29,3.29,0,0,0-.27-1.37,2,2,0,0,0-.78-.91,2.11,2.11,0,0,0-1.15-.32,2.18,2.18,0,0,0-1.56.62A2.78,2.78,0,0,0,193.66,37.66Z" style="fill:#231f20"/><path d="M204.27,34.34h.85v3.72a4.41,4.41,0,0,1-.22,1.54,1.88,1.88,0,0,1-.79.93,2.81,2.81,0,0,1-1.51.36,3.09,3.09,0,0,1-1.48-.31,1.78,1.78,0,0,1-.82-.9,4.3,4.3,0,0,1-.25-1.61V34.34h.85v3.72a3.64,3.64,0,0,0,.16,1.24,1.19,1.19,0,0,0,.54.61,1.86,1.86,0,0,0,.93.22,1.78,1.78,0,0,0,1.34-.43,2.46,2.46,0,0,0,.4-1.64Z" style="fill:#231f20"/><path d="M206.5,40.78V34.34h.85V40h3.17v.76Z" style="fill:#231f20"/><path d="M211.54,40.78V34.34h2.22a5.38,5.38,0,0,1,1.15.09,2.19,2.19,0,0,1,.95.46,2.63,2.63,0,0,1,.76,1.1,4.31,4.31,0,0,1,.25,1.53,4.53,4.53,0,0,1-.17,1.3,3.2,3.2,0,0,1-.44.94,2.35,2.35,0,0,1-.59.58,2.39,2.39,0,0,1-.77.32,4.39,4.39,0,0,1-1,.11Zm.85-.76h1.38a3.34,3.34,0,0,0,1-.12,1.43,1.43,0,0,0,.58-.33,2,2,0,0,0,.47-.82,4,4,0,0,0,.17-1.24,3,3,0,0,0-.33-1.55,1.67,1.67,0,0,0-.81-.73,3.34,3.34,0,0,0-1.1-.13H212.4Z" style="fill:#231f20"/><path d="M222.94,40.78V34.34h.85V37h3.35V34.34H228v6.44h-.85v-3h-3.35v3Z" style="fill:#231f20"/><path d="M228.7,40.78l2.47-6.44h.92l2.64,6.44h-1l-.75-2h-2.69l-.71,2Zm1.86-2.65h2.18l-.67-1.78q-.31-.81-.46-1.34a8.1,8.1,0,0,1-.35,1.23Z" style="fill:#231f20"/><path d="M236.58,40.78l-2.5-6.44H235L236.69,39q.2.56.34,1.05.15-.53.35-1.05l1.74-4.68H240l-2.52,6.44Z" style="fill:#231f20"/><path d="M240.76,40.78V34.34h4.66v.76h-3.81v2h3.56v.76h-3.56V40h4v.76Z" style="fill:#231f20"/><path d="M6.73,49.51l.8-.07a1.77,1.77,0,0,0,.27.79,1.45,1.45,0,0,0,.65.5,2.46,2.46,0,0,0,1,.19,2.37,2.37,0,0,0,.86-.15,1.19,1.19,0,0,0,.56-.4.92.92,0,0,0,.18-.55.84.84,0,0,0-.18-.53,1.31,1.31,0,0,0-.58-.38,11.45,11.45,0,0,0-1.15-.31,5.83,5.83,0,0,1-1.24-.4,1.74,1.74,0,0,1-.69-.6A1.46,1.46,0,0,1,7,46.8a1.64,1.64,0,0,1,.28-.91,1.72,1.72,0,0,1,.81-.64A3.07,3.07,0,0,1,9.25,45a3.22,3.22,0,0,1,1.26.23,1.82,1.82,0,0,1,.84.68,2,2,0,0,1,.32,1l-.82.06a1.32,1.32,0,0,0-.45-.92,1.74,1.74,0,0,0-1.12-.31,1.8,1.8,0,0,0-1.13.28.85.85,0,0,0-.35.68.73.73,0,0,0,.25.57,3.38,3.38,0,0,0,1.29.46,8.55,8.55,0,0,1,1.43.41,2,2,0,0,1,.83.66,1.6,1.6,0,0,1,.27.92,1.75,1.75,0,0,1-.29,1,1.94,1.94,0,0,1-.85.71,3,3,0,0,1-1.24.25A3.7,3.7,0,0,1,8,51.43a2.05,2.05,0,0,1-.93-.77A2.17,2.17,0,0,1,6.73,49.51Z" style="fill:#231f20"/><path d="M17.25,45.14h.85v3.72a4.4,4.4,0,0,1-.22,1.54,1.88,1.88,0,0,1-.79.93,2.81,2.81,0,0,1-1.51.36,3.09,3.09,0,0,1-1.48-.31,1.78,1.78,0,0,1-.82-.9A4.3,4.3,0,0,1,13,48.86V45.14h.85v3.72A3.63,3.63,0,0,0,14,50.09a1.18,1.18,0,0,0,.54.61,1.86,1.86,0,0,0,.93.21,1.78,1.78,0,0,0,1.34-.43,2.46,2.46,0,0,0,.4-1.64Z" style="fill:#231f20"/><path d="M24.12,49.32l.85.22a2.87,2.87,0,0,1-1,1.6,2.65,2.65,0,0,1-1.7.55,3.05,3.05,0,0,1-1.69-.42,2.64,2.64,0,0,1-1-1.23,4.38,4.38,0,0,1-.34-1.73,3.79,3.79,0,0,1,.38-1.76,2.63,2.63,0,0,1,1.09-1.14A3.19,3.19,0,0,1,22.32,45a2.64,2.64,0,0,1,1.63.49,2.55,2.55,0,0,1,.92,1.38l-.84.2a2,2,0,0,0-.65-1,1.73,1.73,0,0,0-1.07-.32,2.08,2.08,0,0,0-1.24.36,1.88,1.88,0,0,0-.7,1,3.85,3.85,0,0,0-.2,1.24,3.93,3.93,0,0,0,.24,1.43,1.79,1.79,0,0,0,.75.92,2.09,2.09,0,0,0,1.09.3,1.83,1.83,0,0,0,1.21-.41A2.12,2.12,0,0,0,24.12,49.32Z" style="fill:#231f20"/><path d="M30.62,49.32l.85.22a2.87,2.87,0,0,1-1,1.6,2.65,2.65,0,0,1-1.7.55,3.05,3.05,0,0,1-1.69-.42,2.64,2.64,0,0,1-1-1.23,4.38,4.38,0,0,1-.34-1.73,3.79,3.79,0,0,1,.38-1.76,2.63,2.63,0,0,1,1.09-1.14A3.19,3.19,0,0,1,28.82,45a2.64,2.64,0,0,1,1.63.49,2.55,2.55,0,0,1,.92,1.38l-.84.2a2,2,0,0,0-.65-1,1.73,1.73,0,0,0-1.07-.32,2.08,2.08,0,0,0-1.24.36,1.88,1.88,0,0,0-.7,1,3.85,3.85,0,0,0-.2,1.24,3.93,3.93,0,0,0,.24,1.43,1.79,1.79,0,0,0,.75.92,2.09,2.09,0,0,0,1.09.3,1.83,1.83,0,0,0,1.21-.41A2.12,2.12,0,0,0,30.62,49.32Z" style="fill:#231f20"/><path d="M32.54,51.58V45.14H37.2v.76H33.39v2H37v.76H33.39v2.19h4v.76Z" style="fill:#231f20"/><path d="M38.24,49.51l.8-.07a1.77,1.77,0,0,0,.27.79,1.45,1.45,0,0,0,.65.5,2.46,2.46,0,0,0,1,.19,2.37,2.37,0,0,0,.86-.15,1.19,1.19,0,0,0,.56-.4.92.92,0,0,0,.18-.55.84.84,0,0,0-.18-.53,1.31,1.31,0,0,0-.58-.38,11.45,11.45,0,0,0-1.15-.31,5.83,5.83,0,0,1-1.24-.4,1.74,1.74,0,0,1-.69-.6,1.46,1.46,0,0,1-.23-.8,1.64,1.64,0,0,1,.28-.91,1.72,1.72,0,0,1,.81-.64A3.07,3.07,0,0,1,40.75,45a3.22,3.22,0,0,1,1.26.23,1.82,1.82,0,0,1,.84.68,2,2,0,0,1,.32,1l-.82.06a1.32,1.32,0,0,0-.45-.92,1.74,1.74,0,0,0-1.12-.31,1.8,1.8,0,0,0-1.13.28.85.85,0,0,0-.35.68.73.73,0,0,0,.25.57,3.38,3.38,0,0,0,1.29.46,8.55,8.55,0,0,1,1.43.41,2,2,0,0,1,.83.66,1.6,1.6,0,0,1,.27.92,1.75,1.75,0,0,1-.29,1,1.94,1.94,0,0,1-.85.71,3,3,0,0,1-1.24.25,3.7,3.7,0,0,1-1.47-.25,2.05,2.05,0,0,1-.93-.77A2.17,2.17,0,0,1,38.24,49.51Z" style="fill:#231f20"/><path d="M44.24,49.51l.8-.07a1.77,1.77,0,0,0,.27.79,1.45,1.45,0,0,0,.65.5,2.46,2.46,0,0,0,1,.19,2.37,2.37,0,0,0,.86-.15,1.19,1.19,0,0,0,.56-.4.92.92,0,0,0,.18-.55.84.84,0,0,0-.18-.53,1.31,1.31,0,0,0-.58-.38,11.45,11.45,0,0,0-1.15-.31,5.83,5.83,0,0,1-1.24-.4,1.74,1.74,0,0,1-.69-.6,1.46,1.46,0,0,1-.23-.8,1.64,1.64,0,0,1,.28-.91,1.72,1.72,0,0,1,.81-.64A3.07,3.07,0,0,1,46.75,45a3.22,3.22,0,0,1,1.26.23,1.82,1.82,0,0,1,.84.68,2,2,0,0,1,.32,1l-.82.06a1.32,1.32,0,0,0-.45-.92,1.74,1.74,0,0,0-1.12-.31,1.8,1.8,0,0,0-1.13.28.85.85,0,0,0-.35.68.73.73,0,0,0,.25.57,3.38,3.38,0,0,0,1.29.46,8.55,8.55,0,0,1,1.43.41,2,2,0,0,1,.83.66,1.6,1.6,0,0,1,.27.92,1.75,1.75,0,0,1-.29,1,1.94,1.94,0,0,1-.85.71,3,3,0,0,1-1.24.25,3.7,3.7,0,0,1-1.47-.25,2.05,2.05,0,0,1-.93-.77A2.17,2.17,0,0,1,44.24,49.51Z" style="fill:#231f20"/><path d="M50.58,51.58V45.14h4.35v.76H51.43v2h3v.76h-3v2.93Z" style="fill:#231f20"/><path d="M60.26,45.14h.85v3.72a4.4,4.4,0,0,1-.22,1.54,1.88,1.88,0,0,1-.79.93,2.81,2.81,0,0,1-1.51.36,3.09,3.09,0,0,1-1.48-.31,1.78,1.78,0,0,1-.82-.9A4.3,4.3,0,0,1,56,48.86V45.14h.85v3.72a3.63,3.63,0,0,0,.16,1.24,1.18,1.18,0,0,0,.54.61,1.86,1.86,0,0,0,.93.21,1.78,1.78,0,0,0,1.34-.43,2.46,2.46,0,0,0,.4-1.64Z" style="fill:#231f20"/><path d="M62.49,51.58V45.14h.85v5.68h3.17v.76Z" style="fill:#231f20"/><path d="M67.5,51.58V45.14h.85v5.68h3.17v.76Z" style="fill:#231f20"/><path d="M73.69,51.58V48.85L71.2,45.14h1l1.27,1.94q.35.54.65,1.09.29-.51.7-1.14l1.25-1.89h1l-2.57,3.71v2.73Z" style="fill:#231f20"/><path d="M85.12,49.32l.85.22a2.87,2.87,0,0,1-1,1.6,2.65,2.65,0,0,1-1.7.55,3.05,3.05,0,0,1-1.69-.42,2.64,2.64,0,0,1-1-1.23,4.38,4.38,0,0,1-.34-1.73,3.79,3.79,0,0,1,.38-1.76,2.63,2.63,0,0,1,1.09-1.14A3.19,3.19,0,0,1,83.32,45a2.64,2.64,0,0,1,1.63.49,2.55,2.55,0,0,1,.92,1.38l-.84.2a2,2,0,0,0-.65-1,1.73,1.73,0,0,0-1.07-.32,2.08,2.08,0,0,0-1.24.36,1.88,1.88,0,0,0-.7,1,3.85,3.85,0,0,0-.2,1.24,3.93,3.93,0,0,0,.24,1.43,1.79,1.79,0,0,0,.75.92,2.09,2.09,0,0,0,1.09.3,1.83,1.83,0,0,0,1.21-.41A2.12,2.12,0,0,0,85.12,49.32Z" style="fill:#231f20"/><path d="M86.76,48.44a3.5,3.5,0,0,1,.86-2.51A2.93,2.93,0,0,1,89.85,45a3.09,3.09,0,0,1,1.61.43,2.79,2.79,0,0,1,1.09,1.19,3.87,3.87,0,0,1,.38,1.73,3.79,3.79,0,0,1-.4,1.75,2.7,2.7,0,0,1-1.12,1.17,3.2,3.2,0,0,1-1.56.4,3,3,0,0,1-1.63-.44A2.83,2.83,0,0,1,87.13,50,3.64,3.64,0,0,1,86.76,48.44Zm.88,0a2.58,2.58,0,0,0,.63,1.83,2.18,2.18,0,0,0,3.16,0A2.74,2.74,0,0,0,92,48.36,3.3,3.3,0,0,0,91.78,47a2,2,0,0,0-.78-.91,2.11,2.11,0,0,0-1.15-.32,2.18,2.18,0,0,0-1.56.62A2.78,2.78,0,0,0,87.64,48.45Z" style="fill:#231f20"/><path d="M94,51.58V45.14h1.28l1.52,4.56q.21.64.31,1,.11-.35.34-1L99,45.14h1.15v6.44h-.82V46.19l-1.87,5.39h-.77l-1.86-5.48v5.48Z" style="fill:#231f20"/><path d="M101.52,51.58V45.14H104a5.87,5.87,0,0,1,1,.06,2,2,0,0,1,.8.3,1.58,1.58,0,0,1,.52.62,2.1,2.1,0,0,1-.33,2.27A2.51,2.51,0,0,1,104,49h-1.65v2.62Zm.85-3.38H104a1.77,1.77,0,0,0,1.17-.31,1.1,1.1,0,0,0,.35-.87,1.16,1.16,0,0,0-.2-.69,1,1,0,0,0-.54-.38,3.65,3.65,0,0,0-.8-.06h-1.65Z" style="fill:#231f20"/><path d="M107.49,51.58V45.14h.85v5.68h3.17v.76Z" style="fill:#231f20"/><path d="M112.55,51.58V45.14h4.66v.76H113.4v2H117v.76H113.4v2.19h4v.76Z" style="fill:#231f20"/><path d="M120.17,51.58V45.9H118v-.76h5.11v.76H121v5.68Z" style="fill:#231f20"/><path d="M124,51.58V45.14h4.66v.76H124.9v2h3.56v.76H124.9v2.19h4v.76Z" style="fill:#231f20"/><path d="M130,51.58V45.14h2.22a5.38,5.38,0,0,1,1.15.09,2.18,2.18,0,0,1,.94.46,2.63,2.63,0,0,1,.76,1.1,4.32,4.32,0,0,1,.25,1.53,4.47,4.47,0,0,1-.17,1.3,3.1,3.1,0,0,1-.44.94,2.31,2.31,0,0,1-.59.58,2.39,2.39,0,0,1-.77.32,4.4,4.4,0,0,1-1,.11Zm.85-.76h1.38a3.34,3.34,0,0,0,1-.12,1.43,1.43,0,0,0,.58-.33,2,2,0,0,0,.47-.82,4,4,0,0,0,.17-1.24,3,3,0,0,0-.33-1.55,1.67,1.67,0,0,0-.81-.73,3.33,3.33,0,0,0-1.1-.13h-1.35Z" style="fill:#231f20"/><path d="M138.08,51.58l2.47-6.44h.92l2.64,6.44h-1l-.75-2h-2.69l-.71,2Zm1.86-2.65h2.18l-.67-1.78q-.31-.81-.46-1.34a8.1,8.1,0,0,1-.35,1.23Z" style="fill:#231f20"/><path d="M147.14,51.58V45.14h4.35v.76H148v2h3v.76h-3v2.93Z" style="fill:#231f20"/><path d="M151.39,51.58l2.47-6.44h.92l2.64,6.44h-1l-.75-2H153l-.71,2Zm1.86-2.65h2.18l-.67-1.78q-.31-.81-.46-1.34A8.1,8.1,0,0,1,154,47Z" style="fill:#231f20"/><path d="M158.07,51.58V45.14h.85v5.68h3.17v.76Z" style="fill:#231f20"/><path d="M163.07,51.58V45.14h.85v5.68h3.17v.76Z" style="fill:#231f20"/><path d="M170.3,49.51l.8-.07a1.76,1.76,0,0,0,.27.79,1.45,1.45,0,0,0,.65.5,2.46,2.46,0,0,0,1,.19,2.37,2.37,0,0,0,.86-.15,1.19,1.19,0,0,0,.56-.4.92.92,0,0,0,.18-.55.84.84,0,0,0-.18-.53,1.31,1.31,0,0,0-.58-.38,11.51,11.51,0,0,0-1.15-.31,5.82,5.82,0,0,1-1.24-.4,1.74,1.74,0,0,1-.69-.6,1.46,1.46,0,0,1-.23-.8,1.63,1.63,0,0,1,.28-.91,1.71,1.71,0,0,1,.81-.64,3.06,3.06,0,0,1,1.18-.22,3.22,3.22,0,0,1,1.26.23,1.83,1.83,0,0,1,.84.68,2,2,0,0,1,.32,1l-.82.06a1.32,1.32,0,0,0-.45-.92,1.74,1.74,0,0,0-1.12-.31,1.8,1.8,0,0,0-1.13.28.85.85,0,0,0-.35.68.73.73,0,0,0,.25.57,3.39,3.39,0,0,0,1.29.46,8.52,8.52,0,0,1,1.43.41,2,2,0,0,1,.83.66,1.6,1.6,0,0,1,.27.92,1.75,1.75,0,0,1-.29,1,1.94,1.94,0,0,1-.85.71,3,3,0,0,1-1.24.25,3.7,3.7,0,0,1-1.46-.25,2.05,2.05,0,0,1-.93-.77A2.17,2.17,0,0,1,170.3,49.51Z" style="fill:#231f20"/><path d="M175.89,51.58l2.47-6.44h.92l2.64,6.44h-1l-.75-2H177.5l-.71,2Zm1.86-2.65h2.18l-.67-1.78q-.31-.81-.46-1.34a8.1,8.1,0,0,1-.35,1.23Z" style="fill:#231f20"/><path d="M182.64,51.58V45.14H187v.76h-3.49v2h3v.76h-3v2.93Z" style="fill:#231f20"/><path d="M188.11,51.58V45.14h4.66v.76H189v2h3.56v.76H189v2.19h4v.76Z" style="fill:#231f20"/><path d="M195.74,51.58V45.9h-2.12v-.76h5.11v.76h-2.13v5.68Z" style="fill:#231f20"/><path d="M201.41,51.58V48.85l-2.48-3.71h1l1.27,1.94q.35.54.65,1.09.29-.51.7-1.14l1.25-1.89h1l-2.57,3.71v2.73Z" style="fill:#231f20"/><path d="M212.84,49.32l.85.22a2.87,2.87,0,0,1-1,1.6,2.65,2.65,0,0,1-1.7.55,3.05,3.05,0,0,1-1.69-.42,2.64,2.64,0,0,1-1-1.23,4.38,4.38,0,0,1-.34-1.73,3.79,3.79,0,0,1,.38-1.76,2.63,2.63,0,0,1,1.09-1.14A3.19,3.19,0,0,1,211,45a2.64,2.64,0,0,1,1.63.49,2.55,2.55,0,0,1,.92,1.38l-.84.2a2,2,0,0,0-.65-1,1.73,1.73,0,0,0-1.07-.32,2.08,2.08,0,0,0-1.24.36,1.88,1.88,0,0,0-.7,1,3.85,3.85,0,0,0-.2,1.24,3.94,3.94,0,0,0,.24,1.43,1.79,1.79,0,0,0,.75.92A2.09,2.09,0,0,0,211,51a1.84,1.84,0,0,0,1.21-.41A2.12,2.12,0,0,0,212.84,49.32Z" style="fill:#231f20"/><path d="M214.49,48.44a3.5,3.5,0,0,1,.86-2.51,2.93,2.93,0,0,1,2.22-.91,3.09,3.09,0,0,1,1.61.43,2.79,2.79,0,0,1,1.09,1.19,3.87,3.87,0,0,1,.38,1.73,3.79,3.79,0,0,1-.39,1.75,2.7,2.7,0,0,1-1.12,1.17,3.2,3.2,0,0,1-1.56.4,3,3,0,0,1-1.63-.44,2.83,2.83,0,0,1-1.08-1.2A3.64,3.64,0,0,1,214.49,48.44Zm.88,0a2.58,2.58,0,0,0,.63,1.83,2.18,2.18,0,0,0,3.16,0,2.74,2.74,0,0,0,.62-1.92A3.29,3.29,0,0,0,219.5,47a2,2,0,0,0-.78-.91,2.11,2.11,0,0,0-1.15-.32,2.18,2.18,0,0,0-1.56.62A2.78,2.78,0,0,0,215.37,48.45Z" style="fill:#231f20"/><path d="M226,45.14h.85v3.72a4.4,4.4,0,0,1-.22,1.54,1.88,1.88,0,0,1-.79.93,2.81,2.81,0,0,1-1.51.36,3.09,3.09,0,0,1-1.48-.31,1.78,1.78,0,0,1-.82-.9,4.3,4.3,0,0,1-.25-1.61V45.14h.85v3.72a3.64,3.64,0,0,0,.16,1.24,1.19,1.19,0,0,0,.54.61,1.86,1.86,0,0,0,.93.21,1.78,1.78,0,0,0,1.34-.43,2.46,2.46,0,0,0,.4-1.64Z" style="fill:#231f20"/><path d="M228.26,51.58V45.14h2.86a3.81,3.81,0,0,1,1.31.17,1.44,1.44,0,0,1,.72.61,1.83,1.83,0,0,1,.27,1,1.62,1.62,0,0,1-.44,1.16,2.25,2.25,0,0,1-1.37.6,2.21,2.21,0,0,1,.51.32,4.44,4.44,0,0,1,.71.86l1.12,1.75h-1.07L232,50.24q-.37-.58-.62-.89a2,2,0,0,0-.43-.43,1.27,1.27,0,0,0-.39-.17,2.57,2.57,0,0,0-.47,0h-1v2.86Zm.85-3.6h1.83a2.73,2.73,0,0,0,.91-.12,1,1,0,0,0,.5-.39,1,1,0,0,0,.17-.58,1,1,0,0,0-.33-.75,1.55,1.55,0,0,0-1-.29h-2Z" style="fill:#231f20"/><path d="M234.46,49.51l.8-.07a1.76,1.76,0,0,0,.27.79,1.45,1.45,0,0,0,.65.5,2.46,2.46,0,0,0,1,.19,2.37,2.37,0,0,0,.86-.15,1.19,1.19,0,0,0,.56-.4.92.92,0,0,0,.18-.55.84.84,0,0,0-.18-.53,1.31,1.31,0,0,0-.58-.38,11.51,11.51,0,0,0-1.15-.31,5.82,5.82,0,0,1-1.24-.4,1.74,1.74,0,0,1-.69-.6,1.46,1.46,0,0,1-.23-.8,1.63,1.63,0,0,1,.28-.91,1.71,1.71,0,0,1,.81-.64A3.06,3.06,0,0,1,237,45a3.22,3.22,0,0,1,1.26.23,1.83,1.83,0,0,1,.84.68,2,2,0,0,1,.32,1l-.82.06a1.32,1.32,0,0,0-.45-.92,1.74,1.74,0,0,0-1.12-.31,1.8,1.8,0,0,0-1.13.28.85.85,0,0,0-.35.68.73.73,0,0,0,.25.57,3.39,3.39,0,0,0,1.29.46,8.52,8.52,0,0,1,1.43.41,2,2,0,0,1,.83.66,1.6,1.6,0,0,1,.27.92,1.75,1.75,0,0,1-.29,1,1.94,1.94,0,0,1-.85.71,3,3,0,0,1-1.24.25,3.7,3.7,0,0,1-1.46-.25,2.05,2.05,0,0,1-.93-.77A2.17,2.17,0,0,1,234.46,49.51Z" style="fill:#231f20"/><path d="M240.77,51.58V45.14h4.66v.76h-3.81v2h3.56v.76h-3.56v2.19h4v.76Z" style="fill:#231f20"/><path d="M6.32,62.38l2.47-6.44h.92l2.64,6.44h-1l-.75-2H7.93l-.71,2Zm1.86-2.65h2.18L9.69,58q-.31-.81-.46-1.34a8.21,8.21,0,0,1-.35,1.23Z" style="fill:#231f20"/><path d="M13,62.38V55.94h.87L17.28,61V55.94h.82v6.44h-.87l-3.38-5.06v5.06Z" style="fill:#231f20"/><path d="M19.53,62.38V55.94h2.22a5.39,5.39,0,0,1,1.15.09,2.18,2.18,0,0,1,.94.46,2.62,2.62,0,0,1,.76,1.1,4.32,4.32,0,0,1,.25,1.53,4.5,4.5,0,0,1-.17,1.3,3.15,3.15,0,0,1-.44.94,2.34,2.34,0,0,1-.59.58,2.41,2.41,0,0,1-.77.32,4.39,4.39,0,0,1-1,.11Zm.85-.76h1.38a3.34,3.34,0,0,0,1-.12,1.43,1.43,0,0,0,.58-.33,2,2,0,0,0,.47-.82A4,4,0,0,0,24,59.11a3,3,0,0,0-.33-1.55,1.67,1.67,0,0,0-.81-.73,3.33,3.33,0,0,0-1.1-.13H20.38Z" style="fill:#231f20"/><path d="M31.72,60.31l.8-.07a1.78,1.78,0,0,0,.27.79,1.45,1.45,0,0,0,.65.5,2.46,2.46,0,0,0,1,.19,2.37,2.37,0,0,0,.86-.14,1.2,1.2,0,0,0,.56-.4.92.92,0,0,0,.18-.55.84.84,0,0,0-.18-.53,1.3,1.3,0,0,0-.58-.38,11.27,11.27,0,0,0-1.15-.31,5.89,5.89,0,0,1-1.24-.4,1.74,1.74,0,0,1-.69-.6,1.47,1.47,0,0,1-.23-.8,1.63,1.63,0,0,1,.28-.91,1.71,1.71,0,0,1,.81-.64,3.07,3.07,0,0,1,1.18-.22,3.22,3.22,0,0,1,1.26.23,1.82,1.82,0,0,1,.84.68,2,2,0,0,1,.32,1l-.82.06a1.32,1.32,0,0,0-.45-.92,1.74,1.74,0,0,0-1.12-.31,1.8,1.8,0,0,0-1.13.28.85.85,0,0,0-.35.68.73.73,0,0,0,.25.57,3.38,3.38,0,0,0,1.29.46,8.55,8.55,0,0,1,1.43.41,2,2,0,0,1,.83.66,1.6,1.6,0,0,1,.27.92,1.75,1.75,0,0,1-.29,1,1.94,1.94,0,0,1-.85.71,3,3,0,0,1-1.24.25A3.7,3.7,0,0,1,33,62.23a2.05,2.05,0,0,1-.93-.77A2.18,2.18,0,0,1,31.72,60.31Z" style="fill:#231f20"/><path d="M38,62.38V55.94h.85v2.65h3.35V55.94h.85v6.44h-.85v-3H38.89v3Z" style="fill:#231f20"/><path d="M44.25,59.24a3.5,3.5,0,0,1,.86-2.51,2.93,2.93,0,0,1,2.22-.91,3.08,3.08,0,0,1,1.61.43A2.79,2.79,0,0,1,50,57.44a3.86,3.86,0,0,1,.38,1.73,3.8,3.8,0,0,1-.4,1.75,2.7,2.7,0,0,1-1.12,1.17,3.2,3.2,0,0,1-1.56.4A3,3,0,0,1,45.71,62a2.83,2.83,0,0,1-1.09-1.2A3.64,3.64,0,0,1,44.25,59.24Zm.88,0a2.58,2.58,0,0,0,.63,1.83,2.18,2.18,0,0,0,3.16,0,2.74,2.74,0,0,0,.62-1.92,3.3,3.3,0,0,0-.27-1.37,2,2,0,0,0-.78-.91,2.12,2.12,0,0,0-1.15-.32,2.18,2.18,0,0,0-1.56.62A2.78,2.78,0,0,0,45.13,59.25Z" style="fill:#231f20"/><path d="M55.74,55.94h.85v3.72a4.41,4.41,0,0,1-.22,1.54,1.89,1.89,0,0,1-.79.93,2.82,2.82,0,0,1-1.51.36,3.09,3.09,0,0,1-1.48-.31,1.78,1.78,0,0,1-.82-.9,4.3,4.3,0,0,1-.25-1.62V55.94h.85v3.72a3.63,3.63,0,0,0,.16,1.24,1.18,1.18,0,0,0,.54.61,1.86,1.86,0,0,0,.93.22,1.78,1.78,0,0,0,1.34-.43,2.45,2.45,0,0,0,.4-1.64Z" style="fill:#231f20"/><path d="M58,62.38V55.94h.85v5.68H62v.76Z" style="fill:#231f20"/><path d="M63,62.38V55.94h2.22a5.39,5.39,0,0,1,1.15.09,2.18,2.18,0,0,1,.94.46,2.62,2.62,0,0,1,.76,1.1,4.32,4.32,0,0,1,.25,1.53,4.5,4.5,0,0,1-.17,1.3,3.15,3.15,0,0,1-.44.94,2.34,2.34,0,0,1-.59.58,2.41,2.41,0,0,1-.77.32,4.39,4.39,0,0,1-1,.11Zm.85-.76h1.38a3.34,3.34,0,0,0,1-.12,1.43,1.43,0,0,0,.58-.33,2,2,0,0,0,.47-.82,4,4,0,0,0,.17-1.24,3,3,0,0,0-.33-1.55,1.67,1.67,0,0,0-.81-.73,3.33,3.33,0,0,0-1.1-.13H63.87Z" style="fill:#231f20"/><path d="M75.47,62.38V55.94h2.42a3,3,0,0,1,1.18.2,1.53,1.53,0,0,1,.7.6,1.58,1.58,0,0,1,.25.85,1.46,1.46,0,0,1-.22.78,1.6,1.6,0,0,1-.68.59,1.68,1.68,0,0,1,.9.58,1.57,1.57,0,0,1,.31,1,1.89,1.89,0,0,1-.19.84,1.63,1.63,0,0,1-.47.6,2,2,0,0,1-.71.32,4.32,4.32,0,0,1-1,.11Zm.85-3.74h1.39a3.1,3.1,0,0,0,.81-.08.91.91,0,0,0,.49-.32.93.93,0,0,0,.16-.56,1,1,0,0,0-.15-.56.77.77,0,0,0-.44-.33,3.64,3.64,0,0,0-1-.09H76.32Zm0,3h1.6a3.71,3.71,0,0,0,.58,0,1.39,1.39,0,0,0,.49-.18.93.93,0,0,0,.33-.36,1.12,1.12,0,0,0,.13-.54,1.07,1.07,0,0,0-.18-.63,1,1,0,0,0-.51-.37,3.16,3.16,0,0,0-.94-.11H76.32Z" style="fill:#231f20"/><path d="M81.52,62.38V55.94h4.66v.76H82.38v2h3.56v.76H82.38v2.19h4v.76Z" style="fill:#231f20"/><path d="M93.49,62.38V55.94h2.43a5.87,5.87,0,0,1,1,.06,2,2,0,0,1,.8.3,1.58,1.58,0,0,1,.52.62,2.1,2.1,0,0,1-.33,2.27,2.51,2.51,0,0,1-1.89.57H94.35v2.62ZM94.35,59H96a1.77,1.77,0,0,0,1.17-.31,1.1,1.1,0,0,0,.35-.87,1.16,1.16,0,0,0-.2-.69,1,1,0,0,0-.54-.38,3.63,3.63,0,0,0-.8-.06H94.35Z" style="fill:#231f20"/><path d="M99.51,62.38V55.94h2.86a3.79,3.79,0,0,1,1.31.17,1.43,1.43,0,0,1,.72.61,1.83,1.83,0,0,1,.27,1,1.62,1.62,0,0,1-.44,1.16,2.25,2.25,0,0,1-1.37.6,2.21,2.21,0,0,1,.51.32,4.43,4.43,0,0,1,.71.86l1.12,1.75h-1.07L103.26,61q-.37-.58-.62-.89a1.92,1.92,0,0,0-.43-.43,1.27,1.27,0,0,0-.39-.17,2.55,2.55,0,0,0-.47,0h-1v2.86Zm.85-3.6h1.83a2.76,2.76,0,0,0,.91-.12,1,1,0,0,0,.5-.39,1,1,0,0,0,.17-.58,1,1,0,0,0-.33-.75,1.55,1.55,0,0,0-1-.29h-2Z" style="fill:#231f20"/><path d="M105.74,59.24a3.5,3.5,0,0,1,.86-2.51,2.93,2.93,0,0,1,2.22-.91,3.08,3.08,0,0,1,1.61.43,2.79,2.79,0,0,1,1.09,1.19,3.86,3.86,0,0,1,.38,1.73,3.8,3.8,0,0,1-.4,1.75,2.7,2.7,0,0,1-1.12,1.17,3.2,3.2,0,0,1-1.56.4,3,3,0,0,1-1.63-.44,2.83,2.83,0,0,1-1.09-1.2A3.64,3.64,0,0,1,105.74,59.24Zm.88,0a2.58,2.58,0,0,0,.63,1.83,2.18,2.18,0,0,0,3.16,0,2.74,2.74,0,0,0,.62-1.92,3.3,3.3,0,0,0-.27-1.37,2,2,0,0,0-.78-.91,2.12,2.12,0,0,0-1.15-.32,2.18,2.18,0,0,0-1.56.62A2.78,2.78,0,0,0,106.62,59.25Z" style="fill:#231f20"/><path d="M113,62.38V55.94h2.43a5.87,5.87,0,0,1,1,.06,2,2,0,0,1,.8.3,1.58,1.58,0,0,1,.52.62,2.1,2.1,0,0,1-.33,2.27,2.51,2.51,0,0,1-1.89.57h-1.65v2.62Zm.85-3.38h1.67a1.77,1.77,0,0,0,1.17-.31,1.1,1.1,0,0,0,.35-.87,1.16,1.16,0,0,0-.2-.69,1,1,0,0,0-.54-.38,3.63,3.63,0,0,0-.8-.06h-1.65Z" style="fill:#231f20"/><path d="M119,62.38V55.94h4.66v.76h-3.81v2h3.56v.76h-3.56v2.19h4v.76Z" style="fill:#231f20"/><path d="M125,62.38V55.94h2.86a3.79,3.79,0,0,1,1.31.17,1.43,1.43,0,0,1,.72.61,1.83,1.83,0,0,1,.27,1,1.62,1.62,0,0,1-.44,1.16,2.25,2.25,0,0,1-1.37.6,2.21,2.21,0,0,1,.51.32,4.42,4.42,0,0,1,.71.86l1.12,1.75h-1.07L128.77,61q-.37-.58-.62-.89a1.92,1.92,0,0,0-.43-.43,1.27,1.27,0,0,0-.39-.17,2.55,2.55,0,0,0-.47,0h-1v2.86Zm.85-3.6h1.83a2.76,2.76,0,0,0,.91-.12,1,1,0,0,0,.5-.39,1,1,0,0,0,.17-.58,1,1,0,0,0-.33-.75,1.55,1.55,0,0,0-1-.29h-2Z" style="fill:#231f20"/><path d="M131.47,62.38V55.94h.85v5.68h3.17v.76Z" style="fill:#231f20"/><path d="M137.66,62.38V59.65l-2.48-3.71h1l1.27,1.94q.35.54.65,1.09.29-.51.7-1.14l1.25-1.89h1l-2.57,3.71v2.73Z" style="fill:#231f20"/><path d="M147.68,62.38V55.94h4.66v.76h-3.81v2h3.56v.76h-3.56v2.19h4v.76Z" style="fill:#231f20"/><path d="M158.55,61.69a5.25,5.25,0,0,0,1.09.6l-.25.59a5,5,0,0,1-1.38-.79,3.19,3.19,0,0,1-1.58.4,3.05,3.05,0,0,1-1.59-.42,2.81,2.81,0,0,1-1.1-1.19,3.77,3.77,0,0,1-.38-1.72,3.86,3.86,0,0,1,.39-1.74,2.73,2.73,0,0,1,1.1-1.19,3.16,3.16,0,0,1,1.6-.41,3.1,3.1,0,0,1,1.61.42,2.77,2.77,0,0,1,1.09,1.19,3.84,3.84,0,0,1,.38,1.72,4,4,0,0,1-.24,1.43A3,3,0,0,1,158.55,61.69Zm-1.88-1.09a3.17,3.17,0,0,1,1.22.62,2.66,2.66,0,0,0,.75-2.06,3.28,3.28,0,0,0-.27-1.37,2,2,0,0,0-.78-.91,2.23,2.23,0,0,0-2.73.33,2.7,2.7,0,0,0-.63,1.95,2.74,2.74,0,0,0,.62,1.93,2.07,2.07,0,0,0,1.59.67,2.19,2.19,0,0,0,.86-.17,2.78,2.78,0,0,0-.84-.37Z" style="fill:#231f20"/><path d="M164.9,55.94h.85v3.72a4.41,4.41,0,0,1-.22,1.54,1.89,1.89,0,0,1-.79.93,2.82,2.82,0,0,1-1.51.36,3.09,3.09,0,0,1-1.48-.31,1.78,1.78,0,0,1-.82-.9,4.3,4.3,0,0,1-.25-1.62V55.94h.85v3.72a3.64,3.64,0,0,0,.16,1.24,1.19,1.19,0,0,0,.54.61,1.86,1.86,0,0,0,.93.22,1.78,1.78,0,0,0,1.34-.43,2.45,2.45,0,0,0,.4-1.64Z" style="fill:#231f20"/><path d="M167.31,62.38V55.94h.85v6.44Z" style="fill:#231f20"/><path d="M169.67,62.38V55.94h2.43a5.87,5.87,0,0,1,1,.06,2,2,0,0,1,.8.3,1.59,1.59,0,0,1,.52.62,2.1,2.1,0,0,1-.33,2.27,2.51,2.51,0,0,1-1.89.57h-1.65v2.62Zm.85-3.38h1.67a1.77,1.77,0,0,0,1.17-.31,1.09,1.09,0,0,0,.35-.87,1.16,1.16,0,0,0-.2-.69,1,1,0,0,0-.54-.38,3.63,3.63,0,0,0-.79-.06h-1.65Z" style="fill:#231f20"/><path d="M175.67,62.38V55.94h2.43a5.87,5.87,0,0,1,1,.06,2,2,0,0,1,.8.3,1.59,1.59,0,0,1,.52.62,2.1,2.1,0,0,1-.33,2.27,2.51,2.51,0,0,1-1.89.57h-1.65v2.62Zm.85-3.38h1.67a1.77,1.77,0,0,0,1.17-.31,1.09,1.09,0,0,0,.35-.87,1.16,1.16,0,0,0-.2-.69,1,1,0,0,0-.54-.38,3.63,3.63,0,0,0-.79-.06h-1.65Z" style="fill:#231f20"/><path d="M181.69,62.38V55.94h4.66v.76h-3.81v2h3.56v.76h-3.56v2.19h4v.76Z" style="fill:#231f20"/><path d="M187.68,62.38V55.94h2.22A5.39,5.39,0,0,1,191,56a2.19,2.19,0,0,1,.95.46,2.63,2.63,0,0,1,.76,1.1,4.31,4.31,0,0,1,.25,1.53,4.53,4.53,0,0,1-.17,1.3,3.2,3.2,0,0,1-.44.94,2.36,2.36,0,0,1-.59.58,2.4,2.4,0,0,1-.77.32,4.38,4.38,0,0,1-1,.11Zm.85-.76h1.38a3.34,3.34,0,0,0,1-.12,1.43,1.43,0,0,0,.58-.33,2,2,0,0,0,.47-.82,4,4,0,0,0,.17-1.24,3,3,0,0,0-.33-1.55,1.67,1.67,0,0,0-.81-.73,3.34,3.34,0,0,0-1.1-.13h-1.35Z" style="fill:#231f20"/><path d="M201.29,62.38l-1.71-6.44h.88l1,4.22q.16.66.27,1.32.25-1,.29-1.19l1.23-4.35h1l.92,3.26a17.27,17.27,0,0,1,.5,2.28q.12-.61.32-1.4l1-4.14h.86l-1.77,6.44h-.82l-1.36-4.91q-.17-.62-.2-.76c-.07.3-.13.55-.19.76l-1.37,4.91Z" style="fill:#231f20"/><path d="M208.8,62.38V55.94h.85v6.44Z" style="fill:#231f20"/><path d="M212.79,62.38V56.7h-2.12v-.76h5.11v.76h-2.13v5.68Z" style="fill:#231f20"/><path d="M216.68,62.38V55.94h.85v2.65h3.35V55.94h.85v6.44h-.85v-3h-3.35v3Z" style="fill:#231f20"/><path d="M230.39,62.38V56.7h-2.12v-.76h5.11v.76h-2.13v5.68Z" style="fill:#231f20"/><path d="M234.27,62.38V55.94h.85v2.65h3.35V55.94h.85v6.44h-.85v-3h-3.35v3Z" style="fill:#231f20"/><path d="M240.76,62.38V55.94h4.66v.76h-3.81v2h3.56v.76h-3.56v2.19h4v.76Z" style="fill:#231f20"/><path d="M6.32,73.18l2.47-6.44h.92l2.64,6.44h-1l-.75-2H7.93l-.71,2Zm1.86-2.65h2.18l-.67-1.78q-.31-.81-.46-1.34a8.21,8.21,0,0,1-.35,1.23Z" style="fill:#231f20"/><path d="M13,73.18V66.74h2.43a5.87,5.87,0,0,1,1,.06,2,2,0,0,1,.8.3,1.58,1.58,0,0,1,.52.62A2.1,2.1,0,0,1,17.42,70a2.51,2.51,0,0,1-1.89.57H13.88v2.62Zm.85-3.38h1.67a1.76,1.76,0,0,0,1.17-.31,1.09,1.09,0,0,0,.35-.87,1.16,1.16,0,0,0-.2-.69,1,1,0,0,0-.54-.38,3.63,3.63,0,0,0-.8-.06H13.88Z" style="fill:#231f20"/><path d="M19,73.18V66.74h2.43a5.87,5.87,0,0,1,1,.06,2,2,0,0,1,.8.3,1.58,1.58,0,0,1,.52.62A2.1,2.1,0,0,1,23.42,70a2.51,2.51,0,0,1-1.89.57H19.88v2.62Zm.85-3.38h1.67a1.76,1.76,0,0,0,1.17-.31,1.09,1.09,0,0,0,.35-.87,1.16,1.16,0,0,0-.2-.69,1,1,0,0,0-.54-.38,3.63,3.63,0,0,0-.8-.06H19.88Z" style="fill:#231f20"/><path d="M25,73.18V66.74H27.9a3.79,3.79,0,0,1,1.31.17,1.43,1.43,0,0,1,.72.61,1.83,1.83,0,0,1,.27,1,1.62,1.62,0,0,1-.44,1.16,2.24,2.24,0,0,1-1.37.6,2.24,2.24,0,0,1,.51.32,4.46,4.46,0,0,1,.71.86l1.12,1.75H29.65l-.85-1.34q-.37-.58-.62-.89a1.94,1.94,0,0,0-.43-.43,1.27,1.27,0,0,0-.39-.17,2.55,2.55,0,0,0-.47,0h-1v2.86Zm.85-3.6h1.83a2.76,2.76,0,0,0,.91-.12,1,1,0,0,0,.5-.39,1,1,0,0,0,.17-.58,1,1,0,0,0-.33-.75,1.55,1.55,0,0,0-1-.29h-2Z" style="fill:#231f20"/><path d="M31.27,70a3.5,3.5,0,0,1,.86-2.51,2.93,2.93,0,0,1,2.22-.91A3.08,3.08,0,0,1,36,67a2.79,2.79,0,0,1,1.09,1.19A3.87,3.87,0,0,1,37.43,70a3.8,3.8,0,0,1-.4,1.75,2.7,2.7,0,0,1-1.12,1.17,3.2,3.2,0,0,1-1.56.4,3,3,0,0,1-1.63-.44,2.82,2.82,0,0,1-1.09-1.2A3.64,3.64,0,0,1,31.27,70Zm.88,0a2.58,2.58,0,0,0,.63,1.83,2.18,2.18,0,0,0,3.16,0A2.74,2.74,0,0,0,36.55,70a3.3,3.3,0,0,0-.27-1.37,2,2,0,0,0-.78-.91,2.12,2.12,0,0,0-1.15-.32A2.18,2.18,0,0,0,32.8,68,2.78,2.78,0,0,0,32.15,70.05Z" style="fill:#231f20"/><path d="M38.53,73.18V66.74H41a5.87,5.87,0,0,1,1,.06,2,2,0,0,1,.8.3,1.58,1.58,0,0,1,.52.62A2.1,2.1,0,0,1,42.93,70a2.51,2.51,0,0,1-1.89.57H39.38v2.62Zm.85-3.38H41a1.76,1.76,0,0,0,1.17-.31,1.09,1.09,0,0,0,.35-.87,1.16,1.16,0,0,0-.2-.69,1,1,0,0,0-.54-.38,3.63,3.63,0,0,0-.8-.06H39.38Z" style="fill:#231f20"/><path d="M44.55,73.18V66.74H47.4a3.79,3.79,0,0,1,1.31.17,1.43,1.43,0,0,1,.72.61,1.83,1.83,0,0,1,.27,1,1.62,1.62,0,0,1-.44,1.16,2.24,2.24,0,0,1-1.37.6,2.24,2.24,0,0,1,.51.32,4.46,4.46,0,0,1,.71.86l1.12,1.75H49.15l-.85-1.34q-.37-.58-.62-.89a1.94,1.94,0,0,0-.43-.43,1.27,1.27,0,0,0-.39-.17,2.55,2.55,0,0,0-.47,0h-1v2.86Zm.85-3.6h1.83a2.76,2.76,0,0,0,.91-.12,1,1,0,0,0,.5-.39,1,1,0,0,0,.17-.58,1,1,0,0,0-.33-.75,1.55,1.55,0,0,0-1-.29h-2Z" style="fill:#231f20"/><path d="M51.18,73.18V66.74H52v6.44Z" style="fill:#231f20"/><path d="M52.83,73.18l2.47-6.44h.92l2.64,6.44h-1l-.75-2H54.44l-.71,2Zm1.86-2.65h2.18l-.67-1.78q-.31-.81-.46-1.34a8.21,8.21,0,0,1-.35,1.23Z" style="fill:#231f20"/><path d="M60.51,73.18V67.5H58.39v-.76h5.11v.76H61.36v5.68Z" style="fill:#231f20"/><path d="M64.38,73.18V66.74H69v.76H65.24v2H68.8v.76H65.24v2.19h4v.76Z" style="fill:#231f20"/><path d="M72.58,71.11l.8-.07a1.77,1.77,0,0,0,.27.79,1.45,1.45,0,0,0,.65.5,2.46,2.46,0,0,0,1,.19,2.37,2.37,0,0,0,.86-.15,1.2,1.2,0,0,0,.56-.4.92.92,0,0,0,.18-.55.84.84,0,0,0-.18-.53,1.3,1.3,0,0,0-.58-.38A11.18,11.18,0,0,0,75,70.21a5.89,5.89,0,0,1-1.24-.4,1.74,1.74,0,0,1-.69-.6,1.47,1.47,0,0,1-.23-.8,1.63,1.63,0,0,1,.28-.91,1.71,1.71,0,0,1,.81-.64,3.07,3.07,0,0,1,1.18-.22,3.22,3.22,0,0,1,1.26.23,1.82,1.82,0,0,1,.84.68,2,2,0,0,1,.32,1l-.82.06a1.32,1.32,0,0,0-.45-.92,1.74,1.74,0,0,0-1.12-.31,1.8,1.8,0,0,0-1.13.28.85.85,0,0,0-.35.68.73.73,0,0,0,.25.57,3.38,3.38,0,0,0,1.29.46,8.55,8.55,0,0,1,1.43.41,2,2,0,0,1,.83.66,1.6,1.6,0,0,1,.27.92,1.75,1.75,0,0,1-.29,1,1.94,1.94,0,0,1-.85.71,3,3,0,0,1-1.24.25A3.72,3.72,0,0,1,73.86,73a2.05,2.05,0,0,1-.93-.77A2.18,2.18,0,0,1,72.58,71.11Z" style="fill:#231f20"/><path d="M78.17,73.18l2.47-6.44h.92l2.64,6.44h-1l-.75-2H79.78l-.71,2ZM80,70.53h2.18l-.67-1.78q-.31-.81-.46-1.34a8.21,8.21,0,0,1-.35,1.23Z" style="fill:#231f20"/><path d="M84.92,73.18V66.74h4.35v.76H85.77v2h3v.76h-3v2.93Z" style="fill:#231f20"/><path d="M90.39,73.18V66.74H95v.76H91.24v2h3.56v.76H91.24v2.19h4v.76Z" style="fill:#231f20"/><path d="M98,73.18V67.5H95.89v-.76H101v.76H98.87v5.68Z" style="fill:#231f20"/><path d="M103.69,73.18V70.45l-2.48-3.71h1l1.27,1.94q.35.54.65,1.09.29-.51.7-1.14l1.25-1.89h1l-2.57,3.71v2.73Z" style="fill:#231f20"/><path d="M110.23,73.18V66.74h4.66v.76h-3.81v2h3.56v.76h-3.56v2.19h4v.76Z" style="fill:#231f20"/><path d="M121.1,72.49a5.27,5.27,0,0,0,1.09.6l-.25.59a5,5,0,0,1-1.38-.79,3.19,3.19,0,0,1-1.58.4,3.05,3.05,0,0,1-1.59-.42,2.81,2.81,0,0,1-1.1-1.19,3.77,3.77,0,0,1-.38-1.72,3.86,3.86,0,0,1,.39-1.74A2.72,2.72,0,0,1,117.4,67a3.16,3.16,0,0,1,1.6-.41,3.1,3.1,0,0,1,1.61.42,2.77,2.77,0,0,1,1.09,1.19,3.84,3.84,0,0,1,.38,1.72,4,4,0,0,1-.24,1.43A3,3,0,0,1,121.1,72.49Zm-1.88-1.09a3.14,3.14,0,0,1,1.22.62,2.65,2.65,0,0,0,.75-2.06,3.28,3.28,0,0,0-.27-1.37,2.05,2.05,0,0,0-.78-.91,2.23,2.23,0,0,0-2.73.33,2.71,2.71,0,0,0-.63,1.95,2.74,2.74,0,0,0,.62,1.93,2.07,2.07,0,0,0,1.59.67,2.18,2.18,0,0,0,.86-.17A2.76,2.76,0,0,0,119,72Z" style="fill:#231f20"/><path d="M127.45,66.74h.85v3.72a4.4,4.4,0,0,1-.22,1.54,1.89,1.89,0,0,1-.79.93,2.82,2.82,0,0,1-1.51.36A3.09,3.09,0,0,1,124.3,73a1.78,1.78,0,0,1-.82-.9,4.3,4.3,0,0,1-.25-1.62V66.74h.85v3.72a3.63,3.63,0,0,0,.16,1.24,1.18,1.18,0,0,0,.54.61,1.85,1.85,0,0,0,.93.22,1.77,1.77,0,0,0,1.34-.43,2.45,2.45,0,0,0,.4-1.64Z" style="fill:#231f20"/><path d="M129.86,73.18V66.74h.85v6.44Z" style="fill:#231f20"/><path d="M132.22,73.18V66.74h2.43a5.87,5.87,0,0,1,1,.06,2,2,0,0,1,.8.3,1.59,1.59,0,0,1,.52.62,2.1,2.1,0,0,1-.33,2.27,2.51,2.51,0,0,1-1.89.57h-1.65v2.62Zm.85-3.38h1.67a1.76,1.76,0,0,0,1.17-.31,1.09,1.09,0,0,0,.35-.87,1.16,1.16,0,0,0-.2-.69,1,1,0,0,0-.54-.38,3.63,3.63,0,0,0-.79-.06h-1.65Z" style="fill:#231f20"/><path d="M138.2,73.18V66.74h1.28L141,71.3q.21.64.31,1,.11-.35.34-1l1.54-4.48h1.15v6.44h-.82V67.79l-1.87,5.39h-.77L139,67.7v5.48Z" style="fill:#231f20"/><path d="M145.74,73.18V66.74h4.66v.76h-3.81v2h3.56v.76h-3.56v2.19h4v.76Z" style="fill:#231f20"/><path d="M151.71,73.18V66.74h.88L156,71.79V66.74h.82v6.44h-.87l-3.38-5.06v5.06Z" style="fill:#231f20"/><path d="M159.86,73.18V67.5h-2.12v-.76h5.11v.76h-2.13v5.68Z" style="fill:#231f20"/><path d="M162.85,73.18v-.9h.9v.9Z" style="fill:#231f20"/></svg>