<svg id="Layer_2" data-name="Layer 2" xmlns="http://www.w3.org/2000/svg" xmlns:xlink="http://www.w3.org/1999/xlink" viewBox="0 0 254.97 78.43"><defs><clipPath id="clip-path" transform="translate(0 0)"><polygon points="0.49 77.94 254.48 77.94 254.97 0 0 0 0.49 77.94" style="fill:none"/></clipPath></defs><title>caution-wght_of_solex_pmp</title><g style="clip-path:url(#clip-path)"><path d="M248.62,70.94H6.82V6h241.8Zm5.85,7H.49V.49h254Z" transform="translate(0 0)" style="fill:none;stroke:#231f20;stroke-width:0.977px"/></g><rect x="6.6" y="6.14" width="241.97" height="31.6" style="fill:#231f20"/><g style="clip-path:url(#clip-path)"><path d="M93.15,24l2.8.89a6.29,6.29,0,0,1-2.14,3.48,6.74,6.74,0,0,1-8.49-.81,7.45,7.45,0,0,1-1.84-5.33,7.83,7.83,0,0,1,1.85-5.55,6.33,6.33,0,0,1,4.85-2,6,6,0,0,1,4.27,1.55,5.65,5.65,0,0,1,1.46,2.64L93,19.61a3,3,0,0,0-3-2.4,3.26,3.26,0,0,0-2.58,1.14,5.6,5.6,0,0,0-1,3.7,6,6,0,0,0,1,3.87A3.17,3.17,0,0,0,90,27.07a2.9,2.9,0,0,0,2-.73A4.26,4.26,0,0,0,93.15,24Z" transform="translate(0 0)" style="fill:#fff"/><path d="M111.34,29.3H108.2L106.95,26h-5.72L100,29.3H97L102.55,15h3.06ZM106,23.63l-2-5.31-1.93,5.31Z" transform="translate(0 0)" style="fill:#fff"/><path d="M112.85,15h2.89v7.75a16.06,16.06,0,0,0,.11,2.39,2.32,2.32,0,0,0,.88,1.41,3.08,3.08,0,0,0,1.91.53,2.91,2.91,0,0,0,1.86-.5,2,2,0,0,0,.75-1.24,16.13,16.13,0,0,0,.13-2.43V15h2.89V22.5a19.32,19.32,0,0,1-.23,3.64,4,4,0,0,1-.86,1.8,4.37,4.37,0,0,1-1.68,1.17,7.32,7.32,0,0,1-2.75.43,7.94,7.94,0,0,1-3.11-.47,4.44,4.44,0,0,1-1.67-1.23,4,4,0,0,1-.81-1.59,17.38,17.38,0,0,1-.28-3.63Z" transform="translate(0 0)" style="fill:#fff"/><path d="M130.54,29.3V17.4h-4.25V15h11.38V17.4h-4.24V29.3Z" transform="translate(0 0)" style="fill:#fff"/><path d="M139.45,29.3V15h2.89V29.3Z" transform="translate(0 0)" style="fill:#fff"/><path d="M144.5,22.23a9.1,9.1,0,0,1,.65-3.67,6.74,6.74,0,0,1,1.33-2,5.57,5.57,0,0,1,1.85-1.29,7.85,7.85,0,0,1,3.09-.57,6.72,6.72,0,0,1,5.06,2,7.53,7.53,0,0,1,1.9,5.46,7.5,7.5,0,0,1-1.88,5.42,6.67,6.67,0,0,1-5,2,6.74,6.74,0,0,1-5.08-1.95A7.39,7.39,0,0,1,144.5,22.23Zm3-.1a5.36,5.36,0,0,0,1.12,3.69,3.86,3.86,0,0,0,5.69,0,5.47,5.47,0,0,0,1.11-3.74,5.39,5.39,0,0,0-1.08-3.67,4,4,0,0,0-5.75,0A5.41,5.41,0,0,0,147.48,22.13Z" transform="translate(0 0)" style="fill:#fff"/><path d="M160.68,29.3V15h2.81l5.86,9.56V15H172V29.3h-2.9L163.36,20V29.3Z" transform="translate(0 0)" style="fill:#fff"/></g><path d="M9.18,41.88h2.11a4.13,4.13,0,0,1,1.09.11,1.92,1.92,0,0,1,.86.53,2.51,2.51,0,0,1,.55.93A4.22,4.22,0,0,1,14,44.8,3.76,3.76,0,0,1,13.8,46a2.53,2.53,0,0,1-.61,1,2,2,0,0,1-.81.46,3.5,3.5,0,0,1-1,.12H9.18Zm1.16,1v3.79h.86a3.14,3.14,0,0,0,.7-.05,1.07,1.07,0,0,0,.47-.24,1.21,1.21,0,0,0,.3-.55,3.73,3.73,0,0,0,.12-1,3.42,3.42,0,0,0-.12-1,1.31,1.31,0,0,0-.33-.55,1.1,1.1,0,0,0-.54-.27,5.22,5.22,0,0,0-.95-.05Z" transform="translate(0 0)" style="fill:#231f20"/><path d="M14.95,41.88h1.16V45a6.48,6.48,0,0,0,0,1,.93.93,0,0,0,.35.56,1.23,1.23,0,0,0,.76.21,1.16,1.16,0,0,0,.74-.2.8.8,0,0,0,.3-.49,6.4,6.4,0,0,0,.05-1V41.88h1.16v3a7.73,7.73,0,0,1-.09,1.46,1.61,1.61,0,0,1-.35.72,1.74,1.74,0,0,1-.67.47,2.93,2.93,0,0,1-1.1.17,3.17,3.17,0,0,1-1.24-.19,1.79,1.79,0,0,1-.67-.49,1.57,1.57,0,0,1-.32-.63,7,7,0,0,1-.11-1.45Z" transform="translate(0 0)" style="fill:#231f20"/><path d="M20.73,47.61V41.88H25v1H21.89v1.27h2.88v1H21.89v1.56h3.2v1Z" transform="translate(0 0)" style="fill:#231f20"/><path d="M29.58,47.61V42.85h-1.7v-1h4.55v1h-1.7v4.76Z" transform="translate(0 0)" style="fill:#231f20"/><path d="M32.8,44.78a3.64,3.64,0,0,1,.26-1.47,2.69,2.69,0,0,1,.53-.79,2.22,2.22,0,0,1,.74-.52,3.15,3.15,0,0,1,1.23-.23,2.69,2.69,0,0,1,2,.79,3.51,3.51,0,0,1,0,4.35,3,3,0,0,1-4,0A3,3,0,0,1,32.8,44.78Zm1.19,0a2.14,2.14,0,0,0,.45,1.47,1.54,1.54,0,0,0,2.28,0,2.19,2.19,0,0,0,.44-1.49,2.15,2.15,0,0,0-.43-1.47,1.6,1.6,0,0,0-2.3,0A2.16,2.16,0,0,0,34,44.74Z" transform="translate(0 0)" style="fill:#231f20"/><path d="M42.77,47.61V42.85h-1.7v-1h4.55v1h-1.7v4.76Z" transform="translate(0 0)" style="fill:#231f20"/><path d="M46.37,47.61V41.88h1.16v2.25h2.27V41.88h1.16v5.73H49.79V45.1H47.53v2.5Z" transform="translate(0 0)" style="fill:#231f20"/><path d="M52.14,47.61V41.88h4.25v1H53.3v1.27h2.88v1H53.3v1.56h3.2v1Z" transform="translate(0 0)" style="fill:#231f20"/><path d="M60.52,47.61l-1.37-5.73h1.18l.86,3.93,1-3.93h1.38l1,4,.88-4h1.16l-1.39,5.73H64l-1.14-4.28-1.14,4.28Z" transform="translate(0 0)" style="fill:#231f20"/><path d="M67.25,47.61V41.88H71.5v1H68.41v1.27h2.88v1H68.41v1.56h3.2v1Z" transform="translate(0 0)" style="fill:#231f20"/><path d="M72.55,47.61V41.88h1.16v5.73Z" transform="translate(0 0)" style="fill:#231f20"/><path d="M77.48,45.5v-1H80v2.28a3.13,3.13,0,0,1-1.05.62,3.83,3.83,0,0,1-1.4.27A3.13,3.13,0,0,1,76,47.33a2.4,2.4,0,0,1-1-1.08,3.49,3.49,0,0,1-.34-1.53A3.3,3.3,0,0,1,75,43.13a2.53,2.53,0,0,1,1.1-1.07,3,3,0,0,1,1.37-.29,2.73,2.73,0,0,1,1.67.45,2,2,0,0,1,.77,1.24l-1.15.21a1.21,1.21,0,0,0-.46-.67,1.38,1.38,0,0,0-.83-.24,1.57,1.57,0,0,0-1.21.48,2,2,0,0,0-.45,1.43,2.24,2.24,0,0,0,.45,1.53,1.51,1.51,0,0,0,1.19.51,2,2,0,0,0,.73-.14,2.52,2.52,0,0,0,.63-.35V45.5Z" transform="translate(0 0)" style="fill:#231f20"/><path d="M81,47.61V41.88H82.2v2.25h2.27V41.88h1.16v5.73H84.46V45.1H82.2v2.5Z" transform="translate(0 0)" style="fill:#231f20"/><path d="M88.1,47.61V42.85H86.4v-1H91v1h-1.7v4.76Z" transform="translate(0 0)" style="fill:#231f20"/><path d="M93.69,44.78a3.64,3.64,0,0,1,.26-1.47,2.69,2.69,0,0,1,.53-.79,2.22,2.22,0,0,1,.74-.52,3.15,3.15,0,0,1,1.23-.23,2.69,2.69,0,0,1,2,.79,3.51,3.51,0,0,1,0,4.35,3,3,0,0,1-4,0A3,3,0,0,1,93.69,44.78Zm1.19,0a2.14,2.14,0,0,0,.45,1.47,1.54,1.54,0,0,0,2.28,0A2.19,2.19,0,0,0,98,44.72a2.15,2.15,0,0,0-.43-1.47,1.6,1.6,0,0,0-2.3,0A2.16,2.16,0,0,0,94.88,44.74Z" transform="translate(0 0)" style="fill:#231f20"/><path d="M100.15,47.61V41.88h3.93v1h-2.77V44.2h2.39v1h-2.39v2.43Z" transform="translate(0 0)" style="fill:#231f20"/><path d="M108.54,47.61V42.85h-1.7v-1h4.55v1h-1.7v4.76Z" transform="translate(0 0)" style="fill:#231f20"/><path d="M112.14,47.61V41.88h1.16v2.25h2.27V41.88h1.16v5.73h-1.16V45.1H113.3v2.5Z" transform="translate(0 0)" style="fill:#231f20"/><path d="M117.92,47.61V41.88h4.25v1h-3.09v1.27h2.88v1h-2.87v1.56h3.2v1Z" transform="translate(0 0)" style="fill:#231f20"/><path d="M125.18,45.74l1.13-.11a1.37,1.37,0,0,0,.41.83,1.25,1.25,0,0,0,.84.27,1.28,1.28,0,0,0,.84-.24.7.7,0,0,0,.28-.55.52.52,0,0,0-.12-.35.94.94,0,0,0-.42-.25q-.2-.07-.93-.25a3.14,3.14,0,0,1-1.3-.57,1.5,1.5,0,0,1-.28-2,1.55,1.55,0,0,1,.71-.58,2.87,2.87,0,0,1,1.13-.2,2.42,2.42,0,0,1,1.62.47,1.67,1.67,0,0,1,.57,1.26l-1.16.05a1,1,0,0,0-.32-.63,1.16,1.16,0,0,0-.73-.19,1.32,1.32,0,0,0-.79.21.42.42,0,0,0-.18.36.44.44,0,0,0,.17.35,3,3,0,0,0,1.06.38,5.6,5.6,0,0,1,1.25.41,1.61,1.61,0,0,1,.63.58,1.7,1.7,0,0,1,.23.91,1.68,1.68,0,0,1-.27.92,1.63,1.63,0,0,1-.77.64,3.24,3.24,0,0,1-1.25.21,2.48,2.48,0,0,1-1.67-.5A2.18,2.18,0,0,1,125.18,45.74Z" transform="translate(0 0)" style="fill:#231f20"/><path d="M130.58,44.78a3.65,3.65,0,0,1,.26-1.47,2.73,2.73,0,0,1,.53-.79,2.24,2.24,0,0,1,.74-.52,3.15,3.15,0,0,1,1.23-.23,2.69,2.69,0,0,1,2,.79,3.51,3.51,0,0,1,0,4.35,2.67,2.67,0,0,1-2,.78,2.7,2.7,0,0,1-2-.78A3,3,0,0,1,130.58,44.78Zm1.19,0a2.15,2.15,0,0,0,.45,1.47,1.47,1.47,0,0,0,1.14.5,1.45,1.45,0,0,0,1.13-.5,2.18,2.18,0,0,0,.44-1.49,2.15,2.15,0,0,0-.43-1.47,1.6,1.6,0,0,0-2.3,0A2.17,2.17,0,0,0,131.77,44.74Z" transform="translate(0 0)" style="fill:#231f20"/><path d="M137.07,47.61V41.93h1.16v4.71h2.88v1Z" transform="translate(0 0)" style="fill:#231f20"/><path d="M141.92,47.61V41.88h4.25v1h-3.09v1.27H146v1h-2.87v1.56h3.2v1Z" transform="translate(0 0)" style="fill:#231f20"/><path d="M146.68,47.61l2-3-1.77-2.74h1.35l1.15,1.84,1.13-1.84h1.34L150,44.66l2,2.95h-1.39l-1.27-2-1.27,2Z" transform="translate(0 0)" style="fill:#231f20"/><path d="M154.82,47.61V41.88h1.86A6.74,6.74,0,0,1,158,42a1.5,1.5,0,0,1,.82.56,1.77,1.77,0,0,1,.33,1.12,1.85,1.85,0,0,1-.19.89,1.56,1.56,0,0,1-.49.56,1.67,1.67,0,0,1-.6.27,6.6,6.6,0,0,1-1.2.08H156v2.16ZM156,42.85v1.63h.63a3,3,0,0,0,.91-.09.75.75,0,0,0,.36-.28.76.76,0,0,0,.13-.45.74.74,0,0,0-.18-.52.8.8,0,0,0-.46-.25,5.56,5.56,0,0,0-.83,0Z" transform="translate(0 0)" style="fill:#231f20"/><path d="M160.14,41.88h1.16V45a6.63,6.63,0,0,0,0,1,.94.94,0,0,0,.35.56,1.23,1.23,0,0,0,.76.21,1.16,1.16,0,0,0,.74-.2.79.79,0,0,0,.3-.49,6.27,6.27,0,0,0,.05-1V41.88h1.16v3a7.73,7.73,0,0,1-.09,1.46,1.61,1.61,0,0,1-.35.72,1.74,1.74,0,0,1-.67.47,2.93,2.93,0,0,1-1.1.17,3.17,3.17,0,0,1-1.24-.19,1.79,1.79,0,0,1-.67-.49,1.59,1.59,0,0,1-.32-.63,7,7,0,0,1-.11-1.45Z" transform="translate(0 0)" style="fill:#231f20"/><path d="M165.91,47.61V41.88h1.73l1,3.91,1-3.91h1.73v5.73h-1.07V43.1l-1.14,4.51h-1.11L167,43.1v4.51Z" transform="translate(0 0)" style="fill:#231f20"/><path d="M172.59,47.61V41.88h1.86a6.74,6.74,0,0,1,1.38.09,1.5,1.5,0,0,1,.82.56,1.77,1.77,0,0,1,.33,1.12,1.85,1.85,0,0,1-.19.89,1.56,1.56,0,0,1-.49.56,1.67,1.67,0,0,1-.6.27,6.6,6.6,0,0,1-1.2.08h-.75v2.16Zm1.16-4.76v1.63h.63a3,3,0,0,0,.91-.09.75.75,0,0,0,.36-.28.76.76,0,0,0,.13-.45.74.74,0,0,0-.18-.52.8.8,0,0,0-.46-.25,5.56,5.56,0,0,0-.83,0Z" transform="translate(0 0)" style="fill:#231f20"/><path d="M179.71,45.74l1.13-.11a1.38,1.38,0,0,0,.41.83,1.25,1.25,0,0,0,.84.27,1.28,1.28,0,0,0,.84-.24.7.7,0,0,0,.28-.55.52.52,0,0,0-.12-.35.94.94,0,0,0-.42-.25q-.2-.07-.93-.25a3.14,3.14,0,0,1-1.3-.57,1.5,1.5,0,0,1-.28-2,1.56,1.56,0,0,1,.71-.58,2.87,2.87,0,0,1,1.13-.2,2.42,2.42,0,0,1,1.62.47,1.67,1.67,0,0,1,.57,1.26l-1.16.05a1,1,0,0,0-.32-.63,1.16,1.16,0,0,0-.73-.19,1.32,1.32,0,0,0-.79.21.42.42,0,0,0-.18.36.44.44,0,0,0,.17.35,3,3,0,0,0,1.06.38,5.6,5.6,0,0,1,1.25.41,1.61,1.61,0,0,1,.63.58,1.7,1.7,0,0,1,.23.91,1.68,1.68,0,0,1-.27.92,1.63,1.63,0,0,1-.77.64,3.24,3.24,0,0,1-1.25.21,2.49,2.49,0,0,1-1.67-.5A2.19,2.19,0,0,1,179.71,45.74Z" transform="translate(0 0)" style="fill:#231f20"/><path d="M186.63,47.61V42.85h-1.7v-1h4.55v1h-1.7v4.76Z" transform="translate(0 0)" style="fill:#231f20"/><path d="M194.8,47.61h-1.26l-.5-1.3h-2.29l-.47,1.3h-1.23l2.23-5.73h1.22Zm-2.13-2.27-.79-2.12-.77,2.13Z" transform="translate(0 0)" style="fill:#231f20"/><path d="M196.11,47.61V42.85h-1.7v-1H199v1h-1.7v4.76Z" transform="translate(0 0)" style="fill:#231f20"/><path d="M199.67,47.61V41.88h1.16v5.73Z" transform="translate(0 0)" style="fill:#231f20"/><path d="M201.69,44.78a3.65,3.65,0,0,1,.26-1.47,2.73,2.73,0,0,1,.53-.79,2.24,2.24,0,0,1,.74-.52,3.15,3.15,0,0,1,1.23-.23,2.69,2.69,0,0,1,2,.79,3.51,3.51,0,0,1,0,4.35,2.67,2.67,0,0,1-2,.78,2.7,2.7,0,0,1-2-.78A3,3,0,0,1,201.69,44.78Zm1.19,0a2.15,2.15,0,0,0,.45,1.47,1.47,1.47,0,0,0,1.14.5,1.45,1.45,0,0,0,1.13-.5,2.18,2.18,0,0,0,.44-1.49,2.15,2.15,0,0,0-.43-1.47,1.6,1.6,0,0,0-2.3,0A2.17,2.17,0,0,0,202.89,44.74Z" transform="translate(0 0)" style="fill:#231f20"/><path d="M208.16,47.61V41.88h1.13l2.34,3.82V41.88h1.07v5.73h-1.16l-2.31-3.73v3.73Z" transform="translate(0 0)" style="fill:#231f20"/><path d="M217.44,47.61V42.85h-1.7v-1h4.55v1h-1.7v4.76Z" transform="translate(0 0)" style="fill:#231f20"/><path d="M221,47.61V41.88h1.16v2.25h2.27V41.88h1.16v5.73h-1.16V45.1H222.2v2.5Z" transform="translate(0 0)" style="fill:#231f20"/><path d="M226.82,47.61V41.88h4.25v1H228v1.27h2.88v1H228v1.56h3.2v1Z" transform="translate(0 0)" style="fill:#231f20"/><path d="M9.18,57.21V51.48h1.16v2.25h2.27V51.48h1.16v5.73H12.61V54.7H10.34v2.5Z" transform="translate(0 0)" style="fill:#231f20"/><path d="M20.12,57.21H18.86l-.5-1.3H16.07l-.47,1.3H14.38l2.23-5.73h1.22ZM18,54.94l-.79-2.12-.77,2.12Z" transform="translate(0 0)" style="fill:#231f20"/><path d="M20.75,57.21V51.48h1.13l2.34,3.82V51.48h1.07v5.73H24.13l-2.31-3.73v3.73Z" transform="translate(0 0)" style="fill:#231f20"/><path d="M29.18,55.1v-1h2.49v2.28a3.12,3.12,0,0,1-1.05.62,3.82,3.82,0,0,1-1.4.27,3.13,3.13,0,0,1-1.57-.38,2.39,2.39,0,0,1-1-1.08,3.49,3.49,0,0,1-.34-1.53,3.3,3.3,0,0,1,.38-1.59,2.53,2.53,0,0,1,1.1-1.07,3,3,0,0,1,1.37-.29,2.73,2.73,0,0,1,1.67.45,2,2,0,0,1,.77,1.24l-1.15.21a1.21,1.21,0,0,0-.46-.67,1.38,1.38,0,0,0-.83-.24,1.57,1.57,0,0,0-1.21.48,2,2,0,0,0-.45,1.43A2.24,2.24,0,0,0,28,55.81a1.51,1.51,0,0,0,1.19.51,2,2,0,0,0,.73-.14,2.49,2.49,0,0,0,.63-.35V55.1Z" transform="translate(0 0)" style="fill:#231f20"/><path d="M37.9,57.21H36.64l-.5-1.3H33.85l-.47,1.3H32.15l2.23-5.73h1.22Zm-2.13-2.27L35,52.82l-.77,2.12Z" transform="translate(0 0)" style="fill:#231f20"/><path d="M38.52,57.21V51.48h2.43a4.16,4.16,0,0,1,1.33.15,1.32,1.32,0,0,1,.67.55,1.65,1.65,0,0,1,.25.9,1.53,1.53,0,0,1-.38,1.06,1.81,1.81,0,0,1-1.13.53,2.74,2.74,0,0,1,.62.48,6.55,6.55,0,0,1,.66.93l.7,1.12H42.28L41.45,56a8.12,8.12,0,0,0-.61-.84.9.9,0,0,0-.35-.24,1.9,1.9,0,0,0-.58-.06h-.23v2.39Zm1.16-3.3h.86a4.42,4.42,0,0,0,1-.07.62.62,0,0,0,.32-.24.74.74,0,0,0,.12-.43.69.69,0,0,0-.15-.47.71.71,0,0,0-.44-.22q-.14,0-.84,0h-.9Z" transform="translate(0 0)" style="fill:#231f20"/><path d="M51.38,57.21H50.12l-.5-1.3H47.33l-.47,1.3H45.63l2.23-5.73h1.22Zm-2.13-2.27-.79-2.12-.77,2.12Z" transform="translate(0 0)" style="fill:#231f20"/><path d="M52,57.21V51.48h1.13l2.34,3.82V51.48h1.07v5.73H55.39l-2.31-3.73v3.73Z" transform="translate(0 0)" style="fill:#231f20"/><path d="M61.43,55.1l1.12.36a2.51,2.51,0,0,1-.86,1.39,2.7,2.7,0,0,1-3.4-.32,3,3,0,0,1-.73-2.13,3.13,3.13,0,0,1,.74-2.22,2.53,2.53,0,0,1,1.94-.79A2.38,2.38,0,0,1,62,52a2.25,2.25,0,0,1,.59,1.05l-1.14.27a1.18,1.18,0,0,0-1.21-1,1.3,1.3,0,0,0-1,.46,2.24,2.24,0,0,0-.4,1.48,2.4,2.4,0,0,0,.39,1.55,1.27,1.27,0,0,0,1,.46A1.16,1.16,0,0,0,61,56,1.7,1.7,0,0,0,61.43,55.1Z" transform="translate(0 0)" style="fill:#231f20"/><path d="M63.55,57.21V51.48h1.16v2.25H67V51.48h1.16v5.73H67V54.7H64.71v2.5Z" transform="translate(0 0)" style="fill:#231f20"/><path d="M69.09,54.38a3.64,3.64,0,0,1,.26-1.47,2.69,2.69,0,0,1,.53-.79,2.22,2.22,0,0,1,.74-.52,3.15,3.15,0,0,1,1.23-.23,2.69,2.69,0,0,1,2,.79,3.51,3.51,0,0,1,0,4.35,2.67,2.67,0,0,1-2,.78,2.7,2.7,0,0,1-2-.78A3,3,0,0,1,69.09,54.38Zm1.19,0a2.14,2.14,0,0,0,.45,1.47,1.54,1.54,0,0,0,2.28,0,2.19,2.19,0,0,0,.44-1.49A2.15,2.15,0,0,0,73,52.86a1.6,1.6,0,0,0-2.3,0A2.16,2.16,0,0,0,70.28,54.34Z" transform="translate(0 0)" style="fill:#231f20"/><path d="M75.55,57.21V51.48H78a4.16,4.16,0,0,1,1.33.15,1.32,1.32,0,0,1,.67.55,1.65,1.65,0,0,1,.25.9,1.53,1.53,0,0,1-.38,1.06,1.81,1.81,0,0,1-1.13.53,2.74,2.74,0,0,1,.62.48,6.55,6.55,0,0,1,.66.93l.7,1.12H79.32L78.48,56a8.12,8.12,0,0,0-.61-.84.9.9,0,0,0-.35-.24,1.9,1.9,0,0,0-.58-.06h-.23v2.39Zm1.16-3.3h.86a4.42,4.42,0,0,0,1-.07.62.62,0,0,0,.32-.24.74.74,0,0,0,.12-.43.69.69,0,0,0-.15-.47.71.71,0,0,0-.44-.22q-.14,0-.84,0h-.9Z" transform="translate(0 0)" style="fill:#231f20"/><path d="M81,55.34l1.13-.11a1.37,1.37,0,0,0,.41.83,1.24,1.24,0,0,0,.84.27,1.28,1.28,0,0,0,.84-.24.7.7,0,0,0,.28-.55.53.53,0,0,0-.12-.35,1,1,0,0,0-.42-.25q-.2-.07-.93-.25a3.13,3.13,0,0,1-1.3-.57,1.5,1.5,0,0,1-.28-2,1.55,1.55,0,0,1,.71-.58,2.87,2.87,0,0,1,1.13-.2,2.42,2.42,0,0,1,1.62.47,1.67,1.67,0,0,1,.57,1.26l-1.16.05a1,1,0,0,0-.32-.63,1.17,1.17,0,0,0-.73-.19,1.32,1.32,0,0,0-.79.21.42.42,0,0,0-.18.36.44.44,0,0,0,.17.35,3,3,0,0,0,1.06.38,5.62,5.62,0,0,1,1.25.41,1.61,1.61,0,0,1,.63.58,1.7,1.7,0,0,1,.23.91,1.68,1.68,0,0,1-.27.92,1.63,1.63,0,0,1-.77.64,3.24,3.24,0,0,1-1.25.21,2.48,2.48,0,0,1-1.67-.5A2.18,2.18,0,0,1,81,55.34Z" transform="translate(0 0)" style="fill:#231f20"/><path d="M88.87,57.21V51.48H90.6l1,3.91,1-3.91H94.4v5.73H93.32V52.7l-1.14,4.51H91.07L89.94,52.7v4.51Z" transform="translate(0 0)" style="fill:#231f20"/><path d="M95.54,51.48H96.7v3.1a6.48,6.48,0,0,0,0,1,.93.93,0,0,0,.35.56,1.23,1.23,0,0,0,.76.21,1.16,1.16,0,0,0,.74-.2.79.79,0,0,0,.3-.49,6.4,6.4,0,0,0,.05-1V51.48h1.16v3a7.72,7.72,0,0,1-.09,1.46,1.61,1.61,0,0,1-.35.72,1.74,1.74,0,0,1-.67.47,2.92,2.92,0,0,1-1.1.17,3.16,3.16,0,0,1-1.24-.19,1.77,1.77,0,0,1-.67-.49,1.57,1.57,0,0,1-.32-.63,7,7,0,0,1-.11-1.45Z" transform="translate(0 0)" style="fill:#231f20"/><path d="M101,55.34l1.13-.11a1.37,1.37,0,0,0,.41.83,1.24,1.24,0,0,0,.84.27,1.28,1.28,0,0,0,.84-.24.7.7,0,0,0,.28-.55.53.53,0,0,0-.12-.35,1,1,0,0,0-.42-.25q-.2-.07-.93-.25a3.13,3.13,0,0,1-1.3-.57,1.5,1.5,0,0,1-.28-2,1.55,1.55,0,0,1,.71-.58,2.87,2.87,0,0,1,1.13-.2,2.42,2.42,0,0,1,1.62.47,1.67,1.67,0,0,1,.57,1.26l-1.16.05a1,1,0,0,0-.32-.63,1.17,1.17,0,0,0-.73-.19,1.32,1.32,0,0,0-.79.21.42.42,0,0,0-.18.36.44.44,0,0,0,.17.35,3,3,0,0,0,1.06.38,5.62,5.62,0,0,1,1.25.41,1.61,1.61,0,0,1,.63.58,1.7,1.7,0,0,1,.23.91,1.68,1.68,0,0,1-.27.92,1.63,1.63,0,0,1-.77.64,3.24,3.24,0,0,1-1.25.21,2.48,2.48,0,0,1-1.67-.5A2.18,2.18,0,0,1,101,55.34Z" transform="translate(0 0)" style="fill:#231f20"/><path d="M107.95,57.21V52.45h-1.7v-1h4.55v1h-1.7v4.76Z" transform="translate(0 0)" style="fill:#231f20"/><path d="M113.77,51.48h2.29a6.63,6.63,0,0,1,1,.06,1.49,1.49,0,0,1,.6.24,1.47,1.47,0,0,1,.44.48,1.3,1.3,0,0,1,.18.67,1.36,1.36,0,0,1-.8,1.24,1.51,1.51,0,0,1,.8.52,1.38,1.38,0,0,1,.28.86,1.7,1.7,0,0,1-.18.76,1.52,1.52,0,0,1-.5.59,1.63,1.63,0,0,1-.78.27q-.29,0-1.39,0h-1.95Zm1.16,1v1.32h.76c.45,0,.73,0,.84,0a.76.76,0,0,0,.47-.21.6.6,0,0,0,.17-.45.63.63,0,0,0-.15-.43.66.66,0,0,0-.44-.2c-.11,0-.44,0-1,0Zm0,2.28v1.53H116a5.23,5.23,0,0,0,.79,0,.72.72,0,0,0,.42-.23.7.7,0,0,0,.16-.49.75.75,0,0,0-.12-.44.71.71,0,0,0-.36-.26,3.92,3.92,0,0,0-1-.08Z" transform="translate(0 0)" style="fill:#231f20"/><path d="M119.55,57.21V51.48h4.25v1H120.7v1.27h2.88v1H120.7v1.56h3.2v1Z" transform="translate(0 0)" style="fill:#231f20"/><path d="M132,57.21h-1.26l-.5-1.3h-2.29l-.47,1.3h-1.23l2.23-5.73h1.22Zm-2.13-2.27-.79-2.12-.77,2.12Z" transform="translate(0 0)" style="fill:#231f20"/><path d="M133.28,57.21V52.45h-1.7v-1h4.55v1h-1.7v4.76Z" transform="translate(0 0)" style="fill:#231f20"/><path d="M138.17,57.21V52.45h-1.7v-1H141v1h-1.7v4.76Z" transform="translate(0 0)" style="fill:#231f20"/><path d="M146.34,57.21h-1.26l-.5-1.3h-2.29l-.47,1.3h-1.23l2.23-5.73H144Zm-2.13-2.27-.79-2.12-.77,2.12Z" transform="translate(0 0)" style="fill:#231f20"/><path d="M150.61,55.1l1.12.36a2.51,2.51,0,0,1-.86,1.39,2.44,2.44,0,0,1-1.52.46,2.47,2.47,0,0,1-1.87-.78,3,3,0,0,1-.73-2.13,3.13,3.13,0,0,1,.74-2.22,2.53,2.53,0,0,1,1.94-.79,2.38,2.38,0,0,1,1.71.62,2.24,2.24,0,0,1,.59,1.05l-1.14.27a1.18,1.18,0,0,0-1.21-1,1.31,1.31,0,0,0-1,.46,2.24,2.24,0,0,0-.4,1.48,2.4,2.4,0,0,0,.39,1.55,1.27,1.27,0,0,0,1,.46,1.15,1.15,0,0,0,.79-.29A1.69,1.69,0,0,0,150.61,55.1Z" transform="translate(0 0)" style="fill:#231f20"/><path d="M152.73,57.21V51.48h1.16v2.25h2.27V51.48h1.16v5.73h-1.16V54.7h-2.27v2.5Z" transform="translate(0 0)" style="fill:#231f20"/><path d="M158.5,57.21V51.48h4.25v1h-3.09v1.27h2.88v1h-2.87v1.56h3.2v1Z" transform="translate(0 0)" style="fill:#231f20"/><path d="M163.84,51.48h2.11a4.13,4.13,0,0,1,1.09.11,1.91,1.91,0,0,1,.86.53,2.49,2.49,0,0,1,.55.93,4.23,4.23,0,0,1,.19,1.35,3.76,3.76,0,0,1-.18,1.22,2.52,2.52,0,0,1-.61,1,2,2,0,0,1-.81.46,3.48,3.48,0,0,1-1,.12h-2.18Zm1.16,1v3.79h.86a3.1,3.1,0,0,0,.7-.05,1.06,1.06,0,0,0,.47-.24,1.2,1.2,0,0,0,.3-.55,3.73,3.73,0,0,0,.12-1,3.42,3.42,0,0,0-.12-1,1.31,1.31,0,0,0-.33-.55,1.1,1.1,0,0,0-.54-.27,5.21,5.21,0,0,0-.95-.05Z" transform="translate(0 0)" style="fill:#231f20"/><path d="M173.13,57.21V52.45h-1.7v-1H176v1h-1.7v4.76Z" transform="translate(0 0)" style="fill:#231f20"/><path d="M176.35,54.38a3.65,3.65,0,0,1,.26-1.47,2.73,2.73,0,0,1,.53-.79,2.24,2.24,0,0,1,.74-.52,3.15,3.15,0,0,1,1.23-.23,2.69,2.69,0,0,1,2,.79,3.51,3.51,0,0,1,0,4.35,2.66,2.66,0,0,1-2,.78,2.7,2.7,0,0,1-2-.78A3,3,0,0,1,176.35,54.38Zm1.19,0a2.15,2.15,0,0,0,.45,1.47,1.54,1.54,0,0,0,2.28,0,2.18,2.18,0,0,0,.44-1.49,2.14,2.14,0,0,0-.43-1.47,1.6,1.6,0,0,0-2.3,0A2.17,2.17,0,0,0,177.54,54.34Z" transform="translate(0 0)" style="fill:#231f20"/><path d="M189.89,57.21h-1.26l-.5-1.3h-2.29l-.47,1.3h-1.23l2.23-5.73h1.22Zm-2.13-2.27L187,52.82l-.77,2.12Z" transform="translate(0 0)" style="fill:#231f20"/><path d="M192.14,55.34l1.13-.11a1.37,1.37,0,0,0,.41.83,1.24,1.24,0,0,0,.84.27,1.28,1.28,0,0,0,.84-.24.7.7,0,0,0,.28-.55.52.52,0,0,0-.12-.35.94.94,0,0,0-.42-.25q-.2-.07-.93-.25a3.13,3.13,0,0,1-1.3-.57,1.5,1.5,0,0,1-.28-2,1.56,1.56,0,0,1,.71-.58,2.87,2.87,0,0,1,1.13-.2,2.42,2.42,0,0,1,1.62.47,1.67,1.67,0,0,1,.57,1.26l-1.16.05a1,1,0,0,0-.32-.63,1.16,1.16,0,0,0-.73-.19,1.32,1.32,0,0,0-.79.21.42.42,0,0,0-.18.36.44.44,0,0,0,.17.35,3,3,0,0,0,1.06.38,5.62,5.62,0,0,1,1.25.41,1.61,1.61,0,0,1,.63.58,1.7,1.7,0,0,1,.23.91,1.67,1.67,0,0,1-.27.92,1.63,1.63,0,0,1-.77.64,3.23,3.23,0,0,1-1.25.21,2.48,2.48,0,0,1-1.67-.5A2.19,2.19,0,0,1,192.14,55.34Z" transform="translate(0 0)" style="fill:#231f20"/><path d="M199.06,57.21V52.45h-1.7v-1h4.55v1h-1.7v4.76Z" transform="translate(0 0)" style="fill:#231f20"/><path d="M202.66,57.21V51.48h2.43a4.16,4.16,0,0,1,1.33.15,1.31,1.31,0,0,1,.67.55,1.64,1.64,0,0,1,.25.9,1.52,1.52,0,0,1-.38,1.06,1.81,1.81,0,0,1-1.13.53,2.72,2.72,0,0,1,.62.48,6.39,6.39,0,0,1,.66.93l.7,1.12h-1.38L205.59,56a8.12,8.12,0,0,0-.61-.84.89.89,0,0,0-.35-.24,1.9,1.9,0,0,0-.58-.06h-.23v2.39Zm1.16-3.3h.86a4.41,4.41,0,0,0,1-.07.62.62,0,0,0,.32-.24.74.74,0,0,0,.12-.43.68.68,0,0,0-.15-.47.7.7,0,0,0-.44-.22q-.14,0-.84,0h-.9Z" transform="translate(0 0)" style="fill:#231f20"/><path d="M208.43,51.48h1.16v3.1a6.63,6.63,0,0,0,0,1,.94.94,0,0,0,.35.56,1.23,1.23,0,0,0,.76.21,1.16,1.16,0,0,0,.74-.2.79.79,0,0,0,.3-.49,6.27,6.27,0,0,0,.05-1V51.48H213v3a7.72,7.72,0,0,1-.09,1.46,1.61,1.61,0,0,1-.35.72,1.74,1.74,0,0,1-.67.47,2.92,2.92,0,0,1-1.1.17,3.16,3.16,0,0,1-1.24-.19,1.78,1.78,0,0,1-.67-.49,1.58,1.58,0,0,1-.32-.63,7,7,0,0,1-.11-1.45Z" transform="translate(0 0)" style="fill:#231f20"/><path d="M217.87,55.1l1.12.36a2.51,2.51,0,0,1-.86,1.39,2.44,2.44,0,0,1-1.52.46,2.47,2.47,0,0,1-1.87-.78,3,3,0,0,1-.73-2.13,3.13,3.13,0,0,1,.74-2.22,2.53,2.53,0,0,1,1.94-.79,2.38,2.38,0,0,1,1.71.62,2.24,2.24,0,0,1,.59,1.05l-1.14.27a1.18,1.18,0,0,0-1.21-1,1.31,1.31,0,0,0-1,.46,2.24,2.24,0,0,0-.4,1.48,2.4,2.4,0,0,0,.39,1.55,1.27,1.27,0,0,0,1,.46,1.15,1.15,0,0,0,.79-.29A1.69,1.69,0,0,0,217.87,55.1Z" transform="translate(0 0)" style="fill:#231f20"/><path d="M221.28,57.21V52.45h-1.7v-1h4.55v1h-1.7v4.76Z" transform="translate(0 0)" style="fill:#231f20"/><path d="M224.87,51.48H226v3.1a6.63,6.63,0,0,0,0,1,.94.94,0,0,0,.35.56,1.23,1.23,0,0,0,.76.21,1.16,1.16,0,0,0,.74-.2.79.79,0,0,0,.3-.49,6.27,6.27,0,0,0,.05-1V51.48h1.16v3a7.72,7.72,0,0,1-.09,1.46,1.61,1.61,0,0,1-.35.72,1.74,1.74,0,0,1-.67.47,2.92,2.92,0,0,1-1.1.17,3.16,3.16,0,0,1-1.24-.19,1.78,1.78,0,0,1-.67-.49A1.58,1.58,0,0,1,225,56a7,7,0,0,1-.11-1.45Z" transform="translate(0 0)" style="fill:#231f20"/><path d="M230.66,57.21V51.48h2.43a4.16,4.16,0,0,1,1.33.15,1.31,1.31,0,0,1,.67.55,1.64,1.64,0,0,1,.25.9,1.52,1.52,0,0,1-.38,1.06,1.81,1.81,0,0,1-1.13.53,2.72,2.72,0,0,1,.62.48,6.39,6.39,0,0,1,.66.93l.7,1.12h-1.38L233.59,56a8.12,8.12,0,0,0-.61-.84.89.89,0,0,0-.35-.24,1.9,1.9,0,0,0-.58-.06h-.23v2.39Zm1.16-3.3h.86a4.41,4.41,0,0,0,1-.07.62.62,0,0,0,.32-.24.74.74,0,0,0,.12-.43.68.68,0,0,0-.15-.47.7.7,0,0,0-.44-.22q-.14,0-.84,0h-.9Z" transform="translate(0 0)" style="fill:#231f20"/><path d="M241.59,57.21h-1.26l-.5-1.3h-2.29l-.47,1.3h-1.23l2.23-5.73h1.22Zm-2.13-2.27-.79-2.12-.77,2.12Z" transform="translate(0 0)" style="fill:#231f20"/><path d="M242.24,57.21V51.53h1.16v4.71h2.88v1Z" transform="translate(0 0)" style="fill:#231f20"/><path d="M8.89,64.94,10,64.83a1.37,1.37,0,0,0,.41.83,1.25,1.25,0,0,0,.84.27,1.29,1.29,0,0,0,.84-.24.7.7,0,0,0,.28-.55.52.52,0,0,0-.12-.35,1,1,0,0,0-.42-.25q-.2-.07-.93-.25a3.14,3.14,0,0,1-1.3-.57,1.5,1.5,0,0,1-.28-2,1.55,1.55,0,0,1,.71-.58,2.87,2.87,0,0,1,1.13-.2,2.42,2.42,0,0,1,1.62.47,1.67,1.67,0,0,1,.57,1.26l-1.16.05a1,1,0,0,0-.32-.63,1.17,1.17,0,0,0-.73-.19,1.32,1.32,0,0,0-.79.21.42.42,0,0,0-.18.36.44.44,0,0,0,.17.35,3,3,0,0,0,1.06.38,5.62,5.62,0,0,1,1.25.41,1.61,1.61,0,0,1,.63.58,1.7,1.7,0,0,1,.23.91,1.68,1.68,0,0,1-.27.92,1.65,1.65,0,0,1-.77.64,3.24,3.24,0,0,1-1.25.21,2.48,2.48,0,0,1-1.67-.5A2.18,2.18,0,0,1,8.89,64.94Z" transform="translate(0 0)" style="fill:#231f20"/><path d="M14.51,61.08h1.16v3.1a6.48,6.48,0,0,0,0,1,.93.93,0,0,0,.35.56,1.23,1.23,0,0,0,.76.21,1.17,1.17,0,0,0,.74-.2.79.79,0,0,0,.3-.49,6.4,6.4,0,0,0,.05-1V61.08h1.16v3A7.73,7.73,0,0,1,19,65.54a1.61,1.61,0,0,1-.35.72,1.75,1.75,0,0,1-.67.47,2.92,2.92,0,0,1-1.1.17,3.18,3.18,0,0,1-1.24-.19,1.77,1.77,0,0,1-.67-.49,1.57,1.57,0,0,1-.32-.63,7,7,0,0,1-.11-1.45Z" transform="translate(0 0)" style="fill:#231f20"/><path d="M20.29,66.81V61.08h1.86a6.78,6.78,0,0,1,1.38.09,1.51,1.51,0,0,1,.82.56,1.78,1.78,0,0,1,.33,1.12,1.86,1.86,0,0,1-.19.89,1.58,1.58,0,0,1-.49.56,1.67,1.67,0,0,1-.6.27,6.6,6.6,0,0,1-1.2.08h-.75v2.16ZM21.45,62v1.63h.63a3,3,0,0,0,.91-.09.76.76,0,0,0,.36-.28.77.77,0,0,0,.13-.45.74.74,0,0,0-.18-.52.8.8,0,0,0-.46-.25A5.65,5.65,0,0,0,22,62Z" transform="translate(0 0)" style="fill:#231f20"/><path d="M25.63,66.81V61.08h1.86a6.78,6.78,0,0,1,1.38.09,1.51,1.51,0,0,1,.82.56A1.78,1.78,0,0,1,30,62.84a1.86,1.86,0,0,1-.19.89,1.58,1.58,0,0,1-.49.56,1.67,1.67,0,0,1-.6.27,6.6,6.6,0,0,1-1.2.08h-.75v2.16ZM26.79,62v1.63h.63a3,3,0,0,0,.91-.09.76.76,0,0,0,.36-.28.77.77,0,0,0,.13-.45.74.74,0,0,0-.18-.52.8.8,0,0,0-.46-.25,5.65,5.65,0,0,0-.83,0Z" transform="translate(0 0)" style="fill:#231f20"/><path d="M30.73,64A3.64,3.64,0,0,1,31,62.51a2.7,2.7,0,0,1,.53-.79,2.24,2.24,0,0,1,.74-.52A3.16,3.16,0,0,1,33.5,61a2.69,2.69,0,0,1,2,.79,3.51,3.51,0,0,1,0,4.35,2.67,2.67,0,0,1-2,.78,2.7,2.7,0,0,1-2-.78A3,3,0,0,1,30.73,64Zm1.19,0a2.14,2.14,0,0,0,.45,1.47,1.54,1.54,0,0,0,2.28,0,2.19,2.19,0,0,0,.44-1.49,2.15,2.15,0,0,0-.43-1.47,1.6,1.6,0,0,0-2.3,0A2.16,2.16,0,0,0,31.92,63.94Z" transform="translate(0 0)" style="fill:#231f20"/><path d="M37.19,66.81V61.08h2.43a4.17,4.17,0,0,1,1.33.15,1.32,1.32,0,0,1,.67.55,1.65,1.65,0,0,1,.25.9,1.53,1.53,0,0,1-.38,1.06,1.82,1.82,0,0,1-1.13.53,2.69,2.69,0,0,1,.62.48,6.55,6.55,0,0,1,.66.93l.7,1.12H41l-.84-1.25a8.12,8.12,0,0,0-.61-.84.89.89,0,0,0-.35-.24,1.9,1.9,0,0,0-.58-.06h-.23v2.39Zm1.16-3.3h.86a4.42,4.42,0,0,0,1-.07.63.63,0,0,0,.32-.24.74.74,0,0,0,.12-.43.69.69,0,0,0-.15-.47.71.71,0,0,0-.44-.22q-.14,0-.84,0h-.9Z" transform="translate(0 0)" style="fill:#231f20"/><path d="M44.25,66.81V62h-1.7v-1h4.55v1h-1.7v4.76Z" transform="translate(0 0)" style="fill:#231f20"/><path d="M50.11,66.81V61.13h1.16v4.71h2.88v1Z" transform="translate(0 0)" style="fill:#231f20"/><path d="M54.93,66.81V61.08h1.16v5.73Z" transform="translate(0 0)" style="fill:#231f20"/><path d="M57.2,66.81V61.08h1.16v2.54l2.34-2.54h1.55l-2.16,2.23,2.27,3.5h-1.5l-1.57-2.69-.94,1v1.73Z" transform="translate(0 0)" style="fill:#231f20"/><path d="M63,66.81V61.08h4.25v1H64.12v1.27H67v1H64.12v1.56h3.2v1Z" transform="translate(0 0)" style="fill:#231f20"/><path d="M75.39,66.81H74.13l-.5-1.3H71.34l-.47,1.3H69.64l2.23-5.73h1.22Zm-2.13-2.27-.79-2.13-.77,2.13Z" transform="translate(0 0)" style="fill:#231f20"/><path d="M77.63,64.94l1.13-.11a1.37,1.37,0,0,0,.41.83,1.25,1.25,0,0,0,.84.27,1.29,1.29,0,0,0,.84-.24.7.7,0,0,0,.28-.55A.52.52,0,0,0,81,64.8a1,1,0,0,0-.42-.25q-.2-.07-.93-.25a3.14,3.14,0,0,1-1.3-.57,1.5,1.5,0,0,1-.28-2,1.55,1.55,0,0,1,.71-.58,2.87,2.87,0,0,1,1.13-.2,2.42,2.42,0,0,1,1.62.47,1.67,1.67,0,0,1,.57,1.26L81,62.77a1,1,0,0,0-.32-.63,1.17,1.17,0,0,0-.73-.19,1.32,1.32,0,0,0-.79.21.42.42,0,0,0-.18.36.44.44,0,0,0,.17.35,3,3,0,0,0,1.06.38,5.62,5.62,0,0,1,1.25.41,1.61,1.61,0,0,1,.63.58,1.7,1.7,0,0,1,.23.91,1.68,1.68,0,0,1-.27.92,1.65,1.65,0,0,1-.77.64,3.24,3.24,0,0,1-1.25.21,2.48,2.48,0,0,1-1.67-.5A2.18,2.18,0,0,1,77.63,64.94Z" transform="translate(0 0)" style="fill:#231f20"/><path d="M84.55,66.81V62h-1.7v-1H87.4v1h-1.7v4.76Z" transform="translate(0 0)" style="fill:#231f20"/><path d="M88.14,61.08H89.3v3.1a6.48,6.48,0,0,0,0,1,.93.93,0,0,0,.35.56,1.23,1.23,0,0,0,.76.21,1.17,1.17,0,0,0,.74-.2.79.79,0,0,0,.3-.49,6.4,6.4,0,0,0,.05-1V61.08h1.16v3a7.73,7.73,0,0,1-.09,1.46,1.61,1.61,0,0,1-.35.72,1.75,1.75,0,0,1-.67.47,2.92,2.92,0,0,1-1.1.17,3.18,3.18,0,0,1-1.24-.19,1.77,1.77,0,0,1-.67-.49,1.57,1.57,0,0,1-.32-.63,7,7,0,0,1-.11-1.45Z" transform="translate(0 0)" style="fill:#231f20"/><path d="M93.92,61.08H96a4.15,4.15,0,0,1,1.09.11,1.92,1.92,0,0,1,.86.53,2.51,2.51,0,0,1,.55.93A4.23,4.23,0,0,1,98.72,64a3.76,3.76,0,0,1-.18,1.22,2.53,2.53,0,0,1-.61,1,2,2,0,0,1-.81.46,3.49,3.49,0,0,1-1,.12H93.92Zm1.16,1v3.79h.86a3.17,3.17,0,0,0,.7-.05,1.07,1.07,0,0,0,.47-.24,1.21,1.21,0,0,0,.3-.55,3.74,3.74,0,0,0,.12-1,3.42,3.42,0,0,0-.12-1,1.31,1.31,0,0,0-.33-.55,1.1,1.1,0,0,0-.54-.27A5.27,5.27,0,0,0,95.6,62Z" transform="translate(0 0)" style="fill:#231f20"/></svg>