<svg xmlns="http://www.w3.org/2000/svg" viewBox="0 0 262.96 110.19"><title>caution_prop_dam_leak_drain</title><g id="frame"><polyline points="0.85 26.49 262.18 26.49 262.18 0.56 0.85 0.56"/><rect x="0.5" y="0.5" width="261.96" height="109.19" style="fill:none;stroke:#000;stroke-miterlimit:10"/><path d="M86,78.15" style="fill:none;stroke:#000"/><path d="M86,12" style="fill:none;stroke:#000"/><line x1="0.72" y1="46.62" x2="262.39" y2="46.62" style="fill:none;stroke:#000"/></g><g id="text"><path d="M63,39.61V31H65.8a10.09,10.09,0,0,1,2.06.13A2.25,2.25,0,0,1,69.1,32a2.67,2.67,0,0,1,.5,1.67A2.8,2.8,0,0,1,69.31,35a2.36,2.36,0,0,1-.73.85,2.51,2.51,0,0,1-.9.41,9.9,9.9,0,0,1-1.8.12H64.75v3.24Zm1.73-7.14v2.44h.95a4.48,4.48,0,0,0,1.37-.13,1.14,1.14,0,0,0,.54-.42,1.15,1.15,0,0,0,.2-.67,1.11,1.11,0,0,0-.28-.77,1.2,1.2,0,0,0-.7-.38,8.34,8.34,0,0,0-1.25-.06Z"/><path d="M72.59,39.61H70.94V33.38h1.53v.88a2.66,2.66,0,0,1,.71-.83,1.3,1.3,0,0,1,.71-.2,2.09,2.09,0,0,1,1.08.31L74.46,35a1.44,1.44,0,0,0-.77-.27.91.91,0,0,0-.59.19,1.3,1.3,0,0,0-.38.69,9.78,9.78,0,0,0-.14,2.09Z"/><path d="M75.3,36.41a3.37,3.37,0,0,1,.4-1.59,2.78,2.78,0,0,1,1.15-1.17,3.4,3.4,0,0,1,1.66-.4,3.11,3.11,0,0,1,2.31.92,3.17,3.17,0,0,1,.9,2.32,3.21,3.21,0,0,1-.91,2.34,3.08,3.08,0,0,1-2.29.93,3.61,3.61,0,0,1-1.63-.39,2.65,2.65,0,0,1-1.18-1.13A3.78,3.78,0,0,1,75.3,36.41ZM77,36.5a2.06,2.06,0,0,0,.44,1.42,1.44,1.44,0,0,0,2.17,0A2.09,2.09,0,0,0,80,36.48a2.05,2.05,0,0,0-.44-1.41,1.44,1.44,0,0,0-2.17,0A2.06,2.06,0,0,0,77,36.5Z"/><path d="M83,33.38H84.5v.91a2.3,2.3,0,0,1,.81-.76,2.23,2.23,0,0,1,1.13-.29,2.37,2.37,0,0,1,1.84.85A3.44,3.44,0,0,1,89,36.46a3.54,3.54,0,0,1-.76,2.42,2.37,2.37,0,0,1-1.85.86,2.1,2.1,0,0,1-.93-.21,3.15,3.15,0,0,1-.88-.7V42H83Zm1.63,3A2.4,2.4,0,0,0,85,37.94a1.27,1.27,0,0,0,1,.5A1.19,1.19,0,0,0,87,38a2.37,2.37,0,0,0,.38-1.51A2.25,2.25,0,0,0,87,35a1.21,1.21,0,0,0-1-.47A1.26,1.26,0,0,0,85,35,2.07,2.07,0,0,0,84.59,36.39Z"/><path d="M93.94,37.63l1.64.28a2.69,2.69,0,0,1-1,1.37,2.93,2.93,0,0,1-1.71.47,2.78,2.78,0,0,1-2.4-1.06,3.56,3.56,0,0,1-.62-2.14,3.44,3.44,0,0,1,.81-2.42,2.66,2.66,0,0,1,2-.88,2.76,2.76,0,0,1,2.19.92A4.06,4.06,0,0,1,95.67,37H91.55a1.67,1.67,0,0,0,.4,1.14,1.25,1.25,0,0,0,.95.41,1,1,0,0,0,.65-.21A1.3,1.3,0,0,0,93.94,37.63ZM94,36a1.59,1.59,0,0,0-.37-1.09,1.19,1.19,0,0,0-1.75,0A1.52,1.52,0,0,0,91.58,36Z"/><path d="M98.59,39.61H96.94V33.38h1.53v.88a2.66,2.66,0,0,1,.71-.83,1.3,1.3,0,0,1,.71-.2,2.09,2.09,0,0,1,1.08.31L100.47,35a1.44,1.44,0,0,0-.77-.27.91.91,0,0,0-.59.19,1.3,1.3,0,0,0-.38.69,9.78,9.78,0,0,0-.14,2.09Z"/><path d="M104.54,33.38V34.7h-1.12v2.51a6.24,6.24,0,0,0,0,.89.36.36,0,0,0,.15.21.46.46,0,0,0,.28.08,2.13,2.13,0,0,0,.66-.16l.14,1.28a3.27,3.27,0,0,1-1.3.25,2.06,2.06,0,0,1-.8-.15,1.17,1.17,0,0,1-.52-.39,1.53,1.53,0,0,1-.23-.64,8,8,0,0,1-.05-1.16V34.7H101V33.38h.76V32.15l1.65-1v2.2Z"/><path d="M104.9,33.38h1.75l1.49,4.42,1.45-4.42h1.71l-2.2,6-.39,1.08a4.42,4.42,0,0,1-.41.83,1.8,1.8,0,0,1-.45.47,2,2,0,0,1-.63.28,3.26,3.26,0,0,1-.84.1,4.36,4.36,0,0,1-.93-.1l-.15-1.29a3.64,3.64,0,0,0,.7.08,1,1,0,0,0,.85-.34,2.34,2.34,0,0,0,.42-.86Z"/><path d="M115.69,31h3.17a6.19,6.19,0,0,1,1.63.16,2.87,2.87,0,0,1,1.29.79,3.75,3.75,0,0,1,.82,1.39,6.34,6.34,0,0,1,.28,2,5.65,5.65,0,0,1-.26,1.83,3.79,3.79,0,0,1-.92,1.52,3,3,0,0,1-1.22.69,5.25,5.25,0,0,1-1.54.18h-3.26Zm1.73,1.45v5.69h1.29a4.73,4.73,0,0,0,1-.08,1.6,1.6,0,0,0,.7-.36,1.82,1.82,0,0,0,.45-.83,5.6,5.6,0,0,0,.18-1.57,5.13,5.13,0,0,0-.18-1.53,2,2,0,0,0-.49-.83,1.65,1.65,0,0,0-.8-.4,7.86,7.86,0,0,0-1.42-.08Z"/><path d="M125.58,35.28,124.09,35a2.33,2.33,0,0,1,.87-1.34,3.17,3.17,0,0,1,1.83-.43,3.94,3.94,0,0,1,1.64.26,1.64,1.64,0,0,1,.76.66,3.4,3.4,0,0,1,.22,1.47l0,1.92a6.67,6.67,0,0,0,.08,1.21,3.53,3.53,0,0,0,.3.83h-1.63q-.06-.16-.16-.49l-.06-.19a3,3,0,0,1-.9.62,2.58,2.58,0,0,1-1,.21,2.12,2.12,0,0,1-1.51-.52,1.73,1.73,0,0,1-.55-1.32,1.77,1.77,0,0,1,.25-.94,1.65,1.65,0,0,1,.71-.63,5.52,5.52,0,0,1,1.31-.38,9,9,0,0,0,1.6-.4v-.16a.85.85,0,0,0-.23-.68,1.4,1.4,0,0,0-.88-.2,1.18,1.18,0,0,0-.69.17A1.2,1.2,0,0,0,125.58,35.28Zm2.2,1.34a10.29,10.29,0,0,1-1,.25,3,3,0,0,0-.9.29.69.69,0,0,0-.32.58.81.81,0,0,0,.26.6.9.9,0,0,0,.66.25,1.43,1.43,0,0,0,.85-.29,1,1,0,0,0,.39-.54,3.25,3.25,0,0,0,.06-.8Z"/><path d="M130.9,33.38h1.52v.85a2.44,2.44,0,0,1,1.94-1,2.09,2.09,0,0,1,1,.25,1.89,1.89,0,0,1,.72.74,2.87,2.87,0,0,1,.88-.74,2.17,2.17,0,0,1,1-.25,2.26,2.26,0,0,1,1.16.28,1.71,1.71,0,0,1,.71.82,3.55,3.55,0,0,1,.17,1.29v4h-1.65V36.05a2.65,2.65,0,0,0-.17-1.2.78.78,0,0,0-.7-.35,1.12,1.12,0,0,0-.65.21,1.17,1.17,0,0,0-.44.62,4.45,4.45,0,0,0-.13,1.29v3h-1.65V36.2a4.73,4.73,0,0,0-.09-1.17.75.75,0,0,0-.27-.39.86.86,0,0,0-.5-.13,1.2,1.2,0,0,0-.69.21,1.12,1.12,0,0,0-.44.59,4.4,4.4,0,0,0-.13,1.28v3H130.9Z"/><path d="M142.93,35.28,141.43,35a2.33,2.33,0,0,1,.87-1.34,3.17,3.17,0,0,1,1.83-.43,3.94,3.94,0,0,1,1.64.26,1.64,1.64,0,0,1,.76.66,3.4,3.4,0,0,1,.22,1.47l0,1.92a6.67,6.67,0,0,0,.08,1.21,3.53,3.53,0,0,0,.3.83h-1.63q-.06-.16-.16-.49l-.06-.19a3,3,0,0,1-.9.62,2.58,2.58,0,0,1-1,.21,2.12,2.12,0,0,1-1.51-.52,1.73,1.73,0,0,1-.55-1.32,1.77,1.77,0,0,1,.25-.94,1.65,1.65,0,0,1,.71-.63,5.52,5.52,0,0,1,1.31-.38,9,9,0,0,0,1.6-.4v-.16a.85.85,0,0,0-.23-.68,1.4,1.4,0,0,0-.88-.2,1.18,1.18,0,0,0-.69.17A1.2,1.2,0,0,0,142.93,35.28Zm2.2,1.34a10.29,10.29,0,0,1-1,.25,3,3,0,0,0-.9.29.69.69,0,0,0-.32.58.81.81,0,0,0,.26.6.9.9,0,0,0,.66.25,1.43,1.43,0,0,0,.85-.29,1,1,0,0,0,.39-.54,3.25,3.25,0,0,0,.06-.8Z"/><path d="M148.22,40l1.88.23a.64.64,0,0,0,.22.45,1.24,1.24,0,0,0,.74.18,1.92,1.92,0,0,0,1-.19.8.8,0,0,0,.33-.42,2.5,2.5,0,0,0,.08-.76V38.6a2.23,2.23,0,0,1-1.86,1,2.29,2.29,0,0,1-2-1.06,3.6,3.6,0,0,1-.57-2.09,3.43,3.43,0,0,1,.75-2.39,2.43,2.43,0,0,1,1.87-.83,2.28,2.28,0,0,1,1.9,1v-.87h1.54V39a5.56,5.56,0,0,1-.18,1.65,2,2,0,0,1-.51.86,2.26,2.26,0,0,1-.88.49,4.61,4.61,0,0,1-1.39.18,3.59,3.59,0,0,1-2.24-.54,1.7,1.7,0,0,1-.66-1.37Q148.21,40.13,148.22,40Zm1.47-3.65a2.24,2.24,0,0,0,.38,1.45,1.19,1.19,0,0,0,.95.46,1.31,1.31,0,0,0,1-.47,2.06,2.06,0,0,0,.42-1.4,2.18,2.18,0,0,0-.4-1.44,1.27,1.27,0,0,0-1-.47,1.22,1.22,0,0,0-1,.46A2.16,2.16,0,0,0,149.69,36.37Z"/><path d="M159.3,37.63l1.64.28a2.69,2.69,0,0,1-1,1.37,2.93,2.93,0,0,1-1.71.47,2.78,2.78,0,0,1-2.4-1.06,3.56,3.56,0,0,1-.62-2.14,3.44,3.44,0,0,1,.81-2.42,2.66,2.66,0,0,1,2-.88,2.76,2.76,0,0,1,2.19.92A4.06,4.06,0,0,1,161,37h-4.12a1.67,1.67,0,0,0,.4,1.14,1.25,1.25,0,0,0,.95.41,1,1,0,0,0,.65-.21A1.3,1.3,0,0,0,159.3,37.63ZM159.4,36a1.59,1.59,0,0,0-.37-1.09,1.19,1.19,0,0,0-1.75,0,1.52,1.52,0,0,0-.35,1.07Z"/><path d="M165.73,39.61V31h1.73V34.4h3.4V31h1.73v8.59h-1.73V35.85h-3.4v3.76Z"/><path d="M175.61,35.28,174.11,35a2.33,2.33,0,0,1,.87-1.34,3.17,3.17,0,0,1,1.83-.43,3.94,3.94,0,0,1,1.64.26,1.64,1.64,0,0,1,.76.66,3.4,3.4,0,0,1,.22,1.47l0,1.92a6.67,6.67,0,0,0,.08,1.21,3.53,3.53,0,0,0,.3.83h-1.63q-.06-.16-.16-.49l-.06-.19a3,3,0,0,1-.9.62,2.58,2.58,0,0,1-1,.21,2.12,2.12,0,0,1-1.51-.52,1.73,1.73,0,0,1-.55-1.32,1.77,1.77,0,0,1,.25-.94,1.65,1.65,0,0,1,.71-.63,5.52,5.52,0,0,1,1.31-.38,9,9,0,0,0,1.6-.4v-.16a.85.85,0,0,0-.23-.68,1.4,1.4,0,0,0-.88-.2,1.18,1.18,0,0,0-.69.17A1.2,1.2,0,0,0,175.61,35.28Zm2.2,1.34a10.29,10.29,0,0,1-1,.25,3,3,0,0,0-.9.29.69.69,0,0,0-.32.58.81.81,0,0,0,.26.6.9.9,0,0,0,.66.25,1.43,1.43,0,0,0,.85-.29,1,1,0,0,0,.39-.54,3.25,3.25,0,0,0,.06-.8Z"/><path d="M180.39,39.61V38.32l2.33-2.68q.57-.66.85-.93l-.76,0h-2.2V33.38h5.14v1.17l-2.38,2.74-.84.91.85,0h2.55v1.45Z"/><path d="M188.28,35.28,186.79,35a2.33,2.33,0,0,1,.87-1.34,3.17,3.17,0,0,1,1.83-.43,3.94,3.94,0,0,1,1.64.26,1.64,1.64,0,0,1,.76.66,3.4,3.4,0,0,1,.22,1.47l0,1.92a6.67,6.67,0,0,0,.08,1.21,3.53,3.53,0,0,0,.3.83h-1.63q-.06-.16-.16-.49l-.06-.19a3,3,0,0,1-.9.62,2.58,2.58,0,0,1-1,.21,2.12,2.12,0,0,1-1.51-.52,1.73,1.73,0,0,1-.55-1.32,1.77,1.77,0,0,1,.25-.94,1.65,1.65,0,0,1,.71-.63,5.52,5.52,0,0,1,1.31-.38,9,9,0,0,0,1.6-.4v-.16a.85.85,0,0,0-.23-.68,1.4,1.4,0,0,0-.88-.2,1.18,1.18,0,0,0-.69.17A1.2,1.2,0,0,0,188.28,35.28Zm2.2,1.34a10.29,10.29,0,0,1-1,.25,3,3,0,0,0-.9.29.69.69,0,0,0-.32.58.81.81,0,0,0,.26.6.9.9,0,0,0,.66.25,1.43,1.43,0,0,0,.85-.29,1,1,0,0,0,.39-.54,3.25,3.25,0,0,0,.06-.8Z"/><path d="M195.3,39.61h-1.65V33.38h1.53v.88a2.66,2.66,0,0,1,.71-.83,1.3,1.3,0,0,1,.71-.2,2.09,2.09,0,0,1,1.08.31L197.17,35a1.44,1.44,0,0,0-.77-.27.91.91,0,0,0-.59.19,1.3,1.3,0,0,0-.38.69,9.78,9.78,0,0,0-.14,2.09Z"/><path d="M204.1,39.61h-1.53v-.91a2.47,2.47,0,0,1-.9.79,2.31,2.31,0,0,1-1,.26,2.37,2.37,0,0,1-1.84-.86,3.52,3.52,0,0,1-.76-2.41,3.47,3.47,0,0,1,.74-2.41,2.43,2.43,0,0,1,1.88-.82,2.33,2.33,0,0,1,1.8.87V31h1.65Zm-4.39-3.25A2.85,2.85,0,0,0,200,37.8a1.24,1.24,0,0,0,1.11.64,1.21,1.21,0,0,0,1-.48,2.23,2.23,0,0,0,.4-1.44,2.44,2.44,0,0,0-.39-1.54,1.22,1.22,0,0,0-1-.47,1.24,1.24,0,0,0-1,.47A2.1,2.1,0,0,0,199.71,36.36Z"/><path d="M46.72,68.61l2.75-7.16h1l2.93,7.16H52.34l-.83-2.17h-3l-.79,2.17Zm2.07-2.94h2.43l-.75-2q-.34-.9-.51-1.48a9.15,9.15,0,0,1-.39,1.37Z"/><path d="M54,68.61V61.45h.88v7.16Z"/><path d="M56.26,68.61V61.45h.88v7.16Z"/><path d="M62.24,68.61l-1.59-5.19h.91l.83,3,.31,1.11L63,66.46l.83-3h.9l.78,3,.26,1,.3-1,.89-3h.85l-1.62,5.19h-.91l-.83-3.11-.2-.88-1,4Z"/><path d="M71.89,68a3.27,3.27,0,0,1-.94.59,2.72,2.72,0,0,1-1,.17,1.89,1.89,0,0,1-1.31-.42,1.38,1.38,0,0,1-.46-1.07,1.42,1.42,0,0,1,.17-.7,1.44,1.44,0,0,1,.45-.51,2.13,2.13,0,0,1,.63-.29,6.34,6.34,0,0,1,.78-.13,8,8,0,0,0,1.57-.3c0-.12,0-.2,0-.23a1,1,0,0,0-.25-.76,1.47,1.47,0,0,0-1-.3,1.55,1.55,0,0,0-.92.22,1.33,1.33,0,0,0-.44.77l-.86-.12a2.13,2.13,0,0,1,.39-.89,1.69,1.69,0,0,1,.78-.52,3.46,3.46,0,0,1,1.18-.18,3.12,3.12,0,0,1,1.08.16,1.42,1.42,0,0,1,.61.39,1.38,1.38,0,0,1,.27.6,5,5,0,0,1,0,.81v1.17A12.4,12.4,0,0,0,72.76,68a2,2,0,0,0,.22.62h-.92A1.86,1.86,0,0,1,71.89,68Zm-.07-2a6.44,6.44,0,0,1-1.44.33,3.34,3.34,0,0,0-.77.18.76.76,0,0,0-.35.29.78.78,0,0,0,.14,1,1.14,1.14,0,0,0,.78.23,1.81,1.81,0,0,0,.9-.22,1.37,1.37,0,0,0,.58-.61,2.13,2.13,0,0,0,.14-.88Z"/><path d="M76,67.82l.13.78a3.25,3.25,0,0,1-.66.08,1.5,1.5,0,0,1-.74-.15.85.85,0,0,1-.37-.4,3.14,3.14,0,0,1-.11-1v-3h-.64v-.68h.64V62.14l.87-.53v1.81H76v.68H75.1v3a1.54,1.54,0,0,0,0,.48.37.37,0,0,0,.15.17.58.58,0,0,0,.3.06Z"/><path d="M80.4,66.94l.91.11a2.22,2.22,0,0,1-.8,1.24A2.7,2.7,0,0,1,77.22,68a2.74,2.74,0,0,1-.67-2,2.87,2.87,0,0,1,.67-2A2.28,2.28,0,0,1,79,63.31a2.22,2.22,0,0,1,1.7.71,2.81,2.81,0,0,1,.66,2c0,.05,0,.13,0,.23H77.46a2,2,0,0,0,.48,1.31A1.44,1.44,0,0,0,79,68a1.34,1.34,0,0,0,.83-.25A1.69,1.69,0,0,0,80.4,66.94Zm-2.89-1.42h2.9a1.76,1.76,0,0,0-.33-1A1.35,1.35,0,0,0,79,64a1.4,1.4,0,0,0-1,.41A1.6,1.6,0,0,0,77.51,65.52Z"/><path d="M82.4,68.61V63.42h.79v.79a2.14,2.14,0,0,1,.56-.73,1,1,0,0,1,.56-.18,1.71,1.71,0,0,1,.9.28l-.3.82a1.26,1.26,0,0,0-.64-.19.84.84,0,0,0-.52.17.94.94,0,0,0-.33.48,3.42,3.42,0,0,0-.15,1v2.71Z"/><path d="M88.52,68.61V61.45h.88V64a2,2,0,0,1,1.55-.71,2.09,2.09,0,0,1,1,.23,1.33,1.33,0,0,1,.61.63,2.87,2.87,0,0,1,.18,1.16v3.29h-.88V65.32a1.36,1.36,0,0,0-.29-1,1.06,1.06,0,0,0-.81-.3,1.42,1.42,0,0,0-.73.2,1.14,1.14,0,0,0-.49.55,2.52,2.52,0,0,0-.15,1v2.84Z"/><path d="M97.63,66.94l.91.11a2.22,2.22,0,0,1-.8,1.24,2.39,2.39,0,0,1-1.48.44,2.37,2.37,0,0,1-1.8-.7,2.73,2.73,0,0,1-.67-2,2.87,2.87,0,0,1,.67-2,2.28,2.28,0,0,1,1.75-.72,2.22,2.22,0,0,1,1.7.71,2.81,2.81,0,0,1,.66,2c0,.05,0,.13,0,.23H94.69a2,2,0,0,0,.48,1.31,1.44,1.44,0,0,0,1.08.45,1.34,1.34,0,0,0,.83-.25A1.69,1.69,0,0,0,97.63,66.94Zm-2.89-1.42h2.9a1.76,1.76,0,0,0-.33-1A1.35,1.35,0,0,0,96.22,64a1.4,1.4,0,0,0-1,.41A1.61,1.61,0,0,0,94.74,65.52Z"/><path d="M103,68a3.26,3.26,0,0,1-.94.59,2.73,2.73,0,0,1-1,.17,1.89,1.89,0,0,1-1.31-.42,1.38,1.38,0,0,1-.46-1.07,1.41,1.41,0,0,1,.17-.7A1.44,1.44,0,0,1,100,66a2.14,2.14,0,0,1,.63-.29,6.34,6.34,0,0,1,.78-.13,8,8,0,0,0,1.57-.3c0-.12,0-.2,0-.23a1,1,0,0,0-.25-.76,1.47,1.47,0,0,0-1-.3,1.55,1.55,0,0,0-.92.22,1.33,1.33,0,0,0-.44.77l-.86-.12a2.13,2.13,0,0,1,.39-.89,1.69,1.69,0,0,1,.78-.52,3.46,3.46,0,0,1,1.18-.18,3.12,3.12,0,0,1,1.08.16,1.42,1.42,0,0,1,.61.39,1.38,1.38,0,0,1,.27.6,5,5,0,0,1,0,.81v1.17a12.55,12.55,0,0,0,.06,1.55,2,2,0,0,0,.22.62h-.92A1.88,1.88,0,0,1,103,68Zm-.07-2a6.46,6.46,0,0,1-1.44.33,3.33,3.33,0,0,0-.77.18.76.76,0,0,0-.35.29.78.78,0,0,0,.14,1,1.15,1.15,0,0,0,.78.23,1.81,1.81,0,0,0,.9-.22,1.37,1.37,0,0,0,.58-.61,2.12,2.12,0,0,0,.14-.88Z"/><path d="M107.12,67.82l.13.78a3.25,3.25,0,0,1-.66.08,1.5,1.5,0,0,1-.74-.15.85.85,0,0,1-.37-.4,3.16,3.16,0,0,1-.11-1v-3h-.64v-.68h.64V62.14l.87-.53v1.81h.88v.68h-.88v3a1.56,1.56,0,0,0,0,.48.37.37,0,0,0,.15.17.58.58,0,0,0,.3.06Z"/><path d="M111.53,66.94l.91.11a2.22,2.22,0,0,1-.8,1.24,2.39,2.39,0,0,1-1.48.44,2.37,2.37,0,0,1-1.8-.7,2.73,2.73,0,0,1-.67-2,2.87,2.87,0,0,1,.67-2,2.28,2.28,0,0,1,1.75-.72,2.22,2.22,0,0,1,1.7.71,2.81,2.81,0,0,1,.66,2c0,.05,0,.13,0,.23h-3.87a2,2,0,0,0,.48,1.31,1.44,1.44,0,0,0,1.08.45,1.34,1.34,0,0,0,.83-.25A1.69,1.69,0,0,0,111.53,66.94Zm-2.89-1.42h2.9a1.76,1.76,0,0,0-.33-1,1.35,1.35,0,0,0-1.09-.51,1.4,1.4,0,0,0-1,.41A1.61,1.61,0,0,0,108.64,65.52Z"/><path d="M113.53,68.61V63.42h.79v.79a2.14,2.14,0,0,1,.56-.73,1,1,0,0,1,.56-.18,1.71,1.71,0,0,1,.9.28l-.3.82a1.26,1.26,0,0,0-.64-.19.84.84,0,0,0-.52.17.94.94,0,0,0-.33.48,3.42,3.42,0,0,0-.15,1v2.71Z"/><path d="M116.52,67.06l.87-.14a1.22,1.22,0,0,0,.41.8,1.42,1.42,0,0,0,.94.28,1.37,1.37,0,0,0,.9-.25.74.74,0,0,0,.29-.58.53.53,0,0,0-.26-.47,3.81,3.81,0,0,0-.9-.3,8.24,8.24,0,0,1-1.34-.42,1.28,1.28,0,0,1-.76-1.19,1.33,1.33,0,0,1,.16-.64,1.42,1.42,0,0,1,.43-.49,1.81,1.81,0,0,1,.56-.26,2.67,2.67,0,0,1,.76-.1,3,3,0,0,1,1.07.18,1.46,1.46,0,0,1,.68.48,1.86,1.86,0,0,1,.3.8l-.86.12a.94.94,0,0,0-.34-.62,1.24,1.24,0,0,0-.79-.22,1.44,1.44,0,0,0-.86.2.58.58,0,0,0-.26.47.49.49,0,0,0,.11.31.77.77,0,0,0,.34.23l.78.22a10.79,10.79,0,0,1,1.3.41,1.32,1.32,0,0,1,.58.46,1.29,1.29,0,0,1,.21.75,1.47,1.47,0,0,1-.26.83,1.65,1.65,0,0,1-.74.6,2.69,2.69,0,0,1-1.09.21,2.43,2.43,0,0,1-1.54-.42A2,2,0,0,1,116.52,67.06Z"/><path d="M128.2,66.94l.91.11a2.22,2.22,0,0,1-.8,1.24,2.39,2.39,0,0,1-1.48.44A2.37,2.37,0,0,1,125,68a2.73,2.73,0,0,1-.67-2,2.87,2.87,0,0,1,.67-2,2.28,2.28,0,0,1,1.75-.72,2.22,2.22,0,0,1,1.7.71,2.81,2.81,0,0,1,.66,2c0,.05,0,.13,0,.23h-3.87a2,2,0,0,0,.48,1.31,1.44,1.44,0,0,0,1.08.45,1.34,1.34,0,0,0,.83-.25A1.69,1.69,0,0,0,128.2,66.94Zm-2.89-1.42h2.9a1.76,1.76,0,0,0-.33-1,1.35,1.35,0,0,0-1.09-.51,1.4,1.4,0,0,0-1,.41A1.61,1.61,0,0,0,125.31,65.52Z"/><path d="M131.65,68.61l-2-5.19h.93l1.11,3.11q.18.5.33,1,.12-.41.33-1l1.15-3.16h.9l-2,5.19Z"/><path d="M138.76,66.94l.91.11a2.22,2.22,0,0,1-.8,1.24,2.39,2.39,0,0,1-1.48.44,2.37,2.37,0,0,1-1.8-.7,2.73,2.73,0,0,1-.67-2,2.87,2.87,0,0,1,.67-2,2.28,2.28,0,0,1,1.75-.72A2.22,2.22,0,0,1,139,64a2.81,2.81,0,0,1,.66,2c0,.05,0,.13,0,.23h-3.87a2,2,0,0,0,.48,1.31,1.44,1.44,0,0,0,1.08.45,1.34,1.34,0,0,0,.83-.25A1.69,1.69,0,0,0,138.76,66.94Zm-2.89-1.42h2.9a1.76,1.76,0,0,0-.33-1,1.35,1.35,0,0,0-1.09-.51,1.4,1.4,0,0,0-1,.41A1.61,1.61,0,0,0,135.87,65.52Z"/><path d="M140.77,68.61V63.42h.79v.74a1.86,1.86,0,0,1,1.65-.85,2.17,2.17,0,0,1,.86.17,1.36,1.36,0,0,1,.59.44,1.7,1.7,0,0,1,.27.65,5.07,5.07,0,0,1,0,.85v3.19h-.88V65.46a2.37,2.37,0,0,0-.1-.8.84.84,0,0,0-.36-.42,1.15,1.15,0,0,0-.61-.16,1.43,1.43,0,0,0-1,.36,1.76,1.76,0,0,0-.41,1.35v2.83Z"/><path d="M148.25,67.82l.13.78a3.25,3.25,0,0,1-.66.08,1.5,1.5,0,0,1-.74-.15.85.85,0,0,1-.37-.4,3.16,3.16,0,0,1-.11-1v-3h-.64v-.68h.64V62.14l.87-.53v1.81h.88v.68h-.88v3a1.56,1.56,0,0,0,0,.48.37.37,0,0,0,.15.17.58.58,0,0,0,.3.06Z"/><path d="M152.51,68.61v-.76a1.9,1.9,0,0,1-1.65.88,2.1,2.1,0,0,1-.86-.18,1.41,1.41,0,0,1-.59-.44,1.64,1.64,0,0,1-.27-.65,4.43,4.43,0,0,1-.05-.82V63.42H150V66.3a5.1,5.1,0,0,0,.05.93.92.92,0,0,0,.35.54,1.09,1.09,0,0,0,.66.2,1.45,1.45,0,0,0,.74-.2,1.12,1.12,0,0,0,.49-.55,2.75,2.75,0,0,0,.14-1V63.42h.88v5.19Z"/><path d="M158.06,68a3.26,3.26,0,0,1-.94.59,2.73,2.73,0,0,1-1,.17,1.89,1.89,0,0,1-1.31-.42,1.38,1.38,0,0,1-.46-1.07,1.41,1.41,0,0,1,.17-.7A1.44,1.44,0,0,1,155,66a2.14,2.14,0,0,1,.63-.29,6.34,6.34,0,0,1,.78-.13,8,8,0,0,0,1.57-.3c0-.12,0-.2,0-.23a1,1,0,0,0-.25-.76,1.47,1.47,0,0,0-1-.3,1.55,1.55,0,0,0-.92.22,1.33,1.33,0,0,0-.44.77l-.86-.12a2.13,2.13,0,0,1,.39-.89,1.69,1.69,0,0,1,.78-.52,3.46,3.46,0,0,1,1.18-.18,3.12,3.12,0,0,1,1.08.16,1.42,1.42,0,0,1,.61.39,1.38,1.38,0,0,1,.27.6,5,5,0,0,1,0,.81v1.17a12.55,12.55,0,0,0,.06,1.55,2,2,0,0,0,.22.62h-.92A1.88,1.88,0,0,1,158.06,68ZM158,66a6.46,6.46,0,0,1-1.44.33,3.33,3.33,0,0,0-.77.18.76.76,0,0,0-.35.29.78.78,0,0,0,.14,1,1.15,1.15,0,0,0,.78.23,1.81,1.81,0,0,0,.9-.22,1.37,1.37,0,0,0,.58-.61,2.12,2.12,0,0,0,.14-.88Z"/><path d="M160.21,68.61V61.45h.88v7.16Z"/><path d="M162.44,68.61V61.45h.88v7.16Z"/><path d="M164.64,70.61l-.1-.83a2,2,0,0,0,.5.08,1,1,0,0,0,.47-.1.8.8,0,0,0,.29-.27,4.32,4.32,0,0,0,.27-.65l.08-.21-2-5.2h.95l1.08,3q.21.57.38,1.2a11.83,11.83,0,0,1,.36-1.18l1.11-3h.88l-2,5.27a10.4,10.4,0,0,1-.49,1.18,1.74,1.74,0,0,1-.54.64,1.27,1.27,0,0,1-.72.2A1.74,1.74,0,0,1,164.64,70.61Z"/><path d="M172.44,68.61V61.45h.88v7.16Z"/><path d="M178.23,66.94l.91.11a2.22,2.22,0,0,1-.8,1.24,2.39,2.39,0,0,1-1.48.44,2.37,2.37,0,0,1-1.8-.7,2.73,2.73,0,0,1-.67-2,2.87,2.87,0,0,1,.67-2,2.28,2.28,0,0,1,1.75-.72,2.22,2.22,0,0,1,1.7.71,2.81,2.81,0,0,1,.66,2c0,.05,0,.13,0,.23h-3.87a2,2,0,0,0,.48,1.31,1.44,1.44,0,0,0,1.08.45,1.34,1.34,0,0,0,.83-.25A1.69,1.69,0,0,0,178.23,66.94Zm-2.89-1.42h2.9a1.76,1.76,0,0,0-.33-1,1.35,1.35,0,0,0-1.09-.51,1.4,1.4,0,0,0-1,.41A1.61,1.61,0,0,0,175.34,65.52Z"/><path d="M183.62,68a3.26,3.26,0,0,1-.94.59,2.73,2.73,0,0,1-1,.17,1.89,1.89,0,0,1-1.31-.42,1.38,1.38,0,0,1-.46-1.07,1.41,1.41,0,0,1,.17-.7,1.44,1.44,0,0,1,.45-.51,2.14,2.14,0,0,1,.63-.29,6.34,6.34,0,0,1,.78-.13,8,8,0,0,0,1.57-.3c0-.12,0-.2,0-.23a1,1,0,0,0-.25-.76,1.47,1.47,0,0,0-1-.3,1.55,1.55,0,0,0-.92.22A1.33,1.33,0,0,0,181,65l-.86-.12a2.13,2.13,0,0,1,.39-.89,1.69,1.69,0,0,1,.78-.52,3.46,3.46,0,0,1,1.18-.18,3.12,3.12,0,0,1,1.08.16,1.42,1.42,0,0,1,.61.39,1.38,1.38,0,0,1,.27.6,5,5,0,0,1,0,.81v1.17a12.55,12.55,0,0,0,.06,1.55,2,2,0,0,0,.22.62h-.92A1.88,1.88,0,0,1,183.62,68Zm-.07-2a6.46,6.46,0,0,1-1.44.33,3.33,3.33,0,0,0-.77.18.76.76,0,0,0-.35.29.78.78,0,0,0,.14,1,1.15,1.15,0,0,0,.78.23,1.81,1.81,0,0,0,.9-.22,1.37,1.37,0,0,0,.58-.61,2.12,2.12,0,0,0,.14-.88Z"/><path d="M185.81,68.61V61.45h.88v4.08l2.08-2.11h1.14l-2,1.92,2.18,3.26H189L187.3,66l-.62.6v2.06Z"/><path d="M191,68.61v-1h1v1Z"/><path d="M40.24,65.12a1.73,1.73,0,1,1-.51-1.22A1.67,1.67,0,0,1,40.24,65.12Z"/><path d="M47.5,91.61V84.45H50a6,6,0,0,1,1.27.1,2.43,2.43,0,0,1,1,.51,2.91,2.91,0,0,1,.85,1.22,4.8,4.8,0,0,1,.28,1.7,5,5,0,0,1-.19,1.45,3.51,3.51,0,0,1-.49,1,2.62,2.62,0,0,1-.65.65,2.66,2.66,0,0,1-.85.36,4.84,4.84,0,0,1-1.15.12Zm.95-.84H50a3.71,3.71,0,0,0,1.11-.13,1.58,1.58,0,0,0,.64-.37,2.26,2.26,0,0,0,.52-.91A4.43,4.43,0,0,0,52.45,88a3.33,3.33,0,0,0-.37-1.73,1.85,1.85,0,0,0-.9-.81A3.7,3.7,0,0,0,50,85.3h-1.5Z"/><path d="M54.29,89a2.67,2.67,0,0,1,.8-2.13,2.41,2.41,0,0,1,1.63-.58,2.32,2.32,0,0,1,1.75.7,2.66,2.66,0,0,1,.68,1.94,3.43,3.43,0,0,1-.3,1.58,2.13,2.13,0,0,1-.87.89,2.54,2.54,0,0,1-1.25.32A2.33,2.33,0,0,1,55,91,2.79,2.79,0,0,1,54.29,89Zm.9,0a2.21,2.21,0,0,0,.43,1.49,1.45,1.45,0,0,0,2.18,0A2.26,2.26,0,0,0,58.24,89a2.14,2.14,0,0,0-.44-1.46,1.45,1.45,0,0,0-2.18,0A2.2,2.2,0,0,0,55.19,89Z"/><path d="M63,91.61V86.42h.79v.74a1.86,1.86,0,0,1,1.65-.85,2.17,2.17,0,0,1,.86.17,1.36,1.36,0,0,1,.59.44,1.7,1.7,0,0,1,.27.65,5,5,0,0,1,0,.85v3.19h-.88V88.46a2.36,2.36,0,0,0-.1-.8.84.84,0,0,0-.36-.42,1.15,1.15,0,0,0-.61-.16,1.43,1.43,0,0,0-1,.36,1.76,1.76,0,0,0-.41,1.35v2.83Z"/><path d="M68.19,89a2.67,2.67,0,0,1,.8-2.13,2.41,2.41,0,0,1,1.63-.58,2.32,2.32,0,0,1,1.75.7A2.66,2.66,0,0,1,73,88.94a3.43,3.43,0,0,1-.3,1.58,2.13,2.13,0,0,1-.87.89,2.54,2.54,0,0,1-1.25.32,2.33,2.33,0,0,1-1.76-.7A2.79,2.79,0,0,1,68.19,89Zm.9,0a2.21,2.21,0,0,0,.43,1.49,1.45,1.45,0,0,0,2.18,0A2.26,2.26,0,0,0,72.14,89a2.14,2.14,0,0,0-.44-1.46,1.45,1.45,0,0,0-2.18,0A2.2,2.2,0,0,0,69.09,89Z"/><path d="M76,90.82l.13.78a3.22,3.22,0,0,1-.66.08,1.5,1.5,0,0,1-.74-.15.85.85,0,0,1-.37-.4,3.15,3.15,0,0,1-.11-1v-3h-.64v-.68h.64V85.14l.87-.53v1.81H76v.68h-.88v3a1.53,1.53,0,0,0,0,.48.36.36,0,0,0,.15.17.58.58,0,0,0,.3.06Z"/><path d="M79.64,85.46v-1h.88v1Zm0,6.15V86.42h.88v5.19Z"/><path d="M81.86,91.61V86.42h.79v.74a1.86,1.86,0,0,1,1.65-.85,2.17,2.17,0,0,1,.86.17,1.36,1.36,0,0,1,.59.44,1.7,1.7,0,0,1,.27.65,5.08,5.08,0,0,1,0,.85v3.19h-.88V88.46a2.36,2.36,0,0,0-.1-.8.84.84,0,0,0-.36-.42,1.15,1.15,0,0,0-.61-.16,1.43,1.43,0,0,0-1,.36,1.76,1.76,0,0,0-.41,1.35v2.83Z"/><path d="M87.06,90.06l.87-.14a1.22,1.22,0,0,0,.41.8,1.42,1.42,0,0,0,.94.28,1.38,1.38,0,0,0,.9-.25.74.74,0,0,0,.29-.58.53.53,0,0,0-.26-.47,3.84,3.84,0,0,0-.9-.3A8.25,8.25,0,0,1,88,89a1.28,1.28,0,0,1-.76-1.19,1.33,1.33,0,0,1,.16-.64,1.42,1.42,0,0,1,.43-.49,1.81,1.81,0,0,1,.56-.26,2.65,2.65,0,0,1,.76-.11,3,3,0,0,1,1.07.18,1.46,1.46,0,0,1,.68.48,1.86,1.86,0,0,1,.3.8l-.86.12a.94.94,0,0,0-.34-.62,1.25,1.25,0,0,0-.79-.22,1.44,1.44,0,0,0-.86.2.58.58,0,0,0-.26.47.49.49,0,0,0,.11.31.77.77,0,0,0,.34.23l.78.22a10.68,10.68,0,0,1,1.3.41,1.32,1.32,0,0,1,.58.46,1.29,1.29,0,0,1,.21.75,1.47,1.47,0,0,1-.26.83,1.65,1.65,0,0,1-.74.6,2.69,2.69,0,0,1-1.09.21,2.43,2.43,0,0,1-1.54-.42A2,2,0,0,1,87.06,90.06Z"/><path d="M94.34,90.82l.13.78a3.21,3.21,0,0,1-.66.08,1.5,1.5,0,0,1-.74-.15.84.84,0,0,1-.37-.4,3.16,3.16,0,0,1-.11-1v-3h-.64v-.68h.64V85.14l.87-.53v1.81h.88v.68h-.88v3a1.55,1.55,0,0,0,0,.48.36.36,0,0,0,.15.17.58.58,0,0,0,.3.06Z"/><path d="M98.58,91a3.24,3.24,0,0,1-.94.59,2.72,2.72,0,0,1-1,.17,1.89,1.89,0,0,1-1.31-.42,1.38,1.38,0,0,1-.46-1.07,1.41,1.41,0,0,1,.17-.7,1.44,1.44,0,0,1,.45-.51,2.15,2.15,0,0,1,.63-.29,6.54,6.54,0,0,1,.78-.13,8,8,0,0,0,1.57-.3c0-.12,0-.2,0-.23a1,1,0,0,0-.25-.76,1.47,1.47,0,0,0-1-.3,1.55,1.55,0,0,0-.92.22,1.33,1.33,0,0,0-.44.77L95,87.9a2.13,2.13,0,0,1,.39-.89,1.68,1.68,0,0,1,.78-.52,3.46,3.46,0,0,1,1.18-.18,3.13,3.13,0,0,1,1.08.16,1.42,1.42,0,0,1,.61.39,1.38,1.38,0,0,1,.27.6,5,5,0,0,1,0,.81v1.17A12.56,12.56,0,0,0,99.45,91a2,2,0,0,0,.22.62h-.92A1.87,1.87,0,0,1,98.58,91Zm-.07-2a6.4,6.4,0,0,1-1.44.33,3.39,3.39,0,0,0-.77.18.76.76,0,0,0-.35.29.78.78,0,0,0,.14,1,1.15,1.15,0,0,0,.78.23,1.82,1.82,0,0,0,.9-.22,1.37,1.37,0,0,0,.58-.61,2.12,2.12,0,0,0,.14-.88Z"/><path d="M100.74,91.61V84.45h.88v7.16Z"/><path d="M103,91.61V84.45h.88v7.16Z"/><path d="M108.94,91.61l-1.59-5.19h.91l.83,3,.31,1.11.27-1.07.83-3h.9l.78,3,.26,1,.3-1,.89-3h.85l-1.62,5.19h-.91l-.83-3.11-.2-.88-1,4Z"/><path d="M115.2,85.46v-1h.88v1Zm0,6.15V86.42h.88v5.19Z"/><path d="M119.34,90.82l.13.78a3.21,3.21,0,0,1-.66.08,1.5,1.5,0,0,1-.74-.15.84.84,0,0,1-.37-.4,3.16,3.16,0,0,1-.11-1v-3h-.64v-.68h.64V85.14l.87-.53v1.81h.88v.68h-.88v3a1.55,1.55,0,0,0,0,.48.36.36,0,0,0,.15.17.58.58,0,0,0,.3.06Z"/><path d="M120.2,91.61V84.45h.88V87a2,2,0,0,1,1.55-.71,2.09,2.09,0,0,1,1,.23,1.33,1.33,0,0,1,.61.63,2.88,2.88,0,0,1,.18,1.16v3.29h-.88V88.32a1.36,1.36,0,0,0-.29-1,1.06,1.06,0,0,0-.81-.3,1.41,1.41,0,0,0-.73.2,1.14,1.14,0,0,0-.49.55,2.53,2.53,0,0,0-.15,1v2.84Z"/><path d="M125.43,89a2.67,2.67,0,0,1,.8-2.13,2.41,2.41,0,0,1,1.63-.58,2.32,2.32,0,0,1,1.75.7,2.67,2.67,0,0,1,.68,1.94,3.45,3.45,0,0,1-.3,1.58,2.13,2.13,0,0,1-.87.89,2.54,2.54,0,0,1-1.25.32,2.33,2.33,0,0,1-1.76-.7A2.78,2.78,0,0,1,125.43,89Zm.9,0a2.21,2.21,0,0,0,.43,1.49,1.45,1.45,0,0,0,2.18,0,2.26,2.26,0,0,0,.43-1.52,2.14,2.14,0,0,0-.44-1.46,1.45,1.45,0,0,0-2.18,0A2.2,2.2,0,0,0,126.34,89Z"/><path d="M134.72,91.61v-.76a1.9,1.9,0,0,1-1.65.88,2.1,2.1,0,0,1-.86-.18,1.41,1.41,0,0,1-.59-.44,1.65,1.65,0,0,1-.27-.65,4.42,4.42,0,0,1-.05-.82V86.42h.88V89.3a5.09,5.09,0,0,0,.05.93.92.92,0,0,0,.35.54,1.09,1.09,0,0,0,.66.2,1.45,1.45,0,0,0,.74-.2,1.13,1.13,0,0,0,.49-.55,2.76,2.76,0,0,0,.14-1V86.42h.88v5.19Z"/><path d="M138.8,90.82l.13.78a3.21,3.21,0,0,1-.66.08,1.5,1.5,0,0,1-.74-.15.84.84,0,0,1-.37-.4,3.16,3.16,0,0,1-.11-1v-3h-.64v-.68H137V85.14l.87-.53v1.81h.88v.68h-.88v3a1.55,1.55,0,0,0,0,.48.36.36,0,0,0,.15.17.58.58,0,0,0,.3.06Z"/><path d="M145.83,91a3.24,3.24,0,0,1-.94.59,2.72,2.72,0,0,1-1,.17,1.89,1.89,0,0,1-1.31-.42,1.38,1.38,0,0,1-.46-1.07,1.41,1.41,0,0,1,.17-.7,1.44,1.44,0,0,1,.45-.51,2.15,2.15,0,0,1,.63-.29,6.54,6.54,0,0,1,.78-.13,8,8,0,0,0,1.57-.3c0-.12,0-.2,0-.23a1,1,0,0,0-.25-.76,1.47,1.47,0,0,0-1-.3,1.55,1.55,0,0,0-.92.22,1.33,1.33,0,0,0-.44.77l-.86-.12a2.13,2.13,0,0,1,.39-.89,1.68,1.68,0,0,1,.78-.52,3.46,3.46,0,0,1,1.18-.18,3.13,3.13,0,0,1,1.08.16,1.42,1.42,0,0,1,.61.39,1.38,1.38,0,0,1,.27.6,5,5,0,0,1,0,.81v1.17A12.56,12.56,0,0,0,146.7,91a2,2,0,0,0,.22.62H146A1.87,1.87,0,0,1,145.83,91Zm-.07-2a6.4,6.4,0,0,1-1.44.33,3.39,3.39,0,0,0-.77.18.76.76,0,0,0-.35.29.78.78,0,0,0,.14,1,1.15,1.15,0,0,0,.78.23,1.82,1.82,0,0,0,.9-.22,1.37,1.37,0,0,0,.58-.61,2.12,2.12,0,0,0,.14-.88Z"/><path d="M151.37,91.61V91a1.61,1.61,0,0,1-1.45.77,2,2,0,0,1-1.14-.34,2.25,2.25,0,0,1-.81-1,3.32,3.32,0,0,1-.29-1.41,3.68,3.68,0,0,1,.26-1.41,2,2,0,0,1,.78-1,2.07,2.07,0,0,1,1.16-.34,1.73,1.73,0,0,1,.83.2,1.75,1.75,0,0,1,.6.51V84.45h.87v7.16ZM148.59,89a2.25,2.25,0,0,0,.42,1.49,1.27,1.27,0,0,0,1,.49,1.24,1.24,0,0,0,1-.47,2.17,2.17,0,0,0,.4-1.44,2.44,2.44,0,0,0-.41-1.56,1.26,1.26,0,0,0-1-.5,1.22,1.22,0,0,0-1,.48A2.36,2.36,0,0,0,148.59,89Z"/><path d="M157.11,89.94l.91.11a2.21,2.21,0,0,1-.8,1.24,2.7,2.7,0,0,1-3.29-.26,2.74,2.74,0,0,1-.67-2,2.87,2.87,0,0,1,.67-2,2.28,2.28,0,0,1,1.75-.72,2.22,2.22,0,0,1,1.7.71,2.82,2.82,0,0,1,.66,2c0,.05,0,.13,0,.23h-3.87a2,2,0,0,0,.48,1.31,1.44,1.44,0,0,0,1.08.45,1.34,1.34,0,0,0,.83-.25A1.69,1.69,0,0,0,157.11,89.94Zm-2.89-1.42h2.9a1.76,1.76,0,0,0-.33-1A1.35,1.35,0,0,0,155.7,87a1.4,1.4,0,0,0-1,.41A1.61,1.61,0,0,0,154.23,88.52Z"/><path d="M162.43,93.6V91.06a1.57,1.57,0,0,1-.57.48,1.68,1.68,0,0,1-.78.19,2.07,2.07,0,0,1-1.59-.74,2.91,2.91,0,0,1-.67-2,3.45,3.45,0,0,1,.27-1.4,2,2,0,0,1,.79-.94,2.1,2.1,0,0,1,1.13-.32,1.74,1.74,0,0,1,1.51.81v-.69h.79V93.6ZM159.72,89a2.29,2.29,0,0,0,.42,1.5,1.27,1.27,0,0,0,1,.5,1.23,1.23,0,0,0,1-.48,2.19,2.19,0,0,0,.41-1.45,2.42,2.42,0,0,0-.43-1.56,1.27,1.27,0,0,0-1-.52,1.21,1.21,0,0,0-1,.49A2.37,2.37,0,0,0,159.72,89Z"/><path d="M168.09,91.61v-.76a1.9,1.9,0,0,1-1.65.88,2.1,2.1,0,0,1-.86-.18,1.41,1.41,0,0,1-.59-.44,1.65,1.65,0,0,1-.27-.65,4.42,4.42,0,0,1-.05-.82V86.42h.88V89.3a5.09,5.09,0,0,0,.05.93.92.92,0,0,0,.35.54,1.09,1.09,0,0,0,.66.2,1.45,1.45,0,0,0,.74-.2,1.13,1.13,0,0,0,.49-.55,2.76,2.76,0,0,0,.14-1V86.42h.88v5.19Z"/><path d="M173.63,91a3.24,3.24,0,0,1-.94.59,2.72,2.72,0,0,1-1,.17,1.89,1.89,0,0,1-1.31-.42,1.38,1.38,0,0,1-.46-1.07,1.41,1.41,0,0,1,.17-.7,1.44,1.44,0,0,1,.45-.51,2.15,2.15,0,0,1,.63-.29,6.54,6.54,0,0,1,.78-.13,8,8,0,0,0,1.57-.3c0-.12,0-.2,0-.23a1,1,0,0,0-.25-.76,1.47,1.47,0,0,0-1-.3,1.55,1.55,0,0,0-.92.22A1.33,1.33,0,0,0,171,88l-.86-.12a2.13,2.13,0,0,1,.39-.89,1.68,1.68,0,0,1,.78-.52,3.46,3.46,0,0,1,1.18-.18,3.13,3.13,0,0,1,1.08.16,1.42,1.42,0,0,1,.61.39,1.38,1.38,0,0,1,.27.6,5,5,0,0,1,0,.81v1.17A12.56,12.56,0,0,0,174.5,91a2,2,0,0,0,.22.62h-.92A1.87,1.87,0,0,1,173.63,91Zm-.07-2a6.4,6.4,0,0,1-1.44.33,3.39,3.39,0,0,0-.77.18.76.76,0,0,0-.35.29.78.78,0,0,0,.14,1,1.15,1.15,0,0,0,.78.23,1.82,1.82,0,0,0,.9-.22,1.37,1.37,0,0,0,.58-.61,2.12,2.12,0,0,0,.14-.88Z"/><path d="M177.73,90.82l.13.78a3.21,3.21,0,0,1-.66.08,1.5,1.5,0,0,1-.74-.15.84.84,0,0,1-.37-.4,3.16,3.16,0,0,1-.11-1v-3h-.64v-.68H176V85.14l.87-.53v1.81h.88v.68h-.88v3a1.55,1.55,0,0,0,0,.48.36.36,0,0,0,.15.17.58.58,0,0,0,.3.06Z"/><path d="M182.14,89.94l.91.11a2.21,2.21,0,0,1-.8,1.24A2.7,2.7,0,0,1,179,91a2.74,2.74,0,0,1-.67-2,2.87,2.87,0,0,1,.67-2,2.28,2.28,0,0,1,1.75-.72,2.22,2.22,0,0,1,1.7.71,2.82,2.82,0,0,1,.66,2c0,.05,0,.13,0,.23H179.2a2,2,0,0,0,.48,1.31,1.44,1.44,0,0,0,1.08.45,1.34,1.34,0,0,0,.83-.25A1.69,1.69,0,0,0,182.14,89.94Zm-2.89-1.42h2.9a1.76,1.76,0,0,0-.33-1,1.35,1.35,0,0,0-1.09-.51,1.4,1.4,0,0,0-1,.41A1.61,1.61,0,0,0,179.25,88.52Z"/><path d="M190.29,91.61V91a1.61,1.61,0,0,1-1.45.77,2,2,0,0,1-1.14-.34,2.25,2.25,0,0,1-.81-1,3.32,3.32,0,0,1-.29-1.41,3.68,3.68,0,0,1,.26-1.41,2,2,0,0,1,.78-1,2.07,2.07,0,0,1,1.16-.34,1.73,1.73,0,0,1,.83.2,1.75,1.75,0,0,1,.6.51V84.45h.87v7.16ZM187.51,89a2.25,2.25,0,0,0,.42,1.49,1.27,1.27,0,0,0,1,.49,1.24,1.24,0,0,0,1-.47,2.17,2.17,0,0,0,.4-1.44,2.44,2.44,0,0,0-.41-1.56,1.26,1.26,0,0,0-1-.5,1.22,1.22,0,0,0-1,.48A2.36,2.36,0,0,0,187.51,89Z"/><path d="M192.48,91.61V86.42h.79v.79a2.14,2.14,0,0,1,.56-.73,1,1,0,0,1,.56-.18,1.72,1.72,0,0,1,.9.28l-.3.82a1.26,1.26,0,0,0-.64-.19.83.83,0,0,0-.52.17.94.94,0,0,0-.33.48,3.42,3.42,0,0,0-.15,1v2.71Z"/><path d="M199.2,91a3.24,3.24,0,0,1-.94.59,2.72,2.72,0,0,1-1,.17,1.89,1.89,0,0,1-1.31-.42,1.38,1.38,0,0,1-.46-1.07,1.41,1.41,0,0,1,.17-.7,1.44,1.44,0,0,1,.45-.51,2.15,2.15,0,0,1,.63-.29,6.54,6.54,0,0,1,.78-.13,8,8,0,0,0,1.57-.3c0-.12,0-.2,0-.23a1,1,0,0,0-.25-.76,1.47,1.47,0,0,0-1-.3,1.55,1.55,0,0,0-.92.22,1.33,1.33,0,0,0-.44.77l-.86-.12a2.13,2.13,0,0,1,.39-.89,1.68,1.68,0,0,1,.78-.52,3.46,3.46,0,0,1,1.18-.18,3.13,3.13,0,0,1,1.08.16,1.42,1.42,0,0,1,.61.39,1.38,1.38,0,0,1,.27.6,5,5,0,0,1,0,.81v1.17a12.56,12.56,0,0,0,.06,1.55,2,2,0,0,0,.22.62h-.92A1.87,1.87,0,0,1,199.2,91Zm-.07-2a6.4,6.4,0,0,1-1.44.33,3.39,3.39,0,0,0-.77.18.76.76,0,0,0-.35.29.78.78,0,0,0,.14,1,1.15,1.15,0,0,0,.78.23,1.82,1.82,0,0,0,.9-.22,1.37,1.37,0,0,0,.58-.61,2.12,2.12,0,0,0,.14-.88Z"/><path d="M201.39,85.46v-1h.88v1Zm0,6.15V86.42h.88v5.19Z"/><path d="M203.6,91.61V86.42h.79v.74a1.86,1.86,0,0,1,1.65-.85,2.17,2.17,0,0,1,.86.17,1.36,1.36,0,0,1,.59.44,1.7,1.7,0,0,1,.27.65,5.08,5.08,0,0,1,0,.85v3.19h-.88V88.46a2.36,2.36,0,0,0-.1-.8.84.84,0,0,0-.36-.42,1.15,1.15,0,0,0-.61-.16,1.43,1.43,0,0,0-1,.36,1.76,1.76,0,0,0-.41,1.35v2.83Z"/><path d="M212.55,91a3.24,3.24,0,0,1-.94.59,2.72,2.72,0,0,1-1,.17,1.89,1.89,0,0,1-1.31-.42,1.38,1.38,0,0,1-.46-1.07,1.41,1.41,0,0,1,.17-.7,1.44,1.44,0,0,1,.45-.51,2.15,2.15,0,0,1,.63-.29,6.54,6.54,0,0,1,.78-.13,8,8,0,0,0,1.57-.3c0-.12,0-.2,0-.23a1,1,0,0,0-.25-.76,1.47,1.47,0,0,0-1-.3,1.55,1.55,0,0,0-.92.22,1.33,1.33,0,0,0-.44.77L209,87.9a2.13,2.13,0,0,1,.39-.89,1.68,1.68,0,0,1,.78-.52,3.46,3.46,0,0,1,1.18-.18,3.13,3.13,0,0,1,1.08.16,1.42,1.42,0,0,1,.61.39,1.38,1.38,0,0,1,.27.6,5,5,0,0,1,0,.81v1.17a12.56,12.56,0,0,0,.06,1.55,2,2,0,0,0,.22.62h-.92A1.87,1.87,0,0,1,212.55,91Zm-.07-2a6.4,6.4,0,0,1-1.44.33,3.39,3.39,0,0,0-.77.18.76.76,0,0,0-.35.29.78.78,0,0,0,.14,1,1.15,1.15,0,0,0,.78.23,1.82,1.82,0,0,0,.9-.22,1.37,1.37,0,0,0,.58-.61,2.12,2.12,0,0,0,.14-.88Z"/><path d="M214.57,92l.85.13a.81.81,0,0,0,.3.58,1.46,1.46,0,0,0,.89.24,1.57,1.57,0,0,0,.94-.24,1.2,1.2,0,0,0,.45-.68,5.61,5.61,0,0,0,.06-1.13,1.8,1.8,0,0,1-1.44.68,2,2,0,0,1-1.66-.77,3,3,0,0,1-.59-1.85,3.45,3.45,0,0,1,.27-1.37,2.15,2.15,0,0,1,.78-1,2.11,2.11,0,0,1,1.2-.34,1.86,1.86,0,0,1,1.51.74v-.62H219v4.48a4.26,4.26,0,0,1-.25,1.72,1.81,1.81,0,0,1-.78.8,2.71,2.71,0,0,1-1.32.29,2.48,2.48,0,0,1-1.5-.42A1.41,1.41,0,0,1,214.57,92Zm.73-3.12a2.25,2.25,0,0,0,.41,1.49,1.29,1.29,0,0,0,1,.47,1.3,1.3,0,0,0,1-.47,2.18,2.18,0,0,0,.41-1.46,2.13,2.13,0,0,0-.42-1.44,1.31,1.31,0,0,0-1-.48,1.27,1.27,0,0,0-1,.48A2.11,2.11,0,0,0,215.29,88.92Z"/><path d="M223.84,89.94l.91.11a2.21,2.21,0,0,1-.8,1.24,2.7,2.7,0,0,1-3.29-.26,2.74,2.74,0,0,1-.67-2,2.87,2.87,0,0,1,.67-2,2.28,2.28,0,0,1,1.75-.72,2.22,2.22,0,0,1,1.7.71,2.82,2.82,0,0,1,.66,2c0,.05,0,.13,0,.23H220.9a2,2,0,0,0,.48,1.31,1.44,1.44,0,0,0,1.08.45,1.34,1.34,0,0,0,.83-.25A1.69,1.69,0,0,0,223.84,89.94ZM221,88.52h2.9a1.76,1.76,0,0,0-.33-1,1.35,1.35,0,0,0-1.09-.51,1.4,1.4,0,0,0-1,.41A1.61,1.61,0,0,0,221,88.52Z"/><path d="M226.1,91.61v-1h1v1Z"/><path d="M40.24,88.12a1.73,1.73,0,1,1-.51-1.22A1.67,1.67,0,0,1,40.24,88.12Z"/></g><g id="caution_text" data-name="caution text"><path d="M96.12,15.65l3.36,1.07a7.54,7.54,0,0,1-2.57,4.18,8.09,8.09,0,0,1-10.19-1,9,9,0,0,1-2.2-6.39,9.39,9.39,0,0,1,2.21-6.66,7.59,7.59,0,0,1,5.82-2.37,7.15,7.15,0,0,1,5.12,1.86,6.78,6.78,0,0,1,1.76,3.16L96,10.34a3.55,3.55,0,0,0-3.62-2.88,3.91,3.91,0,0,0-3.1,1.37,6.72,6.72,0,0,0-1.19,4.44q0,3.26,1.17,4.64a3.81,3.81,0,0,0,3,1.38,3.47,3.47,0,0,0,2.38-.88A5.11,5.11,0,0,0,96.12,15.65Z" style="fill:#fff"/><path d="M116.65,22h-3.77l-1.5-3.9h-6.87L103.09,22H99.41L106.1,4.78h3.67Zm-6.39-6.8L107.9,8.79l-2.32,6.37Z" style="fill:#fff"/><path d="M117.17,4.78h3.47v9.3a19.3,19.3,0,0,0,.13,2.87,2.78,2.78,0,0,0,1.06,1.69,3.69,3.69,0,0,0,2.29.64,3.5,3.5,0,0,0,2.23-.6,2.38,2.38,0,0,0,.9-1.48,19.33,19.33,0,0,0,.15-2.92V4.78h3.47v9a23.19,23.19,0,0,1-.28,4.37,4.84,4.84,0,0,1-1,2.16,5.24,5.24,0,0,1-2,1.4,8.79,8.79,0,0,1-3.3.52,9.51,9.51,0,0,1-3.73-.57,5.34,5.34,0,0,1-2-1.48,4.73,4.73,0,0,1-1-1.9,20.86,20.86,0,0,1-.34-4.36Z" style="fill:#fff"/><path d="M137.1,22V7.69H132V4.78h13.65V7.69h-5.09V22Z" style="fill:#fff"/><path d="M146.49,22V4.78H150V22Z" style="fill:#fff"/><path d="M151.26,13.48A10.93,10.93,0,0,1,152,9.07a8.09,8.09,0,0,1,1.6-2.36,6.69,6.69,0,0,1,2.22-1.55,9.43,9.43,0,0,1,3.7-.68,8.07,8.07,0,0,1,6.08,2.36,9,9,0,0,1,2.28,6.55,9,9,0,0,1-2.26,6.51,8,8,0,0,1-6,2.35,8.09,8.09,0,0,1-6.09-2.34A8.87,8.87,0,0,1,151.26,13.48Zm3.57-.12a6.44,6.44,0,0,0,1.35,4.42,4.63,4.63,0,0,0,6.83,0,6.57,6.57,0,0,0,1.33-4.48A6.46,6.46,0,0,0,163,8.91a4.8,4.8,0,0,0-6.9,0A6.49,6.49,0,0,0,154.84,13.36Z" style="fill:#fff"/><path d="M169.37,22V4.78h3.38l7,11.47V4.78H183V22h-3.48l-6.93-11.2V22Z" style="fill:#fff"/></g></svg>