<svg id="Layer_1" data-name="Layer 1" xmlns="http://www.w3.org/2000/svg" viewBox="0 0 253 156.14"><title>danger-burn_hzrd_wtr_tmprtr_ovr_125_dgrs_2xbdr</title><path d="M54,84.75c-1.09,2.77-3.22,4.66-5.66,4.66-3.55,0-6.43-4-6.43-8.88s2.88-8.87,6.43-8.87c2.36,0,4.43,1.75,5.54,4.37" style="fill:none;stroke:#231f20"/><path d="M52.57,84.76a4.74,4.74,0,0,1-4,2.9c-2.76,0-5-3.19-5-7.13s2.24-7.13,5-7.13A4.62,4.62,0,0,1,52.42,76" style="fill:none;stroke:#231f20"/><path d="M52.42,76l0,.07" style="fill:none;stroke:#231f20"/><path d="M48.17,84.58c-1.46,0-2.64-1.9-2.64-4.24s1.18-4.24,2.64-4.24" style="fill:none;stroke:#231f20"/><path d="M47.94,76.13l17.36,0C68.65,76,75.5,78.82,72.51,89.7l-6.41,0c-1.31-2.29-1.5-4.85-5.08-4.85l-13-.22" style="fill:none;stroke:#231f20"/><path d="M33.78,90.4l3.11,0a5.84,5.84,0,0,1,2.46-4.87h0l0-2.69c-1.88-1.23-2.27-4-2.27-5.37l-2.7,0a5.68,5.68,0,0,1-2.84,5.24v2.93a6.73,6.73,0,0,1,2.21,4.74Z" style="fill:none;stroke:#231f20"/><path d="M32.82,77.51c0,.63-.31,2.93-1.53,3.54l-3.39,0c1.22-.61,1.54-2.88,1.52-3.51Z" style="fill:none;stroke:#231f20"/><polygon points="26.8 85.68 26.85 82.29 30.24 82.33 30.19 85.71 26.8 85.68" style="fill:none;stroke:#231f20"/><path d="M32,90.54c0-.63-.24-2.93-1.45-3.57l-3.39,0c1.21.64,1.47,2.91,1.44,3.54Z" style="fill:none;stroke:#231f20"/><path d="M35.24,83.68c.11-.38.33-.64.58-.64s.65.53.65,1.18-.29,1.18-.65,1.18-.48-.28-.59-.67" style="fill:none;stroke:#231f20"/><path d="M24.65,89.67a5.93,5.93,0,0,1-3.85,1.46c-3.46,0-6.26-3.12-6.26-7s2.8-7,6.26-7a5.79,5.79,0,0,1,3.39,1.1l3.56.09a7.25,7.25,0,0,0-2.47,5.49c0,2.46.32,4.77,1.67,5.8Z" style="fill:none;stroke:#231f20"/><path d="M73.2,76.59l2.73,0a5.13,5.13,0,0,1,2.17-4.28h0V70c-1.65-1.08-2-3.48-2-4.73l-2.37,0a5,5,0,0,1-2.5,4.61v2.58a5.92,5.92,0,0,1,1.94,4.17Z" style="fill:none;stroke:#231f20"/><path d="M72.36,65.26c0,.55-.27,2.57-1.34,3.11l-3,0c1.07-.54,1.35-2.53,1.33-3.09Z" style="fill:none;stroke:#231f20"/><polygon points="67.07 72.44 67.11 69.46 70.09 69.5 70.05 72.47 67.07 72.44" style="fill:none;stroke:#231f20"/><path d="M71.67,76.72c0-.55-.21-2.58-1.27-3.14l-3,0c1.06.56,1.29,2.56,1.26,3.11Z" style="fill:none;stroke:#231f20"/><path d="M74.48,70.68c.09-.33.29-.56.51-.56s.57.46.57,1-.26,1-.57,1-.43-.24-.52-.59" style="fill:none;stroke:#231f20"/><path d="M58.5,76a6.36,6.36,0,0,1-2.22-4.91c0-3.38,2.47-6.12,5.51-6.12a5.09,5.09,0,0,1,3,1l3.13.08a6.37,6.37,0,0,0-2.17,4.83c0,2.16.28,4.2,1.46,5.1h-2" style="fill:none;stroke:#231f20"/><path d="M61.18,112a1.21,1.21,0,0,0,.36-.18c.58-.41.86-1.28,1.15-.18s-.62-.44-.28.49-.11,2.24.64,1.31-.22-.73.85-.41c.25.07.47.07.46.13-.12.56-.38.82-.23,1.05.62.93.17,1.58.92.59.55-.71,0-1.31.77-.92s1.05-.54,1.05.56-.38.18.23.8.62,1.33.85.34-.41-1.33.35-1.16.58-.64.81.35.3.67.58,1,.64,1,.64,0-.52-1.33.06-1.27.46-.35.87.46,0,.46.41.81,1,.87,1,.41.06.17-.06-.75-.58-1.73.46-1.09c.81.5.46,1.59,1.26,1.34s.16-1.09.15-1.1c-.14-.32-.24-.75-.25-.7-.06.23-.29-.4.64-.17s.39.75.8.75.62-.33.33-1-1.54-.29-.21-.69,1.51-.42,1-.48a14.57,14.57,0,0,0-1.56-.23" style="fill:none;stroke:#231f20"/><path d="M66.11,90.19l-5.22,18.86a1.41,1.41,0,0,0,.42.47" style="fill:none;stroke:#231f20"/><path d="M63.1,118H66a1.59,1.59,0,0,1,1.12.36,1.17,1.17,0,0,1,.39.9,1.13,1.13,0,0,1-.28.77,1.25,1.25,0,0,1-.55.34,1.41,1.41,0,0,1,.8.45,1.24,1.24,0,0,1,.26.8,1.37,1.37,0,0,1-.18.71,1.34,1.34,0,0,1-.5.49,1.68,1.68,0,0,1-.59.17,6.84,6.84,0,0,1-.7.07H63.1Zm1.58,2h.68a.78.78,0,0,0,.51-.13.46.46,0,0,0,.14-.36.43.43,0,0,0-.14-.35.77.77,0,0,0-.5-.12h-.69Zm0,2h.8a.87.87,0,0,0,.57-.14.48.48,0,0,0,.17-.38A.45.45,0,0,0,66,121a.92.92,0,0,0-.57-.14h-.79Z" style="fill:#231f20"/><path d="M71.69,118h1.55v3a2.51,2.51,0,0,1-.14.84,1.81,1.81,0,0,1-.44.7,1.73,1.73,0,0,1-.62.42,3.15,3.15,0,0,1-1.09.17,6.93,6.93,0,0,1-.8-.05,2.1,2.1,0,0,1-.73-.2,1.83,1.83,0,0,1-.54-.44,1.59,1.59,0,0,1-.33-.58,3,3,0,0,1-.14-.85v-3H70V121a.88.88,0,0,0,.23.65.85.85,0,0,0,.64.23.86.86,0,0,0,.63-.23.88.88,0,0,0,.23-.65Z" style="fill:#231f20"/><path d="M74.3,123v-5h2.6a3.75,3.75,0,0,1,1.1.12,1.18,1.18,0,0,1,.62.46,1.42,1.42,0,0,1-.44,2,1.87,1.87,0,0,1-.55.2,1,1,0,0,1,.65.45,2.08,2.08,0,0,1,.22.32l.76,1.46H77.5l-.83-1.54a1.18,1.18,0,0,0-.28-.39A.66.66,0,0,0,76,121h-.14v2Zm1.56-3h.66a2.42,2.42,0,0,0,.41-.07.41.41,0,0,0,.25-.16.46.46,0,0,0,.1-.29.45.45,0,0,0-.15-.37,1,1,0,0,0-.58-.13h-.69Z" style="fill:#231f20"/><path d="M79.78,118h1.45l1.91,2.8V118H84.6v5H83.14l-1.9-2.78V123H79.78Z" style="fill:#231f20"/><line x1="66.79" y1="90.46" x2="62.12" y2="111.17" style="fill:none;stroke:#231f20"/><line x1="67.49" y1="90.61" x2="63.58" y2="112.72" style="fill:none;stroke:#231f20"/><line x1="68.27" y1="90.73" x2="65.72" y2="113.58" style="fill:none;stroke:#231f20"/><line x1="68.99" y1="90.81" x2="67.95" y2="114.17" style="fill:none;stroke:#231f20"/><line x1="70.16" y1="109.3" x2="70.26" y2="114.44" style="fill:none;stroke:#231f20"/><line x1="69.79" y1="90.84" x2="70.12" y2="107.36" style="fill:none;stroke:#231f20"/><line x1="72.11" y1="110.72" x2="72.45" y2="114.86" style="fill:none;stroke:#231f20"/><line x1="70.46" y1="90.52" x2="71.74" y2="106.03" style="fill:none;stroke:#231f20"/><line x1="73.88" y1="111.53" x2="74.18" y2="113.99" style="fill:none;stroke:#231f20"/><line x1="71.25" y1="90.29" x2="73.2" y2="106.14" style="fill:none;stroke:#231f20"/><line x1="75.56" y1="111.54" x2="75.63" y2="111.94" style="fill:none;stroke:#231f20;stroke-width:2px"/><line x1="72.01" y1="89.87" x2="74.67" y2="106.17" style="fill:none;stroke:#231f20"/><rect x="60.33" y="93.08" width="17.34" height="8.93" style="fill:#fff"/><path d="M56.94,93.78h2.34v2.64h2.57V93.78h2.35v7.57H61.84V98.29H59.28v3.06H56.94Z" style="fill:#231f20"/><path d="M65.46,97.58a3.59,3.59,0,0,1,3.91-3.92,4,4,0,0,1,2.91,1,3.83,3.83,0,0,1,1,2.84,4.66,4.66,0,0,1-.45,2.18A3.18,3.18,0,0,1,71.56,101a4.26,4.26,0,0,1-2.11.47,4.83,4.83,0,0,1-2.12-.41A3.18,3.18,0,0,1,66,99.79,4.29,4.29,0,0,1,65.46,97.58Zm2.34,0a2.53,2.53,0,0,0,.43,1.65,1.62,1.62,0,0,0,2.33,0A2.8,2.8,0,0,0,71,97.48a2.34,2.34,0,0,0-.43-1.56,1.48,1.48,0,0,0-1.17-.49,1.43,1.43,0,0,0-1.14.5A2.54,2.54,0,0,0,67.79,97.59Z" style="fill:#231f20"/><path d="M73.75,93.78h7.12v1.87H78.48v5.7H76.14v-5.7H73.75Z" style="fill:#231f20"/><path d="M60.73,108.9a15.75,15.75,0,0,1-1.88-3.22c-1-1.71-2.25-1.77-2.25-.37a3.35,3.35,0,0,0,.34,1.68c.34.7.47,1.31,1.41,3.28l1.23,2.28c0,.44-1.91-.42-5.1-2.74-.56-.41-3-1.41-3.46-.4s1.38,2.11,1.91,2.45c3.57,2.23,5.78,3.56,5.78,3.93,0,.67-.44.5-3.66-.57-3.72-1.24-3.49-1.18-3.93-1.34a3.26,3.26,0,0,0-3,0c-.77.81-.27,1.14.61,1.78a9.08,9.08,0,0,0,3.73,1.81,36.45,36.45,0,0,0,4.26,1.58c1.56.43,3.72,1.44,3,1.49a21.66,21.66,0,0,1-5.49-.12c-1.7-.25-4.26-.65-4.6.37a1.52,1.52,0,0,0,1.07,1.61c1.49.52.62.57,4.9,1s1.07.11,6.64.65,9.87.71,14.5,1.48c2.41.4,2.87-.39,7,2.36,3.37,2.22,11.61,8.7,12.56,9.59" style="fill:none;stroke:#231f20"/><path d="M76.25,113.66c3.27-1.71-1.61-2.66-2.5-3.2s-.68-.21-1.93-.89-1.19-1.62-.47-2.23c.5-.42,1.11-.47,2.55,0a22.93,22.93,0,0,1,3.37.89c1.65.62,1.09.37,2,1.06a29.5,29.5,0,0,1,2.95,3.48,42.78,42.78,0,0,0,5.83,5.7c1.47,1.43,10.65,8.55,10.65,8.55" style="fill:none;stroke:#231f20"/><line x1="55.3" y1="96.78" x2="15.01" y2="108.69" style="fill:none;stroke:#231f20"/><path d="M79.68,98.47" style="fill:none;stroke:#231f20;stroke-width:2px"/><path d="M98,93" style="fill:none;stroke:#231f20;stroke-width:2px"/><line x1="88.52" y1="86.97" x2="73.65" y2="91.36" style="fill:none;stroke:#231f20"/><polyline points="100.76 101.85 85.96 93.08 82.15 94.19" style="fill:none;stroke:#231f20"/><line x1="88.52" y1="86.97" x2="100.35" y2="93.97" style="fill:none;stroke:#231f20"/><line x1="88.94" y1="81.5" x2="88.94" y2="30.18" style="fill:none;stroke:#231f20"/><path d="M54.88,102l-24.39,7.09,0,0a5.31,5.31,0,0,0-3.22,4.85A5.08,5.08,0,0,0,29.47,118l51.09,28.44" style="fill:none;stroke:#231f20"/><path d="M61.31,111.43c-.66-.2-1,.14-.84-.33s.39,0,.44-.89,0-.89-.16-1.22" style="fill:none;stroke:#231f20"/><polyline points="7.88 7.83 102.16 7.83 102.16 31.09 7.88 31.09" style="fill:#231f20"/><path d="M34.69,24C37.93,24,40,22.58,40,18.8,40,15.47,38,14,34.78,14H30.32V24" style="fill:#fff;fill-rule:evenodd"/><polyline points="43.69 24.02 44.1 22.72 47.39 22.72 47.75 24.02 51.03 24.02 47.43 13.98 44.1 13.98 40.5 24.02" style="fill:#fff;fill-rule:evenodd"/><polyline points="58.87 19.48 58.73 17.18 58.73 13.98 61.88 13.98 61.88 24.02 58.78 24.02 55.18 18.53 55.31 20.82 55.31 24.02 52.16 24.02 52.16 13.98 55.27 13.98" style="fill:#fff;fill-rule:evenodd"/><path d="M73.55,24.07H71.43l-.13-1a3.6,3.6,0,0,1-3,1.26c-2.57,0-4.86-1.67-4.86-5.18,0-3.2,2-5.4,5.27-5.4a4.41,4.41,0,0,1,4.73,3.74H70.31a1.61,1.61,0,0,0-1.71-1.26c-1.26,0-1.89,1.13-1.89,2.93,0,1.39.45,2.7,2.12,2.7a1.7,1.7,0,0,0,1.67-1.17H69V18.49h4.5" style="fill:#fff;fill-rule:evenodd"/><polyline points="75.57 24.02 75.57 13.98 83.77 13.98 83.77 16.32 78.86 16.32 78.86 17.77 83 17.77 83 20.11 78.86 20.11 78.86 21.68 83.95 21.68 83.95 24.02" style="fill:#fff;fill-rule:evenodd"/><path d="M89.76,20.51c1.53,0,1.76.45,1.76,1.76A6,6,0,0,0,91.7,24H95v-.32c-.41,0-.36-.45-.36-1.76,0-2-.63-2.3-1.71-2.66a2.36,2.36,0,0,0,1.71-2.48c0-1.94-1.13-2.84-4.46-2.84H85.48V24h3.29V20.51" style="fill:#fff;fill-rule:evenodd"/><polyline points="46.8 20.6 44.73 20.6 45.72 17" style="fill:#231f20;fill-rule:evenodd"/><path d="M88.77,16.32H90.3c.77,0,1.31.32,1.31,1s-.54.95-1.53.95h-1.3" style="fill:#231f20;fill-rule:evenodd"/><path d="M26.85,24.11H16.31c-.68,0-1.26-.5-.58-1.62l5.13-8.83a.71.71,0,0,1,.72-.54.78.78,0,0,1,.76.54l5.09,8.83c.68,1.12.13,1.58-.58,1.62" style="fill:#231f20;fill-rule:evenodd"/><path d="M21.58,15.15c-1.62,0-1.17,2-.27,4.91a.29.29,0,0,0,.27.27h0a.3.3,0,0,0,.31-.27c.9-2.88,1.35-4.91-.31-4.91" style="fill:#231f20;fill-rule:evenodd"/><path d="M21.58,21.46h0a.86.86,0,0,0-.86.86.87.87,0,0,0,.86.9.88.88,0,1,0,0-1.76" style="fill:#231f20;fill-rule:evenodd"/><path d="M21.94,20.11a.34.34,0,0,1-.32.31h0a.31.31,0,0,1-.32-.31c-1-3.29-1.53-5.58.32-5.58s1.35,2.3.36,5.58m-.36,3.56a1,1,0,0,1,0-2h0a1,1,0,0,1,0,2Zm.76-10a.78.78,0,0,0-.76-.54.71.71,0,0,0-.72.54l-5.13,8.83c-.68,1.12-.09,1.58.58,1.62H26.85c.72,0,1.26-.5.58-1.62Z" style="fill:#fff;fill-rule:evenodd"/><path d="M32.84,21.55V16.46h1.94c2.21,0,2.75.72,2.75,2.34,0,2.16-.72,2.75-2.84,2.75" style="fill:#231f20;fill-rule:evenodd"/><line x1="102.05" y1="147.88" x2="102.05" y2="8.09" style="fill:none;stroke:#231f20"/><rect x="0.75" y="0.75" width="251.5" height="154.64" style="fill:none;stroke:#231f20;stroke-width:1.5px"/><rect x="8" y="8.19" width="236.66" height="139.74" style="fill:none;stroke:#231f20"/><path d="M114,17.83h-.82L111.81,13l-1.3,4.79h-.82L108.19,12H109l1.1,4.74,1.3-4.74h.8l1.33,4.74L114.62,12h.83Z" style="fill:#231f20"/><path d="M119.54,17.44v.5a1.9,1.9,0,0,1-.46.07.6.6,0,0,1-.67-.5l0-.11A2.2,2.2,0,0,1,117,18a1.29,1.29,0,0,1-1.22-.6,1.32,1.32,0,0,1-.15-.64,1.11,1.11,0,0,1,.74-1.12,4.59,4.59,0,0,1,1-.22l.3,0q.58-.07.67-.3a.46.46,0,0,0,0-.16v-.18q0-.51-.65-.61l-.29,0q-.82,0-1,.6a1.36,1.36,0,0,0,0,.14h-.67a1.36,1.36,0,0,1,.29-.87,1.79,1.79,0,0,1,1.39-.49q1.41,0,1.56.93a1.41,1.41,0,0,1,0,.22v2.46q0,.33.36.33Zm-1.17-.93v-.75a3.54,3.54,0,0,1-.91.21l-.16,0q-.85.12-1,.55a.68.68,0,0,0,0,.22.6.6,0,0,0,.54.64,1.18,1.18,0,0,0,.29,0,1.43,1.43,0,0,0,1-.38A.74.74,0,0,0,118.38,16.51Z" style="fill:#231f20"/><path d="M121.74,13.64v.54h-.69v2.87q0,.3.18.35l.19,0a1.28,1.28,0,0,0,.32,0V18a3.16,3.16,0,0,1-.54.06q-.71,0-.8-.54a.91.91,0,0,1,0-.13V14.19h-.57v-.54h.57V12.49h.66v1.15Z" style="fill:#231f20"/><path d="M125.93,16h-3.09a1.63,1.63,0,0,0,.22.9,1.12,1.12,0,0,0,1,.54,1.08,1.08,0,0,0,1.1-.84h.67a1.63,1.63,0,0,1-1,1.31A2,2,0,0,1,124,18a1.7,1.7,0,0,1-1.59-.88,2.67,2.67,0,0,1-.31-1.34,2.29,2.29,0,0,1,.75-1.88,1.79,1.79,0,0,1,1.17-.39,1.74,1.74,0,0,1,1.44.66,1.69,1.69,0,0,1,.26.45A4,4,0,0,1,125.93,16Zm-3.07-.54h2.35a.11.11,0,0,0,0,0,1.19,1.19,0,0,0-.47-1,1.1,1.1,0,0,0-.69-.23,1.08,1.08,0,0,0-1,.6A1.66,1.66,0,0,0,122.86,15.42Z" style="fill:#231f20"/><path d="M126.82,13.64h.62v.76a1.72,1.72,0,0,1,.93-.86l.22,0,.26,0v.68a1.56,1.56,0,0,0-.82.18l0,0a1.42,1.42,0,0,0-.47,1.22v2.18h-.67Z" style="fill:#231f20"/><path d="M139.86,13.64v.54h-.69v2.87q0,.3.18.35a.63.63,0,0,0,.19,0,1.28,1.28,0,0,0,.32,0V18a3.16,3.16,0,0,1-.54.06q-.71,0-.8-.54a.84.84,0,0,1,0-.13V14.19h-.57v-.54h.57V12.49h.66v1.15Z" style="fill:#231f20"/><path d="M144,16H141a1.63,1.63,0,0,0,.22.9,1.12,1.12,0,0,0,1,.54,1.08,1.08,0,0,0,1.1-.84H144a1.63,1.63,0,0,1-1,1.31,2,2,0,0,1-.78.14,1.7,1.7,0,0,1-1.59-.88,2.68,2.68,0,0,1-.31-1.34,2.29,2.29,0,0,1,.75-1.88,1.79,1.79,0,0,1,1.17-.39,1.74,1.74,0,0,1,1.44.66,1.71,1.71,0,0,1,.26.45A4,4,0,0,1,144,16ZM141,15.42h2.35a.1.1,0,0,0,0,0,1.19,1.19,0,0,0-.47-1,1.11,1.11,0,0,0-.69-.23,1.07,1.07,0,0,0-1,.6A1.67,1.67,0,0,0,141,15.42Z" style="fill:#231f20"/><path d="M145,13.64h.62v.59a1.54,1.54,0,0,1,1-.7l.26,0a1.18,1.18,0,0,1,1.06.52l.07.12a1.6,1.6,0,0,1,.94-.61,1.78,1.78,0,0,1,.35,0,1.05,1.05,0,0,1,1.18.78,1.75,1.75,0,0,1,0,.38v3.14h-.67V14.95a.73.73,0,0,0-.5-.8.9.9,0,0,0-.27,0,.91.91,0,0,0-.78.43,1.16,1.16,0,0,0-.2.66v2.63h-.67V14.95q0-.7-.57-.82l-.21,0a.91.91,0,0,0-.79.45,1.15,1.15,0,0,0-.19.65v2.63H145Z" style="fill:#231f20"/><path d="M151.53,19.58V13.64h.62v.63a1.49,1.49,0,0,1,1.34-.75,1.59,1.59,0,0,1,1.5.89,2.93,2.93,0,0,1,.3,1.4,2.26,2.26,0,0,1-.71,1.83,1.56,1.56,0,0,1-.73.34,1.89,1.89,0,0,1-.35,0,1.6,1.6,0,0,1-1.29-.62v2.18Zm1.84-5.43a1,1,0,0,0-1,.67,2.2,2.2,0,0,0-.19,1,1.66,1.66,0,0,0,.55,1.42,1,1,0,0,0,.62.21,1.08,1.08,0,0,0,1-.65,2,2,0,0,0,.21-1,1.68,1.68,0,0,0-.57-1.44A1.06,1.06,0,0,0,153.37,14.15Z" style="fill:#231f20"/><path d="M159.65,16h-3.09a1.63,1.63,0,0,0,.22.9,1.12,1.12,0,0,0,1,.54,1.08,1.08,0,0,0,1.1-.84h.67a1.63,1.63,0,0,1-1,1.31,2,2,0,0,1-.78.14,1.7,1.7,0,0,1-1.59-.88,2.67,2.67,0,0,1-.31-1.34,2.29,2.29,0,0,1,.75-1.88,1.79,1.79,0,0,1,1.17-.39,1.73,1.73,0,0,1,1.44.66,1.65,1.65,0,0,1,.26.45A4,4,0,0,1,159.65,16Zm-3.07-.54h2.35a.12.12,0,0,0,0,0,1.19,1.19,0,0,0-.47-1,1.1,1.1,0,0,0-.69-.23,1.07,1.07,0,0,0-1,.6A1.64,1.64,0,0,0,156.58,15.42Z" style="fill:#231f20"/><path d="M160.54,13.64h.62v.76a1.73,1.73,0,0,1,.93-.86l.22,0,.26,0v.68a1.57,1.57,0,0,0-.82.18l0,0a1.42,1.42,0,0,0-.47,1.22v2.18h-.67Z" style="fill:#231f20"/><path d="M166.9,17.44v.5a1.9,1.9,0,0,1-.46.07.6.6,0,0,1-.67-.5l0-.11a2.2,2.2,0,0,1-1.42.62,1.29,1.29,0,0,1-1.22-.6,1.33,1.33,0,0,1-.15-.64,1.11,1.11,0,0,1,.74-1.12,4.59,4.59,0,0,1,1-.22l.3,0c.39,0,.61-.15.67-.3a.47.47,0,0,0,0-.16v-.18q0-.51-.65-.61l-.29,0c-.55,0-.87.2-1,.6,0,0,0,.1,0,.14h-.67a1.36,1.36,0,0,1,.29-.87,1.79,1.79,0,0,1,1.39-.49q1.41,0,1.56.93a1.54,1.54,0,0,1,0,.22v2.46q0,.33.36.33Zm-1.17-.93v-.75a3.53,3.53,0,0,1-.91.21l-.16,0c-.56.08-.89.26-1,.55a.68.68,0,0,0,0,.22.6.6,0,0,0,.54.64,1.18,1.18,0,0,0,.29,0,1.43,1.43,0,0,0,1-.38A.74.74,0,0,0,165.73,16.51Z" style="fill:#231f20"/><path d="M169.1,13.64v.54h-.69v2.87q0,.3.18.35l.19,0a1.28,1.28,0,0,0,.32,0V18a3.18,3.18,0,0,1-.54.06q-.71,0-.8-.54a1,1,0,0,1,0-.13V14.19h-.57v-.54h.57V12.49h.66v1.15Z" style="fill:#231f20"/><path d="M173.14,17.83h-.6v-.58a1.63,1.63,0,0,1-1,.74,1.83,1.83,0,0,1-.36,0,1.25,1.25,0,0,1-1.18-.56,1.12,1.12,0,0,1-.15-.58V13.64h.66v3a.74.74,0,0,0,.47.75,1.09,1.09,0,0,0,1.38-.55,1.83,1.83,0,0,0,.16-.79V13.64h.66Z" style="fill:#231f20"/><path d="M174.29,13.64h.62v.76a1.73,1.73,0,0,1,.93-.86l.22,0,.26,0v.68a1.57,1.57,0,0,0-.82.18l0,0a1.42,1.42,0,0,0-.47,1.22v2.18h-.67Z" style="fill:#231f20"/><path d="M180.42,16h-3.09a1.63,1.63,0,0,0,.22.9,1.12,1.12,0,0,0,1,.54,1.08,1.08,0,0,0,1.1-.84h.67a1.63,1.63,0,0,1-1,1.31,2,2,0,0,1-.78.14,1.7,1.7,0,0,1-1.59-.88,2.66,2.66,0,0,1-.31-1.34,2.29,2.29,0,0,1,.75-1.88,1.79,1.79,0,0,1,1.17-.39,1.74,1.74,0,0,1,1.44.66,1.68,1.68,0,0,1,.26.45A4,4,0,0,1,180.42,16Zm-3.07-.54h2.35a.12.12,0,0,0,0,0,1.18,1.18,0,0,0-.47-1,1.1,1.1,0,0,0-.69-.23,1.08,1.08,0,0,0-1,.6A1.64,1.64,0,0,0,177.34,15.42Z" style="fill:#231f20"/><path d="M194.06,13.52a1.67,1.67,0,0,1,1.67,1A3.05,3.05,0,0,1,196,15.8a2.15,2.15,0,0,1-.82,1.9,1.84,1.84,0,0,1-1.08.31,1.68,1.68,0,0,1-1.63-1,2.91,2.91,0,0,1-.26-1.3,2.17,2.17,0,0,1,.84-2A1.83,1.83,0,0,1,194.06,13.52Zm0,.62a1.06,1.06,0,0,0-1,.74,2.42,2.42,0,0,0-.15.9,1.6,1.6,0,0,0,.62,1.48,1.08,1.08,0,0,0,.58.15,1.06,1.06,0,0,0,1-.7,2.2,2.2,0,0,0,.17-.9,1.6,1.6,0,0,0-.66-1.53A1.14,1.14,0,0,0,194.06,14.14Z" style="fill:#231f20"/><path d="M198.46,17.83h-.73l-1.47-4.19H197l1.12,3.4,1.18-3.4h.75Z" style="fill:#231f20"/><path d="M204.12,16H201a1.63,1.63,0,0,0,.22.9,1.12,1.12,0,0,0,1,.54,1.08,1.08,0,0,0,1.1-.84H204a1.63,1.63,0,0,1-1,1.31,2,2,0,0,1-.78.14,1.7,1.7,0,0,1-1.59-.88,2.68,2.68,0,0,1-.31-1.34,2.29,2.29,0,0,1,.75-1.88,1.79,1.79,0,0,1,1.17-.39,1.74,1.74,0,0,1,1.44.66,1.71,1.71,0,0,1,.26.45A4,4,0,0,1,204.12,16ZM201,15.42h2.35a.1.1,0,0,0,0,0,1.19,1.19,0,0,0-.47-1,1.11,1.11,0,0,0-.69-.23,1.07,1.07,0,0,0-1,.6A1.67,1.67,0,0,0,201,15.42Z" style="fill:#231f20"/><path d="M205,13.64h.62v.76a1.73,1.73,0,0,1,.93-.86l.22,0,.26,0v.68a1.57,1.57,0,0,0-.82.18l0,0a1.42,1.42,0,0,0-.47,1.22v2.18H205Z" style="fill:#231f20"/><path d="M220.32,13.79h-1.26v-.5a2.5,2.5,0,0,0,1.06-.29,1.42,1.42,0,0,0,.41-.74l0-.1H221v5.67h-.71Z" style="fill:#231f20"/><path d="M225,12.16a1.79,1.79,0,0,1,1.48.64l.15.24a1.66,1.66,0,0,1,.18.78,1.94,1.94,0,0,1-1.2,1.71l-.8.43a2.24,2.24,0,0,0-.92.82,1.39,1.39,0,0,0-.1.35h3v.7H223a2.85,2.85,0,0,1,.46-1.56,3.78,3.78,0,0,1,1.14-.9l.74-.42a1.29,1.29,0,0,0,.77-1.12,1,1,0,0,0-.48-.89,1.18,1.18,0,0,0-.64-.18,1.05,1.05,0,0,0-.92.46l-.06.1a2,2,0,0,0-.17.8h-.7a2.41,2.41,0,0,1,.3-1.23A1.73,1.73,0,0,1,225,12.16Z" style="fill:#231f20"/><path d="M231,12.16v.7h-2.36l-.22,1.58a1.74,1.74,0,0,1,1-.34,1.72,1.72,0,0,1,1.47.7,2,2,0,0,1,.36,1.19,2,2,0,0,1-.7,1.61,2.1,2.1,0,0,1-2.66-.11l-.12-.14a2.11,2.11,0,0,1-.34-.9h.7a1.22,1.22,0,0,0,2.27.3,1.61,1.61,0,0,0,.13-.66,1.26,1.26,0,0,0-.61-1.21,1.27,1.27,0,0,0-.63-.15,1.22,1.22,0,0,0-.87.34l-.17.18h-.65l.42-3.09Z" style="fill:#231f20"/><path d="M234,12.35a1.14,1.14,0,0,1,1,.47,1.17,1.17,0,0,1,.26.74,1.15,1.15,0,0,1-.48,1,1.2,1.2,0,0,1-.74.25,1.15,1.15,0,0,1-.95-.47,1.18,1.18,0,0,1-.26-.74,1.15,1.15,0,0,1,.48-1A1.17,1.17,0,0,1,234,12.35Zm0,.46a.76.76,0,0,0-.76.75.73.73,0,0,0,.35.64.76.76,0,0,0,1.16-.64.72.72,0,0,0-.35-.64A.76.76,0,0,0,234,12.8Z" style="fill:#231f20"/><path d="M237.9,15.18v2.66h-.74V12h3.91v.66H237.9v1.86h2.79v.66Z" style="fill:#231f20"/><path d="M109.9,22h.44a7.13,7.13,0,0,0-1.09,3.43q0,.17,0,.33a7.08,7.08,0,0,0,1,3.57l.12.2h-.44a6.41,6.41,0,0,1-1.2-2.72,5.58,5.58,0,0,1-.1-1,6.16,6.16,0,0,1,.74-2.86A5.77,5.77,0,0,1,109.9,22Z" style="fill:#231f20"/><path d="M114.49,22.16v.7h-2.36l-.22,1.58a1.74,1.74,0,0,1,1-.34,1.72,1.72,0,0,1,1.47.7,2.18,2.18,0,0,1-.34,2.8,2.1,2.1,0,0,1-2.66-.11l-.12-.14a2.12,2.12,0,0,1-.34-.9h.7a1.22,1.22,0,0,0,2.27.3,1.62,1.62,0,0,0,.13-.66,1.26,1.26,0,0,0-.61-1.21,1.28,1.28,0,0,0-.63-.15,1.22,1.22,0,0,0-.87.34l-.17.18h-.65l.42-3.09Z" style="fill:#231f20"/><path d="M117.4,22.16a1.78,1.78,0,0,1,1.48.64L119,23a1.66,1.66,0,0,1,.18.78,1.94,1.94,0,0,1-1.2,1.71l-.8.43a2.26,2.26,0,0,0-.92.82,1.43,1.43,0,0,0-.1.35h3v.7H115.4a2.85,2.85,0,0,1,.46-1.56,3.79,3.79,0,0,1,1.14-.9l.74-.42a1.29,1.29,0,0,0,.77-1.12A1,1,0,0,0,118,23a1.18,1.18,0,0,0-.64-.18,1.06,1.06,0,0,0-.92.46l-.06.1a2,2,0,0,0-.17.8h-.7a2.4,2.4,0,0,1,.3-1.23A1.73,1.73,0,0,1,117.4,22.16Z" style="fill:#231f20"/><path d="M122,22.35a1.14,1.14,0,0,1,1,.47,1.17,1.17,0,0,1,.26.74,1.15,1.15,0,0,1-.48,1,1.2,1.2,0,0,1-.74.25,1.15,1.15,0,0,1-.94-.47,1.18,1.18,0,0,1-.26-.74,1.16,1.16,0,0,1,.48-1A1.17,1.17,0,0,1,122,22.35Zm0,.46a.76.76,0,0,0-.76.75.73.73,0,0,0,.35.64.74.74,0,0,0,1-.25.75.75,0,0,0-.24-1A.76.76,0,0,0,122,22.8Z" style="fill:#231f20"/><path d="M129.72,23.81H129a1.59,1.59,0,0,0-.42-.88,1.84,1.84,0,0,0-1.15-.37,1.6,1.6,0,0,0-1.51.92,3.15,3.15,0,0,0-.32,1.5,2.45,2.45,0,0,0,.76,2,1.72,1.72,0,0,0,1.14.39,1.42,1.42,0,0,0,1.28-.62.7.7,0,0,0,.08-.14,3,3,0,0,0,.26-.9h.77a2.24,2.24,0,0,1-2.4,2.31,2.36,2.36,0,0,1-1.78-.68,3.23,3.23,0,0,1-.85-2.35,3.34,3.34,0,0,1,.82-2.35,2.36,2.36,0,0,1,1.85-.73A2.07,2.07,0,0,1,129.72,23.81Z" style="fill:#231f20"/><path d="M130.94,29.53h-.44a7.12,7.12,0,0,0,1.09-3.43c0-.11,0-.22,0-.33a7.08,7.08,0,0,0-1-3.57l-.12-.2h.44a6.43,6.43,0,0,1,1.2,2.72,5.58,5.58,0,0,1,.1,1,6.17,6.17,0,0,1-.74,2.86A5.82,5.82,0,0,1,130.94,29.53Z" style="fill:#231f20"/><path d="M145.53,25h-.67a.92.92,0,0,0-.78-.9l-.21,0a1,1,0,0,0-1,.8,2.7,2.7,0,0,0-.13.87,1.53,1.53,0,0,0,.63,1.46,1.05,1.05,0,0,0,.54.14q.86,0,1-1h.67a1.59,1.59,0,0,1-.92,1.46,1.85,1.85,0,0,1-.79.16,1.65,1.65,0,0,1-1.53-.84,2.67,2.67,0,0,1-.33-1.37,2.33,2.33,0,0,1,.74-1.9,1.71,1.71,0,0,1,1.13-.39,1.63,1.63,0,0,1,1.31.54l.06.08A1.89,1.89,0,0,1,145.53,25Z" style="fill:#231f20"/><path d="M150,27.44v.5a1.91,1.91,0,0,1-.46.07.6.6,0,0,1-.67-.5l0-.11a2.2,2.2,0,0,1-1.42.62,1.29,1.29,0,0,1-1.22-.6,1.33,1.33,0,0,1-.15-.64,1.11,1.11,0,0,1,.74-1.12,4.6,4.6,0,0,1,1-.22l.3,0q.58-.07.67-.3a.45.45,0,0,0,0-.16v-.18q0-.51-.65-.61l-.29,0q-.82,0-1,.6a1.25,1.25,0,0,0,0,.14h-.67a1.36,1.36,0,0,1,.29-.87,1.79,1.79,0,0,1,1.39-.49q1.41,0,1.56.93a1.41,1.41,0,0,1,0,.22v2.46c0,.22.12.33.36.33Zm-1.17-.93v-.75A3.54,3.54,0,0,1,148,26l-.16,0q-.85.12-1,.55a.68.68,0,0,0,0,.22.6.6,0,0,0,.54.64,1.19,1.19,0,0,0,.29,0,1.43,1.43,0,0,0,1-.38A.74.74,0,0,0,148.87,26.51Z" style="fill:#231f20"/><path d="M150.77,23.64h.62v.7a1.59,1.59,0,0,1,1-.79,1.8,1.8,0,0,1,.35,0,1.26,1.26,0,0,1,1.18.56,1.13,1.13,0,0,1,.15.58v3.17h-.66v-2.9a.74.74,0,0,0-.47-.75,1,1,0,0,0-.39-.07,1,1,0,0,0-1,.62,1.77,1.77,0,0,0-.17.8v2.31h-.67Z" style="fill:#231f20"/><path d="M165.1,25h-.67a.92.92,0,0,0-.78-.9l-.22,0a1,1,0,0,0-1,.8,2.67,2.67,0,0,0-.13.87,1.53,1.53,0,0,0,.63,1.46,1.05,1.05,0,0,0,.54.14q.86,0,1-1h.67a1.59,1.59,0,0,1-.92,1.46,1.85,1.85,0,0,1-.79.16,1.65,1.65,0,0,1-1.53-.84,2.67,2.67,0,0,1-.33-1.37,2.33,2.33,0,0,1,.74-1.9,1.71,1.71,0,0,1,1.13-.39,1.63,1.63,0,0,1,1.31.54l.06.08A1.89,1.89,0,0,1,165.1,25Z" style="fill:#231f20"/><path d="M169.61,27.44v.5a1.9,1.9,0,0,1-.46.07.6.6,0,0,1-.67-.5l0-.11A2.2,2.2,0,0,1,167,28a1.29,1.29,0,0,1-1.22-.6,1.32,1.32,0,0,1-.15-.64,1.11,1.11,0,0,1,.74-1.12,4.59,4.59,0,0,1,1-.22l.3,0q.58-.07.67-.3a.45.45,0,0,0,0-.16v-.18q0-.51-.65-.61l-.29,0q-.82,0-1,.6a1.07,1.07,0,0,0,0,.14h-.67a1.37,1.37,0,0,1,.29-.87,1.79,1.79,0,0,1,1.39-.49q1.41,0,1.56.93a1.29,1.29,0,0,1,0,.22v2.46q0,.33.36.33Zm-1.17-.93v-.75a3.54,3.54,0,0,1-.91.21l-.16,0c-.57.08-.89.26-1,.55a.68.68,0,0,0,0,.22.6.6,0,0,0,.54.64,1.19,1.19,0,0,0,.29,0,1.43,1.43,0,0,0,1-.38A.74.74,0,0,0,168.44,26.51Z" style="fill:#231f20"/><path d="M173.63,27.83H173v-.58a1.63,1.63,0,0,1-1,.74,1.82,1.82,0,0,1-.36,0,1.25,1.25,0,0,1-1.18-.56,1.12,1.12,0,0,1-.15-.58V23.64H171v3a.74.74,0,0,0,.47.75,1.09,1.09,0,0,0,1.38-.55A1.82,1.82,0,0,0,173,26V23.64h.66Z" style="fill:#231f20"/><path d="M177.73,24.81H177q0-.67-.84-.67-.66,0-.84.39a.6.6,0,0,0,0,.24q0,.36.53.54l.25.06.64.15q.94.22,1.13.78a1.22,1.22,0,0,1,.06.38,1.17,1.17,0,0,1-.72,1.12,2.24,2.24,0,0,1-1,.21q-1.55,0-1.66-1.3a1.2,1.2,0,0,1,0-.14h.71a1,1,0,0,0,.19.54,1.1,1.1,0,0,0,.83.28,1,1,0,0,0,.9-.38.52.52,0,0,0,.08-.28.54.54,0,0,0-.43-.52l-.22-.06-.62-.15a1.89,1.89,0,0,1-1.2-.64,1.24,1.24,0,0,1,.54-1.65,2,2,0,0,1,.94-.2q1.16,0,1.44.81A1.39,1.39,0,0,1,177.73,24.81Z" style="fill:#231f20"/><path d="M182.33,26h-3.09a1.63,1.63,0,0,0,.22.9,1.12,1.12,0,0,0,1,.54,1.08,1.08,0,0,0,1.1-.84h.67a1.63,1.63,0,0,1-1,1.31,2,2,0,0,1-.78.14,1.7,1.7,0,0,1-1.59-.88,2.67,2.67,0,0,1-.31-1.34,2.29,2.29,0,0,1,.75-1.88,1.79,1.79,0,0,1,1.17-.39,1.73,1.73,0,0,1,1.44.66,1.65,1.65,0,0,1,.26.45A4,4,0,0,1,182.33,26Zm-3.07-.54h2.35a.12.12,0,0,0,0,0,1.19,1.19,0,0,0-.47-1,1.1,1.1,0,0,0-.69-.23,1.07,1.07,0,0,0-1,.6A1.64,1.64,0,0,0,179.26,25.42Z" style="fill:#231f20"/><path d="M192.85,24.81h-.7q0-.67-.84-.67-.66,0-.84.39a.6.6,0,0,0,0,.24q0,.36.53.54l.25.06.64.15q.94.22,1.13.78a1.22,1.22,0,0,1,.06.38,1.17,1.17,0,0,1-.72,1.12,2.23,2.23,0,0,1-1,.21q-1.55,0-1.66-1.3a1,1,0,0,1,0-.14h.7a1,1,0,0,0,.19.54,1.1,1.1,0,0,0,.83.28,1,1,0,0,0,.9-.38.51.51,0,0,0,.08-.28.54.54,0,0,0-.43-.52l-.22-.06L191,26a1.89,1.89,0,0,1-1.2-.64,1.24,1.24,0,0,1,.54-1.65,2,2,0,0,1,.94-.2q1.16,0,1.44.81A1.36,1.36,0,0,1,192.85,24.81Z" style="fill:#231f20"/><path d="M197.45,26h-3.09a1.63,1.63,0,0,0,.22.9,1.12,1.12,0,0,0,1,.54,1.08,1.08,0,0,0,1.1-.84h.67a1.63,1.63,0,0,1-1,1.31,2,2,0,0,1-.78.14,1.7,1.7,0,0,1-1.59-.88,2.67,2.67,0,0,1-.31-1.34,2.29,2.29,0,0,1,.75-1.88,1.79,1.79,0,0,1,1.17-.39,1.73,1.73,0,0,1,1.7,1.1A4,4,0,0,1,197.45,26Zm-3.07-.54h2.35a.1.1,0,0,0,0,0,1.18,1.18,0,0,0-.47-1,1.1,1.1,0,0,0-.69-.23,1.08,1.08,0,0,0-1,.6A1.67,1.67,0,0,0,194.38,25.42Z" style="fill:#231f20"/><path d="M198.34,23.64H199v.76a1.72,1.72,0,0,1,.93-.86l.22,0,.26,0v.68a1.56,1.56,0,0,0-.82.18l0,0a1.42,1.42,0,0,0-.47,1.22v2.18h-.67Z" style="fill:#231f20"/><path d="M203,27.83h-.73l-1.47-4.19h.75l1.12,3.4,1.18-3.4h.75Z" style="fill:#231f20"/><path d="M208.62,26h-3.09a1.63,1.63,0,0,0,.22.9,1.12,1.12,0,0,0,1,.54,1.08,1.08,0,0,0,1.1-.84h.67a1.63,1.63,0,0,1-1,1.31,2,2,0,0,1-.78.14,1.7,1.7,0,0,1-1.59-.88,2.67,2.67,0,0,1-.31-1.34,2.29,2.29,0,0,1,.75-1.88,1.79,1.79,0,0,1,1.17-.39,1.73,1.73,0,0,1,1.7,1.1A4,4,0,0,1,208.62,26Zm-3.07-.54h2.35a.1.1,0,0,0,0,0,1.18,1.18,0,0,0-.47-1,1.1,1.1,0,0,0-.69-.23,1.08,1.08,0,0,0-1,.6A1.67,1.67,0,0,0,205.55,25.42Z" style="fill:#231f20"/><path d="M209.52,23.64h.62v.76a1.73,1.73,0,0,1,.93-.86l.22,0,.26,0v.68a1.56,1.56,0,0,0-.82.18l0,0a1.42,1.42,0,0,0-.47,1.22v2.18h-.67Z" style="fill:#231f20"/><path d="M215.65,26h-3.09a1.63,1.63,0,0,0,.22.9,1.12,1.12,0,0,0,1,.54,1.08,1.08,0,0,0,1.1-.84h.67a1.63,1.63,0,0,1-1,1.31,2,2,0,0,1-.78.14,1.7,1.7,0,0,1-1.59-.88,2.68,2.68,0,0,1-.31-1.34,2.29,2.29,0,0,1,.75-1.88,1.79,1.79,0,0,1,1.17-.39,1.74,1.74,0,0,1,1.44.66,1.71,1.71,0,0,1,.26.45A4,4,0,0,1,215.65,26Zm-3.07-.54h2.35a.1.1,0,0,0,0,0,1.19,1.19,0,0,0-.47-1,1.11,1.11,0,0,0-.69-.23,1.07,1.07,0,0,0-1,.6A1.67,1.67,0,0,0,212.58,25.42Z" style="fill:#231f20"/><path d="M223.1,22h.66v2.21a1.46,1.46,0,0,1,1.3-.69,1.59,1.59,0,0,1,1.5.86,2.77,2.77,0,0,1,.3,1.34,2.36,2.36,0,0,1-.73,1.9A1.63,1.63,0,0,1,225,28a1.5,1.5,0,0,1-1.33-.72v.54h-.6Zm1.83,2.14a1,1,0,0,0-1,.67,2.17,2.17,0,0,0-.19,1,1.66,1.66,0,0,0,.55,1.42,1,1,0,0,0,.62.21,1.08,1.08,0,0,0,1-.63,2,2,0,0,0,.22-1,1.67,1.67,0,0,0-.58-1.44A1.18,1.18,0,0,0,224.93,24.15Z" style="fill:#231f20"/><path d="M231,27.83h-.6v-.58a1.63,1.63,0,0,1-1,.74,1.82,1.82,0,0,1-.36,0,1.25,1.25,0,0,1-1.18-.56,1.12,1.12,0,0,1-.15-.58V23.64h.66v3a.74.74,0,0,0,.47.75,1.09,1.09,0,0,0,1.38-.55,1.82,1.82,0,0,0,.16-.79V23.64H231Z" style="fill:#231f20"/><path d="M232.11,23.64h.62v.76a1.73,1.73,0,0,1,.93-.86l.22,0,.26,0v.68a1.56,1.56,0,0,0-.82.18l0,0a1.42,1.42,0,0,0-.47,1.22v2.18h-.67Z" style="fill:#231f20"/><path d="M234.78,23.64h.62v.7a1.59,1.59,0,0,1,1-.79,1.78,1.78,0,0,1,.35,0,1.26,1.26,0,0,1,1.18.56,1.12,1.12,0,0,1,.15.58v3.17h-.66v-2.9a.74.74,0,0,0-.47-.75,1,1,0,0,0-.39-.07,1,1,0,0,0-1,.62,1.77,1.77,0,0,0-.17.8v2.31h-.67Z" style="fill:#231f20"/><path d="M242.17,24.81h-.7c0-.45-.3-.67-.84-.67s-.72.13-.84.39a.58.58,0,0,0,0,.24q0,.36.53.54l.25.06.64.15q.94.22,1.13.78a1.22,1.22,0,0,1,.05.38,1.17,1.17,0,0,1-.72,1.12,2.24,2.24,0,0,1-1,.21q-1.55,0-1.66-1.3a1.2,1.2,0,0,1,0-.14h.7a1,1,0,0,0,.19.54,1.1,1.1,0,0,0,.83.28,1,1,0,0,0,.9-.38.52.52,0,0,0,.08-.28.54.54,0,0,0-.43-.52l-.22-.06-.62-.15a1.9,1.9,0,0,1-1.2-.64,1.14,1.14,0,0,1-.13-.57,1.13,1.13,0,0,1,.67-1.08,2,2,0,0,1,.94-.2q1.16,0,1.44.81A1.36,1.36,0,0,1,242.17,24.81Z" style="fill:#231f20"/><path d="M109.22,31.6v.84h-.67V31.6Zm0,1.64v4.19h-.66V33.24Z" style="fill:#231f20"/><path d="M110.35,33.24H111v.7a1.59,1.59,0,0,1,1-.79,1.79,1.79,0,0,1,.35,0,1.26,1.26,0,0,1,1.18.56,1.12,1.12,0,0,1,.15.58v3.17H113v-2.9a.74.74,0,0,0-.47-.75,1,1,0,0,0-.39-.07,1,1,0,0,0-1,.62,1.77,1.77,0,0,0-.17.8v2.31h-.67Z" style="fill:#231f20"/><path d="M117.74,34.41H117q0-.67-.84-.67-.66,0-.84.39a.6.6,0,0,0,0,.24q0,.36.53.54l.25.06.64.15q.94.22,1.13.78a1.22,1.22,0,0,1,.06.38,1.17,1.17,0,0,1-.72,1.12,2.24,2.24,0,0,1-1,.21q-1.55,0-1.66-1.3a1.1,1.1,0,0,1,0-.14h.7a1,1,0,0,0,.19.54,1.1,1.1,0,0,0,.83.28,1,1,0,0,0,.9-.38.52.52,0,0,0,.08-.28.54.54,0,0,0-.43-.52l-.22-.06-.62-.15a1.89,1.89,0,0,1-1.2-.64,1.24,1.24,0,0,1,.54-1.65,2,2,0,0,1,.94-.2q1.16,0,1.44.81A1.37,1.37,0,0,1,117.74,34.41Z" style="fill:#231f20"/><path d="M120.25,33.24v.54h-.69v2.87q0,.3.18.35l.19,0a1.28,1.28,0,0,0,.32,0v.56a3.16,3.16,0,0,1-.54.06q-.71,0-.8-.54a.91.91,0,0,1,0-.13V33.79h-.57v-.54h.57V32.09h.66v1.15Z" style="fill:#231f20"/><path d="M124.71,37v.5a1.9,1.9,0,0,1-.46.07.6.6,0,0,1-.67-.5l0-.11a2.2,2.2,0,0,1-1.42.62,1.29,1.29,0,0,1-1.22-.6,1.32,1.32,0,0,1-.15-.64,1.11,1.11,0,0,1,.74-1.12,4.59,4.59,0,0,1,1-.22l.3,0q.58-.07.67-.3a.46.46,0,0,0,0-.16v-.18q0-.51-.65-.61l-.29,0q-.82,0-1,.6a1.36,1.36,0,0,0,0,.14H121a1.36,1.36,0,0,1,.29-.87,1.79,1.79,0,0,1,1.39-.49q1.41,0,1.56.93a1.41,1.41,0,0,1,0,.22v2.46q0,.33.36.33Zm-1.17-.93v-.75a3.54,3.54,0,0,1-.91.21l-.16,0q-.85.12-1,.55a.68.68,0,0,0,0,.22A.6.6,0,0,0,122,37a1.18,1.18,0,0,0,.29,0,1.43,1.43,0,0,0,1-.38A.74.74,0,0,0,123.54,36.11Z" style="fill:#231f20"/><path d="M125.44,33.24h.62v.7a1.59,1.59,0,0,1,1-.79,1.78,1.78,0,0,1,.35,0,1.26,1.26,0,0,1,1.18.56,1.12,1.12,0,0,1,.15.58v3.17h-.66v-2.9a.74.74,0,0,0-.47-.75,1,1,0,0,0-.39-.07,1,1,0,0,0-1,.62,1.77,1.77,0,0,0-.17.8v2.31h-.67Z" style="fill:#231f20"/><path d="M131.36,33.24v.54h-.69v2.87q0,.3.18.35a.63.63,0,0,0,.19,0,1.28,1.28,0,0,0,.32,0v.56a3.16,3.16,0,0,1-.54.06q-.71,0-.8-.54a.84.84,0,0,1,0-.13V33.79h-.57v-.54H130V32.09h.66v1.15Z" style="fill:#231f20"/><path d="M132.77,31.6v5.83h-.67V31.6Z" style="fill:#231f20"/><path d="M136.39,33.24h.72l-1.86,5.07a1.45,1.45,0,0,1-.46.66,1,1,0,0,1-.62.2,1,1,0,0,1-.45-.1v-.6a1.72,1.72,0,0,0,.35,0,.51.51,0,0,0,.5-.32l0-.09.26-.66-1.42-4.21h.71l1.07,3.26Z" style="fill:#231f20"/><path d="M140.06,33.24h.62V34a1.72,1.72,0,0,1,.93-.86l.22,0,.26,0v.68a1.56,1.56,0,0,0-.82.18l0,0a1.42,1.42,0,0,0-.47,1.22v2.18h-.67Z" style="fill:#231f20"/><path d="M146.19,35.56H143.1a1.63,1.63,0,0,0,.22.9,1.12,1.12,0,0,0,1,.54,1.08,1.08,0,0,0,1.1-.84h.67a1.63,1.63,0,0,1-1,1.31,2,2,0,0,1-.78.14,1.7,1.7,0,0,1-1.59-.88,2.68,2.68,0,0,1-.31-1.34,2.29,2.29,0,0,1,.75-1.88,1.79,1.79,0,0,1,1.17-.39,1.74,1.74,0,0,1,1.44.66,1.71,1.71,0,0,1,.26.45A4,4,0,0,1,146.19,35.56ZM143.12,35h2.35a.1.1,0,0,0,0,0,1.19,1.19,0,0,0-.47-1,1.11,1.11,0,0,0-.69-.23,1.07,1.07,0,0,0-1,.6A1.67,1.67,0,0,0,143.12,35Z" style="fill:#231f20"/><path d="M150,34.41h-.7q0-.67-.84-.67-.66,0-.84.39a.6.6,0,0,0,0,.24q0,.36.53.54l.25.06.64.15q.94.22,1.13.78a1.22,1.22,0,0,1,.06.38,1.17,1.17,0,0,1-.72,1.12,2.24,2.24,0,0,1-1,.21q-1.55,0-1.66-1.3a1.2,1.2,0,0,1,0-.14h.71a1,1,0,0,0,.19.54,1.1,1.1,0,0,0,.83.28,1,1,0,0,0,.9-.38.52.52,0,0,0,.08-.28.54.54,0,0,0-.43-.52l-.22-.06-.62-.15A1.89,1.89,0,0,1,147,35a1.24,1.24,0,0,1,.54-1.65,2,2,0,0,1,.94-.2q1.16,0,1.44.81A1.39,1.39,0,0,1,150,34.41Z" style="fill:#231f20"/><path d="M154.39,37.43h-.6v-.58a1.63,1.63,0,0,1-1,.74,1.83,1.83,0,0,1-.36,0,1.25,1.25,0,0,1-1.18-.56,1.12,1.12,0,0,1-.15-.58V33.24h.66v3a.74.74,0,0,0,.47.75,1.09,1.09,0,0,0,1.38-.55,1.83,1.83,0,0,0,.16-.79V33.24h.66Z" style="fill:#231f20"/><path d="M156.2,31.6v5.83h-.67V31.6Z" style="fill:#231f20"/><path d="M158.79,33.24v.54h-.69v2.87q0,.3.18.35a.63.63,0,0,0,.19,0,1.28,1.28,0,0,0,.32,0v.56a3.14,3.14,0,0,1-.54.06q-.71,0-.8-.54a.84.84,0,0,1,0-.13V33.79h-.57v-.54h.57V32.09h.66v1.15Z" style="fill:#231f20"/><path d="M160.18,31.6v.84h-.67V31.6Zm0,1.64v4.19h-.66V33.24Z" style="fill:#231f20"/><path d="M161.32,33.24h.62v.7a1.59,1.59,0,0,1,1-.79,1.79,1.79,0,0,1,.35,0,1.26,1.26,0,0,1,1.18.56,1.13,1.13,0,0,1,.15.58v3.17H164v-2.9a.73.73,0,0,0-.47-.75,1,1,0,0,0-.39-.07,1,1,0,0,0-1,.62,1.78,1.78,0,0,0-.17.8v2.31h-.67Z" style="fill:#231f20"/><path d="M168.5,33.24h.62v3.5a3.4,3.4,0,0,1-.33,1.74l-.11.15a1.64,1.64,0,0,1-1.26.53h-.18a1.58,1.58,0,0,1-1.5-.7,1.45,1.45,0,0,1-.17-.56h.68a.73.73,0,0,0,.26.48,1.2,1.2,0,0,0,.76.22,1.06,1.06,0,0,0,.93-.39,2,2,0,0,0,.24-1.14v-.22a1.6,1.6,0,0,1-1.06.74l-.22,0a1.54,1.54,0,0,1-1.15-.51l0,0a2.45,2.45,0,0,1-.53-1.65,2.41,2.41,0,0,1,.68-1.86,1.55,1.55,0,0,1,1.1-.43,1.49,1.49,0,0,1,1.28.73Zm-1.21.5a1,1,0,0,0-1,.72,2.37,2.37,0,0,0-.16.91,1.6,1.6,0,0,0,.62,1.49,1.05,1.05,0,0,0,1.54-.59,2.4,2.4,0,0,0,.14-.87q0-1.2-.66-1.54A1,1,0,0,0,167.3,33.74Z" style="fill:#231f20"/><path d="M175.3,31.6v.84h-.67V31.6Zm0,1.64v4.19h-.66V33.24Z" style="fill:#231f20"/><path d="M176.44,33.24h.62v.7a1.59,1.59,0,0,1,1-.79,1.78,1.78,0,0,1,.35,0,1.26,1.26,0,0,1,1.18.56,1.12,1.12,0,0,1,.15.58v3.17h-.66v-2.9a.74.74,0,0,0-.47-.75,1,1,0,0,0-.39-.07,1,1,0,0,0-1,.62,1.77,1.77,0,0,0-.17.8v2.31h-.67Z" style="fill:#231f20"/><path d="M186.06,34.41h-.7q0-.67-.84-.67-.66,0-.84.39a.6.6,0,0,0,0,.24q0,.36.53.54l.25.06.64.15q.94.22,1.13.78a1.22,1.22,0,0,1,.06.38,1.17,1.17,0,0,1-.72,1.12,2.24,2.24,0,0,1-1,.21q-1.55,0-1.66-1.3a1.2,1.2,0,0,1,0-.14h.71a1,1,0,0,0,.19.54,1.1,1.1,0,0,0,.83.28,1,1,0,0,0,.9-.38.52.52,0,0,0,.08-.28.54.54,0,0,0-.43-.52l-.22-.06-.62-.15a1.89,1.89,0,0,1-1.2-.64,1.24,1.24,0,0,1,.54-1.65,2,2,0,0,1,.94-.2q1.16,0,1.44.81A1.39,1.39,0,0,1,186.06,34.41Z" style="fill:#231f20"/><path d="M190.66,35.56h-3.09a1.63,1.63,0,0,0,.22.9,1.12,1.12,0,0,0,1,.54,1.08,1.08,0,0,0,1.1-.84h.67a1.63,1.63,0,0,1-1,1.31,2,2,0,0,1-.78.14,1.7,1.7,0,0,1-1.59-.88,2.67,2.67,0,0,1-.31-1.34,2.29,2.29,0,0,1,.75-1.88,1.79,1.79,0,0,1,1.17-.39,1.73,1.73,0,0,1,1.44.66,1.65,1.65,0,0,1,.26.45A4,4,0,0,1,190.66,35.56ZM187.58,35h2.35a.12.12,0,0,0,0,0,1.19,1.19,0,0,0-.47-1,1.1,1.1,0,0,0-.69-.23,1.07,1.07,0,0,0-1,.6A1.64,1.64,0,0,0,187.58,35Z" style="fill:#231f20"/><path d="M193.16,37.43h-.73L191,33.24h.75l1.12,3.4,1.18-3.4h.75Z" style="fill:#231f20"/><path d="M198.82,35.56h-3.09a1.63,1.63,0,0,0,.22.9,1.12,1.12,0,0,0,1,.54,1.08,1.08,0,0,0,1.1-.84h.67a1.63,1.63,0,0,1-1,1.31,2,2,0,0,1-.78.14,1.7,1.7,0,0,1-1.59-.88,2.67,2.67,0,0,1-.31-1.34,2.29,2.29,0,0,1,.75-1.88,1.79,1.79,0,0,1,1.17-.39,1.73,1.73,0,0,1,1.44.66,1.65,1.65,0,0,1,.26.45A4,4,0,0,1,198.82,35.56ZM195.74,35h2.35a.12.12,0,0,0,0,0,1.19,1.19,0,0,0-.47-1,1.1,1.1,0,0,0-.69-.23,1.07,1.07,0,0,0-1,.6A1.64,1.64,0,0,0,195.74,35Z" style="fill:#231f20"/><path d="M199.71,33.24h.62V34a1.73,1.73,0,0,1,.93-.86l.22,0,.26,0v.68a1.57,1.57,0,0,0-.82.18l0,0a1.42,1.42,0,0,0-.47,1.22v2.18h-.67Z" style="fill:#231f20"/><path d="M205.84,35.56h-3.09a1.63,1.63,0,0,0,.22.9,1.12,1.12,0,0,0,1,.54,1.08,1.08,0,0,0,1.1-.84h.67a1.63,1.63,0,0,1-1,1.31,2,2,0,0,1-.78.14,1.7,1.7,0,0,1-1.59-.88,2.66,2.66,0,0,1-.31-1.34,2.29,2.29,0,0,1,.75-1.88,1.79,1.79,0,0,1,1.17-.39,1.74,1.74,0,0,1,1.44.66,1.68,1.68,0,0,1,.26.45A4,4,0,0,1,205.84,35.56ZM202.77,35h2.35a.12.12,0,0,0,0,0,1.18,1.18,0,0,0-.47-1,1.1,1.1,0,0,0-.69-.23,1.08,1.08,0,0,0-1,.6A1.64,1.64,0,0,0,202.77,35Z" style="fill:#231f20"/><path d="M211.83,31.6v.84h-.67V31.6Zm0,1.64v4.19h-.66V33.24Z" style="fill:#231f20"/><path d="M213,33.24h.62v.7a1.59,1.59,0,0,1,1-.79,1.78,1.78,0,0,1,.35,0,1.26,1.26,0,0,1,1.18.56,1.12,1.12,0,0,1,.15.58v3.17h-.66v-2.9a.74.74,0,0,0-.47-.75,1,1,0,0,0-.39-.07,1,1,0,0,0-1,.62,1.78,1.78,0,0,0-.17.8v2.31H213Z" style="fill:#231f20"/><path d="M217.42,33.24h.66v5.06q0,.82-1,.87h-.12l-.22,0v-.57h.16q.42,0,.5-.26a.91.91,0,0,0,0-.3Zm.66-1.64v.84h-.66V31.6Z" style="fill:#231f20"/><path d="M222.49,37.43h-.6v-.58a1.63,1.63,0,0,1-1,.74,1.82,1.82,0,0,1-.36,0,1.25,1.25,0,0,1-1.18-.56,1.12,1.12,0,0,1-.15-.58V33.24h.66v3a.74.74,0,0,0,.47.75,1.09,1.09,0,0,0,1.38-.55,1.82,1.82,0,0,0,.16-.79V33.24h.66Z" style="fill:#231f20"/><path d="M223.63,33.24h.62V34a1.73,1.73,0,0,1,.93-.86l.22,0,.26,0v.68a1.57,1.57,0,0,0-.82.18l0,0a1.42,1.42,0,0,0-.47,1.22v2.18h-.67Z" style="fill:#231f20"/><path d="M229,33.24h.72l-1.86,5.07a1.45,1.45,0,0,1-.46.66,1,1,0,0,1-.62.2,1,1,0,0,1-.45-.1v-.6a1.7,1.7,0,0,0,.35,0,.51.51,0,0,0,.5-.32l0-.09.26-.66-1.42-4.21h.71l1.07,3.26Z" style="fill:#231f20"/><path d="M234.33,33.12a1.67,1.67,0,0,1,1.67,1,3.05,3.05,0,0,1,.23,1.25,2.15,2.15,0,0,1-.82,1.9,1.84,1.84,0,0,1-1.08.31,1.68,1.68,0,0,1-1.63-1,2.91,2.91,0,0,1-.26-1.3,2.17,2.17,0,0,1,.84-2A1.83,1.83,0,0,1,234.33,33.12Zm0,.62a1.07,1.07,0,0,0-1,.74,2.42,2.42,0,0,0-.15.9,1.6,1.6,0,0,0,.62,1.48,1.08,1.08,0,0,0,.58.15,1.06,1.06,0,0,0,1-.7,2.22,2.22,0,0,0,.17-.9,1.6,1.6,0,0,0-.66-1.53A1.14,1.14,0,0,0,234.34,33.74Z" style="fill:#231f20"/><path d="M237.16,33.24h.62V34a1.72,1.72,0,0,1,.93-.86l.21,0,.26,0v.68a1.56,1.56,0,0,0-.82.18l0,0a1.42,1.42,0,0,0-.47,1.22v2.18h-.67Z" style="fill:#231f20"/><path d="M112,41.2V47h-.59v-.55a1.56,1.56,0,0,1-1.15.73H110a1.61,1.61,0,0,1-1.52-.9,2.91,2.91,0,0,1-.3-1.39,2.26,2.26,0,0,1,.71-1.83,1.66,1.66,0,0,1,1.09-.38,1.43,1.43,0,0,1,1.29.65V41.2Zm-1.84,2.14a1.07,1.07,0,0,0-1,.66,1.92,1.92,0,0,0-.2.71c0,.08,0,.17,0,.26a1.67,1.67,0,0,0,.56,1.41,1.08,1.08,0,0,0,.66.22,1,1,0,0,0,1-.66,2.18,2.18,0,0,0,.19-1,1.67,1.67,0,0,0-.58-1.46A1,1,0,0,0,110.14,43.35Z" style="fill:#231f20"/><path d="M116.57,45.16h-3.09a1.63,1.63,0,0,0,.22.9,1.12,1.12,0,0,0,1,.54,1.08,1.08,0,0,0,1.1-.84h.67a1.63,1.63,0,0,1-1,1.31,2,2,0,0,1-.78.14,1.7,1.7,0,0,1-1.59-.88,2.67,2.67,0,0,1-.31-1.34,2.29,2.29,0,0,1,.75-1.88,1.79,1.79,0,0,1,1.17-.39,1.74,1.74,0,0,1,1.44.66,1.69,1.69,0,0,1,.26.45A4,4,0,0,1,116.57,45.16Zm-3.07-.54h2.35a.11.11,0,0,0,0,0,1.19,1.19,0,0,0-.47-1,1.1,1.1,0,0,0-.69-.23,1.08,1.08,0,0,0-1,.6A1.66,1.66,0,0,0,113.5,44.62Z" style="fill:#231f20"/><path d="M121.19,46.64v.5a1.9,1.9,0,0,1-.46.07.6.6,0,0,1-.67-.5l0-.11a2.2,2.2,0,0,1-1.42.62,1.29,1.29,0,0,1-1.22-.6,1.32,1.32,0,0,1-.15-.64,1.11,1.11,0,0,1,.74-1.12,4.59,4.59,0,0,1,1-.22l.3,0q.58-.07.67-.3a.46.46,0,0,0,0-.16V44q0-.51-.65-.61l-.29,0q-.82,0-1,.6a1.36,1.36,0,0,0,0,.14h-.67a1.36,1.36,0,0,1,.29-.87,1.79,1.79,0,0,1,1.39-.49q1.41,0,1.56.93a1.41,1.41,0,0,1,0,.22v2.46q0,.33.36.33ZM120,45.71V45a3.54,3.54,0,0,1-.91.21l-.16,0q-.85.12-1,.55a.68.68,0,0,0,0,.22.6.6,0,0,0,.54.64,1.18,1.18,0,0,0,.29,0,1.43,1.43,0,0,0,1-.38A.74.74,0,0,0,120,45.71Z" style="fill:#231f20"/><path d="M123.39,42.84v.54h-.69v2.87q0,.3.18.35l.19,0a1.28,1.28,0,0,0,.32,0v.56a3.16,3.16,0,0,1-.54.06q-.71,0-.8-.54a.91.91,0,0,1,0-.13V43.39h-.57v-.54H122V41.69h.66v1.15Z" style="fill:#231f20"/><path d="M124.12,41.2h.66v2.22a1.63,1.63,0,0,1,1-.66,2,2,0,0,1,.38,0,1.22,1.22,0,0,1,1.19.59,1.15,1.15,0,0,1,.13.55V47h-.66v-2.9a.72.72,0,0,0-.27-.63,1,1,0,0,0-.59-.19,1,1,0,0,0-1,.62,1.77,1.77,0,0,0-.17.8V47h-.66Z" style="fill:#231f20"/><path d="M129.54,46.2V47h-.83V46.2Z" style="fill:#231f20"/><path d="M112.31,55.14h-.76a1.59,1.59,0,0,0-.42-.88A1.83,1.83,0,0,0,110,53.9a1.6,1.6,0,0,0-1.51.92,3.15,3.15,0,0,0-.32,1.5,2.45,2.45,0,0,0,.76,2,1.72,1.72,0,0,0,1.14.39,1.43,1.43,0,0,0,1.28-.62.69.69,0,0,0,.08-.14,2.94,2.94,0,0,0,.26-.9h.77a2.24,2.24,0,0,1-2.4,2.31,2.36,2.36,0,0,1-1.78-.68,3.23,3.23,0,0,1-.85-2.35,3.34,3.34,0,0,1,.82-2.35,2.36,2.36,0,0,1,1.85-.73A2.07,2.07,0,0,1,112.31,55.14Z" style="fill:#231f20"/><path d="M113.35,53.33H114v2.22a1.63,1.63,0,0,1,1-.66,2,2,0,0,1,.38,0,1.22,1.22,0,0,1,1.19.59,1.16,1.16,0,0,1,.13.55v3.17H116v-2.9a.72.72,0,0,0-.27-.63,1,1,0,0,0-.59-.19,1,1,0,0,0-1,.62,1.77,1.77,0,0,0-.17.8v2.31h-.66Z" style="fill:#231f20"/><path d="M118.44,53.33v.84h-.67v-.84Zm0,1.64v4.19h-.66V55Z" style="fill:#231f20"/><path d="M120.23,53.33v5.83h-.67V53.33Z" style="fill:#231f20"/><path d="M124.75,53.33v5.83h-.59v-.55a1.56,1.56,0,0,1-1.15.73h-.18a1.61,1.61,0,0,1-1.52-.9,2.91,2.91,0,0,1-.3-1.39,2.26,2.26,0,0,1,.71-1.83,1.66,1.66,0,0,1,1.09-.38,1.43,1.43,0,0,1,1.29.65V53.33Zm-1.84,2.14a1.07,1.07,0,0,0-1,.66,1.92,1.92,0,0,0-.2.71c0,.08,0,.17,0,.26a1.67,1.67,0,0,0,.56,1.41,1.08,1.08,0,0,0,.66.22,1,1,0,0,0,1-.66,2.18,2.18,0,0,0,.19-1,1.67,1.67,0,0,0-.58-1.46A1,1,0,0,0,122.91,55.48Z" style="fill:#231f20"/><path d="M125.79,55h.62v.76a1.73,1.73,0,0,1,.93-.86l.22,0,.26,0v.68a1.56,1.56,0,0,0-.82.18l0,0a1.42,1.42,0,0,0-.47,1.22v2.18h-.67Z" style="fill:#231f20"/><path d="M131.92,57.29h-3.09a1.63,1.63,0,0,0,.22.9,1.12,1.12,0,0,0,1,.54,1.08,1.08,0,0,0,1.1-.84h.67a1.63,1.63,0,0,1-1,1.31,2,2,0,0,1-.78.14,1.7,1.7,0,0,1-1.59-.88,2.67,2.67,0,0,1-.31-1.34,2.29,2.29,0,0,1,.75-1.88,1.79,1.79,0,0,1,1.17-.39,1.73,1.73,0,0,1,1.44.66,1.65,1.65,0,0,1,.26.45A4,4,0,0,1,131.92,57.29Zm-3.07-.54h2.35a.12.12,0,0,0,0,0,1.19,1.19,0,0,0-.47-1,1.1,1.1,0,0,0-.69-.23,1.07,1.07,0,0,0-1,.6A1.64,1.64,0,0,0,128.85,56.75Z" style="fill:#231f20"/><path d="M132.82,55h.62v.7a1.59,1.59,0,0,1,1-.79,1.78,1.78,0,0,1,.35,0,1.26,1.26,0,0,1,1.18.56,1.12,1.12,0,0,1,.15.58v3.17h-.66v-2.9a.74.74,0,0,0-.47-.75,1,1,0,0,0-.39-.07,1,1,0,0,0-1,.62,1.78,1.78,0,0,0-.17.8v2.31h-.67Z" style="fill:#231f20"/><path d="M137.41,58.33h.84v1q0,1-.84,1V60a.41.41,0,0,0,.42-.26,1.43,1.43,0,0,0,.06-.46v-.14h-.48Z" style="fill:#231f20"/><path d="M152.09,55v.54h-.69v2.87q0,.3.18.35a.63.63,0,0,0,.19,0,1.28,1.28,0,0,0,.32,0v.56a3.14,3.14,0,0,1-.54.06q-.71,0-.8-.54a.84.84,0,0,1,0-.13V55.52h-.57V55h.57V53.82h.66V55Z" style="fill:#231f20"/><path d="M152.82,53.33h.66v2.22a1.63,1.63,0,0,1,1-.66,2,2,0,0,1,.38,0,1.22,1.22,0,0,1,1.19.59,1.15,1.15,0,0,1,.13.55v3.17h-.66v-2.9a.72.72,0,0,0-.27-.63,1,1,0,0,0-.59-.19,1,1,0,0,0-1,.62,1.77,1.77,0,0,0-.17.8v2.31h-.66Z" style="fill:#231f20"/><path d="M160.81,57.29h-3.09a1.63,1.63,0,0,0,.22.9,1.12,1.12,0,0,0,1,.54,1.08,1.08,0,0,0,1.1-.84h.67a1.63,1.63,0,0,1-1,1.31,2,2,0,0,1-.78.14,1.7,1.7,0,0,1-1.59-.88,2.67,2.67,0,0,1-.31-1.34,2.29,2.29,0,0,1,.75-1.88,1.79,1.79,0,0,1,1.17-.39,1.73,1.73,0,0,1,1.7,1.1A4,4,0,0,1,160.81,57.29Zm-3.07-.54h2.35a.1.1,0,0,0,0,0,1.18,1.18,0,0,0-.47-1,1.1,1.1,0,0,0-.69-.23,1.08,1.08,0,0,0-1,.6A1.67,1.67,0,0,0,157.74,56.75Z" style="fill:#231f20"/><path d="M174.15,57.29h-3.09a1.63,1.63,0,0,0,.22.9,1.12,1.12,0,0,0,1,.54,1.08,1.08,0,0,0,1.1-.84h.67a1.63,1.63,0,0,1-1,1.31,2,2,0,0,1-.78.14,1.7,1.7,0,0,1-1.59-.88,2.68,2.68,0,0,1-.31-1.34,2.29,2.29,0,0,1,.75-1.88,1.79,1.79,0,0,1,1.17-.39,1.74,1.74,0,0,1,1.44.66A1.71,1.71,0,0,1,174,56,4,4,0,0,1,174.15,57.29Zm-3.07-.54h2.35a.1.1,0,0,0,0,0,1.19,1.19,0,0,0-.47-1,1.11,1.11,0,0,0-.69-.23,1.07,1.07,0,0,0-1,.6A1.67,1.67,0,0,0,171.08,56.75Z" style="fill:#231f20"/><path d="M175.71,53.33v5.83H175V53.33Z" style="fill:#231f20"/><path d="M180.23,53.33v5.83h-.59v-.55a1.56,1.56,0,0,1-1.15.73h-.18a1.6,1.6,0,0,1-1.52-.9,2.91,2.91,0,0,1-.3-1.39,2.26,2.26,0,0,1,.71-1.83,1.66,1.66,0,0,1,1.09-.38,1.43,1.43,0,0,1,1.29.65V53.33Zm-1.84,2.14a1.07,1.07,0,0,0-1,.66,1.9,1.9,0,0,0-.2.71c0,.08,0,.17,0,.26a1.67,1.67,0,0,0,.56,1.41,1.08,1.08,0,0,0,.66.22,1,1,0,0,0,1-.66,2.2,2.2,0,0,0,.19-1,1.66,1.66,0,0,0-.58-1.46A1,1,0,0,0,178.39,55.48Z" style="fill:#231f20"/><path d="M184.82,57.29h-3.09a1.63,1.63,0,0,0,.22.9,1.12,1.12,0,0,0,1,.54,1.08,1.08,0,0,0,1.1-.84h.67a1.63,1.63,0,0,1-1,1.31,2,2,0,0,1-.78.14,1.7,1.7,0,0,1-1.59-.88,2.68,2.68,0,0,1-.31-1.34,2.29,2.29,0,0,1,.75-1.88,1.79,1.79,0,0,1,1.17-.39,1.74,1.74,0,0,1,1.44.66,1.71,1.71,0,0,1,.26.45A4,4,0,0,1,184.82,57.29Zm-3.07-.54h2.35a.1.1,0,0,0,0,0,1.19,1.19,0,0,0-.47-1,1.11,1.11,0,0,0-.69-.23,1.07,1.07,0,0,0-1,.6A1.67,1.67,0,0,0,181.75,56.75Z" style="fill:#231f20"/><path d="M185.72,55h.62v.76a1.73,1.73,0,0,1,.93-.86l.22,0,.26,0v.68a1.56,1.56,0,0,0-.82.18l0,0a1.42,1.42,0,0,0-.47,1.22v2.18h-.67Z" style="fill:#231f20"/><path d="M189.05,53.33v5.83h-.67V53.33Z" style="fill:#231f20"/><path d="M192.68,55h.72L191.54,60a1.45,1.45,0,0,1-.46.66,1,1,0,0,1-.62.2,1,1,0,0,1-.45-.1v-.6a1.72,1.72,0,0,0,.35,0,.51.51,0,0,0,.5-.32l0-.09.26-.66L189.74,55h.71l1.07,3.26Z" style="fill:#231f20"/><path d="M193.71,58.33h.84v1q0,1-.84,1V60a.41.41,0,0,0,.42-.26,1.44,1.44,0,0,0,.05-.46v-.14h-.48Z" style="fill:#231f20"/><path d="M210.64,58.77v.5a1.91,1.91,0,0,1-.46.07.6.6,0,0,1-.67-.5l0-.11a2.2,2.2,0,0,1-1.42.62,1.29,1.29,0,0,1-1.22-.6,1.33,1.33,0,0,1-.15-.64,1.11,1.11,0,0,1,.74-1.12,4.6,4.6,0,0,1,1-.22l.3,0q.58-.07.67-.3a.45.45,0,0,0,0-.16V56.1q0-.51-.65-.61l-.29,0q-.82,0-1,.6a1.25,1.25,0,0,0,0,.14h-.67a1.36,1.36,0,0,1,.29-.87,1.79,1.79,0,0,1,1.39-.49q1.41,0,1.56.93a1.41,1.41,0,0,1,0,.22v2.46c0,.22.12.33.36.33Zm-1.17-.93V57.1a3.54,3.54,0,0,1-.91.21l-.16,0q-.85.12-1,.55a.68.68,0,0,0,0,.22.6.6,0,0,0,.54.64,1.19,1.19,0,0,0,.29,0,1.43,1.43,0,0,0,1-.38A.74.74,0,0,0,209.47,57.85Z" style="fill:#231f20"/><path d="M211.37,55H212v.7a1.59,1.59,0,0,1,1-.79,1.8,1.8,0,0,1,.35,0,1.26,1.26,0,0,1,1.18.56,1.13,1.13,0,0,1,.15.58v3.17H214v-2.9a.74.74,0,0,0-.47-.75,1,1,0,0,0-.39-.07,1,1,0,0,0-1,.62,1.77,1.77,0,0,0-.17.8v2.31h-.67Z" style="fill:#231f20"/><path d="M219.21,53.33v5.83h-.59v-.55a1.56,1.56,0,0,1-1.15.73h-.18a1.61,1.61,0,0,1-1.52-.9,2.91,2.91,0,0,1-.3-1.39,2.26,2.26,0,0,1,.71-1.83,1.66,1.66,0,0,1,1.09-.38,1.43,1.43,0,0,1,1.29.65V53.33Zm-1.84,2.14a1.07,1.07,0,0,0-1,.66,1.94,1.94,0,0,0-.2.71c0,.08,0,.17,0,.26a1.67,1.67,0,0,0,.56,1.41,1.08,1.08,0,0,0,.66.22,1,1,0,0,0,1-.66,2.17,2.17,0,0,0,.19-1,1.67,1.67,0,0,0-.58-1.46A1,1,0,0,0,217.37,55.48Z" style="fill:#231f20"/><path d="M230.63,55v.54h-.69v2.87q0,.3.18.35l.19,0a1.28,1.28,0,0,0,.32,0v.56a3.18,3.18,0,0,1-.54.06q-.71,0-.8-.54a1,1,0,0,1,0-.13V55.52h-.57V55h.57V53.82h.66V55Z" style="fill:#231f20"/><path d="M231.36,53.33H232v2.22a1.63,1.63,0,0,1,1-.66,2,2,0,0,1,.38,0,1.22,1.22,0,0,1,1.19.59,1.16,1.16,0,0,1,.13.55v3.17H234v-2.9a.72.72,0,0,0-.27-.63,1,1,0,0,0-.59-.19,1,1,0,0,0-1,.62,1.77,1.77,0,0,0-.17.8v2.31h-.66Z" style="fill:#231f20"/><path d="M239.35,57.29h-3.09a1.63,1.63,0,0,0,.22.9,1.12,1.12,0,0,0,1,.54,1.08,1.08,0,0,0,1.1-.84h.67a1.63,1.63,0,0,1-1,1.31,2,2,0,0,1-.78.14,1.7,1.7,0,0,1-1.59-.88,2.67,2.67,0,0,1-.31-1.34,2.29,2.29,0,0,1,.75-1.88,1.79,1.79,0,0,1,1.17-.39,1.73,1.73,0,0,1,1.44.66,1.65,1.65,0,0,1,.26.45A4,4,0,0,1,239.35,57.29Zm-3.07-.54h2.35a.12.12,0,0,0,0,0,1.19,1.19,0,0,0-.47-1,1.1,1.1,0,0,0-.69-.23,1.07,1.07,0,0,0-1,.6A1.64,1.64,0,0,0,236.28,56.75Z" style="fill:#231f20"/><path d="M107.45,70.51V64.58h.62v.63a1.49,1.49,0,0,1,1.34-.75,1.59,1.59,0,0,1,1.5.89,2.94,2.94,0,0,1,.3,1.4,2.26,2.26,0,0,1-.71,1.83,1.56,1.56,0,0,1-.73.34,1.87,1.87,0,0,1-.35,0,1.6,1.6,0,0,1-1.29-.62v2.18Zm1.84-5.43a1,1,0,0,0-1,.67,2.18,2.18,0,0,0-.19,1,1.66,1.66,0,0,0,.55,1.42,1,1,0,0,0,.62.21,1.08,1.08,0,0,0,1-.65,2,2,0,0,0,.21-1,1.68,1.68,0,0,0-.57-1.44A1.06,1.06,0,0,0,109.29,65.08Z" style="fill:#231f20"/><path d="M112,62.94h.66v2.22a1.63,1.63,0,0,1,1-.66,2,2,0,0,1,.38,0,1.22,1.22,0,0,1,1.19.59,1.16,1.16,0,0,1,.13.55v3.17h-.66v-2.9a.72.72,0,0,0-.27-.63,1,1,0,0,0-.59-.19,1,1,0,0,0-1,.62,1.77,1.77,0,0,0-.17.8v2.31H112Z" style="fill:#231f20"/><path d="M118.87,64.58h.72l-1.86,5.07a1.45,1.45,0,0,1-.46.66,1,1,0,0,1-.62.2,1,1,0,0,1-.45-.1v-.6a1.71,1.71,0,0,0,.35,0,.51.51,0,0,0,.5-.32l0-.09.26-.66-1.42-4.21h.71l1.07,3.26Z" style="fill:#231f20"/><path d="M123.18,65.74h-.7q0-.67-.84-.67-.66,0-.84.39a.6.6,0,0,0,0,.24q0,.36.53.54l.25.06.64.15q.94.22,1.13.78a1.22,1.22,0,0,1,.06.38,1.17,1.17,0,0,1-.72,1.12,2.24,2.24,0,0,1-1,.21q-1.55,0-1.66-1.3a1.1,1.1,0,0,1,0-.14h.7a1,1,0,0,0,.19.54,1.1,1.1,0,0,0,.83.28,1,1,0,0,0,.9-.38.52.52,0,0,0,.08-.28.54.54,0,0,0-.43-.52L122,67.1l-.62-.15a1.89,1.89,0,0,1-1.2-.64,1.24,1.24,0,0,1,.54-1.65,2,2,0,0,1,.94-.2q1.16,0,1.44.81A1.37,1.37,0,0,1,123.18,65.74Z" style="fill:#231f20"/><path d="M124.87,62.94v.84h-.67v-.84Zm0,1.64v4.19h-.66V64.58Z" style="fill:#231f20"/><path d="M129.22,66h-.67a.92.92,0,0,0-.78-.9l-.22,0a1,1,0,0,0-1,.8,2.67,2.67,0,0,0-.13.87A1.53,1.53,0,0,0,127,68.2a1.06,1.06,0,0,0,.54.14q.86,0,1-1h.67a1.59,1.59,0,0,1-.92,1.46,1.85,1.85,0,0,1-.79.16,1.65,1.65,0,0,1-1.53-.84,2.67,2.67,0,0,1-.33-1.37,2.33,2.33,0,0,1,.74-1.9,1.71,1.71,0,0,1,1.13-.39,1.63,1.63,0,0,1,1.31.54l.06.08A1.88,1.88,0,0,1,129.22,66Z" style="fill:#231f20"/><path d="M133.73,68.38v.5a1.9,1.9,0,0,1-.46.07.6.6,0,0,1-.67-.5l0-.11a2.2,2.2,0,0,1-1.42.62,1.29,1.29,0,0,1-1.22-.6,1.33,1.33,0,0,1-.15-.64,1.11,1.11,0,0,1,.74-1.12,4.59,4.59,0,0,1,1-.22l.3,0c.39,0,.61-.15.67-.3a.47.47,0,0,0,0-.16V65.7q0-.51-.65-.61l-.29,0c-.55,0-.87.2-1,.6,0,0,0,.1,0,.14H130a1.36,1.36,0,0,1,.29-.87,1.79,1.79,0,0,1,1.39-.49q1.41,0,1.56.93a1.54,1.54,0,0,1,0,.22v2.46q0,.33.36.33Zm-1.17-.93V66.7a3.53,3.53,0,0,1-.91.21l-.16,0c-.56.08-.89.26-1,.55a.68.68,0,0,0,0,.22.6.6,0,0,0,.54.64,1.18,1.18,0,0,0,.29,0,1.43,1.43,0,0,0,1-.38A.74.74,0,0,0,132.56,67.45Z" style="fill:#231f20"/><path d="M135.11,62.94v5.83h-.67V62.94Z" style="fill:#231f20"/><path d="M136.89,62.94v5.83h-.67V62.94Z" style="fill:#231f20"/><path d="M140.51,64.58h.72l-1.86,5.07a1.45,1.45,0,0,1-.46.66,1,1,0,0,1-.62.2,1,1,0,0,1-.45-.1v-.6a1.72,1.72,0,0,0,.35,0,.51.51,0,0,0,.5-.32l0-.09.26-.66-1.42-4.21h.71l1.07,3.26Z" style="fill:#231f20"/><path d="M145.81,64.46a1.67,1.67,0,0,1,1.67,1,3.05,3.05,0,0,1,.23,1.25,2.16,2.16,0,0,1-.82,1.9,1.84,1.84,0,0,1-1.08.31,1.68,1.68,0,0,1-1.63-1,2.91,2.91,0,0,1-.26-1.3,2.17,2.17,0,0,1,.84-2A1.84,1.84,0,0,1,145.81,64.46Zm0,.62a1.06,1.06,0,0,0-1,.74,2.42,2.42,0,0,0-.15.9,1.6,1.6,0,0,0,.62,1.48,1.08,1.08,0,0,0,.58.15,1.06,1.06,0,0,0,1-.7,2.18,2.18,0,0,0,.17-.9,1.6,1.6,0,0,0-.66-1.53A1.14,1.14,0,0,0,145.82,65.07Z" style="fill:#231f20"/><path d="M148.63,64.58h.62v.76a1.73,1.73,0,0,1,.93-.86l.22,0,.26,0v.68a1.57,1.57,0,0,0-.82.18l0,0a1.42,1.42,0,0,0-.47,1.22v2.18h-.67Z" style="fill:#231f20"/><path d="M153.53,64.58h.62v.59a1.53,1.53,0,0,1,1-.7l.26,0a1.18,1.18,0,0,1,1.06.52l.07.12a1.59,1.59,0,0,1,.94-.61,1.79,1.79,0,0,1,.35,0,1.05,1.05,0,0,1,1.18.78,1.75,1.75,0,0,1,0,.38v3.14h-.67V65.88a.73.73,0,0,0-.5-.8.93.93,0,0,0-1.06.39,1.16,1.16,0,0,0-.2.66v2.63H156V65.88q0-.7-.57-.82l-.21,0a.91.91,0,0,0-.79.45,1.13,1.13,0,0,0-.19.65v2.63h-.67Z" style="fill:#231f20"/><path d="M163.74,66.9h-3.09a1.63,1.63,0,0,0,.22.9,1.12,1.12,0,0,0,1,.54,1.08,1.08,0,0,0,1.1-.84h.67a1.63,1.63,0,0,1-1,1.31,2,2,0,0,1-.78.14,1.7,1.7,0,0,1-1.59-.88,2.68,2.68,0,0,1-.31-1.34,2.29,2.29,0,0,1,.75-1.88,1.79,1.79,0,0,1,1.17-.39,1.74,1.74,0,0,1,1.44.66,1.71,1.71,0,0,1,.26.45A4,4,0,0,1,163.74,66.9Zm-3.07-.54H163a.1.1,0,0,0,0,0,1.19,1.19,0,0,0-.47-1,1.11,1.11,0,0,0-.69-.23,1.07,1.07,0,0,0-1,.6A1.67,1.67,0,0,0,160.66,66.35Z" style="fill:#231f20"/><path d="M164.64,64.58h.62v.7a1.59,1.59,0,0,1,1-.79,1.78,1.78,0,0,1,.35,0,1.26,1.26,0,0,1,1.18.56,1.12,1.12,0,0,1,.15.58v3.17h-.66v-2.9a.74.74,0,0,0-.47-.75,1,1,0,0,0-.39-.07,1,1,0,0,0-1,.62,1.77,1.77,0,0,0-.17.8v2.31h-.67Z" style="fill:#231f20"/><path d="M170.56,64.58v.54h-.69V68q0,.3.18.35a.63.63,0,0,0,.19,0,1.28,1.28,0,0,0,.32,0v.56A3.16,3.16,0,0,1,170,69q-.71,0-.8-.54a.84.84,0,0,1,0-.13V65.12h-.57v-.54h.57V63.42h.66v1.15Z" style="fill:#231f20"/><path d="M175,68.38v.5a1.89,1.89,0,0,1-.46.07.6.6,0,0,1-.67-.5l0-.11a2.2,2.2,0,0,1-1.42.62,1.29,1.29,0,0,1-1.22-.6,1.32,1.32,0,0,1-.15-.64,1.11,1.11,0,0,1,.74-1.12,4.58,4.58,0,0,1,1-.22l.3,0c.39,0,.61-.15.67-.3a.47.47,0,0,0,0-.16V65.7c0-.34-.21-.54-.65-.61l-.29,0q-.82,0-1,.6s0,.1,0,.14h-.67a1.36,1.36,0,0,1,.29-.87,1.79,1.79,0,0,1,1.39-.49q1.41,0,1.56.93a1.41,1.41,0,0,1,0,.22v2.46c0,.22.12.33.36.33Zm-1.17-.93V66.7a3.53,3.53,0,0,1-.91.21l-.16,0q-.85.12-1,.55a.68.68,0,0,0,0,.22.6.6,0,0,0,.54.64,1.17,1.17,0,0,0,.29,0,1.43,1.43,0,0,0,1-.38A.74.74,0,0,0,173.85,67.45Z" style="fill:#231f20"/><path d="M176.41,62.94v5.83h-.67V62.94Z" style="fill:#231f20"/><path d="M178.18,62.94v5.83h-.67V62.94Z" style="fill:#231f20"/><path d="M181.81,64.58h.72l-1.86,5.07a1.45,1.45,0,0,1-.46.66,1,1,0,0,1-.62.2,1,1,0,0,1-.45-.1v-.6a1.7,1.7,0,0,0,.35,0,.51.51,0,0,0,.5-.32l0-.09.26-.66-1.42-4.21h.71l1.07,3.26Z" style="fill:#231f20"/><path d="M188.89,62.94v5.83h-.59v-.55a1.56,1.56,0,0,1-1.15.73H187a1.61,1.61,0,0,1-1.52-.9,2.91,2.91,0,0,1-.3-1.39,2.26,2.26,0,0,1,.71-1.83,1.66,1.66,0,0,1,1.09-.38,1.44,1.44,0,0,1,1.29.65V62.94ZM187,65.08a1.07,1.07,0,0,0-1,.66,1.94,1.94,0,0,0-.2.71c0,.08,0,.17,0,.26a1.67,1.67,0,0,0,.56,1.41,1.08,1.08,0,0,0,.66.22,1,1,0,0,0,1-.66,2.18,2.18,0,0,0,.19-1,1.67,1.67,0,0,0-.58-1.46A1,1,0,0,0,187,65.08Z" style="fill:#231f20"/><path d="M190.58,62.94v.84h-.67v-.84Zm0,1.64v4.19h-.66V64.58Z" style="fill:#231f20"/><path d="M194.66,65.74H194q0-.67-.84-.67-.66,0-.84.39a.6.6,0,0,0,0,.24q0,.36.53.54l.25.06.64.15q.94.22,1.13.78a1.22,1.22,0,0,1,.06.38,1.17,1.17,0,0,1-.72,1.12,2.24,2.24,0,0,1-1,.21q-1.55,0-1.66-1.3a1.2,1.2,0,0,1,0-.14h.71a1,1,0,0,0,.19.54,1.1,1.1,0,0,0,.83.28A1,1,0,0,0,194,68a.52.52,0,0,0,.08-.28.54.54,0,0,0-.43-.52l-.22-.06-.62-.15a1.89,1.89,0,0,1-1.2-.64,1.24,1.24,0,0,1,.54-1.65,2,2,0,0,1,.94-.2q1.16,0,1.44.81A1.39,1.39,0,0,1,194.66,65.74Z" style="fill:#231f20"/><path d="M199.43,68.38v.5A1.89,1.89,0,0,1,199,69a.6.6,0,0,1-.67-.5l0-.11a2.2,2.2,0,0,1-1.42.62,1.29,1.29,0,0,1-1.22-.6,1.32,1.32,0,0,1-.15-.64,1.11,1.11,0,0,1,.74-1.12,4.58,4.58,0,0,1,1-.22l.3,0c.39,0,.61-.15.67-.3a.47.47,0,0,0,0-.16V65.7c0-.34-.21-.54-.65-.61l-.29,0q-.82,0-1,.6s0,.1,0,.14h-.67a1.36,1.36,0,0,1,.29-.87,1.79,1.79,0,0,1,1.39-.49q1.41,0,1.56.93a1.41,1.41,0,0,1,0,.22v2.46c0,.22.12.33.36.33Zm-1.17-.93V66.7a3.53,3.53,0,0,1-.91.21l-.16,0q-.85.12-1,.55a.68.68,0,0,0,0,.22.6.6,0,0,0,.54.64,1.17,1.17,0,0,0,.29,0,1.43,1.43,0,0,0,1-.38A.74.74,0,0,0,198.26,67.45Z" style="fill:#231f20"/><path d="M200,62.94h.66v2.21a1.46,1.46,0,0,1,1.3-.69,1.59,1.59,0,0,1,1.5.86,2.77,2.77,0,0,1,.3,1.34,2.36,2.36,0,0,1-.73,1.9A1.63,1.63,0,0,1,202,69a1.5,1.5,0,0,1-1.33-.72v.54H200Zm1.83,2.14a1,1,0,0,0-1,.67,2.17,2.17,0,0,0-.19,1,1.66,1.66,0,0,0,.55,1.42,1,1,0,0,0,.62.21,1.08,1.08,0,0,0,1-.63,2,2,0,0,0,.22-1,1.67,1.67,0,0,0-.58-1.44A1.18,1.18,0,0,0,201.86,65.08Z" style="fill:#231f20"/><path d="M205.26,62.94v5.83h-.67V62.94Z" style="fill:#231f20"/><path d="M209.93,66.9h-3.09a1.63,1.63,0,0,0,.22.9,1.12,1.12,0,0,0,1,.54,1.08,1.08,0,0,0,1.1-.84h.67a1.63,1.63,0,0,1-1,1.31A2,2,0,0,1,208,69a1.7,1.7,0,0,1-1.59-.88,2.67,2.67,0,0,1-.31-1.34,2.29,2.29,0,0,1,.75-1.88,1.79,1.79,0,0,1,1.17-.39,1.73,1.73,0,0,1,1.44.66,1.65,1.65,0,0,1,.26.45A4,4,0,0,1,209.93,66.9Zm-3.07-.54h2.35a.12.12,0,0,0,0,0,1.19,1.19,0,0,0-.47-1,1.1,1.1,0,0,0-.69-.23,1.07,1.07,0,0,0-1,.6A1.64,1.64,0,0,0,206.86,66.35Z" style="fill:#231f20"/><path d="M214.23,62.94v5.83h-.59v-.55a1.56,1.56,0,0,1-1.15.73h-.18a1.61,1.61,0,0,1-1.52-.9,2.91,2.91,0,0,1-.3-1.39,2.26,2.26,0,0,1,.71-1.83,1.66,1.66,0,0,1,1.09-.38,1.44,1.44,0,0,1,1.29.65V62.94Zm-1.84,2.14a1.07,1.07,0,0,0-1,.66,1.94,1.94,0,0,0-.2.71c0,.08,0,.17,0,.26a1.67,1.67,0,0,0,.56,1.41,1.08,1.08,0,0,0,.66.22,1,1,0,0,0,1-.66,2.18,2.18,0,0,0,.19-1,1.67,1.67,0,0,0-.58-1.46A1,1,0,0,0,212.39,65.08Z" style="fill:#231f20"/><path d="M223.45,68.38v.5A1.89,1.89,0,0,1,223,69a.6.6,0,0,1-.67-.5l0-.11a2.2,2.2,0,0,1-1.42.62,1.29,1.29,0,0,1-1.22-.6,1.32,1.32,0,0,1-.15-.64,1.11,1.11,0,0,1,.74-1.12,4.58,4.58,0,0,1,1-.22l.3,0c.39,0,.61-.15.67-.3a.47.47,0,0,0,0-.16V65.7c0-.34-.21-.54-.65-.61l-.29,0q-.82,0-1,.6s0,.1,0,.14h-.67a1.36,1.36,0,0,1,.29-.87,1.79,1.79,0,0,1,1.39-.49q1.41,0,1.56.93a1.41,1.41,0,0,1,0,.22v2.46c0,.22.12.33.36.33Zm-1.17-.93V66.7a3.53,3.53,0,0,1-.91.21l-.16,0q-.85.12-1,.55a.68.68,0,0,0,0,.22.6.6,0,0,0,.54.64,1.17,1.17,0,0,0,.29,0,1.43,1.43,0,0,0,1-.38A.74.74,0,0,0,222.28,67.45Z" style="fill:#231f20"/><path d="M224.17,64.58h.62v.76a1.72,1.72,0,0,1,.93-.86l.21,0,.26,0v.68a1.56,1.56,0,0,0-.82.18l0,0a1.42,1.42,0,0,0-.47,1.22v2.18h-.67Z" style="fill:#231f20"/><path d="M230.29,66.9h-3.09a1.63,1.63,0,0,0,.22.9,1.12,1.12,0,0,0,1,.54,1.08,1.08,0,0,0,1.1-.84h.67a1.63,1.63,0,0,1-1,1.31,2,2,0,0,1-.78.14,1.7,1.7,0,0,1-1.59-.88,2.66,2.66,0,0,1-.31-1.34,2.29,2.29,0,0,1,.75-1.88,1.79,1.79,0,0,1,1.17-.39,1.74,1.74,0,0,1,1.44.66,1.68,1.68,0,0,1,.26.45A4,4,0,0,1,230.29,66.9Zm-3.07-.54h2.35a.12.12,0,0,0,0,0,1.18,1.18,0,0,0-.47-1,1.1,1.1,0,0,0-.69-.23,1.08,1.08,0,0,0-1,.6A1.64,1.64,0,0,0,227.22,66.35Z" style="fill:#231f20"/><path d="M237.14,68.38v.5a1.91,1.91,0,0,1-.46.07.6.6,0,0,1-.67-.5l0-.11a2.2,2.2,0,0,1-1.42.62,1.29,1.29,0,0,1-1.22-.6,1.33,1.33,0,0,1-.15-.64,1.11,1.11,0,0,1,.74-1.12,4.6,4.6,0,0,1,1-.22l.3,0q.58-.07.67-.3a.45.45,0,0,0,0-.16V65.7q0-.51-.65-.61l-.29,0q-.82,0-1,.6a1.25,1.25,0,0,0,0,.14h-.67a1.36,1.36,0,0,1,.29-.87,1.79,1.79,0,0,1,1.39-.49q1.41,0,1.56.93a1.41,1.41,0,0,1,0,.22v2.46c0,.22.12.33.36.33ZM236,67.45V66.7a3.54,3.54,0,0,1-.91.21l-.16,0q-.85.12-1,.55a.68.68,0,0,0,0,.22.6.6,0,0,0,.54.64,1.19,1.19,0,0,0,.29,0,1.43,1.43,0,0,0,1-.38A.74.74,0,0,0,236,67.45Z" style="fill:#231f20"/><path d="M239.34,64.58v.54h-.69V68q0,.3.18.35a.63.63,0,0,0,.19,0,1.28,1.28,0,0,0,.32,0v.56a3.14,3.14,0,0,1-.54.06q-.71,0-.8-.54a.84.84,0,0,1,0-.13V65.12h-.57v-.54H238V63.42h.66v1.15Z" style="fill:#231f20"/><path d="M107.58,72.54h.66v2.22a1.63,1.63,0,0,1,1-.66,2,2,0,0,1,.38,0,1.22,1.22,0,0,1,1.19.59,1.16,1.16,0,0,1,.13.55v3.17h-.66v-2.9a.72.72,0,0,0-.27-.63,1,1,0,0,0-.59-.19,1,1,0,0,0-1,.62,1.77,1.77,0,0,0-.17.8v2.31h-.66Z" style="fill:#231f20"/><path d="M112.66,72.54v.84H112v-.84Zm0,1.64v4.19H112V74.18Z" style="fill:#231f20"/><path d="M116.54,74.18h.62v3.5a3.41,3.41,0,0,1-.33,1.74l-.11.15a1.64,1.64,0,0,1-1.26.53h-.18a1.58,1.58,0,0,1-1.5-.7,1.46,1.46,0,0,1-.17-.56h.68a.73.73,0,0,0,.26.48,1.2,1.2,0,0,0,.76.22,1.06,1.06,0,0,0,.93-.39,2,2,0,0,0,.24-1.14V77.8a1.6,1.6,0,0,1-1.06.74l-.22,0A1.54,1.54,0,0,1,114,78l0,0a2.45,2.45,0,0,1-.53-1.65,2.41,2.41,0,0,1,.68-1.86,1.55,1.55,0,0,1,1.1-.43,1.49,1.49,0,0,1,1.28.73Zm-1.21.5a1,1,0,0,0-1,.72,2.37,2.37,0,0,0-.16.91,1.6,1.6,0,0,0,.62,1.49,1.05,1.05,0,0,0,1.54-.59,2.39,2.39,0,0,0,.14-.87q0-1.2-.66-1.54A1,1,0,0,0,115.33,74.67Z" style="fill:#231f20"/><path d="M118.25,72.54h.66v2.22a1.63,1.63,0,0,1,1-.66,2,2,0,0,1,.38,0,1.22,1.22,0,0,1,1.19.59,1.16,1.16,0,0,1,.13.55v3.17h-.66v-2.9a.72.72,0,0,0-.27-.63,1,1,0,0,0-.59-.19,1,1,0,0,0-1,.62,1.77,1.77,0,0,0-.17.8v2.31h-.66Z" style="fill:#231f20"/><path d="M126.24,76.5h-3.09a1.63,1.63,0,0,0,.22.9,1.12,1.12,0,0,0,1,.54,1.08,1.08,0,0,0,1.1-.84h.67a1.63,1.63,0,0,1-1,1.31,2,2,0,0,1-.78.14,1.7,1.7,0,0,1-1.59-.88,2.67,2.67,0,0,1-.31-1.34,2.29,2.29,0,0,1,.75-1.88,1.79,1.79,0,0,1,1.17-.39,1.74,1.74,0,0,1,1.44.66,1.69,1.69,0,0,1,.26.45A4,4,0,0,1,126.24,76.5ZM123.17,76h2.35a.11.11,0,0,0,0,0,1.19,1.19,0,0,0-.47-1,1.1,1.1,0,0,0-.69-.23,1.08,1.08,0,0,0-1,.6A1.66,1.66,0,0,0,123.17,76Z" style="fill:#231f20"/><path d="M130.09,75.34h-.7c0-.45-.3-.67-.84-.67s-.72.13-.84.39a.58.58,0,0,0,0,.24q0,.36.53.54l.25.06.64.15q.94.22,1.13.78a1.22,1.22,0,0,1,.05.38,1.17,1.17,0,0,1-.72,1.12,2.24,2.24,0,0,1-1,.21q-1.55,0-1.66-1.3a1.1,1.1,0,0,1,0-.14h.7a1,1,0,0,0,.19.54,1.1,1.1,0,0,0,.83.28,1,1,0,0,0,.9-.38.52.52,0,0,0,.08-.28.54.54,0,0,0-.43-.52l-.22-.06-.62-.15a1.9,1.9,0,0,1-1.2-.64,1.14,1.14,0,0,1-.13-.57,1.13,1.13,0,0,1,.67-1.08,2,2,0,0,1,.94-.2q1.16,0,1.44.81A1.36,1.36,0,0,1,130.09,75.34Z" style="fill:#231f20"/><path d="M132.59,74.18v.54h-.69v2.87q0,.3.18.35l.19,0a1.28,1.28,0,0,0,.32,0v.56a3.16,3.16,0,0,1-.54.06q-.71,0-.8-.54a1,1,0,0,1,0-.13V74.72h-.57v-.54h.57V73h.66v1.15Z" style="fill:#231f20"/><path d="M135.56,74.18h.62v.76a1.72,1.72,0,0,1,.93-.86l.21,0,.26,0v.68a1.56,1.56,0,0,0-.82.18l0,0a1.42,1.42,0,0,0-.47,1.22v2.18h-.67Z" style="fill:#231f20"/><path d="M138.88,72.54v.84h-.67v-.84Zm0,1.64v4.19h-.66V74.18Z" style="fill:#231f20"/><path d="M143,75.34h-.7q0-.67-.84-.67-.66,0-.84.39a.6.6,0,0,0,0,.24q0,.36.53.54l.25.06.64.15q.94.22,1.13.78a1.22,1.22,0,0,1,.06.38,1.17,1.17,0,0,1-.72,1.12,2.23,2.23,0,0,1-1,.21q-1.55,0-1.66-1.3a1,1,0,0,1,0-.14h.7a1,1,0,0,0,.19.54,1.1,1.1,0,0,0,.83.28,1,1,0,0,0,.9-.38.51.51,0,0,0,.08-.28.54.54,0,0,0-.43-.52l-.22-.06-.62-.15a1.89,1.89,0,0,1-1.2-.64,1.24,1.24,0,0,1,.54-1.65,2,2,0,0,1,.94-.2q1.16,0,1.44.81A1.36,1.36,0,0,1,143,75.34Z" style="fill:#231f20"/><path d="M144.58,72.54V76l1.78-1.78h.86l-1.46,1.45,1.71,2.74h-.82l-1.42-2.27-.65.64v1.63h-.66V72.54Z" style="fill:#231f20"/><path d="M151.74,74.18v.54H151v3.65h-.66V74.72h-.56v-.54h.56v-.71a.84.84,0,0,1,.59-.9,1.28,1.28,0,0,1,.39-.06,1.83,1.83,0,0,1,.38,0v.55h-.23q-.46,0-.46.42v.66Z" style="fill:#231f20"/><path d="M154,74.06a1.67,1.67,0,0,1,1.67,1,3.05,3.05,0,0,1,.23,1.25,2.15,2.15,0,0,1-.82,1.9,1.84,1.84,0,0,1-1.08.31,1.68,1.68,0,0,1-1.63-1,2.91,2.91,0,0,1-.26-1.3,2.17,2.17,0,0,1,.84-2A1.83,1.83,0,0,1,154,74.06Zm0,.62a1.06,1.06,0,0,0-1,.74,2.42,2.42,0,0,0-.15.9,1.6,1.6,0,0,0,.62,1.48,1.08,1.08,0,0,0,.58.15,1.06,1.06,0,0,0,1-.7,2.2,2.2,0,0,0,.17-.9,1.6,1.6,0,0,0-.66-1.53A1.14,1.14,0,0,0,154,74.67Z" style="fill:#231f20"/><path d="M156.82,74.18h.62v.76a1.72,1.72,0,0,1,.93-.86l.21,0,.26,0v.68a1.56,1.56,0,0,0-.82.18l0,0a1.42,1.42,0,0,0-.47,1.22v2.18h-.67Z" style="fill:#231f20"/><path d="M164.66,75.34H164q0-.67-.84-.67-.66,0-.84.39a.6.6,0,0,0,0,.24q0,.36.53.54l.25.06.64.15q.94.22,1.13.78a1.22,1.22,0,0,1,.06.38,1.17,1.17,0,0,1-.72,1.12,2.24,2.24,0,0,1-1,.21q-1.55,0-1.66-1.3a1.2,1.2,0,0,1,0-.14h.71a1,1,0,0,0,.19.54,1.1,1.1,0,0,0,.83.28,1,1,0,0,0,.9-.38.52.52,0,0,0,.08-.28.54.54,0,0,0-.43-.52l-.22-.06-.62-.15a1.89,1.89,0,0,1-1.2-.64,1.24,1.24,0,0,1,.54-1.65,2,2,0,0,1,.94-.2q1.16,0,1.44.81A1.39,1.39,0,0,1,164.66,75.34Z" style="fill:#231f20"/><path d="M168.93,75.58h-.67a.92.92,0,0,0-.78-.9l-.22,0a1,1,0,0,0-1,.8,2.64,2.64,0,0,0-.13.87,1.53,1.53,0,0,0,.63,1.46,1.05,1.05,0,0,0,.54.14q.86,0,1-1H169a1.59,1.59,0,0,1-.92,1.46,1.86,1.86,0,0,1-.79.16,1.65,1.65,0,0,1-1.53-.84,2.67,2.67,0,0,1-.33-1.37,2.33,2.33,0,0,1,.74-1.9,1.71,1.71,0,0,1,1.13-.39,1.63,1.63,0,0,1,1.31.54l.06.08A1.88,1.88,0,0,1,168.93,75.58Z" style="fill:#231f20"/><path d="M173.44,78v.5a1.89,1.89,0,0,1-.46.07.6.6,0,0,1-.67-.5l0-.11a2.2,2.2,0,0,1-1.42.62,1.29,1.29,0,0,1-1.22-.6,1.32,1.32,0,0,1-.15-.64,1.11,1.11,0,0,1,.74-1.12,4.58,4.58,0,0,1,1-.22l.3,0c.39,0,.61-.15.67-.3a.47.47,0,0,0,0-.16V75.3c0-.34-.21-.54-.65-.61l-.29,0q-.82,0-1,.6s0,.1,0,.14h-.67a1.36,1.36,0,0,1,.29-.87,1.79,1.79,0,0,1,1.39-.49q1.41,0,1.56.93a1.41,1.41,0,0,1,0,.22v2.46c0,.22.12.33.36.33ZM172.27,77V76.3a3.53,3.53,0,0,1-.91.21l-.16,0q-.85.12-1,.55a.68.68,0,0,0,0,.22.6.6,0,0,0,.54.64,1.17,1.17,0,0,0,.29,0,1.43,1.43,0,0,0,1-.38A.74.74,0,0,0,172.27,77Z" style="fill:#231f20"/><path d="M174.82,72.54v5.83h-.67V72.54Z" style="fill:#231f20"/><path d="M179.34,72.54v5.83h-.59v-.55a1.55,1.55,0,0,1-1.15.73h-.18a1.61,1.61,0,0,1-1.52-.9,2.91,2.91,0,0,1-.3-1.39,2.26,2.26,0,0,1,.71-1.83,1.65,1.65,0,0,1,1.09-.38,1.43,1.43,0,0,1,1.29.65V72.54Zm-1.84,2.14a1.07,1.07,0,0,0-1,.66,1.9,1.9,0,0,0-.2.71c0,.08,0,.17,0,.26a1.67,1.67,0,0,0,.56,1.41,1.08,1.08,0,0,0,.66.22,1,1,0,0,0,1-.66,2.18,2.18,0,0,0,.19-1,1.67,1.67,0,0,0-.58-1.46A1,1,0,0,0,177.5,74.68Z" style="fill:#231f20"/><path d="M183.25,72.54v.84h-.67v-.84Zm0,1.64v4.19h-.66V74.18Z" style="fill:#231f20"/><path d="M184.39,74.18H185v.7a1.59,1.59,0,0,1,1-.79,1.78,1.78,0,0,1,.35,0,1.26,1.26,0,0,1,1.18.56,1.12,1.12,0,0,1,.15.58v3.17h-.66v-2.9a.74.74,0,0,0-.47-.75,1,1,0,0,0-.39-.07,1,1,0,0,0-1,.62,1.77,1.77,0,0,0-.17.8v2.31h-.67Z" style="fill:#231f20"/><path d="M188.84,74.18h.66v5.06q0,.82-1,.87h-.12l-.22,0v-.57h.16c.28,0,.45-.09.5-.26a1,1,0,0,0,0-.3Zm.66-1.64v.84h-.66v-.84Z" style="fill:#231f20"/><path d="M193.91,78.37h-.6v-.58a1.64,1.64,0,0,1-1,.74,1.83,1.83,0,0,1-.36,0,1.25,1.25,0,0,1-1.18-.56,1.13,1.13,0,0,1-.15-.58V74.18h.66v3a.73.73,0,0,0,.47.75,1.09,1.09,0,0,0,1.38-.55,1.83,1.83,0,0,0,.16-.79V74.18h.66Z" style="fill:#231f20"/><path d="M195.05,74.18h.62v.76a1.73,1.73,0,0,1,.93-.86l.22,0,.26,0v.68a1.56,1.56,0,0,0-.82.18l0,0a1.42,1.42,0,0,0-.47,1.22v2.18h-.67Z" style="fill:#231f20"/><path d="M200.46,74.18h.72l-1.86,5.07a1.45,1.45,0,0,1-.46.66,1,1,0,0,1-.62.2,1,1,0,0,1-.45-.1v-.6a1.67,1.67,0,0,0,.35,0,.51.51,0,0,0,.5-.32l0-.09.26-.66-1.42-4.21h.71l1.07,3.26Z" style="fill:#231f20"/><path d="M202.33,77.54v.83h-.83v-.83Z" style="fill:#231f20"/><path d="M108.65,87.35V90h-.74V84.17h3.91v.66h-3.17v1.86h2.78v.66Z" style="fill:#231f20"/><path d="M116,88.13h-3.09a1.63,1.63,0,0,0,.22.9,1.12,1.12,0,0,0,1,.54,1.08,1.08,0,0,0,1.1-.84h.67a1.63,1.63,0,0,1-1,1.31,2.06,2.06,0,0,1-.78.14,1.7,1.7,0,0,1-1.59-.88A2.66,2.66,0,0,1,112.2,88a2.29,2.29,0,0,1,.75-1.88,1.79,1.79,0,0,1,1.17-.39,1.74,1.74,0,0,1,1.44.66,1.68,1.68,0,0,1,.26.45A4,4,0,0,1,116,88.13Zm-3.07-.54h2.35a.11.11,0,0,0,0,0,1.19,1.19,0,0,0-.47-1,1.11,1.11,0,0,0-.69-.23,1.08,1.08,0,0,0-1,.6A1.67,1.67,0,0,0,112.91,87.58Z" style="fill:#231f20"/><path d="M120.43,88.13h-3.09a1.63,1.63,0,0,0,.22.9,1.12,1.12,0,0,0,1,.54,1.08,1.08,0,0,0,1.1-.84h.67a1.63,1.63,0,0,1-1,1.31,2.06,2.06,0,0,1-.78.14A1.7,1.7,0,0,1,117,89.3a2.66,2.66,0,0,1-.31-1.34,2.29,2.29,0,0,1,.75-1.88,1.79,1.79,0,0,1,1.17-.39,1.74,1.74,0,0,1,1.44.66,1.68,1.68,0,0,1,.26.45A4,4,0,0,1,120.43,88.13Zm-3.07-.54h2.35a.11.11,0,0,0,0,0,1.19,1.19,0,0,0-.47-1,1.11,1.11,0,0,0-.69-.23,1.08,1.08,0,0,0-1,.6A1.67,1.67,0,0,0,117.36,87.58Z" style="fill:#231f20"/><path d="M122,84.17V90h-.67V84.17Z" style="fill:#231f20"/><path d="M135.88,90h-.76l-.85-3.29L133.46,90h-.75l-1.22-4.19h.74l.86,3.26.8-3.26h.82l.82,3.26.83-3.26h.75Z" style="fill:#231f20"/><path d="M141.38,89.61v.5a1.92,1.92,0,0,1-.46.07.6.6,0,0,1-.67-.5l0-.11a2.2,2.2,0,0,1-1.42.62,1.29,1.29,0,0,1-1.22-.6,1.33,1.33,0,0,1-.15-.64,1.11,1.11,0,0,1,.74-1.12,4.57,4.57,0,0,1,1-.22l.3,0c.39,0,.61-.15.67-.3a.47.47,0,0,0,0-.16v-.18q0-.51-.65-.61l-.29,0c-.55,0-.87.2-1,.6,0,0,0,.1,0,.14h-.67a1.36,1.36,0,0,1,.29-.87,1.79,1.79,0,0,1,1.39-.49q1.41,0,1.56.93a1.54,1.54,0,0,1,0,.22V89.3q0,.33.36.33Zm-1.17-.93v-.75a3.54,3.54,0,0,1-.91.21l-.16,0c-.56.08-.89.26-1,.55a.68.68,0,0,0,0,.22.6.6,0,0,0,.54.64,1.17,1.17,0,0,0,.29,0,1.43,1.43,0,0,0,1-.38A.74.74,0,0,0,140.21,88.68Z" style="fill:#231f20"/><path d="M143.58,85.81v.54h-.69v2.87c0,.2.06.32.18.35a.64.64,0,0,0,.19,0,1.27,1.27,0,0,0,.32,0v.56a3.17,3.17,0,0,1-.54.06q-.71,0-.8-.54a1,1,0,0,1,0-.13V86.35h-.57v-.54h.57V84.66h.66v1.15Z" style="fill:#231f20"/><path d="M147.77,88.13h-3.09a1.63,1.63,0,0,0,.22.9,1.12,1.12,0,0,0,1,.54,1.08,1.08,0,0,0,1.1-.84h.67a1.63,1.63,0,0,1-1,1.31,2.05,2.05,0,0,1-.78.14,1.7,1.7,0,0,1-1.59-.88A2.66,2.66,0,0,1,144,88a2.29,2.29,0,0,1,.75-1.88,1.79,1.79,0,0,1,1.17-.39,1.73,1.73,0,0,1,1.7,1.1A4,4,0,0,1,147.77,88.13Zm-3.07-.54H147a.1.1,0,0,0,0,0,1.18,1.18,0,0,0-.47-1,1.11,1.11,0,0,0-.69-.23,1.08,1.08,0,0,0-1,.6A1.68,1.68,0,0,0,144.69,87.58Z" style="fill:#231f20"/><path d="M148.66,85.81h.62v.76a1.72,1.72,0,0,1,.93-.86l.22,0,.26,0v.68a1.57,1.57,0,0,0-.82.18l0,0a1.42,1.42,0,0,0-.47,1.22V90h-.67Z" style="fill:#231f20"/><path d="M162.33,84.17H163v2.21a1.46,1.46,0,0,1,1.3-.69,1.58,1.58,0,0,1,1.5.86,2.77,2.77,0,0,1,.3,1.34,2.36,2.36,0,0,1-.73,1.9,1.63,1.63,0,0,1-1.1.39,1.5,1.5,0,0,1-1.33-.72V90h-.6Zm1.83,2.14a1,1,0,0,0-1,.67,2.17,2.17,0,0,0-.19,1,1.66,1.66,0,0,0,.55,1.42,1,1,0,0,0,.62.21,1.08,1.08,0,0,0,1-.63,2.06,2.06,0,0,0,.22-1,1.67,1.67,0,0,0-.58-1.44A1.18,1.18,0,0,0,164.16,86.31Z" style="fill:#231f20"/><path d="M170.45,88.13h-3.09a1.63,1.63,0,0,0,.22.9,1.12,1.12,0,0,0,1,.54,1.08,1.08,0,0,0,1.1-.84h.67a1.63,1.63,0,0,1-1,1.31,2.05,2.05,0,0,1-.78.14A1.7,1.7,0,0,1,167,89.3a2.66,2.66,0,0,1-.31-1.34,2.29,2.29,0,0,1,.75-1.88,1.79,1.79,0,0,1,1.17-.39,1.73,1.73,0,0,1,1.7,1.1A4,4,0,0,1,170.45,88.13Zm-3.07-.54h2.35a.1.1,0,0,0,0,0,1.18,1.18,0,0,0-.47-1,1.11,1.11,0,0,0-.69-.23,1.08,1.08,0,0,0-1,.6A1.68,1.68,0,0,0,167.37,87.58Z" style="fill:#231f20"/><path d="M172.85,85.81v.54h-.7V90h-.66V86.35h-.56v-.54h.56V85.1a.84.84,0,0,1,.59-.9,1.29,1.29,0,0,1,.39-.06,1.81,1.81,0,0,1,.38,0v.55h-.23q-.46,0-.46.42v.66Z" style="fill:#231f20"/><path d="M175.11,85.69a1.67,1.67,0,0,1,1.67,1A3.06,3.06,0,0,1,177,88a2.16,2.16,0,0,1-.82,1.9,1.84,1.84,0,0,1-1.08.31,1.68,1.68,0,0,1-1.63-1,2.91,2.91,0,0,1-.26-1.29,2.17,2.17,0,0,1,.84-2A1.83,1.83,0,0,1,175.11,85.69Zm0,.62a1.07,1.07,0,0,0-1,.74,2.42,2.42,0,0,0-.15.9,1.6,1.6,0,0,0,.62,1.48,1.08,1.08,0,0,0,.58.15,1.06,1.06,0,0,0,1-.7,2.19,2.19,0,0,0,.17-.9,1.6,1.6,0,0,0-.66-1.53A1.13,1.13,0,0,0,175.12,86.3Z" style="fill:#231f20"/><path d="M177.93,85.81h.62v.76a1.72,1.72,0,0,1,.93-.86l.22,0,.26,0v.68a1.57,1.57,0,0,0-.82.18l0,0a1.42,1.42,0,0,0-.47,1.22V90h-.67Z" style="fill:#231f20"/><path d="M184.06,88.13H181a1.63,1.63,0,0,0,.22.9,1.12,1.12,0,0,0,1,.54,1.08,1.08,0,0,0,1.1-.84H184A1.63,1.63,0,0,1,183,90a2.06,2.06,0,0,1-.78.14,1.7,1.7,0,0,1-1.59-.88,2.66,2.66,0,0,1-.31-1.34,2.29,2.29,0,0,1,.75-1.88,1.79,1.79,0,0,1,1.17-.39,1.73,1.73,0,0,1,1.44.66,1.64,1.64,0,0,1,.26.45A4,4,0,0,1,184.06,88.13ZM181,87.58h2.35a.12.12,0,0,0,0,0,1.19,1.19,0,0,0-.47-1,1.11,1.11,0,0,0-.69-.23,1.08,1.08,0,0,0-1,.6A1.65,1.65,0,0,0,181,87.58Z" style="fill:#231f20"/><path d="M193.73,84.17h.66v2.21a1.46,1.46,0,0,1,1.3-.69,1.58,1.58,0,0,1,1.5.86,2.77,2.77,0,0,1,.3,1.34,2.36,2.36,0,0,1-.73,1.9,1.63,1.63,0,0,1-1.1.39,1.5,1.5,0,0,1-1.33-.72V90h-.6Zm1.83,2.14a1,1,0,0,0-1,.67,2.17,2.17,0,0,0-.19,1,1.66,1.66,0,0,0,.55,1.42,1,1,0,0,0,.62.21,1.08,1.08,0,0,0,1-.63,2.06,2.06,0,0,0,.22-1,1.67,1.67,0,0,0-.58-1.44A1.18,1.18,0,0,0,195.57,86.31Z" style="fill:#231f20"/><path d="M202,89.61v.5a1.94,1.94,0,0,1-.46.07.6.6,0,0,1-.67-.5l0-.11a2.2,2.2,0,0,1-1.42.62,1.29,1.29,0,0,1-1.22-.6,1.33,1.33,0,0,1-.15-.64,1.11,1.11,0,0,1,.74-1.12,4.58,4.58,0,0,1,1-.22l.3,0c.39,0,.61-.15.67-.3a.45.45,0,0,0,0-.16v-.18q0-.51-.65-.61l-.29,0q-.82,0-1,.6a1.27,1.27,0,0,0,0,.14h-.67a1.36,1.36,0,0,1,.29-.87,1.79,1.79,0,0,1,1.39-.49q1.41,0,1.56.93a1.4,1.4,0,0,1,0,.22V89.3c0,.22.12.33.36.33Zm-1.17-.93v-.75a3.55,3.55,0,0,1-.91.21l-.16,0q-.85.12-1,.55a.68.68,0,0,0,0,.22.6.6,0,0,0,.54.64,1.19,1.19,0,0,0,.29,0,1.43,1.43,0,0,0,1-.38A.74.74,0,0,0,200.86,88.68Z" style="fill:#231f20"/><path d="M204.23,85.81v.54h-.69v2.87c0,.2.06.32.18.35a.63.63,0,0,0,.19,0,1.27,1.27,0,0,0,.32,0v.56a3.15,3.15,0,0,1-.54.06q-.71,0-.8-.54a.83.83,0,0,1,0-.13V86.35h-.57v-.54h.57V84.66h.66v1.15Z" style="fill:#231f20"/><path d="M205,84.17h.66v2.22a1.63,1.63,0,0,1,1-.66,2.05,2.05,0,0,1,.38,0,1.22,1.22,0,0,1,1.19.59,1.15,1.15,0,0,1,.13.55V90h-.66V87.1a.72.72,0,0,0-.27-.63,1,1,0,0,0-.59-.19,1,1,0,0,0-1,.62,1.77,1.77,0,0,0-.17.8V90H205Z" style="fill:#231f20"/><path d="M210,84.17V85h-.67v-.84Zm0,1.64V90h-.66V85.81Z" style="fill:#231f20"/><path d="M211.18,85.81h.62v.71a1.59,1.59,0,0,1,1-.79,1.79,1.79,0,0,1,.35,0,1.26,1.26,0,0,1,1.18.56,1.12,1.12,0,0,1,.15.58V90h-.66V87.1a.74.74,0,0,0-.47-.75,1,1,0,0,0-.39-.07,1,1,0,0,0-1,.62,1.77,1.77,0,0,0-.17.8V90h-.67Z" style="fill:#231f20"/><path d="M218.37,85.81H219v3.5a3.4,3.4,0,0,1-.33,1.74l-.11.15a1.63,1.63,0,0,1-1.26.53h-.18a1.58,1.58,0,0,1-1.5-.7,1.43,1.43,0,0,1-.17-.56h.68a.73.73,0,0,0,.26.48,1.2,1.2,0,0,0,.76.22,1.06,1.06,0,0,0,.93-.39,2,2,0,0,0,.24-1.14v-.21a1.6,1.6,0,0,1-1.06.74l-.21,0a1.54,1.54,0,0,1-1.15-.51l0,0A2.45,2.45,0,0,1,215.3,88a2.41,2.41,0,0,1,.68-1.86,1.55,1.55,0,0,1,1.1-.43,1.49,1.49,0,0,1,1.28.73Zm-1.21.5a1,1,0,0,0-1,.72,2.38,2.38,0,0,0-.16.91,1.6,1.6,0,0,0,.62,1.49,1.05,1.05,0,0,0,1.54-.59,2.37,2.37,0,0,0,.14-.87q0-1.2-.66-1.54A1,1,0,0,0,217.16,86.3Z" style="fill:#231f20"/><path d="M232.81,85.69a1.67,1.67,0,0,1,1.67,1,3.06,3.06,0,0,1,.23,1.25,2.16,2.16,0,0,1-.82,1.9,1.84,1.84,0,0,1-1.08.31,1.68,1.68,0,0,1-1.63-1,2.91,2.91,0,0,1-.26-1.29,2.17,2.17,0,0,1,.84-2A1.83,1.83,0,0,1,232.81,85.69Zm0,.62a1.07,1.07,0,0,0-1,.74,2.42,2.42,0,0,0-.15.9,1.6,1.6,0,0,0,.62,1.48,1.08,1.08,0,0,0,.58.15,1.06,1.06,0,0,0,1-.7A2.22,2.22,0,0,0,234,88a1.6,1.6,0,0,0-.66-1.53A1.13,1.13,0,0,0,232.82,86.3Z" style="fill:#231f20"/><path d="M235.64,85.81h.62v.76a1.72,1.72,0,0,1,.93-.86l.21,0,.26,0v.68a1.57,1.57,0,0,0-.82.18l0,0a1.42,1.42,0,0,0-.47,1.22V90h-.67Z" style="fill:#231f20"/><path d="M110.69,96.58H110q0-.67-.84-.67-.66,0-.84.39a.6.6,0,0,0,0,.24q0,.36.53.54l.25.06.64.15q.94.22,1.13.78a1.22,1.22,0,0,1,.06.38,1.17,1.17,0,0,1-.72,1.12,2.24,2.24,0,0,1-1,.21q-1.55,0-1.66-1.3a1.1,1.1,0,0,1,0-.14h.7a1,1,0,0,0,.19.54,1.09,1.09,0,0,0,.83.28,1,1,0,0,0,.9-.38.52.52,0,0,0,.08-.28.54.54,0,0,0-.43-.52l-.22-.06-.62-.15a1.89,1.89,0,0,1-1.2-.64,1.24,1.24,0,0,1,.54-1.65,2,2,0,0,1,.94-.2q1.16,0,1.44.81A1.37,1.37,0,0,1,110.69,96.58Z" style="fill:#231f20"/><path d="M111.74,93.77h.66V96a1.63,1.63,0,0,1,1-.66,2,2,0,0,1,.38,0,1.22,1.22,0,0,1,1.19.59,1.15,1.15,0,0,1,.13.55V99.6h-.66V96.7a.72.72,0,0,0-.27-.63,1,1,0,0,0-.59-.19,1,1,0,0,0-1,.62,1.77,1.77,0,0,0-.17.8V99.6h-.66Z" style="fill:#231f20"/><path d="M117.81,95.29a1.67,1.67,0,0,1,1.67,1,3.05,3.05,0,0,1,.23,1.25,2.15,2.15,0,0,1-.82,1.9,1.84,1.84,0,0,1-1.08.31,1.68,1.68,0,0,1-1.63-1,2.91,2.91,0,0,1-.26-1.3,2.17,2.17,0,0,1,.84-2A1.83,1.83,0,0,1,117.81,95.29Zm0,.62a1.06,1.06,0,0,0-1,.74,2.42,2.42,0,0,0-.15.9,1.6,1.6,0,0,0,.62,1.48,1.08,1.08,0,0,0,.58.15,1.06,1.06,0,0,0,1-.7,2.2,2.2,0,0,0,.17-.9,1.6,1.6,0,0,0-.66-1.53A1.13,1.13,0,0,0,117.81,95.91Z" style="fill:#231f20"/><path d="M124.43,99.6h-.76l-.85-3.29L122,99.6h-.75L120,95.41h.74l.86,3.26.8-3.26h.82l.82,3.26.83-3.26h.75Z" style="fill:#231f20"/><path d="M129.78,97.73h-3.09a1.63,1.63,0,0,0,.22.9,1.12,1.12,0,0,0,1,.54,1.09,1.09,0,0,0,1.1-.84h.67a1.63,1.63,0,0,1-1,1.31,2,2,0,0,1-.78.14,1.7,1.7,0,0,1-1.59-.88,2.67,2.67,0,0,1-.31-1.34,2.29,2.29,0,0,1,.75-1.88,1.79,1.79,0,0,1,1.17-.39,1.74,1.74,0,0,1,1.44.66,1.71,1.71,0,0,1,.26.45A4,4,0,0,1,129.78,97.73Zm-3.07-.54h2.35a.11.11,0,0,0,0,0,1.19,1.19,0,0,0-.47-1,1.11,1.11,0,0,0-.69-.23,1.08,1.08,0,0,0-1,.6A1.66,1.66,0,0,0,126.71,97.19Z" style="fill:#231f20"/><path d="M130.68,95.41h.62v.76a1.73,1.73,0,0,1,.93-.86l.22,0,.26,0V96a1.55,1.55,0,0,0-.82.18l0,0a1.42,1.42,0,0,0-.47,1.22V99.6h-.67Z" style="fill:#231f20"/><path d="M134,93.77v.84h-.67v-.84Zm0,1.64V99.6h-.66V95.41Z" style="fill:#231f20"/><path d="M135.13,95.41h.62v.7a1.6,1.6,0,0,1,1-.79,1.78,1.78,0,0,1,.35,0,1.26,1.26,0,0,1,1.18.56,1.12,1.12,0,0,1,.15.58V99.6h-.66V96.7a.74.74,0,0,0-.47-.75,1,1,0,0,0-.39-.07,1,1,0,0,0-1,.62,1.78,1.78,0,0,0-.17.8V99.6h-.67Z" style="fill:#231f20"/><path d="M142.32,95.41h.62v3.5a3.4,3.4,0,0,1-.33,1.74l-.11.15a1.64,1.64,0,0,1-1.26.53h-.18a1.58,1.58,0,0,1-1.5-.71,1.48,1.48,0,0,1-.17-.56h.68a.73.73,0,0,0,.26.48,1.2,1.2,0,0,0,.76.22,1.06,1.06,0,0,0,.93-.39,2,2,0,0,0,.24-1.14V99a1.6,1.6,0,0,1-1.06.74l-.22,0a1.54,1.54,0,0,1-1.15-.51l0,0a2.45,2.45,0,0,1-.53-1.65,2.41,2.41,0,0,1,.68-1.86,1.55,1.55,0,0,1,1.1-.43,1.49,1.49,0,0,1,1.28.73Zm-1.21.5a1,1,0,0,0-1,.72,2.35,2.35,0,0,0-.16.91,1.6,1.6,0,0,0,.62,1.49,1,1,0,0,0,.54.14,1,1,0,0,0,1-.74,2.41,2.41,0,0,0,.14-.87c0-.8-.22-1.31-.66-1.54A1,1,0,0,0,141.11,95.91Z" style="fill:#231f20"/><path d="M145,98.77v.83h-.83v-.83Z" style="fill:#231f20"/><path d="M107.13,106.09h4.66v.69h-1.94v5.05h-.78v-5.05h-1.94Z" style="fill:#231f20"/><path d="M115,110.52a1.74,1.74,0,0,1-1.88,1.43,1.88,1.88,0,0,1-1.87-2.1c0-1.29.62-2.33,2-2.33,1.21,0,1.8,1,1.8,2.44H112c0,.87.41,1.38,1.22,1.38a1.06,1.06,0,0,0,1.08-.82Zm-.67-1.11c0-.65-.31-1.25-1.17-1.25a1.23,1.23,0,0,0-1.16,1.25Z" style="fill:#231f20"/><path d="M115.91,107.65h.66v.59h0a1.47,1.47,0,0,1,1.26-.71,1.13,1.13,0,0,1,1.11.68,1.53,1.53,0,0,1,1.28-.68,1.26,1.26,0,0,1,1.29,1.41v2.89h-.7v-2.7c0-.58-.18-1-.78-1a1.06,1.06,0,0,0-1,1.12v2.55h-.7v-2.89c0-.35-.14-.78-.66-.78s-1.1.26-1.1,1.39v2.28h-.7Z" style="fill:#231f20"/><path d="M122.52,107.65h.66v.59h0a1.41,1.41,0,0,1,1.25-.71c1.11,0,1.74.91,1.74,2.09,0,1-.42,2.33-1.84,2.33a1.25,1.25,0,0,1-1.11-.56h0v2.1h-.7Zm1.81,3.69c.77,0,1.13-.7,1.13-1.62,0-.54-.06-1.57-1.14-1.57s-1.13,1.09-1.13,1.77C123.19,111.05,123.89,111.35,124.33,111.35Z" style="fill:#231f20"/><path d="M130.57,110.52a1.74,1.74,0,0,1-1.88,1.43,1.88,1.88,0,0,1-1.87-2.1c0-1.29.62-2.33,2-2.33,1.21,0,1.8,1,1.8,2.44h-3.05c0,.87.41,1.38,1.21,1.38a1.06,1.06,0,0,0,1.08-.82Zm-.67-1.11c0-.65-.31-1.25-1.17-1.25a1.23,1.23,0,0,0-1.16,1.25Z" style="fill:#231f20"/><path d="M132.27,111.83h-.7v-4.18h.66v.7h0a1.36,1.36,0,0,1,1.18-.82.58.58,0,0,1,.18,0v.73h-.26a1.06,1.06,0,0,0-1.07,1.12Z" style="fill:#231f20"/><path d="M134,108.92c0-1,.7-1.39,1.73-1.39.34,0,1.55.1,1.55,1.17v2.41c0,.18.09.25.23.25l.23,0v.51a1.29,1.29,0,0,1-.38.08c-.62,0-.72-.32-.74-.64a1.9,1.9,0,0,1-1.51.68,1.21,1.21,0,0,1-1.31-1.21,1.26,1.26,0,0,1,1.27-1.31l1.16-.14c.17,0,.37-.08.37-.5s-.32-.68-1-.68a.83.83,0,0,0-1,.81Zm2.58.78c-.11.09-.29.15-1.16.26-.34,0-.89.15-.89.68a.66.66,0,0,0,.76.73c.66,0,1.3-.42,1.3-1Z" style="fill:#231f20"/><path d="M139.37,108.24V111c0,.33.28.33.42.33H140v.55l-.53.06c-.7,0-.85-.39-.85-.89v-2.76h-.57v-.58h.57v-1.17h.7v1.17H140v.58Z" style="fill:#231f20"/><path d="M143.45,111.83v-.61l0,0a1.38,1.38,0,0,1-1.33.74,1.23,1.23,0,0,1-1.36-1.29v-3h.7v2.77c0,.69.35.92.81.92.89,0,1.15-.78,1.15-1.39v-2.3h.7v4.18Z" style="fill:#231f20"/><path d="M146,111.83h-.7v-4.18h.66v.7h0a1.36,1.36,0,0,1,1.18-.82.58.58,0,0,1,.18,0v.73H147A1.06,1.06,0,0,0,146,109.4Z" style="fill:#231f20"/><path d="M151.39,110.52a1.74,1.74,0,0,1-1.88,1.43,1.88,1.88,0,0,1-1.87-2.1c0-1.29.62-2.33,2-2.33,1.21,0,1.8,1,1.8,2.44h-3.05c0,.87.41,1.38,1.22,1.38a1.06,1.06,0,0,0,1.08-.82Zm-.67-1.11c0-.65-.31-1.25-1.17-1.25a1.23,1.23,0,0,0-1.16,1.25Z" style="fill:#231f20"/><path d="M161.9,111.83h-.7v-5.74h.7Z" style="fill:#231f20"/><path d="M163,106.89v-.8h.7v.8Zm.7,4.94H163v-4.18h.7Z" style="fill:#231f20"/><path d="M164.74,107.65h.66v.59h0a1.47,1.47,0,0,1,1.26-.71,1.13,1.13,0,0,1,1.11.68,1.53,1.53,0,0,1,1.28-.68,1.26,1.26,0,0,1,1.29,1.41v2.89h-.7v-2.7c0-.58-.18-1-.78-1a1.06,1.06,0,0,0-1,1.12v2.55h-.7v-2.89c0-.35-.14-.78-.66-.78s-1.1.26-1.1,1.39v2.28h-.7Z" style="fill:#231f20"/><path d="M171.42,106.89v-.8h.7v.8Zm.7,4.94h-.7v-4.18h.7Z" style="fill:#231f20"/><path d="M174,108.24V111c0,.33.28.33.42.33h.25v.55l-.53.06c-.7,0-.85-.39-.85-.89v-2.76h-.57v-.58h.57v-1.17h.7v1.17h.67v.58Z" style="fill:#231f20"/><path d="M175.42,106.89v-.8h.7v.8Zm.7,4.94h-.7v-4.18h.7Z" style="fill:#231f20"/><path d="M180.58,111.83h-.7v-2.58c0-.73-.21-1.09-.9-1.09-.4,0-1.1.26-1.1,1.39v2.28h-.7v-4.18h.66v.59h0a1.51,1.51,0,0,1,1.26-.71,1.32,1.32,0,0,1,1.46,1.46Z" style="fill:#231f20"/><path d="M185.09,111.49a1.79,1.79,0,0,1-1.94,2.1,1.44,1.44,0,0,1-1.6-1.25h.7a.86.86,0,0,0,.94.66c1.21,0,1.19-1,1.19-1.47v-.18h0v0a1.25,1.25,0,0,1-1.11.56c-1.42,0-1.84-1.34-1.84-2.33,0-1.17.63-2.09,1.74-2.09a1.41,1.41,0,0,1,1.25.71h0v-.59h.66Zm-1.81-.14c.45,0,1.14-.3,1.14-1.41,0-.68-.11-1.77-1.13-1.77s-1.14,1-1.14,1.57C182.15,110.65,182.51,111.35,183.28,111.35Z" style="fill:#231f20"/><path d="M197.61,107.65h.77l-1.59,4.18H196l-1.53-4.18h.82l1.09,3.41h0Z" style="fill:#231f20"/><path d="M198.74,108.92c0-1,.7-1.39,1.73-1.39.34,0,1.55.1,1.55,1.17v2.41c0,.18.09.25.23.25l.23,0v.51a1.31,1.31,0,0,1-.38.08c-.62,0-.72-.32-.74-.64a1.9,1.9,0,0,1-1.51.68,1.21,1.21,0,0,1-1.31-1.21,1.26,1.26,0,0,1,1.27-1.31l1.16-.14c.17,0,.37-.08.37-.5s-.32-.68-1-.68a.83.83,0,0,0-1,.81Zm2.57.78c-.11.09-.29.15-1.16.26-.34,0-.9.15-.9.68a.66.66,0,0,0,.76.73c.66,0,1.29-.42,1.29-1Z" style="fill:#231f20"/><path d="M203.93,111.83h-.7v-5.74h.7Z" style="fill:#231f20"/><path d="M207.64,107.65h.77l-1.59,4.18h-.75l-1.53-4.18h.82l1.09,3.41h0Z" style="fill:#231f20"/><path d="M212.34,110.52a1.74,1.74,0,0,1-1.88,1.43,1.88,1.88,0,0,1-1.87-2.1c0-1.29.62-2.33,2-2.33,1.21,0,1.8,1,1.8,2.44h-3.05c0,.87.41,1.38,1.21,1.38a1.06,1.06,0,0,0,1.08-.82Zm-.67-1.11c0-.65-.31-1.25-1.17-1.25a1.23,1.23,0,0,0-1.16,1.25Z" style="fill:#231f20"/><path d="M215.61,108.84c0-.26-.1-.7-1-.7-.22,0-.83.07-.83.59,0,.34.22.42.76.56l.7.18c.87.21,1.18.54,1.18,1.1,0,.86-.71,1.38-1.66,1.38-1.66,0-1.77-1-1.8-1.46h.68c0,.33.12.86,1.11.86.5,0,1-.2,1-.66s-.23-.45-.83-.6l-.82-.2c-.58-.14-1-.44-1-1,0-.92.76-1.34,1.58-1.34,1.49,0,1.6,1.1,1.6,1.31Z" style="fill:#231f20"/><path d="M228.33,108.92c0-1,.7-1.39,1.73-1.39.34,0,1.55.1,1.55,1.17v2.41c0,.18.09.25.23.25l.23,0v.51a1.31,1.31,0,0,1-.38.08c-.62,0-.72-.32-.74-.64a1.9,1.9,0,0,1-1.51.68,1.21,1.21,0,0,1-1.31-1.21,1.26,1.26,0,0,1,1.27-1.31l1.16-.14c.17,0,.37-.08.37-.5s-.32-.68-1-.68a.83.83,0,0,0-1,.81Zm2.57.78c-.11.09-.29.15-1.16.26-.34,0-.9.15-.9.68a.66.66,0,0,0,.76.73c.66,0,1.29-.42,1.29-1Z" style="fill:#231f20"/><path d="M233.61,111.83h-.7v-4.18h.66v.7h0a1.36,1.36,0,0,1,1.17-.82.58.58,0,0,1,.18,0v.73h-.26a1.06,1.06,0,0,0-1.07,1.12Z" style="fill:#231f20"/><path d="M239,110.52a1.74,1.74,0,0,1-1.88,1.43,1.88,1.88,0,0,1-1.87-2.1c0-1.29.62-2.33,2-2.33,1.21,0,1.8,1,1.8,2.44H236c0,.87.41,1.38,1.21,1.38a1.06,1.06,0,0,0,1.08-.82Zm-.67-1.11c0-.65-.31-1.25-1.17-1.25a1.23,1.23,0,0,0-1.16,1.25Z" style="fill:#231f20"/><path d="M107.51,118.52c0-1,.7-1.39,1.73-1.39.34,0,1.55.1,1.55,1.17v2.41c0,.18.09.25.23.25l.23,0v.51a1.33,1.33,0,0,1-.38.08c-.62,0-.72-.32-.74-.64a1.9,1.9,0,0,1-1.51.68,1.2,1.2,0,0,1-1.31-1.21,1.26,1.26,0,0,1,1.27-1.31l1.16-.14c.17,0,.37-.08.37-.5s-.32-.68-1-.68a.83.83,0,0,0-1,.81Zm2.57.78c-.11.09-.29.15-1.16.26-.34,0-.9.15-.9.68a.66.66,0,0,0,.76.73c.66,0,1.3-.42,1.3-1Z" style="fill:#231f20"/><path d="M114.47,117.25h.77l-1.59,4.18h-.75l-1.53-4.18h.82l1.09,3.41h0Z" style="fill:#231f20"/><path d="M115.6,118.52c0-1,.7-1.39,1.73-1.39.34,0,1.55.1,1.55,1.17v2.41c0,.18.09.25.23.25l.23,0v.51a1.33,1.33,0,0,1-.38.08c-.62,0-.72-.32-.74-.64a1.9,1.9,0,0,1-1.51.68,1.2,1.2,0,0,1-1.31-1.21,1.26,1.26,0,0,1,1.27-1.31l1.16-.14c.17,0,.37-.08.37-.5s-.32-.68-1-.68a.83.83,0,0,0-1,.81Zm2.57.78c-.11.09-.29.15-1.16.26-.34,0-.9.15-.9.68a.66.66,0,0,0,.76.73c.66,0,1.3-.42,1.3-1Z" style="fill:#231f20"/><path d="M120.09,116.49v-.8h.7v.8Zm.7,4.94h-.7v-4.18h.7Z" style="fill:#231f20"/><path d="M122.57,121.44h-.7v-5.74h.7Z" style="fill:#231f20"/><path d="M123.6,118.52c0-1,.7-1.39,1.73-1.39.34,0,1.55.1,1.55,1.17v2.41c0,.18.09.25.23.25l.23,0v.51a1.32,1.32,0,0,1-.38.08c-.62,0-.72-.32-.74-.64a1.9,1.9,0,0,1-1.51.68,1.2,1.2,0,0,1-1.31-1.21,1.26,1.26,0,0,1,1.27-1.31l1.16-.14c.17,0,.37-.08.37-.5s-.32-.68-1-.68a.83.83,0,0,0-1,.81Zm2.57.78c-.11.09-.29.15-1.16.26-.34,0-.9.15-.9.68a.66.66,0,0,0,.76.73c.66,0,1.3-.42,1.3-1Z" style="fill:#231f20"/><path d="M128,121.44v-5.74h.7v2.09h0a1.43,1.43,0,0,1,1.21-.65c1.11,0,1.74.91,1.74,2.09,0,1-.42,2.33-1.84,2.33a1.25,1.25,0,0,1-1.15-.64h0v.52Zm1.8-3.67c-1,0-1.13,1.09-1.13,1.77,0,1.11.7,1.41,1.14,1.41.77,0,1.13-.7,1.13-1.62C131,118.8,130.9,117.77,129.81,117.77Z" style="fill:#231f20"/><path d="M133.08,121.44h-.7v-5.74h.7Z" style="fill:#231f20"/><path d="M137.68,120.12a1.74,1.74,0,0,1-1.88,1.43,1.88,1.88,0,0,1-1.87-2.09c0-1.29.62-2.33,2-2.33,1.21,0,1.8,1,1.8,2.44h-3.05c0,.87.41,1.38,1.21,1.38a1.06,1.06,0,0,0,1.08-.82ZM137,119c0-.65-.31-1.25-1.17-1.25a1.23,1.23,0,0,0-1.16,1.25Z" style="fill:#231f20"/><path d="M139.47,121.44h-.83v-.85h.83Z" style="fill:#231f20"/><path d="M108.49,133.5h-.78v-5.74h2.65c.94,0,1.89.33,1.89,1.54a1.42,1.42,0,0,1-.8,1.38c.33.14.66.28.69,1.08l0,1c0,.32,0,.44.29.58v.13h-1a7,7,0,0,1-.14-1.44c0-.47-.1-1-1-1h-1.88Zm0-3.13h1.8c.57,0,1.17-.14,1.17-1s-.65-1-1-1h-1.94Z" style="fill:#231f20"/><path d="M116.86,132.19a1.74,1.74,0,0,1-1.88,1.43,1.88,1.88,0,0,1-1.87-2.1c0-1.29.62-2.33,2-2.33,1.21,0,1.8,1,1.8,2.44h-3.05c0,.87.41,1.38,1.22,1.38a1.06,1.06,0,0,0,1.08-.82Zm-.67-1.11c0-.65-.31-1.25-1.17-1.25a1.23,1.23,0,0,0-1.16,1.25Z" style="fill:#231f20"/><path d="M117.73,130.59c0-1,.7-1.39,1.73-1.39.34,0,1.55.1,1.55,1.17v2.41c0,.18.09.25.23.25l.23,0v.51a1.3,1.3,0,0,1-.38.08c-.62,0-.72-.32-.74-.64a1.9,1.9,0,0,1-1.51.68,1.21,1.21,0,0,1-1.31-1.21,1.26,1.26,0,0,1,1.27-1.31L120,131c.17,0,.37-.08.37-.5s-.32-.68-1-.68a.83.83,0,0,0-1,.81Zm2.57.78c-.11.09-.29.15-1.16.26-.34,0-.9.15-.9.68a.66.66,0,0,0,.76.73c.66,0,1.3-.42,1.3-1Z" style="fill:#231f20"/><path d="M125.68,133.5H125v-.58h0a1.26,1.26,0,0,1-1.19.7c-1.42,0-1.84-1.34-1.84-2.33,0-1.17.63-2.09,1.74-2.09a1.41,1.41,0,0,1,1.25.71l0-.06v-2.1h.7Zm-1.85-.49c.45,0,1.14-.3,1.14-1.41,0-.68-.11-1.77-1.13-1.77s-1.14,1-1.14,1.57C122.69,132.32,123.05,133,123.82,133Z" style="fill:#231f20"/><path d="M133.34,128.56v-.8h.7v.8Zm.7,4.94h-.7v-4.18h.7Z" style="fill:#231f20"/><path d="M138.51,133.5h-.7v-2.58c0-.73-.21-1.09-.9-1.09-.4,0-1.1.26-1.1,1.39v2.28h-.7v-4.18h.66v.59h0a1.52,1.52,0,0,1,1.26-.71,1.32,1.32,0,0,1,1.46,1.46Z" style="fill:#231f20"/><path d="M141.93,130.51c0-.26-.1-.7-1-.7-.22,0-.83.07-.83.59,0,.34.22.42.76.56l.7.18c.87.21,1.18.54,1.18,1.1,0,.86-.71,1.38-1.66,1.38-1.66,0-1.77-1-1.8-1.46H140c0,.33.12.86,1.11.86.5,0,1-.2,1-.66s-.23-.45-.83-.6l-.82-.2c-.58-.14-1-.44-1-1,0-.92.76-1.34,1.58-1.34,1.49,0,1.6,1.1,1.6,1.31Z" style="fill:#231f20"/><path d="M144.42,129.9v2.72c0,.33.28.33.42.33h.25v.55l-.53.06c-.7,0-.85-.39-.85-.89V129.9h-.57v-.58h.57v-1.17h.7v1.17h.67v.58Z" style="fill:#231f20"/><path d="M146.58,133.5h-.7v-4.18h.66v.7h0a1.36,1.36,0,0,1,1.17-.82.59.59,0,0,1,.18,0V130h-.26a1.06,1.06,0,0,0-1.07,1.12Z" style="fill:#231f20"/><path d="M151.29,133.5v-.61l0,0a1.38,1.38,0,0,1-1.33.74,1.23,1.23,0,0,1-1.36-1.29v-3h.7v2.77c0,.69.35.92.81.92.89,0,1.15-.78,1.15-1.39v-2.3h.7v4.18Z" style="fill:#231f20"/><path d="M155.62,130.73a.93.93,0,0,0-1-.9c-.87,0-1.15.83-1.15,1.58s.18,1.61,1.14,1.61a1.07,1.07,0,0,0,1-1h.68a1.65,1.65,0,0,1-1.7,1.6,1.88,1.88,0,0,1-1.87-2.1c0-1.29.62-2.33,2-2.33a1.51,1.51,0,0,1,1.57,1.53Z" style="fill:#231f20"/><path d="M157.87,129.9v2.72c0,.33.28.33.42.33h.25v.55l-.53.06c-.7,0-.85-.39-.85-.89V129.9h-.57v-.58h.57v-1.17h.7v1.17h.67v.58Z" style="fill:#231f20"/><path d="M159.25,128.56v-.8h.7v.8Zm.7,4.94h-.7v-4.18h.7Z" style="fill:#231f20"/><path d="M162.71,129.2a2.22,2.22,0,1,1-1.94,2.21A2,2,0,0,1,162.71,129.2Zm0,3.81c1,0,1.21-1,1.21-1.6s-.21-1.6-1.21-1.6-1.21,1-1.21,1.6S161.7,133,162.71,133Z" style="fill:#231f20"/><path d="M168.86,133.5h-.7v-2.58c0-.73-.21-1.09-.9-1.09-.4,0-1.1.26-1.1,1.39v2.28h-.7v-4.18h.66v.59h0a1.52,1.52,0,0,1,1.26-.71,1.32,1.32,0,0,1,1.46,1.46Z" style="fill:#231f20"/><path d="M176.58,129.32h.66v.59h0a1.47,1.47,0,0,1,1.26-.71,1.13,1.13,0,0,1,1.11.68,1.53,1.53,0,0,1,1.28-.68,1.26,1.26,0,0,1,1.29,1.41v2.89h-.7v-2.7c0-.58-.18-1-.78-1a1.06,1.06,0,0,0-1,1.12v2.55H179v-2.89c0-.35-.14-.78-.66-.78s-1.1.26-1.1,1.39v2.28h-.7Z" style="fill:#231f20"/><path d="M183.21,130.59c0-1,.7-1.39,1.73-1.39.34,0,1.55.1,1.55,1.17v2.41c0,.18.09.25.23.25l.23,0v.51a1.29,1.29,0,0,1-.38.08c-.62,0-.72-.32-.74-.64a1.9,1.9,0,0,1-1.51.68,1.21,1.21,0,0,1-1.31-1.21,1.26,1.26,0,0,1,1.27-1.31l1.16-.14c.17,0,.37-.08.37-.5s-.32-.68-1-.68a.83.83,0,0,0-1,.81Zm2.58.78c-.11.09-.29.15-1.16.26-.34,0-.89.15-.89.68a.66.66,0,0,0,.76.73c.66,0,1.3-.42,1.3-1Z" style="fill:#231f20"/><path d="M191.09,133.5h-.7v-2.58c0-.73-.21-1.09-.9-1.09-.4,0-1.1.26-1.1,1.39v2.28h-.7v-4.18h.66v.59h0a1.52,1.52,0,0,1,1.26-.71,1.32,1.32,0,0,1,1.46,1.46Z" style="fill:#231f20"/><path d="M194.78,133.5v-.61l0,0a1.38,1.38,0,0,1-1.33.74,1.23,1.23,0,0,1-1.36-1.29v-3h.7v2.77c0,.69.35.92.81.92.89,0,1.15-.78,1.15-1.39v-2.3h.7v4.18Z" style="fill:#231f20"/><path d="M196.48,130.59c0-1,.7-1.39,1.73-1.39.34,0,1.55.1,1.55,1.17v2.41c0,.18.09.25.23.25l.23,0v.51a1.31,1.31,0,0,1-.38.08c-.62,0-.72-.32-.74-.64a1.9,1.9,0,0,1-1.51.68,1.21,1.21,0,0,1-1.31-1.21,1.26,1.26,0,0,1,1.27-1.31l1.16-.14c.17,0,.37-.08.37-.5s-.32-.68-1-.68a.83.83,0,0,0-1,.81Zm2.57.78c-.11.09-.29.15-1.16.26-.34,0-.9.15-.9.68a.66.66,0,0,0,.76.73c.66,0,1.29-.42,1.29-1Z" style="fill:#231f20"/><path d="M201.67,133.5H201v-5.74h.7Z" style="fill:#231f20"/><path d="M210.27,129.9v3.6h-.7v-3.6H209v-.58h.58v-.72c0-.63.4-.92,1.09-.92l.32,0v.63l-.29,0c-.3,0-.42.15-.42.49v.52h.7v.58Z" style="fill:#231f20"/><path d="M213.09,129.2a2.23,2.23,0,1,1-1.94,2.21A2,2,0,0,1,213.09,129.2Zm0,3.81c1,0,1.22-1,1.22-1.6s-.21-1.6-1.22-1.6-1.22,1-1.22,1.6S212.08,133,213.09,133Z" style="fill:#231f20"/><path d="M216.63,133.5h-.7v-4.18h.66v.7h0a1.36,1.36,0,0,1,1.18-.82.58.58,0,0,1,.18,0V130h-.26a1.06,1.06,0,0,0-1.07,1.12Z" style="fill:#231f20"/><path d="M227.54,130.51c0-.26-.1-.7-1-.7-.22,0-.83.07-.83.59,0,.34.22.42.76.56l.7.18c.87.21,1.17.54,1.17,1.1,0,.86-.71,1.38-1.65,1.38-1.66,0-1.78-1-1.8-1.46h.68c0,.33.12.86,1.11.86.5,0,1-.2,1-.66s-.23-.45-.83-.6l-.81-.2c-.58-.14-1-.44-1-1,0-.92.76-1.34,1.58-1.34,1.5,0,1.6,1.1,1.6,1.31Z" style="fill:#231f20"/><path d="M229.14,130.59c0-1,.7-1.39,1.73-1.39.34,0,1.55.1,1.55,1.17v2.41c0,.18.09.25.23.25l.23,0v.51a1.29,1.29,0,0,1-.38.08c-.62,0-.72-.32-.74-.64a1.9,1.9,0,0,1-1.51.68,1.21,1.21,0,0,1-1.31-1.21,1.26,1.26,0,0,1,1.27-1.31l1.16-.14c.17,0,.37-.08.37-.5s-.32-.68-1-.68a.83.83,0,0,0-1,.81Zm2.58.78c-.11.09-.29.15-1.16.26-.34,0-.89.15-.89.68a.66.66,0,0,0,.76.73c.66,0,1.3-.42,1.3-1Z" style="fill:#231f20"/><path d="M234.49,129.9v3.6h-.7v-3.6h-.58v-.58h.58v-.72c0-.63.4-.92,1.09-.92l.32,0v.63l-.29,0c-.3,0-.42.15-.42.49v.52h.7v.58Z" style="fill:#231f20"/><path d="M239.15,132.19a1.74,1.74,0,0,1-1.88,1.43,1.88,1.88,0,0,1-1.87-2.1c0-1.29.62-2.33,2-2.33,1.21,0,1.8,1,1.8,2.44h-3.05c0,.87.41,1.38,1.22,1.38a1.06,1.06,0,0,0,1.08-.82Zm-.67-1.11c0-.65-.31-1.25-1.17-1.25a1.23,1.23,0,0,0-1.16,1.25Z" style="fill:#231f20"/><path d="M108.4,139.5v2.72c0,.33.28.33.42.33h.25v.55l-.53.06c-.7,0-.85-.39-.85-.9V139.5h-.57v-.58h.57v-1.17h.7v1.17h.67v.58Z" style="fill:#231f20"/><path d="M113.31,141.79a1.74,1.74,0,0,1-1.88,1.43,1.88,1.88,0,0,1-1.87-2.09c0-1.29.62-2.33,2-2.33,1.21,0,1.8,1,1.8,2.44h-3.05c0,.87.41,1.38,1.22,1.38a1.06,1.06,0,0,0,1.08-.82Zm-.67-1.11c0-.65-.31-1.25-1.17-1.25a1.23,1.23,0,0,0-1.16,1.25Z" style="fill:#231f20"/><path d="M114.21,138.92h.66v.59h0a1.47,1.47,0,0,1,1.26-.71,1.13,1.13,0,0,1,1.11.68,1.53,1.53,0,0,1,1.28-.68,1.26,1.26,0,0,1,1.29,1.41v2.89h-.7v-2.7c0-.58-.18-1-.78-1a1.06,1.06,0,0,0-1,1.12v2.55h-.7v-2.89c0-.35-.14-.78-.66-.78s-1.1.26-1.1,1.39v2.28h-.7Z" style="fill:#231f20"/><path d="M120.82,138.92h.66v.59h0a1.41,1.41,0,0,1,1.25-.71c1.11,0,1.74.91,1.74,2.09,0,1-.42,2.33-1.84,2.33a1.26,1.26,0,0,1-1.11-.56h0v2.09h-.7Zm1.81,3.69c.77,0,1.13-.7,1.13-1.62,0-.54-.06-1.57-1.14-1.57s-1.13,1.09-1.13,1.77C121.49,142.32,122.18,142.61,122.63,142.61Z" style="fill:#231f20"/><path d="M128.87,141.79a1.74,1.74,0,0,1-1.88,1.43,1.88,1.88,0,0,1-1.87-2.09c0-1.29.62-2.33,2-2.33,1.21,0,1.8,1,1.8,2.44h-3.05c0,.87.41,1.38,1.22,1.38a1.06,1.06,0,0,0,1.08-.82Zm-.67-1.11c0-.65-.31-1.25-1.17-1.25a1.23,1.23,0,0,0-1.16,1.25Z" style="fill:#231f20"/><path d="M130.57,143.1h-.7v-4.18h.66v.7h0a1.36,1.36,0,0,1,1.17-.82.58.58,0,0,1,.18,0v.73h-.26a1.06,1.06,0,0,0-1.07,1.12Z" style="fill:#231f20"/><path d="M132.33,140.19c0-1,.7-1.39,1.73-1.39.34,0,1.55.1,1.55,1.17v2.41c0,.18.09.25.23.25l.23,0v.51a1.33,1.33,0,0,1-.38.08c-.62,0-.72-.32-.74-.64a1.9,1.9,0,0,1-1.51.68,1.21,1.21,0,0,1-1.31-1.21,1.26,1.26,0,0,1,1.27-1.31l1.16-.14c.17,0,.37-.08.37-.5s-.32-.68-1-.68a.83.83,0,0,0-1,.81Zm2.57.78c-.11.09-.29.15-1.16.26-.34,0-.9.15-.9.68a.66.66,0,0,0,.76.73c.66,0,1.29-.42,1.29-1Z" style="fill:#231f20"/><path d="M137.66,139.5v2.72c0,.33.28.33.42.33h.25v.55l-.53.06c-.7,0-.85-.39-.85-.9V139.5h-.57v-.58H137v-1.17h.7v1.17h.67v.58Z" style="fill:#231f20"/><path d="M141.75,143.1v-.61l0,0a1.38,1.38,0,0,1-1.33.74,1.23,1.23,0,0,1-1.36-1.29v-3h.7v2.77c0,.69.35.92.81.92.89,0,1.15-.78,1.15-1.39v-2.3h.7v4.18Z" style="fill:#231f20"/><path d="M144.27,143.1h-.7v-4.18h.66v.7h0a1.36,1.36,0,0,1,1.18-.82.58.58,0,0,1,.18,0v.73h-.26a1.06,1.06,0,0,0-1.07,1.12Z" style="fill:#231f20"/><path d="M149.68,141.79a1.74,1.74,0,0,1-1.88,1.43,1.88,1.88,0,0,1-1.87-2.09c0-1.29.62-2.33,2-2.33,1.21,0,1.8,1,1.8,2.44h-3.05c0,.87.41,1.38,1.21,1.38a1.06,1.06,0,0,0,1.08-.82Zm-.67-1.11c0-.65-.31-1.25-1.17-1.25a1.23,1.23,0,0,0-1.16,1.25Z" style="fill:#231f20"/><path d="M157.41,140.11c0-.26-.1-.7-1-.7-.22,0-.83.07-.83.59,0,.34.22.42.76.56l.7.18c.87.22,1.18.54,1.18,1.1,0,.86-.71,1.38-1.66,1.38-1.66,0-1.77-1-1.8-1.46h.68c0,.33.12.86,1.11.86.5,0,1-.2,1-.66s-.23-.45-.83-.6l-.82-.2c-.58-.14-1-.44-1-1,0-.92.76-1.34,1.58-1.34,1.49,0,1.6,1.1,1.6,1.31Z" style="fill:#231f20"/><path d="M162.58,141.79a1.74,1.74,0,0,1-1.88,1.43,1.88,1.88,0,0,1-1.87-2.09c0-1.29.62-2.33,2-2.33,1.21,0,1.8,1,1.8,2.44h-3.05c0,.87.41,1.38,1.21,1.38a1.06,1.06,0,0,0,1.08-.82Zm-.67-1.11c0-.65-.31-1.25-1.17-1.25a1.23,1.23,0,0,0-1.16,1.25Z" style="fill:#231f20"/><path d="M164.34,139.5v2.72c0,.33.28.33.42.33H165v.55l-.53.06c-.7,0-.85-.39-.85-.9V139.5h-.57v-.58h.57v-1.17h.7v1.17H165v.58Z" style="fill:#231f20"/><path d="M166.57,139.5v2.72c0,.33.28.33.42.33h.25v.55l-.53.06c-.7,0-.85-.39-.85-.9V139.5h-.57v-.58h.57v-1.17h.7v1.17h.67v.58Z" style="fill:#231f20"/><path d="M167.94,138.16v-.8h.7v.8Zm.7,4.94h-.7v-4.18h.7Z" style="fill:#231f20"/><path d="M173.11,143.1h-.7v-2.58c0-.73-.21-1.09-.89-1.09-.4,0-1.1.26-1.1,1.39v2.28h-.7v-4.18h.66v.59h0a1.52,1.52,0,0,1,1.26-.71,1.32,1.32,0,0,1,1.46,1.46Z" style="fill:#231f20"/><path d="M177.62,142.76a1.79,1.79,0,0,1-1.94,2.1,1.44,1.44,0,0,1-1.6-1.25h.7a.86.86,0,0,0,.94.66c1.22,0,1.19-1,1.19-1.47v-.18h0v0a1.26,1.26,0,0,1-1.11.56c-1.42,0-1.84-1.33-1.84-2.33,0-1.18.63-2.09,1.74-2.09a1.41,1.41,0,0,1,1.25.71h0v-.59h.66Zm-1.82-.14c.45,0,1.14-.3,1.14-1.41,0-.68-.11-1.77-1.13-1.77s-1.14,1-1.14,1.57C174.68,141.92,175,142.61,175.81,142.61Z" style="fill:#231f20"/><path d="M179.61,143.1h-.83v-.85h.83Z" style="fill:#231f20"/></svg>