<svg id="Layer_1" data-name="Layer 1" xmlns="http://www.w3.org/2000/svg" xmlns:xlink="http://www.w3.org/1999/xlink" viewBox="0 0 255.7 110.37"><defs><clipPath id="clip-path"><rect x="0.5" y="0.5" width="254.7" height="109.37" style="fill:none"/></clipPath><clipPath id="clip-path-6"><rect x="0.5" y="0.5" width="254.7" height="109.37" style="fill:none;stroke:#000;stroke-miterlimit:10"/></clipPath></defs><title>danger-burn_hzrd_hot_wtr</title><g style="clip-path:url(#clip-path)"><path d="M28.53,61.51l3.75,0c.24-4.16,2.5-5.45,3-5.87h0l0-3.25c-2.27-1.49-2.74-4.77-2.74-6.49l-3.26,0c.07,2.8-1.45,5.42-3.43,6.32v3.54a8.12,8.12,0,0,1,2.66,5.72ZM27.38,46c0,.75-.37,3.53-1.85,4.27l-4.09-.06c1.48-.74,1.86-3.48,1.83-4.23Zm-7.27,9.86.05-4.09,4.09.06-.05,4.08Zm6.32,5.87c0-.76-.29-3.54-1.75-4.31l-4.09,0c1.46.78,1.78,3.52,1.73,4.27Zm3.86-8.28c.13-.46.39-.77.7-.77s.78.64.78,1.42-.35,1.42-.78,1.42-.58-.33-.71-.81m-12.77,6a7.16,7.16,0,0,1-4.65,1.76c-4.17,0-7.56-3.76-7.56-8.4s3.38-8.4,7.56-8.4a7,7,0,0,1,4.08,1.33l4.3.11a8.74,8.74,0,0,0-3,6.62c0,3,.38,5.76,2,7ZM108.7,77.12,90.85,66.54l-4.59,1.34m9.15-9.53,14.27,8.45" style="fill:none;stroke:#231f20;stroke-width:1.207px"/></g><line x1="95.09" y1="58.25" x2="95.09" y2="25.6" style="fill:none;stroke:#231f20;stroke-width:1.0010000000000001px"/><g style="clip-path:url(#clip-path)"><path d="M53.09,54.21c-1.31,3.35-3.88,5.62-6.83,5.62-4.29,0-7.76-4.79-7.76-10.71S42,38.41,46.25,38.41c2.85,0,5.34,2.12,6.69,5.27M51.37,54.22c-1.1,2.13-2.86,3.5-4.85,3.5-3.33,0-6-3.85-6-8.6s2.7-8.6,6-8.6a5.58,5.58,0,0,1,4.67,3.17m0,0,0,.08M46.06,54c-1.76,0-3.18-2.29-3.18-5.11s1.42-5.12,3.18-5.12m-.29,0,20.94,0c4.05-.14,12.32,3.22,8.7,16.35l-7.74-.05c-1.58-2.76-1.81-5.85-6.13-5.85L45.85,54m30.42-9.65,3.29,0a6.2,6.2,0,0,1,2.61-5.16h0l0-2.86c-2-1.31-2.41-4.2-2.41-5.71l-2.86,0a6,6,0,0,1-3,5.56v3.11a7.14,7.14,0,0,1,2.34,5Zm-1-13.67c0,.66-.33,3.1-1.62,3.76l-3.6,0c1.3-.65,1.63-3.06,1.61-3.72Zm-6.39,8.67,0-3.6,3.6,0,0,3.58Zm5.56,5.16c0-.66-.26-3.11-1.54-3.79l-3.6,0c1.28.68,1.56,3.09,1.52,3.76Zm3.39-7.28c.11-.4.35-.68.61-.68s.69.56.69,1.25-.31,1.25-.69,1.25-.51-.29-.62-.72M58.52,43.67a7.68,7.68,0,0,1-2.68-5.93c0-4.08,3-7.39,6.65-7.39a6.15,6.15,0,0,1,3.59,1.17l3.78.1a7.69,7.69,0,0,0-2.62,5.82c0,2.61.33,5.07,1.77,6.15H66.58M61.76,87.05a1.46,1.46,0,0,0,.43-.22c.7-.49,1-1.55,1.39-.22s-.75-.52-.33.59-.14,2.7.77,1.58-.27-.88,1-.49c.31.09.57.08.55.15-.15.68-.47,1-.28,1.27.75,1.12.21,1.9,1.12.71.66-.86,0-1.58.93-1.12s1.27-.65,1.27.68-.46.22.28,1,.75,1.6,1,.41-.49-1.61.42-1.4.7-.77,1,.42.37.8.7,1.18c.5.56.77,1.27.77,0S72.18,90,72.88,90s.56-.42,1,.56,0,.56.49,1,1.19,1.05,1.19.49.07.21-.07-.91-.7-2.09.56-1.32c1,.6.55,1.92,1.52,1.61s.19-1.32.18-1.33c-.17-.39-.29-.91-.31-.85-.07.28-.35-.49.77-.21s.47.9,1,.9.75-.4.4-1.24-1.86-.35-.25-.84,1.82-.5,1.26-.58A17.48,17.48,0,0,0,78.75,87m-11-26.26-6.3,22.76a1.68,1.68,0,0,0,.51.57" style="fill:none;stroke:#231f20;stroke-width:1.207px"/><path d="M66,99.06h1a1,1,0,0,0,.69-.17.58.58,0,0,0,.2-.46.54.54,0,0,0-.2-.43,1.11,1.11,0,0,0-.69-.16H66Zm0-2.39h.82a1,1,0,0,0,.61-.15.56.56,0,0,0,.17-.44.53.53,0,0,0-.17-.42.93.93,0,0,0-.6-.15H66Zm-1.9-2.4h3.53a1.92,1.92,0,0,1,1.36.44,1.42,1.42,0,0,1,.47,1.08,1.36,1.36,0,0,1-.34.93,1.52,1.52,0,0,1-.66.41,1.71,1.71,0,0,1,1,.54,1.49,1.49,0,0,1,.31,1,1.65,1.65,0,0,1-.22.85,1.58,1.58,0,0,1-.6.59,1.94,1.94,0,0,1-.72.2,8.2,8.2,0,0,1-.85.08H64.08Z" style="fill:#231f20"/><path d="M74.44,94.27h1.87V97.9a3,3,0,0,1-.17,1,2.21,2.21,0,0,1-.53.84,2.1,2.1,0,0,1-.75.5,3.79,3.79,0,0,1-1.32.21,8.38,8.38,0,0,1-1-.06,2.56,2.56,0,0,1-.88-.25,2.2,2.2,0,0,1-.65-.53,1.89,1.89,0,0,1-.4-.7,3.6,3.6,0,0,1-.17-1V94.27h1.88V98a1.06,1.06,0,0,0,.27.78,1,1,0,0,0,.77.28,1,1,0,0,0,.76-.28,1,1,0,0,0,.28-.78Z" style="fill:#231f20"/><path d="M79.48,96.73h.79a3,3,0,0,0,.5-.08.48.48,0,0,0,.3-.19.53.53,0,0,0,.12-.35.56.56,0,0,0-.19-.45,1.17,1.17,0,0,0-.7-.16h-.83Zm-1.89,3.63V94.27h3.13a4.54,4.54,0,0,1,1.33.15,1.42,1.42,0,0,1,.75.56,1.86,1.86,0,0,1,.06,1.86,1.7,1.7,0,0,1-.6.6,2.32,2.32,0,0,1-.66.24,1.77,1.77,0,0,1,.49.22,1.83,1.83,0,0,1,.3.32,2.32,2.32,0,0,1,.26.38l.92,1.76H81.45l-1-1.86a1.41,1.41,0,0,0-.34-.47.79.79,0,0,0-.46-.14h-.16v2.47Z" style="fill:#231f20"/></g><polygon points="84.2 94.27 85.95 94.27 88.25 97.64 88.25 94.27 90.02 94.27 90.02 100.36 88.25 100.36 85.97 97 85.97 100.36 84.2 100.36 84.2 94.27" style="fill:#231f20"/><path d="M68.53,61.1l-5.64,25m6.48-24.81L64.66,88m5.66-26.53L67.23,89m3.95-27.48-1.26,28.2m2.68-5.87.12,6.2m-.56-28.48.4,19.93m2.4,4.06.41,5M73,61.16,74.5,79.88m2.58,6.64.37,3M73.91,60.89,76.26,80" style="fill:none;stroke:#231f20;stroke-width:1.207px"/><line x1="79.12" y1="86.54" x2="79.2" y2="87.02" style="fill:none;stroke:#231f20;stroke-width:2.4130000000000003px"/><line x1="74.83" y1="60.38" x2="78.03" y2="80.06" style="fill:none;stroke:#231f20;stroke-width:1.207px"/><rect x="60.74" y="64.26" width="20.92" height="10.78" style="fill:#fff"/><polygon points="56.65 65.11 59.46 65.11 59.46 68.3 62.56 68.3 62.56 65.11 65.39 65.11 65.39 74.24 62.56 74.24 62.56 70.54 59.46 70.54 59.46 74.24 56.65 74.24 56.65 65.11" style="fill:#231f20"/><g style="clip-path:url(#clip-path)"><path d="M69.74,69.69a3.07,3.07,0,0,0,.52,2,2,2,0,0,0,2.81,0,3.37,3.37,0,0,0,.5-2.12A2.82,2.82,0,0,0,73,67.68a1.79,1.79,0,0,0-1.41-.59,1.71,1.71,0,0,0-1.37.61,3.07,3.07,0,0,0-.52,2m-2.82,0a4.33,4.33,0,0,1,4.72-4.73,4.77,4.77,0,0,1,3.52,1.23,4.62,4.62,0,0,1,1.23,3.43,5.61,5.61,0,0,1-.54,2.63,3.8,3.8,0,0,1-1.56,1.59,5.14,5.14,0,0,1-2.54.57,5.85,5.85,0,0,1-2.56-.49,3.87,3.87,0,0,1-1.64-1.56,5.2,5.2,0,0,1-.63-2.67" style="fill:#231f20"/></g><polygon points="76.93 65.11 85.52 65.11 85.52 67.36 82.63 67.36 82.63 74.24 79.81 74.24 79.81 67.36 76.93 67.36 76.93 65.11" style="fill:#231f20"/><g style="clip-path:url(#clip-path)"><path d="M61.22,83.34A19,19,0,0,1,59,79.46c-1.22-2.07-2.72-2.14-2.72-.45a4.05,4.05,0,0,0,.41,2c.41.85.57,1.58,1.71,4l1.49,2.75c0,.53-2.31-.51-6.15-3.31-.67-.49-3.56-1.7-4.17-.49s1.66,2.55,2.31,3c4.3,2.69,7,4.3,7,4.74,0,.81-.53.61-4.42-.69-4.49-1.5-4.21-1.42-4.74-1.62-1.7-.65-3.19-.35-3.56,0-.93,1-.32,1.38.73,2.15a11,11,0,0,0,4.5,2.19,44.11,44.11,0,0,0,5.15,1.91c1.89.52,4.49,1.74,3.59,1.8a26,26,0,0,1-6.63-.14c-2.05-.3-5.14-.78-5.55.45a1.84,1.84,0,0,0,1.3,1.95c1.8.63.75.68,5.92,1.18s1.29.13,8,.78,11.91.86,17.49,1.79c2.91.48,3.47-.47,8.48,2.84,4.06,2.68,2.66,1.72,3.8,2.78M80,89.09c3.94-2.06-1.94-3.22-3-3.86s-.82-.25-2.33-1.07-1.43-2-.57-2.69c.6-.51,1.35-.57,3.08-.06a27.43,27.43,0,0,1,4.06,1.07c2,.75,1.32.45,2.42,1.28A35.78,35.78,0,0,1,87.15,88c3.23,4,5.27,5.16,7,6.88S108,106.76,108,106.76M54.67,69.86,3.48,85.44M94.75,58l-17.94,5.3M54.16,77.13,24.72,85.68l.06-.06a6.41,6.41,0,0,0-3.88,5.85,6.14,6.14,0,0,0,2.6,5l18.4,11.25m20-21.34c-.79-.25-1.15.17-1-.39s.47,0,.53-1.08,0-1.07-.19-1.47" style="fill:none;stroke:#231f20;stroke-width:1.207px"/></g><polyline points="1.3 0.62 110.28 0.62 110.28 26.16 1.3 26.16" style="fill:#231f20"/><g style="clip-path:url(#clip-path)"><path d="M21.23,18H9.1c-.78-.05-1.45-.57-.68-1.87L14.33,6a.82.82,0,0,1,.83-.62A.9.9,0,0,1,16,6L21.9,16.16c.78,1.3.15,1.82-.67,1.87" style="fill:#231f20"/><path d="M15.16,7.71c-1.87,0-1.35,2.33-.31,5.65a.33.33,0,0,0,.31.31.35.35,0,0,0,.36-.31c1-3.32,1.55-5.65-.36-5.65" style="fill:#231f20"/><path d="M15.16,15h0a1,1,0,0,0-1,1,1,1,0,0,0,1,1,1,1,0,0,0,1-1,1,1,0,0,0-1-1" style="fill:#231f20"/><path d="M16,6a.9.9,0,0,0-.88-.62.83.83,0,0,0-.83.62L8.42,16.16C7.65,17.45,8.32,18,9.1,18H21.23c.83,0,1.45-.57.67-1.87ZM15.16,17.5a1.14,1.14,0,1,1,0-2.28h0a1.14,1.14,0,0,1,0,2.28m.41-4.1a.39.39,0,0,1-.37.36h0a.35.35,0,0,1-.36-.36C13.61,9.63,13,7,15.16,7s1.56,2.65.41,6.43" style="fill:#fff"/></g><g style="clip-path:url(#clip-path-6)"><line x1="110.49" y1="109" x2="110.49" y2="0.62" style="fill:none;stroke:#000;stroke-width:0.9500000000000001px"/><rect x="0.98" y="0.98" width="253.75" height="108.42" style="fill:none;stroke:#000;stroke-width:0.9530000000000001px"/></g><rect x="0.5" y="0.5" width="254.7" height="109.37" style="fill:none;stroke:#000;stroke-miterlimit:10"/><g style="clip-path:url(#clip-path)"><path d="M120.64,23.07a1.87,1.87,0,1,1-1.87-1.87,1.87,1.87,0,0,1,1.87,1.87"/><path d="M120.08,45.34a1.87,1.87,0,1,1-1.87-1.87,1.87,1.87,0,0,1,1.87,1.87"/><path d="M120.17,66.43a1.87,1.87,0,1,1-1.87-1.87,1.87,1.87,0,0,1,1.87,1.87"/></g><path d="M125.44,26.72V19.85H128a3.18,3.18,0,0,1,1.26.21,1.62,1.62,0,0,1,.74.64,1.69,1.69,0,0,1,.27.91,1.57,1.57,0,0,1-.24.83,1.72,1.72,0,0,1-.72.63,1.79,1.79,0,0,1,1,.62,1.67,1.67,0,0,1,.33,1,2,2,0,0,1-.2.9,1.74,1.74,0,0,1-.5.64,2.1,2.1,0,0,1-.75.34,4.55,4.55,0,0,1-1.11.12Zm.91-4h1.49a3.28,3.28,0,0,0,.87-.08,1,1,0,0,0,.52-.34,1,1,0,0,0,.18-.6,1.11,1.11,0,0,0-.16-.6.83.83,0,0,0-.47-.36,3.89,3.89,0,0,0-1-.1h-1.37Zm0,3.17h1.71a3.86,3.86,0,0,0,.62,0,1.47,1.47,0,0,0,.52-.19,1,1,0,0,0,.35-.38,1.2,1.2,0,0,0,.13-.58,1.14,1.14,0,0,0-.2-.67,1,1,0,0,0-.55-.4,3.4,3.4,0,0,0-1-.11h-1.59Z" style="fill:#231f20"/><path d="M135,26.72V26a1.82,1.82,0,0,1-1.58.84,2,2,0,0,1-.82-.17,1.35,1.35,0,0,1-.57-.42,1.56,1.56,0,0,1-.26-.62,4.18,4.18,0,0,1-.05-.79V21.75h.84v2.76a4.91,4.91,0,0,0,.05.89.88.88,0,0,0,.34.52,1,1,0,0,0,.64.19,1.38,1.38,0,0,0,.71-.19,1.07,1.07,0,0,0,.47-.53,2.66,2.66,0,0,0,.14-1V21.75h.84v5Z" style="fill:#231f20"/><path d="M137.09,26.72v-5h.76v.75a2.07,2.07,0,0,1,.54-.7.94.94,0,0,1,.54-.17,1.64,1.64,0,0,1,.87.27l-.29.78a1.21,1.21,0,0,0-.62-.18.81.81,0,0,0-.5.17.91.91,0,0,0-.31.46,3.28,3.28,0,0,0-.14,1v2.61Z" style="fill:#231f20"/><path d="M140.3,26.72v-5h.76v.71a1.79,1.79,0,0,1,1.58-.82,2.08,2.08,0,0,1,.83.16,1.3,1.3,0,0,1,.56.42,1.64,1.64,0,0,1,.26.62,4.84,4.84,0,0,1,0,.82v3.06h-.84v-3a2.28,2.28,0,0,0-.1-.77.82.82,0,0,0-.35-.41,1.11,1.11,0,0,0-.59-.15,1.37,1.37,0,0,0-.93.34,1.69,1.69,0,0,0-.39,1.3v2.72Z" style="fill:#231f20"/><path d="M148.3,26.72V19.85h.84v2.46a1.88,1.88,0,0,1,1.49-.68,2,2,0,0,1,1,.22,1.28,1.28,0,0,1,.58.6,2.77,2.77,0,0,1,.18,1.12v3.15h-.84V23.57a1.3,1.3,0,0,0-.27-.92,1,1,0,0,0-.78-.29,1.37,1.37,0,0,0-.71.19,1.1,1.1,0,0,0-.47.53,2.42,2.42,0,0,0-.14.92v2.72Z" style="fill:#231f20"/><path d="M156.89,26.11a3.13,3.13,0,0,1-.9.56,2.61,2.61,0,0,1-.93.16,1.81,1.81,0,0,1-1.26-.4,1.32,1.32,0,0,1-.44-1,1.36,1.36,0,0,1,.17-.67,1.39,1.39,0,0,1,.44-.49,2.06,2.06,0,0,1,.61-.28,5.89,5.89,0,0,1,.75-.13,7.69,7.69,0,0,0,1.5-.29c0-.12,0-.19,0-.22a.94.94,0,0,0-.24-.73,1.42,1.42,0,0,0-1-.29,1.49,1.49,0,0,0-.88.21,1.28,1.28,0,0,0-.42.74l-.82-.11a2,2,0,0,1,.37-.85,1.61,1.61,0,0,1,.74-.5,3.32,3.32,0,0,1,1.13-.18,3,3,0,0,1,1,.15,1.36,1.36,0,0,1,.58.38,1.32,1.32,0,0,1,.26.57,4.73,4.73,0,0,1,0,.78v1.13a11.8,11.8,0,0,0,.05,1.49,1.85,1.85,0,0,0,.21.6h-.88A1.77,1.77,0,0,1,156.89,26.11Zm-.07-1.88a6.19,6.19,0,0,1-1.38.32,3.16,3.16,0,0,0-.73.17.73.73,0,0,0-.33.27.75.75,0,0,0,.14,1,1.1,1.1,0,0,0,.75.23,1.73,1.73,0,0,0,.87-.21,1.31,1.31,0,0,0,.56-.58,2,2,0,0,0,.14-.84Z" style="fill:#231f20"/><path d="M158.53,26.72V26l3.17-3.64-1,0h-2v-.68h4.07v.56l-2.69,3.16-.52.58c.38,0,.73,0,1.06,0h2.3v.73Z" style="fill:#231f20"/><path d="M167,26.11a3.13,3.13,0,0,1-.9.56,2.61,2.61,0,0,1-.93.16,1.81,1.81,0,0,1-1.26-.4,1.32,1.32,0,0,1-.44-1,1.36,1.36,0,0,1,.17-.67,1.39,1.39,0,0,1,.44-.49,2.07,2.07,0,0,1,.61-.28,5.89,5.89,0,0,1,.75-.13,7.69,7.69,0,0,0,1.5-.29c0-.12,0-.19,0-.22a.94.94,0,0,0-.24-.73,1.42,1.42,0,0,0-1-.29,1.49,1.49,0,0,0-.88.21,1.28,1.28,0,0,0-.42.74l-.82-.11a2,2,0,0,1,.37-.85,1.61,1.61,0,0,1,.74-.5,3.32,3.32,0,0,1,1.13-.18,3,3,0,0,1,1,.15,1.36,1.36,0,0,1,.58.38,1.32,1.32,0,0,1,.26.57,4.72,4.72,0,0,1,0,.78v1.13a11.82,11.82,0,0,0,.05,1.49,1.85,1.85,0,0,0,.21.6h-.88A1.77,1.77,0,0,1,167,26.11ZM167,24.23a6.2,6.2,0,0,1-1.38.32,3.16,3.16,0,0,0-.73.17.73.73,0,0,0-.33.27.74.74,0,0,0,.14,1,1.1,1.1,0,0,0,.75.23,1.73,1.73,0,0,0,.87-.21,1.31,1.31,0,0,0,.56-.58,2,2,0,0,0,.14-.84Z" style="fill:#231f20"/><path d="M169.1,26.72v-5h.76v.75a2.06,2.06,0,0,1,.54-.7.94.94,0,0,1,.54-.17,1.64,1.64,0,0,1,.87.27l-.29.78a1.2,1.2,0,0,0-.62-.18.81.81,0,0,0-.5.17.91.91,0,0,0-.31.46,3.28,3.28,0,0,0-.14,1v2.61Z" style="fill:#231f20"/><path d="M175.53,26.72v-.63a1.55,1.55,0,0,1-1.39.74,2,2,0,0,1-1.09-.33,2.15,2.15,0,0,1-.77-.92,3.16,3.16,0,0,1-.27-1.35,3.53,3.53,0,0,1,.25-1.35A2,2,0,0,1,173,22a2,2,0,0,1,1.11-.32,1.66,1.66,0,0,1,.8.19,1.67,1.67,0,0,1,.57.49V19.85h.84v6.87Zm-2.67-2.48a2.15,2.15,0,0,0,.4,1.43,1.21,1.21,0,0,0,1,.47,1.19,1.19,0,0,0,.94-.45,2.09,2.09,0,0,0,.39-1.38,2.34,2.34,0,0,0-.39-1.5,1.21,1.21,0,0,0-1-.48,1.17,1.17,0,0,0-.94.46A2.27,2.27,0,0,0,172.87,24.24Z" style="fill:#231f20"/><path d="M177.88,26.72v-1h1v1Z" style="fill:#231f20"/><path d="M125.32,48.29V41.42h.91v2.82h3.57V41.42h.91v6.87h-.91V45.06h-3.57v3.24Z" style="fill:#231f20"/><path d="M131.8,45.81a2.57,2.57,0,0,1,.77-2,2.32,2.32,0,0,1,1.57-.55,2.23,2.23,0,0,1,1.68.67,2.56,2.56,0,0,1,.65,1.86,3.28,3.28,0,0,1-.29,1.51,2,2,0,0,1-.84.85,2.44,2.44,0,0,1-1.2.3,2.24,2.24,0,0,1-1.69-.67A2.67,2.67,0,0,1,131.8,45.81Zm.87,0a2.12,2.12,0,0,0,.42,1.43,1.39,1.39,0,0,0,2.09,0,2.17,2.17,0,0,0,.42-1.46,2.05,2.05,0,0,0-.42-1.4,1.39,1.39,0,0,0-2.09,0A2.11,2.11,0,0,0,132.67,45.81Z" style="fill:#231f20"/><path d="M139.29,47.54l.12.74a3.06,3.06,0,0,1-.64.08,1.44,1.44,0,0,1-.71-.15.81.81,0,0,1-.36-.38,3,3,0,0,1-.1-1V44H137v-.66h.62V42.09l.84-.51v1.74h.85V44h-.85v2.91a1.46,1.46,0,0,0,0,.46.36.36,0,0,0,.15.16.57.57,0,0,0,.29.06Z" style="fill:#231f20"/><path d="M143.7,48.29l-1.52-5h.87l.79,2.87.3,1.07.26-1,.79-2.91h.87l.75,2.89.25,1,.29-1,.85-2.88H149l-1.56,5h-.88l-.79-3-.19-.85-1,3.83Z" style="fill:#231f20"/><path d="M153,47.68a3.12,3.12,0,0,1-.9.56,2.61,2.61,0,0,1-.93.16,1.81,1.81,0,0,1-1.26-.4,1.32,1.32,0,0,1-.44-1,1.35,1.35,0,0,1,.17-.67,1.38,1.38,0,0,1,.44-.49,2.06,2.06,0,0,1,.61-.28,5.88,5.88,0,0,1,.75-.13,7.69,7.69,0,0,0,1.5-.29c0-.12,0-.19,0-.22a.94.94,0,0,0-.24-.73,1.42,1.42,0,0,0-1-.29,1.49,1.49,0,0,0-.88.21,1.28,1.28,0,0,0-.42.74l-.82-.11a2,2,0,0,1,.37-.85,1.61,1.61,0,0,1,.74-.5,3.32,3.32,0,0,1,1.13-.18,3,3,0,0,1,1,.15,1.36,1.36,0,0,1,.58.38,1.32,1.32,0,0,1,.26.57,4.73,4.73,0,0,1,0,.78v1.13a11.8,11.8,0,0,0,.05,1.49,1.85,1.85,0,0,0,.21.6h-.88A1.77,1.77,0,0,1,153,47.68Zm-.07-1.88a6.19,6.19,0,0,1-1.38.32,3.16,3.16,0,0,0-.73.17.73.73,0,0,0-.33.27.74.74,0,0,0,.14,1,1.1,1.1,0,0,0,.75.23,1.73,1.73,0,0,0,.87-.21,1.31,1.31,0,0,0,.56-.58,2,2,0,0,0,.14-.84Z" style="fill:#231f20"/><path d="M156.89,47.54l.12.74a3.08,3.08,0,0,1-.64.08,1.43,1.43,0,0,1-.71-.15.81.81,0,0,1-.36-.38,3,3,0,0,1-.1-1V44h-.62v-.66h.62V42.09l.84-.51v1.74h.85V44H156v2.91a1.45,1.45,0,0,0,0,.46.36.36,0,0,0,.14.16.57.57,0,0,0,.29.06Z" style="fill:#231f20"/><path d="M161.12,46.69l.87.11a2.12,2.12,0,0,1-.76,1.19,2.59,2.59,0,0,1-3.16-.25,2.63,2.63,0,0,1-.64-1.89,2.75,2.75,0,0,1,.65-1.95,2.19,2.19,0,0,1,1.68-.69,2.13,2.13,0,0,1,1.63.68A2.7,2.7,0,0,1,162,45.8s0,.13,0,.22h-3.71a1.91,1.91,0,0,0,.46,1.26,1.38,1.38,0,0,0,1,.44,1.29,1.29,0,0,0,.79-.24A1.62,1.62,0,0,0,161.12,46.69Zm-2.77-1.36h2.78a1.68,1.68,0,0,0-.32-.94,1.29,1.29,0,0,0-1-.49,1.34,1.34,0,0,0-1,.39A1.54,1.54,0,0,0,158.35,45.33Z" style="fill:#231f20"/><path d="M163,48.29v-5h.76v.75a2.07,2.07,0,0,1,.54-.7.94.94,0,0,1,.54-.17,1.64,1.64,0,0,1,.87.27l-.29.78a1.2,1.2,0,0,0-.62-.18.81.81,0,0,0-.5.17.9.9,0,0,0-.31.46,3.28,3.28,0,0,0-.14,1v2.61Z" style="fill:#231f20"/><path d="M172.14,48.29v-.63a1.55,1.55,0,0,1-1.39.74,2,2,0,0,1-1.09-.33,2.17,2.17,0,0,1-.77-.92,3.18,3.18,0,0,1-.27-1.35,3.53,3.53,0,0,1,.25-1.35,2,2,0,0,1,.75-.93,2,2,0,0,1,1.11-.32,1.67,1.67,0,0,1,1.37.68V41.42h.84v6.87Zm-2.67-2.48a2.16,2.16,0,0,0,.4,1.43,1.21,1.21,0,0,0,1,.47,1.19,1.19,0,0,0,.94-.45,2.09,2.09,0,0,0,.39-1.38,2.34,2.34,0,0,0-.39-1.5,1.21,1.21,0,0,0-1-.48,1.17,1.17,0,0,0-.94.46A2.26,2.26,0,0,0,169.48,45.81Z" style="fill:#231f20"/><path d="M174.26,42.39v-1h.84v1Zm0,5.9v-5h.84v5Z" style="fill:#231f20"/><path d="M176,46.81l.83-.13a1.17,1.17,0,0,0,.39.77,1.36,1.36,0,0,0,.9.27,1.32,1.32,0,0,0,.86-.24.71.71,0,0,0,.28-.56.51.51,0,0,0-.25-.45,3.61,3.61,0,0,0-.86-.29,7.84,7.84,0,0,1-1.29-.41,1.23,1.23,0,0,1-.73-1.14,1.28,1.28,0,0,1,.15-.62,1.35,1.35,0,0,1,.41-.47,1.7,1.7,0,0,1,.54-.25,2.54,2.54,0,0,1,.73-.1,2.89,2.89,0,0,1,1,.17,1.39,1.39,0,0,1,.65.46,1.78,1.78,0,0,1,.29.77l-.82.11a.9.9,0,0,0-.33-.6,1.19,1.19,0,0,0-.76-.21,1.38,1.38,0,0,0-.83.19.56.56,0,0,0-.25.45.47.47,0,0,0,.1.29.75.75,0,0,0,.32.22l.74.22a10.26,10.26,0,0,1,1.25.39,1.28,1.28,0,0,1,.56.44,1.24,1.24,0,0,1,.2.72,1.41,1.41,0,0,1-.25.79,1.58,1.58,0,0,1-.71.58,2.57,2.57,0,0,1-1,.2,2.34,2.34,0,0,1-1.48-.4A1.88,1.88,0,0,1,176,46.81Z" style="fill:#231f20"/><path d="M184.43,46.47l.83.11a2.15,2.15,0,0,1-.7,1.34,2,2,0,0,1-1.37.48,2.14,2.14,0,0,1-1.64-.67,2.71,2.71,0,0,1-.62-1.91,3.47,3.47,0,0,1,.27-1.41,1.86,1.86,0,0,1,.81-.91,2.42,2.42,0,0,1,1.19-.3,2.07,2.07,0,0,1,1.33.41,1.89,1.89,0,0,1,.66,1.16l-.82.13a1.36,1.36,0,0,0-.42-.75,1.07,1.07,0,0,0-.72-.25,1.31,1.31,0,0,0-1,.46,2.17,2.17,0,0,0-.4,1.45,2.25,2.25,0,0,0,.38,1.46,1.25,1.25,0,0,0,1,.45,1.18,1.18,0,0,0,.83-.3A1.51,1.51,0,0,0,184.43,46.47Z" style="fill:#231f20"/><path d="M186,48.29V41.42h.84v2.46a1.88,1.88,0,0,1,1.49-.68,2,2,0,0,1,1,.22,1.28,1.28,0,0,1,.58.6,2.77,2.77,0,0,1,.18,1.12v3.15h-.84V45.14a1.31,1.31,0,0,0-.27-.92,1,1,0,0,0-.78-.29,1.37,1.37,0,0,0-.71.19,1.09,1.09,0,0,0-.47.53,2.42,2.42,0,0,0-.14.92v2.72Z" style="fill:#231f20"/><path d="M194.56,47.68a3.14,3.14,0,0,1-.9.56,2.61,2.61,0,0,1-.93.16,1.81,1.81,0,0,1-1.26-.4,1.32,1.32,0,0,1-.44-1,1.37,1.37,0,0,1,.17-.67,1.38,1.38,0,0,1,.44-.49,2.08,2.08,0,0,1,.61-.28,5.93,5.93,0,0,1,.75-.13,7.71,7.71,0,0,0,1.5-.29c0-.12,0-.19,0-.22a.93.93,0,0,0-.24-.73,1.41,1.41,0,0,0-1-.29,1.49,1.49,0,0,0-.88.21,1.28,1.28,0,0,0-.42.74l-.82-.11a2,2,0,0,1,.37-.85,1.62,1.62,0,0,1,.74-.5,3.33,3.33,0,0,1,1.13-.18,3,3,0,0,1,1,.15,1.36,1.36,0,0,1,.58.38,1.33,1.33,0,0,1,.26.57,4.84,4.84,0,0,1,0,.78v1.13a12.11,12.11,0,0,0,.05,1.49,1.9,1.9,0,0,0,.21.6h-.88A1.79,1.79,0,0,1,194.56,47.68Zm-.07-1.88a6.22,6.22,0,0,1-1.38.32,3.17,3.17,0,0,0-.74.17.72.72,0,0,0-.45.67.72.72,0,0,0,.25.56,1.1,1.1,0,0,0,.75.23,1.74,1.74,0,0,0,.87-.21,1.31,1.31,0,0,0,.56-.58,2,2,0,0,0,.14-.84Z" style="fill:#231f20"/><path d="M196.64,48.29v-5h.76v.75a2.06,2.06,0,0,1,.54-.7.94.94,0,0,1,.54-.17,1.64,1.64,0,0,1,.87.27l-.29.78a1.2,1.2,0,0,0-.62-.18.81.81,0,0,0-.5.17.9.9,0,0,0-.31.46,3.28,3.28,0,0,0-.14,1v2.61Z" style="fill:#231f20"/><path d="M199.69,48.71l.82.12a.78.78,0,0,0,.29.55,1.4,1.4,0,0,0,.86.23,1.51,1.51,0,0,0,.9-.23,1.16,1.16,0,0,0,.43-.66,5.44,5.44,0,0,0,.06-1.08,1.73,1.73,0,0,1-1.38.65,1.88,1.88,0,0,1-1.59-.74,2.85,2.85,0,0,1-.56-1.78,3.3,3.3,0,0,1,.26-1.31,2.07,2.07,0,0,1,.75-.93,2,2,0,0,1,1.15-.33,1.78,1.78,0,0,1,1.45.71v-.6h.78v4.3a4.09,4.09,0,0,1-.24,1.65,1.73,1.73,0,0,1-.75.77,2.6,2.6,0,0,1-1.26.28,2.38,2.38,0,0,1-1.44-.4A1.35,1.35,0,0,1,199.69,48.71Zm.7-3a2.16,2.16,0,0,0,.39,1.43,1.28,1.28,0,0,0,1.95,0,2.09,2.09,0,0,0,.39-1.4,2,2,0,0,0-.41-1.38,1.25,1.25,0,0,0-1-.46,1.21,1.21,0,0,0-1,.46A2,2,0,0,0,200.39,45.72Z" style="fill:#231f20"/><path d="M208.59,46.69l.87.11A2.12,2.12,0,0,1,208.7,48a2.59,2.59,0,0,1-3.15-.25,2.62,2.62,0,0,1-.64-1.89,2.75,2.75,0,0,1,.65-1.95,2.19,2.19,0,0,1,1.68-.69,2.13,2.13,0,0,1,1.63.68,2.7,2.7,0,0,1,.63,1.91s0,.13,0,.22h-3.71a1.91,1.91,0,0,0,.46,1.26,1.38,1.38,0,0,0,1,.44,1.29,1.29,0,0,0,.79-.24A1.62,1.62,0,0,0,208.59,46.69Zm-2.77-1.36h2.78a1.69,1.69,0,0,0-.32-.94,1.29,1.29,0,0,0-1-.49,1.34,1.34,0,0,0-1,.39A1.54,1.54,0,0,0,205.82,45.33Z" style="fill:#231f20"/><path d="M210.76,48.29v-1h1v1Z" style="fill:#231f20"/><path d="M125.5,69.84V63h.91v3.41L129.82,63h1.23l-2.88,2.78,3,4.09H130l-2.45-3.48-1.12,1.1v2.38Z" style="fill:#231f20"/><path d="M135.24,68.23l.87.11a2.12,2.12,0,0,1-.76,1.19,2.59,2.59,0,0,1-3.16-.25,2.63,2.63,0,0,1-.64-1.89,2.75,2.75,0,0,1,.65-1.95,2.19,2.19,0,0,1,1.68-.69,2.13,2.13,0,0,1,1.63.68,2.7,2.7,0,0,1,.63,1.91s0,.13,0,.22h-3.71a1.91,1.91,0,0,0,.46,1.26,1.38,1.38,0,0,0,1,.44,1.29,1.29,0,0,0,.79-.24A1.62,1.62,0,0,0,135.24,68.23Zm-2.77-1.36h2.78a1.68,1.68,0,0,0-.32-.94,1.29,1.29,0,0,0-1-.49,1.34,1.34,0,0,0-1,.39A1.54,1.54,0,0,0,132.47,66.87Z" style="fill:#231f20"/><path d="M140.58,68.23l.87.11a2.13,2.13,0,0,1-.76,1.19,2.59,2.59,0,0,1-3.16-.25,2.63,2.63,0,0,1-.64-1.89,2.74,2.74,0,0,1,.65-1.95,2.19,2.19,0,0,1,1.68-.69,2.13,2.13,0,0,1,1.63.68,2.7,2.7,0,0,1,.63,1.91s0,.13,0,.22h-3.71a1.92,1.92,0,0,0,.46,1.26,1.39,1.39,0,0,0,1,.44,1.29,1.29,0,0,0,.79-.24A1.63,1.63,0,0,0,140.58,68.23Zm-2.77-1.36h2.78a1.68,1.68,0,0,0-.32-.94,1.29,1.29,0,0,0-1-.49,1.34,1.34,0,0,0-1,.39A1.53,1.53,0,0,0,137.81,66.87Z" style="fill:#231f20"/><path d="M142.51,71.74V64.86h.77v.65a1.88,1.88,0,0,1,.61-.57,1.68,1.68,0,0,1,.83-.19,2,2,0,0,1,1.12.33,2,2,0,0,1,.74.93,3.39,3.39,0,0,1,.25,1.31,3.33,3.33,0,0,1-.27,1.38,2.08,2.08,0,0,1-1.9,1.26,1.59,1.59,0,0,1-.76-.18,1.72,1.72,0,0,1-.55-.45v2.42Zm.76-4.37a2.17,2.17,0,0,0,.39,1.42,1.2,1.2,0,0,0,.94.46,1.22,1.22,0,0,0,1-.48,2.26,2.26,0,0,0,.4-1.47,2.19,2.19,0,0,0-.39-1.42,1.18,1.18,0,0,0-.93-.47,1.22,1.22,0,0,0-1,.5A2.25,2.25,0,0,0,143.27,67.38Z" style="fill:#231f20"/><path d="M153.76,68l.83.11a2.16,2.16,0,0,1-.7,1.34,2,2,0,0,1-1.38.48,2.14,2.14,0,0,1-1.64-.67,2.71,2.71,0,0,1-.62-1.91,3.46,3.46,0,0,1,.27-1.41,1.86,1.86,0,0,1,.81-.91,2.42,2.42,0,0,1,1.19-.3,2.07,2.07,0,0,1,1.33.41,1.89,1.89,0,0,1,.66,1.16l-.82.13a1.36,1.36,0,0,0-.41-.75,1.07,1.07,0,0,0-.72-.25,1.31,1.31,0,0,0-1,.46,2.17,2.17,0,0,0-.4,1.45,2.24,2.24,0,0,0,.38,1.46,1.25,1.25,0,0,0,1,.45,1.18,1.18,0,0,0,.83-.3A1.5,1.5,0,0,0,153.76,68Z" style="fill:#231f20"/><path d="M155.29,69.84V63h.84v6.87Z" style="fill:#231f20"/><path d="M160.85,68.23l.87.11a2.13,2.13,0,0,1-.76,1.19,2.59,2.59,0,0,1-3.16-.25,2.63,2.63,0,0,1-.64-1.89,2.74,2.74,0,0,1,.65-1.95,2.19,2.19,0,0,1,1.68-.69,2.13,2.13,0,0,1,1.63.68,2.7,2.7,0,0,1,.63,1.91s0,.13,0,.22H158a1.92,1.92,0,0,0,.46,1.26,1.39,1.39,0,0,0,1,.44,1.29,1.29,0,0,0,.79-.24A1.63,1.63,0,0,0,160.85,68.23Zm-2.77-1.36h2.78a1.68,1.68,0,0,0-.32-.94,1.29,1.29,0,0,0-1-.49,1.34,1.34,0,0,0-1,.39A1.54,1.54,0,0,0,158.08,66.87Z" style="fill:#231f20"/><path d="M166,69.22a3.12,3.12,0,0,1-.9.56,2.61,2.61,0,0,1-.93.16,1.81,1.81,0,0,1-1.26-.4,1.33,1.33,0,0,1-.44-1,1.36,1.36,0,0,1,.17-.67,1.38,1.38,0,0,1,.44-.49,2.06,2.06,0,0,1,.61-.28,5.86,5.86,0,0,1,.75-.13,7.68,7.68,0,0,0,1.5-.29q0-.17,0-.22a.93.93,0,0,0-.24-.73,1.41,1.41,0,0,0-1-.29,1.49,1.49,0,0,0-.88.21,1.27,1.27,0,0,0-.42.74l-.82-.11a2,2,0,0,1,.37-.85,1.61,1.61,0,0,1,.75-.5,3.32,3.32,0,0,1,1.13-.18,3,3,0,0,1,1,.15,1.36,1.36,0,0,1,.59.38,1.31,1.31,0,0,1,.26.57,4.59,4.59,0,0,1,0,.78v1.13a11.87,11.87,0,0,0,.05,1.49,1.85,1.85,0,0,0,.21.6h-.88A1.79,1.79,0,0,1,166,69.22ZM166,67.34a6.2,6.2,0,0,1-1.38.32,3.17,3.17,0,0,0-.74.17.73.73,0,0,0-.33.27.74.74,0,0,0,.14,1,1.1,1.1,0,0,0,.75.23,1.73,1.73,0,0,0,.87-.21,1.31,1.31,0,0,0,.56-.58,2.05,2.05,0,0,0,.13-.84Z" style="fill:#231f20"/><path d="M168.1,69.84v-5h.76v.75a2.06,2.06,0,0,1,.54-.7.94.94,0,0,1,.54-.17,1.64,1.64,0,0,1,.87.27l-.29.78a1.2,1.2,0,0,0-.62-.18.81.81,0,0,0-.5.17.91.91,0,0,0-.31.46,3.28,3.28,0,0,0-.14,1v2.61Z" style="fill:#231f20"/><path d="M173.66,67.35a2.57,2.57,0,0,1,.77-2,2.31,2.31,0,0,1,1.56-.55,2.23,2.23,0,0,1,1.68.67,2.56,2.56,0,0,1,.65,1.86,3.29,3.29,0,0,1-.29,1.51,2,2,0,0,1-.84.85,2.45,2.45,0,0,1-1.2.3,2.24,2.24,0,0,1-1.69-.67A2.67,2.67,0,0,1,173.66,67.35Zm.87,0a2.12,2.12,0,0,0,.42,1.43,1.39,1.39,0,0,0,2.09,0,2.17,2.17,0,0,0,.42-1.46,2.06,2.06,0,0,0-.42-1.4,1.39,1.39,0,0,0-2.09,0A2.11,2.11,0,0,0,174.53,67.35Z" style="fill:#231f20"/><path d="M179.51,69.84V65.52h-.75v-.66h.75v-.53a2.31,2.31,0,0,1,.09-.74,1.07,1.07,0,0,1,.43-.53,1.55,1.55,0,0,1,.86-.2,4.09,4.09,0,0,1,.79.08l-.13.74a2.83,2.83,0,0,0-.5,0,.74.74,0,0,0-.54.16.89.89,0,0,0-.16.61v.46h1v.66h-1v4.32Z" style="fill:#231f20"/><path d="M186.32,69.84V63.78h-2.26V63h5.44v.81h-2.27v6.06Z" style="fill:#231f20"/><path d="M192.68,68.23l.87.11a2.12,2.12,0,0,1-.76,1.19,2.59,2.59,0,0,1-3.15-.25,2.62,2.62,0,0,1-.64-1.89,2.75,2.75,0,0,1,.65-1.95,2.19,2.19,0,0,1,1.68-.69,2.13,2.13,0,0,1,1.63.68,2.7,2.7,0,0,1,.63,1.91s0,.13,0,.22h-3.71a1.91,1.91,0,0,0,.46,1.26,1.38,1.38,0,0,0,1,.44,1.29,1.29,0,0,0,.79-.24A1.62,1.62,0,0,0,192.68,68.23Zm-2.77-1.36h2.78a1.69,1.69,0,0,0-.32-.94,1.29,1.29,0,0,0-1-.49,1.34,1.34,0,0,0-1,.39A1.54,1.54,0,0,0,189.91,66.87Z" style="fill:#231f20"/><path d="M194.6,69.84v-5h.75v.7a1.75,1.75,0,0,1,1.51-.81,1.63,1.63,0,0,1,.91.23,1.22,1.22,0,0,1,.5.64,1.79,1.79,0,0,1,1.54-.87,1.52,1.52,0,0,1,1.14.41,1.75,1.75,0,0,1,.4,1.26v3.42h-.84V66.7a2.31,2.31,0,0,0-.08-.73.71.71,0,0,0-.3-.36.93.93,0,0,0-.51-.14,1.18,1.18,0,0,0-.87.35,1.53,1.53,0,0,0-.35,1.12v2.89h-.84V66.6a1.43,1.43,0,0,0-.21-.84.78.78,0,0,0-.68-.28,1.23,1.23,0,0,0-.66.19,1.06,1.06,0,0,0-.44.55,3.09,3.09,0,0,0-.14,1v2.58Z" style="fill:#231f20"/><path d="M202.59,71.74V64.86h.77v.65a1.88,1.88,0,0,1,.61-.57,1.68,1.68,0,0,1,.83-.19,2,2,0,0,1,1.12.33,2,2,0,0,1,.74.93,3.39,3.39,0,0,1,.25,1.31,3.33,3.33,0,0,1-.27,1.38,2.08,2.08,0,0,1-1.9,1.26,1.59,1.59,0,0,1-.76-.18,1.72,1.72,0,0,1-.55-.45v2.42Zm.76-4.37a2.17,2.17,0,0,0,.39,1.42,1.2,1.2,0,0,0,.94.46,1.22,1.22,0,0,0,1-.48,2.26,2.26,0,0,0,.4-1.47,2.19,2.19,0,0,0-.39-1.42,1.18,1.18,0,0,0-.93-.47,1.21,1.21,0,0,0-1,.5A2.25,2.25,0,0,0,203.36,67.38Z" style="fill:#231f20"/><path d="M211.34,68.23l.87.11a2.13,2.13,0,0,1-.76,1.19,2.59,2.59,0,0,1-3.16-.25,2.63,2.63,0,0,1-.64-1.89,2.74,2.74,0,0,1,.65-1.95,2.19,2.19,0,0,1,1.68-.69,2.13,2.13,0,0,1,1.63.68,2.7,2.7,0,0,1,.63,1.91s0,.13,0,.22h-3.71a1.92,1.92,0,0,0,.46,1.26,1.39,1.39,0,0,0,1,.44,1.29,1.29,0,0,0,.79-.24A1.63,1.63,0,0,0,211.34,68.23Zm-2.77-1.36h2.78a1.68,1.68,0,0,0-.32-.94,1.29,1.29,0,0,0-1-.49,1.34,1.34,0,0,0-1,.39A1.53,1.53,0,0,0,208.57,66.87Z" style="fill:#231f20"/><path d="M213.26,69.84v-5H214v.75a2.07,2.07,0,0,1,.54-.7.94.94,0,0,1,.54-.17A1.64,1.64,0,0,1,216,65l-.29.78a1.21,1.21,0,0,0-.62-.18.81.81,0,0,0-.5.17.91.91,0,0,0-.31.46,3.28,3.28,0,0,0-.14,1v2.61Z" style="fill:#231f20"/><path d="M219.71,69.22a3.12,3.12,0,0,1-.9.56,2.61,2.61,0,0,1-.93.16,1.81,1.81,0,0,1-1.26-.4,1.32,1.32,0,0,1-.44-1,1.35,1.35,0,0,1,.17-.67,1.39,1.39,0,0,1,.44-.49,2.07,2.07,0,0,1,.61-.28,5.86,5.86,0,0,1,.75-.13,7.7,7.7,0,0,0,1.5-.29c0-.12,0-.19,0-.22a.94.94,0,0,0-.24-.73,1.42,1.42,0,0,0-1-.29,1.49,1.49,0,0,0-.88.21,1.28,1.28,0,0,0-.42.74l-.82-.11a2,2,0,0,1,.37-.85,1.61,1.61,0,0,1,.74-.5,3.32,3.32,0,0,1,1.13-.18,3,3,0,0,1,1,.15,1.36,1.36,0,0,1,.59.38,1.32,1.32,0,0,1,.26.57,4.73,4.73,0,0,1,0,.78v1.13a11.8,11.8,0,0,0,.05,1.49,1.85,1.85,0,0,0,.21.6h-.88A1.77,1.77,0,0,1,219.71,69.22Zm-.07-1.88a6.19,6.19,0,0,1-1.38.32,3.16,3.16,0,0,0-.73.17.73.73,0,0,0-.33.27.74.74,0,0,0,.14,1,1.1,1.1,0,0,0,.75.23,1.73,1.73,0,0,0,.87-.21,1.31,1.31,0,0,0,.56-.58,2,2,0,0,0,.14-.84Z" style="fill:#231f20"/><path d="M223.64,69.08l.12.74a3.08,3.08,0,0,1-.64.08,1.43,1.43,0,0,1-.71-.15.81.81,0,0,1-.36-.38,3,3,0,0,1-.1-1V65.52h-.62v-.66H222V63.63l.84-.51v1.74h.85v.66h-.85v2.91a1.45,1.45,0,0,0,0,.46.36.36,0,0,0,.14.16.57.57,0,0,0,.29.06Z" style="fill:#231f20"/><path d="M227.73,69.84v-.73a1.82,1.82,0,0,1-1.58.84,2,2,0,0,1-.82-.17,1.35,1.35,0,0,1-.57-.42,1.61,1.61,0,0,1-.26-.62,4.32,4.32,0,0,1-.05-.79V64.86h.84v2.76a4.82,4.82,0,0,0,.05.89.88.88,0,0,0,.34.52,1,1,0,0,0,.64.19A1.38,1.38,0,0,0,227,69a1.08,1.08,0,0,0,.47-.53,2.66,2.66,0,0,0,.14-1V64.86h.84v5Z" style="fill:#231f20"/><path d="M229.79,69.84v-5h.76v.75a2.07,2.07,0,0,1,.54-.7.94.94,0,0,1,.54-.17,1.64,1.64,0,0,1,.87.27l-.29.78a1.2,1.2,0,0,0-.62-.18.81.81,0,0,0-.5.17.9.9,0,0,0-.31.46,3.28,3.28,0,0,0-.14,1v2.61Z" style="fill:#231f20"/><path d="M236.4,68.23l.87.11a2.12,2.12,0,0,1-.76,1.19,2.59,2.59,0,0,1-3.16-.25,2.63,2.63,0,0,1-.64-1.89,2.74,2.74,0,0,1,.65-1.95,2.19,2.19,0,0,1,1.68-.69,2.13,2.13,0,0,1,1.63.68,2.7,2.7,0,0,1,.63,1.91s0,.13,0,.22h-3.71a1.91,1.91,0,0,0,.46,1.26,1.38,1.38,0,0,0,1,.44,1.29,1.29,0,0,0,.79-.24A1.63,1.63,0,0,0,236.4,68.23Zm-2.77-1.36h2.78a1.69,1.69,0,0,0-.32-.94,1.29,1.29,0,0,0-1-.49,1.34,1.34,0,0,0-1,.39A1.54,1.54,0,0,0,233.63,66.87Z" style="fill:#231f20"/><path d="M238,67.77v-.85h2.59v.85Z" style="fill:#231f20"/><path d="M125.54,81.35V74.48h2.59a6.34,6.34,0,0,1,1,.07,2.08,2.08,0,0,1,.85.32,1.68,1.68,0,0,1,.55.66,2.23,2.23,0,0,1-.35,2.42,2.68,2.68,0,0,1-2,.61h-1.76v2.79Zm.91-3.6h1.78a1.89,1.89,0,0,0,1.25-.33,1.17,1.17,0,0,0,.37-.92,1.24,1.24,0,0,0-.22-.74,1,1,0,0,0-.57-.41,3.85,3.85,0,0,0-.85-.06h-1.76Z" style="fill:#231f20"/><path d="M131.83,81.35v-5h.76v.75a2.06,2.06,0,0,1,.54-.7.94.94,0,0,1,.54-.17,1.64,1.64,0,0,1,.87.27l-.29.78a1.2,1.2,0,0,0-.62-.18.81.81,0,0,0-.5.17.9.9,0,0,0-.31.46,3.28,3.28,0,0,0-.14,1v2.61Z" style="fill:#231f20"/><path d="M138.44,79.75l.87.11a2.12,2.12,0,0,1-.76,1.19,2.59,2.59,0,0,1-3.16-.25,2.63,2.63,0,0,1-.64-1.89A2.75,2.75,0,0,1,135.4,77a2.19,2.19,0,0,1,1.68-.69,2.13,2.13,0,0,1,1.63.68,2.7,2.7,0,0,1,.63,1.91s0,.13,0,.22h-3.71a1.91,1.91,0,0,0,.46,1.26,1.38,1.38,0,0,0,1,.44,1.29,1.29,0,0,0,.79-.24A1.62,1.62,0,0,0,138.44,79.75Zm-2.77-1.36h2.78a1.68,1.68,0,0,0-.32-.94,1.29,1.29,0,0,0-1-.49,1.34,1.34,0,0,0-1,.39A1.54,1.54,0,0,0,135.67,78.38Z" style="fill:#231f20"/><path d="M140,79.87l.83-.13a1.17,1.17,0,0,0,.39.77,1.36,1.36,0,0,0,.9.27,1.32,1.32,0,0,0,.86-.24.71.71,0,0,0,.28-.56.51.51,0,0,0-.25-.45,3.62,3.62,0,0,0-.86-.29,7.86,7.86,0,0,1-1.29-.41,1.23,1.23,0,0,1-.73-1.14,1.28,1.28,0,0,1,.15-.62,1.36,1.36,0,0,1,.41-.47,1.7,1.7,0,0,1,.54-.25,2.54,2.54,0,0,1,.73-.1,2.89,2.89,0,0,1,1,.17,1.39,1.39,0,0,1,.65.46,1.78,1.78,0,0,1,.29.77l-.82.11a.9.9,0,0,0-.33-.6,1.19,1.19,0,0,0-.76-.21,1.38,1.38,0,0,0-.83.19.56.56,0,0,0-.25.45.46.46,0,0,0,.1.29.74.74,0,0,0,.32.22l.74.22a10.23,10.23,0,0,1,1.25.39,1.27,1.27,0,0,1,.56.44,1.24,1.24,0,0,1,.2.72,1.41,1.41,0,0,1-.25.79,1.58,1.58,0,0,1-.71.58,2.57,2.57,0,0,1-1,.2,2.34,2.34,0,0,1-1.48-.4A1.88,1.88,0,0,1,140,79.87Z" style="fill:#231f20"/><path d="M144.83,79.87l.83-.13a1.17,1.17,0,0,0,.39.77,1.37,1.37,0,0,0,.9.27,1.32,1.32,0,0,0,.86-.24.71.71,0,0,0,.28-.56.51.51,0,0,0-.25-.45,3.64,3.64,0,0,0-.86-.29,7.82,7.82,0,0,1-1.29-.41A1.23,1.23,0,0,1,145,77.7a1.28,1.28,0,0,1,.15-.62,1.35,1.35,0,0,1,.42-.47,1.7,1.7,0,0,1,.54-.25,2.55,2.55,0,0,1,.73-.1,2.88,2.88,0,0,1,1,.17,1.4,1.4,0,0,1,.65.46,1.8,1.8,0,0,1,.29.77l-.83.11a.9.9,0,0,0-.33-.6,1.19,1.19,0,0,0-.76-.21,1.38,1.38,0,0,0-.83.19.56.56,0,0,0-.25.45.46.46,0,0,0,.1.29.73.73,0,0,0,.32.22l.75.22a10.36,10.36,0,0,1,1.25.39,1.26,1.26,0,0,1,.55.44,1.24,1.24,0,0,1,.2.72,1.41,1.41,0,0,1-.25.79,1.58,1.58,0,0,1-.71.58,2.56,2.56,0,0,1-1,.2,2.34,2.34,0,0,1-1.48-.4A1.87,1.87,0,0,1,144.83,79.87Z" style="fill:#231f20"/><path d="M153.22,81.35v-.73a1.82,1.82,0,0,1-1.58.84,2,2,0,0,1-.82-.17,1.35,1.35,0,0,1-.57-.42,1.56,1.56,0,0,1-.26-.62,4.19,4.19,0,0,1-.05-.79V76.38h.84v2.76a4.91,4.91,0,0,0,.05.89.88.88,0,0,0,.34.52,1,1,0,0,0,.64.19,1.38,1.38,0,0,0,.71-.19A1.07,1.07,0,0,0,153,80a2.66,2.66,0,0,0,.14-1V76.38H154v5Z" style="fill:#231f20"/><path d="M155.29,81.35v-5H156v.75a2.06,2.06,0,0,1,.54-.7.94.94,0,0,1,.54-.17,1.64,1.64,0,0,1,.87.27l-.29.78a1.2,1.2,0,0,0-.62-.18.81.81,0,0,0-.5.17.9.9,0,0,0-.31.46,3.28,3.28,0,0,0-.14,1v2.61Z" style="fill:#231f20"/><path d="M161.9,79.75l.87.11A2.12,2.12,0,0,1,162,81a2.59,2.59,0,0,1-3.16-.25,2.63,2.63,0,0,1-.64-1.89,2.75,2.75,0,0,1,.65-1.95,2.19,2.19,0,0,1,1.68-.69,2.13,2.13,0,0,1,1.63.68,2.7,2.7,0,0,1,.63,1.91s0,.13,0,.22h-3.71a1.91,1.91,0,0,0,.46,1.26,1.38,1.38,0,0,0,1,.44,1.29,1.29,0,0,0,.79-.24A1.62,1.62,0,0,0,161.9,79.75Zm-2.77-1.36h2.78a1.68,1.68,0,0,0-.32-.94,1.29,1.29,0,0,0-1-.49,1.34,1.34,0,0,0-1,.39A1.54,1.54,0,0,0,159.13,78.38Z" style="fill:#231f20"/><path d="M166.62,81.35V74.48h3a4,4,0,0,1,1.4.19,1.52,1.52,0,0,1,.76.65,1.94,1.94,0,0,1,.29,1,1.72,1.72,0,0,1-.47,1.23,2.39,2.39,0,0,1-1.46.64,2.36,2.36,0,0,1,.55.34,4.75,4.75,0,0,1,.75.91l1.19,1.87h-1.14l-.91-1.43q-.4-.62-.66-.95a2.09,2.09,0,0,0-.46-.46,1.37,1.37,0,0,0-.41-.18,2.77,2.77,0,0,0-.51,0h-1.05v3Zm.91-3.84h2a2.93,2.93,0,0,0,1-.13A1,1,0,0,0,171,77a1.11,1.11,0,0,0,.18-.62,1,1,0,0,0-.35-.8,1.66,1.66,0,0,0-1.12-.31h-2.17Z" style="fill:#231f20"/><path d="M176.83,79.75l.87.11a2.12,2.12,0,0,1-.76,1.19,2.59,2.59,0,0,1-3.16-.25,2.63,2.63,0,0,1-.64-1.89,2.74,2.74,0,0,1,.65-1.95,2.19,2.19,0,0,1,1.68-.69,2.13,2.13,0,0,1,1.63.68,2.7,2.7,0,0,1,.63,1.91s0,.13,0,.22H174a1.91,1.91,0,0,0,.46,1.26,1.38,1.38,0,0,0,1,.44,1.29,1.29,0,0,0,.79-.24A1.63,1.63,0,0,0,176.83,79.75Zm-2.77-1.36h2.78a1.69,1.69,0,0,0-.32-.94,1.29,1.29,0,0,0-1-.49,1.34,1.34,0,0,0-1,.39A1.54,1.54,0,0,0,174.06,78.38Z" style="fill:#231f20"/><path d="M178.75,81.35V74.48h.84v6.87Z" style="fill:#231f20"/><path d="M180.9,75.45v-1h.84v1Zm0,5.9v-5h.84v5Z" style="fill:#231f20"/><path d="M186.43,79.75l.87.11a2.12,2.12,0,0,1-.76,1.19,2.59,2.59,0,0,1-3.15-.25,2.62,2.62,0,0,1-.64-1.89,2.75,2.75,0,0,1,.65-1.95,2.19,2.19,0,0,1,1.68-.69,2.13,2.13,0,0,1,1.63.68,2.7,2.7,0,0,1,.63,1.91s0,.13,0,.22h-3.71a1.91,1.91,0,0,0,.46,1.26,1.38,1.38,0,0,0,1,.44,1.29,1.29,0,0,0,.79-.24A1.62,1.62,0,0,0,186.43,79.75Zm-2.77-1.36h2.78a1.69,1.69,0,0,0-.32-.94,1.29,1.29,0,0,0-1-.49,1.34,1.34,0,0,0-1,.39A1.54,1.54,0,0,0,183.66,78.38Z" style="fill:#231f20"/><path d="M188.57,81.35V77h-.75v-.66h.75v-.53a2.34,2.34,0,0,1,.09-.74,1.08,1.08,0,0,1,.43-.53,1.54,1.54,0,0,1,.86-.2,4.09,4.09,0,0,1,.79.09l-.13.74a2.82,2.82,0,0,0-.5,0,.74.74,0,0,0-.54.16.88.88,0,0,0-.16.61v.46h1V77h-1v4.32Z" style="fill:#231f20"/><path d="M195.77,81.35l-2.66-6.87h1l1.79,5c.14.4.26.77.36,1.13.11-.37.23-.75.37-1.12l1.86-5h.93l-2.69,6.87Z" style="fill:#231f20"/><path d="M202.64,80.74a3.13,3.13,0,0,1-.9.56,2.61,2.61,0,0,1-.93.16,1.81,1.81,0,0,1-1.26-.4,1.32,1.32,0,0,1-.44-1,1.36,1.36,0,0,1,.17-.67,1.39,1.39,0,0,1,.44-.49,2.06,2.06,0,0,1,.61-.28,5.88,5.88,0,0,1,.75-.13,7.7,7.7,0,0,0,1.5-.29c0-.12,0-.19,0-.22a.94.94,0,0,0-.24-.73,1.42,1.42,0,0,0-1-.29,1.49,1.49,0,0,0-.88.21,1.28,1.28,0,0,0-.42.74l-.82-.11a2,2,0,0,1,.37-.85,1.61,1.61,0,0,1,.74-.5,3.32,3.32,0,0,1,1.13-.18,3,3,0,0,1,1,.15,1.36,1.36,0,0,1,.59.38,1.32,1.32,0,0,1,.26.57,4.73,4.73,0,0,1,0,.78v1.13a11.8,11.8,0,0,0,.05,1.49,1.85,1.85,0,0,0,.21.6h-.88A1.77,1.77,0,0,1,202.64,80.74Zm-.07-1.88a6.19,6.19,0,0,1-1.38.32,3.16,3.16,0,0,0-.73.17.73.73,0,0,0-.33.27.75.75,0,0,0,.14,1,1.1,1.1,0,0,0,.75.23,1.73,1.73,0,0,0,.87-.21,1.31,1.31,0,0,0,.56-.58,2,2,0,0,0,.14-.84Z" style="fill:#231f20"/><path d="M204.71,81.35V74.48h.84v6.87Z" style="fill:#231f20"/><path d="M208.24,81.35l-1.89-5h.89l1.07,3q.17.48.32,1,.11-.39.31-.95l1.11-3h.87l-1.88,5Z" style="fill:#231f20"/><path d="M215.06,79.75l.87.11a2.13,2.13,0,0,1-.76,1.19,2.59,2.59,0,0,1-3.16-.25,2.63,2.63,0,0,1-.64-1.89A2.74,2.74,0,0,1,212,77a2.19,2.19,0,0,1,1.68-.69,2.13,2.13,0,0,1,1.63.68,2.7,2.7,0,0,1,.63,1.91s0,.13,0,.22h-3.71a1.92,1.92,0,0,0,.46,1.26,1.38,1.38,0,0,0,1,.44,1.29,1.29,0,0,0,.79-.24A1.63,1.63,0,0,0,215.06,79.75Zm-2.77-1.36h2.78a1.68,1.68,0,0,0-.32-.94,1.29,1.29,0,0,0-1-.49,1.34,1.34,0,0,0-1,.39A1.53,1.53,0,0,0,212.29,78.38Z" style="fill:#231f20"/><path d="M128.66,92.87v-.63a1.55,1.55,0,0,1-1.39.74,2,2,0,0,1-1.09-.33,2.15,2.15,0,0,1-.77-.92,3.16,3.16,0,0,1-.27-1.35,3.54,3.54,0,0,1,.25-1.35,2,2,0,0,1,.75-.93,2,2,0,0,1,1.11-.32,1.66,1.66,0,0,1,1.37.68V86h.84v6.87ZM126,90.38a2.16,2.16,0,0,0,.4,1.43,1.21,1.21,0,0,0,1,.47,1.19,1.19,0,0,0,.94-.45,2.08,2.08,0,0,0,.39-1.38,2.34,2.34,0,0,0-.39-1.5,1.21,1.21,0,0,0-1-.48,1.17,1.17,0,0,0-.94.46A2.26,2.26,0,0,0,126,90.38Z" style="fill:#231f20"/><path d="M130.78,87V86h.84v1Zm0,5.9v-5h.84v5Z" style="fill:#231f20"/><path d="M132.57,91.38l.83-.13a1.17,1.17,0,0,0,.39.77,1.37,1.37,0,0,0,.9.27,1.32,1.32,0,0,0,.86-.24.71.71,0,0,0,.28-.56.51.51,0,0,0-.25-.45,3.64,3.64,0,0,0-.86-.29,7.82,7.82,0,0,1-1.29-.41,1.23,1.23,0,0,1-.73-1.14,1.28,1.28,0,0,1,.15-.62,1.35,1.35,0,0,1,.41-.47,1.7,1.7,0,0,1,.54-.25,2.54,2.54,0,0,1,.73-.1,2.88,2.88,0,0,1,1,.17,1.4,1.4,0,0,1,.65.46,1.79,1.79,0,0,1,.29.77l-.83.11a.9.9,0,0,0-.33-.6,1.19,1.19,0,0,0-.76-.21,1.38,1.38,0,0,0-.83.19.56.56,0,0,0-.25.45.46.46,0,0,0,.1.29.73.73,0,0,0,.32.22l.75.22a10.38,10.38,0,0,1,1.25.39,1.26,1.26,0,0,1,.55.44,1.24,1.24,0,0,1,.2.72,1.41,1.41,0,0,1-.25.79,1.58,1.58,0,0,1-.71.58,2.56,2.56,0,0,1-1,.2,2.34,2.34,0,0,1-1.48-.4A1.87,1.87,0,0,1,132.57,91.38Z" style="fill:#231f20"/><path d="M140.95,91l.83.11a2.15,2.15,0,0,1-.7,1.34,2,2,0,0,1-1.38.48,2.14,2.14,0,0,1-1.64-.67,2.71,2.71,0,0,1-.62-1.91,3.46,3.46,0,0,1,.27-1.41,1.86,1.86,0,0,1,.81-.91,2.41,2.41,0,0,1,1.19-.3,2.06,2.06,0,0,1,1.33.41,1.88,1.88,0,0,1,.66,1.17l-.82.13a1.36,1.36,0,0,0-.41-.75,1.07,1.07,0,0,0-.72-.25,1.31,1.31,0,0,0-1,.46,2.17,2.17,0,0,0-.4,1.45,2.24,2.24,0,0,0,.38,1.46,1.25,1.25,0,0,0,1,.45,1.18,1.18,0,0,0,.83-.3A1.51,1.51,0,0,0,140.95,91Z" style="fill:#231f20"/><path d="M142.5,92.87V86h.84v2.46a1.89,1.89,0,0,1,1.49-.68,2,2,0,0,1,1,.22,1.28,1.28,0,0,1,.58.6,2.77,2.77,0,0,1,.18,1.12v3.15h-.84V89.71a1.3,1.3,0,0,0-.28-.92,1,1,0,0,0-.78-.29,1.37,1.37,0,0,0-.71.19,1.1,1.1,0,0,0-.47.53,2.42,2.42,0,0,0-.14.92v2.72Z" style="fill:#231f20"/><path d="M151.08,92.25a3.14,3.14,0,0,1-.9.56,2.6,2.6,0,0,1-.93.16,1.81,1.81,0,0,1-1.26-.4,1.32,1.32,0,0,1-.44-1,1.39,1.39,0,0,1,.6-1.15,2.07,2.07,0,0,1,.61-.28,5.91,5.91,0,0,1,.75-.13,7.7,7.7,0,0,0,1.5-.29c0-.12,0-.19,0-.22a.93.93,0,0,0-.24-.73,1.41,1.41,0,0,0-1-.29,1.49,1.49,0,0,0-.88.21,1.27,1.27,0,0,0-.42.74l-.82-.11a2,2,0,0,1,.37-.85,1.62,1.62,0,0,1,.75-.5,3.32,3.32,0,0,1,1.13-.18,3,3,0,0,1,1,.15,1.36,1.36,0,0,1,.59.38,1.32,1.32,0,0,1,.26.57,4.7,4.7,0,0,1,0,.78v1.13a12.16,12.16,0,0,0,.05,1.49,1.9,1.9,0,0,0,.21.6h-.88A1.81,1.81,0,0,1,151.08,92.25ZM151,90.37a6.22,6.22,0,0,1-1.38.32,3.18,3.18,0,0,0-.74.17.73.73,0,0,0-.33.27.75.75,0,0,0,.14,1,1.1,1.1,0,0,0,.75.23,1.74,1.74,0,0,0,.87-.21,1.31,1.31,0,0,0,.56-.58,2,2,0,0,0,.14-.84Z" style="fill:#231f20"/><path d="M153.16,92.87v-5h.76v.75a2.07,2.07,0,0,1,.54-.7.94.94,0,0,1,.54-.17,1.64,1.64,0,0,1,.87.27l-.29.78a1.21,1.21,0,0,0-.62-.18.81.81,0,0,0-.5.17.91.91,0,0,0-.31.46,3.28,3.28,0,0,0-.14,1v2.61Z" style="fill:#231f20"/><path d="M156.21,93.28l.82.12a.78.78,0,0,0,.29.55,1.4,1.4,0,0,0,.86.23,1.51,1.51,0,0,0,.9-.23,1.15,1.15,0,0,0,.43-.66,5.47,5.47,0,0,0,.06-1.08,1.73,1.73,0,0,1-1.38.65,1.88,1.88,0,0,1-1.59-.74,2.85,2.85,0,0,1-.56-1.78A3.3,3.3,0,0,1,156.3,89a2.07,2.07,0,0,1,.75-.93,2,2,0,0,1,1.15-.33,1.78,1.78,0,0,1,1.45.71v-.6h.78v4.3a4.09,4.09,0,0,1-.24,1.65,1.73,1.73,0,0,1-.75.77,2.6,2.6,0,0,1-1.26.28,2.38,2.38,0,0,1-1.44-.4A1.36,1.36,0,0,1,156.21,93.28Zm.7-3a2.16,2.16,0,0,0,.39,1.43,1.23,1.23,0,0,0,1,.45,1.25,1.25,0,0,0,1-.45,2.09,2.09,0,0,0,.39-1.4,2,2,0,0,0-.41-1.38,1.26,1.26,0,0,0-1-.46,1.21,1.21,0,0,0-1,.46A2,2,0,0,0,156.91,90.29Z" style="fill:#231f20"/><path d="M165.11,91.26l.87.11a2.13,2.13,0,0,1-.76,1.19,2.59,2.59,0,0,1-3.16-.25,2.63,2.63,0,0,1-.64-1.89,2.74,2.74,0,0,1,.65-1.95,2.19,2.19,0,0,1,1.68-.69,2.13,2.13,0,0,1,1.63.68,2.7,2.7,0,0,1,.63,1.91s0,.13,0,.22h-3.71a1.92,1.92,0,0,0,.46,1.26,1.39,1.39,0,0,0,1,.44,1.29,1.29,0,0,0,.79-.24A1.63,1.63,0,0,0,165.11,91.26Zm-2.77-1.36h2.78a1.68,1.68,0,0,0-.32-.94,1.29,1.29,0,0,0-1-.49,1.34,1.34,0,0,0-1,.39A1.53,1.53,0,0,0,162.34,89.9Z" style="fill:#231f20"/><path d="M169.39,90.38a2.56,2.56,0,0,1,.77-2,2.31,2.31,0,0,1,1.56-.55,2.23,2.23,0,0,1,1.68.67,2.56,2.56,0,0,1,.65,1.86,3.3,3.3,0,0,1-.29,1.51,2,2,0,0,1-.84.85,2.44,2.44,0,0,1-1.2.3,2.24,2.24,0,0,1-1.69-.67A2.67,2.67,0,0,1,169.39,90.38Zm.87,0a2.11,2.11,0,0,0,.42,1.43,1.39,1.39,0,0,0,2.09,0,2.18,2.18,0,0,0,.42-1.46,2.06,2.06,0,0,0-.42-1.4,1.39,1.39,0,0,0-2.09,0A2.1,2.1,0,0,0,170.26,90.38Z" style="fill:#231f20"/><path d="M178.3,92.87v-.73a1.82,1.82,0,0,1-1.58.84,2,2,0,0,1-.82-.17,1.35,1.35,0,0,1-.57-.42,1.61,1.61,0,0,1-.26-.62A4.32,4.32,0,0,1,175,91V87.89h.84v2.76a4.83,4.83,0,0,0,.05.89.88.88,0,0,0,.34.52,1,1,0,0,0,.64.19,1.38,1.38,0,0,0,.71-.19,1.08,1.08,0,0,0,.47-.53,2.66,2.66,0,0,0,.14-1V87.89h.84v5Z" style="fill:#231f20"/><path d="M182.22,92.11l.12.74a3.07,3.07,0,0,1-.64.08,1.44,1.44,0,0,1-.71-.15.81.81,0,0,1-.36-.38,3,3,0,0,1-.1-1V88.54h-.62v-.66h.62V86.66l.84-.51v1.74h.85v.66h-.85v2.91a1.49,1.49,0,0,0,0,.46.36.36,0,0,0,.15.16.57.57,0,0,0,.29.06Z" style="fill:#231f20"/><path d="M183,92.87V86h.84v6.87Z" style="fill:#231f20"/><path d="M188.59,91.26l.87.11a2.12,2.12,0,0,1-.76,1.19,2.59,2.59,0,0,1-3.16-.25,2.63,2.63,0,0,1-.64-1.89,2.75,2.75,0,0,1,.65-1.95,2.19,2.19,0,0,1,1.68-.69,2.13,2.13,0,0,1,1.63.68,2.7,2.7,0,0,1,.63,1.91s0,.13,0,.22h-3.71a1.91,1.91,0,0,0,.46,1.26,1.38,1.38,0,0,0,1,.44,1.29,1.29,0,0,0,.79-.24A1.62,1.62,0,0,0,188.59,91.26Zm-2.77-1.36h2.78a1.68,1.68,0,0,0-.32-.94,1.29,1.29,0,0,0-1-.49,1.34,1.34,0,0,0-1,.39A1.54,1.54,0,0,0,185.82,89.9Z" style="fill:#231f20"/><path d="M192.36,92.11l.12.74a3.08,3.08,0,0,1-.64.08,1.43,1.43,0,0,1-.71-.15.81.81,0,0,1-.36-.38,3,3,0,0,1-.1-1V88.54h-.62v-.66h.62V86.66l.84-.51v1.74h.85v.66h-.85v2.91a1.48,1.48,0,0,0,0,.46.36.36,0,0,0,.14.16.57.57,0,0,0,.29.06Z" style="fill:#231f20"/><path d="M193.42,92.87v-1h1v1Z" style="fill:#231f20"/><path d="M24.72,6.42H30a6.3,6.3,0,0,1,2.51.42,4.09,4.09,0,0,1,1.58,1.21A5,5,0,0,1,35,9.89a8.52,8.52,0,0,1,.28,2.22A7.71,7.71,0,0,1,34.84,15a4.71,4.71,0,0,1-1.16,1.7,3.78,3.78,0,0,1-1.59.91,8.21,8.21,0,0,1-2.11.31H24.72ZM28.26,9v6.26h.87A3.65,3.65,0,0,0,30.7,15a1.67,1.67,0,0,0,.73-.86,5.4,5.4,0,0,0,.27-2,3.86,3.86,0,0,0-.59-2.49,2.51,2.51,0,0,0-2-.67Z" style="fill:#fff"/><path d="M43.47,16h-4l-.56,1.89H35.28l4.3-11.45h3.86l4.3,11.45H44Zm-.73-2.48L41.47,9.39l-1.25,4.12Z" style="fill:#fff"/><path d="M48.9,6.42h3.3l4.31,6.34V6.42h3.34V17.87H56.52l-4.29-6.29v6.29H48.9Z" style="fill:#fff"/><path d="M68,13.72V11.34h5.47v4.88a11.2,11.2,0,0,1-2.78,1.46,9.43,9.43,0,0,1-2.86.39,7,7,0,0,1-3.32-.7,4.75,4.75,0,0,1-2-2.07,6.8,6.8,0,0,1-.71-3.16,6.59,6.59,0,0,1,.77-3.26A5,5,0,0,1,64.8,6.78a7.37,7.37,0,0,1,3.13-.55,8.81,8.81,0,0,1,2.84.34,3.69,3.69,0,0,1,1.56,1.07,4.74,4.74,0,0,1,.93,1.83l-3.41.61a1.85,1.85,0,0,0-.71-1,2.23,2.23,0,0,0-1.29-.34A2.32,2.32,0,0,0,66,9.55a3.89,3.89,0,0,0-.69,2.56,4,4,0,0,0,.7,2.66,2.46,2.46,0,0,0,1.95.8,3.7,3.7,0,0,0,1.13-.17,6.09,6.09,0,0,0,1.23-.59V13.72Z" style="fill:#fff"/><path d="M75.52,6.42H85V8.87H79.07v1.82h5.51V13H79.07v2.26h6.11v2.59H75.52Z" style="fill:#fff"/><path d="M87.13,17.87V6.42H93a8.57,8.57,0,0,1,2.51.28,2.67,2.67,0,0,1,1.4,1,3.16,3.16,0,0,1,.53,1.86,3.06,3.06,0,0,1-1.52,2.77,4.26,4.26,0,0,1-1.24.45,3.53,3.53,0,0,1,.92.42,3.57,3.57,0,0,1,.57.6,4.51,4.51,0,0,1,.5.71l1.71,3.32h-4l-1.89-3.5a2.67,2.67,0,0,0-.64-.88,1.49,1.49,0,0,0-.87-.27h-.31v4.65Zm3.55-6.81h1.49a5.32,5.32,0,0,0,.94-.16.94.94,0,0,0,.57-.36A1.16,1.16,0,0,0,93.56,9a2.13,2.13,0,0,0-1.32-.3H90.69Z" style="fill:#fff"/></svg>