<svg xmlns="http://www.w3.org/2000/svg" viewBox="0 0 238.89 111.96"><title>danger_brn_hzrd_rlf_vlve</title><g id="Layer_1" data-name="Layer 1"><path d="M26.29,66.6l3.51,0a6.61,6.61,0,0,1,2.79-5.51h0l0-3c-2.13-1.39-2.57-4.48-2.57-6.08L27,52a6.43,6.43,0,0,1-3.21,5.93v3.32a7.62,7.62,0,0,1,2.5,5.37Z" style="fill:none;stroke:#000;stroke-width:1.13178px"/><path d="M25.21,52c0,.71-.35,3.31-1.73,4L19.64,56c1.38-.69,1.74-3.26,1.71-4Z" style="fill:none;stroke:#000;stroke-width:1.13178px"/><polygon points="18.39 61.26 18.45 57.42 22.28 57.47 22.23 61.3 18.39 61.26" style="fill:none;stroke:#000;stroke-width:1.13178px"/><path d="M24.33,66.76c0-.71-.27-3.32-1.64-4l-3.84,0c1.37.73,1.67,3.3,1.62,4Z" style="fill:none;stroke:#000;stroke-width:1.13178px"/><path d="M27.94,59c.12-.43.37-.73.65-.73s.73.6.73,1.34-.33,1.33-.73,1.33-.55-.31-.67-.76" style="fill:none;stroke:#000;stroke-width:1.13178px"/><path d="M16,65.77a6.72,6.72,0,0,1-4.36,1.65c-3.92,0-7.09-3.53-7.09-7.88s3.17-7.88,7.09-7.88a6.55,6.55,0,0,1,3.83,1.25l4,.1a8.2,8.2,0,0,0-2.79,6.21c0,2.78.36,5.4,1.88,6.56Z" style="fill:none;stroke:#000;stroke-width:1.13178px"/><path d="M77.63,77.42" style="fill:none;stroke:#000;stroke-width:2.26356px"/><polyline points="101.48 81.24 84.74 71.32 80.43 72.57" style="fill:none;stroke:#000;stroke-width:1.13178px"/><line x1="89.01" y1="63.63" x2="102.4" y2="71.55" style="fill:none;stroke:#000;stroke-width:1.13178px"/><line x1="88.72" y1="63.55" x2="88.72" y2="23.54" style="fill:none;stroke:#000;stroke-width:0.9392959999999999px"/><path d="M49.32,59.75C48.09,62.89,45.68,65,42.91,65c-4,0-7.28-4.5-7.28-10s3.26-10,7.28-10c2.67,0,5,2,6.28,4.95" style="fill:none;stroke:#000;stroke-width:1.13178px"/><path d="M47.71,59.77c-1,2-2.68,3.29-4.55,3.29-3.12,0-5.65-3.61-5.65-8.07s2.53-8.07,5.65-8.07a5.23,5.23,0,0,1,4.38,3" style="fill:none;stroke:#000;stroke-width:1.13178px"/><path d="M47.55,49.89l0,.07" style="fill:none;stroke:#000;stroke-width:1.13178px"/><path d="M42.74,59.56c-1.65,0-3-2.15-3-4.8s1.33-4.8,3-4.8" style="fill:none;stroke:#000;stroke-width:1.13178px"/><path d="M42.47,50l19.64,0c3.8-.13,11.55,3,8.16,15.33L63,65.3c-1.48-2.59-1.7-5.49-5.75-5.49l-14.74-.25" style="fill:none;stroke:#000;stroke-width:1.13178px"/><path d="M71.06,50.51l3.09,0A5.81,5.81,0,0,1,76.6,45.7h0l0-2.68c-1.87-1.23-2.26-3.94-2.26-5.35l-2.69,0a5.65,5.65,0,0,1-2.83,5.22v2.92a6.7,6.7,0,0,1,2.2,4.72Z" style="fill:none;stroke:#000;stroke-width:1.13178px"/><path d="M70.11,37.69c0,.62-.31,2.91-1.52,3.52l-3.37,0c1.22-.61,1.53-2.87,1.51-3.49Z" style="fill:none;stroke:#000;stroke-width:1.13178px"/><polygon points="64.12 45.82 64.16 42.44 67.54 42.49 67.49 45.85 64.12 45.82" style="fill:none;stroke:#000;stroke-width:1.13178px"/><path d="M69.33,50.66c0-.62-.24-2.92-1.44-3.56l-3.37,0c1.2.64,1.46,2.9,1.43,3.52Z" style="fill:none;stroke:#000;stroke-width:1.13178px"/><path d="M72.51,43.83c.11-.38.32-.64.58-.64s.64.53.64,1.17-.29,1.17-.64,1.17-.48-.28-.59-.67" style="fill:none;stroke:#000;stroke-width:1.13178px"/><path d="M54.42,49.86a7.2,7.2,0,0,1-2.51-5.56c0-3.83,2.79-6.93,6.23-6.93a5.77,5.77,0,0,1,3.37,1.1l3.54.09A7.21,7.21,0,0,0,62.6,44c0,2.45.31,4.75,1.66,5.77H62" style="fill:none;stroke:#000;stroke-width:1.13178px"/><path d="M57.45,90.56a1.37,1.37,0,0,0,.41-.21c.66-.46,1-1.45,1.3-.21s-.71-.49-.31.55-.13,2.53.73,1.48-.25-.82,1-.46c.29.08.53.08.52.14-.14.64-.44.93-.26,1.19.7,1,.19,1.78,1,.67.62-.81,0-1.48.87-1s1.19-.61,1.19.64-.44.21.26.9.7,1.5,1,.39-.46-1.51.39-1.31.66-.72.92.39.34.75.66,1.11c.46.52.72,1.19.72,0s-.59-1.51.06-1.44.53-.39,1,.53,0,.53.46.92,1.12,1,1.12.46.07.2-.06-.85-.65-2,.53-1.24c.92.56.52,1.8,1.42,1.51s.18-1.24.17-1.25c-.16-.37-.27-.85-.29-.79-.06.26-.32-.46.73-.19s.44.84.9.84.71-.37.38-1.16-1.74-.33-.23-.79,1.71-.47,1.18-.54a16.35,16.35,0,0,0-1.77-.26" style="fill:none;stroke:#000;stroke-width:1.13178px"/><path d="M63,65.91,57.12,87.26a1.57,1.57,0,0,0,.48.53" style="fill:none;stroke:#000;stroke-width:1.13178px"/><path d="M59.63,97.33h3.31a1.8,1.8,0,0,1,1.27.41,1.33,1.33,0,0,1,.44,1,1.28,1.28,0,0,1-.32.87,1.42,1.42,0,0,1-.62.38,1.59,1.59,0,0,1,.9.51,1.4,1.4,0,0,1,.29.9,1.55,1.55,0,0,1-.21.8,1.49,1.49,0,0,1-.56.56,1.82,1.82,0,0,1-.67.19,7.55,7.55,0,0,1-.79.08h-3Zm1.78,2.25h.77a.89.89,0,0,0,.58-.14.52.52,0,0,0,.16-.41.49.49,0,0,0-.16-.39.87.87,0,0,0-.57-.14h-.78Zm0,2.24h.9a1,1,0,0,0,.64-.16.55.55,0,0,0,.19-.44.51.51,0,0,0-.19-.41,1,1,0,0,0-.65-.15h-.9Z"/><path d="M69.35,97.33h1.76v3.41a2.85,2.85,0,0,1-.16,1,2.06,2.06,0,0,1-.49.79,2,2,0,0,1-.71.47,3.57,3.57,0,0,1-1.24.19,7.71,7.71,0,0,1-.91-.06,2.38,2.38,0,0,1-.82-.23,2,2,0,0,1-.61-.49,1.78,1.78,0,0,1-.38-.66,3.4,3.4,0,0,1-.16-1V97.33h1.76v3.48a1,1,0,0,0,.26.73,1,1,0,0,0,1.7-.73Z"/><path d="M72.31,103V97.33h2.94a4.25,4.25,0,0,1,1.25.14,1.34,1.34,0,0,1,.7.52,1.61,1.61,0,0,1-.5,2.3,2.15,2.15,0,0,1-.62.23,1.75,1.75,0,0,1,.46.21,1.81,1.81,0,0,1,.28.3,2.19,2.19,0,0,1,.25.36l.86,1.65h-2L75,101.29a1.33,1.33,0,0,0-.32-.44.74.74,0,0,0-.43-.13h-.15V103Zm1.77-3.4h.74a2.81,2.81,0,0,0,.47-.08.45.45,0,0,0,.29-.18.5.5,0,0,0,.11-.33.52.52,0,0,0-.17-.42,1.09,1.09,0,0,0-.66-.15h-.78Z"/><path d="M78.5,97.33h1.65l2.16,3.17V97.33H84V103H82.3l-2.14-3.15V103H78.5Z"/><line x1="63.81" y1="66.22" x2="58.53" y2="89.65" style="fill:none;stroke:#000;stroke-width:1.13178px"/><line x1="64.6" y1="66.38" x2="60.17" y2="91.4" style="fill:none;stroke:#000;stroke-width:1.13178px"/><line x1="65.48" y1="66.52" x2="62.59" y2="92.38" style="fill:none;stroke:#000;stroke-width:1.13178px"/><line x1="66.29" y1="66.6" x2="65.11" y2="93.05" style="fill:none;stroke:#000;stroke-width:1.13178px"/><line x1="67.62" y1="87.54" x2="67.74" y2="93.36" style="fill:none;stroke:#000;stroke-width:1.13178px"/><line x1="67.21" y1="66.64" x2="67.58" y2="85.33" style="fill:none;stroke:#000;stroke-width:1.13178px"/><line x1="69.83" y1="89.14" x2="70.21" y2="93.83" style="fill:none;stroke:#000;stroke-width:1.13178px"/><line x1="67.96" y1="66.28" x2="69.4" y2="83.84" style="fill:none;stroke:#000;stroke-width:1.13178px"/><line x1="71.83" y1="90.06" x2="72.17" y2="92.85" style="fill:none;stroke:#000;stroke-width:1.13178px"/><line x1="68.85" y1="66.02" x2="71.06" y2="83.96" style="fill:none;stroke:#000;stroke-width:1.13178px"/><line x1="73.74" y1="90.08" x2="73.81" y2="90.53" style="fill:none;stroke:#000;stroke-width:2.26356px"/><line x1="69.71" y1="65.54" x2="72.72" y2="84" style="fill:none;stroke:#000;stroke-width:1.13178px"/><rect x="56.5" y="69.18" width="19.62" height="10.11" style="fill:#fff"/><path d="M52.66,70H55.3v3h2.91V70h2.66v8.57H58.21V75.07H55.3v3.47H52.66Z"/><path d="M62.29,74.26a4.06,4.06,0,0,1,4.42-4.44A4.48,4.48,0,0,1,70,71a4.33,4.33,0,0,1,1.16,3.22,5.26,5.26,0,0,1-.51,2.47,3.57,3.57,0,0,1-1.46,1.5,4.82,4.82,0,0,1-2.38.54,5.47,5.47,0,0,1-2.4-.46,3.62,3.62,0,0,1-1.54-1.46A4.87,4.87,0,0,1,62.29,74.26Zm2.64,0a2.87,2.87,0,0,0,.48,1.87,1.83,1.83,0,0,0,2.64,0,3.16,3.16,0,0,0,.47-2A2.65,2.65,0,0,0,68,72.39a1.68,1.68,0,0,0-1.33-.56,1.61,1.61,0,0,0-1.29.57A2.88,2.88,0,0,0,64.94,74.28Z"/><path d="M71.68,70h8.05v2.12H77v6.45H74.39V72.09H71.68Z"/><path d="M56.95,87.08a17.84,17.84,0,0,1-2.13-3.65c-1.14-1.94-2.55-2-2.55-.42a3.8,3.8,0,0,0,.38,1.9c.38.8.53,1.48,1.6,3.72l1.4,2.58c0,.5-2.16-.48-5.77-3.1-.63-.46-3.34-1.6-3.91-.46s1.56,2.39,2.17,2.77c4,2.52,6.53,4,6.53,4.45,0,.76-.49.57-4.14-.65-4.21-1.4-4-1.33-4.45-1.52a3.68,3.68,0,0,0-3.34,0c-.87.91-.3,1.29.68,2a10.29,10.29,0,0,0,4.22,2.05,41.33,41.33,0,0,0,4.83,1.79c1.77.49,4.21,1.63,3.37,1.69a24.5,24.5,0,0,1-6.21-.13c-1.92-.29-4.82-.73-5.21.42a1.72,1.72,0,0,0,1.22,1.82c1.69.59.71.64,5.55,1.1s1.21.12,7.52.73,11.17.8,16.4,1.68c2.73.46,3.25-.44,8,2.67,3.81,2.51,2.49,1.61,3.57,2.61" style="fill:none;stroke:#000;stroke-width:1.13178px"/><path d="M74.52,92.47c3.7-1.93-1.82-3-2.83-3.62s-.77-.24-2.19-1S68.16,86,69,85.33c.56-.48,1.26-.53,2.88-.06a26,26,0,0,1,3.81,1c1.87.71,1.23.42,2.27,1.2a33.32,33.32,0,0,1,3.34,3.94c3,3.74,4.94,4.84,6.6,6.45S100.82,109,100.82,109" style="fill:none;stroke:#000;stroke-width:1.13178px"/><line x1="50.8" y1="74.44" x2="2.79" y2="89.04" style="fill:none;stroke:#000;stroke-width:1.13178px"/><line x1="88.4" y1="63.32" x2="71.58" y2="68.3" style="fill:none;stroke:#000;stroke-width:1.13178px"/><path d="M50.33,81.25l-27.61,8,.05-.05a6,6,0,0,0-3.64,5.49,5.76,5.76,0,0,0,2.44,4.7L38.83,110" style="fill:none;stroke:#000;stroke-width:1.13178px"/><path d="M57.6,89.94c-.74-.23-1.08.16-1-.37s.44,0,.49-1,0-1-.18-1.38" style="fill:none;stroke:#000;stroke-width:1.13178px"/><polyline points="0.75 0.11 102.96 0.11 102.96 24.06 0.75 24.06"/><path d="M27.9,16.34c3.5,0,5.79-1.56,5.79-5.64,0-3.6-2.19-5.2-5.69-5.2H23.18V16.34" style="fill:#fff;fill-rule:evenodd"/><polyline points="37.63 16.34 38.06 14.93 41.61 14.93 42 16.34 45.55 16.34 41.66 5.5 38.06 5.5 34.17 16.34" style="fill:#fff;fill-rule:evenodd"/><polyline points="54.01 11.43 53.87 8.95 53.87 5.5 57.27 5.5 57.27 16.34 53.91 16.34 50.02 10.41 50.17 12.88 50.17 16.34 46.77 16.34 46.77 5.5 50.12 5.5" style="fill:#fff;fill-rule:evenodd"/><path d="M69.87,16.39H67.58l-.15-1.12a3.89,3.89,0,0,1-3.26,1.36c-2.77,0-5.25-1.8-5.25-5.59,0-3.45,2.14-5.84,5.69-5.84,2.58,0,4.67,1.36,5.11,4H66.36a1.74,1.74,0,0,0-1.85-1.36c-1.36,0-2,1.21-2,3.16,0,1.51.48,2.92,2.29,2.92a1.84,1.84,0,0,0,1.8-1.26H65V10.36h4.87" style="fill:#fff;fill-rule:evenodd"/><polyline points="72.05 16.34 72.05 5.5 80.9 5.5 80.9 8.02 75.6 8.02 75.6 9.58 80.07 9.58 80.07 12.11 75.6 12.11 75.6 13.81 81.1 13.81 81.1 16.34" style="fill:#fff;fill-rule:evenodd"/><path d="M87.37,12.54c1.65,0,1.89.49,1.89,1.9a6.53,6.53,0,0,0,.2,1.9h3.6V16c-.44,0-.39-.49-.39-1.9,0-2.19-.68-2.48-1.85-2.87a2.55,2.55,0,0,0,1.85-2.67c0-2.09-1.22-3.06-4.82-3.06H82.75V16.34H86.3V12.54" style="fill:#fff;fill-rule:evenodd"/><polyline points="40.98 12.64 38.74 12.64 39.81 8.75" style="fill-rule:evenodd"/><path d="M86.3,8H88c.83,0,1.41.34,1.41,1.12s-.58,1-1.65,1H86.3" style="fill-rule:evenodd"/><path d="M19.44,16.44H8.06c-.73,0-1.36-.54-.63-1.75L13,5.16a.77.77,0,0,1,.78-.58.85.85,0,0,1,.83.58l5.49,9.53c.73,1.21.14,1.7-.63,1.75" style="fill-rule:evenodd"/><path d="M13.75,6.76c-1.75,0-1.26,2.19-.29,5.3a.31.31,0,0,0,.29.29h0a.33.33,0,0,0,.34-.29c1-3.11,1.46-5.3-.34-5.3" style="fill-rule:evenodd"/><path d="M13.75,13.57h0a.92.92,0,0,0-.93.92.94.94,0,0,0,.93,1,.95.95,0,1,0,0-1.9" style="fill-rule:evenodd"/><path d="M14.14,12.11a.37.37,0,0,1-.34.34h0a.33.33,0,0,1-.34-.34c-1.12-3.55-1.65-6,.34-6s1.46,2.48.39,6m-.39,3.84a1.07,1.07,0,1,1,0-2.14h0a1.07,1.07,0,0,1,0,2.14Zm.83-10.79a.85.85,0,0,0-.83-.58.77.77,0,0,0-.78.58L7.43,14.69c-.73,1.21-.1,1.7.63,1.75H19.44c.78,0,1.36-.54.63-1.75Z" style="fill:#fff;fill-rule:evenodd"/><path d="M25.91,13.66V8.17H28c2.38,0,3,.78,3,2.53,0,2.33-.78,3-3.06,3" style="fill-rule:evenodd"/><line x1="103.16" y1="111.14" x2="103.16" y2="0.11" style="fill:none;stroke:#000;stroke-width:0.8911979999999999px"/><rect x="0.45" y="0.45" width="238" height="111.07" style="fill:none;stroke:#000;stroke-width:0.894053px"/><circle cx="110.92" cy="21.17" r="1.76"/><circle cx="110.4" cy="46.75" r="1.76"/><circle cx="110.48" cy="71.22" r="1.76"/></g><g id="text"><path d="M117.18,24.6V18.15h2.42a3,3,0,0,1,1.18.2,1.53,1.53,0,0,1,.7.6,1.58,1.58,0,0,1,.25.85,1.45,1.45,0,0,1-.22.78,1.6,1.6,0,0,1-.68.59,1.69,1.69,0,0,1,.9.58,1.57,1.57,0,0,1,.31,1,1.89,1.89,0,0,1-.19.84,1.63,1.63,0,0,1-.47.6,2,2,0,0,1-.71.32,4.29,4.29,0,0,1-1,.11Zm.85-3.74h1.39a3.11,3.11,0,0,0,.81-.07.91.91,0,0,0,.49-.32.93.93,0,0,0,.16-.56,1,1,0,0,0-.15-.56.78.78,0,0,0-.44-.33,3.67,3.67,0,0,0-1-.09H118Zm0,3h1.6a3.7,3.7,0,0,0,.58,0,1.4,1.4,0,0,0,.49-.18.93.93,0,0,0,.32-.36,1.11,1.11,0,0,0,.13-.54,1.07,1.07,0,0,0-.18-.63,1,1,0,0,0-.51-.37,3.18,3.18,0,0,0-.94-.11H118Z"/><path d="M126.18,24.6v-.69a1.71,1.71,0,0,1-1.48.79,1.89,1.89,0,0,1-.77-.16,1.26,1.26,0,0,1-.53-.4,1.48,1.48,0,0,1-.24-.59,4,4,0,0,1,0-.74V19.93h.79v2.59a4.63,4.63,0,0,0,0,.83.82.82,0,0,0,.32.49,1,1,0,0,0,.6.18,1.3,1.3,0,0,0,.67-.18,1,1,0,0,0,.44-.5,2.48,2.48,0,0,0,.13-.91v-2.5h.79V24.6Z"/><path d="M128.11,24.6V19.93h.71v.71a1.92,1.92,0,0,1,.5-.65.88.88,0,0,1,.51-.16,1.54,1.54,0,0,1,.81.25l-.27.73a1.13,1.13,0,0,0-.58-.17.76.76,0,0,0-.47.16.85.85,0,0,0-.29.43,3.08,3.08,0,0,0-.13.92V24.6Z"/><path d="M131.12,24.6V19.93h.71v.66a1.68,1.68,0,0,1,1.49-.77,2,2,0,0,1,.78.15,1.22,1.22,0,0,1,.53.4,1.53,1.53,0,0,1,.25.58,4.5,4.5,0,0,1,0,.77V24.6h-.79V21.76A2.13,2.13,0,0,0,134,21a.77.77,0,0,0-.33-.38,1,1,0,0,0-.55-.14,1.28,1.28,0,0,0-.87.32,1.58,1.58,0,0,0-.37,1.22V24.6Z"/><path d="M138.62,24.6V18.15h.79v2.31a1.77,1.77,0,0,1,1.4-.64,1.89,1.89,0,0,1,.9.2,1.2,1.2,0,0,1,.55.56,2.61,2.61,0,0,1,.16,1v3h-.79v-3a1.23,1.23,0,0,0-.26-.86,1,1,0,0,0-.73-.27,1.28,1.28,0,0,0-.66.18,1,1,0,0,0-.44.49,2.27,2.27,0,0,0-.13.86V24.6Z"/><path d="M146.68,24a3,3,0,0,1-.85.53,2.45,2.45,0,0,1-.87.15,1.69,1.69,0,0,1-1.18-.38,1.24,1.24,0,0,1-.41-1,1.3,1.3,0,0,1,.56-1.08,1.93,1.93,0,0,1,.57-.26,5.65,5.65,0,0,1,.7-.12,7.21,7.21,0,0,0,1.41-.27c0-.11,0-.18,0-.21a.88.88,0,0,0-.22-.68,1.33,1.33,0,0,0-.9-.27,1.4,1.4,0,0,0-.82.2,1.2,1.2,0,0,0-.39.69l-.77-.11a1.92,1.92,0,0,1,.35-.8,1.52,1.52,0,0,1,.7-.47,3.1,3.1,0,0,1,1.06-.17,2.8,2.8,0,0,1,1,.14,1.28,1.28,0,0,1,.55.35,1.25,1.25,0,0,1,.25.54,4.44,4.44,0,0,1,0,.73v1.05a11.14,11.14,0,0,0,0,1.4,1.77,1.77,0,0,0,.2.56h-.83A1.68,1.68,0,0,1,146.68,24Zm-.07-1.77a5.79,5.79,0,0,1-1.29.3,3,3,0,0,0-.69.16.68.68,0,0,0-.31.26.7.7,0,0,0,.13.9,1,1,0,0,0,.7.21,1.63,1.63,0,0,0,.81-.2,1.23,1.23,0,0,0,.52-.55,1.91,1.91,0,0,0,.13-.79Z"/><path d="M148.22,24.6V24l3-3.41-.89,0h-1.9v-.64h3.81v.52l-2.53,3-.49.54c.36,0,.69,0,1,0h2.16v.68Z"/><path d="M156.18,24a3,3,0,0,1-.85.53,2.45,2.45,0,0,1-.87.15,1.69,1.69,0,0,1-1.18-.38,1.24,1.24,0,0,1-.41-1,1.3,1.3,0,0,1,.56-1.08A1.93,1.93,0,0,1,154,22a5.59,5.59,0,0,1,.7-.12,7.22,7.22,0,0,0,1.41-.27c0-.11,0-.18,0-.21a.87.87,0,0,0-.22-.68,1.33,1.33,0,0,0-.9-.27,1.4,1.4,0,0,0-.82.2,1.2,1.2,0,0,0-.39.69l-.77-.11a1.91,1.91,0,0,1,.35-.8A1.51,1.51,0,0,1,154,20a3.1,3.1,0,0,1,1.06-.17,2.8,2.8,0,0,1,1,.14,1.28,1.28,0,0,1,.55.35,1.25,1.25,0,0,1,.25.54,4.33,4.33,0,0,1,0,.73v1.05a11.35,11.35,0,0,0,0,1.4,1.77,1.77,0,0,0,.2.56h-.83A1.68,1.68,0,0,1,156.18,24Zm-.07-1.77a5.8,5.8,0,0,1-1.29.3,3,3,0,0,0-.69.16.69.69,0,0,0-.31.26.7.7,0,0,0,.13.9,1,1,0,0,0,.7.21,1.63,1.63,0,0,0,.81-.2,1.23,1.23,0,0,0,.52-.55,1.93,1.93,0,0,0,.13-.79Z"/><path d="M158.13,24.6V19.93h.71v.71a1.92,1.92,0,0,1,.5-.65.88.88,0,0,1,.51-.16,1.54,1.54,0,0,1,.81.25l-.27.73a1.13,1.13,0,0,0-.58-.17.75.75,0,0,0-.47.16.85.85,0,0,0-.29.43,3.08,3.08,0,0,0-.13.92V24.6Z"/><path d="M164.17,24.6V24a1.45,1.45,0,0,1-1.3.69,1.83,1.83,0,0,1-1-.31,2,2,0,0,1-.73-.86,3,3,0,0,1-.26-1.27,3.3,3.3,0,0,1,.23-1.27,1.83,1.83,0,0,1,.7-.87,1.87,1.87,0,0,1,1-.3,1.56,1.56,0,0,1,.75.18,1.58,1.58,0,0,1,.54.46V18.15h.79V24.6Zm-2.5-2.33a2,2,0,0,0,.38,1.34,1.14,1.14,0,0,0,.89.44,1.12,1.12,0,0,0,.88-.42,2,2,0,0,0,.36-1.29,2.19,2.19,0,0,0-.37-1.41,1.14,1.14,0,0,0-.91-.45,1.09,1.09,0,0,0-.88.43A2.12,2.12,0,0,0,161.67,22.27Z"/><path d="M166.37,24.6v-.9h.9v.9Z"/><path d="M117.07,49.51V43.07h.85v2.65h3.35V43.07h.85v6.44h-.85v-3h-3.35v3Z"/><path d="M123.14,47.18a2.41,2.41,0,0,1,.72-1.92,2.17,2.17,0,0,1,1.47-.52,2.09,2.09,0,0,1,1.57.63,2.4,2.4,0,0,1,.61,1.74,3.09,3.09,0,0,1-.27,1.42,1.91,1.91,0,0,1-.79.8,2.29,2.29,0,0,1-1.13.29,2.1,2.1,0,0,1-1.58-.63A2.51,2.51,0,0,1,123.14,47.18Zm.81,0a2,2,0,0,0,.39,1.34,1.3,1.3,0,0,0,2,0,2,2,0,0,0,.39-1.37,1.93,1.93,0,0,0-.39-1.31,1.3,1.3,0,0,0-2,0A2,2,0,0,0,124,47.18Z"/><path d="M130.17,48.81l.11.7a2.93,2.93,0,0,1-.6.07,1.35,1.35,0,0,1-.67-.14.76.76,0,0,1-.33-.36,2.84,2.84,0,0,1-.1-.93V45.46H128v-.62h.58V43.69l.79-.47v1.63h.8v.62h-.8v2.73a1.36,1.36,0,0,0,0,.44.32.32,0,0,0,.14.15.52.52,0,0,0,.27.06Z"/><path d="M134.31,49.51l-1.43-4.67h.82l.74,2.69.28,1,.24-1,.74-2.73h.81l.7,2.71.23.89.27-.9.8-2.7h.77l-1.46,4.67H137l-.74-2.79-.18-.8-.95,3.59Z"/><path d="M143,48.94a3,3,0,0,1-.85.53,2.45,2.45,0,0,1-.87.15,1.69,1.69,0,0,1-1.18-.38,1.24,1.24,0,0,1-.41-1,1.3,1.3,0,0,1,.56-1.08,1.93,1.93,0,0,1,.57-.26,5.65,5.65,0,0,1,.7-.12,7.21,7.21,0,0,0,1.41-.27c0-.11,0-.18,0-.21a.88.88,0,0,0-.22-.68,1.33,1.33,0,0,0-.9-.27,1.4,1.4,0,0,0-.82.2,1.2,1.2,0,0,0-.39.69l-.77-.11a1.92,1.92,0,0,1,.35-.8,1.52,1.52,0,0,1,.7-.47,3.1,3.1,0,0,1,1.06-.17,2.8,2.8,0,0,1,1,.14,1.28,1.28,0,0,1,.55.35,1.25,1.25,0,0,1,.25.54,4.44,4.44,0,0,1,0,.73v1.05a11.14,11.14,0,0,0,0,1.4,1.77,1.77,0,0,0,.2.56h-.83A1.68,1.68,0,0,1,143,48.94Zm-.07-1.77a5.79,5.79,0,0,1-1.29.3,3,3,0,0,0-.69.16.68.68,0,0,0-.31.26.7.7,0,0,0,.13.9,1,1,0,0,0,.7.21,1.63,1.63,0,0,0,.81-.2,1.23,1.23,0,0,0,.52-.55,1.91,1.91,0,0,0,.13-.79Z"/><path d="M146.68,48.81l.11.7a2.93,2.93,0,0,1-.6.07,1.35,1.35,0,0,1-.67-.14.76.76,0,0,1-.33-.36,2.84,2.84,0,0,1-.1-.93V45.46h-.58v-.62h.58V43.69l.79-.47v1.63h.8v.62h-.8v2.73a1.36,1.36,0,0,0,0,.44.32.32,0,0,0,.14.15.52.52,0,0,0,.27.06Z"/><path d="M150.65,48l.82.1a2,2,0,0,1-.72,1.11,2.43,2.43,0,0,1-3-.24,2.46,2.46,0,0,1-.6-1.77,2.58,2.58,0,0,1,.61-1.83,2.05,2.05,0,0,1,1.57-.65,2,2,0,0,1,1.53.64,2.54,2.54,0,0,1,.59,1.79s0,.12,0,.21H148a1.79,1.79,0,0,0,.44,1.18,1.29,1.29,0,0,0,1,.41,1.21,1.21,0,0,0,.74-.23A1.52,1.52,0,0,0,150.65,48ZM148,46.73h2.61a1.58,1.58,0,0,0-.3-.88,1.21,1.21,0,0,0-1-.46,1.26,1.26,0,0,0-.92.36A1.44,1.44,0,0,0,148,46.73Z"/><path d="M152.45,49.51V44.85h.71v.71a1.92,1.92,0,0,1,.5-.65.88.88,0,0,1,.51-.16A1.54,1.54,0,0,1,155,45l-.27.73a1.13,1.13,0,0,0-.58-.17.76.76,0,0,0-.47.16.85.85,0,0,0-.29.43,3.08,3.08,0,0,0-.13.92v2.44Z"/><path d="M161,49.51v-.59a1.45,1.45,0,0,1-1.31.69,1.83,1.83,0,0,1-1-.31,2,2,0,0,1-.73-.86,3,3,0,0,1-.26-1.27,3.34,3.34,0,0,1,.23-1.27,1.84,1.84,0,0,1,.7-.87,1.87,1.87,0,0,1,1-.3,1.55,1.55,0,0,1,1.29.64V43.07h.79v6.44Zm-2.5-2.33a2,2,0,0,0,.38,1.34,1.14,1.14,0,0,0,.89.44,1.12,1.12,0,0,0,.88-.42,2,2,0,0,0,.36-1.29,2.19,2.19,0,0,0-.37-1.41,1.13,1.13,0,0,0-.91-.45,1.09,1.09,0,0,0-.88.43A2.12,2.12,0,0,0,158.48,47.18Z"/><path d="M163,44v-.91h.79V44Zm0,5.53V44.85h.79v4.67Z"/><path d="M164.64,48.12l.78-.12a1.1,1.1,0,0,0,.37.72,1.28,1.28,0,0,0,.84.25,1.24,1.24,0,0,0,.81-.22.66.66,0,0,0,.26-.52.48.48,0,0,0-.23-.42,3.47,3.47,0,0,0-.81-.27,7.42,7.42,0,0,1-1.21-.38,1.17,1.17,0,0,1-.51-.44,1.18,1.18,0,0,1-.17-.63,1.2,1.2,0,0,1,.14-.58,1.28,1.28,0,0,1,.39-.44,1.62,1.62,0,0,1,.5-.23,2.4,2.4,0,0,1,.68-.09,2.7,2.7,0,0,1,1,.16,1.32,1.32,0,0,1,.61.43,1.67,1.67,0,0,1,.27.72l-.77.11a.85.85,0,0,0-.3-.56,1.12,1.12,0,0,0-.71-.2,1.29,1.29,0,0,0-.78.18.52.52,0,0,0-.23.42.44.44,0,0,0,.1.28.7.7,0,0,0,.3.21l.7.2a9.71,9.71,0,0,1,1.17.37,1.19,1.19,0,0,1,.52.42,1.16,1.16,0,0,1,.19.68,1.33,1.33,0,0,1-.23.75,1.48,1.48,0,0,1-.67.54,2.41,2.41,0,0,1-1,.19,2.19,2.19,0,0,1-1.39-.38A1.76,1.76,0,0,1,164.64,48.12Z"/><path d="M172.5,47.8l.78.1a2,2,0,0,1-.65,1.26,1.9,1.9,0,0,1-1.29.46A2,2,0,0,1,169.8,49a2.54,2.54,0,0,1-.58-1.8,3.26,3.26,0,0,1,.25-1.32,1.76,1.76,0,0,1,.76-.85,2.27,2.27,0,0,1,1.11-.28,1.94,1.94,0,0,1,1.24.38,1.76,1.76,0,0,1,.62,1.09l-.77.12a1.27,1.27,0,0,0-.39-.71,1,1,0,0,0-.67-.24,1.23,1.23,0,0,0-1,.43,2,2,0,0,0-.37,1.36,2.1,2.1,0,0,0,.36,1.37,1.17,1.17,0,0,0,.94.43,1.11,1.11,0,0,0,.78-.29A1.42,1.42,0,0,0,172.5,47.8Z"/><path d="M174,49.51V43.07h.79v2.31a1.77,1.77,0,0,1,1.4-.64,1.89,1.89,0,0,1,.9.2,1.2,1.2,0,0,1,.55.56,2.59,2.59,0,0,1,.17,1v3H177v-3a1.23,1.23,0,0,0-.26-.86,1,1,0,0,0-.73-.27,1.28,1.28,0,0,0-.66.18,1,1,0,0,0-.44.49,2.27,2.27,0,0,0-.13.86v2.55Z"/><path d="M182,48.94a3,3,0,0,1-.85.53,2.45,2.45,0,0,1-.87.15,1.69,1.69,0,0,1-1.18-.38,1.24,1.24,0,0,1-.41-1,1.3,1.3,0,0,1,.56-1.08,1.93,1.93,0,0,1,.57-.26,5.59,5.59,0,0,1,.7-.12,7.22,7.22,0,0,0,1.41-.27c0-.11,0-.18,0-.21a.87.87,0,0,0-.22-.68,1.33,1.33,0,0,0-.9-.27,1.4,1.4,0,0,0-.82.2,1.2,1.2,0,0,0-.39.69l-.77-.11a1.91,1.91,0,0,1,.35-.8,1.51,1.51,0,0,1,.7-.47,3.1,3.1,0,0,1,1.06-.17,2.8,2.8,0,0,1,1,.14,1.28,1.28,0,0,1,.55.35,1.25,1.25,0,0,1,.25.54,4.33,4.33,0,0,1,0,.73v1.05a11.35,11.35,0,0,0,0,1.4,1.77,1.77,0,0,0,.2.56h-.83A1.68,1.68,0,0,1,182,48.94Zm-.07-1.77a5.8,5.8,0,0,1-1.29.3,3,3,0,0,0-.69.16.69.69,0,0,0-.31.26.7.7,0,0,0,.13.9,1,1,0,0,0,.7.21,1.63,1.63,0,0,0,.81-.2,1.23,1.23,0,0,0,.52-.55,1.93,1.93,0,0,0,.13-.79Z"/><path d="M184,49.51V44.85h.71v.71a1.92,1.92,0,0,1,.5-.65.88.88,0,0,1,.51-.16,1.54,1.54,0,0,1,.81.25l-.27.73a1.13,1.13,0,0,0-.58-.17.75.75,0,0,0-.47.16.85.85,0,0,0-.29.43,3.08,3.08,0,0,0-.13.92v2.44Z"/><path d="M186.82,49.9l.77.11a.74.74,0,0,0,.27.52,1.32,1.32,0,0,0,.8.22,1.41,1.41,0,0,0,.85-.22,1.08,1.08,0,0,0,.4-.62,5.12,5.12,0,0,0,.06-1,1.63,1.63,0,0,1-1.29.61,1.76,1.76,0,0,1-1.49-.69,2.67,2.67,0,0,1-.53-1.67,3.12,3.12,0,0,1,.24-1.23,1.94,1.94,0,0,1,.7-.87,1.89,1.89,0,0,1,1.08-.31,1.67,1.67,0,0,1,1.36.67v-.56h.73v4a3.84,3.84,0,0,1-.22,1.54,1.63,1.63,0,0,1-.7.72,2.44,2.44,0,0,1-1.18.26,2.23,2.23,0,0,1-1.35-.38A1.27,1.27,0,0,1,186.82,49.9Zm.66-2.8a2,2,0,0,0,.36,1.34,1.2,1.2,0,0,0,1.83,0,2,2,0,0,0,.37-1.32,1.92,1.92,0,0,0-.38-1.29,1.18,1.18,0,0,0-.92-.44,1.14,1.14,0,0,0-.9.43A1.9,1.9,0,0,0,187.48,47.1Z"/><path d="M195.17,48l.82.1a2,2,0,0,1-.72,1.11,2.15,2.15,0,0,1-1.34.4,2.13,2.13,0,0,1-1.62-.63,2.46,2.46,0,0,1-.6-1.77,2.58,2.58,0,0,1,.61-1.83,2.05,2.05,0,0,1,1.57-.65,2,2,0,0,1,1.53.64,2.53,2.53,0,0,1,.59,1.79s0,.12,0,.21h-3.48a1.79,1.79,0,0,0,.44,1.18,1.29,1.29,0,0,0,1,.41,1.21,1.21,0,0,0,.74-.23A1.51,1.51,0,0,0,195.17,48Zm-2.6-1.28h2.61a1.58,1.58,0,0,0-.3-.88,1.21,1.21,0,0,0-1-.46,1.26,1.26,0,0,0-.92.36A1.44,1.44,0,0,0,192.57,46.73Z"/><path d="M197.2,49.51v-.9h.9v.9Z"/><path d="M117.24,74.4V68h.85v3.2l3.2-3.2h1.16l-2.7,2.61,2.82,3.83h-1.12l-2.29-3.26-1.05,1V74.4Z"/><path d="M126.37,72.9l.82.1a2,2,0,0,1-.72,1.11,2.16,2.16,0,0,1-1.34.4,2.14,2.14,0,0,1-1.62-.63,2.46,2.46,0,0,1-.6-1.77,2.58,2.58,0,0,1,.61-1.83,2.05,2.05,0,0,1,1.57-.65,2,2,0,0,1,1.53.64,2.53,2.53,0,0,1,.59,1.79s0,.12,0,.21h-3.48a1.79,1.79,0,0,0,.43,1.18,1.3,1.3,0,0,0,1,.41,1.21,1.21,0,0,0,.74-.23A1.52,1.52,0,0,0,126.37,72.9Zm-2.6-1.28h2.61a1.59,1.59,0,0,0-.3-.88,1.21,1.21,0,0,0-1-.46,1.26,1.26,0,0,0-.92.37A1.45,1.45,0,0,0,123.77,71.62Z"/><path d="M131.38,72.9l.82.1a2,2,0,0,1-.72,1.11,2.42,2.42,0,0,1-3-.23,2.46,2.46,0,0,1-.6-1.77,2.58,2.58,0,0,1,.61-1.83,2.05,2.05,0,0,1,1.57-.65,2,2,0,0,1,1.53.64,2.53,2.53,0,0,1,.59,1.79s0,.12,0,.21h-3.48a1.8,1.8,0,0,0,.43,1.18,1.3,1.3,0,0,0,1,.41,1.21,1.21,0,0,0,.74-.23A1.53,1.53,0,0,0,131.38,72.9Zm-2.6-1.28h2.61a1.59,1.59,0,0,0-.3-.88,1.21,1.21,0,0,0-1-.46,1.26,1.26,0,0,0-.92.37A1.45,1.45,0,0,0,128.78,71.62Z"/><path d="M133.19,76.19V69.74h.72v.61a1.77,1.77,0,0,1,.58-.54,1.6,1.6,0,0,1,.78-.18,1.84,1.84,0,0,1,1.05.31,1.89,1.89,0,0,1,.69.87,3.17,3.17,0,0,1,.23,1.23,3.1,3.1,0,0,1-.26,1.29,1.93,1.93,0,0,1-.75.88,1.91,1.91,0,0,1-1,.31,1.49,1.49,0,0,1-.71-.17,1.62,1.62,0,0,1-.52-.42v2.27Zm.72-4.1a2,2,0,0,0,.36,1.33,1.12,1.12,0,0,0,.88.43,1.14,1.14,0,0,0,.9-.45,2.12,2.12,0,0,0,.38-1.38,2.06,2.06,0,0,0-.37-1.34,1.1,1.1,0,0,0-.88-.44,1.14,1.14,0,0,0-.89.47A2.12,2.12,0,0,0,133.9,72.1Z"/><path d="M143.74,72.69l.78.1a2,2,0,0,1-.65,1.26,1.9,1.9,0,0,1-1.29.46,2,2,0,0,1-1.54-.63,2.54,2.54,0,0,1-.58-1.79,3.26,3.26,0,0,1,.25-1.32,1.75,1.75,0,0,1,.76-.85,2.28,2.28,0,0,1,1.11-.28,1.94,1.94,0,0,1,1.24.38,1.77,1.77,0,0,1,.62,1.09l-.77.12a1.27,1.27,0,0,0-.39-.71,1,1,0,0,0-.67-.24,1.23,1.23,0,0,0-1,.43,2,2,0,0,0-.37,1.36,2.1,2.1,0,0,0,.36,1.37,1.17,1.17,0,0,0,.94.43,1.11,1.11,0,0,0,.78-.29A1.42,1.42,0,0,0,143.74,72.69Z"/><path d="M145.18,74.4V68H146V74.4Z"/><path d="M150.39,72.9l.82.1a2,2,0,0,1-.72,1.11,2.42,2.42,0,0,1-3-.23,2.46,2.46,0,0,1-.6-1.77,2.58,2.58,0,0,1,.61-1.83,2.05,2.05,0,0,1,1.57-.65,2,2,0,0,1,1.53.64,2.53,2.53,0,0,1,.59,1.79s0,.12,0,.21h-3.48a1.79,1.79,0,0,0,.44,1.18,1.29,1.29,0,0,0,1,.41,1.21,1.21,0,0,0,.74-.23A1.51,1.51,0,0,0,150.39,72.9Zm-2.6-1.28h2.61a1.59,1.59,0,0,0-.3-.88,1.21,1.21,0,0,0-1-.46,1.26,1.26,0,0,0-.92.37A1.44,1.44,0,0,0,147.79,71.62Z"/><path d="M155.24,73.83a3,3,0,0,1-.85.53,2.45,2.45,0,0,1-.87.15,1.69,1.69,0,0,1-1.18-.38,1.24,1.24,0,0,1-.41-1,1.28,1.28,0,0,1,.16-.63,1.3,1.3,0,0,1,.41-.46,1.94,1.94,0,0,1,.57-.26,5.49,5.49,0,0,1,.7-.12,7.24,7.24,0,0,0,1.41-.27c0-.11,0-.18,0-.21a.87.87,0,0,0-.22-.68,1.32,1.32,0,0,0-.9-.27,1.39,1.39,0,0,0-.82.2,1.18,1.18,0,0,0-.39.69l-.77-.11a1.93,1.93,0,0,1,.35-.8,1.52,1.52,0,0,1,.7-.47,3.08,3.08,0,0,1,1.06-.17,2.81,2.81,0,0,1,1,.14,1.3,1.3,0,0,1,.55.35,1.25,1.25,0,0,1,.25.54,4.47,4.47,0,0,1,0,.73v1.05a11.29,11.29,0,0,0,.05,1.4,1.75,1.75,0,0,0,.2.56h-.83A1.68,1.68,0,0,1,155.24,73.83Zm-.07-1.77a5.81,5.81,0,0,1-1.29.3,3,3,0,0,0-.69.16.7.7,0,0,0-.31.26.68.68,0,0,0-.11.38.67.67,0,0,0,.24.53,1,1,0,0,0,.7.21,1.63,1.63,0,0,0,.81-.2,1.23,1.23,0,0,0,.52-.55,1.91,1.91,0,0,0,.13-.79Z"/><path d="M157.19,74.4V69.74h.71v.71a1.93,1.93,0,0,1,.5-.66.87.87,0,0,1,.51-.16,1.55,1.55,0,0,1,.81.26l-.27.73a1.13,1.13,0,0,0-.58-.17.75.75,0,0,0-.46.16.84.84,0,0,0-.29.43A3.09,3.09,0,0,0,158,72V74.4Z"/><path d="M162.41,72.07a2.4,2.4,0,0,1,.72-1.92,2.17,2.17,0,0,1,1.47-.52,2.1,2.1,0,0,1,1.57.63,2.4,2.4,0,0,1,.61,1.74,3.09,3.09,0,0,1-.27,1.42,1.92,1.92,0,0,1-.79.8,2.29,2.29,0,0,1-1.13.29,2.1,2.1,0,0,1-1.58-.63A2.51,2.51,0,0,1,162.41,72.07Zm.81,0a2,2,0,0,0,.39,1.34,1.3,1.3,0,0,0,2,0A2,2,0,0,0,166,72a1.93,1.93,0,0,0-.39-1.31,1.3,1.3,0,0,0-2,0A2,2,0,0,0,163.22,72.07Z"/><path d="M167.89,74.4V70.35h-.7v-.62h.7v-.5a2.18,2.18,0,0,1,.08-.7,1,1,0,0,1,.4-.5,1.45,1.45,0,0,1,.81-.19,3.87,3.87,0,0,1,.74.08l-.12.69a2.66,2.66,0,0,0-.47,0,.69.69,0,0,0-.51.15.84.84,0,0,0-.15.58v.43h.91v.62h-.91V74.4Z"/><path d="M174.28,74.4V68.72h-2.12V68h5.11v.76h-2.13V74.4Z"/><path d="M180.24,72.9l.82.1a2,2,0,0,1-.72,1.11,2.42,2.42,0,0,1-3-.23,2.46,2.46,0,0,1-.6-1.77,2.58,2.58,0,0,1,.61-1.83,2.05,2.05,0,0,1,1.57-.65,2,2,0,0,1,1.53.64,2.54,2.54,0,0,1,.59,1.79s0,.12,0,.21H177.6a1.79,1.79,0,0,0,.44,1.18,1.3,1.3,0,0,0,1,.41,1.21,1.21,0,0,0,.74-.23A1.52,1.52,0,0,0,180.24,72.9Zm-2.6-1.28h2.61a1.59,1.59,0,0,0-.3-.88,1.21,1.21,0,0,0-1-.46,1.26,1.26,0,0,0-.92.37A1.44,1.44,0,0,0,177.64,71.62Z"/><path d="M182,74.4V69.74h.71v.66a1.67,1.67,0,0,1,.58-.55,1.65,1.65,0,0,1,.83-.21,1.54,1.54,0,0,1,.85.22,1.15,1.15,0,0,1,.47.6,1.68,1.68,0,0,1,1.44-.82A1.42,1.42,0,0,1,188,70a1.64,1.64,0,0,1,.37,1.18v3.2h-.79V71.46a2.17,2.17,0,0,0-.08-.68.66.66,0,0,0-.28-.34.87.87,0,0,0-.47-.13,1.1,1.1,0,0,0-.82.33,1.44,1.44,0,0,0-.33,1V74.4h-.79v-3a1.33,1.33,0,0,0-.19-.79.73.73,0,0,0-.63-.26,1.15,1.15,0,0,0-.62.18A1,1,0,0,0,183,71a2.87,2.87,0,0,0-.13,1V74.4Z"/><path d="M189.55,76.19V69.74h.72v.61a1.77,1.77,0,0,1,.58-.54,1.59,1.59,0,0,1,.78-.18,1.84,1.84,0,0,1,1.05.31,1.88,1.88,0,0,1,.69.87A3.15,3.15,0,0,1,193.6,72a3.1,3.1,0,0,1-.26,1.29,1.93,1.93,0,0,1-.75.88,1.91,1.91,0,0,1-1,.31,1.5,1.5,0,0,1-.71-.17,1.62,1.62,0,0,1-.52-.42v2.27Zm.72-4.1a2,2,0,0,0,.36,1.33,1.12,1.12,0,0,0,.88.43,1.14,1.14,0,0,0,.9-.45,2.12,2.12,0,0,0,.38-1.38,2.06,2.06,0,0,0-.37-1.34,1.1,1.1,0,0,0-.88-.44,1.14,1.14,0,0,0-.89.47A2.12,2.12,0,0,0,190.26,72.1Z"/><path d="M197.75,72.9l.82.1a2,2,0,0,1-.72,1.11,2.42,2.42,0,0,1-3-.23,2.46,2.46,0,0,1-.6-1.77,2.58,2.58,0,0,1,.61-1.83,2.05,2.05,0,0,1,1.57-.65,2,2,0,0,1,1.53.64,2.54,2.54,0,0,1,.59,1.79s0,.12,0,.21h-3.48a1.79,1.79,0,0,0,.44,1.18,1.3,1.3,0,0,0,1,.41,1.21,1.21,0,0,0,.74-.23A1.52,1.52,0,0,0,197.75,72.9Zm-2.6-1.28h2.61a1.59,1.59,0,0,0-.3-.88,1.21,1.21,0,0,0-1-.46,1.26,1.26,0,0,0-.92.37A1.44,1.44,0,0,0,195.15,71.62Z"/><path d="M199.55,74.4V69.74h.71v.71a1.93,1.93,0,0,1,.5-.66.88.88,0,0,1,.51-.16,1.54,1.54,0,0,1,.81.26l-.27.73a1.13,1.13,0,0,0-.58-.17.75.75,0,0,0-.47.16.85.85,0,0,0-.29.43,3.09,3.09,0,0,0-.13.92V74.4Z"/><path d="M205.6,73.83a2.94,2.94,0,0,1-.85.53,2.45,2.45,0,0,1-.87.15,1.69,1.69,0,0,1-1.18-.38,1.24,1.24,0,0,1-.41-1,1.27,1.27,0,0,1,.16-.63,1.29,1.29,0,0,1,.41-.46,1.94,1.94,0,0,1,.57-.26,5.55,5.55,0,0,1,.7-.12,7.22,7.22,0,0,0,1.41-.27c0-.11,0-.18,0-.21a.87.87,0,0,0-.22-.68,1.32,1.32,0,0,0-.9-.27,1.39,1.39,0,0,0-.82.2,1.19,1.19,0,0,0-.39.69l-.77-.11a1.94,1.94,0,0,1,.35-.8,1.53,1.53,0,0,1,.7-.47,3.08,3.08,0,0,1,1.06-.17,2.81,2.81,0,0,1,1,.14,1.29,1.29,0,0,1,.55.35,1.25,1.25,0,0,1,.25.54,4.59,4.59,0,0,1,0,.73v1.05a11.08,11.08,0,0,0,.05,1.4,1.75,1.75,0,0,0,.2.56h-.83A1.68,1.68,0,0,1,205.6,73.83Zm-.07-1.77a5.8,5.8,0,0,1-1.29.3,3,3,0,0,0-.69.16.69.69,0,0,0-.31.26.7.7,0,0,0,.13.9,1,1,0,0,0,.7.21,1.63,1.63,0,0,0,.81-.2,1.23,1.23,0,0,0,.52-.55,1.89,1.89,0,0,0,.13-.79Z"/><path d="M209.29,73.7l.11.7a2.93,2.93,0,0,1-.6.07,1.35,1.35,0,0,1-.67-.14.76.76,0,0,1-.33-.36,2.83,2.83,0,0,1-.1-.93V70.35h-.58v-.62h.58V68.58l.79-.47v1.63h.79v.62h-.79v2.73a1.4,1.4,0,0,0,0,.43.33.33,0,0,0,.14.15.52.52,0,0,0,.27.06Z"/><path d="M213.12,74.4v-.69a1.71,1.71,0,0,1-1.48.79,1.89,1.89,0,0,1-.77-.16,1.26,1.26,0,0,1-.53-.4,1.47,1.47,0,0,1-.24-.59,3.93,3.93,0,0,1,0-.74V69.74h.79v2.59a4.51,4.51,0,0,0,0,.83.82.82,0,0,0,.32.49,1,1,0,0,0,.6.18,1.31,1.31,0,0,0,.67-.18,1,1,0,0,0,.44-.5,2.5,2.5,0,0,0,.13-.91v-2.5h.79V74.4Z"/><path d="M215.06,74.4V69.74h.71v.71a1.93,1.93,0,0,1,.5-.66.88.88,0,0,1,.51-.16,1.54,1.54,0,0,1,.81.26l-.27.73a1.13,1.13,0,0,0-.58-.17.75.75,0,0,0-.47.16A.84.84,0,0,0,216,71a3.09,3.09,0,0,0-.13.92V74.4Z"/><path d="M221.26,72.9l.82.1a2,2,0,0,1-.72,1.11,2.16,2.16,0,0,1-1.34.4,2.14,2.14,0,0,1-1.62-.63,2.46,2.46,0,0,1-.6-1.77,2.58,2.58,0,0,1,.61-1.83,2.05,2.05,0,0,1,1.57-.65,2,2,0,0,1,1.53.64,2.53,2.53,0,0,1,.59,1.79s0,.12,0,.21h-3.48a1.79,1.79,0,0,0,.43,1.18,1.3,1.3,0,0,0,1,.41,1.21,1.21,0,0,0,.74-.23A1.52,1.52,0,0,0,221.26,72.9Zm-2.6-1.28h2.61a1.59,1.59,0,0,0-.3-.88,1.21,1.21,0,0,0-1-.46,1.26,1.26,0,0,0-.92.37A1.45,1.45,0,0,0,218.66,71.62Z"/><path d="M222.76,72.47v-.8h2.43v.8Z"/><path d="M117.27,85.2V78.76h2.43a5.88,5.88,0,0,1,1,.06,2,2,0,0,1,.8.3,1.59,1.59,0,0,1,.52.62,2.1,2.1,0,0,1-.33,2.27,2.51,2.51,0,0,1-1.89.57h-1.65V85.2Zm.85-3.38h1.67a1.77,1.77,0,0,0,1.17-.31,1.1,1.1,0,0,0,.35-.87,1.16,1.16,0,0,0-.2-.69,1,1,0,0,0-.54-.38,3.71,3.71,0,0,0-.8-.06h-1.65Z"/><path d="M123.17,85.2V80.54h.71v.71a1.92,1.92,0,0,1,.5-.65.88.88,0,0,1,.51-.16,1.54,1.54,0,0,1,.81.25l-.27.73a1.13,1.13,0,0,0-.58-.17.76.76,0,0,0-.47.16.85.85,0,0,0-.29.43,3.07,3.07,0,0,0-.13.92V85.2Z"/><path d="M129.37,83.7l.82.1a2,2,0,0,1-.72,1.11,2.43,2.43,0,0,1-3-.24,2.46,2.46,0,0,1-.6-1.77,2.58,2.58,0,0,1,.61-1.83,2.05,2.05,0,0,1,1.57-.65,2,2,0,0,1,1.53.64,2.54,2.54,0,0,1,.59,1.79s0,.12,0,.21h-3.48a1.79,1.79,0,0,0,.44,1.18,1.29,1.29,0,0,0,1,.41,1.21,1.21,0,0,0,.74-.23A1.51,1.51,0,0,0,129.37,83.7Zm-2.6-1.28h2.61a1.58,1.58,0,0,0-.3-.88,1.21,1.21,0,0,0-1-.46,1.26,1.26,0,0,0-.92.36A1.44,1.44,0,0,0,126.77,82.42Z"/><path d="M130.86,83.81l.78-.12a1.09,1.09,0,0,0,.37.72,1.28,1.28,0,0,0,.84.25,1.24,1.24,0,0,0,.81-.22.67.67,0,0,0,.26-.52.48.48,0,0,0-.23-.42,3.39,3.39,0,0,0-.81-.27,7.32,7.32,0,0,1-1.21-.38,1.16,1.16,0,0,1-.51-.44,1.18,1.18,0,0,1-.17-.63,1.2,1.2,0,0,1,.14-.58,1.3,1.3,0,0,1,.39-.44,1.66,1.66,0,0,1,.5-.23,2.4,2.4,0,0,1,.68-.09,2.71,2.71,0,0,1,1,.16,1.32,1.32,0,0,1,.61.43,1.68,1.68,0,0,1,.27.72l-.77.11a.85.85,0,0,0-.3-.56,1.12,1.12,0,0,0-.71-.2,1.29,1.29,0,0,0-.78.18.52.52,0,0,0-.23.42.44.44,0,0,0,.1.28.72.72,0,0,0,.3.21l.7.2a10.12,10.12,0,0,1,1.17.37,1.19,1.19,0,0,1,.52.42,1.15,1.15,0,0,1,.19.68,1.33,1.33,0,0,1-.23.75,1.49,1.49,0,0,1-.67.54,2.4,2.4,0,0,1-1,.19,2.19,2.19,0,0,1-1.39-.38A1.76,1.76,0,0,1,130.86,83.81Z"/><path d="M135.36,83.81l.78-.12a1.09,1.09,0,0,0,.37.72,1.28,1.28,0,0,0,.84.25,1.24,1.24,0,0,0,.81-.22.67.67,0,0,0,.26-.52.48.48,0,0,0-.23-.42,3.39,3.39,0,0,0-.81-.27,7.32,7.32,0,0,1-1.21-.38,1.16,1.16,0,0,1-.51-.44,1.18,1.18,0,0,1-.17-.63,1.2,1.2,0,0,1,.14-.58,1.3,1.3,0,0,1,.39-.44,1.66,1.66,0,0,1,.5-.23,2.4,2.4,0,0,1,.68-.09,2.71,2.71,0,0,1,1,.16,1.32,1.32,0,0,1,.61.43,1.68,1.68,0,0,1,.27.72l-.77.11a.85.85,0,0,0-.3-.56,1.12,1.12,0,0,0-.71-.2,1.29,1.29,0,0,0-.78.18.52.52,0,0,0-.23.42.44.44,0,0,0,.1.28.72.72,0,0,0,.3.21l.7.2a10.12,10.12,0,0,1,1.17.37,1.19,1.19,0,0,1,.52.42,1.15,1.15,0,0,1,.19.68,1.33,1.33,0,0,1-.23.75,1.49,1.49,0,0,1-.67.54,2.4,2.4,0,0,1-1,.19,2.19,2.19,0,0,1-1.39-.38A1.76,1.76,0,0,1,135.36,83.81Z"/><path d="M143.24,85.2v-.69a1.71,1.71,0,0,1-1.48.79,1.89,1.89,0,0,1-.77-.16,1.27,1.27,0,0,1-.53-.4,1.5,1.5,0,0,1-.24-.59,4.1,4.1,0,0,1,0-.74V80.54H141v2.59a4.72,4.72,0,0,0,0,.83.83.83,0,0,0,.32.49,1,1,0,0,0,.6.18,1.29,1.29,0,0,0,.67-.18,1,1,0,0,0,.44-.5,2.48,2.48,0,0,0,.13-.91v-2.5h.79V85.2Z"/><path d="M145.18,85.2V80.54h.71v.71a1.92,1.92,0,0,1,.5-.65.88.88,0,0,1,.51-.16,1.54,1.54,0,0,1,.81.25l-.27.73a1.13,1.13,0,0,0-.58-.17.76.76,0,0,0-.47.16.85.85,0,0,0-.29.43,3.07,3.07,0,0,0-.13.92V85.2Z"/><path d="M151.38,83.7l.82.1a2,2,0,0,1-.72,1.11,2.43,2.43,0,0,1-3-.24,2.46,2.46,0,0,1-.6-1.77,2.58,2.58,0,0,1,.61-1.83,2.05,2.05,0,0,1,1.57-.65,2,2,0,0,1,1.53.64,2.54,2.54,0,0,1,.59,1.79s0,.12,0,.21h-3.48a1.79,1.79,0,0,0,.44,1.18,1.29,1.29,0,0,0,1,.41,1.21,1.21,0,0,0,.74-.23A1.51,1.51,0,0,0,151.38,83.7Zm-2.6-1.28h2.61a1.58,1.58,0,0,0-.3-.88,1.21,1.21,0,0,0-1-.46,1.26,1.26,0,0,0-.92.36A1.44,1.44,0,0,0,148.78,82.42Z"/><path d="M155.8,85.2V78.76h2.86a3.78,3.78,0,0,1,1.31.17,1.43,1.43,0,0,1,.72.61,1.83,1.83,0,0,1,.27,1,1.62,1.62,0,0,1-.44,1.16,2.25,2.25,0,0,1-1.37.6,2.21,2.21,0,0,1,.51.32,4.39,4.39,0,0,1,.71.86l1.12,1.75h-1.07l-.85-1.34q-.37-.58-.62-.89a2,2,0,0,0-.43-.43,1.3,1.3,0,0,0-.39-.17,2.66,2.66,0,0,0-.47,0h-1V85.2Zm.85-3.6h1.83a2.76,2.76,0,0,0,.91-.12,1,1,0,0,0,.5-.39,1,1,0,0,0,.17-.58,1,1,0,0,0-.33-.75,1.55,1.55,0,0,0-1-.29h-2Z"/><path d="M165.38,83.7l.82.1a2,2,0,0,1-.72,1.11,2.15,2.15,0,0,1-1.34.39,2.13,2.13,0,0,1-1.62-.63,2.46,2.46,0,0,1-.6-1.77,2.58,2.58,0,0,1,.61-1.83,2.05,2.05,0,0,1,1.57-.65,2,2,0,0,1,1.53.64,2.53,2.53,0,0,1,.59,1.79s0,.12,0,.21h-3.48a1.79,1.79,0,0,0,.44,1.18,1.29,1.29,0,0,0,1,.41,1.21,1.21,0,0,0,.74-.23A1.51,1.51,0,0,0,165.38,83.7Zm-2.6-1.28h2.61a1.58,1.58,0,0,0-.3-.88,1.21,1.21,0,0,0-1-.46,1.25,1.25,0,0,0-.92.36A1.44,1.44,0,0,0,162.78,82.42Z"/><path d="M167.17,85.2V78.76H168V85.2Z"/><path d="M169.2,79.67v-.91H170v.91Zm0,5.53V80.54H170V85.2Z"/><path d="M174.39,83.7l.82.1a2,2,0,0,1-.72,1.11,2.43,2.43,0,0,1-3-.24,2.46,2.46,0,0,1-.6-1.77,2.58,2.58,0,0,1,.61-1.83,2.05,2.05,0,0,1,1.57-.65,2,2,0,0,1,1.53.64,2.54,2.54,0,0,1,.59,1.79s0,.12,0,.21h-3.48a1.79,1.79,0,0,0,.44,1.18,1.29,1.29,0,0,0,1,.41,1.21,1.21,0,0,0,.74-.23A1.51,1.51,0,0,0,174.39,83.7Zm-2.6-1.28h2.61a1.58,1.58,0,0,0-.3-.88,1.21,1.21,0,0,0-1-.46,1.26,1.26,0,0,0-.92.36A1.44,1.44,0,0,0,171.79,82.42Z"/><path d="M176.38,85.2V81.15h-.7v-.62h.7V80a2.17,2.17,0,0,1,.08-.7,1,1,0,0,1,.4-.5,1.45,1.45,0,0,1,.81-.19,3.87,3.87,0,0,1,.74.08l-.12.69a2.65,2.65,0,0,0-.47,0,.69.69,0,0,0-.51.15.83.83,0,0,0-.15.58v.43h.91v.62h-.91V85.2Z"/><path d="M183.14,85.2l-2.5-6.44h.92l1.67,4.68q.2.56.34,1.05.15-.53.35-1.05l1.74-4.68h.87L184,85.2Z"/><path d="M189.58,84.63a3,3,0,0,1-.85.53,2.45,2.45,0,0,1-.87.15,1.7,1.7,0,0,1-1.18-.37,1.24,1.24,0,0,1-.41-1,1.3,1.3,0,0,1,.56-1.08,1.91,1.91,0,0,1,.57-.26,5.75,5.75,0,0,1,.7-.12,7.24,7.24,0,0,0,1.41-.27c0-.11,0-.18,0-.21a.88.88,0,0,0-.22-.68,1.33,1.33,0,0,0-.9-.27,1.4,1.4,0,0,0-.82.2,1.2,1.2,0,0,0-.39.69l-.77-.11a1.9,1.9,0,0,1,.35-.8,1.52,1.52,0,0,1,.7-.47,3.13,3.13,0,0,1,1.06-.16,2.8,2.8,0,0,1,1,.14,1.27,1.27,0,0,1,.55.35,1.25,1.25,0,0,1,.25.54,4.33,4.33,0,0,1,0,.73v1.05a11.33,11.33,0,0,0,0,1.39,1.76,1.76,0,0,0,.2.56h-.83A1.67,1.67,0,0,1,189.58,84.63Zm-.07-1.77a5.8,5.8,0,0,1-1.29.3,3,3,0,0,0-.69.16.68.68,0,0,0-.31.26.7.7,0,0,0,.13.9,1,1,0,0,0,.7.21,1.63,1.63,0,0,0,.81-.2,1.24,1.24,0,0,0,.52-.55,1.93,1.93,0,0,0,.13-.79Z"/><path d="M191.52,85.2V78.76h.79V85.2Z"/><path d="M194.83,85.2l-1.78-4.67h.83l1,2.79c.11.3.21.62.3.94q.11-.37.29-.89l1-2.85h.81l-1.77,4.67Z"/><path d="M201.23,83.7l.82.1a2,2,0,0,1-.72,1.11,2.15,2.15,0,0,1-1.34.39,2.13,2.13,0,0,1-1.62-.63,2.46,2.46,0,0,1-.6-1.77,2.58,2.58,0,0,1,.61-1.83,2.05,2.05,0,0,1,1.57-.65,2,2,0,0,1,1.53.64,2.53,2.53,0,0,1,.59,1.79s0,.12,0,.21h-3.48a1.8,1.8,0,0,0,.43,1.18,1.3,1.3,0,0,0,1,.41,1.21,1.21,0,0,0,.74-.23A1.52,1.52,0,0,0,201.23,83.7Zm-2.6-1.28h2.61a1.58,1.58,0,0,0-.3-.88,1.21,1.21,0,0,0-1-.46,1.26,1.26,0,0,0-.92.36A1.45,1.45,0,0,0,198.63,82.42Z"/><path d="M120.2,96v-.59a1.45,1.45,0,0,1-1.31.69,1.83,1.83,0,0,1-1-.31,2,2,0,0,1-.73-.86,3,3,0,0,1-.26-1.27,3.32,3.32,0,0,1,.23-1.27,1.83,1.83,0,0,1,.7-.87,1.86,1.86,0,0,1,1-.3,1.55,1.55,0,0,1,1.29.64V89.56h.79V96Zm-2.5-2.33a2,2,0,0,0,.38,1.34,1.14,1.14,0,0,0,.89.44,1.12,1.12,0,0,0,.88-.42,2,2,0,0,0,.36-1.29,2.19,2.19,0,0,0-.37-1.41,1.14,1.14,0,0,0-.91-.45,1.09,1.09,0,0,0-.88.43A2.12,2.12,0,0,0,117.7,93.67Z"/><path d="M122.18,90.47v-.91H123v.91Zm0,5.53V91.34H123V96Z"/><path d="M123.86,94.61l.78-.12a1.1,1.1,0,0,0,.37.72,1.28,1.28,0,0,0,.84.25,1.24,1.24,0,0,0,.81-.22.66.66,0,0,0,.26-.52.48.48,0,0,0-.23-.42,3.39,3.39,0,0,0-.81-.27,7.35,7.35,0,0,1-1.21-.38,1.15,1.15,0,0,1-.68-1.07,1.2,1.2,0,0,1,.14-.58,1.28,1.28,0,0,1,.39-.44,1.62,1.62,0,0,1,.5-.23,2.41,2.41,0,0,1,.68-.09,2.7,2.7,0,0,1,1,.16,1.3,1.3,0,0,1,.61.43,1.67,1.67,0,0,1,.27.72l-.77.11a.85.85,0,0,0-.31-.56,1.12,1.12,0,0,0-.71-.2,1.29,1.29,0,0,0-.78.18.52.52,0,0,0-.23.42.44.44,0,0,0,.1.28.7.7,0,0,0,.3.21l.7.2a9.71,9.71,0,0,1,1.17.37,1.19,1.19,0,0,1,.52.42,1.16,1.16,0,0,1,.19.68,1.33,1.33,0,0,1-.23.75,1.49,1.49,0,0,1-.67.54,2.42,2.42,0,0,1-1,.19,2.19,2.19,0,0,1-1.39-.38A1.76,1.76,0,0,1,123.86,94.61Z"/><path d="M131.72,94.29l.78.1a2,2,0,0,1-.65,1.26,1.9,1.9,0,0,1-1.29.46,2,2,0,0,1-1.54-.63,2.55,2.55,0,0,1-.58-1.8,3.23,3.23,0,0,1,.25-1.32,1.74,1.74,0,0,1,.76-.85,2.27,2.27,0,0,1,1.11-.28,1.93,1.93,0,0,1,1.24.38,1.76,1.76,0,0,1,.62,1.09l-.77.12a1.28,1.28,0,0,0-.39-.71,1,1,0,0,0-.67-.24,1.23,1.23,0,0,0-1,.43,2,2,0,0,0-.37,1.36,2.11,2.11,0,0,0,.36,1.37,1.18,1.18,0,0,0,.94.43,1.11,1.11,0,0,0,.78-.29A1.42,1.42,0,0,0,131.72,94.29Z"/><path d="M133.18,96V89.56H134v2.31a1.77,1.77,0,0,1,1.4-.64,1.89,1.89,0,0,1,.9.2,1.2,1.2,0,0,1,.55.56,2.6,2.6,0,0,1,.17,1v3h-.79V93a1.23,1.23,0,0,0-.26-.86,1,1,0,0,0-.73-.27,1.29,1.29,0,0,0-.66.18,1,1,0,0,0-.44.5,2.26,2.26,0,0,0-.13.86V96Z"/><path d="M141.23,95.43a2.9,2.9,0,0,1-.85.53,2.42,2.42,0,0,1-.87.15,1.7,1.7,0,0,1-1.18-.38,1.24,1.24,0,0,1-.41-1,1.26,1.26,0,0,1,.16-.63,1.28,1.28,0,0,1,.41-.46,1.91,1.91,0,0,1,.57-.26,5.7,5.7,0,0,1,.7-.12,7.24,7.24,0,0,0,1.41-.27c0-.11,0-.18,0-.21a.87.87,0,0,0-.22-.68,1.32,1.32,0,0,0-.9-.27,1.39,1.39,0,0,0-.82.2,1.2,1.2,0,0,0-.39.69l-.77-.11a1.94,1.94,0,0,1,.35-.8,1.53,1.53,0,0,1,.7-.47,3.11,3.11,0,0,1,1.06-.17,2.81,2.81,0,0,1,1,.14,1.29,1.29,0,0,1,.55.35,1.25,1.25,0,0,1,.25.54,4.6,4.6,0,0,1,0,.73V94a11.06,11.06,0,0,0,.05,1.39,1.74,1.74,0,0,0,.2.56h-.83A1.67,1.67,0,0,1,141.23,95.43Zm-.07-1.77a5.8,5.8,0,0,1-1.29.3,3,3,0,0,0-.69.16.69.69,0,0,0-.31.26.7.7,0,0,0,.13.9,1,1,0,0,0,.7.21,1.63,1.63,0,0,0,.81-.2,1.23,1.23,0,0,0,.52-.55,1.89,1.89,0,0,0,.13-.79Z"/><path d="M143.18,96V91.34h.71V92a1.92,1.92,0,0,1,.5-.66.88.88,0,0,1,.51-.16,1.54,1.54,0,0,1,.81.25l-.27.73a1.12,1.12,0,0,0-.58-.17.76.76,0,0,0-.47.16.84.84,0,0,0-.29.43,3.08,3.08,0,0,0-.13.92V96Z"/><path d="M146,96.39l.77.11a.73.73,0,0,0,.27.52,1.32,1.32,0,0,0,.8.22,1.41,1.41,0,0,0,.85-.22,1.08,1.08,0,0,0,.4-.62,5,5,0,0,0,.06-1,1.62,1.62,0,0,1-1.29.61,1.76,1.76,0,0,1-1.49-.69,2.67,2.67,0,0,1-.53-1.67,3.09,3.09,0,0,1,.24-1.23,1.93,1.93,0,0,1,.7-.87,1.89,1.89,0,0,1,1.08-.31,1.67,1.67,0,0,1,1.36.67v-.56H150v4a3.84,3.84,0,0,1-.22,1.54,1.63,1.63,0,0,1-.7.72,2.44,2.44,0,0,1-1.18.26,2.24,2.24,0,0,1-1.35-.38A1.27,1.27,0,0,1,146,96.39Zm.65-2.8a2,2,0,0,0,.37,1.34,1.16,1.16,0,0,0,.91.42,1.17,1.17,0,0,0,.91-.42,2,2,0,0,0,.37-1.32,1.92,1.92,0,0,0-.38-1.29,1.18,1.18,0,0,0-.92-.43,1.14,1.14,0,0,0-.9.43A1.9,1.9,0,0,0,146.7,93.59Z"/><path d="M154.39,94.5l.82.1a2,2,0,0,1-.72,1.11,2.43,2.43,0,0,1-3-.24,2.46,2.46,0,0,1-.6-1.77,2.58,2.58,0,0,1,.61-1.83,2.05,2.05,0,0,1,1.57-.65,2,2,0,0,1,1.53.64,2.53,2.53,0,0,1,.59,1.79s0,.12,0,.21h-3.48a1.8,1.8,0,0,0,.43,1.18,1.3,1.3,0,0,0,1,.41,1.21,1.21,0,0,0,.74-.23A1.52,1.52,0,0,0,154.39,94.5Zm-2.6-1.28h2.61a1.58,1.58,0,0,0-.3-.88,1.21,1.21,0,0,0-1-.46,1.26,1.26,0,0,0-.92.36A1.45,1.45,0,0,0,151.79,93.22Z"/><path d="M158.4,93.67a2.41,2.41,0,0,1,.72-1.92,2.17,2.17,0,0,1,1.47-.52,2.09,2.09,0,0,1,1.57.63,2.4,2.4,0,0,1,.61,1.74,3.09,3.09,0,0,1-.27,1.42,1.93,1.93,0,0,1-.79.8,2.3,2.3,0,0,1-1.13.29,2.09,2.09,0,0,1-1.58-.63A2.5,2.5,0,0,1,158.4,93.67Zm.81,0a2,2,0,0,0,.39,1.34,1.3,1.3,0,0,0,2,0,2,2,0,0,0,.39-1.37,1.93,1.93,0,0,0-.39-1.31,1.3,1.3,0,0,0-2,0A2,2,0,0,0,159.22,93.67Z"/><path d="M166.76,96v-.69a1.71,1.71,0,0,1-1.48.79,1.89,1.89,0,0,1-.77-.16,1.27,1.27,0,0,1-.53-.4,1.48,1.48,0,0,1-.24-.59,4,4,0,0,1,0-.74V91.34h.79v2.59a4.61,4.61,0,0,0,0,.83.82.82,0,0,0,.32.49,1,1,0,0,0,.6.18,1.31,1.31,0,0,0,.67-.18,1,1,0,0,0,.44-.5,2.47,2.47,0,0,0,.13-.91v-2.5h.79V96Z"/><path d="M170.44,95.3l.11.7a2.93,2.93,0,0,1-.6.07,1.36,1.36,0,0,1-.67-.14.77.77,0,0,1-.33-.36,2.84,2.84,0,0,1-.1-.93V92h-.58v-.62h.58V90.18l.79-.47v1.63h.8V92h-.8v2.73a1.36,1.36,0,0,0,0,.43.32.32,0,0,0,.14.15.51.51,0,0,0,.27.06Z"/><path d="M171.19,96V89.56H172V96Z"/><path d="M176.4,94.5l.82.1a2,2,0,0,1-.72,1.11,2.15,2.15,0,0,1-1.34.4,2.13,2.13,0,0,1-1.62-.63,2.46,2.46,0,0,1-.6-1.77,2.58,2.58,0,0,1,.61-1.83,2.05,2.05,0,0,1,1.57-.65,2,2,0,0,1,1.53.64,2.53,2.53,0,0,1,.59,1.79s0,.12,0,.21h-3.48a1.79,1.79,0,0,0,.44,1.18,1.3,1.3,0,0,0,1,.41,1.21,1.21,0,0,0,.74-.23A1.51,1.51,0,0,0,176.4,94.5Zm-2.6-1.28h2.61a1.58,1.58,0,0,0-.3-.88,1.21,1.21,0,0,0-1-.46,1.26,1.26,0,0,0-.92.36A1.44,1.44,0,0,0,173.81,93.22Z"/><path d="M179.94,95.3l.11.7a2.93,2.93,0,0,1-.6.07,1.36,1.36,0,0,1-.67-.14.77.77,0,0,1-.33-.36,2.84,2.84,0,0,1-.1-.93V92h-.58v-.62h.58V90.18l.79-.47v1.63h.8V92h-.8v2.73a1.36,1.36,0,0,0,0,.43.32.32,0,0,0,.14.15.52.52,0,0,0,.27.06Z"/><path d="M180.94,96v-.9h.9V96Z"/></g></svg>