<?xml version="1.0" encoding="UTF-8" standalone="no"?>
<!-- Generator: Adobe Illustrator 21.0.2, SVG Export Plug-In . SVG Version: 6.00 Build 0)  -->
<svg id="svg2" xmlns:rdf="http://www.w3.org/1999/02/22-rdf-syntax-ns#" xmlns="http://www.w3.org/2000/svg" xml:space="preserve" height="116.74" width="87.056" version="1.1" y="0px" x="0px" xmlns:cc="http://creativecommons.org/ns#" xmlns:dc="http://purl.org/dc/elements/1.1/" viewBox="0 0 87.055535 116.73705"><metadata id="metadata423"><rdf:RDF><cc:Work rdf:about=""><dc:format>image/svg+xml</dc:format><dc:type rdf:resource="http://purl.org/dc/dcmitype/StillImage"/><dc:title/></cc:Work></rdf:RDF></metadata><style id="style4" type="text/css">
	.st0{fill:none;}
	.st1{fill:#F7BC60;}
	.st2{fill:#FFFFFF;}
	.st3{fill:none;stroke:#000000;}
	.st4{fill:none;stroke:#000000;stroke-width:2;}
	.st5{fill-rule:evenodd;clip-rule:evenodd;fill:#FFFFFF;}
	.st6{fill-rule:evenodd;clip-rule:evenodd;}
	.st7{font-family:&apos;ArialMT&apos;;}
	.st8{font-size:8px;}
</style><g id="Layer_1" transform="translate(-248.97 -334.06)"><g id="g240"><g stroke="#000" fill="none"><path id="path242" d="m288.97 388.66c-1.1 2.8-3.2 4.7-5.7 4.7-3.6 0-6.4-4-6.4-8.9s2.9-8.9 6.4-8.9c2.4 0 4.4 1.8 5.5 4.4" class="st3"/><path id="path244" d="m287.57 388.66c-0.9 1.8-2.4 2.9-4 2.9-2.8 0-5-3.2-5-7.1s2.2-7.1 5-7.1c1.6 0 3 1 3.9 2.6" class="st3"/><path id="path246" d="m287.47 379.96" class="st3"/><path id="path248" d="m283.17 388.46c-1.5 0-2.6-1.9-2.6-4.2s1.2-4.2 2.6-4.2" class="st3"/><path id="path250" d="m282.97 379.96h17.4c3.4-0.1 10.2 2.7 7.2 13.5h-6.4c-1.3-2.3-1.5-4.8-5.1-4.8l-13-0.2" class="st3"/></g><g id="g252" stroke="#000" fill="none" transform="translate(55.172 -14.238)"><path id="path254" d="m213.6 408.5h3.1c0.2-3.5 2.1-4.5 2.5-4.9v-2.7c-1.9-1.2-2.3-4-2.3-5.4h-2.7c0.1 2.3-1.2 4.5-2.8 5.2v2.9c1.5 1.4 2 3.1 2.2 4.9z" class="st3"/><path id="path256" d="m212.7 395.6c0 0.6-0.3 2.9-1.5 3.5h-3.4c1.2-0.6 1.5-2.9 1.5-3.5h3.4z" class="st3"/><polygon id="polygon258" points="206.6 403.8 206.7 400.4 210.1 400.4 210 403.8" class="st3"/><path id="path260" d="m211.9 408.7c0-0.6-0.2-2.9-1.4-3.6h-3.4c1.2 0.6 1.5 2.9 1.4 3.5l3.4 0.1z" class="st3"/><path id="path262" d="m215.1 401.8c0.1-0.4 0.3-0.6 0.6-0.6 0.4 0 0.7 0.5 0.7 1.2s-0.3 1.2-0.7 1.2c-0.3 0-0.5-0.3-0.6-0.7" class="st3"/><path id="path264" d="m204.5 407.8c-1.1 0.9-2.4 1.5-3.9 1.5-3.5 0-6.3-3.1-6.3-7 0-3.8 2.8-7 6.3-7 1.2 0 2.4 0.4 3.4 1.1l3.6 0.1c-1.5 1.3-2.5 3.2-2.5 5.5 0 2.5 0.3 4.8 1.7 5.8h-2.3z" class="st3"/></g><g stroke="#000" fill="none"><path id="path266" d="m308.17 380.46h2.7c0.2-3 1.8-4 2.2-4.3v-2.4c-1.7-1.1-2-3.5-2-4.7h-2.4c0.1 2-1.1 4-2.5 4.6v2.6c1.4 1.1 1.9 2.6 2 4.2z" class="st3"/><path id="path268" d="m307.37 369.16c0 0.6-0.3 2.6-1.3 3.1h-3c1.1-0.5 1.4-2.5 1.3-3.1h3z" class="st3"/><polygon id="polygon270" transform="translate(55.172 -14.238)" points="246.9 390.6 246.9 387.6 249.9 387.6 249.9 390.6" class="st3"/><path id="path272" d="m306.67 380.56c0-0.6-0.2-2.6-1.3-3.1h-3c1.1 0.6 1.3 2.6 1.3 3.1h3z" class="st3"/><path id="path274" d="m309.47 374.56c0.1-0.3 0.3-0.6 0.5-0.6 0.3 0 0.6 0.5 0.6 1 0 0.6-0.3 1-0.6 1-0.2 0-0.4-0.2-0.5-0.6" class="st3"/><path id="path276" d="m293.47 379.86c-1.3-1.1-2.2-2.9-2.2-4.9 0-3.4 2.5-6.1 5.5-6.1 1.1 0 2.1 0.4 3 1l3.1 0.1c-1.3 1.1-2.2 2.9-2.2 4.8 0 2.2 0.3 4.2 1.5 5.1h-2" class="st3"/><path id="path278" d="m296.17 415.86c0.1 0 0.2-0.1 0.4-0.2 0.6-0.4 0.9-1.3 1.1-0.2 0.3 1.1-0.6-0.4-0.3 0.5s-0.1 2.2 0.6 1.3c0.8-0.9-0.2-0.7 0.8-0.4 0.3 0.1 0.5 0.1 0.5 0.1-0.1 0.6-0.4 0.8-0.2 1.1 0.6 0.9 0.2 1.6 0.9 0.6 0.5-0.7 0-1.3 0.8-0.9 0.7 0.4 1.1-0.5 1.1 0.6s-0.4 0.2 0.2 0.8 0.6 1.3 0.9 0.3c0.2-1-0.4-1.3 0.3-1.2 0.8 0.2 0.6-0.6 0.8 0.3 0.2 1 0.3 0.7 0.6 1 0.4 0.5 0.6 1 0.6 0s-0.5-1.3 0.1-1.3c0.6 0.1 0.5-0.3 0.9 0.5s0 0.5 0.4 0.8 1 0.9 1 0.4 0.1 0.2-0.1-0.8c-0.1-0.9-0.6-1.7 0.5-1.1 0.8 0.5 0.5 1.6 1.3 1.3s0.2-1.1 0.2-1.1c-0.1-0.3-0.2-0.8-0.3-0.7-0.1 0.2-0.3-0.4 0.6-0.2s0.4 0.7 0.8 0.7 0.6-0.3 0.3-1-1.5-0.3-0.2-0.7 1.5-0.4 1-0.5c-0.8-0.1-0.4-0.1-1.6-0.2" class="st3"/><path id="path280" d="m301.07 394.06-5.2 18.9c0.2 0.3 0.3 0.4 0.4 0.5" class="st3"/></g><g id="g282" transform="translate(55.172 -14.238)"><path id="path284" d="m242.9 436.1h2.9c0.5 0 0.9 0.1 1.1 0.4 0.3 0.2 0.4 0.5 0.4 0.9 0 0.3-0.1 0.6-0.3 0.8-0.1 0.1-0.3 0.3-0.5 0.3 0.4 0.1 0.6 0.2 0.8 0.4s0.3 0.5 0.3 0.8-0.1 0.5-0.2 0.7-0.3 0.4-0.5 0.5c-0.1 0.1-0.3 0.1-0.6 0.2-0.4 0-0.6 0.1-0.7 0.1h-2.7v-5.1zm1.6 2h0.7c0.2 0 0.4 0 0.5-0.1s0.1-0.2 0.1-0.4c0-0.1 0-0.3-0.1-0.3-0.1-0.1-0.3-0.1-0.5-0.1h-0.7v0.9zm0 1.9h0.8c0.3 0 0.5 0 0.6-0.1s0.2-0.2 0.2-0.4-0.1-0.3-0.2-0.4-0.3-0.1-0.6-0.1h-0.8v1z"/><path id="path286" d="m251.5 436.1h1.6v3c0 0.3 0 0.6-0.1 0.8-0.1 0.3-0.2 0.5-0.4 0.7s-0.4 0.3-0.6 0.4c-0.3 0.1-0.7 0.2-1.1 0.2-0.2 0-0.5 0-0.8-0.1-0.3 0-0.5-0.1-0.7-0.2s-0.4-0.2-0.5-0.4c-0.2-0.2-0.3-0.4-0.3-0.6-0.1-0.3-0.1-0.6-0.1-0.9v-3h1.6v3.1c0 0.3 0.1 0.5 0.2 0.6 0.2 0.2 0.4 0.2 0.6 0.2 0.3 0 0.5-0.1 0.6-0.2 0.2-0.2 0.2-0.4 0.2-0.6v-3z"/><path id="path288" d="m254.1 441.1v-5h2.6c0.5 0 0.8 0 1.1 0.1s0.5 0.2 0.6 0.5c0.2 0.2 0.2 0.5 0.2 0.8s-0.1 0.5-0.2 0.7-0.3 0.4-0.5 0.5c-0.1 0.1-0.3 0.1-0.5 0.2 0.2 0.1 0.3 0.1 0.4 0.2 0.1 0 0.1 0.1 0.3 0.3 0.1 0.1 0.2 0.2 0.2 0.3l0.8 1.5h-1.8l-0.8-1.5c-0.1-0.2-0.2-0.3-0.3-0.4s-0.2-0.1-0.4-0.1h-0.1v2h-1.6zm1.6-3h0.7c0.1 0 0.2 0 0.4-0.1 0.1 0 0.2-0.1 0.3-0.2s0.1-0.2 0.1-0.3c0-0.2-0.1-0.3-0.2-0.4s-0.3-0.1-0.6-0.1h-0.7v1.1z"/><path id="path290" d="m259.6 436.1h1.5l1.9 2.8v-2.8h1.5v5h-1.5l-1.9-2.8v2.8h-1.5v-5z"/></g><g stroke="#000" fill="none"><line id="line292" y2="415.06" x2="297.17" y1="394.36" x1="301.77" class="st3"/><line id="line294" y2="416.56" x2="298.57" y1="394.46" x1="302.47" class="st3"/><line id="line296" y2="417.46" x2="300.77" y1="394.56" x1="303.27" class="st3"/><line id="line298" y2="418.06" x2="302.97" y1="394.66" x1="303.97" class="st3"/><line id="line300" y2="418.36" x2="305.27" y1="413.16" x1="305.17" class="st3"/><line id="line302" y2="411.26" x2="305.17" y1="394.76" x1="304.77" class="st3"/><line id="line304" y2="418.76" x2="307.47" y1="414.56" x1="307.07" class="st3"/><line id="line306" y2="409.86" x2="306.77" y1="394.36" x1="305.47" class="st3"/><line id="line308" y2="417.86" x2="309.17" y1="415.36" x1="308.87" class="st3"/><line id="line310" y2="410.06" x2="308.17" y1="394.16" x1="306.27" class="st3"/><line id="line312" stroke-width="2" y2="415.86" x2="310.67" y1="415.46" x1="310.57" class="st4"/><line id="line314" y2="410.06" x2="309.67" y1="393.76" x1="306.97" class="st3"/></g><rect id="rect316" class="st2" height="8.9" width="17.3" y="396.96" x="295.37" fill="#fff"/><g id="g318" transform="translate(55.172 -14.238)"><path id="path320" d="m236.8 411.9h2.3v2.6h2.6v-2.6h2.3v7.6h-2.3v-3.1h-2.6v3.1h-2.3v-7.6z"/><path id="path322" d="m245.3 415.7c0-1.2 0.3-2.2 1-2.9s1.6-1 2.9-1 2.2 0.3 2.9 1 1 1.6 1 2.8c0 0.9-0.1 1.6-0.4 2.2s-0.7 1-1.3 1.3-1.3 0.5-2.1 0.5c-0.9 0-1.6-0.1-2.1-0.4-0.6-0.3-1-0.7-1.4-1.3-0.3-0.6-0.5-1.3-0.5-2.2zm2.3 0c0 0.8 0.1 1.3 0.4 1.6s0.7 0.5 1.2 0.5 0.9-0.2 1.2-0.5 0.4-0.9 0.4-1.8c0-0.7-0.1-1.2-0.4-1.6-0.3-0.3-0.7-0.5-1.2-0.5s-0.9 0.2-1.1 0.5c-0.3 0.5-0.5 1-0.5 1.8z"/><path id="path324" d="m253.6 411.9h7.1v1.9h-2.4v5.7h-2.3v-5.7h-2.4v-1.9z"/></g><g stroke="#000" fill="none"><path id="path326" d="m295.77 412.76c-1.6-2.2-1.5-2.6-1.9-3.2-1-1.7-2.2-1.8-2.2-0.4 0 0.7 0.1 1.1 0.3 1.7 0.3 0.7 0.5 1.3 1.4 3.3l1.2 2.3c0 0.4-1.9-0.4-5.1-2.7-0.6-0.4-3-1.4-3.5-0.4s1.4 2.1 1.9 2.5c3.6 2.2 5.8 3.6 5.8 3.9 0 0.7-0.4 0.5-3.7-0.6-3.7-1.2-3.5-1.2-3.9-1.3-1.4-0.5-2.6-0.3-3 0-0.8 0.8-0.3 1.1 0.6 1.8 2 1.4 2.4 1.4 3.7 1.8 1.5 0.5 1.6 0.9 4.3 1.6 1.6 0.4 3.7 1.4 3 1.5-1.9 0.1-3.2 0.2-5.5-0.1-1.7-0.3-4.3-0.6-4.6 0.4-0.1 0.4 0.2 1.3 1.1 1.6 1.5 0.5 0.6 0.6 4.9 1s1.1 0.1 6.6 0.7c5.6 0.5 9.9 0.7 14.5 1.5 2.4 0.4 2.9-0.4 7 2.4 3.4 2.2 11.6 8.7 12.6 9.6" class="st3"/><path id="path328" d="m311.27 417.56c3.3-1.7-1.6-2.7-2.5-3.2s-0.7-0.2-1.9-0.9-1.2-1.6-0.5-2.2c0.5-0.4 1.1-0.5 2.5 0 0.6 0.2 1.7 0.3 3.4 0.9 1.6 0.6 1.1 0.4 2 1.1 0.7 0.5 1.7 2 2.9 3.5 2.7 3.3 4.4 4.3 5.8 5.7 1.5 1.4 10.6 8.6 10.6 8.6" class="st3"/><line id="line330" y2="412.56" x2="249.97" y1="400.66" x1="290.27" class="st3"/><path id="path332" d="m314.67 402.36" class="st4" stroke-width="2"/><path id="path334" d="m333.07 396.96" class="st4" stroke-width="2"/><line id="line336" y2="395.26" x2="308.67" y1="390.86" x1="323.57" class="st3"/><polyline id="polyline338" transform="translate(55.172 -14.238)" points="280.6 420 265.8 411.2 262 412.3" class="st3"/><line id="line340" y2="397.86" x2="335.37" y1="390.86" x1="323.57" class="st3"/><line id="line342" y2="334.06" x2="323.97" y1="385.36" x1="323.97" class="st3"/><path id="path344" d="m289.87 405.86-24.4 7.1c-1.9 0.8-3.2 2.7-3.2 4.9 0 1.5 0.7 3.1 2.2 4.1l51.1 28.4" class="st3"/><path id="path346" d="m296.27 415.26c-0.7-0.2-1 0.1-0.8-0.3 0.1-0.5 0.4 0 0.4-0.9s0-0.9-0.2-1.2" class="st3"/></g></g></g></svg>
