<svg id="Layer_1" data-name="Layer 1" xmlns="http://www.w3.org/2000/svg" viewBox="0 0 255.49 167.37"><title>warning_explsn_hzrd_precautionary</title><polygon points="4.93 82.43 4.95 93.68 5.74 94.27 10.04 109.04 8.47 96.22 28.43 110.31 13.37 94.27 25.4 98.18 14.93 90.94 30.1 83.7 10.63 85.46 24.32 74.8 14.15 80.08 21 70.49 9.06 79.49 8.91 67.09 5.74 82.33 4.93 82.43" style="fill:#231f20"/><polygon points="5.93 82.43 5.95 93.68 6.74 94.27 11.04 109.04 9.47 96.22 29.43 110.31 14.37 94.27 26.4 98.18 15.93 90.94 31.1 83.7 11.63 85.46 25.32 74.8 15.15 80.08 22 70.49 10.06 79.49 9.91 67.09 6.74 82.33 5.93 82.43" style="fill:none;stroke:#231f20;stroke-width:0.249px"/><rect x="1.18" y="58.06" width="3.88" height="54.47" style="fill:#231f20"/><rect x="1.18" y="58.06" width="3.88" height="54.47" style="fill:none;stroke:#231f20;stroke-width:0.995px"/><path d="M5.76,64.34,8,87.75l-.34,7.41L6.59,112.53,9.81,94.38,15.23,120l-4-24.36S27,114.14,26.72,113.29,11.84,93.73,11.84,93.73L51.2,120.21l-36.74-27L69.93,126,21.19,95.54s47.25,22.86,47,22.54S15,91.58,15,91.58l.11-1,30,12.54L16.42,89.63l-.13-.81,3.19,1.81,35.87,13.09L17,87.32l5.32,2.24,38.73,9.08L19.81,87.43,57.46,93.1l-45.18-9-1.19,2.48-.54-3,2.13.42,51-6.7-49.5,4.46,22.79-4.46-18.73,3L59,65.82,16.62,79.55,49.29,57.31,14.38,78.7,29.7,62.63l-17.45,15L33.43,49.33,10.67,76.42l-.45-16.35L8.74,78.17Zm6.6,19.58L58.12,85.3l-44.7-2.24Z" style="fill:none;stroke:#231f20;stroke-width:0.249px"/><path d="M58,112.82,24,94.36M11.61,29.9A9.59,9.59,0,0,1,20,24.81a9.76,9.76,0,0,1,9.63,9.89A10.09,10.09,0,0,1,29.13,38m.92-.1A6.69,6.69,0,1,1,36.5,48.71m.28.26a6.54,6.54,0,1,1-3.58,8m-19,9.72a6,6,0,0,1,8.93-8m.22-.47a4,4,0,0,1-.4-1.76,4,4,0,1,1,8.07,0,4.09,4.09,0,0,1,0,.43m-.14.37s0-.09,0-.13a4,4,0,1,1,4,4H34.6M23.84,110.56a4,4,0,0,1-5.15-6.15m10,12a4.06,4.06,0,1,1-4.88-5.73m16.62,8.79A5.84,5.84,0,0,1,28.93,118a5.73,5.73,0,0,1,.17-1.41m-2,19.15a6.65,6.65,0,1,1-7.67-3.56m18.29-1.74A6.66,6.66,0,1,1,27.77,139M49,113.76a9.71,9.71,0,0,1-10.57,15.88M32.09,74.48a5.11,5.11,0,0,1,7.68-6.29m.32-.09a3.35,3.35,0,1,1,6.35-1.48s0,.06,0,.09m0,.84c0-.05,0-.11,0-.17a3.43,3.43,0,1,1,3.43,3.43h-.28" style="fill:none;stroke:#231f20;stroke-width:0.5px"/><path d="M92.09,109.49l.57-.07c-2.31.16-20.89.77-24,.31-2.74-.4-5.16-1.69-5.4-4.43s0-8.86,0-8.86-3.54.65-4.35-.88c-.73-1.37,2.17-7.57,4-15.31a18.71,18.71,0,0,1,4.51-8.14,18.09,18.09,0,0,1,7.65-3.95c2.81-.51,8.62-.4,11.36,1s3.62,1.53,6.53,5.24c2.34,3,2.66,4.35,3,8.62A79,79,0,0,1,96,93.62c-.16,2.34-.56,9.59-1.37,12.33a5.53,5.53,0,0,1-2.58,3.55"/><path d="M92.09,109.49l.57-.07c-2.31.16-20.89.77-24,.31-2.74-.4-5.16-1.69-5.4-4.43s0-8.86,0-8.86-3.54.65-4.35-.88c-.73-1.37,2.17-7.57,4-15.31a18.71,18.71,0,0,1,4.51-8.14,18.09,18.09,0,0,1,7.65-3.95c2.81-.51,8.62-.4,11.36,1s3.62,1.53,6.53,5.24c2.34,3,2.66,4.35,3,8.62A79,79,0,0,1,96,93.62c-.16,2.34-.56,9.59-1.37,12.33A5.53,5.53,0,0,1,92.09,109.49Z" style="fill:none;stroke:#231f20;stroke-width:0.995px"/><path d="M70.55,85.3c-.23,1.29-1.14,2.21-2,2S67.08,86,67.32,84.72s1.14-2.21,2-2S70.78,84,70.55,85.3" style="fill:#fff"/><ellipse cx="68.93" cy="85.01" rx="2.38" ry="1.64" transform="translate(-26.94 137.79) rotate(-79.79)" style="fill:none;stroke:#231f20;stroke-width:0.995px"/><path d="M85.19,165.93l-7.38-17.86S68.1,166,67.3,166.21s-22,.42-21-.56,40.18-55,40.18-55a14.94,14.94,0,0,1,2-1.63c3.14-1.87,4.21-1.82,7.68,0s12.44,16.35,12.44,16.35l-.28,40.57Z" style="stroke:#000;stroke-width:0.995px"/><polyline points="108.1 31.32 254.99 31.32 254.99 0.5 108.1 0.5"/><path d="M130,7.06a1.32,1.32,0,0,0-1.29-.93,1.2,1.2,0,0,0-1.21.93l-8.63,15.22c-1.14,1.94-.15,2.72,1,2.8h17.71c1.21-.08,2.12-.85,1-2.8ZM128.69,24.3a1.71,1.71,0,0,1,0-3.42h.08a1.71,1.71,0,0,1-.08,3.42m.61-6.13a.58.58,0,0,1-.53.54h-.08a.52.52,0,0,1-.53-.54c-1.74-5.67-2.57-9.63.53-9.63s2.27,4,.61,9.63m15.45,6.77L141,8.84h3.24l2.37,11,2.86-11h3.76L156,20.08,158.4,8.84h3.18l-3.81,16.09h-3.36l-3.12-12-3.11,12Zm31.37,0h-3.44l-1.37-3.66H165l-1.29,3.66h-3.36L166.5,8.84h3.35Zm-5.83-6.37-2.16-6-2.12,6Zm7.52,6.37V8.84h6.66a11.09,11.09,0,0,1,3.65.44A3.61,3.61,0,0,1,190,10.82a4.73,4.73,0,0,1,.68,2.53,4.38,4.38,0,0,1-1,3,4.93,4.93,0,0,1-3.1,1.48,7.5,7.5,0,0,1,1.7,1.35,18.41,18.41,0,0,1,1.8,2.61l1.92,3.14h-3.78l-2.29-3.5a22.23,22.23,0,0,0-1.67-2.36,2.48,2.48,0,0,0-1-.67,5.14,5.14,0,0,0-1.6-.18H181v6.72ZM181,15.64h2.34a12,12,0,0,0,2.85-.19,1.72,1.72,0,0,0,.89-.68,2.15,2.15,0,0,0,.32-1.21,2,2,0,0,0-.42-1.31,1.92,1.92,0,0,0-1.19-.63q-.39,0-2.31-.05H181Zm12.67,9.29V8.84h3.08l6.42,10.74V8.84h2.94V24.93h-3.18l-6.32-10.49V24.93ZM209.34,8.84h3.16V24.93h-3.16Zm6.21,16.09V8.84h3.08L225,19.58V8.84H228V24.93h-3.18l-6.32-10.49V24.93ZM238.63,19V16.3h6.82v6.41a8.57,8.57,0,0,1-2.88,1.74,10.28,10.28,0,0,1-3.82.75,8.43,8.43,0,0,1-4.29-1.05,6.66,6.66,0,0,1-2.75-3,10,10,0,0,1-.92-4.29,9.51,9.51,0,0,1,1-4.47,7,7,0,0,1,3-3,7.91,7.91,0,0,1,3.75-.8,7.35,7.35,0,0,1,4.56,1.26,5.69,5.69,0,0,1,2.11,3.48l-3.14.6A3.43,3.43,0,0,0,240.85,12a3.67,3.67,0,0,0-2.28-.69,4.23,4.23,0,0,0-3.3,1.35,5.79,5.79,0,0,0-1.22,4,6.4,6.4,0,0,0,1.24,4.3,4.08,4.08,0,0,0,3.25,1.43,5.37,5.37,0,0,0,2-.4,6.83,6.83,0,0,0,1.71-1V19" style="fill:#fff"/><line x1="108.82" y1="48.85" x2="254.4" y2="48.85" style="fill:none;stroke:#231f20"/><line x1="108.34" y1="166.37" x2="108.34" y2="0.5" style="fill:none;stroke:#231f20"/><path d="M138.88,43.07V35h6v1.36H140.5v1.78h4v1.36h-4v2.19H145v1.36Z" style="fill:#231f20"/><path d="M145.62,43.07l2.1-3-2-2.83h1.88l1,1.6,1.09-1.6h1.81l-2,2.76,2.16,3.07h-1.89l-1.19-1.8-1.2,1.8Z" style="fill:#231f20"/><path d="M152.57,37.25H154v.86a2.14,2.14,0,0,1,.76-.71,2.08,2.08,0,0,1,1.06-.27,2.22,2.22,0,0,1,1.72.79,3.22,3.22,0,0,1,.71,2.22,3.32,3.32,0,0,1-.71,2.27,2.22,2.22,0,0,1-1.73.81,2,2,0,0,1-.87-.19,3,3,0,0,1-.83-.66v2.94h-1.54Zm1.52,2.81a2.25,2.25,0,0,0,.39,1.45,1.19,1.19,0,0,0,.95.47,1.12,1.12,0,0,0,.89-.43,2.22,2.22,0,0,0,.36-1.41,2.1,2.1,0,0,0-.37-1.36,1.14,1.14,0,0,0-.91-.44,1.18,1.18,0,0,0-.94.44A1.93,1.93,0,0,0,154.09,40.06Z" style="fill:#231f20"/><path d="M159.47,43.07V35H161v8Z" style="fill:#231f20"/><path d="M162.24,40.08a3.16,3.16,0,0,1,.38-1.49,2.6,2.6,0,0,1,1.07-1.1,3.19,3.19,0,0,1,1.55-.38,2.91,2.91,0,0,1,2.17.86,3,3,0,0,1,.85,2.17,3,3,0,0,1-.85,2.19,2.88,2.88,0,0,1-2.15.87,3.39,3.39,0,0,1-1.53-.36,2.48,2.48,0,0,1-1.11-1.06A3.54,3.54,0,0,1,162.24,40.08Zm1.58.08a1.92,1.92,0,0,0,.41,1.33,1.35,1.35,0,0,0,2,0,2,2,0,0,0,.41-1.34,1.93,1.93,0,0,0-.41-1.32,1.35,1.35,0,0,0-2,0A1.93,1.93,0,0,0,163.82,40.16Z" style="fill:#231f20"/><path d="M168.92,41.41l1.55-.24a1.14,1.14,0,0,0,.4.68,1.35,1.35,0,0,0,.84.23,1.53,1.53,0,0,0,.9-.22.49.49,0,0,0,.2-.41.41.41,0,0,0-.11-.29,1.22,1.22,0,0,0-.52-.2,8.33,8.33,0,0,1-2.37-.75,1.5,1.5,0,0,1-.69-1.31,1.62,1.62,0,0,1,.6-1.27,2.8,2.8,0,0,1,1.86-.52,3.24,3.24,0,0,1,1.78.39,2,2,0,0,1,.8,1.15l-1.45.27a.9.9,0,0,0-.35-.52,1.29,1.29,0,0,0-.74-.18,1.68,1.68,0,0,0-.87.17.36.36,0,0,0-.18.31.34.34,0,0,0,.15.28,5.84,5.84,0,0,0,1.44.43,4.27,4.27,0,0,1,1.72.69,1.42,1.42,0,0,1,.48,1.15,1.76,1.76,0,0,1-.67,1.38,3,3,0,0,1-2,.58,3.25,3.25,0,0,1-1.88-.48A2.22,2.22,0,0,1,168.92,41.41Z" style="fill:#231f20"/><path d="M175.71,36.46V35h1.54v1.43Zm0,6.62V37.25h1.54v5.83Z" style="fill:#231f20"/><path d="M178.47,40.08a3.15,3.15,0,0,1,.38-1.49,2.6,2.6,0,0,1,1.07-1.1,3.19,3.19,0,0,1,1.55-.38,2.91,2.91,0,0,1,2.17.86,3,3,0,0,1,.84,2.17,3,3,0,0,1-.85,2.19,2.88,2.88,0,0,1-2.15.87,3.38,3.38,0,0,1-1.53-.36,2.48,2.48,0,0,1-1.11-1.06A3.53,3.53,0,0,1,178.47,40.08Zm1.58.08a1.93,1.93,0,0,0,.41,1.33,1.35,1.35,0,0,0,2,0,2,2,0,0,0,.41-1.34,1.92,1.92,0,0,0-.41-1.32,1.35,1.35,0,0,0-2,0A1.93,1.93,0,0,0,180.05,40.16Z" style="fill:#231f20"/><path d="M191,43.07h-1.54v-3a4.56,4.56,0,0,0-.1-1.22.85.85,0,0,0-.32-.43.92.92,0,0,0-.54-.15,1.24,1.24,0,0,0-.72.22,1.11,1.11,0,0,0-.44.58,5,5,0,0,0-.12,1.34v2.64h-1.54V37.25h1.43v.86a2.39,2.39,0,0,1,2.85-.8,1.57,1.57,0,0,1,.64.47,1.7,1.7,0,0,1,.3.65,4.83,4.83,0,0,1,.08,1Z" style="fill:#231f20"/><path d="M195.69,43.07V35h1.62V38.2h3.18V35h1.63v8H200.5V39.56h-3.18v3.52Z" style="fill:#231f20"/><path d="M204.94,39l-1.4-.25a2.19,2.19,0,0,1,.81-1.25,3,3,0,0,1,1.71-.41,3.68,3.68,0,0,1,1.54.24,1.53,1.53,0,0,1,.71.62,3.19,3.19,0,0,1,.21,1.38l0,1.8a6.22,6.22,0,0,0,.07,1.13,3.3,3.3,0,0,0,.28.78h-1.53c0-.1-.09-.25-.15-.46l-.06-.18a2.76,2.76,0,0,1-.84.58,2.42,2.42,0,0,1-1,.19,2,2,0,0,1-1.42-.49,1.62,1.62,0,0,1-.52-1.23,1.66,1.66,0,0,1,.24-.88,1.55,1.55,0,0,1,.66-.59,5.19,5.19,0,0,1,1.23-.36,8.36,8.36,0,0,0,1.5-.38v-.15a.8.8,0,0,0-.22-.63,1.32,1.32,0,0,0-.83-.19,1.11,1.11,0,0,0-.64.16A1.13,1.13,0,0,0,204.94,39ZM207,40.28a9.62,9.62,0,0,1-.94.24,2.8,2.8,0,0,0-.84.27.64.64,0,0,0-.3.54.75.75,0,0,0,.24.56.84.84,0,0,0,.61.24,1.34,1.34,0,0,0,.8-.27,1,1,0,0,0,.37-.51,3.05,3.05,0,0,0,.06-.75Z" style="fill:#231f20"/><path d="M209.42,43.07v-1.2l2.18-2.51q.54-.61.79-.87l-.71,0h-2.06V37.25h4.82v1.09l-2.23,2.57-.78.85.8,0h2.39v1.36Z" style="fill:#231f20"/><path d="M216.81,39l-1.4-.25a2.19,2.19,0,0,1,.81-1.25,3,3,0,0,1,1.71-.41,3.68,3.68,0,0,1,1.54.24,1.53,1.53,0,0,1,.71.62,3.19,3.19,0,0,1,.21,1.38l0,1.8a6.22,6.22,0,0,0,.07,1.13,3.3,3.3,0,0,0,.28.78H219.2c0-.1-.09-.25-.15-.46l-.06-.18a2.76,2.76,0,0,1-.84.58,2.42,2.42,0,0,1-1,.19,2,2,0,0,1-1.42-.49,1.62,1.62,0,0,1-.52-1.23,1.66,1.66,0,0,1,.24-.88,1.55,1.55,0,0,1,.66-.59,5.19,5.19,0,0,1,1.23-.36,8.36,8.36,0,0,0,1.5-.38v-.15a.8.8,0,0,0-.22-.63,1.32,1.32,0,0,0-.83-.19,1.11,1.11,0,0,0-.64.16A1.13,1.13,0,0,0,216.81,39Zm2.06,1.25a9.62,9.62,0,0,1-.94.24,2.8,2.8,0,0,0-.84.27.64.64,0,0,0-.3.54.75.75,0,0,0,.24.56.84.84,0,0,0,.61.24,1.34,1.34,0,0,0,.8-.27,1,1,0,0,0,.37-.51,3.05,3.05,0,0,0,.06-.75Z" style="fill:#231f20"/><path d="M223.38,43.07h-1.54V37.25h1.43v.83a2.47,2.47,0,0,1,.66-.77,1.21,1.21,0,0,1,.67-.19,2,2,0,0,1,1,.29l-.48,1.34a1.36,1.36,0,0,0-.72-.25.86.86,0,0,0-.55.18,1.22,1.22,0,0,0-.35.64,9.16,9.16,0,0,0-.13,2Z" style="fill:#231f20"/><path d="M231.58,43.07h-1.43v-.86a2.33,2.33,0,0,1-.84.74,2.17,2.17,0,0,1-1,.24,2.22,2.22,0,0,1-1.72-.81,3.29,3.29,0,0,1-.72-2.26,3.25,3.25,0,0,1,.7-2.25,2.27,2.27,0,0,1,1.76-.77,2.18,2.18,0,0,1,1.69.81V35h1.54Zm-4.11-3a2.67,2.67,0,0,0,.26,1.35,1.17,1.17,0,0,0,1,.6,1.14,1.14,0,0,0,.91-.45,2.09,2.09,0,0,0,.37-1.35,2.28,2.28,0,0,0-.36-1.45,1.14,1.14,0,0,0-.93-.44,1.16,1.16,0,0,0-.92.44A2,2,0,0,0,227.47,40Z" style="fill:#231f20"/><path d="M123.72,64.53V59.05h-2v-.73h4.93v.73h-2.06v5.48Z" style="fill:#231f20"/><path d="M129.31,63.08l.79.1a1.92,1.92,0,0,1-.69,1.07,2.34,2.34,0,0,1-2.86-.23,2.38,2.38,0,0,1-.58-1.71,2.49,2.49,0,0,1,.58-1.76,2,2,0,0,1,1.52-.63,1.92,1.92,0,0,1,1.48.62,2.44,2.44,0,0,1,.57,1.73s0,.11,0,.2h-3.36a1.73,1.73,0,0,0,.42,1.14,1.25,1.25,0,0,0,.94.39,1.17,1.17,0,0,0,.72-.22A1.47,1.47,0,0,0,129.31,63.08Zm-2.51-1.23h2.51A1.53,1.53,0,0,0,129,61a1.17,1.17,0,0,0-.95-.44,1.21,1.21,0,0,0-.88.35A1.39,1.39,0,0,0,126.8,61.85Z" style="fill:#231f20"/><path d="M130.86,64.53V60h.68v.63a1.59,1.59,0,0,1,.56-.53,1.58,1.58,0,0,1,.8-.2,1.48,1.48,0,0,1,.82.21,1.11,1.11,0,0,1,.45.58,1.62,1.62,0,0,1,1.39-.79,1.37,1.37,0,0,1,1,.37,1.59,1.59,0,0,1,.36,1.14v3.09h-.76V61.7a2.07,2.07,0,0,0-.07-.66.64.64,0,0,0-.27-.32.84.84,0,0,0-.46-.12,1.06,1.06,0,0,0-.79.32,1.39,1.39,0,0,0-.31,1v2.62h-.76V61.61a1.3,1.3,0,0,0-.19-.76.71.71,0,0,0-.61-.25,1.12,1.12,0,0,0-.6.17,1,1,0,0,0-.4.5,2.79,2.79,0,0,0-.12.94v2.34Z" style="fill:#231f20"/><path d="M137.93,66.26V60h.7v.59a1.72,1.72,0,0,1,.55-.52,1.53,1.53,0,0,1,.75-.17,1.78,1.78,0,0,1,1,.3,1.82,1.82,0,0,1,.67.84,3,3,0,0,1,.22,1.18,3,3,0,0,1-.25,1.24,1.89,1.89,0,0,1-1.71,1.14,1.43,1.43,0,0,1-.68-.16,1.53,1.53,0,0,1-.5-.41v2.19Zm.69-4a2,2,0,0,0,.35,1.28,1.08,1.08,0,0,0,.85.42,1.1,1.1,0,0,0,.87-.43,2,2,0,0,0,.36-1.33,2,2,0,0,0-.35-1.29,1.07,1.07,0,0,0-.85-.43A1.1,1.1,0,0,0,139,61,2,2,0,0,0,138.62,62.31Z" style="fill:#231f20"/><path d="M145.68,63.08l.79.1a1.93,1.93,0,0,1-.69,1.07,2.34,2.34,0,0,1-2.86-.23,2.38,2.38,0,0,1-.58-1.71,2.49,2.49,0,0,1,.58-1.76,2,2,0,0,1,1.52-.63,1.92,1.92,0,0,1,1.48.62,2.45,2.45,0,0,1,.57,1.73s0,.11,0,.2h-3.36a1.73,1.73,0,0,0,.42,1.14,1.25,1.25,0,0,0,.94.39,1.17,1.17,0,0,0,.72-.22A1.46,1.46,0,0,0,145.68,63.08Zm-2.51-1.23h2.51a1.53,1.53,0,0,0-.29-.85,1.17,1.17,0,0,0-.95-.44,1.21,1.21,0,0,0-.88.35A1.4,1.4,0,0,0,143.17,61.85Z" style="fill:#231f20"/><path d="M147.25,64.53V60h.69v.68a1.88,1.88,0,0,1,.49-.63.84.84,0,0,1,.49-.15,1.49,1.49,0,0,1,.79.25l-.26.71a1.09,1.09,0,0,0-.56-.16.72.72,0,0,0-.45.15.82.82,0,0,0-.29.42,3,3,0,0,0-.13.89v2.36Z" style="fill:#231f20"/><path d="M152.92,64a2.84,2.84,0,0,1-.82.51,2.34,2.34,0,0,1-.84.15,1.64,1.64,0,0,1-1.14-.36,1.2,1.2,0,0,1-.4-.93,1.23,1.23,0,0,1,.15-.6,1.24,1.24,0,0,1,.39-.44,1.86,1.86,0,0,1,.55-.25,5.63,5.63,0,0,1,.68-.11,7,7,0,0,0,1.36-.26c0-.1,0-.17,0-.2a.84.84,0,0,0-.22-.66,1.28,1.28,0,0,0-.87-.26,1.35,1.35,0,0,0-.79.19,1.15,1.15,0,0,0-.38.67l-.75-.1a1.84,1.84,0,0,1,.33-.77,1.48,1.48,0,0,1,.67-.45,3,3,0,0,1,1-.16,2.72,2.72,0,0,1,.94.14,1.24,1.24,0,0,1,.53.34,1.2,1.2,0,0,1,.24.52,4.29,4.29,0,0,1,0,.7v1a10.84,10.84,0,0,0,0,1.35,1.69,1.69,0,0,0,.19.54h-.8A1.64,1.64,0,0,1,152.92,64Zm-.06-1.7a5.57,5.57,0,0,1-1.25.29,2.92,2.92,0,0,0-.67.15.66.66,0,0,0-.3.25.67.67,0,0,0,.13.87,1,1,0,0,0,.68.2,1.58,1.58,0,0,0,.78-.19,1.19,1.19,0,0,0,.5-.53,1.84,1.84,0,0,0,.12-.76Z" style="fill:#231f20"/><path d="M156.31,63.85l.11.67a2.78,2.78,0,0,1-.58.07,1.3,1.3,0,0,1-.64-.13.73.73,0,0,1-.32-.35,2.72,2.72,0,0,1-.09-.9V60.62h-.56V60h.56V58.92l.76-.46V60h.77v.59h-.77v2.63a1.35,1.35,0,0,0,0,.42.32.32,0,0,0,.13.15.5.5,0,0,0,.26.05Z" style="fill:#231f20"/><path d="M159.85,64.53v-.66a1.65,1.65,0,0,1-1.43.76,1.82,1.82,0,0,1-.74-.15,1.22,1.22,0,0,1-.51-.38,1.43,1.43,0,0,1-.24-.57,3.84,3.84,0,0,1,0-.71V60h.76v2.5a4.41,4.41,0,0,0,0,.8.79.79,0,0,0,.3.47.94.94,0,0,0,.58.17,1.26,1.26,0,0,0,.64-.18,1,1,0,0,0,.43-.48,2.39,2.39,0,0,0,.13-.88V60h.76v4.5Z" style="fill:#231f20"/><path d="M161.56,64.53V60h.69v.68a1.87,1.87,0,0,1,.48-.63.85.85,0,0,1,.49-.15,1.49,1.49,0,0,1,.79.25l-.26.71a1.09,1.09,0,0,0-.56-.16.72.72,0,0,0-.45.15.82.82,0,0,0-.28.42,3,3,0,0,0-.13.89v2.36Z" style="fill:#231f20"/><path d="M167.38,63.08l.79.1a1.92,1.92,0,0,1-.69,1.07,2.34,2.34,0,0,1-2.86-.23,2.38,2.38,0,0,1-.58-1.71,2.48,2.48,0,0,1,.59-1.76,2,2,0,0,1,1.52-.63,1.92,1.92,0,0,1,1.47.62,2.44,2.44,0,0,1,.57,1.73s0,.11,0,.2h-3.36a1.73,1.73,0,0,0,.42,1.14,1.25,1.25,0,0,0,.94.39,1.18,1.18,0,0,0,.72-.22A1.47,1.47,0,0,0,167.38,63.08Zm-2.5-1.23h2.51a1.53,1.53,0,0,0-.29-.85,1.17,1.17,0,0,0-.95-.44,1.21,1.21,0,0,0-.88.35A1.39,1.39,0,0,0,164.87,61.85Z" style="fill:#231f20"/><path d="M168.66,62.67V61.9H171v.77Z" style="fill:#231f20"/><path d="M171.78,64.53V58.32h2.34a5.61,5.61,0,0,1,.95.06,1.87,1.87,0,0,1,.77.29,1.53,1.53,0,0,1,.5.6,2,2,0,0,1-.32,2.19,2.42,2.42,0,0,1-1.82.55H172.6v2.53Zm.82-3.26h1.61a1.71,1.71,0,0,0,1.13-.3,1.06,1.06,0,0,0,.33-.84,1.12,1.12,0,0,0-.2-.67.92.92,0,0,0-.52-.37,3.57,3.57,0,0,0-.77-.05H172.6Z" style="fill:#231f20"/><path d="M177.31,64.53V60H178v.68a1.86,1.86,0,0,1,.49-.63.85.85,0,0,1,.49-.15,1.49,1.49,0,0,1,.78.25l-.26.71a1.09,1.09,0,0,0-.56-.16.73.73,0,0,0-.45.15.81.81,0,0,0-.28.42,2.93,2.93,0,0,0-.13.89v2.36Z" style="fill:#231f20"/><path d="M183.13,63.08l.79.1a1.92,1.92,0,0,1-.69,1.07,2.34,2.34,0,0,1-2.86-.23,2.38,2.38,0,0,1-.58-1.71,2.49,2.49,0,0,1,.59-1.76,2,2,0,0,1,1.52-.63,1.92,1.92,0,0,1,1.47.62,2.44,2.44,0,0,1,.57,1.73s0,.11,0,.2h-3.36a1.72,1.72,0,0,0,.42,1.14,1.25,1.25,0,0,0,.94.39,1.17,1.17,0,0,0,.72-.22A1.46,1.46,0,0,0,183.13,63.08Zm-2.5-1.23h2.51a1.54,1.54,0,0,0-.29-.85,1.17,1.17,0,0,0-.95-.44,1.21,1.21,0,0,0-.88.35A1.39,1.39,0,0,0,180.62,61.85Z" style="fill:#231f20"/><path d="M184.4,63.19l.75-.12a1.06,1.06,0,0,0,.35.7,1.24,1.24,0,0,0,.81.24,1.19,1.19,0,0,0,.78-.21.64.64,0,0,0,.25-.5.47.47,0,0,0-.22-.41,3.4,3.4,0,0,0-.78-.26,7,7,0,0,1-1.16-.37,1.11,1.11,0,0,1-.66-1,1.15,1.15,0,0,1,.14-.56,1.23,1.23,0,0,1,.38-.43,1.55,1.55,0,0,1,.49-.22,2.32,2.32,0,0,1,.66-.09,2.59,2.59,0,0,1,.93.15,1.26,1.26,0,0,1,.59.41,1.61,1.61,0,0,1,.26.7l-.75.1a.81.81,0,0,0-.29-.54,1.08,1.08,0,0,0-.69-.2,1.24,1.24,0,0,0-.75.17.51.51,0,0,0-.22.41.42.42,0,0,0,.09.27.68.68,0,0,0,.29.2l.67.19a9.49,9.49,0,0,1,1.13.35,1.15,1.15,0,0,1,.5.4,1.12,1.12,0,0,1,.18.65,1.28,1.28,0,0,1-.22.72,1.44,1.44,0,0,1-.64.52,2.34,2.34,0,0,1-1,.18,2.11,2.11,0,0,1-1.34-.36A1.69,1.69,0,0,1,184.4,63.19Z" style="fill:#231f20"/><path d="M188.58,63.19l.75-.12a1.06,1.06,0,0,0,.35.7,1.23,1.23,0,0,0,.81.24,1.19,1.19,0,0,0,.78-.21.64.64,0,0,0,.25-.5.47.47,0,0,0-.22-.41,3.4,3.4,0,0,0-.78-.26,7,7,0,0,1-1.16-.37,1.11,1.11,0,0,1-.66-1,1.15,1.15,0,0,1,.14-.56,1.23,1.23,0,0,1,.38-.43,1.55,1.55,0,0,1,.48-.22,2.32,2.32,0,0,1,.66-.09,2.58,2.58,0,0,1,.93.15,1.26,1.26,0,0,1,.59.41,1.63,1.63,0,0,1,.26.7l-.75.1a.82.82,0,0,0-.29-.54,1.08,1.08,0,0,0-.69-.2,1.24,1.24,0,0,0-.75.17.51.51,0,0,0-.22.41.42.42,0,0,0,.09.27.67.67,0,0,0,.29.2l.67.19a9.4,9.4,0,0,1,1.13.35,1.15,1.15,0,0,1,.5.4,1.12,1.12,0,0,1,.18.65,1.28,1.28,0,0,1-.22.72,1.44,1.44,0,0,1-.64.52,2.34,2.34,0,0,1-1,.18,2.11,2.11,0,0,1-1.34-.36A1.69,1.69,0,0,1,188.58,63.19Z" style="fill:#231f20"/><path d="M196,64.53v-.66a1.65,1.65,0,0,1-1.43.76,1.82,1.82,0,0,1-.74-.15,1.22,1.22,0,0,1-.51-.38,1.43,1.43,0,0,1-.24-.57,3.85,3.85,0,0,1,0-.71V60h.76v2.5a4.41,4.41,0,0,0,0,.8.8.8,0,0,0,.3.47.94.94,0,0,0,.58.17,1.25,1.25,0,0,0,.64-.18,1,1,0,0,0,.43-.48,2.42,2.42,0,0,0,.13-.88V60h.76v4.5Z" style="fill:#231f20"/><path d="M197.73,64.53V60h.69v.68a1.87,1.87,0,0,1,.49-.63.84.84,0,0,1,.49-.15,1.49,1.49,0,0,1,.78.25l-.26.71a1.09,1.09,0,0,0-.56-.16.73.73,0,0,0-.45.15.82.82,0,0,0-.28.42,3,3,0,0,0-.13.89v2.36Z" style="fill:#231f20"/><path d="M203.54,63.08l.79.1a1.92,1.92,0,0,1-.69,1.07,2.08,2.08,0,0,1-1.29.38,2.06,2.06,0,0,1-1.57-.61,2.37,2.37,0,0,1-.58-1.71,2.49,2.49,0,0,1,.58-1.76,2,2,0,0,1,1.52-.63,1.92,1.92,0,0,1,1.48.62,2.44,2.44,0,0,1,.57,1.73s0,.11,0,.2H201a1.73,1.73,0,0,0,.42,1.14,1.25,1.25,0,0,0,.94.39,1.17,1.17,0,0,0,.72-.22A1.47,1.47,0,0,0,203.54,63.08ZM201,61.85h2.51a1.52,1.52,0,0,0-.29-.85,1.17,1.17,0,0,0-.95-.44,1.21,1.21,0,0,0-.88.35A1.4,1.4,0,0,0,201,61.85Z" style="fill:#231f20"/><path d="M207.81,64.53V58.32h2.76a3.68,3.68,0,0,1,1.26.17,1.38,1.38,0,0,1,.69.59,1.76,1.76,0,0,1,.26.94,1.56,1.56,0,0,1-.43,1.12,2.17,2.17,0,0,1-1.32.58,2.12,2.12,0,0,1,.5.31,4.28,4.28,0,0,1,.68.83l1.08,1.69h-1l-.82-1.29q-.36-.56-.59-.86a1.85,1.85,0,0,0-.42-.42,1.25,1.25,0,0,0-.37-.17,2.52,2.52,0,0,0-.46,0h-1v2.76Zm.82-3.47h1.77a2.64,2.64,0,0,0,.88-.12.94.94,0,0,0,.48-.37,1,1,0,0,0,.16-.56.93.93,0,0,0-.32-.72,1.5,1.5,0,0,0-1-.28h-2Z" style="fill:#231f20"/><path d="M216.89,63.08l.79.1a1.93,1.93,0,0,1-.69,1.07,2.34,2.34,0,0,1-2.86-.23,2.38,2.38,0,0,1-.58-1.71,2.49,2.49,0,0,1,.58-1.76,2,2,0,0,1,1.52-.63,1.92,1.92,0,0,1,1.48.62,2.45,2.45,0,0,1,.57,1.73s0,.11,0,.2h-3.36a1.73,1.73,0,0,0,.42,1.14,1.25,1.25,0,0,0,.94.39,1.17,1.17,0,0,0,.72-.22A1.46,1.46,0,0,0,216.89,63.08Zm-2.51-1.23h2.51a1.53,1.53,0,0,0-.29-.85,1.17,1.17,0,0,0-.95-.44,1.21,1.21,0,0,0-.88.35A1.4,1.4,0,0,0,214.38,61.85Z" style="fill:#231f20"/><path d="M218.45,64.53V58.32h.76v6.21Z" style="fill:#231f20"/><path d="M220.24,59.19v-.88H221v.88Zm0,5.34V60H221v4.5Z" style="fill:#231f20"/><path d="M225.08,63.08l.79.1a1.92,1.92,0,0,1-.69,1.07,2.34,2.34,0,0,1-2.86-.23,2.38,2.38,0,0,1-.58-1.71,2.49,2.49,0,0,1,.59-1.76,2,2,0,0,1,1.52-.63,1.92,1.92,0,0,1,1.47.62,2.44,2.44,0,0,1,.57,1.73s0,.11,0,.2h-3.36a1.72,1.72,0,0,0,.42,1.14,1.25,1.25,0,0,0,.94.39,1.17,1.17,0,0,0,.72-.22A1.46,1.46,0,0,0,225.08,63.08Zm-2.5-1.23h2.51a1.54,1.54,0,0,0-.29-.85,1.17,1.17,0,0,0-.95-.44,1.21,1.21,0,0,0-.88.35A1.39,1.39,0,0,0,222.58,61.85Z" style="fill:#231f20"/><path d="M226.84,64.53V60.62h-.67V60h.67v-.48a2.06,2.06,0,0,1,.08-.67,1,1,0,0,1,.39-.48,1.4,1.4,0,0,1,.78-.18,3.74,3.74,0,0,1,.71.08l-.11.67a2.56,2.56,0,0,0-.45,0,.67.67,0,0,0-.49.15.81.81,0,0,0-.14.56V60h.88v.59h-.88v3.91Z" style="fill:#231f20"/><path d="M232.79,64.53l-2.41-6.21h.89l1.62,4.51q.19.54.33,1,.15-.51.34-1l1.68-4.51h.84l-2.43,6.21Z" style="fill:#231f20"/><path d="M238.49,64a2.84,2.84,0,0,1-.82.51,2.34,2.34,0,0,1-.84.15,1.64,1.64,0,0,1-1.14-.36,1.2,1.2,0,0,1-.4-.93,1.25,1.25,0,0,1,.54-1,1.86,1.86,0,0,1,.55-.25,5.63,5.63,0,0,1,.68-.11,7,7,0,0,0,1.36-.26c0-.1,0-.17,0-.2a.84.84,0,0,0-.22-.66,1.28,1.28,0,0,0-.87-.26,1.35,1.35,0,0,0-.79.19,1.15,1.15,0,0,0-.38.67l-.75-.1a1.84,1.84,0,0,1,.33-.77,1.48,1.48,0,0,1,.67-.45,3,3,0,0,1,1-.16,2.72,2.72,0,0,1,.94.14,1.24,1.24,0,0,1,.53.34,1.2,1.2,0,0,1,.24.52,4.3,4.3,0,0,1,0,.7v1a10.83,10.83,0,0,0,0,1.35,1.69,1.69,0,0,0,.19.54h-.8A1.64,1.64,0,0,1,238.49,64Zm-.06-1.7a5.57,5.57,0,0,1-1.25.29,2.91,2.91,0,0,0-.66.15.66.66,0,0,0-.3.25.67.67,0,0,0,.13.87,1,1,0,0,0,.68.2,1.58,1.58,0,0,0,.78-.19,1.19,1.19,0,0,0,.5-.53,1.84,1.84,0,0,0,.12-.76Z" style="fill:#231f20"/><path d="M240.19,64.53V58.32h.76v6.21Z" style="fill:#231f20"/><path d="M243.2,64.53,241.49,60h.81l1,2.7c.1.29.2.59.29.91q.1-.36.29-.86l1-2.75h.78l-1.7,4.5Z" style="fill:#231f20"/><path d="M249.2,63.08l.79.1a1.92,1.92,0,0,1-.69,1.07,2.08,2.08,0,0,1-1.29.38,2.06,2.06,0,0,1-1.57-.61,2.37,2.37,0,0,1-.58-1.71,2.49,2.49,0,0,1,.59-1.76,2,2,0,0,1,1.52-.63,1.92,1.92,0,0,1,1.48.62,2.44,2.44,0,0,1,.57,1.73s0,.11,0,.2h-3.36a1.73,1.73,0,0,0,.42,1.14A1.25,1.25,0,0,0,248,64a1.17,1.17,0,0,0,.72-.22A1.47,1.47,0,0,0,249.2,63.08Zm-2.51-1.23h2.51a1.52,1.52,0,0,0-.29-.85,1.17,1.17,0,0,0-.95-.44,1.21,1.21,0,0,0-.88.35A1.4,1.4,0,0,0,246.69,61.85Z" style="fill:#231f20"/><path d="M122,75v-4.5h.68v.63a1.6,1.6,0,0,1,.56-.53,1.58,1.58,0,0,1,.8-.2,1.48,1.48,0,0,1,.82.21,1.11,1.11,0,0,1,.45.58,1.62,1.62,0,0,1,1.39-.79,1.37,1.37,0,0,1,1,.37,1.59,1.59,0,0,1,.36,1.14V75h-.76V72.12a2.09,2.09,0,0,0-.07-.66.64.64,0,0,0-.27-.32.84.84,0,0,0-.46-.12,1.06,1.06,0,0,0-.79.32,1.39,1.39,0,0,0-.31,1V75h-.76V72a1.29,1.29,0,0,0-.19-.76.71.71,0,0,0-.61-.25,1.11,1.11,0,0,0-.6.17,1,1,0,0,0-.4.5,2.79,2.79,0,0,0-.12.94V75Z" style="fill:#231f20"/><path d="M132.21,75v-.66a1.65,1.65,0,0,1-1.43.76,1.83,1.83,0,0,1-.74-.15,1.22,1.22,0,0,1-.51-.38,1.43,1.43,0,0,1-.24-.57,3.86,3.86,0,0,1,0-.71V70.45H130v2.5a4.41,4.41,0,0,0,0,.8.79.79,0,0,0,.31.47.94.94,0,0,0,.58.17,1.26,1.26,0,0,0,.64-.18,1,1,0,0,0,.43-.48,2.39,2.39,0,0,0,.13-.88V70.45h.76V75Z" style="fill:#231f20"/><path d="M133.79,73.61l.75-.12a1.06,1.06,0,0,0,.35.7,1.24,1.24,0,0,0,.81.24,1.19,1.19,0,0,0,.78-.21.64.64,0,0,0,.25-.5.47.47,0,0,0-.22-.41,3.4,3.4,0,0,0-.78-.26,7,7,0,0,1-1.16-.37,1.11,1.11,0,0,1-.66-1,1.15,1.15,0,0,1,.14-.56,1.23,1.23,0,0,1,.37-.43,1.55,1.55,0,0,1,.49-.22,2.32,2.32,0,0,1,.66-.09,2.59,2.59,0,0,1,.93.15,1.26,1.26,0,0,1,.59.41,1.62,1.62,0,0,1,.26.7l-.75.1a.81.81,0,0,0-.29-.54,1.08,1.08,0,0,0-.69-.2,1.24,1.24,0,0,0-.75.17.51.51,0,0,0-.22.41.42.42,0,0,0,.09.27.68.68,0,0,0,.29.2l.67.19a9.49,9.49,0,0,1,1.13.35,1.15,1.15,0,0,1,.5.4,1.12,1.12,0,0,1,.18.65,1.28,1.28,0,0,1-.22.72,1.44,1.44,0,0,1-.64.52,2.34,2.34,0,0,1-1,.18,2.11,2.11,0,0,1-1.34-.36A1.69,1.69,0,0,1,133.79,73.61Z" style="fill:#231f20"/><path d="M140.1,74.27l.11.67a2.78,2.78,0,0,1-.58.07,1.3,1.3,0,0,1-.64-.13.73.73,0,0,1-.32-.35,2.72,2.72,0,0,1-.09-.9V71H138v-.59h.56V69.33l.76-.46v1.57h.77V71h-.77v2.63a1.35,1.35,0,0,0,0,.42.32.32,0,0,0,.13.15.5.5,0,0,0,.26.05Z" style="fill:#231f20"/><path d="M146.2,73.3l.75.1a2,2,0,0,1-.63,1.21,1.84,1.84,0,0,1-1.24.44,1.93,1.93,0,0,1-1.49-.6,2.45,2.45,0,0,1-.56-1.73,3.15,3.15,0,0,1,.24-1.28,1.68,1.68,0,0,1,.74-.82,2.19,2.19,0,0,1,1.07-.27,1.87,1.87,0,0,1,1.2.37,1.7,1.7,0,0,1,.6,1.05l-.74.11a1.24,1.24,0,0,0-.38-.68,1,1,0,0,0-.65-.23,1.18,1.18,0,0,0-.94.41,2,2,0,0,0-.36,1.31,2,2,0,0,0,.35,1.32,1.13,1.13,0,0,0,.91.41,1.07,1.07,0,0,0,.75-.28A1.37,1.37,0,0,0,146.2,73.3Z" style="fill:#231f20"/><path d="M147.32,72.7a2.32,2.32,0,0,1,.7-1.85,2.09,2.09,0,0,1,1.42-.5,2,2,0,0,1,1.52.61,2.32,2.32,0,0,1,.59,1.68,3,3,0,0,1-.26,1.37,1.84,1.84,0,0,1-.76.77,2.21,2.21,0,0,1-1.09.28,2,2,0,0,1-1.53-.61A2.42,2.42,0,0,1,147.32,72.7Zm.79,0a1.92,1.92,0,0,0,.38,1.29,1.26,1.26,0,0,0,1.89,0,2,2,0,0,0,.38-1.32,1.86,1.86,0,0,0-.38-1.27,1.26,1.26,0,0,0-1.89,0A1.91,1.91,0,0,0,148.1,72.7Z" style="fill:#231f20"/><path d="M152.43,75v-4.5h.68v.63a1.61,1.61,0,0,1,.56-.53,1.58,1.58,0,0,1,.8-.2,1.48,1.48,0,0,1,.82.21,1.11,1.11,0,0,1,.45.58,1.62,1.62,0,0,1,1.39-.79,1.37,1.37,0,0,1,1,.37,1.59,1.59,0,0,1,.36,1.14V75h-.76V72.12a2.1,2.1,0,0,0-.07-.66.64.64,0,0,0-.27-.32A.84.84,0,0,0,157,71a1.06,1.06,0,0,0-.79.32,1.39,1.39,0,0,0-.31,1V75h-.76V72a1.29,1.29,0,0,0-.19-.76.71.71,0,0,0-.61-.25,1.12,1.12,0,0,0-.59.17,1,1,0,0,0-.4.5,2.79,2.79,0,0,0-.12.94V75Z" style="fill:#231f20"/><path d="M159.66,76.68V70.45h.7V71a1.72,1.72,0,0,1,.55-.52,1.53,1.53,0,0,1,.75-.17,1.79,1.79,0,0,1,1,.3,1.82,1.82,0,0,1,.66.84,3,3,0,0,1,.22,1.18,3,3,0,0,1-.25,1.24,1.89,1.89,0,0,1-1.71,1.14,1.43,1.43,0,0,1-.68-.16,1.54,1.54,0,0,1-.5-.41v2.19Zm.69-4a2,2,0,0,0,.35,1.28,1.08,1.08,0,0,0,.85.42,1.1,1.1,0,0,0,.87-.43,2,2,0,0,0,.36-1.33,2,2,0,0,0-.35-1.29,1.07,1.07,0,0,0-.85-.43,1.1,1.1,0,0,0-.86.46A2,2,0,0,0,160.35,72.73Z" style="fill:#231f20"/><path d="M164.47,75V68.74h.76V75Z" style="fill:#231f20"/><path d="M166.39,76.69,166.3,76a1.72,1.72,0,0,0,.44.07.84.84,0,0,0,.41-.08.69.69,0,0,0,.25-.24,3.61,3.61,0,0,0,.23-.57l.07-.19L166,70.45h.82l.94,2.61c.12.33.23.68.33,1a10.48,10.48,0,0,1,.31-1l1-2.62h.76L168.4,75a8.94,8.94,0,0,1-.43,1,1.51,1.51,0,0,1-.47.55,1.1,1.1,0,0,1-.63.18A1.53,1.53,0,0,1,166.39,76.69Z" style="fill:#231f20"/><path d="M174,75l-1.38-4.5h.79l.72,2.6.27,1,.23-.93.72-2.64h.79l.67,2.61.22.86.26-.87.77-2.6h.74L177.4,75h-.79l-.72-2.7-.17-.77L174.8,75Z" style="fill:#231f20"/><path d="M179.45,69.61v-.88h.76v.88Zm0,5.34v-4.5h.76V75Z" style="fill:#231f20"/><path d="M183,74.27l.11.67a2.78,2.78,0,0,1-.58.07,1.3,1.3,0,0,1-.64-.13.73.73,0,0,1-.32-.35,2.72,2.72,0,0,1-.09-.9V71H181v-.59h.56V69.33l.76-.46v1.57H183V71h-.77v2.63a1.35,1.35,0,0,0,0,.42.32.32,0,0,0,.13.15.5.5,0,0,0,.26.05Z" style="fill:#231f20"/><path d="M183.79,75V68.74h.76V71a1.71,1.71,0,0,1,1.35-.62,1.83,1.83,0,0,1,.87.2,1.16,1.16,0,0,1,.53.54,2.52,2.52,0,0,1,.16,1V75h-.76V72.1a1.19,1.19,0,0,0-.25-.83.93.93,0,0,0-.7-.26,1.24,1.24,0,0,0-.64.18,1,1,0,0,0-.43.48,2.19,2.19,0,0,0-.13.83V75Z" style="fill:#231f20"/><path d="M190,75l2.39-6.21h.89L195.78,75h-.94l-.73-1.88h-2.6L190.83,75Zm1.79-2.55h2.11l-.65-1.72q-.3-.78-.44-1.29a8,8,0,0,1-.33,1.19Z" style="fill:#231f20"/><path d="M196.43,75V68.74h.84l3.26,4.88V68.74h.79V75h-.84l-3.26-4.88V75Z" style="fill:#231f20"/><path d="M202.43,73l.78-.07a1.72,1.72,0,0,0,.26.76,1.41,1.41,0,0,0,.63.48,2.36,2.36,0,0,0,1,.18,2.29,2.29,0,0,0,.83-.14,1.16,1.16,0,0,0,.54-.38.89.89,0,0,0,.18-.53.81.81,0,0,0-.17-.51,1.25,1.25,0,0,0-.56-.37,11,11,0,0,0-1.11-.3,5.66,5.66,0,0,1-1.2-.39,1.68,1.68,0,0,1-.66-.58,1.42,1.42,0,0,1-.22-.77,1.59,1.59,0,0,1,.27-.88,1.65,1.65,0,0,1,.78-.62,3,3,0,0,1,1.14-.21,3.11,3.11,0,0,1,1.22.22,1.76,1.76,0,0,1,.81.66,1.87,1.87,0,0,1,.3,1l-.79.06a1.27,1.27,0,0,0-.43-.89,1.67,1.67,0,0,0-1.08-.3,1.73,1.73,0,0,0-1.09.27.82.82,0,0,0-.34.66.71.71,0,0,0,.24.55,3.26,3.26,0,0,0,1.24.44,8.17,8.17,0,0,1,1.37.4,1.88,1.88,0,0,1,.8.63,1.54,1.54,0,0,1,.26.88,1.7,1.7,0,0,1-.28.93,1.87,1.87,0,0,1-.82.68,2.85,2.85,0,0,1-1.2.24,3.57,3.57,0,0,1-1.41-.25,2,2,0,0,1-.89-.74A2.09,2.09,0,0,1,202.43,73Z" style="fill:#231f20"/><path d="M208.64,75V68.74h.82V75Z" style="fill:#231f20"/><path d="M212.82,75v-.76l3.18-4q.34-.42.64-.74h-3.47v-.73h4.45v.73l-3.49,4.31-.38.44h4V75Z" style="fill:#231f20"/><path d="M222.33,74.22V75h-4.11a1.32,1.32,0,0,1,.09-.53,2.78,2.78,0,0,1,.5-.83,7.86,7.86,0,0,1,1-.94,8.41,8.41,0,0,0,1.37-1.32,1.57,1.57,0,0,0,.36-.92,1,1,0,0,0-.32-.76,1.17,1.17,0,0,0-.85-.31,1.19,1.19,0,0,0-.88.33,1.25,1.25,0,0,0-.34.92l-.78-.08a1.93,1.93,0,0,1,.61-1.34,2.07,2.07,0,0,1,1.41-.46,2,2,0,0,1,1.42.5,1.63,1.63,0,0,1,.52,1.23,1.87,1.87,0,0,1-.15.73,2.86,2.86,0,0,1-.51.76A12.25,12.25,0,0,1,220.48,73c-.46.38-.75.64-.88.78a2.41,2.41,0,0,0-.32.41Z" style="fill:#231f20"/><path d="M226,75h-.76V70.09a4,4,0,0,1-.72.53,5.17,5.17,0,0,1-.8.39v-.74a4.6,4.6,0,0,0,1.12-.73,2.9,2.9,0,0,0,.68-.83H226Z" style="fill:#231f20"/><path d="M228.4,75v-.87h.87V75Z" style="fill:#231f20"/><path d="M234.39,74.22V75h-4.11a1.34,1.34,0,0,1,.09-.53,2.81,2.81,0,0,1,.5-.83,7.79,7.79,0,0,1,1-.94,8.45,8.45,0,0,0,1.37-1.32,1.58,1.58,0,0,0,.36-.92,1,1,0,0,0-.32-.76,1.17,1.17,0,0,0-.85-.31,1.19,1.19,0,0,0-.88.33,1.25,1.25,0,0,0-.34.92l-.78-.08a1.92,1.92,0,0,1,.61-1.34,2.07,2.07,0,0,1,1.41-.46,2,2,0,0,1,1.42.5,1.63,1.63,0,0,1,.52,1.23,1.87,1.87,0,0,1-.15.73,2.87,2.87,0,0,1-.51.76A12.23,12.23,0,0,1,232.55,73q-.69.58-.88.78a2.51,2.51,0,0,0-.32.41Z" style="fill:#231f20"/><path d="M239.22,74.22V75h-4.11a1.36,1.36,0,0,1,.09-.53,2.81,2.81,0,0,1,.5-.83,7.93,7.93,0,0,1,1-.94,8.42,8.42,0,0,0,1.37-1.32,1.58,1.58,0,0,0,.36-.92,1,1,0,0,0-.32-.76,1.17,1.17,0,0,0-.85-.31,1.19,1.19,0,0,0-.88.33,1.25,1.25,0,0,0-.33.92l-.79-.08a1.93,1.93,0,0,1,.61-1.34,2.07,2.07,0,0,1,1.41-.46,2,2,0,0,1,1.42.5,1.63,1.63,0,0,1,.52,1.23,1.87,1.87,0,0,1-.15.73,2.85,2.85,0,0,1-.51.76A12.5,12.5,0,0,1,237.38,73q-.69.58-.88.78a2.51,2.51,0,0,0-.32.41Z" style="fill:#231f20"/><path d="M240,73.09v-.77h2.34v.77Z" style="fill:#231f20"/><path d="M126.56,83.19l.82.21a2.77,2.77,0,0,1-.93,1.55,2.57,2.57,0,0,1-1.64.53,3,3,0,0,1-1.63-.41,2.55,2.55,0,0,1-1-1.19,4.22,4.22,0,0,1-.33-1.67,3.66,3.66,0,0,1,.37-1.69,2.55,2.55,0,0,1,1.06-1.1,3.09,3.09,0,0,1,1.51-.37,2.55,2.55,0,0,1,1.57.47,2.47,2.47,0,0,1,.89,1.34l-.81.19a1.92,1.92,0,0,0-.63-1,1.67,1.67,0,0,0-1-.31,2,2,0,0,0-1.2.34,1.82,1.82,0,0,0-.68.92,3.7,3.7,0,0,0-.2,1.19A3.8,3.8,0,0,0,123,83.6a1.72,1.72,0,0,0,.72.88,2,2,0,0,0,1.06.29,1.77,1.77,0,0,0,1.17-.4A2,2,0,0,0,126.56,83.19Z" style="fill:#231f20"/><path d="M128.12,83.37l.78-.07a1.71,1.71,0,0,0,.26.76,1.4,1.4,0,0,0,.63.48,2.37,2.37,0,0,0,1,.18,2.3,2.3,0,0,0,.83-.14,1.16,1.16,0,0,0,.54-.38.89.89,0,0,0,.18-.53.81.81,0,0,0-.17-.51,1.26,1.26,0,0,0-.56-.37,10.87,10.87,0,0,0-1.11-.3,5.66,5.66,0,0,1-1.2-.39,1.68,1.68,0,0,1-.66-.58,1.42,1.42,0,0,1-.22-.77,1.58,1.58,0,0,1,.27-.88,1.66,1.66,0,0,1,.78-.62,3,3,0,0,1,1.14-.21,3.11,3.11,0,0,1,1.22.22,1.76,1.76,0,0,1,.81.66,1.87,1.87,0,0,1,.3,1l-.79.06a1.27,1.27,0,0,0-.43-.89,1.67,1.67,0,0,0-1.08-.3,1.74,1.74,0,0,0-1.09.27.82.82,0,0,0-.34.66.71.71,0,0,0,.24.55,3.27,3.27,0,0,0,1.24.44,8.19,8.19,0,0,1,1.38.4,1.88,1.88,0,0,1,.8.63,1.54,1.54,0,0,1,.26.88,1.69,1.69,0,0,1-.28.93,1.86,1.86,0,0,1-.82.68,2.85,2.85,0,0,1-1.2.24,3.57,3.57,0,0,1-1.41-.25,2,2,0,0,1-.89-.74A2.09,2.09,0,0,1,128.12,83.37Z" style="fill:#231f20"/><path d="M133.51,85.37l2.39-6.21h.89l2.54,6.21h-.94l-.72-1.88h-2.6l-.68,1.88Zm1.79-2.55h2.11l-.65-1.72q-.3-.78-.44-1.29A7.88,7.88,0,0,1,136,81Z" style="fill:#231f20"/><path d="M144.06,85.37V83.88h-2.7v-.7l2.84-4h.62v4h.84v.7h-.84v1.49Zm0-2.19v-2.8l-1.95,2.8Z" style="fill:#231f20"/><path d="M146.87,85.37V84.5h.87v.87Z" style="fill:#231f20"/><path d="M151.3,85.37V83.88h-2.7v-.7l2.84-4h.62v4h.84v.7h-.84v1.49Zm0-2.19v-2.8l-1.95,2.8Z" style="fill:#231f20"/><path d="M159.25,84.81a2.84,2.84,0,0,1-.82.51,2.35,2.35,0,0,1-.84.15,1.64,1.64,0,0,1-1.14-.36,1.2,1.2,0,0,1-.4-.93,1.25,1.25,0,0,1,.54-1,1.85,1.85,0,0,1,.55-.25,5.59,5.59,0,0,1,.68-.11,7,7,0,0,0,1.36-.26c0-.1,0-.17,0-.2a.85.85,0,0,0-.22-.66,1.28,1.28,0,0,0-.87-.26,1.35,1.35,0,0,0-.79.19,1.16,1.16,0,0,0-.38.67l-.75-.1a1.84,1.84,0,0,1,.34-.77,1.46,1.46,0,0,1,.67-.45,3,3,0,0,1,1-.16,2.72,2.72,0,0,1,.94.14,1.24,1.24,0,0,1,.53.34,1.2,1.2,0,0,1,.24.52,4.29,4.29,0,0,1,0,.7v1a10.63,10.63,0,0,0,0,1.35,1.67,1.67,0,0,0,.19.54h-.8A1.59,1.59,0,0,1,159.25,84.81Zm-.06-1.7a5.59,5.59,0,0,1-1.25.29,2.9,2.9,0,0,0-.67.15.66.66,0,0,0-.3.25.68.68,0,0,0,.13.87,1,1,0,0,0,.68.2,1.58,1.58,0,0,0,.79-.19,1.19,1.19,0,0,0,.5-.53,1.84,1.84,0,0,0,.12-.76Z" style="fill:#231f20"/><path d="M161.14,85.37v-4.5h.69v.64a1.62,1.62,0,0,1,1.43-.74,1.88,1.88,0,0,1,.75.15,1.17,1.17,0,0,1,.51.38,1.47,1.47,0,0,1,.24.56,4.35,4.35,0,0,1,0,.74v2.77H164V82.63a2.05,2.05,0,0,0-.09-.7.74.74,0,0,0-.32-.37,1,1,0,0,0-.53-.14,1.23,1.23,0,0,0-.84.31,1.53,1.53,0,0,0-.35,1.17v2.46Z" style="fill:#231f20"/><path d="M168.89,85.37V84.8a1.4,1.4,0,0,1-1.26.67,1.76,1.76,0,0,1-1-.3,1.94,1.94,0,0,1-.7-.83,2.86,2.86,0,0,1-.25-1.22,3.19,3.19,0,0,1,.22-1.22,1.77,1.77,0,0,1,.67-.84,1.8,1.8,0,0,1,1-.29,1.5,1.5,0,0,1,1.24.62V79.16h.76v6.21Zm-2.41-2.25a2,2,0,0,0,.37,1.29,1.1,1.1,0,0,0,.86.43,1.08,1.08,0,0,0,.85-.41,1.89,1.89,0,0,0,.35-1.25,2.12,2.12,0,0,0-.36-1.36,1.1,1.1,0,0,0-.88-.43,1.06,1.06,0,0,0-.85.42A2,2,0,0,0,166.47,83.12Z" style="fill:#231f20"/><path d="M172.14,85.37l2.39-6.21h.89L178,85.37H177l-.72-1.88h-2.6L173,85.37Zm1.79-2.55H176l-.65-1.72q-.3-.78-.44-1.29a7.87,7.87,0,0,1-.34,1.19Z" style="fill:#231f20"/><path d="M178.33,83.37l.78-.07a1.72,1.72,0,0,0,.26.76,1.41,1.41,0,0,0,.63.48,2.37,2.37,0,0,0,1,.18,2.29,2.29,0,0,0,.83-.14,1.16,1.16,0,0,0,.54-.38.89.89,0,0,0,.18-.53.81.81,0,0,0-.17-.51,1.25,1.25,0,0,0-.56-.37,11,11,0,0,0-1.11-.3,5.66,5.66,0,0,1-1.2-.39,1.68,1.68,0,0,1-.66-.58,1.42,1.42,0,0,1-.22-.77,1.59,1.59,0,0,1,.27-.88,1.65,1.65,0,0,1,.78-.62,3,3,0,0,1,1.14-.21,3.11,3.11,0,0,1,1.22.22,1.76,1.76,0,0,1,.81.66,1.87,1.87,0,0,1,.3,1l-.79.06a1.27,1.27,0,0,0-.43-.89,1.67,1.67,0,0,0-1.08-.3,1.73,1.73,0,0,0-1.09.27.82.82,0,0,0-.34.66.71.71,0,0,0,.24.55,3.27,3.27,0,0,0,1.24.44,8.17,8.17,0,0,1,1.37.4,1.88,1.88,0,0,1,.8.63,1.54,1.54,0,0,1,.26.88,1.7,1.7,0,0,1-.28.93,1.87,1.87,0,0,1-.82.68,2.85,2.85,0,0,1-1.2.24,3.57,3.57,0,0,1-1.41-.25,2,2,0,0,1-.89-.74A2.09,2.09,0,0,1,178.33,83.37Z" style="fill:#231f20"/><path d="M184.38,85.37V79.16h1.24l1.47,4.4c.14.41.23.72.3.92.07-.23.18-.56.33-1l1.49-4.32h1.11v6.21h-.79v-5.2l-1.81,5.2H187l-1.8-5.29v5.29Z" style="fill:#231f20"/><path d="M191.65,85.37V79.16h4.49v.73h-3.67v1.9h3.44v.73h-3.44v2.12h3.82v.73Z" style="fill:#231f20"/><path d="M202.68,83.72l.75.1A2,2,0,0,1,202.8,85a1.84,1.84,0,0,1-1.25.44,1.93,1.93,0,0,1-1.49-.6,2.46,2.46,0,0,1-.56-1.73,3.12,3.12,0,0,1,.24-1.28,1.69,1.69,0,0,1,.73-.82,2.19,2.19,0,0,1,1.08-.27,1.87,1.87,0,0,1,1.2.37,1.71,1.71,0,0,1,.6,1.05l-.74.11a1.23,1.23,0,0,0-.37-.68,1,1,0,0,0-.65-.23,1.19,1.19,0,0,0-.94.41,2,2,0,0,0-.36,1.31,2,2,0,0,0,.35,1.32,1.13,1.13,0,0,0,.91.41,1.07,1.07,0,0,0,.75-.28A1.37,1.37,0,0,0,202.68,83.72Z" style="fill:#231f20"/><path d="M203.8,83.12a2.32,2.32,0,0,1,.7-1.85,2.09,2.09,0,0,1,1.42-.5,2,2,0,0,1,1.52.61,2.32,2.32,0,0,1,.59,1.68,3,3,0,0,1-.26,1.37,1.85,1.85,0,0,1-.76.77,2.21,2.21,0,0,1-1.09.28,2,2,0,0,1-1.53-.61A2.42,2.42,0,0,1,203.8,83.12Zm.78,0a1.92,1.92,0,0,0,.38,1.29,1.26,1.26,0,0,0,1.9,0,2,2,0,0,0,.38-1.32,1.86,1.86,0,0,0-.38-1.27,1.26,1.26,0,0,0-1.89,0A1.91,1.91,0,0,0,204.58,83.12Z" style="fill:#231f20"/><path d="M211.83,85.37V84.8a1.4,1.4,0,0,1-1.26.67,1.77,1.77,0,0,1-1-.3,2,2,0,0,1-.7-.83,2.87,2.87,0,0,1-.25-1.22,3.21,3.21,0,0,1,.22-1.22,1.77,1.77,0,0,1,.67-.84,1.8,1.8,0,0,1,1-.29,1.5,1.5,0,0,1,1.24.62V79.16h.76v6.21Zm-2.41-2.25a2,2,0,0,0,.37,1.29,1.1,1.1,0,0,0,.86.43,1.08,1.08,0,0,0,.85-.41,1.89,1.89,0,0,0,.35-1.25,2.11,2.11,0,0,0-.36-1.36,1.09,1.09,0,0,0-.88-.43,1.05,1.05,0,0,0-.85.42A2,2,0,0,0,209.42,83.12Z" style="fill:#231f20"/><path d="M216.82,83.92l.79.1a1.92,1.92,0,0,1-.69,1.07,2.08,2.08,0,0,1-1.29.38,2.06,2.06,0,0,1-1.57-.61,2.37,2.37,0,0,1-.58-1.71,2.49,2.49,0,0,1,.58-1.76,2,2,0,0,1,1.52-.63,1.92,1.92,0,0,1,1.48.62,2.44,2.44,0,0,1,.57,1.73s0,.11,0,.2h-3.36a1.73,1.73,0,0,0,.42,1.14,1.25,1.25,0,0,0,.94.39,1.17,1.17,0,0,0,.72-.22A1.47,1.47,0,0,0,216.82,83.92Zm-2.51-1.23h2.51a1.52,1.52,0,0,0-.29-.85,1.17,1.17,0,0,0-.95-.44,1.21,1.21,0,0,0-.88.35A1.4,1.4,0,0,0,214.31,82.69Z" style="fill:#231f20"/><path d="M218.78,85.37V84.5h.87v.87Z" style="fill:#231f20"/><path d="M122.55,98.36V92.14h2.34a5.59,5.59,0,0,1,.95.06,1.87,1.87,0,0,1,.77.29,1.52,1.52,0,0,1,.5.6,2,2,0,0,1-.32,2.19,2.42,2.42,0,0,1-1.82.55h-1.59v2.53Zm.82-3.26H125a1.71,1.71,0,0,0,1.13-.3,1.06,1.06,0,0,0,.33-.84,1.12,1.12,0,0,0-.2-.67.92.92,0,0,0-.52-.37,3.56,3.56,0,0,0-.77-.05h-1.59Z" style="fill:#231f20"/><path d="M128.24,98.36v-4.5h.69v.68a1.87,1.87,0,0,1,.49-.63.84.84,0,0,1,.49-.15,1.49,1.49,0,0,1,.78.25l-.26.71a1.09,1.09,0,0,0-.56-.17.72.72,0,0,0-.45.15.82.82,0,0,0-.28.42A3,3,0,0,0,129,96v2.36Z" style="fill:#231f20"/><path d="M130.85,96.11a2.32,2.32,0,0,1,.7-1.85,2.09,2.09,0,0,1,1.42-.5,2,2,0,0,1,1.52.61,2.32,2.32,0,0,1,.59,1.68,3,3,0,0,1-.26,1.37,1.84,1.84,0,0,1-.76.77,2.21,2.21,0,0,1-1.09.28,2,2,0,0,1-1.53-.61A2.42,2.42,0,0,1,130.85,96.11Zm.79,0A1.92,1.92,0,0,0,132,97.4a1.26,1.26,0,0,0,1.89,0,2,2,0,0,0,.38-1.32,1.86,1.86,0,0,0-.38-1.27,1.26,1.26,0,0,0-1.89,0A1.91,1.91,0,0,0,131.64,96.11Z" style="fill:#231f20"/><path d="M136,100.08V93.86h.7v.58a1.71,1.71,0,0,1,.55-.52,1.53,1.53,0,0,1,.75-.17,1.78,1.78,0,0,1,1,.3,1.82,1.82,0,0,1,.67.84,3,3,0,0,1,.22,1.18,3,3,0,0,1-.25,1.24,1.86,1.86,0,0,1-.72.85,1.84,1.84,0,0,1-1,.29,1.44,1.44,0,0,1-.68-.16,1.56,1.56,0,0,1-.5-.41v2.19Zm.69-4a2,2,0,0,0,.35,1.28,1.08,1.08,0,0,0,.85.42,1.1,1.1,0,0,0,.87-.43,2,2,0,0,0,.36-1.33,2,2,0,0,0-.35-1.29,1.07,1.07,0,0,0-.85-.43,1.1,1.1,0,0,0-.86.46A2,2,0,0,0,136.66,96.13Z" style="fill:#231f20"/><path d="M143.88,96.91l.79.1a1.93,1.93,0,0,1-.69,1.07,2.34,2.34,0,0,1-2.86-.23,2.38,2.38,0,0,1-.58-1.71,2.49,2.49,0,0,1,.58-1.76,2,2,0,0,1,1.52-.63,1.92,1.92,0,0,1,1.48.62,2.45,2.45,0,0,1,.57,1.73s0,.11,0,.2h-3.36a1.73,1.73,0,0,0,.42,1.14,1.25,1.25,0,0,0,.94.39,1.17,1.17,0,0,0,.72-.22A1.46,1.46,0,0,0,143.88,96.91Zm-2.51-1.23h2.51a1.53,1.53,0,0,0-.29-.85,1.17,1.17,0,0,0-.95-.44,1.21,1.21,0,0,0-.88.35A1.4,1.4,0,0,0,141.37,95.68Z" style="fill:#231f20"/><path d="M145.62,98.36v-4.5h.69v.68a1.87,1.87,0,0,1,.48-.63.84.84,0,0,1,.49-.15,1.49,1.49,0,0,1,.79.25l-.26.71a1.09,1.09,0,0,0-.56-.17.72.72,0,0,0-.45.15.82.82,0,0,0-.28.42,3,3,0,0,0-.13.89v2.36Z" style="fill:#231f20"/><path d="M148.5,98.36V92.14h.76v6.21Z" style="fill:#231f20"/><path d="M150.41,100.09l-.08-.72a1.71,1.71,0,0,0,.44.07.85.85,0,0,0,.41-.08.69.69,0,0,0,.25-.24,3.91,3.91,0,0,0,.23-.57l.07-.19L150,93.86h.82l.94,2.61q.18.5.33,1a10.19,10.19,0,0,1,.31-1l1-2.62h.76l-1.71,4.58a9,9,0,0,1-.43,1,1.5,1.5,0,0,1-.47.55,1.1,1.1,0,0,1-.63.18A1.55,1.55,0,0,1,150.41,100.09Z" style="fill:#231f20"/><path d="M156.89,97l.75-.12a1.06,1.06,0,0,0,.35.7,1.23,1.23,0,0,0,.81.24,1.19,1.19,0,0,0,.78-.21.64.64,0,0,0,.25-.5.47.47,0,0,0-.22-.41,3.4,3.4,0,0,0-.78-.26,7,7,0,0,1-1.16-.37,1.11,1.11,0,0,1-.66-1,1.15,1.15,0,0,1,.14-.56,1.23,1.23,0,0,1,.38-.43,1.55,1.55,0,0,1,.48-.22,2.33,2.33,0,0,1,.66-.09,2.58,2.58,0,0,1,.93.15,1.26,1.26,0,0,1,.59.41,1.63,1.63,0,0,1,.26.7l-.75.1a.82.82,0,0,0-.29-.54,1.08,1.08,0,0,0-.69-.2,1.24,1.24,0,0,0-.75.17.51.51,0,0,0-.22.41.42.42,0,0,0,.09.27.67.67,0,0,0,.29.2l.67.19a9.4,9.4,0,0,1,1.13.35,1.15,1.15,0,0,1,.5.4,1.12,1.12,0,0,1,.18.65,1.28,1.28,0,0,1-.22.72,1.44,1.44,0,0,1-.64.52,2.34,2.34,0,0,1-1,.18,2.11,2.11,0,0,1-1.34-.36A1.69,1.69,0,0,1,156.89,97Z" style="fill:#231f20"/><path d="M161.54,93v-.88h.76V93Zm0,5.34v-4.5h.76v4.5Z" style="fill:#231f20"/><path d="M163.06,98.36v-.62l2.87-3.29-.86,0h-1.84v-.62h3.68v.5l-2.44,2.86-.47.52q.51,0,1,0h2.08v.66Z" style="fill:#231f20"/><path d="M170.89,96.91l.79.1a1.92,1.92,0,0,1-.69,1.07,2.34,2.34,0,0,1-2.86-.23,2.38,2.38,0,0,1-.58-1.71,2.49,2.49,0,0,1,.58-1.76,2,2,0,0,1,1.52-.63,1.92,1.92,0,0,1,1.47.62,2.44,2.44,0,0,1,.57,1.73s0,.11,0,.2h-3.36a1.72,1.72,0,0,0,.42,1.14,1.25,1.25,0,0,0,.94.39,1.17,1.17,0,0,0,.72-.22A1.46,1.46,0,0,0,170.89,96.91Zm-2.5-1.23h2.51a1.54,1.54,0,0,0-.29-.85,1.17,1.17,0,0,0-.95-.44,1.21,1.21,0,0,0-.88.35A1.39,1.39,0,0,0,168.39,95.68Z" style="fill:#231f20"/><path d="M175.56,98.36v-.57a1.4,1.4,0,0,1-1.26.67,1.76,1.76,0,0,1-1-.3,1.94,1.94,0,0,1-.7-.83,2.86,2.86,0,0,1-.25-1.22,3.19,3.19,0,0,1,.22-1.22,1.77,1.77,0,0,1,.67-.84,1.8,1.8,0,0,1,1-.29,1.5,1.5,0,0,1,1.24.62V92.14h.76v6.21Zm-2.41-2.25a2,2,0,0,0,.37,1.29,1.1,1.1,0,0,0,.86.43,1.08,1.08,0,0,0,.85-.41,1.89,1.89,0,0,0,.35-1.25,2.12,2.12,0,0,0-.36-1.36,1.1,1.1,0,0,0-.88-.43,1.06,1.06,0,0,0-.85.42A2,2,0,0,0,173.15,96.11Z" style="fill:#231f20"/><path d="M181.54,97.68l.11.67a2.79,2.79,0,0,1-.58.07,1.3,1.3,0,0,1-.64-.13.72.72,0,0,1-.32-.35A2.72,2.72,0,0,1,180,97V94.45h-.56v-.59H180V92.74l.76-.46v1.57h.77v.59h-.77v2.63a1.31,1.31,0,0,0,0,.42.32.32,0,0,0,.13.15.51.51,0,0,0,.26.05Z" style="fill:#231f20"/><path d="M185.37,96.91l.79.1a1.93,1.93,0,0,1-.69,1.07,2.34,2.34,0,0,1-2.86-.23,2.38,2.38,0,0,1-.58-1.71,2.49,2.49,0,0,1,.58-1.76,2,2,0,0,1,1.52-.63,1.92,1.92,0,0,1,1.48.62,2.45,2.45,0,0,1,.57,1.73s0,.11,0,.2h-3.36a1.73,1.73,0,0,0,.42,1.14,1.25,1.25,0,0,0,.94.39,1.17,1.17,0,0,0,.72-.22A1.46,1.46,0,0,0,185.37,96.91Zm-2.51-1.23h2.51a1.53,1.53,0,0,0-.29-.85,1.17,1.17,0,0,0-.95-.44,1.21,1.21,0,0,0-.88.35A1.4,1.4,0,0,0,182.87,95.68Z" style="fill:#231f20"/><path d="M187.12,98.36v-4.5h.68v.63a1.6,1.6,0,0,1,.56-.53,1.58,1.58,0,0,1,.8-.2A1.48,1.48,0,0,1,190,94a1.11,1.11,0,0,1,.45.58,1.62,1.62,0,0,1,1.39-.79,1.37,1.37,0,0,1,1,.37,1.59,1.59,0,0,1,.36,1.14v3.09h-.76V95.52a2.07,2.07,0,0,0-.07-.66.64.64,0,0,0-.27-.32.84.84,0,0,0-.46-.12,1.06,1.06,0,0,0-.79.32,1.39,1.39,0,0,0-.31,1v2.62h-.76V95.43a1.3,1.3,0,0,0-.19-.76.71.71,0,0,0-.61-.25,1.12,1.12,0,0,0-.6.17,1,1,0,0,0-.4.5,2.79,2.79,0,0,0-.12.94v2.34Z" style="fill:#231f20"/><path d="M194.35,100.08V93.86h.7v.58a1.7,1.7,0,0,1,.56-.52,1.53,1.53,0,0,1,.75-.17,1.78,1.78,0,0,1,1,.3,1.83,1.83,0,0,1,.67.84,3.06,3.06,0,0,1,.22,1.18,3,3,0,0,1-.25,1.24,1.87,1.87,0,0,1-.72.85,1.85,1.85,0,0,1-1,.29,1.44,1.44,0,0,1-.69-.16,1.58,1.58,0,0,1-.5-.41v2.19Zm.69-4a2,2,0,0,0,.35,1.28,1.08,1.08,0,0,0,.85.42,1.1,1.1,0,0,0,.87-.43,2,2,0,0,0,.36-1.33,2,2,0,0,0-.35-1.29,1.07,1.07,0,0,0-.85-.43,1.1,1.1,0,0,0-.86.46A2,2,0,0,0,195,96.13Z" style="fill:#231f20"/><path d="M202.26,96.91l.79.1a1.93,1.93,0,0,1-.69,1.07,2.34,2.34,0,0,1-2.86-.23,2.38,2.38,0,0,1-.58-1.71,2.49,2.49,0,0,1,.58-1.76,2,2,0,0,1,1.52-.63,1.92,1.92,0,0,1,1.48.62,2.45,2.45,0,0,1,.57,1.73s0,.11,0,.2h-3.36a1.73,1.73,0,0,0,.42,1.14,1.25,1.25,0,0,0,.94.39,1.17,1.17,0,0,0,.72-.22A1.46,1.46,0,0,0,202.26,96.91Zm-2.51-1.23h2.51a1.53,1.53,0,0,0-.29-.85,1.17,1.17,0,0,0-.95-.44,1.21,1.21,0,0,0-.88.35A1.4,1.4,0,0,0,199.76,95.68Z" style="fill:#231f20"/><path d="M204,98.36v-4.5h.69v.68a1.86,1.86,0,0,1,.49-.63.84.84,0,0,1,.49-.15,1.49,1.49,0,0,1,.78.25l-.26.71a1.09,1.09,0,0,0-.56-.17.73.73,0,0,0-.45.15.81.81,0,0,0-.28.42,2.93,2.93,0,0,0-.13.89v2.36Z" style="fill:#231f20"/><path d="M209.84,97.8a2.84,2.84,0,0,1-.82.51,2.35,2.35,0,0,1-.84.15A1.64,1.64,0,0,1,207,98.1a1.2,1.2,0,0,1-.4-.93,1.25,1.25,0,0,1,.54-1,1.85,1.85,0,0,1,.55-.25,5.64,5.64,0,0,1,.68-.11,7,7,0,0,0,1.36-.26c0-.1,0-.17,0-.2a.84.84,0,0,0-.22-.66,1.28,1.28,0,0,0-.87-.26,1.35,1.35,0,0,0-.79.19,1.15,1.15,0,0,0-.38.67l-.75-.1a1.83,1.83,0,0,1,.34-.77,1.47,1.47,0,0,1,.67-.45,3,3,0,0,1,1-.16,2.72,2.72,0,0,1,.94.14,1.23,1.23,0,0,1,.53.34,1.2,1.2,0,0,1,.24.52,4.33,4.33,0,0,1,0,.7v1a10.84,10.84,0,0,0,0,1.35,1.72,1.72,0,0,0,.19.54H210A1.6,1.6,0,0,1,209.84,97.8Zm-.06-1.7a5.56,5.56,0,0,1-1.25.29,2.92,2.92,0,0,0-.67.15.66.66,0,0,0-.3.25.68.68,0,0,0,.13.87,1,1,0,0,0,.68.2,1.58,1.58,0,0,0,.78-.19,1.19,1.19,0,0,0,.5-.53,1.84,1.84,0,0,0,.12-.76Z" style="fill:#231f20"/><path d="M213.4,97.68l.11.67a2.79,2.79,0,0,1-.58.07,1.3,1.3,0,0,1-.64-.13.72.72,0,0,1-.32-.35,2.72,2.72,0,0,1-.09-.9V94.45h-.56v-.59h.56V92.74l.76-.46v1.57h.77v.59h-.77v2.63a1.31,1.31,0,0,0,0,.42.32.32,0,0,0,.13.15.51.51,0,0,0,.26.05Z" style="fill:#231f20"/><path d="M217.09,98.36V97.7a1.65,1.65,0,0,1-1.43.76,1.83,1.83,0,0,1-.74-.15,1.22,1.22,0,0,1-.51-.38,1.43,1.43,0,0,1-.24-.57,3.84,3.84,0,0,1,0-.71V93.86h.76v2.5a4.42,4.42,0,0,0,0,.8.8.8,0,0,0,.3.47.94.94,0,0,0,.58.17,1.25,1.25,0,0,0,.64-.18,1,1,0,0,0,.43-.48,2.42,2.42,0,0,0,.13-.88V93.86h.76v4.5Z" style="fill:#231f20"/><path d="M219,98.36v-4.5h.69v.68a1.85,1.85,0,0,1,.49-.63.84.84,0,0,1,.49-.15,1.49,1.49,0,0,1,.78.25l-.26.71a1.09,1.09,0,0,0-.56-.17.73.73,0,0,0-.45.15.81.81,0,0,0-.28.42,2.93,2.93,0,0,0-.13.89v2.36Z" style="fill:#231f20"/><path d="M224.95,96.91l.79.1a1.92,1.92,0,0,1-.69,1.07,2.08,2.08,0,0,1-1.29.38,2.06,2.06,0,0,1-1.57-.61,2.37,2.37,0,0,1-.58-1.71,2.49,2.49,0,0,1,.59-1.76,2,2,0,0,1,1.52-.63,1.92,1.92,0,0,1,1.48.62,2.44,2.44,0,0,1,.57,1.73s0,.11,0,.2H222.4a1.73,1.73,0,0,0,.42,1.14,1.25,1.25,0,0,0,.94.39,1.17,1.17,0,0,0,.72-.22A1.47,1.47,0,0,0,224.95,96.91Zm-2.51-1.23H225a1.52,1.52,0,0,0-.29-.85,1.17,1.17,0,0,0-.95-.44,1.21,1.21,0,0,0-.88.35A1.4,1.4,0,0,0,222.44,95.68Z" style="fill:#231f20"/><path d="M226.39,96.49v-.77h2.34v.77Z" style="fill:#231f20"/><path d="M122.46,110.5v-6.23h.7v.58a1.71,1.71,0,0,1,.56-.52,1.53,1.53,0,0,1,.75-.17,1.78,1.78,0,0,1,1,.3,1.82,1.82,0,0,1,.67.84,3.05,3.05,0,0,1,.22,1.18,3,3,0,0,1-.25,1.24,1.86,1.86,0,0,1-.72.85,1.84,1.84,0,0,1-1,.29,1.44,1.44,0,0,1-.68-.16,1.56,1.56,0,0,1-.5-.41v2.19Zm.69-4a2,2,0,0,0,.35,1.28,1.08,1.08,0,0,0,.85.42,1.1,1.1,0,0,0,.87-.43,2,2,0,0,0,.36-1.33,2,2,0,0,0-.35-1.29,1.07,1.07,0,0,0-.85-.43,1.1,1.1,0,0,0-.86.46A2,2,0,0,0,123.15,106.55Z" style="fill:#231f20"/><path d="M127.28,108.78v-4.5H128V105a1.87,1.87,0,0,1,.49-.63.84.84,0,0,1,.49-.15,1.49,1.49,0,0,1,.78.25l-.26.71a1.09,1.09,0,0,0-.56-.16.73.73,0,0,0-.45.15.82.82,0,0,0-.28.42,3,3,0,0,0-.13.89v2.36Z" style="fill:#231f20"/><path d="M133.26,107.33l.79.1a1.92,1.92,0,0,1-.69,1.07,2.34,2.34,0,0,1-2.86-.23,2.38,2.38,0,0,1-.58-1.71,2.49,2.49,0,0,1,.58-1.76,2,2,0,0,1,1.52-.63,1.92,1.92,0,0,1,1.48.62,2.44,2.44,0,0,1,.57,1.73s0,.11,0,.2h-3.36a1.73,1.73,0,0,0,.42,1.14,1.25,1.25,0,0,0,.94.39,1.17,1.17,0,0,0,.72-.22A1.47,1.47,0,0,0,133.26,107.33Zm-2.51-1.23h2.51a1.52,1.52,0,0,0-.29-.85,1.17,1.17,0,0,0-.95-.44,1.21,1.21,0,0,0-.88.35A1.4,1.4,0,0,0,130.75,106.09Z" style="fill:#231f20"/><path d="M134.7,107.43l.75-.12a1.06,1.06,0,0,0,.35.7,1.24,1.24,0,0,0,.81.24,1.19,1.19,0,0,0,.78-.21.64.64,0,0,0,.25-.5.47.47,0,0,0-.22-.41,3.39,3.39,0,0,0-.78-.26,7,7,0,0,1-1.16-.37,1.11,1.11,0,0,1-.66-1,1.15,1.15,0,0,1,.14-.56,1.23,1.23,0,0,1,.38-.43,1.55,1.55,0,0,1,.49-.22,2.32,2.32,0,0,1,.66-.09,2.59,2.59,0,0,1,.93.15,1.26,1.26,0,0,1,.59.41,1.62,1.62,0,0,1,.26.7l-.75.1a.81.81,0,0,0-.29-.54,1.08,1.08,0,0,0-.69-.2,1.24,1.24,0,0,0-.75.17.51.51,0,0,0-.22.41.42.42,0,0,0,.09.27.68.68,0,0,0,.29.2l.67.19a9.49,9.49,0,0,1,1.13.35,1.15,1.15,0,0,1,.5.4,1.12,1.12,0,0,1,.18.65,1.28,1.28,0,0,1-.22.72,1.44,1.44,0,0,1-.64.52,2.34,2.34,0,0,1-1,.18,2.12,2.12,0,0,1-1.34-.36A1.69,1.69,0,0,1,134.7,107.43Z" style="fill:#231f20"/><path d="M139,107.43l.75-.12a1.05,1.05,0,0,0,.35.7,1.24,1.24,0,0,0,.81.24,1.19,1.19,0,0,0,.78-.21.64.64,0,0,0,.25-.5.47.47,0,0,0-.22-.41,3.36,3.36,0,0,0-.78-.26,7.05,7.05,0,0,1-1.16-.37,1.11,1.11,0,0,1-.66-1,1.16,1.16,0,0,1,.14-.56,1.23,1.23,0,0,1,.38-.43,1.57,1.57,0,0,1,.49-.22,2.31,2.31,0,0,1,.66-.09,2.6,2.6,0,0,1,.93.15,1.26,1.26,0,0,1,.59.41,1.6,1.6,0,0,1,.26.7l-.75.1a.81.81,0,0,0-.29-.54,1.08,1.08,0,0,0-.69-.2,1.25,1.25,0,0,0-.75.17.51.51,0,0,0-.22.41.42.42,0,0,0,.09.27.68.68,0,0,0,.29.2l.67.19a9.51,9.51,0,0,1,1.13.35,1.15,1.15,0,0,1,.5.4,1.12,1.12,0,0,1,.18.65,1.28,1.28,0,0,1-.22.72,1.44,1.44,0,0,1-.64.52,2.33,2.33,0,0,1-.95.18,2.12,2.12,0,0,1-1.34-.36A1.7,1.7,0,0,1,139,107.43Z" style="fill:#231f20"/><path d="M146.64,108.78v-.66a1.65,1.65,0,0,1-1.43.76,1.82,1.82,0,0,1-.74-.15,1.22,1.22,0,0,1-.51-.38,1.44,1.44,0,0,1-.23-.57,3.84,3.84,0,0,1,0-.71v-2.79h.76v2.5a4.41,4.41,0,0,0,0,.8.79.79,0,0,0,.31.47.94.94,0,0,0,.58.17A1.26,1.26,0,0,0,146,108a1,1,0,0,0,.43-.48,2.39,2.39,0,0,0,.13-.88v-2.41h.76v4.5Z" style="fill:#231f20"/><path d="M148.51,108.78v-4.5h.69V105a1.88,1.88,0,0,1,.49-.63.84.84,0,0,1,.49-.15,1.49,1.49,0,0,1,.79.25l-.26.71a1.09,1.09,0,0,0-.56-.16.72.72,0,0,0-.45.15.82.82,0,0,0-.29.42,3,3,0,0,0-.13.89v2.36Z" style="fill:#231f20"/><path d="M154.49,107.33l.79.1a1.92,1.92,0,0,1-.69,1.07,2.34,2.34,0,0,1-2.86-.23,2.38,2.38,0,0,1-.58-1.71,2.49,2.49,0,0,1,.58-1.76,2,2,0,0,1,1.52-.63,1.92,1.92,0,0,1,1.47.62,2.44,2.44,0,0,1,.57,1.73s0,.11,0,.2h-3.36a1.72,1.72,0,0,0,.42,1.14,1.25,1.25,0,0,0,.94.39A1.17,1.17,0,0,0,154,108,1.46,1.46,0,0,0,154.49,107.33Zm-2.5-1.23h2.51a1.54,1.54,0,0,0-.29-.85,1.17,1.17,0,0,0-.95-.44,1.21,1.21,0,0,0-.88.35A1.39,1.39,0,0,0,152,106.09Z" style="fill:#231f20"/><path d="M158.64,108.78v-4.5h.69V105a1.87,1.87,0,0,1,.48-.63.85.85,0,0,1,.49-.15,1.49,1.49,0,0,1,.79.25l-.26.71a1.09,1.09,0,0,0-.56-.16.72.72,0,0,0-.45.15.82.82,0,0,0-.28.42,3,3,0,0,0-.13.89v2.36Z" style="fill:#231f20"/><path d="M164.62,107.33l.79.1a1.93,1.93,0,0,1-.69,1.07,2.34,2.34,0,0,1-2.86-.23,2.38,2.38,0,0,1-.58-1.71,2.49,2.49,0,0,1,.58-1.76,2,2,0,0,1,1.52-.63,1.92,1.92,0,0,1,1.48.62,2.45,2.45,0,0,1,.57,1.73s0,.11,0,.2h-3.36a1.73,1.73,0,0,0,.42,1.14,1.25,1.25,0,0,0,.94.39,1.17,1.17,0,0,0,.72-.22A1.46,1.46,0,0,0,164.62,107.33Zm-2.51-1.23h2.51a1.53,1.53,0,0,0-.29-.85,1.17,1.17,0,0,0-.95-.44,1.21,1.21,0,0,0-.88.35A1.4,1.4,0,0,0,162.12,106.09Z" style="fill:#231f20"/><path d="M166.35,108.78v-6.21h.76v6.21Z" style="fill:#231f20"/><path d="M168.3,103.44v-.88h.76v.88Zm0,5.34v-4.5h.76v4.5Z" style="fill:#231f20"/><path d="M173.31,107.33l.79.1a1.91,1.91,0,0,1-.69,1.07,2.34,2.34,0,0,1-2.86-.23,2.38,2.38,0,0,1-.58-1.71,2.48,2.48,0,0,1,.59-1.76,2,2,0,0,1,1.52-.63,1.92,1.92,0,0,1,1.47.62,2.44,2.44,0,0,1,.57,1.73s0,.11,0,.2h-3.36a1.73,1.73,0,0,0,.42,1.14,1.25,1.25,0,0,0,.94.39,1.18,1.18,0,0,0,.72-.22A1.47,1.47,0,0,0,173.31,107.33Zm-2.5-1.23h2.51a1.53,1.53,0,0,0-.29-.85,1.17,1.17,0,0,0-.95-.44,1.21,1.21,0,0,0-.88.35A1.39,1.39,0,0,0,170.8,106.09Z" style="fill:#231f20"/><path d="M175.24,108.78v-3.91h-.67v-.59h.67v-.48a2.09,2.09,0,0,1,.08-.67,1,1,0,0,1,.39-.48,1.4,1.4,0,0,1,.78-.18,3.74,3.74,0,0,1,.71.08l-.11.67a2.55,2.55,0,0,0-.45,0,.67.67,0,0,0-.49.15.8.8,0,0,0-.14.56v.42h.88v.59H176v3.91Z" style="fill:#231f20"/><path d="M181.13,108.78l-1.71-4.5h.81l1,2.7c.1.29.2.59.29.91q.1-.36.29-.86l1-2.75h.78l-1.7,4.5Z" style="fill:#231f20"/><path d="M187.16,108.22a2.84,2.84,0,0,1-.82.51,2.34,2.34,0,0,1-.84.15,1.64,1.64,0,0,1-1.14-.36,1.2,1.2,0,0,1-.4-.93,1.23,1.23,0,0,1,.15-.6,1.24,1.24,0,0,1,.39-.44,1.86,1.86,0,0,1,.55-.25,5.61,5.61,0,0,1,.68-.11,7,7,0,0,0,1.36-.26c0-.1,0-.17,0-.2a.84.84,0,0,0-.22-.66,1.28,1.28,0,0,0-.87-.26,1.35,1.35,0,0,0-.79.19,1.16,1.16,0,0,0-.38.67l-.75-.1a1.84,1.84,0,0,1,.33-.77,1.48,1.48,0,0,1,.67-.45,3,3,0,0,1,1-.16,2.72,2.72,0,0,1,.94.14,1.24,1.24,0,0,1,.53.34,1.2,1.2,0,0,1,.24.52,4.29,4.29,0,0,1,0,.7v1a10.84,10.84,0,0,0,0,1.35,1.7,1.7,0,0,0,.19.54h-.8A1.64,1.64,0,0,1,187.16,108.22Zm-.06-1.7a5.57,5.57,0,0,1-1.25.29,2.92,2.92,0,0,0-.67.15.66.66,0,0,0-.3.25.67.67,0,0,0,.13.87,1,1,0,0,0,.68.2,1.58,1.58,0,0,0,.78-.19,1.19,1.19,0,0,0,.5-.53,1.84,1.84,0,0,0,.12-.76Z" style="fill:#231f20"/><path d="M189,108.78v-6.21h.76v6.21Z" style="fill:#231f20"/><path d="M192.23,108.78l-1.71-4.5h.81l1,2.7q.16.44.29.91c.07-.24.16-.52.28-.86l1-2.75h.78l-1.7,4.5Z" style="fill:#231f20"/><path d="M198.4,107.33l.79.1a1.92,1.92,0,0,1-.69,1.07,2.34,2.34,0,0,1-2.86-.23,2.38,2.38,0,0,1-.58-1.71,2.48,2.48,0,0,1,.59-1.76,2,2,0,0,1,1.52-.63,1.92,1.92,0,0,1,1.47.62,2.44,2.44,0,0,1,.57,1.73s0,.11,0,.2h-3.36a1.73,1.73,0,0,0,.42,1.14,1.25,1.25,0,0,0,.94.39,1.18,1.18,0,0,0,.72-.22A1.47,1.47,0,0,0,198.4,107.33Zm-2.5-1.23h2.51a1.53,1.53,0,0,0-.29-.85,1.17,1.17,0,0,0-.95-.44,1.21,1.21,0,0,0-.88.35A1.39,1.39,0,0,0,195.9,106.09Z" style="fill:#231f20"/><path d="M202.56,108.78v-4.5h.68v.63a1.61,1.61,0,0,1,.56-.53,1.58,1.58,0,0,1,.8-.2,1.48,1.48,0,0,1,.82.21,1.11,1.11,0,0,1,.45.58,1.62,1.62,0,0,1,1.39-.79,1.37,1.37,0,0,1,1,.37,1.59,1.59,0,0,1,.36,1.14v3.09h-.76v-2.84a2.1,2.1,0,0,0-.07-.66.64.64,0,0,0-.27-.32.84.84,0,0,0-.46-.12,1.06,1.06,0,0,0-.79.32,1.39,1.39,0,0,0-.31,1v2.62h-.76v-2.92a1.29,1.29,0,0,0-.19-.76.71.71,0,0,0-.61-.25,1.11,1.11,0,0,0-.59.17,1,1,0,0,0-.4.5,2.79,2.79,0,0,0-.12.94v2.34Z" style="fill:#231f20"/><path d="M212.74,108.78v-.66a1.65,1.65,0,0,1-1.43.76,1.82,1.82,0,0,1-.74-.15,1.22,1.22,0,0,1-.51-.38,1.43,1.43,0,0,1-.24-.57,3.84,3.84,0,0,1,0-.71v-2.79h.76v2.5a4.42,4.42,0,0,0,0,.8.8.8,0,0,0,.3.47.94.94,0,0,0,.58.17,1.25,1.25,0,0,0,.64-.18,1,1,0,0,0,.43-.48,2.42,2.42,0,0,0,.13-.88v-2.41h.76v4.5Z" style="fill:#231f20"/><path d="M214.32,107.43l.75-.12a1.06,1.06,0,0,0,.35.7,1.23,1.23,0,0,0,.81.24A1.19,1.19,0,0,0,217,108a.64.64,0,0,0,.25-.5.47.47,0,0,0-.22-.41,3.4,3.4,0,0,0-.78-.26,7,7,0,0,1-1.16-.37,1.11,1.11,0,0,1-.66-1,1.15,1.15,0,0,1,.14-.56,1.23,1.23,0,0,1,.38-.43,1.55,1.55,0,0,1,.48-.22,2.32,2.32,0,0,1,.66-.09,2.58,2.58,0,0,1,.93.15,1.26,1.26,0,0,1,.59.41,1.63,1.63,0,0,1,.26.7l-.75.1a.82.82,0,0,0-.29-.54,1.08,1.08,0,0,0-.69-.2,1.24,1.24,0,0,0-.75.17.51.51,0,0,0-.22.41.42.42,0,0,0,.09.27.67.67,0,0,0,.29.2l.67.19a9.39,9.39,0,0,1,1.13.35,1.15,1.15,0,0,1,.5.4,1.12,1.12,0,0,1,.18.65,1.28,1.28,0,0,1-.22.72,1.44,1.44,0,0,1-.64.52,2.34,2.34,0,0,1-1,.18,2.11,2.11,0,0,1-1.34-.36A1.69,1.69,0,0,1,214.32,107.43Z" style="fill:#231f20"/><path d="M220.63,108.1l.11.67a2.79,2.79,0,0,1-.58.07,1.3,1.3,0,0,1-.64-.13.72.72,0,0,1-.32-.35,2.72,2.72,0,0,1-.09-.9v-2.59h-.56v-.59h.56v-1.12l.76-.46v1.57h.77v.59h-.77v2.63a1.31,1.31,0,0,0,0,.42.32.32,0,0,0,.13.15.51.51,0,0,0,.26.05Z" style="fill:#231f20"/><path d="M224.49,108.78h-.71v-6.21h.76v2.22a1.51,1.51,0,0,1,1.23-.61,1.89,1.89,0,0,1,.79.17,1.6,1.6,0,0,1,.61.47,2.29,2.29,0,0,1,.38.73,3,3,0,0,1,.13.92,2.57,2.57,0,0,1-.57,1.79,1.79,1.79,0,0,1-1.37.63,1.43,1.43,0,0,1-1.25-.67Zm0-2.29a2.34,2.34,0,0,0,.22,1.17,1.09,1.09,0,0,0,1.84.16,2,2,0,0,0,.37-1.3,2,2,0,0,0-.35-1.3,1.07,1.07,0,0,0-.85-.42,1.1,1.1,0,0,0-.87.43A1.91,1.91,0,0,0,224.48,106.49Z" style="fill:#231f20"/><path d="M231.7,107.33l.79.1a1.91,1.91,0,0,1-.69,1.07,2.34,2.34,0,0,1-2.86-.23,2.38,2.38,0,0,1-.58-1.71,2.48,2.48,0,0,1,.59-1.76,2,2,0,0,1,1.52-.63,1.92,1.92,0,0,1,1.47.62,2.44,2.44,0,0,1,.57,1.73s0,.11,0,.2h-3.36a1.73,1.73,0,0,0,.42,1.14,1.25,1.25,0,0,0,.94.39,1.18,1.18,0,0,0,.72-.22A1.47,1.47,0,0,0,231.7,107.33Zm-2.5-1.23h2.51a1.53,1.53,0,0,0-.29-.85,1.17,1.17,0,0,0-.95-.44,1.21,1.21,0,0,0-.88.35A1.39,1.39,0,0,0,229.19,106.09Z" style="fill:#231f20"/><path d="M122.46,113.86V113h.76v.88Zm0,5.34v-4.5h.76v4.5Z" style="fill:#231f20"/><path d="M124.38,119.2v-4.5h.69v.64a1.62,1.62,0,0,1,1.43-.74,1.88,1.88,0,0,1,.75.15,1.18,1.18,0,0,1,.51.38,1.47,1.47,0,0,1,.24.56,4.37,4.37,0,0,1,0,.74v2.77h-.76v-2.74a2.05,2.05,0,0,0-.09-.7.74.74,0,0,0-.32-.37,1,1,0,0,0-.53-.14,1.23,1.23,0,0,0-.84.31,1.53,1.53,0,0,0-.35,1.17v2.46Z" style="fill:#231f20"/><path d="M128.91,117.85l.75-.12a1.06,1.06,0,0,0,.35.7,1.23,1.23,0,0,0,.81.24,1.19,1.19,0,0,0,.78-.21.64.64,0,0,0,.25-.5.47.47,0,0,0-.22-.41,3.4,3.4,0,0,0-.78-.26,7,7,0,0,1-1.16-.37,1.11,1.11,0,0,1-.66-1,1.15,1.15,0,0,1,.14-.56,1.23,1.23,0,0,1,.38-.43,1.56,1.56,0,0,1,.49-.22,2.32,2.32,0,0,1,.66-.09,2.59,2.59,0,0,1,.93.15,1.26,1.26,0,0,1,.59.41,1.61,1.61,0,0,1,.26.7l-.75.1a.81.81,0,0,0-.29-.54,1.08,1.08,0,0,0-.69-.2,1.25,1.25,0,0,0-.75.17.51.51,0,0,0-.22.41.42.42,0,0,0,.09.27.67.67,0,0,0,.29.2l.67.19a9.51,9.51,0,0,1,1.13.35,1.15,1.15,0,0,1,.5.4,1.12,1.12,0,0,1,.18.65,1.28,1.28,0,0,1-.22.72,1.44,1.44,0,0,1-.64.52,2.34,2.34,0,0,1-1,.18,2.11,2.11,0,0,1-1.34-.36A1.7,1.7,0,0,1,128.91,117.85Z" style="fill:#231f20"/><path d="M135.22,118.51l.11.67a2.78,2.78,0,0,1-.58.07,1.3,1.3,0,0,1-.64-.13.73.73,0,0,1-.32-.35,2.72,2.72,0,0,1-.09-.9v-2.59h-.56v-.59h.56v-1.12l.76-.46v1.57h.77v.59h-.77v2.63a1.35,1.35,0,0,0,0,.42.32.32,0,0,0,.13.15.5.5,0,0,0,.26.05Z" style="fill:#231f20"/><path d="M138.9,118.64a2.84,2.84,0,0,1-.82.51,2.34,2.34,0,0,1-.84.15,1.64,1.64,0,0,1-1.14-.36,1.2,1.2,0,0,1-.4-.93,1.26,1.26,0,0,1,.54-1,1.86,1.86,0,0,1,.55-.25,5.6,5.6,0,0,1,.68-.11,7,7,0,0,0,1.36-.26c0-.1,0-.17,0-.2a.84.84,0,0,0-.22-.66,1.28,1.28,0,0,0-.87-.26,1.35,1.35,0,0,0-.79.19,1.16,1.16,0,0,0-.38.67l-.75-.1a1.84,1.84,0,0,1,.33-.77,1.48,1.48,0,0,1,.67-.45,3,3,0,0,1,1-.16,2.72,2.72,0,0,1,.94.14,1.24,1.24,0,0,1,.53.34,1.2,1.2,0,0,1,.24.52,4.3,4.3,0,0,1,0,.7v1a10.84,10.84,0,0,0,0,1.35,1.69,1.69,0,0,0,.19.54h-.8A1.64,1.64,0,0,1,138.9,118.64Zm-.06-1.7a5.58,5.58,0,0,1-1.25.29,2.91,2.91,0,0,0-.67.15.66.66,0,0,0-.3.25.67.67,0,0,0,.13.87,1,1,0,0,0,.68.2,1.58,1.58,0,0,0,.78-.19,1.19,1.19,0,0,0,.5-.53,1.84,1.84,0,0,0,.12-.76Z" style="fill:#231f20"/><path d="M140.78,119.2V113h.76v6.21Z" style="fill:#231f20"/><path d="M142.71,119.2V113h.76v6.21Z" style="fill:#231f20"/><path d="M147.73,117.75l.79.1a1.92,1.92,0,0,1-.69,1.07,2.34,2.34,0,0,1-2.86-.23,2.38,2.38,0,0,1-.58-1.71,2.49,2.49,0,0,1,.58-1.76,2,2,0,0,1,1.52-.63,1.92,1.92,0,0,1,1.47.62,2.44,2.44,0,0,1,.57,1.73s0,.11,0,.2h-3.36a1.72,1.72,0,0,0,.42,1.14,1.25,1.25,0,0,0,.94.39,1.17,1.17,0,0,0,.72-.22A1.46,1.46,0,0,0,147.73,117.75Zm-2.5-1.23h2.51a1.54,1.54,0,0,0-.29-.85,1.17,1.17,0,0,0-.95-.44,1.21,1.21,0,0,0-.88.35A1.39,1.39,0,0,0,145.23,116.51Z" style="fill:#231f20"/><path d="M152.4,119.2v-.57a1.4,1.4,0,0,1-1.26.67,1.76,1.76,0,0,1-1-.3,1.94,1.94,0,0,1-.7-.83,2.86,2.86,0,0,1-.25-1.22,3.19,3.19,0,0,1,.22-1.22,1.77,1.77,0,0,1,.67-.84,1.8,1.8,0,0,1,1-.29,1.5,1.5,0,0,1,1.24.62V113h.76v6.21ZM150,117a2,2,0,0,0,.37,1.29,1.1,1.1,0,0,0,.86.43,1.08,1.08,0,0,0,.85-.41,1.89,1.89,0,0,0,.35-1.25,2.12,2.12,0,0,0-.36-1.36,1.1,1.1,0,0,0-.88-.43,1.06,1.06,0,0,0-.85.42A2,2,0,0,0,150,117Z" style="fill:#231f20"/><path d="M156.73,113.86V113h.76v.88Zm0,5.34v-4.5h.76v4.5Z" style="fill:#231f20"/><path d="M158.65,119.2v-4.5h.69v.64a1.62,1.62,0,0,1,1.43-.74,1.87,1.87,0,0,1,.75.15,1.18,1.18,0,0,1,.51.38,1.47,1.47,0,0,1,.24.56,4.25,4.25,0,0,1,0,.74v2.77h-.76v-2.74a2.08,2.08,0,0,0-.09-.7.74.74,0,0,0-.32-.37,1,1,0,0,0-.53-.14,1.23,1.23,0,0,0-.84.31,1.52,1.52,0,0,0-.35,1.17v2.46Z" style="fill:#231f20"/><path d="M165.61,116.95a2.32,2.32,0,0,1,.7-1.85,2.09,2.09,0,0,1,1.42-.5,2,2,0,0,1,1.52.61,2.32,2.32,0,0,1,.59,1.68,3,3,0,0,1-.26,1.37,1.85,1.85,0,0,1-.76.77,2.21,2.21,0,0,1-1.09.28,2,2,0,0,1-1.53-.61A2.42,2.42,0,0,1,165.61,116.95Zm.78,0a1.92,1.92,0,0,0,.38,1.3,1.26,1.26,0,0,0,1.9,0,2,2,0,0,0,.38-1.32,1.87,1.87,0,0,0-.38-1.27,1.26,1.26,0,0,0-1.89,0A1.91,1.91,0,0,0,166.39,116.95Z" style="fill:#231f20"/><path d="M170.72,120.92V114.7h.7v.58a1.7,1.7,0,0,1,.56-.52,1.53,1.53,0,0,1,.75-.17,1.78,1.78,0,0,1,1,.3,1.83,1.83,0,0,1,.67.84,3.06,3.06,0,0,1,.22,1.18,3,3,0,0,1-.25,1.24,1.87,1.87,0,0,1-.72.85,1.84,1.84,0,0,1-1,.29,1.44,1.44,0,0,1-.69-.16,1.58,1.58,0,0,1-.5-.41v2.19Zm.69-4a2,2,0,0,0,.35,1.28,1.08,1.08,0,0,0,.85.42,1.1,1.1,0,0,0,.87-.43,2,2,0,0,0,.36-1.33,2,2,0,0,0-.35-1.29,1.07,1.07,0,0,0-.85-.43,1.1,1.1,0,0,0-.86.45A2,2,0,0,0,171.41,117Z" style="fill:#231f20"/><path d="M178.63,117.75l.79.1a1.92,1.92,0,0,1-.69,1.07,2.08,2.08,0,0,1-1.29.38,2.06,2.06,0,0,1-1.57-.61,2.37,2.37,0,0,1-.58-1.71,2.49,2.49,0,0,1,.59-1.76,2,2,0,0,1,1.52-.63,1.92,1.92,0,0,1,1.48.62,2.44,2.44,0,0,1,.57,1.73s0,.11,0,.2h-3.36a1.73,1.73,0,0,0,.42,1.14,1.25,1.25,0,0,0,.94.39,1.17,1.17,0,0,0,.72-.22A1.47,1.47,0,0,0,178.63,117.75Zm-2.51-1.23h2.51a1.52,1.52,0,0,0-.29-.85,1.17,1.17,0,0,0-.95-.44,1.21,1.21,0,0,0-.88.35A1.4,1.4,0,0,0,176.13,116.51Z" style="fill:#231f20"/><path d="M180.38,119.2v-4.5h.69v.64a1.62,1.62,0,0,1,1.43-.74,1.88,1.88,0,0,1,.75.15,1.18,1.18,0,0,1,.51.38,1.47,1.47,0,0,1,.24.56,4.49,4.49,0,0,1,0,.74v2.77h-.76v-2.74a2,2,0,0,0-.09-.7.73.73,0,0,0-.32-.37,1,1,0,0,0-.53-.14,1.24,1.24,0,0,0-.84.31,1.53,1.53,0,0,0-.35,1.17v2.46Z" style="fill:#231f20"/><path d="M185.21,113.86V113H186v.88Zm0,5.34v-4.5H186v4.5Z" style="fill:#231f20"/><path d="M187.14,119.2v-4.5h.69v.64a1.62,1.62,0,0,1,1.43-.74,1.89,1.89,0,0,1,.75.15,1.18,1.18,0,0,1,.51.38,1.47,1.47,0,0,1,.24.56,4.48,4.48,0,0,1,0,.74v2.77H190v-2.74a2,2,0,0,0-.09-.7.73.73,0,0,0-.32-.37,1,1,0,0,0-.53-.14,1.24,1.24,0,0,0-.84.31,1.53,1.53,0,0,0-.35,1.17v2.46Z" style="fill:#231f20"/><path d="M191.83,119.57l.74.11a.71.71,0,0,0,.26.5,1.27,1.27,0,0,0,.78.21,1.36,1.36,0,0,0,.82-.21,1,1,0,0,0,.39-.59,4.83,4.83,0,0,0,.05-1,1.57,1.57,0,0,1-1.25.59,1.7,1.7,0,0,1-1.44-.67,2.58,2.58,0,0,1-.51-1.61,3,3,0,0,1,.23-1.19,1.87,1.87,0,0,1,.68-.84,1.83,1.83,0,0,1,1-.3,1.61,1.61,0,0,1,1.31.64v-.54h.7v3.89a3.7,3.7,0,0,1-.21,1.49,1.57,1.57,0,0,1-.68.69,2.36,2.36,0,0,1-1.14.25,2.16,2.16,0,0,1-1.3-.36A1.23,1.23,0,0,1,191.83,119.57Zm.63-2.71a2,2,0,0,0,.35,1.29,1.12,1.12,0,0,0,.88.41,1.13,1.13,0,0,0,.88-.4,1.89,1.89,0,0,0,.36-1.27,1.85,1.85,0,0,0-.37-1.25,1.14,1.14,0,0,0-.88-.42,1.1,1.1,0,0,0-.86.41A1.83,1.83,0,0,0,192.46,116.87Z" style="fill:#231f20"/><path d="M199.21,120.92V114.7h.7v.58a1.72,1.72,0,0,1,.55-.52,1.53,1.53,0,0,1,.75-.17,1.79,1.79,0,0,1,1,.3,1.82,1.82,0,0,1,.67.84,3,3,0,0,1,.22,1.18,3,3,0,0,1-.25,1.24,1.89,1.89,0,0,1-1.71,1.14,1.43,1.43,0,0,1-.68-.16,1.54,1.54,0,0,1-.5-.41v2.19Zm.69-4a2,2,0,0,0,.35,1.28,1.08,1.08,0,0,0,.85.42,1.1,1.1,0,0,0,.87-.43,2,2,0,0,0,.36-1.33,2,2,0,0,0-.35-1.29,1.07,1.07,0,0,0-.85-.43,1.1,1.1,0,0,0-.86.45A2,2,0,0,0,199.9,117Z" style="fill:#231f20"/><path d="M204,119.2v-4.5h.69v.68a1.86,1.86,0,0,1,.49-.63.84.84,0,0,1,.49-.15,1.49,1.49,0,0,1,.78.25l-.26.71a1.09,1.09,0,0,0-.56-.17.73.73,0,0,0-.45.15.81.81,0,0,0-.28.42,2.93,2.93,0,0,0-.13.89v2.36Z" style="fill:#231f20"/><path d="M206.64,116.95a2.32,2.32,0,0,1,.7-1.85,2.09,2.09,0,0,1,1.42-.5,2,2,0,0,1,1.52.61,2.32,2.32,0,0,1,.59,1.68,3,3,0,0,1-.26,1.37,1.85,1.85,0,0,1-.76.77,2.21,2.21,0,0,1-1.09.28,2,2,0,0,1-1.53-.61A2.42,2.42,0,0,1,206.64,116.95Zm.79,0a1.92,1.92,0,0,0,.38,1.3,1.26,1.26,0,0,0,1.89,0,2,2,0,0,0,.38-1.32,1.86,1.86,0,0,0-.38-1.27,1.26,1.26,0,0,0-1.89,0A1.9,1.9,0,0,0,207.43,116.95Z" style="fill:#231f20"/><path d="M213,119.2l-1.71-4.5h.81l1,2.7c.1.29.2.59.29.91q.1-.36.29-.86l1-2.75h.78l-1.7,4.5Z" style="fill:#231f20"/><path d="M216.1,113.86V113h.76v.88Zm0,5.34v-4.5h.76v4.5Z" style="fill:#231f20"/><path d="M220.95,119.2v-.57a1.4,1.4,0,0,1-1.26.67,1.77,1.77,0,0,1-1-.3,2,2,0,0,1-.7-.83,2.87,2.87,0,0,1-.25-1.22,3.21,3.21,0,0,1,.22-1.22,1.78,1.78,0,0,1,.67-.84,1.8,1.8,0,0,1,1-.29,1.5,1.5,0,0,1,1.24.62V113h.76v6.21ZM218.54,117a2,2,0,0,0,.36,1.29,1.1,1.1,0,0,0,.86.43,1.08,1.08,0,0,0,.85-.41A1.88,1.88,0,0,0,221,117a2.12,2.12,0,0,0-.36-1.36,1.09,1.09,0,0,0-.88-.43,1.06,1.06,0,0,0-.85.42A2,2,0,0,0,218.54,117Z" style="fill:#231f20"/><path d="M225.94,117.75l.79.1a1.92,1.92,0,0,1-.69,1.07,2.34,2.34,0,0,1-2.86-.23,2.38,2.38,0,0,1-.58-1.71,2.48,2.48,0,0,1,.59-1.76,2,2,0,0,1,1.52-.63,1.92,1.92,0,0,1,1.47.62,2.44,2.44,0,0,1,.57,1.73s0,.11,0,.2h-3.36a1.73,1.73,0,0,0,.42,1.14,1.25,1.25,0,0,0,.94.39,1.18,1.18,0,0,0,.72-.22A1.47,1.47,0,0,0,225.94,117.75Zm-2.5-1.23h2.51a1.53,1.53,0,0,0-.29-.85,1.17,1.17,0,0,0-.95-.44,1.21,1.21,0,0,0-.88.35A1.39,1.39,0,0,0,223.43,116.51Z" style="fill:#231f20"/><path d="M230.6,119.2v-.57a1.4,1.4,0,0,1-1.26.67,1.76,1.76,0,0,1-1-.3,2,2,0,0,1-.7-.83,2.86,2.86,0,0,1-.25-1.22,3.19,3.19,0,0,1,.22-1.22,1.78,1.78,0,0,1,.67-.84,1.8,1.8,0,0,1,1-.29,1.5,1.5,0,0,1,1.24.62V113h.76v6.21ZM228.19,117a2,2,0,0,0,.36,1.29,1.1,1.1,0,0,0,.86.43,1.08,1.08,0,0,0,.85-.41,1.89,1.89,0,0,0,.35-1.25,2.12,2.12,0,0,0-.36-1.36,1.1,1.1,0,0,0-.88-.43,1.06,1.06,0,0,0-.85.42A2.06,2.06,0,0,0,228.19,117Z" style="fill:#231f20"/><path d="M232.73,119.2v-.87h.87v.87Z" style="fill:#231f20"/><path d="M127.18,132.74l.82.21a2.77,2.77,0,0,1-.93,1.55,2.56,2.56,0,0,1-1.64.53,3,3,0,0,1-1.63-.41,2.55,2.55,0,0,1-1-1.19,4.22,4.22,0,0,1-.33-1.67,3.66,3.66,0,0,1,.37-1.69,2.55,2.55,0,0,1,1.06-1.1,3.09,3.09,0,0,1,1.51-.37,2.55,2.55,0,0,1,1.57.47,2.47,2.47,0,0,1,.89,1.34l-.81.19a1.92,1.92,0,0,0-.63-1,1.67,1.67,0,0,0-1-.31,2,2,0,0,0-1.2.34,1.82,1.82,0,0,0-.68.92,3.7,3.7,0,0,0-.2,1.19,3.8,3.8,0,0,0,.23,1.38,1.72,1.72,0,0,0,.72.88,2,2,0,0,0,1.06.29,1.77,1.77,0,0,0,1.17-.4A2,2,0,0,0,127.18,132.74Z" style="fill:#231f20"/><path d="M131.86,134.36a2.84,2.84,0,0,1-.82.51,2.34,2.34,0,0,1-.84.15,1.64,1.64,0,0,1-1.14-.36,1.2,1.2,0,0,1-.4-.93,1.25,1.25,0,0,1,.54-1,1.86,1.86,0,0,1,.55-.25,5.62,5.62,0,0,1,.68-.11,7,7,0,0,0,1.36-.26c0-.1,0-.17,0-.2a.84.84,0,0,0-.22-.66,1.28,1.28,0,0,0-.87-.26,1.35,1.35,0,0,0-.79.19,1.15,1.15,0,0,0-.38.67l-.75-.1a1.84,1.84,0,0,1,.33-.77,1.47,1.47,0,0,1,.67-.45,3,3,0,0,1,1-.16,2.72,2.72,0,0,1,.94.14,1.24,1.24,0,0,1,.53.34,1.2,1.2,0,0,1,.24.52,4.29,4.29,0,0,1,0,.7v1a10.81,10.81,0,0,0,0,1.35,1.69,1.69,0,0,0,.19.54H132A1.64,1.64,0,0,1,131.86,134.36Zm-.06-1.7a5.57,5.57,0,0,1-1.25.29,2.91,2.91,0,0,0-.67.15.66.66,0,0,0-.3.25.67.67,0,0,0,.13.87,1,1,0,0,0,.68.2,1.58,1.58,0,0,0,.78-.19,1.19,1.19,0,0,0,.5-.53,1.84,1.84,0,0,0,.12-.76Z" style="fill:#231f20"/><path d="M133.75,134.92v-4.5h.69v.64a1.62,1.62,0,0,1,1.43-.74,1.88,1.88,0,0,1,.75.15,1.18,1.18,0,0,1,.51.38,1.47,1.47,0,0,1,.24.56,4.48,4.48,0,0,1,0,.74v2.77h-.76v-2.74a2,2,0,0,0-.09-.7.73.73,0,0,0-.32-.37,1,1,0,0,0-.53-.14,1.24,1.24,0,0,0-.84.31,1.53,1.53,0,0,0-.35,1.17v2.46Z" style="fill:#231f20"/><path d="M141,134.92v-4.5h.69v.68a1.87,1.87,0,0,1,.48-.63.85.85,0,0,1,.49-.15,1.49,1.49,0,0,1,.79.25l-.26.71a1.09,1.09,0,0,0-.56-.16.72.72,0,0,0-.45.15.82.82,0,0,0-.28.42,3,3,0,0,0-.13.89v2.36Z" style="fill:#231f20"/><path d="M147,133.47l.79.1a1.93,1.93,0,0,1-.69,1.07,2.34,2.34,0,0,1-2.86-.23,2.38,2.38,0,0,1-.58-1.71,2.49,2.49,0,0,1,.58-1.76,2,2,0,0,1,1.52-.63,1.92,1.92,0,0,1,1.48.62,2.45,2.45,0,0,1,.57,1.73s0,.11,0,.2h-3.36a1.73,1.73,0,0,0,.42,1.14,1.25,1.25,0,0,0,.94.39,1.17,1.17,0,0,0,.72-.22A1.46,1.46,0,0,0,147,133.47Zm-2.51-1.23H147a1.53,1.53,0,0,0-.29-.85,1.17,1.17,0,0,0-.95-.44,1.21,1.21,0,0,0-.88.35A1.4,1.4,0,0,0,144.46,132.24Z" style="fill:#231f20"/><path d="M148.4,133.58l.75-.12a1.06,1.06,0,0,0,.35.7,1.23,1.23,0,0,0,.81.24,1.19,1.19,0,0,0,.78-.21.64.64,0,0,0,.25-.5.47.47,0,0,0-.22-.41,3.4,3.4,0,0,0-.78-.26,7,7,0,0,1-1.16-.37,1.11,1.11,0,0,1-.66-1,1.15,1.15,0,0,1,.14-.56,1.23,1.23,0,0,1,.38-.43,1.55,1.55,0,0,1,.48-.22,2.32,2.32,0,0,1,.66-.09,2.58,2.58,0,0,1,.93.15,1.26,1.26,0,0,1,.59.41,1.63,1.63,0,0,1,.26.7l-.75.1a.82.82,0,0,0-.29-.54,1.08,1.08,0,0,0-.69-.2,1.24,1.24,0,0,0-.75.17.51.51,0,0,0-.22.41.42.42,0,0,0,.09.27.67.67,0,0,0,.29.2l.67.19a9.4,9.4,0,0,1,1.13.35,1.15,1.15,0,0,1,.5.4,1.12,1.12,0,0,1,.18.65,1.28,1.28,0,0,1-.22.72,1.44,1.44,0,0,1-.64.52,2.34,2.34,0,0,1-1,.18,2.11,2.11,0,0,1-1.34-.36A1.69,1.69,0,0,1,148.4,133.58Z" style="fill:#231f20"/><path d="M156,134.92v-.66a1.65,1.65,0,0,1-1.43.76,1.82,1.82,0,0,1-.74-.15,1.22,1.22,0,0,1-.51-.38,1.43,1.43,0,0,1-.24-.57,3.84,3.84,0,0,1,0-.71v-2.79h.76v2.5a4.41,4.41,0,0,0,0,.8.8.8,0,0,0,.3.47.94.94,0,0,0,.58.17,1.25,1.25,0,0,0,.64-.18,1,1,0,0,0,.43-.48,2.42,2.42,0,0,0,.13-.88v-2.41h.76v4.5Z" style="fill:#231f20"/><path d="M157.86,134.92v-6.21h.76v6.21Z" style="fill:#231f20"/><path d="M161.47,134.24l.11.67a2.79,2.79,0,0,1-.58.07,1.3,1.3,0,0,1-.64-.13.72.72,0,0,1-.32-.35,2.72,2.72,0,0,1-.09-.9V131h-.56v-.59h.56V129.3l.76-.46v1.57h.77V131h-.77v2.63a1.31,1.31,0,0,0,0,.42.32.32,0,0,0,.13.15.51.51,0,0,0,.26.05Z" style="fill:#231f20"/><path d="M164.64,129.58v-.88h.76v.88Zm0,5.34v-4.5h.76v4.5Z" style="fill:#231f20"/><path d="M166.56,134.92v-4.5h.69v.64a1.62,1.62,0,0,1,1.43-.74,1.87,1.87,0,0,1,.75.15,1.18,1.18,0,0,1,.51.38,1.47,1.47,0,0,1,.24.56,4.25,4.25,0,0,1,0,.74v2.77h-.76v-2.74a2.08,2.08,0,0,0-.09-.7.74.74,0,0,0-.32-.37,1,1,0,0,0-.53-.14,1.23,1.23,0,0,0-.84.31,1.52,1.52,0,0,0-.35,1.17v2.46Z" style="fill:#231f20"/><path d="M173.52,132.67a2.32,2.32,0,0,1,.7-1.85,2.09,2.09,0,0,1,1.42-.5,2,2,0,0,1,1.52.61,2.32,2.32,0,0,1,.59,1.68,3,3,0,0,1-.26,1.37,1.85,1.85,0,0,1-.76.77,2.21,2.21,0,0,1-1.09.28,2,2,0,0,1-1.53-.61A2.42,2.42,0,0,1,173.52,132.67Zm.78,0a1.92,1.92,0,0,0,.38,1.29,1.26,1.26,0,0,0,1.9,0,2,2,0,0,0,.38-1.32,1.87,1.87,0,0,0-.38-1.27,1.26,1.26,0,0,0-1.89,0A1.91,1.91,0,0,0,174.3,132.67Z" style="fill:#231f20"/><path d="M179.88,134.92l-1.71-4.5h.8l1,2.7c.11.29.2.59.29.91.07-.24.16-.52.28-.86l1-2.75h.78l-1.7,4.5Z" style="fill:#231f20"/><path d="M186.05,133.47l.79.1a1.92,1.92,0,0,1-.69,1.07,2.34,2.34,0,0,1-2.86-.23,2.38,2.38,0,0,1-.58-1.71,2.49,2.49,0,0,1,.58-1.76,2,2,0,0,1,1.52-.63,1.92,1.92,0,0,1,1.47.62,2.44,2.44,0,0,1,.57,1.73s0,.11,0,.2h-3.36a1.72,1.72,0,0,0,.42,1.14,1.25,1.25,0,0,0,.94.39,1.17,1.17,0,0,0,.72-.22A1.46,1.46,0,0,0,186.05,133.47Zm-2.5-1.23h2.51a1.54,1.54,0,0,0-.29-.85,1.17,1.17,0,0,0-.95-.44,1.21,1.21,0,0,0-.88.35A1.39,1.39,0,0,0,183.55,132.24Z" style="fill:#231f20"/><path d="M187.79,134.92v-4.5h.69v.68a1.87,1.87,0,0,1,.48-.63.85.85,0,0,1,.49-.15,1.49,1.49,0,0,1,.79.25l-.26.71a1.09,1.09,0,0,0-.56-.16.72.72,0,0,0-.45.15.82.82,0,0,0-.28.42,3,3,0,0,0-.13.89v2.36Z" style="fill:#231f20"/><path d="M190.69,134.92v-6.21h.76v2.23a1.7,1.7,0,0,1,1.35-.62,1.82,1.82,0,0,1,.87.2,1.16,1.16,0,0,1,.53.54,2.5,2.5,0,0,1,.16,1v2.85h-.76v-2.85a1.18,1.18,0,0,0-.25-.83.92.92,0,0,0-.7-.26,1.24,1.24,0,0,0-.64.18,1,1,0,0,0-.43.48,2.19,2.19,0,0,0-.13.83v2.46Z" style="fill:#231f20"/><path d="M198.6,133.47l.79.1a1.92,1.92,0,0,1-.69,1.07,2.34,2.34,0,0,1-2.86-.23,2.38,2.38,0,0,1-.58-1.71,2.49,2.49,0,0,1,.58-1.76,2,2,0,0,1,1.52-.63,1.92,1.92,0,0,1,1.47.62,2.44,2.44,0,0,1,.57,1.73s0,.11,0,.2h-3.36a1.72,1.72,0,0,0,.42,1.14,1.25,1.25,0,0,0,.94.39,1.17,1.17,0,0,0,.72-.22A1.46,1.46,0,0,0,198.6,133.47Zm-2.5-1.23h2.51a1.54,1.54,0,0,0-.29-.85,1.17,1.17,0,0,0-.95-.44,1.21,1.21,0,0,0-.88.35A1.39,1.39,0,0,0,196.1,132.24Z" style="fill:#231f20"/><path d="M203.29,134.36a2.84,2.84,0,0,1-.82.51,2.35,2.35,0,0,1-.84.15,1.64,1.64,0,0,1-1.14-.36,1.2,1.2,0,0,1-.4-.93,1.25,1.25,0,0,1,.54-1,1.85,1.85,0,0,1,.55-.25,5.67,5.67,0,0,1,.68-.11,7,7,0,0,0,1.36-.26c0-.1,0-.17,0-.2a.85.85,0,0,0-.22-.66,1.28,1.28,0,0,0-.87-.26,1.35,1.35,0,0,0-.79.19,1.15,1.15,0,0,0-.38.67l-.75-.1a1.83,1.83,0,0,1,.34-.77,1.47,1.47,0,0,1,.67-.45,3,3,0,0,1,1-.16,2.72,2.72,0,0,1,.94.14,1.23,1.23,0,0,1,.53.34,1.2,1.2,0,0,1,.24.52,4.33,4.33,0,0,1,0,.7v1a10.84,10.84,0,0,0,0,1.35,1.72,1.72,0,0,0,.19.54h-.8A1.59,1.59,0,0,1,203.29,134.36Zm-.06-1.7a5.56,5.56,0,0,1-1.25.29,2.93,2.93,0,0,0-.67.15.66.66,0,0,0-.3.25.68.68,0,0,0,.13.87,1,1,0,0,0,.68.2,1.58,1.58,0,0,0,.78-.19,1.19,1.19,0,0,0,.5-.53,1.84,1.84,0,0,0,.12-.76Z" style="fill:#231f20"/><path d="M206.85,134.24l.11.67a2.79,2.79,0,0,1-.58.07,1.3,1.3,0,0,1-.64-.13.72.72,0,0,1-.32-.35,2.72,2.72,0,0,1-.09-.9V131h-.56v-.59h.56V129.3l.76-.46v1.57h.77V131h-.77v2.63a1.31,1.31,0,0,0,0,.42.32.32,0,0,0,.13.15.51.51,0,0,0,.26.05Z" style="fill:#231f20"/><path d="M207.6,129.58v-.88h.76v.88Zm0,5.34v-4.5h.76v4.5Z" style="fill:#231f20"/><path d="M209.52,134.92v-4.5h.69v.64a1.62,1.62,0,0,1,1.43-.74,1.87,1.87,0,0,1,.75.15,1.18,1.18,0,0,1,.51.38,1.47,1.47,0,0,1,.24.56,4.25,4.25,0,0,1,0,.74v2.77h-.76v-2.74a2.08,2.08,0,0,0-.09-.7.74.74,0,0,0-.32-.37,1,1,0,0,0-.53-.14,1.23,1.23,0,0,0-.84.31,1.52,1.52,0,0,0-.35,1.17v2.46Z" style="fill:#231f20"/><path d="M214.21,135.29l.74.11a.7.7,0,0,0,.26.5,1.26,1.26,0,0,0,.78.21,1.36,1.36,0,0,0,.82-.21,1,1,0,0,0,.39-.59,4.87,4.87,0,0,0,.06-1,1.57,1.57,0,0,1-1.25.59,1.7,1.7,0,0,1-1.44-.67,2.58,2.58,0,0,1-.51-1.61,3,3,0,0,1,.23-1.19,1.86,1.86,0,0,1,.68-.84,1.83,1.83,0,0,1,1-.3,1.62,1.62,0,0,1,1.31.64v-.54h.7v3.89a3.67,3.67,0,0,1-.21,1.49,1.57,1.57,0,0,1-.68.69,2.36,2.36,0,0,1-1.14.25,2.15,2.15,0,0,1-1.3-.36A1.22,1.22,0,0,1,214.21,135.29Zm.63-2.71a2,2,0,0,0,.35,1.29,1.12,1.12,0,0,0,.88.41,1.13,1.13,0,0,0,.88-.4,1.89,1.89,0,0,0,.36-1.27,1.84,1.84,0,0,0-.37-1.25,1.14,1.14,0,0,0-.88-.42,1.1,1.1,0,0,0-.87.41A1.84,1.84,0,0,0,214.84,132.59Z" style="fill:#231f20"/><path d="M224.53,134.36a2.84,2.84,0,0,1-.82.51,2.35,2.35,0,0,1-.84.15,1.64,1.64,0,0,1-1.14-.36,1.2,1.2,0,0,1-.4-.93,1.25,1.25,0,0,1,.55-1,1.85,1.85,0,0,1,.55-.25,5.67,5.67,0,0,1,.68-.11,7,7,0,0,0,1.36-.26c0-.1,0-.17,0-.2a.84.84,0,0,0-.22-.66,1.28,1.28,0,0,0-.87-.26,1.35,1.35,0,0,0-.79.19,1.15,1.15,0,0,0-.38.67l-.75-.1a1.83,1.83,0,0,1,.33-.77,1.47,1.47,0,0,1,.67-.45,3,3,0,0,1,1-.16,2.72,2.72,0,0,1,.94.14,1.23,1.23,0,0,1,.53.34,1.2,1.2,0,0,1,.24.52,4.33,4.33,0,0,1,0,.7v1a10.81,10.81,0,0,0,0,1.35,1.72,1.72,0,0,0,.19.54h-.8A1.6,1.6,0,0,1,224.53,134.36Zm-.06-1.7a5.56,5.56,0,0,1-1.25.29,2.93,2.93,0,0,0-.67.15.66.66,0,0,0-.3.25.68.68,0,0,0,.13.87,1,1,0,0,0,.68.2,1.58,1.58,0,0,0,.78-.19,1.19,1.19,0,0,0,.5-.53,1.84,1.84,0,0,0,.12-.76Z" style="fill:#231f20"/><path d="M226.42,134.92v-4.5h.69v.64a1.62,1.62,0,0,1,1.43-.74,1.87,1.87,0,0,1,.75.15,1.18,1.18,0,0,1,.51.38,1.47,1.47,0,0,1,.24.56,4.25,4.25,0,0,1,0,.74v2.77h-.76v-2.74a2.08,2.08,0,0,0-.09-.7.74.74,0,0,0-.32-.37,1,1,0,0,0-.53-.14,1.23,1.23,0,0,0-.84.31,1.52,1.52,0,0,0-.35,1.17v2.46Z" style="fill:#231f20"/><path d="M234.17,134.92v-.57a1.4,1.4,0,0,1-1.26.67,1.76,1.76,0,0,1-1-.3,2,2,0,0,1-.7-.83,2.86,2.86,0,0,1-.25-1.22,3.19,3.19,0,0,1,.22-1.22,1.78,1.78,0,0,1,.67-.84,1.8,1.8,0,0,1,1-.29,1.5,1.5,0,0,1,1.24.62v-2.23h.76v6.21Zm-2.41-2.25a2,2,0,0,0,.36,1.29,1.1,1.1,0,0,0,.86.43,1.08,1.08,0,0,0,.85-.41,1.89,1.89,0,0,0,.35-1.25,2.12,2.12,0,0,0-.36-1.36,1.1,1.1,0,0,0-.88-.43,1.06,1.06,0,0,0-.85.42A2.06,2.06,0,0,0,231.76,132.67Z" style="fill:#231f20"/><path d="M125.73,143.89l.79.1a1.92,1.92,0,0,1-.69,1.07,2.34,2.34,0,0,1-2.86-.23,2.38,2.38,0,0,1-.58-1.71,2.49,2.49,0,0,1,.59-1.76,2,2,0,0,1,1.52-.63,1.92,1.92,0,0,1,1.48.62,2.44,2.44,0,0,1,.57,1.73s0,.11,0,.2h-3.36a1.73,1.73,0,0,0,.42,1.14,1.25,1.25,0,0,0,.94.39,1.17,1.17,0,0,0,.72-.22A1.46,1.46,0,0,0,125.73,143.89Zm-2.51-1.23h2.51a1.53,1.53,0,0,0-.29-.85,1.17,1.17,0,0,0-.95-.44,1.21,1.21,0,0,0-.88.35A1.39,1.39,0,0,0,123.23,142.66Z" style="fill:#231f20"/><path d="M127,145.34l1.65-2.34-1.52-2.16h1l.69,1.06.31.5.34-.5.76-1.06h.91L129.51,143l1.67,2.38h-.94l-.92-1.4-.25-.38-1.18,1.78Z" style="fill:#231f20"/><path d="M134.76,143.69l.75.1a2,2,0,0,1-.63,1.21,1.84,1.84,0,0,1-1.25.44,1.93,1.93,0,0,1-1.49-.6,2.45,2.45,0,0,1-.56-1.73,3.14,3.14,0,0,1,.24-1.28,1.68,1.68,0,0,1,.74-.82,2.19,2.19,0,0,1,1.08-.27,1.87,1.87,0,0,1,1.2.37,1.71,1.71,0,0,1,.6,1.05l-.74.11a1.23,1.23,0,0,0-.37-.68,1,1,0,0,0-.65-.23,1.19,1.19,0,0,0-.94.41,2,2,0,0,0-.36,1.31,2,2,0,0,0,.35,1.32,1.13,1.13,0,0,0,.91.41,1.07,1.07,0,0,0,.75-.28A1.38,1.38,0,0,0,134.76,143.69Z" style="fill:#231f20"/><path d="M139.24,143.89l.79.1a1.92,1.92,0,0,1-.69,1.07,2.34,2.34,0,0,1-2.86-.23,2.38,2.38,0,0,1-.58-1.71,2.49,2.49,0,0,1,.58-1.76,2,2,0,0,1,1.52-.63,1.92,1.92,0,0,1,1.47.62,2.44,2.44,0,0,1,.57,1.73s0,.11,0,.2H136.7a1.72,1.72,0,0,0,.42,1.14,1.25,1.25,0,0,0,.94.39,1.17,1.17,0,0,0,.72-.22A1.46,1.46,0,0,0,139.24,143.89Zm-2.5-1.23h2.51a1.54,1.54,0,0,0-.29-.85,1.17,1.17,0,0,0-.95-.44,1.21,1.21,0,0,0-.88.35A1.39,1.39,0,0,0,136.74,142.66Z" style="fill:#231f20"/><path d="M140.68,144l.75-.12a1.05,1.05,0,0,0,.35.7,1.23,1.23,0,0,0,.81.24,1.19,1.19,0,0,0,.78-.21.64.64,0,0,0,.25-.5.46.46,0,0,0-.22-.41,3.37,3.37,0,0,0-.78-.26,7,7,0,0,1-1.16-.37,1.11,1.11,0,0,1-.66-1,1.16,1.16,0,0,1,.14-.56,1.23,1.23,0,0,1,.38-.43,1.57,1.57,0,0,1,.49-.22,2.32,2.32,0,0,1,.66-.09,2.58,2.58,0,0,1,.93.15,1.26,1.26,0,0,1,.59.41,1.62,1.62,0,0,1,.26.7l-.75.1a.82.82,0,0,0-.29-.54,1.08,1.08,0,0,0-.69-.2,1.25,1.25,0,0,0-.75.17.51.51,0,0,0-.22.41.42.42,0,0,0,.09.27.67.67,0,0,0,.29.2l.67.19a9.43,9.43,0,0,1,1.13.35,1.15,1.15,0,0,1,.5.4,1.12,1.12,0,0,1,.18.65,1.28,1.28,0,0,1-.22.72,1.44,1.44,0,0,1-.64.52,2.33,2.33,0,0,1-.95.18,2.11,2.11,0,0,1-1.34-.36A1.7,1.7,0,0,1,140.68,144Z" style="fill:#231f20"/><path d="M145,144l.75-.12a1.06,1.06,0,0,0,.35.7,1.23,1.23,0,0,0,.81.24,1.19,1.19,0,0,0,.78-.21.64.64,0,0,0,.25-.5.47.47,0,0,0-.22-.41,3.4,3.4,0,0,0-.78-.26,7,7,0,0,1-1.16-.37,1.11,1.11,0,0,1-.66-1,1.15,1.15,0,0,1,.14-.56,1.23,1.23,0,0,1,.38-.43,1.55,1.55,0,0,1,.48-.22,2.33,2.33,0,0,1,.66-.09,2.58,2.58,0,0,1,.93.15,1.26,1.26,0,0,1,.59.41,1.63,1.63,0,0,1,.26.7l-.75.1a.82.82,0,0,0-.29-.54,1.08,1.08,0,0,0-.69-.2,1.24,1.24,0,0,0-.75.17.51.51,0,0,0-.22.41.42.42,0,0,0,.09.27.67.67,0,0,0,.29.2l.67.19a9.4,9.4,0,0,1,1.13.35,1.15,1.15,0,0,1,.5.4,1.12,1.12,0,0,1,.18.65,1.28,1.28,0,0,1-.22.72,1.44,1.44,0,0,1-.64.52,2.34,2.34,0,0,1-1,.18,2.11,2.11,0,0,1-1.34-.36A1.69,1.69,0,0,1,145,144Z" style="fill:#231f20"/><path d="M149.68,140v-.88h.76V140Zm0,5.34v-4.5h.76v4.5Z" style="fill:#231f20"/><path d="M152.85,145.34l-1.71-4.5h.81l1,2.7c.1.29.2.59.29.91.07-.24.16-.52.28-.86l1-2.75h.78l-1.7,4.5Z" style="fill:#231f20"/><path d="M159,143.89l.79.1a1.92,1.92,0,0,1-.69,1.07,2.34,2.34,0,0,1-2.86-.23,2.38,2.38,0,0,1-.58-1.71,2.48,2.48,0,0,1,.59-1.76,2,2,0,0,1,1.52-.63,1.92,1.92,0,0,1,1.47.62,2.44,2.44,0,0,1,.57,1.73s0,.11,0,.2h-3.36a1.73,1.73,0,0,0,.42,1.14,1.25,1.25,0,0,0,.94.39,1.18,1.18,0,0,0,.72-.22A1.47,1.47,0,0,0,159,143.89Zm-2.5-1.23H159a1.53,1.53,0,0,0-.29-.85,1.17,1.17,0,0,0-.95-.44,1.21,1.21,0,0,0-.88.35A1.39,1.39,0,0,0,156.52,142.66Z" style="fill:#231f20"/><path d="M164.85,144.66l.11.67a2.78,2.78,0,0,1-.58.07,1.3,1.3,0,0,1-.64-.13.73.73,0,0,1-.32-.35,2.72,2.72,0,0,1-.09-.9v-2.59h-.56v-.59h.56v-1.12l.76-.46v1.57h.77v.59h-.77v2.63a1.35,1.35,0,0,0,0,.42.32.32,0,0,0,.13.15.5.5,0,0,0,.26.05Z" style="fill:#231f20"/><path d="M168.53,144.78a2.84,2.84,0,0,1-.82.51,2.35,2.35,0,0,1-.84.15,1.64,1.64,0,0,1-1.14-.36,1.2,1.2,0,0,1-.4-.93,1.26,1.26,0,0,1,.54-1,1.86,1.86,0,0,1,.55-.25,5.55,5.55,0,0,1,.68-.11,7,7,0,0,0,1.36-.26c0-.1,0-.17,0-.2a.84.84,0,0,0-.22-.66,1.28,1.28,0,0,0-.87-.26,1.36,1.36,0,0,0-.79.19,1.16,1.16,0,0,0-.38.67l-.75-.1a1.85,1.85,0,0,1,.33-.77,1.47,1.47,0,0,1,.67-.45,3,3,0,0,1,1-.16,2.71,2.71,0,0,1,.94.14,1.24,1.24,0,0,1,.53.34,1.2,1.2,0,0,1,.24.52,4.26,4.26,0,0,1,0,.7v1a10.63,10.63,0,0,0,0,1.35,1.65,1.65,0,0,0,.19.54h-.8A1.64,1.64,0,0,1,168.53,144.78Zm-.06-1.7a5.61,5.61,0,0,1-1.25.29,2.88,2.88,0,0,0-.67.15.65.65,0,0,0-.3.25.67.67,0,0,0,.13.87,1,1,0,0,0,.68.2,1.58,1.58,0,0,0,.78-.19,1.19,1.19,0,0,0,.5-.53,1.84,1.84,0,0,0,.12-.76Z" style="fill:#231f20"/><path d="M170.42,145.34v-4.5h.69v.64a1.62,1.62,0,0,1,1.43-.74,1.89,1.89,0,0,1,.75.15,1.18,1.18,0,0,1,.51.38,1.47,1.47,0,0,1,.24.56,4.48,4.48,0,0,1,0,.74v2.77h-.76V142.6a2,2,0,0,0-.09-.7.73.73,0,0,0-.32-.37,1,1,0,0,0-.53-.14,1.24,1.24,0,0,0-.84.31,1.53,1.53,0,0,0-.35,1.17v2.46Z" style="fill:#231f20"/><path d="M175.26,145.34v-6.21H176v3.54l1.81-1.83h1l-1.72,1.67,1.9,2.83H178l-1.49-2.3-.54.52v1.79Z" style="fill:#231f20"/><path d="M182,147.06v-6.23h.7v.58a1.71,1.71,0,0,1,.56-.52,1.53,1.53,0,0,1,.75-.17,1.79,1.79,0,0,1,1,.3,1.83,1.83,0,0,1,.67.84,3.06,3.06,0,0,1,.22,1.18,3,3,0,0,1-.25,1.24,1.89,1.89,0,0,1-1.71,1.14,1.43,1.43,0,0,1-.68-.16,1.56,1.56,0,0,1-.5-.41v2.19Zm.69-4a2,2,0,0,0,.35,1.28,1.08,1.08,0,0,0,.85.42,1.1,1.1,0,0,0,.87-.43,2,2,0,0,0,.36-1.33,2,2,0,0,0-.35-1.29,1.07,1.07,0,0,0-.85-.43,1.1,1.1,0,0,0-.86.46A2,2,0,0,0,182.7,143.11Z" style="fill:#231f20"/><path d="M186.83,145.34v-4.5h.69v.68a1.88,1.88,0,0,1,.49-.63.84.84,0,0,1,.49-.15,1.49,1.49,0,0,1,.79.25l-.26.71a1.09,1.09,0,0,0-.56-.16.72.72,0,0,0-.45.15.82.82,0,0,0-.29.42,3,3,0,0,0-.13.89v2.36Z" style="fill:#231f20"/><path d="M192.81,143.89l.79.1a1.93,1.93,0,0,1-.69,1.07,2.34,2.34,0,0,1-2.86-.23,2.38,2.38,0,0,1-.58-1.71,2.49,2.49,0,0,1,.58-1.76,2,2,0,0,1,1.52-.63,1.92,1.92,0,0,1,1.48.62,2.45,2.45,0,0,1,.57,1.73s0,.11,0,.2h-3.36a1.73,1.73,0,0,0,.42,1.14,1.25,1.25,0,0,0,.94.39,1.17,1.17,0,0,0,.72-.22A1.46,1.46,0,0,0,192.81,143.89Zm-2.51-1.23h2.51a1.53,1.53,0,0,0-.29-.85,1.17,1.17,0,0,0-.95-.44,1.21,1.21,0,0,0-.88.35A1.4,1.4,0,0,0,190.3,142.66Z" style="fill:#231f20"/><path d="M194.25,144l.75-.12a1.05,1.05,0,0,0,.35.7,1.23,1.23,0,0,0,.81.24,1.19,1.19,0,0,0,.78-.21.64.64,0,0,0,.25-.5.46.46,0,0,0-.22-.41,3.37,3.37,0,0,0-.78-.26,7,7,0,0,1-1.16-.37,1.11,1.11,0,0,1-.66-1,1.16,1.16,0,0,1,.14-.56,1.23,1.23,0,0,1,.38-.43,1.57,1.57,0,0,1,.49-.22,2.32,2.32,0,0,1,.66-.09,2.58,2.58,0,0,1,.93.15,1.26,1.26,0,0,1,.59.41,1.62,1.62,0,0,1,.26.7l-.75.1a.82.82,0,0,0-.29-.54,1.08,1.08,0,0,0-.69-.2,1.25,1.25,0,0,0-.75.17.51.51,0,0,0-.22.41.42.42,0,0,0,.09.27.67.67,0,0,0,.29.2l.67.19a9.43,9.43,0,0,1,1.13.35,1.15,1.15,0,0,1,.5.4,1.12,1.12,0,0,1,.18.65,1.28,1.28,0,0,1-.22.72,1.44,1.44,0,0,1-.64.52,2.33,2.33,0,0,1-.95.18,2.11,2.11,0,0,1-1.34-.36A1.7,1.7,0,0,1,194.25,144Z" style="fill:#231f20"/><path d="M198.59,144l.75-.12a1.06,1.06,0,0,0,.35.7,1.24,1.24,0,0,0,.81.24,1.19,1.19,0,0,0,.78-.21.64.64,0,0,0,.25-.5.47.47,0,0,0-.22-.41,3.4,3.4,0,0,0-.78-.26,7,7,0,0,1-1.16-.37,1.11,1.11,0,0,1-.66-1,1.15,1.15,0,0,1,.14-.56,1.23,1.23,0,0,1,.38-.43,1.55,1.55,0,0,1,.49-.22,2.32,2.32,0,0,1,.66-.09,2.59,2.59,0,0,1,.93.15,1.26,1.26,0,0,1,.59.41,1.61,1.61,0,0,1,.26.7l-.75.1a.81.81,0,0,0-.29-.54,1.08,1.08,0,0,0-.69-.2,1.24,1.24,0,0,0-.75.17.51.51,0,0,0-.22.41.42.42,0,0,0,.09.27.68.68,0,0,0,.29.2l.67.19a9.49,9.49,0,0,1,1.13.35,1.15,1.15,0,0,1,.5.4,1.12,1.12,0,0,1,.18.65,1.28,1.28,0,0,1-.22.72,1.44,1.44,0,0,1-.64.52,2.34,2.34,0,0,1-1,.18,2.11,2.11,0,0,1-1.34-.36A1.69,1.69,0,0,1,198.59,144Z" style="fill:#231f20"/><path d="M206.19,145.34v-.66a1.65,1.65,0,0,1-1.43.76,1.82,1.82,0,0,1-.74-.15,1.22,1.22,0,0,1-.51-.38,1.43,1.43,0,0,1-.24-.57,3.84,3.84,0,0,1,0-.71v-2.79H204v2.5a4.41,4.41,0,0,0,0,.8.79.79,0,0,0,.3.47.94.94,0,0,0,.58.17,1.26,1.26,0,0,0,.64-.18,1,1,0,0,0,.43-.48,2.39,2.39,0,0,0,.13-.88v-2.41h.76v4.5Z" style="fill:#231f20"/><path d="M208.06,145.34v-4.5h.69v.68a1.85,1.85,0,0,1,.49-.63.84.84,0,0,1,.49-.15,1.49,1.49,0,0,1,.78.25l-.26.71a1.09,1.09,0,0,0-.56-.16.73.73,0,0,0-.45.15.81.81,0,0,0-.28.42,2.93,2.93,0,0,0-.13.89v2.36Z" style="fill:#231f20"/><path d="M214,143.89l.79.1a1.92,1.92,0,0,1-.69,1.07,2.34,2.34,0,0,1-2.86-.23,2.38,2.38,0,0,1-.58-1.71,2.48,2.48,0,0,1,.59-1.76,2,2,0,0,1,1.52-.63,1.92,1.92,0,0,1,1.47.62,2.44,2.44,0,0,1,.57,1.73s0,.11,0,.2h-3.36a1.73,1.73,0,0,0,.42,1.14,1.25,1.25,0,0,0,.94.39,1.18,1.18,0,0,0,.72-.22A1.47,1.47,0,0,0,214,143.89Zm-2.5-1.23H214a1.53,1.53,0,0,0-.29-.85,1.17,1.17,0,0,0-.95-.44,1.21,1.21,0,0,0-.88.35A1.39,1.39,0,0,0,211.54,142.66Z" style="fill:#231f20"/><path d="M216,145.34v-.87h.87v.87Z" style="fill:#231f20"/><path d="M126.94,157.51l.82.21a2.77,2.77,0,0,1-.93,1.55,2.56,2.56,0,0,1-1.64.53,3,3,0,0,1-1.63-.41,2.55,2.55,0,0,1-1-1.19,4.22,4.22,0,0,1-.33-1.67,3.66,3.66,0,0,1,.37-1.69,2.55,2.55,0,0,1,1.06-1.1,3.09,3.09,0,0,1,1.51-.37,2.55,2.55,0,0,1,1.57.47,2.47,2.47,0,0,1,.89,1.34l-.81.19a1.92,1.92,0,0,0-.63-1,1.67,1.67,0,0,0-1-.31,2,2,0,0,0-1.2.34,1.82,1.82,0,0,0-.68.92,3.7,3.7,0,0,0-.2,1.19,3.8,3.8,0,0,0,.23,1.38,1.72,1.72,0,0,0,.72.88,2,2,0,0,0,1.06.29,1.77,1.77,0,0,0,1.17-.4A2,2,0,0,0,126.94,157.51Z" style="fill:#231f20"/><path d="M131.62,159.13a2.84,2.84,0,0,1-.82.51,2.34,2.34,0,0,1-.84.15,1.64,1.64,0,0,1-1.14-.36,1.2,1.2,0,0,1-.4-.93,1.25,1.25,0,0,1,.54-1,1.86,1.86,0,0,1,.55-.25,5.62,5.62,0,0,1,.68-.11,7,7,0,0,0,1.36-.26c0-.1,0-.17,0-.2a.84.84,0,0,0-.22-.66,1.28,1.28,0,0,0-.87-.26,1.35,1.35,0,0,0-.79.19,1.16,1.16,0,0,0-.38.67l-.75-.1a1.84,1.84,0,0,1,.34-.77,1.47,1.47,0,0,1,.67-.45,3,3,0,0,1,1-.16,2.72,2.72,0,0,1,.94.14,1.24,1.24,0,0,1,.53.34,1.2,1.2,0,0,1,.24.52,4.29,4.29,0,0,1,0,.7v1a10.84,10.84,0,0,0,0,1.35,1.7,1.7,0,0,0,.19.54h-.8A1.64,1.64,0,0,1,131.62,159.13Zm-.06-1.7a5.58,5.58,0,0,1-1.25.29,2.91,2.91,0,0,0-.67.15.66.66,0,0,0-.3.25.67.67,0,0,0,.13.87,1,1,0,0,0,.68.2,1.58,1.58,0,0,0,.78-.19,1.19,1.19,0,0,0,.5-.53,1.84,1.84,0,0,0,.12-.76Z" style="fill:#231f20"/><path d="M133.51,159.69v-4.5h.69v.64a1.62,1.62,0,0,1,1.43-.74,1.88,1.88,0,0,1,.75.15,1.18,1.18,0,0,1,.51.38,1.47,1.47,0,0,1,.24.56,4.49,4.49,0,0,1,0,.74v2.77h-.76v-2.74a2,2,0,0,0-.09-.7.73.73,0,0,0-.32-.37,1,1,0,0,0-.53-.14,1.24,1.24,0,0,0-.84.31,1.53,1.53,0,0,0-.35,1.17v2.46Z" style="fill:#231f20"/><path d="M143.69,158l.75.1a2,2,0,0,1-.63,1.21,1.84,1.84,0,0,1-1.25.44,1.93,1.93,0,0,1-1.49-.6,2.45,2.45,0,0,1-.56-1.73,3.14,3.14,0,0,1,.24-1.28,1.68,1.68,0,0,1,.74-.82,2.19,2.19,0,0,1,1.08-.27,1.87,1.87,0,0,1,1.2.37,1.71,1.71,0,0,1,.6,1.05l-.74.11a1.23,1.23,0,0,0-.37-.68,1,1,0,0,0-.65-.23,1.19,1.19,0,0,0-.94.41,2,2,0,0,0-.36,1.31,2,2,0,0,0,.35,1.32,1.13,1.13,0,0,0,.91.41,1.07,1.07,0,0,0,.75-.28A1.38,1.38,0,0,0,143.69,158Z" style="fill:#231f20"/><path d="M148,159.13a2.83,2.83,0,0,1-.82.51,2.35,2.35,0,0,1-.84.15,1.64,1.64,0,0,1-1.14-.36,1.2,1.2,0,0,1-.4-.93,1.25,1.25,0,0,1,.55-1,1.86,1.86,0,0,1,.55-.25,5.61,5.61,0,0,1,.68-.11,7,7,0,0,0,1.36-.26c0-.1,0-.17,0-.2a.85.85,0,0,0-.22-.66,1.28,1.28,0,0,0-.87-.26,1.35,1.35,0,0,0-.79.19,1.16,1.16,0,0,0-.38.67l-.75-.1a1.85,1.85,0,0,1,.34-.77,1.46,1.46,0,0,1,.67-.45,3,3,0,0,1,1-.16,2.71,2.71,0,0,1,.94.14,1.23,1.23,0,0,1,.53.34,1.2,1.2,0,0,1,.24.52,4.29,4.29,0,0,1,0,.7v1a10.63,10.63,0,0,0,0,1.35,1.67,1.67,0,0,0,.19.54h-.8A1.6,1.6,0,0,1,148,159.13Zm-.06-1.7a5.59,5.59,0,0,1-1.25.29,2.9,2.9,0,0,0-.67.15.66.66,0,0,0-.3.25.68.68,0,0,0,.13.87,1,1,0,0,0,.68.2,1.58,1.58,0,0,0,.79-.19,1.19,1.19,0,0,0,.5-.53,1.84,1.84,0,0,0,.12-.76Z" style="fill:#231f20"/><path d="M152.87,159.69V159a1.65,1.65,0,0,1-1.43.76,1.82,1.82,0,0,1-.74-.15,1.22,1.22,0,0,1-.51-.38,1.42,1.42,0,0,1-.24-.57,3.85,3.85,0,0,1,0-.71v-2.79h.76v2.5a4.41,4.41,0,0,0,0,.8.79.79,0,0,0,.3.47.94.94,0,0,0,.58.17,1.26,1.26,0,0,0,.64-.18,1,1,0,0,0,.43-.48,2.4,2.4,0,0,0,.13-.88v-2.41h.76v4.5Z" style="fill:#231f20"/><path d="M154.44,158.34l.75-.12a1.06,1.06,0,0,0,.35.7,1.24,1.24,0,0,0,.81.24,1.19,1.19,0,0,0,.78-.21.64.64,0,0,0,.25-.5.47.47,0,0,0-.22-.41,3.4,3.4,0,0,0-.78-.26,7,7,0,0,1-1.16-.37,1.11,1.11,0,0,1-.66-1,1.15,1.15,0,0,1,.14-.56,1.23,1.23,0,0,1,.38-.43,1.55,1.55,0,0,1,.49-.22,2.32,2.32,0,0,1,.66-.09,2.59,2.59,0,0,1,.93.15,1.26,1.26,0,0,1,.59.41,1.62,1.62,0,0,1,.26.7l-.75.1a.81.81,0,0,0-.29-.54,1.08,1.08,0,0,0-.69-.2,1.24,1.24,0,0,0-.75.17.51.51,0,0,0-.22.41.42.42,0,0,0,.09.27.68.68,0,0,0,.29.2l.67.19a9.5,9.5,0,0,1,1.13.35,1.15,1.15,0,0,1,.5.4,1.12,1.12,0,0,1,.18.65,1.28,1.28,0,0,1-.22.72,1.44,1.44,0,0,1-.64.52,2.34,2.34,0,0,1-1,.18,2.11,2.11,0,0,1-1.34-.36A1.69,1.69,0,0,1,154.44,158.34Z" style="fill:#231f20"/><path d="M162.17,158.24l.79.1a1.92,1.92,0,0,1-.69,1.07,2.08,2.08,0,0,1-1.29.38,2.06,2.06,0,0,1-1.57-.61,2.37,2.37,0,0,1-.58-1.71,2.49,2.49,0,0,1,.58-1.76,2,2,0,0,1,1.52-.63,1.92,1.92,0,0,1,1.48.62,2.44,2.44,0,0,1,.57,1.73s0,.11,0,.2h-3.36a1.73,1.73,0,0,0,.42,1.14,1.25,1.25,0,0,0,.94.39,1.17,1.17,0,0,0,.72-.22A1.47,1.47,0,0,0,162.17,158.24ZM159.67,157h2.51a1.52,1.52,0,0,0-.29-.85,1.17,1.17,0,0,0-.95-.44,1.21,1.21,0,0,0-.88.35A1.4,1.4,0,0,0,159.67,157Z" style="fill:#231f20"/><path d="M166,158.34l.75-.12a1.06,1.06,0,0,0,.35.7,1.24,1.24,0,0,0,.81.24,1.19,1.19,0,0,0,.78-.21.64.64,0,0,0,.25-.5.47.47,0,0,0-.22-.41,3.4,3.4,0,0,0-.78-.26,7,7,0,0,1-1.16-.37,1.11,1.11,0,0,1-.66-1,1.15,1.15,0,0,1,.14-.56,1.23,1.23,0,0,1,.38-.43,1.55,1.55,0,0,1,.49-.22,2.32,2.32,0,0,1,.66-.09,2.59,2.59,0,0,1,.93.15,1.26,1.26,0,0,1,.59.41,1.61,1.61,0,0,1,.26.7l-.75.1a.81.81,0,0,0-.29-.54,1.08,1.08,0,0,0-.69-.2,1.24,1.24,0,0,0-.75.17.51.51,0,0,0-.22.41.42.42,0,0,0,.09.27.68.68,0,0,0,.29.2l.67.19a9.51,9.51,0,0,1,1.13.35,1.15,1.15,0,0,1,.5.4,1.12,1.12,0,0,1,.18.65,1.28,1.28,0,0,1-.22.72,1.44,1.44,0,0,1-.64.52,2.34,2.34,0,0,1-1,.18,2.11,2.11,0,0,1-1.34-.36A1.69,1.69,0,0,1,166,158.34Z" style="fill:#231f20"/><path d="M173.75,158.24l.79.1a1.92,1.92,0,0,1-.69,1.07,2.08,2.08,0,0,1-1.29.38,2.06,2.06,0,0,1-1.57-.61,2.37,2.37,0,0,1-.58-1.71,2.49,2.49,0,0,1,.59-1.76,2,2,0,0,1,1.52-.63,1.92,1.92,0,0,1,1.48.62,2.44,2.44,0,0,1,.57,1.73s0,.11,0,.2h-3.36a1.73,1.73,0,0,0,.42,1.14,1.25,1.25,0,0,0,.94.39,1.17,1.17,0,0,0,.72-.22A1.47,1.47,0,0,0,173.75,158.24ZM171.25,157h2.51a1.52,1.52,0,0,0-.29-.85,1.17,1.17,0,0,0-.95-.44,1.21,1.21,0,0,0-.88.35A1.4,1.4,0,0,0,171.25,157Z" style="fill:#231f20"/><path d="M175.49,159.69v-4.5h.69v.68a1.86,1.86,0,0,1,.49-.63.85.85,0,0,1,.49-.15,1.49,1.49,0,0,1,.78.25l-.26.71a1.09,1.09,0,0,0-.56-.16.73.73,0,0,0-.45.15.81.81,0,0,0-.28.42,2.93,2.93,0,0,0-.13.89v2.36Z" style="fill:#231f20"/><path d="M178.4,154.35v-.88h.76v.88Zm0,5.34v-4.5h.76v4.5Z" style="fill:#231f20"/><path d="M180,157.43a2.32,2.32,0,0,1,.7-1.85,2.09,2.09,0,0,1,1.42-.5,2,2,0,0,1,1.52.61,2.32,2.32,0,0,1,.59,1.68,3,3,0,0,1-.26,1.37,1.84,1.84,0,0,1-.76.77,2.21,2.21,0,0,1-1.09.28,2,2,0,0,1-1.53-.61A2.42,2.42,0,0,1,180,157.43Zm.78,0a1.92,1.92,0,0,0,.38,1.29,1.26,1.26,0,0,0,1.9,0,2,2,0,0,0,.38-1.32,1.87,1.87,0,0,0-.38-1.27,1.26,1.26,0,0,0-1.89,0A1.91,1.91,0,0,0,180.82,157.43Z" style="fill:#231f20"/><path d="M188.1,159.69V159a1.65,1.65,0,0,1-1.43.76,1.82,1.82,0,0,1-.74-.15,1.22,1.22,0,0,1-.51-.38,1.44,1.44,0,0,1-.23-.57,3.84,3.84,0,0,1,0-.71v-2.79h.76v2.5a4.41,4.41,0,0,0,0,.8.79.79,0,0,0,.31.47.94.94,0,0,0,.58.17,1.26,1.26,0,0,0,.64-.18,1,1,0,0,0,.43-.48,2.39,2.39,0,0,0,.13-.88v-2.41h.76v4.5Z" style="fill:#231f20"/><path d="M189.67,158.34l.75-.12a1.05,1.05,0,0,0,.35.7,1.23,1.23,0,0,0,.81.24,1.19,1.19,0,0,0,.78-.21.64.64,0,0,0,.25-.5.47.47,0,0,0-.22-.41,3.36,3.36,0,0,0-.78-.26,7.05,7.05,0,0,1-1.16-.37,1.11,1.11,0,0,1-.66-1,1.16,1.16,0,0,1,.14-.56,1.23,1.23,0,0,1,.38-.43,1.57,1.57,0,0,1,.49-.22,2.31,2.31,0,0,1,.66-.09,2.6,2.6,0,0,1,.93.15,1.26,1.26,0,0,1,.59.41,1.6,1.6,0,0,1,.26.7l-.75.1a.81.81,0,0,0-.29-.54,1.08,1.08,0,0,0-.69-.2,1.25,1.25,0,0,0-.75.17.51.51,0,0,0-.22.41.42.42,0,0,0,.09.27.68.68,0,0,0,.29.2l.67.19a9.53,9.53,0,0,1,1.13.35,1.15,1.15,0,0,1,.5.4,1.12,1.12,0,0,1,.18.65,1.28,1.28,0,0,1-.22.72,1.44,1.44,0,0,1-.64.52,2.33,2.33,0,0,1-.95.18,2.12,2.12,0,0,1-1.34-.36A1.7,1.7,0,0,1,189.67,158.34Z" style="fill:#231f20"/><path d="M196.74,154.35v-.88h.76v.88Zm0,5.34v-4.5h.76v4.5Z" style="fill:#231f20"/><path d="M198.66,159.69v-4.5h.69v.64a1.62,1.62,0,0,1,1.43-.74,1.88,1.88,0,0,1,.75.15,1.18,1.18,0,0,1,.51.38,1.47,1.47,0,0,1,.24.56,4.48,4.48,0,0,1,0,.74v2.77h-.76v-2.74a2,2,0,0,0-.09-.7.73.73,0,0,0-.32-.37,1,1,0,0,0-.53-.14,1.24,1.24,0,0,0-.84.31,1.53,1.53,0,0,0-.35,1.17v2.46Z" style="fill:#231f20"/><path d="M202.52,161.43l.14-.65a1.52,1.52,0,0,0,.36.06.41.41,0,0,0,.35-.15,1.59,1.59,0,0,0,.11-.77v-4.73h.76v4.75a2.22,2.22,0,0,1-.22,1.16,1,1,0,0,1-.92.42A2.21,2.21,0,0,1,202.52,161.43Zm1-7.08v-.89h.76v.89Z" style="fill:#231f20"/><path d="M208.37,159.69V159a1.65,1.65,0,0,1-1.43.76,1.82,1.82,0,0,1-.74-.15,1.22,1.22,0,0,1-.51-.38,1.44,1.44,0,0,1-.24-.57,3.85,3.85,0,0,1,0-.71v-2.79h.76v2.5a4.42,4.42,0,0,0,0,.8.8.8,0,0,0,.31.47.94.94,0,0,0,.58.17,1.25,1.25,0,0,0,.64-.18,1,1,0,0,0,.43-.48,2.42,2.42,0,0,0,.13-.88v-2.41h.76v4.5Z" style="fill:#231f20"/><path d="M210.24,159.69v-4.5h.69v.68a1.87,1.87,0,0,1,.48-.63.85.85,0,0,1,.49-.15,1.49,1.49,0,0,1,.79.25l-.26.71a1.09,1.09,0,0,0-.56-.16.72.72,0,0,0-.45.15.82.82,0,0,0-.28.42,3,3,0,0,0-.13.89v2.36Z" style="fill:#231f20"/><path d="M213.11,161.42l-.09-.72a1.72,1.72,0,0,0,.44.07.84.84,0,0,0,.41-.08.69.69,0,0,0,.25-.24,3.63,3.63,0,0,0,.23-.57l.07-.19-1.71-4.51h.82l.94,2.61c.12.33.23.68.33,1a10.47,10.47,0,0,1,.31-1l1-2.62h.76l-1.71,4.58a8.92,8.92,0,0,1-.43,1,1.51,1.51,0,0,1-.47.55,1.1,1.1,0,0,1-.63.18A1.53,1.53,0,0,1,213.11,161.42Z" style="fill:#231f20"/><path d="M219.61,157.43a2.32,2.32,0,0,1,.7-1.85,2.09,2.09,0,0,1,1.42-.5,2,2,0,0,1,1.52.61,2.32,2.32,0,0,1,.59,1.68,3,3,0,0,1-.26,1.37,1.85,1.85,0,0,1-.76.77,2.21,2.21,0,0,1-1.09.28,2,2,0,0,1-1.53-.61A2.42,2.42,0,0,1,219.61,157.43Zm.79,0a1.92,1.92,0,0,0,.38,1.29,1.26,1.26,0,0,0,1.89,0,2,2,0,0,0,.38-1.32,1.86,1.86,0,0,0-.38-1.27,1.26,1.26,0,0,0-1.89,0A1.91,1.91,0,0,0,220.39,157.43Z" style="fill:#231f20"/><path d="M224.71,159.69v-4.5h.69v.68a1.87,1.87,0,0,1,.49-.63.84.84,0,0,1,.49-.15,1.49,1.49,0,0,1,.78.25l-.26.71a1.09,1.09,0,0,0-.56-.16.73.73,0,0,0-.45.15.82.82,0,0,0-.28.42,3,3,0,0,0-.13.89v2.36Z" style="fill:#231f20"/><path d="M232.95,159.69v-.57a1.4,1.4,0,0,1-1.26.67,1.77,1.77,0,0,1-1-.3,2,2,0,0,1-.7-.83,2.87,2.87,0,0,1-.25-1.22,3.21,3.21,0,0,1,.22-1.22,1.77,1.77,0,0,1,.67-.84,1.8,1.8,0,0,1,1-.29,1.5,1.5,0,0,1,1.24.62v-2.23h.76v6.21Zm-2.41-2.25a2,2,0,0,0,.37,1.29,1.1,1.1,0,0,0,.86.43,1.08,1.08,0,0,0,.85-.41,1.89,1.89,0,0,0,.35-1.25,2.11,2.11,0,0,0-.36-1.36,1.09,1.09,0,0,0-.88-.43,1.05,1.05,0,0,0-.85.42A2,2,0,0,0,230.53,157.44Z" style="fill:#231f20"/><path d="M237.94,158.24l.79.1a1.92,1.92,0,0,1-.69,1.07,2.08,2.08,0,0,1-1.29.38,2.06,2.06,0,0,1-1.57-.61,2.37,2.37,0,0,1-.58-1.71,2.49,2.49,0,0,1,.59-1.76,2,2,0,0,1,1.52-.63,1.92,1.92,0,0,1,1.48.62,2.44,2.44,0,0,1,.57,1.73s0,.11,0,.2h-3.36a1.73,1.73,0,0,0,.42,1.14,1.25,1.25,0,0,0,.94.39,1.17,1.17,0,0,0,.72-.22A1.47,1.47,0,0,0,237.94,158.24ZM235.43,157h2.51a1.52,1.52,0,0,0-.29-.85,1.17,1.17,0,0,0-.95-.44,1.21,1.21,0,0,0-.88.35A1.4,1.4,0,0,0,235.43,157Z" style="fill:#231f20"/><path d="M242.62,159.13a2.83,2.83,0,0,1-.82.51,2.35,2.35,0,0,1-.84.15,1.64,1.64,0,0,1-1.14-.36,1.2,1.2,0,0,1-.4-.93,1.25,1.25,0,0,1,.55-1,1.86,1.86,0,0,1,.55-.25,5.61,5.61,0,0,1,.68-.11,7,7,0,0,0,1.36-.26c0-.1,0-.17,0-.2a.85.85,0,0,0-.22-.66,1.28,1.28,0,0,0-.87-.26,1.35,1.35,0,0,0-.79.19,1.16,1.16,0,0,0-.38.67l-.75-.1a1.84,1.84,0,0,1,.34-.77,1.46,1.46,0,0,1,.67-.45,3,3,0,0,1,1-.16,2.71,2.71,0,0,1,.94.14,1.23,1.23,0,0,1,.53.34,1.2,1.2,0,0,1,.24.52,4.3,4.3,0,0,1,0,.7v1a10.62,10.62,0,0,0,0,1.35,1.67,1.67,0,0,0,.19.54h-.8A1.6,1.6,0,0,1,242.62,159.13Zm-.06-1.7a5.59,5.59,0,0,1-1.25.29,2.9,2.9,0,0,0-.67.15.66.66,0,0,0-.3.25.68.68,0,0,0,.13.87,1,1,0,0,0,.68.2,1.58,1.58,0,0,0,.79-.19,1.19,1.19,0,0,0,.5-.53,1.84,1.84,0,0,0,.12-.76Z" style="fill:#231f20"/><path d="M246.18,159l.11.67a2.78,2.78,0,0,1-.58.07,1.3,1.3,0,0,1-.64-.13.73.73,0,0,1-.32-.35,2.71,2.71,0,0,1-.09-.9v-2.59h-.56v-.59h.56v-1.12l.76-.46v1.57h.77v.59h-.77v2.63a1.36,1.36,0,0,0,0,.42.32.32,0,0,0,.13.15.51.51,0,0,0,.26.05Z" style="fill:#231f20"/><path d="M246.92,159.69v-6.21h.76v2.23a1.71,1.71,0,0,1,1.35-.62,1.83,1.83,0,0,1,.87.2,1.16,1.16,0,0,1,.53.54,2.52,2.52,0,0,1,.16,1v2.85h-.76v-2.85a1.18,1.18,0,0,0-.25-.83.92.92,0,0,0-.7-.26,1.24,1.24,0,0,0-.64.18,1,1,0,0,0-.43.48,2.2,2.2,0,0,0-.13.83v2.46Z" style="fill:#231f20"/><path d="M252,159.69v-.87h.87v.87Z" style="fill:#231f20"/><path d="M116.92,94.67a1.8,1.8,0,1,1-1.8-1.8,1.79,1.79,0,0,1,1.8,1.8" style="fill:#231f20"/><path d="M117,131.38a1.79,1.79,0,1,1-1.8-1.8,1.8,1.8,0,0,1,1.8,1.8" style="fill:#231f20"/><path d="M116.94,156.35a1.8,1.8,0,1,1-1.8-1.79,1.79,1.79,0,0,1,1.8,1.79" style="fill:#231f20"/><path d="M117.06,61.12a1.8,1.8,0,1,1-1.8-1.8,1.79,1.79,0,0,1,1.8,1.8" style="fill:#231f20"/><rect x="0.5" y="0.5" width="254.49" height="166.37" style="fill:none;stroke:#231f20"/></svg>