<svg xmlns="http://www.w3.org/2000/svg" viewBox="0 0 249.64 193.47"><title>warning_explsn_hzrd_frm__tp_vlve</title><g id="Layer_1" data-name="Layer 1"><polygon points="5.31 110.8 5.34 121.81 6.1 122.39 10.32 136.85 8.79 124.31 28.33 138.1 13.57 122.39 25.36 126.22 15.11 119.13 29.95 112.05 10.89 113.77 24.3 103.33 14.34 108.5 21.05 99.11 9.36 107.93 9.21 95.78 6.1 110.7 5.31 110.8" style="stroke:#000;stroke-width:0.24354499999999998px"/><rect x="0.67" y="86.95" width="3.8" height="53.32" style="stroke:#000;stroke-width:0.97418px"/><path d="M5.15,93.09,7.34,116,7,123.26,6,140.26l3.16-17.76,5.31,25.07-4-23.85S26,141.85,25.67,141,11.1,121.86,11.1,121.86l38.54,25.92-36-26.48L68,153.41,20.26,123.64s46.26,22.38,46,22.07-52.09-25.94-52.09-25.94l.1-.94L43.69,131.1,15.59,117.85l-.12-.79,3.13,1.77L53.7,131.64l-37.51-16,5.21,2.19,37.91,8.89-40.41-11,36.86,5.55-44.23-8.81-1.17,2.43-.52-2.92,2.08.42,49.91-6.56-48.46,4.37,22.31-4.37-18.34,2.92,39.9-14.17L15.78,108l32-21.78L13.59,107.15l15-15.73L11.5,106.11,32.24,78.4,10,104.92l-.44-16L8.07,106.63Z" style="fill:none;stroke:#000;stroke-width:0.24354499999999998px"/><polygon points="11.61 112.26 56.41 113.61 12.65 111.42 11.61 112.26" style="fill:none;stroke:#000;stroke-width:0.24354499999999998px"/><line x1="56.26" y1="140.56" x2="23" y2="122.48" style="stroke:#000;stroke-width:0.24354499999999998px"/><path d="M10.88,59.38a9.39,9.39,0,0,1,8.24-5,9.55,9.55,0,0,1,9.43,9.68A9.91,9.91,0,0,1,28,67.27" style="fill:none;stroke:#000;stroke-width:0.24354499999999998px"/><path d="M28.93,67.17a6.55,6.55,0,1,1,6.32,10.62" style="fill:none;stroke:#000;stroke-width:0.24354499999999998px"/><path d="M35.52,78A6.41,6.41,0,1,1,32,85.84" style="fill:none;stroke:#000;stroke-width:0.24354499999999998px"/><path d="M13.45,95.36a5.9,5.9,0,0,1,8.74-7.81" style="fill:none;stroke:#000;stroke-width:0.24354499999999998px"/><path d="M22.4,87.09a3.9,3.9,0,0,1-.4-1.72,3.95,3.95,0,0,1,7.9,0,3.8,3.8,0,0,1,0,.42" style="fill:none;stroke:#000;stroke-width:0.24354499999999998px"/><path d="M29.75,86.16s0-.09,0-.13A3.95,3.95,0,1,1,33.7,90h-.32" style="fill:none;stroke:#000;stroke-width:0.24354499999999998px"/><path d="M22.85,138.34a3.94,3.94,0,0,1-5-6" style="fill:none;stroke:#000;stroke-width:0.24354499999999998px"/><path d="M27.58,144.1a4,4,0,1,1-4.78-5.61" style="fill:none;stroke:#000;stroke-width:0.24354499999999998px"/><path d="M39.07,147.09a5.72,5.72,0,0,1-11.24-1.49,5.63,5.63,0,0,1,.17-1.38" style="fill:none;stroke:#000;stroke-width:0.24354499999999998px"/><path d="M26,163a6.51,6.51,0,1,1-7.51-3.48" style="fill:none;stroke:#000;stroke-width:0.24354499999999998px"/><path d="M36.42,157.78a6.52,6.52,0,1,1-9.72,8.43" style="fill:none;stroke:#000;stroke-width:0.24354499999999998px"/><path d="M47.51,141.48A9.51,9.51,0,0,1,37.16,157" style="fill:none;stroke:#000;stroke-width:0.24354499999999998px"/><path d="M30.93,103a5,5,0,0,1,7.52-6.16" style="fill:none;stroke:#000;stroke-width:0.24354499999999998px"/><path d="M38.76,96.77A3.28,3.28,0,1,1,45,95.32s0,.06,0,.09" style="fill:none;stroke:#000;stroke-width:0.24354499999999998px"/><path d="M45,96.23c0-.05,0-.11,0-.16a3.36,3.36,0,1,1,3.36,3.36H48" style="fill:none;stroke:#000;stroke-width:0.24354499999999998px"/><path d="M89.66,137.3l.56-.06c-2.26.16-20.45.75-23.51.3-2.68-.39-5-1.66-5.28-4.34s0-8.68,0-8.68-3.46.64-4.26-.87c-.71-1.34,2.13-7.41,3.94-15a18.32,18.32,0,0,1,4.42-8A17.7,17.7,0,0,1,73,96.84c2.76-.5,8.44-.39,11.12.95s3.55,1.5,6.39,5.13c2.29,2.93,2.6,4.26,2.92,8.44a77.38,77.38,0,0,1,.08,10.41c-.16,2.29-.55,9.39-1.34,12.07A5.41,5.41,0,0,1,89.66,137.3Z" style="stroke:#000;stroke-width:0.97418px"/><ellipse cx="66.99" cy="113.33" rx="2.33" ry="1.61" transform="translate(-56.42 159.16) rotate(-79.78)" style="fill:#fff;stroke:#000;stroke-width:0.97418px"/><path d="M82.91,192.55l-7.23-17.49s-9.5,17.58-10.29,17.76-21.5.41-20.55-.55,39.34-53.88,39.34-53.88a14.65,14.65,0,0,1,1.91-1.59c3.07-1.83,4.12-1.78,7.52,0s12.18,16,12.18,16l-.28,39.71Z" style="stroke:#000;stroke-width:0.97418px"/><polyline points="105.34 30.41 249.14 30.41 249.14 0.25 105.34 0.25"/><path d="M233.12,18.37V15.72h6.68V22A8.38,8.38,0,0,1,237,23.7a10.09,10.09,0,0,1-3.74.73,8.26,8.26,0,0,1-4.2-1,6.52,6.52,0,0,1-2.69-3,9.79,9.79,0,0,1-.9-4.19,9.29,9.29,0,0,1,1-4.37,6.86,6.86,0,0,1,2.94-2.93,7.74,7.74,0,0,1,3.67-.79,7.19,7.19,0,0,1,4.46,1.23,5.57,5.57,0,0,1,2.07,3.4l-3.07.59a3.36,3.36,0,0,0-1.22-1.83,3.59,3.59,0,0,0-2.23-.67,4.15,4.15,0,0,0-3.23,1.32,5.66,5.66,0,0,0-1.2,3.92,6.27,6.27,0,0,0,1.22,4.21,4,4,0,0,0,3.18,1.4,5.25,5.25,0,0,0,2-.39,6.68,6.68,0,0,0,1.68-1v-2m-26.14,5.79V8.41h3l6.28,10.52V8.41h2.88V24.16H219.6l-6.19-10.27V24.16Zm-6.08,0V8.41h3.1V24.16Zm-15.36,0V8.41h3l6.28,10.52V8.41h2.88V24.16h-3.11L192,13.89V24.16Zm-12.4-9.09H179a11.71,11.71,0,0,0,2.79-.19,1.68,1.68,0,0,0,.87-.67,2.11,2.11,0,0,0,.31-1.18,1.92,1.92,0,0,0-.41-1.28,1.88,1.88,0,0,0-1.17-.62q-.38-.05-2.26-.05h-2.42Zm-3.1,9.09V8.41h6.52a10.85,10.85,0,0,1,3.57.43,3.53,3.53,0,0,1,1.79,1.51,4.62,4.62,0,0,1,.67,2.48,4.28,4.28,0,0,1-1,2.93,4.83,4.83,0,0,1-3,1.45,7.31,7.31,0,0,1,1.66,1.32,18.14,18.14,0,0,1,1.76,2.56l1.88,3.07h-3.7l-2.24-3.43a21.66,21.66,0,0,0-1.63-2.31,2.43,2.43,0,0,0-.93-.66,5,5,0,0,0-1.56-.17h-.62v6.57Zm-7.36-6.23-2.11-5.84L162,17.93Zm5.71,6.23h-3.37l-1.34-3.58h-6.14l-1.26,3.58h-3.29l6-15.75h3.28Zm-30.71,0L137.56,8.41h3.17L143,19.23l2.8-10.82h3.69l2.69,11,2.36-11h3.12L154,24.16h-3.29l-3.05-11.77-3,11.77Zm-15.13-6.62a.56.56,0,0,1-.52.53h-.08a.51.51,0,0,1-.52-.53c-1.7-5.55-2.52-9.43.52-9.43S127.72,12,126.09,17.54Zm-.59,6a1.67,1.67,0,0,1,0-3.35h.08a1.6,1.6,0,0,1,1.55,1.67A1.62,1.62,0,0,1,125.5,23.55Zm1.26-16.88a1.29,1.29,0,0,0-1.26-.91,1.18,1.18,0,0,0-1.18.91l-8.45,14.9c-1.11,1.9-.15,2.66,1,2.74h17.34c1.19-.08,2.07-.84,1-2.74Z" style="fill:#fff"/><line x1="106.04" y1="47.58" x2="248.56" y2="47.58" style="stroke:#000;stroke-width:1.03234px"/><line x1="105.57" y1="192.96" x2="105.57" y2="0.25" style="stroke:#000;stroke-width:1.13975px"/><rect x="0.54" y="0.54" width="248.57" height="192.37" style="fill:none;stroke:#000;stroke-width:1.07349px"/></g><g id="text"><path d="M135.47,41.92V34.05h5.84v1.33h-4.25v1.75h4v1.33h-4V40.6h4.4v1.33Z"/><path d="M142.07,41.92,144.13,39l-2-2.77H144l1,1.57,1.06-1.57h1.77l-1.93,2.7,2.11,3h-1.85L145,40.16l-1.17,1.77Z"/><path d="M148.87,36.22h1.41v.84a2.11,2.11,0,0,1,.74-.7,2,2,0,0,1,1-.27,2.17,2.17,0,0,1,1.69.78,3.15,3.15,0,0,1,.69,2.17,3.25,3.25,0,0,1-.7,2.22,2.18,2.18,0,0,1-1.69.79,1.92,1.92,0,0,1-.86-.19,2.87,2.87,0,0,1-.81-.64v2.87h-1.51ZM150.36,39a2.19,2.19,0,0,0,.38,1.42,1.16,1.16,0,0,0,.93.46,1.09,1.09,0,0,0,.88-.42,2.18,2.18,0,0,0,.35-1.38,2.06,2.06,0,0,0-.36-1.33,1.11,1.11,0,0,0-.89-.44,1.16,1.16,0,0,0-.92.43A1.9,1.9,0,0,0,150.36,39Z"/><path d="M155.63,41.92V34.05h1.51v7.87Z"/><path d="M158.34,39a3.09,3.09,0,0,1,.37-1.46,2.54,2.54,0,0,1,1.05-1.07,3.11,3.11,0,0,1,1.52-.37,2.85,2.85,0,0,1,2.12.84,2.9,2.9,0,0,1,.83,2.12,2.94,2.94,0,0,1-.83,2.15,2.82,2.82,0,0,1-2.1.85,3.31,3.31,0,0,1-1.5-.35,2.43,2.43,0,0,1-1.08-1A3.47,3.47,0,0,1,158.34,39Zm1.55.08a1.89,1.89,0,0,0,.4,1.3,1.32,1.32,0,0,0,2,0,1.92,1.92,0,0,0,.4-1.31,1.89,1.89,0,0,0-.4-1.29,1.32,1.32,0,0,0-2,0A1.89,1.89,0,0,0,159.89,39.07Z"/><path d="M164.88,40.3l1.51-.23a1.11,1.11,0,0,0,.39.67,1.33,1.33,0,0,0,.83.23,1.5,1.5,0,0,0,.88-.21.48.48,0,0,0,.2-.4.4.4,0,0,0-.11-.28,1.2,1.2,0,0,0-.5-.2,8.13,8.13,0,0,1-2.31-.74,1.47,1.47,0,0,1-.68-1.28,1.58,1.58,0,0,1,.59-1.25,2.74,2.74,0,0,1,1.82-.5,3.17,3.17,0,0,1,1.74.38A2,2,0,0,1,170,37.6l-1.42.26a.88.88,0,0,0-.35-.51,1.27,1.27,0,0,0-.73-.18,1.64,1.64,0,0,0-.85.17.36.36,0,0,0-.17.31.34.34,0,0,0,.15.27,5.67,5.67,0,0,0,1.41.42,4.19,4.19,0,0,1,1.68.67,1.4,1.4,0,0,1,.47,1.12,1.72,1.72,0,0,1-.66,1.35,2.9,2.9,0,0,1-1.94.56,3.19,3.19,0,0,1-1.85-.47A2.18,2.18,0,0,1,164.88,40.3Z"/><path d="M171.53,35.45v-1.4H173v1.4Zm0,6.48v-5.7H173v5.7Z"/><path d="M174.23,39a3.1,3.1,0,0,1,.37-1.46,2.55,2.55,0,0,1,1.05-1.07,3.12,3.12,0,0,1,1.52-.37,2.85,2.85,0,0,1,2.12.84,2.91,2.91,0,0,1,.83,2.12,2.94,2.94,0,0,1-.83,2.15,2.82,2.82,0,0,1-2.1.85,3.31,3.31,0,0,1-1.5-.35,2.44,2.44,0,0,1-1.08-1A3.48,3.48,0,0,1,174.23,39Zm1.55.08a1.88,1.88,0,0,0,.4,1.3,1.32,1.32,0,0,0,2,0,1.92,1.92,0,0,0,.4-1.31,1.88,1.88,0,0,0-.4-1.29,1.32,1.32,0,0,0-2,0A1.88,1.88,0,0,0,175.78,39.07Z"/><path d="M186.49,41.92H185V39a4.52,4.52,0,0,0-.1-1.2.84.84,0,0,0-.31-.42.9.9,0,0,0-.52-.15,1.21,1.21,0,0,0-.7.21,1.08,1.08,0,0,0-.43.57,4.92,4.92,0,0,0-.12,1.31v2.58h-1.51v-5.7h1.4v.84a2.34,2.34,0,0,1,2.79-.79,1.53,1.53,0,0,1,.63.46,1.65,1.65,0,0,1,.29.63,4.63,4.63,0,0,1,.08,1Z"/><path d="M191.09,41.92V34.05h1.59v3.1h3.12v-3.1h1.59v7.87H195.8V38.48h-3.12v3.44Z"/><path d="M200.15,38l-1.37-.25a2.14,2.14,0,0,1,.79-1.22,2.91,2.91,0,0,1,1.68-.4,3.61,3.61,0,0,1,1.5.24,1.49,1.49,0,0,1,.7.61,3.11,3.11,0,0,1,.2,1.35l0,1.76a6.16,6.16,0,0,0,.07,1.11,3.24,3.24,0,0,0,.27.77h-1.49c0-.1-.09-.25-.15-.45l-.05-.18a2.73,2.73,0,0,1-.83.56,2.36,2.36,0,0,1-.94.19,1.94,1.94,0,0,1-1.39-.48,1.59,1.59,0,0,1-.51-1.21,1.63,1.63,0,0,1,.23-.86,1.51,1.51,0,0,1,.65-.58,5.08,5.08,0,0,1,1.2-.35,8.15,8.15,0,0,0,1.47-.37v-.15a.78.78,0,0,0-.21-.62,1.29,1.29,0,0,0-.81-.19,1.08,1.08,0,0,0-.63.16A1.1,1.1,0,0,0,200.15,38Zm2,1.22a9.37,9.37,0,0,1-.92.23,2.77,2.77,0,0,0-.82.26.63.63,0,0,0-.29.53.74.74,0,0,0,.24.55.83.83,0,0,0,.6.23,1.31,1.31,0,0,0,.78-.27,1,1,0,0,0,.36-.5,3,3,0,0,0,.06-.74Z"/><path d="M204.53,41.92V40.75l2.14-2.45q.53-.6.78-.85l-.69,0h-2V36.22h4.72v1.07l-2.18,2.51-.77.83.78,0h2.34v1.33Z"/><path d="M211.77,38l-1.37-.25a2.14,2.14,0,0,1,.79-1.22,2.91,2.91,0,0,1,1.68-.4,3.6,3.6,0,0,1,1.5.24,1.49,1.49,0,0,1,.7.61,3.1,3.1,0,0,1,.2,1.35l0,1.76a6.25,6.25,0,0,0,.07,1.11,3.29,3.29,0,0,0,.27.77H214.1c0-.1-.09-.25-.15-.45l-.05-.18a2.72,2.72,0,0,1-.83.56,2.37,2.37,0,0,1-.94.19,2,2,0,0,1-1.39-.48,1.59,1.59,0,0,1-.51-1.21,1.62,1.62,0,0,1,.23-.86,1.51,1.51,0,0,1,.65-.58,5.07,5.07,0,0,1,1.2-.35,8.2,8.2,0,0,0,1.47-.37v-.15a.78.78,0,0,0-.21-.62,1.29,1.29,0,0,0-.81-.19,1.08,1.08,0,0,0-.63.16A1.1,1.1,0,0,0,211.77,38Zm2,1.22a9.33,9.33,0,0,1-.92.23,2.77,2.77,0,0,0-.82.26.63.63,0,0,0-.3.53.74.74,0,0,0,.24.55.83.83,0,0,0,.6.23,1.31,1.31,0,0,0,.78-.27.94.94,0,0,0,.36-.5,2.94,2.94,0,0,0,.06-.74Z"/><path d="M218.2,41.92h-1.51v-5.7h1.4V37a2.43,2.43,0,0,1,.65-.76,1.19,1.19,0,0,1,.65-.18,1.91,1.91,0,0,1,1,.28l-.47,1.32a1.32,1.32,0,0,0-.71-.25.84.84,0,0,0-.54.17,1.2,1.2,0,0,0-.35.63,9,9,0,0,0-.13,1.91Z"/><path d="M226.27,41.92h-1.4v-.84a2.27,2.27,0,0,1-.82.73,2.12,2.12,0,0,1-1,.24,2.17,2.17,0,0,1-1.68-.79,3.22,3.22,0,0,1-.7-2.21,3.18,3.18,0,0,1,.68-2.2,2.22,2.22,0,0,1,1.72-.75,2.14,2.14,0,0,1,1.65.79V34.05h1.51Zm-4-3a2.62,2.62,0,0,0,.25,1.32,1.14,1.14,0,0,0,1,.59,1.11,1.11,0,0,0,.89-.44,2,2,0,0,0,.37-1.32,2.24,2.24,0,0,0-.35-1.42,1.16,1.16,0,0,0-1.81,0A1.92,1.92,0,0,0,222.24,38.95Z"/><path d="M120.63,62.93V57.57h-2v-.72h4.82v.72h-2v5.37Z"/><path d="M126.08,61.51l.77.1a1.88,1.88,0,0,1-.68,1.05,2.29,2.29,0,0,1-2.79-.22,2.33,2.33,0,0,1-.57-1.67,2.44,2.44,0,0,1,.57-1.73,1.94,1.94,0,0,1,1.49-.61,1.89,1.89,0,0,1,1.44.6,2.39,2.39,0,0,1,.56,1.69s0,.11,0,.2h-3.29A1.7,1.7,0,0,0,124,62a1.22,1.22,0,0,0,.92.39,1.14,1.14,0,0,0,.7-.22A1.43,1.43,0,0,0,126.08,61.51Zm-2.45-1.21h2.46a1.49,1.49,0,0,0-.28-.83,1.15,1.15,0,0,0-.93-.43,1.19,1.19,0,0,0-.87.34A1.36,1.36,0,0,0,123.63,60.31Z"/><path d="M127.62,62.93V58.53h.67v.62a1.57,1.57,0,0,1,.55-.52,1.55,1.55,0,0,1,.78-.2,1.45,1.45,0,0,1,.8.2,1.09,1.09,0,0,1,.44.57,1.58,1.58,0,0,1,1.36-.77,1.34,1.34,0,0,1,1,.36,1.55,1.55,0,0,1,.35,1.12v3h-.74V60.16a2.06,2.06,0,0,0-.07-.65.62.62,0,0,0-.26-.32.82.82,0,0,0-.45-.12,1,1,0,0,0-.77.31,1.36,1.36,0,0,0-.31,1v2.56h-.75V60.07a1.26,1.26,0,0,0-.18-.75.69.69,0,0,0-.6-.25,1.08,1.08,0,0,0-.58.17.94.94,0,0,0-.39.49,2.74,2.74,0,0,0-.12.92v2.29Z"/><path d="M134.53,64.62v-6.1h.68v.57a1.68,1.68,0,0,1,.54-.5,1.5,1.5,0,0,1,.74-.17,1.74,1.74,0,0,1,1,.29,1.78,1.78,0,0,1,.65.82,3,3,0,0,1,.22,1.16,2.94,2.94,0,0,1-.24,1.22A1.84,1.84,0,0,1,136.44,63a1.41,1.41,0,0,1-.67-.16,1.51,1.51,0,0,1-.49-.4v2.15Zm.68-3.87a1.92,1.92,0,0,0,.34,1.26,1.06,1.06,0,0,0,.83.41,1.08,1.08,0,0,0,.85-.42,2,2,0,0,0,.35-1.31,1.94,1.94,0,0,0-.35-1.26,1,1,0,0,0-.83-.42,1.07,1.07,0,0,0-.84.45A2,2,0,0,0,135.21,60.75Z"/><path d="M142.11,61.51l.77.1a1.88,1.88,0,0,1-.68,1.05,2.29,2.29,0,0,1-2.79-.22,2.33,2.33,0,0,1-.57-1.67,2.44,2.44,0,0,1,.57-1.73,1.94,1.94,0,0,1,1.49-.61,1.89,1.89,0,0,1,1.45.6,2.39,2.39,0,0,1,.56,1.69s0,.11,0,.2h-3.29A1.7,1.7,0,0,0,140,62a1.22,1.22,0,0,0,.92.39,1.14,1.14,0,0,0,.7-.22A1.43,1.43,0,0,0,142.11,61.51Zm-2.45-1.21h2.46a1.49,1.49,0,0,0-.28-.83,1.14,1.14,0,0,0-.93-.43,1.19,1.19,0,0,0-.87.34A1.36,1.36,0,0,0,139.66,60.31Z"/><path d="M143.64,62.93V58.53h.67v.67a1.82,1.82,0,0,1,.48-.62.83.83,0,0,1,.48-.15,1.45,1.45,0,0,1,.77.24l-.26.69a1.06,1.06,0,0,0-.55-.16.71.71,0,0,0-.44.15.8.8,0,0,0-.28.41,2.94,2.94,0,0,0-.12.87v2.31Z"/><path d="M149.19,62.39a2.78,2.78,0,0,1-.8.5,2.3,2.3,0,0,1-.82.15,1.6,1.6,0,0,1-1.12-.35,1.17,1.17,0,0,1-.39-.91,1.22,1.22,0,0,1,.53-1,1.8,1.8,0,0,1,.54-.24,5.3,5.3,0,0,1,.66-.11,6.81,6.81,0,0,0,1.33-.26c0-.1,0-.17,0-.19a.83.83,0,0,0-.21-.64,1.25,1.25,0,0,0-.85-.25,1.32,1.32,0,0,0-.78.18,1.13,1.13,0,0,0-.37.65l-.73-.1a1.81,1.81,0,0,1,.33-.76,1.43,1.43,0,0,1,.66-.44,2.94,2.94,0,0,1,1-.16,2.65,2.65,0,0,1,.92.13,1.21,1.21,0,0,1,.52.33,1.19,1.19,0,0,1,.23.51,4.28,4.28,0,0,1,0,.69v1a10.76,10.76,0,0,0,0,1.32,1.68,1.68,0,0,0,.19.53h-.78A1.57,1.57,0,0,1,149.19,62.39Zm-.06-1.67a5.51,5.51,0,0,1-1.22.28,2.77,2.77,0,0,0-.65.15.64.64,0,0,0-.4.6.63.63,0,0,0,.23.5,1,1,0,0,0,.66.2,1.54,1.54,0,0,0,.77-.19,1.16,1.16,0,0,0,.49-.52,1.81,1.81,0,0,0,.12-.75Z"/><path d="M152.5,62.26l.11.66A2.76,2.76,0,0,1,152,63a1.28,1.28,0,0,1-.63-.13.73.73,0,0,1-.32-.34,2.66,2.66,0,0,1-.09-.88V59.11h-.55v-.58H151V57.43l.74-.45v1.54h.75v.58h-.75v2.58a1.33,1.33,0,0,0,0,.41.32.32,0,0,0,.13.15.5.5,0,0,0,.26.05Z"/><path d="M155.95,62.93v-.65a1.62,1.62,0,0,1-1.4.75,1.78,1.78,0,0,1-.73-.15,1.2,1.2,0,0,1-.5-.38,1.4,1.4,0,0,1-.23-.55,3.8,3.8,0,0,1,0-.7V58.53h.75V61a4.39,4.39,0,0,0,0,.79.78.78,0,0,0,.3.46.92.92,0,0,0,.56.17,1.23,1.23,0,0,0,.63-.17,1,1,0,0,0,.42-.47,2.37,2.37,0,0,0,.12-.86V58.53h.75v4.41Z"/><path d="M157.61,62.93V58.53h.67v.67a1.82,1.82,0,0,1,.48-.62.83.83,0,0,1,.48-.15,1.45,1.45,0,0,1,.77.24l-.26.69a1.06,1.06,0,0,0-.55-.16.71.71,0,0,0-.44.15.8.8,0,0,0-.28.41,2.94,2.94,0,0,0-.12.87v2.31Z"/><path d="M163.29,61.51l.77.1a1.88,1.88,0,0,1-.68,1.05,2,2,0,0,1-1.26.37,2,2,0,0,1-1.53-.6,2.32,2.32,0,0,1-.57-1.67A2.43,2.43,0,0,1,160.6,59a1.94,1.94,0,0,1,1.49-.61,1.88,1.88,0,0,1,1.44.6,2.39,2.39,0,0,1,.56,1.69s0,.11,0,.2H160.8a1.69,1.69,0,0,0,.41,1.11,1.23,1.23,0,0,0,.92.39,1.14,1.14,0,0,0,.7-.22A1.43,1.43,0,0,0,163.29,61.51Zm-2.45-1.21h2.46a1.5,1.5,0,0,0-.28-.83,1.15,1.15,0,0,0-.93-.43,1.19,1.19,0,0,0-.87.34A1.37,1.37,0,0,0,160.84,60.31Z"/><path d="M164.54,61.11v-.75h2.29v.75Z"/><path d="M167.59,62.93V56.85h2.29a5.56,5.56,0,0,1,.93.06,1.83,1.83,0,0,1,.75.28,1.49,1.49,0,0,1,.49.59,2,2,0,0,1-.31,2.14,2.37,2.37,0,0,1-1.79.54H168.4v2.47Zm.8-3.19H170a1.67,1.67,0,0,0,1.11-.29,1,1,0,0,0,.33-.82,1.1,1.1,0,0,0-.19-.65.91.91,0,0,0-.51-.36,3.43,3.43,0,0,0-.75-.05H168.4Z"/><path d="M173,62.93V58.53h.67v.67a1.8,1.8,0,0,1,.48-.62.83.83,0,0,1,.48-.15,1.45,1.45,0,0,1,.77.24l-.26.69a1.06,1.06,0,0,0-.55-.16.71.71,0,0,0-.44.15.79.79,0,0,0-.28.41,2.91,2.91,0,0,0-.12.87v2.31Z"/><path d="M178.67,61.51l.77.1a1.88,1.88,0,0,1-.68,1.05,2.29,2.29,0,0,1-2.79-.22,2.33,2.33,0,0,1-.57-1.67A2.44,2.44,0,0,1,176,59a1.94,1.94,0,0,1,1.49-.61,1.89,1.89,0,0,1,1.45.6,2.39,2.39,0,0,1,.56,1.69s0,.11,0,.2h-3.29a1.7,1.7,0,0,0,.41,1.11,1.22,1.22,0,0,0,.92.39,1.14,1.14,0,0,0,.7-.22A1.43,1.43,0,0,0,178.67,61.51Zm-2.45-1.21h2.46a1.49,1.49,0,0,0-.28-.83,1.14,1.14,0,0,0-.93-.43,1.19,1.19,0,0,0-.87.34A1.36,1.36,0,0,0,176.22,60.31Z"/><path d="M179.91,61.62l.74-.12a1,1,0,0,0,.35.68,1.21,1.21,0,0,0,.79.24,1.17,1.17,0,0,0,.76-.21.63.63,0,0,0,.25-.49.45.45,0,0,0-.22-.4,3.27,3.27,0,0,0-.76-.25,7,7,0,0,1-1.14-.36,1.09,1.09,0,0,1-.64-1,1.14,1.14,0,0,1,.13-.55,1.22,1.22,0,0,1,.37-.42,1.54,1.54,0,0,1,.47-.22,2.26,2.26,0,0,1,.65-.09,2.55,2.55,0,0,1,.91.15,1.24,1.24,0,0,1,.58.4,1.6,1.6,0,0,1,.26.68l-.73.1a.8.8,0,0,0-.29-.53,1.06,1.06,0,0,0-.68-.19,1.22,1.22,0,0,0-.73.17.49.49,0,0,0-.22.4.41.41,0,0,0,.09.26.67.67,0,0,0,.29.2l.66.19a9.19,9.19,0,0,1,1.11.35,1.12,1.12,0,0,1,.49.39,1.09,1.09,0,0,1,.18.64,1.26,1.26,0,0,1-.22.7,1.41,1.41,0,0,1-.63.51,2.28,2.28,0,0,1-.93.18,2.07,2.07,0,0,1-1.31-.36A1.67,1.67,0,0,1,179.91,61.62Z"/><path d="M184,61.62l.74-.12a1,1,0,0,0,.35.68,1.21,1.21,0,0,0,.79.24,1.17,1.17,0,0,0,.76-.21.63.63,0,0,0,.25-.49.45.45,0,0,0-.22-.4,3.26,3.26,0,0,0-.76-.25,7,7,0,0,1-1.14-.36,1.09,1.09,0,0,1-.65-1,1.14,1.14,0,0,1,.14-.55,1.21,1.21,0,0,1,.37-.42,1.52,1.52,0,0,1,.47-.22,2.26,2.26,0,0,1,.65-.09,2.55,2.55,0,0,1,.91.15,1.24,1.24,0,0,1,.58.4,1.58,1.58,0,0,1,.26.68l-.73.1a.8.8,0,0,0-.29-.53,1.05,1.05,0,0,0-.67-.19,1.22,1.22,0,0,0-.73.17.5.5,0,0,0-.22.4.41.41,0,0,0,.09.26.66.66,0,0,0,.29.2l.66.19a9.22,9.22,0,0,1,1.11.35,1.12,1.12,0,0,1,.49.39,1.09,1.09,0,0,1,.18.64,1.25,1.25,0,0,1-.22.7,1.41,1.41,0,0,1-.63.51,2.28,2.28,0,0,1-.93.18,2.07,2.07,0,0,1-1.31-.36A1.66,1.66,0,0,1,184,61.62Z"/><path d="M191.26,62.93v-.65a1.61,1.61,0,0,1-1.4.75,1.78,1.78,0,0,1-.73-.15,1.19,1.19,0,0,1-.5-.38,1.4,1.4,0,0,1-.23-.55,3.71,3.71,0,0,1,0-.7V58.53h.75V61a4.49,4.49,0,0,0,0,.79.78.78,0,0,0,.3.46.93.93,0,0,0,.56.17,1.23,1.23,0,0,0,.63-.17,1,1,0,0,0,.42-.47,2.37,2.37,0,0,0,.12-.86V58.53h.75v4.41Z"/><path d="M192.92,62.93V58.53h.67v.67a1.8,1.8,0,0,1,.48-.62.83.83,0,0,1,.48-.15,1.45,1.45,0,0,1,.77.24l-.26.69a1.06,1.06,0,0,0-.55-.16.71.71,0,0,0-.44.15.79.79,0,0,0-.28.41,2.91,2.91,0,0,0-.12.87v2.31Z"/><path d="M198.61,61.51l.77.1a1.88,1.88,0,0,1-.68,1.05,2.29,2.29,0,0,1-2.79-.22,2.33,2.33,0,0,1-.57-1.67,2.44,2.44,0,0,1,.57-1.73,1.94,1.94,0,0,1,1.49-.61,1.89,1.89,0,0,1,1.44.6,2.39,2.39,0,0,1,.56,1.69s0,.11,0,.2h-3.29a1.69,1.69,0,0,0,.41,1.11,1.22,1.22,0,0,0,.92.39,1.14,1.14,0,0,0,.7-.22A1.43,1.43,0,0,0,198.61,61.51Zm-2.45-1.21h2.46a1.5,1.5,0,0,0-.28-.83,1.15,1.15,0,0,0-.93-.43,1.19,1.19,0,0,0-.87.34A1.36,1.36,0,0,0,196.15,60.31Z"/><path d="M202.45,62.93V56.85h2.7a3.59,3.59,0,0,1,1.24.16,1.35,1.35,0,0,1,.68.58,1.73,1.73,0,0,1,.25.92,1.53,1.53,0,0,1-.42,1.09,2.12,2.12,0,0,1-1.29.56,2.09,2.09,0,0,1,.49.3,4.22,4.22,0,0,1,.67.81l1.06,1.66h-1l-.8-1.27q-.35-.55-.58-.84a1.81,1.81,0,0,0-.41-.41,1.19,1.19,0,0,0-.37-.16,2.4,2.4,0,0,0-.45,0h-.93v2.7Zm.81-3.4H205a2.6,2.6,0,0,0,.86-.11.92.92,0,0,0,.47-.37,1,1,0,0,0,.16-.55.91.91,0,0,0-.31-.71,1.46,1.46,0,0,0-1-.28h-1.93Z"/><path d="M211.32,61.51l.77.1a1.88,1.88,0,0,1-.68,1.05,2.29,2.29,0,0,1-2.79-.22,2.33,2.33,0,0,1-.57-1.67,2.44,2.44,0,0,1,.57-1.73,1.94,1.94,0,0,1,1.49-.61,1.89,1.89,0,0,1,1.45.6,2.39,2.39,0,0,1,.56,1.69s0,.11,0,.2h-3.29a1.7,1.7,0,0,0,.41,1.11,1.22,1.22,0,0,0,.92.39,1.14,1.14,0,0,0,.7-.22A1.43,1.43,0,0,0,211.32,61.51Zm-2.45-1.21h2.46a1.49,1.49,0,0,0-.28-.83,1.14,1.14,0,0,0-.93-.43,1.19,1.19,0,0,0-.87.34A1.36,1.36,0,0,0,208.87,60.31Z"/><path d="M212.85,62.93V56.85h.75v6.08Z"/><path d="M214.59,57.71v-.86h.75v.86Zm0,5.23V58.53h.75v4.41Z"/><path d="M219.32,61.51l.77.1a1.88,1.88,0,0,1-.68,1.05,2.29,2.29,0,0,1-2.79-.22,2.33,2.33,0,0,1-.57-1.67,2.44,2.44,0,0,1,.57-1.73,1.94,1.94,0,0,1,1.49-.61,1.89,1.89,0,0,1,1.44.6,2.39,2.39,0,0,1,.56,1.69s0,.11,0,.2h-3.29a1.7,1.7,0,0,0,.41,1.11,1.22,1.22,0,0,0,.92.39,1.14,1.14,0,0,0,.7-.22A1.43,1.43,0,0,0,219.32,61.51Zm-2.45-1.21h2.46a1.49,1.49,0,0,0-.28-.83,1.14,1.14,0,0,0-.93-.43,1.19,1.19,0,0,0-.87.34A1.36,1.36,0,0,0,216.87,60.31Z"/><path d="M221,62.93V59.11h-.66v-.58H221v-.47a2,2,0,0,1,.08-.66,1,1,0,0,1,.38-.47,1.37,1.37,0,0,1,.76-.18,3.65,3.65,0,0,1,.7.08l-.11.65a2.49,2.49,0,0,0-.44,0,.66.66,0,0,0-.48.15.79.79,0,0,0-.14.54v.41h.86v.58h-.86v3.83Z"/><path d="M227.08,62.93l-2.36-6.08h.87l1.58,4.42c.13.35.23.69.32,1q.14-.5.33-1l1.64-4.42h.82l-2.38,6.08Z"/><path d="M233,62.39a2.77,2.77,0,0,1-.8.5,2.3,2.3,0,0,1-.82.15,1.6,1.6,0,0,1-1.12-.35,1.17,1.17,0,0,1-.39-.91,1.2,1.2,0,0,1,.15-.59,1.22,1.22,0,0,1,.38-.43,1.83,1.83,0,0,1,.54-.24,5.3,5.3,0,0,1,.66-.11,6.81,6.81,0,0,0,1.33-.26c0-.1,0-.17,0-.19a.83.83,0,0,0-.21-.64,1.25,1.25,0,0,0-.85-.25,1.32,1.32,0,0,0-.78.18,1.13,1.13,0,0,0-.37.65l-.73-.1a1.81,1.81,0,0,1,.33-.76,1.43,1.43,0,0,1,.66-.44,2.93,2.93,0,0,1,1-.16,2.65,2.65,0,0,1,.92.13,1.2,1.2,0,0,1,.52.33,1.16,1.16,0,0,1,.23.51,4.14,4.14,0,0,1,0,.69v1a10.47,10.47,0,0,0,0,1.32,1.63,1.63,0,0,0,.19.53h-.78A1.57,1.57,0,0,1,233,62.39Zm-.06-1.67a5.5,5.5,0,0,1-1.22.28,2.8,2.8,0,0,0-.65.15.65.65,0,0,0-.29.24.66.66,0,0,0,.12.85,1,1,0,0,0,.66.2,1.54,1.54,0,0,0,.77-.19,1.16,1.16,0,0,0,.49-.52,1.81,1.81,0,0,0,.12-.75Z"/><path d="M234.65,62.93V56.85h.75v6.08Z"/><path d="M237.61,62.93l-1.68-4.41h.79l.95,2.64q.15.43.28.89c.07-.23.16-.51.28-.84l1-2.69H240l-1.67,4.41Z"/><path d="M243.48,61.51l.77.1a1.88,1.88,0,0,1-.68,1.05,2,2,0,0,1-1.26.37,2,2,0,0,1-1.53-.6,2.32,2.32,0,0,1-.57-1.67,2.43,2.43,0,0,1,.57-1.73,1.94,1.94,0,0,1,1.49-.61,1.88,1.88,0,0,1,1.44.6,2.39,2.39,0,0,1,.56,1.69s0,.11,0,.2H241A1.69,1.69,0,0,0,241.4,62a1.23,1.23,0,0,0,.92.39,1.14,1.14,0,0,0,.7-.22A1.43,1.43,0,0,0,243.48,61.51ZM241,60.31h2.46a1.5,1.5,0,0,0-.28-.83,1.15,1.15,0,0,0-.93-.43,1.19,1.19,0,0,0-.87.34A1.37,1.37,0,0,0,241,60.31Z"/><path d="M119,73.13V68.73h.67v.62a1.57,1.57,0,0,1,.55-.52,1.55,1.55,0,0,1,.78-.2,1.45,1.45,0,0,1,.8.2,1.09,1.09,0,0,1,.44.57,1.58,1.58,0,0,1,1.36-.77,1.34,1.34,0,0,1,1,.36,1.55,1.55,0,0,1,.35,1.12v3h-.74V70.36a2,2,0,0,0-.07-.65.62.62,0,0,0-.26-.32.82.82,0,0,0-.45-.12,1,1,0,0,0-.77.31,1.36,1.36,0,0,0-.31,1v2.56h-.75V70.27a1.26,1.26,0,0,0-.18-.75.69.69,0,0,0-.6-.25,1.08,1.08,0,0,0-.58.17.94.94,0,0,0-.39.49,2.74,2.74,0,0,0-.12.92v2.29Z"/><path d="M129,73.13v-.65a1.61,1.61,0,0,1-1.4.75,1.78,1.78,0,0,1-.73-.15,1.2,1.2,0,0,1-.5-.38,1.41,1.41,0,0,1-.23-.55,3.81,3.81,0,0,1,0-.7V68.73h.75v2.44a4.36,4.36,0,0,0,0,.79.78.78,0,0,0,.3.46.93.93,0,0,0,.56.17,1.23,1.23,0,0,0,.63-.17,1,1,0,0,0,.42-.47,2.34,2.34,0,0,0,.12-.86V68.73h.75v4.41Z"/><path d="M130.5,71.82l.74-.12a1,1,0,0,0,.35.68,1.21,1.21,0,0,0,.79.24,1.17,1.17,0,0,0,.76-.21.63.63,0,0,0,.25-.49.45.45,0,0,0-.22-.4,3.26,3.26,0,0,0-.76-.25,7,7,0,0,1-1.14-.36,1.09,1.09,0,0,1-.65-1,1.14,1.14,0,0,1,.13-.55,1.22,1.22,0,0,1,.37-.42,1.56,1.56,0,0,1,.48-.22,2.26,2.26,0,0,1,.65-.09,2.55,2.55,0,0,1,.91.15,1.24,1.24,0,0,1,.58.4,1.58,1.58,0,0,1,.26.68l-.73.1a.8.8,0,0,0-.29-.53,1.05,1.05,0,0,0-.67-.19,1.22,1.22,0,0,0-.73.17.5.5,0,0,0-.22.4.41.41,0,0,0,.09.26.67.67,0,0,0,.29.2l.66.19a9.16,9.16,0,0,1,1.11.35,1.12,1.12,0,0,1,.49.39,1.09,1.09,0,0,1,.18.64,1.25,1.25,0,0,1-.22.7,1.4,1.4,0,0,1-.63.51,2.28,2.28,0,0,1-.93.18,2.07,2.07,0,0,1-1.31-.36A1.66,1.66,0,0,1,130.5,71.82Z"/><path d="M136.68,72.46l.11.66a2.76,2.76,0,0,1-.56.07,1.28,1.28,0,0,1-.63-.13.72.72,0,0,1-.32-.34,2.69,2.69,0,0,1-.09-.88V69.31h-.55v-.58h.55V67.63l.74-.45v1.54h.75v.58h-.75v2.58a1.3,1.3,0,0,0,0,.41.31.31,0,0,0,.13.15.49.49,0,0,0,.25.05Z"/><path d="M142.64,71.52l.73.1a1.91,1.91,0,0,1-.62,1.19,1.79,1.79,0,0,1-1.22.43,1.89,1.89,0,0,1-1.46-.59,2.4,2.4,0,0,1-.55-1.7,3.08,3.08,0,0,1,.24-1.25,1.65,1.65,0,0,1,.72-.8,2.14,2.14,0,0,1,1.05-.27,1.83,1.83,0,0,1,1.17.36,1.66,1.66,0,0,1,.58,1l-.73.11a1.21,1.21,0,0,0-.37-.67,1,1,0,0,0-.64-.22,1.16,1.16,0,0,0-.92.4,1.91,1.91,0,0,0-.35,1.28,2,2,0,0,0,.34,1.29,1.11,1.11,0,0,0,.89.4,1,1,0,0,0,.73-.27A1.34,1.34,0,0,0,142.64,71.52Z"/><path d="M143.74,70.93a2.27,2.27,0,0,1,.68-1.81,2.05,2.05,0,0,1,1.39-.49,2,2,0,0,1,1.49.6,2.26,2.26,0,0,1,.58,1.65,2.92,2.92,0,0,1-.26,1.34,1.81,1.81,0,0,1-.74.76,2.17,2.17,0,0,1-1.06.27,2,2,0,0,1-1.5-.59A2.37,2.37,0,0,1,143.74,70.93Zm.77,0a1.88,1.88,0,0,0,.37,1.27,1.23,1.23,0,0,0,1.85,0,1.92,1.92,0,0,0,.37-1.29,1.82,1.82,0,0,0-.37-1.24,1.23,1.23,0,0,0-1.85,0A1.87,1.87,0,0,0,144.51,70.93Z"/><path d="M148.74,73.13V68.73h.67v.62a1.57,1.57,0,0,1,.55-.52,1.55,1.55,0,0,1,.78-.2,1.45,1.45,0,0,1,.8.2,1.09,1.09,0,0,1,.44.57,1.58,1.58,0,0,1,1.36-.77,1.34,1.34,0,0,1,1,.36,1.55,1.55,0,0,1,.35,1.12v3H154V70.36a2.06,2.06,0,0,0-.07-.65.62.62,0,0,0-.26-.32.82.82,0,0,0-.45-.12,1,1,0,0,0-.77.31,1.36,1.36,0,0,0-.31,1v2.56h-.75V70.27a1.26,1.26,0,0,0-.18-.75.69.69,0,0,0-.6-.25,1.08,1.08,0,0,0-.58.17.94.94,0,0,0-.39.49,2.74,2.74,0,0,0-.12.92v2.29Z"/><path d="M155.83,74.82v-6.1h.68v.57a1.68,1.68,0,0,1,.54-.5,1.5,1.5,0,0,1,.74-.17,1.74,1.74,0,0,1,1,.29,1.78,1.78,0,0,1,.65.82,3,3,0,0,1,.22,1.16,2.94,2.94,0,0,1-.24,1.22,1.84,1.84,0,0,1-1.68,1.12,1.41,1.41,0,0,1-.67-.16,1.51,1.51,0,0,1-.49-.4v2.15ZM156.5,71a1.92,1.92,0,0,0,.34,1.26,1.06,1.06,0,0,0,.83.41,1.08,1.08,0,0,0,.85-.42,2,2,0,0,0,.35-1.31,1.94,1.94,0,0,0-.35-1.26,1,1,0,0,0-.83-.42,1.07,1.07,0,0,0-.84.45A2,2,0,0,0,156.5,71Z"/><path d="M160.54,73.13V67h.75v6.08Z"/><path d="M162.41,74.83l-.08-.7a1.67,1.67,0,0,0,.43.07.82.82,0,0,0,.4-.08.67.67,0,0,0,.24-.23,3.51,3.51,0,0,0,.23-.56l.07-.18L162,68.73h.8l.92,2.55q.18.49.32,1a10.07,10.07,0,0,1,.31-1l.94-2.57h.75l-1.68,4.48a8.73,8.73,0,0,1-.42,1,1.48,1.48,0,0,1-.46.54,1.08,1.08,0,0,1-.62.17A1.48,1.48,0,0,1,162.41,74.83Z"/><path d="M169.87,73.13l-1.35-4.41h.77l.7,2.54.26.95.23-.91.7-2.58h.77l.66,2.56.22.84.25-.85.76-2.55h.73l-1.38,4.41h-.78l-.7-2.64-.17-.75-.89,3.39Z"/><path d="M175.2,67.91V67h.75v.86Zm0,5.23V68.73h.75v4.41Z"/><path d="M178.71,72.46l.11.66a2.76,2.76,0,0,1-.56.07,1.28,1.28,0,0,1-.63-.13.72.72,0,0,1-.32-.34,2.69,2.69,0,0,1-.09-.88V69.31h-.55v-.58h.55V67.63l.74-.45v1.54h.75v.58H178v2.58a1.3,1.3,0,0,0,0,.41.31.31,0,0,0,.13.15.49.49,0,0,0,.25.05Z"/><path d="M179.44,73.13V67h.75v2.18a1.67,1.67,0,0,1,1.32-.61,1.78,1.78,0,0,1,.85.19,1.13,1.13,0,0,1,.52.53,2.46,2.46,0,0,1,.16,1v2.79h-.75V70.34a1.15,1.15,0,0,0-.24-.82.9.9,0,0,0-.69-.26,1.21,1.21,0,0,0-.62.17,1,1,0,0,0-.42.47,2.12,2.12,0,0,0-.12.81v2.41Z"/><path d="M185.49,73.13,187.82,67h.87l2.49,6.08h-.92l-.71-1.84H187l-.67,1.84Zm1.76-2.5h2.06l-.63-1.69c-.19-.51-.34-.93-.43-1.26a7.67,7.67,0,0,1-.33,1.16Z"/><path d="M191.82,73.13V67h.83l3.2,4.78V67h.77v6.08h-.83l-3.2-4.78v4.78Z"/><path d="M197.69,71.18l.76-.07a1.68,1.68,0,0,0,.25.75,1.37,1.37,0,0,0,.61.47,2.32,2.32,0,0,0,.93.18,2.25,2.25,0,0,0,.81-.14,1.13,1.13,0,0,0,.52-.38.88.88,0,0,0,.17-.52.79.79,0,0,0-.17-.5,1.23,1.23,0,0,0-.55-.36,10.51,10.51,0,0,0-1.08-.3,5.54,5.54,0,0,1-1.18-.38,1.65,1.65,0,0,1-.65-.57,1.39,1.39,0,0,1-.21-.76,1.55,1.55,0,0,1,.26-.86,1.62,1.62,0,0,1,.76-.61,2.89,2.89,0,0,1,1.12-.21,3,3,0,0,1,1.19.22,1.72,1.72,0,0,1,.79.64,1.86,1.86,0,0,1,.3,1l-.77.06a1.25,1.25,0,0,0-.42-.87,1.64,1.64,0,0,0-1.06-.29,1.7,1.7,0,0,0-1.06.27.8.8,0,0,0-.33.65.69.69,0,0,0,.24.54,3.19,3.19,0,0,0,1.21.43,8,8,0,0,1,1.35.39,1.85,1.85,0,0,1,.78.62,1.51,1.51,0,0,1,.25.87,1.65,1.65,0,0,1-.28.92,1.83,1.83,0,0,1-.8.67,2.79,2.79,0,0,1-1.17.24A3.5,3.5,0,0,1,198.9,73a2,2,0,0,1-.88-.72A2.06,2.06,0,0,1,197.69,71.18Z"/><path d="M203.77,73.13V67h.8v6.08Z"/><path d="M207.87,73.13v-.75l3.12-3.9q.33-.41.63-.72h-3.4V67h4.36v.72L209.17,72l-.37.43h3.88v.72Z"/><path d="M217.17,72.42v.72h-4a1.32,1.32,0,0,1,.09-.52,2.76,2.76,0,0,1,.49-.81,7.8,7.8,0,0,1,1-.92A8.3,8.3,0,0,0,216,69.59a1.54,1.54,0,0,0,.35-.9,1,1,0,0,0-.32-.75,1.15,1.15,0,0,0-.83-.31,1.17,1.17,0,0,0-.86.32,1.23,1.23,0,0,0-.33.9l-.77-.08a1.89,1.89,0,0,1,.59-1.31,2,2,0,0,1,1.38-.45,1.93,1.93,0,0,1,1.39.49,1.59,1.59,0,0,1,.51,1.2,1.83,1.83,0,0,1-.15.72,2.78,2.78,0,0,1-.5.74,12.11,12.11,0,0,1-1.15,1.07q-.67.56-.86.77a2.42,2.42,0,0,0-.32.4Z"/><path d="M220.79,73.13H220V68.37a3.87,3.87,0,0,1-.71.51,5,5,0,0,1-.79.39v-.72a4.54,4.54,0,0,0,1.1-.71,2.81,2.81,0,0,0,.66-.81h.48Z"/><path d="M223.12,73.13v-.85H224v.85Z"/><path d="M229,72.42v.72h-4a1.32,1.32,0,0,1,.09-.52,2.76,2.76,0,0,1,.49-.81,7.8,7.8,0,0,1,1-.92,8.3,8.3,0,0,0,1.34-1.29,1.54,1.54,0,0,0,.35-.9,1,1,0,0,0-.32-.75,1.15,1.15,0,0,0-.83-.31,1.17,1.17,0,0,0-.86.32,1.23,1.23,0,0,0-.33.9l-.77-.08a1.89,1.89,0,0,1,.59-1.31,2,2,0,0,1,1.38-.45,1.93,1.93,0,0,1,1.39.49,1.59,1.59,0,0,1,.51,1.2,1.83,1.83,0,0,1-.15.72,2.78,2.78,0,0,1-.5.74,12.11,12.11,0,0,1-1.15,1.07q-.67.56-.86.77a2.42,2.42,0,0,0-.32.4Z"/><path d="M233.72,72.42v.72h-4a1.32,1.32,0,0,1,.09-.52,2.7,2.7,0,0,1,.49-.81,7.65,7.65,0,0,1,1-.92,8.26,8.26,0,0,0,1.34-1.29,1.54,1.54,0,0,0,.35-.9,1,1,0,0,0-.32-.75,1.15,1.15,0,0,0-.83-.31,1.17,1.17,0,0,0-.86.32,1.23,1.23,0,0,0-.33.9l-.77-.08a1.89,1.89,0,0,1,.59-1.31,2,2,0,0,1,1.38-.45,1.93,1.93,0,0,1,1.39.49,1.6,1.6,0,0,1,.51,1.2,1.83,1.83,0,0,1-.15.72,2.8,2.8,0,0,1-.5.74,12.15,12.15,0,0,1-1.15,1.07q-.67.56-.86.77a2.47,2.47,0,0,0-.32.4Z"/><path d="M234.43,71.31v-.75h2.29v.75Z"/><path d="M123.42,81.2l.81.2a2.71,2.71,0,0,1-.91,1.51,2.51,2.51,0,0,1-1.61.52,2.89,2.89,0,0,1-1.6-.4,2.5,2.5,0,0,1-.94-1.16,4.14,4.14,0,0,1-.32-1.63,3.58,3.58,0,0,1,.36-1.66,2.49,2.49,0,0,1,1-1.07,3,3,0,0,1,1.48-.37,2.5,2.5,0,0,1,1.54.46,2.41,2.41,0,0,1,.87,1.31l-.79.19a1.88,1.88,0,0,0-.61-1,1.64,1.64,0,0,0-1-.3,2,2,0,0,0-1.17.34,1.78,1.78,0,0,0-.66.9,3.63,3.63,0,0,0-.19,1.17,3.71,3.71,0,0,0,.23,1.35,1.69,1.69,0,0,0,.7.87,2,2,0,0,0,1,.29,1.73,1.73,0,0,0,1.15-.39A2,2,0,0,0,123.42,81.2Z"/><path d="M124.95,81.38l.76-.07a1.68,1.68,0,0,0,.25.75,1.38,1.38,0,0,0,.61.47,2.32,2.32,0,0,0,.93.18,2.24,2.24,0,0,0,.81-.14,1.13,1.13,0,0,0,.53-.38.88.88,0,0,0,.17-.52.79.79,0,0,0-.17-.5,1.23,1.23,0,0,0-.55-.36,10.63,10.63,0,0,0-1.08-.3,5.53,5.53,0,0,1-1.17-.38,1.65,1.65,0,0,1-.65-.57,1.39,1.39,0,0,1-.21-.76,1.54,1.54,0,0,1,.26-.86,1.61,1.61,0,0,1,.76-.61,2.89,2.89,0,0,1,1.12-.21,3,3,0,0,1,1.19.22,1.72,1.72,0,0,1,.79.64,1.84,1.84,0,0,1,.3,1l-.77.06a1.24,1.24,0,0,0-.42-.87,1.64,1.64,0,0,0-1.06-.29,1.7,1.7,0,0,0-1.06.27.8.8,0,0,0-.33.65.69.69,0,0,0,.24.54,3.2,3.2,0,0,0,1.21.43,8,8,0,0,1,1.35.39,1.85,1.85,0,0,1,.79.62,1.52,1.52,0,0,1,.25.87,1.65,1.65,0,0,1-.28.92,1.83,1.83,0,0,1-.8.67,2.78,2.78,0,0,1-1.17.24,3.51,3.51,0,0,1-1.38-.24,1.94,1.94,0,0,1-.88-.72A2.06,2.06,0,0,1,124.95,81.38Z"/><path d="M130.22,83.33l2.34-6.08h.87l2.49,6.08H135l-.71-1.84h-2.54l-.67,1.84Zm1.76-2.5H134l-.63-1.69q-.29-.77-.43-1.26a7.78,7.78,0,0,1-.33,1.16Z"/><path d="M140.54,83.33V81.88H137.9v-.68l2.78-3.94h.61v3.94h.82v.68h-.82v1.46Zm0-2.14V78.45l-1.9,2.74Z"/><path d="M143.3,83.33v-.85h.85v.85Z"/><path d="M147.63,83.33V81.88H145v-.68l2.78-3.94h.61v3.94h.82v.68h-.82v1.46Zm0-2.14V78.45l-1.91,2.74Z"/><path d="M155.41,82.79a2.78,2.78,0,0,1-.8.5,2.3,2.3,0,0,1-.82.15,1.6,1.6,0,0,1-1.12-.35,1.17,1.17,0,0,1-.39-.91,1.22,1.22,0,0,1,.53-1,1.8,1.8,0,0,1,.54-.24,5.3,5.3,0,0,1,.66-.11,6.81,6.81,0,0,0,1.33-.26c0-.1,0-.17,0-.19a.83.83,0,0,0-.21-.64,1.25,1.25,0,0,0-.85-.25,1.32,1.32,0,0,0-.78.18,1.13,1.13,0,0,0-.37.65l-.73-.1a1.81,1.81,0,0,1,.33-.76,1.43,1.43,0,0,1,.66-.44,2.94,2.94,0,0,1,1-.16,2.65,2.65,0,0,1,.92.13,1.21,1.21,0,0,1,.52.33,1.19,1.19,0,0,1,.23.51,4.28,4.28,0,0,1,0,.69v1a10.76,10.76,0,0,0,0,1.32,1.68,1.68,0,0,0,.19.53h-.78A1.57,1.57,0,0,1,155.41,82.79Zm-.06-1.67a5.51,5.51,0,0,1-1.22.28,2.77,2.77,0,0,0-.65.15.64.64,0,0,0-.4.6.63.63,0,0,0,.23.5,1,1,0,0,0,.66.2,1.54,1.54,0,0,0,.77-.19,1.16,1.16,0,0,0,.49-.52,1.81,1.81,0,0,0,.12-.75Z"/><path d="M157.26,83.33V78.92h.67v.63a1.58,1.58,0,0,1,1.4-.73,1.84,1.84,0,0,1,.73.14,1.15,1.15,0,0,1,.5.38,1.43,1.43,0,0,1,.23.55,4.19,4.19,0,0,1,0,.73v2.71h-.75V80.65A2,2,0,0,0,160,80a.71.71,0,0,0-.31-.36,1,1,0,0,0-.52-.13,1.21,1.21,0,0,0-.82.3,1.49,1.49,0,0,0-.35,1.15v2.41Z"/><path d="M164.85,83.33v-.56a1.37,1.37,0,0,1-1.23.66,1.72,1.72,0,0,1-1-.29,1.91,1.91,0,0,1-.69-.81,2.8,2.8,0,0,1-.24-1.2,3.12,3.12,0,0,1,.22-1.2,1.73,1.73,0,0,1,.66-.82,1.76,1.76,0,0,1,1-.29,1.47,1.47,0,0,1,.71.17,1.48,1.48,0,0,1,.51.44V77.25h.74v6.08Zm-2.36-2.2a1.92,1.92,0,0,0,.36,1.27,1.08,1.08,0,0,0,.84.42,1.06,1.06,0,0,0,.83-.4,1.85,1.85,0,0,0,.34-1.22,2.07,2.07,0,0,0-.35-1.33,1.07,1.07,0,0,0-.86-.42,1,1,0,0,0-.83.41A2,2,0,0,0,162.49,81.13Z"/><path d="M168,83.33l2.34-6.08h.87l2.49,6.08h-.92l-.71-1.84h-2.54l-.67,1.84Zm1.76-2.5h2.06l-.63-1.69q-.29-.77-.43-1.26a7.78,7.78,0,0,1-.33,1.16Z"/><path d="M174.1,81.38l.76-.07a1.68,1.68,0,0,0,.25.75,1.38,1.38,0,0,0,.61.47,2.32,2.32,0,0,0,.93.18,2.23,2.23,0,0,0,.81-.14,1.13,1.13,0,0,0,.53-.38.87.87,0,0,0,.17-.52.79.79,0,0,0-.17-.5,1.23,1.23,0,0,0-.55-.36,10.76,10.76,0,0,0-1.08-.3,5.52,5.52,0,0,1-1.17-.38,1.65,1.65,0,0,1-.65-.57,1.39,1.39,0,0,1-.21-.76,1.54,1.54,0,0,1,.26-.86,1.61,1.61,0,0,1,.76-.61,2.88,2.88,0,0,1,1.12-.21,3,3,0,0,1,1.19.22,1.72,1.72,0,0,1,.79.64,1.84,1.84,0,0,1,.3,1L178,79a1.24,1.24,0,0,0-.42-.87,1.63,1.63,0,0,0-1.06-.29,1.7,1.7,0,0,0-1.06.27.8.8,0,0,0-.33.65.69.69,0,0,0,.24.54,3.21,3.21,0,0,0,1.21.43,7.94,7.94,0,0,1,1.35.39,1.84,1.84,0,0,1,.79.62,1.51,1.51,0,0,1,.25.87,1.65,1.65,0,0,1-.28.92,1.83,1.83,0,0,1-.8.67,2.78,2.78,0,0,1-1.17.24,3.51,3.51,0,0,1-1.38-.24,1.94,1.94,0,0,1-.87-.72A2,2,0,0,1,174.1,81.38Z"/><path d="M180,83.33V77.25h1.21l1.44,4.31q.2.6.29.9.1-.33.32-1l1.46-4.23h1.08v6.08H185V78.24l-1.77,5.09h-.73l-1.76-5.18v5.18Z"/><path d="M187.14,83.33V77.25h4.4V78h-3.59v1.86h3.37v.71h-3.37v2.07h3.73v.72Z"/><path d="M197.94,81.72l.73.1a1.91,1.91,0,0,1-.62,1.19,1.79,1.79,0,0,1-1.22.43,1.89,1.89,0,0,1-1.46-.59,2.4,2.4,0,0,1-.55-1.7,3.08,3.08,0,0,1,.24-1.25,1.65,1.65,0,0,1,.72-.8,2.14,2.14,0,0,1,1.05-.27,1.83,1.83,0,0,1,1.17.36,1.66,1.66,0,0,1,.58,1l-.73.11a1.21,1.21,0,0,0-.37-.67,1,1,0,0,0-.64-.22,1.16,1.16,0,0,0-.92.4,1.91,1.91,0,0,0-.35,1.28,2,2,0,0,0,.34,1.29,1.11,1.11,0,0,0,.89.4,1,1,0,0,0,.73-.27A1.34,1.34,0,0,0,197.94,81.72Z"/><path d="M199,81.13a2.27,2.27,0,0,1,.68-1.81,2.05,2.05,0,0,1,1.39-.49,2,2,0,0,1,1.49.6,2.26,2.26,0,0,1,.58,1.65,2.92,2.92,0,0,1-.26,1.34,1.81,1.81,0,0,1-.74.76,2.17,2.17,0,0,1-1.06.27,2,2,0,0,1-1.5-.59A2.37,2.37,0,0,1,199,81.13Zm.77,0a1.88,1.88,0,0,0,.37,1.27,1.23,1.23,0,0,0,1.85,0,1.92,1.92,0,0,0,.37-1.29,1.82,1.82,0,0,0-.37-1.24,1.23,1.23,0,0,0-1.85,0A1.87,1.87,0,0,0,199.8,81.13Z"/><path d="M206.9,83.33v-.56a1.37,1.37,0,0,1-1.23.66,1.73,1.73,0,0,1-1-.29,1.91,1.91,0,0,1-.68-.81,2.81,2.81,0,0,1-.24-1.2,3.14,3.14,0,0,1,.22-1.2,1.73,1.73,0,0,1,.66-.82,1.76,1.76,0,0,1,1-.29,1.47,1.47,0,0,1,.71.17,1.49,1.49,0,0,1,.51.44V77.25h.74v6.08Zm-2.36-2.2a1.91,1.91,0,0,0,.36,1.27,1.08,1.08,0,0,0,.84.42,1.05,1.05,0,0,0,.83-.4,1.85,1.85,0,0,0,.34-1.22,2.07,2.07,0,0,0-.35-1.33,1.07,1.07,0,0,0-.86-.42,1,1,0,0,0-.83.41A2,2,0,0,0,204.53,81.13Z"/><path d="M211.78,81.91l.77.1a1.88,1.88,0,0,1-.68,1.05,2.29,2.29,0,0,1-2.79-.22,2.33,2.33,0,0,1-.57-1.67,2.44,2.44,0,0,1,.57-1.73,1.94,1.94,0,0,1,1.49-.61,1.89,1.89,0,0,1,1.44.6,2.39,2.39,0,0,1,.56,1.69s0,.11,0,.2h-3.29a1.7,1.7,0,0,0,.41,1.11,1.22,1.22,0,0,0,.92.39,1.14,1.14,0,0,0,.7-.22A1.43,1.43,0,0,0,211.78,81.91Zm-2.45-1.21h2.46a1.49,1.49,0,0,0-.28-.83,1.14,1.14,0,0,0-.93-.43,1.19,1.19,0,0,0-.87.34A1.36,1.36,0,0,0,209.33,80.71Z"/><path d="M213.7,83.33v-.85h.85v.85Z"/><circle cx="112.36" cy="59.59" r="1.76"/><path d="M119.49,104.86V98.78h2.3a5.62,5.62,0,0,1,.93.06,1.84,1.84,0,0,1,.75.28,1.49,1.49,0,0,1,.49.59,2,2,0,0,1-.31,2.14,2.36,2.36,0,0,1-1.78.54h-1.56v2.47Zm.81-3.19h1.57a1.67,1.67,0,0,0,1.11-.29,1,1,0,0,0,.33-.82,1.09,1.09,0,0,0-.19-.65.9.9,0,0,0-.51-.36,3.43,3.43,0,0,0-.75-.05h-1.56Z"/><path d="M125.05,104.86v-4.41h.67v.67a1.81,1.81,0,0,1,.48-.62.83.83,0,0,1,.48-.15,1.45,1.45,0,0,1,.77.24l-.26.69a1.06,1.06,0,0,0-.55-.16.71.71,0,0,0-.44.15.8.8,0,0,0-.28.41,2.91,2.91,0,0,0-.12.87v2.31Z"/><path d="M127.61,102.66a2.27,2.27,0,0,1,.68-1.81,2.05,2.05,0,0,1,1.39-.49,2,2,0,0,1,1.49.6,2.27,2.27,0,0,1,.58,1.65,2.92,2.92,0,0,1-.25,1.34,1.81,1.81,0,0,1-.74.76,2.16,2.16,0,0,1-1.06.27,2,2,0,0,1-1.5-.59A2.37,2.37,0,0,1,127.61,102.66Zm.77,0a1.88,1.88,0,0,0,.37,1.27,1.23,1.23,0,0,0,1.86,0,1.93,1.93,0,0,0,.37-1.29,1.82,1.82,0,0,0-.37-1.24,1.23,1.23,0,0,0-1.85,0A1.87,1.87,0,0,0,128.38,102.66Z"/><path d="M132.62,106.55v-6.1h.68V101a1.68,1.68,0,0,1,.54-.5,1.5,1.5,0,0,1,.73-.17,1.75,1.75,0,0,1,1,.29,1.78,1.78,0,0,1,.65.82,3,3,0,0,1,.22,1.16,2.94,2.94,0,0,1-.24,1.22,1.83,1.83,0,0,1-.71.83,1.8,1.8,0,0,1-1,.29,1.4,1.4,0,0,1-.67-.16,1.51,1.51,0,0,1-.49-.4v2.15Zm.68-3.87a1.91,1.91,0,0,0,.34,1.26,1.06,1.06,0,0,0,.83.41,1.08,1.08,0,0,0,.85-.42,2,2,0,0,0,.35-1.31,2,2,0,0,0-.35-1.26,1,1,0,0,0-.83-.42,1.08,1.08,0,0,0-.85.45A2,2,0,0,0,133.3,102.68Z"/><path d="M140.36,103.44l.77.1a1.88,1.88,0,0,1-.68,1.05,2,2,0,0,1-1.26.37,2,2,0,0,1-1.53-.6,2.32,2.32,0,0,1-.57-1.67,2.43,2.43,0,0,1,.57-1.73,1.94,1.94,0,0,1,1.49-.62,1.88,1.88,0,0,1,1.44.6,2.39,2.39,0,0,1,.56,1.69s0,.11,0,.2h-3.29a1.7,1.7,0,0,0,.41,1.11,1.23,1.23,0,0,0,.92.39,1.14,1.14,0,0,0,.7-.22A1.43,1.43,0,0,0,140.36,103.44Zm-2.45-1.21h2.46a1.5,1.5,0,0,0-.28-.83,1.15,1.15,0,0,0-.93-.43,1.18,1.18,0,0,0-.87.34A1.37,1.37,0,0,0,137.91,102.23Z"/><path d="M142.07,104.86v-4.41h.67v.67a1.79,1.79,0,0,1,.48-.62.83.83,0,0,1,.48-.15,1.45,1.45,0,0,1,.77.24l-.26.69a1.06,1.06,0,0,0-.55-.16.71.71,0,0,0-.44.15.79.79,0,0,0-.28.41,2.91,2.91,0,0,0-.12.87v2.31Z"/><path d="M144.89,104.86V98.78h.75v6.08Z"/><path d="M146.76,106.56l-.08-.7a1.65,1.65,0,0,0,.43.07.82.82,0,0,0,.4-.08.67.67,0,0,0,.24-.23,3.56,3.56,0,0,0,.23-.56l.07-.18-1.67-4.42h.8l.92,2.55q.18.49.32,1a10.07,10.07,0,0,1,.31-1l.94-2.57h.75l-1.68,4.48a8.75,8.75,0,0,1-.42,1,1.49,1.49,0,0,1-.46.54,1.09,1.09,0,0,1-.62.17A1.5,1.5,0,0,1,146.76,106.56Z"/><path d="M153.11,103.55l.74-.12a1,1,0,0,0,.35.68,1.21,1.21,0,0,0,.79.24,1.16,1.16,0,0,0,.76-.21.62.62,0,0,0,.25-.49.45.45,0,0,0-.22-.4A3.22,3.22,0,0,0,155,103a7,7,0,0,1-1.14-.36,1.09,1.09,0,0,1-.65-1,1.14,1.14,0,0,1,.14-.55,1.2,1.2,0,0,1,.37-.42,1.52,1.52,0,0,1,.47-.22,2.26,2.26,0,0,1,.65-.09,2.55,2.55,0,0,1,.91.15,1.24,1.24,0,0,1,.58.4,1.58,1.58,0,0,1,.26.68l-.73.1a.8.8,0,0,0-.29-.53,1.05,1.05,0,0,0-.67-.19,1.22,1.22,0,0,0-.73.17.5.5,0,0,0-.22.4.42.42,0,0,0,.09.26.66.66,0,0,0,.29.2l.66.19a9.32,9.32,0,0,1,1.11.35,1.12,1.12,0,0,1,.49.39,1.09,1.09,0,0,1,.18.64,1.25,1.25,0,0,1-.22.7,1.4,1.4,0,0,1-.63.51,2.29,2.29,0,0,1-.93.18,2.07,2.07,0,0,1-1.31-.36A1.66,1.66,0,0,1,153.11,103.55Z"/><path d="M157.66,99.63v-.86h.75v.86Zm0,5.23v-4.41h.75v4.41Z"/><path d="M159.15,104.86v-.61L162,101l-.84,0h-1.8v-.61h3.6v.49l-2.39,2.8-.46.51q.5,0,.94,0h2v.64Z"/><path d="M166.81,103.44l.77.1a1.89,1.89,0,0,1-.68,1.05,2.29,2.29,0,0,1-2.79-.22,2.33,2.33,0,0,1-.57-1.67,2.44,2.44,0,0,1,.57-1.73,1.94,1.94,0,0,1,1.49-.62,1.89,1.89,0,0,1,1.45.6,2.39,2.39,0,0,1,.56,1.69s0,.11,0,.2h-3.29a1.7,1.7,0,0,0,.41,1.11,1.22,1.22,0,0,0,.92.39,1.14,1.14,0,0,0,.7-.22A1.43,1.43,0,0,0,166.81,103.44Zm-2.45-1.21h2.46a1.49,1.49,0,0,0-.28-.83,1.14,1.14,0,0,0-.93-.43,1.19,1.19,0,0,0-.87.34A1.36,1.36,0,0,0,164.36,102.23Z"/><path d="M171.38,104.86v-.56a1.37,1.37,0,0,1-1.23.66,1.72,1.72,0,0,1-1-.29,1.91,1.91,0,0,1-.69-.81,2.8,2.8,0,0,1-.24-1.2,3.11,3.11,0,0,1,.22-1.2,1.73,1.73,0,0,1,.66-.82,1.76,1.76,0,0,1,1-.29,1.47,1.47,0,0,1,.71.17,1.5,1.5,0,0,1,.51.44V98.78h.74v6.08Zm-2.36-2.2a1.92,1.92,0,0,0,.36,1.27,1.08,1.08,0,0,0,.84.42,1.06,1.06,0,0,0,.83-.4,1.85,1.85,0,0,0,.34-1.22,2.07,2.07,0,0,0-.35-1.33,1.07,1.07,0,0,0-.86-.42,1,1,0,0,0-.83.41A2,2,0,0,0,169,102.66Z"/><path d="M177.24,104.19l.11.66a2.8,2.8,0,0,1-.56.07,1.27,1.27,0,0,1-.63-.13.73.73,0,0,1-.32-.34,2.7,2.7,0,0,1-.09-.88V101h-.55v-.58h.55V99.36l.74-.45v1.54h.75V101h-.75v2.58a1.31,1.31,0,0,0,0,.41.31.31,0,0,0,.13.14.49.49,0,0,0,.25.05Z"/><path d="M181,103.44l.77.1a1.89,1.89,0,0,1-.68,1.05,2.29,2.29,0,0,1-2.79-.22,2.33,2.33,0,0,1-.57-1.67,2.44,2.44,0,0,1,.57-1.73,1.94,1.94,0,0,1,1.49-.62,1.89,1.89,0,0,1,1.45.6,2.39,2.39,0,0,1,.56,1.69s0,.11,0,.2h-3.29a1.7,1.7,0,0,0,.41,1.11,1.22,1.22,0,0,0,.92.39,1.14,1.14,0,0,0,.7-.22A1.43,1.43,0,0,0,181,103.44Zm-2.45-1.21H181a1.49,1.49,0,0,0-.28-.83,1.14,1.14,0,0,0-.93-.43,1.19,1.19,0,0,0-.87.34A1.36,1.36,0,0,0,178.54,102.23Z"/><path d="M182.7,104.86v-4.41h.67v.62a1.58,1.58,0,0,1,.55-.52,1.56,1.56,0,0,1,.78-.2,1.45,1.45,0,0,1,.8.2,1.09,1.09,0,0,1,.44.57,1.58,1.58,0,0,1,1.36-.77,1.34,1.34,0,0,1,1,.36,1.55,1.55,0,0,1,.35,1.12v3h-.74v-2.78a2,2,0,0,0-.07-.65.62.62,0,0,0-.26-.32.81.81,0,0,0-.45-.12,1,1,0,0,0-.77.31,1.37,1.37,0,0,0-.31,1v2.56h-.75V102a1.26,1.26,0,0,0-.18-.75.69.69,0,0,0-.6-.25,1.08,1.08,0,0,0-.58.17.93.93,0,0,0-.39.49,2.74,2.74,0,0,0-.12.92v2.29Z"/><path d="M189.78,106.55v-6.1h.68V101a1.7,1.7,0,0,1,.54-.5,1.51,1.51,0,0,1,.74-.17,1.75,1.75,0,0,1,1,.29,1.78,1.78,0,0,1,.65.82,3,3,0,0,1,.22,1.16,2.94,2.94,0,0,1-.24,1.22,1.85,1.85,0,0,1-1.68,1.12,1.4,1.4,0,0,1-.67-.16,1.5,1.5,0,0,1-.49-.4v2.15Zm.68-3.87a1.91,1.91,0,0,0,.34,1.26,1.06,1.06,0,0,0,.83.41,1.08,1.08,0,0,0,.85-.42,2,2,0,0,0,.35-1.31,1.94,1.94,0,0,0-.35-1.26,1,1,0,0,0-.83-.42,1.07,1.07,0,0,0-.84.45A2,2,0,0,0,190.46,102.68Z"/><path d="M197.52,103.44l.77.1a1.89,1.89,0,0,1-.68,1.05,2.29,2.29,0,0,1-2.79-.22,2.33,2.33,0,0,1-.57-1.67,2.44,2.44,0,0,1,.57-1.73,1.94,1.94,0,0,1,1.49-.62,1.89,1.89,0,0,1,1.45.6,2.39,2.39,0,0,1,.56,1.69s0,.11,0,.2H195a1.7,1.7,0,0,0,.41,1.11,1.22,1.22,0,0,0,.92.39,1.14,1.14,0,0,0,.7-.22A1.43,1.43,0,0,0,197.52,103.44Zm-2.45-1.21h2.46a1.49,1.49,0,0,0-.28-.83,1.14,1.14,0,0,0-.93-.43,1.19,1.19,0,0,0-.87.34A1.36,1.36,0,0,0,195.07,102.23Z"/><path d="M199.22,104.86v-4.41h.67v.67a1.83,1.83,0,0,1,.47-.62.83.83,0,0,1,.48-.15,1.46,1.46,0,0,1,.77.24l-.26.69a1.06,1.06,0,0,0-.55-.16.72.72,0,0,0-.44.15.8.8,0,0,0-.28.41,2.91,2.91,0,0,0-.12.87v2.31Z"/><path d="M204.94,104.32a2.78,2.78,0,0,1-.8.5,2.32,2.32,0,0,1-.82.15,1.6,1.6,0,0,1-1.12-.36,1.17,1.17,0,0,1-.39-.91,1.21,1.21,0,0,1,.15-.59,1.23,1.23,0,0,1,.39-.43,1.8,1.8,0,0,1,.54-.24,5.3,5.3,0,0,1,.66-.11,6.78,6.78,0,0,0,1.33-.26c0-.1,0-.17,0-.2a.83.83,0,0,0-.21-.64,1.25,1.25,0,0,0-.85-.25,1.32,1.32,0,0,0-.78.18,1.13,1.13,0,0,0-.37.65l-.73-.1a1.82,1.82,0,0,1,.33-.76,1.44,1.44,0,0,1,.66-.44,3,3,0,0,1,1-.16,2.66,2.66,0,0,1,.92.13,1.22,1.22,0,0,1,.52.33,1.19,1.19,0,0,1,.23.51,4.29,4.29,0,0,1,0,.69v1a10.75,10.75,0,0,0,0,1.32,1.69,1.69,0,0,0,.19.53h-.78A1.57,1.57,0,0,1,204.94,104.32Zm-.06-1.67a5.54,5.54,0,0,1-1.22.28,2.77,2.77,0,0,0-.65.15.64.64,0,0,0-.29.24.66.66,0,0,0,.12.85,1,1,0,0,0,.66.2,1.55,1.55,0,0,0,.77-.19,1.16,1.16,0,0,0,.49-.52,1.81,1.81,0,0,0,.12-.75Z"/><path d="M208.42,104.19l.11.66a2.8,2.8,0,0,1-.56.07,1.27,1.27,0,0,1-.63-.13.73.73,0,0,1-.32-.34,2.67,2.67,0,0,1-.09-.88V101h-.55v-.58h.55V99.36l.74-.45v1.54h.75V101h-.75v2.58a1.34,1.34,0,0,0,0,.41.32.32,0,0,0,.13.14.5.5,0,0,0,.26.05Z"/><path d="M212,104.86v-.65a1.61,1.61,0,0,1-1.4.75,1.78,1.78,0,0,1-.73-.15,1.19,1.19,0,0,1-.5-.38,1.4,1.4,0,0,1-.23-.55,3.71,3.71,0,0,1,0-.7v-2.73h.75v2.45a4.49,4.49,0,0,0,0,.79.78.78,0,0,0,.3.46.93.93,0,0,0,.56.17,1.23,1.23,0,0,0,.63-.17,1,1,0,0,0,.42-.47,2.36,2.36,0,0,0,.12-.86v-2.36h.75v4.41Z"/><path d="M213.87,104.86v-4.41h.67v.67a1.81,1.81,0,0,1,.48-.62.83.83,0,0,1,.48-.15,1.45,1.45,0,0,1,.77.24l-.26.69a1.06,1.06,0,0,0-.55-.16.71.71,0,0,0-.44.15.8.8,0,0,0-.28.41,2.94,2.94,0,0,0-.12.87v2.31Z"/><path d="M219.73,103.44l.77.1a1.89,1.89,0,0,1-.68,1.05,2,2,0,0,1-1.26.37,2,2,0,0,1-1.53-.6,2.32,2.32,0,0,1-.57-1.67A2.43,2.43,0,0,1,217,101a1.94,1.94,0,0,1,1.49-.62,1.89,1.89,0,0,1,1.44.6,2.39,2.39,0,0,1,.56,1.69s0,.11,0,.2h-3.29a1.7,1.7,0,0,0,.41,1.11,1.22,1.22,0,0,0,.92.39,1.14,1.14,0,0,0,.7-.22A1.43,1.43,0,0,0,219.73,103.44Zm-2.45-1.21h2.46a1.5,1.5,0,0,0-.28-.83,1.15,1.15,0,0,0-.93-.43,1.19,1.19,0,0,0-.87.34A1.36,1.36,0,0,0,217.28,102.23Z"/><path d="M221.15,103v-.75h2.29V103Z"/><path d="M119.39,116.75v-6.1h.68v.57a1.66,1.66,0,0,1,.54-.5,1.49,1.49,0,0,1,.73-.17,1.74,1.74,0,0,1,1,.29,1.79,1.79,0,0,1,.65.82,3,3,0,0,1,.22,1.16A3,3,0,0,1,123,114a1.84,1.84,0,0,1-1.68,1.12,1.41,1.41,0,0,1-.67-.16,1.53,1.53,0,0,1-.49-.4v2.15Zm.68-3.87a1.92,1.92,0,0,0,.34,1.26,1.06,1.06,0,0,0,.83.41,1.08,1.08,0,0,0,.85-.42,2,2,0,0,0,.35-1.3,2,2,0,0,0-.35-1.26,1,1,0,0,0-.83-.42,1.08,1.08,0,0,0-.84.45A2,2,0,0,0,120.07,112.88Z"/><path d="M124.11,115.06v-4.41h.67v.67a1.82,1.82,0,0,1,.48-.62.83.83,0,0,1,.48-.15,1.46,1.46,0,0,1,.77.24l-.26.69a1.06,1.06,0,0,0-.55-.16.71.71,0,0,0-.44.15.8.8,0,0,0-.28.41,2.91,2.91,0,0,0-.12.87v2.31Z"/><path d="M130,113.64l.77.09a1.88,1.88,0,0,1-.68,1,2.29,2.29,0,0,1-2.79-.22,2.33,2.33,0,0,1-.57-1.67,2.44,2.44,0,0,1,.57-1.73,1.94,1.94,0,0,1,1.49-.61,1.89,1.89,0,0,1,1.44.6,2.39,2.39,0,0,1,.56,1.69s0,.11,0,.2h-3.29a1.7,1.7,0,0,0,.41,1.11,1.22,1.22,0,0,0,.92.39,1.14,1.14,0,0,0,.7-.22A1.44,1.44,0,0,0,130,113.64Zm-2.45-1.21H130a1.49,1.49,0,0,0-.28-.83,1.15,1.15,0,0,0-.93-.43,1.19,1.19,0,0,0-.87.34A1.36,1.36,0,0,0,127.51,112.43Z"/><path d="M131.38,113.75l.74-.12a1,1,0,0,0,.35.68,1.21,1.21,0,0,0,.79.24,1.17,1.17,0,0,0,.76-.21.63.63,0,0,0,.25-.49.45.45,0,0,0-.22-.4,3.3,3.3,0,0,0-.76-.25,7,7,0,0,1-1.14-.36,1.09,1.09,0,0,1-.65-1,1.14,1.14,0,0,1,.13-.55,1.22,1.22,0,0,1,.37-.42,1.56,1.56,0,0,1,.48-.22,2.26,2.26,0,0,1,.65-.09,2.55,2.55,0,0,1,.91.15,1.24,1.24,0,0,1,.58.41,1.58,1.58,0,0,1,.26.68l-.73.1a.8.8,0,0,0-.29-.53,1.06,1.06,0,0,0-.67-.19,1.21,1.21,0,0,0-.73.17.5.5,0,0,0-.22.4.41.41,0,0,0,.09.26.67.67,0,0,0,.29.2l.66.19a9.07,9.07,0,0,1,1.11.35,1.12,1.12,0,0,1,.49.39,1.1,1.1,0,0,1,.18.64,1.26,1.26,0,0,1-.22.7,1.41,1.41,0,0,1-.63.51,2.28,2.28,0,0,1-.93.18,2.07,2.07,0,0,1-1.31-.36A1.66,1.66,0,0,1,131.38,113.75Z"/><path d="M135.63,113.75l.74-.12a1,1,0,0,0,.35.68,1.21,1.21,0,0,0,.79.24,1.17,1.17,0,0,0,.76-.21.63.63,0,0,0,.25-.49.45.45,0,0,0-.22-.4,3.3,3.3,0,0,0-.76-.25,7,7,0,0,1-1.14-.36,1.09,1.09,0,0,1-.65-1,1.14,1.14,0,0,1,.13-.55,1.22,1.22,0,0,1,.37-.42,1.56,1.56,0,0,1,.48-.22,2.26,2.26,0,0,1,.65-.09,2.55,2.55,0,0,1,.91.15,1.24,1.24,0,0,1,.58.41,1.58,1.58,0,0,1,.26.68l-.73.1a.8.8,0,0,0-.29-.53,1.06,1.06,0,0,0-.67-.19,1.21,1.21,0,0,0-.73.17.5.5,0,0,0-.22.4.41.41,0,0,0,.09.26.67.67,0,0,0,.29.2l.66.19a9.07,9.07,0,0,1,1.11.35,1.12,1.12,0,0,1,.49.39,1.1,1.1,0,0,1,.18.64,1.26,1.26,0,0,1-.22.7,1.41,1.41,0,0,1-.63.51,2.28,2.28,0,0,1-.93.18,2.07,2.07,0,0,1-1.31-.36A1.66,1.66,0,0,1,135.63,113.75Z"/><path d="M143.07,115.06v-.65a1.61,1.61,0,0,1-1.4.75,1.79,1.79,0,0,1-.73-.15,1.21,1.21,0,0,1-.5-.37,1.42,1.42,0,0,1-.23-.55,3.91,3.91,0,0,1,0-.7v-2.73h.75v2.44a4.26,4.26,0,0,0,0,.79.77.77,0,0,0,.3.46.92.92,0,0,0,.56.17,1.23,1.23,0,0,0,.63-.17,1,1,0,0,0,.42-.47A2.35,2.35,0,0,0,143,113v-2.36h.75v4.41Z"/><path d="M144.9,115.06v-4.41h.67v.67a1.84,1.84,0,0,1,.47-.62.83.83,0,0,1,.48-.15,1.46,1.46,0,0,1,.77.24l-.26.69a1.06,1.06,0,0,0-.55-.16.71.71,0,0,0-.44.15.8.8,0,0,0-.28.41,2.91,2.91,0,0,0-.12.87v2.31Z"/><path d="M150.75,113.64l.77.09a1.88,1.88,0,0,1-.68,1,2.29,2.29,0,0,1-2.79-.22,2.33,2.33,0,0,1-.57-1.67,2.44,2.44,0,0,1,.57-1.73,1.94,1.94,0,0,1,1.49-.61,1.89,1.89,0,0,1,1.44.6,2.39,2.39,0,0,1,.56,1.69s0,.11,0,.2h-3.29a1.7,1.7,0,0,0,.41,1.11,1.22,1.22,0,0,0,.92.39,1.14,1.14,0,0,0,.7-.22A1.44,1.44,0,0,0,150.75,113.64Zm-2.45-1.21h2.46a1.49,1.49,0,0,0-.28-.83,1.15,1.15,0,0,0-.93-.43,1.19,1.19,0,0,0-.87.34A1.36,1.36,0,0,0,148.3,112.43Z"/><path d="M154.82,115.06v-4.41h.67v.67a1.81,1.81,0,0,1,.48-.62.83.83,0,0,1,.48-.15,1.46,1.46,0,0,1,.77.24l-.26.69a1.06,1.06,0,0,0-.55-.16.71.71,0,0,0-.44.15.8.8,0,0,0-.28.41,2.91,2.91,0,0,0-.12.87v2.31Z"/><path d="M160.67,113.64l.77.09a1.88,1.88,0,0,1-.68,1,2.29,2.29,0,0,1-2.79-.22,2.33,2.33,0,0,1-.57-1.67,2.44,2.44,0,0,1,.57-1.73,1.94,1.94,0,0,1,1.49-.61,1.89,1.89,0,0,1,1.44.6,2.39,2.39,0,0,1,.56,1.69s0,.11,0,.2h-3.29a1.7,1.7,0,0,0,.41,1.11,1.22,1.22,0,0,0,.92.39,1.14,1.14,0,0,0,.7-.22A1.44,1.44,0,0,0,160.67,113.64Zm-2.45-1.21h2.46a1.49,1.49,0,0,0-.28-.83,1.15,1.15,0,0,0-.93-.43,1.19,1.19,0,0,0-.87.34A1.36,1.36,0,0,0,158.22,112.43Z"/><path d="M162.37,115.06V109h.75v6.08Z"/><path d="M164.27,109.84V109H165v.86Zm0,5.23v-4.41H165v4.41Z"/><path d="M169.18,113.64l.77.09a1.88,1.88,0,0,1-.68,1,2.29,2.29,0,0,1-2.79-.22,2.33,2.33,0,0,1-.57-1.67,2.44,2.44,0,0,1,.57-1.73,1.94,1.94,0,0,1,1.49-.61,1.89,1.89,0,0,1,1.44.6,2.39,2.39,0,0,1,.56,1.69s0,.11,0,.2h-3.29a1.7,1.7,0,0,0,.41,1.11,1.22,1.22,0,0,0,.92.39,1.14,1.14,0,0,0,.7-.22A1.44,1.44,0,0,0,169.18,113.64Zm-2.45-1.21h2.46a1.49,1.49,0,0,0-.28-.83,1.15,1.15,0,0,0-.93-.43,1.19,1.19,0,0,0-.87.34A1.36,1.36,0,0,0,166.72,112.43Z"/><path d="M171.07,115.06v-3.83h-.66v-.58h.66v-.47a2,2,0,0,1,.08-.66,1,1,0,0,1,.38-.47,1.37,1.37,0,0,1,.76-.18,3.67,3.67,0,0,1,.7.08l-.11.65a2.52,2.52,0,0,0-.44,0,.66.66,0,0,0-.48.14.79.79,0,0,0-.14.54v.41h.86v.58h-.86v3.83Z"/><path d="M176.83,115.06l-1.68-4.41h.79l.95,2.64c.1.29.2.58.28.89q.1-.35.28-.84l1-2.69h.77l-1.67,4.41Z"/><path d="M182.74,114.52a2.78,2.78,0,0,1-.8.5,2.29,2.29,0,0,1-.82.15,1.6,1.6,0,0,1-1.12-.35,1.17,1.17,0,0,1-.39-.91,1.22,1.22,0,0,1,.53-1,1.8,1.8,0,0,1,.54-.25,5.3,5.3,0,0,1,.66-.11,6.84,6.84,0,0,0,1.33-.26c0-.1,0-.17,0-.19a.83.83,0,0,0-.21-.64,1.25,1.25,0,0,0-.85-.25,1.32,1.32,0,0,0-.78.18,1.13,1.13,0,0,0-.37.65l-.73-.1a1.8,1.8,0,0,1,.33-.76,1.43,1.43,0,0,1,.66-.44,2.93,2.93,0,0,1,1-.16,2.64,2.64,0,0,1,.92.13,1.2,1.2,0,0,1,.52.33,1.18,1.18,0,0,1,.23.51,4.28,4.28,0,0,1,0,.69v1a10.76,10.76,0,0,0,0,1.32,1.68,1.68,0,0,0,.19.53h-.78A1.58,1.58,0,0,1,182.74,114.52Zm-.06-1.67a5.48,5.48,0,0,1-1.22.28,2.77,2.77,0,0,0-.65.15.64.64,0,0,0-.4.6.63.63,0,0,0,.23.5,1,1,0,0,0,.66.2,1.53,1.53,0,0,0,.77-.19,1.15,1.15,0,0,0,.49-.52,1.81,1.81,0,0,0,.12-.75Z"/><path d="M184.57,115.06V109h.75v6.08Z"/><path d="M187.7,115.06,186,110.65h.79l.95,2.64c.1.29.2.58.28.89q.1-.35.28-.84l1-2.69h.77l-1.67,4.41Z"/><path d="M193.74,113.64l.77.09a1.88,1.88,0,0,1-.68,1,2.29,2.29,0,0,1-2.79-.22,2.33,2.33,0,0,1-.57-1.67,2.44,2.44,0,0,1,.57-1.73,1.94,1.94,0,0,1,1.49-.61,1.89,1.89,0,0,1,1.44.6,2.39,2.39,0,0,1,.56,1.69s0,.11,0,.2h-3.29a1.7,1.7,0,0,0,.41,1.11,1.22,1.22,0,0,0,.92.39,1.14,1.14,0,0,0,.7-.22A1.44,1.44,0,0,0,193.74,113.64Zm-2.45-1.21h2.46a1.49,1.49,0,0,0-.28-.83,1.15,1.15,0,0,0-.93-.43,1.19,1.19,0,0,0-.87.34A1.36,1.36,0,0,0,191.29,112.43Z"/><path d="M197.81,115.06v-4.41h.67v.62a1.55,1.55,0,0,1,1.34-.72,1.45,1.45,0,0,1,.8.2,1.08,1.08,0,0,1,.44.57,1.58,1.58,0,0,1,1.36-.77,1.34,1.34,0,0,1,1,.36,1.55,1.55,0,0,1,.35,1.12v3H203v-2.78a2.07,2.07,0,0,0-.07-.65.63.63,0,0,0-.26-.32.83.83,0,0,0-.45-.12,1,1,0,0,0-.77.31,1.36,1.36,0,0,0-.31,1v2.56h-.75V112.2a1.26,1.26,0,0,0-.18-.75.69.69,0,0,0-.6-.25,1.09,1.09,0,0,0-.58.17,1,1,0,0,0-.39.49,2.73,2.73,0,0,0-.12.92v2.29Z"/><path d="M207.78,115.06v-.65a1.61,1.61,0,0,1-1.4.75,1.79,1.79,0,0,1-.73-.15,1.21,1.21,0,0,1-.5-.37,1.42,1.42,0,0,1-.23-.55,3.91,3.91,0,0,1,0-.7v-2.73h.75v2.44a4.26,4.26,0,0,0,0,.79.77.77,0,0,0,.3.46.92.92,0,0,0,.56.17,1.23,1.23,0,0,0,.63-.17,1,1,0,0,0,.42-.47,2.35,2.35,0,0,0,.12-.86v-2.36h.75v4.41Z"/><path d="M209.32,113.75l.74-.12a1,1,0,0,0,.35.68,1.21,1.21,0,0,0,.79.24,1.17,1.17,0,0,0,.76-.21.63.63,0,0,0,.25-.49.45.45,0,0,0-.22-.4,3.3,3.3,0,0,0-.76-.25,7,7,0,0,1-1.14-.36,1.09,1.09,0,0,1-.65-1,1.14,1.14,0,0,1,.14-.55,1.21,1.21,0,0,1,.37-.42,1.52,1.52,0,0,1,.47-.22,2.26,2.26,0,0,1,.65-.09,2.55,2.55,0,0,1,.91.15,1.24,1.24,0,0,1,.58.41,1.58,1.58,0,0,1,.26.68l-.73.1a.8.8,0,0,0-.29-.53,1.06,1.06,0,0,0-.67-.19,1.21,1.21,0,0,0-.73.17.5.5,0,0,0-.22.4.41.41,0,0,0,.09.26.66.66,0,0,0,.29.2l.66.19a9.13,9.13,0,0,1,1.11.35,1.13,1.13,0,0,1,.49.39,1.09,1.09,0,0,1,.18.64,1.26,1.26,0,0,1-.22.7,1.41,1.41,0,0,1-.63.51,2.27,2.27,0,0,1-.93.18,2.08,2.08,0,0,1-1.31-.36A1.66,1.66,0,0,1,209.32,113.75Z"/><path d="M215.5,114.39l.11.66a2.72,2.72,0,0,1-.56.07,1.29,1.29,0,0,1-.63-.13.72.72,0,0,1-.31-.34,2.65,2.65,0,0,1-.09-.88v-2.54h-.55v-.58H214v-1.09l.74-.45v1.54h.75v.58h-.75v2.58a1.3,1.3,0,0,0,0,.41.31.31,0,0,0,.13.15.5.5,0,0,0,.25.05Z"/><path d="M219.28,115.06h-.69V109h.75v2.17a1.48,1.48,0,0,1,1.21-.59,1.85,1.85,0,0,1,.77.16,1.57,1.57,0,0,1,.6.46,2.22,2.22,0,0,1,.37.72,2.94,2.94,0,0,1,.13.9,2.52,2.52,0,0,1-.56,1.75,1.75,1.75,0,0,1-1.34.62,1.4,1.4,0,0,1-1.22-.65Zm0-2.24a2.29,2.29,0,0,0,.21,1.15,1.07,1.07,0,0,0,1.8.15,1.93,1.93,0,0,0,.36-1.27,2,2,0,0,0-.34-1.27,1,1,0,0,0-.83-.41,1.08,1.08,0,0,0-.85.43A1.87,1.87,0,0,0,219.28,112.82Z"/><path d="M226.34,113.64l.77.09a1.88,1.88,0,0,1-.68,1,2.29,2.29,0,0,1-2.79-.22,2.33,2.33,0,0,1-.57-1.67,2.44,2.44,0,0,1,.57-1.73,1.94,1.94,0,0,1,1.49-.61,1.89,1.89,0,0,1,1.44.6,2.39,2.39,0,0,1,.56,1.69s0,.11,0,.2h-3.29a1.69,1.69,0,0,0,.41,1.11,1.22,1.22,0,0,0,.92.39,1.15,1.15,0,0,0,.7-.22A1.43,1.43,0,0,0,226.34,113.64Zm-2.45-1.21h2.46a1.5,1.5,0,0,0-.28-.83,1.15,1.15,0,0,0-.93-.43,1.19,1.19,0,0,0-.87.34A1.36,1.36,0,0,0,223.89,112.43Z"/><path d="M119.4,120v-.86h.75V120Zm0,5.23v-4.41h.75v4.41Z"/><path d="M121.28,125.26v-4.41H122v.63a1.59,1.59,0,0,1,1.4-.73,1.85,1.85,0,0,1,.73.14,1.15,1.15,0,0,1,.5.38,1.43,1.43,0,0,1,.23.55,4.27,4.27,0,0,1,0,.73v2.71h-.75v-2.68a2,2,0,0,0-.09-.68.71.71,0,0,0-.31-.36,1,1,0,0,0-.52-.13,1.21,1.21,0,0,0-.82.3,1.49,1.49,0,0,0-.35,1.15v2.41Z"/><path d="M125.71,123.94l.74-.12a1,1,0,0,0,.35.68,1.21,1.21,0,0,0,.79.24,1.17,1.17,0,0,0,.76-.21.63.63,0,0,0,.25-.49.46.46,0,0,0-.22-.4,3.25,3.25,0,0,0-.76-.25,7,7,0,0,1-1.14-.36,1.09,1.09,0,0,1-.65-1,1.14,1.14,0,0,1,.14-.54,1.21,1.21,0,0,1,.37-.42,1.51,1.51,0,0,1,.48-.22,2.22,2.22,0,0,1,.64-.09,2.56,2.56,0,0,1,.91.15,1.24,1.24,0,0,1,.58.41,1.57,1.57,0,0,1,.26.68l-.73.1a.8.8,0,0,0-.29-.53,1.05,1.05,0,0,0-.67-.19,1.21,1.21,0,0,0-.73.17.5.5,0,0,0-.22.4.41.41,0,0,0,.09.26.66.66,0,0,0,.29.2l.66.19a9.24,9.24,0,0,1,1.11.35,1.12,1.12,0,0,1,.49.39,1.09,1.09,0,0,1,.18.64,1.25,1.25,0,0,1-.22.7,1.39,1.39,0,0,1-.63.51,2.27,2.27,0,0,1-.93.18,2.07,2.07,0,0,1-1.31-.36A1.66,1.66,0,0,1,125.71,123.94Z"/><path d="M131.89,124.59l.11.66a2.8,2.8,0,0,1-.56.07,1.29,1.29,0,0,1-.63-.13.73.73,0,0,1-.32-.34,2.66,2.66,0,0,1-.09-.88v-2.54h-.55v-.58h.55v-1.09l.74-.45v1.54h.75v.58h-.75V124a1.34,1.34,0,0,0,0,.41.32.32,0,0,0,.13.15.51.51,0,0,0,.26.05Z"/><path d="M135.5,124.72a2.73,2.73,0,0,1-.8.5,2.29,2.29,0,0,1-.82.15,1.6,1.6,0,0,1-1.12-.36,1.17,1.17,0,0,1-.39-.91,1.2,1.2,0,0,1,.15-.59,1.21,1.21,0,0,1,.38-.43,1.83,1.83,0,0,1,.54-.24,5.45,5.45,0,0,1,.66-.11,6.78,6.78,0,0,0,1.33-.26c0-.1,0-.17,0-.19a.83.83,0,0,0-.21-.64,1.26,1.26,0,0,0-.85-.25,1.33,1.33,0,0,0-.78.18,1.13,1.13,0,0,0-.37.65l-.73-.1a1.81,1.81,0,0,1,.33-.76,1.43,1.43,0,0,1,.66-.44,2.92,2.92,0,0,1,1-.16,2.66,2.66,0,0,1,.92.13,1.19,1.19,0,0,1,.52.33,1.17,1.17,0,0,1,.23.51,4.14,4.14,0,0,1,0,.69v1a10.49,10.49,0,0,0,0,1.32,1.65,1.65,0,0,0,.19.53h-.78A1.58,1.58,0,0,1,135.5,124.72Zm-.06-1.67a5.46,5.46,0,0,1-1.22.28,2.81,2.81,0,0,0-.65.15.65.65,0,0,0-.29.24.66.66,0,0,0,.12.85,1,1,0,0,0,.66.2,1.54,1.54,0,0,0,.77-.19,1.16,1.16,0,0,0,.49-.52,1.81,1.81,0,0,0,.12-.75Z"/><path d="M137.33,125.26v-6.08h.75v6.08Z"/><path d="M139.22,125.26v-6.08H140v6.08Z"/><path d="M144.14,123.84l.77.1a1.88,1.88,0,0,1-.68,1,2.29,2.29,0,0,1-2.79-.22,2.33,2.33,0,0,1-.57-1.67,2.44,2.44,0,0,1,.57-1.73,1.94,1.94,0,0,1,1.49-.61,1.89,1.89,0,0,1,1.44.6,2.39,2.39,0,0,1,.56,1.69s0,.11,0,.2h-3.29a1.7,1.7,0,0,0,.41,1.11,1.23,1.23,0,0,0,.92.38,1.14,1.14,0,0,0,.7-.21A1.44,1.44,0,0,0,144.14,123.84Zm-2.45-1.21h2.46a1.49,1.49,0,0,0-.28-.83,1.14,1.14,0,0,0-.93-.43,1.18,1.18,0,0,0-.87.34A1.36,1.36,0,0,0,141.69,122.63Z"/><path d="M148.71,125.26v-.56a1.37,1.37,0,0,1-1.23.66,1.73,1.73,0,0,1-1-.29,1.91,1.91,0,0,1-.68-.81,2.81,2.81,0,0,1-.24-1.2,3.14,3.14,0,0,1,.22-1.2,1.72,1.72,0,0,1,.66-.82,1.76,1.76,0,0,1,1-.29,1.47,1.47,0,0,1,1.22.61v-2.18h.74v6.08Zm-2.36-2.2a1.92,1.92,0,0,0,.36,1.27,1.08,1.08,0,0,0,.84.42,1.05,1.05,0,0,0,.83-.4,1.84,1.84,0,0,0,.34-1.22,2.08,2.08,0,0,0-.35-1.33,1.07,1.07,0,0,0-.86-.42,1,1,0,0,0-.83.41A2,2,0,0,0,146.35,123.06Z"/><path d="M152.94,120v-.86h.75V120Zm0,5.23v-4.41h.75v4.41Z"/><path d="M154.83,125.26v-4.41h.67v.63a1.58,1.58,0,0,1,1.4-.73,1.85,1.85,0,0,1,.73.14,1.14,1.14,0,0,1,.5.38,1.42,1.42,0,0,1,.23.55,4.2,4.2,0,0,1,0,.73v2.71h-.75v-2.68a2,2,0,0,0-.09-.68.71.71,0,0,0-.31-.36,1,1,0,0,0-.52-.13,1.21,1.21,0,0,0-.82.3,1.49,1.49,0,0,0-.35,1.15v2.41Z"/><path d="M161.64,123.06a2.27,2.27,0,0,1,.68-1.81,2,2,0,0,1,1.39-.49,2,2,0,0,1,1.49.6,2.26,2.26,0,0,1,.58,1.65,2.92,2.92,0,0,1-.25,1.34,1.82,1.82,0,0,1-.74.76,2.16,2.16,0,0,1-1.06.27,2,2,0,0,1-1.5-.59A2.37,2.37,0,0,1,161.64,123.06Zm.77,0a1.88,1.88,0,0,0,.37,1.27,1.23,1.23,0,0,0,1.86,0A1.92,1.92,0,0,0,165,123a1.83,1.83,0,0,0-.37-1.24,1.23,1.23,0,0,0-1.85,0A1.87,1.87,0,0,0,162.41,123.06Z"/><path d="M166.64,127v-6.1h.68v.57a1.69,1.69,0,0,1,.54-.5,1.51,1.51,0,0,1,.74-.17,1.74,1.74,0,0,1,1,.29,1.78,1.78,0,0,1,.65.82,3,3,0,0,1,.22,1.16,3,3,0,0,1-.24,1.22,1.85,1.85,0,0,1-1.68,1.12,1.4,1.4,0,0,1-.67-.16,1.53,1.53,0,0,1-.49-.4V127Zm.68-3.87a1.92,1.92,0,0,0,.34,1.26,1.06,1.06,0,0,0,.83.41,1.08,1.08,0,0,0,.85-.42,2,2,0,0,0,.35-1.31,2,2,0,0,0-.35-1.26,1,1,0,0,0-.83-.42,1.07,1.07,0,0,0-.84.45A2,2,0,0,0,167.32,123.08Z"/><path d="M174.39,123.84l.77.1a1.88,1.88,0,0,1-.68,1,2.29,2.29,0,0,1-2.79-.22,2.33,2.33,0,0,1-.57-1.67,2.44,2.44,0,0,1,.57-1.73,1.94,1.94,0,0,1,1.49-.61,1.89,1.89,0,0,1,1.44.6,2.39,2.39,0,0,1,.56,1.69s0,.11,0,.2h-3.29a1.7,1.7,0,0,0,.41,1.11,1.23,1.23,0,0,0,.92.38,1.14,1.14,0,0,0,.7-.21A1.44,1.44,0,0,0,174.39,123.84Zm-2.45-1.21h2.46a1.49,1.49,0,0,0-.28-.83,1.14,1.14,0,0,0-.93-.43,1.18,1.18,0,0,0-.87.34A1.36,1.36,0,0,0,171.94,122.63Z"/><path d="M176.1,125.26v-4.41h.67v.63a1.59,1.59,0,0,1,1.4-.73,1.85,1.85,0,0,1,.73.14,1.15,1.15,0,0,1,.5.38,1.43,1.43,0,0,1,.23.55,4.34,4.34,0,0,1,0,.73v2.71h-.75v-2.68a2,2,0,0,0-.09-.68.72.72,0,0,0-.31-.36,1,1,0,0,0-.52-.13,1.21,1.21,0,0,0-.82.3,1.49,1.49,0,0,0-.35,1.15v2.41Z"/><path d="M180.83,120v-.86h.75V120Zm0,5.23v-4.41h.75v4.41Z"/><path d="M182.71,125.26v-4.41h.67v.63a1.59,1.59,0,0,1,1.4-.73,1.85,1.85,0,0,1,.73.14,1.15,1.15,0,0,1,.5.38,1.43,1.43,0,0,1,.23.55,4.34,4.34,0,0,1,0,.73v2.71h-.75v-2.68a2,2,0,0,0-.09-.68.72.72,0,0,0-.31-.36,1,1,0,0,0-.52-.13,1.21,1.21,0,0,0-.82.3,1.49,1.49,0,0,0-.35,1.15v2.41Z"/><path d="M187.31,125.63l.73.11a.7.7,0,0,0,.25.49,1.25,1.25,0,0,0,.76.21,1.34,1.34,0,0,0,.8-.21,1,1,0,0,0,.38-.58,4.81,4.81,0,0,0,.05-1,1.54,1.54,0,0,1-1.22.58,1.66,1.66,0,0,1-1.41-.66,2.52,2.52,0,0,1-.5-1.57,2.92,2.92,0,0,1,.23-1.17A1.83,1.83,0,0,1,188,121a1.78,1.78,0,0,1,1-.29,1.58,1.58,0,0,1,1.29.63v-.53H191v3.81a3.62,3.62,0,0,1-.21,1.46,1.54,1.54,0,0,1-.66.68A2.3,2.3,0,0,1,189,127a2.11,2.11,0,0,1-1.27-.36A1.2,1.2,0,0,1,187.31,125.63Zm.62-2.65a1.91,1.91,0,0,0,.34,1.27,1.14,1.14,0,0,0,1.73,0,1.85,1.85,0,0,0,.35-1.24,1.81,1.81,0,0,0-.36-1.22,1.11,1.11,0,0,0-.87-.41,1.08,1.08,0,0,0-.85.4A1.8,1.8,0,0,0,187.92,123Z"/><path d="M194.53,127v-6.1h.68v.57a1.69,1.69,0,0,1,.54-.5,1.51,1.51,0,0,1,.74-.17,1.74,1.74,0,0,1,1,.29,1.78,1.78,0,0,1,.65.82,3,3,0,0,1,.22,1.16,3,3,0,0,1-.24,1.22,1.85,1.85,0,0,1-1.68,1.12,1.4,1.4,0,0,1-.67-.16,1.53,1.53,0,0,1-.49-.4V127Zm.68-3.87a1.92,1.92,0,0,0,.34,1.26,1.06,1.06,0,0,0,.83.41,1.08,1.08,0,0,0,.85-.42,2,2,0,0,0,.35-1.31,2,2,0,0,0-.35-1.26,1,1,0,0,0-.83-.42,1.07,1.07,0,0,0-.84.45A2,2,0,0,0,195.21,123.08Z"/><path d="M199.25,125.26v-4.41h.67v.67a1.84,1.84,0,0,1,.47-.62.83.83,0,0,1,.48-.15,1.46,1.46,0,0,1,.77.24l-.26.69a1.07,1.07,0,0,0-.55-.16.71.71,0,0,0-.44.15.8.8,0,0,0-.28.41,2.91,2.91,0,0,0-.12.87v2.31Z"/><path d="M201.81,123.06a2.27,2.27,0,0,1,.68-1.81,2,2,0,0,1,1.39-.49,2,2,0,0,1,1.49.6,2.26,2.26,0,0,1,.58,1.65,2.92,2.92,0,0,1-.26,1.34,1.82,1.82,0,0,1-.74.76,2.17,2.17,0,0,1-1.06.27,2,2,0,0,1-1.5-.59A2.37,2.37,0,0,1,201.81,123.06Zm.77,0a1.88,1.88,0,0,0,.37,1.27,1.23,1.23,0,0,0,1.85,0,1.92,1.92,0,0,0,.37-1.29,1.83,1.83,0,0,0-.37-1.24,1.23,1.23,0,0,0-1.85,0A1.87,1.87,0,0,0,202.58,123.06Z"/><path d="M208,125.26l-1.68-4.41h.79l.95,2.64q.15.43.28.89.1-.35.28-.84l1-2.69h.77l-1.67,4.41Z"/><path d="M211.07,120v-.86h.75V120Zm0,5.23v-4.41h.75v4.41Z"/><path d="M215.81,125.26v-.56a1.37,1.37,0,0,1-1.23.66,1.73,1.73,0,0,1-1-.29,1.91,1.91,0,0,1-.68-.81,2.81,2.81,0,0,1-.24-1.2,3.14,3.14,0,0,1,.22-1.2,1.72,1.72,0,0,1,.66-.82,1.76,1.76,0,0,1,1-.29,1.47,1.47,0,0,1,1.22.61v-2.18h.74v6.08Zm-2.36-2.2a1.92,1.92,0,0,0,.36,1.27,1.08,1.08,0,0,0,.84.42,1.05,1.05,0,0,0,.83-.4,1.84,1.84,0,0,0,.34-1.22,2.08,2.08,0,0,0-.35-1.33,1.07,1.07,0,0,0-.86-.42,1,1,0,0,0-.83.41A2,2,0,0,0,213.45,123.06Z"/><path d="M220.7,123.84l.77.1a1.88,1.88,0,0,1-.68,1,2.29,2.29,0,0,1-2.79-.22,2.33,2.33,0,0,1-.57-1.67,2.44,2.44,0,0,1,.57-1.73,1.94,1.94,0,0,1,1.49-.61,1.89,1.89,0,0,1,1.45.6,2.39,2.39,0,0,1,.56,1.69s0,.11,0,.2H218.2a1.7,1.7,0,0,0,.41,1.11,1.23,1.23,0,0,0,.92.38,1.15,1.15,0,0,0,.7-.21A1.44,1.44,0,0,0,220.7,123.84Zm-2.45-1.21h2.46a1.49,1.49,0,0,0-.28-.83,1.14,1.14,0,0,0-.93-.43,1.19,1.19,0,0,0-.87.34A1.36,1.36,0,0,0,218.25,122.63Z"/><path d="M225.27,125.26v-.56a1.37,1.37,0,0,1-1.23.66,1.73,1.73,0,0,1-1-.29,1.91,1.91,0,0,1-.69-.81,2.8,2.8,0,0,1-.24-1.2,3.12,3.12,0,0,1,.22-1.2A1.73,1.73,0,0,1,223,121a1.76,1.76,0,0,1,1-.29,1.47,1.47,0,0,1,1.22.61v-2.18H226v6.08Zm-2.36-2.2a1.92,1.92,0,0,0,.36,1.27,1.08,1.08,0,0,0,.84.42,1.06,1.06,0,0,0,.83-.4,1.84,1.84,0,0,0,.34-1.22,2.08,2.08,0,0,0-.35-1.33,1.07,1.07,0,0,0-.86-.42,1,1,0,0,0-.83.41A2,2,0,0,0,222.91,123.06Z"/><path d="M227.35,125.26v-.85h.85v.85Z"/><circle cx="112.22" cy="101.25" r="1.76"/><circle cx="112.3" cy="143.06" r="1.76"/><path d="M124,144.39l.81.2a2.71,2.71,0,0,1-.91,1.51,2.51,2.51,0,0,1-1.61.52,2.88,2.88,0,0,1-1.6-.4,2.5,2.5,0,0,1-.94-1.16,4.14,4.14,0,0,1-.32-1.63,3.58,3.58,0,0,1,.36-1.66,2.48,2.48,0,0,1,1-1.07,3,3,0,0,1,1.48-.37,2.5,2.5,0,0,1,1.54.46,2.41,2.41,0,0,1,.87,1.31l-.79.19a1.88,1.88,0,0,0-.61-1,1.64,1.64,0,0,0-1-.3,2,2,0,0,0-1.17.34,1.77,1.77,0,0,0-.66.9,3.62,3.62,0,0,0-.19,1.17,3.72,3.72,0,0,0,.23,1.36,1.69,1.69,0,0,0,.7.87,2,2,0,0,0,1,.29,1.73,1.73,0,0,0,1.15-.39A2,2,0,0,0,124,144.39Z"/><path d="M128.6,146a2.77,2.77,0,0,1-.8.5,2.31,2.31,0,0,1-.82.15,1.6,1.6,0,0,1-1.12-.36,1.17,1.17,0,0,1-.39-.91,1.21,1.21,0,0,1,.15-.59,1.23,1.23,0,0,1,.39-.43,1.81,1.81,0,0,1,.54-.24,5.3,5.3,0,0,1,.66-.11,6.78,6.78,0,0,0,1.33-.26c0-.1,0-.17,0-.2a.83.83,0,0,0-.21-.64,1.25,1.25,0,0,0-.85-.25,1.32,1.32,0,0,0-.78.18,1.13,1.13,0,0,0-.37.65l-.73-.1a1.82,1.82,0,0,1,.33-.76,1.44,1.44,0,0,1,.66-.44,3,3,0,0,1,1-.16,2.66,2.66,0,0,1,.92.13,1.21,1.21,0,0,1,.52.33,1.17,1.17,0,0,1,.23.51,4.14,4.14,0,0,1,0,.69v1a10.47,10.47,0,0,0,0,1.32,1.64,1.64,0,0,0,.19.53h-.78A1.57,1.57,0,0,1,128.6,146Zm-.06-1.67a5.53,5.53,0,0,1-1.22.28,2.8,2.8,0,0,0-.65.15.65.65,0,0,0-.29.24.66.66,0,0,0,.12.85,1,1,0,0,0,.66.2,1.55,1.55,0,0,0,.77-.19,1.17,1.17,0,0,0,.49-.52,1.81,1.81,0,0,0,.12-.75Z"/><path d="M130.45,146.53v-4.41h.67v.63a1.59,1.59,0,0,1,1.4-.73,1.85,1.85,0,0,1,.73.14,1.16,1.16,0,0,1,.5.38,1.45,1.45,0,0,1,.23.55,4.32,4.32,0,0,1,0,.73v2.71h-.75v-2.68a2,2,0,0,0-.09-.68.72.72,0,0,0-.31-.36,1,1,0,0,0-.52-.13,1.21,1.21,0,0,0-.82.3,1.5,1.5,0,0,0-.35,1.15v2.41Z"/><path d="M137.53,146.53v-4.41h.67v.67a1.8,1.8,0,0,1,.47-.62.83.83,0,0,1,.48-.15,1.46,1.46,0,0,1,.77.24l-.26.69a1.07,1.07,0,0,0-.55-.16.72.72,0,0,0-.44.15.79.79,0,0,0-.28.41,2.88,2.88,0,0,0-.12.87v2.31Z"/><path d="M143.39,145.11l.77.1a1.89,1.89,0,0,1-.68,1.05,2.29,2.29,0,0,1-2.79-.22,2.32,2.32,0,0,1-.57-1.67,2.43,2.43,0,0,1,.57-1.73,1.94,1.94,0,0,1,1.49-.62,1.89,1.89,0,0,1,1.44.6,2.39,2.39,0,0,1,.56,1.69s0,.11,0,.2h-3.29a1.7,1.7,0,0,0,.41,1.11,1.22,1.22,0,0,0,.92.39,1.14,1.14,0,0,0,.7-.22A1.43,1.43,0,0,0,143.39,145.11Zm-2.45-1.21h2.46a1.49,1.49,0,0,0-.28-.83,1.14,1.14,0,0,0-.93-.43,1.19,1.19,0,0,0-.87.34A1.37,1.37,0,0,0,140.93,143.9Z"/><path d="M144.8,145.21l.74-.12a1,1,0,0,0,.35.68,1.21,1.21,0,0,0,.79.24,1.16,1.16,0,0,0,.76-.21.62.62,0,0,0,.25-.49.45.45,0,0,0-.22-.4,3.22,3.22,0,0,0-.76-.25,7,7,0,0,1-1.14-.36,1.09,1.09,0,0,1-.65-1,1.14,1.14,0,0,1,.13-.55,1.21,1.21,0,0,1,.37-.42,1.56,1.56,0,0,1,.48-.22,2.26,2.26,0,0,1,.65-.09,2.55,2.55,0,0,1,.91.15,1.25,1.25,0,0,1,.58.4,1.58,1.58,0,0,1,.26.68l-.73.1a.8.8,0,0,0-.29-.53,1.05,1.05,0,0,0-.67-.19,1.22,1.22,0,0,0-.73.17.5.5,0,0,0-.22.4.42.42,0,0,0,.09.26.67.67,0,0,0,.29.2l.66.19a9.25,9.25,0,0,1,1.11.35,1.12,1.12,0,0,1,.49.39,1.09,1.09,0,0,1,.18.64,1.25,1.25,0,0,1-.22.7,1.4,1.4,0,0,1-.63.51,2.29,2.29,0,0,1-.93.18,2.07,2.07,0,0,1-1.31-.36A1.65,1.65,0,0,1,144.8,145.21Z"/><path d="M152.23,146.53v-.65a1.61,1.61,0,0,1-1.4.75,1.79,1.79,0,0,1-.73-.15,1.2,1.2,0,0,1-.5-.38,1.41,1.41,0,0,1-.23-.55,3.91,3.91,0,0,1,0-.7v-2.73h.75v2.45a4.27,4.27,0,0,0,0,.79.78.78,0,0,0,.3.46.92.92,0,0,0,.56.17,1.24,1.24,0,0,0,.63-.17,1,1,0,0,0,.42-.47,2.34,2.34,0,0,0,.12-.86v-2.36h.75v4.41Z"/><path d="M154.06,146.53v-6.08h.75v6.08Z"/><path d="M157.59,145.86l.11.66a2.8,2.8,0,0,1-.56.07,1.27,1.27,0,0,1-.63-.13.73.73,0,0,1-.32-.34,2.7,2.7,0,0,1-.09-.88V142.7h-.55v-.58h.55V141l.74-.45v1.54h.75v.58h-.75v2.58a1.31,1.31,0,0,0,0,.41.31.31,0,0,0,.13.14.49.49,0,0,0,.25.05Z"/><path d="M160.69,141.3v-.86h.75v.86Zm0,5.23v-4.41h.75v4.41Z"/><path d="M162.57,146.53v-4.41h.67v.63a1.58,1.58,0,0,1,1.4-.73,1.85,1.85,0,0,1,.73.14,1.15,1.15,0,0,1,.5.38,1.42,1.42,0,0,1,.23.55,4.19,4.19,0,0,1,0,.73v2.71h-.75v-2.68a2,2,0,0,0-.09-.68.71.71,0,0,0-.31-.36,1,1,0,0,0-.52-.13,1.21,1.21,0,0,0-.82.3,1.49,1.49,0,0,0-.35,1.15v2.41Z"/><path d="M169.38,144.32a2.27,2.27,0,0,1,.68-1.81,2.05,2.05,0,0,1,1.39-.49,2,2,0,0,1,1.49.6,2.27,2.27,0,0,1,.58,1.65,2.92,2.92,0,0,1-.25,1.34,1.81,1.81,0,0,1-.74.76,2.16,2.16,0,0,1-1.06.27A2,2,0,0,1,170,146,2.37,2.37,0,0,1,169.38,144.32Zm.77,0a1.88,1.88,0,0,0,.37,1.27,1.23,1.23,0,0,0,1.86,0,1.93,1.93,0,0,0,.37-1.29,1.82,1.82,0,0,0-.37-1.24,1.23,1.23,0,0,0-1.85,0A1.87,1.87,0,0,0,170.15,144.32Z"/><path d="M175.61,146.53l-1.68-4.41h.79l.95,2.64c.1.29.2.58.28.89q.1-.35.28-.84l1-2.69H178l-1.67,4.41Z"/><path d="M181.65,145.11l.77.1a1.89,1.89,0,0,1-.68,1.05,2,2,0,0,1-1.26.37A2,2,0,0,1,179,146a2.32,2.32,0,0,1-.57-1.67,2.43,2.43,0,0,1,.57-1.73,1.94,1.94,0,0,1,1.49-.62,1.89,1.89,0,0,1,1.44.6,2.39,2.39,0,0,1,.56,1.69s0,.11,0,.2h-3.29a1.7,1.7,0,0,0,.41,1.11,1.22,1.22,0,0,0,.92.39,1.14,1.14,0,0,0,.7-.22A1.43,1.43,0,0,0,181.65,145.11Zm-2.45-1.21h2.46a1.5,1.5,0,0,0-.28-.83,1.15,1.15,0,0,0-.93-.43,1.19,1.19,0,0,0-.87.34A1.36,1.36,0,0,0,179.2,143.9Z"/><path d="M183.36,146.53v-4.41H184v.67a1.83,1.83,0,0,1,.47-.62A.83.83,0,0,1,185,142a1.46,1.46,0,0,1,.77.24l-.26.69a1.06,1.06,0,0,0-.55-.16.72.72,0,0,0-.44.15.8.8,0,0,0-.28.41,2.91,2.91,0,0,0-.12.87v2.31Z"/><path d="M186.2,146.53v-6.08h.75v2.18a1.67,1.67,0,0,1,1.32-.61,1.78,1.78,0,0,1,.85.19,1.14,1.14,0,0,1,.52.53,2.45,2.45,0,0,1,.16,1v2.79H189v-2.79a1.16,1.16,0,0,0-.24-.82.9.9,0,0,0-.69-.25,1.21,1.21,0,0,0-.62.17,1,1,0,0,0-.42.47,2.16,2.16,0,0,0-.12.81v2.41Z"/><path d="M193.94,145.11l.77.1a1.89,1.89,0,0,1-.68,1.05,2,2,0,0,1-1.26.37,2,2,0,0,1-1.53-.6,2.32,2.32,0,0,1-.57-1.67,2.43,2.43,0,0,1,.57-1.73,1.94,1.94,0,0,1,1.49-.62,1.89,1.89,0,0,1,1.44.6,2.39,2.39,0,0,1,.56,1.69s0,.11,0,.2h-3.29a1.7,1.7,0,0,0,.41,1.11,1.22,1.22,0,0,0,.92.39,1.14,1.14,0,0,0,.7-.22A1.43,1.43,0,0,0,193.94,145.11Zm-2.45-1.21h2.46a1.5,1.5,0,0,0-.28-.83,1.15,1.15,0,0,0-.93-.43,1.19,1.19,0,0,0-.87.34A1.36,1.36,0,0,0,191.49,143.9Z"/><path d="M198.53,146a2.77,2.77,0,0,1-.8.5,2.31,2.31,0,0,1-.82.15,1.6,1.6,0,0,1-1.12-.36,1.17,1.17,0,0,1-.39-.91,1.2,1.2,0,0,1,.15-.59,1.23,1.23,0,0,1,.38-.43,1.83,1.83,0,0,1,.54-.24,5.3,5.3,0,0,1,.66-.11,6.78,6.78,0,0,0,1.33-.26c0-.1,0-.17,0-.2a.83.83,0,0,0-.21-.64,1.25,1.25,0,0,0-.85-.25,1.32,1.32,0,0,0-.78.18,1.13,1.13,0,0,0-.37.65l-.73-.1a1.82,1.82,0,0,1,.33-.76,1.44,1.44,0,0,1,.66-.44,3,3,0,0,1,1-.16,2.66,2.66,0,0,1,.92.13,1.21,1.21,0,0,1,.52.33,1.17,1.17,0,0,1,.23.51,4.14,4.14,0,0,1,0,.69v1a10.47,10.47,0,0,0,0,1.32,1.64,1.64,0,0,0,.19.53h-.78A1.57,1.57,0,0,1,198.53,146Zm-.06-1.67a5.53,5.53,0,0,1-1.22.28,2.8,2.8,0,0,0-.65.15.65.65,0,0,0-.29.24.66.66,0,0,0,.12.85,1,1,0,0,0,.66.2,1.55,1.55,0,0,0,.77-.19,1.17,1.17,0,0,0,.49-.52,1.81,1.81,0,0,0,.12-.75Z"/><path d="M202,145.86l.11.66a2.8,2.8,0,0,1-.56.07,1.27,1.27,0,0,1-.63-.13.73.73,0,0,1-.32-.34,2.7,2.7,0,0,1-.09-.88V142.7H200v-.58h.55V141l.74-.45v1.54H202v.58h-.75v2.58a1.31,1.31,0,0,0,0,.41.31.31,0,0,0,.13.14.49.49,0,0,0,.25.05Z"/><path d="M202.74,141.3v-.86h.75v.86Zm0,5.23v-4.41h.75v4.41Z"/><path d="M204.63,146.53v-4.41h.67v.63a1.59,1.59,0,0,1,1.4-.73,1.85,1.85,0,0,1,.73.14,1.16,1.16,0,0,1,.5.38,1.44,1.44,0,0,1,.23.55,4.32,4.32,0,0,1,0,.73v2.71h-.75v-2.68a2,2,0,0,0-.09-.68.72.72,0,0,0-.31-.36,1,1,0,0,0-.52-.13,1.21,1.21,0,0,0-.82.3,1.5,1.5,0,0,0-.35,1.15v2.41Z"/><path d="M209.22,146.89l.73.11a.69.69,0,0,0,.25.49,1.24,1.24,0,0,0,.76.21,1.33,1.33,0,0,0,.8-.21,1,1,0,0,0,.38-.58,4.82,4.82,0,0,0,.05-1,1.54,1.54,0,0,1-1.22.58,1.66,1.66,0,0,1-1.41-.66,2.52,2.52,0,0,1-.5-1.57,2.92,2.92,0,0,1,.23-1.16,1.83,1.83,0,0,1,.66-.82,1.79,1.79,0,0,1,1-.29,1.58,1.58,0,0,1,1.29.63v-.53H213v3.81a3.64,3.64,0,0,1-.21,1.46,1.54,1.54,0,0,1-.66.68,2.3,2.3,0,0,1-1.12.25,2.11,2.11,0,0,1-1.27-.36A1.2,1.2,0,0,1,209.22,146.89Zm.62-2.65a1.92,1.92,0,0,0,.34,1.27,1.14,1.14,0,0,0,1.73,0,1.85,1.85,0,0,0,.35-1.24,1.81,1.81,0,0,0-.36-1.22,1.11,1.11,0,0,0-.87-.41,1.08,1.08,0,0,0-.85.4A1.8,1.8,0,0,0,209.84,144.24Z"/><path d="M219.32,146a2.78,2.78,0,0,1-.8.5,2.32,2.32,0,0,1-.82.15,1.6,1.6,0,0,1-1.12-.36,1.17,1.17,0,0,1-.39-.91,1.23,1.23,0,0,1,.53-1,1.81,1.81,0,0,1,.54-.24,5.27,5.27,0,0,1,.66-.11,6.8,6.8,0,0,0,1.33-.26c0-.1,0-.17,0-.2a.83.83,0,0,0-.21-.64,1.25,1.25,0,0,0-.85-.25,1.32,1.32,0,0,0-.78.18,1.13,1.13,0,0,0-.37.65l-.73-.1a1.82,1.82,0,0,1,.33-.76,1.45,1.45,0,0,1,.66-.44,3,3,0,0,1,1-.16,2.67,2.67,0,0,1,.92.13,1.22,1.22,0,0,1,.52.33,1.18,1.18,0,0,1,.23.51,4.25,4.25,0,0,1,0,.69v1a10.75,10.75,0,0,0,0,1.32,1.64,1.64,0,0,0,.19.53h-.78A1.57,1.57,0,0,1,219.32,146Zm-.06-1.67a5.54,5.54,0,0,1-1.22.28,2.8,2.8,0,0,0-.65.15.64.64,0,0,0-.29.24.63.63,0,0,0-.1.35.64.64,0,0,0,.23.5,1,1,0,0,0,.66.2,1.54,1.54,0,0,0,.77-.19,1.16,1.16,0,0,0,.49-.52,1.8,1.8,0,0,0,.12-.75Z"/><path d="M221.17,146.53v-4.41h.67v.63a1.59,1.59,0,0,1,1.4-.73,1.85,1.85,0,0,1,.73.14,1.16,1.16,0,0,1,.5.38,1.44,1.44,0,0,1,.23.55,4.32,4.32,0,0,1,0,.73v2.71H224v-2.68a2,2,0,0,0-.09-.68.72.72,0,0,0-.31-.36,1,1,0,0,0-.52-.13,1.21,1.21,0,0,0-.82.3,1.5,1.5,0,0,0-.35,1.15v2.41Z"/><path d="M228.76,146.53V146a1.37,1.37,0,0,1-1.23.66,1.72,1.72,0,0,1-1-.29,1.91,1.91,0,0,1-.69-.81,2.8,2.8,0,0,1-.24-1.2,3.11,3.11,0,0,1,.22-1.2,1.73,1.73,0,0,1,.66-.82,1.76,1.76,0,0,1,1-.29,1.47,1.47,0,0,1,.71.17,1.5,1.5,0,0,1,.51.44v-2.18h.74v6.08Zm-2.36-2.2a1.92,1.92,0,0,0,.36,1.27,1.08,1.08,0,0,0,.84.42,1.06,1.06,0,0,0,.83-.4,1.85,1.85,0,0,0,.34-1.22,2.07,2.07,0,0,0-.35-1.33,1.07,1.07,0,0,0-.86-.42,1,1,0,0,0-.83.41A2,2,0,0,0,226.4,144.33Z"/><path d="M122.6,155.31l.77.09a1.88,1.88,0,0,1-.68,1,2.29,2.29,0,0,1-2.79-.22,2.33,2.33,0,0,1-.57-1.67,2.44,2.44,0,0,1,.57-1.73,1.94,1.94,0,0,1,1.49-.61,1.89,1.89,0,0,1,1.44.6,2.39,2.39,0,0,1,.56,1.69s0,.11,0,.2h-3.29a1.7,1.7,0,0,0,.41,1.11,1.22,1.22,0,0,0,.92.39,1.15,1.15,0,0,0,.7-.22A1.44,1.44,0,0,0,122.6,155.31Zm-2.45-1.21h2.46a1.5,1.5,0,0,0-.28-.83,1.15,1.15,0,0,0-.93-.43,1.19,1.19,0,0,0-.87.34A1.36,1.36,0,0,0,120.15,154.1Z"/><path d="M123.81,156.73l1.61-2.29-1.49-2.12h.93l.68,1,.31.49.34-.49.74-1h.89l-1.52,2.07,1.64,2.33H127l-.9-1.37-.24-.37-1.16,1.74Z"/><path d="M131.44,155.11l.73.1a1.9,1.9,0,0,1-.62,1.19,1.8,1.8,0,0,1-1.22.43,1.9,1.9,0,0,1-1.46-.59,2.4,2.4,0,0,1-.55-1.7,3.08,3.08,0,0,1,.24-1.25,1.65,1.65,0,0,1,.72-.8,2.14,2.14,0,0,1,1.05-.27,1.83,1.83,0,0,1,1.17.36,1.67,1.67,0,0,1,.58,1l-.73.11a1.2,1.2,0,0,0-.37-.67,1,1,0,0,0-.64-.22,1.16,1.16,0,0,0-.92.41,1.92,1.92,0,0,0-.35,1.28,2,2,0,0,0,.34,1.29,1.11,1.11,0,0,0,.89.4,1,1,0,0,0,.74-.27A1.35,1.35,0,0,0,131.44,155.11Z"/><path d="M135.83,155.31l.77.09a1.88,1.88,0,0,1-.68,1,2.29,2.29,0,0,1-2.79-.22,2.33,2.33,0,0,1-.57-1.67,2.44,2.44,0,0,1,.57-1.73,1.94,1.94,0,0,1,1.49-.61,1.89,1.89,0,0,1,1.44.6,2.39,2.39,0,0,1,.56,1.69s0,.11,0,.2h-3.29a1.69,1.69,0,0,0,.41,1.11,1.22,1.22,0,0,0,.92.39,1.15,1.15,0,0,0,.7-.22A1.43,1.43,0,0,0,135.83,155.31Zm-2.45-1.21h2.46a1.5,1.5,0,0,0-.28-.83,1.15,1.15,0,0,0-.93-.43,1.19,1.19,0,0,0-.87.34A1.36,1.36,0,0,0,133.37,154.1Z"/><path d="M137.24,155.41l.74-.12a1,1,0,0,0,.35.68,1.21,1.21,0,0,0,.79.24,1.17,1.17,0,0,0,.76-.21.63.63,0,0,0,.25-.49.45.45,0,0,0-.22-.4,3.28,3.28,0,0,0-.76-.25,7,7,0,0,1-1.14-.36,1.09,1.09,0,0,1-.65-1,1.14,1.14,0,0,1,.14-.55,1.21,1.21,0,0,1,.37-.42,1.53,1.53,0,0,1,.48-.22,2.25,2.25,0,0,1,.64-.09,2.56,2.56,0,0,1,.91.15,1.24,1.24,0,0,1,.58.41,1.57,1.57,0,0,1,.26.68l-.73.1a.8.8,0,0,0-.29-.53,1.05,1.05,0,0,0-.67-.19,1.21,1.21,0,0,0-.73.17.5.5,0,0,0-.22.4.41.41,0,0,0,.09.26.66.66,0,0,0,.29.2l.66.19a9.1,9.1,0,0,1,1.11.35,1.12,1.12,0,0,1,.49.39,1.1,1.1,0,0,1,.18.64,1.25,1.25,0,0,1-.22.7,1.4,1.4,0,0,1-.63.51,2.27,2.27,0,0,1-.93.18,2.07,2.07,0,0,1-1.31-.36A1.66,1.66,0,0,1,137.24,155.41Z"/><path d="M141.49,155.41l.74-.12a1,1,0,0,0,.35.68,1.21,1.21,0,0,0,.79.24,1.17,1.17,0,0,0,.76-.21.63.63,0,0,0,.25-.49.45.45,0,0,0-.22-.4,3.28,3.28,0,0,0-.76-.25,7,7,0,0,1-1.14-.36,1.09,1.09,0,0,1-.65-1,1.14,1.14,0,0,1,.14-.55,1.21,1.21,0,0,1,.37-.42,1.53,1.53,0,0,1,.48-.22,2.25,2.25,0,0,1,.64-.09,2.56,2.56,0,0,1,.91.15,1.24,1.24,0,0,1,.58.41,1.57,1.57,0,0,1,.26.68l-.73.1A.8.8,0,0,0,144,153a1.05,1.05,0,0,0-.67-.19,1.21,1.21,0,0,0-.73.17.5.5,0,0,0-.22.4.41.41,0,0,0,.09.26.66.66,0,0,0,.29.2l.66.19a9.1,9.1,0,0,1,1.11.35,1.12,1.12,0,0,1,.49.39,1.1,1.1,0,0,1,.18.64,1.25,1.25,0,0,1-.22.7,1.4,1.4,0,0,1-.63.51,2.27,2.27,0,0,1-.93.18,2.07,2.07,0,0,1-1.31-.36A1.66,1.66,0,0,1,141.49,155.41Z"/><path d="M146,151.5v-.86h.75v.86Zm0,5.23v-4.41h.75v4.41Z"/><path d="M149.15,156.73l-1.68-4.41h.79l.95,2.64c.1.29.2.58.28.89q.1-.35.28-.84l1-2.69h.77l-1.67,4.41Z"/><path d="M155.19,155.31l.77.09a1.88,1.88,0,0,1-.68,1,2.29,2.29,0,0,1-2.79-.22,2.33,2.33,0,0,1-.57-1.67,2.44,2.44,0,0,1,.57-1.73,1.94,1.94,0,0,1,1.49-.61,1.89,1.89,0,0,1,1.44.6,2.39,2.39,0,0,1,.56,1.69s0,.11,0,.2H152.7a1.69,1.69,0,0,0,.41,1.11,1.22,1.22,0,0,0,.92.39,1.15,1.15,0,0,0,.7-.22A1.43,1.43,0,0,0,155.19,155.31Zm-2.45-1.21h2.46a1.5,1.5,0,0,0-.28-.83,1.15,1.15,0,0,0-.93-.43,1.19,1.19,0,0,0-.87.34A1.36,1.36,0,0,0,152.74,154.1Z"/><path d="M160.9,156.06l.11.66a2.72,2.72,0,0,1-.56.07,1.29,1.29,0,0,1-.63-.13.72.72,0,0,1-.31-.34,2.65,2.65,0,0,1-.09-.88V152.9h-.55v-.58h.55v-1.09l.74-.45v1.54h.75v.58h-.75v2.58a1.3,1.3,0,0,0,0,.41.31.31,0,0,0,.13.15.5.5,0,0,0,.25.05Z"/><path d="M164.5,156.18a2.78,2.78,0,0,1-.8.5,2.29,2.29,0,0,1-.82.15,1.61,1.61,0,0,1-1.12-.35,1.17,1.17,0,0,1-.39-.91,1.23,1.23,0,0,1,.53-1,1.82,1.82,0,0,1,.54-.25,5.27,5.27,0,0,1,.66-.11,6.86,6.86,0,0,0,1.33-.26c0-.1,0-.17,0-.19a.83.83,0,0,0-.21-.64,1.25,1.25,0,0,0-.85-.25,1.32,1.32,0,0,0-.78.18,1.13,1.13,0,0,0-.37.65l-.73-.1a1.8,1.8,0,0,1,.33-.76,1.43,1.43,0,0,1,.66-.44,2.93,2.93,0,0,1,1-.16,2.64,2.64,0,0,1,.92.13,1.2,1.2,0,0,1,.52.33,1.17,1.17,0,0,1,.23.51,4.24,4.24,0,0,1,0,.69v1a10.76,10.76,0,0,0,0,1.32,1.63,1.63,0,0,0,.19.53h-.78A1.58,1.58,0,0,1,164.5,156.18Zm-.06-1.67a5.48,5.48,0,0,1-1.22.28,2.8,2.8,0,0,0-.65.15.64.64,0,0,0-.29.24.66.66,0,0,0,.12.85,1,1,0,0,0,.66.2,1.52,1.52,0,0,0,.77-.19,1.15,1.15,0,0,0,.49-.52,1.8,1.8,0,0,0,.12-.75Z"/><path d="M166.35,156.73v-4.41H167v.63a1.59,1.59,0,0,1,1.4-.73,1.83,1.83,0,0,1,.73.14,1.16,1.16,0,0,1,.5.38,1.44,1.44,0,0,1,.23.55,4.34,4.34,0,0,1,0,.73v2.71h-.75V154a2,2,0,0,0-.09-.68.72.72,0,0,0-.31-.36,1,1,0,0,0-.52-.13,1.21,1.21,0,0,0-.82.3,1.5,1.5,0,0,0-.35,1.15v2.41Z"/><path d="M171.08,156.73v-6.08h.75v3.47l1.77-1.79h1L172.88,154l1.86,2.77h-.92l-1.46-2.25-.53.51v1.75Z"/><path d="M177.69,158.42v-6.1h.68v.57a1.65,1.65,0,0,1,.54-.5,1.49,1.49,0,0,1,.73-.17,1.74,1.74,0,0,1,1,.29,1.79,1.79,0,0,1,.65.82,3,3,0,0,1,.22,1.16,3,3,0,0,1-.24,1.22,1.85,1.85,0,0,1-1.68,1.12,1.41,1.41,0,0,1-.67-.16,1.54,1.54,0,0,1-.49-.4v2.15Zm.68-3.87a1.92,1.92,0,0,0,.34,1.26,1.06,1.06,0,0,0,.83.41,1.08,1.08,0,0,0,.85-.42,2,2,0,0,0,.35-1.3,2,2,0,0,0-.35-1.26,1,1,0,0,0-.83-.42,1.08,1.08,0,0,0-.85.45A2,2,0,0,0,178.37,154.55Z"/><path d="M182.41,156.73v-4.41h.67V153a1.81,1.81,0,0,1,.48-.62.83.83,0,0,1,.48-.15,1.46,1.46,0,0,1,.77.24l-.26.69A1.06,1.06,0,0,0,184,153a.71.71,0,0,0-.44.15.8.8,0,0,0-.28.41,2.91,2.91,0,0,0-.12.87v2.31Z"/><path d="M188.27,155.31l.77.09a1.88,1.88,0,0,1-.68,1,2.29,2.29,0,0,1-2.79-.22,2.33,2.33,0,0,1-.57-1.67,2.44,2.44,0,0,1,.57-1.73,1.94,1.94,0,0,1,1.49-.61,1.89,1.89,0,0,1,1.45.6,2.39,2.39,0,0,1,.56,1.69s0,.11,0,.2h-3.29a1.7,1.7,0,0,0,.41,1.11,1.22,1.22,0,0,0,.92.39,1.15,1.15,0,0,0,.7-.22A1.43,1.43,0,0,0,188.27,155.31Zm-2.45-1.21h2.46a1.49,1.49,0,0,0-.28-.83,1.15,1.15,0,0,0-.93-.43,1.19,1.19,0,0,0-.87.34A1.36,1.36,0,0,0,185.82,154.1Z"/><path d="M189.68,155.41l.74-.12a1,1,0,0,0,.35.68,1.21,1.21,0,0,0,.79.24,1.17,1.17,0,0,0,.76-.21.63.63,0,0,0,.25-.49.45.45,0,0,0-.22-.4,3.3,3.3,0,0,0-.76-.25,7,7,0,0,1-1.14-.36,1.09,1.09,0,0,1-.65-1,1.14,1.14,0,0,1,.14-.55,1.21,1.21,0,0,1,.37-.42,1.52,1.52,0,0,1,.47-.22,2.26,2.26,0,0,1,.65-.09,2.55,2.55,0,0,1,.91.15,1.24,1.24,0,0,1,.58.41,1.58,1.58,0,0,1,.26.68l-.73.1a.8.8,0,0,0-.29-.53,1.06,1.06,0,0,0-.67-.19,1.21,1.21,0,0,0-.73.17.5.5,0,0,0-.22.4.41.41,0,0,0,.09.26.66.66,0,0,0,.29.2l.66.19a9.13,9.13,0,0,1,1.11.35,1.13,1.13,0,0,1,.49.39,1.09,1.09,0,0,1,.18.64,1.26,1.26,0,0,1-.22.7,1.41,1.41,0,0,1-.63.51,2.27,2.27,0,0,1-.93.18,2.08,2.08,0,0,1-1.31-.36A1.66,1.66,0,0,1,189.68,155.41Z"/><path d="M193.93,155.41l.74-.12a1,1,0,0,0,.35.68,1.21,1.21,0,0,0,.79.24,1.17,1.17,0,0,0,.76-.21.63.63,0,0,0,.25-.49.45.45,0,0,0-.22-.4,3.3,3.3,0,0,0-.76-.25,7,7,0,0,1-1.14-.36,1.09,1.09,0,0,1-.65-1,1.14,1.14,0,0,1,.14-.55,1.21,1.21,0,0,1,.37-.42,1.52,1.52,0,0,1,.47-.22,2.26,2.26,0,0,1,.65-.09,2.55,2.55,0,0,1,.91.15,1.24,1.24,0,0,1,.58.41,1.58,1.58,0,0,1,.26.68l-.73.1a.8.8,0,0,0-.29-.53,1.06,1.06,0,0,0-.67-.19,1.21,1.21,0,0,0-.73.17.5.5,0,0,0-.22.4.41.41,0,0,0,.09.26.66.66,0,0,0,.29.2l.66.19a9.13,9.13,0,0,1,1.11.35,1.13,1.13,0,0,1,.49.39,1.09,1.09,0,0,1,.18.64,1.26,1.26,0,0,1-.22.7,1.41,1.41,0,0,1-.63.51,2.27,2.27,0,0,1-.93.18,2.08,2.08,0,0,1-1.31-.36A1.66,1.66,0,0,1,193.93,155.41Z"/><path d="M201.37,156.73v-.65a1.61,1.61,0,0,1-1.4.75,1.78,1.78,0,0,1-.73-.15,1.2,1.2,0,0,1-.5-.37,1.41,1.41,0,0,1-.23-.55,3.71,3.71,0,0,1,0-.7v-2.73h.75v2.44a4.48,4.48,0,0,0,0,.79.77.77,0,0,0,.3.46.93.93,0,0,0,.56.17,1.22,1.22,0,0,0,.63-.17,1,1,0,0,0,.42-.47,2.37,2.37,0,0,0,.12-.86v-2.36H202v4.41Z"/><path d="M203.2,156.73v-4.41h.67V153a1.81,1.81,0,0,1,.48-.62.83.83,0,0,1,.48-.15,1.46,1.46,0,0,1,.77.24l-.26.69a1.06,1.06,0,0,0-.55-.16.71.71,0,0,0-.44.15.8.8,0,0,0-.28.41,2.91,2.91,0,0,0-.12.87v2.31Z"/><path d="M209.05,155.31l.77.09a1.88,1.88,0,0,1-.68,1,2.29,2.29,0,0,1-2.79-.22,2.33,2.33,0,0,1-.57-1.67,2.44,2.44,0,0,1,.57-1.73,1.94,1.94,0,0,1,1.49-.61,1.89,1.89,0,0,1,1.45.6,2.39,2.39,0,0,1,.56,1.69s0,.11,0,.2h-3.29a1.7,1.7,0,0,0,.41,1.11,1.22,1.22,0,0,0,.92.39,1.15,1.15,0,0,0,.7-.22A1.43,1.43,0,0,0,209.05,155.31Zm-2.45-1.21h2.46a1.49,1.49,0,0,0-.28-.83,1.15,1.15,0,0,0-.93-.43,1.19,1.19,0,0,0-.87.34A1.36,1.36,0,0,0,206.6,154.1Z"/><path d="M211,156.73v-.85h.85v.85Z"/><circle cx="112.24" cy="174.36" r="1.76"/><path d="M123.78,175.49l.81.2a2.71,2.71,0,0,1-.91,1.51,2.51,2.51,0,0,1-1.61.52,2.88,2.88,0,0,1-1.6-.4,2.5,2.5,0,0,1-.94-1.16,4.14,4.14,0,0,1-.32-1.63,3.58,3.58,0,0,1,.36-1.66,2.48,2.48,0,0,1,1-1.07,3,3,0,0,1,1.48-.37,2.5,2.5,0,0,1,1.54.46,2.41,2.41,0,0,1,.87,1.31l-.79.19a1.88,1.88,0,0,0-.61-1,1.64,1.64,0,0,0-1-.3,2,2,0,0,0-1.17.34,1.77,1.77,0,0,0-.66.9,3.62,3.62,0,0,0-.19,1.17,3.72,3.72,0,0,0,.23,1.36,1.69,1.69,0,0,0,.7.87,2,2,0,0,0,1,.29,1.73,1.73,0,0,0,1.15-.39A2,2,0,0,0,123.78,175.49Z"/><path d="M128.36,177.08a2.78,2.78,0,0,1-.8.5,2.32,2.32,0,0,1-.82.15,1.6,1.6,0,0,1-1.12-.36,1.17,1.17,0,0,1-.39-.91,1.21,1.21,0,0,1,.15-.59,1.23,1.23,0,0,1,.39-.43,1.81,1.81,0,0,1,.54-.24,5.3,5.3,0,0,1,.66-.11,6.78,6.78,0,0,0,1.33-.26c0-.1,0-.17,0-.2a.83.83,0,0,0-.21-.64,1.25,1.25,0,0,0-.85-.25,1.32,1.32,0,0,0-.78.18,1.13,1.13,0,0,0-.37.65l-.73-.1a1.82,1.82,0,0,1,.33-.76,1.44,1.44,0,0,1,.66-.44,3,3,0,0,1,1-.16,2.66,2.66,0,0,1,.92.13,1.22,1.22,0,0,1,.52.33,1.19,1.19,0,0,1,.23.51,4.29,4.29,0,0,1,0,.69v1a10.75,10.75,0,0,0,0,1.32,1.69,1.69,0,0,0,.19.53h-.78A1.57,1.57,0,0,1,128.36,177.08Zm-.06-1.67a5.54,5.54,0,0,1-1.22.28,2.77,2.77,0,0,0-.65.15.64.64,0,0,0-.29.24.66.66,0,0,0,.12.85,1,1,0,0,0,.66.2,1.55,1.55,0,0,0,.77-.19,1.16,1.16,0,0,0,.49-.52,1.81,1.81,0,0,0,.12-.75Z"/><path d="M130.21,177.62v-4.41h.67v.63a1.58,1.58,0,0,1,1.4-.73,1.85,1.85,0,0,1,.73.14,1.15,1.15,0,0,1,.5.38,1.42,1.42,0,0,1,.23.55,4.19,4.19,0,0,1,0,.73v2.71H133v-2.68a2,2,0,0,0-.09-.68.71.71,0,0,0-.31-.36,1,1,0,0,0-.52-.13,1.21,1.21,0,0,0-.82.3,1.49,1.49,0,0,0-.35,1.15v2.41Z"/><path d="M140.18,176l.73.09a1.9,1.9,0,0,1-.62,1.19,1.79,1.79,0,0,1-1.22.43,1.89,1.89,0,0,1-1.46-.59,2.4,2.4,0,0,1-.55-1.7,3.09,3.09,0,0,1,.24-1.25,1.66,1.66,0,0,1,.72-.8,2.15,2.15,0,0,1,1.05-.27,1.83,1.83,0,0,1,1.17.36,1.67,1.67,0,0,1,.59,1l-.73.11a1.21,1.21,0,0,0-.37-.67,1,1,0,0,0-.64-.22,1.16,1.16,0,0,0-.92.4,1.92,1.92,0,0,0-.35,1.28,2,2,0,0,0,.34,1.29,1.1,1.1,0,0,0,.89.4,1,1,0,0,0,.74-.27A1.34,1.34,0,0,0,140.18,176Z"/><path d="M144.43,177.08a2.78,2.78,0,0,1-.8.5,2.32,2.32,0,0,1-.82.15,1.6,1.6,0,0,1-1.12-.36,1.17,1.17,0,0,1-.39-.91,1.23,1.23,0,0,1,.53-1,1.81,1.81,0,0,1,.54-.24,5.27,5.27,0,0,1,.66-.11,6.8,6.8,0,0,0,1.33-.26c0-.1,0-.17,0-.2a.83.83,0,0,0-.21-.64,1.25,1.25,0,0,0-.85-.25,1.32,1.32,0,0,0-.78.18,1.13,1.13,0,0,0-.37.65l-.73-.1a1.82,1.82,0,0,1,.33-.76,1.45,1.45,0,0,1,.66-.44,3,3,0,0,1,1-.16,2.67,2.67,0,0,1,.92.13,1.22,1.22,0,0,1,.52.33,1.18,1.18,0,0,1,.23.51,4.25,4.25,0,0,1,0,.69v1a10.75,10.75,0,0,0,0,1.32,1.64,1.64,0,0,0,.19.53h-.78A1.57,1.57,0,0,1,144.43,177.08Zm-.06-1.67a5.54,5.54,0,0,1-1.22.28,2.8,2.8,0,0,0-.65.15.64.64,0,0,0-.29.24.63.63,0,0,0-.1.35.64.64,0,0,0,.23.5,1,1,0,0,0,.66.2,1.54,1.54,0,0,0,.77-.19,1.16,1.16,0,0,0,.49-.52,1.8,1.8,0,0,0,.12-.75Z"/><path d="M149.17,177.62V177a1.61,1.61,0,0,1-1.4.75,1.79,1.79,0,0,1-.73-.15,1.2,1.2,0,0,1-.5-.38,1.41,1.41,0,0,1-.23-.55,3.91,3.91,0,0,1,0-.7v-2.73H147v2.45a4.27,4.27,0,0,0,0,.79.78.78,0,0,0,.3.46.92.92,0,0,0,.56.17,1.24,1.24,0,0,0,.63-.17,1,1,0,0,0,.42-.47,2.34,2.34,0,0,0,.12-.86v-2.36h.75v4.41Z"/><path d="M150.71,176.31l.74-.12a1,1,0,0,0,.35.68,1.21,1.21,0,0,0,.79.24,1.16,1.16,0,0,0,.76-.21.62.62,0,0,0,.25-.49.45.45,0,0,0-.22-.4,3.22,3.22,0,0,0-.76-.25,7,7,0,0,1-1.14-.36,1.09,1.09,0,0,1-.65-1,1.14,1.14,0,0,1,.14-.55,1.2,1.2,0,0,1,.37-.42,1.52,1.52,0,0,1,.47-.22,2.26,2.26,0,0,1,.65-.09,2.55,2.55,0,0,1,.91.15,1.24,1.24,0,0,1,.58.4,1.58,1.58,0,0,1,.26.68l-.73.1a.8.8,0,0,0-.29-.53,1.05,1.05,0,0,0-.67-.19,1.22,1.22,0,0,0-.73.17.5.5,0,0,0-.22.4.42.42,0,0,0,.09.26.66.66,0,0,0,.29.2l.66.19a9.32,9.32,0,0,1,1.11.35,1.12,1.12,0,0,1,.49.39,1.09,1.09,0,0,1,.18.64,1.25,1.25,0,0,1-.22.7,1.4,1.4,0,0,1-.63.51,2.29,2.29,0,0,1-.93.18,2.07,2.07,0,0,1-1.31-.36A1.66,1.66,0,0,1,150.71,176.31Z"/><path d="M158.27,176.2l.77.1a1.89,1.89,0,0,1-.68,1.05,2.29,2.29,0,0,1-2.79-.22,2.32,2.32,0,0,1-.57-1.67,2.43,2.43,0,0,1,.57-1.73,1.94,1.94,0,0,1,1.49-.62,1.89,1.89,0,0,1,1.44.6,2.39,2.39,0,0,1,.56,1.69s0,.11,0,.2h-3.29a1.7,1.7,0,0,0,.41,1.11,1.22,1.22,0,0,0,.92.39,1.14,1.14,0,0,0,.7-.22A1.43,1.43,0,0,0,158.27,176.2ZM155.82,175h2.46a1.49,1.49,0,0,0-.28-.83,1.14,1.14,0,0,0-.93-.43,1.19,1.19,0,0,0-.87.34A1.37,1.37,0,0,0,155.82,175Z"/><path d="M162,176.31l.74-.12a1,1,0,0,0,.35.68,1.21,1.21,0,0,0,.79.24,1.16,1.16,0,0,0,.76-.21.62.62,0,0,0,.25-.49.45.45,0,0,0-.22-.4,3.22,3.22,0,0,0-.76-.25,7,7,0,0,1-1.14-.36,1.09,1.09,0,0,1-.65-1,1.14,1.14,0,0,1,.13-.55,1.21,1.21,0,0,1,.37-.42,1.56,1.56,0,0,1,.48-.22,2.26,2.26,0,0,1,.65-.09,2.55,2.55,0,0,1,.91.15,1.25,1.25,0,0,1,.58.4,1.58,1.58,0,0,1,.26.68l-.73.1a.8.8,0,0,0-.29-.53,1.05,1.05,0,0,0-.67-.19,1.22,1.22,0,0,0-.73.17.5.5,0,0,0-.22.4.42.42,0,0,0,.09.26.67.67,0,0,0,.29.2l.66.19a9.25,9.25,0,0,1,1.11.35,1.12,1.12,0,0,1,.49.39,1.09,1.09,0,0,1,.18.64,1.25,1.25,0,0,1-.22.7,1.4,1.4,0,0,1-.63.51,2.29,2.29,0,0,1-.93.18,2.07,2.07,0,0,1-1.31-.36A1.65,1.65,0,0,1,162,176.31Z"/><path d="M169.61,176.2l.77.1a1.89,1.89,0,0,1-.68,1.05,2,2,0,0,1-1.26.37,2,2,0,0,1-1.53-.6,2.32,2.32,0,0,1-.57-1.67,2.43,2.43,0,0,1,.57-1.73,1.94,1.94,0,0,1,1.49-.62,1.89,1.89,0,0,1,1.44.6,2.39,2.39,0,0,1,.56,1.69s0,.11,0,.2h-3.29a1.7,1.7,0,0,0,.41,1.11,1.22,1.22,0,0,0,.92.39,1.14,1.14,0,0,0,.7-.22A1.43,1.43,0,0,0,169.61,176.2ZM167.16,175h2.46a1.5,1.5,0,0,0-.28-.83,1.15,1.15,0,0,0-.93-.43,1.19,1.19,0,0,0-.87.34A1.36,1.36,0,0,0,167.16,175Z"/><path d="M171.31,177.62v-4.41H172v.67a1.83,1.83,0,0,1,.47-.62.83.83,0,0,1,.48-.15,1.46,1.46,0,0,1,.77.24l-.26.69a1.06,1.06,0,0,0-.55-.16.72.72,0,0,0-.44.15.8.8,0,0,0-.28.41,2.91,2.91,0,0,0-.12.87v2.31Z"/><path d="M174.16,172.4v-.86h.75v.86Zm0,5.23v-4.41h.75v4.41Z"/><path d="M175.76,175.42a2.27,2.27,0,0,1,.68-1.81,2.05,2.05,0,0,1,1.39-.49,2,2,0,0,1,1.49.6,2.27,2.27,0,0,1,.58,1.65,2.92,2.92,0,0,1-.26,1.34,1.81,1.81,0,0,1-.74.76,2.17,2.17,0,0,1-1.06.27,2,2,0,0,1-1.5-.59A2.37,2.37,0,0,1,175.76,175.42Zm.77,0a1.88,1.88,0,0,0,.37,1.27,1.23,1.23,0,0,0,1.85,0,1.92,1.92,0,0,0,.37-1.29,1.82,1.82,0,0,0-.37-1.24,1.23,1.23,0,0,0-1.85,0A1.87,1.87,0,0,0,176.53,175.42Z"/><path d="M183.66,177.62V177a1.61,1.61,0,0,1-1.4.75,1.79,1.79,0,0,1-.73-.15,1.2,1.2,0,0,1-.5-.38,1.41,1.41,0,0,1-.23-.55,3.91,3.91,0,0,1,0-.7v-2.73h.75v2.45a4.27,4.27,0,0,0,0,.79.78.78,0,0,0,.3.46.92.92,0,0,0,.56.17,1.24,1.24,0,0,0,.63-.17,1,1,0,0,0,.42-.47,2.34,2.34,0,0,0,.12-.86v-2.36h.75v4.41Z"/><path d="M185.2,176.31l.74-.12a1,1,0,0,0,.35.68,1.21,1.21,0,0,0,.79.24,1.16,1.16,0,0,0,.76-.21.62.62,0,0,0,.25-.49.45.45,0,0,0-.22-.4,3.2,3.2,0,0,0-.76-.25,6.93,6.93,0,0,1-1.14-.36,1.09,1.09,0,0,1-.65-1,1.14,1.14,0,0,1,.14-.55,1.2,1.2,0,0,1,.37-.42,1.53,1.53,0,0,1,.48-.22,2.25,2.25,0,0,1,.64-.09,2.56,2.56,0,0,1,.91.15,1.24,1.24,0,0,1,.58.4,1.57,1.57,0,0,1,.26.68l-.73.1a.8.8,0,0,0-.29-.53,1,1,0,0,0-.67-.19,1.22,1.22,0,0,0-.73.17.5.5,0,0,0-.22.4.42.42,0,0,0,.09.26.66.66,0,0,0,.29.2l.66.19a9.29,9.29,0,0,1,1.11.35,1.12,1.12,0,0,1,.49.39,1.09,1.09,0,0,1,.18.64,1.24,1.24,0,0,1-.22.7,1.39,1.39,0,0,1-.63.51,2.29,2.29,0,0,1-.93.18,2.07,2.07,0,0,1-1.31-.36A1.65,1.65,0,0,1,185.2,176.31Z"/><path d="M192.11,172.4v-.86h.75v.86Zm0,5.23v-4.41h.75v4.41Z"/><path d="M194,177.62v-4.41h.67v.63a1.58,1.58,0,0,1,1.4-.73,1.85,1.85,0,0,1,.73.14,1.15,1.15,0,0,1,.5.38,1.42,1.42,0,0,1,.23.55,4.19,4.19,0,0,1,0,.73v2.71h-.75v-2.68a2,2,0,0,0-.09-.68.71.71,0,0,0-.31-.36,1,1,0,0,0-.52-.13,1.21,1.21,0,0,0-.82.3,1.49,1.49,0,0,0-.35,1.15v2.41Z"/><path d="M197.77,179.33l.14-.63a1.53,1.53,0,0,0,.35.06.4.4,0,0,0,.34-.15,1.55,1.55,0,0,0,.11-.76v-4.63h.75v4.65a2.19,2.19,0,0,1-.21,1.13,1,1,0,0,1-.9.42A2.16,2.16,0,0,1,197.77,179.33Zm.95-6.93v-.87h.75v.87Z"/><path d="M203.5,177.62V177a1.61,1.61,0,0,1-1.4.75,1.78,1.78,0,0,1-.73-.15,1.19,1.19,0,0,1-.5-.38,1.4,1.4,0,0,1-.23-.55,3.71,3.71,0,0,1,0-.7v-2.73h.75v2.45a4.49,4.49,0,0,0,0,.79.78.78,0,0,0,.3.46.93.93,0,0,0,.56.17,1.23,1.23,0,0,0,.63-.17,1,1,0,0,0,.42-.47,2.36,2.36,0,0,0,.12-.86v-2.36h.75v4.41Z"/><path d="M205.33,177.62v-4.41H206v.67a1.79,1.79,0,0,1,.48-.62.83.83,0,0,1,.48-.15,1.45,1.45,0,0,1,.77.24l-.26.69a1.06,1.06,0,0,0-.55-.16.71.71,0,0,0-.44.15.79.79,0,0,0-.28.41,2.91,2.91,0,0,0-.12.87v2.31Z"/><path d="M208.14,179.32l-.08-.7a1.64,1.64,0,0,0,.43.07.82.82,0,0,0,.4-.08.68.68,0,0,0,.24-.23,3.78,3.78,0,0,0,.23-.56l.07-.18-1.67-4.42h.81l.92,2.55q.18.49.32,1a10.06,10.06,0,0,1,.31-1l.94-2.57h.75l-1.68,4.48a8.75,8.75,0,0,1-.42,1,1.49,1.49,0,0,1-.46.54,1.08,1.08,0,0,1-.61.17A1.5,1.5,0,0,1,208.14,179.32Z"/><path d="M214.5,175.42a2.27,2.27,0,0,1,.68-1.81,2.05,2.05,0,0,1,1.39-.49,2,2,0,0,1,1.49.6,2.27,2.27,0,0,1,.58,1.65,2.92,2.92,0,0,1-.26,1.34,1.81,1.81,0,0,1-.74.76,2.16,2.16,0,0,1-1.06.27,2,2,0,0,1-1.5-.59A2.37,2.37,0,0,1,214.5,175.42Zm.77,0a1.88,1.88,0,0,0,.37,1.27,1.23,1.23,0,0,0,1.85,0,1.92,1.92,0,0,0,.37-1.29,1.82,1.82,0,0,0-.37-1.24,1.23,1.23,0,0,0-1.85,0A1.87,1.87,0,0,0,215.27,175.42Z"/><path d="M219.5,177.62v-4.41h.67v.67a1.83,1.83,0,0,1,.47-.62.83.83,0,0,1,.48-.15,1.46,1.46,0,0,1,.77.24l-.26.69a1.06,1.06,0,0,0-.55-.16.72.72,0,0,0-.44.15.8.8,0,0,0-.28.41,2.91,2.91,0,0,0-.12.87v2.31Z"/><path d="M227.56,177.62v-.56a1.37,1.37,0,0,1-1.23.66,1.73,1.73,0,0,1-1-.29,1.91,1.91,0,0,1-.68-.81,2.82,2.82,0,0,1-.24-1.2,3.13,3.13,0,0,1,.22-1.2,1.72,1.72,0,0,1,.66-.82,1.76,1.76,0,0,1,1-.29,1.48,1.48,0,0,1,.71.17,1.5,1.5,0,0,1,.51.44v-2.18h.74v6.08Zm-2.36-2.2a1.91,1.91,0,0,0,.36,1.27,1.08,1.08,0,0,0,.84.42,1.06,1.06,0,0,0,.83-.4,1.85,1.85,0,0,0,.34-1.22,2.07,2.07,0,0,0-.35-1.33,1.07,1.07,0,0,0-.86-.42,1,1,0,0,0-.83.41A2,2,0,0,0,225.2,175.42Z"/><path d="M232.45,176.2l.77.1a1.89,1.89,0,0,1-.68,1.05,2.29,2.29,0,0,1-2.79-.22,2.32,2.32,0,0,1-.57-1.67,2.43,2.43,0,0,1,.57-1.73,1.94,1.94,0,0,1,1.49-.62,1.89,1.89,0,0,1,1.44.6,2.39,2.39,0,0,1,.56,1.69s0,.11,0,.2H230a1.7,1.7,0,0,0,.41,1.11,1.22,1.22,0,0,0,.92.39,1.14,1.14,0,0,0,.7-.22A1.43,1.43,0,0,0,232.45,176.2ZM230,175h2.46a1.49,1.49,0,0,0-.28-.83,1.14,1.14,0,0,0-.93-.43,1.19,1.19,0,0,0-.87.34A1.37,1.37,0,0,0,230,175Z"/><path d="M237,177.08a2.78,2.78,0,0,1-.8.5,2.32,2.32,0,0,1-.82.15,1.6,1.6,0,0,1-1.12-.36,1.17,1.17,0,0,1-.39-.91,1.23,1.23,0,0,1,.53-1,1.81,1.81,0,0,1,.54-.24,5.27,5.27,0,0,1,.66-.11,6.8,6.8,0,0,0,1.33-.26c0-.1,0-.17,0-.2a.83.83,0,0,0-.21-.64,1.25,1.25,0,0,0-.85-.25,1.32,1.32,0,0,0-.78.18,1.13,1.13,0,0,0-.37.65l-.73-.1a1.82,1.82,0,0,1,.33-.76,1.45,1.45,0,0,1,.66-.44,3,3,0,0,1,1-.16,2.67,2.67,0,0,1,.92.13,1.22,1.22,0,0,1,.52.33,1.18,1.18,0,0,1,.23.51,4.25,4.25,0,0,1,0,.69v1a10.75,10.75,0,0,0,0,1.32,1.64,1.64,0,0,0,.19.53h-.78A1.57,1.57,0,0,1,237,177.08Zm-.06-1.67a5.54,5.54,0,0,1-1.22.28,2.8,2.8,0,0,0-.65.15.64.64,0,0,0-.29.24.63.63,0,0,0-.1.35.64.64,0,0,0,.23.5,1,1,0,0,0,.66.2,1.54,1.54,0,0,0,.77-.19,1.16,1.16,0,0,0,.49-.52,1.8,1.8,0,0,0,.12-.75Z"/><path d="M240.51,177l.11.66a2.8,2.8,0,0,1-.56.07,1.27,1.27,0,0,1-.63-.13.73.73,0,0,1-.32-.34,2.7,2.7,0,0,1-.09-.88V173.8h-.55v-.58H239v-1.09l.74-.45v1.54h.75v.58h-.75v2.58a1.31,1.31,0,0,0,0,.41.31.31,0,0,0,.13.14.49.49,0,0,0,.25.05Z"/><path d="M241.24,177.62v-6.08H242v2.18a1.67,1.67,0,0,1,1.32-.61,1.78,1.78,0,0,1,.85.19,1.13,1.13,0,0,1,.52.53,2.46,2.46,0,0,1,.16,1v2.79h-.75v-2.79a1.16,1.16,0,0,0-.24-.82.9.9,0,0,0-.69-.25,1.21,1.21,0,0,0-.62.17,1,1,0,0,0-.42.47,2.12,2.12,0,0,0-.12.81v2.41Z"/><path d="M246.18,177.62v-.85H247v.85Z"/></g></svg>