<svg id="Layer_1" data-name="Layer 1" xmlns="http://www.w3.org/2000/svg" xmlns:xlink="http://www.w3.org/1999/xlink" viewBox="0 0 263.1 270.95"><defs><clipPath id="clip-path"><rect width="263.1" height="270.95" style="fill:none"/></clipPath></defs><title>warning-explsn_hzrd_prctns</title><g style="clip-path:url(#clip-path)"><rect x="0.75" y="0.75" width="261.6" height="269.45" style="fill:none;stroke:#000;stroke-width:1.5px"/></g><polyline points="120.45 82.95 118.68 72.7 124.05 77.51 124.66 64.95 129.78 74.5 131.31 68.92 133.07 72.83 135.33 66.17 136.13 76.16 143.87 70.2 140.94 80.84 144.3 79.88 142.84 83.28 151.19 84.43 148.38 81.55 153.69 74.75 145.88 78.15 157.47 48.29 142.84 61.67 143.57 53.08 138.87 61.55 138.63 33.1 132.65 59.44 129.23 49.89 128.2 60.02 114.41 33.04 118.07 64.12 108.74 53.8 114.54 72.38 105.63 66.17 116.61 84.88 120.45 84.75"/><g style="clip-path:url(#clip-path)"><line x1="0.93" y1="93.59" x2="261.6" y2="93.59" style="fill:none;stroke:#000;stroke-width:1.5px"/></g><g style="clip-path:url(#clip-path)"><path d="M81.27,107.69V99.1h6.37v1.45H83v1.9h4.31v1.45H83v2.34h4.8v1.45Z"/><path d="M88.47,107.69l2.24-3.21-2.15-3h2l1.1,1.71,1.16-1.71h1.93l-2.11,2.95,2.3,3.28h-2l-1.27-1.93-1.28,1.93Z"/><path d="M95.89,101.46h1.54v.91a2.3,2.3,0,0,1,.81-.76,2.23,2.23,0,0,1,1.13-.29,2.37,2.37,0,0,1,1.84.85,3.44,3.44,0,0,1,.76,2.37,3.54,3.54,0,0,1-.76,2.42,2.37,2.37,0,0,1-1.85.86,2.1,2.1,0,0,1-.93-.21,3.15,3.15,0,0,1-.88-.7v3.13H95.89Zm1.63,3a2.4,2.4,0,0,0,.42,1.55,1.27,1.27,0,0,0,1,.5,1.19,1.19,0,0,0,1-.46,2.37,2.37,0,0,0,.38-1.51,2.25,2.25,0,0,0-.39-1.45,1.21,1.21,0,0,0-1-.47,1.26,1.26,0,0,0-1,.47A2.07,2.07,0,0,0,97.52,104.47Z"/><path d="M103.27,107.69V99.1h1.65v8.59Z"/><path d="M106.22,104.49a3.37,3.37,0,0,1,.4-1.59,2.78,2.78,0,0,1,1.15-1.17,3.4,3.4,0,0,1,1.66-.4,3.11,3.11,0,0,1,2.31.92,3.17,3.17,0,0,1,.9,2.32,3.21,3.21,0,0,1-.91,2.34,3.08,3.08,0,0,1-2.29.93,3.61,3.61,0,0,1-1.63-.39,2.65,2.65,0,0,1-1.18-1.13A3.78,3.78,0,0,1,106.22,104.49Zm1.69.09a2.06,2.06,0,0,0,.44,1.42,1.44,1.44,0,0,0,2.17,0,2.09,2.09,0,0,0,.44-1.43,2.05,2.05,0,0,0-.44-1.41,1.44,1.44,0,0,0-2.17,0A2.06,2.06,0,0,0,107.91,104.58Z"/><path d="M113.35,105.91l1.65-.25a1.21,1.21,0,0,0,.43.73,1.45,1.45,0,0,0,.9.25,1.63,1.63,0,0,0,1-.23.52.52,0,0,0,.22-.44.43.43,0,0,0-.12-.31,1.31,1.31,0,0,0-.55-.22,8.88,8.88,0,0,1-2.53-.8,1.6,1.6,0,0,1-.74-1.4,1.73,1.73,0,0,1,.64-1.36,3,3,0,0,1,2-.55,3.46,3.46,0,0,1,1.9.42A2.13,2.13,0,0,1,119,103l-1.55.29a1,1,0,0,0-.38-.56,1.38,1.38,0,0,0-.79-.19,1.79,1.79,0,0,0-.93.18.39.39,0,0,0-.19.33.36.36,0,0,0,.16.3,6.18,6.18,0,0,0,1.54.46,4.58,4.58,0,0,1,1.84.73,1.52,1.52,0,0,1,.52,1.22,1.88,1.88,0,0,1-.71,1.47,3.16,3.16,0,0,1-2.12.62,3.47,3.47,0,0,1-2-.52A2.38,2.38,0,0,1,113.35,105.91Z"/><path d="M120.61,100.62V99.1h1.65v1.52Zm0,7.07v-6.22h1.65v6.22Z"/><path d="M123.56,104.49a3.37,3.37,0,0,1,.4-1.59,2.78,2.78,0,0,1,1.15-1.17,3.4,3.4,0,0,1,1.66-.4,3.11,3.11,0,0,1,2.31.92,3.17,3.17,0,0,1,.9,2.32,3.21,3.21,0,0,1-.91,2.34,3.08,3.08,0,0,1-2.29.93,3.61,3.61,0,0,1-1.63-.39,2.65,2.65,0,0,1-1.18-1.13A3.78,3.78,0,0,1,123.56,104.49Zm1.69.09a2.06,2.06,0,0,0,.44,1.42,1.44,1.44,0,0,0,2.17,0,2.09,2.09,0,0,0,.44-1.43,2.05,2.05,0,0,0-.44-1.41,1.44,1.44,0,0,0-2.17,0A2.06,2.06,0,0,0,125.25,104.58Z"/><path d="M136.93,107.69h-1.65v-3.18a4.91,4.91,0,0,0-.11-1.3.91.91,0,0,0-.34-.46,1,1,0,0,0-.57-.16,1.32,1.32,0,0,0-.77.23,1.18,1.18,0,0,0-.46.62,5.34,5.34,0,0,0-.13,1.43v2.82h-1.65v-6.22h1.53v.91a2.55,2.55,0,0,1,3-.86,1.67,1.67,0,0,1,.68.5,1.81,1.81,0,0,1,.32.69,5.15,5.15,0,0,1,.09,1.11Z"/><path d="M142,107.69V99.1h1.73v3.38h3.4V99.1h1.73v8.59h-1.73v-3.76h-3.4v3.76Z"/><path d="M151.83,103.36l-1.49-.27a2.33,2.33,0,0,1,.87-1.34,3.17,3.17,0,0,1,1.83-.43,3.94,3.94,0,0,1,1.64.26,1.64,1.64,0,0,1,.76.66,3.4,3.4,0,0,1,.22,1.47l0,1.92a6.65,6.65,0,0,0,.08,1.21,3.53,3.53,0,0,0,.29.83h-1.63q-.06-.16-.16-.49l-.06-.19a3,3,0,0,1-.9.62,2.58,2.58,0,0,1-1,.21,2.12,2.12,0,0,1-1.51-.52,1.73,1.73,0,0,1-.55-1.32,1.77,1.77,0,0,1,.25-.94,1.65,1.65,0,0,1,.71-.63,5.51,5.51,0,0,1,1.31-.38,9,9,0,0,0,1.6-.4v-.16a.85.85,0,0,0-.23-.68,1.4,1.4,0,0,0-.88-.2,1.18,1.18,0,0,0-.69.17A1.2,1.2,0,0,0,151.83,103.36Zm2.2,1.34a10.29,10.29,0,0,1-1,.25,3,3,0,0,0-.9.29.69.69,0,0,0-.32.58.81.81,0,0,0,.26.6.9.9,0,0,0,.66.25,1.43,1.43,0,0,0,.85-.29,1,1,0,0,0,.39-.54,3.25,3.25,0,0,0,.06-.8Z"/><path d="M156.61,107.69V106.4l2.33-2.68q.57-.66.85-.93l-.76,0h-2.2v-1.37H162v1.17l-2.38,2.74-.84.91.85,0h2.55v1.45Z"/><path d="M164.5,103.36l-1.49-.27a2.33,2.33,0,0,1,.87-1.34,3.17,3.17,0,0,1,1.83-.43,3.94,3.94,0,0,1,1.64.26,1.64,1.64,0,0,1,.76.66,3.4,3.4,0,0,1,.22,1.47l0,1.92a6.65,6.65,0,0,0,.08,1.21,3.53,3.53,0,0,0,.29.83h-1.63q-.06-.16-.16-.49l-.06-.19a3,3,0,0,1-.9.62,2.58,2.58,0,0,1-1,.21,2.12,2.12,0,0,1-1.51-.52,1.73,1.73,0,0,1-.55-1.32,1.77,1.77,0,0,1,.25-.94,1.65,1.65,0,0,1,.71-.63,5.51,5.51,0,0,1,1.31-.38,9,9,0,0,0,1.6-.4v-.16a.85.85,0,0,0-.23-.68,1.4,1.4,0,0,0-.88-.2,1.18,1.18,0,0,0-.69.17A1.2,1.2,0,0,0,164.5,103.36Zm2.2,1.34a10.29,10.29,0,0,1-1,.25,3,3,0,0,0-.9.29.69.69,0,0,0-.32.58.81.81,0,0,0,.26.6.9.9,0,0,0,.66.25,1.43,1.43,0,0,0,.85-.29,1,1,0,0,0,.39-.54,3.25,3.25,0,0,0,.06-.8Z"/><path d="M171.52,107.69h-1.65v-6.22h1.53v.88a2.66,2.66,0,0,1,.71-.83,1.3,1.3,0,0,1,.71-.2,2.09,2.09,0,0,1,1.08.31l-.51,1.44a1.44,1.44,0,0,0-.77-.27.91.91,0,0,0-.59.19,1.3,1.3,0,0,0-.38.69,9.76,9.76,0,0,0-.14,2.09Z"/><path d="M180.28,107.69h-1.53v-.91a2.47,2.47,0,0,1-.9.79,2.31,2.31,0,0,1-1,.26A2.37,2.37,0,0,1,175,107a3.52,3.52,0,0,1-.76-2.41,3.47,3.47,0,0,1,.74-2.41,2.43,2.43,0,0,1,1.88-.82,2.33,2.33,0,0,1,1.8.87V99.1h1.65Zm-4.39-3.25a2.85,2.85,0,0,0,.28,1.44,1.24,1.24,0,0,0,1.11.64,1.21,1.21,0,0,0,1-.48,2.23,2.23,0,0,0,.4-1.44,2.44,2.44,0,0,0-.39-1.54,1.22,1.22,0,0,0-1-.47,1.24,1.24,0,0,0-1,.47A2.1,2.1,0,0,0,175.88,104.44Z"/><path d="M4.6,120.49H6.34v4.65a9.65,9.65,0,0,0,.06,1.44,1.39,1.39,0,0,0,.53.85,1.85,1.85,0,0,0,1.15.32,1.75,1.75,0,0,0,1.11-.3,1.19,1.19,0,0,0,.45-.74,9.66,9.66,0,0,0,.08-1.46v-4.75h1.73V125a11.59,11.59,0,0,1-.14,2.19,2.42,2.42,0,0,1-.52,1.08,2.62,2.62,0,0,1-1,.7,4.4,4.4,0,0,1-1.65.26,4.76,4.76,0,0,1-1.87-.28,2.67,2.67,0,0,1-1-.74,2.37,2.37,0,0,1-.49-1,10.43,10.43,0,0,1-.17-2.18Z"/><path d="M12.69,127.31l1.65-.25a1.21,1.21,0,0,0,.43.73,1.45,1.45,0,0,0,.9.25,1.63,1.63,0,0,0,1-.23.52.52,0,0,0,.22-.44.43.43,0,0,0-.12-.31,1.31,1.31,0,0,0-.55-.22,8.88,8.88,0,0,1-2.53-.8,1.6,1.6,0,0,1-.74-1.4,1.73,1.73,0,0,1,.64-1.36,3,3,0,0,1,2-.55,3.46,3.46,0,0,1,1.9.42,2.13,2.13,0,0,1,.86,1.23l-1.55.29a1,1,0,0,0-.38-.56,1.38,1.38,0,0,0-.79-.19,1.79,1.79,0,0,0-.93.18.39.39,0,0,0-.19.33.36.36,0,0,0,.16.3,6.18,6.18,0,0,0,1.54.46,4.58,4.58,0,0,1,1.84.73,1.52,1.52,0,0,1,.52,1.22,1.88,1.88,0,0,1-.71,1.47,3.16,3.16,0,0,1-2.12.62,3.47,3.47,0,0,1-2-.52A2.38,2.38,0,0,1,12.69,127.31Z"/><path d="M23.55,127.1l1.64.28a2.69,2.69,0,0,1-1,1.37,2.93,2.93,0,0,1-1.71.47,2.78,2.78,0,0,1-2.4-1.06,3.56,3.56,0,0,1-.62-2.14,3.44,3.44,0,0,1,.81-2.42,2.66,2.66,0,0,1,2-.88,2.76,2.76,0,0,1,2.19.92,4.06,4.06,0,0,1,.77,2.81H21.15a1.67,1.67,0,0,0,.4,1.14,1.25,1.25,0,0,0,.95.41,1,1,0,0,0,.65-.21A1.3,1.3,0,0,0,23.55,127.1Zm.09-1.66a1.59,1.59,0,0,0-.37-1.09,1.19,1.19,0,0,0-1.75,0,1.52,1.52,0,0,0-.35,1.07Z"/><path d="M31.18,124.76l-1.49-.27a2.33,2.33,0,0,1,.87-1.34,3.17,3.17,0,0,1,1.83-.43A3.94,3.94,0,0,1,34,123a1.64,1.64,0,0,1,.76.66,3.4,3.4,0,0,1,.22,1.47L35,127a6.67,6.67,0,0,0,.08,1.21,3.53,3.53,0,0,0,.3.83H33.73q-.06-.16-.16-.49l-.06-.19a3,3,0,0,1-.9.62,2.58,2.58,0,0,1-1,.21,2.12,2.12,0,0,1-1.51-.52,1.73,1.73,0,0,1-.55-1.32,1.77,1.77,0,0,1,.25-.94,1.65,1.65,0,0,1,.71-.63,5.52,5.52,0,0,1,1.31-.38,9,9,0,0,0,1.6-.4v-.16a.85.85,0,0,0-.23-.68,1.4,1.4,0,0,0-.88-.2,1.18,1.18,0,0,0-.69.17A1.2,1.2,0,0,0,31.18,124.76Zm2.2,1.34a10.29,10.29,0,0,1-1,.25,3,3,0,0,0-.9.29.69.69,0,0,0-.32.58.81.81,0,0,0,.26.6.9.9,0,0,0,.66.25,1.43,1.43,0,0,0,.85-.29,1,1,0,0,0,.39-.54,3.25,3.25,0,0,0,.06-.8Z"/><path d="M45.62,129.08H44v-3.18a4.91,4.91,0,0,0-.11-1.3.91.91,0,0,0-.34-.46A1,1,0,0,0,43,124a1.32,1.32,0,0,0-.77.23,1.18,1.18,0,0,0-.47.62,5.37,5.37,0,0,0-.13,1.43v2.82H39.95v-6.22h1.53v.91a2.55,2.55,0,0,1,3-.86,1.67,1.67,0,0,1,.68.5,1.81,1.81,0,0,1,.32.69,5.14,5.14,0,0,1,.09,1.11Z"/><path d="M50.89,127.1l1.64.28a2.69,2.69,0,0,1-1,1.37,2.93,2.93,0,0,1-1.71.47,2.78,2.78,0,0,1-2.4-1.06,3.56,3.56,0,0,1-.62-2.14,3.44,3.44,0,0,1,.81-2.42,2.66,2.66,0,0,1,2-.88,2.76,2.76,0,0,1,2.19.92,4.06,4.06,0,0,1,.77,2.81H48.5a1.67,1.67,0,0,0,.4,1.14,1.25,1.25,0,0,0,.95.41,1,1,0,0,0,.65-.21A1.3,1.3,0,0,0,50.89,127.1Zm.09-1.66a1.59,1.59,0,0,0-.37-1.09,1.19,1.19,0,0,0-1.75,0,1.52,1.52,0,0,0-.35,1.07Z"/><path d="M55.12,129.08l-2-6.22h1.6l1.17,4.08L57,122.86h1.59l1,4.08,1.19-4.08h1.62l-2,6.22H58.85l-1.07-4-1.05,4Z"/><path d="M72.14,125.92l1.68.53a3.77,3.77,0,0,1-1.29,2.09,4,4,0,0,1-5.09-.49,4.47,4.47,0,0,1-1.1-3.2,4.7,4.7,0,0,1,1.11-3.33,3.8,3.8,0,0,1,2.91-1.19,3.57,3.57,0,0,1,2.56.93,3.39,3.39,0,0,1,.88,1.58l-1.72.41a1.77,1.77,0,0,0-1.81-1.44,2,2,0,0,0-1.55.69,3.36,3.36,0,0,0-.59,2.22,3.6,3.6,0,0,0,.59,2.32,1.9,1.9,0,0,0,1.52.69,1.74,1.74,0,0,0,1.19-.44A2.55,2.55,0,0,0,72.14,125.92Z"/><path d="M74.87,126.29l1.69-.16a2.06,2.06,0,0,0,.62,1.25,1.87,1.87,0,0,0,1.26.4,1.93,1.93,0,0,0,1.26-.35,1.05,1.05,0,0,0,.42-.83.78.78,0,0,0-.18-.52,1.43,1.43,0,0,0-.62-.37q-.3-.11-1.39-.37a4.71,4.71,0,0,1-2-.85,2.24,2.24,0,0,1-.79-1.73,2.21,2.21,0,0,1,.37-1.23,2.33,2.33,0,0,1,1.07-.87,4.3,4.3,0,0,1,1.69-.3,3.63,3.63,0,0,1,2.43.71,2.5,2.5,0,0,1,.86,1.89l-1.73.08a1.47,1.47,0,0,0-.48-1,1.75,1.75,0,0,0-1.1-.29,2,2,0,0,0-1.18.31.63.63,0,0,0-.28.53.66.66,0,0,0,.26.52,4.56,4.56,0,0,0,1.59.57,8.41,8.41,0,0,1,1.87.62,2.41,2.41,0,0,1,.95.87,2.7,2.7,0,0,1-.07,2.75,2.46,2.46,0,0,1-1.16,1,4.87,4.87,0,0,1-1.87.31,3.72,3.72,0,0,1-2.5-.75A3.28,3.28,0,0,1,74.87,126.29Z"/><path d="M91.06,129.08H89.17l-.75-2H85l-.71,2H82.44l3.35-8.59h1.83Zm-3.19-3.4-1.18-3.19-1.16,3.19Z"/><path d="M96.08,124.76l-1.49-.27a2.33,2.33,0,0,1,.87-1.34,3.17,3.17,0,0,1,1.83-.43,3.94,3.94,0,0,1,1.64.26,1.64,1.64,0,0,1,.76.66,3.4,3.4,0,0,1,.22,1.47l0,1.92a6.67,6.67,0,0,0,.08,1.21,3.53,3.53,0,0,0,.3.83H98.63q-.06-.16-.16-.49l-.06-.19a3,3,0,0,1-.9.62,2.58,2.58,0,0,1-1,.21A2.12,2.12,0,0,1,95,128.7a1.73,1.73,0,0,1-.55-1.32,1.77,1.77,0,0,1,.25-.94,1.65,1.65,0,0,1,.71-.63,5.52,5.52,0,0,1,1.31-.38,9,9,0,0,0,1.6-.4v-.16a.85.85,0,0,0-.23-.68,1.4,1.4,0,0,0-.88-.2,1.18,1.18,0,0,0-.69.17A1.2,1.2,0,0,0,96.08,124.76Zm2.2,1.34a10.29,10.29,0,0,1-1,.25,3,3,0,0,0-.9.29.69.69,0,0,0-.32.58.81.81,0,0,0,.26.6.9.9,0,0,0,.66.25,1.43,1.43,0,0,0,.85-.29,1,1,0,0,0,.39-.54,3.25,3.25,0,0,0,.06-.8Z"/><path d="M101.48,122.86H103v.91a2.3,2.3,0,0,1,.81-.76,2.23,2.23,0,0,1,1.13-.29,2.37,2.37,0,0,1,1.84.85,3.44,3.44,0,0,1,.76,2.37,3.54,3.54,0,0,1-.76,2.42,2.37,2.37,0,0,1-1.85.86A2.1,2.1,0,0,1,104,129a3.15,3.15,0,0,1-.88-.7v3.13h-1.65Zm1.63,3a2.4,2.4,0,0,0,.42,1.55,1.27,1.27,0,0,0,1,.5,1.19,1.19,0,0,0,1-.46,2.37,2.37,0,0,0,.38-1.51,2.25,2.25,0,0,0-.39-1.45,1.21,1.21,0,0,0-1-.47,1.26,1.26,0,0,0-1,.47A2.07,2.07,0,0,0,103.11,125.87Z"/><path d="M108.81,122.86h1.54v.91a2.3,2.3,0,0,1,.81-.76,2.23,2.23,0,0,1,1.13-.29,2.37,2.37,0,0,1,1.84.85,3.44,3.44,0,0,1,.76,2.37,3.54,3.54,0,0,1-.76,2.42,2.37,2.37,0,0,1-1.85.86,2.1,2.1,0,0,1-.93-.21,3.15,3.15,0,0,1-.88-.7v3.13h-1.65Zm1.63,3a2.4,2.4,0,0,0,.42,1.55,1.27,1.27,0,0,0,1,.5,1.19,1.19,0,0,0,1-.46,2.37,2.37,0,0,0,.38-1.51,2.25,2.25,0,0,0-.39-1.45,1.21,1.21,0,0,0-1-.47,1.26,1.26,0,0,0-1,.47A2.07,2.07,0,0,0,110.44,125.87Z"/><path d="M117.76,129.08h-1.65v-6.22h1.53v.88a2.66,2.66,0,0,1,.71-.83,1.3,1.3,0,0,1,.71-.2,2.09,2.09,0,0,1,1.08.31l-.51,1.44a1.44,1.44,0,0,0-.77-.27.91.91,0,0,0-.59.19,1.3,1.3,0,0,0-.38.69,9.78,9.78,0,0,0-.14,2.09Z"/><path d="M120.48,125.88a3.37,3.37,0,0,1,.4-1.59,2.78,2.78,0,0,1,1.15-1.17,3.4,3.4,0,0,1,1.66-.4,3.11,3.11,0,0,1,2.31.92,3.17,3.17,0,0,1,.9,2.32,3.21,3.21,0,0,1-.91,2.34,3.08,3.08,0,0,1-2.29.93,3.61,3.61,0,0,1-1.63-.39,2.65,2.65,0,0,1-1.18-1.13A3.78,3.78,0,0,1,120.48,125.88Zm1.69.09a2.06,2.06,0,0,0,.44,1.42,1.44,1.44,0,0,0,2.17,0,2.09,2.09,0,0,0,.44-1.43,2.05,2.05,0,0,0-.44-1.41,1.44,1.44,0,0,0-2.17,0A2.06,2.06,0,0,0,122.16,126Z"/><path d="M129.9,129.08l-2.51-6.22h1.73l1.17,3.18.34,1.06q.13-.4.17-.53T131,126l1.18-3.18h1.69l-2.47,6.22Z"/><path d="M138.46,127.1l1.64.28a2.69,2.69,0,0,1-1,1.37,2.94,2.94,0,0,1-1.71.47,2.78,2.78,0,0,1-2.4-1.06,3.56,3.56,0,0,1-.62-2.14,3.44,3.44,0,0,1,.81-2.42,2.66,2.66,0,0,1,2-.88,2.76,2.76,0,0,1,2.19.92,4.06,4.06,0,0,1,.77,2.81h-4.12a1.67,1.67,0,0,0,.4,1.14,1.25,1.25,0,0,0,.95.41,1,1,0,0,0,.65-.21A1.3,1.3,0,0,0,138.46,127.1Zm.09-1.66a1.59,1.59,0,0,0-.37-1.09,1.19,1.19,0,0,0-1.75,0,1.52,1.52,0,0,0-.35,1.07Z"/><path d="M147.24,129.08h-1.53v-.91a2.47,2.47,0,0,1-.9.79,2.31,2.31,0,0,1-1,.26,2.37,2.37,0,0,1-1.84-.86,3.52,3.52,0,0,1-.77-2.41,3.47,3.47,0,0,1,.74-2.41,2.43,2.43,0,0,1,1.88-.82,2.33,2.33,0,0,1,1.8.87v-3.09h1.65Zm-4.39-3.25a2.85,2.85,0,0,0,.28,1.44,1.24,1.24,0,0,0,1.11.64,1.21,1.21,0,0,0,1-.48,2.23,2.23,0,0,0,.4-1.44,2.44,2.44,0,0,0-.39-1.54,1.27,1.27,0,0,0-2,0A2.1,2.1,0,0,0,142.85,125.84Z"/><path d="M152,129.49l1.88.23a.64.64,0,0,0,.22.45,1.24,1.24,0,0,0,.74.18,1.92,1.92,0,0,0,1-.19.8.8,0,0,0,.33-.42,2.5,2.5,0,0,0,.08-.76v-.91a2.23,2.23,0,0,1-1.86,1,2.29,2.29,0,0,1-2-1.06,3.6,3.6,0,0,1-.57-2.09,3.43,3.43,0,0,1,.75-2.39,2.43,2.43,0,0,1,1.87-.83,2.28,2.28,0,0,1,1.9,1v-.87h1.54v5.58a5.56,5.56,0,0,1-.18,1.65,2,2,0,0,1-.51.86,2.25,2.25,0,0,1-.87.49,4.62,4.62,0,0,1-1.39.18,3.59,3.59,0,0,1-2.24-.54,1.7,1.7,0,0,1-.66-1.37Q152,129.61,152,129.49Zm1.47-3.65a2.24,2.24,0,0,0,.38,1.45,1.18,1.18,0,0,0,.95.46,1.31,1.31,0,0,0,1-.47,2.06,2.06,0,0,0,.42-1.4,2.18,2.18,0,0,0-.4-1.44,1.27,1.27,0,0,0-1-.47,1.21,1.21,0,0,0-1,.46A2.16,2.16,0,0,0,153.52,125.84Z"/><path d="M160.76,124.76l-1.49-.27a2.33,2.33,0,0,1,.87-1.34,3.17,3.17,0,0,1,1.83-.43,3.94,3.94,0,0,1,1.64.26,1.64,1.64,0,0,1,.76.66,3.4,3.4,0,0,1,.22,1.47l0,1.92a6.65,6.65,0,0,0,.08,1.21,3.53,3.53,0,0,0,.29.83h-1.63q-.06-.16-.16-.49l-.06-.19a3,3,0,0,1-.9.62,2.58,2.58,0,0,1-1,.21,2.12,2.12,0,0,1-1.51-.52,1.73,1.73,0,0,1-.55-1.32,1.77,1.77,0,0,1,.25-.94,1.65,1.65,0,0,1,.71-.63,5.51,5.51,0,0,1,1.31-.38,9,9,0,0,0,1.6-.4v-.16a.85.85,0,0,0-.23-.68,1.4,1.4,0,0,0-.88-.2,1.18,1.18,0,0,0-.69.17A1.2,1.2,0,0,0,160.76,124.76Zm2.2,1.34a10.29,10.29,0,0,1-1,.25,3,3,0,0,0-.9.29.69.69,0,0,0-.32.58.81.81,0,0,0,.26.6.9.9,0,0,0,.66.25,1.43,1.43,0,0,0,.85-.29,1,1,0,0,0,.39-.54,3.25,3.25,0,0,0,.06-.8Z"/><path d="M165.62,127.31l1.65-.25a1.21,1.21,0,0,0,.43.73,1.45,1.45,0,0,0,.9.25,1.63,1.63,0,0,0,1-.23.52.52,0,0,0,.22-.44.43.43,0,0,0-.12-.31,1.31,1.31,0,0,0-.55-.22,8.88,8.88,0,0,1-2.53-.8,1.6,1.6,0,0,1-.74-1.4,1.73,1.73,0,0,1,.64-1.36,3,3,0,0,1,2-.55,3.46,3.46,0,0,1,1.9.42,2.13,2.13,0,0,1,.86,1.23l-1.55.29a1,1,0,0,0-.38-.56,1.39,1.39,0,0,0-.79-.19,1.79,1.79,0,0,0-.93.18.39.39,0,0,0-.19.33.36.36,0,0,0,.16.3,6.19,6.19,0,0,0,1.54.46,4.57,4.57,0,0,1,1.84.73,1.52,1.52,0,0,1,.52,1.22,1.88,1.88,0,0,1-.71,1.47,3.16,3.16,0,0,1-2.12.62,3.47,3.47,0,0,1-2-.52A2.38,2.38,0,0,1,165.62,127.31Z"/><path d="M175.63,127.31l1.65-.25a1.21,1.21,0,0,0,.43.73,1.45,1.45,0,0,0,.9.25,1.63,1.63,0,0,0,1-.23.52.52,0,0,0,.22-.44.43.43,0,0,0-.12-.31,1.31,1.31,0,0,0-.55-.22,8.88,8.88,0,0,1-2.53-.8,1.6,1.6,0,0,1-.74-1.4,1.73,1.73,0,0,1,.64-1.36,3,3,0,0,1,2-.55,3.46,3.46,0,0,1,1.9.42,2.13,2.13,0,0,1,.86,1.23l-1.55.29a1,1,0,0,0-.38-.56,1.39,1.39,0,0,0-.79-.19,1.79,1.79,0,0,0-.93.18.39.39,0,0,0-.19.33.36.36,0,0,0,.16.3,6.19,6.19,0,0,0,1.54.46,4.57,4.57,0,0,1,1.84.73,1.52,1.52,0,0,1,.52,1.22,1.88,1.88,0,0,1-.71,1.47,3.16,3.16,0,0,1-2.12.62,3.47,3.47,0,0,1-2-.52A2.38,2.38,0,0,1,175.63,127.31Z"/><path d="M187,129.08v-.93a2.4,2.4,0,0,1-.89.79,2.51,2.51,0,0,1-1.17.29,2.29,2.29,0,0,1-1.12-.28,1.63,1.63,0,0,1-.72-.77,3.45,3.45,0,0,1-.22-1.38v-3.94h1.65v2.86a7.9,7.9,0,0,0,.09,1.61.88.88,0,0,0,.33.47,1,1,0,0,0,.61.17,1.3,1.3,0,0,0,.76-.23,1.18,1.18,0,0,0,.46-.57,6.67,6.67,0,0,0,.12-1.68v-2.62h1.65v6.22Z"/><path d="M190.17,122.86h1.54v.91a2.3,2.3,0,0,1,.81-.76,2.23,2.23,0,0,1,1.13-.29,2.37,2.37,0,0,1,1.84.85,3.44,3.44,0,0,1,.76,2.37,3.54,3.54,0,0,1-.76,2.42,2.37,2.37,0,0,1-1.85.86,2.09,2.09,0,0,1-.93-.21,3.15,3.15,0,0,1-.88-.7v3.13h-1.65Zm1.63,3a2.4,2.4,0,0,0,.42,1.55,1.27,1.27,0,0,0,1,.5,1.19,1.19,0,0,0,1-.46,2.37,2.37,0,0,0,.38-1.51,2.25,2.25,0,0,0-.39-1.45,1.21,1.21,0,0,0-1-.47,1.26,1.26,0,0,0-1,.47A2.07,2.07,0,0,0,191.8,125.87Z"/><path d="M197.5,122.86H199v.91a2.3,2.3,0,0,1,.81-.76,2.23,2.23,0,0,1,1.13-.29,2.37,2.37,0,0,1,1.84.85,3.44,3.44,0,0,1,.76,2.37,3.54,3.54,0,0,1-.76,2.42,2.37,2.37,0,0,1-1.85.86A2.09,2.09,0,0,1,200,129a3.15,3.15,0,0,1-.88-.7v3.13H197.5Zm1.63,3a2.4,2.4,0,0,0,.42,1.55,1.27,1.27,0,0,0,1,.5,1.19,1.19,0,0,0,1-.46,2.37,2.37,0,0,0,.38-1.51,2.25,2.25,0,0,0-.39-1.45,1.21,1.21,0,0,0-1-.47,1.26,1.26,0,0,0-1,.47A2.07,2.07,0,0,0,199.13,125.87Z"/><path d="M204.88,129.08v-8.59h1.65v8.59Z"/><path d="M207.43,122.86h1.75l1.49,4.42,1.45-4.42h1.71l-2.2,6-.39,1.08a4.43,4.43,0,0,1-.41.83,1.8,1.8,0,0,1-.45.47,2,2,0,0,1-.63.28,3.26,3.26,0,0,1-.84.1,4.36,4.36,0,0,1-.93-.1l-.15-1.29a3.64,3.64,0,0,0,.7.08,1,1,0,0,0,.85-.34,2.34,2.34,0,0,0,.42-.86Z"/><path d="M218.22,129.08v-8.59h1.65v8.59Z"/><path d="M221.55,122v-1.52h1.65V122Zm0,7.07v-6.22h1.65v6.22Z"/><path d="M230.54,129.08H228.9v-3.18a4.91,4.91,0,0,0-.11-1.3.91.91,0,0,0-.34-.46,1,1,0,0,0-.57-.16,1.32,1.32,0,0,0-.77.23,1.18,1.18,0,0,0-.46.62,5.36,5.36,0,0,0-.13,1.43v2.82h-1.65v-6.22h1.53v.91a2.55,2.55,0,0,1,3-.86,1.67,1.67,0,0,1,.68.5,1.81,1.81,0,0,1,.32.69,5.15,5.15,0,0,1,.09,1.11Z"/><path d="M235.82,127.1l1.64.28a2.69,2.69,0,0,1-1,1.37,2.94,2.94,0,0,1-1.71.47,2.78,2.78,0,0,1-2.4-1.06,3.56,3.56,0,0,1-.62-2.14,3.44,3.44,0,0,1,.81-2.42,2.66,2.66,0,0,1,2-.88,2.76,2.76,0,0,1,2.19.92,4.06,4.06,0,0,1,.77,2.81h-4.12a1.67,1.67,0,0,0,.4,1.14,1.25,1.25,0,0,0,.95.41,1,1,0,0,0,.65-.21A1.3,1.3,0,0,0,235.82,127.1Zm.09-1.66a1.59,1.59,0,0,0-.37-1.09,1.19,1.19,0,0,0-1.75,0,1.52,1.52,0,0,0-.35,1.07Z"/><path d="M238.89,129.08v-1.65h1.65v1.65Z"/><path d="M4.56,150.48v-8.59H6.3v8.59Z"/><path d="M13.6,150.48H12V147.3a4.91,4.91,0,0,0-.11-1.3.91.91,0,0,0-.34-.46,1,1,0,0,0-.57-.16,1.32,1.32,0,0,0-.77.23,1.18,1.18,0,0,0-.47.62,5.37,5.37,0,0,0-.13,1.43v2.82H7.93v-6.22H9.46v.91a2.55,2.55,0,0,1,3-.86,1.67,1.67,0,0,1,.68.5,1.81,1.81,0,0,1,.32.69,5.14,5.14,0,0,1,.09,1.11Z"/><path d="M14.69,148.7l1.65-.25a1.21,1.21,0,0,0,.43.73,1.45,1.45,0,0,0,.9.25,1.63,1.63,0,0,0,1-.23.52.52,0,0,0,.22-.44.43.43,0,0,0-.12-.31,1.31,1.31,0,0,0-.55-.22,8.88,8.88,0,0,1-2.53-.8,1.6,1.6,0,0,1-.74-1.4,1.73,1.73,0,0,1,.64-1.36,3,3,0,0,1,2-.55,3.46,3.46,0,0,1,1.9.42,2.13,2.13,0,0,1,.86,1.23l-1.55.29a1,1,0,0,0-.38-.56,1.38,1.38,0,0,0-.79-.19,1.79,1.79,0,0,0-.93.18.39.39,0,0,0-.19.33.36.36,0,0,0,.16.3,6.18,6.18,0,0,0,1.54.46,4.58,4.58,0,0,1,1.84.73,1.52,1.52,0,0,1,.52,1.22,1.88,1.88,0,0,1-.71,1.47,3.16,3.16,0,0,1-2.12.62,3.47,3.47,0,0,1-2-.52A2.38,2.38,0,0,1,14.69,148.7Z"/><path d="M24.8,144.26v1.31H23.67v2.51a6.24,6.24,0,0,0,0,.89.36.36,0,0,0,.15.21.46.46,0,0,0,.28.08,2.13,2.13,0,0,0,.66-.16l.14,1.28a3.27,3.27,0,0,1-1.3.25,2.06,2.06,0,0,1-.8-.15,1.17,1.17,0,0,1-.52-.39,1.53,1.53,0,0,1-.23-.64,8,8,0,0,1-.05-1.16v-2.71h-.76v-1.31H22V143l1.65-1v2.2Z"/><path d="M27.17,146.15l-1.49-.27a2.33,2.33,0,0,1,.87-1.34,3.17,3.17,0,0,1,1.83-.43,3.94,3.94,0,0,1,1.64.26,1.64,1.64,0,0,1,.76.66,3.4,3.4,0,0,1,.22,1.47l0,1.92a6.67,6.67,0,0,0,.08,1.21,3.53,3.53,0,0,0,.3.83H29.72q-.06-.16-.16-.49l-.06-.19a3,3,0,0,1-.9.62,2.58,2.58,0,0,1-1,.21,2.12,2.12,0,0,1-1.51-.52,1.73,1.73,0,0,1-.55-1.32,1.77,1.77,0,0,1,.25-.94,1.65,1.65,0,0,1,.71-.63,5.52,5.52,0,0,1,1.31-.38,9,9,0,0,0,1.6-.4v-.16a.85.85,0,0,0-.23-.68,1.4,1.4,0,0,0-.88-.2,1.18,1.18,0,0,0-.69.17A1.2,1.2,0,0,0,27.17,146.15Zm2.2,1.34a10.29,10.29,0,0,1-1,.25,3,3,0,0,0-.9.29.69.69,0,0,0-.32.58.81.81,0,0,0,.26.6.9.9,0,0,0,.66.25,1.43,1.43,0,0,0,.85-.29,1,1,0,0,0,.39-.54,3.25,3.25,0,0,0,.06-.8Z"/><path d="M32.61,150.48v-8.59h1.65v8.59Z"/><path d="M35.95,150.48v-8.59h1.65v8.59Z"/><path d="M43.84,146.15l-1.49-.27a2.33,2.33,0,0,1,.87-1.34,3.17,3.17,0,0,1,1.83-.43,3.94,3.94,0,0,1,1.64.26,1.64,1.64,0,0,1,.76.66,3.4,3.4,0,0,1,.22,1.47l0,1.92a6.67,6.67,0,0,0,.08,1.21,3.53,3.53,0,0,0,.3.83H46.39q-.06-.16-.16-.49l-.06-.19a3,3,0,0,1-.9.62,2.58,2.58,0,0,1-1,.21,2.12,2.12,0,0,1-1.51-.52,1.73,1.73,0,0,1-.55-1.32,1.77,1.77,0,0,1,.25-.94,1.65,1.65,0,0,1,.71-.63,5.52,5.52,0,0,1,1.31-.38,9,9,0,0,0,1.6-.4v-.16a.85.85,0,0,0-.23-.68,1.4,1.4,0,0,0-.88-.2,1.18,1.18,0,0,0-.69.17A1.2,1.2,0,0,0,43.84,146.15Zm2.2,1.34a10.29,10.29,0,0,1-1,.25,3,3,0,0,0-.9.29.69.69,0,0,0-.32.58.81.81,0,0,0,.26.6.9.9,0,0,0,.66.25,1.43,1.43,0,0,0,.85-.29,1,1,0,0,0,.39-.54,3.25,3.25,0,0,0,.06-.8Z"/><path d="M52,148.7l1.65-.25a1.21,1.21,0,0,0,.43.73,1.45,1.45,0,0,0,.9.25,1.63,1.63,0,0,0,1-.23.52.52,0,0,0,.22-.44.43.43,0,0,0-.12-.31,1.31,1.31,0,0,0-.55-.22,8.88,8.88,0,0,1-2.53-.8,1.6,1.6,0,0,1-.74-1.4,1.73,1.73,0,0,1,.64-1.36,3,3,0,0,1,2-.55,3.46,3.46,0,0,1,1.9.42,2.13,2.13,0,0,1,.86,1.23l-1.55.29a1,1,0,0,0-.38-.56,1.38,1.38,0,0,0-.79-.19,1.79,1.79,0,0,0-.93.18.39.39,0,0,0-.19.33.36.36,0,0,0,.16.3,6.18,6.18,0,0,0,1.54.46,4.58,4.58,0,0,1,1.84.73,1.52,1.52,0,0,1,.52,1.22,1.88,1.88,0,0,1-.71,1.47,3.16,3.16,0,0,1-2.12.62,3.47,3.47,0,0,1-2-.52A2.38,2.38,0,0,1,52,148.7Z"/><path d="M60.94,141.89V145a2.47,2.47,0,0,1,2.93-.72,1.68,1.68,0,0,1,.69.54,2,2,0,0,1,.32.73,6.5,6.5,0,0,1,.08,1.24v3.65H63.31v-3.29a4.87,4.87,0,0,0-.09-1.24.82.82,0,0,0-.33-.42,1.06,1.06,0,0,0-.59-.16,1.36,1.36,0,0,0-.73.2,1.15,1.15,0,0,0-.47.6,3.59,3.59,0,0,0-.15,1.19v3.12H59.29v-8.59Z"/><path d="M70.72,150.48v-.93a2.4,2.4,0,0,1-.89.79,2.5,2.5,0,0,1-1.17.29,2.29,2.29,0,0,1-1.12-.28,1.63,1.63,0,0,1-.72-.77,3.45,3.45,0,0,1-.22-1.38v-3.94h1.65v2.86a7.93,7.93,0,0,0,.09,1.61.88.88,0,0,0,.33.47,1,1,0,0,0,.61.17,1.3,1.3,0,0,0,.76-.23,1.18,1.18,0,0,0,.46-.57,6.67,6.67,0,0,0,.12-1.68v-2.62h1.65v6.22Z"/><path d="M76.81,144.26v1.31H75.68v2.51a6.24,6.24,0,0,0,0,.89.36.36,0,0,0,.15.21.46.46,0,0,0,.28.08,2.13,2.13,0,0,0,.66-.16l.14,1.28a3.27,3.27,0,0,1-1.3.25,2.06,2.06,0,0,1-.8-.15,1.17,1.17,0,0,1-.52-.39,1.53,1.53,0,0,1-.23-.64,8,8,0,0,1-.05-1.16v-2.71h-.76v-1.31H74V143l1.65-1v2.2Z"/><path d="M77.76,148.19v-1.65H81v1.65Z"/><path d="M81.57,147.28a3.37,3.37,0,0,1,.4-1.59,2.78,2.78,0,0,1,1.15-1.17,3.4,3.4,0,0,1,1.66-.4,3.11,3.11,0,0,1,2.31.92,3.17,3.17,0,0,1,.9,2.32,3.21,3.21,0,0,1-.91,2.34,3.08,3.08,0,0,1-2.29.93,3.61,3.61,0,0,1-1.63-.39A2.65,2.65,0,0,1,82,149.1,3.78,3.78,0,0,1,81.57,147.28Zm1.69.09a2.06,2.06,0,0,0,.44,1.42,1.44,1.44,0,0,0,2.17,0,2.09,2.09,0,0,0,.44-1.43,2.05,2.05,0,0,0-.44-1.41,1.44,1.44,0,0,0-2.17,0A2.06,2.06,0,0,0,83.25,147.37Z"/><path d="M88.56,144.26h.91v-.47a3.11,3.11,0,0,1,.17-1.17,1.32,1.32,0,0,1,.62-.63,2.36,2.36,0,0,1,1.13-.24,4.58,4.58,0,0,1,1.38.21l-.22,1.15a3.25,3.25,0,0,0-.76-.09.67.67,0,0,0-.51.17,1,1,0,0,0-.16.64v.44h1.23v1.29H91.12v4.93H89.47v-4.93h-.91Z"/><path d="M92.55,144.26h.91v-.47a3.11,3.11,0,0,1,.17-1.17,1.32,1.32,0,0,1,.62-.63,2.36,2.36,0,0,1,1.13-.24,4.58,4.58,0,0,1,1.38.21l-.22,1.15a3.25,3.25,0,0,0-.76-.09.67.67,0,0,0-.51.17,1,1,0,0,0-.16.64v.44h1.23v1.29H95.11v4.93H93.47v-4.93h-.91Z"/><path d="M102.31,150.48l-2.51-6.22h1.73l1.17,3.18.34,1.06q.13-.4.17-.53t.18-.53l1.18-3.18h1.69l-2.47,6.22Z"/><path d="M108.51,146.15l-1.49-.27a2.33,2.33,0,0,1,.87-1.34,3.17,3.17,0,0,1,1.83-.43,3.94,3.94,0,0,1,1.64.26,1.64,1.64,0,0,1,.76.66,3.4,3.4,0,0,1,.22,1.47l0,1.92a6.67,6.67,0,0,0,.08,1.21,3.53,3.53,0,0,0,.3.83h-1.63q-.06-.16-.16-.49l-.06-.19a3,3,0,0,1-.9.62,2.58,2.58,0,0,1-1,.21,2.12,2.12,0,0,1-1.51-.52,1.73,1.73,0,0,1-.55-1.32,1.77,1.77,0,0,1,.25-.94,1.65,1.65,0,0,1,.71-.63,5.52,5.52,0,0,1,1.31-.38,9,9,0,0,0,1.6-.4v-.16a.85.85,0,0,0-.23-.68,1.4,1.4,0,0,0-.88-.2,1.18,1.18,0,0,0-.69.17A1.2,1.2,0,0,0,108.51,146.15Zm2.2,1.34a10.29,10.29,0,0,1-1,.25,3,3,0,0,0-.9.29.69.69,0,0,0-.32.58.81.81,0,0,0,.26.6.9.9,0,0,0,.66.25,1.43,1.43,0,0,0,.85-.29,1,1,0,0,0,.39-.54,3.25,3.25,0,0,0,.06-.8Z"/><path d="M114,150.48v-8.59h1.65v8.59Z"/><path d="M119,150.48l-2.51-6.22h1.73l1.17,3.18.34,1.06q.13-.4.17-.53t.18-.53l1.18-3.18H123l-2.47,6.22Z"/><path d="M127.56,148.5l1.64.28a2.69,2.69,0,0,1-1,1.37,2.93,2.93,0,0,1-1.71.47,2.78,2.78,0,0,1-2.4-1.06,3.56,3.56,0,0,1-.62-2.14,3.44,3.44,0,0,1,.81-2.42,2.66,2.66,0,0,1,2-.88,2.76,2.76,0,0,1,2.19.92,4.06,4.06,0,0,1,.77,2.81h-4.13a1.67,1.67,0,0,0,.4,1.14,1.25,1.25,0,0,0,.95.41,1,1,0,0,0,.65-.21A1.3,1.3,0,0,0,127.56,148.5Zm.09-1.66a1.59,1.59,0,0,0-.37-1.09,1.19,1.19,0,0,0-1.75,0,1.52,1.52,0,0,0-.35,1.07Z"/><path d="M130.63,150.48v-1.65h1.65v1.65Z"/><path d="M4.63,234.47v-8.59h5.89v1.45H6.36v2H9.95v1.45H6.36v3.65Z"/><path d="M13.16,230.14l-1.49-.27a2.33,2.33,0,0,1,.87-1.34,3.17,3.17,0,0,1,1.83-.43,3.94,3.94,0,0,1,1.64.26,1.64,1.64,0,0,1,.76.66A3.4,3.4,0,0,1,17,230.5l0,1.92a6.67,6.67,0,0,0,.08,1.21,3.53,3.53,0,0,0,.3.83H15.71q-.06-.16-.16-.49l-.06-.19a3,3,0,0,1-.9.62,2.58,2.58,0,0,1-1,.21,2.12,2.12,0,0,1-1.51-.52,1.73,1.73,0,0,1-.55-1.32,1.77,1.77,0,0,1,.25-.94,1.65,1.65,0,0,1,.71-.63,5.52,5.52,0,0,1,1.31-.38,9,9,0,0,0,1.6-.4v-.16a.85.85,0,0,0-.23-.68,1.4,1.4,0,0,0-.88-.2,1.18,1.18,0,0,0-.69.17A1.2,1.2,0,0,0,13.16,230.14Zm2.2,1.34a10.29,10.29,0,0,1-1,.25,3,3,0,0,0-.9.29.69.69,0,0,0-.32.58.81.81,0,0,0,.26.6.9.9,0,0,0,.66.25,1.43,1.43,0,0,0,.85-.29,1,1,0,0,0,.39-.54,3.25,3.25,0,0,0,.06-.8Z"/><path d="M18.61,227.4v-1.52h1.65v1.52Zm0,7.07v-6.22h1.65v6.22Z"/><path d="M21.94,234.47v-8.59h1.65v8.59Z"/><path d="M29.37,234.47v-.93a2.4,2.4,0,0,1-.89.79,2.5,2.5,0,0,1-1.17.29,2.29,2.29,0,0,1-1.12-.28,1.63,1.63,0,0,1-.72-.77,3.45,3.45,0,0,1-.22-1.38v-3.94h1.65v2.86a7.93,7.93,0,0,0,.09,1.61.88.88,0,0,0,.33.47,1,1,0,0,0,.61.17,1.3,1.3,0,0,0,.76-.23,1.18,1.18,0,0,0,.46-.57,6.67,6.67,0,0,0,.12-1.68v-2.62H30.9v6.22Z"/><path d="M34.18,234.47H32.54v-6.22h1.53v.88a2.66,2.66,0,0,1,.71-.83,1.3,1.3,0,0,1,.71-.2,2.09,2.09,0,0,1,1.08.31l-.51,1.44a1.44,1.44,0,0,0-.77-.27.91.91,0,0,0-.59.19,1.3,1.3,0,0,0-.38.69,9.78,9.78,0,0,0-.14,2.09Z"/><path d="M40.88,232.49l1.64.28a2.69,2.69,0,0,1-1,1.37,2.93,2.93,0,0,1-1.71.47,2.78,2.78,0,0,1-2.4-1.06,3.56,3.56,0,0,1-.62-2.14A3.44,3.44,0,0,1,37.6,229a2.66,2.66,0,0,1,2-.88,2.76,2.76,0,0,1,2.19.92,4.06,4.06,0,0,1,.77,2.81H38.48a1.67,1.67,0,0,0,.4,1.14,1.25,1.25,0,0,0,.95.41,1,1,0,0,0,.65-.21A1.3,1.3,0,0,0,40.88,232.49Zm.09-1.66a1.59,1.59,0,0,0-.37-1.09,1.19,1.19,0,0,0-1.75,0,1.52,1.52,0,0,0-.35,1.07Z"/><path d="M50.14,228.24v1.31H49v2.51a6.24,6.24,0,0,0,0,.89.36.36,0,0,0,.15.21.46.46,0,0,0,.28.08,2.13,2.13,0,0,0,.66-.16l.14,1.28a3.27,3.27,0,0,1-1.3.25,2.06,2.06,0,0,1-.8-.15,1.17,1.17,0,0,1-.52-.39,1.53,1.53,0,0,1-.23-.64,8,8,0,0,1-.05-1.16v-2.71H46.6v-1.31h.76V227L49,226v2.2Z"/><path d="M50.9,231.27a3.37,3.37,0,0,1,.4-1.59,2.78,2.78,0,0,1,1.15-1.17,3.4,3.4,0,0,1,1.66-.4,3.11,3.11,0,0,1,2.31.92,3.17,3.17,0,0,1,.9,2.32,3.21,3.21,0,0,1-.91,2.34,3.08,3.08,0,0,1-2.29.93,3.61,3.61,0,0,1-1.63-.39,2.65,2.65,0,0,1-1.18-1.13A3.78,3.78,0,0,1,50.9,231.27Zm1.69.09a2.06,2.06,0,0,0,.44,1.42,1.44,1.44,0,0,0,2.17,0,2.09,2.09,0,0,0,.44-1.43,2.05,2.05,0,0,0-.44-1.41,1.44,1.44,0,0,0-2.17,0A2.06,2.06,0,0,0,52.59,231.36Z"/><path d="M61.22,228.24h.91v-.47a3.11,3.11,0,0,1,.17-1.17,1.32,1.32,0,0,1,.62-.63,2.36,2.36,0,0,1,1.13-.24,4.58,4.58,0,0,1,1.38.21l-.22,1.15a3.25,3.25,0,0,0-.76-.09.67.67,0,0,0-.51.17,1,1,0,0,0-.16.64v.44H65v1.29H63.78v4.93H62.14v-4.93h-.91Z"/><path d="M65.56,231.27a3.37,3.37,0,0,1,.4-1.59,2.78,2.78,0,0,1,1.15-1.17,3.4,3.4,0,0,1,1.66-.4,3.11,3.11,0,0,1,2.31.92,3.17,3.17,0,0,1,.9,2.32,3.21,3.21,0,0,1-.91,2.34,3.08,3.08,0,0,1-2.29.93,3.61,3.61,0,0,1-1.63-.39A2.65,2.65,0,0,1,66,233.09,3.78,3.78,0,0,1,65.56,231.27Zm1.69.09a2.06,2.06,0,0,0,.44,1.42,1.44,1.44,0,0,0,2.17,0,2.09,2.09,0,0,0,.44-1.43,2.05,2.05,0,0,0-.44-1.41,1.44,1.44,0,0,0-2.17,0A2.06,2.06,0,0,0,67.25,231.36Z"/><path d="M73.27,234.47v-8.59h1.65v8.59Z"/><path d="M76.6,234.47v-8.59h1.65v8.59Z"/><path d="M79.56,231.27a3.37,3.37,0,0,1,.4-1.59,2.78,2.78,0,0,1,1.15-1.17,3.4,3.4,0,0,1,1.66-.4,3.11,3.11,0,0,1,2.31.92,3.17,3.17,0,0,1,.9,2.32,3.21,3.21,0,0,1-.91,2.34,3.08,3.08,0,0,1-2.29.93,3.61,3.61,0,0,1-1.63-.39A2.65,2.65,0,0,1,80,233.09,3.78,3.78,0,0,1,79.56,231.27Zm1.69.09a2.06,2.06,0,0,0,.44,1.42,1.44,1.44,0,0,0,2.17,0,2.09,2.09,0,0,0,.44-1.43,2.05,2.05,0,0,0-.44-1.41,1.44,1.44,0,0,0-2.17,0A2.06,2.06,0,0,0,81.24,231.36Z"/><path d="M88.43,234.47l-2-6.22h1.6l1.17,4.08,1.07-4.08h1.59l1,4.08,1.19-4.08h1.62l-2,6.22H92.15l-1.07-4-1.05,4Z"/><path d="M102.79,228.24v1.31h-1.12v2.51a6.24,6.24,0,0,0,0,.89.36.36,0,0,0,.15.21.46.46,0,0,0,.28.08,2.13,2.13,0,0,0,.66-.16l.14,1.28a3.27,3.27,0,0,1-1.3.25,2.06,2.06,0,0,1-.8-.15,1.17,1.17,0,0,1-.52-.39,1.53,1.53,0,0,1-.23-.64,8,8,0,0,1-.05-1.16v-2.71h-.76v-1.31H100V227l1.65-1v2.2Z"/><path d="M105.57,225.88V229a2.47,2.47,0,0,1,2.93-.72,1.68,1.68,0,0,1,.69.54,2,2,0,0,1,.32.73,6.5,6.5,0,0,1,.08,1.24v3.65h-1.65v-3.29a4.87,4.87,0,0,0-.09-1.24.82.82,0,0,0-.33-.42,1.06,1.06,0,0,0-.59-.16,1.36,1.36,0,0,0-.73.2,1.15,1.15,0,0,0-.47.6,3.59,3.59,0,0,0-.15,1.19v3.12h-1.65v-8.59Z"/><path d="M114.87,232.49l1.64.28a2.69,2.69,0,0,1-1,1.37,2.93,2.93,0,0,1-1.71.47,2.78,2.78,0,0,1-2.4-1.06,3.56,3.56,0,0,1-.62-2.14,3.44,3.44,0,0,1,.81-2.42,2.66,2.66,0,0,1,2-.88,2.76,2.76,0,0,1,2.19.92,4.06,4.06,0,0,1,.77,2.81h-4.12a1.67,1.67,0,0,0,.4,1.14,1.25,1.25,0,0,0,.95.41,1,1,0,0,0,.65-.21A1.3,1.3,0,0,0,114.87,232.49Zm.09-1.66a1.59,1.59,0,0,0-.37-1.09,1.19,1.19,0,0,0-1.75,0,1.52,1.52,0,0,0-.35,1.07Z"/><path d="M117.36,232.69l1.65-.25a1.21,1.21,0,0,0,.43.73,1.45,1.45,0,0,0,.9.25,1.63,1.63,0,0,0,1-.23.52.52,0,0,0,.22-.44.43.43,0,0,0-.12-.31,1.31,1.31,0,0,0-.55-.22,8.88,8.88,0,0,1-2.53-.8,1.6,1.6,0,0,1-.74-1.4,1.73,1.73,0,0,1,.64-1.36,3,3,0,0,1,2-.55,3.46,3.46,0,0,1,1.9.42,2.13,2.13,0,0,1,.86,1.23l-1.55.29a1,1,0,0,0-.38-.56,1.38,1.38,0,0,0-.79-.19,1.79,1.79,0,0,0-.93.18.39.39,0,0,0-.19.33.36.36,0,0,0,.16.3,6.18,6.18,0,0,0,1.54.46,4.58,4.58,0,0,1,1.84.73,1.52,1.52,0,0,1,.52,1.22,1.88,1.88,0,0,1-.71,1.47,3.16,3.16,0,0,1-2.12.62,3.47,3.47,0,0,1-2-.52A2.38,2.38,0,0,1,117.36,232.69Z"/><path d="M128.21,232.49l1.64.28a2.69,2.69,0,0,1-1,1.37,2.93,2.93,0,0,1-1.71.47,2.78,2.78,0,0,1-2.4-1.06,3.56,3.56,0,0,1-.62-2.14,3.44,3.44,0,0,1,.81-2.42,2.66,2.66,0,0,1,2-.88,2.76,2.76,0,0,1,2.19.92,4.06,4.06,0,0,1,.77,2.81h-4.12a1.67,1.67,0,0,0,.4,1.14,1.25,1.25,0,0,0,.95.41,1,1,0,0,0,.65-.21A1.3,1.3,0,0,0,128.21,232.49Zm.09-1.66a1.59,1.59,0,0,0-.37-1.09,1.19,1.19,0,0,0-1.75,0,1.52,1.52,0,0,0-.35,1.07Z"/><path d="M134.62,227.4v-1.52h1.65v1.52Zm0,7.07v-6.22h1.65v6.22Z"/><path d="M143.61,234.47H142v-3.18a4.91,4.91,0,0,0-.11-1.3.91.91,0,0,0-.34-.46,1,1,0,0,0-.57-.16,1.32,1.32,0,0,0-.77.23,1.18,1.18,0,0,0-.46.62,5.36,5.36,0,0,0-.13,1.43v2.82h-1.65v-6.22h1.53v.91a2.55,2.55,0,0,1,3-.86,1.67,1.67,0,0,1,.68.5,1.81,1.81,0,0,1,.32.69,5.15,5.15,0,0,1,.09,1.11Z"/><path d="M144.7,232.69l1.65-.25a1.21,1.21,0,0,0,.43.73,1.45,1.45,0,0,0,.9.25,1.63,1.63,0,0,0,1-.23.52.52,0,0,0,.22-.44.43.43,0,0,0-.12-.31,1.31,1.31,0,0,0-.55-.22,8.88,8.88,0,0,1-2.53-.8,1.6,1.6,0,0,1-.74-1.4,1.73,1.73,0,0,1,.64-1.36,3,3,0,0,1,2-.55,3.46,3.46,0,0,1,1.9.42,2.13,2.13,0,0,1,.86,1.23l-1.55.29a1,1,0,0,0-.38-.56,1.39,1.39,0,0,0-.79-.19,1.79,1.79,0,0,0-.93.18.39.39,0,0,0-.19.33.36.36,0,0,0,.16.3,6.19,6.19,0,0,0,1.54.46,4.57,4.57,0,0,1,1.84.73,1.52,1.52,0,0,1,.52,1.22,1.88,1.88,0,0,1-.71,1.47,3.16,3.16,0,0,1-2.12.62,3.47,3.47,0,0,1-2-.52A2.38,2.38,0,0,1,144.7,232.69Z"/><path d="M154.81,228.24v1.31h-1.12v2.51a6.16,6.16,0,0,0,0,.89.36.36,0,0,0,.15.21.46.46,0,0,0,.28.08,2.13,2.13,0,0,0,.66-.16l.14,1.28a3.27,3.27,0,0,1-1.3.25,2.06,2.06,0,0,1-.8-.15,1.17,1.17,0,0,1-.52-.39,1.53,1.53,0,0,1-.23-.64,8,8,0,0,1-.05-1.16v-2.71h-.76v-1.31H152V227l1.65-1v2.2Z"/><path d="M157.53,234.47h-1.65v-6.22h1.53v.88a2.66,2.66,0,0,1,.71-.83,1.3,1.3,0,0,1,.71-.2,2.09,2.09,0,0,1,1.08.31l-.51,1.44a1.44,1.44,0,0,0-.77-.27.91.91,0,0,0-.59.19,1.3,1.3,0,0,0-.38.69,9.76,9.76,0,0,0-.14,2.09Z"/><path d="M164.72,234.47v-.93a2.4,2.4,0,0,1-.89.79,2.51,2.51,0,0,1-1.17.29,2.29,2.29,0,0,1-1.12-.28,1.63,1.63,0,0,1-.72-.77,3.45,3.45,0,0,1-.22-1.38v-3.94h1.65v2.86a7.9,7.9,0,0,0,.09,1.61.88.88,0,0,0,.33.47,1,1,0,0,0,.61.17,1.3,1.3,0,0,0,.76-.23,1.18,1.18,0,0,0,.46-.57,6.67,6.67,0,0,0,.12-1.68v-2.62h1.65v6.22Z"/><path d="M173.38,230.08l-1.62.29a1.18,1.18,0,0,0-.37-.73,1.13,1.13,0,0,0-.75-.25,1.23,1.23,0,0,0-1,.42,2.18,2.18,0,0,0-.37,1.42,2.52,2.52,0,0,0,.37,1.56,1.22,1.22,0,0,0,1,.46,1.11,1.11,0,0,0,.77-.27,1.6,1.6,0,0,0,.42-.92l1.62.28a2.87,2.87,0,0,1-1,1.68,3,3,0,0,1-1.92.57,2.85,2.85,0,0,1-2.18-.86,3.92,3.92,0,0,1,0-4.78,2.89,2.89,0,0,1,2.2-.86,3,3,0,0,1,1.81.49A2.71,2.71,0,0,1,173.38,230.08Z"/><path d="M177.48,228.24v1.31h-1.12v2.51a6.16,6.16,0,0,0,0,.89.36.36,0,0,0,.15.21.46.46,0,0,0,.28.08,2.13,2.13,0,0,0,.66-.16l.14,1.28a3.27,3.27,0,0,1-1.3.25,2.06,2.06,0,0,1-.8-.15,1.17,1.17,0,0,1-.52-.39,1.53,1.53,0,0,1-.23-.64,8,8,0,0,1-.05-1.16v-2.71h-.76v-1.31h.76V227l1.65-1v2.2Z"/><path d="M178.62,227.4v-1.52h1.65v1.52Zm0,7.07v-6.22h1.65v6.22Z"/><path d="M181.57,231.27a3.37,3.37,0,0,1,.4-1.59,2.78,2.78,0,0,1,1.15-1.17,3.4,3.4,0,0,1,1.65-.4,3.11,3.11,0,0,1,2.31.92,3.17,3.17,0,0,1,.9,2.32,3.21,3.21,0,0,1-.91,2.34,3.08,3.08,0,0,1-2.29.93,3.61,3.61,0,0,1-1.63-.39,2.66,2.66,0,0,1-1.18-1.13A3.78,3.78,0,0,1,181.57,231.27Zm1.69.09a2.06,2.06,0,0,0,.44,1.42,1.44,1.44,0,0,0,2.17,0,2.09,2.09,0,0,0,.44-1.43,2.05,2.05,0,0,0-.44-1.41,1.44,1.44,0,0,0-2.17,0A2.06,2.06,0,0,0,183.26,231.36Z"/><path d="M194.95,234.47H193.3v-3.18a4.91,4.91,0,0,0-.11-1.3.91.91,0,0,0-.34-.46,1,1,0,0,0-.57-.16,1.32,1.32,0,0,0-.77.23,1.18,1.18,0,0,0-.46.62,5.36,5.36,0,0,0-.13,1.43v2.82h-1.65v-6.22h1.53v.91a2.55,2.55,0,0,1,3-.86,1.67,1.67,0,0,1,.68.5,1.81,1.81,0,0,1,.32.69,5.15,5.15,0,0,1,.09,1.11Z"/><path d="M196,232.69l1.65-.25a1.21,1.21,0,0,0,.43.73,1.45,1.45,0,0,0,.9.25,1.63,1.63,0,0,0,1-.23.52.52,0,0,0,.22-.44.43.43,0,0,0-.12-.31,1.31,1.31,0,0,0-.55-.22,8.88,8.88,0,0,1-2.53-.8,1.6,1.6,0,0,1-.74-1.4,1.73,1.73,0,0,1,.64-1.36,3,3,0,0,1,2-.55,3.46,3.46,0,0,1,1.9.42,2.13,2.13,0,0,1,.86,1.23l-1.55.29a1,1,0,0,0-.38-.56,1.39,1.39,0,0,0-.79-.19,1.79,1.79,0,0,0-.93.18.39.39,0,0,0-.19.33.36.36,0,0,0,.16.3,6.19,6.19,0,0,0,1.54.46,4.57,4.57,0,0,1,1.84.73,1.52,1.52,0,0,1,.52,1.22,1.88,1.88,0,0,1-.71,1.47,3.16,3.16,0,0,1-2.12.62,3.47,3.47,0,0,1-2-.52A2.38,2.38,0,0,1,196,232.69Z"/><path d="M212,230.08l-1.62.29a1.18,1.18,0,0,0-.37-.73,1.13,1.13,0,0,0-.75-.25,1.23,1.23,0,0,0-1,.42,2.18,2.18,0,0,0-.37,1.42,2.52,2.52,0,0,0,.37,1.56,1.22,1.22,0,0,0,1,.46,1.11,1.11,0,0,0,.77-.27,1.6,1.6,0,0,0,.42-.92l1.62.28a2.87,2.87,0,0,1-1,1.68,3,3,0,0,1-1.92.57,2.85,2.85,0,0,1-2.18-.86,3.92,3.92,0,0,1,0-4.78,2.89,2.89,0,0,1,2.2-.86,3,3,0,0,1,1.81.49A2.71,2.71,0,0,1,212,230.08Z"/><path d="M214.53,230.14l-1.49-.27a2.33,2.33,0,0,1,.87-1.34,3.17,3.17,0,0,1,1.83-.43,3.94,3.94,0,0,1,1.64.26,1.64,1.64,0,0,1,.76.66,3.4,3.4,0,0,1,.22,1.47l0,1.92a6.65,6.65,0,0,0,.08,1.21,3.53,3.53,0,0,0,.29.83h-1.63q-.06-.16-.16-.49l-.06-.19a3,3,0,0,1-.9.62,2.58,2.58,0,0,1-1,.21,2.12,2.12,0,0,1-1.51-.52,1.73,1.73,0,0,1-.55-1.32,1.77,1.77,0,0,1,.25-.94,1.65,1.65,0,0,1,.71-.63,5.51,5.51,0,0,1,1.31-.38,9,9,0,0,0,1.6-.4v-.16a.85.85,0,0,0-.23-.68,1.4,1.4,0,0,0-.88-.2,1.18,1.18,0,0,0-.69.17A1.2,1.2,0,0,0,214.53,230.14Zm2.2,1.34a10.29,10.29,0,0,1-1,.25,3,3,0,0,0-.9.29.69.69,0,0,0-.32.58.81.81,0,0,0,.26.6.9.9,0,0,0,.66.25,1.43,1.43,0,0,0,.85-.29,1,1,0,0,0,.39-.54,3.25,3.25,0,0,0,.06-.8Z"/><path d="M225.63,234.47H224v-3.18a4.91,4.91,0,0,0-.11-1.3.91.91,0,0,0-.34-.46,1,1,0,0,0-.57-.16,1.32,1.32,0,0,0-.77.23,1.18,1.18,0,0,0-.46.62,5.36,5.36,0,0,0-.13,1.43v2.82H220v-6.22h1.53v.91a2.55,2.55,0,0,1,3-.86,1.67,1.67,0,0,1,.68.5,1.81,1.81,0,0,1,.32.69,5.15,5.15,0,0,1,.09,1.11Z"/><path d="M6.18,248.87H4.53v-6.22H6.06v.88a2.66,2.66,0,0,1,.71-.83,1.3,1.3,0,0,1,.71-.2,2.09,2.09,0,0,1,1.08.31l-.51,1.44a1.44,1.44,0,0,0-.77-.27.91.91,0,0,0-.59.19,1.3,1.3,0,0,0-.38.69,9.78,9.78,0,0,0-.14,2.09Z"/><path d="M12.88,246.89l1.64.28a2.69,2.69,0,0,1-1,1.37,2.93,2.93,0,0,1-1.71.47,2.78,2.78,0,0,1-2.4-1.06,3.56,3.56,0,0,1-.62-2.14,3.44,3.44,0,0,1,.81-2.42,2.66,2.66,0,0,1,2-.88,2.76,2.76,0,0,1,2.19.92,4.06,4.06,0,0,1,.77,2.81H10.48a1.67,1.67,0,0,0,.4,1.14,1.25,1.25,0,0,0,.95.41,1,1,0,0,0,.65-.21A1.3,1.3,0,0,0,12.88,246.89Zm.09-1.66a1.59,1.59,0,0,0-.37-1.09,1.19,1.19,0,0,0-1.75,0,1.52,1.52,0,0,0-.35,1.07Z"/><path d="M15.37,247.09l1.65-.25a1.21,1.21,0,0,0,.43.73,1.45,1.45,0,0,0,.9.25,1.63,1.63,0,0,0,1-.23.52.52,0,0,0,.22-.44.43.43,0,0,0-.12-.31,1.31,1.31,0,0,0-.55-.22,8.88,8.88,0,0,1-2.53-.8,1.6,1.6,0,0,1-.74-1.4,1.73,1.73,0,0,1,.64-1.36,3,3,0,0,1,2-.55,3.46,3.46,0,0,1,1.9.42,2.13,2.13,0,0,1,.86,1.23l-1.55.29a1,1,0,0,0-.38-.56,1.38,1.38,0,0,0-.79-.19,1.79,1.79,0,0,0-.93.18.39.39,0,0,0-.19.33.36.36,0,0,0,.16.3,6.18,6.18,0,0,0,1.54.46,4.58,4.58,0,0,1,1.84.73,1.52,1.52,0,0,1,.52,1.22,1.88,1.88,0,0,1-.71,1.47,3.16,3.16,0,0,1-2.12.62,3.47,3.47,0,0,1-2-.52A2.38,2.38,0,0,1,15.37,247.09Z"/><path d="M26.72,248.87v-.93a2.4,2.4,0,0,1-.89.79,2.5,2.5,0,0,1-1.17.29,2.29,2.29,0,0,1-1.12-.28,1.63,1.63,0,0,1-.72-.77,3.45,3.45,0,0,1-.22-1.38v-3.94h1.65v2.86a7.93,7.93,0,0,0,.09,1.61.88.88,0,0,0,.33.47,1,1,0,0,0,.61.17,1.3,1.3,0,0,0,.76-.23,1.18,1.18,0,0,0,.46-.57,6.67,6.67,0,0,0,.12-1.68v-2.62h1.65v6.22Z"/><path d="M30,248.87v-8.59H31.6v8.59Z"/><path d="M36.14,242.64V244H35v2.51a6.24,6.24,0,0,0,0,.89.36.36,0,0,0,.15.21.46.46,0,0,0,.28.08,2.13,2.13,0,0,0,.66-.16l.14,1.28A3.27,3.27,0,0,1,35,249a2.06,2.06,0,0,1-.8-.15,1.17,1.17,0,0,1-.52-.39,1.53,1.53,0,0,1-.23-.64,8,8,0,0,1-.05-1.16V244h-.76v-1.31h.76v-1.24l1.65-1v2.2Z"/><path d="M40.62,241.8v-1.52h1.65v1.52Zm0,7.07v-6.22h1.65v6.22Z"/><path d="M49.61,248.87H48v-3.18a4.91,4.91,0,0,0-.11-1.3.91.91,0,0,0-.34-.46,1,1,0,0,0-.57-.16,1.32,1.32,0,0,0-.77.23,1.18,1.18,0,0,0-.47.62,5.37,5.37,0,0,0-.13,1.43v2.82H43.94v-6.22h1.53v.91a2.55,2.55,0,0,1,3-.86,1.67,1.67,0,0,1,.68.5,1.81,1.81,0,0,1,.32.69,5.14,5.14,0,0,1,.09,1.11Z"/><path d="M60.32,248.87H58.79V248a2.47,2.47,0,0,1-.9.79,2.31,2.31,0,0,1-1,.26,2.37,2.37,0,0,1-1.84-.86,3.52,3.52,0,0,1-.76-2.41,3.47,3.47,0,0,1,.74-2.41,2.43,2.43,0,0,1,1.88-.82,2.33,2.33,0,0,1,1.8.87v-3.09h1.65Zm-4.39-3.25a2.85,2.85,0,0,0,.28,1.44,1.24,1.24,0,0,0,1.11.64,1.21,1.21,0,0,0,1-.48,2.23,2.23,0,0,0,.4-1.44,2.44,2.44,0,0,0-.39-1.54,1.22,1.22,0,0,0-1-.47,1.24,1.24,0,0,0-1,.47A2.1,2.1,0,0,0,55.93,245.62Z"/><path d="M65.55,246.89l1.64.28a2.69,2.69,0,0,1-1,1.37,2.93,2.93,0,0,1-1.71.47,2.78,2.78,0,0,1-2.4-1.06,3.56,3.56,0,0,1-.62-2.14,3.44,3.44,0,0,1,.81-2.42,2.66,2.66,0,0,1,2-.88,2.76,2.76,0,0,1,2.19.92,4.06,4.06,0,0,1,.77,2.81H63.15a1.67,1.67,0,0,0,.4,1.14,1.25,1.25,0,0,0,.95.41,1,1,0,0,0,.65-.21A1.3,1.3,0,0,0,65.55,246.89Zm.09-1.66a1.59,1.59,0,0,0-.37-1.09,1.19,1.19,0,0,0-1.75,0,1.52,1.52,0,0,0-.35,1.07Z"/><path d="M69.85,244.54l-1.49-.27a2.33,2.33,0,0,1,.87-1.34A3.17,3.17,0,0,1,71,242.5a3.94,3.94,0,0,1,1.64.26,1.64,1.64,0,0,1,.76.66,3.4,3.4,0,0,1,.22,1.47l0,1.92a6.67,6.67,0,0,0,.08,1.21,3.53,3.53,0,0,0,.3.83H72.4q-.06-.16-.16-.49l-.06-.19a3,3,0,0,1-.9.62,2.58,2.58,0,0,1-1,.21,2.12,2.12,0,0,1-1.51-.52,1.73,1.73,0,0,1-.55-1.32,1.77,1.77,0,0,1,.25-.94,1.65,1.65,0,0,1,.71-.63,5.52,5.52,0,0,1,1.31-.38,9,9,0,0,0,1.6-.4v-.16a.85.85,0,0,0-.23-.68,1.4,1.4,0,0,0-.88-.2,1.18,1.18,0,0,0-.69.17A1.2,1.2,0,0,0,69.85,244.54Zm2.2,1.34a10.29,10.29,0,0,1-1,.25,3,3,0,0,0-.9.29.69.69,0,0,0-.32.58.81.81,0,0,0,.26.6.9.9,0,0,0,.66.25,1.43,1.43,0,0,0,.85-.29A1,1,0,0,0,72,247a3.25,3.25,0,0,0,.06-.8Z"/><path d="M78.15,242.64V244H77v2.51a6.24,6.24,0,0,0,0,.89.36.36,0,0,0,.15.21.46.46,0,0,0,.28.08,2.13,2.13,0,0,0,.66-.16l.14,1.28A3.27,3.27,0,0,1,77,249a2.06,2.06,0,0,1-.8-.15,1.17,1.17,0,0,1-.52-.39,1.53,1.53,0,0,1-.23-.64,8,8,0,0,1-.05-1.16V244h-.76v-1.31h.76v-1.24l1.65-1v2.2Z"/><path d="M80.93,240.28v3.16a2.47,2.47,0,0,1,2.93-.72,1.68,1.68,0,0,1,.69.54,2,2,0,0,1,.32.73,6.5,6.5,0,0,1,.08,1.24v3.65H83.3v-3.29a4.87,4.87,0,0,0-.09-1.24.82.82,0,0,0-.33-.42,1.06,1.06,0,0,0-.59-.16,1.36,1.36,0,0,0-.73.2,1.15,1.15,0,0,0-.47.6,3.59,3.59,0,0,0-.15,1.19v3.12H79.28v-8.59Z"/><path d="M86.58,247.22h1.65v1.18a4.11,4.11,0,0,1-.12,1.13,1.68,1.68,0,0,1-.47.74,2.4,2.4,0,0,1-.87.52l-.32-.68a1.39,1.39,0,0,0,.71-.45,1.36,1.36,0,0,0,.22-.79h-.8Z"/><path d="M96.89,246.89l1.64.28a2.69,2.69,0,0,1-1,1.37,2.93,2.93,0,0,1-1.71.47,2.78,2.78,0,0,1-2.4-1.06,3.56,3.56,0,0,1-.62-2.14,3.44,3.44,0,0,1,.81-2.42,2.66,2.66,0,0,1,2-.88,2.76,2.76,0,0,1,2.19.92,4.06,4.06,0,0,1,.77,2.81H94.49a1.67,1.67,0,0,0,.4,1.14,1.25,1.25,0,0,0,.95.41,1,1,0,0,0,.65-.21A1.3,1.3,0,0,0,96.89,246.89Zm.09-1.66a1.59,1.59,0,0,0-.37-1.09,1.19,1.19,0,0,0-1.75,0,1.52,1.52,0,0,0-.35,1.07Z"/><path d="M99.17,248.87l2.24-3.21-2.15-3h2l1.1,1.71,1.16-1.71h1.93l-2.11,2.95,2.3,3.28h-2l-1.27-1.93-1.28,1.93Z"/><path d="M106.59,242.64h1.54v.91a2.3,2.3,0,0,1,.81-.76,2.23,2.23,0,0,1,1.13-.29,2.37,2.37,0,0,1,1.84.85,3.44,3.44,0,0,1,.76,2.37,3.54,3.54,0,0,1-.76,2.42A2.37,2.37,0,0,1,110,249a2.1,2.1,0,0,1-.93-.21,3.15,3.15,0,0,1-.88-.7v3.13h-1.65Zm1.63,3a2.4,2.4,0,0,0,.42,1.55,1.27,1.27,0,0,0,1,.5,1.19,1.19,0,0,0,1-.46,2.37,2.37,0,0,0,.38-1.51,2.25,2.25,0,0,0-.39-1.45,1.21,1.21,0,0,0-1-.47,1.26,1.26,0,0,0-1,.47A2.07,2.07,0,0,0,108.22,245.65Z"/><path d="M114,248.87v-8.59h1.65v8.59Z"/><path d="M116.92,245.67a3.37,3.37,0,0,1,.4-1.59,2.78,2.78,0,0,1,1.15-1.17,3.4,3.4,0,0,1,1.66-.4,3.11,3.11,0,0,1,2.31.92,3.17,3.17,0,0,1,.9,2.32,3.21,3.21,0,0,1-.91,2.34,3.08,3.08,0,0,1-2.29.93,3.61,3.61,0,0,1-1.63-.39,2.65,2.65,0,0,1-1.18-1.13A3.78,3.78,0,0,1,116.92,245.67Zm1.69.09a2.06,2.06,0,0,0,.44,1.42,1.44,1.44,0,0,0,2.17,0,2.09,2.09,0,0,0,.44-1.43,2.05,2.05,0,0,0-.44-1.41,1.44,1.44,0,0,0-2.17,0A2.06,2.06,0,0,0,118.6,245.75Z"/><path d="M124,247.09l1.65-.25a1.21,1.21,0,0,0,.43.73,1.45,1.45,0,0,0,.9.25,1.63,1.63,0,0,0,1-.23.52.52,0,0,0,.22-.44.43.43,0,0,0-.12-.31,1.31,1.31,0,0,0-.55-.22,8.88,8.88,0,0,1-2.53-.8,1.6,1.6,0,0,1-.74-1.4,1.73,1.73,0,0,1,.64-1.36,3,3,0,0,1,2-.55,3.46,3.46,0,0,1,1.9.42,2.13,2.13,0,0,1,.86,1.23l-1.55.29a1,1,0,0,0-.38-.56,1.38,1.38,0,0,0-.79-.19,1.79,1.79,0,0,0-.93.18.39.39,0,0,0-.19.33.36.36,0,0,0,.16.3,6.18,6.18,0,0,0,1.54.46,4.58,4.58,0,0,1,1.84.73,1.52,1.52,0,0,1,.52,1.22,1.88,1.88,0,0,1-.71,1.47A3.16,3.16,0,0,1,127,249a3.47,3.47,0,0,1-2-.52A2.38,2.38,0,0,1,124,247.09Z"/><path d="M131.3,241.8v-1.52h1.65v1.52Zm0,7.07v-6.22h1.65v6.22Z"/><path d="M134.25,245.67a3.37,3.37,0,0,1,.4-1.59,2.78,2.78,0,0,1,1.15-1.17,3.4,3.4,0,0,1,1.65-.4,3.11,3.11,0,0,1,2.31.92,3.17,3.17,0,0,1,.9,2.32,3.21,3.21,0,0,1-.91,2.34,3.08,3.08,0,0,1-2.29.93,3.61,3.61,0,0,1-1.63-.39,2.66,2.66,0,0,1-1.18-1.13A3.78,3.78,0,0,1,134.25,245.67Zm1.69.09a2.06,2.06,0,0,0,.44,1.42,1.44,1.44,0,0,0,2.17,0,2.09,2.09,0,0,0,.44-1.43,2.05,2.05,0,0,0-.44-1.41,1.44,1.44,0,0,0-2.17,0A2.06,2.06,0,0,0,135.94,245.75Z"/><path d="M147.63,248.87H146v-3.18a4.91,4.91,0,0,0-.11-1.3.91.91,0,0,0-.34-.46,1,1,0,0,0-.57-.16,1.32,1.32,0,0,0-.77.23,1.18,1.18,0,0,0-.46.62,5.36,5.36,0,0,0-.13,1.43v2.82H142v-6.22h1.53v.91a2.55,2.55,0,0,1,3-.86,1.67,1.67,0,0,1,.68.5,1.81,1.81,0,0,1,.32.69,5.15,5.15,0,0,1,.09,1.11Z"/><path d="M149.25,247.22h1.65v1.18a4.11,4.11,0,0,1-.12,1.13,1.68,1.68,0,0,1-.46.74,2.41,2.41,0,0,1-.87.52l-.32-.68a1.39,1.39,0,0,0,.71-.45,1.36,1.36,0,0,0,.22-.79h-.8Z"/><path d="M155.58,245.67a3.37,3.37,0,0,1,.4-1.59,2.78,2.78,0,0,1,1.15-1.17,3.4,3.4,0,0,1,1.65-.4,3.11,3.11,0,0,1,2.31.92,3.17,3.17,0,0,1,.9,2.32,3.21,3.21,0,0,1-.91,2.34,3.08,3.08,0,0,1-2.29.93,3.61,3.61,0,0,1-1.63-.39,2.66,2.66,0,0,1-1.18-1.13A3.78,3.78,0,0,1,155.58,245.67Zm1.69.09a2.06,2.06,0,0,0,.44,1.42,1.44,1.44,0,0,0,2.17,0,2.09,2.09,0,0,0,.44-1.43,2.05,2.05,0,0,0-.44-1.41,1.44,1.44,0,0,0-2.17,0A2.06,2.06,0,0,0,157.27,245.75Z"/><path d="M164.87,248.87h-1.65v-6.22h1.53v.88a2.66,2.66,0,0,1,.71-.83,1.3,1.3,0,0,1,.71-.2,2.09,2.09,0,0,1,1.08.31l-.51,1.44A1.44,1.44,0,0,0,166,244a.91.91,0,0,0-.59.19,1.3,1.3,0,0,0-.38.69,9.76,9.76,0,0,0-.14,2.09Z"/><path d="M10,258.88l-1.62.29a1.18,1.18,0,0,0-.37-.73,1.12,1.12,0,0,0-.75-.25,1.23,1.23,0,0,0-1,.42A2.18,2.18,0,0,0,5.93,260a2.52,2.52,0,0,0,.37,1.56,1.22,1.22,0,0,0,1,.46,1.11,1.11,0,0,0,.77-.27,1.6,1.6,0,0,0,.42-.92l1.62.28a2.87,2.87,0,0,1-1,1.68,3,3,0,0,1-1.92.57,2.85,2.85,0,0,1-2.18-.86,3.93,3.93,0,0,1,0-4.78,2.89,2.89,0,0,1,2.2-.86,3,3,0,0,1,1.81.49A2.71,2.71,0,0,1,10,258.88Z"/><path d="M12.51,258.94,11,258.67a2.33,2.33,0,0,1,.87-1.34,3.17,3.17,0,0,1,1.83-.43,3.94,3.94,0,0,1,1.64.26,1.64,1.64,0,0,1,.76.66,3.4,3.4,0,0,1,.22,1.47l0,1.92a6.67,6.67,0,0,0,.08,1.21,3.53,3.53,0,0,0,.3.83H15.06q-.06-.16-.16-.49l-.06-.19a3,3,0,0,1-.9.62,2.58,2.58,0,0,1-1,.21,2.12,2.12,0,0,1-1.51-.52,1.73,1.73,0,0,1-.55-1.32,1.77,1.77,0,0,1,.25-.94,1.65,1.65,0,0,1,.71-.63,5.52,5.52,0,0,1,1.31-.38,9,9,0,0,0,1.6-.4V259a.85.85,0,0,0-.23-.68,1.4,1.4,0,0,0-.88-.2,1.18,1.18,0,0,0-.69.17A1.2,1.2,0,0,0,12.51,258.94Zm2.2,1.34a10.29,10.29,0,0,1-1,.25,3,3,0,0,0-.9.29.69.69,0,0,0-.32.58.81.81,0,0,0,.26.6.9.9,0,0,0,.66.25,1.43,1.43,0,0,0,.85-.29,1,1,0,0,0,.39-.54,3.25,3.25,0,0,0,.06-.8Z"/><path d="M19.53,263.27H17.88V257h1.53v.88a2.66,2.66,0,0,1,.71-.83,1.3,1.3,0,0,1,.71-.2,2.09,2.09,0,0,1,1.08.31l-.51,1.44a1.44,1.44,0,0,0-.77-.27.91.91,0,0,0-.59.19,1.3,1.3,0,0,0-.38.69,9.78,9.78,0,0,0-.14,2.09Z"/><path d="M22.55,263.27v-8.59H24.2v3.09a2.33,2.33,0,0,1,1.8-.87,2.43,2.43,0,0,1,1.88.82,3.41,3.41,0,0,1,.74,2.36,3.6,3.6,0,0,1-.76,2.46,2.37,2.37,0,0,1-1.84.86,2.28,2.28,0,0,1-1.05-.27,2.51,2.51,0,0,1-.89-.79v.91ZM24.19,260a2.65,2.65,0,0,0,.3,1.43,1.3,1.3,0,0,0,1.14.66,1.16,1.16,0,0,0,.93-.47,2.29,2.29,0,0,0,.38-1.47,2.43,2.43,0,0,0-.39-1.54,1.22,1.22,0,0,0-1-.47,1.24,1.24,0,0,0-1,.46A2.11,2.11,0,0,0,24.19,260Z"/><path d="M29.57,260.07a3.37,3.37,0,0,1,.4-1.59,2.78,2.78,0,0,1,1.15-1.17,3.4,3.4,0,0,1,1.66-.4,3.11,3.11,0,0,1,2.31.92,3.17,3.17,0,0,1,.9,2.32,3.21,3.21,0,0,1-.91,2.34,3.08,3.08,0,0,1-2.29.93,3.61,3.61,0,0,1-1.63-.39A2.65,2.65,0,0,1,30,261.89,3.78,3.78,0,0,1,29.57,260.07Zm1.69.09a2.06,2.06,0,0,0,.44,1.42,1.44,1.44,0,0,0,2.17,0,2.09,2.09,0,0,0,.44-1.43,2.05,2.05,0,0,0-.44-1.41,1.44,1.44,0,0,0-2.17,0A2.06,2.06,0,0,0,31.26,260.16Z"/><path d="M42.94,263.27H41.3v-3.18a4.91,4.91,0,0,0-.11-1.3.91.91,0,0,0-.34-.46,1,1,0,0,0-.57-.16,1.32,1.32,0,0,0-.77.23A1.18,1.18,0,0,0,39,259a5.37,5.37,0,0,0-.13,1.43v2.82H37.27V257H38.8V258a2.55,2.55,0,0,1,3-.86,1.67,1.67,0,0,1,.68.5,1.81,1.81,0,0,1,.32.69,5.14,5.14,0,0,1,.09,1.11Z"/><path d="M47.82,257h1.52v.85a2.44,2.44,0,0,1,1.94-1,2.09,2.09,0,0,1,1,.25,1.89,1.89,0,0,1,.72.74,2.87,2.87,0,0,1,.88-.74,2.17,2.17,0,0,1,1-.25,2.26,2.26,0,0,1,1.16.28,1.71,1.71,0,0,1,.71.82,3.55,3.55,0,0,1,.17,1.29v4H55.33v-3.56a2.65,2.65,0,0,0-.17-1.2.78.78,0,0,0-.7-.35,1.12,1.12,0,0,0-.65.21,1.17,1.17,0,0,0-.44.62,4.45,4.45,0,0,0-.13,1.29v3H51.58v-3.41a4.73,4.73,0,0,0-.09-1.17.75.75,0,0,0-.27-.39.86.86,0,0,0-.5-.13,1.2,1.2,0,0,0-.69.21,1.12,1.12,0,0,0-.44.59,4.4,4.4,0,0,0-.13,1.28v3H47.82Z"/><path d="M58.23,260.07a3.37,3.37,0,0,1,.4-1.59,2.78,2.78,0,0,1,1.15-1.17,3.4,3.4,0,0,1,1.66-.4,3.11,3.11,0,0,1,2.31.92,3.17,3.17,0,0,1,.9,2.32,3.21,3.21,0,0,1-.91,2.34,3.08,3.08,0,0,1-2.29.93,3.61,3.61,0,0,1-1.63-.39,2.65,2.65,0,0,1-1.18-1.13A3.78,3.78,0,0,1,58.23,260.07Zm1.69.09a2.06,2.06,0,0,0,.44,1.42,1.44,1.44,0,0,0,2.17,0,2.09,2.09,0,0,0,.44-1.43,2.05,2.05,0,0,0-.44-1.41,1.44,1.44,0,0,0-2.17,0A2.06,2.06,0,0,0,59.92,260.16Z"/><path d="M71.61,263.27H70v-3.18a4.91,4.91,0,0,0-.11-1.3.91.91,0,0,0-.34-.46,1,1,0,0,0-.57-.16,1.32,1.32,0,0,0-.77.23,1.18,1.18,0,0,0-.47.62,5.37,5.37,0,0,0-.13,1.43v2.82H65.93V257h1.53V258a2.55,2.55,0,0,1,3-.86,1.67,1.67,0,0,1,.68.5,1.81,1.81,0,0,1,.32.69,5.14,5.14,0,0,1,.09,1.11Z"/><path d="M72.9,260.07a3.37,3.37,0,0,1,.4-1.59,2.78,2.78,0,0,1,1.15-1.17,3.4,3.4,0,0,1,1.66-.4,3.11,3.11,0,0,1,2.31.92,3.17,3.17,0,0,1,.9,2.32,3.21,3.21,0,0,1-.91,2.34,3.08,3.08,0,0,1-2.29.93,3.61,3.61,0,0,1-1.63-.39,2.65,2.65,0,0,1-1.18-1.13A3.78,3.78,0,0,1,72.9,260.07Zm1.69.09a2.06,2.06,0,0,0,.44,1.42,1.44,1.44,0,0,0,2.17,0,2.09,2.09,0,0,0,.44-1.43,2.05,2.05,0,0,0-.44-1.41,1.44,1.44,0,0,0-2.17,0A2.06,2.06,0,0,0,74.58,260.16Z"/><path d="M79.81,263.27l2.24-3.21-2.15-3h2l1.1,1.71L84.18,257h1.93L84,260l2.3,3.28h-2L83,261.34l-1.28,1.93Z"/><path d="M87.28,256.2v-1.52h1.65v1.52Zm0,7.07V257h1.65v6.22Z"/><path d="M96.32,263.27H94.79v-.91a2.47,2.47,0,0,1-.9.79,2.31,2.31,0,0,1-1,.26,2.37,2.37,0,0,1-1.84-.86,3.52,3.52,0,0,1-.76-2.41,3.47,3.47,0,0,1,.74-2.41,2.43,2.43,0,0,1,1.88-.82,2.33,2.33,0,0,1,1.8.87v-3.09h1.65ZM91.93,260a2.85,2.85,0,0,0,.28,1.44,1.24,1.24,0,0,0,1.11.64,1.21,1.21,0,0,0,1-.48,2.23,2.23,0,0,0,.4-1.44,2.44,2.44,0,0,0-.39-1.54,1.22,1.22,0,0,0-1-.47,1.24,1.24,0,0,0-1,.47A2.1,2.1,0,0,0,91.93,260Z"/><path d="M101.55,261.29l1.64.28a2.69,2.69,0,0,1-1,1.37,2.93,2.93,0,0,1-1.71.47,2.78,2.78,0,0,1-2.4-1.06,3.56,3.56,0,0,1-.62-2.14,3.44,3.44,0,0,1,.81-2.42,2.66,2.66,0,0,1,2-.88,2.76,2.76,0,0,1,2.19.92,4.06,4.06,0,0,1,.77,2.81H99.15a1.67,1.67,0,0,0,.4,1.14,1.25,1.25,0,0,0,.95.41,1,1,0,0,0,.65-.21A1.3,1.3,0,0,0,101.55,261.29Zm.09-1.66a1.59,1.59,0,0,0-.37-1.09,1.19,1.19,0,0,0-1.75,0,1.52,1.52,0,0,0-.35,1.07Z"/><path d="M107.9,257h1.54V258a2.3,2.3,0,0,1,.81-.76,2.23,2.23,0,0,1,1.13-.29,2.37,2.37,0,0,1,1.84.85,3.44,3.44,0,0,1,.76,2.37,3.54,3.54,0,0,1-.76,2.42,2.37,2.37,0,0,1-1.85.86,2.1,2.1,0,0,1-.93-.21,3.15,3.15,0,0,1-.88-.7v3.13H107.9Zm1.63,3a2.4,2.4,0,0,0,.42,1.55,1.27,1.27,0,0,0,1,.5,1.19,1.19,0,0,0,1-.46,2.37,2.37,0,0,0,.38-1.51,2.25,2.25,0,0,0-.39-1.45,1.21,1.21,0,0,0-1-.47,1.26,1.26,0,0,0-1,.47A2.07,2.07,0,0,0,109.53,260Z"/><path d="M114.9,260.07a3.37,3.37,0,0,1,.4-1.59,2.78,2.78,0,0,1,1.15-1.17,3.4,3.4,0,0,1,1.66-.4,3.11,3.11,0,0,1,2.31.92,3.17,3.17,0,0,1,.9,2.32,3.21,3.21,0,0,1-.91,2.34,3.08,3.08,0,0,1-2.29.93,3.61,3.61,0,0,1-1.63-.39,2.65,2.65,0,0,1-1.18-1.13A3.78,3.78,0,0,1,114.9,260.07Zm1.69.09a2.06,2.06,0,0,0,.44,1.42,1.44,1.44,0,0,0,2.17,0,2.09,2.09,0,0,0,.44-1.43,2.05,2.05,0,0,0-.44-1.41,1.44,1.44,0,0,0-2.17,0A2.06,2.06,0,0,0,116.59,260.16Z"/><path d="M122.61,256.2v-1.52h1.65v1.52Zm0,7.07V257h1.65v6.22Z"/><path d="M125.37,261.49l1.65-.25a1.21,1.21,0,0,0,.43.73,1.45,1.45,0,0,0,.9.25,1.63,1.63,0,0,0,1-.23.52.52,0,0,0,.22-.44.43.43,0,0,0-.12-.31,1.31,1.31,0,0,0-.55-.22,8.88,8.88,0,0,1-2.53-.8,1.6,1.6,0,0,1-.74-1.4,1.73,1.73,0,0,1,.64-1.36,3,3,0,0,1,2-.55,3.46,3.46,0,0,1,1.9.42,2.13,2.13,0,0,1,.86,1.23l-1.55.29a1,1,0,0,0-.38-.56,1.38,1.38,0,0,0-.79-.19,1.79,1.79,0,0,0-.93.18.39.39,0,0,0-.19.33.36.36,0,0,0,.16.3,6.18,6.18,0,0,0,1.54.46,4.58,4.58,0,0,1,1.84.73,1.52,1.52,0,0,1,.52,1.22,1.88,1.88,0,0,1-.71,1.47,3.16,3.16,0,0,1-2.12.62,3.47,3.47,0,0,1-2-.52A2.38,2.38,0,0,1,125.37,261.49Z"/><path d="M132.24,260.07a3.37,3.37,0,0,1,.4-1.59,2.78,2.78,0,0,1,1.15-1.17,3.4,3.4,0,0,1,1.65-.4,3.11,3.11,0,0,1,2.31.92,3.17,3.17,0,0,1,.9,2.32,3.21,3.21,0,0,1-.91,2.34,3.08,3.08,0,0,1-2.29.93,3.61,3.61,0,0,1-1.63-.39,2.65,2.65,0,0,1-1.18-1.13A3.78,3.78,0,0,1,132.24,260.07Zm1.69.09a2.06,2.06,0,0,0,.44,1.42,1.44,1.44,0,0,0,2.17,0,2.09,2.09,0,0,0,.44-1.43,2.05,2.05,0,0,0-.44-1.41,1.44,1.44,0,0,0-2.17,0A2.06,2.06,0,0,0,133.93,260.16Z"/><path d="M145.61,263.27H144v-3.18a4.91,4.91,0,0,0-.11-1.3.91.91,0,0,0-.34-.46,1,1,0,0,0-.57-.16,1.32,1.32,0,0,0-.77.23,1.18,1.18,0,0,0-.46.62,5.36,5.36,0,0,0-.13,1.43v2.82h-1.65V257h1.53V258a2.55,2.55,0,0,1,3-.86,1.67,1.67,0,0,1,.68.5,1.81,1.81,0,0,1,.32.69,5.15,5.15,0,0,1,.09,1.11Z"/><path d="M147.28,256.2v-1.52h1.65v1.52Zm0,7.07V257h1.65v6.22Z"/><path d="M156.27,263.27h-1.65v-3.18a4.91,4.91,0,0,0-.11-1.3.91.91,0,0,0-.34-.46,1,1,0,0,0-.57-.16,1.32,1.32,0,0,0-.77.23,1.18,1.18,0,0,0-.46.62,5.36,5.36,0,0,0-.13,1.43v2.82H150.6V257h1.53V258a2.55,2.55,0,0,1,3-.86,1.67,1.67,0,0,1,.68.5,1.81,1.81,0,0,1,.32.69,5.15,5.15,0,0,1,.09,1.11Z"/><path d="M157.79,263.68l1.88.23a.64.64,0,0,0,.22.45,1.24,1.24,0,0,0,.74.18,1.92,1.92,0,0,0,1-.19.8.8,0,0,0,.33-.42,2.5,2.5,0,0,0,.08-.76v-.91a2.23,2.23,0,0,1-1.86,1,2.29,2.29,0,0,1-2-1.06,3.6,3.6,0,0,1-.57-2.09,3.43,3.43,0,0,1,.75-2.39,2.43,2.43,0,0,1,1.87-.83,2.28,2.28,0,0,1,1.9,1V257h1.54v5.58a5.56,5.56,0,0,1-.18,1.65,2,2,0,0,1-.51.86,2.25,2.25,0,0,1-.87.49,4.62,4.62,0,0,1-1.39.18,3.59,3.59,0,0,1-2.24-.54,1.7,1.7,0,0,1-.66-1.37Q157.79,263.79,157.79,263.68Zm1.47-3.65a2.24,2.24,0,0,0,.38,1.45,1.18,1.18,0,0,0,.95.46,1.31,1.31,0,0,0,1-.47,2.06,2.06,0,0,0,.42-1.4,2.18,2.18,0,0,0-.4-1.44,1.27,1.27,0,0,0-1-.47,1.21,1.21,0,0,0-1,.46A2.16,2.16,0,0,0,159.26,260Z"/><path d="M165.27,263.27v-1.65h1.65v1.65Z"/></g><rect x="0.78" y="0.8" width="261.89" height="26.07"/><g style="clip-path:url(#clip-path)"><path d="M74,6.32a1.23,1.23,0,0,0-1.2-.85,1.12,1.12,0,0,0-1.13.85l-8,13.83c-1.06,1.76-.14,2.47.92,2.54H81c1.13-.07,2-.78.92-2.54Z" style="fill:#fff"/><path d="M73.38,16.68a.53.53,0,0,1-.49.49h-.07a.48.48,0,0,1-.5-.49c-1.62-5.15-2.4-8.75.5-8.75s2.12,3.6.56,8.75"/><path d="M72.82,22.26a1.55,1.55,0,1,1,0-3.1h.07a1.51,1.51,0,0,1,1.48,1.55,1.52,1.52,0,0,1-1.55,1.55"/><path d="M88.43,22.66,84.33,5.48h3.55l2.59,11.8,3.14-11.8h4.13l3,12,2.64-12h3.49l-4.17,17.18H99L95.61,9.82,92.2,22.66Z" style="fill:#fff"/><path d="M122.85,22.66h-3.77l-1.5-3.9h-6.87l-1.42,3.9h-3.68L112.3,5.48H116Zm-6.39-6.8L114.1,9.49l-2.32,6.37Z" style="fill:#fff"/><path d="M124.7,22.66V5.48H132a12.5,12.5,0,0,1,4,.46,4,4,0,0,1,2,1.65,5,5,0,0,1,.75,2.71,4.59,4.59,0,0,1-1.14,3.19,5.46,5.46,0,0,1-3.4,1.59,8.09,8.09,0,0,1,1.86,1.44,19.58,19.58,0,0,1,2,2.79l2.1,3.35H136l-2.51-3.74a24.3,24.3,0,0,0-1.83-2.53,2.66,2.66,0,0,0-1-.71,5.72,5.72,0,0,0-1.75-.19h-.7v7.17Zm3.47-9.91h2.57a13.26,13.26,0,0,0,3.12-.21,1.87,1.87,0,0,0,1-.73,2.24,2.24,0,0,0,.35-1.29,2.06,2.06,0,0,0-.46-1.4,2.12,2.12,0,0,0-1.31-.67q-.42-.06-2.53-.06h-2.71Z" style="fill:#fff"/><path d="M142.06,22.66V5.48h3.38l7,11.47V5.48h3.22V22.66h-3.48l-6.93-11.2v11.2Z" style="fill:#fff"/><path d="M159.25,22.66V5.48h3.47V22.66Z" style="fill:#fff"/><path d="M166.06,22.66V5.48h3.38l7,11.47V5.48h3.22V22.66h-3.48l-6.93-11.2v11.2Z" style="fill:#fff"/><path d="M191.35,16.34V13.45h7.48v6.84a9.41,9.41,0,0,1-3.16,1.86,11.49,11.49,0,0,1-4.19.8,9.4,9.4,0,0,1-4.7-1.13,7.19,7.19,0,0,1-3-3.23,10.45,10.45,0,0,1-1-4.58,9.89,9.89,0,0,1,1.13-4.77A7.58,7.58,0,0,1,187.17,6a8.89,8.89,0,0,1,4.11-.86,8.21,8.21,0,0,1,5,1.34,6.06,6.06,0,0,1,2.31,3.71l-3.45.64a3.64,3.64,0,0,0-1.37-2,4.13,4.13,0,0,0-2.5-.73,4.7,4.7,0,0,0-3.62,1.44,6.07,6.07,0,0,0-1.34,4.28,6.73,6.73,0,0,0,1.36,4.59A4.54,4.54,0,0,0,191.25,20a6,6,0,0,0,2.19-.43,7.49,7.49,0,0,0,1.88-1V16.34Z" style="fill:#fff"/></g><path d="M4.61,160.29H7.78a6.19,6.19,0,0,1,1.63.16,2.87,2.87,0,0,1,1.29.79,3.75,3.75,0,0,1,.82,1.39,6.34,6.34,0,0,1,.28,2,5.65,5.65,0,0,1-.26,1.83,3.79,3.79,0,0,1-.92,1.52,3,3,0,0,1-1.22.69,5.25,5.25,0,0,1-1.54.18H4.61Zm1.73,1.45v5.69H7.64a4.73,4.73,0,0,0,1-.08,1.6,1.6,0,0,0,.7-.36,1.82,1.82,0,0,0,.45-.83,5.6,5.6,0,0,0,.18-1.57,5.13,5.13,0,0,0-.18-1.53,2,2,0,0,0-.49-.83,1.65,1.65,0,0,0-.8-.4,7.86,7.86,0,0,0-1.42-.08Z"/><path d="M12.89,165.68a3.37,3.37,0,0,1,.4-1.59,2.78,2.78,0,0,1,1.15-1.17,3.4,3.4,0,0,1,1.66-.4,3.11,3.11,0,0,1,2.31.92,3.17,3.17,0,0,1,.9,2.32,3.21,3.21,0,0,1-.91,2.34,3.08,3.08,0,0,1-2.29.93,3.61,3.61,0,0,1-1.63-.39,2.65,2.65,0,0,1-1.18-1.13A3.78,3.78,0,0,1,12.89,165.68Zm1.69.09a2.06,2.06,0,0,0,.44,1.42,1.44,1.44,0,0,0,2.17,0,2.09,2.09,0,0,0,.44-1.43,2.05,2.05,0,0,0-.44-1.41,1.44,1.44,0,0,0-2.17,0A2.06,2.06,0,0,0,14.57,165.77Z"/><path d="M29.59,168.88H27.94V165.7a4.91,4.91,0,0,0-.11-1.3.91.91,0,0,0-.34-.46,1,1,0,0,0-.57-.16,1.32,1.32,0,0,0-.77.23,1.18,1.18,0,0,0-.47.62,5.37,5.37,0,0,0-.13,1.43v2.82H23.92v-6.22h1.53v.91a2.55,2.55,0,0,1,3-.86,1.67,1.67,0,0,1,.68.5,1.81,1.81,0,0,1,.32.69,5.14,5.14,0,0,1,.09,1.11Z"/><path d="M30.88,165.68a3.37,3.37,0,0,1,.4-1.59,2.78,2.78,0,0,1,1.15-1.17,3.4,3.4,0,0,1,1.66-.4,3.11,3.11,0,0,1,2.31.92,3.17,3.17,0,0,1,.9,2.32,3.21,3.21,0,0,1-.91,2.34,3.08,3.08,0,0,1-2.29.93,3.61,3.61,0,0,1-1.63-.39,2.65,2.65,0,0,1-1.18-1.13A3.78,3.78,0,0,1,30.88,165.68Zm1.69.09a2.06,2.06,0,0,0,.44,1.42,1.44,1.44,0,0,0,2.17,0,2.09,2.09,0,0,0,.44-1.43,2.05,2.05,0,0,0-.44-1.41,1.44,1.44,0,0,0-2.17,0A2.06,2.06,0,0,0,32.57,165.77Z"/><path d="M41.44,162.65V164H40.32v2.51a6.24,6.24,0,0,0,0,.89.36.36,0,0,0,.15.21.46.46,0,0,0,.28.08,2.13,2.13,0,0,0,.66-.16l.14,1.28a3.27,3.27,0,0,1-1.3.25,2.06,2.06,0,0,1-.8-.15,1.17,1.17,0,0,1-.52-.39,1.53,1.53,0,0,1-.23-.64,8,8,0,0,1-.05-1.16V164h-.76v-1.31h.76v-1.24l1.65-1v2.2Z"/><path d="M51.35,164.49l-1.62.29a1.18,1.18,0,0,0-.37-.73,1.12,1.12,0,0,0-.75-.25,1.23,1.23,0,0,0-1,.42,2.18,2.18,0,0,0-.37,1.42,2.52,2.52,0,0,0,.37,1.56,1.22,1.22,0,0,0,1,.46,1.11,1.11,0,0,0,.77-.27,1.6,1.6,0,0,0,.42-.92l1.62.28a2.87,2.87,0,0,1-1,1.68,3,3,0,0,1-1.92.57,2.85,2.85,0,0,1-2.18-.86,3.93,3.93,0,0,1,0-4.78,2.89,2.89,0,0,1,2.2-.86,3,3,0,0,1,1.81.49A2.71,2.71,0,0,1,51.35,164.49Z"/><path d="M52.21,165.68a3.37,3.37,0,0,1,.4-1.59,2.78,2.78,0,0,1,1.15-1.17,3.4,3.4,0,0,1,1.66-.4,3.11,3.11,0,0,1,2.31.92,3.17,3.17,0,0,1,.9,2.32,3.21,3.21,0,0,1-.91,2.34,3.08,3.08,0,0,1-2.29.93,3.61,3.61,0,0,1-1.63-.39,2.65,2.65,0,0,1-1.18-1.13A3.78,3.78,0,0,1,52.21,165.68Zm1.69.09a2.06,2.06,0,0,0,.44,1.42,1.44,1.44,0,0,0,2.17,0,2.09,2.09,0,0,0,.44-1.43,2.05,2.05,0,0,0-.44-1.41,1.44,1.44,0,0,0-2.17,0A2.06,2.06,0,0,0,53.9,165.77Z"/><path d="M65.58,168.88H63.94V165.7a4.91,4.91,0,0,0-.11-1.3.91.91,0,0,0-.34-.46,1,1,0,0,0-.57-.16,1.32,1.32,0,0,0-.77.23,1.18,1.18,0,0,0-.47.62,5.37,5.37,0,0,0-.13,1.43v2.82H59.91v-6.22h1.53v.91a2.55,2.55,0,0,1,3-.86,1.67,1.67,0,0,1,.68.5,1.81,1.81,0,0,1,.32.69,5.14,5.14,0,0,1,.09,1.11Z"/><path d="M72.92,168.88H71.27V165.7a4.91,4.91,0,0,0-.11-1.3.91.91,0,0,0-.34-.46,1,1,0,0,0-.57-.16,1.32,1.32,0,0,0-.77.23,1.18,1.18,0,0,0-.47.62,5.37,5.37,0,0,0-.13,1.43v2.82H67.24v-6.22h1.53v.91a2.55,2.55,0,0,1,3-.86,1.67,1.67,0,0,1,.68.5,1.81,1.81,0,0,1,.32.69,5.14,5.14,0,0,1,.09,1.11Z"/><path d="M78.19,166.9l1.64.28a2.69,2.69,0,0,1-1,1.37,2.93,2.93,0,0,1-1.71.47,2.78,2.78,0,0,1-2.4-1.06,3.56,3.56,0,0,1-.62-2.14,3.44,3.44,0,0,1,.81-2.42,2.66,2.66,0,0,1,2-.88,2.76,2.76,0,0,1,2.19.92,4.06,4.06,0,0,1,.77,2.81H75.79a1.67,1.67,0,0,0,.4,1.14,1.25,1.25,0,0,0,.95.41,1,1,0,0,0,.65-.21A1.3,1.3,0,0,0,78.19,166.9Zm.09-1.66a1.59,1.59,0,0,0-.37-1.09,1.19,1.19,0,0,0-1.75,0,1.52,1.52,0,0,0-.35,1.07Z"/><path d="M86.68,164.49l-1.62.29a1.18,1.18,0,0,0-.37-.73,1.12,1.12,0,0,0-.75-.25,1.23,1.23,0,0,0-1,.42,2.18,2.18,0,0,0-.37,1.42,2.52,2.52,0,0,0,.37,1.56,1.22,1.22,0,0,0,1,.46,1.11,1.11,0,0,0,.77-.27,1.6,1.6,0,0,0,.42-.92l1.62.28a2.87,2.87,0,0,1-1,1.68,3,3,0,0,1-1.92.57,2.85,2.85,0,0,1-2.18-.86,3.93,3.93,0,0,1,0-4.78,2.89,2.89,0,0,1,2.2-.86,3,3,0,0,1,1.81.49A2.71,2.71,0,0,1,86.68,164.49Z"/><path d="M90.77,162.65V164H89.65v2.51a6.24,6.24,0,0,0,0,.89.36.36,0,0,0,.15.21.46.46,0,0,0,.28.08,2.13,2.13,0,0,0,.66-.16l.14,1.28a3.27,3.27,0,0,1-1.3.25,2.06,2.06,0,0,1-.8-.15,1.17,1.17,0,0,1-.52-.39,1.53,1.53,0,0,1-.23-.64,8,8,0,0,1-.05-1.16V164h-.76v-1.31H88v-1.24l1.65-1v2.2Z"/><path d="M96.48,164.55,95,164.28a2.33,2.33,0,0,1,.87-1.34,3.17,3.17,0,0,1,1.83-.43,3.94,3.94,0,0,1,1.64.26,1.64,1.64,0,0,1,.76.66,3.4,3.4,0,0,1,.22,1.47l0,1.92a6.67,6.67,0,0,0,.08,1.21,3.53,3.53,0,0,0,.3.83H99q-.06-.16-.16-.49l-.06-.19a3,3,0,0,1-.9.62,2.58,2.58,0,0,1-1,.21,2.12,2.12,0,0,1-1.51-.52,1.73,1.73,0,0,1-.55-1.32,1.77,1.77,0,0,1,.25-.94,1.65,1.65,0,0,1,.71-.63,5.52,5.52,0,0,1,1.31-.38,9,9,0,0,0,1.6-.4v-.16a.85.85,0,0,0-.23-.68,1.4,1.4,0,0,0-.88-.2,1.18,1.18,0,0,0-.69.17A1.2,1.2,0,0,0,96.48,164.55Zm2.2,1.34a10.29,10.29,0,0,1-1,.25,3,3,0,0,0-.9.29.69.69,0,0,0-.32.58.81.81,0,0,0,.26.6.9.9,0,0,0,.66.25,1.43,1.43,0,0,0,.85-.29,1,1,0,0,0,.39-.54,3.25,3.25,0,0,0,.06-.8Z"/><path d="M110.92,168.88h-1.65V165.7a4.91,4.91,0,0,0-.11-1.3.91.91,0,0,0-.34-.46,1,1,0,0,0-.57-.16,1.32,1.32,0,0,0-.77.23,1.18,1.18,0,0,0-.47.62,5.37,5.37,0,0,0-.13,1.43v2.82h-1.65v-6.22h1.53v.91a2.55,2.55,0,0,1,3-.86,1.67,1.67,0,0,1,.68.5,1.81,1.81,0,0,1,.32.69,5.14,5.14,0,0,1,.09,1.11Z"/><path d="M113.82,164.55l-1.49-.27a2.33,2.33,0,0,1,.87-1.34,3.17,3.17,0,0,1,1.83-.43,3.94,3.94,0,0,1,1.64.26,1.64,1.64,0,0,1,.76.66,3.4,3.4,0,0,1,.22,1.47l0,1.92a6.67,6.67,0,0,0,.08,1.21,3.53,3.53,0,0,0,.3.83h-1.63q-.06-.16-.16-.49l-.06-.19a3,3,0,0,1-.9.62,2.58,2.58,0,0,1-1,.21,2.12,2.12,0,0,1-1.51-.52,1.73,1.73,0,0,1-.55-1.32,1.77,1.77,0,0,1,.25-.94,1.65,1.65,0,0,1,.71-.63,5.52,5.52,0,0,1,1.31-.38,9,9,0,0,0,1.6-.4v-.16a.85.85,0,0,0-.23-.68,1.4,1.4,0,0,0-.88-.2,1.18,1.18,0,0,0-.69.17A1.2,1.2,0,0,0,113.82,164.55Zm2.2,1.34a10.29,10.29,0,0,1-1,.25,3,3,0,0,0-.9.29.69.69,0,0,0-.32.58.81.81,0,0,0,.26.6.9.9,0,0,0,.66.25,1.43,1.43,0,0,0,.85-.29A1,1,0,0,0,116,167a3.25,3.25,0,0,0,.06-.8Z"/><path d="M122.12,162.65V164H121v2.51a6.24,6.24,0,0,0,0,.89.36.36,0,0,0,.15.21.46.46,0,0,0,.28.08,2.13,2.13,0,0,0,.66-.16l.14,1.28a3.27,3.27,0,0,1-1.3.25,2.06,2.06,0,0,1-.8-.15,1.17,1.17,0,0,1-.52-.39,1.53,1.53,0,0,1-.23-.64,8,8,0,0,1-.05-1.16V164h-.76v-1.31h.76v-1.24l1.65-1v2.2Z"/><path d="M127.35,168.88v-.93a2.4,2.4,0,0,1-.89.79,2.5,2.5,0,0,1-1.17.29,2.29,2.29,0,0,1-1.12-.28,1.63,1.63,0,0,1-.72-.77,3.45,3.45,0,0,1-.22-1.38v-3.94h1.65v2.86a7.93,7.93,0,0,0,.09,1.61.88.88,0,0,0,.33.47,1,1,0,0,0,.61.17,1.3,1.3,0,0,0,.76-.23,1.18,1.18,0,0,0,.46-.57,6.67,6.67,0,0,0,.12-1.68v-2.62h1.65v6.22Z"/><path d="M132.16,168.88h-1.65v-6.22H132v.88a2.66,2.66,0,0,1,.71-.83,1.3,1.3,0,0,1,.71-.2,2.09,2.09,0,0,1,1.08.31l-.51,1.44a1.44,1.44,0,0,0-.77-.27.91.91,0,0,0-.59.19,1.3,1.3,0,0,0-.38.69,9.78,9.78,0,0,0-.14,2.09Z"/><path d="M136.49,164.55l-1.49-.27a2.33,2.33,0,0,1,.87-1.34,3.17,3.17,0,0,1,1.83-.43,3.94,3.94,0,0,1,1.64.26,1.64,1.64,0,0,1,.76.66,3.4,3.4,0,0,1,.22,1.47l0,1.92a6.65,6.65,0,0,0,.08,1.21,3.53,3.53,0,0,0,.29.83H139q-.06-.16-.16-.49l-.06-.19a3,3,0,0,1-.9.62,2.58,2.58,0,0,1-1,.21,2.12,2.12,0,0,1-1.51-.52,1.73,1.73,0,0,1-.55-1.32,1.77,1.77,0,0,1,.25-.94,1.65,1.65,0,0,1,.71-.63,5.51,5.51,0,0,1,1.31-.38,9,9,0,0,0,1.6-.4v-.16a.85.85,0,0,0-.23-.68,1.4,1.4,0,0,0-.88-.2,1.18,1.18,0,0,0-.69.17A1.2,1.2,0,0,0,136.49,164.55Zm2.2,1.34a10.29,10.29,0,0,1-1,.25,3,3,0,0,0-.9.29.69.69,0,0,0-.32.58.81.81,0,0,0,.26.6.9.9,0,0,0,.66.25,1.43,1.43,0,0,0,.85-.29,1,1,0,0,0,.39-.54,3.25,3.25,0,0,0,.06-.8Z"/><path d="M141.93,168.88v-8.59h1.65v8.59Z"/><path d="M148.45,169.29l1.88.23a.64.64,0,0,0,.22.45,1.24,1.24,0,0,0,.74.18,1.92,1.92,0,0,0,1-.19.8.8,0,0,0,.33-.42,2.5,2.5,0,0,0,.08-.76v-.91a2.23,2.23,0,0,1-1.86,1,2.29,2.29,0,0,1-2-1.06,3.6,3.6,0,0,1-.57-2.09,3.43,3.43,0,0,1,.75-2.39,2.43,2.43,0,0,1,1.87-.83,2.28,2.28,0,0,1,1.9,1v-.87h1.54v5.58a5.56,5.56,0,0,1-.18,1.65,2,2,0,0,1-.51.86,2.25,2.25,0,0,1-.87.49,4.62,4.62,0,0,1-1.39.18,3.59,3.59,0,0,1-2.24-.54,1.7,1.7,0,0,1-.66-1.37Q148.44,169.4,148.45,169.29Zm1.47-3.65a2.24,2.24,0,0,0,.38,1.45,1.18,1.18,0,0,0,.95.46,1.31,1.31,0,0,0,1-.47,2.06,2.06,0,0,0,.42-1.4,2.18,2.18,0,0,0-.4-1.44,1.27,1.27,0,0,0-1-.47,1.21,1.21,0,0,0-1,.46A2.16,2.16,0,0,0,149.92,165.64Z"/><path d="M157.16,164.55l-1.49-.27a2.33,2.33,0,0,1,.87-1.34,3.17,3.17,0,0,1,1.83-.43,3.94,3.94,0,0,1,1.64.26,1.64,1.64,0,0,1,.76.66,3.4,3.4,0,0,1,.22,1.47l0,1.92A6.65,6.65,0,0,0,161,168a3.53,3.53,0,0,0,.29.83h-1.63q-.06-.16-.16-.49l-.06-.19a3,3,0,0,1-.9.62,2.58,2.58,0,0,1-1,.21,2.12,2.12,0,0,1-1.51-.52,1.73,1.73,0,0,1-.55-1.32,1.77,1.77,0,0,1,.25-.94,1.65,1.65,0,0,1,.71-.63,5.51,5.51,0,0,1,1.31-.38,9,9,0,0,0,1.6-.4v-.16a.85.85,0,0,0-.23-.68,1.4,1.4,0,0,0-.88-.2,1.18,1.18,0,0,0-.69.17A1.2,1.2,0,0,0,157.16,164.55Zm2.2,1.34a10.29,10.29,0,0,1-1,.25,3,3,0,0,0-.9.29.69.69,0,0,0-.32.58.81.81,0,0,0,.26.6.9.9,0,0,0,.66.25,1.43,1.43,0,0,0,.85-.29,1,1,0,0,0,.39-.54,3.25,3.25,0,0,0,.06-.8Z"/><path d="M162,167.1l1.65-.25a1.21,1.21,0,0,0,.43.73,1.45,1.45,0,0,0,.9.25,1.63,1.63,0,0,0,1-.23.52.52,0,0,0,.22-.44.43.43,0,0,0-.12-.31,1.31,1.31,0,0,0-.55-.22,8.88,8.88,0,0,1-2.53-.8,1.6,1.6,0,0,1-.74-1.4,1.73,1.73,0,0,1,.64-1.36,3,3,0,0,1,2-.55,3.46,3.46,0,0,1,1.9.42,2.13,2.13,0,0,1,.86,1.23l-1.55.29a1,1,0,0,0-.38-.56,1.39,1.39,0,0,0-.79-.19,1.79,1.79,0,0,0-.93.18.39.39,0,0,0-.19.33.36.36,0,0,0,.16.3,6.19,6.19,0,0,0,1.54.46,4.57,4.57,0,0,1,1.84.73,1.52,1.52,0,0,1,.52,1.22,1.88,1.88,0,0,1-.71,1.47A3.16,3.16,0,0,1,165,169a3.47,3.47,0,0,1-2-.52A2.38,2.38,0,0,1,162,167.1Z"/><path d="M173.77,168.88l-2-6.22h1.6l1.17,4.08,1.07-4.08h1.59l1,4.08,1.19-4.08h1.62l-2,6.22H177.5l-1.07-4-1.05,4Z"/><path d="M183.18,164.55l-1.49-.27a2.33,2.33,0,0,1,.87-1.34,3.17,3.17,0,0,1,1.83-.43,3.94,3.94,0,0,1,1.64.26,1.64,1.64,0,0,1,.76.66,3.4,3.4,0,0,1,.22,1.47l0,1.92a6.65,6.65,0,0,0,.08,1.21,3.53,3.53,0,0,0,.29.83h-1.63q-.06-.16-.16-.49l-.06-.19a3,3,0,0,1-.9.62,2.58,2.58,0,0,1-1,.21,2.12,2.12,0,0,1-1.51-.52,1.73,1.73,0,0,1-.55-1.32,1.77,1.77,0,0,1,.25-.94,1.65,1.65,0,0,1,.71-.63,5.51,5.51,0,0,1,1.31-.38,9,9,0,0,0,1.6-.4v-.16a.85.85,0,0,0-.23-.68,1.4,1.4,0,0,0-.88-.2,1.18,1.18,0,0,0-.69.17A1.2,1.2,0,0,0,183.18,164.55Zm2.2,1.34a10.29,10.29,0,0,1-1,.25,3,3,0,0,0-.9.29.69.69,0,0,0-.32.58.81.81,0,0,0,.26.6.9.9,0,0,0,.66.25,1.43,1.43,0,0,0,.85-.29,1,1,0,0,0,.39-.54,3.25,3.25,0,0,0,.06-.8Z"/><path d="M191.47,162.65V164h-1.12v2.51a6.16,6.16,0,0,0,0,.89.36.36,0,0,0,.15.21.46.46,0,0,0,.28.08,2.13,2.13,0,0,0,.66-.16l.14,1.28a3.27,3.27,0,0,1-1.3.25,2.06,2.06,0,0,1-.8-.15,1.17,1.17,0,0,1-.52-.39,1.53,1.53,0,0,1-.23-.64,8,8,0,0,1-.05-1.16V164h-.76v-1.31h.76v-1.24l1.65-1v2.2Z"/><path d="M196.22,166.9l1.64.28a2.69,2.69,0,0,1-1,1.37,2.94,2.94,0,0,1-1.71.47,2.78,2.78,0,0,1-2.4-1.06,3.56,3.56,0,0,1-.62-2.14,3.44,3.44,0,0,1,.81-2.42,2.66,2.66,0,0,1,2-.88,2.76,2.76,0,0,1,2.19.92,4.06,4.06,0,0,1,.77,2.81h-4.12a1.67,1.67,0,0,0,.4,1.14,1.25,1.25,0,0,0,.95.41,1,1,0,0,0,.65-.21A1.3,1.3,0,0,0,196.22,166.9Zm.09-1.66a1.59,1.59,0,0,0-.37-1.09,1.19,1.19,0,0,0-1.75,0,1.52,1.52,0,0,0-.35,1.07Z"/><path d="M200.87,168.88h-1.65v-6.22h1.53v.88a2.66,2.66,0,0,1,.71-.83,1.3,1.3,0,0,1,.71-.2,2.09,2.09,0,0,1,1.08.31l-.51,1.44A1.44,1.44,0,0,0,202,164a.91.91,0,0,0-.59.19,1.3,1.3,0,0,0-.38.69,9.76,9.76,0,0,0-.14,2.09Z"/><path d="M208.93,160.29v3.16a2.47,2.47,0,0,1,2.93-.72,1.68,1.68,0,0,1,.69.54,2,2,0,0,1,.32.73,6.51,6.51,0,0,1,.08,1.24v3.65h-1.65v-3.29a4.87,4.87,0,0,0-.09-1.24.81.81,0,0,0-.33-.42,1.07,1.07,0,0,0-.6-.16,1.36,1.36,0,0,0-.73.2,1.15,1.15,0,0,0-.47.6,3.58,3.58,0,0,0-.15,1.19v3.12h-1.65v-8.59Z"/><path d="M218.23,166.9l1.64.28a2.69,2.69,0,0,1-1,1.37,2.94,2.94,0,0,1-1.71.47,2.78,2.78,0,0,1-2.4-1.06,3.56,3.56,0,0,1-.62-2.14,3.44,3.44,0,0,1,.81-2.42,2.66,2.66,0,0,1,2-.88,2.76,2.76,0,0,1,2.19.92,4.06,4.06,0,0,1,.77,2.81h-4.12a1.67,1.67,0,0,0,.4,1.14,1.25,1.25,0,0,0,.95.41,1,1,0,0,0,.65-.21A1.3,1.3,0,0,0,218.23,166.9Zm.09-1.66a1.59,1.59,0,0,0-.37-1.09,1.19,1.19,0,0,0-1.75,0,1.52,1.52,0,0,0-.35,1.07Z"/><path d="M222.53,164.55l-1.49-.27a2.33,2.33,0,0,1,.87-1.34,3.17,3.17,0,0,1,1.83-.43,3.94,3.94,0,0,1,1.64.26,1.64,1.64,0,0,1,.76.66,3.4,3.4,0,0,1,.22,1.47l0,1.92a6.65,6.65,0,0,0,.08,1.21,3.53,3.53,0,0,0,.29.83h-1.63q-.06-.16-.16-.49l-.06-.19a3,3,0,0,1-.9.62,2.58,2.58,0,0,1-1,.21,2.12,2.12,0,0,1-1.51-.52,1.73,1.73,0,0,1-.55-1.32,1.77,1.77,0,0,1,.25-.94,1.65,1.65,0,0,1,.71-.63,5.51,5.51,0,0,1,1.31-.38,9,9,0,0,0,1.6-.4v-.16a.85.85,0,0,0-.23-.68,1.4,1.4,0,0,0-.88-.2,1.18,1.18,0,0,0-.69.17A1.2,1.2,0,0,0,222.53,164.55Zm2.2,1.34a10.29,10.29,0,0,1-1,.25,3,3,0,0,0-.9.29.69.69,0,0,0-.32.58.81.81,0,0,0,.26.6.9.9,0,0,0,.66.25,1.43,1.43,0,0,0,.85-.29,1,1,0,0,0,.39-.54,3.25,3.25,0,0,0,.06-.8Z"/><path d="M230.82,162.65V164H229.7v2.51a6.16,6.16,0,0,0,0,.89.36.36,0,0,0,.15.21.46.46,0,0,0,.28.08,2.13,2.13,0,0,0,.66-.16l.14,1.28a3.27,3.27,0,0,1-1.3.25,2.06,2.06,0,0,1-.8-.15,1.17,1.17,0,0,1-.52-.39,1.53,1.53,0,0,1-.23-.64,8,8,0,0,1-.05-1.16V164h-.76v-1.31H228v-1.24l1.65-1v2.2Z"/><path d="M235.57,166.9l1.64.28a2.69,2.69,0,0,1-1,1.37,2.94,2.94,0,0,1-1.71.47,2.78,2.78,0,0,1-2.4-1.06,3.56,3.56,0,0,1-.62-2.14,3.44,3.44,0,0,1,.81-2.42,2.66,2.66,0,0,1,2-.88,2.76,2.76,0,0,1,2.19.92,4.06,4.06,0,0,1,.77,2.81h-4.12a1.67,1.67,0,0,0,.4,1.14,1.25,1.25,0,0,0,.95.41,1,1,0,0,0,.65-.21A1.3,1.3,0,0,0,235.57,166.9Zm.09-1.66a1.59,1.59,0,0,0-.37-1.09,1.19,1.19,0,0,0-1.75,0,1.52,1.52,0,0,0-.35,1.07Z"/><path d="M240.22,168.88h-1.65v-6.22h1.53v.88a2.66,2.66,0,0,1,.71-.83,1.3,1.3,0,0,1,.71-.2,2.09,2.09,0,0,1,1.08.31l-.51,1.44a1.44,1.44,0,0,0-.77-.27.91.91,0,0,0-.59.19,1.3,1.3,0,0,0-.38.69,9.76,9.76,0,0,0-.14,2.09Z"/><path d="M249.5,162.65V164h-1.12v2.51a6.16,6.16,0,0,0,0,.89.36.36,0,0,0,.15.21.46.46,0,0,0,.28.08,2.13,2.13,0,0,0,.66-.16l.14,1.28a3.27,3.27,0,0,1-1.3.25,2.06,2.06,0,0,1-.8-.15,1.17,1.17,0,0,1-.52-.39,1.53,1.53,0,0,1-.23-.64,8,8,0,0,1-.05-1.16V164H246v-1.31h.76v-1.24l1.65-1v2.2Z"/><path d="M250.26,165.68a3.37,3.37,0,0,1,.4-1.59,2.78,2.78,0,0,1,1.15-1.17,3.4,3.4,0,0,1,1.65-.4,3.11,3.11,0,0,1,2.31.92,3.17,3.17,0,0,1,.9,2.32,3.21,3.21,0,0,1-.91,2.34,3.08,3.08,0,0,1-2.29.93,3.61,3.61,0,0,1-1.63-.39,2.66,2.66,0,0,1-1.18-1.13A3.78,3.78,0,0,1,250.26,165.68Zm1.69.09a2.06,2.06,0,0,0,.44,1.42,1.44,1.44,0,0,0,2.17,0,2.09,2.09,0,0,0,.44-1.43,2.05,2.05,0,0,0-.44-1.41,1.44,1.44,0,0,0-2.17,0A2.06,2.06,0,0,0,251.95,165.77Z"/><path d="M5.83,179l-1.49-.27a2.33,2.33,0,0,1,.87-1.34A3.17,3.17,0,0,1,7,176.91a3.94,3.94,0,0,1,1.64.26,1.64,1.64,0,0,1,.76.66,3.4,3.4,0,0,1,.22,1.47l0,1.92a6.67,6.67,0,0,0,.08,1.21,3.53,3.53,0,0,0,.3.83H8.38q-.06-.16-.16-.49l-.06-.19a3,3,0,0,1-.9.62,2.58,2.58,0,0,1-1,.21,2.12,2.12,0,0,1-1.51-.52,1.73,1.73,0,0,1-.55-1.32,1.77,1.77,0,0,1,.25-.94,1.65,1.65,0,0,1,.71-.63,5.52,5.52,0,0,1,1.31-.38,9,9,0,0,0,1.6-.4v-.16a.85.85,0,0,0-.23-.68,1.4,1.4,0,0,0-.88-.2,1.18,1.18,0,0,0-.69.17A1.2,1.2,0,0,0,5.83,179ZM8,180.29a10.29,10.29,0,0,1-1,.25,3,3,0,0,0-.9.29.69.69,0,0,0-.32.58.81.81,0,0,0,.26.6.9.9,0,0,0,.66.25,1.43,1.43,0,0,0,.85-.29,1,1,0,0,0,.39-.54,3.25,3.25,0,0,0,.06-.8Z"/><path d="M16.93,183.28H15.29V180.1a4.91,4.91,0,0,0-.11-1.3.91.91,0,0,0-.34-.46,1,1,0,0,0-.57-.16,1.32,1.32,0,0,0-.77.23A1.18,1.18,0,0,0,13,179a5.37,5.37,0,0,0-.13,1.43v2.82H11.26v-6.22h1.53V178a2.55,2.55,0,0,1,3-.86,1.67,1.67,0,0,1,.68.5,1.81,1.81,0,0,1,.32.69,5.14,5.14,0,0,1,.09,1.11Z"/><path d="M22,183.28v-8.52h1.73v7.07H28v1.45Z"/><path d="M29.27,183.28v-1.65h1.65v1.65Z"/><path d="M32.61,183.28v-8.59H35.4a10.09,10.09,0,0,1,2.06.13,2.25,2.25,0,0,1,1.24.84,2.67,2.67,0,0,1,.5,1.67,2.8,2.8,0,0,1-.29,1.33,2.36,2.36,0,0,1-.73.85,2.51,2.51,0,0,1-.9.41,9.9,9.9,0,0,1-1.8.12H34.35v3.24Zm1.73-7.14v2.44h.95a4.48,4.48,0,0,0,1.37-.13,1.14,1.14,0,0,0,.54-.42,1.15,1.15,0,0,0,.2-.67,1.11,1.11,0,0,0-.28-.77,1.2,1.2,0,0,0-.7-.38,8.34,8.34,0,0,0-1.25-.06Z"/><path d="M40.61,183.28v-1.65h1.65v1.65Z"/><path d="M47.12,183.69l1.88.23a.64.64,0,0,0,.22.45,1.24,1.24,0,0,0,.74.18,1.92,1.92,0,0,0,1-.19.8.8,0,0,0,.33-.42,2.5,2.5,0,0,0,.08-.76v-.91a2.23,2.23,0,0,1-1.86,1,2.29,2.29,0,0,1-2-1.06,3.6,3.6,0,0,1-.57-2.09,3.43,3.43,0,0,1,.75-2.39,2.43,2.43,0,0,1,1.87-.83,2.28,2.28,0,0,1,1.9,1v-.87H53v5.58a5.56,5.56,0,0,1-.18,1.65,2,2,0,0,1-.51.86,2.26,2.26,0,0,1-.88.49,4.61,4.61,0,0,1-1.39.18,3.59,3.59,0,0,1-2.24-.54,1.7,1.7,0,0,1-.66-1.37Q47.12,183.8,47.12,183.69ZM48.59,180a2.24,2.24,0,0,0,.38,1.45,1.19,1.19,0,0,0,.95.46,1.31,1.31,0,0,0,1-.47,2.06,2.06,0,0,0,.42-1.4,2.18,2.18,0,0,0-.4-1.44,1.27,1.27,0,0,0-1-.47,1.22,1.22,0,0,0-1,.46A2.16,2.16,0,0,0,48.59,180Z"/><path d="M55.83,179l-1.49-.27a2.33,2.33,0,0,1,.87-1.34,3.17,3.17,0,0,1,1.83-.43,3.94,3.94,0,0,1,1.64.26,1.64,1.64,0,0,1,.76.66,3.4,3.4,0,0,1,.22,1.47l0,1.92a6.67,6.67,0,0,0,.08,1.21,3.53,3.53,0,0,0,.3.83H58.38q-.06-.16-.16-.49l-.06-.19a3,3,0,0,1-.9.62,2.58,2.58,0,0,1-1,.21,2.12,2.12,0,0,1-1.51-.52,1.73,1.73,0,0,1-.55-1.32,1.77,1.77,0,0,1,.25-.94,1.65,1.65,0,0,1,.71-.63,5.52,5.52,0,0,1,1.31-.38,9,9,0,0,0,1.6-.4v-.16a.85.85,0,0,0-.23-.68,1.4,1.4,0,0,0-.88-.2,1.18,1.18,0,0,0-.69.17A1.2,1.2,0,0,0,55.83,179Zm2.2,1.34a10.29,10.29,0,0,1-1,.25,3,3,0,0,0-.9.29.69.69,0,0,0-.32.58.81.81,0,0,0,.26.6.9.9,0,0,0,.66.25,1.43,1.43,0,0,0,.85-.29,1,1,0,0,0,.39-.54,3.25,3.25,0,0,0,.06-.8Z"/><path d="M60.7,181.5l1.65-.25a1.21,1.21,0,0,0,.43.73,1.45,1.45,0,0,0,.9.25,1.63,1.63,0,0,0,1-.23.52.52,0,0,0,.22-.44.43.43,0,0,0-.12-.31,1.31,1.31,0,0,0-.55-.22,8.88,8.88,0,0,1-2.53-.8,1.6,1.6,0,0,1-.74-1.4,1.73,1.73,0,0,1,.64-1.36,3,3,0,0,1,2-.55,3.46,3.46,0,0,1,1.9.42,2.13,2.13,0,0,1,.86,1.23l-1.55.29a1,1,0,0,0-.38-.56,1.38,1.38,0,0,0-.79-.19,1.79,1.79,0,0,0-.93.18.39.39,0,0,0-.19.33.36.36,0,0,0,.16.3,6.18,6.18,0,0,0,1.54.46,4.58,4.58,0,0,1,1.84.73,1.52,1.52,0,0,1,.52,1.22,1.88,1.88,0,0,1-.71,1.47,3.16,3.16,0,0,1-2.12.62,3.47,3.47,0,0,1-2-.52A2.38,2.38,0,0,1,60.7,181.5Z"/><path d="M70.71,181.5l1.65-.25a1.21,1.21,0,0,0,.43.73,1.45,1.45,0,0,0,.9.25,1.63,1.63,0,0,0,1-.23.52.52,0,0,0,.22-.44.43.43,0,0,0-.12-.31,1.31,1.31,0,0,0-.55-.22,8.88,8.88,0,0,1-2.53-.8,1.6,1.6,0,0,1-.74-1.4,1.73,1.73,0,0,1,.64-1.36,3,3,0,0,1,2-.55,3.46,3.46,0,0,1,1.9.42,2.13,2.13,0,0,1,.86,1.23l-1.55.29a1,1,0,0,0-.38-.56,1.38,1.38,0,0,0-.79-.19,1.79,1.79,0,0,0-.93.18.39.39,0,0,0-.19.33.36.36,0,0,0,.16.3,6.18,6.18,0,0,0,1.54.46,4.58,4.58,0,0,1,1.84.73,1.52,1.52,0,0,1,.52,1.22,1.88,1.88,0,0,1-.71,1.47,3.16,3.16,0,0,1-2.12.62,3.47,3.47,0,0,1-2-.52A2.38,2.38,0,0,1,70.71,181.5Z"/><path d="M82.06,183.28v-.93a2.4,2.4,0,0,1-.89.79,2.5,2.5,0,0,1-1.17.29,2.29,2.29,0,0,1-1.12-.28,1.63,1.63,0,0,1-.72-.77,3.45,3.45,0,0,1-.22-1.38v-3.94h1.65v2.86a7.93,7.93,0,0,0,.09,1.61A.88.88,0,0,0,80,182a1,1,0,0,0,.61.17,1.3,1.3,0,0,0,.76-.23,1.18,1.18,0,0,0,.46-.57,6.67,6.67,0,0,0,.12-1.68v-2.62h1.65v6.22Z"/><path d="M85.24,177.05h1.54V178a2.3,2.3,0,0,1,.81-.76,2.23,2.23,0,0,1,1.13-.29,2.37,2.37,0,0,1,1.84.85,3.44,3.44,0,0,1,.76,2.37,3.54,3.54,0,0,1-.76,2.42,2.37,2.37,0,0,1-1.85.86,2.1,2.1,0,0,1-.93-.21,3.15,3.15,0,0,1-.88-.7v3.13H85.24Zm1.63,3a2.4,2.4,0,0,0,.42,1.55,1.27,1.27,0,0,0,1,.5,1.19,1.19,0,0,0,1-.46,2.37,2.37,0,0,0,.38-1.51,2.25,2.25,0,0,0-.39-1.45,1.21,1.21,0,0,0-1-.47,1.26,1.26,0,0,0-1,.47A2.07,2.07,0,0,0,86.87,180.06Z"/><path d="M92.57,177.05h1.54V178a2.3,2.3,0,0,1,.81-.76,2.23,2.23,0,0,1,1.13-.29,2.37,2.37,0,0,1,1.84.85,3.44,3.44,0,0,1,.76,2.37,3.54,3.54,0,0,1-.76,2.42,2.37,2.37,0,0,1-1.85.86,2.1,2.1,0,0,1-.93-.21,3.15,3.15,0,0,1-.88-.7v3.13H92.57Zm1.63,3a2.4,2.4,0,0,0,.42,1.55,1.27,1.27,0,0,0,1,.5,1.19,1.19,0,0,0,1-.46,2.37,2.37,0,0,0,.38-1.51,2.25,2.25,0,0,0-.39-1.45,1.21,1.21,0,0,0-1-.47,1.26,1.26,0,0,0-1,.47A2.07,2.07,0,0,0,94.2,180.06Z"/><path d="M100,183.28v-8.59h1.65v8.59Z"/><path d="M102.5,177.05h1.75l1.49,4.42,1.45-4.42h1.71l-2.2,6-.39,1.08a4.42,4.42,0,0,1-.41.83,1.8,1.8,0,0,1-.45.47,2,2,0,0,1-.63.28,3.26,3.26,0,0,1-.84.1,4.36,4.36,0,0,1-.93-.1l-.15-1.29a3.64,3.64,0,0,0,.7.08,1,1,0,0,0,.85-.34,2.34,2.34,0,0,0,.42-.86Z"/><path d="M110,183.28v-1.65h1.65v1.65Z"/><path d="M4.61,193.09H7.78a6.19,6.19,0,0,1,1.63.16,2.87,2.87,0,0,1,1.29.79,3.75,3.75,0,0,1,.82,1.39,6.34,6.34,0,0,1,.28,2,5.65,5.65,0,0,1-.26,1.83,3.79,3.79,0,0,1-.92,1.52,3,3,0,0,1-1.22.69,5.25,5.25,0,0,1-1.54.18H4.61Zm1.73,1.45v5.69H7.64a4.73,4.73,0,0,0,1-.08,1.6,1.6,0,0,0,.7-.36,1.82,1.82,0,0,0,.45-.83,5.6,5.6,0,0,0,.18-1.57,5.13,5.13,0,0,0-.18-1.53,2,2,0,0,0-.49-.83,1.65,1.65,0,0,0-.8-.4,7.86,7.86,0,0,0-1.42-.08Z"/><path d="M12.89,198.48a3.37,3.37,0,0,1,.4-1.59,2.78,2.78,0,0,1,1.15-1.17,3.4,3.4,0,0,1,1.66-.4,3.11,3.11,0,0,1,2.31.92,3.17,3.17,0,0,1,.9,2.32,3.21,3.21,0,0,1-.91,2.34,3.08,3.08,0,0,1-2.29.93,3.61,3.61,0,0,1-1.63-.39,2.65,2.65,0,0,1-1.18-1.13A3.78,3.78,0,0,1,12.89,198.48Zm1.69.09A2.06,2.06,0,0,0,15,200a1.44,1.44,0,0,0,2.17,0,2.09,2.09,0,0,0,.44-1.43,2.05,2.05,0,0,0-.44-1.41,1.44,1.44,0,0,0-2.17,0A2.06,2.06,0,0,0,14.57,198.57Z"/><path d="M29.59,201.68H27.94V198.5a4.91,4.91,0,0,0-.11-1.3.91.91,0,0,0-.34-.46,1,1,0,0,0-.57-.16,1.32,1.32,0,0,0-.77.23,1.18,1.18,0,0,0-.47.62,5.37,5.37,0,0,0-.13,1.43v2.82H23.92v-6.22h1.53v.91a2.55,2.55,0,0,1,3-.86,1.67,1.67,0,0,1,.68.5,1.81,1.81,0,0,1,.32.69,5.14,5.14,0,0,1,.09,1.11Z"/><path d="M30.88,198.48a3.37,3.37,0,0,1,.4-1.59,2.78,2.78,0,0,1,1.15-1.17,3.4,3.4,0,0,1,1.66-.4,3.11,3.11,0,0,1,2.31.92,3.17,3.17,0,0,1,.9,2.32,3.21,3.21,0,0,1-.91,2.34,3.08,3.08,0,0,1-2.29.93,3.61,3.61,0,0,1-1.63-.39,2.65,2.65,0,0,1-1.18-1.13A3.78,3.78,0,0,1,30.88,198.48Zm1.69.09A2.06,2.06,0,0,0,33,200a1.44,1.44,0,0,0,2.17,0,2.09,2.09,0,0,0,.44-1.43,2.05,2.05,0,0,0-.44-1.41,1.44,1.44,0,0,0-2.17,0A2.06,2.06,0,0,0,32.57,198.57Z"/><path d="M41.44,195.45v1.31H40.32v2.51a6.24,6.24,0,0,0,0,.89.36.36,0,0,0,.15.21.46.46,0,0,0,.28.08,2.13,2.13,0,0,0,.66-.16l.14,1.28a3.27,3.27,0,0,1-1.3.25,2.06,2.06,0,0,1-.8-.15,1.17,1.17,0,0,1-.52-.39,1.53,1.53,0,0,1-.23-.64,8,8,0,0,1-.05-1.16v-2.71h-.76v-1.31h.76v-1.24l1.65-1v2.2Z"/><path d="M51.35,197.29l-1.62.29a1.18,1.18,0,0,0-.37-.73,1.12,1.12,0,0,0-.75-.25,1.23,1.23,0,0,0-1,.42,2.18,2.18,0,0,0-.37,1.42,2.52,2.52,0,0,0,.37,1.56,1.22,1.22,0,0,0,1,.46,1.11,1.11,0,0,0,.77-.27,1.6,1.6,0,0,0,.42-.92l1.62.28a2.87,2.87,0,0,1-1,1.68,3,3,0,0,1-1.92.57,2.85,2.85,0,0,1-2.18-.86,3.93,3.93,0,0,1,0-4.78,2.89,2.89,0,0,1,2.2-.86,3,3,0,0,1,1.81.49A2.71,2.71,0,0,1,51.35,197.29Z"/><path d="M52.21,198.48a3.37,3.37,0,0,1,.4-1.59,2.78,2.78,0,0,1,1.15-1.17,3.4,3.4,0,0,1,1.66-.4,3.11,3.11,0,0,1,2.31.92,3.17,3.17,0,0,1,.9,2.32,3.21,3.21,0,0,1-.91,2.34,3.08,3.08,0,0,1-2.29.93,3.61,3.61,0,0,1-1.63-.39,2.65,2.65,0,0,1-1.18-1.13A3.78,3.78,0,0,1,52.21,198.48Zm1.69.09a2.06,2.06,0,0,0,.44,1.42,1.44,1.44,0,0,0,2.17,0,2.09,2.09,0,0,0,.44-1.43,2.05,2.05,0,0,0-.44-1.41,1.44,1.44,0,0,0-2.17,0A2.06,2.06,0,0,0,53.9,198.57Z"/><path d="M65.58,201.68H63.94V198.5a4.91,4.91,0,0,0-.11-1.3.91.91,0,0,0-.34-.46,1,1,0,0,0-.57-.16,1.32,1.32,0,0,0-.77.23,1.18,1.18,0,0,0-.47.62,5.37,5.37,0,0,0-.13,1.43v2.82H59.91v-6.22h1.53v.91a2.55,2.55,0,0,1,3-.86,1.67,1.67,0,0,1,.68.5,1.81,1.81,0,0,1,.32.69,5.14,5.14,0,0,1,.09,1.11Z"/><path d="M72.92,201.68H71.27V198.5a4.91,4.91,0,0,0-.11-1.3.91.91,0,0,0-.34-.46,1,1,0,0,0-.57-.16,1.32,1.32,0,0,0-.77.23,1.18,1.18,0,0,0-.47.62,5.37,5.37,0,0,0-.13,1.43v2.82H67.24v-6.22h1.53v.91a2.55,2.55,0,0,1,3-.86,1.67,1.67,0,0,1,.68.5,1.81,1.81,0,0,1,.32.69,5.14,5.14,0,0,1,.09,1.11Z"/><path d="M78.19,199.7l1.64.28a2.69,2.69,0,0,1-1,1.37,2.93,2.93,0,0,1-1.71.47,2.78,2.78,0,0,1-2.4-1.06,3.56,3.56,0,0,1-.62-2.14,3.44,3.44,0,0,1,.81-2.42,2.66,2.66,0,0,1,2-.88,2.76,2.76,0,0,1,2.19.92,4.06,4.06,0,0,1,.77,2.81H75.79a1.67,1.67,0,0,0,.4,1.14,1.25,1.25,0,0,0,.95.41,1,1,0,0,0,.65-.21A1.3,1.3,0,0,0,78.19,199.7Zm.09-1.66a1.59,1.59,0,0,0-.37-1.09,1.19,1.19,0,0,0-1.75,0,1.52,1.52,0,0,0-.35,1.07Z"/><path d="M86.68,197.29l-1.62.29a1.18,1.18,0,0,0-.37-.73,1.12,1.12,0,0,0-.75-.25,1.23,1.23,0,0,0-1,.42,2.18,2.18,0,0,0-.37,1.42A2.52,2.52,0,0,0,83,200a1.22,1.22,0,0,0,1,.46,1.11,1.11,0,0,0,.77-.27,1.6,1.6,0,0,0,.42-.92l1.62.28a2.87,2.87,0,0,1-1,1.68,3,3,0,0,1-1.92.57,2.85,2.85,0,0,1-2.18-.86,3.93,3.93,0,0,1,0-4.78,2.89,2.89,0,0,1,2.2-.86,3,3,0,0,1,1.81.49A2.71,2.71,0,0,1,86.68,197.29Z"/><path d="M90.77,195.45v1.31H89.65v2.51a6.24,6.24,0,0,0,0,.89.36.36,0,0,0,.15.21.46.46,0,0,0,.28.08,2.13,2.13,0,0,0,.66-.16l.14,1.28a3.27,3.27,0,0,1-1.3.25,2.06,2.06,0,0,1-.8-.15,1.17,1.17,0,0,1-.52-.39,1.53,1.53,0,0,1-.23-.64,8,8,0,0,1-.05-1.16v-2.71h-.76v-1.31H88v-1.24l1.65-1v2.2Z"/><path d="M96.48,197.35,95,197.08a2.33,2.33,0,0,1,.87-1.34,3.17,3.17,0,0,1,1.83-.43,3.94,3.94,0,0,1,1.64.26,1.64,1.64,0,0,1,.76.66,3.4,3.4,0,0,1,.22,1.47l0,1.92a6.67,6.67,0,0,0,.08,1.21,3.53,3.53,0,0,0,.3.83H99q-.06-.16-.16-.49l-.06-.19a3,3,0,0,1-.9.62,2.58,2.58,0,0,1-1,.21,2.12,2.12,0,0,1-1.51-.52,1.73,1.73,0,0,1-.55-1.32,1.77,1.77,0,0,1,.25-.94,1.65,1.65,0,0,1,.71-.63,5.52,5.52,0,0,1,1.31-.38,9,9,0,0,0,1.6-.4v-.16a.85.85,0,0,0-.23-.68,1.4,1.4,0,0,0-.88-.2,1.18,1.18,0,0,0-.69.17A1.2,1.2,0,0,0,96.48,197.35Zm2.2,1.34a10.29,10.29,0,0,1-1,.25,3,3,0,0,0-.9.29.69.69,0,0,0-.32.58.81.81,0,0,0,.26.6.9.9,0,0,0,.66.25,1.43,1.43,0,0,0,.85-.29,1,1,0,0,0,.39-.54,3.25,3.25,0,0,0,.06-.8Z"/><path d="M107.58,201.68h-1.65V198.5a4.91,4.91,0,0,0-.11-1.3.91.91,0,0,0-.34-.46,1,1,0,0,0-.57-.16,1.32,1.32,0,0,0-.77.23,1.18,1.18,0,0,0-.47.62,5.37,5.37,0,0,0-.13,1.43v2.82h-1.65v-6.22h1.53v.91a2.55,2.55,0,0,1,3-.86,1.67,1.67,0,0,1,.68.5,1.81,1.81,0,0,1,.32.69,5.14,5.14,0,0,1,.09,1.11Z"/><path d="M112.65,201.68v-8.52h1.73v7.07h4.31v1.45Z"/><path d="M119.92,201.68V200h1.65v1.65Z"/><path d="M123.26,201.68v-8.59H126a10.09,10.09,0,0,1,2.06.13,2.25,2.25,0,0,1,1.24.84,2.67,2.67,0,0,1,.5,1.67,2.8,2.8,0,0,1-.29,1.33,2.36,2.36,0,0,1-.73.85,2.51,2.51,0,0,1-.9.41,9.9,9.9,0,0,1-1.8.12H125v3.24Zm1.73-7.14V197h.95a4.48,4.48,0,0,0,1.37-.13,1.14,1.14,0,0,0,.54-.42,1.15,1.15,0,0,0,.2-.67,1.11,1.11,0,0,0-.28-.77,1.2,1.2,0,0,0-.7-.38,8.34,8.34,0,0,0-1.25-.06Z"/><path d="M131.26,201.68V200h1.65v1.65Z"/><path d="M137.77,202.09l1.88.23a.64.64,0,0,0,.22.45,1.24,1.24,0,0,0,.74.18,1.92,1.92,0,0,0,1-.19.8.8,0,0,0,.33-.42,2.5,2.5,0,0,0,.08-.76v-.91a2.23,2.23,0,0,1-1.86,1,2.29,2.29,0,0,1-2-1.06,3.6,3.6,0,0,1-.57-2.09,3.43,3.43,0,0,1,.75-2.39,2.43,2.43,0,0,1,1.87-.83,2.28,2.28,0,0,1,1.9,1v-.87h1.54V201a5.56,5.56,0,0,1-.18,1.65,2,2,0,0,1-.51.86,2.25,2.25,0,0,1-.87.49,4.62,4.62,0,0,1-1.39.18,3.59,3.59,0,0,1-2.24-.54,1.7,1.7,0,0,1-.66-1.37Q137.77,202.2,137.77,202.09Zm1.47-3.65a2.24,2.24,0,0,0,.38,1.45,1.18,1.18,0,0,0,.95.46,1.31,1.31,0,0,0,1-.47,2.06,2.06,0,0,0,.42-1.4,2.18,2.18,0,0,0-.4-1.44,1.27,1.27,0,0,0-1-.47,1.21,1.21,0,0,0-1,.46A2.16,2.16,0,0,0,139.24,198.44Z"/><path d="M146.48,197.35l-1.49-.27a2.33,2.33,0,0,1,.87-1.34,3.17,3.17,0,0,1,1.83-.43,3.94,3.94,0,0,1,1.64.26,1.64,1.64,0,0,1,.76.66,3.4,3.4,0,0,1,.22,1.47l0,1.92a6.65,6.65,0,0,0,.08,1.21,3.53,3.53,0,0,0,.29.83H149q-.06-.16-.16-.49l-.06-.19a3,3,0,0,1-.9.62,2.58,2.58,0,0,1-1,.21,2.12,2.12,0,0,1-1.51-.52,1.73,1.73,0,0,1-.55-1.32,1.77,1.77,0,0,1,.25-.94,1.65,1.65,0,0,1,.71-.63,5.51,5.51,0,0,1,1.31-.38,9,9,0,0,0,1.6-.4v-.16a.85.85,0,0,0-.23-.68,1.4,1.4,0,0,0-.88-.2,1.18,1.18,0,0,0-.69.17A1.2,1.2,0,0,0,146.48,197.35Zm2.2,1.34a10.29,10.29,0,0,1-1,.25,3,3,0,0,0-.9.29.69.69,0,0,0-.32.58.81.81,0,0,0,.26.6.9.9,0,0,0,.66.25,1.43,1.43,0,0,0,.85-.29,1,1,0,0,0,.39-.54,3.25,3.25,0,0,0,.06-.8Z"/><path d="M151.35,199.9l1.65-.25a1.21,1.21,0,0,0,.43.73,1.45,1.45,0,0,0,.9.25,1.63,1.63,0,0,0,1-.23.52.52,0,0,0,.22-.44.43.43,0,0,0-.12-.31,1.31,1.31,0,0,0-.55-.22,8.88,8.88,0,0,1-2.53-.8,1.6,1.6,0,0,1-.74-1.4,1.73,1.73,0,0,1,.64-1.36,3,3,0,0,1,2-.55,3.46,3.46,0,0,1,1.9.42,2.13,2.13,0,0,1,.86,1.23l-1.55.29a1,1,0,0,0-.38-.56,1.39,1.39,0,0,0-.79-.19,1.79,1.79,0,0,0-.93.18.39.39,0,0,0-.19.33.36.36,0,0,0,.16.3,6.19,6.19,0,0,0,1.54.46,4.57,4.57,0,0,1,1.84.73,1.52,1.52,0,0,1,.52,1.22,1.88,1.88,0,0,1-.71,1.47,3.16,3.16,0,0,1-2.12.62,3.47,3.47,0,0,1-2-.52A2.38,2.38,0,0,1,151.35,199.9Z"/><path d="M163.1,201.68l-2-6.22h1.6l1.17,4.08,1.07-4.08h1.59l1,4.08,1.19-4.08h1.62l-2,6.22h-1.58l-1.07-4-1.05,4Z"/><path d="M172.5,197.35l-1.49-.27a2.33,2.33,0,0,1,.87-1.34,3.17,3.17,0,0,1,1.83-.43,3.94,3.94,0,0,1,1.64.26,1.64,1.64,0,0,1,.76.66,3.4,3.4,0,0,1,.22,1.47l0,1.92a6.65,6.65,0,0,0,.08,1.21,3.53,3.53,0,0,0,.29.83H175q-.06-.16-.16-.49l-.06-.19a3,3,0,0,1-.9.62,2.58,2.58,0,0,1-1,.21,2.12,2.12,0,0,1-1.51-.52,1.73,1.73,0,0,1-.55-1.32,1.77,1.77,0,0,1,.25-.94,1.65,1.65,0,0,1,.71-.63,5.51,5.51,0,0,1,1.31-.38,9,9,0,0,0,1.6-.4v-.16a.85.85,0,0,0-.23-.68,1.4,1.4,0,0,0-.88-.2,1.18,1.18,0,0,0-.69.17A1.2,1.2,0,0,0,172.5,197.35Zm2.2,1.34a10.29,10.29,0,0,1-1,.25,3,3,0,0,0-.9.29.69.69,0,0,0-.32.58.81.81,0,0,0,.26.6.9.9,0,0,0,.66.25,1.43,1.43,0,0,0,.85-.29,1,1,0,0,0,.39-.54,3.25,3.25,0,0,0,.06-.8Z"/><path d="M180.8,195.45v1.31h-1.12v2.51a6.16,6.16,0,0,0,0,.89.36.36,0,0,0,.15.21.46.46,0,0,0,.28.08,2.13,2.13,0,0,0,.66-.16l.14,1.28a3.27,3.27,0,0,1-1.3.25,2.06,2.06,0,0,1-.8-.15,1.17,1.17,0,0,1-.52-.39,1.53,1.53,0,0,1-.23-.64,8,8,0,0,1-.05-1.16v-2.71h-.76v-1.31H178v-1.24l1.65-1v2.2Z"/><path d="M185.54,199.7l1.64.28a2.69,2.69,0,0,1-1,1.37,2.94,2.94,0,0,1-1.71.47,2.78,2.78,0,0,1-2.4-1.06,3.56,3.56,0,0,1-.62-2.14,3.44,3.44,0,0,1,.81-2.42,2.66,2.66,0,0,1,2-.88,2.76,2.76,0,0,1,2.19.92,4.06,4.06,0,0,1,.77,2.81h-4.12a1.67,1.67,0,0,0,.4,1.14,1.25,1.25,0,0,0,.95.41,1,1,0,0,0,.65-.21A1.3,1.3,0,0,0,185.54,199.7Zm.09-1.66a1.59,1.59,0,0,0-.37-1.09,1.19,1.19,0,0,0-1.75,0,1.52,1.52,0,0,0-.35,1.07Z"/><path d="M190.19,201.68h-1.65v-6.22h1.53v.88a2.66,2.66,0,0,1,.71-.83,1.3,1.3,0,0,1,.71-.2,2.09,2.09,0,0,1,1.08.31l-.51,1.44a1.44,1.44,0,0,0-.77-.27.91.91,0,0,0-.59.19,1.3,1.3,0,0,0-.38.69,9.76,9.76,0,0,0-.14,2.09Z"/><path d="M198.26,193.09v3.16a2.47,2.47,0,0,1,2.93-.72,1.68,1.68,0,0,1,.69.54,2,2,0,0,1,.32.73,6.51,6.51,0,0,1,.08,1.24v3.65h-1.65v-3.29a4.87,4.87,0,0,0-.09-1.24.81.81,0,0,0-.33-.42,1.07,1.07,0,0,0-.6-.16,1.36,1.36,0,0,0-.73.2,1.15,1.15,0,0,0-.47.6,3.58,3.58,0,0,0-.15,1.19v3.12h-1.65v-8.59Z"/><path d="M207.55,199.7l1.64.28a2.69,2.69,0,0,1-1,1.37,2.94,2.94,0,0,1-1.71.47,2.78,2.78,0,0,1-2.4-1.06,3.56,3.56,0,0,1-.62-2.14,3.44,3.44,0,0,1,.81-2.42,2.66,2.66,0,0,1,2-.88,2.76,2.76,0,0,1,2.19.92,4.06,4.06,0,0,1,.77,2.81h-4.12a1.67,1.67,0,0,0,.4,1.14,1.25,1.25,0,0,0,.95.41,1,1,0,0,0,.65-.21A1.3,1.3,0,0,0,207.55,199.7Zm.09-1.66a1.59,1.59,0,0,0-.37-1.09,1.19,1.19,0,0,0-1.75,0,1.52,1.52,0,0,0-.35,1.07Z"/><path d="M211.85,197.35l-1.49-.27a2.33,2.33,0,0,1,.87-1.34,3.17,3.17,0,0,1,1.83-.43,3.94,3.94,0,0,1,1.64.26,1.64,1.64,0,0,1,.76.66,3.4,3.4,0,0,1,.22,1.47l0,1.92a6.65,6.65,0,0,0,.08,1.21,3.53,3.53,0,0,0,.29.83H214.4q-.06-.16-.16-.49l-.06-.19a3,3,0,0,1-.9.62,2.58,2.58,0,0,1-1,.21,2.12,2.12,0,0,1-1.51-.52,1.73,1.73,0,0,1-.55-1.32,1.77,1.77,0,0,1,.25-.94,1.65,1.65,0,0,1,.71-.63,5.51,5.51,0,0,1,1.31-.38,9,9,0,0,0,1.6-.4v-.16a.85.85,0,0,0-.23-.68,1.4,1.4,0,0,0-.88-.2,1.18,1.18,0,0,0-.69.17A1.2,1.2,0,0,0,211.85,197.35Zm2.2,1.34a10.29,10.29,0,0,1-1,.25,3,3,0,0,0-.9.29.69.69,0,0,0-.32.58.81.81,0,0,0,.26.6.9.9,0,0,0,.66.25,1.43,1.43,0,0,0,.85-.29,1,1,0,0,0,.39-.54,3.25,3.25,0,0,0,.06-.8Z"/><path d="M220.15,195.45v1.31H219v2.51a6.16,6.16,0,0,0,0,.89.36.36,0,0,0,.15.21.46.46,0,0,0,.28.08,2.13,2.13,0,0,0,.66-.16l.14,1.28a3.27,3.27,0,0,1-1.3.25,2.06,2.06,0,0,1-.8-.15,1.17,1.17,0,0,1-.52-.39,1.53,1.53,0,0,1-.23-.64,8,8,0,0,1-.05-1.16v-2.71h-.76v-1.31h.76v-1.24l1.65-1v2.2Z"/><path d="M224.89,199.7l1.64.28a2.69,2.69,0,0,1-1,1.37,2.94,2.94,0,0,1-1.71.47,2.78,2.78,0,0,1-2.4-1.06,3.56,3.56,0,0,1-.62-2.14,3.44,3.44,0,0,1,.81-2.42,2.66,2.66,0,0,1,2-.88,2.76,2.76,0,0,1,2.19.92,4.06,4.06,0,0,1,.77,2.81H222.5a1.67,1.67,0,0,0,.4,1.14,1.25,1.25,0,0,0,.95.41,1,1,0,0,0,.65-.21A1.3,1.3,0,0,0,224.89,199.7ZM225,198a1.59,1.59,0,0,0-.37-1.09,1.19,1.19,0,0,0-1.75,0,1.52,1.52,0,0,0-.35,1.07Z"/><path d="M229.54,201.68h-1.65v-6.22h1.53v.88a2.66,2.66,0,0,1,.71-.83,1.3,1.3,0,0,1,.71-.2,2.09,2.09,0,0,1,1.08.31l-.51,1.44a1.44,1.44,0,0,0-.77-.27.91.91,0,0,0-.59.19,1.3,1.3,0,0,0-.38.69,9.76,9.76,0,0,0-.14,2.09Z"/><path d="M238.82,195.45v1.31H237.7v2.51a6.16,6.16,0,0,0,0,.89.36.36,0,0,0,.15.21.46.46,0,0,0,.28.08,2.13,2.13,0,0,0,.66-.16l.14,1.28a3.27,3.27,0,0,1-1.3.25,2.06,2.06,0,0,1-.8-.15,1.17,1.17,0,0,1-.52-.39,1.53,1.53,0,0,1-.23-.64,8,8,0,0,1-.05-1.16v-2.71h-.76v-1.31H236v-1.24l1.65-1v2.2Z"/><path d="M239.58,198.48a3.37,3.37,0,0,1,.4-1.59,2.78,2.78,0,0,1,1.15-1.17,3.4,3.4,0,0,1,1.65-.4,3.11,3.11,0,0,1,2.31.92,3.17,3.17,0,0,1,.9,2.32,3.21,3.21,0,0,1-.91,2.34,3.08,3.08,0,0,1-2.29.93,3.61,3.61,0,0,1-1.63-.39A2.66,2.66,0,0,1,240,200.3,3.78,3.78,0,0,1,239.58,198.48Zm1.69.09a2.06,2.06,0,0,0,.44,1.42,1.44,1.44,0,0,0,2.17,0,2.09,2.09,0,0,0,.44-1.43,2.05,2.05,0,0,0-.44-1.41,1.44,1.44,0,0,0-2.17,0A2.06,2.06,0,0,0,241.27,198.57Z"/><path d="M5.83,211.75l-1.49-.27a2.33,2.33,0,0,1,.87-1.34A3.17,3.17,0,0,1,7,209.71a3.94,3.94,0,0,1,1.64.26,1.64,1.64,0,0,1,.76.66,3.4,3.4,0,0,1,.22,1.47l0,1.92a6.67,6.67,0,0,0,.08,1.21,3.53,3.53,0,0,0,.3.83H8.38q-.06-.16-.16-.49l-.06-.19a3,3,0,0,1-.9.62,2.58,2.58,0,0,1-1,.21,2.12,2.12,0,0,1-1.51-.52,1.73,1.73,0,0,1-.55-1.32,1.77,1.77,0,0,1,.25-.94,1.65,1.65,0,0,1,.71-.63,5.52,5.52,0,0,1,1.31-.38A9,9,0,0,0,8,212v-.16a.85.85,0,0,0-.23-.68,1.4,1.4,0,0,0-.88-.2,1.18,1.18,0,0,0-.69.17A1.2,1.2,0,0,0,5.83,211.75ZM8,213.09a10.29,10.29,0,0,1-1,.25,3,3,0,0,0-.9.29.69.69,0,0,0-.32.58.81.81,0,0,0,.26.6.9.9,0,0,0,.66.25,1.43,1.43,0,0,0,.85-.29,1,1,0,0,0,.39-.54,3.25,3.25,0,0,0,.06-.8Z"/><path d="M20.27,216.08H18.62V212.9a4.91,4.91,0,0,0-.11-1.3.91.91,0,0,0-.34-.46,1,1,0,0,0-.57-.16,1.32,1.32,0,0,0-.77.23,1.18,1.18,0,0,0-.47.62,5.37,5.37,0,0,0-.13,1.43v2.82H14.6v-6.22h1.53v.91a2.55,2.55,0,0,1,3-.86,1.67,1.67,0,0,1,.68.5,1.81,1.81,0,0,1,.32.69,5.14,5.14,0,0,1,.09,1.11Z"/><path d="M23.17,211.75l-1.49-.27a2.33,2.33,0,0,1,.87-1.34,3.17,3.17,0,0,1,1.83-.43A3.94,3.94,0,0,1,26,210a1.64,1.64,0,0,1,.76.66,3.4,3.4,0,0,1,.22,1.47L27,214a6.67,6.67,0,0,0,.08,1.21,3.53,3.53,0,0,0,.3.83H25.72q-.06-.16-.16-.49l-.06-.19a3,3,0,0,1-.9.62,2.58,2.58,0,0,1-1,.21,2.12,2.12,0,0,1-1.51-.52,1.73,1.73,0,0,1-.55-1.32,1.77,1.77,0,0,1,.25-.94,1.65,1.65,0,0,1,.71-.63,5.52,5.52,0,0,1,1.31-.38,9,9,0,0,0,1.6-.4v-.16a.85.85,0,0,0-.23-.68,1.4,1.4,0,0,0-.88-.2,1.18,1.18,0,0,0-.69.17A1.2,1.2,0,0,0,23.17,211.75Zm2.2,1.34a10.29,10.29,0,0,1-1,.25,3,3,0,0,0-.9.29.69.69,0,0,0-.32.58.81.81,0,0,0,.26.6.9.9,0,0,0,.66.25,1.43,1.43,0,0,0,.85-.29,1,1,0,0,0,.39-.54,3.25,3.25,0,0,0,.06-.8Z"/><path d="M31.47,209.85v1.31H30.34v2.51a6.24,6.24,0,0,0,0,.89.36.36,0,0,0,.15.21.46.46,0,0,0,.28.08,2.13,2.13,0,0,0,.66-.16L31.6,216a3.27,3.27,0,0,1-1.3.25,2.06,2.06,0,0,1-.8-.15,1.17,1.17,0,0,1-.52-.39,1.53,1.53,0,0,1-.23-.64,8,8,0,0,1-.05-1.16v-2.71h-.76v-1.31h.76v-1.24l1.65-1v2.2Z"/><path d="M36.7,216.08v-.93a2.4,2.4,0,0,1-.89.79,2.5,2.5,0,0,1-1.17.29,2.29,2.29,0,0,1-1.12-.28,1.63,1.63,0,0,1-.72-.77,3.45,3.45,0,0,1-.22-1.38v-3.94h1.65v2.86a7.93,7.93,0,0,0,.09,1.61.88.88,0,0,0,.33.47,1,1,0,0,0,.61.17,1.3,1.3,0,0,0,.76-.23,1.18,1.18,0,0,0,.46-.57,6.67,6.67,0,0,0,.12-1.68v-2.62h1.65v6.22Z"/><path d="M41.51,216.08H39.87v-6.22H41.4v.88a2.66,2.66,0,0,1,.71-.83,1.3,1.3,0,0,1,.71-.2,2.09,2.09,0,0,1,1.08.31l-.51,1.44a1.44,1.44,0,0,0-.77-.27.91.91,0,0,0-.59.19,1.3,1.3,0,0,0-.38.69,9.78,9.78,0,0,0-.14,2.09Z"/><path d="M45.84,211.75l-1.49-.27a2.33,2.33,0,0,1,.87-1.34,3.17,3.17,0,0,1,1.83-.43,3.94,3.94,0,0,1,1.64.26,1.64,1.64,0,0,1,.76.66,3.4,3.4,0,0,1,.22,1.47l0,1.92a6.67,6.67,0,0,0,.08,1.21,3.53,3.53,0,0,0,.3.83H48.39q-.06-.16-.16-.49l-.06-.19a3,3,0,0,1-.9.62,2.58,2.58,0,0,1-1,.21,2.12,2.12,0,0,1-1.51-.52,1.73,1.73,0,0,1-.55-1.32,1.77,1.77,0,0,1,.25-.94,1.65,1.65,0,0,1,.71-.63,5.52,5.52,0,0,1,1.31-.38A9,9,0,0,0,48,212v-.16a.85.85,0,0,0-.23-.68,1.4,1.4,0,0,0-.88-.2,1.18,1.18,0,0,0-.69.17A1.2,1.2,0,0,0,45.84,211.75Zm2.2,1.34a10.29,10.29,0,0,1-1,.25,3,3,0,0,0-.9.29.69.69,0,0,0-.32.58.81.81,0,0,0,.26.6.9.9,0,0,0,.66.25,1.43,1.43,0,0,0,.85-.29,1,1,0,0,0,.39-.54,3.25,3.25,0,0,0,.06-.8Z"/><path d="M51.28,216.08v-8.59h1.65v8.59Z"/><path d="M57.8,216.49l1.88.23a.64.64,0,0,0,.22.45,1.24,1.24,0,0,0,.74.18,1.92,1.92,0,0,0,1-.19.8.8,0,0,0,.33-.42A2.5,2.5,0,0,0,62,216v-.91a2.23,2.23,0,0,1-1.86,1,2.29,2.29,0,0,1-2-1.06,3.6,3.6,0,0,1-.57-2.09,3.43,3.43,0,0,1,.75-2.39,2.43,2.43,0,0,1,1.87-.83,2.28,2.28,0,0,1,1.9,1v-.87h1.54v5.58a5.56,5.56,0,0,1-.18,1.65,2,2,0,0,1-.51.86,2.26,2.26,0,0,1-.88.49,4.61,4.61,0,0,1-1.39.18,3.59,3.59,0,0,1-2.24-.54,1.7,1.7,0,0,1-.66-1.37Q57.79,216.6,57.8,216.49Zm1.47-3.65a2.24,2.24,0,0,0,.38,1.45,1.19,1.19,0,0,0,.95.46,1.31,1.31,0,0,0,1-.47,2.06,2.06,0,0,0,.42-1.4,2.18,2.18,0,0,0-.4-1.44,1.27,1.27,0,0,0-1-.47,1.22,1.22,0,0,0-1,.46A2.16,2.16,0,0,0,59.27,212.84Z"/><path d="M66.51,211.75,65,211.48a2.33,2.33,0,0,1,.87-1.34,3.17,3.17,0,0,1,1.83-.43,3.94,3.94,0,0,1,1.64.26,1.64,1.64,0,0,1,.76.66,3.4,3.4,0,0,1,.22,1.47l0,1.92a6.67,6.67,0,0,0,.08,1.21,3.53,3.53,0,0,0,.3.83H69.06q-.06-.16-.16-.49l-.06-.19a3,3,0,0,1-.9.62,2.58,2.58,0,0,1-1,.21,2.12,2.12,0,0,1-1.51-.52,1.73,1.73,0,0,1-.55-1.32,1.77,1.77,0,0,1,.25-.94,1.65,1.65,0,0,1,.71-.63,5.52,5.52,0,0,1,1.31-.38,9,9,0,0,0,1.6-.4v-.16a.85.85,0,0,0-.23-.68,1.4,1.4,0,0,0-.88-.2,1.18,1.18,0,0,0-.69.17A1.2,1.2,0,0,0,66.51,211.75Zm2.2,1.34a10.29,10.29,0,0,1-1,.25,3,3,0,0,0-.9.29.69.69,0,0,0-.32.58.81.81,0,0,0,.26.6.9.9,0,0,0,.66.25,1.43,1.43,0,0,0,.85-.29,1,1,0,0,0,.39-.54,3.25,3.25,0,0,0,.06-.8Z"/><path d="M71.37,214.3,73,214a1.21,1.21,0,0,0,.43.73,1.45,1.45,0,0,0,.9.25,1.63,1.63,0,0,0,1-.23.52.52,0,0,0,.22-.44.43.43,0,0,0-.12-.31,1.31,1.31,0,0,0-.55-.22,8.88,8.88,0,0,1-2.53-.8,1.6,1.6,0,0,1-.74-1.4,1.73,1.73,0,0,1,.64-1.36,3,3,0,0,1,2-.55,3.46,3.46,0,0,1,1.9.42,2.13,2.13,0,0,1,.86,1.23l-1.55.29a1,1,0,0,0-.38-.56,1.38,1.38,0,0,0-.79-.19,1.79,1.79,0,0,0-.93.18.39.39,0,0,0-.19.33.36.36,0,0,0,.16.3,6.18,6.18,0,0,0,1.54.46,4.58,4.58,0,0,1,1.84.73,1.52,1.52,0,0,1,.52,1.22,1.88,1.88,0,0,1-.71,1.47,3.16,3.16,0,0,1-2.12.62,3.47,3.47,0,0,1-2-.52A2.38,2.38,0,0,1,71.37,214.3Z"/><path d="M81.38,214.3,83,214a1.21,1.21,0,0,0,.43.73,1.45,1.45,0,0,0,.9.25,1.63,1.63,0,0,0,1-.23.52.52,0,0,0,.22-.44.43.43,0,0,0-.12-.31,1.31,1.31,0,0,0-.55-.22,8.88,8.88,0,0,1-2.53-.8,1.6,1.6,0,0,1-.74-1.4,1.73,1.73,0,0,1,.64-1.36,3,3,0,0,1,2-.55,3.46,3.46,0,0,1,1.9.42,2.13,2.13,0,0,1,.86,1.23l-1.55.29a1,1,0,0,0-.38-.56,1.38,1.38,0,0,0-.79-.19,1.79,1.79,0,0,0-.93.18.39.39,0,0,0-.19.33.36.36,0,0,0,.16.3,6.18,6.18,0,0,0,1.54.46,4.58,4.58,0,0,1,1.84.73,1.52,1.52,0,0,1,.52,1.22,1.88,1.88,0,0,1-.71,1.47,3.16,3.16,0,0,1-2.12.62,3.47,3.47,0,0,1-2-.52A2.38,2.38,0,0,1,81.38,214.3Z"/><path d="M92.73,216.08v-.93a2.4,2.4,0,0,1-.89.79,2.5,2.5,0,0,1-1.17.29,2.29,2.29,0,0,1-1.12-.28,1.63,1.63,0,0,1-.72-.77,3.45,3.45,0,0,1-.22-1.38v-3.94h1.65v2.86a7.93,7.93,0,0,0,.09,1.61.88.88,0,0,0,.33.47,1,1,0,0,0,.61.17,1.3,1.3,0,0,0,.76-.23,1.18,1.18,0,0,0,.46-.57,6.67,6.67,0,0,0,.12-1.68v-2.62h1.65v6.22Z"/><path d="M95.92,209.85h1.54v.91a2.3,2.3,0,0,1,.81-.76,2.23,2.23,0,0,1,1.13-.29,2.37,2.37,0,0,1,1.84.85,3.44,3.44,0,0,1,.76,2.37,3.54,3.54,0,0,1-.76,2.42,2.37,2.37,0,0,1-1.85.86,2.1,2.1,0,0,1-.93-.21,3.15,3.15,0,0,1-.88-.7v3.13H95.92Zm1.63,3a2.4,2.4,0,0,0,.42,1.55,1.27,1.27,0,0,0,1,.5,1.19,1.19,0,0,0,1-.46,2.37,2.37,0,0,0,.38-1.51,2.25,2.25,0,0,0-.39-1.45,1.21,1.21,0,0,0-1-.47,1.26,1.26,0,0,0-1,.47A2.07,2.07,0,0,0,97.55,212.86Z"/><path d="M103.25,209.85h1.54v.91a2.3,2.3,0,0,1,.81-.76,2.23,2.23,0,0,1,1.13-.29,2.37,2.37,0,0,1,1.84.85,3.44,3.44,0,0,1,.76,2.37,3.54,3.54,0,0,1-.76,2.42,2.37,2.37,0,0,1-1.85.86,2.1,2.1,0,0,1-.93-.21,3.15,3.15,0,0,1-.88-.7v3.13h-1.65Zm1.63,3a2.4,2.4,0,0,0,.42,1.55,1.27,1.27,0,0,0,1,.5,1.19,1.19,0,0,0,1-.46,2.37,2.37,0,0,0,.38-1.51,2.25,2.25,0,0,0-.39-1.45,1.21,1.21,0,0,0-1-.47,1.26,1.26,0,0,0-1,.47A2.07,2.07,0,0,0,104.88,212.86Z"/><path d="M110.63,216.08v-8.59h1.65v8.59Z"/><path d="M113.18,209.85h1.75l1.49,4.42,1.45-4.42h1.71l-2.2,6-.39,1.08a4.42,4.42,0,0,1-.41.83,1.8,1.8,0,0,1-.45.47,2,2,0,0,1-.63.28,3.26,3.26,0,0,1-.84.1,4.36,4.36,0,0,1-.93-.1l-.15-1.29a3.64,3.64,0,0,0,.7.08,1,1,0,0,0,.85-.34,2.34,2.34,0,0,0,.42-.86Z"/><path d="M120.63,216.08v-1.65h1.65v1.65Z"/></svg>