<svg id="text" xmlns="http://www.w3.org/2000/svg" viewBox="0 0 243.7 130.34"><title>warning_blank</title><rect x="0.5" y="0.5" width="242.7" height="129.34" style="fill:none;stroke:#000"/><polyline points="99.61 27.13 242.79 27.13 242.79 0.67 99.61 0.67"/><path d="M231.29,16.4V13.77h6.62V20a8.32,8.32,0,0,1-2.8,1.69,10,10,0,0,1-3.71.73,8.18,8.18,0,0,1-4.16-1,6.48,6.48,0,0,1-2.66-2.94,9.7,9.7,0,0,1-.89-4.16,9.2,9.2,0,0,1,1-4.33A6.8,6.8,0,0,1,227.59,7a7.67,7.67,0,0,1,3.64-.78,7.13,7.13,0,0,1,4.42,1.22,5.53,5.53,0,0,1,2,3.37l-3,.58a3.32,3.32,0,0,0-1.21-1.82A3.57,3.57,0,0,0,231.23,9a4.11,4.11,0,0,0-3.2,1.31,5.6,5.6,0,0,0-1.19,3.89,6.22,6.22,0,0,0,1.2,4.17,4,4,0,0,0,3.15,1.39,5.19,5.19,0,0,0,1.93-.39,6.7,6.7,0,0,0,1.67-.94v-2m-25.9,5.74V6.53h3L218.11,17V6.53H221v15.6h-3.08L211.75,12V22.14Zm-6,0V6.53h3.07v15.6Zm-15.21,0V6.53h3L196.87,17V6.53h2.85v15.6h-3.08L190.52,12V22.14Zm-12.29-9h2.27a11.56,11.56,0,0,0,2.76-.19,1.66,1.66,0,0,0,.86-.66,2.09,2.09,0,0,0,.31-1.17,1.91,1.91,0,0,0-.41-1.27A1.88,1.88,0,0,0,180,9.23q-.37,0-2.24,0h-2.39Zm-3.07,9V6.53h6.46a10.76,10.76,0,0,1,3.54.42,3.51,3.51,0,0,1,1.77,1.49,4.58,4.58,0,0,1,.66,2.46,4.25,4.25,0,0,1-1,2.9,4.79,4.79,0,0,1-3,1.44,7.23,7.23,0,0,1,1.65,1.31,17.92,17.92,0,0,1,1.75,2.53l1.86,3H182.3l-2.22-3.4a21.53,21.53,0,0,0-1.62-2.29,2.39,2.39,0,0,0-.92-.65,5,5,0,0,0-1.55-.17h-.62v6.51ZM165,16l-2.09-5.79L160.86,16Zm5.65,6.17h-3.34L166,18.59h-6.08l-1.25,3.54h-3.26l5.92-15.6h3.25Zm-30.43,0-3.63-15.6h3.14L142,17.25l2.78-10.72h3.65l2.67,10.9,2.33-10.9h3.09l-3.69,15.6h-3.26l-3-11.66-3,11.66Zm-15-6.56a.56.56,0,0,1-.51.53h-.07a.51.51,0,0,1-.51-.53c-1.69-5.5-2.5-9.34.51-9.34S126.86,10.08,125.25,15.57Zm-.59,6a1.66,1.66,0,0,1,0-3.31h.07a1.66,1.66,0,0,1-.07,3.31ZM125.91,4.8a1.27,1.27,0,0,0-1.25-.9,1.17,1.17,0,0,0-1.17.9l-8.37,14.76c-1.1,1.88-.15,2.64,1,2.71h17.18c1.17-.08,2.06-.83,1-2.71Z" style="fill:#fff"/><path d="M154,38.25V30.74h1.52v3h3v-3H160v7.52h-1.52V35h-3v3.29Z"/><path d="M162.66,34.47l-1.31-.24a2,2,0,0,1,.76-1.17,2.78,2.78,0,0,1,1.6-.38,3.45,3.45,0,0,1,1.44.23,1.43,1.43,0,0,1,.66.58,3,3,0,0,1,.19,1.29v1.68a5.88,5.88,0,0,0,.07,1.06,3.11,3.11,0,0,0,.26.73h-1.43c0-.1-.08-.24-.14-.43l-.05-.17a2.59,2.59,0,0,1-.79.54,2.26,2.26,0,0,1-.9.18,1.85,1.85,0,0,1-1.32-.46,1.51,1.51,0,0,1-.49-1.15,1.54,1.54,0,0,1,.22-.82,1.44,1.44,0,0,1,.62-.55,4.81,4.81,0,0,1,1.15-.34,7.86,7.86,0,0,0,1.4-.35v-.14a.75.75,0,0,0-.21-.59,1.23,1.23,0,0,0-.77-.18,1,1,0,0,0-.6.15A1.05,1.05,0,0,0,162.66,34.47Zm1.93,1.17a8.85,8.85,0,0,1-.88.22,2.66,2.66,0,0,0-.78.25.6.6,0,0,0-.28.51.71.71,0,0,0,.23.52.79.79,0,0,0,.57.22,1.25,1.25,0,0,0,.74-.26.9.9,0,0,0,.34-.48,2.82,2.82,0,0,0,.06-.7Z"/><path d="M166.85,38.25V37.13l2-2.34q.5-.57.74-.82L169,34H167V32.81h4.5v1l-2.08,2.4-.73.79.74,0h2.23v1.27Z"/><path d="M173.75,34.47l-1.31-.24a2,2,0,0,1,.76-1.17,2.78,2.78,0,0,1,1.6-.38,3.45,3.45,0,0,1,1.44.23,1.44,1.44,0,0,1,.66.58,3,3,0,0,1,.19,1.29v1.68a5.77,5.77,0,0,0,.07,1.06,3.1,3.1,0,0,0,.26.73H176c0-.1-.08-.24-.14-.43l-.05-.17a2.58,2.58,0,0,1-.79.54,2.25,2.25,0,0,1-.9.18,1.86,1.86,0,0,1-1.33-.46,1.52,1.52,0,0,1-.49-1.15,1.55,1.55,0,0,1,.22-.82,1.44,1.44,0,0,1,.62-.55,4.82,4.82,0,0,1,1.15-.34,7.86,7.86,0,0,0,1.4-.35v-.14a.75.75,0,0,0-.21-.59,1.23,1.23,0,0,0-.77-.18,1,1,0,0,0-.6.15A1.05,1.05,0,0,0,173.75,34.47Zm1.93,1.17a8.92,8.92,0,0,1-.88.22,2.66,2.66,0,0,0-.79.25.6.6,0,0,0-.28.51.71.71,0,0,0,.23.52.79.79,0,0,0,.57.22,1.25,1.25,0,0,0,.74-.26.9.9,0,0,0,.34-.48,2.87,2.87,0,0,0,.06-.7Z"/><path d="M179.89,38.25h-1.44V32.81h1.34v.77a2.34,2.34,0,0,1,.62-.72,1.14,1.14,0,0,1,.62-.17A1.83,1.83,0,0,1,182,33l-.45,1.26a1.26,1.26,0,0,0-.68-.24.8.8,0,0,0-.51.17,1.14,1.14,0,0,0-.33.6,8.58,8.58,0,0,0-.12,1.83Z"/><path d="M187.59,38.25h-1.34v-.8a2.16,2.16,0,0,1-.79.69,2,2,0,0,1-.91.23,2.07,2.07,0,0,1-1.61-.76,3.08,3.08,0,0,1-.67-2.11,3,3,0,0,1,.65-2.1,2.12,2.12,0,0,1,1.64-.72,2,2,0,0,1,1.58.76V30.74h1.44Zm-3.84-2.84a2.5,2.5,0,0,0,.24,1.26,1.09,1.09,0,0,0,1,.56,1.06,1.06,0,0,0,.85-.42,2,2,0,0,0,.35-1.26,2.13,2.13,0,0,0-.34-1.35,1.07,1.07,0,0,0-.87-.41,1.08,1.08,0,0,0-.86.41A1.84,1.84,0,0,0,183.75,35.41Z"/><line x1="99.01" y1="42.21" x2="243.11" y2="42.21" style="stroke:#000"/><line x1="99.39" y1="129.84" x2="99.39" y2="0.57" style="stroke:#000"/></svg>