<svg id="Layer_2" data-name="Layer 2" xmlns="http://www.w3.org/2000/svg" viewBox="0 0 85.64 76.78"><title>warning symbol</title><path d="M10.35,73.38c-5.5,0-7.75-3.9-5-8.66L38,8.17c2.75-4.76,7.25-4.76,10,0L80.65,64.71c2.75,4.76.5,8.66-5,8.66Z" transform="translate(-0.18 -0.6)" style="fill:#fff"/><path d="M10.35,73.38c-5.5,0-7.75-3.9-5-8.66L38,8.17c2.75-4.76,7.25-4.76,10,0L80.65,64.71c2.75,4.76.5,8.66-5,8.66Z" transform="translate(-0.18 -0.6)" style="fill:none;stroke:#000;stroke-miterlimit:10;stroke-width:8px"/><path d="M40.7,54.13l-2-20.34V24.38H47v9.41l-2,20.34ZM39,64.47V56.78h7.68v7.68Z" transform="translate(-0.18 -0.6)"/></svg>