<svg xmlns="http://www.w3.org/2000/svg" viewBox="0 0 243.7 132.98"><title>warning_fre_and_explsn_hzrd_frm_gas_type_or_exssve_prssre</title><g id="Layer_1" data-name="Layer 1"><path d="M12.18,78.22c0-.1.09-3.27.1-3.36.15-1.71.82-6.42.91-7.7.64-8.29.14-10.52-.15-13.06,0-.44,1.78.84,4.7,5.38.88,1.37,2.09,3.85,2.54,4.31.64.65,1,.29,1-.92.18-3.58.83-6.33,1.19-9.09A67.9,67.9,0,0,0,23.4,42c0-3.2-.23-3.73,1.2-2.31a15.83,15.83,0,0,1,4,5.73c.78,1.82,1.31,7.37,2.08,1.91A28.15,28.15,0,0,0,31.24,42c.08-1.5.25-3.54.32-5.89.24-7.08,1.74-9.41,1.87-9.67.51-1,.92,1.82,1.38,3.58s.83,1.91,3.17,6.34c3.87,7.31,2.67,5.75,4.6,7.92,4.75,5.33,2.84,13.21,4.6,7.92.93-2.79,1.78-4.34,2.05-5.58,1.42-6.36,1.24-4.82,2.59-1.66,1,2.4,4,7.63,3.67,12.38a22.43,22.43,0,0,0,.2,6.56c1.08,8.32,1.22,6.46,2.74,2.25,3.63-10.08,2.89-7.32,3.47-6.07,1.67,3.57,2.7,5.91,3,8.46.94,7.2.64,7.63,0,11.45-1.38,9-4,10.2.39,7.78,1.86-1,2.74-3.31,2.54-1.86-1.91,14-2.49,14.53-7.83,20.64-5,5.75-11.48,7.37-18,8.15a55.08,55.08,0,0,1-17.74-.86,21.94,21.94,0,0,1-11.69-6c-5.1-5.41-5.39-8.95-5.85-16,0-.3,0-2.59,0-2.86,0-.73,0,.62,0-3.14,0-7.58,0-14.66-.37-16.4-.3-1.31,3,2.16,5.75,8.67Z"/><rect x="14.26" y="116.08" width="42.71" height="2.2" style="stroke:#000;stroke-width:0.25px"/><path d="M44.84,36.88a8.13,8.13,0,0,1,.86-2.8c.55-.72.21-.76,3.29-2.67a3.45,3.45,0,0,0,1.56-1.94c.17-.46.37-.9.47-.25a5.28,5.28,0,0,1-.14,2.53,3.72,3.72,0,0,1-1,1.69,19,19,0,0,1-2.32,1.5,8.74,8.74,0,0,0-2,1.68c-.34.41-.66.53-.66.26Z" style="stroke:#000;stroke-width:0.12px"/><path d="M33,62.84A8.13,8.13,0,0,1,33.9,60c.55-.72.21-.76,3.29-2.67a3.45,3.45,0,0,0,1.56-1.94c.17-.46.37-.9.48-.25a5.31,5.31,0,0,1-.14,2.53,3.73,3.73,0,0,1-1,1.69,18.75,18.75,0,0,1-2.32,1.5,8.74,8.74,0,0,0-2,1.68c-.34.41-.66.53-.66.26Z" style="fill:#fff;stroke:#000;stroke-width:0.12px"/><path d="M30,22.94a8.15,8.15,0,0,0-.91-2.79c-.56-.71-.22-.75-3.33-2.62a3.44,3.44,0,0,1-1.59-1.91c-.18-.46-.38-.9-.48-.24a5.26,5.26,0,0,0,.18,2.53,3.74,3.74,0,0,0,1.05,1.67A18.68,18.68,0,0,0,27.25,21a8.76,8.76,0,0,1,2.08,1.65c.35.4.67.52.66.25Z" style="stroke:#000;stroke-width:0.12px"/><path d="M30.41,114.56A64.64,64.64,0,0,1,22,106c-2.34-2.92-4.37-6.61-4.78-9.63-.44-3.28-.69-3.87,1.08-.74.1.18.85,1.67,1.29,1.64s.22-2.13.59-4.09a49.85,49.85,0,0,0,.65-5.44c.09-2.71.1-5.35,0-6.11,0-.45-.07-1.37.1-1.38a3.27,3.27,0,0,1,1.53,1.89,21.39,21.39,0,0,1,1.12,5.49,15.06,15.06,0,0,0,2.24,7.75A3.46,3.46,0,0,0,28.61,97c.41,0,.21-1,0-1.87a18.42,18.42,0,0,1-.39-4,19.83,19.83,0,0,1,.26-5.31,26.72,26.72,0,0,1,.93-3.67c1.07-2.57,1-.66,1.07,0a16.35,16.35,0,0,0,.41,2.33,17.8,17.8,0,0,0,2.57,5.88c1.54,2.08,2.19,2.19,2.19,2.19a6,6,0,0,0,1.9-2.42,29.74,29.74,0,0,0,2.14-7.22c.41-2.39.32-10.11.52-12.75.08-1.14,3.16,3.49,4.18,6.45a16.89,16.89,0,0,1,1,7.79c-.29,2-.52,2.7.33,2.94.17,0,1.39-.56,2.19-2.46s1.74-4.06,2.07-2.51a27.38,27.38,0,0,1,.92,6.15c.09,1.7-1.54,5.45-.47,5.9.25.1.64.05,1.37-.75s1.84-1.84,1.39,0a47.72,47.72,0,0,1-4,8.21c-2,3.26-6,6.93-7.86,8.76a47.5,47.5,0,0,1-4.66,4.16Z" style="fill:#fff;stroke:#000;stroke-width:0.12px"/><rect x="0.5" y="0.5" width="242.7" height="131.98" style="fill:none;stroke:#000"/><polyline points="73.95 27.13 242.79 27.13 242.79 0.67 73.95 0.67"/><path d="M214,16.4V13.77h6.62V20a8.32,8.32,0,0,1-2.8,1.69,10,10,0,0,1-3.71.73,8.18,8.18,0,0,1-4.16-1,6.48,6.48,0,0,1-2.67-2.94,9.7,9.7,0,0,1-.89-4.16,9.2,9.2,0,0,1,1-4.33A6.8,6.8,0,0,1,210.32,7,7.67,7.67,0,0,1,214,6.27a7.13,7.13,0,0,1,4.42,1.22,5.53,5.53,0,0,1,2,3.37l-3,.58a3.32,3.32,0,0,0-1.21-1.82A3.57,3.57,0,0,0,214,9a4.11,4.11,0,0,0-3.2,1.31,5.6,5.6,0,0,0-1.19,3.89,6.22,6.22,0,0,0,1.2,4.17,4,4,0,0,0,3.15,1.39,5.19,5.19,0,0,0,1.93-.39,6.7,6.7,0,0,0,1.67-.94v-2m-25.9,5.74V6.53h3L200.84,17V6.53h2.85v15.6h-3.08L194.48,12V22.14Zm-6,0V6.53h3.07v15.6Zm-15.21,0V6.53h3L179.6,17V6.53h2.85v15.6h-3.08L173.25,12V22.14Zm-12.29-9h2.27a11.56,11.56,0,0,0,2.76-.19,1.66,1.66,0,0,0,.86-.66,2.09,2.09,0,0,0,.31-1.17,1.91,1.91,0,0,0-.41-1.27,1.88,1.88,0,0,0-1.16-.61q-.37,0-2.24,0H158.1Zm-3.07,9V6.53h6.46A10.76,10.76,0,0,1,165,7a3.51,3.51,0,0,1,1.77,1.49,4.58,4.58,0,0,1,.66,2.46,4.25,4.25,0,0,1-1,2.9,4.79,4.79,0,0,1-3,1.44,7.23,7.23,0,0,1,1.65,1.31,17.92,17.92,0,0,1,1.75,2.53l1.86,3H165l-2.22-3.4a21.53,21.53,0,0,0-1.62-2.29,2.39,2.39,0,0,0-.92-.65,5,5,0,0,0-1.55-.17h-.62v6.51ZM147.74,16l-2.09-5.79L143.59,16Zm5.65,6.17h-3.34l-1.33-3.54h-6.08l-1.25,3.54h-3.26l5.92-15.6h3.25Zm-30.43,0-3.63-15.6h3.14l2.29,10.72,2.78-10.72h3.65l2.67,10.9,2.33-10.9h3.09l-3.69,15.6h-3.26l-3-11.66-3,11.66Zm-15-6.56a.56.56,0,0,1-.51.53h-.07a.51.51,0,0,1-.51-.53c-1.69-5.5-2.5-9.34.51-9.34S109.59,10.08,108,15.57Zm-.59,6a1.66,1.66,0,0,1,0-3.31h.07a1.66,1.66,0,0,1-.07,3.31ZM108.64,4.8a1.27,1.27,0,0,0-1.25-.9,1.17,1.17,0,0,0-1.17.9L97.85,19.57c-1.1,1.88-.15,2.64,1,2.71H116c1.17-.08,2.06-.83,1-2.71Z" style="fill:#fff"/><path d="M93.84,37.25V29.74H99V31H95.36v1.78H98.5v1.27H95.36v3.19Z"/><path d="M100.24,31.07V29.74h1.44v1.33Zm0,6.18V31.81h1.44v5.44Z"/><path d="M104.53,37.25h-1.44V31.81h1.34v.77a2.33,2.33,0,0,1,.62-.72,1.14,1.14,0,0,1,.62-.17,1.83,1.83,0,0,1,.95.27l-.45,1.26a1.26,1.26,0,0,0-.68-.24.8.8,0,0,0-.51.17,1.14,1.14,0,0,0-.33.6,8.54,8.54,0,0,0-.12,1.83Z"/><path d="M110.39,35.52l1.44.24A2.36,2.36,0,0,1,111,37a2.57,2.57,0,0,1-1.49.41,2.44,2.44,0,0,1-2.1-.93,3.12,3.12,0,0,1-.54-1.88,3,3,0,0,1,.71-2.12,2.33,2.33,0,0,1,1.79-.77,2.42,2.42,0,0,1,1.92.8,3.55,3.55,0,0,1,.67,2.46H108.3a1.46,1.46,0,0,0,.35,1,1.09,1.09,0,0,0,.83.36.88.88,0,0,0,.57-.18A1.14,1.14,0,0,0,110.39,35.52Zm.08-1.46a1.39,1.39,0,0,0-.32-1,1,1,0,0,0-1.53,0,1.33,1.33,0,0,0-.3.93Z"/><path d="M117.07,33.47l-1.31-.24a2,2,0,0,1,.76-1.17,2.78,2.78,0,0,1,1.6-.38,3.45,3.45,0,0,1,1.44.23,1.43,1.43,0,0,1,.66.58,3,3,0,0,1,.19,1.29l0,1.68a5.81,5.81,0,0,0,.07,1.06,3.08,3.08,0,0,0,.26.73H119.3c0-.1-.08-.24-.14-.43l-.05-.17a2.59,2.59,0,0,1-.79.54,2.26,2.26,0,0,1-.9.18,1.85,1.85,0,0,1-1.33-.46,1.52,1.52,0,0,1-.48-1.15,1.55,1.55,0,0,1,.22-.82,1.44,1.44,0,0,1,.62-.55,4.82,4.82,0,0,1,1.15-.34,7.85,7.85,0,0,0,1.4-.35v-.14a.75.75,0,0,0-.21-.59,1.23,1.23,0,0,0-.77-.18,1,1,0,0,0-.6.15A1.05,1.05,0,0,0,117.07,33.47ZM119,34.64a8.87,8.87,0,0,1-.88.22,2.66,2.66,0,0,0-.78.25.6.6,0,0,0-.28.51.71.71,0,0,0,.23.52.79.79,0,0,0,.57.22,1.25,1.25,0,0,0,.74-.26.9.9,0,0,0,.34-.48,2.85,2.85,0,0,0,.06-.7Z"/><path d="M126.79,37.25h-1.44V34.47a4.34,4.34,0,0,0-.09-1.14.81.81,0,0,0-.3-.4.86.86,0,0,0-.5-.14,1.16,1.16,0,0,0-.67.21,1,1,0,0,0-.41.54,4.66,4.66,0,0,0-.11,1.25v2.47h-1.44V31.81h1.34v.8a2.23,2.23,0,0,1,2.67-.75,1.46,1.46,0,0,1,.6.44,1.58,1.58,0,0,1,.28.61,4.52,4.52,0,0,1,.08,1Z"/><path d="M133.24,37.25H131.9v-.8a2.16,2.16,0,0,1-.79.69,2,2,0,0,1-.91.23,2.07,2.07,0,0,1-1.61-.76,3.08,3.08,0,0,1-.67-2.11,3,3,0,0,1,.65-2.1,2.12,2.12,0,0,1,1.64-.72,2,2,0,0,1,1.58.76V29.74h1.44Zm-3.84-2.84a2.5,2.5,0,0,0,.24,1.26,1.09,1.09,0,0,0,1,.56,1.06,1.06,0,0,0,.85-.42,2,2,0,0,0,.35-1.26,2.13,2.13,0,0,0-.34-1.35,1.07,1.07,0,0,0-.87-.41,1.08,1.08,0,0,0-.86.41A1.84,1.84,0,0,0,129.4,34.41Z"/><path d="M137.59,37.25V29.74h5.57V31h-4.06v1.67h3.77v1.27h-3.77v2h4.2v1.27Z"/><path d="M143.89,37.25l2-2.8L144,31.81h1.76l1,1.5,1-1.5h1.69l-1.85,2.58,2,2.87H147.8l-1.11-1.69-1.12,1.69Z"/><path d="M150.38,31.81h1.34v.8a2,2,0,0,1,.71-.67,2,2,0,0,1,1-.26,2.08,2.08,0,0,1,1.61.74,3,3,0,0,1,.66,2.07,3.1,3.1,0,0,1-.67,2.12,2.08,2.08,0,0,1-1.62.76,1.84,1.84,0,0,1-.82-.18,2.75,2.75,0,0,1-.77-.62v2.74h-1.44Zm1.42,2.63a2.1,2.1,0,0,0,.36,1.36,1.11,1.11,0,0,0,.89.44,1,1,0,0,0,.84-.4,2.07,2.07,0,0,0,.33-1.32,2,2,0,0,0-.34-1.27,1.07,1.07,0,0,0-.85-.42,1.11,1.11,0,0,0-.88.41A1.81,1.81,0,0,0,151.81,34.44Z"/><path d="M156.84,37.25V29.74h1.44v7.52Z"/><path d="M159.42,34.45a2.94,2.94,0,0,1,.35-1.39,2.43,2.43,0,0,1,1-1,3,3,0,0,1,1.45-.35,2.72,2.72,0,0,1,2,.8,2.77,2.77,0,0,1,.79,2,2.8,2.8,0,0,1-.8,2,2.69,2.69,0,0,1-2,.81,3.16,3.16,0,0,1-1.43-.34,2.32,2.32,0,0,1-1-1A3.3,3.3,0,0,1,159.42,34.45Zm1.48.08a1.81,1.81,0,0,0,.38,1.24,1.26,1.26,0,0,0,1.89,0,1.83,1.83,0,0,0,.38-1.25,1.79,1.79,0,0,0-.38-1.23,1.26,1.26,0,0,0-1.89,0A1.81,1.81,0,0,0,160.9,34.53Z"/><path d="M165.66,35.7l1.45-.22a1.06,1.06,0,0,0,.37.64,1.26,1.26,0,0,0,.79.22,1.43,1.43,0,0,0,.84-.21.46.46,0,0,0,.19-.38.38.38,0,0,0-.1-.27,1.15,1.15,0,0,0-.48-.19,7.79,7.79,0,0,1-2.21-.7,1.4,1.4,0,0,1-.64-1.23,1.51,1.51,0,0,1,.56-1.19,2.61,2.61,0,0,1,1.73-.48,3,3,0,0,1,1.66.36,1.86,1.86,0,0,1,.75,1.08l-1.36.25a.84.84,0,0,0-.33-.49,1.21,1.21,0,0,0-.7-.17,1.56,1.56,0,0,0-.81.16.34.34,0,0,0-.16.29.32.32,0,0,0,.14.26,5.44,5.44,0,0,0,1.35.4,4,4,0,0,1,1.61.64,1.33,1.33,0,0,1,.45,1.07,1.65,1.65,0,0,1-.62,1.29,2.77,2.77,0,0,1-1.85.54,3,3,0,0,1-1.76-.45A2.08,2.08,0,0,1,165.66,35.7Z"/><path d="M172,31.07V29.74h1.44v1.33Zm0,6.18V31.81h1.44v5.44Z"/><path d="M174.59,34.45a2.94,2.94,0,0,1,.35-1.39,2.43,2.43,0,0,1,1-1,3,3,0,0,1,1.45-.35,2.72,2.72,0,0,1,2,.8,2.78,2.78,0,0,1,.79,2,2.81,2.81,0,0,1-.8,2,2.7,2.7,0,0,1-2,.81A3.16,3.16,0,0,1,176,37a2.32,2.32,0,0,1-1-1A3.3,3.3,0,0,1,174.59,34.45Zm1.48.08a1.81,1.81,0,0,0,.38,1.24,1.26,1.26,0,0,0,1.89,0,1.83,1.83,0,0,0,.38-1.25,1.8,1.8,0,0,0-.38-1.23,1.26,1.26,0,0,0-1.89,0A1.81,1.81,0,0,0,176.07,34.53Z"/><path d="M186.29,37.25h-1.44V34.47a4.29,4.29,0,0,0-.09-1.14.8.8,0,0,0-.3-.4.86.86,0,0,0-.5-.14,1.16,1.16,0,0,0-.67.21,1,1,0,0,0-.41.54,4.71,4.71,0,0,0-.11,1.25v2.47h-1.44V31.81h1.34v.8a2.18,2.18,0,0,1,1.79-.92,2.16,2.16,0,0,1,.87.17,1.46,1.46,0,0,1,.6.44,1.6,1.6,0,0,1,.28.61,4.53,4.53,0,0,1,.08,1Z"/><path d="M190.69,37.25V29.74h1.52v3h3v-3h1.52v7.52h-1.52V34h-3v3.29Z"/><path d="M199.33,33.47,198,33.23a2,2,0,0,1,.76-1.17,2.78,2.78,0,0,1,1.6-.38,3.45,3.45,0,0,1,1.44.23,1.44,1.44,0,0,1,.66.58,3,3,0,0,1,.19,1.29v1.68a5.77,5.77,0,0,0,.07,1.06,3.1,3.1,0,0,0,.26.73h-1.42c0-.1-.08-.24-.14-.43l-.05-.17a2.58,2.58,0,0,1-.79.54,2.25,2.25,0,0,1-.9.18,1.86,1.86,0,0,1-1.33-.46,1.52,1.52,0,0,1-.49-1.15,1.55,1.55,0,0,1,.22-.82,1.44,1.44,0,0,1,.62-.55,4.82,4.82,0,0,1,1.15-.34,7.86,7.86,0,0,0,1.4-.35v-.14a.75.75,0,0,0-.21-.59,1.23,1.23,0,0,0-.77-.18,1,1,0,0,0-.6.15A1.05,1.05,0,0,0,199.33,33.47Zm1.93,1.17a8.92,8.92,0,0,1-.88.22,2.66,2.66,0,0,0-.79.25.6.6,0,0,0-.28.51.71.71,0,0,0,.23.52.79.79,0,0,0,.57.22,1.25,1.25,0,0,0,.74-.26.9.9,0,0,0,.34-.48,2.87,2.87,0,0,0,.06-.7Z"/><path d="M203.51,37.25V36.13l2-2.34q.5-.57.74-.82l-.66,0h-1.92V31.81h4.5v1l-2.08,2.4-.73.79.74,0h2.23v1.27Z"/><path d="M210.42,33.47l-1.31-.24a2,2,0,0,1,.76-1.17,2.77,2.77,0,0,1,1.6-.38,3.45,3.45,0,0,1,1.44.23,1.44,1.44,0,0,1,.66.58,3,3,0,0,1,.19,1.29l0,1.68a5.75,5.75,0,0,0,.07,1.06,3.05,3.05,0,0,0,.26.73h-1.42c0-.1-.08-.24-.14-.43l-.05-.17a2.59,2.59,0,0,1-.79.54,2.26,2.26,0,0,1-.9.18,1.86,1.86,0,0,1-1.33-.46,1.52,1.52,0,0,1-.48-1.15,1.55,1.55,0,0,1,.22-.82,1.44,1.44,0,0,1,.62-.55,4.83,4.83,0,0,1,1.15-.34,7.84,7.84,0,0,0,1.4-.35v-.14a.75.75,0,0,0-.21-.59,1.23,1.23,0,0,0-.77-.18,1,1,0,0,0-.6.15A1.05,1.05,0,0,0,210.42,33.47Zm1.93,1.17a8.89,8.89,0,0,1-.88.22,2.66,2.66,0,0,0-.79.25.6.6,0,0,0-.28.51.71.71,0,0,0,.22.52.79.79,0,0,0,.57.22,1.25,1.25,0,0,0,.74-.26.9.9,0,0,0,.34-.48,2.88,2.88,0,0,0,.06-.7Z"/><path d="M216.56,37.25h-1.44V31.81h1.34v.77a2.33,2.33,0,0,1,.62-.72,1.14,1.14,0,0,1,.62-.17,1.83,1.83,0,0,1,.95.27l-.45,1.26a1.26,1.26,0,0,0-.68-.24.8.8,0,0,0-.51.17,1.14,1.14,0,0,0-.33.6,8.56,8.56,0,0,0-.12,1.83Z"/><path d="M224.26,37.25h-1.34v-.8a2.17,2.17,0,0,1-.79.69,2,2,0,0,1-.92.23,2.07,2.07,0,0,1-1.61-.76,3.07,3.07,0,0,1-.67-2.11,3,3,0,0,1,.65-2.1,2.12,2.12,0,0,1,1.65-.72,2,2,0,0,1,1.58.76V29.74h1.44Zm-3.84-2.84a2.49,2.49,0,0,0,.24,1.26,1.09,1.09,0,0,0,1,.56,1.06,1.06,0,0,0,.85-.42,2,2,0,0,0,.35-1.26,2.14,2.14,0,0,0-.34-1.35,1.07,1.07,0,0,0-.87-.41,1.08,1.08,0,0,0-.86.41A1.84,1.84,0,0,0,220.42,34.41Z"/><line x1="74.01" y1="41.21" x2="243.11" y2="41.21" style="stroke:#000"/><line x1="73.37" y1="132.38" x2="73.37" y2="0.56" style="stroke:#000"/><path d="M87.14,105.31V99.94h-2v-.72H90v.72h-2v5.37Z"/><path d="M93.27,105.31v-.65a1.61,1.61,0,0,1-1.4.75,1.78,1.78,0,0,1-.73-.15,1.19,1.19,0,0,1-.5-.38,1.4,1.4,0,0,1-.23-.55,3.81,3.81,0,0,1,0-.7V100.9h.75v2.45a4.38,4.38,0,0,0,0,.79.78.78,0,0,0,.3.46.92.92,0,0,0,.56.17,1.23,1.23,0,0,0,.63-.17,1,1,0,0,0,.42-.47,2.36,2.36,0,0,0,.12-.86V100.9h.75v4.41Z"/><path d="M95.1,105.31V100.9h.67v.67a1.81,1.81,0,0,1,.48-.62.83.83,0,0,1,.48-.15,1.45,1.45,0,0,1,.77.24l-.26.69a1.06,1.06,0,0,0-.55-.16.72.72,0,0,0-.44.15.8.8,0,0,0-.28.41,2.91,2.91,0,0,0-.12.87v2.31Z"/><path d="M97.93,105.31V100.9h.67v.63a1.59,1.59,0,0,1,1.4-.73,1.85,1.85,0,0,1,.73.14,1.15,1.15,0,0,1,.5.38,1.44,1.44,0,0,1,.23.55,4.25,4.25,0,0,1,0,.73v2.71h-.75v-2.68a2,2,0,0,0-.09-.68.71.71,0,0,0-.31-.36,1,1,0,0,0-.52-.13,1.21,1.21,0,0,0-.82.3,1.49,1.49,0,0,0-.35,1.15v2.41Z"/><path d="M104.75,103.1a2.27,2.27,0,0,1,.68-1.81,2.05,2.05,0,0,1,1.39-.49,2,2,0,0,1,1.49.6,2.27,2.27,0,0,1,.58,1.65,2.92,2.92,0,0,1-.26,1.34,1.81,1.81,0,0,1-.74.76,2.16,2.16,0,0,1-1.06.27,2,2,0,0,1-1.5-.59A2.37,2.37,0,0,1,104.75,103.1Zm.77,0a1.88,1.88,0,0,0,.37,1.27,1.23,1.23,0,0,0,1.85,0,1.92,1.92,0,0,0,.37-1.29,1.82,1.82,0,0,0-.37-1.24,1.23,1.23,0,0,0-1.85,0A1.87,1.87,0,0,0,105.51,103.1Z"/><path d="M109.93,105.31v-3.83h-.66v-.58h.66v-.47a2.07,2.07,0,0,1,.08-.66,1,1,0,0,1,.38-.47,1.37,1.37,0,0,1,.76-.18,3.67,3.67,0,0,1,.7.08l-.11.65a2.44,2.44,0,0,0-.44,0,.65.65,0,0,0-.48.15.79.79,0,0,0-.14.54v.41h.86v.58h-.86v3.83Z"/><path d="M112.14,105.31v-3.83h-.66v-.58h.66v-.47a2.05,2.05,0,0,1,.08-.66,1,1,0,0,1,.38-.47,1.37,1.37,0,0,1,.76-.18,3.67,3.67,0,0,1,.7.08l-.11.65a2.44,2.44,0,0,0-.44,0,.65.65,0,0,0-.48.15.78.78,0,0,0-.14.54v.41h.86v.58h-.86v3.83Z"/><path d="M116.54,105.67l.73.11a.69.69,0,0,0,.25.49,1.24,1.24,0,0,0,.76.21,1.33,1.33,0,0,0,.8-.21,1,1,0,0,0,.38-.58,4.82,4.82,0,0,0,.05-1,1.54,1.54,0,0,1-1.22.58,1.66,1.66,0,0,1-1.41-.66,2.52,2.52,0,0,1-.5-1.57,2.92,2.92,0,0,1,.23-1.16,1.83,1.83,0,0,1,.66-.82,1.79,1.79,0,0,1,1-.29,1.58,1.58,0,0,1,1.29.63v-.53h.69v3.81a3.62,3.62,0,0,1-.21,1.46,1.54,1.54,0,0,1-.66.68,2.3,2.3,0,0,1-1.12.25,2.1,2.1,0,0,1-1.27-.36A1.2,1.2,0,0,1,116.54,105.67Zm.62-2.65a1.91,1.91,0,0,0,.34,1.27,1.09,1.09,0,0,0,.86.4,1.11,1.11,0,0,0,.86-.4,1.85,1.85,0,0,0,.35-1.24,1.81,1.81,0,0,0-.36-1.22,1.11,1.11,0,0,0-.87-.41,1.08,1.08,0,0,0-.85.4A1.8,1.8,0,0,0,117.16,103Z"/><path d="M124.29,104.76a2.77,2.77,0,0,1-.8.5,2.31,2.31,0,0,1-.82.15,1.6,1.6,0,0,1-1.12-.35,1.17,1.17,0,0,1-.39-.91,1.21,1.21,0,0,1,.15-.59,1.24,1.24,0,0,1,.39-.43,1.81,1.81,0,0,1,.54-.24,5.3,5.3,0,0,1,.66-.11,6.78,6.78,0,0,0,1.33-.26c0-.1,0-.17,0-.2a.83.83,0,0,0-.21-.64,1.25,1.25,0,0,0-.85-.25,1.32,1.32,0,0,0-.78.18,1.12,1.12,0,0,0-.37.65l-.73-.1a1.82,1.82,0,0,1,.33-.76,1.44,1.44,0,0,1,.66-.44,3,3,0,0,1,1-.16,2.66,2.66,0,0,1,.92.13,1.21,1.21,0,0,1,.52.33,1.17,1.17,0,0,1,.23.51,4.14,4.14,0,0,1,0,.69v1a10.47,10.47,0,0,0,0,1.32,1.65,1.65,0,0,0,.19.53h-.78A1.6,1.6,0,0,1,124.29,104.76Zm-.06-1.67a5.53,5.53,0,0,1-1.22.28,2.8,2.8,0,0,0-.65.15.64.64,0,0,0-.4.6.64.64,0,0,0,.23.5,1,1,0,0,0,.66.2,1.54,1.54,0,0,0,.77-.19,1.16,1.16,0,0,0,.49-.52,1.81,1.81,0,0,0,.12-.75Z"/><path d="M125.84,104l.74-.12a1,1,0,0,0,.35.68,1.21,1.21,0,0,0,.79.24,1.17,1.17,0,0,0,.76-.21.63.63,0,0,0,.25-.49.45.45,0,0,0-.22-.4,3.22,3.22,0,0,0-.76-.25,7,7,0,0,1-1.14-.36,1.09,1.09,0,0,1-.65-1,1.14,1.14,0,0,1,.13-.55,1.2,1.2,0,0,1,.37-.42,1.53,1.53,0,0,1,.47-.22,2.26,2.26,0,0,1,.65-.09,2.55,2.55,0,0,1,.91.15,1.24,1.24,0,0,1,.58.4,1.58,1.58,0,0,1,.26.68l-.73.1a.8.8,0,0,0-.29-.53,1.05,1.05,0,0,0-.67-.19,1.22,1.22,0,0,0-.73.17.5.5,0,0,0-.22.4.42.42,0,0,0,.09.26.66.66,0,0,0,.29.2l.66.19a9.32,9.32,0,0,1,1.11.35,1.12,1.12,0,0,1,.49.39,1.1,1.1,0,0,1,.18.64,1.25,1.25,0,0,1-.22.7,1.4,1.4,0,0,1-.63.51,2.29,2.29,0,0,1-.93.18,2.07,2.07,0,0,1-1.31-.36A1.66,1.66,0,0,1,125.84,104Z"/><path d="M132.73,105.31V99.22h.75v6.08Z"/><path d="M134.64,100.08v-.86h.75v.86Zm0,5.23V100.9h.75v4.41Z"/><path d="M136.52,105.31V100.9h.67v.63a1.59,1.59,0,0,1,1.4-.73,1.85,1.85,0,0,1,.73.14,1.15,1.15,0,0,1,.5.38,1.44,1.44,0,0,1,.23.55,4.29,4.29,0,0,1,0,.73v2.71h-.75v-2.68a2,2,0,0,0-.09-.68.72.72,0,0,0-.31-.36,1,1,0,0,0-.52-.13,1.21,1.21,0,0,0-.82.3,1.49,1.49,0,0,0-.35,1.15v2.41Z"/><path d="M144.27,103.89l.77.1a1.89,1.89,0,0,1-.68,1.05,2,2,0,0,1-1.26.37,2,2,0,0,1-1.53-.6,2.32,2.32,0,0,1-.57-1.67,2.43,2.43,0,0,1,.57-1.73,1.94,1.94,0,0,1,1.49-.62,1.89,1.89,0,0,1,1.44.6,2.39,2.39,0,0,1,.56,1.69s0,.11,0,.2h-3.29a1.7,1.7,0,0,0,.41,1.11,1.23,1.23,0,0,0,.92.39,1.15,1.15,0,0,0,.7-.22A1.44,1.44,0,0,0,144.27,103.89Zm-2.45-1.21h2.46a1.49,1.49,0,0,0-.28-.83,1.15,1.15,0,0,0-.93-.43,1.19,1.19,0,0,0-.87.34A1.37,1.37,0,0,0,141.82,102.68Z"/><path d="M145.68,104l.74-.12a1,1,0,0,0,.35.68,1.21,1.21,0,0,0,.79.24,1.17,1.17,0,0,0,.76-.21.63.63,0,0,0,.25-.49.45.45,0,0,0-.22-.4,3.22,3.22,0,0,0-.76-.25,7,7,0,0,1-1.14-.36,1.09,1.09,0,0,1-.65-1,1.14,1.14,0,0,1,.13-.55,1.2,1.2,0,0,1,.37-.42,1.53,1.53,0,0,1,.47-.22,2.26,2.26,0,0,1,.65-.09,2.55,2.55,0,0,1,.91.15,1.24,1.24,0,0,1,.58.4,1.58,1.58,0,0,1,.26.68l-.73.1a.8.8,0,0,0-.29-.53,1.05,1.05,0,0,0-.67-.19,1.22,1.22,0,0,0-.73.17.5.5,0,0,0-.22.4.42.42,0,0,0,.09.26.66.66,0,0,0,.29.2l.66.19a9.32,9.32,0,0,1,1.11.35,1.12,1.12,0,0,1,.49.39,1.1,1.1,0,0,1,.18.64,1.25,1.25,0,0,1-.22.7,1.4,1.4,0,0,1-.63.51,2.29,2.29,0,0,1-.93.18,2.07,2.07,0,0,1-1.31-.36A1.66,1.66,0,0,1,145.68,104Z"/><path d="M155.45,105.31v-.56a1.37,1.37,0,0,1-1.23.66,1.73,1.73,0,0,1-1-.29,1.92,1.92,0,0,1-.68-.81,2.8,2.8,0,0,1-.24-1.2,3.13,3.13,0,0,1,.22-1.2,1.73,1.73,0,0,1,.66-.82,1.77,1.77,0,0,1,1-.29,1.47,1.47,0,0,1,.71.17,1.5,1.5,0,0,1,.51.44V99.22h.74v6.08Zm-2.36-2.2a1.92,1.92,0,0,0,.36,1.27,1.08,1.08,0,0,0,.84.42,1.06,1.06,0,0,0,.83-.4,1.85,1.85,0,0,0,.34-1.22,2.07,2.07,0,0,0-.35-1.33,1.07,1.07,0,0,0-.86-.42,1,1,0,0,0-.83.41A2,2,0,0,0,153.09,103.11Z"/><path d="M160.21,105.31v-.65a1.61,1.61,0,0,1-1.4.75,1.78,1.78,0,0,1-.73-.15,1.2,1.2,0,0,1-.5-.38,1.4,1.4,0,0,1-.23-.55,3.71,3.71,0,0,1,0-.7V100.9H158v2.45a4.39,4.39,0,0,0,0,.79.79.79,0,0,0,.3.46.93.93,0,0,0,.56.17,1.23,1.23,0,0,0,.63-.17,1,1,0,0,0,.42-.47,2.37,2.37,0,0,0,.12-.86V100.9h.75v4.41Z"/><path d="M162,105.31V100.9h.67v.67a1.81,1.81,0,0,1,.47-.62.83.83,0,0,1,.48-.15,1.46,1.46,0,0,1,.77.24l-.26.69a1.06,1.06,0,0,0-.55-.16.72.72,0,0,0-.44.15.79.79,0,0,0-.28.41,2.91,2.91,0,0,0-.12.87v2.31Z"/><path d="M164.88,100.08v-.86h.75v.86Zm0,5.23V100.9h.75v4.41Z"/><path d="M166.76,105.31V100.9h.67v.63a1.59,1.59,0,0,1,1.4-.73,1.85,1.85,0,0,1,.73.14,1.15,1.15,0,0,1,.5.38,1.44,1.44,0,0,1,.23.55,4.29,4.29,0,0,1,0,.73v2.71h-.75v-2.68a2,2,0,0,0-.09-.68.72.72,0,0,0-.31-.36,1,1,0,0,0-.52-.13,1.21,1.21,0,0,0-.82.3,1.49,1.49,0,0,0-.35,1.15v2.41Z"/><path d="M171.36,105.67l.73.11a.69.69,0,0,0,.25.49,1.24,1.24,0,0,0,.76.21,1.33,1.33,0,0,0,.8-.21,1,1,0,0,0,.38-.58,4.82,4.82,0,0,0,.05-1,1.54,1.54,0,0,1-1.22.58,1.66,1.66,0,0,1-1.41-.66,2.52,2.52,0,0,1-.5-1.57,2.92,2.92,0,0,1,.23-1.16,1.83,1.83,0,0,1,.66-.82,1.79,1.79,0,0,1,1-.29,1.58,1.58,0,0,1,1.29.63v-.53h.69v3.81a3.62,3.62,0,0,1-.21,1.46,1.54,1.54,0,0,1-.66.68,2.3,2.3,0,0,1-1.12.25,2.1,2.1,0,0,1-1.27-.36A1.2,1.2,0,0,1,171.36,105.67ZM172,103a1.91,1.91,0,0,0,.34,1.27,1.09,1.09,0,0,0,.86.4,1.11,1.11,0,0,0,.86-.4,1.85,1.85,0,0,0,.35-1.24,1.81,1.81,0,0,0-.36-1.22,1.11,1.11,0,0,0-.87-.41,1.08,1.08,0,0,0-.85.4A1.8,1.8,0,0,0,172,103Z"/><path d="M178.58,100.08v-.86h.75v.86Zm0,5.23V100.9h.75v4.41Z"/><path d="M180.47,105.31V100.9h.67v.63a1.59,1.59,0,0,1,1.4-.73,1.85,1.85,0,0,1,.73.14,1.15,1.15,0,0,1,.5.38,1.44,1.44,0,0,1,.23.55,4.29,4.29,0,0,1,0,.73v2.71h-.75v-2.68a2,2,0,0,0-.09-.68.72.72,0,0,0-.31-.36,1,1,0,0,0-.52-.13,1.21,1.21,0,0,0-.82.3,1.49,1.49,0,0,0-.35,1.15v2.41Z"/><path d="M184.9,104l.74-.12a1,1,0,0,0,.35.68,1.21,1.21,0,0,0,.79.24,1.17,1.17,0,0,0,.76-.21.63.63,0,0,0,.25-.49.45.45,0,0,0-.22-.4,3.22,3.22,0,0,0-.76-.25,7,7,0,0,1-1.14-.36,1.09,1.09,0,0,1-.65-1,1.14,1.14,0,0,1,.13-.55,1.2,1.2,0,0,1,.37-.42,1.53,1.53,0,0,1,.47-.22,2.26,2.26,0,0,1,.65-.09,2.55,2.55,0,0,1,.91.15,1.24,1.24,0,0,1,.58.4,1.58,1.58,0,0,1,.26.68l-.73.1a.8.8,0,0,0-.29-.53,1.05,1.05,0,0,0-.67-.19,1.22,1.22,0,0,0-.73.17.5.5,0,0,0-.22.4.42.42,0,0,0,.09.26.66.66,0,0,0,.29.2l.66.19a9.32,9.32,0,0,1,1.11.35,1.12,1.12,0,0,1,.49.39,1.1,1.1,0,0,1,.18.64,1.25,1.25,0,0,1-.22.7,1.4,1.4,0,0,1-.63.51,2.29,2.29,0,0,1-.93.18,2.07,2.07,0,0,1-1.31-.36A1.66,1.66,0,0,1,184.9,104Z"/><path d="M191.08,104.64l.11.66a2.79,2.79,0,0,1-.56.07,1.28,1.28,0,0,1-.63-.13.72.72,0,0,1-.31-.34,2.65,2.65,0,0,1-.09-.88v-2.54H189v-.58h.55V99.81l.74-.45v1.54h.75v.58h-.75v2.58a1.31,1.31,0,0,0,0,.41.31.31,0,0,0,.13.14.49.49,0,0,0,.25.05Z"/><path d="M194.68,104.76a2.77,2.77,0,0,1-.8.5,2.31,2.31,0,0,1-.82.15,1.6,1.6,0,0,1-1.12-.35,1.17,1.17,0,0,1-.39-.91,1.21,1.21,0,0,1,.15-.59,1.24,1.24,0,0,1,.39-.43,1.81,1.81,0,0,1,.54-.24,5.3,5.3,0,0,1,.66-.11,6.78,6.78,0,0,0,1.33-.26c0-.1,0-.17,0-.2a.83.83,0,0,0-.21-.64,1.25,1.25,0,0,0-.85-.25,1.32,1.32,0,0,0-.78.18,1.12,1.12,0,0,0-.37.65l-.73-.1a1.82,1.82,0,0,1,.33-.76,1.44,1.44,0,0,1,.66-.44,3,3,0,0,1,1-.16,2.66,2.66,0,0,1,.92.13,1.21,1.21,0,0,1,.52.33,1.17,1.17,0,0,1,.23.51,4.14,4.14,0,0,1,0,.69v1a10.47,10.47,0,0,0,0,1.32,1.65,1.65,0,0,0,.19.53h-.78A1.6,1.6,0,0,1,194.68,104.76Zm-.06-1.67a5.53,5.53,0,0,1-1.22.28,2.8,2.8,0,0,0-.65.15.64.64,0,0,0-.4.6.64.64,0,0,0,.23.5,1,1,0,0,0,.66.2,1.54,1.54,0,0,0,.77-.19,1.16,1.16,0,0,0,.49-.52,1.81,1.81,0,0,0,.12-.75Z"/><path d="M196.52,105.31V99.22h.75v6.08Z"/><path d="M198.41,105.31V99.22h.75v6.08Z"/><path d="M203.19,104.76a2.77,2.77,0,0,1-.8.5,2.31,2.31,0,0,1-.82.15,1.6,1.6,0,0,1-1.12-.35,1.17,1.17,0,0,1-.39-.91,1.21,1.21,0,0,1,.15-.59,1.24,1.24,0,0,1,.39-.43,1.81,1.81,0,0,1,.54-.24,5.3,5.3,0,0,1,.66-.11,6.78,6.78,0,0,0,1.33-.26c0-.1,0-.17,0-.2a.83.83,0,0,0-.21-.64,1.25,1.25,0,0,0-.85-.25,1.32,1.32,0,0,0-.78.18,1.12,1.12,0,0,0-.37.65l-.73-.1a1.82,1.82,0,0,1,.33-.76,1.44,1.44,0,0,1,.66-.44,3,3,0,0,1,1-.16,2.66,2.66,0,0,1,.92.13,1.21,1.21,0,0,1,.52.33,1.17,1.17,0,0,1,.23.51,4.14,4.14,0,0,1,0,.69v1a10.47,10.47,0,0,0,0,1.32,1.65,1.65,0,0,0,.19.53h-.78A1.6,1.6,0,0,1,203.19,104.76Zm-.06-1.67a5.53,5.53,0,0,1-1.22.28,2.8,2.8,0,0,0-.65.15.64.64,0,0,0-.4.6.64.64,0,0,0,.23.5,1,1,0,0,0,.66.2,1.54,1.54,0,0,0,.77-.19,1.16,1.16,0,0,0,.49-.52,1.81,1.81,0,0,0,.12-.75Z"/><path d="M206.67,104.64l.11.66a2.79,2.79,0,0,1-.56.07,1.28,1.28,0,0,1-.63-.13.72.72,0,0,1-.31-.34,2.65,2.65,0,0,1-.09-.88v-2.54h-.55v-.58h.55V99.81l.74-.45v1.54h.75v.58h-.75v2.58a1.31,1.31,0,0,0,0,.41.31.31,0,0,0,.13.14.49.49,0,0,0,.25.05Z"/><path d="M207.41,100.08v-.86h.75v.86Zm0,5.23V100.9h.75v4.41Z"/><path d="M209,103.1a2.27,2.27,0,0,1,.68-1.81,2.05,2.05,0,0,1,1.39-.49,2,2,0,0,1,1.49.6,2.27,2.27,0,0,1,.58,1.65,2.91,2.91,0,0,1-.26,1.34,1.8,1.8,0,0,1-.74.76,2.17,2.17,0,0,1-1.06.27,2,2,0,0,1-1.5-.59A2.37,2.37,0,0,1,209,103.1Zm.77,0a1.88,1.88,0,0,0,.37,1.27,1.23,1.23,0,0,0,1.85,0,1.93,1.93,0,0,0,.37-1.29,1.82,1.82,0,0,0-.37-1.24,1.23,1.23,0,0,0-1.85,0A1.86,1.86,0,0,0,209.78,103.1Z"/><path d="M214,105.31V100.9h.67v.63a1.59,1.59,0,0,1,1.4-.73,1.85,1.85,0,0,1,.73.14,1.15,1.15,0,0,1,.5.38,1.44,1.44,0,0,1,.23.55,4.29,4.29,0,0,1,0,.73v2.71h-.75v-2.68a2,2,0,0,0-.09-.68.72.72,0,0,0-.31-.36,1,1,0,0,0-.52-.13,1.21,1.21,0,0,0-.82.3,1.49,1.49,0,0,0-.35,1.15v2.41Z"/><path d="M219,105.31v-.85h.85v.85Z"/><path d="M89.94,115.5l.81.2a2.71,2.71,0,0,1-.91,1.51,2.51,2.51,0,0,1-1.61.52,2.88,2.88,0,0,1-1.6-.4,2.49,2.49,0,0,1-.94-1.16,4.14,4.14,0,0,1-.32-1.63,3.58,3.58,0,0,1,.36-1.66,2.48,2.48,0,0,1,1-1.07,3,3,0,0,1,1.48-.37,2.5,2.5,0,0,1,1.54.46,2.41,2.41,0,0,1,.87,1.31l-.79.19a1.88,1.88,0,0,0-.61-1,1.64,1.64,0,0,0-1-.3,2,2,0,0,0-1.17.34,1.77,1.77,0,0,0-.66.9,3.62,3.62,0,0,0-.19,1.17,3.71,3.71,0,0,0,.23,1.35,1.69,1.69,0,0,0,.7.87,2,2,0,0,0,1,.29,1.73,1.73,0,0,0,1.15-.39A2,2,0,0,0,89.94,115.5Z"/><path d="M91.36,115.43a2.27,2.27,0,0,1,.68-1.81,2.05,2.05,0,0,1,1.39-.49,2,2,0,0,1,1.49.6,2.27,2.27,0,0,1,.58,1.65,2.92,2.92,0,0,1-.26,1.34,1.81,1.81,0,0,1-.74.76,2.16,2.16,0,0,1-1.06.27,2,2,0,0,1-1.5-.59A2.37,2.37,0,0,1,91.36,115.43Zm.77,0a1.88,1.88,0,0,0,.37,1.27,1.23,1.23,0,0,0,1.85,0,1.92,1.92,0,0,0,.37-1.29,1.82,1.82,0,0,0-.37-1.24,1.23,1.23,0,0,0-1.85,0A1.87,1.87,0,0,0,92.13,115.43Z"/><path d="M96.37,117.64v-4.41H97v.63a1.59,1.59,0,0,1,1.4-.73,1.85,1.85,0,0,1,.73.14,1.15,1.15,0,0,1,.5.38,1.44,1.44,0,0,1,.23.55,4.25,4.25,0,0,1,0,.73v2.71H99.2V115a2,2,0,0,0-.09-.68.71.71,0,0,0-.31-.36,1,1,0,0,0-.52-.13,1.21,1.21,0,0,0-.82.3,1.49,1.49,0,0,0-.35,1.15v2.41Z"/><path d="M102.72,117l.11.66a2.8,2.8,0,0,1-.56.07,1.28,1.28,0,0,1-.63-.13.72.72,0,0,1-.32-.34,2.67,2.67,0,0,1-.09-.88v-2.54h-.55v-.58h.55v-1.09l.74-.45v1.54h.75v.58H102v2.58a1.31,1.31,0,0,0,0,.41.31.31,0,0,0,.13.14.49.49,0,0,0,.25.05Z"/><path d="M106.33,117.09a2.78,2.78,0,0,1-.8.5,2.31,2.31,0,0,1-.82.15,1.6,1.6,0,0,1-1.12-.35,1.17,1.17,0,0,1-.39-.91,1.21,1.21,0,0,1,.15-.59,1.23,1.23,0,0,1,.39-.43,1.81,1.81,0,0,1,.54-.24,5.3,5.3,0,0,1,.66-.11,6.78,6.78,0,0,0,1.33-.26c0-.1,0-.17,0-.2a.83.83,0,0,0-.21-.64,1.25,1.25,0,0,0-.85-.25,1.32,1.32,0,0,0-.78.18,1.13,1.13,0,0,0-.37.65l-.73-.1a1.82,1.82,0,0,1,.33-.76,1.44,1.44,0,0,1,.66-.44,3,3,0,0,1,1-.16,2.66,2.66,0,0,1,.92.13,1.22,1.22,0,0,1,.52.33,1.18,1.18,0,0,1,.23.51,4.21,4.21,0,0,1,0,.69v1a10.61,10.61,0,0,0,0,1.32,1.65,1.65,0,0,0,.19.53h-.78A1.58,1.58,0,0,1,106.33,117.09Zm-.06-1.67a5.53,5.53,0,0,1-1.22.28,2.79,2.79,0,0,0-.65.15.65.65,0,0,0-.17,1.1,1,1,0,0,0,.66.2,1.54,1.54,0,0,0,.77-.19,1.16,1.16,0,0,0,.49-.52,1.81,1.81,0,0,0,.12-.75Z"/><path d="M111.06,116l.73.09a1.9,1.9,0,0,1-.62,1.19,1.8,1.8,0,0,1-1.22.43,1.89,1.89,0,0,1-1.46-.59,2.4,2.4,0,0,1-.55-1.7,3.07,3.07,0,0,1,.24-1.25,1.66,1.66,0,0,1,.72-.8,2.14,2.14,0,0,1,1.05-.27,1.83,1.83,0,0,1,1.17.36,1.67,1.67,0,0,1,.58,1l-.73.11a1.2,1.2,0,0,0-.37-.67,1,1,0,0,0-.64-.22,1.16,1.16,0,0,0-.92.4,1.92,1.92,0,0,0-.35,1.28,2,2,0,0,0,.34,1.29,1.11,1.11,0,0,0,.89.4,1,1,0,0,0,.73-.27A1.34,1.34,0,0,0,111.06,116Z"/><path d="M114.06,117l.11.66a2.79,2.79,0,0,1-.56.07,1.28,1.28,0,0,1-.63-.13.72.72,0,0,1-.31-.34,2.65,2.65,0,0,1-.09-.88v-2.54H112v-.58h.55v-1.09l.74-.45v1.54h.75v.58h-.75v2.58a1.31,1.31,0,0,0,0,.41.31.31,0,0,0,.13.14.49.49,0,0,0,.25.05Z"/><path d="M120,117.09a2.77,2.77,0,0,1-.8.5,2.31,2.31,0,0,1-.82.15,1.6,1.6,0,0,1-1.12-.35,1.17,1.17,0,0,1-.39-.91,1.21,1.21,0,0,1,.15-.59,1.24,1.24,0,0,1,.39-.43,1.81,1.81,0,0,1,.54-.24,5.3,5.3,0,0,1,.66-.11,6.78,6.78,0,0,0,1.33-.26c0-.1,0-.17,0-.2a.83.83,0,0,0-.21-.64,1.25,1.25,0,0,0-.85-.25,1.32,1.32,0,0,0-.78.18,1.12,1.12,0,0,0-.37.65l-.73-.1a1.82,1.82,0,0,1,.33-.76,1.44,1.44,0,0,1,.66-.44,3,3,0,0,1,1-.16,2.66,2.66,0,0,1,.92.13,1.21,1.21,0,0,1,.52.33,1.17,1.17,0,0,1,.23.51,4.14,4.14,0,0,1,0,.69v1a10.47,10.47,0,0,0,0,1.32,1.65,1.65,0,0,0,.19.53h-.78A1.6,1.6,0,0,1,120,117.09Zm-.06-1.67a5.53,5.53,0,0,1-1.22.28,2.8,2.8,0,0,0-.65.15.64.64,0,0,0-.4.6.64.64,0,0,0,.23.5,1,1,0,0,0,.66.2,1.54,1.54,0,0,0,.77-.19,1.16,1.16,0,0,0,.49-.52,1.81,1.81,0,0,0,.12-.75Z"/><path d="M127.05,119.33v-2.16a1.33,1.33,0,0,1-.49.41,1.43,1.43,0,0,1-.67.16,1.76,1.76,0,0,1-1.35-.63,2.47,2.47,0,0,1-.57-1.72,3,3,0,0,1,.23-1.19,1.71,1.71,0,0,1,.67-.8,1.79,1.79,0,0,1,1-.27,1.48,1.48,0,0,1,1.29.69v-.59h.67v6.1Zm-2.3-3.91a2,2,0,0,0,.36,1.28,1.08,1.08,0,0,0,.85.43,1,1,0,0,0,.82-.4,1.87,1.87,0,0,0,.34-1.23,2.05,2.05,0,0,0-.36-1.32,1.08,1.08,0,0,0-.85-.44,1,1,0,0,0-.82.41A2,2,0,0,0,124.75,115.42Z"/><path d="M131.86,117.64V117a1.61,1.61,0,0,1-1.4.75,1.78,1.78,0,0,1-.73-.15,1.2,1.2,0,0,1-.5-.38,1.4,1.4,0,0,1-.23-.55,3.71,3.71,0,0,1,0-.7v-2.73h.75v2.45a4.39,4.39,0,0,0,0,.79.79.79,0,0,0,.3.46.93.93,0,0,0,.56.17,1.23,1.23,0,0,0,.63-.17,1,1,0,0,0,.42-.47,2.37,2.37,0,0,0,.12-.86v-2.36h.75v4.41Z"/><path d="M136.57,117.09a2.77,2.77,0,0,1-.8.5,2.31,2.31,0,0,1-.82.15,1.6,1.6,0,0,1-1.12-.35,1.17,1.17,0,0,1-.39-.91,1.21,1.21,0,0,1,.15-.59,1.24,1.24,0,0,1,.39-.43,1.81,1.81,0,0,1,.54-.24,5.3,5.3,0,0,1,.66-.11,6.78,6.78,0,0,0,1.33-.26c0-.1,0-.17,0-.2a.83.83,0,0,0-.21-.64,1.25,1.25,0,0,0-.85-.25,1.32,1.32,0,0,0-.78.18,1.12,1.12,0,0,0-.37.65l-.73-.1a1.82,1.82,0,0,1,.33-.76,1.44,1.44,0,0,1,.66-.44,3,3,0,0,1,1-.16,2.66,2.66,0,0,1,.92.13,1.21,1.21,0,0,1,.52.33,1.17,1.17,0,0,1,.23.51,4.14,4.14,0,0,1,0,.69v1a10.47,10.47,0,0,0,0,1.32,1.65,1.65,0,0,0,.19.53h-.78A1.6,1.6,0,0,1,136.57,117.09Zm-.06-1.67a5.53,5.53,0,0,1-1.22.28,2.8,2.8,0,0,0-.65.15.64.64,0,0,0-.4.6.64.64,0,0,0,.23.5,1,1,0,0,0,.66.2,1.54,1.54,0,0,0,.77-.19,1.16,1.16,0,0,0,.49-.52,1.81,1.81,0,0,0,.12-.75Z"/><path d="M138.41,117.64v-6.08h.75v6.08Z"/><path d="M140.32,112.41v-.86h.75v.86Zm0,5.23v-4.41h.75v4.41Z"/><path d="M142.38,117.64v-3.83h-.66v-.58h.66v-.47a2.05,2.05,0,0,1,.08-.66,1,1,0,0,1,.38-.47,1.37,1.37,0,0,1,.76-.18,3.67,3.67,0,0,1,.7.08l-.11.65a2.44,2.44,0,0,0-.44,0,.65.65,0,0,0-.48.15.78.78,0,0,0-.14.54v.41H144v.58h-.86v3.83Z"/><path d="M144.57,112.41v-.86h.75v.86Zm0,5.23v-4.41h.75v4.41Z"/><path d="M149.47,116.22l.77.1a1.89,1.89,0,0,1-.68,1.05,2,2,0,0,1-1.26.37,2,2,0,0,1-1.53-.6,2.32,2.32,0,0,1-.57-1.67,2.43,2.43,0,0,1,.57-1.73,1.94,1.94,0,0,1,1.49-.62,1.89,1.89,0,0,1,1.44.6,2.39,2.39,0,0,1,.56,1.69s0,.11,0,.2H147a1.7,1.7,0,0,0,.41,1.11,1.23,1.23,0,0,0,.92.39,1.15,1.15,0,0,0,.7-.22A1.44,1.44,0,0,0,149.47,116.22ZM147,115h2.46a1.49,1.49,0,0,0-.28-.83,1.15,1.15,0,0,0-.93-.43,1.19,1.19,0,0,0-.87.34A1.37,1.37,0,0,0,147,115Z"/><path d="M154,117.64v-.56a1.37,1.37,0,0,1-1.23.66,1.73,1.73,0,0,1-1-.29,1.92,1.92,0,0,1-.68-.81,2.8,2.8,0,0,1-.24-1.2,3.13,3.13,0,0,1,.22-1.2,1.73,1.73,0,0,1,.66-.82,1.77,1.77,0,0,1,1-.29,1.47,1.47,0,0,1,.71.17,1.5,1.5,0,0,1,.51.44v-2.18h.74v6.08Zm-2.36-2.2a1.92,1.92,0,0,0,.36,1.27,1.08,1.08,0,0,0,.84.42,1.06,1.06,0,0,0,.83-.4,1.85,1.85,0,0,0,.34-1.22,2.07,2.07,0,0,0-.35-1.33,1.07,1.07,0,0,0-.86-.42,1,1,0,0,0-.83.41A2,2,0,0,0,151.68,115.44Z"/><path d="M158.27,112.41v-.86H159v.86Zm0,5.23v-4.41H159v4.41Z"/><path d="M160.16,117.64v-4.41h.67v.63a1.59,1.59,0,0,1,1.4-.73,1.85,1.85,0,0,1,.73.14,1.15,1.15,0,0,1,.5.38,1.44,1.44,0,0,1,.23.55,4.29,4.29,0,0,1,0,.73v2.71H163V115a2,2,0,0,0-.09-.68.72.72,0,0,0-.31-.36,1,1,0,0,0-.52-.13,1.21,1.21,0,0,0-.82.3,1.49,1.49,0,0,0-.35,1.15v2.41Z"/><path d="M164.59,116.32l.74-.12a1,1,0,0,0,.35.68,1.21,1.21,0,0,0,.79.24,1.17,1.17,0,0,0,.76-.21.63.63,0,0,0,.25-.49.45.45,0,0,0-.22-.4,3.22,3.22,0,0,0-.76-.25,7,7,0,0,1-1.14-.36,1.09,1.09,0,0,1-.65-1,1.14,1.14,0,0,1,.13-.55,1.2,1.2,0,0,1,.37-.42,1.53,1.53,0,0,1,.47-.22,2.26,2.26,0,0,1,.65-.09,2.55,2.55,0,0,1,.91.15,1.24,1.24,0,0,1,.58.4,1.58,1.58,0,0,1,.26.68l-.73.1a.8.8,0,0,0-.29-.53,1.05,1.05,0,0,0-.67-.19,1.22,1.22,0,0,0-.73.17.5.5,0,0,0-.22.4.42.42,0,0,0,.09.26.66.66,0,0,0,.29.2l.66.19a9.32,9.32,0,0,1,1.11.35,1.12,1.12,0,0,1,.49.39,1.1,1.1,0,0,1,.18.64,1.25,1.25,0,0,1-.22.7,1.4,1.4,0,0,1-.63.51,2.29,2.29,0,0,1-.93.18,2.07,2.07,0,0,1-1.31-.36A1.66,1.66,0,0,1,164.59,116.32Z"/><path d="M170.77,117l.11.66a2.79,2.79,0,0,1-.56.07,1.28,1.28,0,0,1-.63-.13.72.72,0,0,1-.31-.34,2.65,2.65,0,0,1-.09-.88v-2.54h-.55v-.58h.55v-1.09l.74-.45v1.54h.75v.58H170v2.58a1.31,1.31,0,0,0,0,.41.31.31,0,0,0,.13.14.49.49,0,0,0,.25.05Z"/><path d="M174.37,117.09a2.77,2.77,0,0,1-.8.5,2.31,2.31,0,0,1-.82.15,1.6,1.6,0,0,1-1.12-.35,1.17,1.17,0,0,1-.39-.91,1.21,1.21,0,0,1,.15-.59,1.24,1.24,0,0,1,.39-.43,1.81,1.81,0,0,1,.54-.24,5.3,5.3,0,0,1,.66-.11,6.78,6.78,0,0,0,1.33-.26c0-.1,0-.17,0-.2a.83.83,0,0,0-.21-.64,1.25,1.25,0,0,0-.85-.25,1.32,1.32,0,0,0-.78.18,1.12,1.12,0,0,0-.37.65l-.73-.1a1.82,1.82,0,0,1,.33-.76,1.44,1.44,0,0,1,.66-.44,3,3,0,0,1,1-.16,2.66,2.66,0,0,1,.92.13,1.21,1.21,0,0,1,.52.33,1.17,1.17,0,0,1,.23.51,4.14,4.14,0,0,1,0,.69v1a10.47,10.47,0,0,0,0,1.32,1.65,1.65,0,0,0,.19.53h-.78A1.6,1.6,0,0,1,174.37,117.09Zm-.06-1.67a5.53,5.53,0,0,1-1.22.28,2.8,2.8,0,0,0-.65.15.64.64,0,0,0-.4.6.64.64,0,0,0,.23.5,1,1,0,0,0,.66.2,1.54,1.54,0,0,0,.77-.19,1.16,1.16,0,0,0,.49-.52,1.81,1.81,0,0,0,.12-.75Z"/><path d="M176.21,117.64v-6.08H177v6.08Z"/><path d="M178.1,117.64v-6.08h.75v6.08Z"/><path d="M183,116.22l.77.1a1.89,1.89,0,0,1-.68,1.05,2,2,0,0,1-1.26.37,2,2,0,0,1-1.53-.6,2.32,2.32,0,0,1-.57-1.67,2.43,2.43,0,0,1,.57-1.73,1.94,1.94,0,0,1,1.49-.62,1.89,1.89,0,0,1,1.44.6,2.39,2.39,0,0,1,.56,1.69s0,.11,0,.2h-3.29a1.7,1.7,0,0,0,.41,1.11,1.23,1.23,0,0,0,.92.39,1.15,1.15,0,0,0,.7-.22A1.44,1.44,0,0,0,183,116.22ZM180.56,115H183a1.49,1.49,0,0,0-.28-.83,1.15,1.15,0,0,0-.93-.43,1.19,1.19,0,0,0-.87.34A1.37,1.37,0,0,0,180.56,115Z"/><path d="M184.72,117.64v-4.41h.67v.67a1.81,1.81,0,0,1,.47-.62.83.83,0,0,1,.48-.15,1.46,1.46,0,0,1,.77.24l-.26.69a1.06,1.06,0,0,0-.55-.16.72.72,0,0,0-.44.15.79.79,0,0,0-.28.41,2.91,2.91,0,0,0-.12.87v2.31Z"/><path d="M189.64,115.43a2.27,2.27,0,0,1,.68-1.81,2.05,2.05,0,0,1,1.39-.49,2,2,0,0,1,1.49.6,2.27,2.27,0,0,1,.58,1.65,2.91,2.91,0,0,1-.26,1.34,1.8,1.8,0,0,1-.74.76,2.17,2.17,0,0,1-1.06.27,2,2,0,0,1-1.5-.59A2.37,2.37,0,0,1,189.64,115.43Zm.77,0a1.88,1.88,0,0,0,.37,1.27,1.23,1.23,0,0,0,1.85,0,1.93,1.93,0,0,0,.37-1.29,1.82,1.82,0,0,0-.37-1.24,1.23,1.23,0,0,0-1.85,0A1.86,1.86,0,0,0,190.41,115.43Z"/><path d="M194.64,117.64v-4.41h.67v.67a1.81,1.81,0,0,1,.47-.62.83.83,0,0,1,.48-.15,1.46,1.46,0,0,1,.77.24l-.26.69a1.06,1.06,0,0,0-.55-.16.72.72,0,0,0-.44.15.79.79,0,0,0-.28.41,2.91,2.91,0,0,0-.12.87v2.31Z"/><path d="M199.54,116.32l.74-.12a1,1,0,0,0,.35.68,1.21,1.21,0,0,0,.79.24,1.17,1.17,0,0,0,.76-.21.63.63,0,0,0,.25-.49.45.45,0,0,0-.22-.4,3.22,3.22,0,0,0-.76-.25,7,7,0,0,1-1.14-.36,1.09,1.09,0,0,1-.65-1,1.14,1.14,0,0,1,.13-.55,1.2,1.2,0,0,1,.37-.42,1.53,1.53,0,0,1,.47-.22,2.26,2.26,0,0,1,.65-.09,2.55,2.55,0,0,1,.91.15,1.24,1.24,0,0,1,.58.4,1.58,1.58,0,0,1,.26.68l-.73.1a.8.8,0,0,0-.29-.53,1.05,1.05,0,0,0-.67-.19,1.22,1.22,0,0,0-.73.17.5.5,0,0,0-.22.4.42.42,0,0,0,.09.26.66.66,0,0,0,.29.2l.66.19a9.32,9.32,0,0,1,1.11.35,1.12,1.12,0,0,1,.49.39,1.1,1.1,0,0,1,.18.64,1.25,1.25,0,0,1-.22.7,1.4,1.4,0,0,1-.63.51,2.29,2.29,0,0,1-.93.18,2.07,2.07,0,0,1-1.31-.36A1.66,1.66,0,0,1,199.54,116.32Z"/><path d="M207.11,116.22l.77.1a1.89,1.89,0,0,1-.68,1.05,2,2,0,0,1-1.26.37,2,2,0,0,1-1.53-.6,2.32,2.32,0,0,1-.57-1.67,2.43,2.43,0,0,1,.57-1.73,1.94,1.94,0,0,1,1.49-.62,1.89,1.89,0,0,1,1.44.6,2.39,2.39,0,0,1,.56,1.69s0,.11,0,.2h-3.29a1.7,1.7,0,0,0,.41,1.11,1.23,1.23,0,0,0,.92.39,1.15,1.15,0,0,0,.7-.22A1.44,1.44,0,0,0,207.11,116.22ZM204.65,115h2.46a1.49,1.49,0,0,0-.28-.83,1.15,1.15,0,0,0-.93-.43,1.19,1.19,0,0,0-.87.34A1.37,1.37,0,0,0,204.65,115Z"/><path d="M208.81,117.64v-4.41h.67v.67a1.81,1.81,0,0,1,.47-.62.83.83,0,0,1,.48-.15,1.46,1.46,0,0,1,.77.24l-.26.69a1.06,1.06,0,0,0-.55-.16.72.72,0,0,0-.44.15.79.79,0,0,0-.28.41,2.91,2.91,0,0,0-.12.87v2.31Z"/><path d="M212.87,117.64l-1.68-4.41H212l.95,2.64q.15.43.28.89.1-.35.28-.84l1-2.69h.77l-1.67,4.41Z"/><path d="M215.9,112.41v-.86h.75v.86Zm0,5.23v-4.41h.75v4.41Z"/><path d="M220.66,116l.73.09a1.9,1.9,0,0,1-.62,1.19,1.79,1.79,0,0,1-1.22.43,1.89,1.89,0,0,1-1.46-.59,2.4,2.4,0,0,1-.55-1.7,3.07,3.07,0,0,1,.24-1.25,1.66,1.66,0,0,1,.72-.8,2.14,2.14,0,0,1,1.05-.27,1.83,1.83,0,0,1,1.17.36,1.67,1.67,0,0,1,.58,1l-.73.11a1.21,1.21,0,0,0-.37-.67,1,1,0,0,0-.64-.22,1.16,1.16,0,0,0-.92.4,1.92,1.92,0,0,0-.35,1.28,2,2,0,0,0,.34,1.29,1.11,1.11,0,0,0,.89.4,1,1,0,0,0,.73-.27A1.34,1.34,0,0,0,220.66,116Z"/><path d="M225.05,116.22l.77.1a1.89,1.89,0,0,1-.68,1.05,2,2,0,0,1-1.26.37,2,2,0,0,1-1.53-.6,2.32,2.32,0,0,1-.57-1.67,2.43,2.43,0,0,1,.57-1.73,1.94,1.94,0,0,1,1.49-.62,1.89,1.89,0,0,1,1.44.6,2.39,2.39,0,0,1,.56,1.69s0,.11,0,.2h-3.29a1.7,1.7,0,0,0,.41,1.11,1.23,1.23,0,0,0,.92.39,1.15,1.15,0,0,0,.7-.22A1.44,1.44,0,0,0,225.05,116.22ZM222.6,115h2.46a1.49,1.49,0,0,0-.28-.83,1.15,1.15,0,0,0-.93-.43,1.19,1.19,0,0,0-.87.34A1.37,1.37,0,0,0,222.6,115Z"/><path d="M88.38,127.29a2.78,2.78,0,0,1-.8.5,2.31,2.31,0,0,1-.82.15,1.6,1.6,0,0,1-1.12-.35,1.17,1.17,0,0,1-.39-.91,1.21,1.21,0,0,1,.15-.59,1.23,1.23,0,0,1,.39-.43,1.81,1.81,0,0,1,.54-.24,5.3,5.3,0,0,1,.66-.11,6.85,6.85,0,0,0,1.33-.26c0-.1,0-.17,0-.2a.83.83,0,0,0-.21-.64,1.25,1.25,0,0,0-.85-.25,1.32,1.32,0,0,0-.78.18,1.13,1.13,0,0,0-.37.65l-.73-.1a1.81,1.81,0,0,1,.33-.76,1.43,1.43,0,0,1,.66-.44,3,3,0,0,1,1-.16,2.66,2.66,0,0,1,.92.13,1.21,1.21,0,0,1,.52.33,1.17,1.17,0,0,1,.23.51,4.21,4.21,0,0,1,0,.69v1a10.61,10.61,0,0,0,0,1.32,1.65,1.65,0,0,0,.19.53h-.78A1.58,1.58,0,0,1,88.38,127.29Zm-.06-1.67a5.53,5.53,0,0,1-1.22.28,2.79,2.79,0,0,0-.65.15.65.65,0,0,0-.17,1.1,1,1,0,0,0,.66.2,1.54,1.54,0,0,0,.77-.19,1.16,1.16,0,0,0,.49-.52,1.81,1.81,0,0,0,.12-.75Z"/><path d="M90.09,128.2l.73.11a.69.69,0,0,0,.25.49,1.24,1.24,0,0,0,.76.21,1.33,1.33,0,0,0,.8-.21,1,1,0,0,0,.38-.58,4.81,4.81,0,0,0,.05-1,1.54,1.54,0,0,1-1.22.58,1.66,1.66,0,0,1-1.41-.66,2.52,2.52,0,0,1-.5-1.57,2.93,2.93,0,0,1,.23-1.16,1.83,1.83,0,0,1,.66-.82,1.79,1.79,0,0,1,1-.29,1.58,1.58,0,0,1,1.29.63v-.53h.69v3.81a3.61,3.61,0,0,1-.21,1.46,1.54,1.54,0,0,1-.66.68,2.3,2.3,0,0,1-1.12.25,2.1,2.1,0,0,1-1.27-.36A1.2,1.2,0,0,1,90.09,128.2Zm.62-2.65a1.91,1.91,0,0,0,.34,1.27,1.09,1.09,0,0,0,.86.4,1.11,1.11,0,0,0,.86-.4,1.85,1.85,0,0,0,.35-1.24,1.81,1.81,0,0,0-.36-1.22,1.11,1.11,0,0,0-.87-.41,1.08,1.08,0,0,0-.85.4A1.8,1.8,0,0,0,90.71,125.55Z"/><path d="M98,126.42l.77.1a1.89,1.89,0,0,1-.68,1.05,2,2,0,0,1-1.26.37,2,2,0,0,1-1.53-.6,2.32,2.32,0,0,1-.57-1.67,2.43,2.43,0,0,1,.57-1.73,1.94,1.94,0,0,1,1.49-.62,1.89,1.89,0,0,1,1.44.6,2.39,2.39,0,0,1,.56,1.69s0,.11,0,.2H95.48a1.7,1.7,0,0,0,.41,1.11,1.22,1.22,0,0,0,.92.39,1.15,1.15,0,0,0,.7-.22A1.43,1.43,0,0,0,98,126.42Zm-2.45-1.21H98a1.49,1.49,0,0,0-.28-.83,1.14,1.14,0,0,0-.93-.43,1.19,1.19,0,0,0-.87.34A1.36,1.36,0,0,0,95.52,125.21Z"/><path d="M99.68,127.84v-4.41h.67v.63a1.59,1.59,0,0,1,1.4-.73,1.84,1.84,0,0,1,.73.14,1.15,1.15,0,0,1,.5.38,1.44,1.44,0,0,1,.23.55,4.27,4.27,0,0,1,0,.73v2.71h-.75v-2.68a2,2,0,0,0-.09-.68.72.72,0,0,0-.31-.36,1,1,0,0,0-.52-.13,1.21,1.21,0,0,0-.82.3,1.49,1.49,0,0,0-.35,1.15v2.41Z"/><path d="M107.29,126.22l.73.09a1.9,1.9,0,0,1-.62,1.19,1.8,1.8,0,0,1-1.22.43,1.89,1.89,0,0,1-1.46-.59,2.4,2.4,0,0,1-.55-1.7,3.07,3.07,0,0,1,.24-1.25,1.65,1.65,0,0,1,.72-.8,2.14,2.14,0,0,1,1.05-.27,1.83,1.83,0,0,1,1.17.36,1.67,1.67,0,0,1,.58,1l-.73.11a1.2,1.2,0,0,0-.37-.67,1,1,0,0,0-.64-.22,1.16,1.16,0,0,0-.92.4,1.92,1.92,0,0,0-.35,1.28,2,2,0,0,0,.34,1.29,1.11,1.11,0,0,0,.89.4,1,1,0,0,0,.73-.27A1.34,1.34,0,0,0,107.29,126.22Z"/><path d="M108.63,129.53l-.08-.7a1.68,1.68,0,0,0,.43.07.82.82,0,0,0,.4-.08.68.68,0,0,0,.24-.23,3.62,3.62,0,0,0,.23-.56l.07-.18-1.67-4.42H109L110,126q.18.49.32,1a10.06,10.06,0,0,1,.31-1l.94-2.57h.75l-1.68,4.48a8.77,8.77,0,0,1-.42,1,1.47,1.47,0,0,1-.46.54,1.08,1.08,0,0,1-.61.17A1.48,1.48,0,0,1,108.63,129.53Z"/><path d="M115.45,127.84V124h-.66v-.58h.66V123a2.05,2.05,0,0,1,.08-.66,1,1,0,0,1,.38-.47,1.37,1.37,0,0,1,.76-.18,3.67,3.67,0,0,1,.7.08l-.11.65a2.54,2.54,0,0,0-.44,0,.65.65,0,0,0-.48.15.78.78,0,0,0-.14.54v.41h.86V124h-.86v3.83Z"/><path d="M117.35,125.63a2.27,2.27,0,0,1,.68-1.81,2.05,2.05,0,0,1,1.39-.49,2,2,0,0,1,1.49.6,2.27,2.27,0,0,1,.58,1.65,2.91,2.91,0,0,1-.26,1.34,1.8,1.8,0,0,1-.74.76,2.17,2.17,0,0,1-1.06.27,2,2,0,0,1-1.5-.59A2.37,2.37,0,0,1,117.35,125.63Zm.77,0a1.88,1.88,0,0,0,.37,1.27,1.23,1.23,0,0,0,1.85,0,1.93,1.93,0,0,0,.37-1.29,1.82,1.82,0,0,0-.37-1.24,1.23,1.23,0,0,0-1.85,0A1.86,1.86,0,0,0,118.12,125.63Z"/><path d="M122.35,127.84v-4.41H123v.67a1.82,1.82,0,0,1,.47-.62.83.83,0,0,1,.48-.15,1.46,1.46,0,0,1,.77.24l-.26.69a1.06,1.06,0,0,0-.55-.16.71.71,0,0,0-.44.15.79.79,0,0,0-.28.41,2.91,2.91,0,0,0-.12.87v2.31Z"/><path d="M127.56,122.61v-.86h.75v.86Zm0,5.23v-4.41h.75v4.41Z"/><path d="M129.44,127.84v-4.41h.67v.63a1.59,1.59,0,0,1,1.4-.73,1.84,1.84,0,0,1,.73.14,1.15,1.15,0,0,1,.5.38,1.44,1.44,0,0,1,.23.55,4.31,4.31,0,0,1,0,.73v2.71h-.75v-2.68a2,2,0,0,0-.09-.68.72.72,0,0,0-.31-.36,1,1,0,0,0-.52-.13,1.21,1.21,0,0,0-.82.3,1.49,1.49,0,0,0-.35,1.15v2.41Z"/><path d="M133.87,126.52l.74-.12a1,1,0,0,0,.35.68,1.21,1.21,0,0,0,.79.24,1.17,1.17,0,0,0,.76-.21.63.63,0,0,0,.25-.49.45.45,0,0,0-.22-.4,3.22,3.22,0,0,0-.76-.25,7.05,7.05,0,0,1-1.14-.36,1.09,1.09,0,0,1-.65-1,1.14,1.14,0,0,1,.13-.55,1.21,1.21,0,0,1,.37-.42,1.53,1.53,0,0,1,.47-.22,2.26,2.26,0,0,1,.65-.09,2.55,2.55,0,0,1,.91.15,1.24,1.24,0,0,1,.58.4,1.58,1.58,0,0,1,.26.68l-.73.1a.8.8,0,0,0-.29-.53,1.06,1.06,0,0,0-.67-.19,1.22,1.22,0,0,0-.73.17.5.5,0,0,0-.22.4.42.42,0,0,0,.09.26.66.66,0,0,0,.29.2l.66.19a9.32,9.32,0,0,1,1.11.35,1.12,1.12,0,0,1,.49.39,1.1,1.1,0,0,1,.18.64,1.25,1.25,0,0,1-.22.7,1.4,1.4,0,0,1-.63.51,2.29,2.29,0,0,1-.93.18,2.07,2.07,0,0,1-1.31-.36A1.66,1.66,0,0,1,133.87,126.52Z"/><path d="M140,127.17l.11.66a2.79,2.79,0,0,1-.56.07,1.28,1.28,0,0,1-.63-.13.72.72,0,0,1-.31-.34,2.65,2.65,0,0,1-.09-.88V124H138v-.58h.55v-1.09l.74-.45v1.54H140V124h-.75v2.58a1.31,1.31,0,0,0,0,.41.31.31,0,0,0,.13.14.49.49,0,0,0,.25.05Z"/><path d="M143.66,127.29a2.77,2.77,0,0,1-.8.5,2.31,2.31,0,0,1-.82.15,1.6,1.6,0,0,1-1.12-.35,1.17,1.17,0,0,1-.39-.91,1.21,1.21,0,0,1,.15-.59,1.24,1.24,0,0,1,.39-.43,1.81,1.81,0,0,1,.54-.24,5.3,5.3,0,0,1,.66-.11,6.85,6.85,0,0,0,1.33-.26c0-.1,0-.17,0-.2a.83.83,0,0,0-.21-.64,1.25,1.25,0,0,0-.85-.25,1.32,1.32,0,0,0-.78.18,1.12,1.12,0,0,0-.37.65l-.73-.1a1.81,1.81,0,0,1,.33-.76,1.43,1.43,0,0,1,.66-.44,3,3,0,0,1,1-.16,2.66,2.66,0,0,1,.92.13,1.2,1.2,0,0,1,.52.33,1.16,1.16,0,0,1,.23.51,4.14,4.14,0,0,1,0,.69v1a10.47,10.47,0,0,0,0,1.32,1.65,1.65,0,0,0,.19.53h-.78A1.6,1.6,0,0,1,143.66,127.29Zm-.06-1.67a5.53,5.53,0,0,1-1.22.28,2.8,2.8,0,0,0-.65.15.64.64,0,0,0-.4.6.64.64,0,0,0,.23.5,1,1,0,0,0,.66.2,1.54,1.54,0,0,0,.77-.19,1.16,1.16,0,0,0,.49-.52,1.81,1.81,0,0,0,.12-.75Z"/><path d="M145.49,127.84v-6.08h.75v6.08Z"/><path d="M147.38,127.84v-6.08h.75v6.08Z"/><path d="M152.16,127.29a2.77,2.77,0,0,1-.8.5,2.31,2.31,0,0,1-.82.15,1.6,1.6,0,0,1-1.12-.35,1.17,1.17,0,0,1-.39-.91,1.21,1.21,0,0,1,.15-.59,1.24,1.24,0,0,1,.39-.43,1.81,1.81,0,0,1,.54-.24,5.3,5.3,0,0,1,.66-.11,6.85,6.85,0,0,0,1.33-.26c0-.1,0-.17,0-.2a.83.83,0,0,0-.21-.64,1.25,1.25,0,0,0-.85-.25,1.32,1.32,0,0,0-.78.18,1.12,1.12,0,0,0-.37.65l-.73-.1a1.81,1.81,0,0,1,.33-.76,1.43,1.43,0,0,1,.66-.44,3,3,0,0,1,1-.16,2.66,2.66,0,0,1,.92.13,1.2,1.2,0,0,1,.52.33,1.16,1.16,0,0,1,.23.51,4.14,4.14,0,0,1,0,.69v1a10.47,10.47,0,0,0,0,1.32,1.65,1.65,0,0,0,.19.53h-.78A1.6,1.6,0,0,1,152.16,127.29Zm-.06-1.67a5.53,5.53,0,0,1-1.22.28,2.8,2.8,0,0,0-.65.15.64.64,0,0,0-.4.6.64.64,0,0,0,.23.5,1,1,0,0,0,.66.2,1.54,1.54,0,0,0,.77-.19,1.16,1.16,0,0,0,.49-.52,1.81,1.81,0,0,0,.12-.75Z"/><path d="M155.64,127.17l.11.66a2.79,2.79,0,0,1-.56.07,1.28,1.28,0,0,1-.63-.13.72.72,0,0,1-.31-.34,2.65,2.65,0,0,1-.09-.88V124h-.55v-.58h.55v-1.09l.74-.45v1.54h.75V124h-.75v2.58a1.31,1.31,0,0,0,0,.41.31.31,0,0,0,.13.14.49.49,0,0,0,.25.05Z"/><path d="M156.38,122.61v-.86h.75v.86Zm0,5.23v-4.41h.75v4.41Z"/><path d="M158,125.63a2.27,2.27,0,0,1,.68-1.81,2.05,2.05,0,0,1,1.39-.49,2,2,0,0,1,1.49.6,2.27,2.27,0,0,1,.58,1.65,2.91,2.91,0,0,1-.26,1.34,1.8,1.8,0,0,1-.74.76,2.17,2.17,0,0,1-1.06.27,2,2,0,0,1-1.5-.59A2.37,2.37,0,0,1,158,125.63Zm.77,0a1.88,1.88,0,0,0,.37,1.27,1.23,1.23,0,0,0,1.85,0,1.93,1.93,0,0,0,.37-1.29,1.82,1.82,0,0,0-.37-1.24,1.23,1.23,0,0,0-1.85,0A1.86,1.86,0,0,0,158.75,125.63Z"/><path d="M163,127.84v-4.41h.67v.63a1.59,1.59,0,0,1,1.4-.73,1.84,1.84,0,0,1,.73.14,1.15,1.15,0,0,1,.5.38,1.44,1.44,0,0,1,.23.55,4.31,4.31,0,0,1,0,.73v2.71h-.75v-2.68a2,2,0,0,0-.09-.68.72.72,0,0,0-.31-.36,1,1,0,0,0-.52-.13,1.21,1.21,0,0,0-.82.3,1.49,1.49,0,0,0-.35,1.15v2.41Z"/><path d="M173,127.29a2.77,2.77,0,0,1-.8.5,2.31,2.31,0,0,1-.82.15,1.6,1.6,0,0,1-1.12-.35,1.17,1.17,0,0,1-.39-.91,1.21,1.21,0,0,1,.15-.59,1.24,1.24,0,0,1,.39-.43,1.81,1.81,0,0,1,.54-.24,5.3,5.3,0,0,1,.66-.11,6.85,6.85,0,0,0,1.33-.26c0-.1,0-.17,0-.2a.83.83,0,0,0-.21-.64,1.25,1.25,0,0,0-.85-.25,1.32,1.32,0,0,0-.78.18,1.12,1.12,0,0,0-.37.65l-.73-.1a1.81,1.81,0,0,1,.33-.76,1.43,1.43,0,0,1,.66-.44,3,3,0,0,1,1-.16,2.66,2.66,0,0,1,.92.13,1.2,1.2,0,0,1,.52.33,1.16,1.16,0,0,1,.23.51,4.14,4.14,0,0,1,0,.69v1a10.47,10.47,0,0,0,0,1.32,1.65,1.65,0,0,0,.19.53h-.78A1.6,1.6,0,0,1,173,127.29Zm-.06-1.67a5.53,5.53,0,0,1-1.22.28,2.8,2.8,0,0,0-.65.15.64.64,0,0,0-.4.6.64.64,0,0,0,.23.5,1,1,0,0,0,.66.2,1.54,1.54,0,0,0,.77-.19,1.16,1.16,0,0,0,.49-.52,1.81,1.81,0,0,0,.12-.75Z"/><path d="M174.8,127.84v-4.41h.67v.63a1.59,1.59,0,0,1,1.4-.73,1.84,1.84,0,0,1,.73.14,1.15,1.15,0,0,1,.5.38,1.44,1.44,0,0,1,.23.55,4.31,4.31,0,0,1,0,.73v2.71h-.75v-2.68a2,2,0,0,0-.09-.68.72.72,0,0,0-.31-.36,1,1,0,0,0-.52-.13,1.21,1.21,0,0,0-.82.3,1.49,1.49,0,0,0-.35,1.15v2.41Z"/><path d="M182.39,127.84v-.56a1.37,1.37,0,0,1-1.23.66,1.73,1.73,0,0,1-1-.29,1.92,1.92,0,0,1-.68-.81,2.8,2.8,0,0,1-.24-1.2,3.14,3.14,0,0,1,.22-1.2,1.73,1.73,0,0,1,.66-.82,1.77,1.77,0,0,1,1-.29,1.48,1.48,0,0,1,1.22.61v-2.18h.74v6.08Zm-2.36-2.2a1.92,1.92,0,0,0,.36,1.27,1.08,1.08,0,0,0,.84.42,1.06,1.06,0,0,0,.83-.4,1.85,1.85,0,0,0,.34-1.22,2.07,2.07,0,0,0-.35-1.33,1.07,1.07,0,0,0-.86-.42,1,1,0,0,0-.83.41A2,2,0,0,0,180,125.64Z"/><path d="M186.32,126.52l.74-.12a1,1,0,0,0,.35.68,1.21,1.21,0,0,0,.79.24,1.17,1.17,0,0,0,.76-.21.63.63,0,0,0,.25-.49.45.45,0,0,0-.22-.4,3.22,3.22,0,0,0-.76-.25,7.05,7.05,0,0,1-1.14-.36,1.09,1.09,0,0,1-.65-1,1.14,1.14,0,0,1,.13-.55,1.21,1.21,0,0,1,.37-.42,1.53,1.53,0,0,1,.47-.22,2.26,2.26,0,0,1,.65-.09,2.55,2.55,0,0,1,.91.15,1.24,1.24,0,0,1,.58.4,1.58,1.58,0,0,1,.26.68l-.73.1a.8.8,0,0,0-.29-.53,1.06,1.06,0,0,0-.67-.19,1.22,1.22,0,0,0-.73.17.5.5,0,0,0-.22.4.42.42,0,0,0,.09.26.66.66,0,0,0,.29.2l.66.19a9.32,9.32,0,0,1,1.11.35,1.12,1.12,0,0,1,.49.39,1.1,1.1,0,0,1,.18.64,1.25,1.25,0,0,1-.22.7,1.4,1.4,0,0,1-.63.51,2.29,2.29,0,0,1-.93.18,2.07,2.07,0,0,1-1.31-.36A1.66,1.66,0,0,1,186.32,126.52Z"/><path d="M193.89,126.42l.77.1a1.89,1.89,0,0,1-.68,1.05,2,2,0,0,1-1.26.37,2,2,0,0,1-1.53-.6,2.32,2.32,0,0,1-.57-1.67,2.43,2.43,0,0,1,.57-1.73,1.94,1.94,0,0,1,1.49-.62,1.89,1.89,0,0,1,1.44.6,2.39,2.39,0,0,1,.56,1.69s0,.11,0,.2h-3.29a1.7,1.7,0,0,0,.41,1.11,1.23,1.23,0,0,0,.92.39,1.15,1.15,0,0,0,.7-.22A1.44,1.44,0,0,0,193.89,126.42Zm-2.45-1.21h2.46a1.49,1.49,0,0,0-.28-.83,1.15,1.15,0,0,0-.93-.43,1.19,1.19,0,0,0-.87.34A1.36,1.36,0,0,0,191.43,125.21Z"/><path d="M195.59,127.84v-4.41h.67v.67a1.82,1.82,0,0,1,.47-.62.83.83,0,0,1,.48-.15,1.46,1.46,0,0,1,.77.24l-.26.69a1.06,1.06,0,0,0-.55-.16.71.71,0,0,0-.44.15.79.79,0,0,0-.28.41,2.91,2.91,0,0,0-.12.87v2.31Z"/><path d="M199.65,127.84,198,123.43h.79l.95,2.64q.15.43.28.89.1-.35.28-.84l1-2.69H202l-1.67,4.41Z"/><path d="M202.68,122.61v-.86h.75v.86Zm0,5.23v-4.41h.75v4.41Z"/><path d="M207.44,126.22l.73.09a1.9,1.9,0,0,1-.62,1.19,1.79,1.79,0,0,1-1.22.43,1.89,1.89,0,0,1-1.46-.59,2.4,2.4,0,0,1-.55-1.7,3.07,3.07,0,0,1,.24-1.25,1.65,1.65,0,0,1,.72-.8,2.13,2.13,0,0,1,1.05-.27,1.83,1.83,0,0,1,1.17.36,1.67,1.67,0,0,1,.58,1l-.73.11a1.21,1.21,0,0,0-.37-.67,1,1,0,0,0-.64-.22,1.16,1.16,0,0,0-.92.4,1.92,1.92,0,0,0-.35,1.28,2,2,0,0,0,.34,1.29,1.11,1.11,0,0,0,.89.4,1,1,0,0,0,.73-.27A1.34,1.34,0,0,0,207.44,126.22Z"/><path d="M211.83,126.42l.77.1a1.89,1.89,0,0,1-.68,1.05,2,2,0,0,1-1.26.37,2,2,0,0,1-1.53-.6,2.32,2.32,0,0,1-.57-1.67,2.43,2.43,0,0,1,.57-1.73,1.94,1.94,0,0,1,1.49-.62,1.89,1.89,0,0,1,1.44.6,2.39,2.39,0,0,1,.56,1.69s0,.11,0,.2h-3.29a1.7,1.7,0,0,0,.41,1.11,1.23,1.23,0,0,0,.92.39,1.15,1.15,0,0,0,.7-.22A1.44,1.44,0,0,0,211.83,126.42Zm-2.45-1.21h2.46a1.49,1.49,0,0,0-.28-.83,1.15,1.15,0,0,0-.93-.43,1.19,1.19,0,0,0-.87.34A1.36,1.36,0,0,0,209.38,125.21Z"/><path d="M213.75,127.84V127h.85v.85Z"/></g><g id="text"><circle cx="79.4" cy="48.53" r="1.76"/><circle cx="79.4" cy="79.64" r="1.76"/><circle cx="79.4" cy="102.64" r="1.76"/><circle cx="79.4" cy="114.97" r="1.76"/><path d="M85.61,83.24V77.15H90v.72H86.42v1.86h3.37v.71H86.42v2.07h3.74v.72Z"/><path d="M90.67,83.24l1.61-2.29-1.49-2.12h.93l.68,1,.31.49.34-.49.74-1h.89L93.16,80.9l1.64,2.33h-.92L93,81.87l-.24-.37-1.16,1.74Z"/><path d="M98.29,81.62l.73.1a1.91,1.91,0,0,1-.62,1.19,1.8,1.8,0,0,1-1.22.43,1.89,1.89,0,0,1-1.46-.59,2.4,2.4,0,0,1-.55-1.7,3.08,3.08,0,0,1,.24-1.25,1.65,1.65,0,0,1,.72-.8,2.14,2.14,0,0,1,1.05-.27,1.83,1.83,0,0,1,1.17.36,1.67,1.67,0,0,1,.58,1l-.73.11a1.21,1.21,0,0,0-.37-.67,1,1,0,0,0-.64-.22,1.16,1.16,0,0,0-.92.41A1.92,1.92,0,0,0,96,81a2,2,0,0,0,.34,1.29,1.11,1.11,0,0,0,.89.4,1,1,0,0,0,.73-.27A1.34,1.34,0,0,0,98.29,81.62Z"/><path d="M102.69,81.82l.77.1a1.88,1.88,0,0,1-.68,1,2.29,2.29,0,0,1-2.79-.22,2.33,2.33,0,0,1-.57-1.67,2.44,2.44,0,0,1,.57-1.73,1.94,1.94,0,0,1,1.49-.61,1.89,1.89,0,0,1,1.44.6,2.39,2.39,0,0,1,.56,1.69s0,.11,0,.2h-3.29a1.7,1.7,0,0,0,.41,1.11,1.23,1.23,0,0,0,.92.38,1.15,1.15,0,0,0,.7-.21A1.44,1.44,0,0,0,102.69,81.82Zm-2.45-1.21h2.46a1.5,1.5,0,0,0-.28-.83,1.14,1.14,0,0,0-.93-.43,1.18,1.18,0,0,0-.87.34A1.36,1.36,0,0,0,100.23,80.61Z"/><path d="M104.1,81.92l.74-.12a1,1,0,0,0,.35.68,1.21,1.21,0,0,0,.79.24,1.17,1.17,0,0,0,.76-.21A.63.63,0,0,0,107,82a.46.46,0,0,0-.22-.4,3.26,3.26,0,0,0-.76-.25,7,7,0,0,1-1.14-.36,1.09,1.09,0,0,1-.65-1,1.14,1.14,0,0,1,.14-.54,1.21,1.21,0,0,1,.37-.42,1.51,1.51,0,0,1,.48-.22,2.23,2.23,0,0,1,.65-.09,2.55,2.55,0,0,1,.91.15,1.24,1.24,0,0,1,.58.41,1.58,1.58,0,0,1,.26.68l-.73.1a.8.8,0,0,0-.29-.53,1.06,1.06,0,0,0-.67-.19,1.21,1.21,0,0,0-.73.17.5.5,0,0,0-.22.4.41.41,0,0,0,.09.26.66.66,0,0,0,.29.2l.66.19a9.24,9.24,0,0,1,1.11.35,1.13,1.13,0,0,1,.49.39,1.09,1.09,0,0,1,.18.64,1.26,1.26,0,0,1-.22.7,1.4,1.4,0,0,1-.63.51,2.27,2.27,0,0,1-.93.18,2.07,2.07,0,0,1-1.31-.36A1.66,1.66,0,0,1,104.1,81.92Z"/><path d="M108.35,81.92l.74-.12a1,1,0,0,0,.35.68,1.21,1.21,0,0,0,.79.24,1.17,1.17,0,0,0,.76-.21.63.63,0,0,0,.25-.49.46.46,0,0,0-.22-.4,3.26,3.26,0,0,0-.76-.25,7,7,0,0,1-1.14-.36,1.09,1.09,0,0,1-.65-1,1.14,1.14,0,0,1,.14-.54A1.21,1.21,0,0,1,109,79a1.51,1.51,0,0,1,.48-.22,2.23,2.23,0,0,1,.65-.09,2.55,2.55,0,0,1,.91.15,1.24,1.24,0,0,1,.58.41,1.58,1.58,0,0,1,.26.68l-.73.1a.8.8,0,0,0-.29-.53,1.06,1.06,0,0,0-.67-.19,1.21,1.21,0,0,0-.73.17.5.5,0,0,0-.22.4.41.41,0,0,0,.09.26.66.66,0,0,0,.29.2l.66.19a9.24,9.24,0,0,1,1.11.35,1.13,1.13,0,0,1,.49.39,1.09,1.09,0,0,1,.18.64,1.26,1.26,0,0,1-.22.7,1.4,1.4,0,0,1-.63.51,2.27,2.27,0,0,1-.93.18,2.07,2.07,0,0,1-1.31-.36A1.66,1.66,0,0,1,108.35,81.92Z"/><path d="M112.9,78v-.86h.75V78Zm0,5.23V78.83h.75v4.41Z"/><path d="M116,83.24l-1.68-4.41h.79l.95,2.64q.15.43.28.89.1-.35.28-.84l1-2.69h.77l-1.67,4.41Z"/><path d="M122.05,81.82l.77.1a1.88,1.88,0,0,1-.68,1,2.29,2.29,0,0,1-2.79-.22,2.33,2.33,0,0,1-.57-1.67,2.44,2.44,0,0,1,.57-1.73,1.94,1.94,0,0,1,1.49-.61,1.89,1.89,0,0,1,1.44.6,2.39,2.39,0,0,1,.56,1.69s0,.11,0,.2h-3.29a1.7,1.7,0,0,0,.41,1.11,1.23,1.23,0,0,0,.92.38,1.15,1.15,0,0,0,.7-.21A1.44,1.44,0,0,0,122.05,81.82Zm-2.45-1.21h2.46a1.5,1.5,0,0,0-.28-.83,1.14,1.14,0,0,0-.93-.43,1.18,1.18,0,0,0-.87.34A1.36,1.36,0,0,0,119.6,80.61Z"/><path d="M126,83.6l.73.11a.7.7,0,0,0,.25.49,1.25,1.25,0,0,0,.76.21,1.34,1.34,0,0,0,.8-.21,1,1,0,0,0,.38-.58,4.81,4.81,0,0,0,.05-1,1.54,1.54,0,0,1-1.22.58,1.66,1.66,0,0,1-1.41-.66,2.52,2.52,0,0,1-.5-1.57,2.92,2.92,0,0,1,.23-1.17,1.83,1.83,0,0,1,.66-.82,1.78,1.78,0,0,1,1-.29,1.58,1.58,0,0,1,1.29.63v-.53h.69v3.81a3.62,3.62,0,0,1-.21,1.46,1.54,1.54,0,0,1-.66.68,2.3,2.3,0,0,1-1.12.25,2.11,2.11,0,0,1-1.27-.36A1.2,1.2,0,0,1,126,83.6ZM126.6,81a1.91,1.91,0,0,0,.34,1.27,1.14,1.14,0,0,0,1.73,0A1.85,1.85,0,0,0,129,81a1.81,1.81,0,0,0-.36-1.22,1.11,1.11,0,0,0-.87-.41,1.08,1.08,0,0,0-.85.4A1.8,1.8,0,0,0,126.6,81Z"/><path d="M133.73,82.69a2.74,2.74,0,0,1-.8.5,2.29,2.29,0,0,1-.82.15A1.6,1.6,0,0,1,131,83a1.17,1.17,0,0,1-.39-.91,1.22,1.22,0,0,1,.53-1,1.8,1.8,0,0,1,.54-.24,5.45,5.45,0,0,1,.66-.11,6.78,6.78,0,0,0,1.33-.26c0-.1,0-.17,0-.19a.83.83,0,0,0-.21-.64,1.26,1.26,0,0,0-.85-.25,1.32,1.32,0,0,0-.78.18,1.13,1.13,0,0,0-.37.65l-.73-.1a1.81,1.81,0,0,1,.33-.76,1.43,1.43,0,0,1,.66-.44,2.93,2.93,0,0,1,1-.16,2.66,2.66,0,0,1,.92.13,1.2,1.2,0,0,1,.52.33,1.19,1.19,0,0,1,.23.51,4.29,4.29,0,0,1,0,.69v1a10.77,10.77,0,0,0,0,1.32,1.7,1.7,0,0,0,.19.53h-.78A1.58,1.58,0,0,1,133.73,82.69ZM133.66,81a5.48,5.48,0,0,1-1.22.28,2.79,2.79,0,0,0-.65.15.65.65,0,0,0-.29.24.66.66,0,0,0,.12.85,1,1,0,0,0,.66.2,1.54,1.54,0,0,0,.77-.19,1.16,1.16,0,0,0,.49-.52,1.81,1.81,0,0,0,.12-.75Z"/><path d="M135.28,81.92l.74-.12a1,1,0,0,0,.35.68,1.21,1.21,0,0,0,.79.24,1.17,1.17,0,0,0,.76-.21.63.63,0,0,0,.25-.49.46.46,0,0,0-.22-.4,3.25,3.25,0,0,0-.76-.25A7,7,0,0,1,136,81a1.09,1.09,0,0,1-.65-1,1.14,1.14,0,0,1,.14-.54,1.21,1.21,0,0,1,.37-.42,1.51,1.51,0,0,1,.48-.22,2.22,2.22,0,0,1,.64-.09,2.56,2.56,0,0,1,.91.15,1.24,1.24,0,0,1,.58.41,1.57,1.57,0,0,1,.26.68l-.73.1a.8.8,0,0,0-.29-.53,1.05,1.05,0,0,0-.67-.19,1.21,1.21,0,0,0-.73.17.5.5,0,0,0-.22.4.41.41,0,0,0,.09.26.66.66,0,0,0,.29.2l.66.19a9.24,9.24,0,0,1,1.11.35,1.12,1.12,0,0,1,.49.39,1.09,1.09,0,0,1,.18.64,1.25,1.25,0,0,1-.22.7,1.39,1.39,0,0,1-.63.51,2.27,2.27,0,0,1-.93.18,2.07,2.07,0,0,1-1.31-.36A1.65,1.65,0,0,1,135.28,81.92Z"/><path d="M142.19,84.93v-6.1h.68v.57a1.67,1.67,0,0,1,.54-.5,1.5,1.5,0,0,1,.73-.17,1.74,1.74,0,0,1,1,.29,1.78,1.78,0,0,1,.65.82A3,3,0,0,1,146,81a3,3,0,0,1-.24,1.22,1.83,1.83,0,0,1-.71.83,1.81,1.81,0,0,1-1,.29,1.4,1.4,0,0,1-.67-.16,1.54,1.54,0,0,1-.49-.4v2.15Zm.68-3.87a1.92,1.92,0,0,0,.34,1.26,1.06,1.06,0,0,0,.83.41,1.08,1.08,0,0,0,.85-.42,2,2,0,0,0,.35-1.31,2,2,0,0,0-.35-1.26,1,1,0,0,0-.83-.42,1.08,1.08,0,0,0-.85.45A2,2,0,0,0,142.87,81.06Z"/><path d="M146.91,83.24V78.83h.67v.67a1.82,1.82,0,0,1,.48-.62.83.83,0,0,1,.48-.15,1.46,1.46,0,0,1,.77.24l-.26.69a1.07,1.07,0,0,0-.55-.16.71.71,0,0,0-.44.15.8.8,0,0,0-.28.41,2.94,2.94,0,0,0-.12.87v2.31Z"/><path d="M152.76,81.82l.77.1a1.88,1.88,0,0,1-.68,1,2.29,2.29,0,0,1-2.79-.22,2.33,2.33,0,0,1-.57-1.67,2.44,2.44,0,0,1,.57-1.73,1.94,1.94,0,0,1,1.49-.61,1.89,1.89,0,0,1,1.44.6,2.39,2.39,0,0,1,.56,1.69s0,.11,0,.2h-3.29a1.7,1.7,0,0,0,.41,1.11,1.23,1.23,0,0,0,.92.38,1.15,1.15,0,0,0,.7-.21A1.44,1.44,0,0,0,152.76,81.82Zm-2.45-1.21h2.46a1.5,1.5,0,0,0-.28-.83,1.15,1.15,0,0,0-.93-.43,1.18,1.18,0,0,0-.87.34A1.36,1.36,0,0,0,150.31,80.61Z"/><path d="M154.18,81.92l.74-.12a1,1,0,0,0,.35.68,1.2,1.2,0,0,0,.79.24,1.17,1.17,0,0,0,.76-.21.63.63,0,0,0,.25-.49.46.46,0,0,0-.22-.4,3.26,3.26,0,0,0-.76-.25,7,7,0,0,1-1.14-.36,1.09,1.09,0,0,1-.65-1,1.14,1.14,0,0,1,.14-.54,1.21,1.21,0,0,1,.37-.42,1.5,1.5,0,0,1,.47-.22,2.23,2.23,0,0,1,.65-.09,2.55,2.55,0,0,1,.91.15,1.24,1.24,0,0,1,.58.41,1.58,1.58,0,0,1,.26.68l-.73.1a.8.8,0,0,0-.29-.53,1.06,1.06,0,0,0-.67-.19,1.21,1.21,0,0,0-.73.17.5.5,0,0,0-.22.4.41.41,0,0,0,.09.26.66.66,0,0,0,.29.2l.66.19a9.27,9.27,0,0,1,1.11.35,1.13,1.13,0,0,1,.49.39,1.09,1.09,0,0,1,.18.64,1.26,1.26,0,0,1-.22.7,1.4,1.4,0,0,1-.63.51,2.27,2.27,0,0,1-.93.18,2.07,2.07,0,0,1-1.31-.36A1.66,1.66,0,0,1,154.18,81.92Z"/><path d="M158.43,81.92l.74-.12a1,1,0,0,0,.35.68,1.2,1.2,0,0,0,.79.24,1.17,1.17,0,0,0,.76-.21.63.63,0,0,0,.25-.49.46.46,0,0,0-.22-.4,3.26,3.26,0,0,0-.76-.25A7,7,0,0,1,159.2,81a1.09,1.09,0,0,1-.65-1,1.14,1.14,0,0,1,.14-.54,1.21,1.21,0,0,1,.37-.42,1.5,1.5,0,0,1,.47-.22,2.23,2.23,0,0,1,.65-.09,2.55,2.55,0,0,1,.91.15,1.24,1.24,0,0,1,.58.41,1.58,1.58,0,0,1,.26.68l-.73.1a.8.8,0,0,0-.29-.53,1.06,1.06,0,0,0-.67-.19,1.21,1.21,0,0,0-.73.17.5.5,0,0,0-.22.4.41.41,0,0,0,.09.26.66.66,0,0,0,.29.2l.66.19a9.27,9.27,0,0,1,1.11.35,1.13,1.13,0,0,1,.49.39,1.09,1.09,0,0,1,.18.64,1.26,1.26,0,0,1-.22.7,1.4,1.4,0,0,1-.63.51,2.27,2.27,0,0,1-.93.18A2.07,2.07,0,0,1,159,83,1.66,1.66,0,0,1,158.43,81.92Z"/><path d="M165.86,83.24v-.65a1.62,1.62,0,0,1-1.4.75,1.78,1.78,0,0,1-.73-.15,1.2,1.2,0,0,1-.5-.37,1.4,1.4,0,0,1-.23-.55,3.71,3.71,0,0,1,0-.7V78.83h.75v2.45a4.48,4.48,0,0,0,0,.79.77.77,0,0,0,.3.46.92.92,0,0,0,.56.17,1.22,1.22,0,0,0,.63-.17,1,1,0,0,0,.42-.47,2.36,2.36,0,0,0,.12-.86V78.83h.75v4.41Z"/><path d="M167.69,83.24V78.83h.67v.67a1.82,1.82,0,0,1,.48-.62.83.83,0,0,1,.48-.15,1.46,1.46,0,0,1,.77.24l-.26.69a1.07,1.07,0,0,0-.55-.16.71.71,0,0,0-.44.15.8.8,0,0,0-.28.41,2.94,2.94,0,0,0-.12.87v2.31Z"/><path d="M173.55,81.82l.77.1a1.88,1.88,0,0,1-.68,1,2.29,2.29,0,0,1-2.79-.22,2.33,2.33,0,0,1-.57-1.67,2.44,2.44,0,0,1,.57-1.73,1.94,1.94,0,0,1,1.49-.61,1.89,1.89,0,0,1,1.44.6,2.39,2.39,0,0,1,.56,1.69s0,.11,0,.2h-3.29a1.7,1.7,0,0,0,.41,1.11,1.23,1.23,0,0,0,.92.38,1.15,1.15,0,0,0,.7-.21A1.44,1.44,0,0,0,173.55,81.82Zm-2.45-1.21h2.46a1.5,1.5,0,0,0-.28-.83,1.15,1.15,0,0,0-.93-.43,1.18,1.18,0,0,0-.87.34A1.36,1.36,0,0,0,171.1,80.61Z"/><path d="M179.25,82.57l.11.66a2.79,2.79,0,0,1-.56.07,1.29,1.29,0,0,1-.63-.13.72.72,0,0,1-.31-.34,2.66,2.66,0,0,1-.09-.88V79.41h-.55v-.58h.55V77.74l.74-.45v1.54h.75v.58h-.75V82a1.31,1.31,0,0,0,0,.41.31.31,0,0,0,.13.15.51.51,0,0,0,.25.05Z"/><path d="M179.7,81a2.27,2.27,0,0,1,.68-1.81,2,2,0,0,1,1.39-.49,2,2,0,0,1,1.49.6,2.26,2.26,0,0,1,.58,1.65,2.92,2.92,0,0,1-.26,1.34,1.82,1.82,0,0,1-.74.76,2.17,2.17,0,0,1-1.06.27,2,2,0,0,1-1.5-.59A2.37,2.37,0,0,1,179.7,81Zm.77,0a1.88,1.88,0,0,0,.37,1.27,1.23,1.23,0,0,0,1.85,0,1.92,1.92,0,0,0,.37-1.29,1.83,1.83,0,0,0-.37-1.24,1.23,1.23,0,0,0-1.85,0A1.87,1.87,0,0,0,180.47,81Z"/><path d="M186.93,83.6l.73.11a.7.7,0,0,0,.25.49,1.25,1.25,0,0,0,.76.21,1.34,1.34,0,0,0,.8-.21,1,1,0,0,0,.38-.58,4.79,4.79,0,0,0,.05-1,1.54,1.54,0,0,1-1.22.58,1.66,1.66,0,0,1-1.41-.66,2.52,2.52,0,0,1-.5-1.57,2.94,2.94,0,0,1,.23-1.17,1.83,1.83,0,0,1,.66-.82,1.78,1.78,0,0,1,1-.29,1.58,1.58,0,0,1,1.29.63v-.53h.69v3.81a3.62,3.62,0,0,1-.21,1.46,1.54,1.54,0,0,1-.66.68,2.3,2.3,0,0,1-1.12.25,2.11,2.11,0,0,1-1.27-.36A1.2,1.2,0,0,1,186.93,83.6Zm.62-2.65a1.92,1.92,0,0,0,.34,1.27,1.14,1.14,0,0,0,1.73,0A1.85,1.85,0,0,0,190,81a1.81,1.81,0,0,0-.36-1.22,1.11,1.11,0,0,0-.87-.41,1.08,1.08,0,0,0-.85.4A1.8,1.8,0,0,0,187.55,81Z"/><path d="M194.67,82.69a2.73,2.73,0,0,1-.8.5,2.29,2.29,0,0,1-.82.15,1.6,1.6,0,0,1-1.12-.36,1.17,1.17,0,0,1-.39-.91,1.2,1.2,0,0,1,.15-.59,1.21,1.21,0,0,1,.38-.43,1.83,1.83,0,0,1,.54-.24,5.45,5.45,0,0,1,.66-.11,6.78,6.78,0,0,0,1.33-.26c0-.1,0-.17,0-.19a.83.83,0,0,0-.21-.64,1.26,1.26,0,0,0-.85-.25,1.33,1.33,0,0,0-.78.18,1.13,1.13,0,0,0-.37.65l-.73-.1a1.81,1.81,0,0,1,.33-.76,1.43,1.43,0,0,1,.66-.44,2.92,2.92,0,0,1,1-.16,2.66,2.66,0,0,1,.92.13,1.19,1.19,0,0,1,.52.33,1.17,1.17,0,0,1,.23.51,4.14,4.14,0,0,1,0,.69v1a10.49,10.49,0,0,0,0,1.32,1.65,1.65,0,0,0,.19.53h-.78A1.58,1.58,0,0,1,194.67,82.69ZM194.61,81a5.46,5.46,0,0,1-1.22.28,2.81,2.81,0,0,0-.65.15.65.65,0,0,0-.29.24.66.66,0,0,0,.12.85,1,1,0,0,0,.66.2,1.54,1.54,0,0,0,.77-.19,1.16,1.16,0,0,0,.49-.52,1.81,1.81,0,0,0,.12-.75Z"/><path d="M196.23,81.92l.74-.12a1,1,0,0,0,.35.68,1.21,1.21,0,0,0,.79.24,1.17,1.17,0,0,0,.76-.21.63.63,0,0,0,.25-.49.46.46,0,0,0-.22-.4,3.26,3.26,0,0,0-.76-.25A7,7,0,0,1,197,81a1.09,1.09,0,0,1-.65-1,1.13,1.13,0,0,1,.13-.54,1.22,1.22,0,0,1,.37-.42,1.53,1.53,0,0,1,.48-.22,2.22,2.22,0,0,1,.65-.09,2.55,2.55,0,0,1,.91.15,1.24,1.24,0,0,1,.58.41,1.58,1.58,0,0,1,.26.68l-.73.1a.8.8,0,0,0-.29-.53,1.06,1.06,0,0,0-.67-.19,1.21,1.21,0,0,0-.73.17.5.5,0,0,0-.22.4.41.41,0,0,0,.09.26.67.67,0,0,0,.29.2l.66.19a9.21,9.21,0,0,1,1.11.35,1.12,1.12,0,0,1,.49.39,1.09,1.09,0,0,1,.18.64,1.26,1.26,0,0,1-.22.7,1.39,1.39,0,0,1-.63.51,2.28,2.28,0,0,1-.93.18A2.07,2.07,0,0,1,196.8,83,1.66,1.66,0,0,1,196.23,81.92Z"/><path d="M204.36,83.24l-1.68-4.41h.79l.95,2.64q.15.43.28.89.1-.35.28-.84l1-2.69h.77l-1.67,4.41Z"/><path d="M210.26,82.69a2.74,2.74,0,0,1-.8.5,2.29,2.29,0,0,1-.82.15,1.6,1.6,0,0,1-1.12-.36,1.17,1.17,0,0,1-.39-.91,1.22,1.22,0,0,1,.53-1,1.8,1.8,0,0,1,.54-.24,5.45,5.45,0,0,1,.66-.11,6.78,6.78,0,0,0,1.33-.26c0-.1,0-.17,0-.19a.83.83,0,0,0-.21-.64,1.26,1.26,0,0,0-.85-.25,1.32,1.32,0,0,0-.78.18,1.13,1.13,0,0,0-.37.65l-.73-.1a1.81,1.81,0,0,1,.33-.76,1.43,1.43,0,0,1,.66-.44,2.93,2.93,0,0,1,1-.16,2.66,2.66,0,0,1,.92.13,1.2,1.2,0,0,1,.52.33,1.19,1.19,0,0,1,.23.51,4.29,4.29,0,0,1,0,.69v1a10.77,10.77,0,0,0,0,1.32,1.7,1.7,0,0,0,.19.53h-.78A1.58,1.58,0,0,1,210.26,82.69ZM210.2,81a5.48,5.48,0,0,1-1.22.28,2.79,2.79,0,0,0-.65.15.65.65,0,0,0-.29.24.66.66,0,0,0,.12.85,1,1,0,0,0,.66.2,1.54,1.54,0,0,0,.77-.19,1.16,1.16,0,0,0,.49-.52,1.81,1.81,0,0,0,.12-.75Z"/><path d="M212.1,83.24V77.15h.75v6.08Z"/><path d="M215.23,83.24l-1.68-4.41h.79l.95,2.64q.16.43.28.89c.07-.23.16-.51.28-.84l1-2.69h.77l-1.67,4.41Z"/><path d="M221.27,81.82l.77.1a1.88,1.88,0,0,1-.68,1,2.29,2.29,0,0,1-2.79-.22,2.33,2.33,0,0,1-.57-1.67,2.44,2.44,0,0,1,.57-1.73,1.94,1.94,0,0,1,1.49-.61,1.89,1.89,0,0,1,1.45.6,2.39,2.39,0,0,1,.56,1.69s0,.11,0,.2h-3.29a1.7,1.7,0,0,0,.41,1.11,1.23,1.23,0,0,0,.92.38,1.15,1.15,0,0,0,.7-.21A1.44,1.44,0,0,0,221.27,81.82Zm-2.45-1.21h2.46a1.49,1.49,0,0,0-.28-.83,1.14,1.14,0,0,0-.93-.43,1.19,1.19,0,0,0-.87.34A1.36,1.36,0,0,0,218.82,80.61Z"/><path d="M228.22,81.62l.73.1a1.91,1.91,0,0,1-.62,1.19,1.79,1.79,0,0,1-1.22.43,1.89,1.89,0,0,1-1.46-.59,2.4,2.4,0,0,1-.55-1.7,3.1,3.1,0,0,1,.24-1.25,1.66,1.66,0,0,1,.72-.8,2.15,2.15,0,0,1,1.05-.27,1.83,1.83,0,0,1,1.17.36,1.67,1.67,0,0,1,.59,1l-.73.11a1.21,1.21,0,0,0-.37-.67,1,1,0,0,0-.64-.22,1.16,1.16,0,0,0-.92.41,1.92,1.92,0,0,0-.35,1.28,2,2,0,0,0,.34,1.29,1.1,1.1,0,0,0,.89.4,1,1,0,0,0,.74-.27A1.34,1.34,0,0,0,228.22,81.62Z"/><path d="M232.47,82.69a2.74,2.74,0,0,1-.8.5,2.29,2.29,0,0,1-.82.15,1.61,1.61,0,0,1-1.12-.36,1.17,1.17,0,0,1-.39-.91,1.23,1.23,0,0,1,.53-1,1.81,1.81,0,0,1,.54-.24,5.41,5.41,0,0,1,.66-.11,6.8,6.8,0,0,0,1.33-.26c0-.1,0-.17,0-.19a.83.83,0,0,0-.21-.64,1.26,1.26,0,0,0-.85-.25,1.32,1.32,0,0,0-.78.18,1.14,1.14,0,0,0-.37.65l-.73-.1a1.81,1.81,0,0,1,.33-.76,1.44,1.44,0,0,1,.66-.44,2.93,2.93,0,0,1,1-.16,2.67,2.67,0,0,1,.92.13,1.2,1.2,0,0,1,.52.33,1.18,1.18,0,0,1,.23.51,4.25,4.25,0,0,1,0,.69v1a10.77,10.77,0,0,0,0,1.32,1.65,1.65,0,0,0,.19.53h-.78A1.58,1.58,0,0,1,232.47,82.69ZM232.41,81a5.47,5.47,0,0,1-1.22.28,2.81,2.81,0,0,0-.65.15.64.64,0,0,0-.29.24.63.63,0,0,0-.1.35.64.64,0,0,0,.23.5,1,1,0,0,0,.66.2,1.53,1.53,0,0,0,.77-.19,1.16,1.16,0,0,0,.49-.52,1.81,1.81,0,0,0,.12-.75Z"/><path d="M234.32,83.24V78.83H235v.63a1.59,1.59,0,0,1,1.4-.73,1.85,1.85,0,0,1,.73.14,1.15,1.15,0,0,1,.5.38,1.43,1.43,0,0,1,.23.55,4.34,4.34,0,0,1,0,.73v2.71h-.75V80.56a2,2,0,0,0-.09-.68.72.72,0,0,0-.31-.36,1,1,0,0,0-.52-.13,1.21,1.21,0,0,0-.82.3,1.49,1.49,0,0,0-.35,1.15v2.41Z"/><path d="M88.38,91.82l.73.09a1.9,1.9,0,0,1-.62,1.19,1.79,1.79,0,0,1-1.22.43,1.9,1.9,0,0,1-1.46-.59,2.4,2.4,0,0,1-.55-1.7A3.07,3.07,0,0,1,85.51,90a1.65,1.65,0,0,1,.72-.8,2.13,2.13,0,0,1,1.05-.27,1.83,1.83,0,0,1,1.17.36,1.67,1.67,0,0,1,.58,1l-.73.11a1.2,1.2,0,0,0-.37-.67,1,1,0,0,0-.64-.22,1.16,1.16,0,0,0-.92.4A1.92,1.92,0,0,0,86,91.23a2,2,0,0,0,.34,1.29,1.11,1.11,0,0,0,.89.4,1,1,0,0,0,.73-.27A1.34,1.34,0,0,0,88.38,91.82Z"/><path d="M92.63,92.89a2.82,2.82,0,0,1-.8.5,2.31,2.31,0,0,1-.82.14,1.6,1.6,0,0,1-1.12-.35,1.17,1.17,0,0,1-.39-.91,1.23,1.23,0,0,1,.53-1,1.81,1.81,0,0,1,.54-.25,5.16,5.16,0,0,1,.66-.11,6.84,6.84,0,0,0,1.33-.26c0-.1,0-.17,0-.2a.82.82,0,0,0-.21-.64,1.25,1.25,0,0,0-.85-.25,1.32,1.32,0,0,0-.78.19,1.13,1.13,0,0,0-.37.65l-.73-.1a1.81,1.81,0,0,1,.33-.76,1.43,1.43,0,0,1,.66-.44,3,3,0,0,1,1-.16,2.64,2.64,0,0,1,.92.13,1.22,1.22,0,0,1,.52.33,1.17,1.17,0,0,1,.23.51,4.2,4.2,0,0,1,0,.69v1a10.6,10.6,0,0,0,0,1.32,1.65,1.65,0,0,0,.19.53h-.78A1.57,1.57,0,0,1,92.63,92.89Zm-.06-1.67a5.54,5.54,0,0,1-1.22.28,2.78,2.78,0,0,0-.65.15.65.65,0,0,0-.17,1.1,1,1,0,0,0,.66.2,1.54,1.54,0,0,0,.77-.19,1.16,1.16,0,0,0,.49-.52,1.8,1.8,0,0,0,.12-.75Z"/><path d="M97.37,93.44v-.65a1.61,1.61,0,0,1-1.4.75,1.78,1.78,0,0,1-.73-.15,1.19,1.19,0,0,1-.5-.38,1.41,1.41,0,0,1-.23-.55,3.81,3.81,0,0,1,0-.7V89h.75v2.44a4.38,4.38,0,0,0,0,.79.78.78,0,0,0,.3.46.93.93,0,0,0,.56.17,1.23,1.23,0,0,0,.63-.17,1,1,0,0,0,.42-.47,2.36,2.36,0,0,0,.12-.86V89H98v4.41Z"/><path d="M98.9,92.12l.74-.12a1,1,0,0,0,.35.68,1.22,1.22,0,0,0,.79.24,1.17,1.17,0,0,0,.76-.21.63.63,0,0,0,.25-.49.45.45,0,0,0-.22-.4,3.25,3.25,0,0,0-.76-.25,7,7,0,0,1-1.14-.36,1.09,1.09,0,0,1-.65-1,1.14,1.14,0,0,1,.14-.55,1.21,1.21,0,0,1,.37-.42A1.56,1.56,0,0,1,100,89a2.29,2.29,0,0,1,.65-.09,2.55,2.55,0,0,1,.91.15,1.24,1.24,0,0,1,.58.4,1.59,1.59,0,0,1,.26.68l-.73.1a.8.8,0,0,0-.29-.53,1.05,1.05,0,0,0-.67-.19,1.22,1.22,0,0,0-.73.17.5.5,0,0,0-.22.4.41.41,0,0,0,.09.26.66.66,0,0,0,.29.2l.66.19a9.15,9.15,0,0,1,1.11.35,1.12,1.12,0,0,1,.49.39,1.09,1.09,0,0,1,.18.64,1.25,1.25,0,0,1-.22.7,1.41,1.41,0,0,1-.63.51,2.29,2.29,0,0,1-.93.18,2.08,2.08,0,0,1-1.31-.36A1.66,1.66,0,0,1,98.9,92.12Z"/><path d="M106.47,92l.77.09a1.88,1.88,0,0,1-.68,1.05,2.29,2.29,0,0,1-2.79-.22,2.32,2.32,0,0,1-.57-1.67,2.44,2.44,0,0,1,.57-1.73,1.94,1.94,0,0,1,1.49-.61,1.88,1.88,0,0,1,1.44.6,2.39,2.39,0,0,1,.56,1.69s0,.11,0,.2H104a1.7,1.7,0,0,0,.41,1.11,1.22,1.22,0,0,0,.92.39,1.14,1.14,0,0,0,.7-.22A1.43,1.43,0,0,0,106.47,92ZM104,90.81h2.46a1.49,1.49,0,0,0-.28-.83,1.15,1.15,0,0,0-.93-.43,1.19,1.19,0,0,0-.87.34A1.36,1.36,0,0,0,104,90.81Z"/><path d="M110.24,92.12,111,92a1,1,0,0,0,.35.68,1.22,1.22,0,0,0,.79.24,1.17,1.17,0,0,0,.76-.21.63.63,0,0,0,.25-.49.45.45,0,0,0-.22-.4,3.25,3.25,0,0,0-.76-.25,7,7,0,0,1-1.14-.36,1.09,1.09,0,0,1-.65-1,1.14,1.14,0,0,1,.14-.55,1.21,1.21,0,0,1,.37-.42,1.56,1.56,0,0,1,.48-.22,2.29,2.29,0,0,1,.65-.09,2.55,2.55,0,0,1,.91.15,1.24,1.24,0,0,1,.58.4,1.59,1.59,0,0,1,.26.68l-.73.1a.8.8,0,0,0-.29-.53,1.05,1.05,0,0,0-.67-.19,1.22,1.22,0,0,0-.73.17.5.5,0,0,0-.22.4.41.41,0,0,0,.09.26.66.66,0,0,0,.29.2l.66.19a9.15,9.15,0,0,1,1.11.35,1.12,1.12,0,0,1,.49.39,1.09,1.09,0,0,1,.18.64,1.25,1.25,0,0,1-.22.7,1.41,1.41,0,0,1-.63.51,2.29,2.29,0,0,1-.93.18,2.08,2.08,0,0,1-1.31-.36A1.66,1.66,0,0,1,110.24,92.12Z"/><path d="M117.81,92l.77.09a1.88,1.88,0,0,1-.68,1.05,2.29,2.29,0,0,1-2.79-.22,2.32,2.32,0,0,1-.57-1.67,2.44,2.44,0,0,1,.57-1.73,1.94,1.94,0,0,1,1.49-.61,1.88,1.88,0,0,1,1.44.6,2.39,2.39,0,0,1,.56,1.69s0,.11,0,.2h-3.29a1.7,1.7,0,0,0,.41,1.11,1.22,1.22,0,0,0,.92.39,1.14,1.14,0,0,0,.7-.22A1.43,1.43,0,0,0,117.81,92Zm-2.45-1.21h2.46a1.49,1.49,0,0,0-.28-.83,1.15,1.15,0,0,0-.93-.43,1.19,1.19,0,0,0-.87.34A1.36,1.36,0,0,0,115.36,90.81Z"/><path d="M119.51,93.44V89h.67v.67a1.81,1.81,0,0,1,.48-.62.83.83,0,0,1,.48-.15,1.45,1.45,0,0,1,.77.24l-.26.69a1.06,1.06,0,0,0-.55-.16.71.71,0,0,0-.44.15.8.8,0,0,0-.28.41,2.91,2.91,0,0,0-.12.87v2.31Z"/><path d="M122.35,88.21v-.86h.75v.86Zm0,5.22V89h.75v4.41Z"/><path d="M124,91.23a2.28,2.28,0,0,1,.68-1.81,2.05,2.05,0,0,1,1.39-.49,2,2,0,0,1,1.49.6,2.26,2.26,0,0,1,.58,1.65,2.91,2.91,0,0,1-.25,1.34,1.81,1.81,0,0,1-.74.76,2.16,2.16,0,0,1-1.06.27,2,2,0,0,1-1.5-.59A2.36,2.36,0,0,1,124,91.23Zm.77,0a1.88,1.88,0,0,0,.37,1.27,1.23,1.23,0,0,0,1.86,0,1.92,1.92,0,0,0,.37-1.29A1.82,1.82,0,0,0,127,90a1.23,1.23,0,0,0-1.85,0A1.87,1.87,0,0,0,124.73,91.23Z"/><path d="M131.85,93.44v-.65a1.61,1.61,0,0,1-1.4.75,1.79,1.79,0,0,1-.73-.15,1.2,1.2,0,0,1-.5-.38,1.42,1.42,0,0,1-.23-.55,3.91,3.91,0,0,1,0-.7V89h.75v2.44a4.28,4.28,0,0,0,0,.79.78.78,0,0,0,.3.46.93.93,0,0,0,.56.17,1.24,1.24,0,0,0,.63-.17,1,1,0,0,0,.42-.47,2.34,2.34,0,0,0,.12-.86V89h.75v4.41Z"/><path d="M133.39,92.12l.74-.12a1,1,0,0,0,.35.68,1.22,1.22,0,0,0,.79.24,1.17,1.17,0,0,0,.76-.21.63.63,0,0,0,.25-.49.45.45,0,0,0-.22-.4,3.25,3.25,0,0,0-.76-.25,7,7,0,0,1-1.14-.36,1.09,1.09,0,0,1-.65-1,1.14,1.14,0,0,1,.14-.55,1.2,1.2,0,0,1,.37-.42,1.54,1.54,0,0,1,.47-.22,2.3,2.3,0,0,1,.65-.09,2.55,2.55,0,0,1,.91.15,1.24,1.24,0,0,1,.58.4,1.59,1.59,0,0,1,.26.68l-.73.1a.8.8,0,0,0-.29-.53,1.05,1.05,0,0,0-.67-.19,1.22,1.22,0,0,0-.73.17.5.5,0,0,0-.22.4.41.41,0,0,0,.09.26.66.66,0,0,0,.29.2l.66.19a9.18,9.18,0,0,1,1.11.35,1.12,1.12,0,0,1,.49.39,1.09,1.09,0,0,1,.18.64,1.25,1.25,0,0,1-.22.7,1.41,1.41,0,0,1-.63.51,2.29,2.29,0,0,1-.93.18,2.08,2.08,0,0,1-1.31-.36A1.66,1.66,0,0,1,133.39,92.12Z"/><path d="M140.31,88.21v-.86h.75v.86Zm0,5.22V89h.75v4.41Z"/><path d="M142.19,93.44V89h.67v.63a1.59,1.59,0,0,1,1.4-.73,1.84,1.84,0,0,1,.73.14,1.16,1.16,0,0,1,.5.38,1.45,1.45,0,0,1,.23.55,4.19,4.19,0,0,1,0,.73v2.71H145V90.76a2,2,0,0,0-.09-.68.72.72,0,0,0-.31-.36,1,1,0,0,0-.52-.13,1.21,1.21,0,0,0-.82.3,1.5,1.5,0,0,0-.35,1.15v2.41Z"/><path d="M146,95.15l.14-.63a1.52,1.52,0,0,0,.35.06.4.4,0,0,0,.34-.15,1.56,1.56,0,0,0,.11-.76V89h.75v4.65a2.19,2.19,0,0,1-.21,1.13,1,1,0,0,1-.9.41A2.15,2.15,0,0,1,146,95.15Zm.95-6.93v-.87h.75v.87Z"/><path d="M151.7,93.44v-.65a1.61,1.61,0,0,1-1.4.75,1.78,1.78,0,0,1-.73-.15,1.19,1.19,0,0,1-.5-.38,1.42,1.42,0,0,1-.23-.55,3.82,3.82,0,0,1,0-.7V89h.75v2.44a4.37,4.37,0,0,0,0,.79.78.78,0,0,0,.3.46.93.93,0,0,0,.56.17,1.24,1.24,0,0,0,.63-.17,1,1,0,0,0,.42-.47,2.34,2.34,0,0,0,.12-.86V89h.75v4.41Z"/><path d="M153.53,93.44V89h.67v.67a1.8,1.8,0,0,1,.48-.62.83.83,0,0,1,.48-.15,1.45,1.45,0,0,1,.77.24l-.26.69a1.06,1.06,0,0,0-.55-.16.71.71,0,0,0-.44.15.8.8,0,0,0-.28.41,2.91,2.91,0,0,0-.12.87v2.31Z"/><path d="M156.33,95.13l-.08-.7a1.63,1.63,0,0,0,.43.07.83.83,0,0,0,.4-.08.68.68,0,0,0,.25-.23,3.54,3.54,0,0,0,.23-.56l.07-.18L155.94,89h.81l.92,2.55q.18.49.32,1a10,10,0,0,1,.31-1l.94-2.57H160l-1.68,4.48a8.87,8.87,0,0,1-.42,1,1.47,1.47,0,0,1-.46.54,1.08,1.08,0,0,1-.61.17A1.48,1.48,0,0,1,156.33,95.13Z"/><path d="M162.7,91.23a2.28,2.28,0,0,1,.68-1.81,2.05,2.05,0,0,1,1.39-.49,2,2,0,0,1,1.49.6,2.27,2.27,0,0,1,.58,1.65,2.91,2.91,0,0,1-.26,1.34,1.8,1.8,0,0,1-.74.76,2.17,2.17,0,0,1-1.06.27,2,2,0,0,1-1.5-.59A2.37,2.37,0,0,1,162.7,91.23Zm.77,0a1.88,1.88,0,0,0,.37,1.27,1.23,1.23,0,0,0,1.85,0,1.92,1.92,0,0,0,.37-1.29,1.82,1.82,0,0,0-.37-1.24,1.23,1.23,0,0,0-1.85,0A1.87,1.87,0,0,0,163.47,91.23Z"/><path d="M167.7,93.44V89h.67v.67a1.8,1.8,0,0,1,.48-.62.83.83,0,0,1,.48-.15,1.45,1.45,0,0,1,.77.24l-.26.69a1.06,1.06,0,0,0-.55-.16.71.71,0,0,0-.44.15.8.8,0,0,0-.28.41,2.91,2.91,0,0,0-.12.87v2.31Z"/><path d="M175.76,93.44v-.56a1.37,1.37,0,0,1-1.23.66,1.72,1.72,0,0,1-1-.29,1.91,1.91,0,0,1-.68-.81,2.8,2.8,0,0,1-.24-1.2,3.14,3.14,0,0,1,.22-1.2,1.74,1.74,0,0,1,.66-.82,1.76,1.76,0,0,1,1-.29,1.46,1.46,0,0,1,.71.17,1.48,1.48,0,0,1,.51.44V87.35h.74v6.08Zm-2.36-2.2a1.92,1.92,0,0,0,.36,1.27,1.08,1.08,0,0,0,.84.42,1.06,1.06,0,0,0,.83-.4,1.85,1.85,0,0,0,.34-1.22,2.07,2.07,0,0,0-.35-1.33,1.07,1.07,0,0,0-.86-.42,1,1,0,0,0-.83.41A2,2,0,0,0,173.4,91.24Z"/><path d="M180.64,92l.77.09a1.88,1.88,0,0,1-.68,1.05,2.29,2.29,0,0,1-2.79-.22,2.32,2.32,0,0,1-.57-1.67,2.44,2.44,0,0,1,.57-1.73,1.94,1.94,0,0,1,1.49-.61,1.88,1.88,0,0,1,1.44.6,2.39,2.39,0,0,1,.56,1.69s0,.11,0,.2h-3.29a1.7,1.7,0,0,0,.41,1.11,1.22,1.22,0,0,0,.92.39,1.14,1.14,0,0,0,.7-.22A1.43,1.43,0,0,0,180.64,92Zm-2.45-1.21h2.46a1.49,1.49,0,0,0-.28-.83,1.15,1.15,0,0,0-.93-.43,1.19,1.19,0,0,0-.87.34A1.37,1.37,0,0,0,178.19,90.81Z"/><path d="M185.23,92.89a2.83,2.83,0,0,1-.8.5,2.31,2.31,0,0,1-.82.14,1.6,1.6,0,0,1-1.12-.35,1.17,1.17,0,0,1-.39-.91,1.22,1.22,0,0,1,.53-1,1.8,1.8,0,0,1,.54-.25,5.16,5.16,0,0,1,.66-.11,6.84,6.84,0,0,0,1.33-.26c0-.1,0-.17,0-.2a.82.82,0,0,0-.21-.64,1.25,1.25,0,0,0-.85-.25,1.32,1.32,0,0,0-.78.19,1.13,1.13,0,0,0-.37.65l-.73-.1a1.81,1.81,0,0,1,.33-.76,1.43,1.43,0,0,1,.66-.44,3,3,0,0,1,1-.16,2.64,2.64,0,0,1,.92.13,1.22,1.22,0,0,1,.52.33,1.18,1.18,0,0,1,.23.51,4.28,4.28,0,0,1,0,.69v1a10.74,10.74,0,0,0,0,1.32,1.67,1.67,0,0,0,.19.53h-.78A1.57,1.57,0,0,1,185.23,92.89Zm-.06-1.67a5.55,5.55,0,0,1-1.22.28,2.76,2.76,0,0,0-.65.15.65.65,0,0,0-.17,1.1,1,1,0,0,0,.66.2,1.54,1.54,0,0,0,.77-.19,1.16,1.16,0,0,0,.49-.52,1.8,1.8,0,0,0,.12-.75Z"/><path d="M188.71,92.77l.11.66a2.72,2.72,0,0,1-.56.07,1.28,1.28,0,0,1-.63-.13.72.72,0,0,1-.31-.34,2.65,2.65,0,0,1-.09-.88V89.61h-.55V89h.55V87.94l.74-.45V89h.75v.58H188v2.58a1.3,1.3,0,0,0,0,.41.31.31,0,0,0,.13.14.48.48,0,0,0,.25.05Z"/><path d="M189.44,93.44V87.35h.75v2.18a1.67,1.67,0,0,1,1.32-.61,1.79,1.79,0,0,1,.85.19,1.13,1.13,0,0,1,.52.53,2.45,2.45,0,0,1,.16,1v2.79h-.75V90.64a1.15,1.15,0,0,0-.24-.82.9.9,0,0,0-.69-.25,1.2,1.2,0,0,0-.62.17,1,1,0,0,0-.42.47,2.15,2.15,0,0,0-.12.81v2.41Z"/><path d="M194.38,93.44v-.85h.85v.85Z"/><path d="M85.59,51.35V45.26h2.1a5,5,0,0,1,1.08.09,2.06,2.06,0,0,1,.89.44,2.48,2.48,0,0,1,.72,1,4.08,4.08,0,0,1,.24,1.45,4.27,4.27,0,0,1-.16,1.23,3,3,0,0,1-.42.89,2.21,2.21,0,0,1-.55.55,2.26,2.26,0,0,1-.73.31,4.16,4.16,0,0,1-1,.1Zm.81-.72h1.3a3.15,3.15,0,0,0,.94-.11,1.35,1.35,0,0,0,.55-.32,1.92,1.92,0,0,0,.45-.77,3.76,3.76,0,0,0,.16-1.17,2.83,2.83,0,0,0-.31-1.47,1.58,1.58,0,0,0-.76-.69,3.15,3.15,0,0,0-1-.12H86.4Z"/><path d="M91.36,49.14A2.27,2.27,0,0,1,92,47.33a2.05,2.05,0,0,1,1.39-.49,2,2,0,0,1,1.49.6,2.26,2.26,0,0,1,.58,1.65,2.92,2.92,0,0,1-.26,1.34,1.81,1.81,0,0,1-.74.76,2.16,2.16,0,0,1-1.06.27,2,2,0,0,1-1.5-.59A2.37,2.37,0,0,1,91.36,49.14Zm.77,0a1.88,1.88,0,0,0,.37,1.27,1.23,1.23,0,0,0,1.85,0,1.92,1.92,0,0,0,.37-1.29,1.82,1.82,0,0,0-.37-1.24,1.23,1.23,0,0,0-1.85,0A1.87,1.87,0,0,0,92.13,49.14Z"/><path d="M98.73,51.35V46.94h.67v.63a1.59,1.59,0,0,1,1.4-.73,1.84,1.84,0,0,1,.73.14,1.15,1.15,0,0,1,.5.38,1.44,1.44,0,0,1,.23.55,4.26,4.26,0,0,1,0,.73v2.71h-.75V48.67a2,2,0,0,0-.09-.68.72.72,0,0,0-.31-.36,1,1,0,0,0-.52-.13,1.21,1.21,0,0,0-.82.3,1.49,1.49,0,0,0-.35,1.15v2.41Z"/><path d="M103.18,49.14a2.27,2.27,0,0,1,.68-1.81,2.05,2.05,0,0,1,1.39-.49,2,2,0,0,1,1.49.6,2.26,2.26,0,0,1,.58,1.65,2.92,2.92,0,0,1-.26,1.34,1.81,1.81,0,0,1-.74.76,2.16,2.16,0,0,1-1.06.27,2,2,0,0,1-1.5-.59A2.37,2.37,0,0,1,103.18,49.14Zm.77,0a1.88,1.88,0,0,0,.37,1.27,1.23,1.23,0,0,0,1.85,0,1.92,1.92,0,0,0,.37-1.29,1.82,1.82,0,0,0-.37-1.24,1.23,1.23,0,0,0-1.85,0A1.87,1.87,0,0,0,103.94,49.14Z"/><path d="M109.81,50.68l.11.66a2.76,2.76,0,0,1-.56.07,1.28,1.28,0,0,1-.63-.13.72.72,0,0,1-.32-.34,2.67,2.67,0,0,1-.09-.88V47.52h-.55v-.58h.55V45.85l.74-.45v1.54h.75v.58h-.75V50.1a1.3,1.3,0,0,0,0,.41.31.31,0,0,0,.13.15.49.49,0,0,0,.25.05Z"/><path d="M115.79,51.35V50.7a1.61,1.61,0,0,1-1.4.75,1.78,1.78,0,0,1-.73-.15,1.2,1.2,0,0,1-.5-.38,1.41,1.41,0,0,1-.23-.55,3.81,3.81,0,0,1,0-.7V46.94h.75v2.44a4.37,4.37,0,0,0,0,.79.78.78,0,0,0,.3.46.92.92,0,0,0,.56.17,1.23,1.23,0,0,0,.63-.17,1,1,0,0,0,.42-.47,2.35,2.35,0,0,0,.12-.86V46.94h.75v4.41Z"/><path d="M117.33,50l.74-.12a1,1,0,0,0,.35.68,1.21,1.21,0,0,0,.79.24,1.17,1.17,0,0,0,.76-.21.63.63,0,0,0,.25-.49.45.45,0,0,0-.22-.4,3.26,3.26,0,0,0-.76-.25,7,7,0,0,1-1.14-.36,1.09,1.09,0,0,1-.65-1,1.14,1.14,0,0,1,.14-.55,1.21,1.21,0,0,1,.37-.42,1.54,1.54,0,0,1,.48-.22,2.26,2.26,0,0,1,.65-.09A2.55,2.55,0,0,1,120,47a1.24,1.24,0,0,1,.58.4,1.58,1.58,0,0,1,.26.68l-.73.1a.8.8,0,0,0-.29-.53,1.05,1.05,0,0,0-.67-.19,1.22,1.22,0,0,0-.73.17.5.5,0,0,0-.22.4.41.41,0,0,0,.09.26.66.66,0,0,0,.29.2l.66.19a9.19,9.19,0,0,1,1.11.35,1.12,1.12,0,0,1,.49.39,1.09,1.09,0,0,1,.18.64,1.25,1.25,0,0,1-.22.7,1.4,1.4,0,0,1-.63.51,2.28,2.28,0,0,1-.93.18,2.07,2.07,0,0,1-1.31-.36A1.66,1.66,0,0,1,117.33,50Z"/><path d="M124.9,49.93l.77.1a1.88,1.88,0,0,1-.68,1.05,2.29,2.29,0,0,1-2.8-.22,2.33,2.33,0,0,1-.57-1.67,2.44,2.44,0,0,1,.57-1.73,1.94,1.94,0,0,1,1.49-.61,1.88,1.88,0,0,1,1.44.6,2.39,2.39,0,0,1,.56,1.69s0,.11,0,.2H122.4a1.7,1.7,0,0,0,.41,1.11,1.22,1.22,0,0,0,.92.39,1.14,1.14,0,0,0,.7-.22A1.43,1.43,0,0,0,124.9,49.93Zm-2.45-1.21h2.46a1.5,1.5,0,0,0-.28-.83,1.15,1.15,0,0,0-.93-.43,1.19,1.19,0,0,0-.87.34A1.36,1.36,0,0,0,122.45,48.72Z"/><path d="M129.78,51.35l-1.35-4.41h.77l.7,2.54.26.95.23-.91.7-2.58h.77l.66,2.56.22.84.25-.85.76-2.55h.73l-1.38,4.41h-.78l-.7-2.64-.17-.75-.89,3.39Z"/><path d="M138,50.81a2.78,2.78,0,0,1-.8.5,2.3,2.3,0,0,1-.82.15,1.6,1.6,0,0,1-1.12-.35,1.17,1.17,0,0,1-.39-.91,1.22,1.22,0,0,1,.53-1,1.8,1.8,0,0,1,.54-.24,5.3,5.3,0,0,1,.66-.11,6.81,6.81,0,0,0,1.33-.26c0-.1,0-.17,0-.19a.83.83,0,0,0-.21-.64,1.25,1.25,0,0,0-.85-.25,1.32,1.32,0,0,0-.78.18,1.13,1.13,0,0,0-.37.65l-.73-.1a1.81,1.81,0,0,1,.33-.76A1.43,1.43,0,0,1,136,47a2.94,2.94,0,0,1,1-.16,2.65,2.65,0,0,1,.92.13,1.21,1.21,0,0,1,.52.33,1.19,1.19,0,0,1,.23.51,4.28,4.28,0,0,1,0,.69v1a10.76,10.76,0,0,0,0,1.32,1.68,1.68,0,0,0,.19.53h-.78A1.57,1.57,0,0,1,138,50.81Zm-.06-1.67a5.51,5.51,0,0,1-1.22.28,2.77,2.77,0,0,0-.65.15.64.64,0,0,0-.4.6.63.63,0,0,0,.23.5,1,1,0,0,0,.66.2,1.54,1.54,0,0,0,.77-.19,1.16,1.16,0,0,0,.49-.52,1.81,1.81,0,0,0,.12-.75Z"/><path d="M141.47,50.68l.11.66a2.76,2.76,0,0,1-.56.07,1.29,1.29,0,0,1-.63-.13.72.72,0,0,1-.31-.34,2.65,2.65,0,0,1-.09-.88V47.52h-.55v-.58H140V45.85l.74-.45v1.54h.75v.58h-.75V50.1a1.3,1.3,0,0,0,0,.41.31.31,0,0,0,.13.15.49.49,0,0,0,.25.05Z"/><path d="M145.21,49.93l.77.1a1.88,1.88,0,0,1-.68,1.05,2.29,2.29,0,0,1-2.79-.22,2.33,2.33,0,0,1-.57-1.67,2.44,2.44,0,0,1,.57-1.73,1.94,1.94,0,0,1,1.49-.61,1.89,1.89,0,0,1,1.44.6,2.39,2.39,0,0,1,.56,1.69s0,.11,0,.2h-3.29a1.7,1.7,0,0,0,.41,1.11,1.22,1.22,0,0,0,.92.39,1.14,1.14,0,0,0,.7-.22A1.43,1.43,0,0,0,145.21,49.93Zm-2.45-1.21h2.46a1.49,1.49,0,0,0-.28-.83,1.14,1.14,0,0,0-.93-.43,1.19,1.19,0,0,0-.87.34A1.36,1.36,0,0,0,142.76,48.72Z"/><path d="M146.92,51.35V46.94h.67v.67a1.8,1.8,0,0,1,.48-.62.83.83,0,0,1,.48-.15,1.45,1.45,0,0,1,.77.24l-.26.69a1.06,1.06,0,0,0-.55-.16.71.71,0,0,0-.44.15.79.79,0,0,0-.28.41,2.91,2.91,0,0,0-.12.87v2.31Z"/><path d="M152.12,51.35V45.26h.75v2.18a1.67,1.67,0,0,1,1.32-.61A1.79,1.79,0,0,1,155,47a1.13,1.13,0,0,1,.52.53,2.45,2.45,0,0,1,.16,1v2.79H155V48.56a1.15,1.15,0,0,0-.24-.82.9.9,0,0,0-.69-.26,1.21,1.21,0,0,0-.62.17,1,1,0,0,0-.42.47,2.14,2.14,0,0,0-.12.81v2.41Z"/><path d="M159.86,49.93l.77.1a1.88,1.88,0,0,1-.68,1.05,2,2,0,0,1-1.26.37,2,2,0,0,1-1.53-.6,2.32,2.32,0,0,1-.57-1.67,2.43,2.43,0,0,1,.57-1.73,1.94,1.94,0,0,1,1.49-.61,1.88,1.88,0,0,1,1.44.6,2.39,2.39,0,0,1,.56,1.69s0,.11,0,.2h-3.29a1.69,1.69,0,0,0,.41,1.11,1.23,1.23,0,0,0,.92.39,1.14,1.14,0,0,0,.7-.22A1.43,1.43,0,0,0,159.86,49.93Zm-2.45-1.21h2.46a1.5,1.5,0,0,0-.28-.83,1.15,1.15,0,0,0-.93-.43,1.19,1.19,0,0,0-.87.34A1.37,1.37,0,0,0,157.41,48.72Z"/><path d="M164.45,50.81a2.78,2.78,0,0,1-.8.5,2.3,2.3,0,0,1-.82.15,1.6,1.6,0,0,1-1.12-.35,1.17,1.17,0,0,1-.39-.91,1.22,1.22,0,0,1,.53-1,1.8,1.8,0,0,1,.54-.24,5.3,5.3,0,0,1,.66-.11,6.81,6.81,0,0,0,1.33-.26c0-.1,0-.17,0-.19a.83.83,0,0,0-.21-.64,1.25,1.25,0,0,0-.85-.25,1.32,1.32,0,0,0-.78.18,1.13,1.13,0,0,0-.37.65l-.73-.1a1.81,1.81,0,0,1,.33-.76,1.43,1.43,0,0,1,.66-.44,2.94,2.94,0,0,1,1-.16,2.65,2.65,0,0,1,.92.13,1.21,1.21,0,0,1,.52.33,1.19,1.19,0,0,1,.23.51,4.28,4.28,0,0,1,0,.69v1a10.76,10.76,0,0,0,0,1.32,1.68,1.68,0,0,0,.19.53h-.78A1.57,1.57,0,0,1,164.45,50.81Zm-.06-1.67a5.51,5.51,0,0,1-1.22.28,2.77,2.77,0,0,0-.65.15.64.64,0,0,0-.4.6.63.63,0,0,0,.23.5,1,1,0,0,0,.66.2,1.54,1.54,0,0,0,.77-.19,1.16,1.16,0,0,0,.49-.52,1.81,1.81,0,0,0,.12-.75Z"/><path d="M167.93,50.68l.11.66a2.76,2.76,0,0,1-.56.07,1.29,1.29,0,0,1-.63-.13.72.72,0,0,1-.31-.34,2.65,2.65,0,0,1-.09-.88V47.52h-.55v-.58h.55V45.85l.74-.45v1.54h.75v.58h-.75V50.1a1.3,1.3,0,0,0,0,.41.31.31,0,0,0,.13.15.49.49,0,0,0,.25.05Z"/><path d="M171.68,49.93l.77.1a1.88,1.88,0,0,1-.68,1.05,2.29,2.29,0,0,1-2.79-.22,2.33,2.33,0,0,1-.57-1.67,2.44,2.44,0,0,1,.57-1.73,1.94,1.94,0,0,1,1.49-.61,1.89,1.89,0,0,1,1.44.6,2.39,2.39,0,0,1,.56,1.69s0,.11,0,.2h-3.29a1.7,1.7,0,0,0,.41,1.11,1.22,1.22,0,0,0,.92.39,1.14,1.14,0,0,0,.7-.22A1.43,1.43,0,0,0,171.68,49.93Zm-2.45-1.21h2.46a1.49,1.49,0,0,0-.28-.83,1.14,1.14,0,0,0-.93-.43,1.19,1.19,0,0,0-.87.34A1.36,1.36,0,0,0,169.22,48.72Z"/><path d="M173.38,51.35V46.94h.67v.67a1.8,1.8,0,0,1,.48-.62.83.83,0,0,1,.48-.15,1.45,1.45,0,0,1,.77.24l-.26.69a1.06,1.06,0,0,0-.55-.16.71.71,0,0,0-.44.15.79.79,0,0,0-.28.41,2.91,2.91,0,0,0-.12.87v2.31Z"/><path d="M179.39,51.35,178,46.94h.77l.7,2.54.26.95.23-.91.7-2.58h.77l.66,2.56.22.84.25-.85.76-2.55h.73l-1.38,4.41h-.78l-.7-2.64-.17-.75-.89,3.39Z"/><path d="M184.72,46.12v-.86h.75v.86Zm0,5.23V46.94h.75v4.41Z"/><path d="M188.24,50.68l.11.66a2.76,2.76,0,0,1-.56.07,1.28,1.28,0,0,1-.63-.13.72.72,0,0,1-.32-.34,2.69,2.69,0,0,1-.09-.88V47.52h-.55v-.58h.55V45.85l.74-.45v1.54h.75v.58h-.75V50.1a1.3,1.3,0,0,0,0,.41.31.31,0,0,0,.13.15.49.49,0,0,0,.25.05Z"/><path d="M189,51.35V45.26h.75v2.18a1.67,1.67,0,0,1,1.32-.61,1.78,1.78,0,0,1,.85.19,1.13,1.13,0,0,1,.52.53,2.46,2.46,0,0,1,.16,1v2.79h-.75V48.56a1.15,1.15,0,0,0-.24-.82.9.9,0,0,0-.69-.26,1.21,1.21,0,0,0-.62.17,1,1,0,0,0-.42.47,2.12,2.12,0,0,0-.12.81v2.41Z"/><path d="M198.93,50.81a2.78,2.78,0,0,1-.8.5,2.3,2.3,0,0,1-.82.15,1.6,1.6,0,0,1-1.12-.35,1.17,1.17,0,0,1-.39-.91,1.23,1.23,0,0,1,.53-1,1.81,1.81,0,0,1,.54-.24,5.27,5.27,0,0,1,.66-.11,6.83,6.83,0,0,0,1.33-.26c0-.1,0-.17,0-.19a.83.83,0,0,0-.21-.64,1.25,1.25,0,0,0-.85-.25,1.32,1.32,0,0,0-.78.18,1.13,1.13,0,0,0-.37.65l-.73-.1a1.81,1.81,0,0,1,.33-.76,1.44,1.44,0,0,1,.66-.44,2.94,2.94,0,0,1,1-.16,2.65,2.65,0,0,1,.92.13,1.21,1.21,0,0,1,.52.33,1.18,1.18,0,0,1,.23.51,4.25,4.25,0,0,1,0,.69v1a10.76,10.76,0,0,0,0,1.32,1.64,1.64,0,0,0,.19.53h-.78A1.57,1.57,0,0,1,198.93,50.81Zm-.06-1.67a5.51,5.51,0,0,1-1.22.28,2.8,2.8,0,0,0-.65.15.64.64,0,0,0-.29.24.63.63,0,0,0-.1.35.64.64,0,0,0,.23.5,1,1,0,0,0,.66.2,1.53,1.53,0,0,0,.77-.19,1.16,1.16,0,0,0,.49-.52,1.8,1.8,0,0,0,.12-.75Z"/><path d="M200.78,51.35V46.94h.67v.63a1.59,1.59,0,0,1,1.4-.73,1.84,1.84,0,0,1,.73.14,1.16,1.16,0,0,1,.5.38,1.44,1.44,0,0,1,.23.55,4.33,4.33,0,0,1,0,.73v2.71h-.75V48.67a2,2,0,0,0-.09-.68.72.72,0,0,0-.31-.36,1,1,0,0,0-.52-.13,1.21,1.21,0,0,0-.82.3,1.5,1.5,0,0,0-.35,1.15v2.41Z"/><path d="M205.48,53l-.08-.7a1.66,1.66,0,0,0,.43.07.82.82,0,0,0,.4-.08.68.68,0,0,0,.25-.23,3.51,3.51,0,0,0,.23-.56l.07-.18-1.67-4.42h.81l.92,2.55q.18.49.32,1a10.06,10.06,0,0,1,.31-1l.94-2.57h.75l-1.68,4.48a8.78,8.78,0,0,1-.42,1,1.47,1.47,0,0,1-.46.54,1.08,1.08,0,0,1-.61.17A1.49,1.49,0,0,1,205.48,53Z"/><path d="M212,51.71l.73.11a.69.69,0,0,0,.25.49,1.25,1.25,0,0,0,.76.21,1.33,1.33,0,0,0,.8-.21,1,1,0,0,0,.38-.58,4.82,4.82,0,0,0,.05-1,1.54,1.54,0,0,1-1.22.58,1.67,1.67,0,0,1-1.41-.66,2.52,2.52,0,0,1-.5-1.57,2.93,2.93,0,0,1,.23-1.16,1.83,1.83,0,0,1,.66-.82,1.79,1.79,0,0,1,1-.29,1.58,1.58,0,0,1,1.29.63v-.53h.69v3.81a3.62,3.62,0,0,1-.21,1.46,1.54,1.54,0,0,1-.66.68,2.3,2.3,0,0,1-1.12.25,2.11,2.11,0,0,1-1.27-.35A1.2,1.2,0,0,1,212,51.71Zm.62-2.65a1.91,1.91,0,0,0,.34,1.27,1.09,1.09,0,0,0,.86.4,1.1,1.1,0,0,0,.86-.4,1.85,1.85,0,0,0,.35-1.24,1.81,1.81,0,0,0-.36-1.22,1.11,1.11,0,0,0-.87-.41,1.08,1.08,0,0,0-.85.4A1.8,1.8,0,0,0,212.6,49.07Z"/><path d="M219.73,50.81a2.78,2.78,0,0,1-.8.5,2.3,2.3,0,0,1-.82.15,1.6,1.6,0,0,1-1.12-.35,1.17,1.17,0,0,1-.39-.91,1.22,1.22,0,0,1,.53-1,1.8,1.8,0,0,1,.54-.24,5.3,5.3,0,0,1,.66-.11,6.81,6.81,0,0,0,1.33-.26c0-.1,0-.17,0-.19a.83.83,0,0,0-.21-.64,1.25,1.25,0,0,0-.85-.25,1.32,1.32,0,0,0-.78.18,1.13,1.13,0,0,0-.37.65l-.73-.1a1.81,1.81,0,0,1,.33-.76,1.43,1.43,0,0,1,.66-.44,2.94,2.94,0,0,1,1-.16,2.65,2.65,0,0,1,.92.13,1.21,1.21,0,0,1,.52.33,1.19,1.19,0,0,1,.23.51,4.28,4.28,0,0,1,0,.69v1a10.76,10.76,0,0,0,0,1.32,1.68,1.68,0,0,0,.19.53h-.78A1.57,1.57,0,0,1,219.73,50.81Zm-.06-1.67a5.51,5.51,0,0,1-1.22.28,2.77,2.77,0,0,0-.65.15.64.64,0,0,0-.4.6.63.63,0,0,0,.23.5,1,1,0,0,0,.66.2,1.54,1.54,0,0,0,.77-.19,1.16,1.16,0,0,0,.49-.52,1.81,1.81,0,0,0,.12-.75Z"/><path d="M221.28,50l.74-.12a1,1,0,0,0,.35.68,1.21,1.21,0,0,0,.79.24,1.17,1.17,0,0,0,.76-.21.63.63,0,0,0,.25-.49.45.45,0,0,0-.22-.4,3.26,3.26,0,0,0-.76-.25,7,7,0,0,1-1.14-.36,1.09,1.09,0,0,1-.65-1,1.14,1.14,0,0,1,.14-.55,1.21,1.21,0,0,1,.37-.42,1.52,1.52,0,0,1,.47-.22,2.26,2.26,0,0,1,.65-.09,2.55,2.55,0,0,1,.91.15,1.24,1.24,0,0,1,.58.4,1.58,1.58,0,0,1,.26.68l-.73.1a.8.8,0,0,0-.29-.53,1.05,1.05,0,0,0-.67-.19,1.22,1.22,0,0,0-.73.17.5.5,0,0,0-.22.4.41.41,0,0,0,.09.26.66.66,0,0,0,.29.2l.66.19a9.22,9.22,0,0,1,1.11.35,1.12,1.12,0,0,1,.49.39,1.09,1.09,0,0,1,.18.64,1.25,1.25,0,0,1-.22.7,1.41,1.41,0,0,1-.63.51,2.28,2.28,0,0,1-.93.18,2.07,2.07,0,0,1-1.31-.36A1.66,1.66,0,0,1,221.28,50Z"/><path d="M85.22,59.35a2.27,2.27,0,0,1,.68-1.81A2.05,2.05,0,0,1,87.29,57a2,2,0,0,1,1.49.6,2.26,2.26,0,0,1,.58,1.65,2.92,2.92,0,0,1-.26,1.34,1.81,1.81,0,0,1-.74.76,2.16,2.16,0,0,1-1.06.27,2,2,0,0,1-1.5-.59A2.37,2.37,0,0,1,85.22,59.35Zm.77,0a1.88,1.88,0,0,0,.37,1.27,1.23,1.23,0,0,0,1.85,0,1.92,1.92,0,0,0,.37-1.29,1.82,1.82,0,0,0-.37-1.24,1.23,1.23,0,0,0-1.85,0A1.87,1.87,0,0,0,86,59.35Z"/><path d="M91.86,60.88l.11.66a2.76,2.76,0,0,1-.56.07,1.28,1.28,0,0,1-.63-.13.72.72,0,0,1-.32-.34,2.67,2.67,0,0,1-.09-.88V57.72h-.55v-.58h.55V56.05l.74-.45v1.54h.75v.58h-.75V60.3a1.3,1.3,0,0,0,0,.41.31.31,0,0,0,.13.15.49.49,0,0,0,.25.05Z"/><path d="M92.59,61.55V55.46h.75v2.18A1.67,1.67,0,0,1,94.65,57a1.78,1.78,0,0,1,.85.19,1.13,1.13,0,0,1,.52.53,2.46,2.46,0,0,1,.16,1v2.79h-.75V58.76a1.16,1.16,0,0,0-.24-.82.9.9,0,0,0-.69-.26,1.21,1.21,0,0,0-.62.17,1,1,0,0,0-.42.47,2.14,2.14,0,0,0-.12.81v2.41Z"/><path d="M100.33,60.13l.77.1a1.88,1.88,0,0,1-.68,1.05,2.29,2.29,0,0,1-2.79-.22,2.33,2.33,0,0,1-.57-1.67,2.44,2.44,0,0,1,.57-1.73A1.94,1.94,0,0,1,99.13,57a1.89,1.89,0,0,1,1.44.6,2.39,2.39,0,0,1,.56,1.69s0,.11,0,.2H97.84a1.7,1.7,0,0,0,.41,1.11,1.22,1.22,0,0,0,.92.39,1.14,1.14,0,0,0,.7-.22A1.43,1.43,0,0,0,100.33,60.13Zm-2.45-1.21h2.46a1.49,1.49,0,0,0-.28-.83,1.15,1.15,0,0,0-.93-.43,1.19,1.19,0,0,0-.87.34A1.36,1.36,0,0,0,97.88,58.92Z"/><path d="M102,61.55V57.14h.67v.67a1.82,1.82,0,0,1,.48-.62.83.83,0,0,1,.48-.15,1.46,1.46,0,0,1,.77.24l-.26.69a1.06,1.06,0,0,0-.55-.16.71.71,0,0,0-.44.15.8.8,0,0,0-.28.41,2.91,2.91,0,0,0-.12.87v2.31Z"/><path d="M108.87,60.88l.11.66a2.76,2.76,0,0,1-.56.07,1.28,1.28,0,0,1-.63-.13.72.72,0,0,1-.32-.34,2.67,2.67,0,0,1-.09-.88V57.72h-.55v-.58h.55V56.05l.74-.45v1.54h.75v.58h-.75V60.3a1.3,1.3,0,0,0,0,.41.31.31,0,0,0,.13.15.49.49,0,0,0,.25.05Z"/><path d="M109.6,61.55V55.46h.75v2.18a1.67,1.67,0,0,1,1.32-.61,1.78,1.78,0,0,1,.85.19,1.13,1.13,0,0,1,.52.53,2.46,2.46,0,0,1,.16,1v2.79h-.75V58.76a1.16,1.16,0,0,0-.24-.82.9.9,0,0,0-.69-.26,1.21,1.21,0,0,0-.62.17,1,1,0,0,0-.42.47,2.14,2.14,0,0,0-.12.81v2.41Z"/><path d="M117.2,61a2.78,2.78,0,0,1-.8.5,2.3,2.3,0,0,1-.82.15,1.6,1.6,0,0,1-1.12-.35,1.17,1.17,0,0,1-.39-.91,1.23,1.23,0,0,1,.53-1,1.81,1.81,0,0,1,.54-.24,5.3,5.3,0,0,1,.66-.11,6.81,6.81,0,0,0,1.33-.26q0-.15,0-.19a.83.83,0,0,0-.21-.64,1.25,1.25,0,0,0-.85-.25,1.32,1.32,0,0,0-.78.18,1.13,1.13,0,0,0-.37.65l-.73-.1a1.81,1.81,0,0,1,.33-.76,1.43,1.43,0,0,1,.66-.44,2.94,2.94,0,0,1,1-.16,2.65,2.65,0,0,1,.92.13,1.21,1.21,0,0,1,.52.33,1.18,1.18,0,0,1,.23.51,4.21,4.21,0,0,1,0,.69v1a10.61,10.61,0,0,0,0,1.32,1.66,1.66,0,0,0,.19.53h-.78A1.57,1.57,0,0,1,117.2,61Zm-.06-1.67a5.51,5.51,0,0,1-1.22.28,2.79,2.79,0,0,0-.65.15A.65.65,0,0,0,115,60a.66.66,0,0,0,.12.85,1,1,0,0,0,.66.2,1.54,1.54,0,0,0,.77-.19,1.16,1.16,0,0,0,.49-.52,1.81,1.81,0,0,0,.12-.75Z"/><path d="M119.05,61.55V57.14h.67v.63a1.59,1.59,0,0,1,1.4-.73,1.84,1.84,0,0,1,.73.14,1.15,1.15,0,0,1,.5.38,1.44,1.44,0,0,1,.23.55,4.26,4.26,0,0,1,0,.73v2.71h-.75V58.87a2,2,0,0,0-.09-.68.72.72,0,0,0-.31-.36,1,1,0,0,0-.52-.13,1.21,1.21,0,0,0-.82.3,1.49,1.49,0,0,0-.35,1.15v2.41Z"/><path d="M127.77,60.88l.11.66a2.76,2.76,0,0,1-.56.07,1.28,1.28,0,0,1-.63-.13.72.72,0,0,1-.32-.34,2.69,2.69,0,0,1-.09-.88V57.72h-.55v-.58h.55V56.05l.74-.45v1.54h.75v.58H127V60.3a1.3,1.3,0,0,0,0,.41.31.31,0,0,0,.13.15.49.49,0,0,0,.25.05Z"/><path d="M128.5,61.55V55.46h.75v2.18a1.67,1.67,0,0,1,1.32-.61,1.78,1.78,0,0,1,.85.19,1.13,1.13,0,0,1,.52.53,2.47,2.47,0,0,1,.16,1v2.79h-.75V58.76a1.16,1.16,0,0,0-.24-.82.91.91,0,0,0-.69-.26,1.22,1.22,0,0,0-.62.17,1,1,0,0,0-.42.47,2.14,2.14,0,0,0-.12.81v2.41Z"/><path d="M136.25,60.13l.77.1a1.88,1.88,0,0,1-.68,1.05,2.29,2.29,0,0,1-2.79-.22,2.33,2.33,0,0,1-.57-1.67,2.44,2.44,0,0,1,.57-1.73A1.94,1.94,0,0,1,135,57a1.89,1.89,0,0,1,1.44.6,2.39,2.39,0,0,1,.56,1.69s0,.11,0,.2h-3.29a1.7,1.7,0,0,0,.41,1.11,1.22,1.22,0,0,0,.92.39,1.14,1.14,0,0,0,.7-.22A1.43,1.43,0,0,0,136.25,60.13Zm-2.45-1.21h2.46a1.49,1.49,0,0,0-.28-.83,1.14,1.14,0,0,0-.93-.43,1.19,1.19,0,0,0-.87.34A1.36,1.36,0,0,0,133.79,58.92Z"/><path d="M140.18,61.91l.73.11a.69.69,0,0,0,.25.49,1.24,1.24,0,0,0,.76.21,1.34,1.34,0,0,0,.8-.21,1,1,0,0,0,.38-.58,4.79,4.79,0,0,0,.05-1,1.54,1.54,0,0,1-1.22.58,1.66,1.66,0,0,1-1.41-.66,2.52,2.52,0,0,1-.5-1.57,2.94,2.94,0,0,1,.23-1.16,1.83,1.83,0,0,1,.66-.82,1.79,1.79,0,0,1,1-.29,1.58,1.58,0,0,1,1.29.63v-.53h.69V61a3.62,3.62,0,0,1-.21,1.46,1.54,1.54,0,0,1-.66.68,2.3,2.3,0,0,1-1.12.25,2.11,2.11,0,0,1-1.27-.35A1.2,1.2,0,0,1,140.18,61.91Zm.62-2.65a1.92,1.92,0,0,0,.34,1.27,1.14,1.14,0,0,0,1.73,0,1.85,1.85,0,0,0,.35-1.24,1.81,1.81,0,0,0-.36-1.22,1.11,1.11,0,0,0-.87-.41,1.08,1.08,0,0,0-.85.4A1.8,1.8,0,0,0,140.8,59.27Z"/><path d="M147.92,61a2.77,2.77,0,0,1-.8.5,2.3,2.3,0,0,1-.82.15,1.6,1.6,0,0,1-1.12-.35,1.17,1.17,0,0,1-.39-.91,1.2,1.2,0,0,1,.15-.59,1.22,1.22,0,0,1,.38-.43,1.83,1.83,0,0,1,.54-.24,5.3,5.3,0,0,1,.66-.11,6.81,6.81,0,0,0,1.33-.26c0-.1,0-.17,0-.19a.83.83,0,0,0-.21-.64,1.25,1.25,0,0,0-.85-.25,1.32,1.32,0,0,0-.78.18,1.13,1.13,0,0,0-.37.65l-.73-.1a1.81,1.81,0,0,1,.33-.76,1.43,1.43,0,0,1,.66-.44,2.93,2.93,0,0,1,1-.16,2.65,2.65,0,0,1,.92.13,1.2,1.2,0,0,1,.52.33,1.16,1.16,0,0,1,.23.51,4.14,4.14,0,0,1,0,.69v1a10.47,10.47,0,0,0,0,1.32,1.63,1.63,0,0,0,.19.53h-.78A1.57,1.57,0,0,1,147.92,61Zm-.06-1.67a5.5,5.5,0,0,1-1.22.28,2.8,2.8,0,0,0-.65.15.65.65,0,0,0-.29.24.66.66,0,0,0,.12.85,1,1,0,0,0,.66.2,1.54,1.54,0,0,0,.77-.19,1.16,1.16,0,0,0,.49-.52,1.81,1.81,0,0,0,.12-.75Z"/><path d="M149.47,60.23l.74-.12a1,1,0,0,0,.35.68,1.21,1.21,0,0,0,.79.24,1.17,1.17,0,0,0,.76-.21.63.63,0,0,0,.25-.49.45.45,0,0,0-.22-.4,3.27,3.27,0,0,0-.76-.25,7,7,0,0,1-1.14-.36,1.09,1.09,0,0,1-.64-1,1.14,1.14,0,0,1,.13-.55,1.22,1.22,0,0,1,.37-.42,1.54,1.54,0,0,1,.47-.22,2.26,2.26,0,0,1,.65-.09,2.55,2.55,0,0,1,.91.15,1.24,1.24,0,0,1,.58.4,1.6,1.6,0,0,1,.26.68l-.73.1a.8.8,0,0,0-.29-.53,1.06,1.06,0,0,0-.68-.19,1.22,1.22,0,0,0-.73.17.49.49,0,0,0-.22.4.41.41,0,0,0,.09.26.67.67,0,0,0,.29.2l.66.19a9.19,9.19,0,0,1,1.11.35,1.12,1.12,0,0,1,.49.39,1.09,1.09,0,0,1,.18.64,1.26,1.26,0,0,1-.22.7,1.41,1.41,0,0,1-.63.51,2.28,2.28,0,0,1-.93.18,2.07,2.07,0,0,1-1.31-.36A1.67,1.67,0,0,1,149.47,60.23Z"/><path d="M156.08,60.23l.74-.12a1,1,0,0,0,.35.68A1.21,1.21,0,0,0,158,61a1.17,1.17,0,0,0,.76-.21.63.63,0,0,0,.25-.49.45.45,0,0,0-.22-.4,3.26,3.26,0,0,0-.76-.25,7,7,0,0,1-1.14-.36,1.09,1.09,0,0,1-.65-1,1.14,1.14,0,0,1,.13-.55,1.22,1.22,0,0,1,.37-.42,1.56,1.56,0,0,1,.48-.22,2.26,2.26,0,0,1,.65-.09,2.55,2.55,0,0,1,.91.15,1.24,1.24,0,0,1,.58.4,1.58,1.58,0,0,1,.26.68l-.73.1a.8.8,0,0,0-.29-.53,1.05,1.05,0,0,0-.67-.19,1.22,1.22,0,0,0-.73.17.5.5,0,0,0-.22.4.41.41,0,0,0,.09.26.67.67,0,0,0,.29.2l.66.19a9.16,9.16,0,0,1,1.11.35,1.12,1.12,0,0,1,.49.39,1.09,1.09,0,0,1,.18.64,1.25,1.25,0,0,1-.22.7,1.4,1.4,0,0,1-.63.51,2.28,2.28,0,0,1-.93.18,2.07,2.07,0,0,1-1.31-.36A1.66,1.66,0,0,1,156.08,60.23Z"/><path d="M160.63,61.55V55.46h.75v2.18A1.67,1.67,0,0,1,162.7,57a1.78,1.78,0,0,1,.85.19,1.13,1.13,0,0,1,.52.53,2.47,2.47,0,0,1,.16,1v2.79h-.75V58.76a1.16,1.16,0,0,0-.24-.82.91.91,0,0,0-.69-.26,1.22,1.22,0,0,0-.62.17,1,1,0,0,0-.42.47,2.14,2.14,0,0,0-.12.81v2.41Z"/><path d="M165.08,59.35a2.27,2.27,0,0,1,.68-1.81,2,2,0,0,1,1.39-.49,2,2,0,0,1,1.49.6,2.27,2.27,0,0,1,.58,1.65,2.92,2.92,0,0,1-.26,1.34,1.81,1.81,0,0,1-.74.76,2.16,2.16,0,0,1-1.06.27,2,2,0,0,1-1.5-.59A2.37,2.37,0,0,1,165.08,59.35Zm.77,0a1.88,1.88,0,0,0,.37,1.27,1.23,1.23,0,0,0,1.85,0,1.92,1.92,0,0,0,.37-1.29,1.82,1.82,0,0,0-.37-1.24,1.23,1.23,0,0,0-1.85,0A1.87,1.87,0,0,0,165.85,59.35Z"/><path d="M170.9,61.55l-1.35-4.41h.77l.7,2.54.26.95.23-.91.7-2.58H173l.66,2.56.22.84.25-.85.76-2.55h.73l-1.38,4.41h-.78l-.7-2.64-.17-.75-.89,3.39Z"/><path d="M176.23,61.55V57.14h.67v.63a1.59,1.59,0,0,1,1.4-.73,1.84,1.84,0,0,1,.73.14,1.15,1.15,0,0,1,.5.38,1.44,1.44,0,0,1,.23.55,4.19,4.19,0,0,1,0,.73v2.71h-.75V58.87a2,2,0,0,0-.09-.68.71.71,0,0,0-.31-.36,1,1,0,0,0-.52-.13,1.21,1.21,0,0,0-.82.3,1.49,1.49,0,0,0-.35,1.15v2.41Z"/><path d="M183,59.35a2.27,2.27,0,0,1,.68-1.81A2,2,0,0,1,185.1,57a2,2,0,0,1,1.49.6,2.26,2.26,0,0,1,.58,1.65,2.92,2.92,0,0,1-.25,1.34,1.81,1.81,0,0,1-.74.76,2.16,2.16,0,0,1-1.06.27,2,2,0,0,1-1.5-.59A2.37,2.37,0,0,1,183,59.35Zm.77,0a1.88,1.88,0,0,0,.37,1.27,1.23,1.23,0,0,0,1.86,0,1.92,1.92,0,0,0,.37-1.29,1.82,1.82,0,0,0-.37-1.24,1.23,1.23,0,0,0-1.85,0A1.87,1.87,0,0,0,183.8,59.35Z"/><path d="M188,61.55V57.14h.67v.63a1.59,1.59,0,0,1,1.4-.73,1.84,1.84,0,0,1,.73.14,1.15,1.15,0,0,1,.5.38,1.44,1.44,0,0,1,.23.55,4.19,4.19,0,0,1,0,.73v2.71h-.75V58.87a2,2,0,0,0-.09-.68.71.71,0,0,0-.31-.36,1,1,0,0,0-.52-.13,1.21,1.21,0,0,0-.82.3,1.49,1.49,0,0,0-.35,1.15v2.41Z"/><path d="M196.76,60.88l.11.66a2.76,2.76,0,0,1-.56.07,1.28,1.28,0,0,1-.63-.13.72.72,0,0,1-.32-.34,2.69,2.69,0,0,1-.09-.88V57.72h-.55v-.58h.55V56.05l.74-.45v1.54h.75v.58H196V60.3a1.3,1.3,0,0,0,0,.41.31.31,0,0,0,.13.15.49.49,0,0,0,.25.05Z"/><path d="M197.49,61.55V55.46h.75v2.18a1.67,1.67,0,0,1,1.32-.61,1.78,1.78,0,0,1,.85.19,1.13,1.13,0,0,1,.52.53,2.47,2.47,0,0,1,.16,1v2.79h-.75V58.76a1.16,1.16,0,0,0-.24-.82.91.91,0,0,0-.69-.26,1.22,1.22,0,0,0-.62.17,1,1,0,0,0-.42.47,2.14,2.14,0,0,0-.12.81v2.41Z"/><path d="M205.24,60.13l.77.1a1.88,1.88,0,0,1-.68,1.05,2.29,2.29,0,0,1-2.79-.22,2.33,2.33,0,0,1-.57-1.67,2.44,2.44,0,0,1,.57-1.73A1.94,1.94,0,0,1,204,57a1.89,1.89,0,0,1,1.44.6,2.39,2.39,0,0,1,.56,1.69s0,.11,0,.2h-3.29a1.7,1.7,0,0,0,.41,1.11,1.22,1.22,0,0,0,.92.39,1.14,1.14,0,0,0,.7-.22A1.43,1.43,0,0,0,205.24,60.13Zm-2.45-1.21h2.46a1.49,1.49,0,0,0-.28-.83,1.14,1.14,0,0,0-.93-.43,1.19,1.19,0,0,0-.87.34A1.36,1.36,0,0,0,202.79,58.92Z"/><path d="M209.3,61.55V57.14H210v.67a1.8,1.8,0,0,1,.48-.62.83.83,0,0,1,.48-.15,1.45,1.45,0,0,1,.77.24l-.26.69a1.06,1.06,0,0,0-.55-.16.71.71,0,0,0-.44.15.79.79,0,0,0-.28.41,2.91,2.91,0,0,0-.12.87v2.31Z"/><path d="M215,61a2.78,2.78,0,0,1-.8.5,2.3,2.3,0,0,1-.82.15,1.6,1.6,0,0,1-1.12-.35,1.17,1.17,0,0,1-.39-.91,1.22,1.22,0,0,1,.53-1,1.8,1.8,0,0,1,.54-.24,5.3,5.3,0,0,1,.66-.11,6.81,6.81,0,0,0,1.33-.26c0-.1,0-.17,0-.19a.83.83,0,0,0-.21-.64,1.25,1.25,0,0,0-.85-.25,1.32,1.32,0,0,0-.78.18,1.13,1.13,0,0,0-.37.65l-.73-.1a1.81,1.81,0,0,1,.33-.76,1.43,1.43,0,0,1,.66-.44,2.94,2.94,0,0,1,1-.16,2.65,2.65,0,0,1,.92.13,1.21,1.21,0,0,1,.52.33,1.19,1.19,0,0,1,.23.51,4.28,4.28,0,0,1,0,.69v1a10.76,10.76,0,0,0,0,1.32,1.68,1.68,0,0,0,.19.53h-.78A1.57,1.57,0,0,1,215,61ZM215,59.34a5.51,5.51,0,0,1-1.22.28,2.77,2.77,0,0,0-.65.15.64.64,0,0,0-.4.6.63.63,0,0,0,.23.5,1,1,0,0,0,.66.2,1.54,1.54,0,0,0,.77-.19,1.16,1.16,0,0,0,.49-.52,1.81,1.81,0,0,0,.12-.75Z"/><path d="M218.5,60.88l.11.66a2.76,2.76,0,0,1-.56.07,1.29,1.29,0,0,1-.63-.13.72.72,0,0,1-.31-.34,2.65,2.65,0,0,1-.09-.88V57.72h-.55v-.58H217V56.05l.74-.45v1.54h.75v.58h-.75V60.3a1.3,1.3,0,0,0,0,.41.31.31,0,0,0,.13.15.49.49,0,0,0,.25.05Z"/><path d="M219.23,56.32v-.86H220v.86Zm0,5.23V57.14H220v4.41Z"/><path d="M221.12,61.55V57.14h.67v.63a1.59,1.59,0,0,1,1.4-.73,1.84,1.84,0,0,1,.73.14,1.15,1.15,0,0,1,.5.38,1.44,1.44,0,0,1,.23.55,4.19,4.19,0,0,1,0,.73v2.71H224V58.87a2,2,0,0,0-.09-.68.71.71,0,0,0-.31-.36,1,1,0,0,0-.52-.13,1.21,1.21,0,0,0-.82.3,1.49,1.49,0,0,0-.35,1.15v2.41Z"/><path d="M225.71,61.91l.73.11a.69.69,0,0,0,.25.49,1.24,1.24,0,0,0,.76.21,1.34,1.34,0,0,0,.8-.21,1,1,0,0,0,.38-.58,4.79,4.79,0,0,0,.05-1,1.54,1.54,0,0,1-1.22.58,1.66,1.66,0,0,1-1.41-.66,2.52,2.52,0,0,1-.5-1.57,2.94,2.94,0,0,1,.23-1.16,1.83,1.83,0,0,1,.66-.82,1.79,1.79,0,0,1,1-.29,1.58,1.58,0,0,1,1.29.63v-.53h.69V61a3.62,3.62,0,0,1-.21,1.46,1.54,1.54,0,0,1-.66.68,2.3,2.3,0,0,1-1.12.25,2.11,2.11,0,0,1-1.27-.35A1.2,1.2,0,0,1,225.71,61.91Zm.62-2.65a1.92,1.92,0,0,0,.34,1.27,1.14,1.14,0,0,0,1.73,0,1.85,1.85,0,0,0,.35-1.24,1.81,1.81,0,0,0-.36-1.22,1.11,1.11,0,0,0-.87-.41,1.08,1.08,0,0,0-.85.4A1.8,1.8,0,0,0,226.33,59.27Z"/><path d="M85.48,71.75V65.66h.75v6.08Z"/><path d="M90.26,71.21a2.82,2.82,0,0,1-.8.5,2.31,2.31,0,0,1-.82.14,1.6,1.6,0,0,1-1.12-.35,1.17,1.17,0,0,1-.39-.91,1.23,1.23,0,0,1,.53-1,1.81,1.81,0,0,1,.54-.25,5.16,5.16,0,0,1,.66-.11A6.84,6.84,0,0,0,90.2,69c0-.1,0-.17,0-.2a.82.82,0,0,0-.21-.64,1.25,1.25,0,0,0-.85-.25,1.32,1.32,0,0,0-.78.19,1.13,1.13,0,0,0-.37.65l-.73-.1a1.81,1.81,0,0,1,.33-.76,1.43,1.43,0,0,1,.66-.44,3,3,0,0,1,1-.16,2.65,2.65,0,0,1,.92.13,1.22,1.22,0,0,1,.52.33,1.17,1.17,0,0,1,.23.51,4.2,4.2,0,0,1,0,.69v1a10.6,10.6,0,0,0,0,1.32,1.65,1.65,0,0,0,.19.53h-.78A1.57,1.57,0,0,1,90.26,71.21Zm-.06-1.67a5.54,5.54,0,0,1-1.22.28,2.78,2.78,0,0,0-.65.15.65.65,0,0,0-.17,1.1,1,1,0,0,0,.66.2,1.54,1.54,0,0,0,.77-.19,1.16,1.16,0,0,0,.49-.52,1.8,1.8,0,0,0,.12-.75Z"/><path d="M92.8,71.75h-.69V65.66h.75v2.17a1.48,1.48,0,0,1,1.21-.59,1.85,1.85,0,0,1,.77.16,1.58,1.58,0,0,1,.6.46,2.25,2.25,0,0,1,.37.72,3,3,0,0,1,.13.9,2.52,2.52,0,0,1-.56,1.75,1.75,1.75,0,0,1-1.34.62,1.41,1.41,0,0,1-1.22-.65Zm0-2.24A2.28,2.28,0,0,0,93,70.66a1.07,1.07,0,0,0,1.8.15,1.93,1.93,0,0,0,.36-1.27,2,2,0,0,0-.34-1.28,1,1,0,0,0-.83-.41,1.07,1.07,0,0,0-.85.43A1.87,1.87,0,0,0,92.8,69.51Z"/><path d="M99.86,70.33l.77.09a1.88,1.88,0,0,1-.68,1.05,2.29,2.29,0,0,1-2.79-.22,2.32,2.32,0,0,1-.57-1.67,2.44,2.44,0,0,1,.57-1.73,1.94,1.94,0,0,1,1.49-.61,1.88,1.88,0,0,1,1.44.6,2.39,2.39,0,0,1,.56,1.69s0,.11,0,.2H97.36a1.7,1.7,0,0,0,.41,1.11,1.22,1.22,0,0,0,.92.39,1.14,1.14,0,0,0,.7-.22A1.43,1.43,0,0,0,99.86,70.33Zm-2.45-1.21h2.46a1.49,1.49,0,0,0-.28-.83,1.15,1.15,0,0,0-.93-.43,1.19,1.19,0,0,0-.87.34A1.36,1.36,0,0,0,97.41,69.12Z"/><path d="M101.55,71.75V65.66h.75v6.08Z"/><path d="M103.67,71.75V70.9h.85v.85Z"/></g></svg>