<svg id="text" xmlns="http://www.w3.org/2000/svg" viewBox="0 0 243.7 93.84"><title>warning_property_damage_heaters_leak</title><rect x="0.5" y="0.5" width="242.7" height="92.84" style="fill:none;stroke:#000"/><polyline points="0.79 27.13 242.79 27.13 242.79 0.67 0.79 0.67"/><path d="M174.29,16.4V13.77h6.62V20a8.32,8.32,0,0,1-2.8,1.69,10,10,0,0,1-3.71.73,8.18,8.18,0,0,1-4.16-1,6.48,6.48,0,0,1-2.66-2.94,9.7,9.7,0,0,1-.89-4.16,9.2,9.2,0,0,1,1-4.33A6.8,6.8,0,0,1,170.59,7a7.67,7.67,0,0,1,3.64-.78,7.13,7.13,0,0,1,4.42,1.22,5.53,5.53,0,0,1,2,3.37l-3,.58a3.32,3.32,0,0,0-1.21-1.82A3.57,3.57,0,0,0,174.23,9a4.11,4.11,0,0,0-3.2,1.31,5.6,5.6,0,0,0-1.19,3.89,6.22,6.22,0,0,0,1.2,4.17,4,4,0,0,0,3.15,1.39,5.19,5.19,0,0,0,1.93-.39,6.7,6.7,0,0,0,1.67-.94v-2m-25.9,5.74V6.53h3L161.11,17V6.53H164v15.6h-3.08L154.75,12V22.14Zm-6,0V6.53h3.07v15.6Zm-15.21,0V6.53h3L139.87,17V6.53h2.85v15.6h-3.08L133.52,12V22.14Zm-12.29-9h2.27a11.56,11.56,0,0,0,2.76-.19,1.66,1.66,0,0,0,.86-.66,2.09,2.09,0,0,0,.31-1.17,1.91,1.91,0,0,0-.41-1.27A1.88,1.88,0,0,0,123,9.23q-.37,0-2.24,0h-2.39Zm-3.07,9V6.53h6.46a10.76,10.76,0,0,1,3.54.42,3.51,3.51,0,0,1,1.77,1.49,4.58,4.58,0,0,1,.66,2.46,4.25,4.25,0,0,1-1,2.9,4.79,4.79,0,0,1-3,1.44,7.23,7.23,0,0,1,1.65,1.31,17.92,17.92,0,0,1,1.75,2.53l1.86,3H125.3l-2.22-3.4a21.53,21.53,0,0,0-1.62-2.29,2.39,2.39,0,0,0-.92-.65,5,5,0,0,0-1.55-.17h-.62v6.51ZM108,16l-2.09-5.79L103.86,16Zm5.65,6.17h-3.34L109,18.59h-6.08l-1.25,3.54H98.41l5.92-15.6h3.25Zm-30.43,0L79.61,6.53h3.14L85,17.25,87.82,6.53h3.65l2.67,10.9,2.33-10.9h3.09l-3.69,15.6H92.61l-3-11.66-3,11.66Zm-15-6.56a.56.56,0,0,1-.51.53h-.07a.51.51,0,0,1-.51-.53c-1.69-5.5-2.5-9.34.51-9.34S69.86,10.08,68.25,15.57Zm-.59,6a1.66,1.66,0,0,1,0-3.31h.07a1.66,1.66,0,0,1-.07,3.31ZM68.91,4.8a1.27,1.27,0,0,0-1.25-.9,1.17,1.17,0,0,0-1.17.9L58.12,19.57c-1.1,1.88-.15,2.64,1,2.71H76.25c1.17-.08,2.06-.83,1-2.71Z" style="fill:#fff"/><path d="M61.08,38.25V30.74h2.44a8.83,8.83,0,0,1,1.8.11,2,2,0,0,1,1.08.74,2.34,2.34,0,0,1,.44,1.46,2.46,2.46,0,0,1-.25,1.16,2.06,2.06,0,0,1-.64.74,2.19,2.19,0,0,1-.79.36,8.66,8.66,0,0,1-1.57.11h-1v2.83ZM62.6,32v2.13h.83a3.92,3.92,0,0,0,1.2-.12,1,1,0,0,0,.47-.37,1,1,0,0,0,.17-.58,1,1,0,0,0-.24-.68,1.05,1.05,0,0,0-.61-.33A7.29,7.29,0,0,0,63.33,32Z"/><path d="M69.45,38.25H68V32.81h1.34v.77a2.33,2.33,0,0,1,.62-.72,1.14,1.14,0,0,1,.62-.17,1.83,1.83,0,0,1,.95.27l-.45,1.26a1.26,1.26,0,0,0-.68-.24.8.8,0,0,0-.51.17,1.14,1.14,0,0,0-.33.6,8.54,8.54,0,0,0-.12,1.83Z"/><path d="M71.83,35.46a2.94,2.94,0,0,1,.35-1.39,2.42,2.42,0,0,1,1-1,3,3,0,0,1,1.45-.35,2.72,2.72,0,0,1,2,.8,2.77,2.77,0,0,1,.79,2,2.81,2.81,0,0,1-.8,2,2.69,2.69,0,0,1-2,.81A3.16,3.16,0,0,1,73.21,38a2.32,2.32,0,0,1-1-1A3.3,3.3,0,0,1,71.83,35.46Zm1.48.08a1.81,1.81,0,0,0,.38,1.24,1.26,1.26,0,0,0,1.89,0A1.83,1.83,0,0,0,76,35.52a1.79,1.79,0,0,0-.38-1.23,1.26,1.26,0,0,0-1.89,0A1.81,1.81,0,0,0,73.3,35.53Z"/><path d="M78.53,32.81h1.34v.8a2,2,0,0,1,.71-.67,2,2,0,0,1,1-.26,2.08,2.08,0,0,1,1.61.74,3,3,0,0,1,.66,2.07,3.1,3.1,0,0,1-.67,2.12,2.08,2.08,0,0,1-1.61.76,1.84,1.84,0,0,1-.82-.18,2.74,2.74,0,0,1-.77-.62v2.74H78.53ZM80,35.44a2.1,2.1,0,0,0,.36,1.36,1.11,1.11,0,0,0,.89.44,1,1,0,0,0,.84-.4,2.07,2.07,0,0,0,.33-1.32A2,2,0,0,0,82,34.24a1.06,1.06,0,0,0-.85-.42,1.11,1.11,0,0,0-.88.41A1.81,1.81,0,0,0,80,35.44Z"/><path d="M88.14,36.52l1.44.24A2.36,2.36,0,0,1,88.7,38a2.57,2.57,0,0,1-1.49.41,2.44,2.44,0,0,1-2.1-.93,3.12,3.12,0,0,1-.54-1.88,3,3,0,0,1,.71-2.12,2.33,2.33,0,0,1,1.79-.77,2.42,2.42,0,0,1,1.92.8,3.55,3.55,0,0,1,.67,2.46H86a1.46,1.46,0,0,0,.35,1,1.09,1.09,0,0,0,.83.36.88.88,0,0,0,.57-.18A1.14,1.14,0,0,0,88.14,36.52Zm.08-1.46a1.39,1.39,0,0,0-.32-1,1,1,0,0,0-1.53,0,1.33,1.33,0,0,0-.3.93Z"/><path d="M92.21,38.25H90.77V32.81H92.1v.77a2.33,2.33,0,0,1,.62-.72,1.14,1.14,0,0,1,.62-.17,1.83,1.83,0,0,1,.95.27l-.45,1.26a1.26,1.26,0,0,0-.68-.24.8.8,0,0,0-.51.17,1.14,1.14,0,0,0-.33.6,8.54,8.54,0,0,0-.12,1.83Z"/><path d="M97.41,32.81V34h-1v2.19a5.41,5.41,0,0,0,0,.78.31.31,0,0,0,.13.18.4.4,0,0,0,.24.07A1.86,1.86,0,0,0,97.4,37l.12,1.12a2.86,2.86,0,0,1-1.14.22,1.8,1.8,0,0,1-.7-.13,1,1,0,0,1-.46-.34,1.34,1.34,0,0,1-.2-.56,7.07,7.07,0,0,1,0-1V34h-.66V32.81H95V31.73l1.45-.84v1.92Z"/><path d="M97.73,32.81h1.53l1.3,3.87,1.27-3.87h1.49L101.4,38l-.34.95a3.89,3.89,0,0,1-.36.73,1.58,1.58,0,0,1-.4.41,1.72,1.72,0,0,1-.55.24,2.85,2.85,0,0,1-.74.09,3.81,3.81,0,0,1-.81-.09l-.13-1.13a3.19,3.19,0,0,0,.61.07.91.91,0,0,0,.74-.29,2.05,2.05,0,0,0,.37-.75Z"/><path d="M107.17,30.74h2.77a5.42,5.42,0,0,1,1.43.14,2.52,2.52,0,0,1,1.13.69,3.29,3.29,0,0,1,.72,1.22,5.55,5.55,0,0,1,.25,1.78,4.94,4.94,0,0,1-.23,1.6,3.31,3.31,0,0,1-.8,1.33,2.67,2.67,0,0,1-1.07.6,4.58,4.58,0,0,1-1.34.16h-2.86ZM108.69,32v5h1.13a4.14,4.14,0,0,0,.92-.07,1.4,1.4,0,0,0,.61-.31,1.59,1.59,0,0,0,.4-.73,4.9,4.9,0,0,0,.15-1.38,4.49,4.49,0,0,0-.15-1.34,1.72,1.72,0,0,0-.43-.73,1.45,1.45,0,0,0-.7-.35,6.88,6.88,0,0,0-1.25-.07Z"/><path d="M115.83,34.47l-1.31-.24a2,2,0,0,1,.76-1.17,2.78,2.78,0,0,1,1.6-.38,3.45,3.45,0,0,1,1.44.23,1.43,1.43,0,0,1,.66.58,3,3,0,0,1,.19,1.29l0,1.68a5.81,5.81,0,0,0,.07,1.06,3.08,3.08,0,0,0,.26.73h-1.43c0-.1-.08-.24-.14-.43l-.05-.17a2.59,2.59,0,0,1-.79.54,2.26,2.26,0,0,1-.9.18,1.85,1.85,0,0,1-1.33-.46,1.52,1.52,0,0,1-.48-1.15,1.55,1.55,0,0,1,.22-.82,1.44,1.44,0,0,1,.62-.55,4.82,4.82,0,0,1,1.15-.34,7.85,7.85,0,0,0,1.4-.35v-.14a.75.75,0,0,0-.21-.59,1.23,1.23,0,0,0-.77-.18,1,1,0,0,0-.6.15A1.05,1.05,0,0,0,115.83,34.47Zm1.93,1.17a8.87,8.87,0,0,1-.88.22,2.66,2.66,0,0,0-.78.25.6.6,0,0,0-.28.51.71.71,0,0,0,.23.52.79.79,0,0,0,.57.22,1.25,1.25,0,0,0,.74-.26.9.9,0,0,0,.34-.48,2.85,2.85,0,0,0,.06-.7Z"/><path d="M120.48,32.81h1.33v.74a2.14,2.14,0,0,1,1.7-.87,1.83,1.83,0,0,1,.91.22,1.65,1.65,0,0,1,.63.65,2.51,2.51,0,0,1,.77-.65,1.9,1.9,0,0,1,.89-.22,2,2,0,0,1,1,.24,1.5,1.5,0,0,1,.62.71,3.12,3.12,0,0,1,.15,1.13v3.48H127V35.14a2.33,2.33,0,0,0-.15-1,.68.68,0,0,0-.62-.31,1,1,0,0,0-.57.18,1,1,0,0,0-.38.54,3.87,3.87,0,0,0-.12,1.13v2.61h-1.44v-3a4.11,4.11,0,0,0-.08-1,.65.65,0,0,0-.24-.34.75.75,0,0,0-.44-.11,1,1,0,0,0-.6.18,1,1,0,0,0-.38.52,3.84,3.84,0,0,0-.12,1.12v2.65h-1.44Z"/><path d="M131,34.47l-1.31-.24a2,2,0,0,1,.76-1.17,2.78,2.78,0,0,1,1.6-.38,3.45,3.45,0,0,1,1.44.23,1.44,1.44,0,0,1,.66.58,3,3,0,0,1,.19,1.29v1.68a5.77,5.77,0,0,0,.07,1.06,3.1,3.1,0,0,0,.26.73h-1.42c0-.1-.08-.24-.14-.43l-.05-.17a2.58,2.58,0,0,1-.79.54,2.25,2.25,0,0,1-.9.18,1.86,1.86,0,0,1-1.33-.46,1.52,1.52,0,0,1-.49-1.15,1.55,1.55,0,0,1,.22-.82,1.44,1.44,0,0,1,.62-.55,4.82,4.82,0,0,1,1.15-.34,7.86,7.86,0,0,0,1.4-.35v-.14a.75.75,0,0,0-.21-.59,1.23,1.23,0,0,0-.77-.18,1,1,0,0,0-.6.15A1.05,1.05,0,0,0,131,34.47Zm1.93,1.17a8.92,8.92,0,0,1-.88.22,2.66,2.66,0,0,0-.79.25.6.6,0,0,0-.28.51.71.71,0,0,0,.23.52.79.79,0,0,0,.57.22,1.25,1.25,0,0,0,.74-.26.9.9,0,0,0,.34-.48,2.87,2.87,0,0,0,.06-.7Z"/><path d="M135.63,38.61l1.65.2a.56.56,0,0,0,.19.4,1.08,1.08,0,0,0,.65.15,1.69,1.69,0,0,0,.85-.17.7.7,0,0,0,.29-.36,2.21,2.21,0,0,0,.07-.66v-.79a2,2,0,0,1-1.63.88,2,2,0,0,1-1.74-.93,3.16,3.16,0,0,1-.5-1.83,3,3,0,0,1,.66-2.09,2.13,2.13,0,0,1,1.64-.72,2,2,0,0,1,1.67.89v-.76h1.35V37.7a4.88,4.88,0,0,1-.16,1.44,1.78,1.78,0,0,1-.45.75,2,2,0,0,1-.77.43,4,4,0,0,1-1.21.15,3.14,3.14,0,0,1-2-.47,1.49,1.49,0,0,1-.58-1.2S135.63,38.68,135.63,38.61Zm1.29-3.19a2,2,0,0,0,.34,1.27,1,1,0,0,0,.83.4,1.14,1.14,0,0,0,.89-.41,1.8,1.8,0,0,0,.36-1.22A1.91,1.91,0,0,0,139,34.2a1.11,1.11,0,0,0-.88-.41,1.06,1.06,0,0,0-.85.4A1.88,1.88,0,0,0,136.92,35.42Z"/><path d="M145.33,36.52l1.44.24a2.36,2.36,0,0,1-.87,1.2,2.57,2.57,0,0,1-1.49.41,2.43,2.43,0,0,1-2.1-.93,3.12,3.12,0,0,1-.54-1.88,3,3,0,0,1,.71-2.12,2.33,2.33,0,0,1,1.79-.77,2.42,2.42,0,0,1,1.92.8,3.55,3.55,0,0,1,.67,2.46h-3.61a1.46,1.46,0,0,0,.35,1,1.09,1.09,0,0,0,.83.36.88.88,0,0,0,.57-.18A1.14,1.14,0,0,0,145.33,36.52Zm.08-1.46a1.39,1.39,0,0,0-.32-1,1,1,0,0,0-1.53,0,1.33,1.33,0,0,0-.3.93Z"/><path d="M151,38.25V30.74h1.52v3h3v-3H157v7.52h-1.52V35h-3v3.29Z"/><path d="M159.59,34.47l-1.31-.24a2,2,0,0,1,.76-1.17,2.77,2.77,0,0,1,1.6-.38,3.45,3.45,0,0,1,1.44.23,1.44,1.44,0,0,1,.66.58,3,3,0,0,1,.19,1.29l0,1.68a5.75,5.75,0,0,0,.07,1.06,3.05,3.05,0,0,0,.26.73h-1.42c0-.1-.08-.24-.14-.43l-.05-.17a2.59,2.59,0,0,1-.79.54,2.26,2.26,0,0,1-.9.18,1.86,1.86,0,0,1-1.33-.46,1.52,1.52,0,0,1-.48-1.15,1.55,1.55,0,0,1,.22-.82,1.44,1.44,0,0,1,.62-.55,4.83,4.83,0,0,1,1.15-.34,7.84,7.84,0,0,0,1.4-.35v-.14a.75.75,0,0,0-.21-.59,1.23,1.23,0,0,0-.77-.18,1,1,0,0,0-.6.15A1.05,1.05,0,0,0,159.59,34.47Zm1.93,1.17a8.89,8.89,0,0,1-.88.22,2.66,2.66,0,0,0-.79.25.6.6,0,0,0-.28.51.71.71,0,0,0,.22.52.79.79,0,0,0,.57.22,1.25,1.25,0,0,0,.74-.26.9.9,0,0,0,.34-.48,2.88,2.88,0,0,0,.06-.7Z"/><path d="M163.78,38.25V37.13l2-2.34c.34-.38.58-.65.74-.82l-.66,0H164V32.81h4.5v1l-2.08,2.4-.73.79.74,0h2.23v1.27Z"/><path d="M170.68,34.47l-1.31-.24a2,2,0,0,1,.76-1.17,2.77,2.77,0,0,1,1.6-.38,3.45,3.45,0,0,1,1.44.23,1.43,1.43,0,0,1,.66.58,3,3,0,0,1,.19,1.29l0,1.68a5.86,5.86,0,0,0,.07,1.06,3.06,3.06,0,0,0,.26.73h-1.43c0-.1-.08-.24-.14-.43l-.05-.17a2.6,2.6,0,0,1-.79.54,2.27,2.27,0,0,1-.9.18,1.85,1.85,0,0,1-1.33-.46,1.52,1.52,0,0,1-.48-1.15,1.54,1.54,0,0,1,.22-.82,1.43,1.43,0,0,1,.62-.55,4.82,4.82,0,0,1,1.15-.34,7.85,7.85,0,0,0,1.4-.35v-.14a.75.75,0,0,0-.21-.59,1.23,1.23,0,0,0-.77-.18,1,1,0,0,0-.6.15A1.05,1.05,0,0,0,170.68,34.47Zm1.93,1.17a8.81,8.81,0,0,1-.88.22,2.66,2.66,0,0,0-.78.25.6.6,0,0,0-.28.51.71.71,0,0,0,.23.52.79.79,0,0,0,.57.22,1.25,1.25,0,0,0,.74-.26.9.9,0,0,0,.34-.48,2.83,2.83,0,0,0,.06-.7Z"/><path d="M176.83,38.25h-1.44V32.81h1.34v.77a2.33,2.33,0,0,1,.62-.72,1.14,1.14,0,0,1,.62-.17,1.83,1.83,0,0,1,.95.27l-.45,1.26a1.26,1.26,0,0,0-.68-.24.8.8,0,0,0-.51.17,1.14,1.14,0,0,0-.33.6,8.49,8.49,0,0,0-.12,1.83Z"/><path d="M184.53,38.25h-1.34v-.8a2.17,2.17,0,0,1-.79.69,2,2,0,0,1-.92.23,2.08,2.08,0,0,1-1.61-.76,3.08,3.08,0,0,1-.67-2.11,3,3,0,0,1,.65-2.1,2.12,2.12,0,0,1,1.65-.72,2,2,0,0,1,1.58.76V30.74h1.44Zm-3.85-2.84a2.49,2.49,0,0,0,.24,1.26,1.09,1.09,0,0,0,1,.56,1.06,1.06,0,0,0,.85-.42,2,2,0,0,0,.35-1.26,2.14,2.14,0,0,0-.34-1.35,1.07,1.07,0,0,0-.87-.41,1.09,1.09,0,0,0-.86.41A1.84,1.84,0,0,0,180.68,35.41Z"/><line x1="0.29" y1="42.21" x2="243.11" y2="42.21" style="stroke:#000"/><path d="M10.22,52.23a1.26,1.26,0,1,1,1.26,1.25A1.24,1.24,0,0,1,10.22,52.23Z" style="fill:#231f20"/><path d="M20.48,52.82l-.84,2.54H18.56l2.75-8.08h1.26l2.76,8.08H24.21l-.86-2.54ZM23.13,52l-.79-2.33c-.18-.53-.3-1-.42-1.48h0c-.12.48-.25,1-.41,1.46L20.7,52Z" style="fill:#231f20"/><path d="M26.45,46.85H27.5v8.52H26.45Z" style="fill:#231f20"/><path d="M29.28,46.85h1.06v8.52H29.28Z" style="fill:#231f20"/><path d="M35.08,49.56l.77,3c.17.65.32,1.25.43,1.85h0c.13-.59.32-1.21.52-1.83l.95-3h.89l.9,2.9c.22.7.38,1.31.52,1.9h0a17.53,17.53,0,0,1,.44-1.88l.83-2.91h1l-1.87,5.8h-1l-.89-2.77a19.44,19.44,0,0,1-.52-1.91h0a17.2,17.2,0,0,1-.53,1.92l-.94,2.76h-1L34,49.56Z" style="fill:#231f20"/><path d="M46.65,55.36l-.08-.73h0a2.16,2.16,0,0,1-1.77.86A1.65,1.65,0,0,1,43,53.83c0-1.4,1.25-2.17,3.49-2.16v-.12a1.2,1.2,0,0,0-1.32-1.34,2.89,2.89,0,0,0-1.51.43l-.24-.7a3.6,3.6,0,0,1,1.91-.52c1.77,0,2.21,1.21,2.21,2.37V54a8.14,8.14,0,0,0,.1,1.39Zm-.16-3c-1.15,0-2.46.18-2.46,1.31a.93.93,0,0,0,1,1,1.44,1.44,0,0,0,1.4-1,1.11,1.11,0,0,0,.06-.34Z" style="fill:#231f20"/><path d="M50.45,47.89v1.67H52v.8H50.45v3.13c0,.72.2,1.13.79,1.13a2.36,2.36,0,0,0,.61-.07l0,.79a2.58,2.58,0,0,1-.94.14A1.46,1.46,0,0,1,49.82,55a2.15,2.15,0,0,1-.41-1.51V50.36h-.9v-.8h.9V48.16Z" style="fill:#231f20"/><path d="M53.66,52.65a1.86,1.86,0,0,0,2,2,3.81,3.81,0,0,0,1.61-.3l.18.76a4.7,4.7,0,0,1-1.93.36,2.7,2.7,0,0,1-2.85-2.93c0-1.75,1-3.13,2.72-3.13a2.46,2.46,0,0,1,2.4,2.73,4,4,0,0,1,0,.49Zm3.09-.76a1.5,1.5,0,0,0-1.46-1.71,1.75,1.75,0,0,0-1.62,1.71Z" style="fill:#231f20"/><path d="M59.09,51.37c0-.68,0-1.27,0-1.81H60l0,1.14h0a1.74,1.74,0,0,1,1.61-1.27,1.14,1.14,0,0,1,.3,0v1a1.59,1.59,0,0,0-.36,0,1.48,1.48,0,0,0-1.42,1.36,3,3,0,0,0,0,.49v3.09h-1Z" style="fill:#231f20"/><path d="M65.56,46.85h1.06v3.62h0a2,2,0,0,1,.76-.74,2.17,2.17,0,0,1,1.08-.3c.78,0,2,.48,2,2.48v3.45H69.44V52c0-.94-.35-1.73-1.34-1.73a1.52,1.52,0,0,0-1.42,1.06,1.28,1.28,0,0,0-.07.5v3.5H65.56Z" style="fill:#231f20"/><path d="M72.8,52.65a1.86,1.86,0,0,0,2,2,3.81,3.81,0,0,0,1.61-.3l.18.76a4.7,4.7,0,0,1-1.93.36,2.7,2.7,0,0,1-2.85-2.93c0-1.75,1-3.13,2.72-3.13a2.46,2.46,0,0,1,2.4,2.73,4,4,0,0,1,0,.49Zm3.09-.76a1.5,1.5,0,0,0-1.46-1.71,1.75,1.75,0,0,0-1.62,1.71Z" style="fill:#231f20"/><path d="M81.44,55.36l-.08-.73h0a2.16,2.16,0,0,1-1.77.86,1.65,1.65,0,0,1-1.77-1.67c0-1.4,1.25-2.17,3.49-2.16v-.12a1.2,1.2,0,0,0-1.32-1.34,2.89,2.89,0,0,0-1.51.43l-.24-.7a3.6,3.6,0,0,1,1.91-.52c1.77,0,2.21,1.21,2.21,2.37V54a8.14,8.14,0,0,0,.1,1.39Zm-.16-3c-1.15,0-2.46.18-2.46,1.31a.93.93,0,0,0,1,1,1.44,1.44,0,0,0,1.4-1,1.11,1.11,0,0,0,.06-.34Z" style="fill:#231f20"/><path d="M85.23,47.89v1.67h1.51v.8H85.23v3.13c0,.72.2,1.13.79,1.13a2.36,2.36,0,0,0,.61-.07l0,.79a2.58,2.58,0,0,1-.94.14A1.46,1.46,0,0,1,84.61,55a2.15,2.15,0,0,1-.41-1.51V50.36h-.9v-.8h.9V48.16Z" style="fill:#231f20"/><path d="M88.45,52.65a1.86,1.86,0,0,0,2,2,3.81,3.81,0,0,0,1.61-.3l.18.76a4.7,4.7,0,0,1-1.93.36,2.7,2.7,0,0,1-2.85-2.93c0-1.75,1-3.13,2.72-3.13a2.46,2.46,0,0,1,2.4,2.73,4,4,0,0,1,0,.49Zm3.09-.76a1.5,1.5,0,0,0-1.46-1.71,1.75,1.75,0,0,0-1.62,1.71Z" style="fill:#231f20"/><path d="M93.88,51.37c0-.68,0-1.27,0-1.81h.92l0,1.14h0a1.74,1.74,0,0,1,1.61-1.27,1.14,1.14,0,0,1,.3,0v1a1.59,1.59,0,0,0-.36,0A1.48,1.48,0,0,0,95,51.77a3,3,0,0,0,0,.49v3.09h-1Z" style="fill:#231f20"/><path d="M97.65,54.28A2.77,2.77,0,0,0,99,54.7c.77,0,1.13-.38,1.13-.86s-.3-.78-1.08-1.07c-1-.37-1.54-.95-1.54-1.64a1.79,1.79,0,0,1,2-1.7,2.9,2.9,0,0,1,1.43.36l-.26.77a2.26,2.26,0,0,0-1.19-.34c-.62,0-1,.36-1,.79s.35.7,1.1,1c1,.38,1.52.89,1.52,1.75,0,1-.79,1.74-2.17,1.74a3.31,3.31,0,0,1-1.63-.4Z" style="fill:#231f20"/><path d="M105.68,52.65a1.86,1.86,0,0,0,2,2,3.81,3.81,0,0,0,1.61-.3l.18.76a4.7,4.7,0,0,1-1.93.36,2.7,2.7,0,0,1-2.85-2.93c0-1.75,1-3.13,2.72-3.13a2.46,2.46,0,0,1,2.4,2.73,4,4,0,0,1,0,.49Zm3.09-.76a1.5,1.5,0,0,0-1.46-1.71,1.75,1.75,0,0,0-1.62,1.71Z" style="fill:#231f20"/><path d="M111.51,49.56l1.14,3.26a14.93,14.93,0,0,1,.47,1.49h0c.13-.48.3-1,.49-1.49l1.13-3.26h1.1l-2.28,5.8h-1l-2.21-5.8Z" style="fill:#231f20"/><path d="M117.35,52.65a1.86,1.86,0,0,0,2,2,3.81,3.81,0,0,0,1.61-.3l.18.76a4.7,4.7,0,0,1-1.93.36,2.7,2.7,0,0,1-2.85-2.93c0-1.75,1-3.13,2.72-3.13a2.46,2.46,0,0,1,2.4,2.73,4,4,0,0,1,0,.49Zm3.09-.76A1.5,1.5,0,0,0,119,50.18a1.75,1.75,0,0,0-1.62,1.71Z" style="fill:#231f20"/><path d="M122.77,51.13c0-.6,0-1.09,0-1.57h.94l.06,1h0a2.14,2.14,0,0,1,1.92-1.09c.8,0,2.05.48,2.05,2.47v3.47h-1.05V52c0-.94-.35-1.71-1.34-1.71a1.5,1.5,0,0,0-1.42,1.08,1.52,1.52,0,0,0-.07.49v3.49h-1.06Z" style="fill:#231f20"/><path d="M130.65,47.89v1.67h1.51v.8h-1.51v3.13c0,.72.2,1.13.79,1.13a2.36,2.36,0,0,0,.61-.07l0,.79a2.58,2.58,0,0,1-.94.14A1.46,1.46,0,0,1,130,55a2.15,2.15,0,0,1-.41-1.51V50.36h-.9v-.8h.9V48.16Z" style="fill:#231f20"/><path d="M138.21,53.78c0,.6,0,1.13,0,1.58h-.94l-.06-.95h0a2.19,2.19,0,0,1-1.92,1.08c-.91,0-2-.5-2-2.54V49.56h1.05v3.21c0,1.1.34,1.85,1.3,1.85a1.49,1.49,0,0,0,1.49-1.5V49.56h1.05Z" style="fill:#231f20"/><path d="M143.18,55.36l-.08-.73h0a2.16,2.16,0,0,1-1.78.86,1.65,1.65,0,0,1-1.77-1.67c0-1.4,1.25-2.17,3.49-2.16v-.12a1.2,1.2,0,0,0-1.32-1.34,2.9,2.9,0,0,0-1.51.43l-.24-.7a3.6,3.6,0,0,1,1.91-.52c1.78,0,2.21,1.21,2.21,2.37V54a8.25,8.25,0,0,0,.1,1.39Zm-.16-3c-1.15,0-2.46.18-2.46,1.31a.93.93,0,0,0,1,1,1.44,1.44,0,0,0,1.4-1,1.1,1.1,0,0,0,.06-.34Z" style="fill:#231f20"/><path d="M145.75,46.85h1.05v8.52h-1.05Z" style="fill:#231f20"/><path d="M148.58,46.85h1.05v8.52h-1.05Z" style="fill:#231f20"/><path d="M151.8,49.56,153.07,53c.13.38.28.84.37,1.19h0c.11-.35.23-.79.37-1.21L155,49.56h1.12l-1.58,4.14c-.75,2-1.27,3-2,3.63a2.86,2.86,0,0,1-1.3.68l-.26-.89a2.8,2.8,0,0,0,.92-.52,3.2,3.2,0,0,0,.89-1.18.76.76,0,0,0,.08-.25.93.93,0,0,0-.07-.28l-2.15-5.35Z" style="fill:#231f20"/><path d="M159.61,46.85h1.05v8.52h-1.05Z" style="fill:#231f20"/><path d="M163,52.65a1.86,1.86,0,0,0,2,2,3.82,3.82,0,0,0,1.61-.3l.18.76a4.7,4.7,0,0,1-1.93.36A2.7,2.7,0,0,1,162,52.55c0-1.75,1-3.13,2.72-3.13a2.46,2.46,0,0,1,2.4,2.73,4,4,0,0,1,0,.49Zm3.09-.76a1.5,1.5,0,0,0-1.46-1.71A1.75,1.75,0,0,0,163,51.89Z" style="fill:#231f20"/><path d="M171.67,55.36l-.08-.73h0a2.16,2.16,0,0,1-1.78.86A1.65,1.65,0,0,1,168,53.83c0-1.4,1.25-2.17,3.49-2.16v-.12a1.2,1.2,0,0,0-1.32-1.34,2.9,2.9,0,0,0-1.51.43l-.24-.7a3.6,3.6,0,0,1,1.91-.52c1.78,0,2.21,1.21,2.21,2.37V54a8.25,8.25,0,0,0,.1,1.39Zm-.16-3c-1.15,0-2.46.18-2.46,1.31a.93.93,0,0,0,1,1,1.44,1.44,0,0,0,1.4-1,1.1,1.1,0,0,0,.06-.34Z" style="fill:#231f20"/><path d="M175.28,52.22h0c.14-.2.35-.46.52-.66l1.7-2h1.27l-2.24,2.39,2.55,3.42h-1.28l-2-2.78-.54.6v2.18h-1V46.85h1Z" style="fill:#231f20"/><path d="M179.78,54.74a.71.71,0,0,1,.72-.76.76.76,0,1,1-.72.76Z" style="fill:#231f20"/><path d="M10.22,66.63a1.26,1.26,0,1,1,1.26,1.25A1.24,1.24,0,0,1,10.22,66.63Z" style="fill:#231f20"/><path d="M19.18,61.78a14.91,14.91,0,0,1,2.22-.17,4.63,4.63,0,0,1,3.27,1,3.72,3.72,0,0,1,1.14,2.9,4.27,4.27,0,0,1-1.16,3.14,5,5,0,0,1-3.57,1.16,16.69,16.69,0,0,1-1.9-.1Zm1,7.15a6.6,6.6,0,0,0,1.06.06,3.11,3.11,0,0,0,3.44-3.43c0-1.91-1.07-3.12-3.27-3.12a5.92,5.92,0,0,0-1.22.11Z" style="fill:#231f20"/><path d="M32.43,66.81a2.84,2.84,0,0,1-2.89,3.08,2.76,2.76,0,0,1-2.78-3,2.83,2.83,0,0,1,2.88-3.08A2.75,2.75,0,0,1,32.43,66.81Zm-4.61.06c0,1.27.73,2.23,1.76,2.23s1.76-.95,1.76-2.26c0-1-.49-2.23-1.74-2.23S27.83,65.77,27.83,66.87Z" style="fill:#231f20"/><path d="M36.31,65.53c0-.6,0-1.09,0-1.57h.94l.06,1h0a2.13,2.13,0,0,1,1.92-1.09c.8,0,2.05.48,2.05,2.47v3.47H40.2V66.41c0-.94-.35-1.71-1.34-1.71a1.5,1.5,0,0,0-1.42,1.08,1.52,1.52,0,0,0-.07.49v3.49H36.31Z" style="fill:#231f20"/><path d="M48.22,66.81a2.84,2.84,0,0,1-2.89,3.08,2.76,2.76,0,0,1-2.78-3,2.83,2.83,0,0,1,2.88-3.08A2.75,2.75,0,0,1,48.22,66.81Zm-4.61.06c0,1.27.73,2.23,1.76,2.23s1.76-.95,1.76-2.26c0-1-.49-2.23-1.74-2.23S43.62,65.77,43.62,66.87Z" style="fill:#231f20"/><path d="M50.83,62.29V64h1.51v.8H50.83v3.13c0,.72.2,1.13.79,1.13a2.33,2.33,0,0,0,.61-.07l0,.79a2.58,2.58,0,0,1-.94.14,1.46,1.46,0,0,1-1.14-.44,2.15,2.15,0,0,1-.41-1.51V64.76h-.9V64h.9V62.56Z" style="fill:#231f20"/><path d="M57.25,62.32a.65.65,0,0,1-1.31,0,.64.64,0,0,1,.66-.66A.63.63,0,0,1,57.25,62.32Zm-1.18,7.44V64h1.06v5.8Z" style="fill:#231f20"/><path d="M58.88,65.53c0-.6,0-1.09,0-1.57h.94l.06,1h0a2.13,2.13,0,0,1,1.92-1.09c.8,0,2.05.48,2.05,2.47v3.47H62.77V66.41c0-.94-.35-1.71-1.34-1.71A1.5,1.5,0,0,0,60,65.78a1.52,1.52,0,0,0-.07.49v3.49H58.88Z" style="fill:#231f20"/><path d="M65.4,68.68a2.78,2.78,0,0,0,1.39.42c.77,0,1.13-.38,1.13-.86s-.3-.78-1.08-1.07c-1-.37-1.54-.95-1.54-1.64a1.79,1.79,0,0,1,2-1.7,2.9,2.9,0,0,1,1.43.36l-.26.77a2.26,2.26,0,0,0-1.19-.34c-.62,0-1,.36-1,.79s.35.7,1.1,1c1,.38,1.52.89,1.52,1.75,0,1-.79,1.74-2.17,1.74a3.32,3.32,0,0,1-1.63-.4Z" style="fill:#231f20"/><path d="M71.57,62.29V64h1.51v.8H71.57v3.13c0,.72.2,1.13.79,1.13a2.33,2.33,0,0,0,.61-.07l0,.79a2.58,2.58,0,0,1-.94.14,1.46,1.46,0,0,1-1.14-.44,2.15,2.15,0,0,1-.41-1.51V64.76h-.9V64h.9V62.56Z" style="fill:#231f20"/><path d="M77.48,69.76,77.4,69h0a2.16,2.16,0,0,1-1.77.86,1.65,1.65,0,0,1-1.77-1.67c0-1.4,1.25-2.17,3.49-2.16v-.12A1.2,1.2,0,0,0,76,64.6a2.89,2.89,0,0,0-1.51.43l-.24-.7a3.6,3.6,0,0,1,1.91-.52c1.77,0,2.21,1.21,2.21,2.37v2.17a8.14,8.14,0,0,0,.1,1.39Zm-.16-3c-1.15,0-2.46.18-2.46,1.31a.93.93,0,0,0,1,1,1.44,1.44,0,0,0,1.4-1,1.11,1.11,0,0,0,.06-.34Z" style="fill:#231f20"/><path d="M80.05,61.25h1.06v8.52H80.05Z" style="fill:#231f20"/><path d="M82.88,61.25h1.06v8.52H82.88Z" style="fill:#231f20"/><path d="M88.68,64l.77,3c.17.65.32,1.25.43,1.85h0c.13-.59.32-1.21.52-1.83l.95-3h.89l.9,2.9c.22.7.38,1.31.52,1.89h0a17.55,17.55,0,0,1,.44-1.88L95,64h1l-1.87,5.8h-1L92.31,67a19.44,19.44,0,0,1-.52-1.91h0A17.2,17.2,0,0,1,91.24,67l-.94,2.76h-1L87.6,64Z" style="fill:#231f20"/><path d="M98.27,62.32a.65.65,0,0,1-1.31,0,.64.64,0,0,1,.66-.66A.63.63,0,0,1,98.27,62.32Zm-1.18,7.44V64h1.06v5.8Z" style="fill:#231f20"/><path d="M101.17,62.29V64h1.51v.8h-1.51v3.13c0,.72.2,1.13.79,1.13a2.34,2.34,0,0,0,.61-.07l0,.79a2.58,2.58,0,0,1-.94.14,1.46,1.46,0,0,1-1.14-.44,2.15,2.15,0,0,1-.41-1.51V64.76h-.9V64h.9V62.56Z" style="fill:#231f20"/><path d="M103.87,61.25h1.06v3.62h0a2,2,0,0,1,.76-.74,2.17,2.17,0,0,1,1.08-.3c.78,0,2,.48,2,2.48v3.45h-1.06V66.43c0-.94-.35-1.73-1.34-1.73A1.52,1.52,0,0,0,105,65.75a1.28,1.28,0,0,0-.07.5v3.5h-1.06Z" style="fill:#231f20"/><path d="M115.78,66.81a2.84,2.84,0,0,1-2.89,3.08,2.76,2.76,0,0,1-2.78-3A2.83,2.83,0,0,1,113,63.82,2.75,2.75,0,0,1,115.78,66.81Zm-4.61.06c0,1.27.73,2.23,1.76,2.23s1.76-.95,1.76-2.26c0-1-.49-2.23-1.74-2.23S111.18,65.77,111.18,66.87Z" style="fill:#231f20"/><path d="M122,68.18c0,.6,0,1.13,0,1.58h-.94l-.06-.95h0a2.18,2.18,0,0,1-1.92,1.08c-.91,0-2-.5-2-2.54V64h1.06v3.21c0,1.1.34,1.85,1.3,1.85a1.53,1.53,0,0,0,1.39-1,1.54,1.54,0,0,0,.1-.54V64H122Z" style="fill:#231f20"/><path d="M125,62.29V64h1.51v.8H125v3.13c0,.72.2,1.13.79,1.13a2.34,2.34,0,0,0,.61-.07l0,.79a2.58,2.58,0,0,1-.94.14,1.46,1.46,0,0,1-1.14-.44,2.15,2.15,0,0,1-.41-1.51V64.76h-.9V64h.9V62.56Z" style="fill:#231f20"/><path d="M133.46,69.76l-.08-.73h0a2.16,2.16,0,0,1-1.78.86,1.65,1.65,0,0,1-1.77-1.67c0-1.4,1.25-2.17,3.49-2.16v-.12A1.2,1.2,0,0,0,132,64.6a2.9,2.9,0,0,0-1.51.43l-.24-.7a3.6,3.6,0,0,1,1.91-.52c1.78,0,2.21,1.21,2.21,2.37v2.17a8.25,8.25,0,0,0,.1,1.39Zm-.16-3c-1.15,0-2.46.18-2.46,1.31a.93.93,0,0,0,1,1,1.44,1.44,0,0,0,1.4-1,1.09,1.09,0,0,0,.06-.34Z" style="fill:#231f20"/><path d="M141,61.25v7c0,.52,0,1.1,0,1.5h-.95l0-1h0a2.14,2.14,0,0,1-2,1.14c-1.4,0-2.48-1.19-2.48-3,0-1.93,1.19-3.12,2.6-3.12a1.94,1.94,0,0,1,1.75.89h0V61.25ZM140,66.32a1.85,1.85,0,0,0,0-.44,1.55,1.55,0,0,0-1.52-1.22c-1.09,0-1.74,1-1.74,2.24s.58,2.15,1.71,2.15a1.59,1.59,0,0,0,1.55-1.26,1.83,1.83,0,0,0,0-.46Z" style="fill:#231f20"/><path d="M143.39,67a1.86,1.86,0,0,0,2,2,3.82,3.82,0,0,0,1.61-.3l.18.75a4.7,4.7,0,0,1-1.93.36A2.7,2.7,0,0,1,142.38,67c0-1.75,1-3.13,2.72-3.13a2.46,2.46,0,0,1,2.4,2.73,4,4,0,0,1,0,.49Zm3.09-.76A1.5,1.5,0,0,0,145,64.58a1.75,1.75,0,0,0-1.62,1.71Z" style="fill:#231f20"/><path d="M152.77,68.86h0a2.07,2.07,0,0,1-1.9,1c-1.35,0-2.46-1.17-2.46-2.94,0-2.17,1.4-3.13,2.63-3.13a1.91,1.91,0,0,1,1.79,1h0l0-.88h1c0,.49,0,1,0,1.6v6.58h-1.06Zm0-2.55a1.79,1.79,0,0,0,0-.44,1.54,1.54,0,0,0-1.51-1.2c-1.09,0-1.75.92-1.75,2.23,0,1.15.55,2.16,1.71,2.16a1.57,1.57,0,0,0,1.51-1.15,1.74,1.74,0,0,0,.08-.5Z" style="fill:#231f20"/><path d="M160.42,68.18c0,.6,0,1.13,0,1.58h-.94l-.06-.95h0a2.18,2.18,0,0,1-1.92,1.08c-.91,0-2-.5-2-2.54V64h1.05v3.21c0,1.1.34,1.85,1.3,1.85a1.49,1.49,0,0,0,1.49-1.5V64h1.05Z" style="fill:#231f20"/><path d="M165.39,69.76l-.08-.73h0a2.16,2.16,0,0,1-1.78.86,1.65,1.65,0,0,1-1.77-1.67c0-1.4,1.25-2.17,3.49-2.16v-.12a1.2,1.2,0,0,0-1.32-1.34,2.9,2.9,0,0,0-1.51.43l-.24-.7a3.6,3.6,0,0,1,1.91-.52c1.78,0,2.21,1.21,2.21,2.37v2.17a8.25,8.25,0,0,0,.1,1.39Zm-.16-3c-1.15,0-2.46.18-2.46,1.31a.93.93,0,0,0,1,1,1.44,1.44,0,0,0,1.4-1,1.09,1.09,0,0,0,.06-.34Z" style="fill:#231f20"/><path d="M169.19,62.29V64h1.51v.8h-1.51v3.13c0,.72.2,1.13.79,1.13a2.34,2.34,0,0,0,.61-.07l0,.79a2.58,2.58,0,0,1-.94.14,1.46,1.46,0,0,1-1.14-.44,2.15,2.15,0,0,1-.41-1.51V64.76h-.9V64h.9V62.56Z" style="fill:#231f20"/><path d="M172.4,67a1.86,1.86,0,0,0,2,2,3.82,3.82,0,0,0,1.61-.3l.18.75a4.7,4.7,0,0,1-1.93.36A2.7,2.7,0,0,1,171.39,67c0-1.75,1-3.13,2.72-3.13a2.46,2.46,0,0,1,2.4,2.73,4,4,0,0,1,0,.49Zm3.09-.76A1.5,1.5,0,0,0,174,64.58a1.75,1.75,0,0,0-1.62,1.71Z" style="fill:#231f20"/><path d="M185.38,61.25v7c0,.52,0,1.1,0,1.5h-.95l0-1h0a2.14,2.14,0,0,1-2,1.14c-1.4,0-2.48-1.19-2.48-3,0-1.93,1.19-3.12,2.6-3.12a1.94,1.94,0,0,1,1.75.89h0V61.25Zm-1.06,5.07a1.85,1.85,0,0,0,0-.44,1.55,1.55,0,0,0-1.52-1.22c-1.09,0-1.74,1-1.74,2.24s.58,2.15,1.71,2.15a1.59,1.59,0,0,0,1.55-1.26,1.83,1.83,0,0,0,0-.46Z" style="fill:#231f20"/><path d="M187.14,65.77c0-.68,0-1.27,0-1.81H188l0,1.14h0a1.74,1.74,0,0,1,1.61-1.27,1.14,1.14,0,0,1,.3,0v1a1.59,1.59,0,0,0-.36,0,1.48,1.48,0,0,0-1.42,1.36,3,3,0,0,0,0,.49v3.09h-1Z" style="fill:#231f20"/><path d="M194.22,69.76l-.08-.73h0a2.16,2.16,0,0,1-1.78.86,1.65,1.65,0,0,1-1.77-1.67c0-1.4,1.25-2.17,3.49-2.16v-.12a1.2,1.2,0,0,0-1.32-1.34,2.9,2.9,0,0,0-1.51.43l-.24-.7a3.6,3.6,0,0,1,1.91-.52c1.78,0,2.21,1.21,2.21,2.37v2.17a8.25,8.25,0,0,0,.1,1.39Zm-.16-3c-1.15,0-2.46.18-2.46,1.31a.93.93,0,0,0,1,1,1.44,1.44,0,0,0,1.4-1,1.09,1.09,0,0,0,.06-.34Z" style="fill:#231f20"/><path d="M198,62.32a.65.65,0,0,1-1.31,0,.64.64,0,0,1,.66-.66A.63.63,0,0,1,198,62.32Zm-1.17,7.44V64h1.05v5.8Z" style="fill:#231f20"/><path d="M199.59,65.53c0-.6,0-1.09,0-1.57h.94l.06,1h0a2.14,2.14,0,0,1,1.92-1.09c.8,0,2.05.48,2.05,2.47v3.47h-1.05V66.41c0-.94-.35-1.71-1.34-1.71a1.5,1.5,0,0,0-1.42,1.08,1.52,1.52,0,0,0-.07.49v3.49h-1.05Z" style="fill:#231f20"/><path d="M209.47,69.76l-.08-.73h0a2.16,2.16,0,0,1-1.78.86,1.65,1.65,0,0,1-1.77-1.67c0-1.4,1.25-2.17,3.49-2.16v-.12A1.2,1.2,0,0,0,208,64.6a2.9,2.9,0,0,0-1.51.43l-.24-.7a3.6,3.6,0,0,1,1.91-.52c1.78,0,2.21,1.21,2.21,2.37v2.17a8.25,8.25,0,0,0,.1,1.39Zm-.16-3c-1.15,0-2.46.18-2.46,1.31a.93.93,0,0,0,1,1,1.44,1.44,0,0,0,1.4-1,1.09,1.09,0,0,0,.06-.34Z" style="fill:#231f20"/><path d="M217,64c0,.42,0,.89,0,1.6v3.37a3.34,3.34,0,0,1-.83,2.65,3.07,3.07,0,0,1-2.11.7,3.75,3.75,0,0,1-1.93-.48l.26-.8a3.28,3.28,0,0,0,1.7.46c1.08,0,1.87-.56,1.87-2v-.65h0a2.07,2.07,0,0,1-1.85,1,2.59,2.59,0,0,1-2.47-2.83,2.79,2.79,0,0,1,2.61-3.08,1.93,1.93,0,0,1,1.81,1h0l0-.88Zm-1.09,2.29a1.5,1.5,0,0,0-.06-.48,1.52,1.52,0,0,0-1.48-1.12c-1,0-1.73.85-1.73,2.19,0,1.14.58,2.09,1.71,2.09a1.54,1.54,0,0,0,1.46-1.08,1.82,1.82,0,0,0,.08-.56Z" style="fill:#231f20"/><path d="M219.33,67a1.86,1.86,0,0,0,2,2,3.82,3.82,0,0,0,1.61-.3l.18.75a4.7,4.7,0,0,1-1.93.36A2.7,2.7,0,0,1,218.33,67c0-1.75,1-3.13,2.72-3.13a2.46,2.46,0,0,1,2.4,2.73,4,4,0,0,1,0,.49Zm3.09-.76A1.5,1.5,0,0,0,221,64.58a1.75,1.75,0,0,0-1.62,1.71Z" style="fill:#231f20"/><path d="M224.36,69.14a.71.71,0,0,1,.72-.75.76.76,0,1,1-.72.75Z" style="fill:#231f20"/></svg>