<svg id="text" xmlns="http://www.w3.org/2000/svg" viewBox="0 0 243.7 130.34"><title>warning_fre_hzrd_frm_crptd_flr_or_fld_dmge</title><path d="M25,74.65c0-.1.09-3.29.1-3.39.15-1.72.82-6.47.92-7.75.64-8.36.14-10.6-.15-13.16,0-.44,1.79.85,4.73,5.42.89,1.38,2.11,3.88,2.56,4.34.65.65,1,.29,1.05-.93.18-3.61.83-6.38,1.19-9.16a68.47,68.47,0,0,0,.89-11.86c0-3.23-.23-3.76,1.2-2.33a15.92,15.92,0,0,1,4,5.77c.79,1.84,1.32,7.43,2.09,1.92a28.39,28.39,0,0,0,.62-5.37c.08-1.51.25-3.56.33-5.93.24-7.14,1.76-9.48,1.89-9.74.51-1,.93,1.83,1.39,3.61S48.63,28,51,32.46c3.9,7.37,2.69,5.79,4.63,8,4.78,5.37,2.86,13.31,4.64,8,.94-2.81,1.79-4.37,2.07-5.62,1.43-6.41,1.25-4.86,2.61-1.68,1,2.42,4,7.69,3.7,12.47a22.56,22.56,0,0,0,.2,6.61c1.08,8.38,1.23,6.51,2.76,2.27,3.66-10.16,2.91-7.37,3.5-6.11,1.68,3.6,2.72,6,3.05,8.53.94,7.25.64,7.69,0,11.53-1.39,9-4,10.28.39,7.84,1.87-1,2.76-3.34,2.56-1.87-1.92,14.15-2.51,14.64-7.89,20.8-5.05,5.79-11.57,7.42-18.18,8.21a55.54,55.54,0,0,1-17.87-.87,22.12,22.12,0,0,1-11.78-6c-5.14-5.45-5.44-9-5.89-16.09,0-.31,0-2.61,0-2.88,0-.73,0,.62,0-3.17,0-7.64,0-14.77-.37-16.52-.3-1.32,3,2.18,5.79,8.73Z"/><rect x="27.09" y="112.8" width="43.03" height="2.22" style="stroke:#000;stroke-width:0.25px"/><path d="M57.9,33a8.19,8.19,0,0,1,.87-2.82c.55-.73.21-.76,3.31-2.69a3.48,3.48,0,0,0,1.58-2c.17-.46.37-.91.48-.25A5.32,5.32,0,0,1,64,27.83a3.75,3.75,0,0,1-1,1.7A19,19,0,0,1,60.62,31a8.77,8.77,0,0,0-2.06,1.69c-.35.41-.66.53-.66.26Z" style="stroke:#000;stroke-width:0.12px"/><path d="M46,59.15a8.18,8.18,0,0,1,.87-2.82c.55-.73.21-.76,3.31-2.69a3.48,3.48,0,0,0,1.57-2c.17-.46.37-.91.48-.25A5.32,5.32,0,0,1,52.09,54a3.75,3.75,0,0,1-1,1.7,18.74,18.74,0,0,1-2.33,1.51,8.78,8.78,0,0,0-2.06,1.69c-.35.41-.66.53-.66.26Z" style="fill:#fff;stroke:#000;stroke-width:0.12px"/><path d="M42.93,19A8.21,8.21,0,0,0,42,16.14c-.57-.72-.22-.76-3.36-2.63a3.47,3.47,0,0,1-1.61-1.93c-.18-.46-.38-.91-.48-.24a5.3,5.3,0,0,0,.18,2.55,3.76,3.76,0,0,0,1.06,1.69A18.87,18.87,0,0,0,40.17,17a8.83,8.83,0,0,1,2.09,1.66c.35.4.67.52.67.25Z" style="stroke:#000;stroke-width:0.12px"/><path d="M43.35,111.26a65.12,65.12,0,0,1-8.43-8.63c-2.36-2.95-4.41-6.66-4.82-9.7-.45-3.3-.69-3.9,1.09-.74.1.18.86,1.68,1.3,1.66s.22-2.15.6-4.12a50.11,50.11,0,0,0,.65-5.48c.09-2.73.1-5.39,0-6.16,0-.46-.07-1.38.1-1.39a3.3,3.3,0,0,1,1.54,1.9,21.56,21.56,0,0,1,1.12,5.53c.22,2.65.48,5.06,2.26,7.81a3.49,3.49,0,0,0,2.74,1.66c.42-.05.21-1,0-1.88a18.55,18.55,0,0,1-.39-4.07,20,20,0,0,1,.26-5.36,27,27,0,0,1,.94-3.7c1.08-2.59,1-.66,1.08,0A16.4,16.4,0,0,0,43.84,81a17.91,17.91,0,0,0,2.59,5.92c1.56,2.1,2.21,2.21,2.21,2.21a6.08,6.08,0,0,0,1.91-2.44,30,30,0,0,0,2.15-7.28c.41-2.41.32-10.19.52-12.85.08-1.15,3.19,3.52,4.21,6.5a17,17,0,0,1,1,7.84c-.29,2-.53,2.72.33,3,.17,0,1.4-.57,2.21-2.48S62.7,77.29,63,78.85A27.53,27.53,0,0,1,64,85c.09,1.72-1.56,5.49-.48,5.94.25.1.64.06,1.38-.75s1.86-1.86,1.4,0a48.16,48.16,0,0,1-4.06,8.28c-2,3.28-6.07,7-7.92,8.82a48,48,0,0,1-4.69,4.19Z" style="fill:#fff;stroke:#000;stroke-width:0.12px"/><rect x="0.5" y="0.5" width="242.7" height="129.34" style="fill:none;stroke:#000"/><polyline points="99.61 27.13 242.79 27.13 242.79 0.67 99.61 0.67"/><path d="M231.29,16.4V13.77h6.62V20a8.32,8.32,0,0,1-2.8,1.69,10,10,0,0,1-3.71.73,8.18,8.18,0,0,1-4.16-1,6.48,6.48,0,0,1-2.66-2.94,9.7,9.7,0,0,1-.89-4.16,9.2,9.2,0,0,1,1-4.33A6.8,6.8,0,0,1,227.59,7a7.67,7.67,0,0,1,3.64-.78,7.13,7.13,0,0,1,4.42,1.22,5.53,5.53,0,0,1,2,3.37l-3,.58a3.32,3.32,0,0,0-1.21-1.82A3.57,3.57,0,0,0,231.23,9a4.11,4.11,0,0,0-3.2,1.31,5.6,5.6,0,0,0-1.19,3.89,6.22,6.22,0,0,0,1.2,4.17,4,4,0,0,0,3.15,1.39,5.19,5.19,0,0,0,1.93-.39,6.7,6.7,0,0,0,1.67-.94v-2m-25.9,5.74V6.53h3L218.11,17V6.53H221v15.6h-3.08L211.75,12V22.14Zm-6,0V6.53h3.07v15.6Zm-15.21,0V6.53h3L196.87,17V6.53h2.85v15.6h-3.08L190.52,12V22.14Zm-12.29-9h2.27a11.56,11.56,0,0,0,2.76-.19,1.66,1.66,0,0,0,.86-.66,2.09,2.09,0,0,0,.31-1.17,1.91,1.91,0,0,0-.41-1.27A1.88,1.88,0,0,0,180,9.23q-.37,0-2.24,0h-2.39Zm-3.07,9V6.53h6.46a10.76,10.76,0,0,1,3.54.42,3.51,3.51,0,0,1,1.77,1.49,4.58,4.58,0,0,1,.66,2.46,4.25,4.25,0,0,1-1,2.9,4.79,4.79,0,0,1-3,1.44,7.23,7.23,0,0,1,1.65,1.31,17.92,17.92,0,0,1,1.75,2.53l1.86,3H182.3l-2.22-3.4a21.53,21.53,0,0,0-1.62-2.29,2.39,2.39,0,0,0-.92-.65,5,5,0,0,0-1.55-.17h-.62v6.51ZM165,16l-2.09-5.79L160.86,16Zm5.65,6.17h-3.34L166,18.59h-6.08l-1.25,3.54h-3.26l5.92-15.6h3.25Zm-30.43,0-3.63-15.6h3.14L142,17.25l2.78-10.72h3.65l2.67,10.9,2.33-10.9h3.09l-3.69,15.6h-3.26l-3-11.66-3,11.66Zm-15-6.56a.56.56,0,0,1-.51.53h-.07a.51.51,0,0,1-.51-.53c-1.69-5.5-2.5-9.34.51-9.34S126.86,10.08,125.25,15.57Zm-.59,6a1.66,1.66,0,0,1,0-3.31h.07a1.66,1.66,0,0,1-.07,3.31ZM125.91,4.8a1.27,1.27,0,0,0-1.25-.9,1.17,1.17,0,0,0-1.17.9l-8.37,14.76c-1.1,1.88-.15,2.64,1,2.71h17.18c1.17-.08,2.06-.83,1-2.71Z" style="fill:#fff"/><path d="M142.94,38.25V30.74h5.15V32h-3.63v1.78h3.14v1.27h-3.14v3.19Z"/><path d="M149.33,32.07V30.74h1.44v1.33Zm0,6.18V32.81h1.44v5.44Z"/><path d="M153.63,38.25h-1.44V32.81h1.34v.77a2.34,2.34,0,0,1,.62-.72,1.14,1.14,0,0,1,.62-.17,1.83,1.83,0,0,1,.95.27l-.45,1.26a1.26,1.26,0,0,0-.68-.24.8.8,0,0,0-.51.17,1.14,1.14,0,0,0-.33.6,8.58,8.58,0,0,0-.12,1.83Z"/><path d="M159.49,36.52l1.44.24A2.36,2.36,0,0,1,160,38a2.57,2.57,0,0,1-1.49.41,2.43,2.43,0,0,1-2.1-.93,3.12,3.12,0,0,1-.54-1.88,3,3,0,0,1,.71-2.12,2.33,2.33,0,0,1,1.79-.77,2.42,2.42,0,0,1,1.92.8,3.55,3.55,0,0,1,.67,2.46h-3.61a1.46,1.46,0,0,0,.35,1,1.09,1.09,0,0,0,.83.36.88.88,0,0,0,.57-.18A1.14,1.14,0,0,0,159.49,36.52Zm.08-1.46a1.39,1.39,0,0,0-.32-1,1,1,0,0,0-1.53,0,1.33,1.33,0,0,0-.3.93Z"/><path d="M165.11,38.25V30.74h1.52v3h3v-3h1.52v7.52H169.6V35h-3v3.29Z"/><path d="M173.75,34.47l-1.31-.24a2,2,0,0,1,.76-1.17,2.77,2.77,0,0,1,1.6-.38,3.45,3.45,0,0,1,1.44.23,1.44,1.44,0,0,1,.66.58,3,3,0,0,1,.19,1.29l0,1.68a5.75,5.75,0,0,0,.07,1.06,3.05,3.05,0,0,0,.26.73H176c0-.1-.08-.24-.14-.43l-.05-.17a2.59,2.59,0,0,1-.79.54,2.26,2.26,0,0,1-.9.18,1.86,1.86,0,0,1-1.33-.46,1.52,1.52,0,0,1-.48-1.15,1.55,1.55,0,0,1,.22-.82,1.44,1.44,0,0,1,.62-.55,4.83,4.83,0,0,1,1.15-.34,7.84,7.84,0,0,0,1.4-.35v-.14a.75.75,0,0,0-.21-.59,1.23,1.23,0,0,0-.77-.18,1,1,0,0,0-.6.15A1.05,1.05,0,0,0,173.75,34.47Zm1.93,1.17a8.89,8.89,0,0,1-.88.22,2.66,2.66,0,0,0-.79.25.6.6,0,0,0-.28.51.71.71,0,0,0,.22.52.79.79,0,0,0,.57.22,1.25,1.25,0,0,0,.74-.26.9.9,0,0,0,.34-.48,2.88,2.88,0,0,0,.06-.7Z"/><path d="M177.93,38.25V37.13l2-2.34q.5-.57.74-.82l-.66,0h-1.92V32.81h4.5v1l-2.08,2.4-.73.79.74,0h2.23v1.27Z"/><path d="M184.84,34.47l-1.31-.24a2,2,0,0,1,.76-1.17,2.77,2.77,0,0,1,1.6-.38,3.45,3.45,0,0,1,1.44.23,1.44,1.44,0,0,1,.66.58,3,3,0,0,1,.19,1.29l0,1.68a5.75,5.75,0,0,0,.07,1.06,3.05,3.05,0,0,0,.26.73h-1.42c0-.1-.08-.24-.14-.43l-.05-.17a2.59,2.59,0,0,1-.79.54,2.26,2.26,0,0,1-.9.18,1.86,1.86,0,0,1-1.33-.46,1.52,1.52,0,0,1-.48-1.15,1.55,1.55,0,0,1,.22-.82,1.44,1.44,0,0,1,.62-.55,4.83,4.83,0,0,1,1.15-.34,7.84,7.84,0,0,0,1.4-.35v-.14a.75.75,0,0,0-.21-.59,1.23,1.23,0,0,0-.77-.18,1,1,0,0,0-.6.15A1.05,1.05,0,0,0,184.84,34.47Zm1.93,1.17a8.89,8.89,0,0,1-.88.22,2.66,2.66,0,0,0-.79.25.6.6,0,0,0-.28.51.71.71,0,0,0,.22.52.79.79,0,0,0,.57.22,1.25,1.25,0,0,0,.74-.26.9.9,0,0,0,.34-.48,2.88,2.88,0,0,0,.06-.7Z"/><path d="M191,38.25h-1.44V32.81h1.34v.77a2.33,2.33,0,0,1,.62-.72,1.14,1.14,0,0,1,.62-.17,1.83,1.83,0,0,1,.95.27l-.45,1.26a1.26,1.26,0,0,0-.68-.24.8.8,0,0,0-.51.17,1.14,1.14,0,0,0-.33.6,8.56,8.56,0,0,0-.12,1.83Z"/><path d="M198.68,38.25h-1.34v-.8a2.17,2.17,0,0,1-.79.69,2,2,0,0,1-.92.23,2.07,2.07,0,0,1-1.61-.76,3.07,3.07,0,0,1-.67-2.11,3,3,0,0,1,.65-2.1,2.12,2.12,0,0,1,1.65-.72,2,2,0,0,1,1.58.76V30.74h1.44Zm-3.84-2.84a2.49,2.49,0,0,0,.24,1.26,1.09,1.09,0,0,0,1,.56,1.06,1.06,0,0,0,.85-.42,2,2,0,0,0,.35-1.26,2.14,2.14,0,0,0-.34-1.35,1.07,1.07,0,0,0-.87-.41,1.08,1.08,0,0,0-.86.41A1.84,1.84,0,0,0,194.84,35.41Z"/><line x1="99.01" y1="42.21" x2="243.11" y2="42.21" style="stroke:#000"/><line x1="99.39" y1="129.84" x2="99.39" y2="0.57" style="stroke:#000"/><path d="M113.81,78.74V72.66h2.35a6.35,6.35,0,0,1,1.22.09,2.44,2.44,0,0,1,1,.44,2.5,2.5,0,0,1,.81,1,3.68,3.68,0,0,1,.27,1.45,3.82,3.82,0,0,1-.18,1.23,2.86,2.86,0,0,1-.47.89,2.37,2.37,0,0,1-.62.55,2.73,2.73,0,0,1-.82.3,5.26,5.26,0,0,1-1.1.1Zm.9-.72h1.46a4,4,0,0,0,1.06-.11,1.55,1.55,0,0,0,.61-.32,1.89,1.89,0,0,0,.5-.77,3.38,3.38,0,0,0,.18-1.17,2.58,2.58,0,0,0-.35-1.47,1.72,1.72,0,0,0-.85-.69,3.94,3.94,0,0,0-1.17-.12h-1.44Z"/><path d="M120.29,76.54a2.15,2.15,0,0,1,.76-1.81,2.48,2.48,0,0,1,1.56-.49,2.37,2.37,0,0,1,1.67.6,2.13,2.13,0,0,1,.65,1.65,2.65,2.65,0,0,1-.29,1.34,1.93,1.93,0,0,1-.83.76,2.67,2.67,0,0,1-1.19.27,2.37,2.37,0,0,1-1.68-.59A2.21,2.21,0,0,1,120.29,76.54Zm.86,0a1.74,1.74,0,0,0,.41,1.27,1.5,1.5,0,0,0,2.08,0,1.78,1.78,0,0,0,.42-1.29,1.69,1.69,0,0,0-.42-1.24,1.5,1.5,0,0,0-2.08,0A1.73,1.73,0,0,0,121.15,76.54Z"/><path d="M128.55,78.74V74.33h.75V75a1.85,1.85,0,0,1,1.57-.73,2.3,2.3,0,0,1,.82.14,1.29,1.29,0,0,1,.56.38,1.36,1.36,0,0,1,.26.55,3.79,3.79,0,0,1,0,.73v2.71h-.84V76.06a1.8,1.8,0,0,0-.1-.68.75.75,0,0,0-.35-.36,1.21,1.21,0,0,0-.58-.13,1.46,1.46,0,0,0-.92.3,1.39,1.39,0,0,0-.39,1.15v2.41Z"/><path d="M133.55,76.54a2.15,2.15,0,0,1,.76-1.81,2.48,2.48,0,0,1,1.56-.49,2.37,2.37,0,0,1,1.67.6,2.13,2.13,0,0,1,.65,1.65,2.64,2.64,0,0,1-.29,1.34,1.93,1.93,0,0,1-.83.76,2.67,2.67,0,0,1-1.2.27,2.37,2.37,0,0,1-1.68-.59A2.22,2.22,0,0,1,133.55,76.54Zm.86,0a1.74,1.74,0,0,0,.41,1.27,1.5,1.5,0,0,0,2.08,0,1.78,1.78,0,0,0,.42-1.29,1.69,1.69,0,0,0-.42-1.24,1.5,1.5,0,0,0-2.08,0A1.73,1.73,0,0,0,134.41,76.54Z"/><path d="M141,78.07l.12.66a3.49,3.49,0,0,1-.63.07,1.58,1.58,0,0,1-.71-.13.77.77,0,0,1-.35-.34,2.41,2.41,0,0,1-.1-.88V74.92h-.62v-.58h.62V73.24l.83-.45v1.54H141v.58h-.84v2.58a1.19,1.19,0,0,0,0,.41.33.33,0,0,0,.14.14.61.61,0,0,0,.29.05Z"/><path d="M144.47,73.52v-.86h.84v.86Zm0,5.23V74.33h.84v4.41Z"/><path d="M146.59,78.74V74.33h.75V75a1.85,1.85,0,0,1,1.57-.73,2.3,2.3,0,0,1,.82.14,1.29,1.29,0,0,1,.56.38,1.36,1.36,0,0,1,.26.55,3.79,3.79,0,0,1,0,.73v2.71h-.84V76.06a1.8,1.8,0,0,0-.1-.68.75.75,0,0,0-.35-.36,1.21,1.21,0,0,0-.58-.13,1.46,1.46,0,0,0-.92.3,1.39,1.39,0,0,0-.39,1.15v2.41Z"/><path d="M151.56,77.43l.83-.12a1,1,0,0,0,.39.68,1.48,1.48,0,0,0,.89.24,1.42,1.42,0,0,0,.86-.21.6.6,0,0,0,.28-.49.44.44,0,0,0-.25-.4,3.89,3.89,0,0,0-.86-.25,8.42,8.42,0,0,1-1.28-.36,1.2,1.2,0,0,1-.54-.42,1,1,0,0,1-.18-.59,1.05,1.05,0,0,1,.15-.55,1.26,1.26,0,0,1,.41-.42,1.82,1.82,0,0,1,.53-.22,2.83,2.83,0,0,1,.72-.09,3.18,3.18,0,0,1,1,.15,1.41,1.41,0,0,1,.65.4,1.49,1.49,0,0,1,.29.68l-.82.1a.78.78,0,0,0-.32-.53,1.29,1.29,0,0,0-.76-.19,1.51,1.51,0,0,0-.83.17.48.48,0,0,0-.25.4.39.39,0,0,0,.1.26.75.75,0,0,0,.32.2l.74.19a11.35,11.35,0,0,1,1.24.35,1.24,1.24,0,0,1,.55.39,1,1,0,0,1,.2.64,1.16,1.16,0,0,1-.24.7,1.55,1.55,0,0,1-.71.51,2.84,2.84,0,0,1-1,.18,2.53,2.53,0,0,1-1.47-.36A1.62,1.62,0,0,1,151.56,77.43Z"/><path d="M158.49,78.07l.12.66a3.51,3.51,0,0,1-.63.07,1.58,1.58,0,0,1-.71-.13.76.76,0,0,1-.35-.34,2.4,2.4,0,0,1-.1-.88V74.92h-.62v-.58h.62V73.24l.83-.45v1.54h.84v.58h-.84v2.58a1.17,1.17,0,0,0,0,.41.32.32,0,0,0,.14.14.61.61,0,0,0,.29.05Z"/><path d="M162.54,78.2a3.22,3.22,0,0,1-.9.5,2.88,2.88,0,0,1-.92.15,2,2,0,0,1-1.25-.36,1.12,1.12,0,0,1-.44-.91,1.1,1.1,0,0,1,.17-.59,1.28,1.28,0,0,1,.43-.43,2.17,2.17,0,0,1,.6-.24,6.66,6.66,0,0,1,.75-.11,8.44,8.44,0,0,0,1.5-.26c0-.1,0-.17,0-.2a.77.77,0,0,0-.24-.64,1.52,1.52,0,0,0-1-.25,1.63,1.63,0,0,0-.87.18,1.11,1.11,0,0,0-.42.65l-.82-.1a1.73,1.73,0,0,1,.37-.76,1.64,1.64,0,0,1,.74-.44,3.68,3.68,0,0,1,1.12-.16,3.33,3.33,0,0,1,1,.13,1.39,1.39,0,0,1,.58.33,1.13,1.13,0,0,1,.26.51,3.71,3.71,0,0,1,0,.69v1a9.57,9.57,0,0,0,.05,1.32,1.55,1.55,0,0,0,.21.53h-.88A1.46,1.46,0,0,1,162.54,78.2Zm-.07-1.67a6.85,6.85,0,0,1-1.37.28,3.45,3.45,0,0,0-.73.15.71.71,0,0,0-.33.24.59.59,0,0,0-.12.35.61.61,0,0,0,.25.5,1.18,1.18,0,0,0,.74.2,1.91,1.91,0,0,0,.86-.19,1.24,1.24,0,0,0,.55-.52,1.63,1.63,0,0,0,.13-.75Z"/><path d="M164.6,78.74V72.66h.84v6.08Z"/><path d="M166.72,78.74V72.66h.84v6.08Z"/><path d="M172.42,78.74l-1.51-4.41h.87l.79,2.54.29.95.26-.91.79-2.58h.86l.74,2.56.25.84.29-.85.85-2.55h.81l-1.55,4.41h-.87l-.79-2.64-.19-.75-1,3.39Z"/><path d="M181.63,78.2a3.2,3.2,0,0,1-.9.5,2.88,2.88,0,0,1-.92.15,1.94,1.94,0,0,1-1.25-.36,1.15,1.15,0,0,1-.27-1.5,1.3,1.3,0,0,1,.43-.43,2.17,2.17,0,0,1,.6-.24,6.59,6.59,0,0,1,.75-.11,8.44,8.44,0,0,0,1.49-.26c0-.1,0-.17,0-.2a.77.77,0,0,0-.24-.64,1.52,1.52,0,0,0-1-.25,1.62,1.62,0,0,0-.87.18,1.11,1.11,0,0,0-.42.65l-.82-.1a1.73,1.73,0,0,1,.37-.76,1.64,1.64,0,0,1,.74-.44,3.69,3.69,0,0,1,1.12-.16,3.32,3.32,0,0,1,1,.13,1.39,1.39,0,0,1,.58.33,1.13,1.13,0,0,1,.26.51,3.82,3.82,0,0,1,0,.69v1a9.34,9.34,0,0,0,.05,1.32,1.53,1.53,0,0,0,.21.53h-.88A1.46,1.46,0,0,1,181.63,78.2Zm-.07-1.67a6.83,6.83,0,0,1-1.37.28,3.45,3.45,0,0,0-.73.15.72.72,0,0,0-.33.24.59.59,0,0,0-.12.35.61.61,0,0,0,.25.5,1.18,1.18,0,0,0,.74.2,1.91,1.91,0,0,0,.86-.19,1.23,1.23,0,0,0,.55-.52,1.63,1.63,0,0,0,.13-.75Z"/><path d="M185.54,78.07l.12.66a3.49,3.49,0,0,1-.63.07,1.58,1.58,0,0,1-.71-.13.77.77,0,0,1-.35-.34,2.41,2.41,0,0,1-.1-.88V74.92h-.62v-.58h.62V73.24l.83-.45v1.54h.84v.58h-.84v2.58a1.19,1.19,0,0,0,0,.41.33.33,0,0,0,.14.14.61.61,0,0,0,.29.05Z"/><path d="M189.74,77.32l.87.1a1.89,1.89,0,0,1-.76,1.05,2.49,2.49,0,0,1-1.42.37,2.42,2.42,0,0,1-1.72-.6,2.18,2.18,0,0,1-.64-1.67,2.28,2.28,0,0,1,.64-1.73,2.31,2.31,0,0,1,1.67-.62,2.12,2.12,0,0,1,2.25,2.3s0,.11,0,.2h-3.69a1.59,1.59,0,0,0,.46,1.11,1.46,1.46,0,0,0,1,.39,1.39,1.39,0,0,0,.79-.22A1.43,1.43,0,0,0,189.74,77.32ZM187,76.12h2.76a1.39,1.39,0,0,0-.32-.83,1.35,1.35,0,0,0-1-.43,1.42,1.42,0,0,0-1,.34A1.3,1.3,0,0,0,187,76.12Z"/><path d="M191.65,78.74V74.33h.75V75a1.87,1.87,0,0,1,.53-.62,1,1,0,0,1,.54-.15,1.77,1.77,0,0,1,.86.24l-.29.69a1.3,1.3,0,0,0-.61-.16.86.86,0,0,0-.49.15.8.8,0,0,0-.31.41,2.61,2.61,0,0,0-.14.87v2.31Z"/><path d="M197.49,78.74V72.66h.84v2.18a2,2,0,0,1,1.48-.61,2.19,2.19,0,0,1,1,.19,1.2,1.2,0,0,1,.58.53,2.21,2.21,0,0,1,.17,1v2.79h-.84V75.95a1.07,1.07,0,0,0-.27-.82,1.09,1.09,0,0,0-.77-.25,1.48,1.48,0,0,0-.7.17,1,1,0,0,0-.47.47,2,2,0,0,0-.14.81v2.41Z"/><path d="M206.18,77.32l.87.1a1.89,1.89,0,0,1-.76,1.05,2.49,2.49,0,0,1-1.42.37,2.42,2.42,0,0,1-1.72-.6,2.18,2.18,0,0,1-.64-1.67,2.28,2.28,0,0,1,.64-1.73,2.31,2.31,0,0,1,1.67-.62,2.12,2.12,0,0,1,2.25,2.3s0,.11,0,.2h-3.69a1.59,1.59,0,0,0,.46,1.11,1.46,1.46,0,0,0,1,.39,1.39,1.39,0,0,0,.79-.22A1.43,1.43,0,0,0,206.18,77.32Zm-2.75-1.21h2.76a1.39,1.39,0,0,0-.32-.83,1.35,1.35,0,0,0-1-.43,1.42,1.42,0,0,0-1,.34A1.3,1.3,0,0,0,203.43,76.12Z"/><path d="M211.33,78.2a3.22,3.22,0,0,1-.9.5,2.88,2.88,0,0,1-.92.15,1.94,1.94,0,0,1-1.25-.36A1.15,1.15,0,0,1,208,77a1.28,1.28,0,0,1,.43-.43,2.14,2.14,0,0,1,.6-.24,6.63,6.63,0,0,1,.75-.11,8.45,8.45,0,0,0,1.5-.26c0-.1,0-.17,0-.2a.77.77,0,0,0-.24-.64,1.52,1.52,0,0,0-1-.25,1.63,1.63,0,0,0-.87.18,1.11,1.11,0,0,0-.42.65l-.82-.1a1.72,1.72,0,0,1,.37-.76,1.64,1.64,0,0,1,.74-.44,3.68,3.68,0,0,1,1.12-.16,3.33,3.33,0,0,1,1,.13,1.39,1.39,0,0,1,.58.33,1.13,1.13,0,0,1,.26.51,3.73,3.73,0,0,1,0,.69v1a9.57,9.57,0,0,0,.05,1.32,1.59,1.59,0,0,0,.21.53h-.88A1.42,1.42,0,0,1,211.33,78.2Zm-.07-1.67a6.88,6.88,0,0,1-1.37.28,3.45,3.45,0,0,0-.73.15.71.71,0,0,0-.33.24.58.58,0,0,0-.12.35.61.61,0,0,0,.25.5,1.19,1.19,0,0,0,.74.2,1.91,1.91,0,0,0,.86-.19,1.24,1.24,0,0,0,.55-.52,1.63,1.63,0,0,0,.13-.75Z"/><path d="M215.24,78.07l.12.66a3.51,3.51,0,0,1-.63.07,1.58,1.58,0,0,1-.71-.13.76.76,0,0,1-.35-.34,2.4,2.4,0,0,1-.1-.88V74.92h-.62v-.58h.62V73.24l.83-.45v1.54h.84v.58h-.84v2.58a1.17,1.17,0,0,0,0,.41.32.32,0,0,0,.14.14.61.61,0,0,0,.29.05Z"/><path d="M219.45,77.32l.87.1a1.88,1.88,0,0,1-.76,1.05,2.49,2.49,0,0,1-1.42.37,2.42,2.42,0,0,1-1.72-.6,2.17,2.17,0,0,1-.63-1.67,2.27,2.27,0,0,1,.64-1.73,2.31,2.31,0,0,1,1.67-.62,2.12,2.12,0,0,1,2.25,2.3s0,.11,0,.2h-3.69a1.6,1.6,0,0,0,.46,1.11,1.46,1.46,0,0,0,1,.39,1.39,1.39,0,0,0,.79-.22A1.45,1.45,0,0,0,219.45,77.32Zm-2.75-1.21h2.76a1.39,1.39,0,0,0-.32-.83,1.35,1.35,0,0,0-1-.43,1.42,1.42,0,0,0-1,.34A1.3,1.3,0,0,0,216.69,76.12Z"/><path d="M221.35,78.74V74.33h.75V75a1.86,1.86,0,0,1,.53-.62,1,1,0,0,1,.54-.15,1.78,1.78,0,0,1,.86.24l-.29.69a1.31,1.31,0,0,0-.62-.16.87.87,0,0,0-.49.15.81.81,0,0,0-.31.41,2.66,2.66,0,0,0-.14.87v2.31Z"/><path d="M226.88,76.54a2.15,2.15,0,0,1,.76-1.81,2.49,2.49,0,0,1,1.56-.49,2.37,2.37,0,0,1,1.67.6,2.13,2.13,0,0,1,.65,1.65,2.65,2.65,0,0,1-.29,1.34,1.93,1.93,0,0,1-.83.76,2.67,2.67,0,0,1-1.2.27,2.37,2.37,0,0,1-1.68-.59A2.22,2.22,0,0,1,226.88,76.54Zm.86,0a1.74,1.74,0,0,0,.42,1.27,1.5,1.5,0,0,0,2.08,0,1.79,1.79,0,0,0,.41-1.29,1.69,1.69,0,0,0-.42-1.24,1.5,1.5,0,0,0-2.08,0A1.73,1.73,0,0,0,227.74,76.54Z"/><path d="M232.5,78.74V74.33h.75V75a1.85,1.85,0,0,1,1.57-.73,2.3,2.3,0,0,1,.82.14,1.3,1.3,0,0,1,.56.38,1.36,1.36,0,0,1,.26.55,3.79,3.79,0,0,1,0,.73v2.71h-.84V76.06a1.82,1.82,0,0,0-.1-.68.75.75,0,0,0-.35-.36,1.21,1.21,0,0,0-.58-.13,1.46,1.46,0,0,0-.93.3,1.39,1.39,0,0,0-.39,1.15v2.41Z"/><path d="M116.94,87.33l.82.1a1.85,1.85,0,0,1-.69,1.19,2.17,2.17,0,0,1-1.37.43,2.26,2.26,0,0,1-1.63-.59,2.24,2.24,0,0,1-.62-1.7,2.78,2.78,0,0,1,.27-1.25,1.73,1.73,0,0,1,.81-.8,2.63,2.63,0,0,1,1.18-.27,2.23,2.23,0,0,1,1.32.36,1.64,1.64,0,0,1,.66,1l-.82.11a1.18,1.18,0,0,0-.41-.67,1.15,1.15,0,0,0-.71-.22,1.38,1.38,0,0,0-1,.41,1.77,1.77,0,0,0-.4,1.28A1.83,1.83,0,0,0,114.7,88a1.31,1.31,0,0,0,1,.4,1.26,1.26,0,0,0,.82-.27A1.28,1.28,0,0,0,116.94,87.33Z"/><path d="M121.71,88.4a3.21,3.21,0,0,1-.9.5,2.85,2.85,0,0,1-.92.15,2,2,0,0,1-1.25-.35,1.12,1.12,0,0,1-.44-.91,1.1,1.1,0,0,1,.17-.59,1.26,1.26,0,0,1,.43-.43,2.16,2.16,0,0,1,.6-.25,6.61,6.61,0,0,1,.75-.11,8.52,8.52,0,0,0,1.5-.26c0-.1,0-.17,0-.19a.77.77,0,0,0-.24-.64,1.52,1.52,0,0,0-1-.25,1.62,1.62,0,0,0-.87.18,1.11,1.11,0,0,0-.42.65l-.82-.1a1.71,1.71,0,0,1,.37-.76,1.62,1.62,0,0,1,.74-.44,3.65,3.65,0,0,1,1.12-.16,3.3,3.3,0,0,1,1,.13,1.37,1.37,0,0,1,.58.33,1.12,1.12,0,0,1,.26.51,3.77,3.77,0,0,1,0,.69v1a9.46,9.46,0,0,0,.05,1.32,1.55,1.55,0,0,0,.21.53h-.88A1.45,1.45,0,0,1,121.71,88.4Zm-.07-1.67a6.78,6.78,0,0,1-1.37.28,3.45,3.45,0,0,0-.73.15.72.72,0,0,0-.33.24.59.59,0,0,0-.12.36.61.61,0,0,0,.25.5,1.18,1.18,0,0,0,.74.2,1.89,1.89,0,0,0,.86-.19,1.23,1.23,0,0,0,.55-.52,1.63,1.63,0,0,0,.13-.75Z"/><path d="M123.77,88.94V84.54h.75v.67a1.88,1.88,0,0,1,.53-.62,1,1,0,0,1,.54-.15,1.79,1.79,0,0,1,.86.24l-.29.69a1.31,1.31,0,0,0-.62-.16.86.86,0,0,0-.49.15.81.81,0,0,0-.31.41,2.65,2.65,0,0,0-.14.87v2.31Z"/><path d="M127,90.63v-6.1h.76v.57a1.8,1.8,0,0,1,.61-.5,1.85,1.85,0,0,1,.83-.17,2.12,2.12,0,0,1,1.12.29,1.85,1.85,0,0,1,.73.82,2.72,2.72,0,0,1,.25,1.16,2.68,2.68,0,0,1-.27,1.22,1.91,1.91,0,0,1-.79.83,2.23,2.23,0,0,1-1.09.29,1.75,1.75,0,0,1-.75-.16,1.71,1.71,0,0,1-.55-.4v2.15Zm.76-3.87a1.77,1.77,0,0,0,.39,1.26,1.24,1.24,0,0,0,.94.41,1.27,1.27,0,0,0,1-.42,1.84,1.84,0,0,0,.4-1.3,1.8,1.8,0,0,0-.39-1.26,1.22,1.22,0,0,0-.93-.42,1.25,1.25,0,0,0-.95.45A1.84,1.84,0,0,0,127.72,86.76Z"/><path d="M135.65,87.52l.87.09a1.87,1.87,0,0,1-.76,1,2.47,2.47,0,0,1-1.42.37,2.42,2.42,0,0,1-1.72-.6,2.18,2.18,0,0,1-.64-1.67,2.28,2.28,0,0,1,.64-1.73,2.32,2.32,0,0,1,1.67-.61,2.12,2.12,0,0,1,2.25,2.29s0,.11,0,.2h-3.69a1.59,1.59,0,0,0,.46,1.11,1.46,1.46,0,0,0,1,.39,1.4,1.4,0,0,0,.79-.22A1.45,1.45,0,0,0,135.65,87.52Zm-2.75-1.21h2.76a1.39,1.39,0,0,0-.32-.83,1.36,1.36,0,0,0-1-.43,1.42,1.42,0,0,0-1,.34A1.29,1.29,0,0,0,132.9,86.32Z"/><path d="M139.4,88.27l.12.66a3.41,3.41,0,0,1-.63.07,1.59,1.59,0,0,1-.71-.13.76.76,0,0,1-.35-.34,2.39,2.39,0,0,1-.1-.88V85.12h-.62v-.58h.62V83.44l.83-.45v1.54h.84v.58h-.84v2.58a1.17,1.17,0,0,0,0,.41.33.33,0,0,0,.14.15.61.61,0,0,0,.29.05Z"/><path d="M143.61,87.52l.87.09a1.88,1.88,0,0,1-.76,1,2.48,2.48,0,0,1-1.42.37,2.41,2.41,0,0,1-1.72-.6,2.18,2.18,0,0,1-.64-1.67,2.28,2.28,0,0,1,.64-1.73,2.32,2.32,0,0,1,1.67-.61,2.12,2.12,0,0,1,2.25,2.29s0,.11,0,.2h-3.69a1.59,1.59,0,0,0,.46,1.11,1.46,1.46,0,0,0,1,.39,1.4,1.4,0,0,0,.79-.22A1.44,1.44,0,0,0,143.61,87.52Zm-2.75-1.21h2.76a1.39,1.39,0,0,0-.32-.83,1.36,1.36,0,0,0-1-.43,1.42,1.42,0,0,0-1,.34A1.29,1.29,0,0,0,140.86,86.32Z"/><path d="M148.74,88.94v-.56a1.59,1.59,0,0,1-1.38.66,2.12,2.12,0,0,1-1.09-.29,2,2,0,0,1-.77-.81,2.54,2.54,0,0,1-.27-1.2,2.85,2.85,0,0,1,.25-1.2,1.8,1.8,0,0,1,.74-.82,2.16,2.16,0,0,1,1.1-.29,1.82,1.82,0,0,1,.8.17,1.63,1.63,0,0,1,.57.44V82.86h.83v6.08Zm-2.65-2.2a1.78,1.78,0,0,0,.4,1.27,1.27,1.27,0,0,0,.95.42,1.25,1.25,0,0,0,.93-.4,1.71,1.71,0,0,0,.38-1.22,1.91,1.91,0,0,0-.39-1.33,1.26,1.26,0,0,0-1-.42,1.22,1.22,0,0,0-.93.41A1.85,1.85,0,0,0,146.09,86.74Z"/><path d="M153.69,88.94V85.12h-.74v-.58h.74v-.47a1.85,1.85,0,0,1,.09-.66,1,1,0,0,1,.43-.47,1.69,1.69,0,0,1,.85-.18,4.59,4.59,0,0,1,.78.08l-.12.65a3.19,3.19,0,0,0-.49,0,.8.8,0,0,0-.54.14.73.73,0,0,0-.16.54v.41h1v.58h-1v3.83Z"/><path d="M156.12,88.94V82.86H157v6.08Z"/><path d="M157.94,86.74a2.15,2.15,0,0,1,.76-1.81,2.48,2.48,0,0,1,1.56-.49,2.36,2.36,0,0,1,1.67.6,2.12,2.12,0,0,1,.65,1.64,2.64,2.64,0,0,1-.29,1.34,1.93,1.93,0,0,1-.83.76,2.67,2.67,0,0,1-1.2.27,2.37,2.37,0,0,1-1.68-.59A2.22,2.22,0,0,1,157.94,86.74Zm.86,0a1.74,1.74,0,0,0,.41,1.27,1.49,1.49,0,0,0,2.08,0,1.78,1.78,0,0,0,.42-1.29,1.69,1.69,0,0,0-.42-1.24,1.5,1.5,0,0,0-2.08,0A1.73,1.73,0,0,0,158.81,86.74Z"/><path d="M163.25,86.74a2.15,2.15,0,0,1,.76-1.81,2.48,2.48,0,0,1,1.56-.49,2.36,2.36,0,0,1,1.67.6,2.12,2.12,0,0,1,.65,1.64A2.65,2.65,0,0,1,167.6,88a1.93,1.93,0,0,1-.83.76,2.66,2.66,0,0,1-1.19.27,2.37,2.37,0,0,1-1.68-.59A2.21,2.21,0,0,1,163.25,86.74Zm.86,0a1.74,1.74,0,0,0,.42,1.27,1.49,1.49,0,0,0,2.08,0,1.78,1.78,0,0,0,.42-1.29,1.69,1.69,0,0,0-.42-1.24,1.5,1.5,0,0,0-2.08,0A1.73,1.73,0,0,0,164.11,86.74Z"/><path d="M168.86,88.94V84.54h.75v.67a1.9,1.9,0,0,1,.53-.62,1,1,0,0,1,.54-.15,1.79,1.79,0,0,1,.86.24l-.29.69a1.31,1.31,0,0,0-.62-.16.86.86,0,0,0-.49.15.81.81,0,0,0-.31.41,2.62,2.62,0,0,0-.14.87v2.31Z"/><path d="M171.76,88.94v-.85h1v.85Z"/><circle cx="106.43" cy="75.02" r="1.76"/><circle cx="106.43" cy="98.69" r="1.76"/><path d="M113.86,102.28V96.19H116a5.06,5.06,0,0,1,1.08.09,2.07,2.07,0,0,1,.89.44,2.47,2.47,0,0,1,.72,1,4.08,4.08,0,0,1,.24,1.45,4.27,4.27,0,0,1-.16,1.23,3,3,0,0,1-.42.89,2.21,2.21,0,0,1-.55.55,2.27,2.27,0,0,1-.73.3,4.19,4.19,0,0,1-1,.1Zm.81-.72H116a3.17,3.17,0,0,0,.94-.11,1.34,1.34,0,0,0,.55-.32,1.92,1.92,0,0,0,.45-.77,3.76,3.76,0,0,0,.16-1.17,2.83,2.83,0,0,0-.31-1.47A1.58,1.58,0,0,0,117,97a3.15,3.15,0,0,0-1-.12h-1.28Z"/><path d="M119.63,100.07a2.27,2.27,0,0,1,.68-1.81,2.05,2.05,0,0,1,1.39-.49,2,2,0,0,1,1.49.6,2.27,2.27,0,0,1,.58,1.65,2.92,2.92,0,0,1-.26,1.34,1.8,1.8,0,0,1-.74.76,2.16,2.16,0,0,1-1.06.27,2,2,0,0,1-1.5-.59A2.37,2.37,0,0,1,119.63,100.07Zm.77,0a1.88,1.88,0,0,0,.37,1.27,1.23,1.23,0,0,0,1.85,0A1.92,1.92,0,0,0,123,100a1.82,1.82,0,0,0-.37-1.24,1.23,1.23,0,0,0-1.85,0A1.87,1.87,0,0,0,120.4,100.07Z"/><path d="M127,102.28V97.87h.67v.63a1.59,1.59,0,0,1,1.4-.73,1.85,1.85,0,0,1,.73.14,1.16,1.16,0,0,1,.5.38,1.44,1.44,0,0,1,.23.55,4.32,4.32,0,0,1,0,.73v2.71h-.75V99.59a2,2,0,0,0-.09-.68.72.72,0,0,0-.31-.36,1,1,0,0,0-.52-.13,1.21,1.21,0,0,0-.82.3,1.5,1.5,0,0,0-.35,1.15v2.41Z"/><path d="M131.44,100.07a2.27,2.27,0,0,1,.68-1.81,2.05,2.05,0,0,1,1.39-.49,2,2,0,0,1,1.49.6,2.27,2.27,0,0,1,.58,1.65,2.92,2.92,0,0,1-.26,1.34,1.81,1.81,0,0,1-.74.76,2.16,2.16,0,0,1-1.06.27,2,2,0,0,1-1.5-.59A2.37,2.37,0,0,1,131.44,100.07Zm.77,0a1.88,1.88,0,0,0,.37,1.27,1.23,1.23,0,0,0,1.85,0,1.92,1.92,0,0,0,.37-1.29,1.82,1.82,0,0,0-.37-1.24,1.23,1.23,0,0,0-1.85,0A1.87,1.87,0,0,0,132.21,100.07Z"/><path d="M138.08,101.61l.11.66a2.79,2.79,0,0,1-.56.07,1.28,1.28,0,0,1-.63-.13.73.73,0,0,1-.31-.34,2.66,2.66,0,0,1-.09-.88V98.45H136v-.58h.55V96.78l.74-.45v1.54h.75v.58h-.75V101a1.31,1.31,0,0,0,0,.41.31.31,0,0,0,.13.14.49.49,0,0,0,.25.05Z"/><path d="M140.89,100.07a2.27,2.27,0,0,1,.68-1.81,2.05,2.05,0,0,1,1.39-.49,2,2,0,0,1,1.49.6A2.27,2.27,0,0,1,145,100a2.92,2.92,0,0,1-.25,1.34,1.81,1.81,0,0,1-.74.76,2.16,2.16,0,0,1-1.06.27,2,2,0,0,1-1.5-.59A2.37,2.37,0,0,1,140.89,100.07Zm.77,0a1.88,1.88,0,0,0,.37,1.27,1.23,1.23,0,0,0,1.86,0,1.93,1.93,0,0,0,.37-1.29,1.82,1.82,0,0,0-.37-1.24,1.23,1.23,0,0,0-1.85,0A1.87,1.87,0,0,0,141.66,100.07Z"/><path d="M145.9,104v-6.1h.68v.57a1.69,1.69,0,0,1,.54-.5,1.5,1.5,0,0,1,.74-.17,1.75,1.75,0,0,1,1,.29,1.78,1.78,0,0,1,.65.82,3,3,0,0,1,.22,1.16,2.94,2.94,0,0,1-.24,1.22,1.85,1.85,0,0,1-1.68,1.12,1.4,1.4,0,0,1-.67-.16,1.5,1.5,0,0,1-.49-.4V104Zm.68-3.87a1.92,1.92,0,0,0,.34,1.26,1.06,1.06,0,0,0,.83.41,1.08,1.08,0,0,0,.85-.42A2,2,0,0,0,149,100a1.94,1.94,0,0,0-.35-1.26,1,1,0,0,0-.83-.42,1.08,1.08,0,0,0-.84.45A2,2,0,0,0,146.58,100.1Z"/><path d="M153.64,100.86l.77.1a1.89,1.89,0,0,1-.68,1.05,2.29,2.29,0,0,1-2.79-.22,2.32,2.32,0,0,1-.57-1.67,2.43,2.43,0,0,1,.57-1.73,1.94,1.94,0,0,1,1.49-.62,1.89,1.89,0,0,1,1.44.6,2.39,2.39,0,0,1,.56,1.69s0,.11,0,.2h-3.29a1.7,1.7,0,0,0,.41,1.11,1.22,1.22,0,0,0,.92.39,1.14,1.14,0,0,0,.7-.22A1.43,1.43,0,0,0,153.64,100.86Zm-2.45-1.21h2.46a1.49,1.49,0,0,0-.28-.83,1.14,1.14,0,0,0-.93-.43,1.19,1.19,0,0,0-.87.34A1.37,1.37,0,0,0,151.19,99.65Z"/><path d="M155.35,102.28V97.87H156v.67a1.79,1.79,0,0,1,.48-.62.83.83,0,0,1,.48-.15,1.45,1.45,0,0,1,.77.24l-.26.69a1.06,1.06,0,0,0-.55-.16.71.71,0,0,0-.44.15.79.79,0,0,0-.28.41,2.91,2.91,0,0,0-.12.87v2.31Z"/><path d="M161.06,101.73a2.77,2.77,0,0,1-.8.5,2.31,2.31,0,0,1-.82.15,1.6,1.6,0,0,1-1.12-.36,1.17,1.17,0,0,1-.39-.91,1.2,1.2,0,0,1,.15-.59,1.23,1.23,0,0,1,.39-.43,1.81,1.81,0,0,1,.54-.24,5.33,5.33,0,0,1,.66-.11,6.77,6.77,0,0,0,1.33-.26c0-.1,0-.17,0-.2a.83.83,0,0,0-.21-.64,1.25,1.25,0,0,0-.85-.25,1.32,1.32,0,0,0-.78.18,1.12,1.12,0,0,0-.37.65l-.73-.1a1.82,1.82,0,0,1,.33-.76,1.44,1.44,0,0,1,.66-.44,3,3,0,0,1,1-.16,2.65,2.65,0,0,1,.92.13,1.22,1.22,0,0,1,.52.33,1.18,1.18,0,0,1,.23.51,4.17,4.17,0,0,1,0,.69v1a10.47,10.47,0,0,0,0,1.32,1.69,1.69,0,0,0,.19.53h-.78A1.57,1.57,0,0,1,161.06,101.73Zm-.06-1.67a5.53,5.53,0,0,1-1.22.28,2.77,2.77,0,0,0-.65.15.65.65,0,0,0-.29.24.66.66,0,0,0,.12.85,1,1,0,0,0,.66.2,1.55,1.55,0,0,0,.77-.19,1.17,1.17,0,0,0,.49-.52,1.81,1.81,0,0,0,.12-.75Z"/><path d="M164.54,101.61l.11.66a2.79,2.79,0,0,1-.56.07,1.28,1.28,0,0,1-.63-.13.73.73,0,0,1-.31-.34A2.66,2.66,0,0,1,163,101V98.45h-.55v-.58H163V96.78l.74-.45v1.54h.75v.58h-.75V101a1.31,1.31,0,0,0,0,.41.31.31,0,0,0,.13.14.49.49,0,0,0,.25.05Z"/><path d="M168.29,100.86l.77.1a1.88,1.88,0,0,1-.68,1.05,2,2,0,0,1-1.26.37,2,2,0,0,1-1.53-.6,2.32,2.32,0,0,1-.57-1.67,2.43,2.43,0,0,1,.57-1.73,1.94,1.94,0,0,1,1.49-.62,1.88,1.88,0,0,1,1.44.6,2.39,2.39,0,0,1,.56,1.69s0,.11,0,.2H165.8a1.7,1.7,0,0,0,.41,1.11,1.23,1.23,0,0,0,.92.39,1.14,1.14,0,0,0,.7-.22A1.43,1.43,0,0,0,168.29,100.86Zm-2.45-1.21h2.46a1.5,1.5,0,0,0-.28-.83,1.15,1.15,0,0,0-.93-.43,1.18,1.18,0,0,0-.87.34A1.37,1.37,0,0,0,165.84,99.65Z"/><path d="M173.18,102.28l-1.35-4.41h.77l.7,2.54.26.95.23-.91.7-2.58h.77l.66,2.56.22.84.25-.85.76-2.55h.73l-1.38,4.41h-.78l-.7-2.64-.17-.75-.89,3.39Z"/><path d="M181.38,101.73a2.78,2.78,0,0,1-.8.5,2.32,2.32,0,0,1-.82.15,1.6,1.6,0,0,1-1.12-.36,1.17,1.17,0,0,1-.39-.91,1.21,1.21,0,0,1,.15-.59,1.23,1.23,0,0,1,.39-.43,1.8,1.8,0,0,1,.54-.24,5.3,5.3,0,0,1,.66-.11,6.78,6.78,0,0,0,1.33-.26c0-.1,0-.17,0-.2a.83.83,0,0,0-.21-.64,1.25,1.25,0,0,0-.85-.25,1.32,1.32,0,0,0-.78.18,1.13,1.13,0,0,0-.37.65l-.73-.1a1.82,1.82,0,0,1,.33-.76,1.44,1.44,0,0,1,.66-.44,3,3,0,0,1,1-.16,2.66,2.66,0,0,1,.92.13,1.22,1.22,0,0,1,.52.33,1.19,1.19,0,0,1,.23.51,4.29,4.29,0,0,1,0,.69v1a10.75,10.75,0,0,0,0,1.32,1.69,1.69,0,0,0,.19.53h-.78A1.57,1.57,0,0,1,181.38,101.73Zm-.06-1.67a5.54,5.54,0,0,1-1.22.28,2.77,2.77,0,0,0-.65.15.64.64,0,0,0-.29.24.66.66,0,0,0,.12.85,1,1,0,0,0,.66.2,1.55,1.55,0,0,0,.77-.19,1.16,1.16,0,0,0,.49-.52,1.81,1.81,0,0,0,.12-.75Z"/><path d="M184.86,101.61l.11.66a2.79,2.79,0,0,1-.56.07,1.28,1.28,0,0,1-.63-.13.73.73,0,0,1-.31-.34,2.66,2.66,0,0,1-.09-.88V98.45h-.55v-.58h.55V96.78l.74-.45v1.54h.75v.58h-.75V101a1.31,1.31,0,0,0,0,.41.31.31,0,0,0,.13.14.49.49,0,0,0,.25.05Z"/><path d="M188.61,100.86l.77.1a1.89,1.89,0,0,1-.68,1.05,2.29,2.29,0,0,1-2.79-.22,2.32,2.32,0,0,1-.57-1.67,2.43,2.43,0,0,1,.57-1.73,1.94,1.94,0,0,1,1.49-.62,1.89,1.89,0,0,1,1.44.6,2.39,2.39,0,0,1,.56,1.69s0,.11,0,.2h-3.29a1.7,1.7,0,0,0,.41,1.11,1.22,1.22,0,0,0,.92.39,1.14,1.14,0,0,0,.7-.22A1.43,1.43,0,0,0,188.61,100.86Zm-2.45-1.21h2.46a1.49,1.49,0,0,0-.28-.83,1.14,1.14,0,0,0-.93-.43,1.19,1.19,0,0,0-.87.34A1.37,1.37,0,0,0,186.15,99.65Z"/><path d="M190.31,102.28V97.87H191v.67a1.79,1.79,0,0,1,.48-.62.83.83,0,0,1,.48-.15,1.45,1.45,0,0,1,.77.24l-.26.69a1.06,1.06,0,0,0-.55-.16.71.71,0,0,0-.44.15.79.79,0,0,0-.28.41,2.91,2.91,0,0,0-.12.87v2.31Z"/><path d="M195.51,102.28V96.19h.75v2.18a1.67,1.67,0,0,1,1.32-.61,1.78,1.78,0,0,1,.85.19,1.13,1.13,0,0,1,.52.53,2.45,2.45,0,0,1,.16,1v2.79h-.75V99.48a1.16,1.16,0,0,0-.24-.82.9.9,0,0,0-.69-.25,1.2,1.2,0,0,0-.62.17,1,1,0,0,0-.42.47,2.14,2.14,0,0,0-.12.81v2.41Z"/><path d="M203.25,100.86l.77.1a1.88,1.88,0,0,1-.68,1.05,2,2,0,0,1-1.26.37,2,2,0,0,1-1.53-.6,2.32,2.32,0,0,1-.57-1.67,2.43,2.43,0,0,1,.57-1.73,1.94,1.94,0,0,1,1.49-.62,1.88,1.88,0,0,1,1.44.6,2.39,2.39,0,0,1,.56,1.69s0,.11,0,.2h-3.29a1.7,1.7,0,0,0,.41,1.11,1.23,1.23,0,0,0,.92.39,1.14,1.14,0,0,0,.7-.22A1.43,1.43,0,0,0,203.25,100.86Zm-2.45-1.21h2.46a1.5,1.5,0,0,0-.28-.83,1.15,1.15,0,0,0-.93-.43,1.18,1.18,0,0,0-.87.34A1.37,1.37,0,0,0,200.8,99.65Z"/><path d="M207.84,101.73a2.78,2.78,0,0,1-.8.5,2.32,2.32,0,0,1-.82.15,1.6,1.6,0,0,1-1.12-.36,1.17,1.17,0,0,1-.39-.91,1.21,1.21,0,0,1,.15-.59,1.23,1.23,0,0,1,.39-.43,1.8,1.8,0,0,1,.54-.24,5.3,5.3,0,0,1,.66-.11,6.78,6.78,0,0,0,1.33-.26c0-.1,0-.17,0-.2a.83.83,0,0,0-.21-.64,1.25,1.25,0,0,0-.85-.25,1.32,1.32,0,0,0-.78.18,1.13,1.13,0,0,0-.37.65l-.73-.1a1.82,1.82,0,0,1,.33-.76,1.44,1.44,0,0,1,.66-.44,3,3,0,0,1,1-.16,2.66,2.66,0,0,1,.92.13,1.22,1.22,0,0,1,.52.33,1.19,1.19,0,0,1,.23.51,4.29,4.29,0,0,1,0,.69v1a10.75,10.75,0,0,0,0,1.32,1.69,1.69,0,0,0,.19.53H208A1.57,1.57,0,0,1,207.84,101.73Zm-.06-1.67a5.54,5.54,0,0,1-1.22.28,2.77,2.77,0,0,0-.65.15.64.64,0,0,0-.29.24.66.66,0,0,0,.12.85,1,1,0,0,0,.66.2,1.55,1.55,0,0,0,.77-.19,1.16,1.16,0,0,0,.49-.52,1.81,1.81,0,0,0,.12-.75Z"/><path d="M211.32,101.61l.11.66a2.79,2.79,0,0,1-.56.07,1.28,1.28,0,0,1-.63-.13.73.73,0,0,1-.31-.34,2.66,2.66,0,0,1-.09-.88V98.45h-.55v-.58h.55V96.78l.74-.45v1.54h.75v.58h-.75V101a1.31,1.31,0,0,0,0,.41.31.31,0,0,0,.13.14.49.49,0,0,0,.25.05Z"/><path d="M215.07,100.86l.77.1a1.89,1.89,0,0,1-.68,1.05,2.29,2.29,0,0,1-2.79-.22,2.32,2.32,0,0,1-.57-1.67,2.43,2.43,0,0,1,.57-1.73,1.94,1.94,0,0,1,1.49-.62,1.89,1.89,0,0,1,1.44.6,2.39,2.39,0,0,1,.56,1.69s0,.11,0,.2h-3.29a1.7,1.7,0,0,0,.41,1.11,1.22,1.22,0,0,0,.92.39,1.14,1.14,0,0,0,.7-.22A1.43,1.43,0,0,0,215.07,100.86Zm-2.45-1.21h2.46a1.49,1.49,0,0,0-.28-.83,1.14,1.14,0,0,0-.93-.43,1.19,1.19,0,0,0-.87.34A1.37,1.37,0,0,0,212.62,99.65Z"/><path d="M216.77,102.28V97.87h.67v.67a1.79,1.79,0,0,1,.48-.62.83.83,0,0,1,.48-.15,1.45,1.45,0,0,1,.77.24l-.26.69a1.06,1.06,0,0,0-.55-.16.71.71,0,0,0-.44.15.79.79,0,0,0-.28.41,2.91,2.91,0,0,0-.12.87v2.31Z"/><path d="M222,97.05v-.86h.75v.86Zm0,5.23V97.87h.75v4.41Z"/><path d="M224,102.28V98.45h-.66v-.58H224V97.4a2.09,2.09,0,0,1,.08-.66,1,1,0,0,1,.38-.47,1.37,1.37,0,0,1,.76-.18,3.67,3.67,0,0,1,.7.08l-.11.65a2.44,2.44,0,0,0-.44,0,.65.65,0,0,0-.48.15.78.78,0,0,0-.14.54v.41h.86v.58h-.86v3.83Z"/><path d="M116.78,111.06l.77.09a1.88,1.88,0,0,1-.68,1,2.29,2.29,0,0,1-2.79-.22,2.33,2.33,0,0,1-.57-1.67,2.44,2.44,0,0,1,.57-1.73,1.94,1.94,0,0,1,1.49-.61,1.89,1.89,0,0,1,1.44.6,2.39,2.39,0,0,1,.56,1.69s0,.11,0,.2h-3.29a1.7,1.7,0,0,0,.41,1.11,1.22,1.22,0,0,0,.92.39,1.15,1.15,0,0,0,.7-.22A1.44,1.44,0,0,0,116.78,111.06Zm-2.45-1.21h2.46a1.5,1.5,0,0,0-.28-.83,1.15,1.15,0,0,0-.93-.43,1.19,1.19,0,0,0-.87.34A1.36,1.36,0,0,0,114.33,109.85Z"/><path d="M118,112.48l1.61-2.29-1.49-2.12h.93l.68,1,.31.49.34-.49.74-1H122l-1.52,2.07,1.64,2.33h-.92l-.9-1.37-.24-.37-1.16,1.74Z"/><path d="M122.75,114.17v-6.1h.68v.57a1.67,1.67,0,0,1,.54-.5,1.5,1.5,0,0,1,.74-.17,1.74,1.74,0,0,1,1,.29,1.78,1.78,0,0,1,.65.82,3,3,0,0,1,.22,1.16,3,3,0,0,1-.24,1.22,1.84,1.84,0,0,1-1.68,1.12,1.41,1.41,0,0,1-.67-.16,1.53,1.53,0,0,1-.49-.4v2.15Zm.68-3.87a1.92,1.92,0,0,0,.34,1.26,1.06,1.06,0,0,0,.83.41,1.08,1.08,0,0,0,.85-.42,2,2,0,0,0,.35-1.3,1.94,1.94,0,0,0-.35-1.26,1,1,0,0,0-.83-.42,1.07,1.07,0,0,0-.84.45A2,2,0,0,0,123.42,110.3Z"/><path d="M127.19,110.27a2.27,2.27,0,0,1,.68-1.81,2,2,0,0,1,1.39-.49,2,2,0,0,1,1.49.6,2.26,2.26,0,0,1,.58,1.64,2.92,2.92,0,0,1-.26,1.34,1.81,1.81,0,0,1-.74.76,2.16,2.16,0,0,1-1.06.27,2,2,0,0,1-1.5-.59A2.37,2.37,0,0,1,127.19,110.27Zm.77,0a1.88,1.88,0,0,0,.37,1.27,1.23,1.23,0,0,0,1.85,0,1.91,1.91,0,0,0,.37-1.29,1.82,1.82,0,0,0-.37-1.24,1.23,1.23,0,0,0-1.85,0A1.87,1.87,0,0,0,128,110.27Z"/><path d="M131.9,111.16l.74-.12a1,1,0,0,0,.35.68,1.21,1.21,0,0,0,.79.24,1.17,1.17,0,0,0,.76-.21.63.63,0,0,0,.25-.49.45.45,0,0,0-.22-.4,3.3,3.3,0,0,0-.76-.25,7,7,0,0,1-1.14-.36,1.09,1.09,0,0,1-.65-1,1.14,1.14,0,0,1,.14-.55,1.21,1.21,0,0,1,.37-.42,1.52,1.52,0,0,1,.47-.22,2.26,2.26,0,0,1,.65-.09,2.55,2.55,0,0,1,.91.15,1.24,1.24,0,0,1,.58.41,1.58,1.58,0,0,1,.26.68l-.73.1a.8.8,0,0,0-.29-.53,1.06,1.06,0,0,0-.67-.19,1.21,1.21,0,0,0-.73.17.5.5,0,0,0-.22.4.41.41,0,0,0,.09.26.66.66,0,0,0,.29.2l.66.19a9.13,9.13,0,0,1,1.11.35,1.13,1.13,0,0,1,.49.39,1.09,1.09,0,0,1,.18.64,1.26,1.26,0,0,1-.22.7,1.41,1.41,0,0,1-.63.51,2.27,2.27,0,0,1-.93.18,2.08,2.08,0,0,1-1.31-.36A1.66,1.66,0,0,1,131.9,111.16Z"/><path d="M139.47,111.06l.77.09a1.88,1.88,0,0,1-.68,1,2.29,2.29,0,0,1-2.79-.22,2.33,2.33,0,0,1-.57-1.67,2.44,2.44,0,0,1,.57-1.73,1.94,1.94,0,0,1,1.49-.61,1.89,1.89,0,0,1,1.44.6,2.39,2.39,0,0,1,.56,1.69s0,.11,0,.2H137a1.7,1.7,0,0,0,.41,1.11,1.22,1.22,0,0,0,.92.39,1.14,1.14,0,0,0,.7-.22A1.44,1.44,0,0,0,139.47,111.06ZM137,109.85h2.46a1.49,1.49,0,0,0-.28-.83,1.15,1.15,0,0,0-.93-.43,1.19,1.19,0,0,0-.87.34A1.36,1.36,0,0,0,137,109.85Z"/><path d="M144,112.48v-.56a1.37,1.37,0,0,1-1.23.66,1.73,1.73,0,0,1-1-.29,1.91,1.91,0,0,1-.68-.81,2.81,2.81,0,0,1-.24-1.2,3.14,3.14,0,0,1,.22-1.2,1.73,1.73,0,0,1,.66-.82,1.76,1.76,0,0,1,1-.29,1.47,1.47,0,0,1,1.22.61v-2.18h.74v6.08Zm-2.36-2.2a1.92,1.92,0,0,0,.36,1.27,1.08,1.08,0,0,0,.84.42,1.05,1.05,0,0,0,.83-.4,1.85,1.85,0,0,0,.34-1.22,2.07,2.07,0,0,0-.35-1.33,1.07,1.07,0,0,0-.86-.42,1,1,0,0,0-.83.41A2,2,0,0,0,141.67,110.28Z"/><path d="M149.9,111.81l.11.66a2.72,2.72,0,0,1-.56.07,1.29,1.29,0,0,1-.63-.13.72.72,0,0,1-.31-.34,2.65,2.65,0,0,1-.09-.88v-2.54h-.55v-.58h.55V107l.74-.45v1.54h.75v.58h-.75v2.58a1.3,1.3,0,0,0,0,.41.31.31,0,0,0,.13.15.5.5,0,0,0,.25.05Z"/><path d="M150.35,110.27a2.27,2.27,0,0,1,.68-1.81,2,2,0,0,1,1.39-.49,2,2,0,0,1,1.49.6,2.26,2.26,0,0,1,.58,1.64,2.92,2.92,0,0,1-.26,1.34,1.81,1.81,0,0,1-.74.76,2.17,2.17,0,0,1-1.06.27,2,2,0,0,1-1.5-.59A2.37,2.37,0,0,1,150.35,110.27Zm.77,0a1.88,1.88,0,0,0,.37,1.27,1.23,1.23,0,0,0,1.85,0,1.91,1.91,0,0,0,.37-1.29,1.82,1.82,0,0,0-.37-1.24,1.23,1.23,0,0,0-1.85,0A1.87,1.87,0,0,0,151.12,110.27Z"/><path d="M157.89,112.48v-3.83h-.66v-.58h.66v-.47a2,2,0,0,1,.08-.66,1,1,0,0,1,.38-.47,1.37,1.37,0,0,1,.76-.18,3.67,3.67,0,0,1,.7.08l-.11.65a2.52,2.52,0,0,0-.44,0,.66.66,0,0,0-.48.14.79.79,0,0,0-.14.54v.41h.86v.58h-.86v3.83Z"/><path d="M160.06,112.48v-6.08h.75v6.08Z"/><path d="M161.69,110.27a2.27,2.27,0,0,1,.68-1.81,2,2,0,0,1,1.39-.49,2,2,0,0,1,1.49.6,2.26,2.26,0,0,1,.58,1.64,2.92,2.92,0,0,1-.25,1.34,1.81,1.81,0,0,1-.74.76,2.16,2.16,0,0,1-1.06.27,2,2,0,0,1-1.5-.59A2.37,2.37,0,0,1,161.69,110.27Zm.77,0a1.88,1.88,0,0,0,.37,1.27,1.23,1.23,0,0,0,1.86,0,1.92,1.92,0,0,0,.37-1.29,1.82,1.82,0,0,0-.37-1.24,1.23,1.23,0,0,0-1.85,0A1.87,1.87,0,0,0,162.46,110.27Z"/><path d="M166.42,110.27a2.27,2.27,0,0,1,.68-1.81,2,2,0,0,1,1.39-.49,2,2,0,0,1,1.49.6,2.26,2.26,0,0,1,.58,1.64,2.92,2.92,0,0,1-.26,1.34,1.81,1.81,0,0,1-.74.76,2.17,2.17,0,0,1-1.06.27A2,2,0,0,1,167,112,2.37,2.37,0,0,1,166.42,110.27Zm.77,0a1.88,1.88,0,0,0,.37,1.27,1.23,1.23,0,0,0,1.85,0,1.91,1.91,0,0,0,.37-1.29,1.82,1.82,0,0,0-.37-1.24,1.23,1.23,0,0,0-1.85,0A1.87,1.87,0,0,0,167.18,110.27Z"/><path d="M174.28,112.48v-.56a1.37,1.37,0,0,1-1.23.66,1.73,1.73,0,0,1-1-.29,1.91,1.91,0,0,1-.68-.81,2.81,2.81,0,0,1-.24-1.2,3.14,3.14,0,0,1,.22-1.2,1.73,1.73,0,0,1,.66-.82,1.76,1.76,0,0,1,1-.29,1.47,1.47,0,0,1,1.22.61v-2.18H175v6.08Zm-2.36-2.2a1.92,1.92,0,0,0,.36,1.27,1.08,1.08,0,0,0,.84.42,1.05,1.05,0,0,0,.83-.4,1.85,1.85,0,0,0,.34-1.22,2.07,2.07,0,0,0-.35-1.33,1.07,1.07,0,0,0-.86-.42,1,1,0,0,0-.83.41A2,2,0,0,0,171.92,110.28Z"/><path d="M176.15,107.25v-.86h.75v.86Zm0,5.23v-4.41h.75v4.41Z"/><path d="M178,112.48v-4.41h.67v.63a1.59,1.59,0,0,1,1.4-.73,1.83,1.83,0,0,1,.73.14,1.16,1.16,0,0,1,.5.38,1.44,1.44,0,0,1,.23.55,4.34,4.34,0,0,1,0,.73v2.71h-.75V109.8a2,2,0,0,0-.09-.68.72.72,0,0,0-.31-.36,1,1,0,0,0-.52-.13,1.21,1.21,0,0,0-.82.3,1.5,1.5,0,0,0-.35,1.15v2.41Z"/><path d="M182.63,112.84l.73.11a.69.69,0,0,0,.25.49,1.25,1.25,0,0,0,.76.21,1.34,1.34,0,0,0,.8-.21,1,1,0,0,0,.38-.58,4.82,4.82,0,0,0,.05-1,1.54,1.54,0,0,1-1.22.58,1.67,1.67,0,0,1-1.41-.66,2.53,2.53,0,0,1-.5-1.57,2.93,2.93,0,0,1,.23-1.17,1.83,1.83,0,0,1,.66-.82,1.78,1.78,0,0,1,1-.29,1.58,1.58,0,0,1,1.29.63v-.53h.69v3.81a3.62,3.62,0,0,1-.21,1.46,1.54,1.54,0,0,1-.66.68,2.3,2.3,0,0,1-1.12.25,2.11,2.11,0,0,1-1.27-.35A1.2,1.2,0,0,1,182.63,112.84Zm.62-2.65a1.91,1.91,0,0,0,.34,1.27,1.09,1.09,0,0,0,.86.4,1.11,1.11,0,0,0,.86-.4,1.85,1.85,0,0,0,.35-1.24,1.8,1.8,0,0,0-.36-1.22,1.11,1.11,0,0,0-.87-.41,1.08,1.08,0,0,0-.85.4A1.8,1.8,0,0,0,183.25,110.19Z"/><path d="M189.57,110.27a2.27,2.27,0,0,1,.68-1.81,2,2,0,0,1,1.39-.49,2,2,0,0,1,1.49.6,2.26,2.26,0,0,1,.58,1.64,2.92,2.92,0,0,1-.25,1.34,1.81,1.81,0,0,1-.74.76,2.16,2.16,0,0,1-1.06.27,2,2,0,0,1-1.5-.59A2.37,2.37,0,0,1,189.57,110.27Zm.77,0a1.88,1.88,0,0,0,.37,1.27,1.23,1.23,0,0,0,1.86,0,1.92,1.92,0,0,0,.37-1.29,1.82,1.82,0,0,0-.37-1.24,1.23,1.23,0,0,0-1.85,0A1.87,1.87,0,0,0,190.34,110.27Z"/><path d="M194.57,112.48v-4.41h.67v.67a1.84,1.84,0,0,1,.47-.62.83.83,0,0,1,.48-.15,1.46,1.46,0,0,1,.77.24l-.26.69a1.06,1.06,0,0,0-.55-.16.71.71,0,0,0-.44.15.8.8,0,0,0-.28.41,2.91,2.91,0,0,0-.12.87v2.31Z"/><path d="M200.59,112.48l-1.35-4.41H200l.7,2.54.26.95.23-.91.7-2.58h.77l.66,2.56.22.84.25-.85.75-2.55h.73l-1.38,4.41h-.78l-.7-2.64-.17-.75-.89,3.39Z"/><path d="M208.79,111.93a2.77,2.77,0,0,1-.8.5,2.29,2.29,0,0,1-.82.15,1.6,1.6,0,0,1-1.12-.35,1.17,1.17,0,0,1-.39-.91,1.24,1.24,0,0,1,.53-1,1.83,1.83,0,0,1,.54-.25,5.3,5.3,0,0,1,.66-.11,6.84,6.84,0,0,0,1.33-.26c0-.1,0-.17,0-.19a.83.83,0,0,0-.21-.64,1.25,1.25,0,0,0-.85-.25,1.32,1.32,0,0,0-.78.18,1.13,1.13,0,0,0-.37.65l-.73-.1a1.8,1.8,0,0,1,.33-.76,1.43,1.43,0,0,1,.66-.44,2.92,2.92,0,0,1,1-.16,2.64,2.64,0,0,1,.92.13,1.19,1.19,0,0,1,.52.33,1.16,1.16,0,0,1,.23.51,4.13,4.13,0,0,1,0,.69v1a10.48,10.48,0,0,0,0,1.32,1.63,1.63,0,0,0,.19.53h-.78A1.58,1.58,0,0,1,208.79,111.93Zm-.06-1.67a5.47,5.47,0,0,1-1.22.28,2.8,2.8,0,0,0-.65.15.65.65,0,0,0-.29.24.66.66,0,0,0,.12.85,1,1,0,0,0,.66.2,1.53,1.53,0,0,0,.77-.19,1.16,1.16,0,0,0,.49-.52,1.81,1.81,0,0,0,.12-.75Z"/><path d="M212.27,111.81l.11.66a2.73,2.73,0,0,1-.56.07,1.28,1.28,0,0,1-.63-.13.72.72,0,0,1-.32-.34,2.68,2.68,0,0,1-.09-.88v-2.54h-.55v-.58h.55V107l.74-.45v1.54h.75v.58h-.75v2.58a1.3,1.3,0,0,0,0,.41.31.31,0,0,0,.13.15.5.5,0,0,0,.25.05Z"/><path d="M216,111.06l.77.09a1.88,1.88,0,0,1-.68,1,2.29,2.29,0,0,1-2.79-.22,2.33,2.33,0,0,1-.57-1.67,2.44,2.44,0,0,1,.57-1.73,1.94,1.94,0,0,1,1.49-.61,1.89,1.89,0,0,1,1.44.6,2.39,2.39,0,0,1,.56,1.69s0,.11,0,.2h-3.29a1.69,1.69,0,0,0,.41,1.11,1.22,1.22,0,0,0,.92.39,1.15,1.15,0,0,0,.7-.22A1.43,1.43,0,0,0,216,111.06Zm-2.45-1.21H216a1.5,1.5,0,0,0-.28-.83,1.15,1.15,0,0,0-.93-.43,1.19,1.19,0,0,0-.87.34A1.36,1.36,0,0,0,213.56,109.85Z"/><path d="M217.72,112.48v-4.41h.67v.67a1.84,1.84,0,0,1,.47-.62.83.83,0,0,1,.48-.15,1.46,1.46,0,0,1,.77.24l-.26.69a1.06,1.06,0,0,0-.55-.16.71.71,0,0,0-.44.15.8.8,0,0,0-.28.41,2.91,2.91,0,0,0-.12.87v2.31Z"/><path d="M116.63,122.68v-.56a1.37,1.37,0,0,1-1.23.66,1.73,1.73,0,0,1-1-.29,1.91,1.91,0,0,1-.69-.81,2.81,2.81,0,0,1-.24-1.2,3.13,3.13,0,0,1,.22-1.2,1.72,1.72,0,0,1,.66-.82,1.76,1.76,0,0,1,1-.29,1.47,1.47,0,0,1,1.22.61v-2.18h.74v6.08Zm-2.36-2.2a1.92,1.92,0,0,0,.36,1.27,1.08,1.08,0,0,0,.84.42,1.05,1.05,0,0,0,.83-.4,1.84,1.84,0,0,0,.34-1.22,2.08,2.08,0,0,0-.35-1.33,1.07,1.07,0,0,0-.86-.42,1,1,0,0,0-.83.41A2,2,0,0,0,114.27,120.48Z"/><path d="M121.37,122.13a2.74,2.74,0,0,1-.8.5,2.29,2.29,0,0,1-.82.15,1.6,1.6,0,0,1-1.12-.36,1.17,1.17,0,0,1-.39-.91,1.23,1.23,0,0,1,.53-1,1.81,1.81,0,0,1,.54-.24,5.45,5.45,0,0,1,.66-.11,6.78,6.78,0,0,0,1.33-.26c0-.1,0-.17,0-.19a.83.83,0,0,0-.21-.64,1.26,1.26,0,0,0-.85-.25,1.32,1.32,0,0,0-.78.18,1.13,1.13,0,0,0-.37.65l-.73-.1a1.81,1.81,0,0,1,.33-.76,1.43,1.43,0,0,1,.66-.44,2.92,2.92,0,0,1,1-.16,2.66,2.66,0,0,1,.92.13,1.2,1.2,0,0,1,.52.33,1.18,1.18,0,0,1,.23.51,4.21,4.21,0,0,1,0,.69v1a10.63,10.63,0,0,0,0,1.32,1.67,1.67,0,0,0,.19.53h-.78A1.58,1.58,0,0,1,121.37,122.13Zm-.06-1.67a5.47,5.47,0,0,1-1.22.28,2.8,2.8,0,0,0-.65.15.65.65,0,0,0-.29.24.66.66,0,0,0,.12.85,1,1,0,0,0,.66.2,1.54,1.54,0,0,0,.77-.19,1.16,1.16,0,0,0,.49-.52,1.81,1.81,0,0,0,.12-.75Z"/><path d="M123.22,122.68v-4.41h.67v.62a1.55,1.55,0,0,1,1.34-.72,1.46,1.46,0,0,1,.8.2,1.09,1.09,0,0,1,.44.57,1.58,1.58,0,0,1,1.36-.77,1.34,1.34,0,0,1,1,.36,1.56,1.56,0,0,1,.35,1.12v3h-.74V119.9a2,2,0,0,0-.07-.64.63.63,0,0,0-.26-.32.82.82,0,0,0-.45-.12,1,1,0,0,0-.77.31,1.36,1.36,0,0,0-.31,1v2.56h-.75v-2.86a1.26,1.26,0,0,0-.18-.75.69.69,0,0,0-.6-.25,1.09,1.09,0,0,0-.58.17.94.94,0,0,0-.39.49,2.74,2.74,0,0,0-.12.92v2.29Z"/><path d="M133.18,122.13a2.73,2.73,0,0,1-.8.5,2.29,2.29,0,0,1-.82.15,1.6,1.6,0,0,1-1.12-.36,1.17,1.17,0,0,1-.39-.91,1.2,1.2,0,0,1,.15-.59,1.21,1.21,0,0,1,.38-.43,1.83,1.83,0,0,1,.54-.24,5.45,5.45,0,0,1,.66-.11,6.78,6.78,0,0,0,1.33-.26c0-.1,0-.17,0-.19a.83.83,0,0,0-.21-.64,1.26,1.26,0,0,0-.85-.25,1.33,1.33,0,0,0-.78.18,1.13,1.13,0,0,0-.37.65l-.73-.1a1.81,1.81,0,0,1,.33-.76,1.43,1.43,0,0,1,.66-.44,2.92,2.92,0,0,1,1-.16,2.66,2.66,0,0,1,.92.13,1.19,1.19,0,0,1,.52.33,1.17,1.17,0,0,1,.23.51,4.14,4.14,0,0,1,0,.69v1a10.49,10.49,0,0,0,0,1.32,1.65,1.65,0,0,0,.19.53h-.78A1.58,1.58,0,0,1,133.18,122.13Zm-.06-1.67a5.46,5.46,0,0,1-1.22.28,2.81,2.81,0,0,0-.65.15.65.65,0,0,0-.29.24.66.66,0,0,0,.12.85,1,1,0,0,0,.66.2,1.54,1.54,0,0,0,.77-.19,1.16,1.16,0,0,0,.49-.52,1.81,1.81,0,0,0,.12-.75Z"/><path d="M134.89,123l.73.11a.7.7,0,0,0,.25.49,1.25,1.25,0,0,0,.76.21,1.34,1.34,0,0,0,.8-.21,1,1,0,0,0,.38-.58,4.79,4.79,0,0,0,.05-1,1.54,1.54,0,0,1-1.22.58,1.66,1.66,0,0,1-1.41-.66,2.52,2.52,0,0,1-.5-1.57,2.94,2.94,0,0,1,.23-1.17,1.83,1.83,0,0,1,.66-.82,1.78,1.78,0,0,1,1-.29,1.58,1.58,0,0,1,1.29.63v-.53h.69v3.81a3.62,3.62,0,0,1-.21,1.46,1.54,1.54,0,0,1-.66.68,2.3,2.3,0,0,1-1.12.25,2.11,2.11,0,0,1-1.27-.36A1.2,1.2,0,0,1,134.89,123Zm.62-2.65a1.92,1.92,0,0,0,.34,1.27,1.14,1.14,0,0,0,1.73,0,1.85,1.85,0,0,0,.35-1.24,1.81,1.81,0,0,0-.36-1.22,1.11,1.11,0,0,0-.87-.41,1.08,1.08,0,0,0-.85.4A1.8,1.8,0,0,0,135.51,120.39Z"/><path d="M142.77,121.26l.77.1a1.88,1.88,0,0,1-.68,1,2.29,2.29,0,0,1-2.79-.22,2.33,2.33,0,0,1-.57-1.67,2.44,2.44,0,0,1,.57-1.73,1.94,1.94,0,0,1,1.49-.61,1.89,1.89,0,0,1,1.45.6,2.39,2.39,0,0,1,.56,1.69s0,.11,0,.2h-3.29a1.7,1.7,0,0,0,.41,1.11,1.23,1.23,0,0,0,.92.38,1.15,1.15,0,0,0,.7-.21A1.44,1.44,0,0,0,142.77,121.26ZM140.32,120h2.46a1.49,1.49,0,0,0-.28-.83,1.14,1.14,0,0,0-.93-.43,1.19,1.19,0,0,0-.87.34A1.36,1.36,0,0,0,140.32,120Z"/><path d="M144.7,122.68v-.85h.85v.85Z"/><path d="M113.63,55.35V49.27h4.1V50h-3.3v1.88h2.86v.72h-2.86v2.76Z"/><path d="M118.41,53.15a2.27,2.27,0,0,1,.68-1.81,2.05,2.05,0,0,1,1.39-.49,2,2,0,0,1,1.49.6,2.26,2.26,0,0,1,.58,1.65,2.92,2.92,0,0,1-.26,1.34,1.81,1.81,0,0,1-.74.76,2.16,2.16,0,0,1-1.06.27,2,2,0,0,1-1.5-.59A2.37,2.37,0,0,1,118.41,53.15Zm.77,0a1.88,1.88,0,0,0,.37,1.27,1.23,1.23,0,0,0,1.85,0,1.92,1.92,0,0,0,.37-1.29,1.82,1.82,0,0,0-.37-1.24,1.23,1.23,0,0,0-1.85,0A1.87,1.87,0,0,0,119.18,53.15Z"/><path d="M123.4,55.35V50.94h.67v.67a1.8,1.8,0,0,1,.48-.62.83.83,0,0,1,.48-.15,1.45,1.45,0,0,1,.77.24l-.26.69a1.06,1.06,0,0,0-.55-.16.71.71,0,0,0-.44.15.79.79,0,0,0-.28.41,2.91,2.91,0,0,0-.12.87v2.31Z"/><path d="M131.48,53.74l.73.1A1.91,1.91,0,0,1,131.6,55a1.79,1.79,0,0,1-1.22.43,1.89,1.89,0,0,1-1.46-.59,2.4,2.4,0,0,1-.55-1.7,3.06,3.06,0,0,1,.24-1.25,1.65,1.65,0,0,1,.72-.8,2.14,2.14,0,0,1,1.05-.27,1.83,1.83,0,0,1,1.18.36,1.67,1.67,0,0,1,.58,1l-.73.11a1.2,1.2,0,0,0-.37-.67,1,1,0,0,0-.64-.22,1.16,1.16,0,0,0-.92.4,1.92,1.92,0,0,0-.35,1.28,2,2,0,0,0,.34,1.29,1.11,1.11,0,0,0,.89.4,1,1,0,0,0,.73-.27A1.34,1.34,0,0,0,131.48,53.74Z"/><path d="M132.58,53.15a2.27,2.27,0,0,1,.68-1.81,2,2,0,0,1,1.39-.49,2,2,0,0,1,1.49.6,2.27,2.27,0,0,1,.58,1.65,2.92,2.92,0,0,1-.26,1.34,1.81,1.81,0,0,1-.74.76,2.16,2.16,0,0,1-1.06.27,2,2,0,0,1-1.5-.59A2.37,2.37,0,0,1,132.58,53.15Zm.77,0a1.88,1.88,0,0,0,.37,1.27,1.23,1.23,0,0,0,1.85,0,1.92,1.92,0,0,0,.37-1.29,1.82,1.82,0,0,0-.37-1.24,1.23,1.23,0,0,0-1.85,0A1.87,1.87,0,0,0,133.34,53.15Z"/><path d="M137.58,55.35V50.94h.67v.63a1.59,1.59,0,0,1,1.4-.73,1.84,1.84,0,0,1,.73.14,1.16,1.16,0,0,1,.5.38,1.46,1.46,0,0,1,.23.55,4.33,4.33,0,0,1,0,.73v2.71h-.75V52.67a2,2,0,0,0-.09-.68.72.72,0,0,0-.31-.36,1,1,0,0,0-.52-.13,1.21,1.21,0,0,0-.82.3,1.5,1.5,0,0,0-.35,1.15v2.41Z"/><path d="M143.94,54.68l.11.66a2.76,2.76,0,0,1-.56.07,1.28,1.28,0,0,1-.63-.13.73.73,0,0,1-.32-.34,2.66,2.66,0,0,1-.09-.88V51.53h-.55v-.58h.55V49.85l.74-.45v1.54h.75v.58h-.75V54.1a1.33,1.33,0,0,0,0,.41.32.32,0,0,0,.13.15.5.5,0,0,0,.26.05Z"/><path d="M144.68,50.13v-.86h.75v.86Zm0,5.23V50.94h.75v4.41Z"/><path d="M146.56,55.35V50.94h.67v.63a1.58,1.58,0,0,1,1.4-.73,1.84,1.84,0,0,1,.73.14,1.15,1.15,0,0,1,.5.38,1.43,1.43,0,0,1,.23.55,4.19,4.19,0,0,1,0,.73v2.71h-.75V52.67a2,2,0,0,0-.09-.68.71.71,0,0,0-.31-.36,1,1,0,0,0-.52-.13,1.21,1.21,0,0,0-.82.3,1.49,1.49,0,0,0-.35,1.15v2.41Z"/><path d="M154.18,55.35V54.7a1.61,1.61,0,0,1-1.4.75,1.78,1.78,0,0,1-.73-.15,1.19,1.19,0,0,1-.5-.38,1.4,1.4,0,0,1-.23-.55,3.71,3.71,0,0,1,0-.7V50.94H152v2.44a4.49,4.49,0,0,0,0,.79.78.78,0,0,0,.3.46.93.93,0,0,0,.56.17,1.23,1.23,0,0,0,.63-.17,1,1,0,0,0,.42-.47,2.37,2.37,0,0,0,.12-.86V50.94h.75v4.41Z"/><path d="M159,53.93l.77.1a1.88,1.88,0,0,1-.68,1.05,2,2,0,0,1-1.26.37,2,2,0,0,1-1.53-.6,2.32,2.32,0,0,1-.57-1.67,2.43,2.43,0,0,1,.57-1.73,1.94,1.94,0,0,1,1.49-.61,1.88,1.88,0,0,1,1.44.6,2.39,2.39,0,0,1,.56,1.69s0,.11,0,.2h-3.29a1.69,1.69,0,0,0,.41,1.11,1.23,1.23,0,0,0,.92.39,1.14,1.14,0,0,0,.7-.22A1.43,1.43,0,0,0,159,53.93Zm-2.45-1.21H159a1.5,1.5,0,0,0-.28-.83,1.15,1.15,0,0,0-.93-.43,1.19,1.19,0,0,0-.87.34A1.37,1.37,0,0,0,156.58,52.73Z"/><path d="M163.6,55.35V54.8a1.37,1.37,0,0,1-1.23.66,1.73,1.73,0,0,1-1-.29,1.91,1.91,0,0,1-.68-.81,2.8,2.8,0,0,1-.24-1.2,3.14,3.14,0,0,1,.22-1.2,1.73,1.73,0,0,1,.66-.82,1.76,1.76,0,0,1,1-.29,1.47,1.47,0,0,1,1.21.61V49.27h.74v6.08Zm-2.36-2.2a1.92,1.92,0,0,0,.36,1.27,1.08,1.08,0,0,0,.84.42,1.06,1.06,0,0,0,.83-.4,1.85,1.85,0,0,0,.34-1.22,2.07,2.07,0,0,0-.35-1.33,1.07,1.07,0,0,0-.86-.42,1,1,0,0,0-.83.41A2,2,0,0,0,161.24,53.15Z"/><path d="M167.83,57v-6.1h.68v.57a1.67,1.67,0,0,1,.54-.5,1.5,1.5,0,0,1,.73-.17,1.74,1.74,0,0,1,1,.29,1.78,1.78,0,0,1,.65.82,3,3,0,0,1,.22,1.16,2.94,2.94,0,0,1-.24,1.22,1.83,1.83,0,0,1-.71.83,1.81,1.81,0,0,1-1,.29,1.41,1.41,0,0,1-.67-.16,1.52,1.52,0,0,1-.49-.4V57Zm.68-3.87a1.91,1.91,0,0,0,.34,1.26,1.06,1.06,0,0,0,.83.41,1.08,1.08,0,0,0,.85-.42,2,2,0,0,0,.35-1.31,2,2,0,0,0-.35-1.26,1,1,0,0,0-.83-.42,1.08,1.08,0,0,0-.84.45A2,2,0,0,0,168.51,53.17Z"/><path d="M172.55,55.35V50.94h.67v.67a1.81,1.81,0,0,1,.47-.62.83.83,0,0,1,.48-.15,1.46,1.46,0,0,1,.77.24l-.26.69a1.07,1.07,0,0,0-.55-.16.71.71,0,0,0-.44.15.79.79,0,0,0-.28.41,2.88,2.88,0,0,0-.12.87v2.31Z"/><path d="M175.11,53.15a2.27,2.27,0,0,1,.68-1.81,2,2,0,0,1,1.39-.49,2,2,0,0,1,1.49.6,2.27,2.27,0,0,1,.58,1.65,2.92,2.92,0,0,1-.26,1.34,1.81,1.81,0,0,1-.74.76,2.16,2.16,0,0,1-1.06.27,2,2,0,0,1-1.5-.59A2.37,2.37,0,0,1,175.11,53.15Zm.77,0a1.88,1.88,0,0,0,.37,1.27,1.23,1.23,0,0,0,1.85,0,1.92,1.92,0,0,0,.37-1.29,1.82,1.82,0,0,0-.37-1.24,1.23,1.23,0,0,0-1.85,0A1.87,1.87,0,0,0,175.88,53.15Z"/><path d="M181.75,54.68l.11.66a2.76,2.76,0,0,1-.56.07,1.28,1.28,0,0,1-.63-.13.72.72,0,0,1-.32-.34,2.68,2.68,0,0,1-.09-.88V51.53h-.55v-.58h.55V49.85l.74-.45v1.54h.75v.58H181V54.1a1.27,1.27,0,0,0,0,.41.3.3,0,0,0,.13.15.49.49,0,0,0,.25.05Z"/><path d="M185.49,53.93l.77.1a1.88,1.88,0,0,1-.68,1.05,2,2,0,0,1-1.26.37,2,2,0,0,1-1.53-.6,2.32,2.32,0,0,1-.57-1.67,2.43,2.43,0,0,1,.57-1.73,1.94,1.94,0,0,1,1.49-.61,1.88,1.88,0,0,1,1.44.6,2.39,2.39,0,0,1,.56,1.69s0,.11,0,.2H183a1.69,1.69,0,0,0,.41,1.11,1.23,1.23,0,0,0,.92.39,1.14,1.14,0,0,0,.7-.22A1.43,1.43,0,0,0,185.49,53.93ZM183,52.73h2.46a1.5,1.5,0,0,0-.28-.83,1.15,1.15,0,0,0-.93-.43,1.19,1.19,0,0,0-.87.34A1.37,1.37,0,0,0,183,52.73Z"/><path d="M190.08,53.74l.73.1A1.91,1.91,0,0,1,190.2,55a1.79,1.79,0,0,1-1.22.43,1.89,1.89,0,0,1-1.46-.59,2.4,2.4,0,0,1-.55-1.7,3.06,3.06,0,0,1,.24-1.25,1.65,1.65,0,0,1,.72-.8,2.14,2.14,0,0,1,1.05-.27,1.83,1.83,0,0,1,1.18.36,1.67,1.67,0,0,1,.58,1l-.73.11a1.2,1.2,0,0,0-.37-.67,1,1,0,0,0-.64-.22,1.16,1.16,0,0,0-.92.4,1.92,1.92,0,0,0-.35,1.28,2,2,0,0,0,.34,1.29,1.11,1.11,0,0,0,.89.4,1,1,0,0,0,.73-.27A1.34,1.34,0,0,0,190.08,53.74Z"/><path d="M193.09,54.68l.11.66a2.76,2.76,0,0,1-.56.07,1.28,1.28,0,0,1-.63-.13.73.73,0,0,1-.32-.34,2.66,2.66,0,0,1-.09-.88V51.53H191v-.58h.55V49.85l.74-.45v1.54h.75v.58h-.75V54.1a1.33,1.33,0,0,0,0,.41.32.32,0,0,0,.13.15.5.5,0,0,0,.26.05Z"/><path d="M193.82,50.13v-.86h.75v.86Zm0,5.23V50.94h.75v4.41Z"/><path d="M195.43,53.15a2.27,2.27,0,0,1,.68-1.81,2,2,0,0,1,1.39-.49,2,2,0,0,1,1.49.6,2.27,2.27,0,0,1,.58,1.65,2.92,2.92,0,0,1-.26,1.34,1.81,1.81,0,0,1-.74.76,2.16,2.16,0,0,1-1.06.27,2,2,0,0,1-1.5-.59A2.37,2.37,0,0,1,195.43,53.15Zm.77,0a1.88,1.88,0,0,0,.37,1.27,1.23,1.23,0,0,0,1.85,0,1.92,1.92,0,0,0,.37-1.29,1.82,1.82,0,0,0-.37-1.24,1.23,1.23,0,0,0-1.85,0A1.87,1.87,0,0,0,196.19,53.15Z"/><path d="M200.43,55.35V50.94h.67v.63a1.59,1.59,0,0,1,1.4-.73,1.84,1.84,0,0,1,.73.14,1.16,1.16,0,0,1,.5.38,1.46,1.46,0,0,1,.23.55,4.33,4.33,0,0,1,0,.73v2.71h-.75V52.67a2,2,0,0,0-.09-.68.72.72,0,0,0-.31-.36,1,1,0,0,0-.52-.13,1.21,1.21,0,0,0-.82.3,1.5,1.5,0,0,0-.35,1.15v2.41Z"/><path d="M210.4,54.81a2.77,2.77,0,0,1-.8.5,2.3,2.3,0,0,1-.82.15,1.6,1.6,0,0,1-1.12-.35,1.17,1.17,0,0,1-.39-.91,1.2,1.2,0,0,1,.15-.59,1.22,1.22,0,0,1,.39-.43,1.81,1.81,0,0,1,.54-.24,5.33,5.33,0,0,1,.66-.11,6.79,6.79,0,0,0,1.33-.26c0-.1,0-.17,0-.19a.83.83,0,0,0-.21-.64,1.25,1.25,0,0,0-.85-.25,1.32,1.32,0,0,0-.78.18,1.12,1.12,0,0,0-.37.65l-.73-.1a1.81,1.81,0,0,1,.33-.76,1.43,1.43,0,0,1,.66-.44,2.93,2.93,0,0,1,1-.16,2.64,2.64,0,0,1,.92.13,1.21,1.21,0,0,1,.52.33,1.18,1.18,0,0,1,.23.51,4.17,4.17,0,0,1,0,.69v1a10.47,10.47,0,0,0,0,1.32,1.68,1.68,0,0,0,.19.53h-.78A1.57,1.57,0,0,1,210.4,54.81Zm-.06-1.67a5.5,5.5,0,0,1-1.22.28,2.77,2.77,0,0,0-.65.15.65.65,0,0,0-.29.24.64.64,0,0,0-.1.35.63.63,0,0,0,.23.5,1,1,0,0,0,.66.2,1.54,1.54,0,0,0,.77-.19,1.16,1.16,0,0,0,.49-.52,1.81,1.81,0,0,0,.12-.75Z"/><path d="M212.11,55.72l.73.11a.69.69,0,0,0,.25.49,1.25,1.25,0,0,0,.76.21,1.33,1.33,0,0,0,.8-.21,1,1,0,0,0,.38-.58,4.82,4.82,0,0,0,.05-1,1.54,1.54,0,0,1-1.22.58,1.67,1.67,0,0,1-1.41-.66,2.52,2.52,0,0,1-.5-1.57,2.93,2.93,0,0,1,.23-1.16,1.83,1.83,0,0,1,.66-.82,1.79,1.79,0,0,1,1-.29,1.58,1.58,0,0,1,1.29.63v-.53h.69v3.81a3.62,3.62,0,0,1-.21,1.46,1.54,1.54,0,0,1-.66.68,2.3,2.3,0,0,1-1.12.25,2.11,2.11,0,0,1-1.27-.35A1.2,1.2,0,0,1,212.11,55.72Zm.62-2.65a1.91,1.91,0,0,0,.34,1.27,1.09,1.09,0,0,0,.86.4,1.1,1.1,0,0,0,.86-.4,1.85,1.85,0,0,0,.35-1.24,1.81,1.81,0,0,0-.36-1.22,1.11,1.11,0,0,0-.87-.41,1.08,1.08,0,0,0-.85.4A1.8,1.8,0,0,0,212.73,53.07Z"/><path d="M219.85,54.81a2.78,2.78,0,0,1-.8.5,2.3,2.3,0,0,1-.82.15,1.6,1.6,0,0,1-1.12-.35,1.17,1.17,0,0,1-.39-.91,1.23,1.23,0,0,1,.53-1,1.81,1.81,0,0,1,.54-.24,5.27,5.27,0,0,1,.66-.11,6.83,6.83,0,0,0,1.33-.26c0-.1,0-.17,0-.19a.83.83,0,0,0-.21-.64,1.25,1.25,0,0,0-.85-.25,1.32,1.32,0,0,0-.78.18,1.13,1.13,0,0,0-.37.65l-.73-.1a1.81,1.81,0,0,1,.33-.76,1.44,1.44,0,0,1,.66-.44,2.94,2.94,0,0,1,1-.16,2.65,2.65,0,0,1,.92.13,1.21,1.21,0,0,1,.52.33,1.18,1.18,0,0,1,.23.51,4.25,4.25,0,0,1,0,.69v1a10.76,10.76,0,0,0,0,1.32,1.64,1.64,0,0,0,.19.53H220A1.57,1.57,0,0,1,219.85,54.81Zm-.06-1.67a5.51,5.51,0,0,1-1.22.28,2.8,2.8,0,0,0-.65.15.64.64,0,0,0-.29.24.63.63,0,0,0-.1.35.64.64,0,0,0,.23.5,1,1,0,0,0,.66.2,1.53,1.53,0,0,0,.77-.19,1.16,1.16,0,0,0,.49-.52,1.8,1.8,0,0,0,.12-.75Z"/><path d="M221.71,50.13v-.86h.75v.86Zm0,5.23V50.94h.75v4.41Z"/><path d="M223.59,55.35V50.94h.67v.63a1.58,1.58,0,0,1,1.4-.73,1.84,1.84,0,0,1,.73.14,1.15,1.15,0,0,1,.5.38,1.43,1.43,0,0,1,.23.55,4.19,4.19,0,0,1,0,.73v2.71h-.75V52.67a2,2,0,0,0-.09-.68.71.71,0,0,0-.31-.36,1,1,0,0,0-.52-.13,1.21,1.21,0,0,0-.82.3,1.49,1.49,0,0,0-.35,1.15v2.41Z"/><path d="M228,54l.74-.12a1,1,0,0,0,.35.68,1.21,1.21,0,0,0,.79.24,1.17,1.17,0,0,0,.76-.21.63.63,0,0,0,.25-.49.45.45,0,0,0-.22-.4,3.26,3.26,0,0,0-.76-.25,7,7,0,0,1-1.14-.36,1.09,1.09,0,0,1-.65-1,1.14,1.14,0,0,1,.14-.55,1.21,1.21,0,0,1,.37-.42,1.52,1.52,0,0,1,.47-.22,2.26,2.26,0,0,1,.65-.09,2.55,2.55,0,0,1,.91.15,1.24,1.24,0,0,1,.58.4,1.58,1.58,0,0,1,.26.68l-.73.1a.8.8,0,0,0-.29-.53,1.05,1.05,0,0,0-.67-.19,1.22,1.22,0,0,0-.73.17.5.5,0,0,0-.22.4.41.41,0,0,0,.09.26.66.66,0,0,0,.29.2l.66.19A9.22,9.22,0,0,1,231,53a1.12,1.12,0,0,1,.49.39,1.09,1.09,0,0,1,.18.64,1.25,1.25,0,0,1-.22.7,1.41,1.41,0,0,1-.63.51,2.28,2.28,0,0,1-.93.18,2.07,2.07,0,0,1-1.31-.36A1.66,1.66,0,0,1,228,54Z"/><path d="M234.2,54.68l.11.66a2.76,2.76,0,0,1-.56.07,1.29,1.29,0,0,1-.63-.13.72.72,0,0,1-.31-.34,2.65,2.65,0,0,1-.09-.88V51.53h-.55v-.58h.55V49.85l.74-.45v1.54h.75v.58h-.75V54.1a1.3,1.3,0,0,0,0,.41.31.31,0,0,0,.13.15.49.49,0,0,0,.25.05Z"/><path d="M113.48,65.55V61.14h.67v.67a1.82,1.82,0,0,1,.48-.62.83.83,0,0,1,.48-.15,1.46,1.46,0,0,1,.77.24l-.26.69a1.06,1.06,0,0,0-.55-.16.71.71,0,0,0-.44.15.8.8,0,0,0-.28.41,2.91,2.91,0,0,0-.12.87v2.31Z"/><path d="M116.33,60.33v-.86h.75v.86Zm0,5.23V61.14h.75v4.41Z"/><path d="M117.91,64.24l.74-.12a1,1,0,0,0,.35.68,1.21,1.21,0,0,0,.79.24,1.17,1.17,0,0,0,.76-.21.63.63,0,0,0,.25-.49.45.45,0,0,0-.22-.4,3.26,3.26,0,0,0-.76-.25,7,7,0,0,1-1.14-.36,1.09,1.09,0,0,1-.65-1,1.14,1.14,0,0,1,.14-.55,1.21,1.21,0,0,1,.37-.42,1.54,1.54,0,0,1,.48-.22,2.26,2.26,0,0,1,.65-.09,2.55,2.55,0,0,1,.91.15,1.24,1.24,0,0,1,.58.4,1.58,1.58,0,0,1,.26.68l-.73.1a.8.8,0,0,0-.29-.53,1.05,1.05,0,0,0-.67-.19,1.22,1.22,0,0,0-.73.17.5.5,0,0,0-.22.4.41.41,0,0,0,.09.26.66.66,0,0,0,.29.2l.66.19a9.19,9.19,0,0,1,1.11.35,1.12,1.12,0,0,1,.49.39,1.09,1.09,0,0,1,.18.64,1.25,1.25,0,0,1-.22.7,1.4,1.4,0,0,1-.63.51,2.28,2.28,0,0,1-.93.18,2.07,2.07,0,0,1-1.31-.36A1.66,1.66,0,0,1,117.91,64.24Z"/><path d="M122.47,65.55V59.47h.75v3.47L125,61.14h1l-1.69,1.64,1.86,2.77h-.92l-1.46-2.25-.53.51v1.75Z"/><path d="M128.8,63.35a2.27,2.27,0,0,1,.68-1.81,2.05,2.05,0,0,1,1.39-.49,2,2,0,0,1,1.49.6,2.26,2.26,0,0,1,.58,1.65,2.92,2.92,0,0,1-.26,1.34,1.81,1.81,0,0,1-.74.76,2.17,2.17,0,0,1-1.06.27,2,2,0,0,1-1.5-.59A2.37,2.37,0,0,1,128.8,63.35Zm.77,0a1.88,1.88,0,0,0,.37,1.27,1.23,1.23,0,0,0,1.85,0,1.92,1.92,0,0,0,.37-1.29,1.82,1.82,0,0,0-.37-1.24,1.23,1.23,0,0,0-1.85,0A1.87,1.87,0,0,0,129.56,63.35Z"/><path d="M134,65.55V61.73h-.66v-.58H134v-.47a2,2,0,0,1,.08-.66,1,1,0,0,1,.38-.47,1.37,1.37,0,0,1,.76-.18,3.65,3.65,0,0,1,.7.08l-.11.65a2.49,2.49,0,0,0-.44,0,.66.66,0,0,0-.48.15.79.79,0,0,0-.14.54v.41h.86v.58h-.86v3.83Z"/><path d="M138.7,65.55V61.73H138v-.58h.66v-.47a2.08,2.08,0,0,1,.08-.66,1,1,0,0,1,.38-.47,1.37,1.37,0,0,1,.76-.18,3.67,3.67,0,0,1,.7.08l-.11.65a2.48,2.48,0,0,0-.44,0,.65.65,0,0,0-.48.15.78.78,0,0,0-.14.54v.41h.86v.58h-.86v3.83Z"/><path d="M140.89,60.33v-.86h.75v.86Zm0,5.23V61.14h.75v4.41Z"/><path d="M142.77,65.55V61.14h.67v.67a1.81,1.81,0,0,1,.47-.62.83.83,0,0,1,.48-.15,1.46,1.46,0,0,1,.77.24l-.26.69a1.07,1.07,0,0,0-.55-.16.71.71,0,0,0-.44.15.79.79,0,0,0-.28.41,2.88,2.88,0,0,0-.12.87v2.31Z"/><path d="M148.62,64.13l.77.1a1.88,1.88,0,0,1-.68,1.05,2.29,2.29,0,0,1-2.79-.22,2.33,2.33,0,0,1-.57-1.67,2.44,2.44,0,0,1,.57-1.73,1.94,1.94,0,0,1,1.49-.61,1.89,1.89,0,0,1,1.45.6,2.39,2.39,0,0,1,.56,1.69s0,.11,0,.2h-3.29a1.7,1.7,0,0,0,.41,1.11,1.22,1.22,0,0,0,.92.39,1.14,1.14,0,0,0,.7-.22A1.43,1.43,0,0,0,148.62,64.13Zm-2.45-1.21h2.46a1.49,1.49,0,0,0-.28-.83,1.14,1.14,0,0,0-.93-.43,1.19,1.19,0,0,0-.87.34A1.36,1.36,0,0,0,146.17,62.93Z"/><path d="M150.54,62v-.85h.85V62Zm0,3.56V64.7h.85v.85Z"/></svg>