<svg xmlns="http://www.w3.org/2000/svg" viewBox="0 0 241.51 122.9"><title>warning_explsn_hzrd_frm_hydrgn_gas</title><g id="Layer_1" data-name="Layer 1"><polyline points="97.21 30.52 241.01 30.52 241.01 0.35 97.21 0.35"/><path d="M225,18.48V15.82h6.68V22.1a8.38,8.38,0,0,1-2.82,1.71,10.09,10.09,0,0,1-3.74.73,8.26,8.26,0,0,1-4.2-1,6.52,6.52,0,0,1-2.69-3,9.79,9.79,0,0,1-.9-4.19,9.29,9.29,0,0,1,1-4.37A6.86,6.86,0,0,1,221.26,9a7.74,7.74,0,0,1,3.67-.79,7.19,7.19,0,0,1,4.46,1.23,5.57,5.57,0,0,1,2.07,3.4l-3.07.59a3.36,3.36,0,0,0-1.22-1.83,3.59,3.59,0,0,0-2.23-.67,4.15,4.15,0,0,0-3.23,1.32,5.66,5.66,0,0,0-1.2,3.92,6.27,6.27,0,0,0,1.22,4.21,4,4,0,0,0,3.18,1.4,5.25,5.25,0,0,0,2-.39,6.68,6.68,0,0,0,1.68-1v-2M202.4,24.27V8.52h3L211.7,19V8.52h2.88V24.27h-3.11L205.28,14V24.27Zm-6.08,0V8.52h3.1V24.27Zm-15.36,0V8.52h3L190.26,19V8.52h2.88V24.27H190L183.84,14V24.27Zm-12.4-9.09h2.29a11.71,11.71,0,0,0,2.79-.19,1.68,1.68,0,0,0,.87-.67,2.11,2.11,0,0,0,.31-1.18,1.92,1.92,0,0,0-.41-1.28,1.88,1.88,0,0,0-1.17-.62q-.38-.05-2.26-.05h-2.42Zm-3.1,9.09V8.52H172a10.85,10.85,0,0,1,3.57.43,3.53,3.53,0,0,1,1.79,1.51,4.62,4.62,0,0,1,.67,2.48,4.28,4.28,0,0,1-1,2.93,4.83,4.83,0,0,1-3,1.45,7.31,7.31,0,0,1,1.66,1.32,18.14,18.14,0,0,1,1.76,2.56l1.88,3.07h-3.7l-2.24-3.43a21.66,21.66,0,0,0-1.63-2.31,2.43,2.43,0,0,0-.93-.66,5,5,0,0,0-1.56-.17h-.62v6.57ZM158.1,18,156,12.2,153.91,18Zm5.71,6.23h-3.37l-1.34-3.58H153l-1.26,3.58H148.4l6-15.75h3.28Zm-30.71,0L129.43,8.52h3.17l2.32,10.82,2.8-10.82h3.69l2.69,11,2.36-11h3.12l-3.73,15.75h-3.29L139.5,12.5l-3,11.77ZM118,17.65a.56.56,0,0,1-.52.53h-.08a.51.51,0,0,1-.52-.53c-1.7-5.55-2.52-9.43.52-9.43S119.59,12.09,118,17.65Zm-.59,6a1.67,1.67,0,0,1,0-3.35h.08A1.6,1.6,0,0,1,119,22,1.62,1.62,0,0,1,117.37,23.65Zm1.26-16.88a1.29,1.29,0,0,0-1.26-.91,1.18,1.18,0,0,0-1.18.91l-8.45,14.9c-1.11,1.9-.15,2.66,1,2.74H126c1.19-.08,2.07-.84,1-2.74Z" transform="translate(0)" style="fill:#fff"/><line x1="97.91" y1="47.69" x2="240.43" y2="47.69" style="stroke:#000;stroke-width:1.03234px"/><line x1="97.44" y1="122.39" x2="97.44" y2="0.35" style="stroke:#000;stroke-width:1.13975px"/><rect x="0.54" y="0.54" width="240.44" height="121.83" style="fill:none;stroke:#000;stroke-width:1.07349px"/></g><g id="exploding_man_icon" data-name="exploding man icon"><polygon points="4.83 51.88 4.85 61.32 5.56 61.82 9.45 74.22 8.03 63.46 26.08 75.29 12.46 61.82 23.33 65.1 13.87 59.02 27.58 52.95 9.98 54.42 22.36 45.47 13.16 49.91 19.36 41.85 8.56 49.41 8.42 39 5.56 51.8 4.83 51.88" style="stroke:#000;stroke-width:0.24354499999999998px"/><rect x="0.54" y="31.42" width="3.51" height="45.73" style="stroke:#000;stroke-width:0.97418px"/><path d="M4.67,36.69l2,19.66-.3,6.22-1,14.58L8.34,61.92l4.9,21.5L9.58,63S23.92,78.5,23.63,77.79,10.17,61.36,10.17,61.36L45.76,83.6,12.55,60.89,62.69,88.42,18.63,62.89S61.34,82.08,61.15,81.81,13,59.56,13,59.56l.1-.8L40.27,69.29l-26-11.37-.11-.68,2.89,1.52,32.42,11L14.87,56l4.81,1.88,35,7.62L17.38,56.08l34,4.76L10.56,53.28,9.49,55.36,9,52.86l1.93.36L57,47.59,12.26,51.33l20.6-3.74-16.93,2.5L52.78,37.94,14.49,49.47,44,30.79l-31.56,18L26.32,35.26,10.54,47.86,29.69,24.09,9.12,46.84l-.4-13.72L7.37,48.3Z" transform="translate(0)" style="fill:none;stroke:#000;stroke-width:0.24354499999999998px"/><polygon points="10.64 53.13 52.01 54.29 11.6 52.41 10.64 53.13" style="fill:none;stroke:#000;stroke-width:0.24354499999999998px"/><line x1="51.87" y1="77.4" x2="21.16" y2="61.9" style="stroke:#000;stroke-width:0.24354499999999998px"/><path d="M10,7.77A8.78,8.78,0,0,1,17.58,3.5a8.51,8.51,0,0,1,8.7,8.3,7.94,7.94,0,0,1-.48,2.74" transform="translate(0)" style="fill:none;stroke:#000;stroke-width:0.24354499999999998px"/><path d="M26.64,14.46a6.29,6.29,0,0,1,4.61-1.95,5.84,5.84,0,0,1,6.07,5.58,5.73,5.73,0,0,1-4.85,5.47" transform="translate(0)" style="fill:none;stroke:#000;stroke-width:0.24354499999999998px"/><path d="M32.72,23.78a6.28,6.28,0,0,1,2.4-.47A5.72,5.72,0,0,1,41,28.8a5.72,5.72,0,0,1-5.91,5.49,5.89,5.89,0,0,1-5.64-3.83" transform="translate(0)" style="fill:none;stroke:#000;stroke-width:0.24354499999999998px"/><path d="M12.34,38.63a4.8,4.8,0,0,1-1-2.92,5.26,5.26,0,0,1,5.45-5.06,5.67,5.67,0,0,1,3.62,1.28" transform="translate(0)" style="fill:none;stroke:#000;stroke-width:0.24354499999999998px"/><path d="M20.61,31.55a3.15,3.15,0,0,1-.37-1.48,3.52,3.52,0,0,1,3.65-3.39,3.52,3.52,0,0,1,3.65,3.39,3.08,3.08,0,0,1,0,.36" transform="translate(0)" style="fill:none;stroke:#000;stroke-width:0.24354499999999998px"/><path d="M27.39,30.74s0-.07,0-.11A3.66,3.66,0,1,1,31,34h-.29" transform="translate(0)" style="fill:none;stroke:#000;stroke-width:0.24354499999999998px"/><path d="M21,75.5a3.81,3.81,0,0,1-2.08.61,3.51,3.51,0,0,1-3.64-3.38,3.26,3.26,0,0,1,1.06-2.39" transform="translate(0)" style="fill:none;stroke:#000;stroke-width:0.24354499999999998px"/><path d="M25.39,80.43a3.71,3.71,0,0,1-3.24,1.82,3.54,3.54,0,0,1-3.67-3.4A3.44,3.44,0,0,1,21,75.62" transform="translate(0)" style="fill:none;stroke:#000;stroke-width:0.24354499999999998px"/><path d="M36,83a5.23,5.23,0,0,1-5.1,3.63,5.1,5.1,0,0,1-5.28-4.9,4.5,4.5,0,0,1,.16-1.18" transform="translate(0)" style="fill:none;stroke:#000;stroke-width:0.24354499999999998px"/><path d="M23.95,96.62A5.22,5.22,0,0,1,24.54,99a5.81,5.81,0,0,1-6,5.58,5.81,5.81,0,0,1-6-5.58A5.68,5.68,0,0,1,17,93.63" transform="translate(0)" style="fill:none;stroke:#000;stroke-width:0.24354499999999998px"/><path d="M33.55,92.17a5.45,5.45,0,0,1,2.2,4.33,5.82,5.82,0,0,1-6,5.6,6.13,6.13,0,0,1-5.15-2.69" transform="translate(0)" style="fill:none;stroke:#000;stroke-width:0.24354499999999998px"/><path d="M43.79,78.19A7.85,7.85,0,0,1,46.42,84c0,4.5-3.93,8.15-8.78,8.15a9.34,9.34,0,0,1-3.41-.64" transform="translate(0)" style="fill:none;stroke:#000;stroke-width:0.24354499999999998px"/><path d="M28.48,45.2A4,4,0,0,1,28,43.36a4.47,4.47,0,0,1,4.62-4.29,4.84,4.84,0,0,1,2.77.86" transform="translate(0)" style="fill:none;stroke:#000;stroke-width:0.24354499999999998px"/><path d="M35.71,39.85a2.64,2.64,0,0,1-.31-1.24,3,3,0,0,1,6.06,0s0,.05,0,.08" transform="translate(0)" style="fill:none;stroke:#000;stroke-width:0.24354499999999998px"/><path d="M41.43,39.38s0-.09,0-.14a3.11,3.11,0,1,1,3.1,2.88h-.26" transform="translate(0)" style="fill:none;stroke:#000;stroke-width:0.24354499999999998px"/><path d="M82.72,74.6l.52-.05c-2.09.14-18.89.64-21.71.26-2.48-.34-4.66-1.42-4.88-3.72s0-7.44,0-7.44-3.2.55-3.93-.74,2-6.36,3.64-12.85a15.44,15.44,0,0,1,4.08-6.83,16.79,16.79,0,0,1,6.92-3.31c2.55-.43,7.79-.34,10.27.81s3.28,1.28,5.9,4.4c2.12,2.51,2.4,3.65,2.7,7.24a61.64,61.64,0,0,1,.07,8.93c-.15,2-.51,8-1.24,10.35A4.74,4.74,0,0,1,82.72,74.6Z" transform="translate(0)" style="stroke:#000;stroke-width:0.97418px"/><path d="M63.24,54.29c-.21,1.08-1,1.85-1.84,1.72s-1.29-1.12-1.08-2.21,1-1.85,1.84-1.72S63.45,53.2,63.24,54.29Z" transform="translate(0)" style="fill:#fff;stroke:#000;stroke-width:0.97418px"/><path d="M76.48,122l-6.67-15s-8.78,15.08-9.5,15.23-19.86.35-19-.47S77.66,75.54,77.66,75.54a13.36,13.36,0,0,1,1.77-1.37c2.84-1.57,3.8-1.53,6.94,0S97.62,87.93,97.62,87.93L97.37,122Z" transform="translate(0)" style="stroke:#000;stroke-width:0.97418px"/></g><g id="text"><path d="M127.34,42V34.16h5.84v1.33h-4.25v1.75h4v1.33h-4v2.14h4.4V42Z" transform="translate(0)"/><path d="M133.94,42,136,39.09l-2-2.77h1.84l1,1.57,1.06-1.57h1.77L137.78,39l2.11,3H138l-1.16-1.77L135.71,42Z" transform="translate(0)"/><path d="M140.74,36.33h1.41v.84a2.11,2.11,0,0,1,.74-.7,2,2,0,0,1,1-.27,2.17,2.17,0,0,1,1.69.78,3.15,3.15,0,0,1,.69,2.17,3.25,3.25,0,0,1-.7,2.22,2.18,2.18,0,0,1-1.69.79,1.92,1.92,0,0,1-.86-.19,2.87,2.87,0,0,1-.81-.64V44.2h-1.51Zm1.49,2.76a2.19,2.19,0,0,0,.38,1.42,1.16,1.16,0,0,0,.93.46,1.09,1.09,0,0,0,.88-.42,2.18,2.18,0,0,0,.35-1.38,2.06,2.06,0,0,0-.36-1.33,1.11,1.11,0,0,0-.89-.44,1.16,1.16,0,0,0-.92.43A1.9,1.9,0,0,0,142.23,39.08Z" transform="translate(0)"/><path d="M147.5,42V34.16H149V42Z" transform="translate(0)"/><path d="M150.21,39.1a3.09,3.09,0,0,1,.37-1.46,2.54,2.54,0,0,1,1.05-1.07,3.11,3.11,0,0,1,1.52-.37,2.85,2.85,0,0,1,2.12.84,2.9,2.9,0,0,1,.83,2.12,2.94,2.94,0,0,1-.83,2.15,2.82,2.82,0,0,1-2.1.85,3.31,3.31,0,0,1-1.5-.35,2.43,2.43,0,0,1-1.08-1A3.47,3.47,0,0,1,150.21,39.1Zm1.55.08a1.89,1.89,0,0,0,.4,1.3,1.32,1.32,0,0,0,2,0,1.92,1.92,0,0,0,.4-1.31,1.89,1.89,0,0,0-.4-1.29,1.32,1.32,0,0,0-2,0A1.89,1.89,0,0,0,151.75,39.18Z" transform="translate(0)"/><path d="M156.74,40.4l1.51-.23a1.11,1.11,0,0,0,.39.67,1.33,1.33,0,0,0,.83.23,1.5,1.5,0,0,0,.88-.21.48.48,0,0,0,.2-.4.4.4,0,0,0-.11-.28,1.2,1.2,0,0,0-.5-.2,8.13,8.13,0,0,1-2.31-.74,1.47,1.47,0,0,1-.68-1.28,1.58,1.58,0,0,1,.59-1.25,2.74,2.74,0,0,1,1.82-.5,3.17,3.17,0,0,1,1.74.38,2,2,0,0,1,.78,1.13l-1.42.26a.88.88,0,0,0-.35-.51,1.27,1.27,0,0,0-.73-.18,1.64,1.64,0,0,0-.85.17.36.36,0,0,0-.17.31.34.34,0,0,0,.15.27,5.67,5.67,0,0,0,1.41.42,4.19,4.19,0,0,1,1.68.67,1.4,1.4,0,0,1,.47,1.12,1.72,1.72,0,0,1-.66,1.35,2.9,2.9,0,0,1-1.94.56,3.19,3.19,0,0,1-1.85-.47A2.18,2.18,0,0,1,156.74,40.4Z" transform="translate(0)"/><path d="M163.39,35.55v-1.4h1.51v1.4Zm0,6.48v-5.7h1.51V42Z" transform="translate(0)"/><path d="M166.1,39.1a3.1,3.1,0,0,1,.37-1.46,2.55,2.55,0,0,1,1.05-1.07A3.12,3.12,0,0,1,169,36.2a2.85,2.85,0,0,1,2.12.84,2.91,2.91,0,0,1,.83,2.12,2.94,2.94,0,0,1-.83,2.15,2.82,2.82,0,0,1-2.1.85,3.31,3.31,0,0,1-1.5-.35,2.44,2.44,0,0,1-1.08-1A3.48,3.48,0,0,1,166.1,39.1Zm1.55.08a1.88,1.88,0,0,0,.4,1.3,1.32,1.32,0,0,0,2,0,1.92,1.92,0,0,0,.4-1.31,1.88,1.88,0,0,0-.4-1.29,1.32,1.32,0,0,0-2,0A1.88,1.88,0,0,0,167.65,39.18Z" transform="translate(0)"/><path d="M178.36,42h-1.51V39.12a4.52,4.52,0,0,0-.1-1.2.84.84,0,0,0-.31-.42.9.9,0,0,0-.52-.15,1.21,1.21,0,0,0-.7.21,1.08,1.08,0,0,0-.43.57,4.92,4.92,0,0,0-.12,1.31V42h-1.51v-5.7h1.4v.84a2.34,2.34,0,0,1,2.79-.79,1.53,1.53,0,0,1,.63.46,1.65,1.65,0,0,1,.29.63,4.63,4.63,0,0,1,.08,1Z" transform="translate(0)"/><path d="M183,42V34.16h1.59v3.1h3.12v-3.1h1.59V42h-1.59V38.59h-3.12V42Z" transform="translate(0)"/><path d="M192,38.07l-1.37-.25a2.14,2.14,0,0,1,.79-1.22,2.91,2.91,0,0,1,1.68-.4,3.61,3.61,0,0,1,1.5.24,1.49,1.49,0,0,1,.7.61,3.11,3.11,0,0,1,.2,1.35l0,1.76a6.16,6.16,0,0,0,.07,1.11,3.24,3.24,0,0,0,.27.77h-1.49c0-.1-.09-.25-.15-.45l-.05-.18a2.73,2.73,0,0,1-.83.56,2.36,2.36,0,0,1-.94.19,1.94,1.94,0,0,1-1.39-.48,1.59,1.59,0,0,1-.51-1.21,1.63,1.63,0,0,1,.23-.86,1.51,1.51,0,0,1,.65-.58,5.08,5.08,0,0,1,1.2-.35,8.15,8.15,0,0,0,1.47-.37v-.15a.78.78,0,0,0-.21-.62,1.29,1.29,0,0,0-.81-.19,1.08,1.08,0,0,0-.63.16A1.1,1.1,0,0,0,192,38.07Zm2,1.22a9.37,9.37,0,0,1-.92.23,2.77,2.77,0,0,0-.82.26.63.63,0,0,0-.29.53.74.74,0,0,0,.24.55.83.83,0,0,0,.6.23,1.31,1.31,0,0,0,.78-.27,1,1,0,0,0,.36-.5,3,3,0,0,0,.06-.74Z" transform="translate(0)"/><path d="M196.4,42V40.86l2.14-2.45q.53-.6.78-.85l-.69,0h-2V36.33h4.72V37.4l-2.18,2.51-.77.83.78,0h2.34V42Z" transform="translate(0)"/><path d="M203.63,38.07l-1.37-.25a2.14,2.14,0,0,1,.79-1.22,2.91,2.91,0,0,1,1.68-.4,3.6,3.6,0,0,1,1.5.24,1.49,1.49,0,0,1,.7.61,3.1,3.1,0,0,1,.2,1.35l0,1.76a6.25,6.25,0,0,0,.07,1.11,3.29,3.29,0,0,0,.27.77H206c0-.1-.09-.25-.15-.45l-.05-.18a2.72,2.72,0,0,1-.83.56,2.37,2.37,0,0,1-.94.19,2,2,0,0,1-1.39-.48,1.59,1.59,0,0,1-.51-1.21,1.62,1.62,0,0,1,.23-.86A1.51,1.51,0,0,1,203,39a5.07,5.07,0,0,1,1.2-.35,8.2,8.2,0,0,0,1.47-.37v-.15a.78.78,0,0,0-.21-.62,1.29,1.29,0,0,0-.81-.19,1.08,1.08,0,0,0-.63.16A1.1,1.1,0,0,0,203.63,38.07Zm2,1.22a9.33,9.33,0,0,1-.92.23,2.77,2.77,0,0,0-.82.26.63.63,0,0,0-.3.53.74.74,0,0,0,.24.55.83.83,0,0,0,.6.23,1.31,1.31,0,0,0,.78-.27.94.94,0,0,0,.36-.5,2.94,2.94,0,0,0,.06-.74Z" transform="translate(0)"/><path d="M210.07,42h-1.51v-5.7H210v.81a2.43,2.43,0,0,1,.65-.76,1.19,1.19,0,0,1,.65-.18,1.91,1.91,0,0,1,1,.28l-.47,1.32a1.32,1.32,0,0,0-.71-.25.84.84,0,0,0-.54.17,1.2,1.2,0,0,0-.35.63,9,9,0,0,0-.13,1.91Z" transform="translate(0)"/><path d="M218.14,42h-1.4v-.84a2.27,2.27,0,0,1-.82.73,2.12,2.12,0,0,1-1,.24,2.17,2.17,0,0,1-1.68-.79,3.22,3.22,0,0,1-.7-2.21,3.18,3.18,0,0,1,.68-2.2A2.22,2.22,0,0,1,215,36.2a2.14,2.14,0,0,1,1.65.79V34.16h1.51Zm-4-3a2.62,2.62,0,0,0,.25,1.32,1.14,1.14,0,0,0,1,.59,1.11,1.11,0,0,0,.89-.44,2,2,0,0,0,.37-1.32,2.24,2.24,0,0,0-.35-1.42,1.16,1.16,0,0,0-1.81,0A1.92,1.92,0,0,0,214.11,39.06Z" transform="translate(0)"/><path d="M114,63V57h4.1v.72h-3.3v1.88h2.86v.72H114.8V63Z" transform="translate(0)"/><path d="M119,63V57h.75V63Z" transform="translate(0)"/><path d="M123.81,62.5a2.78,2.78,0,0,1-.8.5,2.3,2.3,0,0,1-.82.15,1.6,1.6,0,0,1-1.12-.35,1.17,1.17,0,0,1-.39-.91,1.23,1.23,0,0,1,.53-1,1.81,1.81,0,0,1,.54-.24,5.27,5.27,0,0,1,.66-.11,6.83,6.83,0,0,0,1.33-.26c0-.1,0-.17,0-.19a.83.83,0,0,0-.21-.64,1.25,1.25,0,0,0-.85-.25,1.32,1.32,0,0,0-.78.18,1.13,1.13,0,0,0-.37.65l-.73-.1a1.81,1.81,0,0,1,.33-.76,1.44,1.44,0,0,1,.66-.44,2.94,2.94,0,0,1,1-.16,2.65,2.65,0,0,1,.92.13,1.21,1.21,0,0,1,.52.33,1.18,1.18,0,0,1,.23.51,4.25,4.25,0,0,1,0,.69v1a10.76,10.76,0,0,0,0,1.32,1.64,1.64,0,0,0,.19.53H124A1.57,1.57,0,0,1,123.81,62.5Zm-.06-1.67a5.51,5.51,0,0,1-1.22.28,2.8,2.8,0,0,0-.65.15.64.64,0,0,0-.29.24.63.63,0,0,0-.1.35.64.64,0,0,0,.23.5,1,1,0,0,0,.66.2,1.53,1.53,0,0,0,.77-.19,1.16,1.16,0,0,0,.49-.52,1.8,1.8,0,0,0,.12-.75Z" transform="translate(0)"/><path d="M125.66,63V58.63h.67v.62a1.55,1.55,0,0,1,1.34-.72,1.45,1.45,0,0,1,.8.2,1.09,1.09,0,0,1,.44.57,1.58,1.58,0,0,1,1.36-.77,1.34,1.34,0,0,1,1,.36,1.55,1.55,0,0,1,.35,1.12v3h-.74V60.26a2.06,2.06,0,0,0-.07-.65.63.63,0,0,0-.26-.32.82.82,0,0,0-.45-.12,1,1,0,0,0-.77.31,1.36,1.36,0,0,0-.31,1V63h-.75V60.18a1.27,1.27,0,0,0-.18-.75.69.69,0,0,0-.6-.25,1.09,1.09,0,0,0-.58.17.94.94,0,0,0-.39.49,2.74,2.74,0,0,0-.12.92V63Z" transform="translate(0)"/><path d="M132.74,63V58.63h.67v.62a1.57,1.57,0,0,1,.55-.52,1.55,1.55,0,0,1,.78-.2,1.45,1.45,0,0,1,.8.2,1.09,1.09,0,0,1,.44.57,1.58,1.58,0,0,1,1.36-.77,1.34,1.34,0,0,1,1,.36,1.55,1.55,0,0,1,.35,1.12v3H138V60.26a2,2,0,0,0-.07-.65.62.62,0,0,0-.26-.32.82.82,0,0,0-.45-.12,1,1,0,0,0-.77.31,1.37,1.37,0,0,0-.31,1V63h-.75V60.18a1.26,1.26,0,0,0-.18-.75.69.69,0,0,0-.6-.25,1.08,1.08,0,0,0-.58.17.94.94,0,0,0-.39.49,2.74,2.74,0,0,0-.12.92V63Z" transform="translate(0)"/><path d="M142.7,62.5a2.77,2.77,0,0,1-.8.5,2.3,2.3,0,0,1-.82.15,1.6,1.6,0,0,1-1.12-.35,1.17,1.17,0,0,1-.39-.91,1.2,1.2,0,0,1,.15-.59,1.22,1.22,0,0,1,.38-.43,1.83,1.83,0,0,1,.54-.24,5.3,5.3,0,0,1,.66-.11,6.81,6.81,0,0,0,1.33-.26c0-.1,0-.17,0-.19a.83.83,0,0,0-.21-.64,1.25,1.25,0,0,0-.85-.25,1.32,1.32,0,0,0-.78.18,1.13,1.13,0,0,0-.37.65l-.73-.1a1.81,1.81,0,0,1,.33-.76,1.43,1.43,0,0,1,.66-.44,2.93,2.93,0,0,1,1-.16,2.65,2.65,0,0,1,.92.13,1.2,1.2,0,0,1,.52.33,1.16,1.16,0,0,1,.23.51,4.14,4.14,0,0,1,0,.69v1a10.47,10.47,0,0,0,0,1.32,1.63,1.63,0,0,0,.19.53h-.78A1.57,1.57,0,0,1,142.7,62.5Zm-.06-1.67a5.5,5.5,0,0,1-1.22.28,2.8,2.8,0,0,0-.65.15.65.65,0,0,0-.29.24.66.66,0,0,0,.12.85,1,1,0,0,0,.66.2,1.54,1.54,0,0,0,.77-.19,1.16,1.16,0,0,0,.49-.52,1.81,1.81,0,0,0,.12-.75Z" transform="translate(0)"/><path d="M145.24,63h-.69V57h.75v2.17a1.48,1.48,0,0,1,1.21-.59,1.85,1.85,0,0,1,.77.16,1.57,1.57,0,0,1,.6.46,2.24,2.24,0,0,1,.37.72,2.94,2.94,0,0,1,.13.9,2.52,2.52,0,0,1-.56,1.75,1.75,1.75,0,0,1-1.34.62,1.41,1.41,0,0,1-1.22-.65Zm0-2.24a2.29,2.29,0,0,0,.22,1.15,1.07,1.07,0,0,0,1.8.15,1.93,1.93,0,0,0,.36-1.27,2,2,0,0,0-.34-1.27,1,1,0,0,0-.83-.41,1.08,1.08,0,0,0-.85.43A1.87,1.87,0,0,0,145.23,60.8Z" transform="translate(0)"/><path d="M149.26,63V57H150V63Z" transform="translate(0)"/><path d="M154.19,61.62l.77.1a1.88,1.88,0,0,1-.68,1.05,2.29,2.29,0,0,1-2.79-.22,2.33,2.33,0,0,1-.57-1.67,2.44,2.44,0,0,1,.57-1.73,1.94,1.94,0,0,1,1.49-.61,1.89,1.89,0,0,1,1.45.6,2.39,2.39,0,0,1,.56,1.69s0,.11,0,.2h-3.29a1.7,1.7,0,0,0,.41,1.11,1.22,1.22,0,0,0,.92.39,1.14,1.14,0,0,0,.7-.22A1.43,1.43,0,0,0,154.19,61.62Zm-2.45-1.21h2.46a1.49,1.49,0,0,0-.28-.83,1.14,1.14,0,0,0-.93-.43,1.19,1.19,0,0,0-.87.34A1.36,1.36,0,0,0,151.73,60.41Z" transform="translate(0)"/><path d="M158.26,63V57H159v2.18a1.67,1.67,0,0,1,1.32-.61,1.78,1.78,0,0,1,.85.19,1.14,1.14,0,0,1,.52.53,2.45,2.45,0,0,1,.16,1V63h-.75V60.25a1.16,1.16,0,0,0-.24-.82.91.91,0,0,0-.69-.26,1.21,1.21,0,0,0-.62.17,1,1,0,0,0-.42.47,2.17,2.17,0,0,0-.12.81V63Z" transform="translate(0)"/><path d="M163,64.74l-.08-.7a1.66,1.66,0,0,0,.43.07.82.82,0,0,0,.4-.08.67.67,0,0,0,.24-.23,3.72,3.72,0,0,0,.23-.56l.07-.18-1.67-4.42h.81l.92,2.55q.18.49.32,1a10.06,10.06,0,0,1,.31-1l.94-2.57h.75l-1.68,4.48a8.73,8.73,0,0,1-.42,1,1.48,1.48,0,0,1-.46.54,1.08,1.08,0,0,1-.61.17A1.49,1.49,0,0,1,163,64.74Z" transform="translate(0)"/><path d="M170.09,63v-.56a1.37,1.37,0,0,1-1.23.66,1.73,1.73,0,0,1-1-.29,1.91,1.91,0,0,1-.68-.81,2.81,2.81,0,0,1-.24-1.2,3.14,3.14,0,0,1,.22-1.2,1.73,1.73,0,0,1,.66-.82,1.76,1.76,0,0,1,1-.29,1.47,1.47,0,0,1,.71.17,1.49,1.49,0,0,1,.51.44V57h.74V63Zm-2.36-2.2a1.91,1.91,0,0,0,.36,1.27,1.08,1.08,0,0,0,.84.42,1.05,1.05,0,0,0,.83-.4,1.85,1.85,0,0,0,.34-1.22,2.07,2.07,0,0,0-.35-1.33,1.07,1.07,0,0,0-.86-.42,1,1,0,0,0-.83.41A2,2,0,0,0,167.73,60.84Z" transform="translate(0)"/><path d="M172,63V58.63h.67v.67a1.83,1.83,0,0,1,.47-.62.83.83,0,0,1,.48-.15,1.46,1.46,0,0,1,.77.24l-.26.69a1.06,1.06,0,0,0-.55-.16.72.72,0,0,0-.44.15.8.8,0,0,0-.28.41,2.91,2.91,0,0,0-.12.87V63Z" transform="translate(0)"/><path d="M174.51,60.84a2.27,2.27,0,0,1,.68-1.81,2.05,2.05,0,0,1,1.39-.49,2,2,0,0,1,1.49.6,2.26,2.26,0,0,1,.58,1.65,2.92,2.92,0,0,1-.25,1.34,1.81,1.81,0,0,1-.74.76,2.16,2.16,0,0,1-1.06.27,2,2,0,0,1-1.5-.59A2.37,2.37,0,0,1,174.51,60.84Zm.77,0a1.88,1.88,0,0,0,.37,1.27,1.23,1.23,0,0,0,1.86,0,1.92,1.92,0,0,0,.37-1.29,1.82,1.82,0,0,0-.37-1.24,1.23,1.23,0,0,0-1.85,0A1.87,1.87,0,0,0,175.28,60.84Z" transform="translate(0)"/><path d="M179.38,63.4l.73.11a.69.69,0,0,0,.25.49,1.24,1.24,0,0,0,.76.21,1.34,1.34,0,0,0,.8-.21,1,1,0,0,0,.38-.58,4.79,4.79,0,0,0,.05-1,1.54,1.54,0,0,1-1.22.58,1.66,1.66,0,0,1-1.41-.66,2.52,2.52,0,0,1-.5-1.57,2.94,2.94,0,0,1,.23-1.16,1.83,1.83,0,0,1,.66-.82,1.79,1.79,0,0,1,1-.29,1.58,1.58,0,0,1,1.29.63v-.53h.69v3.81a3.62,3.62,0,0,1-.21,1.46,1.54,1.54,0,0,1-.66.68,2.3,2.3,0,0,1-1.12.25,2.11,2.11,0,0,1-1.27-.35A1.2,1.2,0,0,1,179.38,63.4Zm.62-2.65a1.92,1.92,0,0,0,.34,1.27,1.14,1.14,0,0,0,1.73,0,1.85,1.85,0,0,0,.35-1.24,1.81,1.81,0,0,0-.36-1.22,1.11,1.11,0,0,0-.87-.41,1.08,1.08,0,0,0-.85.4A1.8,1.8,0,0,0,180,60.76Z" transform="translate(0)"/><path d="M187.26,61.62l.77.1a1.88,1.88,0,0,1-.68,1.05,2.29,2.29,0,0,1-2.79-.22,2.33,2.33,0,0,1-.57-1.67,2.44,2.44,0,0,1,.57-1.73,1.94,1.94,0,0,1,1.49-.61,1.89,1.89,0,0,1,1.44.6,2.39,2.39,0,0,1,.56,1.69s0,.11,0,.2h-3.29a1.7,1.7,0,0,0,.41,1.11,1.22,1.22,0,0,0,.92.39,1.14,1.14,0,0,0,.7-.22A1.43,1.43,0,0,0,187.26,61.62Zm-2.45-1.21h2.46a1.49,1.49,0,0,0-.28-.83,1.14,1.14,0,0,0-.93-.43,1.19,1.19,0,0,0-.87.34A1.36,1.36,0,0,0,184.81,60.41Z" transform="translate(0)"/><path d="M189,63V58.63h.67v.63a1.59,1.59,0,0,1,1.4-.73,1.84,1.84,0,0,1,.73.14,1.16,1.16,0,0,1,.5.38,1.44,1.44,0,0,1,.23.55,4.33,4.33,0,0,1,0,.73V63h-.75V60.36a2,2,0,0,0-.09-.68.72.72,0,0,0-.31-.36,1,1,0,0,0-.52-.13,1.21,1.21,0,0,0-.82.3,1.5,1.5,0,0,0-.35,1.15V63Z" transform="translate(0)"/><path d="M195.93,63.4l.73.11a.69.69,0,0,0,.25.49,1.25,1.25,0,0,0,.76.21,1.33,1.33,0,0,0,.8-.21,1,1,0,0,0,.38-.58,4.82,4.82,0,0,0,.05-1,1.54,1.54,0,0,1-1.22.58,1.67,1.67,0,0,1-1.41-.66,2.52,2.52,0,0,1-.5-1.57,2.93,2.93,0,0,1,.23-1.16,1.83,1.83,0,0,1,.66-.82,1.79,1.79,0,0,1,1-.29,1.58,1.58,0,0,1,1.29.63v-.53h.69v3.81a3.62,3.62,0,0,1-.21,1.46,1.54,1.54,0,0,1-.66.68,2.3,2.3,0,0,1-1.12.25,2.11,2.11,0,0,1-1.27-.35A1.2,1.2,0,0,1,195.93,63.4Zm.62-2.65a1.91,1.91,0,0,0,.34,1.27,1.09,1.09,0,0,0,.86.4,1.1,1.1,0,0,0,.86-.4,1.85,1.85,0,0,0,.35-1.24,1.81,1.81,0,0,0-.36-1.22,1.11,1.11,0,0,0-.87-.41,1.08,1.08,0,0,0-.85.4A1.8,1.8,0,0,0,196.54,60.76Z" transform="translate(0)"/><path d="M203.67,62.5a2.78,2.78,0,0,1-.8.5,2.3,2.3,0,0,1-.82.15,1.6,1.6,0,0,1-1.12-.35,1.17,1.17,0,0,1-.39-.91,1.23,1.23,0,0,1,.53-1,1.81,1.81,0,0,1,.54-.24,5.27,5.27,0,0,1,.66-.11,6.83,6.83,0,0,0,1.33-.26c0-.1,0-.17,0-.19a.83.83,0,0,0-.21-.64,1.25,1.25,0,0,0-.85-.25,1.32,1.32,0,0,0-.78.18,1.13,1.13,0,0,0-.37.65l-.73-.1a1.81,1.81,0,0,1,.33-.76,1.44,1.44,0,0,1,.66-.44,2.94,2.94,0,0,1,1-.16,2.65,2.65,0,0,1,.92.13,1.21,1.21,0,0,1,.52.33,1.18,1.18,0,0,1,.23.51,4.25,4.25,0,0,1,0,.69v1a10.76,10.76,0,0,0,0,1.32,1.64,1.64,0,0,0,.19.53h-.78A1.57,1.57,0,0,1,203.67,62.5Zm-.06-1.67a5.51,5.51,0,0,1-1.22.28,2.8,2.8,0,0,0-.65.15.64.64,0,0,0-.29.24.63.63,0,0,0-.1.35.64.64,0,0,0,.23.5,1,1,0,0,0,.66.2,1.53,1.53,0,0,0,.77-.19,1.16,1.16,0,0,0,.49-.52,1.8,1.8,0,0,0,.12-.75Z" transform="translate(0)"/><path d="M205.22,61.72l.74-.12a1,1,0,0,0,.35.68,1.21,1.21,0,0,0,.79.24,1.17,1.17,0,0,0,.76-.21.63.63,0,0,0,.25-.49.45.45,0,0,0-.22-.4,3.26,3.26,0,0,0-.76-.25,7,7,0,0,1-1.14-.36,1.09,1.09,0,0,1-.65-1,1.14,1.14,0,0,1,.13-.55,1.22,1.22,0,0,1,.37-.42,1.56,1.56,0,0,1,.48-.22,2.26,2.26,0,0,1,.65-.09,2.55,2.55,0,0,1,.91.15,1.24,1.24,0,0,1,.58.4,1.58,1.58,0,0,1,.26.68l-.73.1a.8.8,0,0,0-.29-.53,1.05,1.05,0,0,0-.67-.19,1.22,1.22,0,0,0-.73.17.5.5,0,0,0-.22.4.41.41,0,0,0,.09.26.67.67,0,0,0,.29.2l.66.19a9.16,9.16,0,0,1,1.11.35,1.12,1.12,0,0,1,.49.39,1.09,1.09,0,0,1,.18.64,1.25,1.25,0,0,1-.22.7A1.4,1.4,0,0,1,208,63a2.28,2.28,0,0,1-.93.18,2.07,2.07,0,0,1-1.31-.36A1.66,1.66,0,0,1,205.22,61.72Z" transform="translate(0)"/><path d="M212.78,61.62l.77.1a1.88,1.88,0,0,1-.68,1.05,2.29,2.29,0,0,1-2.79-.22,2.33,2.33,0,0,1-.57-1.67,2.44,2.44,0,0,1,.57-1.73,1.94,1.94,0,0,1,1.49-.61,1.89,1.89,0,0,1,1.44.6,2.39,2.39,0,0,1,.56,1.69s0,.11,0,.2h-3.29a1.69,1.69,0,0,0,.41,1.11,1.22,1.22,0,0,0,.92.39,1.14,1.14,0,0,0,.7-.22A1.43,1.43,0,0,0,212.78,61.62Zm-2.45-1.21h2.46a1.5,1.5,0,0,0-.28-.83,1.15,1.15,0,0,0-.93-.43,1.19,1.19,0,0,0-.87.34A1.36,1.36,0,0,0,210.33,60.41Z" transform="translate(0)"/><path d="M214.2,61.72l.74-.12a1,1,0,0,0,.35.68,1.21,1.21,0,0,0,.79.24,1.17,1.17,0,0,0,.76-.21.63.63,0,0,0,.25-.49.45.45,0,0,0-.22-.4,3.26,3.26,0,0,0-.76-.25,7,7,0,0,1-1.14-.36,1.09,1.09,0,0,1-.65-1,1.14,1.14,0,0,1,.14-.55,1.21,1.21,0,0,1,.37-.42,1.52,1.52,0,0,1,.47-.22,2.26,2.26,0,0,1,.65-.09,2.55,2.55,0,0,1,.91.15,1.24,1.24,0,0,1,.58.4,1.58,1.58,0,0,1,.26.68l-.73.1a.8.8,0,0,0-.29-.53,1.05,1.05,0,0,0-.67-.19,1.22,1.22,0,0,0-.73.17.5.5,0,0,0-.22.4.41.41,0,0,0,.09.26.66.66,0,0,0,.29.2l.66.19a9.22,9.22,0,0,1,1.11.35,1.12,1.12,0,0,1,.49.39,1.09,1.09,0,0,1,.18.64,1.25,1.25,0,0,1-.22.7A1.41,1.41,0,0,1,217,63a2.28,2.28,0,0,1-.93.18,2.07,2.07,0,0,1-1.31-.36A1.66,1.66,0,0,1,214.2,61.72Z" transform="translate(0)"/><path d="M113.86,73.24V68.83h.67v.62a1.57,1.57,0,0,1,.55-.52,1.55,1.55,0,0,1,.78-.2,1.45,1.45,0,0,1,.8.2,1.09,1.09,0,0,1,.44.57,1.58,1.58,0,0,1,1.36-.77,1.34,1.34,0,0,1,1,.36,1.55,1.55,0,0,1,.35,1.12v3h-.74V70.46a2,2,0,0,0-.07-.65.62.62,0,0,0-.26-.32.82.82,0,0,0-.45-.12,1,1,0,0,0-.77.31,1.36,1.36,0,0,0-.31,1v2.56h-.75V70.38a1.26,1.26,0,0,0-.18-.75.69.69,0,0,0-.6-.25,1.08,1.08,0,0,0-.58.17.94.94,0,0,0-.39.49,2.74,2.74,0,0,0-.12.92v2.29Z" transform="translate(0)"/><path d="M123.81,72.7a2.78,2.78,0,0,1-.8.5,2.3,2.3,0,0,1-.82.15,1.6,1.6,0,0,1-1.12-.35,1.17,1.17,0,0,1-.39-.91,1.23,1.23,0,0,1,.53-1,1.81,1.81,0,0,1,.54-.24,5.27,5.27,0,0,1,.66-.11,6.83,6.83,0,0,0,1.33-.26c0-.1,0-.17,0-.19a.83.83,0,0,0-.21-.64,1.25,1.25,0,0,0-.85-.25,1.32,1.32,0,0,0-.78.18,1.13,1.13,0,0,0-.37.65l-.73-.1a1.81,1.81,0,0,1,.33-.76,1.44,1.44,0,0,1,.66-.44,2.94,2.94,0,0,1,1-.16,2.65,2.65,0,0,1,.92.13,1.21,1.21,0,0,1,.52.33,1.18,1.18,0,0,1,.23.51,4.25,4.25,0,0,1,0,.69v1a10.76,10.76,0,0,0,0,1.32,1.64,1.64,0,0,0,.19.53H124A1.57,1.57,0,0,1,123.81,72.7ZM123.75,71a5.51,5.51,0,0,1-1.22.28,2.8,2.8,0,0,0-.65.15.64.64,0,0,0-.29.24.63.63,0,0,0-.1.35.64.64,0,0,0,.23.5,1,1,0,0,0,.66.2,1.53,1.53,0,0,0,.77-.19,1.16,1.16,0,0,0,.49-.52,1.8,1.8,0,0,0,.12-.75Z" transform="translate(0)"/><path d="M125.63,74.94l-.08-.7a1.66,1.66,0,0,0,.43.07.82.82,0,0,0,.4-.08.67.67,0,0,0,.24-.23,3.72,3.72,0,0,0,.23-.56l.07-.18-1.67-4.42H126l.92,2.55q.18.49.32,1a10.06,10.06,0,0,1,.31-1l.94-2.57h.75l-1.68,4.48a8.73,8.73,0,0,1-.42,1,1.48,1.48,0,0,1-.46.54,1.08,1.08,0,0,1-.61.17A1.49,1.49,0,0,1,125.63,74.94Z" transform="translate(0)"/><path d="M133,73.24h-.69V67.16H133v2.17a1.48,1.48,0,0,1,1.21-.59,1.85,1.85,0,0,1,.77.16,1.57,1.57,0,0,1,.6.46,2.26,2.26,0,0,1,.37.72,3,3,0,0,1,.13.9,2.52,2.52,0,0,1-.56,1.75,1.75,1.75,0,0,1-1.35.62,1.41,1.41,0,0,1-1.22-.65ZM133,71a2.28,2.28,0,0,0,.22,1.15,1.07,1.07,0,0,0,1.8.15,1.93,1.93,0,0,0,.36-1.27,2,2,0,0,0-.34-1.27,1,1,0,0,0-.83-.41,1.07,1.07,0,0,0-.85.43A1.87,1.87,0,0,0,133,71Z" transform="translate(0)"/><path d="M140,71.82l.77.1a1.88,1.88,0,0,1-.68,1.05,2.29,2.29,0,0,1-2.79-.22,2.33,2.33,0,0,1-.57-1.67,2.44,2.44,0,0,1,.57-1.73,1.94,1.94,0,0,1,1.49-.61,1.89,1.89,0,0,1,1.44.6,2.39,2.39,0,0,1,.56,1.69s0,.11,0,.2h-3.29a1.7,1.7,0,0,0,.41,1.11,1.22,1.22,0,0,0,.92.39,1.14,1.14,0,0,0,.7-.22A1.43,1.43,0,0,0,140,71.82Zm-2.45-1.21H140a1.49,1.49,0,0,0-.28-.83,1.14,1.14,0,0,0-.93-.43,1.19,1.19,0,0,0-.87.34A1.36,1.36,0,0,0,137.57,70.61Z" transform="translate(0)"/><path d="M144.09,74.93v-6.1h.68v.57a1.68,1.68,0,0,1,.54-.5,1.5,1.5,0,0,1,.74-.17,1.74,1.74,0,0,1,1,.29,1.78,1.78,0,0,1,.65.82,3,3,0,0,1,.22,1.16,2.94,2.94,0,0,1-.24,1.22A1.84,1.84,0,0,1,146,73.34a1.41,1.41,0,0,1-.67-.16,1.51,1.51,0,0,1-.49-.4v2.15Zm.68-3.87a1.92,1.92,0,0,0,.34,1.26,1.06,1.06,0,0,0,.83.41,1.08,1.08,0,0,0,.85-.42,2,2,0,0,0,.35-1.31,1.94,1.94,0,0,0-.35-1.26,1,1,0,0,0-.83-.42,1.07,1.07,0,0,0-.84.45A2,2,0,0,0,144.77,71.06Z" transform="translate(0)"/><path d="M148.81,73.24V68.83h.67v.67a1.83,1.83,0,0,1,.47-.62.83.83,0,0,1,.48-.15,1.46,1.46,0,0,1,.77.24l-.26.69a1.06,1.06,0,0,0-.55-.16.72.72,0,0,0-.44.15.8.8,0,0,0-.28.41,2.91,2.91,0,0,0-.12.87v2.31Z" transform="translate(0)"/><path d="M154.67,71.82l.77.1a1.88,1.88,0,0,1-.68,1.05,2,2,0,0,1-1.26.37,2,2,0,0,1-1.53-.6,2.32,2.32,0,0,1-.57-1.67,2.43,2.43,0,0,1,.57-1.73,1.94,1.94,0,0,1,1.49-.61,1.88,1.88,0,0,1,1.44.6,2.39,2.39,0,0,1,.56,1.69s0,.11,0,.2h-3.29a1.69,1.69,0,0,0,.41,1.11,1.23,1.23,0,0,0,.92.39,1.14,1.14,0,0,0,.7-.22A1.43,1.43,0,0,0,154.67,71.82Zm-2.45-1.21h2.46a1.5,1.5,0,0,0-.28-.83,1.15,1.15,0,0,0-.93-.43,1.19,1.19,0,0,0-.87.34A1.37,1.37,0,0,0,152.21,70.61Z" transform="translate(0)"/><path d="M156.08,71.92l.74-.12a1,1,0,0,0,.35.68,1.21,1.21,0,0,0,.79.24,1.17,1.17,0,0,0,.76-.21A.63.63,0,0,0,159,72a.45.45,0,0,0-.22-.4,3.26,3.26,0,0,0-.76-.25,7,7,0,0,1-1.14-.36,1.09,1.09,0,0,1-.65-1,1.14,1.14,0,0,1,.13-.55,1.22,1.22,0,0,1,.37-.42,1.56,1.56,0,0,1,.48-.22,2.26,2.26,0,0,1,.65-.09,2.55,2.55,0,0,1,.91.15,1.24,1.24,0,0,1,.58.4,1.58,1.58,0,0,1,.26.68l-.73.1a.8.8,0,0,0-.29-.53,1.05,1.05,0,0,0-.67-.19,1.22,1.22,0,0,0-.73.17.5.5,0,0,0-.22.4.41.41,0,0,0,.09.26.67.67,0,0,0,.29.2l.66.19a9.16,9.16,0,0,1,1.11.35,1.12,1.12,0,0,1,.49.39,1.09,1.09,0,0,1,.18.64,1.25,1.25,0,0,1-.22.7,1.4,1.4,0,0,1-.63.51,2.28,2.28,0,0,1-.93.18,2.07,2.07,0,0,1-1.31-.36A1.66,1.66,0,0,1,156.08,71.92Z" transform="translate(0)"/><path d="M163.64,71.82l.77.1a1.88,1.88,0,0,1-.68,1.05,2.29,2.29,0,0,1-2.79-.22,2.33,2.33,0,0,1-.57-1.67,2.44,2.44,0,0,1,.57-1.73,1.94,1.94,0,0,1,1.49-.61,1.89,1.89,0,0,1,1.44.6,2.39,2.39,0,0,1,.56,1.69s0,.11,0,.2h-3.29a1.69,1.69,0,0,0,.41,1.11,1.22,1.22,0,0,0,.92.39,1.14,1.14,0,0,0,.7-.22A1.43,1.43,0,0,0,163.64,71.82Zm-2.45-1.21h2.46a1.5,1.5,0,0,0-.28-.83,1.15,1.15,0,0,0-.93-.43,1.19,1.19,0,0,0-.87.34A1.36,1.36,0,0,0,161.19,70.61Z" transform="translate(0)"/><path d="M165.35,73.24V68.83H166v.63a1.59,1.59,0,0,1,1.4-.73,1.84,1.84,0,0,1,.73.14,1.15,1.15,0,0,1,.5.38,1.44,1.44,0,0,1,.23.55,4.19,4.19,0,0,1,0,.73v2.71h-.75V70.56a2,2,0,0,0-.09-.68.71.71,0,0,0-.31-.36,1,1,0,0,0-.52-.13,1.21,1.21,0,0,0-.82.3,1.49,1.49,0,0,0-.35,1.15v2.41Z" transform="translate(0)"/><path d="M171.71,72.57l.11.66a2.76,2.76,0,0,1-.56.07,1.28,1.28,0,0,1-.63-.13.72.72,0,0,1-.32-.34,2.69,2.69,0,0,1-.09-.88V69.41h-.55v-.58h.55V67.74l.74-.45v1.54h.75v.58H171V72a1.3,1.3,0,0,0,0,.41.31.31,0,0,0,.13.15.49.49,0,0,0,.25.05Z" transform="translate(0)"/><path d="M172.65,73.24v-.85h.85v.85Z" transform="translate(0)"/><circle cx="107.22" cy="59.7" r="1.76"/><path d="M114.32,93V86.88h.81v3l3-3h1.09l-2.55,2.47L119.35,93h-1.06l-2.17-3.08-1,1V93Z" transform="translate(0)"/><path d="M122.95,91.55l.77.1a1.88,1.88,0,0,1-.68,1.05,2,2,0,0,1-1.26.37,2,2,0,0,1-1.53-.6,2.32,2.32,0,0,1-.57-1.67,2.43,2.43,0,0,1,.57-1.73,1.94,1.94,0,0,1,1.49-.61,1.88,1.88,0,0,1,1.44.6,2.39,2.39,0,0,1,.56,1.69s0,.11,0,.2h-3.29a1.69,1.69,0,0,0,.41,1.11,1.23,1.23,0,0,0,.92.39,1.14,1.14,0,0,0,.7-.22A1.43,1.43,0,0,0,122.95,91.55Zm-2.45-1.21H123a1.5,1.5,0,0,0-.28-.83,1.15,1.15,0,0,0-.93-.43,1.19,1.19,0,0,0-.87.34A1.37,1.37,0,0,0,120.49,90.34Z" transform="translate(0)"/><path d="M127.67,91.55l.77.1a1.88,1.88,0,0,1-.68,1.05,2.29,2.29,0,0,1-2.79-.22,2.33,2.33,0,0,1-.57-1.67,2.44,2.44,0,0,1,.57-1.73,1.94,1.94,0,0,1,1.49-.61,1.89,1.89,0,0,1,1.44.6,2.39,2.39,0,0,1,.56,1.69s0,.11,0,.2h-3.29a1.69,1.69,0,0,0,.41,1.11,1.22,1.22,0,0,0,.92.39,1.14,1.14,0,0,0,.7-.22A1.43,1.43,0,0,0,127.67,91.55Zm-2.45-1.21h2.46a1.5,1.5,0,0,0-.28-.83,1.15,1.15,0,0,0-.93-.43,1.19,1.19,0,0,0-.87.34A1.36,1.36,0,0,0,125.22,90.34Z" transform="translate(0)"/><path d="M129.39,94.66v-6.1h.68v.57a1.67,1.67,0,0,1,.54-.5,1.49,1.49,0,0,1,.73-.17,1.74,1.74,0,0,1,1,.29,1.79,1.79,0,0,1,.65.82,3,3,0,0,1,.22,1.16,2.94,2.94,0,0,1-.24,1.22,1.83,1.83,0,0,1-.71.83,1.81,1.81,0,0,1-1,.29,1.41,1.41,0,0,1-.67-.16,1.52,1.52,0,0,1-.49-.4v2.15Zm.68-3.87a1.92,1.92,0,0,0,.34,1.26,1.06,1.06,0,0,0,.83.41,1.08,1.08,0,0,0,.85-.42,2,2,0,0,0,.35-1.31,2,2,0,0,0-.35-1.26,1,1,0,0,0-.83-.42,1.08,1.08,0,0,0-.85.45A2,2,0,0,0,130.06,90.79Z" transform="translate(0)"/><path d="M139.35,92.42a2.78,2.78,0,0,1-.8.5,2.3,2.3,0,0,1-.82.15,1.6,1.6,0,0,1-1.12-.35,1.17,1.17,0,0,1-.39-.91,1.22,1.22,0,0,1,.53-1,1.8,1.8,0,0,1,.54-.24,5.3,5.3,0,0,1,.66-.11,6.81,6.81,0,0,0,1.33-.26c0-.1,0-.17,0-.19a.83.83,0,0,0-.21-.64,1.25,1.25,0,0,0-.85-.25,1.32,1.32,0,0,0-.78.18,1.13,1.13,0,0,0-.37.65l-.73-.1a1.81,1.81,0,0,1,.33-.76,1.43,1.43,0,0,1,.66-.44,2.94,2.94,0,0,1,1-.16,2.65,2.65,0,0,1,.92.13,1.21,1.21,0,0,1,.52.33,1.19,1.19,0,0,1,.23.51,4.28,4.28,0,0,1,0,.69v1a10.76,10.76,0,0,0,0,1.32,1.68,1.68,0,0,0,.19.53h-.78A1.57,1.57,0,0,1,139.35,92.42Zm-.06-1.67a5.51,5.51,0,0,1-1.22.28,2.77,2.77,0,0,0-.65.15.64.64,0,0,0-.4.6.63.63,0,0,0,.23.5,1,1,0,0,0,.66.2,1.54,1.54,0,0,0,.77-.19,1.16,1.16,0,0,0,.49-.52,1.81,1.81,0,0,0,.12-.75Z" transform="translate(0)"/><path d="M141.19,93V86.88h.75V93Z" transform="translate(0)"/><path d="M143.07,93V86.88h.75V93Z" transform="translate(0)"/><path d="M147.34,87.74v-.86h.75v.86Zm0,5.23V88.56h.75V93Z" transform="translate(0)"/><path d="M149.09,93.33l.73.11a.69.69,0,0,0,.25.49,1.24,1.24,0,0,0,.76.21,1.34,1.34,0,0,0,.8-.21,1,1,0,0,0,.38-.58,4.79,4.79,0,0,0,.05-1,1.54,1.54,0,0,1-1.22.58,1.66,1.66,0,0,1-1.41-.66,2.52,2.52,0,0,1-.5-1.57,2.94,2.94,0,0,1,.23-1.16,1.83,1.83,0,0,1,.66-.82,1.79,1.79,0,0,1,1-.29,1.58,1.58,0,0,1,1.29.63v-.53h.69v3.81a3.62,3.62,0,0,1-.21,1.46,1.54,1.54,0,0,1-.66.68,2.3,2.3,0,0,1-1.12.25,2.11,2.11,0,0,1-1.27-.35A1.2,1.2,0,0,1,149.09,93.33Zm.62-2.65a1.92,1.92,0,0,0,.34,1.27,1.14,1.14,0,0,0,1.73,0,1.85,1.85,0,0,0,.35-1.24,1.81,1.81,0,0,0-.36-1.22,1.11,1.11,0,0,0-.87-.41,1.08,1.08,0,0,0-.85.4A1.8,1.8,0,0,0,149.71,90.68Z" transform="translate(0)"/><path d="M154,93V88.56h.67v.63a1.59,1.59,0,0,1,1.4-.73,1.84,1.84,0,0,1,.73.14,1.15,1.15,0,0,1,.5.38,1.44,1.44,0,0,1,.23.55,4.19,4.19,0,0,1,0,.73V93h-.75V90.29a2,2,0,0,0-.09-.68.71.71,0,0,0-.31-.36,1,1,0,0,0-.52-.13,1.21,1.21,0,0,0-.82.3,1.49,1.49,0,0,0-.35,1.15V93Z" transform="translate(0)"/><path d="M158.69,87.74v-.86h.75v.86Zm0,5.23V88.56h.75V93Z" transform="translate(0)"/><path d="M162.2,92.3l.11.66a2.76,2.76,0,0,1-.56.07,1.28,1.28,0,0,1-.63-.13.72.72,0,0,1-.32-.34,2.68,2.68,0,0,1-.09-.88V89.14h-.55v-.58h.55V87.47l.74-.45v1.54h.75v.58h-.75v2.58a1.27,1.27,0,0,0,0,.41.3.3,0,0,0,.13.15.49.49,0,0,0,.25.05Z" transform="translate(0)"/><path d="M162.94,87.74v-.86h.75v.86Zm0,5.23V88.56h.75V93Z" transform="translate(0)"/><path d="M164.54,90.76a2.27,2.27,0,0,1,.68-1.81,2.05,2.05,0,0,1,1.39-.49,2,2,0,0,1,1.49.6,2.26,2.26,0,0,1,.58,1.65,2.92,2.92,0,0,1-.25,1.34,1.81,1.81,0,0,1-.74.76,2.16,2.16,0,0,1-1.06.27,2,2,0,0,1-1.5-.59A2.37,2.37,0,0,1,164.54,90.76Zm.77,0a1.88,1.88,0,0,0,.37,1.27,1.23,1.23,0,0,0,1.86,0,1.92,1.92,0,0,0,.37-1.29,1.82,1.82,0,0,0-.37-1.24,1.23,1.23,0,0,0-1.85,0A1.87,1.87,0,0,0,165.31,90.76Z" transform="translate(0)"/><path d="M169.55,93V88.56h.67v.63a1.59,1.59,0,0,1,1.4-.73,1.84,1.84,0,0,1,.73.14,1.16,1.16,0,0,1,.5.38,1.44,1.44,0,0,1,.23.55,4.33,4.33,0,0,1,0,.73V93h-.75V90.29a2,2,0,0,0-.09-.68.72.72,0,0,0-.31-.36,1,1,0,0,0-.52-.13,1.21,1.21,0,0,0-.82.3,1.5,1.5,0,0,0-.35,1.15V93Z" transform="translate(0)"/><path d="M176.34,91.65l.74-.12a1,1,0,0,0,.35.68,1.21,1.21,0,0,0,.79.24,1.17,1.17,0,0,0,.76-.21.63.63,0,0,0,.25-.49.45.45,0,0,0-.22-.4,3.26,3.26,0,0,0-.76-.25,7,7,0,0,1-1.14-.36,1.09,1.09,0,0,1-.65-1,1.14,1.14,0,0,1,.14-.55,1.21,1.21,0,0,1,.37-.42,1.52,1.52,0,0,1,.47-.22,2.26,2.26,0,0,1,.65-.09,2.55,2.55,0,0,1,.91.15,1.24,1.24,0,0,1,.58.4,1.58,1.58,0,0,1,.26.68l-.73.1a.8.8,0,0,0-.29-.53,1.05,1.05,0,0,0-.67-.19,1.22,1.22,0,0,0-.73.17.5.5,0,0,0-.22.4.41.41,0,0,0,.09.26.66.66,0,0,0,.29.2l.66.19a9.22,9.22,0,0,1,1.11.35,1.12,1.12,0,0,1,.49.39,1.09,1.09,0,0,1,.18.64,1.25,1.25,0,0,1-.22.7,1.41,1.41,0,0,1-.63.51,2.28,2.28,0,0,1-.93.18,2.07,2.07,0,0,1-1.31-.36A1.66,1.66,0,0,1,176.34,91.65Z" transform="translate(0)"/><path d="M180.61,90.76a2.27,2.27,0,0,1,.68-1.81,2.05,2.05,0,0,1,1.39-.49,2,2,0,0,1,1.49.6,2.26,2.26,0,0,1,.58,1.65,2.92,2.92,0,0,1-.26,1.34,1.81,1.81,0,0,1-.74.76,2.17,2.17,0,0,1-1.06.27,2,2,0,0,1-1.5-.59A2.37,2.37,0,0,1,180.61,90.76Zm.77,0a1.88,1.88,0,0,0,.37,1.27,1.23,1.23,0,0,0,1.85,0,1.92,1.92,0,0,0,.37-1.29,1.82,1.82,0,0,0-.37-1.24,1.23,1.23,0,0,0-1.85,0A1.87,1.87,0,0,0,181.38,90.76Z" transform="translate(0)"/><path d="M188.5,93v-.65a1.61,1.61,0,0,1-1.4.75,1.79,1.79,0,0,1-.73-.15,1.2,1.2,0,0,1-.5-.38,1.42,1.42,0,0,1-.23-.55,3.91,3.91,0,0,1,0-.7V88.56h.75V91a4.27,4.27,0,0,0,0,.79.78.78,0,0,0,.3.46.92.92,0,0,0,.56.17,1.23,1.23,0,0,0,.63-.17,1,1,0,0,0,.42-.47,2.34,2.34,0,0,0,.12-.86V88.56h.75V93Z" transform="translate(0)"/><path d="M190.33,93V88.56H191v.67a1.83,1.83,0,0,1,.47-.62.83.83,0,0,1,.48-.15,1.46,1.46,0,0,1,.77.24l-.26.69a1.06,1.06,0,0,0-.55-.16.72.72,0,0,0-.44.15.8.8,0,0,0-.28.41,2.91,2.91,0,0,0-.12.87V93Z" transform="translate(0)"/><path d="M196,91.35l.73.1a1.91,1.91,0,0,1-.62,1.19,1.79,1.79,0,0,1-1.22.43,1.89,1.89,0,0,1-1.46-.59,2.4,2.4,0,0,1-.55-1.7,3.08,3.08,0,0,1,.24-1.25,1.65,1.65,0,0,1,.72-.8,2.14,2.14,0,0,1,1.05-.27,1.83,1.83,0,0,1,1.17.36,1.66,1.66,0,0,1,.58,1L196,90a1.21,1.21,0,0,0-.37-.67,1,1,0,0,0-.64-.22,1.16,1.16,0,0,0-.92.4,1.91,1.91,0,0,0-.35,1.28,2,2,0,0,0,.34,1.29,1.11,1.11,0,0,0,.89.4,1,1,0,0,0,.73-.27A1.34,1.34,0,0,0,196,91.35Z" transform="translate(0)"/><path d="M200.44,91.55l.77.1a1.88,1.88,0,0,1-.68,1.05,2.29,2.29,0,0,1-2.79-.22,2.33,2.33,0,0,1-.57-1.67,2.44,2.44,0,0,1,.57-1.73,1.94,1.94,0,0,1,1.49-.61,1.89,1.89,0,0,1,1.44.6,2.39,2.39,0,0,1,.56,1.69s0,.11,0,.2h-3.29a1.7,1.7,0,0,0,.41,1.11,1.22,1.22,0,0,0,.92.39,1.14,1.14,0,0,0,.7-.22A1.43,1.43,0,0,0,200.44,91.55ZM198,90.34h2.46a1.49,1.49,0,0,0-.28-.83,1.14,1.14,0,0,0-.93-.43,1.19,1.19,0,0,0-.87.34A1.36,1.36,0,0,0,198,90.34Z" transform="translate(0)"/><path d="M201.85,91.65l.74-.12a1,1,0,0,0,.35.68,1.21,1.21,0,0,0,.79.24,1.17,1.17,0,0,0,.76-.21.63.63,0,0,0,.25-.49.45.45,0,0,0-.22-.4,3.26,3.26,0,0,0-.76-.25,7,7,0,0,1-1.14-.36,1.09,1.09,0,0,1-.65-1,1.14,1.14,0,0,1,.13-.55,1.22,1.22,0,0,1,.37-.42,1.56,1.56,0,0,1,.48-.22,2.26,2.26,0,0,1,.65-.09,2.55,2.55,0,0,1,.91.15,1.24,1.24,0,0,1,.58.4,1.58,1.58,0,0,1,.26.68l-.73.1a.8.8,0,0,0-.29-.53,1.05,1.05,0,0,0-.67-.19,1.22,1.22,0,0,0-.73.17.5.5,0,0,0-.22.4.41.41,0,0,0,.09.26.67.67,0,0,0,.29.2l.66.19a9.16,9.16,0,0,1,1.11.35,1.12,1.12,0,0,1,.49.39,1.09,1.09,0,0,1,.18.64,1.25,1.25,0,0,1-.22.7,1.4,1.4,0,0,1-.63.51,2.28,2.28,0,0,1-.93.18,2.07,2.07,0,0,1-1.31-.36A1.66,1.66,0,0,1,201.85,91.65Z" transform="translate(0)"/><path d="M211.64,92.42a2.78,2.78,0,0,1-.8.5,2.3,2.3,0,0,1-.82.15,1.6,1.6,0,0,1-1.12-.35,1.17,1.17,0,0,1-.39-.91,1.22,1.22,0,0,1,.53-1,1.8,1.8,0,0,1,.54-.24,5.3,5.3,0,0,1,.66-.11,6.81,6.81,0,0,0,1.33-.26c0-.1,0-.17,0-.19a.83.83,0,0,0-.21-.64,1.25,1.25,0,0,0-.85-.25,1.32,1.32,0,0,0-.78.18,1.13,1.13,0,0,0-.37.65l-.73-.1a1.81,1.81,0,0,1,.33-.76,1.43,1.43,0,0,1,.66-.44,2.94,2.94,0,0,1,1-.16,2.65,2.65,0,0,1,.92.13,1.21,1.21,0,0,1,.52.33,1.19,1.19,0,0,1,.23.51,4.28,4.28,0,0,1,0,.69v1a10.76,10.76,0,0,0,0,1.32,1.68,1.68,0,0,0,.19.53h-.78A1.57,1.57,0,0,1,211.64,92.42Zm-.06-1.67a5.51,5.51,0,0,1-1.22.28,2.77,2.77,0,0,0-.65.15.64.64,0,0,0-.4.6.63.63,0,0,0,.23.5,1,1,0,0,0,.66.2,1.54,1.54,0,0,0,.77-.19,1.16,1.16,0,0,0,.49-.52,1.81,1.81,0,0,0,.12-.75Z" transform="translate(0)"/><path d="M214.3,93,213,88.56h.77l.7,2.54.26.95.23-.91.7-2.58h.77l.66,2.56.22.84.25-.85.76-2.55H219L217.62,93h-.78l-.7-2.64-.17-.75L215.08,93Z" transform="translate(0)"/><path d="M222.5,92.42a2.77,2.77,0,0,1-.8.5,2.3,2.3,0,0,1-.82.15,1.6,1.6,0,0,1-1.12-.35,1.17,1.17,0,0,1-.39-.91,1.2,1.2,0,0,1,.15-.59,1.22,1.22,0,0,1,.38-.43,1.83,1.83,0,0,1,.54-.24,5.3,5.3,0,0,1,.66-.11,6.81,6.81,0,0,0,1.33-.26c0-.1,0-.17,0-.19a.83.83,0,0,0-.21-.64,1.25,1.25,0,0,0-.85-.25,1.32,1.32,0,0,0-.78.18,1.13,1.13,0,0,0-.37.65l-.73-.1a1.81,1.81,0,0,1,.33-.76,1.43,1.43,0,0,1,.66-.44,2.93,2.93,0,0,1,1-.16,2.65,2.65,0,0,1,.92.13,1.2,1.2,0,0,1,.52.33,1.16,1.16,0,0,1,.23.51,4.14,4.14,0,0,1,0,.69v1a10.47,10.47,0,0,0,0,1.32,1.63,1.63,0,0,0,.19.53h-.78A1.57,1.57,0,0,1,222.5,92.42Zm-.06-1.67a5.5,5.5,0,0,1-1.22.28,2.8,2.8,0,0,0-.65.15.65.65,0,0,0-.29.24.66.66,0,0,0,.12.85,1,1,0,0,0,.66.2,1.54,1.54,0,0,0,.77-.19,1.16,1.16,0,0,0,.49-.52,1.81,1.81,0,0,0,.12-.75Z" transform="translate(0)"/><path d="M224.32,94.66l-.08-.7a1.64,1.64,0,0,0,.43.07.82.82,0,0,0,.4-.08.68.68,0,0,0,.25-.23,3.72,3.72,0,0,0,.23-.56l.07-.18-1.67-4.42h.81l.92,2.55q.18.49.32,1a10.06,10.06,0,0,1,.31-1l.94-2.57H228L226.29,93a8.78,8.78,0,0,1-.42,1,1.47,1.47,0,0,1-.46.54,1.08,1.08,0,0,1-.61.17A1.5,1.5,0,0,1,224.32,94.66Z" transform="translate(0)"/><path d="M114.44,103.17V99.34h-.66v-.58h.66v-.47a2.06,2.06,0,0,1,.08-.66,1,1,0,0,1,.38-.47,1.37,1.37,0,0,1,.76-.18,3.66,3.66,0,0,1,.7.08l-.11.65a2.53,2.53,0,0,0-.44,0,.65.65,0,0,0-.48.14.79.79,0,0,0-.14.54v.41H116v.58h-.86v3.83Z" transform="translate(0)"/><path d="M116.61,103.17V98.76h.67v.67a1.82,1.82,0,0,1,.48-.62.83.83,0,0,1,.48-.15,1.46,1.46,0,0,1,.77.24l-.26.69a1.06,1.06,0,0,0-.55-.16.71.71,0,0,0-.44.15.8.8,0,0,0-.28.41,2.91,2.91,0,0,0-.12.87v2.31Z" transform="translate(0)"/><path d="M119.18,101a2.27,2.27,0,0,1,.68-1.81,2,2,0,0,1,1.39-.49,2,2,0,0,1,1.49.6,2.26,2.26,0,0,1,.58,1.64,2.92,2.92,0,0,1-.26,1.34,1.81,1.81,0,0,1-.74.76,2.17,2.17,0,0,1-1.06.27,2,2,0,0,1-1.5-.59A2.37,2.37,0,0,1,119.18,101Zm.77,0a1.88,1.88,0,0,0,.37,1.27,1.23,1.23,0,0,0,1.85,0,1.91,1.91,0,0,0,.37-1.29,1.82,1.82,0,0,0-.37-1.24,1.23,1.23,0,0,0-1.85,0A1.87,1.87,0,0,0,119.94,101Z" transform="translate(0)"/><path d="M124.18,103.17V98.76h.67v.62a1.56,1.56,0,0,1,.55-.52,1.54,1.54,0,0,1,.78-.2,1.45,1.45,0,0,1,.8.2,1.08,1.08,0,0,1,.44.57,1.58,1.58,0,0,1,1.36-.77,1.34,1.34,0,0,1,1,.36,1.55,1.55,0,0,1,.35,1.12v3h-.74v-2.78a2.06,2.06,0,0,0-.07-.65.62.62,0,0,0-.26-.32.83.83,0,0,0-.45-.12,1,1,0,0,0-.77.31,1.36,1.36,0,0,0-.31,1v2.56h-.75V100.3a1.25,1.25,0,0,0-.18-.75.69.69,0,0,0-.6-.25,1.09,1.09,0,0,0-.58.17,1,1,0,0,0-.39.49,2.74,2.74,0,0,0-.12.92v2.29Z" transform="translate(0)"/><path d="M133.8,103.17V99.34h-.66v-.58h.66v-.47a2,2,0,0,1,.08-.66,1,1,0,0,1,.38-.47A1.37,1.37,0,0,1,135,97a3.67,3.67,0,0,1,.7.08l-.11.65a2.52,2.52,0,0,0-.44,0,.66.66,0,0,0-.48.14.79.79,0,0,0-.14.54v.41h.86v.58h-.86v3.83Z" transform="translate(0)"/><path d="M138.86,102.62a2.77,2.77,0,0,1-.8.5,2.29,2.29,0,0,1-.82.15,1.6,1.6,0,0,1-1.12-.35,1.17,1.17,0,0,1-.39-.91,1.23,1.23,0,0,1,.53-1,1.81,1.81,0,0,1,.54-.25,5.33,5.33,0,0,1,.66-.11,6.82,6.82,0,0,0,1.33-.26c0-.1,0-.17,0-.19a.83.83,0,0,0-.21-.64,1.25,1.25,0,0,0-.85-.25,1.32,1.32,0,0,0-.78.18,1.12,1.12,0,0,0-.37.65l-.73-.1a1.8,1.8,0,0,1,.33-.76,1.42,1.42,0,0,1,.66-.44,2.92,2.92,0,0,1,1-.16,2.63,2.63,0,0,1,.92.13,1.2,1.2,0,0,1,.52.33,1.17,1.17,0,0,1,.23.51,4.16,4.16,0,0,1,0,.69v1a10.48,10.48,0,0,0,0,1.32,1.68,1.68,0,0,0,.19.53H139A1.58,1.58,0,0,1,138.86,102.62ZM138.8,101a5.47,5.47,0,0,1-1.22.28,2.77,2.77,0,0,0-.65.15.65.65,0,0,0-.29.24.65.65,0,0,0-.1.36.63.63,0,0,0,.23.5,1,1,0,0,0,.66.2,1.53,1.53,0,0,0,.77-.19,1.16,1.16,0,0,0,.49-.52,1.81,1.81,0,0,0,.12-.75Z" transform="translate(0)"/><path d="M143.6,103.17v-.65a1.61,1.61,0,0,1-1.4.75,1.78,1.78,0,0,1-.73-.15,1.2,1.2,0,0,1-.5-.37,1.41,1.41,0,0,1-.23-.55,3.71,3.71,0,0,1,0-.7V98.76h.75v2.44a4.48,4.48,0,0,0,0,.79.77.77,0,0,0,.3.46.93.93,0,0,0,.56.17,1.22,1.22,0,0,0,.63-.17,1,1,0,0,0,.42-.47,2.37,2.37,0,0,0,.12-.86V98.76h.75v4.41Z" transform="translate(0)"/><path d="M148.32,101.55l.73.1a1.9,1.9,0,0,1-.62,1.19,1.8,1.8,0,0,1-1.22.43,1.9,1.9,0,0,1-1.46-.59,2.4,2.4,0,0,1-.55-1.7,3.08,3.08,0,0,1,.24-1.25,1.65,1.65,0,0,1,.72-.8,2.14,2.14,0,0,1,1.05-.27,1.83,1.83,0,0,1,1.17.36,1.67,1.67,0,0,1,.58,1l-.73.11a1.2,1.2,0,0,0-.37-.67,1,1,0,0,0-.64-.22,1.16,1.16,0,0,0-.92.41A1.92,1.92,0,0,0,146,101a2,2,0,0,0,.34,1.29,1.11,1.11,0,0,0,.89.4,1,1,0,0,0,.74-.27A1.35,1.35,0,0,0,148.32,101.55Z" transform="translate(0)"/><path d="M152.71,101.75l.77.09a1.88,1.88,0,0,1-.68,1,2.29,2.29,0,0,1-2.79-.22,2.33,2.33,0,0,1-.57-1.67,2.44,2.44,0,0,1,.57-1.73,1.94,1.94,0,0,1,1.49-.61,1.89,1.89,0,0,1,1.44.6,2.39,2.39,0,0,1,.56,1.69s0,.11,0,.2h-3.29a1.69,1.69,0,0,0,.41,1.11,1.22,1.22,0,0,0,.92.39,1.15,1.15,0,0,0,.7-.22A1.43,1.43,0,0,0,152.71,101.75Zm-2.45-1.21h2.46a1.5,1.5,0,0,0-.28-.83,1.15,1.15,0,0,0-.93-.43,1.19,1.19,0,0,0-.87.34A1.36,1.36,0,0,0,150.25,100.54Z" transform="translate(0)"/><path d="M156,102.5l.11.66a2.72,2.72,0,0,1-.56.07,1.29,1.29,0,0,1-.63-.13.72.72,0,0,1-.31-.34,2.65,2.65,0,0,1-.09-.88V99.34H154v-.58h.55V97.67l.74-.45v1.54H156v.58h-.75v2.58a1.3,1.3,0,0,0,0,.41.31.31,0,0,0,.13.15.5.5,0,0,0,.25.05Z" transform="translate(0)"/><path d="M160,103.17l-1.35-4.41h.77l.7,2.54.26.95.23-.91.7-2.58H162l.66,2.56.22.84.25-.85.76-2.55h.73l-1.38,4.41h-.78l-.7-2.64-.17-.75-.89,3.39Z" transform="translate(0)"/><path d="M165.28,103.17V97.08H166v2.18a1.67,1.67,0,0,1,1.32-.61,1.79,1.79,0,0,1,.85.19,1.13,1.13,0,0,1,.52.53,2.45,2.45,0,0,1,.16,1v2.79h-.75v-2.79a1.15,1.15,0,0,0-.24-.82.9.9,0,0,0-.69-.26,1.21,1.21,0,0,0-.62.17,1,1,0,0,0-.42.47,2.15,2.15,0,0,0-.12.81v2.41Z" transform="translate(0)"/><path d="M173,101.75l.77.09a1.88,1.88,0,0,1-.68,1,2.29,2.29,0,0,1-2.79-.22,2.33,2.33,0,0,1-.57-1.67,2.44,2.44,0,0,1,.57-1.73,1.94,1.94,0,0,1,1.49-.61,1.89,1.89,0,0,1,1.44.6,2.39,2.39,0,0,1,.56,1.69s0,.11,0,.2h-3.29a1.69,1.69,0,0,0,.41,1.11,1.22,1.22,0,0,0,.92.39,1.15,1.15,0,0,0,.7-.22A1.43,1.43,0,0,0,173,101.75Zm-2.45-1.21H173a1.5,1.5,0,0,0-.28-.83,1.15,1.15,0,0,0-.93-.43,1.19,1.19,0,0,0-.87.34A1.36,1.36,0,0,0,170.57,100.54Z" transform="translate(0)"/><path d="M174.73,103.17V98.76h.67v.63a1.59,1.59,0,0,1,1.4-.73,1.83,1.83,0,0,1,.73.14,1.15,1.15,0,0,1,.5.38,1.43,1.43,0,0,1,.23.55,4.2,4.2,0,0,1,0,.73v2.71h-.75v-2.68a2,2,0,0,0-.09-.68.71.71,0,0,0-.31-.36,1,1,0,0,0-.52-.13,1.21,1.21,0,0,0-.82.3,1.49,1.49,0,0,0-.35,1.15v2.41Z" transform="translate(0)"/><path d="M183.45,102.5l.11.66a2.72,2.72,0,0,1-.56.07,1.29,1.29,0,0,1-.63-.13.72.72,0,0,1-.32-.34,2.67,2.67,0,0,1-.09-.88V99.34h-.55v-.58H182V97.67l.74-.45v1.54h.75v.58h-.75v2.58a1.27,1.27,0,0,0,0,.41.3.3,0,0,0,.13.15.49.49,0,0,0,.25.05Z" transform="translate(0)"/><path d="M187.07,103.17v-.65a1.61,1.61,0,0,1-1.4.75,1.79,1.79,0,0,1-.73-.15,1.21,1.21,0,0,1-.5-.37,1.42,1.42,0,0,1-.23-.55,3.91,3.91,0,0,1,0-.7V98.76h.75v2.44a4.26,4.26,0,0,0,0,.79.77.77,0,0,0,.3.46.92.92,0,0,0,.56.17,1.23,1.23,0,0,0,.63-.17,1,1,0,0,0,.42-.47,2.35,2.35,0,0,0,.12-.86V98.76h.75v4.41Z" transform="translate(0)"/><path d="M188.9,103.17V98.76h.67v.67a1.82,1.82,0,0,1,.47-.62.83.83,0,0,1,.48-.15,1.46,1.46,0,0,1,.77.24l-.26.69a1.07,1.07,0,0,0-.55-.16.71.71,0,0,0-.44.15.79.79,0,0,0-.28.41,2.88,2.88,0,0,0-.12.87v2.31Z" transform="translate(0)"/><path d="M191.74,103.17V98.76h.67v.63a1.59,1.59,0,0,1,1.4-.73,1.83,1.83,0,0,1,.73.14,1.15,1.15,0,0,1,.5.38,1.44,1.44,0,0,1,.23.55,4.2,4.2,0,0,1,0,.73v2.71h-.75v-2.68a2,2,0,0,0-.09-.68.72.72,0,0,0-.31-.36,1,1,0,0,0-.52-.13,1.21,1.21,0,0,0-.82.3,1.49,1.49,0,0,0-.35,1.15v2.41Z" transform="translate(0)"/><path d="M196.47,97.94v-.86h.75v.86Zm0,5.23V98.76h.75v4.41Z" transform="translate(0)"/><path d="M198.36,103.17V98.76H199v.63a1.59,1.59,0,0,1,1.4-.73,1.83,1.83,0,0,1,.73.14,1.16,1.16,0,0,1,.5.38,1.46,1.46,0,0,1,.23.55,4.34,4.34,0,0,1,0,.73v2.71h-.75v-2.68a2,2,0,0,0-.09-.68.73.73,0,0,0-.31-.36,1,1,0,0,0-.52-.13,1.21,1.21,0,0,0-.82.3,1.5,1.5,0,0,0-.35,1.15v2.41Z" transform="translate(0)"/><path d="M202.95,103.53l.73.11a.69.69,0,0,0,.25.49,1.25,1.25,0,0,0,.76.21,1.34,1.34,0,0,0,.8-.21,1,1,0,0,0,.38-.58,4.79,4.79,0,0,0,.05-1,1.54,1.54,0,0,1-1.22.58,1.66,1.66,0,0,1-1.41-.66,2.53,2.53,0,0,1-.5-1.57,2.94,2.94,0,0,1,.23-1.17,1.83,1.83,0,0,1,.66-.82,1.78,1.78,0,0,1,1-.29,1.58,1.58,0,0,1,1.29.63v-.53h.69v3.81a3.61,3.61,0,0,1-.21,1.46,1.54,1.54,0,0,1-.66.68,2.3,2.3,0,0,1-1.12.25,2.11,2.11,0,0,1-1.27-.35A1.2,1.2,0,0,1,202.95,103.53Zm.62-2.65a1.92,1.92,0,0,0,.34,1.27,1.14,1.14,0,0,0,1.73,0,1.85,1.85,0,0,0,.35-1.24,1.8,1.8,0,0,0-.36-1.22,1.11,1.11,0,0,0-.87-.41,1.08,1.08,0,0,0-.85.4A1.8,1.8,0,0,0,203.57,100.89Z" transform="translate(0)"/><path d="M209.89,101a2.27,2.27,0,0,1,.68-1.81,2,2,0,0,1,1.39-.49,2,2,0,0,1,1.49.6,2.26,2.26,0,0,1,.58,1.64,2.92,2.92,0,0,1-.26,1.34,1.81,1.81,0,0,1-.74.76,2.17,2.17,0,0,1-1.06.27,2,2,0,0,1-1.5-.59A2.37,2.37,0,0,1,209.89,101Zm.77,0a1.88,1.88,0,0,0,.37,1.27,1.23,1.23,0,0,0,1.85,0,1.91,1.91,0,0,0,.37-1.29,1.82,1.82,0,0,0-.37-1.24,1.23,1.23,0,0,0-1.85,0A1.87,1.87,0,0,0,210.66,101Z" transform="translate(0)"/><path d="M214.9,103.17V98.76h.67v.63a1.59,1.59,0,0,1,1.4-.73,1.83,1.83,0,0,1,.73.14,1.16,1.16,0,0,1,.5.38,1.44,1.44,0,0,1,.23.55,4.34,4.34,0,0,1,0,.73v2.71h-.75v-2.68a2,2,0,0,0-.09-.68.72.72,0,0,0-.31-.36,1,1,0,0,0-.52-.13,1.21,1.21,0,0,0-.82.3,1.5,1.5,0,0,0-.35,1.15v2.41Z" transform="translate(0)"/><path d="M114.26,113.37v-6.08H115v2.18a1.67,1.67,0,0,1,1.32-.61,1.78,1.78,0,0,1,.85.19,1.13,1.13,0,0,1,.52.53,2.46,2.46,0,0,1,.16,1v2.79h-.75v-2.79a1.15,1.15,0,0,0-.24-.82.9.9,0,0,0-.69-.26,1.22,1.22,0,0,0-.62.17,1,1,0,0,0-.42.47,2.14,2.14,0,0,0-.12.81v2.41Z" transform="translate(0)"/><path d="M118.71,111.16a2.27,2.27,0,0,1,.68-1.81,2,2,0,0,1,1.39-.49,2,2,0,0,1,1.49.6,2.26,2.26,0,0,1,.58,1.65,2.92,2.92,0,0,1-.26,1.34,1.82,1.82,0,0,1-.74.76,2.17,2.17,0,0,1-1.06.27,2,2,0,0,1-1.5-.59A2.37,2.37,0,0,1,118.71,111.16Zm.77,0a1.88,1.88,0,0,0,.37,1.27,1.23,1.23,0,0,0,1.85,0,1.92,1.92,0,0,0,.37-1.29,1.83,1.83,0,0,0-.37-1.24,1.23,1.23,0,0,0-1.85,0A1.87,1.87,0,0,0,119.48,111.16Z" transform="translate(0)"/><path d="M125.35,112.7l.11.66a2.79,2.79,0,0,1-.56.07,1.29,1.29,0,0,1-.63-.13.72.72,0,0,1-.32-.34,2.68,2.68,0,0,1-.09-.88v-2.54h-.55V109h.55v-1.09l.74-.45V109h.75v.58h-.75v2.58a1.28,1.28,0,0,0,0,.41.3.3,0,0,0,.13.15.5.5,0,0,0,.25.05Z" transform="translate(0)"/><path d="M129.25,113.37,127.9,109h.77l.7,2.54.26.95.23-.91.7-2.58h.77l.66,2.56.22.84.25-.85.75-2.55H134l-1.38,4.41h-.78l-.7-2.64-.17-.75-.89,3.39Z" transform="translate(0)"/><path d="M137.45,112.82a2.74,2.74,0,0,1-.8.5,2.29,2.29,0,0,1-.82.15,1.6,1.6,0,0,1-1.12-.36,1.17,1.17,0,0,1-.39-.91,1.22,1.22,0,0,1,.53-1,1.8,1.8,0,0,1,.54-.24,5.45,5.45,0,0,1,.66-.11,6.78,6.78,0,0,0,1.33-.26c0-.1,0-.17,0-.19a.83.83,0,0,0-.21-.64,1.26,1.26,0,0,0-.85-.25,1.32,1.32,0,0,0-.78.18,1.13,1.13,0,0,0-.37.65l-.73-.1a1.81,1.81,0,0,1,.33-.76,1.43,1.43,0,0,1,.66-.44,2.93,2.93,0,0,1,1-.16,2.66,2.66,0,0,1,.92.13,1.2,1.2,0,0,1,.52.33,1.19,1.19,0,0,1,.23.51,4.29,4.29,0,0,1,0,.69v1a10.77,10.77,0,0,0,0,1.32,1.7,1.7,0,0,0,.19.53h-.78A1.58,1.58,0,0,1,137.45,112.82Zm-.06-1.67a5.48,5.48,0,0,1-1.22.28,2.79,2.79,0,0,0-.65.15.65.65,0,0,0-.29.24.66.66,0,0,0,.12.85,1,1,0,0,0,.66.2,1.54,1.54,0,0,0,.77-.19,1.16,1.16,0,0,0,.49-.52,1.81,1.81,0,0,0,.12-.75Z" transform="translate(0)"/><path d="M140.94,112.7l.11.66a2.8,2.8,0,0,1-.56.07,1.29,1.29,0,0,1-.63-.13.73.73,0,0,1-.32-.34,2.66,2.66,0,0,1-.09-.88v-2.54h-.55V109h.55v-1.09l.74-.45V109h.75v.58h-.75v2.58a1.34,1.34,0,0,0,0,.41.32.32,0,0,0,.13.15.51.51,0,0,0,.26.05Z" transform="translate(0)"/><path d="M144.68,111.95l.77.1a1.88,1.88,0,0,1-.68,1,2.29,2.29,0,0,1-2.79-.22,2.33,2.33,0,0,1-.57-1.67,2.44,2.44,0,0,1,.57-1.73,1.94,1.94,0,0,1,1.49-.61,1.89,1.89,0,0,1,1.44.6,2.39,2.39,0,0,1,.56,1.69s0,.11,0,.2h-3.29a1.7,1.7,0,0,0,.41,1.11,1.23,1.23,0,0,0,.92.38,1.14,1.14,0,0,0,.7-.21A1.44,1.44,0,0,0,144.68,111.95Zm-2.45-1.21h2.46a1.49,1.49,0,0,0-.28-.83,1.14,1.14,0,0,0-.93-.43,1.18,1.18,0,0,0-.87.34A1.36,1.36,0,0,0,142.23,110.74Z" transform="translate(0)"/><path d="M146.39,113.37V109h.67v.67a1.82,1.82,0,0,1,.48-.62.83.83,0,0,1,.48-.15,1.46,1.46,0,0,1,.77.24l-.26.69a1.07,1.07,0,0,0-.55-.16.71.71,0,0,0-.44.15.8.8,0,0,0-.28.41,2.94,2.94,0,0,0-.12.87v2.31Z" transform="translate(0)"/><path d="M149,113.37v-.85h.85v.85Z" transform="translate(0)"/><circle cx="107.09" cy="89.36" r="1.76"/></g></svg>