<svg xmlns="http://www.w3.org/2000/svg" viewBox="0 0 236.72 132.98"><title>warning_read_manual</title><g id="frame"><polyline points="86.89 28.65 235.79 28.65 235.79 0.07 86.89 0.07"/><path d="M113.08,23.3" style="fill:none;stroke:#000;stroke-width:2px"/><path d="M63.59,98.33l1.56-1.21a3.23,3.23,0,0,1,2.2-.76c3.36,0,6.91,2.93,6.24,8.06" style="fill:none;stroke:#fff"/><rect x="0.5" y="0.5" width="235.72" height="131.96" style="fill:none;stroke:#000"/><line x1="86.73" y1="0.79" x2="86.73" y2="132.35" style="fill:none;stroke:#000"/></g><g id="text"><path d="M90.76,38.85V33.13h2.78a4,4,0,0,1,1.28.15,1.37,1.37,0,0,1,.7.54,1.52,1.52,0,0,1,.26.86,1.37,1.37,0,0,1-.43,1,2.29,2.29,0,0,1-1.34.53,2.21,2.21,0,0,1,.5.29,4,4,0,0,1,.69.76l1.09,1.56h-1l-.83-1.19q-.36-.52-.6-.79a1.82,1.82,0,0,0-.42-.38,1.29,1.29,0,0,0-.38-.15,2.7,2.7,0,0,0-.46,0h-1v2.54Zm.83-3.2h1.79a2.93,2.93,0,0,0,.89-.11.94.94,0,0,0,.49-.34.87.87,0,0,0,.17-.51A.82.82,0,0,0,94.6,34a1.62,1.62,0,0,0-1-.26h-2Z"/><path d="M100.1,37.52l.8.09a1.77,1.77,0,0,1-.7,1,2.24,2.24,0,0,1-1.3.35,2.19,2.19,0,0,1-1.58-.56,2.08,2.08,0,0,1-.58-1.57,2.17,2.17,0,0,1,.59-1.62,2.1,2.1,0,0,1,1.53-.58,2,2,0,0,1,1.49.57,2.13,2.13,0,0,1,.58,1.59s0,.1,0,.19H97.52a1.51,1.51,0,0,0,.42,1,1.32,1.32,0,0,0,1,.36,1.26,1.26,0,0,0,.72-.2A1.35,1.35,0,0,0,100.1,37.52Zm-2.53-1.14h2.54a1.33,1.33,0,0,0-.29-.79,1.23,1.23,0,0,0-1-.41,1.29,1.29,0,0,0-.89.32A1.23,1.23,0,0,0,97.56,36.38Z"/><path d="M104.83,38.34a2.91,2.91,0,0,1-.82.47,2.59,2.59,0,0,1-.85.14,1.76,1.76,0,0,1-1.15-.33,1.1,1.1,0,0,1-.25-1.41,1.19,1.19,0,0,1,.4-.4,2,2,0,0,1,.55-.23,6.16,6.16,0,0,1,.69-.11,7.61,7.61,0,0,0,1.37-.24c0-.1,0-.16,0-.18a.74.74,0,0,0-.22-.61,1.37,1.37,0,0,0-.88-.24,1.46,1.46,0,0,0-.8.17,1,1,0,0,0-.38.62l-.75-.09a1.63,1.63,0,0,1,.34-.71,1.5,1.5,0,0,1,.68-.42,3.3,3.3,0,0,1,1-.15,3,3,0,0,1,.95.13,1.26,1.26,0,0,1,.54.31,1.07,1.07,0,0,1,.24.48,3.65,3.65,0,0,1,0,.65v.94a9,9,0,0,0,0,1.24,1.48,1.48,0,0,0,.19.5H105A1.39,1.39,0,0,1,104.83,38.34Zm-.06-1.57a6.11,6.11,0,0,1-1.26.27,3.19,3.19,0,0,0-.67.14.65.65,0,0,0-.3.23.56.56,0,0,0-.11.33.58.58,0,0,0,.23.47,1.07,1.07,0,0,0,.68.19,1.72,1.72,0,0,0,.79-.18,1.14,1.14,0,0,0,.51-.49,1.57,1.57,0,0,0,.12-.7Z"/><path d="M109.69,38.85v-.52a1.45,1.45,0,0,1-1.27.62,1.9,1.9,0,0,1-1-.27,1.85,1.85,0,0,1-.71-.76,2.44,2.44,0,0,1-.25-1.13,2.72,2.72,0,0,1,.23-1.13,1.67,1.67,0,0,1,.68-.78,2,2,0,0,1,1-.27,1.63,1.63,0,0,1,.73.16,1.5,1.5,0,0,1,.52.41V33.13h.77v5.73Zm-2.44-2.07a1.69,1.69,0,0,0,.37,1.19,1.15,1.15,0,0,0,.87.39,1.13,1.13,0,0,0,.86-.38,1.63,1.63,0,0,0,.35-1.15,1.83,1.83,0,0,0-.36-1.25,1.15,1.15,0,0,0-.89-.4,1.11,1.11,0,0,0-.86.38A1.77,1.77,0,0,0,107.25,36.78Z"/><path d="M117,38.34a2.91,2.91,0,0,1-.82.47,2.59,2.59,0,0,1-.85.14,1.76,1.76,0,0,1-1.15-.33,1.1,1.1,0,0,1-.25-1.41,1.19,1.19,0,0,1,.4-.4,2,2,0,0,1,.55-.23,6.16,6.16,0,0,1,.69-.11,7.61,7.61,0,0,0,1.37-.24c0-.1,0-.16,0-.18a.74.74,0,0,0-.22-.61,1.37,1.37,0,0,0-.88-.24,1.46,1.46,0,0,0-.8.17,1,1,0,0,0-.38.62l-.75-.09a1.63,1.63,0,0,1,.34-.71,1.5,1.5,0,0,1,.68-.42,3.3,3.3,0,0,1,1-.15,3,3,0,0,1,.95.13,1.26,1.26,0,0,1,.54.31,1.07,1.07,0,0,1,.24.48,3.65,3.65,0,0,1,0,.65v.94a9,9,0,0,0,0,1.24,1.48,1.48,0,0,0,.19.5h-.81A1.39,1.39,0,0,1,117,38.34ZM117,36.77a6.11,6.11,0,0,1-1.26.27,3.19,3.19,0,0,0-.67.14.65.65,0,0,0-.3.23.56.56,0,0,0-.11.33.58.58,0,0,0,.23.47,1.07,1.07,0,0,0,.68.19,1.72,1.72,0,0,0,.79-.18,1.14,1.14,0,0,0,.51-.49A1.57,1.57,0,0,0,117,37Z"/><path d="M118.93,38.85V34.7h.69v.59a1.68,1.68,0,0,1,1.45-.68,2.06,2.06,0,0,1,.76.13,1.19,1.19,0,0,1,.52.35,1.3,1.3,0,0,1,.24.52,3.7,3.7,0,0,1,0,.68v2.55h-.77V36.33a1.73,1.73,0,0,0-.09-.64.7.7,0,0,0-.32-.34,1.09,1.09,0,0,0-.54-.13,1.14,1.14,0,0,0-1.21,1.37v2.27Z"/><path d="M126.75,38.85v-.52a1.45,1.45,0,0,1-1.27.62,1.91,1.91,0,0,1-1-.27,1.85,1.85,0,0,1-.71-.76,2.44,2.44,0,0,1-.25-1.13,2.72,2.72,0,0,1,.23-1.13,1.67,1.67,0,0,1,.68-.78,2,2,0,0,1,1-.27,1.63,1.63,0,0,1,.73.16,1.51,1.51,0,0,1,.52.41V33.13h.77v5.73Zm-2.44-2.07a1.69,1.69,0,0,0,.37,1.19,1.15,1.15,0,0,0,.87.39,1.14,1.14,0,0,0,.86-.38,1.63,1.63,0,0,0,.35-1.15,1.83,1.83,0,0,0-.36-1.25,1.15,1.15,0,0,0-.89-.4,1.11,1.11,0,0,0-.86.38A1.77,1.77,0,0,0,124.32,36.78Z"/><path d="M134.1,38.85v-.61a1.71,1.71,0,0,1-1.44.7,2,2,0,0,1-.75-.14,1.24,1.24,0,0,1-.52-.35,1.27,1.27,0,0,1-.24-.52,3.27,3.27,0,0,1,0-.66V34.7h.77V37a3.77,3.77,0,0,0,0,.74.73.73,0,0,0,.31.44,1,1,0,0,0,.58.16,1.36,1.36,0,0,0,.65-.16.93.93,0,0,0,.43-.44,2,2,0,0,0,.13-.81V34.7h.77v4.15Z"/><path d="M136,38.85V34.7h.69v.59a1.68,1.68,0,0,1,1.45-.68,2.06,2.06,0,0,1,.76.13,1.19,1.19,0,0,1,.52.35,1.3,1.3,0,0,1,.24.52,3.7,3.7,0,0,1,0,.68v2.55h-.77V36.33a1.73,1.73,0,0,0-.09-.64.7.7,0,0,0-.32-.34,1.09,1.09,0,0,0-.54-.13,1.14,1.14,0,0,0-1.21,1.37v2.27Z"/><path d="M143.82,38.85v-.52a1.45,1.45,0,0,1-1.27.62,1.91,1.91,0,0,1-1-.27,1.85,1.85,0,0,1-.71-.76,2.44,2.44,0,0,1-.25-1.13,2.72,2.72,0,0,1,.23-1.13,1.67,1.67,0,0,1,.68-.78,2,2,0,0,1,1-.27,1.63,1.63,0,0,1,.73.16,1.51,1.51,0,0,1,.52.41V33.13h.77v5.73Zm-2.44-2.07a1.69,1.69,0,0,0,.37,1.19,1.15,1.15,0,0,0,.87.39,1.14,1.14,0,0,0,.86-.38,1.63,1.63,0,0,0,.35-1.15,1.83,1.83,0,0,0-.36-1.25,1.15,1.15,0,0,0-.89-.4,1.11,1.11,0,0,0-.86.38A1.77,1.77,0,0,0,141.38,36.78Z"/><path d="M148.86,37.52l.8.09a1.76,1.76,0,0,1-.7,1,2.24,2.24,0,0,1-1.3.35,2.19,2.19,0,0,1-1.58-.56,2.08,2.08,0,0,1-.58-1.57,2.17,2.17,0,0,1,.59-1.62,2.09,2.09,0,0,1,1.53-.58,2,2,0,0,1,1.49.57,2.13,2.13,0,0,1,.58,1.59s0,.1,0,.19h-3.39a1.52,1.52,0,0,0,.42,1,1.32,1.32,0,0,0,1,.36,1.26,1.26,0,0,0,.72-.2A1.36,1.36,0,0,0,148.86,37.52Zm-2.53-1.14h2.54a1.34,1.34,0,0,0-.29-.79,1.23,1.23,0,0,0-1-.41,1.29,1.29,0,0,0-.89.32A1.22,1.22,0,0,0,146.33,36.38Z"/><path d="M150.61,38.85V34.7h.69v.63a1.77,1.77,0,0,1,.49-.58.92.92,0,0,1,.5-.14,1.61,1.61,0,0,1,.79.23l-.27.65a1.18,1.18,0,0,0-.56-.15.78.78,0,0,0-.46.14.76.76,0,0,0-.29.38,2.51,2.51,0,0,0-.13.82v2.17Z"/><path d="M153.23,37.61l.76-.11a1,1,0,0,0,.36.64,1.33,1.33,0,0,0,.82.22,1.29,1.29,0,0,0,.79-.2.57.57,0,0,0,.26-.46.42.42,0,0,0-.23-.37,3.56,3.56,0,0,0-.79-.24,7.74,7.74,0,0,1-1.18-.34,1.12,1.12,0,0,1-.5-.39,1,1,0,0,1-.17-.56,1,1,0,0,1,.14-.51,1.19,1.19,0,0,1,.38-.39,1.66,1.66,0,0,1,.49-.21,2.55,2.55,0,0,1,.67-.08,2.87,2.87,0,0,1,.94.14,1.28,1.28,0,0,1,.6.38,1.42,1.42,0,0,1,.27.64l-.75.09a.74.74,0,0,0-.3-.5,1.16,1.16,0,0,0-.7-.18,1.36,1.36,0,0,0-.76.16.46.46,0,0,0-.23.38.37.37,0,0,0,.09.25.69.69,0,0,0,.29.19l.68.18a10,10,0,0,1,1.14.33,1.15,1.15,0,0,1,.51.37,1,1,0,0,1,.18.6,1.11,1.11,0,0,1-.22.66,1.44,1.44,0,0,1-.65.48,2.56,2.56,0,0,1-1,.17,2.29,2.29,0,0,1-1.35-.34A1.54,1.54,0,0,1,153.23,37.61Z"/><path d="M159.61,38.22l.11.62a3.1,3.1,0,0,1-.58.06,1.42,1.42,0,0,1-.65-.12.71.71,0,0,1-.32-.32,2.29,2.29,0,0,1-.09-.83V35.25h-.57V34.7h.57v-1l.77-.42V34.7h.78v.55h-.78v2.43a1.12,1.12,0,0,0,0,.39.3.3,0,0,0,.13.14.54.54,0,0,0,.26.05Z"/><path d="M163.33,38.34a2.91,2.91,0,0,1-.82.47,2.6,2.6,0,0,1-.85.14,1.76,1.76,0,0,1-1.15-.33,1.1,1.1,0,0,1-.25-1.41,1.19,1.19,0,0,1,.4-.4,1.94,1.94,0,0,1,.55-.23,6.16,6.16,0,0,1,.68-.11,7.61,7.61,0,0,0,1.38-.24c0-.1,0-.16,0-.18a.73.73,0,0,0-.22-.61,1.37,1.37,0,0,0-.88-.24,1.46,1.46,0,0,0-.8.17A1,1,0,0,0,161,36l-.75-.09a1.64,1.64,0,0,1,.34-.71,1.5,1.5,0,0,1,.68-.42,3.3,3.3,0,0,1,1-.15,3,3,0,0,1,.95.13,1.26,1.26,0,0,1,.54.31,1.06,1.06,0,0,1,.24.48,3.63,3.63,0,0,1,0,.65v.94a9,9,0,0,0,0,1.24,1.48,1.48,0,0,0,.2.5h-.8A1.38,1.38,0,0,1,163.33,38.34Zm-.06-1.57A6.1,6.1,0,0,1,162,37a3.2,3.2,0,0,0-.67.14.65.65,0,0,0-.3.23.56.56,0,0,0-.11.33.58.58,0,0,0,.23.47,1.07,1.07,0,0,0,.68.19,1.72,1.72,0,0,0,.79-.18,1.14,1.14,0,0,0,.51-.49,1.57,1.57,0,0,0,.12-.7Z"/><path d="M165.24,38.85V34.7h.69v.59a1.68,1.68,0,0,1,1.45-.68,2.06,2.06,0,0,1,.76.13,1.19,1.19,0,0,1,.52.35,1.29,1.29,0,0,1,.24.52,3.61,3.61,0,0,1,0,.68v2.55h-.77V36.33a1.77,1.77,0,0,0-.09-.64.7.7,0,0,0-.32-.34,1.08,1.08,0,0,0-.54-.13A1.14,1.14,0,0,0,166,36.59v2.27Z"/><path d="M173.07,38.85v-.52a1.46,1.46,0,0,1-1.27.62,1.9,1.9,0,0,1-1-.27,1.86,1.86,0,0,1-.71-.76,2.46,2.46,0,0,1-.25-1.13,2.74,2.74,0,0,1,.23-1.13,1.67,1.67,0,0,1,.68-.78,2,2,0,0,1,1-.27,1.63,1.63,0,0,1,.73.16,1.49,1.49,0,0,1,.52.41V33.13h.77v5.73Zm-2.44-2.07A1.69,1.69,0,0,0,171,38a1.15,1.15,0,0,0,.87.39,1.13,1.13,0,0,0,.86-.38,1.63,1.63,0,0,0,.35-1.15,1.83,1.83,0,0,0-.36-1.25,1.15,1.15,0,0,0-.89-.4,1.11,1.11,0,0,0-.86.38A1.76,1.76,0,0,0,170.63,36.78Z"/><path d="M179.11,38.22l.11.62a3.09,3.09,0,0,1-.58.06,1.42,1.42,0,0,1-.65-.12.71.71,0,0,1-.33-.32,2.32,2.32,0,0,1-.09-.83V35.25H177V34.7h.56v-1l.77-.42V34.7h.77v.55h-.77v2.43a1.13,1.13,0,0,0,0,.39.31.31,0,0,0,.13.14.55.55,0,0,0,.26.05Z"/><path d="M179.87,38.85V33.13h.77v2.05a1.8,1.8,0,0,1,1.36-.57,2,2,0,0,1,.88.18,1.12,1.12,0,0,1,.53.5,2.13,2.13,0,0,1,.16.93v2.63h-.77V36.22a1,1,0,0,0-.25-.77,1,1,0,0,0-.71-.24,1.34,1.34,0,0,0-.64.16,1,1,0,0,0-.43.44,1.87,1.87,0,0,0-.13.77v2.27Z"/><path d="M184.75,33.93v-.81h.77v.81Zm0,4.92V34.7h.77v4.15Z"/><path d="M186.38,37.61l.76-.11a1,1,0,0,0,.36.64,1.33,1.33,0,0,0,.82.22,1.29,1.29,0,0,0,.79-.2.57.57,0,0,0,.26-.46.42.42,0,0,0-.23-.37,3.58,3.58,0,0,0-.79-.24,7.71,7.71,0,0,1-1.18-.34,1.1,1.1,0,0,1-.5-.39,1,1,0,0,1-.17-.56,1,1,0,0,1,.14-.51,1.2,1.2,0,0,1,.38-.39,1.67,1.67,0,0,1,.49-.21,2.56,2.56,0,0,1,.67-.08,2.87,2.87,0,0,1,.94.14,1.28,1.28,0,0,1,.6.38,1.41,1.41,0,0,1,.27.64l-.75.09a.73.73,0,0,0-.3-.5,1.16,1.16,0,0,0-.7-.18,1.36,1.36,0,0,0-.76.16.45.45,0,0,0-.23.38.37.37,0,0,0,.09.25.68.68,0,0,0,.29.19l.68.18a10.07,10.07,0,0,1,1.14.33A1.15,1.15,0,0,1,190,37a1,1,0,0,1,.18.6,1.11,1.11,0,0,1-.22.66,1.44,1.44,0,0,1-.65.48,2.57,2.57,0,0,1-1,.17,2.29,2.29,0,0,1-1.35-.34A1.53,1.53,0,0,1,186.38,37.61Z"/><path d="M193.52,33.93v-.81h.77v.81Zm0,4.92V34.7h.77v4.15Z"/><path d="M195.46,38.85V34.7h.69v.59a1.68,1.68,0,0,1,1.45-.68,2.06,2.06,0,0,1,.76.13,1.2,1.2,0,0,1,.52.35,1.31,1.31,0,0,1,.24.52,3.7,3.7,0,0,1,0,.68v2.55h-.77V36.33a1.75,1.75,0,0,0-.09-.64.7.7,0,0,0-.32-.34,1.08,1.08,0,0,0-.54-.13,1.14,1.14,0,0,0-1.21,1.37v2.27Z"/><path d="M200,37.61l.76-.11a1,1,0,0,0,.36.64,1.33,1.33,0,0,0,.82.22,1.28,1.28,0,0,0,.79-.2.57.57,0,0,0,.26-.46.42.42,0,0,0-.23-.37,3.58,3.58,0,0,0-.79-.24,7.69,7.69,0,0,1-1.17-.34,1.12,1.12,0,0,1-.5-.39,1,1,0,0,1,0-1.07,1.17,1.17,0,0,1,.38-.39,1.64,1.64,0,0,1,.49-.21,2.55,2.55,0,0,1,.67-.08,2.86,2.86,0,0,1,.94.14,1.29,1.29,0,0,1,.6.38,1.42,1.42,0,0,1,.27.64l-.75.09a.74.74,0,0,0-.3-.5,1.16,1.16,0,0,0-.7-.18,1.36,1.36,0,0,0-.76.16.46.46,0,0,0-.23.38A.37.37,0,0,0,201,36a.7.7,0,0,0,.3.19l.68.18a10,10,0,0,1,1.14.33,1.15,1.15,0,0,1,.51.37,1,1,0,0,1,.18.6,1.11,1.11,0,0,1-.22.66,1.43,1.43,0,0,1-.65.48,2.56,2.56,0,0,1-1,.17,2.29,2.29,0,0,1-1.35-.34A1.53,1.53,0,0,1,200,37.61Z"/><path d="M206.4,38.22l.11.62a3.09,3.09,0,0,1-.58.06,1.42,1.42,0,0,1-.65-.12.71.71,0,0,1-.33-.32,2.32,2.32,0,0,1-.09-.83V35.25h-.57V34.7h.57v-1l.77-.42V34.7h.78v.55h-.78v2.43a1.12,1.12,0,0,0,0,.39.3.3,0,0,0,.13.14.55.55,0,0,0,.26.05Z"/><path d="M207.15,38.85V34.7h.69v.63a1.76,1.76,0,0,1,.49-.58.91.91,0,0,1,.5-.14,1.6,1.6,0,0,1,.79.23l-.27.65a1.18,1.18,0,0,0-.56-.15.78.78,0,0,0-.45.14.75.75,0,0,0-.29.38,2.51,2.51,0,0,0-.13.82v2.17Z"/><path d="M213.06,38.85v-.61a1.71,1.71,0,0,1-1.44.7,2,2,0,0,1-.75-.14,1.23,1.23,0,0,1-.52-.35,1.26,1.26,0,0,1-.24-.52,3.27,3.27,0,0,1,0-.66V34.7h.77V37a3.67,3.67,0,0,0,0,.74.73.73,0,0,0,.31.44,1,1,0,0,0,.58.16,1.36,1.36,0,0,0,.65-.16.93.93,0,0,0,.43-.44,2,2,0,0,0,.13-.81V34.7h.77v4.15Z"/><path d="M217.92,37.33l.76.09a1.75,1.75,0,0,1-.64,1.12,2,2,0,0,1-1.26.4,2,2,0,0,1-1.5-.56,2.14,2.14,0,0,1-.57-1.6,2.68,2.68,0,0,1,.24-1.18,1.61,1.61,0,0,1,.74-.76,2.37,2.37,0,0,1,1.08-.25A2,2,0,0,1,218,35a1.55,1.55,0,0,1,.6,1l-.75.11a1.11,1.11,0,0,0-.38-.63,1,1,0,0,0-.66-.21,1.25,1.25,0,0,0-.95.38,1.7,1.7,0,0,0-.36,1.21,1.75,1.75,0,0,0,.35,1.21,1.19,1.19,0,0,0,.92.38,1.14,1.14,0,0,0,.76-.25A1.22,1.22,0,0,0,217.92,37.33Z"/><path d="M221,38.22l.11.62a3.09,3.09,0,0,1-.58.06,1.42,1.42,0,0,1-.65-.12.71.71,0,0,1-.33-.32,2.32,2.32,0,0,1-.09-.83V35.25h-.57V34.7h.57v-1l.77-.42V34.7H221v.55h-.78v2.43a1.12,1.12,0,0,0,0,.39.3.3,0,0,0,.13.14.55.55,0,0,0,.26.05Z"/><path d="M221.78,33.93v-.81h.77v.81Zm0,4.92V34.7h.77v4.15Z"/><path d="M223.43,36.78a2,2,0,0,1,.7-1.71,2.24,2.24,0,0,1,1.43-.46,2.14,2.14,0,0,1,1.53.56,2,2,0,0,1,.59,1.55,2.55,2.55,0,0,1-.26,1.26,1.79,1.79,0,0,1-.77.71,2.4,2.4,0,0,1-1.1.25,2.15,2.15,0,0,1-1.54-.56A2.11,2.11,0,0,1,223.43,36.78Zm.79,0a1.66,1.66,0,0,0,.38,1.19,1.35,1.35,0,0,0,1.91,0,1.7,1.7,0,0,0,.38-1.21,1.62,1.62,0,0,0-.38-1.17,1.35,1.35,0,0,0-1.91,0A1.66,1.66,0,0,0,224.23,36.78Z"/><path d="M228.6,38.85V34.7h.69v.59a1.68,1.68,0,0,1,1.45-.68,2.06,2.06,0,0,1,.76.13,1.19,1.19,0,0,1,.52.35,1.3,1.3,0,0,1,.24.52,3.7,3.7,0,0,1,0,.68v2.55h-.77V36.33a1.73,1.73,0,0,0-.09-.64.7.7,0,0,0-.32-.34,1.09,1.09,0,0,0-.54-.13,1.14,1.14,0,0,0-1.21,1.37v2.27Z"/><path d="M90.65,48.85V44.7h.69v.58a1.57,1.57,0,0,1,.57-.49,1.72,1.72,0,0,1,.81-.19,1.61,1.61,0,0,1,.83.19,1,1,0,0,1,.46.54,1.67,1.67,0,0,1,1.4-.73,1.47,1.47,0,0,1,1,.34A1.38,1.38,0,0,1,96.81,46v2.85H96V46.24a1.77,1.77,0,0,0-.07-.61.6.6,0,0,0-.27-.3.92.92,0,0,0-.46-.11,1.13,1.13,0,0,0-.8.29,1.21,1.21,0,0,0-.32.93v2.41h-.77v-2.7a1.11,1.11,0,0,0-.19-.7.75.75,0,0,0-.62-.23,1.2,1.2,0,0,0-.6.16.91.91,0,0,0-.4.46,2.37,2.37,0,0,0-.12.87v2.15Z"/><path d="M100.92,48.34a2.91,2.91,0,0,1-.82.47,2.59,2.59,0,0,1-.85.14,1.76,1.76,0,0,1-1.15-.33,1.1,1.1,0,0,1-.25-1.41,1.19,1.19,0,0,1,.4-.4,2,2,0,0,1,.55-.23,6.16,6.16,0,0,1,.69-.11,7.61,7.61,0,0,0,1.37-.24c0-.1,0-.16,0-.18a.74.74,0,0,0-.22-.61,1.37,1.37,0,0,0-.88-.24,1.46,1.46,0,0,0-.8.17,1,1,0,0,0-.38.62l-.75-.09a1.63,1.63,0,0,1,.34-.71,1.5,1.5,0,0,1,.68-.42,3.3,3.3,0,0,1,1-.15,3,3,0,0,1,.95.13,1.26,1.26,0,0,1,.54.31,1.07,1.07,0,0,1,.24.48,3.65,3.65,0,0,1,0,.65v.94a9,9,0,0,0,0,1.24,1.48,1.48,0,0,0,.19.5h-.81A1.39,1.39,0,0,1,100.92,48.34Zm-.06-1.57A6.11,6.11,0,0,1,99.6,47a3.19,3.19,0,0,0-.67.14.65.65,0,0,0-.3.23.56.56,0,0,0-.11.33.58.58,0,0,0,.23.47,1.07,1.07,0,0,0,.68.19,1.72,1.72,0,0,0,.79-.18,1.14,1.14,0,0,0,.51-.49,1.57,1.57,0,0,0,.12-.7Z"/><path d="M102.83,48.85V44.7h.69v.59a1.68,1.68,0,0,1,1.45-.68,2.06,2.06,0,0,1,.76.13,1.19,1.19,0,0,1,.52.35,1.29,1.29,0,0,1,.24.52,3.65,3.65,0,0,1,0,.68v2.55h-.77V46.33a1.75,1.75,0,0,0-.09-.64.7.7,0,0,0-.32-.34,1.09,1.09,0,0,0-.54-.13,1.14,1.14,0,0,0-1.21,1.37v2.27Z"/><path d="M110.69,48.85v-.61a1.71,1.71,0,0,1-1.44.7,2,2,0,0,1-.75-.14,1.23,1.23,0,0,1-.52-.35,1.26,1.26,0,0,1-.24-.52,3.27,3.27,0,0,1,0-.66V44.7h.77V47a3.72,3.72,0,0,0,0,.74.73.73,0,0,0,.31.44,1,1,0,0,0,.58.16,1.36,1.36,0,0,0,.65-.16.93.93,0,0,0,.43-.44,2,2,0,0,0,.13-.81V44.7h.77v4.15Z"/><path d="M115.55,48.34a2.91,2.91,0,0,1-.82.47,2.59,2.59,0,0,1-.85.14,1.76,1.76,0,0,1-1.15-.33,1.1,1.1,0,0,1-.25-1.41,1.19,1.19,0,0,1,.4-.4,2,2,0,0,1,.55-.23,6.16,6.16,0,0,1,.69-.11,7.61,7.61,0,0,0,1.37-.24c0-.1,0-.16,0-.18a.74.74,0,0,0-.22-.61,1.37,1.37,0,0,0-.88-.24,1.46,1.46,0,0,0-.8.17,1,1,0,0,0-.38.62l-.75-.09a1.63,1.63,0,0,1,.34-.71,1.5,1.5,0,0,1,.68-.42,3.3,3.3,0,0,1,1-.15,3,3,0,0,1,.95.13A1.26,1.26,0,0,1,116,45a1.07,1.07,0,0,1,.24.48,3.65,3.65,0,0,1,0,.65v.94a9,9,0,0,0,0,1.24,1.48,1.48,0,0,0,.19.5h-.81A1.39,1.39,0,0,1,115.55,48.34Zm-.06-1.57a6.11,6.11,0,0,1-1.26.27,3.19,3.19,0,0,0-.67.14.65.65,0,0,0-.3.23.56.56,0,0,0-.11.33.58.58,0,0,0,.23.47,1.07,1.07,0,0,0,.68.19,1.72,1.72,0,0,0,.79-.18,1.14,1.14,0,0,0,.51-.49,1.57,1.57,0,0,0,.12-.7Z"/><path d="M117.44,48.85V43.13h.77v5.73Z"/><path d="M124.81,48.34a2.91,2.91,0,0,1-.82.47,2.59,2.59,0,0,1-.85.14,1.76,1.76,0,0,1-1.15-.33,1.1,1.1,0,0,1-.25-1.41,1.2,1.2,0,0,1,.4-.4,2,2,0,0,1,.55-.23,6.09,6.09,0,0,1,.68-.11,7.59,7.59,0,0,0,1.37-.24c0-.1,0-.16,0-.18a.74.74,0,0,0-.22-.61,1.37,1.37,0,0,0-.88-.24,1.46,1.46,0,0,0-.8.17,1,1,0,0,0-.38.62l-.75-.09a1.64,1.64,0,0,1,.34-.71,1.51,1.51,0,0,1,.68-.42,3.3,3.3,0,0,1,1-.15,3,3,0,0,1,.95.13,1.27,1.27,0,0,1,.54.31,1.08,1.08,0,0,1,.24.48,3.66,3.66,0,0,1,0,.65v.94a9,9,0,0,0,0,1.24,1.48,1.48,0,0,0,.19.5H125A1.4,1.4,0,0,1,124.81,48.34Zm-.06-1.57a6.11,6.11,0,0,1-1.26.27,3.2,3.2,0,0,0-.67.14.65.65,0,0,0-.3.23.56.56,0,0,0-.11.33.58.58,0,0,0,.23.47,1.07,1.07,0,0,0,.68.19,1.72,1.72,0,0,0,.79-.18,1.15,1.15,0,0,0,.51-.49,1.58,1.58,0,0,0,.12-.7Z"/><path d="M126.72,48.85V44.7h.69v.59a1.68,1.68,0,0,1,1.45-.68,2.06,2.06,0,0,1,.76.13,1.19,1.19,0,0,1,.52.35,1.3,1.3,0,0,1,.24.52,3.7,3.7,0,0,1,0,.68v2.55h-.77V46.33a1.73,1.73,0,0,0-.09-.64.7.7,0,0,0-.32-.34,1.09,1.09,0,0,0-.54-.13,1.14,1.14,0,0,0-1.21,1.37v2.27Z"/><path d="M134.55,48.85v-.52a1.45,1.45,0,0,1-1.27.62,1.91,1.91,0,0,1-1-.27,1.85,1.85,0,0,1-.71-.76,2.44,2.44,0,0,1-.25-1.13,2.72,2.72,0,0,1,.23-1.13,1.67,1.67,0,0,1,.68-.78,2,2,0,0,1,1-.27,1.63,1.63,0,0,1,.73.16,1.51,1.51,0,0,1,.52.41V43.13h.77v5.73Zm-2.44-2.07a1.69,1.69,0,0,0,.37,1.19,1.15,1.15,0,0,0,.87.39,1.14,1.14,0,0,0,.86-.38,1.63,1.63,0,0,0,.35-1.15,1.83,1.83,0,0,0-.36-1.25,1.15,1.15,0,0,0-.89-.4,1.11,1.11,0,0,0-.86.38A1.77,1.77,0,0,0,132.11,46.78Z"/><path d="M140.59,48.22l.11.62a3.1,3.1,0,0,1-.58.06,1.42,1.42,0,0,1-.65-.12.71.71,0,0,1-.33-.32,2.29,2.29,0,0,1-.09-.83V45.25h-.56V44.7h.56v-1l.77-.42V44.7h.77v.55h-.77v2.43a1.13,1.13,0,0,0,0,.39.3.3,0,0,0,.13.14.55.55,0,0,0,.26.05Z"/><path d="M141.35,48.85V43.13h.77v2.05a1.79,1.79,0,0,1,1.36-.57,2,2,0,0,1,.88.18,1.11,1.11,0,0,1,.53.5,2.13,2.13,0,0,1,.16.93v2.63h-.77V46.22a1,1,0,0,0-.25-.77,1,1,0,0,0-.71-.24,1.34,1.34,0,0,0-.64.16,1,1,0,0,0-.43.44,1.87,1.87,0,0,0-.13.77v2.27Z"/><path d="M149.34,47.52l.8.09a1.77,1.77,0,0,1-.7,1,2.24,2.24,0,0,1-1.3.35,2.19,2.19,0,0,1-1.58-.56,2.08,2.08,0,0,1-.58-1.57,2.17,2.17,0,0,1,.59-1.62,2.1,2.1,0,0,1,1.53-.58,2,2,0,0,1,1.49.57,2.13,2.13,0,0,1,.58,1.59s0,.1,0,.19h-3.39a1.51,1.51,0,0,0,.42,1,1.32,1.32,0,0,0,1,.36,1.26,1.26,0,0,0,.72-.2A1.35,1.35,0,0,0,149.34,47.52Zm-2.53-1.14h2.54a1.32,1.32,0,0,0-.29-.79,1.23,1.23,0,0,0-1-.41,1.29,1.29,0,0,0-.89.32A1.24,1.24,0,0,0,146.81,46.38Z"/><path d="M153.23,47.61l.76-.11a1,1,0,0,0,.36.64,1.33,1.33,0,0,0,.82.22,1.29,1.29,0,0,0,.79-.2.57.57,0,0,0,.26-.46.42.42,0,0,0-.23-.37,3.56,3.56,0,0,0-.79-.24,7.74,7.74,0,0,1-1.18-.34,1.12,1.12,0,0,1-.5-.39,1,1,0,0,1-.17-.56,1,1,0,0,1,.14-.51,1.19,1.19,0,0,1,.38-.39,1.66,1.66,0,0,1,.49-.21,2.55,2.55,0,0,1,.67-.08,2.87,2.87,0,0,1,.94.14,1.28,1.28,0,0,1,.6.38,1.42,1.42,0,0,1,.27.64l-.75.09a.74.74,0,0,0-.3-.5,1.16,1.16,0,0,0-.7-.18,1.36,1.36,0,0,0-.76.16.46.46,0,0,0-.23.38.37.37,0,0,0,.09.25.69.69,0,0,0,.29.19l.68.18a10,10,0,0,1,1.14.33,1.15,1.15,0,0,1,.51.37,1,1,0,0,1,.18.6,1.11,1.11,0,0,1-.22.66,1.44,1.44,0,0,1-.65.48,2.56,2.56,0,0,1-1,.17,2.29,2.29,0,0,1-1.35-.34A1.54,1.54,0,0,1,153.23,47.61Z"/><path d="M160.89,48.34a2.9,2.9,0,0,1-.82.47,2.59,2.59,0,0,1-.85.14,1.76,1.76,0,0,1-1.15-.33,1.1,1.1,0,0,1-.25-1.41,1.2,1.2,0,0,1,.4-.4,2,2,0,0,1,.55-.23,6.15,6.15,0,0,1,.69-.11,7.61,7.61,0,0,0,1.37-.24c0-.1,0-.16,0-.18a.74.74,0,0,0-.22-.61,1.38,1.38,0,0,0-.88-.24,1.46,1.46,0,0,0-.8.17,1.05,1.05,0,0,0-.38.62l-.75-.09a1.63,1.63,0,0,1,.34-.71,1.5,1.5,0,0,1,.68-.42,3.3,3.3,0,0,1,1-.15,3,3,0,0,1,.95.13,1.27,1.27,0,0,1,.54.31,1.08,1.08,0,0,1,.24.48,3.66,3.66,0,0,1,0,.65v.94a9,9,0,0,0,0,1.24,1.48,1.48,0,0,0,.19.5H161A1.4,1.4,0,0,1,160.89,48.34Zm-.06-1.57a6.12,6.12,0,0,1-1.26.27,3.18,3.18,0,0,0-.67.14.66.66,0,0,0-.3.23.57.57,0,0,0-.11.33.58.58,0,0,0,.23.47,1.07,1.07,0,0,0,.68.19,1.71,1.71,0,0,0,.79-.18,1.15,1.15,0,0,0,.51-.49,1.58,1.58,0,0,0,.12-.7Z"/><path d="M163,48.85v-3.6h-.68V44.7H163v-.44a1.76,1.76,0,0,1,.08-.62.92.92,0,0,1,.39-.44,1.52,1.52,0,0,1,.79-.17,4.12,4.12,0,0,1,.72.07l-.12.61a2.8,2.8,0,0,0-.45,0,.72.72,0,0,0-.5.14.7.7,0,0,0-.15.51v.38h.89v.55h-.89v3.6Z"/><path d="M168.35,47.52l.8.09a1.77,1.77,0,0,1-.7,1,2.24,2.24,0,0,1-1.3.35,2.19,2.19,0,0,1-1.58-.56,2.08,2.08,0,0,1-.58-1.57,2.17,2.17,0,0,1,.59-1.62,2.1,2.1,0,0,1,1.53-.58,2,2,0,0,1,1.49.57,2.13,2.13,0,0,1,.58,1.59s0,.1,0,.19h-3.39a1.51,1.51,0,0,0,.42,1,1.32,1.32,0,0,0,1,.36,1.26,1.26,0,0,0,.72-.2A1.35,1.35,0,0,0,168.35,47.52Zm-2.53-1.14h2.54a1.32,1.32,0,0,0-.29-.79,1.23,1.23,0,0,0-1-.41,1.29,1.29,0,0,0-.89.32A1.24,1.24,0,0,0,165.82,46.38Z"/><path d="M171.79,48.22l.11.62a3.1,3.1,0,0,1-.58.06,1.42,1.42,0,0,1-.65-.12.71.71,0,0,1-.32-.32,2.29,2.29,0,0,1-.09-.83V45.25h-.57V44.7h.57v-1l.77-.42V44.7h.78v.55H171v2.43a1.12,1.12,0,0,0,0,.39.3.3,0,0,0,.13.14.54.54,0,0,0,.26.05Z"/><path d="M172.51,50.45l-.09-.66a1.85,1.85,0,0,0,.44.06.91.91,0,0,0,.41-.08.68.68,0,0,0,.25-.22,3.3,3.3,0,0,0,.23-.52l.07-.17-1.72-4.16h.83l.95,2.4a9.81,9.81,0,0,1,.33,1,9.1,9.1,0,0,1,.32-.95l1-2.42h.77l-1.73,4.22a8,8,0,0,1-.43.94,1.45,1.45,0,0,1-.47.51,1.19,1.19,0,0,1-.63.16A1.66,1.66,0,0,1,172.51,50.45Z"/><path d="M179.37,48.85V44.7h.69v.58a1.57,1.57,0,0,1,.57-.49,1.72,1.72,0,0,1,.81-.19,1.61,1.61,0,0,1,.83.19,1,1,0,0,1,.46.54,1.67,1.67,0,0,1,1.4-.73,1.46,1.46,0,0,1,1,.34,1.38,1.38,0,0,1,.36,1.05v2.85h-.77V46.24a1.77,1.77,0,0,0-.08-.61.6.6,0,0,0-.27-.3.91.91,0,0,0-.46-.11,1.13,1.13,0,0,0-.8.29,1.21,1.21,0,0,0-.32.93v2.41h-.77v-2.7a1.1,1.1,0,0,0-.19-.7.75.75,0,0,0-.62-.23,1.2,1.2,0,0,0-.6.16.9.9,0,0,0-.4.46,2.35,2.35,0,0,0-.12.87v2.15Z"/><path d="M189.79,47.52l.8.09a1.77,1.77,0,0,1-.7,1,2.24,2.24,0,0,1-1.3.35,2.19,2.19,0,0,1-1.58-.56,2.08,2.08,0,0,1-.58-1.57,2.17,2.17,0,0,1,.59-1.62,2.1,2.1,0,0,1,1.53-.58,2,2,0,0,1,1.49.57,2.13,2.13,0,0,1,.58,1.59s0,.1,0,.19h-3.39a1.51,1.51,0,0,0,.42,1,1.32,1.32,0,0,0,.95.36,1.26,1.26,0,0,0,.72-.2A1.36,1.36,0,0,0,189.79,47.52Zm-2.53-1.14h2.54a1.33,1.33,0,0,0-.29-.79,1.23,1.23,0,0,0-1-.41,1.29,1.29,0,0,0-.89.32A1.23,1.23,0,0,0,187.25,46.38Z"/><path d="M191.24,47.61l.76-.11a1,1,0,0,0,.36.64,1.33,1.33,0,0,0,.82.22,1.29,1.29,0,0,0,.79-.2.57.57,0,0,0,.26-.46.42.42,0,0,0-.23-.37,3.58,3.58,0,0,0-.79-.24,7.71,7.71,0,0,1-1.18-.34,1.1,1.1,0,0,1-.5-.39,1,1,0,0,1-.17-.56,1,1,0,0,1,.14-.51,1.2,1.2,0,0,1,.38-.39,1.67,1.67,0,0,1,.49-.21,2.56,2.56,0,0,1,.67-.08,2.87,2.87,0,0,1,.94.14,1.28,1.28,0,0,1,.6.38,1.41,1.41,0,0,1,.27.64l-.75.09a.73.73,0,0,0-.3-.5,1.16,1.16,0,0,0-.7-.18,1.36,1.36,0,0,0-.76.16.45.45,0,0,0-.23.38.37.37,0,0,0,.09.25.68.68,0,0,0,.29.19l.68.18a10.07,10.07,0,0,1,1.14.33,1.15,1.15,0,0,1,.51.37,1,1,0,0,1,.18.6,1.11,1.11,0,0,1-.22.66,1.44,1.44,0,0,1-.65.48,2.57,2.57,0,0,1-1,.17,2.29,2.29,0,0,1-1.35-.34A1.53,1.53,0,0,1,191.24,47.61Z"/><path d="M195.63,47.61l.76-.11a1,1,0,0,0,.36.64,1.33,1.33,0,0,0,.82.22,1.29,1.29,0,0,0,.79-.2.57.57,0,0,0,.26-.46.42.42,0,0,0-.23-.37,3.58,3.58,0,0,0-.79-.24,7.71,7.71,0,0,1-1.18-.34,1.1,1.1,0,0,1-.5-.39,1,1,0,0,1-.17-.56,1,1,0,0,1,.14-.51,1.2,1.2,0,0,1,.38-.39,1.67,1.67,0,0,1,.49-.21,2.56,2.56,0,0,1,.67-.08,2.87,2.87,0,0,1,.94.14,1.28,1.28,0,0,1,.6.38,1.41,1.41,0,0,1,.27.64l-.75.09a.73.73,0,0,0-.3-.5,1.16,1.16,0,0,0-.7-.18,1.36,1.36,0,0,0-.76.16.45.45,0,0,0-.23.38.37.37,0,0,0,.09.25.68.68,0,0,0,.29.19l.68.18a10.07,10.07,0,0,1,1.14.33,1.15,1.15,0,0,1,.51.37,1,1,0,0,1,.18.6,1.11,1.11,0,0,1-.22.66,1.44,1.44,0,0,1-.65.48,2.57,2.57,0,0,1-1,.17,2.29,2.29,0,0,1-1.35-.34A1.53,1.53,0,0,1,195.63,47.61Z"/><path d="M203.29,48.34a2.91,2.91,0,0,1-.82.47,2.59,2.59,0,0,1-.85.14,1.76,1.76,0,0,1-1.15-.33,1.1,1.1,0,0,1-.25-1.41,1.2,1.2,0,0,1,.4-.4,2,2,0,0,1,.55-.23,6.09,6.09,0,0,1,.68-.11,7.59,7.59,0,0,0,1.37-.24c0-.1,0-.16,0-.18a.74.74,0,0,0-.22-.61,1.37,1.37,0,0,0-.88-.24,1.46,1.46,0,0,0-.8.17,1,1,0,0,0-.38.62l-.75-.09a1.64,1.64,0,0,1,.34-.71,1.51,1.51,0,0,1,.68-.42,3.3,3.3,0,0,1,1-.15,3,3,0,0,1,.95.13,1.27,1.27,0,0,1,.54.31,1.08,1.08,0,0,1,.24.48,3.66,3.66,0,0,1,0,.65v.94a9,9,0,0,0,0,1.24,1.48,1.48,0,0,0,.19.5h-.8A1.4,1.4,0,0,1,203.29,48.34Zm-.06-1.57A6.11,6.11,0,0,1,202,47a3.2,3.2,0,0,0-.67.14.65.65,0,0,0-.3.23.56.56,0,0,0-.11.33.58.58,0,0,0,.23.47,1.07,1.07,0,0,0,.68.19,1.72,1.72,0,0,0,.79-.18,1.15,1.15,0,0,0,.51-.49,1.58,1.58,0,0,0,.12-.7Z"/><path d="M205.05,49.2l.75.1a.63.63,0,0,0,.26.46,1.37,1.37,0,0,0,.78.2,1.48,1.48,0,0,0,.83-.2,1,1,0,0,0,.39-.55,4.19,4.19,0,0,0,.05-.9,1.64,1.64,0,0,1-1.26.54,1.78,1.78,0,0,1-1.45-.62,2.24,2.24,0,0,1-.51-1.48,2.55,2.55,0,0,1,.24-1.1,1.75,1.75,0,0,1,.68-.78,2,2,0,0,1,1.05-.27,1.69,1.69,0,0,1,1.33.59v-.5h.71v3.59a3.14,3.14,0,0,1-.22,1.37,1.51,1.51,0,0,1-.68.64,2.56,2.56,0,0,1-1.15.23,2.33,2.33,0,0,1-1.31-.33A1.09,1.09,0,0,1,205.05,49.2Zm.64-2.49A1.69,1.69,0,0,0,206,47.9a1.17,1.17,0,0,0,.89.38,1.19,1.19,0,0,0,.89-.37,1.63,1.63,0,0,0,.36-1.17,1.6,1.6,0,0,0-.37-1.15,1.19,1.19,0,0,0-.89-.39,1.16,1.16,0,0,0-.87.38A1.59,1.59,0,0,0,205.69,46.7Z"/><path d="M213.18,47.52l.8.09a1.76,1.76,0,0,1-.7,1,2.24,2.24,0,0,1-1.3.35,2.19,2.19,0,0,1-1.58-.56,2.08,2.08,0,0,1-.58-1.57,2.17,2.17,0,0,1,.59-1.62,2.09,2.09,0,0,1,1.53-.58,2,2,0,0,1,1.49.57,2.13,2.13,0,0,1,.58,1.59s0,.1,0,.19h-3.39a1.52,1.52,0,0,0,.42,1,1.32,1.32,0,0,0,1,.36,1.26,1.26,0,0,0,.72-.2A1.36,1.36,0,0,0,213.18,47.52Zm-2.53-1.14h2.54a1.34,1.34,0,0,0-.29-.79,1.23,1.23,0,0,0-1-.41,1.29,1.29,0,0,0-.89.32A1.22,1.22,0,0,0,210.65,46.38Z"/><path d="M214.64,47.61l.76-.11a1,1,0,0,0,.36.64,1.33,1.33,0,0,0,.82.22,1.29,1.29,0,0,0,.79-.2.57.57,0,0,0,.26-.46.42.42,0,0,0-.23-.37,3.56,3.56,0,0,0-.79-.24,7.74,7.74,0,0,1-1.18-.34,1.12,1.12,0,0,1-.5-.39,1,1,0,0,1-.17-.56,1,1,0,0,1,.14-.51,1.19,1.19,0,0,1,.38-.39,1.66,1.66,0,0,1,.49-.21,2.55,2.55,0,0,1,.67-.08,2.87,2.87,0,0,1,.94.14,1.28,1.28,0,0,1,.6.38,1.42,1.42,0,0,1,.27.64l-.75.09a.74.74,0,0,0-.3-.5,1.16,1.16,0,0,0-.7-.18,1.36,1.36,0,0,0-.76.16.46.46,0,0,0-.23.38.37.37,0,0,0,.09.25.69.69,0,0,0,.29.19l.68.18a10,10,0,0,1,1.14.33,1.15,1.15,0,0,1,.51.37,1,1,0,0,1,.18.6,1.11,1.11,0,0,1-.22.66,1.44,1.44,0,0,1-.65.48,2.56,2.56,0,0,1-1,.17,2.29,2.29,0,0,1-1.35-.34A1.54,1.54,0,0,1,214.64,47.61Z"/><path d="M90.65,58.85V53.13h.77v2.05a1.8,1.8,0,0,1,1.36-.57,2,2,0,0,1,.88.18,1.12,1.12,0,0,1,.53.5,2.14,2.14,0,0,1,.16.93v2.63h-.77V56.22a1,1,0,0,0-.25-.77,1,1,0,0,0-.71-.24,1.34,1.34,0,0,0-.64.16,1,1,0,0,0-.43.44,1.86,1.86,0,0,0-.13.77v2.27Z"/><path d="M98.64,57.52l.8.09a1.77,1.77,0,0,1-.7,1,2.24,2.24,0,0,1-1.3.35,2.19,2.19,0,0,1-1.58-.56,2.08,2.08,0,0,1-.58-1.57,2.17,2.17,0,0,1,.59-1.62,2.1,2.1,0,0,1,1.53-.58,2,2,0,0,1,1.49.57,2.13,2.13,0,0,1,.58,1.59s0,.1,0,.19H96.07a1.51,1.51,0,0,0,.42,1,1.32,1.32,0,0,0,1,.36,1.26,1.26,0,0,0,.72-.2A1.35,1.35,0,0,0,98.64,57.52Zm-2.53-1.14h2.54a1.33,1.33,0,0,0-.29-.79,1.23,1.23,0,0,0-1-.41,1.29,1.29,0,0,0-.89.32A1.23,1.23,0,0,0,96.11,56.38Z"/><path d="M100.4,58.85V54.7h.69v.63a1.75,1.75,0,0,1,.49-.58.91.91,0,0,1,.49-.14,1.61,1.61,0,0,1,.79.23l-.27.65a1.18,1.18,0,0,0-.56-.15.78.78,0,0,0-.45.14.75.75,0,0,0-.29.38,2.51,2.51,0,0,0-.13.82v2.17Z"/><path d="M106.44,57.52l.8.09a1.77,1.77,0,0,1-.7,1,2.24,2.24,0,0,1-1.3.35,2.19,2.19,0,0,1-1.58-.56,2.08,2.08,0,0,1-.58-1.57,2.17,2.17,0,0,1,.59-1.62,2.1,2.1,0,0,1,1.53-.58,2,2,0,0,1,1.49.57,2.13,2.13,0,0,1,.58,1.59s0,.1,0,.19h-3.39a1.51,1.51,0,0,0,.42,1,1.32,1.32,0,0,0,1,.36,1.26,1.26,0,0,0,.72-.2A1.35,1.35,0,0,0,106.44,57.52Zm-2.53-1.14h2.54a1.33,1.33,0,0,0-.29-.79,1.23,1.23,0,0,0-1-.41,1.29,1.29,0,0,0-.89.32A1.23,1.23,0,0,0,103.91,56.38Z"/><path d="M108.21,53.93v-.81H109v.81Zm0,4.92V54.7H109v4.15Z"/><path d="M110.15,58.85V54.7h.69v.59a1.68,1.68,0,0,1,1.45-.68,2.06,2.06,0,0,1,.76.13,1.19,1.19,0,0,1,.52.35,1.29,1.29,0,0,1,.24.52,3.65,3.65,0,0,1,0,.68v2.55h-.77V56.33a1.75,1.75,0,0,0-.09-.64.7.7,0,0,0-.32-.34,1.09,1.09,0,0,0-.54-.13,1.14,1.14,0,0,0-1.21,1.37v2.27Z"/><path d="M118.17,58.85h-.71V53.13h.77v2a1.58,1.58,0,0,1,1.25-.56,2.07,2.07,0,0,1,.79.15,1.61,1.61,0,0,1,.62.43,2.07,2.07,0,0,1,.38.67,2.56,2.56,0,0,1,.14.84,2.24,2.24,0,0,1-.58,1.65,1.89,1.89,0,0,1-1.39.58,1.49,1.49,0,0,1-1.26-.61Zm0-2.11a2,2,0,0,0,.22,1.08,1.13,1.13,0,0,0,1,.54,1.15,1.15,0,0,0,.87-.4,1.71,1.71,0,0,0,.37-1.19,1.74,1.74,0,0,0-.35-1.2,1.12,1.12,0,0,0-.85-.39,1.15,1.15,0,0,0-.87.4A1.65,1.65,0,0,0,118.16,56.75Z"/><path d="M125.45,57.52l.8.09a1.77,1.77,0,0,1-.7,1,2.24,2.24,0,0,1-1.3.35,2.19,2.19,0,0,1-1.58-.56,2.08,2.08,0,0,1-.58-1.57,2.17,2.17,0,0,1,.59-1.62,2.1,2.1,0,0,1,1.53-.58,2,2,0,0,1,1.49.57,2.13,2.13,0,0,1,.58,1.59s0,.1,0,.19h-3.39a1.51,1.51,0,0,0,.42,1,1.32,1.32,0,0,0,1,.36,1.26,1.26,0,0,0,.72-.2A1.35,1.35,0,0,0,125.45,57.52Zm-2.53-1.14h2.54a1.32,1.32,0,0,0-.29-.79,1.23,1.23,0,0,0-1-.41,1.29,1.29,0,0,0-.89.32A1.24,1.24,0,0,0,122.92,56.38Z"/><path d="M127.4,58.85v-3.6h-.68V54.7h.68v-.44a1.76,1.76,0,0,1,.08-.62.92.92,0,0,1,.39-.44,1.52,1.52,0,0,1,.79-.17,4.12,4.12,0,0,1,.72.07l-.12.61a2.8,2.8,0,0,0-.45,0,.72.72,0,0,0-.5.14.7.7,0,0,0-.15.51v.38h.89v.55h-.89v3.6Z"/><path d="M129.36,56.78a2,2,0,0,1,.7-1.71,2.24,2.24,0,0,1,1.43-.46,2.14,2.14,0,0,1,1.53.56,2,2,0,0,1,.59,1.55,2.55,2.55,0,0,1-.26,1.26,1.79,1.79,0,0,1-.77.71,2.4,2.4,0,0,1-1.1.25,2.15,2.15,0,0,1-1.54-.56A2.11,2.11,0,0,1,129.36,56.78Zm.79,0a1.66,1.66,0,0,0,.38,1.19,1.35,1.35,0,0,0,1.91,0,1.7,1.7,0,0,0,.38-1.21,1.62,1.62,0,0,0-.38-1.17,1.35,1.35,0,0,0-1.91,0A1.66,1.66,0,0,0,130.16,56.78Z"/><path d="M134.52,58.85V54.7h.69v.63a1.75,1.75,0,0,1,.49-.58.91.91,0,0,1,.49-.14,1.61,1.61,0,0,1,.79.23l-.27.65a1.19,1.19,0,0,0-.57-.15.78.78,0,0,0-.45.14.75.75,0,0,0-.29.38,2.51,2.51,0,0,0-.13.82v2.17Z"/><path d="M140.56,57.52l.8.09a1.77,1.77,0,0,1-.7,1,2.24,2.24,0,0,1-1.3.35,2.19,2.19,0,0,1-1.58-.56,2.08,2.08,0,0,1-.58-1.57,2.17,2.17,0,0,1,.59-1.62,2.1,2.1,0,0,1,1.53-.58,2,2,0,0,1,1.49.57,2.13,2.13,0,0,1,.58,1.59s0,.1,0,.19H138a1.51,1.51,0,0,0,.42,1,1.32,1.32,0,0,0,1,.36,1.26,1.26,0,0,0,.72-.2A1.35,1.35,0,0,0,140.56,57.52ZM138,56.38h2.54a1.32,1.32,0,0,0-.29-.79,1.23,1.23,0,0,0-1-.41,1.29,1.29,0,0,0-.89.32A1.24,1.24,0,0,0,138,56.38Z"/><path d="M144.77,53.93v-.81h.77v.81Zm0,4.92V54.7h.77v4.15Z"/><path d="M146.71,58.85V54.7h.69v.59a1.68,1.68,0,0,1,1.45-.68,2.06,2.06,0,0,1,.76.13,1.19,1.19,0,0,1,.52.35,1.3,1.3,0,0,1,.24.52,3.7,3.7,0,0,1,0,.68v2.55h-.77V56.33a1.73,1.73,0,0,0-.09-.64.7.7,0,0,0-.32-.34,1.09,1.09,0,0,0-.54-.13,1.14,1.14,0,0,0-1.21,1.37v2.27Z"/><path d="M151.28,57.61l.76-.11a1,1,0,0,0,.36.64,1.33,1.33,0,0,0,.82.22,1.28,1.28,0,0,0,.79-.2.57.57,0,0,0,.26-.46.42.42,0,0,0-.23-.37,3.58,3.58,0,0,0-.79-.24,7.69,7.69,0,0,1-1.17-.34,1.12,1.12,0,0,1-.5-.39,1,1,0,0,1,0-1.07,1.17,1.17,0,0,1,.38-.39,1.64,1.64,0,0,1,.49-.21,2.55,2.55,0,0,1,.67-.08,2.86,2.86,0,0,1,.94.14,1.29,1.29,0,0,1,.6.38,1.42,1.42,0,0,1,.27.64l-.75.09a.74.74,0,0,0-.3-.5,1.16,1.16,0,0,0-.7-.18,1.36,1.36,0,0,0-.76.16.46.46,0,0,0-.23.38.37.37,0,0,0,.09.25.7.7,0,0,0,.3.19l.68.18a10,10,0,0,1,1.14.33,1.15,1.15,0,0,1,.51.37,1,1,0,0,1,.18.6,1.11,1.11,0,0,1-.22.66,1.43,1.43,0,0,1-.65.48,2.56,2.56,0,0,1-1,.17,2.29,2.29,0,0,1-1.35-.34A1.53,1.53,0,0,1,151.28,57.61Z"/><path d="M157.65,58.22l.11.62a3.09,3.09,0,0,1-.58.06,1.42,1.42,0,0,1-.65-.12.71.71,0,0,1-.33-.32,2.32,2.32,0,0,1-.09-.83V55.25h-.57V54.7h.57v-1l.77-.42V54.7h.78v.55h-.78v2.43a1.12,1.12,0,0,0,0,.39.3.3,0,0,0,.13.14.55.55,0,0,0,.26.05Z"/><path d="M161.37,58.34a2.91,2.91,0,0,1-.82.47,2.6,2.6,0,0,1-.85.14,1.76,1.76,0,0,1-1.15-.33,1.1,1.1,0,0,1-.25-1.41,1.19,1.19,0,0,1,.4-.4,1.94,1.94,0,0,1,.55-.23,6.16,6.16,0,0,1,.68-.11,7.61,7.61,0,0,0,1.38-.24c0-.1,0-.16,0-.18a.73.73,0,0,0-.22-.61,1.37,1.37,0,0,0-.88-.24,1.46,1.46,0,0,0-.8.17A1,1,0,0,0,159,56l-.75-.09a1.64,1.64,0,0,1,.34-.71,1.5,1.5,0,0,1,.68-.42,3.3,3.3,0,0,1,1-.15,3,3,0,0,1,.95.13,1.26,1.26,0,0,1,.54.31,1.06,1.06,0,0,1,.24.48,3.63,3.63,0,0,1,0,.65v.94a9,9,0,0,0,0,1.24,1.48,1.48,0,0,0,.2.5h-.8A1.38,1.38,0,0,1,161.37,58.34Zm-.06-1.57A6.1,6.1,0,0,1,160,57a3.2,3.2,0,0,0-.67.14.65.65,0,0,0-.3.23.56.56,0,0,0-.11.33.58.58,0,0,0,.23.47,1.07,1.07,0,0,0,.68.19,1.72,1.72,0,0,0,.79-.18,1.14,1.14,0,0,0,.51-.49,1.57,1.57,0,0,0,.12-.7Z"/><path d="M163.27,58.85V53.13H164v5.73Z"/><path d="M165.21,58.85V53.13H166v5.73Z"/><path d="M167.18,53.93v-.81H168v.81Zm0,4.92V54.7H168v4.15Z"/><path d="M169.13,58.85V54.7h.69v.59a1.68,1.68,0,0,1,1.45-.68,2.06,2.06,0,0,1,.76.13,1.19,1.19,0,0,1,.52.35,1.3,1.3,0,0,1,.24.52,3.7,3.7,0,0,1,0,.68v2.55h-.77V56.33a1.73,1.73,0,0,0-.09-.64.7.7,0,0,0-.32-.34,1.09,1.09,0,0,0-.54-.13,1.14,1.14,0,0,0-1.21,1.37v2.27Z"/><path d="M173.86,59.2l.75.1a.64.64,0,0,0,.26.46,1.38,1.38,0,0,0,.78.2,1.48,1.48,0,0,0,.83-.2,1,1,0,0,0,.39-.55,4.16,4.16,0,0,0,.06-.9,1.65,1.65,0,0,1-1.26.54,1.78,1.78,0,0,1-1.45-.62,2.23,2.23,0,0,1-.51-1.48,2.56,2.56,0,0,1,.23-1.1,1.76,1.76,0,0,1,.68-.78,2,2,0,0,1,1.05-.27,1.69,1.69,0,0,1,1.33.59v-.5h.71v3.59a3.14,3.14,0,0,1-.22,1.37,1.52,1.52,0,0,1-.69.64,2.56,2.56,0,0,1-1.15.23,2.33,2.33,0,0,1-1.31-.33A1.09,1.09,0,0,1,173.86,59.2Zm.64-2.49a1.69,1.69,0,0,0,.36,1.19,1.25,1.25,0,0,0,1.78,0,1.63,1.63,0,0,0,.36-1.17,1.6,1.6,0,0,0-.37-1.15,1.19,1.19,0,0,0-.89-.39,1.16,1.16,0,0,0-.87.38A1.59,1.59,0,0,0,174.5,56.7Z"/><path d="M179.08,58.85v-.8H180v.8a1.32,1.32,0,0,1-.17.71,1.1,1.1,0,0,1-.54.42l-.21-.3a.72.72,0,0,0,.36-.29,1.12,1.12,0,0,0,.13-.54Z"/><path d="M183.47,56.78a2,2,0,0,1,.7-1.71,2.24,2.24,0,0,1,1.43-.46,2.14,2.14,0,0,1,1.53.56,2,2,0,0,1,.6,1.55,2.53,2.53,0,0,1-.26,1.26,1.79,1.79,0,0,1-.77.71,2.4,2.4,0,0,1-1.1.25,2.15,2.15,0,0,1-1.54-.56A2.11,2.11,0,0,1,183.47,56.78Zm.79,0a1.66,1.66,0,0,0,.38,1.19,1.35,1.35,0,0,0,1.91,0,1.7,1.7,0,0,0,.38-1.21,1.61,1.61,0,0,0-.38-1.17,1.35,1.35,0,0,0-1.91,0A1.66,1.66,0,0,0,184.26,56.78Z"/><path d="M188.63,60.44V54.7h.7v.54a1.53,1.53,0,0,1,1.32-.63,1.92,1.92,0,0,1,1,.27,1.71,1.71,0,0,1,.67.77,2.6,2.6,0,0,1,.23,1.09,2.56,2.56,0,0,1-.25,1.15,1.77,1.77,0,0,1-.73.78,2,2,0,0,1-1,.27,1.58,1.58,0,0,1-.69-.15,1.55,1.55,0,0,1-.5-.37v2Zm.7-3.64a1.69,1.69,0,0,0,.36,1.18,1.13,1.13,0,0,0,.86.38,1.15,1.15,0,0,0,.88-.4,1.76,1.76,0,0,0,.37-1.23,1.72,1.72,0,0,0-.36-1.19,1.12,1.12,0,0,0-.85-.39,1.14,1.14,0,0,0-.87.42A1.76,1.76,0,0,0,189.33,56.8Z"/><path d="M196.62,57.52l.8.09a1.77,1.77,0,0,1-.7,1,2.24,2.24,0,0,1-1.3.35,2.19,2.19,0,0,1-1.58-.56,2.08,2.08,0,0,1-.58-1.57,2.17,2.17,0,0,1,.59-1.62,2.1,2.1,0,0,1,1.53-.58,2,2,0,0,1,1.49.57,2.13,2.13,0,0,1,.58,1.59s0,.1,0,.19H194a1.51,1.51,0,0,0,.42,1,1.32,1.32,0,0,0,1,.36,1.26,1.26,0,0,0,.72-.2A1.35,1.35,0,0,0,196.62,57.52Zm-2.53-1.14h2.54a1.32,1.32,0,0,0-.29-.79,1.23,1.23,0,0,0-1-.41,1.29,1.29,0,0,0-.89.32A1.24,1.24,0,0,0,194.09,56.38Z"/><path d="M198.37,58.85V54.7h.69v.63a1.73,1.73,0,0,1,.49-.58.91.91,0,0,1,.49-.14,1.6,1.6,0,0,1,.79.23l-.27.65a1.18,1.18,0,0,0-.57-.15.78.78,0,0,0-.45.14.75.75,0,0,0-.29.38,2.51,2.51,0,0,0-.13.82v2.17Z"/><path d="M204.27,58.34a2.91,2.91,0,0,1-.82.47,2.59,2.59,0,0,1-.85.14,1.76,1.76,0,0,1-1.15-.33,1.1,1.1,0,0,1-.25-1.41,1.2,1.2,0,0,1,.4-.4,2,2,0,0,1,.55-.23,6.09,6.09,0,0,1,.68-.11,7.59,7.59,0,0,0,1.37-.24c0-.1,0-.16,0-.18a.74.74,0,0,0-.22-.61,1.37,1.37,0,0,0-.88-.24,1.46,1.46,0,0,0-.8.17,1,1,0,0,0-.38.62l-.75-.09a1.64,1.64,0,0,1,.34-.71,1.51,1.51,0,0,1,.68-.42,3.3,3.3,0,0,1,1-.15,3,3,0,0,1,.95.13,1.27,1.27,0,0,1,.54.31,1.08,1.08,0,0,1,.24.48,3.66,3.66,0,0,1,0,.65v.94a9,9,0,0,0,0,1.24,1.48,1.48,0,0,0,.19.5h-.8A1.4,1.4,0,0,1,204.27,58.34Zm-.06-1.57a6.11,6.11,0,0,1-1.26.27,3.2,3.2,0,0,0-.67.14.65.65,0,0,0-.3.23.56.56,0,0,0-.11.33.58.58,0,0,0,.23.47,1.07,1.07,0,0,0,.68.19,1.72,1.72,0,0,0,.79-.18,1.15,1.15,0,0,0,.51-.49,1.58,1.58,0,0,0,.12-.7Z"/><path d="M207.86,58.22l.11.62a3.1,3.1,0,0,1-.58.06,1.42,1.42,0,0,1-.65-.12.71.71,0,0,1-.33-.32,2.29,2.29,0,0,1-.09-.83V55.25h-.56V54.7h.56v-1l.77-.42V54.7h.77v.55h-.77v2.43a1.13,1.13,0,0,0,0,.39.3.3,0,0,0,.13.14.55.55,0,0,0,.26.05Z"/><path d="M208.62,53.93v-.81h.77v.81Zm0,4.92V54.7h.77v4.15Z"/><path d="M210.56,58.85V54.7h.69v.59a1.68,1.68,0,0,1,1.45-.68,2.06,2.06,0,0,1,.76.13,1.2,1.2,0,0,1,.52.35,1.31,1.31,0,0,1,.24.52,3.7,3.7,0,0,1,0,.68v2.55h-.77V56.33a1.75,1.75,0,0,0-.09-.64.7.7,0,0,0-.32-.34,1.08,1.08,0,0,0-.54-.13,1.14,1.14,0,0,0-1.21,1.37v2.27Z"/><path d="M215.3,59.2l.75.1a.63.63,0,0,0,.26.46,1.37,1.37,0,0,0,.78.2,1.49,1.49,0,0,0,.83-.2,1,1,0,0,0,.39-.55,4.16,4.16,0,0,0,.06-.9,1.65,1.65,0,0,1-1.26.54,1.78,1.78,0,0,1-1.45-.62,2.24,2.24,0,0,1-.51-1.48,2.53,2.53,0,0,1,.24-1.1,1.76,1.76,0,0,1,.68-.78,2,2,0,0,1,1.05-.27,1.69,1.69,0,0,1,1.33.59v-.5h.71v3.59a3.13,3.13,0,0,1-.22,1.37,1.51,1.51,0,0,1-.68.64,2.56,2.56,0,0,1-1.15.23,2.33,2.33,0,0,1-1.31-.33A1.09,1.09,0,0,1,215.3,59.2Zm.64-2.49a1.68,1.68,0,0,0,.36,1.19,1.25,1.25,0,0,0,1.78,0,1.63,1.63,0,0,0,.36-1.17,1.6,1.6,0,0,0-.37-1.15,1.19,1.19,0,0,0-.89-.39,1.16,1.16,0,0,0-.87.38A1.59,1.59,0,0,0,215.94,56.7Z"/><path d="M222.47,56.78a2,2,0,0,1,.7-1.71,2.24,2.24,0,0,1,1.43-.46,2.14,2.14,0,0,1,1.53.56,2,2,0,0,1,.6,1.55,2.53,2.53,0,0,1-.26,1.26,1.79,1.79,0,0,1-.77.71,2.41,2.41,0,0,1-1.1.25,2.15,2.15,0,0,1-1.54-.56A2.11,2.11,0,0,1,222.47,56.78Zm.79,0a1.66,1.66,0,0,0,.38,1.19,1.35,1.35,0,0,0,1.91,0,1.7,1.7,0,0,0,.38-1.21,1.61,1.61,0,0,0-.38-1.17,1.35,1.35,0,0,0-1.91,0A1.66,1.66,0,0,0,223.26,56.78Z"/><path d="M227.62,58.85V54.7h.69v.63a1.76,1.76,0,0,1,.49-.58.91.91,0,0,1,.5-.14,1.6,1.6,0,0,1,.79.23l-.27.65a1.18,1.18,0,0,0-.56-.15.78.78,0,0,0-.45.14.75.75,0,0,0-.29.38,2.51,2.51,0,0,0-.13.82v2.17Z"/><path d="M90.34,67.61l.76-.11a1,1,0,0,0,.36.64,1.33,1.33,0,0,0,.82.22,1.29,1.29,0,0,0,.79-.2.57.57,0,0,0,.26-.46.42.42,0,0,0-.23-.37,3.58,3.58,0,0,0-.79-.24,7.7,7.7,0,0,1-1.18-.34,1.11,1.11,0,0,1-.5-.39,1,1,0,0,1-.17-.56,1,1,0,0,1,.14-.51A1.19,1.19,0,0,1,91,64.9a1.65,1.65,0,0,1,.49-.21,2.56,2.56,0,0,1,.67-.08,2.86,2.86,0,0,1,.94.14,1.28,1.28,0,0,1,.6.38,1.42,1.42,0,0,1,.27.64l-.75.09a.74.74,0,0,0-.3-.5,1.16,1.16,0,0,0-.7-.18,1.36,1.36,0,0,0-.76.16.46.46,0,0,0-.23.38.37.37,0,0,0,.09.25.69.69,0,0,0,.3.19l.68.18a10.05,10.05,0,0,1,1.14.33,1.15,1.15,0,0,1,.51.37,1,1,0,0,1,.18.6,1.11,1.11,0,0,1-.22.66,1.43,1.43,0,0,1-.65.48,2.56,2.56,0,0,1-1,.17,2.29,2.29,0,0,1-1.35-.34A1.53,1.53,0,0,1,90.34,67.61Z"/><path d="M98.15,67.52l.8.09a1.77,1.77,0,0,1-.7,1,2.24,2.24,0,0,1-1.3.35,2.19,2.19,0,0,1-1.58-.56,2.08,2.08,0,0,1-.58-1.57,2.17,2.17,0,0,1,.59-1.62,2.1,2.1,0,0,1,1.53-.58,2,2,0,0,1,1.49.57A2.13,2.13,0,0,1,99,66.77s0,.1,0,.19H95.57A1.51,1.51,0,0,0,96,68a1.32,1.32,0,0,0,1,.36,1.26,1.26,0,0,0,.72-.2A1.35,1.35,0,0,0,98.15,67.52Zm-2.53-1.14h2.54a1.33,1.33,0,0,0-.29-.79,1.23,1.23,0,0,0-1-.41,1.29,1.29,0,0,0-.89.32A1.23,1.23,0,0,0,95.62,66.38Z"/><path d="M99.9,68.85V64.7h.69v.63a1.75,1.75,0,0,1,.49-.58.91.91,0,0,1,.49-.14,1.61,1.61,0,0,1,.79.23l-.27.65a1.18,1.18,0,0,0-.56-.15.78.78,0,0,0-.45.14.75.75,0,0,0-.29.38,2.51,2.51,0,0,0-.13.82v2.17Z"/><path d="M104.09,68.85l-1.73-4.15h.81l1,2.48q.16.4.29.84.1-.33.29-.79l1-2.53h.79l-1.72,4.15Z"/><path d="M107.22,63.93v-.81H108v.81Zm0,4.92V64.7H108v4.15Z"/><path d="M112.13,67.33l.76.09a1.75,1.75,0,0,1-.64,1.12,2,2,0,0,1-1.26.4,2.05,2.05,0,0,1-1.5-.56,2.14,2.14,0,0,1-.57-1.6,2.67,2.67,0,0,1,.24-1.18,1.61,1.61,0,0,1,.74-.76,2.37,2.37,0,0,1,1.09-.25,2,2,0,0,1,1.21.34,1.54,1.54,0,0,1,.6,1l-.75.11a1.11,1.11,0,0,0-.38-.63,1,1,0,0,0-.66-.21,1.25,1.25,0,0,0-.95.38,1.7,1.7,0,0,0-.36,1.21,1.75,1.75,0,0,0,.35,1.21,1.19,1.19,0,0,0,.92.38,1.14,1.14,0,0,0,.76-.25A1.21,1.21,0,0,0,112.13,67.33Z"/><path d="M113.55,63.93v-.81h.77v.81Zm0,4.92V64.7h.77v4.15Z"/><path d="M115.5,68.85V64.7h.69v.59a1.68,1.68,0,0,1,1.45-.68,2.06,2.06,0,0,1,.76.13,1.19,1.19,0,0,1,.52.35,1.3,1.3,0,0,1,.24.52,3.7,3.7,0,0,1,0,.68v2.55h-.77V66.33a1.75,1.75,0,0,0-.09-.64.7.7,0,0,0-.32-.34,1.09,1.09,0,0,0-.54-.13,1.14,1.14,0,0,0-1.21,1.37v2.27Z"/><path d="M120.23,69.2l.75.1a.64.64,0,0,0,.26.46,1.38,1.38,0,0,0,.78.2,1.48,1.48,0,0,0,.83-.2,1,1,0,0,0,.39-.55,4.16,4.16,0,0,0,.06-.9,1.65,1.65,0,0,1-1.26.54,1.78,1.78,0,0,1-1.45-.62,2.23,2.23,0,0,1-.51-1.48,2.56,2.56,0,0,1,.23-1.1,1.76,1.76,0,0,1,.68-.78,2,2,0,0,1,1.05-.27,1.69,1.69,0,0,1,1.33.59v-.5h.71v3.59a3.14,3.14,0,0,1-.22,1.37,1.52,1.52,0,0,1-.69.64,2.56,2.56,0,0,1-1.15.23,2.33,2.33,0,0,1-1.31-.33A1.09,1.09,0,0,1,120.23,69.2Zm.64-2.49a1.69,1.69,0,0,0,.36,1.19,1.25,1.25,0,0,0,1.78,0,1.63,1.63,0,0,0,.36-1.17,1.6,1.6,0,0,0-.37-1.15,1.19,1.19,0,0,0-.89-.39,1.16,1.16,0,0,0-.87.38A1.59,1.59,0,0,0,120.87,66.7Z"/><path d="M129.37,68.22l.11.62a3.1,3.1,0,0,1-.58.06,1.42,1.42,0,0,1-.65-.12.71.71,0,0,1-.32-.32,2.29,2.29,0,0,1-.09-.83V65.25h-.57V64.7h.57v-1l.77-.42V64.7h.78v.55h-.78v2.43a1.12,1.12,0,0,0,0,.39.3.3,0,0,0,.13.14.54.54,0,0,0,.26.05Z"/><path d="M130.12,68.85V63.13h.77v2.05a1.79,1.79,0,0,1,1.36-.57,2,2,0,0,1,.88.18,1.11,1.11,0,0,1,.53.5,2.14,2.14,0,0,1,.16.93v2.63h-.77V66.22a1,1,0,0,0-.25-.77,1,1,0,0,0-.71-.24,1.34,1.34,0,0,0-.64.16,1,1,0,0,0-.43.44,1.85,1.85,0,0,0-.13.77v2.27Z"/><path d="M135,63.93v-.81h.77v.81Zm0,4.92V64.7h.77v4.15Z"/><path d="M136.64,67.61l.76-.11a1,1,0,0,0,.36.64,1.33,1.33,0,0,0,.82.22,1.28,1.28,0,0,0,.79-.2.57.57,0,0,0,.26-.46.42.42,0,0,0-.23-.37,3.58,3.58,0,0,0-.79-.24,7.69,7.69,0,0,1-1.17-.34,1.12,1.12,0,0,1-.5-.39,1,1,0,0,1,0-1.07,1.17,1.17,0,0,1,.38-.39,1.64,1.64,0,0,1,.49-.21,2.55,2.55,0,0,1,.67-.08,2.86,2.86,0,0,1,.94.14,1.29,1.29,0,0,1,.6.38,1.42,1.42,0,0,1,.27.64l-.75.09a.74.74,0,0,0-.3-.5,1.16,1.16,0,0,0-.7-.18,1.36,1.36,0,0,0-.76.16.46.46,0,0,0-.23.38.37.37,0,0,0,.09.25.7.7,0,0,0,.3.19l.68.18a10,10,0,0,1,1.14.33,1.15,1.15,0,0,1,.51.37,1,1,0,0,1,.18.6,1.11,1.11,0,0,1-.22.66,1.43,1.43,0,0,1-.65.48,2.56,2.56,0,0,1-1,.17,2.29,2.29,0,0,1-1.35-.34A1.53,1.53,0,0,1,136.64,67.61Z"/><path d="M144.61,68.85l-1.39-4.15h.8l.72,2.39L145,68l.24-.86L146,64.7h.79l.68,2.41.23.79.26-.8.78-2.4h.75L148,68.85h-.8l-.72-2.48-.18-.71-.92,3.19Z"/><path d="M153.07,68.34a2.91,2.91,0,0,1-.82.47,2.59,2.59,0,0,1-.85.14,1.76,1.76,0,0,1-1.15-.33A1.1,1.1,0,0,1,150,67.2a1.2,1.2,0,0,1,.4-.4,2,2,0,0,1,.55-.23,6.09,6.09,0,0,1,.68-.11,7.59,7.59,0,0,0,1.37-.24c0-.1,0-.16,0-.18a.74.74,0,0,0-.22-.61,1.37,1.37,0,0,0-.88-.24,1.46,1.46,0,0,0-.8.17,1,1,0,0,0-.38.62l-.75-.09a1.64,1.64,0,0,1,.34-.71,1.51,1.51,0,0,1,.68-.42,3.3,3.3,0,0,1,1-.15,3,3,0,0,1,.95.13,1.27,1.27,0,0,1,.54.31,1.08,1.08,0,0,1,.24.48,3.66,3.66,0,0,1,0,.65v.94a9,9,0,0,0,0,1.24,1.48,1.48,0,0,0,.19.5h-.8A1.4,1.4,0,0,1,153.07,68.34ZM153,66.77a6.11,6.11,0,0,1-1.26.27,3.2,3.2,0,0,0-.67.14.65.65,0,0,0-.3.23.56.56,0,0,0-.11.33.58.58,0,0,0,.23.47,1.07,1.07,0,0,0,.68.19,1.72,1.72,0,0,0,.79-.18,1.15,1.15,0,0,0,.51-.49A1.58,1.58,0,0,0,153,67Z"/><path d="M156.66,68.22l.11.62a3.1,3.1,0,0,1-.58.06,1.42,1.42,0,0,1-.65-.12.71.71,0,0,1-.33-.32,2.29,2.29,0,0,1-.09-.83V65.25h-.56V64.7h.56v-1l.77-.42V64.7h.77v.55h-.77v2.43a1.13,1.13,0,0,0,0,.39.3.3,0,0,0,.13.14.55.55,0,0,0,.26.05Z"/><path d="M160.53,67.52l.8.09a1.77,1.77,0,0,1-.7,1,2.24,2.24,0,0,1-1.3.35,2.19,2.19,0,0,1-1.58-.56,2.08,2.08,0,0,1-.58-1.57,2.17,2.17,0,0,1,.59-1.62,2.1,2.1,0,0,1,1.53-.58,2,2,0,0,1,1.49.57,2.13,2.13,0,0,1,.58,1.59s0,.1,0,.19H158a1.51,1.51,0,0,0,.42,1,1.32,1.32,0,0,0,1,.36,1.26,1.26,0,0,0,.72-.2A1.35,1.35,0,0,0,160.53,67.52ZM158,66.38h2.54a1.32,1.32,0,0,0-.29-.79,1.23,1.23,0,0,0-1-.41,1.29,1.29,0,0,0-.89.32A1.24,1.24,0,0,0,158,66.38Z"/><path d="M162.28,68.85V64.7H163v.63a1.75,1.75,0,0,1,.49-.58.91.91,0,0,1,.49-.14,1.61,1.61,0,0,1,.79.23l-.27.65a1.19,1.19,0,0,0-.57-.15.78.78,0,0,0-.45.14.75.75,0,0,0-.29.38,2.51,2.51,0,0,0-.13.82v2.17Z"/><path d="M167.65,68.85V63.13h.77v2.05a1.79,1.79,0,0,1,1.36-.57,2,2,0,0,1,.88.18,1.11,1.11,0,0,1,.53.5,2.14,2.14,0,0,1,.16.93v2.63h-.77V66.22a1,1,0,0,0-.25-.77,1,1,0,0,0-.71-.24,1.34,1.34,0,0,0-.64.16,1,1,0,0,0-.43.44,1.85,1.85,0,0,0-.13.77v2.27Z"/><path d="M175.63,67.52l.8.09a1.77,1.77,0,0,1-.7,1,2.24,2.24,0,0,1-1.3.35,2.19,2.19,0,0,1-1.58-.56,2.08,2.08,0,0,1-.58-1.57,2.17,2.17,0,0,1,.59-1.62,2.1,2.1,0,0,1,1.53-.58,2,2,0,0,1,1.49.57,2.13,2.13,0,0,1,.58,1.59s0,.1,0,.19h-3.39a1.51,1.51,0,0,0,.42,1,1.32,1.32,0,0,0,.95.36,1.26,1.26,0,0,0,.72-.2A1.36,1.36,0,0,0,175.63,67.52Zm-2.53-1.14h2.54a1.33,1.33,0,0,0-.29-.79,1.23,1.23,0,0,0-1-.41,1.29,1.29,0,0,0-.89.32A1.23,1.23,0,0,0,173.1,66.38Z"/><path d="M180.37,68.34a2.9,2.9,0,0,1-.82.47,2.59,2.59,0,0,1-.85.14,1.76,1.76,0,0,1-1.15-.33,1.1,1.1,0,0,1-.25-1.41,1.2,1.2,0,0,1,.4-.4,2,2,0,0,1,.55-.23,6.15,6.15,0,0,1,.69-.11,7.61,7.61,0,0,0,1.37-.24c0-.1,0-.16,0-.18a.74.74,0,0,0-.22-.61,1.38,1.38,0,0,0-.88-.24,1.46,1.46,0,0,0-.8.17A1.05,1.05,0,0,0,178,66l-.75-.09a1.63,1.63,0,0,1,.34-.71,1.5,1.5,0,0,1,.68-.42,3.3,3.3,0,0,1,1-.15,3,3,0,0,1,.95.13,1.27,1.27,0,0,1,.54.31,1.08,1.08,0,0,1,.24.48,3.66,3.66,0,0,1,0,.65v.94a9,9,0,0,0,0,1.24,1.48,1.48,0,0,0,.19.5h-.81A1.4,1.4,0,0,1,180.37,68.34Zm-.06-1.57A6.12,6.12,0,0,1,179,67a3.18,3.18,0,0,0-.67.14.66.66,0,0,0-.3.23.57.57,0,0,0-.11.33.58.58,0,0,0,.23.47,1.07,1.07,0,0,0,.68.19,1.71,1.71,0,0,0,.79-.18,1.15,1.15,0,0,0,.51-.49,1.58,1.58,0,0,0,.12-.7Z"/><path d="M184,68.22l.11.62a3.1,3.1,0,0,1-.58.06,1.42,1.42,0,0,1-.65-.12.71.71,0,0,1-.32-.32,2.29,2.29,0,0,1-.09-.83V65.25h-.57V64.7h.57v-1l.77-.42V64.7H184v.55h-.78v2.43a1.12,1.12,0,0,0,0,.39.3.3,0,0,0,.13.14.54.54,0,0,0,.26.05Z"/><path d="M187.82,67.52l.8.09a1.77,1.77,0,0,1-.7,1,2.24,2.24,0,0,1-1.3.35,2.19,2.19,0,0,1-1.58-.56,2.08,2.08,0,0,1-.58-1.57,2.17,2.17,0,0,1,.59-1.62,2.1,2.1,0,0,1,1.53-.58,2,2,0,0,1,1.49.57,2.13,2.13,0,0,1,.58,1.59s0,.1,0,.19h-3.39a1.51,1.51,0,0,0,.42,1,1.32,1.32,0,0,0,.95.36,1.26,1.26,0,0,0,.72-.2A1.36,1.36,0,0,0,187.82,67.52Zm-2.53-1.14h2.54a1.33,1.33,0,0,0-.29-.79,1.23,1.23,0,0,0-1-.41,1.29,1.29,0,0,0-.89.32A1.23,1.23,0,0,0,185.29,66.38Z"/><path d="M189.58,68.85V64.7h.69v.63a1.75,1.75,0,0,1,.49-.58.91.91,0,0,1,.49-.14,1.61,1.61,0,0,1,.79.23l-.27.65a1.19,1.19,0,0,0-.57-.15.78.78,0,0,0-.45.14.75.75,0,0,0-.29.38,2.51,2.51,0,0,0-.13.82v2.17Z"/><path d="M192.24,68.85v-.8h.88v.8Z"/><path d="M90.73,83.3V77.57h3.86v.68H91.49V80h2.69v.68H91.49v2.6Z"/><path d="M98.19,82.79a2.6,2.6,0,0,1-.75.47,2.18,2.18,0,0,1-.78.14,1.51,1.51,0,0,1-1.05-.33,1.1,1.1,0,0,1-.37-.85,1.16,1.16,0,0,1,.5-1,1.7,1.7,0,0,1,.51-.23,5.15,5.15,0,0,1,.63-.11,6.4,6.4,0,0,0,1.25-.24c0-.1,0-.16,0-.18a.78.78,0,0,0-.2-.61,1.18,1.18,0,0,0-.8-.24,1.24,1.24,0,0,0-.73.17,1.06,1.06,0,0,0-.35.62l-.69-.09a1.71,1.71,0,0,1,.31-.71,1.35,1.35,0,0,1,.62-.42,2.77,2.77,0,0,1,.94-.15,2.5,2.5,0,0,1,.86.13,1.14,1.14,0,0,1,.49.31,1.11,1.11,0,0,1,.22.48,4,4,0,0,1,0,.65v.94a10,10,0,0,0,0,1.24,1.57,1.57,0,0,0,.18.5h-.73A1.5,1.5,0,0,1,98.19,82.79Zm-.06-1.57a5.16,5.16,0,0,1-1.15.27,2.69,2.69,0,0,0-.61.14.6.6,0,0,0-.37.56.6.6,0,0,0,.21.47.92.92,0,0,0,.62.19,1.45,1.45,0,0,0,.72-.18,1.09,1.09,0,0,0,.46-.49,1.7,1.7,0,0,0,.11-.7Z"/><path d="M99.94,78.38v-.81h.7v.81Zm0,4.92V79.15h.7V83.3Z"/><path d="M101.7,83.3V77.57h.7V83.3Z"/><path d="M106.21,83.3v-.61a1.52,1.52,0,0,1-1.32.7,1.68,1.68,0,0,1-.69-.14,1.13,1.13,0,0,1-.47-.35,1.32,1.32,0,0,1-.22-.52,3.55,3.55,0,0,1,0-.66V79.15h.7v2.3a4.09,4.09,0,0,0,0,.74.74.74,0,0,0,.28.44.87.87,0,0,0,.53.16,1.15,1.15,0,0,0,.59-.16.9.9,0,0,0,.39-.44,2.22,2.22,0,0,0,.12-.81V79.15h.7V83.3Z"/><path d="M107.93,83.3V79.15h.63v.63a1.72,1.72,0,0,1,.45-.58.78.78,0,0,1,.45-.14,1.37,1.37,0,0,1,.72.23l-.24.65a1,1,0,0,0-.52-.15.67.67,0,0,0-.41.14.75.75,0,0,0-.26.38,2.74,2.74,0,0,0-.12.82V83.3Z"/><path d="M113.44,82l.73.09a1.77,1.77,0,0,1-.64,1,2.16,2.16,0,0,1-2.63-.21,2.19,2.19,0,0,1-.53-1.57,2.29,2.29,0,0,1,.54-1.62,1.82,1.82,0,0,1,1.4-.58,1.77,1.77,0,0,1,1.36.57,2.25,2.25,0,0,1,.53,1.59s0,.1,0,.19H111.1a1.59,1.59,0,0,0,.39,1,1.15,1.15,0,0,0,.87.36,1.07,1.07,0,0,0,.66-.2A1.35,1.35,0,0,0,113.44,82Zm-2.31-1.14h2.32a1.41,1.41,0,0,0-.27-.79,1.08,1.08,0,0,0-.87-.41,1.12,1.12,0,0,0-.81.32A1.28,1.28,0,0,0,111.13,80.83Z"/><path d="M118.81,82.67l.1.62a2.59,2.59,0,0,1-.53.06,1.2,1.2,0,0,1-.59-.12.68.68,0,0,1-.3-.32,2.51,2.51,0,0,1-.09-.83V79.7h-.52v-.55h.52v-1l.7-.42v1.45h.71v.55h-.71v2.43a1.24,1.24,0,0,0,0,.39.29.29,0,0,0,.12.14.46.46,0,0,0,.24.05Z"/><path d="M119.24,81.22a2.14,2.14,0,0,1,.64-1.71,1.93,1.93,0,0,1,1.3-.46,1.86,1.86,0,0,1,1.4.56,2.13,2.13,0,0,1,.54,1.55,2.74,2.74,0,0,1-.24,1.26,1.7,1.7,0,0,1-.7.71,2,2,0,0,1-1,.25,1.87,1.87,0,0,1-1.41-.56A2.23,2.23,0,0,1,119.24,81.22Zm.72,0a1.77,1.77,0,0,0,.35,1.19,1.16,1.16,0,0,0,1.75,0,1.81,1.81,0,0,0,.35-1.21,1.71,1.71,0,0,0-.35-1.17,1.16,1.16,0,0,0-1.74,0A1.76,1.76,0,0,0,120,81.22Z"/><path d="M126.34,83.3V79.7h-.62v-.55h.62v-.44a1.93,1.93,0,0,1,.07-.62.89.89,0,0,1,.36-.44,1.29,1.29,0,0,1,.72-.17,3.44,3.44,0,0,1,.66.07l-.11.61a2.33,2.33,0,0,0-.41,0,.62.62,0,0,0-.45.14.74.74,0,0,0-.13.51v.38h.81v.55H127v3.6Z"/><path d="M128.13,81.22a2.14,2.14,0,0,1,.64-1.71,1.93,1.93,0,0,1,1.3-.46,1.86,1.86,0,0,1,1.4.56,2.13,2.13,0,0,1,.54,1.55,2.74,2.74,0,0,1-.24,1.26,1.7,1.7,0,0,1-.7.71,2,2,0,0,1-1,.25,1.87,1.87,0,0,1-1.41-.56A2.23,2.23,0,0,1,128.13,81.22Zm.72,0a1.77,1.77,0,0,0,.35,1.19,1.16,1.16,0,0,0,1.75,0,1.81,1.81,0,0,0,.35-1.21,1.71,1.71,0,0,0-.35-1.17,1.16,1.16,0,0,0-1.74,0A1.76,1.76,0,0,0,128.85,81.22Z"/><path d="M132.83,83.3V77.57h.7V83.3Z"/><path d="M134.6,83.3V77.57h.7V83.3Z"/><path d="M136.13,81.22a2.14,2.14,0,0,1,.64-1.71,1.93,1.93,0,0,1,1.3-.46,1.86,1.86,0,0,1,1.4.56,2.13,2.13,0,0,1,.54,1.55,2.74,2.74,0,0,1-.24,1.26,1.7,1.7,0,0,1-.7.71,2,2,0,0,1-1,.25,1.87,1.87,0,0,1-1.41-.56A2.23,2.23,0,0,1,136.13,81.22Zm.72,0a1.77,1.77,0,0,0,.35,1.19,1.16,1.16,0,0,0,1.75,0,1.81,1.81,0,0,0,.35-1.21,1.71,1.71,0,0,0-.35-1.17,1.16,1.16,0,0,0-1.74,0A1.76,1.76,0,0,0,136.86,81.22Z"/><path d="M141.61,83.3l-1.27-4.15h.73l.66,2.39.25.89.21-.86.66-2.43h.72l.62,2.41.21.79.24-.8.71-2.4H146l-1.3,4.15H144l-.66-2.48-.16-.71-.84,3.19Z"/><path d="M150.38,82.67l.1.62a2.59,2.59,0,0,1-.53.06,1.2,1.2,0,0,1-.59-.12.68.68,0,0,1-.3-.32,2.51,2.51,0,0,1-.09-.83V79.7h-.52v-.55H149v-1l.7-.42v1.45h.71v.55h-.71v2.43a1.24,1.24,0,0,0,0,.39.29.29,0,0,0,.12.14.46.46,0,0,0,.24.05Z"/><path d="M151.07,83.3V77.57h.7v2.05a1.57,1.57,0,0,1,1.24-.57,1.67,1.67,0,0,1,.8.18,1.07,1.07,0,0,1,.49.5,2.32,2.32,0,0,1,.15.93V83.3h-.7V80.67a1.09,1.09,0,0,0-.23-.77.85.85,0,0,0-.65-.24,1.14,1.14,0,0,0-.59.16.92.92,0,0,0-.39.44,2,2,0,0,0-.12.77V83.3Z"/><path d="M158.36,82l.73.09a1.77,1.77,0,0,1-.64,1,2.16,2.16,0,0,1-2.63-.21,2.19,2.19,0,0,1-.53-1.57,2.29,2.29,0,0,1,.54-1.62,1.82,1.82,0,0,1,1.4-.58,1.77,1.77,0,0,1,1.36.57,2.25,2.25,0,0,1,.53,1.59s0,.1,0,.19H156a1.6,1.6,0,0,0,.39,1,1.15,1.15,0,0,0,.87.36,1.07,1.07,0,0,0,.66-.2A1.35,1.35,0,0,0,158.36,82ZM156,80.83h2.32a1.41,1.41,0,0,0-.27-.79,1.08,1.08,0,0,0-.87-.41,1.12,1.12,0,0,0-.81.32A1.28,1.28,0,0,0,156,80.83Z"/><path d="M159.69,82.06l.7-.11a1,1,0,0,0,.33.64,1.14,1.14,0,0,0,.75.22,1.1,1.1,0,0,0,.72-.2.59.59,0,0,0,.23-.46.43.43,0,0,0-.21-.37,3.07,3.07,0,0,0-.72-.24,6.56,6.56,0,0,1-1.07-.34,1,1,0,0,1-.45-.39,1,1,0,0,1-.15-.56,1.06,1.06,0,0,1,.13-.51,1.15,1.15,0,0,1,.35-.39,1.44,1.44,0,0,1,.45-.21,2.14,2.14,0,0,1,.61-.08,2.4,2.4,0,0,1,.86.14,1.17,1.17,0,0,1,.54.38,1.48,1.48,0,0,1,.24.64l-.69.09a.75.75,0,0,0-.27-.5,1,1,0,0,0-.63-.18,1.15,1.15,0,0,0-.69.16.47.47,0,0,0-.21.38.39.39,0,0,0,.09.25.63.63,0,0,0,.27.19l.62.18a8.59,8.59,0,0,1,1,.33,1.06,1.06,0,0,1,.46.37,1,1,0,0,1,.17.6,1.18,1.18,0,0,1-.21.66,1.33,1.33,0,0,1-.59.48,2.16,2.16,0,0,1-.87.17,2,2,0,0,1-1.23-.34A1.56,1.56,0,0,1,159.69,82.06Z"/><path d="M166.81,82l.73.09a1.77,1.77,0,0,1-.64,1,2.16,2.16,0,0,1-2.63-.21,2.19,2.19,0,0,1-.53-1.57,2.29,2.29,0,0,1,.54-1.62,1.82,1.82,0,0,1,1.4-.58,1.77,1.77,0,0,1,1.36.57,2.25,2.25,0,0,1,.53,1.59s0,.1,0,.19h-3.09a1.6,1.6,0,0,0,.39,1,1.15,1.15,0,0,0,.87.36,1.07,1.07,0,0,0,.66-.2A1.35,1.35,0,0,0,166.81,82Zm-2.31-1.14h2.32a1.41,1.41,0,0,0-.27-.79,1.08,1.08,0,0,0-.87-.41,1.12,1.12,0,0,0-.81.32A1.28,1.28,0,0,0,164.5,80.83Z"/><path d="M170.64,78.38v-.81h.7v.81Zm0,4.92V79.15h.7V83.3Z"/><path d="M172.42,83.3V79.15H173v.59a1.49,1.49,0,0,1,1.32-.68,1.73,1.73,0,0,1,.69.13,1.09,1.09,0,0,1,.47.35,1.36,1.36,0,0,1,.22.52,4,4,0,0,1,0,.68V83.3h-.7V80.77a1.89,1.89,0,0,0-.08-.64.68.68,0,0,0-.29-.34.92.92,0,0,0-.49-.13,1.14,1.14,0,0,0-.78.29,1.41,1.41,0,0,0-.33,1.08V83.3Z"/><path d="M176.58,82.06l.7-.11a1,1,0,0,0,.33.64,1.14,1.14,0,0,0,.75.22,1.1,1.1,0,0,0,.72-.2.59.59,0,0,0,.23-.46.43.43,0,0,0-.21-.37,3.07,3.07,0,0,0-.72-.24,6.56,6.56,0,0,1-1.07-.34,1,1,0,0,1-.45-.39,1,1,0,0,1-.15-.56,1.06,1.06,0,0,1,.13-.51,1.15,1.15,0,0,1,.35-.39,1.44,1.44,0,0,1,.45-.21,2.14,2.14,0,0,1,.61-.08,2.4,2.4,0,0,1,.86.14,1.17,1.17,0,0,1,.54.38,1.48,1.48,0,0,1,.24.64l-.69.09a.75.75,0,0,0-.27-.5,1,1,0,0,0-.63-.18,1.15,1.15,0,0,0-.69.16.47.47,0,0,0-.21.38.39.39,0,0,0,.09.25.63.63,0,0,0,.27.19l.62.18a8.59,8.59,0,0,1,1,.33,1.06,1.06,0,0,1,.46.37,1,1,0,0,1,.17.6,1.18,1.18,0,0,1-.21.66,1.33,1.33,0,0,1-.59.48,2.16,2.16,0,0,1-.87.17,2,2,0,0,1-1.23-.34A1.56,1.56,0,0,1,176.58,82.06Z"/><path d="M182.4,82.67l.1.62a2.59,2.59,0,0,1-.53.06,1.2,1.2,0,0,1-.59-.12.68.68,0,0,1-.3-.32,2.51,2.51,0,0,1-.09-.83V79.7h-.52v-.55H181v-1l.7-.42v1.45h.71v.55h-.71v2.43a1.24,1.24,0,0,0,0,.39.29.29,0,0,0,.12.14.46.46,0,0,0,.24.05Z"/><path d="M183.08,83.3V79.15h.63v.63a1.72,1.72,0,0,1,.45-.58.78.78,0,0,1,.45-.14,1.37,1.37,0,0,1,.72.23l-.24.65a1,1,0,0,0-.52-.15.67.67,0,0,0-.41.14.75.75,0,0,0-.26.38,2.74,2.74,0,0,0-.12.82V83.3Z"/><path d="M188.47,83.3v-.61a1.52,1.52,0,0,1-1.32.7,1.68,1.68,0,0,1-.69-.14,1.13,1.13,0,0,1-.47-.35,1.33,1.33,0,0,1-.22-.52,3.6,3.6,0,0,1,0-.66V79.15h.7v2.3a4.13,4.13,0,0,0,0,.74.73.73,0,0,0,.28.44.87.87,0,0,0,.53.16,1.15,1.15,0,0,0,.59-.16.9.9,0,0,0,.39-.44,2.21,2.21,0,0,0,.12-.81V79.15h.7V83.3Z"/><path d="M192.91,81.78l.69.09A1.79,1.79,0,0,1,193,83a1.69,1.69,0,0,1-1.15.4,1.78,1.78,0,0,1-1.37-.56,2.26,2.26,0,0,1-.52-1.6,2.89,2.89,0,0,1,.22-1.18,1.55,1.55,0,0,1,.68-.76,2,2,0,0,1,1-.25,1.72,1.72,0,0,1,1.11.34,1.57,1.57,0,0,1,.55,1l-.68.11a1.14,1.14,0,0,0-.35-.63.89.89,0,0,0-.6-.21A1.09,1.09,0,0,0,191,80a1.81,1.81,0,0,0-.33,1.21,1.87,1.87,0,0,0,.32,1.21,1,1,0,0,0,.84.38,1,1,0,0,0,.69-.25A1.26,1.26,0,0,0,192.91,81.78Z"/><path d="M195.74,82.67l.1.62a2.59,2.59,0,0,1-.53.06,1.2,1.2,0,0,1-.59-.12.68.68,0,0,1-.3-.32,2.51,2.51,0,0,1-.09-.83V79.7h-.52v-.55h.52v-1l.7-.42v1.45h.71v.55H195v2.43a1.24,1.24,0,0,0,0,.39.29.29,0,0,0,.12.14.46.46,0,0,0,.24.05Z"/><path d="M196.43,78.38v-.81h.7v.81Zm0,4.92V79.15h.7V83.3Z"/><path d="M197.94,81.22a2.14,2.14,0,0,1,.64-1.71,1.93,1.93,0,0,1,1.3-.46,1.86,1.86,0,0,1,1.4.56,2.13,2.13,0,0,1,.54,1.55,2.74,2.74,0,0,1-.24,1.26,1.7,1.7,0,0,1-.7.71,2,2,0,0,1-1,.25,1.87,1.87,0,0,1-1.41-.56A2.23,2.23,0,0,1,197.94,81.22Zm.72,0a1.77,1.77,0,0,0,.35,1.19,1.16,1.16,0,0,0,1.75,0,1.81,1.81,0,0,0,.35-1.21,1.71,1.71,0,0,0-.35-1.17A1.16,1.16,0,0,0,199,80,1.76,1.76,0,0,0,198.66,81.22Z"/><path d="M202.65,83.3V79.15h.63v.59a1.49,1.49,0,0,1,1.32-.68,1.73,1.73,0,0,1,.69.13,1.09,1.09,0,0,1,.47.35,1.36,1.36,0,0,1,.22.52,4,4,0,0,1,0,.68V83.3h-.7V80.77a1.89,1.89,0,0,0-.08-.64.68.68,0,0,0-.29-.34.92.92,0,0,0-.49-.13,1.14,1.14,0,0,0-.78.29,1.41,1.41,0,0,0-.33,1.08V83.3Z"/><path d="M206.82,82.06l.7-.11a1,1,0,0,0,.33.64,1.14,1.14,0,0,0,.75.22,1.1,1.1,0,0,0,.72-.2.59.59,0,0,0,.23-.46.43.43,0,0,0-.21-.37,3.07,3.07,0,0,0-.72-.24,6.56,6.56,0,0,1-1.07-.34,1,1,0,0,1-.45-.39,1,1,0,0,1-.15-.56,1.06,1.06,0,0,1,.13-.51,1.15,1.15,0,0,1,.35-.39,1.44,1.44,0,0,1,.45-.21,2.14,2.14,0,0,1,.61-.08,2.4,2.4,0,0,1,.86.14,1.17,1.17,0,0,1,.54.38,1.48,1.48,0,0,1,.24.64l-.69.09a.75.75,0,0,0-.27-.5,1,1,0,0,0-.63-.18,1.15,1.15,0,0,0-.69.16.47.47,0,0,0-.21.38.39.39,0,0,0,.09.25.63.63,0,0,0,.27.19l.62.18a8.59,8.59,0,0,1,1,.33,1.06,1.06,0,0,1,.46.37,1,1,0,0,1,.17.6,1.18,1.18,0,0,1-.21.66,1.33,1.33,0,0,1-.59.48,2.16,2.16,0,0,1-.87.17,2,2,0,0,1-1.23-.34A1.56,1.56,0,0,1,206.82,82.06Z"/><path d="M216,82.79a2.6,2.6,0,0,1-.75.47,2.18,2.18,0,0,1-.78.14,1.51,1.51,0,0,1-1.05-.33,1.1,1.1,0,0,1-.37-.85,1.13,1.13,0,0,1,.14-.56,1.15,1.15,0,0,1,.36-.4,1.7,1.7,0,0,1,.51-.23,5.15,5.15,0,0,1,.63-.11,6.41,6.41,0,0,0,1.25-.24c0-.1,0-.16,0-.18a.78.78,0,0,0-.2-.61,1.17,1.17,0,0,0-.8-.24,1.24,1.24,0,0,0-.73.17,1.06,1.06,0,0,0-.35.62l-.69-.09a1.7,1.7,0,0,1,.31-.71,1.36,1.36,0,0,1,.62-.42,2.77,2.77,0,0,1,.94-.15,2.5,2.5,0,0,1,.86.13,1.14,1.14,0,0,1,.49.31,1.11,1.11,0,0,1,.22.48,4,4,0,0,1,0,.65v.94a9.88,9.88,0,0,0,0,1.24,1.57,1.57,0,0,0,.18.5h-.73A1.47,1.47,0,0,1,216,82.79ZM216,81.22a5.15,5.15,0,0,1-1.15.27,2.7,2.7,0,0,0-.61.14.61.61,0,0,0-.28.23.62.62,0,0,0,.12.8.92.92,0,0,0,.62.19,1.45,1.45,0,0,0,.72-.18,1.09,1.09,0,0,0,.46-.49,1.71,1.71,0,0,0,.11-.7Z"/><path d="M217.77,83.3V79.15h.63v.59a1.49,1.49,0,0,1,1.32-.68,1.73,1.73,0,0,1,.69.13,1.09,1.09,0,0,1,.47.35,1.36,1.36,0,0,1,.22.52,4,4,0,0,1,0,.68V83.3h-.7V80.77a1.89,1.89,0,0,0-.08-.64.68.68,0,0,0-.29-.34.92.92,0,0,0-.49-.13,1.14,1.14,0,0,0-.78.29,1.41,1.41,0,0,0-.33,1.08V83.3Z"/><path d="M224.91,83.3v-.52a1.29,1.29,0,0,1-1.16.62,1.62,1.62,0,0,1-.91-.27,1.8,1.8,0,0,1-.64-.76,2.64,2.64,0,0,1-.23-1.13,3,3,0,0,1,.21-1.13,1.63,1.63,0,0,1,.62-.78,1.66,1.66,0,0,1,.93-.27,1.38,1.38,0,0,1,1.14.57V77.57h.7V83.3Zm-2.22-2.07a1.8,1.8,0,0,0,.34,1.19,1,1,0,0,0,.79.39,1,1,0,0,0,.78-.38,1.74,1.74,0,0,0,.32-1.15A2,2,0,0,0,224.6,80a1,1,0,0,0-.81-.4A1,1,0,0,0,223,80,1.89,1.89,0,0,0,222.69,81.23Z"/><path d="M90.32,91.66l.7-.11a1,1,0,0,0,.33.64,1.14,1.14,0,0,0,.75.22,1.1,1.1,0,0,0,.72-.2.59.59,0,0,0,.23-.46.43.43,0,0,0-.21-.37,3.06,3.06,0,0,0-.72-.24A6.56,6.56,0,0,1,91,90.8a1,1,0,0,1-.61-1,1.07,1.07,0,0,1,.13-.51,1.14,1.14,0,0,1,.35-.39,1.43,1.43,0,0,1,.45-.21,2.14,2.14,0,0,1,.61-.08,2.4,2.4,0,0,1,.86.14,1.17,1.17,0,0,1,.54.38,1.49,1.49,0,0,1,.24.64l-.69.09a.75.75,0,0,0-.27-.5,1,1,0,0,0-.63-.18,1.15,1.15,0,0,0-.69.16.46.46,0,0,0-.21.38.39.39,0,0,0,.09.25.62.62,0,0,0,.27.19l.62.18a8.59,8.59,0,0,1,1,.33,1.06,1.06,0,0,1,.46.37,1,1,0,0,1,.17.6,1.18,1.18,0,0,1-.21.66,1.33,1.33,0,0,1-.59.48,2.15,2.15,0,0,1-.87.17,2,2,0,0,1-1.23-.34A1.56,1.56,0,0,1,90.32,91.66Z"/><path d="M97.31,92.39a2.6,2.6,0,0,1-.75.47,2.18,2.18,0,0,1-.78.14,1.51,1.51,0,0,1-1.05-.33,1.1,1.1,0,0,1-.37-.85,1.16,1.16,0,0,1,.5-1,1.7,1.7,0,0,1,.51-.23,5.15,5.15,0,0,1,.63-.11,6.4,6.4,0,0,0,1.25-.24c0-.1,0-.16,0-.18a.78.78,0,0,0-.2-.61,1.18,1.18,0,0,0-.8-.24,1.24,1.24,0,0,0-.73.17,1.06,1.06,0,0,0-.35.62l-.69-.09a1.71,1.71,0,0,1,.31-.71,1.35,1.35,0,0,1,.62-.42,2.77,2.77,0,0,1,.94-.15,2.5,2.5,0,0,1,.86.13,1.14,1.14,0,0,1,.49.31,1.11,1.11,0,0,1,.22.48,4,4,0,0,1,0,.65v.94a10,10,0,0,0,0,1.24,1.57,1.57,0,0,0,.18.5h-.73A1.5,1.5,0,0,1,97.31,92.39Zm-.06-1.57a5.16,5.16,0,0,1-1.15.27,2.69,2.69,0,0,0-.61.14.6.6,0,0,0-.37.56.6.6,0,0,0,.21.47.92.92,0,0,0,.62.19,1.45,1.45,0,0,0,.72-.18,1.09,1.09,0,0,0,.46-.49,1.7,1.7,0,0,0,.11-.7Z"/><path d="M99.22,92.9V89.3H98.6v-.55h.62v-.44a1.94,1.94,0,0,1,.07-.62.9.9,0,0,1,.36-.44,1.29,1.29,0,0,1,.72-.17,3.44,3.44,0,0,1,.66.07l-.11.61a2.33,2.33,0,0,0-.41,0,.62.62,0,0,0-.45.14.74.74,0,0,0-.13.51v.38h.81v.55h-.81v3.6Z"/><path d="M104.11,91.56l.73.09a1.77,1.77,0,0,1-.64,1,2.16,2.16,0,0,1-2.63-.21,2.19,2.19,0,0,1-.53-1.57,2.29,2.29,0,0,1,.54-1.62,1.82,1.82,0,0,1,1.4-.58,1.77,1.77,0,0,1,1.36.57,2.25,2.25,0,0,1,.53,1.59s0,.1,0,.19h-3.09a1.59,1.59,0,0,0,.39,1,1.15,1.15,0,0,0,.87.36,1.07,1.07,0,0,0,.66-.2A1.35,1.35,0,0,0,104.11,91.56Zm-2.31-1.14h2.32a1.41,1.41,0,0,0-.27-.79,1.08,1.08,0,0,0-.87-.41,1.12,1.12,0,0,0-.81.32A1.28,1.28,0,0,0,101.8,90.42Z"/><path d="M107.26,92.27l.1.62a2.58,2.58,0,0,1-.53.06,1.2,1.2,0,0,1-.59-.12.68.68,0,0,1-.3-.32,2.52,2.52,0,0,1-.09-.83V89.3h-.52v-.55h.52v-1l.7-.42v1.45h.71v.55h-.71v2.43a1.22,1.22,0,0,0,0,.39.29.29,0,0,0,.12.14.47.47,0,0,0,.24.05Z"/><path d="M107.91,94.5l-.08-.66a1.55,1.55,0,0,0,.4.06.78.78,0,0,0,.38-.08.64.64,0,0,0,.23-.22,3.46,3.46,0,0,0,.21-.52l.06-.17-1.57-4.16h.76l.86,2.4q.17.46.3,1a9.46,9.46,0,0,1,.29-.95l.89-2.42h.7L109.77,93a8.28,8.28,0,0,1-.39.94,1.39,1.39,0,0,1-.43.51,1,1,0,0,1-.58.16A1.4,1.4,0,0,1,107.91,94.5Z"/><path d="M114.17,92.9V88.75h.63v.58a1.48,1.48,0,0,1,.52-.49,1.45,1.45,0,0,1,.74-.19,1.36,1.36,0,0,1,.76.19,1,1,0,0,1,.42.54,1.49,1.49,0,0,1,1.28-.73,1.27,1.27,0,0,1,.95.34,1.46,1.46,0,0,1,.33,1.05V92.9h-.7V90.28a1.92,1.92,0,0,0-.07-.61.59.59,0,0,0-.25-.3.78.78,0,0,0-.42-.11,1,1,0,0,0-.73.29,1.28,1.28,0,0,0-.29.93V92.9h-.7V90.2a1.19,1.19,0,0,0-.17-.7.65.65,0,0,0-.56-.23,1,1,0,0,0-.55.16.89.89,0,0,0-.37.46,2.58,2.58,0,0,0-.11.87V92.9Z"/><path d="M123.67,91.56l.73.09a1.77,1.77,0,0,1-.64,1,2.16,2.16,0,0,1-2.63-.21,2.19,2.19,0,0,1-.53-1.57,2.29,2.29,0,0,1,.54-1.62,1.82,1.82,0,0,1,1.4-.58,1.77,1.77,0,0,1,1.36.57,2.25,2.25,0,0,1,.53,1.59s0,.1,0,.19h-3.09a1.6,1.6,0,0,0,.39,1,1.15,1.15,0,0,0,.87.36,1.07,1.07,0,0,0,.66-.2A1.35,1.35,0,0,0,123.67,91.56Zm-2.31-1.14h2.32a1.41,1.41,0,0,0-.27-.79,1.08,1.08,0,0,0-.87-.41,1.12,1.12,0,0,0-.81.32A1.28,1.28,0,0,0,121.36,90.42Z"/><path d="M125,91.66l.7-.11a1,1,0,0,0,.33.64,1.14,1.14,0,0,0,.75.22,1.1,1.1,0,0,0,.72-.2.59.59,0,0,0,.23-.46.43.43,0,0,0-.21-.37,3.07,3.07,0,0,0-.72-.24,6.56,6.56,0,0,1-1.07-.34,1,1,0,0,1-.45-.39,1,1,0,0,1-.15-.56,1.06,1.06,0,0,1,.13-.51,1.15,1.15,0,0,1,.35-.39,1.44,1.44,0,0,1,.45-.21,2.14,2.14,0,0,1,.61-.08,2.4,2.4,0,0,1,.86.14,1.17,1.17,0,0,1,.54.38,1.48,1.48,0,0,1,.24.64l-.69.09a.75.75,0,0,0-.27-.5,1,1,0,0,0-.63-.18,1.15,1.15,0,0,0-.69.16.47.47,0,0,0-.21.38.39.39,0,0,0,.09.25.63.63,0,0,0,.27.19l.62.18a8.59,8.59,0,0,1,1,.33,1.06,1.06,0,0,1,.46.37,1,1,0,0,1,.17.6,1.18,1.18,0,0,1-.21.66,1.33,1.33,0,0,1-.59.48,2.16,2.16,0,0,1-.87.17,2,2,0,0,1-1.23-.34A1.56,1.56,0,0,1,125,91.66Z"/><path d="M129,91.66l.7-.11a1,1,0,0,0,.33.64,1.14,1.14,0,0,0,.75.22,1.1,1.1,0,0,0,.72-.2.59.59,0,0,0,.23-.46.43.43,0,0,0-.21-.37,3.07,3.07,0,0,0-.72-.24,6.56,6.56,0,0,1-1.07-.34,1,1,0,0,1-.45-.39,1,1,0,0,1-.15-.56,1.06,1.06,0,0,1,.13-.51,1.15,1.15,0,0,1,.35-.39,1.44,1.44,0,0,1,.45-.21,2.14,2.14,0,0,1,.61-.08,2.4,2.4,0,0,1,.86.14,1.17,1.17,0,0,1,.54.38,1.48,1.48,0,0,1,.24.64l-.69.09a.75.75,0,0,0-.27-.5,1,1,0,0,0-.63-.18,1.15,1.15,0,0,0-.69.16.47.47,0,0,0-.21.38.39.39,0,0,0,.09.25.63.63,0,0,0,.27.19l.62.18a8.59,8.59,0,0,1,1,.33,1.06,1.06,0,0,1,.46.37,1,1,0,0,1,.17.6,1.18,1.18,0,0,1-.21.66,1.33,1.33,0,0,1-.59.48,2.16,2.16,0,0,1-.87.17,2,2,0,0,1-1.23-.34A1.56,1.56,0,0,1,129,91.66Z"/><path d="M136,92.39a2.6,2.6,0,0,1-.75.47,2.18,2.18,0,0,1-.78.14,1.51,1.51,0,0,1-1.05-.33,1.1,1.1,0,0,1-.37-.85,1.13,1.13,0,0,1,.14-.56,1.15,1.15,0,0,1,.36-.4,1.7,1.7,0,0,1,.51-.23,5.15,5.15,0,0,1,.63-.11,6.41,6.41,0,0,0,1.25-.24c0-.1,0-.16,0-.18a.78.78,0,0,0-.2-.61,1.17,1.17,0,0,0-.8-.24,1.24,1.24,0,0,0-.73.17,1.06,1.06,0,0,0-.35.62l-.69-.09a1.7,1.7,0,0,1,.31-.71,1.36,1.36,0,0,1,.62-.42,2.77,2.77,0,0,1,.94-.15,2.5,2.5,0,0,1,.86.13,1.14,1.14,0,0,1,.49.31,1.11,1.11,0,0,1,.22.48,4,4,0,0,1,0,.65v.94a9.88,9.88,0,0,0,0,1.24,1.57,1.57,0,0,0,.18.5h-.73A1.47,1.47,0,0,1,136,92.39Zm-.06-1.57a5.15,5.15,0,0,1-1.15.27,2.7,2.7,0,0,0-.61.14.61.61,0,0,0-.28.23.62.62,0,0,0,.12.8.92.92,0,0,0,.62.19,1.45,1.45,0,0,0,.72-.18,1.09,1.09,0,0,0,.46-.49,1.71,1.71,0,0,0,.11-.7Z"/><path d="M137.6,93.24l.68.1a.65.65,0,0,0,.24.46,1.17,1.17,0,0,0,.71.2,1.26,1.26,0,0,0,.75-.2,1,1,0,0,0,.36-.55,4.5,4.5,0,0,0,.05-.9,1.45,1.45,0,0,1-1.15.54,1.57,1.57,0,0,1-1.32-.62,2.38,2.38,0,0,1-.47-1.48,2.75,2.75,0,0,1,.21-1.1,1.72,1.72,0,0,1,.62-.78,1.68,1.68,0,0,1,1-.27,1.49,1.49,0,0,1,1.21.59v-.5h.65v3.59a3.4,3.4,0,0,1-.2,1.37,1.44,1.44,0,0,1-.62.64,2.17,2.17,0,0,1-1.05.23,2,2,0,0,1-1.2-.33A1.13,1.13,0,0,1,137.6,93.24Zm.58-2.49a1.8,1.8,0,0,0,.32,1.19,1.07,1.07,0,0,0,1.63,0,1.74,1.74,0,0,0,.33-1.17,1.7,1.7,0,0,0-.34-1.15,1,1,0,0,0-.81-.39,1,1,0,0,0-.8.38A1.69,1.69,0,0,0,138.18,90.75Z"/><path d="M145,91.56l.73.09a1.77,1.77,0,0,1-.64,1,2.16,2.16,0,0,1-2.63-.21,2.19,2.19,0,0,1-.53-1.57,2.29,2.29,0,0,1,.54-1.62,1.82,1.82,0,0,1,1.4-.58,1.77,1.77,0,0,1,1.36.57,2.25,2.25,0,0,1,.53,1.59s0,.1,0,.19h-3.09a1.6,1.6,0,0,0,.39,1,1.15,1.15,0,0,0,.87.36,1.07,1.07,0,0,0,.66-.2A1.35,1.35,0,0,0,145,91.56Zm-2.31-1.14H145a1.41,1.41,0,0,0-.27-.79,1.08,1.08,0,0,0-.87-.41,1.12,1.12,0,0,0-.81.32A1.28,1.28,0,0,0,142.71,90.42Z"/><path d="M146.35,91.66l.7-.11a1,1,0,0,0,.33.64,1.14,1.14,0,0,0,.75.22,1.1,1.1,0,0,0,.72-.2.59.59,0,0,0,.23-.46.43.43,0,0,0-.21-.37,3.07,3.07,0,0,0-.72-.24,6.56,6.56,0,0,1-1.07-.34,1,1,0,0,1-.45-.39,1,1,0,0,1-.15-.56,1.06,1.06,0,0,1,.13-.51,1.15,1.15,0,0,1,.35-.39,1.44,1.44,0,0,1,.45-.21,2.14,2.14,0,0,1,.61-.08,2.4,2.4,0,0,1,.86.14,1.17,1.17,0,0,1,.54.38,1.48,1.48,0,0,1,.24.64l-.69.09a.75.75,0,0,0-.27-.5,1,1,0,0,0-.63-.18,1.15,1.15,0,0,0-.69.16.47.47,0,0,0-.21.38.39.39,0,0,0,.09.25.63.63,0,0,0,.27.19l.62.18a8.59,8.59,0,0,1,1,.33,1.06,1.06,0,0,1,.46.37,1,1,0,0,1,.17.6,1.18,1.18,0,0,1-.21.66,1.33,1.33,0,0,1-.59.48,2.16,2.16,0,0,1-.87.17,2,2,0,0,1-1.23-.34A1.56,1.56,0,0,1,146.35,91.66Z"/><path d="M155.56,91.38l.69.09a1.79,1.79,0,0,1-.58,1.12,1.69,1.69,0,0,1-1.15.4,1.78,1.78,0,0,1-1.37-.56,2.26,2.26,0,0,1-.52-1.6,2.89,2.89,0,0,1,.22-1.18,1.55,1.55,0,0,1,.68-.76,2,2,0,0,1,1-.25,1.72,1.72,0,0,1,1.11.34,1.57,1.57,0,0,1,.55,1l-.68.11a1.14,1.14,0,0,0-.35-.63.89.89,0,0,0-.6-.21,1.09,1.09,0,0,0-.86.38,1.81,1.81,0,0,0-.33,1.21,1.87,1.87,0,0,0,.32,1.21,1,1,0,0,0,.84.38,1,1,0,0,0,.69-.25A1.26,1.26,0,0,0,155.56,91.38Z"/><path d="M156.59,90.82a2.14,2.14,0,0,1,.64-1.71,1.93,1.93,0,0,1,1.3-.46,1.86,1.86,0,0,1,1.4.56,2.13,2.13,0,0,1,.54,1.55,2.74,2.74,0,0,1-.24,1.26,1.7,1.7,0,0,1-.7.71,2,2,0,0,1-1,.25,1.87,1.87,0,0,1-1.41-.56A2.23,2.23,0,0,1,156.59,90.82Zm.72,0a1.77,1.77,0,0,0,.35,1.19,1.16,1.16,0,0,0,1.75,0,1.81,1.81,0,0,0,.35-1.21,1.71,1.71,0,0,0-.35-1.17,1.16,1.16,0,0,0-1.74,0A1.76,1.76,0,0,0,157.31,90.82Z"/><path d="M164,92.9v-.61a1.52,1.52,0,0,1-1.32.7,1.68,1.68,0,0,1-.69-.14,1.13,1.13,0,0,1-.47-.35,1.33,1.33,0,0,1-.22-.52,3.6,3.6,0,0,1,0-.66V88.75h.7V91a4.13,4.13,0,0,0,0,.74.73.73,0,0,0,.28.44.87.87,0,0,0,.53.16,1.15,1.15,0,0,0,.59-.16.9.9,0,0,0,.39-.44,2.21,2.21,0,0,0,.12-.81V88.75h.7V92.9Z"/><path d="M165.73,92.9V87.17h.7V92.9Z"/><path d="M170.22,92.9v-.52a1.29,1.29,0,0,1-1.16.62,1.62,1.62,0,0,1-.91-.27,1.8,1.8,0,0,1-.64-.76,2.64,2.64,0,0,1-.23-1.13,3,3,0,0,1,.21-1.13,1.63,1.63,0,0,1,.62-.78,1.66,1.66,0,0,1,.93-.27,1.38,1.38,0,0,1,1.14.57V87.17h.7V92.9ZM168,90.83a1.8,1.8,0,0,0,.34,1.19,1,1,0,0,0,.79.39,1,1,0,0,0,.78-.38,1.74,1.74,0,0,0,.32-1.15,2,2,0,0,0-.33-1.25,1,1,0,0,0-.81-.4,1,1,0,0,0-.78.38A1.89,1.89,0,0,0,168,90.83Z"/><path d="M174.19,92.9V88.75h.63v.63a1.72,1.72,0,0,1,.45-.58.78.78,0,0,1,.45-.14,1.37,1.37,0,0,1,.72.23l-.24.65a1,1,0,0,0-.52-.15.67.67,0,0,0-.41.14.75.75,0,0,0-.26.38,2.74,2.74,0,0,0-.12.82V92.9Z"/><path d="M179.7,91.56l.73.09a1.77,1.77,0,0,1-.64,1,2.16,2.16,0,0,1-2.63-.21,2.19,2.19,0,0,1-.53-1.57,2.29,2.29,0,0,1,.54-1.62,1.82,1.82,0,0,1,1.4-.58,1.77,1.77,0,0,1,1.36.57,2.25,2.25,0,0,1,.53,1.59s0,.1,0,.19h-3.09a1.6,1.6,0,0,0,.39,1,1.15,1.15,0,0,0,.87.36,1.07,1.07,0,0,0,.66-.2A1.35,1.35,0,0,0,179.7,91.56Zm-2.31-1.14h2.32a1.41,1.41,0,0,0-.27-.79,1.08,1.08,0,0,0-.87-.41,1.12,1.12,0,0,0-.81.32A1.28,1.28,0,0,0,177.39,90.42Z"/><path d="M181,91.66l.7-.11a1,1,0,0,0,.33.64,1.14,1.14,0,0,0,.75.22,1.1,1.1,0,0,0,.72-.2.59.59,0,0,0,.23-.46.43.43,0,0,0-.21-.37,3.07,3.07,0,0,0-.72-.24,6.56,6.56,0,0,1-1.07-.34,1,1,0,0,1-.45-.39,1,1,0,0,1-.15-.56,1.06,1.06,0,0,1,.13-.51,1.15,1.15,0,0,1,.35-.39,1.44,1.44,0,0,1,.45-.21,2.14,2.14,0,0,1,.61-.08,2.4,2.4,0,0,1,.86.14,1.17,1.17,0,0,1,.54.38,1.48,1.48,0,0,1,.24.64l-.69.09a.75.75,0,0,0-.27-.5,1,1,0,0,0-.63-.18,1.15,1.15,0,0,0-.69.16.47.47,0,0,0-.21.38.39.39,0,0,0,.09.25.63.63,0,0,0,.27.19l.62.18a8.59,8.59,0,0,1,1,.33,1.06,1.06,0,0,1,.46.37,1,1,0,0,1,.17.6,1.18,1.18,0,0,1-.21.66,1.33,1.33,0,0,1-.59.48,2.16,2.16,0,0,1-.87.17,2,2,0,0,1-1.23-.34A1.56,1.56,0,0,1,181,91.66Z"/><path d="M188,92.9v-.61a1.52,1.52,0,0,1-1.32.7,1.68,1.68,0,0,1-.69-.14,1.13,1.13,0,0,1-.47-.35,1.33,1.33,0,0,1-.22-.52,3.6,3.6,0,0,1,0-.66V88.75h.7V91a4.13,4.13,0,0,0,0,.74.73.73,0,0,0,.28.44.87.87,0,0,0,.53.16,1.15,1.15,0,0,0,.59-.16.9.9,0,0,0,.39-.44A2.21,2.21,0,0,0,188,91V88.75h.7V92.9Z"/><path d="M189.74,92.9V87.17h.7V92.9Z"/><path d="M193.07,92.27l.1.62a2.59,2.59,0,0,1-.53.06,1.2,1.2,0,0,1-.59-.12.68.68,0,0,1-.3-.32,2.51,2.51,0,0,1-.09-.83V89.3h-.52v-.55h.52v-1l.7-.42v1.45h.71v.55h-.71v2.43a1.24,1.24,0,0,0,0,.39.29.29,0,0,0,.12.14.46.46,0,0,0,.24.05Z"/><path d="M196,88v-.81h.7V88Zm0,4.92V88.75h.7V92.9Z"/><path d="M197.76,92.9V88.75h.63v.59a1.49,1.49,0,0,1,1.32-.68,1.73,1.73,0,0,1,.69.13,1.09,1.09,0,0,1,.47.35,1.36,1.36,0,0,1,.22.52,4,4,0,0,1,0,.68V92.9h-.7V90.37a1.89,1.89,0,0,0-.08-.64.68.68,0,0,0-.29-.34.92.92,0,0,0-.49-.13,1.14,1.14,0,0,0-.78.29,1.41,1.41,0,0,0-.33,1.08V92.9Z"/><path d="M207.12,92.9v-.52A1.29,1.29,0,0,1,206,93a1.62,1.62,0,0,1-.91-.27,1.8,1.8,0,0,1-.64-.76,2.64,2.64,0,0,1-.23-1.13,3,3,0,0,1,.21-1.13,1.63,1.63,0,0,1,.62-.78,1.66,1.66,0,0,1,.93-.27,1.38,1.38,0,0,1,1.14.57V87.17h.7V92.9Zm-2.22-2.07a1.8,1.8,0,0,0,.34,1.19,1,1,0,0,0,.79.39,1,1,0,0,0,.78-.38,1.74,1.74,0,0,0,.32-1.15,2,2,0,0,0-.33-1.25,1,1,0,0,0-.81-.4,1,1,0,0,0-.78.38A1.89,1.89,0,0,0,204.9,90.83Z"/><path d="M211.72,91.56l.73.09a1.77,1.77,0,0,1-.64,1,2.16,2.16,0,0,1-2.63-.21,2.19,2.19,0,0,1-.53-1.57,2.29,2.29,0,0,1,.54-1.62,1.82,1.82,0,0,1,1.4-.58,1.77,1.77,0,0,1,1.36.57,2.25,2.25,0,0,1,.53,1.59s0,.1,0,.19h-3.09a1.6,1.6,0,0,0,.39,1,1.15,1.15,0,0,0,.87.36,1.07,1.07,0,0,0,.66-.2A1.35,1.35,0,0,0,211.72,91.56Zm-2.31-1.14h2.32a1.41,1.41,0,0,0-.27-.79,1.08,1.08,0,0,0-.87-.41,1.12,1.12,0,0,0-.81.32A1.28,1.28,0,0,0,209.41,90.42Z"/><path d="M216,92.39a2.6,2.6,0,0,1-.75.47,2.18,2.18,0,0,1-.78.14,1.51,1.51,0,0,1-1.05-.33,1.1,1.1,0,0,1-.37-.85,1.13,1.13,0,0,1,.14-.56,1.15,1.15,0,0,1,.36-.4,1.7,1.7,0,0,1,.51-.23,5.15,5.15,0,0,1,.63-.11,6.41,6.41,0,0,0,1.25-.24c0-.1,0-.16,0-.18a.78.78,0,0,0-.2-.61,1.17,1.17,0,0,0-.8-.24,1.24,1.24,0,0,0-.73.17,1.06,1.06,0,0,0-.35.62l-.69-.09a1.7,1.7,0,0,1,.31-.71,1.36,1.36,0,0,1,.62-.42,2.77,2.77,0,0,1,.94-.15,2.5,2.5,0,0,1,.86.13,1.14,1.14,0,0,1,.49.31,1.11,1.11,0,0,1,.22.48,4,4,0,0,1,0,.65v.94a9.88,9.88,0,0,0,0,1.24,1.57,1.57,0,0,0,.18.5h-.73A1.47,1.47,0,0,1,216,92.39ZM216,90.82a5.15,5.15,0,0,1-1.15.27,2.7,2.7,0,0,0-.61.14.61.61,0,0,0-.28.23.62.62,0,0,0,.12.8.92.92,0,0,0,.62.19,1.45,1.45,0,0,0,.72-.18,1.09,1.09,0,0,0,.46-.49,1.71,1.71,0,0,0,.11-.7Z"/><path d="M219.31,92.27l.1.62a2.59,2.59,0,0,1-.53.06,1.2,1.2,0,0,1-.59-.12.68.68,0,0,1-.3-.32,2.51,2.51,0,0,1-.09-.83V89.3h-.52v-.55h.52v-1l.7-.42v1.45h.71v.55h-.71v2.43a1.24,1.24,0,0,0,0,.39.29.29,0,0,0,.12.14.46.46,0,0,0,.24.05Z"/><path d="M220,92.9V87.17h.7v2.05a1.57,1.57,0,0,1,1.24-.57,1.67,1.67,0,0,1,.8.18,1.07,1.07,0,0,1,.49.5,2.32,2.32,0,0,1,.15.93V92.9h-.7V90.27a1.09,1.09,0,0,0-.23-.77.85.85,0,0,0-.65-.24,1.14,1.14,0,0,0-.59.16.92.92,0,0,0-.39.44,2,2,0,0,0-.12.77V92.9Z"/><path d="M90.34,100.42A2.14,2.14,0,0,1,91,98.72a1.93,1.93,0,0,1,1.3-.46,1.86,1.86,0,0,1,1.4.56,2.13,2.13,0,0,1,.54,1.55,2.74,2.74,0,0,1-.24,1.26,1.7,1.7,0,0,1-.7.71,2,2,0,0,1-1,.25,1.87,1.87,0,0,1-1.41-.56A2.23,2.23,0,0,1,90.34,100.42Zm.72,0a1.77,1.77,0,0,0,.35,1.19,1.16,1.16,0,0,0,1.75,0,1.81,1.81,0,0,0,.35-1.21,1.72,1.72,0,0,0-.35-1.17,1.16,1.16,0,0,0-1.74,0A1.76,1.76,0,0,0,91.06,100.42Z"/><path d="M95,102.5V98.35h.63V99a1.72,1.72,0,0,1,.45-.58.78.78,0,0,1,.45-.14,1.37,1.37,0,0,1,.72.23l-.24.65a1,1,0,0,0-.52-.15.67.67,0,0,0-.41.14.75.75,0,0,0-.26.38,2.74,2.74,0,0,0-.12.82v2.17Z"/><path d="M99.65,101.26l.7-.11a1,1,0,0,0,.33.64,1.14,1.14,0,0,0,.75.22,1.1,1.1,0,0,0,.72-.2.59.59,0,0,0,.23-.46.43.43,0,0,0-.21-.37,3.06,3.06,0,0,0-.72-.24,6.56,6.56,0,0,1-1.07-.34,1,1,0,0,1-.61-1,1.07,1.07,0,0,1,.13-.51,1.14,1.14,0,0,1,.35-.39,1.43,1.43,0,0,1,.45-.21,2.14,2.14,0,0,1,.61-.08,2.4,2.4,0,0,1,.86.14,1.17,1.17,0,0,1,.54.38,1.49,1.49,0,0,1,.24.64l-.69.09A.75.75,0,0,0,102,99a1,1,0,0,0-.63-.18,1.15,1.15,0,0,0-.69.16.46.46,0,0,0-.21.38.39.39,0,0,0,.09.25.62.62,0,0,0,.27.19l.62.18a8.59,8.59,0,0,1,1,.33,1.06,1.06,0,0,1,.46.37,1,1,0,0,1,.17.6,1.18,1.18,0,0,1-.21.66,1.33,1.33,0,0,1-.59.48,2.15,2.15,0,0,1-.87.17,2,2,0,0,1-1.23-.34A1.56,1.56,0,0,1,99.65,101.26Z"/><path d="M106.78,101.16l.73.09a1.77,1.77,0,0,1-.64,1,2.16,2.16,0,0,1-2.63-.21,2.19,2.19,0,0,1-.53-1.57,2.29,2.29,0,0,1,.54-1.62,1.82,1.82,0,0,1,1.4-.58,1.77,1.77,0,0,1,1.36.57,2.25,2.25,0,0,1,.53,1.59s0,.1,0,.19h-3.09a1.59,1.59,0,0,0,.39,1,1.15,1.15,0,0,0,.87.36,1.07,1.07,0,0,0,.66-.2A1.35,1.35,0,0,0,106.78,101.16ZM104.47,100h2.32a1.41,1.41,0,0,0-.27-.79,1.08,1.08,0,0,0-.87-.41,1.12,1.12,0,0,0-.81.32A1.28,1.28,0,0,0,104.47,100Z"/><path d="M108.38,102.5V98.35H109V99a1.72,1.72,0,0,1,.45-.58.78.78,0,0,1,.45-.14,1.37,1.37,0,0,1,.72.23l-.24.65a1,1,0,0,0-.52-.15.67.67,0,0,0-.41.14.75.75,0,0,0-.26.38,2.74,2.74,0,0,0-.12.82v2.17Z"/><path d="M111.05,97.58v-.81h.7v.81Zm0,4.92V98.35h.7v4.15Z"/><path d="M112.56,100.42a2.14,2.14,0,0,1,.64-1.71,1.93,1.93,0,0,1,1.3-.46,1.86,1.86,0,0,1,1.4.56,2.13,2.13,0,0,1,.54,1.55,2.74,2.74,0,0,1-.24,1.26,1.7,1.7,0,0,1-.7.71,2,2,0,0,1-1,.25,1.87,1.87,0,0,1-1.41-.56A2.23,2.23,0,0,1,112.56,100.42Zm.72,0a1.77,1.77,0,0,0,.35,1.19,1.16,1.16,0,0,0,1.75,0,1.81,1.81,0,0,0,.35-1.21,1.71,1.71,0,0,0-.35-1.17,1.16,1.16,0,0,0-1.74,0A1.76,1.76,0,0,0,113.29,100.42Z"/><path d="M120,102.5v-.61a1.52,1.52,0,0,1-1.32.7,1.68,1.68,0,0,1-.69-.14,1.13,1.13,0,0,1-.47-.35,1.33,1.33,0,0,1-.22-.52,3.6,3.6,0,0,1,0-.66V98.35h.7v2.3a4.13,4.13,0,0,0,0,.74.73.73,0,0,0,.28.44.87.87,0,0,0,.53.16,1.15,1.15,0,0,0,.59-.16.9.9,0,0,0,.39-.44,2.21,2.21,0,0,0,.12-.81V98.35h.7v4.15Z"/><path d="M121.44,101.26l.7-.11a1,1,0,0,0,.33.64,1.14,1.14,0,0,0,.75.22,1.1,1.1,0,0,0,.72-.2.59.59,0,0,0,.23-.46A.43.43,0,0,0,124,101a3.07,3.07,0,0,0-.72-.24,6.56,6.56,0,0,1-1.07-.34,1,1,0,0,1-.45-.39,1,1,0,0,1-.15-.56,1.06,1.06,0,0,1,.13-.51,1.15,1.15,0,0,1,.35-.39,1.44,1.44,0,0,1,.45-.21,2.14,2.14,0,0,1,.61-.08,2.4,2.4,0,0,1,.86.14,1.17,1.17,0,0,1,.54.38,1.48,1.48,0,0,1,.24.64l-.69.09a.75.75,0,0,0-.27-.5,1,1,0,0,0-.63-.18,1.15,1.15,0,0,0-.69.16.47.47,0,0,0-.21.38.39.39,0,0,0,.09.25.63.63,0,0,0,.27.19l.62.18a8.59,8.59,0,0,1,1,.33,1.06,1.06,0,0,1,.46.37,1,1,0,0,1,.17.6,1.18,1.18,0,0,1-.21.66,1.33,1.33,0,0,1-.59.48,2.16,2.16,0,0,1-.87.17,2,2,0,0,1-1.23-.34A1.56,1.56,0,0,1,121.44,101.26Z"/><path d="M128,97.58v-.81h.7v.81Zm0,4.92V98.35h.7v4.15Z"/><path d="M129.72,102.5V98.35h.63v.59a1.49,1.49,0,0,1,1.32-.68,1.73,1.73,0,0,1,.69.13,1.09,1.09,0,0,1,.47.35,1.36,1.36,0,0,1,.22.52,4,4,0,0,1,0,.68v2.55h-.7V100a1.89,1.89,0,0,0-.08-.64A.68.68,0,0,0,132,99a.92.92,0,0,0-.49-.13,1.14,1.14,0,0,0-.78.29,1.41,1.41,0,0,0-.33,1.08v2.27Z"/><path d="M133.28,104.11l.13-.6a1.43,1.43,0,0,0,.33.05.37.37,0,0,0,.32-.14,1.46,1.46,0,0,0,.11-.71V98.35h.7v4.37a2.05,2.05,0,0,1-.2,1.07.93.93,0,0,1-.84.39A2,2,0,0,1,133.28,104.11Zm.89-6.52v-.82h.7v.82Z"/><path d="M138.67,102.5v-.61a1.52,1.52,0,0,1-1.32.7,1.68,1.68,0,0,1-.69-.14,1.13,1.13,0,0,1-.47-.35,1.33,1.33,0,0,1-.22-.52,3.6,3.6,0,0,1,0-.66V98.35h.7v2.3a4.13,4.13,0,0,0,0,.74.73.73,0,0,0,.28.44.87.87,0,0,0,.53.16,1.15,1.15,0,0,0,.59-.16.9.9,0,0,0,.39-.44,2.21,2.21,0,0,0,.12-.81V98.35h.7v4.15Z"/><path d="M140.39,102.5V98.35H141V99a1.72,1.72,0,0,1,.45-.58.78.78,0,0,1,.45-.14,1.37,1.37,0,0,1,.72.23l-.24.65a1,1,0,0,0-.52-.15.67.67,0,0,0-.41.14.75.75,0,0,0-.26.38,2.74,2.74,0,0,0-.12.82v2.17Z"/><path d="M143,104.1l-.08-.66a1.55,1.55,0,0,0,.4.06.78.78,0,0,0,.38-.08.63.63,0,0,0,.23-.22,3.46,3.46,0,0,0,.21-.52l.06-.17-1.57-4.16h.76l.86,2.4q.17.46.3,1a9.46,9.46,0,0,1,.29-.95l.89-2.42h.7l-1.58,4.22a8.19,8.19,0,0,1-.39.94,1.4,1.4,0,0,1-.43.51,1,1,0,0,1-.58.16A1.4,1.4,0,0,1,143,104.1Z"/><path d="M146.67,102.5v-.8h.8v.8Z"/><path d="M92.15,118v-5.05H90.26v-.68H94.8v.68H92.9V118Z"/><path d="M95.49,118v-5.73h.7v2.05a1.57,1.57,0,0,1,1.24-.57,1.68,1.68,0,0,1,.8.18,1.07,1.07,0,0,1,.49.5,2.32,2.32,0,0,1,.15.93V118h-.7v-2.63a1.09,1.09,0,0,0-.23-.77.85.85,0,0,0-.65-.24,1.14,1.14,0,0,0-.59.16.92.92,0,0,0-.39.44,2,2,0,0,0-.12.77V118Z"/><path d="M99.94,113v-.81h.7V113Zm0,4.92v-4.15h.7V118Z"/><path d="M101.43,116.73l.7-.11a1,1,0,0,0,.33.64,1.14,1.14,0,0,0,.75.22,1.1,1.1,0,0,0,.72-.2.59.59,0,0,0,.23-.46.43.43,0,0,0-.21-.37,3.06,3.06,0,0,0-.72-.24,6.56,6.56,0,0,1-1.07-.34,1,1,0,0,1-.61-1,1.07,1.07,0,0,1,.13-.51A1.14,1.14,0,0,1,102,114a1.43,1.43,0,0,1,.45-.21,2.14,2.14,0,0,1,.61-.08,2.4,2.4,0,0,1,.86.14,1.17,1.17,0,0,1,.54.38,1.49,1.49,0,0,1,.24.64L104,115a.75.75,0,0,0-.27-.5,1,1,0,0,0-.63-.18,1.15,1.15,0,0,0-.69.16.46.46,0,0,0-.21.38.39.39,0,0,0,.09.25.62.62,0,0,0,.27.19l.62.18a8.59,8.59,0,0,1,1,.33,1.06,1.06,0,0,1,.46.37,1,1,0,0,1,.17.6,1.18,1.18,0,0,1-.21.66,1.33,1.33,0,0,1-.59.48,2.15,2.15,0,0,1-.87.17,2,2,0,0,1-1.23-.34A1.56,1.56,0,0,1,101.43,116.73Z"/><path d="M107.94,118v-4.15h.63v.58a1.48,1.48,0,0,1,.52-.49,1.46,1.46,0,0,1,.74-.19,1.36,1.36,0,0,1,.76.19,1,1,0,0,1,.42.54,1.49,1.49,0,0,1,1.28-.73,1.26,1.26,0,0,1,.95.34,1.46,1.46,0,0,1,.33,1.05V118h-.7v-2.61a1.93,1.93,0,0,0-.07-.61.59.59,0,0,0-.25-.3.78.78,0,0,0-.42-.11,1,1,0,0,0-.73.29,1.28,1.28,0,0,0-.29.93V118h-.7v-2.7a1.18,1.18,0,0,0-.17-.7.65.65,0,0,0-.56-.23,1,1,0,0,0-.55.16.89.89,0,0,0-.37.46,2.57,2.57,0,0,0-.11.87V118Z"/><path d="M117.31,117.45a2.6,2.6,0,0,1-.75.47,2.18,2.18,0,0,1-.78.14,1.51,1.51,0,0,1-1.05-.33,1.1,1.1,0,0,1-.37-.85,1.13,1.13,0,0,1,.14-.56,1.15,1.15,0,0,1,.36-.4,1.7,1.7,0,0,1,.51-.23,5.15,5.15,0,0,1,.63-.11,6.41,6.41,0,0,0,1.25-.24c0-.1,0-.16,0-.18a.78.78,0,0,0-.2-.61,1.17,1.17,0,0,0-.8-.24,1.24,1.24,0,0,0-.73.17,1.06,1.06,0,0,0-.35.62l-.69-.09a1.7,1.7,0,0,1,.31-.71,1.36,1.36,0,0,1,.62-.42,2.77,2.77,0,0,1,.94-.15,2.5,2.5,0,0,1,.86.13,1.14,1.14,0,0,1,.49.31,1.11,1.11,0,0,1,.22.48,4,4,0,0,1,0,.65v.94a9.88,9.88,0,0,0,0,1.24,1.57,1.57,0,0,0,.18.5h-.73A1.47,1.47,0,0,1,117.31,117.45Zm-.06-1.57a5.15,5.15,0,0,1-1.15.27,2.7,2.7,0,0,0-.61.14.61.61,0,0,0-.28.23.62.62,0,0,0,.12.8.92.92,0,0,0,.62.19,1.45,1.45,0,0,0,.72-.18,1.09,1.09,0,0,0,.46-.49,1.71,1.71,0,0,0,.11-.7Z"/><path d="M119,118v-4.15h.63v.59a1.49,1.49,0,0,1,1.32-.68,1.73,1.73,0,0,1,.69.13,1.09,1.09,0,0,1,.47.35,1.36,1.36,0,0,1,.22.52,4,4,0,0,1,0,.68V118h-.7v-2.52a1.89,1.89,0,0,0-.08-.64.68.68,0,0,0-.29-.34.92.92,0,0,0-.49-.13,1.14,1.14,0,0,0-.78.29,1.41,1.41,0,0,0-.33,1.08V118Z"/><path d="M126.22,118v-.61a1.52,1.52,0,0,1-1.32.7,1.68,1.68,0,0,1-.69-.14,1.13,1.13,0,0,1-.47-.35,1.33,1.33,0,0,1-.22-.52,3.6,3.6,0,0,1,0-.66v-2.57h.7v2.3a4.13,4.13,0,0,0,0,.74.73.73,0,0,0,.28.44.87.87,0,0,0,.53.16,1.15,1.15,0,0,0,.59-.16.9.9,0,0,0,.39-.44,2.21,2.21,0,0,0,.12-.81v-2.22h.7V118Z"/><path d="M130.65,117.45a2.6,2.6,0,0,1-.75.47,2.18,2.18,0,0,1-.78.14,1.51,1.51,0,0,1-1.05-.33,1.1,1.1,0,0,1-.37-.85,1.13,1.13,0,0,1,.14-.56,1.15,1.15,0,0,1,.36-.4,1.7,1.7,0,0,1,.51-.23,5.15,5.15,0,0,1,.63-.11,6.41,6.41,0,0,0,1.25-.24c0-.1,0-.16,0-.18a.78.78,0,0,0-.2-.61,1.17,1.17,0,0,0-.8-.24,1.24,1.24,0,0,0-.73.17,1.06,1.06,0,0,0-.35.62l-.69-.09a1.7,1.7,0,0,1,.31-.71,1.36,1.36,0,0,1,.62-.42,2.77,2.77,0,0,1,.94-.15,2.5,2.5,0,0,1,.86.13,1.14,1.14,0,0,1,.49.31,1.11,1.11,0,0,1,.22.48,4,4,0,0,1,0,.65v.94a9.88,9.88,0,0,0,0,1.24,1.57,1.57,0,0,0,.18.5h-.73A1.47,1.47,0,0,1,130.65,117.45Zm-.06-1.57a5.15,5.15,0,0,1-1.15.27,2.7,2.7,0,0,0-.61.14.61.61,0,0,0-.28.23.62.62,0,0,0,.12.8.92.92,0,0,0,.62.19,1.45,1.45,0,0,0,.72-.18,1.09,1.09,0,0,0,.46-.49,1.71,1.71,0,0,0,.11-.7Z"/><path d="M132.38,118v-5.73h.7V118Z"/><path d="M136.4,118v-4.15H137v.58a1.48,1.48,0,0,1,.52-.49,1.45,1.45,0,0,1,.74-.19,1.36,1.36,0,0,1,.76.19,1,1,0,0,1,.42.54,1.49,1.49,0,0,1,1.28-.73,1.27,1.27,0,0,1,.95.34,1.46,1.46,0,0,1,.33,1.05V118h-.7v-2.61a1.92,1.92,0,0,0-.07-.61.59.59,0,0,0-.25-.3.78.78,0,0,0-.42-.11,1,1,0,0,0-.73.29,1.28,1.28,0,0,0-.29.93V118h-.7v-2.7a1.19,1.19,0,0,0-.17-.7.65.65,0,0,0-.56-.23,1,1,0,0,0-.55.16.89.89,0,0,0-.37.46,2.58,2.58,0,0,0-.11.87V118Z"/><path d="M145.78,118v-.61a1.52,1.52,0,0,1-1.32.7,1.68,1.68,0,0,1-.69-.14,1.13,1.13,0,0,1-.47-.35,1.33,1.33,0,0,1-.22-.52,3.6,3.6,0,0,1,0-.66v-2.57h.7v2.3a4.13,4.13,0,0,0,0,.74.73.73,0,0,0,.28.44.87.87,0,0,0,.53.16,1.15,1.15,0,0,0,.59-.16.9.9,0,0,0,.39-.44,2.21,2.21,0,0,0,.12-.81v-2.22h.7V118Z"/><path d="M147.23,116.73l.7-.11a1,1,0,0,0,.33.64,1.14,1.14,0,0,0,.75.22,1.1,1.1,0,0,0,.72-.2.59.59,0,0,0,.23-.46.43.43,0,0,0-.21-.37,3.07,3.07,0,0,0-.72-.24,6.56,6.56,0,0,1-1.07-.34,1,1,0,0,1-.45-.39,1,1,0,0,1-.15-.56,1.06,1.06,0,0,1,.13-.51,1.15,1.15,0,0,1,.35-.39,1.44,1.44,0,0,1,.45-.21,2.14,2.14,0,0,1,.61-.08,2.4,2.4,0,0,1,.86.14,1.17,1.17,0,0,1,.54.38,1.48,1.48,0,0,1,.24.64l-.69.09a.75.75,0,0,0-.27-.5,1,1,0,0,0-.63-.18,1.15,1.15,0,0,0-.69.16.47.47,0,0,0-.21.38.39.39,0,0,0,.09.25.63.63,0,0,0,.27.19l.62.18a8.59,8.59,0,0,1,1,.33,1.06,1.06,0,0,1,.46.37,1,1,0,0,1,.17.6,1.18,1.18,0,0,1-.21.66,1.33,1.33,0,0,1-.59.48,2.16,2.16,0,0,1-.87.17,2,2,0,0,1-1.23-.34A1.56,1.56,0,0,1,147.23,116.73Z"/><path d="M153,117.33l.1.62a2.59,2.59,0,0,1-.53.06,1.2,1.2,0,0,1-.59-.12.68.68,0,0,1-.3-.32,2.51,2.51,0,0,1-.09-.83v-2.39h-.52v-.55h.52v-1l.7-.42v1.45H153v.55h-.71v2.43a1.24,1.24,0,0,0,0,.39.29.29,0,0,0,.12.14.46.46,0,0,0,.24.05Z"/><path d="M155.95,118v-4.15h.63v.63a1.72,1.72,0,0,1,.45-.58.78.78,0,0,1,.45-.14,1.37,1.37,0,0,1,.72.23l-.24.65a1,1,0,0,0-.52-.15.67.67,0,0,0-.41.14.75.75,0,0,0-.26.38,2.74,2.74,0,0,0-.12.82V118Z"/><path d="M161.46,116.63l.73.09a1.77,1.77,0,0,1-.64,1,2.16,2.16,0,0,1-2.63-.21,2.19,2.19,0,0,1-.53-1.57,2.29,2.29,0,0,1,.54-1.62,1.82,1.82,0,0,1,1.4-.58,1.77,1.77,0,0,1,1.36.57,2.25,2.25,0,0,1,.53,1.59s0,.1,0,.19h-3.09a1.6,1.6,0,0,0,.39,1,1.15,1.15,0,0,0,.87.36,1.07,1.07,0,0,0,.66-.2A1.35,1.35,0,0,0,161.46,116.63Zm-2.31-1.14h2.32a1.41,1.41,0,0,0-.27-.79,1.08,1.08,0,0,0-.87-.41,1.12,1.12,0,0,0-.81.32A1.28,1.28,0,0,0,159.15,115.49Z"/><path d="M163.07,118v-4.15h.63v.58a1.48,1.48,0,0,1,.52-.49,1.45,1.45,0,0,1,.74-.19,1.36,1.36,0,0,1,.76.19,1,1,0,0,1,.42.54,1.49,1.49,0,0,1,1.28-.73,1.27,1.27,0,0,1,.95.34,1.46,1.46,0,0,1,.33,1.05V118H168v-2.61a1.92,1.92,0,0,0-.07-.61.59.59,0,0,0-.25-.3.78.78,0,0,0-.42-.11,1,1,0,0,0-.73.29,1.28,1.28,0,0,0-.29.93V118h-.7v-2.7a1.19,1.19,0,0,0-.17-.7.65.65,0,0,0-.56-.23,1,1,0,0,0-.55.16.89.89,0,0,0-.37.46,2.58,2.58,0,0,0-.11.87V118Z"/><path d="M172.44,117.45a2.6,2.6,0,0,1-.75.47,2.18,2.18,0,0,1-.78.14,1.51,1.51,0,0,1-1.05-.33,1.1,1.1,0,0,1-.37-.85,1.13,1.13,0,0,1,.14-.56,1.15,1.15,0,0,1,.36-.4,1.7,1.7,0,0,1,.51-.23,5.15,5.15,0,0,1,.63-.11,6.41,6.41,0,0,0,1.25-.24c0-.1,0-.16,0-.18a.78.78,0,0,0-.2-.61,1.17,1.17,0,0,0-.8-.24,1.24,1.24,0,0,0-.73.17,1.06,1.06,0,0,0-.35.62l-.69-.09a1.7,1.7,0,0,1,.31-.71,1.36,1.36,0,0,1,.62-.42,2.77,2.77,0,0,1,.94-.15,2.5,2.5,0,0,1,.86.13,1.14,1.14,0,0,1,.49.31,1.11,1.11,0,0,1,.22.48,4,4,0,0,1,0,.65v.94a9.88,9.88,0,0,0,0,1.24,1.57,1.57,0,0,0,.18.5h-.73A1.47,1.47,0,0,1,172.44,117.45Zm-.06-1.57a5.15,5.15,0,0,1-1.15.27,2.7,2.7,0,0,0-.61.14.61.61,0,0,0-.28.23.62.62,0,0,0,.12.8.92.92,0,0,0,.62.19,1.45,1.45,0,0,0,.72-.18,1.09,1.09,0,0,0,.46-.49,1.71,1.71,0,0,0,.11-.7Z"/><path d="M174.19,113v-.81h.7V113Zm0,4.92v-4.15h.7V118Z"/><path d="M176,118v-4.15h.63v.59a1.49,1.49,0,0,1,1.32-.68,1.73,1.73,0,0,1,.69.13,1.09,1.09,0,0,1,.47.35,1.36,1.36,0,0,1,.22.52,4,4,0,0,1,0,.68V118h-.7v-2.52a1.89,1.89,0,0,0-.08-.64.68.68,0,0,0-.29-.34.92.92,0,0,0-.49-.13,1.14,1.14,0,0,0-.78.29,1.41,1.41,0,0,0-.33,1.08V118Z"/><path d="M183.4,118l-1.27-4.15h.73l.66,2.39.25.89.21-.86.66-2.43h.72l.62,2.41.21.79.24-.8.71-2.4h.68l-1.3,4.15h-.73l-.66-2.48-.16-.71-.84,3.19Z"/><path d="M188.41,113v-.81h.7V113Zm0,4.92v-4.15h.7V118Z"/><path d="M191.72,117.33l.1.62a2.59,2.59,0,0,1-.53.06,1.2,1.2,0,0,1-.59-.12.68.68,0,0,1-.3-.32,2.51,2.51,0,0,1-.09-.83v-2.39h-.52v-.55h.52v-1l.7-.42v1.45h.71v.55H191v2.43a1.24,1.24,0,0,0,0,.39.29.29,0,0,0,.12.14.46.46,0,0,0,.24.05Z"/><path d="M192.41,118v-5.73h.7v2.05a1.57,1.57,0,0,1,1.24-.57,1.67,1.67,0,0,1,.8.18,1.07,1.07,0,0,1,.49.5,2.32,2.32,0,0,1,.15.93V118h-.7v-2.63a1.09,1.09,0,0,0-.23-.77.85.85,0,0,0-.65-.24,1.14,1.14,0,0,0-.59.16.92.92,0,0,0-.39.44,2,2,0,0,0-.12.77V118Z"/><path d="M200.62,117.33l.1.62a2.59,2.59,0,0,1-.53.06,1.2,1.2,0,0,1-.59-.12.68.68,0,0,1-.3-.32,2.51,2.51,0,0,1-.09-.83v-2.39h-.52v-.55h.52v-1l.7-.42v1.45h.71v.55h-.71v2.43a1.24,1.24,0,0,0,0,.39.29.29,0,0,0,.12.14.46.46,0,0,0,.24.05Z"/><path d="M201.3,118v-5.73h.7v2.05a1.57,1.57,0,0,1,1.24-.57,1.67,1.67,0,0,1,.8.18,1.07,1.07,0,0,1,.49.5,2.32,2.32,0,0,1,.15.93V118H204v-2.63a1.09,1.09,0,0,0-.23-.77.85.85,0,0,0-.65-.24,1.14,1.14,0,0,0-.59.16.92.92,0,0,0-.39.44,2,2,0,0,0-.12.77V118Z"/><path d="M208.59,116.63l.73.09a1.77,1.77,0,0,1-.64,1,2.16,2.16,0,0,1-2.63-.21,2.19,2.19,0,0,1-.53-1.57,2.29,2.29,0,0,1,.54-1.62,1.82,1.82,0,0,1,1.4-.58,1.77,1.77,0,0,1,1.36.57,2.25,2.25,0,0,1,.53,1.59s0,.1,0,.19h-3.09a1.6,1.6,0,0,0,.39,1,1.15,1.15,0,0,0,.87.36,1.07,1.07,0,0,0,.66-.2A1.35,1.35,0,0,0,208.59,116.63Zm-2.31-1.14h2.32a1.41,1.41,0,0,0-.27-.79,1.08,1.08,0,0,0-.87-.41,1.12,1.12,0,0,0-.81.32A1.28,1.28,0,0,0,206.28,115.49Z"/><path d="M91.37,127.56l-1.27-4.15h.73l.66,2.39.25.89.21-.86.66-2.43h.72l.62,2.41.21.79.24-.8.71-2.4h.68l-1.3,4.15h-.73l-.66-2.48-.16-.71-.84,3.19Z"/><path d="M99.08,127.05a2.6,2.6,0,0,1-.75.47,2.18,2.18,0,0,1-.78.14,1.51,1.51,0,0,1-1.05-.33,1.1,1.1,0,0,1-.37-.85,1.16,1.16,0,0,1,.5-1,1.7,1.7,0,0,1,.51-.23,5.15,5.15,0,0,1,.63-.11,6.4,6.4,0,0,0,1.25-.24c0-.1,0-.16,0-.18a.78.78,0,0,0-.2-.61,1.18,1.18,0,0,0-.8-.24,1.24,1.24,0,0,0-.73.17,1.06,1.06,0,0,0-.35.62l-.69-.09a1.71,1.71,0,0,1,.31-.71,1.35,1.35,0,0,1,.62-.42,2.77,2.77,0,0,1,.94-.15,2.5,2.5,0,0,1,.86.13,1.14,1.14,0,0,1,.49.31,1.11,1.11,0,0,1,.22.48,4,4,0,0,1,0,.65v.94a10,10,0,0,0,0,1.24,1.57,1.57,0,0,0,.18.5h-.73A1.5,1.5,0,0,1,99.08,127.05ZM99,125.48a5.16,5.16,0,0,1-1.15.27,2.69,2.69,0,0,0-.61.14.6.6,0,0,0-.37.56.6.6,0,0,0,.21.47.92.92,0,0,0,.62.19,1.45,1.45,0,0,0,.72-.18,1.09,1.09,0,0,0,.46-.49,1.7,1.7,0,0,0,.11-.7Z"/><path d="M102.36,126.93l.1.62a2.58,2.58,0,0,1-.53.06,1.2,1.2,0,0,1-.59-.12.68.68,0,0,1-.3-.32,2.52,2.52,0,0,1-.09-.83V124h-.52v-.55H101v-1l.7-.42v1.45h.71V124h-.71v2.43a1.22,1.22,0,0,0,0,.39.29.29,0,0,0,.12.14.47.47,0,0,0,.24.05Z"/><path d="M105.89,126.23l.73.09a1.77,1.77,0,0,1-.64,1,2.16,2.16,0,0,1-2.63-.21,2.19,2.19,0,0,1-.53-1.57,2.29,2.29,0,0,1,.54-1.62,1.82,1.82,0,0,1,1.4-.58,1.77,1.77,0,0,1,1.36.57,2.25,2.25,0,0,1,.53,1.59s0,.1,0,.19h-3.09a1.59,1.59,0,0,0,.39,1,1.15,1.15,0,0,0,.87.36,1.07,1.07,0,0,0,.66-.2A1.35,1.35,0,0,0,105.89,126.23Zm-2.31-1.14h2.32a1.41,1.41,0,0,0-.27-.79,1.08,1.08,0,0,0-.87-.41,1.12,1.12,0,0,0-.81.32A1.28,1.28,0,0,0,103.58,125.09Z"/><path d="M107.49,127.56v-4.15h.63V124a1.72,1.72,0,0,1,.45-.58.78.78,0,0,1,.45-.14,1.37,1.37,0,0,1,.72.23l-.24.65A1,1,0,0,0,109,124a.67.67,0,0,0-.41.14.75.75,0,0,0-.26.38,2.74,2.74,0,0,0-.12.82v2.17Z"/><path d="M112.38,127.56v-5.73h.7v2.05a1.57,1.57,0,0,1,1.24-.57,1.67,1.67,0,0,1,.8.18,1.07,1.07,0,0,1,.49.5,2.32,2.32,0,0,1,.15.93v2.63h-.7v-2.63a1.09,1.09,0,0,0-.23-.77.85.85,0,0,0-.65-.24,1.14,1.14,0,0,0-.59.16.92.92,0,0,0-.39.44,2,2,0,0,0-.12.77v2.27Z"/><path d="M119.67,126.23l.73.09a1.77,1.77,0,0,1-.64,1,2.16,2.16,0,0,1-2.63-.21,2.19,2.19,0,0,1-.53-1.57,2.29,2.29,0,0,1,.54-1.62,1.82,1.82,0,0,1,1.4-.58,1.77,1.77,0,0,1,1.36.57,2.25,2.25,0,0,1,.53,1.59s0,.1,0,.19h-3.09a1.6,1.6,0,0,0,.39,1,1.15,1.15,0,0,0,.87.36,1.07,1.07,0,0,0,.66-.2A1.35,1.35,0,0,0,119.67,126.23Zm-2.31-1.14h2.32a1.41,1.41,0,0,0-.27-.79,1.08,1.08,0,0,0-.87-.41,1.12,1.12,0,0,0-.81.32A1.28,1.28,0,0,0,117.37,125.09Z"/><path d="M124,127.05a2.6,2.6,0,0,1-.75.47,2.18,2.18,0,0,1-.78.14,1.51,1.51,0,0,1-1.05-.33,1.1,1.1,0,0,1-.37-.85,1.13,1.13,0,0,1,.14-.56,1.15,1.15,0,0,1,.36-.4,1.7,1.7,0,0,1,.51-.23,5.15,5.15,0,0,1,.63-.11,6.41,6.41,0,0,0,1.25-.24c0-.1,0-.16,0-.18a.78.78,0,0,0-.2-.61,1.17,1.17,0,0,0-.8-.24,1.24,1.24,0,0,0-.73.17,1.06,1.06,0,0,0-.35.62l-.69-.09a1.7,1.7,0,0,1,.31-.71,1.36,1.36,0,0,1,.62-.42,2.77,2.77,0,0,1,.94-.15,2.5,2.5,0,0,1,.86.13,1.14,1.14,0,0,1,.49.31,1.11,1.11,0,0,1,.22.48,4,4,0,0,1,0,.65v.94a9.88,9.88,0,0,0,0,1.24,1.57,1.57,0,0,0,.18.5h-.73A1.47,1.47,0,0,1,124,127.05Zm-.06-1.57a5.15,5.15,0,0,1-1.15.27,2.7,2.7,0,0,0-.61.14.61.61,0,0,0-.28.23.62.62,0,0,0,.12.8.92.92,0,0,0,.62.19,1.45,1.45,0,0,0,.72-.18,1.09,1.09,0,0,0,.46-.49,1.71,1.71,0,0,0,.11-.7Z"/><path d="M127.27,126.93l.1.62a2.59,2.59,0,0,1-.53.06,1.2,1.2,0,0,1-.59-.12.68.68,0,0,1-.3-.32,2.51,2.51,0,0,1-.09-.83V124h-.52v-.55h.52v-1l.7-.42v1.45h.71V124h-.71v2.43a1.24,1.24,0,0,0,0,.39.29.29,0,0,0,.12.14.46.46,0,0,0,.24.05Z"/><path d="M130.79,126.23l.73.09a1.77,1.77,0,0,1-.64,1,2.16,2.16,0,0,1-2.63-.21,2.19,2.19,0,0,1-.53-1.57,2.29,2.29,0,0,1,.54-1.62,1.82,1.82,0,0,1,1.4-.58,1.77,1.77,0,0,1,1.36.57,2.25,2.25,0,0,1,.53,1.59s0,.1,0,.19h-3.09a1.6,1.6,0,0,0,.39,1,1.15,1.15,0,0,0,.87.36,1.07,1.07,0,0,0,.66-.2A1.35,1.35,0,0,0,130.79,126.23Zm-2.31-1.14h2.32a1.41,1.41,0,0,0-.27-.79,1.08,1.08,0,0,0-.87-.41,1.12,1.12,0,0,0-.81.32A1.28,1.28,0,0,0,128.49,125.09Z"/><path d="M132.4,127.56v-4.15H133V124a1.72,1.72,0,0,1,.45-.58.78.78,0,0,1,.45-.14,1.37,1.37,0,0,1,.72.23l-.24.65a1,1,0,0,0-.52-.15.67.67,0,0,0-.41.14.75.75,0,0,0-.26.38,2.74,2.74,0,0,0-.12.82v2.17Z"/><path d="M134.83,127.56v-.8h.8v.8Z"/></g><g id="warning_logo" data-name="warning logo"><path d="M214.67,15.86V13.52H221v5.54a8.13,8.13,0,0,1-2.7,1.5,10.32,10.32,0,0,1-3.57.65,8.41,8.41,0,0,1-4-.91,6,6,0,0,1-2.57-2.62,8.09,8.09,0,0,1-.86-3.7,7.69,7.69,0,0,1,1-3.86,6.31,6.31,0,0,1,2.81-2.58,7.9,7.9,0,0,1,3.51-.69,7.29,7.29,0,0,1,4.26,1.08,4.88,4.88,0,0,1,2,3l-2.94.52a3,3,0,0,0-1.17-1.62,3.64,3.64,0,0,0-2.13-.59,4.13,4.13,0,0,0-3.08,1.16,4.75,4.75,0,0,0-1.14,3.46,5.24,5.24,0,0,0,1.16,3.71,4,4,0,0,0,3,1.24,5.34,5.34,0,0,0,1.87-.35,6.56,6.56,0,0,0,1.6-.84V15.86M193.1,21V7.08H196l6,9.28V7.08h2.75V21h-3l-5.9-9.06V21Zm-5.81,0V7.08h3V21Zm-14.66,0V7.08h2.88l6,9.28V7.08h2.75V21h-3l-5.9-9.06V21Zm-11.84-8H163a12,12,0,0,0,2.66-.17,1.59,1.59,0,0,0,.83-.59,1.75,1.75,0,0,0,.3-1,1.61,1.61,0,0,0-.4-1.13,1.85,1.85,0,0,0-1.12-.55c-.24,0-1,0-2.16,0h-2.31Zm-3,8V7.08h6.23a11.19,11.19,0,0,1,3.41.38,3.33,3.33,0,0,1,1.71,1.33,3.85,3.85,0,0,1,.64,2.19,3.61,3.61,0,0,1-1,2.58,4.77,4.77,0,0,1-2.9,1.28A6.86,6.86,0,0,1,167.53,16a15.89,15.89,0,0,1,1.68,2.25L171,21h-3.54l-2.14-3a20.22,20.22,0,0,0-1.56-2,2.32,2.32,0,0,0-.89-.58,5.17,5.17,0,0,0-1.49-.16h-.6V21Zm-7-5.5-2-5.16-2,5.16Zm5.45,5.5H153l-1.28-3.16H145.9L144.69,21h-3.14l5.71-13.9h3.13Zm-29.32,0-3.5-13.9h3l2.21,9.54,2.68-9.54h3.52l2.57,9.71,2.25-9.71h3L139.1,21H136L133,10.58,130.14,21Zm-14.45-5.84a.52.52,0,0,1-.49.47h-.07a.47.47,0,0,1-.5-.47c-1.63-4.9-2.4-8.32.5-8.32S114,10.23,112.49,15.13Zm-.56,5.3a1.48,1.48,0,1,1,0-3H112A1.47,1.47,0,0,1,113.48,19,1.48,1.48,0,0,1,111.92,20.43Zm1.2-14.89a1.24,1.24,0,0,0-1.2-.81,1.12,1.12,0,0,0-1.13.81l-8.06,13.15c-1.06,1.68-.14,2.35.92,2.42H120.2c1.13-.07,2-.74.92-2.42Z" style="fill:#fff"/></g><g id="reading_man_icon" data-name="reading man icon"><path d="M.67,75,.26,132.82S33,133,33,132.43c0-1.24,0-19.68,0-19.68l-5.25-9.14.45,0s5.53,7.69,7,9.84c1.32,2,2.05,3.11,3.31,5.13s5.32,4.45,8.31,3.36c3.46-1.25,9.93-5,12.34-7.54s7.27-8.5,7.27-8.5a4.94,4.94,0,0,0-.59-2.65c-.83-1.77-3.8-4.37-6.79-2.08a31.88,31.88,0,0,0-3.5,3.23c-2.16,2.24-4.45,3-6.53,4.27-1.27.76-2.06,1.12-3.64-2.26C44,103.27,37.86,92,36.17,89.67c-1.33-1.84-5.75-8.6-8.36-11.15-1.23-1.2-15-5.09-18-6-2.36-.69-5.33-1.19-7,.17A8.75,8.75,0,0,0,.67,75Z" style="stroke:#000;stroke-width:0.25px"/><polygon points="71.69 108.39 52.75 98.05 66.56 79.56 86.71 85.07 71.69 108.39" style="stroke:#000;stroke-width:0.25px"/><ellipse cx="21.25" cy="60.53" rx="13.83" ry="13.73" style="stroke:#000;stroke-width:0.5px"/><path d="M68.36,104.32l3.91-5.61a5.73,5.73,0,0,0,.34-1.25A7.28,7.28,0,0,0,72.47,95a6.53,6.53,0,0,0-5.91-2.51,8.16,8.16,0,0,0-2,1.36L62.71,94l-1.42,4.28.65,0c3,.19,5.48,2.56,6.14,6.41Z" style="fill:none;stroke:#fff"/><polygon points="51.77 97.44 38.63 84.46 54.18 65.07 65.81 79.03 51.77 97.44" style="stroke:#000;stroke-width:0.25px"/><polygon points="37.13 84.24 50.56 97.22 33.2 83.63 48.6 64.16 51.16 67.48 37.13 84.24" style="stroke:#000;stroke-width:0.25px"/><polygon points="42.48 98.2 37.35 89.67 39.31 89.52 46.33 95.56 42.48 98.2" style="stroke:#000;stroke-width:0.25px"/></g></svg>