<?xml version="1.0" encoding="utf-8"?>
<!-- Generator: Adobe Illustrator 21.0.2, SVG Export Plug-In . SVG Version: 6.00 Build 0)  -->
<svg version="1.1" xmlns="http://www.w3.org/2000/svg" xmlns:xlink="http://www.w3.org/1999/xlink" x="0px" y="0px"
	 viewBox="0 0 612 792" style="enable-background:new 0 0 612 792;" xml:space="preserve">
<style type="text/css">
	.Arched_x0020_Green{fill:url(#SVGID_1_);stroke:#FFFFFF;stroke-width:0.25;stroke-miterlimit:1;}
	.st0{fill:none;stroke:#000000;}
	.st1{stroke:#000000;}
	.st2{fill:#FFFFFF;}
	.st3{font-family:'ArialMT';}
	.st4{font-size:8px;}
	.st5{font-size:8.5px;}
	.st6{font-family:'Arial-BoldMT';}
	.st7{font-size:11px;}
	.st8{stroke:#000000;stroke-width:0.5;}
	.st9{fill:#FFFFFF;stroke:#FFFFFF;stroke-width:0.5;}
	.st10{fill:none;stroke:#000000;stroke-width:0.25;}
	.st11{fill:none;stroke:#000000;stroke-width:0.5;}
	.st12{fill:#FFFFFF;stroke:#000000;stroke-width:0.25;}
	.st13{fill:#FFFFFF;stroke:#FFFFFF;stroke-width:0.25;}
</style>
<linearGradient id="SVGID_1_" gradientUnits="userSpaceOnUse" x1="0" y1="792" x2="0.7071" y2="791.2929">
	<stop  offset="0" style="stop-color:#20AC4B"/>
	<stop  offset="0.9831" style="stop-color:#19361A"/>
</linearGradient>
<g id="Layer_1">
	<rect x="187.3" y="322.9" class="st0" width="238.3" height="132.2"/>
	<polyline points="186.8,349.7 425.9,349.7 425.9,322.9 186.8,322.9 	"/>
	<line class="st1" x1="187.4" y1="365.6" x2="425.4" y2="365.6"/>
	<line class="st1" x1="265.9" y1="433.8" x2="265.9" y2="366.2"/>
	<line class="st1" x1="187.4" y1="433.8" x2="425.4" y2="433.8"/>
</g>
<g id="warning_logo_x2F_text">
	<path class="st2" d="M362.6,339.2v-2.5h6.4v6c-0.6,0.6-1.5,1.2-2.7,1.6c-1.2,0.5-2.4,0.7-3.6,0.7c-1.5,0-2.9-0.3-4-1
		c-1.1-0.7-2-1.6-2.6-2.8c-0.6-1.2-0.9-2.6-0.9-4c0-1.6,0.3-3,1-4.2c0.6-1.2,1.6-2.2,2.8-2.8c0.9-0.5,2.1-0.8,3.5-0.8
		c1.8,0,3.2,0.4,4.3,1.2c1,0.8,1.7,1.9,2,3.3l-2.9,0.6c-0.2-0.7-0.6-1.3-1.2-1.8c-0.6-0.4-1.3-0.6-2.1-0.6c-1.3,0-2.3,0.4-3.1,1.3
		c-0.8,0.8-1.1,2.1-1.1,3.8c0,1.8,0.4,3.1,1.2,4c0.8,0.9,1.8,1.3,3,1.3c0.6,0,1.2-0.1,1.9-0.4c0.6-0.3,1.2-0.6,1.6-0.9v-1.9
		 M341,344.7v-15.1h2.9l6,10.1v-10.1h2.8v15.1h-3l-5.9-9.8v9.8H341z M335.2,344.7v-15.1h3v15.1H335.2z M320.5,344.7v-15.1h2.9
		l6,10.1v-10.1h2.8v15.1h-3l-5.9-9.8v9.8H320.5z M308.7,336.1h2.2c1.4,0,2.3-0.1,2.7-0.2c0.4-0.1,0.6-0.3,0.8-0.6
		c0.2-0.3,0.3-0.7,0.3-1.1c0-0.5-0.1-0.9-0.4-1.2c-0.3-0.3-0.6-0.5-1.1-0.6c-0.2,0-1,0-2.2,0h-2.3V336.1z M305.7,344.7v-15.1h6.2
		c1.6,0,2.7,0.1,3.4,0.4c0.7,0.3,1.3,0.8,1.7,1.4c0.4,0.7,0.6,1.5,0.6,2.4c0,1.1-0.3,2.1-1,2.8c-0.6,0.7-1.6,1.2-2.9,1.4
		c0.6,0.4,1.2,0.8,1.6,1.3c0.4,0.5,1,1.3,1.7,2.4l1.8,2.9h-3.5l-2.1-3.3c-0.8-1.2-1.3-1.9-1.6-2.2c-0.3-0.3-0.6-0.5-0.9-0.6
		c-0.3-0.1-0.8-0.2-1.5-0.2h-0.6v6.3H305.7z M298.7,338.8l-2-5.6l-2,5.6H298.7z M304.1,344.7h-3.2l-1.3-3.4h-5.9l-1.2,3.4h-3.1
		l5.7-15.1h3.1L304.1,344.7z M274.7,344.7l-3.5-15.1h3l2.2,10.3l2.7-10.3h3.5l2.6,10.5l2.3-10.5h3l-3.6,15.1h-3.1l-2.9-11.3
		l-2.9,11.3H274.7z M260.3,338.4c0,0.3-0.3,0.5-0.5,0.5h-0.1c-0.3,0-0.5-0.2-0.5-0.5c-1.6-5.3-2.4-9,0.5-9
		C262.7,329.4,261.8,333.1,260.3,338.4z M259.7,344.2c-0.8,0-1.6-0.7-1.6-1.6s0.7-1.6,1.6-1.6h0.1c0.9,0,1.5,0.7,1.5,1.6
		S260.6,344.2,259.7,344.2z M260.9,328c-0.4-0.9-1.2-0.9-1.2-0.9s-0.8-0.1-1.1,0.9l-8.1,14.3c-1.1,1.8-0.1,2.5,0.9,2.6H268
		c1.1-0.1,2-0.8,0.9-2.6L260.9,328z"/>
</g>
<g id="text">
	<text transform="matrix(1 0 0 1 282.981 375.2793)"><tspan x="0" y="0" class="st3 st4">Do not obstruct water heater air intake</tspan><tspan x="0" y="9.6" class="st3 st4">with insulating blanket.</tspan></text>
	<text transform="matrix(1 0 0 1 282.981 397.7754)"><tspan x="0" y="0" class="st3 st4">Gas and carbon monoxide detectors</tspan><tspan x="0" y="9.6" class="st3 st4">are available.</tspan></text>
	<text transform="matrix(1 0 0 1 282.981 420.002)"><tspan x="0" y="0" class="st3 st4">Install water heater in accordance with</tspan><tspan x="0" y="9.6" class="st3 st4">the instruction manual.</tspan></text>
	<circle cx="276.7" cy="372.3" r="1.8"/>
	<circle cx="276.7" cy="394.6" r="1.8"/>
	<circle cx="276.7" cy="416.8" r="1.8"/>
	<text transform="matrix(1 0 0 1 200.4443 442.1875)"><tspan x="0" y="0" class="st3 st5">Breathing carbon monoxide can cause brain damage or</tspan><tspan x="0" y="10.2" class="st3 st5">death. Always read and understand instruction manual.</tspan></text>
	<text transform="matrix(1 0 0 1 197.8315 360.9707)" class="st6 st7">Breathing Hazard - Carbon Monoxide Gas</text>
</g>
<g id="choking_man_icon">
	<g>
		<path class="st8" d="M207.5,433.2l0-11.9l-20,8.2l-0.2-15.1c14.2-6.7,17.8-8.2,27.8-10.8c5.3-1.4,16.5-1.3,20.8,0.4
			c3.7,1.4,9.5,4,9.5,4l20,8.8c0,0,0.1,15.5-0.4,15.1c-0.4-0.4-23.3-10.8-23.3-10.8v12.6"/>
		<path class="st8" d="M213.1,387.1c0,0-1.8,0-1.6-1c0.2-1.3,8-9.6,8-9.6s2.1-2.4,5.5-2.5c5.7-0.2,8.9,1.8,11.4,4.6
			c1,1.1,2.8,3.9,2.1,6.6c-0.4,1.6-2.2,5.1-3.8,8.9c-1.3,3.1-2.7,6.9-4.9,7.5c-3,0.8-9.3-2.7-15.6-5.6c-2.9-1.3-2.1-3.9-1.5-5.5
			C213.3,388.8,214.7,387.4,213.1,387.1L213.1,387.1z"/>
		<path class="st9" d="M221.1,382.6c-0.2,0.8-0.8,1.3-1.4,1.2c-0.6-0.1-0.9-0.9-0.7-1.6c0.2-0.8,0.8-1.3,1.4-1.2
			C220.9,381,221.2,381.8,221.1,382.6z"/>
		<path class="st10" d="M205.8,368.8c0.5,0.9-0.1,1.1,0.5,0.9c0.6-0.2,0.6,0.1,0.6-0.3c0-0.5,0.7-0.3,0-0.6
			C206.2,368.4,205.8,368.8,205.8,368.8z"/>
		<path class="st10" d="M201.9,368.8c0.3,1.2-0.3,0.8,0.2,0.6c0.6-0.2,0.6,0.1,0.6-0.3c0-0.5,0.7-0.3,0-0.6
			C202,368.1,201.9,368.8,201.9,368.8z"/>
		<path class="st10" d="M203.5,373.5c-1.2-0.4-0.5-0.7-0.6-0.1c-0.1,0.6-0.4,0.4,0,0.7c0.4,0.3-0.1,0.8,0.5,0.4
			C204.1,374,203.5,373.5,203.5,373.5z"/>
		<path class="st10" d="M197,372.8c-1.2-0.4-0.2-0.6-0.6-0.1c-0.5,0.6-0.6,0.4-0.2,0.7c0.4,0.3,0,0.5,0.7,0.1
			C197.5,373.1,197,372.8,197,372.8z"/>
		<path class="st10" d="M210.9,374.6c-0.4,1.1-0.6,0.2-0.1,0.6c0.6,0.5,0.4,0.6,0.7,0.2c0.3-0.4,0.6,0,0.1-0.7
			C211.1,374.1,210.9,374.6,210.9,374.6z"/>
		<path class="st10" d="M205.6,376.8c0.4,0.9-0.1,1.1,0.4,0.9c0.5-0.2,0.5,0.1,0.5-0.3c0-0.5,0.7-0.3,0-0.6
			C206,376.5,205.6,376.8,205.6,376.8z"/>
		<path class="st10" d="M199.7,379.8c0.5,0.9-0.1,1.1,0.5,0.9c0.6-0.2,0.6,0.1,0.6-0.3c0-0.5,0.7-0.3,0-0.6
			C200.1,379.4,199.7,379.8,199.7,379.8z"/>
		<path class="st10" d="M194.8,378.9c1-0.3,1.1,0.3,1-0.3c-0.1-0.6,0.2-0.5-0.2-0.6c-0.5-0.1-0.2-0.8-0.6-0.1
			C194.4,378.4,194.8,378.9,194.8,378.9z"/>
		<path class="st10" d="M192.9,375c-1,0.4-1.2-0.2-1,0.4c0.2,0.6-0.2,0.5,0.3,0.6c0.5,0.1,0.2,0.7,0.6,0.1
			C193.3,375.4,192.9,375,192.9,375z"/>
		<path class="st10" d="M194.2,380.2c0.5,0.9-0.1,1.1,0.5,0.9c0.6-0.2,0.6,0.1,0.6-0.3c0-0.5,0.7-0.3,0-0.6
			C194.6,379.8,194.2,380.2,194.2,380.2z"/>
		<path class="st10" d="M193.4,383.5c-0.7,0.8-1.1,0.4-0.7,0.8c0.4,0.4,0.1,0.5,0.6,0.4c0.5-0.1,0.6,0.5,0.6-0.2
			C194,383.8,193.4,383.5,193.4,383.5z"/>
		<path class="st10" d="M197.8,387.3c0.5,0.9-0.1,1.1,0.5,0.9c0.6-0.2,0.6,0.1,0.6-0.3c0-0.5,0.7-0.3,0-0.6
			C198.3,387,197.8,387.3,197.8,387.3z"/>
		<path class="st10" d="M198,391.9c-0.7,0.7-1.1,0.3-0.7,0.7c0.4,0.4,0.1,0.6,0.5,0.4c0.5-0.1,0.5,0.6,0.6-0.2
			C198.6,392.2,198,391.9,198,391.9z"/>
		<path class="st10" d="M199.9,395.8c0.4,0.8-0.1,0.9,0.4,0.8c0.5-0.2,0.5,0.1,0.5-0.3c0-0.4,0.6-0.2,0-0.5
			C200.3,395.5,199.9,395.8,199.9,395.8z"/>
		<path class="st10" d="M200.2,398.2c0.4,0.8-0.1,0.9,0.4,0.8c0.5-0.2,0.5,0.1,0.5-0.3c0-0.4,0.6-0.2,0-0.5
			C200.5,397.8,200.2,398.2,200.2,398.2z"/>
		<path class="st10" d="M200.5,376.2c-1.2-0.4-0.2-0.6-0.6-0.1c-0.5,0.6-0.6,0.4-0.2,0.7c0.4,0.3,0,0.5,0.7,0.1
			C201,376.4,200.5,376.2,200.5,376.2z"/>
		<path class="st10" d="M203.9,383.2c-1.2-0.4-0.2-0.6-0.6-0.1c-0.5,0.6-0.6,0.4-0.2,0.7c0.4,0.3,0,0.5,0.7,0.1
			C204.4,383.5,203.9,383.2,203.9,383.2z"/>
		<path class="st10" d="M201,383c-1.2-0.4-0.2-0.6-0.6-0.1c-0.5,0.6-0.6,0.4-0.2,0.7c0.4,0.3,0,0.5,0.7,0.1
			C201.5,383.3,201,383,201,383z"/>
		<path class="st10" d="M211.7,379.4c-1.2-0.4-0.2-0.6-0.6-0.1c-0.5,0.6-0.6,0.4-0.2,0.7c0.4,0.3,0,0.5,0.7,0.1
			C212.2,379.6,211.7,379.4,211.7,379.4z"/>
		<path class="st10" d="M201,370.7c-1.2-0.4-0.2-0.6-0.6-0.1c-0.5,0.6-0.6,0.4-0.2,0.7c0.4,0.3,0,0.5,0.7,0.1
			C201.5,371,201,370.7,201,370.7z"/>
		<path class="st10" d="M196.1,383.8c-1.2-0.4-0.2-0.6-0.6-0.1c-0.5,0.6-0.6,0.4-0.2,0.7c0.4,0.3,0,0.5,0.7,0.1
			C196.6,384,196.1,383.8,196.1,383.8z"/>
		<path class="st11" d="M203.8,378.6c-1.2-0.4-0.2-0.6-0.6-0.1c-0.5,0.6-0.6,0.4-0.2,0.7c0.4,0.3,0,0.5,0.7,0.1
			C204.3,378.8,203.8,378.6,203.8,378.6z"/>
		<path class="st10" d="M191,378.6c-1.2-0.4-0.2-0.6-0.6-0.1c-0.5,0.6-0.6,0.4-0.2,0.7c0.4,0.3,0,0.5,0.7,0.1
			C191.5,378.8,191,378.6,191,378.6z"/>
		<path class="st10" d="M193.2,377.8c-0.6,0.2-0.7-0.1-0.6,0.2c0.1,0.4-0.1,0.3,0.2,0.4c0.3,0.1,0.2,0.5,0.4,0.1
			C193.4,378.1,193.2,377.8,193.2,377.8z"/>
		<path class="st10" d="M200.6,373.3c-0.6,0.2-0.7-0.1-0.6,0.2c0.1,0.4-0.1,0.3,0.2,0.4c0.3,0.1,0.2,0.5,0.4,0.1
			C200.8,373.6,200.6,373.3,200.6,373.3z"/>
		<path class="st11" d="M198.6,384.5c-1.2-0.4-0.2-0.6-0.6-0.1c-0.5,0.6-0.6,0.4-0.2,0.7c0.4,0.3,0,0.5,0.7,0.1
			C199.1,384.8,198.6,384.5,198.6,384.5z"/>
		<path class="st11" d="M190.5,382.9c-1.2-0.4-0.2-0.6-0.6-0.1c-0.5,0.6-0.6,0.4-0.2,0.7c0.4,0.3,0,0.5,0.7,0.1
			C191,383.2,190.5,382.9,190.5,382.9z"/>
		<path class="st10" d="M204.2,371.3c-1.2-0.4-0.2-0.6-0.6-0.1c-0.5,0.6-0.6,0.4-0.2,0.7c0.4,0.3,0,0.5,0.7,0.1
			C204.7,371.6,204.2,371.3,204.2,371.3z"/>
		<path class="st10" d="M197.5,376.6c-1.2-0.4-0.2-0.6-0.6-0.1c-0.5,0.6-0.6,0.4-0.2,0.7c0.4,0.3,0,0.5,0.7,0.1
			C198,376.9,197.5,376.6,197.5,376.6z"/>
		<path class="st10" d="M207,379.1c-0.1-1.2,0.4-0.4-0.1-0.6c-0.7-0.2-0.6-0.4-0.7,0.1c-0.1,0.4-0.5,0.2,0.1,0.7
			C206.9,379.7,207,379.1,207,379.1z"/>
		<path class="st10" d="M204.9,382c0.3-1.2,0.6-0.2,0.1-0.6c-0.6-0.5-0.4-0.6-0.7-0.2c-0.3,0.4-0.5,0.1-0.1,0.7
			C204.6,382.5,204.9,382,204.9,382z"/>
		<path class="st10" d="M207,388.2c0.3-1.2,0.6-0.2,0.1-0.6c-0.6-0.5-0.4-0.6-0.7-0.2c-0.3,0.4-0.5,0.1-0.1,0.7
			C206.7,388.7,207,388.2,207,388.2z"/>
		<path class="st10" d="M201.7,390.4c0.3-1.2,0.6-0.2,0.1-0.6c-0.6-0.5-0.4-0.6-0.7-0.2c-0.3,0.4-0.6,0.1-0.1,0.7
			C201.4,390.9,201.7,390.4,201.7,390.4z"/>
		<path class="st11" d="M194.9,390.6c0.3-1.2,0.6-0.2,0.1-0.6c-0.6-0.5-0.4-0.6-0.7-0.2c-0.3,0.4-0.5,0.1-0.1,0.7
			C194.6,391.1,194.9,390.6,194.9,390.6z"/>
		<path class="st10" d="M189.9,389.5c0.3-1.2,0.6-0.2,0.1-0.6c-0.6-0.5-0.4-0.6-0.7-0.2c-0.3,0.4-0.5,0.1-0.1,0.7
			C189.6,390,189.9,389.5,189.9,389.5z"/>
		<path class="st10" d="M190.2,391.8c-0.7,0.8-1.1,0.4-0.7,0.8c0.4,0.4,0.1,0.5,0.6,0.4c0.5-0.1,0.6,0.5,0.6-0.2
			C190.8,392,190.2,391.8,190.2,391.8z"/>
		<path class="st11" d="M198.2,394.2c-0.7,0.8-1.1,0.4-0.7,0.8c0.4,0.4,0.1,0.5,0.6,0.4c0.5-0.2,0.6,0.5,0.6-0.2
			C198.8,394.5,198.2,394.2,198.2,394.2z"/>
		<path class="st10" d="M211.7,381.2c-0.7,0.8-1.1,0.4-0.7,0.8c0.4,0.4,0.1,0.5,0.6,0.4c0.5-0.2,0.6,0.5,0.6-0.2
			C212.3,381.4,211.7,381.2,211.7,381.2z"/>
		<path class="st10" d="M201.5,393.8c0.3-1.2,0.6-0.2,0.1-0.6c-0.6-0.5-0.4-0.6-0.7-0.2c-0.3,0.4-0.5,0.1-0.1,0.7
			C201.2,394.4,201.5,393.8,201.5,393.8z"/>
		<path class="st10" d="M203.6,391.5c0.4,0.8-0.1,0.9,0.4,0.8c0.5-0.2,0.5,0.1,0.5-0.3c0-0.4,0.6-0.2,0-0.5
			C204,391.2,203.6,391.5,203.6,391.5z"/>
		<path class="st10" d="M194.5,392.1c0.4,0.8-0.1,0.9,0.4,0.8c0.5-0.2,0.5,0.1,0.5-0.3c0-0.4,0.6-0.2,0-0.5
			C194.9,391.8,194.5,392.1,194.5,392.1z"/>
		<path class="st10" d="M192.5,394.9c0.4,0.8-0.1,0.9,0.4,0.8c0.5-0.2,0.5,0.1,0.5-0.3c0-0.4,0.6-0.2,0-0.5
			C192.9,394.6,192.5,394.9,192.5,394.9z"/>
		<path class="st10" d="M196.1,396.1c0.3-1.2,0.6-0.2,0.1-0.6c-0.6-0.5-0.4-0.6-0.7-0.2c-0.3,0.4-0.6,0.1-0.1,0.7
			C195.8,396.6,196.1,396.1,196.1,396.1z"/>
		<path class="st11" d="M192.9,393.1c0.3-1.2,0.6-0.2,0.1-0.6c-0.6-0.5-0.4-0.6-0.7-0.2c-0.3,0.4-0.5,0.1-0.1,0.7
			C192.6,393.6,192.9,393.1,192.9,393.1z"/>
		<path class="st10" d="M193.9,387.6c0.3-1.2,0.6-0.2,0.1-0.6c-0.6-0.5-0.4-0.6-0.7-0.2c-0.3,0.4-0.5,0.1-0.1,0.7
			C193.6,388.1,193.9,387.6,193.9,387.6z"/>
		<path class="st10" d="M192,389.5c0.4,0.8-0.1,0.9,0.4,0.8c0.5-0.2,0.5,0.1,0.5-0.3c0-0.4,0.6-0.2,0-0.5
			C192.4,389.2,192,389.5,192,389.5z"/>
		<path class="st10" d="M208,380.8c0.3,0.8-0.2,0.9,0.3,0.8c0.5-0.1,0.5,0.1,0.5-0.2c0.1-0.4,0.6-0.2,0.1-0.5
			C208.3,380.5,208,380.8,208,380.8z"/>
		<path class="st10" d="M207.4,395c0.4,0.8-0.1,0.9,0.4,0.8c0.5-0.2,0.5,0.1,0.5-0.3c0-0.4,0.6-0.2,0-0.5
			C207.7,394.7,207.4,395,207.4,395z"/>
		<path class="st11" d="M204.6,394.7c0.3-1.2,0.6-0.2,0.1-0.6c-0.6-0.5-0.4-0.6-0.7-0.2c-0.3,0.4-0.5,0.1-0.1,0.7
			C204.3,395.2,204.6,394.7,204.6,394.7z"/>
		<path class="st11" d="M210.3,393.5c0.3-1.2,0.6-0.2,0.1-0.6c-0.6-0.5-0.4-0.6-0.7-0.2c-0.3,0.4-0.5,0.1-0.1,0.7
			C210.1,394,210.3,393.5,210.3,393.5z"/>
		<path class="st10" d="M205.8,397.8c0.4,0.8-0.1,0.9,0.4,0.8c0.5-0.2,0.5,0.1,0.5-0.3c0-0.4,0.6-0.2,0-0.5
			C206.1,397.5,205.8,397.8,205.8,397.8z"/>
		<path class="st10" d="M190.6,386c0.4,0.8-0.1,0.9,0.4,0.8c0.5-0.2,0.5,0.1,0.5-0.3c0-0.4,0.6-0.2,0-0.5
			C190.9,385.7,190.6,386,190.6,386z"/>
		<path class="st10" d="M196.1,386.9c-0.6,0.2-0.7-0.1-0.6,0.2c0.1,0.4-0.1,0.3,0.2,0.4c0.3,0.1,0.2,0.5,0.4,0.1
			C196.3,387.2,196.1,386.9,196.1,386.9z"/>
		<path class="st10" d="M209.6,390.4c-0.6,0.2-0.7-0.1-0.6,0.2c0.1,0.4-0.1,0.3,0.2,0.4c0.3,0.1,0.2,0.5,0.4,0.1
			C209.8,390.7,209.6,390.4,209.6,390.4z"/>
		<path class="st10" d="M207.1,392.6c-0.6,0.2-0.7-0.1-0.6,0.2c0.1,0.4-0.1,0.3,0.2,0.4c0.3,0.1,0.2,0.5,0.4,0.1
			C207.3,392.9,207.1,392.6,207.1,392.6z"/>
		<path class="st10" d="M203.9,396.2c-0.6,0.2-0.7-0.1-0.6,0.2c0.1,0.4-0.1,0.3,0.2,0.4c0.3,0.1,0.2,0.5,0.4,0.1
			C204.1,396.5,203.9,396.2,203.9,396.2z"/>
		<path class="st10" d="M205.8,389c-1,0.2-1.1-0.4-1,0.2c0.1,0.6-0.3,0.5,0.2,0.7c0.4,0.2,0.1,0.8,0.6,0.2
			C206,389.5,205.8,389,205.8,389z"/>
		<path class="st11" d="M193.9,373.8c1-0.4,1.2,0.1,1-0.4c-0.2-0.5,0.1-0.5-0.3-0.6c-0.5-0.1-0.3-0.7-0.6-0.1
			C193.5,373.4,193.9,373.8,193.9,373.8z"/>
		<path class="st10" d="M195.7,375.5c-1.2-0.4-0.2-0.6-0.6-0.1c-0.5,0.6-0.6,0.4-0.2,0.7c0.4,0.3,0,0.5,0.7,0.1
			C196.2,375.8,195.7,375.5,195.7,375.5z"/>
		<path class="st10" d="M204.1,376c-1.2-0.4-0.2-0.6-0.6-0.1c-0.5,0.6-0.6,0.4-0.2,0.7c0.4,0.3,0,0.5,0.7,0.1
			C204.6,376.3,204.1,376,204.1,376z"/>
		<path class="st11" d="M197.6,370.7c-0.7,1-0.6,0.1-0.3,0.6c0.4,0.6,0.3,0.7,0.6,0.3c0.4-0.3,0.5,0.1,0.3-0.6
			C198,370.3,197.6,370.7,197.6,370.7z"/>
		<path class="st10" d="M199.5,368.1c-1.2-0.4-0.2-0.6-0.6-0.1c-0.5,0.6-0.6,0.4-0.2,0.7c0.4,0.3,0,0.5,0.7,0.1
			C200,368.4,199.5,368.1,199.5,368.1z"/>
		<path class="st10" d="M190.6,372.9c-0.6,1.1-0.6,0.1-0.2,0.6c0.5,0.6,0.3,0.6,0.7,0.3c0.3-0.3,0.6,0,0.2-0.6
			C191,372.4,190.6,372.9,190.6,372.9z"/>
		<path class="st10" d="M192.1,370.5c-1.1,0.6-0.6-0.2-0.5,0.4c0.1,0.7-0.1,0.7,0.4,0.6c0.5-0.1,0.4,0.3,0.6-0.4
			C192.7,370.3,192.1,370.5,192.1,370.5z"/>
		<path class="st10" d="M192.8,381.6c-1.2-0.4-0.2-0.6-0.6-0.1c-0.5,0.6-0.6,0.4-0.2,0.7c0.4,0.3,0,0.5,0.7,0.1
			C193.3,381.8,192.8,381.6,192.8,381.6z"/>
		<path class="st11" d="M190.6,375.8c-1.1-0.6-0.1-0.6-0.6-0.3c-0.6,0.4-0.7,0.3-0.4,0.6c0.3,0.4-0.1,0.5,0.6,0.3
			C191,376.1,190.6,375.8,190.6,375.8z"/>
		<path class="st10" d="M189.2,381.7c1.1-0.4,0.5,0.3,0.6-0.3c0-0.7,0.2-0.7-0.3-0.6c-0.5,0-0.4-0.4-0.6,0.3
			C188.6,381.8,189.2,381.7,189.2,381.7z"/>
		<path class="st10" d="M199.1,390.3c-0.1-1,0.5-1.1-0.1-1c-0.6,0-0.4-0.3-0.6,0.1c-0.2,0.4-0.7,0.1-0.2,0.6
			C198.6,390.5,199.1,390.3,199.1,390.3z"/>
		<path class="st10" d="M197.6,380.7c-1.1,0.1-1-0.5-1.1,0.1c0,0.6-0.3,0.5,0.1,0.7c0.4,0.2,0,0.8,0.6,0.3
			C197.8,381.3,197.6,380.7,197.6,380.7z"/>
		<path class="st11" d="M198.8,378.4c-1.1,0.1-1-0.5-1.1,0.1c0,0.6-0.3,0.5,0.1,0.7c0.4,0.2,0,0.8,0.6,0.3
			C199,379,198.8,378.4,198.8,378.4z"/>
		<path class="st10" d="M196.8,369.1c-0.6,0.2-0.7-0.1-0.6,0.2c0.1,0.4-0.1,0.3,0.2,0.4c0.3,0.1,0.2,0.5,0.4,0.1
			C197,369.4,196.8,369.1,196.8,369.1z"/>
		<path class="st10" d="M201.1,386.2c-0.8-0.9,0.1-0.6-0.5-0.4c-0.7,0.2-0.7,0-0.5,0.5c0.2,0.4-0.3,0.5,0.5,0.5
			C201.4,386.7,201.1,386.2,201.1,386.2z"/>
		<path class="st11" d="M203.7,386.2c-1.1,0.1-1-0.5-1.1,0.1c0,0.6-0.3,0.5,0.1,0.7c0.4,0.2,0,0.8,0.6,0.3
			C203.9,386.8,203.7,386.2,203.7,386.2z"/>
		<path class="st10" d="M206.1,384.7c-0.6,0.2-0.7-0.1-0.6,0.2c0.1,0.4-0.1,0.3,0.2,0.4c0.3,0.1,0.2,0.5,0.4,0.1
			C206.3,385,206.1,384.7,206.1,384.7z"/>
		<path class="st10" d="M207.4,383.7c-0.1-1.2,0.4-0.4-0.1-0.6c-0.7-0.2-0.6-0.4-0.7,0.1c-0.1,0.4-0.5,0.2,0.1,0.7
			C207.3,384.2,207.4,383.7,207.4,383.7z"/>
		<path class="st11" d="M208.3,384.8c1.2-0.2,0.5,0.4,0.6-0.2c0.2-0.7,0.3-0.6-0.2-0.7c-0.5-0.1-0.3-0.4-0.7,0.2
			C207.7,384.8,208.3,384.8,208.3,384.8z"/>
		<path class="st10" d="M209.5,385c0.3,0.8-0.2,0.9,0.3,0.8c0.5-0.1,0.5,0.1,0.5-0.2c0.1-0.4,0.6-0.2,0.1-0.5
			C209.9,384.7,209.5,385,209.5,385z"/>
		<path class="st10" d="M208.6,387.4c0.3,0.8-0.2,0.9,0.3,0.8c0.5-0.1,0.4,0.1,0.5-0.2c0.1-0.4,0.6-0.2,0.1-0.5
			C209,387.1,208.6,387.4,208.6,387.4z"/>
		<path class="st10" d="M211.9,389c-0.8-0.9,0.1-0.6-0.5-0.4c-0.7,0.2-0.7,0-0.5,0.5c0.2,0.4-0.3,0.5,0.5,0.5
			C212.2,389.5,211.9,389,211.9,389z"/>
		<path class="st10" d="M211.3,395.2c-0.6,0.2-0.7-0.1-0.6,0.2c0.1,0.4-0.1,0.3,0.2,0.4c0.3,0.1,0.2,0.5,0.4,0.1
			C211.5,395.5,211.3,395.2,211.3,395.2z"/>
		<path class="st10" d="M214.9,374.6c-0.6,0.2-0.7-0.1-0.6,0.2c0.1,0.4-0.1,0.3,0.2,0.4c0.3,0.1,0.2,0.5,0.4,0.1
			C215.1,374.9,214.9,374.6,214.9,374.6z"/>
		<path class="st10" d="M213.9,377.1c-0.6,0.2-0.7-0.1-0.6,0.2c0.1,0.4-0.1,0.3,0.2,0.4c0.3,0.1,0.2,0.5,0.4,0.1
			C214.2,377.4,213.9,377.1,213.9,377.1z"/>
		<path class="st11" d="M216.4,376.8c-1.2-0.4-0.2-0.6-0.6-0.1c-0.5,0.6-0.6,0.4-0.2,0.7c0.4,0.3,0,0.5,0.7,0.1
			C216.9,377.1,216.4,376.8,216.4,376.8z"/>
		<path class="st10" d="M214.6,379.6c-1.2-0.4-0.2-0.6-0.6-0.1c-0.5,0.6-0.6,0.4-0.2,0.7c0.4,0.3,0,0.5,0.7,0.1
			C215.1,379.9,214.6,379.6,214.6,379.6z"/>
		<path class="st10" d="M212.7,370.9c-1.2-0.4-0.2-0.6-0.6-0.1c-0.5,0.6-0.6,0.4-0.2,0.7c0.4,0.3,0,0.5,0.7,0.1
			C213.2,371.2,212.7,370.9,212.7,370.9z"/>
		<path class="st10" d="M213.3,373.2c-0.6,0.2-0.7-0.1-0.6,0.2c0.1,0.4-0.1,0.3,0.2,0.4c0.3,0.1,0.2,0.5,0.4,0.1
			C213.5,373.5,213.3,373.2,213.3,373.2z"/>
		<path class="st10" d="M210.5,368.8c-1.2-0.4-0.5-0.7-0.6-0.1c-0.1,0.6-0.4,0.4,0,0.7c0.4,0.3-0.1,0.8,0.5,0.4
			C211.1,369.3,210.5,368.8,210.5,368.8z"/>
		<path class="st10" d="M209.2,377.6c-0.2-1.2,0.4-0.8-0.2-0.6c-0.6,0.2-0.6-0.2-0.6,0.3c-0.1,0.5-0.8,0.2-0.1,0.6
			C209,378.3,209.2,377.6,209.2,377.6z"/>
		<path class="st10" d="M207.1,373.4c-1.2-0.4-0.2-0.6-0.6-0.1c-0.5,0.5-0.6,0.4-0.2,0.7c0.4,0.3,0,0.5,0.7,0.1
			C207.6,373.7,207.1,373.4,207.1,373.4z"/>
		<path class="st10" d="M210.7,372.2c-1.2-0.4-0.5-0.7-0.6-0.1c-0.1,0.6-0.4,0.4,0,0.7c0.4,0.3-0.1,0.8,0.5,0.4
			C211.2,372.7,210.7,372.2,210.7,372.2z"/>
		<path class="st11" d="M209,374.3c-1.2-0.4-0.5-0.7-0.6-0.1c-0.1,0.6-0.4,0.4,0,0.7c0.4,0.3-0.1,0.8,0.5,0.4
			C209.5,374.8,209,374.3,209,374.3z"/>
		<path class="st10" d="M206.8,371.3c-1.2-0.4-0.5-0.7-0.6-0.1c-0.1,0.6-0.4,0.4,0,0.7c0.4,0.3-0.1,0.8,0.5,0.4
			C207.4,371.8,206.8,371.3,206.8,371.3z"/>
		<path class="st10" d="M209.6,370.4c-0.6,0.2-0.7-0.1-0.6,0.2c0.1,0.4-0.1,0.3,0.2,0.4c0.3,0.1,0.2,0.5,0.4,0.1
			C209.8,370.7,209.6,370.4,209.6,370.4z"/>
		<path class="st10" d="M248.1,370.9c0.5,0.9-0.1,1.1,0.5,0.9c0.6-0.2,0.6,0.1,0.6-0.3c0-0.5,0.7-0.3,0-0.6
			C248.5,370.5,248.1,370.9,248.1,370.9z"/>
		<path class="st11" d="M244.8,370.5c0.3,1.2-0.3,0.8,0.2,0.6c0.6-0.2,0.6,0.1,0.6-0.3c0-0.5,0.7-0.3,0-0.6
			C245,369.8,244.8,370.5,244.8,370.5z"/>
		<path class="st10" d="M248.2,374.6c-1.2-0.4-0.5-0.7-0.6-0.1c-0.1,0.6-0.4,0.4,0,0.7c0.4,0.3-0.1,0.8,0.5,0.4
			C248.7,375.1,248.2,374.6,248.2,374.6z"/>
		<path class="st10" d="M240.4,373.7c-1.2-0.4-0.2-0.6-0.6-0.1c-0.5,0.6-0.6,0.4-0.2,0.7c0.4,0.3,0,0.5,0.7,0.1
			C240.9,374,240.4,373.7,240.4,373.7z"/>
		<path class="st10" d="M254.4,375.1c-0.4,1.1-0.6,0.2-0.1,0.6c0.6,0.5,0.4,0.6,0.7,0.2c0.3-0.4,0.6,0,0.1-0.7
			C254.6,374.7,254.4,375.1,254.4,375.1z"/>
		<path class="st11" d="M252.3,378.3c0.4,0.9-0.1,1.1,0.4,0.9c0.5-0.2,0.5,0.1,0.6-0.3c0-0.5,0.7-0.3,0-0.6
			C252.7,377.9,252.3,378.3,252.3,378.3z"/>
		<path class="st10" d="M248.8,381.8c0.5,0.9-0.1,1.1,0.5,0.9c0.6-0.2,0.6,0.1,0.6-0.3c0-0.5,0.7-0.3,0-0.6
			C249.3,381.4,248.8,381.8,248.8,381.8z"/>
		<path class="st10" d="M242.6,379.1c1-0.3,1.1,0.3,1-0.3c-0.1-0.6,0.2-0.5-0.2-0.6c-0.5-0.1-0.2-0.8-0.6-0.2
			C242.3,378.6,242.6,379.1,242.6,379.1z"/>
		<path class="st10" d="M236.4,375.9c-1,0.4-1.2-0.2-1,0.4c0.2,0.6-0.2,0.5,0.3,0.6c0.5,0.1,0.2,0.7,0.6,0.1
			C236.7,376.3,236.4,375.9,236.4,375.9z"/>
		<path class="st10" d="M239.1,379.5c0.5,0.9-0.1,1.1,0.5,0.9c0.6-0.2,0.6,0.1,0.6-0.3c0-0.5,0.7-0.3,0-0.6
			C239.6,379.1,239.1,379.5,239.1,379.5z"/>
		<path class="st11" d="M240.1,385.6c-0.7,0.8-1.1,0.4-0.7,0.8c0.4,0.4,0.1,0.5,0.6,0.4c0.5-0.2,0.6,0.5,0.6-0.2
			C240.6,385.8,240.1,385.6,240.1,385.6z"/>
		<path class="st10" d="M243.1,389c0.5,0.9-0.1,1.1,0.5,0.9c0.6-0.2,0.6,0.1,0.6-0.3c0-0.5,0.7-0.3,0-0.6
			C243.6,388.6,243.1,389,243.1,389z"/>
		<path class="st10" d="M239.9,392.7c-0.7,0.7-1.1,0.3-0.7,0.7c0.4,0.4,0.1,0.6,0.5,0.4c0.5-0.1,0.5,0.6,0.6-0.2
			C240.4,393,239.9,392.7,239.9,392.7z"/>
		<path class="st11" d="M239.1,394.8c0.4,0.8-0.1,0.9,0.4,0.8c0.5-0.2,0.5,0.1,0.5-0.3c0-0.4,0.6-0.2,0-0.5
			C239.5,394.5,239.1,394.8,239.1,394.8z"/>
		<path class="st10" d="M245.1,396.7c0.4,0.8-0.1,0.9,0.4,0.8c0.5-0.2,0.5,0.1,0.5-0.3c0-0.4,0.6-0.2,0-0.5
			C245.5,396.4,245.1,396.7,245.1,396.7z"/>
		<path class="st11" d="M246.7,376.7c-1.2-0.4-0.2-0.6-0.6-0.1c-0.5,0.6-0.6,0.4-0.2,0.7c0.4,0.3,0,0.5,0.7,0.1
			C247.2,377,246.7,376.7,246.7,376.7z"/>
		<path class="st10" d="M248.5,383.8c-1.2-0.4-0.2-0.6-0.6-0.1c-0.5,0.6-0.6,0.4-0.2,0.7c0.4,0.3,0,0.5,0.7,0.1
			C249,384.1,248.5,383.8,248.5,383.8z"/>
		<path class="st10" d="M245.8,387.9c-1.2-0.4-0.2-0.6-0.6-0.1c-0.5,0.6-0.6,0.4-0.2,0.7c0.4,0.3,0,0.5,0.7,0.1
			C246.3,388.2,245.8,387.9,245.8,387.9z"/>
		<path class="st10" d="M260.4,380.5c-1.2-0.4-0.2-0.6-0.6-0.1c-0.5,0.6-0.6,0.4-0.2,0.7c0.4,0.3,0,0.5,0.7,0.1
			C260.9,380.8,260.4,380.5,260.4,380.5z"/>
		<path class="st10" d="M244.1,371.3c-1.2-0.4-0.2-0.6-0.6-0.1c-0.5,0.6-0.6,0.4-0.2,0.7c0.4,0.3,0,0.5,0.7,0.1
			C244.6,371.6,244.1,371.3,244.1,371.3z"/>
		<path class="st10" d="M242.2,384c-1.2-0.4-0.2-0.6-0.6-0.1c-0.5,0.6-0.6,0.4-0.2,0.7c0.4,0.3,0,0.5,0.7,0.1
			C242.7,384.3,242.2,384,242.2,384z"/>
		<path class="st10" d="M247.5,380.8c-1.2-0.4-0.2-0.6-0.6-0.1c-0.5,0.6-0.6,0.4-0.2,0.7c0.4,0.3,0,0.5,0.7,0.1
			C248,381.1,247.5,380.8,247.5,380.8z"/>
		<path class="st10" d="M242.9,373.6c-1.2-0.4-0.2-0.6-0.6-0.1c-0.5,0.6-0.6,0.4-0.2,0.7c0.4,0.3,0,0.5,0.7,0.1
			C243.4,373.9,242.9,373.6,242.9,373.6z"/>
		<path class="st10" d="M239.1,377.9c-0.6,0.2-0.7-0.1-0.6,0.2c0.1,0.4-0.1,0.3,0.2,0.4c0.3,0.1,0.2,0.5,0.4,0.1
			C239.3,378.1,239.1,377.9,239.1,377.9z"/>
		<path class="st10" d="M245.2,374.6c-0.6,0.2-0.7-0.1-0.6,0.2c0.1,0.4-0.1,0.3,0.2,0.4c0.3,0.1,0.2,0.5,0.4,0.1
			C245.5,374.9,245.2,374.6,245.2,374.6z"/>
		<path class="st11" d="M250.6,387.7c-1.2-0.4-0.2-0.6-0.6-0.1c-0.5,0.6-0.6,0.4-0.2,0.7c0.4,0.3,0,0.5,0.7,0.1
			C251.1,388,250.6,387.7,250.6,387.7z"/>
		<path class="st10" d="M243.7,376.1c-1.2-0.4-0.2-0.6-0.6-0.1c-0.5,0.6-0.6,0.4-0.2,0.7c0.4,0.3,0,0.5,0.7,0.1
			C244.2,376.3,243.7,376.1,243.7,376.1z"/>
		<path class="st10" d="M247.1,372.1c-1.2-0.4-0.2-0.6-0.6-0.1c-0.5,0.6-0.6,0.4-0.2,0.7c0.4,0.3,0,0.5,0.7,0.1
			C247.6,372.4,247.1,372.1,247.1,372.1z"/>
		<path class="st10" d="M241.3,376.2c-1.2-0.4-0.2-0.6-0.6-0.1c-0.5,0.6-0.6,0.4-0.2,0.7c0.4,0.3,0,0.5,0.7,0.1
			C241.8,376.4,241.3,376.2,241.3,376.2z"/>
		<path class="st10" d="M251.7,380.7c-0.1-1.2,0.4-0.4-0.1-0.6c-0.7-0.2-0.6-0.4-0.7,0.1c-0.1,0.4-0.5,0.2,0.1,0.7
			C251.7,381.3,251.7,380.7,251.7,380.7z"/>
		<path class="st10" d="M251,384.4c0.3-1.2,0.6-0.2,0.1-0.6c-0.6-0.5-0.4-0.6-0.7-0.2c-0.3,0.4-0.5,0.1-0.1,0.7
			C250.8,384.9,251,384.4,251,384.4z"/>
		<path class="st11" d="M256,395c0.3-1.2,0.6-0.2,0.1-0.6c-0.6-0.5-0.4-0.6-0.7-0.2c-0.3,0.4-0.5,0.1-0.1,0.7
			C255.7,395.5,256,395,256,395z"/>
		<path class="st10" d="M246.1,391.4c0.3-1.2,0.6-0.2,0.1-0.6c-0.6-0.5-0.4-0.6-0.7-0.2c-0.3,0.4-0.5,0.1-0.1,0.7
			C245.9,391.9,246.1,391.4,246.1,391.4z"/>
		<path class="st10" d="M238.7,390.9c0.3-1.2,0.6-0.2,0.1-0.6c-0.6-0.5-0.4-0.6-0.7-0.2c-0.3,0.4-0.5,0.1-0.1,0.7
			C238.4,391.4,238.7,390.9,238.7,390.9z"/>
		<path class="st10" d="M242.6,394.3c-0.7,0.8-1.1,0.4-0.7,0.8c0.4,0.4,0.1,0.5,0.6,0.4c0.5-0.2,0.6,0.5,0.6-0.2
			C243.1,394.5,242.6,394.3,242.6,394.3z"/>
		<path class="st10" d="M254.6,381.5c-0.7,0.8-1.1,0.4-0.7,0.8c0.4,0.4,0.1,0.5,0.6,0.4c0.5-0.2,0.6,0.5,0.6-0.2
			C255.1,381.8,254.6,381.5,254.6,381.5z"/>
		<path class="st10" d="M244,393.8c0.3-1.2,0.6-0.2,0.1-0.6c-0.6-0.5-0.4-0.6-0.7-0.2c-0.3,0.4-0.5,0.1-0.1,0.7
			C243.8,394.3,244,393.8,244,393.8z"/>
		<path class="st10" d="M246.3,393c0.4,0.8-0.1,0.9,0.4,0.8c0.5-0.2,0.5,0.1,0.5-0.3c0-0.4,0.6-0.2,0-0.5
			C246.6,392.7,246.3,393,246.3,393z"/>
		<path class="st10" d="M242,387.6c0.4,0.8-0.1,0.9,0.4,0.8c0.5-0.2,0.5,0.1,0.5-0.3c0-0.4,0.6-0.2,0-0.5
			C242.3,387.3,242,387.6,242,387.6z"/>
		<path class="st10" d="M240,391c0.4,0.8-0.1,0.9,0.4,0.8c0.5-0.2,0.5,0.1,0.5-0.3c0-0.4,0.6-0.2,0-0.5C240.4,390.7,240,391,240,391
			z"/>
		<path class="st10" d="M252.4,391c0.3-1.2,0.6-0.2,0.1-0.6c-0.6-0.5-0.4-0.6-0.7-0.2c-0.3,0.4-0.5,0.1-0.1,0.7
			C252.1,391.5,252.4,391,252.4,391z"/>
		<path class="st10" d="M237.1,394.3c0.3-1.2,0.6-0.2,0.1-0.6c-0.6-0.5-0.4-0.6-0.7-0.2c-0.3,0.4-0.5,0.1-0.1,0.7
			C236.8,394.8,237.1,394.3,237.1,394.3z"/>
		<path class="st10" d="M242.5,386.4c0.3-1.2,0.6-0.2,0.1-0.6c-0.6-0.5-0.4-0.6-0.7-0.2c-0.3,0.4-0.5,0.1-0.1,0.7
			C242.2,386.9,242.5,386.4,242.5,386.4z"/>
		<path class="st11" d="M259.3,385c0.3,0.8-0.2,0.9,0.3,0.8c0.5-0.1,0.4,0.1,0.5-0.2c0.1-0.4,0.6-0.2,0.1-0.5
			C259.6,384.7,259.3,385,259.3,385z"/>
		<path class="st10" d="M252.3,395c0.4,0.8-0.1,0.9,0.4,0.8c0.5-0.2,0.5,0.1,0.5-0.3c0-0.4,0.6-0.2,0-0.5
			C252.6,394.7,252.3,395,252.3,395z"/>
		<path class="st11" d="M247.2,396c0.3-1.2,0.6-0.2,0.1-0.6c-0.6-0.5-0.4-0.6-0.7-0.2c-0.3,0.4-0.6,0.1-0.1,0.7
			C246.9,396.5,247.2,396,247.2,396z"/>
		<path class="st10" d="M257.6,393.5c0.3-1.2,0.6-0.2,0.1-0.6c-0.6-0.5-0.4-0.6-0.7-0.2c-0.3,0.4-0.5,0.1-0.1,0.7
			C257.3,394,257.6,393.5,257.6,393.5z"/>
		<path class="st10" d="M250.2,397.3c0.4,0.8-0.1,0.9,0.4,0.8c0.5-0.2,0.5,0.1,0.5-0.3c0-0.4,0.6-0.2,0-0.5
			C250.6,397,250.2,397.3,250.2,397.3z"/>
		<path class="st11" d="M244.3,382.4c0.4,0.8-0.1,0.9,0.4,0.8c0.5-0.2,0.5,0.1,0.5-0.3c0-0.4,0.6-0.2,0-0.5
			C244.6,382.1,244.3,382.4,244.3,382.4z"/>
		<path class="st10" d="M240,387.9c-0.6,0.2-0.7-0.1-0.6,0.2c0.1,0.4-0.1,0.3,0.2,0.4c0.3,0.1,0.2,0.5,0.4,0.1
			C240.2,388.2,240,387.9,240,387.9z"/>
		<path class="st10" d="M253.3,392.8c-0.6,0.2-0.7-0.1-0.6,0.2c0.1,0.4-0.1,0.3,0.2,0.4c0.3,0.1,0.2,0.5,0.4,0.1
			C253.6,393.1,253.3,392.8,253.3,392.8z"/>
		<path class="st10" d="M250.2,393.9c-0.6,0.2-0.7-0.1-0.6,0.2c0.1,0.4-0.1,0.3,0.2,0.4c0.3,0.1,0.2,0.5,0.4,0.1
			C250.5,394.2,250.2,393.9,250.2,393.9z"/>
		<path class="st10" d="M255.4,391.2c-0.6,0.2-0.7-0.1-0.6,0.2c0.1,0.4-0.1,0.3,0.2,0.4c0.3,0.1,0.2,0.5,0.4,0.1
			C255.6,391.4,255.4,391.2,255.4,391.2z"/>
		<path class="st10" d="M250.2,391.7c-1,0.2-1.1-0.4-1,0.2c0.1,0.6-0.3,0.5,0.2,0.7c0.4,0.2,0.1,0.8,0.6,0.2
			C250.5,392.2,250.2,391.7,250.2,391.7z"/>
		<path class="st10" d="M237.4,374.7c1-0.4,1.2,0.1,1-0.4c-0.2-0.5,0.1-0.5-0.3-0.6c-0.5-0.1-0.3-0.7-0.6-0.1
			C237,374.3,237.4,374.7,237.4,374.7z"/>
		<path class="st11" d="M239,376c-1.2-0.4-0.2-0.6-0.6-0.1c-0.5,0.6-0.6,0.4-0.2,0.7c0.4,0.3,0,0.5,0.7,0.1
			C239.5,376.3,239,376,239,376z"/>
		<path class="st10" d="M250.5,378c-1.2-0.4-0.2-0.6-0.6-0.1c-0.5,0.6-0.6,0.4-0.2,0.7c0.4,0.3,0,0.5,0.7,0.1
			C251,378.2,250.5,378,250.5,378z"/>
		<path class="st10" d="M240.6,371.2c-0.7,1-0.6,0.1-0.3,0.6c0.4,0.6,0.3,0.7,0.6,0.4c0.4-0.3,0.5,0.1,0.3-0.6
			C240.9,370.8,240.6,371.2,240.6,371.2z"/>
		<path class="st10" d="M242.5,369.4c-1.2-0.4-0.2-0.6-0.6-0.1c-0.5,0.6-0.6,0.4-0.2,0.7c0.4,0.3,0,0.5,0.7,0.1
			C243,369.7,242.5,369.4,242.5,369.4z"/>
		<path class="st10" d="M233.2,373.4c-0.6,1.1-0.6,0.1-0.2,0.6c0.5,0.6,0.3,0.6,0.7,0.3c0.3-0.3,0.6,0,0.2-0.6
			C233.5,373,233.2,373.4,233.2,373.4z"/>
		<path class="st10" d="M236,371.7c-1.1,0.6-0.6-0.2-0.5,0.4c0.1,0.7-0.1,0.7,0.4,0.6c0.5-0.1,0.4,0.3,0.6-0.4
			C236.6,371.5,236,371.7,236,371.7z"/>
		<path class="st10" d="M246,384.2c-1.2-0.4-0.2-0.6-0.6-0.1c-0.5,0.6-0.6,0.4-0.2,0.7c0.4,0.3,0,0.5,0.7,0.1
			C246.5,384.5,246,384.2,246,384.2z"/>
		<path class="st10" d="M236.4,374c-1.1-0.6-0.1-0.6-0.6-0.3c-0.6,0.4-0.7,0.3-0.4,0.6c0.3,0.4-0.1,0.5,0.6,0.3
			C236.8,374.4,236.4,374,236.4,374z"/>
		<path class="st11" d="M243.1,391.4c-0.1-1,0.5-1-0.1-1c-0.6,0-0.4-0.3-0.6,0.1c-0.2,0.4-0.7,0.1-0.2,0.6
			C242.6,391.7,243.1,391.4,243.1,391.4z"/>
		<path class="st10" d="M240.8,382.6c-1.1,0.1-1-0.5-1.1,0.1c0,0.6-0.3,0.5,0.1,0.7c0.4,0.2,0,0.8,0.6,0.3
			C241,383.1,240.8,382.6,240.8,382.6z"/>
		<path class="st10" d="M243.2,381.2c-1.1,0.1-1-0.5-1.1,0.1c0,0.6-0.3,0.5,0.1,0.7c0.4,0.2,0,0.8,0.6,0.3
			C243.4,381.8,243.2,381.2,243.2,381.2z"/>
		<path class="st10" d="M238.9,370c-0.6,0.2-0.7-0.1-0.6,0.2c0.1,0.4-0.1,0.3,0.2,0.4c0.3,0.1,0.2,0.5,0.4,0.1
			C239.2,370.2,238.9,370,238.9,370z"/>
		<path class="st10" d="M248.6,389.1c-0.8-0.9,0.1-0.6-0.5-0.4c-0.7,0.2-0.7,0-0.5,0.5c0.2,0.4-0.3,0.5,0.5,0.5
			C248.9,389.6,248.6,389.1,248.6,389.1z"/>
		<path class="st10" d="M246.8,385.7c-1.1,0.1-1-0.5-1.1,0.1c0,0.6-0.3,0.5,0.1,0.7c0.4,0.2,0,0.8,0.6,0.3
			C247,386.3,246.8,385.7,246.8,385.7z"/>
		<path class="st10" d="M257.2,386.5c-0.6,0.2-0.7-0.1-0.6,0.2c0.1,0.4-0.1,0.3,0.2,0.4c0.3,0.1,0.2,0.5,0.4,0.1
			C257.5,386.8,257.2,386.5,257.2,386.5z"/>
		<path class="st10" d="M255.1,385.9c-0.1-1.2,0.4-0.4-0.1-0.6c-0.7-0.2-0.6-0.4-0.7,0.1c-0.1,0.5-0.5,0.2,0.1,0.7
			C255,386.5,255.1,385.9,255.1,385.9z"/>
		<path class="st10" d="M252,386.2c1.2-0.2,0.5,0.4,0.6-0.2c0.2-0.7,0.3-0.6-0.2-0.7c-0.5,0-0.3-0.4-0.7,0.2
			C251.4,386.2,252,386.2,252,386.2z"/>
		<path class="st10" d="M258.8,388c0.3,0.8-0.1,0.9,0.3,0.8c0.5-0.1,0.4,0.1,0.5-0.2c0.1-0.4,0.6-0.2,0.1-0.5
			C259.2,387.7,258.8,388,258.8,388z"/>
		<path class="st10" d="M252.1,388.4c0.3,0.8-0.2,0.9,0.3,0.8c0.5-0.1,0.5,0.1,0.5-0.2c0.1-0.4,0.6-0.2,0.1-0.5
			C252.5,388.2,252.1,388.4,252.1,388.4z"/>
		<path class="st10" d="M257.1,390c-0.8-0.9,0.1-0.6-0.5-0.4c-0.7,0.2-0.7,0-0.5,0.5c0.2,0.4-0.3,0.5,0.5,0.5
			C257.4,390.5,257.1,390,257.1,390z"/>
		<path class="st10" d="M254.7,396.1c-0.6,0.2-0.7-0.1-0.6,0.2c0.1,0.4-0.1,0.3,0.2,0.4c0.3,0.1,0.2,0.5,0.4,0.1
			C255,396.4,254.7,396.1,254.7,396.1z"/>
		<path class="st11" d="M257.6,376.7c-0.6,0.2-0.7-0.1-0.6,0.2c0.1,0.4-0.1,0.3,0.2,0.4c0.3,0.1,0.2,0.5,0.4,0.1
			C257.8,376.9,257.6,376.7,257.6,376.7z"/>
		<path class="st10" d="M257.7,378.8c-0.6,0.2-0.7-0.1-0.6,0.2c0.1,0.4-0.1,0.3,0.2,0.4c0.3,0.1,0.2,0.5,0.4,0.1
			C257.9,379,257.7,378.8,257.7,378.8z"/>
		<path class="st10" d="M259.8,377.7c-1.2-0.4-0.2-0.6-0.6-0.1c-0.5,0.6-0.6,0.4-0.2,0.7c0.4,0.3,0,0.5,0.7,0.1
			C260.3,378,259.8,377.7,259.8,377.7z"/>
		<path class="st10" d="M258.3,381.9c-1.2-0.4-0.2-0.6-0.6-0.1c-0.5,0.6-0.6,0.4-0.2,0.7c0.4,0.3,0,0.5,0.7,0.1
			C258.8,382.2,258.3,381.9,258.3,381.9z"/>
		<path class="st10" d="M245.9,379.4c-1.2-0.4-0.2-0.6-0.6-0.1c-0.5,0.6-0.6,0.4-0.2,0.7c0.4,0.3,0,0.5,0.7,0.1
			C246.4,379.7,245.9,379.4,245.9,379.4z"/>
		<path class="st10" d="M257,373.3c-0.6,0.2-0.7-0.1-0.6,0.2c0.1,0.4-0.1,0.3,0.2,0.4c0.3,0.1,0.2,0.5,0.4,0.1
			C257.2,373.6,257,373.3,257,373.3z"/>
		<path class="st10" d="M248.4,377.9c-1.2-0.4-0.5-0.7-0.6-0.1c-0.1,0.6-0.4,0.4,0,0.7c0.4,0.3-0.1,0.8,0.5,0.4
			C248.9,378.4,248.4,377.9,248.4,377.9z"/>
		<path class="st10" d="M259.8,375c-0.2-1.2,0.4-0.8-0.2-0.6c-0.6,0.2-0.5-0.2-0.6,0.3c-0.1,0.5-0.8,0.2-0.1,0.6
			C259.6,375.7,259.8,375,259.8,375z"/>
		<path class="st10" d="M250.2,376c-1.2-0.4-0.2-0.6-0.6-0.1c-0.5,0.6-0.6,0.4-0.2,0.7c0.4,0.3,0,0.5,0.7,0.1
			C250.7,376.3,250.2,376,250.2,376z"/>
		<path class="st10" d="M254.2,373.2c-1.2-0.4-0.5-0.7-0.6-0.1c-0.1,0.6-0.4,0.4,0,0.7c0.4,0.3-0.1,0.8,0.5,0.4
			C254.7,373.7,254.2,373.2,254.2,373.2z"/>
		<path class="st10" d="M252.4,375.2c-1.2-0.4-0.5-0.7-0.6-0.1c-0.1,0.6-0.4,0.4,0,0.7c0.4,0.3-0.1,0.8,0.5,0.4
			C253,375.7,252.4,375.2,252.4,375.2z"/>
		<path class="st10" d="M250.8,373.1c-1.2-0.4-0.5-0.7-0.6-0.1c-0.1,0.6-0.4,0.4,0,0.7c0.4,0.3-0.1,0.8,0.5,0.4
			C251.3,373.6,250.8,373.1,250.8,373.1z"/>
		<path class="st10" d="M251.9,371.5c-0.6,0.2-0.7-0.1-0.6,0.2c0.1,0.4-0.1,0.3,0.2,0.4c0.3,0.1,0.2,0.5,0.4,0.1
			C252.1,371.7,251.9,371.5,251.9,371.5z"/>
		<path class="st10" d="M254.5,387.7c-0.6,0.2-0.7-0.1-0.6,0.2c0.1,0.4-0.1,0.3,0.2,0.4c0.3,0.1,0.2,0.5,0.4,0.1
			C254.8,388,254.5,387.7,254.5,387.7z"/>
		<path class="st10" d="M248,390.3c-0.6,0.2-0.7-0.1-0.6,0.2c0.1,0.4-0.1,0.3,0.2,0.4c0.3,0.1,0.2,0.5,0.4,0.1
			C248.2,390.6,248,390.3,248,390.3z"/>
		<path class="st11" d="M257.1,383.7c-0.6,0.2-0.7-0.1-0.6,0.2c0.1,0.4-0.1,0.3,0.2,0.4c0.3,0.1,0.2,0.5,0.4,0.1
			C257.3,384,257.1,383.7,257.1,383.7z"/>
		<path class="st10" d="M252.8,382.7c-0.6,0.2-0.7-0.1-0.6,0.2c0.1,0.4-0.1,0.3,0.2,0.4c0.3,0.1,0.2,0.5,0.4,0.1
			C253.1,383,252.8,382.7,252.8,382.7z"/>
		<path class="st10" d="M248.7,386.8c-0.8-0.9,0.1-0.6-0.5-0.4c-0.7,0.2-0.7,0-0.5,0.5c0.2,0.4-0.3,0.5,0.5,0.5
			C249,387.3,248.7,386.8,248.7,386.8z"/>
		<path class="st10" d="M255.8,379.3c-0.6,0.2-0.7-0.1-0.6,0.2c0.1,0.4-0.1,0.3,0.2,0.4c0.3,0.1,0.2,0.5,0.4,0.1
			C256,379.6,255.8,379.3,255.8,379.3z"/>
		<path class="st10" d="M255.3,377.6c-0.2-1.2,0.4-0.8-0.2-0.6c-0.6,0.2-0.6-0.2-0.6,0.3c-0.1,0.5-0.8,0.2-0.1,0.6
			C255.1,378.3,255.3,377.6,255.3,377.6z"/>
		<ellipse class="st12" cx="225.3" cy="419.9" rx="12.5" ry="12.2"/>
		<path class="st10" d="M224.2,410.7c0.5,0.9-0.1,1.1,0.5,0.9c0.6-0.2,0.6,0.1,0.6-0.3c0-0.5,0.7-0.3,0-0.6
			C224.6,410.4,224.2,410.7,224.2,410.7z"/>
		<path class="st11" d="M216.3,417.9c0.5,0.9-0.1,1.1,0.5,0.9c0.6-0.2,0.6,0.1,0.6-0.3c0-0.5,0.7-0.3,0-0.6
			C216.7,417.5,216.3,417.9,216.3,417.9z"/>
		<path class="st11" d="M218.2,424.8c0.4,0.8-0.1,0.9,0.4,0.8c0.5-0.2,0.5,0.1,0.5-0.3s0.6-0.2,0-0.5
			C218.6,424.5,218.2,424.8,218.2,424.8z"/>
		<path class="st10" d="M221.3,413.4c-1.2-0.4-0.2-0.6-0.6-0.1c-0.5,0.6-0.6,0.4-0.2,0.7c0.4,0.3,0,0.5,0.7,0.1
			C221.8,413.6,221.3,413.4,221.3,413.4z"/>
		<path class="st10" d="M216.5,415.9c-1.2-0.4-0.2-0.6-0.6-0.1c-0.5,0.6-0.6,0.4-0.2,0.7c0.4,0.3,0,0.5,0.7,0.1
			C217,416.2,216.5,415.9,216.5,415.9z"/>
		<path class="st10" d="M225.5,415.7c-1.2-0.4-0.2-0.6-0.6-0.1c-0.5,0.6-0.6,0.4-0.2,0.7c0.4,0.3,0,0.5,0.7,0.1
			C226,416,225.5,415.7,225.5,415.7z"/>
		<path class="st10" d="M224.5,413.7c0.3-1.2,0.6-0.2,0.1-0.6c-0.6-0.5-0.4-0.6-0.7-0.2c-0.3,0.4-0.5,0.1-0.1,0.7
			C224.2,414.2,224.5,413.7,224.5,413.7z"/>
		<path class="st11" d="M231.4,427c0.3-1.2,0.6-0.2,0.1-0.6c-0.6-0.5-0.4-0.6-0.7-0.2c-0.3,0.4-0.5,0.1-0.1,0.7
			C231.1,427.5,231.4,427,231.4,427z"/>
		<path class="st10" d="M218.3,420.1c0.3-1.2,0.6-0.2,0.1-0.6c-0.6-0.5-0.4-0.6-0.7-0.2c-0.3,0.4-0.6,0.1-0.1,0.7
			C218.1,420.6,218.3,420.1,218.3,420.1z"/>
		<path class="st10" d="M228.2,410.2c-0.7,0.8-1.1,0.4-0.7,0.8c0.4,0.4,0.1,0.5,0.6,0.4c0.5-0.2,0.6,0.5,0.6-0.2
			C228.7,410.4,228.2,410.2,228.2,410.2z"/>
		<path class="st10" d="M214.7,423.3c0.4,0.8-0.1,0.9,0.4,0.8c0.5-0.2,0.5,0.1,0.5-0.3c0-0.4,0.6-0.2,0-0.5
			C215.1,423,214.7,423.3,214.7,423.3z"/>
		<path class="st10" d="M225.2,420.3c0.3-1.2,0.6-0.2,0.1-0.6c-0.6-0.5-0.4-0.6-0.7-0.2c-0.3,0.4-0.5,0.1-0.1,0.7
			C224.9,420.8,225.2,420.3,225.2,420.3z"/>
		<path class="st10" d="M225.9,423.6c0.4,0.8-0.1,0.9,0.4,0.8c0.5-0.2,0.5,0.1,0.5-0.3c0-0.4,0.6-0.2,0-0.5
			C226.2,423.3,225.9,423.6,225.9,423.6z"/>
		<path class="st10" d="M221.7,425.6c0.3-1.2,0.6-0.2,0.1-0.6c-0.6-0.5-0.4-0.6-0.7-0.2c-0.3,0.4-0.5,0.1-0.1,0.7
			C221.5,426.1,221.7,425.6,221.7,425.6z"/>
		<path class="st10" d="M231.2,423c0.3-1.2,0.6-0.2,0.1-0.6c-0.6-0.5-0.4-0.6-0.7-0.2c-0.3,0.4-0.5,0.1-0.1,0.7
			C230.9,423.5,231.2,423,231.2,423z"/>
		<path class="st10" d="M223.8,425.9c0.4,0.8-0.1,0.9,0.4,0.8c0.5-0.2,0.5,0.1,0.5-0.3c0-0.4,0.6-0.2,0-0.5
			C224.2,425.6,223.8,425.9,223.8,425.9z"/>
		<path class="st10" d="M220,411.1c0.4,0.8-0.1,0.9,0.4,0.8c0.5-0.2,0.5,0.1,0.5-0.3c0-0.4,0.6-0.2,0-0.5
			C220.3,410.8,220,411.1,220,411.1z"/>
		<path class="st10" d="M222.6,422.2c-0.6,0.2-0.7-0.1-0.6,0.2c0.1,0.4-0.1,0.3,0.2,0.4c0.3,0.1,0.2,0.5,0.4,0.1
			C222.8,422.5,222.6,422.2,222.6,422.2z"/>
		<path class="st10" d="M227,429.7c-0.6,0.3-0.7-0.1-0.6,0.3c0.1,0.4-0.1,0.3,0.2,0.4c0.3,0.1,0.2,0.5,0.4,0.1
			C227.3,429.9,227,429.7,227,429.7z"/>
		<path class="st10" d="M228.2,418.1c-0.6,0.2-0.7-0.1-0.6,0.2c0.1,0.4-0.1,0.3,0.2,0.4c0.3,0.1,0.2,0.5,0.4,0.1
			C228.4,418.4,228.2,418.1,228.2,418.1z"/>
		<path class="st10" d="M220,421.5c-1,0.2-1.1-0.4-1,0.2c0.1,0.6-0.3,0.5,0.2,0.7c0.4,0.2,0.1,0.8,0.6,0.2
			C220.3,422,220,421.5,220,421.5z"/>
		<path class="st10" d="M218.1,414.5c-1.2-0.4-0.2-0.6-0.6-0.1c-0.5,0.5-0.6,0.4-0.2,0.7c0.4,0.3,0,0.5,0.7,0.1
			C218.6,414.8,218.1,414.5,218.1,414.5z"/>
		<path class="st10" d="M221.3,418.6c-0.8-0.9,0.1-0.6-0.5-0.4c-0.7,0.2-0.7,0-0.5,0.5c0.2,0.4-0.3,0.5,0.5,0.5
			C221.5,419.1,221.3,418.6,221.3,418.6z"/>
		<path class="st10" d="M219.3,428c-1.1,0.1-1-0.5-1.1,0.1c0,0.6-0.3,0.5,0.1,0.7c0.4,0.2,0,0.8,0.6,0.3
			C219.5,428.5,219.3,428,219.3,428z"/>
		<path class="st10" d="M235.2,416.2c-0.6,0.2-0.7-0.1-0.6,0.2c0.1,0.4-0.1,0.3,0.2,0.4c0.3,0.1,0.2,0.5,0.4,0.1
			C235.5,416.5,235.2,416.2,235.2,416.2z"/>
		<path class="st10" d="M229.7,415.2c-0.1-1.2,0.4-0.4-0.1-0.6c-0.7-0.2-0.6-0.4-0.7,0.1c-0.1,0.5-0.5,0.2,0.1,0.7
			C229.6,415.8,229.7,415.2,229.7,415.2z"/>
		<path class="st10" d="M224.1,418.6c1.2-0.2,0.5,0.4,0.6-0.2c0.2-0.7,0.3-0.6-0.2-0.7c-0.5,0-0.3-0.4-0.7,0.2
			C223.5,418.6,224.1,418.6,224.1,418.6z"/>
		<path class="st10" d="M227.1,426.8c0.3,0.8-0.1,0.9,0.3,0.8c0.5-0.1,0.5,0.1,0.5-0.2c0.1-0.4,0.6-0.2,0.1-0.5
			C227.5,426.5,227.1,426.8,227.1,426.8z"/>
		<path class="st10" d="M230.7,418.9c-0.8-0.9,0.1-0.6-0.5-0.4c-0.7,0.2-0.7,0-0.5,0.5c0.2,0.4-0.3,0.5,0.5,0.5
			C231,419.4,230.7,418.9,230.7,418.9z"/>
		<path class="st10" d="M228.3,424.7c-0.6,0.2-0.7-0.1-0.6,0.2c0.1,0.4-0.1,0.3,0.2,0.4c0.3,0.1,0.2,0.5,0.4,0.1
			C228.6,425,228.3,424.7,228.3,424.7z"/>
		<path class="st10" d="M233.6,413.7c-1.2-0.4-0.2-0.6-0.6-0.1c-0.5,0.6-0.6,0.4-0.2,0.7c0.4,0.3,0,0.5,0.7,0.1
			C234.1,414,233.6,413.7,233.6,413.7z"/>
		<path class="st11" d="M228.1,416.3c-0.6,0.2-0.7-0.1-0.6,0.2c0.1,0.4-0.1,0.3,0.2,0.4c0.3,0,0.2,0.5,0.4,0.1
			C228.4,416.6,228.1,416.3,228.1,416.3z"/>
		<path class="st10" d="M215.4,420.7c-0.6,0.2-0.7-0.1-0.6,0.2c0.1,0.4-0.1,0.3,0.2,0.4c0.3,0.1,0.2,0.5,0.4,0.1
			C215.6,421,215.4,420.7,215.4,420.7z"/>
		<path class="st10" d="M230.7,412.4c-0.6,0.2-0.7-0.1-0.6,0.2c0.1,0.4-0.1,0.3,0.2,0.4c0.3,0.1,0.2,0.5,0.4,0.1
			C230.9,412.7,230.7,412.4,230.7,412.4z"/>
		<path class="st10" d="M226.7,412.6c-0.6,0.2-0.7-0.1-0.6,0.2c0.1,0.4-0.1,0.3,0.2,0.4c0.3,0.1,0.2,0.5,0.4,0.1
			C226.9,412.9,226.7,412.6,226.7,412.6z"/>
		<path class="st11" d="M221.2,415.7c-0.8-0.9,0.1-0.6-0.5-0.4c-0.7,0.2-0.7,0-0.5,0.5c0.2,0.4-0.3,0.5,0.5,0.5
			C221.5,416.2,221.2,415.7,221.2,415.7z"/>
		<path class="st11" d="M225.1,421.8c0.4,0.8-0.1,0.9,0.4,0.8c0.5-0.2,0.5,0.1,0.5-0.3c0-0.4,0.6-0.2,0-0.5
			C225.4,421.5,225.1,421.8,225.1,421.8z"/>
		<path class="st10" d="M235.4,424.2c-0.8-0.9,0.1-0.6-0.5-0.4c-0.7,0.2-0.7,0-0.5,0.5c0.2,0.4-0.3,0.5,0.5,0.5
			C235.6,424.7,235.4,424.2,235.4,424.2z"/>
		<path class="st10" d="M236.4,421.3c-0.8-0.9,0.1-0.6-0.5-0.4c-0.7,0.2-0.7,0-0.5,0.5c0.2,0.4-0.3,0.5,0.5,0.5
			C236.6,421.8,236.4,421.3,236.4,421.3z"/>
		<path class="st10" d="M234.3,426.6c-0.8-0.9,0.1-0.6-0.5-0.4c-0.7,0.2-0.7,0-0.5,0.5c0.2,0.4-0.3,0.5,0.5,0.5
			C234.6,427.1,234.3,426.6,234.3,426.6z"/>
		<path class="st11" d="M221.9,429.7c-0.8-0.9,0.1-0.6-0.5-0.4c-0.7,0.2-0.7,0-0.5,0.5c0.2,0.4-0.3,0.5,0.5,0.5
			C222.2,430.2,221.9,429.7,221.9,429.7z"/>
		<path class="st10" d="M225.4,430c-0.8-0.9,0.1-0.6-0.5-0.4c-0.7,0.2-0.7,0-0.5,0.5c0.2,0.4-0.3,0.5,0.5,0.5
			C225.7,430.5,225.4,430,225.4,430z"/>
		<path class="st10" d="M229.7,429.3c-0.6,0.2-0.7-0.1-0.6,0.2c0.1,0.4-0.1,0.3,0.2,0.4c0.3,0.1,0.2,0.5,0.4,0.1
			C229.9,429.6,229.7,429.3,229.7,429.3z"/>
		<path class="st10" d="M231.7,419.7c0.2,1.2-0.4,0.5,0.2,0.6c0.7,0.2,0.6,0.3,0.7-0.1c0.1-0.5,0.5-0.3-0.2-0.7
			C231.7,419.1,231.7,419.7,231.7,419.7z"/>
		<path class="st10" d="M222.5,420.3c-0.6,0.2-0.7-0.1-0.6,0.2c0.1,0.4-0.1,0.3,0.2,0.4c0.3,0.1,0.2,0.5,0.4,0.1
			C222.8,420.6,222.5,420.3,222.5,420.3z"/>
		<path class="st10" d="M228.3,421.1c-0.6,0.2-0.7-0.1-0.6,0.2c0.1,0.4-0.1,0.3,0.2,0.4c0.3,0.1,0.2,0.5,0.4,0.1
			C228.5,421.4,228.3,421.1,228.3,421.1z"/>
		<path class="st10" d="M223.5,427.7c-0.8-0.9,0.1-0.6-0.5-0.4c-0.7,0.2-0.7,0-0.5,0.5c0.2,0.4-0.3,0.5,0.5,0.5
			C223.7,428.2,223.5,427.7,223.5,427.7z"/>
		<path class="st10" d="M221.4,429.2c-0.7,0.2-0.7,0-0.5,0.5c0.2,0.4-0.3,0.5,0.5,0.5c0.8,0,0.5-0.5,0.5-0.5"/>
		<path class="st10" d="M236.1,418.3c-0.8-0.9,0.1-0.6-0.5-0.4c-0.7,0.2-0.7,0-0.5,0.5c0.2,0.4-0.3,0.5,0.5,0.5
			C236.4,418.8,236.1,418.3,236.1,418.3z"/>
		<path class="st10" d="M234.5,418.7c-0.6,0.2-0.7-0.1-0.6,0.2c0.1,0.4-0.1,0.3,0.2,0.4c0.3,0.1,0.2,0.5,0.4,0.1
			C234.7,419,234.5,418.7,234.5,418.7z"/>
		<path class="st11" d="M232,416.8c-0.6,0.2-0.7-0.1-0.6,0.2c0.1,0.4-0.1,0.3,0.2,0.4c0.3,0.1,0.2,0.5,0.4,0.1
			C232.3,417.1,232,416.8,232,416.8z"/>
		<path class="st11" d="M226.2,409.2c-0.6,0.3-0.7-0.1-0.6,0.3c0.1,0.4-0.1,0.3,0.2,0.4c0.3,0.1,0.2,0.5,0.4,0.1
			C226.4,409.5,226.2,409.2,226.2,409.2z"/>
		<path class="st2" d="M227.1,402l-2.9-0.1l0.2-8.5c0,0,0.1-1.1-0.7-1.6c-0.8-0.5-5.2-2.2-5.5-2.2c-1.7-0.6-3.1-1.1-3.1-1.5
			c0-0.4,0.9-0.2,0.9-0.2s8.8,1.8,9.6,2.6c1,1,1.4,1.5,1.4,2.5v4.8l0,4.1"/>
		<rect x="224.2" y="401.7" class="st13" width="2.9" height="6.8"/>
		<path class="st11" d="M224.5,403.3c0.5,0.9-0.1,1.1,0.5,0.9c0.6-0.2,0.6,0.1,0.6-0.3c0-0.5,0.7-0.3,0-0.6
			C225,402.9,224.5,403.3,224.5,403.3z"/>
		<path class="st10" d="M226.4,405c-0.6,0.2-0.7-0.1-0.6,0.2c0.1,0.4-0.1,0.3,0.2,0.4c0.3,0,0.2,0.5,0.4,0.1
			C226.7,405.3,226.4,405,226.4,405z"/>
		<path class="st10" d="M225.9,407.2c-1.2-0.4-0.2-0.6-0.6-0.1c-0.5,0.6-0.6,0.4-0.2,0.7c0.4,0.3,0,0.5,0.7,0.1
			C226.4,407.5,225.9,407.2,225.9,407.2z"/>
		<path class="st10" d="M224.2,390.3c-0.6,0.2-0.7-0.1-0.6,0.2c0.1,0.4-0.1,0.3,0.2,0.4c0.3,0.1,0.2,0.5,0.4,0.1
			C224.4,390.6,224.2,390.3,224.2,390.3z"/>
		<path class="st10" d="M225.4,394.2c-0.2,0.6-0.5,0.5-0.2,0.6c0.4,0.1,0.2,0.3,0.4,0.1c0.2-0.2,0.5,0.2,0.3-0.3
			C225.8,394.2,225.4,394.2,225.4,394.2z"/>
		<path class="st11" d="M226.3,392.5c-0.8-0.9,0.1-0.6-0.5-0.4c-0.7,0.2-0.7,0-0.5,0.5c0.2,0.4-0.3,0.5,0.5,0.5
			C226.6,393,226.3,392.5,226.3,392.5z"/>
		<path class="st11" d="M225.4,397.4c0.3,0.8-0.1,0.9,0.3,0.8c0.5-0.1,0.5,0.1,0.5-0.2c0.1-0.4,0.6-0.2,0.1-0.5
			C225.8,397.1,225.4,397.4,225.4,397.4z"/>
		<path class="st10" d="M226.5,400.8c-0.8-0.9,0.1-0.6-0.5-0.4c-0.7,0.2-0.7,0-0.5,0.5c0.2,0.4-0.3,0.5,0.5,0.5
			C226.8,401.3,226.5,400.8,226.5,400.8z"/>
		<path class="st10" d="M222.5,389.8c-0.4-0.5,0.1-0.3-0.2-0.2c-0.4,0.1-0.4,0-0.3,0.2c0.1,0.2-0.1,0.2,0.3,0.2
			C222.6,390,222.5,389.8,222.5,389.8z"/>
		<path class="st10" d="M220.2,389.2c-0.4-0.5,0.1-0.3-0.2-0.2c-0.4,0.1-0.4,0-0.3,0.2c0.1,0.2-0.1,0.2,0.3,0.2
			C220.3,389.5,220.2,389.2,220.2,389.2z"/>
		<path class="st10" d="M221.3,390c-0.4-0.5,0.1-0.3-0.2-0.2c-0.4,0.1-0.4,0-0.3,0.2c0.1,0.2-0.1,0.2,0.3,0.2
			C221.4,390.2,221.3,390,221.3,390z"/>
		<path class="st10" d="M217.8,388.6c-0.4-0.5,0.1-0.3-0.2-0.2c-0.4,0.1-0.4,0-0.3,0.2c0.1,0.2-0.1,0.2,0.3,0.2
			C218,388.9,217.8,388.6,217.8,388.6z"/>
	</g>
</g>
</svg>
