<?xml version="1.0" encoding="utf-8"?>
<!-- Generator: Adobe Illustrator 21.1.0, SVG Export Plug-In . SVG Version: 6.00 Build 0)  -->
<svg version="1.1" xmlns="http://www.w3.org/2000/svg" xmlns:xlink="http://www.w3.org/1999/xlink" x="0px" y="0px"
	 viewBox="0 0 242.9 341.2" style="enable-background:new 0 0 242.9 341.2;" xml:space="preserve">
<style type="text/css">
	.Arched_x0020_Green{fill:url(#SVGID_1_);stroke:#FFFFFF;stroke-width:0.25;stroke-miterlimit:1;}
	.st0{fill:#FFFFFF;}
	.st1{stroke:#000000;stroke-width:1.2156;}
	.st2{fill:none;stroke:#000000;stroke-width:1.2156;}
	.st3{stroke:#000000;stroke-width:0.6502;}
	.st4{fill:#FFFFFF;stroke:#FFFFFF;stroke-width:0.6502;}
	.st5{fill:none;stroke:#000000;stroke-width:0.3076;}
	.st6{fill:none;stroke:#000000;stroke-width:0.6152;}
	.st7{fill:none;stroke:#000000;stroke-width:0.3062;}
	.st8{fill:none;stroke:#000000;stroke-width:0.6125;}
	.st9{fill:none;stroke:#000000;stroke-width:0.3251;}
	.st10{fill:#FFFFFF;stroke:#000000;stroke-width:0.3251;}
	.st11{fill:none;stroke:#000000;stroke-width:0.6502;}
	.st12{fill:#FFFFFF;stroke:#FFFFFF;stroke-width:0.3251;}
	.st13{font-family:'Arial-BoldMT';}
	.st14{font-size:10.6975px;}
	.st15{font-family:'ArialMT';}
	.st16{font-size:10px;}
	.st17{font-size:7.25px;}
	.st18{font-size:7.5px;}
	.st19{letter-spacing:3.1;}
	.st20{letter-spacing:5;}
	.st21{letter-spacing:4.8;}
	.st22{letter-spacing:3.2;}
	.st23{letter-spacing:3;}
	.st24{letter-spacing:2.8;}
	.st25{letter-spacing:4.5;}
	.st26{letter-spacing:2.9;}
	.st27{font-size:8.5px;}
</style>
<linearGradient id="SVGID_1_" gradientUnits="userSpaceOnUse" x1="-205.9869" y1="613.3822" x2="-205.2798" y2="612.6751">
	<stop  offset="0" style="stop-color:#20AC4B"/>
	<stop  offset="0.9831" style="stop-color:#19361A"/>
</linearGradient>
<g id="Layer_1">
</g>
<g id="text">
	<g>
		<rect x="0.4" y="0.3" width="241.9" height="28.3"/>
		<path class="st0" d="M177.6,17v-2.6h6.5v6.1c-0.6,0.6-1.5,1.2-2.7,1.7c-1.2,0.5-2.4,0.7-3.6,0.7c-1.6,0-2.9-0.3-4.1-1
			c-1.2-0.7-2-1.6-2.6-2.9c-0.6-1.3-0.9-2.6-0.9-4.1c0-1.6,0.3-3,1-4.3c0.7-1.2,1.6-2.2,2.9-2.8c1-0.5,2.1-0.8,3.6-0.8
			c1.9,0,3.3,0.4,4.3,1.2c1,0.8,1.7,1.9,2,3.3l-3,0.6c-0.2-0.8-0.6-1.3-1.2-1.8c-0.6-0.4-1.3-0.7-2.2-0.7c-1.3,0-2.4,0.4-3.1,1.3
			c-0.8,0.9-1.2,2.1-1.2,3.8c0,1.8,0.4,3.2,1.2,4.1c0.8,0.9,1.8,1.4,3.1,1.4c0.6,0,1.3-0.1,1.9-0.4c0.6-0.3,1.2-0.6,1.6-0.9V17
			 M155.7,22.6V7.3h2.9l6.1,10.2V7.3h2.8v15.3h-3l-6-10v10H155.7z M149.8,22.6V7.3h3v15.3H149.8z M134.8,22.6V7.3h2.9l6.1,10.2V7.3
			h2.8v15.3h-3l-6-10v10H134.8z M122.8,13.8h2.2c1.4,0,2.3-0.1,2.7-0.2c0.4-0.1,0.6-0.3,0.8-0.7c0.2-0.3,0.3-0.7,0.3-1.1
			c0-0.5-0.1-0.9-0.4-1.2c-0.3-0.3-0.6-0.5-1.1-0.6c-0.2,0-1-0.1-2.2-0.1h-2.3V13.8z M119.7,22.6V7.3h6.3c1.6,0,2.8,0.1,3.5,0.4
			c0.7,0.3,1.3,0.8,1.7,1.5c0.4,0.7,0.6,1.5,0.6,2.4c0,1.1-0.3,2.1-1,2.8c-0.7,0.7-1.6,1.2-3,1.4c0.7,0.4,1.2,0.8,1.6,1.3
			c0.4,0.5,1,1.3,1.7,2.5l1.8,3h-3.6l-2.2-3.3c-0.8-1.2-1.3-1.9-1.6-2.2c-0.3-0.3-0.6-0.5-0.9-0.6c-0.3-0.1-0.8-0.2-1.5-0.2h-0.6
			v6.4H119.7z M112.6,16.5l-2.1-5.7l-2,5.7H112.6z M118.1,22.6h-3.3l-1.3-3.5h-6l-1.2,3.5h-3.2L109,7.3h3.2L118.1,22.6z M88.3,22.6
			L84.7,7.3h3.1L90,17.8l2.7-10.5h3.6L99,18l2.3-10.7h3l-3.6,15.3h-3.2l-3-11.4l-3,11.4H88.3z"/>
		<line class="st1" x1="0.4" y1="44.4" x2="241.8" y2="44.4"/>
		<rect x="0.6" y="0.6" class="st2" width="241.7" height="340"/>
	</g>
	<g>
		<path class="st0" d="M72.9,4l-11,19h22.4L72.9,4z M74.1,21.5h-2.4v-2.4h2.4V21.5z M73.6,17.9h-1.4l-0.6-6.3V8.7h2.6v2.9L73.6,17.9
			z"/>
	</g>
	<g>
		<path class="st3" d="M0.6,266.9c15.9-7.8,14.9-9.4,26.1-12.5c5.9-1.6,18.4-1.5,23.3,0.4c4.2,1.6,10.6,4.6,10.6,4.6l18.1,10.2
			c0,0,0.1,17.8-0.4,17.3c-0.5-0.5-21.8-12.4-21.8-12.4v41.3l-38.1,0l-0.1-41l-17.4,9.4L0.6,266.9z"/>
		<path class="st3" d="M24.5,235.4c0,0-2,0-1.8-1.2c0.3-1.5,9-11,9-11s2.3-2.8,6.2-2.9c6.4-0.2,10,2.1,12.7,5.3
			c1.1,1.3,3.1,4.5,2.4,7.6c-0.5,1.9-2.5,5.9-4.3,10.2c-1.5,3.5-3,7.9-5.5,8.6c-3.4,1-10.4-3.1-17.5-6.4c-3.2-1.5-2.4-4.5-1.7-6.3
			C24.7,237.4,26.3,235.8,24.5,235.4L24.5,235.4z"/>
		<ellipse transform="matrix(0.2176 -0.976 0.976 0.2176 -199.173 211.4219)" class="st4" cx="32.3" cy="229.9" rx="1.7" ry="1.2"/>
		<path class="st5" d="M19.8,214.4c0.5,1.1-0.1,1.3,0.5,1.1c0.5-0.3,0.5,0.1,0.6-0.4c0-0.5,0.7-0.3,0-0.7
			C20.3,214,19.8,214.4,19.8,214.4z"/>
		<path class="st5" d="M16,214.4c0.3,1.4-0.3,0.9,0.2,0.7c0.5-0.2,0.5,0.1,0.6-0.4c0-0.6,0.7-0.4,0-0.8
			C16.2,213.6,16,214.4,16,214.4z"/>
		<path class="st5" d="M17.6,220c-1.1-0.4-0.5-0.8-0.6-0.1c-0.1,0.7-0.4,0.5,0,0.8c0.4,0.3-0.1,0.9,0.5,0.4
			C18.2,220.6,17.6,220,17.6,220z"/>
		<path class="st5" d="M11.3,219.2c-1.1-0.5-0.2-0.7-0.6-0.1c-0.5,0.7-0.6,0.5-0.2,0.8c0.4,0.3,0,0.6,0.7,0.2
			C11.7,219.5,11.3,219.2,11.3,219.2z"/>
		<path class="st5" d="M24.8,221.3c-0.4,1.4-0.6,0.3-0.1,0.7c0.5,0.6,0.4,0.7,0.7,0.2c0.3-0.4,0.5,0,0.1-0.8
			C25,220.7,24.8,221.3,24.8,221.3z"/>
		<path class="st5" d="M19.6,224c0.4,1.1-0.1,1.3,0.4,1.1c0.5-0.2,0.5,0.1,0.5-0.4c0-0.5,0.6-0.3,0-0.7C20,223.5,19.6,224,19.6,224z
			"/>
		<path class="st5" d="M13.9,227.5c0.5,1.1-0.1,1.3,0.5,1.1c0.5-0.2,0.5,0.1,0.6-0.4c0-0.5,0.7-0.3,0-0.7
			C14.3,227,13.9,227.5,13.9,227.5z"/>
		<path class="st5" d="M9.1,226.4c1-0.4,1.1,0.3,1-0.4c-0.1-0.7,0.2-0.6-0.2-0.8c-0.4-0.1-0.2-0.9-0.6-0.2
			C8.8,225.8,9.1,226.4,9.1,226.4z"/>
		<path class="st5" d="M7.3,221.7c-1,0.5-1.1-0.2-1,0.5c0.2,0.7-0.2,0.6,0.3,0.7c0.5,0.1,0.2,0.9,0.6,0.1
			C7.7,222.2,7.3,221.7,7.3,221.7z"/>
		<path class="st5" d="M8.6,227.9C9,229,8.5,229.3,9,229c0.5-0.2,0.5,0.2,0.6-0.4c0-0.5,0.7-0.3,0-0.7C9,227.5,8.6,227.9,8.6,227.9z
			"/>
		<path class="st5" d="M7.8,231.9c-0.7,1-1.1,0.5-0.7,1c0.4,0.5,0.1,0.7,0.5,0.5c0.4-0.2,0.6,0.6,0.6-0.3
			C8.3,232.2,7.8,231.9,7.8,231.9z"/>
		<path class="st5" d="M12.1,236.4c0.5,1.1-0.1,1.3,0.5,1.1c0.5-0.2,0.5,0.2,0.6-0.4c0-0.6,0.7-0.3,0-0.7
			C12.5,236,12.1,236.4,12.1,236.4z"/>
		<path class="st5" d="M12.3,241.9c-0.7,0.9-1.1,0.4-0.7,0.9c0.4,0.5,0.1,0.7,0.5,0.5c0.4-0.1,0.5,0.7,0.6-0.2
			C12.8,242.2,12.3,241.9,12.3,241.9z"/>
		<path class="st5" d="M14.1,246.5c0.4,0.9-0.1,1.1,0.4,0.9c0.4-0.2,0.4,0.1,0.5-0.3c0-0.5,0.6-0.3,0-0.6
			C14.5,246.1,14.1,246.5,14.1,246.5z"/>
		<path class="st5" d="M14.4,249.3c0.4,0.9-0.1,1.1,0.4,0.9c0.4-0.2,0.4,0.1,0.5-0.3c0-0.5,0.6-0.3,0-0.6
			C14.7,248.9,14.4,249.3,14.4,249.3z"/>
		<path class="st5" d="M14.7,223.2c-1.1-0.4-0.2-0.7-0.6-0.1c-0.5,0.7-0.6,0.5-0.2,0.8c0.4,0.3,0,0.6,0.7,0.1
			C15.2,223.5,14.7,223.2,14.7,223.2z"/>
		<path class="st5" d="M18,231.5c-1.1-0.5-0.2-0.7-0.6-0.1c-0.5,0.7-0.6,0.5-0.2,0.8c0.4,0.3,0,0.6,0.7,0.1
			C18.5,231.8,18,231.5,18,231.5z"/>
		<path class="st5" d="M15.2,231.3c-1.1-0.4-0.2-0.7-0.6-0.1c-0.5,0.7-0.6,0.5-0.2,0.8c0.4,0.3,0,0.6,0.7,0.2
			C15.7,231.6,15.2,231.3,15.2,231.3z"/>
		<path class="st5" d="M25.6,226.9c-1.1-0.4-0.2-0.7-0.6-0.1c-0.5,0.7-0.6,0.5-0.2,0.8c0.4,0.3,0,0.6,0.7,0.2
			C26.1,227.3,25.6,226.9,25.6,226.9z"/>
		<path class="st5" d="M15.2,216.7c-1.1-0.4-0.2-0.7-0.6-0.1c-0.5,0.7-0.6,0.5-0.2,0.8c0.4,0.3,0,0.6,0.7,0.1
			C15.7,217,15.2,216.7,15.2,216.7z"/>
		<path class="st5" d="M10.4,232.2c-1.1-0.4-0.2-0.7-0.6-0.1c-0.5,0.7-0.6,0.5-0.2,0.8c0.4,0.3,0,0.6,0.7,0.1
			C10.9,232.5,10.4,232.2,10.4,232.2z"/>
		<path class="st6" d="M17.9,226c-1.1-0.4-0.2-0.7-0.6-0.1c-0.5,0.7-0.6,0.5-0.2,0.8c0.4,0.3,0,0.6,0.7,0.1
			C18.4,226.3,17.9,226,17.9,226z"/>
		<path class="st5" d="M5.4,226c-1.1-0.4-0.2-0.7-0.6-0.1c-0.5,0.7-0.6,0.5-0.2,0.8c0.4,0.3,0,0.6,0.7,0.1
			C5.9,226.3,5.4,226,5.4,226z"/>
		<path class="st5" d="M7.6,225.1C7,225.4,6.9,225,7,225.4c0.1,0.4-0.1,0.4,0.2,0.5c0.3,0.1,0.1,0.6,0.4,0.1
			C7.8,225.5,7.6,225.1,7.6,225.1z"/>
		<path class="st5" d="M14.8,219.7c-0.6,0.3-0.7-0.1-0.6,0.3c0.1,0.4-0.1,0.4,0.2,0.5c0.3,0.1,0.2,0.6,0.4,0.1
			C15,220.1,14.8,219.7,14.8,219.7z"/>
		<path class="st6" d="M12.9,233c-1.1-0.4-0.2-0.7-0.6-0.1c-0.5,0.7-0.6,0.5-0.2,0.8c0.4,0.3,0,0.6,0.7,0.1
			C13.4,233.4,12.9,233,12.9,233z"/>
		<path class="st6" d="M5,231.2c-1.1-0.5-0.2-0.7-0.6-0.1c-0.5,0.7-0.6,0.5-0.2,0.8c0.4,0.3,0,0.6,0.7,0.2
			C5.5,231.5,5,231.2,5,231.2z"/>
		<path class="st5" d="M18.3,217.4c-1.1-0.5-0.2-0.7-0.6-0.1c-0.5,0.7-0.6,0.5-0.2,0.8c0.4,0.3,0,0.6,0.7,0.2
			C18.8,217.7,18.3,217.4,18.3,217.4z"/>
		<path class="st5" d="M11.8,223.7c-1.1-0.4-0.2-0.7-0.6-0.1c-0.5,0.7-0.6,0.5-0.2,0.8c0.4,0.3,0,0.6,0.7,0.2
			C12.3,224,11.8,223.7,11.8,223.7z"/>
		<path class="st5" d="M21,226.7c-0.1-1.4,0.4-0.5-0.1-0.7c-0.7-0.3-0.6-0.5-0.7,0.1c-0.1,0.5-0.5,0.3,0.1,0.8
			C20.9,227.3,21,226.7,21,226.7z"/>
		<path class="st5" d="M19,230.1c0.3-1.4,0.5-0.3,0.1-0.7c-0.6-0.6-0.4-0.7-0.7-0.2c-0.3,0.5-0.5,0.1-0.1,0.8
			C18.7,230.7,19,230.1,19,230.1z"/>
		<path class="st5" d="M21,237.4c0.3-1.4,0.5-0.3,0.1-0.7c-0.6-0.6-0.4-0.7-0.7-0.2c-0.3,0.5-0.5,0.1-0.1,0.8
			C20.7,238,21,237.4,21,237.4z"/>
		<path class="st5" d="M15.8,240.1c0.3-1.4,0.5-0.3,0.1-0.7c-0.6-0.6-0.4-0.7-0.7-0.2c-0.3,0.5-0.5,0.1-0.1,0.8
			C15.6,240.7,15.8,240.1,15.8,240.1z"/>
		<path class="st6" d="M9.2,240.3c0.3-1.4,0.5-0.3,0.1-0.7c-0.6-0.6-0.4-0.7-0.7-0.2c-0.3,0.5-0.5,0.1-0.1,0.8
			C9,240.9,9.2,240.3,9.2,240.3z"/>
		<path class="st5" d="M4.4,239c0.3-1.4,0.5-0.3,0.1-0.7c-0.6-0.6-0.4-0.7-0.7-0.2c-0.3,0.5-0.5,0.1-0.1,0.8
			C4.1,239.6,4.4,239,4.4,239z"/>
		<path class="st5" d="M4.7,241.7c-0.7,1-1.1,0.5-0.7,1c0.4,0.5,0.1,0.7,0.5,0.5c0.4-0.2,0.6,0.6,0.6-0.3
			C5.2,242,4.7,241.7,4.7,241.7z"/>
		<path class="st6" d="M12.5,244.6c-0.7,0.9-1.1,0.5-0.7,0.9c0.4,0.5,0.1,0.7,0.5,0.5c0.4-0.2,0.6,0.6,0.6-0.3
			C13,244.9,12.5,244.6,12.5,244.6z"/>
		<path class="st5" d="M25.6,229.1c-0.7,1-1.1,0.5-0.7,1c0.4,0.5,0.1,0.7,0.5,0.5c0.4-0.2,0.6,0.6,0.6-0.3
			C26.1,229.4,25.6,229.1,25.6,229.1z"/>
		<path class="st5" d="M15.7,244.2c0.3-1.4,0.5-0.3,0.1-0.7c-0.6-0.6-0.4-0.7-0.7-0.2c-0.3,0.5-0.5,0.1-0.1,0.8
			C15.4,244.7,15.7,244.2,15.7,244.2z"/>
		<path class="st5" d="M17.7,241.4c0.4,0.9-0.1,1.1,0.4,0.9c0.4-0.2,0.4,0.1,0.5-0.3c0-0.5,0.6-0.3,0-0.6
			C18.1,241,17.7,241.4,17.7,241.4z"/>
		<path class="st5" d="M8.9,242.1c0.4,0.9-0.1,1.1,0.4,0.9c0.4-0.2,0.4,0.1,0.5-0.3c0-0.5,0.6-0.3,0-0.6
			C9.2,241.8,8.9,242.1,8.9,242.1z"/>
		<path class="st5" d="M6.9,245.4c0.4,0.9-0.1,1.1,0.4,0.9c0.4-0.2,0.4,0.1,0.5-0.3c0-0.5,0.6-0.3,0-0.6
			C7.3,245,6.9,245.4,6.9,245.4z"/>
		<path class="st5" d="M10.4,246.8c0.3-1.4,0.5-0.3,0.1-0.7c-0.6-0.6-0.4-0.7-0.7-0.2c-0.3,0.5-0.5,0.1-0.1,0.8
			C10.1,247.4,10.4,246.8,10.4,246.8z"/>
		<path class="st6" d="M7.3,243.2c0.3-1.4,0.5-0.3,0.1-0.7c-0.6-0.6-0.4-0.7-0.7-0.2c-0.3,0.5-0.5,0.1-0.1,0.8
			C7,243.8,7.3,243.2,7.3,243.2z"/>
		<path class="st5" d="M8.2,236.7c0.3-1.4,0.5-0.3,0.1-0.7c-0.6-0.6-0.4-0.7-0.7-0.2c-0.3,0.5-0.5,0.1-0.1,0.8
			C8,237.3,8.2,236.7,8.2,236.7z"/>
		<path class="st5" d="M6.4,239c0.4,0.9-0.1,1.1,0.4,0.9c0.4-0.2,0.4,0.1,0.5-0.3c0-0.5,0.6-0.3,0-0.6C6.8,238.6,6.4,239,6.4,239z"
			/>
		<path class="st5" d="M21.9,228.6c0.3,0.9-0.1,1.1,0.3,0.9c0.5-0.2,0.4,0.2,0.5-0.3c0.1-0.4,0.6-0.2,0.1-0.6
			C22.3,228.3,21.9,228.6,21.9,228.6z"/>
		<path class="st5" d="M21.3,245.5c0.4,0.9-0.1,1.1,0.4,0.9c0.4-0.2,0.4,0.1,0.5-0.3c0-0.4,0.6-0.3,0-0.6
			C21.7,245.1,21.3,245.5,21.3,245.5z"/>
		<path class="st6" d="M18.6,245.2c0.3-1.4,0.5-0.3,0.1-0.7c-0.6-0.6-0.4-0.7-0.7-0.2c-0.3,0.5-0.5,0.1-0.1,0.8
			C18.4,245.7,18.6,245.2,18.6,245.2z"/>
		<path class="st6" d="M24.2,243.7c0.3-1.4,0.5-0.3,0.1-0.7c-0.6-0.6-0.4-0.7-0.7-0.2c-0.3,0.5-0.5,0.1-0.1,0.8
			C24,244.3,24.2,243.7,24.2,243.7z"/>
		<path class="st5" d="M19.8,248.9c0.4,0.9-0.1,1.1,0.4,0.9c0.4-0.2,0.4,0.1,0.5-0.3c0-0.4,0.6-0.3,0-0.6
			C20.1,248.5,19.8,248.9,19.8,248.9z"/>
		<path class="st5" d="M5.1,234.8c0.4,0.9-0.1,1.1,0.4,0.9c0.4-0.2,0.4,0.1,0.5-0.3c0-0.5,0.6-0.3,0-0.6
			C5.4,234.5,5.1,234.8,5.1,234.8z"/>
		<path class="st5" d="M10.4,235.9c-0.6,0.3-0.7-0.1-0.6,0.3c0.1,0.4-0.1,0.4,0.2,0.5c0.3,0.1,0.1,0.6,0.4,0.1
			C10.7,236.2,10.4,235.9,10.4,235.9z"/>
		<path class="st5" d="M23.5,240c-0.6,0.3-0.7-0.1-0.6,0.3c0.1,0.4-0.1,0.4,0.2,0.5c0.3,0.1,0.1,0.6,0.4,0.1
			C23.8,240.4,23.5,240,23.5,240z"/>
		<path class="st5" d="M21.1,242.6c-0.6,0.3-0.7-0.1-0.6,0.3c0.1,0.4-0.1,0.4,0.2,0.5c0.3,0.1,0.2,0.6,0.4,0.1
			C21.3,243,21.1,242.6,21.1,242.6z"/>
		<path class="st5" d="M18,246.9c-0.6,0.3-0.7-0.1-0.6,0.3c0.1,0.4-0.1,0.4,0.2,0.5c0.3,0.1,0.2,0.6,0.4,0.1
			C18.2,247.3,18,246.9,18,246.9z"/>
		<path class="st5" d="M19.8,238.4c-1,0.3-1.1-0.4-1,0.3c0.1,0.7-0.3,0.6,0.2,0.8c0.4,0.2,0.1,0.9,0.6,0.2
			C20.1,239,19.8,238.4,19.8,238.4z"/>
		<path class="st6" d="M8.3,220.3c0.9-0.5,1.1,0.1,0.9-0.5c-0.2-0.7,0.1-0.6-0.3-0.7c-0.5-0.1-0.3-0.9-0.6-0.1
			C7.9,219.8,8.3,220.3,8.3,220.3z"/>
		<path class="st5" d="M10,222.4c-1.1-0.4-0.2-0.7-0.6-0.1c-0.5,0.7-0.6,0.5-0.2,0.8c0.4,0.3,0,0.6,0.7,0.1
			C10.5,222.7,10,222.4,10,222.4z"/>
		<path class="st5" d="M18.2,223c-1.1-0.4-0.2-0.7-0.6-0.1c-0.5,0.7-0.6,0.5-0.2,0.8c0.4,0.3,0,0.6,0.7,0.2
			C18.7,223.3,18.2,223,18.2,223z"/>
		<path class="st6" d="M11.9,216.7c-0.6,1.2-0.6,0.1-0.3,0.7c0.4,0.7,0.3,0.8,0.6,0.4c0.4-0.4,0.5,0.1,0.3-0.7
			C12.3,216.2,11.9,216.7,11.9,216.7z"/>
		<path class="st5" d="M13.7,213.5c-1.1-0.5-0.2-0.7-0.6-0.1c-0.5,0.7-0.6,0.5-0.2,0.8c0.4,0.3,0,0.6,0.7,0.1
			C14.2,213.9,13.7,213.5,13.7,213.5z"/>
		<path class="st5" d="M5.1,219.2c-0.6,1.3-0.6,0.2-0.2,0.7c0.5,0.7,0.3,0.8,0.6,0.4c0.3-0.4,0.5,0.1,0.2-0.8
			C5.5,218.7,5.1,219.2,5.1,219.2z"/>
		<path class="st5" d="M6.5,216.4c-1.1,0.7-0.6-0.3-0.5,0.4c0.1,0.9-0.1,0.8,0.4,0.7c0.5-0.1,0.4,0.4,0.6-0.5
			C7.1,216.2,6.5,216.4,6.5,216.4z"/>
		<path class="st5" d="M7.2,229.5c-1.1-0.4-0.2-0.7-0.6-0.1c-0.5,0.7-0.6,0.5-0.2,0.8c0.4,0.3,0,0.6,0.7,0.1
			C7.7,229.9,7.2,229.5,7.2,229.5z"/>
		<path class="st6" d="M5.1,222.7c-1-0.8-0.1-0.7-0.6-0.3c-0.6,0.5-0.7,0.3-0.3,0.7c0.3,0.4-0.1,0.6,0.6,0.3
			C5.5,223.1,5.1,222.7,5.1,222.7z"/>
		<path class="st5" d="M3.7,229.8c1.1-0.5,0.5,0.3,0.5-0.4c0-0.9,0.2-0.8-0.3-0.8c-0.5,0-0.4-0.5-0.6,0.4
			C3.2,229.9,3.7,229.8,3.7,229.8z"/>
		<path class="st5" d="M13.3,239.9c-0.1-1.2,0.4-1.2-0.1-1.2c-0.5,0-0.4-0.3-0.6,0.2c-0.2,0.5-0.7,0.1-0.2,0.7
			C12.8,240.2,13.3,239.9,13.3,239.9z"/>
		<path class="st5" d="M11.9,228.6c-1,0.1-1-0.6-1,0.1c0,0.7-0.3,0.5,0.1,0.8c0.4,0.3,0,0.9,0.6,0.3
			C12.1,229.2,11.9,228.6,11.9,228.6z"/>
		<path class="st6" d="M13,225.9c-1,0.1-1-0.6-1,0.1c0,0.7-0.3,0.5,0.1,0.8c0.4,0.3,0,0.9,0.6,0.3C13.2,226.5,13,225.9,13,225.9z"/>
		<path class="st5" d="M11.1,214.7c-0.6,0.3-0.7-0.1-0.6,0.3c0.1,0.4-0.1,0.4,0.2,0.5c0.3,0.1,0.2,0.6,0.4,0.1
			C11.3,215.1,11.1,214.7,11.1,214.7z"/>
		<path class="st5" d="M15.3,235c-0.8-1.1,0.1-0.7-0.5-0.5c-0.7,0.2-0.7,0-0.5,0.6c0.2,0.5-0.3,0.6,0.5,0.6
			C15.6,235.6,15.3,235,15.3,235z"/>
		<path class="st6" d="M17.8,235.1c-1,0.1-1-0.6-1,0.1c0,0.7-0.3,0.5,0.1,0.8c0.4,0.3,0,0.9,0.6,0.3C18,235.7,17.8,235.1,17.8,235.1
			z"/>
		<path class="st5" d="M20.1,233.2c-0.6,0.3-0.7-0.1-0.6,0.3c0.1,0.4-0.1,0.4,0.2,0.5c0.3,0.1,0.2,0.6,0.4,0.1
			C20.4,233.6,20.1,233.2,20.1,233.2z"/>
		<path class="st5" d="M21.4,232.1c-0.1-1.4,0.4-0.5-0.1-0.7c-0.7-0.3-0.6-0.5-0.7,0.1c-0.1,0.5-0.5,0.3,0.1,0.8
			C21.3,232.7,21.4,232.1,21.4,232.1z"/>
		<path class="st6" d="M22.2,233.4c1.2-0.3,0.5,0.4,0.6-0.2c0.2-0.9,0.3-0.8-0.2-0.8c-0.5-0.1-0.3-0.5-0.6,0.3
			C21.7,233.4,22.2,233.4,22.2,233.4z"/>
		<path class="st5" d="M23.4,233.6c0.3,0.9-0.1,1.1,0.3,0.9c0.5-0.2,0.4,0.2,0.5-0.3c0.1-0.4,0.6-0.2,0.1-0.6
			C23.8,233.3,23.4,233.6,23.4,233.6z"/>
		<path class="st5" d="M22.5,236.5c0.3,0.9-0.1,1.1,0.3,0.9c0.5-0.2,0.4,0.2,0.5-0.3c0.1-0.4,0.6-0.2,0.1-0.6
			C22.9,236.2,22.5,236.5,22.5,236.5z"/>
		<path class="st5" d="M25.8,238.4c-0.8-1.1,0.1-0.7-0.5-0.5c-0.7,0.2-0.7,0-0.5,0.6c0.2,0.5-0.3,0.6,0.5,0.6
			C26.1,239,25.8,238.4,25.8,238.4z"/>
		<path class="st5" d="M25.2,245.7c-0.6,0.3-0.7-0.1-0.6,0.3c0.1,0.4-0.1,0.4,0.2,0.5c0.3,0.1,0.1,0.6,0.4,0.1
			C25.4,246.1,25.2,245.7,25.2,245.7z"/>
		<path class="st5" d="M28.7,221.3c-0.6,0.3-0.7-0.1-0.6,0.3c0.1,0.4-0.1,0.4,0.2,0.5c0.3,0.1,0.1,0.6,0.4,0.1
			C28.9,221.7,28.7,221.3,28.7,221.3z"/>
		<path class="st5" d="M27.7,224.3c-0.6,0.3-0.7-0.1-0.6,0.3c0.1,0.4-0.1,0.4,0.2,0.5c0.3,0.1,0.1,0.6,0.4,0.1
			C28,224.6,27.7,224.3,27.7,224.3z"/>
		<path class="st6" d="M30.1,223.9c-1.1-0.4-0.2-0.7-0.6-0.1c-0.5,0.7-0.6,0.5-0.2,0.8c0.4,0.3,0,0.6,0.7,0.1
			C30.6,224.2,30.1,223.9,30.1,223.9z"/>
		<path class="st5" d="M28.4,227.2c-1.1-0.4-0.2-0.7-0.6-0.1c-0.5,0.7-0.6,0.5-0.2,0.8c0.4,0.3,0,0.6,0.7,0.1
			C28.8,227.6,28.4,227.2,28.4,227.2z"/>
		<path class="st5" d="M26.5,216.9c-1.1-0.4-0.2-0.7-0.6-0.1c-0.5,0.7-0.6,0.5-0.2,0.8c0.4,0.3,0,0.6,0.7,0.1
			C27,217.2,26.5,216.9,26.5,216.9z"/>
		<path class="st5" d="M27.1,219.6c-0.6,0.3-0.7-0.1-0.6,0.3c0.1,0.4-0.1,0.4,0.2,0.5c0.3,0.1,0.2,0.6,0.4,0.1
			C27.3,219.9,27.1,219.6,27.1,219.6z"/>
		<path class="st5" d="M24.4,214.3c-1.1-0.5-0.5-0.8-0.6-0.1c-0.1,0.7-0.4,0.5,0,0.8c0.4,0.3-0.1,0.9,0.5,0.4
			C25,214.9,24.4,214.3,24.4,214.3z"/>
		<path class="st5" d="M23.2,224.8c-0.2-1.4,0.4-0.9-0.2-0.7c-0.6,0.2-0.5-0.2-0.6,0.3c-0.1,0.5-0.7,0.3-0.1,0.7
			C22.9,225.6,23.2,224.8,23.2,224.8z"/>
		<path class="st5" d="M21.1,219.8c-1.1-0.5-0.2-0.7-0.6-0.1c-0.5,0.7-0.6,0.5-0.2,0.8c0.4,0.3,0,0.6,0.7,0.1
			C21.6,220.2,21.1,219.8,21.1,219.8z"/>
		<path class="st5" d="M24.6,218.5c-1.1-0.5-0.5-0.8-0.6-0.2c-0.1,0.7-0.4,0.5,0,0.8c0.4,0.3-0.1,0.9,0.5,0.4
			C25.1,219.1,24.6,218.5,24.6,218.5z"/>
		<path class="st6" d="M22.9,220.9c-1.1-0.4-0.5-0.8-0.6-0.1c-0.1,0.7-0.4,0.5,0,0.8c0.4,0.3-0.1,0.9,0.5,0.4
			C23.5,221.5,22.9,220.9,22.9,220.9z"/>
		<path class="st5" d="M20.8,217.4c-1.1-0.4-0.5-0.8-0.6-0.1c-0.1,0.7-0.4,0.5,0,0.8c0.4,0.3-0.1,0.9,0.5,0.4
			C21.3,218,20.8,217.4,20.8,217.4z"/>
		<path class="st5" d="M23.5,216.3c-0.6,0.3-0.7-0.1-0.6,0.3c0.1,0.4-0.1,0.4,0.2,0.5c0.3,0.1,0.1,0.6,0.4,0.1
			C23.7,216.6,23.5,216.3,23.5,216.3z"/>
		<path class="st7" d="M62.6,216.8c0.5,1.1-0.1,1.3,0.5,1.1c0.6-0.2,0.6,0.1,0.6-0.4c0-0.5,0.7-0.3,0-0.7
			C63,216.3,62.6,216.8,62.6,216.8z"/>
		<path class="st8" d="M59.3,216.3c0.3,1.4-0.3,0.9,0.2,0.7c0.6-0.2,0.6,0.1,0.6-0.4c0-0.5,0.7-0.3,0-0.7
			C59.5,215.5,59.3,216.3,59.3,216.3z"/>
		<path class="st7" d="M62.7,221.1c-1.2-0.4-0.5-0.8-0.6-0.1c-0.1,0.7-0.4,0.5,0,0.8c0.4,0.3-0.1,0.9,0.5,0.4
			C63.2,221.6,62.7,221.1,62.7,221.1z"/>
		<path class="st7" d="M55,220c-1.2-0.4-0.2-0.6-0.6-0.1c-0.5,0.6-0.6,0.5-0.2,0.8c0.4,0.3,0,0.6,0.7,0.1C55.5,220.4,55,220,55,220z
			"/>
		<path class="st7" d="M68.8,221.7c-0.4,1.3-0.6,0.3-0.1,0.7c0.6,0.6,0.4,0.7,0.7,0.2c0.3-0.4,0.5,0,0.1-0.8
			C69.1,221.1,68.8,221.7,68.8,221.7z"/>
		<path class="st8" d="M66.8,225.2c0.4,1.1-0.1,1.3,0.4,1.1c0.5-0.2,0.5,0.1,0.5-0.4c0-0.5,0.7-0.3,0-0.7
			C67.2,224.8,66.8,225.2,66.8,225.2z"/>
		<path class="st7" d="M63.3,229.3c0.5,1.1-0.1,1.3,0.5,1.1c0.6-0.2,0.6,0.1,0.6-0.4c0-0.5,0.7-0.3,0-0.7
			C63.8,228.9,63.3,229.3,63.3,229.3z"/>
		<path class="st7" d="M57.1,226.2c1-0.3,1.1,0.3,1-0.3c-0.1-0.7,0.2-0.6-0.2-0.7c-0.5-0.1-0.2-0.9-0.6-0.2
			C56.8,225.7,57.1,226.2,57.1,226.2z"/>
		<path class="st7" d="M51,222.5c-1,0.4-1.1-0.2-1,0.4c0.2,0.6-0.2,0.6,0.3,0.7s0.2,0.8,0.6,0.1C51.3,223,51,222.5,51,222.5z"/>
		<path class="st7" d="M53.7,226.7c0.5,1.1-0.1,1.3,0.5,1.1c0.6-0.2,0.6,0.1,0.6-0.4c0-0.5,0.7-0.3,0-0.7
			C54.1,226.2,53.7,226.7,53.7,226.7z"/>
		<path class="st8" d="M54.6,233.7c-0.7,0.9-1.1,0.4-0.7,0.9c0.4,0.5,0.1,0.6,0.6,0.5c0.4-0.2,0.6,0.6,0.6-0.3
			C55.2,233.9,54.6,233.7,54.6,233.7z"/>
		<path class="st7" d="M57.7,237.6c0.5,1.1-0.1,1.3,0.5,1.1c0.6-0.2,0.6,0.1,0.6-0.4c0-0.5,0.7-0.3,0-0.7
			C58.1,237.2,57.7,237.6,57.7,237.6z"/>
		<path class="st7" d="M54.4,241.9c-0.7,0.9-1.1,0.3-0.7,0.9c0.4,0.5,0.1,0.6,0.5,0.5c0.5-0.1,0.5,0.7,0.6-0.2
			C54.9,242.2,54.4,241.9,54.4,241.9z"/>
		<path class="st8" d="M53.7,244.3c0.4,0.9-0.1,1.1,0.4,0.9c0.5-0.2,0.5,0.1,0.5-0.3c0-0.4,0.6-0.3,0-0.6
			C54,244,53.7,244.3,53.7,244.3z"/>
		<path class="st7" d="M59.6,246.5c0.4,0.9-0.1,1.1,0.4,0.9c0.5-0.2,0.5,0.1,0.5-0.3c0-0.4,0.6-0.3,0-0.6
			C60,246.2,59.6,246.5,59.6,246.5z"/>
		<path class="st8" d="M61.2,223.5c-1.2-0.4-0.2-0.6-0.6-0.1c-0.5,0.6-0.6,0.5-0.2,0.8c0.4,0.3,0,0.6,0.7,0.1
			C61.7,223.8,61.2,223.5,61.2,223.5z"/>
		<path class="st7" d="M63,231.6c-1.2-0.4-0.2-0.6-0.6-0.1c-0.5,0.6-0.6,0.5-0.2,0.8c0.4,0.3,0,0.6,0.7,0.1
			C63.5,231.9,63,231.6,63,231.6z"/>
		<path class="st7" d="M60.3,236.4c-1.2-0.4-0.2-0.6-0.6-0.1c-0.5,0.6-0.6,0.5-0.2,0.8c0.4,0.3,0,0.6,0.7,0.1
			C60.8,236.7,60.3,236.4,60.3,236.4z"/>
		<path class="st7" d="M74.8,227.8c-1.2-0.4-0.2-0.6-0.6-0.1c-0.5,0.6-0.6,0.5-0.2,0.8c0.4,0.3,0,0.6,0.7,0.1
			C75.3,228.2,74.8,227.8,74.8,227.8z"/>
		<path class="st7" d="M58.6,217.2c-1.2-0.4-0.2-0.6-0.6-0.1c-0.5,0.6-0.6,0.5-0.2,0.8c0.4,0.3,0,0.6,0.7,0.1
			C59.1,217.5,58.6,217.2,58.6,217.2z"/>
		<path class="st7" d="M56.7,231.9c-1.2-0.4-0.2-0.6-0.6-0.1c-0.5,0.6-0.6,0.5-0.2,0.8c0.4,0.3,0,0.6,0.7,0.1
			C57.2,232.2,56.7,231.9,56.7,231.9z"/>
		<path class="st7" d="M62,228.2c-1.2-0.4-0.2-0.6-0.6-0.1c-0.5,0.6-0.6,0.5-0.2,0.8c0.4,0.3,0,0.6,0.7,0.1
			C62.5,228.5,62,228.2,62,228.2z"/>
		<path class="st7" d="M57.4,219.9c-1.2-0.4-0.2-0.6-0.6-0.1c-0.5,0.6-0.6,0.5-0.2,0.8c0.4,0.3,0,0.6,0.7,0.1
			C57.9,220.2,57.4,219.9,57.4,219.9z"/>
		<path class="st7" d="M53.7,224.8c-0.6,0.3-0.7-0.1-0.6,0.3c0.1,0.4-0.1,0.4,0.2,0.5c0.3,0.1,0.2,0.5,0.4,0.1
			C53.9,225.1,53.7,224.8,53.7,224.8z"/>
		<path class="st7" d="M59.8,221.1c-0.6,0.3-0.7-0.1-0.6,0.3c0.1,0.4-0.1,0.4,0.2,0.5c0.3,0.1,0.2,0.5,0.4,0.1
			C60,221.4,59.8,221.1,59.8,221.1z"/>
		<path class="st8" d="M65.1,236.1c-1.2-0.4-0.2-0.6-0.6-0.1c-0.5,0.6-0.6,0.5-0.2,0.8c0.4,0.3,0,0.6,0.7,0.1
			C65.6,236.5,65.1,236.1,65.1,236.1z"/>
		<path class="st7" d="M58.2,222.7c-1.2-0.4-0.2-0.6-0.6-0.1c-0.5,0.6-0.6,0.5-0.2,0.8c0.4,0.3,0,0.6,0.7,0.1
			C58.7,223,58.2,222.7,58.2,222.7z"/>
		<path class="st7" d="M61.6,218.1c-1.2-0.4-0.2-0.6-0.6-0.1c-0.5,0.6-0.6,0.5-0.2,0.8c0.4,0.3,0,0.6,0.7,0.1
			C62.1,218.4,61.6,218.1,61.6,218.1z"/>
		<path class="st7" d="M55.9,222.8c-1.2-0.4-0.2-0.6-0.6-0.1c-0.5,0.6-0.6,0.5-0.2,0.8c0.4,0.3,0,0.6,0.7,0.1
			C56.4,223.2,55.9,222.8,55.9,222.8z"/>
		<path class="st7" d="M66.2,228.1c-0.1-1.4,0.4-0.5-0.1-0.7c-0.7-0.3-0.6-0.4-0.7,0.1c-0.1,0.5-0.5,0.3,0.1,0.8
			C66.1,228.7,66.2,228.1,66.2,228.1z"/>
		<path class="st7" d="M65.5,232.3c0.3-1.3,0.6-0.3,0.1-0.7c-0.6-0.5-0.4-0.6-0.7-0.2c-0.3,0.4-0.5,0.1-0.1,0.8
			C65.2,232.9,65.5,232.3,65.5,232.3z"/>
		<path class="st8" d="M70.4,244.5c0.3-1.3,0.6-0.3,0.1-0.7c-0.6-0.5-0.4-0.6-0.7-0.2c-0.3,0.4-0.5,0.1-0.1,0.8
			C70.1,245.1,70.4,244.5,70.4,244.5z"/>
		<path class="st7" d="M60.6,240.4c0.3-1.3,0.6-0.3,0.1-0.7c-0.6-0.5-0.4-0.6-0.7-0.2c-0.3,0.4-0.5,0.1-0.1,0.8
			C60.4,241,60.6,240.4,60.6,240.4z"/>
		<path class="st9" d="M53.1,239.8c0.4-1.3,0.6-0.3,0.1-0.7c-0.7-0.5-0.5-0.6-0.8-0.2c-0.3,0.4-0.6,0.1-0.1,0.8
			C52.8,240.4,53.1,239.8,53.1,239.8z"/>
		<path class="st7" d="M57.1,243.7c-0.7,0.9-1.1,0.4-0.7,0.9c0.4,0.5,0.1,0.6,0.6,0.5c0.4-0.2,0.6,0.6,0.6-0.3
			C57.6,244,57.1,243.7,57.1,243.7z"/>
		<path class="st7" d="M69,229c-0.7,0.9-1.1,0.4-0.7,0.9c0.4,0.5,0.1,0.6,0.6,0.5c0.4-0.2,0.6,0.6,0.6-0.3C69.6,229.3,69,229,69,229
			z"/>
		<path class="st7" d="M58.6,243.1c0.3-1.3,0.6-0.3,0.1-0.7c-0.6-0.5-0.4-0.6-0.7-0.2c-0.3,0.4-0.5,0.1-0.1,0.8
			C58.3,243.7,58.6,243.1,58.6,243.1z"/>
		<path class="st7" d="M60.8,242.2c0.4,0.9-0.1,1.1,0.4,0.9c0.5-0.2,0.5,0.1,0.5-0.3c0-0.4,0.6-0.3,0-0.6
			C61.1,241.9,60.8,242.2,60.8,242.2z"/>
		<path class="st7" d="M56.5,236c0.4,0.9-0.1,1.1,0.4,0.9c0.5-0.2,0.5,0.1,0.5-0.3c0-0.4,0.6-0.3,0-0.6
			C56.9,235.7,56.5,236,56.5,236z"/>
		<path class="st7" d="M54.6,240c0.4,0.9-0.1,1.1,0.4,0.9c0.5-0.2,0.5,0.1,0.5-0.3c0-0.4,0.6-0.3,0-0.6
			C54.9,239.6,54.6,240,54.6,240z"/>
		<path class="st7" d="M66.8,240c0.3-1.3,0.6-0.3,0.1-0.7c-0.6-0.5-0.4-0.6-0.7-0.2c-0.3,0.4-0.5,0.1-0.1,0.8
			C66.6,240.5,66.8,240,66.8,240z"/>
		<path class="st9" d="M51.4,243.8c0.4-1.3,0.6-0.3,0.1-0.7c-0.7-0.5-0.5-0.6-0.8-0.2c-0.3,0.4-0.6,0.1-0.1,0.8
			C51.1,244.3,51.4,243.8,51.4,243.8z"/>
		<path class="st7" d="M57,234.6c0.3-1.3,0.6-0.3,0.1-0.7c-0.6-0.5-0.4-0.6-0.7-0.2c-0.3,0.4-0.5,0.1-0.1,0.8
			C56.8,235.2,57,234.6,57,234.6z"/>
		<path class="st8" d="M73.7,233c0.3,0.9-0.2,1.1,0.3,0.9c0.5-0.2,0.4,0.2,0.5-0.3c0.1-0.4,0.6-0.2,0.1-0.6
			C74.1,232.7,73.7,233,73.7,233z"/>
		<path class="st7" d="M66.7,244.5c0.4,0.9-0.1,1.1,0.4,0.9c0.5-0.2,0.5,0.1,0.5-0.3c0-0.4,0.6-0.3,0-0.6
			C67.1,244.1,66.7,244.5,66.7,244.5z"/>
		<path class="st8" d="M61.7,245.7c0.3-1.3,0.6-0.3,0.1-0.7c-0.6-0.5-0.4-0.6-0.7-0.2c-0.3,0.4-0.5,0.1-0.1,0.8
			C61.4,246.3,61.7,245.7,61.7,245.7z"/>
		<path class="st7" d="M72,242.8c0.3-1.3,0.6-0.3,0.1-0.7c-0.6-0.5-0.4-0.6-0.7-0.2c-0.3,0.4-0.5,0.1-0.1,0.8
			C71.8,243.4,72,242.8,72,242.8z"/>
		<path class="st7" d="M64.7,247.2c0.4,0.9-0.1,1.1,0.4,0.9c0.5-0.2,0.5,0.1,0.5-0.3c0-0.4,0.6-0.3,0-0.6
			C65.1,246.8,64.7,247.2,64.7,247.2z"/>
		<path class="st8" d="M58.8,230c0.4,0.9-0.1,1.1,0.4,0.9c0.5-0.2,0.5,0.1,0.5-0.3c0-0.4,0.6-0.3,0-0.6
			C59.1,229.6,58.8,230,58.8,230z"/>
		<path class="st7" d="M54.5,236.4c-0.6,0.3-0.7-0.1-0.6,0.3c0.1,0.4-0.1,0.4,0.2,0.5c0.3,0.1,0.2,0.5,0.4,0.1
			C54.8,236.7,54.5,236.4,54.5,236.4z"/>
		<path class="st7" d="M67.8,242c-0.6,0.3-0.7-0.1-0.6,0.3c0.1,0.4-0.1,0.4,0.2,0.5c0.3,0.1,0.2,0.5,0.4,0.1
			C68,242.3,67.8,242,67.8,242z"/>
		<path class="st7" d="M64.7,243.3c-0.6,0.3-0.7-0.1-0.6,0.3c0.1,0.4-0.1,0.4,0.2,0.5c0.3,0.1,0.2,0.5,0.4,0.1
			C64.9,243.6,64.7,243.3,64.7,243.3z"/>
		<path class="st7" d="M69.8,240.1c-0.6,0.3-0.7-0.1-0.6,0.3c0.1,0.4-0.1,0.4,0.2,0.5c0.3,0.1,0.2,0.5,0.4,0.1
			C70,240.4,69.8,240.1,69.8,240.1z"/>
		<path class="st7" d="M64.7,240.7c-1,0.2-1.1-0.4-1,0.2c0.1,0.7-0.3,0.6,0.2,0.8c0.4,0.2,0.1,0.9,0.6,0.2
			C65,241.3,64.7,240.7,64.7,240.7z"/>
		<path class="st7" d="M51.9,221.2c1-0.5,1.2,0.1,1-0.5c-0.2-0.6,0.1-0.6-0.3-0.7c-0.5-0.1-0.3-0.8-0.6-0.1
			C51.6,220.7,51.9,221.2,51.9,221.2z"/>
		<path class="st8" d="M53.6,222.7c-1.2-0.4-0.2-0.6-0.6-0.1c-0.5,0.6-0.6,0.5-0.2,0.8c0.4,0.3,0,0.6,0.7,0.1
			C54.1,223,53.6,222.7,53.6,222.7z"/>
		<path class="st7" d="M65,224.9c-1.2-0.4-0.2-0.6-0.6-0.1c-0.5,0.6-0.6,0.5-0.2,0.8c0.4,0.3,0,0.6,0.7,0.1
			C65.5,225.2,65,224.9,65,224.9z"/>
		<path class="st7" d="M55.1,217.1c-0.6,1.2-0.6,0.1-0.3,0.7c0.4,0.7,0.3,0.8,0.6,0.4c0.4-0.4,0.5,0.1,0.3-0.7
			C55.5,216.6,55.1,217.1,55.1,217.1z"/>
		<path class="st7" d="M57,215.1c-1.2-0.4-0.2-0.6-0.6-0.1c-0.5,0.6-0.6,0.5-0.2,0.8c0.4,0.3,0,0.6,0.7,0.1
			C57.5,215.4,57,215.1,57,215.1z"/>
		<path class="st7" d="M47.8,219.6c-0.6,1.2-0.6,0.2-0.2,0.7c0.5,0.7,0.3,0.7,0.7,0.4c0.3-0.4,0.5,0.1,0.2-0.7
			C48.1,219.1,47.8,219.6,47.8,219.6z"/>
		<path class="st7" d="M50.6,217.7c-1.1,0.7-0.6-0.3-0.5,0.4c0.1,0.8-0.1,0.8,0.4,0.7c0.5-0.1,0.4,0.4,0.6-0.5
			C51.1,217.5,50.6,217.7,50.6,217.7z"/>
		<path class="st7" d="M60.5,232.1c-1.2-0.4-0.2-0.6-0.6-0.1c-0.5,0.6-0.6,0.5-0.2,0.8c0.4,0.3,0,0.6,0.7,0.1
			C61,232.4,60.5,232.1,60.5,232.1z"/>
		<path class="st7" d="M51,220.4c-1-0.7-0.1-0.7-0.6-0.3c-0.6,0.5-0.7,0.3-0.4,0.7c0.3,0.4-0.1,0.6,0.6,0.3
			C51.4,220.8,51,220.4,51,220.4z"/>
		<path class="st8" d="M57.7,240.4c-0.1-1.2,0.4-1.2-0.1-1.2c-0.5,0-0.4-0.3-0.6,0.2c-0.2,0.5-0.7,0.1-0.2,0.7
			C57.2,240.7,57.7,240.4,57.7,240.4z"/>
		<path class="st7" d="M55.4,230.2c-1.1,0.1-1-0.6-1.1,0.1c0,0.7-0.3,0.5,0.1,0.8c0.4,0.3,0,0.9,0.6,0.3
			C55.6,230.9,55.4,230.2,55.4,230.2z"/>
		<path class="st7" d="M57.7,228.7c-1.1,0.1-1-0.6-1.1,0.1c0,0.7-0.3,0.5,0.1,0.8c0.4,0.3,0,0.9,0.6,0.3
			C57.9,229.3,57.7,228.7,57.7,228.7z"/>
		<path class="st7" d="M53.5,215.7c-0.6,0.3-0.7-0.1-0.6,0.3c0.1,0.4-0.1,0.4,0.2,0.5c0.3,0.1,0.2,0.5,0.4,0.1
			C53.7,216,53.5,215.7,53.5,215.7z"/>
		<path class="st7" d="M63.1,237.8c-0.8-1.1,0.1-0.7-0.5-0.5c-0.7,0.2-0.7,0-0.5,0.5c0.2,0.5-0.3,0.5,0.5,0.5
			C63.4,238.3,63.1,237.8,63.1,237.8z"/>
		<path class="st7" d="M61.3,233.9c-1.1,0.1-1-0.6-1.1,0.1c0,0.7-0.3,0.5,0.1,0.8c0.4,0.3,0,0.9,0.6,0.3
			C61.5,234.5,61.3,233.9,61.3,233.9z"/>
		<path class="st7" d="M71.7,234.7c-0.6,0.3-0.7-0.1-0.6,0.3c0.1,0.4-0.1,0.4,0.2,0.5c0.3,0.1,0.2,0.5,0.4,0.1
			C71.9,235,71.7,234.7,71.7,234.7z"/>
		<path class="st7" d="M69.5,234.1c-0.1-1.4,0.4-0.5-0.1-0.7c-0.7-0.3-0.6-0.4-0.7,0.1c-0.1,0.5-0.5,0.3,0.1,0.8
			C69.4,234.7,69.5,234.1,69.5,234.1z"/>
		<path class="st7" d="M66.5,234.5c1.2-0.3,0.5,0.4,0.6-0.2c0.2-0.8,0.3-0.7-0.2-0.8c-0.5-0.1-0.3-0.5-0.7,0.3
			C65.9,234.5,66.5,234.5,66.5,234.5z"/>
		<path class="st7" d="M73.2,236.5c0.3,0.9-0.1,1.1,0.3,0.9c0.5-0.2,0.4,0.2,0.5-0.3c0.1-0.4,0.6-0.2,0.1-0.6
			C73.6,236.2,73.2,236.5,73.2,236.5z"/>
		<path class="st7" d="M66.6,237c0.3,0.9-0.2,1.1,0.3,0.9c0.5-0.2,0.4,0.2,0.5-0.3c0.1-0.4,0.6-0.2,0.1-0.6
			C67,236.7,66.6,237,66.6,237z"/>
		<path class="st7" d="M71.5,238.7c-0.8-1.1,0.1-0.7-0.5-0.5c-0.7,0.2-0.7,0-0.5,0.5c0.2,0.5-0.3,0.5,0.5,0.5
			C71.8,239.3,71.5,238.7,71.5,238.7z"/>
		<path class="st7" d="M69.2,245.8c-0.6,0.3-0.7-0.1-0.6,0.3c0.1,0.4-0.1,0.4,0.2,0.5c0.3,0.1,0.2,0.5,0.4,0.1
			C69.4,246.1,69.2,245.8,69.2,245.8z"/>
		<path class="st8" d="M72,223.4c-0.6,0.3-0.7-0.1-0.6,0.3c0.1,0.4-0.1,0.4,0.2,0.5c0.3,0.1,0.2,0.5,0.4,0.1
			C72.3,223.7,72,223.4,72,223.4z"/>
		<path class="st7" d="M72.1,225.8c-0.6,0.3-0.7-0.1-0.6,0.3c0.1,0.4-0.1,0.4,0.2,0.5c0.3,0.1,0.2,0.5,0.4,0.1
			C72.3,226.2,72.1,225.8,72.1,225.8z"/>
		<path class="st7" d="M74.2,224.6c-1.2-0.4-0.2-0.6-0.6-0.1c-0.5,0.6-0.6,0.5-0.2,0.8c0.4,0.3,0,0.6,0.7,0.1
			C74.7,224.9,74.2,224.6,74.2,224.6z"/>
		<path class="st7" d="M72.8,229.4c-1.2-0.4-0.2-0.6-0.6-0.1c-0.5,0.6-0.6,0.5-0.2,0.8c0.4,0.3,0,0.6,0.7,0.1
			C73.3,229.8,72.8,229.4,72.8,229.4z"/>
		<path class="st7" d="M60.5,226.5c-1.2-0.4-0.2-0.6-0.6-0.1c-0.5,0.6-0.6,0.5-0.2,0.8c0.4,0.3,0,0.6,0.7,0.1
			C61,226.9,60.5,226.5,60.5,226.5z"/>
		<path class="st7" d="M71.4,219.6c-0.6,0.3-0.7-0.1-0.6,0.3c0.1,0.4-0.1,0.4,0.2,0.5c0.3,0.1,0.2,0.5,0.4,0.1
			C71.6,219.9,71.4,219.6,71.4,219.6z"/>
		<path class="st7" d="M62.9,224.8c-1.2-0.4-0.5-0.8-0.6-0.1c-0.1,0.7-0.4,0.5,0,0.8c0.4,0.3-0.1,0.9,0.5,0.4
			C63.4,225.4,62.9,224.8,62.9,224.8z"/>
		<path class="st7" d="M74.2,221.5c-0.2-1.4,0.4-0.9-0.2-0.7c-0.6,0.2-0.5-0.2-0.6,0.3c-0.1,0.5-0.8,0.3-0.1,0.7
			C74,222.3,74.2,221.5,74.2,221.5z"/>
		<path class="st7" d="M64.6,222.7c-1.2-0.4-0.2-0.6-0.6-0.1c-0.5,0.6-0.6,0.5-0.2,0.8c0.4,0.3,0,0.6,0.7,0.1
			C65.1,223,64.6,222.7,64.6,222.7z"/>
		<path class="st7" d="M68.6,219.4c-1.2-0.5-0.5-0.8-0.6-0.1c-0.1,0.7-0.4,0.5,0,0.8c0.4,0.3-0.1,0.9,0.5,0.4
			C69.2,220,68.6,219.4,68.6,219.4z"/>
		<path class="st7" d="M66.9,221.7c-1.2-0.4-0.5-0.8-0.6-0.1c-0.1,0.7-0.4,0.5,0,0.8c0.4,0.3-0.1,0.9,0.5,0.4
			C67.4,222.3,66.9,221.7,66.9,221.7z"/>
		<path class="st7" d="M65.2,219.3c-1.2-0.4-0.5-0.8-0.6-0.1c-0.1,0.7-0.4,0.5,0,0.8c0.4,0.3-0.1,0.9,0.5,0.4
			C65.8,219.9,65.2,219.3,65.2,219.3z"/>
		<path class="st7" d="M66.3,217.4c-0.6,0.3-0.7-0.1-0.6,0.3c0.1,0.4-0.1,0.4,0.2,0.5c0.3,0.1,0.2,0.5,0.4,0.1
			C66.6,217.7,66.3,217.4,66.3,217.4z"/>
		<path class="st7" d="M69,236.1c-0.6,0.3-0.7-0.1-0.6,0.3c0.1,0.4-0.1,0.4,0.2,0.5c0.3,0.1,0.2,0.5,0.4,0.1
			C69.2,236.5,69,236.1,69,236.1z"/>
		<path class="st7" d="M62.5,239.1c-0.6,0.3-0.7-0.1-0.6,0.3c0.1,0.4-0.1,0.4,0.2,0.5c0.3,0.1,0.2,0.5,0.4,0.1
			C62.7,239.4,62.5,239.1,62.5,239.1z"/>
		<path class="st8" d="M71.5,231.5c-0.6,0.3-0.7-0.1-0.6,0.3c0.1,0.4-0.1,0.4,0.2,0.5c0.3,0.1,0.2,0.5,0.4,0.1
			C71.7,231.9,71.5,231.5,71.5,231.5z"/>
		<path class="st7" d="M67.3,230.4c-0.6,0.3-0.7-0.1-0.6,0.3c0.1,0.4-0.1,0.4,0.2,0.5c0.3,0.1,0.2,0.5,0.4,0.1
			C67.5,230.8,67.3,230.4,67.3,230.4z"/>
		<path class="st7" d="M63.2,235.1c-0.8-1.1,0.1-0.7-0.5-0.5c-0.7,0.2-0.7,0-0.5,0.5c0.2,0.5-0.3,0.5,0.5,0.5
			C63.4,235.6,63.2,235.1,63.2,235.1z"/>
		<path class="st7" d="M70.2,226.4c-0.6,0.3-0.7-0.1-0.6,0.3c0.1,0.4-0.1,0.4,0.2,0.5c0.3,0.1,0.2,0.5,0.4,0.1
			C70.4,226.8,70.2,226.4,70.2,226.4z"/>
		<path class="st7" d="M69.8,224.5c-0.2-1.4,0.4-0.9-0.2-0.7c-0.6,0.2-0.5-0.2-0.6,0.3c-0.1,0.5-0.7,0.3-0.1,0.7
			C69.6,225.3,69.8,224.5,69.8,224.5z"/>
		<circle class="st10" cx="38.1" cy="273.3" r="14"/>
		<path class="st9" d="M37,262.7c0.5,1.1-0.1,1.3,0.5,1.1c0.6-0.2,0.6,0.1,0.7-0.4c0-0.5,0.8-0.3,0-0.7
			C37.5,262.2,37,262.7,37,262.7z"/>
		<path class="st11" d="M28.1,270.9c0.5,1.1-0.1,1.3,0.5,1.1c0.6-0.2,0.6,0.1,0.7-0.4c0-0.5,0.8-0.3,0-0.7
			C28.6,270.4,28.1,270.9,28.1,270.9z"/>
		<path class="st11" d="M30.3,278.9c0.4,0.9-0.1,1.1,0.4,0.9c0.5-0.2,0.5,0.1,0.6-0.3c0-0.4,0.7-0.3,0-0.6
			C30.7,278.5,30.3,278.9,30.3,278.9z"/>
		<path class="st9" d="M33.7,265.7c-1.3-0.4-0.3-0.6-0.7-0.1c-0.6,0.6-0.7,0.5-0.2,0.8c0.4,0.3,0,0.6,0.8,0.1
			C34.2,266,33.7,265.7,33.7,265.7z"/>
		<path class="st9" d="M28.3,268.7c-1.3-0.4-0.3-0.6-0.7-0.1c-0.6,0.6-0.7,0.5-0.2,0.8c0.4,0.3,0,0.6,0.8,0.1
			C28.9,269,28.3,268.7,28.3,268.7z"/>
		<path class="st9" d="M38.4,268.4c-1.3-0.4-0.3-0.6-0.7-0.1c-0.6,0.6-0.7,0.5-0.2,0.8c0.4,0.3,0,0.6,0.8,0.1
			C39,268.7,38.4,268.4,38.4,268.4z"/>
		<path class="st9" d="M37.3,266.1c0.4-1.3,0.6-0.3,0.1-0.7c-0.7-0.5-0.5-0.6-0.8-0.2c-0.3,0.4-0.6,0.1-0.1,0.8
			C37,266.7,37.3,266.1,37.3,266.1z"/>
		<path class="st11" d="M45,281.5c0.4-1.3,0.6-0.3,0.1-0.7c-0.7-0.5-0.5-0.6-0.8-0.2c-0.3,0.4-0.6,0.1-0.1,0.8
			C44.7,282,45,281.5,45,281.5z"/>
		<path class="st9" d="M30.4,273.5c0.4-1.3,0.6-0.3,0.1-0.7c-0.7-0.5-0.5-0.6-0.8-0.2c-0.3,0.4-0.6,0.1-0.1,0.8
			C30.1,274.1,30.4,273.5,30.4,273.5z"/>
		<path class="st9" d="M41.4,262c-0.8,0.9-1.2,0.4-0.8,0.9c0.5,0.5,0.1,0.6,0.6,0.5c0.5-0.2,0.6,0.6,0.7-0.3
			C42,262.3,41.4,262,41.4,262z"/>
		<path class="st9" d="M26.3,277.1c0.4,0.9-0.1,1.1,0.4,0.9c0.5-0.2,0.5,0.1,0.6-0.3c0-0.4,0.7-0.3,0-0.6
			C26.7,276.8,26.3,277.1,26.3,277.1z"/>
		<path class="st9" d="M38.1,273.7c0.4-1.3,0.6-0.3,0.1-0.7c-0.7-0.5-0.5-0.6-0.8-0.2c-0.3,0.4-0.6,0.1-0.1,0.8
			C37.8,274.3,38.1,273.7,38.1,273.7z"/>
		<path class="st9" d="M38.8,277.5c0.4,0.9-0.1,1.1,0.4,0.9c0.5-0.2,0.5,0.1,0.6-0.3c0-0.4,0.7-0.3,0-0.6
			C39.2,277.1,38.8,277.5,38.8,277.5z"/>
		<path class="st9" d="M34.2,279.8c0.4-1.3,0.6-0.3,0.1-0.7c-0.7-0.5-0.5-0.6-0.8-0.2c-0.3,0.4-0.6,0.1-0.1,0.8
			C33.9,280.4,34.2,279.8,34.2,279.8z"/>
		<path class="st9" d="M44.8,276.8c0.4-1.3,0.6-0.3,0.1-0.7c-0.7-0.5-0.5-0.6-0.8-0.2c-0.3,0.4-0.6,0.1-0.1,0.8
			C44.5,277.3,44.8,276.8,44.8,276.8z"/>
		<path class="st9" d="M36.5,280.2c0.4,0.9-0.1,1.1,0.4,0.9c0.5-0.2,0.5,0.1,0.6-0.3c0-0.4,0.7-0.3,0-0.6
			C36.9,279.8,36.5,280.2,36.5,280.2z"/>
		<path class="st9" d="M32.2,263.1c0.4,0.9-0.1,1.1,0.4,0.9c0.5-0.2,0.5,0.1,0.6-0.3c0-0.4,0.7-0.3,0-0.6
			C32.6,262.7,32.2,263.1,32.2,263.1z"/>
		<path class="st9" d="M35.2,275.8c-0.7,0.3-0.8-0.1-0.7,0.3c0.1,0.4-0.1,0.4,0.2,0.5c0.3,0.1,0.2,0.5,0.5,0.1
			C35.4,276.2,35.2,275.8,35.2,275.8z"/>
		<path class="st9" d="M40.1,284.5c-0.7,0.3-0.8-0.1-0.7,0.3c0.1,0.4-0.1,0.4,0.2,0.5c0.3,0.1,0.2,0.5,0.5,0.1
			C40.4,284.8,40.1,284.5,40.1,284.5z"/>
		<path class="st9" d="M41.4,271.1c-0.7,0.3-0.8-0.1-0.7,0.3c0.1,0.4-0.1,0.4,0.2,0.5c0.3,0.1,0.2,0.5,0.5,0.1
			C41.6,271.5,41.4,271.1,41.4,271.1z"/>
		<path class="st9" d="M32.3,275.1c-1.2,0.2-1.2-0.4-1.2,0.2c0.1,0.7-0.3,0.6,0.2,0.8c0.5,0.2,0.1,0.9,0.7,0.2
			C32.6,275.6,32.3,275.1,32.3,275.1z"/>
		<path class="st9" d="M30.1,267c-1.3-0.4-0.3-0.6-0.7-0.1c-0.6,0.6-0.7,0.5-0.2,0.8c0.4,0.3,0,0.6,0.8,0.1
			C30.7,267.4,30.1,267,30.1,267z"/>
		<path class="st9" d="M33.7,271.8c-0.9-1.1,0.1-0.7-0.5-0.5c-0.8,0.2-0.8,0-0.6,0.5c0.2,0.5-0.3,0.5,0.6,0.5
			C34,272.4,33.7,271.8,33.7,271.8z"/>
		<path class="st9" d="M31.5,282.5c-1.2,0.1-1.2-0.6-1.2,0.1c0,0.7-0.4,0.5,0.1,0.8c0.5,0.3,0,0.9,0.6,0.3
			C31.7,283.1,31.5,282.5,31.5,282.5z"/>
		<path class="st9" d="M49.3,268.9c-0.7,0.3-0.8-0.1-0.7,0.3c0.1,0.4-0.1,0.4,0.2,0.5c0.3,0.1,0.2,0.5,0.5,0.1
			C49.6,269.3,49.3,268.9,49.3,268.9z"/>
		<path class="st9" d="M43.1,267.8c-0.1-1.4,0.5-0.5-0.1-0.7c-0.8-0.3-0.7-0.4-0.8,0.1c-0.1,0.5-0.6,0.3,0.2,0.8
			C43,268.5,43.1,267.8,43.1,267.8z"/>
		<path class="st9" d="M36.9,271.7c1.4-0.3,0.5,0.4,0.7-0.2c0.2-0.8,0.3-0.7-0.2-0.8c-0.5-0.1-0.3-0.5-0.7,0.3
			C36.2,271.7,36.9,271.7,36.9,271.7z"/>
		<path class="st9" d="M40.2,281.2c0.4,0.9-0.2,1.1,0.4,0.9c0.5-0.2,0.5,0.2,0.6-0.3c0.1-0.4,0.7-0.2,0.1-0.6
			C40.6,280.9,40.2,281.2,40.2,281.2z"/>
		<path class="st9" d="M44.2,272.1c-0.9-1.1,0.1-0.7-0.5-0.5c-0.8,0.2-0.8,0-0.6,0.5c0.2,0.5-0.3,0.5,0.6,0.5
			C44.6,272.6,44.2,272.1,44.2,272.1z"/>
		<path class="st9" d="M41.6,278.8c-0.7,0.3-0.8-0.1-0.7,0.3c0.1,0.4-0.1,0.4,0.2,0.5c0.3,0.1,0.2,0.5,0.5,0.1
			C41.8,279.1,41.6,278.8,41.6,278.8z"/>
		<path class="st9" d="M47.5,266.1c-1.3-0.4-0.3-0.6-0.7-0.1c-0.6,0.6-0.7,0.5-0.2,0.8c0.4,0.3,0,0.6,0.8,0.1
			C48.1,266.4,47.5,266.1,47.5,266.1z"/>
		<path class="st11" d="M41.4,269.1c-0.7,0.3-0.8-0.1-0.7,0.3c0.1,0.4-0.1,0.4,0.2,0.5c0.3,0.1,0.2,0.5,0.5,0.1
			C41.6,269.5,41.4,269.1,41.4,269.1z"/>
		<path class="st9" d="M27.1,274.2c-0.7,0.3-0.8-0.1-0.7,0.3c0.1,0.4-0.1,0.4,0.2,0.5c0.3,0.1,0.2,0.5,0.5,0.1
			C27.3,274.5,27.1,274.2,27.1,274.2z"/>
		<path class="st9" d="M44.2,264.6c-0.7,0.3-0.8-0.1-0.7,0.3c0.1,0.4-0.1,0.4,0.2,0.5c0.3,0.1,0.2,0.5,0.5,0.1
			C44.5,264.9,44.2,264.6,44.2,264.6z"/>
		<path class="st9" d="M39.7,264.9c-0.7,0.3-0.8-0.1-0.7,0.3c0.1,0.4-0.1,0.4,0.2,0.5c0.3,0.1,0.2,0.5,0.5,0.1
			C40,265.2,39.7,264.9,39.7,264.9z"/>
		<path class="st11" d="M33.6,268.4c-0.9-1.1,0.1-0.7-0.5-0.5c-0.8,0.2-0.8,0-0.6,0.5c0.2,0.5-0.3,0.5,0.6,0.5
			C34,269,33.6,268.4,33.6,268.4z"/>
		<path class="st11" d="M37.9,275.4c0.4,0.9-0.1,1.1,0.4,0.9c0.5-0.2,0.5,0.1,0.6-0.3c0-0.4,0.7-0.3,0-0.6
			C38.3,275.1,37.9,275.4,37.9,275.4z"/>
		<path class="st9" d="M49.5,278.1c-0.9-1.1,0.1-0.7-0.5-0.5c-0.8,0.2-0.8,0-0.6,0.5c0.2,0.5-0.3,0.5,0.6,0.5
			C49.8,278.7,49.5,278.1,49.5,278.1z"/>
		<path class="st9" d="M50.6,274.8c-0.9-1.1,0.1-0.7-0.5-0.5c-0.8,0.2-0.8,0-0.6,0.5c0.2,0.5-0.3,0.5,0.6,0.5
			C50.9,275.4,50.6,274.8,50.6,274.8z"/>
		<path class="st9" d="M48.2,280.9c-0.9-1.1,0.1-0.7-0.5-0.5c-0.8,0.2-0.8,0-0.6,0.5c0.2,0.5-0.3,0.5,0.6,0.5
			C48.5,281.5,48.2,280.9,48.2,280.9z"/>
		<path class="st11" d="M34.4,284.5c-0.9-1.1,0.1-0.7-0.5-0.5c-0.8,0.2-0.8,0-0.6,0.5c0.2,0.5-0.3,0.5,0.6,0.5
			C34.7,285,34.4,284.5,34.4,284.5z"/>
		<path class="st9" d="M38.3,284.9c-0.9-1.1,0.1-0.7-0.5-0.5c-0.8,0.2-0.8,0-0.6,0.5c0.2,0.5-0.3,0.5,0.6,0.5
			C38.6,285.4,38.3,284.9,38.3,284.9z"/>
		<path class="st9" d="M43.1,284.1c-0.7,0.3-0.8-0.1-0.7,0.3c0.1,0.4-0.1,0.4,0.2,0.5c0.3,0.1,0.2,0.5,0.5,0.1
			C43.4,284.4,43.1,284.1,43.1,284.1z"/>
		<path class="st9" d="M45.3,273c0.2,1.4-0.5,0.5,0.2,0.7c0.8,0.2,0.7,0.4,0.8-0.2c0.1-0.5,0.5-0.3-0.2-0.8
			C45.4,272.3,45.3,273,45.3,273z"/>
		<path class="st9" d="M35.1,273.7c-0.7,0.3-0.8-0.1-0.7,0.3c0.1,0.4-0.1,0.4,0.2,0.5c0.3,0.1,0.2,0.5,0.5,0.1
			C35.4,274,35.1,273.7,35.1,273.7z"/>
		<path class="st9" d="M41.5,274.6c-0.7,0.3-0.8-0.1-0.7,0.3c0.1,0.4-0.1,0.4,0.2,0.5c0.3,0.1,0.2,0.5,0.5,0.1
			C41.8,275,41.5,274.6,41.5,274.6z"/>
		<path class="st9" d="M36.1,282.2c-0.9-1.1,0.1-0.7-0.5-0.5c-0.8,0.2-0.8,0-0.6,0.5c0.2,0.5-0.3,0.5,0.6,0.5
			C36.4,282.8,36.1,282.2,36.1,282.2z"/>
		<path class="st9" d="M33.8,284c-0.8,0.2-0.8,0-0.6,0.5c0.2,0.5-0.3,0.5,0.6,0.5c0.9,0,0.6-0.6,0.6-0.6"/>
		<path class="st9" d="M50.3,271.4c-0.9-1.1,0.1-0.7-0.5-0.5c-0.8,0.2-0.8,0-0.6,0.5c0.2,0.5-0.3,0.5,0.6,0.5
			C50.6,271.9,50.3,271.4,50.3,271.4z"/>
		<path class="st9" d="M48.4,271.9c-0.7,0.3-0.8-0.1-0.7,0.3c0.1,0.4-0.1,0.4,0.2,0.5c0.3,0.1,0.2,0.5,0.5,0.1
			C48.7,272.2,48.4,271.9,48.4,271.9z"/>
		<path class="st11" d="M45.7,269.7c-0.7,0.3-0.8-0.1-0.7,0.3c0.1,0.4-0.1,0.4,0.2,0.5c0.3,0.1,0.2,0.5,0.5,0.1
			C46,270,45.7,269.7,45.7,269.7z"/>
		<path class="st11" d="M39.2,260.9c-0.7,0.3-0.8-0.1-0.7,0.3c0.1,0.4-0.1,0.4,0.2,0.5c0.3,0.1,0.2,0.5,0.5,0.1
			C39.4,261.2,39.2,260.9,39.2,260.9z"/>
		<path class="st0" d="M40.2,252.6l-3.2-0.2l0.3-9.8c0,0,0.1-1.3-0.8-1.8c-0.9-0.5-5.9-2.5-6.2-2.6c-1.9-0.7-3.5-1.3-3.5-1.8
			c0-0.5,1-0.2,1-0.2s9.8,2.1,10.8,3c1.1,1.1,1.5,1.7,1.6,2.9v5.5l0,4.8"/>
		<rect x="36.9" y="252.3" class="st12" width="3.2" height="7.8"/>
		<path class="st11" d="M37.3,254.1c0.5,1.1-0.1,1.3,0.5,1.1c0.6-0.2,0.6,0.1,0.7-0.4c0-0.5,0.8-0.3,0-0.7
			C37.8,253.6,37.3,254.1,37.3,254.1z"/>
		<path class="st9" d="M39.5,256c-0.7,0.3-0.8-0.1-0.7,0.3c0.1,0.4-0.1,0.4,0.2,0.5c0.3,0.1,0.2,0.5,0.5,0.1
			C39.7,256.3,39.5,256,39.5,256z"/>
		<path class="st9" d="M38.9,258.6c-1.3-0.4-0.3-0.6-0.7-0.1c-0.6,0.6-0.7,0.5-0.2,0.8c0.4,0.3,0,0.6,0.8,0.1
			C39.4,258.9,38.9,258.6,38.9,258.6z"/>
		<path class="st9" d="M37,239.1c-0.7,0.3-0.8-0.1-0.7,0.3c0.1,0.4-0.1,0.4,0.2,0.5c0.3,0.1,0.2,0.5,0.5,0.1
			C37.2,239.5,37,239.1,37,239.1z"/>
		<path class="st9" d="M38.3,243.7c-0.2,0.7-0.6,0.6-0.2,0.7c0.4,0.2,0.2,0.3,0.5,0.1c0.3-0.2,0.5,0.2,0.3-0.3
			C38.7,243.7,38.3,243.7,38.3,243.7z"/>
		<path class="st11" d="M39.3,241.7c-0.9-1.1,0.1-0.7-0.5-0.5c-0.8,0.2-0.8,0-0.6,0.5c0.2,0.5-0.3,0.5,0.6,0.5
			C39.6,242.3,39.3,241.7,39.3,241.7z"/>
		<path class="st11" d="M38.3,247.3c0.4,0.9-0.2,1.1,0.4,0.9c0.5-0.2,0.5,0.2,0.6-0.3c0.1-0.4,0.7-0.2,0.1-0.6
			C38.7,246.9,38.3,247.3,38.3,247.3z"/>
		<path class="st9" d="M39.5,251.3c-0.9-1.1,0.1-0.7-0.5-0.5c-0.8,0.2-0.8,0-0.6,0.5c0.2,0.5-0.3,0.5,0.6,0.5
			C39.8,251.8,39.5,251.3,39.5,251.3z"/>
		<path class="st9" d="M35,238.5c-0.4-0.5,0.1-0.3-0.3-0.2c-0.4,0.1-0.4,0-0.3,0.3c0.1,0.2-0.1,0.3,0.3,0.3
			C35.2,238.8,35,238.5,35,238.5z"/>
		<path class="st9" d="M32.5,237.9c-0.4-0.5,0.1-0.3-0.3-0.2c-0.4,0.1-0.4,0-0.3,0.3c0.1,0.2-0.1,0.3,0.3,0.3
			C32.6,238.2,32.5,237.9,32.5,237.9z"/>
		<path class="st9" d="M33.7,238.7c-0.4-0.5,0.1-0.3-0.3-0.2c-0.4,0.1-0.4,0-0.3,0.3c0.1,0.2-0.1,0.3,0.3,0.3
			C33.9,239,33.7,238.7,33.7,238.7z"/>
		<path class="st9" d="M29.8,237.2c-0.4-0.5,0.1-0.3-0.3-0.2c-0.4,0.1-0.4,0-0.3,0.3c0.1,0.2-0.1,0.3,0.3,0.3
			C30,237.5,29.8,237.2,29.8,237.2z"/>
	</g>
	<line class="st2" x1="78.3" y1="315.5" x2="78.3" y2="44.7"/>
	<g>
		<text transform="matrix(1 0 0 1 15.9653 39.9981)" class="st13 st14">Breathing Hazard - Carbon Monoxide Gas</text>
	</g>
	<text transform="matrix(0.9872 0 0 1 82.3984 55.7172)" class="st15 st16">•</text>
	<text transform="matrix(0.9674 0 0 1 85.8544 55.7172)" class="st15 st17">	</text>
	<text transform="matrix(0.9674 0 0 1 88.3212 54.7172)" class="st15 st18">Install vent system in accordance with codes.</text>
	<text transform="matrix(0.9872 0 0 1 82.3984 66.2792)" class="st15 st16">•</text>
	<text transform="matrix(0.9674 0 0 1 85.8544 66.2792)" class="st15 st17">	</text>
	<text transform="matrix(0.9279 0 0 1 88.3212 65.2792)" class="st15 st18">Do not operate water heater if any part has been</text>
	<text transform="matrix(0.9576 0 0 1 82.3984 72.2792)" class="st15 st18 st19">	</text>
	<text transform="matrix(0.9576 0 0 1 88.3212 72.2792)" class="st15 st18">exposed to flooding or water damage.</text>
	<text transform="matrix(0.9872 0 0 1 82.3984 84.1327)" class="st15 st16">•</text>
	<text transform="matrix(0.9674 0 0 1 85.8544 84.1327)" class="st15 st17">	</text>
	<text transform="matrix(0.849 0 0 1 88.3212 83.1327)" class="st15 st18">High altitude models should be installed at </text>
	<text transform="matrix(0.8292 0 0 1 209.3686 83.1327)" class="st15 st18">elevations</text>
	<text transform="matrix(0.7996 0 0 1 82.3984 91.1327)" class="st15 st18 st20">	</text>
	<text transform="matrix(0.8687 0 0 1 88.3212 91.1327)" class="st15 st18">above </text>
	<text transform="matrix(0.7996 0 0 1 107.8842 91.1327)" class="st15 st18">5,</text>
	<text transform="matrix(0.7996 0 0 1 112.645 91.1327)" class="st15 st18">300</text>
	<text transform="matrix(0.8588 0 0 1 122.6498 91.1327)" class="st15 st18"> feet</text>
	<text transform="matrix(0.8588 0 0 1 135.184 91.1327)" class="st15 st18"> </text>
	<text transform="matrix(0.7996 0 0 1 136.3295 91.1327)" class="st15 st18">(</text>
	<text transform="matrix(0.7503 0 0 1 137.727 91.1327)" class="st15 st18">1</text>
	<text transform="matrix(0.7503 0 0 1 140.519 91.1327)" class="st15 st18">,</text>
	<text transform="matrix(0.7503 0 0 1 141.9702 91.1327)" class="st15 st18">6</text>
	<text transform="matrix(0.7503 0 0 1 144.6498 91.1327)" class="st15 st18">1</text>
	<text transform="matrix(0.7503 0 0 1 147.6674 91.1327)" class="st15 st18">5 m</text>
	<text transform="matrix(0.7996 0 0 1 157.0483 91.1327)" class="st15 st18">). </text>
	<text transform="matrix(0.8588 0 0 1 162.3774 91.1327)" class="st15 st18">For operation above</text>
	<text transform="matrix(0.8588 0 0 1 220.0248 91.1327)" class="st15 st18"> </text>
	<text transform="matrix(0.7503 0 0 1 221.0414 91.1327)" class="st15 st18">1</text>
	<text transform="matrix(0.7503 0 0 1 224.1713 91.1327)" class="st15 st18">0</text>
	<text transform="matrix(0.7503 0 0 1 227.1889 91.1327)" class="st15 st18">,</text>
	<text transform="matrix(0.7503 0 0 1 227.9643 91.1327)" class="st15 st18">100</text>
	<text transform="matrix(0.8391 0 0 1 82.3984 99.1327)" class="st15 st18 st21">	</text>
	<text transform="matrix(0.8391 0 0 1 88.3212 99.1327)" class="st15 st18">feet</text>
	<text transform="matrix(0.8391 0 0 1 98.8183 99.1327)" class="st15 st18"> (</text>
	<text transform="matrix(0.8391 0 0 1 102.4106 99.1327)" class="st15 st18">3</text>
	<text transform="matrix(0.8391 0 0 1 105.9106 99.1327)" class="st15 st18">,</text>
	<text transform="matrix(0.8391 0 0 1 107.5327 99.1327)" class="st15 st18">0</text>
	<text transform="matrix(0.8391 0 0 1 110.6547 99.1327)" class="st15 st18">7</text>
	<text transform="matrix(0.8391 0 0 1 114.1547 99.1327)" class="st15 st18">9</text>
	<text transform="matrix(0.8391 0 0 1 117.2778 99.1327)" class="st15 st18"> m), a high altitude orifice must be installed.</text>
	<text transform="matrix(0.9872 0 0 1 82.3984 111.9779)" class="st15 st16">•</text>
	<text transform="matrix(0.9674 0 0 1 85.8544 111.9779)" class="st15 st17">	</text>
	<text transform="matrix(0.9576 0 0 1 88.3212 110.9779)" class="st15 st18">Do not operate if soot buildup is present.</text>
	<text transform="matrix(0.9872 0 0 1 82.3984 192.7035)" class="st15 st16">•</text>
	<text transform="matrix(0.9674 0 0 1 85.8544 192.7035)" class="st15 st17">	</text>
	<text transform="matrix(0.9378 0 0 1 88.3212 191.7035)" class="st15 st18">Do NOT elevate any portion of the field supplied</text>
	<text transform="matrix(0.9576 0 0 1 82.3984 199.2035)" class="st15 st18 st19">	</text>
	<text transform="matrix(0.9773 0 0 1 88.3212 199.2035)" class="st15 st18">drain line beyond the 1/2” adaptor above the</text>
	<text transform="matrix(0.9576 0 0 1 82.3984 206.7035)" class="st15 st18 st19">	</text>
	<text transform="matrix(0.9674 0 0 1 88.3212 206.7035)" class="st15 st18">adaptor. This must be true for the entire length</text>
	<text transform="matrix(0.9576 0 0 1 82.3984 214.2035)" class="st15 st18 st19">	</text>
	<text transform="matrix(1.0365 0 0 1 88.3212 214.2035)" class="st15 st18">of the drain line including the exit into an </text>
	<text transform="matrix(0.9576 0 0 1 82.3984 221.7035)" class="st15 st18 st19">	</text>
	<text transform="matrix(0.9872 0 0 1 88.3212 221.7035)" class="st15 st18">appropriate drain.</text>
	<text transform="matrix(0.9872 0 0 1 82.3984 234.8793)" class="st15 st16">•</text>
	<text transform="matrix(0.9674 0 0 1 85.8544 234.8793)" class="st15 st17">	</text>
	<text transform="matrix(0.9082 0 0 1 88.3212 233.8793)" class="st15 st18">Condensate lines must be free and clear of debris</text>
	<text transform="matrix(0.9576 0 0 1 82.3984 241.8793)" class="st15 st18 st19">	</text>
	<text transform="matrix(0.9576 0 0 1 88.3212 241.8793)" class="st15 st18">and must not allow back flow through the hose.</text>
	<text transform="matrix(0.9279 0 0 1 82.3984 249.8793)" class="st15 st18 st22">	</text>
	<text transform="matrix(0.9279 0 0 1 88.3212 249.8793)" class="st15 st18">The condensate lines must be able to flow freely</text>
	<text transform="matrix(0.9576 0 0 1 82.3984 257.8793)" class="st15 st18 st19">	</text>
	<text transform="matrix(0.9576 0 0 1 88.3212 257.8793)" class="st15 st18">to an appropriate drain.</text>
	<text transform="matrix(0.9872 0 0 1 82.3984 123.8197)" class="st15 st16">•</text>
	<text transform="matrix(0.9674 0 0 1 85.8544 123.8197)" class="st15 st17">	</text>
	<text transform="matrix(1.0365 0 0 1 88.3212 122.8197)" class="st15 st18">Do not obstruct water heater air intake with</text>
	<text transform="matrix(0.9872 0 0 1 82.3984 130.8197)" class="st15 st18 st23">	</text>
	<text transform="matrix(0.9872 0 0 1 88.3212 130.8197)" class="st15 st18">insulating jacket.</text>
	<text transform="matrix(0.9872 0 0 1 82.3984 143.5009)" class="st15 st16">•</text>
	<text transform="matrix(0.9674 0 0 1 85.8544 143.5009)" class="st15 st17">	</text>
	<text transform="matrix(0.9576 0 0 1 88.3212 142.5009)" class="st15 st18">Do not place chemical vapor emitting products</text>
	<text transform="matrix(0.9477 0 0 1 82.3984 150.5009)" class="st15 st18 st22">	</text>
	<text transform="matrix(0.9477 0 0 1 88.3212 150.5009)" class="st15 st18">near water heater.</text>
	<text transform="matrix(0.9872 0 0 1 82.3984 269.6996)" class="st15 st16">•</text>
	<text transform="matrix(0.9674 0 0 1 85.8544 269.6996)" class="st15 st17">	</text>
	<text transform="matrix(1.0661 0 0 1 88.3212 268.6996)" class="st15 st18">Do not allow condensate lines to become</text>
	<text transform="matrix(1.076 0 0 1 82.3984 276.6996)" class="st15 st18 st24">	</text>
	<text transform="matrix(1.076 0 0 1 88.3212 276.6996)" class="st15 st18">crimped closed.</text>
	<text transform="matrix(0.9872 0 0 1 82.3984 287.8666)" class="st15 st16">•</text>
	<text transform="matrix(0.9674 0 0 1 85.8544 287.8666)" class="st15 st17">	</text>
	<text transform="matrix(0.9872 0 0 1 88.3212 286.8666)" class="st15 st18">Analyze the entire vent system to make sure</text>
	<text transform="matrix(0.9872 0 0 1 82.3984 294.3666)" class="st15 st18 st23">	</text>
	<text transform="matrix(0.9872 0 0 1 88.3212 294.3666)" class="st15 st18">that condensate will not become trapped in a</text>
	<text transform="matrix(0.8983 0 0 1 82.3984 301.8666)" class="st15 st18 st25">	</text>
	<text transform="matrix(0.8885 0 0 1 88.3212 301.8666)" class="st15 st18">section of vent pipe and therefore reduce the open</text>
	<text transform="matrix(1.0267 0 0 1 82.3984 309.3666)" class="st15 st18 st26">	</text>
	<text transform="matrix(1.0267 0 0 1 88.3212 309.3666)" class="st15 st18">cross sectional area of the vent.</text>
	<text transform="matrix(0.9872 0 0 1 82.3984 161.6678)" class="st15 st16">•</text>
	<text transform="matrix(0.9674 0 0 1 85.8544 161.6678)" class="st15 st17">	</text>
	<text transform="matrix(0.8983 0 0 1 88.3212 160.6678)" class="st15 st18">Gas and carbon monoxide detectors are available.</text>
	<text transform="matrix(0.9872 0 0 1 82.3984 173.2743)" class="st15 st16">•</text>
	<text transform="matrix(0.9674 0 0 1 85.8544 173.2743)" class="st15 st17">	</text>
	<text transform="matrix(0.9674 0 0 1 88.3212 172.2743)" class="st15 st18">No vent damper installation is compatible with</text>
	<text transform="matrix(0.9576 0 0 1 82.3984 180.2743)" class="st15 st18 st19">	</text>
	<text transform="matrix(0.9576 0 0 1 88.3212 180.2743)" class="st15 st18">this power vented water heater.</text>
	<line class="st1" x1="1.3" y1="315.8" x2="242.4" y2="315.8"/>
	<text transform="matrix(1 0 0 1 16.3779 326.4933)"><tspan x="0" y="0" class="st15 st27">Breathing carbon monoxide can cause brain damage or</tspan><tspan x="0" y="9.5" class="st15 st27">death. Always read and understand instruction manual.</tspan></text>
</g>
</svg>
