<svg id="Layer_1" data-name="Layer 1" xmlns="http://www.w3.org/2000/svg" viewBox="0 0 252.86 67.46"><title>warning-dnt_chng_dip_swtch_sttngs</title><rect x="0.48" y="0.48" width="251.91" height="66.5" style="fill:none;stroke:#231f20;stroke-width:0.9590000000000001px"/><rect x="6.36" y="5.75" width="240.59" height="55.95" style="fill:none;stroke:#231f20;stroke-width:0.9590000000000001px"/><rect x="6.76" y="6.55" width="239.81" height="29.87" style="fill:#231f20"/><rect x="6.76" y="6.55" width="239.81" height="29.87" style="fill:none;stroke:#231f20;stroke-width:0.9590000000000001px"/><path d="M247,52.56" style="fill:none;stroke:#231f20;stroke-width:0.9590000000000001px"/><path d="M6.66,52.56" style="fill:none;stroke:#231f20;stroke-width:0.9590000000000001px"/><path d="M91.63,29.24,88,14.14h3.12l2.28,10.37,2.76-10.37H99.8l2.65,10.54,2.32-10.54h3.07l-3.67,15.09h-3.23L97.93,18l-3,11.29Z" style="fill:#fff"/><path d="M121.86,29.24h-3.32l-1.32-3.43h-6l-1.25,3.43h-3.23l5.88-15.09h3.22Zm-5.61-6-2.08-5.6-2,5.6Z" style="fill:#fff"/><path d="M123.49,29.24V14.14h6.42a11,11,0,0,1,3.52.41A3.47,3.47,0,0,1,135.17,16a4.35,4.35,0,0,1,.66,2.38,4,4,0,0,1-1,2.81,4.79,4.79,0,0,1-3,1.4,7.13,7.13,0,0,1,1.63,1.27,17.14,17.14,0,0,1,1.73,2.45l1.84,2.95h-3.64L131.21,26a21.3,21.3,0,0,0-1.61-2.22,2.35,2.35,0,0,0-.92-.63,5,5,0,0,0-1.53-.17h-.62v6.3Zm3-8.71h2.25a11.61,11.61,0,0,0,2.74-.19,1.64,1.64,0,0,0,.85-.64,2,2,0,0,0,.31-1.13,1.81,1.81,0,0,0-.41-1.23,1.87,1.87,0,0,0-1.15-.59q-.37-.05-2.22-.05h-2.38Z" style="fill:#fff"/><path d="M138.74,29.24V14.14h3l6.18,10.08V14.14h2.83V29.24h-3.06l-6.09-9.84v9.84Z" style="fill:#fff"/><path d="M153.84,29.24V14.14h3V29.24Z" style="fill:#fff"/><path d="M159.83,29.24V14.14h3L169,24.22V14.14h2.83V29.24h-3.06l-6.09-9.84v9.84Z" style="fill:#fff"/><path d="M182,23.69V21.14h6.57v6a8.27,8.27,0,0,1-2.78,1.63,10.1,10.1,0,0,1-3.68.71,8.26,8.26,0,0,1-4.13-1,6.32,6.32,0,0,1-2.65-2.84,9.19,9.19,0,0,1-.88-4,8.69,8.69,0,0,1,1-4.19,6.66,6.66,0,0,1,2.89-2.81,7.81,7.81,0,0,1,3.61-.75,7.21,7.21,0,0,1,4.39,1.18,5.32,5.32,0,0,1,2,3.26l-3,.57a3.2,3.2,0,0,0-1.2-1.75,3.62,3.62,0,0,0-2.2-.64,4.13,4.13,0,0,0-3.18,1.27,5.34,5.34,0,0,0-1.18,3.76,5.91,5.91,0,0,0,1.19,4A4,4,0,0,0,182,26.89a5.23,5.23,0,0,0,1.92-.38,6.54,6.54,0,0,0,1.65-.91V23.69Z" style="fill:#fff"/><path d="M72.85,14.55a1.07,1.07,0,0,0-2.06,0l-7,12.36c-.9,1.6-.11,2.25.83,2.27H79.06c1,0,1.75-.67.83-2.27" style="fill:#fff;fill-rule:evenodd"/><path d="M72.82,14.57h0m7,12.38-7-12.36.07,0,7,12.36Zm0,0h0l0,0Zm.41,1.19a2.63,2.63,0,0,0-.41-1.19l.06,0a2.68,2.68,0,0,1,.42,1.23Zm-.12.51a1,1,0,0,0,.12-.51h.08a1,1,0,0,1-.13.54Zm-.33.33a.91.91,0,0,0,.33-.33l.07,0a.94.94,0,0,1-.36.35Zm0,.07h0l0,0Zm-.8.12a1.63,1.63,0,0,0,.76-.19l0,.07a1.7,1.7,0,0,1-.8.2Zm0,.08h0v0Zm-14.47-.08H79.06v.08H64.58Zm0,.08h0v0ZM63.86,29a1.58,1.58,0,0,0,.72.18v.08a1.62,1.62,0,0,1-.75-.19Zm-.34-.33a.89.89,0,0,0,.34.33l0,.07a1,1,0,0,1-.38-.36Zm-.13-.53a1,1,0,0,0,.13.53l-.07,0a1.06,1.06,0,0,1-.13-.57Zm.39-1.17a2.61,2.61,0,0,0-.39,1.17h-.08a2.66,2.66,0,0,1,.4-1.21Zm-.07,0h0l0,0Zm7.1-12.32-7,12.36-.07,0,7-12.36Zm0,0h0l0,0Zm1-.76a1,1,0,0,0-1,.76l-.07,0a1.11,1.11,0,0,1,1.07-.81Zm0,0h0v0Zm1,.76a1,1,0,0,0-1-.76v-.08a1.11,1.11,0,0,1,1.07.81Z" style="fill:#231f20"/><path d="M71.84,25.48a1.21,1.21,0,0,1,1.21,1.21,1.25,1.25,0,0,1-1.24,1.24,1.23,1.23,0,0,1-1.21-1.24,1.2,1.2,0,0,1,1.19-1.21m0-1.57a.39.39,0,0,1-.36-.38c-1.26-4-1.89-6.92.38-6.92s1.66,2.88.41,6.92a.39.39,0,0,1-.38.38Z" style="fill:#fff;fill-rule:evenodd"/><path d="M71.84,23.94h0v-.08h0m.29,0a.42.42,0,0,1-.29.13v-.08a.35.35,0,0,0,.24-.1Zm.13-.29a.42.42,0,0,1-.13.29l-.05-.05a.34.34,0,0,0,.1-.24Zm-.08,0h0Zm1.2-5a20.54,20.54,0,0,1-1.12,5l-.08,0a20.52,20.52,0,0,0,1.12-5Zm-1.56-2c1.16,0,1.59.73,1.56,2H73.3c0-1.2-.38-1.9-1.49-1.9Zm-1.55,2c0-1.25.39-2,1.55-2v.08c-1.11,0-1.5.71-1.47,1.9Zm1.13,5a21.15,21.15,0,0,1-1.13-5h.08a21.2,21.2,0,0,0,1.13,5Zm.07,0h0Zm0,.3a.43.43,0,0,1-.12-.29h.08a.35.35,0,0,0,.1.24Zm.28.13a.39.39,0,0,1-.28-.13l.06-.05a.31.31,0,0,0,.22.11Z" style="fill:#231f20"/><path d="M70.93,25.8a1.22,1.22,0,0,1,.87-.37v.08a1.14,1.14,0,0,0-.81.34m-.42.83a1.26,1.26,0,0,1,.36-.88l.06.05a1.18,1.18,0,0,0-.34.83Zm.37.9a1.28,1.28,0,0,1-.37-.9h.08a1.21,1.21,0,0,0,.35.85Zm.88.37a1.24,1.24,0,0,1-.88-.37l.06-.05a1.16,1.16,0,0,0,.83.35Zm.9-.38a1.27,1.27,0,0,1-.9.38v-.08a1.2,1.2,0,0,0,.84-.35Zm.38-.9a1.28,1.28,0,0,1-.38.9l-.05-.05a1.2,1.2,0,0,0,.35-.84Zm-.36-.89a1.25,1.25,0,0,1,.36.89H73a1.17,1.17,0,0,0-.34-.83Zm-.89-.37a1.25,1.25,0,0,1,.89.37l-.06.06a1.17,1.17,0,0,0-.83-.34Z" style="fill:#231f20"/><path d="M71.8,23.9a.39.39,0,0,1-.36-.38c-1.26-4-1.89-6.92.38-6.92s1.66,2.88.41,6.92a.39.39,0,0,1-.38.38" style="fill:#231f20;fill-rule:evenodd"/><path d="M71.84,23.94h0v-.08h0m.29,0a.42.42,0,0,1-.29.13v-.08a.35.35,0,0,0,.24-.1Zm.13-.29a.42.42,0,0,1-.13.29l-.05-.05a.34.34,0,0,0,.1-.24Zm-.08,0h0Zm1.2-5a20.54,20.54,0,0,1-1.12,5l-.08,0a20.52,20.52,0,0,0,1.12-5Zm-1.56-2c1.16,0,1.59.73,1.56,2H73.3c0-1.2-.38-1.9-1.49-1.9Zm-1.55,2c0-1.25.39-2,1.55-2v.08c-1.11,0-1.5.71-1.47,1.9Zm1.13,5a21.15,21.15,0,0,1-1.13-5h.08a21.2,21.2,0,0,0,1.13,5Zm.07,0h0Zm0,.3a.43.43,0,0,1-.12-.29h.08a.35.35,0,0,0,.1.24Zm.28.13a.39.39,0,0,1-.28-.13l.06-.05a.31.31,0,0,0,.22.11Z" style="fill:#231f20"/><path d="M71.84,25.48a1.21,1.21,0,0,1,1.22,1.21,1.25,1.25,0,0,1-1.24,1.24,1.23,1.23,0,0,1-1.21-1.24,1.2,1.2,0,0,1,1.19-1.21" style="fill:#231f20;fill-rule:evenodd"/><path d="M71.8,25.44h0v.08h0m-.87.29a1.22,1.22,0,0,1,.87-.37v.08a1.14,1.14,0,0,0-.81.34Zm-.36.88a1.26,1.26,0,0,1,.36-.88l.06.05a1.18,1.18,0,0,0-.34.83Zm.37.9a1.28,1.28,0,0,1-.37-.9h.08a1.21,1.21,0,0,0,.35.85Zm.88.37a1.24,1.24,0,0,1-.88-.37l.06-.05a1.16,1.16,0,0,0,.83.35Zm.9-.38a1.27,1.27,0,0,1-.9.38v-.08a1.2,1.2,0,0,0,.84-.35Zm.38-.9a1.28,1.28,0,0,1-.38.9l-.05-.05a1.2,1.2,0,0,0,.35-.84Zm-.36-.89a1.25,1.25,0,0,1,.36.89H73a1.17,1.17,0,0,0-.34-.83Zm-.89-.37a1.25,1.25,0,0,1,.89.37l-.06.06a1.17,1.17,0,0,0-.83-.34Z" style="fill:#231f20"/><path d="M9.82,41.31h2.12a4.15,4.15,0,0,1,1.1.11,1.93,1.93,0,0,1,.87.53,2.51,2.51,0,0,1,.55.93,4.25,4.25,0,0,1,.19,1.36,3.79,3.79,0,0,1-.18,1.23,2.54,2.54,0,0,1-.62,1,2,2,0,0,1-.82.46,3.52,3.52,0,0,1-1,.12H9.82Zm1.16,1V46.1h.87a3.17,3.17,0,0,0,.7-.05A1.07,1.07,0,0,0,13,45.8a1.22,1.22,0,0,0,.3-.56,3.77,3.77,0,0,0,.12-1.05,3.45,3.45,0,0,0-.12-1,1.32,1.32,0,0,0-.33-.56,1.1,1.1,0,0,0-.54-.27,5.27,5.27,0,0,0-1-.06Z" style="fill:#231f20"/><path d="M15.39,44.23a3.66,3.66,0,0,1,.26-1.48,2.71,2.71,0,0,1,.54-.79,2.23,2.23,0,0,1,.74-.52,3.16,3.16,0,0,1,1.24-.23,2.7,2.7,0,0,1,2,.79,3.53,3.53,0,0,1,0,4.38,2.68,2.68,0,0,1-2,.79,2.71,2.71,0,0,1-2-.78A3,3,0,0,1,15.39,44.23Zm1.2,0A2.16,2.16,0,0,0,17,45.67a1.55,1.55,0,0,0,2.29,0,2.2,2.2,0,0,0,.45-1.5,2.17,2.17,0,0,0-.43-1.48,1.61,1.61,0,0,0-2.31,0A2.17,2.17,0,0,0,16.59,44.19Z" style="fill:#231f20"/><path d="M24.13,47.07V41.31h1.13l2.36,3.84V41.31h1.08v5.76H27.53l-2.32-3.75v3.75Z" style="fill:#231f20"/><path d="M29.69,44.23a3.66,3.66,0,0,1,.26-1.48,2.71,2.71,0,0,1,.54-.79,2.23,2.23,0,0,1,.74-.52,3.16,3.16,0,0,1,1.24-.23,2.7,2.7,0,0,1,2,.79,3.53,3.53,0,0,1,0,4.38,2.68,2.68,0,0,1-2,.79,2.71,2.71,0,0,1-2-.78A3,3,0,0,1,29.69,44.23Zm1.2,0a2.16,2.16,0,0,0,.45,1.48,1.55,1.55,0,0,0,2.29,0,2.2,2.2,0,0,0,.45-1.5,2.17,2.17,0,0,0-.43-1.48,1.61,1.61,0,0,0-2.31,0A2.17,2.17,0,0,0,30.88,44.19Z" style="fill:#231f20"/><path d="M37.47,47.07V42.29H35.76v-1h4.57v1h-1.7v4.78Z" style="fill:#231f20"/><path d="M44.14,44.17l-1-.18a1.56,1.56,0,0,1,.58-.9,2.12,2.12,0,0,1,1.22-.29A2.65,2.65,0,0,1,46,43a1.1,1.1,0,0,1,.51.44,2.28,2.28,0,0,1,.15,1V45.7a4.43,4.43,0,0,0,.05.81,2.34,2.34,0,0,0,.2.56H45.85c0-.07-.06-.18-.11-.33l0-.13a2,2,0,0,1-.6.41,1.74,1.74,0,0,1-.69.14,1.42,1.42,0,0,1-1-.35,1.16,1.16,0,0,1-.37-.88,1.18,1.18,0,0,1,.17-.63,1.1,1.1,0,0,1,.47-.42,3.7,3.7,0,0,1,.88-.26,6,6,0,0,0,1.07-.27v-.11a.57.57,0,0,0-.16-.45.94.94,0,0,0-.59-.14.79.79,0,0,0-.46.12A.81.81,0,0,0,44.14,44.17Zm1.48.9q-.21.07-.67.17a2,2,0,0,0-.6.19.46.46,0,0,0-.22.39.54.54,0,0,0,.17.4.6.6,0,0,0,.44.17,1,1,0,0,0,.57-.2.69.69,0,0,0,.26-.37,2.18,2.18,0,0,0,0-.54Z" style="fill:#231f20"/><path d="M51.61,47.07h-1v-.61A1.65,1.65,0,0,1,50,47a1.54,1.54,0,0,1-.7.17,1.59,1.59,0,0,1-1.23-.58A2.35,2.35,0,0,1,47.54,45a2.33,2.33,0,0,1,.5-1.61,1.63,1.63,0,0,1,1.26-.55,1.56,1.56,0,0,1,1.21.58V41.31h1.1Zm-2.94-2.17a1.91,1.91,0,0,0,.18,1,.83.83,0,0,0,.75.43.81.81,0,0,0,.65-.32,1.5,1.5,0,0,0,.27-1,1.64,1.64,0,0,0-.26-1,.85.85,0,0,0-1.32,0A1.41,1.41,0,0,0,48.66,44.89Z" style="fill:#231f20"/><path d="M53.78,42.9v4a4.19,4.19,0,0,1-.1,1.13.91.91,0,0,1-.4.51,1.41,1.41,0,0,1-.76.18l-.36,0-.41-.09.19-.94.15,0h.13a.49.49,0,0,0,.28-.07.35.35,0,0,0,.14-.18,2.81,2.81,0,0,0,0-.61v-4Zm-1.1-.57v-1h1.1v1Z" style="fill:#231f20"/><path d="M57.67,47.07v-.62a1.61,1.61,0,0,1-.6.53,1.68,1.68,0,0,1-.78.19,1.53,1.53,0,0,1-.75-.18,1.09,1.09,0,0,1-.48-.52,2.31,2.31,0,0,1-.15-.92V42.9H56v1.92a5.27,5.27,0,0,0,.06,1.08.59.59,0,0,0,.22.31.68.68,0,0,0,.41.12.87.87,0,0,0,.51-.15.79.79,0,0,0,.31-.38,4.45,4.45,0,0,0,.08-1.12V42.9h1.1v4.17Z" style="fill:#231f20"/><path d="M59.45,45.88l1.11-.17a.81.81,0,0,0,.29.49,1,1,0,0,0,.6.17,1.09,1.09,0,0,0,.64-.16.35.35,0,0,0,.15-.29.29.29,0,0,0-.08-.21.88.88,0,0,0-.37-.15A5.93,5.93,0,0,1,60.1,45a1.07,1.07,0,0,1-.5-.94,1.16,1.16,0,0,1,.43-.91,2,2,0,0,1,1.33-.37,2.32,2.32,0,0,1,1.27.28,1.43,1.43,0,0,1,.57.82l-1,.19a.65.65,0,0,0-.25-.37.93.93,0,0,0-.53-.13,1.2,1.2,0,0,0-.62.12.26.26,0,0,0-.13.22.24.24,0,0,0,.11.2,4.13,4.13,0,0,0,1,.31,3.08,3.08,0,0,1,1.23.49,1,1,0,0,1,.35.82,1.26,1.26,0,0,1-.48,1,2.12,2.12,0,0,1-1.42.41,2.32,2.32,0,0,1-1.35-.35A1.59,1.59,0,0,1,59.45,45.88Z" style="fill:#231f20"/><path d="M66.22,42.9v.88h-.75v1.68a4.15,4.15,0,0,0,0,.59.24.24,0,0,0,.1.14.31.31,0,0,0,.19.06,1.43,1.43,0,0,0,.44-.11l.09.86a2.2,2.2,0,0,1-.87.17,1.38,1.38,0,0,1-.54-.1.79.79,0,0,1-.35-.26,1,1,0,0,1-.15-.43,5.35,5.35,0,0,1,0-.78V43.78h-.51V42.9h.51v-.83l1.11-.64V42.9Z" style="fill:#231f20"/><path d="M71.14,42.9v.88h-.75v1.68a4.15,4.15,0,0,0,0,.59.24.24,0,0,0,.1.14.31.31,0,0,0,.19.06,1.43,1.43,0,0,0,.44-.11l.09.86a2.2,2.2,0,0,1-.87.17,1.38,1.38,0,0,1-.54-.1.79.79,0,0,1-.35-.26,1,1,0,0,1-.15-.43,5.35,5.35,0,0,1,0-.78V43.78h-.51V42.9h.51v-.83l1.11-.64V42.9Z" style="fill:#231f20"/><path d="M73,41.31v2.12a1.65,1.65,0,0,1,2-.48,1.13,1.13,0,0,1,.46.36,1.31,1.31,0,0,1,.21.49,4.33,4.33,0,0,1,.06.83v2.45h-1.1v-2.2a3.28,3.28,0,0,0-.06-.83.55.55,0,0,0-.22-.28.71.71,0,0,0-.4-.1.91.91,0,0,0-.49.13.77.77,0,0,0-.32.4A2.4,2.4,0,0,0,73,45v2.09H71.9V41.31Z" style="fill:#231f20"/><path d="M79.23,45.74l1.1.18a1.81,1.81,0,0,1-.67.92,2,2,0,0,1-1.14.32,1.86,1.86,0,0,1-1.61-.71A2.39,2.39,0,0,1,76.49,45,2.3,2.3,0,0,1,77,43.39a1.78,1.78,0,0,1,1.37-.59,1.85,1.85,0,0,1,1.47.61,2.72,2.72,0,0,1,.51,1.88H77.62a1.12,1.12,0,0,0,.27.76.84.84,0,0,0,.64.27A.68.68,0,0,0,79,46.2.87.87,0,0,0,79.23,45.74Zm.06-1.11A1.06,1.06,0,0,0,79,43.9a.8.8,0,0,0-1.17,0,1,1,0,0,0-.23.71Z" style="fill:#231f20"/><path d="M83.26,44.93a2.26,2.26,0,0,1,.27-1.06,1.86,1.86,0,0,1,.77-.79,2.28,2.28,0,0,1,1.11-.27,2.08,2.08,0,0,1,1.55.61,2.12,2.12,0,0,1,.6,1.55A2.15,2.15,0,0,1,87,46.54a2.06,2.06,0,0,1-1.54.62,2.42,2.42,0,0,1-1.09-.26,1.78,1.78,0,0,1-.79-.76A2.53,2.53,0,0,1,83.26,44.93Zm1.13.06a1.38,1.38,0,0,0,.29.95,1,1,0,0,0,1.45,0,1.4,1.4,0,0,0,.29-1,1.38,1.38,0,0,0-.29-.94,1,1,0,0,0-1.45,0A1.38,1.38,0,0,0,84.39,45Z" style="fill:#231f20"/><path d="M90.34,42.9v.88h-.75v1.68a4.15,4.15,0,0,0,0,.59.24.24,0,0,0,.1.14.31.31,0,0,0,.19.06,1.43,1.43,0,0,0,.44-.11l.09.86a2.2,2.2,0,0,1-.87.17,1.38,1.38,0,0,1-.54-.1.79.79,0,0,1-.35-.26,1,1,0,0,1-.15-.43,5.35,5.35,0,0,1,0-.78V43.78H88V42.9h.51v-.83l1.11-.64V42.9Z" style="fill:#231f20"/><path d="M92.21,41.31v2.12a1.65,1.65,0,0,1,2-.48,1.13,1.13,0,0,1,.46.36,1.31,1.31,0,0,1,.21.49,4.33,4.33,0,0,1,.06.83v2.45H93.8v-2.2a3.28,3.28,0,0,0-.06-.83.55.55,0,0,0-.22-.28.71.71,0,0,0-.4-.1.91.91,0,0,0-.49.13.77.77,0,0,0-.32.4,2.4,2.4,0,0,0-.1.79v2.09H91.1V41.31Z" style="fill:#231f20"/><path d="M98.43,45.74l1.1.18a1.81,1.81,0,0,1-.67.92,2,2,0,0,1-1.14.32,1.86,1.86,0,0,1-1.61-.71A2.39,2.39,0,0,1,95.7,45a2.3,2.3,0,0,1,.54-1.62,1.78,1.78,0,0,1,1.37-.59,1.85,1.85,0,0,1,1.47.61,2.72,2.72,0,0,1,.51,1.88H96.83a1.12,1.12,0,0,0,.27.76.84.84,0,0,0,.64.27.68.68,0,0,0,.44-.14A.87.87,0,0,0,98.43,45.74Zm.06-1.11a1.06,1.06,0,0,0-.25-.73.8.8,0,0,0-1.17,0,1,1,0,0,0-.23.71Z" style="fill:#231f20"/><path d="M101.55,47.07h-1.1V42.9h1v.59a1.78,1.78,0,0,1,.47-.55.87.87,0,0,1,.48-.13,1.4,1.4,0,0,1,.73.21l-.34,1a1,1,0,0,0-.52-.18.61.61,0,0,0-.39.13.87.87,0,0,0-.25.46,6.55,6.55,0,0,0-.09,1.4Z" style="fill:#231f20"/><path d="M109.68,47.07h-1v-.61a1.65,1.65,0,0,1-.6.53,1.54,1.54,0,0,1-.7.17,1.59,1.59,0,0,1-1.23-.58A2.35,2.35,0,0,1,105.6,45a2.33,2.33,0,0,1,.5-1.61,1.63,1.63,0,0,1,1.26-.55,1.56,1.56,0,0,1,1.21.58V41.31h1.1Zm-2.94-2.17a1.91,1.91,0,0,0,.18,1,.83.83,0,0,0,.75.43.81.81,0,0,0,.65-.32,1.5,1.5,0,0,0,.27-1,1.64,1.64,0,0,0-.26-1A.85.85,0,0,0,107,44,1.41,1.41,0,0,0,106.73,44.89Z" style="fill:#231f20"/><path d="M110.76,42.33v-1h1.1v1Zm0,4.73V42.9h1.1v4.17Z" style="fill:#231f20"/><path d="M113,42.9h1v.61a1.53,1.53,0,0,1,.54-.51,1.49,1.49,0,0,1,.76-.2,1.59,1.59,0,0,1,1.23.57A2.31,2.31,0,0,1,117,45a2.37,2.37,0,0,1-.51,1.62,1.59,1.59,0,0,1-1.24.58,1.41,1.41,0,0,1-.63-.14,2.12,2.12,0,0,1-.59-.47v2.1H113Zm1.09,2a1.61,1.61,0,0,0,.28,1,.85.85,0,0,0,.68.34.8.8,0,0,0,.64-.31,1.59,1.59,0,0,0,.26-1,1.51,1.51,0,0,0-.26-1,.81.81,0,0,0-.65-.32.85.85,0,0,0-.67.31A1.39,1.39,0,0,0,114.06,44.91Z" style="fill:#231f20"/><path d="M119.75,45.88l1.11-.17a.81.81,0,0,0,.29.49,1,1,0,0,0,.6.17,1.09,1.09,0,0,0,.64-.16.35.35,0,0,0,.15-.29.29.29,0,0,0-.08-.21.88.88,0,0,0-.37-.15A5.93,5.93,0,0,1,120.4,45a1.07,1.07,0,0,1-.5-.94,1.16,1.16,0,0,1,.43-.91,2,2,0,0,1,1.33-.37,2.32,2.32,0,0,1,1.27.28,1.43,1.43,0,0,1,.57.82l-1,.19a.65.65,0,0,0-.25-.37.93.93,0,0,0-.53-.13,1.2,1.2,0,0,0-.62.12.26.26,0,0,0-.13.22.24.24,0,0,0,.11.2,4.13,4.13,0,0,0,1,.31,3.08,3.08,0,0,1,1.23.49,1,1,0,0,1,.35.82,1.26,1.26,0,0,1-.48,1,2.12,2.12,0,0,1-1.42.41,2.32,2.32,0,0,1-1.35-.35A1.59,1.59,0,0,1,119.75,45.88Z" style="fill:#231f20"/><path d="M125.39,47.07l-1.32-4.17h1.07l.78,2.73.72-2.73h1.06l.69,2.73.8-2.73h1.09l-1.34,4.17h-1.06l-.72-2.68-.71,2.68Z" style="fill:#231f20"/><path d="M130.87,42.33v-1H132v1Zm0,4.73V42.9H132v4.17Z" style="fill:#231f20"/><path d="M135,42.9v.88h-.75v1.68a4.15,4.15,0,0,0,0,.59.24.24,0,0,0,.1.14.31.31,0,0,0,.19.06,1.43,1.43,0,0,0,.44-.11l.09.86a2.2,2.2,0,0,1-.87.17,1.38,1.38,0,0,1-.54-.1.78.78,0,0,1-.35-.26,1,1,0,0,1-.15-.43,5.33,5.33,0,0,1,0-.78V43.78h-.51V42.9h.51v-.83l1.11-.64V42.9Z" style="fill:#231f20"/><path d="M139.41,44.13l-1.09.2a.79.79,0,0,0-.25-.49.75.75,0,0,0-.5-.17.83.83,0,0,0-.66.28,1.46,1.46,0,0,0-.25,1,1.69,1.69,0,0,0,.25,1,.82.82,0,0,0,.67.31.74.74,0,0,0,.51-.18,1.07,1.07,0,0,0,.28-.61l1.08.18a1.92,1.92,0,0,1-.65,1.13,2,2,0,0,1-1.28.38,1.91,1.91,0,0,1-1.46-.58,2.63,2.63,0,0,1,0-3.21,1.94,1.94,0,0,1,1.48-.57,2,2,0,0,1,1.21.33A1.82,1.82,0,0,1,139.41,44.13Z" style="fill:#231f20"/><path d="M141.35,41.31v2.12a1.65,1.65,0,0,1,2-.48,1.13,1.13,0,0,1,.46.36,1.31,1.31,0,0,1,.21.49,4.25,4.25,0,0,1,.06.83v2.45h-1.1v-2.2a3.26,3.26,0,0,0-.06-.83.55.55,0,0,0-.22-.28.72.72,0,0,0-.4-.1.91.91,0,0,0-.49.13.77.77,0,0,0-.32.4,2.38,2.38,0,0,0-.1.79v2.09h-1.1V41.31Z" style="fill:#231f20"/><path d="M147.58,45.74l1.1.18a1.8,1.8,0,0,1-.67.92,2,2,0,0,1-1.14.32,1.86,1.86,0,0,1-1.61-.71,2.39,2.39,0,0,1-.41-1.44,2.3,2.3,0,0,1,.54-1.62,1.78,1.78,0,0,1,1.37-.59,1.85,1.85,0,0,1,1.47.61,2.72,2.72,0,0,1,.51,1.88H146a1.12,1.12,0,0,0,.27.76.84.84,0,0,0,.64.27.68.68,0,0,0,.44-.14A.87.87,0,0,0,147.58,45.74Zm.06-1.11a1.06,1.06,0,0,0-.25-.73.8.8,0,0,0-1.17,0,1,1,0,0,0-.23.71Z" style="fill:#231f20"/><path d="M149.25,45.88l1.11-.17a.82.82,0,0,0,.29.49,1,1,0,0,0,.61.17,1.09,1.09,0,0,0,.64-.16.35.35,0,0,0,.15-.29.29.29,0,0,0-.08-.21.89.89,0,0,0-.37-.15,5.92,5.92,0,0,1-1.69-.54,1.07,1.07,0,0,1-.5-.94,1.16,1.16,0,0,1,.43-.91,2,2,0,0,1,1.33-.37,2.32,2.32,0,0,1,1.27.28,1.42,1.42,0,0,1,.57.82l-1,.19a.65.65,0,0,0-.25-.37.93.93,0,0,0-.53-.13,1.2,1.2,0,0,0-.62.12.26.26,0,0,0-.12.22.24.24,0,0,0,.11.2,4.14,4.14,0,0,0,1,.31,3.1,3.1,0,0,1,1.23.49,1,1,0,0,1,.35.82,1.26,1.26,0,0,1-.48,1,2.12,2.12,0,0,1-1.42.41,2.32,2.32,0,0,1-1.35-.35A1.59,1.59,0,0,1,149.25,45.88Z" style="fill:#231f20"/><path d="M159.08,47.07v-.62a1.62,1.62,0,0,1-.6.53,1.68,1.68,0,0,1-.78.19,1.53,1.53,0,0,1-.75-.18,1.08,1.08,0,0,1-.48-.52,2.31,2.31,0,0,1-.15-.92V42.9h1.1v1.92a5.26,5.26,0,0,0,.06,1.08.58.58,0,0,0,.22.31.68.68,0,0,0,.41.12.87.87,0,0,0,.51-.15.79.79,0,0,0,.31-.38,4.47,4.47,0,0,0,.08-1.12V42.9h1.1v4.17Z" style="fill:#231f20"/><path d="M165,47.07h-1.1V44.94a3.25,3.25,0,0,0-.07-.87.61.61,0,0,0-.23-.31.66.66,0,0,0-.38-.11.88.88,0,0,0-.51.16.79.79,0,0,0-.31.42,3.59,3.59,0,0,0-.08,1v1.89h-1.1V42.9h1v.61a1.71,1.71,0,0,1,2-.58,1.13,1.13,0,0,1,.46.34,1.22,1.22,0,0,1,.22.46,3.48,3.48,0,0,1,.06.74Z" style="fill:#231f20"/><path d="M166.16,47.07V41.31h1.1v5.76Z" style="fill:#231f20"/><path d="M170.81,45.74l1.1.18a1.8,1.8,0,0,1-.67.92,2,2,0,0,1-1.14.32,1.87,1.87,0,0,1-1.61-.71,2.39,2.39,0,0,1-.41-1.44,2.3,2.3,0,0,1,.54-1.62,1.78,1.78,0,0,1,1.37-.59,1.85,1.85,0,0,1,1.47.61A2.72,2.72,0,0,1,172,45.3H169.2a1.12,1.12,0,0,0,.27.76.84.84,0,0,0,.64.27.68.68,0,0,0,.44-.14A.87.87,0,0,0,170.81,45.74Zm.06-1.11a1.06,1.06,0,0,0-.25-.73.76.76,0,0,0-.57-.25.77.77,0,0,0-.6.26,1,1,0,0,0-.23.71Z" style="fill:#231f20"/><path d="M172.48,45.88l1.11-.17a.81.81,0,0,0,.29.49,1,1,0,0,0,.6.17,1.09,1.09,0,0,0,.64-.16.35.35,0,0,0,.15-.29.29.29,0,0,0-.08-.21.89.89,0,0,0-.37-.15,6,6,0,0,1-1.69-.54,1.07,1.07,0,0,1-.49-.94,1.16,1.16,0,0,1,.43-.91,2,2,0,0,1,1.33-.37,2.32,2.32,0,0,1,1.27.28,1.43,1.43,0,0,1,.57.82l-1,.19a.64.64,0,0,0-.25-.37.92.92,0,0,0-.53-.13,1.2,1.2,0,0,0-.62.12.26.26,0,0,0-.13.22.24.24,0,0,0,.11.2,4.11,4.11,0,0,0,1,.31,3.08,3.08,0,0,1,1.23.49,1,1,0,0,1,.35.82,1.26,1.26,0,0,1-.48,1,2.12,2.12,0,0,1-1.42.41,2.33,2.33,0,0,1-1.35-.35A1.59,1.59,0,0,1,172.48,45.88Z" style="fill:#231f20"/><path d="M176.95,45.88l1.11-.17a.81.81,0,0,0,.29.49,1,1,0,0,0,.6.17,1.09,1.09,0,0,0,.64-.16.35.35,0,0,0,.15-.29.29.29,0,0,0-.08-.21.89.89,0,0,0-.37-.15A6,6,0,0,1,177.6,45a1.07,1.07,0,0,1-.49-.94,1.16,1.16,0,0,1,.43-.91,2,2,0,0,1,1.33-.37,2.32,2.32,0,0,1,1.27.28,1.43,1.43,0,0,1,.57.82l-1,.19a.64.64,0,0,0-.25-.37.92.92,0,0,0-.53-.13,1.2,1.2,0,0,0-.62.12.26.26,0,0,0-.13.22.24.24,0,0,0,.11.2,4.11,4.11,0,0,0,1,.31,3.08,3.08,0,0,1,1.23.49,1,1,0,0,1,.35.82,1.26,1.26,0,0,1-.48,1,2.12,2.12,0,0,1-1.42.41,2.33,2.33,0,0,1-1.35-.35A1.59,1.59,0,0,1,176.95,45.88Z" style="fill:#231f20"/><path d="M183.65,45.88l1.11-.17a.81.81,0,0,0,.29.49,1,1,0,0,0,.6.17,1.09,1.09,0,0,0,.64-.16.35.35,0,0,0,.15-.29.29.29,0,0,0-.08-.21.89.89,0,0,0-.37-.15A6,6,0,0,1,184.3,45a1.07,1.07,0,0,1-.49-.94,1.16,1.16,0,0,1,.43-.91,2,2,0,0,1,1.33-.37,2.32,2.32,0,0,1,1.27.28,1.43,1.43,0,0,1,.57.82l-1,.19a.64.64,0,0,0-.25-.37.92.92,0,0,0-.53-.13,1.2,1.2,0,0,0-.62.12.26.26,0,0,0-.13.22.24.24,0,0,0,.11.2,4.11,4.11,0,0,0,1,.31,3.08,3.08,0,0,1,1.23.49,1,1,0,0,1,.35.82,1.26,1.26,0,0,1-.48,1,2.12,2.12,0,0,1-1.42.41,2.33,2.33,0,0,1-1.35-.35A1.59,1.59,0,0,1,183.65,45.88Z" style="fill:#231f20"/><path d="M188.48,42.9h1v.61a1.54,1.54,0,0,1,.54-.51,1.49,1.49,0,0,1,.76-.2,1.59,1.59,0,0,1,1.23.57,2.3,2.3,0,0,1,.51,1.59,2.38,2.38,0,0,1-.51,1.62,1.59,1.59,0,0,1-1.24.58,1.41,1.41,0,0,1-.63-.14,2.13,2.13,0,0,1-.59-.47v2.1h-1.1Zm1.09,2a1.6,1.6,0,0,0,.28,1,.85.85,0,0,0,.68.34.8.8,0,0,0,.64-.31,1.58,1.58,0,0,0,.26-1,1.5,1.5,0,0,0-.26-1,.81.81,0,0,0-.65-.32.84.84,0,0,0-.67.31A1.38,1.38,0,0,0,189.57,44.91Z" style="fill:#231f20"/><path d="M195.84,45.74l1.1.18a1.8,1.8,0,0,1-.67.92,2,2,0,0,1-1.14.32,1.87,1.87,0,0,1-1.61-.71A2.39,2.39,0,0,1,193.1,45a2.3,2.3,0,0,1,.54-1.62,1.78,1.78,0,0,1,1.37-.59,1.85,1.85,0,0,1,1.47.61A2.72,2.72,0,0,1,197,45.3h-2.76a1.12,1.12,0,0,0,.27.76.84.84,0,0,0,.64.27.68.68,0,0,0,.44-.14A.87.87,0,0,0,195.84,45.74Zm.06-1.11a1.06,1.06,0,0,0-.25-.73.76.76,0,0,0-.57-.25.77.77,0,0,0-.6.26,1,1,0,0,0-.23.71Z" style="fill:#231f20"/><path d="M201.53,44.13l-1.09.2a.79.79,0,0,0-.25-.49.75.75,0,0,0-.5-.17A.82.82,0,0,0,199,44a1.46,1.46,0,0,0-.25,1,1.69,1.69,0,0,0,.25,1,.82.82,0,0,0,.67.31.74.74,0,0,0,.51-.18,1.08,1.08,0,0,0,.28-.61l1.08.18a1.93,1.93,0,0,1-.65,1.13,2,2,0,0,1-1.28.38,1.91,1.91,0,0,1-1.46-.58,2.63,2.63,0,0,1,0-3.21,1.94,1.94,0,0,1,1.48-.57,2,2,0,0,1,1.21.33A1.82,1.82,0,0,1,201.53,44.13Z" style="fill:#231f20"/><path d="M202.37,42.33v-1h1.1v1Zm0,4.73V42.9h1.1v4.17Z" style="fill:#231f20"/><path d="M204.12,42.9h.61v-.31a2.1,2.1,0,0,1,.11-.79.89.89,0,0,1,.41-.42,1.59,1.59,0,0,1,.76-.16,3.07,3.07,0,0,1,.92.14l-.15.77a2.17,2.17,0,0,0-.51-.06.45.45,0,0,0-.34.11.65.65,0,0,0-.1.43v.29h.82v.87h-.82v3.3h-1.1v-3.3h-.61Z" style="fill:#231f20"/><path d="M207.28,42.33v-1h1.1v1Zm0,4.73V42.9h1.1v4.17Z" style="fill:#231f20"/><path d="M213.15,44.13l-1.09.2a.79.79,0,0,0-.25-.49.75.75,0,0,0-.5-.17.82.82,0,0,0-.66.28,1.46,1.46,0,0,0-.25,1,1.69,1.69,0,0,0,.25,1,.82.82,0,0,0,.67.31.74.74,0,0,0,.51-.18,1.08,1.08,0,0,0,.28-.61l1.08.18a1.93,1.93,0,0,1-.65,1.13,2,2,0,0,1-1.28.38,1.91,1.91,0,0,1-1.46-.58,2.63,2.63,0,0,1,0-3.21,1.94,1.94,0,0,1,1.48-.57,2,2,0,0,1,1.21.33A1.82,1.82,0,0,1,213.15,44.13Z" style="fill:#231f20"/><path d="M214.81,44.17l-1-.18a1.56,1.56,0,0,1,.58-.9,2.12,2.12,0,0,1,1.22-.29,2.65,2.65,0,0,1,1.1.17,1.1,1.1,0,0,1,.51.44,2.27,2.27,0,0,1,.15,1V45.7a4.49,4.49,0,0,0,.05.81,2.4,2.4,0,0,0,.2.56h-1.09c0-.07-.06-.18-.11-.33l0-.13a2,2,0,0,1-.6.41,1.74,1.74,0,0,1-.69.14,1.42,1.42,0,0,1-1-.35,1.16,1.16,0,0,1-.37-.88,1.19,1.19,0,0,1,.17-.63,1.11,1.11,0,0,1,.47-.42,3.68,3.68,0,0,1,.88-.26,6,6,0,0,0,1.07-.27v-.11a.57.57,0,0,0-.16-.45.94.94,0,0,0-.59-.14.79.79,0,0,0-.46.12A.81.81,0,0,0,214.81,44.17Zm1.48.9q-.21.07-.67.17a2,2,0,0,0-.6.19.46.46,0,0,0-.22.39.54.54,0,0,0,.17.4.6.6,0,0,0,.44.17,1,1,0,0,0,.57-.2.68.68,0,0,0,.26-.37,2.14,2.14,0,0,0,0-.54Z" style="fill:#231f20"/><path d="M218.46,47.07V41.31h1.1v5.76Z" style="fill:#231f20"/><path d="M220.69,47.07V41.31h1.1v5.76Z" style="fill:#231f20"/><path d="M222.4,42.9h1.17l1,3,1-3h1.14l-1.47,4-.26.73a3,3,0,0,1-.28.56,1.2,1.2,0,0,1-.3.31,1.32,1.32,0,0,1-.42.19,2.2,2.2,0,0,1-.56.07,3,3,0,0,1-.62-.07l-.1-.86a2.42,2.42,0,0,0,.47.05.69.69,0,0,0,.57-.22,1.57,1.57,0,0,0,.28-.58Z" style="fill:#231f20"/><path d="M9.81,52V51h1.1v1Zm0,4.73V52.55h1.1v4.17Z" style="fill:#231f20"/><path d="M15.84,56.72h-1.1V54.59a3.3,3.3,0,0,0-.07-.87.61.61,0,0,0-.23-.31.66.66,0,0,0-.38-.11.89.89,0,0,0-.51.16.79.79,0,0,0-.31.42,3.59,3.59,0,0,0-.08,1v1.89H12V52.55h1v.61a1.71,1.71,0,0,1,2-.58,1.12,1.12,0,0,1,.46.34,1.22,1.22,0,0,1,.22.46,3.45,3.45,0,0,1,.06.74Z" style="fill:#231f20"/><path d="M16.57,55.53l1.11-.17a.81.81,0,0,0,.29.49,1,1,0,0,0,.6.17,1.09,1.09,0,0,0,.64-.16.35.35,0,0,0,.15-.29.29.29,0,0,0-.08-.21.88.88,0,0,0-.37-.15,6,6,0,0,1-1.69-.54,1.07,1.07,0,0,1-.5-.94,1.16,1.16,0,0,1,.43-.91,2,2,0,0,1,1.33-.37,2.31,2.31,0,0,1,1.27.28,1.42,1.42,0,0,1,.57.82l-1,.19a.65.65,0,0,0-.25-.37.93.93,0,0,0-.53-.13,1.2,1.2,0,0,0-.62.12.26.26,0,0,0-.13.22.24.24,0,0,0,.11.2,4.15,4.15,0,0,0,1,.31,3.06,3.06,0,0,1,1.23.49,1,1,0,0,1,.35.82,1.26,1.26,0,0,1-.48,1,2.12,2.12,0,0,1-1.42.41,2.32,2.32,0,0,1-1.35-.34A1.59,1.59,0,0,1,16.57,55.53Z" style="fill:#231f20"/><path d="M23.34,52.55v.88h-.75v1.68a4.15,4.15,0,0,0,0,.59.24.24,0,0,0,.1.14.31.31,0,0,0,.19.05,1.41,1.41,0,0,0,.44-.11l.09.86a2.2,2.2,0,0,1-.87.16,1.39,1.39,0,0,1-.54-.1.79.79,0,0,1-.35-.26,1,1,0,0,1-.15-.43,5.34,5.34,0,0,1,0-.78V53.43H21v-.88h.51v-.83l1.11-.64v1.47Z" style="fill:#231f20"/><path d="M25.16,56.72h-1.1V52.55h1v.59a1.78,1.78,0,0,1,.47-.55.87.87,0,0,1,.48-.13,1.4,1.4,0,0,1,.73.21l-.34,1a1,1,0,0,0-.52-.18.61.61,0,0,0-.39.13.87.87,0,0,0-.25.46,6.55,6.55,0,0,0-.09,1.4Z" style="fill:#231f20"/><path d="M30,56.72v-.62a1.61,1.61,0,0,1-.6.53,1.68,1.68,0,0,1-.78.19,1.54,1.54,0,0,1-.75-.18,1.09,1.09,0,0,1-.48-.52,2.31,2.31,0,0,1-.15-.92V52.55h1.1v1.92a5.26,5.26,0,0,0,.06,1.08.59.59,0,0,0,.22.31A.68.68,0,0,0,29,56a.87.87,0,0,0,.51-.16.78.78,0,0,0,.31-.38,4.44,4.44,0,0,0,.08-1.12V52.55H31v4.17Z" style="fill:#231f20"/><path d="M35.78,53.78,34.7,54a.79.79,0,0,0-.25-.49.75.75,0,0,0-.5-.17.83.83,0,0,0-.66.28,1.46,1.46,0,0,0-.25,1,1.68,1.68,0,0,0,.25,1,.82.82,0,0,0,.67.31.74.74,0,0,0,.51-.18,1.07,1.07,0,0,0,.28-.61l1.08.18a1.92,1.92,0,0,1-.65,1.13,2,2,0,0,1-1.28.38,1.91,1.91,0,0,1-1.46-.58,2.63,2.63,0,0,1,0-3.21,1.94,1.94,0,0,1,1.48-.58,2,2,0,0,1,1.21.33A1.82,1.82,0,0,1,35.78,53.78Z" style="fill:#231f20"/><path d="M38.53,52.55v.88h-.75v1.68a4.15,4.15,0,0,0,0,.59.24.24,0,0,0,.1.14.31.31,0,0,0,.19.05,1.41,1.41,0,0,0,.44-.11l.09.86a2.2,2.2,0,0,1-.87.16,1.39,1.39,0,0,1-.54-.1.79.79,0,0,1-.35-.26,1,1,0,0,1-.15-.43,5.34,5.34,0,0,1,0-.78V53.43h-.51v-.88h.51v-.83l1.11-.64v1.47Z" style="fill:#231f20"/><path d="M41.71,55.39l1.1.18a1.81,1.81,0,0,1-.67.92,2,2,0,0,1-1.14.32,1.86,1.86,0,0,1-1.61-.71A2.39,2.39,0,0,1,39,54.66,2.3,2.3,0,0,1,39.52,53a1.79,1.79,0,0,1,1.37-.59,1.85,1.85,0,0,1,1.47.61A2.72,2.72,0,0,1,42.87,55H40.11a1.11,1.11,0,0,0,.27.76A.83.83,0,0,0,41,56a.68.68,0,0,0,.44-.14A.87.87,0,0,0,41.71,55.39Zm.06-1.11a1.06,1.06,0,0,0-.25-.73.8.8,0,0,0-1.17,0,1,1,0,0,0-.23.71Z" style="fill:#231f20"/><path d="M47.59,56.72h-1V56.1a1.66,1.66,0,0,1-.6.53,1.55,1.55,0,0,1-.7.17A1.59,1.59,0,0,1,44,56.23a2.36,2.36,0,0,1-.51-1.62A2.33,2.33,0,0,1,44,53a1.63,1.63,0,0,1,1.26-.55,1.56,1.56,0,0,1,1.21.58V51h1.1Zm-2.94-2.17a1.91,1.91,0,0,0,.18,1,.83.83,0,0,0,.75.43.81.81,0,0,0,.65-.32,1.5,1.5,0,0,0,.27-1,1.64,1.64,0,0,0-.26-1,.85.85,0,0,0-1.32,0A1.41,1.41,0,0,0,44.65,54.54Z" style="fill:#231f20"/><path d="M52.83,52.55v.88h-.75v1.68a4.15,4.15,0,0,0,0,.59.24.24,0,0,0,.1.14.31.31,0,0,0,.19.05,1.41,1.41,0,0,0,.44-.11l.09.86a2.2,2.2,0,0,1-.87.16,1.39,1.39,0,0,1-.54-.1.79.79,0,0,1-.35-.26A1,1,0,0,1,51,56a5.34,5.34,0,0,1,0-.78V53.43h-.51v-.88H51v-.83l1.11-.64v1.47Z" style="fill:#231f20"/><path d="M53.34,54.57a2.25,2.25,0,0,1,.27-1.06,1.86,1.86,0,0,1,.77-.79,2.28,2.28,0,0,1,1.11-.27,2.08,2.08,0,0,1,1.55.61,2.13,2.13,0,0,1,.6,1.55A2.15,2.15,0,0,1,57,56.19a2.06,2.06,0,0,1-1.54.62,2.42,2.42,0,0,1-1.09-.26,1.78,1.78,0,0,1-.79-.76A2.53,2.53,0,0,1,53.34,54.57Zm1.13.06a1.38,1.38,0,0,0,.29,1,1,1,0,0,0,1.45,0,1.4,1.4,0,0,0,.29-1,1.37,1.37,0,0,0-.29-.94,1,1,0,0,0-1.45,0A1.38,1.38,0,0,0,54.47,54.63Z" style="fill:#231f20"/><path d="M64.56,56.72h-1V56.1a1.66,1.66,0,0,1-.6.53,1.55,1.55,0,0,1-.7.17A1.59,1.59,0,0,1,61,56.23a2.36,2.36,0,0,1-.51-1.62A2.33,2.33,0,0,1,61,53a1.63,1.63,0,0,1,1.26-.55,1.56,1.56,0,0,1,1.21.58V51h1.1Zm-2.94-2.17a1.91,1.91,0,0,0,.18,1,.83.83,0,0,0,.75.43.81.81,0,0,0,.65-.32,1.5,1.5,0,0,0,.27-1,1.64,1.64,0,0,0-.26-1,.85.85,0,0,0-1.32,0A1.41,1.41,0,0,0,61.62,54.54Z" style="fill:#231f20"/><path d="M65.39,54.57a2.25,2.25,0,0,1,.27-1.06,1.86,1.86,0,0,1,.77-.79,2.28,2.28,0,0,1,1.11-.27,2.08,2.08,0,0,1,1.55.61,2.13,2.13,0,0,1,.6,1.55,2.15,2.15,0,0,1-.61,1.57,2.06,2.06,0,0,1-1.54.62,2.42,2.42,0,0,1-1.09-.26,1.78,1.78,0,0,1-.79-.76A2.53,2.53,0,0,1,65.39,54.57Zm1.13.06a1.38,1.38,0,0,0,.29,1,1,1,0,0,0,1.45,0,1.4,1.4,0,0,0,.29-1,1.37,1.37,0,0,0-.29-.94,1,1,0,0,0-1.45,0A1.38,1.38,0,0,0,66.52,54.63Z" style="fill:#231f20"/><path d="M72.4,55.53l1.11-.17a.81.81,0,0,0,.29.49,1,1,0,0,0,.6.17,1.09,1.09,0,0,0,.64-.16.35.35,0,0,0,.15-.29.29.29,0,0,0-.08-.21.88.88,0,0,0-.37-.15,6,6,0,0,1-1.69-.54,1.07,1.07,0,0,1-.5-.94,1.16,1.16,0,0,1,.43-.91,2,2,0,0,1,1.33-.37,2.31,2.31,0,0,1,1.27.28,1.42,1.42,0,0,1,.57.82l-1,.19a.65.65,0,0,0-.25-.37.93.93,0,0,0-.53-.13,1.2,1.2,0,0,0-.62.12.26.26,0,0,0-.13.22.24.24,0,0,0,.11.2,4.15,4.15,0,0,0,1,.31,3.06,3.06,0,0,1,1.23.49,1,1,0,0,1,.35.82,1.26,1.26,0,0,1-.48,1,2.12,2.12,0,0,1-1.42.41,2.32,2.32,0,0,1-1.35-.34A1.59,1.59,0,0,1,72.4,55.53Z" style="fill:#231f20"/><path d="M77,54.57a2.25,2.25,0,0,1,.27-1.06,1.86,1.86,0,0,1,.77-.79,2.28,2.28,0,0,1,1.11-.27,2.08,2.08,0,0,1,1.55.61,2.13,2.13,0,0,1,.6,1.55,2.15,2.15,0,0,1-.61,1.57,2.06,2.06,0,0,1-1.54.62,2.42,2.42,0,0,1-1.09-.26,1.78,1.78,0,0,1-.79-.76A2.53,2.53,0,0,1,77,54.57Zm1.13.06a1.38,1.38,0,0,0,.29,1,1,1,0,0,0,1.45,0,1.4,1.4,0,0,0,.29-1,1.37,1.37,0,0,0-.29-.94,1,1,0,0,0-1.45,0A1.38,1.38,0,0,0,78.14,54.63Z" style="fill:#231f20"/><path d="M82.18,56.72v-1.1h1.1v1.1Z" style="fill:#231f20"/></svg>