<svg id="Layer_1" data-name="Layer 1" xmlns="http://www.w3.org/2000/svg" xmlns:xlink="http://www.w3.org/1999/xlink" viewBox="0 0 263.1 164.95"><defs><clipPath id="clip-path"><rect width="263.1" height="164.95" style="fill:none"/></clipPath></defs><title>warning_CO_gas_brthng_hzrd_fllw_applicalble_codes</title><g style="clip-path:url(#clip-path)"><rect x="0.75" y="0.75" width="261.6" height="163.45" style="fill:none;stroke:#010101;stroke-width:1.5px"/><path d="M60.79,38.53l1.68.53a3.77,3.77,0,0,1-1.29,2.09,4,4,0,0,1-5.09-.49,4.47,4.47,0,0,1-1.1-3.2,4.7,4.7,0,0,1,1.11-3.33A3.8,3.8,0,0,1,59,32.95a3.57,3.57,0,0,1,2.56.93,3.39,3.39,0,0,1,.88,1.58l-1.72.41a1.77,1.77,0,0,0-1.81-1.44,2,2,0,0,0-1.55.69,3.36,3.36,0,0,0-.59,2.22,3.6,3.6,0,0,0,.59,2.32,1.9,1.9,0,0,0,1.52.69,1.74,1.74,0,0,0,1.19-.44A2.55,2.55,0,0,0,60.79,38.53Z" style="fill:#010101"/><path d="M65.18,37.36l-1.49-.27a2.33,2.33,0,0,1,.87-1.34,3.17,3.17,0,0,1,1.83-.43,3.94,3.94,0,0,1,1.64.26,1.64,1.64,0,0,1,.76.66A3.4,3.4,0,0,1,69,37.72l0,1.92a6.67,6.67,0,0,0,.08,1.21,3.53,3.53,0,0,0,.3.83H67.73q-.06-.16-.16-.49L67.51,41a3,3,0,0,1-.9.62,2.58,2.58,0,0,1-1,.21,2.12,2.12,0,0,1-1.51-.52A1.73,1.73,0,0,1,63.51,40a1.77,1.77,0,0,1,.25-.94,1.65,1.65,0,0,1,.71-.63A5.52,5.52,0,0,1,65.78,38a9,9,0,0,0,1.6-.4v-.16a.85.85,0,0,0-.23-.68,1.4,1.4,0,0,0-.88-.2,1.18,1.18,0,0,0-.69.17A1.2,1.2,0,0,0,65.18,37.36Zm2.2,1.34a10.29,10.29,0,0,1-1,.25,3,3,0,0,0-.9.29.69.69,0,0,0-.32.58.81.81,0,0,0,.26.6.9.9,0,0,0,.66.25,1.43,1.43,0,0,0,.85-.29,1,1,0,0,0,.39-.54,3.25,3.25,0,0,0,.06-.8Z" style="fill:#010101"/><path d="M72.2,41.69H70.55V35.46h1.53v.88a2.66,2.66,0,0,1,.71-.83,1.3,1.3,0,0,1,.71-.2,2.09,2.09,0,0,1,1.08.31l-.51,1.44a1.44,1.44,0,0,0-.77-.27.91.91,0,0,0-.59.19,1.3,1.3,0,0,0-.38.69,9.78,9.78,0,0,0-.14,2.09Z" style="fill:#010101"/><path d="M75.22,41.69V33.1h1.65v3.09a2.33,2.33,0,0,1,1.8-.87,2.43,2.43,0,0,1,1.88.82,3.41,3.41,0,0,1,.74,2.36A3.6,3.6,0,0,1,80.54,41a2.37,2.37,0,0,1-1.84.86,2.28,2.28,0,0,1-1.05-.27,2.51,2.51,0,0,1-.89-.79v.91Zm1.63-3.25a2.65,2.65,0,0,0,.3,1.43,1.3,1.3,0,0,0,1.14.66,1.16,1.16,0,0,0,.93-.47,2.29,2.29,0,0,0,.38-1.47,2.43,2.43,0,0,0-.39-1.54,1.22,1.22,0,0,0-1-.47,1.24,1.24,0,0,0-1,.46A2.11,2.11,0,0,0,76.86,38.44Z" style="fill:#010101"/><path d="M82.24,38.49a3.37,3.37,0,0,1,.4-1.59,2.78,2.78,0,0,1,1.15-1.17,3.4,3.4,0,0,1,1.66-.4,3.11,3.11,0,0,1,2.31.92,3.17,3.17,0,0,1,.9,2.32,3.21,3.21,0,0,1-.91,2.34,3.08,3.08,0,0,1-2.29.93,3.61,3.61,0,0,1-1.63-.39,2.65,2.65,0,0,1-1.18-1.13A3.78,3.78,0,0,1,82.24,38.49Zm1.69.09A2.06,2.06,0,0,0,84.37,40a1.44,1.44,0,0,0,2.17,0A2.09,2.09,0,0,0,87,38.56a2.05,2.05,0,0,0-.44-1.41,1.44,1.44,0,0,0-2.17,0A2.06,2.06,0,0,0,83.93,38.57Z" style="fill:#010101"/><path d="M95.61,41.69H94V38.51a4.91,4.91,0,0,0-.11-1.3.91.91,0,0,0-.34-.46,1,1,0,0,0-.57-.16,1.32,1.32,0,0,0-.77.23,1.18,1.18,0,0,0-.47.62,5.37,5.37,0,0,0-.13,1.43v2.82H89.94V35.46h1.53v.91a2.55,2.55,0,0,1,3-.86,1.67,1.67,0,0,1,.68.5,1.81,1.81,0,0,1,.32.69,5.14,5.14,0,0,1,.09,1.11Z" style="fill:#010101"/><path d="M100.6,41.69V33.1h2.6L104.76,39l1.54-5.86h2.6v8.59h-1.61V34.92l-1.71,6.76h-1.67l-1.7-6.76v6.76Z" style="fill:#010101"/><path d="M110.23,38.49a3.37,3.37,0,0,1,.4-1.59,2.78,2.78,0,0,1,1.15-1.17,3.4,3.4,0,0,1,1.66-.4,3.11,3.11,0,0,1,2.31.92,3.17,3.17,0,0,1,.9,2.32,3.21,3.21,0,0,1-.91,2.34,3.08,3.08,0,0,1-2.29.93,3.61,3.61,0,0,1-1.63-.39,2.65,2.65,0,0,1-1.18-1.13A3.78,3.78,0,0,1,110.23,38.49Zm1.69.09a2.06,2.06,0,0,0,.44,1.42,1.44,1.44,0,0,0,2.17,0,2.09,2.09,0,0,0,.44-1.43,2.05,2.05,0,0,0-.44-1.41,1.44,1.44,0,0,0-2.17,0A2.06,2.06,0,0,0,111.92,38.57Z" style="fill:#010101"/><path d="M123.6,41.69H122V38.51a4.91,4.91,0,0,0-.11-1.3.91.91,0,0,0-.34-.46,1,1,0,0,0-.57-.16,1.32,1.32,0,0,0-.77.23,1.18,1.18,0,0,0-.47.62,5.37,5.37,0,0,0-.13,1.43v2.82h-1.65V35.46h1.53v.91a2.55,2.55,0,0,1,3-.86,1.67,1.67,0,0,1,.68.5,1.81,1.81,0,0,1,.32.69,5.14,5.14,0,0,1,.09,1.11Z" style="fill:#010101"/><path d="M124.89,38.49a3.37,3.37,0,0,1,.4-1.59,2.78,2.78,0,0,1,1.15-1.17,3.4,3.4,0,0,1,1.66-.4,3.11,3.11,0,0,1,2.31.92,3.17,3.17,0,0,1,.9,2.32,3.21,3.21,0,0,1-.91,2.34,3.08,3.08,0,0,1-2.29.93,3.61,3.61,0,0,1-1.63-.39,2.65,2.65,0,0,1-1.18-1.13A3.78,3.78,0,0,1,124.89,38.49Zm1.69.09A2.06,2.06,0,0,0,127,40a1.44,1.44,0,0,0,2.17,0,2.09,2.09,0,0,0,.44-1.43,2.05,2.05,0,0,0-.44-1.41,1.44,1.44,0,0,0-2.17,0A2.06,2.06,0,0,0,126.58,38.57Z" style="fill:#010101"/><path d="M131.81,41.69l2.24-3.21-2.15-3h2l1.1,1.71,1.16-1.71h1.93L136,38.41l2.3,3.28h-2L135,39.76l-1.28,1.93Z" style="fill:#010101"/><path d="M139.28,34.62V33.1h1.65v1.52Zm0,7.07V35.46h1.65v6.22Z" style="fill:#010101"/><path d="M148.32,41.69h-1.53v-.91a2.47,2.47,0,0,1-.9.79,2.31,2.31,0,0,1-1,.26A2.37,2.37,0,0,1,143,41a3.52,3.52,0,0,1-.77-2.41,3.47,3.47,0,0,1,.74-2.41,2.43,2.43,0,0,1,1.88-.82,2.33,2.33,0,0,1,1.8.87V33.1h1.65Zm-4.39-3.25a2.85,2.85,0,0,0,.28,1.44,1.24,1.24,0,0,0,1.11.64,1.21,1.21,0,0,0,1-.48,2.23,2.23,0,0,0,.4-1.44,2.44,2.44,0,0,0-.39-1.54,1.27,1.27,0,0,0-2,0A2.1,2.1,0,0,0,143.92,38.44Z" style="fill:#010101"/><path d="M153.54,39.71l1.64.28a2.69,2.69,0,0,1-1,1.37,2.94,2.94,0,0,1-1.71.47,2.78,2.78,0,0,1-2.4-1.06,3.56,3.56,0,0,1-.62-2.14,3.44,3.44,0,0,1,.81-2.42,2.66,2.66,0,0,1,2-.88,2.76,2.76,0,0,1,2.19.92,4.06,4.06,0,0,1,.77,2.81h-4.12a1.67,1.67,0,0,0,.4,1.14,1.25,1.25,0,0,0,.95.41,1,1,0,0,0,.65-.21A1.3,1.3,0,0,0,153.54,39.71Zm.09-1.66a1.59,1.59,0,0,0-.37-1.09,1.19,1.19,0,0,0-1.75,0,1.52,1.52,0,0,0-.35,1.07Z" style="fill:#010101"/><path d="M161.18,41.69l-2.05-8.59h1.78L162.2,39l1.57-5.9h2.06l1.51,6,1.32-6h1.75l-2.09,8.59h-1.84l-1.71-6.42-1.71,6.42Z" style="fill:#010101"/><path d="M172.07,37.36l-1.49-.27a2.33,2.33,0,0,1,.87-1.34,3.17,3.17,0,0,1,1.83-.43,3.94,3.94,0,0,1,1.64.26,1.64,1.64,0,0,1,.76.66,3.4,3.4,0,0,1,.22,1.47l0,1.92a6.67,6.67,0,0,0,.08,1.21,3.53,3.53,0,0,0,.3.83h-1.63q-.06-.16-.16-.49L174.4,41a3,3,0,0,1-.9.62,2.58,2.58,0,0,1-1,.21A2.12,2.12,0,0,1,171,41.3a1.73,1.73,0,0,1-.55-1.32,1.77,1.77,0,0,1,.25-.94,1.65,1.65,0,0,1,.71-.63,5.52,5.52,0,0,1,1.31-.38,9,9,0,0,0,1.6-.4v-.16a.85.85,0,0,0-.23-.68,1.4,1.4,0,0,0-.88-.2,1.18,1.18,0,0,0-.69.17A1.2,1.2,0,0,0,172.07,37.36Zm2.2,1.34a10.29,10.29,0,0,1-1,.25,3,3,0,0,0-.9.29.69.69,0,0,0-.32.58.81.81,0,0,0,.26.6.9.9,0,0,0,.66.25,1.43,1.43,0,0,0,.85-.29,1,1,0,0,0,.39-.54,3.25,3.25,0,0,0,.06-.8Z" style="fill:#010101"/><path d="M179.07,41.69h-1.65V35.46h1.53v.88a2.66,2.66,0,0,1,.71-.83,1.3,1.3,0,0,1,.71-.2,2.09,2.09,0,0,1,1.08.31l-.51,1.44a1.44,1.44,0,0,0-.77-.27.91.91,0,0,0-.59.19,1.3,1.3,0,0,0-.38.69,9.8,9.8,0,0,0-.14,2.09Z" style="fill:#010101"/><path d="M187.82,41.69h-1.65V38.51a4.91,4.91,0,0,0-.11-1.3.92.92,0,0,0-.34-.46,1,1,0,0,0-.57-.16,1.32,1.32,0,0,0-.77.23,1.18,1.18,0,0,0-.47.62,5.38,5.38,0,0,0-.12,1.43v2.82h-1.65V35.46h1.53v.91a2.55,2.55,0,0,1,3-.86,1.67,1.67,0,0,1,.68.5,1.81,1.81,0,0,1,.32.69,5.13,5.13,0,0,1,.09,1.11Z" style="fill:#010101"/><path d="M189.49,34.62V33.1h1.65v1.52Zm0,7.07V35.46h1.65v6.22Z" style="fill:#010101"/><path d="M198.48,41.69h-1.65V38.51a4.91,4.91,0,0,0-.11-1.3.92.92,0,0,0-.34-.46,1,1,0,0,0-.57-.16,1.32,1.32,0,0,0-.77.23,1.18,1.18,0,0,0-.47.62,5.38,5.38,0,0,0-.12,1.43v2.82h-1.65V35.46h1.53v.91a2.55,2.55,0,0,1,3-.86,1.67,1.67,0,0,1,.68.5,1.81,1.81,0,0,1,.32.69,5.13,5.13,0,0,1,.09,1.11Z" style="fill:#010101"/><path d="M200,42.1l1.88.23a.64.64,0,0,0,.22.45,1.24,1.24,0,0,0,.74.18,1.92,1.92,0,0,0,1-.19.8.8,0,0,0,.33-.42,2.5,2.5,0,0,0,.08-.76v-.91a2.23,2.23,0,0,1-1.86,1,2.29,2.29,0,0,1-2-1.06,3.6,3.6,0,0,1-.57-2.09,3.43,3.43,0,0,1,.75-2.39,2.43,2.43,0,0,1,1.87-.83,2.28,2.28,0,0,1,1.9,1v-.87h1.54V41a5.56,5.56,0,0,1-.18,1.65,2,2,0,0,1-.51.86,2.26,2.26,0,0,1-.88.49,4.6,4.6,0,0,1-1.38.18,3.59,3.59,0,0,1-2.24-.54,1.7,1.7,0,0,1-.66-1.37Q200,42.21,200,42.1Zm1.47-3.65a2.24,2.24,0,0,0,.38,1.45,1.19,1.19,0,0,0,.95.46,1.31,1.31,0,0,0,1-.47,2.06,2.06,0,0,0,.42-1.4,2.18,2.18,0,0,0-.4-1.44,1.27,1.27,0,0,0-1-.47,1.22,1.22,0,0,0-1,.46A2.16,2.16,0,0,0,201.48,38.45Z" style="fill:#010101"/><path d="M4.62,64.69V56.1h5.89v1.45H6.35v2H9.94V61H6.35v3.65Z" style="fill:#010101"/><path d="M11.54,61.49a3.37,3.37,0,0,1,.4-1.59,2.78,2.78,0,0,1,1.15-1.17,3.4,3.4,0,0,1,1.66-.4,3.11,3.11,0,0,1,2.31.92,3.17,3.17,0,0,1,.9,2.32,3.21,3.21,0,0,1-.91,2.34,3.08,3.08,0,0,1-2.29.93,3.61,3.61,0,0,1-1.63-.39,2.65,2.65,0,0,1-1.18-1.13A3.78,3.78,0,0,1,11.54,61.49Zm1.69.09A2.06,2.06,0,0,0,13.67,63a1.44,1.44,0,0,0,2.17,0,2.09,2.09,0,0,0,.44-1.43,2.05,2.05,0,0,0-.44-1.41,1.44,1.44,0,0,0-2.17,0A2.06,2.06,0,0,0,13.23,61.58Z" style="fill:#010101"/><path d="M19.25,64.69V56.1H20.9v8.59Z" style="fill:#010101"/><path d="M22.59,64.69V56.1h1.65v8.59Z" style="fill:#010101"/><path d="M25.54,61.49a3.37,3.37,0,0,1,.4-1.59,2.78,2.78,0,0,1,1.15-1.17,3.4,3.4,0,0,1,1.66-.4,3.11,3.11,0,0,1,2.31.92,3.17,3.17,0,0,1,.9,2.32,3.21,3.21,0,0,1-.91,2.34,3.08,3.08,0,0,1-2.29.93,3.61,3.61,0,0,1-1.63-.39,2.65,2.65,0,0,1-1.18-1.13A3.78,3.78,0,0,1,25.54,61.49Zm1.69.09A2.06,2.06,0,0,0,27.67,63a1.44,1.44,0,0,0,2.17,0,2.09,2.09,0,0,0,.44-1.43,2.05,2.05,0,0,0-.44-1.41,1.44,1.44,0,0,0-2.17,0A2.06,2.06,0,0,0,27.23,61.58Z" style="fill:#010101"/><path d="M34.41,64.69l-2-6.22H34l1.17,4.08,1.07-4.08h1.59l1,4.08,1.19-4.08h1.62l-2,6.22H38.14l-1.07-4-1.05,4Z" style="fill:#010101"/><path d="M47.15,60.37l-1.49-.27a2.33,2.33,0,0,1,.87-1.34,3.17,3.17,0,0,1,1.83-.43,3.94,3.94,0,0,1,1.64.26,1.64,1.64,0,0,1,.76.66A3.4,3.4,0,0,1,51,60.72l0,1.92A6.67,6.67,0,0,0,51,63.85a3.53,3.53,0,0,0,.3.83H49.7q-.06-.16-.16-.49L49.48,64a3,3,0,0,1-.9.62,2.58,2.58,0,0,1-1,.21A2.12,2.12,0,0,1,46,64.31,1.73,1.73,0,0,1,45.49,63a1.77,1.77,0,0,1,.25-.94,1.65,1.65,0,0,1,.71-.63A5.52,5.52,0,0,1,47.75,61a9,9,0,0,0,1.6-.4v-.16a.85.85,0,0,0-.23-.68,1.4,1.4,0,0,0-.88-.2,1.18,1.18,0,0,0-.69.17A1.2,1.2,0,0,0,47.15,60.37Zm2.2,1.34a10.29,10.29,0,0,1-1,.25,3,3,0,0,0-.9.29.69.69,0,0,0-.32.58.81.81,0,0,0,.26.6.9.9,0,0,0,.66.25,1.43,1.43,0,0,0,.85-.29,1,1,0,0,0,.39-.54,3.25,3.25,0,0,0,.06-.8Z" style="fill:#010101"/><path d="M52.59,64.69V56.1h1.65v8.59Z" style="fill:#010101"/><path d="M55.93,64.69V56.1h1.65v8.59Z" style="fill:#010101"/><path d="M65.45,58.47v1.31H64.32v2.51a6.24,6.24,0,0,0,0,.89.36.36,0,0,0,.15.21.46.46,0,0,0,.28.08,2.13,2.13,0,0,0,.66-.16l.14,1.28a3.27,3.27,0,0,1-1.3.25,2.06,2.06,0,0,1-.8-.15,1.17,1.17,0,0,1-.52-.39,1.53,1.53,0,0,1-.23-.64,8,8,0,0,1-.05-1.16V59.78h-.76V58.47h.76V57.23l1.65-1v2.2Z" style="fill:#010101"/><path d="M68.23,56.1v3.16a2.47,2.47,0,0,1,2.93-.72,1.68,1.68,0,0,1,.69.54,2,2,0,0,1,.32.73A6.5,6.5,0,0,1,72.25,61v3.65H70.61V61.4a4.87,4.87,0,0,0-.09-1.24.82.82,0,0,0-.33-.42,1.06,1.06,0,0,0-.59-.16,1.36,1.36,0,0,0-.73.2,1.15,1.15,0,0,0-.47.6,3.59,3.59,0,0,0-.15,1.19v3.12H66.59V56.1Z" style="fill:#010101"/><path d="M77.53,62.71l1.64.28a2.69,2.69,0,0,1-1,1.37,2.93,2.93,0,0,1-1.71.47,2.78,2.78,0,0,1-2.4-1.06,3.56,3.56,0,0,1-.62-2.14,3.44,3.44,0,0,1,.81-2.42,2.66,2.66,0,0,1,2-.88,2.76,2.76,0,0,1,2.19.92,4.06,4.06,0,0,1,.77,2.81H75.13a1.67,1.67,0,0,0,.4,1.14,1.25,1.25,0,0,0,.95.41,1,1,0,0,0,.65-.21A1.3,1.3,0,0,0,77.53,62.71ZM77.62,61A1.59,1.59,0,0,0,77.25,60a1.19,1.19,0,0,0-1.75,0A1.52,1.52,0,0,0,75.16,61Z" style="fill:#010101"/><path d="M83.93,64.69V56.1h1.65v8.59Z" style="fill:#010101"/><path d="M86.88,61.49a3.37,3.37,0,0,1,.4-1.59,2.78,2.78,0,0,1,1.15-1.17,3.4,3.4,0,0,1,1.66-.4,3.11,3.11,0,0,1,2.31.92,3.17,3.17,0,0,1,.9,2.32,3.21,3.21,0,0,1-.91,2.34,3.08,3.08,0,0,1-2.29.93,3.61,3.61,0,0,1-1.63-.39,2.65,2.65,0,0,1-1.18-1.13A3.78,3.78,0,0,1,86.88,61.49Zm1.69.09A2.06,2.06,0,0,0,89,63a1.44,1.44,0,0,0,2.17,0,2.09,2.09,0,0,0,.44-1.43,2.05,2.05,0,0,0-.44-1.41,1.44,1.44,0,0,0-2.17,0A2.06,2.06,0,0,0,88.57,61.58Z" style="fill:#010101"/><path d="M100,60.31l-1.62.29a1.18,1.18,0,0,0-.37-.73,1.12,1.12,0,0,0-.75-.25,1.23,1.23,0,0,0-1,.42,2.18,2.18,0,0,0-.37,1.42A2.52,2.52,0,0,0,96.3,63a1.22,1.22,0,0,0,1,.46,1.11,1.11,0,0,0,.77-.27,1.6,1.6,0,0,0,.42-.92l1.62.28a2.87,2.87,0,0,1-1,1.68,3,3,0,0,1-1.92.57A2.85,2.85,0,0,1,95,64a3.93,3.93,0,0,1,0-4.78,2.89,2.89,0,0,1,2.2-.86,3,3,0,0,1,1.81.49A2.71,2.71,0,0,1,100,60.31Z" style="fill:#010101"/><path d="M102.5,60.37,101,60.1a2.33,2.33,0,0,1,.87-1.34,3.17,3.17,0,0,1,1.83-.43,3.94,3.94,0,0,1,1.64.26,1.64,1.64,0,0,1,.76.66,3.4,3.4,0,0,1,.22,1.47l0,1.92a6.67,6.67,0,0,0,.08,1.21,3.53,3.53,0,0,0,.3.83H105q-.06-.16-.16-.49l-.06-.19a3,3,0,0,1-.9.62,2.58,2.58,0,0,1-1,.21,2.12,2.12,0,0,1-1.51-.52,1.73,1.73,0,0,1-.55-1.32,1.77,1.77,0,0,1,.25-.94,1.65,1.65,0,0,1,.71-.63A5.52,5.52,0,0,1,103.1,61a9,9,0,0,0,1.6-.4v-.16a.85.85,0,0,0-.23-.68,1.4,1.4,0,0,0-.88-.2,1.18,1.18,0,0,0-.69.17A1.2,1.2,0,0,0,102.5,60.37Zm2.2,1.34a10.29,10.29,0,0,1-1,.25,3,3,0,0,0-.9.29.69.69,0,0,0-.32.58.81.81,0,0,0,.26.6.9.9,0,0,0,.66.25,1.43,1.43,0,0,0,.85-.29,1,1,0,0,0,.39-.54,3.25,3.25,0,0,0,.06-.8Z" style="fill:#010101"/><path d="M107.94,64.69V56.1h1.65v8.59Z" style="fill:#010101"/><path d="M115.84,60.37l-1.49-.27a2.33,2.33,0,0,1,.87-1.34,3.17,3.17,0,0,1,1.83-.43,3.94,3.94,0,0,1,1.64.26,1.64,1.64,0,0,1,.76.66,3.4,3.4,0,0,1,.22,1.47l0,1.92a6.67,6.67,0,0,0,.08,1.21,3.53,3.53,0,0,0,.3.83h-1.63q-.06-.16-.16-.49l-.06-.19a3,3,0,0,1-.9.62,2.58,2.58,0,0,1-1,.21,2.12,2.12,0,0,1-1.51-.52,1.73,1.73,0,0,1-.55-1.32,1.77,1.77,0,0,1,.25-.94,1.65,1.65,0,0,1,.71-.63,5.52,5.52,0,0,1,1.31-.38,9,9,0,0,0,1.6-.4v-.16a.85.85,0,0,0-.23-.68,1.4,1.4,0,0,0-.88-.2,1.18,1.18,0,0,0-.69.17A1.2,1.2,0,0,0,115.84,60.37ZM118,61.7a10.29,10.29,0,0,1-1,.25,3,3,0,0,0-.9.29.69.69,0,0,0-.32.58.81.81,0,0,0,.26.6.9.9,0,0,0,.66.25,1.43,1.43,0,0,0,.85-.29,1,1,0,0,0,.39-.54A3.25,3.25,0,0,0,118,62Z" style="fill:#010101"/><path d="M126.94,64.69H125.3V61.51a4.91,4.91,0,0,0-.11-1.3.91.91,0,0,0-.34-.46,1,1,0,0,0-.57-.16,1.32,1.32,0,0,0-.77.23,1.18,1.18,0,0,0-.47.62,5.37,5.37,0,0,0-.13,1.43v2.82h-1.65V58.47h1.53v.91a2.55,2.55,0,0,1,3-.86,1.67,1.67,0,0,1,.68.5,1.81,1.81,0,0,1,.32.69,5.14,5.14,0,0,1,.09,1.11Z" style="fill:#010101"/><path d="M134.32,64.69h-1.53v-.91a2.47,2.47,0,0,1-.9.79,2.31,2.31,0,0,1-1,.26A2.37,2.37,0,0,1,129,64a3.52,3.52,0,0,1-.76-2.41,3.47,3.47,0,0,1,.74-2.41,2.43,2.43,0,0,1,1.88-.82,2.33,2.33,0,0,1,1.8.87V56.1h1.65Zm-4.39-3.25a2.85,2.85,0,0,0,.28,1.44,1.24,1.24,0,0,0,1.11.64,1.21,1.21,0,0,0,1-.48,2.23,2.23,0,0,0,.4-1.44,2.44,2.44,0,0,0-.39-1.54,1.22,1.22,0,0,0-1-.47,1.24,1.24,0,0,0-1,.47A2.1,2.1,0,0,0,129.93,61.44Z" style="fill:#010101"/><path d="M138.7,62.91l1.65-.25a1.21,1.21,0,0,0,.43.73,1.45,1.45,0,0,0,.9.25,1.63,1.63,0,0,0,1-.23.52.52,0,0,0,.22-.44.43.43,0,0,0-.12-.31,1.31,1.31,0,0,0-.55-.22,8.88,8.88,0,0,1-2.53-.8,1.6,1.6,0,0,1-.74-1.4,1.73,1.73,0,0,1,.64-1.36,3,3,0,0,1,2-.55,3.46,3.46,0,0,1,1.9.42A2.13,2.13,0,0,1,144.3,60l-1.55.29a1,1,0,0,0-.38-.56,1.38,1.38,0,0,0-.79-.19,1.79,1.79,0,0,0-.93.18.39.39,0,0,0-.19.33.36.36,0,0,0,.16.3,6.18,6.18,0,0,0,1.54.46,4.58,4.58,0,0,1,1.84.73,1.52,1.52,0,0,1,.52,1.22,1.88,1.88,0,0,1-.71,1.47,3.16,3.16,0,0,1-2.12.62,3.47,3.47,0,0,1-2-.52A2.38,2.38,0,0,1,138.7,62.91Z" style="fill:#010101"/><path d="M148.8,58.47v1.31h-1.12v2.51a6.24,6.24,0,0,0,0,.89.36.36,0,0,0,.15.21.46.46,0,0,0,.28.08,2.13,2.13,0,0,0,.66-.16l.14,1.28a3.27,3.27,0,0,1-1.3.25,2.06,2.06,0,0,1-.8-.15,1.17,1.17,0,0,1-.52-.39,1.53,1.53,0,0,1-.23-.64,8,8,0,0,1-.05-1.16V59.78h-.76V58.47H146V57.23l1.65-1v2.2Z" style="fill:#010101"/><path d="M151.18,60.37l-1.49-.27a2.33,2.33,0,0,1,.87-1.34,3.17,3.17,0,0,1,1.83-.43,3.94,3.94,0,0,1,1.64.26,1.64,1.64,0,0,1,.76.66,3.4,3.4,0,0,1,.22,1.47l0,1.92a6.67,6.67,0,0,0,.08,1.21,3.53,3.53,0,0,0,.3.83h-1.63q-.06-.16-.16-.49l-.06-.19a3,3,0,0,1-.9.62,2.58,2.58,0,0,1-1,.21,2.12,2.12,0,0,1-1.51-.52,1.73,1.73,0,0,1-.55-1.32,1.77,1.77,0,0,1,.25-.94,1.65,1.65,0,0,1,.71-.63,5.52,5.52,0,0,1,1.31-.38,9,9,0,0,0,1.6-.4v-.16a.85.85,0,0,0-.23-.68,1.4,1.4,0,0,0-.88-.2,1.18,1.18,0,0,0-.69.17A1.2,1.2,0,0,0,151.18,60.37Zm2.2,1.34a10.29,10.29,0,0,1-1,.25,3,3,0,0,0-.9.29.69.69,0,0,0-.32.58.81.81,0,0,0,.26.6.9.9,0,0,0,.66.25,1.43,1.43,0,0,0,.85-.29,1,1,0,0,0,.39-.54,3.25,3.25,0,0,0,.06-.8Z" style="fill:#010101"/><path d="M159.47,58.47v1.31h-1.12v2.51a6.24,6.24,0,0,0,0,.89.36.36,0,0,0,.15.21.46.46,0,0,0,.28.08,2.13,2.13,0,0,0,.66-.16l.14,1.28a3.27,3.27,0,0,1-1.3.25,2.06,2.06,0,0,1-.8-.15,1.17,1.17,0,0,1-.52-.39,1.53,1.53,0,0,1-.23-.64,8,8,0,0,1-.05-1.16V59.78h-.76V58.47h.76V57.23l1.65-1v2.2Z" style="fill:#010101"/><path d="M164.22,62.71l1.64.28a2.69,2.69,0,0,1-1,1.37,2.93,2.93,0,0,1-1.71.47,2.78,2.78,0,0,1-2.4-1.06,3.56,3.56,0,0,1-.62-2.14,3.44,3.44,0,0,1,.81-2.42,2.66,2.66,0,0,1,2-.88,2.76,2.76,0,0,1,2.19.92,4.06,4.06,0,0,1,.77,2.81h-4.12a1.67,1.67,0,0,0,.4,1.14,1.25,1.25,0,0,0,.95.41,1,1,0,0,0,.65-.21A1.3,1.3,0,0,0,164.22,62.71Zm.09-1.66a1.59,1.59,0,0,0-.37-1.09,1.19,1.19,0,0,0-1.75,0,1.52,1.52,0,0,0-.35,1.07Z" style="fill:#010101"/><path d="M176,60.31l-1.62.29a1.18,1.18,0,0,0-.37-.73,1.12,1.12,0,0,0-.75-.25,1.23,1.23,0,0,0-1,.42,2.18,2.18,0,0,0-.37,1.42A2.52,2.52,0,0,0,172.3,63a1.22,1.22,0,0,0,1,.46,1.11,1.11,0,0,0,.77-.27,1.6,1.6,0,0,0,.42-.92l1.62.28a2.87,2.87,0,0,1-1,1.68,3,3,0,0,1-1.92.57A2.85,2.85,0,0,1,171,64a3.93,3.93,0,0,1,0-4.78,2.89,2.89,0,0,1,2.2-.86,3,3,0,0,1,1.81.49A2.71,2.71,0,0,1,176,60.31Z" style="fill:#010101"/><path d="M176.89,61.49a3.37,3.37,0,0,1,.4-1.59,2.77,2.77,0,0,1,1.14-1.17,3.4,3.4,0,0,1,1.66-.4,3.11,3.11,0,0,1,2.31.92,3.17,3.17,0,0,1,.9,2.32,3.21,3.21,0,0,1-.91,2.34,3.08,3.08,0,0,1-2.29.93,3.62,3.62,0,0,1-1.63-.39,2.65,2.65,0,0,1-1.18-1.13A3.78,3.78,0,0,1,176.89,61.49Zm1.69.09A2.06,2.06,0,0,0,179,63a1.44,1.44,0,0,0,2.16,0,2.09,2.09,0,0,0,.44-1.43,2.05,2.05,0,0,0-.44-1.41,1.44,1.44,0,0,0-2.16,0A2.06,2.06,0,0,0,178.58,61.58Z" style="fill:#010101"/><path d="M190.31,64.69h-1.53v-.91a2.47,2.47,0,0,1-.9.79,2.3,2.3,0,0,1-1,.26A2.37,2.37,0,0,1,185,64a3.52,3.52,0,0,1-.76-2.41,3.47,3.47,0,0,1,.74-2.41,2.43,2.43,0,0,1,1.88-.82,2.33,2.33,0,0,1,1.8.87V56.1h1.65Zm-4.39-3.25a2.85,2.85,0,0,0,.28,1.44,1.24,1.24,0,0,0,1.11.64,1.21,1.21,0,0,0,1-.48,2.23,2.23,0,0,0,.4-1.44,2.44,2.44,0,0,0-.39-1.54,1.22,1.22,0,0,0-1-.47,1.24,1.24,0,0,0-1,.47A2.1,2.1,0,0,0,185.92,61.44Z" style="fill:#010101"/><path d="M195.54,62.71l1.64.28a2.69,2.69,0,0,1-1,1.37,2.93,2.93,0,0,1-1.71.47,2.78,2.78,0,0,1-2.4-1.06,3.56,3.56,0,0,1-.62-2.14,3.44,3.44,0,0,1,.81-2.42,2.66,2.66,0,0,1,2-.88,2.76,2.76,0,0,1,2.19.92,4.06,4.06,0,0,1,.77,2.81h-4.12a1.67,1.67,0,0,0,.4,1.14,1.25,1.25,0,0,0,.95.41,1,1,0,0,0,.65-.21A1.3,1.3,0,0,0,195.54,62.71Zm.09-1.66a1.59,1.59,0,0,0-.37-1.09,1.19,1.19,0,0,0-1.75,0,1.52,1.52,0,0,0-.35,1.07Z" style="fill:#010101"/><path d="M198,62.91l1.65-.25a1.21,1.21,0,0,0,.43.73,1.45,1.45,0,0,0,.9.25,1.63,1.63,0,0,0,1-.23.52.52,0,0,0,.22-.44.43.43,0,0,0-.12-.31,1.31,1.31,0,0,0-.55-.22,8.88,8.88,0,0,1-2.53-.8,1.6,1.6,0,0,1-.74-1.4,1.73,1.73,0,0,1,.64-1.36,3,3,0,0,1,2-.55,3.46,3.46,0,0,1,1.9.42,2.13,2.13,0,0,1,.86,1.23l-1.55.29a1,1,0,0,0-.38-.56,1.38,1.38,0,0,0-.79-.19,1.79,1.79,0,0,0-.93.18.39.39,0,0,0-.19.33.36.36,0,0,0,.16.3,6.16,6.16,0,0,0,1.54.46,4.58,4.58,0,0,1,1.84.73,1.52,1.52,0,0,1,.52,1.22,1.88,1.88,0,0,1-.71,1.47,3.16,3.16,0,0,1-2.12.62,3.47,3.47,0,0,1-2-.52A2.37,2.37,0,0,1,198,62.91Z" style="fill:#010101"/><path d="M208.24,61.49a3.37,3.37,0,0,1,.4-1.59,2.77,2.77,0,0,1,1.14-1.17,3.4,3.4,0,0,1,1.66-.4,3.11,3.11,0,0,1,2.31.92,3.17,3.17,0,0,1,.9,2.32,3.21,3.21,0,0,1-.91,2.34,3.08,3.08,0,0,1-2.29.93,3.62,3.62,0,0,1-1.63-.39,2.65,2.65,0,0,1-1.18-1.13A3.78,3.78,0,0,1,208.24,61.49Zm1.69.09a2.06,2.06,0,0,0,.44,1.42,1.44,1.44,0,0,0,2.16,0,2.09,2.09,0,0,0,.44-1.43,2.05,2.05,0,0,0-.44-1.41,1.44,1.44,0,0,0-2.16,0A2.06,2.06,0,0,0,209.92,61.58Z" style="fill:#010101"/><path d="M217.52,64.69h-1.65V58.47h1.53v.88a2.66,2.66,0,0,1,.71-.83,1.3,1.3,0,0,1,.71-.2,2.09,2.09,0,0,1,1.08.31l-.51,1.44a1.44,1.44,0,0,0-.77-.27A.91.91,0,0,0,218,60a1.3,1.3,0,0,0-.38.69,9.8,9.8,0,0,0-.14,2.09Z" style="fill:#010101"/><path d="M219.94,63h1.65v1.18a4.11,4.11,0,0,1-.12,1.13,1.69,1.69,0,0,1-.47.74,2.4,2.4,0,0,1-.87.52l-.32-.68a1.39,1.39,0,0,0,.71-.45,1.36,1.36,0,0,0,.22-.79h-.8Z" style="fill:#010101"/><path d="M226.65,57.62V56.1h1.65v1.52Zm0,7.07V58.47h1.65v6.22Z" style="fill:#010101"/><path d="M235.64,64.69H234V61.51a4.91,4.91,0,0,0-.11-1.3.92.92,0,0,0-.34-.46,1,1,0,0,0-.57-.16,1.32,1.32,0,0,0-.77.23,1.18,1.18,0,0,0-.47.62,5.38,5.38,0,0,0-.12,1.43v2.82H230V58.47h1.53v.91a2.55,2.55,0,0,1,3-.86,1.67,1.67,0,0,1,.68.5,1.81,1.81,0,0,1,.32.69,5.13,5.13,0,0,1,.09,1.11Z" style="fill:#010101"/><path d="M7.45,72.47v1.31H6.32v2.51a6.24,6.24,0,0,0,0,.89.36.36,0,0,0,.15.21.46.46,0,0,0,.28.08,2.13,2.13,0,0,0,.66-.16l.14,1.28a3.27,3.27,0,0,1-1.3.25,2.06,2.06,0,0,1-.8-.15A1.17,1.17,0,0,1,5,78.3a1.53,1.53,0,0,1-.23-.64,8,8,0,0,1-.05-1.16V73.78H3.91V72.47h.76V71.23l1.65-1v2.2Z" style="fill:#010101"/><path d="M10.23,70.1v3.16a2.47,2.47,0,0,1,2.93-.72,1.68,1.68,0,0,1,.69.54,2,2,0,0,1,.32.73A6.5,6.5,0,0,1,14.25,75v3.65H12.6V75.41a4.87,4.87,0,0,0-.09-1.24.82.82,0,0,0-.33-.42,1.06,1.06,0,0,0-.59-.16,1.36,1.36,0,0,0-.73.2,1.15,1.15,0,0,0-.47.6,3.59,3.59,0,0,0-.15,1.19v3.12H8.58V70.1Z" style="fill:#010101"/><path d="M19.52,76.71l1.64.28a2.69,2.69,0,0,1-1,1.37,2.93,2.93,0,0,1-1.71.47,2.78,2.78,0,0,1-2.4-1.06,3.56,3.56,0,0,1-.62-2.14,3.44,3.44,0,0,1,.81-2.42,2.66,2.66,0,0,1,2-.88,2.76,2.76,0,0,1,2.19.92,4.06,4.06,0,0,1,.77,2.81H17.13a1.67,1.67,0,0,0,.4,1.14,1.25,1.25,0,0,0,.95.41,1,1,0,0,0,.65-.21A1.3,1.3,0,0,0,19.52,76.71ZM19.62,75A1.59,1.59,0,0,0,19.25,74a1.19,1.19,0,0,0-1.75,0A1.52,1.52,0,0,0,17.16,75Z" style="fill:#010101"/><path d="M27.16,74.37l-1.49-.27a2.33,2.33,0,0,1,.87-1.34,3.17,3.17,0,0,1,1.83-.43,3.94,3.94,0,0,1,1.64.26,1.64,1.64,0,0,1,.76.66A3.4,3.4,0,0,1,31,74.73l0,1.92A6.67,6.67,0,0,0,31,77.86a3.53,3.53,0,0,0,.3.83H29.71q-.06-.16-.16-.49L29.49,78a3,3,0,0,1-.9.62,2.58,2.58,0,0,1-1,.21A2.12,2.12,0,0,1,26,78.31,1.73,1.73,0,0,1,25.49,77a1.77,1.77,0,0,1,.25-.94,1.65,1.65,0,0,1,.71-.63A5.52,5.52,0,0,1,27.76,75a9,9,0,0,0,1.6-.4v-.16a.85.85,0,0,0-.23-.68,1.4,1.4,0,0,0-.88-.2,1.18,1.18,0,0,0-.69.17A1.2,1.2,0,0,0,27.16,74.37Zm2.2,1.34a10.29,10.29,0,0,1-1,.25,3,3,0,0,0-.9.29.69.69,0,0,0-.32.58.81.81,0,0,0,.26.6.9.9,0,0,0,.66.25,1.43,1.43,0,0,0,.85-.29,1,1,0,0,0,.39-.54,3.25,3.25,0,0,0,.06-.8Z" style="fill:#010101"/><path d="M32.53,78.69V70.1h1.65V73.2a2.33,2.33,0,0,1,1.8-.87,2.43,2.43,0,0,1,1.88.82,3.41,3.41,0,0,1,.74,2.36A3.6,3.6,0,0,1,37.85,78a2.37,2.37,0,0,1-1.84.86A2.28,2.28,0,0,1,35,78.57a2.51,2.51,0,0,1-.89-.79v.91Zm1.63-3.25a2.65,2.65,0,0,0,.3,1.43,1.3,1.3,0,0,0,1.14.66,1.16,1.16,0,0,0,.93-.47,2.29,2.29,0,0,0,.38-1.47,2.43,2.43,0,0,0-.39-1.54,1.22,1.22,0,0,0-1-.47,1.24,1.24,0,0,0-1,.46A2.11,2.11,0,0,0,34.17,75.45Z" style="fill:#010101"/><path d="M39.35,76.92,41,76.67a1.21,1.21,0,0,0,.43.73,1.45,1.45,0,0,0,.9.25,1.63,1.63,0,0,0,1-.23.52.52,0,0,0,.22-.44.43.43,0,0,0-.12-.31,1.31,1.31,0,0,0-.55-.22,8.88,8.88,0,0,1-2.53-.8,1.6,1.6,0,0,1-.74-1.4,1.73,1.73,0,0,1,.64-1.36,3,3,0,0,1,2-.55,3.46,3.46,0,0,1,1.9.42A2.13,2.13,0,0,1,45,74l-1.55.29a1,1,0,0,0-.38-.56,1.38,1.38,0,0,0-.79-.19,1.79,1.79,0,0,0-.93.18.39.39,0,0,0-.19.33.36.36,0,0,0,.16.3,6.18,6.18,0,0,0,1.54.46,4.58,4.58,0,0,1,1.84.73,1.52,1.52,0,0,1,.52,1.22,1.88,1.88,0,0,1-.71,1.47,3.16,3.16,0,0,1-2.12.62,3.47,3.47,0,0,1-2-.52A2.38,2.38,0,0,1,39.35,76.92Z" style="fill:#010101"/><path d="M50.21,76.71l1.64.28a2.69,2.69,0,0,1-1,1.37,2.93,2.93,0,0,1-1.71.47,2.78,2.78,0,0,1-2.4-1.06,3.56,3.56,0,0,1-.62-2.14,3.44,3.44,0,0,1,.81-2.42,2.66,2.66,0,0,1,2-.88,2.76,2.76,0,0,1,2.19.92,4.06,4.06,0,0,1,.77,2.81H47.81a1.67,1.67,0,0,0,.4,1.14,1.25,1.25,0,0,0,.95.41,1,1,0,0,0,.65-.21A1.3,1.3,0,0,0,50.21,76.71ZM50.3,75A1.59,1.59,0,0,0,49.93,74a1.19,1.19,0,0,0-1.75,0A1.52,1.52,0,0,0,47.84,75Z" style="fill:#010101"/><path d="M58.94,78.69H57.29V75.52a4.91,4.91,0,0,0-.11-1.3.91.91,0,0,0-.34-.46,1,1,0,0,0-.57-.16,1.32,1.32,0,0,0-.77.23,1.18,1.18,0,0,0-.47.62,5.37,5.37,0,0,0-.13,1.43v2.82H53.27V72.47H54.8v.91a2.55,2.55,0,0,1,3-.86,1.67,1.67,0,0,1,.68.5,1.81,1.81,0,0,1,.32.69,5.14,5.14,0,0,1,.09,1.11Z" style="fill:#010101"/><path d="M66,74.31l-1.62.29a1.18,1.18,0,0,0-.37-.73,1.12,1.12,0,0,0-.75-.25,1.23,1.23,0,0,0-1,.42,2.18,2.18,0,0,0-.37,1.42A2.52,2.52,0,0,0,62.31,77a1.22,1.22,0,0,0,1,.46,1.11,1.11,0,0,0,.77-.27,1.6,1.6,0,0,0,.42-.92l1.62.28a2.87,2.87,0,0,1-1,1.68,3,3,0,0,1-1.92.57A2.85,2.85,0,0,1,61.06,78a3.93,3.93,0,0,1,0-4.78,2.89,2.89,0,0,1,2.2-.86,3,3,0,0,1,1.81.49A2.71,2.71,0,0,1,66,74.31Z" style="fill:#010101"/><path d="M70.89,76.71l1.64.28a2.69,2.69,0,0,1-1,1.37,2.93,2.93,0,0,1-1.71.47,2.78,2.78,0,0,1-2.4-1.06,3.56,3.56,0,0,1-.62-2.14,3.44,3.44,0,0,1,.81-2.42,2.66,2.66,0,0,1,2-.88,2.76,2.76,0,0,1,2.19.92,4.06,4.06,0,0,1,.77,2.81H68.49a1.67,1.67,0,0,0,.4,1.14,1.25,1.25,0,0,0,.95.41,1,1,0,0,0,.65-.21A1.3,1.3,0,0,0,70.89,76.71ZM71,75A1.59,1.59,0,0,0,70.61,74a1.19,1.19,0,0,0-1.75,0A1.52,1.52,0,0,0,68.52,75Z" style="fill:#010101"/><path d="M76.91,75.49a3.37,3.37,0,0,1,.4-1.59,2.78,2.78,0,0,1,1.15-1.17,3.4,3.4,0,0,1,1.66-.4,3.11,3.11,0,0,1,2.31.92,3.17,3.17,0,0,1,.9,2.32,3.21,3.21,0,0,1-.91,2.34,3.08,3.08,0,0,1-2.29.93,3.61,3.61,0,0,1-1.63-.39,2.65,2.65,0,0,1-1.18-1.13A3.78,3.78,0,0,1,76.91,75.49Zm1.69.09A2.06,2.06,0,0,0,79,77a1.44,1.44,0,0,0,2.17,0,2.09,2.09,0,0,0,.44-1.43,2.05,2.05,0,0,0-.44-1.41,1.44,1.44,0,0,0-2.17,0A2.06,2.06,0,0,0,78.6,75.58Z" style="fill:#010101"/><path d="M83.9,72.47h.91V72A3.11,3.11,0,0,1,85,70.83a1.32,1.32,0,0,1,.62-.63A2.36,2.36,0,0,1,86.73,70a4.58,4.58,0,0,1,1.38.21l-.22,1.15a3.25,3.25,0,0,0-.76-.09.67.67,0,0,0-.51.17,1,1,0,0,0-.16.64v.44h1.23v1.29H86.46v4.93H84.81V73.77H83.9Z" style="fill:#010101"/><path d="M92,78.69V70.1H93.6v8.59Z" style="fill:#010101"/><path d="M94.9,75.49a3.37,3.37,0,0,1,.4-1.59,2.78,2.78,0,0,1,1.15-1.17,3.4,3.4,0,0,1,1.66-.4,3.11,3.11,0,0,1,2.31.92,3.17,3.17,0,0,1,.9,2.32,3.21,3.21,0,0,1-.91,2.34,3.08,3.08,0,0,1-2.29.93,3.61,3.61,0,0,1-1.63-.39,2.65,2.65,0,0,1-1.18-1.13A3.78,3.78,0,0,1,94.9,75.49Zm1.69.09A2.06,2.06,0,0,0,97,77a1.44,1.44,0,0,0,2.17,0,2.09,2.09,0,0,0,.44-1.43,2.05,2.05,0,0,0-.44-1.41,1.44,1.44,0,0,0-2.17,0A2.06,2.06,0,0,0,96.59,75.58Z" style="fill:#010101"/><path d="M108,74.31l-1.62.29a1.18,1.18,0,0,0-.37-.73,1.12,1.12,0,0,0-.75-.25,1.23,1.23,0,0,0-1,.42,2.18,2.18,0,0,0-.37,1.42,2.52,2.52,0,0,0,.37,1.56,1.22,1.22,0,0,0,1,.46,1.11,1.11,0,0,0,.77-.27,1.6,1.6,0,0,0,.42-.92l1.62.28a2.87,2.87,0,0,1-1,1.68,3,3,0,0,1-1.92.57,2.85,2.85,0,0,1-2.18-.86,3.93,3.93,0,0,1,0-4.78,2.89,2.89,0,0,1,2.2-.86,3,3,0,0,1,1.81.49A2.71,2.71,0,0,1,108,74.31Z" style="fill:#010101"/><path d="M110.52,74.37,109,74.1a2.33,2.33,0,0,1,.87-1.34,3.17,3.17,0,0,1,1.83-.43,3.94,3.94,0,0,1,1.64.26,1.64,1.64,0,0,1,.76.66,3.4,3.4,0,0,1,.22,1.47l0,1.92a6.67,6.67,0,0,0,.08,1.21,3.53,3.53,0,0,0,.3.83h-1.63q-.06-.16-.16-.49l-.06-.19a3,3,0,0,1-.9.62,2.58,2.58,0,0,1-1,.21,2.12,2.12,0,0,1-1.51-.52,1.73,1.73,0,0,1-.55-1.32,1.77,1.77,0,0,1,.25-.94,1.65,1.65,0,0,1,.71-.63,5.52,5.52,0,0,1,1.31-.38,9,9,0,0,0,1.6-.4v-.16a.85.85,0,0,0-.23-.68,1.4,1.4,0,0,0-.88-.2,1.18,1.18,0,0,0-.69.17A1.2,1.2,0,0,0,110.52,74.37Zm2.2,1.34a10.29,10.29,0,0,1-1,.25,3,3,0,0,0-.9.29.69.69,0,0,0-.32.58.81.81,0,0,0,.26.6.9.9,0,0,0,.66.25,1.43,1.43,0,0,0,.85-.29,1,1,0,0,0,.39-.54,3.25,3.25,0,0,0,.06-.8Z" style="fill:#010101"/><path d="M116,78.69V70.1h1.65v8.59Z" style="fill:#010101"/><path d="M123.86,74.37l-1.49-.27a2.33,2.33,0,0,1,.87-1.34,3.17,3.17,0,0,1,1.83-.43,3.94,3.94,0,0,1,1.64.26,1.64,1.64,0,0,1,.76.66,3.4,3.4,0,0,1,.22,1.47l0,1.92a6.67,6.67,0,0,0,.08,1.21,3.53,3.53,0,0,0,.3.83h-1.63q-.06-.16-.16-.49l-.06-.19a3,3,0,0,1-.9.62,2.58,2.58,0,0,1-1,.21,2.12,2.12,0,0,1-1.51-.52A1.73,1.73,0,0,1,122.2,77a1.77,1.77,0,0,1,.25-.94,1.65,1.65,0,0,1,.71-.63,5.52,5.52,0,0,1,1.31-.38,9,9,0,0,0,1.6-.4v-.16a.85.85,0,0,0-.23-.68,1.4,1.4,0,0,0-.88-.2,1.18,1.18,0,0,0-.69.17A1.2,1.2,0,0,0,123.86,74.37Zm2.2,1.34a10.29,10.29,0,0,1-1,.25,3,3,0,0,0-.9.29.69.69,0,0,0-.32.58.81.81,0,0,0,.26.6.9.9,0,0,0,.66.25,1.43,1.43,0,0,0,.85-.29,1,1,0,0,0,.39-.54,3.25,3.25,0,0,0,.06-.8Z" style="fill:#010101"/><path d="M135,78.69h-1.65V75.52a4.91,4.91,0,0,0-.11-1.3.91.91,0,0,0-.34-.46,1,1,0,0,0-.57-.16,1.32,1.32,0,0,0-.77.23,1.18,1.18,0,0,0-.47.62,5.37,5.37,0,0,0-.13,1.43v2.82h-1.65V72.47h1.53v.91a2.55,2.55,0,0,1,3-.86,1.67,1.67,0,0,1,.68.5,1.81,1.81,0,0,1,.32.69,5.14,5.14,0,0,1,.09,1.11Z" style="fill:#010101"/><path d="M142.34,78.69h-1.53v-.91a2.47,2.47,0,0,1-.9.79,2.31,2.31,0,0,1-1,.26A2.37,2.37,0,0,1,137,78a3.52,3.52,0,0,1-.76-2.41,3.47,3.47,0,0,1,.74-2.41,2.43,2.43,0,0,1,1.88-.82,2.33,2.33,0,0,1,1.8.87V70.1h1.65Zm-4.39-3.25a2.85,2.85,0,0,0,.28,1.44,1.24,1.24,0,0,0,1.11.64,1.21,1.21,0,0,0,1-.48,2.23,2.23,0,0,0,.4-1.44,2.44,2.44,0,0,0-.39-1.54,1.22,1.22,0,0,0-1-.47,1.24,1.24,0,0,0-1,.47A2.1,2.1,0,0,0,137.95,75.45Z" style="fill:#010101"/><path d="M146.72,76.92l1.65-.25a1.21,1.21,0,0,0,.43.73,1.45,1.45,0,0,0,.9.25,1.63,1.63,0,0,0,1-.23.52.52,0,0,0,.22-.44.43.43,0,0,0-.12-.31,1.31,1.31,0,0,0-.55-.22,8.88,8.88,0,0,1-2.53-.8,1.6,1.6,0,0,1-.74-1.4,1.73,1.73,0,0,1,.64-1.36,3,3,0,0,1,2-.55,3.46,3.46,0,0,1,1.9.42,2.13,2.13,0,0,1,.86,1.23l-1.55.29a1,1,0,0,0-.38-.56,1.38,1.38,0,0,0-.79-.19,1.79,1.79,0,0,0-.93.18.39.39,0,0,0-.19.33.36.36,0,0,0,.16.3,6.18,6.18,0,0,0,1.54.46,4.58,4.58,0,0,1,1.84.73,1.52,1.52,0,0,1,.52,1.22,1.88,1.88,0,0,1-.71,1.47,3.16,3.16,0,0,1-2.12.62,3.47,3.47,0,0,1-2-.52A2.38,2.38,0,0,1,146.72,76.92Z" style="fill:#010101"/><path d="M156.83,72.47v1.31H155.7v2.51a6.24,6.24,0,0,0,0,.89.36.36,0,0,0,.15.21.46.46,0,0,0,.28.08,2.13,2.13,0,0,0,.66-.16l.14,1.28a3.27,3.27,0,0,1-1.3.25,2.06,2.06,0,0,1-.8-.15,1.17,1.17,0,0,1-.52-.39,1.53,1.53,0,0,1-.23-.64A8,8,0,0,1,154,76.5V73.78h-.76V72.47H154V71.23l1.65-1v2.2Z" style="fill:#010101"/><path d="M159.2,74.37l-1.49-.27a2.33,2.33,0,0,1,.87-1.34,3.17,3.17,0,0,1,1.83-.43,3.94,3.94,0,0,1,1.64.26,1.64,1.64,0,0,1,.76.66,3.4,3.4,0,0,1,.22,1.47l0,1.92a6.67,6.67,0,0,0,.08,1.21,3.53,3.53,0,0,0,.3.83h-1.63q-.06-.16-.16-.49l-.06-.19a3,3,0,0,1-.9.62,2.58,2.58,0,0,1-1,.21,2.12,2.12,0,0,1-1.51-.52,1.73,1.73,0,0,1-.55-1.32,1.77,1.77,0,0,1,.25-.94,1.65,1.65,0,0,1,.71-.63A5.52,5.52,0,0,1,159.8,75a9,9,0,0,0,1.6-.4v-.16a.85.85,0,0,0-.23-.68,1.4,1.4,0,0,0-.88-.2,1.18,1.18,0,0,0-.69.17A1.2,1.2,0,0,0,159.2,74.37Zm2.2,1.34a10.29,10.29,0,0,1-1,.25,3,3,0,0,0-.9.29.69.69,0,0,0-.32.58.81.81,0,0,0,.26.6.9.9,0,0,0,.66.25,1.43,1.43,0,0,0,.85-.29,1,1,0,0,0,.39-.54,3.25,3.25,0,0,0,.06-.8Z" style="fill:#010101"/><path d="M167.5,72.47v1.31h-1.12v2.51a6.24,6.24,0,0,0,0,.89.36.36,0,0,0,.15.21.46.46,0,0,0,.28.08,2.13,2.13,0,0,0,.66-.16l.14,1.28a3.27,3.27,0,0,1-1.3.25,2.06,2.06,0,0,1-.8-.15,1.17,1.17,0,0,1-.52-.39,1.53,1.53,0,0,1-.23-.64,8,8,0,0,1-.05-1.16V73.78H164V72.47h.76V71.23l1.65-1v2.2Z" style="fill:#010101"/><path d="M172.23,76.71l1.64.28a2.69,2.69,0,0,1-1,1.37,2.93,2.93,0,0,1-1.71.47,2.78,2.78,0,0,1-2.4-1.06,3.56,3.56,0,0,1-.62-2.14,3.44,3.44,0,0,1,.81-2.42,2.66,2.66,0,0,1,2-.88,2.76,2.76,0,0,1,2.19.92,4.06,4.06,0,0,1,.77,2.81h-4.12a1.67,1.67,0,0,0,.4,1.14,1.25,1.25,0,0,0,.95.41,1,1,0,0,0,.65-.21A1.3,1.3,0,0,0,172.23,76.71Zm.09-1.66A1.59,1.59,0,0,0,172,74a1.19,1.19,0,0,0-1.75,0,1.52,1.52,0,0,0-.35,1.07Z" style="fill:#010101"/><path d="M184.06,74.31l-1.62.29a1.18,1.18,0,0,0-.37-.73,1.12,1.12,0,0,0-.75-.25,1.23,1.23,0,0,0-1,.42,2.18,2.18,0,0,0-.37,1.42,2.52,2.52,0,0,0,.37,1.56,1.22,1.22,0,0,0,1,.46,1.11,1.11,0,0,0,.77-.27,1.6,1.6,0,0,0,.42-.92l1.62.28a2.87,2.87,0,0,1-1,1.68,3,3,0,0,1-1.92.57,2.85,2.85,0,0,1-2.18-.86,3.93,3.93,0,0,1,0-4.78,2.89,2.89,0,0,1,2.2-.86,3,3,0,0,1,1.81.49A2.71,2.71,0,0,1,184.06,74.31Z" style="fill:#010101"/><path d="M184.93,75.49a3.37,3.37,0,0,1,.4-1.59,2.77,2.77,0,0,1,1.14-1.17,3.4,3.4,0,0,1,1.66-.4,3.11,3.11,0,0,1,2.31.92,3.17,3.17,0,0,1,.9,2.32,3.21,3.21,0,0,1-.91,2.34,3.08,3.08,0,0,1-2.29.93,3.62,3.62,0,0,1-1.63-.39,2.65,2.65,0,0,1-1.18-1.13A3.78,3.78,0,0,1,184.93,75.49Zm1.69.09a2.06,2.06,0,0,0,.44,1.42,1.44,1.44,0,0,0,2.16,0,2.09,2.09,0,0,0,.44-1.43,2.05,2.05,0,0,0-.44-1.41,1.44,1.44,0,0,0-2.16,0A2.06,2.06,0,0,0,186.62,75.58Z" style="fill:#010101"/><path d="M198.35,78.69h-1.53v-.91a2.47,2.47,0,0,1-.9.79,2.3,2.3,0,0,1-1,.26A2.37,2.37,0,0,1,193,78a3.52,3.52,0,0,1-.76-2.41,3.47,3.47,0,0,1,.74-2.41,2.43,2.43,0,0,1,1.88-.82,2.33,2.33,0,0,1,1.8.87V70.1h1.65ZM194,75.45a2.85,2.85,0,0,0,.28,1.44,1.24,1.24,0,0,0,1.11.64,1.21,1.21,0,0,0,1-.48,2.23,2.23,0,0,0,.4-1.44,2.44,2.44,0,0,0-.39-1.54,1.22,1.22,0,0,0-1-.47,1.24,1.24,0,0,0-1,.47A2.1,2.1,0,0,0,194,75.45Z" style="fill:#010101"/><path d="M203.57,76.71l1.64.28a2.69,2.69,0,0,1-1,1.37,2.93,2.93,0,0,1-1.71.47,2.78,2.78,0,0,1-2.4-1.06,3.56,3.56,0,0,1-.62-2.14,3.44,3.44,0,0,1,.81-2.42,2.66,2.66,0,0,1,2-.88,2.76,2.76,0,0,1,2.19.92,4.06,4.06,0,0,1,.77,2.81h-4.12a1.67,1.67,0,0,0,.4,1.14,1.25,1.25,0,0,0,.95.41,1,1,0,0,0,.65-.21A1.3,1.3,0,0,0,203.57,76.71Zm.09-1.66A1.59,1.59,0,0,0,203.3,74a1.19,1.19,0,0,0-1.75,0,1.52,1.52,0,0,0-.35,1.07Z" style="fill:#010101"/><path d="M206.06,76.92l1.65-.25a1.21,1.21,0,0,0,.43.73,1.45,1.45,0,0,0,.9.25,1.63,1.63,0,0,0,1-.23.52.52,0,0,0,.22-.44.43.43,0,0,0-.12-.31,1.31,1.31,0,0,0-.55-.22,8.88,8.88,0,0,1-2.53-.8,1.6,1.6,0,0,1-.74-1.4,1.73,1.73,0,0,1,.64-1.36,3,3,0,0,1,2-.55,3.46,3.46,0,0,1,1.9.42,2.13,2.13,0,0,1,.86,1.23l-1.55.29a1,1,0,0,0-.38-.56,1.38,1.38,0,0,0-.79-.19,1.79,1.79,0,0,0-.93.18.39.39,0,0,0-.19.33.36.36,0,0,0,.16.3,6.16,6.16,0,0,0,1.54.46,4.58,4.58,0,0,1,1.84.73,1.52,1.52,0,0,1,.52,1.22,1.88,1.88,0,0,1-.71,1.47,3.16,3.16,0,0,1-2.12.62,3.47,3.47,0,0,1-2-.52A2.37,2.37,0,0,1,206.06,76.92Z" style="fill:#010101"/><path d="M213.28,77h1.65v1.18a4.11,4.11,0,0,1-.12,1.13,1.69,1.69,0,0,1-.47.74,2.4,2.4,0,0,1-.87.52l-.32-.68a1.39,1.39,0,0,0,.71-.45,1.36,1.36,0,0,0,.22-.79h-.8Z" style="fill:#010101"/><path d="M222.84,72.47v1.31h-1.12v2.51a6.32,6.32,0,0,0,0,.89.36.36,0,0,0,.15.21.47.47,0,0,0,.28.08,2.13,2.13,0,0,0,.66-.16l.14,1.28a3.27,3.27,0,0,1-1.3.25,2.06,2.06,0,0,1-.8-.15,1.17,1.17,0,0,1-.53-.39,1.53,1.53,0,0,1-.23-.64,8,8,0,0,1-.05-1.16V73.78h-.76V72.47h.76V71.23l1.65-1v2.2Z" style="fill:#010101"/><path d="M225.62,70.1v3.16a2.47,2.47,0,0,1,2.93-.72,1.67,1.67,0,0,1,.69.54,2,2,0,0,1,.32.73,6.48,6.48,0,0,1,.09,1.24v3.65H228V75.41a4.87,4.87,0,0,0-.09-1.24.82.82,0,0,0-.33-.42,1.06,1.06,0,0,0-.59-.16,1.36,1.36,0,0,0-.73.2,1.15,1.15,0,0,0-.47.6,3.59,3.59,0,0,0-.15,1.19v3.12H224V70.1Z" style="fill:#010101"/><path d="M234.91,76.71l1.64.28a2.69,2.69,0,0,1-1,1.37,2.93,2.93,0,0,1-1.71.47,2.78,2.78,0,0,1-2.4-1.06,3.56,3.56,0,0,1-.62-2.14,3.44,3.44,0,0,1,.81-2.42,2.66,2.66,0,0,1,2-.88,2.76,2.76,0,0,1,2.19.92,4.06,4.06,0,0,1,.77,2.81h-4.12a1.67,1.67,0,0,0,.4,1.14,1.25,1.25,0,0,0,.95.41,1,1,0,0,0,.65-.21A1.3,1.3,0,0,0,234.91,76.71ZM235,75a1.59,1.59,0,0,0-.37-1.09,1.19,1.19,0,0,0-1.75,0,1.52,1.52,0,0,0-.35,1.07Z" style="fill:#010101"/><path d="M6.15,87.59H4.51V86.41a4,4,0,0,1,.13-1.13,1.72,1.72,0,0,1,.47-.74A2.37,2.37,0,0,1,6,84l.32.68a1.38,1.38,0,0,0-.71.46,1.35,1.35,0,0,0-.23.78h.8Zm2.75,0H7.25V86.41a4,4,0,0,1,.13-1.13,1.71,1.71,0,0,1,.47-.74A2.41,2.41,0,0,1,8.71,84l.32.68a1.38,1.38,0,0,0-.71.46,1.35,1.35,0,0,0-.23.78h.8Z" style="fill:#010101"/><path d="M10.62,92.7V84.11h1.69l3.52,5.74V84.11h1.61V92.7H15.7l-3.46-5.6v5.6Z" style="fill:#010101"/><path d="M20.49,88.37,19,88.1a2.33,2.33,0,0,1,.87-1.34,3.17,3.17,0,0,1,1.83-.43,3.94,3.94,0,0,1,1.64.26,1.64,1.64,0,0,1,.76.66,3.4,3.4,0,0,1,.22,1.47l0,1.92a6.67,6.67,0,0,0,.08,1.21,3.53,3.53,0,0,0,.3.83H23q-.06-.16-.16-.49L22.82,92a3,3,0,0,1-.9.62,2.58,2.58,0,0,1-1,.21,2.12,2.12,0,0,1-1.51-.52A1.73,1.73,0,0,1,18.83,91a1.77,1.77,0,0,1,.25-.94,1.65,1.65,0,0,1,.71-.63A5.52,5.52,0,0,1,21.09,89a9,9,0,0,0,1.6-.4v-.16a.85.85,0,0,0-.23-.68,1.4,1.4,0,0,0-.88-.2,1.18,1.18,0,0,0-.69.17A1.2,1.2,0,0,0,20.49,88.37Zm2.2,1.34a10.29,10.29,0,0,1-1,.25,3,3,0,0,0-.9.29.69.69,0,0,0-.32.58.81.81,0,0,0,.26.6.9.9,0,0,0,.66.25,1.43,1.43,0,0,0,.85-.29,1,1,0,0,0,.39-.54,3.25,3.25,0,0,0,.06-.8Z" style="fill:#010101"/><path d="M28.79,86.47v1.31H27.66v2.51a6.24,6.24,0,0,0,0,.89.36.36,0,0,0,.15.21.46.46,0,0,0,.28.08,2.13,2.13,0,0,0,.66-.16l.14,1.28a3.27,3.27,0,0,1-1.3.25,2.06,2.06,0,0,1-.8-.15,1.17,1.17,0,0,1-.52-.39,1.53,1.53,0,0,1-.23-.64A8,8,0,0,1,26,90.5V87.79h-.76V86.47H26V85.24l1.65-1v2.2Z" style="fill:#010101"/><path d="M29.93,85.63V84.11h1.65v1.52Zm0,7.07V86.47h1.65V92.7Z" style="fill:#010101"/><path d="M32.88,89.5a3.37,3.37,0,0,1,.4-1.59,2.78,2.78,0,0,1,1.15-1.17,3.4,3.4,0,0,1,1.66-.4,3.11,3.11,0,0,1,2.31.92,3.17,3.17,0,0,1,.9,2.32,3.21,3.21,0,0,1-.91,2.34,3.08,3.08,0,0,1-2.29.93,3.61,3.61,0,0,1-1.63-.39,2.65,2.65,0,0,1-1.18-1.13A3.78,3.78,0,0,1,32.88,89.5Zm1.69.09A2.06,2.06,0,0,0,35,91a1.44,1.44,0,0,0,2.17,0,2.09,2.09,0,0,0,.44-1.43,2.05,2.05,0,0,0-.44-1.41,1.44,1.44,0,0,0-2.17,0A2.06,2.06,0,0,0,34.57,89.59Z" style="fill:#010101"/><path d="M46.25,92.7H44.61V89.52a4.91,4.91,0,0,0-.11-1.3.91.91,0,0,0-.34-.46,1,1,0,0,0-.57-.16,1.32,1.32,0,0,0-.77.23,1.18,1.18,0,0,0-.47.62,5.37,5.37,0,0,0-.13,1.43V92.7H40.58V86.47h1.53v.91a2.55,2.55,0,0,1,3-.86,1.67,1.67,0,0,1,.68.5,1.81,1.81,0,0,1,.32.69,5.14,5.14,0,0,1,.09,1.11Z" style="fill:#010101"/><path d="M49.15,88.37l-1.49-.27a2.33,2.33,0,0,1,.87-1.34,3.17,3.17,0,0,1,1.83-.43,3.94,3.94,0,0,1,1.64.26,1.64,1.64,0,0,1,.76.66A3.4,3.4,0,0,1,53,88.73l0,1.92A6.67,6.67,0,0,0,53,91.86a3.53,3.53,0,0,0,.3.83H51.7q-.06-.16-.16-.49L51.49,92a3,3,0,0,1-.9.62,2.58,2.58,0,0,1-1,.21A2.12,2.12,0,0,1,48,92.32,1.73,1.73,0,0,1,47.49,91a1.77,1.77,0,0,1,.25-.94,1.65,1.65,0,0,1,.71-.63A5.52,5.52,0,0,1,49.76,89a9,9,0,0,0,1.6-.4v-.16a.85.85,0,0,0-.23-.68,1.4,1.4,0,0,0-.88-.2,1.18,1.18,0,0,0-.69.17A1.2,1.2,0,0,0,49.15,88.37Zm2.2,1.34a10.29,10.29,0,0,1-1,.25,3,3,0,0,0-.9.29.69.69,0,0,0-.32.58.81.81,0,0,0,.26.6.9.9,0,0,0,.66.25,1.43,1.43,0,0,0,.85-.29,1,1,0,0,0,.39-.54,3.25,3.25,0,0,0,.06-.8Z" style="fill:#010101"/><path d="M54.6,92.7V84.11h1.65V92.7Z" style="fill:#010101"/><path d="M61.29,92.7V84.11h5.89v1.45H63v2h3.59V89H63V92.7Z" style="fill:#010101"/><path d="M72.69,92.7v-.93a2.4,2.4,0,0,1-.89.79,2.5,2.5,0,0,1-1.17.29,2.29,2.29,0,0,1-1.12-.28,1.63,1.63,0,0,1-.72-.77,3.45,3.45,0,0,1-.22-1.38V86.47h1.65v2.86a7.93,7.93,0,0,0,.09,1.61.88.88,0,0,0,.33.47,1,1,0,0,0,.61.17,1.3,1.3,0,0,0,.76-.23,1.18,1.18,0,0,0,.46-.57,6.67,6.67,0,0,0,.12-1.68V86.47h1.65V92.7Z" style="fill:#010101"/><path d="M79.53,90.72l1.64.28a2.69,2.69,0,0,1-1,1.37,2.93,2.93,0,0,1-1.71.47,2.78,2.78,0,0,1-2.4-1.06,3.56,3.56,0,0,1-.62-2.14,3.44,3.44,0,0,1,.81-2.42,2.66,2.66,0,0,1,2-.88,2.76,2.76,0,0,1,2.19.92,4.06,4.06,0,0,1,.77,2.81H77.13a1.67,1.67,0,0,0,.4,1.14,1.25,1.25,0,0,0,.95.41,1,1,0,0,0,.65-.21A1.3,1.3,0,0,0,79.53,90.72Zm.09-1.66A1.59,1.59,0,0,0,79.25,88a1.19,1.19,0,0,0-1.75,0,1.52,1.52,0,0,0-.35,1.07Z" style="fill:#010101"/><path d="M82.6,92.7V84.11h1.65V92.7Z" style="fill:#010101"/><path d="M93.28,89.54V88.09H97v3.42a4.71,4.71,0,0,1-1.58.93,5.75,5.75,0,0,1-2.09.4A4.7,4.7,0,0,1,91,92.28a3.6,3.6,0,0,1-1.51-1.62,5.23,5.23,0,0,1-.5-2.29A4.94,4.94,0,0,1,89.54,86a3.79,3.79,0,0,1,1.65-1.6A4.44,4.44,0,0,1,93.25,84a4.1,4.1,0,0,1,2.5.67,3,3,0,0,1,1.16,1.85l-1.72.32a1.82,1.82,0,0,0-.68-1,2.06,2.06,0,0,0-1.25-.37,2.35,2.35,0,0,0-1.81.72,3,3,0,0,0-.67,2.14,3.36,3.36,0,0,0,.68,2.29,2.27,2.27,0,0,0,1.78.76,3,3,0,0,0,1.09-.21,3.74,3.74,0,0,0,.94-.52V89.54Z" style="fill:#010101"/><path d="M99.83,88.37l-1.49-.27a2.33,2.33,0,0,1,.87-1.34,3.17,3.17,0,0,1,1.83-.43,3.94,3.94,0,0,1,1.64.26,1.64,1.64,0,0,1,.76.66,3.4,3.4,0,0,1,.22,1.47l0,1.92a6.67,6.67,0,0,0,.08,1.21,3.53,3.53,0,0,0,.3.83h-1.63q-.06-.16-.16-.49l-.06-.19a3,3,0,0,1-.9.62,2.58,2.58,0,0,1-1,.21,2.12,2.12,0,0,1-1.51-.52A1.73,1.73,0,0,1,98.17,91a1.77,1.77,0,0,1,.25-.94,1.65,1.65,0,0,1,.71-.63,5.52,5.52,0,0,1,1.31-.38,9,9,0,0,0,1.6-.4v-.16a.85.85,0,0,0-.23-.68,1.4,1.4,0,0,0-.88-.2,1.18,1.18,0,0,0-.69.17A1.2,1.2,0,0,0,99.83,88.37Zm2.2,1.34a10.29,10.29,0,0,1-1,.25,3,3,0,0,0-.9.29.69.69,0,0,0-.32.58.81.81,0,0,0,.26.6.9.9,0,0,0,.66.25,1.43,1.43,0,0,0,.85-.29,1,1,0,0,0,.39-.54A3.25,3.25,0,0,0,102,90Z" style="fill:#010101"/><path d="M104.7,90.92l1.65-.25a1.21,1.21,0,0,0,.43.73,1.45,1.45,0,0,0,.9.25,1.63,1.63,0,0,0,1-.23.52.52,0,0,0,.22-.44.43.43,0,0,0-.12-.31,1.31,1.31,0,0,0-.55-.22,8.88,8.88,0,0,1-2.53-.8,1.6,1.6,0,0,1-.74-1.4,1.73,1.73,0,0,1,.64-1.36,3,3,0,0,1,2-.55,3.46,3.46,0,0,1,1.9.42A2.13,2.13,0,0,1,110.3,88l-1.55.29a1,1,0,0,0-.38-.56,1.38,1.38,0,0,0-.79-.19,1.79,1.79,0,0,0-.93.18.39.39,0,0,0-.19.33.36.36,0,0,0,.16.3,6.18,6.18,0,0,0,1.54.46,4.58,4.58,0,0,1,1.84.73,1.52,1.52,0,0,1,.52,1.22,1.88,1.88,0,0,1-.71,1.47,3.16,3.16,0,0,1-2.12.62,3.47,3.47,0,0,1-2-.52A2.38,2.38,0,0,1,104.7,90.92Z" style="fill:#010101"/><path d="M120.79,89.54l1.68.53a3.77,3.77,0,0,1-1.29,2.09,4,4,0,0,1-5.09-.49,4.47,4.47,0,0,1-1.1-3.2,4.7,4.7,0,0,1,1.11-3.33A3.8,3.8,0,0,1,119,84a3.57,3.57,0,0,1,2.56.93,3.39,3.39,0,0,1,.88,1.58l-1.72.41a1.77,1.77,0,0,0-1.81-1.44,2,2,0,0,0-1.55.69,3.36,3.36,0,0,0-.59,2.22,3.6,3.6,0,0,0,.59,2.32,1.9,1.9,0,0,0,1.52.69,1.74,1.74,0,0,0,1.19-.44A2.55,2.55,0,0,0,120.79,89.54Z" style="fill:#010101"/><path d="M123.57,89.5a3.37,3.37,0,0,1,.4-1.59,2.78,2.78,0,0,1,1.15-1.17,3.4,3.4,0,0,1,1.66-.4,3.11,3.11,0,0,1,2.31.92,3.17,3.17,0,0,1,.9,2.32,3.21,3.21,0,0,1-.91,2.34,3.08,3.08,0,0,1-2.29.93,3.61,3.61,0,0,1-1.63-.39A2.65,2.65,0,0,1,124,91.32,3.78,3.78,0,0,1,123.57,89.5Zm1.69.09A2.06,2.06,0,0,0,125.7,91a1.44,1.44,0,0,0,2.17,0,2.09,2.09,0,0,0,.44-1.43,2.05,2.05,0,0,0-.44-1.41,1.44,1.44,0,0,0-2.17,0A2.06,2.06,0,0,0,125.26,89.59Z" style="fill:#010101"/><path d="M137,92.7h-1.53v-.91a2.47,2.47,0,0,1-.9.79,2.31,2.31,0,0,1-1,.26,2.37,2.37,0,0,1-1.84-.86,3.52,3.52,0,0,1-.76-2.41,3.47,3.47,0,0,1,.74-2.41,2.43,2.43,0,0,1,1.88-.82,2.33,2.33,0,0,1,1.8.87V84.11H137Zm-4.39-3.25a2.85,2.85,0,0,0,.28,1.44,1.24,1.24,0,0,0,1.11.64,1.21,1.21,0,0,0,1-.48,2.23,2.23,0,0,0,.4-1.44,2.44,2.44,0,0,0-.39-1.54,1.22,1.22,0,0,0-1-.47,1.24,1.24,0,0,0-1,.47A2.1,2.1,0,0,0,132.59,89.45Z" style="fill:#010101"/><path d="M142.21,90.72l1.64.28a2.69,2.69,0,0,1-1,1.37,2.93,2.93,0,0,1-1.71.47,2.78,2.78,0,0,1-2.4-1.06,3.56,3.56,0,0,1-.62-2.14,3.44,3.44,0,0,1,.81-2.42,2.66,2.66,0,0,1,2-.88,2.76,2.76,0,0,1,2.19.92,4.06,4.06,0,0,1,.77,2.81h-4.12a1.67,1.67,0,0,0,.4,1.14,1.25,1.25,0,0,0,.95.41,1,1,0,0,0,.65-.21A1.3,1.3,0,0,0,142.21,90.72Zm.09-1.66a1.59,1.59,0,0,0-.37-1.09,1.19,1.19,0,0,0-1.75,0,1.52,1.52,0,0,0-.35,1.07Z" style="fill:#010101"/><path d="M145.17,84.11h1.65v1.18a4.07,4.07,0,0,1-.12,1.13,1.71,1.71,0,0,1-.47.74,2.38,2.38,0,0,1-.87.52L145,87a1.17,1.17,0,0,0,.93-1.24h-.8Zm2.77,0h1.65v1.18a4,4,0,0,1-.13,1.13,1.73,1.73,0,0,1-.47.74,2.39,2.39,0,0,1-.86.52L147.8,87a1.38,1.38,0,0,0,.71-.46,1.32,1.32,0,0,0,.22-.78h-.79Z" style="fill:#010101"/><path d="M151.24,91.05h1.65v1.18a4.11,4.11,0,0,1-.12,1.13,1.68,1.68,0,0,1-.47.74,2.4,2.4,0,0,1-.87.52l-.32-.68a1.39,1.39,0,0,0,.71-.45,1.36,1.36,0,0,0,.22-.79h-.8Z" style="fill:#010101"/><path d="M165.71,92.7h-1.89l-.75-2h-3.43l-.71,2h-1.84l3.35-8.59h1.83Zm-3.19-3.4-1.18-3.19-1.16,3.19Z" style="fill:#010101"/><path d="M166.65,92.7V84.11h1.69l3.52,5.74V84.11h1.61V92.7h-1.74l-3.46-5.6v5.6Z" style="fill:#010101"/><path d="M174.84,89.9l1.69-.16a2.06,2.06,0,0,0,.62,1.25,1.87,1.87,0,0,0,1.26.4,1.93,1.93,0,0,0,1.26-.35,1.06,1.06,0,0,0,.43-.83.78.78,0,0,0-.18-.52,1.42,1.42,0,0,0-.62-.37q-.3-.11-1.39-.37a4.71,4.71,0,0,1-2-.85,2.24,2.24,0,0,1-.79-1.73,2.21,2.21,0,0,1,.37-1.23,2.33,2.33,0,0,1,1.07-.87,4.3,4.3,0,0,1,1.69-.3,3.62,3.62,0,0,1,2.43.71,2.5,2.5,0,0,1,.86,1.89l-1.73.08a1.47,1.47,0,0,0-.48-1,1.75,1.75,0,0,0-1.1-.29,2,2,0,0,0-1.18.31.63.63,0,0,0-.28.53.66.66,0,0,0,.26.52,4.56,4.56,0,0,0,1.59.57,8.4,8.4,0,0,1,1.87.62,2.41,2.41,0,0,1,.95.87,2.7,2.7,0,0,1-.07,2.75,2.46,2.46,0,0,1-1.16,1,4.87,4.87,0,0,1-1.87.31,3.72,3.72,0,0,1-2.5-.75A3.28,3.28,0,0,1,174.84,89.9Z" style="fill:#010101"/><path d="M183.23,92.7V84.11H185V92.7Z" style="fill:#010101"/><path d="M189.21,92.7V91.13l4.51-5.57h-4V84.11H196v1.35l-4.71,5.79h4.89V92.7Z" style="fill:#010101"/><path d="M202.48,91.17V92.7h-5.77a4,4,0,0,1,.56-1.64A10.94,10.94,0,0,1,199.13,89a11.65,11.65,0,0,0,1.37-1.41,1.81,1.81,0,0,0,.34-1,1.15,1.15,0,0,0-.3-.85,1.26,1.26,0,0,0-1.64,0,1.59,1.59,0,0,0-.35,1l-1.64-.16a2.69,2.69,0,0,1,.92-2,3.09,3.09,0,0,1,1.93-.59,2.79,2.79,0,0,1,2,.69,2.25,2.25,0,0,1,.73,1.71,3,3,0,0,1-.21,1.1,4.49,4.49,0,0,1-.66,1.1,10.55,10.55,0,0,1-1.08,1.1q-.78.71-1,.95a2.83,2.83,0,0,0-.34.46Z" style="fill:#010101"/><path d="M209.16,91.17V92.7h-5.77a4,4,0,0,1,.56-1.64A10.94,10.94,0,0,1,205.8,89a11.65,11.65,0,0,0,1.37-1.41,1.81,1.81,0,0,0,.34-1,1.15,1.15,0,0,0-.3-.85,1.26,1.26,0,0,0-1.64,0,1.59,1.59,0,0,0-.35,1l-1.64-.16a2.69,2.69,0,0,1,.92-2,3.09,3.09,0,0,1,1.93-.59,2.79,2.79,0,0,1,2,.69,2.25,2.25,0,0,1,.73,1.71,3,3,0,0,1-.21,1.1,4.49,4.49,0,0,1-.66,1.1,10.55,10.55,0,0,1-1.08,1.1q-.78.71-1,.95a2.83,2.83,0,0,0-.34.46Z" style="fill:#010101"/><path d="M210.21,90.42l1.59-.19a1.51,1.51,0,0,0,.41.93,1.12,1.12,0,0,0,.81.32,1.11,1.11,0,0,0,.86-.39,1.5,1.5,0,0,0,.35-1,1.4,1.4,0,0,0-.33-1,1.06,1.06,0,0,0-.81-.36,2.87,2.87,0,0,0-.76.12l.18-1.34a1.44,1.44,0,0,0,1-.29,1,1,0,0,0,.35-.82.89.89,0,0,0-.94-.95,1,1,0,0,0-.72.29,1.38,1.38,0,0,0-.36.86l-1.52-.26a3.39,3.39,0,0,1,.48-1.25,2.16,2.16,0,0,1,.89-.73,3,3,0,0,1,1.28-.27,2.55,2.55,0,0,1,1.95.77,2,2,0,0,1-.63,3.23,2,2,0,0,1,1.18.71,2.06,2.06,0,0,1,.44,1.33,2.58,2.58,0,0,1-.83,1.93,3.09,3.09,0,0,1-4,.13A2.64,2.64,0,0,1,210.21,90.42Z" style="fill:#010101"/><path d="M217.29,92.7V91.05h1.65V92.7Z" style="fill:#010101"/><path d="M224.49,92.7h-1.65V86.49a5.68,5.68,0,0,1-2.13,1.25V86.25a4.76,4.76,0,0,0,1.4-.8,3,3,0,0,0,1-1.37h1.34Z" style="fill:#010101"/><path d="M7.32,109.23H6.19a11.39,11.39,0,0,1-1.37-2.81,9.21,9.21,0,0,1-.47-2.82,8.87,8.87,0,0,1,.58-3.21A11.25,11.25,0,0,1,6.22,98H7.34a17.77,17.77,0,0,0-1.1,3,11.36,11.36,0,0,0-.12,4.61,12.85,12.85,0,0,0,.49,1.92Q6.81,108.11,7.32,109.23Z" style="fill:#010101"/><path d="M8.62,106.7V98.11h1.69l3.52,5.74V98.11h1.61v8.59H13.69l-3.46-5.6v5.6Z" style="fill:#010101"/><path d="M17.28,106.7V98.11h5.89v1.45H19v2H22.6v1.45H19v3.65Z" style="fill:#010101"/><path d="M24.61,106.7V98.11h2.78a10.09,10.09,0,0,1,2.06.13,2.25,2.25,0,0,1,1.24.84,2.67,2.67,0,0,1,.5,1.67,2.8,2.8,0,0,1-.29,1.33,2.36,2.36,0,0,1-.73.85,2.51,2.51,0,0,1-.9.41,9.9,9.9,0,0,1-1.8.12H26.34v3.24Zm1.73-7.14V102h.95a4.48,4.48,0,0,0,1.37-.13,1.14,1.14,0,0,0,.54-.42,1.15,1.15,0,0,0,.2-.67,1.11,1.11,0,0,0-.28-.77,1.2,1.2,0,0,0-.7-.38,8.34,8.34,0,0,0-1.25-.06Z" style="fill:#010101"/><path d="M39.46,106.7H37.57l-.75-2H33.39l-.71,2H30.84l3.35-8.59H36Zm-3.19-3.4-1.18-3.19-1.16,3.19Z" style="fill:#010101"/><path d="M42.93,104.49l1.64-.17a1.41,1.41,0,0,0,.42.88,1.13,1.13,0,0,0,.8.33,1.11,1.11,0,0,0,.87-.42,1.91,1.91,0,0,0,.36-1.26,1.73,1.73,0,0,0-.35-1.19,1.18,1.18,0,0,0-.92-.4,1.68,1.68,0,0,0-1.27.63l-1.34-.19L44,98.23h4.35v1.54H45.22L45,101.23a2.52,2.52,0,0,1,3,.52,2.87,2.87,0,0,1,.76,2.07,3.1,3.1,0,0,1-.62,1.89,2.73,2.73,0,0,1-2.33,1.14,2.89,2.89,0,0,1-1.94-.64A2.63,2.63,0,0,1,42.93,104.49Z" style="fill:#010101"/><path d="M52.81,106.7V105H49.29v-1.44L53,98.08H54.4v5.45h1.07V105H54.4v1.73Zm0-3.18v-2.94l-2,2.94Z" style="fill:#010101"/><path d="M56.15,109.23q.49-1,.69-1.6a11.83,11.83,0,0,0,.37-1.28,13.42,13.42,0,0,0,.25-1.38,10.74,10.74,0,0,0,.08-1.34,11.28,11.28,0,0,0-.3-2.64,17.56,17.56,0,0,0-1.1-3h1.12a10.76,10.76,0,0,1,1.37,2.67,8.7,8.7,0,0,1,.49,2.87,9.89,9.89,0,0,1-.39,2.63,11,11,0,0,1-1.45,3.1Z" style="fill:#010101"/><path d="M60.41,104.41v-1.65h3.23v1.65Z" style="fill:#010101"/><path d="M73.36,102.32l-1.62.29a1.18,1.18,0,0,0-.37-.73,1.12,1.12,0,0,0-.75-.25,1.23,1.23,0,0,0-1,.42,2.18,2.18,0,0,0-.37,1.42,2.52,2.52,0,0,0,.37,1.56,1.22,1.22,0,0,0,1,.46,1.11,1.11,0,0,0,.77-.27,1.6,1.6,0,0,0,.42-.92l1.62.28a2.87,2.87,0,0,1-1,1.68,3,3,0,0,1-1.92.57,2.85,2.85,0,0,1-2.18-.86,3.93,3.93,0,0,1,0-4.78,2.89,2.89,0,0,1,2.2-.86,3,3,0,0,1,1.81.49A2.71,2.71,0,0,1,73.36,102.32Z" style="fill:#010101"/><path d="M78.7,106.7v-.93a2.4,2.4,0,0,1-.89.79,2.5,2.5,0,0,1-1.17.29,2.29,2.29,0,0,1-1.12-.28,1.63,1.63,0,0,1-.72-.77,3.45,3.45,0,0,1-.22-1.38v-3.94h1.65v2.86a7.93,7.93,0,0,0,.09,1.61.88.88,0,0,0,.33.47,1,1,0,0,0,.61.17,1.3,1.3,0,0,0,.76-.23,1.18,1.18,0,0,0,.46-.57,6.67,6.67,0,0,0,.12-1.68v-2.62h1.65v6.22Z" style="fill:#010101"/><path d="M83.51,106.7H81.87v-6.22h1.53v.88a2.66,2.66,0,0,1,.71-.83,1.3,1.3,0,0,1,.71-.2,2.09,2.09,0,0,1,1.08.31l-.51,1.44a1.44,1.44,0,0,0-.77-.27A.91.91,0,0,0,84,102a1.3,1.3,0,0,0-.38.69,9.78,9.78,0,0,0-.14,2.09Z" style="fill:#010101"/><path d="M88.18,106.7H86.54v-6.22h1.53v.88a2.66,2.66,0,0,1,.71-.83,1.3,1.3,0,0,1,.71-.2,2.09,2.09,0,0,1,1.08.31l-.51,1.44a1.44,1.44,0,0,0-.77-.27.91.91,0,0,0-.59.19,1.3,1.3,0,0,0-.38.69,9.78,9.78,0,0,0-.14,2.09Z" style="fill:#010101"/><path d="M94.88,104.72l1.64.28a2.69,2.69,0,0,1-1,1.37,2.93,2.93,0,0,1-1.71.47,2.78,2.78,0,0,1-2.4-1.06,3.56,3.56,0,0,1-.62-2.14,3.44,3.44,0,0,1,.81-2.42,2.66,2.66,0,0,1,2-.88,2.76,2.76,0,0,1,2.19.92,4.06,4.06,0,0,1,.77,2.81H92.48a1.67,1.67,0,0,0,.4,1.14,1.25,1.25,0,0,0,.95.41,1,1,0,0,0,.65-.21A1.3,1.3,0,0,0,94.88,104.72Zm.09-1.66A1.59,1.59,0,0,0,94.6,102a1.19,1.19,0,0,0-1.75,0,1.52,1.52,0,0,0-.35,1.07Z" style="fill:#010101"/><path d="M103.61,106.7H102v-3.18a4.91,4.91,0,0,0-.11-1.3.91.91,0,0,0-.34-.46,1,1,0,0,0-.57-.16,1.32,1.32,0,0,0-.77.23,1.18,1.18,0,0,0-.47.62,5.37,5.37,0,0,0-.13,1.43v2.82H97.94v-6.22h1.53v.91a2.55,2.55,0,0,1,3-.86,1.67,1.67,0,0,1,.68.5,1.81,1.81,0,0,1,.32.69,5.14,5.14,0,0,1,.09,1.11Z" style="fill:#010101"/><path d="M108.13,100.48v1.31H107v2.51a6.24,6.24,0,0,0,0,.89.36.36,0,0,0,.15.21.46.46,0,0,0,.28.08,2.13,2.13,0,0,0,.66-.16l.14,1.28a3.27,3.27,0,0,1-1.3.25,2.06,2.06,0,0,1-.8-.15,1.17,1.17,0,0,1-.52-.39,1.53,1.53,0,0,1-.23-.64,8,8,0,0,1-.05-1.16v-2.71h-.76v-1.31h.76V99.24l1.65-1v2.2Z" style="fill:#010101"/><path d="M116.21,104.72l1.64.28a2.69,2.69,0,0,1-1,1.37,2.93,2.93,0,0,1-1.71.47,2.78,2.78,0,0,1-2.4-1.06,3.56,3.56,0,0,1-.62-2.14,3.44,3.44,0,0,1,.81-2.42,2.66,2.66,0,0,1,2-.88,2.76,2.76,0,0,1,2.19.92,4.06,4.06,0,0,1,.77,2.81h-4.12a1.67,1.67,0,0,0,.4,1.14,1.25,1.25,0,0,0,.95.41,1,1,0,0,0,.65-.21A1.3,1.3,0,0,0,116.21,104.72Zm.09-1.66a1.59,1.59,0,0,0-.37-1.09,1.19,1.19,0,0,0-1.75,0,1.52,1.52,0,0,0-.35,1.07Z" style="fill:#010101"/><path d="M125,106.7h-1.53v-.91a2.47,2.47,0,0,1-.9.79,2.31,2.31,0,0,1-1,.26,2.37,2.37,0,0,1-1.84-.86,3.52,3.52,0,0,1-.76-2.41,3.47,3.47,0,0,1,.74-2.41,2.43,2.43,0,0,1,1.88-.82,2.33,2.33,0,0,1,1.8.87V98.11H125Zm-4.39-3.25a2.85,2.85,0,0,0,.28,1.44,1.24,1.24,0,0,0,1.11.64,1.21,1.21,0,0,0,1-.48,2.23,2.23,0,0,0,.4-1.44,2.44,2.44,0,0,0-.39-1.54,1.22,1.22,0,0,0-1-.47,1.24,1.24,0,0,0-1,.47A2.1,2.1,0,0,0,120.6,103.46Z" style="fill:#010101"/><path d="M126.61,99.63V98.11h1.65v1.52Zm0,7.07v-6.22h1.65v6.22Z" style="fill:#010101"/><path d="M132.8,100.48v1.31h-1.12v2.51a6.24,6.24,0,0,0,0,.89.36.36,0,0,0,.15.21.46.46,0,0,0,.28.08,2.13,2.13,0,0,0,.66-.16l.14,1.28a3.27,3.27,0,0,1-1.3.25,2.06,2.06,0,0,1-.8-.15,1.17,1.17,0,0,1-.52-.39,1.53,1.53,0,0,1-.23-.64,8,8,0,0,1-.05-1.16v-2.71h-.76v-1.31H130V99.24l1.65-1v2.2Z" style="fill:#010101"/><path d="M133.94,99.63V98.11h1.65v1.52Zm0,7.07v-6.22h1.65v6.22Z" style="fill:#010101"/><path d="M136.9,103.5a3.37,3.37,0,0,1,.4-1.59,2.78,2.78,0,0,1,1.15-1.17,3.4,3.4,0,0,1,1.66-.4,3.11,3.11,0,0,1,2.31.92,3.17,3.17,0,0,1,.9,2.32,3.21,3.21,0,0,1-.91,2.34,3.08,3.08,0,0,1-2.29.93,3.61,3.61,0,0,1-1.63-.39,2.65,2.65,0,0,1-1.18-1.13A3.78,3.78,0,0,1,136.9,103.5Zm1.69.09A2.06,2.06,0,0,0,139,105a1.44,1.44,0,0,0,2.17,0,2.09,2.09,0,0,0,.44-1.43,2.05,2.05,0,0,0-.44-1.41,1.44,1.44,0,0,0-2.17,0A2.06,2.06,0,0,0,138.58,103.59Z" style="fill:#010101"/><path d="M150.27,106.7h-1.65v-3.18a4.91,4.91,0,0,0-.11-1.3.91.91,0,0,0-.34-.46,1,1,0,0,0-.57-.16,1.32,1.32,0,0,0-.77.23,1.18,1.18,0,0,0-.47.62,5.37,5.37,0,0,0-.13,1.43v2.82H144.6v-6.22h1.53v.91a2.55,2.55,0,0,1,3-.86,1.67,1.67,0,0,1,.68.5,1.81,1.81,0,0,1,.32.69,5.14,5.14,0,0,1,.09,1.11Z" style="fill:#010101"/><path d="M158.13,100.48v1.31H157v2.51a6.24,6.24,0,0,0,0,.89.36.36,0,0,0,.15.21.46.46,0,0,0,.28.08,2.13,2.13,0,0,0,.66-.16l.14,1.28a3.27,3.27,0,0,1-1.3.25,2.06,2.06,0,0,1-.8-.15,1.17,1.17,0,0,1-.52-.39,1.53,1.53,0,0,1-.23-.64,8,8,0,0,1-.05-1.16v-2.71h-.76v-1.31h.76V99.24l1.65-1v2.2Z" style="fill:#010101"/><path d="M158.89,103.5a3.37,3.37,0,0,1,.4-1.59,2.78,2.78,0,0,1,1.15-1.17,3.4,3.4,0,0,1,1.66-.4,3.11,3.11,0,0,1,2.31.92,3.17,3.17,0,0,1,.9,2.32,3.21,3.21,0,0,1-.91,2.34,3.08,3.08,0,0,1-2.29.93,3.61,3.61,0,0,1-1.63-.39,2.65,2.65,0,0,1-1.18-1.13A3.78,3.78,0,0,1,158.89,103.5Zm1.69.09A2.06,2.06,0,0,0,161,105a1.44,1.44,0,0,0,2.17,0,2.09,2.09,0,0,0,.44-1.43,2.05,2.05,0,0,0-.44-1.41,1.44,1.44,0,0,0-2.17,0A2.06,2.06,0,0,0,160.57,103.59Z" style="fill:#010101"/><path d="M169.88,100.48h1.54v.91a2.3,2.3,0,0,1,.81-.76,2.23,2.23,0,0,1,1.13-.29,2.37,2.37,0,0,1,1.84.85,3.44,3.44,0,0,1,.76,2.37,3.54,3.54,0,0,1-.76,2.42,2.37,2.37,0,0,1-1.85.86,2.1,2.1,0,0,1-.93-.21,3.15,3.15,0,0,1-.88-.7v3.13h-1.65Zm1.63,3a2.4,2.4,0,0,0,.42,1.55,1.27,1.27,0,0,0,1,.5,1.19,1.19,0,0,0,1-.46,2.37,2.37,0,0,0,.38-1.51,2.25,2.25,0,0,0-.39-1.45,1.21,1.21,0,0,0-1-.47,1.26,1.26,0,0,0-1,.47A2.07,2.07,0,0,0,171.51,103.48Z" style="fill:#010101"/><path d="M178.84,106.7h-1.65v-6.22h1.53v.88a2.66,2.66,0,0,1,.71-.83,1.3,1.3,0,0,1,.71-.2,2.09,2.09,0,0,1,1.08.31l-.51,1.44a1.44,1.44,0,0,0-.77-.27.91.91,0,0,0-.59.19,1.3,1.3,0,0,0-.38.69,9.78,9.78,0,0,0-.14,2.09Z" style="fill:#010101"/><path d="M181.55,103.5a3.37,3.37,0,0,1,.4-1.59,2.78,2.78,0,0,1,1.15-1.17,3.4,3.4,0,0,1,1.66-.4,3.11,3.11,0,0,1,2.31.92,3.17,3.17,0,0,1,.9,2.32,3.21,3.21,0,0,1-.91,2.34,3.08,3.08,0,0,1-2.29.93,3.61,3.61,0,0,1-1.63-.39,2.65,2.65,0,0,1-1.18-1.13A3.78,3.78,0,0,1,181.55,103.5Zm1.69.09a2.06,2.06,0,0,0,.44,1.42,1.44,1.44,0,0,0,2.17,0,2.09,2.09,0,0,0,.44-1.43,2.05,2.05,0,0,0-.44-1.41,1.44,1.44,0,0,0-2.17,0A2.06,2.06,0,0,0,183.24,103.59Z" style="fill:#010101"/><path d="M189.21,100.48h1.54v.91a2.3,2.3,0,0,1,.81-.76,2.23,2.23,0,0,1,1.13-.29,2.37,2.37,0,0,1,1.84.85,3.44,3.44,0,0,1,.76,2.37,3.54,3.54,0,0,1-.76,2.42,2.37,2.37,0,0,1-1.85.86,2.1,2.1,0,0,1-.93-.21,3.15,3.15,0,0,1-.88-.7v3.13h-1.65Zm1.63,3a2.4,2.4,0,0,0,.42,1.55,1.27,1.27,0,0,0,1,.5,1.19,1.19,0,0,0,1-.46,2.37,2.37,0,0,0,.38-1.51,2.25,2.25,0,0,0-.39-1.45,1.21,1.21,0,0,0-1-.47,1.26,1.26,0,0,0-1,.47A2.07,2.07,0,0,0,190.84,103.48Z" style="fill:#010101"/><path d="M200.2,104.72l1.64.28a2.69,2.69,0,0,1-1,1.37,2.93,2.93,0,0,1-1.71.47,2.78,2.78,0,0,1-2.4-1.06,3.56,3.56,0,0,1-.62-2.14,3.44,3.44,0,0,1,.81-2.42,2.66,2.66,0,0,1,2-.88,2.76,2.76,0,0,1,2.19.92,4.06,4.06,0,0,1,.77,2.81H197.8a1.67,1.67,0,0,0,.4,1.14,1.25,1.25,0,0,0,.95.41,1,1,0,0,0,.65-.21A1.3,1.3,0,0,0,200.2,104.72Zm.09-1.66a1.59,1.59,0,0,0-.37-1.09,1.19,1.19,0,0,0-1.75,0,1.52,1.52,0,0,0-.35,1.07Z" style="fill:#010101"/><path d="M204.84,106.7H203.2v-6.22h1.53v.88a2.66,2.66,0,0,1,.71-.83,1.3,1.3,0,0,1,.71-.2,2.09,2.09,0,0,1,1.08.31l-.51,1.44a1.44,1.44,0,0,0-.77-.27.91.91,0,0,0-.59.19,1.3,1.3,0,0,0-.38.69,9.78,9.78,0,0,0-.14,2.09Z" style="fill:#010101"/><path d="M207.94,106.7V98.11h1.65v8.59Z" style="fill:#010101"/><path d="M210.49,100.48h1.75l1.49,4.42,1.45-4.42h1.71l-2.2,6-.39,1.08a4.42,4.42,0,0,1-.41.83,1.8,1.8,0,0,1-.45.47,2,2,0,0,1-.63.28,3.26,3.26,0,0,1-.84.1,4.36,4.36,0,0,1-.93-.1l-.15-1.29a3.64,3.64,0,0,0,.7.08,1,1,0,0,0,.85-.34,2.34,2.34,0,0,0,.42-.86Z" style="fill:#010101"/><path d="M221.28,99.63V98.11h1.65v1.52Zm0,7.07v-6.22h1.65v6.22Z" style="fill:#010101"/><path d="M230.27,106.7h-1.65v-3.18a4.91,4.91,0,0,0-.11-1.3.91.91,0,0,0-.34-.46,1,1,0,0,0-.57-.16,1.32,1.32,0,0,0-.77.23,1.18,1.18,0,0,0-.47.62,5.37,5.37,0,0,0-.13,1.43v2.82H224.6v-6.22h1.53v.91a2.55,2.55,0,0,1,3-.86,1.67,1.67,0,0,1,.68.5,1.81,1.81,0,0,1,.32.69,5.14,5.14,0,0,1,.09,1.11Z" style="fill:#010101"/><path d="M231.36,104.93l1.65-.25a1.21,1.21,0,0,0,.43.73,1.45,1.45,0,0,0,.9.25,1.63,1.63,0,0,0,1-.23.52.52,0,0,0,.22-.44.43.43,0,0,0-.12-.31,1.31,1.31,0,0,0-.55-.22,8.88,8.88,0,0,1-2.53-.8,1.6,1.6,0,0,1-.74-1.4,1.73,1.73,0,0,1,.64-1.36,3,3,0,0,1,2-.55,3.46,3.46,0,0,1,1.9.42A2.13,2.13,0,0,1,237,102l-1.55.29a1,1,0,0,0-.38-.56,1.38,1.38,0,0,0-.79-.19,1.79,1.79,0,0,0-.93.18.39.39,0,0,0-.19.33.36.36,0,0,0,.16.3,6.18,6.18,0,0,0,1.54.46,4.58,4.58,0,0,1,1.84.73,1.52,1.52,0,0,1,.52,1.22,1.88,1.88,0,0,1-.71,1.47,3.16,3.16,0,0,1-2.12.62,3.47,3.47,0,0,1-2-.52A2.38,2.38,0,0,1,231.36,104.93Z" style="fill:#010101"/><path d="M241.47,100.48v1.31h-1.12v2.51a6.24,6.24,0,0,0,0,.89.36.36,0,0,0,.15.21.46.46,0,0,0,.28.08,2.13,2.13,0,0,0,.66-.16l.14,1.28a3.27,3.27,0,0,1-1.3.25,2.06,2.06,0,0,1-.8-.15,1.17,1.17,0,0,1-.52-.39,1.53,1.53,0,0,1-.23-.64,8,8,0,0,1-.05-1.16v-2.71h-.76v-1.31h.76V99.24l1.65-1v2.2Z" style="fill:#010101"/><path d="M243.84,102.38l-1.49-.27a2.33,2.33,0,0,1,.87-1.34,3.17,3.17,0,0,1,1.83-.43,3.94,3.94,0,0,1,1.64.26,1.64,1.64,0,0,1,.76.66,3.4,3.4,0,0,1,.22,1.47l0,1.92a6.67,6.67,0,0,0,.08,1.21,3.53,3.53,0,0,0,.3.83h-1.63q-.06-.16-.16-.49l-.06-.19a3,3,0,0,1-.9.62,2.58,2.58,0,0,1-1,.21,2.12,2.12,0,0,1-1.51-.52,1.73,1.73,0,0,1-.55-1.32,1.77,1.77,0,0,1,.25-.94,1.65,1.65,0,0,1,.71-.63,5.52,5.52,0,0,1,1.31-.38,9,9,0,0,0,1.6-.4v-.16a.85.85,0,0,0-.23-.68,1.4,1.4,0,0,0-.88-.2,1.18,1.18,0,0,0-.69.17A1.2,1.2,0,0,0,243.84,102.38Zm2.2,1.34a10.29,10.29,0,0,1-1,.25,3,3,0,0,0-.9.29.69.69,0,0,0-.32.58.81.81,0,0,0,.26.6.9.9,0,0,0,.66.25,1.43,1.43,0,0,0,.85-.29,1,1,0,0,0,.39-.54,3.25,3.25,0,0,0,.06-.8Z" style="fill:#010101"/><path d="M249.29,106.7V98.11h1.65v8.59Z" style="fill:#010101"/><path d="M252.62,106.7V98.11h1.65v8.59Z" style="fill:#010101"/><path d="M6.3,120.71,3.8,114.48H5.53l1.17,3.18L7,118.72q.13-.4.17-.53t.18-.53l1.18-3.18h1.69l-2.47,6.22Z" style="fill:#010101"/><path d="M14.87,118.72l1.64.28a2.69,2.69,0,0,1-1,1.37,2.93,2.93,0,0,1-1.71.47,2.78,2.78,0,0,1-2.4-1.06,3.56,3.56,0,0,1-.62-2.14,3.44,3.44,0,0,1,.81-2.42,2.66,2.66,0,0,1,2-.88,2.76,2.76,0,0,1,2.19.92,4.06,4.06,0,0,1,.77,2.81H12.47a1.67,1.67,0,0,0,.4,1.14,1.25,1.25,0,0,0,.95.41,1,1,0,0,0,.65-.21A1.3,1.3,0,0,0,14.87,118.72Zm.09-1.66A1.59,1.59,0,0,0,14.6,116a1.19,1.19,0,0,0-1.75,0,1.52,1.52,0,0,0-.35,1.07Z" style="fill:#010101"/><path d="M23.6,120.71H22v-3.18a4.91,4.91,0,0,0-.11-1.3.91.91,0,0,0-.34-.46,1,1,0,0,0-.57-.16,1.32,1.32,0,0,0-.77.23,1.18,1.18,0,0,0-.47.62,5.37,5.37,0,0,0-.13,1.43v2.82H17.93v-6.22h1.53v.91a2.55,2.55,0,0,1,3-.86,1.67,1.67,0,0,1,.68.5,1.81,1.81,0,0,1,.32.69,5.14,5.14,0,0,1,.09,1.11Z" style="fill:#010101"/><path d="M28.13,114.48v1.31H27v2.51a6.24,6.24,0,0,0,0,.89.36.36,0,0,0,.15.21.46.46,0,0,0,.28.08,2.13,2.13,0,0,0,.66-.16l.14,1.28a3.27,3.27,0,0,1-1.3.25,2.06,2.06,0,0,1-.8-.15,1.17,1.17,0,0,1-.52-.39,1.53,1.53,0,0,1-.23-.64,8,8,0,0,1-.05-1.16v-2.71h-.76v-1.31h.76v-1.24l1.65-1v2.2Z" style="fill:#010101"/><path d="M32,118.93l1.65-.25a1.21,1.21,0,0,0,.43.73,1.45,1.45,0,0,0,.9.25,1.63,1.63,0,0,0,1-.23.52.52,0,0,0,.22-.44.43.43,0,0,0-.12-.31,1.31,1.31,0,0,0-.55-.22,8.88,8.88,0,0,1-2.53-.8,1.6,1.6,0,0,1-.74-1.4,1.73,1.73,0,0,1,.64-1.36,3,3,0,0,1,2-.55,3.46,3.46,0,0,1,1.9.42,2.13,2.13,0,0,1,.86,1.23l-1.55.29a1,1,0,0,0-.38-.56,1.38,1.38,0,0,0-.79-.19,1.79,1.79,0,0,0-.93.18.39.39,0,0,0-.19.33.36.36,0,0,0,.16.3,6.18,6.18,0,0,0,1.54.46,4.58,4.58,0,0,1,1.84.73,1.52,1.52,0,0,1,.52,1.22,1.88,1.88,0,0,1-.71,1.47,3.16,3.16,0,0,1-2.12.62,3.47,3.47,0,0,1-2-.52A2.38,2.38,0,0,1,32,118.93Z" style="fill:#010101"/><path d="M38.5,114.48h1.75l1.49,4.42,1.45-4.42h1.71l-2.2,6-.39,1.08a4.42,4.42,0,0,1-.41.83,1.8,1.8,0,0,1-.45.47,2,2,0,0,1-.63.28,3.26,3.26,0,0,1-.84.1,4.36,4.36,0,0,1-.93-.1l-.15-1.29a3.64,3.64,0,0,0,.7.08,1,1,0,0,0,.85-.34,2.34,2.34,0,0,0,.42-.86Z" style="fill:#010101"/><path d="M45.37,118.93l1.65-.25a1.21,1.21,0,0,0,.43.73,1.45,1.45,0,0,0,.9.25,1.63,1.63,0,0,0,1-.23.52.52,0,0,0,.22-.44.43.43,0,0,0-.12-.31,1.31,1.31,0,0,0-.55-.22,8.88,8.88,0,0,1-2.53-.8,1.6,1.6,0,0,1-.74-1.4,1.73,1.73,0,0,1,.64-1.36,3,3,0,0,1,2-.55,3.46,3.46,0,0,1,1.9.42A2.13,2.13,0,0,1,51,116l-1.55.29a1,1,0,0,0-.38-.56,1.38,1.38,0,0,0-.79-.19,1.79,1.79,0,0,0-.93.18.39.39,0,0,0-.19.33.36.36,0,0,0,.16.3,6.18,6.18,0,0,0,1.54.46,4.58,4.58,0,0,1,1.84.73,1.52,1.52,0,0,1,.52,1.22,1.88,1.88,0,0,1-.71,1.47,3.16,3.16,0,0,1-2.12.62,3.47,3.47,0,0,1-2-.52A2.38,2.38,0,0,1,45.37,118.93Z" style="fill:#010101"/><path d="M55.48,114.48v1.31H54.35v2.51a6.24,6.24,0,0,0,0,.89.36.36,0,0,0,.15.21.46.46,0,0,0,.28.08,2.13,2.13,0,0,0,.66-.16l.14,1.28a3.27,3.27,0,0,1-1.3.25,2.06,2.06,0,0,1-.8-.15,1.17,1.17,0,0,1-.52-.39,1.53,1.53,0,0,1-.23-.64,8,8,0,0,1-.05-1.16v-2.71h-.76v-1.31h.76v-1.24l1.65-1v2.2Z" style="fill:#010101"/><path d="M60.22,118.72l1.64.28a2.69,2.69,0,0,1-1,1.37,2.93,2.93,0,0,1-1.71.47,2.78,2.78,0,0,1-2.4-1.06,3.56,3.56,0,0,1-.62-2.14,3.44,3.44,0,0,1,.81-2.42,2.66,2.66,0,0,1,2-.88,2.76,2.76,0,0,1,2.19.92,4.06,4.06,0,0,1,.77,2.81H57.83a1.67,1.67,0,0,0,.4,1.14,1.25,1.25,0,0,0,.95.41,1,1,0,0,0,.65-.21A1.3,1.3,0,0,0,60.22,118.72Zm.09-1.66a1.59,1.59,0,0,0-.37-1.09,1.19,1.19,0,0,0-1.75,0,1.52,1.52,0,0,0-.35,1.07Z" style="fill:#010101"/><path d="M63.17,114.48h1.52v.85a2.44,2.44,0,0,1,1.94-1,2.09,2.09,0,0,1,1,.25,1.89,1.89,0,0,1,.72.74,2.87,2.87,0,0,1,.88-.74,2.17,2.17,0,0,1,1-.25,2.26,2.26,0,0,1,1.16.28,1.71,1.71,0,0,1,.71.82,3.55,3.55,0,0,1,.17,1.29v4H70.68v-3.56a2.65,2.65,0,0,0-.17-1.2.78.78,0,0,0-.7-.35,1.12,1.12,0,0,0-.65.21,1.17,1.17,0,0,0-.44.62,4.45,4.45,0,0,0-.13,1.29v3H66.93v-3.41a4.73,4.73,0,0,0-.09-1.17.75.75,0,0,0-.27-.39.86.86,0,0,0-.5-.13,1.2,1.2,0,0,0-.69.21,1.12,1.12,0,0,0-.44.59,4.4,4.4,0,0,0-.13,1.28v3H63.17Z" style="fill:#010101"/><path d="M73.92,120.71v-1.65h1.65v1.65Z" style="fill:#010101"/><path d="M4.62,143.71v-8.59h5.89v1.45H6.35v2H9.94v1.45H6.35v3.65Z" style="fill:#010101"/><path d="M13.15,139.39l-1.49-.27a2.33,2.33,0,0,1,.87-1.34,3.17,3.17,0,0,1,1.83-.43,3.94,3.94,0,0,1,1.64.26,1.64,1.64,0,0,1,.76.66,3.4,3.4,0,0,1,.22,1.47l0,1.92a6.67,6.67,0,0,0,.08,1.21,3.53,3.53,0,0,0,.3.83H15.7q-.06-.16-.16-.49l-.06-.19a3,3,0,0,1-.9.62,2.58,2.58,0,0,1-1,.21,2.12,2.12,0,0,1-1.51-.52,1.73,1.73,0,0,1-.55-1.32,1.77,1.77,0,0,1,.25-.94,1.65,1.65,0,0,1,.71-.63,5.52,5.52,0,0,1,1.31-.38,9,9,0,0,0,1.6-.4v-.16a.85.85,0,0,0-.23-.68,1.4,1.4,0,0,0-.88-.2,1.18,1.18,0,0,0-.69.17A1.2,1.2,0,0,0,13.15,139.39Zm2.2,1.34a10.29,10.29,0,0,1-1,.25,3,3,0,0,0-.9.29.69.69,0,0,0-.32.58.81.81,0,0,0,.26.6.9.9,0,0,0,.66.25,1.43,1.43,0,0,0,.85-.29,1,1,0,0,0,.39-.54,3.25,3.25,0,0,0,.06-.8Z" style="fill:#010101"/><path d="M18.6,136.64v-1.52h1.65v1.52Zm0,7.07v-6.22h1.65v6.22Z" style="fill:#010101"/><path d="M21.93,143.71v-8.59h1.65v8.59Z" style="fill:#010101"/><path d="M29.36,143.71v-.93a2.4,2.4,0,0,1-.89.79,2.5,2.5,0,0,1-1.17.29,2.29,2.29,0,0,1-1.12-.28,1.63,1.63,0,0,1-.72-.77,3.45,3.45,0,0,1-.22-1.38v-3.94h1.65v2.86A7.93,7.93,0,0,0,27,142a.88.88,0,0,0,.33.47,1,1,0,0,0,.61.17,1.3,1.3,0,0,0,.76-.23,1.18,1.18,0,0,0,.46-.57,6.67,6.67,0,0,0,.12-1.68v-2.62h1.65v6.22Z" style="fill:#010101"/><path d="M34.17,143.71H32.53v-6.22h1.53v.88a2.66,2.66,0,0,1,.71-.83,1.3,1.3,0,0,1,.71-.2,2.09,2.09,0,0,1,1.08.31L36,139.09a1.44,1.44,0,0,0-.77-.27.91.91,0,0,0-.59.19,1.3,1.3,0,0,0-.38.69,9.78,9.78,0,0,0-.14,2.09Z" style="fill:#010101"/><path d="M40.87,141.73l1.64.28a2.69,2.69,0,0,1-1,1.37,2.93,2.93,0,0,1-1.71.47,2.78,2.78,0,0,1-2.4-1.06,3.56,3.56,0,0,1-.62-2.14,3.44,3.44,0,0,1,.81-2.42,2.66,2.66,0,0,1,2-.88,2.76,2.76,0,0,1,2.19.92,4.06,4.06,0,0,1,.77,2.81H38.47a1.67,1.67,0,0,0,.4,1.14,1.25,1.25,0,0,0,.95.41,1,1,0,0,0,.65-.21A1.3,1.3,0,0,0,40.87,141.73Zm.09-1.66a1.59,1.59,0,0,0-.37-1.09,1.19,1.19,0,0,0-1.75,0,1.52,1.52,0,0,0-.35,1.07Z" style="fill:#010101"/><path d="M50.13,137.49v1.31H49v2.51a6.24,6.24,0,0,0,0,.89.36.36,0,0,0,.15.21.46.46,0,0,0,.28.08,2.13,2.13,0,0,0,.66-.16l.14,1.28a3.27,3.27,0,0,1-1.3.25,2.06,2.06,0,0,1-.8-.15,1.17,1.17,0,0,1-.52-.39,1.53,1.53,0,0,1-.23-.64,8,8,0,0,1-.05-1.16V138.8h-.76v-1.31h.76v-1.24l1.65-1v2.2Z" style="fill:#010101"/><path d="M50.89,140.51a3.37,3.37,0,0,1,.4-1.59,2.78,2.78,0,0,1,1.15-1.17,3.4,3.4,0,0,1,1.66-.4,3.11,3.11,0,0,1,2.31.92,3.17,3.17,0,0,1,.9,2.32,3.21,3.21,0,0,1-.91,2.34,3.08,3.08,0,0,1-2.29.93,3.61,3.61,0,0,1-1.63-.39,2.65,2.65,0,0,1-1.18-1.13A3.78,3.78,0,0,1,50.89,140.51Zm1.69.09A2.06,2.06,0,0,0,53,142a1.44,1.44,0,0,0,2.17,0,2.09,2.09,0,0,0,.44-1.43,2.05,2.05,0,0,0-.44-1.41,1.44,1.44,0,0,0-2.17,0A2.06,2.06,0,0,0,52.58,140.6Z" style="fill:#010101"/><path d="M67.64,143.71H66.11v-.91a2.47,2.47,0,0,1-.9.79,2.31,2.31,0,0,1-1,.26,2.37,2.37,0,0,1-1.84-.86,3.52,3.52,0,0,1-.76-2.41,3.47,3.47,0,0,1,.74-2.41,2.43,2.43,0,0,1,1.88-.82,2.33,2.33,0,0,1,1.8.87v-3.09h1.65Zm-4.39-3.25a2.85,2.85,0,0,0,.28,1.44,1.24,1.24,0,0,0,1.11.64,1.21,1.21,0,0,0,1-.48,2.23,2.23,0,0,0,.4-1.44,2.44,2.44,0,0,0-.39-1.54,1.22,1.22,0,0,0-1-.47,1.24,1.24,0,0,0-1,.47A2.1,2.1,0,0,0,63.25,140.46Z" style="fill:#010101"/><path d="M68.88,140.51a3.37,3.37,0,0,1,.4-1.59,2.78,2.78,0,0,1,1.15-1.17,3.4,3.4,0,0,1,1.66-.4,3.11,3.11,0,0,1,2.31.92,3.17,3.17,0,0,1,.9,2.32,3.21,3.21,0,0,1-.91,2.34,3.08,3.08,0,0,1-2.29.93,3.61,3.61,0,0,1-1.63-.39,2.65,2.65,0,0,1-1.18-1.13A3.78,3.78,0,0,1,68.88,140.51Zm1.69.09A2.06,2.06,0,0,0,71,142a1.44,1.44,0,0,0,2.17,0,2.09,2.09,0,0,0,.44-1.43,2.05,2.05,0,0,0-.44-1.41,1.44,1.44,0,0,0-2.17,0A2.06,2.06,0,0,0,70.57,140.6Z" style="fill:#010101"/><path d="M79.35,141.93l1.65-.25a1.21,1.21,0,0,0,.43.73,1.45,1.45,0,0,0,.9.25,1.63,1.63,0,0,0,1-.23.52.52,0,0,0,.22-.44.43.43,0,0,0-.12-.31,1.31,1.31,0,0,0-.55-.22,8.88,8.88,0,0,1-2.53-.8,1.6,1.6,0,0,1-.74-1.4,1.73,1.73,0,0,1,.64-1.36,3,3,0,0,1,2-.55,3.46,3.46,0,0,1,1.9.42,2.13,2.13,0,0,1,.86,1.23l-1.55.29a1,1,0,0,0-.38-.56,1.38,1.38,0,0,0-.79-.19,1.79,1.79,0,0,0-.93.18.39.39,0,0,0-.19.33.36.36,0,0,0,.16.3,6.18,6.18,0,0,0,1.54.46,4.58,4.58,0,0,1,1.84.73,1.52,1.52,0,0,1,.52,1.22,1.88,1.88,0,0,1-.71,1.47,3.16,3.16,0,0,1-2.12.62,3.47,3.47,0,0,1-2-.52A2.38,2.38,0,0,1,79.35,141.93Z" style="fill:#010101"/><path d="M86.22,140.51a3.37,3.37,0,0,1,.4-1.59,2.78,2.78,0,0,1,1.15-1.17,3.4,3.4,0,0,1,1.66-.4,3.11,3.11,0,0,1,2.31.92,3.17,3.17,0,0,1,.9,2.32,3.21,3.21,0,0,1-.91,2.34,3.08,3.08,0,0,1-2.29.93,3.61,3.61,0,0,1-1.63-.39,2.65,2.65,0,0,1-1.18-1.13A3.78,3.78,0,0,1,86.22,140.51Zm1.69.09a2.06,2.06,0,0,0,.44,1.42,1.44,1.44,0,0,0,2.17,0,2.09,2.09,0,0,0,.44-1.43,2.05,2.05,0,0,0-.44-1.41,1.44,1.44,0,0,0-2.17,0A2.06,2.06,0,0,0,87.91,140.6Z" style="fill:#010101"/><path d="M102.69,139.33l-1.62.29a1.18,1.18,0,0,0-.37-.73,1.12,1.12,0,0,0-.75-.25,1.23,1.23,0,0,0-1,.42,2.18,2.18,0,0,0-.37,1.42,2.52,2.52,0,0,0,.37,1.56,1.22,1.22,0,0,0,1,.46,1.11,1.11,0,0,0,.77-.27,1.6,1.6,0,0,0,.42-.92l1.62.28a2.87,2.87,0,0,1-1,1.68,3,3,0,0,1-1.92.57,2.85,2.85,0,0,1-2.18-.86,3.93,3.93,0,0,1,0-4.78,2.89,2.89,0,0,1,2.2-.86,3,3,0,0,1,1.81.49A2.71,2.71,0,0,1,102.69,139.33Z" style="fill:#010101"/><path d="M105.17,139.39l-1.49-.27a2.33,2.33,0,0,1,.87-1.34,3.17,3.17,0,0,1,1.83-.43,3.94,3.94,0,0,1,1.64.26,1.64,1.64,0,0,1,.76.66,3.4,3.4,0,0,1,.22,1.47l0,1.92a6.67,6.67,0,0,0,.08,1.21,3.53,3.53,0,0,0,.3.83h-1.63q-.06-.16-.16-.49l-.06-.19a3,3,0,0,1-.9.62,2.58,2.58,0,0,1-1,.21,2.12,2.12,0,0,1-1.51-.52,1.73,1.73,0,0,1-.55-1.32,1.77,1.77,0,0,1,.25-.94,1.65,1.65,0,0,1,.71-.63,5.52,5.52,0,0,1,1.31-.38,9,9,0,0,0,1.6-.4v-.16a.85.85,0,0,0-.23-.68,1.4,1.4,0,0,0-.88-.2,1.18,1.18,0,0,0-.69.17A1.2,1.2,0,0,0,105.17,139.39Zm2.2,1.34a10.29,10.29,0,0,1-1,.25,3,3,0,0,0-.9.29.69.69,0,0,0-.32.58.81.81,0,0,0,.26.6.9.9,0,0,0,.66.25,1.43,1.43,0,0,0,.85-.29,1,1,0,0,0,.39-.54,3.25,3.25,0,0,0,.06-.8Z" style="fill:#010101"/><path d="M116.27,143.71h-1.65v-3.18a4.91,4.91,0,0,0-.11-1.3.91.91,0,0,0-.34-.46,1,1,0,0,0-.57-.16,1.32,1.32,0,0,0-.77.23,1.18,1.18,0,0,0-.47.62,5.37,5.37,0,0,0-.13,1.43v2.82H110.6v-6.22h1.53v.91a2.55,2.55,0,0,1,3-.86,1.67,1.67,0,0,1,.68.5,1.81,1.81,0,0,1,.32.69,5.14,5.14,0,0,1,.09,1.11Z" style="fill:#010101"/><path d="M122.85,143.71h-1.65v-6.22h1.53v.88a2.66,2.66,0,0,1,.71-.83,1.3,1.3,0,0,1,.71-.2,2.09,2.09,0,0,1,1.08.31l-.51,1.44a1.44,1.44,0,0,0-.77-.27.91.91,0,0,0-.59.19,1.3,1.3,0,0,0-.38.69,9.78,9.78,0,0,0-.14,2.09Z" style="fill:#010101"/><path d="M129.55,141.73l1.64.28a2.69,2.69,0,0,1-1,1.37,2.93,2.93,0,0,1-1.71.47,2.78,2.78,0,0,1-2.4-1.06,3.56,3.56,0,0,1-.62-2.14,3.44,3.44,0,0,1,.81-2.42,2.66,2.66,0,0,1,2-.88,2.76,2.76,0,0,1,2.19.92,4.06,4.06,0,0,1,.77,2.81h-4.12a1.67,1.67,0,0,0,.4,1.14,1.25,1.25,0,0,0,.95.41,1,1,0,0,0,.65-.21A1.3,1.3,0,0,0,129.55,141.73Zm.09-1.66a1.59,1.59,0,0,0-.37-1.09,1.19,1.19,0,0,0-1.75,0,1.52,1.52,0,0,0-.35,1.07Z" style="fill:#010101"/><path d="M132,141.93l1.65-.25a1.21,1.21,0,0,0,.43.73,1.45,1.45,0,0,0,.9.25,1.63,1.63,0,0,0,1-.23.52.52,0,0,0,.22-.44.43.43,0,0,0-.12-.31,1.31,1.31,0,0,0-.55-.22,8.88,8.88,0,0,1-2.53-.8,1.6,1.6,0,0,1-.74-1.4,1.73,1.73,0,0,1,.64-1.36,3,3,0,0,1,2-.55,3.46,3.46,0,0,1,1.9.42,2.13,2.13,0,0,1,.86,1.23l-1.55.29a1,1,0,0,0-.38-.56,1.38,1.38,0,0,0-.79-.19,1.79,1.79,0,0,0-.93.18.39.39,0,0,0-.19.33.36.36,0,0,0,.16.3,6.18,6.18,0,0,0,1.54.46,4.58,4.58,0,0,1,1.84.73,1.52,1.52,0,0,1,.52,1.22,1.88,1.88,0,0,1-.71,1.47,3.16,3.16,0,0,1-2.12.62,3.47,3.47,0,0,1-2-.52A2.38,2.38,0,0,1,132,141.93Z" style="fill:#010101"/><path d="M143.39,143.71v-.93a2.4,2.4,0,0,1-.89.79,2.5,2.5,0,0,1-1.17.29,2.29,2.29,0,0,1-1.12-.28,1.63,1.63,0,0,1-.72-.77,3.45,3.45,0,0,1-.22-1.38v-3.94h1.65v2.86A7.93,7.93,0,0,0,141,142a.88.88,0,0,0,.33.47,1,1,0,0,0,.61.17,1.3,1.3,0,0,0,.76-.23,1.18,1.18,0,0,0,.46-.57,6.67,6.67,0,0,0,.12-1.68v-2.62h1.65v6.22Z" style="fill:#010101"/><path d="M146.63,143.71v-8.59h1.65v8.59Z" style="fill:#010101"/><path d="M152.81,137.49v1.31h-1.12v2.51a6.24,6.24,0,0,0,0,.89.36.36,0,0,0,.15.21.46.46,0,0,0,.28.08,2.13,2.13,0,0,0,.66-.16l.14,1.28a3.27,3.27,0,0,1-1.3.25,2.06,2.06,0,0,1-.8-.15,1.17,1.17,0,0,1-.52-.39,1.53,1.53,0,0,1-.23-.64,8,8,0,0,1-.05-1.16V138.8h-.76v-1.31H150v-1.24l1.65-1v2.2Z" style="fill:#010101"/><path d="M157.29,136.64v-1.52h1.65v1.52Zm0,7.07v-6.22h1.65v6.22Z" style="fill:#010101"/><path d="M166.28,143.71h-1.65v-3.18a4.91,4.91,0,0,0-.11-1.3.91.91,0,0,0-.34-.46,1,1,0,0,0-.57-.16,1.32,1.32,0,0,0-.77.23,1.18,1.18,0,0,0-.47.62,5.37,5.37,0,0,0-.13,1.43v2.82h-1.65v-6.22h1.53v.91a2.55,2.55,0,0,1,3-.86,1.67,1.67,0,0,1,.68.5,1.81,1.81,0,0,1,.32.69,5.14,5.14,0,0,1,.09,1.11Z" style="fill:#010101"/><path d="M177,143.71h-1.53v-.91a2.47,2.47,0,0,1-.9.79,2.3,2.3,0,0,1-1,.26,2.37,2.37,0,0,1-1.84-.86,3.52,3.52,0,0,1-.76-2.41,3.47,3.47,0,0,1,.74-2.41,2.43,2.43,0,0,1,1.88-.82,2.33,2.33,0,0,1,1.8.87v-3.09H177Zm-4.39-3.25a2.85,2.85,0,0,0,.28,1.44,1.24,1.24,0,0,0,1.11.64,1.21,1.21,0,0,0,1-.48,2.23,2.23,0,0,0,.4-1.44,2.44,2.44,0,0,0-.39-1.54,1.22,1.22,0,0,0-1-.47,1.24,1.24,0,0,0-1,.47A2.1,2.1,0,0,0,172.59,140.46Z" style="fill:#010101"/><path d="M182.21,141.73l1.64.28a2.69,2.69,0,0,1-1,1.37,2.93,2.93,0,0,1-1.71.47,2.78,2.78,0,0,1-2.4-1.06,3.56,3.56,0,0,1-.62-2.14,3.44,3.44,0,0,1,.81-2.42,2.66,2.66,0,0,1,2-.88,2.76,2.76,0,0,1,2.19.92,4.06,4.06,0,0,1,.77,2.81h-4.12a1.67,1.67,0,0,0,.4,1.14,1.25,1.25,0,0,0,.95.41,1,1,0,0,0,.65-.21A1.3,1.3,0,0,0,182.21,141.73Zm.09-1.66a1.59,1.59,0,0,0-.37-1.09,1.19,1.19,0,0,0-1.75,0,1.52,1.52,0,0,0-.35,1.07Z" style="fill:#010101"/><path d="M186.51,139.39l-1.49-.27a2.33,2.33,0,0,1,.87-1.34,3.17,3.17,0,0,1,1.83-.43,3.94,3.94,0,0,1,1.64.26,1.63,1.63,0,0,1,.76.66,3.39,3.39,0,0,1,.22,1.47l0,1.92a6.69,6.69,0,0,0,.08,1.21,3.54,3.54,0,0,0,.3.83h-1.63q-.06-.16-.16-.49l-.06-.19a3,3,0,0,1-.9.62,2.58,2.58,0,0,1-1,.21,2.12,2.12,0,0,1-1.52-.52,1.73,1.73,0,0,1-.55-1.32,1.77,1.77,0,0,1,.25-.94,1.64,1.64,0,0,1,.71-.63,5.53,5.53,0,0,1,1.31-.38,9,9,0,0,0,1.6-.4v-.16a.85.85,0,0,0-.23-.68,1.4,1.4,0,0,0-.88-.2,1.18,1.18,0,0,0-.69.17A1.2,1.2,0,0,0,186.51,139.39Zm2.2,1.34a10.29,10.29,0,0,1-1,.25,3,3,0,0,0-.9.29.69.69,0,0,0-.32.58.81.81,0,0,0,.26.6.9.9,0,0,0,.66.25,1.43,1.43,0,0,0,.85-.29,1,1,0,0,0,.39-.54,3.25,3.25,0,0,0,.06-.8Z" style="fill:#010101"/><path d="M194.81,137.49v1.31h-1.12v2.51a6.32,6.32,0,0,0,0,.89.36.36,0,0,0,.15.21.47.47,0,0,0,.28.08,2.13,2.13,0,0,0,.66-.16l.14,1.28a3.27,3.27,0,0,1-1.3.25,2.06,2.06,0,0,1-.8-.15,1.17,1.17,0,0,1-.53-.39,1.53,1.53,0,0,1-.23-.64,8,8,0,0,1-.05-1.16V138.8h-.76v-1.31H192v-1.24l1.65-1v2.2Z" style="fill:#010101"/><path d="M197.59,135.12v3.16a2.47,2.47,0,0,1,2.93-.72,1.67,1.67,0,0,1,.69.54,2,2,0,0,1,.32.73,6.48,6.48,0,0,1,.09,1.24v3.65H200v-3.29a4.87,4.87,0,0,0-.09-1.24.82.82,0,0,0-.33-.42,1.06,1.06,0,0,0-.59-.16,1.36,1.36,0,0,0-.73.2,1.15,1.15,0,0,0-.47.6,3.59,3.59,0,0,0-.15,1.19v3.12h-1.65v-8.59Z" style="fill:#010101"/><path d="M203.24,142.06h1.65v1.18a4.11,4.11,0,0,1-.12,1.13,1.69,1.69,0,0,1-.47.74,2.4,2.4,0,0,1-.87.52l-.32-.68a1.39,1.39,0,0,0,.71-.45,1.36,1.36,0,0,0,.22-.79h-.8Z" style="fill:#010101"/><path d="M8.2,155.73l1.64.28a2.69,2.69,0,0,1-1,1.37,2.93,2.93,0,0,1-1.71.47,2.78,2.78,0,0,1-2.4-1.06,3.56,3.56,0,0,1-.62-2.14,3.44,3.44,0,0,1,.81-2.42,2.66,2.66,0,0,1,2-.88,2.76,2.76,0,0,1,2.19.92,4.06,4.06,0,0,1,.77,2.81H5.8a1.67,1.67,0,0,0,.4,1.14,1.25,1.25,0,0,0,.95.41,1,1,0,0,0,.65-.21A1.3,1.3,0,0,0,8.2,155.73Zm.09-1.66A1.59,1.59,0,0,0,7.92,153a1.19,1.19,0,0,0-1.75,0,1.52,1.52,0,0,0-.35,1.07Z" style="fill:#010101"/><path d="M10.48,157.71l2.24-3.21-2.15-3h2l1.1,1.71,1.16-1.71h1.93l-2.11,2.95,2.3,3.28h-2l-1.27-1.93-1.28,1.93Z" style="fill:#010101"/><path d="M17.89,151.49h1.54v.91a2.3,2.3,0,0,1,.81-.76,2.23,2.23,0,0,1,1.13-.29,2.37,2.37,0,0,1,1.84.85,3.44,3.44,0,0,1,.76,2.37A3.54,3.54,0,0,1,23.2,157a2.37,2.37,0,0,1-1.85.86,2.1,2.1,0,0,1-.93-.21,3.15,3.15,0,0,1-.88-.7v3.13H17.89Zm1.63,3a2.4,2.4,0,0,0,.42,1.55,1.27,1.27,0,0,0,1,.5,1.19,1.19,0,0,0,1-.46,2.37,2.37,0,0,0,.38-1.51,2.25,2.25,0,0,0-.39-1.45,1.21,1.21,0,0,0-1-.47,1.26,1.26,0,0,0-1,.47A2.07,2.07,0,0,0,19.52,154.5Z" style="fill:#010101"/><path d="M25.27,157.71v-8.59h1.65v8.59Z" style="fill:#010101"/><path d="M28.22,154.51a3.37,3.37,0,0,1,.4-1.59,2.78,2.78,0,0,1,1.15-1.17,3.4,3.4,0,0,1,1.66-.4,3.11,3.11,0,0,1,2.31.92,3.17,3.17,0,0,1,.9,2.32,3.21,3.21,0,0,1-.91,2.34,3.08,3.08,0,0,1-2.29.93,3.61,3.61,0,0,1-1.63-.39,2.65,2.65,0,0,1-1.18-1.13A3.78,3.78,0,0,1,28.22,154.51Zm1.69.09a2.06,2.06,0,0,0,.44,1.42,1.44,1.44,0,0,0,2.17,0,2.09,2.09,0,0,0,.44-1.43,2.05,2.05,0,0,0-.44-1.41,1.44,1.44,0,0,0-2.17,0A2.06,2.06,0,0,0,29.91,154.6Z" style="fill:#010101"/><path d="M35.36,155.94l1.65-.25a1.21,1.21,0,0,0,.43.73,1.45,1.45,0,0,0,.9.25,1.63,1.63,0,0,0,1-.23.52.52,0,0,0,.22-.44.43.43,0,0,0-.12-.31,1.31,1.31,0,0,0-.55-.22,8.88,8.88,0,0,1-2.53-.8,1.6,1.6,0,0,1-.74-1.4,1.73,1.73,0,0,1,.64-1.36,3,3,0,0,1,2-.55,3.46,3.46,0,0,1,1.9.42A2.13,2.13,0,0,1,41,153l-1.55.29a1,1,0,0,0-.38-.56,1.38,1.38,0,0,0-.79-.19,1.79,1.79,0,0,0-.93.18.39.39,0,0,0-.19.33.36.36,0,0,0,.16.3,6.18,6.18,0,0,0,1.54.46,4.58,4.58,0,0,1,1.84.73,1.52,1.52,0,0,1,.52,1.22,1.88,1.88,0,0,1-.71,1.47,3.16,3.16,0,0,1-2.12.62,3.47,3.47,0,0,1-2-.52A2.38,2.38,0,0,1,35.36,155.94Z" style="fill:#010101"/><path d="M42.61,150.65v-1.52h1.65v1.52Zm0,7.07v-6.22h1.65v6.22Z" style="fill:#010101"/><path d="M45.56,154.51a3.37,3.37,0,0,1,.4-1.59,2.78,2.78,0,0,1,1.15-1.17,3.4,3.4,0,0,1,1.66-.4,3.11,3.11,0,0,1,2.31.92,3.17,3.17,0,0,1,.9,2.32,3.21,3.21,0,0,1-.91,2.34,3.08,3.08,0,0,1-2.29.93,3.61,3.61,0,0,1-1.63-.39A2.65,2.65,0,0,1,46,156.33,3.78,3.78,0,0,1,45.56,154.51Zm1.69.09a2.06,2.06,0,0,0,.44,1.42,1.44,1.44,0,0,0,2.17,0,2.09,2.09,0,0,0,.44-1.43,2.05,2.05,0,0,0-.44-1.41,1.44,1.44,0,0,0-2.17,0A2.06,2.06,0,0,0,47.25,154.6Z" style="fill:#010101"/><path d="M58.93,157.71H57.29v-3.18a4.91,4.91,0,0,0-.11-1.3.91.91,0,0,0-.34-.46,1,1,0,0,0-.57-.16,1.32,1.32,0,0,0-.77.23,1.18,1.18,0,0,0-.47.62,5.37,5.37,0,0,0-.13,1.43v2.82H53.26v-6.22h1.53v.91a2.55,2.55,0,0,1,3-.86,1.67,1.67,0,0,1,.68.5,1.81,1.81,0,0,1,.32.69,5.14,5.14,0,0,1,.09,1.11Z" style="fill:#010101"/><path d="M60.56,156.07h1.65v1.18a4.11,4.11,0,0,1-.12,1.13,1.68,1.68,0,0,1-.47.74,2.4,2.4,0,0,1-.87.52l-.32-.68a1.39,1.39,0,0,0,.71-.45,1.36,1.36,0,0,0,.22-.79h-.8Z" style="fill:#010101"/><path d="M66.89,154.51a3.37,3.37,0,0,1,.4-1.59,2.78,2.78,0,0,1,1.15-1.17,3.4,3.4,0,0,1,1.66-.4,3.11,3.11,0,0,1,2.31.92,3.17,3.17,0,0,1,.9,2.32,3.21,3.21,0,0,1-.91,2.34,3.08,3.08,0,0,1-2.29.93,3.61,3.61,0,0,1-1.63-.39,2.65,2.65,0,0,1-1.18-1.13A3.78,3.78,0,0,1,66.89,154.51Zm1.69.09A2.06,2.06,0,0,0,69,156a1.44,1.44,0,0,0,2.17,0,2.09,2.09,0,0,0,.44-1.43,2.05,2.05,0,0,0-.44-1.41,1.44,1.44,0,0,0-2.17,0A2.06,2.06,0,0,0,68.58,154.6Z" style="fill:#010101"/><path d="M76.18,157.71H74.53v-6.22h1.53v.88a2.66,2.66,0,0,1,.71-.83,1.3,1.3,0,0,1,.71-.2,2.09,2.09,0,0,1,1.08.31l-.51,1.44a1.44,1.44,0,0,0-.77-.27.91.91,0,0,0-.59.19,1.3,1.3,0,0,0-.38.69,9.78,9.78,0,0,0-.14,2.09Z" style="fill:#010101"/><path d="M88,153.33l-1.62.29a1.18,1.18,0,0,0-.37-.73,1.12,1.12,0,0,0-.75-.25,1.23,1.23,0,0,0-1,.42,2.18,2.18,0,0,0-.37,1.42,2.52,2.52,0,0,0,.37,1.56,1.22,1.22,0,0,0,1,.46,1.11,1.11,0,0,0,.77-.27,1.6,1.6,0,0,0,.42-.92l1.62.28a2.87,2.87,0,0,1-1,1.68,3,3,0,0,1-1.92.57,2.85,2.85,0,0,1-2.18-.86,3.93,3.93,0,0,1,0-4.78,2.89,2.89,0,0,1,2.2-.86,3,3,0,0,1,1.81.49A2.71,2.71,0,0,1,88,153.33Z" style="fill:#010101"/><path d="M90.51,153.39,89,153.12a2.33,2.33,0,0,1,.87-1.34,3.17,3.17,0,0,1,1.83-.43,3.94,3.94,0,0,1,1.64.26,1.64,1.64,0,0,1,.76.66,3.4,3.4,0,0,1,.22,1.47l0,1.92a6.67,6.67,0,0,0,.08,1.21,3.53,3.53,0,0,0,.3.83H93.06q-.06-.16-.16-.49l-.06-.19a3,3,0,0,1-.9.62,2.58,2.58,0,0,1-1,.21,2.12,2.12,0,0,1-1.51-.52,1.73,1.73,0,0,1-.55-1.32,1.77,1.77,0,0,1,.25-.94,1.65,1.65,0,0,1,.71-.63,5.52,5.52,0,0,1,1.31-.38,9,9,0,0,0,1.6-.4v-.16a.85.85,0,0,0-.23-.68,1.4,1.4,0,0,0-.88-.2,1.18,1.18,0,0,0-.69.17A1.2,1.2,0,0,0,90.51,153.39Zm2.2,1.34a10.29,10.29,0,0,1-1,.25,3,3,0,0,0-.9.29.69.69,0,0,0-.32.58.81.81,0,0,0,.26.6.9.9,0,0,0,.66.25,1.43,1.43,0,0,0,.85-.29,1,1,0,0,0,.39-.54,3.25,3.25,0,0,0,.06-.8Z" style="fill:#010101"/><path d="M97.53,157.71H95.88v-6.22h1.53v.88a2.66,2.66,0,0,1,.71-.83,1.3,1.3,0,0,1,.71-.2,2.09,2.09,0,0,1,1.08.31l-.51,1.44a1.44,1.44,0,0,0-.77-.27A.91.91,0,0,0,98,153a1.3,1.3,0,0,0-.38.69,9.78,9.78,0,0,0-.14,2.09Z" style="fill:#010101"/><path d="M100.55,157.71v-8.59h1.65v3.09a2.33,2.33,0,0,1,1.8-.87,2.43,2.43,0,0,1,1.88.82,3.41,3.41,0,0,1,.74,2.36,3.6,3.6,0,0,1-.76,2.46,2.37,2.37,0,0,1-1.84.86,2.28,2.28,0,0,1-1.05-.27,2.51,2.51,0,0,1-.89-.79v.91Zm1.63-3.25a2.65,2.65,0,0,0,.3,1.43,1.3,1.3,0,0,0,1.14.66,1.16,1.16,0,0,0,.93-.47,2.29,2.29,0,0,0,.38-1.47,2.43,2.43,0,0,0-.39-1.54,1.22,1.22,0,0,0-1-.47,1.24,1.24,0,0,0-1,.46A2.11,2.11,0,0,0,102.19,154.47Z" style="fill:#010101"/><path d="M107.57,154.51a3.37,3.37,0,0,1,.4-1.59,2.78,2.78,0,0,1,1.15-1.17,3.4,3.4,0,0,1,1.66-.4,3.11,3.11,0,0,1,2.31.92,3.17,3.17,0,0,1,.9,2.32,3.21,3.21,0,0,1-.91,2.34,3.08,3.08,0,0,1-2.29.93,3.61,3.61,0,0,1-1.63-.39,2.65,2.65,0,0,1-1.18-1.13A3.78,3.78,0,0,1,107.57,154.51Zm1.69.09a2.06,2.06,0,0,0,.44,1.42,1.44,1.44,0,0,0,2.17,0,2.09,2.09,0,0,0,.44-1.43,2.05,2.05,0,0,0-.44-1.41,1.44,1.44,0,0,0-2.17,0A2.06,2.06,0,0,0,109.26,154.6Z" style="fill:#010101"/><path d="M120.94,157.71H119.3v-3.18a4.91,4.91,0,0,0-.11-1.3.91.91,0,0,0-.34-.46,1,1,0,0,0-.57-.16,1.32,1.32,0,0,0-.77.23,1.18,1.18,0,0,0-.47.62,5.37,5.37,0,0,0-.13,1.43v2.82h-1.65v-6.22h1.53v.91a2.55,2.55,0,0,1,3-.86,1.67,1.67,0,0,1,.68.5,1.81,1.81,0,0,1,.32.69,5.14,5.14,0,0,1,.09,1.11Z" style="fill:#010101"/><path d="M125.82,151.49h1.52v.85a2.44,2.44,0,0,1,1.94-1,2.09,2.09,0,0,1,1,.25,1.89,1.89,0,0,1,.72.74,2.87,2.87,0,0,1,.88-.74,2.17,2.17,0,0,1,1-.25,2.26,2.26,0,0,1,1.16.28,1.71,1.71,0,0,1,.71.82,3.55,3.55,0,0,1,.17,1.29v4h-1.65v-3.56a2.65,2.65,0,0,0-.17-1.2.78.78,0,0,0-.7-.35,1.12,1.12,0,0,0-.65.21,1.17,1.17,0,0,0-.44.62,4.45,4.45,0,0,0-.13,1.29v3h-1.65V154.3a4.73,4.73,0,0,0-.09-1.17.75.75,0,0,0-.27-.39.86.86,0,0,0-.5-.13,1.2,1.2,0,0,0-.69.21,1.12,1.12,0,0,0-.44.59,4.4,4.4,0,0,0-.13,1.28v3h-1.65Z" style="fill:#010101"/><path d="M136.24,154.51a3.37,3.37,0,0,1,.4-1.59,2.78,2.78,0,0,1,1.15-1.17,3.4,3.4,0,0,1,1.66-.4,3.11,3.11,0,0,1,2.31.92,3.17,3.17,0,0,1,.9,2.32,3.21,3.21,0,0,1-.91,2.34,3.08,3.08,0,0,1-2.29.93,3.61,3.61,0,0,1-1.63-.39,2.65,2.65,0,0,1-1.18-1.13A3.78,3.78,0,0,1,136.24,154.51Zm1.69.09a2.06,2.06,0,0,0,.44,1.42,1.44,1.44,0,0,0,2.17,0,2.09,2.09,0,0,0,.44-1.43,2.05,2.05,0,0,0-.44-1.41,1.44,1.44,0,0,0-2.17,0A2.06,2.06,0,0,0,137.92,154.6Z" style="fill:#010101"/><path d="M149.61,157.71H148v-3.18a4.91,4.91,0,0,0-.11-1.3.91.91,0,0,0-.34-.46,1,1,0,0,0-.57-.16,1.32,1.32,0,0,0-.77.23,1.18,1.18,0,0,0-.47.62,5.37,5.37,0,0,0-.13,1.43v2.82h-1.65v-6.22h1.53v.91a2.55,2.55,0,0,1,3-.86,1.67,1.67,0,0,1,.68.5,1.81,1.81,0,0,1,.32.69,5.14,5.14,0,0,1,.09,1.11Z" style="fill:#010101"/><path d="M150.9,154.51a3.37,3.37,0,0,1,.4-1.59,2.78,2.78,0,0,1,1.15-1.17,3.4,3.4,0,0,1,1.66-.4,3.11,3.11,0,0,1,2.31.92,3.17,3.17,0,0,1,.9,2.32,3.21,3.21,0,0,1-.91,2.34,3.08,3.08,0,0,1-2.29.93,3.61,3.61,0,0,1-1.63-.39,2.65,2.65,0,0,1-1.18-1.13A3.78,3.78,0,0,1,150.9,154.51Zm1.69.09A2.06,2.06,0,0,0,153,156a1.44,1.44,0,0,0,2.17,0,2.09,2.09,0,0,0,.44-1.43,2.05,2.05,0,0,0-.44-1.41,1.44,1.44,0,0,0-2.17,0A2.06,2.06,0,0,0,152.58,154.6Z" style="fill:#010101"/><path d="M157.82,157.71l2.24-3.21-2.15-3h2l1.1,1.71,1.16-1.71h1.93L162,154.44l2.3,3.28h-2L161,155.79l-1.28,1.93Z" style="fill:#010101"/><path d="M165.28,150.65v-1.52h1.65v1.52Zm0,7.07v-6.22h1.65v6.22Z" style="fill:#010101"/><path d="M174.31,157.71h-1.53v-.91a2.47,2.47,0,0,1-.9.79,2.3,2.3,0,0,1-1,.26A2.37,2.37,0,0,1,169,157a3.52,3.52,0,0,1-.76-2.41,3.47,3.47,0,0,1,.74-2.41,2.43,2.43,0,0,1,1.88-.82,2.33,2.33,0,0,1,1.8.87v-3.09h1.65Zm-4.39-3.25a2.85,2.85,0,0,0,.28,1.44,1.24,1.24,0,0,0,1.11.64,1.21,1.21,0,0,0,1-.48,2.23,2.23,0,0,0,.4-1.44,2.44,2.44,0,0,0-.39-1.54,1.22,1.22,0,0,0-1-.47,1.24,1.24,0,0,0-1,.47A2.1,2.1,0,0,0,169.92,154.47Z" style="fill:#010101"/><path d="M179.54,155.73l1.64.28a2.69,2.69,0,0,1-1,1.37,2.93,2.93,0,0,1-1.71.47,2.78,2.78,0,0,1-2.4-1.06,3.56,3.56,0,0,1-.62-2.14,3.44,3.44,0,0,1,.81-2.42,2.66,2.66,0,0,1,2-.88,2.76,2.76,0,0,1,2.19.92,4.06,4.06,0,0,1,.77,2.81h-4.12a1.67,1.67,0,0,0,.4,1.14,1.25,1.25,0,0,0,.95.41,1,1,0,0,0,.65-.21A1.3,1.3,0,0,0,179.54,155.73Zm.09-1.66a1.59,1.59,0,0,0-.37-1.09,1.19,1.19,0,0,0-1.75,0,1.52,1.52,0,0,0-.35,1.07Z" style="fill:#010101"/><path d="M185.89,151.49h1.54v.91a2.3,2.3,0,0,1,.81-.76,2.23,2.23,0,0,1,1.13-.29,2.37,2.37,0,0,1,1.84.85,3.44,3.44,0,0,1,.76,2.37,3.54,3.54,0,0,1-.76,2.42,2.37,2.37,0,0,1-1.85.86,2.1,2.1,0,0,1-.94-.21,3.15,3.15,0,0,1-.88-.7v3.13h-1.65Zm1.63,3a2.4,2.4,0,0,0,.42,1.55,1.27,1.27,0,0,0,1,.5,1.19,1.19,0,0,0,1-.46,2.37,2.37,0,0,0,.38-1.51,2.25,2.25,0,0,0-.39-1.45,1.21,1.21,0,0,0-1-.47,1.26,1.26,0,0,0-1,.47A2.07,2.07,0,0,0,187.52,154.5Z" style="fill:#010101"/><path d="M192.89,154.51a3.37,3.37,0,0,1,.4-1.59,2.77,2.77,0,0,1,1.14-1.17,3.4,3.4,0,0,1,1.66-.4,3.11,3.11,0,0,1,2.31.92,3.17,3.17,0,0,1,.9,2.32,3.21,3.21,0,0,1-.91,2.34,3.08,3.08,0,0,1-2.29.93,3.62,3.62,0,0,1-1.63-.39,2.65,2.65,0,0,1-1.18-1.13A3.78,3.78,0,0,1,192.89,154.51Zm1.69.09A2.06,2.06,0,0,0,195,156a1.44,1.44,0,0,0,2.16,0,2.09,2.09,0,0,0,.44-1.43,2.05,2.05,0,0,0-.44-1.41,1.44,1.44,0,0,0-2.16,0A2.06,2.06,0,0,0,194.58,154.6Z" style="fill:#010101"/><path d="M200.6,150.65v-1.52h1.65v1.52Zm0,7.07v-6.22h1.65v6.22Z" style="fill:#010101"/><path d="M203.36,155.94l1.65-.25a1.21,1.21,0,0,0,.43.73,1.45,1.45,0,0,0,.9.25,1.63,1.63,0,0,0,1-.23.52.52,0,0,0,.22-.44.43.43,0,0,0-.12-.31,1.31,1.31,0,0,0-.55-.22,8.88,8.88,0,0,1-2.53-.8,1.6,1.6,0,0,1-.74-1.4,1.73,1.73,0,0,1,.64-1.36,3,3,0,0,1,2-.55,3.46,3.46,0,0,1,1.9.42A2.13,2.13,0,0,1,209,153l-1.55.29a1,1,0,0,0-.38-.56,1.38,1.38,0,0,0-.79-.19,1.79,1.79,0,0,0-.93.18.39.39,0,0,0-.19.33.36.36,0,0,0,.16.3,6.16,6.16,0,0,0,1.54.46,4.58,4.58,0,0,1,1.84.73,1.52,1.52,0,0,1,.52,1.22,1.88,1.88,0,0,1-.71,1.47,3.16,3.16,0,0,1-2.12.62,3.47,3.47,0,0,1-2-.52A2.37,2.37,0,0,1,203.36,155.94Z" style="fill:#010101"/><path d="M210.23,154.51a3.37,3.37,0,0,1,.4-1.59,2.77,2.77,0,0,1,1.14-1.17,3.4,3.4,0,0,1,1.66-.4,3.11,3.11,0,0,1,2.31.92,3.17,3.17,0,0,1,.9,2.32,3.21,3.21,0,0,1-.91,2.34,3.08,3.08,0,0,1-2.29.93,3.62,3.62,0,0,1-1.63-.39,2.65,2.65,0,0,1-1.18-1.13A3.78,3.78,0,0,1,210.23,154.51Zm1.69.09a2.06,2.06,0,0,0,.44,1.42,1.44,1.44,0,0,0,2.16,0,2.09,2.09,0,0,0,.44-1.43,2.05,2.05,0,0,0-.44-1.41,1.44,1.44,0,0,0-2.16,0A2.06,2.06,0,0,0,211.92,154.6Z" style="fill:#010101"/><path d="M223.6,157.71H222v-3.18a4.91,4.91,0,0,0-.11-1.3.92.92,0,0,0-.34-.46,1,1,0,0,0-.57-.16,1.32,1.32,0,0,0-.77.23,1.18,1.18,0,0,0-.47.62,5.38,5.38,0,0,0-.12,1.43v2.82h-1.65v-6.22h1.53v.91a2.55,2.55,0,0,1,3-.86,1.67,1.67,0,0,1,.68.5,1.81,1.81,0,0,1,.32.69,5.13,5.13,0,0,1,.09,1.11Z" style="fill:#010101"/><path d="M225.27,150.65v-1.52h1.65v1.52Zm0,7.07v-6.22h1.65v6.22Z" style="fill:#010101"/><path d="M234.26,157.71h-1.65v-3.18a4.91,4.91,0,0,0-.11-1.3.92.92,0,0,0-.34-.46,1,1,0,0,0-.57-.16,1.32,1.32,0,0,0-.77.23,1.18,1.18,0,0,0-.47.62,5.38,5.38,0,0,0-.12,1.43v2.82h-1.65v-6.22h1.53v.91a2.55,2.55,0,0,1,3-.86,1.67,1.67,0,0,1,.68.5,1.81,1.81,0,0,1,.32.69,5.13,5.13,0,0,1,.09,1.11Z" style="fill:#010101"/><path d="M235.78,158.12l1.88.23a.64.64,0,0,0,.22.45,1.24,1.24,0,0,0,.74.18,1.92,1.92,0,0,0,1-.19.8.8,0,0,0,.33-.42,2.5,2.5,0,0,0,.08-.76v-.91a2.23,2.23,0,0,1-1.86,1,2.29,2.29,0,0,1-2-1.06,3.6,3.6,0,0,1-.57-2.09,3.43,3.43,0,0,1,.75-2.39,2.43,2.43,0,0,1,1.87-.83,2.28,2.28,0,0,1,1.9,1v-.87h1.54v5.58a5.56,5.56,0,0,1-.18,1.65,2,2,0,0,1-.51.86,2.26,2.26,0,0,1-.88.49,4.6,4.6,0,0,1-1.38.18,3.59,3.59,0,0,1-2.24-.54,1.7,1.7,0,0,1-.66-1.37Q235.78,158.24,235.78,158.12Zm1.47-3.65a2.24,2.24,0,0,0,.38,1.45,1.19,1.19,0,0,0,.95.46,1.31,1.31,0,0,0,1-.47,2.06,2.06,0,0,0,.42-1.4,2.18,2.18,0,0,0-.4-1.44,1.27,1.27,0,0,0-1-.47,1.22,1.22,0,0,0-1,.46A2.16,2.16,0,0,0,237.25,154.47Z" style="fill:#010101"/><path d="M243.26,157.71v-1.65h1.65v1.65Z" style="fill:#010101"/></g><rect x="0.61" y="0.8" width="261.89" height="26.07" style="fill:#010101"/><g style="clip-path:url(#clip-path)"><path d="M73.83,6.51a1.23,1.23,0,0,0-1.2-.85,1.12,1.12,0,0,0-1.13.85l-8,13.83c-1.06,1.76-.14,2.47.92,2.54H80.89c1.13-.07,2-.78.92-2.54Z" style="fill:#fff"/><path d="M73.23,16.87a.53.53,0,0,1-.49.49h-.07a.48.48,0,0,1-.49-.49c-1.62-5.15-2.4-8.75.49-8.75s2.12,3.6.56,8.75" style="fill:#010101"/><path d="M72.66,22.45a1.55,1.55,0,1,1,0-3.1h.07a1.51,1.51,0,0,1,1.48,1.55,1.52,1.52,0,0,1-1.55,1.55" style="fill:#010101"/><path d="M88.28,22.85,84.18,5.67h3.55l2.59,11.8,3.14-11.8h4.13l3,12,2.64-12h3.49l-4.17,17.18H98.87L95.45,10,92,22.85Z" style="fill:#fff"/><path d="M122.69,22.85h-3.77l-1.5-3.9h-6.87l-1.42,3.9h-3.68l6.69-17.18h3.67Zm-6.39-6.8-2.37-6.37-2.32,6.37Z" style="fill:#fff"/><path d="M124.54,22.85V5.67h7.3a12.5,12.5,0,0,1,4,.46,4,4,0,0,1,2,1.65,5,5,0,0,1,.75,2.71,4.59,4.59,0,0,1-1.14,3.19,5.46,5.46,0,0,1-3.4,1.59,8.09,8.09,0,0,1,1.86,1.44,19.58,19.58,0,0,1,2,2.79l2.1,3.35h-4.15l-2.51-3.74a24.25,24.25,0,0,0-1.83-2.53,2.66,2.66,0,0,0-1-.71,5.72,5.72,0,0,0-1.75-.19H128v7.17ZM128,12.94h2.57a13.25,13.25,0,0,0,3.12-.21,1.87,1.87,0,0,0,1-.73,2.24,2.24,0,0,0,.35-1.29,2.06,2.06,0,0,0-.46-1.4,2.12,2.12,0,0,0-1.31-.67q-.42-.06-2.53-.06H128Z" style="fill:#fff"/><path d="M141.9,22.85V5.67h3.38l7,11.47V5.67h3.22V22.85H152l-6.93-11.2v11.2Z" style="fill:#fff"/><path d="M159.09,22.85V5.67h3.47V22.85Z" style="fill:#fff"/><path d="M165.9,22.85V5.67h3.38l7,11.47V5.67h3.22V22.85H176l-6.93-11.2v11.2Z" style="fill:#fff"/><path d="M191.19,16.53V13.64h7.48v6.84a9.41,9.41,0,0,1-3.16,1.86,11.49,11.49,0,0,1-4.19.8,9.4,9.4,0,0,1-4.7-1.13,7.19,7.19,0,0,1-3-3.23,10.45,10.45,0,0,1-1-4.58,9.89,9.89,0,0,1,1.13-4.77A7.58,7.58,0,0,1,187,6.23a8.89,8.89,0,0,1,4.11-.86,8.21,8.21,0,0,1,5,1.34,6.06,6.06,0,0,1,2.31,3.71l-3.45.64a3.64,3.64,0,0,0-1.37-2,4.13,4.13,0,0,0-2.5-.73,4.7,4.7,0,0,0-3.62,1.44,6.07,6.07,0,0,0-1.34,4.28,6.73,6.73,0,0,0,1.36,4.59,4.54,4.54,0,0,0,3.56,1.53,6,6,0,0,0,2.19-.43,7.49,7.49,0,0,0,1.88-1V16.53Z" style="fill:#fff"/></g></svg>