<svg id="text" xmlns="http://www.w3.org/2000/svg" xmlns:xlink="http://www.w3.org/1999/xlink" viewBox="0 0 262.96 112.52"><defs><clipPath id="clip-path" transform="translate(-0.52 -0.52)"><rect width="264" height="114.21" style="fill:none"/></clipPath></defs><title>warning_elctrcl_shck_hzrd_fll_pwr_prsnt_</title><path d="M11.25,41.46S23.42,51.22,26.79,54.6c.95,1.06,2.9,3.49.06,6.4a62.65,62.65,0,0,0-4.5,4.62c-2.19,2-3.91,6.83.14,10.28A20.72,20.72,0,0,0,30,79.43c.19,0,.16-.23.27-.47l.27-.74h0c.74.16.8.29,1.13.84l1.07,2.73c.15.45,1,.31.85-.13l-1.11-3.06c1,.33,2.35.78,3.48,1.11.43.12.66-.7.19-.86l-3.32-1.12L36,77.09c.32-.08.28-.89-.37-.78,0,0-3.34.75-3.71.79A2.5,2.5,0,0,1,30.86,77l.4-1.44c.14-.53.25-.52,0-.64a32.37,32.37,0,0,1-4.07-1.43c-4.36-2-1.91-5-.54-6.11a26.38,26.38,0,0,0,5-5c3.45-5.87-.37-10-2.79-12.15S14,37.65,14,37.65Z" transform="translate(-0.52 -0.52)"/><path d="M69,53.33c0-3-4.24-3-4.27-.28l-1,18.29a.79.79,0,0,1-1.57,0l0-23.82a2.22,2.22,0,1,0-4.42-.16l-.3,22.76a.81.81,0,1,1-1.61,0l-.71-26.43c0-3.88-4.95-3.67-4.95.06l.67,26.92c0,1.26-1.65,1.29-1.61-.08l-.45-22.88a2.52,2.52,0,1,0-5,.2l.67,26.49c-.08,1.22-1.54,1.14-1.54,0l-.19-9.22c-.15-5.69-3.22-6-4.35-6.63s-1.24.55-1.2,1.33c0,2.24.41,5.65.11,8a17.16,17.16,0,0,0,.15,2.55A72.93,72.93,0,0,1,37.86,80L54.2,73.94c.71-.24,1,.24.68.67l-4.57,7.1c-.15.2-.23.47.34.31l14-5.3c.45-.16,1.09.23.45.9l-7,6.87c-.45.39-.34.63.3.55l10.72-2.51Z" transform="translate(-0.52 -0.52)"/><path d="M69.24,85.95c.07-.51-.34-.35-.6-.28L50.31,89.83c-.56,0-.56-.39-.23-.71L55,84.26c.52-.47-.08-.55-.34-.43L43.67,87.91c-.67.24-.6-.35-.45-.59l4.61-7.06c.45-.63-.19-.63-.41-.51l-9.48,3.53c0,3.14-.64,4.83,2.25,10.13.56,1.06,4,5.53,4,8.95a9.32,9.32,0,0,1-.53,3.14H64.33c-.11-2.43-.23-4.24-.23-4.24-.07-1.45-.34-2.08,1.09-4.4A32.4,32.4,0,0,0,69.24,85.95Z" transform="translate(-0.52 -0.52)"/><g style="clip-path:url(#clip-path)"><polyline points="0.85 21.63 262.18 21.63 262.18 0.36 0.85 0.36"/><path d="M198.55,13.8V11.29h7.91v5.94a10.63,10.63,0,0,1-3.34,1.61,14.63,14.63,0,0,1-4.43.69,11.76,11.76,0,0,1-5-1,6.93,6.93,0,0,1-3.19-2.81,7.72,7.72,0,0,1-1.07-4,7.38,7.38,0,0,1,1.19-4.14,7.52,7.52,0,0,1,3.49-2.77,11.12,11.12,0,0,1,4.35-.74,10.14,10.14,0,0,1,5.28,1.16,5.25,5.25,0,0,1,2.45,3.22l-3.64.56a3.24,3.24,0,0,0-1.45-1.73,5.07,5.07,0,0,0-2.64-.64,5.59,5.59,0,0,0-3.83,1.25,4.69,4.69,0,0,0-1.42,3.71,5.15,5.15,0,0,0,1.44,4A5.33,5.33,0,0,0,198.45,17a7.58,7.58,0,0,0,2.31-.37,8.67,8.67,0,0,0,2-.9V13.8m-31,5.48V4.38h3.57l7.44,10v-10h3.41v14.9h-3.69l-7.33-9.72v9.72Zm-7.2,0V4.38h3.67v14.9Zm-18.19,0V4.38H150l7.44,10v-10h3.41v14.9h-3.69l-7.32-9.72v9.72Zm-14.69-8.6h2.71a17.2,17.2,0,0,0,3.3-.18,2,2,0,0,0,1-.63,1.71,1.71,0,0,0,.37-1.12,1.59,1.59,0,0,0-.49-1.21A2.44,2.44,0,0,0,137.26,7q-.44,0-2.68,0h-2.86ZM128,19.28V4.38h7.73a16,16,0,0,1,4.23.4,4.11,4.11,0,0,1,2.12,1.43,3.74,3.74,0,0,1,.79,2.35,3.6,3.6,0,0,1-1.2,2.77,6.37,6.37,0,0,1-3.6,1.37,8.56,8.56,0,0,1,2,1.25,17.67,17.67,0,0,1,2.09,2.42l2.22,2.91H140L137.35,16a21.88,21.88,0,0,0-1.93-2.19,3,3,0,0,0-1.1-.62,7.36,7.36,0,0,0-1.85-.17h-.74v6.22Zm-8.71-5.9-2.5-5.53-2.45,5.53Zm6.76,5.9h-4l-1.59-3.39h-7.27l-1.5,3.39h-3.89l7.08-14.9h3.88Zm-36.37,0L85.38,4.38h3.75l2.74,10.24L95.2,4.38h4.36l3.19,10.41,2.79-10.41h3.69l-4.41,14.9h-3.89L97.31,8.14,93.7,19.28ZM71.8,13c0,.29-.35.5-.61.5H71.1a.55.55,0,0,1-.62-.5c-2-5.25-3-8.92.62-8.92S73.74,7.76,71.8,13Zm-.7,5.68a1.8,1.8,0,0,1-1.93-1.58,1.8,1.8,0,0,1,1.93-1.58h.09A1.71,1.71,0,0,1,73,17.12,1.74,1.74,0,0,1,71.1,18.7Zm1.49-16a1.59,1.59,0,0,0-1.49-.86,1.43,1.43,0,0,0-1.4.86l-10,14.1c-1.32,1.8-.18,2.52,1.14,2.59H81.37c1.4-.07,2.46-.79,1.14-2.59Z" transform="translate(-0.52 -0.52)" style="fill:#fff"/></g><rect x="0.5" y="0.5" width="261.96" height="111.52" style="fill:none;stroke:#000;stroke-miterlimit:10"/><line x1="85.98" y1="24.2" x2="85.98" y2="111.69" style="fill:none;stroke:#000"/><line x1="86.06" y1="42.61" x2="262.39" y2="42.61" style="fill:none;stroke:#000"/><path d="M92.65,60.8V54.35H97v.76H93.51v2h3v.76h-3V60.8Z" transform="translate(-0.52 -0.52)"/><path d="M101.07,60.8v-.69a1.71,1.71,0,0,1-1.48.79,1.89,1.89,0,0,1-.77-.16,1.27,1.27,0,0,1-.53-.4,1.48,1.48,0,0,1-.24-.59A4,4,0,0,1,98,59V56.13h.79v2.59a4.61,4.61,0,0,0,0,.83.82.82,0,0,0,.32.49,1,1,0,0,0,.6.18,1.3,1.3,0,0,0,.67-.18,1,1,0,0,0,.44-.5,2.49,2.49,0,0,0,.13-.91v-2.5h.79V60.8Z" transform="translate(-0.52 -0.52)"/><path d="M103,60.8V54.35h.79V60.8Z" transform="translate(-0.52 -0.52)"/><path d="M105,60.8V54.35h.79V60.8Z" transform="translate(-0.52 -0.52)"/><path d="M109.51,62.58V56.13h.72v.61a1.78,1.78,0,0,1,.58-.53,1.59,1.59,0,0,1,.78-.18,1.84,1.84,0,0,1,1.05.31,1.89,1.89,0,0,1,.69.87,3.17,3.17,0,0,1,.23,1.23,3.11,3.11,0,0,1-.26,1.29,2,2,0,0,1-1.78,1.18,1.49,1.49,0,0,1-.71-.17,1.62,1.62,0,0,1-.52-.42v2.27Zm.72-4.1a2,2,0,0,0,.36,1.33,1.12,1.12,0,0,0,.88.43,1.14,1.14,0,0,0,.9-.45,2.12,2.12,0,0,0,.38-1.38,2.06,2.06,0,0,0-.37-1.34,1.11,1.11,0,0,0-.88-.44,1.14,1.14,0,0,0-.89.47A2.12,2.12,0,0,0,110.23,58.49Z" transform="translate(-0.52 -0.52)"/><path d="M114.22,58.46a2.41,2.41,0,0,1,.72-1.92,2.17,2.17,0,0,1,1.47-.52,2.09,2.09,0,0,1,1.57.63,2.4,2.4,0,0,1,.61,1.74,3.09,3.09,0,0,1-.27,1.42,1.91,1.91,0,0,1-.79.8,2.29,2.29,0,0,1-1.13.29,2.1,2.1,0,0,1-1.58-.63A2.51,2.51,0,0,1,114.22,58.46Zm.81,0a2,2,0,0,0,.39,1.34,1.3,1.3,0,0,0,2,0,2,2,0,0,0,.39-1.37,1.93,1.93,0,0,0-.39-1.31,1.3,1.3,0,0,0-2,0A2,2,0,0,0,115,58.46Z" transform="translate(-0.52 -0.52)"/><path d="M120.38,60.8,119,56.13h.82l.74,2.69.28,1,.24-1,.74-2.73h.81l.7,2.71.23.89.27-.9.8-2.7h.77L123.9,60.8h-.82L122.34,58l-.18-.8-.94,3.59Z" transform="translate(-0.52 -0.52)"/><path d="M129.22,59.29l.82.1a2,2,0,0,1-.72,1.11,2.15,2.15,0,0,1-1.34.4,2.13,2.13,0,0,1-1.62-.63,2.46,2.46,0,0,1-.6-1.77,2.58,2.58,0,0,1,.61-1.83,2.05,2.05,0,0,1,1.57-.65,2,2,0,0,1,1.53.64,2.54,2.54,0,0,1,.59,1.79s0,.12,0,.21h-3.48a1.79,1.79,0,0,0,.44,1.18,1.29,1.29,0,0,0,1,.41,1.21,1.21,0,0,0,.74-.23A1.52,1.52,0,0,0,129.22,59.29ZM126.62,58h2.61a1.58,1.58,0,0,0-.3-.88,1.21,1.21,0,0,0-1-.46A1.26,1.26,0,0,0,127,57,1.44,1.44,0,0,0,126.62,58Z" transform="translate(-0.52 -0.52)"/><path d="M131,60.8V56.13h.71v.71a1.91,1.91,0,0,1,.5-.65.88.88,0,0,1,.51-.16,1.54,1.54,0,0,1,.81.25l-.27.73a1.13,1.13,0,0,0-.58-.17.75.75,0,0,0-.47.16.84.84,0,0,0-.29.43,3.08,3.08,0,0,0-.13.92V60.8Z" transform="translate(-0.52 -0.52)"/><path d="M136.53,55.26v-.91h.79v.91Zm0,5.53V56.13h.79V60.8Z" transform="translate(-0.52 -0.52)"/><path d="M138.21,59.4l.78-.12a1.1,1.1,0,0,0,.37.72,1.28,1.28,0,0,0,.84.25A1.24,1.24,0,0,0,141,60a.66.66,0,0,0,.26-.52.48.48,0,0,0-.23-.42,3.47,3.47,0,0,0-.81-.27,7.42,7.42,0,0,1-1.21-.38,1.15,1.15,0,0,1-.68-1.07,1.2,1.2,0,0,1,.14-.58,1.28,1.28,0,0,1,.39-.44,1.63,1.63,0,0,1,.5-.23,2.4,2.4,0,0,1,.68-.09,2.7,2.7,0,0,1,1,.16,1.32,1.32,0,0,1,.61.43,1.68,1.68,0,0,1,.27.72l-.77.11a.85.85,0,0,0-.3-.56,1.12,1.12,0,0,0-.71-.2,1.29,1.29,0,0,0-.78.18.52.52,0,0,0-.23.42.44.44,0,0,0,.1.28.7.7,0,0,0,.3.21l.7.2a9.77,9.77,0,0,1,1.17.37,1.19,1.19,0,0,1,.52.42,1.16,1.16,0,0,1,.19.68,1.33,1.33,0,0,1-.23.75,1.48,1.48,0,0,1-.67.54,2.41,2.41,0,0,1-1,.19,2.19,2.19,0,0,1-1.39-.38A1.76,1.76,0,0,1,138.21,59.4Z" transform="translate(-0.52 -0.52)"/><path d="M145.53,62.58V56.13h.72v.61a1.77,1.77,0,0,1,.58-.53,1.59,1.59,0,0,1,.78-.18,1.85,1.85,0,0,1,1.05.31,1.89,1.89,0,0,1,.69.87,3.17,3.17,0,0,1,.23,1.23,3.11,3.11,0,0,1-.26,1.29,2,2,0,0,1-1.78,1.18,1.49,1.49,0,0,1-.71-.17,1.61,1.61,0,0,1-.52-.42v2.27Zm.72-4.1a2,2,0,0,0,.36,1.33,1.12,1.12,0,0,0,.88.43,1.14,1.14,0,0,0,.9-.45,2.12,2.12,0,0,0,.38-1.38,2.06,2.06,0,0,0-.37-1.34,1.11,1.11,0,0,0-.88-.44,1.14,1.14,0,0,0-.89.47A2.12,2.12,0,0,0,146.24,58.49Z" transform="translate(-0.52 -0.52)"/><path d="M150.52,60.8V56.13h.71v.71a1.91,1.91,0,0,1,.5-.65.88.88,0,0,1,.51-.16,1.54,1.54,0,0,1,.81.25l-.27.73a1.13,1.13,0,0,0-.58-.17.75.75,0,0,0-.47.16.84.84,0,0,0-.29.43,3.08,3.08,0,0,0-.13.92V60.8Z" transform="translate(-0.52 -0.52)"/><path d="M156.72,59.29l.82.1a2,2,0,0,1-.72,1.11,2.15,2.15,0,0,1-1.34.4,2.13,2.13,0,0,1-1.62-.63,2.46,2.46,0,0,1-.6-1.77,2.58,2.58,0,0,1,.61-1.83,2.05,2.05,0,0,1,1.57-.65,2,2,0,0,1,1.53.64,2.54,2.54,0,0,1,.59,1.79s0,.12,0,.21h-3.48a1.79,1.79,0,0,0,.44,1.18,1.29,1.29,0,0,0,1,.41,1.21,1.21,0,0,0,.74-.23A1.52,1.52,0,0,0,156.72,59.29ZM154.13,58h2.61a1.58,1.58,0,0,0-.3-.88,1.21,1.21,0,0,0-1-.46,1.26,1.26,0,0,0-.92.36A1.44,1.44,0,0,0,154.13,58Z" transform="translate(-0.52 -0.52)"/><path d="M158.22,59.4l.78-.12a1.1,1.1,0,0,0,.37.72,1.28,1.28,0,0,0,.84.25A1.24,1.24,0,0,0,161,60a.66.66,0,0,0,.26-.52.48.48,0,0,0-.23-.42,3.47,3.47,0,0,0-.81-.27,7.42,7.42,0,0,1-1.21-.38,1.15,1.15,0,0,1-.68-1.07,1.2,1.2,0,0,1,.14-.58,1.28,1.28,0,0,1,.39-.44,1.63,1.63,0,0,1,.5-.23,2.4,2.4,0,0,1,.68-.09,2.7,2.7,0,0,1,1,.16,1.32,1.32,0,0,1,.61.43,1.68,1.68,0,0,1,.27.72l-.77.11a.85.85,0,0,0-.3-.56,1.12,1.12,0,0,0-.71-.2,1.29,1.29,0,0,0-.78.18.52.52,0,0,0-.23.42.44.44,0,0,0,.1.28.7.7,0,0,0,.3.21l.7.2a9.77,9.77,0,0,1,1.17.37,1.19,1.19,0,0,1,.52.42,1.16,1.16,0,0,1,.19.68,1.33,1.33,0,0,1-.23.75,1.48,1.48,0,0,1-.67.54,2.41,2.41,0,0,1-1,.19,2.19,2.19,0,0,1-1.39-.38A1.76,1.76,0,0,1,158.22,59.4Z" transform="translate(-0.52 -0.52)"/><path d="M166.23,59.29l.82.1a2,2,0,0,1-.72,1.11,2.15,2.15,0,0,1-1.34.4,2.13,2.13,0,0,1-1.62-.63,2.46,2.46,0,0,1-.6-1.77,2.58,2.58,0,0,1,.61-1.83A2.05,2.05,0,0,1,165,56a2,2,0,0,1,1.53.64,2.54,2.54,0,0,1,.59,1.79s0,.12,0,.21h-3.48a1.79,1.79,0,0,0,.44,1.18,1.29,1.29,0,0,0,1,.41,1.21,1.21,0,0,0,.74-.23A1.52,1.52,0,0,0,166.23,59.29ZM163.63,58h2.61a1.58,1.58,0,0,0-.3-.88,1.21,1.21,0,0,0-1-.46A1.26,1.26,0,0,0,164,57,1.44,1.44,0,0,0,163.63,58Z" transform="translate(-0.52 -0.52)"/><path d="M168,60.8V56.13h.71v.66a1.68,1.68,0,0,1,1.49-.77,2,2,0,0,1,.78.15,1.23,1.23,0,0,1,.53.4,1.53,1.53,0,0,1,.25.58,4.53,4.53,0,0,1,0,.77V60.8H171V58a2.1,2.1,0,0,0-.09-.72.76.76,0,0,0-.33-.38,1,1,0,0,0-.55-.14,1.28,1.28,0,0,0-.87.32,1.58,1.58,0,0,0-.37,1.22V60.8Z" transform="translate(-0.52 -0.52)"/><path d="M174.77,60.09l.11.7a2.93,2.93,0,0,1-.6.07,1.35,1.35,0,0,1-.67-.14.76.76,0,0,1-.33-.36,2.83,2.83,0,0,1-.1-.93V56.74h-.58v-.62h.58V55l.79-.47v1.63h.79v.62H174v2.73a1.4,1.4,0,0,0,0,.44.33.33,0,0,0,.14.15.52.52,0,0,0,.27.06Z" transform="translate(-0.52 -0.52)"/><path d="M178.91,60.8l-1.43-4.67h.82l.74,2.69.28,1,.24-1,.74-2.73h.81l.7,2.71.23.89.27-.9.8-2.7h.77l-1.46,4.67h-.82L180.86,58l-.18-.8-.94,3.59Z" transform="translate(-0.52 -0.52)"/><path d="M184.55,60.8V54.35h.79v2.31a1.77,1.77,0,0,1,1.4-.64,1.89,1.89,0,0,1,.9.2,1.2,1.2,0,0,1,.55.56,2.59,2.59,0,0,1,.17,1v3h-.79v-3a1.23,1.23,0,0,0-.26-.86,1,1,0,0,0-.73-.27,1.28,1.28,0,0,0-.66.18,1,1,0,0,0-.44.49,2.27,2.27,0,0,0-.13.86V60.8Z" transform="translate(-0.52 -0.52)"/><path d="M192.75,59.29l.82.1a2,2,0,0,1-.72,1.11,2.15,2.15,0,0,1-1.34.4,2.13,2.13,0,0,1-1.62-.63,2.46,2.46,0,0,1-.6-1.77,2.58,2.58,0,0,1,.61-1.83,2.05,2.05,0,0,1,1.57-.65,2,2,0,0,1,1.53.64,2.54,2.54,0,0,1,.59,1.79s0,.12,0,.21H190.1a1.79,1.79,0,0,0,.44,1.18,1.29,1.29,0,0,0,1,.41,1.21,1.21,0,0,0,.74-.23A1.52,1.52,0,0,0,192.75,59.29ZM190.15,58h2.61a1.58,1.58,0,0,0-.3-.88,1.21,1.21,0,0,0-1-.46,1.26,1.26,0,0,0-.92.36A1.44,1.44,0,0,0,190.15,58Z" transform="translate(-0.52 -0.52)"/><path d="M194.56,60.8V56.13h.71v.66a1.68,1.68,0,0,1,1.49-.77,2,2,0,0,1,.78.15,1.23,1.23,0,0,1,.53.4,1.53,1.53,0,0,1,.25.58,4.53,4.53,0,0,1,0,.77V60.8h-.79V58a2.1,2.1,0,0,0-.09-.72.76.76,0,0,0-.33-.38,1,1,0,0,0-.55-.14,1.28,1.28,0,0,0-.87.32,1.58,1.58,0,0,0-.37,1.22V60.8Z" transform="translate(-0.52 -0.52)"/><path d="M202.76,59.29l.82.1a2,2,0,0,1-.72,1.11,2.15,2.15,0,0,1-1.34.4,2.13,2.13,0,0,1-1.62-.63,2.46,2.46,0,0,1-.6-1.77,2.58,2.58,0,0,1,.61-1.83,2.05,2.05,0,0,1,1.57-.65,2,2,0,0,1,1.53.64,2.54,2.54,0,0,1,.59,1.79s0,.12,0,.21h-3.48a1.79,1.79,0,0,0,.44,1.18,1.29,1.29,0,0,0,1,.41,1.21,1.21,0,0,0,.74-.23A1.52,1.52,0,0,0,202.76,59.29ZM200.16,58h2.61a1.58,1.58,0,0,0-.3-.88,1.21,1.21,0,0,0-1-.46,1.26,1.26,0,0,0-.92.36A1.44,1.44,0,0,0,200.16,58Z" transform="translate(-0.52 -0.52)"/><path d="M205.86,60.8l-1.78-4.67h.83l1,2.79q.16.45.3.94.11-.37.29-.89l1-2.85h.81L206.6,60.8Z" transform="translate(-0.52 -0.52)"/><path d="M212.26,59.29l.82.1a2,2,0,0,1-.72,1.11,2.15,2.15,0,0,1-1.34.4,2.13,2.13,0,0,1-1.62-.63,2.46,2.46,0,0,1-.6-1.77,2.58,2.58,0,0,1,.61-1.83A2.05,2.05,0,0,1,211,56a2,2,0,0,1,1.53.64,2.54,2.54,0,0,1,.59,1.79s0,.12,0,.21h-3.48a1.79,1.79,0,0,0,.44,1.18,1.29,1.29,0,0,0,1,.41,1.21,1.21,0,0,0,.74-.23A1.52,1.52,0,0,0,212.26,59.29ZM209.67,58h2.61a1.58,1.58,0,0,0-.3-.88,1.21,1.21,0,0,0-1-.46,1.26,1.26,0,0,0-.92.36A1.44,1.44,0,0,0,209.67,58Z" transform="translate(-0.52 -0.52)"/><path d="M214.06,60.8V56.13h.71v.71a1.91,1.91,0,0,1,.5-.65.88.88,0,0,1,.51-.16,1.54,1.54,0,0,1,.81.25l-.27.73a1.13,1.13,0,0,0-.58-.17.75.75,0,0,0-.47.16.84.84,0,0,0-.29.43,3.08,3.08,0,0,0-.13.92V60.8Z" transform="translate(-0.52 -0.52)"/><path d="M221.3,60.09l.11.7a2.93,2.93,0,0,1-.6.07,1.35,1.35,0,0,1-.67-.14.76.76,0,0,1-.33-.36,2.83,2.83,0,0,1-.1-.93V56.74h-.58v-.62h.58V55l.79-.47v1.63h.79v.62h-.79v2.73a1.4,1.4,0,0,0,0,.44.33.33,0,0,0,.14.15.52.52,0,0,0,.27.06Z" transform="translate(-0.52 -0.52)"/><path d="M222.07,60.8V54.35h.79v2.31a1.77,1.77,0,0,1,1.4-.64,1.89,1.89,0,0,1,.9.2,1.2,1.2,0,0,1,.55.56,2.59,2.59,0,0,1,.17,1v3h-.79v-3a1.23,1.23,0,0,0-.26-.86,1,1,0,0,0-.73-.27,1.28,1.28,0,0,0-.66.18,1,1,0,0,0-.44.49,2.27,2.27,0,0,0-.13.86V60.8Z" transform="translate(-0.52 -0.52)"/><path d="M230.27,59.29l.82.1a2,2,0,0,1-.72,1.11,2.15,2.15,0,0,1-1.34.4,2.13,2.13,0,0,1-1.62-.63,2.46,2.46,0,0,1-.6-1.77,2.58,2.58,0,0,1,.61-1.83A2.05,2.05,0,0,1,229,56a2,2,0,0,1,1.53.64,2.54,2.54,0,0,1,.59,1.79s0,.12,0,.21h-3.48a1.79,1.79,0,0,0,.44,1.18,1.29,1.29,0,0,0,1,.41,1.21,1.21,0,0,0,.74-.23A1.52,1.52,0,0,0,230.27,59.29ZM227.67,58h2.61a1.58,1.58,0,0,0-.3-.88,1.21,1.21,0,0,0-1-.46,1.26,1.26,0,0,0-.92.36A1.44,1.44,0,0,0,227.67,58Z" transform="translate(-0.52 -0.52)"/><path d="M95.56,69.09l.78.1a2,2,0,0,1-.65,1.26,1.9,1.9,0,0,1-1.29.46,2,2,0,0,1-1.54-.63,2.54,2.54,0,0,1-.58-1.8,3.25,3.25,0,0,1,.25-1.32,1.75,1.75,0,0,1,.76-.85A2.27,2.27,0,0,1,94.39,66a1.94,1.94,0,0,1,1.24.38,1.76,1.76,0,0,1,.62,1.09l-.77.12a1.28,1.28,0,0,0-.39-.71,1,1,0,0,0-.67-.24,1.23,1.23,0,0,0-1,.43,2,2,0,0,0-.37,1.36,2.1,2.1,0,0,0,.36,1.37,1.17,1.17,0,0,0,.94.43,1.11,1.11,0,0,0,.78-.29A1.42,1.42,0,0,0,95.56,69.09Z" transform="translate(-0.52 -0.52)"/><path d="M100.06,70.22a3,3,0,0,1-.85.53,2.45,2.45,0,0,1-.87.15,1.69,1.69,0,0,1-1.18-.38,1.24,1.24,0,0,1-.41-1,1.3,1.3,0,0,1,.56-1.08,1.92,1.92,0,0,1,.57-.26,5.65,5.65,0,0,1,.7-.12,7.23,7.23,0,0,0,1.41-.27q0-.16,0-.21a.87.87,0,0,0-.22-.68,1.32,1.32,0,0,0-.9-.27,1.4,1.4,0,0,0-.82.2,1.19,1.19,0,0,0-.39.69l-.77-.11a1.92,1.92,0,0,1,.35-.8,1.52,1.52,0,0,1,.7-.47A3.1,3.1,0,0,1,99,66a2.8,2.8,0,0,1,1,.14,1.28,1.28,0,0,1,.55.35,1.25,1.25,0,0,1,.25.54,4.45,4.45,0,0,1,0,.73v1.05a11.2,11.2,0,0,0,.05,1.4,1.76,1.76,0,0,0,.2.56h-.83A1.68,1.68,0,0,1,100.06,70.22ZM100,68.45a5.8,5.8,0,0,1-1.29.3,3,3,0,0,0-.69.16.69.69,0,0,0-.31.26.7.7,0,0,0,.13.9,1,1,0,0,0,.7.21,1.63,1.63,0,0,0,.81-.2,1.23,1.23,0,0,0,.52-.55,1.91,1.91,0,0,0,.13-.79Z" transform="translate(-0.52 -0.52)"/><path d="M102.74,70.8H102V64.35h.79v2.3a1.57,1.57,0,0,1,1.28-.63,2,2,0,0,1,.81.17,1.67,1.67,0,0,1,.63.49,2.36,2.36,0,0,1,.39.76,3.13,3.13,0,0,1,.14.95,2.67,2.67,0,0,1-.59,1.85,1.86,1.86,0,0,1-1.42.66,1.49,1.49,0,0,1-1.3-.69Zm0-2.37a2.42,2.42,0,0,0,.23,1.21,1.13,1.13,0,0,0,1.91.16,2,2,0,0,0,.38-1.34,2.08,2.08,0,0,0-.36-1.35,1.1,1.1,0,0,0-.88-.44,1.14,1.14,0,0,0-.9.45A2,2,0,0,0,102.74,68.43Z" transform="translate(-0.52 -0.52)"/><path d="M107,65.26v-.91h.79v.91Zm0,5.53V66.13h.79V70.8Z" transform="translate(-0.52 -0.52)"/><path d="M109,70.8V66.13h.71v.66a1.68,1.68,0,0,1,1.49-.77,2,2,0,0,1,.78.15,1.23,1.23,0,0,1,.53.4,1.53,1.53,0,0,1,.25.58,4.53,4.53,0,0,1,0,.77V70.8H112V68a2.13,2.13,0,0,0-.09-.72.76.76,0,0,0-.33-.38,1,1,0,0,0-.55-.14,1.28,1.28,0,0,0-.87.32,1.58,1.58,0,0,0-.37,1.22V70.8Z" transform="translate(-0.52 -0.52)"/><path d="M117.22,69.29l.82.1a2,2,0,0,1-.72,1.11,2.42,2.42,0,0,1-3-.24,2.46,2.46,0,0,1-.6-1.77,2.58,2.58,0,0,1,.61-1.83,2.05,2.05,0,0,1,1.57-.65,2,2,0,0,1,1.53.64,2.53,2.53,0,0,1,.59,1.79s0,.12,0,.21h-3.48a1.79,1.79,0,0,0,.44,1.18,1.29,1.29,0,0,0,1,.41,1.21,1.21,0,0,0,.74-.23A1.52,1.52,0,0,0,117.22,69.29ZM114.62,68h2.61a1.58,1.58,0,0,0-.3-.88,1.21,1.21,0,0,0-1-.46A1.26,1.26,0,0,0,115,67,1.44,1.44,0,0,0,114.62,68Z" transform="translate(-0.52 -0.52)"/><path d="M119,70.8V66.13h.71v.66a1.68,1.68,0,0,1,1.49-.77,2,2,0,0,1,.78.15,1.23,1.23,0,0,1,.53.4,1.53,1.53,0,0,1,.25.58,4.53,4.53,0,0,1,0,.77V70.8H122V68a2.13,2.13,0,0,0-.09-.72.76.76,0,0,0-.33-.38,1,1,0,0,0-.55-.14,1.28,1.28,0,0,0-.87.32,1.58,1.58,0,0,0-.37,1.22V70.8Z" transform="translate(-0.52 -0.52)"/><path d="M125.76,70.09l.11.7a2.93,2.93,0,0,1-.6.07,1.35,1.35,0,0,1-.67-.14.76.76,0,0,1-.33-.36,2.83,2.83,0,0,1-.1-.93V66.74h-.58v-.62h.58V65l.79-.47v1.63h.79v.62H125v2.73a1.4,1.4,0,0,0,0,.44.33.33,0,0,0,.14.15.52.52,0,0,0,.27.06Z" transform="translate(-0.52 -0.52)"/><path d="M132.06,70.8v-.59a1.45,1.45,0,0,1-1.3.69,1.83,1.83,0,0,1-1-.31,2,2,0,0,1-.73-.86,3,3,0,0,1-.26-1.27A3.3,3.3,0,0,1,129,67.2a1.83,1.83,0,0,1,.7-.87,1.87,1.87,0,0,1,1-.3,1.56,1.56,0,0,1,.75.18,1.58,1.58,0,0,1,.54.46V64.35h.79V70.8Zm-2.5-2.33a2,2,0,0,0,.38,1.34,1.14,1.14,0,0,0,.89.44,1.12,1.12,0,0,0,.88-.42,2,2,0,0,0,.36-1.29,2.19,2.19,0,0,0-.37-1.41,1.14,1.14,0,0,0-.91-.45,1.09,1.09,0,0,0-.88.43A2.12,2.12,0,0,0,129.56,68.47Z" transform="translate(-0.52 -0.52)"/><path d="M133.75,68.46a2.41,2.41,0,0,1,.72-1.92,2.17,2.17,0,0,1,1.47-.52,2.09,2.09,0,0,1,1.57.63,2.4,2.4,0,0,1,.61,1.74,3.09,3.09,0,0,1-.27,1.42,1.91,1.91,0,0,1-.79.8,2.29,2.29,0,0,1-1.13.29,2.1,2.1,0,0,1-1.58-.63A2.51,2.51,0,0,1,133.75,68.46Zm.81,0a2,2,0,0,0,.39,1.34,1.3,1.3,0,0,0,2,0,2,2,0,0,0,.39-1.37,1.93,1.93,0,0,0-.39-1.31,1.3,1.3,0,0,0-2,0A2,2,0,0,0,134.56,68.46Z" transform="translate(-0.52 -0.52)"/><path d="M138.75,68.46a2.41,2.41,0,0,1,.72-1.92,2.17,2.17,0,0,1,1.47-.52,2.09,2.09,0,0,1,1.57.63,2.4,2.4,0,0,1,.61,1.74,3.09,3.09,0,0,1-.27,1.42,1.91,1.91,0,0,1-.79.8,2.29,2.29,0,0,1-1.13.29,2.1,2.1,0,0,1-1.58-.63A2.51,2.51,0,0,1,138.75,68.46Zm.81,0a2,2,0,0,0,.39,1.34,1.3,1.3,0,0,0,2,0,2,2,0,0,0,.39-1.37,1.93,1.93,0,0,0-.39-1.31,1.3,1.3,0,0,0-2,0A2,2,0,0,0,139.57,68.46Z" transform="translate(-0.52 -0.52)"/><path d="M144,70.8V66.13h.71v.71a1.91,1.91,0,0,1,.5-.65.88.88,0,0,1,.51-.16,1.54,1.54,0,0,1,.81.25l-.27.73a1.13,1.13,0,0,0-.58-.17.75.75,0,0,0-.47.16.84.84,0,0,0-.29.43,3.08,3.08,0,0,0-.13.92V70.8Z" transform="translate(-0.52 -0.52)"/><path d="M149.56,65.26v-.91h.79v.91Zm0,5.53V66.13h.79V70.8Z" transform="translate(-0.52 -0.52)"/><path d="M151.24,69.4l.78-.12a1.1,1.1,0,0,0,.37.72,1.28,1.28,0,0,0,.84.25A1.24,1.24,0,0,0,154,70a.66.66,0,0,0,.26-.52.48.48,0,0,0-.23-.42,3.47,3.47,0,0,0-.81-.27,7.42,7.42,0,0,1-1.21-.38,1.15,1.15,0,0,1-.68-1.07,1.2,1.2,0,0,1,.14-.58,1.28,1.28,0,0,1,.39-.44,1.63,1.63,0,0,1,.5-.23,2.4,2.4,0,0,1,.68-.09,2.7,2.7,0,0,1,1,.16,1.32,1.32,0,0,1,.61.43,1.68,1.68,0,0,1,.27.72l-.77.11a.85.85,0,0,0-.3-.56,1.12,1.12,0,0,0-.71-.2,1.29,1.29,0,0,0-.78.18.52.52,0,0,0-.23.42.44.44,0,0,0,.1.28.7.7,0,0,0,.3.21l.7.2a9.77,9.77,0,0,1,1.17.37,1.19,1.19,0,0,1,.52.42,1.16,1.16,0,0,1,.19.68,1.33,1.33,0,0,1-.23.75,1.48,1.48,0,0,1-.67.54,2.41,2.41,0,0,1-1,.19,2.19,2.19,0,0,1-1.39-.38A1.76,1.76,0,0,1,151.24,69.4Z" transform="translate(-0.52 -0.52)"/><path d="M158.26,68.46a2.41,2.41,0,0,1,.72-1.92,2.17,2.17,0,0,1,1.47-.52,2.09,2.09,0,0,1,1.57.63,2.4,2.4,0,0,1,.61,1.74,3.09,3.09,0,0,1-.27,1.42,1.91,1.91,0,0,1-.79.8,2.29,2.29,0,0,1-1.13.29,2.1,2.1,0,0,1-1.58-.63A2.51,2.51,0,0,1,158.26,68.46Zm.81,0a2,2,0,0,0,.39,1.34,1.3,1.3,0,0,0,2,0,2,2,0,0,0,.39-1.37,1.93,1.93,0,0,0-.39-1.31,1.3,1.3,0,0,0-2,0A2,2,0,0,0,159.07,68.46Z" transform="translate(-0.52 -0.52)"/><path d="M163.56,72.58V66.13h.72v.61a1.77,1.77,0,0,1,.58-.53,1.59,1.59,0,0,1,.78-.18,1.85,1.85,0,0,1,1.05.31,1.89,1.89,0,0,1,.69.87,3.17,3.17,0,0,1,.23,1.23,3.11,3.11,0,0,1-.26,1.29,2,2,0,0,1-1.78,1.19,1.49,1.49,0,0,1-.71-.17,1.61,1.61,0,0,1-.52-.42v2.27Zm.72-4.1a2,2,0,0,0,.36,1.33,1.12,1.12,0,0,0,.88.43,1.14,1.14,0,0,0,.9-.45,2.12,2.12,0,0,0,.38-1.38,2.06,2.06,0,0,0-.37-1.34,1.11,1.11,0,0,0-.88-.44,1.14,1.14,0,0,0-.89.47A2.12,2.12,0,0,0,164.27,68.49Z" transform="translate(-0.52 -0.52)"/><path d="M171.76,69.29l.82.1a2,2,0,0,1-.72,1.11,2.15,2.15,0,0,1-1.34.4,2.13,2.13,0,0,1-1.62-.63,2.46,2.46,0,0,1-.6-1.77,2.58,2.58,0,0,1,.61-1.83,2.05,2.05,0,0,1,1.57-.65,2,2,0,0,1,1.53.64,2.54,2.54,0,0,1,.59,1.79s0,.12,0,.21h-3.48a1.79,1.79,0,0,0,.44,1.18,1.29,1.29,0,0,0,1,.41,1.21,1.21,0,0,0,.74-.23A1.52,1.52,0,0,0,171.76,69.29ZM169.16,68h2.61a1.58,1.58,0,0,0-.3-.88,1.21,1.21,0,0,0-1-.46,1.26,1.26,0,0,0-.92.36A1.44,1.44,0,0,0,169.16,68Z" transform="translate(-0.52 -0.52)"/><path d="M173.57,70.8V66.13h.71v.66a1.68,1.68,0,0,1,1.49-.77,2,2,0,0,1,.78.15,1.23,1.23,0,0,1,.53.4,1.53,1.53,0,0,1,.25.58,4.53,4.53,0,0,1,0,.77V70.8h-.79V68a2.1,2.1,0,0,0-.09-.72.76.76,0,0,0-.33-.38,1,1,0,0,0-.55-.14,1.28,1.28,0,0,0-.87.32,1.58,1.58,0,0,0-.37,1.22V70.8Z" transform="translate(-0.52 -0.52)"/><path d="M181.6,70.8v-.59a1.45,1.45,0,0,1-1.3.69,1.83,1.83,0,0,1-1-.31,2,2,0,0,1-.73-.86,3,3,0,0,1-.26-1.27,3.3,3.3,0,0,1,.23-1.27,1.83,1.83,0,0,1,.7-.87,1.87,1.87,0,0,1,1-.3,1.56,1.56,0,0,1,.75.18,1.58,1.58,0,0,1,.54.46V64.35h.79V70.8Zm-2.5-2.33a2,2,0,0,0,.38,1.34,1.14,1.14,0,0,0,.89.44,1.12,1.12,0,0,0,.88-.42,2,2,0,0,0,.36-1.29,2.19,2.19,0,0,0-.37-1.41,1.14,1.14,0,0,0-.91-.45,1.09,1.09,0,0,0-.88.43A2.12,2.12,0,0,0,179.1,68.47Z" transform="translate(-0.52 -0.52)"/><path d="M189.27,69.29l.82.1a2,2,0,0,1-.72,1.11,2.15,2.15,0,0,1-1.34.4,2.13,2.13,0,0,1-1.62-.63,2.46,2.46,0,0,1-.6-1.77,2.58,2.58,0,0,1,.61-1.83A2.05,2.05,0,0,1,188,66a2,2,0,0,1,1.53.64,2.54,2.54,0,0,1,.59,1.79s0,.12,0,.21h-3.48a1.79,1.79,0,0,0,.44,1.18,1.29,1.29,0,0,0,1,.41,1.21,1.21,0,0,0,.74-.23A1.52,1.52,0,0,0,189.27,69.29ZM186.68,68h2.61a1.58,1.58,0,0,0-.3-.88,1.21,1.21,0,0,0-1-.46,1.26,1.26,0,0,0-.92.36A1.44,1.44,0,0,0,186.68,68Z" transform="translate(-0.52 -0.52)"/><path d="M192.38,70.8l-1.78-4.67h.83l1,2.79q.16.45.3.94.11-.37.29-.89l1-2.85h.81l-1.77,4.67Z" transform="translate(-0.52 -0.52)"/><path d="M198.78,69.29l.82.1a2,2,0,0,1-.72,1.11,2.15,2.15,0,0,1-1.34.4,2.13,2.13,0,0,1-1.62-.63,2.46,2.46,0,0,1-.6-1.77,2.58,2.58,0,0,1,.61-1.83A2.05,2.05,0,0,1,197.5,66a2,2,0,0,1,1.53.64,2.54,2.54,0,0,1,.59,1.79s0,.12,0,.21h-3.48a1.79,1.79,0,0,0,.44,1.18,1.29,1.29,0,0,0,1,.41,1.21,1.21,0,0,0,.74-.23A1.52,1.52,0,0,0,198.78,69.29ZM196.18,68h2.61a1.58,1.58,0,0,0-.3-.88,1.21,1.21,0,0,0-1-.46,1.26,1.26,0,0,0-.92.36A1.44,1.44,0,0,0,196.18,68Z" transform="translate(-0.52 -0.52)"/><path d="M200.59,70.8V66.13h.71v.66a1.68,1.68,0,0,1,1.49-.77,2,2,0,0,1,.78.15,1.23,1.23,0,0,1,.53.4,1.53,1.53,0,0,1,.25.58,4.53,4.53,0,0,1,0,.77V70.8h-.79V68a2.1,2.1,0,0,0-.09-.72.76.76,0,0,0-.33-.38,1,1,0,0,0-.55-.14,1.28,1.28,0,0,0-.87.32,1.58,1.58,0,0,0-.37,1.22V70.8Z" transform="translate(-0.52 -0.52)"/><path d="M209,70.8l-1.43-4.67h.82l.74,2.69.28,1,.24-1,.74-2.73h.81l.7,2.71.23.89.27-.9.8-2.7h.77l-1.46,4.67h-.82L210.91,68l-.18-.8-.94,3.59Z" transform="translate(-0.52 -0.52)"/><path d="M214.6,65.26v-.91h.79v.91Zm0,5.53V66.13h.79V70.8Z" transform="translate(-0.52 -0.52)"/><path d="M218.32,70.09l.11.7a2.93,2.93,0,0,1-.6.07,1.35,1.35,0,0,1-.67-.14.76.76,0,0,1-.33-.36,2.83,2.83,0,0,1-.1-.93V66.74h-.58v-.62h.58V65l.79-.47v1.63h.79v.62h-.79v2.73a1.4,1.4,0,0,0,0,.44.33.33,0,0,0,.14.15.52.52,0,0,0,.27.06Z" transform="translate(-0.52 -0.52)"/><path d="M219.09,70.8V64.35h.79v2.31a1.77,1.77,0,0,1,1.4-.64,1.89,1.89,0,0,1,.9.2,1.2,1.2,0,0,1,.55.56,2.59,2.59,0,0,1,.17,1v3h-.79v-3a1.23,1.23,0,0,0-.26-.86,1,1,0,0,0-.73-.27,1.28,1.28,0,0,0-.66.18,1,1,0,0,0-.44.49,2.27,2.27,0,0,0-.13.86V70.8Z" transform="translate(-0.52 -0.52)"/><path d="M228.33,70.09l.11.7a2.93,2.93,0,0,1-.6.07,1.35,1.35,0,0,1-.67-.14.76.76,0,0,1-.33-.36,2.83,2.83,0,0,1-.1-.93V66.74h-.58v-.62h.58V65l.79-.47v1.63h.79v.62h-.79v2.73a1.4,1.4,0,0,0,0,.44.33.33,0,0,0,.14.15.52.52,0,0,0,.27.06Z" transform="translate(-0.52 -0.52)"/><path d="M229.1,70.8V64.35h.79v2.31a1.77,1.77,0,0,1,1.4-.64,1.89,1.89,0,0,1,.9.2,1.2,1.2,0,0,1,.55.56,2.59,2.59,0,0,1,.17,1v3h-.79v-3a1.23,1.23,0,0,0-.26-.86,1,1,0,0,0-.73-.27,1.28,1.28,0,0,0-.66.18,1,1,0,0,0-.44.49,2.27,2.27,0,0,0-.13.86V70.8Z" transform="translate(-0.52 -0.52)"/><path d="M237.3,69.29l.82.1a2,2,0,0,1-.72,1.11,2.15,2.15,0,0,1-1.34.4,2.13,2.13,0,0,1-1.62-.63,2.46,2.46,0,0,1-.6-1.77,2.58,2.58,0,0,1,.61-1.83A2.05,2.05,0,0,1,236,66a2,2,0,0,1,1.53.64,2.54,2.54,0,0,1,.59,1.79s0,.12,0,.21h-3.48a1.79,1.79,0,0,0,.44,1.18,1.29,1.29,0,0,0,1,.41,1.21,1.21,0,0,0,.74-.23A1.52,1.52,0,0,0,237.3,69.29ZM234.7,68h2.61a1.58,1.58,0,0,0-.3-.88,1.21,1.21,0,0,0-1-.46,1.26,1.26,0,0,0-.92.36A1.44,1.44,0,0,0,234.7,68Z" transform="translate(-0.52 -0.52)"/><path d="M92.51,82.58V76.13h.72v.61a1.78,1.78,0,0,1,.58-.53,1.59,1.59,0,0,1,.78-.18,1.84,1.84,0,0,1,1.05.31,1.89,1.89,0,0,1,.69.87,3.16,3.16,0,0,1,.23,1.23,3.11,3.11,0,0,1-.26,1.29,2,2,0,0,1-1.78,1.18,1.49,1.49,0,0,1-.71-.17,1.62,1.62,0,0,1-.52-.42v2.27Zm.72-4.1a2,2,0,0,0,.36,1.33,1.12,1.12,0,0,0,.88.43,1.14,1.14,0,0,0,.9-.45,2.12,2.12,0,0,0,.38-1.38,2.06,2.06,0,0,0-.37-1.34,1.11,1.11,0,0,0-.88-.44,1.14,1.14,0,0,0-.89.47A2.12,2.12,0,0,0,93.23,78.49Z" transform="translate(-0.52 -0.52)"/><path d="M97.52,75.26v-.91h.79v.91Zm0,5.53V76.13h.79V80.8Z" transform="translate(-0.52 -0.52)"/><path d="M99.5,80.8V74.35h.79V80.8Z" transform="translate(-0.52 -0.52)"/><path d="M101.22,78.46a2.4,2.4,0,0,1,.72-1.92,2.17,2.17,0,0,1,1.47-.52,2.09,2.09,0,0,1,1.57.63,2.4,2.4,0,0,1,.61,1.74,3.09,3.09,0,0,1-.27,1.42,1.91,1.91,0,0,1-.79.8,2.29,2.29,0,0,1-1.13.29,2.1,2.1,0,0,1-1.58-.63A2.51,2.51,0,0,1,101.22,78.46Zm.81,0a2,2,0,0,0,.39,1.34,1.3,1.3,0,0,0,2,0,2,2,0,0,0,.39-1.37,1.93,1.93,0,0,0-.39-1.31,1.3,1.3,0,0,0-2,0A2,2,0,0,0,102,78.46Z" transform="translate(-0.52 -0.52)"/><path d="M108.25,80.09l.11.7a2.93,2.93,0,0,1-.6.07,1.35,1.35,0,0,1-.67-.14.76.76,0,0,1-.33-.36,2.84,2.84,0,0,1-.1-.93V76.75h-.58v-.62h.58V75l.79-.47v1.63h.8v.62h-.8v2.73a1.38,1.38,0,0,0,0,.44.33.33,0,0,0,.14.15.52.52,0,0,0,.27.06Z" transform="translate(-0.52 -0.52)"/><path d="M111.2,79.4l.78-.12a1.09,1.09,0,0,0,.37.72,1.28,1.28,0,0,0,.84.25A1.24,1.24,0,0,0,114,80a.67.67,0,0,0,.26-.52.48.48,0,0,0-.23-.42,3.44,3.44,0,0,0-.81-.27,7.46,7.46,0,0,1-1.21-.38,1.15,1.15,0,0,1-.68-1.07,1.2,1.2,0,0,1,.14-.58,1.28,1.28,0,0,1,.39-.44,1.62,1.62,0,0,1,.5-.23,2.38,2.38,0,0,1,.68-.09,2.7,2.7,0,0,1,1,.16,1.31,1.31,0,0,1,.61.43,1.67,1.67,0,0,1,.27.72l-.77.11a.85.85,0,0,0-.31-.56,1.12,1.12,0,0,0-.71-.2,1.29,1.29,0,0,0-.78.18.52.52,0,0,0-.23.42.44.44,0,0,0,.1.28.7.7,0,0,0,.3.21l.7.2a9.66,9.66,0,0,1,1.17.37,1.19,1.19,0,0,1,.52.42,1.16,1.16,0,0,1,.19.68,1.33,1.33,0,0,1-.23.75,1.49,1.49,0,0,1-.67.54,2.42,2.42,0,0,1-1,.19,2.19,2.19,0,0,1-1.39-.38A1.76,1.76,0,0,1,111.2,79.4Z" transform="translate(-0.52 -0.52)"/><path d="M116.88,80.8l-1.43-4.67h.82l.74,2.69.28,1,.24-1,.74-2.73h.81l.7,2.71.23.89.27-.9.8-2.7h.77L120.4,80.8h-.82L118.83,78l-.18-.8-.94,3.59Z" transform="translate(-0.52 -0.52)"/><path d="M122.52,75.26v-.91h.79v.91Zm0,5.53V76.13h.79V80.8Z" transform="translate(-0.52 -0.52)"/><path d="M126.25,80.09l.11.7a2.93,2.93,0,0,1-.6.07,1.35,1.35,0,0,1-.67-.14.76.76,0,0,1-.33-.36,2.84,2.84,0,0,1-.1-.93V76.75h-.58v-.62h.58V75l.79-.47v1.63h.79v.62h-.79v2.73a1.41,1.41,0,0,0,0,.44.33.33,0,0,0,.14.15.52.52,0,0,0,.27.06Z" transform="translate(-0.52 -0.52)"/><path d="M130.06,79.09l.78.1a2,2,0,0,1-.65,1.26,1.9,1.9,0,0,1-1.29.46,2,2,0,0,1-1.54-.63,2.55,2.55,0,0,1-.58-1.8,3.26,3.26,0,0,1,.25-1.32,1.76,1.76,0,0,1,.76-.85A2.27,2.27,0,0,1,128.9,76a1.94,1.94,0,0,1,1.24.38,1.77,1.77,0,0,1,.62,1.09l-.77.12a1.27,1.27,0,0,0-.39-.71,1,1,0,0,0-.67-.24,1.23,1.23,0,0,0-1,.43,2,2,0,0,0-.37,1.36,2.09,2.09,0,0,0,.36,1.37,1.17,1.17,0,0,0,.94.43,1.11,1.11,0,0,0,.78-.29A1.42,1.42,0,0,0,130.06,79.09Z" transform="translate(-0.52 -0.52)"/><path d="M131.52,80.8V74.35h.79v2.31a1.77,1.77,0,0,1,1.4-.64,1.9,1.9,0,0,1,.9.2,1.2,1.2,0,0,1,.55.56,2.59,2.59,0,0,1,.17,1v3h-.79v-3a1.22,1.22,0,0,0-.26-.86,1,1,0,0,0-.73-.27,1.29,1.29,0,0,0-.66.18,1,1,0,0,0-.44.49,2.27,2.27,0,0,0-.13.86V80.8Z" transform="translate(-0.52 -0.52)"/><path d="M140.75,80.09l.11.7a2.93,2.93,0,0,1-.6.07,1.35,1.35,0,0,1-.67-.14.76.76,0,0,1-.33-.36,2.84,2.84,0,0,1-.1-.93V76.75h-.58v-.62h.58V75l.79-.47v1.63h.79v.62H140v2.73a1.41,1.41,0,0,0,0,.44.33.33,0,0,0,.14.15.52.52,0,0,0,.27.06Z" transform="translate(-0.52 -0.52)"/><path d="M144.59,80.8v-.69a1.71,1.71,0,0,1-1.48.79,1.89,1.89,0,0,1-.77-.16,1.27,1.27,0,0,1-.53-.4,1.49,1.49,0,0,1-.24-.59,4,4,0,0,1,0-.74V76.13h.79v2.59a4.63,4.63,0,0,0,0,.83.82.82,0,0,0,.32.49,1,1,0,0,0,.6.18,1.31,1.31,0,0,0,.67-.18,1,1,0,0,0,.44-.5,2.48,2.48,0,0,0,.13-.91v-2.5h.79V80.8Z" transform="translate(-0.52 -0.52)"/><path d="M146.52,80.8V76.13h.71v.71a1.91,1.91,0,0,1,.5-.65.88.88,0,0,1,.51-.16,1.54,1.54,0,0,1,.81.25l-.27.73a1.13,1.13,0,0,0-.58-.17.75.75,0,0,0-.47.16.84.84,0,0,0-.29.43,3.08,3.08,0,0,0-.13.92V80.8Z" transform="translate(-0.52 -0.52)"/><path d="M149.53,80.8V76.13h.71v.66a1.68,1.68,0,0,1,1.49-.77,2,2,0,0,1,.78.15,1.23,1.23,0,0,1,.53.4,1.53,1.53,0,0,1,.25.58,4.52,4.52,0,0,1,0,.77V80.8h-.79V78a2.1,2.1,0,0,0-.09-.72.75.75,0,0,0-.33-.38,1,1,0,0,0-.55-.14,1.28,1.28,0,0,0-.87.32,1.59,1.59,0,0,0-.37,1.22V80.8Z" transform="translate(-0.52 -0.52)"/><path d="M157.73,79.29l.82.1a2,2,0,0,1-.72,1.11,2.15,2.15,0,0,1-1.34.4,2.13,2.13,0,0,1-1.62-.63,2.46,2.46,0,0,1-.6-1.77,2.58,2.58,0,0,1,.61-1.83,2.05,2.05,0,0,1,1.57-.65,2,2,0,0,1,1.53.64,2.54,2.54,0,0,1,.59,1.79s0,.12,0,.21h-3.48a1.79,1.79,0,0,0,.44,1.18,1.3,1.3,0,0,0,1,.41,1.21,1.21,0,0,0,.74-.23A1.52,1.52,0,0,0,157.73,79.29ZM155.13,78h2.61a1.58,1.58,0,0,0-.3-.88,1.21,1.21,0,0,0-1-.46,1.26,1.26,0,0,0-.92.36A1.44,1.44,0,0,0,155.13,78Z" transform="translate(-0.52 -0.52)"/><path d="M162.57,80.8v-.59a1.45,1.45,0,0,1-1.3.69,1.83,1.83,0,0,1-1-.31,2,2,0,0,1-.73-.86,3,3,0,0,1-.26-1.27,3.3,3.3,0,0,1,.23-1.27,1.83,1.83,0,0,1,.7-.87,1.87,1.87,0,0,1,1-.3,1.56,1.56,0,0,1,.75.18,1.58,1.58,0,0,1,.54.46V74.35h.79V80.8Zm-2.5-2.33a2,2,0,0,0,.38,1.34,1.14,1.14,0,0,0,.89.44,1.12,1.12,0,0,0,.88-.42,2,2,0,0,0,.36-1.29,2.19,2.19,0,0,0-.37-1.41,1.14,1.14,0,0,0-.91-.45,1.09,1.09,0,0,0-.88.43A2.12,2.12,0,0,0,160.07,78.47Z" transform="translate(-0.52 -0.52)"/><path d="M166.75,78.46a2.4,2.4,0,0,1,.72-1.92,2.17,2.17,0,0,1,1.47-.52,2.09,2.09,0,0,1,1.57.63,2.4,2.4,0,0,1,.61,1.74,3.09,3.09,0,0,1-.27,1.42,1.91,1.91,0,0,1-.79.8,2.29,2.29,0,0,1-1.13.29,2.1,2.1,0,0,1-1.58-.63A2.51,2.51,0,0,1,166.75,78.46Zm.81,0a2,2,0,0,0,.39,1.34,1.3,1.3,0,0,0,2,0,2,2,0,0,0,.39-1.37,1.93,1.93,0,0,0-.39-1.31,1.3,1.3,0,0,0-2,0A2,2,0,0,0,167.56,78.46Z" transform="translate(-0.52 -0.52)"/><path d="M172.24,80.8V76.75h-.7v-.62h.7v-.5a2.17,2.17,0,0,1,.08-.7,1,1,0,0,1,.4-.5,1.46,1.46,0,0,1,.81-.19,3.87,3.87,0,0,1,.74.08l-.12.69a2.65,2.65,0,0,0-.46,0,.69.69,0,0,0-.51.15.83.83,0,0,0-.15.58v.43h.91v.62H173V80.8Z" transform="translate(-0.52 -0.52)"/><path d="M174.58,80.8V76.75h-.7v-.62h.7v-.5a2.17,2.17,0,0,1,.08-.7,1,1,0,0,1,.4-.5,1.46,1.46,0,0,1,.81-.19,3.87,3.87,0,0,1,.74.08l-.12.69a2.65,2.65,0,0,0-.46,0,.69.69,0,0,0-.51.15.83.83,0,0,0-.15.58v.43h.91v.62h-.91V80.8Z" transform="translate(-0.52 -0.52)"/><path d="M177.11,80.8v-.9h.9v.9Z" transform="translate(-0.52 -0.52)"/><path d="M107,39.38V30.79h6.37v1.45h-4.63v1.9H113v1.45h-4.31v2.34h4.8v1.45Z" transform="translate(-0.52 -0.52)"/><path d="M114.95,39.38V30.79h1.65v8.59Z" transform="translate(-0.52 -0.52)"/><path d="M121.88,37.4l1.64.28a2.69,2.69,0,0,1-1,1.37,2.93,2.93,0,0,1-1.71.47,2.78,2.78,0,0,1-2.4-1.06,3.56,3.56,0,0,1-.62-2.14,3.44,3.44,0,0,1,.81-2.42,2.66,2.66,0,0,1,2-.88,2.76,2.76,0,0,1,2.19.92,4.06,4.06,0,0,1,.77,2.81h-4.12a1.67,1.67,0,0,0,.4,1.14,1.25,1.25,0,0,0,.95.41,1,1,0,0,0,.65-.21A1.3,1.3,0,0,0,121.88,37.4Zm.09-1.66a1.59,1.59,0,0,0-.37-1.09,1.19,1.19,0,0,0-1.75,0,1.52,1.52,0,0,0-.35,1.07Z" transform="translate(-0.52 -0.52)"/><path d="M130.38,35l-1.62.29a1.18,1.18,0,0,0-.37-.73,1.12,1.12,0,0,0-.75-.25,1.23,1.23,0,0,0-1,.42,2.18,2.18,0,0,0-.37,1.42,2.52,2.52,0,0,0,.37,1.56,1.22,1.22,0,0,0,1,.46,1.11,1.11,0,0,0,.77-.27,1.6,1.6,0,0,0,.42-.92l1.62.28a2.87,2.87,0,0,1-1,1.68,3,3,0,0,1-1.92.57,2.85,2.85,0,0,1-2.18-.86,3.34,3.34,0,0,1-.81-2.38,3.35,3.35,0,0,1,.81-2.4,2.89,2.89,0,0,1,2.2-.86,3,3,0,0,1,1.81.49A2.71,2.71,0,0,1,130.38,35Z" transform="translate(-0.52 -0.52)"/><path d="M134.48,33.16v1.31h-1.12V37a6.24,6.24,0,0,0,0,.89.36.36,0,0,0,.15.21.46.46,0,0,0,.28.08,2.13,2.13,0,0,0,.66-.16l.14,1.28a3.27,3.27,0,0,1-1.3.25,2.06,2.06,0,0,1-.8-.15A1.17,1.17,0,0,1,132,39a1.53,1.53,0,0,1-.23-.64,8,8,0,0,1-.05-1.16V34.47h-.76V33.16h.76V31.92l1.65-1v2.2Z" transform="translate(-0.52 -0.52)"/><path d="M137.2,39.38h-1.65V33.16h1.53V34a2.66,2.66,0,0,1,.71-.83,1.3,1.3,0,0,1,.71-.2,2.09,2.09,0,0,1,1.08.31l-.51,1.44a1.44,1.44,0,0,0-.77-.27.91.91,0,0,0-.59.19,1.3,1.3,0,0,0-.38.69,9.78,9.78,0,0,0-.14,2.09Z" transform="translate(-0.52 -0.52)"/><path d="M140.29,32.31V30.79h1.65v1.52Zm0,7.07V33.16h1.65v6.22Z" transform="translate(-0.52 -0.52)"/><path d="M149.05,35l-1.62.29a1.18,1.18,0,0,0-.37-.73,1.12,1.12,0,0,0-.75-.25,1.23,1.23,0,0,0-1,.42,2.18,2.18,0,0,0-.37,1.42,2.52,2.52,0,0,0,.37,1.56,1.22,1.22,0,0,0,1,.46,1.11,1.11,0,0,0,.77-.27,1.6,1.6,0,0,0,.42-.92l1.62.28a2.87,2.87,0,0,1-1,1.68,3,3,0,0,1-1.92.57,2.85,2.85,0,0,1-2.18-.86,3.34,3.34,0,0,1-.81-2.38,3.35,3.35,0,0,1,.81-2.4,2.89,2.89,0,0,1,2.2-.86,3,3,0,0,1,1.81.49A2.71,2.71,0,0,1,149.05,35Z" transform="translate(-0.52 -0.52)"/><path d="M151.53,35.05,150,34.78a2.33,2.33,0,0,1,.87-1.34,3.17,3.17,0,0,1,1.83-.43,3.94,3.94,0,0,1,1.64.26,1.64,1.64,0,0,1,.76.66,3.4,3.4,0,0,1,.22,1.47l0,1.92a6.67,6.67,0,0,0,.08,1.21,3.53,3.53,0,0,0,.3.83h-1.63q-.06-.16-.16-.49l-.06-.19a3,3,0,0,1-.9.62,2.58,2.58,0,0,1-1,.21,2.12,2.12,0,0,1-1.51-.52,1.73,1.73,0,0,1-.55-1.32,1.77,1.77,0,0,1,.25-.94,1.65,1.65,0,0,1,.71-.63,5.52,5.52,0,0,1,1.31-.38,9,9,0,0,0,1.6-.4v-.16a.85.85,0,0,0-.23-.68,1.4,1.4,0,0,0-.88-.2,1.18,1.18,0,0,0-.69.17A1.2,1.2,0,0,0,151.53,35.05Zm2.2,1.34a10.29,10.29,0,0,1-1,.25,3,3,0,0,0-.9.29.69.69,0,0,0-.32.58.81.81,0,0,0,.26.6.9.9,0,0,0,.66.25,1.43,1.43,0,0,0,.85-.29,1,1,0,0,0,.39-.54,3.25,3.25,0,0,0,.06-.8Z" transform="translate(-0.52 -0.52)"/><path d="M157,39.38V30.79h1.65v8.59Z" transform="translate(-0.52 -0.52)"/><path d="M163.21,36.58l1.69-.16a2.06,2.06,0,0,0,.62,1.25,1.87,1.87,0,0,0,1.26.4,1.93,1.93,0,0,0,1.26-.35,1.05,1.05,0,0,0,.42-.83.78.78,0,0,0-.18-.52,1.43,1.43,0,0,0-.62-.37q-.3-.11-1.39-.37a4.71,4.71,0,0,1-2-.85,2.24,2.24,0,0,1-.79-1.73,2.21,2.21,0,0,1,.37-1.23,2.33,2.33,0,0,1,1.07-.87,4.3,4.3,0,0,1,1.69-.3,3.63,3.63,0,0,1,2.43.71,2.5,2.5,0,0,1,.86,1.89l-1.73.08a1.47,1.47,0,0,0-.48-1,1.75,1.75,0,0,0-1.1-.29,2,2,0,0,0-1.18.31.63.63,0,0,0-.28.53.66.66,0,0,0,.26.52A4.56,4.56,0,0,0,167,34a8.41,8.41,0,0,1,1.87.62,2.41,2.41,0,0,1,.95.87,2.7,2.7,0,0,1-.07,2.75,2.46,2.46,0,0,1-1.16,1,4.87,4.87,0,0,1-1.87.31,3.72,3.72,0,0,1-2.5-.75A3.28,3.28,0,0,1,163.21,36.58Z" transform="translate(-0.52 -0.52)"/><path d="M173.29,30.79v3.16a2.47,2.47,0,0,1,2.93-.72,1.68,1.68,0,0,1,.69.54,2,2,0,0,1,.32.73,6.5,6.5,0,0,1,.08,1.24v3.65h-1.65V36.09a4.87,4.87,0,0,0-.09-1.24.82.82,0,0,0-.33-.42,1.06,1.06,0,0,0-.59-.16,1.36,1.36,0,0,0-.73.2,1.15,1.15,0,0,0-.47.6,3.59,3.59,0,0,0-.15,1.19v3.12h-1.65V30.79Z" transform="translate(-0.52 -0.52)"/><path d="M178.6,36.18a3.37,3.37,0,0,1,.4-1.59,2.78,2.78,0,0,1,1.15-1.17,3.4,3.4,0,0,1,1.66-.4,3.11,3.11,0,0,1,2.31.92,3.17,3.17,0,0,1,.9,2.32,3.21,3.21,0,0,1-.91,2.34,3.08,3.08,0,0,1-2.29.93,3.61,3.61,0,0,1-1.63-.39A2.65,2.65,0,0,1,179,38,3.78,3.78,0,0,1,178.6,36.18Zm1.69.09a2.06,2.06,0,0,0,.44,1.42,1.44,1.44,0,0,0,2.17,0,2.09,2.09,0,0,0,.44-1.43,2.05,2.05,0,0,0-.44-1.41,1.44,1.44,0,0,0-2.17,0A2.06,2.06,0,0,0,180.28,36.27Z" transform="translate(-0.52 -0.52)"/><path d="M191.73,35l-1.62.29a1.18,1.18,0,0,0-.37-.73,1.12,1.12,0,0,0-.75-.25,1.23,1.23,0,0,0-1,.42,2.18,2.18,0,0,0-.37,1.42,2.52,2.52,0,0,0,.37,1.56,1.22,1.22,0,0,0,1,.46,1.11,1.11,0,0,0,.77-.27,1.6,1.6,0,0,0,.42-.92l1.62.28a2.87,2.87,0,0,1-1,1.68,3,3,0,0,1-1.92.57,2.85,2.85,0,0,1-2.18-.86,3.34,3.34,0,0,1-.81-2.38,3.35,3.35,0,0,1,.81-2.4A2.89,2.89,0,0,1,189,33a3,3,0,0,1,1.81.49A2.71,2.71,0,0,1,191.73,35Z" transform="translate(-0.52 -0.52)"/><path d="M192.92,39.38V30.79h1.65v4.56l1.93-2.19h2l-2.13,2.27,2.28,3.95H196.9l-1.56-2.79-.77.8v2Z" transform="translate(-0.52 -0.52)"/><path d="M203,39.38V30.79h1.73v3.38h3.4V30.79h1.73v8.59h-1.73V35.62h-3.4v3.76Z" transform="translate(-0.52 -0.52)"/><path d="M212.88,35.05l-1.49-.27a2.33,2.33,0,0,1,.87-1.34,3.17,3.17,0,0,1,1.83-.43,3.94,3.94,0,0,1,1.64.26,1.64,1.64,0,0,1,.76.66,3.4,3.4,0,0,1,.22,1.47l0,1.92a6.67,6.67,0,0,0,.08,1.21,3.53,3.53,0,0,0,.3.83h-1.63q-.06-.16-.16-.49l-.06-.19a3,3,0,0,1-.9.62,2.58,2.58,0,0,1-1,.21,2.12,2.12,0,0,1-1.51-.52,1.73,1.73,0,0,1-.55-1.32,1.77,1.77,0,0,1,.25-.94,1.65,1.65,0,0,1,.71-.63,5.52,5.52,0,0,1,1.31-.38,9,9,0,0,0,1.6-.4v-.16a.85.85,0,0,0-.23-.68,1.4,1.4,0,0,0-.88-.2,1.18,1.18,0,0,0-.69.17A1.2,1.2,0,0,0,212.88,35.05Zm2.2,1.34a10.29,10.29,0,0,1-1,.25,3,3,0,0,0-.9.29.69.69,0,0,0-.32.58.81.81,0,0,0,.26.6.9.9,0,0,0,.66.25,1.43,1.43,0,0,0,.85-.29,1,1,0,0,0,.39-.54,3.25,3.25,0,0,0,.06-.8Z" transform="translate(-0.52 -0.52)"/><path d="M217.67,39.38V38.09L220,35.42q.57-.66.85-.93l-.76,0h-2.2V33.16H223v1.17l-2.38,2.74-.84.91.85,0h2.55v1.45Z" transform="translate(-0.52 -0.52)"/><path d="M225.56,35.05l-1.49-.27a2.33,2.33,0,0,1,.87-1.34,3.17,3.17,0,0,1,1.83-.43,3.94,3.94,0,0,1,1.64.26,1.64,1.64,0,0,1,.76.66,3.4,3.4,0,0,1,.22,1.47l0,1.92a6.67,6.67,0,0,0,.08,1.21,3.53,3.53,0,0,0,.3.83h-1.63q-.06-.16-.16-.49l-.06-.19a3,3,0,0,1-.9.62,2.58,2.58,0,0,1-1,.21,2.12,2.12,0,0,1-1.51-.52,1.73,1.73,0,0,1-.55-1.32,1.77,1.77,0,0,1,.25-.94,1.65,1.65,0,0,1,.71-.63,5.52,5.52,0,0,1,1.31-.38,9,9,0,0,0,1.6-.4v-.16a.85.85,0,0,0-.23-.68,1.4,1.4,0,0,0-.88-.2,1.18,1.18,0,0,0-.69.17A1.2,1.2,0,0,0,225.56,35.05Zm2.2,1.34a10.29,10.29,0,0,1-1,.25,3,3,0,0,0-.9.29.69.69,0,0,0-.32.58.81.81,0,0,0,.26.6.9.9,0,0,0,.66.25,1.43,1.43,0,0,0,.85-.29,1,1,0,0,0,.39-.54,3.25,3.25,0,0,0,.06-.8Z" transform="translate(-0.52 -0.52)"/><path d="M232.58,39.38h-1.65V33.16h1.53V34a2.66,2.66,0,0,1,.71-.83,1.3,1.3,0,0,1,.71-.2,2.09,2.09,0,0,1,1.08.31l-.51,1.44a1.44,1.44,0,0,0-.77-.27.91.91,0,0,0-.59.19,1.3,1.3,0,0,0-.38.69,9.78,9.78,0,0,0-.14,2.09Z" transform="translate(-0.52 -0.52)"/><path d="M241.38,39.38h-1.53v-.91a2.47,2.47,0,0,1-.9.79,2.31,2.31,0,0,1-1,.26,2.37,2.37,0,0,1-1.84-.86,3.52,3.52,0,0,1-.76-2.41,3.47,3.47,0,0,1,.74-2.41,2.43,2.43,0,0,1,1.88-.82,2.33,2.33,0,0,1,1.8.87V30.79h1.65ZM237,36.13a2.85,2.85,0,0,0,.28,1.44,1.24,1.24,0,0,0,1.11.64,1.21,1.21,0,0,0,1-.48,2.23,2.23,0,0,0,.4-1.44,2.44,2.44,0,0,0-.39-1.54,1.22,1.22,0,0,0-1-.47,1.24,1.24,0,0,0-1,.47A2.1,2.1,0,0,0,237,36.13Z" transform="translate(-0.52 -0.52)"/></svg>