<?xml version="1.0" encoding="UTF-8" standalone="no"?>
<svg
   xmlns:dc="http://purl.org/dc/elements/1.1/"
   xmlns:cc="http://creativecommons.org/ns#"
   xmlns:rdf="http://www.w3.org/1999/02/22-rdf-syntax-ns#"
   xmlns:svg="http://www.w3.org/2000/svg"
   xmlns="http://www.w3.org/2000/svg"
   id="svg2"
   xml:space="preserve"
   style="enable-background:new 0 0 612 792;"
   viewBox="0 0 612 792"
   y="0px"
   x="0px"
   version="1.1"><metadata
     id="metadata264"><rdf:RDF><cc:Work
         rdf:about=""><dc:format>image/svg+xml</dc:format><dc:type
           rdf:resource="http://purl.org/dc/dcmitype/StillImage" /><dc:title></dc:title></cc:Work></rdf:RDF></metadata><defs
     id="defs262" /><style
     id="style4"
     type="text/css">
	.Arched_x0020_Green{fill:url(#SVGID_1_);stroke:#FFFFFF;stroke-width:0.25;stroke-miterlimit:1;}
	.st0{fill:none;stroke:#000000;}
	.st1{fill:#FFFFFF;}
	.st2{font-family:'Arial-BoldMT';}
	.st3{font-size:14px;}
	.st4{font-family:'ArialMT';}
	.st5{font-size:9px;}
	.st6{display:none;}
	.st7{display:inline;}
	.st8{display:inline;fill:#FFFFFF;}
</style><linearGradient
     y2="791.2929"
     x2="0.7071"
     y1="792"
     x1="0"
     gradientUnits="userSpaceOnUse"
     id="SVGID_1_"><stop
       id="stop7"
       style="stop-color:#20AC4B"
       offset="0" /><stop
       id="stop9"
       style="stop-color:#19361A"
       offset="0.9831" /></linearGradient><g
     transform="matrix(1.0807332,0,0,0.99989968,-12.543144,0.04004967)"
     id="frame"><g
       id="g12"><rect
         style="fill:none;stroke:#000000"
         id="rect14"
         height="182.7"
         width="300.70001"
         class="st0"
         y="344"
         x="155.7" /><rect
         style="fill:none;stroke:#000000"
         id="rect16"
         height="59.299999"
         width="300.70001"
         class="st0"
         y="271.70001"
         x="155.7" /><line
         style="fill:none;stroke:#000000"
         id="line18"
         y2="390.29999"
         x2="456.70001"
         y1="390.29999"
         x1="155.7"
         class="st0" /><line
         style="fill:none;stroke:#000000"
         id="line20"
         y2="433.29999"
         x2="456.70001"
         y1="433.29999"
         x1="155.7"
         class="st0" /><line
         style="fill:none;stroke:#000000"
         id="line22"
         y2="475.70001"
         x2="456.70001"
         y1="475.70001"
         x1="155.7"
         class="st0" /><line
         style="fill:none;stroke:#000000"
         id="line24"
         y2="526.70001"
         x2="265.70001"
         y1="344"
         x1="265.70001"
         class="st0" /><line
         style="fill:none;stroke:#000000"
         id="line26"
         y2="330.89999"
         x2="217"
         y1="271.29999"
         x1="217"
         class="st0" /></g></g><g
     id="shapes"><g
       id="g29"><g
         id="g31"><g
           id="g33"><polyline
             id="polyline35"
             points="163.5,383.3 260.2,383.3 260.2,354.2 163.5,354.2     " /></g></g><g
         id="g37"><path
           id="path39"
           d="M178.8,361.2c-0.4-0.9-1.2-0.9-1.2-0.9s-0.8-0.1-1.1,0.9l-8.1,14.3c-1.1,1.8-0.1,2.5,0.9,2.6h16.6     c1.1-0.1,2-0.8,0.9-2.6L178.8,361.2z"
           class="st1" /><g
           id="g41"><path
             id="path43"
             d="M178.2,371.9c0,0.3-0.3,0.5-0.5,0.5h-0.1c-0.3,0-0.5-0.2-0.5-0.5c-1.6-5.3-2.4-9,0.5-9      C180.6,362.8,179.7,366.6,178.2,371.9z" /><path
             id="path45"
             d="M177.6,377.6c-0.8,0-1.6-0.7-1.6-1.6c0-0.9,0.7-1.6,1.6-1.6h0.1c0.9,0,1.5,0.7,1.5,1.6      C179.2,376.9,178.5,377.6,177.6,377.6z" /></g></g><text
         id="text47"
         class="st1 st2 st3"
         transform="matrix(1 0 0 1 189.5 378.0835)">DANGER</text>
</g><g
       id="g49"><g
         id="g51"><g
           id="g53"><polyline
             id="polyline55"
             points="163.5,426.3 260.2,426.3 260.2,397.2 163.5,397.2     " /></g></g><g
         id="g57"><path
           id="path59"
           d="M178.8,404.2c-0.4-0.9-1.2-0.9-1.2-0.9s-0.8-0.1-1.1,0.9l-8.1,14.3c-1.1,1.8-0.1,2.5,0.9,2.6h16.6     c1.1-0.1,2-0.8,0.9-2.6L178.8,404.2z"
           class="st1" /><g
           id="g61"><path
             id="path63"
             d="M178.2,414.9c0,0.3-0.3,0.5-0.5,0.5h-0.1c-0.3,0-0.5-0.2-0.5-0.5c-1.6-5.3-2.4-9,0.5-9      C180.6,405.8,179.7,409.6,178.2,414.9z" /><path
             id="path65"
             d="M177.6,420.6c-0.8,0-1.6-0.7-1.6-1.6c0-0.9,0.7-1.6,1.6-1.6h0.1c0.9,0,1.5,0.7,1.5,1.6      C179.2,419.9,178.5,420.6,177.6,420.6z" /></g></g><text
         id="text67"
         class="st1 st2 st3"
         transform="matrix(1 0 0 1 189.5 421.0835)">WARNING</text>
</g><g
       id="g69"><g
         id="g71"><g
           id="g73"><polyline
             id="polyline75"
             points="163.5,469 260.2,469 260.2,439.8 163.5,439.8     " /></g></g><g
         id="g77"><path
           id="path79"
           d="M178.8,446.9c-0.4-0.9-1.2-0.9-1.2-0.9s-0.8-0.1-1.1,0.9l-8.1,14.3c-1.1,1.8-0.1,2.5,0.9,2.6h16.6     c1.1-0.1,2-0.8,0.9-2.6L178.8,446.9z"
           class="st1" /><g
           id="g81"><path
             id="path83"
             d="M178.2,457.5c0,0.3-0.3,0.5-0.5,0.5h-0.1c-0.3,0-0.5-0.2-0.5-0.5c-1.6-5.3-2.4-9,0.5-9      C180.6,448.5,179.7,452.2,178.2,457.5z" /><path
             id="path85"
             d="M177.6,463.3c-0.8,0-1.6-0.7-1.6-1.6c0-0.9,0.7-1.6,1.6-1.6h0.1c0.9,0,1.5,0.7,1.5,1.6      C179.2,462.5,178.5,463.3,177.6,463.3z" /></g></g><text
         id="text87"
         class="st1 st2 st3"
         transform="matrix(1 0 0 1 189.5 463.7505)">CAUTION</text>
</g><g
       id="g89"><g
         id="g91"><g
           id="g93"><polyline
             id="polyline95"
             points="163.5,514.8 260.2,514.8 260.2,485.7 163.5,485.7     " /></g></g><text
         id="text97"
         class="st1 st2 st3"
         transform="matrix(1 0 0 1 180.5 505.5845)">CAUTION</text>
</g><g
       id="g99"><path
         id="path101"
         d="M189.6,280.2c-0.9-2.5-3.2-2.3-3.2-2.3s-2.2-0.2-3,2.3l-21.3,37.5c-2.8,4.8-0.4,6.7,2.4,6.9h43.6c3-0.2,5.2-2.1,2.4-6.9    L189.6,280.2z" /><g
         id="g103"><path
           id="path105"
           d="M187.9,308.1c0,0.8-0.7,1.3-1.3,1.3h-0.2c-0.7,0-1.3-0.6-1.3-1.3c-4.3-14-6.3-23.7,1.3-23.7     C194.3,284.4,192,294.2,187.9,308.1z"
           class="st1" /><path
           id="path107"
           d="M186.4,323.3c-2.2,0-4.1-1.9-4.1-4.2c0-2.3,1.9-4.2,4.1-4.2h0.2c2.2,0,3.9,1.9,3.9,4.2     C190.5,321.3,188.9,323.3,186.4,323.3z"
           class="st1" /></g></g></g><g
     transform="matrix(0.9502463,0,0,1,19.634166,0)"
     id="text"><text
       id="text110"
       transform="translate(273,359)"><tspan
         style="font-size:9px;font-family:ArialMT"
         id="tspan112"
         class="st4 st5"
         y="0"
         x="0">DANGER indicates an imminently</tspan><tspan
         style="font-size:9px;font-family:ArialMT"
         id="tspan114"
         class="st4 st5"
         y="10.8"
         x="0">hazardous situation which, if not avoided,</tspan><tspan
         style="font-size:9px;font-family:ArialMT"
         id="tspan116"
         class="st4 st5"
         y="21.6"
         x="0">will result in injury or death.</tspan></text>
<text
       id="text118"
       transform="translate(226,287.5)"><tspan
         style="font-size:9px;font-family:ArialMT"
         id="tspan120"
         class="st4 st5"
         y="0"
         x="0">This is the safety alert symbol. It is used to alert you to</tspan><tspan
         style="font-size:9px;font-family:ArialMT"
         id="tspan122"
         class="st4 st5"
         y="10.8"
         x="0">potential personal injury hazards. Obey all safety</tspan><tspan
         style="font-size:9px;font-family:ArialMT"
         id="tspan124"
         class="st4 st5"
         y="21.6"
         x="0">messages that follow this symbol to avoid possible</tspan><tspan
         style="font-size:9px;font-family:ArialMT"
         id="tspan126"
         class="st4 st5"
         y="32.400002"
         x="0">injury or death.</tspan></text>
<text
       id="text128"
       transform="translate(273,405)"><tspan
         style="font-size:9px;font-family:ArialMT"
         id="tspan130"
         class="st4 st5"
         y="0"
         x="0">WARNING indicates a potentially hazardous</tspan><tspan
         style="font-size:9px;font-family:ArialMT"
         id="tspan132"
         class="st4 st5"
         y="10.8"
         x="0">situation which, if not avoided, could result</tspan><tspan
         style="font-size:9px;font-family:ArialMT"
         id="tspan134"
         class="st4 st5"
         y="21.6"
         x="0">in injury or death.</tspan></text>
<text
       id="text136"
       transform="translate(273,447.5)"><tspan
         style="font-size:9px;font-family:ArialMT"
         id="tspan138"
         class="st4 st5"
         y="0"
         x="0">CAUTION indicates a potentially hazardous</tspan><tspan
         style="font-size:9px;font-family:ArialMT"
         id="tspan140"
         class="st4 st5"
         y="10.8"
         x="0">situation which, if not avoided, could result in</tspan><tspan
         style="font-size:9px;font-family:ArialMT"
         id="tspan142"
         class="st4 st5"
         y="21.6"
         x="0">minor or moderate injury.</tspan></text>
<text
       id="text144"
       transform="translate(273,488)"><tspan
         style="font-size:9px;font-family:ArialMT"
         id="tspan146"
         class="st4 st5"
         y="0"
         x="0">CAUTION used without the safety alert</tspan><tspan
         style="font-size:9px;font-family:ArialMT"
         id="tspan148"
         class="st4 st5"
         y="10.8"
         x="0">symbol indicates a potentially hazardous</tspan><tspan
         style="font-size:9px;font-family:ArialMT"
         id="tspan150"
         class="st4 st5"
         y="21.6"
         x="0">situation which, if not avoided, could result in</tspan><tspan
         style="font-size:9px;font-family:ArialMT"
         id="tspan152"
         class="st4 st5"
         y="32.400002"
         x="0">property damage.</tspan></text>
</g><g
     class="st6"
     id="shape_and_text_elements"><g
       id="g155"
       class="st7"><g
         id="g157"><polyline
           id="polyline159"
           points="168.1,124.6 302.5,124.6 302.5,95.5 168.1,95.5    " /></g></g><polyline
       id="polyline161"
       points="169.5,90.9 303.9,90.9 303.9,61.9 169.5,61.9  "
       class="st7" /><text
       id="text163"
       class="st7 st2 st3"
       transform="matrix(1 0 0 1 360.4985 95.3325)">CAUTION</text>
<text
       id="text165"
       class="st7 st2 st3"
       transform="matrix(1 0 0 1 360.498 73.6665)">DANGER</text>
<g
       id="g167"
       class="st7"><path
         id="path169"
         d="M222,101.4c-0.4-0.9-1.2-0.9-1.2-0.9s-0.8-0.1-1.1,0.9l-8.1,14.3c-1.1,1.8-0.1,2.5,0.9,2.6h16.6    c1.1-0.1,2-0.8,0.9-2.6L222,101.4z"
         class="st1" /><g
         id="g171"><path
           id="path173"
           d="M221.4,112c0,0.3-0.3,0.5-0.5,0.5h-0.1c-0.3,0-0.5-0.2-0.5-0.5c-1.6-5.3-2.4-9,0.5-9C223.8,103,222.9,106.7,221.4,112z" /><path
           id="path175"
           d="M220.8,117.8c-0.8,0-1.6-0.7-1.6-1.6c0-0.9,0.7-1.6,1.6-1.6h0.1c0.9,0,1.5,0.7,1.5,1.6     C222.3,117,221.7,117.8,220.8,117.8z" /></g></g><g
       id="g177"
       class="st7"><path
         id="path179"
         d="M220.7,67.2c-0.4-0.9-1.2-0.9-1.2-0.9s-0.8-0.1-1.1,0.9l-8.1,14.3c-1.1,1.8-0.1,2.5,0.9,2.6h16.6    c1.1-0.1,2-0.8,0.9-2.6L220.7,67.2z"
         class="st1" /><g
         id="g181"><path
           id="path183"
           d="M220,77.9c0,0.3-0.3,0.5-0.5,0.5h-0.1c-0.3,0-0.5-0.2-0.5-0.5c-1.6-5.3-2.4-9,0.5-9C222.4,68.8,221.6,72.5,220,77.9z" /><path
           id="path185"
           d="M219.4,83.6c-0.8,0-1.6-0.7-1.6-1.6c0-0.9,0.7-1.6,1.6-1.6h0.1c0.9,0,1.5,0.7,1.5,1.6C221,82.9,220.4,83.6,219.4,83.6z" /></g></g><g
       id="g187"
       class="st7"><path
         id="path189"
         d="M335.7,103.7c-0.4-0.9-1.2-0.9-1.2-0.9s-0.8-0.1-1.1,0.9l-8.1,14.3c-1.1,1.8-0.1,2.5,0.9,2.6h16.6c1.1-0.1,2-0.8,0.9-2.6    L335.7,103.7z" /><g
         id="g191"><path
           id="path193"
           d="M335,114.4c0,0.3-0.3,0.5-0.5,0.5h-0.1c-0.3,0-0.5-0.2-0.5-0.5c-1.6-5.3-2.4-9,0.5-9     C337.4,105.3,336.6,109.1,335,114.4z"
           class="st1" /><path
           id="path195"
           d="M334.5,120.1c-0.8,0-1.6-0.7-1.6-1.6c0-0.9,0.7-1.6,1.6-1.6h0.1c0.9,0,1.5,0.7,1.5,1.6     C336,119.4,335.4,120.1,334.5,120.1z"
           class="st1" /></g></g><text
       id="text197"
       class="st7 st2 st3"
       transform="matrix(1 0 0 1 360.4976 117.0005)">WARNING</text>
<g
       id="g199"
       class="st7"><path
         id="path201"
         d="M482.6,78.2c-0.9-2.5-3.2-2.3-3.2-2.3s-2.2-0.2-3,2.3l-21.3,37.5c-2.8,4.8-0.4,6.7,2.4,6.9h43.6c3-0.2,5.2-2.1,2.4-6.9    L482.6,78.2z" /><g
         id="g203"><path
           id="path205"
           d="M480.9,106.1c0,0.8-0.7,1.3-1.3,1.3h-0.2c-0.7,0-1.3-0.6-1.3-1.3c-4.3-14-6.3-23.7,1.3-23.7     C487.3,82.4,485,92.2,480.9,106.1z"
           class="st1" /><path
           id="path207"
           d="M479.4,121.3c-2.2,0-4.1-1.9-4.1-4.2c0-2.3,1.9-4.2,4.1-4.2h0.2c2.2,0,3.9,1.9,3.9,4.2     C483.5,119.3,481.9,121.3,479.4,121.3z"
           class="st1" /></g></g></g><g
     class="st6"
     id="Layer_5"><g
       id="g210"
       class="st7"><g
         id="g212"><rect
           id="rect214"
           height="29.2"
           width="96.7"
           y="439.5"
           x="20.2" /></g></g><path
       id="path216"
       d="M36.7,443.9c-0.5-1-1.2-0.9-1.2-0.9s-0.6-0.1-1.2,0.9l-8.4,14.8c-1.1,1.9-0.1,2.6,1,2.7h17.2   c1.2-0.1,2.1-0.8,1-2.7L36.7,443.9z M36.1,455.2c-0.1,0.3-0.3,0.5-0.5,0.5h-0.1c-0.3,0-0.4-0.2-0.5-0.5c-1.5-5.4-2.3-9,0.5-9   C38.3,446.3,37.5,449.8,36.1,455.2z M35.5,459.9c-0.9,0-1.7-0.8-1.7-1.7c0-0.9,0.8-1.7,1.7-1.7h0.1c0.9,0,1.6,0.8,1.6,1.7   C37.2,459.2,36.5,459.9,35.5,459.9z"
       class="st8" /><g
       id="g218"
       class="st7"><g
         id="g220"><rect
           id="rect222"
           height="29.2"
           width="96.7"
           y="397.2"
           x="20.2" /></g></g><path
       id="path224"
       d="M36.7,401.5c-0.5-1-1.2-0.9-1.2-0.9s-0.6-0.1-1.2,0.9l-8.4,14.8c-1.1,1.9-0.1,2.6,1,2.7h17.2   c1.2-0.1,2.1-0.8,1-2.7L36.7,401.5z M36.1,412.8c-0.1,0.3-0.3,0.5-0.5,0.5h-0.1c-0.3,0-0.4-0.2-0.5-0.5c-1.5-5.4-2.3-9,0.5-9   C38.3,403.9,37.5,407.5,36.1,412.8z M35.5,417.5c-0.9,0-1.7-0.8-1.7-1.7c0-0.9,0.8-1.7,1.7-1.7h0.1c0.9,0,1.6,0.8,1.6,1.7   C37.2,416.8,36.5,417.5,35.5,417.5z"
       class="st8" /><g
       id="g226"
       class="st7"><g
         id="g228"><rect
           id="rect230"
           height="29.2"
           width="96.7"
           y="354.2"
           x="20.2" /></g></g><text
       id="text232"
       class="st7"
       transform="matrix(0.99 0 0 1 46.8789 417.1528)"><tspan
         id="tspan234"
         class="st1 st2 st3"
         y="0"
         x="0">W</tspan><tspan
         id="tspan236"
         class="st1 st2 st3"
         y="0"
         x="12.9">A</tspan><tspan
         id="tspan238"
         class="st1 st2 st3"
         y="0"
         x="22.3">RNING</tspan></text>
<text
       id="text240"
       class="st8 st2 st3"
       transform="matrix(1.01 0 0 1 46.8789 459.4868)">CAUTION</text>
<g
       id="g242"
       class="st7"><g
         id="g244"><rect
           id="rect246"
           height="29.2"
           width="96.7"
           y="485.5"
           x="20.2" /></g></g><text
       id="text248"
       class="st8 st2 st3"
       transform="matrix(1.01 0 0 1 36.3584 505.4868)">CAUTION</text>
<text
       id="text250"
       class="st7"
       transform="matrix(1 0 0 1 48.1289 374.0942)"><tspan
         id="tspan252"
         class="st1 st2 st3"
         y="0"
         x="0">D</tspan><tspan
         id="tspan254"
         class="st1 st2 st3"
         y="0"
         x="10.2">ANGER</tspan></text>
<path
       id="path256"
       d="M47.7,280.4c-1.4-2.5-3.1-2.3-3.1-2.3s-1.6-0.2-3,2.3l-21.1,37.3c-2.8,4.8-0.4,6.6,2.4,6.8h43.4   c3-0.2,5.2-2.1,2.4-6.8L47.7,280.4z M46,308.9c-0.2,0.8-0.7,1.3-1.2,1.3h-0.2c-0.7,0-1-0.5-1.2-1.3c-3.9-13.5-5.7-22.6,1.2-22.6   C51.7,286.4,49.7,295.4,46,308.9z M44.6,320.8c-2.3,0-4.2-1.9-4.2-4.2c0-2.3,1.9-4.2,4.2-4.2h0.2c2.3,0,4.1,1.9,4.1,4.2   C48.9,318.9,47.1,320.8,44.6,320.8z"
       class="st7" /><path
       id="path258"
       d="M36.7,358.5c-0.5-1-1.2-0.9-1.2-0.9s-0.6-0.1-1.2,0.9l-8.4,14.8c-1.1,1.9-0.1,2.6,1,2.7h17.2   c1.2-0.1,2.1-0.8,1-2.7L36.7,358.5z M36.1,369.8c-0.1,0.3-0.3,0.5-0.5,0.5h-0.1c-0.3,0-0.4-0.2-0.5-0.5c-1.5-5.4-2.3-9,0.5-9   C38.3,360.9,37.5,364.5,36.1,369.8z M35.5,374.5c-0.9,0-1.7-0.8-1.7-1.7c0-0.9,0.8-1.7,1.7-1.7h0.1c0.9,0,1.6,0.8,1.6,1.7   C37.2,373.8,36.5,374.5,35.5,374.5z"
       class="st8" /></g></svg>