<svg id="Layer_2" data-name="Layer 2" xmlns="http://www.w3.org/2000/svg" viewBox="0 0 124.22 145.28"><title>ASME_clover_HLW</title><path d="M62.11,117.16s-13.65-.57-21.33,2.56-11.66,1.14-15.35-1.42-4.83-9.38-4-15.92C7.8,108.63-2.15,94.69,2.4,83.89S5.24,46.07,4.67,42.94.69,32.42,3,25.6s12.8-8.25,18.77-5.4C17.47,6.26,30.26-.57,36.52,1.71S55,4.84,62.11,4.84,81.45,4,87.7,1.71s19,4.55,14.78,18.48c6-2.84,16.49-1.42,18.77,5.4s-1.14,14.22-1.71,17.35-2.27,30.14,2.28,40.95-5.4,24.74-19.05,18.48c.85,6.54-.28,13.36-4,15.92s-7.68,4.55-15.35,1.42S62.11,117.16,62.11,117.16Z" style="fill:none;stroke:#000;stroke-linejoin:round;stroke-width:2.55913px"/><path d="M39.7,42.09H41.3L33.48,21l-1.59,0L23.64,42.09h1.58l2.59-6.4h9.44ZM28.5,34l4.16-10.32L36.6,34Z" style="fill:#231f20"/><path d="M51.16,60.43c-5.51,0-7.36-3.07-7.94-5.64l1.66-.37c.65,2.9,2.71,4.31,6.28,4.31.23,0,5.69,0,5.69-4.27,0-2.59-2.76-3.53-5.75-4.17l-.56-.12L49.92,50c-2-.4-5.73-1.14-5.73-5.39,0-2.28,1.84-4,4.81-4.54,3.61-.64,8,.62,9.21,3.82l-1.6.58c-.82-2.25-4.44-3.23-7.31-2.72-.8.14-3.4.76-3.4,2.86,0,2.64,2,3.25,4.36,3.72l.67.14.53.11c2.12.45,7.1,1.5,7.1,5.83C58.56,58.56,54.72,60.43,51.16,60.43Z" style="fill:#231f20"/><polygon points="71.5 79.23 69.92 79.23 63.25 62.8 63.25 79.05 61.54 79.05 61.62 58.42 63.26 58.42 70.71 76.65 78.31 58.42 79.96 58.42 79.88 78.91 78.17 78.91 78.17 62.92 71.5 79.23" style="fill:#231f20"/><polygon points="85.57 95.97 85.57 87.58 95.95 87.58 95.95 85.88 85.57 85.88 85.57 78.34 97.51 78.34 97.51 76.64 83.86 76.64 83.86 97.68 97.65 97.68 97.65 95.97 85.57 95.97" style="fill:#231f20"/><path d="M33.88,145.28V128h3.49v6.81h6.85V128h3.49v17.31H44.22v-7.57H37.37v7.57Z" style="fill:#231f20"/><path d="M54.81,145.28V128.12H58.3v14.25H67v2.92Z" style="fill:#231f20"/><path d="M74,145.28,69.86,128h3.58L76,139.86,79.2,128h4.16l3,12.09L89.05,128h3.52l-4.2,17.31H84.66l-3.45-12.94-3.44,12.94Z" style="fill:#231f20"/></svg>