<svg id="Vector" xmlns="http://www.w3.org/2000/svg" viewBox="0 0 107.17 107.17"><defs><style>.cls-1,.cls-10,.cls-2,.cls-7,.cls-8{fill:#231f20;}.cls-1,.cls-2,.cls-3,.cls-4,.cls-5,.cls-6,.cls-7,.cls-8,.cls-9{stroke:#231f20;stroke-miterlimit:10;}.cls-1,.cls-3{stroke-width:0.25px;}.cls-2,.cls-6{stroke-width:0.5px;}.cls-3,.cls-6,.cls-9{fill:#fff;}.cls-4,.cls-5{fill:none;}.cls-5{stroke-width:2.8px;}.cls-7{stroke-width:0.2px;}.cls-8,.cls-9{stroke-width:0.1px;}.cls-10{font-size:5.18px;font-family:ArialMT, Arial;}</style></defs><title>CSA_bluflame_in_blck-whte</title><polygon class="cls-1" points="76.57 52.67 61.83 52.67 62.24 52.25 62.24 51.58 61.98 51.47 61.98 50.86 62.76 50.95 64.65 51.72 64.79 52.47 65.69 52.42 65.71 51.97 65.35 51.63 63.88 50.72 61.51 50.28 61.02 50.64 60.87 51.97 58.27 50.58 59.29 50.36 59.71 50.1 60.47 49.69 60.92 49.14 60.96 48.17 62.46 46.29 62.17 49.46 64.83 50.29 65.02 50.53 66.18 50.56 66.71 49.88 66.68 47.45 66.18 47.33 65.54 46.66 66.18 46.17 66.9 45.5 66.94 44.83 66.61 44.8 66.71 44.48 65.24 42.78 65.33 41.95 66.02 42.43 67.24 43.65 67.9 43.45 69.04 43.36 69.52 43.56 70.42 43.17 70.24 42.14 69.58 40.78 68.24 39.52 66.43 37.69 67.04 36.29 68.3 36.95 70.72 39.45 72.5 41.61 73.46 43.17 74.44 44.98 75.24 46.97 76.15 50.26 76.57 52.67"/><polygon class="cls-2" points="39.75 65.92 33.15 65.79 17.33 65.92 15.27 51.67 95.4 53.17 87.52 64.42 39.75 65.92"/><circle class="cls-3" cx="53.78" cy="64.24" r="14.14"/><circle class="cls-4" cx="53.58" cy="53.58" r="53.08"/><path class="cls-4" d="M53.84,58.26a6.35,6.35,0,0,1,5.06,6.26,6.47,6.47,0,0,1-1.4,4" transform="translate(0.91 -0.38)"/><path class="cls-4" d="M49.4,69.88a6,6,0,0,1-2.79-3.71" transform="translate(0.91 -0.38)"/><line class="cls-4" x1="52.1" y1="56.17" x2="52.1" y2="60.73"/><line class="cls-4" x1="50.12" y1="60.4" x2="52.62" y2="60.4"/><line class="cls-4" x1="50.56" y1="58.75" x2="50.56" y2="60.73"/><line class="cls-4" x1="55.19" y1="56.25" x2="55.19" y2="72.1"/><line class="cls-4" x1="56.47" y1="57.22" x2="56.65" y2="71.43"/><line class="cls-4" x1="58.34" y1="67.64" x2="60.04" y2="69.19"/><path class="cls-4" d="M51.55,72a7.52,7.52,0,0,1-6.14-5.71" transform="translate(0.91 -0.38)"/><path class="cls-4" d="M56.11,71.38a7.31,7.31,0,0,1-2.27.75" transform="translate(0.91 -0.38)"/><path class="cls-4" d="M53.94,57.09a7.51,7.51,0,0,1,6.38,7.47A7.59,7.59,0,0,1,58.9,69" transform="translate(0.91 -0.38)"/><path class="cls-4" d="M45.48,62.54a7.66,7.66,0,0,1,6.07-5.7" transform="translate(0.91 -0.38)"/><path class="cls-4" d="M47.13,63.16c.51-2.92,1.7-4.41,4.3-4.9" transform="translate(0.91 -0.38)"/><path class="cls-4" d="M51.55,70.78A6.45,6.45,0,0,1,46.67,66" transform="translate(0.91 -0.38)"/><path class="cls-4" d="M54.52,58a6.4,6.4,0,0,1,5.27,6.25,6.29,6.29,0,0,1-1.46,4" transform="translate(0.91 -0.38)"/><line class="cls-4" x1="55.8" y1="57.07" x2="55.97" y2="71.28"/><line class="cls-4" x1="52.1" y1="64.81" x2="52.1" y2="72.1"/><line class="cls-4" x1="51.21" y1="64.42" x2="51.21" y2="71.71"/><line class="cls-4" x1="50.69" y1="64.86" x2="50.56" y2="71"/><path class="cls-4" d="M50.78,70.69A6.29,6.29,0,0,1,45.9,66.2" transform="translate(0.91 -0.38)"/><line class="cls-4" x1="47.02" y1="60.02" x2="52.17" y2="65.13"/><line class="cls-4" x1="46.33" y1="61.71" x2="50.63" y2="65.65"/><line class="cls-4" x1="46.93" y1="61.05" x2="51.23" y2="64.99"/><path class="cls-4" d="M46.25,62.81a6.32,6.32,0,0,1,5.1-5" transform="translate(0.91 -0.38)"/><line class="cls-4" x1="57.02" y1="63.56" x2="59.52" y2="63.56"/><line class="cls-4" x1="57.02" y1="64.48" x2="59.52" y2="64.48"/><line class="cls-4" x1="56.95" y1="64.92" x2="59.45" y2="64.92"/><line class="cls-4" x1="51.21" y1="58.23" x2="51.21" y2="60.21"/><path class="cls-5" d="M61.07,72a11.11,11.11,0,1,1,0-14.65" transform="translate(0.91 -0.38)"/><path class="cls-2" d="M48.56,24.4c3.2-6.65,5-11.46,3-15.29,4.17.67,11.79,10.29,13.67,22.71v3.83c-1.29,8-5.25,11.75-12,14.83-5-1.7-14-13.35-4.38-26.7" transform="translate(0.91 -0.38)"/><path class="cls-6" d="M50.63,31c2.54-5,5.93-8.54,4.34-11.4,4.42,5.24,7.32,10.43,7.32,16.68h0c-.62,6.18-1.22,10.18-7.9,14.16-6.23-1.6-11.08-9.95-3.46-19.9" transform="translate(0.91 -0.38)"/><path class="cls-1" d="M53.54,49.66c-4.39-2.23-8.86-8.72-.87-19.41,2.48-3.6,2.79-4.89,3.17-8.06,3.39,5.44,4,6.47,5.08,12v4.13C60.29,44.57,58.17,47.88,53.54,49.66Z" transform="translate(0.91 -0.38)"/><path class="cls-3" d="M52.11,40.88c-.56,3.22.45,8.21.45,8.21l2.61-.17s2-4.79,1.78-8.73c-.27-5.17-2.08-6.95-2.29-7S53.14,35,52.11,40.88Z" transform="translate(0.91 -0.38)"/><polygon class="cls-7" points="59.61 49.5 59.12 49.55 58.34 49.65 58.56 49.16 59.78 48.41 60.24 48.41 60.05 49.88 59.61 49.5"/><polygon class="cls-7" points="65.13 44.22 65.48 44.48 65.88 44.56 66.18 45.18 65.92 45.65 65 45.83 64.96 46.08 64.77 46.03 64.81 46.94 65.16 47.19 65.27 47.45 65.83 47.44 65.88 49.88 65.52 49.88 65.23 49.47 64.8 49.44 64.72 48.86 63.81 48.87 63.77 49.09 63.31 49.14 63.32 48.9 62.85 48.95 63.15 47.84 63.79 47.39 63.79 46.27 63.41 46.19 63.59 45.52 64.08 44.75 64.92 43.45 65.13 44.22"/><polygon class="cls-7" points="69.33 42.29 69.19 42.3 69.05 42.6 68.64 42.6 68.44 42.32 67.03 42.37 66.18 41.44 65.75 41.35 65.75 40.61 65.87 39.89 66.18 39.54 66.38 38.85 69.25 41.42 69.33 42.29"/><polygon class="cls-1" points="43.26 36.86 41.68 38.25 39.65 39.91 37.62 41.66 35.65 43.72 35.26 44.9 35.18 46.25 34.97 48.2 35.65 48.69 35.69 51.03 35.41 51.08 35.46 52.09 31.05 52.09 31.3 50.35 31.64 48.85 32.26 46.87 33.21 44.87 34.5 42.3 35.81 40.51 36.88 39.24 39.06 37.06 41.26 35.5 44.77 33.55 44.77 38.44 43.26 36.86"/><polygon class="cls-1" points="52.42 49.99 49.17 50.5 47.27 49.37 45.03 48.3 42.43 46.88 39.8 45.21 37.75 43.73 38.79 42.42 39.76 41.44 41.23 39.92 43.21 38.08 43.66 38.26 43.65 38.79 44.34 38.83 44.42 38.46 44.77 38.69 44.95 39.56 45.03 40.43 45.32 41.48 45.9 43.62 46.47 44.47 47.09 45.48 48.06 46.71 48.95 47.77 49.87 48.52 50.67 49.1 51.52 49.51 52.42 49.99"/><polygon class="cls-1" points="41.79 48.21 39.92 52.09 36.5 52.09 36.63 48.41 36.02 47.78 36.02 45.64 36.27 44.79 36.91 44.69 37.42 45.13 39.88 46.66 41.79 48.21"/><polygon class="cls-8" points="47.51 51.45 47.06 51.73 47.02 51.27 47.2 51.24 47.27 50.83 47.94 50.84 48.17 51.19 47.51 51.45"/><polygon class="cls-1" points="45.6 52.23 41.17 52.15 42.83 48.71 46.4 50.35 45.6 52.23"/><path class="cls-1" d="M38.58,66.58l-6-.41c4.3,7.46,8.59,12,20.33,12.58h-.2c-8-.7-12.42-5.58-14.17-12.45" transform="translate(0.91 -0.38)"/><path class="cls-1" d="M69.63,65.19l4.14.11c-4.23,8-8.39,13.45-19.5,13.68h.19c7.48-1.3,10.89-6.25,12.71-13.68" transform="translate(0.91 -0.38)"/><polygon class="cls-9" points="69.16 67.58 68.85 67.06 68.9 66.64 67.87 66.63 67.87 65.34 68.63 65.82 69.33 65.92 69.66 66.4 70.19 66.16 70.3 65.52 70.08 65.41 70.08 65.22 71.13 65.22 71.22 65.65 71.22 66.09 70.97 66.72 70.8 67.16 70.4 67.38 69.9 67.58 69.16 67.58"/><polygon class="cls-9" points="65.72 72.1 67.2 69.34 67.87 69.28 67.92 69.83 67.6 70.31 67.15 70.95 65.72 72.1"/><text class="cls-10" transform="translate(37.91 84.54) scale(1.25 1)">CERTIFIED</text></svg>