<svg id="Layer_1" data-name="Layer 1" xmlns="http://www.w3.org/2000/svg" viewBox="0 0 190.67 232"><defs><style>.cls-1{fill:#fff;}</style></defs><title>IAPMORT Shield_leadfree</title><rect class="cls-1" width="190.67" height="232"/><path d="M16.51,58.86h2.63v21.5H16.51Z"/><path d="M29.94,78.62,33,69.13l3,9.5Zm-5.56,8.82h2.69L29.18,81h7.57l2,6.45h2.85l-7-21.51h-3Z"/><path d="M60.07,82.22A3.49,3.49,0,0,1,59,85.15a4.51,4.51,0,0,1-2.83.83H51V78.55h5.14A5.09,5.09,0,0,1,58.5,79,3.32,3.32,0,0,1,60.07,82.22Zm-11.7,15.3H51V88.45h6a5.05,5.05,0,0,0,4.3-1.87,7,7,0,0,0,1.42-4.38,6.24,6.24,0,0,0-1.59-4.56A5.56,5.56,0,0,0,57,76H48.37Z"/><path d="M66.69,85.8h3.72L76,104,81.47,85.8h3.7v21.5H82.69V94.6c0-.43,0-1.16,0-2.17s0-2.1,0-3.27L77.24,107.3H74.65L69.1,89.16l2,3.66c0,.53-2-1.67-2-.59s0,1.87,0,2.37v12.7H66.69Z"/><path d="M100.43,114.51q-3.65,0-5.28-2.45a10.67,10.67,0,0,1-1.62-6q0-4.47,1.89-6.76A6.08,6.08,0,0,1,100.33,97a5.84,5.84,0,0,1,4.88,2.31A9.72,9.72,0,0,1,107,105.4a12.72,12.72,0,0,1-1.55,6.35A5.31,5.31,0,0,1,100.43,114.51Zm-.27-20.12a8.16,8.16,0,0,0-7.37,4,13.71,13.71,0,0,0-2,7.46,13.28,13.28,0,0,0,2.29,8,9.09,9.09,0,0,0,14.34-.47,13.79,13.79,0,0,0,2.19-8,12.81,12.81,0,0,0-1.92-7.3Q105.28,94.39,100.16,94.39Z"/><path d="M3.62,35.7V39h.07c-.36,28.18.37,54.19,2.09,73.29l.55,5.25.5,4.81a80.53,80.53,0,0,0,8.64,29.47l1.29,2.75c5.32,11.45,15,22.94,21.36,30.54l.62.72C46.23,195,62.14,210,95.21,228.86l1.72,1a2.16,2.16,0,0,0,2,0l1-.62c15.57-9.31,43.79-27.59,57.76-45.5l3.42-4.45c5.36-6.89,12-15.46,15.93-24.79a110.29,110.29,0,0,0,7.87-32.31c.21-.94.52-4.26.85-7.85l.19-2.09C188.27,84,188.3,46.79,188,38.55V35.7ZM158.51,177.44l-3.44,4.46c-10.12,12.95-30.31,28.84-56.86,44.71l-.3.22c-.35-.21-.6-.39-1.06-.65-32.64-18.56-48.25-33.26-55.59-42.32l-.63-.76c-6.28-7.47-15.77-18.77-20.9-29.79l-1.34-2.86A77.88,77.88,0,0,1,10,121.92c0-.07-.48-4.7-.48-4.7L9,111.86c-.39-4.37-.73-9.12-1-14.19L164.88,169C162.72,172,160.51,174.86,158.51,177.44Zm23.2-55.69A107.77,107.77,0,0,1,174,153.34a74.26,74.26,0,0,1-7.33,13.06L8.08,94.28a1.2,1.2,0,0,0-.29-.07c-.63-12.39-1-26.5-1-41.51,0-3.86,0-7.81.07-11.78l175.31,76.42C182,119.25,181.85,121.11,181.71,121.75Zm1-9.76s-.16,1.89-.17,2.06L10.3,39H184.79c0,1.9.07,5.6.07,10.75C184.86,64.38,184.55,89.77,182.7,112Z"/><path d="M179.87,225.69A15.06,15.06,0,1,1,184.28,215,14.52,14.52,0,0,1,179.87,225.69ZM160,205.89a12.47,12.47,0,0,0-3.78,9.15,12.61,12.61,0,0,0,3.76,9.2,13,13,0,1,0,0-18.35Zm8.91.84a12.64,12.64,0,0,1,4.53.6,4.11,4.11,0,0,1,2.57,4.19,3.61,3.61,0,0,1-1.62,3.27,6.24,6.24,0,0,1-2.4.8,4,4,0,0,1,2.84,1.61,4.51,4.51,0,0,1,.9,2.55v1.2c0,.38,0,.79,0,1.22a2.68,2.68,0,0,0,.14.85l.1.21h-2.7l0-.16,0-.18-.06-.53v-1.3q0-2.84-1.57-3.76a7.23,7.23,0,0,0-3.27-.53H166v6.45h-2.9v-16.5Zm3.15,2.68a7.77,7.77,0,0,0-3.55-.61H166v5.9h2.65a8.12,8.12,0,0,0,2.79-.36,2.51,2.51,0,0,0,1.72-2.55A2.48,2.48,0,0,0,172.08,209.41Z"/><path d="M117.74,128.36v-18.9h8.38A11.16,11.16,0,0,1,130,110a4.2,4.2,0,0,1,2.1,1.8,5.36,5.36,0,0,1,.79,2.85,4.75,4.75,0,0,1-1.3,3.39,6.59,6.59,0,0,1-4,1.75,6.49,6.49,0,0,1,1.51.94,13.05,13.05,0,0,1,2.08,2.51l3.29,5.14h-3.15l-2.5-3.93q-1.1-1.7-1.81-2.6a5.65,5.65,0,0,0-1.27-1.26,3.75,3.75,0,0,0-1.14-.5,7.53,7.53,0,0,0-1.39-.09h-2.9v8.39Zm2.5-10.56h5.38a8.07,8.07,0,0,0,2.68-.35,2.85,2.85,0,0,0,1.47-1.13,3.06,3.06,0,0,0,.5-1.7,2.82,2.82,0,0,0-1-2.21,4.55,4.55,0,0,0-3.07-.86h-6Z"/><path d="M147.55,136.46a7.91,7.91,0,0,1-2.5,1.91,6.78,6.78,0,0,1-2.93.64,5.78,5.78,0,0,1-4.6-2,5.33,5.33,0,0,1-1.38-3.57,4.94,4.94,0,0,1,1.13-3.16,9.41,9.41,0,0,1,3.37-2.48,11.26,11.26,0,0,1-1.7-2.39,4.17,4.17,0,0,1-.43-1.77,3.94,3.94,0,0,1,1.33-3,4.71,4.71,0,0,1,3.36-1.26,4.37,4.37,0,0,1,3.17,1.19,3.82,3.82,0,0,1,1.23,2.85q0,2.7-3.57,4.6l3.39,4.32a10.73,10.73,0,0,0,.9-2.63l2.41.52a13.16,13.16,0,0,1-1.68,4.07,13.44,13.44,0,0,0,3,2.9l-1.56,1.84A13.48,13.48,0,0,1,147.55,136.46Zm-1.46-1.83-4.25-5.27a8.16,8.16,0,0,0-2.54,2.08,3.36,3.36,0,0,0-.66,1.9,4,4,0,0,0,.91,2.39,3,3,0,0,0,2.59,1.24,4.28,4.28,0,0,0,2.16-.65A5.24,5.24,0,0,0,146.09,134.63Zm-3.26-8a6.18,6.18,0,0,0,2-1.56,2.63,2.63,0,0,0,.44-1.48,2.14,2.14,0,0,0-.61-1.58,2.07,2.07,0,0,0-1.53-.61,2.16,2.16,0,0,0-1.57.61,2,2,0,0,0-.62,1.48,2.18,2.18,0,0,0,.23.92,4.82,4.82,0,0,0,.68,1Z"/><path d="M159.85,147V130.36h-6.23v-2.23h15v2.23h-6.25V147Z"/><path d="M4.32,7.89H9.25V27.27H21v4.25H4.32Z"/><path d="M41.83,12.08H29.33v5H40.81v4.1H29.33v6.07H42.41v4.25H24.51V7.89H41.83Z"/><path d="M53,7.89h5.58l8.36,23.62H61.6L60,26.66h-8.7l-1.6,4.85H44.58Zm-.32,14.69h6l-3-9.29Z"/><path d="M83.79,8.41a7.8,7.8,0,0,1,4,3,10.48,10.48,0,0,1,1.68,3.81,18.36,18.36,0,0,1,.45,3.91,15.71,15.71,0,0,1-1.89,8,8.54,8.54,0,0,1-7.92,4.41H70V7.89H80.14A12.42,12.42,0,0,1,83.79,8.41Zm-9,3.59V27.41H79.3A4.92,4.92,0,0,0,84.18,24a12.15,12.15,0,0,0,.75-4.5,11.08,11.08,0,0,0-1.13-5.54Q82.67,12,79.3,12Z"/><path d="M102.77,7.93h16.84v4.15H107.67v5.43h10.46v4.1H107.67v9.9h-4.9Z"/><path d="M138,8.5a5.84,5.84,0,0,1,2.21,1.65,7.41,7.41,0,0,1,1.19,2,6.58,6.58,0,0,1,.44,2.48,7.07,7.07,0,0,1-.85,3.31,4.75,4.75,0,0,1-2.81,2.3,4.41,4.41,0,0,1,2.32,1.87,7.78,7.78,0,0,1,.68,3.69v1.59a11.93,11.93,0,0,0,.13,2.2,2,2,0,0,0,.91,1.35v.59h-5.45c-.15-.52-.26-.95-.32-1.27a11.39,11.39,0,0,1-.21-2l0-2.2a4.44,4.44,0,0,0-.78-3,4,4,0,0,0-2.81-.75h-4.82v9.26h-4.82V7.89h11.29A10.29,10.29,0,0,1,138,8.5ZM127.75,12v6.35h5.31a5.66,5.66,0,0,0,2.38-.38,2.66,2.66,0,0,0,1.4-2.66,3,3,0,0,0-1.36-2.88A4.88,4.88,0,0,0,133.2,12Z"/><path d="M164,12.08h-12.5v5H163v4.1H151.48v6.07h13.08v4.25h-17.9V7.89H164Z"/><path d="M185.87,12.08h-12.5v5h11.47v4.1H173.37v6.07h13.08v4.25h-17.9V7.89h17.32Z"/></svg>