<svg id="Layer_1" data-name="Layer 1" xmlns="http://www.w3.org/2000/svg" width="64.6" height="84.75" viewBox="0 0 64.6 84.75">
  <defs>
    <style>
      .cls-1 {
        fill: none;
        stroke: #000;
        stroke-width: 0.5px;
      }

      .cls-2 {
        fill: #fff;
      }
    </style>
  </defs>
  <title>burn_hazard-hot_water-icon</title>
  <g>
    <path class="cls-1" d="M29.64,39.67c-.81,2-2.4,3.39-4.22,3.39-2.65,0-4.79-2.89-4.79-6.45s2.15-6.45,4.79-6.45a4.74,4.74,0,0,1,4.13,3.18"/>
    <path class="cls-1" d="M28.59,39.68a3.52,3.52,0,0,1-3,2.11c-2.05,0-3.72-2.32-3.72-5.18s1.67-5.18,3.72-5.18a3.45,3.45,0,0,1,2.89,1.91"/>
    <path class="cls-1" d="M28.48,33.34l0,0"/>
    <path class="cls-1" d="M25.31,39.55c-1.08,0-2-1.38-2-3.08s.88-3.08,2-3.08"/>
    <path class="cls-1" d="M25.13,33.4l12.93,0c2.5-.08,7.6,1.94,5.37,9.85l-4.78,0c-1-1.67-1.12-3.52-3.79-3.52l-9.7-.16"/>
    <g>
      <path class="cls-1" d="M14.59,43.77l2.31,0a4.23,4.23,0,0,1,1.83-3.54h0v-2c-1.4-.9-1.69-2.87-1.69-3.91h-2a4.1,4.1,0,0,1-2.11,3.81v2.13a4.85,4.85,0,0,1,1.64,3.45Z"/>
      <path class="cls-1" d="M13.88,34.4c0,.46-.23,2.13-1.14,2.58l-2.53,0c.91-.45,1.15-2.09,1.13-2.55Z"/>
      <rect class="cls-1" x="9.44" y="37.86" width="2.46" height="2.52" transform="translate(-28.6 49.25) rotate(-89.2)"/>
      <path class="cls-1" d="M13.3,43.88c0-.46-.18-2.13-1.08-2.6l-2.53,0c.9.47,1.1,2.12,1.07,2.57Z"/>
      <path class="cls-1" d="M15.67,38.89c.08-.28.25-.47.43-.47s.48.38.48.86-.22.86-.48.86-.36-.2-.44-.49"/>
      <path class="cls-1" d="M7.79,43.24A4.48,4.48,0,0,1,4.91,44.3a5.08,5.08,0,0,1,0-10.12,4.38,4.38,0,0,1,2.52.8l2.65.07a5.22,5.22,0,0,0-1.84,4c0,1.79.24,3.47,1.24,4.21Z"/>
    </g>
    <path class="cls-1" d="M44,33.74l2,0a3.72,3.72,0,0,1,1.61-3.11h0V28.92a4.17,4.17,0,0,1-1.49-3.44H44.36a3.61,3.61,0,0,1-1.86,3.35V30.7a4.25,4.25,0,0,1,1.45,3Z"/>
    <path class="cls-1" d="M43.33,25.5c0,.4-.2,1.87-1,2.26l-2.22,0c.8-.39,1-1.84,1-2.24Z"/>
    <rect class="cls-1" x="39.43" y="28.54" width="2.16" height="2.22" transform="translate(10.33 69.77) rotate(-89.25)"/>
    <path class="cls-1" d="M42.81,33.83c0-.4-.16-1.87-.95-2.29l-2.22,0c.79.41,1,1.86.94,2.26Z"/>
    <path class="cls-1" d="M44.91,29.44c.07-.24.21-.41.38-.41s.43.34.43.75-.19.75-.43.75-.32-.18-.39-.43"/>
    <path class="cls-1" d="M33,33.32a4.58,4.58,0,0,1-1.65-3.57,4.29,4.29,0,0,1,4.1-4.45,3.85,3.85,0,0,1,2.22.71l2.34.06a4.58,4.58,0,0,0-1.62,3.51c0,1.57.21,3.05,1.09,3.7H38"/>
    <path class="cls-1" d="M35,59.46a.89.89,0,0,0,.27-.13c.43-.3.64-.93.86-.13s-.46-.32-.2.36-.08,1.63.48,1-.16-.53.63-.3c.19.05.35,0,.34.09-.09.41-.29.6-.17.76.46.67.13,1.15.69.43.41-.52,0-1,.57-.67s.78-.39.78.41-.29.13.17.58.46,1,.64.25-.3-1,.26-.84.43-.46.6.25.22.48.43.71.47.76.47,0-.39-1,0-.93.34-.25.65.34,0,.34.3.59.73.63.73.3,0,.13,0-.55-.43-1.26.35-.79c.61.36.34,1.16.94,1s.12-.79.11-.8c-.11-.23-.18-.55-.19-.51s-.21-.29.48-.12.29.54.59.54.46-.24.25-.75-1.15-.21-.15-.5,1.12-.3.78-.35a11.49,11.49,0,0,0-1.17-.17"/>
    <path class="cls-1" d="M38.67,43.63,34.78,57.34a1,1,0,0,0,.32.34"/>
    <g>
      <path d="M36.43,63.8h2.18a1.2,1.2,0,0,1,.84.26.84.84,0,0,1,.29.65.82.82,0,0,1-.21.56.94.94,0,0,1-.41.25,1.05,1.05,0,0,1,.6.32.89.89,0,0,1,.19.58,1,1,0,0,1-.14.51,1,1,0,0,1-.37.36,1.24,1.24,0,0,1-.44.12l-.52,0h-2Zm1.17,1.44h.51a.59.59,0,0,0,.38-.09.33.33,0,0,0,.11-.26.31.31,0,0,0-.11-.25.6.6,0,0,0-.37-.09H37.6Zm0,1.44h.59a.67.67,0,0,0,.42-.1.35.35,0,0,0,.12-.28.32.32,0,0,0-.12-.26.71.71,0,0,0-.43-.1H37.6Z"/>
      <path d="M42.83,63.8H44V66a1.79,1.79,0,0,1-.1.61,1.39,1.39,0,0,1-.79.81,2.41,2.41,0,0,1-.81.12,5.4,5.4,0,0,1-.6,0,1.62,1.62,0,0,1-.54-.15,1.36,1.36,0,0,1-.4-.32,1.13,1.13,0,0,1-.25-.42,2.15,2.15,0,0,1-.11-.62V63.8h1.16V66a.63.63,0,0,0,.17.47.65.65,0,0,0,.47.17.66.66,0,0,0,.47-.16.64.64,0,0,0,.17-.47Z"/>
      <path d="M44.77,67.47V63.8h1.93a2.88,2.88,0,0,1,.82.09.88.88,0,0,1,.46.33,1,1,0,0,1,.17.59,1,1,0,0,1-.13.53,1,1,0,0,1-.37.36,1.41,1.41,0,0,1-.41.14,1.19,1.19,0,0,1,.3.14,1.21,1.21,0,0,1,.19.19,1.59,1.59,0,0,1,.16.23l.57,1.06H47.15l-.62-1.12a.87.87,0,0,0-.21-.28A.5.5,0,0,0,46,66h-.1v1.49Zm1.16-2.19h.49l.31,0a.32.32,0,0,0,.19-.11.36.36,0,0,0,0-.48.73.73,0,0,0-.43-.09h-.51Z"/>
      <path d="M48.85,63.8h1.08l1.42,2v-2h1.09v3.67H51.35l-1.41-2v2H48.85Z"/>
    </g>
    <line class="cls-1" x1="39.18" y1="43.82" x2="35.7" y2="58.87"/>
    <line class="cls-1" x1="39.7" y1="43.93" x2="36.78" y2="60"/>
    <line class="cls-1" x1="40.28" y1="44.02" x2="38.38" y2="60.62"/>
    <line class="cls-1" x1="40.81" y1="44.07" x2="40.04" y2="61.05"/>
    <line class="cls-1" x1="41.69" y1="57.52" x2="41.76" y2="61.25"/>
    <line class="cls-1" x1="41.41" y1="44.1" x2="41.66" y2="56.1"/>
    <line class="cls-1" x1="43.14" y1="58.55" x2="43.39" y2="61.56"/>
    <line class="cls-1" x1="41.91" y1="43.86" x2="42.86" y2="55.14"/>
    <line class="cls-1" x1="44.46" y1="59.14" x2="44.68" y2="60.92"/>
    <line class="cls-1" x1="42.5" y1="43.69" x2="43.95" y2="55.22"/>
    <line class="cls-1" x1="45.71" y1="59.14" x2="45.76" y2="59.44"/>
    <line class="cls-1" x1="43.07" y1="43.39" x2="45.04" y2="55.24"/>
    <rect class="cls-2" x="34.37" y="45.72" width="12.91" height="6.49"/>
    <g>
      <path d="M31.84,46.24h1.74v1.92h1.91V46.24h1.75v5.5H35.49V49.51H33.58v2.23H31.84Z"/>
      <path d="M38.18,49a2.8,2.8,0,0,1,.77-2.1,2.94,2.94,0,0,1,2.14-.75,3,3,0,0,1,2.17.74A2.75,2.75,0,0,1,44,48.94a3.33,3.33,0,0,1-.33,1.58,2.32,2.32,0,0,1-1,1,3.24,3.24,0,0,1-1.57.34,3.67,3.67,0,0,1-1.58-.3,2.35,2.35,0,0,1-1-.94A3.06,3.06,0,0,1,38.18,49Zm1.74,0a1.81,1.81,0,0,0,.32,1.2,1.23,1.23,0,0,0,1.74,0,2,2,0,0,0,.31-1.28A1.67,1.67,0,0,0,42,47.79a1.11,1.11,0,0,0-.87-.36,1.07,1.07,0,0,0-.85.37A1.81,1.81,0,0,0,39.92,49Z"/>
      <path d="M44.36,46.24h5.3V47.6H47.88v4.14H46.14V47.6H44.36Z"/>
    </g>
    <path class="cls-1" d="M34.66,57.22a11.45,11.45,0,0,1-1.4-2.34c-.75-1.25-1.67-1.29-1.67-.27a2.38,2.38,0,0,0,.25,1.22c.25.51.35,1,1.05,2.38l.92,1.66c0,.32-1.43-.31-3.8-2-.41-.3-2.2-1-2.58-.29s1,1.54,1.43,1.78c2.66,1.62,4.3,2.59,4.3,2.85,0,.49-.33.37-2.73-.41-2.77-.9-2.6-.86-2.93-1a2.48,2.48,0,0,0-2.2,0c-.57.58-.2.83.45,1.29a6.84,6.84,0,0,0,2.78,1.32,27.61,27.61,0,0,0,3.18,1.15c1.16.31,2.77,1,2.22,1.08a16.47,16.47,0,0,1-4.09-.08c-1.27-.18-3.17-.47-3.43.27a1.1,1.1,0,0,0,.8,1.17c1.11.38.46.41,3.65.71l4.95.47c4.15.4,7.35.52,10.8,1.08,1.79.29,2.14-.28,5.23,1.71,2.51,1.61,8.65,6.33,9.36,7"/>
    <path class="cls-1" d="M46.23,60.68c2.43-1.24-1.2-1.94-1.86-2.33s-.5-.15-1.44-.64-.88-1.17-.35-1.62c.37-.31.83-.34,1.9,0a17.67,17.67,0,0,1,2.51.65c1.23.45.81.27,1.49.77A21.39,21.39,0,0,1,50.67,60,31.55,31.55,0,0,0,55,64.16c1.1,1,7.93,6.22,7.93,6.22"/>
    <line class="cls-1" x1="30.62" y1="48.42" x2="0.61" y2="57.07"/>
    <path class="cls-1" d="M48.78,49.64"/>
    <path class="cls-1" d="M62.45,45.7"/>
    <line class="cls-1" x1="55.36" y1="41.28" x2="44.29" y2="44.47"/>
    <polyline class="cls-1" points="64.48 52.1 53.46 45.73 50.62 46.53"/>
    <line class="cls-1" x1="55.36" y1="41.28" x2="64.17" y2="46.37"/>
    <line class="cls-1" x1="55.67" y1="37.3" x2="55.67"/>
    <path class="cls-1" d="M30.3,52.2,12.14,57.36l0,0a3.86,3.86,0,0,0-2.4,3.53,3.67,3.67,0,0,0,1.6,3L49.43,84.53"/>
    <path class="cls-1" d="M35.09,59.06c-.49-.15-.71.1-.63-.24s.29,0,.33-.65,0-.65-.12-.88"/>
  </g>
</svg>
