<svg id="Layer_1" data-name="Layer 1" xmlns="http://www.w3.org/2000/svg" viewBox="0 0 64.24 53.81"><defs><style>.cls-1{fill-rule:evenodd;}</style></defs><title>brn_hzrd_acid-icn</title><path class="cls-1" d="M21.38,0c6.31,1.8,13.1,2.67,20.16,4.22,4.7,1,10.25,2.21,15.25,3.27,3.21.68,6.37.84,7.22,3.68,1,3.28-1.31,6.43-4.22,6.4a24.49,24.49,0,0,1-4.22-1c-11.14-2.35-24.45-4.67-35.28-7.35.64,3,.84,8.42,1.5,12.94.34,2.34,1.31,5.18-.27,6.4a2.7,2.7,0,0,1-3.95-1.23C18.78,17.66,19.88,8.6,21.38,0ZM55.29,15.39c1.6.34,3.67,1.11,5,.95,3.09-.35,3.71-5,1.5-6.53C61,9.21,58.75,9,57.06,8.58,45.72,6,33.3,3.88,22.34,1.5,21.86,3,21.45,6,21,8.31,31.79,10.8,44.25,13,55.29,15.39Z"/><path class="cls-1" d="M22.61,7.9c10.51.85,23.13,1,33.23,1.63,2,.12,5.22.07,6.13,1.09a3.36,3.36,0,0,1-1.36,5.18c-1.82.52-7.11-1.27-9.4-1.64-9.89-1.57-19.15-4.25-28.33-6C22.65,8.22,22.62,8.07,22.61,7.9Z"/><path class="cls-1" d="M24.38,13.62c.66,0,.61.78.41,1.22C24.18,14.93,24.11,14,24.38,13.62Z"/><path class="cls-1" d="M15.53,13.89c.37-.1.27.27.54.27.11.48-.2.53-.13,1-.39-.12-.36.19-.69.13A1.91,1.91,0,0,1,15.53,13.89Z"/><path class="cls-1" d="M24.11,15.25h.68a1.68,1.68,0,0,1-.28,1.23c-.33,0-.42-.21-.68-.27C23.7,15.66,24.24,15.8,24.11,15.25Z"/><path class="cls-1" d="M15.25,15.53c.87-.36,1.18,1.19.41,1.22C15.18,16.69,15.28,16.05,15.25,15.53Z"/><path class="cls-1" d="M24.11,16.75c-.08.56-.13,1.15-.82,1.09C22.94,17.31,23.5,16.35,24.11,16.75Z"/><path class="cls-1" d="M16.75,18.25a1.58,1.58,0,0,1-.95-1.09C16.47,16.34,17.43,17.68,16.75,18.25Z"/><path class="cls-1" d="M17,18.25c.7.26.65,1.55-.13,1.63-.31-.1.12-.94-.41-.81C16.46,18.59,16.94,18.62,17,18.25Z"/><path class="cls-1" d="M23.43,18.25c0,.6,0,1.17-.41,1.36C22.25,19.58,22.51,17.87,23.43,18.25Z"/><path class="cls-1" d="M22.74,20h.41a3.35,3.35,0,0,1,.14,1.36c-.39.11-.35-.19-.68-.14C22.69,20.57,22.35,20.32,22.74,20Z"/><path class="cls-1" d="M17.43,20.16v1.22a.6.6,0,0,0-.54.27C16.3,21.32,16.71,20,17.43,20.16Z"/><path class="cls-1" d="M22.88,21.93c.39-.12.35.19.68.13v1.23C22.72,23.49,22.75,22.27,22.88,21.93Z"/><path class="cls-1" d="M16.89,22.06c.5.17.18,1.32-.14,1.5-.69.07-.37-1-.27-1.36C16.67,22.21,16.86,22.22,16.89,22.06Z"/><path class="cls-1" d="M23.29,23.83c0,.36.05.78-.14,1-.38.11-.35-.2-.68-.14C22.58,24.21,22.59,23.67,23.29,23.83Z"/><path class="cls-1" d="M17.3,24.92c-.61.11-.76-.24-.82-.68C17,23.78,17.49,24,17.3,24.92Z"/><path class="cls-1" d="M24.24,24.51c.43-.06.61.12.55.55C24.47,25,24.15,25,24.24,24.51Z"/><path class="cls-1" d="M15.39,24.92c.6-.1.55.45.82.68a6,6,0,0,0,.68-.54c.49.55-.6.67-.55,1.22C15.67,26.19,15.61,25.48,15.39,24.92Z"/><path class="cls-1" d="M23,26.69c-.27-.09-.37-.36-.41-.68h.54A.87.87,0,0,1,23,26.69Z"/><path class="cls-1" d="M16.89,26.15c.41.65-.69.94-.82,1.5a.39.39,0,0,1-.41-.28A4,4,0,0,1,16.89,26.15Z"/><path class="cls-1" d="M23,27.37c.06.43-.12.61-.55.55C22.52,27.6,22.56,27.28,23,27.37Z"/><path class="cls-1" d="M17.43,28.05c-.08.44.26.43,0,.69C17,28.79,16.86,28,17.43,28.05Z"/><path class="cls-1" d="M21.65,29v.41a.86.86,0,0,1-.68.13C20.88,29.05,21.19,29,21.65,29Z"/><path class="cls-1" d="M20.16,29.28c.52.12.73.53.81,1.09A.75.75,0,0,1,20.16,29.28Z"/><path class="cls-1" d="M21.25,31.05c-.54-.13-.79.3-1.09,0C20.11,30.5,21.44,30.19,21.25,31.05Z"/><path class="cls-1" d="M15.53,29c-.09.17.29.61-.14.95.39.32.54-1.16,1.23-.54.11-.48-.26-.58,0-.82.81.72,1.07-.12,1.77,0-.74,1-2.09,1.37-3.27,1.91,0,.39.31.5.54.68.43-.66,1.69-1.79,2.32-1.36.17-.33.29-.72.95-.55-.05.64-.46.9-.68,1.36-.47.06-.41-.41-.68-.54.12.53.3,1-.55.82.44.33,1.09.46,1.37.95-.32.58-.32-.16-.68-.27-.06.94,1.06.88,1.63.81s.72,1.12,1.36.68-.43-.65-.27-1.22c-.3,0-.29.34-.27.68-.46-.14-.57-.61-1.36-.41-.18-.69.14-.58,0-.95s-.59.56-.82,0c.06-.58.84-.43,1.22-.68s-.56-.57-.13-1.23c.56.12.69.67,1.09.95.18.6-.53.29-.41.82a23.89,23.89,0,0,1,2.18,1.64c0-.62-.55-.73-.68-1.23.14-.36.11-.89.68-.82.13-.58-.67-.24-.68-.68s.84-.15.95-.54-.78-.13-.55-.82a.79.79,0,0,1,1,.41c-.1-.59.61-.85.82-1.5.43-.07.48.25.95.14-.23-1.18-1.05,0-1.5-.55.49-.87,2.64-.08,3.13-1-.87-.72-1.57.13-2.72.41.22-.9-.34-.62-.41-1a2.85,2.85,0,0,1,2.59,0c.43-.42-.23-.46-.14-1,5.13-.72,10,.09,14.85-.27-.19,2.44-1.22,4.05-3,4.9H32.82c-1.36,0-3.31-.52-3.67.68,2.68.25,6.5.14,10.35.14,3.69,0,7.9-.58,10.48,0a2.87,2.87,0,0,1,.55,5.31H29.83c-.24.12-.25.48-.41.68,2.91.09,7,.44,9.53,0,3.7.4,9.42-.08,13.35,0,3.77.07,4.3,4.13,1.09,5.45H29.69v.68c6.63.32,13.85,0,20.7.13,2.28.51,2.26,4.64.14,5.32H29.69v.68a71.45,71.45,0,0,0,7.49.13c3.88,0,8.79-.83,9.4,1.77a3.12,3.12,0,0,1-1.36,3.41H22.34c-2.61,0-5.29.34-7.49,0-3.78-.58-6.16-3.56-8.31-5.72-1.58,0-3.67.17-6.27.13-.14-5.81-.45-12.14-.13-18,2.35.08,4,0,6.4,0a11.25,11.25,0,0,1,8.31-5.18c-.06.72,1.19,1.77,0,2-.07.43.67.05.54.54s-.48,0-.82.14c-.28.33.73.53.82,1,.38-.13-.2-.36.14-.55.52-.11.48.34.81.41-.32-.66.24-1.19,1-1.22A2.23,2.23,0,0,1,15.53,29Zm9.53-.55c-.74-.35.39-.53.27-1.09-.17-.19-.64-.08-.82-.27-.1.47.21.52.14.95-.32.05-.56.27-.82,0,.41.82-.51.41-.54,1.1,0,.31.64.08.54.54.37-.14.78-.23.82-.68-.51-.15-.39.34-.82.27,0-.18-.19-.26-.13-.54.8.26.24-.31,1.22-.28C24.92,28.54,25,28.62,25.06,28.46ZM24,30.23c.26.26,0,.35,0,.69a.74.74,0,0,0,.68-.82,7.13,7.13,0,0,1-2.45-.41C22.36,30.57,23.11,30.26,24,30.23Zm-1.36.82c.69.08.9.65,1.63.68-.07-.2.16-.7-.13-.68.11.81-.9.26-.68-.27C23.14,30.86,22.48,30.56,22.61,31.05Zm-.68.68c.32.22.87.22,1.22.41C23.24,31.33,22.32,31.42,21.93,31.73Z"/></svg>