<svg id="Layer_1" data-name="Layer 1" xmlns="http://www.w3.org/2000/svg" viewBox="0 0 64.24 53.81"><title>chemical_burn_icon</title><path d="M21.38,0c6.31,1.8,13.1,2.67,20.16,4.22,4.7,1,10.25,2.21,15.25,3.27,3.21.68,6.37.84,7.22,3.68,1,3.29-1.31,6.43-4.22,6.4a24.67,24.67,0,0,1-4.22-1c-11.13-2.35-24.45-4.68-35.27-7.35.63,3,.84,8.41,1.5,12.94.34,2.34,1.31,5.18-.27,6.4a2.69,2.69,0,0,1-3.95-1.22C18.78,17.66,19.88,8.6,21.38,0ZM55.29,15.39c1.59.34,3.66,1.11,5,1,3.09-.36,3.71-5,1.5-6.54C61,9.21,58.75,9,57.06,8.58,45.72,6,33.3,3.88,22.34,1.5,21.86,3,21.45,6,21,8.31,31.79,10.8,44.25,13,55.29,15.39Z" style="fill-rule:evenodd"/><path d="M22.61,7.9C33.12,8.75,45.74,9,55.84,9.53c2,.12,5.22.07,6.13,1.09a3.35,3.35,0,0,1-1.36,5.18c-1.81.53-7.1-1.27-9.4-1.63-9.88-1.57-19.15-4.25-28.33-6C22.65,8.22,22.62,8.07,22.61,7.9Z" style="fill-rule:evenodd"/><path d="M24.38,13.62c.66,0,.61.79.41,1.23C24.18,14.93,24.11,14,24.38,13.62Z" style="fill-rule:evenodd"/><path d="M15.53,13.89c.37-.1.27.27.54.27.11.47-.2.52-.14,1-.39-.11-.35.19-.68.14A1.91,1.91,0,0,1,15.53,13.89Z" style="fill-rule:evenodd"/><path d="M24.11,15.25h.68a1.69,1.69,0,0,1-.27,1.23c-.34,0-.42-.21-.68-.27C23.7,15.66,24.24,15.8,24.11,15.25Z" style="fill-rule:evenodd"/><path d="M15.25,15.53c.87-.36,1.18,1.2.41,1.23C15.18,16.69,15.28,16,15.25,15.53Z" style="fill-rule:evenodd"/><path d="M24.11,16.75c-.08.56-.13,1.15-.82,1.09C22.94,17.31,23.5,16.35,24.11,16.75Z" style="fill-rule:evenodd"/><path d="M16.75,18.25a1.6,1.6,0,0,1-1-1.09C16.47,16.34,17.43,17.68,16.75,18.25Z" style="fill-rule:evenodd"/><path d="M17,18.25c.69.26.65,1.55-.14,1.63-.31-.1.12-.94-.41-.82C16.46,18.59,16.94,18.62,17,18.25Z" style="fill-rule:evenodd"/><path d="M23.43,18.25c0,.6,0,1.17-.41,1.36C22.25,19.58,22.51,17.87,23.43,18.25Z" style="fill-rule:evenodd"/><path d="M22.74,20h.41a3.39,3.39,0,0,1,.14,1.36c-.38.11-.35-.19-.68-.14C22.69,20.57,22.35,20.32,22.74,20Z" style="fill-rule:evenodd"/><path d="M17.43,20.16v1.23a.6.6,0,0,0-.54.27C16.3,21.32,16.71,20,17.43,20.16Z" style="fill-rule:evenodd"/><path d="M22.88,21.93c.38-.11.35.19.68.13v1.23C22.72,23.49,22.75,22.27,22.88,21.93Z" style="fill-rule:evenodd"/><path d="M16.89,22.06c.51.16.19,1.32-.14,1.5-.69.07-.37-1-.27-1.36C16.67,22.21,16.86,22.22,16.89,22.06Z" style="fill-rule:evenodd"/><path d="M23.29,23.83c0,.36.05.78-.14,1-.38.11-.35-.19-.68-.14C22.58,24.21,22.59,23.67,23.29,23.83Z" style="fill-rule:evenodd"/><path d="M17.3,24.92c-.61.11-.76-.24-.82-.68C17,23.78,17.49,24,17.3,24.92Z" style="fill-rule:evenodd"/><path d="M24.24,24.51q.64-.09.54.54C24.47,25,24.15,25,24.24,24.51Z" style="fill-rule:evenodd"/><path d="M15.39,24.92c.6-.11.55.45.82.68a6.07,6.07,0,0,0,.68-.55c.5.55-.59.67-.54,1.23C15.67,26.19,15.61,25.48,15.39,24.92Z" style="fill-rule:evenodd"/><path d="M23,26.69c-.27-.09-.36-.36-.41-.68h.54A.89.89,0,0,1,23,26.69Z" style="fill-rule:evenodd"/><path d="M16.89,26.15c.42.65-.69.94-.82,1.5a.37.37,0,0,1-.41-.27A3.88,3.88,0,0,1,16.89,26.15Z" style="fill-rule:evenodd"/><path d="M23,27.37q.1.64-.54.54C22.52,27.6,22.56,27.28,23,27.37Z" style="fill-rule:evenodd"/><path d="M17.43,28.05c-.08.43.26.42,0,.68C17,28.79,16.86,27.95,17.43,28.05Z" style="fill-rule:evenodd"/><path d="M21.65,29v.41a.89.89,0,0,1-.68.14C20.88,29,21.19,29,21.65,29Z" style="fill-rule:evenodd"/><path d="M20.16,29.28c.52.12.74.53.82,1.09A.75.75,0,0,1,20.16,29.28Z" style="fill-rule:evenodd"/><path d="M21.25,31c-.53-.13-.79.3-1.09,0C20.11,30.5,21.44,30.19,21.25,31Z" style="fill-rule:evenodd"/><path d="M15.53,29c-.09.17.29.61-.14,1,.39.32.54-1.16,1.23-.54.11-.47-.25-.58,0-.82.81.72,1.07-.12,1.77,0-.73,1-2.08,1.37-3.27,1.91,0,.4.31.51.54.68.43-.66,1.69-1.79,2.31-1.36.17-.33.29-.71,1-.55,0,.64-.46.9-.68,1.36-.47.06-.41-.41-.68-.54.12.53.3,1-.54.82.44.33,1.08.46,1.36,1-.31.58-.32-.16-.68-.27-.06.95,1.06.88,1.63.82s.72,1.12,1.36.68-.43-.65-.27-1.23c-.3,0-.29.34-.27.68-.45-.14-.57-.61-1.36-.41-.18-.69.14-.58,0-1s-.59.56-.82,0c.06-.57.84-.43,1.23-.68s-.56-.57-.14-1.23c.56.12.69.67,1.09,1,.19.59-.53.29-.41.82a23.29,23.29,0,0,1,2.18,1.64c0-.62-.55-.72-.68-1.23.14-.36.11-.89.68-.82.13-.59-.67-.24-.68-.68s.84-.16,1-.54-.78-.13-.55-.82a.78.78,0,0,1,1,.41c-.1-.58.61-.85.82-1.5.43-.07.48.25,1,.14-.23-1.18-1,0-1.5-.54.49-.87,2.64-.09,3.13-1-.88-.72-1.57.13-2.72.41.22-.9-.34-.61-.41-1a2.84,2.84,0,0,1,2.59,0c.43-.43-.23-.46-.14-1,5.13-.72,10,.09,14.84-.27-.19,2.45-1.21,4.05-3,4.9H32.82c-1.36,0-3.32-.52-3.68.68,2.68.24,6.51.14,10.35.14s7.91-.58,10.49,0a2.87,2.87,0,0,1,.54,5.31H29.83c-.24.12-.25.48-.41.68,2.92.09,7,.44,9.53,0,3.7.4,9.42-.08,13.35,0,3.77.07,4.3,4.13,1.09,5.45H29.69v.68c6.63.32,13.85,0,20.7.14,2.28.5,2.26,4.63.14,5.31H29.69v.68a70.34,70.34,0,0,0,7.49.14c3.88,0,8.79-.84,9.4,1.77a3.1,3.1,0,0,1-1.36,3.41H22.34c-2.6,0-5.29.34-7.49,0-3.78-.58-6.15-3.56-8.31-5.72-1.57,0-3.67.17-6.27.14-.15-5.82-.45-12.15-.14-18,2.35.09,4,0,6.4,0,1.89-2.61,4.26-4.73,8.31-5.17-.06.71,1.19,1.77,0,2-.07.43.68.05.54.54s-.48,0-.82.14c-.28.34.73.54.82,1,.38-.13-.2-.36.14-.54.53-.12.48.33.82.41-.32-.66.23-1.2,1-1.23A2.21,2.21,0,0,1,15.53,29Zm9.53-.54c-.74-.36.39-.53.27-1.09-.17-.19-.64-.08-.82-.27-.11.47.2.52.14,1-.32,0-.56.27-.82,0,.4.81-.51.41-.55,1.09,0,.32.65.08.55.54.36-.14.77-.22.82-.68-.51-.14-.39.34-.82.27,0-.18-.19-.26-.14-.54.8.27.24-.3,1.23-.27C24.92,28.54,25,28.62,25.06,28.46ZM24,30.23c.26.26,0,.34,0,.68a.74.74,0,0,0,.68-.82,7.12,7.12,0,0,1-2.45-.41C22.36,30.57,23.11,30.26,24,30.23ZM22.61,31c.69.08.9.65,1.63.68-.07-.2.16-.7-.14-.68.11.81-.9.26-.68-.27C23.14,30.86,22.48,30.56,22.61,31Zm-.68.68c.32.22.87.22,1.23.41C23.24,31.33,22.32,31.42,21.93,31.73Z" style="fill-rule:evenodd"/></svg>