<svg id="レイヤー_1" data-name="レイヤー 1" xmlns="http://www.w3.org/2000/svg" viewBox="0 0 67.82 56.69"><title>exclmtn_mrk_red_on_whte</title><path d="M10,70.48c-1.86,0-2.63-1.25-1.69-2.8L40.15,14.94c.94-1.54,2.46-1.54,3.39,0L75.35,67.68c.94,1.55.18,2.8-1.69,2.8Z" transform="translate(-7.94 -13.79)" style="fill:#fff"/><path d="M40.55,69.78A2.45,2.45,0,1,0,38,67.32,2.51,2.51,0,0,0,40.55,69.78Z" transform="translate(-7.94 -13.79)" style="fill:#ed1c24"/><path d="M40.44,34.82a3.89,3.89,0,1,0-4.07-3.89A4,4,0,0,0,40.44,34.82Z" transform="translate(-7.94 -13.79)" style="fill:#ed1c24"/><polyline points="36.55 17.14 35.09 49 29.91 49 28.43 17.14" style="fill:#ed1c24"/></svg>