<svg id="Layer_1" data-name="Layer 1" xmlns="http://www.w3.org/2000/svg" xmlns:xlink="http://www.w3.org/1999/xlink" viewBox="0 0 49.17 59.55"><defs><clipPath id="clip-path" transform="translate(-2.8 0)"><rect x="2.15" y="19.97" width="41.08" height="41.08" transform="translate(-20.08 58.58) rotate(-83.64)" style="fill:none"/></clipPath></defs><title>explosion_below_icon</title><g style="clip-path:url(#clip-path)"><polyline points="9.64 57.45 9.17 49.67 12.77 53.7 14.27 44.4 17.29 51.93 18.89 47.91 19.88 50.97 22.11 46.19 21.88 53.7 28.13 49.91 25.07 57.58 27.65 57.15 26.28 59.55 30.55 58.73 35.07 54.11 28.97 55.99 40.08 34.72 27.91 44.95 29.16 38.62 25.13 43.05 27.31 21.85 20.67 40.96 18.93 33.57 17.31 41.02 9.29 19.79 9.43 43.23 3.34 34.78 6.11 49.09 0 43.73 6.62 58.57 9.49 58.79"/></g><path d="M51.22,25.5c0,2.46-4.59,5.69-5.41,6.43-1.56,1.41-3.48,2.2-5.2,1s-5.19-4.28-5.19-4.28-1.33,2.38-2.62,2.12-3.38-4.93-7-9.75a14.16,14.16,0,0,1-2.59-6.57,13.6,13.6,0,0,1,1.39-6.38c1.06-1.9,3.92-5.24,6-6.19A10.37,10.37,0,0,1,36.86.6c2.88.07,3.83.54,6.49,2.42a60.34,60.34,0,0,1,6.26,5.09L51,9.43C51.7,10.08,51.19,21.44,51.22,25.5Z" transform="translate(-2.8 0)" style="stroke:#000;stroke-width:1.18355px"/><polyline points="25.94 25.87 27.37 21.71 26.73 27.23 25.93 25.93" style="fill:#fff"/><ellipse cx="30.97" cy="19.53" rx="1" ry="1.65" transform="translate(-7.91 25.73) rotate(-41.99)" style="fill:#fff"/></svg>