<svg id="Layer_1" data-name="Layer 1" xmlns="http://www.w3.org/2000/svg" viewBox="0 0 98.06 119.47"><title>explosion_left_icon</title><polygon points="4.78 48.5 4.8 57.95 5.51 58.44 9.4 70.84 7.98 60.08 26.03 71.91 12.41 58.44 23.28 61.72 13.82 55.65 27.53 49.57 9.93 51.05 22.31 42.09 13.11 46.53 19.3 38.48 8.52 46.03 8.37 35.62 5.51 48.42 4.78 48.5" style="stroke:#000;stroke-width:0.24354499999999998px"/><rect x="0.49" y="28.04" width="3.51" height="45.73" style="stroke:#000;stroke-width:0.97418px"/><path d="M4.62,33.31,6.65,53l-.3,6.22-1,14.58L8.29,58.54,13.19,80,9.53,59.59S23.87,75.13,23.58,74.41,10.12,58,10.12,58L45.71,80.22,12.5,57.51,62.64,85,18.58,59.51S61.29,78.7,61.1,78.43,13,56.18,13,56.18l.1-.8L40.22,65.91l-26-11.37-.11-.68L17,55.38l32.42,11L14.82,52.61l4.81,1.88,35,7.62L17.33,52.7l34,4.76L10.51,49.9,9.44,52,9,49.48l1.93.36L57,44.21,12.21,48l20.6-3.74-16.93,2.5L52.73,34.56,14.44,46.09,44,27.41l-31.56,18L26.27,31.88,10.49,44.48,29.64,20.71,9.07,43.46l-.4-13.72L7.32,44.92Z" style="fill:none;stroke:#000;stroke-width:0.24354499999999998px"/><polygon points="10.59 49.75 51.96 50.91 11.55 49.03 10.59 49.75" style="fill:none;stroke:#000;stroke-width:0.24354499999999998px"/><line x1="51.82" y1="74.02" x2="21.11" y2="58.52" style="stroke:#000;stroke-width:0.24354499999999998px"/><path d="M9.92,4.39A8.78,8.78,0,0,1,17.53.12a8.51,8.51,0,0,1,8.7,8.3,7.94,7.94,0,0,1-.48,2.74" style="fill:none;stroke:#000;stroke-width:0.24354499999999998px"/><path d="M26.59,11.08A6.29,6.29,0,0,1,31.2,9.13a5.84,5.84,0,0,1,6.07,5.58,5.73,5.73,0,0,1-4.85,5.47" style="fill:none;stroke:#000;stroke-width:0.24354499999999998px"/><path d="M32.67,20.4a6.28,6.28,0,0,1,2.4-.47A5.72,5.72,0,0,1,41,25.42a5.72,5.72,0,0,1-5.91,5.49,5.89,5.89,0,0,1-5.64-3.83" style="fill:none;stroke:#000;stroke-width:0.24354499999999998px"/><path d="M12.29,35.25a4.8,4.8,0,0,1-1-2.92,5.26,5.26,0,0,1,5.45-5.06,5.67,5.67,0,0,1,3.62,1.28" style="fill:none;stroke:#000;stroke-width:0.24354499999999998px"/><path d="M20.56,28.17a3.15,3.15,0,0,1-.37-1.48,3.52,3.52,0,0,1,3.65-3.39,3.52,3.52,0,0,1,3.65,3.39,3.08,3.08,0,0,1,0,.36" style="fill:none;stroke:#000;stroke-width:0.24354499999999998px"/><path d="M27.34,27.36s0-.07,0-.11A3.66,3.66,0,1,1,31,30.64H30.7" style="fill:none;stroke:#000;stroke-width:0.24354499999999998px"/><path d="M21,72.12a3.81,3.81,0,0,1-2.08.61,3.51,3.51,0,0,1-3.64-3.38A3.26,3.26,0,0,1,16.32,67" style="fill:none;stroke:#000;stroke-width:0.24354499999999998px"/><path d="M25.34,77.06a3.71,3.71,0,0,1-3.24,1.82,3.54,3.54,0,0,1-3.67-3.4,3.44,3.44,0,0,1,2.5-3.23" style="fill:none;stroke:#000;stroke-width:0.24354499999999998px"/><path d="M35.95,79.62a5.23,5.23,0,0,1-5.1,3.63,5.1,5.1,0,0,1-5.28-4.9,4.5,4.5,0,0,1,.16-1.18" style="fill:none;stroke:#000;stroke-width:0.24354499999999998px"/><path d="M23.9,93.24a5.22,5.22,0,0,1,.59,2.42,5.81,5.81,0,0,1-6,5.58,5.81,5.81,0,0,1-6-5.58A5.68,5.68,0,0,1,17,90.25" style="fill:none;stroke:#000;stroke-width:0.24354499999999998px"/><path d="M33.5,88.79a5.45,5.45,0,0,1,2.2,4.33,5.82,5.82,0,0,1-6,5.6A6.13,6.13,0,0,1,24.53,96" style="fill:none;stroke:#000;stroke-width:0.24354499999999998px"/><path d="M43.74,74.81a7.85,7.85,0,0,1,2.63,5.82c0,4.5-3.93,8.15-8.78,8.15a9.34,9.34,0,0,1-3.41-.64" style="fill:none;stroke:#000;stroke-width:0.24354499999999998px"/><path d="M28.43,41.82A4,4,0,0,1,28,40a4.47,4.47,0,0,1,4.62-4.29,4.84,4.84,0,0,1,2.77.86" style="fill:none;stroke:#000;stroke-width:0.24354499999999998px"/><path d="M35.66,36.47a2.64,2.64,0,0,1-.31-1.24,3,3,0,0,1,6.06,0s0,.05,0,.08" style="fill:none;stroke:#000;stroke-width:0.24354499999999998px"/><path d="M41.38,36s0-.09,0-.14a3.11,3.11,0,1,1,3.1,2.88h-.26" style="fill:none;stroke:#000;stroke-width:0.24354499999999998px"/><path d="M82.67,71.22l.52-.05c-2.09.14-18.89.64-21.71.26C59,71.09,56.81,70,56.59,67.7s0-7.44,0-7.44-3.2.55-3.93-.74,2-6.36,3.64-12.85a15.44,15.44,0,0,1,4.08-6.83,16.79,16.79,0,0,1,6.92-3.31c2.55-.43,7.79-.34,10.27.81s3.28,1.28,5.9,4.4c2.12,2.51,2.4,3.65,2.7,7.24a61.64,61.64,0,0,1,.07,8.93c-.15,2-.51,8-1.24,10.35A4.74,4.74,0,0,1,82.67,71.22Z" style="stroke:#000;stroke-width:0.97418px"/><path d="M63.19,50.91c-.21,1.08-1,1.85-1.84,1.72s-1.29-1.12-1.08-2.21,1-1.85,1.84-1.72S63.4,49.83,63.19,50.91Z" style="fill:#fff;stroke:#000;stroke-width:0.97418px"/><path d="M76.43,118.61l-6.67-15s-8.78,15.08-9.5,15.23-19.86.35-19-.47S77.61,72.16,77.61,72.16a13.36,13.36,0,0,1,1.77-1.37c2.84-1.57,3.8-1.53,6.94,0S97.57,84.55,97.57,84.55l-.25,34.06Z" style="stroke:#000;stroke-width:0.97418px"/></svg>