<svg id="Layer_2" data-name="Layer 2" xmlns="http://www.w3.org/2000/svg" viewBox="0 0 162.32 187.91"><title>fall-hzrd_roof</title><ellipse cx="45.87" cy="22.82" rx="10.21" ry="10.67"/><rect x="23.2" y="6.99" width="11.99" height="49.58" rx="4.87" transform="translate(-14.73 7.83) rotate(-26.57)"/><rect x="64.35" y="14.18" width="11.99" height="53.86" rx="4.87" transform="translate(61.24 -48.77) rotate(55.82)"/><rect x="29.5" y="36.82" width="23.08" height="54.58" rx="11.54"/><rect x="53.04" y="57.09" width="11.99" height="48.58" rx="4.87" transform="translate(89.6 -21.76) rotate(55.82)"/><rect x="76.33" y="62.85" width="11.99" height="43.5" rx="4.87" transform="translate(-32.75 37.17) rotate(-26.57)"/><rect x="50.35" y="76.28" width="11.99" height="49.58" rx="4.87" transform="translate(-62.71 100.19) rotate(-64.68)"/><rect x="77.5" y="101.24" width="11.99" height="35.32" rx="4.87" transform="translate(-63.63 87.79) rotate(-46)"/><rect x="94.92" y="116.24" width="67.4" height="18.92"/><rect x="111.58" y="134.66" width="10.33" height="44.33"/><rect y="177.74" width="162.32" height="10.17"/></svg>