<svg id="Layer_1" data-name="Layer 1" xmlns="http://www.w3.org/2000/svg" viewBox="0 0 57.04 152.61"><defs><style>.cls-1,.cls-2,.cls-3,.cls-4,.cls-5,.cls-6,.cls-7{stroke:#000;}.cls-1{stroke-width:0.2px;}.cls-2,.cls-3{stroke-width:0.1px;}.cls-3,.cls-7{fill:#fff;}.cls-4,.cls-6{stroke-width:0.24px;}.cls-5,.cls-7{stroke-width:0.97px;}.cls-6{fill:none;}</style></defs><title>fire_and_explsn_icon</title><path class="cls-1" d="M7.74,50.36c0-.09.07-2.6.07-2.68.12-1.36.66-5.12.73-6.13a40.7,40.7,0,0,0-.12-10.4c0-.35,1.42.67,3.75,4.29.7,1.08,1.66,3.06,2,3.42.51.52.79.23.83-.73.14-2.85.66-5.05,1-7.25a54.23,54.23,0,0,0,.7-9.37c0-2.56-.18-3,1-1.84a12.62,12.62,0,0,1,3.15,4.56c.62,1.45,1,5.87,1.65,1.52a22.18,22.18,0,0,0,.49-4.25c.06-1.19.2-2.81.26-4.69.19-5.64,1.39-7.49,1.49-7.7.41-.81.73,1.45,1.1,2.86s.66,1.52,2.53,5c3.08,5.83,2.12,4.58,3.66,6.31,3.78,4.24,2.26,10.51,3.66,6.31.74-2.22,1.42-3.46,1.64-4.45,1.13-5.06,1-3.83,2.06-1.32.82,1.91,3.16,6.08,2.92,9.86a17.65,17.65,0,0,0,.16,5.22c.86,6.62,1,5.14,2.18,1.79,2.89-8,2.3-5.82,2.77-4.83,1.32,2.85,2.15,4.71,2.41,6.74.75,5.74.51,6.08,0,9.12-1.1,7.13-3.18,8.12.31,6.19,1.48-.82,2.19-2.64,2-1.48-1.52,11.18-2,11.57-6.23,16.44-4,4.58-9.15,5.87-14.38,6.49a44.06,44.06,0,0,1-14.12-.69,17.47,17.47,0,0,1-9.32-4.78C4,69.62,3.8,66.8,3.44,61.22c0-.25,0-2.07,0-2.28,0-.59,0,.49,0-2.51,0-6,0-11.67-.3-13.06-.24-1,2.36,1.72,4.58,6.91Z"/><rect class="cls-1" x="9.4" y="80.51" width="34.01" height="1.75"/><path class="cls-2" d="M33.75,17.43a6.6,6.6,0,0,1,.69-2.23c.44-.57.17-.6,2.62-2.12a2.71,2.71,0,0,0,1.24-1.55c.14-.36.29-.72.38-.19a4.32,4.32,0,0,1-.11,2,3,3,0,0,1-.82,1.35,14.81,14.81,0,0,1-1.84,1.18,7.23,7.23,0,0,0-1.63,1.35c-.28.32-.53.42-.53.2Z"/><path class="cls-3" d="M24.35,38.11A6.3,6.3,0,0,1,25,35.88c.44-.57.17-.6,2.61-2.13a2.76,2.76,0,0,0,1.25-1.54c.13-.37.29-.72.38-.2a4.32,4.32,0,0,1-.11,2,3,3,0,0,1-.82,1.35,14.35,14.35,0,0,1-1.84,1.2,6.5,6.5,0,0,0-1.63,1.33c-.28.33-.53.42-.53.21Z"/><path class="cls-2" d="M21.92,6.33a6.37,6.37,0,0,0-.72-2.22c-.45-.56-.18-.6-2.65-2.08A2.71,2.71,0,0,1,17.28.51C17.13.14,17-.21,16.89.32a4.3,4.3,0,0,0,.15,2,2.92,2.92,0,0,0,.84,1.33,14,14,0,0,0,1.86,1.16A7,7,0,0,1,21.4,6.14c.27.32.53.41.52.19Z"/><path class="cls-3" d="M22.26,79.3a51.23,51.23,0,0,1-6.66-6.82c-1.87-2.34-3.49-5.27-3.81-7.67-.35-2.61-.55-3.08.86-.59.08.15.67,1.33,1,1.31s.17-1.69.47-3.25a40.06,40.06,0,0,0,.51-4.34c.08-2.15.08-4.26,0-4.87,0-.36-.06-1.08.07-1.1A2.62,2.62,0,0,1,16,53.48a16.92,16.92,0,0,1,.88,4.37A12,12,0,0,0,18.66,64a2.75,2.75,0,0,0,2.16,1.32c.34,0,.17-.81,0-1.49a14.38,14.38,0,0,1-.3-3.22,16.06,16.06,0,0,1,.2-4.23,20.9,20.9,0,0,1,.75-2.92c.84-2,.81-.53.84,0a13.74,13.74,0,0,0,.33,1.85,14.3,14.3,0,0,0,2.05,4.68c1.23,1.66,1.74,1.74,1.74,1.74a4.66,4.66,0,0,0,1.51-1.92,23.29,23.29,0,0,0,1.71-5.75c.32-1.91.25-8.06.41-10.16.06-.91,2.52,2.78,3.33,5.14a13.48,13.48,0,0,1,.77,6.19c-.23,1.58-.42,2.16.26,2.35.14,0,1.1-.44,1.74-2s1.39-3.22,1.65-2a22.16,22.16,0,0,1,.73,4.89c.07,1.36-1.23,4.34-.38,4.7.2.08.51,0,1.09-.59s1.47-1.47,1.12,0a38.52,38.52,0,0,1-3.22,6.54c-1.6,2.59-4.8,5.51-6.25,7a39.09,39.09,0,0,1-3.71,3.31Z"/><polygon class="cls-4" points="2.96 111.42 2.98 116.88 3.39 117.16 5.63 124.32 4.82 118.11 15.24 124.94 7.37 117.16 13.65 119.06 8.19 115.55 16.1 112.04 5.94 112.89 13.09 107.72 7.78 110.28 11.36 105.63 5.12 110 5.04 103.98 3.39 111.37 2.96 111.42"/><rect class="cls-5" x="0.49" y="99.61" width="2.03" height="26.41"/><path class="cls-6" d="M2.88,102.65,4,114l-.17,3.59L3.31,126,5,117.22l2.83,12.42L5.71,117.82s8.28,9,8.11,8.56-7.77-9.48-7.77-9.48L26.6,129.74,7.42,116.62l29,15.9L10.94,117.78s24.66,11.08,24.55,10.93S7.71,115.86,7.71,115.86l.06-.47,15.66,6.08-15-6.56-.06-.39,1.66.87,18.73,6.35-20-7.95,2.77,1.09,20.22,4.4-21.55-5.44,19.66,2.75L6.28,112.23l-.62,1.2L5.38,112l1.11.2,26.61-3.25L7.26,111.11l11.9-2.17-9.78,1.45,21.28-7L8.54,110,25.6,99.24,7.38,109.61l8-7.79L6.27,109.1,17.32,95.37,5.44,108.51l-.23-7.93-.78,8.78Z"/><polygon class="cls-6" points="6.32 112.14 30.21 112.81 6.88 111.73 6.32 112.14"/><line class="cls-4" x1="30.13" y1="126.16" x2="12.4" y2="117.21"/><path class="cls-6" d="M5.93,86a5.08,5.08,0,0,1,4.4-2.47,4.92,4.92,0,0,1,5,4.8,4.65,4.65,0,0,1-.28,1.58"/><path class="cls-6" d="M15.56,89.81a3.62,3.62,0,0,1,2.66-1.12,3.37,3.37,0,0,1,3.51,3.22,3.31,3.31,0,0,1-2.8,3.16"/><path class="cls-6" d="M19.07,95.2a3.59,3.59,0,0,1,1.39-.28,3.18,3.18,0,1,1,0,6.35,3.4,3.4,0,0,1-3.26-2.21"/><path class="cls-6" d="M7.3,103.77a2.8,2.8,0,0,1-.57-1.69,3,3,0,0,1,3.14-2.92,3.29,3.29,0,0,1,2.1.74"/><path class="cls-6" d="M12.08,99.68a1.79,1.79,0,0,1-.21-.86A2,2,0,0,1,14,96.87a2,2,0,0,1,2.11,1.95,1.48,1.48,0,0,1,0,.21"/><path class="cls-6" d="M16,99.21s0,0,0-.06a2.12,2.12,0,1,1,2.11,2h-.17"/><path class="cls-6" d="M12.32,125.06a2.22,2.22,0,0,1-1.2.35,2,2,0,0,1-2.1-2,1.87,1.87,0,0,1,.61-1.38"/><path class="cls-6" d="M14.84,127.91A2.14,2.14,0,0,1,13,129a2,2,0,0,1-2.11-2,2,2,0,0,1,1.44-1.87"/><path class="cls-6" d="M21,129.39A3,3,0,0,1,18,131.48a2.94,2.94,0,0,1-3-2.83,2.59,2.59,0,0,1,.09-.68"/><path class="cls-6" d="M14,137.26a3,3,0,0,1,.34,1.39,3.36,3.36,0,0,1-3.47,3.23,3.36,3.36,0,0,1-3.48-3.23,3.28,3.28,0,0,1,2.6-3.12"/><path class="cls-6" d="M19.55,134.69a3.12,3.12,0,0,1,1.27,2.49,3.36,3.36,0,0,1-3.47,3.24,3.55,3.55,0,0,1-3-1.56"/><path class="cls-6" d="M25.47,126.61A4.58,4.58,0,0,1,27,130a4.89,4.89,0,0,1-5.07,4.71,5.31,5.31,0,0,1-2-.37"/><path class="cls-6" d="M16.62,107.57a2.45,2.45,0,0,1-.26-1.07A2.58,2.58,0,0,1,19,104a2.79,2.79,0,0,1,1.6.5"/><path class="cls-6" d="M20.8,104.47a1.57,1.57,0,0,1-.18-.72,1.76,1.76,0,0,1,3.5,0v0"/><path class="cls-6" d="M24.1,104.2v-.08a1.79,1.79,0,1,1,1.79,1.67h-.15"/><path class="cls-5" d="M48,124.54l.29,0c-1.2.08-10.9.37-12.53.15-1.43-.2-2.69-.82-2.82-2.15s0-4.3,0-4.3-1.85.32-2.27-.43,1.13-3.67,2.1-7.42a8.87,8.87,0,0,1,2.36-3.94,9.61,9.61,0,0,1,4-1.92A13.27,13.27,0,0,1,45,105a7.11,7.11,0,0,1,3.41,2.54c1.22,1.45,1.39,2.11,1.56,4.18a37.47,37.47,0,0,1,0,5.16,39.56,39.56,0,0,1-.72,6A2.74,2.74,0,0,1,48,124.54Z"/><path class="cls-7" d="M36.7,112.81c-.12.63-.6,1.07-1.06,1s-.75-.65-.62-1.28.59-1.07,1.06-1A1,1,0,0,1,36.7,112.81Z"/><path class="cls-5" d="M44.35,151.91l-3.86-8.66S35.42,152,35,152.05s-11.47.2-11-.28,21-26.69,21-26.69a7.34,7.34,0,0,1,1-.78c1.63-.91,2.19-.89,4,0s6.49,7.93,6.49,7.93l-.14,19.67Z"/></svg>