<svg id="Layer_1" data-name="Layer 1" xmlns="http://www.w3.org/2000/svg" viewBox="0 0 244.9 117.38"><title>fire_from_flamable_liquids_icon</title><polyline points="22.66 105.41 67.26 105.41 67.26 48.84 22.66 48.84" style="fill-rule:evenodd"/><rect x="22.67" y="48.83" width="44.59" height="56.57" style="fill:none;stroke:#000;stroke-linejoin:round;stroke-width:0.9601000000000001px"/><polyline points="38.7 43.31 39.07 43.67 39.99 44.41 41.09 45.15 41.65 45.33 42.75 45.33 43.12 45.15 44.23 44.41 45.33 43.31 45.33 49.39 38.7 49.39" style="fill-rule:evenodd"/><polyline points="38.88 43.12 39.25 43.31 40.17 44.04 41.28 44.78 41.83 44.97 42.2 44.97 42.2 45.89 41.65 45.7 40.91 45.52 39.8 44.78 38.88 44.04 38.33 43.67" style="fill-rule:evenodd"/><polyline points="42.2 44.97 42.57 44.97 42.94 44.78 44.04 44.04 45.15 43.12 45.7 43.67 44.41 44.78 44.04 45.15 43.3 45.52 42.2 45.89" style="fill-rule:evenodd"/><line x1="42.2" y1="45.89" x2="42.2" y2="44.96"/><line x1="45.42" y1="49.39" x2="45.42" y2="43.31" style="fill:none;stroke:#000;stroke-linejoin:round;stroke-width:0.8594px"/><polyline points="45.15 43.12 45.88 42.57 45.88 43.31 44.96 43.31 45.7 43.67" style="fill-rule:evenodd"/><line x1="38.7" y1="49.48" x2="45.33" y2="49.48" style="fill:none;stroke:#000;stroke-linejoin:round;stroke-width:0.8592000000000001px"/><polyline points="45.88 49.39 45.88 49.94 45.33 49.94 45.33 49.02 44.96 49.39" style="fill-rule:evenodd"/><line x1="38.7" y1="49.39" x2="38.7" y2="43.31" style="fill:none;stroke:#000;stroke-linejoin:round;stroke-width:0.6876px"/><polyline points="38.7 49.94 38.33 49.94 38.33 49.39 39.07 49.39 38.7 49.02" style="fill-rule:evenodd"/><polyline points="38.33 43.31 38.33 42.57 38.88 43.12 38.33 43.67 39.07 43.31" style="fill-rule:evenodd"/><polyline points="25.25 51.6 66.34 51.6 66.34 51.23 25.25 51.23" style="fill:#fff;fill-rule:evenodd"/><polyline points="25.43 104.12 66.34 104.12 66.34 102.27 25.43 102.27" style="fill:#fff;fill-rule:evenodd"/><polyline points="55.47 48.84 54.91 48.28 54.73 47.91 54.91 47.73 55.1 47.36 55.84 46.62 56.2 46.44 56.39 46.07 56.02 45.33 55.65 45.15 55.28 45.15 54.91 44.97 54.36 44.41 54.36 43.67 54.73 43.31 55.47 42.94 56.02 42.38 56.39 42.2 56.57 41.83 56.39 41.46 56.2 41.28 54.73 40.54 54.36 40.17 54.36 39.8 54.36 39.07 54.55 38.7 54.73 38.52 55.1 38.33 56.02 38.33 56.39 38.15 56.57 38.15 56.57 37.96 56.76 37.41 56.57 36.86 56.57 36.67 54.91 35.01 54.91 34.64 55.28 33.54 55.65 33.35 56.2 33.17 58.05 33.17 58.23 32.8 58.41 32.62 58.41 32.25 58.23 31.88 58.05 31.33 57.68 30.77 57.12 30.41 56.94 29.85 56.76 29.48 56.76 29.12 57.12 28.75 58.05 28.75 58.6 28.93 59.89 29.3 60.26 29.3 60.63 29.12 60.81 29.12 60.81 28.56 60.44 27.64 60.26 26.54 60.26 26.17 60.63 25.8 61.18 25.61 61.92 25.61 62.28 25.8 62.84 25.98 63.2 26.35 63.76 26.54 63.94 26.72 64.13 26.72 64.68 26.17 64.68 25.8 64.5 24.88 64.31 24.51 64.31 23.96 65.23 23.04 65.6 22.85 65.97 22.85 66.52 23.04 66.89 23.04 67.08 23.41 67.63 23.77 68.92 25.06 69.29 25.06 69.66 24.7 69.84 24.33 70.02 23.77 70.02 23.22 70.39 22.11 70.76 21.75 71.31 21.56 71.87 21.56 72.42 21.75 72.79 22.11 72.97 22.48 73.34 23.04 73.71 23.41 74.81 24.14 75.55 23.77 75.92 22.85 76.11 22.48 76.29 21.93 76.47 21.93 76.66 21.75 77.21 21.75 77.58 21.93 78.13 22.3 78.5 22.67 79.61 24.33 80.34 25.06 80.9 25.06 81.27 24.88 82 23.77 82.37 23.41 82.74 22.85 82.92 22.67 83.84 22.67 84.4 22.85 84.58 23.22 84.95 23.77 84.95 24.33 85.32 25.43 85.5 25.8 85.87 26.17 86.24 26.17 86.42 25.98 86.98 25.06 87.71 24.33 88.08 24.14 88.64 24.33 89.19 24.7 89.93 25.43 90.48 26.17 91.22 27.09 91.95 28.19 93.06 30.77 93.43 32.06 92.32 30.96 91.4 30.22 90.48 29.85 89.93 29.85 89.56 30.04 89.37 30.22 89.19 30.59 89.19 32.25 89.56 33.91 88.82 32.62 87.9 31.51 87.16 30.77 86.06 30.04 85.69 29.85 84.95 29.85 84.77 30.04 84.4 30.59 84.03 30.77 83.48 30.77 83.11 30.96 82.92 30.77 82.56 30.77 82.37 30.59 82.19 30.22 82.19 29.67 81.82 28.56 81.45 28.38 80.9 28.19 80.53 28.19 80.16 28.38 79.97 28.75 79.97 28.93 79.61 29.67 79.24 30.04 78.69 30.22 78.32 30.41 77.95 30.41 77.58 30.22 77.39 30.04 77.03 29.85 76.84 29.48 76.66 28.93 75.92 27.64 75.92 27.46 75.55 27.27 75.18 27.27 74.63 27.64 74.45 27.83 74.08 28.75 73.71 29.48 72.97 29.85 72.23 29.85 71.5 29.12 71.31 28.56 70.94 28.19 70.58 28.01 70.39 27.83 69.84 27.83 68.73 28.38 68.37 28.75 68.37 29.3 68.55 29.85 68.73 30.77 68.73 31.14 68.55 31.51 67.81 31.88 67.63 31.88 67.26 31.7 66.71 31.7 66.34 31.51 65.6 31.51 65.05 32.06 64.86 32.62 64.86 32.99 65.23 33.72 65.6 34.09 65.79 34.46 65.79 35.38 65.23 35.75 64.86 36.12 62.47 36.12 62.28 36.49 62.1 37.04 62.1 37.41 62.84 37.78 63.57 38.33 63.94 38.7 63.94 39.62 63.76 39.99 63.02 40.17 62.28 40.54 62.1 40.91 61.92 41.46 61.92 41.65 62.1 41.65 62.28 41.83 63.39 42.38 63.57 42.75 63.94 43.12 63.94 44.23 63.76 44.41 63.39 44.6 62.65 44.6 62.28 44.78 62.1 44.97 61.92 45.33 62.28 45.7 63.2 45.89 63.57 46.07 63.94 46.07 64.5 46.62 64.5 46.81 64.68 47.36 64.68 47.91 64.31 48.28 63.57 48.84" style="fill-rule:evenodd"/><polyline points="55.1 49.02 54.55 48.65 54.36 47.91 54.55 47.36 54.91 46.99 55.65 46.44 55.84 46.26 56.02 45.89 56.76 46.07 56.57 46.62 56.2 46.99 55.28 47.73 55.1 47.91 55.1 48.1 55.65 48.47" style="fill-rule:evenodd"/><polyline points="56.02 46.07 55.84 45.89 55.84 45.7 55.47 45.52 55.28 45.52 54.73 45.33 53.99 44.6 53.99 44.04 54.73 43.86 54.73 44.23 55.1 44.6 55.84 44.97 56.2 44.97 56.57 45.52 56.76 45.89" style="fill-rule:evenodd"/><polyline points="56.76 46.07 56.76 45.89 56.02 46.07 56.02 45.89" style="fill-rule:evenodd"/><polyline points="53.99 43.86 53.99 43.49 54.36 43.12 55.84 42.02 56.02 42.02 56.2 41.65 56.76 42.02 56.76 42.38 56.39 42.75 55.65 43.12 54.91 43.67 54.73 43.86 54.73 44.04" style="fill-rule:evenodd"/><polyline points="53.99 44.04 53.99 43.86 54.73 44.04 54.73 43.86" style="fill-rule:evenodd"/><polyline points="56.2 41.83 56.2 41.65 56.02 41.65 55.28 41.28 54.73 41.09 53.99 40.36 53.99 39.99 54.73 39.62 54.73 39.99 54.91 40.17 56.39 40.91 56.76 41.28 56.94 41.65" style="fill-rule:evenodd"/><polyline points="56.76 42.02 56.94 41.83 56.94 41.65 56.2 41.83 56.2 41.65" style="fill-rule:evenodd"/><polyline points="53.99 39.8 53.99 38.88 54.18 38.52 54.55 38.15 54.91 37.96 56.02 37.96 56.2 37.78 56.39 37.41 57.12 37.59 56.94 38.15 56.76 38.33 56.02 38.7 55.1 38.7 54.73 39.07 54.73 39.8" style="fill-rule:evenodd"/><polyline points="53.99 39.99 53.99 39.8 54.73 39.8 54.73 39.62" style="fill-rule:evenodd"/><polyline points="56.39 37.59 56.2 37.04 56.2 36.86 55.65 36.3 55.28 36.12 54.91 35.75 54.55 35.2 54.55 34.64 54.73 33.91 55.47 34.28 55.28 34.64 55.28 35.01 55.84 35.57 56.2 35.75 56.94 36.49 56.94 36.86 57.12 37.41" style="fill-rule:evenodd"/><polyline points="57.12 37.59 57.12 37.41 56.39 37.59 56.39 37.41" style="fill-rule:evenodd"/><polyline points="54.73 33.91 55.1 33.35 55.65 32.99 56.2 32.8 57.68 32.8 58.05 32.43 58.6 32.99 58.23 33.35 57.68 33.72 55.84 33.72 55.28 34.28" style="fill-rule:evenodd"/><polyline points="54.73 33.91 55.28 34.28 55.47 34.28" style="fill-rule:evenodd"/><polyline points="57.86 32.62 58.05 32.43 57.86 32.06 57.68 31.51 57.31 31.14 56.57 30.04 56.39 29.48 56.39 28.93 57.12 29.3 57.12 29.48 57.12 29.3 57.12 29.67 57.49 30.04 58.6 31.7 58.78 32.25 58.78 32.62 58.6 32.99" style="fill-rule:evenodd"/><polyline points="58.6 32.99 57.86 32.62 58.05 32.43" style="fill-rule:evenodd"/><polyline points="56.57 28.75 56.94 28.38 58.23 28.38 59.89 28.93 60.26 28.93 60.63 28.75 60.81 29.48 60.26 29.67 59.7 29.67 58.6 29.3 58.05 29.3 57.49 29.12 57.31 29.12 57.12 29.3" style="fill-rule:evenodd"/><polyline points="56.39 28.93 56.57 28.93 56.57 28.75 57.12 29.3" style="fill-rule:evenodd"/><polyline points="60.44 28.93 60.44 28.56 60.07 27.64 59.89 26.72 59.89 25.98 60.26 25.61 60.81 26.17 60.63 26.35 60.63 26.54 60.81 27.46 61.18 28.38 61.18 29.3 60.99 29.48" style="fill-rule:evenodd"/><polyline points="60.81 29.48 60.99 29.48 60.44 28.93 60.63 28.75" style="fill-rule:evenodd"/><polyline points="60.44 25.43 61.18 25.25 61.92 25.25 62.47 25.43 63.02 25.8 63.76 26.17 63.94 26.35 64.31 25.98 64.68 26.72 64.13 27.09 63.76 27.09 63.57 26.9 63.02 26.72 62.65 26.35 62.1 26.17 61.73 25.98 61.36 25.98 60.63 26.17" style="fill-rule:evenodd"/><polyline points="60.26 25.61 60.44 25.43 60.63 26.17 60.81 26.17" style="fill-rule:evenodd"/><polyline points="64.13 26.17 64.31 25.98 64.13 25.06 63.94 24.51 63.94 23.96 64.31 23.22 64.86 22.85 65.42 23.41 64.86 23.77 64.68 24.14 64.68 24.51 64.86 24.88 65.05 25.61 65.05 26.35 64.86 26.72" style="fill-rule:evenodd"/><polyline points="64.68 26.72 64.86 26.72 64.13 26.17 64.31 25.98" style="fill-rule:evenodd"/><polyline points="65.05 22.85 65.42 22.48 65.97 22.48 66.71 22.67 67.08 22.85 67.26 23.04 68 23.59 68.73 24.51 68.92 24.7 69.29 24.7 69.29 25.43 68.73 25.43 68.18 25.06 67.44 24.14 66.89 23.59 66.52 23.41 66.34 23.41 65.79 23.22 65.6 23.22 65.42 23.41" style="fill-rule:evenodd"/><polyline points="64.86 22.85 65.05 22.85 65.42 23.41" style="fill-rule:evenodd"/><polyline points="68.92 24.7 69.29 24.51 69.47 24.14 69.66 23.59 69.66 23.04 70.21 21.93 70.58 21.56 71.13 21.19 71.5 21.93 70.94 22.11 70.39 23.22 70.39 23.96 70.21 24.51 69.84 25.06 69.47 25.43" style="fill-rule:evenodd"/><polyline points="69.29 25.43 69.47 25.43 68.92 24.7 69.29 24.7" style="fill-rule:evenodd"/><polyline points="71.31 21.19 71.87 21.19 72.6 21.38 72.97 21.93 73.71 22.67 74.08 23.22 74.45 23.41 74.81 23.77 74.63 24.51 73.89 24.14 72.97 23.22 72.79 22.67 72.42 22.3 72.05 22.11 71.87 21.93 71.31 21.93" style="fill-rule:evenodd"/><polyline points="71.13 21.19 71.31 21.19 71.31 21.93 71.5 21.93" style="fill-rule:evenodd"/><polyline points="74.81 23.77 75 23.59 75.18 23.59 75.55 22.85 75.92 21.75 76.66 21.38 77.21 21.38 77.21 22.11 76.66 22.11 76.66 22.3 76.47 22.3 76.11 23.04 75.74 23.96 75.37 24.33 74.81 24.51" style="fill-rule:evenodd"/><polyline points="74.63 24.51 74.81 24.51 74.81 23.77" style="fill-rule:evenodd"/><polyline points="77.39 21.38 77.76 21.56 78.32 21.93 78.87 22.48 79.97 24.14 80.16 24.51 80.71 24.7 80.16 25.25 79.61 25.06 78.5 23.41 78.13 23.04 77.76 22.48 77.03 22.11" style="fill-rule:evenodd"/><polyline points="77.21 21.38 77.39 21.38 77.03 22.11 77.21 22.11" style="fill-rule:evenodd"/><polyline points="80.53 24.7 80.71 24.7 81.08 24.51 81.63 23.59 82 23.04 82.56 22.67 82.74 22.48 83.29 22.3 83.84 22.3 83.84 23.04 83.11 23.04 82.56 23.59 82.19 24.14 81.63 25.06 81.08 25.43 80.34 25.43" style="fill-rule:evenodd"/><polyline points="80.16 25.25 80.16 25.43 80.34 25.43 80.53 24.7 80.71 24.7" style="fill-rule:evenodd"/><polyline points="84.03 22.3 84.58 22.67 84.95 23.04 85.32 23.59 85.32 24.14 85.69 25.25 85.87 25.61 86.24 25.8 85.69 26.35 85.32 26.17 84.95 25.61 84.58 24.51 84.58 23.96 84.4 23.59 84.03 23.22 83.66 23.04" style="fill-rule:evenodd"/><polyline points="83.84 22.3 84.03 22.3 83.66 23.04 83.84 23.04" style="fill-rule:evenodd"/><polyline points="85.87 25.8 86.06 25.8 86.79 24.88 87.16 24.33 87.53 23.96 88.08 23.77 88.64 23.96 88.45 24.7 88.08 24.51 87.35 25.25 86.79 26.17 86.24 26.54 85.87 26.54" style="fill-rule:evenodd"/><polyline points="85.69 26.35 85.69 26.54 85.87 26.54 85.87 25.8 86.24 25.8" style="fill-rule:evenodd"/><polyline points="88.82 23.96 89.37 24.51 90.11 25.06 91.58 26.9 92.14 28.01 92.87 29.3 93.43 30.59 93.8 31.88 93.06 32.06 92.69 30.77 92.14 29.67 91.58 28.38 90.85 27.46 90.29 26.35 89.56 25.61 88.82 25.06 88.27 24.51" style="fill-rule:evenodd"/><polyline points="88.64 23.96 88.82 23.96 88.27 24.51 88.45 24.7" style="fill-rule:evenodd"/><polyline points="93.06 32.25 92.69 31.7 92.14 31.33 91.22 30.59 90.48 30.22 89.93 30.22 89.56 30.59 89.56 32.25 89.93 33.91 89.19 34.09 88.82 32.25 88.82 30.41 89 30.04 89.37 29.67 89.74 29.48 90.66 29.48 91.58 29.85 92.69 30.77 93.24 31.14 93.61 31.7" style="fill-rule:evenodd"/><polyline points="93.8 31.88 93.06 32.25 93.61 31.7 93.06 32.06" style="fill-rule:evenodd"/><polyline points="89.19 34.09 88.45 32.99 87.53 31.88 86.79 30.96 86.42 30.59 85.87 30.41 86.24 29.67 87.35 30.41 88.27 31.33 89 32.43 89.93 33.72" style="fill-rule:evenodd"/><polyline points="89.93 33.91 89.19 34.09 89.93 33.72 89.19 34.09" style="fill-rule:evenodd"/><polyline points="85.87 30.41 85.5 30.22 85.32 30.22 84.58 30.96 84.03 31.14 83.66 31.14 83.29 30.41 83.84 30.41 84.03 30.22 84.58 29.85 84.77 29.67 85.14 29.48 85.69 29.48 86.24 29.67" style="fill-rule:evenodd"/><line x1="86.24" y1="29.67" x2="85.87" y2="30.41"/><polyline points="83.48 31.14 83.11 31.33 82.37 30.96 81.82 30.41 81.82 29.67 81.45 28.93 81.27 28.75 80.9 28.56 81.08 27.83 81.63 28.01 82.19 28.38 82.56 29.48 82.56 30.04 82.74 30.41 82.92 30.41 82.92 30.59 83.11 30.59 83.48 30.41" style="fill-rule:evenodd"/><polyline points="83.66 31.14 83.48 31.14 83.48 30.41 83.29 30.41" style="fill-rule:evenodd"/><polyline points="81.08 28.56 80.53 28.56 80.53 28.75 80.34 28.75 80.34 29.12 80.16 29.48 79.97 30.04 79.42 30.41 78.87 30.59 78.5 30.04 79.05 29.67 79.42 29.48 79.42 29.12 79.61 28.93 79.61 28.56 79.79 28.19 80.34 27.83 80.9 27.83" style="fill-rule:evenodd"/><polyline points="81.08 27.83 80.9 27.83 81.08 28.56 80.9 28.56" style="fill-rule:evenodd"/><polyline points="78.69 30.59 78.32 30.77 77.76 30.77 77.03 30.41 76.66 29.67 76.29 29.12 75.55 27.83 75.37 27.64 75.18 27.64 75 26.9 75.37 26.9 76.11 27.27 76.29 27.46 76.84 28.75 77.21 29.3 77.39 29.48 77.58 29.85 77.76 29.85 77.95 30.04 78.13 30.04 78.5 29.85" style="fill-rule:evenodd"/><polyline points="78.87 30.59 78.69 30.59 78.5 29.85 78.5 30.04" style="fill-rule:evenodd"/><polyline points="75.37 27.64 75 27.83 74.81 28.01 74.45 28.75 74.26 29.3 73.53 30.04 73.16 30.22 72.79 30.22 72.6 29.48 72.97 29.48 72.97 29.3 73.34 29.12 73.53 28.93 73.71 28.56 74.08 27.64 74.45 27.27 75 26.9" style="fill-rule:evenodd"/><polyline points="75 26.9 75.37 27.64 75.18 27.64" style="fill-rule:evenodd"/><polyline points="72.79 30.22 72.05 30.22 71.5 29.85 71.13 29.3 70.76 28.56 70.39 28.19 69.84 28.19 69.47 28.38 69.29 27.64 69.66 27.46 70.39 27.46 70.76 27.64 71.31 28.01 71.5 28.38 71.87 28.93 72.05 29.3 72.42 29.48 72.79 29.48" style="fill-rule:evenodd"/><polyline points="72.79 30.22 72.79 29.48 72.6 29.48" style="fill-rule:evenodd"/><polyline points="69.66 28.38 69.1 28.75 68.73 28.93 68.73 29.3 68.92 29.67 69.1 30.59 69.1 31.33 68.92 31.7 68.18 31.33 68.37 30.96 68.37 30.77 68.18 29.85 68 29.3 68 28.56 68.55 28.19 69.1 27.64" style="fill-rule:evenodd"/><polyline points="69.29 27.64 69.1 27.64 69.66 28.38 69.47 28.38" style="fill-rule:evenodd"/><polyline points="68.73 31.88 68 32.25 67.63 32.25 67.08 32.06 66.71 32.06 66.15 31.88 65.6 31.88 65.23 32.43 64.68 31.88 65.05 31.33 65.42 31.33 65.79 31.14 66.34 31.14 66.89 31.33 67.26 31.33 67.81 31.51 68.37 31.14" style="fill-rule:evenodd"/><polyline points="68.92 31.7 68.73 31.88 68.37 31.14 68.18 31.33" style="fill-rule:evenodd"/><polyline points="65.42 32.25 65.23 32.62 65.23 32.99 65.42 33.17 65.6 33.54 65.97 33.91 66.15 34.28 66.15 35.38 65.42 35.2 65.42 34.64 65.23 34.28 64.68 33.72 64.31 32.62 64.68 32.06" style="fill-rule:evenodd"/><polyline points="64.68 31.88 64.68 32.06 65.42 32.25 65.23 32.43" style="fill-rule:evenodd"/><polyline points="65.97 35.57 65.42 36.12 64.86 36.49 62.65 36.49 62.47 36.67 61.92 36.12 62.28 35.94 62.84 35.75 64.68 35.75 65.05 35.57 65.42 35.01" style="fill-rule:evenodd"/><polyline points="66.15 35.38 66.15 35.57 65.97 35.57 65.42 35.01 65.42 35.2" style="fill-rule:evenodd"/><polyline points="62.65 36.67 62.47 37.04 62.65 37.41 63.02 37.59 63.94 37.96 64.13 38.33 64.31 38.52 64.31 39.25 63.57 39.25 63.57 38.88 63.39 38.7 62.65 38.15 62.1 37.96 61.73 37.59 61.73 37.23 61.55 36.86 61.92 36.3" style="fill-rule:evenodd"/><polyline points="61.92 36.12 61.92 36.3 62.65 36.67 62.47 36.67" style="fill-rule:evenodd"/><polyline points="64.31 39.25 64.31 39.8 63.94 40.17 62.84 40.73 62.47 41.09 62.28 41.46 61.55 41.46 61.73 40.73 62.1 40.36 62.84 39.99 63.39 39.62 63.57 39.44 63.57 39.25" style="fill-rule:evenodd"/><line x1="64.31" y1="39.25" x2="63.57" y2="39.25"/><polyline points="62.28 41.46 62.47 41.65 63.2 41.83 64.31 42.94 64.31 43.67 63.57 43.67 63.57 43.31 63.39 42.94 63.02 42.75 62.84 42.57 61.73 42.02 61.55 41.65 61.55 41.46" style="fill-rule:evenodd"/><line x1="61.55" y1="41.46" x2="62.28" y2="41.46"/><polyline points="64.31 43.67 64.31 44.23 64.13 44.6 63.94 44.78 63.57 44.97 62.47 44.97 62.28 45.15 62.28 45.52 61.55 45.15 61.73 44.78 62.1 44.41 62.47 44.23 63.2 44.23 63.57 44.04 63.57 43.67" style="fill-rule:evenodd"/><line x1="64.31" y1="43.67" x2="63.57" y2="43.67"/><polyline points="62.28 45.15 62.28 45.33 62.47 45.33 63.2 45.52 63.76 45.7 64.13 45.89 64.68 46.26 64.86 46.44 64.86 46.62 64.13 46.99 64.13 46.62 63.94 46.62 63.76 46.44 63.02 46.44 62.1 46.07 61.73 45.89 61.55 45.52" style="fill-rule:evenodd"/><polyline points="61.55 45.15 61.55 45.52 62.28 45.15 62.28 45.52" style="fill-rule:evenodd"/><polyline points="64.86 46.81 65.05 47.36 65.05 48.1 64.5 48.65 63.76 49.2 63.39 48.47 64.13 48.1 64.31 47.73 64.13 47.36 64.13 46.81" style="fill-rule:evenodd"/><polyline points="64.86 46.62 64.86 46.81 64.13 46.81 64.13 46.99" style="fill-rule:evenodd"/><line x1="55.47" y1="48.83" x2="63.57" y2="48.83" style="fill:none;stroke:#000;stroke-linejoin:round;stroke-width:0.6874px"/><polyline points="63.76 49.2 63.57 49.2 63.57 48.47 63.39 48.47" style="fill-rule:evenodd"/><polyline points="55.47 49.2 55.28 49.2 55.1 49.02 55.65 48.47 55.47 48.47" style="fill-rule:evenodd"/><path d="M0,72.24v-2.4l.18-2.21.37-2.21L.92,63l.55-2L2,58.79l.74-2,.92-2.21.92-1.84.92-2,1.11-1.84,2.58-3.69,1.29-1.66L12,41.83l1.66-1.47,1.47-1.66,1.66-1.29,1.84-1.47,1.84-1.11,1.84-1.29,2-1.11,1.84-.92,2.21-.92,2-.74,4.42-1.47,4.42-.74,2.39-.37,2.4-.18h4.79l2.21.18,2.4.37,2.21.37,2.4.37,2.21.74,2,.74,2.21.74,4.05,1.84,1.84,1.11,2,1.29,1.66,1.11,1.84,1.47,1.66,1.29,3.13,3.13,2.95,3.32L85,47l2.21,3.69,1.1,2,.92,1.84.74,2.21.74,2L91.4,61,92,63l.37,2.4.37,4.42.18,2.4-.18,2.39-.37,4.42L92,81.27l-.55,2.21-.74,2.21-1.47,4.05-.92,2-1.1,2L85,97.48l-1.29,1.84-2.95,3.32-1.47,1.47-3.32,2.95-1.84,1.29-.74.74-.92.55-2,1.29-1.84.92-2,1.11-2,.92-2.21.74-2,.74-2.21.55-2.4.55-2.21.37-2.4.37-2.21.18H44l-2.4-.18-2.39-.37L37,116.46l-4.42-1.11-2.21-.74-2-.74L26.17,113l-1.84-1.11-2-.92-5.53-3.87-1.66-1.47-1.47-1.47-.92-.74-.74-.74L10.5,101,9.21,99.32,6.63,95.64,5.53,93.8,2.76,87.72l-.74-2L.92,81.27.18,76.84,0,74.63m8.48-2.39L9,77.76l.74,3.69.55,1.66L10.87,85l.74,1.66.74,1.47.74,1.66L14,91.22l.92,1.66,2.21,2.76,2.58,2.58,2.58,2.4,1.47,1.11,1.47.92,1.47,1.11,1.66.74,1.66.92,1.66.74,3.5,1.29,1.66.37,3.69.74,2,.37h1.84l2,.18,2-.18,1.84-.18,2-.18,1.84-.37,3.69-.92,1.84-.55,1.84-.74,1.66-.74,3.32-1.84,1.47-.92,2.95-2.21L72.42,99l1.29-1.29L14,53.07l-1.29,2.21-.92,2.21-1.11,2.21L10,62.1l-.37,1.29L9.4,64.5l-.55,2.58m70.39,23.4,1.11-2,.92-2,.92-2.21.74-2.4.55-2.21.18-1.29.18-1.11L84,74.63l.18-2.39V70.39l-.18-2-.19-1.84-.37-1.66L82.92,63l-.37-1.66-.74-1.84-.55-1.66-.74-1.66-.92-1.47-.92-1.66-.92-1.47-2.21-2.76-1.11-1.29-1.29-1.29-2.76-2.4-2.95-2.21L66,40.73,64.5,39.8l-3.32-1.47L57.68,37l-1.84-.37L54,36.12l-1.84-.18-1.84-.37-2-.18H44.41l-3.69.37-1.66.37-1.84.37L35.56,37l-1.84.55-1.66.55-1.66.74-1.47.74-1.66.74L24.32,42.2,23,43.31l-1.47,1.11-1.29,1.11" style="fill:#676767;fill-rule:evenodd"/><path d="M233.11,15.66a6.82,6.82,0,0,0-13.64,0,6.83,6.83,0,0,0,13.64,0" style="fill-rule:evenodd"/><polyline points="226.29 81.82 112.96 81.82 116.46 80.34 119.78 78.87 121.44 77.95 122.91 77.03 124.2 76.11 125.31 74.82 126.97 72.97 128.99 70.39 131.02 67.45 133.41 64.87 134.71 63.58 136 62.65 136.55 62.1 137.28 61.73 138.57 61.18 139.87 60.81 141.15 60.81 141.71 61 142.26 61.37 143 61.73 143.55 62.1 144.84 61.18 145.95 60.26 147.24 59.15 148.34 58.05 150.55 55.84 152.76 53.44 154.79 51.05 156.63 48.65 159.58 44.41 161.06 42.2 162.71 39.07 163.82 37.59 164.93 35.94 166.4 34.28 167.87 32.8 169.53 31.33 170.45 30.59 171.37 30.04 172.48 29.3 173.59 28.93 174.69 28.38 177.27 27.64 178.75 27.46 180.04 27.27 181.69 27.09 183.17 27.09 184.83 27.27 186.67 27.46 188.51 27.83 187.04 28.19 185.38 28.56 183.91 28.93 182.43 29.48 181.14 30.22 179.85 30.77 178.56 31.7 177.27 32.43 175.43 34.64 174.69 35.75 173.96 37.04 173.77 37.59 173.59 38.33 173.4 39.8 173.4 42.2 173.59 42.94 174.32 42.75 176.53 41.09 177.27 40.36 177.82 39.62 180.41 36.67 181.88 35.38 182.62 34.83 183.54 34.28 184.46 33.91 185.38 33.72 185.2 34.64 185.01 35.75 184.83 36.49 184.83 37.23 185.01 38.15 185.01 38.52 189.06 35.57 195.7 30.41 196.99 29.48 198.65 28.38 200.12 27.46 201.6 26.35 202.89 25.25 203.99 23.96 204.36 23.22 204.73 21.75 204.73 21.01 205.83 23.22 206.2 24.14 206.57 25.25 206.76 27.09 206.76 28.93 206.57 29.85 206.57 30.77 206.2 31.51 206.02 32.43 204.54 35.75 202.7 38.88 200.86 42.2 200.12 43.86 199.02 47.18 198.83 49.02 201.6 48.47 202.33 48.1 202.89 47.73 203.62 47.36 204.73 46.26 206.94 43.67 207.86 42.38 208.97 41.09 209.34 41.83 209.71 43.12 209.89 44.6 209.89 46.07 210.07 49.02 209.89 50.13 212.1 49.02 217.44 46.07 223.34 42.38 228.32 39.07 228.32 39.8 227.95 40.91 227.21 43.67 225.92 46.81 224.45 50.31 221.87 56.2 220.58 58.78 220.76 58.97 221.31 58.97 222.42 58.78 224.26 58.05 226.84 56.76 230.71 54.55 235.87 51.41 235.87 51.97 235.69 52.7 235.5 53.26 235.32 53.99 234.95 55.28 233.48 57.86 232.56 59.15 231.45 60.44 230.53 61.73 229.42 63.02 224.63 67.81 223.53 69.29 224.81 69.29 226.29 69.11 227.58 68.92 228.87 68.55 231.63 68 234.4 67.08 236.98 66.16 239.56 65.05 241.77 63.95 243.79 62.65 242.87 65.05 241.77 67.45 240.48 69.47 239 71.5 237.71 73.16 236.24 74.82 233.29 77.4 231.82 78.5 230.53 79.42 228.32 80.71 226.84 81.45" style="fill:#676767;fill-rule:evenodd"/><polyline points="187.59 18.25 186.49 20.27 185.38 21.75 184.46 23.04 183.35 23.96 181.14 25.06 180.22 25.43 179.12 25.61 176.72 25.8 175.43 26.17 174.32 26.35 172.85 26.9 172.29 27.27 170.82 28.01 170.09 28.56 168.61 30.04 169.9 27.64 171.56 25.43 172.48 24.33 173.59 23.22 175.8 21.38 177.09 20.46 178.56 19.72 179.85 19.17 181.33 18.61 182.8 18.25 184.28 18.06 185.93 18.06" style="fill:#676767;fill-rule:evenodd"/><polyline points="168.06 23.59 165.48 24.33 163.45 25.06 162.35 25.43 161.42 25.8 159.77 26.54 158.48 27.46 157.74 28.01 157.19 28.38 156.08 29.67 155.16 30.96 154.42 32.43 153.87 34.28 153.32 36.3 152.76 38.52 152.21 41.09 151.66 44.04 150.55 51.05 152.76 48.65 157.56 43.86 158.11 43.12 158.66 42.57 159.58 41.28 160.32 39.8 160.87 37.96 161.24 36.3 161.42 35.01 161.42 34.09 161.42 32.25 162.35 30.41 163.64 28.56 164.37 27.64 166.4 25.61 167.14 24.7" style="fill:#676767;fill-rule:evenodd"/><polyline points="233.84 34.83 234.58 37.04 234.95 39.25 235.13 41.28 235.13 42.38 234.95 43.31 234.21 45.15 233.84 45.52 233.66 46.07 232.19 47.54 229.97 48.65 228.69 49.2 229.42 47.36 229.79 45.33 230.16 41.28 230.34 40.17 230.53 39.25 231.26 37.41 231.63 36.67 232.19 35.94 232.92 35.38" style="fill:#676767;fill-rule:evenodd"/><polyline points="241.03 49.02 241.58 50.68 241.95 51.41 242.14 51.97 242.32 53.26 242.32 54.36 242.14 55.47 241.77 56.2 241.4 57.13 240.85 57.68 239.37 58.78 237.71 59.71 234.21 61.37 236.06 58.6 237.9 55.47 239.74 52.15" style="fill:#676767;fill-rule:evenodd"/><polyline points="200.12 46.07 201.23 45.7 202.33 45.15 203.44 44.41 205.65 42.57 206.94 41.46 209.71 38.7 210.07 39.07 210.26 39.62 210.81 40.54 211.18 43.12 211.36 45.52 211.55 47.54 212.28 47.36 213.02 46.99 214.13 46.26 215.05 45.52 216.15 44.6 217.44 43.49 222.24 39.07 224.26 36.86 227.03 33.91 227.4 33.54 227.95 33.17 229.24 32.8 230.71 32.43 236.79 32.43 237.9 32.25 238.82 32.06 239.56 31.88 240.11 31.51 240.85 31.14 241.21 30.41 241.58 29.85 241.95 28.93 241.95 27.83 241.77 25.06 241.58 21.56 241.21 17.32 237.16 18.06 236.98 20.64 236.61 24.14 236.61 24.88 236.42 25.61 236.06 25.98 235.32 26.17 233.48 26.35 231.26 26.35 228.5 26.17 228.69 25.98 228.87 25.43 228.87 25.06 228.32 24.51 227.95 24.33 225.37 23.96 224.08 23.59 222.97 23.04 221.68 22.48 219.84 21.38 219.29 20.64 218.18 20.64 217.63 21.01 217.44 21.19 217.44 21.56 210.81 16.59 210.44 16.22 210.26 15.85 210.26 15.11 210.44 14.56 210.81 13.82 211.18 13.64 212.28 12.72 213.76 11.24 215.79 9.4 212.28 6.08 205.65 11.06 204.73 11.79 203.81 12.72 203.62 13.27 203.44 13.64 203.44 14.74 203.62 15.11 203.81 15.66 204.73 17.69 205.83 19.54 207.68 22.48 207.86 23.22 208.23 23.96 208.41 25.06 208.41 29.12 208.23 30.04 207.13 32.43 206.57 34.09 205.65 36.12 204.54 38.33 203.25 40.73 201.78 43.31" style="fill-rule:evenodd"/><polyline points="213.21 5.53 216.15 8.66 216.89 8.48 218.55 8.11 219.66 7.74 220.76 7.19 221.68 6.63 222.6 5.9 222.97 5.53 223.16 5.16 223.16 4.79 222.79 4.42 222.24 4.24 222.05 4.05 222.24 3.87 222.79 3.5 222.97 3.13 223.34 2.76 223.53 2.4 223.71 1.66 223.71 0.92 223.53 0.56 222.97 0.19 222.42 0 220.58 0 219.47 0.37 218.55 0.92 217.44 1.48 216.34 2.21 214.68 3.87 213.57 5.16" style="fill-rule:evenodd"/><polyline points="237.35 17.51 238.08 17.14 239.37 16.95 241.03 16.77 241.21 13.27 241.21 9.58 241.03 9.03 240.66 8.11 239.93 7.37 239.37 7 238.82 6.82 238.27 6.82 237.71 7 237.16 7.37 236.79 7.74 236.61 8.29 236.24 8.85 236.06 9.77 236.06 10.14 235.69 9.58 235.13 9.4 234.77 9.4 234.4 9.58 234.21 9.77 234.21 11.06 234.21 11.61 234.58 12.35 234.77 12.9 235.32 13.64 235.87 14.56" style="fill-rule:evenodd"/><polyline points="93.61 39.25 95.82 36.67 96.01 37.04 97.11 37.59 98.03 37.96 98.95 38.7 99.51 39.44 100.06 40.54 100.25 41.09 100.25 43.31 101.35 44.04 102.09 44.78 102.27 45.15 102.64 45.52 102.83 46.44 103.01 47.54 103.01 48.47 102.83 49.39 102.64 50.49 103.38 51.23 103.93 51.97 104.48 52.89 104.85 53.63 105.04 54.55 105.22 55.65 105.22 56.76 105.04 57.86 105.59 58.6 106.14 59.15 106.69 59.89 107.06 60.63 107.43 62.29 107.62 63.95 107.43 65.6 107.06 68.55 106.69 69.66 107.43 70.76 107.62 71.13 107.98 71.69 108.35 73.89 108.35 75.19 107.98 76.29 107.25 78.87 107.98 79.79 108.91 80.71 109.46 81.82 110.01 83.11 110.38 84.4 110.56 85.69 110.56 87.16 110.38 88.64 110.93 88.82 111.67 89.01 112.22 89.19 112.96 89.56 114.07 90.3 115.17 91.4 115.91 90.3 116.46 89.74 117.57 89.01 118.3 88.82 119.78 88.27 122.73 88.27 124.2 88.64 124.75 88.82 125.31 89.19 126.78 88.27 128.07 87.72 129.54 87.16 131.2 86.8 132.68 86.8 134.89 87.35 135.81 87.72 137.28 88.64 137.84 88.08 138.57 87.72 140.23 86.98 141.15 86.61 143 86.24 145.95 86.24 146.87 86.43 149.63 87.53 150.37 88.08 151.1 88.82 151.66 88.27 152.4 87.72 153.87 86.98 155.71 86.61 157.56 86.61 160.32 87.16 161.06 87.53 161.98 87.9 162.71 88.27 163.82 89.01 164.56 88.27 165.48 87.72 166.22 87.16 168.06 86.43 169.9 86.06 171.75 86.06 173.59 86.43 174.51 86.8 176.35 87.9 178.01 89.56 178.75 88.45 179.3 88.08 179.67 87.72 180.77 86.98 181.14 86.8 181.69 86.43 182.8 86.06 183.72 85.69 187.04 85.69 187.96 86.06 189.06 86.43 189.99 86.98 190.91 87.72 192.57 89.38 193.12 90.48 194.04 89.56 194.96 88.82 197.17 87.35 198.46 86.8 201.04 86.06 202.33 85.87 204.91 85.87 207.49 86.61 208.78 87.35 209.89 88.08 211.91 90.11 212.1 90.48 213.94 89.01 214.86 88.45 215.79 88.08 216.89 87.72 218.73 87.35 219.84 87.35 220.76 87.53 221.87 87.72 222.79 88.27 223.89 88.82 224.81 89.38 225.92 90.3 226.84 91.4 227.95 92.51 228.5 91.59 229.97 90.11 231.45 89.01 232.37 88.64 234.03 88.27 235.87 88.27 237.71 88.82 239.56 89.56 241.4 90.67 241.77 90.67 242.32 91.03 242.69 91.22 242.87 91.59 243.43 92.32 243.79 93.25 244.16 94.53 244.35 95.09 244.35 95.64 244.53 96.93 244.16 98.22 243.61 99.51 242.14 101.72 241.21 102.64 240.11 103.38 239 103.93 237.71 104.48 236.61 104.67 235.32 104.85 234.03 104.67 232.74 104.3 231.45 103.75 230.16 103.01 228.5 101.35 227.95 100.61 225.74 103.19 224.81 104.12 223.89 104.85 222.79 105.59 220.94 106.33 219.1 106.7 218.18 106.7 217.44 106.51 216.52 106.33 215.79 105.96 214.86 105.59 213.39 104.67 212.47 105.59 211.36 106.51 210.81 107.06 209.15 108.17 208.05 108.72 206.76 109.28 205.47 109.64 202.89 110.01 200.31 109.64 197.73 108.54 196.44 107.8 195.15 106.7 194.59 106.14 194.04 105.41 193.3 106.51 192.38 107.43 189.62 109.64 188.51 110.01 187.59 110.38 186.49 110.75 184.46 110.75 183.35 110.57 182.43 110.38 180.59 109.28 180.22 108.91 179.67 108.54 178.93 107.62 177.46 108.72 175.8 109.64 174.88 110.01 173.03 110.38 171.93 110.57 169.9 110.57 168.06 110.2 166.95 109.83 166.03 109.46 164 108.36 162.16 109.46 160.32 110.2 158.48 110.57 156.82 110.57 155.16 110.38 154.24 110.2 153.5 109.64 152.76 109.28 152.03 108.72 151.47 107.99 150.74 107.25 149.26 108.17 147.42 108.91 146.68 109.28 145.76 109.64 143.92 110.01 142.26 110.01 141.52 109.83 140.6 109.64 139.87 109.28 139.13 108.72 137.84 107.43 136.73 108.17 135.44 108.72 134.71 109.09 133.97 109.09 132.49 109.28 130.83 109.28 129.36 108.91 127.89 108.17 126.41 107.06 125.12 107.8 124.02 108.54 123.28 108.72 122.54 109.09 121.99 109.28 120.52 109.28 119.78 108.91 118.86 108.54 118.12 107.99 116.46 106.33 115.72 105.04 114.99 103.38 114.07 104.12 113.14 104.48 112.04 105.04 111.12 105.41 110.01 105.59 107.8 105.59 106.14 105.04 105.77 104.85 105.22 104.48 104.85 104.12 103.75 102.46 103.38 101.72 103.01 100.25 102.83 98.22 102.83 94.53 103.01 93.25 101.72 91.77 101.35 91.03 100.8 90.11 100.43 89.38 100.25 88.64 100.06 87.72 99.88 86.98 99.88 85.32 100.25 83.48 100.61 82.74 100.98 81.82 102.09 79.98 101.17 78.87 100.61 78.32 100.25 77.77 99.14 75.19 98.95 73.89 98.95 73.34 99.14 72.6 99.51 71.32 99.88 70.76 100.25 70.03 99.32 67.08 98.95 65.79 98.77 64.5 98.59 63.39 98.77 62.1 98.95 61.55 99.14 60.81 99.69 59.52 98.4 57.86 97.85 57.13 97.48 56.2 97.48 54.36 97.67 53.81 98.4 52.7 98.77 51.97 98.03 51.41 97.48 50.86 96.75 49.39 96.56 48.65 96.38 47.54 96.38 46.62 96.56 45.33 95.64 44.97 94.9 44.23 94.72 43.86 94.35 43.49 93.98 42.75 93.61 41.83 93.61 40.91 93.43 39.99" style="fill:#fff;fill-rule:evenodd"/><polyline points="93.24 38.88 93.8 39.44 96.01 37.04 95.45 36.49" style="fill-rule:evenodd"/><polyline points="96.19 36.49 95.45 36.86 95.64 37.23 96.38 36.86" style="fill-rule:evenodd"/><polyline points="95.45 36.49 95.82 35.94 96.19 36.49 95.45 36.86 96.01 37.04" style="fill-rule:evenodd"/><polyline points="96.19 36.67 98.4 37.78 99.14 38.33 99.88 39.07 100.06 39.62 100.25 39.99 100.61 41.09 100.61 43.31 99.88 43.31 99.88 42.2 99.69 41.09 99.69 40.73 99.14 39.62 98.59 38.88 97.85 38.33 96.93 37.96 95.82 37.41" style="fill-rule:evenodd"/><polyline points="95.64 37.23 95.64 37.41 95.82 37.41 96.19 36.67 96.38 36.86" style="fill-rule:evenodd"/><polyline points="100.43 42.94 101.17 43.31 101.54 43.67 102.27 44.6 102.64 44.97 103.01 45.52 103.19 46.44 103.38 47.54 103.38 48.47 103.19 49.57 103.01 50.49 102.27 50.49 102.46 49.39 102.64 48.47 102.64 47.54 102.27 45.7 101.9 45.33 101.72 44.97 100.98 44.41 100.61 44.04 100.06 43.67" style="fill-rule:evenodd"/><polyline points="99.88 43.31 99.88 43.49 100.06 43.67 100.43 42.94 100.61 43.31" style="fill-rule:evenodd"/><polyline points="103.01 50.31 103.56 51.05 104.3 51.78 104.85 52.7 105.22 53.63 105.41 54.55 105.59 55.65 105.59 56.76 105.41 57.86 104.67 57.86 104.85 56.57 104.85 55.65 104.48 53.81 103.75 52.33 103.01 51.6 102.27 50.68" style="fill-rule:evenodd"/><polyline points="102.27 50.49 102.27 50.68 103.01 50.31 103.01 50.49" style="fill-rule:evenodd"/><polyline points="105.22 57.68 105.96 58.23 106.51 58.97 106.88 59.71 107.43 60.63 107.8 62.29 107.98 63.95 107.8 65.6 107.43 68.55 107.06 69.84 106.33 69.66 106.69 68.37 106.88 67.08 107.06 65.42 107.25 63.95 107.06 62.29 106.69 60.81 106.33 60.07 105.96 59.52 105.41 58.78 104.67 58.23" style="fill-rule:evenodd"/><polyline points="104.67 57.86 104.48 58.05 104.67 58.23 105.22 57.68 105.41 57.86" style="fill-rule:evenodd"/><polyline points="106.88 69.47 107.8 70.39 107.98 70.95 108.35 71.69 108.72 73.89 108.72 75.19 107.62 79.06 106.88 78.87 107.62 76.29 107.8 75 107.98 74.45 107.98 74.08 107.8 72.79 107.62 71.87 107.25 71.32 107.06 70.95 106.69 70.39 106.33 70.03" style="fill-rule:evenodd"/><polyline points="106.33 69.66 106.14 69.84 106.33 70.03 106.88 69.47 107.06 69.84" style="fill-rule:evenodd"/><polyline points="107.43 78.69 108.35 79.61 109.09 80.53 109.83 81.64 110.38 82.92 110.75 84.22 110.93 85.69 110.93 87.16 110.75 88.64 109.83 88.64 110.01 86.98 110.2 85.69 110.01 84.4 109.64 83.11 109.09 82 108.54 81.08 107.8 79.98 106.88 79.24" style="fill-rule:evenodd"/><polyline points="106.88 78.87 106.69 79.06 106.88 79.24 107.43 78.69 107.62 79.06" style="fill-rule:evenodd"/><polyline points="110.38 88.27 111.85 88.64 112.41 88.82 113.14 89.19 113.7 89.56 114.25 90.11 114.8 90.48 115.36 91.22 114.8 91.59 113.88 90.67 112.22 89.56 111.49 89.38 110.93 89.19 110.2 89.01" style="fill-rule:evenodd"/><polyline points="109.83 88.64 109.83 88.82 110.2 89.01 110.38 88.27 110.75 88.64" style="fill-rule:evenodd"/><polyline points="114.8 91.22 115.17 90.48 115.54 89.93 116.09 89.56 116.83 89.01 117.38 88.64 118.12 88.45 119.78 87.9 122.73 87.9 124.94 88.45 125.49 88.82 125.12 89.56 124.57 89.19 124.02 89.01 123.28 88.82 122.73 88.64 121.25 88.64 119.78 88.82 118.49 89.19 117.75 89.38 116.09 90.48 115.72 91.03 115.36 91.59" style="fill-rule:evenodd"/><polyline points="114.8 91.59 115.17 92.14 115.36 91.59 114.8 91.22 115.36 91.22" style="fill-rule:evenodd"/><polyline points="125.12 88.82 128.07 87.35 129.54 86.8 131.02 86.43 132.68 86.43 134.15 86.8 135.07 86.98 136 87.35 137.47 88.27 136.92 89.01 135.63 88.08 134.89 87.72 132.68 87.16 131.94 87.16 131.2 87.35 129.73 87.53 128.25 88.08 126.97 88.64 125.49 89.56" style="fill-rule:evenodd"/><polyline points="125.12 89.56 125.49 89.56 125.12 88.82 125.49 88.82" style="fill-rule:evenodd"/><polyline points="136.92 88.45 138.39 87.35 140.05 86.61 140.97 86.24 142.07 86.06 143 85.87 145.95 85.87 147.05 86.06 148.89 86.8 149.81 87.35 150.55 87.9 151.29 88.64 150.74 89.19 150 88.45 149.26 87.9 147.79 87.16 146.87 86.8 145.95 86.61 143 86.61 141.15 86.98 140.42 87.35 138.76 88.08 138.02 88.45 137.47 89.01" style="fill-rule:evenodd"/><polyline points="136.92 89.01 137.28 89.19 137.47 89.01 136.92 88.45 137.47 88.27" style="fill-rule:evenodd"/><polyline points="150.74 88.64 151.29 87.9 152.03 87.35 153.87 86.61 155.71 86.24 157.56 86.24 160.32 86.8 162.16 87.53 162.9 87.9 164 88.64 163.64 89.38 162.53 88.64 161.06 87.9 160.13 87.53 159.21 87.35 158.48 87.16 157.56 87.16 156.63 86.98 155.71 86.98 154.79 87.16 154.05 87.35 151.84 88.45 151.29 89.19" style="fill-rule:evenodd"/><polyline points="150.74 89.19 151.1 89.38 151.29 89.19 150.74 88.64 151.29 88.64" style="fill-rule:evenodd"/><polyline points="163.64 88.82 164.37 88.08 165.29 87.35 167.87 86.06 168.98 85.87 169.9 85.69 171.93 85.69 173.77 86.06 174.69 86.43 175.61 86.98 177.46 88.45 178.19 89.19 177.64 89.74 176.9 89.01 175.98 88.27 175.25 87.72 174.32 87.16 173.59 86.8 171.75 86.43 169.9 86.43 168.98 86.61 168.24 86.8 166.4 87.53 164.93 88.64 164 89.38" style="fill-rule:evenodd"/><polyline points="163.64 89.38 163.82 89.56 164 89.38 163.64 88.82 164 88.64" style="fill-rule:evenodd"/><polyline points="177.64 89.19 179.48 87.35 180.41 86.61 180.96 86.43 181.51 86.06 183.72 85.32 187.04 85.32 189.25 86.06 190.17 86.61 191.09 87.35 192.38 88.64 193.49 90.3 192.75 90.85 192.2 89.74 191.83 89.19 191.46 88.82 190.54 88.08 189.8 87.35 188.88 86.8 187.96 86.43 186.85 86.24 185.93 86.06 184.83 86.06 183.91 86.24 182.8 86.43 181.88 86.8 181.33 87.16 180.96 87.35 180.04 88.08 179.48 88.45 178.19 89.74" style="fill-rule:evenodd"/><polyline points="177.64 89.74 178.01 90.11 178.19 89.74 177.64 89.19 178.19 89.19" style="fill-rule:evenodd"/><polyline points="192.94 90.3 194.78 88.45 196.99 86.98 198.28 86.43 200.86 85.69 202.33 85.5 204.91 85.5 206.39 85.87 207.68 86.24 208.97 86.98 210.07 87.9 211.36 89.01 211.91 89.56 212.1 89.93 212.47 90.3 211.91 90.85 211.55 90.48 211.36 90.11 209.71 88.45 208.6 87.72 207.31 86.98 206.02 86.61 204.91 86.24 203.62 86.24 202.33 86.24 201.04 86.43 199.75 86.8 198.65 87.16 197.36 87.72 196.25 88.27 195.33 89.19 194.22 89.93 193.49 90.85" style="fill-rule:evenodd"/><polyline points="192.75 90.85 193.12 91.22 193.49 90.85 192.94 90.3 193.49 90.3" style="fill-rule:evenodd"/><polyline points="211.91 90.3 213.76 88.82 214.68 88.27 215.79 87.72 216.71 87.35 217.81 87.16 218.73 86.98 219.84 86.98 220.94 87.16 221.87 87.35 224.08 88.45 225.18 89.19 226.1 90.11 227.21 91.03 228.13 92.32 227.58 92.88 226.66 91.59 225.55 90.67 224.63 89.74 223.71 89.01 222.6 88.64 221.68 88.08 219.84 87.72 218.73 87.72 216.89 88.08 215.97 88.45 215.05 88.82 214.13 89.38 212.47 90.85" style="fill-rule:evenodd"/><polyline points="211.91 90.85 212.1 91.03 212.47 90.85 211.91 90.3 212.47 90.3" style="fill-rule:evenodd"/><polyline points="227.58 92.32 228.13 91.4 228.87 90.48 229.61 89.93 230.53 89.19 231.26 88.82 232.19 88.27 234.03 87.9 235.87 87.9 237.71 88.45 238.82 88.82 239.74 89.19 241.58 90.3 241.21 91.03 239.37 89.93 237.53 89.19 235.87 88.82 234.03 88.82 232.37 89.01 231.63 89.38 229.42 91.03 228.87 91.95 228.13 92.88" style="fill-rule:evenodd"/><polyline points="227.58 92.88 227.95 93.25 228.13 92.88 227.58 92.32 228.13 92.32" style="fill-rule:evenodd"/><polyline points="241.21 90.3 241.95 90.3 242.5 90.67 242.87 91.03 243.24 91.22 243.79 92.14 244.53 94.35 244.72 95.09 244.72 95.64 244.9 96.93 243.98 96.93 243.98 95.09 243.43 93.43 243.06 92.51 242.5 91.77 242.32 91.4 242.14 91.22 241.58 91.03 241.4 91.03" style="fill-rule:evenodd"/><polyline points="241.21 91.03 241.4 91.03 241.21 90.3 241.58 90.3" style="fill-rule:evenodd"/><polyline points="244.9 97.11 244.53 98.4 243.79 99.69 243.61 100.25 243.24 100.98 242.69 101.54 242.32 102.09 241.4 102.83 240.29 103.75 239.19 104.3 237.9 104.85 235.32 105.22 233.84 105.04 232.56 104.67 231.26 104.12 229.97 103.38 228.69 102.27 227.58 100.8 228.13 100.43 228.69 100.98 229.24 101.72 230.53 102.64 231.63 103.38 232.74 103.93 234.03 104.3 235.32 104.48 236.42 104.3 237.71 104.12 238.82 103.75 239.93 103.01 241.77 101.54 243.24 99.32 243.79 98.22 244.16 96.74" style="fill-rule:evenodd"/><polyline points="244.9 96.93 244.9 97.11 244.16 96.74 243.98 96.93" style="fill-rule:evenodd"/><polyline points="228.13 100.8 227.21 102.27 226.1 103.38 225 104.3 224.08 105.22 223.16 105.78 222.05 106.33 220.94 106.7 219.1 107.06 218.18 107.06 216.34 106.7 215.6 106.33 214.68 105.96 213.21 105.04 213.57 104.3 215.05 105.22 215.79 105.59 216.71 105.96 217.44 106.14 218.37 106.33 219.1 106.33 219.84 106.14 221.68 105.78 223.53 104.67 224.45 103.75 225.55 102.83 226.47 101.72 227.58 100.43" style="fill-rule:evenodd"/><polyline points="228.13 100.43 227.76 100.06 227.58 100.43 228.13 100.8 227.58 100.8" style="fill-rule:evenodd"/><polyline points="213.57 104.85 212.65 105.96 211.73 106.88 211 107.43 209.34 108.54 208.23 109.09 206.94 109.64 205.65 110.01 204.18 110.2 202.89 110.38 201.6 110.2 200.12 110.01 197.54 108.91 194.96 107.06 194.41 106.33 193.67 105.78 194.22 105.22 194.96 105.78 195.51 106.51 196.62 107.43 199.2 108.91 200.49 109.28 201.6 109.46 202.89 109.64 204.18 109.46 205.28 109.28 207.86 108.54 211.18 106.33 212.1 105.41 213.02 104.3" style="fill-rule:evenodd"/><polyline points="213.57 104.3 213.21 104.12 213.02 104.3 213.57 104.85 213.21 105.04" style="fill-rule:evenodd"/><polyline points="194.41 105.78 193.49 106.88 192.75 107.8 190.91 109.28 188.7 110.38 187.59 110.75 186.67 111.12 184.46 111.12 182.25 110.75 180.41 109.64 179.85 109.28 179.48 108.91 178.75 107.99 179.3 107.43 180.04 108.36 180.77 109.09 181.69 109.64 182.62 110.01 184.46 110.38 186.49 110.38 187.41 110.01 188.33 109.83 189.43 109.28 190.36 108.72 192.2 107.25 192.94 106.33 193.67 105.22" style="fill-rule:evenodd"/><polyline points="194.22 105.22 194.04 104.85 193.67 105.22 194.41 105.78 193.67 105.78" style="fill-rule:evenodd"/><polyline points="179.12 107.99 177.64 109.09 175.98 110.01 174.88 110.38 172.11 110.94 169.9 110.94 168.98 110.75 167.87 110.57 166.77 110.2 165.85 109.83 163.82 108.72 164.19 107.99 166.22 109.09 168.06 109.83 169.16 110.01 169.9 110.2 171.93 110.2 174.69 109.64 175.61 109.28 177.27 108.54 178.75 107.43" style="fill-rule:evenodd"/><polyline points="179.3 107.43 178.93 107.06 178.75 107.43 179.12 107.99 178.75 107.99" style="fill-rule:evenodd"/><polyline points="164.19 108.72 162.35 109.83 161.24 110.2 160.32 110.57 158.48 110.94 156.63 110.94 154.97 110.75 154.05 110.57 153.32 110.01 152.58 109.64 151.84 108.91 151.1 108.36 150.55 107.43 151.1 106.88 151.66 107.8 152.4 108.36 152.95 108.91 153.68 109.46 154.42 109.83 155.16 110.01 156.82 110.2 158.29 110.2 160.13 109.83 161.98 109.09 162.9 108.54 163.82 107.99" style="fill-rule:evenodd"/><polyline points="164.19 107.99 164 107.8 163.82 107.99 164.19 108.72 163.82 108.72" style="fill-rule:evenodd"/><polyline points="151.1 107.43 149.45 108.54 145.76 110.01 145.02 110.2 144.1 110.38 142.26 110.38 140.42 110.01 139.68 109.64 138.21 108.54 137.65 107.8 138.21 107.25 138.76 107.99 139.5 108.54 140.05 108.91 140.79 109.28 142.26 109.64 143.92 109.64 144.84 109.46 145.58 109.28 146.5 108.91 147.24 108.72 148.89 107.8 150.55 106.88" style="fill-rule:evenodd"/><polyline points="151.1 106.88 150.92 106.7 150.55 106.88 151.1 107.43 150.55 107.43" style="fill-rule:evenodd"/><polyline points="138.21 107.8 136.92 108.54 135.63 109.09 134.89 109.46 133.97 109.46 132.49 109.64 130.83 109.64 130.1 109.46 129.18 109.28 127.7 108.54 126.78 107.99 126.04 107.43 126.6 106.88 127.33 107.43 129.54 108.54 131.02 108.91 132.49 108.91 133.97 108.72 134.52 108.72 135.26 108.54 136.55 107.8 137.65 107.06" style="fill-rule:evenodd"/><polyline points="138.21 107.25 138.02 106.88 137.65 107.06 138.21 107.8 137.65 107.8" style="fill-rule:evenodd"/><polyline points="126.6 107.43 125.31 108.17 124.2 108.91 123.46 109.09 122.73 109.46 121.99 109.64 120.33 109.64 119.59 109.28 118.67 108.91 117.94 108.36 117.01 107.43 116.28 106.51 115.36 105.22 114.62 103.75 115.17 103.19 116.09 104.85 116.83 105.96 117.57 106.88 119.04 108.36 119.78 108.72 120.52 108.91 121.81 108.91 122.54 108.72 123.09 108.54 123.83 108.17 124.94 107.43 126.04 106.88" style="fill-rule:evenodd"/><polyline points="126.6 106.88 126.41 106.7 126.04 106.88 126.6 107.43 126.04 107.43" style="fill-rule:evenodd"/><polyline points="115.17 103.75 113.33 104.85 112.22 105.41 111.12 105.78 108.91 106.14 107.62 105.96 105.96 105.41 105.41 105.04 105.04 104.85 104.11 103.93 103.75 103.19 103.38 102.64 103.01 101.9 102.83 101.17 102.64 100.25 102.46 98.22 102.46 94.53 102.64 93.25 103.38 93.25 103.19 94.72 103.19 98.22 103.38 100.06 103.56 100.98 103.75 101.54 104.11 102.27 104.48 102.83 104.67 103.38 105.41 104.12 105.96 104.48 106.69 104.85 107.8 105.22 109.83 105.22 110.93 105.04 111.85 104.67 112.96 104.3 113.88 103.75 114.62 103.19" style="fill-rule:evenodd"/><polyline points="115.17 103.19 114.99 102.83 114.62 103.19 115.17 103.75 114.62 103.75" style="fill-rule:evenodd"/><polyline points="102.64 93.43 100.98 91.22 100.43 90.3 100.06 89.56 99.88 88.64 99.69 87.9 99.51 86.98 99.51 85.14 99.69 84.4 99.88 83.48 100.25 82.56 101.9 79.79 102.46 80.16 101.35 82 100.98 82.92 100.61 83.66 100.43 84.58 100.25 85.32 100.25 86.98 100.8 89.19 101.17 89.93 101.54 90.85 102.09 91.4 103.19 93.06" style="fill-rule:evenodd"/><polyline points="103.38 93.25 103.38 93.06 103.19 93.06 102.64 93.43 102.64 93.25" style="fill-rule:evenodd"/><polyline points="101.9 80.16 100.8 79.06 100.43 78.5 99.88 77.95 98.77 75.37 98.59 74.08 98.59 73.34 99.14 71.13 99.51 70.58 99.88 69.84 100.61 70.21 100.06 70.95 99.88 71.5 99.51 72.79 99.32 73.34 99.32 73.89 99.51 75.19 99.88 76.29 100.61 77.58 100.98 78.13 102.46 79.61" style="fill-rule:evenodd"/><polyline points="102.46 80.16 102.64 79.98 102.46 79.61 101.9 80.16 101.9 79.79" style="fill-rule:evenodd"/><polyline points="99.88 70.21 98.95 67.26 98.59 65.97 98.22 63.39 98.4 62.1 98.77 60.63 99.32 59.34 100.06 59.71 99.51 61 99.14 62.1 98.95 63.39 99.14 64.5 99.32 65.79 99.69 67.08 100.61 69.84" style="fill-rule:evenodd"/><polyline points="100.61 70.21 100.61 69.84 99.88 70.21 99.88 69.84" style="fill-rule:evenodd"/><polyline points="99.32 59.71 98.03 58.05 97.48 57.31 97.11 56.39 97.11 54.36 97.3 53.63 97.67 53.07 98.03 52.33 98.4 51.78 99.14 52.15 98.77 52.89 98.03 53.99 97.85 54.55 97.85 56.2 98.59 57.68 100.06 59.34" style="fill-rule:evenodd"/><polyline points="100.06 59.71 100.06 59.34 99.32 59.71 99.32 59.34" style="fill-rule:evenodd"/><polyline points="98.59 52.33 97.85 51.78 97.11 51.05 96.38 49.57 96.19 48.65 96.01 47.54 96.01 46.44 96.19 45.33 96.93 45.52 96.75 46.62 96.75 47.54 97.11 49.39 97.3 49.94 97.85 50.68 98.4 51.23 98.95 51.6" style="fill-rule:evenodd"/><polyline points="99.14 52.15 99.32 51.97 98.95 51.6 98.59 52.33 98.4 51.78" style="fill-rule:evenodd"/><polyline points="96.38 45.7 95.45 45.15 95.08 44.97 94.35 44.23 94.16 43.86 93.61 42.94 93.24 42.02 93.24 41.09 93.06 39.99 93.24 39.07 93.98 39.25 93.8 39.99 93.98 40.91 93.98 41.83 94.9 43.67 95.82 44.6 96.75 44.97" style="fill-rule:evenodd"/><polyline points="96.93 45.52 96.93 45.15 96.75 44.97 96.38 45.7 96.19 45.33" style="fill-rule:evenodd"/><polyline points="93.24 39.07 93.24 38.88 93.8 39.44 93.98 39.25" style="fill-rule:evenodd"/><polyline points="93.43 32.06 95.82 36.67 95.82 37.04 95.64 37.59 94.16 39.07 93.43 39.07 89.56 33.91 89.37 32.25 89.37 31.14 89.56 30.59 89.74 30.41 89.93 30.04 90.85 30.04 91.58 30.41 92.5 31.14" style="fill:#fff;fill-rule:evenodd"/><polyline points="93.98 31.7 92.87 32.25 95.27 36.86 96.19 36.3" style="fill-rule:evenodd"/><polyline points="96.38 36.67 96.38 37.23 96.19 37.78 95.45 38.88 94.9 39.25 93.8 39.62 93.43 39.62 93.61 38.52 93.98 38.52 94.9 37.59 95.08 37.23 95.08 36.67" style="fill-rule:evenodd"/><polyline points="96.19 36.3 96.38 36.49 96.38 36.67 95.08 36.67 95.27 36.86" style="fill-rule:evenodd"/><polyline points="93.06 39.44 93.8 38.7 89.93 33.54 89.19 34.28" style="fill-rule:evenodd"/><polyline points="93.43 39.62 93.06 39.62 93.06 39.44 93.8 38.7 93.61 38.52" style="fill-rule:evenodd"/><polyline points="89 34.09 88.82 32.43 88.82 30.96 89 30.41 89.19 30.04 89.56 29.67 89.93 29.48 90.85 29.48 91.95 29.85 92.87 30.59 93.8 31.51 93.06 32.43 92.14 31.51 91.22 30.96 90.85 30.77 90.66 30.59 90.29 30.59 90.11 30.77 90.11 30.96 89.93 31.14 89.93 32.25 90.11 33.91" style="fill-rule:evenodd"/><polyline points="89.19 34.28 89 34.28 89 34.09 90.11 33.91 89.93 33.54" style="fill-rule:evenodd"/><polyline points="93.8 31.51 93.98 31.7 92.87 32.25 93.06 32.43" style="fill-rule:evenodd"/><path d="M134.57,101.35V94.1h5.24v1.23h-3.7V97h3.19v1.23h-3.19v3.08Z"/><path d="M140.08,101.35V94.1h1.47v7.25Z"/><path d="M143.75,97.7l-1.33-.23a2,2,0,0,1,.77-1.13,3,3,0,0,1,1.63-.37,3.69,3.69,0,0,1,1.46.22,1.44,1.44,0,0,1,.68.56,2.72,2.72,0,0,1,.2,1.24l0,1.62a5.27,5.27,0,0,0,.07,1,2.91,2.91,0,0,0,.26.7H146c0-.09-.08-.23-.14-.41l-.05-.16a2.69,2.69,0,0,1-.8.52,2.41,2.41,0,0,1-.91.17,2,2,0,0,1-1.35-.44,1.51,1.51,0,0,1-.27-1.91,1.45,1.45,0,0,1,.63-.54,5.17,5.17,0,0,1,1.17-.32,8.4,8.4,0,0,0,1.42-.34v-.14a.7.7,0,0,0-.21-.57,1.3,1.3,0,0,0-.79-.17,1.09,1.09,0,0,0-.61.15A1,1,0,0,0,143.75,97.7Zm2,1.13c-.19.06-.49.13-.89.21a2.78,2.78,0,0,0-.8.24.57.57,0,0,0-.29.49.66.66,0,0,0,.23.5.82.82,0,0,0,.58.21,1.31,1.31,0,0,0,.76-.25.87.87,0,0,0,.35-.46,2.62,2.62,0,0,0,.06-.68Z"/><path d="M147.52,96.1h1.35v.72A2.22,2.22,0,0,1,150.6,96a1.94,1.94,0,0,1,.92.21,1.64,1.64,0,0,1,.64.63,2.54,2.54,0,0,1,.79-.63,2,2,0,0,1,.9-.21,2.1,2.1,0,0,1,1,.24,1.46,1.46,0,0,1,.63.69,2.88,2.88,0,0,1,.15,1.09v3.36h-1.47v-3a2.14,2.14,0,0,0-.15-1,.71.71,0,0,0-.63-.3,1,1,0,0,0-.58.18,1,1,0,0,0-.39.52,3.58,3.58,0,0,0-.12,1.09v2.52h-1.47V98.47a3.81,3.81,0,0,0-.08-1,.63.63,0,0,0-.24-.33.79.79,0,0,0-.45-.11,1.1,1.1,0,0,0-.61.17,1,1,0,0,0-.39.5A3.5,3.5,0,0,0,149,98.8v2.55h-1.47Z"/><path d="M155.65,96.1H157v.72a2.22,2.22,0,0,1,1.73-.84,1.94,1.94,0,0,1,.92.21,1.64,1.64,0,0,1,.64.63,2.54,2.54,0,0,1,.79-.63A2,2,0,0,1,162,96a2.1,2.1,0,0,1,1,.24,1.46,1.46,0,0,1,.63.69A2.88,2.88,0,0,1,163.8,98v3.36h-1.47v-3a2.14,2.14,0,0,0-.15-1,.71.71,0,0,0-.63-.3,1,1,0,0,0-.58.18,1,1,0,0,0-.39.52,3.58,3.58,0,0,0-.12,1.09v2.52H159V98.47a3.81,3.81,0,0,0-.08-1,.63.63,0,0,0-.24-.33.79.79,0,0,0-.45-.11,1.1,1.1,0,0,0-.61.17,1,1,0,0,0-.39.5,3.5,3.5,0,0,0-.12,1.08v2.55h-1.47Z"/><path d="M164.76,97.7l-1.33-.23a2,2,0,0,1,.77-1.13,3,3,0,0,1,1.63-.37,3.69,3.69,0,0,1,1.46.22,1.45,1.45,0,0,1,.68.56,2.74,2.74,0,0,1,.2,1.24l0,1.62a5.36,5.36,0,0,0,.07,1,2.88,2.88,0,0,0,.26.7H167c0-.09-.09-.23-.14-.41l-.05-.16a2.67,2.67,0,0,1-.8.52,2.42,2.42,0,0,1-.91.17,2,2,0,0,1-1.35-.44,1.46,1.46,0,0,1,.36-2.44,5.18,5.18,0,0,1,1.17-.32,8.33,8.33,0,0,0,1.42-.34v-.14a.7.7,0,0,0-.21-.57,1.3,1.3,0,0,0-.79-.17,1.09,1.09,0,0,0-.61.15A1,1,0,0,0,164.76,97.7Zm2,1.13q-.28.09-.89.21a2.79,2.79,0,0,0-.8.24.57.57,0,0,0-.29.49.67.67,0,0,0,.23.5.82.82,0,0,0,.58.21,1.31,1.31,0,0,0,.76-.25.87.87,0,0,0,.35-.46,2.63,2.63,0,0,0,.06-.68Z"/><path d="M168.76,101.35V94.1h1.47v2.61a2.12,2.12,0,0,1,1.61-.73,2.22,2.22,0,0,1,1.67.69,2.78,2.78,0,0,1,.66,2,2.93,2.93,0,0,1-.68,2.07,2.16,2.16,0,0,1-1.64.73,2.11,2.11,0,0,1-.94-.22,2.19,2.19,0,0,1-.8-.67v.77Zm1.46-2.74a2.14,2.14,0,0,0,.27,1.21,1.17,1.17,0,0,0,1,.55,1.06,1.06,0,0,0,.83-.39,1.86,1.86,0,0,0,.34-1.24,2,2,0,0,0-.34-1.3,1.11,1.11,0,0,0-.88-.4,1.13,1.13,0,0,0-.88.39A1.71,1.71,0,0,0,170.22,98.61Z"/><path d="M174.35,101.35V94.1h1.47v7.25Z"/><path d="M180,99.68l1.46.23a2.29,2.29,0,0,1-.89,1.16,2.73,2.73,0,0,1-1.52.4,2.54,2.54,0,0,1-2.14-.89,2.9,2.9,0,0,1-.55-1.81,2.81,2.81,0,0,1,.72-2,2.43,2.43,0,0,1,1.82-.74,2.53,2.53,0,0,1,2,.77,3.3,3.3,0,0,1,.68,2.37h-3.67a1.36,1.36,0,0,0,.35,1,1.14,1.14,0,0,0,.85.34.93.93,0,0,0,.58-.18A1.09,1.09,0,0,0,180,99.68Zm.08-1.41a1.29,1.29,0,0,0-.33-.92,1.1,1.1,0,0,0-1.56,0,1.24,1.24,0,0,0-.31.9Z"/><path d="M187.92,101.35l-2.73-7.25h1.68l1.94,5.37,1.87-5.37h1.64l-2.74,7.25Z"/><path d="M192.59,97.7l-1.33-.23a2,2,0,0,1,.77-1.13,3,3,0,0,1,1.63-.37,3.69,3.69,0,0,1,1.46.22,1.45,1.45,0,0,1,.68.56A2.74,2.74,0,0,1,196,98l0,1.62a5.36,5.36,0,0,0,.07,1,2.88,2.88,0,0,0,.26.7h-1.45c0-.09-.09-.23-.14-.41l-.05-.16a2.67,2.67,0,0,1-.8.52,2.42,2.42,0,0,1-.91.17,2,2,0,0,1-1.35-.44,1.46,1.46,0,0,1,.36-2.44,5.18,5.18,0,0,1,1.17-.32,8.33,8.33,0,0,0,1.42-.34v-.14a.7.7,0,0,0-.21-.57,1.3,1.3,0,0,0-.79-.17,1.09,1.09,0,0,0-.61.15A1,1,0,0,0,192.59,97.7Zm2,1.13q-.28.09-.89.21a2.79,2.79,0,0,0-.8.24.57.57,0,0,0-.29.49.67.67,0,0,0,.23.5.82.82,0,0,0,.58.21,1.31,1.31,0,0,0,.76-.25.87.87,0,0,0,.35-.46,2.63,2.63,0,0,0,.06-.68Z"/><path d="M196.42,96.1h1.37v.77a2,2,0,0,1,.72-.64,2.08,2.08,0,0,1,1-.25,2.16,2.16,0,0,1,1.64.72,2.8,2.8,0,0,1,.67,2,2.89,2.89,0,0,1-.68,2,2.16,2.16,0,0,1-1.64.73,2,2,0,0,1-.83-.17,2.8,2.8,0,0,1-.79-.59v2.65h-1.47Zm1.45,2.54a2,2,0,0,0,.37,1.31,1.16,1.16,0,0,0,.9.42A1.08,1.08,0,0,0,200,100a1.92,1.92,0,0,0,.34-1.27,1.83,1.83,0,0,0-.35-1.23,1.11,1.11,0,0,0-.87-.4,1.15,1.15,0,0,0-.89.39A1.69,1.69,0,0,0,197.87,98.64Z"/><path d="M201.68,98.65a2.72,2.72,0,0,1,.36-1.34,2.42,2.42,0,0,1,1-1,3.18,3.18,0,0,1,1.47-.34,2.85,2.85,0,0,1,2.06.77,2.6,2.6,0,0,1,.8,2,2.63,2.63,0,0,1-.81,2,2.82,2.82,0,0,1-2,.78,3.36,3.36,0,0,1-1.45-.33,2.3,2.3,0,0,1-1.05-1A3,3,0,0,1,201.68,98.65Zm1.5.07a1.68,1.68,0,0,0,.39,1.2,1.33,1.33,0,0,0,1.93,0,1.7,1.7,0,0,0,.39-1.21,1.67,1.67,0,0,0-.39-1.19,1.33,1.33,0,0,0-1.93,0A1.68,1.68,0,0,0,203.19,98.73Z"/><path d="M208.92,101.35h-1.47V96.1h1.36v.75a2.25,2.25,0,0,1,.63-.7,1.19,1.19,0,0,1,.63-.17,1.93,1.93,0,0,1,1,.26l-.45,1.21a1.34,1.34,0,0,0-.69-.23.84.84,0,0,0-.52.16A1.09,1.09,0,0,0,209,98a7.81,7.81,0,0,0-.12,1.76Z"/><path d="M210.51,99.85l1.47-.21a1,1,0,0,0,.38.62,1.34,1.34,0,0,0,.8.21,1.51,1.51,0,0,0,.86-.2.43.43,0,0,0,.19-.37.35.35,0,0,0-.11-.26,1.2,1.2,0,0,0-.49-.18,8.17,8.17,0,0,1-2.25-.68,1.33,1.33,0,0,1-.66-1.18,1.42,1.42,0,0,1,.57-1.15A2.76,2.76,0,0,1,213,96a3.21,3.21,0,0,1,1.69.35,1.79,1.79,0,0,1,.76,1l-1.38.24a.81.81,0,0,0-.34-.47,1.28,1.28,0,0,0-.71-.16,1.66,1.66,0,0,0-.83.15.33.33,0,0,0-.17.28.3.3,0,0,0,.15.25,5.74,5.74,0,0,0,1.37.39,4.22,4.22,0,0,1,1.64.62,1.25,1.25,0,0,1,.46,1A1.56,1.56,0,0,1,215,101a2.92,2.92,0,0,1-1.88.52,3.22,3.22,0,0,1-1.79-.43A2,2,0,0,1,210.51,99.85Z"/><path d="M23.6,99.33V94h3.8v.91H24.72v1.27H27V97H24.72v2.28Z" style="fill:#fff"/><path d="M27.34,99.33V94h1.12v4.42h2.78v.9Z" style="fill:#fff"/><path d="M36,99.33H34.75l-.48-1.22H32l-.46,1.22H30.41L32.56,94h1.18ZM33.9,97.2l-.76-2-.75,2Z" style="fill:#fff"/><path d="M35.19,99.33V94h1.67l1,3.66,1-3.66h1.68v5.37h-1V95.1l-1.1,4.22H37.33l-1.1-4.22v4.22Z" style="fill:#fff"/><path d="M40.38,99.33V94h1.67l1,3.66,1-3.66h1.68v5.37h-1V95.1l-1.1,4.22H42.51l-1.1-4.22v4.22Z" style="fill:#fff"/><path d="M50.52,99.33H49.31l-.48-1.22H46.61l-.46,1.22H45L47.12,94H48.3ZM48.46,97.2l-.76-2-.75,2Z" style="fill:#fff"/><path d="M49.79,94H52A6.62,6.62,0,0,1,53,94a1.48,1.48,0,0,1,.58.22,1.4,1.4,0,0,1,.43.45,1.18,1.18,0,0,1,.17.63,1.22,1.22,0,0,1-.21.69,1.29,1.29,0,0,1-.57.47,1.46,1.46,0,0,1,.78.49,1.26,1.26,0,0,1,.27.81,1.56,1.56,0,0,1-.18.71,1.44,1.44,0,0,1-.48.55,1.63,1.63,0,0,1-.75.25q-.28,0-1.35,0H49.79Zm1.12.89v1.24h.73l.81,0a.74.74,0,0,0,.45-.19.56.56,0,0,0,.16-.42.58.58,0,0,0-.14-.4.65.65,0,0,0-.42-.19l-1,0Zm0,2.13v1.43h1a5.34,5.34,0,0,0,.77,0,.7.7,0,0,0,.41-.21.65.65,0,0,0,.16-.46.68.68,0,0,0-.12-.41.67.67,0,0,0-.35-.25,4,4,0,0,0-1-.08Z" style="fill:#fff"/><path d="M54.22,99.33V94h1.12v4.42h2.78v.9Z" style="fill:#fff"/><path d="M57.87,99.33V94H62v.91H59v1.19h2.78V97H59v1.46h3.1v.9Z" style="fill:#fff"/><path d="M61.61,97.58l1.09-.1a1.27,1.27,0,0,0,.4.78,1.23,1.23,0,0,0,.81.25,1.27,1.27,0,0,0,.81-.22.65.65,0,0,0,.27-.52.48.48,0,0,0-.12-.32.93.93,0,0,0-.4-.23l-.9-.23a3.06,3.06,0,0,1-1.26-.53,1.38,1.38,0,0,1-.51-1.08,1.35,1.35,0,0,1,.24-.77,1.5,1.5,0,0,1,.69-.54,2.86,2.86,0,0,1,1.09-.19,2.39,2.39,0,0,1,1.57.44A1.55,1.55,0,0,1,66,95.49l-1.12,0a.91.91,0,0,0-.31-.59,1.15,1.15,0,0,0-.71-.18,1.31,1.31,0,0,0-.76.19.39.39,0,0,0-.18.33.41.41,0,0,0,.17.33,3,3,0,0,0,1,.36,5.53,5.53,0,0,1,1.21.39,1.53,1.53,0,0,1,.61.55,1.64,1.64,0,0,1,0,1.72,1.58,1.58,0,0,1-.75.6,3.22,3.22,0,0,1-1.21.2,2.45,2.45,0,0,1-1.61-.47A2,2,0,0,1,61.61,97.58Z" style="fill:#fff"/></svg>