<svg id="Vector_version" data-name="Vector version" xmlns="http://www.w3.org/2000/svg" viewBox="0 0 192.16 212.25"><defs><style>.cls-1{fill:#353434;}.cls-1,.cls-2,.cls-3{stroke:#000;}.cls-1,.cls-2,.cls-3,.cls-4{stroke-miterlimit:10;}.cls-2{fill:#fcfafa;}.cls-3{fill:#fff;stroke-width:0.5px;}.cls-4{fill:none;stroke:#fff;stroke-width:0.75px;}</style></defs><title>frost_damage_icon</title><rect class="cls-1" x="0.5" y="0.5" width="191.16" height="211.25"/><rect class="cls-2" x="0.5" y="6.72" width="191.16" height="16.26" rx="8.13"/><polygon class="cls-3" points="44.84 97.96 43.52 82.45 40.88 121.25 31.97 49.12 32.63 93.01 26.03 47.14 24.05 85.75 18.44 22.14 49.79 22.14 44.84 97.96"/><line class="cls-4" x1="17.91" y1="22.14" x2="50.32" y2="22.14"/><polygon class="cls-3" points="152.63 62.26 152.21 54.05 151.38 74.58 148.56 36.42 148.77 59.64 146.69 35.37 146.06 55.8 144.29 22.14 154.19 22.14 152.63 62.26"/><line class="cls-4" x1="143.78" y1="22.14" x2="154.91" y2="22.14"/><polygon class="cls-3" points="86.78 162.98 80.5 53.95 79.84 94 74.56 22.14 95.36 22.14 86.78 162.98"/><line class="cls-4" x1="73.91" y1="22.14" x2="96.08" y2="22.14"/><polygon class="cls-3" points="120.57 208.66 116.19 64.26 115.73 117.31 112.03 22.14 126.57 22.14 120.57 208.66"/><line class="cls-4" x1="111.58" y1="22.14" x2="127.08" y2="22.14"/></svg>