<svg id="Layer_1" data-name="Layer 1" xmlns="http://www.w3.org/2000/svg" viewBox="0 0 86.69 86.44"><title>reader_icon</title><path d="M63.46,51.78,65,50.57a3.23,3.23,0,0,1,2.2-.76c3.36,0,6.91,2.93,6.24,8.06" style="fill:none;stroke:#fff"/><path d="M.12,86.28s32.77.21,32.79-.39c0-1.24,0-19.68,0-19.68l-5.25-9.14.45,0s5.53,7.69,7,9.84c1.32,2,2.05,3.11,3.31,5.13s5.32,4.45,8.31,3.36c3.46-1.25,9.93-5,12.34-7.54s7.27-8.5,7.27-8.5a4.94,4.94,0,0,0-.59-2.65C65,55,62,52.38,59,54.68a31.88,31.88,0,0,0-3.5,3.23c-2.16,2.24-4.45,3-6.53,4.27-1.27.76-2.06,1.12-3.64-2.26-1.49-3.19-7.6-14.45-9.29-16.79-1.33-1.84-5.75-8.6-8.36-11.15-1.23-1.2-15-5.09-18-6-2.36-.69-5.33-1.19-7,.17A8.75,8.75,0,0,0,.54,28.43L.12,86.28" style="stroke:#000;stroke-width:0.25px"/><polyline points="86.58 38.52 71.56 61.84 52.62 51.5 66.43 33.01 86.58 38.52" style="stroke:#000;stroke-width:0.25px"/><ellipse cx="21.12" cy="13.98" rx="13.83" ry="13.73" style="stroke:#000;stroke-width:0.5px"/><path d="M68.23,57.77l3.91-5.61a5.73,5.73,0,0,0,.34-1.25,7.28,7.28,0,0,0-.14-2.49,6.53,6.53,0,0,0-5.91-2.51,8.16,8.16,0,0,0-2,1.36l-1.87.17-1.42,4.28.65,0c3,.19,5.48,2.56,6.14,6.41Z" style="fill:none;stroke:#fff"/><polygon points="51.64 50.9 38.5 37.92 54.05 18.52 65.67 32.48 51.64 50.9" style="stroke:#000;stroke-width:0.25px"/><polygon points="36.99 37.69 50.43 50.67 33.07 37.09 48.47 17.61 51.03 20.93 36.99 37.69" style="stroke:#000;stroke-width:0.25px"/><polygon points="42.35 51.65 37.22 43.13 39.18 42.97 46.2 49.01 42.35 51.65" style="stroke:#000;stroke-width:0.25px"/></svg>