<svg id="Layer_1" data-name="Layer 1" xmlns="http://www.w3.org/2000/svg" viewBox="0 0 101.22 86.52"><defs><style>.cls-1,.cls-2,.cls-4,.cls-5,.cls-6{fill:none;}.cls-1,.cls-2,.cls-3,.cls-4,.cls-5,.cls-6{stroke:#000;stroke-linecap:round;stroke-linejoin:round;}.cls-1{stroke-width:0.25px;}.cls-2,.cls-3{stroke-width:0.5px;}.cls-3{fill:#bfbfbf;}.cls-4{stroke-width:1.5px;}.cls-5{stroke-width:0.72px;}.cls-6{stroke-width:0.67px;}</style></defs><title>solar_fluid_boil_icn</title><g id="CIRCLE"><path class="cls-1" d="M20.92,13.06a8.06,8.06,0,1,0-8.05,8.06,8.06,8.06,0,0,0,8.05-8.06Z"/></g><g id="ARC"><path class="cls-2" d="M15.79,5a2.3,2.3,0,0,0,.73-2"/></g><g id="ARC-2" data-name="ARC"><path class="cls-2" d="M17.25,1a2.28,2.28,0,0,0-.73,2"/></g><g id="ARC-3" data-name="ARC"><path class="cls-2" d="M17.25,1a3.12,3.12,0,0,0,.55,2.75"/></g><g id="ARC-4" data-name="ARC"><path class="cls-2" d="M18.36,6.52a3.16,3.16,0,0,0-.56-2.75"/></g><g id="ARC-5" data-name="ARC"><path class="cls-2" d="M18.36,6.52a2.3,2.3,0,0,0,1.37-1.64"/></g><g id="ARC-6" data-name="ARC"><path class="cls-2" d="M21.1,3.25a2.24,2.24,0,0,0-1.37,1.63"/></g><g id="ARC-7" data-name="ARC"><path class="cls-2" d="M21.1,3.25A3.13,3.13,0,0,0,20.68,6"/></g><g id="ARC-8" data-name="ARC"><path class="cls-2" d="M20.26,8.79A3.14,3.14,0,0,0,20.68,6"/></g><g id="ARC-9" data-name="ARC"><path class="cls-2" d="M20.26,8.79a2.28,2.28,0,0,0,1.85-1.07"/></g><g id="ARC-10" data-name="ARC"><path class="cls-2" d="M24,6.66a2.25,2.25,0,0,0-1.85,1.06"/></g><g id="ARC-11" data-name="ARC"><path class="cls-2" d="M24,6.66a3.1,3.1,0,0,0-1.34,2.46"/></g><g id="ARC-12" data-name="ARC"><path class="cls-2" d="M21.28,11.58a3.16,3.16,0,0,0,1.34-2.46"/></g><g id="ARC-13" data-name="ARC"><path class="cls-2" d="M21.28,11.58a2.3,2.3,0,0,0,2.1-.37"/></g><g id="ARC-14" data-name="ARC"><path class="cls-2" d="M25.48,10.84a2.24,2.24,0,0,0-2.1.37"/></g><g id="ARC-15" data-name="ARC"><path class="cls-2" d="M25.48,10.84a3.11,3.11,0,0,0-2.1,1.85"/></g><g id="ARC-16" data-name="ARC"><path class="cls-2" d="M21.28,14.54a3.14,3.14,0,0,0,2.1-1.85"/></g><g id="ARC-17" data-name="ARC"><path class="cls-2" d="M21.28,14.54a2.24,2.24,0,0,0,2.1.37"/></g><g id="ARC-18" data-name="ARC"><path class="cls-2" d="M25.48,15.28a2.29,2.29,0,0,0-2.1-.37"/></g><g id="ARC-19" data-name="ARC"><path class="cls-2" d="M25.48,15.28a3.12,3.12,0,0,0-2.61,1"/></g><g id="ARC-20" data-name="ARC"><path class="cls-2" d="M20.26,17.33a3.14,3.14,0,0,0,2.61-1"/></g><g id="ARC-21" data-name="ARC"><path class="cls-2" d="M20.26,17.33a2.28,2.28,0,0,0,1.85,1.07"/></g><g id="ARC-22" data-name="ARC"><path class="cls-2" d="M24,19.46a2.25,2.25,0,0,0-1.85-1.06"/></g><g id="ARC-23" data-name="ARC"><path class="cls-2" d="M24,19.46a3.14,3.14,0,0,0-2.8.07"/></g><g id="ARC-24" data-name="ARC"><path class="cls-2" d="M18.36,19.6a3.1,3.1,0,0,0,2.8-.07"/></g><g id="ARC-25" data-name="ARC"><path class="cls-2" d="M18.36,19.6a2.28,2.28,0,0,0,1.37,1.64"/></g><g id="ARC-26" data-name="ARC"><path class="cls-2" d="M21.1,22.87a2.26,2.26,0,0,0-1.37-1.63"/></g><g id="ARC-27" data-name="ARC"><path class="cls-2" d="M21.1,22.87A3.13,3.13,0,0,0,18.44,22"/></g><g id="ARC-28" data-name="ARC"><path class="cls-2" d="M15.79,21.08a3.11,3.11,0,0,0,2.65.9"/></g><g id="ARC-29" data-name="ARC"><path class="cls-2" d="M15.79,21.08a2.25,2.25,0,0,0,.73,2"/></g><g id="ARC-30" data-name="ARC"><path class="cls-2" d="M17.25,25.1a2.3,2.3,0,0,0-.73-2"/></g><g id="ARC-31" data-name="ARC"><path class="cls-2" d="M12.87,21.6a3.11,3.11,0,0,0,2.19,1.75"/></g><g id="ARC-32" data-name="ARC"><path class="cls-2" d="M12.87,21.6a2.24,2.24,0,0,0,0,2.13"/></g><g id="ARC-33" data-name="ARC"><path class="cls-2" d="M12.87,25.87a2.31,2.31,0,0,0,0-2.14"/></g><g id="ARC-34" data-name="ARC"><path class="cls-2" d="M12.87,25.87a3.16,3.16,0,0,0-1.46-2.39"/></g><g id="ARC-35" data-name="ARC"><path class="cls-2" d="M9.94,21.08a3.17,3.17,0,0,0,1.47,2.4"/></g><g id="ARC-36" data-name="ARC"><path class="cls-2" d="M9.94,21.08a2.3,2.3,0,0,0-.73,2"/></g><g id="ARC-37" data-name="ARC"><path class="cls-2" d="M8.49,25.1a2.27,2.27,0,0,0,.72-2"/></g><g id="ARC-38" data-name="ARC"><path class="cls-2" d="M8.49,25.1a3.15,3.15,0,0,0-.56-2.75"/></g><g id="ARC-39" data-name="ARC"><path class="cls-2" d="M7.38,19.6a3.12,3.12,0,0,0,.55,2.75"/></g><g id="ARC-40" data-name="ARC"><path class="cls-2" d="M7.38,19.6A2.31,2.31,0,0,0,6,21.24"/></g><g id="ARC-41" data-name="ARC"><path class="cls-2" d="M4.63,22.87A2.24,2.24,0,0,0,6,21.24"/></g><g id="ARC-42" data-name="ARC"><path class="cls-2" d="M4.63,22.87a3.1,3.1,0,0,0,.42-2.77"/></g><g id="ARC-43" data-name="ARC"><path class="cls-2" d="M5.47,17.33a3.14,3.14,0,0,0-.42,2.77"/></g><g id="ARC-44" data-name="ARC"><path class="cls-2" d="M5.47,17.33A2.28,2.28,0,0,0,3.62,18.4"/></g><g id="ARC-45" data-name="ARC"><path class="cls-2" d="M1.77,19.46A2.25,2.25,0,0,0,3.62,18.4"/></g><g id="ARC-46" data-name="ARC"><path class="cls-2" d="M1.77,19.46A3.1,3.1,0,0,0,3.11,17"/></g><g id="ARC-47" data-name="ARC"><path class="cls-2" d="M4.46,14.54A3.17,3.17,0,0,0,3.11,17"/></g><g id="ARC-48" data-name="ARC"><path class="cls-2" d="M4.46,14.54a2.32,2.32,0,0,0-2.11.37"/></g><g id="ARC-49" data-name="ARC"><path class="cls-2" d="M.25,15.28a2.24,2.24,0,0,0,2.1-.37"/></g><g id="ARC-50" data-name="ARC"><path class="cls-2" d="M.25,15.28a3.11,3.11,0,0,0,2.1-1.85"/></g><g id="ARC-51" data-name="ARC"><path class="cls-2" d="M4.46,11.58a3.13,3.13,0,0,0-2.11,1.85"/></g><g id="ARC-52" data-name="ARC"><path class="cls-2" d="M4.46,11.58a2.26,2.26,0,0,0-2.11-.37"/></g><g id="ARC-53" data-name="ARC"><path class="cls-2" d="M.25,10.84a2.3,2.3,0,0,0,2.1.37"/></g><g id="ARC-54" data-name="ARC"><path class="cls-2" d="M.25,10.84a3.15,3.15,0,0,0,2.61-1"/></g><g id="ARC-55" data-name="ARC"><path class="cls-2" d="M5.47,8.79a3.14,3.14,0,0,0-2.61,1"/></g><g id="ARC-56" data-name="ARC"><path class="cls-2" d="M5.47,8.79A2.28,2.28,0,0,0,3.62,7.72"/></g><g id="ARC-57" data-name="ARC"><path class="cls-2" d="M1.77,6.66A2.26,2.26,0,0,0,3.62,7.72"/></g><g id="ARC-58" data-name="ARC"><path class="cls-2" d="M1.77,6.66a3.14,3.14,0,0,0,2.8-.07"/></g><g id="ARC-59" data-name="ARC"><path class="cls-2" d="M7.38,6.52a3.13,3.13,0,0,0-2.81.07"/></g><g id="ARC-60" data-name="ARC"><path class="cls-2" d="M7.38,6.52A2.29,2.29,0,0,0,6,4.88"/></g><g id="ARC-61" data-name="ARC"><path class="cls-2" d="M4.63,3.25A2.26,2.26,0,0,0,6,4.88"/></g><g id="ARC-62" data-name="ARC"><path class="cls-2" d="M4.63,3.25a3.13,3.13,0,0,0,2.66.89"/></g><g id="ARC-63" data-name="ARC"><path class="cls-2" d="M9.94,5a3.08,3.08,0,0,0-2.65-.9"/></g><g id="ARC-64" data-name="ARC"><path class="cls-2" d="M9.94,5a2.25,2.25,0,0,0-.73-2"/></g><g id="ARC-65" data-name="ARC"><path class="cls-2" d="M8.49,1a2.27,2.27,0,0,0,.72,2"/></g><g id="ARC-66" data-name="ARC"><path class="cls-2" d="M12.87,4.52a2.29,2.29,0,0,0,0-2.13"/></g><g id="ARC-67" data-name="ARC"><path class="cls-2" d="M8.49,1a3.09,3.09,0,0,0,2.18,1.75"/></g><g id="ARC-68" data-name="ARC"><path class="cls-2" d="M12.87,4.52a3.15,3.15,0,0,0-2.2-1.75"/></g><g id="ARC-69" data-name="ARC"><path class="cls-2" d="M17.25,25.1a3.13,3.13,0,0,0-2.19-1.75"/></g><g id="ARC-70" data-name="ARC"><path class="cls-2" d="M12.87.25a3.11,3.11,0,0,0,1.46,2.39"/></g><g id="ARC-71" data-name="ARC"><path class="cls-2" d="M12.87.25a2.26,2.26,0,0,0,0,2.14"/></g><g id="ARC-72" data-name="ARC"><path class="cls-2" d="M15.79,5a3.18,3.18,0,0,0-1.46-2.4"/></g><rect class="cls-2" x="8.1" y="32.77" width="3.7" height="47.12"/><path class="cls-3" d="M11.79,75.54V39.86H8.1V75.54a4.73,4.73,0,1,0,3.69,0Z"/><line class="cls-2" x1="11.79" y1="70.46" x2="9.95" y2="70.46"/><line class="cls-2" x1="11.79" y1="66.42" x2="9.95" y2="66.42"/><line class="cls-2" x1="11.79" y1="62.38" x2="9.95" y2="62.38"/><line class="cls-2" x1="11.79" y1="58.33" x2="9.95" y2="58.33"/><line class="cls-2" x1="11.79" y1="54.29" x2="9.95" y2="54.29"/><line class="cls-2" x1="11.79" y1="54.29" x2="9.95" y2="54.29"/><line class="cls-2" x1="11.79" y1="50.25" x2="9.95" y2="50.25"/><line class="cls-2" x1="11.79" y1="46.21" x2="9.95" y2="46.21"/><line class="cls-2" x1="11.79" y1="42.17" x2="9.95" y2="42.17"/><line class="cls-2" x1="11.79" y1="38.13" x2="9.95" y2="38.13"/><line class="cls-2" x1="9.95" y1="28.91" x2="9.95" y2="30.37"/><path class="cls-2" d="M8.92,30.55"/><path class="cls-2" d="M8.42,29.17"/><path class="cls-2" d="M7.36,31.87"/><path class="cls-2" d="M6.09,31.13"/><path class="cls-2" d="M7,33.88"/><path class="cls-2" d="M5.56,34.13"/><path class="cls-2" d="M12.89,33.88"/><path class="cls-2" d="M14.33,34.13"/><path class="cls-2" d="M12.53,31.87"/><path class="cls-2" d="M13.8,31.13"/><line class="cls-4" x1="9.95" y1="27.14" x2="9.95" y2="29.93"/><line class="cls-4" x1="4.52" y1="29.12" x2="6.31" y2="31.25"/><line class="cls-4" x1="1.63" y1="34.12" x2="4.37" y2="34.61"/><line class="cls-4" x1="18.26" y1="34.12" x2="15.52" y2="34.61"/><line class="cls-4" x1="15.38" y1="29.12" x2="13.59" y2="31.25"/><path class="cls-2" d="M11,30.55"/><path class="cls-2" d="M11.47,29.18"/><polygon class="cls-5" points="44.94 73.13 18.34 60.11 17.91 57.37 47.43 18.2 73.61 28.49 74.04 31.23 44.94 73.13"/><polygon class="cls-5" points="44.51 70.39 17.91 57.37 47 15.46 73.61 28.49 44.51 70.39"/><polygon class="cls-6" points="44.23 68.35 19.89 56.6 47.43 16.93 71.77 28.68 44.23 68.35"/><line class="cls-5" x1="44.51" y1="70.39" x2="44.94" y2="73.13"/><polygon class="cls-5" points="71.77 86.16 45.16 73.13 44.73 70.39 74.26 31.22 100.43 41.51 100.86 44.25 71.77 86.16"/><polygon class="cls-5" points="71.33 83.42 44.73 70.39 73.83 28.48 100.43 41.51 71.33 83.42"/><polygon class="cls-6" points="71.05 81.37 46.71 69.63 74.25 29.95 98.6 41.7 71.05 81.37"/><line class="cls-5" x1="71.33" y1="83.42" x2="71.77" y2="86.16"/></svg>