<svg xmlns="http://www.w3.org/2000/svg" xmlns:xlink="http://www.w3.org/1999/xlink" width="3.28in" height="2.02in" viewBox="0 0 235.99 145.66">
  <defs>
    <style>
      .cls-1, .cls-10, .cls-11, .cls-12, .cls-13, .cls-14, .cls-15, .cls-16, .cls-17, .cls-18, .cls-19, .cls-2, .cls-20, .cls-21, .cls-3, .cls-4, .cls-5, .cls-6, .cls-8, .cls-9 {
        stroke: #000;
      }

      .cls-1, .cls-10, .cls-11, .cls-12, .cls-13, .cls-14, .cls-15, .cls-16, .cls-17, .cls-2, .cls-3, .cls-4, .cls-5, .cls-6, .cls-9 {
        stroke-linecap: round;
      }

      .cls-1, .cls-10, .cls-11, .cls-12, .cls-13, .cls-14, .cls-15, .cls-16, .cls-17, .cls-2, .cls-3, .cls-4, .cls-5, .cls-6, .cls-8, .cls-9 {
        stroke-linejoin: round;
      }

      .cls-1, .cls-2, .cls-21, .cls-4, .cls-5, .cls-6, .cls-9 {
        stroke-width: 0.75px;
      }

      .cls-1 {
        fill: url(#linear-gradient);
      }

      .cls-2 {
        fill: url(#linear-gradient-2);
      }

      .cls-11, .cls-19, .cls-20, .cls-21, .cls-3, .cls-8, .cls-9 {
        fill: none;
      }

      .cls-3 {
        stroke-width: 0.59px;
      }

      .cls-4 {
        fill: url(#linear-gradient-3);
      }

      .cls-5 {
        fill: url(#linear-gradient-4);
      }

      .cls-6 {
        fill: url(#linear-gradient-5);
      }

      .cls-10, .cls-18, .cls-7 {
        fill: #fff;
      }

      .cls-18, .cls-19, .cls-8 {
        stroke-width: 0.5px;
      }

      .cls-10 {
        stroke-width: 0.54px;
      }

      .cls-11 {
        stroke-width: 0.76px;
      }

      .cls-12, .cls-13, .cls-14, .cls-16, .cls-17 {
        stroke-width: 0.83px;
      }

      .cls-12 {
        fill: url(#linear-gradient-6);
      }

      .cls-13 {
        fill: url(#linear-gradient-7);
      }

      .cls-14 {
        fill: url(#linear-gradient-8);
      }

      .cls-15 {
        stroke-width: 0.55px;
        fill: url(#linear-gradient-9);
      }

      .cls-16 {
        fill: url(#linear-gradient-10);
      }

      .cls-17 {
        fill: url(#linear-gradient-11);
      }
    </style>
    <linearGradient id="linear-gradient" x1="129.48" y1="86.48" x2="129.48" y2="109.86" gradientTransform="matrix(1, 0, 0, -1, 0, 169.66)" gradientUnits="userSpaceOnUse">
      <stop offset="0.12" stop-color="#ccc"/>
      <stop offset="0.27" stop-color="#e7e7e7"/>
      <stop offset="0.4" stop-color="#f9f9f9"/>
      <stop offset="0.5" stop-color="#fff"/>
      <stop offset="0.6" stop-color="#f9f9f9"/>
      <stop offset="0.74" stop-color="#e8e8e8"/>
      <stop offset="0.89" stop-color="#ccc"/>
    </linearGradient>
    <linearGradient id="linear-gradient-2" x1="190.99" y1="78.25" x2="190.99" y2="119.14" xlink:href="#linear-gradient"/>
    <linearGradient id="linear-gradient-3" x1="189.08" y1="91.68" x2="189.08" y2="107.71" xlink:href="#linear-gradient"/>
    <linearGradient id="linear-gradient-4" x1="180.09" y1="91.68" x2="180.09" y2="107.71" xlink:href="#linear-gradient"/>
    <linearGradient id="linear-gradient-5" x1="209.02" y1="90.97" x2="208.95" y2="106.36" xlink:href="#linear-gradient"/>
    <linearGradient id="linear-gradient-6" x1="-26.32" y1="416.15" x2="-26.32" y2="439.25" gradientTransform="translate(112.21 -356.65)" xlink:href="#linear-gradient"/>
    <linearGradient id="linear-gradient-7" x1="-26.35" y1="415.65" x2="-26.35" y2="439.75" gradientTransform="translate(112.21 -356.65)" gradientUnits="userSpaceOnUse">
      <stop offset="0.12" stop-color="#999"/>
      <stop offset="0.2" stop-color="#b1b1b1"/>
      <stop offset="0.32" stop-color="#cecece"/>
      <stop offset="0.42" stop-color="#e0e0e0"/>
      <stop offset="0.5" stop-color="#e6e6e6"/>
      <stop offset="0.58" stop-color="#e0e0e0"/>
      <stop offset="0.68" stop-color="#cfcfcf"/>
      <stop offset="0.8" stop-color="#b3b3b3"/>
      <stop offset="0.89" stop-color="#999"/>
    </linearGradient>
    <linearGradient id="linear-gradient-8" x1="-24.31" y1="405.99" x2="-34.38" y2="416.01" gradientTransform="translate(112.21 -356.65)" xlink:href="#linear-gradient"/>
    <linearGradient id="linear-gradient-9" x1="-34.34" y1="415.67" x2="-34.34" y2="439.78" xlink:href="#linear-gradient-7"/>
    <linearGradient id="linear-gradient-10" x1="-42.98" y1="415.76" x2="-42.98" y2="439.32" xlink:href="#linear-gradient-7"/>
    <linearGradient id="linear-gradient-11" x1="-37.36" y1="415.64" x2="-37.36" y2="439.75" xlink:href="#linear-gradient-7"/>
  </defs>
  <title>cncntrc_trmntn_sde_wll_instlltn</title>
  <g id="new_termination" data-name="new termination">
    <g>
      <g>
        <rect class="cls-1" x="75.38" y="59.55" width="108.21" height="23.5"/>
        <g>
          <g>
            <path class="cls-2" d="M176.69,65.78l0-.88a1.63,1.63,0,0,1,1.11-1.54l5.65-2.08V58.64H176.7l0-1.91a1.7,1.7,0,0,1,.69-1.31l6.07-4.74h5.6l16.21,12.67h0V78.67h0L189.08,91.35h-5.6l-6.07-4.74a1.71,1.71,0,0,1-.69-1.31l0-1.91h6.78v-3l-5.65-2a1.63,1.63,0,0,1-1.11-1.54l0-.83V74.13h6.79V67.6H176.7Z"/>
            <path class="cls-3" d="M176.7,75.3a1.59,1.59,0,0,0,1.2,1.53l5.55,2"/>
            <path class="cls-3" d="M176.71,66.94a1.59,1.59,0,0,1,1.2-1.52l5.55-2"/>
            <path class="cls-4" d="M189.08,91.3V50.63"/>
            <path class="cls-5" d="M176.7,75v.93m6.77,15.37v-8m0-3V61.2m0-2.61v-8"/>
          </g>
          <rect class="cls-6" x="205.3" y="63.35" width="7.37" height="15.32"/>
        </g>
        <g>
          <path class="cls-7" d="M141.95,53.58v36.7h6.6V53.58Zm4.44,34.89a1.59,1.59,0,1,1-.25-2.24A1.59,1.59,0,0,1,146.39,88.47Zm-1.24-6.6a1.59,1.59,0,1,1,1.59-1.59A1.59,1.59,0,0,1,145.15,81.87Zm0-5.6a1.59,1.59,0,1,1,1.59-1.59A1.59,1.59,0,0,1,145.15,76.27Zm0-5.6a1.59,1.59,0,1,1,1.59-1.59A1.59,1.59,0,0,1,145.15,70.67Zm0-5.6a1.59,1.59,0,1,1,1.59-1.59A1.59,1.59,0,0,1,145.15,65.07Zm0-6.6a1.59,1.59,0,1,1,1.59-1.59A1.59,1.59,0,0,1,145.15,58.47Z"/>
          <path class="cls-8" d="M141.95,53.58v36.7h6.6V53.58Zm4.44,34.89a1.59,1.59,0,1,1-.25-2.24A1.59,1.59,0,0,1,146.39,88.47Zm-1.24-6.6a1.59,1.59,0,1,1,1.59-1.59A1.59,1.59,0,0,1,145.15,81.87Zm0-5.6a1.59,1.59,0,1,1,1.59-1.59A1.59,1.59,0,0,1,145.15,76.27Zm0-5.6a1.59,1.59,0,1,1,1.59-1.59A1.59,1.59,0,0,1,145.15,70.67Zm0-5.6a1.59,1.59,0,1,1,1.59-1.59A1.59,1.59,0,0,1,145.15,65.07Zm0-6.6a1.59,1.59,0,1,1,1.59-1.59A1.59,1.59,0,0,1,145.15,58.47Z"/>
        </g>
      </g>
      <g>
        <g>
          <ellipse class="cls-9" cx="25.04" cy="68.78" rx="0.91" ry="2.58"/>
          <path class="cls-9" d="M24.14,68.78c0-1.42.41-2.62.91-2.62H53.71V76.48L25,76.51c-.5,0-.91-1.15-.91-2.58s.41-2.58.91-2.58C24.54,71.35,24.14,70.2,24.14,68.78Z"/>
        </g>
        <g>
          <ellipse class="cls-9" cx="25.04" cy="31.73" rx="0.91" ry="2.58"/>
          <path class="cls-9" d="M24.14,31.73c0-1.42.41-2.62.91-2.62H49.61V39.44L25,39.46c-.5,0-.91-1.15-.91-2.58s.41-2.58.91-2.58C24.54,34.3,24.14,33.15,24.14,31.73Z"/>
        </g>
      </g>
      <g>
        <g>
          <g>
            <path class="cls-10" d="M49.45,40.76l1.23-1.2,7.58,0a7.06,7.06,0,0,1,5.11,2.16l5.25,5.32,7.61-7.54-5.46-5.29A17.58,17.58,0,0,0,58.25,29l-7.57,0-1.23-1.2Z"/>
            <path class="cls-11" d="M49.45,40.76l1.23-1.2,7.58,0a7.06,7.06,0,0,1,5.11,2.16l5.25,5.32,7.61-7.54-5.46-5.29A17.58,17.58,0,0,0,58.25,29l-7.57,0-1.23-1.2Z"/>
          </g>
          <line class="cls-10" x1="50.67" y1="39.57" x2="50.67" y2="29.04"/>
        </g>
        <rect class="cls-10" x="43.15" y="27.83" width="6.31" height="12.94"/>
      </g>
      <polygon class="cls-12" points="98.29 59.74 107.92 59.74 109.4 58.26 118.56 58.26 118.56 84.25 109.4 84.25 107.92 82.78 74.84 82.78 69.23 78.64 62.31 78.6 62.32 79.56 53.22 79.56 53.22 62.95 62.32 62.95 62.31 63.91 69.23 63.87 74.84 59.74 78.93 59.75 98.29 59.74"/>
      <path class="cls-13" d="M109.4,58.26v26m-1.48-24.51v23M62.32,62.95V79.56"/>
      <path class="cls-14" d="M73.51,54.72l5.41,5h0c8.16,2.51,6,2,13.77,2.1,5.15.08,4.72-1.48,5.59-2.11L83.41,44.83V43.64L78,38.25,66.94,49.33l5.39,5.39Z"/>
      <path class="cls-15" d="M83.41,43.66,72.33,54.74m11.08-9.9-9.89,9.9"/>
      <line class="cls-16" x1="69.23" y1="63.87" x2="69.23" y2="78.44"/>
      <line class="cls-17" x1="74.84" y1="59.74" x2="74.84" y2="82.6"/>
    </g>
    <g>
      <rect class="cls-18" x="148.7" y="0.25" width="23.51" height="139.32"/>
      <line class="cls-19" x1="148.63" y1="138.61" x2="172.16" y2="138.61"/>
      <line class="cls-19" x1="148.63" y1="136.82" x2="172.16" y2="136.82"/>
      <line class="cls-19" x1="148.63" y1="135.04" x2="172.16" y2="135.04"/>
      <line class="cls-19" x1="148.63" y1="133.26" x2="172.16" y2="133.26"/>
      <line class="cls-19" x1="148.63" y1="131.47" x2="172.16" y2="131.47"/>
      <line class="cls-19" x1="148.63" y1="129.69" x2="172.16" y2="129.69"/>
      <line class="cls-19" x1="148.63" y1="127.9" x2="172.16" y2="127.9"/>
      <line class="cls-19" x1="148.63" y1="126.12" x2="172.16" y2="126.12"/>
      <line class="cls-19" x1="148.63" y1="124.34" x2="172.16" y2="124.34"/>
      <line class="cls-19" x1="148.63" y1="122.55" x2="172.16" y2="122.55"/>
      <line class="cls-19" x1="148.63" y1="120.77" x2="172.16" y2="120.77"/>
      <line class="cls-19" x1="148.63" y1="118.98" x2="172.16" y2="118.98"/>
      <line class="cls-19" x1="148.63" y1="117.2" x2="172.16" y2="117.2"/>
      <line class="cls-19" x1="148.63" y1="115.42" x2="172.16" y2="115.42"/>
      <line class="cls-19" x1="148.63" y1="113.63" x2="172.16" y2="113.63"/>
      <line class="cls-19" x1="148.63" y1="111.85" x2="172.16" y2="111.85"/>
      <line class="cls-19" x1="148.63" y1="110.06" x2="172.16" y2="110.06"/>
      <line class="cls-19" x1="148.63" y1="108.28" x2="172.16" y2="108.28"/>
      <line class="cls-19" x1="148.63" y1="106.5" x2="172.16" y2="106.5"/>
      <line class="cls-19" x1="148.63" y1="104.71" x2="172.16" y2="104.71"/>
      <line class="cls-19" x1="148.63" y1="102.93" x2="172.16" y2="102.93"/>
      <line class="cls-19" x1="148.63" y1="101.14" x2="172.16" y2="101.14"/>
      <line class="cls-19" x1="148.63" y1="99.36" x2="172.16" y2="99.36"/>
      <line class="cls-19" x1="148.63" y1="97.58" x2="172.16" y2="97.58"/>
      <line class="cls-19" x1="148.63" y1="95.79" x2="172.16" y2="95.79"/>
      <line class="cls-19" x1="148.63" y1="94.01" x2="172.16" y2="94.01"/>
      <line class="cls-19" x1="148.63" y1="92.22" x2="172.16" y2="92.22"/>
      <line class="cls-19" x1="148.63" y1="90.44" x2="172.16" y2="90.44"/>
      <line class="cls-19" x1="148.63" y1="88.66" x2="172.16" y2="88.66"/>
      <line class="cls-19" x1="148.63" y1="86.87" x2="172.16" y2="86.87"/>
      <line class="cls-19" x1="148.63" y1="85.09" x2="172.16" y2="85.09"/>
      <line class="cls-19" x1="148.63" y1="83.3" x2="172.16" y2="83.3"/>
      <line class="cls-19" x1="148.63" y1="81.52" x2="172.16" y2="81.52"/>
      <line class="cls-19" x1="148.63" y1="79.74" x2="172.16" y2="79.74"/>
      <line class="cls-19" x1="148.63" y1="77.95" x2="172.16" y2="77.95"/>
      <line class="cls-19" x1="148.63" y1="76.17" x2="172.16" y2="76.17"/>
      <line class="cls-19" x1="148.63" y1="74.38" x2="172.16" y2="74.38"/>
      <line class="cls-19" x1="148.63" y1="72.6" x2="172.16" y2="72.6"/>
      <line class="cls-19" x1="148.63" y1="70.82" x2="172.16" y2="70.82"/>
      <line class="cls-19" x1="148.63" y1="69.03" x2="172.16" y2="69.03"/>
      <line class="cls-19" x1="148.63" y1="67.25" x2="172.16" y2="67.25"/>
      <line class="cls-19" x1="148.63" y1="65.46" x2="172.16" y2="65.46"/>
      <line class="cls-19" x1="148.63" y1="63.68" x2="172.16" y2="63.68"/>
      <line class="cls-19" x1="148.63" y1="61.9" x2="172.16" y2="61.9"/>
      <line class="cls-19" x1="148.63" y1="60.11" x2="172.16" y2="60.11"/>
      <line class="cls-19" x1="148.63" y1="58.33" x2="172.16" y2="58.33"/>
      <line class="cls-19" x1="148.63" y1="56.54" x2="172.16" y2="56.54"/>
      <line class="cls-19" x1="148.63" y1="54.76" x2="172.16" y2="54.76"/>
      <line class="cls-19" x1="148.63" y1="52.98" x2="172.16" y2="52.98"/>
      <line class="cls-19" x1="148.63" y1="51.19" x2="172.16" y2="51.19"/>
      <line class="cls-19" x1="148.63" y1="49.41" x2="172.16" y2="49.41"/>
      <line class="cls-19" x1="148.63" y1="47.62" x2="172.16" y2="47.62"/>
      <line class="cls-19" x1="148.63" y1="45.84" x2="172.16" y2="45.84"/>
      <line class="cls-19" x1="148.63" y1="44.06" x2="172.16" y2="44.06"/>
      <line class="cls-19" x1="148.63" y1="42.27" x2="172.16" y2="42.27"/>
      <line class="cls-19" x1="148.63" y1="40.49" x2="172.16" y2="40.49"/>
      <line class="cls-19" x1="148.63" y1="38.71" x2="172.16" y2="38.71"/>
      <line class="cls-19" x1="148.63" y1="36.92" x2="172.16" y2="36.92"/>
      <line class="cls-19" x1="148.63" y1="35.14" x2="172.16" y2="35.14"/>
      <line class="cls-19" x1="148.63" y1="33.35" x2="172.16" y2="33.35"/>
      <line class="cls-19" x1="148.63" y1="31.57" x2="172.16" y2="31.57"/>
      <line class="cls-19" x1="148.63" y1="29.79" x2="172.16" y2="29.79"/>
      <line class="cls-19" x1="148.63" y1="28" x2="172.16" y2="28"/>
      <line class="cls-19" x1="148.63" y1="26.22" x2="172.16" y2="26.22"/>
      <line class="cls-19" x1="148.63" y1="24.43" x2="172.16" y2="24.43"/>
      <line class="cls-19" x1="148.63" y1="22.65" x2="172.16" y2="22.65"/>
      <line class="cls-19" x1="148.63" y1="20.87" x2="172.16" y2="20.87"/>
      <line class="cls-19" x1="148.63" y1="19.08" x2="172.16" y2="19.08"/>
      <line class="cls-19" x1="148.63" y1="17.3" x2="172.16" y2="17.3"/>
      <line class="cls-19" x1="148.63" y1="15.51" x2="172.16" y2="15.51"/>
      <line class="cls-19" x1="148.63" y1="13.73" x2="172.16" y2="13.73"/>
      <line class="cls-19" x1="148.63" y1="11.95" x2="172.16" y2="11.95"/>
      <line class="cls-19" x1="148.63" y1="10.16" x2="172.16" y2="10.16"/>
      <line class="cls-19" x1="148.63" y1="8.38" x2="172.16" y2="8.38"/>
      <line class="cls-19" x1="148.63" y1="6.59" x2="172.16" y2="6.59"/>
      <line class="cls-19" x1="148.63" y1="4.81" x2="172.16" y2="4.81"/>
      <line class="cls-19" x1="148.63" y1="3.03" x2="172.16" y2="3.03"/>
      <line class="cls-19" x1="148.63" y1="1.24" x2="172.16" y2="1.24"/>
    </g>
  </g>
  <g id="text">
    <g>
      <path d="M1.57,11.95v-5h.66v5Z"/>
      <path d="M3.4,11.95v-5h.68l2.63,3.93V6.93h.64v5H6.67L4,8v3.94Z"/>
      <path d="M9.73,11.95V7.53H8.08V6.93h4v.59H10.4v4.42Z"/>
      <path d="M11.67,11.95l1.92-5h.71l2.05,5H15.6L15,10.43h-2.1l-.55,1.52Zm1.45-2.06h1.7L14.29,8.5q-.24-.63-.36-1a6.4,6.4,0,0,1-.27,1Z"/>
      <path d="M16.86,11.95v-5h.66V9.42L20,6.93h.9l-2.1,2,2.19,3h-.87L18.34,9.41l-.82.8v1.74Z"/>
      <path d="M21.57,11.95v-5h3.62v.59h-3V9.06H25v.59H22.23v1.71h3.08v.59Z"/>
      <path d="M27.23,11.95l1.92-5h.71l2.05,5h-.76l-.58-1.52h-2.1l-.55,1.52Zm1.45-2.06h1.7L29.85,8.5q-.24-.63-.36-1a6.4,6.4,0,0,1-.27,1Z"/>
      <path d="M32.56,11.95v-5h.66v5Z"/>
      <path d="M34.41,11.95v-5h2.22a3,3,0,0,1,1,.13,1.11,1.11,0,0,1,.56.48,1.42,1.42,0,0,1,.21.75,1.26,1.26,0,0,1-.35.9A1.75,1.75,0,0,1,37,9.67a1.72,1.72,0,0,1,.4.25,3.42,3.42,0,0,1,.55.67l.87,1.36H38l-.66-1q-.29-.45-.48-.69a1.53,1.53,0,0,0-.34-.34,1,1,0,0,0-.3-.13,2,2,0,0,0-.37,0h-.77v2.22Zm.66-2.8h1.43a2.14,2.14,0,0,0,.71-.09.76.76,0,0,0,.39-.3.81.81,0,0,0,.13-.45.75.75,0,0,0-.26-.58,1.21,1.21,0,0,0-.81-.23H35.07Z"/>
      <path d="M41.4,11.95v-5h1.89A4.53,4.53,0,0,1,44,7a1.51,1.51,0,0,1,.62.23,1.23,1.23,0,0,1,.4.48,1.63,1.63,0,0,1-.25,1.77,2,2,0,0,1-1.47.44H42.06v2Zm.66-2.63h1.3a1.38,1.38,0,0,0,.91-.24.85.85,0,0,0,.27-.67.91.91,0,0,0-.16-.54.74.74,0,0,0-.42-.3,2.85,2.85,0,0,0-.62,0H42.06Z"/>
      <path d="M46.18,11.95v-5h.66v5Z"/>
      <path d="M48,11.95v-5H49.9a4.53,4.53,0,0,1,.76,0,1.51,1.51,0,0,1,.62.23,1.23,1.23,0,0,1,.4.48,1.63,1.63,0,0,1-.25,1.77A2,2,0,0,1,50,9.91H48.67v2Zm.66-2.63H50a1.38,1.38,0,0,0,.91-.24.85.85,0,0,0,.27-.67A.91.91,0,0,0,51,7.87a.74.74,0,0,0-.42-.3,2.85,2.85,0,0,0-.62,0H48.67Z"/>
      <path d="M52.69,11.95v-5h3.62v.59h-3V9.06h2.77v.59H53.35v1.71h3.08v.59Z"/>
    </g>
    <g>
      <line class="cls-20" x1="122.25" y1="41.45" x2="135.25" y2="50.45"/>
      <path d="M137.77,50.95c-1.07-1.35-1.7-2.34-2.48-3.53l-2.87,4.15a39.51,39.51,0,0,1,4.18,1.08,29.54,29.54,0,0,1,4.22,1.67A29.75,29.75,0,0,1,137.77,50.95Z"/>
    </g>
    <g>
      <line class="cls-20" x1="19.1" y1="15.2" x2="32.87" y2="23.71"/>
      <path d="M35.41,24.08c-1.14-1.29-1.82-2.25-2.66-3.4L30.1,25a39.62,39.62,0,0,1,4.23.86,29.54,29.54,0,0,1,4.3,1.44A29.66,29.66,0,0,1,35.41,24.08Z"/>
    </g>
    <g>
      <line class="cls-20" x1="21.46" y1="34.28" x2="6.78" y2="34.29"/>
      <path d="M4.42,35.32c1.65.5,2.73,1,4.05,1.49v-5a39.45,39.45,0,0,1-4.05,1.49,29.51,29.51,0,0,1-4.41,1A29.64,29.64,0,0,1,4.42,35.32Z"/>
    </g>
    <g>
      <line class="cls-20" x1="1.97" y1="71.01" x2="15.72" y2="71.01"/>
      <path d="M18.08,70c-1.65-.5-2.73-1-4.05-1.49v5A39.57,39.57,0,0,1,18.08,72a29.56,29.56,0,0,1,4.42-1A29.61,29.61,0,0,1,18.08,70Z"/>
    </g>
    <g>
      <line class="cls-20" x1="215.47" y1="71.08" x2="229.22" y2="71.08"/>
      <path d="M231.58,70.05c-1.65-.5-2.73-1-4.05-1.49v5a39.59,39.59,0,0,1,4.05-1.49,29.56,29.56,0,0,1,4.42-1A29.61,29.61,0,0,1,231.58,70.05Z"/>
    </g>
    <g>
      <path class="cls-20" d="M177.84,46.94c-5-9-.92-22.8,9.38-25.83a23.52,23.52,0,0,1,8.12-.93"/>
      <path d="M179.17,48c-.24-1.1-.32-1.85-.44-2.77l-2.86,1.6A25.83,25.83,0,0,1,178,48.61a19.17,19.17,0,0,1,2,2.18A19.15,19.15,0,0,1,179.17,48Z"/>
    </g>
    <line class="cls-20" x1="176.96" y1="91.69" x2="176.96" y2="104.22"/>
    <g>
      <path class="cls-20" d="M174.37,105.57c.18,9,8.08,17.69,17.22,18"/>
      <path d="M173.68,104.05c-.3,1.08-.59,1.79-.92,2.65l3.28-.07a25.63,25.63,0,0,1-1-2.62,19.14,19.14,0,0,1-.73-2.86A19.23,19.23,0,0,1,173.68,104.05Z"/>
    </g>
    <g>
      <line class="cls-21" x1="190.47" y1="100.01" x2="182.47" y2="100.01"/>
      <path d="M180.7,100.77c1.24.38,2,.72,3,1.12V98.11a29.77,29.77,0,0,1-3,1.12,22.13,22.13,0,0,1-3.31.77A22.23,22.23,0,0,1,180.7,100.77Z"/>
    </g>
    <g>
      <path d="M102.62,28.44l.63-.05a1.38,1.38,0,0,0,.21.62,1.12,1.12,0,0,0,.5.39,1.9,1.9,0,0,0,.77.15,1.84,1.84,0,0,0,.67-.11.93.93,0,0,0,.43-.31.72.72,0,0,0,.14-.43.65.65,0,0,0-.14-.41,1,1,0,0,0-.45-.3,8.91,8.91,0,0,0-.89-.24,4.54,4.54,0,0,1-1-.31A1.36,1.36,0,0,1,103,27a1.14,1.14,0,0,1-.18-.62,1.28,1.28,0,0,1,.22-.71,1.33,1.33,0,0,1,.63-.5,2.39,2.39,0,0,1,.92-.17,2.52,2.52,0,0,1,1,.18,1.42,1.42,0,0,1,.65.53,1.51,1.51,0,0,1,.25.79l-.64,0a1,1,0,0,0-.35-.72,1.35,1.35,0,0,0-.87-.24,1.4,1.4,0,0,0-.88.22.66.66,0,0,0-.27.53.57.57,0,0,0,.19.44,2.64,2.64,0,0,0,1,.36,6.58,6.58,0,0,1,1.11.32,1.52,1.52,0,0,1,.65.51,1.24,1.24,0,0,1,.21.71,1.36,1.36,0,0,1-.23.75,1.51,1.51,0,0,1-.66.55,2.28,2.28,0,0,1-1,.2,2.88,2.88,0,0,1-1.14-.2,1.6,1.6,0,0,1-.72-.6A1.69,1.69,0,0,1,102.62,28.44Z"/>
      <path d="M108.79,30V25.63h-1.65V25h4v.59h-1.66V30Z"/>
      <path d="M111.8,30V25H114a3,3,0,0,1,1,.13,1.12,1.12,0,0,1,.56.48,1.42,1.42,0,0,1,.21.76,1.26,1.26,0,0,1-.35.9,1.75,1.75,0,0,1-1.07.46,1.73,1.73,0,0,1,.4.25,3.45,3.45,0,0,1,.55.67l.87,1.36h-.83l-.66-1q-.29-.45-.48-.69a1.52,1.52,0,0,0-.34-.33,1,1,0,0,0-.3-.13,2,2,0,0,0-.37,0h-.77V30Zm.66-2.8h1.43a2.13,2.13,0,0,0,.71-.09.75.75,0,0,0,.39-.3.81.81,0,0,0,.13-.45.75.75,0,0,0-.26-.58,1.21,1.21,0,0,0-.81-.23h-1.59Z"/>
      <path d="M116.3,30l1.92-5h.71L121,30h-.75l-.58-1.52h-2.09L117,30ZM117.75,28h1.7l-.52-1.39q-.24-.63-.36-1a6.24,6.24,0,0,1-.27,1Z"/>
      <path d="M121.52,30V25h1.89a4.58,4.58,0,0,1,.76,0,1.5,1.5,0,0,1,.62.23,1.22,1.22,0,0,1,.4.48,1.63,1.63,0,0,1-.25,1.77,2,2,0,0,1-1.47.44h-1.29v2Zm.66-2.63h1.29a1.38,1.38,0,0,0,.91-.24.85.85,0,0,0,.27-.67.91.91,0,0,0-.16-.54.74.74,0,0,0-.42-.3,2.83,2.83,0,0,0-.62,0h-1.28Z"/>
      <path d="M92.79,39.92a6.16,6.16,0,0,1-.86-1.5,4.72,4.72,0,0,1-.09-3.34,6.55,6.55,0,0,1,1-1.72h.44q-.41.71-.55,1a5.52,5.52,0,0,0-.33,1,5.71,5.71,0,0,0-.15,1.29,6.17,6.17,0,0,0,1,3.28Z"/>
      <path d="M94.09,38.45V35.29h-.54v-.48h.54v-.39a1.69,1.69,0,0,1,.06-.54.78.78,0,0,1,.31-.39,1.12,1.12,0,0,1,.63-.15,3,3,0,0,1,.57.06l-.09.54a2,2,0,0,0-.36,0,.54.54,0,0,0-.4.12.65.65,0,0,0-.12.45v.33h.71v.48H94.7v3.15Z"/>
      <path d="M95.89,34.14v-.71h.62v.71Zm0,4.3V34.82h.62v3.63Z"/>
      <path d="M99.93,37.28l.64.08a1.55,1.55,0,0,1-.56.86,1.89,1.89,0,0,1-2.3-.18,1.92,1.92,0,0,1-.47-1.38,2,2,0,0,1,.47-1.42,1.6,1.6,0,0,1,1.22-.51,1.55,1.55,0,0,1,1.19.5,2,2,0,0,1,.46,1.39s0,.09,0,.16H97.88a1.4,1.4,0,0,0,.34.92A1,1,0,0,0,99,38a.94.94,0,0,0,.58-.18A1.18,1.18,0,0,0,99.93,37.28Zm-2-1h2a1.23,1.23,0,0,0-.23-.69.94.94,0,0,0-.76-.36,1,1,0,0,0-.71.28A1.12,1.12,0,0,0,97.91,36.28Z"/>
      <path d="M101.33,38.45v-5h.62v5Z"/>
      <path d="M105.25,38.45V38a1.13,1.13,0,0,1-1,.54,1.42,1.42,0,0,1-.8-.24,1.57,1.57,0,0,1-.56-.67,2.3,2.3,0,0,1-.2-1,2.59,2.59,0,0,1,.18-1,1.43,1.43,0,0,1,.54-.68,1.45,1.45,0,0,1,.81-.24,1.21,1.21,0,0,1,1,.5v-1.8h.61v5Zm-1.94-1.81a1.58,1.58,0,0,0,.29,1,.89.89,0,0,0,.69.35.87.87,0,0,0,.69-.33,1.52,1.52,0,0,0,.28-1,1.71,1.71,0,0,0-.29-1.09.88.88,0,0,0-.71-.35.85.85,0,0,0-.69.33A1.65,1.65,0,0,0,103.3,36.63Z"/>
      <path d="M108.49,37.36l.61-.1a.85.85,0,0,0,.29.56A1,1,0,0,0,110,38a1,1,0,0,0,.63-.17.52.52,0,0,0,.21-.4.37.37,0,0,0-.18-.33,2.68,2.68,0,0,0-.63-.21,5.66,5.66,0,0,1-.94-.3.89.89,0,0,1-.53-.83.94.94,0,0,1,.11-.45A1,1,0,0,1,109,35a1.27,1.27,0,0,1,.39-.18,1.87,1.87,0,0,1,.53-.07,2.1,2.1,0,0,1,.75.12,1,1,0,0,1,.48.33,1.3,1.3,0,0,1,.21.56l-.6.08a.66.66,0,0,0-.24-.44.87.87,0,0,0-.56-.16,1,1,0,0,0-.6.14.41.41,0,0,0-.18.33.34.34,0,0,0,.08.22.55.55,0,0,0,.24.16l.54.16a7.63,7.63,0,0,1,.91.29.93.93,0,0,1,.41.32.9.9,0,0,1,.15.53,1,1,0,0,1-.18.58,1.16,1.16,0,0,1-.52.42,1.89,1.89,0,0,1-.77.15,1.71,1.71,0,0,1-1.08-.29A1.37,1.37,0,0,1,108.49,37.36Z"/>
      <path d="M114.61,38.45v-.53a1.33,1.33,0,0,1-1.15.62,1.47,1.47,0,0,1-.6-.12,1,1,0,0,1-.41-.31,1.16,1.16,0,0,1-.19-.46,3.14,3.14,0,0,1,0-.57V34.82h.62v2a3.6,3.6,0,0,0,0,.65.64.64,0,0,0,.25.38.77.77,0,0,0,.46.14,1,1,0,0,0,.52-.14.79.79,0,0,0,.34-.39,2,2,0,0,0,.1-.71V34.82h.62v3.63Z"/>
      <path d="M116.13,39.84v-5h.56v.47a1.38,1.38,0,0,1,.45-.42,1.23,1.23,0,0,1,.6-.14,1.43,1.43,0,0,1,.82.24,1.48,1.48,0,0,1,.54.67,2.48,2.48,0,0,1,.18,1,2.44,2.44,0,0,1-.2,1,1.52,1.52,0,0,1-1.38.92,1.16,1.16,0,0,1-.55-.13,1.25,1.25,0,0,1-.4-.33v1.77Zm.56-3.19a1.58,1.58,0,0,0,.28,1,.87.87,0,0,0,.69.33.89.89,0,0,0,.7-.35,1.64,1.64,0,0,0,.29-1.08,1.6,1.6,0,0,0-.29-1,.86.86,0,0,0-.68-.35.88.88,0,0,0-.69.37A1.64,1.64,0,0,0,116.68,36.65Z"/>
      <path d="M120,39.84v-5h.56v.47a1.38,1.38,0,0,1,.45-.42,1.23,1.23,0,0,1,.6-.14,1.43,1.43,0,0,1,.82.24,1.47,1.47,0,0,1,.54.67,2.46,2.46,0,0,1,.18,1,2.44,2.44,0,0,1-.2,1,1.52,1.52,0,0,1-.58.68,1.49,1.49,0,0,1-.8.24,1.16,1.16,0,0,1-.55-.13,1.26,1.26,0,0,1-.4-.33v1.77Zm.56-3.19a1.58,1.58,0,0,0,.28,1,.87.87,0,0,0,.69.33.89.89,0,0,0,.7-.35,1.64,1.64,0,0,0,.29-1.08,1.6,1.6,0,0,0-.29-1,.86.86,0,0,0-.68-.35.88.88,0,0,0-.7.37A1.64,1.64,0,0,0,120.58,36.65Z"/>
      <path d="M123.9,38.45v-5h.62v5Z"/>
      <path d="M125.47,34.14v-.71h.62v.71Zm0,4.3V34.82h.62v3.63Z"/>
      <path d="M129.51,37.28l.64.08a1.56,1.56,0,0,1-.56.86,1.89,1.89,0,0,1-2.3-.18,1.92,1.92,0,0,1-.47-1.38,2,2,0,0,1,.47-1.42,1.6,1.6,0,0,1,1.22-.51,1.55,1.55,0,0,1,1.19.5,2,2,0,0,1,.46,1.39s0,.09,0,.16h-2.71a1.39,1.39,0,0,0,.34.92,1,1,0,0,0,.76.32.94.94,0,0,0,.58-.18A1.17,1.17,0,0,0,129.51,37.28Zm-2-1h2a1.24,1.24,0,0,0-.23-.69,1,1,0,0,0-.76-.36,1,1,0,0,0-.71.28A1.12,1.12,0,0,0,127.49,36.28Z"/>
      <path d="M133.27,38.45V38a1.13,1.13,0,0,1-1,.54,1.42,1.42,0,0,1-.8-.24,1.57,1.57,0,0,1-.56-.67,2.3,2.3,0,0,1-.2-1,2.6,2.6,0,0,1,.18-1,1.43,1.43,0,0,1,.54-.68,1.45,1.45,0,0,1,.81-.24,1.21,1.21,0,0,1,.58.14,1.22,1.22,0,0,1,.42.36v-1.8h.61v5Zm-1.95-1.81a1.57,1.57,0,0,0,.29,1,.88.88,0,0,0,.69.35.87.87,0,0,0,.69-.33,1.52,1.52,0,0,0,.28-1,1.71,1.71,0,0,0-.29-1.09.88.88,0,0,0-.71-.35.85.85,0,0,0-.69.33A1.65,1.65,0,0,0,131.32,36.63Z"/>
      <path d="M135.21,39.92h-.44a6.17,6.17,0,0,0,1-3.28,5.58,5.58,0,0,0-.15-1.27,5.36,5.36,0,0,0-.32-1,11.5,11.5,0,0,0-.55-1h.44a6.57,6.57,0,0,1,1,1.72,4.71,4.71,0,0,1-.09,3.34A6.25,6.25,0,0,1,135.21,39.92Z"/>
    </g>
    <g>
      <path d="M3,96.9,1,91.89h.72l1.3,3.64q.16.44.26.82.12-.41.27-.82l1.35-3.64h.68l-2,5Z"/>
      <path d="M6.23,96.9v-5H9.85v.59h-3V94H9.66v.59H6.89v1.71H10v.59Z"/>
      <path d="M10.88,96.9v-5h.68l2.63,3.93V91.89h.64v5h-.68L11.51,93V96.9Z"/>
      <path d="M17.21,96.9V92.48H15.56v-.59h4v.59H17.88V96.9Z"/>
      <path d="M22,96.9v-5h1.89a4.58,4.58,0,0,1,.76,0,1.51,1.51,0,0,1,.62.23,1.22,1.22,0,0,1,.4.48,1.63,1.63,0,0,1-.25,1.77,2,2,0,0,1-1.47.44H22.7v2Zm.66-2.63H24a1.38,1.38,0,0,0,.91-.24.85.85,0,0,0,.27-.67.91.91,0,0,0-.16-.54.74.74,0,0,0-.42-.3,2.82,2.82,0,0,0-.62,0H22.7Z"/>
      <path d="M26.82,96.9v-5h.66v5Z"/>
      <path d="M28.65,96.9v-5h1.89a4.58,4.58,0,0,1,.76,0,1.51,1.51,0,0,1,.62.23,1.22,1.22,0,0,1,.4.48,1.63,1.63,0,0,1-.25,1.77,2,2,0,0,1-1.47.44H29.31v2Zm.66-2.63h1.3a1.38,1.38,0,0,0,.91-.24.85.85,0,0,0,.27-.67.91.91,0,0,0-.16-.54.74.74,0,0,0-.42-.3,2.82,2.82,0,0,0-.62,0H29.31Z"/>
      <path d="M33.33,96.9v-5H37v.59H34V94h2.77v.59H34v1.71h3.08v.59Z"/>
    </g>
    <g>
      <path d="M183.61,12.31l.66.17a2.23,2.23,0,0,1-.75,1.25,2.07,2.07,0,0,1-1.33.43,2.38,2.38,0,0,1-1.32-.33,2.07,2.07,0,0,1-.77-1,3.41,3.41,0,0,1-.26-1.34,3,3,0,0,1,.3-1.37,2.05,2.05,0,0,1,.85-.89A2.49,2.49,0,0,1,182.2,9a2.05,2.05,0,0,1,1.26.38,2,2,0,0,1,.71,1.08l-.65.15a1.55,1.55,0,0,0-.51-.8,1.35,1.35,0,0,0-.83-.25,1.62,1.62,0,0,0-1,.28,1.46,1.46,0,0,0-.54.74,3,3,0,0,0-.16,1,3.06,3.06,0,0,0,.19,1.12,1.39,1.39,0,0,0,.58.71,1.62,1.62,0,0,0,.85.24,1.42,1.42,0,0,0,.94-.32A1.64,1.64,0,0,0,183.61,12.31Z"/>
      <path d="M184.88,11.63a2.72,2.72,0,0,1,.67-2A2.28,2.28,0,0,1,187.28,9a2.4,2.4,0,0,1,1.25.33,2.16,2.16,0,0,1,.85.92,3,3,0,0,1,.29,1.35,3,3,0,0,1-.31,1.36,2.1,2.1,0,0,1-.87.91,2.49,2.49,0,0,1-1.22.31,2.37,2.37,0,0,1-1.26-.34,2.2,2.2,0,0,1-.84-.93A2.83,2.83,0,0,1,184.88,11.63Zm.68,0a2,2,0,0,0,.49,1.43,1.7,1.7,0,0,0,2.45,0,2.13,2.13,0,0,0,.48-1.49,2.57,2.57,0,0,0-.21-1.07,1.59,1.59,0,0,0-.61-.71,1.64,1.64,0,0,0-.89-.25,1.7,1.7,0,0,0-1.21.48A2.16,2.16,0,0,0,185.57,11.64Z"/>
      <path d="M190.51,14.07v-5h1l1.19,3.55.24.74q.08-.27.27-.8l1.2-3.49h.89v5h-.64V9.88l-1.46,4.19h-.6l-1.45-4.27v4.27Z"/>
      <path d="M196.33,14.07v-5h1.88a2.32,2.32,0,0,1,.92.15,1.18,1.18,0,0,1,.54.47,1.24,1.24,0,0,1,.2.66,1.13,1.13,0,0,1-.17.6,1.24,1.24,0,0,1-.53.46,1.31,1.31,0,0,1,.7.45,1.22,1.22,0,0,1,.25.76,1.46,1.46,0,0,1-.15.65,1.27,1.27,0,0,1-.37.47,1.53,1.53,0,0,1-.55.25,3.32,3.32,0,0,1-.81.08Zm.66-2.91h1.08a2.43,2.43,0,0,0,.63-.06.7.7,0,0,0,.38-.25.72.72,0,0,0,.13-.44.8.8,0,0,0-.12-.44.61.61,0,0,0-.34-.26,2.87,2.87,0,0,0-.76-.07h-1Zm0,2.31h1.25a2.86,2.86,0,0,0,.45,0,1.09,1.09,0,0,0,.38-.14.73.73,0,0,0,.25-.28.87.87,0,0,0,.1-.42.83.83,0,0,0-.14-.49.76.76,0,0,0-.4-.29,2.48,2.48,0,0,0-.73-.08H197Z"/>
      <path d="M204.32,9.06H205V12a3.42,3.42,0,0,1-.17,1.2,1.46,1.46,0,0,1-.62.72,2.18,2.18,0,0,1-1.17.28,2.41,2.41,0,0,1-1.15-.24,1.38,1.38,0,0,1-.64-.7A3.34,3.34,0,0,1,201,12V9.06h.66V12a2.81,2.81,0,0,0,.12,1,.92.92,0,0,0,.42.48,1.44,1.44,0,0,0,.72.17,1.38,1.38,0,0,0,1-.33,1.91,1.91,0,0,0,.31-1.27Z"/>
      <path d="M205.86,12.46l.63-.05a1.38,1.38,0,0,0,.21.62,1.12,1.12,0,0,0,.5.39,1.9,1.9,0,0,0,.77.15,1.84,1.84,0,0,0,.67-.11.93.93,0,0,0,.43-.31.72.72,0,0,0,.14-.43.66.66,0,0,0-.14-.41,1,1,0,0,0-.45-.3,8.93,8.93,0,0,0-.89-.24,4.54,4.54,0,0,1-1-.31,1.36,1.36,0,0,1-.54-.47,1.14,1.14,0,0,1-.18-.62,1.28,1.28,0,0,1,.21-.71,1.34,1.34,0,0,1,.63-.5,2.39,2.39,0,0,1,.92-.17,2.52,2.52,0,0,1,1,.18,1.42,1.42,0,0,1,.65.53,1.5,1.5,0,0,1,.25.79l-.63,0a1,1,0,0,0-.35-.72,1.35,1.35,0,0,0-.87-.24,1.4,1.4,0,0,0-.88.22.66.66,0,0,0-.28.53.57.57,0,0,0,.2.44,2.64,2.64,0,0,0,1,.36,6.59,6.59,0,0,1,1.11.32,1.52,1.52,0,0,1,.65.51,1.25,1.25,0,0,1,.21.71,1.37,1.37,0,0,1-.23.75A1.51,1.51,0,0,1,209,14a2.29,2.29,0,0,1-1,.2,2.88,2.88,0,0,1-1.14-.2,1.59,1.59,0,0,1-.72-.6A1.69,1.69,0,0,1,205.86,12.46Z"/>
      <path d="M212,14.07V9.65h-1.65V9.06h4v.59h-1.66v4.42Z"/>
      <path d="M215.14,14.07v-5h.66v5Z"/>
      <path d="M216.77,11.63a2.72,2.72,0,0,1,.67-2A2.28,2.28,0,0,1,219.17,9a2.4,2.4,0,0,1,1.25.33,2.16,2.16,0,0,1,.85.92,3,3,0,0,1,.29,1.35,3,3,0,0,1-.31,1.36,2.1,2.1,0,0,1-.87.91,2.49,2.49,0,0,1-1.22.31,2.37,2.37,0,0,1-1.26-.34,2.2,2.2,0,0,1-.84-.93A2.83,2.83,0,0,1,216.77,11.63Zm.68,0a2,2,0,0,0,.49,1.43,1.7,1.7,0,0,0,2.45,0,2.13,2.13,0,0,0,.48-1.49,2.57,2.57,0,0,0-.21-1.07,1.59,1.59,0,0,0-.61-.71,1.64,1.64,0,0,0-.89-.25A1.7,1.7,0,0,0,218,10,2.16,2.16,0,0,0,217.46,11.64Z"/>
      <path d="M222.41,14.07v-5h.68L225.73,13V9.06h.63v5h-.68L223,10.13v3.94Z"/>
      <path d="M197.37,22.47l1.92-5H200l2.05,5h-.76L200.72,21h-2.1l-.55,1.52Zm1.45-2.06h1.7L200,19q-.24-.63-.36-1a6.47,6.47,0,0,1-.27,1Z"/>
      <path d="M202.7,22.47v-5h.66v5Z"/>
      <path d="M204.54,22.47v-5h2.22a3,3,0,0,1,1,.13,1.11,1.11,0,0,1,.56.48,1.43,1.43,0,0,1,.21.76,1.26,1.26,0,0,1-.35.9,1.75,1.75,0,0,1-1.07.46,1.74,1.74,0,0,1,.4.25,3.44,3.44,0,0,1,.55.67l.87,1.36h-.83l-.66-1q-.29-.45-.48-.69a1.51,1.51,0,0,0-.34-.33,1,1,0,0,0-.3-.13,2,2,0,0,0-.37,0h-.77v2.23Zm.66-2.8h1.43a2.13,2.13,0,0,0,.71-.09.75.75,0,0,0,.39-.3.81.81,0,0,0,.13-.45.75.75,0,0,0-.26-.58,1.21,1.21,0,0,0-.82-.23h-1.59Z"/>
    </g>
    <g>
      <path d="M217.92,63.83l-1.94-5h.72l1.3,3.64q.16.44.26.82.12-.41.27-.82l1.35-3.64h.68l-2,5Z"/>
      <path d="M221.17,63.83v-5h3.62v.59h-3v1.54h2.77v.59h-2.77v1.71h3.08v.59Z"/>
      <path d="M225.82,63.83v-5h.68l2.63,3.93V58.82h.63v5h-.68l-2.63-3.94v3.94Z"/>
      <path d="M232.15,63.83V59.41H230.5v-.59h4v.59h-1.66v4.42Z"/>
    </g>
    <g>
      <path d="M195.16,125.58h-.62v-3.92a3.2,3.2,0,0,1-.58.42,4.15,4.15,0,0,1-.65.32v-.59a3.69,3.69,0,0,0,.9-.59,2.3,2.3,0,0,0,.55-.67h.4Z"/>
      <path d="M199,125.58v-5h.66v5Z"/>
      <path d="M200.87,125.58v-5h.68l2.63,3.93v-3.93h.63v5h-.68l-2.63-3.94v3.94Z"/>
      <path d="M209.5,123.82l.66.17a2.23,2.23,0,0,1-.75,1.25,2.07,2.07,0,0,1-1.33.43,2.38,2.38,0,0,1-1.32-.33,2.07,2.07,0,0,1-.77-1,3.41,3.41,0,0,1-.26-1.34,3,3,0,0,1,.3-1.37,2.05,2.05,0,0,1,.85-.89,2.49,2.49,0,0,1,1.21-.3,2.05,2.05,0,0,1,1.26.38,2,2,0,0,1,.71,1.08l-.65.15a1.55,1.55,0,0,0-.51-.8,1.35,1.35,0,0,0-.83-.25,1.62,1.62,0,0,0-1,.28,1.46,1.46,0,0,0-.54.74,3,3,0,0,0-.16,1,3.06,3.06,0,0,0,.19,1.12,1.39,1.39,0,0,0,.58.71,1.62,1.62,0,0,0,.85.24,1.42,1.42,0,0,0,.94-.32A1.64,1.64,0,0,0,209.5,123.82Z"/>
      <path d="M211,125.58v-5h.66v2.06h2.6v-2.06h.66v5h-.66v-2.36h-2.6v2.36Z"/>
      <path d="M193.07,134v-5h1l1.19,3.55.24.74q.08-.27.27-.8L197,129h.89v5h-.64v-4.19L195.76,134h-.6l-1.45-4.27V134Z"/>
      <path d="M198.37,134l1.92-5H201l2.05,5h-.76l-.58-1.52h-2.1l-.55,1.52Zm1.45-2.06h1.7l-.52-1.39q-.24-.63-.36-1a6.45,6.45,0,0,1-.27,1Z"/>
      <path d="M203.08,134l1.94-2.61-1.71-2.4h.79l.91,1.29a7.25,7.25,0,0,1,.4.62,6.87,6.87,0,0,1,.4-.57l1-1.33h.72l-1.76,2.36,1.9,2.65h-.82l-1.26-1.79-.22-.34-.24.38L203.88,134Z"/>
      <path d="M208.37,134v-5H209v5Z"/>
      <path d="M210.18,134v-5h1l1.19,3.55.24.74q.08-.27.27-.8l1.2-3.49H215v5h-.64v-4.19L212.87,134h-.6l-1.45-4.27V134Z"/>
      <path d="M219.32,129H220v2.9a3.42,3.42,0,0,1-.17,1.2,1.46,1.46,0,0,1-.62.72,2.18,2.18,0,0,1-1.17.28,2.4,2.4,0,0,1-1.15-.24,1.38,1.38,0,0,1-.64-.7,3.34,3.34,0,0,1-.19-1.26V129h.66v2.89a2.81,2.81,0,0,0,.12,1,.93.93,0,0,0,.42.48,1.45,1.45,0,0,0,.72.17,1.39,1.39,0,0,0,1-.33,1.92,1.92,0,0,0,.31-1.28Z"/>
      <path d="M221.07,134v-5h1l1.19,3.55.24.74q.08-.27.27-.8L225,129h.89v5h-.64v-4.19L223.76,134h-.6l-1.45-4.27V134Z"/>
    </g>
    <g>
      <path d="M4.74,121.58v-5h.68l2.63,3.93v-3.93h.64v5H8l-2.63-3.94v3.94Z"/>
      <path d="M9.6,119.14a2.72,2.72,0,0,1,.67-2,2.28,2.28,0,0,1,1.73-.71,2.39,2.39,0,0,1,1.25.33,2.16,2.16,0,0,1,.85.92,3,3,0,0,1,.29,1.35,3,3,0,0,1-.31,1.36,2.1,2.1,0,0,1-.87.91,2.49,2.49,0,0,1-1.22.31,2.37,2.37,0,0,1-1.26-.34,2.2,2.2,0,0,1-.84-.93A2.83,2.83,0,0,1,9.6,119.14Zm.68,0a2,2,0,0,0,.49,1.43,1.7,1.7,0,0,0,2.45,0,2.13,2.13,0,0,0,.48-1.49,2.57,2.57,0,0,0-.21-1.07,1.59,1.59,0,0,0-.61-.71A1.63,1.63,0,0,0,12,117a1.7,1.7,0,0,0-1.21.48A2.16,2.16,0,0,0,10.29,119.15Z"/>
      <path d="M16.52,121.58v-4.42H14.87v-.59h4v.59H17.19v4.42Z"/>
      <path d="M19.54,121.58v-5h3.62v.59h-3v1.54H23v.59H20.2V121h3.08v.59Z"/>
      <path d="M24.29,118.65v-.7H25v.7Zm0,2.93v-.7H25v.7Z"/>
      <path d="M27.86,120l.63-.05a1.38,1.38,0,0,0,.21.62,1.12,1.12,0,0,0,.5.39,1.9,1.9,0,0,0,.77.15,1.84,1.84,0,0,0,.67-.11.93.93,0,0,0,.43-.31.72.72,0,0,0,.14-.43.65.65,0,0,0-.14-.41,1,1,0,0,0-.45-.3,9.25,9.25,0,0,0-.89-.24,4.57,4.57,0,0,1-1-.31,1.36,1.36,0,0,1-.54-.47,1.14,1.14,0,0,1-.18-.62,1.27,1.27,0,0,1,.22-.71,1.34,1.34,0,0,1,.63-.5,2.4,2.4,0,0,1,.92-.17,2.52,2.52,0,0,1,1,.18,1.42,1.42,0,0,1,.65.53,1.51,1.51,0,0,1,.25.79l-.64,0a1,1,0,0,0-.35-.72,1.35,1.35,0,0,0-.87-.24,1.4,1.4,0,0,0-.88.22.66.66,0,0,0-.27.53.57.57,0,0,0,.19.44,2.64,2.64,0,0,0,1,.36,6.58,6.58,0,0,1,1.11.32,1.52,1.52,0,0,1,.65.51,1.24,1.24,0,0,1,.21.71,1.36,1.36,0,0,1-.23.75,1.51,1.51,0,0,1-.66.55,2.29,2.29,0,0,1-1,.2,2.87,2.87,0,0,1-1.14-.2,1.59,1.59,0,0,1-.72-.6A1.69,1.69,0,0,1,27.86,120Z"/>
      <path d="M32.77,121.58v-5h3.62v.59h-3v1.54H36.2v.59H33.43V121h3.08v.59Z"/>
      <path d="M41,119.82l.66.17a2.23,2.23,0,0,1-.75,1.25,2.07,2.07,0,0,1-1.32.43,2.38,2.38,0,0,1-1.32-.33,2.07,2.07,0,0,1-.77-1,3.42,3.42,0,0,1-.26-1.34,3,3,0,0,1,.3-1.37,2.05,2.05,0,0,1,.85-.89,2.49,2.49,0,0,1,1.21-.3,2,2,0,0,1,1.26.38,2,2,0,0,1,.71,1.08l-.65.15a1.54,1.54,0,0,0-.51-.8,1.35,1.35,0,0,0-.83-.25,1.62,1.62,0,0,0-1,.28,1.47,1.47,0,0,0-.54.74,3,3,0,0,0-.16,1,3,3,0,0,0,.19,1.12,1.38,1.38,0,0,0,.58.71,1.63,1.63,0,0,0,.85.24,1.43,1.43,0,0,0,.94-.32A1.65,1.65,0,0,0,41,119.82Z"/>
      <path d="M45.77,116.57h.66v2.9a3.43,3.43,0,0,1-.17,1.2,1.46,1.46,0,0,1-.62.72,2.18,2.18,0,0,1-1.17.28,2.41,2.41,0,0,1-1.15-.24,1.38,1.38,0,0,1-.64-.7,3.35,3.35,0,0,1-.19-1.26v-2.9h.66v2.89a2.81,2.81,0,0,0,.12,1,.92.92,0,0,0,.42.48,1.45,1.45,0,0,0,.72.17,1.38,1.38,0,0,0,1-.33,1.91,1.91,0,0,0,.31-1.28Z"/>
      <path d="M47.54,121.58v-5h2.22a3,3,0,0,1,1,.13,1.12,1.12,0,0,1,.56.48,1.42,1.42,0,0,1,.21.75,1.26,1.26,0,0,1-.35.9,1.75,1.75,0,0,1-1.07.46,1.72,1.72,0,0,1,.4.25,3.42,3.42,0,0,1,.55.67l.87,1.36h-.83l-.66-1q-.29-.45-.48-.69a1.53,1.53,0,0,0-.34-.34,1,1,0,0,0-.3-.13,2,2,0,0,0-.37,0h-.77v2.22Zm.66-2.8h1.43a2.11,2.11,0,0,0,.71-.09.76.76,0,0,0,.39-.3.81.81,0,0,0,.13-.45.75.75,0,0,0-.26-.58,1.21,1.21,0,0,0-.81-.23H48.21Z"/>
      <path d="M52.7,121.58v-5h.66v5Z"/>
      <path d="M54.53,121.58v-5h.68l2.63,3.93v-3.93h.64v5h-.68l-2.63-3.94v3.94Z"/>
      <path d="M61.93,119.61V119h2.12v1.86a3.74,3.74,0,0,1-1,.59,3,3,0,0,1-1.07.2,2.85,2.85,0,0,1-1.34-.32,2.09,2.09,0,0,1-.91-.91,2.88,2.88,0,0,1-.31-1.34,3.1,3.1,0,0,1,.31-1.37,2,2,0,0,1,.88-.94,2.76,2.76,0,0,1,1.32-.31,2.63,2.63,0,0,1,1,.18,1.64,1.64,0,0,1,.69.49A2.16,2.16,0,0,1,64,118l-.6.16a1.85,1.85,0,0,0-.28-.6,1.15,1.15,0,0,0-.48-.35,1.77,1.77,0,0,0-.69-.13,2,2,0,0,0-.79.14,1.47,1.47,0,0,0-.54.36,1.74,1.74,0,0,0-.32.5,2.63,2.63,0,0,0-.19,1,2.44,2.44,0,0,0,.23,1.12,1.47,1.47,0,0,0,.67.67,2.08,2.08,0,0,0,.94.22,2.23,2.23,0,0,0,.84-.17,2.15,2.15,0,0,0,.62-.35v-.93Z"/>
      <path d="M66.75,120l.63-.05a1.38,1.38,0,0,0,.21.62,1.12,1.12,0,0,0,.5.39,1.9,1.9,0,0,0,.77.15,1.84,1.84,0,0,0,.67-.11.93.93,0,0,0,.43-.31.72.72,0,0,0,.14-.43.65.65,0,0,0-.14-.41,1,1,0,0,0-.45-.3,9.25,9.25,0,0,0-.89-.24,4.57,4.57,0,0,1-1-.31,1.36,1.36,0,0,1-.54-.47,1.14,1.14,0,0,1-.18-.62,1.27,1.27,0,0,1,.22-.71,1.34,1.34,0,0,1,.63-.5,2.4,2.4,0,0,1,.92-.17,2.52,2.52,0,0,1,1,.18,1.42,1.42,0,0,1,.65.53,1.51,1.51,0,0,1,.25.79L70,118a1,1,0,0,0-.35-.72,1.35,1.35,0,0,0-.87-.24,1.4,1.4,0,0,0-.88.22.66.66,0,0,0-.27.53.57.57,0,0,0,.19.44,2.64,2.64,0,0,0,1,.36,6.58,6.58,0,0,1,1.11.32,1.52,1.52,0,0,1,.65.51,1.24,1.24,0,0,1,.21.71,1.36,1.36,0,0,1-.23.75,1.51,1.51,0,0,1-.66.55,2.29,2.29,0,0,1-1,.2,2.87,2.87,0,0,1-1.14-.2,1.59,1.59,0,0,1-.72-.6A1.69,1.69,0,0,1,66.75,120Z"/>
      <path d="M72.92,121.58v-4.42H71.27v-.59h4v.59H73.58v4.42Z"/>
      <path d="M75.93,121.58v-5h2.22a3,3,0,0,1,1,.13,1.12,1.12,0,0,1,.56.48,1.42,1.42,0,0,1,.21.75,1.26,1.26,0,0,1-.35.9,1.75,1.75,0,0,1-1.07.46,1.72,1.72,0,0,1,.4.25,3.42,3.42,0,0,1,.55.67l.87,1.36h-.83l-.66-1q-.29-.45-.48-.69a1.53,1.53,0,0,0-.34-.34,1,1,0,0,0-.3-.13,2,2,0,0,0-.37,0H76.6v2.22Zm.66-2.8H78a2.11,2.11,0,0,0,.71-.09.76.76,0,0,0,.39-.3.81.81,0,0,0,.13-.45.75.75,0,0,0-.26-.58,1.21,1.21,0,0,0-.81-.23H76.6Z"/>
      <path d="M80.43,121.58l1.92-5h.71l2.05,5h-.76l-.58-1.52h-2.1l-.55,1.52Zm1.45-2.06h1.7L83,118.13q-.24-.63-.36-1a6.4,6.4,0,0,1-.27,1Z"/>
      <path d="M85.65,121.58v-5h1.89a4.64,4.64,0,0,1,.76,0,1.51,1.51,0,0,1,.62.23,1.22,1.22,0,0,1,.4.48,1.63,1.63,0,0,1-.25,1.77,2,2,0,0,1-1.47.44H86.31v2Zm.66-2.63h1.3a1.38,1.38,0,0,0,.91-.24.85.85,0,0,0,.27-.67.91.91,0,0,0-.16-.54.74.74,0,0,0-.42-.3,2.85,2.85,0,0,0-.62,0H86.31Z"/>
      <path d="M92.11,121.58v-5h1l1.19,3.55.24.74c.06-.18.15-.45.27-.8l1.2-3.49h.89v5h-.64v-4.19l-1.46,4.19h-.6l-1.45-4.27v4.27Z"/>
      <path d="M101.25,116.57h.66v2.9a3.43,3.43,0,0,1-.17,1.2,1.46,1.46,0,0,1-.62.72,2.18,2.18,0,0,1-1.17.28,2.41,2.41,0,0,1-1.15-.24,1.38,1.38,0,0,1-.64-.7,3.35,3.35,0,0,1-.19-1.26v-2.9h.66v2.89a2.81,2.81,0,0,0,.12,1,.92.92,0,0,0,.42.48,1.45,1.45,0,0,0,.72.17,1.38,1.38,0,0,0,1-.33,1.91,1.91,0,0,0,.31-1.28Z"/>
      <path d="M102.79,120l.63-.05a1.38,1.38,0,0,0,.21.62,1.12,1.12,0,0,0,.5.39,1.9,1.9,0,0,0,.77.15,1.84,1.84,0,0,0,.67-.11.93.93,0,0,0,.43-.31.72.72,0,0,0,.14-.43.65.65,0,0,0-.14-.41,1,1,0,0,0-.45-.3,9.25,9.25,0,0,0-.89-.24,4.57,4.57,0,0,1-1-.31,1.36,1.36,0,0,1-.54-.47,1.14,1.14,0,0,1-.18-.62,1.27,1.27,0,0,1,.22-.71,1.34,1.34,0,0,1,.63-.5,2.4,2.4,0,0,1,.92-.17,2.52,2.52,0,0,1,1,.18,1.42,1.42,0,0,1,.65.53,1.51,1.51,0,0,1,.25.79l-.64,0a1,1,0,0,0-.35-.72,1.35,1.35,0,0,0-.87-.24,1.4,1.4,0,0,0-.88.22.66.66,0,0,0-.27.53.57.57,0,0,0,.19.44,2.64,2.64,0,0,0,1,.36,6.58,6.58,0,0,1,1.11.32,1.52,1.52,0,0,1,.65.51,1.24,1.24,0,0,1,.21.71,1.36,1.36,0,0,1-.23.75,1.51,1.51,0,0,1-.66.55,2.29,2.29,0,0,1-1,.2,2.87,2.87,0,0,1-1.14-.2,1.59,1.59,0,0,1-.72-.6A1.69,1.69,0,0,1,102.79,120Z"/>
      <path d="M109,121.58v-4.42h-1.65v-.59h4v.59h-1.66v4.42Z"/>
      <path d="M113.76,121.58v-5h1.88a2.32,2.32,0,0,1,.92.15,1.18,1.18,0,0,1,.54.47,1.24,1.24,0,0,1,.2.66,1.13,1.13,0,0,1-.17.6,1.25,1.25,0,0,1-.53.46,1.3,1.3,0,0,1,.7.46,1.21,1.21,0,0,1,.24.76,1.46,1.46,0,0,1-.15.66,1.26,1.26,0,0,1-.37.47,1.53,1.53,0,0,1-.55.25,3.29,3.29,0,0,1-.81.08Zm.66-2.91h1.08a2.45,2.45,0,0,0,.63-.06.71.71,0,0,0,.38-.25.71.71,0,0,0,.13-.44.81.81,0,0,0-.12-.44.61.61,0,0,0-.34-.26,2.85,2.85,0,0,0-.76-.07h-1Zm0,2.31h1.25a2.93,2.93,0,0,0,.45,0,1.07,1.07,0,0,0,.38-.14.73.73,0,0,0,.25-.28.88.88,0,0,0,.1-.42.83.83,0,0,0-.14-.49.76.76,0,0,0-.4-.29,2.47,2.47,0,0,0-.73-.08h-1.16Z"/>
      <path d="M118.47,121.58v-5h3.62v.59h-3v1.54h2.77v.59h-2.77V121h3.08v.59Z"/>
      <path d="M4.78,129.58v-5H8.16v.59H5.45v1.55H7.8v.59H5.45v2.28Z"/>
      <path d="M9.14,129.58v-5H9.8v5Z"/>
      <path d="M11,129.58v-5h3.62v.59h-3v1.54h2.77v.59H11.65V129h3.08v.59Z"/>
      <path d="M15.61,129.58v-5h.66V129h2.47v.59Z"/>
      <path d="M19.53,129.58v-5h1.73a4.26,4.26,0,0,1,.89.07,1.69,1.69,0,0,1,.73.36,2,2,0,0,1,.59.86,3.36,3.36,0,0,1,.2,1.19,3.49,3.49,0,0,1-.13,1,2.45,2.45,0,0,1-.34.73,1.81,1.81,0,0,1-.46.45,1.85,1.85,0,0,1-.6.25,3.38,3.38,0,0,1-.81.09Zm.66-.59h1.07a2.6,2.6,0,0,0,.78-.09,1.12,1.12,0,0,0,.45-.26,1.58,1.58,0,0,0,.37-.63,3.09,3.09,0,0,0,.13-1,2.33,2.33,0,0,0-.26-1.21,1.3,1.3,0,0,0-.63-.57,2.59,2.59,0,0,0-.86-.1H20.2Z"/>
      <path d="M26.65,129.58v-5h.66v5Z"/>
      <path d="M28.47,129.58v-5h.68l2.63,3.93v-3.93h.64v5h-.68l-2.63-3.94v3.94Z"/>
      <path d="M33.31,128l.63-.05a1.38,1.38,0,0,0,.21.62,1.12,1.12,0,0,0,.5.39,1.9,1.9,0,0,0,.77.15,1.84,1.84,0,0,0,.67-.11.93.93,0,0,0,.43-.31.72.72,0,0,0,.14-.43.65.65,0,0,0-.14-.41,1,1,0,0,0-.45-.3,9.25,9.25,0,0,0-.89-.24,4.57,4.57,0,0,1-1-.31,1.36,1.36,0,0,1-.54-.47,1.14,1.14,0,0,1-.18-.62,1.27,1.27,0,0,1,.22-.71,1.34,1.34,0,0,1,.63-.5,2.4,2.4,0,0,1,.92-.17,2.52,2.52,0,0,1,1,.18,1.42,1.42,0,0,1,.65.53,1.51,1.51,0,0,1,.25.79l-.64,0a1,1,0,0,0-.35-.72,1.35,1.35,0,0,0-.87-.24,1.4,1.4,0,0,0-.88.22.66.66,0,0,0-.27.53.57.57,0,0,0,.19.44,2.64,2.64,0,0,0,1,.36,6.58,6.58,0,0,1,1.11.32,1.52,1.52,0,0,1,.65.51,1.24,1.24,0,0,1,.21.71,1.36,1.36,0,0,1-.23.75,1.51,1.51,0,0,1-.66.55,2.29,2.29,0,0,1-1,.2,2.87,2.87,0,0,1-1.14-.2,1.59,1.59,0,0,1-.72-.6A1.69,1.69,0,0,1,33.31,128Z"/>
      <path d="M39.48,129.58v-4.42H37.83v-.59h4v.59H40.14v4.42Z"/>
      <path d="M41.41,129.58l1.92-5H44l2.05,5h-.76l-.58-1.52h-2.1l-.55,1.52Zm1.45-2.06h1.7L44,126.13q-.24-.63-.36-1a6.4,6.4,0,0,1-.27,1Z"/>
      <path d="M46.6,129.58v-5h.66V129h2.47v.59Z"/>
      <path d="M50.49,129.58v-5h.66V129h2.47v.59Z"/>
      <path d="M54.43,129.58v-5H58v.59h-3v1.54h2.77v.59H55.09V129h3.08v.59Z"/>
      <path d="M59.08,129.58v-5h1.73a4.26,4.26,0,0,1,.89.07,1.69,1.69,0,0,1,.73.36,2,2,0,0,1,.59.86,3.36,3.36,0,0,1,.2,1.19,3.49,3.49,0,0,1-.13,1,2.45,2.45,0,0,1-.34.73,1.81,1.81,0,0,1-.46.45,1.85,1.85,0,0,1-.6.25,3.38,3.38,0,0,1-.81.09Zm.66-.59h1.07a2.6,2.6,0,0,0,.78-.09,1.12,1.12,0,0,0,.45-.26,1.58,1.58,0,0,0,.37-.63,3.09,3.09,0,0,0,.13-1,2.33,2.33,0,0,0-.26-1.21,1.3,1.3,0,0,0-.63-.57,2.59,2.59,0,0,0-.86-.1H59.75Z"/>
      <path d="M67.23,129.58v-4.42H65.58v-.59h4v.59H67.89v4.42Z"/>
      <path d="M69.9,127.14a2.72,2.72,0,0,1,.67-2,2.28,2.28,0,0,1,1.73-.71,2.39,2.39,0,0,1,1.25.33,2.16,2.16,0,0,1,.85.92,3,3,0,0,1,.29,1.35,3,3,0,0,1-.31,1.36,2.1,2.1,0,0,1-.87.91,2.49,2.49,0,0,1-1.22.31,2.37,2.37,0,0,1-1.26-.34,2.2,2.2,0,0,1-.84-.93A2.83,2.83,0,0,1,69.9,127.14Zm.68,0a2,2,0,0,0,.49,1.43,1.7,1.7,0,0,0,2.45,0,2.13,2.13,0,0,0,.48-1.49,2.57,2.57,0,0,0-.21-1.07,1.59,1.59,0,0,0-.61-.71,1.63,1.63,0,0,0-.89-.25,1.7,1.7,0,0,0-1.21.48A2.16,2.16,0,0,0,70.59,127.15Z"/>
      <path d="M77.49,129.58v-5h1.89a4.64,4.64,0,0,1,.76,0,1.51,1.51,0,0,1,.62.23,1.22,1.22,0,0,1,.4.48,1.63,1.63,0,0,1-.25,1.77,2,2,0,0,1-1.47.44H78.16v2Zm.66-2.63h1.3a1.38,1.38,0,0,0,.91-.24.85.85,0,0,0,.27-.67.91.91,0,0,0-.16-.54.74.74,0,0,0-.42-.3,2.85,2.85,0,0,0-.62,0H78.16Z"/>
      <path d="M82.17,129.58v-5H84.4a3,3,0,0,1,1,.13,1.12,1.12,0,0,1,.56.48,1.42,1.42,0,0,1,.21.75,1.26,1.26,0,0,1-.35.9,1.75,1.75,0,0,1-1.07.46,1.72,1.72,0,0,1,.4.25,3.42,3.42,0,0,1,.55.67l.87,1.36h-.83l-.66-1q-.29-.45-.48-.69a1.53,1.53,0,0,0-.34-.34,1,1,0,0,0-.3-.13,2,2,0,0,0-.37,0h-.77v2.22Zm.66-2.8h1.43a2.11,2.11,0,0,0,.71-.09.76.76,0,0,0,.39-.3.81.81,0,0,0,.13-.45.75.75,0,0,0-.26-.58,1.21,1.21,0,0,0-.81-.23H82.84Z"/>
      <path d="M87.23,129.58v-5h3.62v.59h-3v1.54h2.77v.59H87.9V129H91v.59Z"/>
      <path d="M93.32,129.58l-1.94-5h.72l1.3,3.64q.16.44.26.82.12-.41.27-.82l1.35-3.64H96l-2,5Z"/>
      <path d="M96.57,129.58v-5h3.62v.59h-3v1.54H100v.59H97.23V129h3.08v.59Z"/>
      <path d="M101.22,129.58v-5h.68l2.63,3.93v-3.93h.64v5h-.68l-2.63-3.94v3.94Z"/>
      <path d="M107.56,129.58v-4.42H105.9v-.59h4v.59h-1.66v4.42Z"/>
      <path d="M4.73,137.58v-5h1l1.19,3.55.24.74c.06-.18.15-.45.27-.8l1.2-3.49h.89v5H8.87v-4.19l-1.46,4.19h-.6l-1.45-4.27v4.27Z"/>
      <path d="M10.38,135.14a2.72,2.72,0,0,1,.67-2,2.28,2.28,0,0,1,1.73-.71,2.39,2.39,0,0,1,1.25.33,2.16,2.16,0,0,1,.85.92,3,3,0,0,1,.29,1.35,3,3,0,0,1-.31,1.36,2.1,2.1,0,0,1-.87.91,2.49,2.49,0,0,1-1.22.31,2.37,2.37,0,0,1-1.26-.34,2.2,2.2,0,0,1-.84-.93A2.83,2.83,0,0,1,10.38,135.14Zm.68,0a2,2,0,0,0,.49,1.43,1.7,1.7,0,0,0,2.45,0,2.13,2.13,0,0,0,.48-1.49,2.57,2.57,0,0,0-.21-1.07,1.59,1.59,0,0,0-.61-.71,1.63,1.63,0,0,0-.89-.25,1.7,1.7,0,0,0-1.21.48A2.16,2.16,0,0,0,11.06,135.15Z"/>
      <path d="M17.46,137.58l-1.94-5h.72l1.3,3.64q.16.44.26.82.12-.41.27-.82l1.35-3.64h.68l-2,5Z"/>
      <path d="M20.71,137.58v-5h3.62v.59h-3v1.54h2.77v.59H21.37V137h3.08v.59Z"/>
      <path d="M25.34,137.58v-5h1l1.19,3.55.24.74c.06-.18.15-.45.27-.8l1.2-3.49h.89v5h-.64v-4.19L28,137.58h-.6L26,133.31v4.27Z"/>
      <path d="M31.21,137.58v-5h3.62v.59h-3v1.54h2.77v.59H31.87V137h3.08v.59Z"/>
      <path d="M35.86,137.58v-5h.68l2.63,3.93v-3.93h.64v5h-.68l-2.63-3.94v3.94Z"/>
      <path d="M42.19,137.58v-4.42H40.54v-.59h4v.59H42.86v4.42Z"/>
      <path d="M46.81,135.14a2.72,2.72,0,0,1,.67-2,2.28,2.28,0,0,1,1.73-.71,2.39,2.39,0,0,1,1.25.33,2.16,2.16,0,0,1,.85.92,3,3,0,0,1,.29,1.35,3,3,0,0,1-.31,1.36,2.1,2.1,0,0,1-.87.91,2.49,2.49,0,0,1-1.22.31,2.37,2.37,0,0,1-1.26-.34,2.2,2.2,0,0,1-.84-.93A2.83,2.83,0,0,1,46.81,135.14Zm.68,0a2,2,0,0,0,.49,1.43,1.7,1.7,0,0,0,2.45,0,2.13,2.13,0,0,0,.48-1.49,2.57,2.57,0,0,0-.21-1.07,1.59,1.59,0,0,0-.61-.71,1.63,1.63,0,0,0-.89-.25,1.7,1.7,0,0,0-1.21.48A2.16,2.16,0,0,0,47.5,135.15Z"/>
      <path d="M52.49,137.58v-5h3.38v.59H53.16v1.55h2.35v.59H53.16v2.28Z"/>
      <path d="M59.83,137.58v-4.42H58.18v-.59h4v.59H60.49v4.42Z"/>
      <path d="M62.84,137.58v-5h3.62v.59h-3v1.54h2.77v.59H63.5V137h3.08v.59Z"/>
      <path d="M67.51,137.58v-5h2.22a3,3,0,0,1,1,.13,1.12,1.12,0,0,1,.56.48,1.42,1.42,0,0,1,.21.75,1.26,1.26,0,0,1-.35.9,1.75,1.75,0,0,1-1.07.46,1.72,1.72,0,0,1,.4.25,3.42,3.42,0,0,1,.55.67l.87,1.36h-.83l-.66-1q-.29-.45-.48-.69a1.53,1.53,0,0,0-.34-.34,1,1,0,0,0-.3-.13,2,2,0,0,0-.37,0h-.77v2.22Zm.66-2.8H69.6a2.11,2.11,0,0,0,.71-.09.76.76,0,0,0,.39-.3.81.81,0,0,0,.13-.45.75.75,0,0,0-.26-.58,1.21,1.21,0,0,0-.81-.23H68.17Z"/>
      <path d="M72.53,137.58v-5h1l1.19,3.55.24.74c.06-.18.15-.45.27-.8l1.2-3.49h.89v5h-.64v-4.19l-1.46,4.19h-.6l-1.45-4.27v4.27Z"/>
      <path d="M78.5,137.58v-5h.66v5Z"/>
      <path d="M80.32,137.58v-5H81l2.63,3.93v-3.93h.64v5h-.68L81,133.64v3.94Z"/>
      <path d="M84.83,137.58l1.92-5h.71l2.05,5h-.76l-.58-1.52h-2.1l-.55,1.52Zm1.45-2.06H88l-.52-1.39q-.24-.63-.36-1a6.4,6.4,0,0,1-.27,1Z"/>
      <path d="M90.81,137.58v-4.42H89.16v-.59h4v.59H91.47v4.42Z"/>
      <path d="M93.92,137.58v-5h.66v5Z"/>
      <path d="M95.55,135.14a2.72,2.72,0,0,1,.67-2,2.28,2.28,0,0,1,1.73-.71,2.39,2.39,0,0,1,1.25.33,2.16,2.16,0,0,1,.85.92,3,3,0,0,1,.29,1.35,3,3,0,0,1-.31,1.36,2.1,2.1,0,0,1-.87.91,2.49,2.49,0,0,1-1.22.31,2.37,2.37,0,0,1-1.26-.34,2.2,2.2,0,0,1-.84-.93A2.83,2.83,0,0,1,95.55,135.14Zm.68,0a2,2,0,0,0,.49,1.43,1.7,1.7,0,0,0,2.45,0,2.13,2.13,0,0,0,.48-1.49,2.57,2.57,0,0,0-.21-1.07,1.59,1.59,0,0,0-.61-.71A1.63,1.63,0,0,0,98,133a1.7,1.7,0,0,0-1.21.48A2.16,2.16,0,0,0,96.24,135.15Z"/>
      <path d="M101.19,137.58v-5h.68l2.63,3.93v-3.93h.64v5h-.68l-2.63-3.94v3.94Z"/>
      <path d="M108.17,137.58v-5h.66v2.49l2.49-2.49h.9l-2.1,2,2.19,3h-.87L109.65,135l-.82.8v1.74Z"/>
      <path d="M113,137.58v-5h.66v5Z"/>
      <path d="M116.09,137.58v-4.42h-1.65v-.59h4v.59h-1.66v4.42Z"/>
      <path d="M4.86,145.58v-5h.66v5Z"/>
      <path d="M6.69,145.58v-5h.68L10,144.5v-3.93h.64v5H10l-2.63-3.94v3.94Z"/>
      <path d="M13.47,144l.63-.05a1.38,1.38,0,0,0,.21.62,1.12,1.12,0,0,0,.5.39,1.9,1.9,0,0,0,.77.15,1.84,1.84,0,0,0,.67-.11.93.93,0,0,0,.43-.31.72.72,0,0,0,.14-.43.65.65,0,0,0-.14-.41,1,1,0,0,0-.45-.3,9.25,9.25,0,0,0-.89-.24,4.57,4.57,0,0,1-1-.31,1.36,1.36,0,0,1-.54-.47,1.14,1.14,0,0,1-.18-.62,1.27,1.27,0,0,1,.22-.71,1.34,1.34,0,0,1,.63-.5,2.4,2.4,0,0,1,.92-.17,2.52,2.52,0,0,1,1,.18,1.42,1.42,0,0,1,.65.53,1.51,1.51,0,0,1,.25.79l-.64,0a1,1,0,0,0-.35-.72,1.35,1.35,0,0,0-.87-.24,1.4,1.4,0,0,0-.88.22.66.66,0,0,0-.27.53.57.57,0,0,0,.19.44,2.64,2.64,0,0,0,1,.36,6.58,6.58,0,0,1,1.11.32,1.52,1.52,0,0,1,.65.51,1.24,1.24,0,0,1,.21.71,1.36,1.36,0,0,1-.23.75,1.51,1.51,0,0,1-.66.55,2.29,2.29,0,0,1-1,.2,2.87,2.87,0,0,1-1.14-.2,1.59,1.59,0,0,1-.72-.6A1.69,1.69,0,0,1,13.47,144Z"/>
      <path d="M18.48,145.58v-5h.66v5Z"/>
      <path d="M20.31,145.58v-5H22a4.26,4.26,0,0,1,.89.07,1.69,1.69,0,0,1,.73.36,2,2,0,0,1,.59.86,3.36,3.36,0,0,1,.2,1.19,3.49,3.49,0,0,1-.13,1,2.45,2.45,0,0,1-.34.73,1.81,1.81,0,0,1-.46.45,1.85,1.85,0,0,1-.6.25,3.38,3.38,0,0,1-.81.09ZM21,145H22a2.6,2.6,0,0,0,.78-.09,1.12,1.12,0,0,0,.45-.26,1.58,1.58,0,0,0,.37-.63,3.09,3.09,0,0,0,.13-1,2.33,2.33,0,0,0-.26-1.21,1.3,1.3,0,0,0-.63-.57,2.59,2.59,0,0,0-.86-.1H21Z"/>
      <path d="M25.38,145.58v-5H29v.59H26v1.54h2.77v.59H26V145h3.08v.59Z"/>
      <path d="M30.91,145.58l-1.33-5h.68l.76,3.28q.12.52.21,1,.19-.8.23-.93l1-3.38h.8l.72,2.54a13.41,13.41,0,0,1,.39,1.77q.1-.47.25-1.09l.79-3.22H36l-1.37,5H34L33,141.76q-.13-.48-.16-.59-.08.35-.15.59l-1.06,3.82Z"/>
      <path d="M35.83,145.58l1.92-5h.71l2.05,5h-.76l-.58-1.52h-2.1l-.55,1.52Zm1.45-2.06H39l-.52-1.39q-.24-.63-.36-1a6.4,6.4,0,0,1-.27,1Z"/>
      <path d="M41,145.58v-5h.66V145h2.47v.59Z"/>
      <path d="M44.91,145.58v-5h.66V145H48v.59Z"/>
      <path d="M48.93,145.58v-.7h.7v.7Z"/>
    </g>
    <g>
      <line class="cls-20" x1="19.1" y1="89.89" x2="32.87" y2="81.38"/>
      <path d="M34.34,79.26c-1.67.44-2.82.62-4.23.86l2.65,4.29A39.55,39.55,0,0,1,35.42,81a29.54,29.54,0,0,1,3.21-3.2A29.57,29.57,0,0,1,34.34,79.26Z"/>
    </g>
  </g>
</svg>
