<svg xmlns="http://www.w3.org/2000/svg" xmlns:xlink="http://www.w3.org/1999/xlink" width="3.05in" height="3.15in" viewBox="0 0 219.83 226.47">
  <defs>
    <style>
      .cls-1, .cls-10, .cls-11, .cls-12, .cls-13, .cls-14, .cls-15, .cls-16, .cls-17, .cls-18, .cls-19, .cls-2, .cls-20, .cls-21, .cls-22, .cls-24, .cls-3, .cls-4, .cls-5, .cls-6, .cls-7, .cls-8, .cls-9 {
        stroke: #000;
      }

      .cls-1, .cls-10, .cls-11, .cls-12, .cls-13, .cls-14, .cls-15, .cls-16, .cls-17, .cls-18, .cls-19, .cls-2, .cls-20, .cls-21, .cls-22, .cls-3, .cls-4, .cls-5, .cls-6, .cls-7, .cls-8, .cls-9 {
        stroke-linecap: round;
        stroke-linejoin: round;
      }

      .cls-1, .cls-11, .cls-13, .cls-14, .cls-18, .cls-19, .cls-2, .cls-20, .cls-21, .cls-22, .cls-24, .cls-4, .cls-6, .cls-7 {
        stroke-width: 0.75px;
      }

      .cls-1 {
        fill: url(#linear-gradient);
      }

      .cls-2 {
        fill: url(#linear-gradient-2);
      }

      .cls-24, .cls-3 {
        fill: none;
      }

      .cls-10, .cls-12, .cls-15, .cls-16, .cls-17, .cls-3, .cls-5, .cls-8, .cls-9 {
        stroke-width: 0.74px;
      }

      .cls-4 {
        fill: url(#linear-gradient-3);
      }

      .cls-5 {
        fill: url(#linear-gradient-4);
      }

      .cls-6 {
        fill: url(#linear-gradient-5);
      }

      .cls-7 {
        fill: url(#linear-gradient-6);
      }

      .cls-8 {
        fill: url(#linear-gradient-7);
      }

      .cls-9 {
        fill: url(#linear-gradient-8);
      }

      .cls-10 {
        fill: url(#linear-gradient-9);
      }

      .cls-11 {
        fill: url(#linear-gradient-10);
      }

      .cls-12 {
        fill: url(#linear-gradient-11);
      }

      .cls-13 {
        fill: url(#linear-gradient-12);
      }

      .cls-14 {
        fill: url(#linear-gradient-13);
      }

      .cls-15 {
        fill: url(#linear-gradient-14);
      }

      .cls-16 {
        fill: url(#linear-gradient-15);
      }

      .cls-17 {
        fill: url(#linear-gradient-16);
      }

      .cls-18 {
        fill: url(#linear-gradient-17);
      }

      .cls-19 {
        fill: url(#linear-gradient-18);
      }

      .cls-20 {
        fill: url(#linear-gradient-19);
      }

      .cls-21 {
        fill: url(#linear-gradient-20);
      }

      .cls-22 {
        fill: url(#linear-gradient-21);
      }

      .cls-23 {
        fill: #231f20;
      }
    </style>
    <linearGradient id="linear-gradient" x1="95.23" y1="44.2" x2="94.85" y2="56.87" gradientUnits="userSpaceOnUse">
      <stop offset="0.12" stop-color="#ccc"/>
      <stop offset="0.27" stop-color="#e7e7e7"/>
      <stop offset="0.4" stop-color="#f9f9f9"/>
      <stop offset="0.5" stop-color="#fff"/>
      <stop offset="0.6" stop-color="#f9f9f9"/>
      <stop offset="0.74" stop-color="#e8e8e8"/>
      <stop offset="0.89" stop-color="#ccc"/>
    </linearGradient>
    <linearGradient id="linear-gradient-2" x1="201.66" y1="31.74" x2="201.33" y2="72.74" xlink:href="#linear-gradient"/>
    <linearGradient id="linear-gradient-3" x1="32.89" y1="39.56" x2="32.89" y2="62.56" xlink:href="#linear-gradient"/>
    <linearGradient id="linear-gradient-4" x1="32.86" y1="39.84" x2="32.86" y2="63.84" gradientUnits="userSpaceOnUse">
      <stop offset="0.12" stop-color="#999"/>
      <stop offset="0.2" stop-color="#b1b1b1"/>
      <stop offset="0.32" stop-color="#cecece"/>
      <stop offset="0.42" stop-color="#e0e0e0"/>
      <stop offset="0.5" stop-color="#e6e6e6"/>
      <stop offset="0.58" stop-color="#e0e0e0"/>
      <stop offset="0.68" stop-color="#cfcfcf"/>
      <stop offset="0.8" stop-color="#b3b3b3"/>
      <stop offset="0.89" stop-color="#999"/>
    </linearGradient>
    <linearGradient id="linear-gradient-5" x1="34.89" y1="30.23" x2="24.86" y2="40.19" xlink:href="#linear-gradient"/>
    <linearGradient id="linear-gradient-6" x1="114.48" y1="39.06" x2="114.48" y2="63.06" xlink:href="#linear-gradient"/>
    <linearGradient id="linear-gradient-7" x1="24.91" y1="39.86" x2="24.91" y2="63.86" xlink:href="#linear-gradient-4"/>
    <linearGradient id="linear-gradient-8" x1="16.31" y1="39.06" x2="16.31" y2="63.06" xlink:href="#linear-gradient-4"/>
    <linearGradient id="linear-gradient-9" x1="21.9" y1="39.06" x2="21.9" y2="63.06" xlink:href="#linear-gradient-4"/>
    <linearGradient id="linear-gradient-10" x1="36.02" y1="147.7" x2="36.02" y2="170.7" xlink:href="#linear-gradient"/>
    <linearGradient id="linear-gradient-11" x1="35.99" y1="147.88" x2="35.99" y2="171.88" xlink:href="#linear-gradient-4"/>
    <linearGradient id="linear-gradient-12" x1="38.01" y1="138.27" x2="27.98" y2="148.24" xlink:href="#linear-gradient"/>
    <linearGradient id="linear-gradient-13" x1="114.28" y1="147.2" x2="114.28" y2="171.2" xlink:href="#linear-gradient"/>
    <linearGradient id="linear-gradient-14" x1="28.03" y1="147.9" x2="28.03" y2="171.9" xlink:href="#linear-gradient-4"/>
    <linearGradient id="linear-gradient-15" x1="19.43" y1="147.1" x2="19.43" y2="171.1" xlink:href="#linear-gradient-4"/>
    <linearGradient id="linear-gradient-16" x1="25.02" y1="147.1" x2="25.02" y2="171.1" xlink:href="#linear-gradient-4"/>
    <linearGradient id="linear-gradient-17" x1="95.71" y1="194.15" x2="95.71" y2="207.4" xlink:href="#linear-gradient"/>
    <linearGradient id="linear-gradient-18" x1="181.98" y1="176.01" x2="181.98" y2="227.01" xlink:href="#linear-gradient"/>
    <linearGradient id="linear-gradient-19" x1="179.6" y1="192.76" x2="179.6" y2="212.76" xlink:href="#linear-gradient"/>
    <linearGradient id="linear-gradient-20" x1="168.39" y1="192.76" x2="168.39" y2="212.76" xlink:href="#linear-gradient"/>
    <linearGradient id="linear-gradient-21" x1="204.47" y1="191.09" x2="204.38" y2="210.29" xlink:href="#linear-gradient"/>
  </defs>
  <title>cncntrc_trmntn_kit</title>
  <g id="termination">
    <g>
      <path class="cls-1" d="M179.68,57H10.32V46.75H179.68ZM96.22,46.75" transform="translate(0 -0.78)"/>
      <g>
        <path class="cls-2" d="M190.34,61.4v3h-6.76l0,1.9a1.7,1.7,0,0,0,.69,1.31l6.05,4.73h5.59L212.1,59.69h7.35V44.4H212.1L195.93,31.75h-5.59l-6.05,4.73a1.7,1.7,0,0,0-.69,1.31l0,1.9,6.76,0v2.72l-5.64,2a1.63,1.63,0,0,0-1.11,1.53v2.7l6.76.06v6.38l-6.76.06v2.7a1.63,1.63,0,0,0,1.11,1.53Z" transform="translate(0 -0.78)"/>
        <path class="cls-3" d="M190.34,72.33V64.52m0-3V55m0-6.25V42.39m0-2.75V31.75M212.1,44.4V59.69m-28.5-12a1.59,1.59,0,0,1,1.2-1.52l5.54-2M183.6,56.07a1.59,1.59,0,0,0,1.2,1.52l5.54,2m5.59,12.76V31.75" transform="translate(0 -0.78)"/>
      </g>
      <polygon class="cls-4" points="45.23 39.8 54.83 39.8 56.3 38.33 65.41 38.33 65.41 64.2 56.3 64.2 54.83 62.73 21.9 62.73 16.31 58.61 9.42 58.58 9.43 59.53 0.38 59.53 0.38 42.99 9.43 42.99 9.42 43.95 16.31 43.91 21.9 39.8 25.96 39.81 45.23 39.8"/>
      <path class="cls-5" d="M56.3,39.1V65m-1.47-24.4V63.51M9.43,43.77V60.31" transform="translate(0 -0.78)"/>
      <path class="cls-6" d="M20.57,35.58l5.38,5h0c8.12,2.5,6,2,13.71,2.09,5.12.08,4.69-1.47,5.56-2.1L30.42,25.73V24.56l-5.37-5.37-11,11,5.37,5.37Z" transform="translate(0 -0.78)"/>
      <polygon class="cls-7" points="160.1 39.5 68.85 39.5 68.85 63.02 159.97 63.02 160.1 39.5"/>
      <path class="cls-8" d="M30.42,24.57l-11,11m11-9.85L20.57,35.6" transform="translate(0 -0.78)"/>
      <line class="cls-9" x1="16.31" y1="43.91" x2="16.31" y2="58.75"/>
      <line class="cls-10" x1="21.9" y1="39.8" x2="21.9" y2="62.56"/>
    </g>
    <g>
      <polygon class="cls-11" points="48.36 147.94 57.95 147.94 59.42 146.47 68.54 146.47 68.54 172.34 59.42 172.34 57.95 170.87 25.02 170.87 19.43 166.75 12.54 166.72 12.55 167.67 3.5 167.67 3.5 151.14 12.55 151.14 12.54 152.09 19.43 152.05 25.02 147.94 29.08 147.95 48.36 147.94"/>
      <path class="cls-12" d="M59.42,147.15V173M58,148.62v22.93m-45.4-19.74v16.54" transform="translate(0 -0.78)"/>
      <path class="cls-13" d="M23.7,143.63l5.38,5h0c8.13,2.5,6,2,13.71,2.09,5.12.08,4.69-1.47,5.56-2.1L33.55,133.78V132.6l-5.37-5.37-11,11,5.37,5.37Z" transform="translate(0 -0.78)"/>
      <polygon class="cls-14" points="159.91 147.64 68.66 147.64 68.66 171.16 159.78 171.16 159.91 147.64"/>
      <path class="cls-15" d="M33.55,132.62l-11,11m11-9.85-9.85,9.85" transform="translate(0 -0.78)"/>
      <line class="cls-16" x1="19.43" y1="151.96" x2="19.43" y2="166.8"/>
      <line class="cls-17" x1="25.02" y1="147.84" x2="25.02" y2="170.6"/>
    </g>
    <g>
      <polygon class="cls-18" points="164.05 207.11 164.07 204.84 172.52 204.84 172.52 196.7 164.05 196.7 164.05 194.42 18.89 194.4 18.89 207.26 164.05 207.17 164.05 207.11"/>
      <g>
        <g>
          <path class="cls-19" d="M164.14,208l0,1.1a2,2,0,0,0,1.38,1.92l7,2.59v3.31h-8.45l0,2.38a2.12,2.12,0,0,0,.86,1.64l7.57,5.91h7L199.81,211h0V191.89h0l-20.21-15.8h-7L165,182a2.13,2.13,0,0,0-.86,1.64l0,2.38h8.45v3.74l-7,2.53a2,2,0,0,0-1.38,1.92l0,1v2.34h8.47v8.14h-8.45Z" transform="translate(0 -0.78)"/>
          <path class="cls-3" d="M164.16,196.1a2,2,0,0,1,1.5-1.9l6.93-2.47" transform="translate(0 -0.78)"/>
          <path class="cls-3" d="M164.17,206.53a2,2,0,0,0,1.5,1.9l6.93,2.47" transform="translate(0 -0.78)"/>
          <path class="cls-20" d="M179.6,226.87V176.15" transform="translate(0 -0.78)"/>
          <path class="cls-21" d="M164.17,195.32v1.16m8.45-10.41v-9.92m0,37.54V189.82m0,37.05v-9.93" transform="translate(0 -0.78)"/>
        </g>
        <rect class="cls-22" x="199.83" y="191.11" width="9.19" height="19.11"/>
      </g>
    </g>
  </g>
  <g id="text">
    <g>
      <path class="cls-23" d="M1.21,226.81v-5H4.59v.59H1.87v1.55H4.22v.59H1.87v2.28Z" transform="translate(0 -0.78)"/>
      <path class="cls-23" d="M5.25,224.37a2.72,2.72,0,0,1,.67-2,2.28,2.28,0,0,1,1.73-.71A2.39,2.39,0,0,1,8.9,222a2.15,2.15,0,0,1,.85.92,3,3,0,0,1,.29,1.35,3,3,0,0,1-.31,1.36,2.09,2.09,0,0,1-.87.91,2.49,2.49,0,0,1-1.22.31,2.37,2.37,0,0,1-1.26-.34,2.2,2.2,0,0,1-.84-.93A2.83,2.83,0,0,1,5.25,224.37Zm.68,0a2,2,0,0,0,.49,1.43,1.6,1.6,0,0,0,1.22.52,1.6,1.6,0,0,0,1.23-.53,2.13,2.13,0,0,0,.48-1.49,2.56,2.56,0,0,0-.21-1.07,1.59,1.59,0,0,0-.61-.71,1.63,1.63,0,0,0-.89-.25,1.7,1.7,0,0,0-1.21.48A2.16,2.16,0,0,0,5.93,224.38Z" transform="translate(0 -0.78)"/>
      <path class="cls-23" d="M14.18,221.8h.66v2.9a3.44,3.44,0,0,1-.17,1.2,1.46,1.46,0,0,1-.62.72,2.18,2.18,0,0,1-1.17.28,2.4,2.4,0,0,1-1.15-.24,1.38,1.38,0,0,1-.64-.7,3.34,3.34,0,0,1-.19-1.26v-2.9h.66v2.89a2.81,2.81,0,0,0,.12,1,.93.93,0,0,0,.42.48,1.45,1.45,0,0,0,.72.17,1.38,1.38,0,0,0,1-.33,1.92,1.92,0,0,0,.31-1.28Z" transform="translate(0 -0.78)"/>
      <path class="cls-23" d="M16,226.81v-5h2.22a3,3,0,0,1,1,.13,1.11,1.11,0,0,1,.56.48,1.42,1.42,0,0,1,.21.75,1.26,1.26,0,0,1-.35.9,1.75,1.75,0,0,1-1.07.46,1.72,1.72,0,0,1,.4.25,3.46,3.46,0,0,1,.55.67l.87,1.36h-.83l-.66-1c-.19-.3-.35-.53-.48-.69a1.52,1.52,0,0,0-.34-.34,1,1,0,0,0-.3-.13,2,2,0,0,0-.37,0h-.77v2.22Zm.66-2.8H18a2.13,2.13,0,0,0,.71-.09.76.76,0,0,0,.39-.3.82.82,0,0,0,.13-.45.75.75,0,0,0-.26-.58,1.21,1.21,0,0,0-.82-.23H16.62Z" transform="translate(0 -0.78)"/>
      <path class="cls-23" d="M20.69,225.31v-.62h1.89v.62Z" transform="translate(0 -0.78)"/>
      <path class="cls-23" d="M23.34,226.81v-5h1.89a4.53,4.53,0,0,1,.76,0,1.5,1.5,0,0,1,.62.23,1.23,1.23,0,0,1,.4.48,1.63,1.63,0,0,1-.25,1.77,2,2,0,0,1-1.47.44H24v2Zm.66-2.63h1.29a1.38,1.38,0,0,0,.91-.24.85.85,0,0,0,.27-.67.91.91,0,0,0-.16-.54.74.74,0,0,0-.42-.3,2.85,2.85,0,0,0-.62,0H24Z" transform="translate(0 -0.78)"/>
      <path class="cls-23" d="M28.12,226.81v-5h.66v5Z" transform="translate(0 -0.78)"/>
      <path class="cls-23" d="M30,226.81v-5h3.62v.59h-3v1.54H33.4v.59H30.63v1.71H33.7v.59Z" transform="translate(0 -0.78)"/>
      <path class="cls-23" d="M38.2,225.05l.66.17a2.23,2.23,0,0,1-.75,1.25,2.07,2.07,0,0,1-1.32.43,2.39,2.39,0,0,1-1.32-.33,2.06,2.06,0,0,1-.77-1,3.41,3.41,0,0,1-.27-1.34,3,3,0,0,1,.3-1.37,2.06,2.06,0,0,1,.85-.89,2.49,2.49,0,0,1,1.21-.3,2.05,2.05,0,0,1,1.27.38,2,2,0,0,1,.71,1.08l-.65.15a1.54,1.54,0,0,0-.51-.8,1.35,1.35,0,0,0-.83-.25,1.62,1.62,0,0,0-1,.28,1.46,1.46,0,0,0-.54.74,3,3,0,0,0-.16,1,3,3,0,0,0,.19,1.12,1.38,1.38,0,0,0,.58.71,1.63,1.63,0,0,0,.85.24,1.43,1.43,0,0,0,.94-.32A1.65,1.65,0,0,0,38.2,225.05Z" transform="translate(0 -0.78)"/>
      <path class="cls-23" d="M39.69,226.81v-5h3.62v.59h-3v1.54h2.77v.59H40.35v1.71h3.08v.59Z" transform="translate(0 -0.78)"/>
      <path class="cls-23" d="M46.26,226.81v-5h.66v2.49l2.49-2.49h.9l-2.1,2,2.2,3h-.87l-1.79-2.54-.82.8v1.74Z" transform="translate(0 -0.78)"/>
      <path class="cls-23" d="M51.07,226.81v-5h.66v5Z" transform="translate(0 -0.78)"/>
      <path class="cls-23" d="M54.18,226.81v-4.42H52.53v-.59h4v.59H54.84v4.42Z" transform="translate(0 -0.78)"/>
      <path class="cls-23" d="M58.68,225.31v-.62h1.89v.62Z" transform="translate(0 -0.78)"/>
      <path class="cls-23" d="M63.31,226.81v-5h3.38v.59H64v1.55h2.35v.59H64v2.28Z" transform="translate(0 -0.78)"/>
      <path class="cls-23" d="M67.66,226.81v-5h.66v5Z" transform="translate(0 -0.78)"/>
      <path class="cls-23" d="M69.51,226.81v-5h3.62v.59h-3v1.54h2.77v.59H70.17v1.71h3.08v.59Z" transform="translate(0 -0.78)"/>
      <path class="cls-23" d="M74.13,226.81v-5h.66v4.42h2.47v.59Z" transform="translate(0 -0.78)"/>
      <path class="cls-23" d="M78.05,226.81v-5h1.73a4.26,4.26,0,0,1,.89.07,1.71,1.71,0,0,1,.73.36,2.06,2.06,0,0,1,.59.86,3.36,3.36,0,0,1,.2,1.19,3.49,3.49,0,0,1-.13,1,2.45,2.45,0,0,1-.34.73,1.8,1.8,0,0,1-.46.45,1.83,1.83,0,0,1-.6.25,3.38,3.38,0,0,1-.8.09Zm.66-.59h1.07a2.61,2.61,0,0,0,.78-.09,1.12,1.12,0,0,0,.45-.26,1.59,1.59,0,0,0,.37-.63,3.1,3.1,0,0,0,.13-1,2.33,2.33,0,0,0-.26-1.21,1.3,1.3,0,0,0-.63-.57,2.59,2.59,0,0,0-.86-.1H78.72Z" transform="translate(0 -0.78)"/>
      <path class="cls-23" d="M84.12,226.81l1.92-5h.71l2.05,5h-.76l-.58-1.52h-2.1l-.55,1.52Zm1.45-2.06h1.7l-.52-1.39c-.16-.42-.28-.77-.36-1a6.57,6.57,0,0,1-.27,1Z" transform="translate(0 -0.78)"/>
      <path class="cls-23" d="M89.11,225.2l.63-.05a1.37,1.37,0,0,0,.21.62,1.12,1.12,0,0,0,.5.39,1.9,1.9,0,0,0,.77.15,1.85,1.85,0,0,0,.67-.11.93.93,0,0,0,.43-.31.72.72,0,0,0,.14-.43.65.65,0,0,0-.14-.41,1,1,0,0,0-.45-.3,8.93,8.93,0,0,0-.89-.24,4.56,4.56,0,0,1-1-.31,1.36,1.36,0,0,1-.54-.47,1.14,1.14,0,0,1-.18-.62,1.27,1.27,0,0,1,.22-.71,1.33,1.33,0,0,1,.63-.5,2.4,2.4,0,0,1,.92-.17,2.52,2.52,0,0,1,1,.18,1.42,1.42,0,0,1,.66.53,1.52,1.52,0,0,1,.25.79l-.64,0a1,1,0,0,0-.35-.72,1.35,1.35,0,0,0-.87-.24,1.4,1.4,0,0,0-.88.22.66.66,0,0,0-.27.53.57.57,0,0,0,.19.44,2.64,2.64,0,0,0,1,.36,6.67,6.67,0,0,1,1.11.32,1.52,1.52,0,0,1,.65.51,1.25,1.25,0,0,1,.21.71,1.36,1.36,0,0,1-.23.75,1.51,1.51,0,0,1-.66.55,2.29,2.29,0,0,1-1,.2,2.87,2.87,0,0,1-1.14-.2,1.59,1.59,0,0,1-.72-.6A1.69,1.69,0,0,1,89.11,225.2Z" transform="translate(0 -0.78)"/>
      <path class="cls-23" d="M93.78,225.2l.63-.05a1.4,1.4,0,0,0,.21.62,1.12,1.12,0,0,0,.5.39,1.9,1.9,0,0,0,.77.15,1.84,1.84,0,0,0,.67-.11.93.93,0,0,0,.43-.31.71.71,0,0,0,.14-.43A.65.65,0,0,0,97,225a1,1,0,0,0-.45-.3,9,9,0,0,0-.89-.24,4.57,4.57,0,0,1-1-.31,1.36,1.36,0,0,1-.54-.47,1.14,1.14,0,0,1-.18-.62,1.28,1.28,0,0,1,.21-.71,1.34,1.34,0,0,1,.63-.5,2.4,2.4,0,0,1,.92-.17,2.52,2.52,0,0,1,1,.18,1.42,1.42,0,0,1,.65.53,1.51,1.51,0,0,1,.25.79l-.63,0a1,1,0,0,0-.35-.72,1.35,1.35,0,0,0-.87-.24,1.4,1.4,0,0,0-.88.22.66.66,0,0,0-.28.53.57.57,0,0,0,.2.44,2.64,2.64,0,0,0,1,.36,6.69,6.69,0,0,1,1.11.32,1.53,1.53,0,0,1,.65.51,1.24,1.24,0,0,1,.21.71,1.37,1.37,0,0,1-.23.75,1.51,1.51,0,0,1-.66.55,2.29,2.29,0,0,1-1,.2,2.87,2.87,0,0,1-1.14-.2,1.59,1.59,0,0,1-.72-.6A1.69,1.69,0,0,1,93.78,225.2Z" transform="translate(0 -0.78)"/>
      <path class="cls-23" d="M98.69,226.81v-5h3.62v.59h-3v1.54h2.77v.59H99.35v1.71h3.08v.59Z" transform="translate(0 -0.78)"/>
      <path class="cls-23" d="M103.32,226.81v-5h1l1.19,3.55.24.74q.08-.27.27-.8l1.2-3.49h.89v5h-.64v-4.19L106,226.81h-.6L104,222.54v4.27Z" transform="translate(0 -0.78)"/>
      <path class="cls-23" d="M109.15,226.81v-5H111a2.32,2.32,0,0,1,.92.15,1.19,1.19,0,0,1,.54.47,1.24,1.24,0,0,1,.2.66,1.14,1.14,0,0,1-.17.6,1.25,1.25,0,0,1-.53.46,1.3,1.3,0,0,1,.7.46,1.21,1.21,0,0,1,.24.76,1.46,1.46,0,0,1-.15.66,1.26,1.26,0,0,1-.37.47,1.53,1.53,0,0,1-.55.25,3.34,3.34,0,0,1-.81.08Zm.66-2.91h1.08a2.45,2.45,0,0,0,.63-.06.71.71,0,0,0,.38-.25.72.72,0,0,0,.13-.44.81.81,0,0,0-.12-.44.61.61,0,0,0-.34-.26,2.84,2.84,0,0,0-.76-.07h-1Zm0,2.31h1.25a2.92,2.92,0,0,0,.45,0,1.08,1.08,0,0,0,.38-.14.72.72,0,0,0,.25-.28.88.88,0,0,0,.1-.42.83.83,0,0,0-.14-.49.76.76,0,0,0-.4-.29,2.47,2.47,0,0,0-.73-.08h-1.16Z" transform="translate(0 -0.78)"/>
      <path class="cls-23" d="M113.82,226.81v-5h.66v4.42h2.47v.59Z" transform="translate(0 -0.78)"/>
      <path class="cls-23" d="M118.63,226.81v-2.12l-1.93-2.89h.81l1,1.51q.27.42.51.85.23-.39.55-.88l1-1.47h.77l-2,2.89v2.12Z" transform="translate(0 -0.78)"/>
      <path class="cls-23" d="M123.72,226.81v-5h2.22a3,3,0,0,1,1,.13,1.11,1.11,0,0,1,.56.48,1.42,1.42,0,0,1,.21.75,1.26,1.26,0,0,1-.35.9,1.75,1.75,0,0,1-1.07.46,1.72,1.72,0,0,1,.4.25,3.42,3.42,0,0,1,.55.67l.87,1.36h-.83l-.66-1q-.29-.45-.48-.69a1.52,1.52,0,0,0-.34-.34,1,1,0,0,0-.3-.13,2,2,0,0,0-.37,0h-.77v2.22Zm.66-2.8h1.43a2.14,2.14,0,0,0,.71-.09.76.76,0,0,0,.39-.3.81.81,0,0,0,.13-.45.75.75,0,0,0-.26-.58,1.21,1.21,0,0,0-.82-.23h-1.59Z" transform="translate(0 -0.78)"/>
      <path class="cls-23" d="M128.77,226.81v-5h3.62v.59h-3v1.54h2.77v.59h-2.77v1.71h3.08v.59Z" transform="translate(0 -0.78)"/>
      <path class="cls-23" d="M137.23,226.27a4,4,0,0,0,.85.46l-.19.46a3.9,3.9,0,0,1-1.08-.62,2.48,2.48,0,0,1-1.23.31,2.37,2.37,0,0,1-1.23-.33,2.19,2.19,0,0,1-.85-.92,2.94,2.94,0,0,1-.3-1.34,3,3,0,0,1,.3-1.35,2.11,2.11,0,0,1,.86-.93,2.45,2.45,0,0,1,1.24-.32,2.41,2.41,0,0,1,1.25.33,2.16,2.16,0,0,1,.85.92,3,3,0,0,1,.29,1.34,3.09,3.09,0,0,1-.19,1.11A2.33,2.33,0,0,1,137.23,226.27Zm-1.46-.85a2.47,2.47,0,0,1,.95.48,2.06,2.06,0,0,0,.58-1.6,2.55,2.55,0,0,0-.21-1.06,1.58,1.58,0,0,0-.6-.71,1.73,1.73,0,0,0-2.12.26,2.11,2.11,0,0,0-.49,1.52,2.13,2.13,0,0,0,.48,1.5,1.61,1.61,0,0,0,1.24.52,1.69,1.69,0,0,0,.67-.13,2.13,2.13,0,0,0-.66-.29Z" transform="translate(0 -0.78)"/>
      <path class="cls-23" d="M142.16,221.8h.66v2.9a3.42,3.42,0,0,1-.17,1.2,1.46,1.46,0,0,1-.62.72,2.18,2.18,0,0,1-1.17.28,2.4,2.4,0,0,1-1.15-.24,1.38,1.38,0,0,1-.64-.7,3.34,3.34,0,0,1-.19-1.26v-2.9h.66v2.89a2.81,2.81,0,0,0,.12,1,.93.93,0,0,0,.42.48,1.45,1.45,0,0,0,.72.17,1.39,1.39,0,0,0,1-.33,1.92,1.92,0,0,0,.31-1.28Z" transform="translate(0 -0.78)"/>
      <path class="cls-23" d="M144,226.81v-5h.66v5Z" transform="translate(0 -0.78)"/>
      <path class="cls-23" d="M145.89,226.81v-5h2.22a3,3,0,0,1,1,.13,1.11,1.11,0,0,1,.56.48,1.42,1.42,0,0,1,.21.75,1.26,1.26,0,0,1-.35.9,1.75,1.75,0,0,1-1.07.46,1.72,1.72,0,0,1,.4.25,3.42,3.42,0,0,1,.55.67l.87,1.36h-.83l-.66-1q-.29-.45-.48-.69a1.52,1.52,0,0,0-.34-.34,1,1,0,0,0-.3-.13,2,2,0,0,0-.37,0h-.77v2.22Zm.66-2.8H148a2.14,2.14,0,0,0,.71-.09.76.76,0,0,0,.39-.3.81.81,0,0,0,.13-.45.75.75,0,0,0-.26-.58,1.21,1.21,0,0,0-.82-.23h-1.59Z" transform="translate(0 -0.78)"/>
      <path class="cls-23" d="M150.94,226.81v-5h3.62v.59h-3v1.54h2.77v.59h-2.77v1.71h3.08v.59Z" transform="translate(0 -0.78)"/>
      <path class="cls-23" d="M155.6,226.81v-5h1.73a4.26,4.26,0,0,1,.89.07,1.7,1.7,0,0,1,.73.36,2,2,0,0,1,.59.86,3.36,3.36,0,0,1,.2,1.19,3.46,3.46,0,0,1-.13,1,2.41,2.41,0,0,1-.34.73,1.81,1.81,0,0,1-.46.45,1.85,1.85,0,0,1-.6.25,3.38,3.38,0,0,1-.81.09Zm.66-.59h1.07a2.6,2.6,0,0,0,.78-.09,1.12,1.12,0,0,0,.45-.26,1.58,1.58,0,0,0,.37-.63,3.1,3.1,0,0,0,.13-1,2.33,2.33,0,0,0-.26-1.21,1.3,1.3,0,0,0-.63-.57,2.58,2.58,0,0,0-.86-.1h-1.05Z" transform="translate(0 -0.78)"/>
    </g>
    <g>
      <path class="cls-23" d="M153,18.14l-1.66-4.29h.62L153,17c.09.25.17.48.23.7.07-.23.14-.47.23-.7l1.16-3.12h.58l-1.68,4.29Z" transform="translate(0 -0.78)"/>
      <path class="cls-23" d="M155.74,18.14V13.85h3.11v.51h-2.54v1.32h2.38v.5h-2.38v1.46h2.64v.51Z" transform="translate(0 -0.78)"/>
      <path class="cls-23" d="M159.72,18.14V13.85h.58l2.26,3.37V13.85h.54v4.29h-.58l-2.26-3.38v3.38Z" transform="translate(0 -0.78)"/>
      <path class="cls-23" d="M165.16,18.14V14.35h-1.41v-.51h3.4v.51h-1.42v3.79Z" transform="translate(0 -0.78)"/>
      <path class="cls-23" d="M169.29,18.14V13.85h1.62a3.9,3.9,0,0,1,.65,0,1.3,1.3,0,0,1,.53.2,1.05,1.05,0,0,1,.34.41,1.4,1.4,0,0,1-.22,1.51,1.67,1.67,0,0,1-1.26.38h-1.1v1.75Zm.57-2.25H171a1.17,1.17,0,0,0,.78-.21.73.73,0,0,0,.23-.58.78.78,0,0,0-.14-.46.64.64,0,0,0-.36-.25,2.42,2.42,0,0,0-.53,0h-1.1Z" transform="translate(0 -0.78)"/>
      <path class="cls-23" d="M173.39,18.14V13.85H174v4.29Z" transform="translate(0 -0.78)"/>
      <path class="cls-23" d="M175,18.14V13.85h1.62a3.92,3.92,0,0,1,.65,0,1.29,1.29,0,0,1,.53.2,1.05,1.05,0,0,1,.34.41,1.4,1.4,0,0,1-.22,1.51,1.67,1.67,0,0,1-1.26.38h-1.1v1.75Zm.57-2.25h1.11a1.18,1.18,0,0,0,.78-.21.73.73,0,0,0,.23-.58.77.77,0,0,0-.14-.46.64.64,0,0,0-.36-.25,2.44,2.44,0,0,0-.53,0h-1.1Z" transform="translate(0 -0.78)"/>
      <path class="cls-23" d="M179,18.14V13.85h3.11v.51h-2.54v1.32h2.38v.5h-2.37v1.46h2.64v.51Z" transform="translate(0 -0.78)"/>
    </g>
    <g>
      <path class="cls-23" d="M35.28,5.15V.85h.57V5.15Z" transform="translate(0 -0.78)"/>
      <path class="cls-23" d="M36.84,5.15V.85h.58l2.26,3.37V.85h.54V5.15h-.58L37.39,1.77V5.15Z" transform="translate(0 -0.78)"/>
      <path class="cls-23" d="M42.27,5.15V1.36H40.86V.85h3.4v.51H42.84V5.15Z" transform="translate(0 -0.78)"/>
      <path class="cls-23" d="M43.93,5.15,45.58.85h.61l1.76,4.29H47.3l-.5-1.3H45l-.47,1.3Zm1.24-1.76h1.46L46.18,2.2q-.21-.54-.3-.89a5.48,5.48,0,0,1-.23.82Z" transform="translate(0 -0.78)"/>
      <path class="cls-23" d="M48.38,5.15V.85h.57V3L51.08.85h.77L50,2.59l1.88,2.55h-.75L49.65,3l-.7.69V5.15Z" transform="translate(0 -0.78)"/>
      <path class="cls-23" d="M52.42,5.15V.85h3.11v.51H53V2.68h2.38v.5H53V4.64h2.64v.51Z" transform="translate(0 -0.78)"/>
      <path class="cls-23" d="M57.27,5.15,58.92.85h.61l1.76,4.29h-.65l-.5-1.3h-1.8l-.47,1.3Zm1.24-1.76H60L59.52,2.2q-.21-.54-.3-.89a5.48,5.48,0,0,1-.23.82Z" transform="translate(0 -0.78)"/>
      <path class="cls-23" d="M61.84,5.15V.85h.57V5.15Z" transform="translate(0 -0.78)"/>
      <path class="cls-23" d="M63.42,5.15V.85h1.9A2.56,2.56,0,0,1,66.2,1a1,1,0,0,1,.48.41,1.22,1.22,0,0,1,.18.65,1.08,1.08,0,0,1-.3.77,1.5,1.5,0,0,1-.91.4,1.47,1.47,0,0,1,.34.21,3,3,0,0,1,.47.57l.75,1.17h-.71l-.57-.89q-.25-.39-.41-.59a1.27,1.27,0,0,0-.29-.29A.84.84,0,0,0,65,3.26l-.32,0H64V5.15ZM64,2.75h1.22a1.81,1.81,0,0,0,.61-.08.64.64,0,0,0,.33-.26A.69.69,0,0,0,66.27,2a.64.64,0,0,0-.22-.5,1,1,0,0,0-.7-.2H64Z" transform="translate(0 -0.78)"/>
      <path class="cls-23" d="M72.48,3.64l.57.14a1.9,1.9,0,0,1-.64,1.07,1.76,1.76,0,0,1-1.13.37,2,2,0,0,1-1.13-.28,1.75,1.75,0,0,1-.66-.82A2.9,2.9,0,0,1,69.25,3,2.52,2.52,0,0,1,69.5,1.8,1.76,1.76,0,0,1,70.23,1a2.15,2.15,0,0,1,1-.26,1.76,1.76,0,0,1,1.08.33A1.7,1.7,0,0,1,73,2l-.56.13A1.33,1.33,0,0,0,72,1.48a1.16,1.16,0,0,0-.71-.21,1.38,1.38,0,0,0-.83.24,1.25,1.25,0,0,0-.47.64,2.57,2.57,0,0,0-.13.83,2.64,2.64,0,0,0,.16,1,1.19,1.19,0,0,0,.5.61,1.39,1.39,0,0,0,.73.2A1.22,1.22,0,0,0,72,4.46,1.41,1.41,0,0,0,72.48,3.64Z" transform="translate(0 -0.78)"/>
      <path class="cls-23" d="M73.57,3.06a2.33,2.33,0,0,1,.57-1.67A2,2,0,0,1,75.63.78a2.06,2.06,0,0,1,1.07.28,1.85,1.85,0,0,1,.73.79A2.57,2.57,0,0,1,77.68,3a2.53,2.53,0,0,1-.26,1.17,1.8,1.8,0,0,1-.75.78,2.13,2.13,0,0,1-1,.26,2,2,0,0,1-1.08-.29,1.89,1.89,0,0,1-.72-.8A2.42,2.42,0,0,1,73.57,3.06Zm.59,0a1.73,1.73,0,0,0,.42,1.22,1.46,1.46,0,0,0,2.1,0A1.82,1.82,0,0,0,77.09,3a2.22,2.22,0,0,0-.18-.92,1.37,1.37,0,0,0-.52-.61,1.4,1.4,0,0,0-.77-.22,1.46,1.46,0,0,0-1,.42A1.85,1.85,0,0,0,74.16,3.07Z" transform="translate(0 -0.78)"/>
      <path class="cls-23" d="M78.41,5.15V.85H79l2.26,3.37V.85h.54V5.15h-.58L79,1.77V5.15Z" transform="translate(0 -0.78)"/>
      <path class="cls-23" d="M82.74,5.15V.85h.58l2.26,3.37V.85h.54V5.15h-.58L83.28,1.77V5.15Z" transform="translate(0 -0.78)"/>
      <path class="cls-23" d="M87.09,5.15V.85h3.11v.51H87.66V2.68H90v.5H87.66V4.64h2.64v.51Z" transform="translate(0 -0.78)"/>
      <path class="cls-23" d="M94.14,3.64l.57.14a1.91,1.91,0,0,1-.64,1.07,1.77,1.77,0,0,1-1.14.37,2,2,0,0,1-1.13-.28,1.77,1.77,0,0,1-.66-.82A2.92,2.92,0,0,1,90.92,3a2.53,2.53,0,0,1,.26-1.17A1.76,1.76,0,0,1,91.9,1a2.14,2.14,0,0,1,1-.26A1.76,1.76,0,0,1,94,1.11a1.7,1.7,0,0,1,.61.92l-.56.13a1.33,1.33,0,0,0-.43-.68,1.16,1.16,0,0,0-.71-.21,1.39,1.39,0,0,0-.83.24,1.26,1.26,0,0,0-.47.64A2.57,2.57,0,0,0,91.5,3a2.59,2.59,0,0,0,.16,1,1.18,1.18,0,0,0,.5.61,1.39,1.39,0,0,0,.73.2,1.22,1.22,0,0,0,.81-.28A1.41,1.41,0,0,0,94.14,3.64Z" transform="translate(0 -0.78)"/>
      <path class="cls-23" d="M96.5,5.15V1.36H95.09V.85h3.4v.51H97.07V5.15Z" transform="translate(0 -0.78)"/>
      <path class="cls-23" d="M99.17,5.15V.85h.57V5.15Z" transform="translate(0 -0.78)"/>
      <path class="cls-23" d="M100.57,3.06a2.33,2.33,0,0,1,.57-1.67,2,2,0,0,1,1.48-.61,2.06,2.06,0,0,1,1.07.28,1.85,1.85,0,0,1,.73.79A2.57,2.57,0,0,1,104.68,3a2.53,2.53,0,0,1-.26,1.17,1.8,1.8,0,0,1-.75.78,2.13,2.13,0,0,1-1,.26,2,2,0,0,1-1.08-.29,1.89,1.89,0,0,1-.72-.8A2.42,2.42,0,0,1,100.57,3.06Zm.59,0a1.73,1.73,0,0,0,.42,1.22,1.46,1.46,0,0,0,2.1,0A1.82,1.82,0,0,0,104.09,3a2.22,2.22,0,0,0-.18-.92,1.37,1.37,0,0,0-.52-.61,1.4,1.4,0,0,0-.77-.22,1.46,1.46,0,0,0-1,.42A1.85,1.85,0,0,0,101.16,3.07Z" transform="translate(0 -0.78)"/>
      <path class="cls-23" d="M105.41,5.15V.85H106l2.26,3.37V.85h.54V5.15h-.58L106,1.77V5.15Z" transform="translate(0 -0.78)"/>
    </g>
    <g>
      <path class="cls-23" d="M22,74.6,20.29,70.3h.62L22,73.42q.13.38.23.7.1-.35.23-.7l1.16-3.12h.58L22.54,74.6Z" transform="translate(0 -0.78)"/>
      <path class="cls-23" d="M24.74,74.6V70.3h3.11v.51H25.31v1.32h2.38v.5H25.31v1.46h2.64v.51Z" transform="translate(0 -0.78)"/>
      <path class="cls-23" d="M28.73,74.6V70.3h.58l2.26,3.37V70.3h.54V74.6h-.58l-2.26-3.37V74.6Z" transform="translate(0 -0.78)"/>
      <path class="cls-23" d="M34.16,74.6V70.81H32.74V70.3h3.4v.51H34.73V74.6Z" transform="translate(0 -0.78)"/>
      <path class="cls-23" d="M41.35,73.09l.57.14a1.91,1.91,0,0,1-.64,1.07,1.77,1.77,0,0,1-1.14.37A2,2,0,0,1,39,74.39a1.77,1.77,0,0,1-.66-.82,2.92,2.92,0,0,1-.23-1.15,2.53,2.53,0,0,1,.26-1.17,1.76,1.76,0,0,1,.73-.76,2.14,2.14,0,0,1,1-.26,1.76,1.76,0,0,1,1.08.33,1.7,1.7,0,0,1,.61.92l-.56.13a1.33,1.33,0,0,0-.43-.68,1.16,1.16,0,0,0-.71-.21,1.39,1.39,0,0,0-.83.24,1.26,1.26,0,0,0-.47.64,2.57,2.57,0,0,0-.13.83,2.61,2.61,0,0,0,.16,1,1.19,1.19,0,0,0,.5.61,1.39,1.39,0,0,0,.73.2,1.22,1.22,0,0,0,.81-.28A1.41,1.41,0,0,0,41.35,73.09Z" transform="translate(0 -0.78)"/>
      <path class="cls-23" d="M42.45,72.51A2.33,2.33,0,0,1,43,70.83a2,2,0,0,1,1.48-.61,2.06,2.06,0,0,1,1.07.28,1.86,1.86,0,0,1,.73.79,2.58,2.58,0,0,1,.25,1.15,2.53,2.53,0,0,1-.26,1.17,1.8,1.8,0,0,1-.75.78,2.13,2.13,0,0,1-1,.26,2,2,0,0,1-1.08-.29,1.89,1.89,0,0,1-.72-.8A2.42,2.42,0,0,1,42.45,72.51Zm.59,0a1.72,1.72,0,0,0,.42,1.22,1.46,1.46,0,0,0,2.1,0A1.82,1.82,0,0,0,46,72.45a2.21,2.21,0,0,0-.18-.92,1.36,1.36,0,0,0-.52-.61,1.4,1.4,0,0,0-.77-.22,1.45,1.45,0,0,0-1,.42A1.85,1.85,0,0,0,43,72.52Z" transform="translate(0 -0.78)"/>
      <path class="cls-23" d="M47.28,74.6V70.3h.58l2.26,3.37V70.3h.54V74.6h-.58l-2.26-3.37V74.6Z" transform="translate(0 -0.78)"/>
      <path class="cls-23" d="M51.62,74.6V70.3h.58l2.26,3.37V70.3H55V74.6h-.58l-2.26-3.37V74.6Z" transform="translate(0 -0.78)"/>
      <path class="cls-23" d="M56,74.6V70.3h3.11v.51H56.53v1.32h2.38v.5H56.53v1.46h2.64v.51Z" transform="translate(0 -0.78)"/>
      <path class="cls-23" d="M63,73.09l.57.14a1.91,1.91,0,0,1-.64,1.07,1.77,1.77,0,0,1-1.14.37,2,2,0,0,1-1.13-.28,1.77,1.77,0,0,1-.66-.82,2.92,2.92,0,0,1-.23-1.15A2.53,2.53,0,0,1,60,71.25a1.76,1.76,0,0,1,.73-.76,2.14,2.14,0,0,1,1-.26,1.76,1.76,0,0,1,1.08.33,1.7,1.7,0,0,1,.61.92l-.56.13a1.33,1.33,0,0,0-.43-.68,1.16,1.16,0,0,0-.71-.21A1.39,1.39,0,0,0,61,71a1.26,1.26,0,0,0-.47.64,2.77,2.77,0,0,0,0,1.78A1.18,1.18,0,0,0,61,74a1.39,1.39,0,0,0,.73.2,1.22,1.22,0,0,0,.81-.28A1.41,1.41,0,0,0,63,73.09Z" transform="translate(0 -0.78)"/>
      <path class="cls-23" d="M65.38,74.6V70.81H64V70.3h3.4v.51H66V74.6Z" transform="translate(0 -0.78)"/>
      <path class="cls-23" d="M68.05,74.6V70.3h.57V74.6Z" transform="translate(0 -0.78)"/>
      <path class="cls-23" d="M69.45,72.51A2.33,2.33,0,0,1,70,70.83a2,2,0,0,1,1.48-.61,2.06,2.06,0,0,1,1.07.28,1.85,1.85,0,0,1,.73.79,2.57,2.57,0,0,1,.25,1.15,2.53,2.53,0,0,1-.26,1.17,1.8,1.8,0,0,1-.75.78,2.13,2.13,0,0,1-1,.26,2,2,0,0,1-1.08-.29,1.89,1.89,0,0,1-.72-.8A2.42,2.42,0,0,1,69.45,72.51Zm.59,0a1.73,1.73,0,0,0,.42,1.22,1.46,1.46,0,0,0,2.1,0A1.82,1.82,0,0,0,73,72.45a2.22,2.22,0,0,0-.18-.92,1.37,1.37,0,0,0-.52-.61,1.4,1.4,0,0,0-.77-.22,1.46,1.46,0,0,0-1,.42A1.85,1.85,0,0,0,70,72.52Z" transform="translate(0 -0.78)"/>
      <path class="cls-23" d="M74.28,74.6V70.3h.58l2.26,3.37V70.3h.54V74.6h-.58l-2.26-3.37V74.6Z" transform="translate(0 -0.78)"/>
    </g>
    <g>
      <path class="cls-23" d="M86,137.62v-4.29h.57v4.29Z" transform="translate(0 -0.78)"/>
      <path class="cls-23" d="M87.55,137.62v-4.29h.58l2.26,3.37v-3.37h.54v4.29h-.58l-2.26-3.37v3.38Z" transform="translate(0 -0.78)"/>
      <path class="cls-23" d="M93,137.62v-3.79H91.57v-.51H95v.51H93.55v3.79Z" transform="translate(0 -0.78)"/>
      <path class="cls-23" d="M94.64,137.62l1.65-4.29h.61l1.76,4.29H98l-.5-1.3h-1.8l-.47,1.3Zm1.24-1.76h1.46l-.45-1.19q-.21-.54-.3-.89a5.48,5.48,0,0,1-.23.82Z" transform="translate(0 -0.78)"/>
      <path class="cls-23" d="M99.09,137.62v-4.29h.57v2.13l2.13-2.13h.77l-1.8,1.74,1.88,2.55h-.75l-1.53-2.17-.7.69v1.49Z" transform="translate(0 -0.78)"/>
      <path class="cls-23" d="M103.13,137.62v-4.29h3.11v.51H103.7v1.32h2.38v.5H103.7v1.46h2.64v.51Z" transform="translate(0 -0.78)"/>
      <path class="cls-23" d="M108,137.62l1.65-4.29h.61l1.76,4.29h-.65l-.5-1.3h-1.8l-.47,1.3Zm1.24-1.76h1.46l-.45-1.19q-.21-.54-.3-.89a5.48,5.48,0,0,1-.23.82Z" transform="translate(0 -0.78)"/>
      <path class="cls-23" d="M112.55,137.62v-4.29h.57v4.29Z" transform="translate(0 -0.78)"/>
      <path class="cls-23" d="M114.13,137.62v-4.29H116a2.56,2.56,0,0,1,.87.12,1,1,0,0,1,.48.41,1.22,1.22,0,0,1,.18.65,1.08,1.08,0,0,1-.3.77,1.5,1.5,0,0,1-.91.4,1.47,1.47,0,0,1,.34.21,3,3,0,0,1,.47.57l.75,1.17h-.71l-.57-.89q-.25-.39-.41-.59a1.27,1.27,0,0,0-.29-.29.84.84,0,0,0-.26-.11l-.32,0h-.66v1.91Zm.57-2.4h1.22a1.81,1.81,0,0,0,.61-.08.64.64,0,0,0,.33-.26.69.69,0,0,0,.11-.38.64.64,0,0,0-.22-.5,1,1,0,0,0-.7-.2H114.7Z" transform="translate(0 -0.78)"/>
      <path class="cls-23" d="M120.12,137.62v-4.29h1.62a3.91,3.91,0,0,1,.65,0,1.29,1.29,0,0,1,.53.2,1,1,0,0,1,.34.41,1.3,1.3,0,0,1,.13.59,1.32,1.32,0,0,1-.35.93,1.67,1.67,0,0,1-1.26.38h-1.1v1.75Zm.57-2.25h1.11a1.18,1.18,0,0,0,.78-.21.73.73,0,0,0,.23-.58.77.77,0,0,0-.14-.46.63.63,0,0,0-.36-.25,2.43,2.43,0,0,0-.53,0h-1.1Z" transform="translate(0 -0.78)"/>
      <path class="cls-23" d="M124.22,137.62v-4.29h.57v4.29Z" transform="translate(0 -0.78)"/>
      <path class="cls-23" d="M125.79,137.62v-4.29h1.62a3.91,3.91,0,0,1,.65,0,1.29,1.29,0,0,1,.53.2,1.06,1.06,0,0,1,.34.41,1.4,1.4,0,0,1-.22,1.51,1.67,1.67,0,0,1-1.26.38h-1.1v1.75Zm.57-2.25h1.11a1.18,1.18,0,0,0,.78-.21.73.73,0,0,0,.23-.58.78.78,0,0,0-.14-.46.64.64,0,0,0-.36-.25,2.43,2.43,0,0,0-.53,0h-1.1Z" transform="translate(0 -0.78)"/>
      <path class="cls-23" d="M129.8,137.62v-4.29h3.11v.51h-2.54v1.32h2.38v.5h-2.38v1.46H133v.51Z" transform="translate(0 -0.78)"/>
      <path class="cls-23" d="M80,144.82V143l-1.66-2.48h.69l.85,1.29q.23.36.44.73.19-.34.47-.76l.83-1.26h.66L80.61,143v1.82Z" transform="translate(0 -0.78)"/>
      <path class="cls-23" d="M84.42,144.82v-4.29h2.9V141H85v1.33h2v.51H85v2Z" transform="translate(0 -0.78)"/>
      <path class="cls-23" d="M88.16,144.82v-4.29h.57v4.29Z" transform="translate(0 -0.78)"/>
      <path class="cls-23" d="M90.82,144.82V141H89.4v-.51h3.4V141H91.39v3.79Z" transform="translate(0 -0.78)"/>
      <path class="cls-23" d="M94.48,144.82V141H93.07v-.51h3.4V141H95.05v3.79Z" transform="translate(0 -0.78)"/>
      <path class="cls-23" d="M97.15,144.82v-4.29h.57v4.29Z" transform="translate(0 -0.78)"/>
      <path class="cls-23" d="M98.72,144.82v-4.29h.58l2.26,3.37v-3.37h.54v4.29h-.58l-2.26-3.37v3.38Z" transform="translate(0 -0.78)"/>
      <path class="cls-23" d="M105.07,143.13v-.5h1.82v1.59a3.18,3.18,0,0,1-.86.5,2.56,2.56,0,0,1-.91.17,2.44,2.44,0,0,1-1.15-.27,1.8,1.8,0,0,1-.78-.78,2.47,2.47,0,0,1-.26-1.15,2.64,2.64,0,0,1,.26-1.17,1.74,1.74,0,0,1,.75-.81,2.36,2.36,0,0,1,1.13-.26,2.25,2.25,0,0,1,.84.15,1.4,1.4,0,0,1,.59.42,1.86,1.86,0,0,1,.33.7l-.51.14a1.59,1.59,0,0,0-.24-.52,1,1,0,0,0-.41-.3,1.52,1.52,0,0,0-.59-.11,1.76,1.76,0,0,0-.67.12,1.28,1.28,0,0,0-.46.31,1.51,1.51,0,0,0-.27.42,2.25,2.25,0,0,0-.16.86,2.08,2.08,0,0,0,.2,1,1.26,1.26,0,0,0,.58.57,1.78,1.78,0,0,0,.8.19,1.89,1.89,0,0,0,.72-.14,1.84,1.84,0,0,0,.53-.3v-.8Z" transform="translate(0 -0.78)"/>
      <path class="cls-23" d="M108.59,144.82l1.65-4.29h.61l1.76,4.29H112l-.5-1.3h-1.8l-.47,1.3Zm1.24-1.76h1.46l-.45-1.19q-.21-.54-.3-.89a5.48,5.48,0,0,1-.23.82Z" transform="translate(0 -0.78)"/>
      <path class="cls-23" d="M112.87,143.44l.54,0a1.17,1.17,0,0,0,.18.53,1,1,0,0,0,.43.33,1.62,1.62,0,0,0,.66.13,1.58,1.58,0,0,0,.57-.1.78.78,0,0,0,.37-.27.61.61,0,0,0,.12-.37.56.56,0,0,0-.12-.35.88.88,0,0,0-.39-.25,7.79,7.79,0,0,0-.76-.21,3.86,3.86,0,0,1-.83-.27,1.15,1.15,0,0,1-.46-.4,1,1,0,0,1-.15-.53,1.1,1.1,0,0,1,.18-.61,1.15,1.15,0,0,1,.54-.43,2,2,0,0,1,.79-.15,2.18,2.18,0,0,1,.84.15,1.23,1.23,0,0,1,.56.45,1.3,1.3,0,0,1,.21.68l-.54,0a.88.88,0,0,0-.3-.62,1.16,1.16,0,0,0-.75-.21,1.19,1.19,0,0,0-.75.19.56.56,0,0,0-.24.46.49.49,0,0,0,.17.38,2.26,2.26,0,0,0,.86.31,5.66,5.66,0,0,1,1,.27,1.31,1.31,0,0,1,.55.44,1.07,1.07,0,0,1,.18.61,1.17,1.17,0,0,1-.2.65,1.29,1.29,0,0,1-.56.47,2,2,0,0,1-.83.17,2.47,2.47,0,0,1-1-.17,1.37,1.37,0,0,1-.62-.51A1.46,1.46,0,0,1,112.87,143.44Z" transform="translate(0 -0.78)"/>
      <path class="cls-23" d="M116.87,143.44l.54,0a1.17,1.17,0,0,0,.18.53,1,1,0,0,0,.43.33,1.62,1.62,0,0,0,.66.13,1.58,1.58,0,0,0,.57-.1.78.78,0,0,0,.37-.27.61.61,0,0,0,.12-.37.56.56,0,0,0-.12-.35.88.88,0,0,0-.39-.25,7.79,7.79,0,0,0-.76-.21,3.86,3.86,0,0,1-.83-.27,1.15,1.15,0,0,1-.46-.4,1,1,0,0,1-.15-.53,1.1,1.1,0,0,1,.18-.61,1.15,1.15,0,0,1,.54-.43,2,2,0,0,1,.79-.15,2.18,2.18,0,0,1,.84.15,1.23,1.23,0,0,1,.56.45,1.3,1.3,0,0,1,.21.68l-.54,0a.88.88,0,0,0-.3-.62,1.16,1.16,0,0,0-.75-.21,1.19,1.19,0,0,0-.75.19.56.56,0,0,0-.24.46.49.49,0,0,0,.17.38,2.26,2.26,0,0,0,.86.31,5.66,5.66,0,0,1,1,.27,1.31,1.31,0,0,1,.55.44,1.07,1.07,0,0,1,.18.61,1.17,1.17,0,0,1-.2.65,1.29,1.29,0,0,1-.56.47,2,2,0,0,1-.83.17,2.47,2.47,0,0,1-1-.17,1.37,1.37,0,0,1-.62-.51A1.46,1.46,0,0,1,116.87,143.44Z" transform="translate(0 -0.78)"/>
      <path class="cls-23" d="M121.08,144.82v-4.29h3.11V141h-2.54v1.32H124v.5h-2.38v1.46h2.64v.51Z" transform="translate(0 -0.78)"/>
      <path class="cls-23" d="M125,144.82v-4.29h.86l1,3,.21.64.23-.69,1-3h.76v4.29h-.55v-3.59l-1.25,3.59h-.51l-1.24-3.66v3.66Z" transform="translate(0 -0.78)"/>
      <path class="cls-23" d="M130,144.82v-4.29h1.61a2,2,0,0,1,.79.13,1,1,0,0,1,.46.4,1.05,1.05,0,0,1,.17.57,1,1,0,0,1-.15.52,1.07,1.07,0,0,1-.45.39,1.13,1.13,0,0,1,.6.39,1,1,0,0,1,.21.65,1.27,1.27,0,0,1-.13.56,1.1,1.1,0,0,1-.32.4,1.3,1.3,0,0,1-.47.21,2.82,2.82,0,0,1-.69.07Zm.57-2.49h.93a2.07,2.07,0,0,0,.54,0,.61.61,0,0,0,.33-.21.62.62,0,0,0,.11-.37.69.69,0,0,0-.1-.38.53.53,0,0,0-.29-.22,2.49,2.49,0,0,0-.65-.06h-.86Zm0,2h1.07l.39,0a.93.93,0,0,0,.33-.12.62.62,0,0,0,.22-.24.75.75,0,0,0,.08-.36.71.71,0,0,0-.12-.42.66.66,0,0,0-.34-.25,2.16,2.16,0,0,0-.63-.07h-1Z" transform="translate(0 -0.78)"/>
      <path class="cls-23" d="M134,144.82v-4.29h.57v3.79h2.12v.51Z" transform="translate(0 -0.78)"/>
      <path class="cls-23" d="M138.17,144.82V143l-1.66-2.48h.69l.85,1.29q.23.36.44.73.19-.34.47-.76l.83-1.26h.66L138.74,143v1.82Z" transform="translate(0 -0.78)"/>
    </g>
    <g>
      <path class="cls-23" d="M96.18,184l-1.66-4.29h.62l1.12,3.12c.09.25.16.48.22.7.07-.23.14-.47.23-.7l1.16-3.12h.58L96.76,184Z" transform="translate(0 -0.78)"/>
      <path class="cls-23" d="M99,184v-4.29h3.11v.51H99.53v1.32h2.37v.5H99.53v1.46h2.64V184Z" transform="translate(0 -0.78)"/>
      <path class="cls-23" d="M102.95,184v-4.29h.58l2.26,3.37v-3.37h.54V184h-.58l-2.26-3.37V184Z" transform="translate(0 -0.78)"/>
      <path class="cls-23" d="M108.38,184v-3.79H107v-.51h3.4v.51h-1.42V184Z" transform="translate(0 -0.78)"/>
      <path class="cls-23" d="M115.57,182.45l.57.14a1.91,1.91,0,0,1-.64,1.07,1.77,1.77,0,0,1-1.14.37,2,2,0,0,1-1.13-.28,1.77,1.77,0,0,1-.66-.82,2.92,2.92,0,0,1-.23-1.15,2.53,2.53,0,0,1,.26-1.17,1.76,1.76,0,0,1,.73-.76,2.14,2.14,0,0,1,1-.26,1.76,1.76,0,0,1,1.08.33,1.7,1.7,0,0,1,.61.92l-.56.13a1.33,1.33,0,0,0-.43-.68,1.16,1.16,0,0,0-.71-.21,1.39,1.39,0,0,0-.83.24,1.26,1.26,0,0,0-.47.64,2.57,2.57,0,0,0-.13.83,2.61,2.61,0,0,0,.16,1,1.19,1.19,0,0,0,.5.61,1.39,1.39,0,0,0,.73.2,1.22,1.22,0,0,0,.81-.28A1.41,1.41,0,0,0,115.57,182.45Z" transform="translate(0 -0.78)"/>
      <path class="cls-23" d="M116.37,184l1.65-4.29h.61l1.76,4.29h-.65l-.5-1.3h-1.8L117,184Zm1.24-1.76h1.46l-.45-1.19q-.21-.54-.3-.89a5.47,5.47,0,0,1-.23.82Z" transform="translate(0 -0.78)"/>
      <path class="cls-23" d="M120.84,184v-4.29h1.62a3.9,3.9,0,0,1,.65,0,1.3,1.3,0,0,1,.53.2,1.05,1.05,0,0,1,.34.41,1.4,1.4,0,0,1-.22,1.51,1.67,1.67,0,0,1-1.26.38h-1.1V184Zm.57-2.25h1.11a1.17,1.17,0,0,0,.78-.21.73.73,0,0,0,.23-.58.78.78,0,0,0-.14-.46.64.64,0,0,0-.36-.25,2.42,2.42,0,0,0-.53,0h-1.1Z" transform="translate(0 -0.78)"/>
      <path class="cls-23" d="M78.89,191.15l-1.66-4.29h.62L79,190q.13.38.23.7.1-.35.23-.7l1.16-3.12h.58l-1.68,4.29Z" transform="translate(0 -0.78)"/>
      <path class="cls-23" d="M81.68,191.15v-4.29h3.11v.51H82.24v1.32h2.38v.5H82.24v1.46h2.64v.51Z" transform="translate(0 -0.78)"/>
      <path class="cls-23" d="M85.66,191.15v-4.29h.58l2.26,3.37v-3.37H89v4.29h-.58l-2.26-3.37v3.38Z" transform="translate(0 -0.78)"/>
      <path class="cls-23" d="M91.09,191.15v-3.79H89.68v-.51h3.4v.51H91.66v3.79Z" transform="translate(0 -0.78)"/>
      <path class="cls-23" d="M95.22,191.15v-4.29h1.62a3.91,3.91,0,0,1,.65,0,1.29,1.29,0,0,1,.53.2,1.06,1.06,0,0,1,.34.41,1.4,1.4,0,0,1-.22,1.51,1.67,1.67,0,0,1-1.26.38h-1.1v1.75Zm.57-2.25H96.9a1.18,1.18,0,0,0,.78-.21.73.73,0,0,0,.23-.58.78.78,0,0,0-.14-.46.64.64,0,0,0-.36-.25,2.43,2.43,0,0,0-.53,0h-1.1Z" transform="translate(0 -0.78)"/>
      <path class="cls-23" d="M99.32,191.15v-4.29h.57v4.29Z" transform="translate(0 -0.78)"/>
      <path class="cls-23" d="M100.89,191.15v-4.29h1.62a3.91,3.91,0,0,1,.65,0,1.29,1.29,0,0,1,.53.2,1,1,0,0,1,.34.41,1.3,1.3,0,0,1,.13.59,1.32,1.32,0,0,1-.35.93,1.67,1.67,0,0,1-1.26.38h-1.1v1.75Zm.57-2.25h1.11a1.18,1.18,0,0,0,.78-.21.73.73,0,0,0,.23-.58.77.77,0,0,0-.14-.46.63.63,0,0,0-.36-.25,2.43,2.43,0,0,0-.53,0h-1.1Z" transform="translate(0 -0.78)"/>
      <path class="cls-23" d="M104.91,191.15v-4.29H108v.51h-2.54v1.32h2.38v.5h-2.38v1.46h2.64v.51Z" transform="translate(0 -0.78)"/>
      <path class="cls-23" d="M109.76,191.15l1.65-4.29H112l1.76,4.29h-.65l-.5-1.3h-1.8l-.47,1.3Zm1.24-1.76h1.46L112,188.2q-.21-.54-.3-.89a5.48,5.48,0,0,1-.23.82Z" transform="translate(0 -0.78)"/>
      <path class="cls-23" d="M114,189.77l.54,0a1.17,1.17,0,0,0,.18.53,1,1,0,0,0,.43.33,1.62,1.62,0,0,0,.66.13,1.58,1.58,0,0,0,.57-.1.78.78,0,0,0,.37-.27.61.61,0,0,0,.12-.37.56.56,0,0,0-.12-.35.88.88,0,0,0-.39-.25,7.79,7.79,0,0,0-.76-.21,3.86,3.86,0,0,1-.83-.27,1.15,1.15,0,0,1-.46-.4,1,1,0,0,1-.15-.53,1.1,1.1,0,0,1,.18-.61,1.15,1.15,0,0,1,.54-.43,2,2,0,0,1,.79-.15,2.18,2.18,0,0,1,.84.15,1.23,1.23,0,0,1,.56.45,1.3,1.3,0,0,1,.21.68l-.54,0a.88.88,0,0,0-.3-.62,1.16,1.16,0,0,0-.75-.21,1.19,1.19,0,0,0-.75.19.56.56,0,0,0-.24.46.49.49,0,0,0,.17.38,2.26,2.26,0,0,0,.86.31,5.66,5.66,0,0,1,1,.27,1.31,1.31,0,0,1,.55.44,1.07,1.07,0,0,1,.18.61,1.17,1.17,0,0,1-.2.65,1.29,1.29,0,0,1-.56.47,2,2,0,0,1-.83.17,2.47,2.47,0,0,1-1-.17,1.37,1.37,0,0,1-.62-.51A1.46,1.46,0,0,1,114,189.77Z" transform="translate(0 -0.78)"/>
      <path class="cls-23" d="M118,189.77l.54,0a1.17,1.17,0,0,0,.18.53,1,1,0,0,0,.43.33,1.62,1.62,0,0,0,.66.13,1.58,1.58,0,0,0,.57-.1.78.78,0,0,0,.37-.27.61.61,0,0,0,.12-.37.56.56,0,0,0-.12-.35.88.88,0,0,0-.39-.25,7.79,7.79,0,0,0-.76-.21,3.86,3.86,0,0,1-.83-.27,1.15,1.15,0,0,1-.46-.4,1,1,0,0,1-.15-.53,1.1,1.1,0,0,1,.18-.61,1.15,1.15,0,0,1,.54-.43,2,2,0,0,1,.79-.15,2.18,2.18,0,0,1,.84.15,1.23,1.23,0,0,1,.56.45,1.3,1.3,0,0,1,.21.68l-.54,0a.88.88,0,0,0-.3-.62,1.16,1.16,0,0,0-.75-.21,1.19,1.19,0,0,0-.75.19.56.56,0,0,0-.24.46.49.49,0,0,0,.17.38,2.26,2.26,0,0,0,.86.31,5.66,5.66,0,0,1,1,.27,1.31,1.31,0,0,1,.55.44,1.07,1.07,0,0,1,.18.61,1.17,1.17,0,0,1-.2.65,1.29,1.29,0,0,1-.56.47,2,2,0,0,1-.83.17,2.47,2.47,0,0,1-1-.17,1.37,1.37,0,0,1-.62-.51A1.46,1.46,0,0,1,118,189.77Z" transform="translate(0 -0.78)"/>
      <path class="cls-23" d="M122.25,191.15v-4.29h3.11v.51h-2.54v1.32h2.38v.5h-2.38v1.46h2.64v.51Z" transform="translate(0 -0.78)"/>
      <path class="cls-23" d="M126.22,191.15v-4.29h.86l1,3,.21.64.23-.69,1-3h.76v4.29h-.55v-3.59l-1.25,3.59H128l-1.24-3.66v3.66Z" transform="translate(0 -0.78)"/>
      <path class="cls-23" d="M131.21,191.15v-4.29h1.61a2,2,0,0,1,.79.13,1,1,0,0,1,.46.4,1.05,1.05,0,0,1,.17.57,1,1,0,0,1-.15.52,1.07,1.07,0,0,1-.45.39,1.13,1.13,0,0,1,.6.39,1,1,0,0,1,.21.65,1.27,1.27,0,0,1-.13.56,1.1,1.1,0,0,1-.32.4,1.3,1.3,0,0,1-.47.21,2.82,2.82,0,0,1-.69.07Zm.57-2.49h.93a2.07,2.07,0,0,0,.54,0,.61.61,0,0,0,.33-.21.62.62,0,0,0,.11-.37.69.69,0,0,0-.1-.38.53.53,0,0,0-.29-.22,2.49,2.49,0,0,0-.65-.06h-.86Zm0,2h1.07l.39,0a.93.93,0,0,0,.33-.12.62.62,0,0,0,.22-.24.75.75,0,0,0,.08-.36.71.71,0,0,0-.12-.42.66.66,0,0,0-.34-.25,2.16,2.16,0,0,0-.63-.07h-1Z" transform="translate(0 -0.78)"/>
      <path class="cls-23" d="M135.22,191.15v-4.29h.57v3.79h2.12v.51Z" transform="translate(0 -0.78)"/>
      <path class="cls-23" d="M139.34,191.15v-1.82l-1.66-2.48h.69l.85,1.29q.23.36.44.73.19-.34.47-.76l.83-1.26h.66l-1.71,2.48v1.82Z" transform="translate(0 -0.78)"/>
    </g>
    <g>
      <path class="cls-23" d="M13.7,95.64V91.35h.86l1,3,.21.64.23-.69,1-3h.76v4.29h-.55V92L16,95.64h-.51L14.25,92v3.66Z" transform="translate(0 -0.78)"/>
      <path class="cls-23" d="M18.81,95.64V91.35h.57v4.29Z" transform="translate(0 -0.78)"/>
      <path class="cls-23" d="M20.38,95.64V91.35H21l2.26,3.37V91.35h.54v4.29h-.58l-2.26-3.37v3.38Z" transform="translate(0 -0.78)"/>
      <path class="cls-23" d="M24.81,95.64V91.35h.57v4.29Z" transform="translate(0 -0.78)"/>
      <path class="cls-23" d="M26.36,95.64V91.35h.86l1,3,.21.64.23-.69,1-3h.76v4.29h-.55V92l-1.25,3.59h-.51L26.91,92v3.66Z" transform="translate(0 -0.78)"/>
      <path class="cls-23" d="M34.2,91.35h.57v2.48a2.94,2.94,0,0,1-.15,1,1.25,1.25,0,0,1-.53.62,1.86,1.86,0,0,1-1,.24,2.06,2.06,0,0,1-1-.21,1.19,1.19,0,0,1-.55-.6,2.87,2.87,0,0,1-.16-1.08V91.35H32v2.48a2.41,2.41,0,0,0,.1.82.79.79,0,0,0,.36.41,1.24,1.24,0,0,0,.62.14,1.18,1.18,0,0,0,.89-.28,1.64,1.64,0,0,0,.27-1.09Z" transform="translate(0 -0.78)"/>
      <path class="cls-23" d="M35.7,95.64V91.35h.86l1,3,.21.64.23-.69,1-3h.76v4.29h-.55V92L38,95.64h-.51L36.24,92v3.66Z" transform="translate(0 -0.78)"/>
      <path class="cls-23" d="M41.58,95.64l1.65-4.29h.61l1.76,4.29h-.65l-.5-1.3h-1.8l-.47,1.3Zm1.24-1.76h1.46l-.45-1.19q-.21-.54-.3-.89a5.48,5.48,0,0,1-.23.82Z" transform="translate(0 -0.78)"/>
      <path class="cls-23" d="M46,95.64V91.35h.57v3.79h2.12v.51Z" transform="translate(0 -0.78)"/>
      <path class="cls-23" d="M49.36,95.64V91.35h.57v3.79H52v.51Z" transform="translate(0 -0.78)"/>
      <path class="cls-23" d="M52.55,93.55a2.33,2.33,0,0,1,.57-1.67,2,2,0,0,1,1.48-.61,2.06,2.06,0,0,1,1.07.28,1.85,1.85,0,0,1,.73.79,2.57,2.57,0,0,1,.25,1.15,2.53,2.53,0,0,1-.26,1.17,1.8,1.8,0,0,1-.75.78,2.13,2.13,0,0,1-1,.26,2,2,0,0,1-1.08-.29,1.89,1.89,0,0,1-.72-.8A2.42,2.42,0,0,1,52.55,93.55Zm.59,0a1.73,1.73,0,0,0,.42,1.22,1.46,1.46,0,0,0,2.1,0,1.82,1.82,0,0,0,.42-1.28,2.22,2.22,0,0,0-.18-.92,1.37,1.37,0,0,0-.52-.61,1.4,1.4,0,0,0-.77-.22,1.46,1.46,0,0,0-1,.42A1.85,1.85,0,0,0,53.14,93.56Z" transform="translate(0 -0.78)"/>
      <path class="cls-23" d="M58.14,95.64,57,91.35h.58l.65,2.82q.11.44.18.88l.19-.79.82-2.9h.69l.62,2.17A11.52,11.52,0,0,1,61.06,95q.08-.41.21-.93L62,91.35h.57l-1.18,4.29H60.8l-.91-3.27q-.11-.41-.13-.5-.07.3-.13.5l-.91,3.27Z" transform="translate(0 -0.78)"/>
      <path class="cls-23" d="M62.36,95.64,64,91.35h.61l1.76,4.29h-.65l-.5-1.3h-1.8L63,95.64Zm1.24-1.76h1.46l-.45-1.19q-.21-.54-.3-.89a5.48,5.48,0,0,1-.23.82Z" transform="translate(0 -0.78)"/>
      <path class="cls-23" d="M66.81,95.64V91.35h1.61a2,2,0,0,1,.79.13,1,1,0,0,1,.47.4,1.07,1.07,0,0,1,.17.57,1,1,0,0,1-.15.52,1.07,1.07,0,0,1-.45.39,1.12,1.12,0,0,1,.6.39,1,1,0,0,1,.21.65,1.25,1.25,0,0,1-.13.56,1.08,1.08,0,0,1-.31.4,1.3,1.3,0,0,1-.47.21,2.81,2.81,0,0,1-.69.07Zm.57-2.49h.93a2.07,2.07,0,0,0,.54,0,.6.6,0,0,0,.33-.21.61.61,0,0,0,.11-.37.69.69,0,0,0-.1-.38.53.53,0,0,0-.29-.22,2.49,2.49,0,0,0-.65-.06h-.86Zm0,2h1.07l.39,0a.93.93,0,0,0,.33-.12.62.62,0,0,0,.22-.24.75.75,0,0,0,.08-.36.71.71,0,0,0-.12-.42.66.66,0,0,0-.34-.25,2.15,2.15,0,0,0-.63-.07h-1Z" transform="translate(0 -0.78)"/>
      <path class="cls-23" d="M70.81,95.64V91.35h.57v3.79h2.12v.51Z" transform="translate(0 -0.78)"/>
      <path class="cls-23" d="M74.18,95.64V91.35h3.11v.51H74.75v1.32h2.38v.5H74.75v1.46h2.64v.51Z" transform="translate(0 -0.78)"/>
      <path class="cls-23" d="M79.82,95.64V91.35h.57v3.79H82.5v.51Z" transform="translate(0 -0.78)"/>
      <path class="cls-23" d="M83.19,95.64V91.35h3.11v.51H83.76v1.32h2.38v.5H83.76v1.46h2.64v.51Z" transform="translate(0 -0.78)"/>
      <path class="cls-23" d="M87.17,95.64V91.35h.58L90,94.72V91.35h.54v4.29H90l-2.26-3.37v3.38Z" transform="translate(0 -0.78)"/>
      <path class="cls-23" d="M93.52,94v-.5h1.82V95a3.18,3.18,0,0,1-.86.5,2.56,2.56,0,0,1-.91.17,2.44,2.44,0,0,1-1.15-.27,1.79,1.79,0,0,1-.78-.78,2.47,2.47,0,0,1-.26-1.15,2.64,2.64,0,0,1,.26-1.17,1.74,1.74,0,0,1,.75-.81,2.36,2.36,0,0,1,1.13-.26,2.25,2.25,0,0,1,.84.15,1.4,1.4,0,0,1,.59.42,1.86,1.86,0,0,1,.33.7l-.51.14a1.59,1.59,0,0,0-.24-.52,1,1,0,0,0-.41-.3,1.52,1.52,0,0,0-.59-.11,1.76,1.76,0,0,0-.67.12,1.27,1.27,0,0,0-.46.31,1.49,1.49,0,0,0-.27.42,2.25,2.25,0,0,0-.16.86,2.08,2.08,0,0,0,.2,1,1.26,1.26,0,0,0,.58.57,1.78,1.78,0,0,0,.8.19,1.89,1.89,0,0,0,.72-.14,1.84,1.84,0,0,0,.53-.3V94Z" transform="translate(0 -0.78)"/>
      <path class="cls-23" d="M97.27,95.64V91.85H95.86v-.51h3.4v.51H97.84v3.79Z" transform="translate(0 -0.78)"/>
      <path class="cls-23" d="M99.86,95.64V91.35h.57v1.76h2.23V91.35h.57v4.29h-.57v-2h-2.23v2Z" transform="translate(0 -0.78)"/>
      <path class="cls-23" d="M108.4,95.13v.51h-2.84a.93.93,0,0,1,.06-.37,1.94,1.94,0,0,1,.35-.57,5.45,5.45,0,0,1,.69-.65,5.8,5.8,0,0,0,.95-.91,1.09,1.09,0,0,0,.25-.63.7.7,0,0,0-.22-.53.8.8,0,0,0-.58-.22.82.82,0,0,0-.61.23.86.86,0,0,0-.23.63l-.54-.06a1.33,1.33,0,0,1,.42-.92,1.43,1.43,0,0,1,1-.32,1.36,1.36,0,0,1,1,.34,1.13,1.13,0,0,1,.36.85,1.29,1.29,0,0,1-.11.51,2,2,0,0,1-.35.52,8.51,8.51,0,0,1-.81.76c-.32.27-.52.45-.61.54a1.78,1.78,0,0,0-.22.29Z" transform="translate(0 -0.78)"/>
      <path class="cls-23" d="M109,94.52l.55,0a1,1,0,0,0,.29.61.77.77,0,0,0,.54.2A.84.84,0,0,0,111,95a1.08,1.08,0,0,0,.26-.76,1,1,0,0,0-.25-.71.88.88,0,0,0-.66-.26.92.92,0,0,0-.46.12.89.89,0,0,0-.32.3l-.5-.06.42-2.21h2.14v.5H109.9l-.23,1.15a1.4,1.4,0,0,1,.81-.27,1.29,1.29,0,0,1,.95.39,1.36,1.36,0,0,1,.39,1,1.56,1.56,0,0,1-.34,1,1.36,1.36,0,0,1-1.13.52,1.39,1.39,0,0,1-1-.33A1.28,1.28,0,0,1,109,94.52Z" transform="translate(0 -0.78)"/>
      <path class="cls-23" d="M114.28,95.64V91.35h.57v4.29Z" transform="translate(0 -0.78)"/>
      <path class="cls-23" d="M115.85,95.64V91.35h.58l2.26,3.37V91.35h.54v4.29h-.58l-2.26-3.37v3.38Z" transform="translate(0 -0.78)"/>
      <path class="cls-23" d="M123.25,94.14l.57.14a1.91,1.91,0,0,1-.64,1.07,1.77,1.77,0,0,1-1.14.37,2,2,0,0,1-1.13-.28,1.77,1.77,0,0,1-.66-.82,2.92,2.92,0,0,1-.23-1.15,2.53,2.53,0,0,1,.26-1.17,1.76,1.76,0,0,1,.73-.76,2.14,2.14,0,0,1,1-.26,1.76,1.76,0,0,1,1.08.33,1.7,1.7,0,0,1,.61.92l-.56.13a1.33,1.33,0,0,0-.43-.68,1.16,1.16,0,0,0-.71-.21,1.39,1.39,0,0,0-.83.24,1.26,1.26,0,0,0-.47.64,2.77,2.77,0,0,0,0,1.78,1.18,1.18,0,0,0,.5.61,1.39,1.39,0,0,0,.73.2,1.22,1.22,0,0,0,.81-.28A1.41,1.41,0,0,0,123.25,94.14Z" transform="translate(0 -0.78)"/>
      <path class="cls-23" d="M124.54,95.64V91.35h.57v1.76h2.23V91.35h.57v4.29h-.57v-2H125.1v2Z" transform="translate(0 -0.78)"/>
      <path class="cls-23" d="M128.86,95.64V91.35H132v.51h-2.54v1.32h2.38v.5h-2.38v1.46h2.64v.51Z" transform="translate(0 -0.78)"/>
      <path class="cls-23" d="M132.66,94.26l.54,0a1.18,1.18,0,0,0,.18.53,1,1,0,0,0,.43.33,1.62,1.62,0,0,0,.66.13,1.58,1.58,0,0,0,.57-.1.8.8,0,0,0,.37-.27.62.62,0,0,0,.12-.37.56.56,0,0,0-.12-.35.88.88,0,0,0-.39-.25,7.79,7.79,0,0,0-.76-.21,3.86,3.86,0,0,1-.83-.27A1.16,1.16,0,0,1,133,93a1,1,0,0,1-.15-.53,1.1,1.1,0,0,1,.18-.61,1.15,1.15,0,0,1,.54-.43,2,2,0,0,1,.79-.15,2.16,2.16,0,0,1,.84.15,1.22,1.22,0,0,1,.56.45,1.3,1.3,0,0,1,.21.68l-.54,0a.88.88,0,0,0-.3-.62,1.16,1.16,0,0,0-.75-.21,1.2,1.2,0,0,0-.75.19.56.56,0,0,0-.24.46.49.49,0,0,0,.17.38,2.26,2.26,0,0,0,.86.31,5.7,5.7,0,0,1,1,.27,1.31,1.31,0,0,1,.55.44,1.07,1.07,0,0,1,.18.61,1.17,1.17,0,0,1-.2.65,1.29,1.29,0,0,1-.56.47,2,2,0,0,1-.83.17,2.47,2.47,0,0,1-1-.17,1.36,1.36,0,0,1-.62-.51A1.44,1.44,0,0,1,132.66,94.26Z" transform="translate(0 -0.78)"/>
      <path class="cls-23" d="M139.46,96.9a5.27,5.27,0,0,1-.74-1.29,4,4,0,0,1-.08-2.87,5.62,5.62,0,0,1,.81-1.48h.38q-.35.61-.47.87a4.75,4.75,0,0,0-.28.84,4.9,4.9,0,0,0-.13,1.1,5.29,5.29,0,0,0,.88,2.82Z" transform="translate(0 -0.78)"/>
      <path class="cls-23" d="M143,92.4l-.52,0a1,1,0,0,0-.2-.45.7.7,0,0,0-.53-.23.72.72,0,0,0-.44.14,1.2,1.2,0,0,0-.39.53,2.77,2.77,0,0,0-.15,1,1.22,1.22,0,0,1,.47-.43,1.25,1.25,0,0,1,.58-.14,1.2,1.2,0,0,1,.9.39,1.4,1.4,0,0,1,.37,1,1.66,1.66,0,0,1-.17.75,1.27,1.27,0,0,1-.48.53,1.31,1.31,0,0,1-.69.18,1.35,1.35,0,0,1-1.08-.49,2.44,2.44,0,0,1-.42-1.6,2.86,2.86,0,0,1,.46-1.81,1.32,1.32,0,0,1,1.08-.49A1.15,1.15,0,0,1,143,92.4Zm-2.15,1.85a1.22,1.22,0,0,0,.12.52.86.86,0,0,0,.32.38.81.81,0,0,0,.44.13.74.74,0,0,0,.57-.27,1.06,1.06,0,0,0,.24-.73,1,1,0,0,0-.24-.7.78.78,0,0,0-.6-.26.82.82,0,0,0-.61.26A.93.93,0,0,0,140.89,94.25Z" transform="translate(0 -0.78)"/>
      <path class="cls-23" d="M145.33,95.64v-1h-1.86v-.48l2-2.78h.43v2.78h.58v.48h-.58v1Zm0-1.51V92.19L144,94.13Z" transform="translate(0 -0.78)"/>
      <path class="cls-23" d="M150.82,94.5l.52.07a1.35,1.35,0,0,1-.43.84,1.27,1.27,0,0,1-.86.3,1.33,1.33,0,0,1-1-.42,1.69,1.69,0,0,1-.39-1.2,2.17,2.17,0,0,1,.17-.88,1.16,1.16,0,0,1,.51-.57,1.49,1.49,0,0,1,.74-.19,1.3,1.3,0,0,1,.83.26,1.18,1.18,0,0,1,.41.73l-.51.08a.86.86,0,0,0-.26-.47.67.67,0,0,0-.45-.16.82.82,0,0,0-.65.29,1.36,1.36,0,0,0-.25.9,1.4,1.4,0,0,0,.24.91.78.78,0,0,0,.63.28.74.74,0,0,0,.52-.19A1,1,0,0,0,150.82,94.5Z" transform="translate(0 -0.78)"/>
      <path class="cls-23" d="M151.79,95.64V92.53h.47V93a1.12,1.12,0,0,1,.39-.37,1.1,1.1,0,0,1,.55-.14,1,1,0,0,1,.57.14.77.77,0,0,1,.31.4,1.12,1.12,0,0,1,1-.54,1,1,0,0,1,.71.26,1.1,1.1,0,0,1,.25.79v2.14h-.52v-2a1.45,1.45,0,0,0-.05-.46.44.44,0,0,0-.19-.22.58.58,0,0,0-.32-.08.74.74,0,0,0-.54.22,1,1,0,0,0-.22.7v1.81h-.53v-2a.89.89,0,0,0-.13-.53.49.49,0,0,0-.42-.18.77.77,0,0,0-.41.12.67.67,0,0,0-.27.34,1.93,1.93,0,0,0-.08.65v1.61Z" transform="translate(0 -0.78)"/>
      <path class="cls-23" d="M157.14,96.9h-.38a5.29,5.29,0,0,0,.88-2.82,4.81,4.81,0,0,0-.13-1.09,4.59,4.59,0,0,0-.28-.84,9.9,9.9,0,0,0-.47-.88h.38a5.62,5.62,0,0,1,.81,1.48,4,4,0,0,1-.08,2.87A5.4,5.4,0,0,1,157.14,96.9Z" transform="translate(0 -0.78)"/>
    </g>
    <g>
      <path class="cls-23" d="M13.81,111.59v-4.29h.57v4.29Z" transform="translate(0 -0.78)"/>
      <path class="cls-23" d="M15.38,111.59v-4.29H16l2.26,3.37v-3.37h.54v4.29h-.58l-2.26-3.37v3.38Z" transform="translate(0 -0.78)"/>
      <path class="cls-23" d="M20.81,111.59V107.8H19.39v-.51h3.4v.51H21.38v3.79Z" transform="translate(0 -0.78)"/>
      <path class="cls-23" d="M22.46,111.59l1.65-4.29h.61l1.76,4.29h-.65l-.5-1.3h-1.8l-.47,1.3Zm1.24-1.76h1.46l-.45-1.19q-.21-.54-.3-.89a5.48,5.48,0,0,1-.23.82Z" transform="translate(0 -0.78)"/>
      <path class="cls-23" d="M26.91,111.59v-4.29h.57v2.13l2.13-2.13h.77L28.58,109l1.88,2.55h-.75l-1.53-2.17-.7.69v1.49Z" transform="translate(0 -0.78)"/>
      <path class="cls-23" d="M31,111.59v-4.29h3.11v.51H31.52v1.32H33.9v.5H31.52v1.46h2.64v.51Z" transform="translate(0 -0.78)"/>
      <path class="cls-23" d="M35.81,111.59l1.65-4.29h.61l1.76,4.29h-.65l-.5-1.3h-1.8l-.47,1.3ZM37,109.82H38.5l-.45-1.19q-.21-.54-.3-.89a5.48,5.48,0,0,1-.23.82Z" transform="translate(0 -0.78)"/>
      <path class="cls-23" d="M40.38,111.59v-4.29h.57v4.29Z" transform="translate(0 -0.78)"/>
      <path class="cls-23" d="M42,111.59v-4.29h1.9a2.56,2.56,0,0,1,.87.12,1,1,0,0,1,.48.41,1.22,1.22,0,0,1,.18.65,1.08,1.08,0,0,1-.3.77,1.5,1.5,0,0,1-.91.4,1.47,1.47,0,0,1,.34.21,3,3,0,0,1,.47.57l.75,1.17H45l-.57-.89q-.25-.39-.41-.59a1.29,1.29,0,0,0-.29-.29.86.86,0,0,0-.26-.11l-.32,0h-.66v1.91Zm.57-2.4h1.22a1.81,1.81,0,0,0,.61-.08.64.64,0,0,0,.33-.26.69.69,0,0,0,.11-.38.64.64,0,0,0-.22-.5,1,1,0,0,0-.7-.2H42.52Z" transform="translate(0 -0.78)"/>
      <path class="cls-23" d="M47.95,111.59v-4.29h1.62a3.91,3.91,0,0,1,.65,0,1.29,1.29,0,0,1,.53.2,1.05,1.05,0,0,1,.34.41,1.4,1.4,0,0,1-.22,1.51,1.67,1.67,0,0,1-1.26.38h-1.1v1.75Zm.57-2.25h1.11a1.18,1.18,0,0,0,.78-.21.73.73,0,0,0,.23-.58.77.77,0,0,0-.14-.46.64.64,0,0,0-.36-.25,2.43,2.43,0,0,0-.53,0h-1.1Z" transform="translate(0 -0.78)"/>
      <path class="cls-23" d="M52,111.59v-4.29h.57v4.29Z" transform="translate(0 -0.78)"/>
      <path class="cls-23" d="M53.62,111.59v-4.29h1.62a3.91,3.91,0,0,1,.65,0,1.29,1.29,0,0,1,.53.2,1.06,1.06,0,0,1,.34.41,1.4,1.4,0,0,1-.22,1.51,1.67,1.67,0,0,1-1.26.38h-1.1v1.75Zm.57-2.25h1.11a1.18,1.18,0,0,0,.78-.21.73.73,0,0,0,.23-.58.78.78,0,0,0-.14-.46.64.64,0,0,0-.36-.25,2.43,2.43,0,0,0-.53,0h-1.1Z" transform="translate(0 -0.78)"/>
      <path class="cls-23" d="M57.63,111.59v-4.29h3.11v.51H58.2v1.32h2.38v.5H58.2v1.46h2.64v.51Z" transform="translate(0 -0.78)"/>
      <path class="cls-23" d="M63.27,111.59v-4.29h.86l1,3,.21.64.23-.69,1-3h.76v4.29h-.55V108l-1.25,3.59h-.51l-1.24-3.66v3.66Z" transform="translate(0 -0.78)"/>
      <path class="cls-23" d="M67.81,111.59l1.65-4.29h.61l1.76,4.29h-.65l-.5-1.3h-1.8l-.47,1.3Zm1.24-1.76h1.46l-.45-1.19q-.21-.54-.3-.89a5.48,5.48,0,0,1-.23.82Z" transform="translate(0 -0.78)"/>
      <path class="cls-23" d="M73.05,111.59v-1.82l-1.66-2.48h.69l.85,1.29q.23.36.44.73.19-.34.47-.76l.83-1.26h.66l-1.71,2.48v1.82Z" transform="translate(0 -0.78)"/>
      <path class="cls-23" d="M77.38,111.59v-4.29H79a2,2,0,0,1,.79.13,1,1,0,0,1,.47.4,1.07,1.07,0,0,1,.17.57,1,1,0,0,1-.15.52,1.07,1.07,0,0,1-.45.39,1.12,1.12,0,0,1,.6.39,1,1,0,0,1,.21.65,1.25,1.25,0,0,1-.13.56,1.08,1.08,0,0,1-.31.4,1.3,1.3,0,0,1-.47.21,2.81,2.81,0,0,1-.69.07Zm.57-2.49h.93a2.07,2.07,0,0,0,.54,0,.6.6,0,0,0,.33-.21.61.61,0,0,0,.11-.37.69.69,0,0,0-.1-.38.53.53,0,0,0-.29-.22,2.49,2.49,0,0,0-.65-.06h-.86Zm0,2H79l.39,0a.93.93,0,0,0,.33-.12.62.62,0,0,0,.22-.24.75.75,0,0,0,.08-.36.71.71,0,0,0-.12-.42.66.66,0,0,0-.34-.25,2.15,2.15,0,0,0-.63-.07h-1Z" transform="translate(0 -0.78)"/>
      <path class="cls-23" d="M81.42,111.59v-4.29h3.11v.51H82v1.32h2.38v.5H82v1.46h2.64v.51Z" transform="translate(0 -0.78)"/>
      <path class="cls-23" d="M86.88,110.21l.54,0a1.18,1.18,0,0,0,.18.53A1,1,0,0,0,88,111a1.62,1.62,0,0,0,.66.13,1.58,1.58,0,0,0,.57-.1.8.8,0,0,0,.37-.27.62.62,0,0,0,.12-.37.56.56,0,0,0-.12-.35.88.88,0,0,0-.39-.25,7.79,7.79,0,0,0-.76-.21,3.86,3.86,0,0,1-.83-.27,1.16,1.16,0,0,1-.46-.4,1,1,0,0,1-.15-.53,1.1,1.1,0,0,1,.18-.61,1.15,1.15,0,0,1,.54-.43,2,2,0,0,1,.79-.15,2.16,2.16,0,0,1,.84.15,1.22,1.22,0,0,1,.56.45,1.3,1.3,0,0,1,.21.68l-.54,0a.88.88,0,0,0-.3-.62,1.16,1.16,0,0,0-.75-.21,1.2,1.2,0,0,0-.75.19.56.56,0,0,0-.24.46.49.49,0,0,0,.17.38,2.26,2.26,0,0,0,.86.31,5.7,5.7,0,0,1,1,.27,1.31,1.31,0,0,1,.55.44,1.07,1.07,0,0,1,.18.61,1.17,1.17,0,0,1-.2.65,1.29,1.29,0,0,1-.56.47,2,2,0,0,1-.83.17,2.47,2.47,0,0,1-1-.17,1.36,1.36,0,0,1-.62-.51A1.44,1.44,0,0,1,86.88,110.21Z" transform="translate(0 -0.78)"/>
      <path class="cls-23" d="M91.09,111.59v-4.29h.57v1.76h2.23v-1.76h.57v4.29h-.57v-2H91.66v2Z" transform="translate(0 -0.78)"/>
      <path class="cls-23" d="M95.23,109.5a2.33,2.33,0,0,1,.57-1.67,2,2,0,0,1,1.48-.61,2.06,2.06,0,0,1,1.07.28,1.85,1.85,0,0,1,.73.79,2.57,2.57,0,0,1,.25,1.15,2.53,2.53,0,0,1-.26,1.17,1.8,1.8,0,0,1-.75.78,2.13,2.13,0,0,1-1,.26,2,2,0,0,1-1.08-.29,1.89,1.89,0,0,1-.72-.8A2.42,2.42,0,0,1,95.23,109.5Zm.59,0a1.73,1.73,0,0,0,.42,1.22,1.46,1.46,0,0,0,2.1,0,1.82,1.82,0,0,0,.42-1.28,2.22,2.22,0,0,0-.18-.92,1.37,1.37,0,0,0-.52-.61,1.4,1.4,0,0,0-.77-.22,1.46,1.46,0,0,0-1,.42A1.85,1.85,0,0,0,95.82,109.5Z" transform="translate(0 -0.78)"/>
      <path class="cls-23" d="M100.08,111.59v-4.29H102a2.56,2.56,0,0,1,.87.12,1,1,0,0,1,.48.41,1.22,1.22,0,0,1,.18.65,1.08,1.08,0,0,1-.3.77,1.5,1.5,0,0,1-.91.4,1.47,1.47,0,0,1,.34.21,3,3,0,0,1,.47.57l.75,1.17h-.71l-.57-.89q-.25-.39-.41-.59a1.31,1.31,0,0,0-.29-.29.87.87,0,0,0-.26-.11l-.32,0h-.66v1.91Zm.57-2.4h1.22a1.81,1.81,0,0,0,.61-.08.64.64,0,0,0,.33-.26.69.69,0,0,0,.11-.38.64.64,0,0,0-.22-.5,1,1,0,0,0-.7-.2h-1.36Z" transform="translate(0 -0.78)"/>
      <path class="cls-23" d="M105.39,111.59V107.8H104v-.51h3.4v.51H106v3.79Z" transform="translate(0 -0.78)"/>
      <path class="cls-23" d="M108,111.59v-4.29h3.11v.51h-2.54v1.32h2.38v.5h-2.38v1.46h2.64v.51Z" transform="translate(0 -0.78)"/>
      <path class="cls-23" d="M112,111.59v-4.29h.58l2.26,3.37v-3.37h.54v4.29h-.58l-2.26-3.37v3.38Z" transform="translate(0 -0.78)"/>
      <path class="cls-23" d="M116.31,111.59v-4.29h3.11v.51h-2.54v1.32h2.38v.5h-2.38v1.46h2.64v.51Z" transform="translate(0 -0.78)"/>
      <path class="cls-23" d="M120.3,111.59v-4.29h1.48a3.59,3.59,0,0,1,.76.06,1.45,1.45,0,0,1,.63.31,1.76,1.76,0,0,1,.51.73,2.9,2.9,0,0,1,.17,1,3,3,0,0,1-.11.87,2.11,2.11,0,0,1-.29.63,1.54,1.54,0,0,1-.39.39,1.58,1.58,0,0,1-.51.22,2.94,2.94,0,0,1-.69.07Zm.57-.51h.92a2.23,2.23,0,0,0,.67-.08,1,1,0,0,0,.38-.22,1.35,1.35,0,0,0,.31-.54,2.66,2.66,0,0,0,.11-.83,2,2,0,0,0-.22-1,1.12,1.12,0,0,0-.54-.49,2.22,2.22,0,0,0-.74-.09h-.9Z" transform="translate(0 -0.78)"/>
      <path class="cls-23" d="M13.7,118.79v-4.29h.86l1,3,.21.64.23-.69,1-3h.76v4.29h-.55v-3.59L16,118.79h-.51l-1.24-3.66v3.66Z" transform="translate(0 -0.78)"/>
      <path class="cls-23" d="M18.81,118.79v-4.29h.57v4.29Z" transform="translate(0 -0.78)"/>
      <path class="cls-23" d="M20.38,118.79v-4.29H21l2.26,3.37v-3.37h.54v4.29h-.58l-2.26-3.37v3.38Z" transform="translate(0 -0.78)"/>
      <path class="cls-23" d="M24.81,118.79v-4.29h.57v4.29Z" transform="translate(0 -0.78)"/>
      <path class="cls-23" d="M26.36,118.79v-4.29h.86l1,3,.21.64.23-.69,1-3h.76v4.29h-.55v-3.59l-1.25,3.59h-.51l-1.24-3.66v3.66Z" transform="translate(0 -0.78)"/>
      <path class="cls-23" d="M34.2,114.49h.57V117a2.94,2.94,0,0,1-.15,1,1.25,1.25,0,0,1-.53.62,1.87,1.87,0,0,1-1,.24,2.06,2.06,0,0,1-1-.21,1.19,1.19,0,0,1-.55-.6,2.87,2.87,0,0,1-.16-1.08v-2.48H32V117a2.41,2.41,0,0,0,.1.82.79.79,0,0,0,.36.41,1.24,1.24,0,0,0,.62.14,1.18,1.18,0,0,0,.89-.28A1.64,1.64,0,0,0,34.2,117Z" transform="translate(0 -0.78)"/>
      <path class="cls-23" d="M35.69,118.79v-4.29h.86l1,3,.21.64.23-.69,1-3h.76v4.29h-.55v-3.59L38,118.79h-.51l-1.24-3.66v3.66Z" transform="translate(0 -0.78)"/>
      <path class="cls-23" d="M41.57,118.79l1.65-4.29h.61l1.76,4.29h-.65l-.5-1.3h-1.8l-.47,1.3ZM42.81,117h1.46l-.45-1.19q-.21-.54-.3-.89a5.48,5.48,0,0,1-.23.82Z" transform="translate(0 -0.78)"/>
      <path class="cls-23" d="M46,118.79v-4.29h.57v3.79h2.12v.51Z" transform="translate(0 -0.78)"/>
      <path class="cls-23" d="M49.36,118.79v-4.29h.57v3.79H52v.51Z" transform="translate(0 -0.78)"/>
      <path class="cls-23" d="M52.55,116.7a2.33,2.33,0,0,1,.57-1.67,2,2,0,0,1,1.48-.61,2.06,2.06,0,0,1,1.07.28,1.85,1.85,0,0,1,.73.79,2.57,2.57,0,0,1,.25,1.15,2.53,2.53,0,0,1-.26,1.17,1.8,1.8,0,0,1-.75.78,2.13,2.13,0,0,1-1,.26,2,2,0,0,1-1.08-.29,1.89,1.89,0,0,1-.72-.8A2.42,2.42,0,0,1,52.55,116.7Zm.59,0a1.73,1.73,0,0,0,.42,1.22,1.46,1.46,0,0,0,2.1,0,1.82,1.82,0,0,0,.42-1.28,2.22,2.22,0,0,0-.18-.92,1.37,1.37,0,0,0-.52-.61,1.4,1.4,0,0,0-.77-.22,1.46,1.46,0,0,0-1,.42A1.85,1.85,0,0,0,53.13,116.71Z" transform="translate(0 -0.78)"/>
      <path class="cls-23" d="M58.14,118.79,57,114.49h.58l.65,2.82q.11.44.18.88l.19-.79.82-2.9h.69l.62,2.17a11.52,11.52,0,0,1,.33,1.52q.08-.41.21-.93l.67-2.76h.57l-1.18,4.29H60.8l-.91-3.27q-.11-.41-.13-.5-.07.3-.13.5l-.91,3.27Z" transform="translate(0 -0.78)"/>
      <path class="cls-23" d="M62.36,118.79,64,114.49h.61l1.76,4.29h-.65l-.5-1.3h-1.8l-.47,1.3ZM63.6,117h1.46l-.45-1.19q-.21-.54-.3-.89a5.48,5.48,0,0,1-.23.82Z" transform="translate(0 -0.78)"/>
      <path class="cls-23" d="M66.81,118.79v-4.29h1.61a2,2,0,0,1,.79.13,1,1,0,0,1,.47.4,1.07,1.07,0,0,1,.17.57,1,1,0,0,1-.15.52,1.07,1.07,0,0,1-.45.39,1.12,1.12,0,0,1,.6.39,1,1,0,0,1,.21.65,1.25,1.25,0,0,1-.13.56,1.08,1.08,0,0,1-.31.4,1.3,1.3,0,0,1-.47.21,2.81,2.81,0,0,1-.69.07Zm.57-2.49h.93a2.07,2.07,0,0,0,.54,0,.6.6,0,0,0,.33-.21.61.61,0,0,0,.11-.37.69.69,0,0,0-.1-.38.53.53,0,0,0-.29-.22,2.49,2.49,0,0,0-.65-.06h-.86Zm0,2h1.07l.39,0a.93.93,0,0,0,.33-.12.62.62,0,0,0,.22-.24.75.75,0,0,0,.08-.36.71.71,0,0,0-.12-.42.66.66,0,0,0-.34-.25,2.15,2.15,0,0,0-.63-.07h-1Z" transform="translate(0 -0.78)"/>
      <path class="cls-23" d="M70.81,118.79v-4.29h.57v3.79h2.12v.51Z" transform="translate(0 -0.78)"/>
      <path class="cls-23" d="M74.18,118.79v-4.29h3.11V115H74.75v1.32h2.38v.5H74.75v1.46h2.64v.51Z" transform="translate(0 -0.78)"/>
      <path class="cls-23" d="M79.82,118.79v-4.29h.57v3.79H82.5v.51Z" transform="translate(0 -0.78)"/>
      <path class="cls-23" d="M83.19,118.79v-4.29h3.11V115H83.76v1.32h2.38v.5H83.76v1.46h2.64v.51Z" transform="translate(0 -0.78)"/>
      <path class="cls-23" d="M87.17,118.79v-4.29h.58L90,117.87v-3.37h.54v4.29H90l-2.26-3.37v3.38Z" transform="translate(0 -0.78)"/>
      <path class="cls-23" d="M93.52,117.1v-.5h1.82v1.59a3.18,3.18,0,0,1-.86.5,2.56,2.56,0,0,1-.91.17,2.44,2.44,0,0,1-1.15-.27,1.79,1.79,0,0,1-.78-.78,2.47,2.47,0,0,1-.26-1.15,2.64,2.64,0,0,1,.26-1.17,1.74,1.74,0,0,1,.75-.81,2.36,2.36,0,0,1,1.13-.26,2.25,2.25,0,0,1,.84.15A1.4,1.4,0,0,1,95,115a1.86,1.86,0,0,1,.33.7l-.51.14a1.59,1.59,0,0,0-.24-.52,1,1,0,0,0-.41-.3,1.52,1.52,0,0,0-.59-.11,1.76,1.76,0,0,0-.67.12,1.27,1.27,0,0,0-.46.31,1.49,1.49,0,0,0-.27.42,2.25,2.25,0,0,0-.16.86,2.08,2.08,0,0,0,.2,1,1.26,1.26,0,0,0,.58.57,1.78,1.78,0,0,0,.8.19,1.89,1.89,0,0,0,.72-.14,1.84,1.84,0,0,0,.53-.3v-.8Z" transform="translate(0 -0.78)"/>
      <path class="cls-23" d="M97.27,118.79V115H95.86v-.51h3.4V115H97.84v3.79Z" transform="translate(0 -0.78)"/>
      <path class="cls-23" d="M99.86,118.79v-4.29h.57v1.76h2.23v-1.76h.57v4.29h-.57v-2h-2.23v2Z" transform="translate(0 -0.78)"/>
      <path class="cls-23" d="M107.62,118.79h-.53v-3.36a2.75,2.75,0,0,1-.5.36,3.59,3.59,0,0,1-.56.27v-.51a3.18,3.18,0,0,0,.77-.5,2,2,0,0,0,.47-.57h.34Z" transform="translate(0 -0.78)"/>
      <path class="cls-23" d="M111.74,118.28v.51H108.9a.93.93,0,0,1,.06-.37,1.94,1.94,0,0,1,.35-.57,5.45,5.45,0,0,1,.69-.65,5.8,5.8,0,0,0,.95-.91,1.09,1.09,0,0,0,.25-.63.7.7,0,0,0-.22-.53.8.8,0,0,0-.58-.22.82.82,0,0,0-.61.23.86.86,0,0,0-.23.63l-.54-.06a1.33,1.33,0,0,1,.42-.92,1.43,1.43,0,0,1,1-.32,1.36,1.36,0,0,1,1,.34,1.13,1.13,0,0,1,.36.85,1.29,1.29,0,0,1-.11.51,2,2,0,0,1-.35.52,8.51,8.51,0,0,1-.81.76c-.32.27-.52.45-.61.54a1.78,1.78,0,0,0-.22.29Z" transform="translate(0 -0.78)"/>
      <path class="cls-23" d="M114.28,118.79v-4.29h.57v4.29Z" transform="translate(0 -0.78)"/>
      <path class="cls-23" d="M115.84,118.79v-4.29h.58l2.26,3.37v-3.37h.54v4.29h-.58l-2.26-3.37v3.38Z" transform="translate(0 -0.78)"/>
      <path class="cls-23" d="M123.25,117.28l.57.14a1.91,1.91,0,0,1-.64,1.07,1.77,1.77,0,0,1-1.14.37,2,2,0,0,1-1.13-.28,1.77,1.77,0,0,1-.66-.82,2.92,2.92,0,0,1-.23-1.15,2.53,2.53,0,0,1,.26-1.17,1.76,1.76,0,0,1,.73-.76,2.14,2.14,0,0,1,1-.26,1.76,1.76,0,0,1,1.08.33,1.7,1.7,0,0,1,.61.92l-.56.13a1.33,1.33,0,0,0-.43-.68,1.16,1.16,0,0,0-.71-.21,1.39,1.39,0,0,0-.83.24,1.26,1.26,0,0,0-.47.64,2.77,2.77,0,0,0,0,1.78,1.18,1.18,0,0,0,.5.61,1.39,1.39,0,0,0,.73.2,1.22,1.22,0,0,0,.81-.28A1.41,1.41,0,0,0,123.25,117.28Z" transform="translate(0 -0.78)"/>
      <path class="cls-23" d="M124.53,118.79v-4.29h.57v1.76h2.23v-1.76h.57v4.29h-.57v-2H125.1v2Z" transform="translate(0 -0.78)"/>
      <path class="cls-23" d="M128.86,118.79v-4.29H132V115h-2.54v1.32h2.38v.5h-2.38v1.46h2.64v.51Z" transform="translate(0 -0.78)"/>
      <path class="cls-23" d="M132.66,117.41l.54,0a1.18,1.18,0,0,0,.18.53,1,1,0,0,0,.43.33,1.62,1.62,0,0,0,.66.13,1.58,1.58,0,0,0,.57-.1.8.8,0,0,0,.37-.27.62.62,0,0,0,.12-.37.56.56,0,0,0-.12-.35A.88.88,0,0,0,135,117a7.79,7.79,0,0,0-.76-.21,3.86,3.86,0,0,1-.83-.27,1.16,1.16,0,0,1-.46-.4,1,1,0,0,1-.15-.53A1.1,1.1,0,0,1,133,115a1.15,1.15,0,0,1,.54-.43,2,2,0,0,1,.79-.15,2.16,2.16,0,0,1,.84.15,1.22,1.22,0,0,1,.56.45,1.3,1.3,0,0,1,.21.68l-.54,0a.88.88,0,0,0-.3-.62,1.16,1.16,0,0,0-.75-.21,1.2,1.2,0,0,0-.75.19.56.56,0,0,0-.24.46.49.49,0,0,0,.17.38,2.26,2.26,0,0,0,.86.31,5.7,5.7,0,0,1,1,.27,1.31,1.31,0,0,1,.55.44,1.07,1.07,0,0,1,.18.61,1.17,1.17,0,0,1-.2.65,1.29,1.29,0,0,1-.56.47,2,2,0,0,1-.83.17,2.47,2.47,0,0,1-1-.17,1.36,1.36,0,0,1-.62-.51A1.44,1.44,0,0,1,132.66,117.41Z" transform="translate(0 -0.78)"/>
      <path class="cls-23" d="M139.46,120.05a5.27,5.27,0,0,1-.74-1.29,4,4,0,0,1-.08-2.87,5.62,5.62,0,0,1,.81-1.48h.38q-.35.61-.47.87a4.75,4.75,0,0,0-.28.84,4.9,4.9,0,0,0-.13,1.1,5.29,5.29,0,0,0,.88,2.82Z" transform="translate(0 -0.78)"/>
      <path class="cls-23" d="M140.31,117.65l.53-.07a1.16,1.16,0,0,0,.31.65.76.76,0,0,0,.53.2.85.85,0,0,0,.63-.26.87.87,0,0,0,.26-.64.81.81,0,0,0-.24-.6.82.82,0,0,0-.6-.24,1.51,1.51,0,0,0-.37.06l.06-.46h.08a1.09,1.09,0,0,0,.61-.18.6.6,0,0,0,.27-.54.64.64,0,0,0-.2-.48.7.7,0,0,0-.51-.19.72.72,0,0,0-.51.19,1,1,0,0,0-.26.58l-.53-.09a1.36,1.36,0,0,1,.44-.82,1.28,1.28,0,0,1,.85-.29,1.42,1.42,0,0,1,.65.15,1.11,1.11,0,0,1,.45.41,1.07,1.07,0,0,1,.16.55.91.91,0,0,1-.15.51,1,1,0,0,1-.44.36,1,1,0,0,1,.59.37,1.11,1.11,0,0,1,.21.69,1.27,1.27,0,0,1-.41,1,1.45,1.45,0,0,1-1,.39,1.35,1.35,0,0,1-.94-.34A1.31,1.31,0,0,1,140.31,117.65Z" transform="translate(0 -0.78)"/>
      <path class="cls-23" d="M143.64,116.67a3.9,3.9,0,0,1,.16-1.23,1.52,1.52,0,0,1,.46-.72,1.19,1.19,0,0,1,.78-.25,1.28,1.28,0,0,1,.61.14,1.17,1.17,0,0,1,.43.4,2.15,2.15,0,0,1,.27.64,4.24,4.24,0,0,1,.1,1,3.93,3.93,0,0,1-.16,1.22,1.52,1.52,0,0,1-.46.72,1.31,1.31,0,0,1-1.76-.19A2.83,2.83,0,0,1,143.64,116.67Zm.54,0a2.68,2.68,0,0,0,.25,1.41.71.71,0,0,0,1.22,0,4.12,4.12,0,0,0,0-2.82.73.73,0,0,0-.62-.35.68.68,0,0,0-.58.31A2.72,2.72,0,0,0,144.18,116.67Z" transform="translate(0 -0.78)"/>
      <path class="cls-23" d="M150.82,117.65l.52.07a1.35,1.35,0,0,1-.43.84,1.27,1.27,0,0,1-.86.3,1.33,1.33,0,0,1-1-.42,1.69,1.69,0,0,1-.39-1.2,2.17,2.17,0,0,1,.17-.88,1.16,1.16,0,0,1,.51-.57,1.49,1.49,0,0,1,.74-.19,1.3,1.3,0,0,1,.83.26,1.18,1.18,0,0,1,.41.73l-.51.08a.86.86,0,0,0-.26-.47.67.67,0,0,0-.45-.16.82.82,0,0,0-.65.29,1.36,1.36,0,0,0-.25.9,1.4,1.4,0,0,0,.24.91.78.78,0,0,0,.63.28.74.74,0,0,0,.52-.19A1,1,0,0,0,150.82,117.65Z" transform="translate(0 -0.78)"/>
      <path class="cls-23" d="M151.79,118.79v-3.11h.47v.44a1.12,1.12,0,0,1,.39-.37,1.1,1.1,0,0,1,.55-.14,1,1,0,0,1,.57.14.77.77,0,0,1,.31.4,1.12,1.12,0,0,1,1-.54,1,1,0,0,1,.71.26,1.1,1.1,0,0,1,.25.79v2.14h-.52v-2a1.45,1.45,0,0,0-.05-.46.44.44,0,0,0-.19-.22.58.58,0,0,0-.32-.08.74.74,0,0,0-.54.22,1,1,0,0,0-.22.7v1.81h-.53v-2a.89.89,0,0,0-.13-.53.49.49,0,0,0-.42-.18.77.77,0,0,0-.41.12.67.67,0,0,0-.27.34,1.93,1.93,0,0,0-.08.65v1.61Z" transform="translate(0 -0.78)"/>
      <path class="cls-23" d="M157.14,120.05h-.38a5.29,5.29,0,0,0,.88-2.82,4.81,4.81,0,0,0-.13-1.09,4.59,4.59,0,0,0-.28-.84,9.9,9.9,0,0,0-.47-.88h.38a5.62,5.62,0,0,1,.81,1.48,4,4,0,0,1-.08,2.87A5.4,5.4,0,0,1,157.14,120.05Z" transform="translate(0 -0.78)"/>
    </g>
    <g>
      <path class="cls-23" d="M137,74.6l-1.66-4.29h.62L137,73.42q.13.38.23.7.1-.35.23-.7l1.16-3.12h.58l-1.68,4.29Z" transform="translate(0 -0.78)"/>
      <path class="cls-23" d="M139.74,74.6V70.3h3.11v.51h-2.54v1.32h2.38v.5h-2.38v1.46h2.64v.51Z" transform="translate(0 -0.78)"/>
      <path class="cls-23" d="M143.72,74.6V70.3h.58l2.26,3.37V70.3h.54V74.6h-.58l-2.26-3.37V74.6Z" transform="translate(0 -0.78)"/>
      <path class="cls-23" d="M149.16,74.6V70.81h-1.42V70.3h3.4v.51h-1.42V74.6Z" transform="translate(0 -0.78)"/>
      <path class="cls-23" d="M156.35,73.09l.57.14a1.91,1.91,0,0,1-.64,1.07,1.77,1.77,0,0,1-1.14.37,2,2,0,0,1-1.13-.28,1.78,1.78,0,0,1-.66-.82,2.94,2.94,0,0,1-.23-1.15,2.54,2.54,0,0,1,.26-1.17,1.77,1.77,0,0,1,.73-.76,2.14,2.14,0,0,1,1-.26,1.76,1.76,0,0,1,1.08.33,1.7,1.7,0,0,1,.61.92l-.56.13a1.33,1.33,0,0,0-.43-.68,1.16,1.16,0,0,0-.71-.21,1.39,1.39,0,0,0-.83.24,1.26,1.26,0,0,0-.47.64,2.77,2.77,0,0,0,0,1.78,1.18,1.18,0,0,0,.5.61,1.39,1.39,0,0,0,.73.2,1.22,1.22,0,0,0,.81-.28A1.41,1.41,0,0,0,156.35,73.09Z" transform="translate(0 -0.78)"/>
      <path class="cls-23" d="M157.15,74.6l1.65-4.29h.61l1.76,4.29h-.65l-.5-1.3h-1.8l-.47,1.3Zm1.24-1.76h1.46l-.45-1.19q-.21-.54-.3-.89a5.48,5.48,0,0,1-.23.82Z" transform="translate(0 -0.78)"/>
      <path class="cls-23" d="M161.62,74.6V70.3h1.62a3.91,3.91,0,0,1,.65,0,1.29,1.29,0,0,1,.53.2,1,1,0,0,1,.34.41,1.3,1.3,0,0,1,.13.59,1.32,1.32,0,0,1-.35.93,1.67,1.67,0,0,1-1.26.38h-1.1V74.6Zm.57-2.25h1.11a1.18,1.18,0,0,0,.78-.21.73.73,0,0,0,.23-.58.77.77,0,0,0-.14-.46.63.63,0,0,0-.36-.25,2.43,2.43,0,0,0-.53,0h-1.1Z" transform="translate(0 -0.78)"/>
    </g>
    <g>
      <path class="cls-23" d="M123.08,5.15V.85h.57V5.15Z" transform="translate(0 -0.78)"/>
      <path class="cls-23" d="M124.64,5.15V.85h.58l2.26,3.37V.85H128V5.15h-.58l-2.26-3.37V5.15Z" transform="translate(0 -0.78)"/>
      <path class="cls-23" d="M130.07,5.15V1.36h-1.42V.85h3.4v.51h-1.42V5.15Z" transform="translate(0 -0.78)"/>
      <path class="cls-23" d="M131.73,5.15,133.38.85H134l1.76,4.29h-.65l-.5-1.3h-1.8l-.47,1.3ZM133,3.38h1.46L134,2.2q-.21-.54-.3-.89a5.48,5.48,0,0,1-.23.82Z" transform="translate(0 -0.78)"/>
      <path class="cls-23" d="M136.18,5.15V.85h.57V3L138.88.85h.77l-1.8,1.74,1.88,2.55H139L137.45,3l-.7.69V5.15Z" transform="translate(0 -0.78)"/>
      <path class="cls-23" d="M140.22,5.15V.85h3.11v.51h-2.54V2.68h2.38v.5h-2.38V4.64h2.64v.51Z" transform="translate(0 -0.78)"/>
      <path class="cls-23" d="M145.07,5.15,146.72.85h.61l1.76,4.29h-.65l-.5-1.3h-1.8l-.47,1.3Zm1.24-1.76h1.46l-.45-1.19q-.21-.54-.3-.89a5.48,5.48,0,0,1-.23.82Z" transform="translate(0 -0.78)"/>
      <path class="cls-23" d="M149.64,5.15V.85h.57V5.15Z" transform="translate(0 -0.78)"/>
      <path class="cls-23" d="M151.22,5.15V.85h1.9A2.56,2.56,0,0,1,154,1a1,1,0,0,1,.48.41,1.22,1.22,0,0,1,.18.65,1.08,1.08,0,0,1-.3.77,1.5,1.5,0,0,1-.91.4,1.47,1.47,0,0,1,.34.21,3,3,0,0,1,.47.57L155,5.15h-.71l-.57-.89q-.25-.39-.41-.59a1.27,1.27,0,0,0-.29-.29.84.84,0,0,0-.26-.11l-.32,0h-.66V5.15Zm.57-2.4H153a1.81,1.81,0,0,0,.61-.08.64.64,0,0,0,.33-.26.69.69,0,0,0,.11-.38.64.64,0,0,0-.22-.5,1,1,0,0,0-.7-.2h-1.36Z" transform="translate(0 -0.78)"/>
      <path class="cls-23" d="M157.21,5.15V.85h1.62a3.91,3.91,0,0,1,.65,0,1.29,1.29,0,0,1,.53.2,1,1,0,0,1,.34.41,1.3,1.3,0,0,1,.13.59,1.32,1.32,0,0,1-.35.93,1.67,1.67,0,0,1-1.26.38h-1.1V5.15Zm.57-2.25h1.11a1.18,1.18,0,0,0,.78-.21.73.73,0,0,0,.23-.58.77.77,0,0,0-.14-.46.63.63,0,0,0-.36-.25,2.43,2.43,0,0,0-.53,0h-1.1Z" transform="translate(0 -0.78)"/>
      <path class="cls-23" d="M161.31,5.15V.85h.57V5.15Z" transform="translate(0 -0.78)"/>
      <path class="cls-23" d="M162.88,5.15V.85h1.62a3.91,3.91,0,0,1,.65,0,1.29,1.29,0,0,1,.53.2,1.06,1.06,0,0,1,.34.41,1.33,1.33,0,0,1,.13.59,1.32,1.32,0,0,1-.35.93,1.67,1.67,0,0,1-1.26.38h-1.1V5.15Zm.57-2.25h1.11a1.18,1.18,0,0,0,.78-.21.73.73,0,0,0,.23-.58.78.78,0,0,0-.14-.46.64.64,0,0,0-.36-.25,2.43,2.43,0,0,0-.53,0h-1.1Z" transform="translate(0 -0.78)"/>
      <path class="cls-23" d="M166.89,5.15V.85H170v.51h-2.54V2.68h2.38v.5h-2.38V4.64h2.64v.51Z" transform="translate(0 -0.78)"/>
    </g>
    <g>
      <path class="cls-23" d="M76.64,21.26V19.44L75,17h.69l.85,1.29q.23.36.44.73.19-.34.47-.76L78.26,17h.66l-1.71,2.48v1.82Z" transform="translate(0 -0.78)"/>
      <path class="cls-23" d="M81,21.26V17h2.9v.51H81.59V18.8h2v.51h-2v2Z" transform="translate(0 -0.78)"/>
      <path class="cls-23" d="M84.75,21.26V17h.57v4.29Z" transform="translate(0 -0.78)"/>
      <path class="cls-23" d="M87.42,21.26V17.47H86V17h3.4v.51H88v3.79Z" transform="translate(0 -0.78)"/>
      <path class="cls-23" d="M91.08,21.26V17.47H89.67V17h3.4v.51H91.65v3.79Z" transform="translate(0 -0.78)"/>
      <path class="cls-23" d="M93.75,21.26V17h.57v4.29Z" transform="translate(0 -0.78)"/>
      <path class="cls-23" d="M95.32,21.26V17h.58l2.26,3.37V17h.54v4.29h-.58l-2.26-3.37v3.38Z" transform="translate(0 -0.78)"/>
      <path class="cls-23" d="M101.66,19.57v-.5h1.82v1.59a3.21,3.21,0,0,1-.86.5,2.56,2.56,0,0,1-.91.17,2.44,2.44,0,0,1-1.15-.27,1.79,1.79,0,0,1-.78-.78,2.47,2.47,0,0,1-.26-1.15A2.65,2.65,0,0,1,99.77,18a1.74,1.74,0,0,1,.75-.81,2.36,2.36,0,0,1,1.13-.26,2.25,2.25,0,0,1,.84.15,1.4,1.4,0,0,1,.59.42,1.86,1.86,0,0,1,.33.7l-.51.14a1.59,1.59,0,0,0-.24-.52,1,1,0,0,0-.41-.3,1.5,1.5,0,0,0-.59-.11,1.74,1.74,0,0,0-.67.12,1.27,1.27,0,0,0-.46.31,1.51,1.51,0,0,0-.27.42,2.25,2.25,0,0,0-.16.86,2.08,2.08,0,0,0,.2,1,1.26,1.26,0,0,0,.58.57,1.78,1.78,0,0,0,.8.19,1.91,1.91,0,0,0,.72-.14,1.86,1.86,0,0,0,.53-.3v-.8Z" transform="translate(0 -0.78)"/>
    </g>
    <g>
      <line class="cls-24" x1="146.04" y1="7.52" x2="146.04" y2="33.35"/>
      <path d="M146.81,35.9c.38-1.24.72-2,1.12-3h-3.78a29.62,29.62,0,0,1,1.12,3,22.19,22.19,0,0,1,.77,3.31A22.21,22.21,0,0,1,146.81,35.9Z" transform="translate(0 -0.78)"/>
    </g>
    <g>
      <line class="cls-24" x1="167" y1="19.85" x2="167" y2="39.85"/>
      <path d="M167.77,42.4c.38-1.24.72-2,1.12-3h-3.78a29.64,29.64,0,0,1,1.12,3,22.2,22.2,0,0,1,.77,3.31A22.23,22.23,0,0,1,167.77,42.4Z" transform="translate(0 -0.78)"/>
    </g>
    <g>
      <line class="cls-24" x1="73.67" y1="19.02" x2="48.67" y2="33.02"/>
      <path d="M47.5,35.33a32.32,32.32,0,0,1,3.2-.51l-1.85-3.3A29.84,29.84,0,0,1,46.74,34a22.19,22.19,0,0,1-2.51,2.29A22.25,22.25,0,0,1,47.5,35.33Z" transform="translate(0 -0.78)"/>
    </g>
    <g>
      <line class="cls-24" x1="33.25" y1="1.98" x2="19.88" y2="1.98"/>
      <g>
        <line class="cls-24" x1="20.17" y1="1.6" x2="20.17" y2="15.73"/>
        <path d="M20.94,18.28c.37-1.24.72-2,1.12-3H18.27a29.63,29.63,0,0,1,1.12,3,22.19,22.19,0,0,1,.77,3.31A22.23,22.23,0,0,1,20.94,18.28Z" transform="translate(0 -0.78)"/>
      </g>
    </g>
    <g>
      <line class="cls-24" x1="19" y1="70.35" x2="10.33" y2="63.02"/>
      <path d="M8.49,63.24c.7,1.09,1.1,1.87,1.6,2.82l2.44-2.89a29.79,29.79,0,0,1-3-1.11,22.08,22.08,0,0,1-3-1.55A22.28,22.28,0,0,1,8.49,63.24Z" transform="translate(0 -0.78)"/>
    </g>
    <g>
      <line class="cls-24" x1="166.67" y1="71.35" x2="179" y2="67.35"/>
      <path d="M180.45,66.85c-1.29,0-2.17-.05-3.24-.13l1.17,3.6a29.71,29.71,0,0,1,2.55-2,22.31,22.31,0,0,1,2.91-1.76A22.1,22.1,0,0,1,180.45,66.85Z" transform="translate(0 -0.78)"/>
    </g>
    <g>
      <path class="cls-23" d="M14.33,87.83l-1.54-4.72h.66l.74,2.33c.2.64.38,1.21.5,1.77h0c.13-.55.33-1.14.54-1.76l.8-2.33h.65L15,87.83Z" transform="translate(0 -0.78)"/>
      <path class="cls-23" d="M19.64,85.62H17.81v1.7h2v.51H17.2V83.11h2.55v.51H17.81v1.49h1.83Z" transform="translate(0 -0.78)"/>
      <path class="cls-23" d="M20.64,87.83V83.11h.67l1.51,2.39A13.38,13.38,0,0,1,23.67,87h0c-.06-.63-.07-1.2-.07-1.94v-2h.57v4.72h-.62l-1.5-2.4a15.09,15.09,0,0,1-.88-1.58h0c0,.59,0,1.16,0,1.95v2Z" transform="translate(0 -0.78)"/>
      <path class="cls-23" d="M26.14,83.63H24.71v-.52h3.5v.52H26.76v4.2h-.62Z" transform="translate(0 -0.78)"/>
      <path class="cls-23" d="M30.21,83.17a7,7,0,0,1,1.17-.09,1.94,1.94,0,0,1,1.32.39,1.27,1.27,0,0,1,.41,1,1.39,1.39,0,0,1-.36,1,2,2,0,0,1-1.44.52,2.14,2.14,0,0,1-.49,0v1.89h-.61Zm.61,2.28a2,2,0,0,0,.5,0c.74,0,1.18-.36,1.18-1s-.44-.92-1.11-.92a2.61,2.61,0,0,0-.57,0Z" transform="translate(0 -0.78)"/>
      <path class="cls-23" d="M34.54,83.11v4.72h-.61V83.11Z" transform="translate(0 -0.78)"/>
      <path class="cls-23" d="M35.61,83.17a7,7,0,0,1,1.17-.09,1.94,1.94,0,0,1,1.32.39,1.27,1.27,0,0,1,.41,1,1.39,1.39,0,0,1-.36,1,2,2,0,0,1-1.44.52,2.14,2.14,0,0,1-.49,0v1.89h-.61Zm.61,2.28a2,2,0,0,0,.5,0c.74,0,1.18-.36,1.18-1s-.44-.92-1.11-.92a2.61,2.61,0,0,0-.57,0Z" transform="translate(0 -0.78)"/>
      <path class="cls-23" d="M41.77,85.62H39.94v1.7h2v.51H39.33V83.11h2.55v.51H39.94v1.49h1.83Z" transform="translate(0 -0.78)"/>
      <path class="cls-23" d="M48.24,85.76c0-.66-.08-1.45-.07-2h0c-.16.55-.36,1.14-.59,1.79l-.83,2.29h-.46l-.76-2.25c-.22-.67-.41-1.27-.55-1.83h0c0,.59,0,1.38-.09,2.09l-.13,2h-.58l.33-4.72h.78L46,85.39c.2.58.36,1.1.48,1.59h0c.12-.48.29-1,.5-1.59l.84-2.28h.78L49,87.83h-.59Z" transform="translate(0 -0.78)"/>
      <path class="cls-23" d="M50.58,86.35l-.49,1.48h-.63l1.6-4.72h.74l1.61,4.72h-.65l-.5-1.48Zm1.55-.48-.46-1.36c-.1-.31-.17-.59-.25-.86h0c-.07.28-.15.57-.24.85l-.46,1.37Z" transform="translate(0 -0.78)"/>
      <path class="cls-23" d="M54.6,87.83v-2l-1.49-2.72h.69l.67,1.3c.18.36.32.64.47,1h0c.13-.31.29-.62.48-1l.68-1.3h.69l-1.58,2.71v2Z" transform="translate(0 -0.78)"/>
      <path class="cls-23" d="M58.82,83.17a5.85,5.85,0,0,1,1.11-.1,2,2,0,0,1,1.3.34,1,1,0,0,1,.39.83,1.12,1.12,0,0,1-.8,1h0a1.22,1.22,0,0,1,1,1.18,1.27,1.27,0,0,1-.4.95,2.37,2.37,0,0,1-1.63.44,7.26,7.26,0,0,1-.95-.06Zm.61,1.93H60c.64,0,1-.34,1-.79s-.42-.77-1-.77a2.57,2.57,0,0,0-.54,0Zm0,2.26a3.34,3.34,0,0,0,.51,0c.63,0,1.21-.23,1.21-.92s-.55-.91-1.22-.91h-.5Z" transform="translate(0 -0.78)"/>
      <path class="cls-23" d="M65.06,85.62H63.22v1.7h2v.51H62.61V83.11h2.55v.51H63.22v1.49h1.83Z" transform="translate(0 -0.78)"/>
      <path class="cls-23" d="M67.46,87.09a2.16,2.16,0,0,0,1.09.31c.62,0,1-.33,1-.8s-.25-.69-.89-.94S67.4,85,67.4,84.32A1.36,1.36,0,0,1,68.93,83a2.14,2.14,0,0,1,1,.23l-.17.5a1.88,1.88,0,0,0-.9-.22c-.64,0-.89.38-.89.71s.29.66.94.91,1.2.69,1.2,1.39-.54,1.36-1.65,1.36a2.44,2.44,0,0,1-1.21-.3Z" transform="translate(0 -0.78)"/>
      <path class="cls-23" d="M71.6,83.11v2h2.28v-2h.62v4.72h-.62V85.62H71.6v2.21H71V83.11Z" transform="translate(0 -0.78)"/>
      <path class="cls-23" d="M79.59,85.42a2.21,2.21,0,0,1-2.19,2.49,2.16,2.16,0,0,1-2.12-2.4A2.24,2.24,0,0,1,77.47,83,2.15,2.15,0,0,1,79.59,85.42Zm-3.66.08c0,1,.55,1.91,1.51,1.91s1.51-.89,1.51-2-.49-1.92-1.51-1.92S75.93,84.46,75.93,85.5Z" transform="translate(0 -0.78)"/>
      <path class="cls-23" d="M80.38,83.17a6.31,6.31,0,0,1,1.17-.1,1.93,1.93,0,0,1,1.37.39,1.17,1.17,0,0,1,.37.9,1.24,1.24,0,0,1-.89,1.2v0a1.18,1.18,0,0,1,.69,1,7.38,7.38,0,0,0,.36,1.3h-.63a6.14,6.14,0,0,1-.32-1.13c-.14-.65-.39-.9-.95-.92H81v2h-.61ZM81,85.32h.62c.65,0,1.06-.36,1.06-.9s-.44-.87-1.08-.88a2.5,2.5,0,0,0-.6.06Z" transform="translate(0 -0.78)"/>
      <path class="cls-23" d="M85.1,83.63H83.67v-.52h3.5v.52H85.72v4.2H85.1Z" transform="translate(0 -0.78)"/>
      <path class="cls-23" d="M90.13,85.62H88.3v1.7h2v.51H87.69V83.11h2.55v.51H88.3v1.49h1.83Z" transform="translate(0 -0.78)"/>
      <path class="cls-23" d="M91.13,87.83V83.11h.67l1.51,2.39A13.38,13.38,0,0,1,94.16,87h0c-.06-.63-.07-1.2-.07-1.94v-2h.57v4.72h-.62l-1.5-2.4a15.09,15.09,0,0,1-.88-1.58h0c0,.59,0,1.16,0,1.95v2Z" transform="translate(0 -0.78)"/>
      <path class="cls-23" d="M98.18,85.62H96.35v1.7h2v.51H95.74V83.11h2.55v.51H96.35v1.49h1.83Z" transform="translate(0 -0.78)"/>
      <path class="cls-23" d="M99.18,83.17a8.64,8.64,0,0,1,1.3-.1,2.7,2.7,0,0,1,1.91.59,2.17,2.17,0,0,1,.67,1.69,2.49,2.49,0,0,1-.68,1.83,2.9,2.9,0,0,1-2.09.68,9.82,9.82,0,0,1-1.11-.06Zm.61,4.17a3.81,3.81,0,0,0,.62,0,1.81,1.81,0,0,0,2-2,1.68,1.68,0,0,0-1.91-1.82,3.45,3.45,0,0,0-.71.06Z" transform="translate(0 -0.78)"/>
    </g>
  </g>
</svg>
