<svg xmlns="http://www.w3.org/2000/svg" xmlns:xlink="http://www.w3.org/1999/xlink" viewBox="0 0 246.65 225.84"><defs><linearGradient id="linear-gradient" x1="367.31" y1="371.36" x2="367.31" y2="392.65" gradientTransform="translate(-273.49 474) rotate(-90)" gradientUnits="userSpaceOnUse"><stop offset="0.12" stop-color="#ccc"/><stop offset="0.27" stop-color="#e7e7e7"/><stop offset="0.4" stop-color="#f9f9f9"/><stop offset="0.5" stop-color="#fff"/><stop offset="0.6" stop-color="#f9f9f9"/><stop offset="0.74" stop-color="#e8e8e8"/><stop offset="0.89" stop-color="#ccc"/></linearGradient><linearGradient id="linear-gradient-2" x1="423.32" y1="363.87" x2="423.32" y2="401.1" gradientTransform="translate(-273.07 474.91) rotate(-90)" xlink:href="#linear-gradient"/><linearGradient id="linear-gradient-3" x1="421.58" y1="376.09" x2="421.58" y2="390.7" gradientTransform="translate(-273.07 474.91) rotate(-90)" xlink:href="#linear-gradient"/><linearGradient id="linear-gradient-4" x1="413.4" y1="376.09" x2="413.4" y2="390.7" gradientTransform="translate(-273.07 474.91) rotate(-90)" xlink:href="#linear-gradient"/><linearGradient id="linear-gradient-5" x1="439.74" y1="375.45" x2="439.67" y2="389.46" xlink:href="#linear-gradient"/><linearGradient id="linear-gradient-6" x1="243.37" y1="269.57" x2="243.37" y2="290.39" gradientTransform="matrix(0, -1, -1, 0, 388.93, 389.29)" xlink:href="#linear-gradient"/><linearGradient id="linear-gradient-7" x1="243.34" y1="269.12" x2="243.34" y2="290.85" gradientTransform="matrix(0, -1, -1, 0, 389.35, 390.2)" gradientUnits="userSpaceOnUse"><stop offset="0.12" stop-color="#999"/><stop offset="0.2" stop-color="#b1b1b1"/><stop offset="0.32" stop-color="#cecece"/><stop offset="0.42" stop-color="#e0e0e0"/><stop offset="0.5" stop-color="#e6e6e6"/><stop offset="0.58" stop-color="#e0e0e0"/><stop offset="0.68" stop-color="#cfcfcf"/><stop offset="0.8" stop-color="#b3b3b3"/><stop offset="0.89" stop-color="#999"/></linearGradient><linearGradient id="linear-gradient-8" x1="245.18" y1="260.42" x2="236.1" y2="269.44" gradientTransform="matrix(0, -1, -1, 0, 389.35, 390.2)" xlink:href="#linear-gradient"/><linearGradient id="linear-gradient-9" x1="236.14" y1="269.14" x2="236.14" y2="290.87" xlink:href="#linear-gradient-7"/><linearGradient id="linear-gradient-10" x1="228.35" y1="269.22" x2="228.35" y2="290.45" gradientTransform="matrix(0, -1, -1, 0, 388.93, 389.29)" xlink:href="#linear-gradient-7"/><linearGradient id="linear-gradient-11" x1="233.41" y1="269.12" x2="233.41" y2="290.85" gradientTransform="matrix(0, -1, -1, 0, 388.93, 389.29)" xlink:href="#linear-gradient-7"/></defs><title>concentric_vert_install</title><g id="new_termination_drawing" data-name="new termination drawing"><rect x="97.99" y="57.42" width="21.4" height="98.54" style="stroke:#000;stroke-linecap:round;stroke-linejoin:round;stroke-width:0.75px;fill:url(#linear-gradient)"/><path d="M114.14,64.61l.8,0a1.49,1.49,0,0,0,1.4-1l1.89-5.15h2.42V64.6h1.74a1.55,1.55,0,0,0,1.19-.63l4.31-5.53v-5.1L116.35,38.57h-14L90.86,53.33v5.1L95.17,64a1.55,1.55,0,0,0,1.2.63H98.1V58.43h2.73l1.85,5.15a1.49,1.49,0,0,0,1.4,1l.75,0h1.71V58.43h5.94V64.6Z" transform="translate(-0.42 -0.91)" style="stroke:#000;stroke-linecap:round;stroke-linejoin:round;stroke-width:0.75px;fill:url(#linear-gradient-2)"/><path d="M105.47,64.6a1.45,1.45,0,0,1-1.39-1.09l-1.8-5.06" transform="translate(-0.42 -0.91)" style="fill:none;stroke:#000;stroke-linecap:round;stroke-linejoin:round;stroke-width:0.540018px"/><path d="M113.08,64.6a1.45,1.45,0,0,0,1.39-1.1l1.8-5.06" transform="translate(-0.42 -0.91)" style="fill:none;stroke:#000;stroke-linecap:round;stroke-linejoin:round;stroke-width:0.540018px"/><path d="M127.93,53.33h-37" transform="translate(-0.42 -0.91)" style="stroke:#000;stroke-linecap:round;stroke-linejoin:round;stroke-width:0.75px;fill:url(#linear-gradient-3)"/><path d="M104.9,64.59h.84m-7.6-6.17H90.9m27.41,0H100.88m27.05,0h-7.25" transform="translate(-0.42 -0.91)" style="stroke:#000;stroke-linecap:round;stroke-linejoin:round;stroke-width:0.75px;fill:url(#linear-gradient-4)"/><rect x="101.97" y="30.94" width="13.95" height="6.71" style="stroke:#000;stroke-linecap:round;stroke-linejoin:round;stroke-width:0.75px;fill:url(#linear-gradient-5)"/><path d="M92.5,109.14v6h33.42v-6Zm3,4.54A1.45,1.45,0,1,1,97,112.24,1.45,1.45,0,0,1,95.5,113.68Zm6,0a1.45,1.45,0,1,1,1.45-1.45A1.45,1.45,0,0,1,101.52,113.68Zm5.1,0a1.45,1.45,0,1,1,1.45-1.45A1.45,1.45,0,0,1,106.62,113.68Zm5.1,0a1.45,1.45,0,1,1,1.45-1.45A1.45,1.45,0,0,1,111.72,113.68Zm5.1,0a1.45,1.45,0,1,1,1.45-1.45A1.45,1.45,0,0,1,116.81,113.68Zm7.69-.55a1.45,1.45,0,1,1-.23-2A1.45,1.45,0,0,1,124.5,113.14Z" transform="translate(-0.42 -0.91)" style="fill:#fff"/><path d="M92.5,109.14v6h33.42v-6Zm3,4.54A1.45,1.45,0,1,1,97,112.24,1.45,1.45,0,0,1,95.5,113.68Zm6,0a1.45,1.45,0,1,1,1.45-1.45A1.45,1.45,0,0,1,101.52,113.68Zm5.1,0a1.45,1.45,0,1,1,1.45-1.45A1.45,1.45,0,0,1,106.62,113.68Zm5.1,0a1.45,1.45,0,1,1,1.45-1.45A1.45,1.45,0,0,1,111.72,113.68Zm5.1,0a1.45,1.45,0,1,1,1.45-1.45A1.45,1.45,0,0,1,116.81,113.68Zm7.69-.55a1.45,1.45,0,1,1-.23-2A1.45,1.45,0,0,1,124.5,113.14Z" transform="translate(-0.42 -0.91)" style="fill:none;stroke:#231f20;stroke-linejoin:round;stroke-width:0.45530499999999996px"/><ellipse cx="110.99" cy="223.91" rx="2.32" ry="1.55" style="fill:none;stroke:#231f20;stroke-linecap:round;stroke-linejoin:round;stroke-width:0.75px"/><path d="M111.42,226.37c1.28,0,2.36-.69,2.36-1.55v-49h-9.31l0,49c0,.86,1,1.55,2.32,1.55s2.32-.69,2.32-1.55C109.09,225.68,110.13,226.37,111.42,226.37Z" transform="translate(-0.42 -0.91)" style="fill:none;stroke:#231f20;stroke-linecap:round;stroke-linejoin:round;stroke-width:0.75px"/><path d="M144.8,226.37c1.28,0,2.36-.69,2.36-1.55v-42h-9.31l0,42c0,.86,1,1.55,2.32,1.55s2.32-.69,2.32-1.55C142.48,225.68,143.52,226.37,144.8,226.37Z" transform="translate(-0.42 -0.91)" style="fill:#fff;stroke:#231f20;stroke-linecap:round;stroke-linejoin:round;stroke-width:0.75px"/><ellipse cx="144.38" cy="223.91" rx="2.32" ry="1.55" style="fill:none;stroke:#231f20;stroke-linecap:round;stroke-linejoin:round;stroke-width:0.75px"/><path d="M148.3,179.67l-1.08-1.11,0-6.82a15.84,15.84,0,0,0-4.69-11.28l-5-5.17-6.8,6.86,5,5a6.36,6.36,0,0,1,1.94,4.61v6.83l-1.08,1.11Z" transform="translate(-0.42 -0.91)" style="fill:#fff;stroke:#000;stroke-linecap:round;stroke-linejoin:round;stroke-width:0.540018px"/><path d="M148.3,179.67l-1.08-1.11,0-6.82a15.84,15.84,0,0,0-4.69-11.28l-5-5.17-6.8,6.86,5,5a6.36,6.36,0,0,1,1.94,4.61v6.83l-1.08,1.11Z" transform="translate(-0.42 -0.91)" style="fill:none;stroke:#231f20;stroke-linecap:round;stroke-linejoin:round;stroke-width:0.75px"/><line x1="137.32" y1="177.67" x2="146.8" y2="177.67" style="fill:#fff;stroke:#231f20;stroke-linecap:round;stroke-linejoin:round;stroke-width:0.45530499999999996px"/><rect x="136.23" y="178.76" width="11.66" height="5.68" style="fill:#fff;stroke:#000;stroke-linecap:round;stroke-linejoin:round;stroke-width:0.75px"/><path d="M145.73,94.7l13.08-4.28M119.66,103.2l14.56-4.74M61.58,122.19l30.81-10.07m27.24-20.06L158,79.5M61.15,111.17,98.23,99.05m52.44-17L147,79,129.5,84.62l-3.74-3.08L121.12,83V80.8h-1.49M72.69,107.38l1.39-4.55L90.8,97.36l1.5-4.85,4.4-1.41.07-10.3h1.49" transform="translate(-0.42 -0.91)" style="fill:none;stroke:#231f20;stroke-width:0.5px"/><path d="M142.75,89.19l4.42,4.06L124.6,117.81l-4.42-4.06Zm2,3.74a1.45,1.45,0,1,0-1.21,1.65A1.44,1.44,0,0,0,144.73,92.93Zm-4.79,6a1.45,1.45,0,1,0-2,.09A1.45,1.45,0,0,0,139.94,99Zm-3.44,3.75a1.45,1.45,0,1,0-2,.09A1.45,1.45,0,0,0,136.5,102.7Zm-3.44,3.75a1.45,1.45,0,1,0-2,.08A1.45,1.45,0,0,0,133.05,106.45Zm-3.44,3.75a1.45,1.45,0,1,0-2,.09A1.45,1.45,0,0,0,129.61,110.19Zm-4.06,4.42a1.45,1.45,0,1,0-2,.09A1.45,1.45,0,0,0,125.55,114.61Z" transform="translate(-0.42 -0.91)" style="fill:#fff;stroke:#231f20;stroke-linejoin:round;stroke-width:0.5px"/><polygon points="119.14 134.75 119.14 126.07 120.47 124.74 120.47 116.48 97.05 116.48 97.05 124.74 98.38 126.07 98.38 155.88 102.1 160.94 102.14 167.17 101.27 167.17 101.27 175.37 116.24 175.37 116.24 167.17 115.38 167.17 115.41 160.94 119.14 155.88 119.12 152.2 119.14 134.75" style="stroke:#000;stroke-linecap:round;stroke-linejoin:round;stroke-width:0.75px;fill:url(#linear-gradient-6)"/><path d="M97.47,125.65h23.42M98.8,127h20.76m-17.87,41.1h15" transform="translate(-0.42 -0.91)" style="stroke:#000;stroke-linecap:round;stroke-linejoin:round;stroke-width:0.75px;fill:url(#linear-gradient-7)"/><path d="M124.08,158l-4.54-4.87h0c-2.26-7.36-1.77-5.41-1.89-12.41-.08-4.64,1.33-4.25,1.9-5L133,149.07h1.06l4.86,4.86-10,10-4.86-4.86Z" transform="translate(-0.42 -0.91)" style="stroke:#000;stroke-linecap:round;stroke-linejoin:round;stroke-width:0.75px;fill:url(#linear-gradient-8)"/><path d="M124.07,159.05l10-10m-10,8.92,8.92-8.92" transform="translate(-0.42 -0.91)" style="stroke:#000;stroke-linecap:round;stroke-linejoin:round;stroke-width:0.5px;fill:url(#linear-gradient-9)"/><line x1="115.41" y1="160.94" x2="102.29" y2="160.94" style="stroke:#000;stroke-linecap:round;stroke-linejoin:round;stroke-width:0.75px;fill:url(#linear-gradient-10)"/><line x1="119.14" y1="155.88" x2="98.53" y2="155.88" style="stroke:#000;stroke-linecap:round;stroke-linejoin:round;stroke-width:0.75px;fill:url(#linear-gradient-11)"/></g><g id="arrows"><line x1="107.79" y1="29.33" x2="107.79" y2="15.58" style="fill:none;stroke:#231f20"/><path d="M107.19,14.13c-.5,1.65-1,2.73-1.49,4.05h5a39.56,39.56,0,0,1-1.49-4.05,29.56,29.56,0,0,1-1-4.42A29.61,29.61,0,0,1,107.19,14.13Z" transform="translate(-0.42 -0.91)" style="fill:#231f20"/><line x1="56.9" y1="74.82" x2="80.16" y2="90.08" style="fill:none;stroke:#231f20"/><path d="M83.12,91.43A43.16,43.16,0,0,1,80.55,88l-2.77,4.22a39.55,39.55,0,0,1,4.21,1,29.63,29.63,0,0,1,4.26,1.56A29.57,29.57,0,0,1,83.12,91.43Z" transform="translate(-0.42 -0.91)" style="fill:#231f20"/><line x1="174.8" y1="106.02" x2="142.98" y2="103.78" style="fill:none;stroke:#231f20"/><path d="M141,105.55c1.61.61,2.65,1.15,3.94,1.77l.35-5a39.54,39.54,0,0,1-4.15,1.2,29.56,29.56,0,0,1-4.48.72A29.62,29.62,0,0,1,141,105.55Z" transform="translate(-0.42 -0.91)" style="fill:#231f20"/><line x1="77.23" y1="198.78" x2="94.28" y2="198.79" style="fill:none;stroke:#231f20"/><path d="M97.06,198.67c-1.65-.5-2.73-1-4.05-1.49v5a39.43,39.43,0,0,1,4.05-1.49,29.51,29.51,0,0,1,4.42-1A29.69,29.69,0,0,1,97.06,198.67Z" transform="translate(-0.42 -0.91)" style="fill:#231f20"/><line x1="171.27" y1="198.78" x2="154.22" y2="198.79" style="fill:none;stroke:#231f20"/><path d="M152.28,200.72a43,43,0,0,1,4.05,1.49v-5a39.77,39.77,0,0,1-4.05,1.49,29.62,29.62,0,0,1-4.42,1A29.5,29.5,0,0,1,152.28,200.72Z" transform="translate(-0.42 -0.91)" style="fill:#231f20"/><line x1="108.96" y1="213.33" x2="108.96" y2="202.52" style="fill:none;stroke:#231f20"/><path d="M108.36,201.07c-.5,1.65-1,2.73-1.49,4.05h5a39.56,39.56,0,0,1-1.49-4.05,29.55,29.55,0,0,1-1-4.42A29.61,29.61,0,0,1,108.36,201.07Z" transform="translate(-0.42 -0.91)" style="fill:#231f20"/><line x1="142.04" y1="197.85" x2="142.04" y2="208.66" style="fill:none;stroke:#231f20"/><path d="M143.49,211.93c.5-1.65,1-2.73,1.49-4.05h-5a39.53,39.53,0,0,1,1.49,4.05,29.55,29.55,0,0,1,1,4.42A29.67,29.67,0,0,1,143.49,211.93Z" transform="translate(-0.42 -0.91)" style="fill:#231f20"/><path d="M90.05,63.86c-9,5-22.8.92-25.83-9.38a23.54,23.54,0,0,1-.93-8.12" transform="translate(-0.42 -0.91)" style="fill:none;stroke:#231f20"/><path d="M91.07,62.53a28.08,28.08,0,0,1-2.77.44l1.6,2.86a25.7,25.7,0,0,1,1.83-2.13,19.25,19.25,0,0,1,2.18-2A19.23,19.23,0,0,1,91.07,62.53Z" transform="translate(-0.42 -0.91)" style="fill:#231f20"/><line x1="135.24" y1="64.5" x2="135.28" y2="74.42" style="fill:none;stroke:#231f20"/><path d="M136.74,77.68a43.16,43.16,0,0,1,1.48-4.06l-5,0a39.62,39.62,0,0,1,1.51,4,29.56,29.56,0,0,1,1,4.41A29.67,29.67,0,0,1,136.74,77.68Z" transform="translate(-0.42 -0.91)" style="fill:#231f20"/><path d="M134.63,63.05a42.89,42.89,0,0,1-1.47,4.06l5,0a39.62,39.62,0,0,1-1.51-4,29.54,29.54,0,0,1-1-4.41A29.57,29.57,0,0,1,134.63,63.05Z" transform="translate(-0.42 -0.91)" style="fill:#231f20"/><path d="M157.53,66.91c11.21-.17,21.93-7.4,23.18-16.12" transform="translate(-0.42 -0.91)" style="fill:none;stroke:#231f20"/><path d="M156,67.6c1.08.31,1.78.6,2.65.93l0-3.28a25.82,25.82,0,0,1-2.62,1,19.18,19.18,0,0,1-2.86.71A19.22,19.22,0,0,1,156,67.6Z" transform="translate(-0.42 -0.91)" style="fill:#231f20"/><line x1="127.37" y1="57.42" x2="160.24" y2="57.42" style="fill:none;stroke:#231f20"/></g><g id="text"><path d="M155.12,131v-5h.68l2.63,3.93V126h.63v5h-.68l-2.63-3.94V131Z" transform="translate(-0.42 -0.91)" style="fill:#231f20"/><path d="M160,128.57a2.72,2.72,0,0,1,.67-2,2.28,2.28,0,0,1,1.73-.71,2.4,2.4,0,0,1,1.25.33,2.15,2.15,0,0,1,.85.92,3,3,0,0,1,.29,1.35,3,3,0,0,1-.31,1.36,2.1,2.1,0,0,1-.87.91,2.49,2.49,0,0,1-1.22.31,2.37,2.37,0,0,1-1.26-.34,2.2,2.2,0,0,1-.84-.93A2.83,2.83,0,0,1,160,128.57Zm.68,0a2,2,0,0,0,.49,1.43,1.7,1.7,0,0,0,2.45,0,2.13,2.13,0,0,0,.48-1.49,2.56,2.56,0,0,0-.21-1.07,1.59,1.59,0,0,0-.61-.71,1.63,1.63,0,0,0-.89-.25,1.7,1.7,0,0,0-1.21.48A2.16,2.16,0,0,0,160.66,128.58Z" transform="translate(-0.42 -0.91)" style="fill:#231f20"/><path d="M166.9,131v-4.42h-1.65V126h4v.59h-1.66V131Z" transform="translate(-0.42 -0.91)" style="fill:#231f20"/><path d="M169.91,131v-5h3.62v.59h-3v1.53h2.77v.59h-2.77v1.71h3.08V131Z" transform="translate(-0.42 -0.91)" style="fill:#231f20"/><path d="M174.66,128.08v-.7h.7v.7Zm0,2.93v-.7h.7v.7Z" transform="translate(-0.42 -0.91)" style="fill:#231f20"/><path d="M178.23,129.4l.63-.05a1.4,1.4,0,0,0,.21.62,1.13,1.13,0,0,0,.5.39,1.9,1.9,0,0,0,.77.15,1.84,1.84,0,0,0,.67-.11.94.94,0,0,0,.43-.31.72.72,0,0,0,.14-.43.65.65,0,0,0-.14-.41,1,1,0,0,0-.45-.3,9.22,9.22,0,0,0-.89-.24,4.6,4.6,0,0,1-1-.31,1.37,1.37,0,0,1-.54-.47,1.14,1.14,0,0,1-.18-.62,1.27,1.27,0,0,1,.22-.71,1.33,1.33,0,0,1,.63-.5,2.39,2.39,0,0,1,.92-.17,2.52,2.52,0,0,1,1,.18,1.42,1.42,0,0,1,.66.53,1.51,1.51,0,0,1,.25.79l-.64,0a1,1,0,0,0-.35-.72,1.35,1.35,0,0,0-.87-.24,1.4,1.4,0,0,0-.88.22.66.66,0,0,0-.27.53.57.57,0,0,0,.19.44,2.64,2.64,0,0,0,1,.36,6.59,6.59,0,0,1,1.11.32,1.53,1.53,0,0,1,.65.51,1.25,1.25,0,0,1,.21.71,1.36,1.36,0,0,1-.23.75,1.5,1.5,0,0,1-.66.55,2.29,2.29,0,0,1-1,.2,2.88,2.88,0,0,1-1.14-.2,1.59,1.59,0,0,1-.72-.6A1.7,1.7,0,0,1,178.23,129.4Z" transform="translate(-0.42 -0.91)" style="fill:#231f20"/><path d="M183.14,131v-5h3.62v.59h-3v1.53h2.77v.59H183.8v1.71h3.08V131Z" transform="translate(-0.42 -0.91)" style="fill:#231f20"/><path d="M191.37,129.25l.66.17a2.24,2.24,0,0,1-.75,1.25,2.07,2.07,0,0,1-1.33.43,2.38,2.38,0,0,1-1.32-.33,2.08,2.08,0,0,1-.77-1,3.43,3.43,0,0,1-.26-1.34,3,3,0,0,1,.3-1.37,2,2,0,0,1,.85-.89,2.49,2.49,0,0,1,1.21-.3,2.05,2.05,0,0,1,1.26.38,2,2,0,0,1,.71,1.08l-.65.15a1.56,1.56,0,0,0-.51-.8,1.35,1.35,0,0,0-.83-.25,1.62,1.62,0,0,0-1,.28,1.47,1.47,0,0,0-.54.74,3,3,0,0,0-.16,1,3.06,3.06,0,0,0,.19,1.12,1.39,1.39,0,0,0,.58.71,1.62,1.62,0,0,0,.85.24,1.42,1.42,0,0,0,.94-.32A1.65,1.65,0,0,0,191.37,129.25Z" transform="translate(-0.42 -0.91)" style="fill:#231f20"/><path d="M196.14,126h.66v2.9a3.42,3.42,0,0,1-.17,1.2,1.46,1.46,0,0,1-.62.72,2.19,2.19,0,0,1-1.17.28,2.41,2.41,0,0,1-1.15-.24,1.39,1.39,0,0,1-.64-.7,3.36,3.36,0,0,1-.19-1.26V126h.66v2.89a2.81,2.81,0,0,0,.12,1,.92.92,0,0,0,.42.48,1.45,1.45,0,0,0,.72.17,1.38,1.38,0,0,0,1-.33,1.91,1.91,0,0,0,.31-1.28Z" transform="translate(-0.42 -0.91)" style="fill:#231f20"/><path d="M197.92,131v-5h2.22a3,3,0,0,1,1,.13,1.12,1.12,0,0,1,.56.48,1.42,1.42,0,0,1,.21.76,1.26,1.26,0,0,1-.34.9,1.75,1.75,0,0,1-1.07.46,1.71,1.71,0,0,1,.4.25,3.38,3.38,0,0,1,.55.67l.87,1.36h-.83l-.66-1c-.19-.3-.35-.53-.48-.69a1.54,1.54,0,0,0-.34-.34,1,1,0,0,0-.3-.13,2,2,0,0,0-.37,0h-.77V131Zm.66-2.8H200a2.12,2.12,0,0,0,.71-.09.75.75,0,0,0,.39-.3.81.81,0,0,0,.13-.45.74.74,0,0,0-.26-.58,1.2,1.2,0,0,0-.81-.23h-1.59Z" transform="translate(-0.42 -0.91)" style="fill:#231f20"/><path d="M203.07,131v-5h.66v5Z" transform="translate(-0.42 -0.91)" style="fill:#231f20"/><path d="M204.9,131v-5h.68l2.63,3.93V126h.64v5h-.68l-2.63-3.94V131Z" transform="translate(-0.42 -0.91)" style="fill:#231f20"/><path d="M212.31,129v-.59h2.12v1.86a3.75,3.75,0,0,1-1,.59,3,3,0,0,1-1.07.2,2.85,2.85,0,0,1-1.34-.32,2.1,2.1,0,0,1-.91-.91,2.88,2.88,0,0,1-.31-1.34,3.1,3.1,0,0,1,.31-1.37,2,2,0,0,1,.88-.94,2.76,2.76,0,0,1,1.32-.31,2.62,2.62,0,0,1,1,.18,1.63,1.63,0,0,1,.69.49,2.16,2.16,0,0,1,.38.82l-.6.16a1.84,1.84,0,0,0-.28-.6,1.15,1.15,0,0,0-.48-.35,1.76,1.76,0,0,0-.69-.13,2,2,0,0,0-.79.14,1.47,1.47,0,0,0-.54.36,1.71,1.71,0,0,0-.32.5,2.62,2.62,0,0,0-.19,1,2.44,2.44,0,0,0,.23,1.12,1.47,1.47,0,0,0,.67.67,2.08,2.08,0,0,0,.94.22,2.23,2.23,0,0,0,.84-.17,2.14,2.14,0,0,0,.62-.35V129Z" transform="translate(-0.42 -0.91)" style="fill:#231f20"/><path d="M217.13,129.4l.63-.05a1.37,1.37,0,0,0,.21.62,1.12,1.12,0,0,0,.5.39,1.9,1.9,0,0,0,.77.15,1.85,1.85,0,0,0,.67-.11.93.93,0,0,0,.43-.31.72.72,0,0,0,.14-.43.66.66,0,0,0-.14-.41,1,1,0,0,0-.45-.3,9.22,9.22,0,0,0-.89-.24,4.56,4.56,0,0,1-1-.31,1.36,1.36,0,0,1-.54-.47,1.14,1.14,0,0,1-.18-.62,1.27,1.27,0,0,1,.22-.71,1.33,1.33,0,0,1,.63-.5,2.39,2.39,0,0,1,.92-.17,2.52,2.52,0,0,1,1,.18,1.42,1.42,0,0,1,.66.53,1.52,1.52,0,0,1,.25.79l-.64,0a1,1,0,0,0-.35-.72,1.35,1.35,0,0,0-.87-.24,1.4,1.4,0,0,0-.88.22.66.66,0,0,0-.27.53.57.57,0,0,0,.19.44,2.64,2.64,0,0,0,1,.36,6.57,6.57,0,0,1,1.11.32,1.52,1.52,0,0,1,.65.51,1.25,1.25,0,0,1,.21.71,1.36,1.36,0,0,1-.23.75,1.51,1.51,0,0,1-.66.55,2.29,2.29,0,0,1-1,.2,2.87,2.87,0,0,1-1.14-.2,1.59,1.59,0,0,1-.72-.6A1.69,1.69,0,0,1,217.13,129.4Z" transform="translate(-0.42 -0.91)" style="fill:#231f20"/><path d="M223.29,131v-4.42h-1.65V126h4v.59H224V131Z" transform="translate(-0.42 -0.91)" style="fill:#231f20"/><path d="M226.31,131v-5h2.22a3,3,0,0,1,1,.13,1.11,1.11,0,0,1,.56.48,1.42,1.42,0,0,1,.21.76,1.26,1.26,0,0,1-.35.9,1.75,1.75,0,0,1-1.07.46,1.72,1.72,0,0,1,.4.25,3.46,3.46,0,0,1,.55.67l.87,1.36h-.83l-.66-1c-.19-.3-.35-.53-.48-.69a1.52,1.52,0,0,0-.34-.34,1,1,0,0,0-.3-.13,2,2,0,0,0-.37,0H227V131Zm.66-2.8h1.42a2.11,2.11,0,0,0,.71-.09.76.76,0,0,0,.39-.3.82.82,0,0,0,.13-.45.75.75,0,0,0-.26-.58,1.21,1.21,0,0,0-.82-.23H227Z" transform="translate(-0.42 -0.91)" style="fill:#231f20"/><path d="M230.8,131l1.92-5h.71l2.05,5h-.75l-.58-1.52h-2.09L231.5,131Zm1.45-2.06h1.7l-.52-1.39q-.24-.63-.36-1a6.23,6.23,0,0,1-.27,1Z" transform="translate(-0.42 -0.91)" style="fill:#231f20"/><path d="M236,131v-5h1.89a4.58,4.58,0,0,1,.76,0,1.5,1.5,0,0,1,.62.23,1.22,1.22,0,0,1,.4.48,1.63,1.63,0,0,1-.25,1.77A2,2,0,0,1,238,129h-1.29v2Zm.66-2.63H238a1.38,1.38,0,0,0,.91-.24.85.85,0,0,0,.27-.67.91.91,0,0,0-.16-.54.74.74,0,0,0-.42-.3,2.83,2.83,0,0,0-.62,0h-1.28Z" transform="translate(-0.42 -0.91)" style="fill:#231f20"/><path d="M155.1,139.41v-5h1l1.19,3.55.24.74q.08-.27.27-.8l1.2-3.49h.89v5h-.64v-4.19l-1.46,4.19h-.6l-1.45-4.27v4.27Z" transform="translate(-0.42 -0.91)" style="fill:#231f20"/><path d="M164.24,134.4h.66v2.9a3.43,3.43,0,0,1-.17,1.2,1.46,1.46,0,0,1-.62.72,2.19,2.19,0,0,1-1.17.28,2.4,2.4,0,0,1-1.15-.24,1.39,1.39,0,0,1-.64-.7,3.37,3.37,0,0,1-.19-1.26v-2.9h.66v2.89a2.81,2.81,0,0,0,.12,1,.92.92,0,0,0,.42.48,1.44,1.44,0,0,0,.72.17,1.38,1.38,0,0,0,1-.33,1.91,1.91,0,0,0,.31-1.27Z" transform="translate(-0.42 -0.91)" style="fill:#231f20"/><path d="M165.78,137.8l.63-.05a1.37,1.37,0,0,0,.21.62,1.11,1.11,0,0,0,.5.39,1.9,1.9,0,0,0,.77.15,1.83,1.83,0,0,0,.67-.11.92.92,0,0,0,.43-.31.72.72,0,0,0,.14-.43.66.66,0,0,0-.14-.41,1,1,0,0,0-.45-.29,8.7,8.7,0,0,0-.89-.24,4.59,4.59,0,0,1-1-.31,1.36,1.36,0,0,1-.54-.47,1.15,1.15,0,0,1-.18-.62,1.28,1.28,0,0,1,.21-.71,1.34,1.34,0,0,1,.63-.5,2.4,2.4,0,0,1,.92-.17,2.52,2.52,0,0,1,1,.18,1.43,1.43,0,0,1,.65.53,1.52,1.52,0,0,1,.25.79l-.64,0a1,1,0,0,0-.35-.72,1.35,1.35,0,0,0-.87-.24,1.39,1.39,0,0,0-.88.22.66.66,0,0,0-.28.53.56.56,0,0,0,.2.44,2.6,2.6,0,0,0,1,.36,6.55,6.55,0,0,1,1.11.32,1.52,1.52,0,0,1,.65.51,1.24,1.24,0,0,1,.21.71,1.36,1.36,0,0,1-.23.75,1.51,1.51,0,0,1-.66.55,2.29,2.29,0,0,1-1,.2,2.87,2.87,0,0,1-1.14-.2,1.6,1.6,0,0,1-.72-.6A1.68,1.68,0,0,1,165.78,137.8Z" transform="translate(-0.42 -0.91)" style="fill:#231f20"/><path d="M172,139.41V135H170.3v-.59h4V135h-1.66v4.42Z" transform="translate(-0.42 -0.91)" style="fill:#231f20"/><path d="M176.75,139.41v-5h1.88a2.32,2.32,0,0,1,.92.15,1.19,1.19,0,0,1,.54.47,1.24,1.24,0,0,1,.2.66,1.14,1.14,0,0,1-.17.6,1.26,1.26,0,0,1-.53.46,1.3,1.3,0,0,1,.7.45,1.22,1.22,0,0,1,.24.76,1.46,1.46,0,0,1-.15.65,1.26,1.26,0,0,1-.37.47,1.55,1.55,0,0,1-.55.25,3.34,3.34,0,0,1-.81.08Zm.66-2.91h1.08a2.45,2.45,0,0,0,.63-.06.71.71,0,0,0,.38-.25.72.72,0,0,0,.13-.44.81.81,0,0,0-.12-.44.6.6,0,0,0-.34-.26,2.84,2.84,0,0,0-.76-.07h-1Zm0,2.31h1.25a2.92,2.92,0,0,0,.45,0,1.08,1.08,0,0,0,.38-.14.73.73,0,0,0,.25-.28.87.87,0,0,0,.1-.42.83.83,0,0,0-.14-.49.75.75,0,0,0-.4-.29,2.44,2.44,0,0,0-.73-.08h-1.16Z" transform="translate(-0.42 -0.91)" style="fill:#231f20"/><path d="M181.46,139.41v-5h3.62V135h-3v1.54h2.77v.59h-2.77v1.71h3.08v.59Z" transform="translate(-0.42 -0.91)" style="fill:#231f20"/><path d="M188.09,139.41v-5h3.38V135h-2.72v1.55h2.35v.59h-2.35v2.28Z" transform="translate(-0.42 -0.91)" style="fill:#231f20"/><path d="M192.44,139.41v-5h.66v5Z" transform="translate(-0.42 -0.91)" style="fill:#231f20"/><path d="M194.29,139.41v-5h3.62V135h-3v1.54h2.77v.59H195v1.71H198v.59Z" transform="translate(-0.42 -0.91)" style="fill:#231f20"/><path d="M198.92,139.41v-5h.66v4.42H202v.59Z" transform="translate(-0.42 -0.91)" style="fill:#231f20"/><path d="M202.84,139.41v-5h1.73a4.18,4.18,0,0,1,.89.07,1.69,1.69,0,0,1,.73.36,2,2,0,0,1,.59.86,3.36,3.36,0,0,1,.2,1.19,3.46,3.46,0,0,1-.13,1,2.43,2.43,0,0,1-.34.73,1.81,1.81,0,0,1-.46.45,1.83,1.83,0,0,1-.6.25,3.43,3.43,0,0,1-.81.09Zm.66-.59h1.07a2.63,2.63,0,0,0,.78-.09,1.13,1.13,0,0,0,.45-.26,1.59,1.59,0,0,0,.37-.63,3.09,3.09,0,0,0,.13-1,2.34,2.34,0,0,0-.26-1.21,1.3,1.3,0,0,0-.63-.57,2.59,2.59,0,0,0-.86-.1H203.5Z" transform="translate(-0.42 -0.91)" style="fill:#231f20"/><path d="M210,139.41v-5h.66v5Z" transform="translate(-0.42 -0.91)" style="fill:#231f20"/><path d="M211.78,139.41v-5h.68l2.63,3.93V134.4h.64v5H215l-2.63-3.94v3.94Z" transform="translate(-0.42 -0.91)" style="fill:#231f20"/><path d="M216.61,137.8l.63-.05a1.39,1.39,0,0,0,.21.62,1.13,1.13,0,0,0,.5.39,1.9,1.9,0,0,0,.77.15,1.82,1.82,0,0,0,.67-.11.93.93,0,0,0,.43-.31A.72.72,0,0,0,220,138a.65.65,0,0,0-.14-.41,1,1,0,0,0-.45-.29,8.7,8.7,0,0,0-.89-.24,4.63,4.63,0,0,1-1-.31,1.36,1.36,0,0,1-.54-.47,1.15,1.15,0,0,1-.18-.62A1.29,1.29,0,0,1,217,135a1.34,1.34,0,0,1,.63-.5,2.4,2.4,0,0,1,.92-.17,2.52,2.52,0,0,1,1,.18,1.42,1.42,0,0,1,.65.53,1.5,1.5,0,0,1,.25.79l-.63,0a1,1,0,0,0-.35-.72,1.35,1.35,0,0,0-.87-.24,1.39,1.39,0,0,0-.88.22.66.66,0,0,0-.28.53.57.57,0,0,0,.2.44,2.6,2.6,0,0,0,1,.36,6.57,6.57,0,0,1,1.11.32,1.53,1.53,0,0,1,.65.51,1.24,1.24,0,0,1,.21.71,1.36,1.36,0,0,1-.23.75,1.5,1.5,0,0,1-.66.55,2.29,2.29,0,0,1-1,.2,2.87,2.87,0,0,1-1.14-.2,1.6,1.6,0,0,1-.72-.6A1.7,1.7,0,0,1,216.61,137.8Z" transform="translate(-0.42 -0.91)" style="fill:#231f20"/><path d="M222.78,139.41V135h-1.65v-.59h4V135h-1.66v4.42Z" transform="translate(-0.42 -0.91)" style="fill:#231f20"/><path d="M224.71,139.41l1.92-5h.71l2.05,5h-.75l-.58-1.52H226l-.55,1.52Zm1.45-2.06h1.7l-.52-1.39q-.24-.63-.36-1a6.52,6.52,0,0,1-.27,1Z" transform="translate(-0.42 -0.91)" style="fill:#231f20"/><path d="M229.91,139.41v-5h.66v4.42H233v.59Z" transform="translate(-0.42 -0.91)" style="fill:#231f20"/><path d="M233.8,139.41v-5h.66v4.42h2.47v.59Z" transform="translate(-0.42 -0.91)" style="fill:#231f20"/><path d="M237.73,139.41v-5h3.62V135h-3v1.54h2.77v.59H238.4v1.71h3.08v.59Z" transform="translate(-0.42 -0.91)" style="fill:#231f20"/><path d="M242.39,139.41v-5h1.73a4.18,4.18,0,0,1,.89.07,1.69,1.69,0,0,1,.74.36,2,2,0,0,1,.59.86,3.36,3.36,0,0,1,.2,1.19,3.5,3.5,0,0,1-.13,1,2.45,2.45,0,0,1-.34.73,1.82,1.82,0,0,1-.46.45,1.85,1.85,0,0,1-.6.25,3.44,3.44,0,0,1-.81.09Zm.66-.59h1.07a2.63,2.63,0,0,0,.78-.09,1.13,1.13,0,0,0,.45-.26,1.57,1.57,0,0,0,.37-.63,3.09,3.09,0,0,0,.13-1,2.34,2.34,0,0,0-.26-1.21,1.3,1.3,0,0,0-.63-.57,2.59,2.59,0,0,0-.86-.1H243Z" transform="translate(-0.42 -0.91)" style="fill:#231f20"/><path d="M156.4,147.81v-4.42h-1.65v-.59h4v.59h-1.66v4.42Z" transform="translate(-0.42 -0.91)" style="fill:#231f20"/><path d="M159.07,145.37a2.72,2.72,0,0,1,.67-2,2.28,2.28,0,0,1,1.73-.71,2.41,2.41,0,0,1,1.25.33,2.17,2.17,0,0,1,.85.92,3,3,0,0,1,.29,1.34,3,3,0,0,1-.31,1.36,2.1,2.1,0,0,1-.87.91,2.49,2.49,0,0,1-1.22.31,2.36,2.36,0,0,1-1.26-.34,2.2,2.2,0,0,1-.84-.93A2.83,2.83,0,0,1,159.07,145.37Zm.68,0a2,2,0,0,0,.49,1.43,1.7,1.7,0,0,0,2.45,0,2.12,2.12,0,0,0,.48-1.49,2.57,2.57,0,0,0-.21-1.07,1.59,1.59,0,0,0-.61-.71,1.63,1.63,0,0,0-.89-.25,1.69,1.69,0,0,0-1.21.48A2.16,2.16,0,0,0,159.75,145.38Z" transform="translate(-0.42 -0.91)" style="fill:#231f20"/><path d="M166.66,147.81v-5h1.89a4.53,4.53,0,0,1,.76,0,1.5,1.5,0,0,1,.62.23,1.22,1.22,0,0,1,.4.48,1.63,1.63,0,0,1-.25,1.77,2,2,0,0,1-1.47.44h-1.29v2Zm.66-2.63h1.29a1.37,1.37,0,0,0,.91-.24.85.85,0,0,0,.27-.67.91.91,0,0,0-.16-.54.74.74,0,0,0-.42-.3,2.8,2.8,0,0,0-.62,0h-1.28Z" transform="translate(-0.42 -0.91)" style="fill:#231f20"/><path d="M171.34,147.81v-5h2.22a3,3,0,0,1,1,.13,1.12,1.12,0,0,1,.56.48,1.42,1.42,0,0,1,.21.76,1.26,1.26,0,0,1-.34.9,1.74,1.74,0,0,1-1.07.46,1.74,1.74,0,0,1,.4.25,3.47,3.47,0,0,1,.55.67l.87,1.36h-.83l-.66-1q-.29-.45-.48-.69a1.52,1.52,0,0,0-.34-.33,1,1,0,0,0-.3-.13,1.93,1.93,0,0,0-.37,0H172v2.23ZM172,145h1.42a2.14,2.14,0,0,0,.71-.09.75.75,0,0,0,.39-.3.81.81,0,0,0,.13-.45.75.75,0,0,0-.26-.58,1.2,1.2,0,0,0-.81-.23H172Z" transform="translate(-0.42 -0.91)" style="fill:#231f20"/><path d="M176.4,147.81v-5H180v.59h-3v1.53h2.77v.59h-2.77v1.71h3.08v.59Z" transform="translate(-0.42 -0.91)" style="fill:#231f20"/><path d="M182.49,147.81l-1.94-5h.72l1.3,3.64q.16.44.26.82.12-.41.27-.82l1.35-3.64h.68l-2,5Z" transform="translate(-0.42 -0.91)" style="fill:#231f20"/><path d="M185.74,147.81v-5h3.62v.59h-3v1.53h2.77v.59H186.4v1.71h3.08v.59Z" transform="translate(-0.42 -0.91)" style="fill:#231f20"/><path d="M190.39,147.81v-5h.68l2.63,3.93V142.8h.64v5h-.68L191,143.87v3.94Z" transform="translate(-0.42 -0.91)" style="fill:#231f20"/><path d="M196.72,147.81v-4.42h-1.65v-.59h4v.59h-1.66v4.42Z" transform="translate(-0.42 -0.91)" style="fill:#231f20"/><path d="M201.52,147.81v-5h1l1.19,3.55.24.74c.06-.18.15-.45.27-.8l1.2-3.49h.89v5h-.64v-4.19l-1.46,4.19h-.6l-1.45-4.27v4.27Z" transform="translate(-0.42 -0.91)" style="fill:#231f20"/><path d="M207.17,145.37a2.72,2.72,0,0,1,.67-2,2.28,2.28,0,0,1,1.73-.71,2.4,2.4,0,0,1,1.25.33,2.15,2.15,0,0,1,.85.92,3,3,0,0,1,.29,1.34,3,3,0,0,1-.31,1.36,2.1,2.1,0,0,1-.87.91,2.49,2.49,0,0,1-1.22.31,2.36,2.36,0,0,1-1.26-.34,2.2,2.2,0,0,1-.84-.93A2.83,2.83,0,0,1,207.17,145.37Zm.68,0a2,2,0,0,0,.49,1.43,1.7,1.7,0,0,0,2.45,0,2.12,2.12,0,0,0,.48-1.49,2.56,2.56,0,0,0-.21-1.07,1.59,1.59,0,0,0-.61-.71,1.63,1.63,0,0,0-.89-.25,1.7,1.7,0,0,0-1.21.48A2.16,2.16,0,0,0,207.86,145.38Z" transform="translate(-0.42 -0.91)" style="fill:#231f20"/><path d="M214.25,147.81l-1.94-5H213l1.3,3.64c.11.29.19.56.26.82q.12-.41.27-.82l1.35-3.64h.68l-2,5Z" transform="translate(-0.42 -0.91)" style="fill:#231f20"/><path d="M217.5,147.81v-5h3.62v.59h-3v1.53h2.77v.59h-2.77v1.71h3.08v.59Z" transform="translate(-0.42 -0.91)" style="fill:#231f20"/><path d="M222.14,147.81v-5h1l1.19,3.55.24.74q.08-.27.27-.8l1.2-3.49h.89v5h-.64v-4.19l-1.46,4.19h-.6l-1.45-4.27v4.27Z" transform="translate(-0.42 -0.91)" style="fill:#231f20"/><path d="M228,147.81v-5h3.62v.59h-3v1.53h2.77v.59h-2.77v1.71h3.08v.59Z" transform="translate(-0.42 -0.91)" style="fill:#231f20"/><path d="M232.65,147.81v-5h.68l2.63,3.93V142.8h.63v5h-.68l-2.63-3.94v3.94Z" transform="translate(-0.42 -0.91)" style="fill:#231f20"/><path d="M239,147.81v-4.42h-1.65v-.59h4v.59h-1.66v4.42Z" transform="translate(-0.42 -0.91)" style="fill:#231f20"/><path d="M154.92,153.77a2.72,2.72,0,0,1,.67-2,2.28,2.28,0,0,1,1.73-.71,2.4,2.4,0,0,1,1.25.33,2.16,2.16,0,0,1,.85.92,3,3,0,0,1,.29,1.34,3,3,0,0,1-.31,1.36,2.1,2.1,0,0,1-.87.91,2.49,2.49,0,0,1-1.22.31,2.37,2.37,0,0,1-1.26-.34,2.2,2.2,0,0,1-.84-.93A2.83,2.83,0,0,1,154.92,153.77Zm.68,0a2,2,0,0,0,.49,1.43,1.7,1.7,0,0,0,2.45,0,2.13,2.13,0,0,0,.48-1.49,2.57,2.57,0,0,0-.21-1.07,1.59,1.59,0,0,0-.61-.71,1.63,1.63,0,0,0-.89-.25,1.69,1.69,0,0,0-1.21.48A2.16,2.16,0,0,0,155.6,153.78Z" transform="translate(-0.42 -0.91)" style="fill:#231f20"/><path d="M160.6,156.21v-5H164v.59h-2.72v1.55h2.35v.59h-2.35v2.28Z" transform="translate(-0.42 -0.91)" style="fill:#231f20"/><path d="M167.94,156.21v-4.42h-1.65v-.59h4v.59H168.6v4.42Z" transform="translate(-0.42 -0.91)" style="fill:#231f20"/><path d="M171,156.21v-5h3.62v.59h-3v1.53h2.77v.59h-2.77v1.71h3.08v.59Z" transform="translate(-0.42 -0.91)" style="fill:#231f20"/><path d="M175.62,156.21v-5h2.22a3,3,0,0,1,1,.13,1.12,1.12,0,0,1,.56.48,1.43,1.43,0,0,1,.21.76,1.26,1.26,0,0,1-.34.9,1.74,1.74,0,0,1-1.07.46,1.74,1.74,0,0,1,.4.25,3.43,3.43,0,0,1,.55.67l.87,1.36h-.83l-.66-1c-.19-.3-.35-.53-.48-.69a1.52,1.52,0,0,0-.34-.33,1,1,0,0,0-.3-.13,1.94,1.94,0,0,0-.37,0h-.77v2.23Zm.66-2.8h1.43a2.15,2.15,0,0,0,.71-.09.75.75,0,0,0,.39-.3.8.8,0,0,0,.13-.45.74.74,0,0,0-.26-.58,1.2,1.2,0,0,0-.81-.23h-1.59Z" transform="translate(-0.42 -0.91)" style="fill:#231f20"/><path d="M180.64,156.21v-5h1l1.19,3.55.24.74q.08-.27.27-.8l1.2-3.49h.89v5h-.64V152l-1.46,4.19h-.6l-1.45-4.27v4.27Z" transform="translate(-0.42 -0.91)" style="fill:#231f20"/><path d="M186.61,156.21v-5h.66v5Z" transform="translate(-0.42 -0.91)" style="fill:#231f20"/><path d="M188.43,156.21v-5h.68l2.63,3.93V151.2h.64v5h-.68l-2.63-3.94v3.94Z" transform="translate(-0.42 -0.91)" style="fill:#231f20"/><path d="M192.94,156.21l1.92-5h.71l2.05,5h-.75l-.58-1.52H194.2l-.55,1.52Zm1.45-2.06h1.7l-.52-1.39c-.16-.42-.28-.77-.36-1a6.26,6.26,0,0,1-.27,1Z" transform="translate(-0.42 -0.91)" style="fill:#231f20"/><path d="M198.92,156.21v-4.42h-1.65v-.59h4v.59h-1.66v4.42Z" transform="translate(-0.42 -0.91)" style="fill:#231f20"/><path d="M202,156.21v-5h.66v5Z" transform="translate(-0.42 -0.91)" style="fill:#231f20"/><path d="M203.66,153.77a2.72,2.72,0,0,1,.67-2,2.28,2.28,0,0,1,1.73-.71,2.4,2.4,0,0,1,1.25.33,2.16,2.16,0,0,1,.85.92,3,3,0,0,1,.29,1.34,3,3,0,0,1-.31,1.36,2.1,2.1,0,0,1-.87.91,2.49,2.49,0,0,1-1.22.31,2.37,2.37,0,0,1-1.26-.34,2.2,2.2,0,0,1-.84-.93A2.83,2.83,0,0,1,203.66,153.77Zm.68,0a2,2,0,0,0,.49,1.43,1.7,1.7,0,0,0,2.45,0,2.13,2.13,0,0,0,.48-1.49,2.57,2.57,0,0,0-.21-1.07,1.59,1.59,0,0,0-.61-.71,1.63,1.63,0,0,0-.89-.25,1.69,1.69,0,0,0-1.21.48A2.16,2.16,0,0,0,204.34,153.78Z" transform="translate(-0.42 -0.91)" style="fill:#231f20"/><path d="M209.3,156.21v-5H210l2.63,3.93V151.2h.64v5h-.68l-2.63-3.94v3.94Z" transform="translate(-0.42 -0.91)" style="fill:#231f20"/><path d="M216.28,156.21v-5h.66v2.48l2.49-2.48h.9l-2.1,2,2.19,3h-.87l-1.78-2.54-.82.8v1.74Z" transform="translate(-0.42 -0.91)" style="fill:#231f20"/><path d="M221.09,156.21v-5h.66v5Z" transform="translate(-0.42 -0.91)" style="fill:#231f20"/><path d="M224.2,156.21v-4.42h-1.65v-.59h4v.59h-1.66v4.42Z" transform="translate(-0.42 -0.91)" style="fill:#231f20"/><path d="M144.11,6V1h1l1.19,3.55.24.74q.09-.27.27-.8L148,1h.89V6h-.64V1.81L146.8,6h-.6l-1.45-4.27V6Z" transform="translate(-0.42 -0.91)" style="fill:#231f20"/><path d="M149.42,6l1.92-5h.71l2.05,5h-.76l-.58-1.52h-2.1L150.12,6Zm1.45-2.06h1.7L152,2.56c-.16-.42-.28-.77-.36-1a6.59,6.59,0,0,1-.27,1Z" transform="translate(-0.42 -0.91)" style="fill:#231f20"/><path d="M154.75,6V1h.66V6Z" transform="translate(-0.42 -0.91)" style="fill:#231f20"/><path d="M156.57,6V1h.68l2.63,3.93V1h.64V6h-.68l-2.63-3.94V6Z" transform="translate(-0.42 -0.91)" style="fill:#231f20"/><path d="M162.91,6V1.59h-1.65V1h4v.59h-1.66V6Z" transform="translate(-0.42 -0.91)" style="fill:#231f20"/><path d="M164.84,6l1.92-5h.71l2.05,5h-.75l-.58-1.52h-2.09L165.54,6Zm1.45-2.06H168l-.52-1.39q-.24-.63-.36-1a6.47,6.47,0,0,1-.27,1Z" transform="translate(-0.42 -0.91)" style="fill:#231f20"/><path d="M170.17,6V1h.66V6Z" transform="translate(-0.42 -0.91)" style="fill:#231f20"/><path d="M172,6V1h.68l2.63,3.93V1h.63V6h-.68l-2.63-3.94V6Z" transform="translate(-0.42 -0.91)" style="fill:#231f20"/><path d="M181.07,6h-.62V2.09a3.16,3.16,0,0,1-.58.42,4.16,4.16,0,0,1-.65.32V2.23a3.69,3.69,0,0,0,.9-.59,2.3,2.3,0,0,0,.55-.67h.4Z" transform="translate(-0.42 -0.91)" style="fill:#231f20"/><path d="M185.88,5.42V6h-3.31a1.09,1.09,0,0,1,.07-.43,2.28,2.28,0,0,1,.41-.67,6.29,6.29,0,0,1,.8-.76A6.79,6.79,0,0,0,185,3.09a1.27,1.27,0,0,0,.29-.74.82.82,0,0,0-.26-.62.94.94,0,0,0-.68-.25,1,1,0,0,0-.71.27,1,1,0,0,0-.27.74l-.63-.06a1.56,1.56,0,0,1,.49-1.08A1.66,1.66,0,0,1,184.31,1a1.59,1.59,0,0,1,1.14.4,1.32,1.32,0,0,1,.42,1,1.5,1.5,0,0,1-.12.59,2.31,2.31,0,0,1-.41.61,9.92,9.92,0,0,1-.95.88q-.55.47-.71.63a2,2,0,0,0-.26.33Z" transform="translate(-0.42 -0.91)" style="fill:#231f20"/><path d="M186.55,1.66V.94h.66v.56a1.5,1.5,0,0,1-.11.66.93.93,0,0,1-.46.42l-.15-.24a.53.53,0,0,0,.27-.24,1,1,0,0,0,.1-.45Zm1.06,0V.94h.66v.56a1.51,1.51,0,0,1-.11.66.93.93,0,0,1-.46.42l-.15-.24a.54.54,0,0,0,.28-.24,1,1,0,0,0,.1-.45Z" transform="translate(-0.42 -0.91)" style="fill:#231f20"/><path d="M192.16,7.48A6.13,6.13,0,0,1,191.3,6a4.73,4.73,0,0,1-.09-3.34,6.57,6.57,0,0,1,1-1.72h.44a11.39,11.39,0,0,0-.55,1,5.44,5.44,0,0,0-.33,1,5.68,5.68,0,0,0-.15,1.29,6.17,6.17,0,0,0,1,3.28Z" transform="translate(-0.42 -0.91)" style="fill:#231f20"/><path d="M193.15,4.68l.62-.08a1.36,1.36,0,0,0,.36.75.89.89,0,0,0,.62.23,1,1,0,0,0,.73-.3,1,1,0,0,0,.3-.75,1,1,0,0,0-.28-.7,1,1,0,0,0-.71-.28,1.78,1.78,0,0,0-.43.07l.07-.54h.1a1.26,1.26,0,0,0,.71-.21.7.7,0,0,0,.31-.63.75.75,0,0,0-.23-.56.82.82,0,0,0-.59-.22.84.84,0,0,0-.6.23,1.13,1.13,0,0,0-.31.68l-.62-.11a1.58,1.58,0,0,1,.51-1,1.48,1.48,0,0,1,1-.34,1.64,1.64,0,0,1,.76.18,1.27,1.27,0,0,1,.53.48,1.23,1.23,0,0,1,.18.65,1.06,1.06,0,0,1-.17.59,1.19,1.19,0,0,1-.52.42,1.16,1.16,0,0,1,.69.43,1.29,1.29,0,0,1,.25.81A1.48,1.48,0,0,1,196,5.64a1.69,1.69,0,0,1-1.21.46,1.58,1.58,0,0,1-1.1-.39A1.53,1.53,0,0,1,193.15,4.68Z" transform="translate(-0.42 -0.91)" style="fill:#231f20"/><path d="M197,3.54a4.58,4.58,0,0,1,.18-1.43,1.77,1.77,0,0,1,.54-.84,1.39,1.39,0,0,1,.91-.29,1.48,1.48,0,0,1,.71.16,1.35,1.35,0,0,1,.5.47,2.49,2.49,0,0,1,.31.75,5,5,0,0,1,.11,1.18A4.62,4.62,0,0,1,200.13,5a1.78,1.78,0,0,1-.54.84,1.39,1.39,0,0,1-.91.3,1.38,1.38,0,0,1-1.14-.52A3.3,3.3,0,0,1,197,3.54Zm.63,0A3.13,3.13,0,0,0,198,5.18a.82.82,0,0,0,1.42,0,3.14,3.14,0,0,0,.29-1.64,3.14,3.14,0,0,0-.29-1.64.86.86,0,0,0-.72-.41.79.79,0,0,0-.68.36A3.17,3.17,0,0,0,197.67,3.54Z" transform="translate(-0.42 -0.91)" style="fill:#231f20"/><path d="M205.42,4.68l.6.08a1.57,1.57,0,0,1-.51,1,1.48,1.48,0,0,1-1,.35,1.56,1.56,0,0,1-1.2-.49,2,2,0,0,1-.45-1.4,2.54,2.54,0,0,1,.19-1,1.36,1.36,0,0,1,.59-.66,1.76,1.76,0,0,1,.87-.22,1.51,1.51,0,0,1,1,.3,1.38,1.38,0,0,1,.48.85l-.6.09a1,1,0,0,0-.3-.55.78.78,0,0,0-.52-.18,1,1,0,0,0-.76.33,1.59,1.59,0,0,0-.29,1.05,1.63,1.63,0,0,0,.28,1.06.91.91,0,0,0,.73.33.86.86,0,0,0,.61-.22A1.1,1.1,0,0,0,205.42,4.68Z" transform="translate(-0.42 -0.91)" style="fill:#231f20"/><path d="M206.55,6V2.38h.55v.51a1.3,1.3,0,0,1,.45-.43,1.28,1.28,0,0,1,.65-.16,1.19,1.19,0,0,1,.66.17.89.89,0,0,1,.36.47,1.3,1.3,0,0,1,1.12-.64,1.1,1.1,0,0,1,.83.3,1.28,1.28,0,0,1,.29.92V6h-.61V3.72a1.68,1.68,0,0,0-.06-.53.51.51,0,0,0-.22-.26.68.68,0,0,0-.37-.1.86.86,0,0,0-.64.25,1.12,1.12,0,0,0-.25.81V6h-.62V3.65a1,1,0,0,0-.15-.62.57.57,0,0,0-.49-.21.89.89,0,0,0-.48.14.78.78,0,0,0-.32.4,2.27,2.27,0,0,0-.1.76V6Z" transform="translate(-0.42 -0.91)" style="fill:#231f20"/><path d="M212.78,7.48h-.44a6.16,6.16,0,0,0,1-3.28,5.63,5.63,0,0,0-.15-1.27,5.43,5.43,0,0,0-.32-1q-.13-.31-.55-1h.44a6.56,6.56,0,0,1,.95,1.72A4.71,4.71,0,0,1,213.64,6,6.28,6.28,0,0,1,212.78,7.48Z" transform="translate(-0.42 -0.91)" style="fill:#231f20"/><path d="M146.2,14.41h-.62V10.49a3.2,3.2,0,0,1-.58.42,4.19,4.19,0,0,1-.65.32v-.59a3.73,3.73,0,0,0,.9-.59,2.33,2.33,0,0,0,.55-.67h.4Z" transform="translate(-0.42 -0.91)" style="fill:#231f20"/><path d="M148.72,11.69a1.15,1.15,0,0,1-.57-.4,1,1,0,0,1-.19-.62,1.21,1.21,0,0,1,.39-.92,1.66,1.66,0,0,1,2.1,0,1.24,1.24,0,0,1,.4.93,1,1,0,0,1-.18.61,1.15,1.15,0,0,1-.56.4,1.28,1.28,0,0,1,.94,1.29,1.44,1.44,0,0,1-.45,1.08,1.85,1.85,0,0,1-2.39,0,1.46,1.46,0,0,1-.46-1.1,1.32,1.32,0,0,1,.25-.82A1.24,1.24,0,0,1,148.72,11.69ZM148.4,13a1.1,1.1,0,0,0,.13.51.87.87,0,0,0,.37.38,1.08,1.08,0,0,0,.53.14,1,1,0,0,0,.73-.28,1,1,0,0,0,.29-.72,1,1,0,0,0-.3-.73,1,1,0,0,0-.74-.29,1,1,0,0,0-1,1Zm.2-2.31a.78.78,0,0,0,.23.58.81.81,0,0,0,.59.23.79.79,0,0,0,.58-.22.74.74,0,0,0,.23-.55.77.77,0,0,0-.23-.57.86.86,0,0,0-1.17,0A.73.73,0,0,0,148.6,10.65Z" transform="translate(-0.42 -0.91)" style="fill:#231f20"/><path d="M151.68,10.06V9.34h.66v.56a1.51,1.51,0,0,1-.11.66.93.93,0,0,1-.46.42l-.15-.24a.54.54,0,0,0,.28-.24,1,1,0,0,0,.1-.45Zm1.06,0V9.34h.66v.56a1.5,1.5,0,0,1-.11.66.93.93,0,0,1-.46.42l-.15-.24a.53.53,0,0,0,.27-.24,1,1,0,0,0,.1-.45Z" transform="translate(-0.42 -0.91)" style="fill:#231f20"/><path d="M157.29,15.88a6.19,6.19,0,0,1-.86-1.5,4.71,4.71,0,0,1-.09-3.34,6.54,6.54,0,0,1,1-1.72h.44q-.41.71-.55,1a5.6,5.6,0,0,0-.33,1,5.74,5.74,0,0,0-.15,1.29,6.17,6.17,0,0,0,1,3.28Z" transform="translate(-0.42 -0.91)" style="fill:#231f20"/><path d="M160.25,14.41v-1.2h-2.17v-.56l2.29-3.25h.5v3.25h.68v.56h-.68v1.2Zm0-1.76V10.38l-1.57,2.26Z" transform="translate(-0.42 -0.91)" style="fill:#231f20"/><path d="M162.17,13.09l.65-.05a1.16,1.16,0,0,0,.33.71.91.91,0,0,0,.63.24,1,1,0,0,0,.75-.33,1.26,1.26,0,0,0,.31-.89,1.14,1.14,0,0,0-.3-.83,1,1,0,0,0-.77-.3,1.07,1.07,0,0,0-.54.14,1,1,0,0,0-.38.35l-.58-.08.48-2.57h2.49v.59h-2L163,11.4a1.63,1.63,0,0,1,.95-.31,1.5,1.5,0,0,1,1.11.45,1.59,1.59,0,0,1,.45,1.17,1.83,1.83,0,0,1-.4,1.18,1.59,1.59,0,0,1-1.32.61,1.62,1.62,0,0,1-1.12-.38A1.49,1.49,0,0,1,162.17,13.09Z" transform="translate(-0.42 -0.91)" style="fill:#231f20"/><path d="M170.55,13.08l.61.08a1.58,1.58,0,0,1-.51,1,1.48,1.48,0,0,1-1,.35,1.56,1.56,0,0,1-1.2-.49,2,2,0,0,1-.45-1.4,2.51,2.51,0,0,1,.2-1,1.35,1.35,0,0,1,.59-.66,1.75,1.75,0,0,1,.87-.22,1.5,1.5,0,0,1,1,.3,1.37,1.37,0,0,1,.48.85l-.6.09a1,1,0,0,0-.3-.55.78.78,0,0,0-.53-.18,1,1,0,0,0-.75.33,1.58,1.58,0,0,0-.29,1.05,1.64,1.64,0,0,0,.28,1.06.91.91,0,0,0,.73.33.86.86,0,0,0,.6-.22A1.1,1.1,0,0,0,170.55,13.08Z" transform="translate(-0.42 -0.91)" style="fill:#231f20"/><path d="M171.68,14.41V10.78h.55v.51a1.28,1.28,0,0,1,1.1-.59,1.19,1.19,0,0,1,.66.17.9.9,0,0,1,.36.47,1.3,1.3,0,0,1,1.12-.64,1.11,1.11,0,0,1,.83.3,1.28,1.28,0,0,1,.29.92v2.49H176V12.12a1.68,1.68,0,0,0-.06-.53.52.52,0,0,0-.22-.26.68.68,0,0,0-.37-.1.86.86,0,0,0-.64.25,1.12,1.12,0,0,0-.25.81v2.11h-.62V12a1,1,0,0,0-.15-.62.57.57,0,0,0-.49-.21.9.9,0,0,0-.48.14.78.78,0,0,0-.32.4,2.24,2.24,0,0,0-.1.76v1.88Z" transform="translate(-0.42 -0.91)" style="fill:#231f20"/><path d="M177.91,15.88h-.44a6.17,6.17,0,0,0,1-3.28,5.58,5.58,0,0,0-.15-1.27,5.29,5.29,0,0,0-.33-1,11.16,11.16,0,0,0-.55-1h.44a6.54,6.54,0,0,1,1,1.72,4.71,4.71,0,0,1-.09,3.34A6.25,6.25,0,0,1,177.91,15.88Z" transform="translate(-0.42 -0.91)" style="fill:#231f20"/><path d="M181.9,14.41v-5h3.38V10h-2.72v1.55h2.35v.59h-2.35v2.28Z" transform="translate(-0.42 -0.91)" style="fill:#231f20"/><path d="M185.94,12a2.72,2.72,0,0,1,.67-2,2.28,2.28,0,0,1,1.73-.71,2.4,2.4,0,0,1,1.25.33,2.16,2.16,0,0,1,.85.92,3,3,0,0,1,.29,1.35,3,3,0,0,1-.31,1.36,2.1,2.1,0,0,1-.87.91,2.49,2.49,0,0,1-1.22.31,2.37,2.37,0,0,1-1.26-.34,2.2,2.2,0,0,1-.84-.93A2.83,2.83,0,0,1,185.94,12Zm.68,0a2,2,0,0,0,.49,1.43,1.7,1.7,0,0,0,2.45,0A2.13,2.13,0,0,0,190,11.9a2.57,2.57,0,0,0-.21-1.07,1.59,1.59,0,0,0-.61-.71,1.63,1.63,0,0,0-.89-.25,1.7,1.7,0,0,0-1.21.48A2.16,2.16,0,0,0,186.62,12Z" transform="translate(-0.42 -0.91)" style="fill:#231f20"/><path d="M191.6,14.41v-5h2.22a3,3,0,0,1,1,.13,1.12,1.12,0,0,1,.56.48,1.43,1.43,0,0,1,.21.76,1.26,1.26,0,0,1-.34.9,1.75,1.75,0,0,1-1.07.46,1.73,1.73,0,0,1,.4.25,3.41,3.41,0,0,1,.55.67l.87,1.36h-.83l-.66-1c-.19-.3-.35-.53-.48-.69a1.53,1.53,0,0,0-.34-.33,1,1,0,0,0-.3-.13,2,2,0,0,0-.37,0h-.77v2.23Zm.66-2.8h1.43a2.13,2.13,0,0,0,.71-.09.75.75,0,0,0,.39-.3.81.81,0,0,0,.13-.45.75.75,0,0,0-.26-.58,1.2,1.2,0,0,0-.81-.23h-1.59Z" transform="translate(-0.42 -0.91)" style="fill:#231f20"/><path d="M202.16,12.65l.66.17a2.23,2.23,0,0,1-.75,1.25,2.07,2.07,0,0,1-1.32.43,2.39,2.39,0,0,1-1.32-.33,2.06,2.06,0,0,1-.77-1,3.41,3.41,0,0,1-.27-1.34,3,3,0,0,1,.3-1.37,2.06,2.06,0,0,1,.85-.89,2.49,2.49,0,0,1,1.21-.3,2.05,2.05,0,0,1,1.27.38,2,2,0,0,1,.71,1.08l-.65.15a1.54,1.54,0,0,0-.51-.8,1.34,1.34,0,0,0-.83-.25,1.62,1.62,0,0,0-1,.28,1.46,1.46,0,0,0-.54.74,3,3,0,0,0-.16,1,3,3,0,0,0,.19,1.12,1.38,1.38,0,0,0,.58.71,1.63,1.63,0,0,0,.85.24,1.43,1.43,0,0,0,.94-.32A1.65,1.65,0,0,0,202.16,12.65Z" transform="translate(-0.42 -0.91)" style="fill:#231f20"/><path d="M203.09,14.41l1.92-5h.71l2.05,5H207l-.58-1.52h-2.1l-.55,1.52Zm1.45-2.06h1.7L205.71,11c-.16-.42-.28-.77-.36-1a6.59,6.59,0,0,1-.27,1Z" transform="translate(-0.42 -0.91)" style="fill:#231f20"/><path d="M208.3,14.41v-5H209l2.63,3.93V9.4h.64v5h-.68l-2.63-3.94v3.94Z" transform="translate(-0.42 -0.91)" style="fill:#231f20"/><path d="M212.81,14.41l1.92-5h.71l2.05,5h-.75l-.58-1.52h-2.09l-.55,1.52Zm1.45-2.06H216L215.44,11q-.24-.63-.36-1a6.47,6.47,0,0,1-.27,1Z" transform="translate(-0.42 -0.91)" style="fill:#231f20"/><path d="M218,14.41v-5h1.73a4.18,4.18,0,0,1,.89.07,1.69,1.69,0,0,1,.74.36,2,2,0,0,1,.59.86,3.36,3.36,0,0,1,.2,1.19,3.5,3.5,0,0,1-.13,1,2.44,2.44,0,0,1-.34.73,1.83,1.83,0,0,1-.46.45,1.87,1.87,0,0,1-.6.25,3.41,3.41,0,0,1-.81.09Zm.66-.59h1.07a2.59,2.59,0,0,0,.78-.09,1.11,1.11,0,0,0,.45-.26,1.56,1.56,0,0,0,.37-.63,3.09,3.09,0,0,0,.13-1,2.33,2.33,0,0,0-.26-1.21,1.3,1.3,0,0,0-.63-.57,2.59,2.59,0,0,0-.86-.1H218.7Z" transform="translate(-0.42 -0.91)" style="fill:#231f20"/><path d="M222.54,14.41l1.92-5h.71l2.05,5h-.75l-.58-1.52h-2.09l-.55,1.52ZM224,12.35h1.7L225.16,11q-.24-.63-.36-1a6.24,6.24,0,0,1-.27,1Z" transform="translate(-0.42 -0.91)" style="fill:#231f20"/><path d="M144.11,22.81v-5h1l1.19,3.55.24.74q.09-.27.27-.8L148,17.8h.89v5h-.64V18.61l-1.46,4.19h-.6l-1.45-4.27v4.27Z" transform="translate(-0.42 -0.91)" style="fill:#231f20"/><path d="M150.08,22.81v-5h.66v5Z" transform="translate(-0.42 -0.91)" style="fill:#231f20"/><path d="M151.9,22.81v-5h.68l2.63,3.93V17.8h.64v5h-.68l-2.63-3.94v3.94Z" transform="translate(-0.42 -0.91)" style="fill:#231f20"/><path d="M157.08,22.81v-5h.66v5Z" transform="translate(-0.42 -0.91)" style="fill:#231f20"/><path d="M158.89,22.81v-5h1l1.19,3.55.24.74c.06-.18.15-.45.27-.8l1.2-3.49h.89v5H163V18.61l-1.46,4.19H161l-1.45-4.27v4.27Z" transform="translate(-0.42 -0.91)" style="fill:#231f20"/><path d="M168,17.8h.66v2.9a3.42,3.42,0,0,1-.17,1.2,1.45,1.45,0,0,1-.62.72,2.18,2.18,0,0,1-1.17.28,2.41,2.41,0,0,1-1.15-.24,1.38,1.38,0,0,1-.64-.7,3.36,3.36,0,0,1-.19-1.26V17.8h.66v2.89a2.79,2.79,0,0,0,.12,1,.92.92,0,0,0,.42.48,1.45,1.45,0,0,0,.72.17,1.38,1.38,0,0,0,1-.33,1.91,1.91,0,0,0,.31-1.27Z" transform="translate(-0.42 -0.91)" style="fill:#231f20"/><path d="M169.78,22.81v-5h1L172,21.34l.24.74q.09-.27.27-.8l1.2-3.49h.89v5h-.64V18.61l-1.46,4.19h-.6l-1.45-4.27v4.27Z" transform="translate(-0.42 -0.91)" style="fill:#231f20"/><path d="M181.15,21l.66.17a2.23,2.23,0,0,1-.75,1.25,2.07,2.07,0,0,1-1.32.43,2.39,2.39,0,0,1-1.32-.33,2.06,2.06,0,0,1-.77-1,3.41,3.41,0,0,1-.27-1.34,3,3,0,0,1,.3-1.37,2.06,2.06,0,0,1,.85-.89,2.49,2.49,0,0,1,1.21-.3,2.05,2.05,0,0,1,1.27.38,2,2,0,0,1,.71,1.08l-.65.15a1.54,1.54,0,0,0-.51-.8,1.34,1.34,0,0,0-.83-.25,1.62,1.62,0,0,0-1,.28,1.46,1.46,0,0,0-.54.74,3,3,0,0,0-.16,1,3,3,0,0,0,.19,1.12,1.38,1.38,0,0,0,.58.71,1.63,1.63,0,0,0,.85.24,1.43,1.43,0,0,0,.94-.32A1.65,1.65,0,0,0,181.15,21Z" transform="translate(-0.42 -0.91)" style="fill:#231f20"/><path d="M182.6,22.81v-5h.66v4.42h2.47v.59Z" transform="translate(-0.42 -0.91)" style="fill:#231f20"/><path d="M186.53,22.81v-5h3.62v.59h-3v1.53H190v.59H187.2v1.71h3.08v.59Z" transform="translate(-0.42 -0.91)" style="fill:#231f20"/><path d="M190.64,22.81l1.92-5h.71l2.05,5h-.75L194,21.29h-2.09l-.55,1.52Zm1.45-2.06h1.7l-.52-1.39q-.24-.63-.36-1a6.47,6.47,0,0,1-.27,1Z" transform="translate(-0.42 -0.91)" style="fill:#231f20"/><path d="M195.87,22.81v-5h2.22a3,3,0,0,1,1,.13,1.11,1.11,0,0,1,.56.48,1.42,1.42,0,0,1,.21.76,1.26,1.26,0,0,1-.35.9,1.74,1.74,0,0,1-1.07.46,1.74,1.74,0,0,1,.4.25,3.48,3.48,0,0,1,.55.67l.87,1.36h-.83l-.66-1c-.19-.3-.35-.53-.48-.69a1.51,1.51,0,0,0-.34-.33,1,1,0,0,0-.3-.13,2,2,0,0,0-.37,0h-.77v2.23Zm.66-2.8H198a2.12,2.12,0,0,0,.71-.09.76.76,0,0,0,.39-.3.82.82,0,0,0,.13-.45.75.75,0,0,0-.26-.58,1.21,1.21,0,0,0-.82-.23h-1.59Z" transform="translate(-0.42 -0.91)" style="fill:#231f20"/><path d="M200.36,22.81l1.92-5H203l2.05,5h-.75l-.58-1.52h-2.09l-.55,1.52Zm1.45-2.06h1.7L203,19.36q-.24-.63-.36-1a6.24,6.24,0,0,1-.27,1Z" transform="translate(-0.42 -0.91)" style="fill:#231f20"/><path d="M205.58,22.81v-5h.68l2.63,3.93V17.8h.63v5h-.68l-2.63-3.94v3.94Z" transform="translate(-0.42 -0.91)" style="fill:#231f20"/><path d="M214.21,21l.66.17a2.24,2.24,0,0,1-.75,1.25,2.07,2.07,0,0,1-1.33.43,2.38,2.38,0,0,1-1.32-.33,2.07,2.07,0,0,1-.77-1,3.42,3.42,0,0,1-.26-1.34,3,3,0,0,1,.3-1.37,2,2,0,0,1,.85-.89,2.49,2.49,0,0,1,1.21-.3,2.05,2.05,0,0,1,1.26.38,2,2,0,0,1,.71,1.08l-.65.15a1.56,1.56,0,0,0-.51-.8,1.35,1.35,0,0,0-.83-.25,1.62,1.62,0,0,0-1,.28,1.47,1.47,0,0,0-.54.74,3,3,0,0,0-.16,1,3.06,3.06,0,0,0,.19,1.12,1.39,1.39,0,0,0,.58.71,1.62,1.62,0,0,0,.85.24,1.42,1.42,0,0,0,.94-.32A1.65,1.65,0,0,0,214.21,21Z" transform="translate(-0.42 -0.91)" style="fill:#231f20"/><path d="M215.71,22.81v-5h3.62v.59h-3v1.53h2.77v.59h-2.77v1.71h3.08v.59Z" transform="translate(-0.42 -0.91)" style="fill:#231f20"/><path d="M143.58,31.21l1.92-5h.71l2.05,5h-.75l-.58-1.52h-2.09l-.55,1.52ZM145,29.15h1.7l-.52-1.39q-.24-.63-.36-1a6.24,6.24,0,0,1-.27,1Z" transform="translate(-0.42 -0.91)" style="fill:#231f20"/><path d="M148.78,31.21v-5h1.88a2.32,2.32,0,0,1,.92.15,1.18,1.18,0,0,1,.54.47,1.24,1.24,0,0,1,.2.66,1.13,1.13,0,0,1-.17.6,1.24,1.24,0,0,1-.53.46,1.31,1.31,0,0,1,.7.45,1.22,1.22,0,0,1,.25.76,1.46,1.46,0,0,1-.15.65,1.27,1.27,0,0,1-.37.47,1.53,1.53,0,0,1-.55.25,3.32,3.32,0,0,1-.81.08Zm.66-2.91h1.08a2.43,2.43,0,0,0,.63-.06.7.7,0,0,0,.38-.25.72.72,0,0,0,.13-.44.8.8,0,0,0-.12-.44.61.61,0,0,0-.34-.26,2.87,2.87,0,0,0-.76-.07h-1Zm0,2.31h1.25a2.86,2.86,0,0,0,.45,0,1.09,1.09,0,0,0,.38-.14.73.73,0,0,0,.25-.28.87.87,0,0,0,.1-.42.83.83,0,0,0-.14-.49.76.76,0,0,0-.4-.29,2.47,2.47,0,0,0-.73-.08h-1.16Z" transform="translate(-0.42 -0.91)" style="fill:#231f20"/><path d="M153.27,28.77a2.72,2.72,0,0,1,.67-2,2.28,2.28,0,0,1,1.73-.71,2.4,2.4,0,0,1,1.25.33,2.16,2.16,0,0,1,.85.92,3,3,0,0,1,.29,1.35,3,3,0,0,1-.31,1.36,2.1,2.1,0,0,1-.87.91,2.49,2.49,0,0,1-1.22.31A2.37,2.37,0,0,1,154.4,31a2.2,2.2,0,0,1-.84-.93A2.83,2.83,0,0,1,153.27,28.77Zm.68,0a2,2,0,0,0,.49,1.43,1.7,1.7,0,0,0,2.45,0,2.12,2.12,0,0,0,.48-1.49,2.57,2.57,0,0,0-.21-1.07,1.59,1.59,0,0,0-.61-.71,1.63,1.63,0,0,0-.89-.25,1.7,1.7,0,0,0-1.21.48A2.16,2.16,0,0,0,154,28.78Z" transform="translate(-0.42 -0.91)" style="fill:#231f20"/><path d="M160.35,31.21l-1.94-5h.72l1.3,3.64q.16.44.26.82.12-.41.27-.82l1.35-3.64H163l-2,5Z" transform="translate(-0.42 -0.91)" style="fill:#231f20"/><path d="M163.6,31.21v-5h3.62v.59h-3v1.53H167v.59h-2.77v1.71h3.08v.59Z" transform="translate(-0.42 -0.91)" style="fill:#231f20"/><path d="M170.22,31.21v-5h.66v2.06h2.6V26.2h.66v5h-.66V28.85h-2.6v2.36Z" transform="translate(-0.42 -0.91)" style="fill:#231f20"/><path d="M175.37,31.21v-5H176v5Z" transform="translate(-0.42 -0.91)" style="fill:#231f20"/><path d="M179.54,29.24v-.59h2.12v1.86a3.75,3.75,0,0,1-1,.59,3,3,0,0,1-1.07.2,2.85,2.85,0,0,1-1.34-.32,2.1,2.1,0,0,1-.91-.91,2.88,2.88,0,0,1-.31-1.34,3.1,3.1,0,0,1,.31-1.37,2,2,0,0,1,.88-.94,2.76,2.76,0,0,1,1.32-.31,2.62,2.62,0,0,1,1,.18,1.63,1.63,0,0,1,.69.49,2.17,2.17,0,0,1,.38.82l-.6.16a1.84,1.84,0,0,0-.28-.6,1.15,1.15,0,0,0-.48-.35,1.76,1.76,0,0,0-.69-.13,2,2,0,0,0-.79.14,1.47,1.47,0,0,0-.54.36,1.71,1.71,0,0,0-.32.5,2.62,2.62,0,0,0-.19,1,2.44,2.44,0,0,0,.23,1.12,1.47,1.47,0,0,0,.67.67,2.07,2.07,0,0,0,.94.22,2.22,2.22,0,0,0,.84-.17,2.15,2.15,0,0,0,.62-.35v-.93Z" transform="translate(-0.42 -0.91)" style="fill:#231f20"/><path d="M182.67,31.21v-5h.66v2.06h2.61V26.2h.66v5h-.66V28.85h-2.61v2.36Z" transform="translate(-0.42 -0.91)" style="fill:#231f20"/><path d="M187.71,31.21v-5h3.62v.59h-3v1.53h2.77v.59h-2.77v1.71h3.08v.59Z" transform="translate(-0.42 -0.91)" style="fill:#231f20"/><path d="M192.14,29.6l.63-.05a1.37,1.37,0,0,0,.21.62,1.12,1.12,0,0,0,.5.39,1.9,1.9,0,0,0,.77.15,1.85,1.85,0,0,0,.67-.11.93.93,0,0,0,.43-.31.72.72,0,0,0,.14-.43.66.66,0,0,0-.14-.41,1,1,0,0,0-.45-.3,8.88,8.88,0,0,0-.89-.24,4.54,4.54,0,0,1-1-.31,1.36,1.36,0,0,1-.54-.47,1.14,1.14,0,0,1-.18-.62,1.27,1.27,0,0,1,.22-.71,1.33,1.33,0,0,1,.63-.5,2.39,2.39,0,0,1,.92-.17,2.52,2.52,0,0,1,1,.18,1.42,1.42,0,0,1,.66.53,1.52,1.52,0,0,1,.25.79l-.64,0a1,1,0,0,0-.35-.72,1.35,1.35,0,0,0-.87-.24,1.4,1.4,0,0,0-.88.22.66.66,0,0,0-.27.53.57.57,0,0,0,.19.44,2.64,2.64,0,0,0,1,.36,6.57,6.57,0,0,1,1.11.32,1.52,1.52,0,0,1,.65.51,1.25,1.25,0,0,1,.21.71,1.36,1.36,0,0,1-.23.75,1.51,1.51,0,0,1-.66.55,2.29,2.29,0,0,1-1,.2,2.88,2.88,0,0,1-1.14-.2,1.6,1.6,0,0,1-.72-.6A1.69,1.69,0,0,1,192.14,29.6Z" transform="translate(-0.42 -0.91)" style="fill:#231f20"/><path d="M198.31,31.21V26.79h-1.65V26.2h4v.59H199v4.42Z" transform="translate(-0.42 -0.91)" style="fill:#231f20"/><path d="M202.19,31.21l1.92-5h.71l2.05,5h-.75l-.58-1.52h-2.09l-.55,1.52Zm1.45-2.06h1.7l-.52-1.39q-.24-.63-.36-1a6.24,6.24,0,0,1-.27,1Z" transform="translate(-0.42 -0.91)" style="fill:#231f20"/><path d="M207.41,31.21v-5h.68l2.63,3.93V26.2h.63v5h-.68L208,27.27v3.94Z" transform="translate(-0.42 -0.91)" style="fill:#231f20"/><path d="M213.74,31.21V26.79h-1.65V26.2h4v.59h-1.66v4.42Z" transform="translate(-0.42 -0.91)" style="fill:#231f20"/><path d="M216.86,31.21v-5h.66v5Z" transform="translate(-0.42 -0.91)" style="fill:#231f20"/><path d="M222.26,29.45l.66.17a2.24,2.24,0,0,1-.75,1.25,2.07,2.07,0,0,1-1.33.43,2.38,2.38,0,0,1-1.32-.33,2.07,2.07,0,0,1-.77-1,3.42,3.42,0,0,1-.26-1.34,3,3,0,0,1,.3-1.37,2,2,0,0,1,.85-.89,2.49,2.49,0,0,1,1.21-.3,2.05,2.05,0,0,1,1.26.38,2,2,0,0,1,.71,1.08l-.65.15a1.56,1.56,0,0,0-.51-.8,1.35,1.35,0,0,0-.83-.25,1.62,1.62,0,0,0-1,.28,1.47,1.47,0,0,0-.54.74,3,3,0,0,0-.16,1,3.06,3.06,0,0,0,.19,1.12,1.39,1.39,0,0,0,.58.71,1.62,1.62,0,0,0,.85.24,1.42,1.42,0,0,0,.94-.32A1.65,1.65,0,0,0,222.26,29.45Z" transform="translate(-0.42 -0.91)" style="fill:#231f20"/><path d="M223.86,31.21v-5h.66v5Z" transform="translate(-0.42 -0.91)" style="fill:#231f20"/><path d="M225.69,31.21v-5h1.89a4.59,4.59,0,0,1,.76,0,1.51,1.51,0,0,1,.62.23,1.22,1.22,0,0,1,.4.48,1.63,1.63,0,0,1-.25,1.77,2,2,0,0,1-1.47.44h-1.29v2Zm.66-2.63h1.3a1.38,1.38,0,0,0,.91-.24.85.85,0,0,0,.27-.67.91.91,0,0,0-.16-.54.75.75,0,0,0-.42-.3,2.82,2.82,0,0,0-.62,0h-1.28Z" transform="translate(-0.42 -0.91)" style="fill:#231f20"/><path d="M229.29,31.21l1.92-5h.71l2.05,5h-.75l-.58-1.52h-2.09L230,31.21Zm1.45-2.06h1.7l-.52-1.39q-.24-.63-.36-1a6.47,6.47,0,0,1-.27,1Z" transform="translate(-0.42 -0.91)" style="fill:#231f20"/><path d="M235.26,31.21V26.79h-1.65V26.2h4v.59h-1.66v4.42Z" transform="translate(-0.42 -0.91)" style="fill:#231f20"/><path d="M238.28,31.21v-5h3.62v.59h-3v1.53h2.77v.59h-2.77v1.71H242v.59Z" transform="translate(-0.42 -0.91)" style="fill:#231f20"/><path d="M242.93,31.21v-5h1.73a4.19,4.19,0,0,1,.89.07,1.69,1.69,0,0,1,.73.36,2,2,0,0,1,.59.86,3.36,3.36,0,0,1,.2,1.19,3.47,3.47,0,0,1-.13,1,2.42,2.42,0,0,1-.34.73,1.81,1.81,0,0,1-.46.45,1.85,1.85,0,0,1-.6.25,3.41,3.41,0,0,1-.81.09Zm.66-.59h1.07a2.6,2.6,0,0,0,.78-.09,1.11,1.11,0,0,0,.45-.26,1.58,1.58,0,0,0,.37-.63,3.1,3.1,0,0,0,.13-1,2.33,2.33,0,0,0-.26-1.21,1.3,1.3,0,0,0-.63-.57,2.59,2.59,0,0,0-.86-.1H243.6Z" transform="translate(-0.42 -0.91)" style="fill:#231f20"/><path d="M143.91,38l.63-.05a1.37,1.37,0,0,0,.21.62,1.12,1.12,0,0,0,.5.39,1.9,1.9,0,0,0,.77.15,1.85,1.85,0,0,0,.67-.11.93.93,0,0,0,.43-.31.72.72,0,0,0,.14-.43.66.66,0,0,0-.14-.41,1,1,0,0,0-.45-.3,8.88,8.88,0,0,0-.89-.24,4.54,4.54,0,0,1-1-.31,1.36,1.36,0,0,1-.54-.47,1.14,1.14,0,0,1-.18-.62,1.27,1.27,0,0,1,.22-.71,1.33,1.33,0,0,1,.63-.5,2.39,2.39,0,0,1,.92-.17,2.52,2.52,0,0,1,1,.18,1.42,1.42,0,0,1,.66.53,1.52,1.52,0,0,1,.25.79l-.64,0a1,1,0,0,0-.35-.72,1.35,1.35,0,0,0-.87-.24,1.4,1.4,0,0,0-.88.22.66.66,0,0,0-.27.53.57.57,0,0,0,.19.44,2.64,2.64,0,0,0,1,.36A6.57,6.57,0,0,1,147,37a1.52,1.52,0,0,1,.65.51,1.25,1.25,0,0,1,.21.71,1.36,1.36,0,0,1-.23.75,1.51,1.51,0,0,1-.66.55,2.29,2.29,0,0,1-1,.2,2.88,2.88,0,0,1-1.14-.2,1.6,1.6,0,0,1-.72-.6A1.69,1.69,0,0,1,143.91,38Z" transform="translate(-0.42 -0.91)" style="fill:#231f20"/><path d="M148.8,39.61v-5h.68l2.63,3.93V34.6h.63v5h-.68l-2.63-3.94v3.94Z" transform="translate(-0.42 -0.91)" style="fill:#231f20"/><path d="M153.66,37.17a2.72,2.72,0,0,1,.67-2,2.28,2.28,0,0,1,1.73-.71,2.4,2.4,0,0,1,1.25.33,2.15,2.15,0,0,1,.85.92,3,3,0,0,1,.29,1.35,3,3,0,0,1-.31,1.36,2.1,2.1,0,0,1-.87.91,2.49,2.49,0,0,1-1.22.31,2.37,2.37,0,0,1-1.26-.34,2.2,2.2,0,0,1-.84-.93A2.83,2.83,0,0,1,153.66,37.17Zm.68,0a2,2,0,0,0,.49,1.43,1.7,1.7,0,0,0,2.45,0,2.12,2.12,0,0,0,.48-1.49,2.56,2.56,0,0,0-.21-1.07,1.59,1.59,0,0,0-.61-.71,1.63,1.63,0,0,0-.89-.25,1.7,1.7,0,0,0-1.21.48A2.16,2.16,0,0,0,154.34,37.18Z" transform="translate(-0.42 -0.91)" style="fill:#231f20"/><path d="M160.18,39.61l-1.33-5h.68l.76,3.28q.12.52.21,1,.19-.8.22-.93l1-3.38h.8l.72,2.54a13.39,13.39,0,0,1,.39,1.77c.06-.32.15-.68.25-1.09l.79-3.22h.67l-1.37,5h-.64l-1.06-3.82c-.09-.32-.14-.52-.16-.59-.05.23-.1.43-.15.59l-1.06,3.82Z" transform="translate(-0.42 -0.91)" style="fill:#231f20"/><path d="M167.83,39.61v-5h.66V39H171v.59Z" transform="translate(-0.42 -0.91)" style="fill:#231f20"/><path d="M171.76,39.61v-5h3.62v.59h-3v1.53h2.77v.59h-2.77V39h3.08v.59Z" transform="translate(-0.42 -0.91)" style="fill:#231f20"/><path d="M177.85,39.61l-1.94-5h.72l1.3,3.64q.16.44.26.82.12-.41.27-.82l1.35-3.64h.68l-2,5Z" transform="translate(-0.42 -0.91)" style="fill:#231f20"/><path d="M181.1,39.61v-5h3.62v.59h-3v1.53h2.77v.59h-2.77V39h3.08v.59Z" transform="translate(-0.42 -0.91)" style="fill:#231f20"/><path d="M185.73,39.61v-5h.66V39h2.47v.59Z" transform="translate(-0.42 -0.91)" style="fill:#231f20"/><path d="M189.74,39.61v-.7h.7v.7Z" transform="translate(-0.42 -0.91)" style="fill:#231f20"/><path d="M193.52,39.61v-5h1l1.19,3.55.24.74q.08-.27.27-.8l1.2-3.49h.89v5h-.64V35.41l-1.46,4.19h-.6l-1.45-4.27v4.27Z" transform="translate(-0.42 -0.91)" style="fill:#231f20"/><path d="M198.82,39.61l1.92-5h.71l2.05,5h-.75l-.58-1.52h-2.09l-.55,1.52Zm1.45-2.06H202l-.52-1.39q-.24-.63-.36-1a6.24,6.24,0,0,1-.27,1Z" transform="translate(-0.42 -0.91)" style="fill:#231f20"/><path d="M203.53,39.61,205.47,37l-1.71-2.4h.79l.91,1.29a7.25,7.25,0,0,1,.4.62,6.79,6.79,0,0,1,.4-.57l1-1.33H208L206.22,37l1.9,2.65h-.82L206,37.82l-.22-.33-.24.38-1.26,1.75Z" transform="translate(-0.42 -0.91)" style="fill:#231f20"/><path d="M208.82,39.61v-5h.66v5Z" transform="translate(-0.42 -0.91)" style="fill:#231f20"/><path d="M210.63,39.61v-5h1l1.19,3.55.24.74c.06-.18.15-.45.27-.8l1.2-3.49h.89v5h-.64V35.41l-1.46,4.19h-.6l-1.45-4.27v4.27Z" transform="translate(-0.42 -0.91)" style="fill:#231f20"/><path d="M219.77,34.6h.66v2.9a3.45,3.45,0,0,1-.17,1.2,1.47,1.47,0,0,1-.62.72,2.18,2.18,0,0,1-1.17.28,2.4,2.4,0,0,1-1.15-.24,1.39,1.39,0,0,1-.64-.7,3.34,3.34,0,0,1-.19-1.26V34.6h.66v2.89a2.84,2.84,0,0,0,.12,1,.92.92,0,0,0,.42.48,1.44,1.44,0,0,0,.72.17,1.38,1.38,0,0,0,1-.33,1.91,1.91,0,0,0,.31-1.27Z" transform="translate(-0.42 -0.91)" style="fill:#231f20"/><path d="M221.52,39.61v-5h1l1.19,3.55.24.74q.08-.27.27-.8l1.2-3.49h.89v5h-.64V35.41l-1.46,4.19h-.6l-1.45-4.27v4.27Z" transform="translate(-0.42 -0.91)" style="fill:#231f20"/><path d="M229.11,37.17a2.72,2.72,0,0,1,.67-2,2.28,2.28,0,0,1,1.73-.71,2.4,2.4,0,0,1,1.25.33,2.15,2.15,0,0,1,.85.92,3,3,0,0,1,.29,1.35,3,3,0,0,1-.31,1.36,2.1,2.1,0,0,1-.87.91,2.49,2.49,0,0,1-1.22.31,2.37,2.37,0,0,1-1.26-.34,2.2,2.2,0,0,1-.84-.93A2.83,2.83,0,0,1,229.11,37.17Zm.68,0a2,2,0,0,0,.49,1.43,1.7,1.7,0,0,0,2.45,0,2.12,2.12,0,0,0,.48-1.49A2.56,2.56,0,0,0,233,36a1.59,1.59,0,0,0-.61-.71,1.63,1.63,0,0,0-.89-.25,1.7,1.7,0,0,0-1.21.48A2.16,2.16,0,0,0,229.79,37.18Z" transform="translate(-0.42 -0.91)" style="fill:#231f20"/><path d="M234.79,39.61v-5h3.38v.59h-2.72v1.55h2.35v.59h-2.35v2.28Z" transform="translate(-0.42 -0.91)" style="fill:#231f20"/><path d="M147.12,47.42V48h-3.31a1.1,1.1,0,0,1,.07-.43,2.25,2.25,0,0,1,.4-.67,6.35,6.35,0,0,1,.8-.76,6.81,6.81,0,0,0,1.1-1.06,1.27,1.27,0,0,0,.29-.74.82.82,0,0,0-.26-.62.94.94,0,0,0-.68-.25,1,1,0,0,0-.71.27,1,1,0,0,0-.27.74l-.63-.06a1.56,1.56,0,0,1,.49-1.08,1.66,1.66,0,0,1,1.14-.37,1.59,1.59,0,0,1,1.14.4,1.31,1.31,0,0,1,.42,1A1.5,1.5,0,0,1,147,45a2.29,2.29,0,0,1-.41.61,9.76,9.76,0,0,1-.95.88q-.55.47-.71.63a2,2,0,0,0-.26.33Z" transform="translate(-0.42 -0.91)" style="fill:#231f20"/><path d="M149.75,48v-1.2h-2.17v-.56L149.86,43h.5v3.25H151v.56h-.68V48Zm0-1.76V44l-1.57,2.26Z" transform="translate(-0.42 -0.91)" style="fill:#231f20"/><path d="M151.68,43.66v-.71h.66v.56a1.51,1.51,0,0,1-.11.66.93.93,0,0,1-.46.42l-.15-.24a.54.54,0,0,0,.28-.24,1,1,0,0,0,.1-.45Zm1.06,0v-.71h.66v.56a1.5,1.5,0,0,1-.11.66.93.93,0,0,1-.46.42l-.15-.24a.53.53,0,0,0,.27-.24,1,1,0,0,0,.1-.45Z" transform="translate(-0.42 -0.91)" style="fill:#231f20"/><path d="M157.29,49.48a6.19,6.19,0,0,1-.86-1.5,4.71,4.71,0,0,1-.09-3.34,6.54,6.54,0,0,1,1-1.72h.44q-.41.71-.55,1a5.6,5.6,0,0,0-.33,1,5.74,5.74,0,0,0-.15,1.29,6.17,6.17,0,0,0,1,3.28Z" transform="translate(-0.42 -0.91)" style="fill:#231f20"/><path d="M161.47,44.22l-.61,0a1.16,1.16,0,0,0-.23-.53.82.82,0,0,0-.62-.26.84.84,0,0,0-.52.16,1.39,1.39,0,0,0-.46.62,3.23,3.23,0,0,0-.17,1.16,1.42,1.42,0,0,1,.54-.5,1.46,1.46,0,0,1,.67-.16,1.39,1.39,0,0,1,1,.45,1.62,1.62,0,0,1,.43,1.17,1.91,1.91,0,0,1-.2.88,1.48,1.48,0,0,1-.56.62,1.52,1.52,0,0,1-.81.22,1.58,1.58,0,0,1-1.25-.57,2.85,2.85,0,0,1-.49-1.86,3.35,3.35,0,0,1,.54-2.11A1.54,1.54,0,0,1,160,43a1.34,1.34,0,0,1,1.42,1.25ZM159,46.38a1.43,1.43,0,0,0,.13.61,1,1,0,0,0,.38.44,1,1,0,0,0,.51.15.87.87,0,0,0,.67-.31,1.23,1.23,0,0,0,.28-.85,1.16,1.16,0,0,0-.28-.82.91.91,0,0,0-.7-.3,1,1,0,0,0-.71.3A1.08,1.08,0,0,0,159,46.38Z" transform="translate(-0.42 -0.91)" style="fill:#231f20"/><path d="M162.17,45.54a4.58,4.58,0,0,1,.18-1.43,1.78,1.78,0,0,1,.54-.84,1.39,1.39,0,0,1,.91-.29,1.48,1.48,0,0,1,.71.16,1.37,1.37,0,0,1,.5.47,2.51,2.51,0,0,1,.31.75,4.94,4.94,0,0,1,.11,1.18,4.58,4.58,0,0,1-.18,1.42,1.78,1.78,0,0,1-.54.84,1.39,1.39,0,0,1-.91.3,1.38,1.38,0,0,1-1.14-.52A3.3,3.3,0,0,1,162.17,45.54Zm.63,0a3.14,3.14,0,0,0,.29,1.64.82.82,0,0,0,1.42,0,3.13,3.13,0,0,0,.29-1.64,3.13,3.13,0,0,0-.29-1.64.86.86,0,0,0-.72-.41.79.79,0,0,0-.68.36A3.19,3.19,0,0,0,162.8,45.54Z" transform="translate(-0.42 -0.91)" style="fill:#231f20"/><path d="M170.55,46.68l.61.08a1.58,1.58,0,0,1-.51,1,1.48,1.48,0,0,1-1,.35,1.56,1.56,0,0,1-1.2-.49,2,2,0,0,1-.45-1.4,2.51,2.51,0,0,1,.2-1,1.35,1.35,0,0,1,.59-.66,1.75,1.75,0,0,1,.87-.22,1.5,1.5,0,0,1,1,.3,1.37,1.37,0,0,1,.48.85l-.6.09a1,1,0,0,0-.3-.55.78.78,0,0,0-.53-.18,1,1,0,0,0-.75.33,1.58,1.58,0,0,0-.29,1.05,1.64,1.64,0,0,0,.28,1.06.91.91,0,0,0,.73.33.86.86,0,0,0,.6-.22A1.1,1.1,0,0,0,170.55,46.68Z" transform="translate(-0.42 -0.91)" style="fill:#231f20"/><path d="M171.68,48V44.38h.55v.51a1.28,1.28,0,0,1,1.1-.59,1.19,1.19,0,0,1,.66.17.9.9,0,0,1,.36.47,1.3,1.3,0,0,1,1.12-.64,1.11,1.11,0,0,1,.83.3,1.28,1.28,0,0,1,.29.92V48H176V45.72a1.68,1.68,0,0,0-.06-.53.52.52,0,0,0-.22-.26.68.68,0,0,0-.37-.1.86.86,0,0,0-.64.25,1.12,1.12,0,0,0-.25.81V48h-.62V45.65a1,1,0,0,0-.15-.62.57.57,0,0,0-.49-.21.9.9,0,0,0-.48.14.78.78,0,0,0-.32.4,2.24,2.24,0,0,0-.1.76V48Z" transform="translate(-0.42 -0.91)" style="fill:#231f20"/><path d="M177.91,49.48h-.44a6.17,6.17,0,0,0,1-3.28,5.58,5.58,0,0,0-.15-1.27,5.29,5.29,0,0,0-.33-1,11.16,11.16,0,0,0-.55-1h.44a6.54,6.54,0,0,1,1,1.72,4.71,4.71,0,0,1-.09,3.34A6.25,6.25,0,0,1,177.91,49.48Z" transform="translate(-0.42 -0.91)" style="fill:#231f20"/><path d="M180.93,48l1.92-5h.71l2.05,5h-.76l-.58-1.52h-2.1L181.63,48Zm1.45-2.06h1.7l-.52-1.39c-.16-.42-.28-.77-.36-1a6.59,6.59,0,0,1-.27,1Z" transform="translate(-0.42 -0.91)" style="fill:#231f20"/><path d="M186.12,48V43H188a2.32,2.32,0,0,1,.92.15,1.19,1.19,0,0,1,.54.47,1.24,1.24,0,0,1,.2.66,1.14,1.14,0,0,1-.17.6,1.25,1.25,0,0,1-.53.46,1.3,1.3,0,0,1,.7.45,1.22,1.22,0,0,1,.24.76,1.46,1.46,0,0,1-.15.65,1.26,1.26,0,0,1-.37.47,1.53,1.53,0,0,1-.55.25A3.32,3.32,0,0,1,188,48Zm.66-2.91h1.08a2.42,2.42,0,0,0,.63-.06.7.7,0,0,0,.38-.25.72.72,0,0,0,.13-.44.81.81,0,0,0-.12-.44.61.61,0,0,0-.34-.26,2.87,2.87,0,0,0-.76-.07h-1Zm0,2.31H188a2.84,2.84,0,0,0,.45,0,1.07,1.07,0,0,0,.38-.14.73.73,0,0,0,.25-.28.88.88,0,0,0,.1-.42.83.83,0,0,0-.14-.49.76.76,0,0,0-.4-.29,2.47,2.47,0,0,0-.73-.08h-1.16Z" transform="translate(-0.42 -0.91)" style="fill:#231f20"/><path d="M190.61,45.57a2.72,2.72,0,0,1,.67-2,2.28,2.28,0,0,1,1.73-.71,2.4,2.4,0,0,1,1.25.33,2.16,2.16,0,0,1,.85.92,3,3,0,0,1,.29,1.35,3,3,0,0,1-.31,1.36,2.1,2.1,0,0,1-.87.91,2.49,2.49,0,0,1-1.22.31,2.37,2.37,0,0,1-1.26-.34,2.2,2.2,0,0,1-.84-.93A2.83,2.83,0,0,1,190.61,45.57Zm.68,0a2,2,0,0,0,.49,1.43,1.7,1.7,0,0,0,2.45,0,2.13,2.13,0,0,0,.48-1.49,2.57,2.57,0,0,0-.21-1.07,1.59,1.59,0,0,0-.61-.71,1.63,1.63,0,0,0-.89-.25,1.7,1.7,0,0,0-1.21.48A2.16,2.16,0,0,0,191.3,45.58Z" transform="translate(-0.42 -0.91)" style="fill:#231f20"/><path d="M197.69,48l-1.94-5h.72l1.3,3.64c.1.29.19.56.26.82q.12-.41.27-.82L199.66,43h.68l-2,5Z" transform="translate(-0.42 -0.91)" style="fill:#231f20"/><path d="M200.94,48V43h3.62v.59h-3v1.53h2.77v.59h-2.77v1.71h3.08V48Z" transform="translate(-0.42 -0.91)" style="fill:#231f20"/><path d="M207.55,48V43h2.22a3,3,0,0,1,1,.13,1.12,1.12,0,0,1,.56.48,1.42,1.42,0,0,1,.21.76,1.26,1.26,0,0,1-.34.9,1.74,1.74,0,0,1-1.07.46,1.73,1.73,0,0,1,.4.25,3.45,3.45,0,0,1,.55.67L212,48h-.83l-.66-1q-.29-.45-.48-.69a1.53,1.53,0,0,0-.34-.33,1,1,0,0,0-.3-.13,2,2,0,0,0-.37,0h-.77V48Zm.66-2.8h1.42a2.13,2.13,0,0,0,.71-.09.75.75,0,0,0,.39-.3.81.81,0,0,0,.13-.45.75.75,0,0,0-.26-.58,1.2,1.2,0,0,0-.81-.23h-1.59Z" transform="translate(-0.42 -0.91)" style="fill:#231f20"/><path d="M212.4,45.57a2.72,2.72,0,0,1,.67-2,2.28,2.28,0,0,1,1.73-.71,2.4,2.4,0,0,1,1.25.33,2.17,2.17,0,0,1,.85.92,3,3,0,0,1,.29,1.35,3,3,0,0,1-.31,1.36,2.11,2.11,0,0,1-.87.91,2.5,2.5,0,0,1-1.22.31,2.37,2.37,0,0,1-1.27-.34,2.2,2.2,0,0,1-.84-.93A2.83,2.83,0,0,1,212.4,45.57Zm.68,0a2,2,0,0,0,.49,1.43A1.7,1.7,0,0,0,216,47a2.13,2.13,0,0,0,.48-1.49,2.59,2.59,0,0,0-.21-1.07,1.59,1.59,0,0,0-.61-.71,1.64,1.64,0,0,0-.89-.25,1.69,1.69,0,0,0-1.21.48A2.16,2.16,0,0,0,213.08,45.58Z" transform="translate(-0.42 -0.91)" style="fill:#231f20"/><path d="M217.84,45.57a2.72,2.72,0,0,1,.67-2,2.28,2.28,0,0,1,1.73-.71,2.4,2.4,0,0,1,1.25.33,2.16,2.16,0,0,1,.85.92,3,3,0,0,1,.29,1.35,3,3,0,0,1-.31,1.36,2.1,2.1,0,0,1-.87.91,2.49,2.49,0,0,1-1.22.31,2.37,2.37,0,0,1-1.26-.34,2.2,2.2,0,0,1-.84-.93A2.83,2.83,0,0,1,217.84,45.57Zm.68,0A2,2,0,0,0,219,47a1.7,1.7,0,0,0,2.45,0A2.12,2.12,0,0,0,222,45.5a2.57,2.57,0,0,0-.21-1.07,1.59,1.59,0,0,0-.61-.71,1.63,1.63,0,0,0-.89-.25A1.7,1.7,0,0,0,219,44,2.16,2.16,0,0,0,218.53,45.58Z" transform="translate(-0.42 -0.91)" style="fill:#231f20"/><path d="M223.52,48V43h3.38v.59h-2.72v1.55h2.35v.59h-2.35V48Z" transform="translate(-0.42 -0.91)" style="fill:#231f20"/><path d="M227.08,48v-.7h.7V48Z" transform="translate(-0.42 -0.91)" style="fill:#231f20"/><path d="M.55,75.59v-5H2.77a3,3,0,0,1,1,.13,1.12,1.12,0,0,1,.56.48,1.42,1.42,0,0,1,.21.76,1.26,1.26,0,0,1-.35.9,1.75,1.75,0,0,1-1.07.46,1.73,1.73,0,0,1,.4.25,3.45,3.45,0,0,1,.55.67L5,75.59H4.13l-.66-1q-.29-.45-.48-.69a1.52,1.52,0,0,0-.34-.33,1,1,0,0,0-.3-.13,2,2,0,0,0-.37,0H1.21v2.23Zm.66-2.8H2.64a2.13,2.13,0,0,0,.71-.09.75.75,0,0,0,.39-.3.81.81,0,0,0,.13-.45.75.75,0,0,0-.26-.58,1.21,1.21,0,0,0-.81-.23H1.21Z" transform="translate(-0.42 -0.91)" style="fill:#231f20"/><path d="M5.39,73.15a2.72,2.72,0,0,1,.67-2,2.28,2.28,0,0,1,1.73-.71A2.4,2.4,0,0,1,9,70.82a2.16,2.16,0,0,1,.85.92,3,3,0,0,1,.29,1.35,3,3,0,0,1-.31,1.36,2.1,2.1,0,0,1-.87.91,2.49,2.49,0,0,1-1.22.31,2.37,2.37,0,0,1-1.26-.34,2.2,2.2,0,0,1-.84-.93A2.83,2.83,0,0,1,5.39,73.15Zm.68,0a2,2,0,0,0,.49,1.43,1.6,1.6,0,0,0,1.22.52A1.6,1.6,0,0,0,9,74.58a2.13,2.13,0,0,0,.48-1.49A2.57,2.57,0,0,0,9.3,72a1.59,1.59,0,0,0-.61-.71,1.63,1.63,0,0,0-.89-.25,1.7,1.7,0,0,0-1.21.48A2.16,2.16,0,0,0,6.08,73.16Z" transform="translate(-0.42 -0.91)" style="fill:#231f20"/><path d="M10.84,73.15a2.72,2.72,0,0,1,.67-2,2.28,2.28,0,0,1,1.73-.71,2.4,2.4,0,0,1,1.25.33,2.16,2.16,0,0,1,.85.92,3,3,0,0,1,.29,1.35,3,3,0,0,1-.31,1.36,2.1,2.1,0,0,1-.87.91,2.49,2.49,0,0,1-1.22.31A2.37,2.37,0,0,1,12,75.34a2.2,2.2,0,0,1-.84-.93A2.83,2.83,0,0,1,10.84,73.15Zm.68,0A2,2,0,0,0,12,74.59a1.7,1.7,0,0,0,2.45,0,2.13,2.13,0,0,0,.48-1.49A2.57,2.57,0,0,0,14.74,72a1.59,1.59,0,0,0-.61-.71,1.63,1.63,0,0,0-.89-.25,1.7,1.7,0,0,0-1.21.48A2.16,2.16,0,0,0,11.52,73.16Z" transform="translate(-0.42 -0.91)" style="fill:#231f20"/><path d="M16.52,75.59v-5H19.9v.59H17.18v1.55h2.35v.59H17.18v2.28Z" transform="translate(-0.42 -0.91)" style="fill:#231f20"/><path d="M22.74,75.59v-5h3.38v.59H23.4v1.55h2.35v.59H23.4v2.28Z" transform="translate(-0.42 -0.91)" style="fill:#231f20"/><path d="M27,75.59v-5h.66V75h2.47v.59Z" transform="translate(-0.42 -0.91)" style="fill:#231f20"/><path d="M30.32,75.59l1.92-5H33l2.05,5h-.76l-.58-1.52h-2.1L31,75.59Zm1.45-2.06h1.7l-.52-1.39q-.24-.63-.36-1a6.41,6.41,0,0,1-.27,1Z" transform="translate(-0.42 -0.91)" style="fill:#231f20"/><path d="M35.32,74l.63-.05a1.38,1.38,0,0,0,.21.62,1.12,1.12,0,0,0,.5.39,1.9,1.9,0,0,0,.77.15,1.84,1.84,0,0,0,.67-.11.93.93,0,0,0,.43-.31.72.72,0,0,0,.14-.43.65.65,0,0,0-.14-.41,1,1,0,0,0-.45-.3,8.91,8.91,0,0,0-.89-.24,4.54,4.54,0,0,1-1-.31,1.36,1.36,0,0,1-.54-.47,1.14,1.14,0,0,1-.18-.62,1.28,1.28,0,0,1,.22-.71,1.33,1.33,0,0,1,.63-.5,2.39,2.39,0,0,1,.92-.17,2.52,2.52,0,0,1,1,.18,1.42,1.42,0,0,1,.65.53,1.51,1.51,0,0,1,.25.79l-.64,0a1,1,0,0,0-.35-.72,1.35,1.35,0,0,0-.87-.24,1.4,1.4,0,0,0-.88.22.66.66,0,0,0-.27.53.57.57,0,0,0,.19.44,2.64,2.64,0,0,0,1,.36,6.58,6.58,0,0,1,1.11.32,1.52,1.52,0,0,1,.65.51,1.24,1.24,0,0,1,.21.71,1.36,1.36,0,0,1-.23.75,1.51,1.51,0,0,1-.66.55,2.28,2.28,0,0,1-1,.2,2.88,2.88,0,0,1-1.14-.2,1.6,1.6,0,0,1-.72-.6A1.69,1.69,0,0,1,35.32,74Z" transform="translate(-0.42 -0.91)" style="fill:#231f20"/><path d="M40.23,75.59v-5h.66v2.06h2.6V70.58h.66v5H43.5V73.23H40.9v2.36Z" transform="translate(-0.42 -0.91)" style="fill:#231f20"/><path d="M45.38,75.59v-5H46v5Z" transform="translate(-0.42 -0.91)" style="fill:#231f20"/><path d="M47.21,75.59v-5h.68l2.63,3.93V70.58h.64v5h-.68l-2.63-3.94v3.94Z" transform="translate(-0.42 -0.91)" style="fill:#231f20"/><path d="M54.61,73.63V73h2.12v1.86a3.74,3.74,0,0,1-1,.59,3,3,0,0,1-1.07.2,2.85,2.85,0,0,1-1.34-.32,2.09,2.09,0,0,1-.91-.91,2.88,2.88,0,0,1-.31-1.34,3.1,3.1,0,0,1,.31-1.37,2,2,0,0,1,.88-.94,2.76,2.76,0,0,1,1.32-.31,2.62,2.62,0,0,1,1,.18,1.63,1.63,0,0,1,.69.49,2.17,2.17,0,0,1,.38.82l-.6.16a1.85,1.85,0,0,0-.28-.6,1.15,1.15,0,0,0-.48-.35,1.76,1.76,0,0,0-.69-.13,2,2,0,0,0-.79.14,1.47,1.47,0,0,0-.54.36,1.74,1.74,0,0,0-.32.5,2.63,2.63,0,0,0-.19,1A2.44,2.44,0,0,0,53,74.19a1.47,1.47,0,0,0,.67.67,2.08,2.08,0,0,0,.94.22,2.22,2.22,0,0,0,.84-.17,2.16,2.16,0,0,0,.62-.35v-.93Z" transform="translate(-0.42 -0.91)" style="fill:#231f20"/><path d="M1.64,85.46A6.16,6.16,0,0,1,.78,84a4.72,4.72,0,0,1-.09-3.34,6.55,6.55,0,0,1,1-1.72h.44q-.41.71-.55,1a5.52,5.52,0,0,0-.33,1,5.71,5.71,0,0,0-.15,1.29,6.17,6.17,0,0,0,1,3.28Z" transform="translate(-0.42 -0.91)" style="fill:#231f20"/><path d="M2.94,84V80.84H2.4v-.48h.54V80A1.69,1.69,0,0,1,3,79.43.78.78,0,0,1,3.32,79a1.12,1.12,0,0,1,.63-.15,3,3,0,0,1,.57.06l-.09.54a2,2,0,0,0-.36,0,.54.54,0,0,0-.4.12.65.65,0,0,0-.12.45v.33h.71v.48H3.55V84Z" transform="translate(-0.42 -0.91)" style="fill:#231f20"/><path d="M4.74,79.69V79h.62v.71Zm0,4.3V80.36h.62V84Z" transform="translate(-0.42 -0.91)" style="fill:#231f20"/><path d="M8.78,82.82l.64.08a1.55,1.55,0,0,1-.56.86,1.67,1.67,0,0,1-1,.31,1.66,1.66,0,0,1-1.26-.49,1.92,1.92,0,0,1-.47-1.38,2,2,0,0,1,.47-1.42,1.6,1.6,0,0,1,1.22-.51,1.55,1.55,0,0,1,1.19.5,2,2,0,0,1,.46,1.39s0,.09,0,.16H6.72a1.4,1.4,0,0,0,.34.92,1,1,0,0,0,.76.32.94.94,0,0,0,.58-.18A1.18,1.18,0,0,0,8.78,82.82Zm-2-1h2a1.23,1.23,0,0,0-.23-.69.94.94,0,0,0-.76-.36,1,1,0,0,0-.71.28A1.12,1.12,0,0,0,6.76,81.83Z" transform="translate(-0.42 -0.91)" style="fill:#231f20"/><path d="M10.17,84V79h.62v5Z" transform="translate(-0.42 -0.91)" style="fill:#231f20"/><path d="M14.1,84v-.46a1.13,1.13,0,0,1-1,.54,1.42,1.42,0,0,1-.8-.24,1.57,1.57,0,0,1-.56-.67,2.3,2.3,0,0,1-.2-1,2.59,2.59,0,0,1,.18-1,1.43,1.43,0,0,1,.54-.68,1.45,1.45,0,0,1,.81-.24,1.21,1.21,0,0,1,1,.5V79h.61v5Zm-1.94-1.81a1.58,1.58,0,0,0,.29,1,.89.89,0,0,0,.69.35.87.87,0,0,0,.69-.33,1.52,1.52,0,0,0,.28-1,1.71,1.71,0,0,0-.29-1.09.88.88,0,0,0-.71-.35.85.85,0,0,0-.69.33A1.65,1.65,0,0,0,12.15,82.18Z" transform="translate(-0.42 -0.91)" style="fill:#231f20"/><path d="M17.33,82.91l.61-.1a.85.85,0,0,0,.29.56,1,1,0,0,0,.65.19,1,1,0,0,0,.63-.17.52.52,0,0,0,.21-.4.37.37,0,0,0-.18-.33,2.68,2.68,0,0,0-.63-.21,5.66,5.66,0,0,1-.94-.3.89.89,0,0,1-.53-.83.94.94,0,0,1,.11-.45,1,1,0,0,1,.3-.34,1.27,1.27,0,0,1,.39-.18,1.87,1.87,0,0,1,.53-.07,2.1,2.1,0,0,1,.75.12,1,1,0,0,1,.48.33,1.3,1.3,0,0,1,.21.56l-.6.08a.66.66,0,0,0-.24-.44.87.87,0,0,0-.56-.16,1,1,0,0,0-.6.14.41.41,0,0,0-.18.33.34.34,0,0,0,.08.22.55.55,0,0,0,.24.16l.54.16a7.63,7.63,0,0,1,.91.29.93.93,0,0,1,.41.32.9.9,0,0,1,.15.53,1,1,0,0,1-.18.58,1.16,1.16,0,0,1-.52.42,1.89,1.89,0,0,1-.77.15,1.71,1.71,0,0,1-1.08-.29A1.37,1.37,0,0,1,17.33,82.91Z" transform="translate(-0.42 -0.91)" style="fill:#231f20"/><path d="M23.46,84v-.53a1.33,1.33,0,0,1-1.15.62,1.47,1.47,0,0,1-.6-.12,1,1,0,0,1-.41-.31,1.16,1.16,0,0,1-.19-.46,3.14,3.14,0,0,1,0-.57V80.36h.62v2a3.6,3.6,0,0,0,0,.65.64.64,0,0,0,.25.38.77.77,0,0,0,.46.14,1,1,0,0,0,.52-.14.79.79,0,0,0,.34-.39,2,2,0,0,0,.1-.71V80.36H24V84Z" transform="translate(-0.42 -0.91)" style="fill:#231f20"/><path d="M25,85.38v-5h.56v.47a1.38,1.38,0,0,1,.45-.42,1.23,1.23,0,0,1,.6-.14,1.43,1.43,0,0,1,.82.24,1.47,1.47,0,0,1,.54.67,2.47,2.47,0,0,1,.18,1,2.44,2.44,0,0,1-.2,1,1.52,1.52,0,0,1-.58.68,1.49,1.49,0,0,1-.8.24,1.16,1.16,0,0,1-.55-.13,1.25,1.25,0,0,1-.4-.33v1.77Zm.56-3.19a1.58,1.58,0,0,0,.28,1,.87.87,0,0,0,.69.33.89.89,0,0,0,.7-.35,1.64,1.64,0,0,0,.29-1.08,1.6,1.6,0,0,0-.29-1,.86.86,0,0,0-.68-.35.88.88,0,0,0-.7.37A1.64,1.64,0,0,0,25.53,82.2Z" transform="translate(-0.42 -0.91)" style="fill:#231f20"/><path d="M28.86,85.38v-5h.56v.47a1.38,1.38,0,0,1,.45-.42,1.23,1.23,0,0,1,.6-.14,1.43,1.43,0,0,1,.82.24,1.47,1.47,0,0,1,.54.67,2.47,2.47,0,0,1,.18,1,2.44,2.44,0,0,1-.2,1,1.52,1.52,0,0,1-.58.68,1.49,1.49,0,0,1-.8.24,1.16,1.16,0,0,1-.55-.13,1.25,1.25,0,0,1-.4-.33v1.77Zm.56-3.19a1.58,1.58,0,0,0,.28,1,.87.87,0,0,0,.69.33.89.89,0,0,0,.7-.35,1.64,1.64,0,0,0,.29-1.08,1.6,1.6,0,0,0-.29-1,.86.86,0,0,0-.68-.35.88.88,0,0,0-.7.37A1.64,1.64,0,0,0,29.42,82.2Z" transform="translate(-0.42 -0.91)" style="fill:#231f20"/><path d="M32.74,84V79h.62v5Z" transform="translate(-0.42 -0.91)" style="fill:#231f20"/><path d="M34.32,79.69V79h.62v.71Zm0,4.3V80.36h.62V84Z" transform="translate(-0.42 -0.91)" style="fill:#231f20"/><path d="M38.35,82.82l.64.08a1.55,1.55,0,0,1-.56.86,1.89,1.89,0,0,1-2.3-.18,1.92,1.92,0,0,1-.47-1.38,2,2,0,0,1,.47-1.42,1.6,1.6,0,0,1,1.22-.51,1.55,1.55,0,0,1,1.19.5A2,2,0,0,1,39,82.17s0,.09,0,.16H36.3a1.4,1.4,0,0,0,.34.92,1,1,0,0,0,.76.32.94.94,0,0,0,.58-.18A1.18,1.18,0,0,0,38.35,82.82Zm-2-1h2a1.23,1.23,0,0,0-.23-.69.94.94,0,0,0-.76-.36,1,1,0,0,0-.71.28A1.12,1.12,0,0,0,36.33,81.83Z" transform="translate(-0.42 -0.91)" style="fill:#231f20"/><path d="M42.12,84v-.46a1.13,1.13,0,0,1-1,.54,1.42,1.42,0,0,1-.8-.24,1.57,1.57,0,0,1-.56-.67,2.3,2.3,0,0,1-.2-1,2.59,2.59,0,0,1,.18-1,1.43,1.43,0,0,1,.54-.68,1.45,1.45,0,0,1,.81-.24,1.21,1.21,0,0,1,1,.5V79h.61v5Zm-1.94-1.81a1.58,1.58,0,0,0,.29,1,.89.89,0,0,0,.69.35.87.87,0,0,0,.69-.33,1.52,1.52,0,0,0,.28-1,1.71,1.71,0,0,0-.29-1.09.88.88,0,0,0-.71-.35.85.85,0,0,0-.69.33A1.65,1.65,0,0,0,40.17,82.18Z" transform="translate(-0.42 -0.91)" style="fill:#231f20"/><path d="M44.06,85.46h-.44a6.17,6.17,0,0,0,1-3.28,5.6,5.6,0,0,0-.15-1.27,5.36,5.36,0,0,0-.32-1,11.59,11.59,0,0,0-.55-1h.44a6.55,6.55,0,0,1,1,1.72A4.71,4.71,0,0,1,44.92,84,6.27,6.27,0,0,1,44.06,85.46Z" transform="translate(-0.42 -0.91)" style="fill:#231f20"/><path d="M178.32,107.65l.63-.05a1.37,1.37,0,0,0,.21.62,1.11,1.11,0,0,0,.5.39,1.9,1.9,0,0,0,.77.15,1.85,1.85,0,0,0,.67-.11.92.92,0,0,0,.43-.31.72.72,0,0,0,.14-.43.66.66,0,0,0-.14-.41,1,1,0,0,0-.45-.3,8.93,8.93,0,0,0-.89-.24,4.5,4.5,0,0,1-1-.31,1.35,1.35,0,0,1-.54-.47,1.14,1.14,0,0,1-.18-.62,1.27,1.27,0,0,1,.21-.71,1.33,1.33,0,0,1,.63-.5,2.39,2.39,0,0,1,.92-.17,2.52,2.52,0,0,1,1,.18,1.42,1.42,0,0,1,.65.53,1.52,1.52,0,0,1,.25.79l-.64,0a1,1,0,0,0-.35-.72,1.35,1.35,0,0,0-.87-.24,1.4,1.4,0,0,0-.88.22.66.66,0,0,0-.28.53.57.57,0,0,0,.2.44,2.64,2.64,0,0,0,1,.36,6.57,6.57,0,0,1,1.11.32,1.51,1.51,0,0,1,.65.51,1.24,1.24,0,0,1,.21.71,1.37,1.37,0,0,1-.23.75,1.52,1.52,0,0,1-.66.55,2.29,2.29,0,0,1-1,.2,2.88,2.88,0,0,1-1.14-.2,1.59,1.59,0,0,1-.72-.6A1.68,1.68,0,0,1,178.32,107.65Z" transform="translate(-0.42 -0.91)" style="fill:#231f20"/><path d="M184.49,109.26v-4.42h-1.65v-.59h4v.59h-1.66v4.42Z" transform="translate(-0.42 -0.91)" style="fill:#231f20"/><path d="M187.5,109.26v-5h2.22a3,3,0,0,1,1,.13,1.12,1.12,0,0,1,.56.48,1.42,1.42,0,0,1,.21.76,1.26,1.26,0,0,1-.34.9,1.74,1.74,0,0,1-1.07.46,1.73,1.73,0,0,1,.4.25,3.45,3.45,0,0,1,.55.67l.87,1.36h-.83l-.66-1q-.29-.45-.48-.69a1.53,1.53,0,0,0-.34-.33,1,1,0,0,0-.3-.13,2,2,0,0,0-.37,0h-.77v2.23Zm.66-2.8h1.42a2.13,2.13,0,0,0,.71-.09.75.75,0,0,0,.39-.3.81.81,0,0,0,.13-.45.75.75,0,0,0-.26-.58,1.2,1.2,0,0,0-.81-.23h-1.59Z" transform="translate(-0.42 -0.91)" style="fill:#231f20"/><path d="M192,109.26l1.92-5h.71l2.05,5h-.75l-.58-1.52h-2.09l-.55,1.52Zm1.45-2.06h1.7l-.52-1.39q-.24-.63-.36-1a6.47,6.47,0,0,1-.27,1Z" transform="translate(-0.42 -0.91)" style="fill:#231f20"/><path d="M197.21,109.26v-5h1.89a4.59,4.59,0,0,1,.76,0,1.51,1.51,0,0,1,.62.23,1.22,1.22,0,0,1,.4.48,1.63,1.63,0,0,1-.25,1.77,2,2,0,0,1-1.47.44h-1.29v2Zm.66-2.63h1.3a1.38,1.38,0,0,0,.91-.24.85.85,0,0,0,.27-.67.91.91,0,0,0-.16-.54.75.75,0,0,0-.42-.3,2.82,2.82,0,0,0-.62,0h-1.28Z" transform="translate(-0.42 -0.91)" style="fill:#231f20"/><path d="M168.49,119.14a6.13,6.13,0,0,1-.86-1.5,4.73,4.73,0,0,1-.09-3.34,6.57,6.57,0,0,1,1-1.72h.44a11.39,11.39,0,0,0-.55,1,5.44,5.44,0,0,0-.33,1,5.68,5.68,0,0,0-.15,1.29,6.17,6.17,0,0,0,1,3.28Z" transform="translate(-0.42 -0.91)" style="fill:#231f20"/><path d="M169.79,117.66v-3.15h-.54V114h.54v-.39a1.7,1.7,0,0,1,.06-.54.78.78,0,0,1,.31-.39,1.12,1.12,0,0,1,.63-.15,3,3,0,0,1,.57.06l-.09.54a2,2,0,0,0-.36,0,.54.54,0,0,0-.4.12.65.65,0,0,0-.12.45V114h.71v.48h-.71v3.15Z" transform="translate(-0.42 -0.91)" style="fill:#231f20"/><path d="M171.59,113.36v-.71h.62v.71Zm0,4.3V114h.62v3.63Z" transform="translate(-0.42 -0.91)" style="fill:#231f20"/><path d="M175.63,116.49l.63.08a1.54,1.54,0,0,1-.56.86,1.89,1.89,0,0,1-2.3-.18,1.92,1.92,0,0,1-.47-1.38,2,2,0,0,1,.47-1.42,1.6,1.6,0,0,1,1.22-.51,1.55,1.55,0,0,1,1.19.5,2,2,0,0,1,.46,1.39s0,.09,0,.16h-2.71a1.4,1.4,0,0,0,.34.92,1,1,0,0,0,.76.32.94.94,0,0,0,.58-.18A1.19,1.19,0,0,0,175.63,116.49Zm-2-1h2a1.23,1.23,0,0,0-.23-.69.94.94,0,0,0-.76-.36,1,1,0,0,0-.71.28A1.12,1.12,0,0,0,173.61,115.5Z" transform="translate(-0.42 -0.91)" style="fill:#231f20"/><path d="M177,117.66v-5h.62v5Z" transform="translate(-0.42 -0.91)" style="fill:#231f20"/><path d="M180.94,117.66v-.46a1.13,1.13,0,0,1-1,.54,1.43,1.43,0,0,1-.8-.24,1.57,1.57,0,0,1-.56-.67,2.29,2.29,0,0,1-.2-1,2.58,2.58,0,0,1,.18-1,1.43,1.43,0,0,1,.54-.68,1.46,1.46,0,0,1,.81-.24,1.2,1.2,0,0,1,.58.14,1.22,1.22,0,0,1,.42.36v-1.8h.61v5ZM179,115.85a1.57,1.57,0,0,0,.29,1,.89.89,0,0,0,.69.35.87.87,0,0,0,.69-.33,1.52,1.52,0,0,0,.28-1,1.71,1.71,0,0,0-.29-1.09.88.88,0,0,0-.71-.35.85.85,0,0,0-.69.33A1.65,1.65,0,0,0,179,115.85Z" transform="translate(-0.42 -0.91)" style="fill:#231f20"/><path d="M184.18,116.58l.61-.1a.85.85,0,0,0,.29.56,1,1,0,0,0,.65.19,1,1,0,0,0,.63-.17.52.52,0,0,0,.21-.4.37.37,0,0,0-.18-.33,2.67,2.67,0,0,0-.63-.21,5.65,5.65,0,0,1-.94-.3.9.9,0,0,1-.4-.34.91.91,0,0,1-.14-.49.94.94,0,0,1,.11-.45,1,1,0,0,1,.3-.34,1.27,1.27,0,0,1,.39-.18,1.86,1.86,0,0,1,.53-.07,2.1,2.1,0,0,1,.75.12,1,1,0,0,1,.48.33,1.3,1.3,0,0,1,.21.56l-.6.08a.66.66,0,0,0-.24-.44.87.87,0,0,0-.56-.16,1,1,0,0,0-.6.14.41.41,0,0,0-.18.33.34.34,0,0,0,.08.22.55.55,0,0,0,.24.16l.54.16a7.68,7.68,0,0,1,.91.29.92.92,0,0,1,.4.32.9.9,0,0,1,.15.53,1,1,0,0,1-.18.58,1.17,1.17,0,0,1-.52.42,1.9,1.9,0,0,1-.77.15,1.71,1.71,0,0,1-1.08-.29A1.37,1.37,0,0,1,184.18,116.58Z" transform="translate(-0.42 -0.91)" style="fill:#231f20"/><path d="M190.31,117.66v-.53a1.33,1.33,0,0,1-1.15.62,1.47,1.47,0,0,1-.6-.12,1,1,0,0,1-.41-.31,1.17,1.17,0,0,1-.19-.46,3.19,3.19,0,0,1,0-.57V114h.62v2a3.67,3.67,0,0,0,0,.65.65.65,0,0,0,.25.38.77.77,0,0,0,.46.14,1,1,0,0,0,.52-.14.78.78,0,0,0,.34-.39,1.93,1.93,0,0,0,.1-.71V114h.62v3.63Z" transform="translate(-0.42 -0.91)" style="fill:#231f20"/><path d="M191.82,119.05v-5h.56v.47a1.38,1.38,0,0,1,.45-.42,1.23,1.23,0,0,1,.6-.14,1.43,1.43,0,0,1,.82.24,1.47,1.47,0,0,1,.54.67,2.46,2.46,0,0,1,.18,1,2.44,2.44,0,0,1-.2,1,1.52,1.52,0,0,1-.58.68,1.49,1.49,0,0,1-.8.24,1.16,1.16,0,0,1-.55-.13,1.26,1.26,0,0,1-.4-.33v1.77Zm.56-3.19a1.58,1.58,0,0,0,.28,1,.87.87,0,0,0,.69.33.89.89,0,0,0,.7-.35,1.64,1.64,0,0,0,.29-1.08,1.6,1.6,0,0,0-.29-1,.86.86,0,0,0-.68-.35.88.88,0,0,0-.7.37A1.64,1.64,0,0,0,192.38,115.87Z" transform="translate(-0.42 -0.91)" style="fill:#231f20"/><path d="M195.71,119.05v-5h.56v.47a1.37,1.37,0,0,1,.45-.42,1.22,1.22,0,0,1,.6-.14,1.43,1.43,0,0,1,.82.24,1.46,1.46,0,0,1,.54.67,2.46,2.46,0,0,1,.18,1,2.44,2.44,0,0,1-.2,1,1.52,1.52,0,0,1-.58.68,1.49,1.49,0,0,1-.8.24,1.16,1.16,0,0,1-.55-.13,1.26,1.26,0,0,1-.4-.33v1.77Zm.56-3.19a1.58,1.58,0,0,0,.28,1,.87.87,0,0,0,.69.33.89.89,0,0,0,.7-.35,1.64,1.64,0,0,0,.29-1.08,1.61,1.61,0,0,0-.29-1,.86.86,0,0,0-.68-.35.88.88,0,0,0-.7.37A1.63,1.63,0,0,0,196.27,115.87Z" transform="translate(-0.42 -0.91)" style="fill:#231f20"/><path d="M199.59,117.66v-5h.62v5Z" transform="translate(-0.42 -0.91)" style="fill:#231f20"/><path d="M201.17,113.36v-.71h.62v.71Zm0,4.3V114h.62v3.63Z" transform="translate(-0.42 -0.91)" style="fill:#231f20"/><path d="M205.2,116.49l.64.08a1.55,1.55,0,0,1-.56.86,1.89,1.89,0,0,1-2.3-.18,1.92,1.92,0,0,1-.47-1.38,2,2,0,0,1,.47-1.42,1.59,1.59,0,0,1,1.22-.51,1.55,1.55,0,0,1,1.19.5,2,2,0,0,1,.46,1.39s0,.09,0,.16h-2.71a1.39,1.39,0,0,0,.34.92,1,1,0,0,0,.76.32.94.94,0,0,0,.58-.18A1.17,1.17,0,0,0,205.2,116.49Zm-2-1h2a1.24,1.24,0,0,0-.23-.69.94.94,0,0,0-.76-.36,1,1,0,0,0-.71.28A1.12,1.12,0,0,0,203.18,115.5Z" transform="translate(-0.42 -0.91)" style="fill:#231f20"/><path d="M209,117.66v-.46a1.13,1.13,0,0,1-1,.54,1.42,1.42,0,0,1-.8-.24,1.58,1.58,0,0,1-.56-.67,2.32,2.32,0,0,1-.2-1,2.6,2.6,0,0,1,.18-1,1.42,1.42,0,0,1,.54-.68,1.45,1.45,0,0,1,.81-.24,1.21,1.21,0,0,1,1,.5v-1.8h.61v5ZM207,115.85a1.58,1.58,0,0,0,.29,1,.89.89,0,0,0,.69.35.87.87,0,0,0,.69-.33,1.52,1.52,0,0,0,.28-1,1.71,1.71,0,0,0-.29-1.09.88.88,0,0,0-.71-.35.85.85,0,0,0-.69.33A1.66,1.66,0,0,0,207,115.85Z" transform="translate(-0.42 -0.91)" style="fill:#231f20"/><path d="M210.91,119.14h-.44a6.17,6.17,0,0,0,1-3.28,5.58,5.58,0,0,0-.15-1.27,5.29,5.29,0,0,0-.33-1,11.16,11.16,0,0,0-.55-1h.44a6.54,6.54,0,0,1,1,1.72,4.71,4.71,0,0,1-.09,3.34A6.25,6.25,0,0,1,210.91,119.14Z" transform="translate(-0.42 -0.91)" style="fill:#231f20"/><path d="M57.29,200.22l-1.94-5h.72l1.3,3.64q.16.44.26.82.12-.41.27-.82l1.35-3.64h.68l-2,5Z" transform="translate(-0.42 -0.91)" style="fill:#231f20"/><path d="M60.54,200.22v-5h3.62v.59h-3v1.54H64v.59H61.2v1.71h3.08v.59Z" transform="translate(-0.42 -0.91)" style="fill:#231f20"/><path d="M65.19,200.22v-5h.68l2.63,3.93v-3.93h.64v5h-.68l-2.63-3.94v3.94Z" transform="translate(-0.42 -0.91)" style="fill:#231f20"/><path d="M71.53,200.22V195.8H69.88v-.59h4v.59H72.19v4.42Z" transform="translate(-0.42 -0.91)" style="fill:#231f20"/><path d="M57.15,208.62v-5H59a4.51,4.51,0,0,1,.76,0,1.51,1.51,0,0,1,.62.23,1.22,1.22,0,0,1,.4.48,1.63,1.63,0,0,1-.25,1.77,2,2,0,0,1-1.47.44H57.82v2Zm.66-2.63h1.3a1.38,1.38,0,0,0,.91-.24.85.85,0,0,0,.27-.67.91.91,0,0,0-.16-.54.74.74,0,0,0-.42-.29,2.78,2.78,0,0,0-.62,0H57.82Z" transform="translate(-0.42 -0.91)" style="fill:#231f20"/><path d="M61.94,208.62v-5h.66v5Z" transform="translate(-0.42 -0.91)" style="fill:#231f20"/><path d="M63.77,208.62v-5h1.89a4.51,4.51,0,0,1,.76,0,1.51,1.51,0,0,1,.62.23,1.22,1.22,0,0,1,.4.48,1.63,1.63,0,0,1-.25,1.77,2,2,0,0,1-1.47.44H64.43v2Zm.66-2.63h1.3a1.38,1.38,0,0,0,.91-.24.85.85,0,0,0,.27-.67.91.91,0,0,0-.16-.54.74.74,0,0,0-.42-.29,2.78,2.78,0,0,0-.62,0H64.43Z" transform="translate(-0.42 -0.91)" style="fill:#231f20"/><path d="M68.45,208.62v-5h3.62v.59h-3v1.54h2.77v.59H69.11V208h3.08v.59Z" transform="translate(-0.42 -0.91)" style="fill:#231f20"/><path d="M179.78,200.22v-5h.66v5Z" transform="translate(-0.42 -0.91)" style="fill:#231f20"/><path d="M181.61,200.22v-5h.68l2.63,3.93v-3.93h.64v5h-.68l-2.63-3.94v3.94Z" transform="translate(-0.42 -0.91)" style="fill:#231f20"/><path d="M187.94,200.22V195.8h-1.65v-.59h4v.59h-1.66v4.42Z" transform="translate(-0.42 -0.91)" style="fill:#231f20"/><path d="M189.88,200.22l1.92-5h.71l2.05,5h-.76l-.58-1.52h-2.1l-.55,1.52Zm1.45-2.06H193l-.52-1.39q-.24-.63-.36-1a6.34,6.34,0,0,1-.27,1Z" transform="translate(-0.42 -0.91)" style="fill:#231f20"/><path d="M195.07,200.22v-5h.66v2.49l2.49-2.49h.9l-2.1,2,2.19,3h-.87l-1.78-2.54-.82.8v1.74Z" transform="translate(-0.42 -0.91)" style="fill:#231f20"/><path d="M199.78,200.22v-5h3.62v.59h-3v1.54h2.77v.59h-2.77v1.71h3.08v.59Z" transform="translate(-0.42 -0.91)" style="fill:#231f20"/><path d="M176.72,208.62l1.92-5h.71l2.05,5h-.76l-.58-1.52H178l-.55,1.52Zm1.45-2.06h1.7l-.52-1.39q-.24-.63-.36-1a6.34,6.34,0,0,1-.27,1Z" transform="translate(-0.42 -0.91)" style="fill:#231f20"/><path d="M182,208.62v-5h.66v5Z" transform="translate(-0.42 -0.91)" style="fill:#231f20"/><path d="M183.89,208.62v-5h2.22a3,3,0,0,1,1,.13,1.12,1.12,0,0,1,.56.48,1.42,1.42,0,0,1,.21.75,1.26,1.26,0,0,1-.34.9,1.75,1.75,0,0,1-1.07.46,1.71,1.71,0,0,1,.4.25,3.42,3.42,0,0,1,.55.67l.87,1.36h-.83l-.66-1q-.29-.45-.48-.69a1.52,1.52,0,0,0-.34-.34,1,1,0,0,0-.3-.13,2,2,0,0,0-.37,0h-.77v2.22Zm.66-2.8H186a2.14,2.14,0,0,0,.71-.09.76.76,0,0,0,.39-.3.81.81,0,0,0,.13-.45.75.75,0,0,0-.26-.58,1.21,1.21,0,0,0-.82-.23h-1.59Z" transform="translate(-0.42 -0.91)" style="fill:#231f20"/><path d="M190.88,208.62v-5h1.89a4.54,4.54,0,0,1,.76,0,1.5,1.5,0,0,1,.62.23,1.23,1.23,0,0,1,.4.48,1.63,1.63,0,0,1-.25,1.77,2,2,0,0,1-1.47.44h-1.29v2Zm.66-2.63h1.29a1.38,1.38,0,0,0,.91-.24.86.86,0,0,0,.27-.67.91.91,0,0,0-.16-.54.75.75,0,0,0-.42-.3,2.85,2.85,0,0,0-.62,0h-1.28Z" transform="translate(-0.42 -0.91)" style="fill:#231f20"/><path d="M195.66,208.62v-5h.66v5Z" transform="translate(-0.42 -0.91)" style="fill:#231f20"/><path d="M197.5,208.62v-5h1.89a4.52,4.52,0,0,1,.76,0,1.51,1.51,0,0,1,.62.23,1.23,1.23,0,0,1,.4.48,1.63,1.63,0,0,1-.25,1.77,2,2,0,0,1-1.47.44h-1.29v2Zm.66-2.63h1.3a1.38,1.38,0,0,0,.91-.24.85.85,0,0,0,.27-.67.91.91,0,0,0-.16-.54.74.74,0,0,0-.42-.3,2.84,2.84,0,0,0-.62,0h-1.28Z" transform="translate(-0.42 -0.91)" style="fill:#231f20"/><path d="M202.18,208.62v-5h3.62v.59h-3v1.54h2.77v.59h-2.77V208h3.08v.59Z" transform="translate(-0.42 -0.91)" style="fill:#231f20"/><path d="M35.4,34.3l.66.17a2.23,2.23,0,0,1-.75,1.25,2.07,2.07,0,0,1-1.33.43,2.38,2.38,0,0,1-1.32-.33,2.07,2.07,0,0,1-.77-1,3.41,3.41,0,0,1-.26-1.34,3,3,0,0,1,.3-1.37,2.05,2.05,0,0,1,.85-.89A2.49,2.49,0,0,1,34,31a2.05,2.05,0,0,1,1.26.38A2,2,0,0,1,36,32.42l-.65.15a1.55,1.55,0,0,0-.51-.8,1.35,1.35,0,0,0-.83-.25,1.62,1.62,0,0,0-1,.28,1.46,1.46,0,0,0-.54.74,3,3,0,0,0-.16,1,3.06,3.06,0,0,0,.19,1.12,1.39,1.39,0,0,0,.58.71,1.62,1.62,0,0,0,.85.24,1.42,1.42,0,0,0,.94-.32A1.64,1.64,0,0,0,35.4,34.3Z" transform="translate(-0.42 -0.91)" style="fill:#231f20"/><path d="M36.68,33.62a2.72,2.72,0,0,1,.67-2A2.28,2.28,0,0,1,39.08,31a2.4,2.4,0,0,1,1.25.33,2.16,2.16,0,0,1,.85.92,3,3,0,0,1,.29,1.35,3,3,0,0,1-.31,1.36,2.1,2.1,0,0,1-.87.91,2.49,2.49,0,0,1-1.22.31,2.37,2.37,0,0,1-1.26-.34,2.2,2.2,0,0,1-.84-.93A2.83,2.83,0,0,1,36.68,33.62Zm.68,0a2,2,0,0,0,.49,1.43,1.7,1.7,0,0,0,2.45,0,2.13,2.13,0,0,0,.48-1.49,2.57,2.57,0,0,0-.21-1.07,1.59,1.59,0,0,0-.61-.71,1.64,1.64,0,0,0-.89-.25,1.7,1.7,0,0,0-1.21.48A2.16,2.16,0,0,0,37.36,33.63Z" transform="translate(-0.42 -0.91)" style="fill:#231f20"/><path d="M42.3,36.06V31h1l1.19,3.55.24.74q.08-.27.27-.8L46.19,31h.89v5h-.64V31.86L45,36.06h-.6l-1.45-4.27v4.27Z" transform="translate(-0.42 -0.91)" style="fill:#231f20"/><path d="M48.13,36.06V31H50a2.32,2.32,0,0,1,.92.15,1.18,1.18,0,0,1,.54.47,1.24,1.24,0,0,1,.2.66,1.13,1.13,0,0,1-.17.6,1.24,1.24,0,0,1-.53.46,1.31,1.31,0,0,1,.7.45,1.22,1.22,0,0,1,.25.76,1.46,1.46,0,0,1-.15.65,1.27,1.27,0,0,1-.37.47,1.53,1.53,0,0,1-.55.25,3.32,3.32,0,0,1-.81.08Zm.66-2.91h1.08a2.43,2.43,0,0,0,.63-.06.7.7,0,0,0,.38-.25.72.72,0,0,0,.13-.44A.8.8,0,0,0,50.9,32a.61.61,0,0,0-.34-.26,2.87,2.87,0,0,0-.76-.07h-1Zm0,2.31H50a2.86,2.86,0,0,0,.45,0,1.09,1.09,0,0,0,.38-.14.73.73,0,0,0,.25-.28.87.87,0,0,0,.1-.42.83.83,0,0,0-.14-.49.76.76,0,0,0-.4-.29,2.48,2.48,0,0,0-.73-.08H48.79Z" transform="translate(-0.42 -0.91)" style="fill:#231f20"/><path d="M56.11,31h.66v2.9a3.42,3.42,0,0,1-.17,1.2,1.46,1.46,0,0,1-.62.72,2.18,2.18,0,0,1-1.17.28,2.41,2.41,0,0,1-1.15-.24,1.38,1.38,0,0,1-.64-.7,3.34,3.34,0,0,1-.19-1.26V31h.66v2.89a2.81,2.81,0,0,0,.12,1,.92.92,0,0,0,.42.48,1.44,1.44,0,0,0,.72.17,1.38,1.38,0,0,0,1-.33,1.91,1.91,0,0,0,.31-1.27Z" transform="translate(-0.42 -0.91)" style="fill:#231f20"/><path d="M57.65,34.45l.63-.05a1.38,1.38,0,0,0,.21.62,1.12,1.12,0,0,0,.5.39,1.9,1.9,0,0,0,.77.15,1.84,1.84,0,0,0,.67-.11.93.93,0,0,0,.43-.31A.72.72,0,0,0,61,34.7a.66.66,0,0,0-.14-.41,1,1,0,0,0-.45-.3,8.93,8.93,0,0,0-.89-.24,4.54,4.54,0,0,1-1-.31A1.36,1.36,0,0,1,58,33a1.14,1.14,0,0,1-.18-.62,1.28,1.28,0,0,1,.21-.71,1.34,1.34,0,0,1,.63-.5,2.39,2.39,0,0,1,.92-.17,2.52,2.52,0,0,1,1,.18,1.42,1.42,0,0,1,.65.53,1.5,1.5,0,0,1,.25.79l-.63,0a1,1,0,0,0-.35-.72,1.35,1.35,0,0,0-.87-.24,1.4,1.4,0,0,0-.88.22.66.66,0,0,0-.28.53.57.57,0,0,0,.2.44,2.64,2.64,0,0,0,1,.36,6.59,6.59,0,0,1,1.11.32,1.52,1.52,0,0,1,.65.51,1.25,1.25,0,0,1,.21.71,1.37,1.37,0,0,1-.23.75,1.51,1.51,0,0,1-.66.55,2.29,2.29,0,0,1-1,.2,2.88,2.88,0,0,1-1.14-.2,1.59,1.59,0,0,1-.72-.6A1.69,1.69,0,0,1,57.65,34.45Z" transform="translate(-0.42 -0.91)" style="fill:#231f20"/><path d="M63.82,36.06V31.64H62.17V31h4v.59H64.49v4.42Z" transform="translate(-0.42 -0.91)" style="fill:#231f20"/><path d="M66.94,36.06V31h.66v5Z" transform="translate(-0.42 -0.91)" style="fill:#231f20"/><path d="M68.57,33.62a2.72,2.72,0,0,1,.67-2A2.28,2.28,0,0,1,71,31a2.4,2.4,0,0,1,1.25.33,2.16,2.16,0,0,1,.85.92,3,3,0,0,1,.29,1.35,3,3,0,0,1-.31,1.36,2.1,2.1,0,0,1-.87.91,2.49,2.49,0,0,1-1.22.31,2.37,2.37,0,0,1-1.26-.34,2.2,2.2,0,0,1-.84-.93A2.83,2.83,0,0,1,68.57,33.62Zm.68,0a2,2,0,0,0,.49,1.43,1.7,1.7,0,0,0,2.45,0,2.13,2.13,0,0,0,.48-1.49,2.57,2.57,0,0,0-.21-1.07,1.59,1.59,0,0,0-.61-.71,1.64,1.64,0,0,0-.89-.25,1.7,1.7,0,0,0-1.21.48A2.16,2.16,0,0,0,69.25,33.63Z" transform="translate(-0.42 -0.91)" style="fill:#231f20"/><path d="M74.21,36.06V31h.68L77.52,35V31h.63v5h-.68l-2.63-3.94v3.94Z" transform="translate(-0.42 -0.91)" style="fill:#231f20"/><path d="M49.16,44.46l1.92-5h.71l2.05,5H53.1l-.58-1.52h-2.1l-.55,1.52Zm1.45-2.06h1.7L51.78,41q-.24-.63-.36-1a6.47,6.47,0,0,1-.27,1Z" transform="translate(-0.42 -0.91)" style="fill:#231f20"/><path d="M54.49,44.46v-5h.66v5Z" transform="translate(-0.42 -0.91)" style="fill:#231f20"/><path d="M56.34,44.46v-5h2.22a3,3,0,0,1,1,.13,1.11,1.11,0,0,1,.56.48,1.43,1.43,0,0,1,.21.76,1.26,1.26,0,0,1-.35.9,1.75,1.75,0,0,1-1.07.46,1.74,1.74,0,0,1,.4.25,3.44,3.44,0,0,1,.55.67l.87,1.36h-.83l-.66-1q-.29-.45-.48-.69a1.51,1.51,0,0,0-.34-.33,1,1,0,0,0-.3-.13,2,2,0,0,0-.37,0H57v2.23Zm.66-2.8h1.43a2.13,2.13,0,0,0,.71-.09.75.75,0,0,0,.39-.3.81.81,0,0,0,.13-.45.75.75,0,0,0-.26-.58,1.21,1.21,0,0,0-.82-.23H57Z" transform="translate(-0.42 -0.91)" style="fill:#231f20"/><path d="M100.92,6,99,1h.72L101,4.64q.16.44.26.82.12-.41.27-.82L102.88,1h.68l-2,5Z" transform="translate(-0.42 -0.91)" style="fill:#231f20"/><path d="M104.17,6V1h3.62v.59h-3V3.12h2.77v.59h-2.77V5.42h3.08V6Z" transform="translate(-0.42 -0.91)" style="fill:#231f20"/><path d="M108.81,6V1h.68l2.63,3.93V1h.63V6h-.68l-2.63-3.94V6Z" transform="translate(-0.42 -0.91)" style="fill:#231f20"/><path d="M115.15,6V1.59H113.5V1h4v.59h-1.66V6Z" transform="translate(-0.42 -0.91)" style="fill:#231f20"/></g></svg>