<svg xmlns="http://www.w3.org/2000/svg" xmlns:xlink="http://www.w3.org/1999/xlink" viewBox="0 0 186.36 201.99"><defs><linearGradient id="linear-gradient" x1="334.38" y1="399.79" x2="334.38" y2="421.07" gradientTransform="translate(-269.39 429.17) rotate(-90)" gradientUnits="userSpaceOnUse"><stop offset="0.12" stop-color="#ccc"/><stop offset="0.27" stop-color="#e7e7e7"/><stop offset="0.4" stop-color="#f9f9f9"/><stop offset="0.5" stop-color="#fff"/><stop offset="0.6" stop-color="#f9f9f9"/><stop offset="0.74" stop-color="#e8e8e8"/><stop offset="0.89" stop-color="#ccc"/></linearGradient><linearGradient id="linear-gradient-2" x1="404.19" y1="392.3" x2="404.19" y2="429.53" xlink:href="#linear-gradient"/><linearGradient id="linear-gradient-3" x1="402.02" y1="404.52" x2="402.02" y2="419.12" xlink:href="#linear-gradient"/><linearGradient id="linear-gradient-4" x1="391.82" y1="404.52" x2="391.82" y2="419.12" xlink:href="#linear-gradient"/><linearGradient id="linear-gradient-5" x1="424.64" y1="403.87" x2="424.58" y2="417.89" xlink:href="#linear-gradient"/><linearGradient id="linear-gradient-6" x1="198.29" y1="191.73" x2="198.29" y2="212.55" gradientTransform="matrix(0, -1, -1, 0, 343.61, 344.46)" xlink:href="#linear-gradient"/><linearGradient id="linear-gradient-7" x1="198.27" y1="191.27" x2="198.27" y2="213" gradientTransform="matrix(0, -1, -1, 0, 343.61, 344.46)" gradientUnits="userSpaceOnUse"><stop offset="0.12" stop-color="#999"/><stop offset="0.2" stop-color="#b1b1b1"/><stop offset="0.32" stop-color="#cecece"/><stop offset="0.42" stop-color="#e0e0e0"/><stop offset="0.5" stop-color="#e6e6e6"/><stop offset="0.58" stop-color="#e0e0e0"/><stop offset="0.68" stop-color="#cfcfcf"/><stop offset="0.8" stop-color="#b3b3b3"/><stop offset="0.89" stop-color="#999"/></linearGradient><linearGradient id="linear-gradient-8" x1="200.1" y1="182.57" x2="191.02" y2="191.6" gradientTransform="matrix(0, -1, -1, 0, 343.61, 344.46)" xlink:href="#linear-gradient"/><linearGradient id="linear-gradient-9" x1="191.07" y1="191.29" x2="191.07" y2="213.02" xlink:href="#linear-gradient-7"/><linearGradient id="linear-gradient-10" x1="183.28" y1="191.37" x2="183.28" y2="212.6" xlink:href="#linear-gradient-7"/><linearGradient id="linear-gradient-11" x1="188.34" y1="191.27" x2="188.34" y2="213" xlink:href="#linear-gradient-7"/></defs><title>flat_roof_concentric_termination_clearance</title><g id="drawing"><polyline points="166.34 83.47 163.22 80.55 157.52 80.55 155.9 78.93 143.4 78.93 138.19 78.93 125.69 78.93 124.07 80.55 118.36 80.55 115.25 83.47" style="fill:#fff;stroke:#000;stroke-linecap:round;stroke-linejoin:round;stroke-width:0.502656px"/><polyline points="181.71 83.49 32.66 83.49 32.66 106.78 181.71 106.78" style="fill:#fff;stroke:#000;stroke-linecap:round;stroke-linejoin:round;stroke-width:0.502656px"/><polyline points="181.7 74.95 181.7 90.68 177.93 93.29 185.89 98.43 181.7 100.97 181.62 115.75" style="fill:none;stroke:#000;stroke-width:0.502656px"/><polyline points="32.76 127.23 32.76 0.26 9.47 0.26 9.47 127.23" style="fill:#fff;stroke:#000;stroke-linecap:round;stroke-linejoin:round;stroke-width:0.502656px"/><polyline points="41.3 127.22 25.57 127.22 22.96 123.45 17.82 131.41 15.29 127.22 0 127.14" style="fill:none;stroke:#000;stroke-width:0.502656px"/><polyline points="32.78 83.48 9.48 83.48 32.76 69.08" style="fill:none;stroke:#000;stroke-linecap:round;stroke-linejoin:round;stroke-width:0.502656px"/><line x1="9.69" y1="71.09" x2="32.76" y2="56.85" style="fill:#fff;stroke:#000;stroke-linecap:round;stroke-linejoin:round;stroke-width:0.502656px"/><line x1="9.69" y1="58.86" x2="32.76" y2="44.62" style="fill:#fff;stroke:#000;stroke-linecap:round;stroke-linejoin:round;stroke-width:0.502656px"/><line x1="9.69" y1="46.63" x2="32.76" y2="32.39" style="fill:#fff;stroke:#000;stroke-linecap:round;stroke-linejoin:round;stroke-width:0.502656px"/><line x1="9.69" y1="34.39" x2="32.76" y2="20.15" style="fill:#fff;stroke:#000;stroke-linecap:round;stroke-linejoin:round;stroke-width:0.502656px"/><line x1="9.69" y1="22.16" x2="32.76" y2="7.92" style="fill:#fff;stroke:#000;stroke-linecap:round;stroke-linejoin:round;stroke-width:0.502656px"/><line x1="9.69" y1="9.93" x2="25.34" y2="0.38" style="fill:#fff;stroke:#000;stroke-linecap:round;stroke-linejoin:round;stroke-width:0.502656px"/><rect x="130.51" y="33.37" width="21.4" height="122.83" style="stroke:#000;stroke-linecap:round;stroke-linejoin:round;stroke-width:0.75px;fill:url(#linear-gradient)"/><path d="M146.24,41.21l.8,0a1.56,1.56,0,0,0,1.4-1.26l1.89-6.41h2.42v7.69l1.74,0a1.49,1.49,0,0,0,1.19-.79L160,33.5V27.14L148.45,8.75h-14L123,27.14V33.5l4.31,6.89a1.5,1.5,0,0,0,1.2.79l1.74,0V33.5h2.73l1.85,6.41a1.56,1.56,0,0,0,1.4,1.26l.75,0h1.71V33.5h5.94v7.69Z" style="stroke:#000;stroke-linecap:round;stroke-linejoin:round;stroke-width:0.75px;fill:url(#linear-gradient-2)"/><path d="M137.57,41.19a1.56,1.56,0,0,1-1.39-1.36l-1.8-6.3" style="fill:none;stroke:#000;stroke-linecap:round;stroke-linejoin:round;stroke-width:0.540018px"/><path d="M145.18,41.19a1.56,1.56,0,0,0,1.39-1.37l1.8-6.3" style="fill:none;stroke:#000;stroke-linecap:round;stroke-linejoin:round;stroke-width:0.540018px"/><path d="M160,27.14H123" style="stroke:#000;stroke-linecap:round;stroke-linejoin:round;stroke-width:0.75px;fill:url(#linear-gradient-3)"/><path d="M137,41.18h.85m-7.6-7.69H123m27.41,0H133m27.05,0h-7.25" style="stroke:#000;stroke-linecap:round;stroke-linejoin:round;stroke-width:0.75px;fill:url(#linear-gradient-4)"/><rect x="134.5" y="0.38" width="13.95" height="8.36" style="stroke:#000;stroke-linecap:round;stroke-linejoin:round;stroke-width:0.75px;fill:url(#linear-gradient-5)"/><ellipse cx="143.52" cy="200.07" rx="2.32" ry="1.55" style="fill:none;stroke:#000;stroke-linecap:round;stroke-linejoin:round;stroke-width:0.75px"/><path d="M143.52,201.61c1.28,0,2.36-.36,2.36-.8V175.61h-9.3l0,25.21c0,.44,1,.8,2.32.8s2.32-.36,2.32-.8C141.2,201.26,142.23,201.61,143.52,201.61Z" style="fill:none;stroke:#000;stroke-linecap:round;stroke-linejoin:round;stroke-width:0.75px"/><ellipse cx="176.89" cy="200.07" rx="2.32" ry="1.55" style="fill:none;stroke:#000;stroke-linecap:round;stroke-linejoin:round;stroke-width:0.75px"/><path d="M176.89,201.61c1.28,0,2.36-.36,2.36-.8V175.61h-9.31l0,25.21c0,.44,1,.8,2.32.8s2.32-.36,2.32-.8C174.56,201.26,175.6,201.61,176.89,201.61Z" style="fill:none;stroke:#000;stroke-linecap:round;stroke-linejoin:round;stroke-width:0.75px"/><path d="M180.41,179l-1.08-1.11,0-6.82a15.84,15.84,0,0,0-4.69-11.28l-5-5.17-6.8,6.86,5,5a6.36,6.36,0,0,1,1.94,4.61l0,6.83L168.77,179Z" style="fill:#fff;stroke:#000;stroke-linecap:round;stroke-linejoin:round;stroke-width:0.540018px"/><path d="M180.41,179l-1.08-1.11,0-6.82a15.84,15.84,0,0,0-4.69-11.28l-5-5.17-6.8,6.86,5,5a6.36,6.36,0,0,1,1.94,4.61l0,6.83L168.77,179Z" style="fill:none;stroke:#000;stroke-linecap:round;stroke-linejoin:round;stroke-width:0.75px"/><line x1="169.84" y1="177.91" x2="179.33" y2="177.91" style="fill:#fff;stroke:#000;stroke-linecap:round;stroke-linejoin:round;stroke-width:0.45530499999999996px"/><rect x="168.76" y="179" width="11.66" height="5.68" style="fill:#fff;stroke:#000;stroke-linecap:round;stroke-linejoin:round;stroke-width:0.75px"/><polygon points="151.66 135 151.66 126.31 153 124.98 153 116.73 129.57 116.73 129.57 124.98 130.9 126.31 130.9 156.12 134.63 161.18 134.66 167.41 133.8 167.41 133.8 175.61 148.77 175.61 148.77 167.41 147.91 167.41 147.94 161.18 151.66 156.12 151.65 152.44 151.66 135" style="stroke:#000;stroke-linecap:round;stroke-linejoin:round;stroke-width:0.75px;fill:url(#linear-gradient-6)"/><path d="M129.57,125H153m-22.09,1.33h20.76m-17.87,41.1h15" style="stroke:#000;stroke-linecap:round;stroke-linejoin:round;stroke-width:0.75px;fill:url(#linear-gradient-7)"/><path d="M156.19,157.32l-4.54-4.87h0c-2.26-7.36-1.77-5.41-1.89-12.41-.08-4.64,1.33-4.25,1.9-5L165.1,148.4h1.06l4.86,4.86-10,10-4.86-4.86Z" style="stroke:#000;stroke-linecap:round;stroke-linejoin:round;stroke-width:0.75px;fill:url(#linear-gradient-8)"/><path d="M156.17,158.39l10-10m-10,8.92,8.92-8.92" style="stroke:#000;stroke-linecap:round;stroke-linejoin:round;stroke-width:0.5px;fill:url(#linear-gradient-9)"/><line x1="147.94" y1="161.18" x2="134.81" y2="161.18" style="stroke:#000;stroke-linecap:round;stroke-linejoin:round;stroke-width:0.75px;fill:url(#linear-gradient-10)"/><line x1="151.66" y1="156.12" x2="131.06" y2="156.12" style="stroke:#000;stroke-linecap:round;stroke-linejoin:round;stroke-width:0.75px;fill:url(#linear-gradient-11)"/><path d="M122.4,106.83v6.65h37.68v-6.65Zm3.27,5.11a1.69,1.69,0,1,1,1.7-1.69A1.69,1.69,0,0,1,125.67,111.93Zm5.08,0a1.69,1.69,0,1,1,1.69-1.69A1.69,1.69,0,0,1,130.75,111.94Zm5.24,0a1.69,1.69,0,1,1,1.7-1.69A1.69,1.69,0,0,1,136,112Zm5.41,0a1.69,1.69,0,1,1,1.69-1.69A1.7,1.7,0,0,1,141.4,112Zm5.2,0a1.69,1.69,0,1,1,1.7-1.69A1.69,1.69,0,0,1,146.6,112Zm5.08,0a1.69,1.69,0,1,1,1.7-1.69A1.69,1.69,0,0,1,151.68,112Zm5.09,0a1.69,1.69,0,1,1,1.7-1.69A1.69,1.69,0,0,1,156.77,112Z" style="fill:#fff;stroke:#000;stroke-width:0.502656px"/></g><g id="flat_roof_text" data-name="flat roof text"><path d="M38,51.26l.56.14a1.88,1.88,0,0,1-.63,1.05,1.74,1.74,0,0,1-1.12.36,2,2,0,0,1-1.11-.28,1.73,1.73,0,0,1-.65-.81,2.86,2.86,0,0,1-.22-1.13,2.49,2.49,0,0,1,.25-1.15,1.73,1.73,0,0,1,.72-.75,2.09,2.09,0,0,1,1-.25,1.73,1.73,0,0,1,1.07.32,1.67,1.67,0,0,1,.6.91l-.55.13a1.3,1.3,0,0,0-.43-.67,1.13,1.13,0,0,0-.7-.21,1.37,1.37,0,0,0-.81.23,1.23,1.23,0,0,0-.46.63,2.51,2.51,0,0,0-.13.81,2.56,2.56,0,0,0,.16.94,1.17,1.17,0,0,0,.49.6,1.37,1.37,0,0,0,.72.2,1.2,1.2,0,0,0,.79-.27A1.39,1.39,0,0,0,38,51.26Z"/><path d="M39.08,50.69A2.3,2.3,0,0,1,39.64,49a1.92,1.92,0,0,1,1.46-.6,2,2,0,0,1,1.05.28,1.83,1.83,0,0,1,.72.78,2.53,2.53,0,0,1,.25,1.13,2.49,2.49,0,0,1-.26,1.15,1.77,1.77,0,0,1-.73.77,2.1,2.1,0,0,1-1,.26A2,2,0,0,1,40,52.53a1.86,1.86,0,0,1-.71-.79A2.39,2.39,0,0,1,39.08,50.69Zm.58,0a1.69,1.69,0,0,0,.41,1.2,1.43,1.43,0,0,0,2.07,0,1.8,1.8,0,0,0,.41-1.26,2.17,2.17,0,0,0-.17-.9,1.34,1.34,0,0,0-.51-.6,1.38,1.38,0,0,0-.75-.21,1.43,1.43,0,0,0-1,.41A1.82,1.82,0,0,0,39.65,50.7Z"/><path d="M43.83,52.75V48.52h.57l2.22,3.32V48.52h.54v4.22h-.57l-2.22-3.32v3.32Z"/><path d="M51.11,51.26l.56.14A1.88,1.88,0,0,1,51,52.46a1.74,1.74,0,0,1-1.12.36,2,2,0,0,1-1.11-.28,1.73,1.73,0,0,1-.65-.81,2.86,2.86,0,0,1-.22-1.13,2.49,2.49,0,0,1,.25-1.15,1.73,1.73,0,0,1,.72-.75,2.09,2.09,0,0,1,1-.25,1.73,1.73,0,0,1,1.07.32,1.67,1.67,0,0,1,.6.91l-.55.13a1.3,1.3,0,0,0-.43-.67,1.13,1.13,0,0,0-.7-.21,1.37,1.37,0,0,0-.81.23,1.23,1.23,0,0,0-.46.63,2.51,2.51,0,0,0-.13.81,2.56,2.56,0,0,0,.16.94,1.17,1.17,0,0,0,.49.6,1.37,1.37,0,0,0,.72.2,1.2,1.2,0,0,0,.79-.27A1.39,1.39,0,0,0,51.11,51.26Z"/><path d="M52.37,52.75V48.52h3.05V49h-2.5v1.29h2.34v.5H52.93v1.44h2.59v.5Z"/><path d="M56.29,52.75V48.52h.57l2.22,3.32V48.52h.54v4.22H59l-2.22-3.32v3.32Z"/><path d="M61.63,52.75V49H60.24v-.5h3.35V49h-1.4v3.73Z"/><path d="M64.17,52.75V48.52H66a2.49,2.49,0,0,1,.86.11.94.94,0,0,1,.47.4,1.2,1.2,0,0,1,.18.64,1.06,1.06,0,0,1-.29.76,1.47,1.47,0,0,1-.9.39,1.47,1.47,0,0,1,.34.21,2.9,2.9,0,0,1,.46.56l.73,1.15h-.7l-.56-.88q-.24-.38-.4-.58a1.28,1.28,0,0,0-.28-.28.86.86,0,0,0-.25-.11l-.31,0h-.65v1.88Zm.56-2.36h1.2a1.8,1.8,0,0,0,.6-.08.64.64,0,0,0,.33-.25.68.68,0,0,0,.11-.38.63.63,0,0,0-.22-.49,1,1,0,0,0-.69-.19H64.72Z"/><path d="M68.51,52.75V48.52h.56v4.22Z"/><path d="M73.07,51.26l.56.14A1.88,1.88,0,0,1,73,52.46a1.74,1.74,0,0,1-1.12.36,2,2,0,0,1-1.11-.28,1.73,1.73,0,0,1-.65-.81,2.86,2.86,0,0,1-.22-1.13,2.49,2.49,0,0,1,.25-1.15,1.73,1.73,0,0,1,.72-.75,2.09,2.09,0,0,1,1-.25,1.73,1.73,0,0,1,1.07.32,1.67,1.67,0,0,1,.6.91l-.55.13a1.3,1.3,0,0,0-.43-.67,1.13,1.13,0,0,0-.7-.21,1.37,1.37,0,0,0-.81.23,1.23,1.23,0,0,0-.46.63,2.51,2.51,0,0,0-.13.81,2.56,2.56,0,0,0,.16.94,1.17,1.17,0,0,0,.49.6,1.37,1.37,0,0,0,.72.2,1.2,1.2,0,0,0,.79-.27A1.39,1.39,0,0,0,73.07,51.26Z"/><path d="M76.92,52.75V49H75.53v-.5h3.35V49h-1.4v3.73Z"/><path d="M79.47,52.75V48.52h3.05V49H80v1.29h2.34v.5H80v1.44h2.59v.5Z"/><path d="M83.4,52.75V48.52h1.87a2.49,2.49,0,0,1,.86.11.94.94,0,0,1,.47.4,1.2,1.2,0,0,1,.18.64,1.06,1.06,0,0,1-.29.76,1.47,1.47,0,0,1-.9.39,1.47,1.47,0,0,1,.34.21,2.9,2.9,0,0,1,.46.56l.73,1.15h-.7l-.56-.88q-.24-.38-.4-.58a1.28,1.28,0,0,0-.28-.28.86.86,0,0,0-.25-.11l-.31,0H84v1.88ZM84,50.39h1.2a1.8,1.8,0,0,0,.6-.08.64.64,0,0,0,.33-.25.68.68,0,0,0,.11-.38.63.63,0,0,0-.22-.49,1,1,0,0,0-.69-.19H84Z"/><path d="M87.63,52.75V48.52h.84l1,3,.2.63.22-.68,1-2.94h.75v4.22h-.54V49.21L89.9,52.75h-.5l-1.22-3.6v3.6Z"/><path d="M92.66,52.75V48.52h.56v4.22Z"/><path d="M94.2,52.75V48.52h.57L97,51.84V48.52h.54v4.22H97l-2.22-3.32v3.32Z"/><path d="M98,52.75l1.62-4.22h.6L102,52.75h-.64l-.49-1.28H99.06l-.46,1.28ZM99.22,51h1.43l-.44-1.17q-.2-.53-.3-.88a5.39,5.39,0,0,1-.23.81Z"/><path d="M103,52.75V49h-1.39v-.5H105V49h-1.4v3.73Z"/><path d="M105.66,52.75V48.52h.56v4.22Z"/><path d="M107,50.69A2.3,2.3,0,0,1,107.6,49a1.92,1.92,0,0,1,1.46-.6,2,2,0,0,1,1.05.28,1.83,1.83,0,0,1,.72.78,2.53,2.53,0,0,1,.25,1.13,2.49,2.49,0,0,1-.26,1.15,1.77,1.77,0,0,1-.73.77,2.1,2.1,0,0,1-1,.26,2,2,0,0,1-1.07-.29,1.86,1.86,0,0,1-.71-.79A2.39,2.39,0,0,1,107,50.69Zm.58,0a1.69,1.69,0,0,0,.41,1.2,1.43,1.43,0,0,0,2.07,0,1.8,1.8,0,0,0,.41-1.26,2.17,2.17,0,0,0-.17-.9,1.34,1.34,0,0,0-.51-.6,1.38,1.38,0,0,0-.75-.21,1.43,1.43,0,0,0-1,.41A1.82,1.82,0,0,0,107.61,50.7Z"/><path d="M111.79,52.75V48.52h.57l2.22,3.32V48.52h.54v4.22h-.57l-2.22-3.32v3.32Z"/><path d="M117,54a5.17,5.17,0,0,1-.73-1.27,4,4,0,0,1-.08-2.82,5.51,5.51,0,0,1,.8-1.45h.37q-.35.6-.46.86a4.69,4.69,0,0,0-.28.83,4.85,4.85,0,0,0-.12,1.08,5.2,5.2,0,0,0,.86,2.77Z"/><path d="M117.83,51.39l.53,0a1.17,1.17,0,0,0,.17.52,1,1,0,0,0,.42.33,1.61,1.61,0,0,0,.65.13,1.55,1.55,0,0,0,.56-.1.79.79,0,0,0,.36-.26.6.6,0,0,0,.12-.36.55.55,0,0,0-.12-.35.85.85,0,0,0-.38-.25,7.45,7.45,0,0,0-.75-.21,3.87,3.87,0,0,1-.82-.26,1.14,1.14,0,0,1-.45-.39,1,1,0,0,1-.15-.53,1.08,1.08,0,0,1,.18-.6,1.13,1.13,0,0,1,.53-.42,2,2,0,0,1,.78-.14,2.11,2.11,0,0,1,.83.15,1.19,1.19,0,0,1,.55.44,1.28,1.28,0,0,1,.21.67l-.54,0a.87.87,0,0,0-.29-.6,1.14,1.14,0,0,0-.74-.2,1.18,1.18,0,0,0-.74.19.56.56,0,0,0-.23.45.48.48,0,0,0,.16.37,2.23,2.23,0,0,0,.84.3,5.62,5.62,0,0,1,.94.27A1.28,1.28,0,0,1,121,51a1,1,0,0,1,.18.6,1.15,1.15,0,0,1-.19.64,1.27,1.27,0,0,1-.55.46,1.94,1.94,0,0,1-.81.17,2.43,2.43,0,0,1-1-.17,1.34,1.34,0,0,1-.61-.5A1.42,1.42,0,0,1,117.83,51.39Z"/><path d="M122.23,54h-.37a5.2,5.2,0,0,0,.86-2.77,4.71,4.71,0,0,0-.12-1.07,4.52,4.52,0,0,0-.27-.83,9.8,9.8,0,0,0-.46-.86h.37a5.51,5.51,0,0,1,.8,1.45,4,4,0,0,1-.08,2.82A5.27,5.27,0,0,1,122.23,54Z"/><path d="M35,59.83V55.6h.84l1,3,.2.63.22-.68,1-2.94H39v4.22h-.54V56.29l-1.23,3.53h-.5l-1.22-3.6v3.6Z"/><path d="M42.67,55.6h.56V58a2.9,2.9,0,0,1-.14,1,1.24,1.24,0,0,1-.52.61,1.84,1.84,0,0,1-1,.23,2,2,0,0,1-1-.2,1.17,1.17,0,0,1-.54-.59A2.82,2.82,0,0,1,39.91,58V55.6h.56V58a2.37,2.37,0,0,0,.1.81.78.78,0,0,0,.35.4,1.22,1.22,0,0,0,.61.14,1.17,1.17,0,0,0,.88-.28A1.62,1.62,0,0,0,42.67,58Z"/><path d="M44,58.47l.53,0a1.17,1.17,0,0,0,.17.52,1,1,0,0,0,.42.33,1.61,1.61,0,0,0,.65.13,1.55,1.55,0,0,0,.56-.1.79.79,0,0,0,.36-.26.6.6,0,0,0,.12-.36.55.55,0,0,0-.12-.35.85.85,0,0,0-.38-.25,7.45,7.45,0,0,0-.75-.21,3.87,3.87,0,0,1-.82-.26,1.14,1.14,0,0,1-.45-.39,1,1,0,0,1-.15-.53,1.08,1.08,0,0,1,.18-.6,1.13,1.13,0,0,1,.53-.42,2,2,0,0,1,.78-.14,2.11,2.11,0,0,1,.83.15,1.19,1.19,0,0,1,.55.44,1.28,1.28,0,0,1,.21.67l-.54,0a.87.87,0,0,0-.29-.6,1.14,1.14,0,0,0-.74-.2,1.18,1.18,0,0,0-.74.19.56.56,0,0,0-.23.45.48.48,0,0,0,.16.37,2.23,2.23,0,0,0,.84.3,5.62,5.62,0,0,1,.94.27,1.28,1.28,0,0,1,.54.43,1,1,0,0,1,.18.6,1.15,1.15,0,0,1-.19.64,1.27,1.27,0,0,1-.55.46,1.94,1.94,0,0,1-.81.17,2.43,2.43,0,0,1-1-.17,1.34,1.34,0,0,1-.61-.5A1.42,1.42,0,0,1,44,58.47Z"/><path d="M49.17,59.83V56.1H47.78v-.5h3.35v.5h-1.4v3.73Z"/><path d="M53.21,59.83V55.6h1.58a2,2,0,0,1,.78.13,1,1,0,0,1,.46.39,1,1,0,0,1,.17.56,1,1,0,0,1-.15.51,1,1,0,0,1-.44.39,1.1,1.1,0,0,1,.59.38,1,1,0,0,1,.21.64,1.24,1.24,0,0,1-.12.55,1.07,1.07,0,0,1-.31.39,1.3,1.3,0,0,1-.46.21,2.79,2.79,0,0,1-.68.07Zm.56-2.45h.91a2,2,0,0,0,.53,0,.6.6,0,0,0,.32-.21.61.61,0,0,0,.11-.37.68.68,0,0,0-.1-.37.51.51,0,0,0-.29-.22,2.42,2.42,0,0,0-.64-.06h-.84Zm0,2h1.05l.38,0a.9.9,0,0,0,.32-.12.61.61,0,0,0,.21-.23.73.73,0,0,0,.08-.36.7.7,0,0,0-.12-.41.64.64,0,0,0-.33-.25,2.09,2.09,0,0,0-.62-.07h-1Z"/><path d="M57.18,59.83V55.6h3.05v.5h-2.5v1.29h2.34v.5H57.74v1.44h2.59v.5Z"/><path d="M62,59.83l1.62-4.22h.6l1.73,4.22h-.64l-.49-1.28H63l-.46,1.28Zm1.22-1.73H64.6l-.44-1.17q-.2-.53-.3-.88a5.39,5.39,0,0,1-.23.81Z"/><path d="M67.65,59.83V55.6h.84l1,3,.2.63.22-.68,1-2.94h.75v4.22h-.54V56.29l-1.23,3.53h-.5l-1.22-3.6v3.6Z"/><path d="M72.67,59.83V55.6h.56v4.22Z"/><path d="M74.21,59.83V55.6h.57L77,58.92V55.6h.54v4.22H77l-2.22-3.32v3.32Z"/><path d="M78.57,59.83V55.6h.56v4.22Z"/><path d="M80.1,59.83V55.6h.84l1,3,.2.63.22-.68,1-2.94h.75v4.22h-.54V56.29l-1.23,3.53h-.5l-1.22-3.6v3.6Z"/><path d="M87.81,55.6h.56V58a2.9,2.9,0,0,1-.14,1,1.24,1.24,0,0,1-.52.61,1.84,1.84,0,0,1-1,.23,2,2,0,0,1-1-.2,1.17,1.17,0,0,1-.54-.59A2.82,2.82,0,0,1,85,58V55.6h.56V58a2.37,2.37,0,0,0,.1.81.78.78,0,0,0,.35.4,1.22,1.22,0,0,0,.61.14,1.17,1.17,0,0,0,.88-.28A1.62,1.62,0,0,0,87.81,58Z"/><path d="M89.28,59.83V55.6h.84l1,3,.2.63.22-.68,1-2.94h.75v4.22h-.54V56.29l-1.23,3.53H91l-1.22-3.6v3.6Z"/><path d="M95.68,57.77a2.3,2.3,0,0,1,.56-1.65,1.92,1.92,0,0,1,1.46-.6,2,2,0,0,1,1.05.28,1.83,1.83,0,0,1,.72.78,2.53,2.53,0,0,1,.25,1.13,2.49,2.49,0,0,1-.26,1.15,1.77,1.77,0,0,1-.73.77,2.1,2.1,0,0,1-1,.26,2,2,0,0,1-1.07-.29,1.86,1.86,0,0,1-.71-.79A2.39,2.39,0,0,1,95.68,57.77Zm.58,0a1.69,1.69,0,0,0,.41,1.2,1.43,1.43,0,0,0,2.07,0,1.8,1.8,0,0,0,.41-1.26,2.17,2.17,0,0,0-.17-.9,1.34,1.34,0,0,0-.51-.6A1.38,1.38,0,0,0,97.7,56a1.43,1.43,0,0,0-1,.41A1.82,1.82,0,0,0,96.25,57.78Z"/><path d="M100.47,59.83V55.6h2.85v.5H101v1.31h2v.5h-2v1.92Z"/><path d="M107.42,59.83h-.52v-3.3a2.7,2.7,0,0,1-.49.36,3.51,3.51,0,0,1-.55.27v-.5a3.15,3.15,0,0,0,.76-.5,2,2,0,0,0,.46-.56h.33Z"/><path d="M108.75,57.74a3.84,3.84,0,0,1,.15-1.21,1.49,1.49,0,0,1,.46-.7,1.17,1.17,0,0,1,.76-.25,1.26,1.26,0,0,1,.6.14,1.14,1.14,0,0,1,.42.4,2.12,2.12,0,0,1,.26.63,4.22,4.22,0,0,1,.09,1,3.89,3.89,0,0,1-.15,1.2,1.51,1.51,0,0,1-.46.71,1.29,1.29,0,0,1-1.73-.19A2.79,2.79,0,0,1,108.75,57.74Zm.53,0a2.65,2.65,0,0,0,.24,1.38.7.7,0,0,0,1.2,0,4.06,4.06,0,0,0,0-2.77.72.72,0,0,0-.61-.34.66.66,0,0,0-.57.3A2.68,2.68,0,0,0,109.28,57.74Z"/><path d="M113.91,59.83V55.6h2.85v.5h-2.29v1.31h2v.5h-2v1.92Z"/><path d="M117.5,59.83V55.6h3.05v.5h-2.5v1.29h2.34v.5h-2.34v1.44h2.59v.5Z"/><path d="M121.43,59.83V55.6h3.05v.5H122v1.29h2.34v.5H122v1.44h2.59v.5Z"/><path d="M126.43,59.83V56.1H125v-.5h3.35v.5H127v3.73Z"/><path d="M35.91,68.15a5.17,5.17,0,0,1-.73-1.27,4,4,0,0,1-.08-2.82,5.51,5.51,0,0,1,.8-1.45h.37q-.35.6-.46.86a4.69,4.69,0,0,0-.28.83,4.85,4.85,0,0,0-.12,1.08,5.2,5.2,0,0,0,.86,2.77Z"/><path d="M36.74,65.79l.52-.07a1.14,1.14,0,0,0,.3.64.75.75,0,0,0,.52.19.84.84,0,0,0,.62-.25.86.86,0,0,0,.25-.63.79.79,0,0,0-.23-.59.81.81,0,0,0-.59-.23,1.5,1.5,0,0,0-.37.06l.06-.46h.08a1.07,1.07,0,0,0,.6-.17.59.59,0,0,0,.27-.53.63.63,0,0,0-.19-.47.69.69,0,0,0-.5-.19.71.71,0,0,0-.5.19,1,1,0,0,0-.26.57l-.52-.09a1.33,1.33,0,0,1,.43-.81,1.25,1.25,0,0,1,.84-.29,1.39,1.39,0,0,1,.64.15,1.08,1.08,0,0,1,.44.4,1,1,0,0,1,.15.54.89.89,0,0,1-.15.5,1,1,0,0,1-.44.36,1,1,0,0,1,.58.36,1.09,1.09,0,0,1,.21.68,1.25,1.25,0,0,1-.4.94,1.42,1.42,0,0,1-1,.38,1.33,1.33,0,0,1-.92-.33A1.28,1.28,0,0,1,36.74,65.79Z"/><path d="M41.8,66.91V63.85h.46v.43a1.09,1.09,0,0,1,.38-.36,1.07,1.07,0,0,1,.54-.14,1,1,0,0,1,.56.14.76.76,0,0,1,.31.39,1.1,1.1,0,0,1,.95-.54.93.93,0,0,1,.7.25,1.08,1.08,0,0,1,.24.78v2.1h-.52V65a1.44,1.44,0,0,0,0-.45.44.44,0,0,0-.18-.22.57.57,0,0,0-.31-.08.72.72,0,0,0-.54.21.94.94,0,0,0-.21.69v1.78h-.52v-2a.88.88,0,0,0-.13-.52.48.48,0,0,0-.42-.17.75.75,0,0,0-.4.12.65.65,0,0,0-.27.34,1.9,1.9,0,0,0-.08.64v1.59Z"/><path d="M47.06,68.15h-.37a5.2,5.2,0,0,0,.86-2.77,4.71,4.71,0,0,0-.12-1.07,4.52,4.52,0,0,0-.27-.83,9.8,9.8,0,0,0-.46-.86h.37a5.51,5.51,0,0,1,.8,1.45,4,4,0,0,1-.08,2.82A5.27,5.27,0,0,1,47.06,68.15Z"/><path d="M49.6,66.91l1.62-4.22h.6l1.73,4.22h-.64l-.49-1.28H50.66l-.46,1.28Zm1.22-1.73h1.43L51.81,64q-.2-.53-.3-.88a5.39,5.39,0,0,1-.23.81Z"/><path d="M54.52,66.91,53.4,62.68H54l.64,2.77q.1.44.18.86l.19-.78.8-2.85h.67l.6,2.14a11.27,11.27,0,0,1,.33,1.5q.08-.4.21-.92l.66-2.71h.56l-1.16,4.22h-.54l-.89-3.22c-.07-.27-.12-.43-.13-.5q-.07.29-.12.5l-.9,3.22Z"/><path d="M58.67,66.91l1.62-4.22h.6l1.73,4.22H62l-.49-1.28H59.72l-.46,1.28Zm1.22-1.73h1.43L60.88,64q-.2-.53-.3-.88a5.39,5.39,0,0,1-.23.81Z"/><path d="M63.82,66.91V65.12l-1.63-2.43h.68L63.7,64c.15.24.3.48.43.71q.19-.33.46-.75l.82-1.24h.65l-1.68,2.43v1.79Z"/><path d="M68.12,66.91V62.68H71v.5H68.68v1.31h2V65h-2v1.92Z"/><path d="M71.71,66.91V62.68h1.87a2.49,2.49,0,0,1,.86.11.94.94,0,0,1,.47.4,1.2,1.2,0,0,1,.18.64,1.06,1.06,0,0,1-.29.76,1.47,1.47,0,0,1-.9.39,1.47,1.47,0,0,1,.34.21,2.9,2.9,0,0,1,.46.56l.73,1.15h-.7L74.17,66q-.24-.38-.4-.58a1.28,1.28,0,0,0-.28-.28.86.86,0,0,0-.25-.11l-.31,0h-.65v1.88Zm.56-2.36h1.2a1.8,1.8,0,0,0,.6-.08.64.64,0,0,0,.33-.25.68.68,0,0,0,.11-.38.63.63,0,0,0-.22-.49,1,1,0,0,0-.69-.19H72.27Z"/><path d="M75.79,64.85a2.3,2.3,0,0,1,.56-1.65,1.92,1.92,0,0,1,1.46-.6,2,2,0,0,1,1.05.28,1.83,1.83,0,0,1,.72.78,2.53,2.53,0,0,1,.25,1.13,2.49,2.49,0,0,1-.26,1.15,1.77,1.77,0,0,1-.73.77,2.1,2.1,0,0,1-1,.26,2,2,0,0,1-1.07-.29A1.86,1.86,0,0,1,76,65.9,2.39,2.39,0,0,1,75.79,64.85Zm.58,0a1.69,1.69,0,0,0,.41,1.2,1.43,1.43,0,0,0,2.07,0,1.8,1.8,0,0,0,.41-1.26,2.17,2.17,0,0,0-.17-.9,1.34,1.34,0,0,0-.51-.6,1.38,1.38,0,0,0-.75-.21,1.43,1.43,0,0,0-1,.41A1.82,1.82,0,0,0,76.37,64.86Z"/><path d="M80.53,66.91V62.68h.84l1,3,.2.63.22-.68,1-2.94h.75v4.22H84V63.37L82.8,66.91h-.5l-1.22-3.6v3.6Z"/><path d="M86.31,66.91l1.62-4.22h.6l1.73,4.22h-.64l-.49-1.28H87.37l-.46,1.28Zm1.22-1.73H89L88.52,64q-.2-.53-.3-.88a5.39,5.39,0,0,1-.23.81Z"/><path d="M90.71,66.91V62.68h.57L93.5,66V62.68H94v4.22h-.57l-2.22-3.32v3.32Z"/><path d="M96.16,66.91V65.12l-1.63-2.43h.68L96,64c.15.24.3.48.43.71q.19-.33.46-.75l.82-1.24h.65l-1.68,2.43v1.79Z"/><path d="M100.44,66.91V62.68H102a3.85,3.85,0,0,1,.64,0,1.27,1.27,0,0,1,.52.2,1,1,0,0,1,.34.41,1.38,1.38,0,0,1-.21,1.49,1.64,1.64,0,0,1-1.24.37H101v1.72Zm.56-2.22h1.09a1.16,1.16,0,0,0,.77-.2.72.72,0,0,0,.23-.57.77.77,0,0,0-.13-.45.63.63,0,0,0-.35-.25,2.4,2.4,0,0,0-.52,0H101Z"/><path d="M103.47,66.91l1.62-4.22h.6l1.73,4.22h-.64l-.49-1.28h-1.77l-.46,1.28Zm1.22-1.73h1.43L105.68,64q-.2-.53-.3-.88a5.39,5.39,0,0,1-.23.81Z"/><path d="M107.88,66.91V62.68h1.87a2.49,2.49,0,0,1,.86.11.94.94,0,0,1,.47.4,1.2,1.2,0,0,1,.18.64,1.06,1.06,0,0,1-.29.76,1.47,1.47,0,0,1-.9.39,1.47,1.47,0,0,1,.34.21,2.9,2.9,0,0,1,.46.56l.73,1.15h-.7l-.56-.88q-.24-.38-.4-.58a1.28,1.28,0,0,0-.28-.28.86.86,0,0,0-.25-.11l-.31,0h-.65v1.88Zm.56-2.36h1.2a1.8,1.8,0,0,0,.6-.08.64.64,0,0,0,.33-.25.68.68,0,0,0,.11-.38.63.63,0,0,0-.22-.49,1,1,0,0,0-.69-.19h-1.34Z"/><path d="M111.67,66.91l1.62-4.22h.6l1.73,4.22H115l-.49-1.28h-1.77l-.46,1.28Zm1.22-1.73h1.43L113.88,64q-.2-.53-.3-.88a5.39,5.39,0,0,1-.23.81Z"/><path d="M116.07,66.91V62.68h1.59a3.85,3.85,0,0,1,.64,0,1.27,1.27,0,0,1,.52.2,1,1,0,0,1,.34.41,1.38,1.38,0,0,1-.21,1.49,1.64,1.64,0,0,1-1.24.37h-1.08v1.72Zm.56-2.22h1.09a1.16,1.16,0,0,0,.77-.2.72.72,0,0,0,.23-.57.77.77,0,0,0-.13-.45.63.63,0,0,0-.35-.25,2.4,2.4,0,0,0-.52,0h-1.08Z"/><path d="M120,66.91V62.68h3.05v.5h-2.5v1.29h2.34V65h-2.34v1.44h2.59v.5Z"/><path d="M125,66.91V63.18h-1.39v-.5H127v.5h-1.4v3.73Z"/><path d="M127,66.91v-.59h.59v.59a1.06,1.06,0,0,1-.12.53.76.76,0,0,1-.37.31l-.14-.22a.49.49,0,0,0,.24-.21.9.9,0,0,0,.09-.4Z"/><path d="M36.19,74l-1.64-4.22h.6l1.1,3.07q.13.37.22.69.1-.35.23-.69l1.14-3.07h.57L36.77,74Z"/><path d="M38.93,74V69.76H42v.5h-2.5v1.29h2.34V72H39.49v1.44h2.59V74Z"/><path d="M42.86,74V69.76h1.87a2.49,2.49,0,0,1,.86.11.94.94,0,0,1,.47.4,1.2,1.2,0,0,1,.18.64,1.06,1.06,0,0,1-.29.76,1.47,1.47,0,0,1-.9.39,1.47,1.47,0,0,1,.34.21,2.9,2.9,0,0,1,.46.56L46.59,74h-.7l-.56-.88q-.24-.38-.4-.58a1.28,1.28,0,0,0-.28-.28.86.86,0,0,0-.25-.11l-.31,0h-.65V74Zm.56-2.36h1.2a1.8,1.8,0,0,0,.6-.08.64.64,0,0,0,.33-.25.68.68,0,0,0,.11-.38.63.63,0,0,0-.22-.49,1,1,0,0,0-.69-.19H43.42Z"/><path d="M48.08,74V70.26H46.69v-.5H50v.5h-1.4V74Z"/><path d="M50.71,74V69.76h.56V74Z"/><path d="M55.27,72.5l.56.14a1.88,1.88,0,0,1-.63,1.05,1.74,1.74,0,0,1-1.12.36A2,2,0,0,1,53,73.78a1.73,1.73,0,0,1-.65-.81,2.86,2.86,0,0,1-.22-1.13,2.49,2.49,0,0,1,.25-1.15,1.73,1.73,0,0,1,.72-.75,2.09,2.09,0,0,1,1-.25,1.73,1.73,0,0,1,1.07.32,1.67,1.67,0,0,1,.6.91l-.55.13a1.3,1.3,0,0,0-.43-.67,1.13,1.13,0,0,0-.7-.21,1.37,1.37,0,0,0-.81.23,1.23,1.23,0,0,0-.46.63,2.51,2.51,0,0,0-.13.81,2.56,2.56,0,0,0,.16.94,1.17,1.17,0,0,0,.49.6,1.37,1.37,0,0,0,.72.2,1.2,1.2,0,0,0,.79-.27A1.39,1.39,0,0,0,55.27,72.5Z"/><path d="M56,74l1.62-4.22h.6L60,74h-.64l-.49-1.28H57.11L56.64,74Zm1.22-1.73H58.7l-.44-1.17q-.2-.53-.3-.88a5.39,5.39,0,0,1-.23.81Z"/><path d="M60.43,74V69.76H61v3.72h2.08V74Z"/><path d="M65.89,74l-1.12-4.22h.57L66,72.53q.1.44.18.86l.19-.78.8-2.85h.67l.6,2.14a11.27,11.27,0,0,1,.33,1.5q.08-.4.21-.92l.66-2.71h.56L69,74H68.5l-.89-3.22c-.07-.27-.12-.43-.13-.5q-.07.29-.12.5L66.46,74Z"/><path d="M70,74l1.62-4.22h.6L74,74h-.64l-.49-1.28H71.09L70.63,74Zm1.22-1.73h1.43l-.44-1.17q-.2-.53-.3-.88a5.39,5.39,0,0,1-.23.81Z"/><path d="M74.41,74V69.76H75v3.72h2.08V74Z"/><path d="M77.69,74V69.76h.56v3.72h2.08V74Z"/><path d="M82.25,71.93a2.3,2.3,0,0,1,.56-1.65,1.92,1.92,0,0,1,1.46-.6,2,2,0,0,1,1.05.28,1.83,1.83,0,0,1,.72.78,2.53,2.53,0,0,1,.25,1.13A2.49,2.49,0,0,1,86,73a1.77,1.77,0,0,1-.73.77,2.1,2.1,0,0,1-1,.26,2,2,0,0,1-1.07-.29,1.86,1.86,0,0,1-.71-.79A2.39,2.39,0,0,1,82.25,71.93Zm.58,0a1.69,1.69,0,0,0,.41,1.2,1.43,1.43,0,0,0,2.07,0,1.8,1.8,0,0,0,.41-1.26,2.17,2.17,0,0,0-.17-.9,1.34,1.34,0,0,0-.51-.6,1.38,1.38,0,0,0-.75-.21,1.43,1.43,0,0,0-1,.41A1.82,1.82,0,0,0,82.82,71.94Z"/><path d="M87,74V69.76h1.87a2.49,2.49,0,0,1,.86.11.94.94,0,0,1,.47.4,1.2,1.2,0,0,1,.18.64,1.06,1.06,0,0,1-.29.76,1.47,1.47,0,0,1-.9.39,1.47,1.47,0,0,1,.34.21,2.9,2.9,0,0,1,.46.56L90.74,74H90l-.56-.88q-.24-.38-.4-.58a1.28,1.28,0,0,0-.28-.28.86.86,0,0,0-.25-.11l-.31,0h-.65V74Zm.56-2.36h1.2a1.8,1.8,0,0,0,.6-.08.64.64,0,0,0,.33-.25.68.68,0,0,0,.11-.38.63.63,0,0,0-.22-.49,1,1,0,0,0-.69-.19H87.57Z"/><path d="M34.79,79.71l.53,0a1.17,1.17,0,0,0,.17.52,1,1,0,0,0,.42.33,1.61,1.61,0,0,0,.65.13,1.55,1.55,0,0,0,.56-.1.79.79,0,0,0,.36-.26.6.6,0,0,0,.12-.36.55.55,0,0,0-.12-.35.85.85,0,0,0-.38-.25,7.45,7.45,0,0,0-.75-.21,3.87,3.87,0,0,1-.82-.26,1.14,1.14,0,0,1-.45-.39,1,1,0,0,1-.15-.53,1.08,1.08,0,0,1,.18-.6,1.13,1.13,0,0,1,.53-.42,2,2,0,0,1,.78-.14,2.11,2.11,0,0,1,.83.15,1.19,1.19,0,0,1,.55.44A1.28,1.28,0,0,1,38,78l-.54,0a.87.87,0,0,0-.29-.6,1.14,1.14,0,0,0-.74-.2,1.18,1.18,0,0,0-.74.19.56.56,0,0,0-.23.45.48.48,0,0,0,.16.37,2.23,2.23,0,0,0,.84.3,5.62,5.62,0,0,1,.94.27,1.28,1.28,0,0,1,.54.43,1,1,0,0,1,.18.6,1.15,1.15,0,0,1-.19.64,1.27,1.27,0,0,1-.55.46,1.94,1.94,0,0,1-.81.17,2.43,2.43,0,0,1-1-.17,1.34,1.34,0,0,1-.61-.5A1.42,1.42,0,0,1,34.79,79.71Z"/><path d="M40,81.07V77.34H38.6v-.5H42v.5h-1.4v3.73Z"/><path d="M42.53,81.07V76.84H44.4a2.49,2.49,0,0,1,.86.11.94.94,0,0,1,.47.4,1.2,1.2,0,0,1,.18.64,1.06,1.06,0,0,1-.29.76,1.47,1.47,0,0,1-.9.39,1.47,1.47,0,0,1,.34.21,2.9,2.9,0,0,1,.46.56l.73,1.15h-.7L45,80.19q-.24-.38-.4-.58a1.28,1.28,0,0,0-.28-.28.86.86,0,0,0-.25-.11l-.31,0h-.65v1.88Zm.56-2.36h1.2a1.8,1.8,0,0,0,.6-.08.64.64,0,0,0,.33-.25.68.68,0,0,0,.11-.38.63.63,0,0,0-.22-.49,1,1,0,0,0-.69-.19H43.09Z"/><path d="M49.56,76.84h.56v2.44a2.9,2.9,0,0,1-.14,1,1.24,1.24,0,0,1-.52.61,1.84,1.84,0,0,1-1,.23,2,2,0,0,1-1-.2,1.17,1.17,0,0,1-.54-.59,2.82,2.82,0,0,1-.16-1.06V76.84h.56v2.44a2.37,2.37,0,0,0,.1.81.78.78,0,0,0,.35.4,1.22,1.22,0,0,0,.61.14,1.17,1.17,0,0,0,.88-.28,1.62,1.62,0,0,0,.26-1.07Z"/><path d="M54.06,79.58l.56.14A1.88,1.88,0,0,1,54,80.78a1.74,1.74,0,0,1-1.12.36,2,2,0,0,1-1.11-.28,1.73,1.73,0,0,1-.65-.81,2.86,2.86,0,0,1-.22-1.13,2.49,2.49,0,0,1,.25-1.15,1.73,1.73,0,0,1,.72-.75,2.09,2.09,0,0,1,1-.25,1.73,1.73,0,0,1,1.07.32,1.67,1.67,0,0,1,.6.91l-.55.13a1.3,1.3,0,0,0-.43-.67,1.13,1.13,0,0,0-.7-.21,1.37,1.37,0,0,0-.81.23,1.23,1.23,0,0,0-.46.63,2.51,2.51,0,0,0-.13.81,2.56,2.56,0,0,0,.16.94,1.17,1.17,0,0,0,.49.6,1.37,1.37,0,0,0,.72.2,1.2,1.2,0,0,0,.79-.27A1.39,1.39,0,0,0,54.06,79.58Z"/><path d="M56.38,81.07V77.34H55v-.5h3.35v.5h-1.4v3.73Z"/><path d="M61.68,76.84h.56v2.44a2.9,2.9,0,0,1-.14,1,1.24,1.24,0,0,1-.52.61,1.84,1.84,0,0,1-1,.23,2,2,0,0,1-1-.2,1.17,1.17,0,0,1-.54-.59,2.82,2.82,0,0,1-.16-1.06V76.84h.56v2.44a2.37,2.37,0,0,0,.1.81.78.78,0,0,0,.35.4,1.22,1.22,0,0,0,.61.14,1.17,1.17,0,0,0,.88-.28,1.62,1.62,0,0,0,.26-1.07Z"/><path d="M63.18,81.07V76.84h1.87a2.49,2.49,0,0,1,.86.11.94.94,0,0,1,.47.4,1.2,1.2,0,0,1,.18.64,1.06,1.06,0,0,1-.29.76,1.47,1.47,0,0,1-.9.39,1.47,1.47,0,0,1,.34.21,2.9,2.9,0,0,1,.46.56l.73,1.15h-.7l-.56-.88q-.24-.38-.4-.58a1.28,1.28,0,0,0-.28-.28.86.86,0,0,0-.25-.11l-.31,0h-.65v1.88Zm.56-2.36h1.2a1.8,1.8,0,0,0,.6-.08.64.64,0,0,0,.33-.25A.68.68,0,0,0,66,78a.63.63,0,0,0-.22-.49,1,1,0,0,0-.69-.19H63.74Z"/><path d="M67.44,81.07V76.84H70.5v.5H68v1.29h2.34v.5H68v1.44H70.6v.5Z"/><path d="M71.45,81.07v-.59H72v.59Z"/><path d="M75.87,161.18,74.24,157h.6l1.1,3.07q.13.37.22.69.1-.35.23-.69L77.53,157h.57l-1.65,4.22Z"/><path d="M78.61,161.18V157h3.05v.5h-2.5v1.29h2.34v.5H79.17v1.44h2.59v.5Z"/><path d="M82.53,161.18V157h.57l2.22,3.32V157h.54v4.22h-.57l-2.22-3.32v3.32Z"/><path d="M87.87,161.18v-3.72H86.48V157h3.35v.5h-1.4v3.72Z"/><path d="M91.93,161.18V157h1.59a3.92,3.92,0,0,1,.64,0,1.29,1.29,0,0,1,.52.2,1,1,0,0,1,.34.41,1.38,1.38,0,0,1-.21,1.49,1.65,1.65,0,0,1-1.24.37H92.49v1.72Zm.56-2.21h1.09a1.16,1.16,0,0,0,.77-.2.72.72,0,0,0,.23-.57.77.77,0,0,0-.13-.45.63.63,0,0,0-.35-.25,2.38,2.38,0,0,0-.52,0H92.49Z"/><path d="M96,161.18V157h.56v4.22Z"/><path d="M97.51,161.18V157H99.1a3.92,3.92,0,0,1,.64,0,1.29,1.29,0,0,1,.52.2,1,1,0,0,1,.34.41,1.38,1.38,0,0,1-.21,1.49,1.65,1.65,0,0,1-1.24.37H98.07v1.72Zm.56-2.21h1.09a1.16,1.16,0,0,0,.77-.2.72.72,0,0,0,.23-.57.77.77,0,0,0-.13-.45.63.63,0,0,0-.35-.25,2.38,2.38,0,0,0-.52,0H98.07Z"/><path d="M101.45,161.18V157h3.05v.5H102v1.29h2.34v.5H102v1.44h2.59v.5Z"/><path d="M27.41,180v-4.22H28V180Z"/><path d="M29,180v-4.22h.57l2.22,3.32v-3.32h.54V180h-.57l-2.22-3.32V180Z"/><path d="M34.29,180v-3.72H32.9v-.5h3.35v.5h-1.4V180Z"/><path d="M35.92,180l1.62-4.22h.6L39.87,180h-.64l-.49-1.28H37L36.52,180Zm1.22-1.73h1.43l-.44-1.17q-.2-.53-.3-.87a5.44,5.44,0,0,1-.23.81Z"/><path d="M40.3,180v-4.22h.56v2.09l2.1-2.09h.76l-1.77,1.71L43.79,180h-.74l-1.5-2.14-.69.67V180Z"/><path d="M44.27,180v-4.22h3.05v.5h-2.5v1.29h2.34v.5H44.83v1.44h2.59v.5Z"/><path d="M49,180l1.62-4.22h.6L53,180h-.64l-.49-1.28H50.1L49.63,180Zm1.22-1.73h1.43l-.44-1.17q-.2-.53-.3-.87a5.44,5.44,0,0,1-.23.81Z"/><path d="M53.53,180v-4.22h.56V180Z"/><path d="M55.09,180v-4.22H57a2.49,2.49,0,0,1,.86.11.94.94,0,0,1,.47.4,1.2,1.2,0,0,1,.18.64,1.06,1.06,0,0,1-.29.76,1.46,1.46,0,0,1-.9.39,1.46,1.46,0,0,1,.34.21,2.88,2.88,0,0,1,.46.56l.73,1.15h-.7l-.56-.88c-.16-.25-.3-.45-.4-.58a1.27,1.27,0,0,0-.28-.28.86.86,0,0,0-.25-.11l-.31,0h-.65V180Zm.56-2.36h1.2a1.8,1.8,0,0,0,.6-.08.64.64,0,0,0,.33-.25.68.68,0,0,0,.11-.38.63.63,0,0,0-.22-.49,1,1,0,0,0-.69-.19H55.65Z"/><path d="M61,180v-4.22h1.59a3.92,3.92,0,0,1,.64,0,1.29,1.29,0,0,1,.52.2,1,1,0,0,1,.34.41,1.38,1.38,0,0,1-.21,1.49,1.65,1.65,0,0,1-1.24.37H61.54V180Zm.56-2.21h1.09a1.16,1.16,0,0,0,.77-.2.72.72,0,0,0,.23-.57.77.77,0,0,0-.13-.45.63.63,0,0,0-.35-.25,2.38,2.38,0,0,0-.52,0H61.54Z"/><path d="M65,180v-4.22h.56V180Z"/><path d="M66.55,180v-4.22h1.59a3.92,3.92,0,0,1,.64,0,1.29,1.29,0,0,1,.52.2,1,1,0,0,1,.34.41,1.38,1.38,0,0,1-.21,1.49,1.65,1.65,0,0,1-1.24.37H67.11V180Zm.56-2.21H68.2a1.16,1.16,0,0,0,.77-.2.72.72,0,0,0,.23-.57.77.77,0,0,0-.13-.45.63.63,0,0,0-.35-.25,2.38,2.38,0,0,0-.52,0H67.11Z"/><path d="M70.5,180v-4.22h3.05v.5h-2.5v1.29H73.4v.5H71.06v1.44h2.59v.5Z"/><line x1="41.2" y1="27.79" x2="114.56" y2="27.79" style="fill:none;stroke:#000"/><path d="M116.92,26.77c-1.65-.5-2.73-1-4.05-1.49v5a39.59,39.59,0,0,1,4.05-1.49,29.56,29.56,0,0,1,4.42-1A29.61,29.61,0,0,1,116.92,26.77Z"/><path d="M38.84,28.82c1.65.5,2.73,1,4.05,1.49v-5a39.61,39.61,0,0,1-4.05,1.49,29.56,29.56,0,0,1-4.41,1A29.61,29.61,0,0,1,38.84,28.82Z"/><path d="M131.88,179.75c-1.24-1.2-2-2.1-2.92-3.18l-.92,1.79L100.95,164l-.46.89,27.09,14.37-.93,1.8a39.52,39.52,0,0,1,4.28.53,29.8,29.8,0,0,1,4.4,1.11A29.49,29.49,0,0,1,131.88,179.75Z"/><line x1="77.88" y1="46.36" x2="77.88" y2="35.86" style="fill:none;stroke:#000"/><path d="M76.85,33.5c-.5,1.65-1,2.73-1.49,4.05h5a39.61,39.61,0,0,1-1.49-4.05,29.56,29.56,0,0,1-1-4.42A29.61,29.61,0,0,1,76.85,33.5Z"/><path d="M167.8,192.37c-1.56-.74-2.56-1.35-3.79-2.07l-.3,2L76,178.19l-.15,1,87.74,14.1-.3,2a39.59,39.59,0,0,1,4.23-.88A29.66,29.66,0,0,1,172,194,29.57,29.57,0,0,1,167.8,192.37Z" style="fill:#fff;stroke:#fff"/><path d="M167.8,192.37c-1.56-.74-2.56-1.35-3.79-2.07l-.3,2L76,178.19l-.15,1,87.74,14.1-.3,2a39.59,39.59,0,0,1,4.23-.88A29.66,29.66,0,0,1,172,194,29.57,29.57,0,0,1,167.8,192.37Z"/></g></svg>