<svg id="caution_text" data-name="caution text" xmlns="http://www.w3.org/2000/svg" viewBox="0 0 262.96 193.52"><defs><style>.cls-1,.cls-2{fill:none;stroke:#000;}.cls-1{stroke-miterlimit:10;}.cls-3{font-size:15px;}.cls-26,.cls-3,.cls-8,.cls-9{font-family:Arial-BoldMT, Arial;font-weight:700;}.cls-26,.cls-4,.cls-9{font-size:9px;}.cls-20,.cls-4{font-family:ArialMT, Arial;}.cls-5{letter-spacing:-0.06em;}.cls-6{letter-spacing:0em;}.cls-7,.cls-8{fill:#fff;}.cls-8{font-size:24px;letter-spacing:-0.05em;}.cls-10{font-size:12px;}.cls-11,.cls-12,.cls-13,.cls-14,.cls-15,.cls-16,.cls-17,.cls-18,.cls-19,.cls-23{fill:#231f20;}.cls-11,.cls-12,.cls-13,.cls-14,.cls-15,.cls-16,.cls-17,.cls-18,.cls-19,.cls-20,.cls-23,.cls-34{font-size:8px;}.cls-11,.cls-12,.cls-13,.cls-14,.cls-15,.cls-16,.cls-17,.cls-18,.cls-19,.cls-21,.cls-22,.cls-23,.cls-34{font-family:MyriadPro-Regular, Myriad Pro;}.cls-11,.cls-12,.cls-13,.cls-14,.cls-15,.cls-16,.cls-17,.cls-18,.cls-19{font-weight:400;}.cls-11,.cls-27{letter-spacing:0em;}.cls-13,.cls-38{letter-spacing:0em;}.cls-14,.cls-42{letter-spacing:0em;}.cls-15{letter-spacing:-0.01em;}.cls-16,.cls-31{letter-spacing:0em;}.cls-17,.cls-28{letter-spacing:0em;}.cls-18,.cls-32{letter-spacing:-0.01em;}.cls-19,.cls-33{letter-spacing:-0.01em;}.cls-22,.cls-35{letter-spacing:0.02em;}.cls-24{letter-spacing:-0.01em;}.cls-25{letter-spacing:-0.01em;}.cls-26{fill:#000;}.cls-29{letter-spacing:0em;}.cls-30{letter-spacing:-0.01em;}.cls-36{letter-spacing:0.01em;}.cls-37{letter-spacing:-0.01em;}.cls-39{letter-spacing:-0.01em;}.cls-40{letter-spacing:0em;}.cls-41{letter-spacing:-0.01em;}.cls-43{letter-spacing:-0.01em;}</style></defs><title>ctn-dnt_oprte_in_cold</title><polyline points="0.85 26.49 262.18 26.49 262.18 0.56 0.85 0.56"/><rect class="cls-1" x="0.5" y="0.5" width="261.96" height="192.52"/><path class="cls-2" d="M86,137.4"/><path class="cls-2" d="M86,20.71"/><line class="cls-2" x1="0.72" y1="57.62" x2="262.39" y2="57.62"/><text class="cls-3" transform="translate(41.65 45.61) scale(1.02 1)">Property Damage Hazard</text><text class="cls-4" transform="translate(5.97 70.27)">Freezing temperatures can cause ice to form within the <tspan x="0" y="10.8">components of the water heate</tspan><tspan class="cls-5" x="123.58" y="10.8">r</tspan><tspan x="126.08" y="10.8">, damaging the water heate</tspan><tspan class="cls-5" x="235.15" y="10.8">r</tspan><tspan class="cls-6" x="237.65" y="10.8">.</tspan><tspan x="0" y="32.4">If the water heater is subjected to the loss of power and any </tspan><tspan x="0" y="43.2">of the following conditions occurs, disconnect the power </tspan><tspan x="0" y="54">supply and then drain the water from the tank.</tspan></text><path class="cls-7" d="M80.18,5.2A1.23,1.23,0,0,0,79,4.36a1.13,1.13,0,0,0-1.13.84L69.81,19c-1.06,1.76-.14,2.47.92,2.54H87.24c1.13-.07,2-.78.92-2.54Z"/><path d="M79.58,15.56a.53.53,0,0,1-.49.5H79a.48.48,0,0,1-.5-.5c-1.62-5.15-2.4-8.75.5-8.75S81.13,10.41,79.58,15.56Z"/><path d="M79,21.14A1.56,1.56,0,1,1,79,18h.07A1.56,1.56,0,0,1,79,21.14Z"/><text class="cls-8" transform="translate(98.42 21.96)">CAUTION</text><text class="cls-9" transform="translate(6.06 141.61)">•<tspan class="cls-10" x="3.15" y="0"> </tspan><tspan class="cls-11" x="6.48" y="0">A</tspan><tspan class="cls-12" x="11.36" y="0">mbie</tspan><tspan class="cls-13" x="28.46" y="0">n</tspan><tspan class="cls-14" x="32.87" y="0">t </tspan><tspan class="cls-15" x="37.21" y="0">t</tspan><tspan class="cls-12" x="39.81" y="0">empe</tspan><tspan class="cls-16" x="59.05" y="0">r</tspan><tspan class="cls-17" x="61.63" y="0">a</tspan><tspan class="cls-12" x="65.45" y="0">tu</tspan><tspan class="cls-18" x="72.51" y="0">r</tspan><tspan class="cls-12" x="75.04" y="0">e is l</tspan><tspan class="cls-19" x="89.37" y="0">o</tspan><tspan class="cls-18" x="93.71" y="0">w</tspan><tspan class="cls-12" x="99.52" y="0">er than 32</tspan></text><text class="cls-20" transform="translate(139.18 141.61) scale(1.07 1)">°F (0 <tspan class="cls-21" x="19.64" y="0">°</tspan><tspan class="cls-22" x="22.19" y="0">C</tspan><tspan class="cls-21" x="26.96" y="0">)</tspan></text><text class="cls-23" transform="translate(170.31 141.61)"> <tspan class="cls-24" x="1.7" y="0">f</tspan><tspan x="3.93" y="0">or 48 hour</tspan><tspan class="cls-25" x="38.39" y="0">s</tspan><tspan x="41.47" y="0">.</tspan><tspan class="cls-26" x="-164.26" y="10.8">• </tspan><tspan class="cls-27" x="-158.61" y="10.8">A</tspan><tspan x="-153.73" y="10.8">mbie</tspan><tspan class="cls-28" x="-136.63" y="10.8">n</tspan><tspan class="cls-29" x="-132.22" y="10.8">t </tspan><tspan class="cls-30" x="-127.88" y="10.8">t</tspan><tspan x="-125.28" y="10.8">empe</tspan><tspan class="cls-31" x="-106.04" y="10.8">r</tspan><tspan class="cls-28" x="-103.46" y="10.8">a</tspan><tspan x="-99.64" y="10.8">tu</tspan><tspan class="cls-32" x="-92.58" y="10.8">r</tspan><tspan x="-90.05" y="10.8">e is l</tspan><tspan class="cls-33" x="-75.72" y="10.8">o</tspan><tspan class="cls-32" x="-71.38" y="10.8">w</tspan><tspan x="-65.58" y="10.8">er than 14 </tspan></text><text class="cls-20" transform="translate(140.04 152.41) scale(1.07 1)">°F (</text><text class="cls-23" transform="translate(153.86 152.41)">-14 </text><text class="cls-34" transform="translate(166.22 152.41) scale(1.07 1)">°<tspan class="cls-35" x="2.54" y="0">C</tspan><tspan x="7.32" y="0">)</tspan></text><text class="cls-23" transform="translate(176.43 152.41)"> <tspan class="cls-24" x="1.7" y="0">f</tspan><tspan x="3.93" y="0">or 24 hour</tspan><tspan class="cls-25" x="38.39" y="0">s</tspan><tspan x="41.47" y="0">.</tspan><tspan class="cls-26" x="-170.38" y="10.8">• </tspan><tspan class="cls-27" x="-164.72" y="10.8">A</tspan><tspan x="-159.85" y="10.8">mbie</tspan><tspan class="cls-28" x="-142.75" y="10.8">n</tspan><tspan class="cls-29" x="-138.34" y="10.8">t </tspan><tspan class="cls-30" x="-134" y="10.8">t</tspan><tspan x="-131.4" y="10.8">empe</tspan><tspan class="cls-31" x="-112.16" y="10.8">r</tspan><tspan class="cls-28" x="-109.58" y="10.8">a</tspan><tspan x="-105.76" y="10.8">tu</tspan><tspan class="cls-32" x="-98.7" y="10.8">r</tspan><tspan x="-96.17" y="10.8">e is l</tspan><tspan class="cls-33" x="-81.84" y="10.8">o</tspan><tspan class="cls-32" x="-77.5" y="10.8">w</tspan><tspan x="-71.69" y="10.8">er than -4</tspan><tspan x="-39.73" y="10.8"> </tspan></text><text class="cls-20" transform="translate(138.39 163.21) scale(1.07 1)">°F (</text><text class="cls-23" transform="translate(152.21 163.21)">-20<tspan x="10.66" y="0"> </tspan></text><text class="cls-34" transform="translate(164.57 163.21) scale(1.07 1)">°<tspan class="cls-35" x="2.54" y="0">C</tspan><tspan x="7.32" y="0">)</tspan></text><text class="cls-23" transform="translate(174.78 163.21)"> <tspan class="cls-24" x="1.7" y="0">f</tspan><tspan x="3.93" y="0">or 12 hour</tspan><tspan class="cls-25" x="38.39" y="0">s</tspan><tspan x="41.47" y="0">.</tspan><tspan class="cls-26" x="-168.73" y="10.8">• </tspan><tspan class="cls-36" x="-163.08" y="10.8">I</tspan><tspan x="-161.08" y="10.8">f the</tspan><tspan class="cls-32" x="-145.96" y="10.8">r</tspan><tspan x="-143.42" y="10.8">e is a need </tspan><tspan class="cls-30" x="-106.77" y="10.8">t</tspan><tspan x="-104.17" y="10.8">o shut d</tspan><tspan class="cls-37" x="-77.21" y="10.8">o</tspan><tspan x="-72.87" y="10.8">wn the </tspan><tspan class="cls-38" x="-48.05" y="10.8">wa</tspan><tspan class="cls-30" x="-38.37" y="10.8">t</tspan><tspan x="-35.77" y="10.8">er he</tspan><tspan class="cls-28" x="-19.01" y="10.8">a</tspan><tspan class="cls-30" x="-15.18" y="10.8">t</tspan><tspan x="-12.58" y="10.8">er </tspan><tspan class="cls-24" x="-4.26" y="10.8">f</tspan><tspan x="-2.03" y="10.8">or a long time in l</tspan><tspan class="cls-39" x="55.91" y="10.8">o</tspan><tspan class="cls-40" x="60.24" y="10.8" xml:space="preserve">w  </tspan><tspan x="-168.73" y="20.4" xml:space="preserve">   </tspan><tspan class="cls-30" x="-163.64" y="20.4">t</tspan><tspan x="-161.04" y="20.4">empe</tspan><tspan class="cls-41" x="-141.8" y="20.4">r</tspan><tspan class="cls-38" x="-139.22" y="20.4">a</tspan><tspan class="cls-42" x="-135.4" y="20.4">tu</tspan><tspan class="cls-43" x="-128.34" y="20.4">r</tspan><tspan x="-125.81" y="20.4">e</tspan><tspan class="cls-25" x="-121.8" y="20.4">s</tspan><tspan x="-118.72" y="20.4">.</tspan></text></svg>