<svg xmlns="http://www.w3.org/2000/svg" viewBox="0 0 240.62 88.97"><title>caution-use_spplied_vnt_hood_only</title><g id="frame"><rect x="0.42" y="0.32" width="239.61" height="27.66"/><rect x="0.59" y="0.59" width="239.44" height="87.78" style="fill:none;stroke:#000;stroke-width:1.18649px"/><path d="M85.89,9.71" style="fill:none;stroke:#000"/><path d="M96.32,16.24l2.94.93A6.6,6.6,0,0,1,97,20.83,7.08,7.08,0,0,1,88.1,20a7.83,7.83,0,0,1-1.93-5.59,8.22,8.22,0,0,1,1.94-5.83,6.64,6.64,0,0,1,5.1-2.08,6.25,6.25,0,0,1,4.48,1.63,5.93,5.93,0,0,1,1.54,2.77l-3,.72a3.11,3.11,0,0,0-3.17-2.52,3.42,3.42,0,0,0-2.71,1.2,5.87,5.87,0,0,0-1,3.89,6.31,6.31,0,0,0,1,4.06A3.33,3.33,0,0,0,93,19.43a3,3,0,0,0,2.08-.77A4.46,4.46,0,0,0,96.32,16.24Z" style="fill:#fff"/><path d="M114.71,21.76h-3.3l-1.31-3.41h-6l-1.24,3.41H99.63l5.85-15h3.21Zm-5.59-5.95-2.07-5.58-2,5.58Z" style="fill:#fff"/><path d="M115.59,6.73h3v8.14a16.87,16.87,0,0,0,.11,2.51,2.44,2.44,0,0,0,.93,1.48,3.24,3.24,0,0,0,2,.56,3.06,3.06,0,0,0,1.95-.53,2.08,2.08,0,0,0,.79-1.3,16.92,16.92,0,0,0,.13-2.55V6.73h3v7.9a20.27,20.27,0,0,1-.25,3.82,4.23,4.23,0,0,1-.91,1.89,4.57,4.57,0,0,1-1.77,1.23,7.68,7.68,0,0,1-2.89.46,8.32,8.32,0,0,1-3.27-.5,4.66,4.66,0,0,1-1.76-1.29,4.14,4.14,0,0,1-.85-1.67,18.26,18.26,0,0,1-.3-3.81Z" style="fill:#fff"/><path d="M133.44,21.76V9.27H129V6.73h11.95V9.27h-4.45V21.76Z" style="fill:#fff"/><path d="M142.92,21.76v-15h3v15Z" style="fill:#fff"/><path d="M147.52,14.34a9.56,9.56,0,0,1,.69-3.86,7.08,7.08,0,0,1,1.4-2.06,5.85,5.85,0,0,1,1.94-1.35,8.25,8.25,0,0,1,3.24-.6,7.06,7.06,0,0,1,5.32,2.06,7.9,7.9,0,0,1,2,5.73,7.87,7.87,0,0,1-2,5.7A7,7,0,0,1,154.83,22a7.08,7.08,0,0,1-5.33-2A7.76,7.76,0,0,1,147.52,14.34Zm3.13-.1a5.64,5.64,0,0,0,1.18,3.87,4.05,4.05,0,0,0,6,0A5.75,5.75,0,0,0,159,14.2a5.65,5.65,0,0,0-1.13-3.86,4.2,4.2,0,0,0-6,0A5.68,5.68,0,0,0,150.65,14.24Z" style="fill:#fff"/><path d="M163.79,21.76v-15h3l6.15,10v-10h2.82v15h-3L166.61,12v9.8Z" style="fill:#fff"/><path d="M73.28,4.42,62.51,22.92H84.35Zm1.13,17.11H72.07V19.22h2.34ZM73.9,18H72.57L72,11.86V9H74.5v2.83Z" style="fill:#fff"/></g><g id="icons"><path d="M16.49,35.73h.72V39A4.1,4.1,0,0,1,17,40.41a1.66,1.66,0,0,1-.67.83,2.28,2.28,0,0,1-1.27.32,2.51,2.51,0,0,1-1.25-.28,1.56,1.56,0,0,1-.69-.8A4,4,0,0,1,12.93,39V35.73h.72V39a3.38,3.38,0,0,0,.13,1.1,1,1,0,0,0,.45.54,1.51,1.51,0,0,0,.78.19,1.46,1.46,0,0,0,1.13-.38A2.27,2.27,0,0,0,16.49,39Z"/><path d="M18.07,40.22l.66-.11a1,1,0,0,0,.31.64,1,1,0,0,0,.71.22,1,1,0,0,0,.68-.2.6.6,0,0,0,.22-.46.43.43,0,0,0-.2-.37,2.76,2.76,0,0,0-.68-.24,6.09,6.09,0,0,1-1-.34,1,1,0,0,1-.43-.39,1.09,1.09,0,0,1-.15-.56,1.13,1.13,0,0,1,.45-.91,1.33,1.33,0,0,1,.43-.21,1.9,1.9,0,0,1,.58-.08,2.18,2.18,0,0,1,.81.14,1.11,1.11,0,0,1,.52.38,1.53,1.53,0,0,1,.23.64l-.65.09a.76.76,0,0,0-.26-.5.91.91,0,0,0-.6-.18A1,1,0,0,0,19,38a.47.47,0,0,0-.2.38.4.4,0,0,0,.08.25.6.6,0,0,0,.26.19l.59.18a7.88,7.88,0,0,1,1,.33,1,1,0,0,1,.44.37,1.07,1.07,0,0,1,.16.6,1.22,1.22,0,0,1-.19.66,1.28,1.28,0,0,1-.56.48,2,2,0,0,1-.83.17,1.79,1.79,0,0,1-1.17-.34A1.59,1.59,0,0,1,18.07,40.22Z"/><path d="M24.85,40.12l.69.09a1.79,1.79,0,0,1-.6,1,2,2,0,0,1-2.5-.21,2.27,2.27,0,0,1-.51-1.57,2.37,2.37,0,0,1,.51-1.62,1.69,1.69,0,0,1,1.33-.58,1.64,1.64,0,0,1,1.29.57,2.32,2.32,0,0,1,.5,1.59s0,.1,0,.19H22.62a1.64,1.64,0,0,0,.37,1,1.07,1.07,0,0,0,.82.36,1,1,0,0,0,.63-.2A1.36,1.36,0,0,0,24.85,40.12ZM22.66,39h2.2a1.45,1.45,0,0,0-.25-.79,1,1,0,0,0-.83-.41,1,1,0,0,0-.77.32A1.31,1.31,0,0,0,22.66,39Z"/><path d="M28.28,39.38a2.2,2.2,0,0,1,.61-1.71,1.78,1.78,0,0,1,1.24-.46,1.72,1.72,0,0,1,1.33.56A2.2,2.2,0,0,1,32,39.33a2.87,2.87,0,0,1-.23,1.26,1.67,1.67,0,0,1-.66.71,1.86,1.86,0,0,1-1,.25A1.73,1.73,0,0,1,28.79,41,2.31,2.31,0,0,1,28.28,39.38Zm.69,0a1.83,1.83,0,0,0,.33,1.19,1.06,1.06,0,0,0,1.66,0,1.88,1.88,0,0,0,.33-1.21,1.77,1.77,0,0,0-.33-1.17,1.07,1.07,0,0,0-1.66,0A1.82,1.82,0,0,0,29,39.38Z"/><path d="M32.77,41.46V37.31h.6v.59a1.4,1.4,0,0,1,1.25-.68,1.57,1.57,0,0,1,.65.13,1,1,0,0,1,.45.35,1.39,1.39,0,0,1,.21.52,4.27,4.27,0,0,1,0,.68v2.55H35.3V38.94a2,2,0,0,0-.08-.64.66.66,0,0,0-.28-.34.84.84,0,0,0-.47-.13,1,1,0,0,0-.74.29,1.45,1.45,0,0,0-.31,1.08v2.27Z"/><path d="M37,41.46V35.73h.67v5.73Z"/><path d="M38.68,43.06l-.07-.66a1.45,1.45,0,0,0,.38.06.71.71,0,0,0,.36-.08.63.63,0,0,0,.22-.22,3.6,3.6,0,0,0,.2-.52l.06-.17-1.5-4.16h.72l.82,2.4q.16.46.29,1a9.72,9.72,0,0,1,.27-.95l.84-2.42h.67l-1.5,4.22a8.6,8.6,0,0,1-.37.94,1.38,1.38,0,0,1-.41.51.94.94,0,0,1-.55.16A1.29,1.29,0,0,1,38.68,43.06Z"/><path d="M46.11,40.83l.1.62a2.4,2.4,0,0,1-.5.06,1.1,1.1,0,0,1-.56-.12.67.67,0,0,1-.28-.32,2.64,2.64,0,0,1-.08-.83V37.86h-.49v-.55h.49v-1l.66-.42v1.45h.67v.55h-.67v2.43a1.29,1.29,0,0,0,0,.39.29.29,0,0,0,.12.14.43.43,0,0,0,.23.05Z"/><path d="M46.78,41.46V35.73h.67v2.05a1.46,1.46,0,0,1,1.18-.57,1.53,1.53,0,0,1,.76.18,1,1,0,0,1,.46.5,2.42,2.42,0,0,1,.14.93v2.63h-.67V38.83a1.12,1.12,0,0,0-.22-.77.78.78,0,0,0-.61-.24,1,1,0,0,0-.56.16.9.9,0,0,0-.37.44,2.11,2.11,0,0,0-.11.77v2.27Z"/><path d="M53.72,40.12l.69.09a1.79,1.79,0,0,1-.6,1,2,2,0,0,1-2.5-.21,2.27,2.27,0,0,1-.51-1.57,2.37,2.37,0,0,1,.51-1.62,1.69,1.69,0,0,1,1.33-.58,1.64,1.64,0,0,1,1.29.57,2.32,2.32,0,0,1,.5,1.59s0,.1,0,.19H51.49a1.64,1.64,0,0,0,.37,1,1.07,1.07,0,0,0,.82.36,1,1,0,0,0,.63-.2A1.36,1.36,0,0,0,53.72,40.12ZM51.53,39h2.2a1.45,1.45,0,0,0-.25-.79,1,1,0,0,0-.83-.41,1,1,0,0,0-.77.32A1.31,1.31,0,0,0,51.53,39Z"/><path d="M58.49,41.46,57,37.31h.71l.85,2.48c.09.27.18.55.25.84.06-.22.14-.48.25-.79l.88-2.53h.69l-1.49,4.15Z"/><path d="M63.9,40.12l.69.09a1.79,1.79,0,0,1-.6,1,2,2,0,0,1-2.5-.21A2.27,2.27,0,0,1,61,39.42a2.37,2.37,0,0,1,.51-1.62,1.69,1.69,0,0,1,1.33-.58,1.64,1.64,0,0,1,1.29.57,2.32,2.32,0,0,1,.5,1.59s0,.1,0,.19H61.67a1.64,1.64,0,0,0,.37,1,1.07,1.07,0,0,0,.82.36,1,1,0,0,0,.63-.2A1.36,1.36,0,0,0,63.9,40.12ZM61.71,39h2.2a1.45,1.45,0,0,0-.25-.79,1,1,0,0,0-.83-.41,1,1,0,0,0-.77.32A1.31,1.31,0,0,0,61.71,39Z"/><path d="M65.45,41.46V37.31H66v.59a1.4,1.4,0,0,1,1.25-.68,1.57,1.57,0,0,1,.65.13,1,1,0,0,1,.45.35,1.39,1.39,0,0,1,.21.52,4.27,4.27,0,0,1,0,.68v2.55H68V38.94a2,2,0,0,0-.08-.64.66.66,0,0,0-.28-.34.84.84,0,0,0-.47-.13,1,1,0,0,0-.74.29,1.45,1.45,0,0,0-.31,1.08v2.27Z"/><path d="M71.15,40.83l.1.62a2.4,2.4,0,0,1-.5.06,1.1,1.1,0,0,1-.56-.12.67.67,0,0,1-.28-.32,2.64,2.64,0,0,1-.08-.83V37.86h-.49v-.55h.49v-1l.66-.42v1.45h.67v.55h-.67v2.43a1.29,1.29,0,0,0,0,.39.29.29,0,0,0,.12.14.43.43,0,0,0,.23.05Z"/><path d="M73.94,41.46V35.73h.67v2.05a1.46,1.46,0,0,1,1.18-.57,1.53,1.53,0,0,1,.76.18,1,1,0,0,1,.46.5,2.42,2.42,0,0,1,.14.93v2.63h-.67V38.83a1.12,1.12,0,0,0-.22-.77.78.78,0,0,0-.61-.24,1,1,0,0,0-.56.16.9.9,0,0,0-.37.44,2.11,2.11,0,0,0-.11.77v2.27Z"/><path d="M77.94,39.38a2.2,2.2,0,0,1,.61-1.71,1.78,1.78,0,0,1,1.24-.46,1.72,1.72,0,0,1,1.33.56,2.2,2.2,0,0,1,.52,1.55,2.87,2.87,0,0,1-.23,1.26,1.67,1.67,0,0,1-.66.71,1.86,1.86,0,0,1-1,.25A1.73,1.73,0,0,1,78.45,41,2.31,2.31,0,0,1,77.94,39.38Zm.69,0A1.83,1.83,0,0,0,79,40.58a1.06,1.06,0,0,0,1.66,0,1.88,1.88,0,0,0,.33-1.21,1.77,1.77,0,0,0-.33-1.17,1.07,1.07,0,0,0-1.66,0A1.82,1.82,0,0,0,78.62,39.38Z"/><path d="M82.18,39.38a2.2,2.2,0,0,1,.61-1.71A1.78,1.78,0,0,1,84,37.22a1.72,1.72,0,0,1,1.33.56,2.2,2.2,0,0,1,.52,1.55,2.87,2.87,0,0,1-.23,1.26,1.67,1.67,0,0,1-.66.71,1.86,1.86,0,0,1-1,.25A1.73,1.73,0,0,1,82.69,41,2.31,2.31,0,0,1,82.18,39.38Zm.69,0a1.83,1.83,0,0,0,.33,1.19,1.06,1.06,0,0,0,1.66,0,1.88,1.88,0,0,0,.33-1.21,1.77,1.77,0,0,0-.33-1.17,1.07,1.07,0,0,0-1.66,0A1.82,1.82,0,0,0,82.87,39.38Z"/><path d="M89.23,41.46v-.52a1.21,1.21,0,0,1-1.1.62,1.49,1.49,0,0,1-.87-.27,1.78,1.78,0,0,1-.61-.76,2.76,2.76,0,0,1-.22-1.13,3.08,3.08,0,0,1,.2-1.13,1.62,1.62,0,0,1,.59-.78,1.52,1.52,0,0,1,.88-.27,1.26,1.26,0,0,1,.63.16,1.34,1.34,0,0,1,.45.41V35.73h.66v5.73Zm-2.11-2.07a1.87,1.87,0,0,0,.32,1.19,1,1,0,0,0,.75.39.93.93,0,0,0,.74-.38,1.8,1.8,0,0,0,.31-1.15,2,2,0,0,0-.31-1.25.94.94,0,0,0-.77-.4.91.91,0,0,0-.74.38A2,2,0,0,0,87.11,39.39Z"/><path d="M92.77,40.22l.66-.11a1,1,0,0,0,.31.64,1,1,0,0,0,.71.22,1,1,0,0,0,.68-.2.6.6,0,0,0,.22-.46.43.43,0,0,0-.2-.37,2.76,2.76,0,0,0-.68-.24,6.09,6.09,0,0,1-1-.34A1,1,0,0,1,93,39a1.09,1.09,0,0,1-.15-.56,1.13,1.13,0,0,1,.45-.91,1.33,1.33,0,0,1,.43-.21,1.9,1.9,0,0,1,.58-.08,2.18,2.18,0,0,1,.81.14,1.11,1.11,0,0,1,.52.38,1.53,1.53,0,0,1,.23.64l-.65.09A.76.76,0,0,0,95,38a.91.91,0,0,0-.6-.18,1,1,0,0,0-.66.16.47.47,0,0,0-.2.38.4.4,0,0,0,.08.25.6.6,0,0,0,.26.19l.59.18a7.88,7.88,0,0,1,1,.33,1,1,0,0,1,.44.37,1.07,1.07,0,0,1,.16.6,1.22,1.22,0,0,1-.19.66,1.28,1.28,0,0,1-.56.48,2,2,0,0,1-.83.17,1.79,1.79,0,0,1-1.17-.34A1.59,1.59,0,0,1,92.77,40.22Z"/><path d="M99.44,41.46v-.61a1.43,1.43,0,0,1-1.25.7,1.52,1.52,0,0,1-.65-.14,1.08,1.08,0,0,1-.45-.35,1.37,1.37,0,0,1-.21-.52,3.76,3.76,0,0,1,0-.66V37.31h.67v2.3a4.31,4.31,0,0,0,0,.74.74.74,0,0,0,.27.44.8.8,0,0,0,.5.16,1.06,1.06,0,0,0,.56-.16.89.89,0,0,0,.37-.44,2.33,2.33,0,0,0,.11-.81V37.31H100v4.15Z"/><path d="M101.1,43V37.31h.61v.54a1.53,1.53,0,0,1,.49-.47,1.28,1.28,0,0,1,.66-.16,1.5,1.5,0,0,1,.89.27,1.66,1.66,0,0,1,.58.77,2.94,2.94,0,0,1,.2,1.09,2.91,2.91,0,0,1-.22,1.15,1.71,1.71,0,0,1-.63.78,1.56,1.56,0,0,1-.87.27,1.21,1.21,0,0,1-.6-.15,1.4,1.4,0,0,1-.44-.37v2Zm.6-3.64a1.87,1.87,0,0,0,.31,1.18.93.93,0,0,0,.75.38,1,1,0,0,0,.76-.4,2,2,0,0,0,.32-1.23,1.9,1.9,0,0,0-.31-1.19.92.92,0,0,0-.74-.39,1,1,0,0,0-.76.42A2,2,0,0,0,101.7,39.41Z"/><path d="M105.34,43V37.31h.61v.54a1.53,1.53,0,0,1,.49-.47,1.28,1.28,0,0,1,.66-.16,1.5,1.5,0,0,1,.89.27,1.66,1.66,0,0,1,.58.77,2.94,2.94,0,0,1,.2,1.09,2.91,2.91,0,0,1-.22,1.15,1.71,1.71,0,0,1-.63.78,1.56,1.56,0,0,1-.87.27,1.21,1.21,0,0,1-.6-.15A1.4,1.4,0,0,1,106,41v2Zm.6-3.64a1.87,1.87,0,0,0,.31,1.18A.93.93,0,0,0,107,41a1,1,0,0,0,.76-.4,2,2,0,0,0,.32-1.23,1.9,1.9,0,0,0-.31-1.19.92.92,0,0,0-.74-.39,1,1,0,0,0-.76.42A2,2,0,0,0,105.94,39.41Z"/><path d="M109.56,41.46V35.73h.67v5.73Z"/><path d="M111.29,36.54v-.81H112v.81Zm0,4.92V37.31H112v4.15Z"/><path d="M115.68,40.12l.69.09a1.79,1.79,0,0,1-.6,1,2,2,0,0,1-2.5-.21,2.27,2.27,0,0,1-.51-1.57,2.37,2.37,0,0,1,.51-1.62,1.69,1.69,0,0,1,1.33-.58,1.64,1.64,0,0,1,1.29.57,2.32,2.32,0,0,1,.5,1.59s0,.1,0,.19h-2.94a1.64,1.64,0,0,0,.37,1,1.07,1.07,0,0,0,.82.36,1,1,0,0,0,.63-.2A1.36,1.36,0,0,0,115.68,40.12ZM113.49,39h2.2a1.45,1.45,0,0,0-.25-.79,1,1,0,0,0-.83-.41,1,1,0,0,0-.77.32A1.31,1.31,0,0,0,113.49,39Z"/><path d="M119.79,41.46v-.52a1.21,1.21,0,0,1-1.1.62,1.49,1.49,0,0,1-.87-.27,1.78,1.78,0,0,1-.61-.76,2.76,2.76,0,0,1-.22-1.13,3.08,3.08,0,0,1,.2-1.13,1.62,1.62,0,0,1,.59-.78,1.52,1.52,0,0,1,.88-.27,1.26,1.26,0,0,1,.63.16,1.34,1.34,0,0,1,.45.41V35.73h.66v5.73Zm-2.11-2.07a1.87,1.87,0,0,0,.32,1.19,1,1,0,0,0,.75.39.93.93,0,0,0,.74-.38,1.8,1.8,0,0,0,.31-1.15,2,2,0,0,0-.31-1.25.94.94,0,0,0-.77-.4.91.91,0,0,0-.74.38A2,2,0,0,0,117.67,39.39Z"/><path d="M124.32,41.46l-1.21-4.15h.69l.63,2.39.23.89.2-.86.63-2.43h.69l.59,2.41.2.79.23-.8.68-2.4h.65l-1.23,4.15h-.69L126,39l-.15-.71-.8,3.19Z"/><path d="M129.1,36.54v-.81h.67v.81Zm0,4.92V37.31h.67v4.15Z"/><path d="M132.26,40.83l.1.62a2.4,2.4,0,0,1-.5.06,1.1,1.1,0,0,1-.56-.12.67.67,0,0,1-.28-.32,2.64,2.64,0,0,1-.08-.83V37.86h-.49v-.55h.49v-1l.66-.42v1.45h.67v.55h-.67v2.43a1.29,1.29,0,0,0,0,.39.29.29,0,0,0,.12.14.43.43,0,0,0,.23.05Z"/><path d="M132.93,41.46V35.73h.67v2.05a1.46,1.46,0,0,1,1.18-.57,1.53,1.53,0,0,1,.76.18,1,1,0,0,1,.46.5,2.42,2.42,0,0,1,.14.93v2.63h-.67V38.83a1.12,1.12,0,0,0-.22-.77.78.78,0,0,0-.61-.24,1,1,0,0,0-.56.16.9.9,0,0,0-.37.44,2.11,2.11,0,0,0-.11.77v2.27Z"/><path d="M140.76,40.83l.1.62a2.4,2.4,0,0,1-.5.06,1.1,1.1,0,0,1-.56-.12.67.67,0,0,1-.28-.32,2.64,2.64,0,0,1-.08-.83V37.86h-.49v-.55h.49v-1l.66-.42v1.45h.67v.55h-.67v2.43a1.29,1.29,0,0,0,0,.39.29.29,0,0,0,.12.14.43.43,0,0,0,.23.05Z"/><path d="M141.43,41.46V35.73h.67v2.05a1.46,1.46,0,0,1,1.18-.57,1.53,1.53,0,0,1,.76.18,1,1,0,0,1,.46.5,2.42,2.42,0,0,1,.14.93v2.63H144V38.83a1.12,1.12,0,0,0-.22-.77.78.78,0,0,0-.61-.24,1,1,0,0,0-.56.16.9.9,0,0,0-.37.44,2.11,2.11,0,0,0-.11.77v2.27Z"/><path d="M145.67,36.54v-.81h.67v.81Zm0,4.92V37.31h.67v4.15Z"/><path d="M147.1,40.22l.66-.11a1,1,0,0,0,.31.64,1,1,0,0,0,.71.22,1,1,0,0,0,.68-.2.6.6,0,0,0,.22-.46.43.43,0,0,0-.2-.37,2.75,2.75,0,0,0-.68-.24,6.11,6.11,0,0,1-1-.34,1,1,0,0,1-.43-.39,1.09,1.09,0,0,1-.15-.56,1.13,1.13,0,0,1,.45-.91,1.33,1.33,0,0,1,.42-.21,1.91,1.91,0,0,1,.58-.08,2.18,2.18,0,0,1,.82.14,1.12,1.12,0,0,1,.52.38,1.53,1.53,0,0,1,.23.64l-.65.09a.76.76,0,0,0-.26-.5.91.91,0,0,0-.6-.18,1,1,0,0,0-.66.16.47.47,0,0,0-.2.38.4.4,0,0,0,.08.25.6.6,0,0,0,.26.19l.59.18a7.94,7.94,0,0,1,1,.33,1,1,0,0,1,.44.37,1.08,1.08,0,0,1,.16.6,1.23,1.23,0,0,1-.19.66,1.29,1.29,0,0,1-.56.48,2,2,0,0,1-.83.17,1.78,1.78,0,0,1-1.17-.34A1.59,1.59,0,0,1,147.1,40.22Z"/><path d="M153.32,41.46V35.73H154V39l1.58-1.69h.87l-1.51,1.54,1.66,2.61h-.82l-1.3-2.12-.47.48v1.64Z"/><path d="M157.13,36.54v-.81h.67v.81Zm0,4.92V37.31h.67v4.15Z"/><path d="M160.29,40.83l.1.62a2.41,2.41,0,0,1-.5.06,1.1,1.1,0,0,1-.56-.12.67.67,0,0,1-.28-.32,2.63,2.63,0,0,1-.08-.83V37.86h-.49v-.55H159v-1l.66-.42v1.45h.67v.55h-.67v2.43a1.29,1.29,0,0,0,0,.39.3.3,0,0,0,.12.14.44.44,0,0,0,.23.05Z"/><path d="M161.15,41.46v-.8h.76v.8Z"/><path d="M165.08,38.67a3.21,3.21,0,0,1,.73-2.23,2.41,2.41,0,0,1,1.88-.81A2.51,2.51,0,0,1,169,36a2.43,2.43,0,0,1,.92,1.06,3.59,3.59,0,0,1,.32,1.54,3.53,3.53,0,0,1-.33,1.56,2.36,2.36,0,0,1-.95,1,2.6,2.6,0,0,1-1.32.35,2.46,2.46,0,0,1-2.29-1.46A3.39,3.39,0,0,1,165.08,38.67Zm.74,0a2.38,2.38,0,0,0,.53,1.63,1.78,1.78,0,0,0,2.67,0,2.51,2.51,0,0,0,.53-1.71,3.07,3.07,0,0,0-.22-1.22,1.79,1.79,0,0,0-.66-.81,1.71,1.71,0,0,0-1-.29,1.79,1.79,0,0,0-1.31.55A2.55,2.55,0,0,0,165.82,38.68Z"/><path d="M171.14,41.46V37.31h.6v.59a1.4,1.4,0,0,1,1.25-.68,1.58,1.58,0,0,1,.66.13,1,1,0,0,1,.45.35,1.38,1.38,0,0,1,.21.52,4.15,4.15,0,0,1,0,.68v2.55h-.67V38.94a2,2,0,0,0-.08-.64.66.66,0,0,0-.28-.34.85.85,0,0,0-.47-.13,1.05,1.05,0,0,0-.74.29,1.45,1.45,0,0,0-.31,1.08v2.27Z"/><path d="M175.37,41.46V35.73H176v5.73Z"/><path d="M177.06,43.06,177,42.4a1.44,1.44,0,0,0,.38.06.71.71,0,0,0,.36-.08.64.64,0,0,0,.22-.22,3.71,3.71,0,0,0,.2-.52l.06-.17-1.5-4.16h.72l.82,2.4q.16.46.29,1,.11-.48.27-.95l.84-2.42h.67l-1.5,4.22a8.28,8.28,0,0,1-.37.94A1.37,1.37,0,0,1,178,43a.93.93,0,0,1-.55.16A1.29,1.29,0,0,1,177.06,43.06Z"/><path d="M182.76,40.22l.66-.11a1,1,0,0,0,.31.64,1,1,0,0,0,.71.22,1,1,0,0,0,.68-.2.6.6,0,0,0,.22-.46.43.43,0,0,0-.2-.37,2.78,2.78,0,0,0-.68-.24,6.07,6.07,0,0,1-1-.34A1,1,0,0,1,183,39a1.09,1.09,0,0,1-.15-.56,1.13,1.13,0,0,1,.45-.91,1.33,1.33,0,0,1,.43-.21,1.9,1.9,0,0,1,.58-.08,2.18,2.18,0,0,1,.81.14,1.11,1.11,0,0,1,.52.38,1.53,1.53,0,0,1,.23.64l-.65.09A.76.76,0,0,0,185,38a.91.91,0,0,0-.6-.18,1,1,0,0,0-.66.16.47.47,0,0,0-.2.38.41.41,0,0,0,.08.25.59.59,0,0,0,.26.19l.59.18a7.82,7.82,0,0,1,1,.33,1,1,0,0,1,.44.37,1.06,1.06,0,0,1,.16.6,1.22,1.22,0,0,1-.2.66,1.27,1.27,0,0,1-.56.48,2,2,0,0,1-.83.17,1.79,1.79,0,0,1-1.17-.34A1.59,1.59,0,0,1,182.76,40.22Z"/><path d="M189.43,41.46v-.61a1.43,1.43,0,0,1-1.25.7,1.52,1.52,0,0,1-.65-.14,1.09,1.09,0,0,1-.45-.35,1.38,1.38,0,0,1-.21-.52,3.77,3.77,0,0,1,0-.66V37.31h.67v2.3a4.33,4.33,0,0,0,0,.74.74.74,0,0,0,.27.44.8.8,0,0,0,.51.16,1.06,1.06,0,0,0,.56-.16.89.89,0,0,0,.37-.44,2.32,2.32,0,0,0,.11-.81V37.31H190v4.15Z"/><path d="M191.08,43V37.31h.61v.54a1.51,1.51,0,0,1,.49-.47,1.28,1.28,0,0,1,.66-.16,1.5,1.5,0,0,1,.89.27,1.66,1.66,0,0,1,.58.77,3.13,3.13,0,0,1,0,2.24,1.71,1.71,0,0,1-.63.78,1.56,1.56,0,0,1-.87.27,1.21,1.21,0,0,1-.6-.15,1.41,1.41,0,0,1-.44-.37v2Zm.61-3.64a1.87,1.87,0,0,0,.31,1.18.93.93,0,0,0,.75.38,1,1,0,0,0,.76-.4,2,2,0,0,0,.32-1.23,1.9,1.9,0,0,0-.31-1.19.92.92,0,0,0-.74-.39,1,1,0,0,0-.76.42A2,2,0,0,0,191.69,39.41Z"/><path d="M195.33,43V37.31h.61v.54a1.51,1.51,0,0,1,.49-.47,1.28,1.28,0,0,1,.66-.16,1.5,1.5,0,0,1,.89.27,1.66,1.66,0,0,1,.58.77,3.13,3.13,0,0,1,0,2.24,1.71,1.71,0,0,1-.63.78,1.56,1.56,0,0,1-.87.27,1.21,1.21,0,0,1-.6-.15A1.41,1.41,0,0,1,196,41v2Zm.61-3.64a1.87,1.87,0,0,0,.31,1.18A.93.93,0,0,0,197,41a1,1,0,0,0,.76-.4,2,2,0,0,0,.32-1.23,1.9,1.9,0,0,0-.31-1.19.92.92,0,0,0-.74-.39,1,1,0,0,0-.76.42A2,2,0,0,0,195.93,39.41Z"/><path d="M199.55,41.46V35.73h.67v5.73Z"/><path d="M201.28,36.54v-.81h.67v.81Zm0,4.92V37.31h.67v4.15Z"/><path d="M205.67,40.12l.69.09a1.79,1.79,0,0,1-.6,1,2,2,0,0,1-2.5-.21,2.26,2.26,0,0,1-.51-1.57,2.37,2.37,0,0,1,.51-1.62,1.69,1.69,0,0,1,1.33-.58,1.64,1.64,0,0,1,1.29.57,2.32,2.32,0,0,1,.5,1.59s0,.1,0,.19h-2.94a1.64,1.64,0,0,0,.37,1,1.07,1.07,0,0,0,.82.36,1,1,0,0,0,.63-.2A1.36,1.36,0,0,0,205.67,40.12ZM203.48,39h2.2a1.45,1.45,0,0,0-.25-.79,1,1,0,0,0-.83-.41,1,1,0,0,0-.77.32A1.31,1.31,0,0,0,203.48,39Z"/><path d="M209.77,41.46v-.52a1.21,1.21,0,0,1-1.1.62,1.5,1.5,0,0,1-.87-.27,1.79,1.79,0,0,1-.61-.76,2.77,2.77,0,0,1-.22-1.13,3.07,3.07,0,0,1,.2-1.13,1.61,1.61,0,0,1,.59-.78,1.52,1.52,0,0,1,.88-.27,1.27,1.27,0,0,1,.63.16,1.35,1.35,0,0,1,.45.41V35.73h.66v5.73Zm-2.11-2.07a1.87,1.87,0,0,0,.32,1.19,1,1,0,0,0,.75.39.93.93,0,0,0,.74-.38,1.8,1.8,0,0,0,.31-1.15,2,2,0,0,0-.31-1.25.94.94,0,0,0-.77-.4.91.91,0,0,0-.74.38A2,2,0,0,0,207.66,39.39Z"/><path d="M213.59,41.46V35.73h.67v2.05a1.46,1.46,0,0,1,1.18-.57,1.53,1.53,0,0,1,.76.18,1.05,1.05,0,0,1,.46.5,2.44,2.44,0,0,1,.14.93v2.63h-.67V38.83a1.13,1.13,0,0,0-.22-.77.79.79,0,0,0-.62-.24,1,1,0,0,0-.56.16.9.9,0,0,0-.37.44,2.11,2.11,0,0,0-.11.77v2.27Z"/><path d="M217.58,39.38a2.2,2.2,0,0,1,.61-1.71,1.77,1.77,0,0,1,1.24-.46,1.72,1.72,0,0,1,1.33.56,2.2,2.2,0,0,1,.52,1.55,2.87,2.87,0,0,1-.23,1.26,1.68,1.68,0,0,1-.66.71,1.87,1.87,0,0,1-1,.25,1.73,1.73,0,0,1-1.34-.56A2.31,2.31,0,0,1,217.58,39.38Zm.69,0a1.83,1.83,0,0,0,.33,1.19,1.06,1.06,0,0,0,1.66,0,1.87,1.87,0,0,0,.33-1.21,1.78,1.78,0,0,0-.33-1.17,1.06,1.06,0,0,0-1.66,0A1.82,1.82,0,0,0,218.27,39.38Z"/><path d="M221.82,39.38a2.2,2.2,0,0,1,.61-1.71,1.78,1.78,0,0,1,1.24-.46,1.72,1.72,0,0,1,1.33.56,2.2,2.2,0,0,1,.52,1.55,2.87,2.87,0,0,1-.23,1.26,1.67,1.67,0,0,1-.66.71,1.86,1.86,0,0,1-1,.25,1.73,1.73,0,0,1-1.34-.56A2.31,2.31,0,0,1,221.82,39.38Zm.69,0a1.83,1.83,0,0,0,.33,1.19,1,1,0,0,0,.83.4,1,1,0,0,0,.83-.4,1.87,1.87,0,0,0,.33-1.21,1.77,1.77,0,0,0-.33-1.17,1.06,1.06,0,0,0-1.66,0A1.82,1.82,0,0,0,222.51,39.38Z"/><path d="M228.87,41.46v-.52a1.21,1.21,0,0,1-1.1.62,1.5,1.5,0,0,1-.87-.27,1.78,1.78,0,0,1-.61-.76,2.77,2.77,0,0,1-.22-1.13,3.09,3.09,0,0,1,.2-1.13,1.62,1.62,0,0,1,.59-.78,1.52,1.52,0,0,1,.88-.27,1.26,1.26,0,0,1,.63.16,1.35,1.35,0,0,1,.45.41V35.73h.66v5.73Zm-2.11-2.07a1.87,1.87,0,0,0,.32,1.19,1,1,0,0,0,.75.39.93.93,0,0,0,.74-.38,1.81,1.81,0,0,0,.31-1.15,2,2,0,0,0-.31-1.25.94.94,0,0,0-.77-.4.91.91,0,0,0-.74.38A2,2,0,0,0,226.76,39.39Z"/><path d="M12.85,52V46.31h.63v.54a1.56,1.56,0,0,1,.5-.47,1.36,1.36,0,0,1,.68-.16,1.58,1.58,0,0,1,.92.27,1.67,1.67,0,0,1,.6.77,2.87,2.87,0,0,1,.2,1.09,2.82,2.82,0,0,1-.22,1.15,1.72,1.72,0,0,1-.65.78,1.65,1.65,0,0,1-.9.27A1.28,1.28,0,0,1,14,50.4a1.43,1.43,0,0,1-.45-.37v2Zm.62-3.64a1.83,1.83,0,0,0,.32,1.18,1,1,0,0,0,.77.38,1,1,0,0,0,.79-.4,1.91,1.91,0,0,0,.33-1.23,1.86,1.86,0,0,0-.32-1.19,1,1,0,0,0-.76-.39,1,1,0,0,0-.78.42A1.91,1.91,0,0,0,13.48,48.41Z"/><path d="M17.26,50.46V46.31h.62v.63a1.71,1.71,0,0,1,.44-.58.76.76,0,0,1,.44-.14,1.32,1.32,0,0,1,.71.23l-.24.65a1,1,0,0,0-.51-.15.65.65,0,0,0-.41.14.75.75,0,0,0-.26.38,2.79,2.79,0,0,0-.11.82v2.17Z"/><path d="M19.68,48.38a2.16,2.16,0,0,1,.63-1.71,1.87,1.87,0,0,1,1.28-.46,1.8,1.8,0,0,1,1.37.56,2.16,2.16,0,0,1,.53,1.55,2.8,2.8,0,0,1-.24,1.26,1.69,1.69,0,0,1-.69.71,2,2,0,0,1-1,.25A1.81,1.81,0,0,1,20.2,50,2.26,2.26,0,0,1,19.68,48.38Zm.71,0a1.79,1.79,0,0,0,.34,1.19,1.12,1.12,0,0,0,1.71,0,1.84,1.84,0,0,0,.34-1.21,1.73,1.73,0,0,0-.34-1.17,1.12,1.12,0,0,0-1.71,0A1.78,1.78,0,0,0,20.38,48.38Z"/><path d="M25.48,50.46l-1.55-4.15h.73l.87,2.48c.09.27.18.55.26.84.06-.22.15-.48.26-.79l.9-2.53h.71l-1.54,4.15Z"/><path d="M28.33,45.54v-.81H29v.81Zm0,4.92V46.31H29v4.15Z"/><path d="M32.76,50.46v-.52a1.26,1.26,0,0,1-1.14.62,1.58,1.58,0,0,1-.89-.27,1.8,1.8,0,0,1-.63-.76,2.69,2.69,0,0,1-.22-1.13,3,3,0,0,1,.2-1.13,1.62,1.62,0,0,1,.61-.78,1.6,1.6,0,0,1,.91-.27,1.33,1.33,0,0,1,.65.16,1.37,1.37,0,0,1,.47.41V44.73h.69v5.73Zm-2.18-2.07a1.83,1.83,0,0,0,.33,1.19,1,1,0,0,0,.78.39,1,1,0,0,0,.77-.38,1.76,1.76,0,0,0,.32-1.15,2,2,0,0,0-.32-1.25,1,1,0,0,0-.79-.4,1,1,0,0,0-.77.38A1.92,1.92,0,0,0,30.58,48.39Z"/><path d="M37.32,49.12l.71.09a1.78,1.78,0,0,1-.62,1A2.08,2.08,0,0,1,34.83,50a2.22,2.22,0,0,1-.52-1.57,2.32,2.32,0,0,1,.53-1.62,1.77,1.77,0,0,1,1.37-.58,1.72,1.72,0,0,1,1.33.57,2.28,2.28,0,0,1,.52,1.59s0,.1,0,.19H35a1.61,1.61,0,0,0,.38,1,1.12,1.12,0,0,0,.85.36,1,1,0,0,0,.65-.2A1.35,1.35,0,0,0,37.32,49.12ZM35.06,48h2.27a1.42,1.42,0,0,0-.26-.79,1,1,0,0,0-.85-.41,1.08,1.08,0,0,0-.8.32A1.29,1.29,0,0,0,35.06,48Z"/><path d="M38.67,49.22l.68-.11a1,1,0,0,0,.32.64,1.1,1.1,0,0,0,.73.22,1.07,1.07,0,0,0,.7-.2.59.59,0,0,0,.23-.46.43.43,0,0,0-.2-.37,2.92,2.92,0,0,0-.7-.24,6.43,6.43,0,0,1-1.05-.34,1,1,0,0,1-.44-.39,1.06,1.06,0,0,1-.15-.56,1.08,1.08,0,0,1,.12-.51,1.12,1.12,0,0,1,.34-.39,1.39,1.39,0,0,1,.44-.21,2,2,0,0,1,.6-.08,2.31,2.31,0,0,1,.84.14,1.14,1.14,0,0,1,.53.38,1.51,1.51,0,0,1,.24.64l-.67.09A.75.75,0,0,0,41,47a1,1,0,0,0-.62-.18,1.1,1.1,0,0,0-.68.16.47.47,0,0,0-.2.38.39.39,0,0,0,.08.25.61.61,0,0,0,.26.19l.61.18a8.29,8.29,0,0,1,1,.33,1,1,0,0,1,.45.37,1,1,0,0,1,.16.6,1.2,1.2,0,0,1-.2.66,1.3,1.3,0,0,1-.58.48,2.07,2.07,0,0,1-.86.17,1.88,1.88,0,0,1-1.21-.34A1.57,1.57,0,0,1,38.67,49.22Z"/><path d="M45.15,50.46V46.31h.62v.63a1.71,1.71,0,0,1,.44-.58.76.76,0,0,1,.44-.14,1.32,1.32,0,0,1,.71.23l-.24.65a1,1,0,0,0-.51-.15.65.65,0,0,0-.41.14.75.75,0,0,0-.26.38,2.79,2.79,0,0,0-.11.82v2.17Z"/><path d="M50.61,49.12l.71.09a1.78,1.78,0,0,1-.62,1A2.08,2.08,0,0,1,48.12,50a2.22,2.22,0,0,1-.52-1.57,2.32,2.32,0,0,1,.53-1.62,1.77,1.77,0,0,1,1.37-.58,1.72,1.72,0,0,1,1.33.57,2.28,2.28,0,0,1,.52,1.59s0,.1,0,.19h-3a1.61,1.61,0,0,0,.38,1,1.12,1.12,0,0,0,.85.36,1,1,0,0,0,.65-.2A1.35,1.35,0,0,0,50.61,49.12ZM48.34,48h2.27a1.42,1.42,0,0,0-.26-.79,1,1,0,0,0-.85-.41,1.08,1.08,0,0,0-.8.32A1.29,1.29,0,0,0,48.34,48Z"/><path d="M54.83,52V50a1.24,1.24,0,0,1-.45.38,1.3,1.3,0,0,1-.61.15A1.61,1.61,0,0,1,52.52,50,2.35,2.35,0,0,1,52,48.35a2.82,2.82,0,0,1,.21-1.12,1.6,1.6,0,0,1,.62-.75,1.62,1.62,0,0,1,.89-.26,1.35,1.35,0,0,1,1.19.65v-.55h.62V52Zm-2.12-3.68a1.86,1.86,0,0,0,.33,1.2,1,1,0,0,0,.79.4,1,1,0,0,0,.76-.38,1.78,1.78,0,0,0,.32-1.16,2,2,0,0,0-.33-1.25,1,1,0,0,0-.79-.42.94.94,0,0,0-.76.39A1.93,1.93,0,0,0,52.71,48.37Z"/><path d="M59.32,50.46v-.61a1.48,1.48,0,0,1-1.29.7,1.62,1.62,0,0,1-.67-.14,1.11,1.11,0,0,1-.46-.35,1.35,1.35,0,0,1-.21-.52,3.68,3.68,0,0,1,0-.66V46.31h.69v2.3a4.21,4.21,0,0,0,0,.74.74.74,0,0,0,.28.44.84.84,0,0,0,.52.16,1.12,1.12,0,0,0,.58-.16.9.9,0,0,0,.38-.44,2.26,2.26,0,0,0,.11-.81V46.31h.69v4.15Z"/><path d="M61.07,45.54v-.81h.69v.81Zm0,4.92V46.31h.69v4.15Z"/><path d="M62.86,50.46V46.31h.62v.63a1.71,1.71,0,0,1,.44-.58.76.76,0,0,1,.44-.14,1.32,1.32,0,0,1,.71.23l-.24.65a1,1,0,0,0-.51-.15.65.65,0,0,0-.41.14.75.75,0,0,0-.26.38,2.79,2.79,0,0,0-.11.82v2.17Z"/><path d="M68.31,49.12l.71.09a1.78,1.78,0,0,1-.62,1A2.08,2.08,0,0,1,65.82,50a2.22,2.22,0,0,1-.52-1.57,2.32,2.32,0,0,1,.53-1.62,1.77,1.77,0,0,1,1.37-.58,1.72,1.72,0,0,1,1.33.57A2.28,2.28,0,0,1,69,48.38s0,.1,0,.19H66a1.61,1.61,0,0,0,.38,1,1.12,1.12,0,0,0,.85.36,1,1,0,0,0,.65-.2A1.35,1.35,0,0,0,68.31,49.12ZM66.05,48h2.27a1.42,1.42,0,0,0-.26-.79,1,1,0,0,0-.85-.41,1.08,1.08,0,0,0-.8.32A1.29,1.29,0,0,0,66.05,48Z"/><path d="M72.58,50.46v-.52a1.26,1.26,0,0,1-1.14.62,1.58,1.58,0,0,1-.89-.27,1.8,1.8,0,0,1-.63-.76,2.69,2.69,0,0,1-.22-1.13,3,3,0,0,1,.2-1.13,1.62,1.62,0,0,1,.61-.78,1.6,1.6,0,0,1,.91-.27,1.33,1.33,0,0,1,.65.16,1.37,1.37,0,0,1,.47.41V44.73h.69v5.73Zm-2.18-2.07a1.83,1.83,0,0,0,.33,1.19,1,1,0,0,0,.78.39,1,1,0,0,0,.77-.38,1.76,1.76,0,0,0,.32-1.15,2,2,0,0,0-.32-1.25,1,1,0,0,0-.79-.4,1,1,0,0,0-.77.38A1.92,1.92,0,0,0,70.41,48.39Z"/><path d="M79.25,48.94l.68.09a1.8,1.8,0,0,1-.57,1.12,1.64,1.64,0,0,1-1.12.4A1.73,1.73,0,0,1,76.89,50a2.29,2.29,0,0,1-.51-1.6,2.94,2.94,0,0,1,.22-1.18,1.54,1.54,0,0,1,.66-.76,1.94,1.94,0,0,1,1-.25,1.66,1.66,0,0,1,1.08.34,1.57,1.57,0,0,1,.54,1l-.67.11a1.14,1.14,0,0,0-.34-.63.87.87,0,0,0-.59-.21,1.06,1.06,0,0,0-.85.38,1.83,1.83,0,0,0-.33,1.21,1.9,1.9,0,0,0,.31,1.21,1,1,0,0,0,.82.38,1,1,0,0,0,.68-.25A1.28,1.28,0,0,0,79.25,48.94Z"/><path d="M80.55,50.46V44.73h.69v5.73Z"/><path d="M85.15,49.12l.71.09a1.78,1.78,0,0,1-.62,1A2.08,2.08,0,0,1,82.66,50a2.22,2.22,0,0,1-.52-1.57,2.32,2.32,0,0,1,.53-1.62A1.77,1.77,0,0,1,84,46.22a1.72,1.72,0,0,1,1.33.57,2.28,2.28,0,0,1,.52,1.59s0,.1,0,.19h-3a1.61,1.61,0,0,0,.38,1,1.12,1.12,0,0,0,.85.36,1,1,0,0,0,.65-.2A1.35,1.35,0,0,0,85.15,49.12ZM82.89,48h2.27a1.42,1.42,0,0,0-.26-.79,1,1,0,0,0-.85-.41,1.08,1.08,0,0,0-.8.32A1.29,1.29,0,0,0,82.89,48Z"/><path d="M89.43,49.95a2.59,2.59,0,0,1-.74.47,2.1,2.1,0,0,1-.76.14,1.46,1.46,0,0,1-1-.33,1.11,1.11,0,0,1-.36-.85,1.16,1.16,0,0,1,.14-.56,1.14,1.14,0,0,1,.36-.4,1.65,1.65,0,0,1,.5-.23,4.61,4.61,0,0,1,.61-.11,6.23,6.23,0,0,0,1.23-.24c0-.1,0-.16,0-.18a.79.79,0,0,0-.2-.61,1.14,1.14,0,0,0-.78-.24,1.2,1.2,0,0,0-.72.17,1.06,1.06,0,0,0-.34.62l-.67-.09a1.72,1.72,0,0,1,.3-.71,1.32,1.32,0,0,1,.61-.42,2.67,2.67,0,0,1,.92-.15,2.38,2.38,0,0,1,.85.13,1,1,0,0,1,.69.79,4,4,0,0,1,0,.65v.94a10.18,10.18,0,0,0,0,1.24,1.59,1.59,0,0,0,.17.5h-.72A1.5,1.5,0,0,1,89.43,49.95Zm-.06-1.57a5,5,0,0,1-1.13.27,2.49,2.49,0,0,0-.6.14.6.6,0,0,0-.27.23.63.63,0,0,0,.11.8.88.88,0,0,0,.61.19,1.4,1.4,0,0,0,.71-.18,1.09,1.09,0,0,0,.46-.49,1.74,1.74,0,0,0,.11-.7Z"/><path d="M91.19,50.46V46.31h.62v.63a1.71,1.71,0,0,1,.44-.58.76.76,0,0,1,.44-.14,1.32,1.32,0,0,1,.71.23l-.24.65a1,1,0,0,0-.51-.15.65.65,0,0,0-.41.14.75.75,0,0,0-.26.38,2.79,2.79,0,0,0-.11.82v2.17Z"/><path d="M96.52,49.95a2.59,2.59,0,0,1-.74.47,2.1,2.1,0,0,1-.76.14,1.46,1.46,0,0,1-1-.33,1.11,1.11,0,0,1-.36-.85,1.16,1.16,0,0,1,.14-.56,1.14,1.14,0,0,1,.36-.4,1.65,1.65,0,0,1,.5-.23,4.61,4.61,0,0,1,.61-.11,6.23,6.23,0,0,0,1.23-.24c0-.1,0-.16,0-.18a.79.79,0,0,0-.2-.61,1.14,1.14,0,0,0-.78-.24,1.2,1.2,0,0,0-.72.17,1.06,1.06,0,0,0-.34.62l-.67-.09a1.72,1.72,0,0,1,.3-.71,1.32,1.32,0,0,1,.61-.42,2.67,2.67,0,0,1,.92-.15,2.38,2.38,0,0,1,.85.13,1,1,0,0,1,.69.79,4,4,0,0,1,0,.65v.94a10.18,10.18,0,0,0,0,1.24,1.59,1.59,0,0,0,.17.5h-.72A1.5,1.5,0,0,1,96.52,49.95Zm-.06-1.57a5,5,0,0,1-1.13.27,2.49,2.49,0,0,0-.6.14.6.6,0,0,0-.27.23.63.63,0,0,0,.11.8.88.88,0,0,0,.61.19,1.4,1.4,0,0,0,.71-.18,1.09,1.09,0,0,0,.46-.49,1.74,1.74,0,0,0,.11-.7Z"/><path d="M98.28,50.46V46.31h.62v.59a1.45,1.45,0,0,1,1.29-.68,1.67,1.67,0,0,1,.68.13,1.06,1.06,0,0,1,.46.35,1.37,1.37,0,0,1,.21.52,4.12,4.12,0,0,1,0,.68v2.55h-.69V47.94a1.92,1.92,0,0,0-.08-.64.66.66,0,0,0-.29-.34.89.89,0,0,0-.48-.13,1.1,1.1,0,0,0-.76.29A1.43,1.43,0,0,0,99,48.19v2.27Z"/><path d="M105.35,48.94,106,49a1.8,1.8,0,0,1-.57,1.12,1.64,1.64,0,0,1-1.12.4A1.73,1.73,0,0,1,103,50a2.29,2.29,0,0,1-.51-1.6,2.94,2.94,0,0,1,.22-1.18,1.54,1.54,0,0,1,.66-.76,1.94,1.94,0,0,1,1-.25,1.66,1.66,0,0,1,1.08.34,1.57,1.57,0,0,1,.54,1l-.67.11a1.14,1.14,0,0,0-.34-.63.87.87,0,0,0-.59-.21,1.06,1.06,0,0,0-.85.38,1.83,1.83,0,0,0-.33,1.21,1.9,1.9,0,0,0,.31,1.21,1,1,0,0,0,.82.38,1,1,0,0,0,.68-.25A1.28,1.28,0,0,0,105.35,48.94Z"/><path d="M109.45,49.12l.71.09a1.78,1.78,0,0,1-.62,1A2.08,2.08,0,0,1,107,50a2.22,2.22,0,0,1-.52-1.57,2.32,2.32,0,0,1,.53-1.62,1.77,1.77,0,0,1,1.37-.58,1.72,1.72,0,0,1,1.33.57,2.28,2.28,0,0,1,.52,1.59s0,.1,0,.19h-3a1.61,1.61,0,0,0,.38,1,1.12,1.12,0,0,0,.85.36,1,1,0,0,0,.65-.2A1.35,1.35,0,0,0,109.45,49.12ZM107.19,48h2.27a1.42,1.42,0,0,0-.26-.79,1,1,0,0,0-.85-.41,1.08,1.08,0,0,0-.8.32A1.29,1.29,0,0,0,107.19,48Z"/><path d="M110.81,49.22l.68-.11a1,1,0,0,0,.32.64,1.1,1.1,0,0,0,.73.22,1.07,1.07,0,0,0,.7-.2.59.59,0,0,0,.23-.46.43.43,0,0,0-.2-.37,2.92,2.92,0,0,0-.7-.24,6.43,6.43,0,0,1-1.05-.34,1,1,0,0,1-.44-.39,1.06,1.06,0,0,1-.15-.56,1.08,1.08,0,0,1,.12-.51,1.12,1.12,0,0,1,.34-.39,1.39,1.39,0,0,1,.44-.21,2,2,0,0,1,.6-.08,2.31,2.31,0,0,1,.84.14,1.14,1.14,0,0,1,.53.38,1.51,1.51,0,0,1,.24.64l-.67.09a.75.75,0,0,0-.27-.5,1,1,0,0,0-.62-.18,1.1,1.1,0,0,0-.68.16.47.47,0,0,0-.2.38.39.39,0,0,0,.08.25.61.61,0,0,0,.26.19l.61.18a8.29,8.29,0,0,1,1,.33,1,1,0,0,1,.45.37,1,1,0,0,1,.16.6,1.2,1.2,0,0,1-.2.66,1.3,1.3,0,0,1-.58.48,2.07,2.07,0,0,1-.86.17,1.88,1.88,0,0,1-1.21-.34A1.57,1.57,0,0,1,110.81,49.22Z"/><path d="M117.46,50.46v-3.6h-.61v-.55h.61v-.44a2,2,0,0,1,.07-.62.89.89,0,0,1,.35-.44,1.24,1.24,0,0,1,.7-.17,3.31,3.31,0,0,1,.64.07l-.1.61a2.24,2.24,0,0,0-.41,0,.59.59,0,0,0-.44.14.75.75,0,0,0-.13.51v.38h.79v.55h-.79v3.6Z"/><path d="M119.52,50.46V46.31h.62v.63a1.71,1.71,0,0,1,.44-.58.76.76,0,0,1,.44-.14,1.32,1.32,0,0,1,.71.23l-.24.65a1,1,0,0,0-.51-.15.65.65,0,0,0-.41.14.75.75,0,0,0-.26.38,2.79,2.79,0,0,0-.11.82v2.17Z"/><path d="M121.93,48.38a2.16,2.16,0,0,1,.63-1.71,1.87,1.87,0,0,1,1.28-.46,1.8,1.8,0,0,1,1.37.56,2.16,2.16,0,0,1,.53,1.55,2.8,2.8,0,0,1-.24,1.26,1.69,1.69,0,0,1-.69.71,2,2,0,0,1-1,.25,1.81,1.81,0,0,1-1.38-.56A2.26,2.26,0,0,1,121.93,48.38Zm.71,0a1.79,1.79,0,0,0,.34,1.19,1.12,1.12,0,0,0,1.71,0,1.84,1.84,0,0,0,.34-1.21,1.73,1.73,0,0,0-.34-1.17,1.12,1.12,0,0,0-1.71,0A1.78,1.78,0,0,0,122.64,48.38Z"/><path d="M126.6,50.46V46.31h.62v.58a1.45,1.45,0,0,1,.51-.49,1.41,1.41,0,0,1,.72-.19,1.31,1.31,0,0,1,.74.19,1,1,0,0,1,.41.54,1.45,1.45,0,0,1,1.26-.73,1.22,1.22,0,0,1,.93.34,1.48,1.48,0,0,1,.33,1.05v2.85h-.69V47.85a2,2,0,0,0-.07-.61.59.59,0,0,0-.24-.3.74.74,0,0,0-.41-.11,1,1,0,0,0-.71.29,1.3,1.3,0,0,0-.28.93v2.41H129v-2.7a1.2,1.2,0,0,0-.17-.7.63.63,0,0,0-.55-.23,1,1,0,0,0-.54.16.88.88,0,0,0-.36.46,2.61,2.61,0,0,0-.11.87v2.15Z"/><path d="M138.08,48.94l.68.09a1.8,1.8,0,0,1-.57,1.12,1.64,1.64,0,0,1-1.12.4,1.73,1.73,0,0,1-1.34-.56,2.29,2.29,0,0,1-.51-1.6,2.94,2.94,0,0,1,.22-1.18,1.54,1.54,0,0,1,.66-.76,1.94,1.94,0,0,1,1-.25,1.66,1.66,0,0,1,1.08.34,1.57,1.57,0,0,1,.54,1l-.67.11a1.14,1.14,0,0,0-.34-.63.87.87,0,0,0-.59-.21,1.06,1.06,0,0,0-.85.38,1.83,1.83,0,0,0-.33,1.21,1.9,1.9,0,0,0,.31,1.21,1,1,0,0,0,.82.38,1,1,0,0,0,.68-.25A1.28,1.28,0,0,0,138.08,48.94Z"/><path d="M139.14,48.38a2.16,2.16,0,0,1,.63-1.71,1.87,1.87,0,0,1,1.28-.46,1.8,1.8,0,0,1,1.37.56,2.16,2.16,0,0,1,.53,1.55,2.8,2.8,0,0,1-.24,1.26,1.69,1.69,0,0,1-.69.71,2,2,0,0,1-1,.25,1.81,1.81,0,0,1-1.38-.56A2.26,2.26,0,0,1,139.14,48.38Zm.71,0a1.79,1.79,0,0,0,.34,1.19,1.12,1.12,0,0,0,1.71,0,1.84,1.84,0,0,0,.34-1.21,1.73,1.73,0,0,0-.34-1.17,1.12,1.12,0,0,0-1.71,0A1.78,1.78,0,0,0,139.85,48.38Z"/><path d="M143.81,50.46V46.31h.62v.58a1.45,1.45,0,0,1,.51-.49,1.41,1.41,0,0,1,.72-.19,1.31,1.31,0,0,1,.74.19,1,1,0,0,1,.41.54,1.45,1.45,0,0,1,1.26-.73,1.22,1.22,0,0,1,.93.34,1.48,1.48,0,0,1,.33,1.05v2.85h-.68V47.85a2,2,0,0,0-.07-.61.59.59,0,0,0-.24-.3.74.74,0,0,0-.41-.11,1,1,0,0,0-.71.29,1.3,1.3,0,0,0-.28.93v2.41h-.69v-2.7a1.2,1.2,0,0,0-.17-.7.63.63,0,0,0-.55-.23A1,1,0,0,0,145,47a.88.88,0,0,0-.36.46,2.61,2.61,0,0,0-.11.87v2.15Z"/><path d="M151,50.46h-.64V44.73h.69v2a1.35,1.35,0,0,1,1.11-.56,1.68,1.68,0,0,1,.71.15,1.45,1.45,0,0,1,.55.43,2.08,2.08,0,0,1,.34.67,2.82,2.82,0,0,1,.12.84A2.4,2.4,0,0,1,153.4,50a1.61,1.61,0,0,1-1.24.58,1.29,1.29,0,0,1-1.13-.61Zm0-2.11a2.19,2.19,0,0,0,.2,1.08,1,1,0,0,0,1.66.14,1.85,1.85,0,0,0,.33-1.19,1.88,1.88,0,0,0-.32-1.2,1,1,0,0,0-.76-.39,1,1,0,0,0-.78.4A1.78,1.78,0,0,0,151,48.35Z"/><path d="M157.48,50.46v-.61a1.48,1.48,0,0,1-1.29.7,1.61,1.61,0,0,1-.67-.14,1.11,1.11,0,0,1-.46-.35,1.34,1.34,0,0,1-.21-.52,3.72,3.72,0,0,1,0-.66V46.31h.69v2.3a4.13,4.13,0,0,0,0,.74.73.73,0,0,0,.28.44.84.84,0,0,0,.52.16,1.12,1.12,0,0,0,.58-.16.9.9,0,0,0,.38-.44,2.26,2.26,0,0,0,.11-.81V46.31h.69v4.15Z"/><path d="M159,49.22l.68-.11a1,1,0,0,0,.32.64,1.1,1.1,0,0,0,.73.22,1.06,1.06,0,0,0,.7-.2.59.59,0,0,0,.23-.46.43.43,0,0,0-.2-.37,2.92,2.92,0,0,0-.71-.24,6.45,6.45,0,0,1-1.05-.34,1,1,0,0,1-.44-.39,1.05,1.05,0,0,1-.15-.56,1.09,1.09,0,0,1,.12-.51,1.13,1.13,0,0,1,.34-.39,1.37,1.37,0,0,1,.44-.21,2,2,0,0,1,.6-.08,2.31,2.31,0,0,1,.84.14,1.14,1.14,0,0,1,.53.38,1.51,1.51,0,0,1,.24.64l-.67.09a.75.75,0,0,0-.27-.5,1,1,0,0,0-.62-.18,1.1,1.1,0,0,0-.68.16.47.47,0,0,0-.2.38.39.39,0,0,0,.08.25.61.61,0,0,0,.26.19l.61.18a8.35,8.35,0,0,1,1,.33,1,1,0,0,1,.45.37,1,1,0,0,1,.17.6,1.2,1.2,0,0,1-.2.66,1.3,1.3,0,0,1-.58.48,2.07,2.07,0,0,1-.86.17,1.89,1.89,0,0,1-1.21-.34A1.57,1.57,0,0,1,159,49.22Z"/><path d="M164.71,49.83l.1.62a2.54,2.54,0,0,1-.52.06,1.17,1.17,0,0,1-.58-.12.68.68,0,0,1-.29-.32,2.56,2.56,0,0,1-.08-.83V46.86h-.51v-.55h.51v-1l.68-.42v1.45h.69v.55H164v2.43a1.28,1.28,0,0,0,0,.39.3.3,0,0,0,.12.14.46.46,0,0,0,.24.05Z"/><path d="M165.44,45.54v-.81h.69v.81Zm0,4.92V46.31h.69v4.15Z"/><path d="M167.87,50.46h-.64V44.73h.69v2a1.35,1.35,0,0,1,1.11-.56,1.67,1.67,0,0,1,.71.15,1.44,1.44,0,0,1,.55.43,2.1,2.1,0,0,1,.34.67,2.82,2.82,0,0,1,.12.84,2.41,2.41,0,0,1-.52,1.65,1.6,1.6,0,0,1-1.24.58,1.29,1.29,0,0,1-1.13-.61Zm0-2.11a2.19,2.19,0,0,0,.2,1.08,1,1,0,0,0,1.66.14,1.84,1.84,0,0,0,.33-1.19,1.88,1.88,0,0,0-.32-1.2,1,1,0,0,0-.76-.39,1,1,0,0,0-.78.4A1.79,1.79,0,0,0,167.86,48.35Z"/><path d="M171.63,50.46V44.73h.69v5.73Z"/><path d="M176.23,49.12l.71.09a1.78,1.78,0,0,1-.62,1,2.08,2.08,0,0,1-2.58-.21,2.22,2.22,0,0,1-.52-1.57,2.32,2.32,0,0,1,.53-1.62,1.77,1.77,0,0,1,1.37-.58,1.72,1.72,0,0,1,1.33.57,2.28,2.28,0,0,1,.52,1.59s0,.1,0,.19h-3a1.61,1.61,0,0,0,.38,1,1.12,1.12,0,0,0,.85.36,1,1,0,0,0,.65-.2A1.35,1.35,0,0,0,176.23,49.12ZM174,48h2.27a1.43,1.43,0,0,0-.26-.79,1,1,0,0,0-.85-.41,1.08,1.08,0,0,0-.8.32A1.29,1.29,0,0,0,174,48Z"/><path d="M177.58,49.22l.68-.11a1,1,0,0,0,.32.64,1.1,1.1,0,0,0,.73.22,1.07,1.07,0,0,0,.71-.2.6.6,0,0,0,.23-.46.43.43,0,0,0-.2-.37,2.92,2.92,0,0,0-.7-.24,6.42,6.42,0,0,1-1.05-.34,1,1,0,0,1-.44-.39,1.11,1.11,0,0,1,0-1.07,1.11,1.11,0,0,1,.34-.39,1.4,1.4,0,0,1,.44-.21,2,2,0,0,1,.6-.08,2.31,2.31,0,0,1,.84.14,1.15,1.15,0,0,1,.53.38,1.51,1.51,0,0,1,.24.64l-.67.09a.75.75,0,0,0-.27-.5,1,1,0,0,0-.62-.18,1.1,1.1,0,0,0-.68.16.47.47,0,0,0-.2.38.4.4,0,0,0,.08.25.62.62,0,0,0,.26.19l.61.18a8.24,8.24,0,0,1,1,.33,1,1,0,0,1,.62,1,1.19,1.19,0,0,1-.2.66,1.3,1.3,0,0,1-.58.48,2.07,2.07,0,0,1-.86.17,1.88,1.88,0,0,1-1.21-.34A1.58,1.58,0,0,1,177.58,49.22Z"/><path d="M182,50.46v-.8h.78v.8a1.45,1.45,0,0,1-.15.71,1,1,0,0,1-.49.42l-.19-.3a.66.66,0,0,0,.32-.29,1.24,1.24,0,0,0,.12-.54Z"/><path d="M186.94,50.46h-.64V44.73H187v2a1.35,1.35,0,0,1,1.11-.56,1.67,1.67,0,0,1,.71.15,1.45,1.45,0,0,1,.55.43,2.08,2.08,0,0,1,.34.67,2.82,2.82,0,0,1,.12.84,2.41,2.41,0,0,1-.52,1.65,1.61,1.61,0,0,1-1.24.58,1.29,1.29,0,0,1-1.13-.61Zm0-2.11a2.19,2.19,0,0,0,.2,1.08,1,1,0,0,0,1.66.14,1.85,1.85,0,0,0,.33-1.19,1.88,1.88,0,0,0-.32-1.2,1,1,0,0,0-.76-.39,1,1,0,0,0-.78.4A1.79,1.79,0,0,0,186.93,48.35Z"/><path d="M190.46,48.38a2.16,2.16,0,0,1,.63-1.71,1.87,1.87,0,0,1,1.28-.46,1.8,1.8,0,0,1,1.37.56,2.15,2.15,0,0,1,.53,1.55,2.81,2.81,0,0,1-.24,1.26,1.69,1.69,0,0,1-.69.71,2,2,0,0,1-1,.25A1.81,1.81,0,0,1,191,50,2.26,2.26,0,0,1,190.46,48.38Zm.71,0a1.8,1.8,0,0,0,.34,1.19,1.12,1.12,0,0,0,1.71,0,1.83,1.83,0,0,0,.34-1.21,1.73,1.73,0,0,0-.34-1.17,1.12,1.12,0,0,0-1.71,0A1.79,1.79,0,0,0,191.17,48.38Z"/><path d="M196.64,49.83l.1.62a2.54,2.54,0,0,1-.52.06,1.17,1.17,0,0,1-.58-.12.68.68,0,0,1-.29-.32,2.56,2.56,0,0,1-.08-.83V46.86h-.51v-.55h.51v-1l.68-.42v1.45h.69v.55h-.69v2.43a1.28,1.28,0,0,0,0,.39.3.3,0,0,0,.12.14.46.46,0,0,0,.24.05Z"/><path d="M197.36,50.46V44.73h.69v2.05a1.53,1.53,0,0,1,1.22-.57,1.61,1.61,0,0,1,.78.18,1.06,1.06,0,0,1,.48.5,2.35,2.35,0,0,1,.14.93v2.63H200V47.83a1.1,1.1,0,0,0-.22-.77.82.82,0,0,0-.63-.24,1.1,1.1,0,0,0-.58.16.91.91,0,0,0-.38.44,2.06,2.06,0,0,0-.11.77v2.27Z"/><path d="M205.52,49.83l.1.62a2.55,2.55,0,0,1-.52.06,1.17,1.17,0,0,1-.58-.12.68.68,0,0,1-.29-.32,2.58,2.58,0,0,1-.08-.83V46.86h-.51v-.55h.51v-1l.69-.42v1.45h.69v.55h-.69v2.43a1.25,1.25,0,0,0,0,.39.3.3,0,0,0,.12.14.46.46,0,0,0,.24.05Z"/><path d="M206.25,50.46V44.73h.69v2.05a1.52,1.52,0,0,1,1.22-.57,1.61,1.61,0,0,1,.79.18,1.05,1.05,0,0,1,.48.5,2.35,2.35,0,0,1,.14.93v2.63h-.69V47.83a1.1,1.1,0,0,0-.22-.77.82.82,0,0,0-.63-.24,1.09,1.09,0,0,0-.58.16.91.91,0,0,0-.38.44,2.06,2.06,0,0,0-.11.77v2.27Z"/><path d="M210.65,50.46V46.31h.62v.63a1.72,1.72,0,0,1,.44-.58.76.76,0,0,1,.44-.14,1.31,1.31,0,0,1,.71.23l-.24.65a1,1,0,0,0-.51-.15.65.65,0,0,0-.41.14.75.75,0,0,0-.26.38,2.8,2.8,0,0,0-.12.82v2.17Z"/><path d="M213.07,48.38a2.16,2.16,0,0,1,.63-1.71,1.87,1.87,0,0,1,1.28-.46,1.8,1.8,0,0,1,1.37.56,2.15,2.15,0,0,1,.53,1.55,2.78,2.78,0,0,1-.24,1.26,1.68,1.68,0,0,1-.69.71,2,2,0,0,1-1,.25A1.81,1.81,0,0,1,213.6,50,2.26,2.26,0,0,1,213.07,48.38Zm.71,0a1.79,1.79,0,0,0,.34,1.19,1.12,1.12,0,0,0,1.71,0,1.84,1.84,0,0,0,.34-1.21,1.73,1.73,0,0,0-.34-1.17,1.12,1.12,0,0,0-1.71,0A1.78,1.78,0,0,0,213.78,48.38Z"/><path d="M220.41,50.46v-.61a1.48,1.48,0,0,1-1.29.7,1.61,1.61,0,0,1-.67-.14,1.12,1.12,0,0,1-.46-.35,1.34,1.34,0,0,1-.21-.52,3.52,3.52,0,0,1,0-.66V46.31h.69v2.3a4.29,4.29,0,0,0,0,.74.75.75,0,0,0,.28.44.84.84,0,0,0,.52.16,1.12,1.12,0,0,0,.58-.16.9.9,0,0,0,.38-.44,2.28,2.28,0,0,0,.11-.81V46.31H221v4.15Z"/><path d="M222,50.8l.67.1a.66.66,0,0,0,.23.46,1.13,1.13,0,0,0,.7.2,1.21,1.21,0,0,0,.74-.2,1,1,0,0,0,.35-.55,4.71,4.71,0,0,0,0-.9,1.41,1.41,0,0,1-1.12.54,1.53,1.53,0,0,1-1.3-.62,2.42,2.42,0,0,1-.46-1.48,2.8,2.8,0,0,1,.21-1.1,1.7,1.7,0,0,1,.61-.78,1.62,1.62,0,0,1,.94-.27,1.44,1.44,0,0,1,1.19.59v-.5h.64V49.9a3.46,3.46,0,0,1-.19,1.37,1.43,1.43,0,0,1-.61.64,2.09,2.09,0,0,1-1,.23,1.92,1.92,0,0,1-1.18-.33A1.13,1.13,0,0,1,222,50.8Zm.57-2.49a1.83,1.83,0,0,0,.32,1.19,1,1,0,0,0,1.59,0,1.76,1.76,0,0,0,.32-1.17,1.73,1.73,0,0,0-.33-1.15,1,1,0,0,0-.8-.39,1,1,0,0,0-.78.38A1.72,1.72,0,0,0,222.6,48.31Z"/><path d="M226.57,50.46V44.73h.69v2.05a1.52,1.52,0,0,1,1.22-.57,1.62,1.62,0,0,1,.79.18,1.06,1.06,0,0,1,.48.5,2.36,2.36,0,0,1,.14.93v2.63h-.69V47.83a1.11,1.11,0,0,0-.22-.77.83.83,0,0,0-.63-.24,1.1,1.1,0,0,0-.58.16.91.91,0,0,0-.38.44,2.06,2.06,0,0,0-.11.77v2.27Z"/><path d="M14.38,58.83l.1.62a2.61,2.61,0,0,1-.53.06,1.19,1.19,0,0,1-.59-.12.68.68,0,0,1-.29-.32,2.55,2.55,0,0,1-.08-.83V55.86h-.51v-.55H13v-1l.69-.42v1.45h.7v.55h-.7v2.43a1.24,1.24,0,0,0,0,.39.3.3,0,0,0,.12.14.47.47,0,0,0,.24.05Z"/><path d="M15.09,59.46V53.73h.7v2.05A1.55,1.55,0,0,1,17,55.22a1.65,1.65,0,0,1,.79.18,1.06,1.06,0,0,1,.48.5,2.33,2.33,0,0,1,.15.93v2.63h-.7V56.83a1.09,1.09,0,0,0-.23-.77.84.84,0,0,0-.64-.24,1.12,1.12,0,0,0-.58.16.91.91,0,0,0-.39.44,2,2,0,0,0-.12.77v2.27Z"/><path d="M22.34,58.12l.72.09a1.78,1.78,0,0,1-.63,1,2.12,2.12,0,0,1-2.6-.21,2.2,2.2,0,0,1-.53-1.57,2.3,2.3,0,0,1,.53-1.62,1.8,1.8,0,0,1,1.38-.58,1.75,1.75,0,0,1,1.35.57,2.26,2.26,0,0,1,.52,1.59s0,.1,0,.19H20a1.61,1.61,0,0,0,.38,1,1.13,1.13,0,0,0,.86.36,1.06,1.06,0,0,0,.65-.2A1.35,1.35,0,0,0,22.34,58.12ZM20.05,57h2.29a1.41,1.41,0,0,0-.26-.79,1.06,1.06,0,0,0-.86-.41,1.1,1.1,0,0,0-.81.32A1.29,1.29,0,0,0,20.05,57Z"/><path d="M27,59.46,25.7,55.31h.72l.65,2.39.24.89.21-.86.65-2.43h.72l.62,2.41.2.79.24-.8.7-2.4h.68L30,59.46h-.72L28.67,57l-.16-.71-.83,3.19Z"/><path d="M34.63,58.95a2.62,2.62,0,0,1-.74.47,2.14,2.14,0,0,1-.77.14,1.48,1.48,0,0,1-1-.33,1.11,1.11,0,0,1-.36-.85,1.16,1.16,0,0,1,.5-1,1.67,1.67,0,0,1,.5-.23,4.71,4.71,0,0,1,.62-.11,6.35,6.35,0,0,0,1.24-.24c0-.1,0-.16,0-.18a.78.78,0,0,0-.2-.61,1.16,1.16,0,0,0-.79-.24,1.22,1.22,0,0,0-.73.17,1.06,1.06,0,0,0-.35.62l-.68-.09a1.7,1.7,0,0,1,.31-.71,1.33,1.33,0,0,1,.62-.42,2.72,2.72,0,0,1,.93-.15,2.43,2.43,0,0,1,.85.13,1.12,1.12,0,0,1,.48.31,1.1,1.1,0,0,1,.22.48,4,4,0,0,1,0,.65v.94a10.14,10.14,0,0,0,0,1.24,1.58,1.58,0,0,0,.18.5h-.73A1.5,1.5,0,0,1,34.63,58.95Zm-.06-1.57a5.13,5.13,0,0,1-1.14.27,2.54,2.54,0,0,0-.61.14.62.62,0,0,0-.16,1,.9.9,0,0,0,.62.19,1.43,1.43,0,0,0,.72-.18,1.1,1.1,0,0,0,.46-.49,1.72,1.72,0,0,0,.11-.7Z"/><path d="M36.37,59.46V53.73h.7v5.73Z"/><path d="M38.16,59.46V53.73h.7v5.73Z"/><path d="M44.88,58.95a2.62,2.62,0,0,1-.74.47,2.14,2.14,0,0,1-.77.14,1.48,1.48,0,0,1-1-.33,1.11,1.11,0,0,1-.36-.85,1.16,1.16,0,0,1,.5-1,1.67,1.67,0,0,1,.5-.23,4.71,4.71,0,0,1,.62-.11,6.35,6.35,0,0,0,1.24-.24c0-.1,0-.16,0-.18a.78.78,0,0,0-.2-.61,1.16,1.16,0,0,0-.79-.24,1.22,1.22,0,0,0-.73.17,1.06,1.06,0,0,0-.35.62l-.68-.09a1.7,1.7,0,0,1,.31-.71,1.33,1.33,0,0,1,.62-.42,2.72,2.72,0,0,1,.93-.15,2.43,2.43,0,0,1,.85.13,1.12,1.12,0,0,1,.48.31,1.1,1.1,0,0,1,.22.48,4,4,0,0,1,0,.65v.94a10.14,10.14,0,0,0,0,1.24,1.58,1.58,0,0,0,.18.5H45A1.5,1.5,0,0,1,44.88,58.95Zm-.06-1.57a5.13,5.13,0,0,1-1.14.27,2.54,2.54,0,0,0-.61.14.62.62,0,0,0-.16,1,.9.9,0,0,0,.62.19,1.43,1.43,0,0,0,.72-.18,1.1,1.1,0,0,0,.46-.49,1.72,1.72,0,0,0,.11-.7Z"/><path d="M46.63,59.46V55.31h.63v.59a1.47,1.47,0,0,1,1.31-.68,1.7,1.7,0,0,1,.68.13,1.07,1.07,0,0,1,.47.35,1.36,1.36,0,0,1,.22.52,4.05,4.05,0,0,1,0,.68v2.55h-.7V56.94a1.91,1.91,0,0,0-.08-.64.67.67,0,0,0-.29-.34.91.91,0,0,0-.49-.13,1.12,1.12,0,0,0-.77.29,1.41,1.41,0,0,0-.32,1.08v2.27Z"/><path d="M53.73,59.46v-.52a1.27,1.27,0,0,1-1.15.62,1.6,1.6,0,0,1-.9-.27,1.8,1.8,0,0,1-.64-.76,2.66,2.66,0,0,1-.23-1.13A3,3,0,0,1,51,56.26a1.61,1.61,0,0,1,1.53-1,1.36,1.36,0,0,1,.66.16,1.38,1.38,0,0,1,.47.41V53.73h.69v5.73Zm-2.2-2.07a1.82,1.82,0,0,0,.33,1.19,1,1,0,0,0,.78.39,1,1,0,0,0,.78-.38,1.75,1.75,0,0,0,.32-1.15,2,2,0,0,0-.32-1.25,1,1,0,0,0-.8-.4,1,1,0,0,0-.78.38A1.9,1.9,0,0,0,51.53,57.39Z"/><path d="M59.26,58.83l.1.62a2.61,2.61,0,0,1-.53.06,1.19,1.19,0,0,1-.59-.12.68.68,0,0,1-.29-.32,2.55,2.55,0,0,1-.08-.83V55.86h-.51v-.55h.51v-1l.69-.42v1.45h.7v.55h-.7v2.43a1.24,1.24,0,0,0,0,.39.3.3,0,0,0,.12.14.47.47,0,0,0,.24.05Z"/><path d="M60,59.46V53.73h.7v2.05a1.55,1.55,0,0,1,1.23-.57,1.65,1.65,0,0,1,.79.18,1.06,1.06,0,0,1,.48.5,2.33,2.33,0,0,1,.15.93v2.63h-.7V56.83a1.09,1.09,0,0,0-.23-.77.84.84,0,0,0-.64-.24,1.12,1.12,0,0,0-.58.16.91.91,0,0,0-.39.44,2,2,0,0,0-.12.77v2.27Z"/><path d="M67.22,58.12l.72.09a1.78,1.78,0,0,1-.63,1A2.12,2.12,0,0,1,64.7,59a2.2,2.2,0,0,1-.53-1.57,2.3,2.3,0,0,1,.53-1.62,1.8,1.8,0,0,1,1.38-.58,1.75,1.75,0,0,1,1.35.57A2.26,2.26,0,0,1,68,57.38s0,.1,0,.19H64.89a1.61,1.61,0,0,0,.38,1,1.13,1.13,0,0,0,.86.36,1.06,1.06,0,0,0,.65-.2A1.35,1.35,0,0,0,67.22,58.12ZM64.93,57h2.29A1.41,1.41,0,0,0,67,56.2a1.06,1.06,0,0,0-.86-.41,1.1,1.1,0,0,0-.81.32A1.29,1.29,0,0,0,64.93,57Z"/><path d="M73.89,58.12l.72.09a1.78,1.78,0,0,1-.63,1,2.12,2.12,0,0,1-2.6-.21,2.2,2.2,0,0,1-.53-1.57,2.3,2.3,0,0,1,.53-1.62,1.8,1.8,0,0,1,1.38-.58,1.75,1.75,0,0,1,1.35.57,2.26,2.26,0,0,1,.52,1.59s0,.1,0,.19H71.56a1.61,1.61,0,0,0,.38,1,1.13,1.13,0,0,0,.86.36,1.06,1.06,0,0,0,.65-.2A1.35,1.35,0,0,0,73.89,58.12ZM71.6,57h2.29a1.41,1.41,0,0,0-.26-.79,1.06,1.06,0,0,0-.86-.41,1.1,1.1,0,0,0-.81.32A1.29,1.29,0,0,0,71.6,57Z"/><path d="M75,59.46l1.5-2.16-1.39-2H76l.63,1,.29.46.31-.46.69-1h.83l-1.42,2,1.53,2.2H78l-.84-1.29L77,57.82l-1.08,1.64Z"/><path d="M81,58.83l.1.62a2.61,2.61,0,0,1-.53.06,1.19,1.19,0,0,1-.59-.12.68.68,0,0,1-.29-.32,2.55,2.55,0,0,1-.08-.83V55.86h-.51v-.55h.51v-1l.69-.42v1.45H81v.55h-.7v2.43a1.24,1.24,0,0,0,0,.39.3.3,0,0,0,.12.14.47.47,0,0,0,.24.05Z"/><path d="M84.55,58.12l.72.09a1.78,1.78,0,0,1-.63,1A2.12,2.12,0,0,1,82,59a2.2,2.2,0,0,1-.53-1.57A2.3,2.3,0,0,1,82,55.79a1.8,1.8,0,0,1,1.38-.58,1.75,1.75,0,0,1,1.35.57,2.26,2.26,0,0,1,.52,1.59s0,.1,0,.19H82.22a1.61,1.61,0,0,0,.38,1,1.13,1.13,0,0,0,.86.36,1.06,1.06,0,0,0,.65-.2A1.35,1.35,0,0,0,84.55,58.12ZM82.26,57h2.29a1.41,1.41,0,0,0-.26-.79,1.06,1.06,0,0,0-.86-.41,1.1,1.1,0,0,0-.81.32A1.29,1.29,0,0,0,82.26,57Z"/><path d="M86.16,59.46V55.31h.63v.63a1.71,1.71,0,0,1,.44-.58.77.77,0,0,1,.45-.14,1.35,1.35,0,0,1,.72.23l-.24.65a1,1,0,0,0-.51-.15.66.66,0,0,0-.41.14.75.75,0,0,0-.26.38,2.75,2.75,0,0,0-.12.82v2.17Z"/><path d="M88.84,54.54v-.81h.7v.81Zm0,4.92V55.31h.7v4.15Z"/><path d="M90.37,57.38A2.15,2.15,0,0,1,91,55.68a1.9,1.9,0,0,1,1.29-.46,1.83,1.83,0,0,1,1.38.56,2.14,2.14,0,0,1,.54,1.55A2.77,2.77,0,0,1,94,58.59a1.7,1.7,0,0,1-.69.71,2,2,0,0,1-1,.25A1.84,1.84,0,0,1,90.9,59,2.25,2.25,0,0,1,90.37,57.38Zm.72,0a1.78,1.78,0,0,0,.34,1.19,1.14,1.14,0,0,0,1.73,0,1.82,1.82,0,0,0,.34-1.21,1.72,1.72,0,0,0-.35-1.17,1.14,1.14,0,0,0-1.73,0A1.77,1.77,0,0,0,91.09,57.38Z"/><path d="M95.06,59.46V55.31h.63v.63a1.71,1.71,0,0,1,.44-.58.77.77,0,0,1,.45-.14,1.35,1.35,0,0,1,.72.23l-.24.65a1,1,0,0,0-.51-.15.66.66,0,0,0-.41.14.75.75,0,0,0-.26.38,2.75,2.75,0,0,0-.12.82v2.17Z"/><path d="M99.69,58.22l.69-.11a1,1,0,0,0,.32.64,1.12,1.12,0,0,0,.74.22,1.08,1.08,0,0,0,.71-.2.59.59,0,0,0,.23-.46.43.43,0,0,0-.21-.37,3,3,0,0,0-.71-.24,6.55,6.55,0,0,1-1.06-.34A1,1,0,0,1,100,57a1.06,1.06,0,0,1-.15-.56,1.07,1.07,0,0,1,.13-.51,1.12,1.12,0,0,1,.34-.39,1.41,1.41,0,0,1,.44-.21,2.06,2.06,0,0,1,.6-.08,2.36,2.36,0,0,1,.85.14,1.16,1.16,0,0,1,.54.38,1.5,1.5,0,0,1,.24.64l-.68.09A.75.75,0,0,0,102,56a1,1,0,0,0-.63-.18,1.12,1.12,0,0,0-.68.16.47.47,0,0,0-.2.38.39.39,0,0,0,.08.25.62.62,0,0,0,.27.19l.62.18a8.42,8.42,0,0,1,1,.33,1,1,0,0,1,.62,1,1.19,1.19,0,0,1-.2.66,1.32,1.32,0,0,1-.59.48,2.11,2.11,0,0,1-.87.17,1.92,1.92,0,0,1-1.22-.34A1.57,1.57,0,0,1,99.69,58.22Z"/><path d="M104,54.54v-.81h.7v.81Zm0,4.92V55.31h.7v4.15Z"/><path d="M108.42,59.46v-.52a1.27,1.27,0,0,1-1.15.62,1.6,1.6,0,0,1-.9-.27,1.8,1.8,0,0,1-.64-.76,2.66,2.66,0,0,1-.23-1.13,3,3,0,0,1,.21-1.13,1.61,1.61,0,0,1,1.53-1,1.36,1.36,0,0,1,.66.16,1.38,1.38,0,0,1,.47.41V53.73h.69v5.73Zm-2.2-2.07a1.82,1.82,0,0,0,.33,1.19,1,1,0,0,0,.78.39,1,1,0,0,0,.78-.38,1.75,1.75,0,0,0,.32-1.15,2,2,0,0,0-.32-1.25,1,1,0,0,0-.8-.4,1,1,0,0,0-.78.38A1.9,1.9,0,0,0,106.22,57.39Z"/><path d="M110.19,54.54v-.81h.7v.81Zm0,4.92V55.31h.7v4.15Z"/><path d="M112,59.46V55.31h.63v.59a1.47,1.47,0,0,1,1.31-.68,1.7,1.7,0,0,1,.68.13,1.07,1.07,0,0,1,.47.35,1.36,1.36,0,0,1,.22.52,4.05,4.05,0,0,1,0,.68v2.55h-.7V56.94a1.91,1.91,0,0,0-.08-.64.67.67,0,0,0-.29-.34.91.91,0,0,0-.49-.13,1.12,1.12,0,0,0-.77.29,1.41,1.41,0,0,0-.32,1.08v2.27Z"/><path d="M116.29,59.8l.68.1a.65.65,0,0,0,.24.46,1.15,1.15,0,0,0,.71.2,1.24,1.24,0,0,0,.75-.2,1,1,0,0,0,.36-.55,4.56,4.56,0,0,0,0-.9,1.43,1.43,0,0,1-1.14.54,1.55,1.55,0,0,1-1.31-.62,2.4,2.4,0,0,1-.46-1.48,2.78,2.78,0,0,1,.21-1.1,1.71,1.71,0,0,1,.62-.78,1.65,1.65,0,0,1,.95-.27,1.46,1.46,0,0,1,1.2.59v-.5h.64V58.9a3.44,3.44,0,0,1-.2,1.37,1.44,1.44,0,0,1-.62.64,2.13,2.13,0,0,1-1,.23,2,2,0,0,1-1.19-.33A1.13,1.13,0,0,1,116.29,59.8Zm.58-2.49a1.81,1.81,0,0,0,.32,1.19,1,1,0,0,0,.8.38,1,1,0,0,0,.8-.37,1.75,1.75,0,0,0,.32-1.17,1.71,1.71,0,0,0-.33-1.15,1,1,0,0,0-.81-.39,1,1,0,0,0-.79.38A1.7,1.7,0,0,0,116.87,57.31Z"/><path d="M121.05,59.46v-.8h.79v.8Z"/><path d="M126.71,59.46V54.41h-1.87v-.68h4.49v.68h-1.88v5.05Z"/><path d="M132,58.12l.72.09a1.78,1.78,0,0,1-.63,1,2.12,2.12,0,0,1-2.6-.21,2.2,2.2,0,0,1-.53-1.57,2.3,2.3,0,0,1,.53-1.62,1.8,1.8,0,0,1,1.38-.58,1.75,1.75,0,0,1,1.35.57,2.26,2.26,0,0,1,.52,1.59s0,.1,0,.19h-3.06a1.61,1.61,0,0,0,.38,1,1.13,1.13,0,0,0,.86.36,1.06,1.06,0,0,0,.65-.2A1.35,1.35,0,0,0,132,58.12ZM129.69,57H132a1.41,1.41,0,0,0-.26-.79,1.06,1.06,0,0,0-.86-.41,1.1,1.1,0,0,0-.81.32A1.29,1.29,0,0,0,129.69,57Z"/><path d="M133.59,59.46V55.31h.63v.63a1.71,1.71,0,0,1,.44-.58.77.77,0,0,1,.45-.14,1.35,1.35,0,0,1,.72.23l-.24.65a1,1,0,0,0-.51-.15.66.66,0,0,0-.41.14.75.75,0,0,0-.26.38,2.75,2.75,0,0,0-.12.82v2.17Z"/><path d="M136.27,59.46V55.31h.62v.58a1.46,1.46,0,0,1,.51-.49,1.43,1.43,0,0,1,.73-.19,1.34,1.34,0,0,1,.75.19,1,1,0,0,1,.41.54,1.47,1.47,0,0,1,1.27-.73,1.24,1.24,0,0,1,.94.34,1.47,1.47,0,0,1,.33,1.05v2.85h-.69V56.85a2,2,0,0,0-.07-.61.59.59,0,0,0-.25-.3.76.76,0,0,0-.42-.11,1,1,0,0,0-.72.29,1.29,1.29,0,0,0-.29.93v2.41h-.7v-2.7a1.19,1.19,0,0,0-.17-.7.64.64,0,0,0-.56-.23,1,1,0,0,0-.54.16.88.88,0,0,0-.36.46,2.6,2.6,0,0,0-.11.87v2.15Z"/><path d="M142.9,54.54v-.81h.7v.81Zm0,4.92V55.31h.7v4.15Z"/><path d="M144.69,59.46V55.31h.63v.59a1.47,1.47,0,0,1,1.31-.68,1.7,1.7,0,0,1,.68.13,1.07,1.07,0,0,1,.47.35,1.35,1.35,0,0,1,.22.52,4.09,4.09,0,0,1,0,.68v2.55h-.7V56.94a1.91,1.91,0,0,0-.08-.64A.67.67,0,0,0,147,56a.91.91,0,0,0-.49-.13,1.12,1.12,0,0,0-.77.29,1.41,1.41,0,0,0-.32,1.08v2.27Z"/><path d="M151.81,58.95a2.62,2.62,0,0,1-.75.47,2.14,2.14,0,0,1-.77.14,1.48,1.48,0,0,1-1-.33,1.11,1.11,0,0,1-.36-.85,1.16,1.16,0,0,1,.5-1,1.68,1.68,0,0,1,.5-.23,4.69,4.69,0,0,1,.62-.11,6.36,6.36,0,0,0,1.24-.24c0-.1,0-.16,0-.18a.78.78,0,0,0-.2-.61,1.16,1.16,0,0,0-.79-.24A1.22,1.22,0,0,0,150,56a1.06,1.06,0,0,0-.35.62l-.68-.09a1.72,1.72,0,0,1,.31-.71,1.33,1.33,0,0,1,.62-.42,2.72,2.72,0,0,1,.93-.15,2.43,2.43,0,0,1,.85.13,1.13,1.13,0,0,1,.48.31,1.11,1.11,0,0,1,.22.48,4,4,0,0,1,0,.65v.94a10.1,10.1,0,0,0,0,1.24,1.57,1.57,0,0,0,.18.5h-.73A1.48,1.48,0,0,1,151.81,58.95Zm-.06-1.57a5.13,5.13,0,0,1-1.14.27,2.54,2.54,0,0,0-.61.14.62.62,0,0,0-.16,1,.9.9,0,0,0,.62.19,1.43,1.43,0,0,0,.71-.18,1.09,1.09,0,0,0,.46-.49,1.71,1.71,0,0,0,.11-.7Z"/><path d="M155.08,58.83l.1.62a2.62,2.62,0,0,1-.53.06,1.19,1.19,0,0,1-.59-.12.68.68,0,0,1-.29-.32,2.55,2.55,0,0,1-.08-.83V55.86h-.51v-.55h.51v-1l.69-.42v1.45h.7v.55h-.7v2.43a1.25,1.25,0,0,0,0,.39.3.3,0,0,0,.12.14.46.46,0,0,0,.24.05Z"/><path d="M155.8,54.54v-.81h.7v.81Zm0,4.92V55.31h.7v4.15Z"/><path d="M157.33,57.38a2.15,2.15,0,0,1,.63-1.71,1.9,1.9,0,0,1,1.29-.46,1.83,1.83,0,0,1,1.38.56,2.14,2.14,0,0,1,.54,1.55,2.78,2.78,0,0,1-.24,1.26,1.7,1.7,0,0,1-.69.71,2,2,0,0,1-1,.25,1.83,1.83,0,0,1-1.39-.56A2.24,2.24,0,0,1,157.33,57.38Zm.72,0a1.78,1.78,0,0,0,.34,1.19,1.14,1.14,0,0,0,1.73,0,1.82,1.82,0,0,0,.34-1.21,1.72,1.72,0,0,0-.35-1.17,1.14,1.14,0,0,0-1.73,0A1.77,1.77,0,0,0,158,57.38Z"/><path d="M162,59.46V55.31h.63v.59a1.47,1.47,0,0,1,1.31-.68,1.7,1.7,0,0,1,.68.13,1.07,1.07,0,0,1,.46.35,1.35,1.35,0,0,1,.22.52,4,4,0,0,1,0,.68v2.55h-.7V56.94a1.89,1.89,0,0,0-.08-.64.67.67,0,0,0-.29-.34.91.91,0,0,0-.49-.13,1.12,1.12,0,0,0-.77.29,1.42,1.42,0,0,0-.32,1.08v2.27Z"/><path d="M168.43,57.38a2.15,2.15,0,0,1,.63-1.71,1.9,1.9,0,0,1,1.29-.46,1.83,1.83,0,0,1,1.38.56,2.14,2.14,0,0,1,.54,1.55,2.76,2.76,0,0,1-.24,1.26,1.7,1.7,0,0,1-.69.71,2,2,0,0,1-1,.25A1.84,1.84,0,0,1,169,59,2.25,2.25,0,0,1,168.43,57.38Zm.72,0a1.77,1.77,0,0,0,.34,1.19,1.14,1.14,0,0,0,1.73,0,1.83,1.83,0,0,0,.34-1.21,1.72,1.72,0,0,0-.35-1.17,1.14,1.14,0,0,0-1.73,0A1.77,1.77,0,0,0,169.15,57.38Z"/><path d="M173.29,59.46v-3.6h-.62v-.55h.62v-.44a2,2,0,0,1,.07-.62.89.89,0,0,1,.35-.44,1.26,1.26,0,0,1,.71-.17,3.38,3.38,0,0,1,.65.07l-.1.61a2.29,2.29,0,0,0-.41,0,.6.6,0,0,0-.45.14.74.74,0,0,0-.13.51v.38h.8v.55H174v3.6Z"/><path d="M180.27,58.95a2.62,2.62,0,0,1-.74.47,2.14,2.14,0,0,1-.77.14,1.49,1.49,0,0,1-1-.33,1.11,1.11,0,0,1-.36-.85,1.16,1.16,0,0,1,.5-1,1.67,1.67,0,0,1,.5-.23,4.69,4.69,0,0,1,.62-.11,6.35,6.35,0,0,0,1.24-.24c0-.1,0-.16,0-.18A.78.78,0,0,0,180,56a1.15,1.15,0,0,0-.79-.24,1.22,1.22,0,0,0-.72.17,1.06,1.06,0,0,0-.35.62l-.68-.09a1.69,1.69,0,0,1,.31-.71,1.33,1.33,0,0,1,.62-.42,2.71,2.71,0,0,1,.93-.15,2.43,2.43,0,0,1,.85.13,1.12,1.12,0,0,1,.48.31,1.1,1.1,0,0,1,.22.48,4,4,0,0,1,0,.65v.94A10.18,10.18,0,0,0,181,59a1.59,1.59,0,0,0,.18.5h-.73A1.5,1.5,0,0,1,180.27,58.95Zm-.06-1.57a5.1,5.1,0,0,1-1.14.27,2.55,2.55,0,0,0-.61.14.62.62,0,0,0-.16,1,.9.9,0,0,0,.62.19,1.43,1.43,0,0,0,.71-.18,1.1,1.1,0,0,0,.46-.49,1.73,1.73,0,0,0,.11-.7Z"/><path d="M184,58.22l.69-.11a1,1,0,0,0,.32.64,1.12,1.12,0,0,0,.74.22,1.09,1.09,0,0,0,.71-.2.59.59,0,0,0,.23-.46.43.43,0,0,0-.21-.37,3,3,0,0,0-.71-.24,6.55,6.55,0,0,1-1.06-.34,1,1,0,0,1-.45-.39,1.06,1.06,0,0,1-.15-.56,1.07,1.07,0,0,1,.13-.51,1.13,1.13,0,0,1,.34-.39,1.42,1.42,0,0,1,.44-.21,2.07,2.07,0,0,1,.6-.08,2.36,2.36,0,0,1,.85.14,1.16,1.16,0,0,1,.54.38,1.52,1.52,0,0,1,.24.64l-.68.09a.75.75,0,0,0-.27-.5,1,1,0,0,0-.63-.18A1.13,1.13,0,0,0,185,56a.47.47,0,0,0-.2.38.39.39,0,0,0,.08.25.62.62,0,0,0,.27.19l.62.18a8.42,8.42,0,0,1,1,.33,1,1,0,0,1,.63,1,1.19,1.19,0,0,1-.2.66,1.32,1.32,0,0,1-.59.48,2.12,2.12,0,0,1-.87.17,1.91,1.91,0,0,1-1.22-.34A1.57,1.57,0,0,1,184,58.22Z"/><path d="M188.26,54.54v-.81h.7v.81Zm0,4.92V55.31h.7v4.15Z"/><path d="M192.71,59.46v-.52a1.27,1.27,0,0,1-1.15.62,1.6,1.6,0,0,1-.9-.27,1.8,1.8,0,0,1-.64-.76,2.67,2.67,0,0,1-.23-1.13,3,3,0,0,1,.21-1.13,1.61,1.61,0,0,1,1.53-1,1.36,1.36,0,0,1,.66.16,1.38,1.38,0,0,1,.47.41V53.73h.69v5.73Zm-2.2-2.07a1.82,1.82,0,0,0,.33,1.19,1,1,0,0,0,.79.39,1,1,0,0,0,.78-.38,1.75,1.75,0,0,0,.32-1.15,2,2,0,0,0-.32-1.25,1,1,0,0,0-.8-.4,1,1,0,0,0-.78.38A1.91,1.91,0,0,0,190.51,57.39Z"/><path d="M197.29,58.12l.72.09a1.78,1.78,0,0,1-.63,1,2.12,2.12,0,0,1-2.6-.21,2.2,2.2,0,0,1-.53-1.57,2.3,2.3,0,0,1,.53-1.62,1.79,1.79,0,0,1,1.38-.58,1.74,1.74,0,0,1,1.35.57,2.26,2.26,0,0,1,.52,1.59s0,.1,0,.19H195a1.6,1.6,0,0,0,.38,1,1.13,1.13,0,0,0,.86.36,1.06,1.06,0,0,0,.65-.2A1.36,1.36,0,0,0,197.29,58.12ZM195,57h2.29a1.41,1.41,0,0,0-.26-.79,1.06,1.06,0,0,0-.86-.41,1.09,1.09,0,0,0-.81.32A1.29,1.29,0,0,0,195,57Z"/><path d="M199.68,59.46l-1.26-4.15h.72l.65,2.39.24.89.21-.86.65-2.43h.72l.62,2.41.2.79.24-.8.7-2.4h.68l-1.28,4.15H202L201.39,57l-.16-.71-.83,3.19Z"/><path d="M207.35,58.95a2.62,2.62,0,0,1-.75.47,2.14,2.14,0,0,1-.77.14,1.48,1.48,0,0,1-1-.33,1.11,1.11,0,0,1-.36-.85,1.16,1.16,0,0,1,.5-1,1.68,1.68,0,0,1,.5-.23,4.69,4.69,0,0,1,.62-.11,6.36,6.36,0,0,0,1.24-.24c0-.1,0-.16,0-.18a.78.78,0,0,0-.2-.61,1.16,1.16,0,0,0-.79-.24,1.22,1.22,0,0,0-.72.17,1.06,1.06,0,0,0-.35.62l-.68-.09a1.72,1.72,0,0,1,.31-.71,1.33,1.33,0,0,1,.62-.42,2.72,2.72,0,0,1,.93-.15,2.43,2.43,0,0,1,.85.13,1,1,0,0,1,.7.79,4,4,0,0,1,0,.65v.94A10.1,10.1,0,0,0,208,59a1.57,1.57,0,0,0,.18.5h-.73A1.48,1.48,0,0,1,207.35,58.95Zm-.06-1.57a5.13,5.13,0,0,1-1.14.27,2.54,2.54,0,0,0-.61.14.62.62,0,0,0-.16,1A.9.9,0,0,0,206,59a1.43,1.43,0,0,0,.71-.18,1.09,1.09,0,0,0,.46-.49,1.71,1.71,0,0,0,.11-.7Z"/><path d="M209.09,59.46V53.73h.7v5.73Z"/><path d="M210.88,59.46V53.73h.7v5.73Z"/><path d="M216.06,59.46l-1.56-4.15h.73l.88,2.48c.1.27.18.55.26.84.06-.22.15-.48.26-.79l.91-2.53h.72l-1.55,4.15Z"/><path d="M221.72,58.12l.72.09a1.77,1.77,0,0,1-.63,1,2.12,2.12,0,0,1-2.61-.21,2.21,2.21,0,0,1-.53-1.57,2.31,2.31,0,0,1,.53-1.62,1.79,1.79,0,0,1,1.38-.58,1.75,1.75,0,0,1,1.35.57,2.26,2.26,0,0,1,.52,1.59s0,.1,0,.19H219.4a1.61,1.61,0,0,0,.38,1,1.14,1.14,0,0,0,.86.36,1.06,1.06,0,0,0,.65-.2A1.34,1.34,0,0,0,221.72,58.12ZM219.44,57h2.29a1.41,1.41,0,0,0-.26-.79,1.06,1.06,0,0,0-.86-.41,1.1,1.1,0,0,0-.81.32A1.28,1.28,0,0,0,219.44,57Z"/><path d="M223.35,59.46V55.31H224v.59a1.47,1.47,0,0,1,1.31-.68,1.71,1.71,0,0,1,.68.13,1.07,1.07,0,0,1,.46.35,1.35,1.35,0,0,1,.22.52,4.09,4.09,0,0,1,0,.68v2.55H226V56.94a1.9,1.9,0,0,0-.08-.64.67.67,0,0,0-.29-.34.9.9,0,0,0-.48-.13,1.12,1.12,0,0,0-.77.29,1.42,1.42,0,0,0-.32,1.08v2.27Z"/><path d="M229.3,58.83l.1.62a2.6,2.6,0,0,1-.53.06,1.19,1.19,0,0,1-.59-.12.68.68,0,0,1-.29-.32,2.56,2.56,0,0,1-.08-.83V55.86h-.51v-.55h.51v-1l.69-.42v1.45h.7v.55h-.7v2.43a1.27,1.27,0,0,0,0,.39.3.3,0,0,0,.12.14.47.47,0,0,0,.24.05Z"/><path d="M12.58,67.22l.7-.11a1,1,0,0,0,.33.64,1.14,1.14,0,0,0,.75.22,1.1,1.1,0,0,0,.72-.2.59.59,0,0,0,.23-.46.43.43,0,0,0-.21-.37,3,3,0,0,0-.72-.24,6.66,6.66,0,0,1-1.07-.34,1,1,0,0,1-.61-1,1.07,1.07,0,0,1,.13-.51,1.12,1.12,0,0,1,.35-.39,1.43,1.43,0,0,1,.45-.21,2.1,2.1,0,0,1,.61-.08,2.4,2.4,0,0,1,.86.14,1.17,1.17,0,0,1,.54.38,1.49,1.49,0,0,1,.24.64l-.69.09a.75.75,0,0,0-.27-.5,1,1,0,0,0-.63-.18,1.15,1.15,0,0,0-.69.16.46.46,0,0,0-.21.38.39.39,0,0,0,.09.25.62.62,0,0,0,.27.19l.62.18a8.59,8.59,0,0,1,1,.33,1,1,0,0,1,.46.37,1,1,0,0,1,.17.6,1.18,1.18,0,0,1-.21.66,1.33,1.33,0,0,1-.59.48,2.15,2.15,0,0,1-.87.17,2,2,0,0,1-1.23-.34A1.56,1.56,0,0,1,12.58,67.22Z"/><path d="M16.86,70.06l-.08-.66a1.6,1.6,0,0,0,.4.06.78.78,0,0,0,.38-.08.65.65,0,0,0,.23-.22,3.46,3.46,0,0,0,.21-.52l.06-.17-1.57-4.16h.76l.86,2.4q.17.46.3,1a9.38,9.38,0,0,1,.29-.95l.89-2.42h.7l-1.58,4.22a8.37,8.37,0,0,1-.39.94,1.39,1.39,0,0,1-.43.51,1,1,0,0,1-.58.16A1.43,1.43,0,0,1,16.86,70.06Z"/><path d="M20.63,67.22l.7-.11a1,1,0,0,0,.33.64,1.14,1.14,0,0,0,.75.22,1.1,1.1,0,0,0,.72-.2.59.59,0,0,0,.23-.46.43.43,0,0,0-.21-.37,3,3,0,0,0-.72-.24,6.66,6.66,0,0,1-1.07-.34,1,1,0,0,1-.61-1,1.07,1.07,0,0,1,.13-.51,1.12,1.12,0,0,1,.35-.39,1.43,1.43,0,0,1,.45-.21,2.1,2.1,0,0,1,.61-.08,2.4,2.4,0,0,1,.86.14,1.17,1.17,0,0,1,.54.38,1.49,1.49,0,0,1,.24.64l-.69.09A.75.75,0,0,0,23,65a1,1,0,0,0-.63-.18,1.15,1.15,0,0,0-.69.16.46.46,0,0,0-.21.38.39.39,0,0,0,.09.25.62.62,0,0,0,.27.19l.62.18a8.59,8.59,0,0,1,1,.33,1,1,0,0,1,.46.37,1,1,0,0,1,.17.6,1.18,1.18,0,0,1-.21.66,1.33,1.33,0,0,1-.59.48,2.15,2.15,0,0,1-.87.17,2,2,0,0,1-1.23-.34A1.56,1.56,0,0,1,20.63,67.22Z"/><path d="M26.47,67.83l.1.62a2.65,2.65,0,0,1-.53.06,1.21,1.21,0,0,1-.59-.12.68.68,0,0,1-.3-.32,2.52,2.52,0,0,1-.09-.83V64.86h-.52v-.55h.52v-1l.7-.42v1.45h.71v.55h-.71v2.43a1.22,1.22,0,0,0,0,.39.3.3,0,0,0,.12.14.48.48,0,0,0,.24.05Z"/><path d="M30,67.12l.73.09a1.77,1.77,0,0,1-.64,1A2.16,2.16,0,0,1,27.48,68a2.19,2.19,0,0,1-.53-1.57,2.29,2.29,0,0,1,.54-1.62,1.82,1.82,0,0,1,1.4-.58,1.77,1.77,0,0,1,1.36.57,2.25,2.25,0,0,1,.53,1.59s0,.1,0,.19H27.67a1.59,1.59,0,0,0,.39,1,1.15,1.15,0,0,0,.87.36,1.08,1.08,0,0,0,.66-.2A1.35,1.35,0,0,0,30,67.12ZM27.71,66H30a1.4,1.4,0,0,0-.27-.79,1.08,1.08,0,0,0-.87-.41,1.11,1.11,0,0,0-.81.32A1.28,1.28,0,0,0,27.71,66Z"/><path d="M31.65,68.46V64.31h.63v.58a1.47,1.47,0,0,1,.52-.49,1.46,1.46,0,0,1,.74-.19,1.36,1.36,0,0,1,.76.19,1,1,0,0,1,.42.54A1.49,1.49,0,0,1,36,64.22a1.26,1.26,0,0,1,.95.34,1.46,1.46,0,0,1,.33,1.05v2.85h-.7V65.85a1.93,1.93,0,0,0-.07-.61.59.59,0,0,0-.25-.3.77.77,0,0,0-.42-.11,1,1,0,0,0-.73.29,1.28,1.28,0,0,0-.29.93v2.41h-.7v-2.7a1.18,1.18,0,0,0-.17-.7.65.65,0,0,0-.56-.23,1,1,0,0,0-.55.16.88.88,0,0,0-.37.46,2.57,2.57,0,0,0-.11.87v2.15Z"/><path d="M41.35,68.46l-1.27-4.15h.73l.66,2.39.25.89.21-.86.66-2.43h.72l.62,2.41.21.79.24-.8.71-2.4h.68l-1.3,4.15h-.73L43.09,66l-.16-.71-.84,3.19Z"/><path d="M46.39,63.54v-.81h.7v.81Zm0,4.92V64.31h.7v4.15Z"/><path d="M49.73,67.83l.1.62a2.65,2.65,0,0,1-.53.06,1.21,1.21,0,0,1-.59-.12.68.68,0,0,1-.3-.32,2.52,2.52,0,0,1-.09-.83V64.86h-.52v-.55h.52v-1l.7-.42v1.45h.71v.55H49v2.43a1.22,1.22,0,0,0,0,.39.3.3,0,0,0,.12.14.48.48,0,0,0,.24.05Z"/><path d="M50.44,68.46V62.73h.7v2.05a1.57,1.57,0,0,1,1.24-.57,1.68,1.68,0,0,1,.8.18,1.07,1.07,0,0,1,.49.5,2.31,2.31,0,0,1,.15.93v2.63h-.7V65.83a1.09,1.09,0,0,0-.23-.77.85.85,0,0,0-.65-.24,1.14,1.14,0,0,0-.59.16.91.91,0,0,0-.39.44,2,2,0,0,0-.12.77v2.27Z"/><path d="M59.87,67.95a2.65,2.65,0,0,1-.75.47,2.18,2.18,0,0,1-.78.14,1.51,1.51,0,0,1-1.05-.33,1.1,1.1,0,0,1-.37-.85,1.16,1.16,0,0,1,.5-1,1.7,1.7,0,0,1,.51-.23,4.79,4.79,0,0,1,.63-.11,6.47,6.47,0,0,0,1.25-.24c0-.1,0-.16,0-.18a.78.78,0,0,0-.2-.61,1.18,1.18,0,0,0-.8-.24,1.24,1.24,0,0,0-.73.17,1.06,1.06,0,0,0-.35.62L57,65.49a1.7,1.7,0,0,1,.31-.71,1.35,1.35,0,0,1,.62-.42,2.77,2.77,0,0,1,.94-.15,2.48,2.48,0,0,1,.86.13,1.13,1.13,0,0,1,.49.31,1.1,1.1,0,0,1,.22.48,4,4,0,0,1,0,.65v.94a10,10,0,0,0,0,1.24,1.57,1.57,0,0,0,.18.5H60A1.5,1.5,0,0,1,59.87,67.95Zm-.06-1.57a5.22,5.22,0,0,1-1.15.27,2.59,2.59,0,0,0-.61.14.61.61,0,0,0-.28.23.62.62,0,0,0,.12.8.92.92,0,0,0,.62.19,1.45,1.45,0,0,0,.72-.18,1.1,1.1,0,0,0,.46-.49,1.7,1.7,0,0,0,.11-.7Z"/><path d="M66.57,68.46v-.52a1.29,1.29,0,0,1-1.16.62,1.63,1.63,0,0,1-.91-.27,1.8,1.8,0,0,1-.64-.76,2.64,2.64,0,0,1-.23-1.13,3,3,0,0,1,.21-1.13,1.63,1.63,0,0,1,.62-.78,1.66,1.66,0,0,1,.93-.27,1.38,1.38,0,0,1,1.14.57V62.73h.7v5.73Zm-2.22-2.07a1.8,1.8,0,0,0,.34,1.19,1,1,0,0,0,.79.39,1,1,0,0,0,.78-.38,1.74,1.74,0,0,0,.32-1.15,2,2,0,0,0-.33-1.25,1,1,0,0,0-.81-.4,1,1,0,0,0-.78.38A1.89,1.89,0,0,0,64.35,66.39Z"/><path d="M71.19,67.12l.73.09a1.77,1.77,0,0,1-.64,1A2.16,2.16,0,0,1,68.65,68a2.19,2.19,0,0,1-.53-1.57,2.29,2.29,0,0,1,.54-1.62,1.82,1.82,0,0,1,1.4-.58,1.77,1.77,0,0,1,1.36.57,2.25,2.25,0,0,1,.53,1.59s0,.1,0,.19H68.84a1.59,1.59,0,0,0,.39,1,1.15,1.15,0,0,0,.87.36,1.08,1.08,0,0,0,.66-.2A1.35,1.35,0,0,0,71.19,67.12ZM68.88,66H71.2a1.4,1.4,0,0,0-.27-.79,1.08,1.08,0,0,0-.87-.41,1.11,1.11,0,0,0-.81.32A1.28,1.28,0,0,0,68.88,66Z"/><path d="M74,68.46,72.4,64.31h.74L74,66.79c.1.27.19.55.27.84.06-.22.15-.48.26-.79l.92-2.53h.72l-1.57,4.15Z"/><path d="M76.85,63.54v-.81h.7v.81Zm0,4.92V64.31h.7v4.15Z"/><path d="M81.36,66.94,82,67a1.79,1.79,0,0,1-.58,1.12,1.69,1.69,0,0,1-1.15.4A1.78,1.78,0,0,1,79,68a2.26,2.26,0,0,1-.52-1.6,2.89,2.89,0,0,1,.22-1.18,1.55,1.55,0,0,1,.68-.76,2,2,0,0,1,1-.25,1.72,1.72,0,0,1,1.11.34,1.56,1.56,0,0,1,.55,1l-.68.11A1.13,1.13,0,0,0,81,65a.89.89,0,0,0-.6-.21,1.09,1.09,0,0,0-.86.38,1.81,1.81,0,0,0-.33,1.21,1.87,1.87,0,0,0,.32,1.21,1,1,0,0,0,.84.38,1,1,0,0,0,.69-.25A1.26,1.26,0,0,0,81.36,66.94Z"/><path d="M85.51,67.12l.73.09a1.77,1.77,0,0,1-.64,1A2.16,2.16,0,0,1,83,68a2.19,2.19,0,0,1-.53-1.57A2.29,2.29,0,0,1,83,64.79a1.82,1.82,0,0,1,1.4-.58,1.77,1.77,0,0,1,1.36.57,2.25,2.25,0,0,1,.53,1.59s0,.1,0,.19H83.17a1.59,1.59,0,0,0,.39,1,1.15,1.15,0,0,0,.87.36,1.08,1.08,0,0,0,.66-.2A1.35,1.35,0,0,0,85.51,67.12ZM83.21,66h2.32a1.4,1.4,0,0,0-.27-.79,1.08,1.08,0,0,0-.87-.41,1.11,1.11,0,0,0-.81.32A1.28,1.28,0,0,0,83.21,66Z"/><path d="M89.13,66.38a2.14,2.14,0,0,1,.64-1.71,1.93,1.93,0,0,1,1.3-.46,1.86,1.86,0,0,1,1.4.56A2.13,2.13,0,0,1,93,66.33a2.75,2.75,0,0,1-.24,1.26,1.71,1.71,0,0,1-.7.71,2,2,0,0,1-1,.25A1.87,1.87,0,0,1,89.67,68,2.23,2.23,0,0,1,89.13,66.38Zm.72,0a1.77,1.77,0,0,0,.35,1.19,1.16,1.16,0,0,0,1.75,0,1.81,1.81,0,0,0,.35-1.21,1.71,1.71,0,0,0-.35-1.17,1.16,1.16,0,0,0-1.74,0A1.76,1.76,0,0,0,89.85,66.38Z"/><path d="M95.4,67.83l.1.62a2.65,2.65,0,0,1-.53.06,1.21,1.21,0,0,1-.59-.12.68.68,0,0,1-.3-.32,2.52,2.52,0,0,1-.09-.83V64.86h-.52v-.55H94v-1l.7-.42v1.45h.71v.55H94.7v2.43a1.22,1.22,0,0,0,0,.39.3.3,0,0,0,.12.14.48.48,0,0,0,.24.05Z"/><path d="M96.11,68.46V62.73h.7v2.05a1.57,1.57,0,0,1,1.24-.57,1.68,1.68,0,0,1,.8.18,1.07,1.07,0,0,1,.49.5,2.31,2.31,0,0,1,.15.93v2.63h-.7V65.83a1.09,1.09,0,0,0-.23-.77.85.85,0,0,0-.65-.24,1.14,1.14,0,0,0-.59.16.91.91,0,0,0-.39.44,2,2,0,0,0-.12.77v2.27Z"/><path d="M103.43,67.12l.73.09a1.77,1.77,0,0,1-.64,1,2.16,2.16,0,0,1-2.63-.21,2.19,2.19,0,0,1-.53-1.57,2.29,2.29,0,0,1,.54-1.62,1.82,1.82,0,0,1,1.4-.58,1.77,1.77,0,0,1,1.36.57,2.25,2.25,0,0,1,.53,1.59s0,.1,0,.19h-3.09a1.59,1.59,0,0,0,.39,1,1.15,1.15,0,0,0,.87.36,1.08,1.08,0,0,0,.66-.2A1.35,1.35,0,0,0,103.43,67.12ZM101.12,66h2.32a1.4,1.4,0,0,0-.27-.79,1.08,1.08,0,0,0-.87-.41,1.11,1.11,0,0,0-.81.32A1.28,1.28,0,0,0,101.12,66Z"/><path d="M105.05,68.46V64.31h.63v.63a1.71,1.71,0,0,1,.45-.58.78.78,0,0,1,.45-.14,1.37,1.37,0,0,1,.72.23l-.24.65a1,1,0,0,0-.52-.15.67.67,0,0,0-.41.14.75.75,0,0,0-.26.38,2.74,2.74,0,0,0-.12.82v2.17Z"/><path d="M111.53,67.83l.1.62a2.65,2.65,0,0,1-.53.06,1.21,1.21,0,0,1-.59-.12.68.68,0,0,1-.3-.32,2.52,2.52,0,0,1-.09-.83V64.86h-.52v-.55h.52v-1l.7-.42v1.45h.71v.55h-.71v2.43a1.22,1.22,0,0,0,0,.39.3.3,0,0,0,.12.14.48.48,0,0,0,.24.05Z"/><path d="M112.24,68.46V62.73h.7v2.05a1.57,1.57,0,0,1,1.24-.57,1.68,1.68,0,0,1,.8.18,1.07,1.07,0,0,1,.49.5,2.31,2.31,0,0,1,.15.93v2.63h-.7V65.83a1.09,1.09,0,0,0-.23-.77.85.85,0,0,0-.65-.24,1.14,1.14,0,0,0-.59.16.91.91,0,0,0-.39.44,2,2,0,0,0-.12.77v2.27Z"/><path d="M119.42,67.95a2.65,2.65,0,0,1-.75.47,2.18,2.18,0,0,1-.78.14,1.51,1.51,0,0,1-1.05-.33,1.1,1.1,0,0,1-.37-.85,1.16,1.16,0,0,1,.5-1,1.7,1.7,0,0,1,.51-.23,4.79,4.79,0,0,1,.63-.11,6.47,6.47,0,0,0,1.25-.24c0-.1,0-.16,0-.18a.78.78,0,0,0-.2-.61,1.18,1.18,0,0,0-.8-.24,1.24,1.24,0,0,0-.73.17,1.06,1.06,0,0,0-.35.62l-.69-.09a1.7,1.7,0,0,1,.31-.71,1.35,1.35,0,0,1,.62-.42,2.77,2.77,0,0,1,.94-.15,2.48,2.48,0,0,1,.86.13,1.13,1.13,0,0,1,.49.31,1.1,1.1,0,0,1,.22.48,4,4,0,0,1,0,.65v.94a10,10,0,0,0,0,1.24,1.57,1.57,0,0,0,.18.5h-.73A1.5,1.5,0,0,1,119.42,67.95Zm-.06-1.57a5.22,5.22,0,0,1-1.15.27,2.59,2.59,0,0,0-.61.14.61.61,0,0,0-.28.23.62.62,0,0,0,.12.8.92.92,0,0,0,.62.19,1.45,1.45,0,0,0,.72-.18,1.1,1.1,0,0,0,.46-.49,1.7,1.7,0,0,0,.11-.7Z"/><path d="M121.19,68.46V64.31h.63v.59a1.49,1.49,0,0,1,1.32-.68,1.73,1.73,0,0,1,.69.13,1.08,1.08,0,0,1,.47.35,1.35,1.35,0,0,1,.22.52,4,4,0,0,1,0,.68v2.55h-.7V65.94a1.89,1.89,0,0,0-.08-.64.67.67,0,0,0-.29-.34.92.92,0,0,0-.49-.13,1.14,1.14,0,0,0-.78.29,1.41,1.41,0,0,0-.33,1.08v2.27Z"/><path d="M129.44,67.83l.1.62a2.65,2.65,0,0,1-.53.06,1.21,1.21,0,0,1-.59-.12.68.68,0,0,1-.3-.32,2.52,2.52,0,0,1-.09-.83V64.86h-.52v-.55H128v-1l.7-.42v1.45h.71v.55h-.71v2.43a1.22,1.22,0,0,0,0,.39.3.3,0,0,0,.12.14.48.48,0,0,0,.24.05Z"/><path d="M130.15,68.46V62.73h.7v2.05a1.57,1.57,0,0,1,1.24-.57,1.68,1.68,0,0,1,.8.18,1.07,1.07,0,0,1,.49.5,2.31,2.31,0,0,1,.15.93v2.63h-.7V65.83a1.09,1.09,0,0,0-.23-.77.85.85,0,0,0-.65-.24,1.14,1.14,0,0,0-.59.16.91.91,0,0,0-.39.44,2,2,0,0,0-.12.77v2.27Z"/><path d="M137.47,67.12l.73.09a1.77,1.77,0,0,1-.64,1,2.16,2.16,0,0,1-2.63-.21,2.19,2.19,0,0,1-.53-1.57,2.29,2.29,0,0,1,.54-1.62,1.82,1.82,0,0,1,1.4-.58,1.77,1.77,0,0,1,1.36.57,2.25,2.25,0,0,1,.53,1.59s0,.1,0,.19h-3.09a1.59,1.59,0,0,0,.39,1,1.15,1.15,0,0,0,.87.36,1.08,1.08,0,0,0,.66-.2A1.35,1.35,0,0,0,137.47,67.12ZM135.16,66h2.32a1.4,1.4,0,0,0-.27-.79,1.08,1.08,0,0,0-.87-.41,1.11,1.11,0,0,0-.81.32A1.28,1.28,0,0,0,135.16,66Z"/><path d="M141.07,67.22l.7-.11a1,1,0,0,0,.33.64,1.14,1.14,0,0,0,.75.22,1.1,1.1,0,0,0,.72-.2.59.59,0,0,0,.23-.46.43.43,0,0,0-.21-.37,3,3,0,0,0-.72-.24,6.66,6.66,0,0,1-1.07-.34,1,1,0,0,1-.61-1,1.07,1.07,0,0,1,.13-.51,1.12,1.12,0,0,1,.35-.39,1.43,1.43,0,0,1,.45-.21,2.1,2.1,0,0,1,.61-.08,2.4,2.4,0,0,1,.86.14,1.17,1.17,0,0,1,.54.38,1.49,1.49,0,0,1,.24.64l-.69.09a.75.75,0,0,0-.27-.5,1,1,0,0,0-.63-.18,1.15,1.15,0,0,0-.69.16.46.46,0,0,0-.21.38.39.39,0,0,0,.09.25.62.62,0,0,0,.27.19l.62.18a8.59,8.59,0,0,1,1,.33,1,1,0,0,1,.46.37,1,1,0,0,1,.17.6,1.18,1.18,0,0,1-.21.66,1.33,1.33,0,0,1-.59.48,2.15,2.15,0,0,1-.87.17,2,2,0,0,1-1.23-.34A1.56,1.56,0,0,1,141.07,67.22Z"/><path d="M148.09,68.46v-.61a1.52,1.52,0,0,1-1.32.7,1.68,1.68,0,0,1-.69-.14,1.13,1.13,0,0,1-.47-.35,1.33,1.33,0,0,1-.22-.52,3.57,3.57,0,0,1,0-.66V64.31h.7v2.3a4.09,4.09,0,0,0,0,.74.74.74,0,0,0,.28.44.87.87,0,0,0,.53.16,1.16,1.16,0,0,0,.59-.16.91.91,0,0,0,.39-.44,2.21,2.21,0,0,0,.12-.81V64.31h.7v4.15Z"/><path d="M149.85,70V64.31h.64v.54a1.57,1.57,0,0,1,.51-.47,1.4,1.4,0,0,1,.69-.16,1.64,1.64,0,0,1,.94.27,1.68,1.68,0,0,1,.61.77,2.82,2.82,0,0,1,.21,1.09,2.78,2.78,0,0,1-.23,1.15,1.73,1.73,0,0,1-.66.78,1.71,1.71,0,0,1-.92.27,1.33,1.33,0,0,1-.63-.15,1.44,1.44,0,0,1-.46-.37v2Zm.64-3.64a1.8,1.8,0,0,0,.32,1.18,1,1,0,0,0,.79.38,1,1,0,0,0,.8-.4,1.88,1.88,0,0,0,.33-1.23,1.83,1.83,0,0,0-.33-1.19,1,1,0,0,0-.78-.39,1,1,0,0,0-.79.42A1.88,1.88,0,0,0,150.48,66.41Z"/><path d="M154.32,70V64.31H155v.54a1.58,1.58,0,0,1,.51-.47,1.4,1.4,0,0,1,.69-.16,1.64,1.64,0,0,1,.94.27,1.67,1.67,0,0,1,.61.77,3,3,0,0,1,0,2.24,1.74,1.74,0,0,1-1.58,1.05,1.33,1.33,0,0,1-.63-.15A1.45,1.45,0,0,1,155,68v2Zm.64-3.64a1.8,1.8,0,0,0,.32,1.18,1,1,0,0,0,.79.38,1,1,0,0,0,.8-.4,1.88,1.88,0,0,0,.33-1.23,1.83,1.83,0,0,0-.33-1.19,1,1,0,0,0-.78-.39,1,1,0,0,0-.79.42A1.88,1.88,0,0,0,155,66.41Z"/><path d="M158.78,68.46V62.73h.7v5.73Z"/><path d="M160.6,63.54v-.81h.7v.81Zm0,4.92V64.31h.7v4.15Z"/><path d="M165.23,67.12l.73.09a1.78,1.78,0,0,1-.64,1,2.16,2.16,0,0,1-2.63-.21,2.19,2.19,0,0,1-.53-1.57,2.29,2.29,0,0,1,.54-1.62,1.82,1.82,0,0,1,1.4-.58,1.77,1.77,0,0,1,1.36.57,2.25,2.25,0,0,1,.53,1.59s0,.1,0,.19h-3.09a1.59,1.59,0,0,0,.39,1,1.15,1.15,0,0,0,.87.36,1.08,1.08,0,0,0,.66-.2A1.36,1.36,0,0,0,165.23,67.12ZM162.93,66h2.32a1.4,1.4,0,0,0-.27-.79,1.08,1.08,0,0,0-.87-.41,1.11,1.11,0,0,0-.81.32A1.28,1.28,0,0,0,162.93,66Z"/><path d="M169.56,68.46v-.52a1.29,1.29,0,0,1-1.16.62,1.63,1.63,0,0,1-.91-.27,1.8,1.8,0,0,1-.64-.76,2.64,2.64,0,0,1-.23-1.13,3,3,0,0,1,.21-1.13,1.64,1.64,0,0,1,.62-.78,1.66,1.66,0,0,1,.93-.27,1.38,1.38,0,0,1,1.14.57V62.73h.7v5.73Zm-2.22-2.07a1.8,1.8,0,0,0,.34,1.19,1,1,0,0,0,.79.39,1,1,0,0,0,.78-.38,1.74,1.74,0,0,0,.32-1.15,2,2,0,0,0-.33-1.25,1,1,0,0,0-.81-.4,1,1,0,0,0-.78.38A1.89,1.89,0,0,0,167.34,66.39Z"/><path d="M174.74,68.46l-1.58-4.15h.74l.89,2.48c.1.27.18.55.27.84.06-.22.15-.48.26-.79l.92-2.53H177l-1.57,4.15Z"/><path d="M180.45,67.12l.73.09a1.77,1.77,0,0,1-.64,1,2.16,2.16,0,0,1-2.63-.21,2.19,2.19,0,0,1-.53-1.57,2.29,2.29,0,0,1,.54-1.62,1.82,1.82,0,0,1,1.4-.58,1.77,1.77,0,0,1,1.36.57,2.25,2.25,0,0,1,.53,1.59s0,.1,0,.19H178.1a1.59,1.59,0,0,0,.39,1,1.15,1.15,0,0,0,.87.36,1.08,1.08,0,0,0,.66-.2A1.36,1.36,0,0,0,180.45,67.12ZM178.14,66h2.32a1.4,1.4,0,0,0-.27-.79,1.08,1.08,0,0,0-.87-.41,1.12,1.12,0,0,0-.81.32A1.28,1.28,0,0,0,178.14,66Z"/><path d="M182.08,68.46V64.31h.63v.59a1.49,1.49,0,0,1,1.32-.68,1.73,1.73,0,0,1,.69.13,1.07,1.07,0,0,1,.47.35,1.34,1.34,0,0,1,.22.52,4,4,0,0,1,0,.68v2.55h-.7V65.94a1.89,1.89,0,0,0-.08-.64.67.67,0,0,0-.29-.34.92.92,0,0,0-.49-.13,1.14,1.14,0,0,0-.78.29,1.41,1.41,0,0,0-.33,1.08v2.27Z"/><path d="M188.09,67.83l.1.62a2.66,2.66,0,0,1-.53.06,1.21,1.21,0,0,1-.59-.12.68.68,0,0,1-.3-.32,2.51,2.51,0,0,1-.09-.83V64.86h-.52v-.55h.52v-1l.7-.42v1.45h.71v.55h-.71v2.43a1.24,1.24,0,0,0,0,.39.3.3,0,0,0,.12.14.47.47,0,0,0,.24.05Z"/><path d="M191.05,68.46V62.73h.7v2.05a1.57,1.57,0,0,1,1.24-.57,1.67,1.67,0,0,1,.8.18,1.07,1.07,0,0,1,.49.5,2.31,2.31,0,0,1,.15.93v2.63h-.7V65.83a1.09,1.09,0,0,0-.23-.77.85.85,0,0,0-.65-.24,1.14,1.14,0,0,0-.59.16.91.91,0,0,0-.39.44,2,2,0,0,0-.12.77v2.27Z"/><path d="M195.26,66.38a2.14,2.14,0,0,1,.64-1.71,1.93,1.93,0,0,1,1.3-.46,1.86,1.86,0,0,1,1.4.56,2.13,2.13,0,0,1,.54,1.55,2.75,2.75,0,0,1-.24,1.26,1.71,1.71,0,0,1-.7.71,2,2,0,0,1-1,.25A1.87,1.87,0,0,1,195.8,68,2.23,2.23,0,0,1,195.26,66.38Zm.72,0a1.77,1.77,0,0,0,.35,1.19,1.16,1.16,0,0,0,1.75,0,1.81,1.81,0,0,0,.35-1.21,1.71,1.71,0,0,0-.35-1.17,1.16,1.16,0,0,0-1.74,0A1.76,1.76,0,0,0,196,66.38Z"/><path d="M199.74,66.38a2.13,2.13,0,0,1,.64-1.71,1.93,1.93,0,0,1,1.3-.46,1.86,1.86,0,0,1,1.4.56,2.13,2.13,0,0,1,.54,1.55,2.75,2.75,0,0,1-.24,1.26,1.71,1.71,0,0,1-.7.71,2,2,0,0,1-1,.25,1.86,1.86,0,0,1-1.41-.56A2.23,2.23,0,0,1,199.74,66.38Zm.72,0a1.76,1.76,0,0,0,.35,1.19,1.16,1.16,0,0,0,1.75,0,1.81,1.81,0,0,0,.35-1.21,1.72,1.72,0,0,0-.35-1.17,1.16,1.16,0,0,0-1.74,0A1.76,1.76,0,0,0,200.46,66.38Z"/><path d="M207.16,68.46v-.52a1.29,1.29,0,0,1-1.16.62,1.63,1.63,0,0,1-.91-.27,1.8,1.8,0,0,1-.64-.76,2.64,2.64,0,0,1-.23-1.13,2.94,2.94,0,0,1,.21-1.13,1.64,1.64,0,0,1,.62-.78,1.66,1.66,0,0,1,.93-.27,1.38,1.38,0,0,1,1.14.57V62.73h.7v5.73Zm-2.22-2.07a1.8,1.8,0,0,0,.34,1.19,1,1,0,0,0,.79.39,1,1,0,0,0,.78-.38,1.74,1.74,0,0,0,.32-1.15,2,2,0,0,0-.33-1.25,1,1,0,0,0-.81-.4,1,1,0,0,0-.78.38A1.89,1.89,0,0,0,204.94,66.39Z"/><path d="M213.9,66.94l.69.09a1.8,1.8,0,0,1-.58,1.12,1.69,1.69,0,0,1-1.15.4,1.78,1.78,0,0,1-1.37-.56,2.26,2.26,0,0,1-.52-1.6,2.89,2.89,0,0,1,.22-1.18,1.55,1.55,0,0,1,.68-.76,2,2,0,0,1,1-.25,1.72,1.72,0,0,1,1.11.34,1.58,1.58,0,0,1,.55,1l-.68.11a1.15,1.15,0,0,0-.35-.63.9.9,0,0,0-.6-.21,1.09,1.09,0,0,0-.86.38,1.8,1.8,0,0,0-.33,1.21A1.86,1.86,0,0,0,212,67.6a1,1,0,0,0,.84.38,1,1,0,0,0,.69-.25A1.28,1.28,0,0,0,213.9,66.94Z"/><path d="M215,66.38a2.13,2.13,0,0,1,.64-1.71,1.93,1.93,0,0,1,1.3-.46,1.86,1.86,0,0,1,1.4.56,2.13,2.13,0,0,1,.54,1.55,2.75,2.75,0,0,1-.24,1.26,1.71,1.71,0,0,1-.7.71,2,2,0,0,1-1,.25,1.86,1.86,0,0,1-1.41-.56A2.23,2.23,0,0,1,215,66.38Zm.72,0a1.76,1.76,0,0,0,.35,1.19,1.16,1.16,0,0,0,1.75,0,1.82,1.82,0,0,0,.35-1.21,1.72,1.72,0,0,0-.35-1.17,1.16,1.16,0,0,0-1.74,0A1.76,1.76,0,0,0,215.68,66.38Z"/><path d="M222.41,68.46v-.61a1.52,1.52,0,0,1-1.32.7,1.68,1.68,0,0,1-.69-.14,1.14,1.14,0,0,1-.47-.35,1.37,1.37,0,0,1-.22-.52,3.7,3.7,0,0,1,0-.66V64.31h.7v2.3a4.23,4.23,0,0,0,0,.74.74.74,0,0,0,.28.44.87.87,0,0,0,.53.16,1.16,1.16,0,0,0,.59-.16.9.9,0,0,0,.39-.44,2.19,2.19,0,0,0,.12-.81V64.31h.7v4.15Z"/><path d="M224.14,68.46V62.73h.7v5.73Z"/><path d="M228.65,68.46v-.52a1.29,1.29,0,0,1-1.16.62,1.63,1.63,0,0,1-.91-.27,1.8,1.8,0,0,1-.64-.76,2.64,2.64,0,0,1-.23-1.13,2.94,2.94,0,0,1,.21-1.13,1.61,1.61,0,0,1,.62-.78,1.66,1.66,0,0,1,.93-.27,1.38,1.38,0,0,1,1.14.57V62.73h.7v5.73Zm-2.22-2.07a1.8,1.8,0,0,0,.34,1.19,1,1,0,0,0,.79.39,1,1,0,0,0,.78-.38,1.74,1.74,0,0,0,.32-1.15,2,2,0,0,0-.33-1.25,1,1,0,0,0-.81-.4,1,1,0,0,0-.78.38A1.88,1.88,0,0,0,226.43,66.39Z"/><path d="M15.57,76.95a2.65,2.65,0,0,1-.75.47,2.18,2.18,0,0,1-.78.14A1.51,1.51,0,0,1,13,77.22a1.1,1.1,0,0,1-.37-.85,1.16,1.16,0,0,1,.5-1,1.7,1.7,0,0,1,.51-.23,4.79,4.79,0,0,1,.63-.11,6.47,6.47,0,0,0,1.25-.24c0-.1,0-.16,0-.18a.78.78,0,0,0-.2-.61,1.18,1.18,0,0,0-.8-.24,1.24,1.24,0,0,0-.73.17,1.06,1.06,0,0,0-.35.62l-.69-.09a1.7,1.7,0,0,1,.31-.71,1.35,1.35,0,0,1,.62-.42,2.77,2.77,0,0,1,.94-.15,2.48,2.48,0,0,1,.86.13,1.13,1.13,0,0,1,.49.31,1.1,1.1,0,0,1,.22.48,4,4,0,0,1,0,.65v.94a10,10,0,0,0,0,1.24,1.57,1.57,0,0,0,.18.5h-.73A1.5,1.5,0,0,1,15.57,76.95Zm-.06-1.57a5.22,5.22,0,0,1-1.15.27,2.59,2.59,0,0,0-.61.14.61.61,0,0,0-.28.23.62.62,0,0,0,.12.8.92.92,0,0,0,.62.19,1.45,1.45,0,0,0,.72-.18,1.1,1.1,0,0,0,.46-.49,1.7,1.7,0,0,0,.11-.7Z"/><path d="M17.52,77.46v-3.6H16.9v-.55h.62v-.44a1.93,1.93,0,0,1,.07-.62A.9.9,0,0,1,18,71.8a1.29,1.29,0,0,1,.72-.17,3.44,3.44,0,0,1,.66.07l-.11.61a2.33,2.33,0,0,0-.41,0,.61.61,0,0,0-.45.14.74.74,0,0,0-.13.51v.38H19v.55h-.81v3.6Z"/><path d="M19.64,77.46v-3.6H19v-.55h.62v-.44a1.93,1.93,0,0,1,.07-.62.9.9,0,0,1,.36-.44,1.29,1.29,0,0,1,.72-.17,3.44,3.44,0,0,1,.66.07l-.11.61a2.33,2.33,0,0,0-.41,0,.61.61,0,0,0-.45.14.74.74,0,0,0-.13.51v.38h.81v.55h-.81v3.6Z"/><path d="M24.57,76.12l.73.09a1.77,1.77,0,0,1-.64,1A2.16,2.16,0,0,1,22,77a2.19,2.19,0,0,1-.53-1.57A2.29,2.29,0,0,1,22,73.79a1.82,1.82,0,0,1,1.4-.58,1.77,1.77,0,0,1,1.36.57,2.25,2.25,0,0,1,.53,1.59s0,.1,0,.19H22.23a1.59,1.59,0,0,0,.39,1,1.15,1.15,0,0,0,.87.36,1.08,1.08,0,0,0,.66-.2A1.35,1.35,0,0,0,24.57,76.12ZM22.26,75h2.32a1.4,1.4,0,0,0-.27-.79,1.08,1.08,0,0,0-.87-.41,1.11,1.11,0,0,0-.81.32A1.28,1.28,0,0,0,22.26,75Z"/><path d="M28.93,75.94l.69.09A1.79,1.79,0,0,1,29,77.15a1.69,1.69,0,0,1-1.15.4A1.78,1.78,0,0,1,26.52,77,2.26,2.26,0,0,1,26,75.4a2.89,2.89,0,0,1,.22-1.18,1.55,1.55,0,0,1,.68-.76,2,2,0,0,1,1-.25,1.72,1.72,0,0,1,1.11.34,1.56,1.56,0,0,1,.55,1l-.68.11a1.13,1.13,0,0,0-.35-.63.89.89,0,0,0-.6-.21,1.09,1.09,0,0,0-.86.38,1.81,1.81,0,0,0-.33,1.21,1.87,1.87,0,0,0,.32,1.21,1,1,0,0,0,.84.38,1,1,0,0,0,.69-.25A1.26,1.26,0,0,0,28.93,75.94Z"/><path d="M31.8,76.83l.1.62a2.65,2.65,0,0,1-.53.06,1.21,1.21,0,0,1-.59-.12.68.68,0,0,1-.3-.32,2.52,2.52,0,0,1-.09-.83V73.86h-.52v-.55h.52v-1l.7-.42v1.45h.71v.55h-.71v2.43a1.22,1.22,0,0,0,0,.39.3.3,0,0,0,.12.14.48.48,0,0,0,.24.05Z"/><path d="M34.51,76.22l.7-.11a1,1,0,0,0,.33.64,1.14,1.14,0,0,0,.75.22,1.1,1.1,0,0,0,.72-.2.59.59,0,0,0,.23-.46.43.43,0,0,0-.21-.37,3,3,0,0,0-.72-.24,6.66,6.66,0,0,1-1.07-.34,1,1,0,0,1-.61-1,1.07,1.07,0,0,1,.13-.51,1.12,1.12,0,0,1,.35-.39,1.43,1.43,0,0,1,.45-.21,2.1,2.1,0,0,1,.61-.08,2.4,2.4,0,0,1,.86.14,1.17,1.17,0,0,1,.54.38,1.49,1.49,0,0,1,.24.64l-.69.09a.75.75,0,0,0-.27-.5,1,1,0,0,0-.63-.18,1.15,1.15,0,0,0-.69.16.46.46,0,0,0-.21.38.39.39,0,0,0,.09.25.62.62,0,0,0,.27.19l.62.18a8.59,8.59,0,0,1,1,.33,1,1,0,0,1,.46.37,1,1,0,0,1,.17.6,1.18,1.18,0,0,1-.21.66,1.33,1.33,0,0,1-.59.48,2.15,2.15,0,0,1-.87.17A2,2,0,0,1,35,77.22,1.56,1.56,0,0,1,34.51,76.22Z"/><path d="M38.8,79.06l-.08-.66a1.6,1.6,0,0,0,.4.06.78.78,0,0,0,.38-.08.65.65,0,0,0,.23-.22,3.46,3.46,0,0,0,.21-.52l.06-.17-1.57-4.16h.76l.86,2.4q.17.46.3,1a9.38,9.38,0,0,1,.29-.95l.89-2.42h.7l-1.58,4.22a8.37,8.37,0,0,1-.39.94,1.39,1.39,0,0,1-.43.51,1,1,0,0,1-.58.16A1.43,1.43,0,0,1,38.8,79.06Z"/><path d="M42.59,76.22l.7-.11a1,1,0,0,0,.33.64,1.14,1.14,0,0,0,.75.22,1.1,1.1,0,0,0,.72-.2.59.59,0,0,0,.23-.46.43.43,0,0,0-.21-.37,3,3,0,0,0-.72-.24,6.66,6.66,0,0,1-1.07-.34,1,1,0,0,1-.61-1,1.07,1.07,0,0,1,.13-.51,1.12,1.12,0,0,1,.35-.39,1.43,1.43,0,0,1,.45-.21,2.1,2.1,0,0,1,.61-.08,2.4,2.4,0,0,1,.86.14,1.17,1.17,0,0,1,.54.38,1.49,1.49,0,0,1,.24.64l-.69.09a.75.75,0,0,0-.27-.5,1,1,0,0,0-.63-.18,1.15,1.15,0,0,0-.69.16.46.46,0,0,0-.21.38.39.39,0,0,0,.09.25.62.62,0,0,0,.27.19l.62.18a8.59,8.59,0,0,1,1,.33,1,1,0,0,1,.46.37,1,1,0,0,1,.17.6,1.18,1.18,0,0,1-.21.66,1.33,1.33,0,0,1-.59.48,2.15,2.15,0,0,1-.87.17,2,2,0,0,1-1.23-.34A1.56,1.56,0,0,1,42.59,76.22Z"/><path d="M48.44,76.83l.1.62a2.65,2.65,0,0,1-.53.06,1.21,1.21,0,0,1-.59-.12.68.68,0,0,1-.3-.32,2.52,2.52,0,0,1-.09-.83V73.86h-.52v-.55H47v-1l.7-.42v1.45h.71v.55h-.71v2.43a1.22,1.22,0,0,0,0,.39.3.3,0,0,0,.12.14.48.48,0,0,0,.24.05Z"/><path d="M52,76.12l.73.09a1.77,1.77,0,0,1-.64,1A2.16,2.16,0,0,1,49.47,77a2.19,2.19,0,0,1-.53-1.57,2.29,2.29,0,0,1,.54-1.62,1.82,1.82,0,0,1,1.4-.58,1.77,1.77,0,0,1,1.36.57,2.25,2.25,0,0,1,.53,1.59s0,.1,0,.19H49.66a1.59,1.59,0,0,0,.39,1,1.15,1.15,0,0,0,.87.36,1.08,1.08,0,0,0,.66-.2A1.35,1.35,0,0,0,52,76.12ZM49.7,75H52a1.4,1.4,0,0,0-.27-.79,1.08,1.08,0,0,0-.87-.41,1.11,1.11,0,0,0-.81.32A1.28,1.28,0,0,0,49.7,75Z"/><path d="M53.66,77.46V73.31h.63v.58a1.47,1.47,0,0,1,.52-.49,1.46,1.46,0,0,1,.74-.19,1.36,1.36,0,0,1,.76.19,1,1,0,0,1,.42.54A1.49,1.49,0,0,1,58,73.22a1.26,1.26,0,0,1,.95.34,1.46,1.46,0,0,1,.33,1.05v2.85h-.7V74.85a1.93,1.93,0,0,0-.07-.61.59.59,0,0,0-.25-.3.77.77,0,0,0-.42-.11,1,1,0,0,0-.73.29,1.28,1.28,0,0,0-.29.93v2.41h-.7v-2.7a1.18,1.18,0,0,0-.17-.7.65.65,0,0,0-.56-.23,1,1,0,0,0-.55.16.88.88,0,0,0-.37.46,2.57,2.57,0,0,0-.11.87v2.15Z"/><path d="M62.63,79V73.31h.64v.54a1.58,1.58,0,0,1,.51-.47,1.41,1.41,0,0,1,.69-.16,1.64,1.64,0,0,1,.94.27,1.67,1.67,0,0,1,.61.77,2.81,2.81,0,0,1,.21,1.09A2.78,2.78,0,0,1,66,76.5a1.74,1.74,0,0,1-1.58,1.05,1.33,1.33,0,0,1-.63-.15,1.45,1.45,0,0,1-.46-.37v2Zm.64-3.64a1.81,1.81,0,0,0,.32,1.18,1,1,0,0,0,.79.38,1,1,0,0,0,.8-.4,1.88,1.88,0,0,0,.33-1.23,1.83,1.83,0,0,0-.33-1.19,1,1,0,0,0-.78-.39,1,1,0,0,0-.79.42A1.88,1.88,0,0,0,63.26,75.41Z"/><path d="M70,76.12l.73.09a1.77,1.77,0,0,1-.64,1A2.16,2.16,0,0,1,67.41,77a2.19,2.19,0,0,1-.53-1.57,2.29,2.29,0,0,1,.54-1.62,1.82,1.82,0,0,1,1.4-.58,1.77,1.77,0,0,1,1.36.57,2.25,2.25,0,0,1,.53,1.59s0,.1,0,.19H67.61a1.59,1.59,0,0,0,.39,1,1.15,1.15,0,0,0,.87.36,1.08,1.08,0,0,0,.66-.2A1.35,1.35,0,0,0,70,76.12ZM67.65,75H70a1.4,1.4,0,0,0-.27-.79,1.08,1.08,0,0,0-.87-.41,1.11,1.11,0,0,0-.81.32A1.28,1.28,0,0,0,67.65,75Z"/><path d="M71.6,77.46V73.31h.63v.63a1.71,1.71,0,0,1,.45-.58.78.78,0,0,1,.45-.14,1.37,1.37,0,0,1,.72.23l-.24.65a1,1,0,0,0-.52-.15.67.67,0,0,0-.41.14.75.75,0,0,0-.26.38,2.74,2.74,0,0,0-.12.82v2.17Z"/><path d="M74.48,77.46v-3.6h-.62v-.55h.62v-.44a1.93,1.93,0,0,1,.07-.62.9.9,0,0,1,.36-.44,1.29,1.29,0,0,1,.72-.17,3.44,3.44,0,0,1,.66.07l-.11.61a2.33,2.33,0,0,0-.41,0,.61.61,0,0,0-.45.14.74.74,0,0,0-.13.51v.38H76v.55h-.81v3.6Z"/><path d="M76.31,75.38A2.14,2.14,0,0,1,77,73.68a1.93,1.93,0,0,1,1.3-.46,1.86,1.86,0,0,1,1.4.56,2.13,2.13,0,0,1,.54,1.55A2.75,2.75,0,0,1,80,76.59a1.71,1.71,0,0,1-.7.71,2,2,0,0,1-1,.25A1.87,1.87,0,0,1,76.85,77,2.23,2.23,0,0,1,76.31,75.38Zm.72,0a1.77,1.77,0,0,0,.35,1.19,1.16,1.16,0,0,0,1.75,0,1.81,1.81,0,0,0,.35-1.21,1.71,1.71,0,0,0-.35-1.17,1.16,1.16,0,0,0-1.74,0A1.76,1.76,0,0,0,77,75.38Z"/><path d="M81.05,77.46V73.31h.63v.63a1.71,1.71,0,0,1,.45-.58.78.78,0,0,1,.45-.14,1.37,1.37,0,0,1,.72.23l-.24.65a1,1,0,0,0-.52-.15.67.67,0,0,0-.41.14.75.75,0,0,0-.26.38,2.74,2.74,0,0,0-.12.82v2.17Z"/><path d="M83.76,77.46V73.31h.63v.58a1.47,1.47,0,0,1,.52-.49,1.46,1.46,0,0,1,.74-.19,1.36,1.36,0,0,1,.76.19,1,1,0,0,1,.42.54,1.49,1.49,0,0,1,1.28-.73,1.26,1.26,0,0,1,.95.34,1.46,1.46,0,0,1,.33,1.05v2.85h-.7V74.85a1.93,1.93,0,0,0-.07-.61.59.59,0,0,0-.25-.3.77.77,0,0,0-.42-.11,1,1,0,0,0-.73.29,1.28,1.28,0,0,0-.29.93v2.41h-.7v-2.7a1.18,1.18,0,0,0-.17-.7.65.65,0,0,0-.56-.23,1,1,0,0,0-.55.16.88.88,0,0,0-.37.46,2.57,2.57,0,0,0-.11.87v2.15Z"/><path d="M93.18,76.95a2.65,2.65,0,0,1-.75.47,2.18,2.18,0,0,1-.78.14,1.51,1.51,0,0,1-1.05-.33,1.1,1.1,0,0,1-.37-.85,1.16,1.16,0,0,1,.5-1,1.7,1.7,0,0,1,.51-.23,4.79,4.79,0,0,1,.63-.11,6.47,6.47,0,0,0,1.25-.24c0-.1,0-.16,0-.18a.78.78,0,0,0-.2-.61,1.18,1.18,0,0,0-.8-.24,1.24,1.24,0,0,0-.73.17,1.06,1.06,0,0,0-.35.62l-.69-.09a1.7,1.7,0,0,1,.31-.71,1.35,1.35,0,0,1,.62-.42,2.77,2.77,0,0,1,.94-.15,2.48,2.48,0,0,1,.86.13,1.13,1.13,0,0,1,.49.31,1.1,1.1,0,0,1,.22.48,4,4,0,0,1,0,.65v.94a10,10,0,0,0,0,1.24,1.57,1.57,0,0,0,.18.5h-.73A1.5,1.5,0,0,1,93.18,76.95Zm-.06-1.57a5.22,5.22,0,0,1-1.15.27,2.59,2.59,0,0,0-.61.14.61.61,0,0,0-.28.23.62.62,0,0,0,.12.8.92.92,0,0,0,.62.19,1.45,1.45,0,0,0,.72-.18,1.1,1.1,0,0,0,.46-.49,1.7,1.7,0,0,0,.11-.7Z"/><path d="M95,77.46V73.31h.63v.59a1.49,1.49,0,0,1,1.32-.68,1.73,1.73,0,0,1,.69.13,1.08,1.08,0,0,1,.47.35,1.35,1.35,0,0,1,.22.52,4,4,0,0,1,0,.68v2.55h-.7V74.94a1.89,1.89,0,0,0-.08-.64.67.67,0,0,0-.29-.34.92.92,0,0,0-.49-.13,1.14,1.14,0,0,0-.78.29,1.41,1.41,0,0,0-.33,1.08v2.27Z"/><path d="M102.15,75.94l.69.09a1.79,1.79,0,0,1-.58,1.12,1.69,1.69,0,0,1-1.15.4A1.78,1.78,0,0,1,99.75,77a2.26,2.26,0,0,1-.52-1.6,2.89,2.89,0,0,1,.22-1.18,1.55,1.55,0,0,1,.68-.76,2,2,0,0,1,1-.25,1.72,1.72,0,0,1,1.11.34,1.56,1.56,0,0,1,.55,1l-.68.11a1.13,1.13,0,0,0-.35-.63.89.89,0,0,0-.6-.21,1.09,1.09,0,0,0-.86.38,1.81,1.81,0,0,0-.33,1.21,1.87,1.87,0,0,0,.32,1.21,1,1,0,0,0,.84.38,1,1,0,0,0,.69-.25A1.26,1.26,0,0,0,102.15,75.94Z"/><path d="M106.33,76.12l.73.09a1.77,1.77,0,0,1-.64,1,2.16,2.16,0,0,1-2.63-.21,2.19,2.19,0,0,1-.53-1.57,2.29,2.29,0,0,1,.54-1.62,1.82,1.82,0,0,1,1.4-.58,1.77,1.77,0,0,1,1.36.57,2.25,2.25,0,0,1,.53,1.59s0,.1,0,.19H104a1.59,1.59,0,0,0,.39,1,1.15,1.15,0,0,0,.87.36,1.08,1.08,0,0,0,.66-.2A1.35,1.35,0,0,0,106.33,76.12ZM104,75h2.32a1.4,1.4,0,0,0-.27-.79,1.08,1.08,0,0,0-.87-.41,1.11,1.11,0,0,0-.81.32A1.28,1.28,0,0,0,104,75Z"/><path d="M112.95,76.95a2.65,2.65,0,0,1-.75.47,2.18,2.18,0,0,1-.78.14,1.51,1.51,0,0,1-1.05-.33,1.1,1.1,0,0,1-.37-.85,1.16,1.16,0,0,1,.5-1,1.7,1.7,0,0,1,.51-.23,4.79,4.79,0,0,1,.63-.11,6.47,6.47,0,0,0,1.25-.24c0-.1,0-.16,0-.18a.78.78,0,0,0-.2-.61,1.18,1.18,0,0,0-.8-.24,1.24,1.24,0,0,0-.73.17,1.06,1.06,0,0,0-.35.62l-.69-.09a1.7,1.7,0,0,1,.31-.71,1.35,1.35,0,0,1,.62-.42,2.77,2.77,0,0,1,.94-.15,2.48,2.48,0,0,1,.86.13,1.13,1.13,0,0,1,.49.31,1.1,1.1,0,0,1,.22.48,4,4,0,0,1,0,.65v.94a10,10,0,0,0,0,1.24,1.57,1.57,0,0,0,.18.5h-.73A1.5,1.5,0,0,1,112.95,76.95Zm-.06-1.57a5.22,5.22,0,0,1-1.15.27,2.59,2.59,0,0,0-.61.14.61.61,0,0,0-.28.23.62.62,0,0,0,.12.8.92.92,0,0,0,.62.19,1.45,1.45,0,0,0,.72-.18,1.1,1.1,0,0,0,.46-.49,1.7,1.7,0,0,0,.11-.7Z"/><path d="M114.73,77.46V73.31h.63v.59a1.49,1.49,0,0,1,1.32-.68,1.73,1.73,0,0,1,.69.13,1.08,1.08,0,0,1,.47.35,1.35,1.35,0,0,1,.22.52,4,4,0,0,1,0,.68v2.55h-.7V74.94a1.89,1.89,0,0,0-.08-.64A.67.67,0,0,0,117,74a.92.92,0,0,0-.49-.13,1.14,1.14,0,0,0-.78.29,1.41,1.41,0,0,0-.33,1.08v2.27Z"/><path d="M121.91,77.46v-.52a1.29,1.29,0,0,1-1.16.62,1.63,1.63,0,0,1-.91-.27,1.8,1.8,0,0,1-.64-.76,2.64,2.64,0,0,1-.23-1.13,3,3,0,0,1,.21-1.13,1.63,1.63,0,0,1,.62-.78,1.66,1.66,0,0,1,.93-.27,1.38,1.38,0,0,1,1.14.57V71.73h.7v5.73Zm-2.22-2.07a1.8,1.8,0,0,0,.34,1.19,1,1,0,0,0,.79.39,1,1,0,0,0,.78-.38,1.74,1.74,0,0,0,.32-1.15,2,2,0,0,0-.33-1.25,1,1,0,0,0-.81-.4,1,1,0,0,0-.78.38A1.89,1.89,0,0,0,119.69,75.39Z"/><path d="M126,77.46V73.31h.63v.63a1.71,1.71,0,0,1,.45-.58.78.78,0,0,1,.45-.14,1.37,1.37,0,0,1,.72.23l-.24.65a1,1,0,0,0-.52-.15.67.67,0,0,0-.41.14.75.75,0,0,0-.26.38,2.74,2.74,0,0,0-.12.82v2.17Z"/><path d="M131.51,76.12l.73.09a1.77,1.77,0,0,1-.64,1A2.16,2.16,0,0,1,129,77a2.19,2.19,0,0,1-.53-1.57,2.29,2.29,0,0,1,.54-1.62,1.82,1.82,0,0,1,1.4-.58,1.77,1.77,0,0,1,1.36.57,2.25,2.25,0,0,1,.53,1.59s0,.1,0,.19h-3.09a1.59,1.59,0,0,0,.39,1,1.15,1.15,0,0,0,.87.36,1.08,1.08,0,0,0,.66-.2A1.35,1.35,0,0,0,131.51,76.12ZM129.2,75h2.32a1.4,1.4,0,0,0-.27-.79,1.08,1.08,0,0,0-.87-.41,1.11,1.11,0,0,0-.81.32A1.28,1.28,0,0,0,129.2,75Z"/><path d="M132.88,76.22l.7-.11a1,1,0,0,0,.33.64,1.14,1.14,0,0,0,.75.22,1.1,1.1,0,0,0,.72-.2.59.59,0,0,0,.23-.46.43.43,0,0,0-.21-.37,3,3,0,0,0-.72-.24,6.66,6.66,0,0,1-1.07-.34,1,1,0,0,1-.61-1,1.07,1.07,0,0,1,.13-.51,1.12,1.12,0,0,1,.35-.39,1.43,1.43,0,0,1,.45-.21,2.1,2.1,0,0,1,.61-.08,2.4,2.4,0,0,1,.86.14,1.17,1.17,0,0,1,.54.38,1.49,1.49,0,0,1,.24.64l-.69.09a.75.75,0,0,0-.27-.5,1,1,0,0,0-.63-.18,1.15,1.15,0,0,0-.69.16.46.46,0,0,0-.21.38.39.39,0,0,0,.09.25.62.62,0,0,0,.27.19l.62.18a8.59,8.59,0,0,1,1,.33,1,1,0,0,1,.46.37,1,1,0,0,1,.17.6,1.18,1.18,0,0,1-.21.66,1.33,1.33,0,0,1-.59.48,2.15,2.15,0,0,1-.87.17,2,2,0,0,1-1.23-.34A1.56,1.56,0,0,1,132.88,76.22Z"/><path d="M139.92,77.46v-.61a1.52,1.52,0,0,1-1.32.7,1.68,1.68,0,0,1-.69-.14,1.13,1.13,0,0,1-.47-.35,1.33,1.33,0,0,1-.22-.52,3.57,3.57,0,0,1,0-.66V73.31h.7v2.3a4.09,4.09,0,0,0,0,.74.74.74,0,0,0,.28.44.87.87,0,0,0,.53.16,1.16,1.16,0,0,0,.59-.16.9.9,0,0,0,.39-.44,2.22,2.22,0,0,0,.12-.81V73.31h.7v4.15Z"/><path d="M141.68,77.46V71.73h.7v5.73Z"/><path d="M145,76.83l.1.62a2.65,2.65,0,0,1-.53.06,1.21,1.21,0,0,1-.59-.12.68.68,0,0,1-.3-.32,2.52,2.52,0,0,1-.09-.83V73.86h-.52v-.55h.52v-1l.7-.42v1.45H145v.55h-.71v2.43a1.22,1.22,0,0,0,0,.39.3.3,0,0,0,.12.14.48.48,0,0,0,.24.05Z"/><path d="M148,72.54v-.81h.7v.81Zm0,4.92V73.31h.7v4.15Z"/><path d="M149.85,77.46V73.31h.63v.59a1.49,1.49,0,0,1,1.32-.68,1.73,1.73,0,0,1,.69.13,1.08,1.08,0,0,1,.47.35,1.35,1.35,0,0,1,.22.52,4.09,4.09,0,0,1,0,.68v2.55h-.7V74.94a1.89,1.89,0,0,0-.08-.64.67.67,0,0,0-.29-.34.92.92,0,0,0-.49-.13,1.14,1.14,0,0,0-.78.29,1.41,1.41,0,0,0-.33,1.08v2.27Z"/><path d="M159.31,76.95a2.65,2.65,0,0,1-.75.47,2.18,2.18,0,0,1-.78.14,1.51,1.51,0,0,1-1.05-.33,1.11,1.11,0,0,1-.37-.85,1.16,1.16,0,0,1,.5-1,1.71,1.71,0,0,1,.51-.23,4.79,4.79,0,0,1,.63-.11,6.46,6.46,0,0,0,1.25-.24c0-.1,0-.16,0-.18a.78.78,0,0,0-.2-.61,1.18,1.18,0,0,0-.8-.24,1.24,1.24,0,0,0-.73.17,1.06,1.06,0,0,0-.35.62l-.69-.09a1.71,1.71,0,0,1,.31-.71,1.34,1.34,0,0,1,.62-.42,2.77,2.77,0,0,1,.94-.15,2.48,2.48,0,0,1,.86.13,1.13,1.13,0,0,1,.49.31,1.1,1.1,0,0,1,.22.48,4,4,0,0,1,0,.65v.94A10.1,10.1,0,0,0,160,77a1.57,1.57,0,0,0,.18.5h-.73A1.52,1.52,0,0,1,159.31,76.95Zm-.06-1.57a5.23,5.23,0,0,1-1.15.27,2.58,2.58,0,0,0-.61.14.6.6,0,0,0-.37.56.6.6,0,0,0,.21.47A.92.92,0,0,0,158,77a1.45,1.45,0,0,0,.72-.18,1.1,1.1,0,0,0,.46-.49,1.69,1.69,0,0,0,.11-.7Z"/><path d="M163.07,76.22l.7-.11a1,1,0,0,0,.33.64,1.14,1.14,0,0,0,.75.22,1.1,1.1,0,0,0,.72-.2.59.59,0,0,0,.23-.46.42.42,0,0,0-.21-.37,3,3,0,0,0-.72-.24,6.66,6.66,0,0,1-1.07-.34,1,1,0,0,1-.61-1,1.07,1.07,0,0,1,.13-.51,1.11,1.11,0,0,1,.35-.39,1.43,1.43,0,0,1,.45-.21,2.1,2.1,0,0,1,.61-.08,2.4,2.4,0,0,1,.86.14,1.17,1.17,0,0,1,.54.38,1.49,1.49,0,0,1,.24.64l-.69.09a.75.75,0,0,0-.27-.5,1,1,0,0,0-.63-.18,1.15,1.15,0,0,0-.69.16.46.46,0,0,0-.21.38.39.39,0,0,0,.09.25.62.62,0,0,0,.27.19l.62.18a8.59,8.59,0,0,1,1,.33,1,1,0,0,1,.63,1,1.18,1.18,0,0,1-.21.66,1.33,1.33,0,0,1-.59.48,2.15,2.15,0,0,1-.87.17,2,2,0,0,1-1.23-.34A1.56,1.56,0,0,1,163.07,76.22Z"/><path d="M170.1,76.95a2.65,2.65,0,0,1-.75.47,2.18,2.18,0,0,1-.78.14,1.51,1.51,0,0,1-1.05-.33,1.1,1.1,0,0,1-.37-.85,1.13,1.13,0,0,1,.14-.56,1.15,1.15,0,0,1,.36-.4,1.7,1.7,0,0,1,.51-.23,4.79,4.79,0,0,1,.63-.11,6.49,6.49,0,0,0,1.25-.24c0-.1,0-.16,0-.18a.78.78,0,0,0-.2-.61,1.17,1.17,0,0,0-.8-.24,1.24,1.24,0,0,0-.73.17,1.06,1.06,0,0,0-.35.62l-.69-.09a1.69,1.69,0,0,1,.31-.71,1.35,1.35,0,0,1,.62-.42,2.77,2.77,0,0,1,.94-.15,2.48,2.48,0,0,1,.86.13,1.13,1.13,0,0,1,.49.31,1.1,1.1,0,0,1,.22.48,4,4,0,0,1,0,.65v.94a9.89,9.89,0,0,0,0,1.24,1.57,1.57,0,0,0,.18.5h-.73A1.48,1.48,0,0,1,170.1,76.95ZM170,75.38a5.21,5.21,0,0,1-1.15.27,2.59,2.59,0,0,0-.61.14A.61.61,0,0,0,168,76a.62.62,0,0,0,.12.8.92.92,0,0,0,.62.19,1.45,1.45,0,0,0,.72-.18,1.1,1.1,0,0,0,.46-.49,1.71,1.71,0,0,0,.11-.7Z"/><path d="M172.05,77.46v-3.6h-.62v-.55h.62v-.44a1.92,1.92,0,0,1,.07-.62.89.89,0,0,1,.36-.44,1.29,1.29,0,0,1,.72-.17,3.45,3.45,0,0,1,.66.07l-.11.61a2.34,2.34,0,0,0-.41,0,.61.61,0,0,0-.45.14.74.74,0,0,0-.13.51v.38h.81v.55h-.81v3.6Z"/><path d="M177,76.12l.73.09a1.77,1.77,0,0,1-.64,1,2.16,2.16,0,0,1-2.63-.21,2.19,2.19,0,0,1-.53-1.57,2.29,2.29,0,0,1,.54-1.62,1.82,1.82,0,0,1,1.4-.58,1.77,1.77,0,0,1,1.36.57,2.25,2.25,0,0,1,.53,1.59s0,.1,0,.19h-3.09a1.6,1.6,0,0,0,.39,1,1.15,1.15,0,0,0,.87.36,1.08,1.08,0,0,0,.66-.2A1.35,1.35,0,0,0,177,76.12ZM174.68,75H177a1.4,1.4,0,0,0-.27-.79,1.07,1.07,0,0,0-.87-.41,1.12,1.12,0,0,0-.81.32A1.28,1.28,0,0,0,174.68,75Z"/><path d="M180.17,76.83l.1.62a2.66,2.66,0,0,1-.53.06,1.21,1.21,0,0,1-.59-.12.68.68,0,0,1-.3-.32,2.51,2.51,0,0,1-.09-.83V73.86h-.52v-.55h.52v-1l.7-.42v1.45h.71v.55h-.71v2.43a1.21,1.21,0,0,0,0,.39.29.29,0,0,0,.12.14.47.47,0,0,0,.24.05Z"/><path d="M180.87,79.06l-.08-.66a1.6,1.6,0,0,0,.4.06.78.78,0,0,0,.38-.08.64.64,0,0,0,.23-.22,3.36,3.36,0,0,0,.21-.52l.06-.17-1.57-4.16h.76l.86,2.4q.17.46.3,1a9.64,9.64,0,0,1,.29-.95l.89-2.42h.7l-1.58,4.22a8.27,8.27,0,0,1-.39.94,1.39,1.39,0,0,1-.43.51,1,1,0,0,1-.58.16A1.43,1.43,0,0,1,180.87,79.06Z"/><path d="M187.2,77.46V71.73h.7v2.05a1.57,1.57,0,0,1,1.24-.57,1.67,1.67,0,0,1,.8.18,1.07,1.07,0,0,1,.49.5,2.31,2.31,0,0,1,.15.93v2.63h-.7V74.83a1.09,1.09,0,0,0-.23-.77.85.85,0,0,0-.65-.24,1.14,1.14,0,0,0-.59.16.91.91,0,0,0-.39.44,2,2,0,0,0-.12.77v2.27Z"/><path d="M194.4,76.95a2.66,2.66,0,0,1-.75.47,2.18,2.18,0,0,1-.78.14,1.51,1.51,0,0,1-1.05-.33,1.1,1.1,0,0,1-.37-.85,1.16,1.16,0,0,1,.5-1,1.7,1.7,0,0,1,.51-.23,4.76,4.76,0,0,1,.63-.11,6.49,6.49,0,0,0,1.25-.24c0-.1,0-.16,0-.18a.78.78,0,0,0-.2-.61,1.18,1.18,0,0,0-.8-.24,1.24,1.24,0,0,0-.73.17,1.05,1.05,0,0,0-.35.62l-.69-.09a1.69,1.69,0,0,1,.31-.71,1.34,1.34,0,0,1,.62-.42,2.77,2.77,0,0,1,.94-.15,2.48,2.48,0,0,1,.86.13,1.13,1.13,0,0,1,.49.31,1.11,1.11,0,0,1,.22.48,4,4,0,0,1,0,.65v.94a9.89,9.89,0,0,0,0,1.24,1.55,1.55,0,0,0,.18.5h-.73A1.48,1.48,0,0,1,194.4,76.95Zm-.06-1.57a5.23,5.23,0,0,1-1.15.27,2.58,2.58,0,0,0-.61.14.6.6,0,0,0-.28.23.62.62,0,0,0,.12.8A.92.92,0,0,0,193,77a1.45,1.45,0,0,0,.72-.18,1.1,1.1,0,0,0,.46-.49,1.71,1.71,0,0,0,.11-.7Z"/><path d="M195.81,77.46v-.57l2.64-3-.79,0H196v-.57h3.39v.46l-2.25,2.63-.43.48q.47,0,.89,0h1.92v.61Z"/><path d="M202.93,76.95a2.66,2.66,0,0,1-.75.47,2.18,2.18,0,0,1-.78.14,1.51,1.51,0,0,1-1.05-.33,1.1,1.1,0,0,1-.37-.85,1.16,1.16,0,0,1,.5-1,1.7,1.7,0,0,1,.51-.23,4.76,4.76,0,0,1,.63-.11,6.49,6.49,0,0,0,1.25-.24c0-.1,0-.16,0-.18a.78.78,0,0,0-.2-.61,1.18,1.18,0,0,0-.8-.24,1.24,1.24,0,0,0-.73.17,1.05,1.05,0,0,0-.35.62l-.69-.09a1.69,1.69,0,0,1,.31-.71,1.34,1.34,0,0,1,.62-.42,2.77,2.77,0,0,1,.94-.15,2.48,2.48,0,0,1,.86.13,1.13,1.13,0,0,1,.49.31,1.11,1.11,0,0,1,.22.48,4,4,0,0,1,0,.65v.94a9.89,9.89,0,0,0,0,1.24,1.55,1.55,0,0,0,.18.5h-.73A1.48,1.48,0,0,1,202.93,76.95Zm-.06-1.57a5.23,5.23,0,0,1-1.15.27,2.58,2.58,0,0,0-.61.14.6.6,0,0,0-.28.23.62.62,0,0,0,.12.8.92.92,0,0,0,.62.19,1.45,1.45,0,0,0,.72-.18,1.1,1.1,0,0,0,.46-.49,1.71,1.71,0,0,0,.11-.7Z"/><path d="M204.7,77.46V73.31h.63v.63a1.72,1.72,0,0,1,.45-.58.78.78,0,0,1,.45-.14,1.37,1.37,0,0,1,.72.23l-.24.65a1,1,0,0,0-.52-.15.67.67,0,0,0-.41.14.75.75,0,0,0-.26.38,2.74,2.74,0,0,0-.12.82v2.17Z"/><path d="M210.11,77.46v-.52a1.29,1.29,0,0,1-1.16.62,1.63,1.63,0,0,1-.91-.27,1.8,1.8,0,0,1-.64-.76,2.64,2.64,0,0,1-.23-1.13,2.94,2.94,0,0,1,.21-1.13,1.62,1.62,0,0,1,.62-.78,1.66,1.66,0,0,1,.93-.27,1.38,1.38,0,0,1,1.14.57V71.73h.7v5.73Zm-2.22-2.07a1.8,1.8,0,0,0,.34,1.19A1,1,0,0,0,209,77a1,1,0,0,0,.78-.38,1.74,1.74,0,0,0,.32-1.15,2,2,0,0,0-.33-1.25,1,1,0,0,0-.81-.4,1,1,0,0,0-.78.38A1.88,1.88,0,0,0,207.88,75.39Z"/><path d="M212.1,77.46v-.8h.8v.8Z"/></g></svg>