<svg id="Layer_1" data-name="Layer 1" xmlns="http://www.w3.org/2000/svg" viewBox="0 0 261.08 114.84"><defs><style>.cls-1,.cls-2,.cls-3{fill:none;}.cls-1,.cls-2{stroke:#000;}.cls-1{stroke-miterlimit:10;}.cls-4{font-size:11.96px;}.cls-4,.cls-6{font-family:Arial-BoldMT, Arial;font-weight:700;}.cls-5{fill:#fff;}.cls-6{font-size:9px;}.cls-7{fill-rule:evenodd;}</style></defs><title>ctn_acid_brn_hzrd</title><polyline points="0.81 26.41 260.26 26.41 260.26 0.56 0.81 0.56"/><polygon class="cls-1" points="0.5 0.5 260.58 0.5 260.58 114.34 0.5 114.34 0.5 0.5 0.5 0.5"/><line class="cls-2" x1="0.72" y1="46.47" x2="260.51" y2="46.47"/><line class="cls-2" x1="85.12" y1="46.58" x2="85.12" y2="114.34"/><rect class="cls-3" width="261.07" height="114.83"/><text class="cls-4" transform="translate(82.34 39.48)">Chemical Hazard</text><path class="cls-5" d="M101.57,15.42l3.34,1.06a7.53,7.53,0,0,1-2.55,4.17A7.24,7.24,0,0,1,97.83,22a7.34,7.34,0,0,1-5.59-2.33,8.92,8.92,0,0,1-2.18-6.37,9.4,9.4,0,0,1,2.19-6.64A7.54,7.54,0,0,1,98,4.3a7.07,7.07,0,0,1,5.08,1.86,6.73,6.73,0,0,1,1.75,3.15l-3.41.82a3.52,3.52,0,0,0-3.6-2.87,3.85,3.85,0,0,0-3.07,1.36,6.71,6.71,0,0,0-1.19,4.43c0,2.16.39,3.71,1.17,4.63a3.78,3.78,0,0,0,3,1.37,3.43,3.43,0,0,0,2.36-.87A5.09,5.09,0,0,0,101.57,15.42Z" transform="translate(0)"/><path class="cls-5" d="M123.25,21.72H119.5L118,17.83H111.2l-1.41,3.89h-3.65l6.64-17.13h3.64Zm-6.34-6.78-2.35-6.35-2.3,6.35Z" transform="translate(0)"/><path class="cls-5" d="M125.05,4.59h3.45v9.28a20.61,20.61,0,0,0,.12,2.86,2.79,2.79,0,0,0,1.06,1.69,3.67,3.67,0,0,0,2.27.63,3.45,3.45,0,0,0,2.21-.6,2.35,2.35,0,0,0,.9-1.48,19.37,19.37,0,0,0,.15-2.9V4.59h3.44v9a22.74,22.74,0,0,1-.28,4.35,4.73,4.73,0,0,1-1,2.15,5.18,5.18,0,0,1-2,1.4,8.63,8.63,0,0,1-3.28.52,9.38,9.38,0,0,1-3.71-.57,5.36,5.36,0,0,1-2-1.47,4.78,4.78,0,0,1-1-1.9,21.16,21.16,0,0,1-.34-4.34Z" transform="translate(0)"/><path class="cls-5" d="M146.12,21.72V7.49h-5.06V4.59h13.56v2.9h-5.05V21.72Z" transform="translate(0)"/><path class="cls-5" d="M156.74,21.72V4.59h3.44V21.72Z" transform="translate(0)"/><path class="cls-5" d="M162.76,13.26a10.92,10.92,0,0,1,.78-4.39,8.13,8.13,0,0,1,1.59-2.35A6.67,6.67,0,0,1,167.33,5,9.4,9.4,0,0,1,171,4.3a8,8,0,0,1,6,2.35,9,9,0,0,1,2.27,6.53,9,9,0,0,1-2.25,6.49,8.94,8.94,0,0,1-12.05,0A8.84,8.84,0,0,1,162.76,13.26Zm3.55-.12a6.44,6.44,0,0,0,1.34,4.41,4.35,4.35,0,0,0,3.4,1.5,4.3,4.3,0,0,0,3.38-1.49,6.55,6.55,0,0,0,1.32-4.46,6.46,6.46,0,0,0-1.29-4.4,4.77,4.77,0,0,0-6.85,0A6.53,6.53,0,0,0,166.31,13.14Z" transform="translate(0)"/><path class="cls-5" d="M182,21.72V4.59h3.35l7,11.44V4.59h3.2V21.72H192.1l-6.87-11.17V21.72Z" transform="translate(0)"/><path class="cls-5" d="M77.74,4.41a1.38,1.38,0,0,0-1.35-1,1.27,1.27,0,0,0-1.28,1L66.05,20c-1.2,2-.16,2.78,1,2.86H85.69c1.28-.08,2.23-.88,1-2.86l-9-15.59Z" transform="translate(0)"/><path d="M76.39,22.06a1.75,1.75,0,0,1,0-3.5h.08a1.75,1.75,0,0,1-.08,3.5Z" transform="translate(0)"/><path d="M77,15.78a.59.59,0,0,1-.55.56h-.08a.55.55,0,0,1-.56-.56C74,10,73.13,5.92,76.39,5.92S78.77,10,77,15.78Z" transform="translate(0)"/><text class="cls-6" transform="translate(93.26 66.78)">• Product contains phosphoric acid.<tspan x="0" y="15.8">• Keep out of reach of children.</tspan><tspan x="0" y="31.6">• Use rubber or neoprene gloves.</tspan></text><path class="cls-7" d="M31.86,52.3C38.17,54.1,45,55,52,56.53c4.7,1,10.25,2.2,15.26,3.26,3.2.68,6.37.84,7.21,3.68,1,3.29-1.31,6.43-4.22,6.4a24.86,24.86,0,0,1-4.22-1c-11.13-2.35-24.45-4.68-35.27-7.36.63,3,.83,8.42,1.5,12.94.34,2.34,1.3,5.19-.28,6.4A2.69,2.69,0,0,1,28,79.68C29.25,70,30.36,60.9,31.86,52.3ZM65.77,67.69c1.59.34,3.66,1.11,5,1,3.08-.36,3.7-5,1.49-6.54-.86-.6-3.08-.85-4.76-1.23-11.34-2.54-23.77-4.7-34.73-7.08-.48,1.47-.88,4.54-1.36,6.81C42.27,63.11,54.73,65.34,65.77,67.69Z" transform="translate(0)"/><path class="cls-7" d="M33.08,60.2c10.52.85,23.13,1.06,33.23,1.64,2,.11,5.23.07,6.13,1.09a3.34,3.34,0,0,1-1.36,5.17c-1.81.53-7.1-1.27-9.4-1.63-9.88-1.58-19.15-4.26-28.33-6C33.12,60.53,33.1,60.37,33.08,60.2Z" transform="translate(0)"/><path class="cls-7" d="M34.85,65.92c.66,0,.61.79.41,1.23C34.65,67.23,34.58,66.29,34.85,65.92Z" transform="translate(0)"/><path class="cls-7" d="M26,66.19c.37-.09.27.27.55.28.1.47-.21.52-.14,1-.39-.11-.35.19-.68.14A2,2,0,0,1,26,66.19Z" transform="translate(0)"/><path class="cls-7" d="M34.58,67.56h.68A1.65,1.65,0,0,1,35,68.78c-.34,0-.42-.21-.68-.27C34.17,68,34.71,68.1,34.58,67.56Z" transform="translate(0)"/><path class="cls-7" d="M25.73,67.83c.87-.36,1.18,1.2.41,1.22C25.65,69,25.75,68.35,25.73,67.83Z" transform="translate(0)"/><path class="cls-7" d="M34.58,69.05c-.08.56-.13,1.15-.82,1.09C33.41,69.62,34,68.65,34.58,69.05Z" transform="translate(0)"/><path class="cls-7" d="M27.23,70.55a1.62,1.62,0,0,1-1-1.09C26.94,68.65,27.91,70,27.23,70.55Z" transform="translate(0)"/><path class="cls-7" d="M27.5,70.55c.69.26.65,1.55-.14,1.64-.31-.1.13-1-.41-.82C26.93,70.89,27.41,70.92,27.5,70.55Z" transform="translate(0)"/><path class="cls-7" d="M33.9,70.55c0,.6,0,1.17-.41,1.37C32.73,71.88,33,70.17,33.9,70.55Z" transform="translate(0)"/><path class="cls-7" d="M33.22,72.32h.41a3.39,3.39,0,0,1,.13,1.36c-.38.12-.35-.19-.68-.13C33.17,72.88,32.82,72.63,33.22,72.32Z" transform="translate(0)"/><path class="cls-7" d="M27.91,72.46v1.22a.59.59,0,0,0-.55.28C26.77,73.62,27.18,72.34,27.91,72.46Z" transform="translate(0)"/><path class="cls-7" d="M33.35,74.23c.39-.11.36.19.69.14v1.22C33.19,75.79,33.22,74.57,33.35,74.23Z" transform="translate(0)"/><path class="cls-7" d="M27.36,74.37c.51.16.19,1.31-.13,1.49-.69.07-.37-1-.28-1.36C27.15,74.51,27.34,74.52,27.36,74.37Z" transform="translate(0)"/><path class="cls-7" d="M33.76,76.14c0,.36.05.77-.13,1-.39.11-.36-.19-.68-.14C33.05,76.52,33.06,76,33.76,76.14Z" transform="translate(0)"/><path class="cls-7" d="M27.77,77.23c-.61.11-.76-.25-.82-.69C27.43,76.08,28,76.33,27.77,77.23Z" transform="translate(0)"/><path class="cls-7" d="M34.72,76.82c.42-.07.6.12.54.54C34.94,77.31,34.62,77.27,34.72,76.82Z" transform="translate(0)"/><path class="cls-7" d="M25.86,77.23c.61-.11.55.45.82.68a6.05,6.05,0,0,0,.68-.55c.5.55-.59.67-.54,1.23C26.14,78.49,26.08,77.78,25.86,77.23Z" transform="translate(0)"/><path class="cls-7" d="M33.49,79c-.27-.1-.36-.37-.41-.69h.55A.94.94,0,0,1,33.49,79Z" transform="translate(0)"/><path class="cls-7" d="M27.36,78.45c.42.65-.68.94-.81,1.5a.36.36,0,0,1-.41-.27A3.87,3.87,0,0,1,27.36,78.45Z" transform="translate(0)"/><path class="cls-7" d="M33.49,79.68q.09.63-.54.54C33,79.91,33,79.58,33.49,79.68Z" transform="translate(0)"/><path class="cls-7" d="M27.91,80.36c-.08.43.25.42,0,.68C27.44,81.09,27.33,80.25,27.91,80.36Z" transform="translate(0)"/><path class="cls-7" d="M32.13,81.31v.41a.93.93,0,0,1-.68.14C31.35,81.35,31.66,81.25,32.13,81.31Z" transform="translate(0)"/><path class="cls-7" d="M30.63,81.58c.52.12.74.54.82,1.09A.75.75,0,0,1,30.63,81.58Z" transform="translate(0)"/><path class="cls-7" d="M31.72,83.35c-.53-.13-.79.31-1.09,0C30.58,82.81,31.91,82.49,31.72,83.35Z" transform="translate(0)"/><path class="cls-7" d="M26,81.31c-.08.17.29.61-.14,1,.4.32.54-1.15,1.23-.54.11-.47-.25-.58,0-.82.81.73,1.07-.11,1.77,0-.73,1-2.08,1.37-3.27,1.91,0,.4.31.51.55.68.43-.66,1.68-1.79,2.31-1.36.18-.33.29-.71,1-.55-.05.64-.47.9-.69,1.37-.46,0-.41-.41-.68-.55.12.53.3,1-.54.82.44.33,1.08.46,1.36,1-.31.58-.32-.15-.68-.27-.06.95,1.06.88,1.63.82s.72,1.11,1.37.68-.43-.66-.28-1.23c-.29,0-.29.34-.27.68-.45-.13-.57-.61-1.36-.41-.18-.69.14-.58,0-1s-.59.56-.82,0c.06-.57.84-.43,1.23-.68s-.57-.57-.14-1.23c.57.12.7.67,1.09,1,.19.59-.53.29-.41.81A22.58,22.58,0,0,1,32.4,85c0-.62-.55-.73-.68-1.23.14-.36.11-.89.68-.81.13-.59-.67-.24-.68-.69s.84-.15,1-.54-.78-.13-.54-.82a.78.78,0,0,1,.95.41c-.1-.58.61-.85.82-1.5.43-.06.48.25,1,.14-.23-1.18-1,0-1.5-.54.49-.88,2.64-.09,3.14-1-.88-.72-1.57.13-2.73.41.22-.9-.34-.61-.41-1a2.85,2.85,0,0,1,2.59,0c.43-.43-.23-.46-.13-1,5.13-.72,10,.09,14.84-.27-.19,2.45-1.21,4-3,4.9H43.3c-1.37,0-3.32-.52-3.68.68,2.68.25,6.51.14,10.35.14s7.91-.58,10.49,0A2.87,2.87,0,0,1,61,87.71H40.3c-.24.13-.25.48-.41.68,2.92.1,7,.44,9.54,0,3.7.41,9.42-.07,13.34,0s4.31,4.13,1.09,5.45H40.16v.68c6.63.32,13.85,0,20.7.14,2.28.5,2.26,4.63.14,5.31H40.16v.68a71.06,71.06,0,0,0,7.49.14c3.88,0,8.79-.84,9.4,1.77a3.09,3.09,0,0,1-1.36,3.4H32.81c-2.6,0-5.29.34-7.49,0-3.78-.58-6.16-3.55-8.31-5.72-1.57.05-3.67.17-6.26.14-.15-5.82-.45-12.15-.14-18,2.35.09,4,0,6.4,0,1.89-2.61,4.26-4.73,8.31-5.17-.06.71,1.19,1.76,0,2-.07.43.68,0,.54.54,0,.62-.47,0-.81.14-.29.34.73.54.81,1,.39-.13-.19-.36.14-.54.53-.12.48.33.82.41-.32-.67.23-1.2.95-1.23A2.22,2.22,0,0,1,26,81.31Zm9.53-.54c-.74-.36.39-.53.28-1.09-.18-.19-.65-.09-.82-.27-.11.47.2.52.13,1-.31,0-.56.26-.81,0,.4.81-.51.4-.55,1.09.05.32.65.08.55.54.36-.14.77-.22.81-.68-.5-.14-.38.34-.81.27,0-.18-.2-.26-.14-.54.81.27.24-.3,1.23-.27C35.4,80.84,35.51,80.92,35.53,80.77Zm-1.09,1.77c.26.26,0,.34,0,.68a.73.73,0,0,0,.68-.82A7.22,7.22,0,0,1,32.67,82C32.83,82.88,33.59,82.56,34.44,82.54Zm-1.36.81c.69.09.9.65,1.64.69-.08-.2.16-.71-.14-.69.11.81-.9.27-.68-.27C33.62,83.16,33,82.86,33.08,83.35ZM32.4,84c.33.21.87.21,1.23.4C33.71,83.63,32.79,83.72,32.4,84Z" transform="translate(0)"/></svg>