<svg id="text" xmlns="http://www.w3.org/2000/svg" viewBox="0 0 181.57 130.34"><defs><style>.cls-1{fill:none;}.cls-1,.cls-4{stroke:#000;}.cls-2{fill:#fff;}.cls-3{font-size:10.5px;}.cls-3,.cls-5{font-family:Arial-BoldMT, Arial;font-weight:700;}.cls-5{font-size:16px;fill:#fcfafc;}.cls-6{font-size:6px;fill:#231f20;font-family:ArialMT, Arial;}.cls-7{font-family:MyriadPro-Regular, Myriad Pro;}</style></defs><title>ctn_prprty-dmge_prssrs-tmprtrs</title><rect class="cls-1" x="0.67" y="0.5" width="180.41" height="129.34"/><polyline points="0 27.13 180.66 27.13 180.66 0.67 0 0.67"/><path class="cls-2" d="M47.12,15.57a.56.56,0,0,1-.51.53h-.08a.51.51,0,0,1-.51-.53c-1.69-5.49-2.5-9.34.51-9.34S48.74,10.08,47.12,15.57Zm-.59,5.95a1.66,1.66,0,0,1,0-3.31h.08a1.66,1.66,0,0,1-.08,3.31ZM47.78,4.8a1.27,1.27,0,0,0-1.25-.9,1.15,1.15,0,0,0-1.17.9L37,19.57c-1.1,1.88-.15,2.63,1,2.71H55.12c1.18-.08,2.06-.83,1-2.71Z"/><text class="cls-3" transform="translate(30.19 38.25)">Property Damage Hazard</text><line class="cls-4" x1="0.67" y1="42.21" x2="180.98" y2="42.21"/><text class="cls-5" transform="translate(66.83 19.34)">CAUTION</text><text class="cls-6" transform="translate(3.5 48.97)">Maximum water inlet pressure: 1.0Mpa; <tspan x="0" y="7.2">Minimum water inlet pressure: 0.015Mpa. </tspan><tspan x="0" y="14.4">Install a pressure reducing device when water inlet pressure </tspan><tspan x="0" y="21.6">exceeds 1.0Mpa.</tspan><tspan x="0" y="36">Install a pressure increasing device when the water inlet pressure </tspan><tspan x="0" y="43.2">is lower than 0.015Mpa.</tspan><tspan x="0" y="53.2">Maximum operation water temperature is 135 째F (75</tspan><tspan class="cls-7" x="138.79" y="53.2"> </tspan><tspan x="140.06" y="53.2">째C).</tspan><tspan x="0" y="63.2">Minimum operation water temperature is 135 째F (75</tspan><tspan class="cls-7" x="137.12" y="63.2"> </tspan><tspan x="138.4" y="63.2">째C).</tspan></text></svg>