<svg xmlns="http://www.w3.org/2000/svg" viewBox="0 0 249.19 81.19"><defs><style>.cls-1,.cls-8{fill:none;}.cls-1,.cls-6,.cls-8{stroke:#231f20;}.cls-2,.cls-4,.cls-6,.cls-7{fill:#231f20;}.cls-3{fill:#fff;stroke:#fff;stroke-width:0.24px;}.cls-4{font-size:8.18px;}.cls-4,.cls-7{font-family:ArialMT, Arial;}.cls-5{letter-spacing:-0.02em;}.cls-6{stroke-width:0.97px;}.cls-7{font-size:11.25px;}.cls-8{stroke-width:0.5px;}</style></defs><title>ctn_prprty-dmge-hzrd_anode-mntnnce</title><g id="Layer_1" data-name="Layer 1"><rect class="cls-1" x="6.57" y="4.92" width="236.49" height="70.4"/><polyline class="cls-2" points="7.04 29.9 242.83 29.9 242.83 4.92 7.04 4.92"/><path class="cls-3" d="M90.84,20.05l2.85.9a6.38,6.38,0,0,1-2.18,3.54,6.19,6.19,0,0,1-3.86,1.15,6.27,6.27,0,0,1-4.76-2A7.6,7.6,0,0,1,81,18.26a8,8,0,0,1,1.87-5.64,6.42,6.42,0,0,1,4.93-2,6,6,0,0,1,4.33,1.58,5.71,5.71,0,0,1,1.49,2.68l-2.91.69a3,3,0,0,0-3.06-2.44,3.31,3.31,0,0,0-2.62,1.16,5.69,5.69,0,0,0-1,3.76A6.08,6.08,0,0,0,85,22a3.23,3.23,0,0,0,2.58,1.18,2.92,2.92,0,0,0,2-.75A4.2,4.2,0,0,0,90.84,20.05Z"/><path class="cls-3" d="M109.32,25.4h-3.2l-1.27-3.31H99l-1.2,3.31H94.73l5.66-14.54h3.11Zm-5.41-5.76-2-5.39-2,5.39Z"/><path class="cls-3" d="M110.85,10.86h2.94v7.87a15.3,15.3,0,0,0,.11,2.43,2.36,2.36,0,0,0,.89,1.44,3.15,3.15,0,0,0,1.94.54,3,3,0,0,0,1.89-.52,2,2,0,0,0,.76-1.25,15.84,15.84,0,0,0,.13-2.47v-8h2.93v7.63a19.66,19.66,0,0,1-.23,3.7,4.12,4.12,0,0,1-.88,1.83,4.5,4.5,0,0,1-1.71,1.18,7.37,7.37,0,0,1-2.8.44,8.11,8.11,0,0,1-3.16-.48,4.51,4.51,0,0,1-1.7-1.25,4,4,0,0,1-.82-1.61,17.71,17.71,0,0,1-.29-3.69Z"/><path class="cls-3" d="M128.81,25.4V13.32H124.5V10.86h11.55v2.46h-4.3V25.4Z"/><path class="cls-3" d="M137.85,25.4V10.86h2.94V25.4Z"/><path class="cls-3" d="M143,18.22a9.29,9.29,0,0,1,.66-3.73,6.77,6.77,0,0,1,1.36-2,5.57,5.57,0,0,1,1.88-1.31,7.84,7.84,0,0,1,3.13-.58,6.85,6.85,0,0,1,5.14,2,7.64,7.64,0,0,1,1.93,5.55,7.66,7.66,0,0,1-1.91,5.51,6.81,6.81,0,0,1-5.12,2,6.89,6.89,0,0,1-5.16-2A7.54,7.54,0,0,1,143,18.22Zm3-.1a5.4,5.4,0,0,0,1.14,3.74,3.9,3.9,0,0,0,5.77,0,5.55,5.55,0,0,0,1.13-3.79,5.47,5.47,0,0,0-1.1-3.73,4.06,4.06,0,0,0-5.83,0A5.5,5.5,0,0,0,146,18.12Z"/><path class="cls-3" d="M159.41,25.4V10.86h2.86l5.95,9.71V10.86h2.72V25.4H168l-5.86-9.48V25.4Z"/><text class="cls-4" transform="translate(34.63 56.54)"><tspan class="cls-5">A</tspan><tspan x="5.31" y="0">void damage.</tspan></text><path class="cls-2" d="M32.31,54.1a1.7,1.7,0,1,1-1.71-1.7A1.71,1.71,0,0,1,32.31,54.1Z"/><line class="cls-6" x1="6.57" y1="45.31" x2="243" y2="45.31"/><text class="cls-7" transform="translate(61.56 40.87)">Property Damage Hazard</text><rect class="cls-8" x="0.25" y="0.25" width="248.69" height="80.69"/><text class="cls-4" transform="translate(34.52 68.78)">Inspection and replacement of anode rod required.</text><path class="cls-2" d="M32.19,66.33a1.7,1.7,0,1,1-1.7-1.7A1.7,1.7,0,0,1,32.19,66.33Z"/></g></svg>