<svg id="Layer_2" data-name="Layer 2" xmlns="http://www.w3.org/2000/svg" xmlns:xlink="http://www.w3.org/1999/xlink" viewBox="0 0 254.97 84.23"><defs><style>.cls-1,.cls-3{fill:none;}.cls-2{clip-path:url(#clip-path);}.cls-3{stroke:#231f20;stroke-width:0.98px;}.cls-4,.cls-6,.cls-7{fill:#231f20;}.cls-5{font-size:20px;fill:#fff;}.cls-5,.cls-6,.cls-7{font-family:Arial-BoldMT, Arial;font-weight:700;}.cls-6{font-size:10px;}.cls-7{font-size:8px;}.cls-8{letter-spacing:-0.02em;}.cls-9{letter-spacing:-0.07em;}.cls-10{letter-spacing:-0.04em;}</style><clipPath id="clip-path" transform="translate(-2.88 -3.08)"><polygon class="cls-1" points="3.37 81.02 257.36 81.02 257.85 3.08 2.88 3.08 3.37 81.02"/></clipPath></defs><title>ctn_hvy-wght_of_solex_pmp</title><g class="cls-2"><path class="cls-3" d="M251.51,74H9.71V9.12h241.8Zm5.85,7H3.37V3.57h254Z" transform="translate(-2.88 -3.08)"/></g><rect class="cls-4" x="6.6" y="6.14" width="241.97" height="31.6"/><g class="cls-2"><text class="cls-5" transform="translate(82.53 29.3)">CAUTION</text><text class="cls-6" transform="translate(240.54 80.47)"> </text></g><text class="cls-7" transform="translate(8.6 47.61)">DUE <tspan class="cls-8" x="19.11" y="0">T</tspan><tspan x="23.86" y="0">O THE WEIGHT OF THE SOLEX PUM</tspan><tspan class="cls-8" x="163.41" y="0">P</tspan><tspan x="168.61" y="0" xml:space="preserve"> S</tspan><tspan class="cls-9" x="176.16" y="0">TA</tspan><tspan x="185.64" y="0">TION THE</tspan><tspan x="0" y="9.6">HANGAR</tspan><tspan class="cls-10" x="35.11" y="9.6"> </tspan><tspan x="37.04" y="9.6">ANCHORS MUST BE</tspan><tspan class="cls-10" x="115.7" y="9.6"> </tspan><tspan class="cls-9" x="117.63" y="9.6">A</tspan><tspan x="122.81" y="9.6">T</tspan><tspan class="cls-9" x="127.7" y="9.6">T</tspan><tspan x="131.99" y="9.6">ACHED </tspan><tspan class="cls-8" x="162.66" y="9.6">T</tspan><tspan x="167.4" y="9.6">O</tspan><tspan class="cls-10" x="173.63" y="9.6" xml:space="preserve"> A</tspan><tspan x="181.03" y="9.6" xml:space="preserve"> STRUCTURA</tspan><tspan class="cls-8" x="233.03" y="9.6">L</tspan><tspan x="0" y="19.2">SUPPORT LIKE</tspan><tspan class="cls-10" x="59.12" y="19.2" xml:space="preserve"> A</tspan><tspan x="66.52" y="19.2" xml:space="preserve"> STUD</tspan></text></svg>