<svg id="Layer_2" data-name="Layer 2" xmlns="http://www.w3.org/2000/svg" xmlns:xlink="http://www.w3.org/1999/xlink" viewBox="0 0 309.19 126.69"><defs><style>.cls-1,.cls-3{fill:none;}.cls-2{clip-path:url(#clip-path);}.cls-3{stroke:#231f20;stroke-width:0.98px;}.cls-4,.cls-6{fill:#231f20;}.cls-5{font-size:21px;fill:#fff;font-family:Arial-BoldMT, Arial;font-weight:700;}.cls-6{font-size:8px;font-family:ArialMT, Arial;}.cls-7{letter-spacing:-0.02em;}.cls-8{letter-spacing:-0.04em;}.cls-9{letter-spacing:-0.07em;}.cls-10{letter-spacing:-0.06em;}.cls-11{letter-spacing:-0.11em;}</style><clipPath id="clip-path" transform="translate(0 0)"><rect class="cls-1" width="309.19" height="126.69"/></clipPath></defs><title>ctn_frost-dmge_frm_solar-flshng</title><g class="cls-2"><path class="cls-3" d="M302.85,121H6.83V6h296Zm5.85,5.23H.49V.49H308.7Z" transform="translate(0 0)"/></g><rect class="cls-4" x="6.5" y="6.76" width="296.19" height="21.71"/><text class="cls-5" transform="translate(106.77 25.5)">CAUTION</text><text class="cls-6" transform="translate(18.49 37.98)">SOLAR<tspan class="cls-7" x="27.12" y="0"> </tspan><tspan x="29.2" y="0">THERMA</tspan><tspan class="cls-8" x="62.98" y="0">L</tspan><tspan x="67.13" y="0" xml:space="preserve"> INS</tspan><tspan class="cls-9" x="82.69" y="0">T</tspan><tspan x="86.98" y="0">ALL</tspan><tspan class="cls-9" x="101.21" y="0">A</tspan><tspan x="105.96" y="0">TIONS CANNO</tspan><tspan class="cls-7" x="161.52" y="0">T</tspan><tspan x="166.26" y="0" xml:space="preserve"> BE COMPLETE</tspan><tspan class="cls-9" x="225.38" y="0">L</tspan><tspan class="cls-7" x="229.24" y="0">Y</tspan><tspan x="234.43" y="0" xml:space="preserve"> EMPTIED</tspan><tspan x="0.02" y="9.6">AFTER FLUSHING.</tspan><tspan class="cls-7" x="71.13" y="9.6"> </tspan><tspan x="73.21" y="9.6">THERE IS</tspan><tspan class="cls-10" x="110.11" y="9.6" xml:space="preserve"> A</tspan><tspan x="116.78" y="9.6" xml:space="preserve"> DANGER OF FROS</tspan><tspan class="cls-7" x="191.01" y="9.6">T</tspan><tspan x="195.75" y="9.6" xml:space="preserve"> DAMAGE IF </tspan><tspan class="cls-8" x="244.2" y="9.6">W</tspan><tspan class="cls-9" x="251.45" y="9.6">A</tspan><tspan x="256.2" y="9.6">TER</tspan><tspan x="2.68" y="19.2">IS USED FOR FLUSHING.</tspan><tspan class="cls-7" x="98.69" y="19.2"> </tspan><tspan x="100.77" y="19.2">THERE IS</tspan><tspan class="cls-10" x="137.66" y="19.2" xml:space="preserve"> A</tspan><tspan x="144.34" y="19.2" xml:space="preserve"> DANGER OF FROS</tspan><tspan class="cls-7" x="218.56" y="19.2">T</tspan><tspan x="223.31" y="19.2" xml:space="preserve"> DAMAGE IF</tspan><tspan class="cls-8" x="-7.54" y="28.8">W</tspan><tspan class="cls-9" x="-0.29" y="28.8">A</tspan><tspan x="4.45" y="28.8">TER IS USED FOR FLUSHING. ON</tspan><tspan class="cls-9" x="132.91" y="28.8">L</tspan><tspan class="cls-7" x="136.76" y="28.8">Y</tspan><tspan x="141.96" y="28.8" xml:space="preserve"> USE </tspan><tspan class="cls-8" x="162.85" y="28.8">W</tspan><tspan class="cls-9" x="170.1" y="28.8">A</tspan><tspan x="174.85" y="28.8">TER</tspan><tspan class="cls-7" x="190.85" y="28.8" xml:space="preserve"> T</tspan><tspan x="197.67" y="28.8">O FLUS</tspan><tspan class="cls-7" x="226.56" y="28.8"> </tspan><tspan x="228.64" y="28.8">THE SYSTEM</tspan><tspan x="-0.56" y="38.4">WHEN</tspan><tspan class="cls-7" x="23.88" y="38.4"> </tspan><tspan x="25.96" y="38.4">THE OUTSIDE</tspan><tspan class="cls-7" x="79.74" y="38.4"> </tspan><tspan x="81.82" y="38.4">TEMPER</tspan><tspan class="cls-9" x="115.16" y="38.4">A</tspan><tspan x="119.9" y="38.4">TURE IS</tspan><tspan class="cls-10" x="151.46" y="38.4"> </tspan><tspan x="153.24" y="38.4">ABOVE 32° </tspan><tspan class="cls-11" x="197.35" y="38.4">F</tspan><tspan x="201.35" y="38.4">, OTHE</tspan><tspan class="cls-7" x="228.02" y="38.4">R</tspan><tspan x="233.65" y="38.4">WISE USE</tspan><tspan x="3.63" y="48">THE SOLAR FLUID</tspan><tspan class="cls-7" x="74.31" y="48" xml:space="preserve"> T</tspan><tspan x="81.13" y="48">O FLUSH MAKING SURE</tspan><tspan class="cls-7" x="174.03" y="48" xml:space="preserve"> T</tspan><tspan x="180.85" y="48">O FI</tspan><tspan class="cls-9" x="196.41" y="48">L</tspan><tspan x="200.26" y="48">TER</tspan><tspan class="cls-10" x="216.26" y="48"> </tspan><tspan x="218.04" y="48">AN</tspan><tspan class="cls-7" x="229.16" y="48">Y</tspan><tspan x="234.35" y="48" xml:space="preserve"> DEBRIS </tspan><tspan x="90.02" y="57.6">BEFORE FINA</tspan><tspan class="cls-8" x="143.36" y="57.6">L</tspan><tspan x="147.51" y="57.6" xml:space="preserve"> FILLING.</tspan><tspan x="8.74" y="67.2">USE</tspan><tspan class="cls-10" x="25.19" y="67.2" xml:space="preserve"> A</tspan><tspan x="31.86" y="67.2"> </tspan><tspan class="cls-8" x="34.08" y="67.2">W</tspan><tspan class="cls-9" x="41.34" y="67.2">A</tspan><tspan x="46.08" y="67.2">TER / PROPYLENE G</tspan><tspan class="cls-9" x="126.1" y="67.2">L</tspan><tspan x="129.96" y="67.2">YCO</tspan><tspan class="cls-8" x="147.29" y="67.2">L</tspan><tspan x="151.44" y="67.2" xml:space="preserve"> MIXTURE</tspan><tspan class="cls-10" x="189.67" y="67.2"> </tspan><tspan x="191.45" y="67.2">AS</tspan><tspan class="cls-10" x="202.12" y="67.2" xml:space="preserve"> A</tspan><tspan x="208.79" y="67.2" xml:space="preserve"> SOLAR FLUID</tspan><tspan x="61.27" y="76.8">(MAXIMUM 50% PROPYLENE G</tspan><tspan class="cls-9" x="180.41" y="76.8">L</tspan><tspan x="184.27" y="76.8">YCOL).</tspan></text></svg>