<svg xmlns="http://www.w3.org/2000/svg" viewBox="0 0 243.74 94.25"><defs><style>.cls-1,.cls-7{fill:none;}.cls-1,.cls-5,.cls-7{stroke:#231f20;}.cls-2,.cls-4,.cls-5,.cls-6{fill:#231f20;}.cls-3{fill:#fff;stroke:#fff;stroke-width:0.24px;}.cls-4{font-size:8px;}.cls-4,.cls-6{font-family:ArialMT, Arial;}.cls-5{stroke-width:0.95px;}.cls-6{font-size:11px;}.cls-7{stroke-width:0.5px;}</style></defs><title>ctn_prprty-dmge-hzrd_frm_rlf-vlve-dschrge</title><g id="Layer_1" data-name="Layer 1"><rect class="cls-1" x="6.44" y="5.79" width="231.31" height="82.78"/><polyline class="cls-2" points="6.89 33.2 237.51 33.2 237.51 5.7 6.89 5.7"/><path class="cls-3" d="M88.86,21.57l2.78.89a6.25,6.25,0,0,1-2.13,3.45A6,6,0,0,1,85.73,27a6.1,6.1,0,0,1-4.65-1.93,7.4,7.4,0,0,1-1.83-5.29,7.8,7.8,0,0,1,1.84-5.52,6.31,6.31,0,0,1,4.82-2,5.91,5.91,0,0,1,4.24,1.54A5.64,5.64,0,0,1,91.6,16.5l-2.84.68a2.93,2.93,0,0,0-3-2.39,3.21,3.21,0,0,0-2.56,1.14,5.52,5.52,0,0,0-1,3.67,6,6,0,0,0,1,3.84,3.15,3.15,0,0,0,2.53,1.15,2.84,2.84,0,0,0,2-.73A4.22,4.22,0,0,0,88.86,21.57Z"/><path class="cls-3" d="M106.93,26.8H103.8l-1.24-3.23H96.88L95.7,26.8h-3L98.2,12.58h3Zm-5.29-5.62-2-5.28-1.92,5.28Z"/><path class="cls-3" d="M108.43,12.58h2.87v7.7a14.61,14.61,0,0,0,.11,2.38,2.28,2.28,0,0,0,.87,1.4,3.08,3.08,0,0,0,1.9.53,2.9,2.9,0,0,0,1.84-.5,1.92,1.92,0,0,0,.75-1.23,16.72,16.72,0,0,0,.12-2.41V12.58h2.88v7.47a18.67,18.67,0,0,1-.24,3.62,3.9,3.9,0,0,1-.86,1.78A4.23,4.23,0,0,1,117,26.61a7.23,7.23,0,0,1-2.73.43,7.75,7.75,0,0,1-3.09-.47,4.45,4.45,0,0,1-1.67-1.22,4,4,0,0,1-.8-1.58,17,17,0,0,1-.28-3.6Z"/><path class="cls-3" d="M126,26.8V15h-4.22V12.58h11.3V15h-4.21V26.8Z"/><path class="cls-3" d="M134.84,26.8V12.58h2.87V26.8Z"/><path class="cls-3" d="M139.86,19.78a9.1,9.1,0,0,1,.65-3.65,6.92,6.92,0,0,1,1.32-1.95,5.72,5.72,0,0,1,1.84-1.28,7.93,7.93,0,0,1,3.07-.56,6.69,6.69,0,0,1,5,1.95,7.51,7.51,0,0,1,1.88,5.42,7.44,7.44,0,0,1-1.87,5.39,7.49,7.49,0,0,1-10.05,0A7.34,7.34,0,0,1,139.86,19.78Zm3-.1a5.29,5.29,0,0,0,1.12,3.66,3.62,3.62,0,0,0,2.83,1.25,3.57,3.57,0,0,0,2.81-1.24,5.39,5.39,0,0,0,1.11-3.71A5.3,5.3,0,0,0,149.61,16a3.59,3.59,0,0,0-2.84-1.21A3.64,3.64,0,0,0,143.91,16,5.35,5.35,0,0,0,142.82,19.68Z"/><path class="cls-3" d="M155.92,26.8V12.58h2.79l5.82,9.5v-9.5h2.67V26.8h-2.88l-5.73-9.27V26.8Z"/><text class="cls-4" transform="translate(49.7 66.07)">Relief valve discharge pipe must terminate <tspan x="0" y="9.6">at adequate/suitable drain.</tspan></text><path class="cls-2" d="M47.42,63.68A1.66,1.66,0,1,1,45.76,62,1.66,1.66,0,0,1,47.42,63.68Z"/><line class="cls-5" x1="6.69" y1="49.21" x2="237.68" y2="49.21"/><text class="cls-6" transform="translate(82.68 44.94)">Damage Hazard</text><rect class="cls-7" x="0.25" y="0.25" width="243.24" height="93.75"/></g></svg>