<svg xmlns="http://www.w3.org/2000/svg" viewBox="0 0 238.89 111.96"><defs><style>.cls-1,.cls-9{fill:#fff;}.cls-1,.cls-2{fill-rule:evenodd;}.cls-11,.cls-3,.cls-4,.cls-5,.cls-6,.cls-8{fill:none;}.cls-10,.cls-11,.cls-3,.cls-4,.cls-5,.cls-6,.cls-7,.cls-8,.cls-9{stroke:#000;}.cls-3{stroke-width:0.89px;}.cls-4{stroke-width:0.89px;}.cls-10,.cls-11,.cls-5,.cls-6,.cls-7,.cls-8,.cls-9{stroke-linecap:round;stroke-linejoin:round;}.cls-5{stroke-width:0.25px;}.cls-6,.cls-7{stroke-width:0.5px;}.cls-7{fill:#bfbfbf;}.cls-8{stroke-width:1.5px;}.cls-11,.cls-9{stroke-width:0.72px;}.cls-10{fill:#e6e6e6;stroke-width:0.67px;}.cls-12{font-size:9px;font-family:ArialMT, Arial;}.cls-13{letter-spacing:-0.11em;}.cls-14{letter-spacing:0.19em;}.cls-15{letter-spacing:0.19em;}.cls-16{letter-spacing:0.19em;}.cls-17{letter-spacing:0.52em;}.cls-18{letter-spacing:0.52em;}.cls-19{letter-spacing:1.04em;}.cls-20{letter-spacing:1.04em;}.cls-21{letter-spacing:0.2em;}.cls-22{letter-spacing:0.2em;}.cls-23{letter-spacing:-0.02em;}.cls-24{letter-spacing:-0.02em;}.cls-25{letter-spacing:0.77em;}.cls-26{letter-spacing:0.77em;}</style></defs><title>dngr_prprty-dmge-hzrd_frm_solar_fluid_boil</title><g id="Layer_1" data-name="Layer 1"><polyline points="0.75 0.11 102.96 0.11 102.96 24.07 0.75 24.07"/><path class="cls-1" d="M27.92,16.37c3.5,0,5.79-1.56,5.79-5.64,0-3.6-2.19-5.2-5.69-5.2H23.21V16.37" transform="translate(-0.02 -0.03)"/><polyline class="cls-1" points="37.63 16.34 38.06 14.93 41.61 14.93 42 16.34 45.55 16.34 41.66 5.5 38.06 5.5 34.17 16.34"/><polyline class="cls-1" points="54.01 11.43 53.87 8.95 53.87 5.5 57.27 5.5 57.27 16.34 53.91 16.34 50.02 10.41 50.17 12.89 50.17 16.34 46.77 16.34 46.77 5.5 50.12 5.5"/><path class="cls-1" d="M69.89,16.42H67.6l-.15-1.12a3.87,3.87,0,0,1-3.26,1.36c-2.77,0-5.25-1.8-5.25-5.59,0-3.45,2.14-5.84,5.69-5.84,2.58,0,4.67,1.37,5.11,4H66.38a1.74,1.74,0,0,0-1.84-1.36c-1.37,0-2.05,1.21-2.05,3.16,0,1.51.49,2.92,2.29,2.92a1.85,1.85,0,0,0,1.8-1.27H65V10.39h4.87" transform="translate(-0.02 -0.03)"/><polyline class="cls-1" points="72.05 16.34 72.05 5.5 80.9 5.5 80.9 8.02 75.6 8.02 75.6 9.58 80.07 9.58 80.07 12.11 75.6 12.11 75.6 13.81 81.09 13.81 81.09 16.34"/><path class="cls-1" d="M87.39,12.58c1.65,0,1.9.48,1.9,1.89a6.54,6.54,0,0,0,.19,1.9h3.6V16c-.44,0-.39-.49-.39-1.9,0-2.19-.68-2.48-1.85-2.87a2.54,2.54,0,0,0,1.85-2.67c0-2.09-1.21-3.06-4.81-3.06H82.77V16.37h3.55V12.58" transform="translate(-0.02 -0.03)"/><polyline class="cls-2" points="40.98 12.64 38.74 12.64 39.81 8.75"/><path class="cls-2" d="M86.32,8.05H88c.83,0,1.41.35,1.41,1.12s-.58,1-1.65,1H86.32" transform="translate(-0.02 -0.03)"/><path class="cls-2" d="M19.46,16.47H8.08c-.73,0-1.36-.54-.63-1.75L13,5.18a.77.77,0,0,1,.78-.58.85.85,0,0,1,.83.58l5.49,9.54c.73,1.21.15,1.7-.63,1.75" transform="translate(-0.02 -0.03)"/><path class="cls-2" d="M13.77,6.79c-1.75,0-1.26,2.19-.29,5.3a.31.31,0,0,0,.29.29h0a.32.32,0,0,0,.34-.29c1-3.11,1.46-5.3-.34-5.3" transform="translate(-0.02 -0.03)"/><path class="cls-2" d="M13.77,13.6h0a.92.92,0,0,0-.92.92.93.93,0,0,0,.92,1,.95.95,0,1,0,0-1.89" transform="translate(-0.02 -0.03)"/><path class="cls-1" d="M14.16,12.14a.37.37,0,0,1-.34.34h-.05a.34.34,0,0,1-.34-.34c-1.12-3.55-1.65-6,.34-6s1.46,2.48.39,6M13.77,16a1.07,1.07,0,0,1,0-2.14h.05A1.07,1.07,0,0,1,13.77,16Zm.83-10.8a.85.85,0,0,0-.83-.58.77.77,0,0,0-.78.58L7.45,14.72c-.73,1.21-.1,1.7.63,1.75H19.46c.78,0,1.36-.54.63-1.75Z" transform="translate(-0.02 -0.03)"/><path class="cls-2" d="M25.93,13.69V8.2H28c2.38,0,3,.78,3,2.53,0,2.33-.77,3-3.06,3" transform="translate(-0.02 -0.03)"/><line class="cls-3" x1="103.16" y1="111.14" x2="103.16" y2="0.11"/><rect class="cls-4" x="0.45" y="0.45" width="237.99" height="111.07"/></g><g id="Layer_3" data-name="Layer 3"><g id="CIRCLE"><path class="cls-5" d="M22.21,37.55a8.06,8.06,0,1,0-8.06,8.05,8.06,8.06,0,0,0,8.06-8.05Z" transform="translate(-0.02 -0.03)"/></g><g id="ARC"><path class="cls-6" d="M17.07,29.52a2.3,2.3,0,0,0,.73-2" transform="translate(-0.02 -0.03)"/></g><g id="ARC-2" data-name="ARC"><path class="cls-6" d="M18.53,25.51a2.28,2.28,0,0,0-.73,2" transform="translate(-0.02 -0.03)"/></g><g id="ARC-3" data-name="ARC"><path class="cls-6" d="M18.53,25.51a3.15,3.15,0,0,0,.55,2.75" transform="translate(-0.02 -0.03)"/></g><g id="ARC-4" data-name="ARC"><path class="cls-6" d="M19.64,31a3.1,3.1,0,0,0-.56-2.74" transform="translate(-0.02 -0.03)"/></g><g id="ARC-5" data-name="ARC"><path class="cls-6" d="M19.64,31A2.26,2.26,0,0,0,21,29.37" transform="translate(-0.02 -0.03)"/></g><g id="ARC-6" data-name="ARC"><path class="cls-6" d="M22.38,27.73A2.3,2.3,0,0,0,21,29.37" transform="translate(-0.02 -0.03)"/></g><g id="ARC-7" data-name="ARC"><path class="cls-6" d="M22.38,27.73A3.18,3.18,0,0,0,22,30.5" transform="translate(-0.02 -0.03)"/></g><g id="ARC-8" data-name="ARC"><path class="cls-6" d="M21.54,33.28A3.13,3.13,0,0,0,22,30.5" transform="translate(-0.02 -0.03)"/></g><g id="ARC-9" data-name="ARC"><path class="cls-6" d="M21.54,33.28a2.28,2.28,0,0,0,1.85-1.07" transform="translate(-0.02 -0.03)"/></g><g id="ARC-10" data-name="ARC"><path class="cls-6" d="M25.24,31.14a2.3,2.3,0,0,0-1.85,1.07" transform="translate(-0.02 -0.03)"/></g><g id="ARC-11" data-name="ARC"><path class="cls-6" d="M25.24,31.14A3.15,3.15,0,0,0,23.9,33.6" transform="translate(-0.02 -0.03)"/></g><g id="ARC-12" data-name="ARC"><path class="cls-6" d="M22.56,36.06A3.1,3.1,0,0,0,23.9,33.6" transform="translate(-0.02 -0.03)"/></g><g id="ARC-13" data-name="ARC"><path class="cls-6" d="M22.56,36.06a2.26,2.26,0,0,0,2.1-.37" transform="translate(-0.02 -0.03)"/></g><g id="ARC-14" data-name="ARC"><path class="cls-6" d="M26.76,35.32a2.3,2.3,0,0,0-2.1.37" transform="translate(-0.02 -0.03)"/></g><g id="ARC-15" data-name="ARC"><path class="cls-6" d="M26.76,35.32a3.14,3.14,0,0,0-2.1,1.85" transform="translate(-0.02 -0.03)"/></g><g id="ARC-16" data-name="ARC"><path class="cls-6" d="M22.56,39a3.13,3.13,0,0,0,2.1-1.86" transform="translate(-0.02 -0.03)"/></g><g id="ARC-17" data-name="ARC"><path class="cls-6" d="M22.56,39a2.3,2.3,0,0,0,2.1.37" transform="translate(-0.02 -0.03)"/></g><g id="ARC-18" data-name="ARC"><path class="cls-6" d="M26.76,39.77a2.29,2.29,0,0,0-2.1-.37" transform="translate(-0.02 -0.03)"/></g><g id="ARC-19" data-name="ARC"><path class="cls-6" d="M26.76,39.77a3.11,3.11,0,0,0-2.6,1" transform="translate(-0.02 -0.03)"/></g><g id="ARC-20" data-name="ARC"><path class="cls-6" d="M21.54,41.81a3.12,3.12,0,0,0,2.62-1" transform="translate(-0.02 -0.03)"/></g><g id="ARC-21" data-name="ARC"><path class="cls-6" d="M21.54,41.81a2.26,2.26,0,0,0,1.85,1.07" transform="translate(-0.02 -0.03)"/></g><g id="ARC-22" data-name="ARC"><path class="cls-6" d="M25.24,44a2.28,2.28,0,0,0-1.85-1.07" transform="translate(-0.02 -0.03)"/></g><g id="ARC-23" data-name="ARC"><path class="cls-6" d="M25.24,44a3.14,3.14,0,0,0-2.8.07" transform="translate(-0.02 -0.03)"/></g><g id="ARC-24" data-name="ARC"><path class="cls-6" d="M19.64,44.09a3.14,3.14,0,0,0,2.8-.07" transform="translate(-0.02 -0.03)"/></g><g id="ARC-25" data-name="ARC"><path class="cls-6" d="M19.64,44.09A2.26,2.26,0,0,0,21,45.72" transform="translate(-0.02 -0.03)"/></g><g id="ARC-26" data-name="ARC"><path class="cls-6" d="M22.38,47.36A2.28,2.28,0,0,0,21,45.72" transform="translate(-0.02 -0.03)"/></g><g id="ARC-27" data-name="ARC"><path class="cls-6" d="M22.38,47.36a3.14,3.14,0,0,0-2.65-.9" transform="translate(-0.02 -0.03)"/></g><g id="ARC-28" data-name="ARC"><path class="cls-6" d="M17.07,45.57a3.13,3.13,0,0,0,2.66.89" transform="translate(-0.02 -0.03)"/></g><g id="ARC-29" data-name="ARC"><path class="cls-6" d="M17.07,45.57a2.3,2.3,0,0,0,.73,2" transform="translate(-0.02 -0.03)"/></g><g id="ARC-30" data-name="ARC"><path class="cls-6" d="M18.53,49.58a2.27,2.27,0,0,0-.73-2" transform="translate(-0.02 -0.03)"/></g><g id="ARC-31" data-name="ARC"><path class="cls-6" d="M14.15,46.08a3.11,3.11,0,0,0,2.19,1.75" transform="translate(-0.02 -0.03)"/></g><g id="ARC-32" data-name="ARC"><path class="cls-6" d="M14.15,46.08a2.31,2.31,0,0,0,0,2.14" transform="translate(-0.02 -0.03)"/></g><g id="ARC-33" data-name="ARC"><path class="cls-6" d="M14.15,50.35a2.29,2.29,0,0,0,0-2.13" transform="translate(-0.02 -0.03)"/></g><g id="ARC-34" data-name="ARC"><path class="cls-6" d="M14.15,50.35A3.13,3.13,0,0,0,12.69,48" transform="translate(-0.02 -0.03)"/></g><g id="ARC-35" data-name="ARC"><path class="cls-6" d="M11.23,45.57A3.11,3.11,0,0,0,12.69,48" transform="translate(-0.02 -0.03)"/></g><g id="ARC-36" data-name="ARC"><path class="cls-6" d="M11.23,45.57a2.28,2.28,0,0,0-.73,2" transform="translate(-0.02 -0.03)"/></g><g id="ARC-37" data-name="ARC"><path class="cls-6" d="M9.77,49.58a2.28,2.28,0,0,0,.73-2" transform="translate(-0.02 -0.03)"/></g><g id="ARC-38" data-name="ARC"><path class="cls-6" d="M9.77,49.58a3.13,3.13,0,0,0-.56-2.75" transform="translate(-0.02 -0.03)"/></g><g id="ARC-39" data-name="ARC"><path class="cls-6" d="M8.66,44.09a3.13,3.13,0,0,0,.55,2.74" transform="translate(-0.02 -0.03)"/></g><g id="ARC-40" data-name="ARC"><path class="cls-6" d="M8.66,44.09a2.26,2.26,0,0,0-1.37,1.63" transform="translate(-0.02 -0.03)"/></g><g id="ARC-41" data-name="ARC"><path class="cls-6" d="M5.92,47.36a2.3,2.3,0,0,0,1.37-1.64" transform="translate(-0.02 -0.03)"/></g><g id="ARC-42" data-name="ARC"><path class="cls-6" d="M5.92,47.36a3.14,3.14,0,0,0,.41-2.77" transform="translate(-0.02 -0.03)"/></g><g id="ARC-43" data-name="ARC"><path class="cls-6" d="M6.75,41.81a3.19,3.19,0,0,0-.42,2.78" transform="translate(-0.02 -0.03)"/></g><g id="ARC-44" data-name="ARC"><path class="cls-6" d="M6.75,41.81A2.31,2.31,0,0,0,4.9,42.88" transform="translate(-0.02 -0.03)"/></g><g id="ARC-45" data-name="ARC"><path class="cls-6" d="M3.06,44A2.28,2.28,0,0,0,4.9,42.88" transform="translate(-0.02 -0.03)"/></g><g id="ARC-46" data-name="ARC"><path class="cls-6" d="M3.06,44A3.13,3.13,0,0,0,4.4,41.49" transform="translate(-0.02 -0.03)"/></g><g id="ARC-47" data-name="ARC"><path class="cls-6" d="M5.74,39A3.1,3.1,0,0,0,4.4,41.49" transform="translate(-0.02 -0.03)"/></g><g id="ARC-48" data-name="ARC"><path class="cls-6" d="M5.74,39a2.26,2.26,0,0,0-2.1.37" transform="translate(-0.02 -0.03)"/></g><g id="ARC-49" data-name="ARC"><path class="cls-6" d="M1.53,39.77a2.32,2.32,0,0,0,2.11-.37" transform="translate(-0.02 -0.03)"/></g><g id="ARC-50" data-name="ARC"><path class="cls-6" d="M1.53,39.77a3.13,3.13,0,0,0,2.11-1.85" transform="translate(-0.02 -0.03)"/></g><g id="ARC-51" data-name="ARC"><path class="cls-6" d="M5.74,36.06a3.13,3.13,0,0,0-2.1,1.86" transform="translate(-0.02 -0.03)"/></g><g id="ARC-52" data-name="ARC"><path class="cls-6" d="M5.74,36.06a2.3,2.3,0,0,0-2.1-.37" transform="translate(-0.02 -0.03)"/></g><g id="ARC-53" data-name="ARC"><path class="cls-6" d="M1.53,35.32a2.29,2.29,0,0,0,2.11.37" transform="translate(-0.02 -0.03)"/></g><g id="ARC-54" data-name="ARC"><path class="cls-6" d="M1.53,35.32a3.12,3.12,0,0,0,2.61-1" transform="translate(-0.02 -0.03)"/></g><g id="ARC-55" data-name="ARC"><path class="cls-6" d="M6.75,33.28a3.14,3.14,0,0,0-2.61,1" transform="translate(-0.02 -0.03)"/></g><g id="ARC-56" data-name="ARC"><path class="cls-6" d="M6.75,33.28A2.23,2.23,0,0,0,4.9,32.21" transform="translate(-0.02 -0.03)"/></g><g id="ARC-57" data-name="ARC"><path class="cls-6" d="M3.06,31.14A2.28,2.28,0,0,0,4.9,32.21" transform="translate(-0.02 -0.03)"/></g><g id="ARC-58" data-name="ARC"><path class="cls-6" d="M3.06,31.14a3.1,3.1,0,0,0,2.8-.07" transform="translate(-0.02 -0.03)"/></g><g id="ARC-59" data-name="ARC"><path class="cls-6" d="M8.66,31a3.14,3.14,0,0,0-2.8.07" transform="translate(-0.02 -0.03)"/></g><g id="ARC-60" data-name="ARC"><path class="cls-6" d="M8.66,31a2.26,2.26,0,0,0-1.37-1.63" transform="translate(-0.02 -0.03)"/></g><g id="ARC-61" data-name="ARC"><path class="cls-6" d="M5.92,27.73a2.28,2.28,0,0,0,1.37,1.64" transform="translate(-0.02 -0.03)"/></g><g id="ARC-62" data-name="ARC"><path class="cls-6" d="M5.92,27.73a3.14,3.14,0,0,0,2.65.9" transform="translate(-0.02 -0.03)"/></g><g id="ARC-63" data-name="ARC"><path class="cls-6" d="M11.23,29.52a3.13,3.13,0,0,0-2.66-.89" transform="translate(-0.02 -0.03)"/></g><g id="ARC-64" data-name="ARC"><path class="cls-6" d="M11.23,29.52a2.3,2.3,0,0,0-.73-2" transform="translate(-0.02 -0.03)"/></g><g id="ARC-65" data-name="ARC"><path class="cls-6" d="M9.77,25.51a2.27,2.27,0,0,0,.73,2" transform="translate(-0.02 -0.03)"/></g><g id="ARC-66" data-name="ARC"><path class="cls-6" d="M14.15,29a2.31,2.31,0,0,0,0-2.14" transform="translate(-0.02 -0.03)"/></g><g id="ARC-67" data-name="ARC"><path class="cls-6" d="M9.77,25.51A3.14,3.14,0,0,0,12,27.26" transform="translate(-0.02 -0.03)"/></g><g id="ARC-68" data-name="ARC"><path class="cls-6" d="M14.15,29A3.11,3.11,0,0,0,12,27.26" transform="translate(-0.02 -0.03)"/></g><g id="ARC-69" data-name="ARC"><path class="cls-6" d="M18.53,49.58a3.14,3.14,0,0,0-2.19-1.75" transform="translate(-0.02 -0.03)"/></g><g id="ARC-70" data-name="ARC"><path class="cls-6" d="M14.15,24.74a3.11,3.11,0,0,0,1.46,2.39" transform="translate(-0.02 -0.03)"/></g><g id="ARC-71" data-name="ARC"><path class="cls-6" d="M14.15,24.74a2.29,2.29,0,0,0,0,2.13" transform="translate(-0.02 -0.03)"/></g><g id="ARC-72" data-name="ARC"><path class="cls-6" d="M17.07,29.52a3.11,3.11,0,0,0-1.46-2.39" transform="translate(-0.02 -0.03)"/></g></g><g id="Layer_5" data-name="Layer 5"><rect class="cls-6" x="9.36" y="57.22" width="3.7" height="47.12"/><path class="cls-7" d="M13.08,100V64.35H9.38V100a4.73,4.73,0,1,0,3.7,0Z" transform="translate(-0.02 -0.03)"/><line class="cls-6" x1="13.06" y1="94.91" x2="11.21" y2="94.91"/><line class="cls-6" x1="13.06" y1="90.87" x2="11.21" y2="90.87"/><line class="cls-6" x1="13.06" y1="86.83" x2="11.21" y2="86.83"/><line class="cls-6" x1="13.06" y1="82.79" x2="11.21" y2="82.79"/><line class="cls-6" x1="13.06" y1="78.75" x2="11.21" y2="78.75"/><line class="cls-6" x1="13.06" y1="78.75" x2="11.21" y2="78.75"/><line class="cls-6" x1="13.06" y1="74.71" x2="11.21" y2="74.71"/><line class="cls-6" x1="13.06" y1="70.67" x2="11.21" y2="70.67"/><line class="cls-6" x1="13.06" y1="66.63" x2="11.21" y2="66.63"/><line class="cls-6" x1="13.06" y1="62.58" x2="11.21" y2="62.58"/><line class="cls-6" x1="11.21" y1="53.36" x2="11.21" y2="54.83"/><path class="cls-6" d="M10.21,55" transform="translate(-0.02 -0.03)"/><path class="cls-6" d="M9.71,53.66" transform="translate(-0.02 -0.03)"/><path class="cls-6" d="M8.64,56.35" transform="translate(-0.02 -0.03)"/><path class="cls-6" d="M7.37,55.62" transform="translate(-0.02 -0.03)"/><path class="cls-6" d="M8.29,58.36" transform="translate(-0.02 -0.03)"/><path class="cls-6" d="M6.84,58.62" transform="translate(-0.02 -0.03)"/><path class="cls-6" d="M14.17,58.36" transform="translate(-0.02 -0.03)"/><path class="cls-6" d="M15.62,58.62" transform="translate(-0.02 -0.03)"/><path class="cls-6" d="M13.82,56.35" transform="translate(-0.02 -0.03)"/><path class="cls-6" d="M15.09,55.62" transform="translate(-0.02 -0.03)"/><line class="cls-8" x1="11.21" y1="51.6" x2="11.21" y2="54.38"/><line class="cls-8" x1="5.78" y1="53.57" x2="7.57" y2="55.71"/><line class="cls-8" x1="2.89" y1="58.58" x2="5.63" y2="59.06"/><line class="cls-8" x1="19.53" y1="58.58" x2="16.78" y2="59.06"/><line class="cls-8" x1="16.64" y1="53.58" x2="14.85" y2="55.71"/><path class="cls-6" d="M12.25,55" transform="translate(-0.02 -0.03)"/><path class="cls-6" d="M12.75,53.66" transform="translate(-0.02 -0.03)"/></g><g id="Layer_2" data-name="Layer 2"><polygon class="cls-9" points="46.2 97.59 19.6 84.57 19.17 81.82 48.7 42.66 74.87 52.94 75.3 55.68 46.2 97.59"/><polygon class="cls-9" points="45.77 94.85 19.17 81.82 48.27 39.91 74.87 52.94 45.77 94.85"/><polygon class="cls-10" points="45.49 92.81 21.15 81.06 48.69 41.38 73.03 53.13 45.49 92.81"/><line class="cls-11" x1="45.77" y1="94.85" x2="46.2" y2="97.59"/><polygon class="cls-9" points="73.03 110.61 46.42 97.59 45.99 94.85 75.52 55.68 101.69 65.96 102.12 68.71 73.03 110.61"/><polygon class="cls-9" points="72.6 107.87 45.99 94.85 75.09 52.94 101.69 65.96 72.6 107.87"/><polygon class="cls-10" points="72.31 105.82 47.97 94.08 75.52 54.4 99.86 66.15 72.31 105.82"/><line class="cls-11" x1="72.6" y1="107.87" x2="73.03" y2="110.61"/></g><g id="Text"><text class="cls-12" transform="translate(106.48 18.09)"><tspan class="cls-13">T</tspan><tspan x="4.5" y="0">o</tspan><tspan class="cls-14" x="9.5" y="0"> </tspan><tspan x="13.72" y="0">prevent</tspan><tspan class="cls-15" x="43.74" y="0"> </tspan><tspan x="47.96" y="0">the</tspan><tspan class="cls-14" x="60.47" y="0"> </tspan><tspan x="64.68" y="0">solar</tspan><tspan class="cls-16" x="84.19" y="0"> </tspan><tspan x="88.41" y="0">fluid</tspan><tspan class="cls-14" x="104.92" y="0"> </tspan><tspan x="109.14" y="0">from </tspan><tspan x="0" y="10.8">boiling</tspan><tspan class="cls-17" x="26.02" y="10.8"> </tspan><tspan x="33.17" y="10.8">in</tspan><tspan class="cls-18" x="40.17" y="10.8"> </tspan><tspan x="47.31" y="10.8">the</tspan><tspan class="cls-17" x="59.83" y="10.8"> </tspan><tspan x="66.97" y="10.8">collectors,</tspan><tspan class="cls-17" x="107.48" y="10.8"> </tspan><tspan x="114.63" y="10.8">the </tspan><tspan x="0" y="21.6">installation</tspan><tspan class="cls-19" x="42.53" y="21.6"> </tspan><tspan x="54.38" y="21.6">should</tspan><tspan class="cls-20" x="80.91" y="21.6"> </tspan><tspan x="92.76" y="21.6">not</tspan><tspan class="cls-19" x="105.27" y="21.6"> </tspan><tspan x="117.13" y="21.6">be </tspan><tspan x="0" y="32.4">flushed</tspan><tspan class="cls-21" x="29.02" y="32.4"> </tspan><tspan x="33.29" y="32.4">or</tspan><tspan class="cls-21" x="41.29" y="32.4"> </tspan><tspan x="45.56" y="32.4">filled</tspan><tspan class="cls-22" x="64.07" y="32.4"> </tspan><tspan x="68.34" y="32.4">during</tspan><tspan class="cls-21" x="93.36" y="32.4"> </tspan><tspan x="97.63" y="32.4">periods </tspan><tspan x="0" y="43.2">of</tspan><tspan class="cls-23" x="7.5" y="43.2"> </tspan><tspan x="9.82" y="43.2">strong</tspan><tspan class="cls-24" x="34.83" y="43.2"> </tspan><tspan x="37.14" y="43.2">sunshine</tspan><tspan class="cls-23" x="73.17" y="43.2"> </tspan><tspan x="75.48" y="43.2">or</tspan><tspan class="cls-24" x="83.48" y="43.2"> </tspan><tspan x="85.8" y="43.2">the</tspan><tspan class="cls-23" x="98.31" y="43.2"> </tspan><tspan x="100.62" y="43.2">panels </tspan><tspan x="0" y="54">should</tspan><tspan class="cls-25" x="26.52" y="54"> </tspan><tspan x="35.92" y="54">be</tspan><tspan class="cls-25" x="45.93" y="54"> </tspan><tspan x="55.32" y="54">covered</tspan><tspan class="cls-25" x="87.34" y="54"> </tspan><tspan x="96.73" y="54">with</tspan><tspan class="cls-26" x="112.74" y="54"> </tspan><tspan x="122.13" y="54">a </tspan><tspan x="0" y="64.8">blanket to keep collectors cool.</tspan></text></g></svg>