<svg xmlns="http://www.w3.org/2000/svg" viewBox="0 0 238.89 111.96"><defs><style>.cls-1,.cls-2,.cls-3,.cls-7,.cls-8{fill:none;stroke:#000;}.cls-1{stroke-width:1.13px;}.cls-2{stroke-width:2.26px;}.cls-3{stroke-width:0.94px;}.cls-4,.cls-5{fill:#fff;}.cls-5,.cls-6{fill-rule:evenodd;}.cls-7{stroke-width:0.89px;}.cls-8{stroke-width:0.89px;}.cls-9{font-size:9px;font-family:ArialMT, Arial;}.cls-10{letter-spacing:-0.02em;}.cls-11{letter-spacing:-0.11em;}.cls-12{letter-spacing:-0.07em;}</style></defs><title>dngr_brn-hzrd_rlf-vlve</title><g id="Layer_1" data-name="Layer 1"><path class="cls-1" d="M26.29,66.6l3.52,0a6.57,6.57,0,0,1,2.79-5.51h0l0-3c-2.13-1.39-2.57-4.48-2.57-6.08L27,52a6.43,6.43,0,0,1-3.21,5.93v3.32a7.54,7.54,0,0,1,2.5,5.36Z"/><path class="cls-1" d="M25.21,52c0,.71-.35,3.31-1.73,4L19.64,56c1.39-.7,1.74-3.27,1.72-4Z"/><polygon class="cls-1" points="18.39 61.26 18.45 57.42 22.28 57.47 22.23 61.3 18.39 61.26"/><path class="cls-1" d="M24.33,66.76c0-.71-.28-3.31-1.64-4l-3.84,0c1.37.72,1.67,3.29,1.62,4Z"/><path class="cls-1" d="M27.94,59c.12-.43.37-.73.66-.73s.73.6.73,1.34-.33,1.33-.73,1.33-.55-.31-.67-.76"/><path class="cls-1" d="M16,65.77a6.74,6.74,0,0,1-4.36,1.65c-3.92,0-7.09-3.53-7.09-7.88s3.17-7.88,7.09-7.88a6.57,6.57,0,0,1,3.83,1.25l4,.1a8.22,8.22,0,0,0-2.79,6.21c0,2.79.36,5.4,1.88,6.56Z"/><path class="cls-2" d="M77.63,77.42"/><polyline class="cls-1" points="101.48 81.24 84.74 71.32 80.43 72.57"/><line class="cls-1" x1="89.01" y1="63.63" x2="102.4" y2="71.55"/><line class="cls-3" x1="88.72" y1="63.55" x2="88.72" y2="23.54"/><path class="cls-1" d="M49.32,59.75C48.09,62.89,45.68,65,42.91,65c-4,0-7.28-4.5-7.28-10.05s3.26-10,7.28-10c2.67,0,5,2,6.28,4.94"/><path class="cls-1" d="M47.71,59.77c-1,2-2.68,3.28-4.55,3.28-3.12,0-5.65-3.61-5.65-8.07s2.53-8.06,5.65-8.06a5.25,5.25,0,0,1,4.39,3"/><path class="cls-1" d="M47.55,49.89a.25.25,0,0,0,0,.07"/><path class="cls-1" d="M42.74,59.56c-1.65,0-3-2.14-3-4.79s1.34-4.8,3-4.8"/><path class="cls-1" d="M42.47,50l19.64,0c3.8-.13,11.56,3,8.17,15.33L63,65.3c-1.48-2.6-1.7-5.49-5.75-5.49l-14.74-.25"/><path class="cls-1" d="M71.06,50.51l3.09,0A5.85,5.85,0,0,1,76.6,45.7h0V43c-1.87-1.22-2.26-3.93-2.26-5.35H71.69a5.64,5.64,0,0,1-2.83,5.21v2.92a6.69,6.69,0,0,1,2.19,4.72Z"/><path class="cls-1" d="M70.11,37.69c0,.62-.31,2.91-1.52,3.52l-3.38-.05c1.22-.61,1.54-2.86,1.51-3.49Z"/><polygon class="cls-1" points="64.12 45.82 64.16 42.44 67.54 42.49 67.49 45.85 64.12 45.82"/><path class="cls-1" d="M69.33,50.66c0-.63-.24-2.92-1.44-3.56l-3.37,0C65.72,47.71,66,50,66,50.6Z"/><path class="cls-1" d="M72.51,43.83c.11-.38.33-.64.58-.64s.64.53.64,1.17-.28,1.18-.64,1.18-.48-.28-.59-.67"/><path class="cls-1" d="M54.42,49.86a7.16,7.16,0,0,1-2.51-5.55c0-3.83,2.79-6.94,6.23-6.94a5.8,5.8,0,0,1,3.37,1.1l3.54.1A7.24,7.24,0,0,0,62.6,44c0,2.44.31,4.75,1.66,5.76H62"/><path class="cls-1" d="M57.45,90.56a1.22,1.22,0,0,0,.41-.21c.66-.46,1-1.45,1.3-.2s-.71-.5-.31.55-.13,2.53.72,1.48-.24-.82,1-.46c.28.08.53.08.52.14-.15.64-.44.93-.27,1.19.7,1,.2,1.79,1.05.67.62-.81,0-1.48.87-1s1.19-.61,1.19.63-.43.21.26.91.71,1.5,1,.39-.46-1.51.39-1.32.66-.72.92.4.34.75.66,1.11c.46.52.72,1.18.72,0s-.59-1.51.06-1.44.53-.39,1,.52,0,.53.46.92,1.11,1,1.11.46.07.2-.06-.85-.66-2,.52-1.24c.93.56.52,1.8,1.43,1.51s.18-1.24.17-1.25c-.16-.36-.27-.85-.29-.79-.06.26-.32-.46.73-.19s.44.84.9.84.7-.38.37-1.17-1.74-.32-.23-.78,1.71-.47,1.18-.54a17.2,17.2,0,0,0-1.77-.26"/><path class="cls-1" d="M63,65.91,57.12,87.26a1.58,1.58,0,0,0,.49.53"/><path d="M59.63,97.33h3.31a1.77,1.77,0,0,1,1.27.41,1.31,1.31,0,0,1,.45,1,1.28,1.28,0,0,1-.32.87,1.5,1.5,0,0,1-.62.39,1.55,1.55,0,0,1,.91.5,1.42,1.42,0,0,1,.29.91,1.55,1.55,0,0,1-.77,1.36,2,2,0,0,1-.68.18,5.89,5.89,0,0,1-.79.08h-3Zm1.78,2.24h.78a.85.85,0,0,0,.57-.14.5.5,0,0,0,.16-.41.47.47,0,0,0-.16-.39.84.84,0,0,0-.56-.14h-.79Zm0,2.25h.91a1,1,0,0,0,.64-.16.58.58,0,0,0,.19-.44.5.5,0,0,0-.19-.41,1.05,1.05,0,0,0-.65-.15h-.9Z"/><path d="M69.35,97.33h1.76v3.4a3,3,0,0,1-.16,1,2.12,2.12,0,0,1-.5.79,2,2,0,0,1-.7.47,3.55,3.55,0,0,1-1.24.19,7.69,7.69,0,0,1-.91-.06,2.27,2.27,0,0,1-.82-.23,2.31,2.31,0,0,1-.61-.49,1.76,1.76,0,0,1-.37-.66,3.42,3.42,0,0,1-.17-1v-3.4h1.76v3.48a1,1,0,0,0,.26.73.94.94,0,0,0,.72.27,1,1,0,0,0,.72-.26,1,1,0,0,0,.26-.74Z"/><path d="M72.31,103V97.33h2.93a4,4,0,0,1,1.25.14,1.3,1.3,0,0,1,.7.52,1.7,1.7,0,0,1,.06,1.74,1.5,1.5,0,0,1-.56.56,2.18,2.18,0,0,1-.62.23,1.83,1.83,0,0,1,.46.21,2.21,2.21,0,0,1,.28.3,2.41,2.41,0,0,1,.25.36l.86,1.65h-2L75,101.29a1.34,1.34,0,0,0-.32-.44.78.78,0,0,0-.43-.13h-.15V103Zm1.77-3.4h.74a3,3,0,0,0,.47-.08.41.41,0,0,0,.28-.18.48.48,0,0,0,.12-.33.52.52,0,0,0-.18-.42,1.15,1.15,0,0,0-.66-.14h-.77Z"/><path d="M78.5,97.33h1.65l2.15,3.16V97.33H84V103H82.3l-2.14-3.15V103H78.5Z"/><line class="cls-1" x1="63.81" y1="66.22" x2="58.53" y2="89.65"/><line class="cls-1" x1="64.6" y1="66.38" x2="60.17" y2="91.4"/><line class="cls-1" x1="65.48" y1="66.52" x2="62.59" y2="92.38"/><line class="cls-1" x1="66.29" y1="66.6" x2="65.11" y2="93.05"/><line class="cls-1" x1="67.62" y1="87.54" x2="67.74" y2="93.36"/><line class="cls-1" x1="67.21" y1="66.64" x2="67.58" y2="85.33"/><line class="cls-1" x1="69.83" y1="89.14" x2="70.21" y2="93.83"/><line class="cls-1" x1="67.96" y1="66.28" x2="69.4" y2="83.84"/><line class="cls-1" x1="71.83" y1="90.06" x2="72.17" y2="92.85"/><line class="cls-1" x1="68.85" y1="66.02" x2="71.06" y2="83.96"/><line class="cls-2" x1="73.74" y1="90.08" x2="73.81" y2="90.53"/><line class="cls-1" x1="69.71" y1="65.54" x2="72.72" y2="84"/><rect class="cls-4" x="56.5" y="69.18" width="19.62" height="10.11"/><path d="M52.66,70H55.3v3h2.91V70h2.66v8.57H58.21V75.07H55.3v3.47H52.66Z"/><path d="M62.29,74.26A4.46,4.46,0,0,1,63.46,71a4.41,4.41,0,0,1,3.26-1.17A4.52,4.52,0,0,1,70,71a4.34,4.34,0,0,1,1.15,3.22,5.24,5.24,0,0,1-.5,2.47,3.64,3.64,0,0,1-1.46,1.5,4.9,4.9,0,0,1-2.38.53,5.43,5.43,0,0,1-2.4-.46,3.68,3.68,0,0,1-1.55-1.46A4.91,4.91,0,0,1,62.29,74.26Zm2.65,0a2.88,2.88,0,0,0,.48,1.86,1.82,1.82,0,0,0,2.64,0,3.17,3.17,0,0,0,.47-2A2.62,2.62,0,0,0,68,72.39a1.69,1.69,0,0,0-1.33-.56,1.59,1.59,0,0,0-1.28.57A2.84,2.84,0,0,0,64.94,74.28Z"/><path d="M71.68,70h8.06v2.12H77v6.45H74.39V72.09H71.68Z"/><path class="cls-1" d="M57,87.08a17.84,17.84,0,0,1-2.13-3.65c-1.14-1.94-2.54-2-2.54-.42a3.76,3.76,0,0,0,.38,1.9c.38.8.53,1.49,1.6,3.72l1.39,2.58c0,.5-2.16-.48-5.77-3.1-.63-.46-3.34-1.6-3.91-.46s1.56,2.39,2.17,2.77c4,2.53,6.53,4,6.53,4.45,0,.76-.49.57-4.14-.65-4.22-1.4-4-1.33-4.45-1.52a3.7,3.7,0,0,0-3.34,0c-.87.91-.3,1.29.68,2a10.44,10.44,0,0,0,4.22,2,41.72,41.72,0,0,0,4.83,1.78c1.77.49,4.21,1.63,3.36,1.69a24.23,24.23,0,0,1-6.21-.13c-1.93-.29-4.83-.73-5.21.42a1.72,1.72,0,0,0,1.22,1.82c1.69.59.7.64,5.55,1.11s1.21.12,7.51.73,11.17.8,16.41,1.68c2.72.45,3.25-.44,8,2.66,3.81,2.52,2.49,1.61,3.57,2.61"/><path class="cls-1" d="M74.52,92.47c3.69-1.93-1.82-3-2.83-3.62s-.77-.23-2.19-1S68.16,86,69,85.33c.56-.48,1.26-.53,2.89-.06a27,27,0,0,1,3.8,1c1.87.71,1.24.42,2.28,1.21a33.85,33.85,0,0,1,3.33,3.93c3,3.74,4.94,4.84,6.6,6.46S100.82,109,100.82,109"/><line class="cls-1" x1="50.8" y1="74.44" x2="2.79" y2="89.04"/><line class="cls-1" x1="88.4" y1="63.32" x2="71.58" y2="68.3"/><path class="cls-1" d="M50.33,81.25l-27.61,8,.05-.06a6,6,0,0,0-3.64,5.49,5.76,5.76,0,0,0,2.43,4.7L38.83,110"/><path class="cls-1" d="M57.6,89.94c-.74-.23-1.08.16-1-.37s.44,0,.49-1,0-1-.18-1.38"/><polyline points="0.75 0.11 102.96 0.11 102.96 24.06 0.75 24.06"/><path class="cls-5" d="M27.9,16.34c3.5,0,5.79-1.56,5.79-5.64,0-3.6-2.19-5.2-5.69-5.2H23.18V16.34"/><polyline class="cls-5" points="37.63 16.34 38.06 14.93 41.61 14.93 42 16.34 45.55 16.34 41.66 5.5 38.06 5.5 34.17 16.34"/><polyline class="cls-5" points="54.01 11.43 53.87 8.95 53.87 5.5 57.27 5.5 57.27 16.34 53.91 16.34 50.02 10.41 50.17 12.88 50.17 16.34 46.77 16.34 46.77 5.5 50.12 5.5"/><path class="cls-5" d="M69.87,16.39H67.58l-.15-1.12a3.87,3.87,0,0,1-3.26,1.36c-2.77,0-5.25-1.8-5.25-5.59,0-3.45,2.14-5.84,5.69-5.84,2.58,0,4.67,1.37,5.11,4H66.36a1.74,1.74,0,0,0-1.85-1.36c-1.36,0-2,1.21-2,3.16,0,1.5.49,2.92,2.29,2.92a1.85,1.85,0,0,0,1.8-1.27H65V10.36h4.87"/><polyline class="cls-5" points="72.05 16.34 72.05 5.5 80.9 5.5 80.9 8.02 75.6 8.02 75.6 9.58 80.07 9.58 80.07 12.11 75.6 12.11 75.6 13.81 81.1 13.81 81.1 16.34"/><path class="cls-5" d="M87.37,12.54c1.65,0,1.89.49,1.89,1.9a6.36,6.36,0,0,0,.2,1.9h3.6V16c-.44,0-.39-.49-.39-1.9,0-2.19-.68-2.48-1.85-2.87a2.55,2.55,0,0,0,1.85-2.67c0-2.09-1.22-3.06-4.82-3.06h-5.1V16.34H86.3v-3.8"/><polyline class="cls-6" points="40.98 12.64 38.74 12.64 39.81 8.75"/><path class="cls-6" d="M86.3,8H88c.83,0,1.41.34,1.41,1.12s-.58,1-1.65,1H86.3"/><path class="cls-6" d="M19.44,16.44H8.06c-.73-.05-1.36-.54-.63-1.75L13,5.16a.78.78,0,0,1,.78-.59.85.85,0,0,1,.83.59l5.49,9.53c.73,1.21.15,1.7-.63,1.75"/><path class="cls-6" d="M13.75,6.76c-1.75,0-1.26,2.19-.29,5.3a.31.31,0,0,0,.29.29h0a.32.32,0,0,0,.34-.29c1-3.11,1.46-5.3-.34-5.3"/><path class="cls-6" d="M13.75,13.57h0a.92.92,0,0,0-.92.92.93.93,0,0,0,.92,1,.95.95,0,1,0,0-1.89"/><path class="cls-5" d="M14.14,12.11a.37.37,0,0,1-.34.34h-.05a.34.34,0,0,1-.34-.34c-1.12-3.55-1.65-6,.34-6s1.46,2.48.39,6M13.75,16a1.07,1.07,0,0,1,0-2.14h.05A1.07,1.07,0,0,1,13.75,16Zm.83-10.79a.85.85,0,0,0-.83-.59.78.78,0,0,0-.78.59L7.43,14.69c-.73,1.21-.1,1.7.63,1.75H19.44c.78-.05,1.36-.54.63-1.75Z"/><path class="cls-6" d="M25.91,13.66V8.17H28c2.38,0,3,.78,3,2.53,0,2.33-.77,3-3.06,3"/><line class="cls-7" x1="103.16" y1="111.14" x2="103.16" y2="0.11"/><rect class="cls-8" x="0.45" y="0.45" width="238" height="111.07"/><path d="M112.68,21.17a1.76,1.76,0,1,1-1.76-1.76A1.76,1.76,0,0,1,112.68,21.17Z"/><path d="M112.16,46.75A1.76,1.76,0,1,1,110.4,45,1.75,1.75,0,0,1,112.16,46.75Z"/><path d="M112.24,71.22a1.76,1.76,0,1,1-1.76-1.76A1.75,1.75,0,0,1,112.24,71.22Z"/></g><g id="text"><text class="cls-9" transform="translate(116.52 24.6)">Burn hazard.</text><text class="cls-9" transform="translate(116.35 49.51)">Hot water discharge.</text><text class="cls-9" transform="translate(116.58 74.4)">Keep clear of<tspan class="cls-10" x="53.03" y="0"> </tspan><tspan class="cls-11" x="55.37" y="0">T</tspan><tspan x="59.87" y="0">emperature-</tspan><tspan x="0" y="10.8">Pressure Relief </tspan><tspan class="cls-12" x="64.02" y="10.8">V</tspan><tspan x="69.36" y="10.8">alve</tspan><tspan x="0" y="21.6">discharge outlet.</tspan></text></g></svg>