<svg id="text" xmlns="http://www.w3.org/2000/svg" xmlns:xlink="http://www.w3.org/1999/xlink" viewBox="0 0 262.96 107.52"><defs><style>.cls-1,.cls-4,.cls-5{fill:none;}.cls-2{clip-path:url(#clip-path);}.cls-3{fill:#fff;}.cls-4,.cls-5{stroke:#000;}.cls-4{stroke-miterlimit:10;}.cls-6{font-size:11.01px;font-family:ArialMT, Arial;}.cls-7{letter-spacing:-0.02em;}.cls-8{font-size:12px;font-family:Arial-BoldMT, Arial;font-weight:700;}</style><clipPath id="clip-path" transform="translate(-0.52 -0.52)"><rect class="cls-1" width="264" height="109.88"/></clipPath></defs><title>danger-shck_hzrd_fll_pwr_prsnt</title><path d="M7.62,32.7s13.69,11,17.49,14.78c1.06,1.19,3.27,3.93.06,7.2a70.32,70.32,0,0,0-5.06,5.19c-2.47,2.3-4.4,7.69.16,11.57a23.32,23.32,0,0,0,8.43,4c.22,0,.18-.27.31-.53l.3-.84h0c.83.17.9.33,1.28,1l1.2,3.07c.17.5,1.11.34,1-.15L31.5,74.47c1.11.37,2.65.88,3.92,1.25.48.14.73-.79.21-1L31.89,73.5l3.61-.72c.36-.1.32-1-.42-.87,0,0-3.75.84-4.18.88a2.88,2.88,0,0,1-1.21-.12l.46-1.62c.16-.6.28-.59,0-.73a36.89,36.89,0,0,1-4.58-1.6c-4.91-2.25-2.15-5.67-.61-6.88a29.9,29.9,0,0,0,5.63-5.67c3.88-6.6-.42-11.22-3.14-13.67S10.74,28.4,10.74,28.4Z" transform="translate(-0.52 -0.52)"/><path d="M72.65,46.06c0-3.4-4.77-3.4-4.81-.31l-1.1,20.57a.89.89,0,0,1-1.77,0l0-26.8a2.5,2.5,0,1,0-5-.18L59.7,64.91a.91.91,0,1,1-1.81,0l-.8-29.74c0-4.37-5.57-4.13-5.57.06l.76,30.29c0,1.42-1.85,1.46-1.81-.08L50,39.65a2.83,2.83,0,1,0-5.65.22l.76,29.81c-.08,1.37-1.73,1.28-1.73,0L43.13,59.3c-.17-6.4-3.62-6.8-4.89-7.46s-1.39.62-1.35,1.5c0,2.52.47,6.36.13,9a18.93,18.93,0,0,0,.17,2.87,82,82,0,0,1,.38,10.82L56,69.24c.8-.27,1.1.26.76.75l-5.14,8c-.17.22-.26.53.38.35l15.72-6c.51-.18,1.23.26.51,1l-7.84,7.72c-.51.44-.38.71.33.62L72.73,78.9Z" transform="translate(-0.52 -0.52)"/><path d="M72.86,82.75c.08-.58-.38-.4-.68-.31L51.57,87.12c-.64,0-.64-.44-.26-.8l5.49-5.47c.58-.53-.09-.62-.39-.49L44.1,85c-.76.27-.67-.39-.5-.66l5.18-8c.51-.7-.21-.7-.46-.57l-10.67,4c0,3.54-.72,5.43,2.53,11.4.63,1.19,4.51,6.22,4.51,10.06a10.17,10.17,0,0,1-.59,3.53H67.34c-.13-2.73-.26-4.76-.26-4.76-.08-1.64-.38-2.34,1.23-5C70.25,91.36,72,88.09,72.86,82.75Z" transform="translate(-0.52 -0.52)"/><g class="cls-2"><polyline points="0.85 20.79 262.18 20.79 262.18 0.33 0.85 0.33"/><path class="cls-3" d="M198.55,13.28V10.86h7.91v5.71a10.75,10.75,0,0,1-3.34,1.56,15.29,15.29,0,0,1-4.43.66,12.11,12.11,0,0,1-5-.94,6.84,6.84,0,0,1-3.19-2.7,7.22,7.22,0,0,1-1.07-3.82,6.91,6.91,0,0,1,1.19-4,7.53,7.53,0,0,1,3.49-2.67A11.64,11.64,0,0,1,198.49,4a10.36,10.36,0,0,1,5.28,1.12,5.07,5.07,0,0,1,2.45,3.1l-3.64.53a3.17,3.17,0,0,0-1.45-1.67,5.26,5.26,0,0,0-2.64-.61,5.71,5.71,0,0,0-3.83,1.21,4.43,4.43,0,0,0-1.41,3.57,4.83,4.83,0,0,0,1.44,3.83,5.44,5.44,0,0,0,3.76,1.27,7.84,7.84,0,0,0,2.32-.36,8.25,8.25,0,0,0,2-.86V13.28M171.8,18.55V4.21h3.57l7.44,9.58V4.21h3.41V18.55h-3.69L175.21,9.2v9.35Zm-7.2,0V4.21h3.66V18.55Zm-18.19,0V4.21H150l7.44,9.58V4.21h3.41V18.55h-3.69L149.82,9.2v9.35Zm-14.69-8.27h2.71a17.35,17.35,0,0,0,3.3-.18,1.94,1.94,0,0,0,1-.61,1.56,1.56,0,0,0,.38-1.07,1.51,1.51,0,0,0-.5-1.17,2.43,2.43,0,0,0-1.38-.56c-.3,0-1.19-.05-2.68-.05h-2.86Zm-3.67,8.27V4.21h7.73A16.4,16.4,0,0,1,140,4.6,4.17,4.17,0,0,1,142.12,6a3.5,3.5,0,0,1,.79,2.26,3.39,3.39,0,0,1-1.2,2.67,6.48,6.48,0,0,1-3.59,1.32,8.56,8.56,0,0,1,2,1.21,16.8,16.8,0,0,1,2.09,2.32l2.22,2.8H140l-2.65-3.12a21.58,21.58,0,0,0-1.93-2.11,3,3,0,0,0-1.11-.59,7.48,7.48,0,0,0-1.85-.16h-.74v6Zm-8.71-5.67-2.51-5.32-2.45,5.32Zm6.75,5.67h-4l-1.59-3.26h-7.26l-1.5,3.26h-3.89l7.08-14.34h3.88Zm-36.37,0L85.38,4.21h3.76l2.74,9.85L95.2,4.21h4.36l3.19,10,2.79-10h3.69l-4.41,14.34h-3.89L97.31,7.83,93.7,18.55Zm-17.92-6c0,.28-.35.48-.61.48H71.1c-.35,0-.61-.2-.61-.48-2-5-3-8.58.61-8.58S73.74,7.47,71.8,12.52ZM71.1,18a1.78,1.78,0,0,1-1.93-1.52,1.79,1.79,0,0,1,1.93-1.53h.09A1.7,1.7,0,0,1,73,16.47C73,17.3,72.24,18,71.1,18ZM72.59,2.62a1.6,1.6,0,0,0-1.49-.83,1.44,1.44,0,0,0-1.4.83l-10,13.57c-1.32,1.73-.18,2.42,1.14,2.49H81.37c1.4-.07,2.46-.76,1.14-2.49Z" transform="translate(-0.52 -0.52)"/></g><rect class="cls-4" x="0.5" y="0.5" width="261.96" height="106.52"/><line class="cls-5" x1="85.98" y1="24.2" x2="85.98" y2="102.69"/><line class="cls-5" x1="86.06" y1="42.61" x2="262.39" y2="42.61"/><text class="cls-6" transform="translate(89.72 58.33) scale(0.96 1)">Full power is present whenever the <tspan x="0" y="12.23">cabinet door is opened, even with </tspan><tspan x="0" y="24.46">the pilot switch turned o</tspan><tspan class="cls-7" x="115.62" y="24.46">f</tspan><tspan x="118.48" y="24.46">f.</tspan></text><text class="cls-8" transform="translate(105.56 38.85)">Electrical Shock Hazard</text><text x="-0.52" y="-0.52"/></svg>