<svg id="Layer_1" data-name="Layer 1" xmlns="http://www.w3.org/2000/svg" viewBox="0 0 253 156.14"><defs><style>.cls-1,.cls-3,.cls-7{fill:none;stroke:#231f20;}.cls-2,.cls-34,.cls-6,.cls-8{fill:#231f20;}.cls-3{stroke-width:2px;}.cls-4,.cls-5{fill:#fff;}.cls-5,.cls-6{fill-rule:evenodd;}.cls-7{stroke-width:1.5px;}.cls-34,.cls-8{font-size:8px;}.cls-8{font-family:FreeSans;}.cls-9{letter-spacing:-0.04em;}.cls-10{letter-spacing:0em;}.cls-11{letter-spacing:-0.01em;}.cls-12{letter-spacing:-0.01em;}.cls-13{letter-spacing:0em;}.cls-14{letter-spacing:0.01em;}.cls-15{letter-spacing:-0.01em;}.cls-16{letter-spacing:-0.01em;}.cls-17{letter-spacing:-0.02em;}.cls-18{letter-spacing:-0.02em;}.cls-19{letter-spacing:0.03em;}.cls-20{letter-spacing:-0.01em;}.cls-21{letter-spacing:0em;}.cls-22{letter-spacing:0em;}.cls-23{letter-spacing:-0.01em;}.cls-24{letter-spacing:0.02em;}.cls-25{letter-spacing:0em;}.cls-26{letter-spacing:0em;}.cls-27{letter-spacing:0em;}.cls-28{letter-spacing:-0.07em;}.cls-29{letter-spacing:-0.02em;}.cls-30{letter-spacing:-0.01em;}.cls-31{letter-spacing:-0.01em;}.cls-32{letter-spacing:-0.02em;}.cls-33{letter-spacing:-0.01em;}.cls-34{font-family:Helvetica;}.cls-35{letter-spacing:-0.12em;}.cls-36{letter-spacing:-0.02em;}.cls-37{letter-spacing:-0.02em;}.cls-38{letter-spacing:-0.03em;}.cls-39{letter-spacing:-0.06em;}.cls-40{letter-spacing:0.01em;}.cls-41{letter-spacing:-0.03em;}</style></defs><title>dngr_brn-hzrd_wtr-tmprtr_ovr_125_dgrs_2xbdr</title><path class="cls-1" d="M54,84.75c-1.09,2.78-3.21,4.66-5.66,4.66-3.56,0-6.44-4-6.44-8.87s2.88-8.88,6.44-8.88c2.36,0,4.42,1.76,5.54,4.37"/><path class="cls-1" d="M52.57,84.76a4.73,4.73,0,0,1-4,2.91c-2.76,0-5-3.19-5-7.13s2.23-7.13,5-7.13A4.63,4.63,0,0,1,52.42,76"/><path class="cls-1" d="M52.42,76l0,.06"/><path class="cls-1" d="M48.17,84.58c-1.45,0-2.63-1.89-2.63-4.23s1.18-4.24,2.63-4.24"/><path class="cls-1" d="M47.94,76.13l17.35,0C68.65,76,75.5,78.82,72.51,89.7l-6.41,0C64.79,87.36,64.59,84.8,61,84.8l-13-.22"/><path class="cls-1" d="M33.78,90.4l3.1,0a5.87,5.87,0,0,1,2.47-4.87h0l0-2.7c-1.88-1.23-2.27-4-2.27-5.37l-2.7,0a5.7,5.7,0,0,1-2.84,5.24v2.93a6.71,6.71,0,0,1,2.21,4.74Z"/><path class="cls-1" d="M32.82,77.51c0,.63-.3,2.92-1.53,3.54l-3.38,0c1.22-.61,1.53-2.88,1.51-3.51Z"/><polygon class="cls-1" points="26.8 85.68 26.85 82.29 30.24 82.33 30.19 85.71 26.8 85.68"/><path class="cls-1" d="M32,90.54c0-.62-.24-2.93-1.45-3.57l-3.39,0c1.21.64,1.48,2.91,1.44,3.54Z"/><path class="cls-1" d="M35.24,83.68c.11-.38.32-.64.58-.64s.64.53.64,1.18-.29,1.18-.64,1.18-.49-.28-.59-.68"/><path class="cls-1" d="M24.65,89.67a6,6,0,0,1-3.86,1.45c-3.46,0-6.26-3.11-6.26-7s2.8-7,6.26-7a5.79,5.79,0,0,1,3.39,1.1l3.56.09a7.26,7.26,0,0,0-2.46,5.49c0,2.46.31,4.77,1.66,5.79Z"/><path class="cls-1" d="M73.2,76.59l2.73,0a5.15,5.15,0,0,1,2.17-4.28h0V70c-1.65-1.08-2-3.47-2-4.72l-2.38,0a5,5,0,0,1-2.49,4.61v2.58a5.86,5.86,0,0,1,1.94,4.17Z"/><path class="cls-1" d="M72.36,65.26c0,.55-.27,2.57-1.34,3.11l-3,0c1.07-.54,1.35-2.54,1.33-3.09Z"/><polygon class="cls-1" points="67.07 72.44 67.11 69.46 70.09 69.5 70.05 72.47 67.07 72.44"/><path class="cls-1" d="M71.67,76.72c0-.55-.21-2.58-1.27-3.14l-3,0c1.06.56,1.29,2.56,1.26,3.11Z"/><path class="cls-1" d="M74.48,70.68c.1-.33.29-.56.51-.56s.57.46.57,1-.25,1-.57,1-.42-.24-.51-.59"/><path class="cls-1" d="M58.5,76a6.35,6.35,0,0,1-2.22-4.91c0-3.39,2.46-6.13,5.5-6.13a5.13,5.13,0,0,1,3,1l3.13.08a6.38,6.38,0,0,0-2.16,4.83c0,2.16.27,4.2,1.46,5.09h-2"/><path class="cls-1" d="M61.18,112a1.18,1.18,0,0,0,.36-.18c.58-.41.85-1.28,1.14-.18s-.62-.44-.27.49-.11,2.23.64,1.31-.22-.73.85-.41c.25.07.47.07.46.12-.13.57-.39.83-.23,1.06.62.92.17,1.57.92.59.55-.72,0-1.31.77-.93s1.06-.53,1.06.57-.39.18.23.79.62,1.33.85.35-.41-1.34.35-1.16.58-.64.81.35.3.66.58,1,.63,1,.63,0-.52-1.33.06-1.27.47-.35.87.46,0,.46.41.81,1,.87,1,.41.06.17-.05-.76-.58-1.73.46-1.09c.82.5.46,1.59,1.26,1.34s.16-1.1.15-1.11c-.14-.32-.24-.75-.25-.7-.06.23-.29-.4.64-.17s.39.74.79.74.63-.33.34-1-1.54-.29-.21-.7,1.51-.42,1-.47a12.68,12.68,0,0,0-1.57-.24"/><path class="cls-1" d="M66.11,90.19l-5.22,18.87a1.44,1.44,0,0,0,.42.47"/><path class="cls-2" d="M63.1,118H66a1.59,1.59,0,0,1,1.12.37,1.17,1.17,0,0,1,.39.89,1.11,1.11,0,0,1-.28.77,1.2,1.2,0,0,1-.54.34,1.45,1.45,0,0,1,.8.45,1.23,1.23,0,0,1,.25.8,1.38,1.38,0,0,1-.18.7,1.33,1.33,0,0,1-.5.5,1.7,1.7,0,0,1-.59.16,6,6,0,0,1-.7.07H63.1Zm1.58,2h.68a.76.76,0,0,0,.51-.13.46.46,0,0,0,.14-.36.47.47,0,0,0-.14-.35.8.8,0,0,0-.5-.12h-.69Zm0,2h.79a.91.91,0,0,0,.57-.14.51.51,0,0,0,.17-.39A.45.45,0,0,0,66,121a.9.9,0,0,0-.57-.13h-.79Z"/><path class="cls-2" d="M71.69,118h1.55v3a2.41,2.41,0,0,1-.14.85,1.81,1.81,0,0,1-.44.69,1.63,1.63,0,0,1-.62.42,3.2,3.2,0,0,1-1.09.17c-.25,0-.51,0-.81,0a2.19,2.19,0,0,1-.72-.21,1.68,1.68,0,0,1-.54-.43,1.72,1.72,0,0,1-.33-.58,3,3,0,0,1-.15-.86v-3H70V121a.9.9,0,0,0,.23.65.85.85,0,0,0,.63.23.8.8,0,0,0,.87-.88Z"/><path class="cls-2" d="M74.3,123v-5h2.6a3.78,3.78,0,0,1,1.1.13,1.14,1.14,0,0,1,.62.46,1.55,1.55,0,0,1,0,1.54,1.35,1.35,0,0,1-.49.49,1.93,1.93,0,0,1-.55.2,1.5,1.5,0,0,1,.4.19,1.38,1.38,0,0,1,.25.27,2.09,2.09,0,0,1,.22.31l.76,1.46H77.5l-.83-1.54a1.14,1.14,0,0,0-.29-.39A.64.64,0,0,0,76,121h-.13v2Zm1.57-3h.65a2.15,2.15,0,0,0,.42-.07.39.39,0,0,0,.25-.15.51.51,0,0,0,.1-.29.43.43,0,0,0-.16-.37.92.92,0,0,0-.58-.13h-.68Z"/><path class="cls-2" d="M79.78,118h1.45l1.91,2.8V118H84.6v5H83.14l-1.9-2.78V123H79.78Z"/><line class="cls-1" x1="66.79" y1="90.46" x2="62.12" y2="111.17"/><line class="cls-1" x1="67.49" y1="90.61" x2="63.58" y2="112.72"/><line class="cls-1" x1="68.27" y1="90.73" x2="65.72" y2="113.58"/><line class="cls-1" x1="68.99" y1="90.81" x2="67.95" y2="114.17"/><line class="cls-1" x1="70.16" y1="109.3" x2="70.26" y2="114.44"/><line class="cls-1" x1="69.79" y1="90.84" x2="70.12" y2="107.36"/><line class="cls-1" x1="72.11" y1="110.72" x2="72.45" y2="114.86"/><line class="cls-1" x1="70.46" y1="90.52" x2="71.74" y2="106.03"/><line class="cls-1" x1="73.88" y1="111.53" x2="74.18" y2="113.99"/><line class="cls-1" x1="71.25" y1="90.29" x2="73.2" y2="106.14"/><line class="cls-3" x1="75.56" y1="111.54" x2="75.63" y2="111.94"/><line class="cls-1" x1="72.01" y1="89.87" x2="74.67" y2="106.17"/><rect class="cls-4" x="60.33" y="93.08" width="17.34" height="8.93"/><path class="cls-2" d="M56.94,93.78h2.34v2.65h2.56V93.78h2.35v7.57H61.84V98.29H59.28v3.06H56.94Z"/><path class="cls-2" d="M65.45,97.58a3.6,3.6,0,0,1,3.92-3.93,3.94,3.94,0,0,1,2.91,1,3.81,3.81,0,0,1,1,2.84,4.64,4.64,0,0,1-.45,2.18A3,3,0,0,1,71.56,101a4.18,4.18,0,0,1-2.1.48,4.85,4.85,0,0,1-2.12-.41A3.12,3.12,0,0,1,66,99.79,4.28,4.28,0,0,1,65.45,97.58Zm2.34,0a2.48,2.48,0,0,0,.43,1.64,1.43,1.43,0,0,0,1.16.51,1.45,1.45,0,0,0,1.17-.5A2.75,2.75,0,0,0,71,97.48a2.33,2.33,0,0,0-.43-1.56,1.48,1.48,0,0,0-1.17-.49,1.42,1.42,0,0,0-1.14.5A2.51,2.51,0,0,0,67.79,97.59Z"/><path class="cls-2" d="M73.75,93.78h7.12v1.88H78.48v5.69H76.14V95.66H73.75Z"/><path class="cls-1" d="M60.73,108.9a16,16,0,0,1-1.88-3.22c-1-1.72-2.25-1.77-2.25-.37a3.33,3.33,0,0,0,.34,1.68c.34.7.47,1.3,1.41,3.28l1.24,2.28c0,.44-1.92-.42-5.1-2.74-.56-.41-3-1.42-3.46-.41s1.38,2.12,1.91,2.45c3.57,2.23,5.78,3.57,5.78,3.93,0,.67-.44.5-3.66-.57-3.72-1.24-3.49-1.18-3.93-1.34a3.26,3.26,0,0,0-3,0c-.78.81-.27,1.14.6,1.78a9.11,9.11,0,0,0,3.73,1.81,34.54,34.54,0,0,0,4.26,1.58c1.57.43,3.72,1.44,3,1.49a21.82,21.82,0,0,1-5.5-.11c-1.7-.26-4.26-.65-4.6.37a1.53,1.53,0,0,0,1.08,1.61c1.49.52.62.56,4.9,1l6.64.65c5.57.55,9.87.71,14.5,1.48,2.41.4,2.87-.38,7,2.36,3.37,2.22,11.61,8.7,12.56,9.59"/><path class="cls-1" d="M76.25,113.66c3.27-1.7-1.6-2.66-2.49-3.2s-.68-.2-1.94-.88-1.18-1.62-.47-2.23c.5-.42,1.12-.47,2.55,0a23.87,23.87,0,0,1,3.37.89c1.65.63,1.09.37,2,1.07a28.39,28.39,0,0,1,3,3.48c2.68,3.3,4.37,4.27,5.84,5.7S98.7,127,98.7,127"/><line class="cls-1" x1="55.3" y1="96.78" x2="15.01" y2="108.69"/><path class="cls-3" d="M79.68,98.47"/><path class="cls-3" d="M98,93.05"/><line class="cls-1" x1="88.52" y1="86.97" x2="73.65" y2="91.36"/><polyline class="cls-1" points="100.76 101.85 85.96 93.08 82.15 94.19"/><line class="cls-1" x1="88.52" y1="86.97" x2="100.35" y2="93.97"/><line class="cls-1" x1="88.94" y1="81.5" x2="88.94" y2="30.18"/><path class="cls-1" d="M54.88,102l-24.39,7.08,0,0a5.29,5.29,0,0,0-3.21,4.85A5.06,5.06,0,0,0,29.47,118l51.08,28.43"/><path class="cls-1" d="M61.31,111.43c-.66-.2-1,.14-.85-.33s.4,0,.44-.89,0-.89-.15-1.22"/><polyline class="cls-2" points="7.88 7.83 102.16 7.83 102.16 31.09 7.88 31.09"/><path class="cls-5" d="M34.69,24c3.24,0,5.36-1.44,5.36-5.22,0-3.33-2-4.82-5.27-4.82H30.32V24"/><polyline class="cls-5" points="43.69 24.02 44.1 22.72 47.39 22.72 47.75 24.02 51.03 24.02 47.43 13.98 44.1 13.98 40.5 24.02"/><polyline class="cls-5" points="58.87 19.48 58.73 17.18 58.73 13.98 61.88 13.98 61.88 24.02 58.78 24.02 55.18 18.53 55.31 20.82 55.31 24.02 52.16 24.02 52.16 13.98 55.27 13.98"/><path class="cls-5" d="M73.55,24.07H71.43l-.13-1a3.59,3.59,0,0,1-3,1.26c-2.57,0-4.86-1.66-4.86-5.17,0-3.2,2-5.41,5.27-5.41a4.4,4.4,0,0,1,4.72,3.74h-3.1a1.62,1.62,0,0,0-1.71-1.26c-1.27,0-1.9,1.12-1.9,2.93,0,1.39.45,2.7,2.12,2.7a1.71,1.71,0,0,0,1.67-1.17H69V18.49h4.51"/><polyline class="cls-5" points="75.57 24.02 75.57 13.98 83.77 13.98 83.77 16.32 78.86 16.32 78.86 17.77 83 17.77 83 20.11 78.86 20.11 78.86 21.68 83.95 21.68 83.95 24.02"/><path class="cls-5" d="M89.76,20.51c1.53,0,1.76.45,1.76,1.76A6,6,0,0,0,91.7,24H95v-.31c-.41,0-.36-.45-.36-1.76,0-2-.63-2.29-1.71-2.65a2.36,2.36,0,0,0,1.71-2.48c0-1.94-1.13-2.84-4.46-2.84H85.48V24h3.29V20.51"/><polyline class="cls-6" points="46.8 20.6 44.73 20.6 45.72 17"/><path class="cls-6" d="M88.77,16.32H90.3c.77,0,1.31.32,1.31,1s-.54.94-1.54.94h-1.3"/><path class="cls-6" d="M26.85,24.11H16.31c-.67,0-1.26-.49-.58-1.62l5.13-8.82a.71.71,0,0,1,.72-.54.78.78,0,0,1,.77.54l5.09,8.82c.67,1.13.13,1.58-.59,1.62"/><path class="cls-6" d="M21.58,15.15c-1.62,0-1.17,2-.27,4.91a.29.29,0,0,0,.27.27h0a.3.3,0,0,0,.32-.27c.9-2.88,1.35-4.91-.32-4.91"/><path class="cls-6" d="M21.58,21.46h0a.85.85,0,0,0-.85.85.86.86,0,0,0,.85.9.9.9,0,0,0,.9-.9.89.89,0,0,0-.9-.85"/><path class="cls-5" d="M21.94,20.11a.33.33,0,0,1-.31.31h-.05a.3.3,0,0,1-.31-.31c-1-3.29-1.53-5.59.31-5.59s1.35,2.3.36,5.59m-.36,3.55a1,1,0,0,1,0-2h.05a1,1,0,0,1,.94,1A1,1,0,0,1,21.58,23.66Zm.77-10a.78.78,0,0,0-.77-.54.71.71,0,0,0-.72.54l-5.13,8.82c-.68,1.13-.09,1.58.58,1.62H26.85c.72,0,1.26-.49.59-1.62Z"/><path class="cls-6" d="M32.84,21.55V16.46h1.94c2.2,0,2.74.72,2.74,2.34,0,2.16-.72,2.75-2.83,2.75"/><line class="cls-1" x1="102.05" y1="147.88" x2="102.05" y2="8.09"/><rect class="cls-7" x="0.75" y="0.75" width="251.5" height="154.64"/><rect class="cls-1" x="8" y="8.19" width="236.66" height="139.74"/><text class="cls-8" transform="translate(108.02 17.83)"><tspan class="cls-9">W</tspan><tspan class="cls-10" x="7.25" y="0">a</tspan><tspan class="cls-11" x="11.7" y="0">t</tspan><tspan x="13.81" y="0" xml:space="preserve">er    </tspan><tspan class="cls-12" x="29.82" y="0">t</tspan><tspan class="cls-13" x="31.93" y="0">e</tspan><tspan class="cls-14" x="36.38" y="0">m</tspan><tspan class="cls-10" x="43.08" y="0">pe</tspan><tspan class="cls-15" x="51.98" y="0">r</tspan><tspan x="54.6" y="0">atu</tspan><tspan class="cls-16" x="65.72" y="0">r</tspan><tspan x="68.3" y="0" xml:space="preserve">e     </tspan><tspan class="cls-17" x="83.86" y="0">o</tspan><tspan class="cls-18" x="88.17" y="0">v</tspan><tspan x="92" y="0" xml:space="preserve">er     125°F</tspan><tspan x="0" y="10" xml:space="preserve">(52°C)    can   cause   se</tspan><tspan class="cls-19" x="89.78" y="10">r</tspan><tspan class="cls-18" x="92.67" y="10">v</tspan><tspan x="96.5" y="10">e</tspan><tspan class="cls-20" x="100.95" y="10">r</tspan><tspan x="103.53" y="10" xml:space="preserve">e   burns</tspan><tspan x="0" y="19.6">in</tspan><tspan class="cls-21" x="6.22" y="19.6">s</tspan><tspan class="cls-22" x="10.2" y="19.6">t</tspan><tspan class="cls-13" x="12.42" y="19.6">ant</tspan><tspan class="cls-15" x="23.54" y="19.6">l</tspan><tspan x="25.27" y="19.6">y </tspan><tspan class="cls-16" x="31.5" y="19.6">r</tspan><tspan x="34.07" y="19.6" xml:space="preserve">esulting  in s</tspan><tspan class="cls-23" x="78.54" y="19.6">e</tspan><tspan class="cls-18" x="82.86" y="19.6">v</tspan><tspan class="cls-10" x="86.7" y="19.6">e</tspan><tspan class="cls-16" x="91.14" y="19.6">r</tspan><tspan x="93.72" y="19.6" xml:space="preserve">e  inju</tspan><tspan class="cls-24" x="115.06" y="19.6">r</tspan><tspan x="117.92" y="19.6">y or</tspan><tspan x="0" y="29.2">dea</tspan><tspan class="cls-25" x="13.34" y="29.2">t</tspan><tspan class="cls-13" x="15.54" y="29.2">h.</tspan></text><text class="cls-8" transform="translate(107.02 59.17)">Child<tspan class="cls-16" x="18.22" y="0">r</tspan><tspan class="cls-10" x="20.8" y="0" xml:space="preserve">en,     </tspan><tspan class="cls-25" x="43.04" y="0">t</tspan><tspan x="45.24" y="0" xml:space="preserve">he    elde</tspan><tspan class="cls-26" x="78.15" y="0">r</tspan><tspan class="cls-27" x="80.82" y="0">l</tspan><tspan class="cls-28" x="82.56" y="0">y</tspan><tspan x="86" y="0" xml:space="preserve">,     and    </tspan><tspan class="cls-25" x="121.58" y="0">t</tspan><tspan x="123.78" y="0">he</tspan><tspan x="0" y="9.6">p</tspan><tspan class="cls-29" x="4.45" y="9.6">h</tspan><tspan class="cls-30" x="8.75" y="9.6">y</tspan><tspan x="12.66" y="9.6">sical</tspan><tspan class="cls-15" x="28.66" y="9.6">l</tspan><tspan x="30.39" y="9.6">y or men</tspan><tspan class="cls-22" x="61.51" y="9.6">t</tspan><tspan class="cls-13" x="63.73" y="9.6">al</tspan><tspan class="cls-15" x="69.95" y="9.6">l</tspan><tspan x="71.69" y="9.6" xml:space="preserve">y disabled  a</tspan><tspan class="cls-20" x="116.6" y="9.6">r</tspan><tspan x="119.18" y="9.6">e at</tspan><tspan x="0" y="19.2">highe</tspan><tspan class="cls-25" x="19.57" y="19.2">s</tspan><tspan x="23.54" y="19.2">t </tspan><tspan class="cls-26" x="27.99" y="19.2">r</tspan><tspan class="cls-10" x="30.66" y="19.2">isk </tspan><tspan class="cls-31" x="42.66" y="19.2">f</tspan><tspan class="cls-13" x="44.81" y="19.2">or scald inju</tspan><tspan class="cls-24" x="87.49" y="19.2">r</tspan><tspan class="cls-28" x="90.34" y="19.2">y</tspan><tspan x="93.78" y="19.2">.</tspan></text><text/><text class="cls-8" transform="translate(107.18 90)"><tspan class="cls-32">F</tspan><tspan class="cls-10" x="4.7" y="0" xml:space="preserve">eel    </tspan><tspan class="cls-23" x="24.26" y="0">w</tspan><tspan class="cls-10" x="29.92" y="0">a</tspan><tspan class="cls-11" x="34.37" y="0">t</tspan><tspan x="36.48" y="0" xml:space="preserve">er     be</tspan><tspan class="cls-31" x="63.61" y="0">f</tspan><tspan x="65.75" y="0">o</tspan><tspan class="cls-16" x="70.2" y="0">r</tspan><tspan class="cls-10" x="72.78" y="0" xml:space="preserve">e    ba</tspan><tspan class="cls-25" x="95.02" y="0">t</tspan><tspan class="cls-13" x="97.22" y="0" xml:space="preserve">hing     or</tspan><tspan x="0" y="9.6">sh</tspan><tspan class="cls-33" x="8.45" y="9.6">o</tspan><tspan class="cls-30" x="12.82" y="9.6">w</tspan><tspan x="18.5" y="9.6">e</tspan><tspan class="cls-26" x="22.94" y="9.6">r</tspan><tspan x="25.62" y="9.6">ing.</tspan></text><text class="cls-34" transform="translate(107.02 111.83)"><tspan class="cls-35">T</tspan><tspan x="3.93" y="0">empe</tspan><tspan class="cls-31" x="23.94" y="0">r</tspan><tspan class="cls-10" x="26.52" y="0" xml:space="preserve">ature    limiting    </tspan><tspan class="cls-36" x="87.43" y="0">v</tspan><tspan class="cls-10" x="91.23" y="0">al</tspan><tspan class="cls-36" x="97.46" y="0">v</tspan><tspan x="101.26" y="0" xml:space="preserve">es     are</tspan><tspan class="cls-37" x="0" y="9.6">a</tspan><tspan class="cls-38" x="4.29" y="9.6">v</tspan><tspan x="8.09" y="9.6">aila</tspan><tspan class="cls-37" x="20.54" y="9.6">b</tspan><tspan class="cls-10" x="24.82" y="9.6">l</tspan><tspan class="cls-23" x="26.6" y="9.6">e</tspan><tspan class="cls-39" x="30.93" y="9.6">.</tspan></text><text class="cls-34" transform="translate(107.02 133.5)"><tspan xml:space="preserve">Read   inst</tspan><tspan class="cls-40" x="38.24" y="0">r</tspan><tspan class="cls-13" x="41.02" y="0" xml:space="preserve">uction   ma</tspan><tspan class="cls-31" x="80.15" y="0">n</tspan><tspan x="84.52" y="0" xml:space="preserve">ual   </tspan><tspan class="cls-41" x="101.86" y="0">f</tspan><tspan x="103.85" y="0" xml:space="preserve">or   sa</tspan><tspan class="cls-41" x="126.08" y="0">f</tspan><tspan x="128.06" y="0">e</tspan><tspan x="0" y="9.6">tempe</tspan><tspan class="cls-31" x="22.23" y="9.6">r</tspan><tspan class="cls-10" x="24.82" y="9.6" xml:space="preserve">ature  setting</tspan><tspan class="cls-39" x="71.06" y="9.6">.</tspan></text></svg>