<svg id="Layer_1" data-name="Layer 1" xmlns="http://www.w3.org/2000/svg" xmlns:xlink="http://www.w3.org/1999/xlink" viewBox="0 0 255.7 110.37"><defs><style>.cls-1,.cls-10,.cls-11,.cls-2,.cls-4,.cls-5,.cls-7{fill:none;}.cls-10,.cls-11,.cls-2{stroke:#000;}.cls-2{stroke-miterlimit:10;}.cls-3{clip-path:url(#clip-path);}.cls-4,.cls-5,.cls-7{stroke:#231f20;}.cls-4{stroke-width:1.21px;}.cls-5{stroke-width:1px;}.cls-6{fill:#231f20;}.cls-7{stroke-width:2.41px;}.cls-8{fill:#fff;}.cls-9{clip-path:url(#clip-path-6);}.cls-10{stroke-width:0.95px;}.cls-11{stroke-width:0.95px;}</style><clipPath id="clip-path"><rect class="cls-1" x="0.5" y="0.5" width="254.7" height="109.37"/></clipPath><clipPath id="clip-path-6"><rect class="cls-2" x="0.5" y="0.5" width="254.7" height="109.37"/></clipPath></defs><title>dngr_burn-hzrd_hot-wtr-dschrge</title><g class="cls-3"><path class="cls-4" d="M28.53,61.51l3.75,0c.24-4.17,2.5-5.45,3-5.88h0l0-3.25c-2.27-1.48-2.74-4.77-2.74-6.48l-3.26,0c.07,2.8-1.45,5.42-3.43,6.32v3.54a8.12,8.12,0,0,1,2.66,5.72ZM27.38,46c0,.76-.37,3.54-1.85,4.28l-4.09-.06c1.48-.74,1.86-3.48,1.83-4.23Zm-7.27,9.86.06-4.09,4.09.06-.06,4.07Zm6.33,5.87c0-.75-.3-3.54-1.75-4.31l-4.09,0c1.46.78,1.77,3.52,1.73,4.28Zm3.85-8.28c.13-.46.39-.77.7-.77s.78.64.78,1.42-.35,1.42-.78,1.42-.58-.33-.71-.81m-12.77,6a7.11,7.11,0,0,1-4.65,1.76c-4.17,0-7.56-3.76-7.56-8.4s3.39-8.4,7.56-8.4A7,7,0,0,1,17,46.91l4.3.11a8.76,8.76,0,0,0-3,6.62c0,3,.38,5.76,2,7Zm91.19,16.5L90.85,66.54l-4.59,1.33m9.14-9.53,14.28,8.45"/></g><line class="cls-5" x1="95.09" y1="58.25" x2="95.09" y2="25.6"/><g class="cls-3"><path class="cls-4" d="M53.09,54.21c-1.32,3.34-3.88,5.62-6.84,5.62-4.29,0-7.76-4.8-7.76-10.71S42,38.41,46.25,38.41c2.85,0,5.34,2.12,6.69,5.27M51.37,54.22c-1.09,2.13-2.86,3.51-4.85,3.51-3.33,0-6-3.86-6-8.61s2.69-8.6,6-8.6a5.57,5.57,0,0,1,4.67,3.17m0,0,.05.08M46.06,54c-1.75,0-3.18-2.28-3.18-5.11s1.43-5.12,3.18-5.12m-.28,0,20.94,0c4.06-.14,12.32,3.22,8.71,16.34l-7.74-.05c-1.58-2.76-1.81-5.85-6.13-5.85L45.85,54m30.42-9.64,3.29,0a6.19,6.19,0,0,1,2.61-5.16h0l0-2.86c-2-1.31-2.41-4.2-2.41-5.7l-2.87,0a6,6,0,0,1-3,5.56v3.11a7.21,7.21,0,0,1,2.34,5Zm-1-13.68c0,.67-.33,3.11-1.62,3.76l-3.6,0c1.3-.65,1.64-3.06,1.61-3.73Zm-6.39,8.67,0-3.6,3.6,0-.05,3.58Zm5.56,5.16c0-.66-.25-3.11-1.53-3.79l-3.6,0c1.28.68,1.56,3.09,1.52,3.76Zm3.39-7.28c.12-.4.35-.68.62-.68s.69.56.69,1.25-.31,1.25-.69,1.25-.52-.29-.63-.71M58.52,43.66a7.68,7.68,0,0,1-2.68-5.92c0-4.08,3-7.39,6.65-7.39a6.16,6.16,0,0,1,3.59,1.17l3.78.1a7.67,7.67,0,0,0-2.61,5.82c0,2.61.33,5.07,1.76,6.15H66.58M61.76,87.05a1.58,1.58,0,0,0,.43-.22c.7-.49,1-1.55,1.39-.22s-.76-.52-.34.59-.13,2.7.78,1.58-.27-.87,1-.49c.31.09.57.08.56.15-.16.68-.47,1-.28,1.27.74,1.12.2,1.9,1.11.72.66-.87,0-1.58.93-1.12s1.27-.65,1.27.68-.46.22.28,1,.75,1.61,1,.42-.49-1.61.42-1.4.7-.77,1,.42.36.8.7,1.18c.5.56.77,1.27.77,0S72.18,90,72.88,90s.56-.42,1.05.56,0,.56.48,1,1.19,1,1.19.49.07.21-.06-.91-.7-2.09.56-1.32c1,.6.55,1.92,1.52,1.61s.19-1.32.18-1.33c-.17-.39-.29-.92-.31-.85-.07.28-.34-.49.78-.21s.47.9,1,.9.76-.4.41-1.24-1.86-.35-.25-.83,1.82-.51,1.26-.58A18.6,18.6,0,0,0,78.75,87m-11-26.26-6.3,22.77a1.57,1.57,0,0,0,.51.56"/><path class="cls-6" d="M66,99.06h1a1,1,0,0,0,.69-.18.57.57,0,0,0,.2-.46.52.52,0,0,0-.2-.43,1.09,1.09,0,0,0-.69-.17H66Zm0-2.39h.82a1,1,0,0,0,.62-.16.56.56,0,0,0,.17-.44.53.53,0,0,0-.17-.41,1,1,0,0,0-.61-.15H66Zm-1.9-2.4h3.53a1.91,1.91,0,0,1,1.35.44,1.45,1.45,0,0,1,.14,2,1.53,1.53,0,0,1-.66.41,1.67,1.67,0,0,1,1,.54,1.49,1.49,0,0,1,.31,1,1.61,1.61,0,0,1-.23.85,1.57,1.57,0,0,1-.6.6,2,2,0,0,1-.71.2c-.43,0-.71.08-.85.08H64.08Z"/><path class="cls-6" d="M74.44,94.27h1.87V97.9a3.11,3.11,0,0,1-.16,1,2.31,2.31,0,0,1-.53.84,2,2,0,0,1-.75.5,3.73,3.73,0,0,1-1.32.21,8.54,8.54,0,0,1-1-.06,2.87,2.87,0,0,1-.88-.25,2.3,2.3,0,0,1-.65-.53,1.92,1.92,0,0,1-.4-.7,3.86,3.86,0,0,1-.17-1V94.27h1.87V98A1,1,0,0,0,73.4,99a1,1,0,0,0,1-1.05Z"/><path class="cls-6" d="M79.48,96.73h.79a3.34,3.34,0,0,0,.5-.08.48.48,0,0,0,.31-.19.55.55,0,0,0,.12-.35.59.59,0,0,0-.19-.45,1.17,1.17,0,0,0-.7-.15h-.83Zm-1.89,3.63V94.27h3.13a4.57,4.57,0,0,1,1.34.15,1.37,1.37,0,0,1,.74.56,1.63,1.63,0,0,1,.29,1,1.7,1.7,0,0,1-.22.87,1.72,1.72,0,0,1-.6.6,2.08,2.08,0,0,1-.66.24,1.79,1.79,0,0,1,.48.23,1.9,1.9,0,0,1,.31.32,2.6,2.6,0,0,1,.26.38l.92,1.76H81.45l-1-1.86a1.44,1.44,0,0,0-.34-.47.83.83,0,0,0-.46-.14h-.17v2.47Z"/></g><polygon class="cls-6" points="84.2 94.27 85.95 94.27 88.25 97.64 88.25 94.27 90.02 94.27 90.02 100.36 88.25 100.36 85.97 97 85.97 100.36 84.2 100.36 84.2 94.27"/><path class="cls-4" d="M68.53,61.1l-5.63,25m6.48-24.82L64.66,88m5.65-26.53L67.23,89m4-27.48-1.26,28.2m2.68-5.88L72.72,90m-.56-28.49.39,19.93M75,85.54l.41,5M73,61.16,74.5,79.88m2.58,6.64.37,3m-3.54-28.6L76.26,80"/><line class="cls-7" x1="79.12" y1="86.54" x2="79.2" y2="87.02"/><line class="cls-4" x1="74.83" y1="60.38" x2="78.03" y2="80.06"/><rect class="cls-8" x="60.74" y="64.26" width="20.92" height="10.78"/><polygon class="cls-6" points="56.65 65.11 59.46 65.11 59.46 68.3 62.56 68.3 62.56 65.11 65.39 65.11 65.39 74.24 62.56 74.24 62.56 70.54 59.46 70.54 59.46 74.24 56.65 74.24 56.65 65.11"/><g class="cls-3"><path class="cls-6" d="M69.74,69.69a3.07,3.07,0,0,0,.51,2,1.95,1.95,0,0,0,2.82,0,3.37,3.37,0,0,0,.5-2.12A2.82,2.82,0,0,0,73,67.68a1.79,1.79,0,0,0-1.41-.59,1.71,1.71,0,0,0-1.37.6,3,3,0,0,0-.52,2m-2.82,0a4.73,4.73,0,0,1,1.25-3.49A4.67,4.67,0,0,1,71.63,65a4.75,4.75,0,0,1,3.52,1.22,4.59,4.59,0,0,1,1.23,3.43,5.49,5.49,0,0,1-.54,2.63,3.74,3.74,0,0,1-1.55,1.6,5.16,5.16,0,0,1-2.54.57,5.84,5.84,0,0,1-2.56-.49,3.9,3.9,0,0,1-1.64-1.56,5.17,5.17,0,0,1-.63-2.67"/></g><polygon class="cls-6" points="76.93 65.11 85.52 65.11 85.52 67.36 82.63 67.36 82.63 74.24 79.81 74.24 79.81 67.36 76.93 67.36 76.93 65.11"/><g class="cls-3"><path class="cls-4" d="M61.22,83.34A18.8,18.8,0,0,1,59,79.45c-1.22-2.06-2.71-2.13-2.71-.44a4,4,0,0,0,.4,2c.41.86.57,1.58,1.71,4l1.49,2.75c-.05.53-2.31-.51-6.15-3.31C53,84,50.12,82.74,49.51,84s1.66,2.55,2.31,3c4.31,2.69,7,4.3,7,4.74,0,.81-.53.61-4.42-.69-4.49-1.5-4.21-1.42-4.74-1.62-1.7-.65-3.19-.35-3.56,0-.93,1-.32,1.38.73,2.15a10.88,10.88,0,0,0,4.49,2.18,44.94,44.94,0,0,0,5.15,1.91c1.89.52,4.49,1.74,3.59,1.8a26.64,26.64,0,0,1-6.63-.14c-2-.31-5.14-.78-5.55.44a1.84,1.84,0,0,0,1.3,2c1.8.63.75.68,5.91,1.18s1.3.13,8,.78,11.9.86,17.49,1.79c2.91.48,3.46-.47,8.48,2.84,4.06,2.68,2.65,1.72,3.8,2.78M80,89.09c3.94-2.06-1.94-3.21-3-3.86s-.82-.25-2.34-1.06-1.43-2-.56-2.69c.59-.51,1.34-.57,3.07-.06a27.2,27.2,0,0,1,4.06,1.07c2,.76,1.32.45,2.43,1.29A36.37,36.37,0,0,1,87.15,88c3.23,4,5.27,5.17,7,6.89s13.8,11.9,13.8,11.9M54.67,69.86,3.48,85.44M94.75,58l-17.94,5.3M54.16,77.13,24.72,85.68l.06-.05a6.39,6.39,0,0,0-3.88,5.85,6.14,6.14,0,0,0,2.59,5L41.9,107.74m20-21.34c-.79-.25-1.15.17-1-.4s.47,0,.52-1.07,0-1.08-.19-1.48"/></g><polyline class="cls-6" points="1.3 0.62 110.28 0.62 110.28 26.16 1.3 26.16"/><g class="cls-3"><path class="cls-6" d="M21.23,18H9.1c-.78-.05-1.46-.57-.68-1.86L14.33,6a.83.83,0,0,1,.83-.63A.9.9,0,0,1,16,6L21.9,16.16c.78,1.29.16,1.81-.67,1.86"/><path class="cls-6" d="M15.16,7.71c-1.87,0-1.34,2.33-.31,5.65a.34.34,0,0,0,.67,0c1-3.32,1.56-5.65-.36-5.65"/><path class="cls-6" d="M15.16,15h0a1,1,0,0,0-1,1,1,1,0,0,0,1,1,1,1,0,1,0,0-2"/><path class="cls-8" d="M16,6a.9.9,0,0,0-.88-.63.83.83,0,0,0-.83.63L8.42,16.16C7.65,17.45,8.32,18,9.1,18H21.23c.83-.05,1.45-.57.67-1.86Zm-.88,11.5a1.14,1.14,0,1,1,0-2.28h.05a1.14,1.14,0,0,1-.05,2.28m.42-4.09a.39.39,0,0,1-.37.36h-.05a.35.35,0,0,1-.36-.36C13.61,9.63,13,7,15.16,7s1.56,2.65.42,6.43"/></g><g class="cls-9"><line class="cls-10" x1="110.49" y1="109" x2="110.49" y2="0.62"/><rect class="cls-11" x="0.98" y="0.98" width="253.75" height="108.42"/></g><rect class="cls-2" x="0.5" y="0.5" width="254.7" height="109.37"/><g class="cls-3"><path d="M120.64,23.07a1.88,1.88,0,1,1-1.87-1.87,1.87,1.87,0,0,1,1.87,1.87"/><path d="M120.08,45.34a1.88,1.88,0,1,1-1.87-1.87,1.87,1.87,0,0,1,1.87,1.87"/><path d="M120.17,66.43a1.88,1.88,0,1,1-1.88-1.87,1.88,1.88,0,0,1,1.88,1.87"/></g><path class="cls-6" d="M125.44,26.72V19.85H128a3.2,3.2,0,0,1,1.27.21,1.64,1.64,0,0,1,.74.64,1.69,1.69,0,0,1,.27.91,1.57,1.57,0,0,1-.24.83,1.72,1.72,0,0,1-.72.63,1.78,1.78,0,0,1,1,.62,1.68,1.68,0,0,1,.33,1,2,2,0,0,1-.2.9,1.74,1.74,0,0,1-.5.64,2.14,2.14,0,0,1-.76.34,4.91,4.91,0,0,1-1.1.11Zm.91-4h1.48a3.53,3.53,0,0,0,.87-.08.91.91,0,0,0,.7-.94,1.08,1.08,0,0,0-.17-.6.78.78,0,0,0-.47-.36,4,4,0,0,0-1-.1h-1.37Zm0,3.17h1.71a4.11,4.11,0,0,0,.61,0,1.5,1.5,0,0,0,.53-.19,1,1,0,0,0,.35-.38,1.21,1.21,0,0,0,.13-.58,1.05,1.05,0,0,0-.74-1.07,3.66,3.66,0,0,0-1-.11h-1.58Z"/><path class="cls-6" d="M135,26.72V26a1.82,1.82,0,0,1-1.58.84,2,2,0,0,1-.82-.16,1.38,1.38,0,0,1-.57-.43,1.66,1.66,0,0,1-.26-.62,4.83,4.83,0,0,1-.05-.79V21.75h.84v2.76a5.49,5.49,0,0,0,0,.89.94.94,0,0,0,.34.52,1,1,0,0,0,.64.19,1.39,1.39,0,0,0,.71-.2,1,1,0,0,0,.47-.53,2.65,2.65,0,0,0,.14-1V21.75h.84v5Z"/><path class="cls-6" d="M137.09,26.72v-5h.76v.75a2.22,2.22,0,0,1,.54-.7.94.94,0,0,1,.54-.17,1.62,1.62,0,0,1,.87.28l-.29.78a1.23,1.23,0,0,0-.62-.18.83.83,0,0,0-.5.16.94.94,0,0,0-.31.46,3.12,3.12,0,0,0-.14,1v2.6Z"/><path class="cls-6" d="M140.3,26.72v-5h.76v.7a1.79,1.79,0,0,1,1.58-.82,2.05,2.05,0,0,1,.83.17,1.17,1.17,0,0,1,.56.42,1.52,1.52,0,0,1,.27.62,5.23,5.23,0,0,1,0,.82v3.06h-.84v-3a2.23,2.23,0,0,0-.1-.78.75.75,0,0,0-.35-.4,1.13,1.13,0,0,0-.59-.15,1.37,1.37,0,0,0-.93.34,1.68,1.68,0,0,0-.39,1.29v2.72Z"/><path class="cls-6" d="M148.3,26.72V19.85h.85v2.47a1.87,1.87,0,0,1,1.48-.69,2.13,2.13,0,0,1,1,.22,1.34,1.34,0,0,1,.58.6,2.75,2.75,0,0,1,.18,1.12v3.15h-.85V23.57a1.31,1.31,0,0,0-.27-.92,1,1,0,0,0-.78-.29,1.44,1.44,0,0,0-.7.19,1.09,1.09,0,0,0-.47.53,2.31,2.31,0,0,0-.14.92v2.72Z"/><path class="cls-6" d="M156.89,26.11a3.4,3.4,0,0,1-.91.56,2.56,2.56,0,0,1-.93.16,1.82,1.82,0,0,1-1.26-.4,1.31,1.31,0,0,1-.44-1,1.39,1.39,0,0,1,.17-.67,1.36,1.36,0,0,1,.44-.48,2,2,0,0,1,.6-.28,7.43,7.43,0,0,1,.75-.12,7.89,7.89,0,0,0,1.51-.3v-.22a.92.92,0,0,0-.24-.72,1.41,1.41,0,0,0-1-.29,1.48,1.48,0,0,0-.88.21,1.29,1.29,0,0,0-.42.74l-.82-.11a2,2,0,0,1,.37-.86,1.62,1.62,0,0,1,.74-.5,3.27,3.27,0,0,1,1.13-.18,3,3,0,0,1,1,.15,1.36,1.36,0,0,1,.58.38,1.25,1.25,0,0,1,.27.58,5.91,5.91,0,0,1,0,.77v1.13a13.86,13.86,0,0,0,.05,1.49,1.93,1.93,0,0,0,.22.59h-.89A1.82,1.82,0,0,1,156.89,26.11Zm-.07-1.88a6.24,6.24,0,0,1-1.38.31,3.41,3.41,0,0,0-.74.17.83.83,0,0,0-.33.28.7.7,0,0,0-.12.4.73.73,0,0,0,.26.56,1.1,1.1,0,0,0,.75.22,1.74,1.74,0,0,0,.86-.21,1.26,1.26,0,0,0,.56-.58,2,2,0,0,0,.14-.85Z"/><path class="cls-6" d="M158.53,26.72V26l3.17-3.64-.95,0h-2v-.68h4.07v.55l-2.7,3.16-.52.58c.38,0,.73,0,1.06,0h2.31v.72Z"/><path class="cls-6" d="M167,26.11a3.21,3.21,0,0,1-.9.56,2.6,2.6,0,0,1-.93.16,1.78,1.78,0,0,1-1.26-.4,1.28,1.28,0,0,1-.44-1,1.38,1.38,0,0,1,.16-.67,1.46,1.46,0,0,1,.44-.48,2,2,0,0,1,.61-.28,6.56,6.56,0,0,1,.75-.12,7.59,7.59,0,0,0,1.5-.3c0-.11,0-.18,0-.22a.92.92,0,0,0-.24-.72,1.43,1.43,0,0,0-1-.29,1.48,1.48,0,0,0-.88.21,1.29,1.29,0,0,0-.42.74l-.83-.11a2.13,2.13,0,0,1,.37-.86,1.6,1.6,0,0,1,.75-.5,3.23,3.23,0,0,1,1.13-.18,3,3,0,0,1,1,.15,1.4,1.4,0,0,1,.59.38,1.35,1.35,0,0,1,.26.58,4.51,4.51,0,0,1,0,.77v1.13a10.84,10.84,0,0,0,.06,1.49,1.67,1.67,0,0,0,.21.59h-.88A1.61,1.61,0,0,1,167,26.11ZM167,24.23a6.1,6.1,0,0,1-1.38.31,3.28,3.28,0,0,0-.73.17.79.79,0,0,0-.34.28.77.77,0,0,0-.11.4.72.72,0,0,0,.25.56,1.1,1.1,0,0,0,.75.22,1.81,1.81,0,0,0,.87-.21,1.23,1.23,0,0,0,.55-.58,1.89,1.89,0,0,0,.14-.85Z"/><path class="cls-6" d="M169.1,26.72v-5h.76v.75a2,2,0,0,1,.54-.7.94.94,0,0,1,.54-.17,1.56,1.56,0,0,1,.86.28l-.29.78a1.2,1.2,0,0,0-.62-.18.78.78,0,0,0-.49.16,1,1,0,0,0-.32.46,3.43,3.43,0,0,0-.14,1v2.6Z"/><path class="cls-6" d="M175.53,26.72v-.63a1.53,1.53,0,0,1-1.39.74,1.93,1.93,0,0,1-1.09-.32,2.18,2.18,0,0,1-.77-.92,3,3,0,0,1-.28-1.35,3.42,3.42,0,0,1,.25-1.35A1.93,1.93,0,0,1,173,22a2,2,0,0,1,1.12-.33,1.78,1.78,0,0,1,.8.19,1.84,1.84,0,0,1,.57.5V19.85h.84v6.87Zm-2.66-2.48a2.16,2.16,0,0,0,.4,1.43,1.24,1.24,0,0,0,.95.47,1.2,1.2,0,0,0,.94-.45,2.07,2.07,0,0,0,.39-1.38,2.3,2.3,0,0,0-.4-1.5,1.2,1.2,0,0,0-1-.48,1.17,1.17,0,0,0-.93.46A2.23,2.23,0,0,0,172.87,24.24Z"/><path class="cls-6" d="M177.88,26.72v-1h1v1Z"/><path class="cls-6" d="M125.32,48.29V41.42h.91v2.83h3.57V41.42h.91v6.87h-.91V45.06h-3.57v3.23Z"/><path class="cls-6" d="M131.8,45.81a2.56,2.56,0,0,1,.77-2.05,2.31,2.31,0,0,1,1.56-.56,2.22,2.22,0,0,1,1.68.68,2.54,2.54,0,0,1,.65,1.86,3.19,3.19,0,0,1-.29,1.51,2.06,2.06,0,0,1-.83.85,2.5,2.5,0,0,1-1.21.31,2.24,2.24,0,0,1-1.68-.67A2.68,2.68,0,0,1,131.8,45.81Zm.87,0a2.18,2.18,0,0,0,.41,1.43,1.41,1.41,0,0,0,2.1,0,2.17,2.17,0,0,0,.42-1.46,2.05,2.05,0,0,0-.42-1.4,1.39,1.39,0,0,0-2.1,0A2.14,2.14,0,0,0,132.67,45.81Z"/><path class="cls-6" d="M139.29,47.54l.12.74a3.1,3.1,0,0,1-.63.08,1.43,1.43,0,0,1-.72-.15.8.8,0,0,1-.35-.38,3,3,0,0,1-.1-1V44H137v-.65h.62V42.09l.84-.51v1.74h.84V44h-.84v2.91a1.57,1.57,0,0,0,0,.47.36.36,0,0,0,.14.16.6.6,0,0,0,.29.06Z"/><path class="cls-6" d="M143.7,48.29l-1.52-5h.87l.79,2.87.3,1.07c0-.06.1-.4.25-1l.8-2.91h.86l.75,2.88.25,1,.28-1,.86-2.88H149l-1.56,5h-.88l-.79-3-.19-.84-1,3.82Z"/><path class="cls-6" d="M153,47.68a3,3,0,0,1-.9.56,2.6,2.6,0,0,1-.93.17,1.83,1.83,0,0,1-1.26-.4,1.31,1.31,0,0,1-.44-1,1.41,1.41,0,0,1,.16-.67,1.46,1.46,0,0,1,.44-.48,2.28,2.28,0,0,1,.61-.28,6.56,6.56,0,0,1,.75-.12,7.74,7.74,0,0,0,1.5-.29v-.22a1,1,0,0,0-.23-.73,1.43,1.43,0,0,0-1-.29,1.48,1.48,0,0,0-.88.21,1.29,1.29,0,0,0-.42.74l-.83-.11a2.13,2.13,0,0,1,.37-.86,1.6,1.6,0,0,1,.75-.5,3.23,3.23,0,0,1,1.13-.18,2.93,2.93,0,0,1,1,.16,1.3,1.3,0,0,1,.59.37,1.41,1.41,0,0,1,.26.58,4.51,4.51,0,0,1,0,.77v1.13a10.84,10.84,0,0,0,.06,1.49,1.67,1.67,0,0,0,.21.59h-.88A1.61,1.61,0,0,1,153,47.68Zm-.07-1.88a6.59,6.59,0,0,1-1.38.32,2.89,2.89,0,0,0-.73.16.79.79,0,0,0-.34.28.77.77,0,0,0-.11.4.72.72,0,0,0,.25.56,1.1,1.1,0,0,0,.75.23,1.81,1.81,0,0,0,.87-.22,1.28,1.28,0,0,0,.55-.58,2,2,0,0,0,.14-.84Z"/><path class="cls-6" d="M156.89,47.54l.12.74a3.1,3.1,0,0,1-.63.08,1.43,1.43,0,0,1-.72-.15.76.76,0,0,1-.35-.38,2.92,2.92,0,0,1-.11-1V44h-.61v-.65h.61V42.09l.84-.51v1.74h.85V44H156v2.91a1.46,1.46,0,0,0,.05.47.36.36,0,0,0,.14.16.6.6,0,0,0,.29.06Z"/><path class="cls-6" d="M161.12,46.69l.87.11a2.07,2.07,0,0,1-.76,1.18,2.25,2.25,0,0,1-1.43.43,2.29,2.29,0,0,1-1.73-.68,2.63,2.63,0,0,1-.64-1.88,2.75,2.75,0,0,1,.65-2,2.2,2.2,0,0,1,1.68-.7,2.14,2.14,0,0,1,1.63.68A2.74,2.74,0,0,1,162,45.8V46h-3.71a1.9,1.9,0,0,0,.46,1.26,1.37,1.37,0,0,0,1,.43,1.3,1.3,0,0,0,.79-.24A1.6,1.6,0,0,0,161.12,46.69Zm-2.77-1.36h2.78a1.66,1.66,0,0,0-.32-.94,1.27,1.27,0,0,0-1-.49,1.33,1.33,0,0,0-1,.39A1.56,1.56,0,0,0,158.35,45.33Z"/><path class="cls-6" d="M163,48.29v-5h.76v.75a2.19,2.19,0,0,1,.54-.7.94.94,0,0,1,.54-.17,1.71,1.71,0,0,1,.87.28l-.29.78a1.25,1.25,0,0,0-.62-.18.81.81,0,0,0-.5.16.88.88,0,0,0-.31.46,3.12,3.12,0,0,0-.14,1v2.6Z"/><path class="cls-6" d="M172.14,48.29v-.62a1.55,1.55,0,0,1-1.39.74,1.92,1.92,0,0,1-1.09-.33,2.2,2.2,0,0,1-.78-.92,3.19,3.19,0,0,1-.27-1.35,3.42,3.42,0,0,1,.25-1.35,1.87,1.87,0,0,1,.74-.93,2,2,0,0,1,1.11-.33,1.61,1.61,0,0,1,.8.2,1.63,1.63,0,0,1,.58.49V41.42h.83v6.87Zm-2.66-2.48a2.16,2.16,0,0,0,.4,1.43,1.2,1.2,0,0,0,1.89,0,2.07,2.07,0,0,0,.39-1.38,2.3,2.3,0,0,0-.4-1.5,1.21,1.21,0,0,0-1.91,0A2.29,2.29,0,0,0,169.48,45.81Z"/><path class="cls-6" d="M174.26,42.39v-1h.84v1Zm0,5.9v-5h.84v5Z"/><path class="cls-6" d="M176,46.81l.84-.13a1.22,1.22,0,0,0,.39.77,1.4,1.4,0,0,0,.9.26,1.38,1.38,0,0,0,.86-.23.71.71,0,0,0,.28-.56.51.51,0,0,0-.25-.45,3.58,3.58,0,0,0-.86-.28,8.67,8.67,0,0,1-1.29-.41,1.24,1.24,0,0,1-.54-.47,1.29,1.29,0,0,1-.18-.67,1.32,1.32,0,0,1,.15-.62,1.42,1.42,0,0,1,.41-.47,1.51,1.51,0,0,1,.54-.24,2.48,2.48,0,0,1,.73-.11,3,3,0,0,1,1,.17,1.49,1.49,0,0,1,.65.46,1.75,1.75,0,0,1,.29.77l-.82.11a1,1,0,0,0-.33-.6,1.21,1.21,0,0,0-.76-.21,1.37,1.37,0,0,0-.83.19.55.55,0,0,0-.25.45.54.54,0,0,0,.1.3.76.76,0,0,0,.33.22l.74.22a10.32,10.32,0,0,1,1.25.39,1.3,1.3,0,0,1,.56.44,1.25,1.25,0,0,1,.2.72,1.4,1.4,0,0,1-.25.8,1.51,1.51,0,0,1-.71.57,2.52,2.52,0,0,1-1.05.21,2.35,2.35,0,0,1-1.48-.41A1.93,1.93,0,0,1,176,46.81Z"/><path class="cls-6" d="M184.43,46.47l.83.11a2.16,2.16,0,0,1-.7,1.34,2,2,0,0,1-1.37.49,2.17,2.17,0,0,1-1.65-.67,2.73,2.73,0,0,1-.62-1.91,3.49,3.49,0,0,1,.27-1.42,1.88,1.88,0,0,1,.81-.9,2.45,2.45,0,0,1,1.19-.31,2.06,2.06,0,0,1,1.33.42,1.9,1.9,0,0,1,.66,1.16l-.82.13a1.37,1.37,0,0,0-.42-.76,1.07,1.07,0,0,0-.72-.25,1.28,1.28,0,0,0-1,.46,2.12,2.12,0,0,0-.4,1.44,2.3,2.3,0,0,0,.38,1.46,1.26,1.26,0,0,0,1,.45,1.21,1.21,0,0,0,.83-.3A1.56,1.56,0,0,0,184.43,46.47Z"/><path class="cls-6" d="M186,48.29V41.42h.84v2.47a1.87,1.87,0,0,1,1.49-.69,2.06,2.06,0,0,1,1,.22,1.34,1.34,0,0,1,.59.61,2.86,2.86,0,0,1,.17,1.11v3.15h-.84V45.14a1.27,1.27,0,0,0-.28-.92,1,1,0,0,0-.77-.29,1.39,1.39,0,0,0-.71.2,1.12,1.12,0,0,0-.47.52,2.54,2.54,0,0,0-.14.92v2.72Z"/><path class="cls-6" d="M194.56,47.68a3,3,0,0,1-.9.56,2.6,2.6,0,0,1-.93.17,1.83,1.83,0,0,1-1.26-.4,1.34,1.34,0,0,1-.44-1,1.31,1.31,0,0,1,.17-.67,1.33,1.33,0,0,1,.43-.48,2.28,2.28,0,0,1,.61-.28,6.56,6.56,0,0,1,.75-.12,7.74,7.74,0,0,0,1.5-.29c0-.12,0-.19,0-.22a.93.93,0,0,0-.24-.73,1.43,1.43,0,0,0-1-.29,1.48,1.48,0,0,0-.88.21,1.29,1.29,0,0,0-.42.74l-.83-.11a2.13,2.13,0,0,1,.37-.86,1.65,1.65,0,0,1,.75-.5,3.27,3.27,0,0,1,1.13-.18,3,3,0,0,1,1,.16,1.27,1.27,0,0,1,.58.37,1.29,1.29,0,0,1,.26.58,4.51,4.51,0,0,1,0,.77v1.13a10.84,10.84,0,0,0,.06,1.49,1.9,1.9,0,0,0,.21.59h-.88A1.82,1.82,0,0,1,194.56,47.68Zm-.07-1.88a6.44,6.44,0,0,1-1.38.32,2.89,2.89,0,0,0-.73.16.71.71,0,0,0-.33.28.7.7,0,0,0-.12.4.72.72,0,0,0,.25.56,1.1,1.1,0,0,0,.75.23,1.78,1.78,0,0,0,.87-.22,1.31,1.31,0,0,0,.56-.58,2,2,0,0,0,.13-.84Z"/><path class="cls-6" d="M196.64,48.29v-5h.76v.75a2.06,2.06,0,0,1,.54-.7.94.94,0,0,1,.54-.17,1.71,1.71,0,0,1,.87.28l-.3.78a1.19,1.19,0,0,0-.61-.18.81.81,0,0,0-.5.16.88.88,0,0,0-.31.46,3.12,3.12,0,0,0-.14,1v2.6Z"/><path class="cls-6" d="M199.69,48.71l.82.12a.78.78,0,0,0,.29.55,1.37,1.37,0,0,0,.86.24,1.46,1.46,0,0,0,.9-.24,1.13,1.13,0,0,0,.43-.66,5.13,5.13,0,0,0,.06-1.08,1.72,1.72,0,0,1-1.38.65,1.84,1.84,0,0,1-1.58-.74,2.8,2.8,0,0,1-.57-1.77,3.38,3.38,0,0,1,.26-1.32,2,2,0,0,1,.75-.93,2,2,0,0,1,1.15-.33,1.77,1.77,0,0,1,1.45.72v-.6h.78v4.3a4.08,4.08,0,0,1-.24,1.65,1.67,1.67,0,0,1-.75.76,2.55,2.55,0,0,1-1.26.28,2.38,2.38,0,0,1-1.44-.4A1.36,1.36,0,0,1,199.69,48.71Zm.7-3a2.16,2.16,0,0,0,.39,1.43,1.23,1.23,0,0,0,1,.45,1.25,1.25,0,0,0,1-.45,2.11,2.11,0,0,0,.39-1.4,2,2,0,0,0-.4-1.38,1.26,1.26,0,0,0-1-.47,1.23,1.23,0,0,0-1,.46A2,2,0,0,0,200.39,45.72Z"/><path class="cls-6" d="M208.59,46.69l.87.11A2.12,2.12,0,0,1,208.7,48a2.25,2.25,0,0,1-1.43.43,2.29,2.29,0,0,1-1.73-.68,2.63,2.63,0,0,1-.64-1.88,2.75,2.75,0,0,1,.65-2,2.2,2.2,0,0,1,1.68-.7,2.14,2.14,0,0,1,1.63.68,2.74,2.74,0,0,1,.63,1.92,2,2,0,0,1,0,.22h-3.71a1.9,1.9,0,0,0,.47,1.26,1.37,1.37,0,0,0,1,.43,1.3,1.3,0,0,0,.79-.24A1.6,1.6,0,0,0,208.59,46.69Zm-2.77-1.36h2.78a1.66,1.66,0,0,0-.32-.94,1.28,1.28,0,0,0-1-.49,1.33,1.33,0,0,0-1,.39A1.56,1.56,0,0,0,205.82,45.33Z"/><path class="cls-6" d="M210.76,48.29v-1h1v1Z"/><path class="cls-6" d="M125.5,69.84V63h.91v3.4l3.41-3.4h1.24l-2.88,2.78,3,4.09H130l-2.44-3.48-1.13,1.1v2.38Z"/><path class="cls-6" d="M135.24,68.23l.87.11a2.15,2.15,0,0,1-.76,1.19,2.6,2.6,0,0,1-3.16-.25,2.67,2.67,0,0,1-.64-1.89,2.75,2.75,0,0,1,.65-2,2.19,2.19,0,0,1,1.68-.69,2.11,2.11,0,0,1,1.63.68,2.7,2.7,0,0,1,.63,1.91v.22h-3.71a1.9,1.9,0,0,0,.46,1.26,1.37,1.37,0,0,0,1,.43,1.3,1.3,0,0,0,.79-.24A1.6,1.6,0,0,0,135.24,68.23Zm-2.77-1.36h2.78a1.66,1.66,0,0,0-.32-.94,1.28,1.28,0,0,0-1-.49,1.33,1.33,0,0,0-1,.39A1.58,1.58,0,0,0,132.47,66.87Z"/><path class="cls-6" d="M140.58,68.23l.87.11a2.15,2.15,0,0,1-.76,1.19,2.33,2.33,0,0,1-1.43.42,2.3,2.3,0,0,1-1.73-.67,2.62,2.62,0,0,1-.64-1.89,2.75,2.75,0,0,1,.65-2,2.19,2.19,0,0,1,1.67-.69,2.09,2.09,0,0,1,1.63.68,2.66,2.66,0,0,1,.64,1.91,2,2,0,0,1,0,.22h-3.71a2,2,0,0,0,.46,1.26,1.4,1.4,0,0,0,1.05.43,1.32,1.32,0,0,0,.79-.24A1.6,1.6,0,0,0,140.58,68.23Zm-2.77-1.36h2.78a1.74,1.74,0,0,0-.32-.94,1.29,1.29,0,0,0-1.05-.49,1.33,1.33,0,0,0-1,.39A1.53,1.53,0,0,0,137.81,66.87Z"/><path class="cls-6" d="M142.51,71.74V64.86h.77v.65a1.72,1.72,0,0,1,.61-.57,1.64,1.64,0,0,1,.83-.19A2,2,0,0,1,146.58,66a3.32,3.32,0,0,1,.25,1.31,3.24,3.24,0,0,1-.28,1.38,2,2,0,0,1-.79.93,2,2,0,0,1-1.1.33,1.61,1.61,0,0,1-.76-.18,1.87,1.87,0,0,1-.55-.45v2.42Zm.76-4.36a2.17,2.17,0,0,0,.39,1.42,1.2,1.2,0,0,0,.94.45,1.21,1.21,0,0,0,1-.47,2.3,2.3,0,0,0,.4-1.47,2.16,2.16,0,0,0-.4-1.43,1.18,1.18,0,0,0-.93-.47,1.21,1.21,0,0,0-.95.5A2.26,2.26,0,0,0,143.27,67.38Z"/><path class="cls-6" d="M153.76,68l.83.11a2.16,2.16,0,0,1-.7,1.34,2,2,0,0,1-1.37.49,2.15,2.15,0,0,1-1.65-.67,2.71,2.71,0,0,1-.62-1.91,3.41,3.41,0,0,1,.27-1.41,1.86,1.86,0,0,1,.81-.91,2.45,2.45,0,0,1,1.19-.3,2.05,2.05,0,0,1,1.33.41,1.9,1.9,0,0,1,.66,1.16l-.82.13a1.37,1.37,0,0,0-.42-.76,1.12,1.12,0,0,0-.72-.25,1.28,1.28,0,0,0-1,.46,2.12,2.12,0,0,0-.4,1.44,2.28,2.28,0,0,0,.38,1.46,1.26,1.26,0,0,0,1,.45,1.21,1.21,0,0,0,.83-.3A1.53,1.53,0,0,0,153.76,68Z"/><path class="cls-6" d="M155.29,69.84V63h.84v6.87Z"/><path class="cls-6" d="M160.85,68.23l.87.11a2.15,2.15,0,0,1-.76,1.19,2.33,2.33,0,0,1-1.43.42,2.3,2.3,0,0,1-1.73-.67,2.62,2.62,0,0,1-.64-1.89,2.75,2.75,0,0,1,.65-2,2.19,2.19,0,0,1,1.67-.69,2.09,2.09,0,0,1,1.63.68,2.66,2.66,0,0,1,.64,1.91,2,2,0,0,1,0,.22H158a2,2,0,0,0,.46,1.26,1.4,1.4,0,0,0,1,.43,1.32,1.32,0,0,0,.79-.24A1.67,1.67,0,0,0,160.85,68.23Zm-2.77-1.36h2.78a1.74,1.74,0,0,0-.32-.94,1.29,1.29,0,0,0-1-.49,1.33,1.33,0,0,0-1,.39A1.53,1.53,0,0,0,158.08,66.87Z"/><path class="cls-6" d="M166,69.22a3,3,0,0,1-.9.56,2.6,2.6,0,0,1-.93.17,1.85,1.85,0,0,1-1.26-.4,1.4,1.4,0,0,1-.27-1.69,1.36,1.36,0,0,1,.43-.49,2.28,2.28,0,0,1,.61-.28,7.43,7.43,0,0,1,.75-.12,7.74,7.74,0,0,0,1.5-.29c0-.12,0-.19,0-.22a.93.93,0,0,0-.24-.73,1.43,1.43,0,0,0-1-.28,1.57,1.57,0,0,0-.88.2,1.29,1.29,0,0,0-.42.74l-.82-.11a1.94,1.94,0,0,1,.37-.86,1.7,1.7,0,0,1,.74-.5,3.53,3.53,0,0,1,1.13-.17,3,3,0,0,1,1,.15,1.15,1.15,0,0,1,.84.95,4.27,4.27,0,0,1,.05.78v1.12a11.42,11.42,0,0,0,.05,1.49,2.14,2.14,0,0,0,.21.6h-.88A2.16,2.16,0,0,1,166,69.22ZM166,67.34a6.47,6.47,0,0,1-1.37.32,2.79,2.79,0,0,0-.74.17.73.73,0,0,0-.33.27.7.7,0,0,0-.12.4.71.71,0,0,0,.26.56,1.09,1.09,0,0,0,.74.23,1.66,1.66,0,0,0,.87-.22,1.31,1.31,0,0,0,.56-.58,2,2,0,0,0,.13-.84Z"/><path class="cls-6" d="M168.1,69.84v-5h.76v.75a2.15,2.15,0,0,1,.54-.69.87.87,0,0,1,.54-.17,1.66,1.66,0,0,1,.87.27l-.29.78a1.23,1.23,0,0,0-.62-.18.76.76,0,0,0-.5.17.9.9,0,0,0-.31.46,3.1,3.1,0,0,0-.14,1v2.61Z"/><path class="cls-6" d="M173.66,67.35a2.58,2.58,0,0,1,.77-2,2.31,2.31,0,0,1,1.56-.55,2.21,2.21,0,0,1,1.68.67,2.54,2.54,0,0,1,.65,1.86,3.33,3.33,0,0,1-.28,1.51,2.08,2.08,0,0,1-.84.85A2.4,2.4,0,0,1,176,70a2.24,2.24,0,0,1-1.68-.67A2.68,2.68,0,0,1,173.66,67.35Zm.87,0a2.11,2.11,0,0,0,.42,1.43,1.29,1.29,0,0,0,1,.47,1.33,1.33,0,0,0,1-.47,2.17,2.17,0,0,0,.42-1.46,2.05,2.05,0,0,0-.42-1.4,1.33,1.33,0,0,0-1-.47,1.29,1.29,0,0,0-1,.47A2.09,2.09,0,0,0,174.53,67.35Z"/><path class="cls-6" d="M179.51,69.84V65.52h-.74v-.66h.74v-.53a2.27,2.27,0,0,1,.09-.74,1.13,1.13,0,0,1,.43-.54,1.61,1.61,0,0,1,.86-.2,4.7,4.7,0,0,1,.79.08l-.13.74a2.92,2.92,0,0,0-.5-.05.74.74,0,0,0-.54.17.91.91,0,0,0-.16.61v.46h1v.66h-1v4.32Z"/><path class="cls-6" d="M186.32,69.84V63.78h-2.26V63h5.44v.81h-2.27v6.06Z"/><path class="cls-6" d="M192.68,68.23l.87.11a2.15,2.15,0,0,1-.76,1.19,2.6,2.6,0,0,1-3.16-.25,2.67,2.67,0,0,1-.64-1.89,2.75,2.75,0,0,1,.65-2,2.19,2.19,0,0,1,1.68-.69,2.11,2.11,0,0,1,1.63.68,2.7,2.7,0,0,1,.63,1.91,2,2,0,0,1,0,.22h-3.71a1.9,1.9,0,0,0,.47,1.26,1.37,1.37,0,0,0,1,.43,1.3,1.3,0,0,0,.79-.24A1.6,1.6,0,0,0,192.68,68.23Zm-2.77-1.36h2.78a1.74,1.74,0,0,0-.32-.94,1.28,1.28,0,0,0-1-.49,1.33,1.33,0,0,0-1,.39A1.53,1.53,0,0,0,189.91,66.87Z"/><path class="cls-6" d="M194.6,69.84v-5h.76v.7A1.67,1.67,0,0,1,196,65a1.72,1.72,0,0,1,.88-.22,1.58,1.58,0,0,1,.91.23,1.19,1.19,0,0,1,.5.64,1.79,1.79,0,0,1,1.54-.87,1.5,1.5,0,0,1,1.14.41,1.76,1.76,0,0,1,.39,1.26v3.42h-.84V66.7a2.18,2.18,0,0,0-.08-.73.68.68,0,0,0-.29-.36,1,1,0,0,0-.51-.13,1.15,1.15,0,0,0-.87.35A1.53,1.53,0,0,0,198.4,67v2.89h-.84V66.6a1.41,1.41,0,0,0-.21-.84.77.77,0,0,0-.67-.28,1.18,1.18,0,0,0-.66.19,1,1,0,0,0-.44.54,3.09,3.09,0,0,0-.14,1v2.59Z"/><path class="cls-6" d="M202.59,71.74V64.86h.77v.65a1.75,1.75,0,0,1,.62-.57,1.62,1.62,0,0,1,.83-.19,1.94,1.94,0,0,1,1.12.33,2,2,0,0,1,.74.92,3.51,3.51,0,0,1,.24,1.31,3.4,3.4,0,0,1-.27,1.38,2,2,0,0,1-.8.93,2,2,0,0,1-1.1.33,1.54,1.54,0,0,1-.75-.18,1.65,1.65,0,0,1-.55-.45v2.42Zm.77-4.36a2.17,2.17,0,0,0,.39,1.42,1.2,1.2,0,0,0,.94.45,1.21,1.21,0,0,0,1-.47,2.24,2.24,0,0,0,.4-1.47,2.22,2.22,0,0,0-.39-1.43,1.18,1.18,0,0,0-.93-.47,1.24,1.24,0,0,0-1,.5A2.32,2.32,0,0,0,203.36,67.38Z"/><path class="cls-6" d="M211.34,68.23l.87.11a2.15,2.15,0,0,1-.76,1.19A2.33,2.33,0,0,1,210,70a2.3,2.3,0,0,1-1.73-.67,2.62,2.62,0,0,1-.64-1.89,2.75,2.75,0,0,1,.65-2,2.19,2.19,0,0,1,1.67-.69,2.09,2.09,0,0,1,1.63.68,2.66,2.66,0,0,1,.64,1.91,2,2,0,0,1,0,.22h-3.71a2,2,0,0,0,.46,1.26,1.4,1.4,0,0,0,1.05.43,1.32,1.32,0,0,0,.79-.24A1.6,1.6,0,0,0,211.34,68.23Zm-2.77-1.36h2.78a1.74,1.74,0,0,0-.32-.94,1.29,1.29,0,0,0-1.05-.49,1.33,1.33,0,0,0-1,.39A1.53,1.53,0,0,0,208.57,66.87Z"/><path class="cls-6" d="M213.26,69.84v-5H214v.75a2,2,0,0,1,.53-.69.92.92,0,0,1,.55-.17A1.63,1.63,0,0,1,216,65l-.29.78a1.23,1.23,0,0,0-.62-.18.73.73,0,0,0-.49.17.86.86,0,0,0-.32.46,3.41,3.41,0,0,0-.14,1v2.61Z"/><path class="cls-6" d="M219.71,69.22a3,3,0,0,1-.9.56,2.6,2.6,0,0,1-.93.17,1.83,1.83,0,0,1-1.26-.4,1.31,1.31,0,0,1-.44-1,1.34,1.34,0,0,1,.16-.66,1.49,1.49,0,0,1,.44-.49,2.28,2.28,0,0,1,.61-.28,6.56,6.56,0,0,1,.75-.12,7.74,7.74,0,0,0,1.5-.29v-.22a1,1,0,0,0-.23-.73,1.43,1.43,0,0,0-1-.28,1.57,1.57,0,0,0-.88.2,1.29,1.29,0,0,0-.42.74l-.83-.11a2.2,2.2,0,0,1,.37-.86,1.68,1.68,0,0,1,.75-.5,3.49,3.49,0,0,1,1.13-.17,3,3,0,0,1,1,.15,1.39,1.39,0,0,1,.59.37,1.47,1.47,0,0,1,.26.58,4.57,4.57,0,0,1,0,.78v1.12a10.73,10.73,0,0,0,.06,1.49,1.66,1.66,0,0,0,.21.6h-.88A1.66,1.66,0,0,1,219.71,69.22Zm-.07-1.88a6.59,6.59,0,0,1-1.38.32,2.8,2.8,0,0,0-.73.17.71.71,0,0,0-.34.27.77.77,0,0,0-.11.4.7.7,0,0,0,.25.56,1.1,1.1,0,0,0,.75.23,1.71,1.71,0,0,0,.87-.22,1.28,1.28,0,0,0,.55-.58,2,2,0,0,0,.14-.84Z"/><path class="cls-6" d="M223.64,69.08l.12.75a3,3,0,0,1-.63.07,1.56,1.56,0,0,1-.72-.14.82.82,0,0,1-.35-.39,2.88,2.88,0,0,1-.11-1V65.52h-.61v-.66H222V63.63l.84-.51v1.74h.85v.66h-.85v2.91a1.38,1.38,0,0,0,.05.46.36.36,0,0,0,.14.16.6.6,0,0,0,.29.06Z"/><path class="cls-6" d="M227.73,69.84v-.73a1.83,1.83,0,0,1-1.58.84,2,2,0,0,1-.82-.17,1.29,1.29,0,0,1-.57-.42,1.5,1.5,0,0,1-.26-.63,3.91,3.91,0,0,1-.05-.79V64.86h.84v2.76a5.4,5.4,0,0,0,.05.89.86.86,0,0,0,.34.52,1,1,0,0,0,.64.19A1.38,1.38,0,0,0,227,69a1.09,1.09,0,0,0,.47-.53,2.69,2.69,0,0,0,.14-1V64.86h.84v5Z"/><path class="cls-6" d="M229.79,69.84v-5h.76v.75a2,2,0,0,1,.54-.69.87.87,0,0,1,.54-.17,1.69,1.69,0,0,1,.87.27l-.29.78a1.25,1.25,0,0,0-.62-.18.76.76,0,0,0-.5.17.84.84,0,0,0-.31.46,3.1,3.1,0,0,0-.14,1v2.61Z"/><path class="cls-6" d="M236.4,68.23l.88.11a2.16,2.16,0,0,1-.77,1.19,2.59,2.59,0,0,1-3.15-.25,2.62,2.62,0,0,1-.64-1.89,2.75,2.75,0,0,1,.64-2,2.19,2.19,0,0,1,1.68-.69,2.09,2.09,0,0,1,1.63.68,2.7,2.7,0,0,1,.63,1.91v.22h-3.71a1.9,1.9,0,0,0,.46,1.26,1.39,1.39,0,0,0,1,.43,1.28,1.28,0,0,0,.79-.24A1.53,1.53,0,0,0,236.4,68.23Zm-2.77-1.36h2.78a1.59,1.59,0,0,0-.32-.94,1.26,1.26,0,0,0-1-.49,1.35,1.35,0,0,0-1,.39A1.58,1.58,0,0,0,233.63,66.87Z"/><path class="cls-6" d="M238,67.77v-.84h2.59v.84Z"/><path class="cls-6" d="M125.54,81.35V74.48h2.59a5.6,5.6,0,0,1,1.05.07,2,2,0,0,1,.85.32,1.8,1.8,0,0,1,.55.66,2.27,2.27,0,0,1,.21.94,2.11,2.11,0,0,1-.56,1.48,2.67,2.67,0,0,1-2,.61h-1.76v2.79Zm.91-3.6h1.78a1.89,1.89,0,0,0,1.25-.33,1.34,1.34,0,0,0,.15-1.66,1.05,1.05,0,0,0-.57-.41,4,4,0,0,0-.85-.06h-1.76Z"/><path class="cls-6" d="M131.83,81.35v-5h.75v.75a2.22,2.22,0,0,1,.54-.7,1,1,0,0,1,.54-.17,1.64,1.64,0,0,1,.87.27l-.29.79a1.15,1.15,0,0,0-.62-.19.84.84,0,0,0-.5.17.9.9,0,0,0-.31.46,3.12,3.12,0,0,0-.14,1v2.6Z"/><path class="cls-6" d="M138.44,79.75l.87.11a2.08,2.08,0,0,1-.77,1.18,2.28,2.28,0,0,1-1.42.42,2.25,2.25,0,0,1-1.73-.67,2.62,2.62,0,0,1-.64-1.89A2.7,2.7,0,0,1,135.4,77a2.16,2.16,0,0,1,1.67-.7,2.13,2.13,0,0,1,1.63.68,2.66,2.66,0,0,1,.64,1.91c0,.05,0,.13,0,.23h-3.71a1.92,1.92,0,0,0,.46,1.25,1.4,1.4,0,0,0,1,.44,1.32,1.32,0,0,0,.79-.24A1.78,1.78,0,0,0,138.44,79.75Zm-2.77-1.37h2.78a1.77,1.77,0,0,0-.32-.94,1.41,1.41,0,0,0-2-.1A1.53,1.53,0,0,0,135.67,78.38Z"/><path class="cls-6" d="M140,79.87l.83-.14a1.19,1.19,0,0,0,.39.77,1.38,1.38,0,0,0,.9.27,1.28,1.28,0,0,0,.86-.24.68.68,0,0,0,.28-.55.52.52,0,0,0-.24-.45,3.79,3.79,0,0,0-.86-.29,7.84,7.84,0,0,1-1.29-.4,1.21,1.21,0,0,1-.54-.48,1.18,1.18,0,0,1-.19-.66,1.29,1.29,0,0,1,.15-.62,1.27,1.27,0,0,1,.42-.47,1.75,1.75,0,0,1,.53-.25,2.86,2.86,0,0,1,.73-.1,2.92,2.92,0,0,1,1,.17,1.36,1.36,0,0,1,.65.46,1.75,1.75,0,0,1,.29.77l-.82.11a.9.9,0,0,0-.33-.6,1.21,1.21,0,0,0-.76-.21,1.39,1.39,0,0,0-.83.19.57.57,0,0,0-.24.45.43.43,0,0,0,.1.29.8.8,0,0,0,.32.23l.75.21a11.68,11.68,0,0,1,1.25.39,1.29,1.29,0,0,1,.55.45,1.25,1.25,0,0,1,.2.72,1.43,1.43,0,0,1-.24.79,1.64,1.64,0,0,1-.71.58,2.52,2.52,0,0,1-1.05.2,2.33,2.33,0,0,1-1.48-.4A1.87,1.87,0,0,1,140,79.87Z"/><path class="cls-6" d="M144.83,79.87l.83-.14a1.19,1.19,0,0,0,.39.77,1.38,1.38,0,0,0,.9.27,1.28,1.28,0,0,0,.86-.24.68.68,0,0,0,.28-.55.51.51,0,0,0-.25-.45,3.43,3.43,0,0,0-.86-.29,7.64,7.64,0,0,1-1.28-.4,1.29,1.29,0,0,1-.55-.48,1.26,1.26,0,0,1-.18-.66,1.29,1.29,0,0,1,.15-.62,1.27,1.27,0,0,1,.42-.47,1.64,1.64,0,0,1,.53-.25,2.86,2.86,0,0,1,.73-.1,3,3,0,0,1,1,.17,1.41,1.41,0,0,1,.65.46,1.75,1.75,0,0,1,.29.77l-.82.11a.9.9,0,0,0-.33-.6,1.21,1.21,0,0,0-.76-.21,1.37,1.37,0,0,0-.83.19.58.58,0,0,0-.25.45.44.44,0,0,0,.11.29.74.74,0,0,0,.32.23l.75.21a10.62,10.62,0,0,1,1.24.39,1.32,1.32,0,0,1,.56.45,1.25,1.25,0,0,1,.2.72,1.37,1.37,0,0,1-.25.79,1.59,1.59,0,0,1-.71.58,2.44,2.44,0,0,1-1,.2,2.33,2.33,0,0,1-1.48-.4A1.87,1.87,0,0,1,144.83,79.87Z"/><path class="cls-6" d="M153.22,81.35v-.73a1.81,1.81,0,0,1-1.58.84,1.91,1.91,0,0,1-.82-.17,1.31,1.31,0,0,1-.56-.42,1.39,1.39,0,0,1-.26-.62,3.75,3.75,0,0,1-.06-.79V76.38h.85v2.75a4.39,4.39,0,0,0,.05.89.84.84,0,0,0,.34.53,1.07,1.07,0,0,0,.63.19,1.42,1.42,0,0,0,.72-.2A1.1,1.1,0,0,0,153,80a2.69,2.69,0,0,0,.13-1V76.38H154v5Z"/><path class="cls-6" d="M155.29,81.35v-5h.76v.75a2,2,0,0,1,.54-.7.94.94,0,0,1,.54-.17,1.63,1.63,0,0,1,.86.27l-.29.79a1.12,1.12,0,0,0-.62-.19.79.79,0,0,0-.49.17.91.91,0,0,0-.32.46,3.43,3.43,0,0,0-.14,1v2.6Z"/><path class="cls-6" d="M161.9,79.75l.87.11A2.12,2.12,0,0,1,162,81a2.31,2.31,0,0,1-1.43.42,2.28,2.28,0,0,1-1.73-.67,2.67,2.67,0,0,1-.64-1.89,2.74,2.74,0,0,1,.65-1.94,2.17,2.17,0,0,1,1.68-.7,2.14,2.14,0,0,1,1.63.68,2.7,2.7,0,0,1,.63,1.91v.23h-3.71a1.87,1.87,0,0,0,.46,1.25,1.38,1.38,0,0,0,1,.44,1.3,1.3,0,0,0,.79-.24A1.7,1.7,0,0,0,161.9,79.75Zm-2.77-1.37h2.78a1.69,1.69,0,0,0-.32-.94,1.3,1.3,0,0,0-1-.48,1.33,1.33,0,0,0-1,.38A1.58,1.58,0,0,0,159.13,78.38Z"/><path class="cls-6" d="M166.62,81.35V74.48h3a3.88,3.88,0,0,1,1.4.19,1.5,1.5,0,0,1,.76.65,1.88,1.88,0,0,1,.29,1,1.77,1.77,0,0,1-.47,1.23,2.51,2.51,0,0,1-1.46.64,1.86,1.86,0,0,1,.54.34,4.7,4.7,0,0,1,.76.91l1.19,1.87h-1.14l-.91-1.43a10.27,10.27,0,0,0-.66-1,1.9,1.9,0,0,0-.46-.45,1.38,1.38,0,0,0-.41-.19,3,3,0,0,0-.51,0h-1.05v3Zm.91-3.84h1.95a2.86,2.86,0,0,0,1-.13A1,1,0,0,0,171,77a1.11,1.11,0,0,0,.18-.61,1.05,1.05,0,0,0-.35-.81,1.72,1.72,0,0,0-1.12-.31h-2.17Z"/><path class="cls-6" d="M176.83,79.75l.88.11a2.14,2.14,0,0,1-.77,1.18,2.28,2.28,0,0,1-1.42.42,2.25,2.25,0,0,1-1.73-.67,2.62,2.62,0,0,1-.64-1.89,2.74,2.74,0,0,1,.64-1.94,2.17,2.17,0,0,1,1.68-.7,2.13,2.13,0,0,1,1.63.68,2.7,2.7,0,0,1,.63,1.91v.23H174a1.87,1.87,0,0,0,.46,1.25,1.4,1.4,0,0,0,1,.44,1.28,1.28,0,0,0,.79-.24A1.63,1.63,0,0,0,176.83,79.75Zm-2.77-1.37h2.78a1.61,1.61,0,0,0-.32-.94,1.28,1.28,0,0,0-1-.48,1.34,1.34,0,0,0-1,.38A1.58,1.58,0,0,0,174.06,78.38Z"/><path class="cls-6" d="M178.75,81.35V74.48h.84v6.87Z"/><path class="cls-6" d="M180.9,75.45v-1h.84v1Zm0,5.9v-5h.84v5Z"/><path class="cls-6" d="M186.43,79.75l.87.11a2.07,2.07,0,0,1-.76,1.18,2.28,2.28,0,0,1-1.42.42,2.25,2.25,0,0,1-1.73-.67,2.62,2.62,0,0,1-.64-1.89,2.74,2.74,0,0,1,.64-1.94,2.17,2.17,0,0,1,1.68-.7,2.13,2.13,0,0,1,1.63.68,2.7,2.7,0,0,1,.63,1.91v.23h-3.71a1.87,1.87,0,0,0,.46,1.25,1.4,1.4,0,0,0,1,.44,1.28,1.28,0,0,0,.79-.24A1.63,1.63,0,0,0,186.43,79.75Zm-2.77-1.37h2.78a1.69,1.69,0,0,0-.31-.94,1.31,1.31,0,0,0-1-.48,1.34,1.34,0,0,0-1,.38A1.58,1.58,0,0,0,183.66,78.38Z"/><path class="cls-6" d="M188.57,81.35V77h-.75v-.65h.75v-.54a2.66,2.66,0,0,1,.08-.74,1.12,1.12,0,0,1,.43-.53,1.52,1.52,0,0,1,.86-.21,3.9,3.9,0,0,1,.79.09l-.13.73a2.85,2.85,0,0,0-.49,0,.75.75,0,0,0-.55.16.93.93,0,0,0-.16.61v.47h1V77h-1v4.32Z"/><path class="cls-6" d="M195.77,81.35l-2.66-6.87h1l1.79,5c.14.4.26.78.36,1.13.1-.38.23-.75.37-1.13l1.85-5h.93l-2.69,6.87Z"/><path class="cls-6" d="M202.64,80.74a3.4,3.4,0,0,1-.91.56,2.56,2.56,0,0,1-.93.16,1.82,1.82,0,0,1-1.26-.4,1.34,1.34,0,0,1-.44-1,1.37,1.37,0,0,1,.61-1.15,1.74,1.74,0,0,1,.6-.28,6.9,6.9,0,0,1,.75-.13,8,8,0,0,0,1.51-.29V78a.92.92,0,0,0-.24-.72,1.41,1.41,0,0,0-1-.29,1.48,1.48,0,0,0-.88.21,1.25,1.25,0,0,0-.42.74l-.82-.12a2,2,0,0,1,.37-.85,1.55,1.55,0,0,1,.74-.5,3.27,3.27,0,0,1,1.13-.18,3,3,0,0,1,1,.15,1.36,1.36,0,0,1,.58.38,1.26,1.26,0,0,1,.27.57,6.23,6.23,0,0,1,0,.78v1.13a13.49,13.49,0,0,0,.05,1.48,1.89,1.89,0,0,0,.22.6h-.89A1.82,1.82,0,0,1,202.64,80.74Zm-.07-1.89a6.15,6.15,0,0,1-1.38.32,3.41,3.41,0,0,0-.74.17.73.73,0,0,0-.33.27A.75.75,0,0,0,200,80a.73.73,0,0,0,.26.56,1.1,1.1,0,0,0,.75.22,1.74,1.74,0,0,0,.86-.21,1.3,1.3,0,0,0,.56-.58,2.08,2.08,0,0,0,.14-.85Z"/><path class="cls-6" d="M204.71,81.35V74.48h.84v6.87Z"/><path class="cls-6" d="M208.24,81.35l-1.89-5h.89l1.07,3c.11.33.22.66.31,1,.08-.27.18-.58.32-1l1.1-3h.87l-1.88,5Z"/><path class="cls-6" d="M215.06,79.75l.87.11a2.07,2.07,0,0,1-.76,1.18,2.6,2.6,0,0,1-3.16-.25,2.66,2.66,0,0,1-.63-1.89A2.74,2.74,0,0,1,212,77a2.17,2.17,0,0,1,1.68-.7,2.14,2.14,0,0,1,1.63.68,2.7,2.7,0,0,1,.63,1.91v.23h-3.71a1.87,1.87,0,0,0,.46,1.25,1.38,1.38,0,0,0,1,.44,1.3,1.3,0,0,0,.79-.24A1.7,1.7,0,0,0,215.06,79.75Zm-2.77-1.37h2.78a1.69,1.69,0,0,0-.32-.94,1.29,1.29,0,0,0-1-.48,1.33,1.33,0,0,0-1,.38A1.58,1.58,0,0,0,212.29,78.38Z"/><path class="cls-6" d="M128.66,92.87v-.63a1.55,1.55,0,0,1-1.39.74,1.92,1.92,0,0,1-1.09-.33,2.14,2.14,0,0,1-.78-.92,3.19,3.19,0,0,1-.27-1.35,3.45,3.45,0,0,1,.25-1.35,1.93,1.93,0,0,1,1.85-1.25,1.6,1.6,0,0,1,.8.19,1.63,1.63,0,0,1,.58.49V86h.83v6.87ZM126,90.38a2.14,2.14,0,0,0,.4,1.43,1.2,1.2,0,0,0,1.89,0,2.07,2.07,0,0,0,.39-1.38,2.3,2.3,0,0,0-.4-1.5,1.21,1.21,0,0,0-1.91,0A2.29,2.29,0,0,0,126,90.38Z"/><path class="cls-6" d="M130.78,87V86h.84v1Zm0,5.9v-5h.84v5Z"/><path class="cls-6" d="M132.57,91.38l.83-.13a1.22,1.22,0,0,0,.39.77,1.34,1.34,0,0,0,.9.26,1.36,1.36,0,0,0,.86-.23.71.71,0,0,0,.28-.56.51.51,0,0,0-.25-.45,3.58,3.58,0,0,0-.86-.28,7.12,7.12,0,0,1-1.28-.41,1.22,1.22,0,0,1-.55-.47,1.29,1.29,0,0,1-.18-.67,1.32,1.32,0,0,1,.15-.62,1.53,1.53,0,0,1,.41-.47,1.71,1.71,0,0,1,.54-.24,2.48,2.48,0,0,1,.73-.1,2.75,2.75,0,0,1,1,.17,1.4,1.4,0,0,1,.65.45,1.75,1.75,0,0,1,.29.77l-.82.12a.9.9,0,0,0-.33-.6,1.15,1.15,0,0,0-.76-.22,1.37,1.37,0,0,0-.83.19.55.55,0,0,0-.25.45.48.48,0,0,0,.11.3.67.67,0,0,0,.32.22c.08,0,.33.11.74.22a10.32,10.32,0,0,1,1.25.39,1.17,1.17,0,0,1,.76,1.16,1.4,1.4,0,0,1-.25.8,1.51,1.51,0,0,1-.71.57,2.52,2.52,0,0,1-1.05.21,2.41,2.41,0,0,1-1.48-.4A1.9,1.9,0,0,1,132.57,91.38Z"/><path class="cls-6" d="M141,91l.83.11a2.11,2.11,0,0,1-.7,1.34,2,2,0,0,1-1.37.49,2.18,2.18,0,0,1-1.65-.67,2.71,2.71,0,0,1-.62-1.91,3.41,3.41,0,0,1,.27-1.41,1.86,1.86,0,0,1,.81-.91,2.45,2.45,0,0,1,1.19-.3,2.05,2.05,0,0,1,1.33.41,1.9,1.9,0,0,1,.66,1.16l-.82.13a1.37,1.37,0,0,0-.42-.76,1.05,1.05,0,0,0-.72-.25,1.28,1.28,0,0,0-1,.46,2.12,2.12,0,0,0-.4,1.44,2.28,2.28,0,0,0,.38,1.46,1.28,1.28,0,0,0,1,.45,1.21,1.21,0,0,0,.83-.3A1.53,1.53,0,0,0,141,91Z"/><path class="cls-6" d="M142.5,92.87V86h.84v2.46a1.88,1.88,0,0,1,1.49-.68,2,2,0,0,1,1,.22,1.27,1.27,0,0,1,.59.6,2.86,2.86,0,0,1,.17,1.11v3.16h-.84V89.71a1.27,1.27,0,0,0-.28-.92,1,1,0,0,0-.77-.29,1.39,1.39,0,0,0-.71.2,1.12,1.12,0,0,0-.47.52,2.54,2.54,0,0,0-.14.92v2.73Z"/><path class="cls-6" d="M151.08,92.25a3,3,0,0,1-.9.56,2.6,2.6,0,0,1-.93.17,1.83,1.83,0,0,1-1.26-.4,1.4,1.4,0,0,1-.27-1.69,1.29,1.29,0,0,1,.43-.49,2.28,2.28,0,0,1,.61-.28,6.56,6.56,0,0,1,.75-.12,7.74,7.74,0,0,0,1.5-.29c0-.12,0-.19,0-.22a.93.93,0,0,0-.24-.73,1.43,1.43,0,0,0-1-.29,1.48,1.48,0,0,0-.88.21,1.29,1.29,0,0,0-.42.74l-.82-.11a2.05,2.05,0,0,1,.36-.86,1.74,1.74,0,0,1,.75-.5,3.24,3.24,0,0,1,1.13-.17,3,3,0,0,1,1,.15,1.33,1.33,0,0,1,.59.37,1.29,1.29,0,0,1,.26.58,4.27,4.27,0,0,1,.05.78v1.12a11.53,11.53,0,0,0,0,1.49,2.26,2.26,0,0,0,.21.6h-.88A1.88,1.88,0,0,1,151.08,92.25ZM151,90.37a6.44,6.44,0,0,1-1.38.32,2.8,2.8,0,0,0-.73.17.64.64,0,0,0-.33.27.7.7,0,0,0-.12.4.72.72,0,0,0,.25.56,1.12,1.12,0,0,0,.75.23,1.66,1.66,0,0,0,.87-.22,1.31,1.31,0,0,0,.56-.58,2,2,0,0,0,.13-.84Z"/><path class="cls-6" d="M153.16,92.87v-5h.76v.75a2,2,0,0,1,.54-.69.87.87,0,0,1,.54-.17,1.69,1.69,0,0,1,.87.27l-.29.78a1.25,1.25,0,0,0-.62-.18.81.81,0,0,0-.5.16.91.91,0,0,0-.31.47,3.06,3.06,0,0,0-.14,1v2.61Z"/><path class="cls-6" d="M156.21,93.28l.82.12a.78.78,0,0,0,.29.55,1.37,1.37,0,0,0,.86.24,1.46,1.46,0,0,0,.9-.24,1.11,1.11,0,0,0,.43-.65,5.31,5.31,0,0,0,.06-1.09,1.73,1.73,0,0,1-1.37.66,1.88,1.88,0,0,1-1.59-.74,2.85,2.85,0,0,1-.57-1.78A3.29,3.29,0,0,1,156.3,89a2,2,0,0,1,.75-.94,2.09,2.09,0,0,1,1.15-.32,1.76,1.76,0,0,1,1.45.71v-.6h.78v4.3a4.08,4.08,0,0,1-.24,1.65,1.62,1.62,0,0,1-.75.76,2.55,2.55,0,0,1-1.26.28,2.38,2.38,0,0,1-1.44-.4A1.36,1.36,0,0,1,156.21,93.28Zm.7-3a2.16,2.16,0,0,0,.39,1.43,1.23,1.23,0,0,0,1,.45,1.25,1.25,0,0,0,1-.45,2.11,2.11,0,0,0,.39-1.4,2,2,0,0,0-.4-1.38,1.26,1.26,0,0,0-1-.47,1.25,1.25,0,0,0-1,.46A2.06,2.06,0,0,0,156.91,90.29Z"/><path class="cls-6" d="M165.11,91.26l.87.11a2.18,2.18,0,0,1-.76,1.19,2.6,2.6,0,0,1-3.16-.25,2.67,2.67,0,0,1-.64-1.89,2.75,2.75,0,0,1,.65-2,2.19,2.19,0,0,1,1.68-.69,2.11,2.11,0,0,1,1.63.68,2.7,2.7,0,0,1,.63,1.91v.22h-3.72a2,2,0,0,0,.47,1.26,1.37,1.37,0,0,0,1,.43,1.3,1.3,0,0,0,.79-.24A1.6,1.6,0,0,0,165.11,91.26Zm-2.77-1.36h2.78a1.66,1.66,0,0,0-.32-.94,1.28,1.28,0,0,0-1-.49,1.33,1.33,0,0,0-1,.39A1.56,1.56,0,0,0,162.34,89.9Z"/><path class="cls-6" d="M169.39,90.38a2.58,2.58,0,0,1,.77-2,2.31,2.31,0,0,1,1.57-.55,2.21,2.21,0,0,1,1.67.67,2.54,2.54,0,0,1,.65,1.86,3.33,3.33,0,0,1-.28,1.51,2,2,0,0,1-.84.85,2.39,2.39,0,0,1-1.2.31,2.26,2.26,0,0,1-1.69-.67A2.68,2.68,0,0,1,169.39,90.38Zm.87,0a2.12,2.12,0,0,0,.42,1.43,1.4,1.4,0,0,0,2.09,0,2.17,2.17,0,0,0,.42-1.46,2.05,2.05,0,0,0-.42-1.4,1.38,1.38,0,0,0-2.09,0A2.09,2.09,0,0,0,170.26,90.38Z"/><path class="cls-6" d="M178.3,92.87v-.74a1.79,1.79,0,0,1-1.57.85,2.09,2.09,0,0,1-.83-.17,1.25,1.25,0,0,1-.56-.43,1.46,1.46,0,0,1-.26-.62A3.91,3.91,0,0,1,175,91V87.89h.84v2.76a4.45,4.45,0,0,0,0,.89.86.86,0,0,0,.34.52,1,1,0,0,0,.63.19,1.41,1.41,0,0,0,.72-.19,1.09,1.09,0,0,0,.47-.53,2.73,2.73,0,0,0,.14-1V87.89h.84v5Z"/><path class="cls-6" d="M182.22,92.11l.12.75a3,3,0,0,1-.63.07,1.56,1.56,0,0,1-.72-.14.87.87,0,0,1-.35-.39,3,3,0,0,1-.1-1V88.54h-.62v-.65h.62V86.66l.83-.51v1.74h.85v.65h-.85v2.91a1.42,1.42,0,0,0,0,.47.36.36,0,0,0,.14.16.6.6,0,0,0,.29.06Z"/><path class="cls-6" d="M183,92.87V86h.84v6.87Z"/><path class="cls-6" d="M188.58,91.26l.88.11a2.2,2.2,0,0,1-.77,1.19,2.59,2.59,0,0,1-3.15-.25,2.62,2.62,0,0,1-.64-1.89,2.75,2.75,0,0,1,.64-2,2.19,2.19,0,0,1,1.68-.69,2.09,2.09,0,0,1,1.63.68,2.7,2.7,0,0,1,.63,1.91v.22h-3.71a2,2,0,0,0,.46,1.26,1.39,1.39,0,0,0,1,.43,1.28,1.28,0,0,0,.79-.24A1.53,1.53,0,0,0,188.58,91.26Zm-2.76-1.36h2.77a1.66,1.66,0,0,0-.31-.94,1.29,1.29,0,0,0-1.05-.49,1.35,1.35,0,0,0-1,.39A1.5,1.5,0,0,0,185.82,89.9Z"/><path class="cls-6" d="M192.36,92.11l.12.75a3.12,3.12,0,0,1-.64.07,1.54,1.54,0,0,1-.71-.14.84.84,0,0,1-.36-.39,3,3,0,0,1-.1-1V88.54h-.62v-.65h.62V86.66l.84-.51v1.74h.85v.65h-.85v2.91a1.52,1.52,0,0,0,0,.47.33.33,0,0,0,.15.16.57.57,0,0,0,.29.06Z"/><path class="cls-6" d="M193.42,92.87v-1h1v1Z"/><path class="cls-8" d="M24.72,6.42H30a6.34,6.34,0,0,1,2.51.42,4.13,4.13,0,0,1,1.58,1.21A5,5,0,0,1,35,9.89a8.88,8.88,0,0,1,.28,2.22A7.62,7.62,0,0,1,34.84,15a4.8,4.8,0,0,1-1.16,1.7,3.79,3.79,0,0,1-1.59.91,8.16,8.16,0,0,1-2.11.31H24.72ZM28.26,9v6.26h.87A3.71,3.71,0,0,0,30.7,15a1.68,1.68,0,0,0,.74-.86,5.62,5.62,0,0,0,.26-2,3.87,3.87,0,0,0-.59-2.49,2.51,2.51,0,0,0-2-.68Z"/><path class="cls-8" d="M43.47,16h-4l-.56,1.89H35.28L39.59,6.42h3.86l4.3,11.45H44Zm-.73-2.47L41.47,9.39l-1.25,4.12Z"/><path class="cls-8" d="M48.9,6.42h3.3l4.32,6.34V6.42h3.33V17.87H56.52l-4.29-6.29v6.29H48.9Z"/><path class="cls-8" d="M68,13.72V11.34h5.47v4.88a11.06,11.06,0,0,1-2.78,1.46,9.33,9.33,0,0,1-2.86.39,6.91,6.91,0,0,1-3.33-.7,4.75,4.75,0,0,1-2-2.07,6.8,6.8,0,0,1-.7-3.15,6.59,6.59,0,0,1,.77-3.27,5,5,0,0,1,2.26-2.1,7.42,7.42,0,0,1,3.14-.56,8.78,8.78,0,0,1,2.84.35,3.71,3.71,0,0,1,1.56,1.06,4.91,4.91,0,0,1,.93,1.84l-3.41.61a1.83,1.83,0,0,0-.72-1,2.2,2.2,0,0,0-1.28-.34A2.32,2.32,0,0,0,66,9.55a3.9,3.9,0,0,0-.69,2.56,4,4,0,0,0,.7,2.65,2.47,2.47,0,0,0,1.95.8,3.81,3.81,0,0,0,1.13-.17,6.43,6.43,0,0,0,1.24-.59V13.72Z"/><path class="cls-8" d="M75.52,6.42H85V8.87H79.07v1.82h5.51V13H79.07v2.26h6.11v2.59H75.52Z"/><path class="cls-8" d="M87.13,17.87V6.42H93a8.49,8.49,0,0,1,2.51.28,2.74,2.74,0,0,1,1.4,1,3.21,3.21,0,0,1,.53,1.86,3.1,3.1,0,0,1-1.53,2.77,4.27,4.27,0,0,1-1.24.45,3.5,3.5,0,0,1,.92.42,3.79,3.79,0,0,1,.57.6,4.38,4.38,0,0,1,.49.71l1.72,3.32h-4l-1.89-3.5a2.86,2.86,0,0,0-.64-.88,1.49,1.49,0,0,0-.87-.27h-.31v4.65Zm3.56-6.81h1.49a5,5,0,0,0,.94-.16.88.88,0,0,0,.57-.36A1.16,1.16,0,0,0,93.56,9a2.09,2.09,0,0,0-1.32-.3H90.69Z"/></svg>