<svg xmlns="http://www.w3.org/2000/svg" viewBox="0 0 238.89 96.97"><defs><style>.cls-1,.cls-2,.cls-3,.cls-7,.cls-8{fill:none;stroke:#000;}.cls-1{stroke-width:1.13px;}.cls-2{stroke-width:2.26px;}.cls-3{stroke-width:0.94px;}.cls-4,.cls-5{fill:#fff;}.cls-5,.cls-6{fill-rule:evenodd;}.cls-7{stroke-width:0.89px;}.cls-8{stroke-width:0.89px;}.cls-9{font-size:8px;font-family:ArialMT, Arial;}.cls-10{letter-spacing:0.96em;}.cls-11{letter-spacing:-0.07em;}.cls-12{letter-spacing:1.05em;}.cls-13{letter-spacing:0.75em;}.cls-14{letter-spacing:0.68em;}.cls-15{letter-spacing:0.46em;}.cls-16{letter-spacing:-0.02em;}.cls-17{letter-spacing:0.46em;}.cls-18{letter-spacing:0.3em;}.cls-19{letter-spacing:0.61em;}.cls-20{letter-spacing:-0.04em;}.cls-21{letter-spacing:0.55em;}</style></defs><title>dngr_brn-hzrd_mxng-vlve_rqurd_solar</title><g id="Layer_1" data-name="Layer 1"><path class="cls-1" d="M26.51,56.1l3.51,0a6.6,6.6,0,0,1,2.79-5.5h0l0-3c-2.13-1.4-2.57-4.48-2.57-6.09l-3.06,0c.07,2.63-1.36,5.09-3.21,5.93v3.32a7.6,7.6,0,0,1,2.5,5.37Z" transform="translate(-0.22 0.11)"/><path class="cls-1" d="M25.43,41.51c0,.71-.35,3.31-1.73,4l-3.84-.06c1.39-.69,1.74-3.26,1.72-4Z" transform="translate(-0.22 0.11)"/><polygon class="cls-1" points="18.39 50.87 18.45 47.03 22.28 47.08 22.23 50.9 18.39 50.87"/><path class="cls-1" d="M24.54,56.26c.05-.71-.27-3.32-1.64-4l-3.83,0c1.37.73,1.66,3.3,1.62,4Z" transform="translate(-0.22 0.11)"/><path class="cls-1" d="M28.16,48.49c.12-.43.37-.72.66-.72s.73.6.73,1.33-.33,1.34-.73,1.34-.55-.31-.67-.77" transform="translate(-0.22 0.11)"/><path class="cls-1" d="M16.18,55.27a6.75,6.75,0,0,1-4.37,1.65c-3.91,0-7.09-3.53-7.09-7.88s3.18-7.89,7.09-7.89a6.58,6.58,0,0,1,3.84,1.25l4,.11a8.17,8.17,0,0,0-2.79,6.21c0,2.78.35,5.4,1.88,6.56Z" transform="translate(-0.22 0.11)"/><path class="cls-2" d="M77.85,66.92" transform="translate(-0.22 0.11)"/><polyline class="cls-1" points="101.48 70.85 84.74 60.92 80.43 62.18"/><line class="cls-1" x1="89.01" y1="53.24" x2="102.4" y2="61.16"/><line class="cls-3" x1="88.72" y1="53.15" x2="88.72" y2="23.54"/><path class="cls-1" d="M49.54,49.25c-1.23,3.14-3.64,5.27-6.41,5.27-4,0-7.28-4.5-7.28-10s3.26-10,7.28-10c2.67,0,5,2,6.28,5" transform="translate(-0.22 0.11)"/><path class="cls-1" d="M47.93,49.26c-1,2-2.68,3.29-4.55,3.29-3.12,0-5.65-3.61-5.65-8.07s2.53-8.07,5.65-8.07a5.24,5.24,0,0,1,4.39,3" transform="translate(-0.22 0.11)"/><path class="cls-1" d="M47.77,39.39a.25.25,0,0,0,0,.07" transform="translate(-0.22 0.11)"/><path class="cls-1" d="M43,49.06c-1.64,0-3-2.15-3-4.8s1.34-4.8,3-4.8" transform="translate(-0.22 0.11)"/><path class="cls-1" d="M42.69,39.48l19.64,0c3.8-.13,11.55,3,8.16,15.33l-7.25-.05c-1.48-2.59-1.7-5.48-5.75-5.48l-14.74-.25" transform="translate(-0.22 0.11)"/><path class="cls-1" d="M71.28,40l3.09,0a5.84,5.84,0,0,1,2.45-4.84h0V32.51c-1.87-1.22-2.26-3.94-2.26-5.35l-2.68,0a5.66,5.66,0,0,1-2.83,5.22v2.92A6.67,6.67,0,0,1,71.28,40Z" transform="translate(-0.22 0.11)"/><path class="cls-1" d="M70.33,27.18c0,.63-.31,2.92-1.52,3.53l-3.38-.05c1.22-.61,1.54-2.87,1.51-3.49Z" transform="translate(-0.22 0.11)"/><polygon class="cls-1" points="64.12 35.42 64.16 32.05 67.54 32.1 67.49 35.46 64.12 35.42"/><path class="cls-1" d="M69.55,40.15c0-.62-.24-2.91-1.44-3.55l-3.37,0c1.2.64,1.46,2.9,1.43,3.52Z" transform="translate(-0.22 0.11)"/><path class="cls-1" d="M72.73,33.32c.11-.37.33-.63.58-.63s.64.52.64,1.17S73.67,35,73.31,35s-.48-.28-.59-.68" transform="translate(-0.22 0.11)"/><path class="cls-1" d="M54.64,39.36a7.18,7.18,0,0,1-2.52-5.56c0-3.82,2.8-6.93,6.24-6.93A5.8,5.8,0,0,1,61.73,28l3.54.09a7.22,7.22,0,0,0-2.45,5.46c0,2.45.31,4.75,1.66,5.77H62.19" transform="translate(-0.22 0.11)"/><path class="cls-1" d="M57.67,80.06a1.59,1.59,0,0,0,.41-.21c.65-.46,1-1.45,1.3-.21s-.71-.49-.31.56-.13,2.53.72,1.48-.25-.82,1-.46c.28.08.53.07.51.14-.14.64-.43.93-.26,1.19.7,1,.19,1.78,1.05.67.62-.81,0-1.48.87-1s1.19-.6,1.19.64-.43.21.26.9.7,1.51,1,.39-.46-1.51.39-1.31.66-.72.92.39.34.76.66,1.11c.46.53.72,1.19.72,0s-.59-1.51.06-1.44.53-.4,1,.52,0,.53.45.92,1.12,1,1.12.46.07.2-.06-.85-.66-2,.52-1.24c.92.56.52,1.8,1.43,1.51s.17-1.24.17-1.25c-.16-.37-.27-.86-.29-.8-.07.27-.33-.45.73-.19s.44.84.89.84.71-.37.38-1.16-1.74-.32-.23-.78,1.71-.48,1.18-.54A14.8,14.8,0,0,0,73.61,80" transform="translate(-0.22 0.11)"/><path class="cls-1" d="M63.25,55.41,57.34,76.76a1.71,1.71,0,0,0,.48.53" transform="translate(-0.22 0.11)"/><path d="M59.85,86.82h3.31a1.81,1.81,0,0,1,1.27.41,1.33,1.33,0,0,1,.44,1,1.27,1.27,0,0,1-.31.87,1.4,1.4,0,0,1-.62.38,1.65,1.65,0,0,1,.91.51,1.41,1.41,0,0,1,.29.9,1.52,1.52,0,0,1-.21.8,1.46,1.46,0,0,1-.57.56,1.74,1.74,0,0,1-.67.19c-.4.05-.66.08-.79.08h-3Zm1.78,2.25h.77a.93.93,0,0,0,.58-.14.51.51,0,0,0,.16-.41.47.47,0,0,0-.16-.39.85.85,0,0,0-.57-.15h-.78Zm0,2.24h.9a1,1,0,0,0,.65-.16.54.54,0,0,0,.19-.43.52.52,0,0,0-.19-.41,1,1,0,0,0-.65-.16h-.9Z" transform="translate(-0.22 0.11)"/><path d="M69.57,86.82h1.76v3.41a3,3,0,0,1-.16,1,2,2,0,0,1-.5.78,1.91,1.91,0,0,1-.7.48,3.8,3.8,0,0,1-1.24.19,7.56,7.56,0,0,1-.91-.06,2.49,2.49,0,0,1-.82-.23,2,2,0,0,1-.61-.5A1.72,1.72,0,0,1,66,91.2a3.48,3.48,0,0,1-.17-1V86.82h1.76v3.49a1,1,0,0,0,.26.73.94.94,0,0,0,.72.26,1,1,0,0,0,.72-.26,1,1,0,0,0,.26-.73Z" transform="translate(-0.22 0.11)"/><path d="M72.52,92.54V86.82h2.94a4,4,0,0,1,1.25.15,1.29,1.29,0,0,1,.7.52,1.7,1.7,0,0,1,.06,1.74,1.58,1.58,0,0,1-.56.56,2.2,2.2,0,0,1-.62.22,1.52,1.52,0,0,1,.46.22,1.4,1.4,0,0,1,.28.3,1.83,1.83,0,0,1,.24.36l.87,1.65h-2l-.94-1.75a1.23,1.23,0,0,0-.32-.44.71.71,0,0,0-.43-.13H74.3v2.32Zm1.78-3.41H75a2.71,2.71,0,0,0,.47-.07.53.53,0,0,0,.28-.18.58.58,0,0,0-.06-.75,1.14,1.14,0,0,0-.66-.15H74.3Z" transform="translate(-0.22 0.11)"/><path d="M78.72,86.82h1.65L82.52,90V86.82h1.66v5.72H82.52l-2.14-3.15v3.15H78.72Z" transform="translate(-0.22 0.11)"/><line class="cls-1" x1="63.81" y1="55.82" x2="58.53" y2="79.26"/><line class="cls-1" x1="64.6" y1="55.98" x2="60.17" y2="81.01"/><line class="cls-1" x1="65.48" y1="56.13" x2="62.59" y2="81.98"/><line class="cls-1" x1="66.29" y1="56.21" x2="65.11" y2="82.65"/><line class="cls-1" x1="67.62" y1="77.14" x2="67.74" y2="82.96"/><line class="cls-1" x1="67.21" y1="56.25" x2="67.58" y2="74.94"/><line class="cls-1" x1="69.83" y1="78.75" x2="70.21" y2="83.44"/><line class="cls-1" x1="67.96" y1="55.88" x2="69.4" y2="73.44"/><line class="cls-1" x1="71.83" y1="79.67" x2="72.17" y2="82.45"/><line class="cls-1" x1="68.85" y1="55.62" x2="71.06" y2="73.57"/><line class="cls-2" x1="73.74" y1="79.68" x2="73.81" y2="80.13"/><line class="cls-1" x1="69.71" y1="55.15" x2="72.72" y2="73.6"/><rect class="cls-4" x="56.5" y="58.79" width="19.62" height="10.11"/><path d="M52.88,59.47h2.64v3h2.91v-3h2.65V68H58.43V64.57H55.52V68H52.88Z" transform="translate(-0.22 0.11)"/><path d="M62.51,63.76a4.06,4.06,0,0,1,4.43-4.44,4.49,4.49,0,0,1,3.3,1.15,4.34,4.34,0,0,1,1.15,3.22,5.29,5.29,0,0,1-.51,2.47,3.53,3.53,0,0,1-1.45,1.49,4.83,4.83,0,0,1-2.39.54,5.64,5.64,0,0,1-2.4-.46,3.68,3.68,0,0,1-1.54-1.47A4.87,4.87,0,0,1,62.51,63.76Zm2.65,0a2.89,2.89,0,0,0,.48,1.87,1.63,1.63,0,0,0,1.31.57,1.65,1.65,0,0,0,1.33-.56,3.17,3.17,0,0,0,.47-2,2.62,2.62,0,0,0-.49-1.77,1.69,1.69,0,0,0-1.33-.56,1.63,1.63,0,0,0-1.29.57A2.88,2.88,0,0,0,65.16,63.77Z" transform="translate(-0.22 0.11)"/><path d="M71.9,59.47H80v2.12H77.25V68H74.61V61.59H71.9Z" transform="translate(-0.22 0.11)"/><path class="cls-1" d="M57.17,76.58A17.84,17.84,0,0,1,55,72.93c-1.14-1.94-2.55-2-2.55-.42a3.89,3.89,0,0,0,.38,1.9c.39.8.54,1.48,1.6,3.72l1.4,2.58c0,.5-2.16-.48-5.77-3.11-.63-.46-3.34-1.59-3.91-.45s1.56,2.39,2.16,2.77c4,2.52,6.54,4,6.54,4.45,0,.76-.5.57-4.14-.65-4.22-1.41-4-1.33-4.45-1.52a3.67,3.67,0,0,0-3.34,0c-.88.91-.31,1.29.68,2a10.17,10.17,0,0,0,4.22,2,41.31,41.31,0,0,0,4.83,1.79c1.76.49,4.21,1.63,3.36,1.69a24.69,24.69,0,0,1-6.21-.13c-1.93-.29-4.83-.74-5.21.41a1.73,1.73,0,0,0,1.22,1.83c1.68.59.7.64,5.54,1.1s1.22.12,7.52.74,11.17.8,16.4,1.67c2.73.46.69-.33,6.19.91" transform="translate(-0.22 0.11)"/><path class="cls-1" d="M74.74,82c3.69-1.93-1.82-3-2.83-3.62s-.77-.24-2.19-1-1.34-1.83-.53-2.52c.56-.48,1.26-.54,2.88-.06a25.28,25.28,0,0,1,3.81,1c1.87.7,1.24.42,2.27,1.2a33.15,33.15,0,0,1,3.34,3.94c3,3.74,4.94,4.84,6.6,6.45s9.83,8.53,9.83,8.53" transform="translate(-0.22 0.11)"/><line class="cls-1" x1="50.8" y1="64.04" x2="2.79" y2="78.65"/><line class="cls-1" x1="88.4" y1="52.93" x2="71.58" y2="57.9"/><path class="cls-1" d="M50.54,70.75l-27.6,8,0,0a6,6,0,0,0-3.64,5.49,5.77,5.77,0,0,0,2.43,4.7l12.11,7.4" transform="translate(-0.22 0.11)"/><path class="cls-1" d="M57.82,79.44c-.74-.23-1.08.16-1-.37s.45,0,.5-1,0-1-.18-1.38" transform="translate(-0.22 0.11)"/><polyline points="0.75 0.11 102.96 0.11 102.96 24.06 0.75 24.06"/><path class="cls-5" d="M28.12,16.23c3.5,0,5.79-1.56,5.79-5.64,0-3.6-2.19-5.2-5.69-5.2H23.4V16.23" transform="translate(-0.22 0.11)"/><polyline class="cls-5" points="37.63 16.34 38.06 14.93 41.61 14.93 42 16.34 45.55 16.34 41.66 5.5 38.06 5.5 34.17 16.34"/><polyline class="cls-5" points="54.01 11.43 53.87 8.95 53.87 5.5 57.27 5.5 57.27 16.34 53.91 16.34 50.02 10.41 50.17 12.89 50.17 16.34 46.77 16.34 46.77 5.5 50.12 5.5"/><path class="cls-5" d="M70.08,16.28H67.8l-.15-1.12a3.87,3.87,0,0,1-3.26,1.36c-2.77,0-5.25-1.8-5.25-5.59,0-3.45,2.14-5.84,5.69-5.84,2.58,0,4.67,1.37,5.11,4H66.58a1.74,1.74,0,0,0-1.85-1.36c-1.36,0-2,1.21-2,3.16,0,1.51.49,2.92,2.29,2.92a1.85,1.85,0,0,0,1.8-1.27H65.22V10.25h4.86" transform="translate(-0.22 0.11)"/><polyline class="cls-5" points="72.05 16.34 72.05 5.5 80.9 5.5 80.9 8.02 75.6 8.02 75.6 9.58 80.07 9.58 80.07 12.11 75.6 12.11 75.6 13.81 81.1 13.81 81.1 16.34"/><path class="cls-5" d="M87.59,12.44c1.65,0,1.89.48,1.89,1.89a6.36,6.36,0,0,0,.2,1.9h3.6v-.34c-.44,0-.39-.49-.39-1.9,0-2.19-.68-2.48-1.85-2.87a2.55,2.55,0,0,0,1.85-2.67c0-2.09-1.22-3.06-4.82-3.06H83V16.23h3.55V12.44" transform="translate(-0.22 0.11)"/><polyline class="cls-6" points="40.98 12.64 38.74 12.64 39.81 8.75"/><path class="cls-6" d="M86.52,7.91h1.65c.83,0,1.41.35,1.41,1.12s-.58,1-1.65,1H86.52" transform="translate(-0.22 0.11)"/><path class="cls-6" d="M19.66,16.33H8.28c-.73,0-1.36-.54-.63-1.75l5.54-9.53A.78.78,0,0,1,14,4.46a.85.85,0,0,1,.83.59l5.49,9.53c.73,1.21.15,1.7-.63,1.75" transform="translate(-0.22 0.11)"/><path class="cls-6" d="M14,6.65c-1.75,0-1.26,2.19-.29,5.3a.3.3,0,0,0,.29.29h0a.32.32,0,0,0,.34-.29c1-3.11,1.46-5.3-.34-5.3" transform="translate(-0.22 0.11)"/><path class="cls-6" d="M14,13.46h0a.95.95,0,0,0,0,1.89.95.95,0,1,0,0-1.89" transform="translate(-0.22 0.11)"/><path class="cls-5" d="M14.36,12a.37.37,0,0,1-.34.34h0a.33.33,0,0,1-.34-.34C12.51,8.45,12,6,14,6s1.46,2.48.39,6M14,15.84a1.07,1.07,0,0,1,0-2.14h0a1.07,1.07,0,0,1,0,2.14ZM14.8,5.05A.85.85,0,0,0,14,4.46a.78.78,0,0,0-.78.59L7.65,14.58c-.73,1.21-.1,1.7.63,1.75H19.66c.78,0,1.36-.54.63-1.75Z" transform="translate(-0.22 0.11)"/><path class="cls-6" d="M26.13,13.55V8.06h2.09c2.38,0,3,.78,3,2.53,0,2.33-.78,3-3.06,3" transform="translate(-0.22 0.11)"/><line class="cls-7" x1="103.16" y1="96.42" x2="103.16" y2="0.11"/><rect class="cls-8" x="0.45" y="0.45" width="238" height="95.97"/></g><g id="text"><text class="cls-9" transform="translate(106.59 26.58)">THE<tspan class="cls-10" x="16" y="0"> </tspan><tspan x="25.9" y="0">THERMOS</tspan><tspan class="cls-11" x="65.9" y="0">TA</tspan><tspan x="74.94" y="0">TIC</tspan><tspan class="cls-12" x="87.82" y="0"> </tspan><tspan x="98.42" y="0">MIXING </tspan><tspan class="cls-11" x="0" y="9.6">V</tspan><tspan x="4.74" y="9.6">A</tspan><tspan class="cls-11" x="10.08" y="9.6">L</tspan><tspan x="13.93" y="9.6">VE</tspan><tspan class="cls-13" x="24.61" y="9.6"> </tspan><tspan x="32.79" y="9.6">PROVIDED</tspan><tspan class="cls-13" x="74.58" y="9.6"> </tspan><tspan x="82.77" y="9.6">WITH</tspan><tspan class="cls-14" x="103.21" y="9.6"> </tspan><tspan x="110.86" y="9.6">THE </tspan><tspan x="0" y="19.2">SYSTEM</tspan><tspan class="cls-15" x="32.89" y="19.2"> </tspan><tspan x="38.83" y="19.2">MUS</tspan><tspan class="cls-16" x="56.6" y="19.2">T</tspan><tspan class="cls-17" x="61.35" y="19.2"> </tspan><tspan x="67.28" y="19.2">BE</tspan><tspan class="cls-15" x="77.95" y="19.2"> </tspan><tspan x="83.88" y="19.2">INS</tspan><tspan class="cls-11" x="97.22" y="19.2">T</tspan><tspan x="101.51" y="19.2">ALLED </tspan><tspan class="cls-16" x="0" y="28.8">T</tspan><tspan x="4.74" y="28.8">O</tspan><tspan class="cls-18" x="10.96" y="28.8"> </tspan><tspan x="15.57" y="28.8">PREVEN</tspan><tspan class="cls-16" x="48.47" y="28.8">T</tspan><tspan class="cls-18" x="53.21" y="28.8"> </tspan><tspan x="57.81" y="28.8">SCALDING</tspan><tspan class="cls-18" x="98.71" y="28.8"> </tspan><tspan x="103.31" y="28.8">FROM </tspan><tspan x="0" y="38.4">HIGH</tspan><tspan class="cls-19" x="20" y="38.4"> </tspan><tspan class="cls-20" x="27.07" y="38.4">W</tspan><tspan class="cls-11" x="34.32" y="38.4">A</tspan><tspan x="39.06" y="38.4">TER</tspan><tspan class="cls-21" x="55.06" y="38.4"> </tspan><tspan x="61.67" y="38.4">TEMPER</tspan><tspan class="cls-11" x="95.01" y="38.4">A</tspan><tspan x="99.75" y="38.4">TURES </tspan><tspan x="0" y="48">ACHIEVED B</tspan><tspan class="cls-16" x="48.46" y="48">Y</tspan><tspan x="53.65" y="48" xml:space="preserve"> SOLAR HE</tspan><tspan class="cls-11" x="96.33" y="48">A</tspan><tspan x="101.07" y="48">TING.</tspan></text></g></svg>