<svg xmlns="http://www.w3.org/2000/svg" viewBox="0 0 241.51 122.9"><title>warning_explsn_hzrd_frm__ovrhtd_wtr</title><g id="Layer_1" data-name="Layer 1"><polyline points="97.21 30.52 241.01 30.52 241.01 0.35 97.21 0.35"/><path d="M224,18.48V15.82h6.68V22.1a8.38,8.38,0,0,1-2.82,1.71,10.09,10.09,0,0,1-3.74.73,8.26,8.26,0,0,1-4.2-1,6.52,6.52,0,0,1-2.69-3,9.79,9.79,0,0,1-.9-4.19,9.29,9.29,0,0,1,1-4.37A6.86,6.86,0,0,1,220.26,9a7.74,7.74,0,0,1,3.67-.79,7.19,7.19,0,0,1,4.46,1.23,5.57,5.57,0,0,1,2.07,3.4l-3.07.59a3.36,3.36,0,0,0-1.22-1.83,3.59,3.59,0,0,0-2.23-.67,4.15,4.15,0,0,0-3.23,1.32,5.66,5.66,0,0,0-1.2,3.92,6.27,6.27,0,0,0,1.22,4.21,4,4,0,0,0,3.18,1.4,5.25,5.25,0,0,0,2-.39,6.68,6.68,0,0,0,1.68-1v-2M201.4,24.27V8.52h3L210.7,19V8.52h2.88V24.27h-3.11L204.28,14V24.27Zm-6.08,0V8.52h3.1V24.27Zm-15.36,0V8.52h3L189.26,19V8.52h2.88V24.27H189L182.84,14V24.27Zm-12.4-9.09h2.29a11.71,11.71,0,0,0,2.79-.19,1.68,1.68,0,0,0,.87-.67,2.11,2.11,0,0,0,.31-1.18,1.92,1.92,0,0,0-.41-1.28,1.88,1.88,0,0,0-1.17-.62q-.38-.05-2.26-.05h-2.42Zm-3.1,9.09V8.52H171a10.85,10.85,0,0,1,3.57.43,3.53,3.53,0,0,1,1.79,1.51,4.62,4.62,0,0,1,.67,2.48,4.28,4.28,0,0,1-1,2.93,4.83,4.83,0,0,1-3,1.45,7.31,7.31,0,0,1,1.66,1.32,18.14,18.14,0,0,1,1.76,2.56l1.87,3.07h-3.7l-2.24-3.43a21.66,21.66,0,0,0-1.63-2.31,2.43,2.43,0,0,0-.93-.66,5,5,0,0,0-1.56-.17h-.62v6.57ZM157.1,18,155,12.2,152.91,18Zm5.71,6.23h-3.37l-1.34-3.58H152l-1.26,3.58H147.4l6-15.75h3.28Zm-30.71,0L128.43,8.52h3.17l2.32,10.82,2.8-10.82h3.69l2.69,11,2.36-11h3.12l-3.73,15.75h-3.29L138.5,12.5l-3,11.77ZM117,17.65a.56.56,0,0,1-.52.53h-.08a.51.51,0,0,1-.52-.53c-1.7-5.55-2.52-9.43.52-9.43S118.59,12.09,117,17.65Zm-.59,6a1.67,1.67,0,0,1,0-3.35h.08A1.6,1.6,0,0,1,118,22,1.62,1.62,0,0,1,116.37,23.65Zm1.26-16.88a1.29,1.29,0,0,0-1.26-.91,1.18,1.18,0,0,0-1.18.91l-8.45,14.9c-1.11,1.9-.15,2.66,1,2.74H125c1.19-.08,2.07-.84,1-2.74Z" style="fill:#fff"/><line x1="97.91" y1="47.69" x2="240.43" y2="47.69" style="stroke:#000;stroke-width:1.03234px"/><line x1="97.44" y1="122.39" x2="97.44" y2="0.35" style="stroke:#000;stroke-width:1.13975px"/><rect x="0.54" y="0.54" width="240.44" height="121.83" style="fill:none;stroke:#000;stroke-width:1.07349px"/></g><g id="exploding_man_icon" data-name="exploding man icon"><polygon points="4.83 51.88 4.85 61.32 5.56 61.82 9.45 74.22 8.03 63.46 26.08 75.29 12.46 61.82 23.33 65.1 13.87 59.02 27.58 52.95 9.98 54.42 22.36 45.47 13.16 49.91 19.36 41.85 8.56 49.41 8.42 39 5.56 51.8 4.83 51.88" style="stroke:#000;stroke-width:0.24354499999999998px"/><rect x="0.54" y="31.42" width="3.51" height="45.73" style="stroke:#000;stroke-width:0.97418px"/><path d="M4.67,36.69l2,19.66-.3,6.22-1,14.58L8.34,61.92l4.9,21.5L9.58,63S23.92,78.5,23.63,77.79,10.17,61.36,10.17,61.36L45.76,83.6,12.55,60.89,62.69,88.42,18.63,62.89S61.34,82.08,61.15,81.81,13,59.56,13,59.56l.1-.8L40.27,69.29l-26-11.37-.11-.68,2.89,1.52,32.42,11L14.87,56l4.81,1.88,35,7.62L17.38,56.08l34,4.76L10.56,53.28,9.49,55.36,9,52.86l1.93.36L57,47.59,12.26,51.33l20.6-3.74-16.93,2.5L52.78,37.94,14.49,49.47,44,30.79l-31.56,18L26.32,35.26,10.54,47.86,29.69,24.09,9.12,46.84l-.4-13.72L7.37,48.3Z" style="fill:none;stroke:#000;stroke-width:0.24354499999999998px"/><polygon points="10.64 53.13 52.01 54.29 11.6 52.41 10.64 53.13" style="fill:none;stroke:#000;stroke-width:0.24354499999999998px"/><line x1="51.87" y1="77.4" x2="21.16" y2="61.9" style="stroke:#000;stroke-width:0.24354499999999998px"/><path d="M10,7.77A8.78,8.78,0,0,1,17.58,3.5a8.51,8.51,0,0,1,8.7,8.3,7.94,7.94,0,0,1-.48,2.74" style="fill:none;stroke:#000;stroke-width:0.24354499999999998px"/><path d="M26.64,14.46a6.29,6.29,0,0,1,4.61-1.95,5.84,5.84,0,0,1,6.07,5.58,5.73,5.73,0,0,1-4.85,5.47" style="fill:none;stroke:#000;stroke-width:0.24354499999999998px"/><path d="M32.72,23.78a6.28,6.28,0,0,1,2.4-.47A5.72,5.72,0,0,1,41,28.8a5.72,5.72,0,0,1-5.91,5.49,5.89,5.89,0,0,1-5.64-3.83" style="fill:none;stroke:#000;stroke-width:0.24354499999999998px"/><path d="M12.34,38.63a4.8,4.8,0,0,1-1-2.92,5.26,5.26,0,0,1,5.45-5.06,5.67,5.67,0,0,1,3.62,1.28" style="fill:none;stroke:#000;stroke-width:0.24354499999999998px"/><path d="M20.61,31.55a3.15,3.15,0,0,1-.37-1.48,3.52,3.52,0,0,1,3.65-3.39,3.52,3.52,0,0,1,3.65,3.39,3.08,3.08,0,0,1,0,.36" style="fill:none;stroke:#000;stroke-width:0.24354499999999998px"/><path d="M27.39,30.74s0-.07,0-.11A3.66,3.66,0,1,1,31,34h-.29" style="fill:none;stroke:#000;stroke-width:0.24354499999999998px"/><path d="M21,75.5a3.81,3.81,0,0,1-2.08.61,3.51,3.51,0,0,1-3.64-3.38,3.26,3.26,0,0,1,1.06-2.39" style="fill:none;stroke:#000;stroke-width:0.24354499999999998px"/><path d="M25.39,80.43a3.71,3.71,0,0,1-3.24,1.82,3.54,3.54,0,0,1-3.67-3.4A3.44,3.44,0,0,1,21,75.62" style="fill:none;stroke:#000;stroke-width:0.24354499999999998px"/><path d="M36,83a5.23,5.23,0,0,1-5.1,3.63,5.1,5.1,0,0,1-5.28-4.9,4.5,4.5,0,0,1,.16-1.18" style="fill:none;stroke:#000;stroke-width:0.24354499999999998px"/><path d="M23.95,96.62A5.22,5.22,0,0,1,24.54,99a5.81,5.81,0,0,1-6,5.58,5.81,5.81,0,0,1-6-5.58A5.68,5.68,0,0,1,17,93.63" style="fill:none;stroke:#000;stroke-width:0.24354499999999998px"/><path d="M33.55,92.17a5.45,5.45,0,0,1,2.2,4.33,5.82,5.82,0,0,1-6,5.6,6.13,6.13,0,0,1-5.15-2.69" style="fill:none;stroke:#000;stroke-width:0.24354499999999998px"/><path d="M43.79,78.19A7.85,7.85,0,0,1,46.42,84c0,4.5-3.93,8.15-8.78,8.15a9.34,9.34,0,0,1-3.41-.64" style="fill:none;stroke:#000;stroke-width:0.24354499999999998px"/><path d="M28.48,45.2A4,4,0,0,1,28,43.36a4.47,4.47,0,0,1,4.62-4.29,4.84,4.84,0,0,1,2.77.86" style="fill:none;stroke:#000;stroke-width:0.24354499999999998px"/><path d="M35.71,39.85a2.64,2.64,0,0,1-.31-1.24,3,3,0,0,1,6.06,0s0,.05,0,.08" style="fill:none;stroke:#000;stroke-width:0.24354499999999998px"/><path d="M41.43,39.38s0-.09,0-.14a3.11,3.11,0,1,1,3.1,2.88h-.26" style="fill:none;stroke:#000;stroke-width:0.24354499999999998px"/><path d="M82.72,74.6l.52-.05c-2.09.14-18.89.64-21.71.26-2.48-.34-4.66-1.42-4.88-3.72s0-7.44,0-7.44-3.2.55-3.93-.74,2-6.36,3.64-12.85a15.44,15.44,0,0,1,4.08-6.83,16.79,16.79,0,0,1,6.92-3.31c2.55-.43,7.79-.34,10.27.81s3.28,1.28,5.9,4.4c2.12,2.51,2.4,3.65,2.7,7.24a61.64,61.64,0,0,1,.07,8.93c-.15,2-.51,8-1.24,10.35A4.74,4.74,0,0,1,82.72,74.6Z" style="stroke:#000;stroke-width:0.97418px"/><path d="M63.24,54.29c-.21,1.08-1,1.85-1.84,1.72s-1.29-1.12-1.08-2.21,1-1.85,1.84-1.72S63.45,53.2,63.24,54.29Z" style="fill:#fff;stroke:#000;stroke-width:0.97418px"/><path d="M76.48,122l-6.67-15s-8.78,15.08-9.5,15.23-19.86.35-19-.47S77.66,75.54,77.66,75.54a13.36,13.36,0,0,1,1.77-1.37c2.84-1.57,3.8-1.53,6.94,0S97.62,87.93,97.62,87.93L97.37,122Z" style="stroke:#000;stroke-width:0.97418px"/></g><g id="text"><path d="M127.34,42V34.16h5.84v1.33h-4.25v1.75h4v1.33h-4v2.14h4.4V42Z"/><path d="M133.94,42,136,39.09l-2-2.77h1.84l1,1.57,1.06-1.57h1.77L137.78,39l2.11,3H138l-1.16-1.77L135.71,42Z"/><path d="M140.74,36.33h1.41v.84a2.11,2.11,0,0,1,.74-.7,2,2,0,0,1,1-.27,2.17,2.17,0,0,1,1.69.78,3.15,3.15,0,0,1,.69,2.17,3.25,3.25,0,0,1-.7,2.22,2.18,2.18,0,0,1-1.69.79,1.92,1.92,0,0,1-.86-.19,2.87,2.87,0,0,1-.81-.64V44.2h-1.51Zm1.49,2.76a2.19,2.19,0,0,0,.38,1.42,1.16,1.16,0,0,0,.93.46,1.09,1.09,0,0,0,.88-.42,2.18,2.18,0,0,0,.35-1.38,2.06,2.06,0,0,0-.36-1.33,1.11,1.11,0,0,0-.89-.44,1.16,1.16,0,0,0-.92.43A1.9,1.9,0,0,0,142.23,39.08Z"/><path d="M147.5,42V34.16H149V42Z"/><path d="M150.21,39.1a3.09,3.09,0,0,1,.37-1.46,2.54,2.54,0,0,1,1.05-1.07,3.11,3.11,0,0,1,1.52-.37,2.85,2.85,0,0,1,2.12.84,2.9,2.9,0,0,1,.83,2.12,2.94,2.94,0,0,1-.83,2.15,2.82,2.82,0,0,1-2.1.85,3.31,3.31,0,0,1-1.5-.35,2.43,2.43,0,0,1-1.08-1A3.47,3.47,0,0,1,150.21,39.1Zm1.55.08a1.89,1.89,0,0,0,.4,1.3,1.32,1.32,0,0,0,2,0,1.92,1.92,0,0,0,.4-1.31,1.89,1.89,0,0,0-.4-1.29,1.32,1.32,0,0,0-2,0A1.89,1.89,0,0,0,151.75,39.18Z"/><path d="M156.74,40.4l1.51-.23a1.11,1.11,0,0,0,.39.67,1.33,1.33,0,0,0,.83.23,1.5,1.5,0,0,0,.88-.21.48.48,0,0,0,.2-.4.4.4,0,0,0-.11-.28,1.2,1.2,0,0,0-.5-.2,8.13,8.13,0,0,1-2.31-.74,1.47,1.47,0,0,1-.68-1.28,1.58,1.58,0,0,1,.59-1.25,2.74,2.74,0,0,1,1.82-.5,3.17,3.17,0,0,1,1.74.38,2,2,0,0,1,.78,1.13l-1.42.26a.88.88,0,0,0-.35-.51,1.27,1.27,0,0,0-.73-.18,1.64,1.64,0,0,0-.85.17.36.36,0,0,0-.17.31.34.34,0,0,0,.15.27,5.67,5.67,0,0,0,1.41.42,4.19,4.19,0,0,1,1.68.67,1.4,1.4,0,0,1,.47,1.12,1.72,1.72,0,0,1-.66,1.35,2.9,2.9,0,0,1-1.94.56,3.19,3.19,0,0,1-1.85-.47A2.18,2.18,0,0,1,156.74,40.4Z"/><path d="M163.39,35.55v-1.4h1.51v1.4Zm0,6.48v-5.7h1.51V42Z"/><path d="M166.1,39.1a3.1,3.1,0,0,1,.37-1.46,2.55,2.55,0,0,1,1.05-1.07A3.12,3.12,0,0,1,169,36.2a2.85,2.85,0,0,1,2.12.84,2.91,2.91,0,0,1,.83,2.12,2.94,2.94,0,0,1-.83,2.15,2.82,2.82,0,0,1-2.1.85,3.31,3.31,0,0,1-1.5-.35,2.44,2.44,0,0,1-1.08-1A3.48,3.48,0,0,1,166.1,39.1Zm1.55.08a1.88,1.88,0,0,0,.4,1.3,1.32,1.32,0,0,0,2,0,1.92,1.92,0,0,0,.4-1.31,1.88,1.88,0,0,0-.4-1.29,1.32,1.32,0,0,0-2,0A1.88,1.88,0,0,0,167.65,39.18Z"/><path d="M178.36,42h-1.51V39.12a4.52,4.52,0,0,0-.1-1.2.84.84,0,0,0-.31-.42.9.9,0,0,0-.52-.15,1.21,1.21,0,0,0-.7.21,1.08,1.08,0,0,0-.43.57,4.92,4.92,0,0,0-.12,1.31V42h-1.51v-5.7h1.4v.84a2.34,2.34,0,0,1,2.79-.79,1.53,1.53,0,0,1,.63.46,1.65,1.65,0,0,1,.29.63,4.63,4.63,0,0,1,.08,1Z"/><path d="M183,42V34.16h1.59v3.1h3.12v-3.1h1.59V42h-1.59V38.59h-3.12V42Z"/><path d="M192,38.07l-1.37-.25a2.14,2.14,0,0,1,.79-1.22,2.91,2.91,0,0,1,1.68-.4,3.61,3.61,0,0,1,1.5.24,1.49,1.49,0,0,1,.7.61,3.11,3.11,0,0,1,.2,1.35l0,1.76a6.16,6.16,0,0,0,.07,1.11,3.24,3.24,0,0,0,.27.77h-1.49c0-.1-.09-.25-.15-.45l-.05-.18a2.73,2.73,0,0,1-.83.56,2.36,2.36,0,0,1-.94.19,1.94,1.94,0,0,1-1.39-.48,1.59,1.59,0,0,1-.51-1.21,1.63,1.63,0,0,1,.23-.86,1.51,1.51,0,0,1,.65-.58,5.08,5.08,0,0,1,1.2-.35,8.15,8.15,0,0,0,1.47-.37v-.15a.78.78,0,0,0-.21-.62,1.29,1.29,0,0,0-.81-.19,1.08,1.08,0,0,0-.63.16A1.1,1.1,0,0,0,192,38.07Zm2,1.22a9.37,9.37,0,0,1-.92.23,2.77,2.77,0,0,0-.82.26.63.63,0,0,0-.29.53.74.74,0,0,0,.24.55.83.83,0,0,0,.6.23,1.31,1.31,0,0,0,.78-.27,1,1,0,0,0,.36-.5,3,3,0,0,0,.06-.74Z"/><path d="M196.4,42V40.86l2.14-2.45q.53-.6.78-.85l-.69,0h-2V36.33h4.72V37.4l-2.18,2.51-.77.83.78,0h2.34V42Z"/><path d="M203.63,38.07l-1.37-.25a2.14,2.14,0,0,1,.79-1.22,2.91,2.91,0,0,1,1.68-.4,3.6,3.6,0,0,1,1.5.24,1.49,1.49,0,0,1,.7.61,3.1,3.1,0,0,1,.2,1.35l0,1.76a6.25,6.25,0,0,0,.07,1.11,3.29,3.29,0,0,0,.27.77H206c0-.1-.09-.25-.15-.45l-.05-.18a2.72,2.72,0,0,1-.83.56,2.37,2.37,0,0,1-.94.19,2,2,0,0,1-1.39-.48,1.59,1.59,0,0,1-.51-1.21,1.62,1.62,0,0,1,.23-.86A1.51,1.51,0,0,1,203,39a5.07,5.07,0,0,1,1.2-.35,8.2,8.2,0,0,0,1.47-.37v-.15a.78.78,0,0,0-.21-.62,1.29,1.29,0,0,0-.81-.19,1.08,1.08,0,0,0-.63.16A1.1,1.1,0,0,0,203.63,38.07Zm2,1.22a9.33,9.33,0,0,1-.92.23,2.77,2.77,0,0,0-.82.26.63.63,0,0,0-.3.53.74.74,0,0,0,.24.55.83.83,0,0,0,.6.23,1.31,1.31,0,0,0,.78-.27.94.94,0,0,0,.36-.5,2.94,2.94,0,0,0,.06-.74Z"/><path d="M210.07,42h-1.51v-5.7H210v.81a2.43,2.43,0,0,1,.65-.76,1.19,1.19,0,0,1,.65-.18,1.91,1.91,0,0,1,1,.28l-.47,1.32a1.32,1.32,0,0,0-.71-.25.84.84,0,0,0-.54.17,1.2,1.2,0,0,0-.35.63,9,9,0,0,0-.13,1.91Z"/><path d="M218.14,42h-1.4v-.84a2.27,2.27,0,0,1-.82.73,2.12,2.12,0,0,1-1,.24,2.17,2.17,0,0,1-1.68-.79,3.22,3.22,0,0,1-.7-2.21,3.18,3.18,0,0,1,.68-2.2A2.22,2.22,0,0,1,215,36.2a2.14,2.14,0,0,1,1.65.79V34.16h1.51Zm-4-3a2.62,2.62,0,0,0,.25,1.32,1.14,1.14,0,0,0,1,.59,1.11,1.11,0,0,0,.89-.44,2,2,0,0,0,.37-1.32,2.24,2.24,0,0,0-.35-1.42,1.16,1.16,0,0,0-1.81,0A1.92,1.92,0,0,0,214.11,39.06Z"/><path d="M113.71,60.08a3.31,3.31,0,0,1,.81-2.37,2.76,2.76,0,0,1,2.1-.86,2.92,2.92,0,0,1,1.52.4,2.63,2.63,0,0,1,1,1.12,3.65,3.65,0,0,1,.35,1.63,3.59,3.59,0,0,1-.37,1.66,2.55,2.55,0,0,1-1.06,1.11,3,3,0,0,1-1.48.38,2.88,2.88,0,0,1-1.54-.42,2.67,2.67,0,0,1-1-1.13A3.43,3.43,0,0,1,113.71,60.08Zm.83,0a2.44,2.44,0,0,0,.59,1.73,2.06,2.06,0,0,0,3,0,2.58,2.58,0,0,0,.59-1.81,3.11,3.11,0,0,0-.25-1.3,1.93,1.93,0,0,0-.73-.86,2,2,0,0,0-1.09-.3,2.06,2.06,0,0,0-1.47.59A2.62,2.62,0,0,0,114.54,60.09Z"/><path d="M121.69,63,120,58.63h.79l.95,2.64q.15.43.28.89.1-.35.28-.84l1-2.69h.77L122.39,63Z"/><path d="M127.73,61.62l.77.1a1.88,1.88,0,0,1-.68,1.05,2.29,2.29,0,0,1-2.79-.22,2.33,2.33,0,0,1-.57-1.67,2.44,2.44,0,0,1,.57-1.73,1.94,1.94,0,0,1,1.49-.61,1.89,1.89,0,0,1,1.44.6,2.39,2.39,0,0,1,.56,1.69s0,.11,0,.2h-3.29a1.7,1.7,0,0,0,.41,1.11,1.22,1.22,0,0,0,.92.39,1.14,1.14,0,0,0,.7-.22A1.43,1.43,0,0,0,127.73,61.62Zm-2.45-1.21h2.46a1.49,1.49,0,0,0-.28-.83,1.14,1.14,0,0,0-.93-.43,1.19,1.19,0,0,0-.87.34A1.36,1.36,0,0,0,125.28,60.41Z"/><path d="M129.44,63V58.63h.67v.67a1.8,1.8,0,0,1,.48-.62.83.83,0,0,1,.48-.15,1.45,1.45,0,0,1,.77.24l-.26.69a1.06,1.06,0,0,0-.55-.16.71.71,0,0,0-.44.15.79.79,0,0,0-.28.41,2.91,2.91,0,0,0-.12.87V63Z"/><path d="M132.28,63V57H133v2.18a1.67,1.67,0,0,1,1.32-.61,1.78,1.78,0,0,1,.85.19,1.13,1.13,0,0,1,.52.53,2.46,2.46,0,0,1,.16,1V63h-.75V60.25a1.15,1.15,0,0,0-.24-.82.9.9,0,0,0-.69-.26,1.21,1.21,0,0,0-.62.17,1,1,0,0,0-.42.47,2.12,2.12,0,0,0-.12.81V63Z"/><path d="M140,61.62l.77.1a1.88,1.88,0,0,1-.68,1.05,2.29,2.29,0,0,1-2.79-.22,2.33,2.33,0,0,1-.57-1.67,2.44,2.44,0,0,1,.57-1.73,1.94,1.94,0,0,1,1.49-.61,1.89,1.89,0,0,1,1.44.6,2.39,2.39,0,0,1,.56,1.69s0,.11,0,.2h-3.29a1.7,1.7,0,0,0,.41,1.11,1.22,1.22,0,0,0,.92.39,1.14,1.14,0,0,0,.7-.22A1.43,1.43,0,0,0,140,61.62Zm-2.45-1.21H140a1.49,1.49,0,0,0-.28-.83,1.14,1.14,0,0,0-.93-.43,1.19,1.19,0,0,0-.87.34A1.36,1.36,0,0,0,137.57,60.41Z"/><path d="M144.61,62.5a2.78,2.78,0,0,1-.8.5,2.3,2.3,0,0,1-.82.15,1.6,1.6,0,0,1-1.12-.35,1.17,1.17,0,0,1-.39-.91,1.22,1.22,0,0,1,.53-1,1.8,1.8,0,0,1,.54-.24,5.3,5.3,0,0,1,.66-.11,6.81,6.81,0,0,0,1.33-.26c0-.1,0-.17,0-.19a.83.83,0,0,0-.21-.64,1.25,1.25,0,0,0-.85-.25,1.32,1.32,0,0,0-.78.18,1.13,1.13,0,0,0-.37.65l-.73-.1a1.81,1.81,0,0,1,.33-.76,1.43,1.43,0,0,1,.66-.44,2.94,2.94,0,0,1,1-.16,2.65,2.65,0,0,1,.92.13A1.21,1.21,0,0,1,145,59a1.19,1.19,0,0,1,.23.51,4.28,4.28,0,0,1,0,.69v1a10.76,10.76,0,0,0,0,1.32,1.68,1.68,0,0,0,.19.53h-.78A1.57,1.57,0,0,1,144.61,62.5Zm-.06-1.67a5.51,5.51,0,0,1-1.22.28,2.77,2.77,0,0,0-.65.15.64.64,0,0,0-.4.6.63.63,0,0,0,.23.5,1,1,0,0,0,.66.2,1.54,1.54,0,0,0,.77-.19,1.16,1.16,0,0,0,.49-.52,1.81,1.81,0,0,0,.12-.75Z"/><path d="M148.09,62.37l.11.66a2.76,2.76,0,0,1-.56.07A1.29,1.29,0,0,1,147,63a.72.72,0,0,1-.31-.34,2.65,2.65,0,0,1-.09-.88V59.21H146v-.58h.55V57.54l.74-.45v1.54h.75v.58h-.75v2.58a1.3,1.3,0,0,0,0,.41.31.31,0,0,0,.13.15.49.49,0,0,0,.25.05Z"/><path d="M151.84,61.62l.77.1a1.88,1.88,0,0,1-.68,1.05,2.29,2.29,0,0,1-2.79-.22,2.33,2.33,0,0,1-.57-1.67,2.44,2.44,0,0,1,.57-1.73,1.94,1.94,0,0,1,1.49-.61,1.89,1.89,0,0,1,1.44.6,2.39,2.39,0,0,1,.56,1.69s0,.11,0,.2h-3.29a1.7,1.7,0,0,0,.41,1.11,1.22,1.22,0,0,0,.92.39,1.14,1.14,0,0,0,.7-.22A1.43,1.43,0,0,0,151.84,61.62Zm-2.45-1.21h2.46a1.49,1.49,0,0,0-.28-.83,1.14,1.14,0,0,0-.93-.43,1.19,1.19,0,0,0-.87.34A1.36,1.36,0,0,0,149.38,60.41Z"/><path d="M156.41,63v-.56a1.37,1.37,0,0,1-1.23.66,1.73,1.73,0,0,1-1-.29,1.91,1.91,0,0,1-.68-.81,2.81,2.81,0,0,1-.24-1.2,3.14,3.14,0,0,1,.22-1.2,1.73,1.73,0,0,1,.66-.82,1.76,1.76,0,0,1,1-.29,1.47,1.47,0,0,1,.71.17,1.49,1.49,0,0,1,.51.44V57h.74V63ZM154,60.84a1.91,1.91,0,0,0,.36,1.27,1.08,1.08,0,0,0,.84.42,1.05,1.05,0,0,0,.83-.4,1.85,1.85,0,0,0,.34-1.22,2.07,2.07,0,0,0-.35-1.33,1.07,1.07,0,0,0-.86-.42,1,1,0,0,0-.83.41A2,2,0,0,0,154,60.84Z"/><path d="M161.45,63l-1.35-4.41h.77l.7,2.54.26.95.23-.91.7-2.58h.77l.66,2.56.22.84.25-.85.76-2.55h.73L164.77,63H164l-.7-2.64-.17-.75L162.23,63Z"/><path d="M169.65,62.5a2.77,2.77,0,0,1-.8.5,2.3,2.3,0,0,1-.82.15,1.6,1.6,0,0,1-1.12-.35,1.17,1.17,0,0,1-.39-.91,1.2,1.2,0,0,1,.15-.59,1.22,1.22,0,0,1,.39-.43,1.81,1.81,0,0,1,.54-.24,5.33,5.33,0,0,1,.66-.11,6.79,6.79,0,0,0,1.33-.26c0-.1,0-.17,0-.19a.83.83,0,0,0-.21-.64,1.25,1.25,0,0,0-.85-.25,1.32,1.32,0,0,0-.78.18,1.12,1.12,0,0,0-.37.65l-.73-.1a1.81,1.81,0,0,1,.33-.76,1.43,1.43,0,0,1,.66-.44,2.93,2.93,0,0,1,1-.16,2.64,2.64,0,0,1,.92.13,1.21,1.21,0,0,1,.52.33,1.18,1.18,0,0,1,.23.51,4.17,4.17,0,0,1,0,.69v1a10.47,10.47,0,0,0,0,1.32,1.68,1.68,0,0,0,.19.53h-.78A1.57,1.57,0,0,1,169.65,62.5Zm-.06-1.67a5.5,5.5,0,0,1-1.22.28,2.77,2.77,0,0,0-.65.15.65.65,0,0,0-.29.24.64.64,0,0,0-.1.35.63.63,0,0,0,.23.5,1,1,0,0,0,.66.2,1.54,1.54,0,0,0,.77-.19,1.16,1.16,0,0,0,.49-.52,1.81,1.81,0,0,0,.12-.75Z"/><path d="M173.13,62.37l.11.66a2.76,2.76,0,0,1-.56.07A1.29,1.29,0,0,1,172,63a.72.72,0,0,1-.31-.34,2.65,2.65,0,0,1-.09-.88V59.21h-.55v-.58h.55V57.54l.74-.45v1.54h.75v.58h-.75v2.58a1.3,1.3,0,0,0,0,.41.31.31,0,0,0,.13.15.49.49,0,0,0,.25.05Z"/><path d="M176.88,61.62l.77.1a1.88,1.88,0,0,1-.68,1.05,2,2,0,0,1-1.26.37,2,2,0,0,1-1.53-.6,2.32,2.32,0,0,1-.57-1.67,2.43,2.43,0,0,1,.57-1.73,1.94,1.94,0,0,1,1.49-.61,1.88,1.88,0,0,1,1.44.6,2.39,2.39,0,0,1,.56,1.69s0,.11,0,.2h-3.29a1.69,1.69,0,0,0,.41,1.11,1.23,1.23,0,0,0,.92.39,1.14,1.14,0,0,0,.7-.22A1.43,1.43,0,0,0,176.88,61.62Zm-2.45-1.21h2.46a1.5,1.5,0,0,0-.28-.83,1.15,1.15,0,0,0-.93-.43,1.19,1.19,0,0,0-.87.34A1.37,1.37,0,0,0,174.43,60.41Z"/><path d="M178.58,63V58.63h.67v.67a1.8,1.8,0,0,1,.48-.62.83.83,0,0,1,.48-.15,1.45,1.45,0,0,1,.77.24l-.26.69a1.06,1.06,0,0,0-.55-.16.71.71,0,0,0-.44.15.79.79,0,0,0-.28.41,2.91,2.91,0,0,0-.12.87V63Z"/><path d="M186.66,61.43l.73.1a1.91,1.91,0,0,1-.62,1.19,1.79,1.79,0,0,1-1.22.43,1.89,1.89,0,0,1-1.46-.59,2.4,2.4,0,0,1-.55-1.7,3.08,3.08,0,0,1,.24-1.25,1.65,1.65,0,0,1,.72-.8,2.14,2.14,0,0,1,1.05-.27,1.83,1.83,0,0,1,1.17.36,1.66,1.66,0,0,1,.58,1l-.73.11a1.21,1.21,0,0,0-.37-.67,1,1,0,0,0-.64-.22,1.16,1.16,0,0,0-.92.4,1.91,1.91,0,0,0-.35,1.28,2,2,0,0,0,.34,1.29,1.11,1.11,0,0,0,.89.4,1,1,0,0,0,.73-.27A1.34,1.34,0,0,0,186.66,61.43Z"/><path d="M190.91,62.5a2.77,2.77,0,0,1-.8.5,2.3,2.3,0,0,1-.82.15,1.6,1.6,0,0,1-1.12-.35,1.17,1.17,0,0,1-.39-.91,1.2,1.2,0,0,1,.15-.59,1.22,1.22,0,0,1,.38-.43,1.83,1.83,0,0,1,.54-.24,5.3,5.3,0,0,1,.66-.11,6.81,6.81,0,0,0,1.33-.26c0-.1,0-.17,0-.19a.83.83,0,0,0-.21-.64,1.25,1.25,0,0,0-.85-.25,1.32,1.32,0,0,0-.78.18,1.13,1.13,0,0,0-.37.65l-.73-.1a1.81,1.81,0,0,1,.33-.76,1.43,1.43,0,0,1,.66-.44,2.93,2.93,0,0,1,1-.16,2.65,2.65,0,0,1,.92.13,1.2,1.2,0,0,1,.52.33,1.16,1.16,0,0,1,.23.51,4.13,4.13,0,0,1,0,.69v1a10.47,10.47,0,0,0,0,1.32,1.63,1.63,0,0,0,.19.53h-.78A1.57,1.57,0,0,1,190.91,62.5Zm-.06-1.67a5.5,5.5,0,0,1-1.22.28,2.8,2.8,0,0,0-.65.15.65.65,0,0,0-.29.24.66.66,0,0,0,.12.85,1,1,0,0,0,.66.2,1.54,1.54,0,0,0,.77-.19,1.16,1.16,0,0,0,.49-.52,1.81,1.81,0,0,0,.12-.75Z"/><path d="M192.76,63V58.63h.67v.63a1.59,1.59,0,0,1,1.4-.73,1.84,1.84,0,0,1,.73.14,1.16,1.16,0,0,1,.5.38,1.44,1.44,0,0,1,.23.55,4.33,4.33,0,0,1,0,.73V63h-.75V60.36a2,2,0,0,0-.09-.68.72.72,0,0,0-.31-.36,1,1,0,0,0-.52-.13,1.21,1.21,0,0,0-.82.3,1.5,1.5,0,0,0-.35,1.15V63Z"/><path d="M202.72,61.43l.73.1a1.91,1.91,0,0,1-.62,1.19,1.79,1.79,0,0,1-1.22.43,1.89,1.89,0,0,1-1.46-.59,2.4,2.4,0,0,1-.55-1.7,3.08,3.08,0,0,1,.24-1.25,1.65,1.65,0,0,1,.72-.8,2.14,2.14,0,0,1,1.05-.27,1.83,1.83,0,0,1,1.17.36,1.66,1.66,0,0,1,.58,1l-.73.11a1.21,1.21,0,0,0-.37-.67,1,1,0,0,0-.64-.22,1.16,1.16,0,0,0-.92.4,1.91,1.91,0,0,0-.35,1.28,2,2,0,0,0,.34,1.29,1.11,1.11,0,0,0,.89.4,1,1,0,0,0,.73-.27A1.34,1.34,0,0,0,202.72,61.43Z"/><path d="M207,62.5a2.77,2.77,0,0,1-.8.5,2.3,2.3,0,0,1-.82.15,1.6,1.6,0,0,1-1.12-.35,1.17,1.17,0,0,1-.39-.91,1.2,1.2,0,0,1,.15-.59,1.22,1.22,0,0,1,.38-.43,1.83,1.83,0,0,1,.54-.24,5.3,5.3,0,0,1,.66-.11,6.81,6.81,0,0,0,1.33-.26c0-.1,0-.17,0-.19a.83.83,0,0,0-.21-.64,1.25,1.25,0,0,0-.85-.25,1.32,1.32,0,0,0-.78.18,1.13,1.13,0,0,0-.37.65l-.73-.1a1.81,1.81,0,0,1,.33-.76,1.43,1.43,0,0,1,.66-.44,2.93,2.93,0,0,1,1-.16,2.65,2.65,0,0,1,.92.13,1.2,1.2,0,0,1,.52.33,1.16,1.16,0,0,1,.23.51,4.14,4.14,0,0,1,0,.69v1a10.47,10.47,0,0,0,0,1.32,1.63,1.63,0,0,0,.19.53h-.78A1.57,1.57,0,0,1,207,62.5Zm-.06-1.67a5.5,5.5,0,0,1-1.22.28,2.8,2.8,0,0,0-.65.15.65.65,0,0,0-.29.24.66.66,0,0,0,.12.85,1,1,0,0,0,.66.2,1.54,1.54,0,0,0,.77-.19,1.16,1.16,0,0,0,.49-.52,1.81,1.81,0,0,0,.12-.75Z"/><path d="M211.71,63v-.65a1.61,1.61,0,0,1-1.4.75,1.78,1.78,0,0,1-.73-.15,1.2,1.2,0,0,1-.5-.38,1.42,1.42,0,0,1-.23-.55,3.82,3.82,0,0,1,0-.7V58.63h.75v2.44a4.36,4.36,0,0,0,0,.79.78.78,0,0,0,.3.46.93.93,0,0,0,.56.17,1.23,1.23,0,0,0,.63-.17,1,1,0,0,0,.42-.47,2.34,2.34,0,0,0,.12-.86V58.63h.75V63Z"/><path d="M213.25,61.72l.74-.12a1,1,0,0,0,.35.68,1.21,1.21,0,0,0,.79.24,1.17,1.17,0,0,0,.76-.21.63.63,0,0,0,.25-.49.45.45,0,0,0-.22-.4,3.26,3.26,0,0,0-.76-.25,7,7,0,0,1-1.14-.36,1.09,1.09,0,0,1-.65-1,1.14,1.14,0,0,1,.13-.55,1.22,1.22,0,0,1,.37-.42,1.56,1.56,0,0,1,.48-.22,2.26,2.26,0,0,1,.65-.09,2.55,2.55,0,0,1,.91.15,1.24,1.24,0,0,1,.58.4,1.58,1.58,0,0,1,.26.68l-.73.1a.8.8,0,0,0-.29-.53,1.05,1.05,0,0,0-.67-.19,1.22,1.22,0,0,0-.73.17.5.5,0,0,0-.22.4.41.41,0,0,0,.09.26.67.67,0,0,0,.29.2l.66.19a9.16,9.16,0,0,1,1.11.35,1.12,1.12,0,0,1,.49.39,1.09,1.09,0,0,1,.18.64,1.25,1.25,0,0,1-.22.7,1.4,1.4,0,0,1-.63.51,2.28,2.28,0,0,1-.93.18,2.07,2.07,0,0,1-1.31-.36A1.66,1.66,0,0,1,213.25,61.72Z"/><path d="M220.82,61.62l.77.1a1.88,1.88,0,0,1-.68,1.05,2.29,2.29,0,0,1-2.79-.22,2.33,2.33,0,0,1-.57-1.67,2.44,2.44,0,0,1,.57-1.73,1.94,1.94,0,0,1,1.49-.61,1.89,1.89,0,0,1,1.44.6,2.39,2.39,0,0,1,.56,1.69s0,.11,0,.2h-3.29a1.69,1.69,0,0,0,.41,1.11,1.22,1.22,0,0,0,.92.39,1.14,1.14,0,0,0,.7-.22A1.43,1.43,0,0,0,220.82,61.62Zm-2.45-1.21h2.46a1.5,1.5,0,0,0-.28-.83,1.15,1.15,0,0,0-.93-.43,1.19,1.19,0,0,0-.87.34A1.36,1.36,0,0,0,218.37,60.41Z"/><path d="M114.67,73.24l-1.35-4.41h.77l.7,2.54.26.95.23-.91.7-2.58h.77l.66,2.56.22.84.25-.85.76-2.55h.73L118,73.24h-.78l-.7-2.64-.17-.75-.89,3.39Z"/><path d="M122.87,72.7a2.77,2.77,0,0,1-.8.5,2.3,2.3,0,0,1-.82.15,1.6,1.6,0,0,1-1.12-.35,1.17,1.17,0,0,1-.39-.91,1.2,1.2,0,0,1,.15-.59,1.22,1.22,0,0,1,.38-.43,1.83,1.83,0,0,1,.54-.24,5.3,5.3,0,0,1,.66-.11,6.81,6.81,0,0,0,1.33-.26c0-.1,0-.17,0-.19a.83.83,0,0,0-.21-.64,1.25,1.25,0,0,0-.85-.25,1.32,1.32,0,0,0-.78.18,1.13,1.13,0,0,0-.37.65l-.73-.1a1.81,1.81,0,0,1,.33-.76,1.43,1.43,0,0,1,.66-.44,2.93,2.93,0,0,1,1-.16,2.65,2.65,0,0,1,.92.13,1.2,1.2,0,0,1,.52.33,1.16,1.16,0,0,1,.23.51,4.14,4.14,0,0,1,0,.69v1a10.47,10.47,0,0,0,0,1.32,1.63,1.63,0,0,0,.19.53H123A1.57,1.57,0,0,1,122.87,72.7ZM122.81,71a5.5,5.5,0,0,1-1.22.28,2.8,2.8,0,0,0-.65.15.65.65,0,0,0-.29.24.66.66,0,0,0,.12.85,1,1,0,0,0,.66.2,1.54,1.54,0,0,0,.77-.19,1.16,1.16,0,0,0,.49-.52,1.81,1.81,0,0,0,.12-.75Z"/><path d="M126.35,72.57l.11.66a2.76,2.76,0,0,1-.56.07,1.28,1.28,0,0,1-.63-.13.72.72,0,0,1-.32-.34,2.68,2.68,0,0,1-.09-.88V69.41h-.55v-.58h.55V67.74l.74-.45v1.54h.75v.58h-.75V72a1.27,1.27,0,0,0,0,.41.3.3,0,0,0,.13.15.49.49,0,0,0,.25.05Z"/><path d="M130.1,71.82l.77.1A1.88,1.88,0,0,1,130.2,73a2.29,2.29,0,0,1-2.79-.22,2.33,2.33,0,0,1-.57-1.67,2.44,2.44,0,0,1,.57-1.73,1.94,1.94,0,0,1,1.49-.61,1.89,1.89,0,0,1,1.44.6A2.39,2.39,0,0,1,130.9,71s0,.11,0,.2h-3.29a1.69,1.69,0,0,0,.41,1.11,1.22,1.22,0,0,0,.92.39,1.14,1.14,0,0,0,.7-.22A1.43,1.43,0,0,0,130.1,71.82Zm-2.45-1.21h2.46a1.5,1.5,0,0,0-.28-.83,1.15,1.15,0,0,0-.93-.43,1.19,1.19,0,0,0-.87.34A1.36,1.36,0,0,0,127.65,70.61Z"/><path d="M131.8,73.24V68.83h.67v.67a1.81,1.81,0,0,1,.47-.62.83.83,0,0,1,.48-.15,1.46,1.46,0,0,1,.77.24l-.26.69a1.07,1.07,0,0,0-.55-.16.71.71,0,0,0-.44.15.79.79,0,0,0-.28.41,2.88,2.88,0,0,0-.12.87v2.31Z"/><path d="M138.63,72.57l.11.66a2.76,2.76,0,0,1-.56.07,1.29,1.29,0,0,1-.63-.13.72.72,0,0,1-.31-.34,2.65,2.65,0,0,1-.09-.88V69.41h-.55v-.58h.55V67.74l.74-.45v1.54h.75v.58h-.75V72a1.3,1.3,0,0,0,0,.41.31.31,0,0,0,.13.15.49.49,0,0,0,.25.05Z"/><path d="M142.24,72.7a2.78,2.78,0,0,1-.8.5,2.3,2.3,0,0,1-.82.15A1.6,1.6,0,0,1,139.5,73a1.17,1.17,0,0,1-.39-.91,1.23,1.23,0,0,1,.53-1,1.81,1.81,0,0,1,.54-.24,5.27,5.27,0,0,1,.66-.11,6.83,6.83,0,0,0,1.33-.26c0-.1,0-.17,0-.19a.83.83,0,0,0-.21-.64,1.25,1.25,0,0,0-.85-.25,1.32,1.32,0,0,0-.78.18,1.13,1.13,0,0,0-.37.65l-.73-.1a1.81,1.81,0,0,1,.33-.76,1.44,1.44,0,0,1,.66-.44,2.94,2.94,0,0,1,1-.16,2.65,2.65,0,0,1,.92.13,1.21,1.21,0,0,1,.52.33,1.18,1.18,0,0,1,.23.51,4.25,4.25,0,0,1,0,.69v1a10.76,10.76,0,0,0,0,1.32,1.64,1.64,0,0,0,.19.53h-.78A1.57,1.57,0,0,1,142.24,72.7ZM142.18,71a5.51,5.51,0,0,1-1.22.28,2.8,2.8,0,0,0-.65.15.64.64,0,0,0-.29.24.63.63,0,0,0-.1.35.64.64,0,0,0,.23.5,1,1,0,0,0,.66.2,1.53,1.53,0,0,0,.77-.19,1.16,1.16,0,0,0,.49-.52,1.8,1.8,0,0,0,.12-.75Z"/><path d="M144.09,73.24V68.83h.67v.63a1.59,1.59,0,0,1,1.4-.73,1.84,1.84,0,0,1,.73.14,1.16,1.16,0,0,1,.5.38,1.44,1.44,0,0,1,.23.55,4.33,4.33,0,0,1,0,.73v2.71h-.75V70.56a2,2,0,0,0-.09-.68.72.72,0,0,0-.31-.36,1,1,0,0,0-.52-.13,1.21,1.21,0,0,0-.82.3,1.5,1.5,0,0,0-.35,1.15v2.41Z"/><path d="M148.82,73.24V67.16h.75v3.47l1.77-1.79h1l-1.69,1.64,1.86,2.77h-.92L150.1,71l-.53.51v1.75Z"/><path d="M158.45,71.82l.77.1a1.88,1.88,0,0,1-.68,1.05,2.29,2.29,0,0,1-2.79-.22,2.33,2.33,0,0,1-.57-1.67,2.44,2.44,0,0,1,.57-1.73,1.94,1.94,0,0,1,1.49-.61,1.89,1.89,0,0,1,1.44.6,2.39,2.39,0,0,1,.56,1.69s0,.11,0,.2H156a1.7,1.7,0,0,0,.41,1.11,1.22,1.22,0,0,0,.92.39,1.14,1.14,0,0,0,.7-.22A1.43,1.43,0,0,0,158.45,71.82ZM156,70.61h2.46a1.49,1.49,0,0,0-.28-.83,1.14,1.14,0,0,0-.93-.43,1.19,1.19,0,0,0-.87.34A1.36,1.36,0,0,0,156,70.61Z"/><path d="M159.66,73.24l1.61-2.29-1.49-2.12h.93l.68,1,.31.49.34-.49.74-1h.89l-1.52,2.08,1.64,2.33h-.92l-.9-1.37-.24-.37-1.16,1.74Z"/><path d="M164.41,74.93v-6.1h.68v.57a1.68,1.68,0,0,1,.54-.5,1.5,1.5,0,0,1,.74-.17,1.74,1.74,0,0,1,1,.29,1.78,1.78,0,0,1,.65.82,3,3,0,0,1,.22,1.16,2.94,2.94,0,0,1-.24,1.22,1.84,1.84,0,0,1-1.68,1.12,1.41,1.41,0,0,1-.67-.16,1.51,1.51,0,0,1-.49-.4v2.15Zm.68-3.87a1.92,1.92,0,0,0,.34,1.26,1.06,1.06,0,0,0,.83.41,1.08,1.08,0,0,0,.85-.42,2,2,0,0,0,.35-1.31,1.94,1.94,0,0,0-.35-1.26,1,1,0,0,0-.83-.42,1.07,1.07,0,0,0-.84.45A2,2,0,0,0,165.08,71.06Z"/><path d="M169.12,73.24V67.16h.75v6.08Z"/><path d="M170.74,71a2.27,2.27,0,0,1,.68-1.81,2,2,0,0,1,1.39-.49,2,2,0,0,1,1.49.6,2.27,2.27,0,0,1,.58,1.65,2.92,2.92,0,0,1-.26,1.34,1.81,1.81,0,0,1-.74.76,2.16,2.16,0,0,1-1.06.27,2,2,0,0,1-1.5-.59A2.37,2.37,0,0,1,170.74,71Zm.77,0a1.88,1.88,0,0,0,.37,1.27,1.23,1.23,0,0,0,1.85,0,1.92,1.92,0,0,0,.37-1.29,1.82,1.82,0,0,0-.37-1.24,1.23,1.23,0,0,0-1.85,0A1.87,1.87,0,0,0,171.51,71Z"/><path d="M175.45,71.92l.74-.12a1,1,0,0,0,.35.68,1.21,1.21,0,0,0,.79.24,1.17,1.17,0,0,0,.76-.21.63.63,0,0,0,.25-.49.45.45,0,0,0-.22-.4,3.26,3.26,0,0,0-.76-.25,7,7,0,0,1-1.14-.36,1.09,1.09,0,0,1-.65-1,1.14,1.14,0,0,1,.14-.55,1.21,1.21,0,0,1,.37-.42,1.52,1.52,0,0,1,.47-.22,2.26,2.26,0,0,1,.65-.09,2.55,2.55,0,0,1,.91.15,1.24,1.24,0,0,1,.58.4,1.58,1.58,0,0,1,.26.68l-.73.1a.8.8,0,0,0-.29-.53,1.05,1.05,0,0,0-.67-.19,1.22,1.22,0,0,0-.73.17.5.5,0,0,0-.22.4.41.41,0,0,0,.09.26.66.66,0,0,0,.29.2l.66.19a9.22,9.22,0,0,1,1.11.35,1.12,1.12,0,0,1,.49.39,1.09,1.09,0,0,1,.18.64,1.25,1.25,0,0,1-.22.7,1.41,1.41,0,0,1-.63.51,2.28,2.28,0,0,1-.93.18A2.07,2.07,0,0,1,176,73,1.66,1.66,0,0,1,175.45,71.92Z"/><path d="M180,68v-.86h.75V68Zm0,5.23V68.83h.75v4.41Z"/><path d="M181.61,71a2.27,2.27,0,0,1,.68-1.81,2.05,2.05,0,0,1,1.39-.49,2,2,0,0,1,1.49.6,2.26,2.26,0,0,1,.58,1.65,2.92,2.92,0,0,1-.26,1.34,1.81,1.81,0,0,1-.74.76,2.17,2.17,0,0,1-1.06.27,2,2,0,0,1-1.5-.59A2.37,2.37,0,0,1,181.61,71Zm.77,0a1.88,1.88,0,0,0,.37,1.27,1.23,1.23,0,0,0,1.85,0A1.92,1.92,0,0,0,185,71a1.82,1.82,0,0,0-.37-1.24,1.23,1.23,0,0,0-1.85,0A1.87,1.87,0,0,0,182.38,71Z"/><path d="M186.62,73.24V68.83h.67v.63a1.59,1.59,0,0,1,1.4-.73,1.84,1.84,0,0,1,.73.14,1.16,1.16,0,0,1,.5.38,1.44,1.44,0,0,1,.23.55,4.33,4.33,0,0,1,0,.73v2.71h-.75V70.56a2,2,0,0,0-.09-.68.72.72,0,0,0-.31-.36,1,1,0,0,0-.52-.13,1.21,1.21,0,0,0-.82.3,1.5,1.5,0,0,0-.35,1.15v2.41Z"/><path d="M191.56,73.24v-.85h.85v.85Z"/><circle cx="107.22" cy="59.7" r="1.76"/><path d="M114.36,93V86.88h2.3a5.56,5.56,0,0,1,.93.06,1.84,1.84,0,0,1,.75.28,1.5,1.5,0,0,1,.49.59,2,2,0,0,1-.31,2.14,2.37,2.37,0,0,1-1.78.54h-1.56V93Zm.81-3.19h1.57a1.67,1.67,0,0,0,1.11-.29,1,1,0,0,0,.33-.82A1.1,1.1,0,0,0,118,88a.9.9,0,0,0-.51-.36,3.43,3.43,0,0,0-.75-.05h-1.56Z"/><path d="M119.92,93V88.56h.67v.67a1.82,1.82,0,0,1,.48-.62.83.83,0,0,1,.48-.15,1.45,1.45,0,0,1,.77.24l-.26.69a1.06,1.06,0,0,0-.55-.16.71.71,0,0,0-.44.15.8.8,0,0,0-.28.41,2.94,2.94,0,0,0-.12.87V93Z"/><path d="M122.48,90.76a2.27,2.27,0,0,1,.68-1.81,2,2,0,0,1,1.39-.49,2,2,0,0,1,1.49.6,2.26,2.26,0,0,1,.58,1.65,2.92,2.92,0,0,1-.25,1.34,1.81,1.81,0,0,1-.74.76,2.16,2.16,0,0,1-1.06.27,2,2,0,0,1-1.5-.59A2.37,2.37,0,0,1,122.48,90.76Zm.77,0a1.88,1.88,0,0,0,.37,1.27,1.23,1.23,0,0,0,1.86,0,1.92,1.92,0,0,0,.37-1.29,1.82,1.82,0,0,0-.37-1.24,1.23,1.23,0,0,0-1.85,0A1.87,1.87,0,0,0,123.25,90.76Z"/><path d="M127.49,94.66v-6.1h.68v.57a1.67,1.67,0,0,1,.54-.5,1.49,1.49,0,0,1,.73-.17,1.74,1.74,0,0,1,1,.29,1.79,1.79,0,0,1,.65.82,3,3,0,0,1,.22,1.16,2.94,2.94,0,0,1-.24,1.22,1.83,1.83,0,0,1-.71.83,1.81,1.81,0,0,1-1,.29,1.41,1.41,0,0,1-.67-.16,1.52,1.52,0,0,1-.49-.4v2.15Zm.68-3.87a1.92,1.92,0,0,0,.34,1.26,1.06,1.06,0,0,0,.83.41,1.08,1.08,0,0,0,.85-.42,2,2,0,0,0,.35-1.31,2,2,0,0,0-.35-1.26,1,1,0,0,0-.83-.42,1.08,1.08,0,0,0-.85.45A2,2,0,0,0,128.16,90.79Z"/><path d="M135.23,91.55l.77.1a1.88,1.88,0,0,1-.68,1.05,2,2,0,0,1-1.26.37,2,2,0,0,1-1.53-.6A2.32,2.32,0,0,1,132,90.8a2.43,2.43,0,0,1,.57-1.73,1.94,1.94,0,0,1,1.49-.61,1.88,1.88,0,0,1,1.44.6,2.39,2.39,0,0,1,.56,1.69s0,.11,0,.2h-3.29a1.69,1.69,0,0,0,.41,1.11,1.23,1.23,0,0,0,.92.39,1.14,1.14,0,0,0,.7-.22A1.43,1.43,0,0,0,135.23,91.55Zm-2.45-1.21h2.46a1.5,1.5,0,0,0-.28-.83,1.15,1.15,0,0,0-.93-.43,1.19,1.19,0,0,0-.87.34A1.37,1.37,0,0,0,132.78,90.34Z"/><path d="M136.93,93V88.56h.67v.67a1.8,1.8,0,0,1,.48-.62.83.83,0,0,1,.48-.15,1.45,1.45,0,0,1,.77.24l-.26.69a1.06,1.06,0,0,0-.55-.16.71.71,0,0,0-.44.15.79.79,0,0,0-.28.41,2.91,2.91,0,0,0-.12.87V93Z"/><path d="M139.76,93V86.88h.75V93Z"/><path d="M141.63,94.66l-.08-.7A1.67,1.67,0,0,0,142,94a.82.82,0,0,0,.4-.08.67.67,0,0,0,.24-.23,3.51,3.51,0,0,0,.23-.56l.07-.18-1.67-4.42h.8l.92,2.55q.18.49.32,1a10.07,10.07,0,0,1,.31-1l.94-2.57h.75L143.6,93a8.73,8.73,0,0,1-.42,1,1.48,1.48,0,0,1-.46.54,1.08,1.08,0,0,1-.62.17A1.48,1.48,0,0,1,141.63,94.66Z"/><path d="M148,91.65l.74-.12a1,1,0,0,0,.35.68,1.21,1.21,0,0,0,.79.24,1.17,1.17,0,0,0,.76-.21.63.63,0,0,0,.25-.49.45.45,0,0,0-.22-.4,3.26,3.26,0,0,0-.76-.25,7,7,0,0,1-1.14-.36,1.09,1.09,0,0,1-.65-1,1.14,1.14,0,0,1,.14-.55,1.21,1.21,0,0,1,.37-.42,1.52,1.52,0,0,1,.47-.22,2.26,2.26,0,0,1,.65-.09,2.55,2.55,0,0,1,.91.15,1.24,1.24,0,0,1,.58.4,1.58,1.58,0,0,1,.26.68l-.73.1a.8.8,0,0,0-.29-.53,1.05,1.05,0,0,0-.67-.19,1.22,1.22,0,0,0-.73.17.5.5,0,0,0-.22.4.41.41,0,0,0,.09.26.66.66,0,0,0,.29.2l.66.19a9.22,9.22,0,0,1,1.11.35,1.12,1.12,0,0,1,.49.39,1.09,1.09,0,0,1,.18.64,1.25,1.25,0,0,1-.22.7,1.41,1.41,0,0,1-.63.51,2.28,2.28,0,0,1-.93.18,2.07,2.07,0,0,1-1.31-.36A1.66,1.66,0,0,1,148,91.65Z"/><path d="M152.53,87.74v-.86h.75v.86Zm0,5.23V88.56h.75V93Z"/><path d="M154,93v-.61l2.8-3.22-.84,0h-1.8v-.61h3.6v.49l-2.39,2.8-.46.51q.5,0,.94,0h2V93Z"/><path d="M161.68,91.55l.77.1a1.88,1.88,0,0,1-.68,1.05,2.29,2.29,0,0,1-2.79-.22,2.33,2.33,0,0,1-.57-1.67,2.44,2.44,0,0,1,.57-1.73,1.94,1.94,0,0,1,1.49-.61,1.89,1.89,0,0,1,1.45.6,2.39,2.39,0,0,1,.56,1.69s0,.11,0,.2h-3.29a1.7,1.7,0,0,0,.41,1.11,1.22,1.22,0,0,0,.92.39,1.14,1.14,0,0,0,.7-.22A1.43,1.43,0,0,0,161.68,91.55Zm-2.45-1.21h2.46a1.49,1.49,0,0,0-.28-.83,1.14,1.14,0,0,0-.93-.43,1.19,1.19,0,0,0-.87.34A1.36,1.36,0,0,0,159.23,90.34Z"/><path d="M166.25,93v-.56a1.37,1.37,0,0,1-1.23.66,1.72,1.72,0,0,1-1-.29,1.91,1.91,0,0,1-.69-.81,2.8,2.8,0,0,1-.24-1.2,3.12,3.12,0,0,1,.22-1.2,1.73,1.73,0,0,1,.66-.82,1.76,1.76,0,0,1,1-.29,1.47,1.47,0,0,1,.71.17,1.48,1.48,0,0,1,.51.44V86.88h.74V93Zm-2.36-2.2a1.92,1.92,0,0,0,.36,1.27,1.08,1.08,0,0,0,.84.42,1.06,1.06,0,0,0,.83-.4,1.85,1.85,0,0,0,.34-1.22,2.07,2.07,0,0,0-.35-1.33,1.07,1.07,0,0,0-.86-.42,1,1,0,0,0-.83.41A2,2,0,0,0,163.89,90.77Z"/><path d="M172.11,92.3l.11.66a2.76,2.76,0,0,1-.56.07,1.28,1.28,0,0,1-.63-.13.72.72,0,0,1-.32-.34,2.69,2.69,0,0,1-.09-.88V89.14h-.55v-.58h.55V87.47l.74-.45v1.54h.75v.58h-.75v2.58a1.3,1.3,0,0,0,0,.41.31.31,0,0,0,.13.15.49.49,0,0,0,.25.05Z"/><path d="M175.86,91.55l.77.1a1.88,1.88,0,0,1-.68,1.05,2.29,2.29,0,0,1-2.79-.22,2.33,2.33,0,0,1-.57-1.67,2.44,2.44,0,0,1,.57-1.73,1.94,1.94,0,0,1,1.49-.61,1.89,1.89,0,0,1,1.45.6,2.39,2.39,0,0,1,.56,1.69s0,.11,0,.2h-3.29a1.7,1.7,0,0,0,.41,1.11,1.22,1.22,0,0,0,.92.39,1.14,1.14,0,0,0,.7-.22A1.43,1.43,0,0,0,175.86,91.55Zm-2.45-1.21h2.46a1.49,1.49,0,0,0-.28-.83,1.14,1.14,0,0,0-.93-.43,1.19,1.19,0,0,0-.87.34A1.36,1.36,0,0,0,173.4,90.34Z"/><path d="M177.57,93V88.56h.67v.62a1.57,1.57,0,0,1,.55-.52,1.55,1.55,0,0,1,.78-.2,1.45,1.45,0,0,1,.8.2,1.09,1.09,0,0,1,.44.57,1.58,1.58,0,0,1,1.36-.77,1.34,1.34,0,0,1,1,.36,1.55,1.55,0,0,1,.35,1.12v3h-.74V90.19a2,2,0,0,0-.07-.65.62.62,0,0,0-.26-.32.82.82,0,0,0-.45-.12,1,1,0,0,0-.77.31,1.37,1.37,0,0,0-.31,1V93h-.75V90.1a1.26,1.26,0,0,0-.18-.75.69.69,0,0,0-.6-.25,1.08,1.08,0,0,0-.58.17.94.94,0,0,0-.39.49,2.74,2.74,0,0,0-.12.92V93Z"/><path d="M184.65,94.66v-6.1h.68v.57a1.68,1.68,0,0,1,.54-.5,1.5,1.5,0,0,1,.74-.17,1.74,1.74,0,0,1,1,.29,1.78,1.78,0,0,1,.65.82,3,3,0,0,1,.22,1.16,2.94,2.94,0,0,1-.24,1.22,1.84,1.84,0,0,1-1.68,1.12,1.41,1.41,0,0,1-.67-.16,1.51,1.51,0,0,1-.49-.4v2.15Zm.68-3.87a1.92,1.92,0,0,0,.34,1.26,1.06,1.06,0,0,0,.83.41,1.08,1.08,0,0,0,.85-.42,2,2,0,0,0,.35-1.31,1.94,1.94,0,0,0-.35-1.26,1,1,0,0,0-.83-.42,1.07,1.07,0,0,0-.84.45A2,2,0,0,0,185.32,90.79Z"/><path d="M192.39,91.55l.77.1a1.88,1.88,0,0,1-.68,1.05,2.29,2.29,0,0,1-2.79-.22,2.33,2.33,0,0,1-.57-1.67,2.44,2.44,0,0,1,.57-1.73,1.94,1.94,0,0,1,1.49-.61,1.89,1.89,0,0,1,1.45.6,2.39,2.39,0,0,1,.56,1.69s0,.11,0,.2H189.9a1.7,1.7,0,0,0,.41,1.11,1.22,1.22,0,0,0,.92.39,1.14,1.14,0,0,0,.7-.22A1.43,1.43,0,0,0,192.39,91.55Zm-2.45-1.21h2.46a1.49,1.49,0,0,0-.28-.83,1.14,1.14,0,0,0-.93-.43,1.19,1.19,0,0,0-.87.34A1.36,1.36,0,0,0,189.94,90.34Z"/><path d="M194.09,93V88.56h.67v.67a1.83,1.83,0,0,1,.47-.62.83.83,0,0,1,.48-.15,1.46,1.46,0,0,1,.77.24l-.26.69a1.06,1.06,0,0,0-.55-.16.72.72,0,0,0-.44.15.8.8,0,0,0-.28.41,2.91,2.91,0,0,0-.12.87V93Z"/><path d="M199.81,92.42a2.78,2.78,0,0,1-.8.5,2.3,2.3,0,0,1-.82.15,1.6,1.6,0,0,1-1.12-.35,1.17,1.17,0,0,1-.39-.91,1.22,1.22,0,0,1,.53-1,1.8,1.8,0,0,1,.54-.24,5.3,5.3,0,0,1,.66-.11,6.81,6.81,0,0,0,1.33-.26c0-.1,0-.17,0-.19a.83.83,0,0,0-.21-.64,1.25,1.25,0,0,0-.85-.25,1.32,1.32,0,0,0-.78.18,1.13,1.13,0,0,0-.37.65l-.73-.1a1.81,1.81,0,0,1,.33-.76,1.43,1.43,0,0,1,.66-.44,2.94,2.94,0,0,1,1-.16,2.65,2.65,0,0,1,.92.13,1.21,1.21,0,0,1,.52.33,1.19,1.19,0,0,1,.23.51,4.28,4.28,0,0,1,0,.69v1a10.76,10.76,0,0,0,0,1.32,1.68,1.68,0,0,0,.19.53H200A1.57,1.57,0,0,1,199.81,92.42Zm-.06-1.67a5.51,5.51,0,0,1-1.22.28,2.77,2.77,0,0,0-.65.15.64.64,0,0,0-.4.6.63.63,0,0,0,.23.5,1,1,0,0,0,.66.2,1.54,1.54,0,0,0,.77-.19,1.16,1.16,0,0,0,.49-.52,1.81,1.81,0,0,0,.12-.75Z"/><path d="M203.29,92.3l.11.66a2.76,2.76,0,0,1-.56.07,1.28,1.28,0,0,1-.63-.13.73.73,0,0,1-.32-.34,2.66,2.66,0,0,1-.09-.88V89.14h-.55v-.58h.55V87.47l.74-.45v1.54h.75v.58h-.75v2.58a1.33,1.33,0,0,0,0,.41.32.32,0,0,0,.13.15.5.5,0,0,0,.26.05Z"/><path d="M206.91,93v-.65a1.61,1.61,0,0,1-1.4.75,1.78,1.78,0,0,1-.73-.15,1.19,1.19,0,0,1-.5-.38,1.4,1.4,0,0,1-.23-.55,3.71,3.71,0,0,1,0-.7V88.56h.75V91a4.49,4.49,0,0,0,0,.79.78.78,0,0,0,.3.46.93.93,0,0,0,.56.17,1.23,1.23,0,0,0,.63-.17,1,1,0,0,0,.42-.47,2.37,2.37,0,0,0,.12-.86V88.56h.75V93Z"/><path d="M208.74,93V88.56h.67v.67a1.82,1.82,0,0,1,.48-.62.83.83,0,0,1,.48-.15,1.45,1.45,0,0,1,.77.24l-.26.69a1.06,1.06,0,0,0-.55-.16.71.71,0,0,0-.44.15.8.8,0,0,0-.28.41,2.94,2.94,0,0,0-.12.87V93Z"/><path d="M214.6,91.55l.77.1a1.88,1.88,0,0,1-.68,1.05,2.29,2.29,0,0,1-2.79-.22,2.33,2.33,0,0,1-.57-1.67,2.44,2.44,0,0,1,.57-1.73,1.94,1.94,0,0,1,1.49-.61,1.89,1.89,0,0,1,1.44.6,2.39,2.39,0,0,1,.56,1.69s0,.11,0,.2H212.1a1.69,1.69,0,0,0,.41,1.11,1.22,1.22,0,0,0,.92.39,1.14,1.14,0,0,0,.7-.22A1.43,1.43,0,0,0,214.6,91.55Zm-2.45-1.21h2.46a1.5,1.5,0,0,0-.28-.83,1.15,1.15,0,0,0-.93-.43,1.19,1.19,0,0,0-.87.34A1.36,1.36,0,0,0,212.14,90.34Z"/><path d="M221.54,92.42a2.77,2.77,0,0,1-.8.5,2.3,2.3,0,0,1-.82.15,1.6,1.6,0,0,1-1.12-.35,1.17,1.17,0,0,1-.39-.91,1.2,1.2,0,0,1,.15-.59,1.22,1.22,0,0,1,.38-.43,1.83,1.83,0,0,1,.54-.24,5.3,5.3,0,0,1,.66-.11,6.81,6.81,0,0,0,1.33-.26c0-.1,0-.17,0-.19a.83.83,0,0,0-.21-.64,1.25,1.25,0,0,0-.85-.25,1.32,1.32,0,0,0-.78.18,1.13,1.13,0,0,0-.37.65l-.73-.1a1.81,1.81,0,0,1,.33-.76,1.43,1.43,0,0,1,.66-.44,2.93,2.93,0,0,1,1-.16,2.65,2.65,0,0,1,.92.13,1.2,1.2,0,0,1,.52.33,1.16,1.16,0,0,1,.23.51,4.14,4.14,0,0,1,0,.69v1a10.47,10.47,0,0,0,0,1.32,1.63,1.63,0,0,0,.19.53h-.78A1.57,1.57,0,0,1,221.54,92.42Zm-.06-1.67a5.5,5.5,0,0,1-1.22.28,2.8,2.8,0,0,0-.65.15.65.65,0,0,0-.29.24.66.66,0,0,0,.12.85,1,1,0,0,0,.66.2,1.54,1.54,0,0,0,.77-.19,1.16,1.16,0,0,0,.49-.52,1.81,1.81,0,0,0,.12-.75Z"/><path d="M223.4,93V88.56h.67v.63a1.59,1.59,0,0,1,1.4-.73,1.84,1.84,0,0,1,.73.14,1.16,1.16,0,0,1,.5.38,1.44,1.44,0,0,1,.23.55,4.33,4.33,0,0,1,0,.73V93h-.75V90.29a2,2,0,0,0-.09-.68.72.72,0,0,0-.31-.36,1,1,0,0,0-.52-.13,1.21,1.21,0,0,0-.82.3,1.5,1.5,0,0,0-.35,1.15V93Z"/><path d="M231,93v-.56a1.37,1.37,0,0,1-1.23.66,1.73,1.73,0,0,1-1-.29,1.91,1.91,0,0,1-.68-.81,2.8,2.8,0,0,1-.24-1.2,3.14,3.14,0,0,1,.22-1.2,1.73,1.73,0,0,1,.66-.82,1.76,1.76,0,0,1,1-.29,1.47,1.47,0,0,1,1.21.61V86.88h.74V93Zm-2.36-2.2A1.92,1.92,0,0,0,229,92a1.08,1.08,0,0,0,.84.42,1.06,1.06,0,0,0,.83-.4,1.85,1.85,0,0,0,.34-1.22,2.07,2.07,0,0,0-.35-1.33,1.07,1.07,0,0,0-.86-.42,1,1,0,0,0-.83.41A2,2,0,0,0,228.62,90.77Z"/><path d="M114.26,104.86v-6.1h.68v.57a1.66,1.66,0,0,1,.54-.5,1.49,1.49,0,0,1,.73-.17,1.74,1.74,0,0,1,1,.29,1.79,1.79,0,0,1,.65.82,3,3,0,0,1,.22,1.16,3,3,0,0,1-.24,1.22,1.84,1.84,0,0,1-1.68,1.12,1.41,1.41,0,0,1-.67-.16,1.53,1.53,0,0,1-.49-.4v2.15Zm.68-3.87a1.92,1.92,0,0,0,.34,1.26,1.06,1.06,0,0,0,.83.41,1.08,1.08,0,0,0,.85-.42,2,2,0,0,0,.35-1.3,2,2,0,0,0-.35-1.26,1,1,0,0,0-.83-.42,1.08,1.08,0,0,0-.84.45A2,2,0,0,0,114.94,101Z"/><path d="M119,103.17V98.76h.67v.67a1.84,1.84,0,0,1,.47-.62.83.83,0,0,1,.48-.15,1.46,1.46,0,0,1,.77.24l-.26.69a1.06,1.06,0,0,0-.55-.16.71.71,0,0,0-.44.15.8.8,0,0,0-.28.41,2.91,2.91,0,0,0-.12.87v2.31Z"/><path d="M124.84,101.75l.77.09a1.88,1.88,0,0,1-.68,1,2.29,2.29,0,0,1-2.79-.22,2.33,2.33,0,0,1-.57-1.67,2.44,2.44,0,0,1,.57-1.73,1.94,1.94,0,0,1,1.49-.61,1.89,1.89,0,0,1,1.44.6,2.39,2.39,0,0,1,.56,1.69s0,.11,0,.2h-3.29a1.7,1.7,0,0,0,.41,1.11,1.22,1.22,0,0,0,.92.39,1.14,1.14,0,0,0,.7-.22A1.44,1.44,0,0,0,124.84,101.75Zm-2.45-1.21h2.46a1.49,1.49,0,0,0-.28-.83,1.15,1.15,0,0,0-.93-.43,1.19,1.19,0,0,0-.87.34A1.36,1.36,0,0,0,122.38,100.54Z"/><path d="M126.25,101.85l.74-.12a1,1,0,0,0,.35.68,1.21,1.21,0,0,0,.79.24,1.17,1.17,0,0,0,.76-.21.63.63,0,0,0,.25-.49.45.45,0,0,0-.22-.4,3.3,3.3,0,0,0-.76-.25,7,7,0,0,1-1.14-.36,1.09,1.09,0,0,1-.65-1,1.14,1.14,0,0,1,.13-.55,1.22,1.22,0,0,1,.37-.42,1.56,1.56,0,0,1,.48-.22,2.26,2.26,0,0,1,.65-.09,2.55,2.55,0,0,1,.91.15,1.24,1.24,0,0,1,.58.41,1.58,1.58,0,0,1,.26.68l-.73.1a.8.8,0,0,0-.29-.53,1.06,1.06,0,0,0-.67-.19,1.21,1.21,0,0,0-.73.17.5.5,0,0,0-.22.4.41.41,0,0,0,.09.26.67.67,0,0,0,.29.2l.66.19a9.07,9.07,0,0,1,1.11.35,1.12,1.12,0,0,1,.49.39,1.1,1.1,0,0,1,.18.64,1.26,1.26,0,0,1-.22.7,1.41,1.41,0,0,1-.63.51,2.28,2.28,0,0,1-.93.18,2.07,2.07,0,0,1-1.31-.36A1.66,1.66,0,0,1,126.25,101.85Z"/><path d="M130.5,101.85l.74-.12a1,1,0,0,0,.35.68,1.21,1.21,0,0,0,.79.24,1.17,1.17,0,0,0,.76-.21.63.63,0,0,0,.25-.49.45.45,0,0,0-.22-.4,3.3,3.3,0,0,0-.76-.25,7,7,0,0,1-1.14-.36,1.09,1.09,0,0,1-.65-1,1.14,1.14,0,0,1,.13-.55,1.22,1.22,0,0,1,.37-.42,1.56,1.56,0,0,1,.48-.22,2.26,2.26,0,0,1,.65-.09,2.55,2.55,0,0,1,.91.15,1.24,1.24,0,0,1,.58.41,1.58,1.58,0,0,1,.26.68l-.73.1a.8.8,0,0,0-.29-.53,1.06,1.06,0,0,0-.67-.19,1.21,1.21,0,0,0-.73.17.5.5,0,0,0-.22.4.41.41,0,0,0,.09.26.67.67,0,0,0,.29.2l.66.19a9.07,9.07,0,0,1,1.11.35,1.12,1.12,0,0,1,.49.39,1.1,1.1,0,0,1,.18.64,1.26,1.26,0,0,1-.22.7,1.41,1.41,0,0,1-.63.51,2.28,2.28,0,0,1-.93.18,2.07,2.07,0,0,1-1.31-.36A1.66,1.66,0,0,1,130.5,101.85Z"/><path d="M137.94,103.17v-.65a1.61,1.61,0,0,1-1.4.75,1.79,1.79,0,0,1-.73-.15,1.21,1.21,0,0,1-.5-.37,1.42,1.42,0,0,1-.23-.55,3.91,3.91,0,0,1,0-.7V98.76h.75v2.44a4.26,4.26,0,0,0,0,.79.77.77,0,0,0,.3.46.92.92,0,0,0,.56.17,1.23,1.23,0,0,0,.63-.17,1,1,0,0,0,.42-.47,2.35,2.35,0,0,0,.12-.86V98.76h.75v4.41Z"/><path d="M139.77,103.17V98.76h.67v.67a1.84,1.84,0,0,1,.47-.62.83.83,0,0,1,.48-.15,1.46,1.46,0,0,1,.77.24l-.26.69a1.06,1.06,0,0,0-.55-.16.71.71,0,0,0-.44.15.8.8,0,0,0-.28.41,2.91,2.91,0,0,0-.12.87v2.31Z"/><path d="M145.62,101.75l.77.09a1.88,1.88,0,0,1-.68,1,2.29,2.29,0,0,1-2.79-.22,2.33,2.33,0,0,1-.57-1.67,2.44,2.44,0,0,1,.57-1.73,1.94,1.94,0,0,1,1.49-.61,1.89,1.89,0,0,1,1.44.6,2.39,2.39,0,0,1,.56,1.69s0,.11,0,.2h-3.29a1.7,1.7,0,0,0,.41,1.11,1.22,1.22,0,0,0,.92.39,1.14,1.14,0,0,0,.7-.22A1.44,1.44,0,0,0,145.62,101.75Zm-2.45-1.21h2.46a1.49,1.49,0,0,0-.28-.83,1.15,1.15,0,0,0-.93-.43,1.19,1.19,0,0,0-.87.34A1.36,1.36,0,0,0,143.17,100.54Z"/><path d="M149.68,103.17V98.76h.67v.67a1.81,1.81,0,0,1,.48-.62.83.83,0,0,1,.48-.15,1.46,1.46,0,0,1,.77.24l-.26.69a1.06,1.06,0,0,0-.55-.16.71.71,0,0,0-.44.15.8.8,0,0,0-.28.41,2.91,2.91,0,0,0-.12.87v2.31Z"/><path d="M155.54,101.75l.77.09a1.88,1.88,0,0,1-.68,1,2.29,2.29,0,0,1-2.79-.22,2.33,2.33,0,0,1-.57-1.67,2.44,2.44,0,0,1,.57-1.73,1.94,1.94,0,0,1,1.49-.61,1.89,1.89,0,0,1,1.44.6,2.39,2.39,0,0,1,.56,1.69s0,.11,0,.2H153a1.7,1.7,0,0,0,.41,1.11,1.22,1.22,0,0,0,.92.39,1.14,1.14,0,0,0,.7-.22A1.44,1.44,0,0,0,155.54,101.75Zm-2.45-1.21h2.46a1.49,1.49,0,0,0-.28-.83,1.15,1.15,0,0,0-.93-.43,1.19,1.19,0,0,0-.87.34A1.36,1.36,0,0,0,153.09,100.54Z"/><path d="M157.23,103.17V97.08H158v6.08Z"/><path d="M159.14,97.94v-.86h.75v.86Zm0,5.23V98.76h.75v4.41Z"/><path d="M164,101.75l.77.09a1.88,1.88,0,0,1-.68,1,2.29,2.29,0,0,1-2.79-.22,2.33,2.33,0,0,1-.57-1.67,2.44,2.44,0,0,1,.57-1.73,1.94,1.94,0,0,1,1.49-.61,1.89,1.89,0,0,1,1.44.6,2.39,2.39,0,0,1,.56,1.69s0,.11,0,.2h-3.29a1.7,1.7,0,0,0,.41,1.11,1.22,1.22,0,0,0,.92.39,1.14,1.14,0,0,0,.7-.22A1.44,1.44,0,0,0,164,101.75Zm-2.45-1.21h2.46a1.49,1.49,0,0,0-.28-.83,1.15,1.15,0,0,0-.93-.43,1.19,1.19,0,0,0-.87.34A1.36,1.36,0,0,0,161.59,100.54Z"/><path d="M165.93,103.17V99.34h-.66v-.58h.66v-.47a2,2,0,0,1,.08-.66,1,1,0,0,1,.38-.47,1.37,1.37,0,0,1,.76-.18,3.67,3.67,0,0,1,.7.08l-.11.65a2.52,2.52,0,0,0-.44,0,.66.66,0,0,0-.48.14.79.79,0,0,0-.14.54v.41h.86v.58h-.86v3.83Z"/><path d="M171.7,103.17,170,98.76h.79l.95,2.64c.1.29.2.58.28.89q.1-.35.28-.84l1-2.69h.77l-1.67,4.41Z"/><path d="M177.6,102.62a2.78,2.78,0,0,1-.8.5,2.29,2.29,0,0,1-.82.15,1.6,1.6,0,0,1-1.12-.35,1.17,1.17,0,0,1-.39-.91,1.22,1.22,0,0,1,.53-1,1.8,1.8,0,0,1,.54-.25,5.3,5.3,0,0,1,.66-.11,6.84,6.84,0,0,0,1.33-.26c0-.1,0-.17,0-.19a.83.83,0,0,0-.21-.64,1.25,1.25,0,0,0-.85-.25,1.32,1.32,0,0,0-.78.18,1.13,1.13,0,0,0-.37.65l-.73-.1a1.8,1.8,0,0,1,.33-.76,1.43,1.43,0,0,1,.66-.44,2.93,2.93,0,0,1,1-.16,2.64,2.64,0,0,1,.92.13,1.2,1.2,0,0,1,.52.33,1.18,1.18,0,0,1,.23.51,4.28,4.28,0,0,1,0,.69v1a10.76,10.76,0,0,0,0,1.32,1.68,1.68,0,0,0,.19.53h-.78A1.58,1.58,0,0,1,177.6,102.62Zm-.06-1.67a5.48,5.48,0,0,1-1.22.28,2.77,2.77,0,0,0-.65.15.64.64,0,0,0-.4.6.63.63,0,0,0,.23.5,1,1,0,0,0,.66.2,1.53,1.53,0,0,0,.77-.19,1.15,1.15,0,0,0,.49-.52,1.81,1.81,0,0,0,.12-.75Z"/><path d="M179.44,103.17V97.08h.75v6.08Z"/><path d="M182.57,103.17l-1.68-4.41h.79l.95,2.64c.1.29.2.58.28.89q.1-.35.28-.84l1-2.69h.77l-1.67,4.41Z"/><path d="M188.61,101.75l.77.09a1.88,1.88,0,0,1-.68,1,2.29,2.29,0,0,1-2.79-.22,2.33,2.33,0,0,1-.57-1.67,2.44,2.44,0,0,1,.57-1.73,1.94,1.94,0,0,1,1.49-.61,1.89,1.89,0,0,1,1.44.6,2.39,2.39,0,0,1,.56,1.69s0,.11,0,.2h-3.29a1.7,1.7,0,0,0,.41,1.11,1.22,1.22,0,0,0,.92.39,1.14,1.14,0,0,0,.7-.22A1.44,1.44,0,0,0,188.61,101.75Zm-2.45-1.21h2.46a1.49,1.49,0,0,0-.28-.83,1.15,1.15,0,0,0-.93-.43,1.19,1.19,0,0,0-.87.34A1.36,1.36,0,0,0,186.16,100.54Z"/><path d="M192.68,103.17V98.76h.67v.62a1.55,1.55,0,0,1,1.34-.72,1.45,1.45,0,0,1,.8.2,1.08,1.08,0,0,1,.44.57,1.58,1.58,0,0,1,1.36-.77,1.34,1.34,0,0,1,1,.36,1.55,1.55,0,0,1,.35,1.12v3h-.74v-2.78a2.07,2.07,0,0,0-.07-.65.63.63,0,0,0-.26-.32.83.83,0,0,0-.45-.12,1,1,0,0,0-.77.31,1.36,1.36,0,0,0-.31,1v2.56h-.75V100.3a1.26,1.26,0,0,0-.18-.75.69.69,0,0,0-.6-.25,1.09,1.09,0,0,0-.58.17,1,1,0,0,0-.39.49,2.73,2.73,0,0,0-.12.92v2.29Z"/><path d="M202.65,103.17v-.65a1.61,1.61,0,0,1-1.4.75,1.79,1.79,0,0,1-.73-.15,1.21,1.21,0,0,1-.5-.37,1.42,1.42,0,0,1-.23-.55,3.91,3.91,0,0,1,0-.7V98.76h.75v2.44a4.26,4.26,0,0,0,0,.79.77.77,0,0,0,.3.46.92.92,0,0,0,.56.17,1.23,1.23,0,0,0,.63-.17,1,1,0,0,0,.42-.47,2.35,2.35,0,0,0,.12-.86V98.76h.75v4.41Z"/><path d="M204.19,101.85l.74-.12a1,1,0,0,0,.35.68,1.21,1.21,0,0,0,.79.24,1.17,1.17,0,0,0,.76-.21.63.63,0,0,0,.25-.49.45.45,0,0,0-.22-.4,3.3,3.3,0,0,0-.76-.25,7,7,0,0,1-1.14-.36,1.09,1.09,0,0,1-.65-1,1.14,1.14,0,0,1,.14-.55,1.21,1.21,0,0,1,.37-.42,1.52,1.52,0,0,1,.47-.22,2.26,2.26,0,0,1,.65-.09,2.55,2.55,0,0,1,.91.15,1.24,1.24,0,0,1,.58.41,1.58,1.58,0,0,1,.26.68l-.73.1a.8.8,0,0,0-.29-.53,1.06,1.06,0,0,0-.67-.19,1.21,1.21,0,0,0-.73.17.5.5,0,0,0-.22.4.41.41,0,0,0,.09.26.66.66,0,0,0,.29.2l.66.19a9.13,9.13,0,0,1,1.11.35,1.13,1.13,0,0,1,.49.39,1.09,1.09,0,0,1,.18.64,1.26,1.26,0,0,1-.22.7,1.41,1.41,0,0,1-.63.51,2.27,2.27,0,0,1-.93.18,2.08,2.08,0,0,1-1.31-.36A1.66,1.66,0,0,1,204.19,101.85Z"/><path d="M210.37,102.5l.11.66a2.72,2.72,0,0,1-.56.07,1.29,1.29,0,0,1-.63-.13.72.72,0,0,1-.31-.34,2.65,2.65,0,0,1-.09-.88V99.34h-.55v-.58h.55V97.67l.74-.45v1.54h.75v.58h-.75v2.58a1.3,1.3,0,0,0,0,.41.31.31,0,0,0,.13.15.5.5,0,0,0,.25.05Z"/><path d="M214.15,103.17h-.69V97.08h.75v2.17a1.48,1.48,0,0,1,1.21-.59,1.85,1.85,0,0,1,.77.16,1.57,1.57,0,0,1,.6.46,2.22,2.22,0,0,1,.37.72,2.94,2.94,0,0,1,.13.9,2.52,2.52,0,0,1-.56,1.75,1.75,1.75,0,0,1-1.34.62,1.4,1.4,0,0,1-1.22-.65Zm0-2.24a2.29,2.29,0,0,0,.21,1.15,1.07,1.07,0,0,0,1.8.15,1.93,1.93,0,0,0,.36-1.27,2,2,0,0,0-.34-1.27,1,1,0,0,0-.83-.41,1.08,1.08,0,0,0-.85.43A1.87,1.87,0,0,0,214.15,100.93Z"/><path d="M221.21,101.75l.77.09a1.88,1.88,0,0,1-.68,1,2.29,2.29,0,0,1-2.79-.22,2.33,2.33,0,0,1-.57-1.67,2.44,2.44,0,0,1,.57-1.73,1.94,1.94,0,0,1,1.49-.61,1.89,1.89,0,0,1,1.44.6A2.39,2.39,0,0,1,222,101s0,.11,0,.2h-3.29a1.69,1.69,0,0,0,.41,1.11,1.22,1.22,0,0,0,.92.39,1.15,1.15,0,0,0,.7-.22A1.43,1.43,0,0,0,221.21,101.75Zm-2.45-1.21h2.46a1.5,1.5,0,0,0-.28-.83,1.15,1.15,0,0,0-.93-.43,1.19,1.19,0,0,0-.87.34A1.36,1.36,0,0,0,218.76,100.54Z"/><path d="M114.27,108.14v-.86H115v.86Zm0,5.23V109H115v4.41Z"/><path d="M116.15,113.37V109h.67v.63a1.59,1.59,0,0,1,1.4-.73,1.85,1.85,0,0,1,.73.14,1.15,1.15,0,0,1,.5.38,1.43,1.43,0,0,1,.23.55,4.34,4.34,0,0,1,0,.73v2.71H119v-2.68a2,2,0,0,0-.09-.68.72.72,0,0,0-.31-.36,1,1,0,0,0-.52-.13,1.21,1.21,0,0,0-.82.3,1.49,1.49,0,0,0-.35,1.15v2.41Z"/><path d="M120.58,112.05l.74-.12a1,1,0,0,0,.35.68,1.21,1.21,0,0,0,.79.24,1.17,1.17,0,0,0,.76-.21.63.63,0,0,0,.25-.49.46.46,0,0,0-.22-.4,3.25,3.25,0,0,0-.76-.25,7,7,0,0,1-1.14-.36,1.09,1.09,0,0,1-.65-1,1.14,1.14,0,0,1,.14-.54,1.21,1.21,0,0,1,.37-.42,1.51,1.51,0,0,1,.48-.22,2.22,2.22,0,0,1,.64-.09,2.56,2.56,0,0,1,.91.15,1.24,1.24,0,0,1,.58.41,1.57,1.57,0,0,1,.26.68l-.73.1a.8.8,0,0,0-.29-.53,1.05,1.05,0,0,0-.67-.19,1.21,1.21,0,0,0-.73.17.5.5,0,0,0-.22.4.41.41,0,0,0,.09.26.66.66,0,0,0,.29.2l.66.19a9.24,9.24,0,0,1,1.11.35,1.12,1.12,0,0,1,.49.39,1.09,1.09,0,0,1,.18.64,1.25,1.25,0,0,1-.22.7,1.39,1.39,0,0,1-.63.51,2.27,2.27,0,0,1-.93.18,2.07,2.07,0,0,1-1.31-.36A1.65,1.65,0,0,1,120.58,112.05Z"/><path d="M126.76,112.7l.11.66a2.8,2.8,0,0,1-.56.07,1.29,1.29,0,0,1-.63-.13.73.73,0,0,1-.32-.34,2.66,2.66,0,0,1-.09-.88v-2.54h-.55V109h.55v-1.09l.74-.45V109h.75v.58H126v2.58a1.34,1.34,0,0,0,0,.41.32.32,0,0,0,.13.15.51.51,0,0,0,.26.05Z"/><path d="M130.36,112.82a2.73,2.73,0,0,1-.8.5,2.29,2.29,0,0,1-.82.15,1.6,1.6,0,0,1-1.12-.36,1.17,1.17,0,0,1-.39-.91,1.2,1.2,0,0,1,.15-.59,1.21,1.21,0,0,1,.38-.43,1.83,1.83,0,0,1,.54-.24,5.45,5.45,0,0,1,.66-.11,6.78,6.78,0,0,0,1.33-.26c0-.1,0-.17,0-.19a.83.83,0,0,0-.21-.64,1.26,1.26,0,0,0-.85-.25,1.33,1.33,0,0,0-.78.18,1.13,1.13,0,0,0-.37.65l-.73-.1a1.81,1.81,0,0,1,.33-.76,1.43,1.43,0,0,1,.66-.44,2.92,2.92,0,0,1,1-.16,2.66,2.66,0,0,1,.92.13,1.19,1.19,0,0,1,.52.33,1.17,1.17,0,0,1,.23.51,4.14,4.14,0,0,1,0,.69v1a10.49,10.49,0,0,0,0,1.32,1.65,1.65,0,0,0,.19.53h-.78A1.58,1.58,0,0,1,130.36,112.82Zm-.06-1.67a5.46,5.46,0,0,1-1.22.28,2.81,2.81,0,0,0-.65.15.65.65,0,0,0-.29.24.66.66,0,0,0,.12.85,1,1,0,0,0,.66.2,1.54,1.54,0,0,0,.77-.19,1.16,1.16,0,0,0,.49-.52,1.81,1.81,0,0,0,.12-.75Z"/><path d="M132.2,113.37v-6.08h.75v6.08Z"/><path d="M134.09,113.37v-6.08h.75v6.08Z"/><path d="M139,111.95l.77.1a1.88,1.88,0,0,1-.68,1,2.29,2.29,0,0,1-2.79-.22,2.33,2.33,0,0,1-.57-1.67,2.44,2.44,0,0,1,.57-1.73,1.94,1.94,0,0,1,1.49-.61,1.89,1.89,0,0,1,1.44.6,2.39,2.39,0,0,1,.56,1.69s0,.11,0,.2h-3.29a1.7,1.7,0,0,0,.41,1.11,1.23,1.23,0,0,0,.92.38,1.14,1.14,0,0,0,.7-.21A1.44,1.44,0,0,0,139,111.95Zm-2.45-1.21H139a1.49,1.49,0,0,0-.28-.83,1.14,1.14,0,0,0-.93-.43,1.18,1.18,0,0,0-.87.34A1.36,1.36,0,0,0,136.56,110.74Z"/><path d="M143.58,113.37v-.56a1.37,1.37,0,0,1-1.23.66,1.73,1.73,0,0,1-1-.29,1.91,1.91,0,0,1-.68-.81,2.81,2.81,0,0,1-.24-1.2,3.14,3.14,0,0,1,.22-1.2,1.72,1.72,0,0,1,.66-.82,1.76,1.76,0,0,1,1-.29,1.47,1.47,0,0,1,1.22.61v-2.18h.74v6.08Zm-2.36-2.2a1.92,1.92,0,0,0,.36,1.27,1.08,1.08,0,0,0,.84.42,1.05,1.05,0,0,0,.83-.4,1.84,1.84,0,0,0,.34-1.22,2.08,2.08,0,0,0-.35-1.33,1.07,1.07,0,0,0-.86-.42,1,1,0,0,0-.83.41A2,2,0,0,0,141.22,111.17Z"/><path d="M147.81,108.14v-.86h.75v.86Zm0,5.23V109h.75v4.41Z"/><path d="M149.7,113.37V109h.67v.63a1.58,1.58,0,0,1,1.4-.73,1.85,1.85,0,0,1,.73.14,1.14,1.14,0,0,1,.5.38,1.42,1.42,0,0,1,.23.55,4.2,4.2,0,0,1,0,.73v2.71h-.75v-2.68a2,2,0,0,0-.09-.68.71.71,0,0,0-.31-.36,1,1,0,0,0-.52-.13,1.21,1.21,0,0,0-.82.3,1.49,1.49,0,0,0-.35,1.15v2.41Z"/><path d="M158.42,112.7l.11.66a2.79,2.79,0,0,1-.56.07,1.29,1.29,0,0,1-.63-.13A.72.72,0,0,1,157,113a2.68,2.68,0,0,1-.09-.88v-2.54h-.55V109h.55v-1.09l.74-.45V109h.75v.58h-.75v2.58a1.28,1.28,0,0,0,0,.41.3.3,0,0,0,.13.15.5.5,0,0,0,.25.05Z"/><path d="M159.15,113.37v-6.08h.75v2.18a1.67,1.67,0,0,1,1.32-.61,1.77,1.77,0,0,1,.85.19,1.13,1.13,0,0,1,.52.53,2.47,2.47,0,0,1,.16,1v2.79H162v-2.79a1.16,1.16,0,0,0-.24-.82.91.91,0,0,0-.69-.26,1.22,1.22,0,0,0-.62.17,1,1,0,0,0-.42.47,2.14,2.14,0,0,0-.12.81v2.41Z"/><path d="M166.89,111.95l.77.1a1.88,1.88,0,0,1-.68,1,2.29,2.29,0,0,1-2.79-.22,2.33,2.33,0,0,1-.57-1.67,2.44,2.44,0,0,1,.57-1.73,1.94,1.94,0,0,1,1.49-.61,1.89,1.89,0,0,1,1.45.6,2.39,2.39,0,0,1,.56,1.69s0,.11,0,.2H164.4a1.7,1.7,0,0,0,.41,1.11,1.23,1.23,0,0,0,.92.38,1.15,1.15,0,0,0,.7-.21A1.44,1.44,0,0,0,166.89,111.95Zm-2.45-1.21h2.46a1.49,1.49,0,0,0-.28-.83,1.14,1.14,0,0,0-.93-.43,1.19,1.19,0,0,0-.87.34A1.36,1.36,0,0,0,164.44,110.74Z"/><path d="M170.69,111.16a2.27,2.27,0,0,1,.68-1.81,2,2,0,0,1,1.39-.49,2,2,0,0,1,1.49.6,2.26,2.26,0,0,1,.58,1.65,2.92,2.92,0,0,1-.25,1.34,1.82,1.82,0,0,1-.74.76,2.16,2.16,0,0,1-1.06.27,2,2,0,0,1-1.5-.59A2.37,2.37,0,0,1,170.69,111.16Zm.77,0a1.88,1.88,0,0,0,.37,1.27,1.23,1.23,0,0,0,1.86,0,1.92,1.92,0,0,0,.37-1.29,1.83,1.83,0,0,0-.37-1.24,1.23,1.23,0,0,0-1.85,0A1.87,1.87,0,0,0,171.45,111.16Z"/><path d="M175.69,115.06V109h.68v.57a1.69,1.69,0,0,1,.54-.5,1.51,1.51,0,0,1,.74-.17,1.74,1.74,0,0,1,1,.29,1.78,1.78,0,0,1,.65.82,3,3,0,0,1,.22,1.16,3,3,0,0,1-.24,1.22,1.85,1.85,0,0,1-1.68,1.12,1.4,1.4,0,0,1-.67-.16,1.53,1.53,0,0,1-.49-.4v2.15Zm.68-3.87a1.92,1.92,0,0,0,.34,1.26,1.06,1.06,0,0,0,.83.41,1.08,1.08,0,0,0,.85-.42,2,2,0,0,0,.35-1.31,2,2,0,0,0-.35-1.26,1,1,0,0,0-.83-.42,1.07,1.07,0,0,0-.84.45A2,2,0,0,0,176.37,111.19Z"/><path d="M183.44,111.95l.77.1a1.88,1.88,0,0,1-.68,1,2.29,2.29,0,0,1-2.79-.22,2.33,2.33,0,0,1-.57-1.67,2.44,2.44,0,0,1,.57-1.73,1.94,1.94,0,0,1,1.49-.61,1.89,1.89,0,0,1,1.44.6,2.39,2.39,0,0,1,.56,1.69s0,.11,0,.2h-3.29a1.7,1.7,0,0,0,.41,1.11,1.23,1.23,0,0,0,.92.38,1.14,1.14,0,0,0,.7-.21A1.44,1.44,0,0,0,183.44,111.95ZM181,110.74h2.46a1.49,1.49,0,0,0-.28-.83,1.14,1.14,0,0,0-.93-.43,1.18,1.18,0,0,0-.87.34A1.36,1.36,0,0,0,181,110.74Z"/><path d="M185.15,113.37V109h.67v.63a1.59,1.59,0,0,1,1.4-.73,1.85,1.85,0,0,1,.73.14,1.15,1.15,0,0,1,.5.38,1.43,1.43,0,0,1,.23.55,4.34,4.34,0,0,1,0,.73v2.71H188v-2.68a2,2,0,0,0-.09-.68.72.72,0,0,0-.31-.36,1,1,0,0,0-.52-.13,1.21,1.21,0,0,0-.82.3,1.49,1.49,0,0,0-.35,1.15v2.41Z"/><path d="M189.88,108.14v-.86h.75v.86Zm0,5.23V109h.75v4.41Z"/><path d="M191.76,113.37V109h.67v.63a1.59,1.59,0,0,1,1.4-.73,1.85,1.85,0,0,1,.73.14,1.15,1.15,0,0,1,.5.38,1.43,1.43,0,0,1,.23.55,4.34,4.34,0,0,1,0,.73v2.71h-.75v-2.68a2,2,0,0,0-.09-.68.72.72,0,0,0-.31-.36,1,1,0,0,0-.52-.13,1.21,1.21,0,0,0-.82.3,1.49,1.49,0,0,0-.35,1.15v2.41Z"/><path d="M196.35,113.73l.73.11a.7.7,0,0,0,.25.49,1.25,1.25,0,0,0,.76.21,1.34,1.34,0,0,0,.8-.21,1,1,0,0,0,.38-.58,4.81,4.81,0,0,0,.05-1,1.54,1.54,0,0,1-1.22.58,1.66,1.66,0,0,1-1.41-.66,2.52,2.52,0,0,1-.5-1.57,2.92,2.92,0,0,1,.23-1.17,1.83,1.83,0,0,1,.66-.82,1.78,1.78,0,0,1,1-.29,1.58,1.58,0,0,1,1.29.63V109h.69v3.81a3.62,3.62,0,0,1-.21,1.46,1.54,1.54,0,0,1-.66.68,2.3,2.3,0,0,1-1.12.25,2.11,2.11,0,0,1-1.27-.36A1.2,1.2,0,0,1,196.35,113.73Zm.62-2.65a1.91,1.91,0,0,0,.34,1.27,1.14,1.14,0,0,0,1.73,0,1.85,1.85,0,0,0,.35-1.24,1.81,1.81,0,0,0-.36-1.22,1.11,1.11,0,0,0-.87-.41,1.08,1.08,0,0,0-.85.4A1.8,1.8,0,0,0,197,111.08Z"/><path d="M203.58,115.06V109h.68v.57a1.69,1.69,0,0,1,.54-.5,1.51,1.51,0,0,1,.74-.17,1.74,1.74,0,0,1,1,.29,1.78,1.78,0,0,1,.65.82,3,3,0,0,1,.22,1.16,3,3,0,0,1-.24,1.22,1.85,1.85,0,0,1-1.68,1.12,1.4,1.4,0,0,1-.67-.16,1.53,1.53,0,0,1-.49-.4v2.15Zm.68-3.87a1.92,1.92,0,0,0,.34,1.26,1.06,1.06,0,0,0,.83.41,1.08,1.08,0,0,0,.85-.42,2,2,0,0,0,.35-1.31,2,2,0,0,0-.35-1.26,1,1,0,0,0-.83-.42,1.07,1.07,0,0,0-.84.45A2,2,0,0,0,204.25,111.19Z"/><path d="M208.3,113.37V109H209v.67a1.84,1.84,0,0,1,.47-.62.83.83,0,0,1,.48-.15,1.46,1.46,0,0,1,.77.24l-.26.69a1.07,1.07,0,0,0-.55-.16.71.71,0,0,0-.44.15.8.8,0,0,0-.28.41,2.91,2.91,0,0,0-.12.87v2.31Z"/><path d="M210.86,111.16a2.27,2.27,0,0,1,.68-1.81,2,2,0,0,1,1.39-.49,2,2,0,0,1,1.49.6,2.26,2.26,0,0,1,.58,1.65,2.92,2.92,0,0,1-.26,1.34,1.82,1.82,0,0,1-.74.76,2.17,2.17,0,0,1-1.06.27,2,2,0,0,1-1.5-.59A2.37,2.37,0,0,1,210.86,111.16Zm.77,0a1.88,1.88,0,0,0,.37,1.27,1.23,1.23,0,0,0,1.85,0,1.92,1.92,0,0,0,.37-1.29,1.83,1.83,0,0,0-.37-1.24,1.23,1.23,0,0,0-1.85,0A1.87,1.87,0,0,0,211.62,111.16Z"/><path d="M217.09,113.37,215.41,109h.79l.95,2.64q.15.43.28.89.1-.35.28-.84l1-2.69h.77l-1.67,4.41Z"/><path d="M220.12,108.14v-.86h.75v.86Zm0,5.23V109h.75v4.41Z"/><path d="M224.86,113.37v-.56a1.37,1.37,0,0,1-1.23.66,1.73,1.73,0,0,1-1-.29,1.91,1.91,0,0,1-.68-.81,2.81,2.81,0,0,1-.24-1.2A3.14,3.14,0,0,1,222,110a1.72,1.72,0,0,1,.66-.82,1.76,1.76,0,0,1,1-.29,1.47,1.47,0,0,1,1.22.61v-2.18h.74v6.08Zm-2.36-2.2a1.92,1.92,0,0,0,.36,1.27,1.08,1.08,0,0,0,.84.42,1.05,1.05,0,0,0,.83-.4,1.84,1.84,0,0,0,.34-1.22,2.08,2.08,0,0,0-.35-1.33,1.07,1.07,0,0,0-.86-.42,1,1,0,0,0-.83.41A2,2,0,0,0,222.5,111.17Z"/><path d="M229.75,111.95l.77.1a1.88,1.88,0,0,1-.68,1,2.29,2.29,0,0,1-2.79-.22,2.33,2.33,0,0,1-.57-1.67,2.44,2.44,0,0,1,.57-1.73,1.94,1.94,0,0,1,1.49-.61,1.89,1.89,0,0,1,1.45.6,2.39,2.39,0,0,1,.56,1.69s0,.11,0,.2h-3.29a1.7,1.7,0,0,0,.41,1.11,1.23,1.23,0,0,0,.92.38,1.15,1.15,0,0,0,.7-.21A1.44,1.44,0,0,0,229.75,111.95Zm-2.45-1.21h2.46a1.49,1.49,0,0,0-.28-.83,1.14,1.14,0,0,0-.93-.43,1.19,1.19,0,0,0-.87.34A1.36,1.36,0,0,0,227.29,110.74Z"/><path d="M234.32,113.37v-.56a1.37,1.37,0,0,1-1.23.66,1.73,1.73,0,0,1-1-.29,1.91,1.91,0,0,1-.69-.81,2.8,2.8,0,0,1-.24-1.2,3.12,3.12,0,0,1,.22-1.2,1.73,1.73,0,0,1,.66-.82,1.76,1.76,0,0,1,1-.29,1.47,1.47,0,0,1,1.22.61v-2.18H235v6.08Zm-2.36-2.2a1.92,1.92,0,0,0,.36,1.27,1.08,1.08,0,0,0,.84.42,1.06,1.06,0,0,0,.83-.4,1.84,1.84,0,0,0,.34-1.22,2.08,2.08,0,0,0-.35-1.33,1.07,1.07,0,0,0-.86-.42,1,1,0,0,0-.83.41A2,2,0,0,0,232,111.17Z"/><path d="M236.4,113.37v-.85h.85v.85Z"/><circle cx="107.09" cy="89.36" r="1.76"/></g></svg>