<svg id="text" xmlns="http://www.w3.org/2000/svg" xmlns:xlink="http://www.w3.org/1999/xlink" viewBox="0 0 315.22 112.52"><defs><clipPath id="clip-path" transform="translate(-0.52 -0.52)"><rect width="315.91" height="114.21" style="fill:none"/></clipPath></defs><title>warning_elctrcl_shck_hzrd_frm_flood_dmge_</title><rect x="0.5" y="0.5" width="314.22" height="111.52" style="fill:none;stroke:#000;stroke-miterlimit:10"/><g style="clip-path:url(#clip-path)"><polyline points="0.81 21.63 314.72 21.63 314.72 0.36 0.81 0.36"/><path d="M221.72,13.8V11.29h7.68v5.94a10.2,10.2,0,0,1-3.24,1.61,13.82,13.82,0,0,1-4.3.69,11.13,11.13,0,0,1-4.83-1,6.8,6.8,0,0,1-3.09-2.81,7.9,7.9,0,0,1-1-4,7.54,7.54,0,0,1,1.15-4.14,7.34,7.34,0,0,1,3.38-2.77,10.51,10.51,0,0,1,4.22-.74,9.61,9.61,0,0,1,5.13,1.16,5.24,5.24,0,0,1,2.38,3.22l-3.54.56a3.22,3.22,0,0,0-1.4-1.73,4.8,4.8,0,0,0-2.57-.64,5.32,5.32,0,0,0-3.71,1.25,4.76,4.76,0,0,0-1.38,3.71,5.24,5.24,0,0,0,1.4,4A5.08,5.08,0,0,0,221.62,17a7.16,7.16,0,0,0,2.25-.37,8.3,8.3,0,0,0,1.93-.9V13.8m-30,5.48V4.38h3.47l7.22,10v-10h3.31v14.9h-3.58l-7.11-9.72v9.72Zm-7,0V4.38h3.56v14.9Zm-17.65,0V4.38h3.47l7.22,10v-10h3.31v14.9h-3.58l-7.11-9.72v9.72Zm-14.26-8.6h2.63a16.21,16.21,0,0,0,3.2-.18,1.94,1.94,0,0,0,1-.63A1.74,1.74,0,0,0,164,8.75a1.62,1.62,0,0,0-.48-1.21A2.34,2.34,0,0,0,162.23,7q-.43,0-2.6,0h-2.78Zm-3.57,8.6V4.38h7.5a15.09,15.09,0,0,1,4.11.4,4,4,0,0,1,2.05,1.43,3.81,3.81,0,0,1,.77,2.35,3.65,3.65,0,0,1-1.17,2.77,6.08,6.08,0,0,1-3.49,1.37A8.28,8.28,0,0,1,165,14a17.52,17.52,0,0,1,2,2.42l2.16,2.91h-4.26L162.31,16a21.67,21.67,0,0,0-1.88-2.19,2.85,2.85,0,0,0-1.07-.62,6.94,6.94,0,0,0-1.8-.17h-.72v6.22Zm-8.46-5.9L142.4,7.86,140,13.39Zm6.56,5.9h-3.88L146,15.9h-7.05l-1.45,3.39h-3.78l6.87-14.9h3.77Zm-35.3,0-4.21-14.9h3.64l2.66,10.24L121.4,4.38h4.23l3.09,10.41,2.71-10.41H135l-4.28,14.9H127L123.45,8.14l-3.5,11.14ZM98.7,13c0,.29-.34.5-.6.5H98a.54.54,0,0,1-.6-.5c-2-5.25-2.89-8.92.6-8.92S100.57,7.76,98.7,13ZM98,18.7a1.76,1.76,0,0,1-1.87-1.58A1.76,1.76,0,0,1,98,15.53h.09a1.68,1.68,0,0,1,1.79,1.58A1.71,1.71,0,0,1,98,18.7Zm1.45-16A1.53,1.53,0,0,0,98,1.86a1.38,1.38,0,0,0-1.36.86l-9.71,14.1c-1.28,1.8-.17,2.52,1.11,2.59H108c1.36-.07,2.38-.79,1.11-2.59Z" transform="translate(-0.52 -0.52)" style="fill:#fff"/></g><path d="M3.25,35.46S15.42,45.22,18.79,48.6c.95,1.06,2.9,3.49.06,6.4a62.65,62.65,0,0,0-4.5,4.62c-2.19,2-3.91,6.83.14,10.28A20.72,20.72,0,0,0,22,73.43c.19,0,.16-.23.27-.47l.27-.74h0c.74.16.8.29,1.13.84l1.07,2.73c.15.45,1,.31.85-.13l-1.11-3.06c1,.33,2.35.78,3.48,1.11.43.12.66-.7.19-.86l-3.32-1.12L28,71.09c.32-.08.28-.89-.37-.78,0,0-3.34.75-3.71.79A2.5,2.5,0,0,1,22.86,71l.4-1.44c.14-.53.25-.52,0-.64a32.37,32.37,0,0,1-4.07-1.43c-4.36-2-1.91-5-.54-6.11a26.38,26.38,0,0,0,5-5c3.45-5.87-.37-10-2.79-12.15S6,31.65,6,31.65Z" transform="translate(-0.52 -0.52)"/><path d="M61,47.33c0-3-4.24-3-4.27-.28l-1,18.29a.79.79,0,0,1-1.57,0l0-23.82a2.22,2.22,0,1,0-4.42-.16l-.3,22.76a.81.81,0,1,1-1.61,0l-.71-26.43c0-3.88-4.95-3.67-4.95.06l.67,26.92c0,1.26-1.65,1.29-1.61-.08l-.45-22.88a2.52,2.52,0,1,0-5,.2l.67,26.49c-.08,1.22-1.54,1.14-1.54,0l-.19-9.22c-.15-5.69-3.22-6-4.35-6.63s-1.24.55-1.2,1.33c0,2.24.41,5.65.11,8a17.16,17.16,0,0,0,.15,2.55A72.93,72.93,0,0,1,29.86,74L46.2,67.94c.71-.24,1,.24.68.67l-4.57,7.1c-.15.2-.23.47.34.31l14-5.3c.45-.16,1.09.23.45.9l-7,6.87c-.45.39-.34.63.3.55l10.72-2.51Z" transform="translate(-0.52 -0.52)"/><path d="M61.24,79.95c.07-.51-.34-.35-.6-.28L42.31,83.83c-.56,0-.56-.39-.23-.71L47,78.26c.52-.47-.08-.55-.34-.43L35.67,81.91c-.67.24-.6-.35-.45-.59l4.61-7.06c.45-.63-.19-.63-.41-.51l-9.48,3.53c0,3.14-.64,4.83,2.25,10.13.56,1.06,4,5.53,4,8.95a9.32,9.32,0,0,1-.53,3.14H56.33c-.11-2.43-.23-4.24-.23-4.24-.07-1.45-.34-2.08,1.09-4.4A32.4,32.4,0,0,0,61.24,79.95Z" transform="translate(-0.52 -0.52)"/><line x1="67.98" y1="20.02" x2="67.98" y2="111.69" style="fill:none;stroke:#000"/><line x1="68.39" y1="42.61" x2="314.06" y2="42.61" style="fill:none;stroke:#000"/><path d="M92.76,60.8V54.35h.85V60.8Z" transform="translate(-0.52 -0.52)"/><path d="M95.2,60.8V56.74h-.7v-.62h.7v-.5a2.17,2.17,0,0,1,.08-.7,1,1,0,0,1,.4-.5,1.45,1.45,0,0,1,.81-.19,3.87,3.87,0,0,1,.74.08l-.12.69a2.65,2.65,0,0,0-.47,0,.69.69,0,0,0-.51.15.83.83,0,0,0-.15.58v.43h.91v.62H96V60.8Z" transform="translate(-0.52 -0.52)"/><path d="M101.74,60.09l.11.7a2.93,2.93,0,0,1-.6.07,1.35,1.35,0,0,1-.67-.14.76.76,0,0,1-.33-.36,2.83,2.83,0,0,1-.1-.93V56.74h-.58v-.62h.58V55l.79-.47v1.63h.8v.62h-.8v2.73a1.38,1.38,0,0,0,0,.44.33.33,0,0,0,.14.15.52.52,0,0,0,.27.06Z" transform="translate(-0.52 -0.52)"/><path d="M102.51,60.8V54.35h.79v2.31a1.77,1.77,0,0,1,1.4-.64,1.89,1.89,0,0,1,.9.2,1.2,1.2,0,0,1,.55.56,2.59,2.59,0,0,1,.17,1v3h-.79v-3a1.23,1.23,0,0,0-.26-.86,1,1,0,0,0-.73-.27,1.28,1.28,0,0,0-.66.18,1,1,0,0,0-.44.49,2.27,2.27,0,0,0-.13.86V60.8Z" transform="translate(-0.52 -0.52)"/><path d="M110.71,59.29l.82.1a2,2,0,0,1-.72,1.11,2.15,2.15,0,0,1-1.34.4,2.13,2.13,0,0,1-1.62-.63,2.46,2.46,0,0,1-.6-1.77,2.58,2.58,0,0,1,.61-1.83,2.05,2.05,0,0,1,1.57-.65,2,2,0,0,1,1.53.64,2.53,2.53,0,0,1,.59,1.79s0,.12,0,.21h-3.48a1.79,1.79,0,0,0,.44,1.18,1.29,1.29,0,0,0,1,.41,1.21,1.21,0,0,0,.74-.23A1.52,1.52,0,0,0,110.71,59.29ZM108.11,58h2.61a1.58,1.58,0,0,0-.3-.88,1.21,1.21,0,0,0-1-.46,1.26,1.26,0,0,0-.92.36A1.44,1.44,0,0,0,108.11,58Z" transform="translate(-0.52 -0.52)"/><path d="M115.88,60.8l-1.43-4.67h.82l.74,2.69.28,1,.24-1,.74-2.73h.81l.7,2.71.23.89.27-.9.8-2.7h.77L119.4,60.8h-.82L117.84,58l-.18-.8-.94,3.59Z" transform="translate(-0.52 -0.52)"/><path d="M124.57,60.22a3,3,0,0,1-.85.53,2.45,2.45,0,0,1-.87.15,1.69,1.69,0,0,1-1.18-.38,1.24,1.24,0,0,1-.41-1,1.3,1.3,0,0,1,.56-1.08,1.92,1.92,0,0,1,.57-.26,5.65,5.65,0,0,1,.7-.12,7.22,7.22,0,0,0,1.41-.27c0-.11,0-.18,0-.21a.88.88,0,0,0-.22-.68,1.33,1.33,0,0,0-.9-.27,1.4,1.4,0,0,0-.82.2,1.19,1.19,0,0,0-.39.69l-.77-.11a1.92,1.92,0,0,1,.35-.8,1.52,1.52,0,0,1,.7-.47A3.1,3.1,0,0,1,123.5,56a2.8,2.8,0,0,1,1,.14,1.29,1.29,0,0,1,.55.35,1.25,1.25,0,0,1,.25.54,4.44,4.44,0,0,1,0,.73v1.05a11.35,11.35,0,0,0,0,1.4,1.77,1.77,0,0,0,.2.56h-.83A1.68,1.68,0,0,1,124.57,60.22Zm-.07-1.77a5.8,5.8,0,0,1-1.29.3,3,3,0,0,0-.69.16.69.69,0,0,0-.31.26.7.7,0,0,0,.13.9,1,1,0,0,0,.7.21,1.64,1.64,0,0,0,.81-.2,1.23,1.23,0,0,0,.52-.55,1.91,1.91,0,0,0,.13-.79Z" transform="translate(-0.52 -0.52)"/><path d="M128.25,60.09l.11.7a2.93,2.93,0,0,1-.6.07,1.35,1.35,0,0,1-.67-.14.76.76,0,0,1-.33-.36,2.83,2.83,0,0,1-.1-.93V56.74h-.58v-.62h.58V55l.79-.47v1.63h.79v.62h-.79v2.73a1.4,1.4,0,0,0,0,.44.33.33,0,0,0,.14.15.52.52,0,0,0,.27.06Z" transform="translate(-0.52 -0.52)"/><path d="M132.22,59.29l.82.1a2,2,0,0,1-.72,1.11,2.15,2.15,0,0,1-1.34.4,2.13,2.13,0,0,1-1.62-.63,2.46,2.46,0,0,1-.6-1.77,2.58,2.58,0,0,1,.61-1.83,2.05,2.05,0,0,1,1.57-.65,2,2,0,0,1,1.53.64,2.54,2.54,0,0,1,.59,1.79s0,.12,0,.21h-3.48a1.79,1.79,0,0,0,.44,1.18,1.29,1.29,0,0,0,1,.41,1.21,1.21,0,0,0,.74-.23A1.52,1.52,0,0,0,132.22,59.29ZM129.63,58h2.61a1.58,1.58,0,0,0-.3-.88,1.21,1.21,0,0,0-1-.46A1.26,1.26,0,0,0,130,57,1.44,1.44,0,0,0,129.63,58Z" transform="translate(-0.52 -0.52)"/><path d="M134,60.8V56.13h.71v.71a1.91,1.91,0,0,1,.5-.65.88.88,0,0,1,.51-.16,1.54,1.54,0,0,1,.81.25l-.27.73a1.13,1.13,0,0,0-.58-.17.75.75,0,0,0-.47.16.84.84,0,0,0-.29.43,3.08,3.08,0,0,0-.13.92V60.8Z" transform="translate(-0.52 -0.52)"/><path d="M139.53,60.8V54.35h.79v2.31a1.77,1.77,0,0,1,1.4-.64,1.89,1.89,0,0,1,.9.2,1.2,1.2,0,0,1,.55.56,2.59,2.59,0,0,1,.17,1v3h-.79v-3a1.23,1.23,0,0,0-.26-.86,1,1,0,0,0-.73-.27,1.28,1.28,0,0,0-.66.18,1,1,0,0,0-.44.49,2.27,2.27,0,0,0-.13.86V60.8Z" transform="translate(-0.52 -0.52)"/><path d="M147.73,59.29l.82.1a2,2,0,0,1-.72,1.11,2.15,2.15,0,0,1-1.34.4,2.13,2.13,0,0,1-1.62-.63,2.46,2.46,0,0,1-.6-1.77,2.58,2.58,0,0,1,.61-1.83,2.05,2.05,0,0,1,1.57-.65,2,2,0,0,1,1.53.64,2.54,2.54,0,0,1,.59,1.79s0,.12,0,.21h-3.48a1.79,1.79,0,0,0,.44,1.18,1.29,1.29,0,0,0,1,.41,1.21,1.21,0,0,0,.74-.23A1.52,1.52,0,0,0,147.73,59.29ZM145.14,58h2.61a1.58,1.58,0,0,0-.3-.88,1.21,1.21,0,0,0-1-.46,1.26,1.26,0,0,0-.92.36A1.44,1.44,0,0,0,145.14,58Z" transform="translate(-0.52 -0.52)"/><path d="M152.59,60.22a3,3,0,0,1-.85.53,2.45,2.45,0,0,1-.87.15,1.69,1.69,0,0,1-1.18-.38,1.24,1.24,0,0,1-.41-1,1.27,1.27,0,0,1,.16-.63,1.29,1.29,0,0,1,.41-.46,1.93,1.93,0,0,1,.57-.26,5.65,5.65,0,0,1,.7-.12,7.22,7.22,0,0,0,1.41-.27c0-.11,0-.18,0-.21a.88.88,0,0,0-.22-.68,1.33,1.33,0,0,0-.9-.27,1.4,1.4,0,0,0-.82.2,1.2,1.2,0,0,0-.39.69l-.77-.11a1.92,1.92,0,0,1,.35-.8,1.52,1.52,0,0,1,.7-.47,3.1,3.1,0,0,1,1.06-.17,2.8,2.8,0,0,1,1,.14,1.29,1.29,0,0,1,.55.35,1.25,1.25,0,0,1,.25.54,4.44,4.44,0,0,1,0,.73v1.05a11.35,11.35,0,0,0,0,1.4,1.77,1.77,0,0,0,.2.56h-.83A1.68,1.68,0,0,1,152.59,60.22Zm-.07-1.77a5.81,5.81,0,0,1-1.29.3,3,3,0,0,0-.69.16.68.68,0,0,0-.31.26.67.67,0,0,0-.11.38.67.67,0,0,0,.24.53,1,1,0,0,0,.7.21,1.63,1.63,0,0,0,.81-.2,1.23,1.23,0,0,0,.52-.55,1.91,1.91,0,0,0,.13-.79Z" transform="translate(-0.52 -0.52)"/><path d="M156.27,60.09l.11.7a2.93,2.93,0,0,1-.6.07,1.35,1.35,0,0,1-.67-.14.76.76,0,0,1-.33-.36,2.83,2.83,0,0,1-.1-.93V56.74h-.58v-.62h.58V55l.79-.47v1.63h.79v.62h-.79v2.73a1.4,1.4,0,0,0,0,.44.33.33,0,0,0,.14.15.52.52,0,0,0,.27.06Z" transform="translate(-0.52 -0.52)"/><path d="M160.24,59.29l.82.1a2,2,0,0,1-.72,1.11,2.15,2.15,0,0,1-1.34.4,2.13,2.13,0,0,1-1.62-.63,2.46,2.46,0,0,1-.6-1.77,2.58,2.58,0,0,1,.61-1.83A2.05,2.05,0,0,1,159,56a2,2,0,0,1,1.53.64,2.54,2.54,0,0,1,.59,1.79s0,.12,0,.21H157.6a1.79,1.79,0,0,0,.44,1.18,1.29,1.29,0,0,0,1,.41,1.21,1.21,0,0,0,.74-.23A1.52,1.52,0,0,0,160.24,59.29ZM157.65,58h2.61a1.58,1.58,0,0,0-.3-.88,1.21,1.21,0,0,0-1-.46,1.26,1.26,0,0,0-.92.36A1.44,1.44,0,0,0,157.65,58Z" transform="translate(-0.52 -0.52)"/><path d="M162,60.8V56.13h.71v.71a1.91,1.91,0,0,1,.5-.65.88.88,0,0,1,.51-.16,1.54,1.54,0,0,1,.81.25l-.27.73a1.13,1.13,0,0,0-.58-.17.75.75,0,0,0-.47.16.84.84,0,0,0-.29.43,3.08,3.08,0,0,0-.13.92V60.8Z" transform="translate(-0.52 -0.52)"/><path d="M168.28,60.8h-.73V54.35h.79v2.3a1.57,1.57,0,0,1,1.28-.63,2,2,0,0,1,.82.17,1.66,1.66,0,0,1,.63.49,2.38,2.38,0,0,1,.39.76,3.16,3.16,0,0,1,.14.95,2.67,2.67,0,0,1-.59,1.85,1.86,1.86,0,0,1-1.42.65,1.49,1.49,0,0,1-1.3-.69Zm0-2.37a2.41,2.41,0,0,0,.23,1.21,1.13,1.13,0,0,0,1.91.16,2,2,0,0,0,.38-1.34,2.08,2.08,0,0,0-.36-1.35,1.1,1.1,0,0,0-.88-.44,1.14,1.14,0,0,0-.9.45A2,2,0,0,0,168.27,58.43Z" transform="translate(-0.52 -0.52)"/><path d="M175.75,59.29l.82.1a2,2,0,0,1-.72,1.11,2.15,2.15,0,0,1-1.34.4,2.13,2.13,0,0,1-1.62-.63,2.46,2.46,0,0,1-.6-1.77,2.58,2.58,0,0,1,.61-1.83,2.05,2.05,0,0,1,1.57-.65,2,2,0,0,1,1.53.64,2.54,2.54,0,0,1,.59,1.79s0,.12,0,.21h-3.48a1.79,1.79,0,0,0,.44,1.18,1.29,1.29,0,0,0,1,.41,1.21,1.21,0,0,0,.74-.23A1.52,1.52,0,0,0,175.75,59.29ZM173.16,58h2.61a1.58,1.58,0,0,0-.3-.88,1.21,1.21,0,0,0-1-.46,1.26,1.26,0,0,0-.92.36A1.44,1.44,0,0,0,173.16,58Z" transform="translate(-0.52 -0.52)"/><path d="M180.61,59.09l.78.1a2,2,0,0,1-.65,1.26,1.9,1.9,0,0,1-1.29.46,2,2,0,0,1-1.54-.63,2.54,2.54,0,0,1-.58-1.8,3.26,3.26,0,0,1,.25-1.32,1.76,1.76,0,0,1,.76-.85,2.27,2.27,0,0,1,1.11-.28,1.94,1.94,0,0,1,1.24.38,1.77,1.77,0,0,1,.62,1.09l-.77.12a1.27,1.27,0,0,0-.39-.71,1,1,0,0,0-.67-.24,1.23,1.23,0,0,0-1,.43,2,2,0,0,0-.37,1.36,2.1,2.1,0,0,0,.36,1.37,1.17,1.17,0,0,0,.94.43,1.11,1.11,0,0,0,.78-.29A1.42,1.42,0,0,0,180.61,59.09Z" transform="translate(-0.52 -0.52)"/><path d="M181.77,58.46a2.41,2.41,0,0,1,.72-1.92A2.17,2.17,0,0,1,184,56a2.09,2.09,0,0,1,1.57.63,2.4,2.4,0,0,1,.61,1.74,3.09,3.09,0,0,1-.27,1.42,1.91,1.91,0,0,1-.79.8,2.29,2.29,0,0,1-1.13.29,2.1,2.1,0,0,1-1.58-.63A2.51,2.51,0,0,1,181.77,58.46Zm.81,0a2,2,0,0,0,.39,1.34,1.3,1.3,0,0,0,2,0,2,2,0,0,0,.39-1.37,1.93,1.93,0,0,0-.39-1.31,1.3,1.3,0,0,0-2,0A2,2,0,0,0,182.58,58.46Z" transform="translate(-0.52 -0.52)"/><path d="M187.07,60.8V56.13h.71v.65a1.66,1.66,0,0,1,.58-.55,1.64,1.64,0,0,1,.83-.21,1.54,1.54,0,0,1,.85.22,1.15,1.15,0,0,1,.47.6,1.68,1.68,0,0,1,1.44-.82,1.42,1.42,0,0,1,1.07.38,1.64,1.64,0,0,1,.37,1.18v3.2h-.79V57.86a2.18,2.18,0,0,0-.08-.68.67.67,0,0,0-.28-.34.87.87,0,0,0-.47-.13A1.11,1.11,0,0,0,191,57a1.44,1.44,0,0,0-.33,1V60.8h-.79v-3a1.33,1.33,0,0,0-.19-.79.73.73,0,0,0-.63-.26,1.15,1.15,0,0,0-.62.18,1,1,0,0,0-.41.51,2.9,2.9,0,0,0-.13,1V60.8Z" transform="translate(-0.52 -0.52)"/><path d="M197.76,59.29l.82.1a2,2,0,0,1-.72,1.11,2.15,2.15,0,0,1-1.34.4,2.13,2.13,0,0,1-1.62-.63,2.46,2.46,0,0,1-.6-1.77,2.58,2.58,0,0,1,.61-1.83,2.05,2.05,0,0,1,1.57-.65,2,2,0,0,1,1.53.64,2.54,2.54,0,0,1,.59,1.79s0,.12,0,.21h-3.48a1.79,1.79,0,0,0,.44,1.18,1.29,1.29,0,0,0,1,.41,1.21,1.21,0,0,0,.74-.23A1.52,1.52,0,0,0,197.76,59.29ZM195.16,58h2.61a1.58,1.58,0,0,0-.3-.88,1.21,1.21,0,0,0-1-.46,1.26,1.26,0,0,0-.92.36A1.44,1.44,0,0,0,195.16,58Z" transform="translate(-0.52 -0.52)"/><path d="M199.25,59.4l.78-.12a1.1,1.1,0,0,0,.37.72,1.28,1.28,0,0,0,.84.25,1.24,1.24,0,0,0,.81-.22.66.66,0,0,0,.26-.52.48.48,0,0,0-.23-.42,3.47,3.47,0,0,0-.81-.27,7.42,7.42,0,0,1-1.21-.38,1.15,1.15,0,0,1-.68-1.07,1.2,1.2,0,0,1,.14-.58,1.28,1.28,0,0,1,.39-.44,1.63,1.63,0,0,1,.5-.23,2.4,2.4,0,0,1,.68-.09,2.7,2.7,0,0,1,1,.16,1.32,1.32,0,0,1,.61.43,1.68,1.68,0,0,1,.27.72l-.77.11a.85.85,0,0,0-.3-.56,1.12,1.12,0,0,0-.71-.2,1.29,1.29,0,0,0-.78.18.52.52,0,0,0-.23.42.44.44,0,0,0,.1.28.7.7,0,0,0,.3.21l.7.2a9.77,9.77,0,0,1,1.17.37,1.19,1.19,0,0,1,.52.42,1.16,1.16,0,0,1,.19.68,1.33,1.33,0,0,1-.23.75,1.48,1.48,0,0,1-.67.54,2.41,2.41,0,0,1-1,.19,2.19,2.19,0,0,1-1.39-.38A1.76,1.76,0,0,1,199.25,59.4Z" transform="translate(-0.52 -0.52)"/><path d="M206.58,55.26v-.91h.79v.91Zm0,5.53V56.13h.79V60.8Z" transform="translate(-0.52 -0.52)"/><path d="M208.57,60.8V56.13h.71v.65a1.66,1.66,0,0,1,.58-.55,1.64,1.64,0,0,1,.83-.21,1.54,1.54,0,0,1,.85.22,1.15,1.15,0,0,1,.47.6,1.68,1.68,0,0,1,1.44-.82,1.42,1.42,0,0,1,1.07.38,1.64,1.64,0,0,1,.37,1.18v3.2h-.79V57.86a2.18,2.18,0,0,0-.08-.68.67.67,0,0,0-.28-.34.87.87,0,0,0-.47-.13,1.11,1.11,0,0,0-.82.33,1.44,1.44,0,0,0-.33,1V60.8h-.79v-3a1.33,1.33,0,0,0-.19-.79.73.73,0,0,0-.63-.26,1.15,1.15,0,0,0-.62.18,1,1,0,0,0-.41.51,2.9,2.9,0,0,0-.13,1V60.8Z" transform="translate(-0.52 -0.52)"/><path d="M216.07,60.8V56.13h.71v.65a1.66,1.66,0,0,1,.58-.55,1.64,1.64,0,0,1,.83-.21,1.54,1.54,0,0,1,.85.22,1.15,1.15,0,0,1,.47.6,1.68,1.68,0,0,1,1.44-.82,1.42,1.42,0,0,1,1.07.38,1.64,1.64,0,0,1,.37,1.18v3.2h-.79V57.86a2.18,2.18,0,0,0-.08-.68.67.67,0,0,0-.28-.34.87.87,0,0,0-.47-.13A1.11,1.11,0,0,0,220,57a1.44,1.44,0,0,0-.33,1V60.8h-.79v-3a1.33,1.33,0,0,0-.19-.79.73.73,0,0,0-.63-.26,1.15,1.15,0,0,0-.62.18,1,1,0,0,0-.41.51,2.9,2.9,0,0,0-.13,1V60.8Z" transform="translate(-0.52 -0.52)"/><path d="M226.76,59.29l.82.1a2,2,0,0,1-.72,1.11,2.15,2.15,0,0,1-1.34.4,2.13,2.13,0,0,1-1.62-.63,2.46,2.46,0,0,1-.6-1.77,2.58,2.58,0,0,1,.61-1.83,2.05,2.05,0,0,1,1.57-.65,2,2,0,0,1,1.53.64,2.54,2.54,0,0,1,.59,1.79s0,.12,0,.21h-3.48a1.79,1.79,0,0,0,.44,1.18,1.29,1.29,0,0,0,1,.41,1.21,1.21,0,0,0,.74-.23A1.52,1.52,0,0,0,226.76,59.29ZM224.16,58h2.61a1.58,1.58,0,0,0-.3-.88,1.21,1.21,0,0,0-1-.46,1.26,1.26,0,0,0-.92.36A1.44,1.44,0,0,0,224.16,58Z" transform="translate(-0.52 -0.52)"/><path d="M228.56,60.8V56.13h.71v.71a1.91,1.91,0,0,1,.5-.65.88.88,0,0,1,.51-.16,1.54,1.54,0,0,1,.81.25l-.27.73a1.13,1.13,0,0,0-.58-.17.75.75,0,0,0-.47.16.84.84,0,0,0-.29.43,3.08,3.08,0,0,0-.13.92V60.8Z" transform="translate(-0.52 -0.52)"/><path d="M231.25,59.4l.78-.12a1.1,1.1,0,0,0,.37.72,1.28,1.28,0,0,0,.84.25A1.24,1.24,0,0,0,234,60a.66.66,0,0,0,.26-.52.48.48,0,0,0-.23-.42,3.47,3.47,0,0,0-.81-.27,7.42,7.42,0,0,1-1.21-.38,1.15,1.15,0,0,1-.68-1.07,1.2,1.2,0,0,1,.14-.58,1.28,1.28,0,0,1,.39-.44,1.63,1.63,0,0,1,.5-.23,2.4,2.4,0,0,1,.68-.09,2.7,2.7,0,0,1,1,.16,1.32,1.32,0,0,1,.61.43,1.68,1.68,0,0,1,.27.72l-.77.11a.85.85,0,0,0-.3-.56,1.12,1.12,0,0,0-.71-.2,1.29,1.29,0,0,0-.78.18.52.52,0,0,0-.23.42.44.44,0,0,0,.1.28.7.7,0,0,0,.3.21l.7.2a9.77,9.77,0,0,1,1.17.37,1.19,1.19,0,0,1,.52.42,1.16,1.16,0,0,1,.19.68,1.33,1.33,0,0,1-.23.75,1.48,1.48,0,0,1-.67.54,2.41,2.41,0,0,1-1,.19,2.19,2.19,0,0,1-1.39-.38A1.76,1.76,0,0,1,231.25,59.4Z" transform="translate(-0.52 -0.52)"/><path d="M239.26,59.29l.82.1a2,2,0,0,1-.72,1.11,2.15,2.15,0,0,1-1.34.4,2.13,2.13,0,0,1-1.62-.63,2.46,2.46,0,0,1-.6-1.77,2.58,2.58,0,0,1,.61-1.83A2.05,2.05,0,0,1,238,56a2,2,0,0,1,1.53.64,2.54,2.54,0,0,1,.59,1.79s0,.12,0,.21h-3.48a1.79,1.79,0,0,0,.44,1.18,1.29,1.29,0,0,0,1,.41,1.21,1.21,0,0,0,.74-.23A1.52,1.52,0,0,0,239.26,59.29ZM236.67,58h2.61a1.58,1.58,0,0,0-.3-.88,1.21,1.21,0,0,0-1-.46,1.26,1.26,0,0,0-.92.36A1.44,1.44,0,0,0,236.67,58Z" transform="translate(-0.52 -0.52)"/><path d="M244.1,60.8v-.59a1.45,1.45,0,0,1-1.3.69,1.83,1.83,0,0,1-1-.31,2,2,0,0,1-.73-.86,3,3,0,0,1-.26-1.27A3.3,3.3,0,0,1,241,57.2a1.83,1.83,0,0,1,.7-.87,1.87,1.87,0,0,1,1-.3,1.56,1.56,0,0,1,.75.18,1.58,1.58,0,0,1,.54.46V54.35h.79V60.8Zm-2.5-2.33a2,2,0,0,0,.38,1.34,1.14,1.14,0,0,0,.89.44,1.12,1.12,0,0,0,.88-.42,2,2,0,0,0,.36-1.29,2.19,2.19,0,0,0-.37-1.41,1.14,1.14,0,0,0-.91-.45,1.09,1.09,0,0,0-.88.43A2.12,2.12,0,0,0,241.6,58.47Z" transform="translate(-0.52 -0.52)"/><path d="M248.58,55.26v-.91h.79v.91Zm0,5.53V56.13h.79V60.8Z" transform="translate(-0.52 -0.52)"/><path d="M250.58,60.8V56.13h.71v.66a1.68,1.68,0,0,1,1.49-.77,2,2,0,0,1,.78.15,1.23,1.23,0,0,1,.53.4,1.53,1.53,0,0,1,.25.58,4.53,4.53,0,0,1,0,.77V60.8h-.79V58a2.1,2.1,0,0,0-.09-.72.76.76,0,0,0-.33-.38,1,1,0,0,0-.55-.14,1.28,1.28,0,0,0-.87.32,1.58,1.58,0,0,0-.37,1.22V60.8Z" transform="translate(-0.52 -0.52)"/><path d="M258.94,60.8l-1.43-4.67h.82l.74,2.69.28,1,.24-1,.74-2.73h.81l.7,2.71.23.89.27-.9.8-2.7h.77l-1.46,4.67h-.82L260.9,58l-.18-.8-.94,3.59Z" transform="translate(-0.52 -0.52)"/><path d="M267.63,60.22a3,3,0,0,1-.85.53,2.45,2.45,0,0,1-.87.15,1.69,1.69,0,0,1-1.18-.38,1.24,1.24,0,0,1-.41-1,1.27,1.27,0,0,1,.16-.63,1.29,1.29,0,0,1,.41-.46,1.93,1.93,0,0,1,.57-.26,5.65,5.65,0,0,1,.7-.12,7.22,7.22,0,0,0,1.41-.27c0-.11,0-.18,0-.21a.88.88,0,0,0-.22-.68,1.33,1.33,0,0,0-.9-.27,1.4,1.4,0,0,0-.82.2,1.2,1.2,0,0,0-.39.69l-.77-.11a1.92,1.92,0,0,1,.35-.8,1.52,1.52,0,0,1,.7-.47,3.1,3.1,0,0,1,1.06-.17,2.8,2.8,0,0,1,1,.14,1.29,1.29,0,0,1,.55.35,1.25,1.25,0,0,1,.25.54,4.44,4.44,0,0,1,0,.73v1.05a11.35,11.35,0,0,0,0,1.4,1.77,1.77,0,0,0,.2.56h-.83A1.68,1.68,0,0,1,267.63,60.22Zm-.07-1.77a5.81,5.81,0,0,1-1.29.3,3,3,0,0,0-.69.16.68.68,0,0,0-.31.26.67.67,0,0,0-.11.38.67.67,0,0,0,.24.53,1,1,0,0,0,.7.21,1.63,1.63,0,0,0,.81-.2,1.23,1.23,0,0,0,.52-.55,1.91,1.91,0,0,0,.13-.79Z" transform="translate(-0.52 -0.52)"/><path d="M271.32,60.09l.11.7a2.93,2.93,0,0,1-.6.07,1.35,1.35,0,0,1-.67-.14.76.76,0,0,1-.33-.36,2.83,2.83,0,0,1-.1-.93V56.74h-.58v-.62h.58V55l.79-.47v1.63h.79v.62h-.79v2.73a1.4,1.4,0,0,0,0,.44.33.33,0,0,0,.14.15.52.52,0,0,0,.27.06Z" transform="translate(-0.52 -0.52)"/><path d="M275.28,59.29l.82.1a2,2,0,0,1-.72,1.11,2.15,2.15,0,0,1-1.34.4,2.13,2.13,0,0,1-1.62-.63,2.46,2.46,0,0,1-.6-1.77,2.58,2.58,0,0,1,.61-1.83A2.05,2.05,0,0,1,274,56a2,2,0,0,1,1.53.64,2.54,2.54,0,0,1,.59,1.79s0,.12,0,.21h-3.48a1.79,1.79,0,0,0,.44,1.18,1.29,1.29,0,0,0,1,.41,1.21,1.21,0,0,0,.74-.23A1.52,1.52,0,0,0,275.28,59.29ZM272.69,58h2.61a1.58,1.58,0,0,0-.3-.88,1.21,1.21,0,0,0-1-.46,1.26,1.26,0,0,0-.92.36A1.44,1.44,0,0,0,272.69,58Z" transform="translate(-0.52 -0.52)"/><path d="M277.08,60.8V56.13h.71v.71a1.91,1.91,0,0,1,.5-.65.88.88,0,0,1,.51-.16,1.54,1.54,0,0,1,.81.25l-.27.73a1.13,1.13,0,0,0-.58-.17.75.75,0,0,0-.47.16.84.84,0,0,0-.29.43,3.08,3.08,0,0,0-.13.92V60.8Z" transform="translate(-0.52 -0.52)"/><path d="M285.65,60.8v-.69a1.71,1.71,0,0,1-1.48.79,1.89,1.89,0,0,1-.77-.16,1.27,1.27,0,0,1-.53-.4,1.48,1.48,0,0,1-.24-.59,4,4,0,0,1,0-.74V56.13h.79v2.59a4.63,4.63,0,0,0,0,.83.82.82,0,0,0,.32.49,1,1,0,0,0,.6.18A1.3,1.3,0,0,0,285,60a1,1,0,0,0,.44-.5,2.48,2.48,0,0,0,.13-.91v-2.5h.79V60.8Z" transform="translate(-0.52 -0.52)"/><path d="M287.6,62.58V56.13h.72v.61a1.77,1.77,0,0,1,.58-.53,1.59,1.59,0,0,1,.78-.18,1.85,1.85,0,0,1,1.05.31,1.89,1.89,0,0,1,.69.87,3.17,3.17,0,0,1,.23,1.23,3.11,3.11,0,0,1-.26,1.29,2,2,0,0,1-1.78,1.18,1.49,1.49,0,0,1-.71-.17,1.61,1.61,0,0,1-.52-.42v2.27Zm.72-4.1a2,2,0,0,0,.36,1.33,1.12,1.12,0,0,0,.88.43,1.14,1.14,0,0,0,.9-.45,2.12,2.12,0,0,0,.38-1.38,2.06,2.06,0,0,0-.37-1.34,1.11,1.11,0,0,0-.88-.44,1.14,1.14,0,0,0-.89.47A2.12,2.12,0,0,0,288.31,58.49Z" transform="translate(-0.52 -0.52)"/><path d="M296.83,60.09l.11.7a2.93,2.93,0,0,1-.6.07,1.35,1.35,0,0,1-.67-.14.76.76,0,0,1-.33-.36,2.83,2.83,0,0,1-.1-.93V56.74h-.58v-.62h.58V55l.79-.47v1.63h.79v.62H296v2.73a1.4,1.4,0,0,0,0,.44.33.33,0,0,0,.14.15.52.52,0,0,0,.27.06Z" transform="translate(-0.52 -0.52)"/><path d="M297.31,58.46a2.41,2.41,0,0,1,.72-1.92A2.17,2.17,0,0,1,299.5,56a2.09,2.09,0,0,1,1.57.63,2.4,2.4,0,0,1,.61,1.74,3.09,3.09,0,0,1-.27,1.42,1.91,1.91,0,0,1-.79.8,2.29,2.29,0,0,1-1.13.29,2.1,2.1,0,0,1-1.58-.63A2.51,2.51,0,0,1,297.31,58.46Zm.81,0a2,2,0,0,0,.39,1.34,1.3,1.3,0,0,0,2,0,2,2,0,0,0,.39-1.37,1.93,1.93,0,0,0-.39-1.31,1.3,1.3,0,0,0-2,0A2,2,0,0,0,298.12,58.46Z" transform="translate(-0.52 -0.52)"/><path d="M304.81,58.46a2.41,2.41,0,0,1,.72-1.92A2.17,2.17,0,0,1,307,56a2.09,2.09,0,0,1,1.57.63,2.4,2.4,0,0,1,.61,1.74,3.09,3.09,0,0,1-.27,1.42,1.91,1.91,0,0,1-.79.8,2.29,2.29,0,0,1-1.13.29,2.1,2.1,0,0,1-1.58-.63A2.51,2.51,0,0,1,304.81,58.46Zm.81,0a2,2,0,0,0,.39,1.34,1.3,1.3,0,0,0,2,0,2,2,0,0,0,.39-1.37,1.93,1.93,0,0,0-.39-1.31,1.3,1.3,0,0,0-2,0A2,2,0,0,0,305.63,58.46Z" transform="translate(-0.52 -0.52)"/><path d="M310.1,60.8V56.13h.71v.71a1.91,1.91,0,0,1,.5-.65.88.88,0,0,1,.51-.16,1.54,1.54,0,0,1,.81.25l-.27.73a1.13,1.13,0,0,0-.58-.17.75.75,0,0,0-.47.16.84.84,0,0,0-.29.43,3.08,3.08,0,0,0-.13.92V60.8Z" transform="translate(-0.52 -0.52)"/><path d="M95.56,70.22a3,3,0,0,1-.85.53,2.45,2.45,0,0,1-.87.15,1.69,1.69,0,0,1-1.18-.38,1.24,1.24,0,0,1-.41-1,1.3,1.3,0,0,1,.56-1.08,1.92,1.92,0,0,1,.57-.26,5.65,5.65,0,0,1,.7-.12,7.23,7.23,0,0,0,1.41-.27q0-.16,0-.21a.87.87,0,0,0-.22-.68,1.32,1.32,0,0,0-.9-.27,1.4,1.4,0,0,0-.82.2,1.19,1.19,0,0,0-.39.69l-.77-.11a1.92,1.92,0,0,1,.35-.8,1.52,1.52,0,0,1,.7-.47A3.1,3.1,0,0,1,94.48,66a2.8,2.8,0,0,1,1,.14,1.28,1.28,0,0,1,.55.35,1.25,1.25,0,0,1,.25.54,4.45,4.45,0,0,1,0,.73v1.05a11.2,11.2,0,0,0,.05,1.4,1.76,1.76,0,0,0,.2.56h-.83A1.68,1.68,0,0,1,95.56,70.22Zm-.07-1.77a5.8,5.8,0,0,1-1.29.3,3,3,0,0,0-.69.16.69.69,0,0,0-.31.26.7.7,0,0,0,.13.9,1,1,0,0,0,.7.21,1.63,1.63,0,0,0,.81-.2,1.23,1.23,0,0,0,.52-.55,1.91,1.91,0,0,0,.13-.79Z" transform="translate(-0.52 -0.52)"/><path d="M98.24,70.8h-.73V64.35h.79v2.3A1.57,1.57,0,0,1,99.58,66a2,2,0,0,1,.81.17,1.67,1.67,0,0,1,.63.49,2.36,2.36,0,0,1,.39.76,3.13,3.13,0,0,1,.14.95,2.67,2.67,0,0,1-.59,1.85,1.86,1.86,0,0,1-1.42.66,1.49,1.49,0,0,1-1.3-.69Zm0-2.37a2.42,2.42,0,0,0,.23,1.21,1.13,1.13,0,0,0,1.91.16,2,2,0,0,0,.38-1.34,2.08,2.08,0,0,0-.36-1.35,1.1,1.1,0,0,0-.88-.44,1.14,1.14,0,0,0-.9.45A2,2,0,0,0,98.24,68.43Z" transform="translate(-0.52 -0.52)"/><path d="M102.23,68.46a2.41,2.41,0,0,1,.72-1.92,2.17,2.17,0,0,1,1.47-.52,2.09,2.09,0,0,1,1.57.63,2.4,2.4,0,0,1,.61,1.74,3.09,3.09,0,0,1-.27,1.42,1.91,1.91,0,0,1-.79.8,2.29,2.29,0,0,1-1.13.29,2.1,2.1,0,0,1-1.58-.63A2.51,2.51,0,0,1,102.23,68.46Zm.81,0a2,2,0,0,0,.39,1.34,1.3,1.3,0,0,0,2,0,2,2,0,0,0,.39-1.37,1.93,1.93,0,0,0-.39-1.31,1.3,1.3,0,0,0-2,0A2,2,0,0,0,103,68.46Z" transform="translate(-0.52 -0.52)"/><path d="M108.82,70.8,107,66.13h.83l1,2.79q.16.45.3.94.11-.37.29-.89l1-2.85h.81l-1.77,4.67Z" transform="translate(-0.52 -0.52)"/><path d="M115.22,69.29l.82.1a2,2,0,0,1-.72,1.11,2.42,2.42,0,0,1-3-.24,2.46,2.46,0,0,1-.6-1.77,2.58,2.58,0,0,1,.61-1.83,2.05,2.05,0,0,1,1.57-.65,2,2,0,0,1,1.53.64,2.53,2.53,0,0,1,.59,1.79s0,.12,0,.21h-3.48a1.79,1.79,0,0,0,.44,1.18,1.29,1.29,0,0,0,1,.41,1.21,1.21,0,0,0,.74-.23A1.52,1.52,0,0,0,115.22,69.29ZM112.62,68h2.61a1.58,1.58,0,0,0-.3-.88,1.21,1.21,0,0,0-1-.46A1.26,1.26,0,0,0,113,67,1.44,1.44,0,0,0,112.62,68Z" transform="translate(-0.52 -0.52)"/><path d="M121.26,70.09l.11.7a2.93,2.93,0,0,1-.6.07,1.35,1.35,0,0,1-.67-.14.76.76,0,0,1-.33-.36,2.83,2.83,0,0,1-.1-.93V66.74h-.58v-.62h.58V65l.79-.47v1.63h.8v.62h-.8v2.73a1.38,1.38,0,0,0,0,.44.33.33,0,0,0,.14.15.52.52,0,0,0,.27.06Z" transform="translate(-0.52 -0.52)"/><path d="M122,70.8V64.35h.79v2.31a1.77,1.77,0,0,1,1.4-.64,1.89,1.89,0,0,1,.9.2,1.2,1.2,0,0,1,.55.56,2.59,2.59,0,0,1,.17,1v3H125v-3a1.23,1.23,0,0,0-.26-.86,1,1,0,0,0-.73-.27,1.28,1.28,0,0,0-.66.18,1,1,0,0,0-.44.49,2.27,2.27,0,0,0-.13.86V70.8Z" transform="translate(-0.52 -0.52)"/><path d="M130.23,69.29l.82.1a2,2,0,0,1-.72,1.11,2.15,2.15,0,0,1-1.34.4,2.13,2.13,0,0,1-1.62-.63,2.46,2.46,0,0,1-.6-1.77,2.58,2.58,0,0,1,.61-1.83A2.05,2.05,0,0,1,129,66a2,2,0,0,1,1.53.64,2.54,2.54,0,0,1,.59,1.79s0,.12,0,.21h-3.48a1.79,1.79,0,0,0,.44,1.18,1.29,1.29,0,0,0,1,.41,1.21,1.21,0,0,0,.74-.23A1.52,1.52,0,0,0,130.23,69.29ZM127.64,68h2.61a1.58,1.58,0,0,0-.3-.88,1.21,1.21,0,0,0-1-.46A1.26,1.26,0,0,0,128,67,1.44,1.44,0,0,0,127.64,68Z" transform="translate(-0.52 -0.52)"/><path d="M134.53,70.8V64.35h.79V70.8Z" transform="translate(-0.52 -0.52)"/><path d="M139.74,69.29l.82.1a2,2,0,0,1-.72,1.11,2.15,2.15,0,0,1-1.34.4,2.13,2.13,0,0,1-1.62-.63,2.46,2.46,0,0,1-.6-1.77,2.58,2.58,0,0,1,.61-1.83,2.05,2.05,0,0,1,1.57-.65,2,2,0,0,1,1.53.64,2.54,2.54,0,0,1,.59,1.79s0,.12,0,.21H137.1a1.79,1.79,0,0,0,.44,1.18,1.29,1.29,0,0,0,1,.41,1.21,1.21,0,0,0,.74-.23A1.52,1.52,0,0,0,139.74,69.29ZM137.14,68h2.61a1.58,1.58,0,0,0-.3-.88,1.21,1.21,0,0,0-1-.46,1.26,1.26,0,0,0-.92.36A1.44,1.44,0,0,0,137.14,68Z" transform="translate(-0.52 -0.52)"/><path d="M142.85,70.8l-1.78-4.67h.83l1,2.79q.16.45.3.94.11-.37.29-.89l1-2.85h.81l-1.77,4.67Z" transform="translate(-0.52 -0.52)"/><path d="M149.24,69.29l.82.1a2,2,0,0,1-.72,1.11,2.15,2.15,0,0,1-1.34.4,2.13,2.13,0,0,1-1.62-.63,2.46,2.46,0,0,1-.6-1.77,2.58,2.58,0,0,1,.61-1.83A2.05,2.05,0,0,1,148,66a2,2,0,0,1,1.53.64,2.54,2.54,0,0,1,.59,1.79s0,.12,0,.21H146.6a1.79,1.79,0,0,0,.44,1.18,1.29,1.29,0,0,0,1,.41,1.21,1.21,0,0,0,.74-.23A1.52,1.52,0,0,0,149.24,69.29ZM146.65,68h2.61a1.58,1.58,0,0,0-.3-.88,1.21,1.21,0,0,0-1-.46,1.26,1.26,0,0,0-.92.36A1.44,1.44,0,0,0,146.65,68Z" transform="translate(-0.52 -0.52)"/><path d="M151,70.8V64.35h.79V70.8Z" transform="translate(-0.52 -0.52)"/><path d="M155.26,68.46a2.41,2.41,0,0,1,.72-1.92,2.17,2.17,0,0,1,1.47-.52,2.09,2.09,0,0,1,1.57.63,2.4,2.4,0,0,1,.61,1.74,3.09,3.09,0,0,1-.27,1.42,1.91,1.91,0,0,1-.79.8,2.29,2.29,0,0,1-1.13.29,2.1,2.1,0,0,1-1.58-.63A2.51,2.51,0,0,1,155.26,68.46Zm.81,0a2,2,0,0,0,.39,1.34,1.3,1.3,0,0,0,2,0,2,2,0,0,0,.39-1.37,1.93,1.93,0,0,0-.39-1.31,1.3,1.3,0,0,0-2,0A2,2,0,0,0,156.07,68.46Z" transform="translate(-0.52 -0.52)"/><path d="M160.75,70.8V66.74H160v-.62h.7v-.5a2.18,2.18,0,0,1,.08-.7,1,1,0,0,1,.4-.5,1.46,1.46,0,0,1,.81-.19,3.87,3.87,0,0,1,.74.08l-.12.69a2.65,2.65,0,0,0-.46,0,.69.69,0,0,0-.51.15.83.83,0,0,0-.15.58v.43h.91v.62h-.91V70.8Z" transform="translate(-0.52 -0.52)"/><path d="M167.29,70.09l.11.7a2.93,2.93,0,0,1-.6.07,1.35,1.35,0,0,1-.67-.14.76.76,0,0,1-.33-.36,2.83,2.83,0,0,1-.1-.93V66.74h-.58v-.62h.58V65l.79-.47v1.63h.79v.62h-.79v2.73a1.4,1.4,0,0,0,0,.44.33.33,0,0,0,.14.15.52.52,0,0,0,.27.06Z" transform="translate(-0.52 -0.52)"/><path d="M168.06,70.8V64.35h.79v2.31a1.77,1.77,0,0,1,1.4-.64,1.89,1.89,0,0,1,.9.2,1.2,1.2,0,0,1,.55.56,2.59,2.59,0,0,1,.17,1v3h-.79v-3a1.23,1.23,0,0,0-.26-.86,1,1,0,0,0-.73-.27,1.28,1.28,0,0,0-.66.18,1,1,0,0,0-.44.49,2.27,2.27,0,0,0-.13.86V70.8Z" transform="translate(-0.52 -0.52)"/><path d="M176.26,69.29l.82.1a2,2,0,0,1-.72,1.11,2.15,2.15,0,0,1-1.34.4,2.13,2.13,0,0,1-1.62-.63,2.46,2.46,0,0,1-.6-1.77,2.58,2.58,0,0,1,.61-1.83A2.05,2.05,0,0,1,175,66a2,2,0,0,1,1.53.64,2.54,2.54,0,0,1,.59,1.79s0,.12,0,.21h-3.48a1.79,1.79,0,0,0,.44,1.18,1.29,1.29,0,0,0,1,.41,1.21,1.21,0,0,0,.74-.23A1.52,1.52,0,0,0,176.26,69.29ZM173.67,68h2.61a1.58,1.58,0,0,0-.3-.88,1.21,1.21,0,0,0-1-.46,1.26,1.26,0,0,0-.92.36A1.44,1.44,0,0,0,173.67,68Z" transform="translate(-0.52 -0.52)"/><path d="M181.3,70.8h-.73V64.35h.79v2.3a1.57,1.57,0,0,1,1.28-.63,2,2,0,0,1,.82.17,1.66,1.66,0,0,1,.63.49,2.38,2.38,0,0,1,.39.76,3.16,3.16,0,0,1,.14.95,2.67,2.67,0,0,1-.59,1.85,1.86,1.86,0,0,1-1.42.66,1.49,1.49,0,0,1-1.3-.69Zm0-2.37a2.41,2.41,0,0,0,.23,1.21,1.13,1.13,0,0,0,1.91.16,2,2,0,0,0,.38-1.34,2.08,2.08,0,0,0-.36-1.35,1.1,1.1,0,0,0-.88-.44,1.14,1.14,0,0,0-.9.45A2,2,0,0,0,181.29,68.43Z" transform="translate(-0.52 -0.52)"/><path d="M185.28,68.46a2.41,2.41,0,0,1,.72-1.92,2.17,2.17,0,0,1,1.47-.52,2.09,2.09,0,0,1,1.57.63,2.4,2.4,0,0,1,.61,1.74,3.09,3.09,0,0,1-.27,1.42,1.91,1.91,0,0,1-.79.8,2.29,2.29,0,0,1-1.13.29,2.1,2.1,0,0,1-1.58-.63A2.51,2.51,0,0,1,185.28,68.46Zm.81,0a2,2,0,0,0,.39,1.34,1.3,1.3,0,0,0,2,0,2,2,0,0,0,.39-1.37,1.93,1.93,0,0,0-.39-1.31,1.3,1.3,0,0,0-2,0A2,2,0,0,0,186.1,68.46Z" transform="translate(-0.52 -0.52)"/><path d="M192.31,70.09l.11.7a2.93,2.93,0,0,1-.6.07,1.35,1.35,0,0,1-.67-.14.76.76,0,0,1-.33-.36,2.83,2.83,0,0,1-.1-.93V66.74h-.58v-.62h.58V65l.79-.47v1.63h.79v.62h-.79v2.73a1.4,1.4,0,0,0,0,.44.33.33,0,0,0,.14.15.52.52,0,0,0,.27.06Z" transform="translate(-0.52 -0.52)"/><path d="M194.81,70.09l.11.7a2.93,2.93,0,0,1-.6.07,1.35,1.35,0,0,1-.67-.14.76.76,0,0,1-.33-.36,2.83,2.83,0,0,1-.1-.93V66.74h-.58v-.62h.58V65l.79-.47v1.63h.79v.62H194v2.73a1.4,1.4,0,0,0,0,.44.33.33,0,0,0,.14.15.52.52,0,0,0,.27.06Z" transform="translate(-0.52 -0.52)"/><path d="M195.29,68.46a2.41,2.41,0,0,1,.72-1.92,2.17,2.17,0,0,1,1.47-.52,2.09,2.09,0,0,1,1.57.63,2.4,2.4,0,0,1,.61,1.74,3.09,3.09,0,0,1-.27,1.42,1.91,1.91,0,0,1-.79.8,2.29,2.29,0,0,1-1.13.29,2.1,2.1,0,0,1-1.58-.63A2.51,2.51,0,0,1,195.29,68.46Zm.81,0a2,2,0,0,0,.39,1.34,1.3,1.3,0,0,0,2,0,2,2,0,0,0,.39-1.37,1.93,1.93,0,0,0-.39-1.31,1.3,1.3,0,0,0-2,0A2,2,0,0,0,196.1,68.46Z" transform="translate(-0.52 -0.52)"/><path d="M200.59,70.8V66.13h.71v.65a1.66,1.66,0,0,1,.58-.55,1.64,1.64,0,0,1,.83-.21,1.54,1.54,0,0,1,.85.22,1.15,1.15,0,0,1,.47.6,1.68,1.68,0,0,1,1.44-.82,1.42,1.42,0,0,1,1.07.38,1.64,1.64,0,0,1,.37,1.18v3.2h-.79V67.86a2.18,2.18,0,0,0-.08-.68.67.67,0,0,0-.28-.34.87.87,0,0,0-.47-.13,1.11,1.11,0,0,0-.82.33,1.44,1.44,0,0,0-.33,1V70.8h-.79v-3a1.33,1.33,0,0,0-.19-.79.73.73,0,0,0-.63-.26,1.15,1.15,0,0,0-.62.18,1,1,0,0,0-.41.51,2.9,2.9,0,0,0-.13,1V70.8Z" transform="translate(-0.52 -0.52)"/><path d="M210.29,68.46a2.41,2.41,0,0,1,.72-1.92,2.17,2.17,0,0,1,1.47-.52,2.09,2.09,0,0,1,1.57.63,2.4,2.4,0,0,1,.61,1.74,3.09,3.09,0,0,1-.27,1.42,1.91,1.91,0,0,1-.79.8,2.29,2.29,0,0,1-1.13.29,2.1,2.1,0,0,1-1.58-.63A2.51,2.51,0,0,1,210.29,68.46Zm.81,0a2,2,0,0,0,.39,1.34,1.3,1.3,0,0,0,2,0,2,2,0,0,0,.39-1.37,1.93,1.93,0,0,0-.39-1.31,1.3,1.3,0,0,0-2,0A2,2,0,0,0,211.1,68.46Z" transform="translate(-0.52 -0.52)"/><path d="M215.78,70.8V66.74h-.7v-.62h.7v-.5a2.18,2.18,0,0,1,.08-.7,1,1,0,0,1,.4-.5,1.46,1.46,0,0,1,.81-.19,3.87,3.87,0,0,1,.74.08l-.12.69a2.65,2.65,0,0,0-.46,0,.69.69,0,0,0-.51.15.83.83,0,0,0-.15.58v.43h.91v.62h-.91V70.8Z" transform="translate(-0.52 -0.52)"/><path d="M222.32,70.09l.11.7a2.93,2.93,0,0,1-.6.07,1.35,1.35,0,0,1-.67-.14.76.76,0,0,1-.33-.36,2.83,2.83,0,0,1-.1-.93V66.74h-.58v-.62h.58V65l.79-.47v1.63h.79v.62h-.79v2.73a1.4,1.4,0,0,0,0,.44.33.33,0,0,0,.14.15.52.52,0,0,0,.27.06Z" transform="translate(-0.52 -0.52)"/><path d="M223.09,70.8V64.35h.79v2.31a1.77,1.77,0,0,1,1.4-.64,1.89,1.89,0,0,1,.9.2,1.2,1.2,0,0,1,.55.56,2.59,2.59,0,0,1,.17,1v3h-.79v-3a1.23,1.23,0,0,0-.26-.86,1,1,0,0,0-.73-.27,1.28,1.28,0,0,0-.66.18,1,1,0,0,0-.44.49,2.27,2.27,0,0,0-.13.86V70.8Z" transform="translate(-0.52 -0.52)"/><path d="M231.29,69.29l.82.1a2,2,0,0,1-.72,1.11,2.15,2.15,0,0,1-1.34.4,2.13,2.13,0,0,1-1.62-.63,2.46,2.46,0,0,1-.6-1.77,2.58,2.58,0,0,1,.61-1.83A2.05,2.05,0,0,1,230,66a2,2,0,0,1,1.53.64,2.54,2.54,0,0,1,.59,1.79s0,.12,0,.21h-3.48a1.79,1.79,0,0,0,.44,1.18,1.29,1.29,0,0,0,1,.41,1.21,1.21,0,0,0,.74-.23A1.52,1.52,0,0,0,231.29,69.29ZM228.7,68h2.61a1.58,1.58,0,0,0-.3-.88,1.21,1.21,0,0,0-1-.46,1.26,1.26,0,0,0-.92.36A1.44,1.44,0,0,0,228.7,68Z" transform="translate(-0.52 -0.52)"/><path d="M238.8,69.29l.82.1a2,2,0,0,1-.72,1.11,2.15,2.15,0,0,1-1.34.4,2.13,2.13,0,0,1-1.62-.63,2.46,2.46,0,0,1-.6-1.77,2.58,2.58,0,0,1,.61-1.83,2.05,2.05,0,0,1,1.57-.65,2,2,0,0,1,1.53.64,2.54,2.54,0,0,1,.59,1.79s0,.12,0,.21h-3.48a1.79,1.79,0,0,0,.44,1.18,1.29,1.29,0,0,0,1,.41,1.21,1.21,0,0,0,.74-.23A1.52,1.52,0,0,0,238.8,69.29ZM236.2,68h2.61a1.58,1.58,0,0,0-.3-.88,1.21,1.21,0,0,0-1-.46,1.26,1.26,0,0,0-.92.36A1.44,1.44,0,0,0,236.2,68Z" transform="translate(-0.52 -0.52)"/><path d="M240.59,70.8V64.35h.79V70.8Z" transform="translate(-0.52 -0.52)"/><path d="M245.8,69.29l.82.1a2,2,0,0,1-.72,1.11,2.15,2.15,0,0,1-1.34.4,2.13,2.13,0,0,1-1.62-.63,2.46,2.46,0,0,1-.6-1.77,2.58,2.58,0,0,1,.61-1.83,2.05,2.05,0,0,1,1.57-.65,2,2,0,0,1,1.53.64,2.54,2.54,0,0,1,.59,1.79s0,.12,0,.21h-3.48a1.79,1.79,0,0,0,.44,1.18,1.29,1.29,0,0,0,1,.41,1.21,1.21,0,0,0,.74-.23A1.52,1.52,0,0,0,245.8,69.29ZM243.21,68h2.61a1.58,1.58,0,0,0-.3-.88,1.21,1.21,0,0,0-1-.46,1.26,1.26,0,0,0-.92.36A1.44,1.44,0,0,0,243.21,68Z" transform="translate(-0.52 -0.52)"/><path d="M247.62,70.8V66.13h.71v.65a1.66,1.66,0,0,1,.58-.55,1.64,1.64,0,0,1,.83-.21,1.54,1.54,0,0,1,.85.22,1.15,1.15,0,0,1,.47.6A1.68,1.68,0,0,1,252.5,66a1.42,1.42,0,0,1,1.07.38,1.64,1.64,0,0,1,.37,1.18v3.2h-.79V67.86a2.18,2.18,0,0,0-.08-.68.67.67,0,0,0-.28-.34.87.87,0,0,0-.47-.13,1.11,1.11,0,0,0-.82.33,1.44,1.44,0,0,0-.33,1V70.8h-.79v-3a1.33,1.33,0,0,0-.19-.79.73.73,0,0,0-.63-.26,1.15,1.15,0,0,0-.62.18,1,1,0,0,0-.41.51,2.9,2.9,0,0,0-.13,1V70.8Z" transform="translate(-0.52 -0.52)"/><path d="M258.31,69.29l.82.1a2,2,0,0,1-.72,1.11,2.15,2.15,0,0,1-1.34.4,2.13,2.13,0,0,1-1.62-.63,2.46,2.46,0,0,1-.6-1.77,2.58,2.58,0,0,1,.61-1.83A2.05,2.05,0,0,1,257,66a2,2,0,0,1,1.53.64,2.54,2.54,0,0,1,.59,1.79s0,.12,0,.21h-3.48a1.79,1.79,0,0,0,.44,1.18,1.29,1.29,0,0,0,1,.41,1.21,1.21,0,0,0,.74-.23A1.52,1.52,0,0,0,258.31,69.29ZM255.71,68h2.61a1.58,1.58,0,0,0-.3-.88,1.21,1.21,0,0,0-1-.46,1.26,1.26,0,0,0-.92.36A1.44,1.44,0,0,0,255.71,68Z" transform="translate(-0.52 -0.52)"/><path d="M260.12,70.8V66.13h.71v.66a1.68,1.68,0,0,1,1.49-.77,2,2,0,0,1,.78.15,1.23,1.23,0,0,1,.53.4,1.53,1.53,0,0,1,.25.58,4.53,4.53,0,0,1,0,.77V70.8h-.79V68a2.1,2.1,0,0,0-.09-.72.76.76,0,0,0-.33-.38,1,1,0,0,0-.55-.14,1.28,1.28,0,0,0-.87.32,1.58,1.58,0,0,0-.37,1.22V70.8Z" transform="translate(-0.52 -0.52)"/><path d="M266.85,70.09l.11.7a2.93,2.93,0,0,1-.6.07,1.35,1.35,0,0,1-.67-.14.76.76,0,0,1-.33-.36,2.83,2.83,0,0,1-.1-.93V66.74h-.58v-.62h.58V65l.79-.47v1.63h.79v.62h-.79v2.73a1.4,1.4,0,0,0,0,.44.33.33,0,0,0,.14.15.52.52,0,0,0,.27.06Z" transform="translate(-0.52 -0.52)"/><path d="M273.15,70.8v-.59a1.45,1.45,0,0,1-1.3.69,1.83,1.83,0,0,1-1-.31,2,2,0,0,1-.73-.86,3,3,0,0,1-.26-1.27,3.3,3.3,0,0,1,.23-1.27,1.83,1.83,0,0,1,.7-.87,1.87,1.87,0,0,1,1-.3,1.56,1.56,0,0,1,.75.18,1.58,1.58,0,0,1,.54.46V64.35h.79V70.8Zm-2.5-2.33a2,2,0,0,0,.38,1.34,1.14,1.14,0,0,0,.89.44,1.12,1.12,0,0,0,.88-.42,2,2,0,0,0,.36-1.29,2.19,2.19,0,0,0-.37-1.41,1.14,1.14,0,0,0-.91-.45,1.09,1.09,0,0,0-.88.43A2.12,2.12,0,0,0,270.65,68.47Z" transform="translate(-0.52 -0.52)"/><path d="M274.83,68.46a2.41,2.41,0,0,1,.72-1.92A2.17,2.17,0,0,1,277,66a2.09,2.09,0,0,1,1.57.63,2.4,2.4,0,0,1,.61,1.74,3.09,3.09,0,0,1-.27,1.42,1.91,1.91,0,0,1-.79.8,2.29,2.29,0,0,1-1.13.29,2.1,2.1,0,0,1-1.58-.63A2.51,2.51,0,0,1,274.83,68.46Zm.81,0a2,2,0,0,0,.39,1.34,1.3,1.3,0,0,0,2,0,2,2,0,0,0,.39-1.37,1.93,1.93,0,0,0-.39-1.31,1.3,1.3,0,0,0-2,0A2,2,0,0,0,275.65,68.46Z" transform="translate(-0.52 -0.52)"/><path d="M279.84,68.46a2.41,2.41,0,0,1,.72-1.92A2.17,2.17,0,0,1,282,66a2.09,2.09,0,0,1,1.57.63,2.4,2.4,0,0,1,.61,1.74,3.09,3.09,0,0,1-.27,1.42,1.91,1.91,0,0,1-.79.8,2.29,2.29,0,0,1-1.13.29,2.1,2.1,0,0,1-1.58-.63A2.51,2.51,0,0,1,279.84,68.46Zm.81,0a2,2,0,0,0,.39,1.34,1.3,1.3,0,0,0,2,0,2,2,0,0,0,.39-1.37,1.93,1.93,0,0,0-.39-1.31,1.3,1.3,0,0,0-2,0A2,2,0,0,0,280.65,68.46Z" transform="translate(-0.52 -0.52)"/><path d="M285.13,70.8V66.13h.71v.71a1.91,1.91,0,0,1,.5-.65.88.88,0,0,1,.51-.16,1.54,1.54,0,0,1,.81.25l-.27.73a1.13,1.13,0,0,0-.58-.17.75.75,0,0,0-.47.16.84.84,0,0,0-.29.43,3.08,3.08,0,0,0-.13.92V70.8Z" transform="translate(-0.52 -0.52)"/><path d="M287.82,69.4l.78-.12A1.1,1.1,0,0,0,289,70a1.28,1.28,0,0,0,.84.25,1.24,1.24,0,0,0,.81-.22.66.66,0,0,0,.26-.52.48.48,0,0,0-.23-.42,3.47,3.47,0,0,0-.81-.27,7.42,7.42,0,0,1-1.21-.38,1.15,1.15,0,0,1-.68-1.07,1.2,1.2,0,0,1,.14-.58,1.28,1.28,0,0,1,.39-.44,1.63,1.63,0,0,1,.5-.23,2.4,2.4,0,0,1,.68-.09,2.7,2.7,0,0,1,1,.16,1.32,1.32,0,0,1,.61.43,1.68,1.68,0,0,1,.27.72l-.77.11a.85.85,0,0,0-.3-.56,1.12,1.12,0,0,0-.71-.2,1.29,1.29,0,0,0-.78.18.52.52,0,0,0-.23.42.44.44,0,0,0,.1.28.7.7,0,0,0,.3.21l.7.2a9.77,9.77,0,0,1,1.17.37,1.19,1.19,0,0,1,.52.42,1.16,1.16,0,0,1,.19.68,1.33,1.33,0,0,1-.23.75,1.48,1.48,0,0,1-.67.54,2.41,2.41,0,0,1-1,.19,2.19,2.19,0,0,1-1.39-.38A1.76,1.76,0,0,1,287.82,69.4Z" transform="translate(-0.52 -0.52)"/><path d="M292.84,70.8v-.9h.9v.9a1.61,1.61,0,0,1-.18.8,1.15,1.15,0,0,1-.56.47l-.22-.34a.75.75,0,0,0,.37-.32,1.38,1.38,0,0,0,.13-.61Z" transform="translate(-0.52 -0.52)"/><path d="M94.24,80.09l.11.7a2.93,2.93,0,0,1-.6.07,1.35,1.35,0,0,1-.67-.14.76.76,0,0,1-.33-.36,2.84,2.84,0,0,1-.1-.93V76.75h-.58v-.62h.58V75l.79-.47v1.63h.8v.62h-.8v2.73a1.38,1.38,0,0,0,0,.44.33.33,0,0,0,.14.15.52.52,0,0,0,.27.06Z" transform="translate(-0.52 -0.52)"/><path d="M95,80.8V74.35h.79v2.31A1.77,1.77,0,0,1,97.2,76a1.89,1.89,0,0,1,.9.2,1.2,1.2,0,0,1,.55.56,2.59,2.59,0,0,1,.17,1v3H98v-3a1.22,1.22,0,0,0-.26-.86,1,1,0,0,0-.73-.27,1.29,1.29,0,0,0-.66.18,1,1,0,0,0-.44.49,2.27,2.27,0,0,0-.13.86V80.8Z" transform="translate(-0.52 -0.52)"/><path d="M103.21,79.29l.82.1a2,2,0,0,1-.72,1.11,2.15,2.15,0,0,1-1.34.4,2.13,2.13,0,0,1-1.62-.63,2.46,2.46,0,0,1-.6-1.77,2.58,2.58,0,0,1,.61-1.83,2.05,2.05,0,0,1,1.57-.65,2,2,0,0,1,1.53.64,2.53,2.53,0,0,1,.59,1.79s0,.12,0,.21h-3.48a1.79,1.79,0,0,0,.44,1.18,1.3,1.3,0,0,0,1,.41,1.21,1.21,0,0,0,.74-.23A1.52,1.52,0,0,0,103.21,79.29ZM100.61,78h2.61a1.58,1.58,0,0,0-.3-.88,1.21,1.21,0,0,0-1-.46A1.26,1.26,0,0,0,101,77,1.44,1.44,0,0,0,100.61,78Z" transform="translate(-0.52 -0.52)"/><path d="M107.52,80.8V74.35h.79v2.31a1.77,1.77,0,0,1,1.4-.64,1.89,1.89,0,0,1,.9.2,1.2,1.2,0,0,1,.55.56,2.59,2.59,0,0,1,.17,1v3h-.79v-3a1.22,1.22,0,0,0-.26-.86,1,1,0,0,0-.73-.27,1.29,1.29,0,0,0-.66.18,1,1,0,0,0-.44.49,2.27,2.27,0,0,0-.13.86V80.8Z" transform="translate(-0.52 -0.52)"/><path d="M115.72,79.29l.82.1a2,2,0,0,1-.72,1.11,2.15,2.15,0,0,1-1.34.4,2.13,2.13,0,0,1-1.62-.63,2.46,2.46,0,0,1-.6-1.77,2.58,2.58,0,0,1,.61-1.83,2.05,2.05,0,0,1,1.57-.65,2,2,0,0,1,1.53.64,2.53,2.53,0,0,1,.59,1.79s0,.12,0,.21h-3.48a1.79,1.79,0,0,0,.44,1.18,1.3,1.3,0,0,0,1,.41,1.21,1.21,0,0,0,.74-.23A1.52,1.52,0,0,0,115.72,79.29ZM113.12,78h2.61a1.58,1.58,0,0,0-.3-.88,1.21,1.21,0,0,0-1-.46,1.26,1.26,0,0,0-.92.36A1.44,1.44,0,0,0,113.12,78Z" transform="translate(-0.52 -0.52)"/><path d="M120.58,80.22a3,3,0,0,1-.85.53,2.45,2.45,0,0,1-.87.15,1.69,1.69,0,0,1-1.18-.38,1.24,1.24,0,0,1-.41-1,1.3,1.3,0,0,1,.56-1.08,1.92,1.92,0,0,1,.57-.26,5.67,5.67,0,0,1,.7-.12,7.23,7.23,0,0,0,1.41-.27c0-.11,0-.18,0-.21a.87.87,0,0,0-.22-.68,1.32,1.32,0,0,0-.9-.27,1.39,1.39,0,0,0-.82.2,1.19,1.19,0,0,0-.39.69l-.77-.11a1.92,1.92,0,0,1,.35-.8,1.52,1.52,0,0,1,.7-.47,3.1,3.1,0,0,1,1.06-.17,2.8,2.8,0,0,1,1,.14,1.28,1.28,0,0,1,.55.35,1.25,1.25,0,0,1,.25.54,4.45,4.45,0,0,1,0,.73v1.05a11.21,11.21,0,0,0,.05,1.4,1.76,1.76,0,0,0,.2.56h-.83A1.68,1.68,0,0,1,120.58,80.22Zm-.07-1.77a5.8,5.8,0,0,1-1.29.3,3,3,0,0,0-.69.16.69.69,0,0,0-.31.26.7.7,0,0,0,.13.9,1,1,0,0,0,.7.21,1.64,1.64,0,0,0,.81-.2,1.24,1.24,0,0,0,.52-.55,1.91,1.91,0,0,0,.13-.79Z" transform="translate(-0.52 -0.52)"/><path d="M124.26,80.09l.12.7a2.93,2.93,0,0,1-.6.07,1.36,1.36,0,0,1-.67-.14.76.76,0,0,1-.33-.36,2.84,2.84,0,0,1-.1-.93V76.75h-.58v-.62h.58V75l.79-.47v1.63h.79v.62h-.79v2.73a1.41,1.41,0,0,0,0,.44.33.33,0,0,0,.14.15.53.53,0,0,0,.27.06Z" transform="translate(-0.52 -0.52)"/><path d="M128.23,79.29l.82.1a2,2,0,0,1-.72,1.11,2.15,2.15,0,0,1-1.34.4,2.13,2.13,0,0,1-1.62-.63,2.46,2.46,0,0,1-.6-1.77,2.58,2.58,0,0,1,.61-1.83A2.05,2.05,0,0,1,127,76a2,2,0,0,1,1.53.64,2.54,2.54,0,0,1,.59,1.79s0,.12,0,.21h-3.48a1.79,1.79,0,0,0,.44,1.18,1.3,1.3,0,0,0,1,.41,1.21,1.21,0,0,0,.74-.23A1.52,1.52,0,0,0,128.23,79.29ZM125.64,78h2.61a1.58,1.58,0,0,0-.3-.88,1.21,1.21,0,0,0-1-.46A1.26,1.26,0,0,0,126,77,1.44,1.44,0,0,0,125.64,78Z" transform="translate(-0.52 -0.52)"/><path d="M130,80.8V76.13h.71v.71a1.91,1.91,0,0,1,.5-.65.88.88,0,0,1,.51-.16,1.54,1.54,0,0,1,.81.25l-.27.73a1.13,1.13,0,0,0-.58-.17.75.75,0,0,0-.47.16.84.84,0,0,0-.29.43,3.08,3.08,0,0,0-.13.92V80.8Z" transform="translate(-0.52 -0.52)"/><path d="M135.23,79.4l.78-.12a1.1,1.1,0,0,0,.37.72,1.28,1.28,0,0,0,.84.25A1.24,1.24,0,0,0,138,80a.67.67,0,0,0,.26-.52.48.48,0,0,0-.23-.42,3.47,3.47,0,0,0-.81-.27,7.47,7.47,0,0,1-1.21-.38,1.15,1.15,0,0,1-.68-1.07,1.2,1.2,0,0,1,.14-.58,1.28,1.28,0,0,1,.39-.44,1.62,1.62,0,0,1,.5-.23,2.38,2.38,0,0,1,.68-.09,2.7,2.7,0,0,1,1,.16,1.32,1.32,0,0,1,.61.43,1.68,1.68,0,0,1,.27.72l-.77.11a.85.85,0,0,0-.3-.56,1.12,1.12,0,0,0-.71-.2,1.29,1.29,0,0,0-.78.18.52.52,0,0,0-.23.42.44.44,0,0,0,.1.28.7.7,0,0,0,.3.21l.7.2a9.68,9.68,0,0,1,1.17.37,1.19,1.19,0,0,1,.52.42,1.16,1.16,0,0,1,.19.68,1.33,1.33,0,0,1-.23.75,1.48,1.48,0,0,1-.67.54,2.41,2.41,0,0,1-1,.19,2.19,2.19,0,0,1-1.39-.38A1.76,1.76,0,0,1,135.23,79.4Z" transform="translate(-0.52 -0.52)"/><path d="M140,80.8V74.35h.79v2.31a1.77,1.77,0,0,1,1.4-.64,1.89,1.89,0,0,1,.9.2,1.2,1.2,0,0,1,.55.56,2.59,2.59,0,0,1,.17,1v3h-.79v-3a1.22,1.22,0,0,0-.26-.86,1,1,0,0,0-.73-.27,1.29,1.29,0,0,0-.66.18,1,1,0,0,0-.44.49,2.27,2.27,0,0,0-.13.86V80.8Z" transform="translate(-0.52 -0.52)"/><path d="M144.75,78.46a2.4,2.4,0,0,1,.72-1.92,2.17,2.17,0,0,1,1.47-.52,2.09,2.09,0,0,1,1.57.63,2.4,2.4,0,0,1,.61,1.74,3.09,3.09,0,0,1-.27,1.42,1.91,1.91,0,0,1-.79.8,2.29,2.29,0,0,1-1.13.29,2.1,2.1,0,0,1-1.58-.63A2.51,2.51,0,0,1,144.75,78.46Zm.81,0a2,2,0,0,0,.39,1.34,1.3,1.3,0,0,0,2,0,2,2,0,0,0,.39-1.37,1.93,1.93,0,0,0-.39-1.31,1.3,1.3,0,0,0-2,0A2,2,0,0,0,145.57,78.46Z" transform="translate(-0.52 -0.52)"/><path d="M153.11,80.8v-.69a1.71,1.71,0,0,1-1.48.79,1.89,1.89,0,0,1-.77-.16,1.27,1.27,0,0,1-.53-.4,1.49,1.49,0,0,1-.24-.59,4,4,0,0,1,0-.74V76.13h.79v2.59a4.63,4.63,0,0,0,0,.83.82.82,0,0,0,.32.49,1,1,0,0,0,.6.18,1.31,1.31,0,0,0,.67-.18,1,1,0,0,0,.44-.5,2.48,2.48,0,0,0,.13-.91v-2.5h.79V80.8Z" transform="translate(-0.52 -0.52)"/><path d="M155,80.8V74.35h.79V80.8Z" transform="translate(-0.52 -0.52)"/><path d="M160.08,80.8v-.59a1.45,1.45,0,0,1-1.3.69,1.83,1.83,0,0,1-1-.31,2,2,0,0,1-.73-.86,3,3,0,0,1-.26-1.27A3.3,3.3,0,0,1,157,77.2a1.83,1.83,0,0,1,.7-.87,1.87,1.87,0,0,1,1-.3,1.56,1.56,0,0,1,.75.18,1.58,1.58,0,0,1,.54.46V74.35h.79V80.8Zm-2.5-2.33a2,2,0,0,0,.38,1.34,1.14,1.14,0,0,0,.89.44,1.12,1.12,0,0,0,.88-.42,2,2,0,0,0,.36-1.29,2.19,2.19,0,0,0-.37-1.41,1.14,1.14,0,0,0-.91-.45,1.09,1.09,0,0,0-.88.43A2.12,2.12,0,0,0,157.58,78.47Z" transform="translate(-0.52 -0.52)"/><path d="M165.29,80.8h-.73V74.35h.79v2.3a1.57,1.57,0,0,1,1.28-.63,2,2,0,0,1,.82.17,1.66,1.66,0,0,1,.63.49,2.37,2.37,0,0,1,.39.76,3.16,3.16,0,0,1,.14.95,2.67,2.67,0,0,1-.59,1.85,1.86,1.86,0,0,1-1.42.66,1.49,1.49,0,0,1-1.3-.69Zm0-2.37a2.41,2.41,0,0,0,.23,1.21,1.13,1.13,0,0,0,1.91.16,2,2,0,0,0,.38-1.34,2.08,2.08,0,0,0-.36-1.35,1.1,1.1,0,0,0-.88-.43,1.14,1.14,0,0,0-.9.45A2,2,0,0,0,165.28,78.43Z" transform="translate(-0.52 -0.52)"/><path d="M172.76,79.29l.82.1a2,2,0,0,1-.72,1.11,2.15,2.15,0,0,1-1.34.4,2.13,2.13,0,0,1-1.62-.63,2.46,2.46,0,0,1-.6-1.77,2.58,2.58,0,0,1,.61-1.83,2.05,2.05,0,0,1,1.57-.65,2,2,0,0,1,1.53.64,2.54,2.54,0,0,1,.59,1.79s0,.12,0,.21h-3.48a1.79,1.79,0,0,0,.44,1.18,1.3,1.3,0,0,0,1,.41,1.21,1.21,0,0,0,.74-.23A1.52,1.52,0,0,0,172.76,79.29ZM170.17,78h2.61a1.58,1.58,0,0,0-.3-.88,1.21,1.21,0,0,0-1-.46,1.26,1.26,0,0,0-.92.36A1.44,1.44,0,0,0,170.17,78Z" transform="translate(-0.52 -0.52)"/><path d="M180.27,79.29l.82.1a2,2,0,0,1-.72,1.11,2.15,2.15,0,0,1-1.34.4,2.13,2.13,0,0,1-1.62-.63,2.46,2.46,0,0,1-.6-1.77,2.58,2.58,0,0,1,.61-1.83A2.05,2.05,0,0,1,179,76a2,2,0,0,1,1.53.64,2.54,2.54,0,0,1,.59,1.79s0,.12,0,.21h-3.48a1.79,1.79,0,0,0,.44,1.18,1.3,1.3,0,0,0,1,.41,1.21,1.21,0,0,0,.74-.23A1.52,1.52,0,0,0,180.27,79.29ZM177.67,78h2.61a1.58,1.58,0,0,0-.3-.88,1.21,1.21,0,0,0-1-.46,1.26,1.26,0,0,0-.92.36A1.44,1.44,0,0,0,177.67,78Z" transform="translate(-0.52 -0.52)"/><path d="M181.55,80.8l1.71-2.43-1.58-2.24h1l.72,1.09.33.52.36-.51.79-1.1h.94l-1.61,2.2,1.74,2.47h-1l-1-1.45-.25-.39-1.23,1.84Z" transform="translate(-0.52 -0.52)"/><path d="M189.62,80.22a3,3,0,0,1-.85.53,2.45,2.45,0,0,1-.87.15,1.69,1.69,0,0,1-1.18-.38,1.24,1.24,0,0,1-.41-1,1.27,1.27,0,0,1,.16-.63,1.29,1.29,0,0,1,.41-.46,1.93,1.93,0,0,1,.57-.26,5.67,5.67,0,0,1,.7-.12,7.22,7.22,0,0,0,1.41-.27c0-.11,0-.18,0-.21a.88.88,0,0,0-.22-.68,1.33,1.33,0,0,0-.9-.27,1.39,1.39,0,0,0-.82.2,1.19,1.19,0,0,0-.39.69l-.77-.11a1.92,1.92,0,0,1,.35-.8,1.52,1.52,0,0,1,.7-.47,3.1,3.1,0,0,1,1.06-.17,2.8,2.8,0,0,1,1,.14,1.29,1.29,0,0,1,.55.35,1.25,1.25,0,0,1,.25.54,4.44,4.44,0,0,1,0,.73v1.05a11.36,11.36,0,0,0,0,1.4,1.77,1.77,0,0,0,.2.56h-.83A1.68,1.68,0,0,1,189.62,80.22Zm-.07-1.77a5.81,5.81,0,0,1-1.29.3,3,3,0,0,0-.69.16.68.68,0,0,0-.31.26.66.66,0,0,0-.11.38.67.67,0,0,0,.24.53,1,1,0,0,0,.7.21,1.63,1.63,0,0,0,.81-.2,1.23,1.23,0,0,0,.52-.55,1.91,1.91,0,0,0,.13-.79Z" transform="translate(-0.52 -0.52)"/><path d="M191.58,80.8V76.13h.71v.65a1.66,1.66,0,0,1,.58-.55,1.64,1.64,0,0,1,.83-.21,1.54,1.54,0,0,1,.85.21,1.16,1.16,0,0,1,.47.6,1.68,1.68,0,0,1,1.44-.82,1.42,1.42,0,0,1,1.07.38,1.64,1.64,0,0,1,.37,1.18v3.2h-.79V77.86a2.17,2.17,0,0,0-.08-.68.66.66,0,0,0-.28-.34.87.87,0,0,0-.47-.13,1.11,1.11,0,0,0-.82.33,1.44,1.44,0,0,0-.33,1V80.8h-.79v-3a1.33,1.33,0,0,0-.19-.79.73.73,0,0,0-.63-.26,1.15,1.15,0,0,0-.62.18,1,1,0,0,0-.41.51,2.9,2.9,0,0,0-.13,1V80.8Z" transform="translate(-0.52 -0.52)"/><path d="M199.09,75.26v-.91h.79v.91Zm0,5.53V76.13h.79V80.8Z" transform="translate(-0.52 -0.52)"/><path d="M201.08,80.8V76.13h.71v.66a1.68,1.68,0,0,1,1.49-.77,2,2,0,0,1,.78.15,1.23,1.23,0,0,1,.53.4,1.53,1.53,0,0,1,.25.58,4.52,4.52,0,0,1,0,.77V80.8h-.79V78a2.1,2.1,0,0,0-.09-.72.75.75,0,0,0-.33-.38,1,1,0,0,0-.55-.14,1.28,1.28,0,0,0-.87.32,1.59,1.59,0,0,0-.37,1.22V80.8Z" transform="translate(-0.52 -0.52)"/><path d="M209.28,79.29l.82.1a2,2,0,0,1-.72,1.11,2.15,2.15,0,0,1-1.34.4,2.13,2.13,0,0,1-1.62-.63,2.46,2.46,0,0,1-.6-1.77,2.58,2.58,0,0,1,.61-1.83A2.05,2.05,0,0,1,208,76a2,2,0,0,1,1.53.64,2.54,2.54,0,0,1,.59,1.79s0,.12,0,.21h-3.48a1.79,1.79,0,0,0,.44,1.18,1.3,1.3,0,0,0,1,.41,1.21,1.21,0,0,0,.74-.23A1.52,1.52,0,0,0,209.28,79.29ZM206.68,78h2.61a1.58,1.58,0,0,0-.3-.88,1.21,1.21,0,0,0-1-.46,1.26,1.26,0,0,0-.92.36A1.44,1.44,0,0,0,206.68,78Z" transform="translate(-0.52 -0.52)"/><path d="M214.12,80.8v-.59a1.45,1.45,0,0,1-1.3.69,1.83,1.83,0,0,1-1-.31,2,2,0,0,1-.73-.86,3,3,0,0,1-.26-1.27A3.3,3.3,0,0,1,211,77.2a1.83,1.83,0,0,1,.7-.87,1.87,1.87,0,0,1,1-.3,1.56,1.56,0,0,1,.75.18,1.58,1.58,0,0,1,.54.46V74.35h.79V80.8Zm-2.5-2.33a2,2,0,0,0,.38,1.34,1.14,1.14,0,0,0,.89.44,1.12,1.12,0,0,0,.88-.42,2,2,0,0,0,.36-1.29,2.19,2.19,0,0,0-.37-1.41,1.14,1.14,0,0,0-.91-.45,1.09,1.09,0,0,0-.88.43A2.12,2.12,0,0,0,211.62,78.47Z" transform="translate(-0.52 -0.52)"/><path d="M219.33,80.8h-.73V74.35h.79v2.3a1.57,1.57,0,0,1,1.28-.63,2,2,0,0,1,.82.17,1.66,1.66,0,0,1,.63.49,2.37,2.37,0,0,1,.39.76,3.16,3.16,0,0,1,.14.95,2.67,2.67,0,0,1-.59,1.85,1.86,1.86,0,0,1-1.42.66,1.49,1.49,0,0,1-1.3-.69Zm0-2.37a2.41,2.41,0,0,0,.23,1.21,1.13,1.13,0,0,0,1.91.16,2,2,0,0,0,.38-1.34,2.08,2.08,0,0,0-.36-1.35,1.1,1.1,0,0,0-.88-.43,1.14,1.14,0,0,0-.9.45A2,2,0,0,0,219.32,78.43Z" transform="translate(-0.52 -0.52)"/><path d="M223.57,82.59l-.09-.74a1.75,1.75,0,0,0,.45.07.87.87,0,0,0,.42-.09.72.72,0,0,0,.26-.25,3.86,3.86,0,0,0,.24-.59l.07-.19-1.77-4.68H224l1,2.7q.19.51.34,1.08a10.4,10.4,0,0,1,.33-1.06l1-2.72h.79l-1.78,4.75a9.27,9.27,0,0,1-.44,1.06,1.58,1.58,0,0,1-.48.57,1.15,1.15,0,0,1-.65.18A1.57,1.57,0,0,1,223.57,82.59Z" transform="translate(-0.52 -0.52)"/><path d="M233.65,80.22a3,3,0,0,1-.85.53,2.45,2.45,0,0,1-.87.15,1.69,1.69,0,0,1-1.18-.38,1.24,1.24,0,0,1-.41-1,1.27,1.27,0,0,1,.16-.63,1.29,1.29,0,0,1,.41-.46,1.93,1.93,0,0,1,.57-.26,5.67,5.67,0,0,1,.7-.12,7.22,7.22,0,0,0,1.41-.27c0-.11,0-.18,0-.21a.88.88,0,0,0-.22-.68,1.33,1.33,0,0,0-.9-.27,1.39,1.39,0,0,0-.82.2,1.19,1.19,0,0,0-.39.69l-.77-.11a1.92,1.92,0,0,1,.35-.8,1.52,1.52,0,0,1,.7-.47,3.1,3.1,0,0,1,1.06-.17,2.8,2.8,0,0,1,1,.14,1.29,1.29,0,0,1,.55.35,1.25,1.25,0,0,1,.25.54,4.44,4.44,0,0,1,0,.73v1.05a11.36,11.36,0,0,0,0,1.4,1.77,1.77,0,0,0,.2.56h-.83A1.68,1.68,0,0,1,233.65,80.22Zm-.07-1.77a5.81,5.81,0,0,1-1.29.3,3,3,0,0,0-.69.16.68.68,0,0,0-.31.26.66.66,0,0,0-.11.38.67.67,0,0,0,.24.53,1,1,0,0,0,.7.21,1.63,1.63,0,0,0,.81-.2,1.23,1.23,0,0,0,.52-.55,1.91,1.91,0,0,0,.13-.79Z" transform="translate(-0.52 -0.52)"/><path d="M241.08,82.58V80.3a1.41,1.41,0,0,1-.52.43,1.51,1.51,0,0,1-.71.17,1.87,1.87,0,0,1-1.43-.66,2.62,2.62,0,0,1-.6-1.82,3.11,3.11,0,0,1,.24-1.26,1.82,1.82,0,0,1,.71-.85,1.89,1.89,0,0,1,1-.29,1.56,1.56,0,0,1,1.36.73v-.62h.71v6.46Zm-2.44-4.13A2.06,2.06,0,0,0,239,79.8a1.14,1.14,0,0,0,.9.45,1.11,1.11,0,0,0,.87-.43,2,2,0,0,0,.36-1.3,2.18,2.18,0,0,0-.38-1.4,1.14,1.14,0,0,0-.9-.47,1.09,1.09,0,0,0-.87.44A2.14,2.14,0,0,0,238.65,78.45Z" transform="translate(-0.52 -0.52)"/><path d="M246.17,80.8v-.69a1.71,1.71,0,0,1-1.48.79,1.89,1.89,0,0,1-.77-.16,1.27,1.27,0,0,1-.53-.4,1.49,1.49,0,0,1-.24-.59,4,4,0,0,1,0-.74V76.13h.79v2.59a4.63,4.63,0,0,0,0,.83.82.82,0,0,0,.32.49,1,1,0,0,0,.6.18,1.31,1.31,0,0,0,.67-.18,1,1,0,0,0,.44-.5,2.48,2.48,0,0,0,.13-.91v-2.5h.79V80.8Z" transform="translate(-0.52 -0.52)"/><path d="M251.17,80.22a3,3,0,0,1-.85.53,2.45,2.45,0,0,1-.87.15,1.69,1.69,0,0,1-1.18-.38,1.24,1.24,0,0,1-.41-1,1.27,1.27,0,0,1,.16-.63,1.29,1.29,0,0,1,.41-.46,1.93,1.93,0,0,1,.57-.26,5.67,5.67,0,0,1,.7-.12,7.22,7.22,0,0,0,1.41-.27c0-.11,0-.18,0-.21a.88.88,0,0,0-.22-.68,1.33,1.33,0,0,0-.9-.27,1.39,1.39,0,0,0-.82.2,1.19,1.19,0,0,0-.39.69l-.77-.11a1.92,1.92,0,0,1,.35-.8,1.52,1.52,0,0,1,.7-.47,3.1,3.1,0,0,1,1.06-.17,2.8,2.8,0,0,1,1,.14,1.29,1.29,0,0,1,.55.35,1.25,1.25,0,0,1,.25.54,4.44,4.44,0,0,1,0,.73v1.05a11.36,11.36,0,0,0,0,1.4,1.77,1.77,0,0,0,.2.56h-.83A1.68,1.68,0,0,1,251.17,80.22Zm-.07-1.77a5.81,5.81,0,0,1-1.29.3,3,3,0,0,0-.69.16.68.68,0,0,0-.31.26.66.66,0,0,0-.11.38.67.67,0,0,0,.24.53,1,1,0,0,0,.7.21,1.63,1.63,0,0,0,.81-.2,1.23,1.23,0,0,0,.52-.55,1.91,1.91,0,0,0,.13-.79Z" transform="translate(-0.52 -0.52)"/><path d="M253.11,80.8V74.35h.79V80.8Z" transform="translate(-0.52 -0.52)"/><path d="M255.13,75.26v-.91h.79v.91Zm0,5.53V76.13h.79V80.8Z" transform="translate(-0.52 -0.52)"/><path d="M257.31,80.8V76.75h-.7v-.62h.7v-.5a2.17,2.17,0,0,1,.08-.7,1,1,0,0,1,.4-.5,1.46,1.46,0,0,1,.81-.19,3.87,3.87,0,0,1,.74.08l-.12.69a2.65,2.65,0,0,0-.46,0,.69.69,0,0,0-.51.15.83.83,0,0,0-.15.58v.43H259v.62h-.91V80.8Z" transform="translate(-0.52 -0.52)"/><path d="M259.63,75.26v-.91h.79v.91Zm0,5.53V76.13h.79V80.8Z" transform="translate(-0.52 -0.52)"/><path d="M264.82,79.29l.82.1a2,2,0,0,1-.72,1.11,2.15,2.15,0,0,1-1.34.4,2.13,2.13,0,0,1-1.62-.63,2.46,2.46,0,0,1-.6-1.77,2.58,2.58,0,0,1,.61-1.83,2.05,2.05,0,0,1,1.57-.65,2,2,0,0,1,1.53.64,2.54,2.54,0,0,1,.59,1.79s0,.12,0,.21h-3.48a1.79,1.79,0,0,0,.44,1.18,1.3,1.3,0,0,0,1,.41,1.21,1.21,0,0,0,.74-.23A1.52,1.52,0,0,0,264.82,79.29ZM262.22,78h2.61a1.58,1.58,0,0,0-.3-.88,1.21,1.21,0,0,0-1-.46,1.26,1.26,0,0,0-.92.36A1.44,1.44,0,0,0,262.22,78Z" transform="translate(-0.52 -0.52)"/><path d="M269.66,80.8v-.59a1.45,1.45,0,0,1-1.3.69,1.83,1.83,0,0,1-1-.31,2,2,0,0,1-.73-.86,3,3,0,0,1-.26-1.27,3.3,3.3,0,0,1,.23-1.27,1.83,1.83,0,0,1,.7-.87,1.87,1.87,0,0,1,1-.3,1.56,1.56,0,0,1,.75.18,1.58,1.58,0,0,1,.54.46V74.35h.79V80.8Zm-2.5-2.33a2,2,0,0,0,.38,1.34,1.14,1.14,0,0,0,.89.44,1.12,1.12,0,0,0,.88-.42,2,2,0,0,0,.36-1.29,2.19,2.19,0,0,0-.37-1.41,1.14,1.14,0,0,0-.91-.45,1.09,1.09,0,0,0-.88.43A2.12,2.12,0,0,0,267.16,78.47Z" transform="translate(-0.52 -0.52)"/><path d="M273.82,79.4l.78-.12A1.1,1.1,0,0,0,275,80a1.28,1.28,0,0,0,.84.25,1.24,1.24,0,0,0,.81-.22.67.67,0,0,0,.26-.52.48.48,0,0,0-.23-.42,3.47,3.47,0,0,0-.81-.27,7.47,7.47,0,0,1-1.21-.38,1.15,1.15,0,0,1-.68-1.07,1.2,1.2,0,0,1,.14-.58,1.28,1.28,0,0,1,.39-.44,1.62,1.62,0,0,1,.5-.23,2.38,2.38,0,0,1,.68-.09,2.7,2.7,0,0,1,1,.16,1.32,1.32,0,0,1,.61.43,1.68,1.68,0,0,1,.27.72l-.77.11a.85.85,0,0,0-.3-.56,1.12,1.12,0,0,0-.71-.2,1.29,1.29,0,0,0-.78.18.52.52,0,0,0-.23.42.44.44,0,0,0,.1.28.7.7,0,0,0,.3.21l.7.2a9.68,9.68,0,0,1,1.17.37,1.19,1.19,0,0,1,.52.42,1.16,1.16,0,0,1,.19.68,1.33,1.33,0,0,1-.23.75,1.48,1.48,0,0,1-.67.54,2.41,2.41,0,0,1-1,.19,2.19,2.19,0,0,1-1.39-.38A1.76,1.76,0,0,1,273.82,79.4Z" transform="translate(-0.52 -0.52)"/><path d="M281.83,79.29l.82.1a2,2,0,0,1-.72,1.11,2.15,2.15,0,0,1-1.34.4,2.13,2.13,0,0,1-1.62-.63,2.46,2.46,0,0,1-.6-1.77,2.58,2.58,0,0,1,.61-1.83,2.05,2.05,0,0,1,1.57-.65,2,2,0,0,1,1.53.64,2.54,2.54,0,0,1,.59,1.79s0,.12,0,.21h-3.48a1.79,1.79,0,0,0,.44,1.18,1.3,1.3,0,0,0,1,.41,1.21,1.21,0,0,0,.74-.23A1.52,1.52,0,0,0,281.83,79.29ZM279.23,78h2.61a1.58,1.58,0,0,0-.3-.88,1.21,1.21,0,0,0-1-.46,1.26,1.26,0,0,0-.92.36A1.44,1.44,0,0,0,279.23,78Z" transform="translate(-0.52 -0.52)"/><path d="M283.63,80.8V76.13h.71v.71a1.91,1.91,0,0,1,.5-.65.88.88,0,0,1,.51-.16,1.54,1.54,0,0,1,.81.25l-.27.73a1.13,1.13,0,0,0-.58-.17.75.75,0,0,0-.47.16.84.84,0,0,0-.29.43,3.08,3.08,0,0,0-.13.92V80.8Z" transform="translate(-0.52 -0.52)"/><path d="M287.94,80.8l-1.78-4.67H287l1,2.79q.16.45.3.94.11-.37.29-.89l1-2.85h.81l-1.77,4.67Z" transform="translate(-0.52 -0.52)"/><path d="M291.14,75.26v-.91h.79v.91Zm0,5.53V76.13h.79V80.8Z" transform="translate(-0.52 -0.52)"/><path d="M296.18,79.09l.78.1a2,2,0,0,1-.65,1.26,1.9,1.9,0,0,1-1.29.46,2,2,0,0,1-1.54-.63,2.55,2.55,0,0,1-.58-1.8,3.26,3.26,0,0,1,.25-1.32,1.76,1.76,0,0,1,.76-.85A2.27,2.27,0,0,1,295,76a1.94,1.94,0,0,1,1.24.38,1.77,1.77,0,0,1,.62,1.09l-.77.12a1.27,1.27,0,0,0-.39-.71,1,1,0,0,0-.67-.24,1.23,1.23,0,0,0-1,.43,2,2,0,0,0-.37,1.36,2.09,2.09,0,0,0,.36,1.37,1.17,1.17,0,0,0,.94.43,1.11,1.11,0,0,0,.78-.29A1.42,1.42,0,0,0,296.18,79.09Z" transform="translate(-0.52 -0.52)"/><path d="M300.83,79.29l.82.1a2,2,0,0,1-.72,1.11,2.15,2.15,0,0,1-1.34.4,2.13,2.13,0,0,1-1.62-.63,2.46,2.46,0,0,1-.6-1.77,2.58,2.58,0,0,1,.61-1.83,2.05,2.05,0,0,1,1.57-.65,2,2,0,0,1,1.53.64,2.54,2.54,0,0,1,.59,1.79s0,.12,0,.21h-3.48a1.79,1.79,0,0,0,.44,1.18,1.3,1.3,0,0,0,1,.41,1.21,1.21,0,0,0,.74-.23A1.52,1.52,0,0,0,300.83,79.29ZM298.24,78h2.61a1.58,1.58,0,0,0-.3-.88,1.21,1.21,0,0,0-1-.46,1.26,1.26,0,0,0-.92.36A1.44,1.44,0,0,0,298.24,78Z" transform="translate(-0.52 -0.52)"/><path d="M95.56,90.22a2.91,2.91,0,0,1-.85.53,2.45,2.45,0,0,1-.87.15,1.69,1.69,0,0,1-1.18-.38,1.24,1.24,0,0,1-.41-1,1.3,1.3,0,0,1,.56-1.08,1.92,1.92,0,0,1,.57-.26,5.63,5.63,0,0,1,.7-.12,7.23,7.23,0,0,0,1.41-.27c0-.11,0-.18,0-.21a.87.87,0,0,0-.22-.68,1.32,1.32,0,0,0-.9-.27,1.39,1.39,0,0,0-.82.2,1.19,1.19,0,0,0-.39.69l-.77-.11a1.92,1.92,0,0,1,.35-.8,1.52,1.52,0,0,1,.7-.47A3.1,3.1,0,0,1,94.48,86a2.8,2.8,0,0,1,1,.14,1.28,1.28,0,0,1,.55.35,1.25,1.25,0,0,1,.25.54,4.48,4.48,0,0,1,0,.73v1.05a11.19,11.19,0,0,0,.05,1.39,1.76,1.76,0,0,0,.2.56h-.83A1.67,1.67,0,0,1,95.56,90.22Zm-.07-1.77a5.8,5.8,0,0,1-1.29.3,3,3,0,0,0-.69.16.68.68,0,0,0-.31.26.7.7,0,0,0,.13.9,1,1,0,0,0,.7.21,1.64,1.64,0,0,0,.81-.2,1.23,1.23,0,0,0,.52-.55,1.9,1.9,0,0,0,.13-.79Z" transform="translate(-0.52 -0.52)"/><path d="M97.37,91.18l.77.11a.73.73,0,0,0,.27.52,1.32,1.32,0,0,0,.8.22,1.41,1.41,0,0,0,.85-.22,1.08,1.08,0,0,0,.4-.62,5.05,5.05,0,0,0,.06-1,1.62,1.62,0,0,1-1.29.61,1.76,1.76,0,0,1-1.49-.69,2.67,2.67,0,0,1-.53-1.67,3.11,3.11,0,0,1,.24-1.23,1.94,1.94,0,0,1,.7-.87A1.89,1.89,0,0,1,99.23,86a1.67,1.67,0,0,1,1.36.67v-.56h.73v4a3.84,3.84,0,0,1-.22,1.54,1.63,1.63,0,0,1-.7.72,2.44,2.44,0,0,1-1.18.26,2.24,2.24,0,0,1-1.35-.38A1.27,1.27,0,0,1,97.37,91.18Zm.65-2.8a2,2,0,0,0,.36,1.34,1.16,1.16,0,0,0,.91.42,1.17,1.17,0,0,0,.91-.42,2,2,0,0,0,.37-1.32,1.92,1.92,0,0,0-.38-1.29,1.18,1.18,0,0,0-.92-.43,1.14,1.14,0,0,0-.9.43A1.9,1.9,0,0,0,98,88.38Z" transform="translate(-0.52 -0.52)"/><path d="M105.72,89.29l.82.1a2,2,0,0,1-.72,1.11,2.15,2.15,0,0,1-1.34.4,2.13,2.13,0,0,1-1.62-.63,2.46,2.46,0,0,1-.6-1.77,2.58,2.58,0,0,1,.61-1.83,2.05,2.05,0,0,1,1.57-.65,2,2,0,0,1,1.53.64,2.53,2.53,0,0,1,.59,1.79s0,.12,0,.21h-3.48a1.8,1.8,0,0,0,.44,1.18,1.3,1.3,0,0,0,1,.41,1.21,1.21,0,0,0,.74-.23A1.52,1.52,0,0,0,105.72,89.29ZM103.12,88h2.61a1.58,1.58,0,0,0-.3-.88,1.21,1.21,0,0,0-1-.46,1.26,1.26,0,0,0-.92.36A1.45,1.45,0,0,0,103.12,88Z" transform="translate(-0.52 -0.52)"/><path d="M107.53,90.8V86.13h.71v.66a1.68,1.68,0,0,1,1.49-.77,2,2,0,0,1,.78.15,1.23,1.23,0,0,1,.53.4,1.52,1.52,0,0,1,.25.58,4.54,4.54,0,0,1,0,.77V90.8h-.79V88a2.13,2.13,0,0,0-.09-.72.76.76,0,0,0-.33-.38,1,1,0,0,0-.55-.14,1.28,1.28,0,0,0-.87.32,1.58,1.58,0,0,0-.37,1.22V90.8Z" transform="translate(-0.52 -0.52)"/><path d="M115.58,89.09l.78.1a2,2,0,0,1-.65,1.26,1.9,1.9,0,0,1-1.29.46,2,2,0,0,1-1.54-.63,2.54,2.54,0,0,1-.58-1.8,3.25,3.25,0,0,1,.25-1.32,1.75,1.75,0,0,1,.76-.85,2.27,2.27,0,0,1,1.11-.28,1.93,1.93,0,0,1,1.24.38,1.76,1.76,0,0,1,.62,1.09l-.77.12a1.28,1.28,0,0,0-.39-.71,1,1,0,0,0-.67-.24,1.23,1.23,0,0,0-1,.43,2,2,0,0,0-.37,1.36,2.1,2.1,0,0,0,.36,1.37,1.17,1.17,0,0,0,.94.43,1.11,1.11,0,0,0,.78-.29A1.42,1.42,0,0,0,115.58,89.09Z" transform="translate(-0.52 -0.52)"/><path d="M117,92.59l-.09-.74a1.76,1.76,0,0,0,.45.07.87.87,0,0,0,.42-.09.72.72,0,0,0,.26-.25,3.88,3.88,0,0,0,.24-.59l.07-.19-1.77-4.68h.85l1,2.7c.13.34.24.7.34,1.08a10.74,10.74,0,0,1,.33-1.06l1-2.72h.79l-1.78,4.75a9.33,9.33,0,0,1-.44,1.06,1.57,1.57,0,0,1-.48.57,1.15,1.15,0,0,1-.65.18A1.59,1.59,0,0,1,117,92.59Z" transform="translate(-0.52 -0.52)"/><path d="M124.76,90.8H124V84.35h.79v2.3A1.57,1.57,0,0,1,126.1,86a2,2,0,0,1,.82.17,1.66,1.66,0,0,1,.63.49,2.38,2.38,0,0,1,.39.76,3.17,3.17,0,0,1,.14.95,2.67,2.67,0,0,1-.59,1.86,1.86,1.86,0,0,1-1.42.65,1.49,1.49,0,0,1-1.3-.69Zm0-2.37a2.41,2.41,0,0,0,.23,1.21,1.13,1.13,0,0,0,1.91.16,2,2,0,0,0,.38-1.34,2.08,2.08,0,0,0-.36-1.35,1.1,1.1,0,0,0-.88-.43,1.14,1.14,0,0,0-.9.45A2,2,0,0,0,124.75,88.43Z" transform="translate(-0.52 -0.52)"/><path d="M132.23,89.29l.82.1a2,2,0,0,1-.72,1.11,2.15,2.15,0,0,1-1.34.4,2.13,2.13,0,0,1-1.62-.63,2.46,2.46,0,0,1-.6-1.77,2.58,2.58,0,0,1,.61-1.83A2.05,2.05,0,0,1,131,86a2,2,0,0,1,1.53.64,2.54,2.54,0,0,1,.59,1.79s0,.12,0,.21h-3.48a1.8,1.8,0,0,0,.44,1.18,1.3,1.3,0,0,0,1,.41,1.21,1.21,0,0,0,.74-.23A1.52,1.52,0,0,0,132.23,89.29ZM129.64,88h2.61a1.58,1.58,0,0,0-.3-.88,1.21,1.21,0,0,0-1-.46A1.26,1.26,0,0,0,130,87,1.45,1.45,0,0,0,129.64,88Z" transform="translate(-0.52 -0.52)"/><path d="M134.23,90.8V86.75h-.7v-.62h.7v-.5a2.18,2.18,0,0,1,.08-.7,1,1,0,0,1,.4-.5,1.46,1.46,0,0,1,.81-.19,3.87,3.87,0,0,1,.74.08l-.12.69a2.65,2.65,0,0,0-.46,0,.69.69,0,0,0-.51.15.83.83,0,0,0-.15.58v.43h.91v.62H135V90.8Z" transform="translate(-0.52 -0.52)"/><path d="M136.25,88.46a2.41,2.41,0,0,1,.72-1.92,2.17,2.17,0,0,1,1.47-.52,2.09,2.09,0,0,1,1.57.63,2.4,2.4,0,0,1,.61,1.74,3.09,3.09,0,0,1-.27,1.42,1.91,1.91,0,0,1-.79.8,2.3,2.3,0,0,1-1.13.29,2.09,2.09,0,0,1-1.58-.63A2.5,2.5,0,0,1,136.25,88.46Zm.81,0a2,2,0,0,0,.39,1.34,1.3,1.3,0,0,0,2,0,2,2,0,0,0,.39-1.37,1.93,1.93,0,0,0-.39-1.31,1.3,1.3,0,0,0-2,0A2,2,0,0,0,137.06,88.46Z" transform="translate(-0.52 -0.52)"/><path d="M141.54,90.8V86.13h.71v.71a1.92,1.92,0,0,1,.5-.66.88.88,0,0,1,.51-.16,1.54,1.54,0,0,1,.81.25l-.27.73a1.12,1.12,0,0,0-.58-.17.75.75,0,0,0-.47.16.84.84,0,0,0-.29.43,3.08,3.08,0,0,0-.13.92V90.8Z" transform="translate(-0.52 -0.52)"/><path d="M147.74,89.29l.82.1a2,2,0,0,1-.72,1.11,2.15,2.15,0,0,1-1.34.4,2.13,2.13,0,0,1-1.62-.63,2.46,2.46,0,0,1-.6-1.77,2.58,2.58,0,0,1,.61-1.83,2.05,2.05,0,0,1,1.57-.65,2,2,0,0,1,1.53.64,2.54,2.54,0,0,1,.59,1.79s0,.12,0,.21H145.1a1.8,1.8,0,0,0,.44,1.18,1.3,1.3,0,0,0,1,.41,1.21,1.21,0,0,0,.74-.23A1.52,1.52,0,0,0,147.74,89.29ZM145.14,88h2.61a1.58,1.58,0,0,0-.3-.88,1.21,1.21,0,0,0-1-.46,1.26,1.26,0,0,0-.92.36A1.45,1.45,0,0,0,145.14,88Z" transform="translate(-0.52 -0.52)"/><path d="M152.06,85.26v-.91h.79v.91Zm0,5.53V86.13h.79V90.8Z" transform="translate(-0.52 -0.52)"/><path d="M155.78,90.09l.11.7a2.93,2.93,0,0,1-.6.07,1.36,1.36,0,0,1-.67-.14.77.77,0,0,1-.33-.36,2.84,2.84,0,0,1-.1-.93V86.75h-.58v-.62h.58V85l.79-.48v1.63h.79v.62H155v2.73a1.4,1.4,0,0,0,0,.43.32.32,0,0,0,.14.15.51.51,0,0,0,.27.06Z" transform="translate(-0.52 -0.52)"/><path d="M159.06,85.26v-.91h.79v.91Zm0,5.53V86.13h.79V90.8Z" transform="translate(-0.52 -0.52)"/><path d="M160.74,89.4l.78-.12a1.1,1.1,0,0,0,.37.72,1.29,1.29,0,0,0,.84.25,1.24,1.24,0,0,0,.81-.22.66.66,0,0,0,.26-.52.48.48,0,0,0-.23-.42,3.46,3.46,0,0,0-.81-.27,7.47,7.47,0,0,1-1.21-.38,1.15,1.15,0,0,1-.68-1.07,1.2,1.2,0,0,1,.14-.58,1.28,1.28,0,0,1,.39-.44,1.62,1.62,0,0,1,.5-.23,2.38,2.38,0,0,1,.68-.09,2.7,2.7,0,0,1,1,.16,1.32,1.32,0,0,1,.61.43,1.68,1.68,0,0,1,.27.72l-.77.11a.85.85,0,0,0-.3-.56,1.12,1.12,0,0,0-.71-.2,1.29,1.29,0,0,0-.78.18.52.52,0,0,0-.23.42.43.43,0,0,0,.1.28.7.7,0,0,0,.3.21l.7.2a9.68,9.68,0,0,1,1.17.37,1.19,1.19,0,0,1,.52.42,1.16,1.16,0,0,1,.19.68,1.33,1.33,0,0,1-.23.75,1.48,1.48,0,0,1-.67.54,2.41,2.41,0,0,1-1,.19,2.19,2.19,0,0,1-1.39-.38A1.75,1.75,0,0,1,160.74,89.4Z" transform="translate(-0.52 -0.52)"/><path d="M168.05,92.59V86.13h.72v.61a1.77,1.77,0,0,1,.58-.53,1.59,1.59,0,0,1,.78-.18,1.85,1.85,0,0,1,1.05.31,1.89,1.89,0,0,1,.69.87,3.17,3.17,0,0,1,.23,1.23,3.11,3.11,0,0,1-.26,1.29,2,2,0,0,1-1.78,1.18,1.49,1.49,0,0,1-.71-.17,1.61,1.61,0,0,1-.52-.42v2.27Zm.72-4.1a2,2,0,0,0,.36,1.33,1.12,1.12,0,0,0,.88.43,1.14,1.14,0,0,0,.9-.45,2.12,2.12,0,0,0,.38-1.38,2.06,2.06,0,0,0-.37-1.34,1.11,1.11,0,0,0-.88-.44,1.14,1.14,0,0,0-.89.47A2.12,2.12,0,0,0,168.77,88.49Z" transform="translate(-0.52 -0.52)"/><path d="M173,90.8V84.35h.79V90.8Z" transform="translate(-0.52 -0.52)"/><path d="M178.1,90.22a2.91,2.91,0,0,1-.85.53,2.45,2.45,0,0,1-.87.15,1.69,1.69,0,0,1-1.18-.38,1.24,1.24,0,0,1-.41-1,1.27,1.27,0,0,1,.16-.63,1.29,1.29,0,0,1,.41-.46,1.93,1.93,0,0,1,.57-.26,5.63,5.63,0,0,1,.7-.12,7.22,7.22,0,0,0,1.41-.27c0-.11,0-.18,0-.21a.88.88,0,0,0-.22-.68,1.33,1.33,0,0,0-.9-.27,1.4,1.4,0,0,0-.82.2,1.2,1.2,0,0,0-.39.69l-.77-.11a1.92,1.92,0,0,1,.35-.8,1.52,1.52,0,0,1,.7-.47A3.1,3.1,0,0,1,177,86a2.8,2.8,0,0,1,1,.14,1.29,1.29,0,0,1,.55.35,1.25,1.25,0,0,1,.25.54,4.46,4.46,0,0,1,0,.73v1.05a11.34,11.34,0,0,0,0,1.39,1.77,1.77,0,0,0,.2.56h-.83A1.67,1.67,0,0,1,178.1,90.22ZM178,88.46a5.81,5.81,0,0,1-1.29.3,3,3,0,0,0-.69.16.68.68,0,0,0-.31.26.67.67,0,0,0-.11.38.67.67,0,0,0,.24.53,1,1,0,0,0,.7.21,1.63,1.63,0,0,0,.81-.2,1.23,1.23,0,0,0,.52-.55,1.91,1.91,0,0,0,.13-.79Z" transform="translate(-0.52 -0.52)"/><path d="M183.11,89.09l.78.1a2,2,0,0,1-.65,1.26,1.9,1.9,0,0,1-1.29.46,2,2,0,0,1-1.54-.63,2.54,2.54,0,0,1-.58-1.8,3.27,3.27,0,0,1,.25-1.32,1.76,1.76,0,0,1,.76-.85,2.27,2.27,0,0,1,1.11-.28,1.94,1.94,0,0,1,1.24.38,1.77,1.77,0,0,1,.62,1.09l-.77.12a1.28,1.28,0,0,0-.39-.71,1,1,0,0,0-.67-.24,1.23,1.23,0,0,0-1,.43,2,2,0,0,0-.37,1.36,2.1,2.1,0,0,0,.36,1.37,1.17,1.17,0,0,0,.94.43,1.11,1.11,0,0,0,.78-.29A1.42,1.42,0,0,0,183.11,89.09Z" transform="translate(-0.52 -0.52)"/><path d="M187.76,89.29l.82.1a2,2,0,0,1-.72,1.11,2.15,2.15,0,0,1-1.34.4,2.13,2.13,0,0,1-1.62-.63,2.46,2.46,0,0,1-.6-1.77,2.58,2.58,0,0,1,.61-1.83,2.05,2.05,0,0,1,1.57-.65,2,2,0,0,1,1.53.64,2.54,2.54,0,0,1,.59,1.79s0,.12,0,.21h-3.48a1.8,1.8,0,0,0,.44,1.18,1.3,1.3,0,0,0,1,.41,1.21,1.21,0,0,0,.74-.23A1.52,1.52,0,0,0,187.76,89.29ZM185.16,88h2.61a1.58,1.58,0,0,0-.3-.88,1.21,1.21,0,0,0-1-.46,1.26,1.26,0,0,0-.92.36A1.45,1.45,0,0,0,185.16,88Z" transform="translate(-0.52 -0.52)"/><path d="M192.6,90.8v-.59a1.45,1.45,0,0,1-1.3.69,1.83,1.83,0,0,1-1-.31,2,2,0,0,1-.73-.86,3,3,0,0,1-.26-1.27,3.3,3.3,0,0,1,.23-1.27,1.82,1.82,0,0,1,.7-.87,1.86,1.86,0,0,1,1-.3,1.56,1.56,0,0,1,.75.18,1.58,1.58,0,0,1,.54.46V84.35h.79V90.8Zm-2.5-2.33a2,2,0,0,0,.38,1.34,1.14,1.14,0,0,0,.89.44,1.12,1.12,0,0,0,.88-.42,2,2,0,0,0,.36-1.29,2.2,2.2,0,0,0-.37-1.41,1.14,1.14,0,0,0-.91-.45,1.1,1.1,0,0,0-.88.43A2.13,2.13,0,0,0,190.1,88.47Z" transform="translate(-0.52 -0.52)"/><path d="M197.08,85.26v-.91h.79v.91Zm0,5.53V86.13h.79V90.8Z" transform="translate(-0.52 -0.52)"/><path d="M199.07,90.8V86.13h.71v.66a1.68,1.68,0,0,1,1.49-.77,2,2,0,0,1,.78.15,1.23,1.23,0,0,1,.53.4,1.52,1.52,0,0,1,.25.58,4.54,4.54,0,0,1,0,.77V90.8h-.79V88a2.1,2.1,0,0,0-.09-.72.75.75,0,0,0-.33-.38,1,1,0,0,0-.55-.14,1.28,1.28,0,0,0-.87.32,1.58,1.58,0,0,0-.37,1.22V90.8Z" transform="translate(-0.52 -0.52)"/><path d="M206.28,88.46a2.41,2.41,0,0,1,.72-1.92,2.17,2.17,0,0,1,1.47-.52,2.09,2.09,0,0,1,1.57.63,2.4,2.4,0,0,1,.61,1.74,3.09,3.09,0,0,1-.27,1.42,1.91,1.91,0,0,1-.79.8,2.3,2.3,0,0,1-1.13.29,2.09,2.09,0,0,1-1.58-.63A2.5,2.5,0,0,1,206.28,88.46Zm.81,0a2,2,0,0,0,.39,1.34,1.3,1.3,0,0,0,2,0,2,2,0,0,0,.39-1.37,1.93,1.93,0,0,0-.39-1.31,1.3,1.3,0,0,0-2,0A2,2,0,0,0,207.1,88.46Z" transform="translate(-0.52 -0.52)"/><path d="M211.58,92.59V86.13h.72v.61a1.77,1.77,0,0,1,.58-.53,1.59,1.59,0,0,1,.78-.18,1.85,1.85,0,0,1,1.05.31,1.89,1.89,0,0,1,.69.87,3.17,3.17,0,0,1,.23,1.23,3.11,3.11,0,0,1-.26,1.29,2,2,0,0,1-1.78,1.18,1.49,1.49,0,0,1-.71-.17,1.61,1.61,0,0,1-.52-.42v2.27Zm.72-4.1a2,2,0,0,0,.36,1.33,1.12,1.12,0,0,0,.88.43,1.14,1.14,0,0,0,.9-.45,2.12,2.12,0,0,0,.38-1.38,2.06,2.06,0,0,0-.37-1.34,1.11,1.11,0,0,0-.88-.44,1.14,1.14,0,0,0-.89.47A2.12,2.12,0,0,0,212.3,88.49Z" transform="translate(-0.52 -0.52)"/><path d="M219.79,89.29l.82.1a2,2,0,0,1-.72,1.11,2.15,2.15,0,0,1-1.34.4,2.13,2.13,0,0,1-1.62-.63,2.46,2.46,0,0,1-.6-1.77,2.58,2.58,0,0,1,.61-1.83,2.05,2.05,0,0,1,1.57-.65,2,2,0,0,1,1.53.64,2.54,2.54,0,0,1,.59,1.79s0,.12,0,.21h-3.48a1.8,1.8,0,0,0,.44,1.18,1.3,1.3,0,0,0,1,.41,1.21,1.21,0,0,0,.74-.23A1.52,1.52,0,0,0,219.79,89.29ZM217.19,88h2.61a1.58,1.58,0,0,0-.3-.88,1.21,1.21,0,0,0-1-.46,1.26,1.26,0,0,0-.92.36A1.45,1.45,0,0,0,217.19,88Z" transform="translate(-0.52 -0.52)"/><path d="M221.59,90.8V86.13h.71v.71a1.92,1.92,0,0,1,.5-.66.88.88,0,0,1,.51-.16,1.54,1.54,0,0,1,.81.25l-.27.73a1.12,1.12,0,0,0-.58-.17.75.75,0,0,0-.47.16.84.84,0,0,0-.29.43,3.08,3.08,0,0,0-.13.92V90.8Z" transform="translate(-0.52 -0.52)"/><path d="M227.64,90.22a2.91,2.91,0,0,1-.85.53,2.45,2.45,0,0,1-.87.15,1.69,1.69,0,0,1-1.18-.38,1.24,1.24,0,0,1-.41-1,1.27,1.27,0,0,1,.16-.63,1.29,1.29,0,0,1,.41-.46,1.93,1.93,0,0,1,.57-.26,5.63,5.63,0,0,1,.7-.12,7.22,7.22,0,0,0,1.41-.27c0-.11,0-.18,0-.21a.88.88,0,0,0-.22-.68,1.33,1.33,0,0,0-.9-.27,1.4,1.4,0,0,0-.82.2,1.2,1.2,0,0,0-.39.69l-.77-.11a1.92,1.92,0,0,1,.35-.8,1.52,1.52,0,0,1,.7-.47,3.1,3.1,0,0,1,1.06-.17,2.8,2.8,0,0,1,1,.14,1.29,1.29,0,0,1,.55.35,1.25,1.25,0,0,1,.25.54,4.46,4.46,0,0,1,0,.73v1.05a11.34,11.34,0,0,0,0,1.39,1.77,1.77,0,0,0,.2.56h-.83A1.67,1.67,0,0,1,227.64,90.22Zm-.07-1.77a5.81,5.81,0,0,1-1.29.3,3,3,0,0,0-.69.16.68.68,0,0,0-.31.26.67.67,0,0,0-.11.38.67.67,0,0,0,.24.53,1,1,0,0,0,.7.21,1.63,1.63,0,0,0,.81-.2,1.23,1.23,0,0,0,.52-.55,1.91,1.91,0,0,0,.13-.79Z" transform="translate(-0.52 -0.52)"/><path d="M231.33,90.09l.11.7a2.93,2.93,0,0,1-.6.07,1.36,1.36,0,0,1-.67-.14.77.77,0,0,1-.33-.36,2.84,2.84,0,0,1-.1-.93V86.75h-.58v-.62h.58V85l.79-.48v1.63h.79v.62h-.79v2.73a1.4,1.4,0,0,0,0,.43.32.32,0,0,0,.14.15.51.51,0,0,0,.27.06Z" transform="translate(-0.52 -0.52)"/><path d="M232.1,85.26v-.91h.79v.91Zm0,5.53V86.13h.79V90.8Z" transform="translate(-0.52 -0.52)"/><path d="M233.8,88.46a2.41,2.41,0,0,1,.72-1.92A2.17,2.17,0,0,1,236,86a2.09,2.09,0,0,1,1.57.63,2.4,2.4,0,0,1,.61,1.74,3.09,3.09,0,0,1-.27,1.42,1.91,1.91,0,0,1-.79.8,2.3,2.3,0,0,1-1.13.29,2.09,2.09,0,0,1-1.58-.63A2.5,2.5,0,0,1,233.8,88.46Zm.81,0a2,2,0,0,0,.39,1.34,1.3,1.3,0,0,0,2,0,2,2,0,0,0,.39-1.37,1.93,1.93,0,0,0-.39-1.31,1.3,1.3,0,0,0-2,0A2,2,0,0,0,234.62,88.46Z" transform="translate(-0.52 -0.52)"/><path d="M239.1,90.8V86.13h.71v.66A1.68,1.68,0,0,1,241.3,86a2,2,0,0,1,.78.15,1.23,1.23,0,0,1,.53.4,1.52,1.52,0,0,1,.25.58,4.54,4.54,0,0,1,0,.77V90.8h-.79V88a2.1,2.1,0,0,0-.09-.72.75.75,0,0,0-.33-.38,1,1,0,0,0-.55-.14,1.28,1.28,0,0,0-.87.32,1.58,1.58,0,0,0-.37,1.22V90.8Z" transform="translate(-0.52 -0.52)"/><path d="M244.33,90.8v-.9h.9v.9Z" transform="translate(-0.52 -0.52)"/><path d="M115,39.38V30.79h6.37v1.45h-4.63v1.9H121v1.45h-4.31v2.34h4.8v1.45Z" transform="translate(-0.52 -0.52)"/><path d="M122.95,39.38V30.79h1.65v8.59Z" transform="translate(-0.52 -0.52)"/><path d="M129.88,37.4l1.64.28a2.69,2.69,0,0,1-1,1.37,2.93,2.93,0,0,1-1.71.47,2.78,2.78,0,0,1-2.4-1.06,3.56,3.56,0,0,1-.62-2.14,3.44,3.44,0,0,1,.81-2.42,2.66,2.66,0,0,1,2-.88,2.76,2.76,0,0,1,2.19.92,4.06,4.06,0,0,1,.77,2.81h-4.13a1.67,1.67,0,0,0,.4,1.14,1.25,1.25,0,0,0,.95.41,1,1,0,0,0,.65-.21A1.3,1.3,0,0,0,129.88,37.4Zm.09-1.66a1.59,1.59,0,0,0-.37-1.09,1.19,1.19,0,0,0-1.75,0,1.52,1.52,0,0,0-.35,1.07Z" transform="translate(-0.52 -0.52)"/><path d="M138.38,35l-1.62.29a1.18,1.18,0,0,0-.37-.73,1.12,1.12,0,0,0-.75-.25,1.23,1.23,0,0,0-1,.42,2.18,2.18,0,0,0-.37,1.42,2.52,2.52,0,0,0,.37,1.56,1.22,1.22,0,0,0,1,.46,1.11,1.11,0,0,0,.77-.27,1.6,1.6,0,0,0,.42-.92l1.62.28a2.87,2.87,0,0,1-1,1.68,3,3,0,0,1-1.92.57,2.85,2.85,0,0,1-2.18-.86,3.34,3.34,0,0,1-.81-2.38,3.35,3.35,0,0,1,.81-2.4,2.89,2.89,0,0,1,2.2-.86,3,3,0,0,1,1.81.49A2.71,2.71,0,0,1,138.38,35Z" transform="translate(-0.52 -0.52)"/><path d="M142.48,33.16v1.31h-1.12V37a6.24,6.24,0,0,0,0,.89.36.36,0,0,0,.15.21.46.46,0,0,0,.28.08,2.13,2.13,0,0,0,.66-.16l.14,1.28a3.27,3.27,0,0,1-1.3.25,2.06,2.06,0,0,1-.8-.15A1.17,1.17,0,0,1,140,39a1.53,1.53,0,0,1-.23-.64,8,8,0,0,1-.05-1.16V34.47h-.76V33.16h.76V31.92l1.65-1v2.2Z" transform="translate(-0.52 -0.52)"/><path d="M145.2,39.38h-1.65V33.16h1.53V34a2.66,2.66,0,0,1,.71-.83,1.3,1.3,0,0,1,.71-.2,2.09,2.09,0,0,1,1.08.31l-.51,1.44a1.44,1.44,0,0,0-.77-.27.91.91,0,0,0-.59.19,1.3,1.3,0,0,0-.38.69,9.78,9.78,0,0,0-.14,2.09Z" transform="translate(-0.52 -0.52)"/><path d="M148.29,32.31V30.79h1.65v1.52Zm0,7.07V33.16h1.65v6.22Z" transform="translate(-0.52 -0.52)"/><path d="M157.05,35l-1.62.29a1.18,1.18,0,0,0-.37-.73,1.12,1.12,0,0,0-.75-.25,1.23,1.23,0,0,0-1,.42,2.18,2.18,0,0,0-.37,1.42,2.52,2.52,0,0,0,.37,1.56,1.22,1.22,0,0,0,1,.46,1.11,1.11,0,0,0,.77-.27,1.6,1.6,0,0,0,.42-.92l1.62.28a2.87,2.87,0,0,1-1,1.68,3,3,0,0,1-1.92.57,2.85,2.85,0,0,1-2.18-.86,3.34,3.34,0,0,1-.81-2.38,3.35,3.35,0,0,1,.81-2.4,2.89,2.89,0,0,1,2.2-.86,3,3,0,0,1,1.81.49A2.71,2.71,0,0,1,157.05,35Z" transform="translate(-0.52 -0.52)"/><path d="M159.53,35.05,158,34.78a2.33,2.33,0,0,1,.87-1.34,3.17,3.17,0,0,1,1.83-.43,3.94,3.94,0,0,1,1.64.26,1.64,1.64,0,0,1,.76.66,3.4,3.4,0,0,1,.22,1.47l0,1.92a6.67,6.67,0,0,0,.08,1.21,3.53,3.53,0,0,0,.3.83h-1.63q-.06-.16-.16-.49l-.06-.19a3,3,0,0,1-.9.62,2.58,2.58,0,0,1-1,.21,2.12,2.12,0,0,1-1.51-.52,1.73,1.73,0,0,1-.55-1.32,1.77,1.77,0,0,1,.25-.94,1.65,1.65,0,0,1,.71-.63,5.52,5.52,0,0,1,1.31-.38,9,9,0,0,0,1.6-.4v-.16a.85.85,0,0,0-.23-.68,1.4,1.4,0,0,0-.88-.2,1.18,1.18,0,0,0-.69.17A1.2,1.2,0,0,0,159.53,35.05Zm2.2,1.34a10.29,10.29,0,0,1-1,.25,3,3,0,0,0-.9.29.69.69,0,0,0-.32.58.81.81,0,0,0,.26.6.9.9,0,0,0,.66.25,1.43,1.43,0,0,0,.85-.29,1,1,0,0,0,.39-.54,3.25,3.25,0,0,0,.06-.8Z" transform="translate(-0.52 -0.52)"/><path d="M165,39.38V30.79h1.65v8.59Z" transform="translate(-0.52 -0.52)"/><path d="M171.21,36.58l1.69-.16a2.06,2.06,0,0,0,.62,1.25,1.87,1.87,0,0,0,1.26.4,1.93,1.93,0,0,0,1.26-.35,1.05,1.05,0,0,0,.42-.83.78.78,0,0,0-.18-.52,1.43,1.43,0,0,0-.62-.37q-.3-.11-1.39-.37a4.71,4.71,0,0,1-2-.85,2.24,2.24,0,0,1-.79-1.73,2.21,2.21,0,0,1,.37-1.23,2.33,2.33,0,0,1,1.07-.87,4.3,4.3,0,0,1,1.69-.3,3.63,3.63,0,0,1,2.43.71,2.5,2.5,0,0,1,.86,1.89l-1.73.08a1.47,1.47,0,0,0-.48-1,1.75,1.75,0,0,0-1.1-.29,2,2,0,0,0-1.18.31.63.63,0,0,0-.28.53.66.66,0,0,0,.26.52A4.56,4.56,0,0,0,175,34a8.41,8.41,0,0,1,1.87.62,2.41,2.41,0,0,1,.95.87,2.7,2.7,0,0,1-.07,2.75,2.46,2.46,0,0,1-1.16,1,4.87,4.87,0,0,1-1.87.31,3.72,3.72,0,0,1-2.5-.75A3.28,3.28,0,0,1,171.21,36.58Z" transform="translate(-0.52 -0.52)"/><path d="M181.29,30.79v3.16a2.47,2.47,0,0,1,2.93-.72,1.68,1.68,0,0,1,.69.54,2,2,0,0,1,.32.73,6.5,6.5,0,0,1,.08,1.24v3.65h-1.65V36.09a4.87,4.87,0,0,0-.09-1.24.82.82,0,0,0-.33-.42,1.06,1.06,0,0,0-.59-.16,1.36,1.36,0,0,0-.73.2,1.15,1.15,0,0,0-.47.6,3.59,3.59,0,0,0-.15,1.19v3.12h-1.65V30.79Z" transform="translate(-0.52 -0.52)"/><path d="M186.6,36.18a3.37,3.37,0,0,1,.4-1.59,2.78,2.78,0,0,1,1.15-1.17,3.4,3.4,0,0,1,1.66-.4,3.11,3.11,0,0,1,2.31.92,3.17,3.17,0,0,1,.9,2.32,3.21,3.21,0,0,1-.91,2.34,3.08,3.08,0,0,1-2.29.93,3.61,3.61,0,0,1-1.63-.39A2.65,2.65,0,0,1,187,38,3.78,3.78,0,0,1,186.6,36.18Zm1.69.09a2.06,2.06,0,0,0,.44,1.42,1.44,1.44,0,0,0,2.17,0,2.09,2.09,0,0,0,.44-1.43,2.05,2.05,0,0,0-.44-1.41,1.44,1.44,0,0,0-2.17,0A2.06,2.06,0,0,0,188.28,36.27Z" transform="translate(-0.52 -0.52)"/><path d="M199.73,35l-1.62.29a1.18,1.18,0,0,0-.37-.73,1.12,1.12,0,0,0-.75-.25,1.23,1.23,0,0,0-1,.42,2.18,2.18,0,0,0-.37,1.42,2.52,2.52,0,0,0,.37,1.56,1.22,1.22,0,0,0,1,.46,1.11,1.11,0,0,0,.77-.27,1.6,1.6,0,0,0,.42-.92l1.62.28a2.87,2.87,0,0,1-1,1.68,3,3,0,0,1-1.92.57,2.85,2.85,0,0,1-2.18-.86,3.34,3.34,0,0,1-.81-2.38,3.35,3.35,0,0,1,.81-2.4A2.89,2.89,0,0,1,197,33a3,3,0,0,1,1.81.49A2.71,2.71,0,0,1,199.73,35Z" transform="translate(-0.52 -0.52)"/><path d="M200.92,39.38V30.79h1.65v4.56l1.93-2.19h2l-2.13,2.27,2.28,3.95H204.9l-1.56-2.79-.77.8v2Z" transform="translate(-0.52 -0.52)"/><path d="M211,39.38V30.79h1.73v3.38h3.4V30.79h1.73v8.59h-1.73V35.62h-3.4v3.76Z" transform="translate(-0.52 -0.52)"/><path d="M220.88,35.05l-1.49-.27a2.33,2.33,0,0,1,.87-1.34,3.17,3.17,0,0,1,1.83-.43,3.94,3.94,0,0,1,1.64.26,1.64,1.64,0,0,1,.76.66,3.4,3.4,0,0,1,.22,1.47l0,1.92a6.67,6.67,0,0,0,.08,1.21,3.53,3.53,0,0,0,.3.83h-1.63q-.06-.16-.16-.49l-.06-.19a3,3,0,0,1-.9.62,2.58,2.58,0,0,1-1,.21,2.12,2.12,0,0,1-1.51-.52,1.73,1.73,0,0,1-.55-1.32,1.77,1.77,0,0,1,.25-.94,1.65,1.65,0,0,1,.71-.63,5.52,5.52,0,0,1,1.31-.38,9,9,0,0,0,1.6-.4v-.16a.85.85,0,0,0-.23-.68,1.4,1.4,0,0,0-.88-.2,1.18,1.18,0,0,0-.69.17A1.2,1.2,0,0,0,220.88,35.05Zm2.2,1.34a10.29,10.29,0,0,1-1,.25,3,3,0,0,0-.9.29.69.69,0,0,0-.32.58.81.81,0,0,0,.26.6.9.9,0,0,0,.66.25,1.43,1.43,0,0,0,.85-.29,1,1,0,0,0,.39-.54,3.25,3.25,0,0,0,.06-.8Z" transform="translate(-0.52 -0.52)"/><path d="M225.67,39.38V38.09L228,35.42q.57-.66.85-.93l-.76,0h-2.2V33.16H231v1.17l-2.38,2.74-.84.91.85,0h2.55v1.45Z" transform="translate(-0.52 -0.52)"/><path d="M233.56,35.05l-1.49-.27a2.33,2.33,0,0,1,.87-1.34,3.17,3.17,0,0,1,1.83-.43,3.94,3.94,0,0,1,1.64.26,1.64,1.64,0,0,1,.76.66,3.4,3.4,0,0,1,.22,1.47l0,1.92a6.67,6.67,0,0,0,.08,1.21,3.53,3.53,0,0,0,.3.83h-1.63q-.06-.16-.16-.49l-.06-.19a3,3,0,0,1-.9.62,2.58,2.58,0,0,1-1,.21,2.12,2.12,0,0,1-1.51-.52,1.73,1.73,0,0,1-.55-1.32,1.77,1.77,0,0,1,.25-.94,1.65,1.65,0,0,1,.71-.63,5.52,5.52,0,0,1,1.31-.38,9,9,0,0,0,1.6-.4v-.16a.85.85,0,0,0-.23-.68,1.4,1.4,0,0,0-.88-.2,1.18,1.18,0,0,0-.69.17A1.2,1.2,0,0,0,233.56,35.05Zm2.2,1.34a10.29,10.29,0,0,1-1,.25,3,3,0,0,0-.9.29.69.69,0,0,0-.32.58.81.81,0,0,0,.26.6.9.9,0,0,0,.66.25,1.43,1.43,0,0,0,.85-.29,1,1,0,0,0,.39-.54,3.25,3.25,0,0,0,.06-.8Z" transform="translate(-0.52 -0.52)"/><path d="M240.58,39.38h-1.65V33.16h1.53V34a2.66,2.66,0,0,1,.71-.83,1.3,1.3,0,0,1,.71-.2,2.09,2.09,0,0,1,1.08.31l-.51,1.44a1.44,1.44,0,0,0-.77-.27.91.91,0,0,0-.59.19,1.3,1.3,0,0,0-.38.69,9.78,9.78,0,0,0-.14,2.09Z" transform="translate(-0.52 -0.52)"/><path d="M249.38,39.38h-1.53v-.91a2.47,2.47,0,0,1-.9.79,2.31,2.31,0,0,1-1,.26,2.37,2.37,0,0,1-1.84-.86,3.52,3.52,0,0,1-.76-2.41,3.47,3.47,0,0,1,.74-2.41,2.43,2.43,0,0,1,1.88-.82,2.33,2.33,0,0,1,1.8.87V30.79h1.65ZM245,36.13a2.85,2.85,0,0,0,.28,1.44,1.24,1.24,0,0,0,1.11.64,1.21,1.21,0,0,0,1-.48,2.23,2.23,0,0,0,.4-1.44,2.44,2.44,0,0,0-.39-1.54,1.22,1.22,0,0,0-1-.47,1.24,1.24,0,0,0-1,.47A2.1,2.1,0,0,0,245,36.13Z" transform="translate(-0.52 -0.52)"/></svg>