<svg xmlns="http://www.w3.org/2000/svg" viewBox="0 0 239.27 111.81"><defs><style>.cls-1{fill:none;}.cls-1,.cls-3{stroke:#000;}.cls-2{fill:#fff;}.cls-4,.cls-5{font-size:11px;}.cls-4{font-family:Arial-BoldMT, Arial;font-weight:700;}.cls-5{font-family:ArialMT, Arial;}.cls-6{letter-spacing:0.1em;}.cls-7{letter-spacing:0em;}.cls-8{letter-spacing:0em;}.cls-9{letter-spacing:-0.02em;}</style></defs><title>wrnng_elctrcl-shck-hzrd_fll-pwr-prsnt</title><g id="Layer_1" data-name="Layer 1"><rect class="cls-1" x="0.5" y="0.5" width="238.27" height="110.81"/><polyline points="0.02 27.25 239.08 27.25 239.08 0.42 0.02 0.42"/><path class="cls-2" d="M177.85,16.77V14.23h6.39v6a8.15,8.15,0,0,1-2.7,1.63,9.62,9.62,0,0,1-3.58.7,7.88,7.88,0,0,1-4-1,6.27,6.27,0,0,1-2.57-2.84,9.29,9.29,0,0,1-.86-4,8.9,8.9,0,0,1,1-4.19,6.6,6.6,0,0,1,2.81-2.8A7.43,7.43,0,0,1,177.8,7a6.81,6.81,0,0,1,4.26,1.18,5.29,5.29,0,0,1,2,3.25L181.1,12a3.26,3.26,0,0,0-1.17-1.75,3.43,3.43,0,0,0-2.13-.64,4,4,0,0,0-3.09,1.26,5.41,5.41,0,0,0-1.15,3.75,6.06,6.06,0,0,0,1.16,4A3.86,3.86,0,0,0,177.77,20a5,5,0,0,0,1.86-.38,6.21,6.21,0,0,0,1.61-.91V16.77m-25,5.54V7.25h2.88l6,10.06V7.25h2.76V22.31h-3L159,12.49v9.82Zm-5.82,0V7.25h3V22.31Zm-14.69,0V7.25h2.89l6,10.06V7.25h2.76V22.31h-3l-5.91-9.82v9.82Zm-11.86-8.7h2.19a10.74,10.74,0,0,0,2.66-.18,1.54,1.54,0,0,0,.84-.64,2,2,0,0,0,.3-1.12,1.86,1.86,0,0,0-.4-1.23,1.73,1.73,0,0,0-1.12-.59c-.24,0-1,0-2.16,0h-2.31Zm-3,8.7V7.25h6.24a10.47,10.47,0,0,1,3.42.4,3.41,3.41,0,0,1,1.71,1.44,4.44,4.44,0,0,1,.64,2.38,4.13,4.13,0,0,1-1,2.8A4.66,4.66,0,0,1,129,15.66a6.75,6.75,0,0,1,1.59,1.26,18,18,0,0,1,1.69,2.45l1.79,2.94h-3.54L128.41,19a20.62,20.62,0,0,0-1.56-2.21,2.32,2.32,0,0,0-.89-.63,4.83,4.83,0,0,0-1.49-.17h-.6v6.29Zm-7-6-2-5.59-2,5.59Zm5.46,6H116.1l-1.29-3.42H109l-1.21,3.42h-3.15l5.72-15.06h3.14ZM90,22.31,86.44,7.25h3l2.22,10.34L94.37,7.25h3.52l2.58,10.52,2.25-10.52h3l-3.56,15.06H99L96.08,11.05,93.16,22.31ZM75.48,16a.55.55,0,0,1-.5.51h-.07a.5.5,0,0,1-.5-.51c-1.63-5.3-2.41-9,.5-9S77,10.67,75.48,16Zm-.57,5.75a1.6,1.6,0,0,1,0-3.2H75a1.6,1.6,0,0,1-.07,3.2Zm1.2-16.14a1.23,1.23,0,0,0-1.2-.88,1.14,1.14,0,0,0-1.14.88L65.7,19.83c-1.07,1.82-.15,2.54.92,2.62H83.2c1.13-.08,2-.8.92-2.62Z"/><line class="cls-3" x1="67.63" y1="43.38" x2="238.64" y2="43.38"/><line class="cls-3" x1="68.05" y1="111.31" x2="68.05" y2="24.56"/></g><g id="text"><text class="cls-4" transform="translate(85.53 38.28)">Electrical Shock Hazard</text><text class="cls-5" transform="translate(72.91 64.43)">Full<tspan class="cls-6" x="17.72" y="0"> </tspan><tspan x="21.92" y="0">power</tspan><tspan class="cls-6" x="51.88" y="0"> </tspan><tspan x="56.07" y="0">is</tspan><tspan class="cls-6" x="64.02" y="0"> </tspan><tspan x="68.21" y="0">present</tspan><tspan class="cls-6" x="104.9" y="0"> </tspan><tspan x="109.1" y="0">whenever </tspan><tspan x="0" y="13.2">the</tspan><tspan class="cls-7" x="15.29" y="13.2"> </tspan><tspan x="18.39" y="13.2">cabinet</tspan><tspan class="cls-8" x="53.86" y="13.2"> </tspan><tspan x="56.97" y="13.2">door</tspan><tspan class="cls-7" x="78.98" y="13.2"> </tspan><tspan x="82.09" y="13.2">is</tspan><tspan class="cls-8" x="90.03" y="13.2"> </tspan><tspan x="93.13" y="13.2">opened</tspan><tspan class="cls-7" x="129.84" y="13.2"> </tspan><tspan x="132.94" y="13.2">even </tspan><tspan x="0" y="26.4">with the pilot switch is turned o</tspan><tspan class="cls-9" x="149.18" y="26.4">f</tspan><tspan x="152.04" y="26.4">f.</tspan></text><path d="M5.34,39.36s11.71,9.4,15,12.65c.91,1,2.79,3.36.05,6.16A60,60,0,0,0,16,62.62c-2.11,2-3.76,6.57.13,9.89a19.88,19.88,0,0,0,7.22,3.4c.18,0,.15-.22.26-.45l.26-.72h0c.71.15.77.28,1.09.81l1,2.63c.15.43.95.3.82-.13l-1.06-3c.95.32,2.26.76,3.34,1.08.42.11.64-.68.19-.83l-3.2-1.08,3.09-.62c.31-.08.27-.85-.36-.74,0,0-3.21.72-3.58.76a2.52,2.52,0,0,1-1-.11l.39-1.39c.13-.5.24-.5,0-.62a29.37,29.37,0,0,1-3.92-1.37c-4.2-1.92-1.84-4.84-.52-5.88A25.76,25.76,0,0,0,25,59.44c3.32-5.64-.36-9.59-2.69-11.69S8,35.69,8,35.69Z"/><path d="M61,50.79c0-2.91-4.08-2.91-4.11-.26l-.94,17.6a.76.76,0,0,1-1.52,0l0-22.93A2.13,2.13,0,1,0,50.18,45l-.29,21.91a.78.78,0,1,1-1.55,0l-.68-25.44c0-3.74-4.76-3.53-4.76.06l.64,25.91c0,1.21-1.58,1.25-1.55-.07l-.43-22a2.42,2.42,0,1,0-4.83.19L37.38,71c-.08,1.17-1.48,1.1-1.48,0l-.18-8.88c-.15-5.47-3.11-5.81-4.19-6.38s-1.19.53-1.15,1.29c0,2.15.4,5.44.11,7.74a16.27,16.27,0,0,0,.14,2.45A70.69,70.69,0,0,1,31,76.48l15.73-5.86c.69-.22.94.23.65.65l-4.4,6.83c-.14.19-.22.46.33.31l13.45-5.1c.43-.16,1,.22.43.87l-6.71,6.6c-.43.38-.32.61.29.53L61,78.9Z"/><path d="M61.15,82.18c.07-.49-.32-.34-.58-.26l-17.64,4c-.54,0-.54-.37-.22-.68l4.7-4.68c.5-.45-.08-.53-.33-.42L36.55,84.07c-.65.23-.58-.34-.44-.56l4.44-6.8c.43-.61-.18-.61-.4-.49L31,79.61c0,3-.62,4.65,2.16,9.75.54,1,3.86,5.33,3.86,8.61a9.12,9.12,0,0,1-.5,3H56.42c-.11-2.35-.21-4.08-.21-4.08a5.33,5.33,0,0,1,1-4.24A31.2,31.2,0,0,0,61.15,82.18Z"/></g></svg>