<svg id="Layer_1" data-name="Layer 1" xmlns="http://www.w3.org/2000/svg" viewBox="0 0 252.86 85.46"><title>warning-exhst_and_cndnste_frm_unused_cllctr</title><rect x="0.48" y="0.48" width="251.91" height="84.5" style="fill:none;stroke:#231f20;stroke-width:0.9590000000000001px"/><rect x="6.36" y="5.75" width="240.59" height="73.95" style="fill:none;stroke:#231f20;stroke-width:0.9590000000000001px"/><rect x="6.76" y="6.55" width="239.81" height="29.87" style="fill:#231f20"/><rect x="6.76" y="6.55" width="239.81" height="29.87" style="fill:none;stroke:#231f20;stroke-width:0.9590000000000001px"/><path d="M247,52.56" style="fill:none;stroke:#231f20;stroke-width:0.9590000000000001px"/><path d="M6.66,52.56" style="fill:none;stroke:#231f20;stroke-width:0.9590000000000001px"/><path d="M91.63,29.24,88,14.14h3.12l2.28,10.37,2.76-10.37H99.8l2.65,10.54,2.32-10.54h3.07l-3.67,15.09h-3.23L97.93,18l-3,11.29Z" style="fill:#fff"/><path d="M121.86,29.24h-3.32l-1.32-3.43h-6l-1.25,3.43h-3.23l5.88-15.09h3.22Zm-5.61-6-2.08-5.6-2,5.6Z" style="fill:#fff"/><path d="M123.49,29.24V14.14h6.42a11,11,0,0,1,3.52.41A3.47,3.47,0,0,1,135.17,16a4.35,4.35,0,0,1,.66,2.38,4,4,0,0,1-1,2.81,4.79,4.79,0,0,1-3,1.4,7.13,7.13,0,0,1,1.63,1.27,17.14,17.14,0,0,1,1.73,2.45l1.84,2.95h-3.64L131.21,26a21.3,21.3,0,0,0-1.61-2.22,2.35,2.35,0,0,0-.92-.63,5,5,0,0,0-1.53-.17h-.62v6.3Zm3-8.71h2.25a11.61,11.61,0,0,0,2.74-.19,1.64,1.64,0,0,0,.85-.64,2,2,0,0,0,.31-1.13,1.81,1.81,0,0,0-.41-1.23,1.87,1.87,0,0,0-1.15-.59q-.37-.05-2.22-.05h-2.38Z" style="fill:#fff"/><path d="M138.74,29.24V14.14h3l6.18,10.08V14.14h2.83V29.24h-3.06l-6.09-9.84v9.84Z" style="fill:#fff"/><path d="M153.84,29.24V14.14h3V29.24Z" style="fill:#fff"/><path d="M159.83,29.24V14.14h3L169,24.22V14.14h2.83V29.24h-3.06l-6.09-9.84v9.84Z" style="fill:#fff"/><path d="M182,23.69V21.14h6.57v6a8.27,8.27,0,0,1-2.78,1.63,10.1,10.1,0,0,1-3.68.71,8.26,8.26,0,0,1-4.13-1,6.32,6.32,0,0,1-2.65-2.84,9.19,9.19,0,0,1-.88-4,8.69,8.69,0,0,1,1-4.19,6.66,6.66,0,0,1,2.89-2.81,7.81,7.81,0,0,1,3.61-.75,7.21,7.21,0,0,1,4.39,1.18,5.32,5.32,0,0,1,2,3.26l-3,.57a3.2,3.2,0,0,0-1.2-1.75,3.62,3.62,0,0,0-2.2-.64,4.13,4.13,0,0,0-3.18,1.27,5.34,5.34,0,0,0-1.18,3.76,5.91,5.91,0,0,0,1.19,4A4,4,0,0,0,182,26.89a5.23,5.23,0,0,0,1.92-.38,6.54,6.54,0,0,0,1.65-.91V23.69Z" style="fill:#fff"/><path d="M72.85,14.55a1.07,1.07,0,0,0-2.06,0l-7,12.36c-.9,1.6-.11,2.25.83,2.27H79.06c1,0,1.75-.67.83-2.27" style="fill:#fff;fill-rule:evenodd"/><path d="M72.82,14.57h0m7,12.38-7-12.36.07,0,7,12.36Zm0,0h0l0,0Zm.41,1.19a2.63,2.63,0,0,0-.41-1.19l.06,0a2.68,2.68,0,0,1,.42,1.23Zm-.12.51a1,1,0,0,0,.12-.51h.08a1,1,0,0,1-.13.54Zm-.33.33a.91.91,0,0,0,.33-.33l.07,0a.94.94,0,0,1-.36.35Zm0,.07h0l0,0Zm-.8.12a1.63,1.63,0,0,0,.76-.19l0,.07a1.7,1.7,0,0,1-.8.2Zm0,.08h0v0Zm-14.47-.08H79.06v.08H64.58Zm0,.08h0v0ZM63.86,29a1.58,1.58,0,0,0,.72.18v.08a1.62,1.62,0,0,1-.75-.19Zm-.34-.33a.89.89,0,0,0,.34.33l0,.07a1,1,0,0,1-.38-.36Zm-.13-.53a1,1,0,0,0,.13.53l-.07,0a1.06,1.06,0,0,1-.13-.57Zm.39-1.17a2.61,2.61,0,0,0-.39,1.17h-.08a2.66,2.66,0,0,1,.4-1.21Zm-.07,0h0l0,0Zm7.1-12.32-7,12.36-.07,0,7-12.36Zm0,0h0l0,0Zm1-.76a1,1,0,0,0-1,.76l-.07,0a1.11,1.11,0,0,1,1.07-.81Zm0,0h0v0Zm1,.76a1,1,0,0,0-1-.76v-.08a1.11,1.11,0,0,1,1.07.81Z" style="fill:#231f20"/><path d="M71.84,25.48a1.21,1.21,0,0,1,1.21,1.21,1.25,1.25,0,0,1-1.24,1.24,1.23,1.23,0,0,1-1.21-1.24,1.2,1.2,0,0,1,1.19-1.21m0-1.57a.39.39,0,0,1-.36-.38c-1.26-4-1.89-6.92.38-6.92s1.66,2.88.41,6.92a.39.39,0,0,1-.38.38Z" style="fill:#fff;fill-rule:evenodd"/><path d="M71.84,23.94h0v-.08h0m.29,0a.42.42,0,0,1-.29.13v-.08a.35.35,0,0,0,.24-.1Zm.13-.29a.42.42,0,0,1-.13.29l-.05-.05a.34.34,0,0,0,.1-.24Zm-.08,0h0Zm1.2-5a20.54,20.54,0,0,1-1.12,5l-.08,0a20.52,20.52,0,0,0,1.12-5Zm-1.56-2c1.16,0,1.59.73,1.56,2H73.3c0-1.2-.38-1.9-1.49-1.9Zm-1.55,2c0-1.25.39-2,1.55-2v.08c-1.11,0-1.5.71-1.47,1.9Zm1.13,5a21.15,21.15,0,0,1-1.13-5h.08a21.2,21.2,0,0,0,1.13,5Zm.07,0h0Zm0,.3a.43.43,0,0,1-.12-.29h.08a.35.35,0,0,0,.1.24Zm.28.13a.39.39,0,0,1-.28-.13l.06-.05a.31.31,0,0,0,.22.11Z" style="fill:#231f20"/><path d="M70.93,25.8a1.22,1.22,0,0,1,.87-.37v.08a1.14,1.14,0,0,0-.81.34m-.42.83a1.26,1.26,0,0,1,.36-.88l.06.05a1.18,1.18,0,0,0-.34.83Zm.37.9a1.28,1.28,0,0,1-.37-.9h.08a1.21,1.21,0,0,0,.35.85Zm.88.37a1.24,1.24,0,0,1-.88-.37l.06-.05a1.16,1.16,0,0,0,.83.35Zm.9-.38a1.27,1.27,0,0,1-.9.38v-.08a1.2,1.2,0,0,0,.84-.35Zm.38-.9a1.28,1.28,0,0,1-.38.9l-.05-.05a1.2,1.2,0,0,0,.35-.84Zm-.36-.89a1.25,1.25,0,0,1,.36.89H73a1.17,1.17,0,0,0-.34-.83Zm-.89-.37a1.25,1.25,0,0,1,.89.37l-.06.06a1.17,1.17,0,0,0-.83-.34Z" style="fill:#231f20"/><path d="M71.8,23.9a.39.39,0,0,1-.36-.38c-1.26-4-1.89-6.92.38-6.92s1.66,2.88.41,6.92a.39.39,0,0,1-.38.38" style="fill:#231f20;fill-rule:evenodd"/><path d="M71.84,23.94h0v-.08h0m.29,0a.42.42,0,0,1-.29.13v-.08a.35.35,0,0,0,.24-.1Zm.13-.29a.42.42,0,0,1-.13.29l-.05-.05a.34.34,0,0,0,.1-.24Zm-.08,0h0Zm1.2-5a20.54,20.54,0,0,1-1.12,5l-.08,0a20.52,20.52,0,0,0,1.12-5Zm-1.56-2c1.16,0,1.59.73,1.56,2H73.3c0-1.2-.38-1.9-1.49-1.9Zm-1.55,2c0-1.25.39-2,1.55-2v.08c-1.11,0-1.5.71-1.47,1.9Zm1.13,5a21.15,21.15,0,0,1-1.13-5h.08a21.2,21.2,0,0,0,1.13,5Zm.07,0h0Zm0,.3a.43.43,0,0,1-.12-.29h.08a.35.35,0,0,0,.1.24Zm.28.13a.39.39,0,0,1-.28-.13l.06-.05a.31.31,0,0,0,.22.11Z" style="fill:#231f20"/><path d="M71.84,25.48a1.21,1.21,0,0,1,1.22,1.21,1.25,1.25,0,0,1-1.24,1.24,1.23,1.23,0,0,1-1.21-1.24,1.2,1.2,0,0,1,1.19-1.21" style="fill:#231f20;fill-rule:evenodd"/><path d="M71.8,25.44h0v.08h0m-.87.29a1.22,1.22,0,0,1,.87-.37v.08a1.14,1.14,0,0,0-.81.34Zm-.36.88a1.26,1.26,0,0,1,.36-.88l.06.05a1.18,1.18,0,0,0-.34.83Zm.37.9a1.28,1.28,0,0,1-.37-.9h.08a1.21,1.21,0,0,0,.35.85Zm.88.37a1.24,1.24,0,0,1-.88-.37l.06-.05a1.16,1.16,0,0,0,.83.35Zm.9-.38a1.27,1.27,0,0,1-.9.38v-.08a1.2,1.2,0,0,0,.84-.35Zm.38-.9a1.28,1.28,0,0,1-.38.9l-.05-.05a1.2,1.2,0,0,0,.35-.84Zm-.36-.89a1.25,1.25,0,0,1,.36.89H73a1.17,1.17,0,0,0-.34-.83Zm-.89-.37a1.25,1.25,0,0,1,.89.37l-.06.06a1.17,1.17,0,0,0-.83-.34Z" style="fill:#231f20"/><path d="M9.79,49.07V43.31h1.16v5.75Z" style="fill:#231f20"/><path d="M11.57,44.9h.61v-.31a2.1,2.1,0,0,1,.11-.79.89.89,0,0,1,.41-.42,1.58,1.58,0,0,1,.76-.16,3.07,3.07,0,0,1,.92.14l-.15.77a2.17,2.17,0,0,0-.51-.06.45.45,0,0,0-.34.11.65.65,0,0,0-.1.43v.29h.82v.87h-.82v3.3h-1.1v-3.3h-.61Z" style="fill:#231f20"/><path d="M18.87,44.9v.88h-.75v1.68a4.17,4.17,0,0,0,0,.6.24.24,0,0,0,.1.14.31.31,0,0,0,.19.05,1.43,1.43,0,0,0,.44-.11L19,49a2.2,2.2,0,0,1-.87.17,1.37,1.37,0,0,1-.54-.1.78.78,0,0,1-.35-.26,1,1,0,0,1-.15-.43,5.35,5.35,0,0,1,0-.78V45.78H16.5V44.9H17v-.83l1.11-.64V44.9Z" style="fill:#231f20"/><path d="M20.74,43.31v2.12a1.65,1.65,0,0,1,2-.48,1.13,1.13,0,0,1,.46.36,1.31,1.31,0,0,1,.21.49,4.33,4.33,0,0,1,.06.83v2.45h-1.1v-2.2a3.28,3.28,0,0,0-.06-.83.55.55,0,0,0-.22-.28.71.71,0,0,0-.4-.1.91.91,0,0,0-.49.13.77.77,0,0,0-.32.4,2.4,2.4,0,0,0-.1.79v2.09h-1.1V43.31Z" style="fill:#231f20"/><path d="M27,47.74l1.1.18a1.81,1.81,0,0,1-.67.92,2,2,0,0,1-1.14.32,1.87,1.87,0,0,1-1.61-.71A2.39,2.39,0,0,1,24.23,47a2.3,2.3,0,0,1,.54-1.62,1.78,1.78,0,0,1,1.37-.59,1.85,1.85,0,0,1,1.47.61,2.72,2.72,0,0,1,.51,1.88H25.36a1.12,1.12,0,0,0,.27.76.83.83,0,0,0,.64.27.68.68,0,0,0,.44-.14A.87.87,0,0,0,27,47.74ZM27,46.63a1.06,1.06,0,0,0-.25-.73.8.8,0,0,0-1.17,0,1,1,0,0,0-.23.71Z" style="fill:#231f20"/><path d="M34.89,46.13l-1.09.2a.79.79,0,0,0-.25-.49.75.75,0,0,0-.5-.17.83.83,0,0,0-.66.28,1.46,1.46,0,0,0-.25,1,1.69,1.69,0,0,0,.25,1,.82.82,0,0,0,.67.31.74.74,0,0,0,.51-.18,1.07,1.07,0,0,0,.28-.62l1.08.19a1.92,1.92,0,0,1-.65,1.13,2,2,0,0,1-1.28.38,1.91,1.91,0,0,1-1.46-.58,2.63,2.63,0,0,1,0-3.21A1.94,1.94,0,0,1,33,44.81a2,2,0,0,1,1.21.33A1.82,1.82,0,0,1,34.89,46.13Z" style="fill:#231f20"/><path d="M35.47,46.93a2.26,2.26,0,0,1,.27-1.06,1.86,1.86,0,0,1,.77-.79,2.28,2.28,0,0,1,1.11-.27,2.08,2.08,0,0,1,1.55.61,2.12,2.12,0,0,1,.6,1.55,2.15,2.15,0,0,1-.61,1.57,2.07,2.07,0,0,1-1.54.62,2.43,2.43,0,0,1-1.09-.26,1.78,1.78,0,0,1-.79-.76A2.53,2.53,0,0,1,35.47,46.93ZM36.6,47a1.38,1.38,0,0,0,.29.95,1,1,0,0,0,1.45,0,1.4,1.4,0,0,0,.29-1,1.38,1.38,0,0,0-.29-.94,1,1,0,0,0-1.45,0A1.38,1.38,0,0,0,36.6,47Z" style="fill:#231f20"/><path d="M44.43,49.07h-1.1V46.94a3.31,3.31,0,0,0-.07-.87.62.62,0,0,0-.23-.31.66.66,0,0,0-.38-.11.88.88,0,0,0-.51.16.79.79,0,0,0-.31.42,3.6,3.6,0,0,0-.08,1v1.89h-1.1V44.9h1v.61A1.67,1.67,0,0,1,43,44.81a1.65,1.65,0,0,1,.67.13,1.12,1.12,0,0,1,.46.34,1.22,1.22,0,0,1,.22.46,3.45,3.45,0,0,1,.06.74Z" style="fill:#231f20"/><path d="M49.37,49.07h-1v-.61a1.65,1.65,0,0,1-.6.53,1.54,1.54,0,0,1-.7.17,1.58,1.58,0,0,1-1.23-.58,2.83,2.83,0,0,1,0-3.23,1.63,1.63,0,0,1,1.26-.55,1.56,1.56,0,0,1,1.21.58V43.31h1.1Zm-2.94-2.17a1.91,1.91,0,0,0,.18,1,.83.83,0,0,0,.75.43A.81.81,0,0,0,48,48a1.5,1.5,0,0,0,.27-1A1.64,1.64,0,0,0,48,46a.85.85,0,0,0-1.32,0A1.41,1.41,0,0,0,46.43,46.89Z" style="fill:#231f20"/><path d="M52.87,47.74l1.1.18a1.81,1.81,0,0,1-.67.92,2,2,0,0,1-1.14.32,1.87,1.87,0,0,1-1.61-.71A2.39,2.39,0,0,1,50.14,47a2.3,2.3,0,0,1,.54-1.62A1.78,1.78,0,0,1,52,44.81a1.85,1.85,0,0,1,1.47.61A2.72,2.72,0,0,1,54,47.3H51.27a1.12,1.12,0,0,0,.27.76.83.83,0,0,0,.64.27.68.68,0,0,0,.44-.14A.87.87,0,0,0,52.87,47.74Zm.06-1.12a1.06,1.06,0,0,0-.25-.73.8.8,0,0,0-1.17,0,1,1,0,0,0-.23.71Z" style="fill:#231f20"/><path d="M58.72,49.07h-1.1V46.94a3.31,3.31,0,0,0-.07-.87.62.62,0,0,0-.23-.31.66.66,0,0,0-.38-.11.88.88,0,0,0-.51.16.79.79,0,0,0-.31.42,3.6,3.6,0,0,0-.08,1v1.89h-1.1V44.9h1v.61a1.67,1.67,0,0,1,1.37-.71,1.65,1.65,0,0,1,.67.13,1.12,1.12,0,0,1,.46.34,1.22,1.22,0,0,1,.22.46,3.45,3.45,0,0,1,.06.74Z" style="fill:#231f20"/><path d="M59.45,47.88l1.11-.17a.81.81,0,0,0,.29.49,1,1,0,0,0,.6.17,1.09,1.09,0,0,0,.64-.16.35.35,0,0,0,.15-.29.29.29,0,0,0-.08-.21.87.87,0,0,0-.37-.15A5.94,5.94,0,0,1,60.1,47a1.07,1.07,0,0,1-.5-.94,1.16,1.16,0,0,1,.43-.91,2,2,0,0,1,1.33-.37,2.32,2.32,0,0,1,1.27.28,1.43,1.43,0,0,1,.57.82l-1,.19a.65.65,0,0,0-.25-.37.93.93,0,0,0-.53-.13,1.2,1.2,0,0,0-.62.12.26.26,0,0,0-.13.22.24.24,0,0,0,.11.2,4.13,4.13,0,0,0,1,.31,3.08,3.08,0,0,1,1.23.49,1,1,0,0,1,.35.82,1.26,1.26,0,0,1-.48,1,2.12,2.12,0,0,1-1.42.41,2.32,2.32,0,0,1-1.35-.35A1.59,1.59,0,0,1,59.45,47.88Z" style="fill:#231f20"/><path d="M65.14,46.17l-1-.18a1.56,1.56,0,0,1,.58-.9,2.12,2.12,0,0,1,1.22-.29A2.65,2.65,0,0,1,67,45a1.1,1.1,0,0,1,.51.44,2.28,2.28,0,0,1,.15,1V47.7a4.44,4.44,0,0,0,.05.81,2.33,2.33,0,0,0,.2.56H66.85c0-.07-.06-.18-.11-.33l0-.13a2,2,0,0,1-.6.41,1.73,1.73,0,0,1-.69.14,1.42,1.42,0,0,1-1-.35,1.16,1.16,0,0,1-.37-.88,1.18,1.18,0,0,1,.17-.63,1.1,1.1,0,0,1,.47-.42,3.7,3.7,0,0,1,.88-.26,6,6,0,0,0,1.07-.27v-.11a.57.57,0,0,0-.16-.45.94.94,0,0,0-.59-.14.79.79,0,0,0-.46.12A.81.81,0,0,0,65.14,46.17Zm1.48.9c-.14,0-.36.1-.67.17a2,2,0,0,0-.6.19.46.46,0,0,0-.22.39.54.54,0,0,0,.17.4.6.6,0,0,0,.44.17,1,1,0,0,0,.57-.2.69.69,0,0,0,.26-.37,2.17,2.17,0,0,0,0-.54Z" style="fill:#231f20"/><path d="M70.7,44.9v.88h-.75v1.68a4.17,4.17,0,0,0,0,.6.24.24,0,0,0,.1.14.31.31,0,0,0,.19.05,1.43,1.43,0,0,0,.44-.11l.09.86a2.2,2.2,0,0,1-.87.17,1.37,1.37,0,0,1-.54-.1A.78.78,0,0,1,69,48.8a1,1,0,0,1-.15-.43,5.35,5.35,0,0,1,0-.78V45.78h-.51V44.9h.51v-.83l1.11-.64V44.9Z" style="fill:#231f20"/><path d="M73.88,47.74l1.1.18a1.81,1.81,0,0,1-.67.92,2,2,0,0,1-1.14.32,1.87,1.87,0,0,1-1.61-.71A2.39,2.39,0,0,1,71.14,47a2.3,2.3,0,0,1,.54-1.62,1.78,1.78,0,0,1,1.37-.59,1.85,1.85,0,0,1,1.47.61A2.72,2.72,0,0,1,75,47.3H72.27a1.12,1.12,0,0,0,.27.76.83.83,0,0,0,.64.27.68.68,0,0,0,.44-.14A.87.87,0,0,0,73.88,47.74Zm.06-1.12a1.06,1.06,0,0,0-.25-.73.8.8,0,0,0-1.17,0,1,1,0,0,0-.23.71Z" style="fill:#231f20"/><path d="M81.8,46.13l-1.09.2a.79.79,0,0,0-.25-.49.75.75,0,0,0-.5-.17.83.83,0,0,0-.66.28,1.46,1.46,0,0,0-.25,1,1.69,1.69,0,0,0,.25,1,.82.82,0,0,0,.67.31.74.74,0,0,0,.51-.18,1.07,1.07,0,0,0,.28-.62l1.08.19a1.92,1.92,0,0,1-.65,1.13,2,2,0,0,1-1.28.38,1.91,1.91,0,0,1-1.46-.58,2.63,2.63,0,0,1,0-3.21,1.94,1.94,0,0,1,1.48-.57,2,2,0,0,1,1.21.33A1.82,1.82,0,0,1,81.8,46.13Z" style="fill:#231f20"/><path d="M82.38,46.93a2.26,2.26,0,0,1,.27-1.06,1.86,1.86,0,0,1,.77-.79,2.28,2.28,0,0,1,1.11-.27,2.08,2.08,0,0,1,1.55.61,2.12,2.12,0,0,1,.6,1.55,2.15,2.15,0,0,1-.61,1.57,2.07,2.07,0,0,1-1.54.62,2.43,2.43,0,0,1-1.09-.26,1.78,1.78,0,0,1-.79-.76A2.53,2.53,0,0,1,82.38,46.93Zm1.13.06a1.38,1.38,0,0,0,.29.95,1,1,0,0,0,1.45,0,1.4,1.4,0,0,0,.29-1,1.38,1.38,0,0,0-.29-.94,1,1,0,0,0-1.45,0A1.38,1.38,0,0,0,83.51,47Z" style="fill:#231f20"/><path d="M87.55,49.07V43.31h1.1v5.75Z" style="fill:#231f20"/><path d="M89.78,49.07V43.31h1.1v5.75Z" style="fill:#231f20"/><path d="M94.43,47.74l1.1.18a1.81,1.81,0,0,1-.67.92,2,2,0,0,1-1.14.32,1.87,1.87,0,0,1-1.61-.71A2.39,2.39,0,0,1,91.7,47a2.3,2.3,0,0,1,.54-1.62,1.78,1.78,0,0,1,1.37-.59,1.85,1.85,0,0,1,1.47.61,2.72,2.72,0,0,1,.51,1.88H92.83a1.12,1.12,0,0,0,.27.76.83.83,0,0,0,.64.27.68.68,0,0,0,.44-.14A.87.87,0,0,0,94.43,47.74Zm.06-1.12a1.06,1.06,0,0,0-.25-.73.8.8,0,0,0-1.17,0,1,1,0,0,0-.23.71Z" style="fill:#231f20"/><path d="M100.13,46.13l-1.09.2a.79.79,0,0,0-.25-.49.75.75,0,0,0-.5-.17.83.83,0,0,0-.66.28,1.46,1.46,0,0,0-.25,1,1.69,1.69,0,0,0,.25,1,.82.82,0,0,0,.67.31.74.74,0,0,0,.51-.18,1.07,1.07,0,0,0,.28-.62l1.08.19a1.92,1.92,0,0,1-.65,1.13,2,2,0,0,1-1.28.38,1.91,1.91,0,0,1-1.46-.58,2.63,2.63,0,0,1,0-3.21,1.94,1.94,0,0,1,1.48-.57,2,2,0,0,1,1.21.33A1.82,1.82,0,0,1,100.13,46.13Z" style="fill:#231f20"/><path d="M102.87,44.9v.88h-.75v1.68a4.17,4.17,0,0,0,0,.6.24.24,0,0,0,.1.14.31.31,0,0,0,.19.05,1.43,1.43,0,0,0,.44-.11L103,49a2.2,2.2,0,0,1-.87.17,1.37,1.37,0,0,1-.54-.1.78.78,0,0,1-.35-.26,1,1,0,0,1-.15-.43,5.35,5.35,0,0,1,0-.78V45.78h-.51V44.9H101v-.83l1.11-.64V44.9Z" style="fill:#231f20"/><path d="M103.38,46.93a2.26,2.26,0,0,1,.27-1.06,1.86,1.86,0,0,1,.77-.79,2.28,2.28,0,0,1,1.11-.27,2.08,2.08,0,0,1,1.55.61,2.12,2.12,0,0,1,.6,1.55,2.15,2.15,0,0,1-.61,1.57,2.07,2.07,0,0,1-1.54.62,2.43,2.43,0,0,1-1.09-.26,1.78,1.78,0,0,1-.79-.76A2.53,2.53,0,0,1,103.38,46.93Zm1.13.06a1.38,1.38,0,0,0,.29.95,1,1,0,0,0,1.45,0,1.4,1.4,0,0,0,.29-1,1.38,1.38,0,0,0-.29-.94,1,1,0,0,0-1.45,0A1.38,1.38,0,0,0,104.51,47Z" style="fill:#231f20"/><path d="M109.61,49.07h-1.1V44.9h1v.59a1.78,1.78,0,0,1,.47-.55.87.87,0,0,1,.48-.13,1.4,1.4,0,0,1,.73.21l-.34,1a1,1,0,0,0-.52-.18.61.61,0,0,0-.39.13.87.87,0,0,0-.25.46,6.55,6.55,0,0,0-.09,1.4Z" style="fill:#231f20"/><path d="M113.91,44.33v-1H115v1Zm0,4.73V44.9H115v4.17Z" style="fill:#231f20"/><path d="M115.76,47.88l1.11-.17a.81.81,0,0,0,.29.49,1,1,0,0,0,.6.17,1.09,1.09,0,0,0,.64-.16.35.35,0,0,0,.15-.29.29.29,0,0,0-.08-.21.87.87,0,0,0-.37-.15,5.94,5.94,0,0,1-1.69-.54,1.07,1.07,0,0,1-.5-.94,1.16,1.16,0,0,1,.43-.91,2,2,0,0,1,1.33-.37,2.32,2.32,0,0,1,1.27.28,1.43,1.43,0,0,1,.57.82l-1,.19a.65.65,0,0,0-.25-.37.93.93,0,0,0-.53-.13,1.2,1.2,0,0,0-.62.12.26.26,0,0,0-.13.22.24.24,0,0,0,.11.2,4.13,4.13,0,0,0,1,.31,3.08,3.08,0,0,1,1.23.49,1,1,0,0,1,.35.82,1.26,1.26,0,0,1-.48,1,2.12,2.12,0,0,1-1.42.41,2.32,2.32,0,0,1-1.35-.35A1.59,1.59,0,0,1,115.76,47.88Z" style="fill:#231f20"/><path d="M126.64,49.07h-1.1V46.94a3.31,3.31,0,0,0-.07-.87.62.62,0,0,0-.23-.31.66.66,0,0,0-.38-.11.88.88,0,0,0-.51.16.79.79,0,0,0-.31.42,3.6,3.6,0,0,0-.08,1v1.89h-1.1V44.9h1v.61a1.67,1.67,0,0,1,1.37-.71,1.65,1.65,0,0,1,.67.13,1.12,1.12,0,0,1,.46.34,1.22,1.22,0,0,1,.22.46,3.45,3.45,0,0,1,.06.74Z" style="fill:#231f20"/><path d="M127.51,46.93a2.26,2.26,0,0,1,.27-1.06,1.86,1.86,0,0,1,.77-.79,2.28,2.28,0,0,1,1.11-.27,2.08,2.08,0,0,1,1.55.61,2.12,2.12,0,0,1,.6,1.55,2.15,2.15,0,0,1-.61,1.57,2.07,2.07,0,0,1-1.54.62,2.43,2.43,0,0,1-1.09-.26,1.78,1.78,0,0,1-.79-.76A2.53,2.53,0,0,1,127.51,46.93Zm1.13.06a1.38,1.38,0,0,0,.29.95,1,1,0,0,0,1.45,0,1.4,1.4,0,0,0,.29-1,1.38,1.38,0,0,0-.29-.94,1,1,0,0,0-1.45,0A1.38,1.38,0,0,0,128.64,47Z" style="fill:#231f20"/><path d="M134.59,44.9v.88h-.75v1.68a4,4,0,0,0,0,.6.24.24,0,0,0,.1.14.31.31,0,0,0,.19.05,1.43,1.43,0,0,0,.44-.11l.09.86a2.2,2.2,0,0,1-.87.17,1.38,1.38,0,0,1-.54-.1.79.79,0,0,1-.35-.26,1,1,0,0,1-.15-.43,5.37,5.37,0,0,1,0-.78V45.78h-.51V44.9h.51v-.83l1.11-.64V44.9Z" style="fill:#231f20"/><path d="M140.33,49.07v-.62a1.62,1.62,0,0,1-.6.53,1.67,1.67,0,0,1-.78.19,1.53,1.53,0,0,1-.75-.18,1.09,1.09,0,0,1-.48-.52,2.32,2.32,0,0,1-.15-.92V44.9h1.1v1.92a5.27,5.27,0,0,0,.06,1.08.59.59,0,0,0,.22.31.68.68,0,0,0,.41.12.87.87,0,0,0,.51-.15.79.79,0,0,0,.31-.38,4.49,4.49,0,0,0,.08-1.12V44.9h1.1v4.17Z" style="fill:#231f20"/><path d="M142.11,47.88l1.11-.17a.81.81,0,0,0,.29.49,1,1,0,0,0,.61.17,1.08,1.08,0,0,0,.64-.16.35.35,0,0,0,.15-.29.29.29,0,0,0-.08-.21.87.87,0,0,0-.37-.15,5.94,5.94,0,0,1-1.69-.54,1.07,1.07,0,0,1-.5-.94,1.16,1.16,0,0,1,.43-.91,2,2,0,0,1,1.33-.37,2.32,2.32,0,0,1,1.27.28,1.42,1.42,0,0,1,.57.82l-1,.19a.65.65,0,0,0-.25-.37.93.93,0,0,0-.53-.13,1.2,1.2,0,0,0-.62.12.26.26,0,0,0-.12.22.24.24,0,0,0,.11.2,4.14,4.14,0,0,0,1,.31,3.08,3.08,0,0,1,1.23.49,1,1,0,0,1,.35.82,1.26,1.26,0,0,1-.48,1,2.12,2.12,0,0,1-1.42.41,2.32,2.32,0,0,1-1.35-.35A1.59,1.59,0,0,1,142.11,47.88Z" style="fill:#231f20"/><path d="M149.38,47.74l1.1.18a1.8,1.8,0,0,1-.67.92,2,2,0,0,1-1.14.32,1.87,1.87,0,0,1-1.61-.71,2.39,2.39,0,0,1-.41-1.44,2.3,2.3,0,0,1,.54-1.62,1.78,1.78,0,0,1,1.37-.59,1.85,1.85,0,0,1,1.47.61,2.72,2.72,0,0,1,.51,1.88h-2.76a1.12,1.12,0,0,0,.27.76.83.83,0,0,0,.64.27.68.68,0,0,0,.44-.14A.87.87,0,0,0,149.38,47.74Zm.06-1.12a1.06,1.06,0,0,0-.25-.73.8.8,0,0,0-1.17,0,1,1,0,0,0-.23.71Z" style="fill:#231f20"/><path d="M155.26,49.07h-1v-.61a1.64,1.64,0,0,1-.6.53,1.53,1.53,0,0,1-.7.17,1.58,1.58,0,0,1-1.23-.58,2.83,2.83,0,0,1,0-3.23,1.63,1.63,0,0,1,1.26-.55,1.56,1.56,0,0,1,1.21.58V43.31h1.1Zm-2.94-2.17a1.91,1.91,0,0,0,.18,1,.84.84,0,0,0,.75.43.81.81,0,0,0,.65-.32,1.5,1.5,0,0,0,.27-1,1.64,1.64,0,0,0-.26-1,.85.85,0,0,0-1.32,0A1.4,1.4,0,0,0,152.32,46.89Z" style="fill:#231f20"/><path d="M156.32,48h1.1v.79a2.75,2.75,0,0,1-.08.75,1.13,1.13,0,0,1-.31.5,1.6,1.6,0,0,1-.58.34l-.22-.46a.93.93,0,0,0,.48-.3.92.92,0,0,0,.15-.53h-.53Z" style="fill:#231f20"/><path d="M162.73,44.9v.88H162v1.68a4.17,4.17,0,0,0,0,.6.25.25,0,0,0,.1.14.31.31,0,0,0,.19.05,1.44,1.44,0,0,0,.44-.11l.09.86a2.2,2.2,0,0,1-.87.17,1.37,1.37,0,0,1-.54-.1.78.78,0,0,1-.35-.26,1,1,0,0,1-.16-.43,5.37,5.37,0,0,1,0-.78V45.78h-.51V44.9h.51v-.83l1.11-.64V44.9Z" style="fill:#231f20"/><path d="M164.6,43.31v2.12a1.65,1.65,0,0,1,2-.48,1.12,1.12,0,0,1,.46.36,1.31,1.31,0,0,1,.21.49,4.34,4.34,0,0,1,.06.83v2.45h-1.1v-2.2a3.24,3.24,0,0,0-.06-.83.54.54,0,0,0-.22-.28.71.71,0,0,0-.4-.1.91.91,0,0,0-.49.13.77.77,0,0,0-.32.4,2.41,2.41,0,0,0-.1.79v2.09h-1.1V43.31Z" style="fill:#231f20"/><path d="M170.82,47.74l1.1.18a1.8,1.8,0,0,1-.67.92,2,2,0,0,1-1.14.32,1.87,1.87,0,0,1-1.61-.71,2.39,2.39,0,0,1-.41-1.44,2.3,2.3,0,0,1,.54-1.62,1.78,1.78,0,0,1,1.37-.59,1.85,1.85,0,0,1,1.47.61A2.72,2.72,0,0,1,172,47.3h-2.76a1.12,1.12,0,0,0,.27.76.84.84,0,0,0,.64.27.68.68,0,0,0,.44-.14A.87.87,0,0,0,170.82,47.74Zm.06-1.12a1.06,1.06,0,0,0-.25-.73.76.76,0,0,0-.57-.25.77.77,0,0,0-.6.26,1,1,0,0,0-.23.71Z" style="fill:#231f20"/><path d="M178.94,49.07h-1v-.61a1.65,1.65,0,0,1-.6.53,1.53,1.53,0,0,1-.7.17,1.59,1.59,0,0,1-1.23-.58,2.36,2.36,0,0,1-.51-1.62,2.33,2.33,0,0,1,.5-1.61,1.63,1.63,0,0,1,1.26-.55,1.56,1.56,0,0,1,1.21.58V43.31h1.1ZM176,46.89a1.91,1.91,0,0,0,.18,1,.83.83,0,0,0,.75.43.81.81,0,0,0,.65-.32,1.49,1.49,0,0,0,.27-1,1.64,1.64,0,0,0-.26-1,.85.85,0,0,0-1.32,0A1.41,1.41,0,0,0,176,46.89Z" style="fill:#231f20"/><path d="M181.08,49.07H180V44.9h1v.59a1.78,1.78,0,0,1,.47-.55.87.87,0,0,1,.48-.13,1.4,1.4,0,0,1,.73.21l-.34,1a1,1,0,0,0-.52-.18.61.61,0,0,0-.39.13.87.87,0,0,0-.25.46,6.54,6.54,0,0,0-.09,1.4Z" style="fill:#231f20"/><path d="M184,46.17,183,46a1.56,1.56,0,0,1,.58-.9,2.12,2.12,0,0,1,1.22-.29,2.65,2.65,0,0,1,1.1.17,1.1,1.1,0,0,1,.51.44,2.27,2.27,0,0,1,.15,1V47.7a4.49,4.49,0,0,0,.05.81,2.4,2.4,0,0,0,.2.56h-1.09c0-.07-.06-.18-.11-.33l0-.13a2,2,0,0,1-.6.41,1.73,1.73,0,0,1-.69.14,1.42,1.42,0,0,1-1-.35,1.16,1.16,0,0,1-.37-.88,1.18,1.18,0,0,1,.17-.63,1.1,1.1,0,0,1,.47-.42,3.68,3.68,0,0,1,.88-.26,6,6,0,0,0,1.07-.27v-.11a.57.57,0,0,0-.16-.45.94.94,0,0,0-.59-.14.79.79,0,0,0-.46.12A.81.81,0,0,0,184,46.17Zm1.48.9c-.14,0-.37.1-.67.17a2,2,0,0,0-.6.19.46.46,0,0,0-.22.39.54.54,0,0,0,.17.4.6.6,0,0,0,.44.17,1,1,0,0,0,.57-.2.68.68,0,0,0,.26-.37,2.14,2.14,0,0,0,0-.54Z" style="fill:#231f20"/><path d="M187.62,44.33v-1h1.1v1Zm0,4.73V44.9h1.1v4.17Z" style="fill:#231f20"/><path d="M193.65,49.07h-1.1V46.94a3.25,3.25,0,0,0-.07-.87.61.61,0,0,0-.23-.31.66.66,0,0,0-.38-.11.88.88,0,0,0-.51.16.79.79,0,0,0-.31.42,3.59,3.59,0,0,0-.08,1v1.89h-1.1V44.9h1v.61a1.71,1.71,0,0,1,2-.58,1.13,1.13,0,0,1,.46.34,1.22,1.22,0,0,1,.22.46,3.48,3.48,0,0,1,.06.74Z" style="fill:#231f20"/><path d="M197,44.9h1v.61a1.54,1.54,0,0,1,.54-.51,1.49,1.49,0,0,1,.76-.2,1.59,1.59,0,0,1,1.23.57A2.3,2.3,0,0,1,201,47a2.38,2.38,0,0,1-.51,1.62,1.59,1.59,0,0,1-1.24.58,1.41,1.41,0,0,1-.63-.14,2.12,2.12,0,0,1-.59-.47v2.1H197Zm1.09,2a1.6,1.6,0,0,0,.28,1,.85.85,0,0,0,.68.33.79.79,0,0,0,.64-.31,1.58,1.58,0,0,0,.26-1,1.5,1.5,0,0,0-.26-1,.81.81,0,0,0-.65-.32.84.84,0,0,0-.67.31A1.38,1.38,0,0,0,198.06,46.91Z" style="fill:#231f20"/><path d="M201.91,44.33v-1H203v1Zm0,4.73V44.9H203v4.17Z" style="fill:#231f20"/><path d="M204.12,44.9h1v.61a1.54,1.54,0,0,1,.54-.51,1.49,1.49,0,0,1,.76-.2,1.59,1.59,0,0,1,1.23.57,2.3,2.3,0,0,1,.51,1.59,2.38,2.38,0,0,1-.51,1.62,1.59,1.59,0,0,1-1.24.58,1.41,1.41,0,0,1-.63-.14,2.12,2.12,0,0,1-.59-.47v2.1h-1.1Zm1.09,2a1.6,1.6,0,0,0,.28,1,.85.85,0,0,0,.68.33.79.79,0,0,0,.64-.31,1.58,1.58,0,0,0,.26-1,1.5,1.5,0,0,0-.26-1,.81.81,0,0,0-.65-.32.84.84,0,0,0-.67.31A1.38,1.38,0,0,0,205.21,46.91Z" style="fill:#231f20"/><path d="M211.47,47.74l1.1.18a1.8,1.8,0,0,1-.67.92,2,2,0,0,1-1.14.32,1.87,1.87,0,0,1-1.61-.71,2.39,2.39,0,0,1-.41-1.44,2.3,2.3,0,0,1,.54-1.62,1.78,1.78,0,0,1,1.37-.59,1.85,1.85,0,0,1,1.47.61,2.72,2.72,0,0,1,.51,1.88h-2.76a1.12,1.12,0,0,0,.27.76.84.84,0,0,0,.64.27.68.68,0,0,0,.44-.14A.87.87,0,0,0,211.47,47.74Zm.06-1.12a1.06,1.06,0,0,0-.25-.73.76.76,0,0,0-.57-.25.77.77,0,0,0-.6.26,1,1,0,0,0-.23.71Z" style="fill:#231f20"/><path d="M215.68,44.9h1v.57a1.64,1.64,0,0,1,1.3-.66,1.4,1.4,0,0,1,.7.16,1.26,1.26,0,0,1,.48.5,1.93,1.93,0,0,1,.59-.5,1.46,1.46,0,0,1,.68-.16,1.52,1.52,0,0,1,.78.19,1.14,1.14,0,0,1,.47.55,2.37,2.37,0,0,1,.11.86v2.67h-1.1V46.69a1.78,1.78,0,0,0-.11-.8.52.52,0,0,0-.47-.24.75.75,0,0,0-.44.14.79.79,0,0,0-.29.41,3,3,0,0,0-.09.86v2h-1.1V46.78a3.18,3.18,0,0,0-.06-.79.5.5,0,0,0-.18-.26.58.58,0,0,0-.34-.09.8.8,0,0,0-.46.14.75.75,0,0,0-.29.4,2.91,2.91,0,0,0-.09.86v2h-1.1Z" style="fill:#231f20"/><path d="M225.66,49.07v-.62a1.62,1.62,0,0,1-.6.53,1.67,1.67,0,0,1-.78.19,1.53,1.53,0,0,1-.75-.18,1.09,1.09,0,0,1-.48-.52,2.32,2.32,0,0,1-.15-.92V44.9H224v1.92a5.24,5.24,0,0,0,.06,1.08.58.58,0,0,0,.22.31.68.68,0,0,0,.41.12.87.87,0,0,0,.51-.15.79.79,0,0,0,.31-.38,4.47,4.47,0,0,0,.08-1.12V44.9h1.1v4.17Z" style="fill:#231f20"/><path d="M227.43,47.88l1.11-.17a.81.81,0,0,0,.29.49,1,1,0,0,0,.6.17,1.08,1.08,0,0,0,.64-.16.35.35,0,0,0,.15-.29.29.29,0,0,0-.08-.21.87.87,0,0,0-.37-.15,6,6,0,0,1-1.69-.54,1.07,1.07,0,0,1-.49-.94,1.16,1.16,0,0,1,.43-.91,2,2,0,0,1,1.33-.37,2.32,2.32,0,0,1,1.27.28,1.43,1.43,0,0,1,.57.82l-1,.19a.64.64,0,0,0-.25-.37.92.92,0,0,0-.53-.13,1.2,1.2,0,0,0-.62.12.26.26,0,0,0-.13.22.24.24,0,0,0,.11.2,4.11,4.11,0,0,0,1,.31,3.08,3.08,0,0,1,1.23.49,1,1,0,0,1,.35.82,1.26,1.26,0,0,1-.48,1,2.12,2.12,0,0,1-1.42.41,2.33,2.33,0,0,1-1.35-.35A1.59,1.59,0,0,1,227.43,47.88Z" style="fill:#231f20"/><path d="M234.21,44.9v.88h-.75v1.68a4.17,4.17,0,0,0,0,.6.25.25,0,0,0,.1.14.31.31,0,0,0,.19.05,1.44,1.44,0,0,0,.44-.11l.09.86a2.2,2.2,0,0,1-.87.17,1.37,1.37,0,0,1-.54-.1.78.78,0,0,1-.35-.26,1,1,0,0,1-.16-.43,5.37,5.37,0,0,1,0-.78V45.78h-.51V44.9h.51v-.83l1.11-.64V44.9Z" style="fill:#231f20"/><path d="M9.77,58.72V53h1.1V55a1.56,1.56,0,0,1,1.21-.58,1.63,1.63,0,0,1,1.26.55,2.29,2.29,0,0,1,.5,1.58,2.41,2.41,0,0,1-.51,1.65,1.59,1.59,0,0,1-1.23.58,1.54,1.54,0,0,1-.7-.18,1.69,1.69,0,0,1-.6-.53v.61Zm1.1-2.17a1.77,1.77,0,0,0,.2,1,.87.87,0,0,0,.76.44.78.78,0,0,0,.62-.31,1.53,1.53,0,0,0,.26-1,1.63,1.63,0,0,0-.26-1,.82.82,0,0,0-.66-.32.83.83,0,0,0-.66.31A1.42,1.42,0,0,0,10.86,56.54Z" style="fill:#231f20"/><path d="M17.14,57.39l1.1.18a1.81,1.81,0,0,1-.67.92,2,2,0,0,1-1.14.32,1.86,1.86,0,0,1-1.61-.71,2.39,2.39,0,0,1-.41-1.44A2.3,2.3,0,0,1,14.95,55a1.79,1.79,0,0,1,1.37-.59,1.85,1.85,0,0,1,1.47.61A2.72,2.72,0,0,1,18.3,57H15.53a1.11,1.11,0,0,0,.27.76.83.83,0,0,0,.64.27.68.68,0,0,0,.44-.14A.87.87,0,0,0,17.14,57.39Zm.06-1.11a1.06,1.06,0,0,0-.25-.73.8.8,0,0,0-1.17,0,1,1,0,0,0-.23.71Z" style="fill:#231f20"/><path d="M25.07,55.78,24,56a.79.79,0,0,0-.25-.49.75.75,0,0,0-.5-.17.83.83,0,0,0-.66.28,1.46,1.46,0,0,0-.25,1,1.68,1.68,0,0,0,.25,1,.82.82,0,0,0,.67.31.74.74,0,0,0,.51-.18,1.07,1.07,0,0,0,.28-.61l1.08.18a1.92,1.92,0,0,1-.65,1.13,2,2,0,0,1-1.28.38,1.91,1.91,0,0,1-1.46-.58,2.63,2.63,0,0,1,0-3.21,1.94,1.94,0,0,1,1.48-.58,2,2,0,0,1,1.21.33A1.82,1.82,0,0,1,25.07,55.78Z" style="fill:#231f20"/><path d="M26.73,55.82l-1-.18a1.56,1.56,0,0,1,.58-.89,2.12,2.12,0,0,1,1.22-.29,2.65,2.65,0,0,1,1.1.17,1.1,1.1,0,0,1,.51.44,2.28,2.28,0,0,1,.15,1v1.29a4.44,4.44,0,0,0,.05.81,2.35,2.35,0,0,0,.2.56H28.44c0-.07-.06-.18-.11-.33l0-.13a2,2,0,0,1-.6.41,1.73,1.73,0,0,1-.69.14,1.42,1.42,0,0,1-1-.35,1.16,1.16,0,0,1-.37-.88,1.18,1.18,0,0,1,.17-.63,1.1,1.1,0,0,1,.47-.42,3.68,3.68,0,0,1,.88-.26A6,6,0,0,0,28.2,56v-.11a.57.57,0,0,0-.16-.45,1,1,0,0,0-.59-.13.79.79,0,0,0-.46.12A.81.81,0,0,0,26.73,55.82Zm1.48.9a6.91,6.91,0,0,1-.67.17,2,2,0,0,0-.6.19.46.46,0,0,0-.22.39.54.54,0,0,0,.17.4.6.6,0,0,0,.44.17,1,1,0,0,0,.57-.2.69.69,0,0,0,.26-.37,2.18,2.18,0,0,0,0-.54Z" style="fill:#231f20"/><path d="M30.34,54.55h1v.61a1.54,1.54,0,0,1,.54-.51,1.49,1.49,0,0,1,.76-.2A1.59,1.59,0,0,1,33.9,55a2.31,2.31,0,0,1,.51,1.59,2.38,2.38,0,0,1-.51,1.62,1.59,1.59,0,0,1-1.24.58,1.4,1.4,0,0,1-.63-.14,2.11,2.11,0,0,1-.59-.47v2.1h-1.1Zm1.09,2a1.6,1.6,0,0,0,.28,1,.85.85,0,0,0,.68.34.8.8,0,0,0,.64-.31,1.59,1.59,0,0,0,.26-1,1.51,1.51,0,0,0-.26-1,.81.81,0,0,0-.65-.32.85.85,0,0,0-.67.31A1.39,1.39,0,0,0,31.43,56.56Z" style="fill:#231f20"/><path d="M35.25,54.55h1v.61a1.54,1.54,0,0,1,.54-.51,1.49,1.49,0,0,1,.76-.2,1.59,1.59,0,0,1,1.23.57,2.31,2.31,0,0,1,.51,1.59,2.38,2.38,0,0,1-.51,1.62,1.59,1.59,0,0,1-1.24.58,1.4,1.4,0,0,1-.63-.14,2.11,2.11,0,0,1-.59-.47v2.1h-1.1Zm1.09,2a1.6,1.6,0,0,0,.28,1,.85.85,0,0,0,.68.34.8.8,0,0,0,.64-.31,1.59,1.59,0,0,0,.26-1,1.51,1.51,0,0,0-.26-1,.81.81,0,0,0-.65-.32.85.85,0,0,0-.67.31A1.39,1.39,0,0,0,36.35,56.56Z" style="fill:#231f20"/><path d="M42.61,57.39l1.1.18a1.81,1.81,0,0,1-.67.92,2,2,0,0,1-1.14.32,1.86,1.86,0,0,1-1.61-.71,2.39,2.39,0,0,1-.41-1.44A2.3,2.3,0,0,1,40.42,55a1.79,1.79,0,0,1,1.37-.59,1.85,1.85,0,0,1,1.47.61A2.72,2.72,0,0,1,43.77,57H41a1.11,1.11,0,0,0,.27.76.83.83,0,0,0,.64.27.68.68,0,0,0,.44-.14A.87.87,0,0,0,42.61,57.39Zm.06-1.11a1.06,1.06,0,0,0-.25-.73.8.8,0,0,0-1.17,0,1,1,0,0,0-.23.71Z" style="fill:#231f20"/><path d="M48.49,58.72h-1V58.1a1.66,1.66,0,0,1-.6.53,1.55,1.55,0,0,1-.7.17,1.59,1.59,0,0,1-1.23-.58,2.36,2.36,0,0,1-.51-1.62,2.33,2.33,0,0,1,.5-1.61,1.63,1.63,0,0,1,1.26-.55,1.56,1.56,0,0,1,1.21.58V53h1.1Zm-2.94-2.17a1.91,1.91,0,0,0,.18,1,.83.83,0,0,0,.75.43.81.81,0,0,0,.65-.32,1.5,1.5,0,0,0,.27-1,1.64,1.64,0,0,0-.26-1,.85.85,0,0,0-1.32,0A1.41,1.41,0,0,0,45.55,56.54Z" style="fill:#231f20"/><path d="M53.73,54.55v.88H53v1.68a4.15,4.15,0,0,0,0,.59.24.24,0,0,0,.1.14.31.31,0,0,0,.19.05,1.41,1.41,0,0,0,.44-.11l.09.86a2.2,2.2,0,0,1-.87.16,1.39,1.39,0,0,1-.54-.1.79.79,0,0,1-.35-.26A1,1,0,0,1,51.9,58a5.34,5.34,0,0,1,0-.78V55.43h-.51v-.88h.51v-.83L53,53.08v1.47Z" style="fill:#231f20"/><path d="M54.24,56.57a2.25,2.25,0,0,1,.27-1.06,1.86,1.86,0,0,1,.77-.79,2.28,2.28,0,0,1,1.11-.27,2.08,2.08,0,0,1,1.55.61,2.13,2.13,0,0,1,.6,1.55,2.15,2.15,0,0,1-.61,1.57,2.06,2.06,0,0,1-1.54.62,2.42,2.42,0,0,1-1.09-.26,1.78,1.78,0,0,1-.79-.76A2.53,2.53,0,0,1,54.24,56.57Zm1.13.06a1.38,1.38,0,0,0,.29,1,1,1,0,0,0,1.45,0,1.4,1.4,0,0,0,.29-1,1.37,1.37,0,0,0-.29-.94,1,1,0,0,0-1.45,0A1.38,1.38,0,0,0,55.37,56.63Z" style="fill:#231f20"/><path d="M61.6,54.55h1v.61a1.54,1.54,0,0,1,.54-.51,1.49,1.49,0,0,1,.76-.2,1.59,1.59,0,0,1,1.23.57,2.31,2.31,0,0,1,.51,1.59,2.38,2.38,0,0,1-.51,1.62,1.59,1.59,0,0,1-1.24.58,1.4,1.4,0,0,1-.63-.14,2.11,2.11,0,0,1-.59-.47v2.1H61.6Zm1.09,2a1.6,1.6,0,0,0,.28,1,.85.85,0,0,0,.68.34.8.8,0,0,0,.64-.31,1.59,1.59,0,0,0,.26-1,1.51,1.51,0,0,0-.26-1,.81.81,0,0,0-.65-.32.85.85,0,0,0-.67.31A1.39,1.39,0,0,0,62.7,56.56Z" style="fill:#231f20"/><path d="M67.6,58.72H66.5V54.55h1v.59a1.78,1.78,0,0,1,.47-.55.87.87,0,0,1,.48-.13,1.4,1.4,0,0,1,.73.21l-.34,1a1,1,0,0,0-.52-.18.61.61,0,0,0-.39.13.87.87,0,0,0-.25.46,6.55,6.55,0,0,0-.09,1.4Z" style="fill:#231f20"/><path d="M72.09,57.39l1.1.18a1.81,1.81,0,0,1-.67.92,2,2,0,0,1-1.14.32,1.86,1.86,0,0,1-1.61-.71,2.39,2.39,0,0,1-.41-1.44A2.3,2.3,0,0,1,69.9,55a1.79,1.79,0,0,1,1.37-.59,1.85,1.85,0,0,1,1.47.61A2.72,2.72,0,0,1,73.25,57H70.48a1.11,1.11,0,0,0,.27.76.83.83,0,0,0,.64.27.68.68,0,0,0,.44-.14A.87.87,0,0,0,72.09,57.39Zm.06-1.11a1.06,1.06,0,0,0-.25-.73.8.8,0,0,0-1.17,0,1,1,0,0,0-.23.71Z" style="fill:#231f20"/><path d="M75.29,58.72l-1.68-4.17h1.16l.79,2.13.23.71L75.9,57l.12-.35.79-2.13h1.13l-1.66,4.17Z" style="fill:#231f20"/><path d="M81,57.39l1.1.18a1.81,1.81,0,0,1-.67.92,2,2,0,0,1-1.14.32,1.86,1.86,0,0,1-1.61-.71,2.39,2.39,0,0,1-.41-1.44A2.3,2.3,0,0,1,78.84,55a1.79,1.79,0,0,1,1.37-.59,1.85,1.85,0,0,1,1.47.61A2.72,2.72,0,0,1,82.19,57H79.43a1.11,1.11,0,0,0,.27.76.83.83,0,0,0,.64.27.68.68,0,0,0,.44-.14A.87.87,0,0,0,81,57.39Zm.06-1.11a1.06,1.06,0,0,0-.25-.73.8.8,0,0,0-1.17,0,1,1,0,0,0-.23.71Z" style="fill:#231f20"/><path d="M86.88,58.72h-1.1V56.59a3.3,3.3,0,0,0-.07-.87.61.61,0,0,0-.23-.31.66.66,0,0,0-.38-.11.89.89,0,0,0-.51.16.79.79,0,0,0-.31.42,3.59,3.59,0,0,0-.08,1v1.89h-1.1V54.55h1v.61a1.71,1.71,0,0,1,2-.58,1.12,1.12,0,0,1,.46.34,1.22,1.22,0,0,1,.22.46,3.45,3.45,0,0,1,.06.74Z" style="fill:#231f20"/><path d="M89.91,54.55v.88h-.75v1.68a4.15,4.15,0,0,0,0,.59.24.24,0,0,0,.1.14.31.31,0,0,0,.19.05,1.41,1.41,0,0,0,.44-.11l.09.86a2.2,2.2,0,0,1-.87.16,1.39,1.39,0,0,1-.54-.1.79.79,0,0,1-.35-.26,1,1,0,0,1-.15-.43,5.34,5.34,0,0,1,0-.78V55.43h-.51v-.88h.51v-.83l1.11-.64v1.47Z" style="fill:#231f20"/><path d="M95.33,57.39l1.1.18a1.81,1.81,0,0,1-.67.92,2,2,0,0,1-1.14.32A1.86,1.86,0,0,1,93,58.1a2.39,2.39,0,0,1-.41-1.44A2.3,2.3,0,0,1,93.13,55a1.79,1.79,0,0,1,1.37-.59,1.85,1.85,0,0,1,1.47.61A2.72,2.72,0,0,1,96.49,57H93.72a1.11,1.11,0,0,0,.27.76.83.83,0,0,0,.64.27.68.68,0,0,0,.44-.14A.87.87,0,0,0,95.33,57.39Zm.06-1.11a1.06,1.06,0,0,0-.25-.73.8.8,0,0,0-1.17,0,1,1,0,0,0-.23.71Z" style="fill:#231f20"/><path d="M96.85,58.72l1.5-2.15-1.44-2h1.35L99,55.69l.78-1.15h1.3l-1.41,2,1.54,2.19H99.85L99,57.42l-.86,1.29Z" style="fill:#231f20"/><path d="M103,53v2.12a1.65,1.65,0,0,1,2-.48,1.12,1.12,0,0,1,.46.36,1.32,1.32,0,0,1,.21.49,4.35,4.35,0,0,1,.06.83v2.45h-1.1v-2.2a3.28,3.28,0,0,0-.06-.83.55.55,0,0,0-.22-.28.71.71,0,0,0-.4-.1.92.92,0,0,0-.49.13.77.77,0,0,0-.32.4,2.4,2.4,0,0,0-.1.79v2.09h-1.1V53Z" style="fill:#231f20"/><path d="M107.59,55.82l-1-.18a1.56,1.56,0,0,1,.58-.89,2.12,2.12,0,0,1,1.22-.29,2.65,2.65,0,0,1,1.1.17,1.1,1.1,0,0,1,.51.44,2.28,2.28,0,0,1,.15,1v1.29a4.44,4.44,0,0,0,.05.81,2.35,2.35,0,0,0,.2.56H109.3c0-.07-.06-.18-.11-.33l0-.13a2,2,0,0,1-.6.41,1.73,1.73,0,0,1-.69.14,1.42,1.42,0,0,1-1-.35,1.16,1.16,0,0,1-.37-.88,1.18,1.18,0,0,1,.17-.63,1.1,1.1,0,0,1,.47-.42,3.68,3.68,0,0,1,.88-.26,6,6,0,0,0,1.07-.27v-.11a.57.57,0,0,0-.16-.45,1,1,0,0,0-.59-.13.79.79,0,0,0-.46.12A.81.81,0,0,0,107.59,55.82Zm1.48.9a6.91,6.91,0,0,1-.67.17,2,2,0,0,0-.6.19.46.46,0,0,0-.22.39.54.54,0,0,0,.17.4.6.6,0,0,0,.44.17,1,1,0,0,0,.57-.2.69.69,0,0,0,.26-.37,2.18,2.18,0,0,0,0-.54Z" style="fill:#231f20"/><path d="M114,58.72v-.62a1.61,1.61,0,0,1-.6.53,1.68,1.68,0,0,1-.78.19,1.54,1.54,0,0,1-.75-.18,1.09,1.09,0,0,1-.48-.52,2.31,2.31,0,0,1-.15-.92V54.55h1.1v1.92a5.27,5.27,0,0,0,.06,1.08.59.59,0,0,0,.22.31A.68.68,0,0,0,113,58a.87.87,0,0,0,.51-.16.78.78,0,0,0,.31-.38,4.44,4.44,0,0,0,.08-1.12V54.55H115v4.17Z" style="fill:#231f20"/><path d="M115.76,57.53l1.11-.17a.81.81,0,0,0,.29.49,1,1,0,0,0,.6.17,1.09,1.09,0,0,0,.64-.16.35.35,0,0,0,.15-.29.29.29,0,0,0-.08-.21.88.88,0,0,0-.37-.15,6,6,0,0,1-1.69-.54,1.07,1.07,0,0,1-.5-.94,1.16,1.16,0,0,1,.43-.91,2,2,0,0,1,1.33-.37,2.31,2.31,0,0,1,1.27.28,1.42,1.42,0,0,1,.57.82l-1,.19a.65.65,0,0,0-.25-.37.93.93,0,0,0-.53-.13,1.2,1.2,0,0,0-.62.12.26.26,0,0,0-.13.22.24.24,0,0,0,.11.2,4.15,4.15,0,0,0,1,.31,3.06,3.06,0,0,1,1.23.49,1,1,0,0,1,.35.82,1.26,1.26,0,0,1-.48,1,2.12,2.12,0,0,1-1.42.41,2.32,2.32,0,0,1-1.35-.34A1.59,1.59,0,0,1,115.76,57.53Z" style="fill:#231f20"/><path d="M122.53,54.55v.88h-.75v1.68a4.15,4.15,0,0,0,0,.59.24.24,0,0,0,.1.14.31.31,0,0,0,.19.05,1.41,1.41,0,0,0,.44-.11l.09.86a2.2,2.2,0,0,1-.87.16,1.39,1.39,0,0,1-.54-.1.79.79,0,0,1-.35-.26,1,1,0,0,1-.15-.43,5.34,5.34,0,0,1,0-.78V55.43h-.51v-.88h.51v-.83l1.11-.64v1.47Z" style="fill:#231f20"/><path d="M125.43,59l1.26.15a.43.43,0,0,0,.15.3.83.83,0,0,0,.49.12,1.29,1.29,0,0,0,.65-.13.53.53,0,0,0,.22-.28,1.66,1.66,0,0,0,.05-.51V58a1.49,1.49,0,0,1-1.25.67,1.54,1.54,0,0,1-1.33-.71,2.42,2.42,0,0,1-.38-1.4,2.3,2.3,0,0,1,.5-1.6,1.63,1.63,0,0,1,1.25-.55,1.53,1.53,0,0,1,1.28.68v-.58h1v3.74a3.72,3.72,0,0,1-.12,1.1,1.37,1.37,0,0,1-.34.57,1.51,1.51,0,0,1-.59.33,3.1,3.1,0,0,1-.93.12,2.4,2.4,0,0,1-1.5-.36,1.14,1.14,0,0,1-.44-.92S125.43,59,125.43,59Zm1-2.45a1.5,1.5,0,0,0,.26,1,.79.79,0,0,0,.63.31.88.88,0,0,0,.68-.32,1.38,1.38,0,0,0,.28-.94,1.46,1.46,0,0,0-.27-1,.85.85,0,0,0-.68-.31.81.81,0,0,0-.65.31A1.44,1.44,0,0,0,126.42,56.55Z" style="fill:#231f20"/><path d="M131.27,55.82l-1-.18a1.56,1.56,0,0,1,.58-.89,2.12,2.12,0,0,1,1.22-.29,2.65,2.65,0,0,1,1.1.17,1.1,1.1,0,0,1,.51.44,2.27,2.27,0,0,1,.15,1v1.29a4.38,4.38,0,0,0,.05.81,2.37,2.37,0,0,0,.2.56H133c0-.07-.06-.18-.11-.33l0-.13a2,2,0,0,1-.6.41,1.73,1.73,0,0,1-.69.14,1.42,1.42,0,0,1-1-.35,1.16,1.16,0,0,1-.37-.88,1.18,1.18,0,0,1,.17-.63,1.1,1.1,0,0,1,.47-.42,3.68,3.68,0,0,1,.88-.26,6.07,6.07,0,0,0,1.07-.27v-.11a.57.57,0,0,0-.16-.45.94.94,0,0,0-.59-.13.79.79,0,0,0-.46.12A.81.81,0,0,0,131.27,55.82Zm1.48.9q-.21.07-.67.17a2,2,0,0,0-.6.19.46.46,0,0,0-.22.39.54.54,0,0,0,.17.4.6.6,0,0,0,.44.17,1,1,0,0,0,.57-.2.7.7,0,0,0,.26-.37,2.21,2.21,0,0,0,0-.54Z" style="fill:#231f20"/><path d="M134.53,57.53l1.11-.17a.81.81,0,0,0,.29.49,1,1,0,0,0,.6.17,1.09,1.09,0,0,0,.64-.16.35.35,0,0,0,.15-.29.29.29,0,0,0-.08-.21.89.89,0,0,0-.37-.15,6,6,0,0,1-1.69-.54,1.07,1.07,0,0,1-.49-.94,1.16,1.16,0,0,1,.43-.91,2,2,0,0,1,1.33-.37,2.31,2.31,0,0,1,1.27.28,1.42,1.42,0,0,1,.57.82l-1,.19a.65.65,0,0,0-.25-.37.93.93,0,0,0-.53-.13,1.2,1.2,0,0,0-.62.12.26.26,0,0,0-.13.22.24.24,0,0,0,.11.2,4.14,4.14,0,0,0,1,.31,3.07,3.07,0,0,1,1.23.49,1,1,0,0,1,.35.82,1.26,1.26,0,0,1-.48,1,2.11,2.11,0,0,1-1.42.41,2.33,2.33,0,0,1-1.35-.34A1.59,1.59,0,0,1,134.53,57.53Z" style="fill:#231f20"/><path d="M141.8,57.39l1.1.18a1.81,1.81,0,0,1-.67.92,2,2,0,0,1-1.14.32,1.87,1.87,0,0,1-1.61-.71,2.39,2.39,0,0,1-.41-1.44,2.3,2.3,0,0,1,.54-1.62,1.79,1.79,0,0,1,1.37-.59,1.85,1.85,0,0,1,1.47.61A2.73,2.73,0,0,1,143,57H140.2a1.11,1.11,0,0,0,.27.76.83.83,0,0,0,.63.27.68.68,0,0,0,.44-.14A.87.87,0,0,0,141.8,57.39Zm.06-1.11a1.07,1.07,0,0,0-.25-.73.8.8,0,0,0-1.17,0,1,1,0,0,0-.23.71Z" style="fill:#231f20"/><path d="M143.47,57.53l1.11-.17a.81.81,0,0,0,.29.49,1,1,0,0,0,.6.17,1.09,1.09,0,0,0,.64-.16.35.35,0,0,0,.15-.29.29.29,0,0,0-.08-.21.89.89,0,0,0-.37-.15,6,6,0,0,1-1.69-.54,1.07,1.07,0,0,1-.49-.94,1.16,1.16,0,0,1,.43-.91,2,2,0,0,1,1.33-.37,2.31,2.31,0,0,1,1.27.28,1.42,1.42,0,0,1,.57.82l-1,.19a.65.65,0,0,0-.25-.37.93.93,0,0,0-.53-.13,1.2,1.2,0,0,0-.62.12.26.26,0,0,0-.13.22.24.24,0,0,0,.11.2,4.14,4.14,0,0,0,1,.31,3.07,3.07,0,0,1,1.23.49,1,1,0,0,1,.35.82,1.26,1.26,0,0,1-.48,1,2.11,2.11,0,0,1-1.42.41,2.33,2.33,0,0,1-1.35-.34A1.59,1.59,0,0,1,143.47,57.53Z" style="fill:#231f20"/><path d="M151.39,55.82l-1-.18a1.56,1.56,0,0,1,.58-.89,2.12,2.12,0,0,1,1.22-.29,2.65,2.65,0,0,1,1.1.17,1.1,1.1,0,0,1,.51.44,2.29,2.29,0,0,1,.15,1v1.29a4.49,4.49,0,0,0,.05.81,2.43,2.43,0,0,0,.2.56H153.1c0-.07-.06-.18-.11-.33l0-.13a2,2,0,0,1-.61.41,1.73,1.73,0,0,1-.69.14,1.42,1.42,0,0,1-1-.35,1.16,1.16,0,0,1-.37-.88,1.19,1.19,0,0,1,.17-.63,1.1,1.1,0,0,1,.47-.42,3.67,3.67,0,0,1,.88-.26,6.07,6.07,0,0,0,1.07-.27v-.11a.57.57,0,0,0-.16-.45.94.94,0,0,0-.59-.13.79.79,0,0,0-.46.12A.8.8,0,0,0,151.39,55.82Zm1.48.9c-.14,0-.37.1-.67.17a2,2,0,0,0-.6.19.46.46,0,0,0-.21.39.54.54,0,0,0,.17.4A.6.6,0,0,0,152,58a1,1,0,0,0,.57-.2.69.69,0,0,0,.26-.37,2.13,2.13,0,0,0,0-.54Z" style="fill:#231f20"/><path d="M158.83,58.72h-1.1V56.59a3.24,3.24,0,0,0-.07-.87.61.61,0,0,0-.23-.31.65.65,0,0,0-.38-.11.88.88,0,0,0-.51.16.8.8,0,0,0-.31.42,3.57,3.57,0,0,0-.08,1v1.89H155V54.55h1v.61a1.71,1.71,0,0,1,2-.58,1.12,1.12,0,0,1,.46.34,1.22,1.22,0,0,1,.22.46,3.48,3.48,0,0,1,.06.74Z" style="fill:#231f20"/><path d="M163.77,58.72h-1V58.1a1.66,1.66,0,0,1-.6.53,1.55,1.55,0,0,1-.7.17,1.59,1.59,0,0,1-1.23-.58,2.36,2.36,0,0,1-.51-1.62,2.33,2.33,0,0,1,.5-1.61,1.63,1.63,0,0,1,1.26-.55,1.56,1.56,0,0,1,1.21.58V53h1.1Zm-2.94-2.17a1.91,1.91,0,0,0,.18,1,.83.83,0,0,0,.75.43.81.81,0,0,0,.65-.32,1.49,1.49,0,0,0,.27-1,1.64,1.64,0,0,0-.26-1,.85.85,0,0,0-1.32,0A1.41,1.41,0,0,0,160.83,56.54Z" style="fill:#231f20"/><path d="M170.73,55.78l-1.09.2a.79.79,0,0,0-.25-.49.75.75,0,0,0-.5-.17.82.82,0,0,0-.66.28,1.45,1.45,0,0,0-.25,1,1.69,1.69,0,0,0,.25,1,.82.82,0,0,0,.67.31.74.74,0,0,0,.51-.18,1.08,1.08,0,0,0,.28-.61l1.08.18a1.93,1.93,0,0,1-.65,1.13,2,2,0,0,1-1.28.38,1.91,1.91,0,0,1-1.46-.58,2.63,2.63,0,0,1,0-3.21,1.94,1.94,0,0,1,1.48-.58,2,2,0,0,1,1.21.33A1.82,1.82,0,0,1,170.73,55.78Z" style="fill:#231f20"/><path d="M171.31,56.57a2.25,2.25,0,0,1,.27-1.06,1.86,1.86,0,0,1,.77-.79,2.28,2.28,0,0,1,1.11-.27,2.08,2.08,0,0,1,1.55.61,2.12,2.12,0,0,1,.61,1.55,2.15,2.15,0,0,1-.61,1.57,2.06,2.06,0,0,1-1.54.62,2.42,2.42,0,0,1-1.09-.26,1.78,1.78,0,0,1-.79-.76A2.53,2.53,0,0,1,171.31,56.57Zm1.13.06a1.38,1.38,0,0,0,.29,1,1,1,0,0,0,1.45,0,1.4,1.4,0,0,0,.29-1,1.37,1.37,0,0,0-.29-.94,1,1,0,0,0-1.45,0A1.38,1.38,0,0,0,172.44,56.63Z" style="fill:#231f20"/><path d="M180.27,58.72h-1.1V56.59a3.24,3.24,0,0,0-.07-.87.61.61,0,0,0-.23-.31.65.65,0,0,0-.38-.11.88.88,0,0,0-.51.16.8.8,0,0,0-.31.42,3.57,3.57,0,0,0-.08,1v1.89h-1.1V54.55h1v.61a1.71,1.71,0,0,1,2-.58,1.12,1.12,0,0,1,.46.34,1.22,1.22,0,0,1,.22.46,3.48,3.48,0,0,1,.06.74Z" style="fill:#231f20"/><path d="M185.21,58.72h-1V58.1a1.66,1.66,0,0,1-.6.53,1.55,1.55,0,0,1-.7.17,1.59,1.59,0,0,1-1.23-.58,2.36,2.36,0,0,1-.51-1.62,2.33,2.33,0,0,1,.5-1.61,1.63,1.63,0,0,1,1.26-.55,1.56,1.56,0,0,1,1.21.58V53h1.1Zm-2.94-2.17a1.91,1.91,0,0,0,.18,1,.83.83,0,0,0,.75.43.81.81,0,0,0,.65-.32,1.49,1.49,0,0,0,.27-1,1.64,1.64,0,0,0-.26-1,.85.85,0,0,0-1.32,0A1.41,1.41,0,0,0,182.26,56.54Z" style="fill:#231f20"/><path d="M188.71,57.39l1.1.18a1.8,1.8,0,0,1-.67.92,2,2,0,0,1-1.14.32,1.87,1.87,0,0,1-1.61-.71,2.39,2.39,0,0,1-.41-1.44,2.3,2.3,0,0,1,.54-1.62,1.79,1.79,0,0,1,1.37-.59,1.85,1.85,0,0,1,1.47.61,2.72,2.72,0,0,1,.51,1.88h-2.76a1.12,1.12,0,0,0,.27.76A.84.84,0,0,0,188,58a.68.68,0,0,0,.44-.14A.87.87,0,0,0,188.71,57.39Zm.06-1.11a1.06,1.06,0,0,0-.25-.73.76.76,0,0,0-.57-.25.77.77,0,0,0-.6.26,1,1,0,0,0-.23.71Z" style="fill:#231f20"/><path d="M194.56,58.72h-1.1V56.59a3.24,3.24,0,0,0-.07-.87.61.61,0,0,0-.23-.31.65.65,0,0,0-.38-.11.88.88,0,0,0-.51.16.8.8,0,0,0-.31.42,3.57,3.57,0,0,0-.08,1v1.89h-1.1V54.55h1v.61a1.71,1.71,0,0,1,2-.58,1.12,1.12,0,0,1,.46.34,1.22,1.22,0,0,1,.22.46,3.48,3.48,0,0,1,.06.74Z" style="fill:#231f20"/><path d="M195.29,57.53l1.11-.17a.81.81,0,0,0,.29.49,1,1,0,0,0,.6.17,1.09,1.09,0,0,0,.64-.16.35.35,0,0,0,.15-.29.29.29,0,0,0-.08-.21.89.89,0,0,0-.37-.15,6,6,0,0,1-1.69-.54,1.08,1.08,0,0,1-.49-.94,1.16,1.16,0,0,1,.43-.91,2,2,0,0,1,1.33-.37,2.31,2.31,0,0,1,1.27.28,1.42,1.42,0,0,1,.57.82l-1,.19a.64.64,0,0,0-.25-.37.93.93,0,0,0-.53-.13,1.2,1.2,0,0,0-.62.12.26.26,0,0,0-.13.22.24.24,0,0,0,.11.2,4.13,4.13,0,0,0,1,.31,3.07,3.07,0,0,1,1.23.49,1,1,0,0,1,.35.82,1.26,1.26,0,0,1-.48,1,2.12,2.12,0,0,1-1.42.41,2.33,2.33,0,0,1-1.35-.34A1.59,1.59,0,0,1,195.29,57.53Z" style="fill:#231f20"/><path d="M201,55.82l-1-.18a1.56,1.56,0,0,1,.58-.89,2.12,2.12,0,0,1,1.22-.29,2.65,2.65,0,0,1,1.1.17,1.1,1.1,0,0,1,.51.44,2.27,2.27,0,0,1,.15,1v1.29a4.49,4.49,0,0,0,.05.81,2.42,2.42,0,0,0,.2.56h-1.09c0-.07-.06-.18-.11-.33l0-.13a2,2,0,0,1-.6.41,1.73,1.73,0,0,1-.69.14,1.43,1.43,0,0,1-1-.35,1.16,1.16,0,0,1-.37-.88,1.19,1.19,0,0,1,.17-.63,1.1,1.1,0,0,1,.47-.42,3.66,3.66,0,0,1,.88-.26,6.07,6.07,0,0,0,1.07-.27v-.11a.57.57,0,0,0-.16-.45,1,1,0,0,0-.59-.13.79.79,0,0,0-.46.12A.81.81,0,0,0,201,55.82Zm1.48.9q-.21.07-.67.17a2,2,0,0,0-.6.19.46.46,0,0,0-.22.39.54.54,0,0,0,.17.4.6.6,0,0,0,.44.17,1,1,0,0,0,.57-.2.69.69,0,0,0,.26-.37,2.15,2.15,0,0,0,0-.54Z" style="fill:#231f20"/><path d="M206.54,54.55v.88h-.75v1.68a4.15,4.15,0,0,0,0,.59.25.25,0,0,0,.1.14.32.32,0,0,0,.19.05,1.42,1.42,0,0,0,.44-.11l.09.86a2.2,2.2,0,0,1-.87.16,1.39,1.39,0,0,1-.54-.1.79.79,0,0,1-.35-.26,1,1,0,0,1-.16-.43,5.37,5.37,0,0,1,0-.78V55.43h-.51v-.88h.51v-.83l1.11-.64v1.47Z" style="fill:#231f20"/><path d="M209.71,57.39l1.1.18a1.8,1.8,0,0,1-.67.92,2,2,0,0,1-1.14.32,1.87,1.87,0,0,1-1.61-.71,2.39,2.39,0,0,1-.41-1.44,2.3,2.3,0,0,1,.54-1.62,1.79,1.79,0,0,1,1.37-.59,1.85,1.85,0,0,1,1.47.61,2.72,2.72,0,0,1,.51,1.88h-2.76a1.12,1.12,0,0,0,.27.76A.84.84,0,0,0,209,58a.68.68,0,0,0,.44-.14A.87.87,0,0,0,209.71,57.39Zm.06-1.11a1.06,1.06,0,0,0-.25-.73.76.76,0,0,0-.57-.25.77.77,0,0,0-.6.26,1,1,0,0,0-.23.71Z" style="fill:#231f20"/><path d="M213.52,54.55h.61v-.31a2.1,2.1,0,0,1,.11-.79.89.89,0,0,1,.41-.42,1.59,1.59,0,0,1,.76-.16,3.05,3.05,0,0,1,.92.14l-.15.77a2.17,2.17,0,0,0-.51-.06.45.45,0,0,0-.34.11.65.65,0,0,0-.1.43v.29h.82v.87h-.82v3.3h-1.1v-3.3h-.61Z" style="fill:#231f20"/><path d="M217.74,58.72h-1.1V54.55h1v.59a1.78,1.78,0,0,1,.47-.55.87.87,0,0,1,.48-.13,1.4,1.4,0,0,1,.73.21l-.34,1a1,1,0,0,0-.52-.18.61.61,0,0,0-.39.13.87.87,0,0,0-.25.46,6.54,6.54,0,0,0-.09,1.4Z" style="fill:#231f20"/><path d="M219.56,56.57a2.25,2.25,0,0,1,.27-1.06,1.86,1.86,0,0,1,.77-.79,2.28,2.28,0,0,1,1.11-.27,2.08,2.08,0,0,1,1.55.61,2.12,2.12,0,0,1,.61,1.55,2.15,2.15,0,0,1-.61,1.57,2.06,2.06,0,0,1-1.54.62,2.42,2.42,0,0,1-1.09-.26,1.78,1.78,0,0,1-.79-.76A2.53,2.53,0,0,1,219.56,56.57Zm1.13.06a1.38,1.38,0,0,0,.29,1,1,1,0,0,0,1.45,0,1.4,1.4,0,0,0,.29-1,1.37,1.37,0,0,0-.29-.94,1,1,0,0,0-1.45,0A1.38,1.38,0,0,0,220.69,56.63Z" style="fill:#231f20"/><path d="M224.64,54.55h1v.57a1.64,1.64,0,0,1,1.3-.66,1.41,1.41,0,0,1,.7.17,1.26,1.26,0,0,1,.48.5,1.94,1.94,0,0,1,.59-.5,1.46,1.46,0,0,1,.68-.17,1.52,1.52,0,0,1,.78.19,1.14,1.14,0,0,1,.47.55,2.37,2.37,0,0,1,.11.86v2.67h-1.1V56.33a1.78,1.78,0,0,0-.11-.8.52.52,0,0,0-.47-.24.75.75,0,0,0-.44.14.79.79,0,0,0-.29.41,3,3,0,0,0-.09.86v2h-1.1V56.43a3.19,3.19,0,0,0-.06-.79.5.5,0,0,0-.18-.26.58.58,0,0,0-.34-.09.81.81,0,0,0-.46.14.75.75,0,0,0-.29.4,2.92,2.92,0,0,0-.09.86v2h-1.1Z" style="fill:#231f20"/><path d="M12.23,67l1.1.18a1.81,1.81,0,0,1-.67.92,2,2,0,0,1-1.14.32,1.86,1.86,0,0,1-1.61-.71,2.39,2.39,0,0,1-.41-1.44A2.3,2.3,0,0,1,10,64.69a1.79,1.79,0,0,1,1.37-.59,1.85,1.85,0,0,1,1.47.61,2.72,2.72,0,0,1,.51,1.88H10.62a1.11,1.11,0,0,0,.27.76.83.83,0,0,0,.64.27.68.68,0,0,0,.44-.14A.87.87,0,0,0,12.23,67Zm.06-1.11A1.06,1.06,0,0,0,12,65.2a.8.8,0,0,0-1.17,0,1,1,0,0,0-.23.71Z" style="fill:#231f20"/><path d="M18.08,68.37H17V66.24a3.3,3.3,0,0,0-.07-.87.61.61,0,0,0-.23-.31.66.66,0,0,0-.38-.11.89.89,0,0,0-.51.16.79.79,0,0,0-.31.42,3.59,3.59,0,0,0-.08,1v1.89h-1.1V64.2h1v.61a1.71,1.71,0,0,1,2-.58,1.12,1.12,0,0,1,.46.34A1.22,1.22,0,0,1,18,65a3.45,3.45,0,0,1,.06.74Z" style="fill:#231f20"/><path d="M21.11,64.2v.88h-.75v1.68a4.15,4.15,0,0,0,0,.59.24.24,0,0,0,.1.14.31.31,0,0,0,.19.05,1.41,1.41,0,0,0,.44-.11l.09.86a2.2,2.2,0,0,1-.87.16,1.39,1.39,0,0,1-.54-.1.79.79,0,0,1-.35-.26,1,1,0,0,1-.15-.43,5.34,5.34,0,0,1,0-.78V65.08h-.51V64.2h.51v-.83l1.11-.64V64.2Z" style="fill:#231f20"/><path d="M24.29,67l1.1.18a1.81,1.81,0,0,1-.67.92,2,2,0,0,1-1.14.32A1.86,1.86,0,0,1,22,67.75a2.39,2.39,0,0,1-.41-1.44,2.3,2.3,0,0,1,.54-1.62,1.79,1.79,0,0,1,1.37-.59,1.85,1.85,0,0,1,1.47.61,2.72,2.72,0,0,1,.51,1.88H22.68a1.11,1.11,0,0,0,.27.76.83.83,0,0,0,.64.27.68.68,0,0,0,.44-.14A.87.87,0,0,0,24.29,67Zm.06-1.11a1.06,1.06,0,0,0-.25-.73.8.8,0,0,0-1.17,0,1,1,0,0,0-.23.71Z" style="fill:#231f20"/><path d="M27.4,68.37H26.3V64.2h1v.59a1.78,1.78,0,0,1,.47-.55.87.87,0,0,1,.48-.13,1.4,1.4,0,0,1,.73.21l-.34,1a1,1,0,0,0-.52-.18.61.61,0,0,0-.39.13.87.87,0,0,0-.25.46,6.55,6.55,0,0,0-.09,1.4Z" style="fill:#231f20"/><path d="M29.48,63.63v-1h1.1v1Zm0,4.73V64.2h1.1v4.17Z" style="fill:#231f20"/><path d="M35.5,68.37H34.4V66.24a3.3,3.3,0,0,0-.07-.87.61.61,0,0,0-.23-.31.66.66,0,0,0-.38-.11.89.89,0,0,0-.51.16.79.79,0,0,0-.31.42,3.59,3.59,0,0,0-.08,1v1.89H31.7V64.2h1v.61a1.71,1.71,0,0,1,2-.58,1.12,1.12,0,0,1,.46.34,1.22,1.22,0,0,1,.22.46,3.45,3.45,0,0,1,.06.74Z" style="fill:#231f20"/><path d="M36.52,68.64l1.26.15a.43.43,0,0,0,.15.3.83.83,0,0,0,.49.12,1.29,1.29,0,0,0,.65-.13.53.53,0,0,0,.22-.28,1.66,1.66,0,0,0,.05-.51v-.61a1.49,1.49,0,0,1-1.25.67,1.54,1.54,0,0,1-1.33-.71,2.42,2.42,0,0,1-.38-1.4,2.3,2.3,0,0,1,.5-1.6,1.63,1.63,0,0,1,1.25-.55,1.53,1.53,0,0,1,1.28.68V64.2h1v3.74a3.72,3.72,0,0,1-.12,1.1,1.37,1.37,0,0,1-.34.57,1.51,1.51,0,0,1-.59.33,3.1,3.1,0,0,1-.93.12,2.4,2.4,0,0,1-1.5-.36,1.14,1.14,0,0,1-.44-.92S36.52,68.69,36.52,68.64Zm1-2.45a1.5,1.5,0,0,0,.26,1,.79.79,0,0,0,.63.31.88.88,0,0,0,.68-.32,1.38,1.38,0,0,0,.28-.94,1.46,1.46,0,0,0-.27-1,.85.85,0,0,0-.68-.31.81.81,0,0,0-.65.31A1.44,1.44,0,0,0,37.5,66.19Z" style="fill:#231f20"/><path d="M45.68,64.2v.88h-.75v1.68a4.15,4.15,0,0,0,0,.59.24.24,0,0,0,.1.14.31.31,0,0,0,.19.05,1.41,1.41,0,0,0,.44-.11l.09.86a2.2,2.2,0,0,1-.87.16,1.39,1.39,0,0,1-.54-.1A.79.79,0,0,1,44,68.1a1,1,0,0,1-.15-.43,5.34,5.34,0,0,1,0-.78V65.08h-.51V64.2h.51v-.83l1.11-.64V64.2Z" style="fill:#231f20"/><path d="M47.54,62.61v2.12a1.65,1.65,0,0,1,2-.48,1.12,1.12,0,0,1,.46.36,1.32,1.32,0,0,1,.21.49,4.35,4.35,0,0,1,.06.83v2.45h-1.1v-2.2a3.28,3.28,0,0,0-.06-.83.55.55,0,0,0-.22-.28.71.71,0,0,0-.4-.1.92.92,0,0,0-.49.13.77.77,0,0,0-.32.4,2.4,2.4,0,0,0-.1.79v2.09h-1.1V62.61Z" style="fill:#231f20"/><path d="M53.77,67l1.1.18a1.81,1.81,0,0,1-.67.92,2,2,0,0,1-1.14.32,1.86,1.86,0,0,1-1.61-.71A2.39,2.39,0,0,1,51,66.31a2.3,2.3,0,0,1,.54-1.62,1.79,1.79,0,0,1,1.37-.59,1.85,1.85,0,0,1,1.47.61,2.72,2.72,0,0,1,.51,1.88H52.16a1.11,1.11,0,0,0,.27.76.83.83,0,0,0,.64.27.68.68,0,0,0,.44-.14A.87.87,0,0,0,53.77,67Zm.06-1.11a1.06,1.06,0,0,0-.25-.73.8.8,0,0,0-1.17,0,1,1,0,0,0-.23.71Z" style="fill:#231f20"/><path d="M58,68.37V62.61h1.1v2.07a1.56,1.56,0,0,1,1.21-.58,1.63,1.63,0,0,1,1.26.55,2.29,2.29,0,0,1,.5,1.58,2.41,2.41,0,0,1-.51,1.65,1.59,1.59,0,0,1-1.23.58,1.54,1.54,0,0,1-.7-.18,1.69,1.69,0,0,1-.6-.53v.61Zm1.1-2.17a1.77,1.77,0,0,0,.2,1,.87.87,0,0,0,.76.44.78.78,0,0,0,.62-.31,1.53,1.53,0,0,0,.26-1,1.63,1.63,0,0,0-.26-1,.82.82,0,0,0-.66-.32.83.83,0,0,0-.66.31A1.42,1.42,0,0,0,59.11,66.19Z" style="fill:#231f20"/><path d="M65.71,68.37v-.62a1.61,1.61,0,0,1-.6.53,1.68,1.68,0,0,1-.78.19,1.54,1.54,0,0,1-.75-.18,1.09,1.09,0,0,1-.48-.52,2.31,2.31,0,0,1-.15-.92V64.2H64v1.92a5.26,5.26,0,0,0,.06,1.08.59.59,0,0,0,.22.31.68.68,0,0,0,.41.12.87.87,0,0,0,.51-.16.78.78,0,0,0,.31-.38A4.44,4.44,0,0,0,65.64,66V64.2h1.1v4.17Z" style="fill:#231f20"/><path d="M67.88,63.63v-1H69v1Zm0,4.73V64.2H69v4.17Z" style="fill:#231f20"/><path d="M70.12,68.37V62.61h1.1v5.75Z" style="fill:#231f20"/><path d="M76.17,68.37h-1v-.61a1.66,1.66,0,0,1-.6.53,1.55,1.55,0,0,1-.7.17,1.59,1.59,0,0,1-1.23-.58,2.36,2.36,0,0,1-.51-1.62,2.33,2.33,0,0,1,.5-1.61,1.63,1.63,0,0,1,1.26-.55,1.56,1.56,0,0,1,1.21.58V62.61h1.1Zm-2.94-2.17a1.91,1.91,0,0,0,.18,1,.83.83,0,0,0,.75.43.81.81,0,0,0,.65-.32,1.5,1.5,0,0,0,.27-1,1.64,1.64,0,0,0-.26-1,.85.85,0,0,0-1.32,0A1.41,1.41,0,0,0,73.23,66.19Z" style="fill:#231f20"/><path d="M77.26,63.63v-1h1.1v1Zm0,4.73V64.2h1.1v4.17Z" style="fill:#231f20"/><path d="M83.29,68.37h-1.1V66.24a3.3,3.3,0,0,0-.07-.87.61.61,0,0,0-.23-.31.66.66,0,0,0-.38-.11.89.89,0,0,0-.51.16.79.79,0,0,0-.31.42,3.59,3.59,0,0,0-.08,1v1.89h-1.1V64.2h1v.61a1.71,1.71,0,0,1,2-.58,1.12,1.12,0,0,1,.46.34,1.22,1.22,0,0,1,.22.46,3.45,3.45,0,0,1,.06.74Z" style="fill:#231f20"/><path d="M84.3,68.64l1.26.15a.43.43,0,0,0,.15.3.83.83,0,0,0,.49.12,1.29,1.29,0,0,0,.65-.13.53.53,0,0,0,.22-.28,1.66,1.66,0,0,0,.05-.51v-.61a1.49,1.49,0,0,1-1.25.67,1.54,1.54,0,0,1-1.33-.71,2.42,2.42,0,0,1-.38-1.4,2.3,2.3,0,0,1,.5-1.6,1.63,1.63,0,0,1,1.25-.55,1.53,1.53,0,0,1,1.28.68V64.2h1v3.74A3.72,3.72,0,0,1,88.1,69a1.37,1.37,0,0,1-.34.57,1.51,1.51,0,0,1-.59.33,3.1,3.1,0,0,1-.93.12,2.4,2.4,0,0,1-1.5-.36,1.14,1.14,0,0,1-.44-.92S84.3,68.69,84.3,68.64Zm1-2.45a1.5,1.5,0,0,0,.26,1,.79.79,0,0,0,.63.31.88.88,0,0,0,.68-.32,1.38,1.38,0,0,0,.28-.94,1.46,1.46,0,0,0-.27-1,.85.85,0,0,0-.68-.31.81.81,0,0,0-.65.31A1.44,1.44,0,0,0,85.29,66.19Z" style="fill:#231f20"/><path d="M89.32,68.37v-1.1h1.1v1.1Z" style="fill:#231f20"/><path d="M95.09,68.37V63.58H93.38v-1H98v1h-1.7v4.78Z" style="fill:#231f20"/><path d="M99.79,62.61v2.12a1.65,1.65,0,0,1,2-.48,1.12,1.12,0,0,1,.46.36,1.32,1.32,0,0,1,.21.49,4.35,4.35,0,0,1,.06.83v2.45h-1.1v-2.2a3.28,3.28,0,0,0-.06-.83.55.55,0,0,0-.22-.28.71.71,0,0,0-.4-.1.92.92,0,0,0-.49.13.77.77,0,0,0-.32.4,2.4,2.4,0,0,0-.1.79v2.09h-1.1V62.61Z" style="fill:#231f20"/><path d="M106,67l1.1.18a1.81,1.81,0,0,1-.67.92,2,2,0,0,1-1.14.32,1.86,1.86,0,0,1-1.61-.71,2.39,2.39,0,0,1-.41-1.44,2.3,2.3,0,0,1,.54-1.62,1.79,1.79,0,0,1,1.37-.59,1.85,1.85,0,0,1,1.47.61,2.72,2.72,0,0,1,.51,1.88h-2.76a1.11,1.11,0,0,0,.27.76.83.83,0,0,0,.64.27.68.68,0,0,0,.44-.14A.87.87,0,0,0,106,67Zm.06-1.11a1.06,1.06,0,0,0-.25-.73.8.8,0,0,0-1.17,0,1,1,0,0,0-.23.71Z" style="fill:#231f20"/><path d="M113.95,65.43l-1.09.2a.79.79,0,0,0-.25-.49.75.75,0,0,0-.5-.17.83.83,0,0,0-.66.28,1.46,1.46,0,0,0-.25,1,1.68,1.68,0,0,0,.25,1,.82.82,0,0,0,.67.31.74.74,0,0,0,.51-.18,1.07,1.07,0,0,0,.28-.61L114,67a1.92,1.92,0,0,1-.65,1.13,2,2,0,0,1-1.28.38,1.91,1.91,0,0,1-1.46-.58,2.63,2.63,0,0,1,0-3.21,1.94,1.94,0,0,1,1.48-.58,2,2,0,0,1,1.21.33A1.82,1.82,0,0,1,113.95,65.43Z" style="fill:#231f20"/><path d="M115.61,65.47l-1-.18a1.56,1.56,0,0,1,.58-.89,2.12,2.12,0,0,1,1.22-.29,2.65,2.65,0,0,1,1.1.17,1.1,1.1,0,0,1,.51.44,2.28,2.28,0,0,1,.15,1V67a4.44,4.44,0,0,0,.05.81,2.35,2.35,0,0,0,.2.56h-1.09c0-.07-.06-.18-.11-.33l0-.13a2,2,0,0,1-.6.41,1.73,1.73,0,0,1-.69.14,1.42,1.42,0,0,1-1-.35,1.16,1.16,0,0,1-.37-.88,1.18,1.18,0,0,1,.17-.63,1.1,1.1,0,0,1,.47-.42,3.68,3.68,0,0,1,.88-.26,6,6,0,0,0,1.07-.27v-.11a.57.57,0,0,0-.16-.45,1,1,0,0,0-.59-.13.79.79,0,0,0-.46.12A.81.81,0,0,0,115.61,65.47Zm1.48.9a6.91,6.91,0,0,1-.67.17,2,2,0,0,0-.6.19.46.46,0,0,0-.22.39.54.54,0,0,0,.17.4.6.6,0,0,0,.44.17,1,1,0,0,0,.57-.2.69.69,0,0,0,.26-.37,2.18,2.18,0,0,0,0-.54Z" style="fill:#231f20"/><path d="M119.22,64.2h1v.61a1.54,1.54,0,0,1,.54-.51,1.49,1.49,0,0,1,.76-.2,1.59,1.59,0,0,1,1.23.57,2.31,2.31,0,0,1,.51,1.59,2.38,2.38,0,0,1-.51,1.62,1.59,1.59,0,0,1-1.24.58,1.4,1.4,0,0,1-.63-.14,2.11,2.11,0,0,1-.59-.47V70h-1.1Zm1.09,2a1.6,1.6,0,0,0,.28,1,.85.85,0,0,0,.68.34.8.8,0,0,0,.64-.31,1.59,1.59,0,0,0,.26-1,1.51,1.51,0,0,0-.26-1,.81.81,0,0,0-.65-.32.85.85,0,0,0-.67.31A1.39,1.39,0,0,0,120.32,66.21Z" style="fill:#231f20"/><path d="M126.4,63.63v-1h1.1v1Zm0,4.73V64.2h1.1v4.17Z" style="fill:#231f20"/><path d="M128.25,67.18l1.11-.17a.81.81,0,0,0,.29.49,1,1,0,0,0,.6.17,1.09,1.09,0,0,0,.64-.16.35.35,0,0,0,.15-.29A.29.29,0,0,0,131,67a.88.88,0,0,0-.37-.15,6,6,0,0,1-1.69-.54,1.07,1.07,0,0,1-.5-.94,1.16,1.16,0,0,1,.43-.91,2,2,0,0,1,1.33-.37,2.31,2.31,0,0,1,1.27.28,1.43,1.43,0,0,1,.57.82l-1,.19a.65.65,0,0,0-.25-.37.93.93,0,0,0-.53-.13,1.2,1.2,0,0,0-.62.12.26.26,0,0,0-.13.22.24.24,0,0,0,.11.2,4.15,4.15,0,0,0,1,.31,3.06,3.06,0,0,1,1.23.49,1,1,0,0,1,.35.82,1.26,1.26,0,0,1-.48,1,2.12,2.12,0,0,1-1.42.41,2.32,2.32,0,0,1-1.35-.34A1.59,1.59,0,0,1,128.25,67.18Z" style="fill:#231f20"/><path d="M135,67.18l1.11-.17a.81.81,0,0,0,.29.49,1,1,0,0,0,.6.17,1.09,1.09,0,0,0,.64-.16.35.35,0,0,0,.15-.29.29.29,0,0,0-.08-.21.89.89,0,0,0-.37-.15,6,6,0,0,1-1.69-.54,1.07,1.07,0,0,1-.49-.94,1.16,1.16,0,0,1,.43-.91,2,2,0,0,1,1.33-.37,2.31,2.31,0,0,1,1.27.28,1.42,1.42,0,0,1,.57.82l-1,.19a.65.65,0,0,0-.25-.37.93.93,0,0,0-.53-.13,1.2,1.2,0,0,0-.62.12.26.26,0,0,0-.13.22.24.24,0,0,0,.11.2,4.14,4.14,0,0,0,1,.31,3.07,3.07,0,0,1,1.23.49,1,1,0,0,1,.35.82,1.26,1.26,0,0,1-.48,1,2.11,2.11,0,0,1-1.42.41,2.33,2.33,0,0,1-1.35-.34A1.59,1.59,0,0,1,135,67.18Z" style="fill:#231f20"/><path d="M142.56,68.37v-.62a1.62,1.62,0,0,1-.6.53,1.68,1.68,0,0,1-.78.19,1.54,1.54,0,0,1-.75-.18,1.09,1.09,0,0,1-.48-.52,2.31,2.31,0,0,1-.15-.92V64.2h1.1v1.92a5.28,5.28,0,0,0,.06,1.08.59.59,0,0,0,.22.31.68.68,0,0,0,.41.12.87.87,0,0,0,.51-.16.79.79,0,0,0,.31-.38,4.41,4.41,0,0,0,.08-1.12V64.2h1.1v4.17Z" style="fill:#231f20"/><path d="M144.69,64.2h1v.61a1.54,1.54,0,0,1,.54-.51,1.49,1.49,0,0,1,.76-.2,1.59,1.59,0,0,1,1.23.57,2.31,2.31,0,0,1,.51,1.59,2.37,2.37,0,0,1-.51,1.62,1.59,1.59,0,0,1-1.24.58,1.39,1.39,0,0,1-.62-.14,2.12,2.12,0,0,1-.59-.47V70h-1.1Zm1.09,2a1.61,1.61,0,0,0,.28,1,.85.85,0,0,0,.68.34.79.79,0,0,0,.64-.31,1.59,1.59,0,0,0,.26-1,1.51,1.51,0,0,0-.26-1,.81.81,0,0,0-.65-.32.84.84,0,0,0-.67.31A1.39,1.39,0,0,0,145.78,66.21Z" style="fill:#231f20"/><path d="M149.6,64.2h1v.61a1.54,1.54,0,0,1,.54-.51,1.49,1.49,0,0,1,.76-.2,1.59,1.59,0,0,1,1.23.57,2.3,2.3,0,0,1,.51,1.59,2.38,2.38,0,0,1-.51,1.62,1.59,1.59,0,0,1-1.24.58,1.41,1.41,0,0,1-.63-.14,2.11,2.11,0,0,1-.59-.47V70h-1.1Zm1.09,2a1.6,1.6,0,0,0,.28,1,.85.85,0,0,0,.68.34.79.79,0,0,0,.64-.31,1.58,1.58,0,0,0,.26-1,1.51,1.51,0,0,0-.26-1,.81.81,0,0,0-.65-.32.85.85,0,0,0-.67.31A1.39,1.39,0,0,0,150.69,66.21Z" style="fill:#231f20"/><path d="M154.54,68.37V62.61h1.1v5.75Z" style="fill:#231f20"/><path d="M156.78,63.63v-1h1.1v1Zm0,4.73V64.2h1.1v4.17Z" style="fill:#231f20"/><path d="M161.43,67l1.1.18a1.8,1.8,0,0,1-.67.92,2,2,0,0,1-1.14.32,1.87,1.87,0,0,1-1.61-.71,2.39,2.39,0,0,1-.41-1.44,2.3,2.3,0,0,1,.54-1.62,1.79,1.79,0,0,1,1.37-.59,1.85,1.85,0,0,1,1.47.61,2.72,2.72,0,0,1,.51,1.88h-2.76a1.12,1.12,0,0,0,.27.76.84.84,0,0,0,.64.27.68.68,0,0,0,.44-.14A.87.87,0,0,0,161.43,67Zm.06-1.11a1.06,1.06,0,0,0-.25-.73.76.76,0,0,0-.57-.25.77.77,0,0,0-.6.26,1,1,0,0,0-.23.71Z" style="fill:#231f20"/><path d="M167.31,68.37h-1v-.61a1.66,1.66,0,0,1-.6.53,1.55,1.55,0,0,1-.7.17,1.59,1.59,0,0,1-1.23-.58,2.36,2.36,0,0,1-.51-1.62,2.33,2.33,0,0,1,.5-1.61A1.63,1.63,0,0,1,165,64.1a1.56,1.56,0,0,1,1.21.58V62.61h1.1Zm-2.94-2.17a1.91,1.91,0,0,0,.18,1,.83.83,0,0,0,.75.43.81.81,0,0,0,.65-.32,1.49,1.49,0,0,0,.27-1,1.64,1.64,0,0,0-.26-1,.85.85,0,0,0-1.32,0A1.41,1.41,0,0,0,164.36,66.19Z" style="fill:#231f20"/><path d="M170.37,66.22a2.25,2.25,0,0,1,.27-1.06,1.86,1.86,0,0,1,.77-.79,2.28,2.28,0,0,1,1.11-.27,2.08,2.08,0,0,1,1.55.61,2.12,2.12,0,0,1,.61,1.55,2.15,2.15,0,0,1-.61,1.57,2.06,2.06,0,0,1-1.54.62,2.42,2.42,0,0,1-1.09-.26,1.78,1.78,0,0,1-.79-.76A2.53,2.53,0,0,1,170.37,66.22Zm1.13.06a1.38,1.38,0,0,0,.29,1,1,1,0,0,0,1.45,0,1.4,1.4,0,0,0,.29-1,1.37,1.37,0,0,0-.29-.94,1,1,0,0,0-1.45,0A1.38,1.38,0,0,0,171.5,66.28Z" style="fill:#231f20"/><path d="M179.33,68.37h-1.1V66.24a3.24,3.24,0,0,0-.07-.87.61.61,0,0,0-.23-.31.65.65,0,0,0-.38-.11.88.88,0,0,0-.51.16.8.8,0,0,0-.31.42,3.57,3.57,0,0,0-.08,1v1.89h-1.1V64.2h1v.61a1.71,1.71,0,0,1,2-.58,1.12,1.12,0,0,1,.46.34,1.22,1.22,0,0,1,.22.46,3.48,3.48,0,0,1,.06.74Z" style="fill:#231f20"/><path d="M184.6,64.2v.88h-.75v1.68a4.15,4.15,0,0,0,0,.59.25.25,0,0,0,.1.14.32.32,0,0,0,.19.05,1.42,1.42,0,0,0,.44-.11l.09.86a2.2,2.2,0,0,1-.87.16,1.39,1.39,0,0,1-.54-.1.79.79,0,0,1-.35-.26,1,1,0,0,1-.16-.43,5.37,5.37,0,0,1,0-.78V65.08h-.51V64.2h.51v-.83l1.11-.64V64.2Z" style="fill:#231f20"/><path d="M186.46,62.61v2.12a1.65,1.65,0,0,1,2-.48,1.12,1.12,0,0,1,.46.36,1.31,1.31,0,0,1,.21.49,4.35,4.35,0,0,1,.06.83v2.45h-1.1v-2.2a3.24,3.24,0,0,0-.06-.83.54.54,0,0,0-.22-.28.71.71,0,0,0-.4-.1.91.91,0,0,0-.49.13.77.77,0,0,0-.32.4,2.42,2.42,0,0,0-.1.79v2.09h-1.1V62.61Z" style="fill:#231f20"/><path d="M192.69,67l1.1.18a1.8,1.8,0,0,1-.67.92,2,2,0,0,1-1.14.32,1.87,1.87,0,0,1-1.61-.71,2.39,2.39,0,0,1-.41-1.44,2.3,2.3,0,0,1,.54-1.62,1.79,1.79,0,0,1,1.37-.59,1.85,1.85,0,0,1,1.47.61,2.72,2.72,0,0,1,.51,1.88h-2.76a1.12,1.12,0,0,0,.27.76.84.84,0,0,0,.64.27.68.68,0,0,0,.44-.14A.87.87,0,0,0,192.69,67Zm.06-1.11a1.06,1.06,0,0,0-.25-.73.76.76,0,0,0-.57-.25.77.77,0,0,0-.6.26,1,1,0,0,0-.23.71Z" style="fill:#231f20"/><path d="M197.8,65.47l-1-.18a1.56,1.56,0,0,1,.58-.89,2.12,2.12,0,0,1,1.22-.29,2.65,2.65,0,0,1,1.1.17,1.1,1.1,0,0,1,.51.44,2.27,2.27,0,0,1,.15,1V67a4.49,4.49,0,0,0,.05.81,2.42,2.42,0,0,0,.2.56h-1.09c0-.07-.06-.18-.11-.33l0-.13a2,2,0,0,1-.6.41,1.73,1.73,0,0,1-.69.14,1.43,1.43,0,0,1-1-.35,1.16,1.16,0,0,1-.37-.88,1.19,1.19,0,0,1,.17-.63,1.1,1.1,0,0,1,.47-.42,3.66,3.66,0,0,1,.88-.26,6.07,6.07,0,0,0,1.07-.27v-.11a.57.57,0,0,0-.16-.45,1,1,0,0,0-.59-.13.79.79,0,0,0-.46.12A.81.81,0,0,0,197.8,65.47Zm1.48.9q-.21.07-.67.17a2,2,0,0,0-.6.19.46.46,0,0,0-.22.39.54.54,0,0,0,.17.4.6.6,0,0,0,.44.17,1,1,0,0,0,.57-.2.69.69,0,0,0,.26-.37,2.15,2.15,0,0,0,0-.54Z" style="fill:#231f20"/><path d="M201.42,64.2h1v.61a1.55,1.55,0,0,1,.54-.51,1.49,1.49,0,0,1,.76-.2,1.59,1.59,0,0,1,1.23.57,2.3,2.3,0,0,1,.51,1.59,2.38,2.38,0,0,1-.51,1.62,1.59,1.59,0,0,1-1.24.58,1.41,1.41,0,0,1-.63-.14,2.13,2.13,0,0,1-.59-.47V70h-1.1Zm1.09,2a1.6,1.6,0,0,0,.28,1,.85.85,0,0,0,.68.34.79.79,0,0,0,.64-.31,1.58,1.58,0,0,0,.26-1,1.51,1.51,0,0,0-.26-1,.81.81,0,0,0-.65-.32.84.84,0,0,0-.67.31A1.39,1.39,0,0,0,202.51,66.21Z" style="fill:#231f20"/><path d="M206.33,64.2h1v.61a1.55,1.55,0,0,1,.54-.51,1.49,1.49,0,0,1,.76-.2,1.59,1.59,0,0,1,1.23.57,2.3,2.3,0,0,1,.51,1.59,2.38,2.38,0,0,1-.51,1.62,1.59,1.59,0,0,1-1.24.58,1.41,1.41,0,0,1-.63-.14,2.13,2.13,0,0,1-.59-.47V70h-1.1Zm1.09,2a1.6,1.6,0,0,0,.28,1,.85.85,0,0,0,.68.34.79.79,0,0,0,.64-.31,1.58,1.58,0,0,0,.26-1,1.51,1.51,0,0,0-.26-1,.81.81,0,0,0-.65-.32.84.84,0,0,0-.67.31A1.39,1.39,0,0,0,207.42,66.21Z" style="fill:#231f20"/><path d="M211.27,68.37V62.61h1.1v5.75Z" style="fill:#231f20"/><path d="M213.5,63.63v-1h1.1v1Zm0,4.73V64.2h1.1v4.17Z" style="fill:#231f20"/><path d="M216.56,65.47l-1-.18a1.56,1.56,0,0,1,.58-.89,2.12,2.12,0,0,1,1.22-.29,2.65,2.65,0,0,1,1.1.17,1.1,1.1,0,0,1,.51.44,2.27,2.27,0,0,1,.15,1V67a4.49,4.49,0,0,0,.05.81,2.42,2.42,0,0,0,.2.56h-1.09c0-.07-.06-.18-.11-.33l0-.13a2,2,0,0,1-.6.41,1.73,1.73,0,0,1-.69.14,1.43,1.43,0,0,1-1-.35,1.16,1.16,0,0,1-.37-.88,1.19,1.19,0,0,1,.17-.63,1.1,1.1,0,0,1,.47-.42,3.66,3.66,0,0,1,.88-.26,6.07,6.07,0,0,0,1.07-.27v-.11a.57.57,0,0,0-.16-.45,1,1,0,0,0-.59-.13.79.79,0,0,0-.46.12A.81.81,0,0,0,216.56,65.47Zm1.48.9q-.21.07-.67.17a2,2,0,0,0-.6.19.46.46,0,0,0-.22.39.54.54,0,0,0,.17.4.6.6,0,0,0,.44.17,1,1,0,0,0,.57-.2.69.69,0,0,0,.26-.37,2.15,2.15,0,0,0,0-.54Z" style="fill:#231f20"/><path d="M224,68.37h-1.1V66.24a3.24,3.24,0,0,0-.07-.87.61.61,0,0,0-.23-.31.65.65,0,0,0-.38-.11.88.88,0,0,0-.51.16.8.8,0,0,0-.31.42,3.57,3.57,0,0,0-.08,1v1.89h-1.1V64.2h1v.61a1.71,1.71,0,0,1,2-.58,1.12,1.12,0,0,1,.46.34,1.22,1.22,0,0,1,.22.46,3.48,3.48,0,0,1,.06.74Z" style="fill:#231f20"/><path d="M228.76,65.43l-1.09.2a.79.79,0,0,0-.25-.49.75.75,0,0,0-.5-.17.82.82,0,0,0-.66.28,1.45,1.45,0,0,0-.25,1,1.69,1.69,0,0,0,.25,1,.82.82,0,0,0,.67.31.74.74,0,0,0,.51-.18,1.08,1.08,0,0,0,.28-.61l1.08.18a1.93,1.93,0,0,1-.65,1.13,2,2,0,0,1-1.28.38,1.91,1.91,0,0,1-1.46-.58,2.63,2.63,0,0,1,0-3.21,1.94,1.94,0,0,1,1.48-.58,2,2,0,0,1,1.21.33A1.82,1.82,0,0,1,228.76,65.43Z" style="fill:#231f20"/><path d="M232,67l1.1.18a1.8,1.8,0,0,1-.67.92,2,2,0,0,1-1.14.32,1.87,1.87,0,0,1-1.61-.71,2.39,2.39,0,0,1-.41-1.44,2.3,2.3,0,0,1,.54-1.62,1.79,1.79,0,0,1,1.37-.59,1.85,1.85,0,0,1,1.47.61,2.72,2.72,0,0,1,.51,1.88H230.4a1.12,1.12,0,0,0,.27.76.84.84,0,0,0,.64.27.68.68,0,0,0,.44-.14A.87.87,0,0,0,232,67Zm.06-1.11a1.06,1.06,0,0,0-.25-.73.76.76,0,0,0-.57-.25.77.77,0,0,0-.6.26,1,1,0,0,0-.23.71Z" style="fill:#231f20"/><path d="M234.06,68.37v-1.1h1.1v1.1Z" style="fill:#231f20"/></svg>