<svg xmlns="http://www.w3.org/2000/svg" xmlns:xlink="http://www.w3.org/1999/xlink" viewBox="0 0 243.7 167.51"><defs><style>.cls-1,.cls-5{fill:none;}.cls-10,.cls-2,.cls-3,.cls-4,.cls-5,.cls-8{stroke:#000;}.cls-2{stroke-width:0.25px;}.cls-3,.cls-4{stroke-width:0.12px;}.cls-4,.cls-6{fill:#fff;}.cls-7{font-size:10.5px;font-family:Arial-BoldMT, Arial;font-weight:700;}.cls-9{clip-path:url(#clip-path);}.cls-10{stroke-width:1.18px;}.cls-11{font-size:9px;font-family:ArialMT, Arial;}.cls-12{letter-spacing:-0.06em;}.cls-13{letter-spacing:-0.02em;}</style><clipPath id="clip-path"><polygon class="cls-1" points="6.89 160.19 55.68 165.54 61.12 117.53 12.33 112.18 6.89 160.19"/></clipPath></defs><title>wrnng_fre-and-explsn-hzrd_boiler</title><g id="Layer_1" data-name="Layer 1"><path d="M17.52,56.7c0-.08.07-2.65.07-2.72.12-1.39.66-5.21.74-6.24a41.62,41.62,0,0,0-.12-10.58c0-.36,1.45.68,3.81,4.36.71,1.11,1.69,3.12,2.06,3.49.52.52.8.23.85-.75.14-2.9.66-5.13,1-7.37a55.75,55.75,0,0,0,.71-9.53c0-2.6-.18-3,1-1.87a12.82,12.82,0,0,1,3.21,4.63c.64,1.48,1.06,6,1.68,1.55a23.23,23.23,0,0,0,.5-4.32c.06-1.21.2-2.86.26-4.77.2-5.73,1.41-7.62,1.52-7.83.41-.83.74,1.47,1.12,2.9s.67,1.55,2.57,5.14c3.13,5.92,2.15,4.65,3.72,6.41,3.84,4.32,2.3,10.69,3.72,6.42.76-2.26,1.44-3.52,1.67-4.52,1.15-5.15,1-3.91,2.1-1.35.83,1.94,3.21,6.18,3,10a18.25,18.25,0,0,0,.16,5.31c.87,6.73,1,5.23,2.22,1.82C57.93,38.74,57.33,41,57.8,42c1.35,2.89,2.19,4.78,2.46,6.85.76,5.83.51,6.18,0,9.27-1.12,7.25-3.24,8.27.31,6.3,1.51-.83,2.23-2.68,2.07-1.5-1.55,11.37-2,11.77-6.34,16.72-4.07,4.66-9.31,6-14.62,6.6a44.72,44.72,0,0,1-14.37-.7,17.84,17.84,0,0,1-9.47-4.86c-4.14-4.39-4.37-7.25-4.74-12.94,0-.24,0-2.09,0-2.32,0-.59,0,.51,0-2.54,0-6.14,0-11.87-.3-13.28-.24-1.06,2.4,1.75,4.66,7Z"/><rect class="cls-2" x="19.21" y="87.37" width="34.59" height="1.78"/><path class="cls-3" d="M44,23.21a6.19,6.19,0,0,1,.7-2.26c.44-.59.17-.62,2.66-2.17a2.78,2.78,0,0,0,1.26-1.57c.14-.37.3-.73.39-.2a4.26,4.26,0,0,1-.12,2A3,3,0,0,1,48,20.43a14.31,14.31,0,0,1-1.87,1.21A7.2,7.2,0,0,0,44.51,23c-.28.34-.53.43-.53.21Z"/><path class="cls-4" d="M34.41,44.24a6.78,6.78,0,0,1,.7-2.27c.45-.58.17-.61,2.66-2.16A2.81,2.81,0,0,0,39,38.24c.14-.37.3-.73.38-.2a4.2,4.2,0,0,1-.11,2.05,3,3,0,0,1-.83,1.37,13.91,13.91,0,0,1-1.88,1.21A7.13,7.13,0,0,0,35,44c-.28.33-.54.43-.54.21Z"/><path class="cls-3" d="M31.94,11.92a6.61,6.61,0,0,0-.73-2.25c-.46-.58-.18-.61-2.7-2.12A2.79,2.79,0,0,1,27.22,6c-.15-.37-.31-.73-.39-.2A4.32,4.32,0,0,0,27,7.85a3.06,3.06,0,0,0,.85,1.36,15.2,15.2,0,0,0,1.9,1.18,7.2,7.2,0,0,1,1.68,1.33c.28.33.54.42.53.2Z"/><path class="cls-4" d="M32.28,86.13a51.68,51.68,0,0,1-6.77-6.93c-1.9-2.37-3.55-5.36-3.87-7.8-.36-2.66-.56-3.14.87-.6.08.15.69,1.35,1,1.33s.18-1.72.48-3.31a41,41,0,0,0,.52-4.41c.08-2.19.08-4.33,0-4.95,0-.36-.06-1.1.08-1.12a2.7,2.7,0,0,1,1.24,1.53,17.77,17.77,0,0,1,.9,4.45,12.16,12.16,0,0,0,1.82,6.28,2.8,2.8,0,0,0,2.2,1.34c.33,0,.16-.83,0-1.52a14.22,14.22,0,0,1-.32-3.27,16.47,16.47,0,0,1,.21-4.3,22.77,22.77,0,0,1,.76-3c.86-2.09.82-.54.86,0a14.24,14.24,0,0,0,.33,1.89,14.45,14.45,0,0,0,2.09,4.76c1.25,1.68,1.77,1.77,1.77,1.77a4.82,4.82,0,0,0,1.54-2,24.62,24.62,0,0,0,1.73-5.86c.33-1.94.26-8.19.42-10.32.06-.93,2.56,2.82,3.38,5.22a13.73,13.73,0,0,1,.79,6.3c-.24,1.6-.43,2.19.26,2.39.14,0,1.12-.46,1.78-2s1.41-3.28,1.67-2a22.66,22.66,0,0,1,.75,5c.07,1.38-1.26,4.42-.39,4.78.2.09.52,0,1.11-.6s1.49-1.49,1.13,0a38.29,38.29,0,0,1-3.27,6.65c-1.63,2.64-4.88,5.61-6.36,7.09A39.2,39.2,0,0,1,37.3,86.3Z"/><rect class="cls-5" x="0.5" y="0.5" width="242.7" height="166.51"/><polyline points="73.95 27.13 242.79 27.13 242.79 0.67 73.95 0.67"/><path class="cls-6" d="M214,16.4V13.77h6.62V20a8.23,8.23,0,0,1-2.8,1.69,10,10,0,0,1-3.7.72,8.2,8.2,0,0,1-4.16-1,6.57,6.57,0,0,1-2.67-2.94,9.8,9.8,0,0,1-.89-4.16,9.1,9.1,0,0,1,1-4.33,6.74,6.74,0,0,1,2.91-2.9A7.69,7.69,0,0,1,214,6.27a7.1,7.1,0,0,1,4.42,1.22,5.49,5.49,0,0,1,2.05,3.37l-3,.58a3.31,3.31,0,0,0-1.22-1.81A3.52,3.52,0,0,0,214,9a4.12,4.12,0,0,0-3.2,1.31,5.62,5.62,0,0,0-1.18,3.89,6.2,6.2,0,0,0,1.2,4.16,4,4,0,0,0,3.15,1.39,5.17,5.17,0,0,0,1.94-.39,6.6,6.6,0,0,0,1.66-.94v-2m-25.9,5.74V6.53h3L200.84,17V6.53h2.86V22.14h-3.09L194.48,12V22.14Zm-6,0V6.53h3.07V22.14Zm-15.22,0V6.53h3L179.6,17V6.53h2.86V22.14h-3.09L173.25,12V22.14Zm-12.29-9h2.27a11.28,11.28,0,0,0,2.76-.19,1.65,1.65,0,0,0,.87-.66,2.12,2.12,0,0,0,.31-1.17,1.92,1.92,0,0,0-.41-1.27,1.87,1.87,0,0,0-1.16-.61c-.25,0-1-.05-2.24-.05h-2.4Zm-3.07,9V6.53h6.47A10.77,10.77,0,0,1,165,7a3.55,3.55,0,0,1,1.77,1.49,4.6,4.6,0,0,1,.66,2.46,4.23,4.23,0,0,1-1,2.9,4.79,4.79,0,0,1-3,1.44,7.27,7.27,0,0,1,1.65,1.31,18.24,18.24,0,0,1,1.74,2.53l1.86,3.05H165l-2.22-3.4a21.77,21.77,0,0,0-1.62-2.29,2.3,2.3,0,0,0-.92-.65,4.86,4.86,0,0,0-1.55-.18h-.62v6.52ZM147.74,16l-2.09-5.78L143.59,16Zm5.66,6.18h-3.35l-1.32-3.55h-6.08l-1.26,3.55h-3.25l5.92-15.61h3.25Zm-30.43,0L119.34,6.53h3.14l2.29,10.72,2.78-10.72h3.65l2.67,10.9,2.33-10.9h3.09L135.6,22.14h-3.26l-3-11.67-3,11.67Zm-15-6.57a.57.57,0,0,1-.52.53h-.07a.51.51,0,0,1-.51-.53c-1.69-5.49-2.5-9.34.51-9.34S109.59,10.08,108,15.57Zm-.59,5.95a1.66,1.66,0,0,1,0-3.31h.07a1.66,1.66,0,0,1-.07,3.31ZM108.64,4.8a1.27,1.27,0,0,0-1.25-.9,1.17,1.17,0,0,0-1.18.9L97.85,19.57c-1.1,1.88-.15,2.63,1,2.71H116c1.17-.08,2-.83,1-2.71Z"/><text class="cls-7" transform="translate(93.07 37.25)">Fire and Explosion Hazard</text><line class="cls-8" x1="74.01" y1="41.21" x2="243.11" y2="41.21"/><line class="cls-8" x1="71.82" y1="167.01" x2="71.82" y2="0.56"/><g class="cls-9"><polyline points="21.75 158.78 21.19 149.63 25.49 154.37 27.28 143.43 30.89 152.29 32.8 147.56 33.98 151.15 36.65 145.54 36.37 154.37 43.85 149.9 40.18 158.93 43.27 158.42 41.63 161.25 46.74 160.28 52.13 154.85 44.85 157.06 58.12 132.05 43.57 144.08 45.08 136.64 40.25 141.85 42.86 116.92 34.93 139.39 32.84 130.69 30.91 139.46 21.32 114.49 21.5 142.06 14.22 132.12 17.53 148.95 10.23 142.64 18.14 160.09 21.57 160.35"/></g><path class="cls-10" d="M68.09,121.21c0,2.89-5.48,6.69-6.46,7.56-1.86,1.66-4.16,2.58-6.21,1.2s-6.2-5-6.2-5-1.59,2.8-3.13,2.49c-1.38-.28-4-5.8-8.39-11.47a16.54,16.54,0,0,1-3.09-7.73,15.92,15.92,0,0,1,1.66-7.5c1.27-2.23,4.69-6.17,7.23-7.28s3.16-1.62,7.43-1.51c3.45.08,4.58.63,7.76,2.84a71.86,71.86,0,0,1,7.48,6l1.66,1.55C68.66,103.08,68.06,116.44,68.09,121.21Z"/><polyline class="cls-6" points="41.22 121.64 42.93 116.75 42.17 123.25 41.21 121.71"/><path class="cls-6" d="M44.78,113.4c.73.8.92,1.79.43,2.23s-1.47.14-2.2-.66-.91-1.79-.43-2.22S44.06,112.6,44.78,113.4Z"/></g><g id="text"><text class="cls-11" transform="translate(78.27 52.93)">There is a risk of fire or explosion in <tspan x="0" y="10.8">areas where gasoline, other flamable </tspan><tspan x="0" y="21.6">liquids, or gngine dirven equipment and </tspan><tspan x="0" y="32.4">vehicles are stored, operated, or </tspan><tspan x="0" y="43.2">repaired when a fule burning appliance, </tspan><tspan x="0" y="54">such as a boiler is operated.</tspan><tspan x="0" y="64.8">Flamable vapors are heavy and travel </tspan><tspan x="0" y="75.6">along the floo</tspan><tspan class="cls-12" x="54.04" y="75.6">r</tspan><tspan x="56.54" y="75.6">.</tspan><tspan class="cls-13" x="59.04" y="75.6"> </tspan><tspan x="61.38" y="75.6">They may be ignited by </tspan><tspan x="0" y="86.4">sparks, causing fire or explosion.</tspan></text></g></svg>