<svg xmlns="http://www.w3.org/2000/svg" viewBox="0 0 280.95 176.31"><defs><style>.cls-1,.cls-3,.cls-4,.cls-5,.cls-8,.cls-9{stroke:#000;}.cls-1,.cls-2,.cls-4{stroke-width:0.5px;}.cls-2,.cls-5,.cls-6,.cls-7{fill:#fff;}.cls-2,.cls-7{stroke:#fff;}.cls-3,.cls-4,.cls-8{fill:none;}.cls-3,.cls-5,.cls-7{stroke-width:0.25px;}.cls-10{font-size:11px;font-family:Arial-BoldMT, Arial;font-weight:700;}.cls-11{font-size:8px;}.cls-11,.cls-28{font-family:ArialMT, Arial;}.cls-12{letter-spacing:0.09em;}.cls-13{letter-spacing:0.09em;}.cls-14{letter-spacing:0.01em;}.cls-15{letter-spacing:-0.06em;}.cls-16{letter-spacing:-0.01em;}.cls-17{letter-spacing:-0.01em;}.cls-18{letter-spacing:-0.01em;}.cls-19{letter-spacing:-0.01em;}.cls-20{letter-spacing:-0.01em;}.cls-21{letter-spacing:0.43em;}.cls-22{letter-spacing:0.43em;}.cls-23{letter-spacing:0.38em;}.cls-24{letter-spacing:0.22em;}.cls-25{letter-spacing:0.22em;}.cls-26{letter-spacing:0.29em;}.cls-27{letter-spacing:0.29em;}.cls-28{font-size:8.5px;}.cls-29{letter-spacing:-0.06em;}.cls-30{letter-spacing:0em;}</style></defs><title>wrnng_brthng-hzrd_CO-gas_frm_condensate-line</title><g id="Layer_1" data-name="Layer 1"><path class="cls-1" d="M.48,95.65c12.2-6,15.28-7.24,23.89-9.61,4.54-1.25,14.15-1.13,17.92.32,3.2,1.23,8.14,3.55,8.14,3.55l17.2,7.82s.05,13.7-.3,13.35-20.06-9.56-20.06-9.56v31.75l-29.33,0-.05-31.54L.68,109Z"/><path class="cls-1" d="M22.66,71.44s-1.56,0-1.4-.92c.2-1.12,6.93-8.5,6.93-8.5A6.87,6.87,0,0,1,33,59.79c4.9-.16,7.7,1.63,9.8,4,.88,1,2.42,3.49,1.82,5.84-.37,1.44-1.91,4.56-3.32,7.87-1.15,2.73-2.33,6.11-4.23,6.64-2.62.74-8-2.4-13.44-5-2.47-1.16-1.82-3.43-1.28-4.84s1.79-2.61.31-3Z"/><path class="cls-2" d="M29.55,67.45c-.16.7-.68,1.17-1.17,1.06s-.77-.76-.62-1.45.68-1.17,1.17-1.06S29.7,66.76,29.55,67.45Z"/><path class="cls-3" d="M16.42,55.27c.41.82-.07,1,.41.82s.49.11.52-.3.64-.26,0-.56A.88.88,0,0,0,16.42,55.27Z"/><path class="cls-3" d="M13,55.27c.22,1-.3.71.18.52s.49.11.52-.3.64-.26,0-.55A.48.48,0,0,0,13,55.27Z"/><path class="cls-3" d="M14.46,59.45c-1-.34-.46-.62-.55-.11s-.34.37,0,.61-.1.67.46.31A.49.49,0,0,0,14.46,59.45Z"/><path class="cls-3" d="M8.81,58.83c-1-.34-.2-.49-.54-.11s-.51.37-.18.6,0,.48.6.12S8.81,58.83,8.81,58.83Z"/><path class="cls-3" d="M20.77,60.39c-.34,1-.49.19-.11.54s.36.51.6.18.48,0,.11-.6S20.77,60.39,20.77,60.39Z"/><path class="cls-3" d="M16.25,62.39c.37.82-.07,1,.37.82s.44.11.47-.29.57-.27,0-.56A.72.72,0,0,0,16.25,62.39Z"/><path class="cls-3" d="M11.18,65c.41.81-.08,1,.41.81s.48.11.52-.29.63-.26,0-.56A.86.86,0,0,0,11.18,65Z"/><path class="cls-3" d="M6.91,64.19c.88-.26,1,.25.88-.26s.19-.46-.2-.56-.15-.67-.55-.14A.88.88,0,0,0,6.91,64.19Z"/><path class="cls-3" d="M5.33,60.72c-.85.34-1-.15-.85.34s-.15.48.26.55.2.65.55.08A.88.88,0,0,0,5.33,60.72Z"/><path class="cls-3" d="M6.43,65.37c.4.82-.08,1,.4.82s.49.11.52-.3.64-.26,0-.56A.87.87,0,0,0,6.43,65.37Z"/><path class="cls-3" d="M5.78,68.33c-.58.71-1,.35-.58.71s.1.49.49.35.49.47.52-.19A.87.87,0,0,0,5.78,68.33Z"/><path class="cls-3" d="M9.55,71.69c.41.82-.08,1,.41.82s.48.11.52-.3.63-.26,0-.55A.87.87,0,0,0,9.55,71.69Z"/><path class="cls-3" d="M9.74,75.74c-.63.66-1,.27-.63.66s.05.5.45.39.46.51.54-.15A.87.87,0,0,0,9.74,75.74Z"/><path class="cls-3" d="M11.37,79.18c.34.67-.06.82.34.67s.39.09.42-.24.52-.22,0-.46A.7.7,0,0,0,11.37,79.18Z"/><path class="cls-3" d="M11.57,81.27c.33.67-.06.83.33.67s.4.1.43-.24.52-.21,0-.46A.71.71,0,0,0,11.57,81.27Z"/><path class="cls-3" d="M11.86,61.8c-1-.34-.2-.49-.54-.11s-.51.37-.18.6,0,.48.6.11S11.86,61.8,11.86,61.8Z"/><path class="cls-3" d="M14.76,68c-1-.34-.2-.49-.54-.11s-.51.37-.18.6,0,.48.6.12S14.76,68,14.76,68Z"/><path class="cls-3" d="M12.31,67.86c-1-.33-.2-.49-.55-.1s-.51.36-.17.6,0,.47.59.11S12.31,67.86,12.31,67.86Z"/><path class="cls-3" d="M21.49,64.62c-1-.33-.2-.49-.54-.1s-.51.36-.18.6,0,.47.6.11S21.49,64.62,21.49,64.62Z"/><path class="cls-3" d="M12.31,57c-1-.33-.2-.49-.55-.1s-.51.36-.17.6,0,.47.59.11S12.31,57,12.31,57Z"/><path class="cls-3" d="M8,68.53c-1-.34-.2-.49-.55-.1s-.5.36-.17.6,0,.47.6.11S8,68.53,8,68.53Z"/><path class="cls-4" d="M14.69,63.92c-1-.33-.2-.49-.55-.1s-.51.36-.17.6,0,.47.59.11S14.69,63.92,14.69,63.92Z"/><path class="cls-3" d="M3.64,63.92c-1-.33-.2-.49-.54-.1s-.51.36-.18.6,0,.47.6.11S3.64,63.92,3.64,63.92Z"/><path class="cls-3" d="M5.56,63.26c-.55.22-.64-.1-.55.22s-.09.3.17.35.13.42.35.05A.56.56,0,0,0,5.56,63.26Z"/><path class="cls-3" d="M11.92,59.25c-.55.22-.64-.1-.55.22s-.1.31.16.35.14.42.36,0A.56.56,0,0,0,11.92,59.25Z"/><path class="cls-4" d="M10.23,69.18c-1-.34-.19-.49-.54-.11s-.51.37-.17.6,0,.48.59.12S10.23,69.18,10.23,69.18Z"/><path class="cls-4" d="M3.24,67.8c-1-.34-.2-.49-.54-.1s-.51.36-.18.6,0,.47.6.11S3.24,67.8,3.24,67.8Z"/><path class="cls-3" d="M15.07,57.5c-1-.34-.2-.49-.54-.1s-.51.36-.18.6,0,.47.6.11S15.07,57.5,15.07,57.5Z"/><path class="cls-3" d="M9.27,62.19c-1-.34-.2-.5-.55-.11s-.51.36-.17.6,0,.48.59.11S9.27,62.19,9.27,62.19Z"/><path class="cls-3" d="M17.45,64.42c-.07-1.06.38-.37-.11-.54s-.52-.34-.62.06-.42.22.12.6S17.45,64.42,17.45,64.42Z"/><path class="cls-3" d="M15.64,67c.3-1,.48-.21.08-.54s-.38-.5-.6-.15-.48,0-.09.59S15.64,67,15.64,67Z"/><path class="cls-3" d="M17.41,72.43c.3-1,.48-.21.08-.55s-.38-.49-.6-.15-.48.06-.1.6S17.41,72.43,17.41,72.43Z"/><path class="cls-3" d="M12.87,74.44c.3-1,.48-.22.08-.55s-.38-.49-.6-.15-.48.06-.09.6S12.87,74.44,12.87,74.44Z"/><path class="cls-4" d="M7,74.55c.3-1,.48-.22.08-.54s-.38-.5-.6-.16-.47.06-.09.6S7,74.55,7,74.55Z"/><path class="cls-3" d="M2.74,73.61c.29-1,.48-.22.08-.55s-.38-.5-.61-.15-.47,0-.09.6S2.74,73.61,2.74,73.61Z"/><path class="cls-3" d="M3,75.63c-.58.71-.94.35-.58.71s.1.49.49.35.5.47.52-.19A.87.87,0,0,0,3,75.63Z"/><path class="cls-4" d="M9.91,77.79c-.58.71-.94.34-.58.71s.1.48.49.35.5.47.52-.19A.86.86,0,0,0,9.91,77.79Z"/><path class="cls-3" d="M21.52,66.22c-.58.71-.95.35-.58.71s.1.49.48.35.5.47.53-.19A.88.88,0,0,0,21.52,66.22Z"/><path class="cls-3" d="M12.72,77.46c.3-1,.48-.22.08-.55s-.38-.49-.6-.15-.48,0-.1.6S12.72,77.46,12.72,77.46Z"/><path class="cls-3" d="M14.54,75.4c.34.67-.06.82.34.67s.4.09.43-.25.51-.21,0-.46A.72.72,0,0,0,14.54,75.4Z"/><path class="cls-3" d="M6.7,76c.33.68-.06.83.33.68s.4.09.43-.25.52-.21,0-.46A.71.71,0,0,0,6.7,76Z"/><path class="cls-3" d="M5,78.37c.33.67-.07.83.33.67s.4.09.43-.24.51-.22,0-.46A.69.69,0,0,0,5,78.37Z"/><path class="cls-3" d="M8,79.43c.3-1,.49-.22.08-.55s-.37-.49-.6-.15-.47.06-.09.6S8,79.43,8,79.43Z"/><path class="cls-4" d="M5.32,76.75c.29-1,.48-.21.08-.54s-.38-.5-.61-.16-.47.06-.09.6S5.32,76.75,5.32,76.75Z"/><path class="cls-3" d="M6.14,71.88c.29-1,.48-.22.08-.55s-.38-.49-.61-.15-.47.06-.09.6S6.14,71.88,6.14,71.88Z"/><path class="cls-3" d="M4.55,73.6c.33.68-.07.83.33.68s.4.09.43-.25.51-.21,0-.46A.71.71,0,0,0,4.55,73.6Z"/><path class="cls-3" d="M18.27,65.88c.27.7-.13.82.27.7s.39.12.45-.21.53-.17.07-.45A.69.69,0,0,0,18.27,65.88Z"/><path class="cls-3" d="M17.75,78.48c.33.67-.06.82.33.67s.4.09.43-.25.52-.21,0-.46A.7.7,0,0,0,17.75,78.48Z"/><path class="cls-4" d="M15.36,78.2c.3-1,.48-.21.08-.54s-.38-.5-.6-.16-.48.06-.09.6S15.36,78.2,15.36,78.2Z"/><path class="cls-4" d="M20.31,77.12c.29-1,.48-.21.08-.54s-.38-.5-.61-.15-.47,0-.09.59S20.31,77.12,20.31,77.12Z"/><path class="cls-3" d="M16.39,81c.33.67-.07.82.33.67s.4.09.43-.24.51-.22,0-.46A.69.69,0,0,0,16.39,81Z"/><path class="cls-3" d="M3.32,70.52c.33.67-.06.82.33.67s.4.09.43-.25.52-.21,0-.46A.7.7,0,0,0,3.32,70.52Z"/><path class="cls-3" d="M8.09,71.28c-.55.22-.64-.1-.55.22s-.1.31.17.35.13.42.35.05A.56.56,0,0,0,8.09,71.28Z"/><path class="cls-3" d="M19.69,74.37c-.54.22-.64-.1-.54.22s-.1.3.16.35.13.42.35,0A.54.54,0,0,0,19.69,74.37Z"/><path class="cls-3" d="M17.49,76.33c-.54.22-.64-.1-.54.22s-.1.3.16.35.13.42.35,0A.54.54,0,0,0,17.49,76.33Z"/><path class="cls-3" d="M14.78,79.54c-.54.22-.64-.1-.54.22s-.1.3.16.35.13.42.36,0A.55.55,0,0,0,14.78,79.54Z"/><path class="cls-3" d="M16.4,73.21c-.9.18-1-.33-.9.18s-.23.44.15.58.09.68.53.18A.87.87,0,0,0,16.4,73.21Z"/><path class="cls-4" d="M6.18,59.7c.83-.4,1,.09.83-.4s.12-.48-.29-.52-.25-.64-.56-.05A.86.86,0,0,0,6.18,59.7Z"/><path class="cls-3" d="M7.69,61.21c-1-.34-.19-.49-.54-.11s-.51.37-.17.61,0,.47.59.11S7.69,61.21,7.69,61.21Z"/><path class="cls-3" d="M15,61.67c-1-.34-.2-.49-.54-.1s-.51.36-.18.59,0,.48.6.12S15,61.67,15,61.67Z"/><path class="cls-4" d="M9.38,57c-.56.91-.52.08-.23.51s.23.57.55.3.46.08.24-.55S9.38,57,9.38,57Z"/><path class="cls-3" d="M11,54.63c-1-.34-.2-.5-.55-.11s-.5.36-.17.6,0,.48.59.11S11,54.63,11,54.63Z"/><path class="cls-3" d="M3.36,58.87c-.49.94-.51.11-.19.52s.27.56.56.27.48,0,.21-.57S3.36,58.87,3.36,58.87Z"/><path class="cls-3" d="M4.63,56.76c-.94.51-.5-.19-.45.33s-.09.61.31.54.37.3.49-.36S4.63,56.76,4.63,56.76Z"/><path class="cls-3" d="M5.25,66.56c-1-.33-.2-.49-.54-.1s-.51.36-.18.6,0,.48.6.11S5.25,66.56,5.25,66.56Z"/><path class="cls-4" d="M3.34,61.43c-.91-.56-.08-.52-.51-.23s-.57.23-.31.55-.07.47.56.24S3.34,61.43,3.34,61.43Z"/><path class="cls-3" d="M2.14,66.72c1-.39.47.25.48-.27s.16-.6-.25-.57-.33-.34-.53.3S2.14,66.72,2.14,66.72Z"/><path class="cls-3" d="M10.63,74.31c-.09-.9.39-.93-.09-.9s-.38-.24-.54.13-.63.06-.21.52A.72.72,0,0,0,10.63,74.31Z"/><path class="cls-3" d="M9.4,65.85c-.92.05-.9-.47-.92.05s-.29.4.07.6,0,.68.5.25A.86.86,0,0,0,9.4,65.85Z"/><path class="cls-4" d="M10.37,63.81c-.91.06-.89-.46-.91.06s-.29.4.07.59,0,.69.5.26A.88.88,0,0,0,10.37,63.81Z"/><path class="cls-3" d="M8.68,55.51c-.54.22-.64-.1-.54.22s-.1.31.16.35.13.42.36.05A.55.55,0,0,0,8.68,55.51Z"/><path class="cls-3" d="M12.4,70.65c-.68-.82.09-.52-.4-.38s-.63,0-.47.42-.22.42.44.41S12.4,70.65,12.4,70.65Z"/><path class="cls-4" d="M14.58,70.7c-.91.06-.89-.46-.91.06s-.3.4.07.59,0,.69.5.26A.88.88,0,0,0,14.58,70.7Z"/><path class="cls-3" d="M16.68,69.32c-.54.22-.64-.1-.54.22s-.1.3.16.35.13.41.36,0A.55.55,0,0,0,16.68,69.32Z"/><path class="cls-3" d="M17.81,68.44c-.07-1.06.38-.37-.11-.54s-.52-.34-.62.06-.43.21.12.59S17.81,68.44,17.81,68.44Z"/><path class="cls-4" d="M18.55,69.44c1-.21.41.33.52-.18s.26-.57-.15-.61-.26-.39-.57.2S18.55,69.44,18.55,69.44Z"/><path class="cls-3" d="M19.61,69.59c.28.69-.12.81.28.69s.39.13.45-.2.53-.17.07-.46A.72.72,0,0,0,19.61,69.59Z"/><path class="cls-3" d="M18.8,71.76c.28.7-.13.82.28.7s.38.12.44-.21.54-.17.07-.45A.7.7,0,0,0,18.8,71.76Z"/><path class="cls-3" d="M21.68,73.17c-.67-.83.1-.52-.4-.38s-.62,0-.47.41-.22.42.44.42S21.68,73.17,21.68,73.17Z"/><path class="cls-3" d="M21.13,78.64c-.55.21-.64-.1-.55.21s-.1.31.16.36.14.42.36.05A.56.56,0,0,0,21.13,78.64Z"/><path class="cls-3" d="M24.23,60.44c-.55.21-.64-.11-.55.21s-.09.31.17.35.13.42.35.06A.54.54,0,0,0,24.23,60.44Z"/><path class="cls-3" d="M23.42,62.65c-.55.22-.64-.1-.55.22s-.1.3.16.35.14.42.36.05A.56.56,0,0,0,23.42,62.65Z"/><path class="cls-4" d="M25.5,62.34c-1-.33-.19-.49-.54-.1s-.51.36-.17.6,0,.47.59.11S25.5,62.34,25.5,62.34Z"/><path class="cls-3" d="M24,64.83c-1-.33-.2-.49-.54-.1s-.51.36-.18.6,0,.48.6.11S24,64.83,24,64.83Z"/><path class="cls-3" d="M22.32,57.14c-1-.33-.2-.49-.54-.1s-.51.36-.18.6,0,.47.6.11S22.32,57.14,22.32,57.14Z"/><path class="cls-3" d="M22.85,59.13c-.54.22-.64-.1-.54.22s-.1.3.16.35.13.42.36,0A.55.55,0,0,0,22.85,59.13Z"/><path class="cls-3" d="M20.49,55.22c-1-.33-.46-.61-.55-.1s-.34.36,0,.6-.1.68.46.31A.49.49,0,0,0,20.49,55.22Z"/><path class="cls-3" d="M19.35,63c-.14-1.05.35-.68-.14-.53s-.48-.15-.55.26-.65.21-.08.55A.49.49,0,0,0,19.35,63Z"/><path class="cls-3" d="M17.51,59.32c-1-.33-.2-.49-.55-.1s-.5.36-.17.6,0,.48.59.11S17.51,59.32,17.51,59.32Z"/><path class="cls-3" d="M20.64,58.31c-1-.35-.45-.63-.54-.12s-.35.36,0,.6-.11.68.46.33A.49.49,0,0,0,20.64,58.31Z"/><path class="cls-4" d="M19.15,60.13c-1-.33-.46-.62-.54-.1s-.34.36,0,.6-.09.67.47.31A.49.49,0,0,0,19.15,60.13Z"/><path class="cls-3" d="M17.28,57.51c-1-.34-.46-.62-.54-.11s-.34.37,0,.61-.09.67.46.31A.49.49,0,0,0,17.28,57.51Z"/><path class="cls-3" d="M19.67,56.69c-.55.21-.64-.11-.55.21s-.09.31.17.35.13.42.35.06A.54.54,0,0,0,19.67,56.69Z"/><path class="cls-3" d="M52.79,57.13c.41.82-.08,1,.41.82s.48.11.52-.29.63-.27,0-.56A.86.86,0,0,0,52.79,57.13Z"/><path class="cls-4" d="M50,56.75c.22,1-.3.71.18.52s.49.11.52-.3.64-.26,0-.55A.48.48,0,0,0,50,56.75Z"/><path class="cls-3" d="M52.85,60.42c-1-.34-.46-.62-.54-.11s-.34.37,0,.6-.09.68.46.32A.49.49,0,0,0,52.85,60.42Z"/><path class="cls-3" d="M46.19,59.64c-1-.33-.2-.49-.55-.1s-.51.36-.17.6,0,.47.59.11S46.19,59.64,46.19,59.64Z"/><path class="cls-3" d="M58.18,60.89c-.33,1-.49.2-.1.54s.36.51.6.18.47,0,.11-.6S58.18,60.89,58.18,60.89Z"/><path class="cls-4" d="M56.44,63.64c.37.82-.07,1,.37.82s.44.11.47-.3.58-.26,0-.56A.73.73,0,0,0,56.44,63.64Z"/><path class="cls-3" d="M53.45,66.77c.4.82-.08,1,.4.82s.49.11.53-.3.63-.26,0-.56A.85.85,0,0,0,53.45,66.77Z"/><path class="cls-3" d="M48.05,64.38c.87-.26,1,.25.87-.26s.19-.46-.2-.57-.15-.66-.54-.13A.85.85,0,0,0,48.05,64.38Z"/><path class="cls-3" d="M42.71,61.54c-.85.34-1-.16-.85.34s-.15.47.25.54.21.65.56.08A.86.86,0,0,0,42.71,61.54Z"/><path class="cls-3" d="M45.09,64.74c.41.82-.07,1,.41.82s.49.11.52-.3.64-.26,0-.56A.87.87,0,0,0,45.09,64.74Z"/><path class="cls-4" d="M45.89,70.13c-.57.7-.94.34-.57.7s.09.49.48.36.5.47.53-.2A.87.87,0,0,0,45.89,70.13Z"/><path class="cls-3" d="M48.53,73.13c.41.82-.07,1,.41.82s.48.11.52-.3.63-.26,0-.55A.87.87,0,0,0,48.53,73.13Z"/><path class="cls-3" d="M45.71,76.44c-.63.66-1,.27-.63.66s.05.49.45.39.46.51.54-.15A.87.87,0,0,0,45.71,76.44Z"/><path class="cls-4" d="M45.07,78.31c.34.67-.06.82.34.67s.39.09.42-.24.52-.22,0-.46A.7.7,0,0,0,45.07,78.31Z"/><path class="cls-3" d="M50.24,80c.33.68-.06.83.33.68s.4.08.43-.25.52-.22,0-.46A.71.71,0,0,0,50.24,80Z"/><path class="cls-4" d="M51.62,62.3c-1-.34-.2-.49-.54-.11s-.51.37-.18.6,0,.48.6.12S51.62,62.3,51.62,62.3Z"/><path class="cls-3" d="M53.15,68.55c-1-.34-.19-.49-.54-.11s-.51.37-.17.6,0,.48.59.12S53.15,68.55,53.15,68.55Z"/><path class="cls-3" d="M50.82,72.19c-1-.33-.2-.49-.55-.1s-.5.36-.17.6,0,.48.59.11S50.82,72.19,50.82,72.19Z"/><path class="cls-3" d="M63.37,65.64c-1-.34-.2-.49-.54-.11s-.51.36-.17.6,0,.48.59.12S63.37,65.64,63.37,65.64Z"/><path class="cls-3" d="M49.37,57.46c-1-.33-.2-.49-.54-.1s-.51.36-.18.6,0,.48.6.11S49.37,57.46,49.37,57.46Z"/><path class="cls-3" d="M47.71,68.76c-1-.34-.2-.49-.54-.11s-.51.36-.17.6,0,.48.59.11S47.71,68.76,47.71,68.76Z"/><path class="cls-3" d="M52.3,65.91c-1-.33-.2-.49-.55-.1s-.5.36-.17.6,0,.47.6.11S52.3,65.91,52.3,65.91Z"/><path class="cls-3" d="M48.29,59.53c-1-.33-.2-.49-.54-.1s-.51.36-.17.6,0,.48.59.11S48.29,59.53,48.29,59.53Z"/><path class="cls-3" d="M45.05,63.29c-.55.22-.64-.1-.55.22s-.1.3.16.35.14.42.36,0A.56.56,0,0,0,45.05,63.29Z"/><path class="cls-3" d="M50.35,60.42c-.55.22-.64-.1-.55.22s-.09.3.17.35.13.42.35,0A.54.54,0,0,0,50.35,60.42Z"/><path class="cls-4" d="M54.93,72c-1-.33-.2-.49-.55-.1s-.51.36-.17.6,0,.48.59.11S54.93,72,54.93,72Z"/><path class="cls-3" d="M49,61.69c-1-.33-.2-.49-.55-.1s-.5.36-.17.6,0,.47.6.11S49,61.69,49,61.69Z"/><path class="cls-3" d="M52,58.17c-1-.34-.2-.5-.54-.11s-.51.36-.18.6,0,.48.6.11S52,58.17,52,58.17Z"/><path class="cls-3" d="M47,61.79c-1-.34-.2-.5-.55-.11s-.51.36-.17.6,0,.48.59.11S47,61.79,47,61.79Z"/><path class="cls-3" d="M55.92,65.82c-.06-1.06.38-.36-.1-.54s-.53-.33-.63.06-.42.22.12.6S55.92,65.82,55.92,65.82Z"/><path class="cls-3" d="M55.32,69.06c.3-1,.49-.22.09-.55S55,68,54.8,68.36s-.47.06-.09.6S55.32,69.06,55.32,69.06Z"/><path class="cls-4" d="M59.56,78.45c.3-1,.48-.22.08-.55s-.38-.49-.61-.15-.47,0-.08.6S59.56,78.45,59.56,78.45Z"/><path class="cls-3" d="M51.11,75.29c.3-1,.48-.21.08-.54s-.38-.5-.61-.16-.47.06-.08.6S51.11,75.29,51.11,75.29Z"/><path class="cls-3" d="M44.68,74.82c.3-1,.48-.22.09-.55s-.38-.49-.61-.15-.47,0-.09.6S44.68,74.82,44.68,74.82Z"/><path class="cls-3" d="M48,77.86c-.58.71-.94.34-.58.71s.1.49.49.35.5.47.52-.19A.86.86,0,0,0,48,77.86Z"/><path class="cls-3" d="M58.38,66.55c-.58.71-1,.35-.58.71s.09.49.48.35.5.47.53-.19A.88.88,0,0,0,58.38,66.55Z"/><path class="cls-3" d="M49.31,77.38c.3-1,.48-.22.08-.55s-.37-.49-.6-.15-.47,0-.09.6S49.31,77.38,49.31,77.38Z"/><path class="cls-3" d="M51.22,76.72c.33.67-.06.82.33.67s.4.09.43-.25.52-.21,0-.45A.69.69,0,0,0,51.22,76.72Z"/><path class="cls-3" d="M47.54,72c.34.67-.06.82.34.67s.39.09.42-.24.52-.22,0-.46A.7.7,0,0,0,47.54,72Z"/><path class="cls-3" d="M45.84,75c.34.67-.06.83.34.67s.4.09.43-.24.51-.22,0-.46A.71.71,0,0,0,45.84,75Z"/><path class="cls-3" d="M56.48,75c.3-1,.48-.21.08-.54s-.38-.5-.6-.15-.48,0-.09.59S56.48,75,56.48,75Z"/><path class="cls-3" d="M43.32,77.88c.3-1,.48-.22.08-.55s-.38-.49-.6-.15-.48,0-.09.6S43.32,77.88,43.32,77.88Z"/><path class="cls-3" d="M48,70.82c.3-1,.48-.22.09-.55s-.38-.5-.61-.15-.47,0-.09.6S48,70.82,48,70.82Z"/><path class="cls-4" d="M62.41,69.59c.28.7-.13.82.28.7s.38.12.44-.21.54-.17.07-.46A.71.71,0,0,0,62.41,69.59Z"/><path class="cls-3" d="M56.38,78.44c.34.67-.06.83.34.67s.39.1.42-.24.52-.21,0-.46A.72.72,0,0,0,56.38,78.44Z"/><path class="cls-4" d="M52,79.37c.3-1,.49-.22.09-.55s-.38-.49-.61-.15-.47,0-.09.6S52,79.37,52,79.37Z"/><path class="cls-3" d="M61,77.16c.3-1,.48-.22.08-.55s-.38-.49-.6-.15-.48.05-.09.6S61,77.16,61,77.16Z"/><path class="cls-3" d="M54.62,80.49c.34.67-.06.83.34.67s.39.1.42-.24.52-.21,0-.46A.73.73,0,0,0,54.62,80.49Z"/><path class="cls-4" d="M49.5,67.3c.33.67-.06.83.33.67s.4.1.43-.24.52-.22,0-.46A.71.71,0,0,0,49.5,67.3Z"/><path class="cls-3" d="M45.82,72.21c-.55.22-.64-.1-.55.22s-.1.31.16.35.14.42.36.06A.58.58,0,0,0,45.82,72.21Z"/><path class="cls-3" d="M57.3,76.51c-.54.22-.64-.1-.54.22s-.1.31.16.35.13.42.36.06A.57.57,0,0,0,57.3,76.51Z"/><path class="cls-3" d="M54.63,77.54c-.54.22-.64-.1-.54.22s-.1.3.16.35.13.42.36,0A.55.55,0,0,0,54.63,77.54Z"/><path class="cls-3" d="M59.05,75.07c-.55.22-.64-.1-.55.22s-.1.31.16.35.14.42.36.06A.58.58,0,0,0,59.05,75.07Z"/><path class="cls-3" d="M54.63,75.54c-.89.19-1-.32-.89.19s-.23.44.15.58.09.68.53.18A.87.87,0,0,0,54.63,75.54Z"/><path class="cls-3" d="M43.56,60.51c.82-.39,1,.1.82-.39s.12-.48-.29-.53-.24-.64-.55-.05A.86.86,0,0,0,43.56,60.51Z"/><path class="cls-4" d="M45,61.67c-1-.33-.2-.49-.54-.1s-.51.36-.18.6,0,.47.6.11S45,61.67,45,61.67Z"/><path class="cls-3" d="M54.85,63.38c-1-.33-.2-.49-.54-.1s-.51.36-.17.6,0,.47.59.11S54.85,63.38,54.85,63.38Z"/><path class="cls-3" d="M46.31,57.4c-.56.9-.52.08-.23.5s.23.58.55.31.46.08.24-.55S46.31,57.4,46.31,57.4Z"/><path class="cls-3" d="M48,55.83c-1-.33-.2-.49-.54-.1s-.51.36-.17.6,0,.47.59.11S48,55.83,48,55.83Z"/><path class="cls-3" d="M40,59.33c-.5.94-.52.12-.2.52s.28.56.57.27.47,0,.21-.57S40,59.33,40,59.33Z"/><path class="cls-3" d="M42.4,57.81c-.94.5-.5-.19-.45.32s-.09.62.31.55.37.3.49-.36S42.4,57.81,42.4,57.81Z"/><path class="cls-3" d="M51,68.92c-1-.33-.2-.49-.54-.1s-.51.36-.18.6,0,.47.6.11S51,68.92,51,68.92Z"/><path class="cls-3" d="M42.75,59.9c-.9-.57-.08-.52-.5-.23s-.58.23-.31.54-.08.47.55.25S42.75,59.9,42.75,59.9Z"/><path class="cls-4" d="M48.52,75.32c-.09-.9.39-.93-.09-.9s-.38-.24-.54.13-.63.06-.22.52A.73.73,0,0,0,48.52,75.32Z"/><path class="cls-3" d="M46.54,67.48c-.91.06-.9-.46-.91.06s-.3.4.06.59,0,.69.5.25A.86.86,0,0,0,46.54,67.48Z"/><path class="cls-3" d="M48.57,66.28c-.91,0-.89-.46-.91,0s-.29.41.07.6,0,.68.5.25A.84.84,0,0,0,48.57,66.28Z"/><path class="cls-3" d="M44.93,56.29c-.55.22-.64-.1-.55.22s-.1.3.16.35.14.42.36,0A.56.56,0,0,0,44.93,56.29Z"/><path class="cls-3" d="M53.26,73.26c-.68-.82.09-.52-.41-.37s-.62,0-.46.41-.23.42.44.41S53.26,73.26,53.26,73.26Z"/><path class="cls-3" d="M51.68,70.26c-.91.06-.89-.46-.91.06s-.29.4.07.6,0,.68.5.25A.86.86,0,0,0,51.68,70.26Z"/><path class="cls-3" d="M60.67,70.91c-.54.22-.64-.1-.54.22s-.1.31.16.35.13.42.35.06A.56.56,0,0,0,60.67,70.91Z"/><path class="cls-3" d="M58.79,70.43c-.07-1.07.38-.37-.11-.54s-.53-.34-.62.06-.43.21.12.59S58.79,70.43,58.79,70.43Z"/><path class="cls-3" d="M56.16,70.72c1-.21.41.33.52-.18s.26-.56-.15-.61-.26-.39-.57.2S56.16,70.72,56.16,70.72Z"/><path class="cls-3" d="M62,72.28c.28.7-.13.82.28.7s.38.12.44-.21.54-.17.07-.46A.71.71,0,0,0,62,72.28Z"/><path class="cls-3" d="M56.24,72.67c.28.69-.13.81.28.69s.39.13.45-.2.53-.17.07-.46A.72.72,0,0,0,56.24,72.67Z"/><path class="cls-3" d="M60.55,74c-.68-.82.09-.52-.41-.38s-.62,0-.47.42-.22.42.45.41S60.55,74,60.55,74Z"/><path class="cls-3" d="M58.5,79.45c-.54.22-.64-.1-.54.22s-.1.3.16.35.13.42.36,0A.55.55,0,0,0,58.5,79.45Z"/><path class="cls-4" d="M61,62.23c-.54.22-.64-.1-.54.22s-.1.3.16.35.13.41.35.05A.54.54,0,0,0,61,62.23Z"/><path class="cls-3" d="M61,64.09c-.55.22-.64-.1-.55.22s-.1.3.16.35.14.42.36,0A.56.56,0,0,0,61,64.09Z"/><path class="cls-3" d="M62.88,63.16c-1-.34-.2-.5-.54-.11s-.51.36-.18.6,0,.48.6.11S62.88,63.16,62.88,63.16Z"/><path class="cls-3" d="M61.61,66.86c-1-.33-.2-.49-.54-.1s-.51.36-.18.6,0,.47.6.11S61.61,66.86,61.61,66.86Z"/><path class="cls-3" d="M50.94,64.64c-1-.33-.2-.48-.55-.1s-.5.36-.17.6,0,.48.59.11S50.94,64.64,50.94,64.64Z"/><path class="cls-3" d="M60.42,59.28c-.55.21-.64-.11-.55.21s-.1.31.16.35.14.43.36.06A.56.56,0,0,0,60.42,59.28Z"/><path class="cls-3" d="M53.05,63.31c-1-.33-.45-.61-.54-.1s-.34.36,0,.6-.09.68.47.31A.49.49,0,0,0,53.05,63.31Z"/><path class="cls-3" d="M62.87,60.8c-.14-1.06.35-.68-.15-.54s-.47-.14-.54.26-.65.21-.08.55A.49.49,0,0,0,62.87,60.8Z"/><path class="cls-3" d="M54.57,61.66c-1-.33-.2-.49-.54-.1s-.51.36-.18.6,0,.48.6.11S54.57,61.66,54.57,61.66Z"/><path class="cls-3" d="M58,59.12c-1-.35-.45-.62-.54-.11s-.35.35,0,.6-.11.67.46.32A.49.49,0,0,0,58,59.12Z"/><path class="cls-3" d="M56.53,60.94c-1-.33-.46-.61-.54-.1s-.35.36,0,.6-.1.68.46.32A.5.5,0,0,0,56.53,60.94Z"/><path class="cls-3" d="M55.09,59.11c-1-.34-.46-.62-.55-.11s-.34.36,0,.6-.1.68.46.32A.49.49,0,0,0,55.09,59.11Z"/><path class="cls-3" d="M56,57.62c-.55.22-.64-.1-.55.22s-.09.3.17.35.13.42.35.05A.54.54,0,0,0,56,57.62Z"/><path class="cls-3" d="M58.33,72c-.54.21-.63-.11-.54.21s-.1.31.16.35.13.42.36.06A.55.55,0,0,0,58.33,72Z"/><path class="cls-3" d="M52.68,74.31c-.54.22-.64-.1-.54.22s-.1.3.16.35.13.42.36.05A.55.55,0,0,0,52.68,74.31Z"/><path class="cls-4" d="M60.53,68.48c-.55.22-.64-.1-.55.22s-.1.31.16.35.14.42.36.06A.58.58,0,0,0,60.53,68.48Z"/><path class="cls-3" d="M56.89,67.62c-.55.22-.64-.1-.55.22s-.1.31.16.35.14.42.36.06A.58.58,0,0,0,56.89,67.62Z"/><path class="cls-3" d="M53.3,71.18c-.68-.82.09-.52-.4-.37s-.63,0-.47.41-.22.42.44.41S53.3,71.18,53.3,71.18Z"/><path class="cls-3" d="M59.39,64.57c-.54.21-.64-.11-.54.21s-.1.31.16.35.13.43.36.06A.55.55,0,0,0,59.39,64.57Z"/><path class="cls-3" d="M59,63c-.14-1,.35-.68-.14-.53s-.48-.15-.55.26-.64.21-.07.55A.48.48,0,0,0,59,63Z"/><path class="cls-5" d="M43.93,100.56A10.78,10.78,0,1,1,33.15,89.79,10.77,10.77,0,0,1,43.93,100.56Z"/><path class="cls-3" d="M32.25,92.42c.41.82-.07,1,.41.82s.49.11.52-.3.64-.26,0-.56A.89.89,0,0,0,32.25,92.42Z"/><path class="cls-4" d="M25.41,98.73c.41.81-.07,1,.41.81s.49.12.52-.29.63-.26,0-.56A.86.86,0,0,0,25.41,98.73Z"/><path class="cls-4" d="M27.12,104.88c.33.68-.06.83.33.68s.4.09.43-.25.52-.21,0-.46A.71.71,0,0,0,27.12,104.88Z"/><path class="cls-3" d="M29.7,94.74c-1-.33-.2-.49-.54-.1s-.51.36-.17.6,0,.48.59.11S29.7,94.74,29.7,94.74Z"/><path class="cls-3" d="M25.59,97c-1-.33-.2-.49-.54-.1s-.51.36-.18.6,0,.48.6.11S25.59,97,25.59,97Z"/><path class="cls-3" d="M33.36,96.82c-1-.34-.2-.5-.55-.11s-.5.36-.17.6,0,.48.6.11S33.36,96.82,33.36,96.82Z"/><path class="cls-3" d="M32.48,95.07c.29-1,.48-.21.08-.54s-.38-.5-.61-.15-.47.05-.09.59S32.48,95.07,32.48,95.07Z"/><path class="cls-4" d="M38.43,106.87c.29-1,.48-.21.08-.55s-.38-.49-.61-.15-.47.06-.09.6S38.43,106.87,38.43,106.87Z"/><path class="cls-3" d="M27.18,100.74c.3-1,.49-.22.09-.55s-.38-.49-.61-.15-.47,0-.09.6S27.18,100.74,27.18,100.74Z"/><path class="cls-3" d="M35.68,91.94c-.58.71-1,.34-.58.71s.1.48.49.35.49.47.52-.2A.85.85,0,0,0,35.68,91.94Z"/><path class="cls-3" d="M24.08,103.56c.33.67-.06.82.33.67s.4.09.43-.25.52-.21,0-.45A.69.69,0,0,0,24.08,103.56Z"/><path class="cls-3" d="M33.11,100.92c.3-1,.49-.22.09-.55s-.38-.5-.61-.15-.47,0-.09.6S33.11,100.92,33.11,100.92Z"/><path class="cls-3" d="M33.69,103.83c.33.67-.07.82.33.67s.4.09.43-.25.52-.21,0-.46A.7.7,0,0,0,33.69,103.83Z"/><path class="cls-3" d="M30.11,105.63c.3-1,.48-.22.08-.55s-.38-.5-.6-.15-.48,0-.09.59S30.11,105.63,30.11,105.63Z"/><path class="cls-3" d="M38.27,103.26c.3-1,.48-.22.09-.55s-.38-.49-.61-.15-.47.06-.09.6S38.27,103.26,38.27,103.26Z"/><path class="cls-3" d="M31.93,105.87c.33.68-.06.83.33.68s.4.09.43-.25.52-.21,0-.46A.71.71,0,0,0,31.93,105.87Z"/><path class="cls-3" d="M28.61,92.74c.33.68-.07.83.33.68s.4.09.43-.25.52-.21,0-.46A.71.71,0,0,0,28.61,92.74Z"/><path class="cls-3" d="M30.87,102.56c-.54.22-.64-.1-.54.22s-.1.3.16.35.13.42.36.05A.55.55,0,0,0,30.87,102.56Z"/><path class="cls-3" d="M34.68,109.19c-.55.22-.64-.1-.55.22s-.1.3.16.35.14.41.36,0A.56.56,0,0,0,34.68,109.19Z"/><path class="cls-3" d="M35.64,98.94c-.54.22-.64-.1-.54.22s-.1.3.16.35.13.42.35,0A.54.54,0,0,0,35.64,98.94Z"/><path class="cls-3" d="M28.66,102c-.9.19-1-.33-.9.19s-.23.44.15.58.09.67.53.18A.89.89,0,0,0,28.66,102Z"/><path class="cls-3" d="M27,95.78c-1-.34-.2-.49-.54-.1s-.51.36-.18.6,0,.47.6.11S27,95.78,27,95.78Z"/><path class="cls-3" d="M29.72,99.43c-.68-.82.09-.52-.41-.38s-.62,0-.46.41-.23.43.44.42S29.72,99.43,29.72,99.43Z"/><path class="cls-3" d="M28.05,107.69c-.91,0-.89-.46-.91,0s-.29.41.07.6,0,.69.5.25A.84.84,0,0,0,28.05,107.69Z"/><path class="cls-3" d="M41.74,97.23c-.55.22-.64-.1-.55.22s-.09.3.17.35.13.42.35,0A.56.56,0,0,0,41.74,97.23Z"/><path class="cls-3" d="M36.93,96.38c-.07-1.06.38-.37-.1-.54s-.53-.34-.63.06-.42.21.12.6S36.93,96.38,36.93,96.38Z"/><path class="cls-3" d="M32.16,99.36c1.05-.21.42.32.53-.18s.26-.57-.15-.61-.26-.4-.57.2S32.16,99.36,32.16,99.36Z"/><path class="cls-3" d="M34.75,106.66c.28.7-.13.82.28.7s.39.12.44-.21.54-.17.07-.45A.7.7,0,0,0,34.75,106.66Z"/><path class="cls-3" d="M37.85,99.64c-.68-.82.09-.52-.4-.37s-.63,0-.47.41-.22.42.44.41S37.85,99.64,37.85,99.64Z"/><path class="cls-3" d="M35.81,104.83c-.55.22-.64-.1-.55.22s-.1.31.16.35.14.42.36.06A.58.58,0,0,0,35.81,104.83Z"/><path class="cls-3" d="M40.36,95.07c-1-.33-.2-.49-.54-.1s-.51.36-.18.6,0,.47.6.11S40.36,95.07,40.36,95.07Z"/><path class="cls-4" d="M35.64,97.39c-.55.22-.64-.1-.55.22s-.1.3.16.35.14.42.36.05A.56.56,0,0,0,35.64,97.39Z"/><path class="cls-3" d="M24.66,101.26c-.55.22-.64-.1-.55.22s-.1.3.16.35.14.42.36,0A.56.56,0,0,0,24.66,101.26Z"/><path class="cls-3" d="M37.83,93.87c-.55.22-.64-.1-.55.22s-.09.3.17.35.13.41.35,0A.56.56,0,0,0,37.83,93.87Z"/><path class="cls-3" d="M34.38,94.11c-.55.22-.64-.1-.55.22s-.09.31.17.35.13.42.35,0A.54.54,0,0,0,34.38,94.11Z"/><path class="cls-4" d="M29.7,96.84c-.68-.83.09-.52-.4-.38s-.63,0-.47.41-.22.42.44.42S29.7,96.84,29.7,96.84Z"/><path class="cls-4" d="M33,102.22c.34.68-.06.83.34.68s.39.09.42-.25.52-.21,0-.46A.71.71,0,0,0,33,102.22Z"/><path class="cls-3" d="M41.85,104.32c-.67-.82.1-.52-.4-.38s-.62,0-.47.42-.22.42.44.41S41.85,104.32,41.85,104.32Z"/><path class="cls-3" d="M42.71,101.75c-.67-.82.1-.52-.4-.37s-.62,0-.47.41-.22.42.45.41S42.71,101.75,42.71,101.75Z"/><path class="cls-3" d="M40.92,106.46c-.67-.82.09-.52-.4-.38s-.63,0-.47.42-.22.42.44.41S40.92,106.46,40.92,106.46Z"/><path class="cls-4" d="M30.25,109.19c-.68-.82.09-.52-.4-.38s-.63,0-.47.42-.22.42.44.41S30.25,109.19,30.25,109.19Z"/><path class="cls-3" d="M33.29,109.49c-.67-.82.09-.52-.4-.38s-.62,0-.47.42-.22.42.44.41S33.29,109.49,33.29,109.49Z"/><path class="cls-3" d="M37,108.87c-.54.22-.64-.1-.54.22s-.1.3.16.35.13.42.36,0A.55.55,0,0,0,37,108.87Z"/><path class="cls-3" d="M38.7,100.35c.16,1.06-.35.4.15.54s.55.28.61-.12.41-.25-.17-.58S38.7,100.35,38.7,100.35Z"/><path class="cls-3" d="M30.82,100.89c-.55.22-.64-.1-.55.22s-.09.3.16.35.14.42.36.05A.56.56,0,0,0,30.82,100.89Z"/><path class="cls-3" d="M35.77,101.61c-.55.22-.64-.1-.55.22s-.1.3.16.35.14.42.36,0A.56.56,0,0,0,35.77,101.61Z"/><path class="cls-3" d="M31.61,107.48c-.68-.83.09-.52-.41-.38s-.62,0-.46.41-.23.42.44.42S31.61,107.48,31.61,107.48Z"/><path class="cls-3" d="M29.85,108.81c-.63.18-.63,0-.47.42s-.22.42.44.41.43-.45.43-.45"/><path class="cls-3" d="M42.49,99.11c-.68-.82.09-.52-.41-.37s-.62,0-.47.41-.22.42.45.41S42.49,99.11,42.49,99.11Z"/><path class="cls-3" d="M41.07,99.5c-.55.22-.64-.1-.55.22s-.1.31.16.35.14.42.36.06A.58.58,0,0,0,41.07,99.5Z"/><path class="cls-4" d="M39,97.82c-.55.22-.64-.1-.55.22s-.1.3.16.34.14.42.36.06A.56.56,0,0,0,39,97.82Z"/><path class="cls-4" d="M34,91.07c-.55.22-.64-.1-.55.22s-.09.31.17.35.13.42.35,0A.54.54,0,0,0,34,91.07Z"/><path class="cls-6" d="M34.75,84.64l-2.49-.11L32.47,77a1.66,1.66,0,0,0-.63-1.4c-.7-.4-4.51-1.91-4.74-2-1.42-.53-2.68-1-2.66-1.35s.78-.19.78-.19,7.56,1.59,8.28,2.29a2.87,2.87,0,0,1,1.19,2.22v4.25l0,3.66"/><rect class="cls-7" x="32.24" y="84.45" width="2.48" height="6.04"/><path class="cls-4" d="M32.54,85.8c.41.82-.07,1,.41.82s.48.11.52-.3.63-.26,0-.56A.86.86,0,0,0,32.54,85.8Z"/><path class="cls-3" d="M34.17,87.3c-.55.22-.64-.1-.55.22s-.1.31.16.35.14.42.36.06A.58.58,0,0,0,34.17,87.3Z"/><path class="cls-3" d="M33.72,89.27c-1-.33-.2-.49-.54-.1s-.51.36-.18.6,0,.47.6.11S33.72,89.27,33.72,89.27Z"/><path class="cls-3" d="M32.25,74.33c-.54.21-.64-.1-.54.21s-.1.31.16.35.13.42.36.06A.55.55,0,0,0,32.25,74.33Z"/><path class="cls-3" d="M33.27,77.81c-.15.57-.47.45-.15.57s.18.26.37.08.42.15.26-.25A.56.56,0,0,0,33.27,77.81Z"/><path class="cls-4" d="M34.08,76.29c-.68-.82.09-.52-.41-.37s-.62,0-.47.41-.22.42.45.41S34.08,76.29,34.08,76.29Z"/><path class="cls-4" d="M33.27,80.58c.28.7-.12.82.28.7s.39.12.45-.21.53-.17.07-.46A.72.72,0,0,0,33.27,80.58Z"/><path class="cls-3" d="M34.21,83.65c-.68-.83.1-.52-.4-.38s-.63,0-.47.41-.22.42.44.42S34.21,83.65,34.21,83.65Z"/><path class="cls-3" d="M30.78,73.83c-.34-.41,0-.26-.2-.19s-.31,0-.23.21-.11.21.22.2S30.78,73.83,30.78,73.83Z"/><path class="cls-3" d="M28.8,73.38c-.33-.41.05-.26-.2-.19s-.31,0-.23.21-.11.2.22.2S28.8,73.38,28.8,73.38Z"/><path class="cls-3" d="M29.76,74c-.34-.41,0-.26-.2-.19s-.31,0-.23.21-.11.2.22.2S29.76,74,29.76,74Z"/><path class="cls-3" d="M26.78,72.81c-.33-.4,0-.25-.2-.18s-.31,0-.23.2-.11.21.22.2S26.78,72.81,26.78,72.81Z"/><rect class="cls-8" x="0.5" y="0.5" width="279.95" height="175.31"/><polyline points="0.02 27.25 280.45 27.25 280.45 0.42 0.02 0.42"/><path class="cls-6" d="M208.62,16.77V14.23h7.5v6A9.8,9.8,0,0,1,213,21.86a12.94,12.94,0,0,1-4.2.7,10.54,10.54,0,0,1-4.71-1,6.82,6.82,0,0,1-3-2.84,8.26,8.26,0,0,1-1-4,7.85,7.85,0,0,1,1.13-4.19,7.25,7.25,0,0,1,3.3-2.8A10,10,0,0,1,208.56,7a9.06,9.06,0,0,1,5,1.18,5.27,5.27,0,0,1,2.32,3.25l-3.45.56a3.29,3.29,0,0,0-1.37-1.75,4.54,4.54,0,0,0-2.51-.64,5.08,5.08,0,0,0-3.62,1.26,4.91,4.91,0,0,0-1.34,3.75,5.43,5.43,0,0,0,1.36,4A4.89,4.89,0,0,0,208.53,20a6.73,6.73,0,0,0,2.19-.38,7.65,7.65,0,0,0,1.88-.91V16.77m-29.33,5.54V7.25h3.39l7.05,10.06V7.25h3.23V22.31h-3.5l-6.94-9.82v9.82Zm-6.82,0V7.25h3.48V22.31Zm-17.23,0V7.25h3.38l7.05,10.06V7.25h3.23V22.31h-3.49l-6.94-9.82v9.82Zm-13.92-8.7h2.57a14.87,14.87,0,0,0,3.13-.18,1.86,1.86,0,0,0,1-.64,1.78,1.78,0,0,0,.35-1.12,1.67,1.67,0,0,0-.47-1.23,2.16,2.16,0,0,0-1.31-.59c-.28,0-1.13,0-2.54,0H145.3Zm-3.48,8.7V7.25h7.32a14.21,14.21,0,0,1,4,.4,3.88,3.88,0,0,1,2,1.44,4,4,0,0,1,.75,2.38,3.74,3.74,0,0,1-1.14,2.8,5.86,5.86,0,0,1-3.41,1.39,8.12,8.12,0,0,1,1.87,1.26,19.23,19.23,0,0,1,2,2.45l2.11,2.94h-4.16L150.63,19a20.64,20.64,0,0,0-1.83-2.21,2.68,2.68,0,0,0-1.05-.63A6.5,6.5,0,0,0,146,16h-.71v6.29Zm-8.25-6-2.37-5.59-2.33,5.59Zm6.4,6h-3.78l-1.51-3.42H127.8l-1.42,3.42h-3.69L129.4,7.25h3.68Zm-34.46,0L101.4,7.25H105l2.59,10.34L110.7,7.25h4.13l3,10.52L120.5,7.25H124l-4.18,15.06h-3.68L112.7,11.05l-3.42,11.26ZM88.53,16a.59.59,0,0,1-.58.51h-.08a.54.54,0,0,1-.58-.51c-1.91-5.3-2.83-9,.58-9S90.36,10.67,88.53,16Zm-.66,5.75A1.74,1.74,0,0,1,86,20.12a1.74,1.74,0,0,1,1.83-1.6H88a1.67,1.67,0,0,1,1.75,1.6A1.69,1.69,0,0,1,87.87,21.72ZM89.28,5.58a1.48,1.48,0,0,0-1.41-.88,1.34,1.34,0,0,0-1.33.88L77.06,19.83c-1.24,1.82-.16,2.54,1.08,2.62H97.6c1.33-.08,2.32-.8,1.08-2.62Z"/><line class="cls-9" x1="0.58" y1="43.38" x2="280.45" y2="43.38"/><line class="cls-9" x1="68.01" y1="151.2" x2="68.01" y2="43.79"/><line class="cls-9" x1="0.03" y1="151.2" x2="279.45" y2="151.2"/></g><g id="text"><text class="cls-10" transform="translate(11.03 38.53)">Breathing Hazard - Carbon Monoxide Gas</text><text class="cls-11" transform="translate(86.18 54.16)">Do<tspan class="cls-12" x="10.23" y="0"> </tspan><tspan x="13.17" y="0">not</tspan><tspan class="cls-12" x="24.29" y="0"> </tspan><tspan x="27.23" y="0">elevate</tspan><tspan class="cls-12" x="53.03" y="0"> </tspan><tspan x="55.97" y="0">any</tspan><tspan class="cls-12" x="68.87" y="0"> </tspan><tspan x="71.81" y="0">portion</tspan><tspan class="cls-13" x="96.28" y="0"> </tspan><tspan x="99.22" y="0">of</tspan><tspan class="cls-12" x="105.89" y="0"> </tspan><tspan x="108.83" y="0">the</tspan><tspan class="cls-12" x="119.95" y="0"> </tspan><tspan x="122.9" y="0">field-supplied</tspan><tspan class="cls-12" x="170.04" y="0"> </tspan><tspan x="172.98" y="0">drain </tspan><tspan x="0" y="9.6">line</tspan><tspan class="cls-14" x="12.45" y="9.6"> </tspan><tspan x="14.73" y="9.6">beyond</tspan><tspan class="cls-14" x="40.98" y="9.6"> </tspan><tspan x="43.26" y="9.6">the</tspan><tspan class="cls-14" x="54.38" y="9.6"> </tspan><tspan x="56.66" y="9.6">1/2”</tspan><tspan class="cls-14" x="70.45" y="9.6"> </tspan><tspan x="72.73" y="9.6">adapto</tspan><tspan class="cls-15" x="97.2" y="9.6">r</tspan><tspan x="99.42" y="9.6">.</tspan><tspan class="cls-16" x="101.64" y="9.6"> </tspan><tspan x="103.78" y="9.6">This</tspan><tspan class="cls-14" x="118.89" y="9.6"> </tspan><tspan x="121.17" y="9.6">must</tspan><tspan class="cls-14" x="138.51" y="9.6"> </tspan><tspan x="140.79" y="9.6">be</tspan><tspan class="cls-14" x="149.68" y="9.6"> </tspan><tspan x="151.97" y="9.6">true</tspan><tspan class="cls-14" x="165.75" y="9.6"> </tspan><tspan x="168.03" y="9.6">for</tspan><tspan class="cls-14" x="177.37" y="9.6"> </tspan><tspan x="179.65" y="9.6">the </tspan><tspan x="0" y="19.2">entire</tspan><tspan class="cls-17" x="20.01" y="19.2"> </tspan><tspan x="22.19" y="19.2">length</tspan><tspan class="cls-17" x="43.98" y="19.2"> </tspan><tspan x="46.16" y="19.2">of</tspan><tspan class="cls-17" x="52.83" y="19.2"> </tspan><tspan x="55.01" y="19.2">the</tspan><tspan class="cls-17" x="66.13" y="19.2"> </tspan><tspan x="68.3" y="19.2">drain</tspan><tspan class="cls-18" x="86.09" y="19.2"> </tspan><tspan x="88.27" y="19.2">line,</tspan><tspan class="cls-17" x="102.94" y="19.2"> </tspan><tspan x="105.12" y="19.2">including</tspan><tspan class="cls-17" x="136.7" y="19.2"> </tspan><tspan x="138.87" y="19.2">the</tspan><tspan class="cls-17" x="150" y="19.2"> </tspan><tspan x="152.17" y="19.2">exit</tspan><tspan class="cls-17" x="164.62" y="19.2"> </tspan><tspan x="166.8" y="19.2">into</tspan><tspan class="cls-17" x="179.69" y="19.2"> </tspan><tspan x="181.87" y="19.2">an </tspan><tspan x="0" y="28.8">appropriate drain.</tspan></text><text class="cls-11" transform="translate(85.58 94.93)">Condensate<tspan class="cls-19" x="43.14" y="0"> </tspan><tspan x="45.28" y="0">lines</tspan><tspan class="cls-19" x="61.74" y="0"> </tspan><tspan x="63.88" y="0">must</tspan><tspan class="cls-19" x="81.21" y="0"> </tspan><tspan x="83.35" y="0">be</tspan><tspan class="cls-19" x="92.25" y="0"> </tspan><tspan x="94.39" y="0">free</tspan><tspan class="cls-20" x="108.18" y="0"> </tspan><tspan x="110.32" y="0">and</tspan><tspan class="cls-19" x="123.66" y="0"> </tspan><tspan x="125.8" y="0">clear</tspan><tspan class="cls-19" x="143.14" y="0"> </tspan><tspan x="145.28" y="0">of</tspan><tspan class="cls-19" x="151.95" y="0"> </tspan><tspan x="154.09" y="0">debris</tspan><tspan class="cls-19" x="175.88" y="0"> </tspan><tspan x="178.02" y="0">and </tspan><tspan x="0" y="9.6">must</tspan><tspan class="cls-21" x="17.34" y="9.6"> </tspan><tspan x="23" y="9.6">not</tspan><tspan class="cls-22" x="34.12" y="9.6"> </tspan><tspan x="39.79" y="9.6">allow</tspan><tspan class="cls-21" x="58.02" y="9.6"> </tspan><tspan x="63.68" y="9.6">back-flow</tspan><tspan class="cls-21" x="97.47" y="9.6"> </tspan><tspan x="103.14" y="9.6">through</tspan><tspan class="cls-22" x="130.27" y="9.6"> </tspan><tspan x="135.93" y="9.6">the</tspan><tspan class="cls-21" x="147.05" y="9.6"> </tspan><tspan x="152.72" y="9.6">hose.</tspan><tspan class="cls-23" x="172.29" y="9.6"> </tspan><tspan x="177.59" y="9.6">The </tspan><tspan x="0" y="19.2">condensate</tspan><tspan class="cls-24" x="41.37" y="19.2"> </tspan><tspan x="45.38" y="19.2">lines</tspan><tspan class="cls-25" x="61.84" y="19.2"> </tspan><tspan x="65.86" y="19.2">must</tspan><tspan class="cls-24" x="83.19" y="19.2"> </tspan><tspan x="87.21" y="19.2">be</tspan><tspan class="cls-24" x="96.11" y="19.2"> </tspan><tspan x="100.13" y="19.2">able</tspan><tspan class="cls-25" x="115.25" y="19.2"> </tspan><tspan x="119.27" y="19.2">to</tspan><tspan class="cls-24" x="125.94" y="19.2"> </tspan><tspan x="129.96" y="19.2">flow</tspan><tspan class="cls-24" x="144.18" y="19.2"> </tspan><tspan x="148.2" y="19.2">freely</tspan><tspan class="cls-25" x="167.76" y="19.2"> </tspan><tspan x="171.78" y="19.2">to</tspan><tspan class="cls-24" x="178.45" y="19.2"> </tspan><tspan x="182.47" y="19.2">an </tspan><tspan x="0" y="28.8">appropriate drain.</tspan></text><text class="cls-11" transform="translate(84.18 138.07)">Do<tspan class="cls-26" x="10.23" y="0"> </tspan><tspan x="14.77" y="0">not</tspan><tspan class="cls-27" x="25.89" y="0"> </tspan><tspan x="30.43" y="0">allow</tspan><tspan class="cls-26" x="48.66" y="0"> </tspan><tspan x="53.2" y="0">condensate</tspan><tspan class="cls-26" x="94.57" y="0"> </tspan><tspan x="99.11" y="0">lines</tspan><tspan class="cls-26" x="115.56" y="0"> </tspan><tspan x="120.1" y="0">to</tspan><tspan class="cls-27" x="126.77" y="0"> </tspan><tspan x="131.31" y="0">become</tspan><tspan class="cls-26" x="159.78" y="0"> </tspan><tspan x="164.32" y="0">crimped </tspan><tspan x="0" y="9.6">closed.</tspan></text><text class="cls-28" transform="translate(34.95 162.25)">Breathing carbon monoxide can cause brain damage or<tspan x="0" y="10.2">death.</tspan><tspan class="cls-29" x="23.63" y="10.2"> </tspan><tspan class="cls-30" x="25.53" y="10.2">Always read and understand instruction manual.</tspan></text><path d="M81.64,51.85a1.76,1.76,0,1,1-1.76-1.75A1.76,1.76,0,0,1,81.64,51.85Z"/><path d="M81.63,91a1.76,1.76,0,1,1-1.75-1.76A1.75,1.75,0,0,1,81.63,91Z"/><path d="M81.63,133.81a1.76,1.76,0,1,1-1.75-1.75A1.75,1.75,0,0,1,81.63,133.81Z"/></g></svg>