<svg id="text" xmlns="http://www.w3.org/2000/svg" viewBox="0 0 276.77 331.06"><defs><style>.cls-1,.cls-6{fill:none;stroke:#000;}.cls-1{stroke-width:1.5px;}.cls-2{font-size:12px;}.cls-18,.cls-2{font-family:Arial-BoldMT, Arial;font-weight:700;}.cls-3{letter-spacing:-0.06em;}.cls-4{letter-spacing:-0.07em;}.cls-5{letter-spacing:-0.02em;}.cls-7{letter-spacing:0.04em;}.cls-8{letter-spacing:-0.04em;}.cls-9{letter-spacing:0.05em;}.cls-10{letter-spacing:0.27em;}.cls-11{letter-spacing:0.21em;}.cls-12{letter-spacing:0.29em;}.cls-13{letter-spacing:0.13em;}.cls-14{letter-spacing:0.21em;}.cls-15{letter-spacing:0.25em;}.cls-16{letter-spacing:0.05em;}.cls-17{letter-spacing:-0.01em;}.cls-18{font-size:16px;}</style></defs><title>wrnng_fre-and-explsn-hzrd_if-you-smell-gas</title><rect class="cls-1" x="0.75" y="0.75" width="275.27" height="329.56"/><rect class="cls-1" x="9.55" y="7.51" width="257.89" height="60.55"/><text class="cls-2" transform="translate(21.02 21.83)"><tspan class="cls-3">W</tspan><tspan x="10.66" y="0" xml:space="preserve">ARNING:  If   the information   in   these</tspan><tspan x="0" y="13">instructions is not followed exactl</tspan><tspan class="cls-4" x="193.36" y="13">y</tspan><tspan x="199.14" y="13">, a fire</tspan><tspan x="0" y="26">or explosion may result causing property</tspan><tspan x="0" y="39">damage, personal injury or death.</tspan></text><text class="cls-2" transform="translate(29.97 86.17)"><tspan xml:space="preserve">Do  not store  or  use  gasoline  or other</tspan><tspan x="0" y="13" xml:space="preserve">flammable   vapors  and  liquids   in  the</tspan><tspan x="0" y="26">vicinity of this or any other appliance.</tspan></text><text class="cls-2" transform="translate(29.97 133.51)">WH<tspan class="cls-4" x="19.99" y="0">A</tspan><tspan x="27.77" y="0">T </tspan><tspan class="cls-5" x="38.43" y="0">T</tspan><tspan x="45.54" y="0">O DO IF</tspan><tspan class="cls-5" x="90.21" y="0"> </tspan><tspan x="93.33" y="0">YOU SMEL</tspan><tspan class="cls-5" x="156" y="0">L</tspan><tspan x="163.11" y="0" xml:space="preserve"> GAS:</tspan></text><line class="cls-6" x1="14.13" y1="83.38" x2="26.25" y2="83.38"/><line class="cls-6" x1="14.13" y1="130.5" x2="26.25" y2="130.5"/><text class="cls-2" transform="translate(36.47 153.32)">Do not try to light any appliance.</text><text class="cls-2" transform="translate(36.47 174.03)"><tspan xml:space="preserve">Do not  touch any electrical switch;  do</tspan><tspan x="0" y="13">not use any phone in your building.</tspan></text><text class="cls-2" transform="translate(36.47 207.75)"><tspan xml:space="preserve">Immediately   call   your   gas   supplier</tspan><tspan x="0" y="13" xml:space="preserve">from a  neighbo</tspan><tspan class="cls-7" x="90" y="13">r</tspan><tspan class="cls-8" x="95.12" y="13">’</tspan><tspan x="98" y="13" xml:space="preserve">s  phone.  Follow the</tspan><tspan x="0" y="26">gas supplie</tspan><tspan class="cls-7" x="66.02" y="26">r</tspan><tspan class="cls-8" x="71.13" y="26">’</tspan><tspan x="74.02" y="26">s instructions.</tspan></text><text class="cls-2" transform="translate(36.47 255.25)"><tspan xml:space="preserve">If you cannot  reach your  gas supplie</tspan><tspan class="cls-3" x="215.38" y="0">r</tspan><tspan x="219.39" y="0">,</tspan><tspan x="0" y="13">call the fire department.</tspan></text><text class="cls-2" transform="translate(32.38 289.82)"><tspan class="cls-9">Installation<tspan class="cls-10" x="70.54" y="0"> </tspan><tspan x="77.11" y="0">and</tspan><tspan class="cls-11" x="100.25" y="0"> </tspan><tspan x="106.1" y="0">service</tspan><tspan class="cls-12" x="151.67" y="0"> </tspan><tspan x="158.49" y="0">must</tspan><tspan class="cls-12" x="189.56" y="0"> </tspan><tspan x="196.37" y="0">be</tspan><tspan x="0" y="13">performe</tspan><tspan class="cls-13" x="56.81" y="13">d</tspan><tspan class="cls-14" x="65.7" y="13"> </tspan><tspan x="71.56" y="13">b</tspan><tspan class="cls-15" x="79.49" y="13">y</tspan><tspan x="89.16" y="13" xml:space="preserve"> a</tspan><tspan class="cls-12" x="100.37" y="13"> </tspan><tspan class="cls-16" x="107.18" y="13">qualified</tspan><tspan class="cls-12" x="161.92" y="13"> </tspan><tspan x="168.73" y="13">installe</tspan><tspan class="cls-17" x="214.88" y="13">r</tspan><tspan x="219.49" y="13">,</tspan></tspan><tspan x="0" y="26">service agency or the gas supplie</tspan><tspan class="cls-3" x="192.08" y="26">r</tspan><tspan x="196.09" y="26">.</tspan></text><text class="cls-18" transform="translate(26.25 155.17)">•</text><text class="cls-18" transform="translate(26.25 175.84)">•</text><text class="cls-18" transform="translate(26.25 209.17)">•</text><text class="cls-18" transform="translate(26.25 257.01)">•</text><line class="cls-6" x1="15.67" y1="287.17" x2="27.75" y2="287.17"/></svg>