<svg xmlns="http://www.w3.org/2000/svg" viewBox="0 0 243.7 159.51"><title>warning_fre_and_explsn_hzrd_frm_gas_lkge_precautions</title><g id="Layer_1" data-name="Layer 1"><path d="M23.46,83.21c0-.11.09-3.56.1-3.67.16-1.86.89-7,1-8.39.7-9,.15-11.46-.16-14.23-.05-.48,1.94.92,5.12,5.86,1,1.49,2.28,4.2,2.77,4.69.7.71,1.07.31,1.14-1,.2-3.9.9-6.9,1.29-9.91a74,74,0,0,0,1-12.83c0-3.49-.25-4.07,1.3-2.52a17.24,17.24,0,0,1,4.32,6.24c.85,2,1.43,8,2.26,2.08a30.64,30.64,0,0,0,.67-5.81c.09-1.63.27-3.85.35-6.42.26-7.72,1.9-10.25,2-10.54.55-1.12,1,2,1.51,3.91.55,2.08.9,2.08,3.45,6.91,4.22,8,2.9,6.26,5,8.62,5.17,5.81,3.09,14.39,5,8.63,1-3,1.94-4.73,2.24-6.08,1.55-6.93,1.35-5.25,2.83-1.81,1.12,2.61,4.32,8.32,4,13.49a24.4,24.4,0,0,0,.21,7.14c1.17,9.06,1.33,7,3,2.45,4-11,3.15-8,3.79-6.61,1.81,3.89,2.94,6.44,3.3,9.22,1,7.84.69,8.32.05,12.47-1.5,9.75-4.35,11.12.43,8.48,2-1.12,3-3.61,2.77-2-2.08,15.3-2.72,15.83-8.53,22.49-5.46,6.27-12.51,8-19.66,8.87A60.05,60.05,0,0,1,36.69,122c-5.6-1.15-9.92-3.55-12.74-6.54-5.56-5.9-5.88-9.75-6.37-17.4,0-.33,0-2.82,0-3.12,0-.79,0,.67,0-3.42,0-8.26,0-16-.4-17.87-.33-1.43,3.23,2.36,6.27,9.44Z"/><rect x="25.73" y="124.47" width="46.53" height="2.4" style="stroke:#000;stroke-width:0.25px"/><path d="M59.05,38.17A8.86,8.86,0,0,1,60,35.12c.6-.79.23-.83,3.58-2.91a3.76,3.76,0,0,0,1.7-2.11c.19-.5.4-1,.52-.27a5.75,5.75,0,0,1-.15,2.76,4.06,4.06,0,0,1-1.12,1.84A20.61,20.61,0,0,1,62,36.06a9.5,9.5,0,0,0-2.23,1.83c-.37.45-.72.58-.72.28Z" style="stroke:#000;stroke-width:0.12px"/><path d="M46.19,66.46a8.84,8.84,0,0,1,.94-3.05c.6-.79.23-.83,3.58-2.91a3.76,3.76,0,0,0,1.7-2.11c.19-.5.4-1,.52-.27a5.76,5.76,0,0,1-.15,2.76,4.07,4.07,0,0,1-1.12,1.84,20.44,20.44,0,0,1-2.52,1.63,9.5,9.5,0,0,0-2.23,1.83c-.37.45-.72.58-.72.28Z" style="fill:#fff;stroke:#000;stroke-width:0.12px"/><path d="M42.87,23a8.88,8.88,0,0,0-1-3c-.61-.78-.24-.82-3.63-2.85A3.75,3.75,0,0,1,36.51,15c-.2-.5-.41-1-.52-.26a5.73,5.73,0,0,0,.2,2.76,4.07,4.07,0,0,0,1.15,1.82,20.43,20.43,0,0,0,2.55,1.59,9.55,9.55,0,0,1,2.26,1.79c.38.44.73.56.72.27Z" style="stroke:#000;stroke-width:0.12px"/><path d="M43.32,122.81a70.47,70.47,0,0,1-9.12-9.33c-2.55-3.19-4.76-7.21-5.21-10.49-.48-3.57-.75-4.22,1.17-.8.11.2.93,1.82,1.41,1.79s.24-2.32.65-4.46a54.32,54.32,0,0,0,.7-5.93c.1-2.95.11-5.83,0-6.66,0-.49-.08-1.49.1-1.51a3.58,3.58,0,0,1,1.66,2.06,23.3,23.3,0,0,1,1.21,6c.24,2.87.52,5.47,2.44,8.44a3.78,3.78,0,0,0,3,1.8c.45-.05.22-1.11,0-2a20,20,0,0,1-.42-4.4c0-3.11-.09-4.16.29-5.79a29.11,29.11,0,0,1,1-4c1.16-2.8,1.11-.72,1.16,0a17.82,17.82,0,0,0,.44,2.54,19.39,19.39,0,0,0,2.8,6.4C48.33,98.74,49,98.86,49,98.86a6.56,6.56,0,0,0,2.07-2.63,32.39,32.39,0,0,0,2.33-7.87c.44-2.61.35-11,.56-13.89.09-1.24,3.45,3.8,4.55,7A18.39,18.39,0,0,1,59.61,90c-.32,2.15-.57,2.94.36,3.21.19.05,1.51-.61,2.39-2.69s1.9-4.42,2.25-2.74a29.72,29.72,0,0,1,1,6.7c.1,1.86-1.68,5.94-.52,6.43.27.11.7.06,1.49-.81s2-2,1.52-.05c-.45,1.79-3.05,6.78-4.39,9-2.2,3.55-6.57,7.55-8.56,9.54A51.92,51.92,0,0,1,50.07,123Z" style="fill:#fff;stroke:#000;stroke-width:0.12px"/><rect x="0.5" y="0.5" width="242.7" height="158.51" style="fill:none;stroke:#000"/><polyline points="99.61 27.13 242.79 27.13 242.79 0.67 99.61 0.67"/><path d="M231.29,16.4V13.77h6.62V20a8.32,8.32,0,0,1-2.8,1.69,10,10,0,0,1-3.71.73,8.18,8.18,0,0,1-4.16-1,6.48,6.48,0,0,1-2.66-2.94,9.7,9.7,0,0,1-.89-4.16,9.2,9.2,0,0,1,1-4.33A6.8,6.8,0,0,1,227.59,7a7.67,7.67,0,0,1,3.64-.78,7.13,7.13,0,0,1,4.42,1.22,5.53,5.53,0,0,1,2,3.37l-3,.58a3.32,3.32,0,0,0-1.21-1.82A3.57,3.57,0,0,0,231.23,9a4.11,4.11,0,0,0-3.2,1.31,5.6,5.6,0,0,0-1.19,3.89,6.22,6.22,0,0,0,1.2,4.17,4,4,0,0,0,3.15,1.39,5.19,5.19,0,0,0,1.93-.39,6.7,6.7,0,0,0,1.67-.94v-2m-25.9,5.74V6.53h3L218.11,17V6.53H221v15.6h-3.08L211.75,12V22.14Zm-6,0V6.53h3.07v15.6Zm-15.21,0V6.53h3L196.87,17V6.53h2.85v15.6h-3.08L190.52,12V22.14Zm-12.29-9h2.27a11.56,11.56,0,0,0,2.76-.19,1.66,1.66,0,0,0,.86-.66,2.09,2.09,0,0,0,.31-1.17,1.91,1.91,0,0,0-.41-1.27A1.88,1.88,0,0,0,180,9.23q-.37,0-2.24,0h-2.39Zm-3.07,9V6.53h6.46a10.76,10.76,0,0,1,3.54.42,3.51,3.51,0,0,1,1.77,1.49,4.58,4.58,0,0,1,.66,2.46,4.25,4.25,0,0,1-1,2.9,4.79,4.79,0,0,1-3,1.44,7.23,7.23,0,0,1,1.65,1.31,17.92,17.92,0,0,1,1.75,2.53l1.86,3H182.3l-2.22-3.4a21.53,21.53,0,0,0-1.62-2.29,2.39,2.39,0,0,0-.92-.65,5,5,0,0,0-1.55-.17h-.62v6.51ZM165,16l-2.09-5.79L160.86,16Zm5.65,6.17h-3.34L166,18.59h-6.08l-1.25,3.54h-3.26l5.92-15.6h3.25Zm-30.43,0-3.63-15.6h3.14L142,17.25l2.78-10.72h3.65l2.67,10.9,2.33-10.9h3.09l-3.69,15.6h-3.26l-3-11.66-3,11.66Zm-15-6.56a.56.56,0,0,1-.51.53h-.07a.51.51,0,0,1-.51-.53c-1.69-5.5-2.5-9.34.51-9.34S126.86,10.08,125.25,15.57Zm-.59,6a1.66,1.66,0,0,1,0-3.31h.07a1.66,1.66,0,0,1-.07,3.31ZM125.91,4.8a1.27,1.27,0,0,0-1.25-.9,1.17,1.17,0,0,0-1.17.9l-8.37,14.76c-1.1,1.88-.15,2.64,1,2.71h17.18c1.17-.08,2.06-.83,1-2.71Z" style="fill:#fff"/><path d="M105.6,38.25V30.74h5.15V32h-3.63v1.78h3.14v1.27h-3.14v3.19Z"/><path d="M112,32.07V30.74h1.44v1.33Zm0,6.18V32.81h1.44v5.44Z"/><path d="M116.29,38.25h-1.44V32.81h1.34v.77a2.33,2.33,0,0,1,.62-.72,1.14,1.14,0,0,1,.62-.17,1.83,1.83,0,0,1,.95.27l-.45,1.26a1.26,1.26,0,0,0-.68-.24.8.8,0,0,0-.51.17,1.14,1.14,0,0,0-.33.6,8.54,8.54,0,0,0-.12,1.83Z"/><path d="M122.15,36.52l1.44.24a2.35,2.35,0,0,1-.87,1.2,2.57,2.57,0,0,1-1.49.41,2.44,2.44,0,0,1-2.1-.93,3.12,3.12,0,0,1-.54-1.88,3,3,0,0,1,.71-2.12,2.33,2.33,0,0,1,1.79-.77,2.42,2.42,0,0,1,1.92.8,3.55,3.55,0,0,1,.67,2.46h-3.61a1.46,1.46,0,0,0,.35,1,1.09,1.09,0,0,0,.83.36.88.88,0,0,0,.57-.18A1.14,1.14,0,0,0,122.15,36.52Zm.08-1.46a1.39,1.39,0,0,0-.32-1,1,1,0,0,0-1.53,0,1.33,1.33,0,0,0-.3.93Z"/><path d="M128.83,34.47l-1.31-.24a2,2,0,0,1,.76-1.17,2.77,2.77,0,0,1,1.6-.38,3.45,3.45,0,0,1,1.44.23,1.44,1.44,0,0,1,.66.58,3,3,0,0,1,.19,1.29l0,1.68a5.75,5.75,0,0,0,.07,1.06,3.05,3.05,0,0,0,.26.73h-1.42c0-.1-.08-.24-.14-.43l-.05-.17a2.59,2.59,0,0,1-.79.54,2.26,2.26,0,0,1-.9.18,1.86,1.86,0,0,1-1.33-.46,1.52,1.52,0,0,1-.48-1.15,1.55,1.55,0,0,1,.22-.82,1.44,1.44,0,0,1,.62-.55,4.83,4.83,0,0,1,1.15-.34,7.84,7.84,0,0,0,1.4-.35v-.14a.75.75,0,0,0-.21-.59,1.23,1.23,0,0,0-.77-.18,1,1,0,0,0-.6.15A1.05,1.05,0,0,0,128.83,34.47Zm1.93,1.17a8.89,8.89,0,0,1-.88.22,2.66,2.66,0,0,0-.79.25.6.6,0,0,0-.28.51.71.71,0,0,0,.22.52.79.79,0,0,0,.57.22,1.25,1.25,0,0,0,.74-.26.9.9,0,0,0,.34-.48,2.88,2.88,0,0,0,.06-.7Z"/><path d="M138.54,38.25H137.1V35.48a4.3,4.3,0,0,0-.09-1.14.81.81,0,0,0-.3-.4.86.86,0,0,0-.5-.14,1.16,1.16,0,0,0-.67.21,1,1,0,0,0-.41.54,4.66,4.66,0,0,0-.11,1.25v2.47h-1.44V32.81h1.34v.8a2.23,2.23,0,0,1,2.67-.75,1.46,1.46,0,0,1,.6.44,1.59,1.59,0,0,1,.28.61,4.51,4.51,0,0,1,.08,1Z"/><path d="M145,38.25h-1.34v-.8a2.16,2.16,0,0,1-.79.69,2,2,0,0,1-.92.23,2.07,2.07,0,0,1-1.61-.76,3.08,3.08,0,0,1-.67-2.11,3,3,0,0,1,.65-2.1,2.12,2.12,0,0,1,1.65-.72,2,2,0,0,1,1.58.76V30.74H145Zm-3.84-2.84a2.5,2.5,0,0,0,.24,1.26,1.09,1.09,0,0,0,1,.56,1.06,1.06,0,0,0,.85-.42,2,2,0,0,0,.35-1.26,2.14,2.14,0,0,0-.34-1.35,1.07,1.07,0,0,0-.87-.41,1.08,1.08,0,0,0-.86.41A1.84,1.84,0,0,0,141.15,35.41Z"/><path d="M149.35,38.25V30.74h5.57V32h-4.06v1.67h3.77v1.27h-3.77v2h4.2v1.27Z"/><path d="M155.65,38.25l2-2.8-1.88-2.64h1.76l1,1.5,1-1.5h1.69l-1.85,2.58,2,2.87h-1.77l-1.11-1.69-1.12,1.69Z"/><path d="M162.14,32.81h1.34v.8a2,2,0,0,1,.71-.67,2,2,0,0,1,1-.26,2.08,2.08,0,0,1,1.61.74,3,3,0,0,1,.66,2.07,3.09,3.09,0,0,1-.67,2.12,2.07,2.07,0,0,1-1.61.76,1.83,1.83,0,0,1-.82-.18,2.74,2.74,0,0,1-.77-.62v2.74h-1.44Zm1.43,2.63a2.1,2.1,0,0,0,.36,1.36,1.12,1.12,0,0,0,.89.44,1,1,0,0,0,.84-.4,2.07,2.07,0,0,0,.33-1.32,2,2,0,0,0-.34-1.27,1.06,1.06,0,0,0-.85-.42,1.11,1.11,0,0,0-.88.41A1.81,1.81,0,0,0,163.56,35.44Z"/><path d="M168.59,38.25V30.74H170v7.52Z"/><path d="M171.18,35.46a2.94,2.94,0,0,1,.35-1.39,2.43,2.43,0,0,1,1-1,3,3,0,0,1,1.45-.35,2.72,2.72,0,0,1,2,.8,2.78,2.78,0,0,1,.79,2,2.81,2.81,0,0,1-.8,2,2.7,2.7,0,0,1-2,.81,3.16,3.16,0,0,1-1.43-.34,2.32,2.32,0,0,1-1-1A3.3,3.3,0,0,1,171.18,35.46Zm1.48.08a1.81,1.81,0,0,0,.38,1.24,1.26,1.26,0,0,0,1.89,0,1.83,1.83,0,0,0,.38-1.25,1.8,1.8,0,0,0-.38-1.23,1.26,1.26,0,0,0-1.89,0A1.81,1.81,0,0,0,172.65,35.53Z"/><path d="M177.42,36.7l1.45-.22a1.05,1.05,0,0,0,.37.64,1.26,1.26,0,0,0,.79.22,1.42,1.42,0,0,0,.84-.21.46.46,0,0,0,.19-.38.38.38,0,0,0-.1-.27,1.16,1.16,0,0,0-.48-.19,7.78,7.78,0,0,1-2.21-.7,1.4,1.4,0,0,1-.65-1.23,1.51,1.51,0,0,1,.56-1.19,2.61,2.61,0,0,1,1.73-.48,3,3,0,0,1,1.66.36,1.87,1.87,0,0,1,.75,1.08l-1.36.25a.85.85,0,0,0-.33-.49,1.21,1.21,0,0,0-.69-.17,1.56,1.56,0,0,0-.82.16.34.34,0,0,0-.16.29.32.32,0,0,0,.14.26,5.42,5.42,0,0,0,1.35.4,4,4,0,0,1,1.61.64,1.33,1.33,0,0,1,.45,1.07,1.64,1.64,0,0,1-.63,1.29,2.77,2.77,0,0,1-1.85.54,3,3,0,0,1-1.76-.45A2.08,2.08,0,0,1,177.42,36.7Z"/><path d="M183.76,32.07V30.74h1.44v1.33Zm0,6.18V32.81h1.44v5.44Z"/><path d="M186.35,35.46a2.94,2.94,0,0,1,.35-1.39,2.42,2.42,0,0,1,1-1,3,3,0,0,1,1.45-.35,2.72,2.72,0,0,1,2,.8,2.77,2.77,0,0,1,.79,2,2.81,2.81,0,0,1-.8,2,2.7,2.7,0,0,1-2,.81,3.17,3.17,0,0,1-1.43-.34,2.32,2.32,0,0,1-1-1A3.3,3.3,0,0,1,186.35,35.46Zm1.48.08a1.81,1.81,0,0,0,.38,1.24,1.26,1.26,0,0,0,1.89,0,1.83,1.83,0,0,0,.38-1.25,1.79,1.79,0,0,0-.38-1.23,1.26,1.26,0,0,0-1.89,0A1.81,1.81,0,0,0,187.82,35.53Z"/><path d="M198,38.25h-1.44V35.48a4.34,4.34,0,0,0-.09-1.14.81.81,0,0,0-.3-.4.86.86,0,0,0-.5-.14A1.16,1.16,0,0,0,195,34a1,1,0,0,0-.41.54,4.65,4.65,0,0,0-.11,1.25v2.47h-1.44V32.81h1.34v.8a2.23,2.23,0,0,1,2.67-.75,1.46,1.46,0,0,1,.6.44,1.58,1.58,0,0,1,.28.61,4.52,4.52,0,0,1,.08,1Z"/><path d="M202.44,38.25V30.74H204v3h3v-3h1.52v7.52h-1.52V35h-3v3.29Z"/><path d="M211.09,34.47l-1.31-.24a2,2,0,0,1,.76-1.17,2.78,2.78,0,0,1,1.6-.38,3.45,3.45,0,0,1,1.44.23,1.43,1.43,0,0,1,.66.58,3,3,0,0,1,.19,1.29v1.68a5.88,5.88,0,0,0,.07,1.06,3.11,3.11,0,0,0,.26.73h-1.43c0-.1-.08-.24-.14-.43l-.05-.17a2.59,2.59,0,0,1-.79.54,2.26,2.26,0,0,1-.9.18,1.85,1.85,0,0,1-1.32-.46,1.51,1.51,0,0,1-.49-1.15,1.54,1.54,0,0,1,.22-.82,1.44,1.44,0,0,1,.62-.55,4.81,4.81,0,0,1,1.15-.34,7.86,7.86,0,0,0,1.4-.35v-.14a.75.75,0,0,0-.21-.59,1.23,1.23,0,0,0-.77-.18,1,1,0,0,0-.6.15A1.05,1.05,0,0,0,211.09,34.47ZM213,35.64a8.85,8.85,0,0,1-.88.22,2.66,2.66,0,0,0-.78.25.6.6,0,0,0-.28.51.71.71,0,0,0,.23.52.79.79,0,0,0,.57.22,1.25,1.25,0,0,0,.74-.26.9.9,0,0,0,.34-.48,2.82,2.82,0,0,0,.06-.7Z"/><path d="M215.27,38.25V37.13l2-2.34q.5-.57.74-.82l-.66,0h-1.92V32.81H220v1l-2.08,2.4-.73.79.74,0h2.23v1.27Z"/><path d="M222.18,34.47l-1.31-.24a2,2,0,0,1,.76-1.17,2.78,2.78,0,0,1,1.6-.38,3.45,3.45,0,0,1,1.44.23,1.44,1.44,0,0,1,.66.58,3,3,0,0,1,.19,1.29v1.68a5.77,5.77,0,0,0,.07,1.06,3.1,3.1,0,0,0,.26.73h-1.42c0-.1-.08-.24-.14-.43l-.05-.17a2.58,2.58,0,0,1-.79.54,2.25,2.25,0,0,1-.9.18,1.86,1.86,0,0,1-1.33-.46,1.52,1.52,0,0,1-.49-1.15,1.55,1.55,0,0,1,.22-.82,1.44,1.44,0,0,1,.62-.55,4.82,4.82,0,0,1,1.15-.34,7.86,7.86,0,0,0,1.4-.35v-.14a.75.75,0,0,0-.21-.59,1.23,1.23,0,0,0-.77-.18,1,1,0,0,0-.6.15A1.05,1.05,0,0,0,222.18,34.47Zm1.93,1.17a8.92,8.92,0,0,1-.88.22,2.66,2.66,0,0,0-.79.25.6.6,0,0,0-.28.51.71.71,0,0,0,.23.52.79.79,0,0,0,.57.22,1.25,1.25,0,0,0,.74-.26.9.9,0,0,0,.34-.48,2.87,2.87,0,0,0,.06-.7Z"/><path d="M228.32,38.25h-1.44V32.81h1.34v.77a2.34,2.34,0,0,1,.62-.72,1.14,1.14,0,0,1,.62-.17,1.83,1.83,0,0,1,.95.27L230,34.21a1.26,1.26,0,0,0-.68-.24.8.8,0,0,0-.51.17,1.14,1.14,0,0,0-.33.6,8.58,8.58,0,0,0-.12,1.83Z"/><path d="M236,38.25h-1.34v-.8a2.16,2.16,0,0,1-.79.69,2,2,0,0,1-.91.23,2.07,2.07,0,0,1-1.61-.76,3.08,3.08,0,0,1-.67-2.11,3,3,0,0,1,.65-2.1,2.12,2.12,0,0,1,1.64-.72,2,2,0,0,1,1.58.76V30.74H236Zm-3.84-2.84a2.5,2.5,0,0,0,.24,1.26,1.09,1.09,0,0,0,1,.56,1.06,1.06,0,0,0,.85-.42,2,2,0,0,0,.35-1.26,2.13,2.13,0,0,0-.34-1.35,1.07,1.07,0,0,0-.87-.41,1.08,1.08,0,0,0-.86.41A1.84,1.84,0,0,0,232.17,35.41Z"/><line x1="99.01" y1="42.21" x2="243.11" y2="42.21" style="stroke:#000"/><line x1="99.39" y1="159.01" x2="99.39" y2="0.57" style="stroke:#000"/></g><g id="text"><path d="M113.69,78.74V72.66h.79V78h2.94v.72Z"/><path d="M121.21,77.32l.76.1a1.89,1.89,0,0,1-.66,1.05,2.21,2.21,0,0,1-2.74-.22,2.35,2.35,0,0,1-.56-1.67,2.47,2.47,0,0,1,.56-1.73,1.88,1.88,0,0,1,1.46-.62,1.83,1.83,0,0,1,1.42.6,2.42,2.42,0,0,1,.55,1.69s0,.11,0,.2h-3.22a1.72,1.72,0,0,0,.4,1.11,1.19,1.19,0,0,0,.9.39,1.1,1.1,0,0,0,.69-.22A1.43,1.43,0,0,0,121.21,77.32Zm-2.4-1.21h2.41a1.51,1.51,0,0,0-.28-.83,1.11,1.11,0,0,0-.91-.43,1.15,1.15,0,0,0-.85.34A1.38,1.38,0,0,0,118.81,76.12Z"/><path d="M125.7,78.2a2.71,2.71,0,0,1-.78.5,2.22,2.22,0,0,1-.81.15,1.55,1.55,0,0,1-1.09-.36,1.18,1.18,0,0,1-.38-.91,1.24,1.24,0,0,1,.52-1,1.75,1.75,0,0,1,.53-.24,5.15,5.15,0,0,1,.65-.11,6.54,6.54,0,0,0,1.31-.26c0-.1,0-.17,0-.2a.84.84,0,0,0-.21-.64,1.21,1.21,0,0,0-.83-.25,1.28,1.28,0,0,0-.76.18,1.13,1.13,0,0,0-.36.65l-.72-.1a1.83,1.83,0,0,1,.32-.76,1.41,1.41,0,0,1,.65-.44,2.84,2.84,0,0,1,1-.16,2.56,2.56,0,0,1,.9.13,1,1,0,0,1,.74.84,4.29,4.29,0,0,1,0,.69v1a10.75,10.75,0,0,0,0,1.32,1.68,1.68,0,0,0,.18.53h-.76A1.59,1.59,0,0,1,125.7,78.2Zm-.06-1.67a5.33,5.33,0,0,1-1.2.28,2.69,2.69,0,0,0-.64.15.66.66,0,0,0-.17,1.1.94.94,0,0,0,.65.2,1.49,1.49,0,0,0,.75-.19,1.16,1.16,0,0,0,.48-.52,1.83,1.83,0,0,0,.12-.75Z"/><path d="M127.5,78.74V72.66h.73v3.47L130,74.33h.95L129.27,76l1.82,2.77h-.9l-1.43-2.25-.52.51v1.75Z"/><path d="M135.56,78.07l.11.66a2.69,2.69,0,0,1-.55.07,1.23,1.23,0,0,1-.62-.13.72.72,0,0,1-.31-.34,2.71,2.71,0,0,1-.09-.88V74.92h-.54v-.58h.54V73.24l.73-.45v1.54h.74v.58h-.74v2.58a1.31,1.31,0,0,0,0,.41A.3.3,0,0,0,135,78a.48.48,0,0,0,.25.05Z"/><path d="M139.23,77.32l.76.1a1.9,1.9,0,0,1-.66,1.05,2.21,2.21,0,0,1-2.74-.22,2.35,2.35,0,0,1-.56-1.67,2.47,2.47,0,0,1,.56-1.73,1.88,1.88,0,0,1,1.46-.62,1.83,1.83,0,0,1,1.42.6,2.43,2.43,0,0,1,.55,1.69s0,.11,0,.2h-3.22a1.71,1.71,0,0,0,.4,1.11,1.18,1.18,0,0,0,.9.39,1.1,1.1,0,0,0,.69-.22A1.44,1.44,0,0,0,139.23,77.32Zm-2.4-1.21h2.41a1.51,1.51,0,0,0-.28-.83,1.12,1.12,0,0,0-.91-.43,1.15,1.15,0,0,0-.85.34A1.39,1.39,0,0,0,136.82,76.12Z"/><path d="M140.6,77.43l.72-.12a1,1,0,0,0,.34.68,1.17,1.17,0,0,0,.78.24,1.12,1.12,0,0,0,.75-.21.63.63,0,0,0,.24-.49.46.46,0,0,0-.21-.4,3.1,3.1,0,0,0-.75-.25,6.69,6.69,0,0,1-1.12-.36,1.08,1.08,0,0,1-.47-.42,1.12,1.12,0,0,1-.16-.59,1.16,1.16,0,0,1,.13-.55,1.19,1.19,0,0,1,.36-.42,1.5,1.5,0,0,1,.47-.22,2.17,2.17,0,0,1,.63-.09,2.46,2.46,0,0,1,.89.15,1.21,1.21,0,0,1,.57.4,1.59,1.59,0,0,1,.25.68l-.71.1A.81.81,0,0,0,143,75a1,1,0,0,0-.66-.19,1.18,1.18,0,0,0-.72.17.5.5,0,0,0-.22.4.43.43,0,0,0,.09.26.66.66,0,0,0,.28.2l.65.19a9,9,0,0,1,1.08.35,1.05,1.05,0,0,1,.66,1,1.27,1.27,0,0,1-.21.7,1.38,1.38,0,0,1-.62.51,2.21,2.21,0,0,1-.91.18,2,2,0,0,1-1.28-.36A1.66,1.66,0,0,1,140.6,77.43Z"/><path d="M146.65,78.07l.11.66a2.69,2.69,0,0,1-.55.07,1.23,1.23,0,0,1-.62-.13.72.72,0,0,1-.31-.34,2.74,2.74,0,0,1-.09-.88V74.92h-.54v-.58h.54V73.24l.73-.45v1.54h.74v.58h-.74v2.58a1.35,1.35,0,0,0,0,.41.3.3,0,0,0,.13.14.47.47,0,0,0,.25.05Z"/><path d="M149.53,79.11l.71.11a.7.7,0,0,0,.25.49,1.2,1.2,0,0,0,.74.21,1.28,1.28,0,0,0,.79-.21,1,1,0,0,0,.38-.58,5,5,0,0,0,.05-1,1.5,1.5,0,0,1-1.2.58,1.62,1.62,0,0,1-1.38-.66,2.56,2.56,0,0,1-.49-1.57,3,3,0,0,1,.22-1.16,1.82,1.82,0,0,1,.65-.82,1.73,1.73,0,0,1,1-.29,1.54,1.54,0,0,1,1.26.63v-.53h.68v3.81A3.69,3.69,0,0,1,153,79.6a1.52,1.52,0,0,1-.65.68,2.22,2.22,0,0,1-1.1.25,2,2,0,0,1-1.25-.36A1.21,1.21,0,0,1,149.53,79.11Zm.61-2.65a1.94,1.94,0,0,0,.34,1.27,1.1,1.1,0,0,0,1.69,0,1.87,1.87,0,0,0,.34-1.24,1.84,1.84,0,0,0-.35-1.22,1.08,1.08,0,0,0-.85-.41,1,1,0,0,0-.83.4A1.82,1.82,0,0,0,150.13,76.46Z"/><path d="M157.11,78.2a2.71,2.71,0,0,1-.78.5,2.22,2.22,0,0,1-.81.15,1.55,1.55,0,0,1-1.09-.36,1.18,1.18,0,0,1-.38-.91,1.24,1.24,0,0,1,.52-1,1.75,1.75,0,0,1,.53-.24,5.15,5.15,0,0,1,.65-.11,6.54,6.54,0,0,0,1.31-.26c0-.1,0-.17,0-.2a.84.84,0,0,0-.21-.64,1.21,1.21,0,0,0-.83-.25,1.28,1.28,0,0,0-.76.18,1.13,1.13,0,0,0-.36.65l-.72-.1a1.84,1.84,0,0,1,.32-.76,1.41,1.41,0,0,1,.65-.44,2.84,2.84,0,0,1,1-.16,2.56,2.56,0,0,1,.9.13,1,1,0,0,1,.74.84,4.29,4.29,0,0,1,0,.69v1a10.75,10.75,0,0,0,0,1.32,1.68,1.68,0,0,0,.18.53h-.76A1.59,1.59,0,0,1,157.11,78.2ZM157,76.53a5.33,5.33,0,0,1-1.2.28,2.69,2.69,0,0,0-.64.15.66.66,0,0,0-.17,1.1.94.94,0,0,0,.65.2,1.49,1.49,0,0,0,.75-.19,1.16,1.16,0,0,0,.48-.52,1.83,1.83,0,0,0,.12-.75Z"/><path d="M158.62,77.43l.72-.12a1,1,0,0,0,.34.68,1.17,1.17,0,0,0,.78.24,1.12,1.12,0,0,0,.75-.21.63.63,0,0,0,.24-.49.46.46,0,0,0-.21-.4,3.1,3.1,0,0,0-.75-.25,6.69,6.69,0,0,1-1.12-.36,1.08,1.08,0,0,1-.47-.42,1.12,1.12,0,0,1-.16-.59,1.16,1.16,0,0,1,.13-.55,1.19,1.19,0,0,1,.36-.42,1.5,1.5,0,0,1,.47-.22,2.17,2.17,0,0,1,.63-.09,2.46,2.46,0,0,1,.89.15,1.21,1.21,0,0,1,.57.4,1.59,1.59,0,0,1,.25.68l-.71.1A.81.81,0,0,0,161,75a1,1,0,0,0-.66-.19,1.18,1.18,0,0,0-.72.17.5.5,0,0,0-.22.4.43.43,0,0,0,.09.26.66.66,0,0,0,.28.2l.65.19a9,9,0,0,1,1.08.35,1.05,1.05,0,0,1,.66,1,1.27,1.27,0,0,1-.21.7,1.38,1.38,0,0,1-.62.51,2.21,2.21,0,0,1-.91.18,2,2,0,0,1-1.28-.36A1.66,1.66,0,0,1,158.62,77.43Z"/><path d="M168.19,77.13l.72.09a1.92,1.92,0,0,1-.6,1.19,1.73,1.73,0,0,1-1.19.43,1.84,1.84,0,0,1-1.43-.59,2.43,2.43,0,0,1-.54-1.7,3.13,3.13,0,0,1,.23-1.25,1.64,1.64,0,0,1,.71-.8,2.07,2.07,0,0,1,1-.27,1.77,1.77,0,0,1,1.15.36,1.67,1.67,0,0,1,.57,1l-.71.11a1.21,1.21,0,0,0-.36-.67.92.92,0,0,0-.62-.22,1.13,1.13,0,0,0-.9.4,1.94,1.94,0,0,0-.35,1.28,2,2,0,0,0,.33,1.29,1.08,1.08,0,0,0,.87.4,1,1,0,0,0,.72-.27A1.36,1.36,0,0,0,168.19,77.13Z"/><path d="M169.26,76.54a2.3,2.3,0,0,1,.67-1.81,2,2,0,0,1,1.36-.49,1.92,1.92,0,0,1,1.46.6,2.29,2.29,0,0,1,.57,1.65,3,3,0,0,1-.25,1.34,1.78,1.78,0,0,1-.73.76,2.09,2.09,0,0,1-1,.27,1.92,1.92,0,0,1-1.47-.59A2.4,2.4,0,0,1,169.26,76.54Zm.75,0a1.91,1.91,0,0,0,.36,1.27,1.19,1.19,0,0,0,1.82,0,2,2,0,0,0,.36-1.29,1.85,1.85,0,0,0-.36-1.24,1.19,1.19,0,0,0-1.82,0A1.89,1.89,0,0,0,170,76.54Z"/><path d="M174.16,78.74V74.33h.66V75a1.54,1.54,0,0,1,1.38-.73,1.78,1.78,0,0,1,.72.14,1.13,1.13,0,0,1,.49.38,1.45,1.45,0,0,1,.23.55,4.46,4.46,0,0,1,0,.73v2.71h-.73V76.06a2,2,0,0,0-.09-.68.71.71,0,0,0-.3-.36,1,1,0,0,0-.51-.13,1.17,1.17,0,0,0-.81.3,1.51,1.51,0,0,0-.34,1.15v2.41Z"/><path d="M178.78,78.74V74.33h.66V75a1.54,1.54,0,0,1,1.38-.73,1.78,1.78,0,0,1,.72.14,1.13,1.13,0,0,1,.49.38,1.46,1.46,0,0,1,.23.55,4.46,4.46,0,0,1,0,.73v2.71h-.73V76.06a2.05,2.05,0,0,0-.08-.68.71.71,0,0,0-.3-.36,1,1,0,0,0-.51-.13,1.17,1.17,0,0,0-.81.3,1.51,1.51,0,0,0-.34,1.15v2.41Z"/><path d="M186.36,77.32l.76.1a1.89,1.89,0,0,1-.66,1.05,2.21,2.21,0,0,1-2.74-.22,2.36,2.36,0,0,1-.55-1.67,2.47,2.47,0,0,1,.56-1.73,1.88,1.88,0,0,1,1.46-.62,1.83,1.83,0,0,1,1.42.6,2.42,2.42,0,0,1,.55,1.69s0,.11,0,.2h-3.22a1.72,1.72,0,0,0,.4,1.11,1.19,1.19,0,0,0,.9.39,1.1,1.1,0,0,0,.69-.22A1.44,1.44,0,0,0,186.36,77.32ZM184,76.12h2.41a1.52,1.52,0,0,0-.28-.83,1.11,1.11,0,0,0-.91-.43,1.15,1.15,0,0,0-.85.34A1.38,1.38,0,0,0,184,76.12Z"/><path d="M190.85,77.13l.72.09a1.92,1.92,0,0,1-.6,1.19,1.73,1.73,0,0,1-1.19.43,1.84,1.84,0,0,1-1.43-.59,2.43,2.43,0,0,1-.54-1.7,3.13,3.13,0,0,1,.23-1.25,1.64,1.64,0,0,1,.71-.8,2.07,2.07,0,0,1,1-.27,1.77,1.77,0,0,1,1.15.36,1.67,1.67,0,0,1,.57,1l-.71.11a1.21,1.21,0,0,0-.36-.67.92.92,0,0,0-.62-.22,1.13,1.13,0,0,0-.9.4,1.94,1.94,0,0,0-.35,1.28,2,2,0,0,0,.33,1.29,1.08,1.08,0,0,0,.87.4,1,1,0,0,0,.72-.27A1.36,1.36,0,0,0,190.85,77.13Z"/><path d="M193.78,78.07l.11.66a2.69,2.69,0,0,1-.55.07,1.23,1.23,0,0,1-.62-.13.72.72,0,0,1-.31-.34,2.74,2.74,0,0,1-.09-.88V74.92h-.54v-.58h.54V73.24l.73-.45v1.54h.74v.58H193v2.58a1.35,1.35,0,0,0,0,.41.3.3,0,0,0,.13.14.47.47,0,0,0,.25.05Z"/><path d="M194.5,73.52v-.86h.73v.86Zm0,5.23V74.33h.73v4.41Z"/><path d="M196.06,76.54a2.3,2.3,0,0,1,.67-1.81,2,2,0,0,1,1.36-.49,1.92,1.92,0,0,1,1.46.6,2.29,2.29,0,0,1,.56,1.65,3,3,0,0,1-.25,1.34,1.78,1.78,0,0,1-.73.76,2.09,2.09,0,0,1-1,.27,1.92,1.92,0,0,1-1.47-.59A2.4,2.4,0,0,1,196.06,76.54Zm.75,0a1.9,1.9,0,0,0,.36,1.27,1.19,1.19,0,0,0,1.82,0,2,2,0,0,0,.36-1.29,1.84,1.84,0,0,0-.36-1.24,1.19,1.19,0,0,0-1.82,0A1.89,1.89,0,0,0,196.81,76.54Z"/><path d="M201,78.74V74.33h.66V75a1.54,1.54,0,0,1,1.38-.73,1.78,1.78,0,0,1,.72.14,1.13,1.13,0,0,1,.49.38,1.45,1.45,0,0,1,.23.55,4.46,4.46,0,0,1,0,.73v2.71h-.73V76.06a2,2,0,0,0-.09-.68.71.71,0,0,0-.3-.36,1,1,0,0,0-.51-.13,1.17,1.17,0,0,0-.81.3,1.51,1.51,0,0,0-.34,1.15v2.41Z"/><path d="M205.29,77.43l.72-.12a1,1,0,0,0,.34.68,1.17,1.17,0,0,0,.78.24,1.12,1.12,0,0,0,.75-.21.63.63,0,0,0,.24-.49.45.45,0,0,0-.22-.4,3.08,3.08,0,0,0-.75-.25,6.71,6.71,0,0,1-1.12-.36,1.08,1.08,0,0,1-.47-.42,1.12,1.12,0,0,1-.16-.59,1.16,1.16,0,0,1,.13-.55,1.2,1.2,0,0,1,.36-.42,1.48,1.48,0,0,1,.46-.22,2.18,2.18,0,0,1,.63-.09,2.45,2.45,0,0,1,.89.15,1.22,1.22,0,0,1,.57.4,1.61,1.61,0,0,1,.25.68l-.72.1a.8.8,0,0,0-.28-.53,1,1,0,0,0-.66-.19,1.18,1.18,0,0,0-.72.17.5.5,0,0,0-.22.4.42.42,0,0,0,.09.26.64.64,0,0,0,.28.2l.65.19a9,9,0,0,1,1.08.35,1.05,1.05,0,0,1,.66,1,1.28,1.28,0,0,1-.21.7,1.38,1.38,0,0,1-.62.51,2.2,2.2,0,0,1-.91.18,2,2,0,0,1-1.28-.36A1.67,1.67,0,0,1,205.29,77.43Z"/><path d="M212.72,78.74H212V72.66h.73v2.17a1.44,1.44,0,0,1,1.18-.59,1.78,1.78,0,0,1,.75.16,1.55,1.55,0,0,1,.59.46,2.24,2.24,0,0,1,.36.72,3,3,0,0,1,.13.9,2.56,2.56,0,0,1-.55,1.75,1.71,1.71,0,0,1-1.32.62,1.37,1.37,0,0,1-1.2-.65Zm0-2.24a2.32,2.32,0,0,0,.21,1.15,1,1,0,0,0,1.76.15,2,2,0,0,0,.35-1.27,2,2,0,0,0-.33-1.27,1,1,0,0,0-.81-.41,1,1,0,0,0-.83.42A1.89,1.89,0,0,0,212.71,76.51Z"/><path d="M219.63,77.32l.76.1a1.89,1.89,0,0,1-.66,1.05,2.21,2.21,0,0,1-2.74-.22,2.35,2.35,0,0,1-.55-1.67,2.47,2.47,0,0,1,.56-1.73,1.88,1.88,0,0,1,1.46-.62,1.83,1.83,0,0,1,1.42.6,2.42,2.42,0,0,1,.55,1.69s0,.11,0,.2h-3.22a1.72,1.72,0,0,0,.4,1.11,1.19,1.19,0,0,0,.9.39,1.1,1.1,0,0,0,.69-.22A1.43,1.43,0,0,0,219.63,77.32Zm-2.4-1.21h2.41a1.51,1.51,0,0,0-.28-.83,1.11,1.11,0,0,0-.91-.43,1.15,1.15,0,0,0-.85.34A1.37,1.37,0,0,0,217.22,76.12Z"/><path d="M221.47,78.74V74.92h-.65v-.58h.65v-.47a2.09,2.09,0,0,1,.08-.66,1,1,0,0,1,.37-.47,1.32,1.32,0,0,1,.75-.18,3.52,3.52,0,0,1,.68.08l-.11.65a2.36,2.36,0,0,0-.43,0,.63.63,0,0,0-.47.15.8.8,0,0,0-.14.54v.41H223v.58h-.84v3.83Z"/><path d="M223.33,76.54a2.3,2.3,0,0,1,.67-1.81,2,2,0,0,1,1.36-.49,1.92,1.92,0,0,1,1.46.6,2.29,2.29,0,0,1,.57,1.65,3,3,0,0,1-.25,1.34,1.79,1.79,0,0,1-.73.76,2.09,2.09,0,0,1-1,.27,1.92,1.92,0,0,1-1.47-.59A2.4,2.4,0,0,1,223.33,76.54Zm.75,0a1.91,1.91,0,0,0,.36,1.27,1.19,1.19,0,0,0,1.82,0,2,2,0,0,0,.36-1.29,1.85,1.85,0,0,0-.36-1.24,1.19,1.19,0,0,0-1.82,0A1.9,1.9,0,0,0,224.08,76.54Z"/><path d="M228.22,78.74V74.33h.66V75a1.82,1.82,0,0,1,.46-.62.8.8,0,0,1,.47-.15,1.4,1.4,0,0,1,.75.24l-.25.69a1,1,0,0,0-.54-.16.69.69,0,0,0-.43.15.79.79,0,0,0-.27.41,3,3,0,0,0-.12.87v2.31Z"/><path d="M233.95,77.32l.76.1a1.89,1.89,0,0,1-.66,1.05,2.21,2.21,0,0,1-2.74-.22,2.35,2.35,0,0,1-.55-1.67,2.47,2.47,0,0,1,.56-1.73,1.88,1.88,0,0,1,1.46-.62,1.83,1.83,0,0,1,1.42.6,2.42,2.42,0,0,1,.55,1.69s0,.11,0,.2H231.5a1.72,1.72,0,0,0,.4,1.11,1.19,1.19,0,0,0,.9.39,1.1,1.1,0,0,0,.69-.22A1.43,1.43,0,0,0,233.95,77.32Zm-2.4-1.21H234a1.51,1.51,0,0,0-.28-.83,1.11,1.11,0,0,0-.91-.43,1.15,1.15,0,0,0-.85.34A1.37,1.37,0,0,0,231.54,76.12Z"/><path d="M113.63,90.63v-6.1h.67v.57a1.64,1.64,0,0,1,.53-.5,1.44,1.44,0,0,1,.72-.17,1.68,1.68,0,0,1,1,.29,1.78,1.78,0,0,1,.64.82,3,3,0,0,1,.22,1.16,3,3,0,0,1-.24,1.22,1.82,1.82,0,0,1-.69.83,1.76,1.76,0,0,1-1,.29,1.36,1.36,0,0,1-.66-.16,1.51,1.51,0,0,1-.48-.4v2.15Zm.66-3.87a2,2,0,0,0,.34,1.26,1,1,0,0,0,.82.41,1.05,1.05,0,0,0,.84-.42,2,2,0,0,0,.35-1.3,2,2,0,0,0-.34-1.26,1,1,0,0,0-.81-.42,1,1,0,0,0-.83.45A2,2,0,0,0,114.29,86.76Z"/><path d="M118.24,88.94V82.86H119v6.08Z"/><path d="M122.91,88.4a2.71,2.71,0,0,1-.78.5,2.21,2.21,0,0,1-.81.15,1.55,1.55,0,0,1-1.09-.35,1.18,1.18,0,0,1-.38-.91,1.22,1.22,0,0,1,.14-.59,1.19,1.19,0,0,1,.38-.43,1.76,1.76,0,0,1,.53-.25,5.09,5.09,0,0,1,.65-.11,6.59,6.59,0,0,0,1.31-.26c0-.1,0-.17,0-.19a.84.84,0,0,0-.21-.64,1.21,1.21,0,0,0-.83-.25,1.27,1.27,0,0,0-.76.18,1.13,1.13,0,0,0-.36.65l-.72-.1a1.82,1.82,0,0,1,.32-.76,1.4,1.4,0,0,1,.65-.44,2.82,2.82,0,0,1,1-.16,2.54,2.54,0,0,1,.9.13,1.17,1.17,0,0,1,.51.33,1.19,1.19,0,0,1,.23.51,4.31,4.31,0,0,1,0,.69v1a10.76,10.76,0,0,0,0,1.32,1.69,1.69,0,0,0,.19.53h-.76A1.62,1.62,0,0,1,122.91,88.4Zm-.06-1.67a5.28,5.28,0,0,1-1.2.28,2.69,2.69,0,0,0-.64.15.64.64,0,0,0-.29.24.65.65,0,0,0-.1.36.64.64,0,0,0,.22.5.94.94,0,0,0,.65.2,1.47,1.47,0,0,0,.75-.19,1.15,1.15,0,0,0,.48-.52,1.84,1.84,0,0,0,.12-.75Z"/><path d="M127.54,87.33l.72.1a1.92,1.92,0,0,1-.6,1.19,1.74,1.74,0,0,1-1.19.43,1.84,1.84,0,0,1-1.43-.59,2.43,2.43,0,0,1-.54-1.7,3.13,3.13,0,0,1,.23-1.25,1.64,1.64,0,0,1,.71-.8,2.06,2.06,0,0,1,1-.27,1.77,1.77,0,0,1,1.15.36,1.67,1.67,0,0,1,.57,1l-.71.11a1.22,1.22,0,0,0-.36-.67.92.92,0,0,0-.62-.22,1.12,1.12,0,0,0-.9.41,2,2,0,0,0-.35,1.28,2,2,0,0,0,.33,1.29,1.08,1.08,0,0,0,.87.4,1,1,0,0,0,.72-.27A1.35,1.35,0,0,0,127.54,87.33Z"/><path d="M128.88,83.72v-.86h.73v.86Zm0,5.23V84.54h.73v4.41Z"/><path d="M130.72,88.94V84.54h.66v.63a1.55,1.55,0,0,1,1.38-.73,1.77,1.77,0,0,1,.72.14A1.13,1.13,0,0,1,134,85a1.45,1.45,0,0,1,.23.55,4.34,4.34,0,0,1,0,.73v2.71h-.73V86.26a2,2,0,0,0-.09-.68.72.72,0,0,0-.3-.36,1,1,0,0,0-.51-.13,1.17,1.17,0,0,0-.81.3,1.51,1.51,0,0,0-.34,1.15v2.41Z"/><path d="M135.21,89.31l.71.11a.69.69,0,0,0,.25.49,1.2,1.2,0,0,0,.74.21,1.29,1.29,0,0,0,.79-.21,1,1,0,0,0,.37-.58,4.85,4.85,0,0,0,.05-1,1.49,1.49,0,0,1-1.2.58,1.62,1.62,0,0,1-1.38-.66,2.57,2.57,0,0,1-.49-1.57,3,3,0,0,1,.22-1.17,1.82,1.82,0,0,1,.65-.82,1.72,1.72,0,0,1,1-.29,1.54,1.54,0,0,1,1.26.63v-.53h.68v3.81a3.68,3.68,0,0,1-.21,1.46,1.52,1.52,0,0,1-.65.68,2.22,2.22,0,0,1-1.1.25,2,2,0,0,1-1.25-.35A1.21,1.21,0,0,1,135.21,89.31Zm.61-2.65a1.94,1.94,0,0,0,.34,1.27,1.06,1.06,0,0,0,.85.4,1.08,1.08,0,0,0,.85-.4,1.88,1.88,0,0,0,.34-1.24,1.83,1.83,0,0,0-.35-1.22,1.08,1.08,0,0,0-.85-.41,1,1,0,0,0-.83.4A1.82,1.82,0,0,0,135.81,86.66Z"/><path d="M143.07,88.94l-1.32-4.41h.76l.69,2.54.26.95.22-.91.69-2.58h.75l.65,2.56.22.84.25-.85.74-2.55h.71l-1.35,4.41h-.76l-.69-2.64-.17-.75-.87,3.39Z"/><path d="M151.1,88.4a2.71,2.71,0,0,1-.78.5,2.21,2.21,0,0,1-.81.15,1.55,1.55,0,0,1-1.09-.35,1.18,1.18,0,0,1-.38-.91,1.23,1.23,0,0,1,.14-.59,1.2,1.2,0,0,1,.38-.43,1.77,1.77,0,0,1,.53-.25,5,5,0,0,1,.65-.11,6.58,6.58,0,0,0,1.3-.26c0-.1,0-.17,0-.19a.83.83,0,0,0-.21-.64,1.21,1.21,0,0,0-.83-.25,1.27,1.27,0,0,0-.76.18,1.14,1.14,0,0,0-.36.65l-.72-.1a1.81,1.81,0,0,1,.32-.76,1.4,1.4,0,0,1,.65-.44,2.82,2.82,0,0,1,1-.16,2.54,2.54,0,0,1,.9.13,1.17,1.17,0,0,1,.51.33,1.19,1.19,0,0,1,.23.51,4.31,4.31,0,0,1,0,.69v1a10.76,10.76,0,0,0,0,1.32,1.69,1.69,0,0,0,.19.53h-.76A1.64,1.64,0,0,1,151.1,88.4ZM151,86.73a5.28,5.28,0,0,1-1.2.28,2.69,2.69,0,0,0-.64.15.64.64,0,0,0-.29.24.65.65,0,0,0-.1.36.64.64,0,0,0,.22.5.94.94,0,0,0,.65.2,1.47,1.47,0,0,0,.75-.19,1.15,1.15,0,0,0,.48-.52A1.85,1.85,0,0,0,151,87Z"/><path d="M154.5,88.27l.11.66a2.63,2.63,0,0,1-.55.07,1.24,1.24,0,0,1-.62-.13.71.71,0,0,1-.31-.34,2.69,2.69,0,0,1-.09-.88V85.12h-.54v-.58H153V83.44l.73-.45v1.54h.74v.58h-.74v2.58a1.31,1.31,0,0,0,0,.41.3.3,0,0,0,.13.15.48.48,0,0,0,.25.05Z"/><path d="M158.17,87.52l.76.09a1.88,1.88,0,0,1-.66,1,2.21,2.21,0,0,1-2.74-.22,2.36,2.36,0,0,1-.55-1.67,2.47,2.47,0,0,1,.56-1.73,1.88,1.88,0,0,1,1.46-.61,1.83,1.83,0,0,1,1.42.6,2.41,2.41,0,0,1,.55,1.69s0,.11,0,.2h-3.22a1.72,1.72,0,0,0,.4,1.11,1.19,1.19,0,0,0,.9.39,1.11,1.11,0,0,0,.69-.22A1.43,1.43,0,0,0,158.17,87.52Zm-2.4-1.21h2.41a1.52,1.52,0,0,0-.28-.83A1.11,1.11,0,0,0,157,85a1.15,1.15,0,0,0-.85.34A1.37,1.37,0,0,0,155.76,86.32Z"/><path d="M159.83,88.94V84.54h.66v.67a1.83,1.83,0,0,1,.47-.62.8.8,0,0,1,.47-.15,1.41,1.41,0,0,1,.75.24l-.25.69a1,1,0,0,0-.54-.16.69.69,0,0,0-.43.15.8.8,0,0,0-.27.41,3,3,0,0,0-.12.87v2.31Z"/><path d="M164.91,88.94V82.86h.73V85a1.62,1.62,0,0,1,1.29-.61,1.72,1.72,0,0,1,.83.19,1.13,1.13,0,0,1,.51.53,2.51,2.51,0,0,1,.15,1v2.79h-.73V86.15a1.17,1.17,0,0,0-.24-.82.88.88,0,0,0-.67-.26,1.17,1.17,0,0,0-.61.17,1,1,0,0,0-.41.47,2.19,2.19,0,0,0-.12.81v2.41Z"/><path d="M172.49,87.52l.76.09a1.88,1.88,0,0,1-.66,1,2.21,2.21,0,0,1-2.74-.22,2.36,2.36,0,0,1-.55-1.67,2.47,2.47,0,0,1,.56-1.73,1.88,1.88,0,0,1,1.46-.61,1.83,1.83,0,0,1,1.42.6,2.42,2.42,0,0,1,.55,1.69s0,.11,0,.2H170a1.72,1.72,0,0,0,.4,1.11,1.19,1.19,0,0,0,.9.39,1.11,1.11,0,0,0,.69-.22A1.44,1.44,0,0,0,172.49,87.52Zm-2.4-1.21h2.41a1.52,1.52,0,0,0-.28-.83,1.12,1.12,0,0,0-.91-.43,1.15,1.15,0,0,0-.85.34A1.38,1.38,0,0,0,170.08,86.32Z"/><path d="M177,88.4a2.71,2.71,0,0,1-.78.5,2.21,2.21,0,0,1-.81.15,1.55,1.55,0,0,1-1.09-.35,1.18,1.18,0,0,1-.38-.91,1.23,1.23,0,0,1,.14-.59,1.2,1.2,0,0,1,.38-.43,1.77,1.77,0,0,1,.53-.25,5,5,0,0,1,.65-.11,6.58,6.58,0,0,0,1.3-.26c0-.1,0-.17,0-.19a.83.83,0,0,0-.21-.64,1.21,1.21,0,0,0-.83-.25,1.27,1.27,0,0,0-.76.18,1.14,1.14,0,0,0-.36.65l-.72-.1a1.81,1.81,0,0,1,.32-.76,1.4,1.4,0,0,1,.65-.44,2.82,2.82,0,0,1,1-.16,2.54,2.54,0,0,1,.9.13,1.17,1.17,0,0,1,.51.33,1.19,1.19,0,0,1,.23.51,4.31,4.31,0,0,1,0,.69v1a10.76,10.76,0,0,0,0,1.32,1.69,1.69,0,0,0,.19.53h-.76A1.64,1.64,0,0,1,177,88.4Zm-.06-1.67a5.28,5.28,0,0,1-1.2.28,2.69,2.69,0,0,0-.64.15.64.64,0,0,0-.29.24.65.65,0,0,0-.1.36.64.64,0,0,0,.22.5.94.94,0,0,0,.65.2,1.47,1.47,0,0,0,.75-.19,1.15,1.15,0,0,0,.48-.52,1.85,1.85,0,0,0,.12-.75Z"/><path d="M180.38,88.27l.11.66a2.63,2.63,0,0,1-.55.07,1.24,1.24,0,0,1-.62-.13.71.71,0,0,1-.31-.34,2.69,2.69,0,0,1-.09-.88V85.12h-.54v-.58h.54V83.44l.73-.45v1.54h.74v.58h-.74v2.58a1.31,1.31,0,0,0,0,.41.3.3,0,0,0,.13.15.48.48,0,0,0,.25.05Z"/><path d="M184,87.52l.76.09a1.88,1.88,0,0,1-.66,1,2.21,2.21,0,0,1-2.74-.22,2.36,2.36,0,0,1-.55-1.67A2.47,2.47,0,0,1,181.4,85a1.88,1.88,0,0,1,1.46-.61,1.83,1.83,0,0,1,1.42.6,2.42,2.42,0,0,1,.55,1.69s0,.11,0,.2H181.6A1.72,1.72,0,0,0,182,88a1.19,1.19,0,0,0,.9.39,1.11,1.11,0,0,0,.69-.22A1.44,1.44,0,0,0,184,87.52Zm-2.4-1.21h2.41a1.52,1.52,0,0,0-.28-.83,1.12,1.12,0,0,0-.91-.43,1.15,1.15,0,0,0-.85.34A1.38,1.38,0,0,0,181.64,86.32Z"/><path d="M185.7,88.94V84.54h.66v.67a1.83,1.83,0,0,1,.46-.62.8.8,0,0,1,.47-.15,1.41,1.41,0,0,1,.75.24l-.25.69a1,1,0,0,0-.54-.16.69.69,0,0,0-.43.15.8.8,0,0,0-.27.41,2.94,2.94,0,0,0-.12.87v2.31Z"/><path d="M190.79,83.72v-.86h.73v.86Zm0,5.23V84.54h.73v4.41Z"/><path d="M192.62,88.94V84.54h.66v.63a1.54,1.54,0,0,1,1.38-.73,1.76,1.76,0,0,1,.72.14,1.13,1.13,0,0,1,.49.38,1.45,1.45,0,0,1,.23.55,4.48,4.48,0,0,1,0,.73v2.71h-.73V86.26a2.06,2.06,0,0,0-.09-.68.72.72,0,0,0-.3-.36,1,1,0,0,0-.51-.13,1.17,1.17,0,0,0-.81.3,1.51,1.51,0,0,0-.34,1.15v2.41Z"/><path d="M199.28,86.74a2.3,2.3,0,0,1,.67-1.81,2,2,0,0,1,1.36-.49,1.92,1.92,0,0,1,1.46.6,2.29,2.29,0,0,1,.57,1.64,3,3,0,0,1-.25,1.34,1.79,1.79,0,0,1-.73.76,2.09,2.09,0,0,1-1,.27,1.92,1.92,0,0,1-1.47-.59A2.4,2.4,0,0,1,199.28,86.74Zm.75,0A1.9,1.9,0,0,0,200.4,88a1.19,1.19,0,0,0,1.82,0,2,2,0,0,0,.36-1.29,1.85,1.85,0,0,0-.36-1.24,1.19,1.19,0,0,0-1.82,0A1.89,1.89,0,0,0,200,86.74Z"/><path d="M204.18,90.63v-6.1h.67v.57a1.65,1.65,0,0,1,.53-.5,1.43,1.43,0,0,1,.72-.17,1.68,1.68,0,0,1,1,.29,1.77,1.77,0,0,1,.64.82,3.22,3.22,0,0,1,0,2.38,1.82,1.82,0,0,1-.69.83,1.76,1.76,0,0,1-1,.29,1.36,1.36,0,0,1-.66-.16,1.51,1.51,0,0,1-.48-.4v2.15Zm.66-3.87a2,2,0,0,0,.34,1.26,1,1,0,0,0,.82.41,1.05,1.05,0,0,0,.84-.42,2,2,0,0,0,.35-1.3,2,2,0,0,0-.34-1.26A1,1,0,0,0,206,85a1,1,0,0,0-.83.45A2,2,0,0,0,204.84,86.76Z"/><path d="M211.76,87.52l.76.09a1.89,1.89,0,0,1-.66,1,2.21,2.21,0,0,1-2.74-.22,2.36,2.36,0,0,1-.56-1.67,2.47,2.47,0,0,1,.56-1.73,1.88,1.88,0,0,1,1.46-.61A1.83,1.83,0,0,1,212,85a2.42,2.42,0,0,1,.55,1.69s0,.11,0,.2h-3.22a1.71,1.71,0,0,0,.4,1.11,1.18,1.18,0,0,0,.9.39,1.11,1.11,0,0,0,.69-.22A1.44,1.44,0,0,0,211.76,87.52Zm-2.4-1.21h2.41a1.52,1.52,0,0,0-.28-.83,1.12,1.12,0,0,0-.91-.43,1.15,1.15,0,0,0-.85.34A1.39,1.39,0,0,0,209.36,86.32Z"/><path d="M213.42,88.94V84.54h.66v.67a1.83,1.83,0,0,1,.47-.62.8.8,0,0,1,.47-.15,1.4,1.4,0,0,1,.75.24l-.25.69a1,1,0,0,0-.54-.16.69.69,0,0,0-.43.15.8.8,0,0,0-.27.41,3,3,0,0,0-.12.87v2.31Z"/><path d="M219,88.4a2.71,2.71,0,0,1-.78.5,2.2,2.2,0,0,1-.81.15,1.55,1.55,0,0,1-1.09-.35,1.18,1.18,0,0,1-.38-.91,1.22,1.22,0,0,1,.14-.59,1.19,1.19,0,0,1,.38-.43,1.75,1.75,0,0,1,.53-.25,5.15,5.15,0,0,1,.65-.11,6.59,6.59,0,0,0,1.31-.26c0-.1,0-.17,0-.19a.84.84,0,0,0-.21-.64,1.21,1.21,0,0,0-.83-.25,1.28,1.28,0,0,0-.76.18,1.13,1.13,0,0,0-.36.65l-.72-.1a1.82,1.82,0,0,1,.32-.76,1.4,1.4,0,0,1,.65-.44,2.82,2.82,0,0,1,1-.16,2.54,2.54,0,0,1,.9.13,1,1,0,0,1,.74.84,4.28,4.28,0,0,1,0,.69v1a10.76,10.76,0,0,0,0,1.32,1.67,1.67,0,0,0,.18.53h-.76A1.6,1.6,0,0,1,219,88.4ZM219,86.73a5.28,5.28,0,0,1-1.2.28,2.69,2.69,0,0,0-.64.15.66.66,0,0,0-.17,1.1.94.94,0,0,0,.65.2,1.47,1.47,0,0,0,.75-.19,1.15,1.15,0,0,0,.48-.52A1.83,1.83,0,0,0,219,87Z"/><path d="M222.42,88.27l.11.66A2.61,2.61,0,0,1,222,89a1.24,1.24,0,0,1-.62-.13.72.72,0,0,1-.31-.34,2.72,2.72,0,0,1-.09-.88V85.12h-.54v-.58H221V83.44l.73-.45v1.54h.74v.58h-.74v2.58a1.33,1.33,0,0,0,0,.41.3.3,0,0,0,.13.15.48.48,0,0,0,.25.05Z"/><path d="M223.13,83.72v-.86h.73v.86Zm0,5.23V84.54h.73v4.41Z"/><path d="M224.69,86.74a2.3,2.3,0,0,1,.67-1.81,2,2,0,0,1,1.36-.49,1.92,1.92,0,0,1,1.46.6,2.29,2.29,0,0,1,.56,1.64,3,3,0,0,1-.25,1.34,1.79,1.79,0,0,1-.73.76,2.09,2.09,0,0,1-1,.27,1.92,1.92,0,0,1-1.47-.59A2.4,2.4,0,0,1,224.69,86.74Zm.75,0a1.9,1.9,0,0,0,.36,1.27,1.19,1.19,0,0,0,1.82,0,2,2,0,0,0,.36-1.29,1.84,1.84,0,0,0-.36-1.24,1.19,1.19,0,0,0-1.82,0A1.89,1.89,0,0,0,225.45,86.74Z"/><path d="M229.59,88.94V84.54h.66v.63a1.55,1.55,0,0,1,1.38-.73,1.77,1.77,0,0,1,.72.14,1.13,1.13,0,0,1,.49.38,1.47,1.47,0,0,1,.23.55,4.48,4.48,0,0,1,0,.73v2.71h-.73V86.26a2.07,2.07,0,0,0-.08-.68.72.72,0,0,0-.3-.36,1,1,0,0,0-.51-.13,1.17,1.17,0,0,0-.81.3,1.51,1.51,0,0,0-.34,1.15v2.41Z"/><path d="M234.42,88.94v-.85h.83v.85Z"/><circle cx="106.43" cy="75.02" r="1.76"/><circle cx="106.43" cy="52.53" r="1.76"/><circle cx="106.43" cy="98.69" r="1.76"/><path d="M113.86,102.28V96.19H116a5.06,5.06,0,0,1,1.08.09,2.07,2.07,0,0,1,.89.44,2.47,2.47,0,0,1,.72,1,4.08,4.08,0,0,1,.24,1.45,4.27,4.27,0,0,1-.16,1.23,3,3,0,0,1-.42.89,2.21,2.21,0,0,1-.55.55,2.27,2.27,0,0,1-.73.3,4.19,4.19,0,0,1-1,.1Zm.81-.72H116a3.17,3.17,0,0,0,.94-.11,1.34,1.34,0,0,0,.55-.32,1.92,1.92,0,0,0,.45-.77,3.76,3.76,0,0,0,.16-1.17,2.83,2.83,0,0,0-.31-1.47A1.58,1.58,0,0,0,117,97a3.15,3.15,0,0,0-1-.12h-1.28Z"/><path d="M119.91,97.05v-.86h.75v.86Zm0,5.23V97.87h.75v4.41Z"/><path d="M121.5,101l.74-.12a1,1,0,0,0,.35.68,1.21,1.21,0,0,0,.79.24,1.16,1.16,0,0,0,.76-.21.62.62,0,0,0,.25-.49.45.45,0,0,0-.22-.4,3.2,3.2,0,0,0-.76-.25,7,7,0,0,1-1.14-.36,1.09,1.09,0,0,1-.65-1,1.14,1.14,0,0,1,.14-.55,1.2,1.2,0,0,1,.37-.42,1.54,1.54,0,0,1,.48-.22,2.26,2.26,0,0,1,.65-.09,2.56,2.56,0,0,1,.91.15,1.24,1.24,0,0,1,.58.4A1.57,1.57,0,0,1,125,99l-.73.1a.8.8,0,0,0-.29-.53,1,1,0,0,0-.67-.19,1.22,1.22,0,0,0-.73.17.5.5,0,0,0-.22.4.42.42,0,0,0,.09.26.66.66,0,0,0,.29.2l.66.19a9.29,9.29,0,0,1,1.11.35,1.12,1.12,0,0,1,.49.39,1.09,1.09,0,0,1,.18.64,1.24,1.24,0,0,1-.22.7,1.39,1.39,0,0,1-.63.51,2.29,2.29,0,0,1-.93.18,2.07,2.07,0,0,1-1.31-.36A1.66,1.66,0,0,1,121.5,101Z"/><path d="M128.92,100.66l.73.09a1.91,1.91,0,0,1-.62,1.19,1.79,1.79,0,0,1-1.22.43,1.89,1.89,0,0,1-1.46-.59,2.4,2.4,0,0,1-.55-1.7,3.06,3.06,0,0,1,.24-1.25,1.66,1.66,0,0,1,.72-.8,2.14,2.14,0,0,1,1.05-.27,1.83,1.83,0,0,1,1.18.36,1.67,1.67,0,0,1,.58,1l-.73.11a1.2,1.2,0,0,0-.37-.67,1,1,0,0,0-.64-.22,1.16,1.16,0,0,0-.92.4,1.92,1.92,0,0,0-.35,1.28,2,2,0,0,0,.34,1.29,1.11,1.11,0,0,0,.89.4,1,1,0,0,0,.73-.27A1.34,1.34,0,0,0,128.92,100.66Z"/><path d="M130,100.07a2.27,2.27,0,0,1,.68-1.81,2.05,2.05,0,0,1,1.39-.49,2,2,0,0,1,1.49.6,2.27,2.27,0,0,1,.58,1.65,2.92,2.92,0,0,1-.26,1.34,1.81,1.81,0,0,1-.74.76,2.16,2.16,0,0,1-1.06.27,2,2,0,0,1-1.5-.59A2.37,2.37,0,0,1,130,100.07Zm.77,0a1.88,1.88,0,0,0,.37,1.27,1.23,1.23,0,0,0,1.85,0,1.92,1.92,0,0,0,.37-1.29,1.82,1.82,0,0,0-.37-1.24,1.23,1.23,0,0,0-1.85,0A1.87,1.87,0,0,0,130.78,100.07Z"/><path d="M135,102.28V97.87h.67v.63a1.58,1.58,0,0,1,1.4-.73,1.85,1.85,0,0,1,.73.14,1.15,1.15,0,0,1,.5.38,1.44,1.44,0,0,1,.23.55,4.19,4.19,0,0,1,0,.73v2.71h-.75V99.59a2,2,0,0,0-.09-.68.71.71,0,0,0-.31-.36,1,1,0,0,0-.52-.13,1.21,1.21,0,0,0-.82.3,1.49,1.49,0,0,0-.35,1.15v2.41Z"/><path d="M139.75,102.28V97.87h.67v.63a1.59,1.59,0,0,1,1.4-.73,1.85,1.85,0,0,1,.73.14,1.16,1.16,0,0,1,.5.38,1.44,1.44,0,0,1,.23.55,4.32,4.32,0,0,1,0,.73v2.71h-.75V99.59a2,2,0,0,0-.09-.68.72.72,0,0,0-.31-.36,1,1,0,0,0-.52-.13,1.21,1.21,0,0,0-.82.3,1.5,1.5,0,0,0-.35,1.15v2.41Z"/><path d="M147.49,100.86l.77.1a1.89,1.89,0,0,1-.68,1.05,2.29,2.29,0,0,1-2.79-.22,2.32,2.32,0,0,1-.57-1.67,2.43,2.43,0,0,1,.57-1.73,1.94,1.94,0,0,1,1.49-.62,1.89,1.89,0,0,1,1.44.6,2.39,2.39,0,0,1,.56,1.69s0,.11,0,.2H145a1.7,1.7,0,0,0,.41,1.11,1.22,1.22,0,0,0,.92.39,1.14,1.14,0,0,0,.7-.22A1.43,1.43,0,0,0,147.49,100.86ZM145,99.65h2.46a1.49,1.49,0,0,0-.28-.83,1.14,1.14,0,0,0-.93-.43,1.19,1.19,0,0,0-.87.34A1.37,1.37,0,0,0,145,99.65Z"/><path d="M152.08,100.66l.73.09a1.9,1.9,0,0,1-.62,1.19,1.79,1.79,0,0,1-1.22.43,1.89,1.89,0,0,1-1.46-.59,2.4,2.4,0,0,1-.55-1.7,3.09,3.09,0,0,1,.24-1.25,1.66,1.66,0,0,1,.72-.8,2.15,2.15,0,0,1,1.05-.27,1.83,1.83,0,0,1,1.17.36,1.67,1.67,0,0,1,.59,1l-.73.11a1.21,1.21,0,0,0-.37-.67,1,1,0,0,0-.64-.22,1.16,1.16,0,0,0-.92.4,1.92,1.92,0,0,0-.35,1.28,2,2,0,0,0,.34,1.29,1.1,1.1,0,0,0,.89.4,1,1,0,0,0,.74-.27A1.34,1.34,0,0,0,152.08,100.66Z"/><path d="M155.08,101.61l.11.66a2.79,2.79,0,0,1-.56.07,1.28,1.28,0,0,1-.63-.13.72.72,0,0,1-.32-.34,2.69,2.69,0,0,1-.09-.88V98.45H153v-.58h.55V96.78l.74-.45v1.54h.75v.58h-.75V101a1.28,1.28,0,0,0,0,.41.3.3,0,0,0,.13.14.49.49,0,0,0,.25.05Z"/><path d="M158,102.64l.73.11a.69.69,0,0,0,.25.49,1.24,1.24,0,0,0,.76.21,1.33,1.33,0,0,0,.8-.21,1,1,0,0,0,.38-.58,4.79,4.79,0,0,0,.05-1,1.54,1.54,0,0,1-1.22.58,1.66,1.66,0,0,1-1.41-.66,2.52,2.52,0,0,1-.5-1.57,2.94,2.94,0,0,1,.23-1.16,1.83,1.83,0,0,1,.66-.82,1.79,1.79,0,0,1,1-.29,1.58,1.58,0,0,1,1.29.63v-.53h.69v3.81a3.62,3.62,0,0,1-.21,1.46,1.54,1.54,0,0,1-.66.68,2.3,2.3,0,0,1-1.12.25,2.11,2.11,0,0,1-1.27-.36A1.2,1.2,0,0,1,158,102.64Zm.62-2.65a1.92,1.92,0,0,0,.34,1.27,1.14,1.14,0,0,0,1.73,0,1.85,1.85,0,0,0,.35-1.24,1.81,1.81,0,0,0-.36-1.22,1.11,1.11,0,0,0-.87-.41,1.08,1.08,0,0,0-.85.4A1.8,1.8,0,0,0,158.66,100Z"/><path d="M165.78,101.73a2.77,2.77,0,0,1-.8.5,2.31,2.31,0,0,1-.82.15A1.6,1.6,0,0,1,163,102a1.17,1.17,0,0,1-.39-.91,1.2,1.2,0,0,1,.15-.59,1.23,1.23,0,0,1,.38-.43,1.83,1.83,0,0,1,.54-.24,5.3,5.3,0,0,1,.66-.11,6.78,6.78,0,0,0,1.33-.26c0-.1,0-.17,0-.2a.83.83,0,0,0-.21-.64,1.25,1.25,0,0,0-.85-.25,1.32,1.32,0,0,0-.78.18,1.13,1.13,0,0,0-.37.65l-.73-.1a1.82,1.82,0,0,1,.33-.76,1.44,1.44,0,0,1,.66-.44,3,3,0,0,1,1-.16,2.66,2.66,0,0,1,.92.13,1.21,1.21,0,0,1,.52.33,1.17,1.17,0,0,1,.23.51,4.14,4.14,0,0,1,0,.69v1a10.47,10.47,0,0,0,0,1.32,1.64,1.64,0,0,0,.19.53h-.78A1.57,1.57,0,0,1,165.78,101.73Zm-.06-1.67a5.53,5.53,0,0,1-1.22.28,2.8,2.8,0,0,0-.65.15.65.65,0,0,0-.29.24.66.66,0,0,0,.12.85,1,1,0,0,0,.66.2,1.55,1.55,0,0,0,.77-.19,1.17,1.17,0,0,0,.49-.52,1.81,1.81,0,0,0,.12-.75Z"/><path d="M167.33,101l.74-.12a1,1,0,0,0,.35.68,1.21,1.21,0,0,0,.79.24,1.16,1.16,0,0,0,.76-.21.62.62,0,0,0,.25-.49.45.45,0,0,0-.22-.4,3.23,3.23,0,0,0-.76-.25,7,7,0,0,1-1.14-.36,1.09,1.09,0,0,1-.64-1,1.14,1.14,0,0,1,.13-.55,1.21,1.21,0,0,1,.37-.42,1.54,1.54,0,0,1,.47-.22,2.26,2.26,0,0,1,.65-.09,2.55,2.55,0,0,1,.91.15,1.25,1.25,0,0,1,.58.4,1.6,1.6,0,0,1,.26.68l-.73.1a.8.8,0,0,0-.29-.53,1.06,1.06,0,0,0-.68-.19,1.22,1.22,0,0,0-.73.17.49.49,0,0,0-.22.4.42.42,0,0,0,.09.26.67.67,0,0,0,.29.2l.66.19a9.28,9.28,0,0,1,1.11.35,1.12,1.12,0,0,1,.49.39,1.09,1.09,0,0,1,.18.64,1.26,1.26,0,0,1-.22.7,1.41,1.41,0,0,1-.63.51,2.29,2.29,0,0,1-.93.18,2.07,2.07,0,0,1-1.31-.36A1.66,1.66,0,0,1,167.33,101Z"/><path d="M174.24,104v-6.1h.68v.57a1.7,1.7,0,0,1,.54-.5,1.51,1.51,0,0,1,.74-.17,1.75,1.75,0,0,1,1,.29,1.78,1.78,0,0,1,.65.82,3,3,0,0,1,.22,1.16,2.94,2.94,0,0,1-.24,1.22,1.85,1.85,0,0,1-1.68,1.12,1.4,1.4,0,0,1-.67-.16,1.5,1.5,0,0,1-.49-.4V104Zm.68-3.87a1.91,1.91,0,0,0,.34,1.26,1.06,1.06,0,0,0,.83.41,1.08,1.08,0,0,0,.85-.42,2,2,0,0,0,.35-1.31,1.94,1.94,0,0,0-.35-1.26,1,1,0,0,0-.83-.42,1.07,1.07,0,0,0-.84.45A2,2,0,0,0,174.92,100.1Z"/><path d="M179,97.05v-.86h.75v.86Zm0,5.23V97.87h.75v4.41Z"/><path d="M180.86,104v-6.1h.68v.57a1.7,1.7,0,0,1,.54-.5,1.51,1.51,0,0,1,.74-.17,1.75,1.75,0,0,1,1,.29,1.78,1.78,0,0,1,.65.82,3,3,0,0,1,.22,1.16,2.94,2.94,0,0,1-.24,1.22,1.85,1.85,0,0,1-1.68,1.12,1.4,1.4,0,0,1-.67-.16,1.5,1.5,0,0,1-.49-.4V104Zm.68-3.87a1.91,1.91,0,0,0,.34,1.26,1.06,1.06,0,0,0,.83.41,1.08,1.08,0,0,0,.85-.42,2,2,0,0,0,.35-1.31,1.94,1.94,0,0,0-.35-1.26,1,1,0,0,0-.83-.42,1.07,1.07,0,0,0-.84.45A2,2,0,0,0,181.54,100.1Z"/><path d="M185.59,97.05v-.86h.75v.86Zm0,5.23V97.87h.75v4.41Z"/><path d="M187.47,102.28V97.87h.67v.63a1.58,1.58,0,0,1,1.4-.73,1.85,1.85,0,0,1,.73.14,1.15,1.15,0,0,1,.5.38,1.44,1.44,0,0,1,.23.55,4.19,4.19,0,0,1,0,.73v2.71h-.75V99.59a2,2,0,0,0-.09-.68.71.71,0,0,0-.31-.36,1,1,0,0,0-.52-.13,1.21,1.21,0,0,0-.82.3,1.49,1.49,0,0,0-.35,1.15v2.41Z"/><path d="M192.06,102.64l.73.11a.69.69,0,0,0,.25.49,1.24,1.24,0,0,0,.76.21,1.33,1.33,0,0,0,.8-.21,1,1,0,0,0,.38-.58,4.79,4.79,0,0,0,.05-1,1.54,1.54,0,0,1-1.22.58,1.66,1.66,0,0,1-1.41-.66,2.52,2.52,0,0,1-.5-1.57,2.94,2.94,0,0,1,.23-1.16,1.83,1.83,0,0,1,.66-.82,1.79,1.79,0,0,1,1-.29,1.58,1.58,0,0,1,1.29.63v-.53h.69v3.81a3.6,3.6,0,0,1-.21,1.46,1.53,1.53,0,0,1-.66.68,2.3,2.3,0,0,1-1.12.25,2.11,2.11,0,0,1-1.27-.36A1.2,1.2,0,0,1,192.06,102.64Zm.62-2.65a1.92,1.92,0,0,0,.34,1.27,1.14,1.14,0,0,0,1.73,0,1.85,1.85,0,0,0,.35-1.24,1.82,1.82,0,0,0-.36-1.22,1.11,1.11,0,0,0-.87-.41,1.08,1.08,0,0,0-.85.4A1.8,1.8,0,0,0,192.68,100Z"/><path d="M202.17,101.73a2.77,2.77,0,0,1-.8.5,2.31,2.31,0,0,1-.82.15,1.6,1.6,0,0,1-1.12-.36,1.17,1.17,0,0,1-.39-.91,1.2,1.2,0,0,1,.15-.59,1.23,1.23,0,0,1,.39-.43,1.81,1.81,0,0,1,.54-.24,5.33,5.33,0,0,1,.66-.11,6.77,6.77,0,0,0,1.33-.26c0-.1,0-.17,0-.2a.83.83,0,0,0-.21-.64,1.25,1.25,0,0,0-.85-.25,1.32,1.32,0,0,0-.78.18,1.12,1.12,0,0,0-.37.65l-.73-.1a1.82,1.82,0,0,1,.33-.76,1.44,1.44,0,0,1,.66-.44,3,3,0,0,1,1-.16,2.65,2.65,0,0,1,.92.13,1.22,1.22,0,0,1,.52.33,1.18,1.18,0,0,1,.23.51,4.17,4.17,0,0,1,0,.69v1a10.47,10.47,0,0,0,0,1.32,1.69,1.69,0,0,0,.19.53h-.78A1.57,1.57,0,0,1,202.17,101.73Zm-.06-1.67a5.53,5.53,0,0,1-1.22.28,2.77,2.77,0,0,0-.65.15.65.65,0,0,0-.29.24.66.66,0,0,0,.12.85,1,1,0,0,0,.66.2,1.55,1.55,0,0,0,.77-.19,1.17,1.17,0,0,0,.49-.52,1.81,1.81,0,0,0,.12-.75Z"/><path d="M205.65,101.61l.11.66a2.79,2.79,0,0,1-.56.07,1.28,1.28,0,0,1-.63-.13.73.73,0,0,1-.31-.34,2.66,2.66,0,0,1-.09-.88V98.45h-.55v-.58h.55V96.78l.74-.45v1.54h.75v.58h-.75V101a1.31,1.31,0,0,0,0,.41.31.31,0,0,0,.13.14.49.49,0,0,0,.25.05Z"/><path d="M208.74,102.28V97.87h.67v.62a1.55,1.55,0,0,1,1.34-.72,1.45,1.45,0,0,1,.8.2,1.09,1.09,0,0,1,.44.57,1.58,1.58,0,0,1,1.36-.77,1.34,1.34,0,0,1,1,.36,1.55,1.55,0,0,1,.35,1.12v3H214V99.5a2.06,2.06,0,0,0-.07-.65.63.63,0,0,0-.26-.32.82.82,0,0,0-.45-.12,1,1,0,0,0-.77.31,1.36,1.36,0,0,0-.31,1v2.56h-.75V99.41a1.27,1.27,0,0,0-.18-.75.69.69,0,0,0-.6-.25,1.08,1.08,0,0,0-.58.17.94.94,0,0,0-.39.49,2.74,2.74,0,0,0-.12.92v2.29Z"/><path d="M218.7,101.73a2.78,2.78,0,0,1-.8.5,2.32,2.32,0,0,1-.82.15A1.6,1.6,0,0,1,216,102a1.17,1.17,0,0,1-.39-.91,1.21,1.21,0,0,1,.15-.59,1.23,1.23,0,0,1,.39-.43,1.8,1.8,0,0,1,.54-.24,5.3,5.3,0,0,1,.66-.11,6.78,6.78,0,0,0,1.33-.26c0-.1,0-.17,0-.2a.83.83,0,0,0-.21-.64,1.25,1.25,0,0,0-.85-.25,1.32,1.32,0,0,0-.78.18,1.13,1.13,0,0,0-.37.65l-.73-.1a1.82,1.82,0,0,1,.33-.76,1.44,1.44,0,0,1,.66-.44,3,3,0,0,1,1-.16,2.66,2.66,0,0,1,.92.13,1.22,1.22,0,0,1,.52.33,1.19,1.19,0,0,1,.23.51,4.29,4.29,0,0,1,0,.69v1a10.75,10.75,0,0,0,0,1.32,1.69,1.69,0,0,0,.19.53h-.78A1.57,1.57,0,0,1,218.7,101.73Zm-.06-1.67a5.54,5.54,0,0,1-1.22.28,2.77,2.77,0,0,0-.65.15.64.64,0,0,0-.29.24.66.66,0,0,0,.12.85,1,1,0,0,0,.66.2,1.55,1.55,0,0,0,.77-.19,1.16,1.16,0,0,0,.49-.52,1.81,1.81,0,0,0,.12-.75Z"/><path d="M220.55,97.05v-.86h.75v.86Zm0,5.23V97.87h.75v4.41Z"/><path d="M222.44,102.28V97.87h.67v.63a1.58,1.58,0,0,1,1.4-.73,1.85,1.85,0,0,1,.73.14,1.15,1.15,0,0,1,.5.38,1.44,1.44,0,0,1,.23.55,4.19,4.19,0,0,1,0,.73v2.71h-.75V99.59a2,2,0,0,0-.09-.68.71.71,0,0,0-.31-.36,1,1,0,0,0-.52-.13,1.21,1.21,0,0,0-.82.3,1.49,1.49,0,0,0-.35,1.15v2.41Z"/><path d="M113.63,112.84l.73.11a.69.69,0,0,0,.25.49,1.25,1.25,0,0,0,.76.21,1.34,1.34,0,0,0,.8-.21,1,1,0,0,0,.38-.58,4.81,4.81,0,0,0,.05-1,1.54,1.54,0,0,1-1.22.58,1.67,1.67,0,0,1-1.41-.66,2.53,2.53,0,0,1-.5-1.57,2.94,2.94,0,0,1,.23-1.17,1.83,1.83,0,0,1,.66-.82,1.78,1.78,0,0,1,1-.29,1.58,1.58,0,0,1,1.29.63v-.53h.69v3.81a3.61,3.61,0,0,1-.21,1.46,1.54,1.54,0,0,1-.66.68,2.3,2.3,0,0,1-1.12.25,2.11,2.11,0,0,1-1.27-.35A1.2,1.2,0,0,1,113.63,112.84Zm.62-2.65a1.91,1.91,0,0,0,.34,1.27,1.09,1.09,0,0,0,.86.4,1.11,1.11,0,0,0,.86-.4,1.85,1.85,0,0,0,.35-1.24,1.8,1.8,0,0,0-.36-1.22,1.11,1.11,0,0,0-.87-.41,1.08,1.08,0,0,0-.85.4A1.8,1.8,0,0,0,114.25,110.19Z"/><path d="M121.37,111.93a2.78,2.78,0,0,1-.8.5,2.29,2.29,0,0,1-.82.15,1.6,1.6,0,0,1-1.12-.35,1.17,1.17,0,0,1-.39-.91,1.23,1.23,0,0,1,.53-1,1.81,1.81,0,0,1,.54-.25,5.3,5.3,0,0,1,.66-.11,6.84,6.84,0,0,0,1.33-.26c0-.1,0-.17,0-.19a.83.83,0,0,0-.21-.64,1.25,1.25,0,0,0-.85-.25,1.32,1.32,0,0,0-.78.18,1.13,1.13,0,0,0-.37.65l-.73-.1a1.8,1.8,0,0,1,.33-.76,1.43,1.43,0,0,1,.66-.44,2.92,2.92,0,0,1,1-.16,2.64,2.64,0,0,1,.92.13,1.2,1.2,0,0,1,.52.33,1.17,1.17,0,0,1,.23.51,4.2,4.2,0,0,1,0,.69v1a10.62,10.62,0,0,0,0,1.32,1.65,1.65,0,0,0,.19.53h-.78A1.58,1.58,0,0,1,121.37,111.93Zm-.06-1.67a5.48,5.48,0,0,1-1.22.28,2.79,2.79,0,0,0-.65.15.65.65,0,0,0-.29.24.66.66,0,0,0,.12.85,1,1,0,0,0,.66.2,1.53,1.53,0,0,0,.77-.19,1.15,1.15,0,0,0,.49-.52,1.81,1.81,0,0,0,.12-.75Z"/><path d="M122.92,111.16l.74-.12a1,1,0,0,0,.35.68,1.21,1.21,0,0,0,.79.24,1.17,1.17,0,0,0,.76-.21.63.63,0,0,0,.25-.49.45.45,0,0,0-.22-.4,3.28,3.28,0,0,0-.76-.25,7,7,0,0,1-1.14-.36,1.09,1.09,0,0,1-.65-1,1.14,1.14,0,0,1,.14-.55,1.21,1.21,0,0,1,.37-.42,1.53,1.53,0,0,1,.48-.22,2.25,2.25,0,0,1,.64-.09,2.56,2.56,0,0,1,.91.15,1.24,1.24,0,0,1,.58.41,1.57,1.57,0,0,1,.26.68l-.73.1a.8.8,0,0,0-.29-.53,1.05,1.05,0,0,0-.67-.19,1.21,1.21,0,0,0-.73.17.5.5,0,0,0-.22.4.41.41,0,0,0,.09.26.66.66,0,0,0,.29.2l.66.19a9.1,9.1,0,0,1,1.11.35,1.12,1.12,0,0,1,.49.39,1.1,1.1,0,0,1,.18.64,1.25,1.25,0,0,1-.22.7,1.4,1.4,0,0,1-.63.51,2.27,2.27,0,0,1-.93.18,2.07,2.07,0,0,1-1.31-.36A1.66,1.66,0,0,1,122.92,111.16Z"/><path d="M129.54,111.16l.74-.12a1,1,0,0,0,.35.68,1.21,1.21,0,0,0,.79.24,1.17,1.17,0,0,0,.76-.21.63.63,0,0,0,.25-.49.45.45,0,0,0-.22-.4,3.3,3.3,0,0,0-.76-.25,7,7,0,0,1-1.14-.36,1.09,1.09,0,0,1-.65-1,1.14,1.14,0,0,1,.14-.55,1.21,1.21,0,0,1,.37-.42,1.52,1.52,0,0,1,.47-.22,2.26,2.26,0,0,1,.65-.09,2.55,2.55,0,0,1,.91.15,1.24,1.24,0,0,1,.58.41,1.58,1.58,0,0,1,.26.68l-.73.1a.8.8,0,0,0-.29-.53,1.06,1.06,0,0,0-.67-.19,1.21,1.21,0,0,0-.73.17.5.5,0,0,0-.22.4.41.41,0,0,0,.09.26.66.66,0,0,0,.29.2l.66.19a9.13,9.13,0,0,1,1.11.35,1.13,1.13,0,0,1,.49.39,1.09,1.09,0,0,1,.18.64,1.26,1.26,0,0,1-.22.7,1.41,1.41,0,0,1-.63.51,2.27,2.27,0,0,1-.93.18,2.08,2.08,0,0,1-1.31-.36A1.66,1.66,0,0,1,129.54,111.16Z"/><path d="M134.08,112.48v-6.08h.75v2.18a1.67,1.67,0,0,1,1.32-.61,1.79,1.79,0,0,1,.85.19,1.13,1.13,0,0,1,.52.53,2.45,2.45,0,0,1,.16,1v2.79h-.75v-2.79a1.15,1.15,0,0,0-.24-.82.9.9,0,0,0-.69-.26,1.21,1.21,0,0,0-.62.17,1,1,0,0,0-.42.47,2.15,2.15,0,0,0-.12.81v2.41Z"/><path d="M141.7,112.48v-.65a1.61,1.61,0,0,1-1.4.75,1.78,1.78,0,0,1-.73-.15,1.2,1.2,0,0,1-.5-.37,1.42,1.42,0,0,1-.23-.55,3.82,3.82,0,0,1,0-.7v-2.73h.75v2.44a4.36,4.36,0,0,0,0,.79.77.77,0,0,0,.3.46.93.93,0,0,0,.56.17,1.23,1.23,0,0,0,.63-.17,1,1,0,0,0,.42-.47,2.35,2.35,0,0,0,.12-.86v-2.36h.75v4.41Z"/><path d="M145.17,111.81l.11.66a2.73,2.73,0,0,1-.56.07,1.28,1.28,0,0,1-.63-.13.72.72,0,0,1-.32-.34,2.68,2.68,0,0,1-.09-.88v-2.54h-.55v-.58h.55V107l.74-.45v1.54h.75v.58h-.75v2.58a1.3,1.3,0,0,0,0,.41.31.31,0,0,0,.13.15.5.5,0,0,0,.25.05Z"/><path d="M145.62,110.27a2.27,2.27,0,0,1,.68-1.81,2,2,0,0,1,1.39-.49,2,2,0,0,1,1.49.6,2.26,2.26,0,0,1,.58,1.64,2.92,2.92,0,0,1-.26,1.34,1.81,1.81,0,0,1-.74.76,2.16,2.16,0,0,1-1.06.27,2,2,0,0,1-1.5-.59A2.37,2.37,0,0,1,145.62,110.27Zm.77,0a1.88,1.88,0,0,0,.37,1.27,1.23,1.23,0,0,0,1.85,0,1.91,1.91,0,0,0,.37-1.29,1.82,1.82,0,0,0-.37-1.24,1.23,1.23,0,0,0-1.85,0A1.87,1.87,0,0,0,146.39,110.27Z"/><path d="M150.8,112.48v-3.83h-.66v-.58h.66v-.47a2.07,2.07,0,0,1,.08-.66,1,1,0,0,1,.38-.47,1.37,1.37,0,0,1,.76-.18,3.65,3.65,0,0,1,.7.08l-.11.65a2.54,2.54,0,0,0-.44,0,.65.65,0,0,0-.48.14.79.79,0,0,0-.14.54v.41h.86v.58h-.86v3.83Z"/><path d="M153,112.48v-3.83h-.66v-.58H153v-.47a2,2,0,0,1,.08-.66,1,1,0,0,1,.38-.47,1.37,1.37,0,0,1,.76-.18,3.67,3.67,0,0,1,.7.08l-.11.65a2.52,2.52,0,0,0-.44,0,.66.66,0,0,0-.48.14.79.79,0,0,0-.14.54v.41h.86v.58h-.86v3.83Z"/><path d="M158.78,112.48l-1.68-4.41h.79l.95,2.64c.1.29.2.58.28.89q.1-.35.28-.84l1-2.69h.77l-1.67,4.41Z"/><path d="M164.68,111.93a2.77,2.77,0,0,1-.8.5,2.29,2.29,0,0,1-.82.15,1.6,1.6,0,0,1-1.12-.35,1.17,1.17,0,0,1-.39-.91,1.24,1.24,0,0,1,.53-1,1.83,1.83,0,0,1,.54-.25,5.3,5.3,0,0,1,.66-.11,6.84,6.84,0,0,0,1.33-.26c0-.1,0-.17,0-.19a.83.83,0,0,0-.21-.64,1.25,1.25,0,0,0-.85-.25,1.32,1.32,0,0,0-.78.18,1.13,1.13,0,0,0-.37.65l-.73-.1a1.8,1.8,0,0,1,.33-.76,1.43,1.43,0,0,1,.66-.44,2.92,2.92,0,0,1,1-.16,2.64,2.64,0,0,1,.92.13,1.19,1.19,0,0,1,.52.33,1.16,1.16,0,0,1,.23.51,4.13,4.13,0,0,1,0,.69v1a10.48,10.48,0,0,0,0,1.32,1.63,1.63,0,0,0,.19.53h-.78A1.58,1.58,0,0,1,164.68,111.93Zm-.06-1.67a5.47,5.47,0,0,1-1.22.28,2.8,2.8,0,0,0-.65.15.65.65,0,0,0-.29.24.66.66,0,0,0,.12.85,1,1,0,0,0,.66.2,1.53,1.53,0,0,0,.77-.19,1.16,1.16,0,0,0,.49-.52,1.81,1.81,0,0,0,.12-.75Z"/><path d="M166.52,112.48v-6.08h.75v6.08Z"/><path d="M169.65,112.48,168,108.07h.79l.95,2.64c.1.29.2.58.28.89q.1-.35.28-.84l1-2.69H172l-1.67,4.41Z"/><path d="M175.69,111.06l.77.09a1.88,1.88,0,0,1-.68,1A2.29,2.29,0,0,1,173,112a2.33,2.33,0,0,1-.57-1.67,2.44,2.44,0,0,1,.57-1.73,1.94,1.94,0,0,1,1.49-.61,1.89,1.89,0,0,1,1.44.6,2.39,2.39,0,0,1,.56,1.69s0,.11,0,.2H173.2a1.7,1.7,0,0,0,.41,1.11,1.22,1.22,0,0,0,.92.39,1.14,1.14,0,0,0,.7-.22A1.44,1.44,0,0,0,175.69,111.06Zm-2.45-1.21h2.46a1.49,1.49,0,0,0-.28-.83,1.15,1.15,0,0,0-.93-.43,1.19,1.19,0,0,0-.87.34A1.36,1.36,0,0,0,173.24,109.85Z"/><path d="M180.45,112.48h-.69v-6.08h.75v2.17a1.48,1.48,0,0,1,1.21-.59,1.85,1.85,0,0,1,.77.16,1.57,1.57,0,0,1,.6.46,2.24,2.24,0,0,1,.37.72,2.94,2.94,0,0,1,.13.9A2.52,2.52,0,0,1,183,112a1.75,1.75,0,0,1-1.34.62,1.41,1.41,0,0,1-1.22-.65Zm0-2.24a2.29,2.29,0,0,0,.22,1.15,1.07,1.07,0,0,0,1.8.15,1.93,1.93,0,0,0,.36-1.27,2,2,0,0,0-.34-1.27,1,1,0,0,0-.83-.41,1.08,1.08,0,0,0-.85.43A1.87,1.87,0,0,0,180.44,110.24Z"/><path d="M187.51,111.06l.77.09a1.88,1.88,0,0,1-.68,1,2.29,2.29,0,0,1-2.79-.22,2.33,2.33,0,0,1-.57-1.67,2.44,2.44,0,0,1,.57-1.73,1.94,1.94,0,0,1,1.49-.61,1.89,1.89,0,0,1,1.44.6,2.39,2.39,0,0,1,.56,1.69s0,.11,0,.2H185a1.7,1.7,0,0,0,.41,1.11,1.22,1.22,0,0,0,.92.39,1.14,1.14,0,0,0,.7-.22A1.44,1.44,0,0,0,187.51,111.06Zm-2.45-1.21h2.46a1.49,1.49,0,0,0-.28-.83,1.15,1.15,0,0,0-.93-.43,1.19,1.19,0,0,0-.87.34A1.36,1.36,0,0,0,185.05,109.85Z"/><path d="M189.4,112.48v-3.83h-.66v-.58h.66v-.47a2,2,0,0,1,.08-.66,1,1,0,0,1,.38-.47,1.37,1.37,0,0,1,.76-.18,3.67,3.67,0,0,1,.7.08l-.11.65a2.52,2.52,0,0,0-.44,0,.66.66,0,0,0-.48.14.79.79,0,0,0-.14.54v.41H191v.58h-.86v3.83Z"/><path d="M191.3,110.27a2.27,2.27,0,0,1,.68-1.81,2,2,0,0,1,1.39-.49,2,2,0,0,1,1.49.6,2.26,2.26,0,0,1,.58,1.64,2.92,2.92,0,0,1-.25,1.34,1.81,1.81,0,0,1-.74.76,2.16,2.16,0,0,1-1.06.27,2,2,0,0,1-1.5-.59A2.37,2.37,0,0,1,191.3,110.27Zm.77,0a1.88,1.88,0,0,0,.37,1.27,1.23,1.23,0,0,0,1.86,0,1.92,1.92,0,0,0,.37-1.29,1.82,1.82,0,0,0-.37-1.24,1.23,1.23,0,0,0-1.85,0A1.87,1.87,0,0,0,192.07,110.27Z"/><path d="M196.3,112.48v-4.41H197v.67a1.84,1.84,0,0,1,.47-.62.83.83,0,0,1,.48-.15,1.46,1.46,0,0,1,.77.24l-.26.69a1.06,1.06,0,0,0-.55-.16.71.71,0,0,0-.44.15.8.8,0,0,0-.28.41,2.91,2.91,0,0,0-.12.87v2.31Z"/><path d="M202.15,111.06l.77.09a1.88,1.88,0,0,1-.68,1,2.29,2.29,0,0,1-2.79-.22,2.33,2.33,0,0,1-.57-1.67,2.44,2.44,0,0,1,.57-1.73,1.94,1.94,0,0,1,1.49-.61,1.89,1.89,0,0,1,1.44.6,2.39,2.39,0,0,1,.56,1.69s0,.11,0,.2h-3.29a1.7,1.7,0,0,0,.41,1.11,1.22,1.22,0,0,0,.92.39,1.14,1.14,0,0,0,.7-.22A1.44,1.44,0,0,0,202.15,111.06Zm-2.45-1.21h2.46a1.49,1.49,0,0,0-.28-.83,1.15,1.15,0,0,0-.93-.43,1.19,1.19,0,0,0-.87.34A1.36,1.36,0,0,0,199.7,109.85Z"/><path d="M206.21,112.48v-6.08H207v6.08Z"/><path d="M211.13,111.06l.77.09a1.88,1.88,0,0,1-.68,1,2.29,2.29,0,0,1-2.79-.22,2.33,2.33,0,0,1-.57-1.67,2.44,2.44,0,0,1,.57-1.73,1.94,1.94,0,0,1,1.49-.61,1.89,1.89,0,0,1,1.44.6,2.39,2.39,0,0,1,.56,1.69s0,.11,0,.2h-3.29a1.69,1.69,0,0,0,.41,1.11,1.22,1.22,0,0,0,.92.39,1.15,1.15,0,0,0,.7-.22A1.43,1.43,0,0,0,211.13,111.06Zm-2.45-1.21h2.46a1.5,1.5,0,0,0-.28-.83,1.15,1.15,0,0,0-.93-.43,1.19,1.19,0,0,0-.87.34A1.36,1.36,0,0,0,208.68,109.85Z"/><path d="M215.72,111.93a2.77,2.77,0,0,1-.8.5,2.29,2.29,0,0,1-.82.15,1.6,1.6,0,0,1-1.12-.35,1.17,1.17,0,0,1-.39-.91,1.24,1.24,0,0,1,.53-1,1.83,1.83,0,0,1,.54-.25,5.3,5.3,0,0,1,.66-.11,6.84,6.84,0,0,0,1.33-.26c0-.1,0-.17,0-.19a.83.83,0,0,0-.21-.64,1.25,1.25,0,0,0-.85-.25,1.32,1.32,0,0,0-.78.18,1.13,1.13,0,0,0-.37.65l-.73-.1a1.8,1.8,0,0,1,.33-.76,1.43,1.43,0,0,1,.66-.44,2.92,2.92,0,0,1,1-.16,2.64,2.64,0,0,1,.92.13,1.19,1.19,0,0,1,.52.33,1.16,1.16,0,0,1,.23.51,4.13,4.13,0,0,1,0,.69v1a10.48,10.48,0,0,0,0,1.32,1.63,1.63,0,0,0,.19.53h-.78A1.58,1.58,0,0,1,215.72,111.93Zm-.06-1.67a5.47,5.47,0,0,1-1.22.28,2.8,2.8,0,0,0-.65.15.65.65,0,0,0-.29.24.66.66,0,0,0,.12.85,1,1,0,0,0,.66.2,1.53,1.53,0,0,0,.77-.19,1.16,1.16,0,0,0,.49-.52,1.81,1.81,0,0,0,.12-.75Z"/><path d="M217.57,112.48v-6.08h.75v3.47l1.77-1.79h1l-1.69,1.63,1.86,2.77h-.92l-1.46-2.25-.53.51v1.75Z"/><path d="M115.4,122l.11.66a2.8,2.8,0,0,1-.56.07,1.29,1.29,0,0,1-.63-.13.72.72,0,0,1-.32-.34,2.67,2.67,0,0,1-.09-.88v-2.54h-.55v-.58h.55v-1.09l.74-.45v1.54h.75v.58h-.75v2.58a1.31,1.31,0,0,0,0,.41.31.31,0,0,0,.13.15.51.51,0,0,0,.25.05Z"/><path d="M119.15,121.26l.77.1a1.88,1.88,0,0,1-.68,1,2.29,2.29,0,0,1-2.79-.22,2.33,2.33,0,0,1-.57-1.67,2.44,2.44,0,0,1,.57-1.73,1.94,1.94,0,0,1,1.49-.61,1.89,1.89,0,0,1,1.44.6,2.39,2.39,0,0,1,.56,1.69s0,.11,0,.2h-3.29a1.7,1.7,0,0,0,.41,1.11,1.23,1.23,0,0,0,.92.38,1.15,1.15,0,0,0,.7-.21A1.44,1.44,0,0,0,119.15,121.26ZM116.69,120h2.46a1.5,1.5,0,0,0-.28-.83,1.14,1.14,0,0,0-.93-.43,1.18,1.18,0,0,0-.87.34A1.36,1.36,0,0,0,116.69,120Z"/><path d="M120.56,121.36l.74-.12a1,1,0,0,0,.35.68,1.21,1.21,0,0,0,.79.24,1.17,1.17,0,0,0,.76-.21.63.63,0,0,0,.25-.49.46.46,0,0,0-.22-.4,3.26,3.26,0,0,0-.76-.25,7,7,0,0,1-1.14-.36,1.09,1.09,0,0,1-.65-1,1.14,1.14,0,0,1,.14-.54,1.21,1.21,0,0,1,.37-.42,1.51,1.51,0,0,1,.48-.22,2.23,2.23,0,0,1,.65-.09,2.55,2.55,0,0,1,.91.15,1.24,1.24,0,0,1,.58.41,1.58,1.58,0,0,1,.26.68l-.73.1A.8.8,0,0,0,123,119a1.06,1.06,0,0,0-.67-.19,1.21,1.21,0,0,0-.73.17.5.5,0,0,0-.22.4.41.41,0,0,0,.09.26.66.66,0,0,0,.29.2l.66.19a9.24,9.24,0,0,1,1.11.35,1.12,1.12,0,0,1,.49.39,1.09,1.09,0,0,1,.18.64,1.26,1.26,0,0,1-.22.7,1.39,1.39,0,0,1-.63.51,2.27,2.27,0,0,1-.93.18,2.07,2.07,0,0,1-1.31-.36A1.66,1.66,0,0,1,120.56,121.36Z"/><path d="M126.74,122l.11.66a2.8,2.8,0,0,1-.56.07,1.28,1.28,0,0,1-.63-.13.72.72,0,0,1-.32-.34,2.69,2.69,0,0,1-.09-.88v-2.54h-.55v-.58h.55v-1.09l.74-.45v1.54h.75v.58H126v2.58a1.31,1.31,0,0,0,0,.41.31.31,0,0,0,.13.15.51.51,0,0,0,.25.05Z"/><path d="M127.47,117.45v-.86h.75v.86Zm0,5.23v-4.41h.75v4.41Z"/><path d="M129.36,122.68v-4.41H130v.63a1.59,1.59,0,0,1,1.4-.73,1.85,1.85,0,0,1,.73.14,1.15,1.15,0,0,1,.5.38,1.43,1.43,0,0,1,.23.55,4.34,4.34,0,0,1,0,.73v2.71h-.75V120a2,2,0,0,0-.09-.68.72.72,0,0,0-.31-.36,1,1,0,0,0-.52-.13,1.21,1.21,0,0,0-.82.3,1.49,1.49,0,0,0-.35,1.15v2.41Z"/><path d="M133.95,123l.73.11a.7.7,0,0,0,.25.49,1.25,1.25,0,0,0,.76.21,1.34,1.34,0,0,0,.8-.21,1,1,0,0,0,.38-.58,4.81,4.81,0,0,0,.05-1,1.54,1.54,0,0,1-1.22.58,1.66,1.66,0,0,1-1.41-.66,2.52,2.52,0,0,1-.5-1.57,2.92,2.92,0,0,1,.23-1.17,1.83,1.83,0,0,1,.66-.82,1.78,1.78,0,0,1,1-.29,1.58,1.58,0,0,1,1.29.63v-.53h.69v3.81a3.62,3.62,0,0,1-.21,1.46,1.54,1.54,0,0,1-.66.68,2.3,2.3,0,0,1-1.12.25,2.11,2.11,0,0,1-1.27-.36A1.2,1.2,0,0,1,133.95,123Zm.62-2.65a1.91,1.91,0,0,0,.34,1.27,1.14,1.14,0,0,0,1.73,0,1.85,1.85,0,0,0,.35-1.24,1.81,1.81,0,0,0-.36-1.22,1.11,1.11,0,0,0-.87-.41,1.08,1.08,0,0,0-.85.4A1.8,1.8,0,0,0,134.57,120.39Z"/><path d="M141.17,122.68v-6.08h.75v2.18a1.67,1.67,0,0,1,1.32-.61,1.77,1.77,0,0,1,.85.19,1.13,1.13,0,0,1,.52.53,2.47,2.47,0,0,1,.16,1v2.79H144v-2.79a1.16,1.16,0,0,0-.24-.82.91.91,0,0,0-.69-.26,1.22,1.22,0,0,0-.62.17,1,1,0,0,0-.42.47,2.14,2.14,0,0,0-.12.81v2.41Z"/><path d="M148.92,121.26l.77.1a1.88,1.88,0,0,1-.68,1,2.29,2.29,0,0,1-2.79-.22,2.33,2.33,0,0,1-.57-1.67,2.44,2.44,0,0,1,.57-1.73,1.94,1.94,0,0,1,1.49-.61,1.89,1.89,0,0,1,1.45.6,2.39,2.39,0,0,1,.56,1.69s0,.11,0,.2h-3.29a1.7,1.7,0,0,0,.41,1.11,1.23,1.23,0,0,0,.92.38,1.15,1.15,0,0,0,.7-.21A1.44,1.44,0,0,0,148.92,121.26ZM146.46,120h2.46a1.49,1.49,0,0,0-.28-.83,1.14,1.14,0,0,0-.93-.43,1.19,1.19,0,0,0-.87.34A1.36,1.36,0,0,0,146.46,120Z"/><path d="M153.5,122.13a2.73,2.73,0,0,1-.8.5,2.29,2.29,0,0,1-.82.15,1.6,1.6,0,0,1-1.12-.36,1.17,1.17,0,0,1-.39-.91,1.2,1.2,0,0,1,.15-.59,1.21,1.21,0,0,1,.38-.43,1.83,1.83,0,0,1,.54-.24,5.45,5.45,0,0,1,.66-.11,6.78,6.78,0,0,0,1.33-.26c0-.1,0-.17,0-.19a.83.83,0,0,0-.21-.64,1.26,1.26,0,0,0-.85-.25,1.33,1.33,0,0,0-.78.18,1.13,1.13,0,0,0-.37.65l-.73-.1a1.81,1.81,0,0,1,.33-.76,1.43,1.43,0,0,1,.66-.44,2.92,2.92,0,0,1,1-.16,2.66,2.66,0,0,1,.92.13,1.19,1.19,0,0,1,.52.33,1.17,1.17,0,0,1,.23.51,4.14,4.14,0,0,1,0,.69v1a10.49,10.49,0,0,0,0,1.32,1.65,1.65,0,0,0,.19.53h-.78A1.58,1.58,0,0,1,153.5,122.13Zm-.06-1.67a5.46,5.46,0,0,1-1.22.28,2.81,2.81,0,0,0-.65.15.65.65,0,0,0-.29.24.66.66,0,0,0,.12.85,1,1,0,0,0,.66.2,1.54,1.54,0,0,0,.77-.19,1.16,1.16,0,0,0,.49-.52,1.81,1.81,0,0,0,.12-.75Z"/><path d="M157,122l.11.66a2.8,2.8,0,0,1-.56.07,1.28,1.28,0,0,1-.63-.13.72.72,0,0,1-.32-.34,2.69,2.69,0,0,1-.09-.88v-2.54h-.55v-.58h.55v-1.09l.74-.45v1.54H157v.58h-.75v2.58a1.31,1.31,0,0,0,0,.41.31.31,0,0,0,.13.15.51.51,0,0,0,.25.05Z"/><path d="M160.73,121.26l.77.1a1.88,1.88,0,0,1-.68,1,2.29,2.29,0,0,1-2.79-.22,2.33,2.33,0,0,1-.57-1.67,2.44,2.44,0,0,1,.57-1.73,1.94,1.94,0,0,1,1.49-.61,1.89,1.89,0,0,1,1.44.6,2.39,2.39,0,0,1,.56,1.69s0,.11,0,.2h-3.29a1.7,1.7,0,0,0,.41,1.11,1.23,1.23,0,0,0,.92.38,1.15,1.15,0,0,0,.7-.21A1.44,1.44,0,0,0,160.73,121.26ZM158.28,120h2.46a1.5,1.5,0,0,0-.28-.83,1.15,1.15,0,0,0-.93-.43,1.18,1.18,0,0,0-.87.34A1.36,1.36,0,0,0,158.28,120Z"/><path d="M162.43,122.68v-4.41h.67v.67a1.84,1.84,0,0,1,.47-.62.83.83,0,0,1,.48-.15,1.46,1.46,0,0,1,.77.24l-.26.69a1.07,1.07,0,0,0-.55-.16.71.71,0,0,0-.44.15.8.8,0,0,0-.28.41,2.91,2.91,0,0,0-.12.87v2.31Z"/><path d="M165,122.68v-.85h.85v.85Z"/><circle cx="106.43" cy="132.69" r="1.76"/><path d="M114,136.28v-6.08h.8v6.08Z"/><path d="M116.13,136.28v-4.41h.67v.63a1.59,1.59,0,0,1,1.4-.73,1.84,1.84,0,0,1,.73.14,1.16,1.16,0,0,1,.5.38,1.45,1.45,0,0,1,.23.55,4.25,4.25,0,0,1,0,.73v2.71H119V133.6a2,2,0,0,0-.09-.68.72.72,0,0,0-.31-.36,1,1,0,0,0-.52-.13,1.21,1.21,0,0,0-.82.3,1.5,1.5,0,0,0-.35,1.15v2.41Z"/><path d="M120.56,135l.74-.12a1,1,0,0,0,.35.68,1.22,1.22,0,0,0,.79.24,1.17,1.17,0,0,0,.76-.21.63.63,0,0,0,.25-.49.45.45,0,0,0-.22-.4,3.25,3.25,0,0,0-.76-.25,7,7,0,0,1-1.14-.36,1.09,1.09,0,0,1-.65-1,1.14,1.14,0,0,1,.14-.55,1.21,1.21,0,0,1,.37-.42,1.56,1.56,0,0,1,.48-.22,2.29,2.29,0,0,1,.65-.09,2.55,2.55,0,0,1,.91.15,1.25,1.25,0,0,1,.58.4,1.59,1.59,0,0,1,.26.68l-.73.1a.8.8,0,0,0-.29-.53,1.05,1.05,0,0,0-.67-.19,1.22,1.22,0,0,0-.73.17.5.5,0,0,0-.22.4.41.41,0,0,0,.09.26.66.66,0,0,0,.29.2l.66.19a9.15,9.15,0,0,1,1.11.35,1.12,1.12,0,0,1,.49.39,1.09,1.09,0,0,1,.18.64,1.25,1.25,0,0,1-.22.7,1.41,1.41,0,0,1-.63.51,2.29,2.29,0,0,1-.93.18,2.08,2.08,0,0,1-1.31-.36A1.66,1.66,0,0,1,120.56,135Z"/><path d="M126.74,135.61l.11.66a2.73,2.73,0,0,1-.56.07,1.27,1.27,0,0,1-.63-.13.72.72,0,0,1-.32-.34,2.69,2.69,0,0,1-.09-.88v-2.54h-.55v-.58h.55v-1.09l.74-.45v1.54h.75v.58H126V135a1.3,1.3,0,0,0,0,.41.31.31,0,0,0,.13.14.48.48,0,0,0,.25.05Z"/><path d="M130.34,135.73a2.83,2.83,0,0,1-.8.5,2.31,2.31,0,0,1-.82.14,1.6,1.6,0,0,1-1.12-.35,1.17,1.17,0,0,1-.39-.91,1.22,1.22,0,0,1,.53-1,1.8,1.8,0,0,1,.54-.25,5.16,5.16,0,0,1,.66-.11,6.84,6.84,0,0,0,1.33-.26c0-.1,0-.17,0-.2a.82.82,0,0,0-.21-.64,1.25,1.25,0,0,0-.85-.25,1.32,1.32,0,0,0-.78.19,1.13,1.13,0,0,0-.37.65l-.73-.1a1.81,1.81,0,0,1,.33-.76,1.43,1.43,0,0,1,.66-.44,3,3,0,0,1,1-.16,2.64,2.64,0,0,1,.92.13,1.22,1.22,0,0,1,.52.33,1.18,1.18,0,0,1,.23.51,4.28,4.28,0,0,1,0,.69v1a10.74,10.74,0,0,0,0,1.32,1.67,1.67,0,0,0,.19.53h-.78A1.57,1.57,0,0,1,130.34,135.73Zm-.06-1.67a5.55,5.55,0,0,1-1.22.28,2.76,2.76,0,0,0-.65.15.65.65,0,0,0-.17,1.1,1,1,0,0,0,.66.2,1.54,1.54,0,0,0,.77-.19,1.16,1.16,0,0,0,.49-.52,1.8,1.8,0,0,0,.12-.75Z"/><path d="M132.18,136.28v-6.08h.75v6.08Z"/><path d="M134.07,136.28v-6.08h.75v6.08Z"/><path d="M138,135l.74-.12a1,1,0,0,0,.35.68,1.22,1.22,0,0,0,.79.24,1.17,1.17,0,0,0,.76-.21.63.63,0,0,0,.25-.49.45.45,0,0,0-.22-.4,3.25,3.25,0,0,0-.76-.25,7,7,0,0,1-1.14-.36,1.09,1.09,0,0,1-.65-1,1.14,1.14,0,0,1,.14-.55,1.2,1.2,0,0,1,.37-.42,1.54,1.54,0,0,1,.47-.22,2.3,2.3,0,0,1,.65-.09,2.55,2.55,0,0,1,.91.15,1.24,1.24,0,0,1,.58.4,1.59,1.59,0,0,1,.26.68l-.73.1a.8.8,0,0,0-.29-.53,1.05,1.05,0,0,0-.67-.19,1.22,1.22,0,0,0-.73.17.5.5,0,0,0-.22.4.41.41,0,0,0,.09.26.66.66,0,0,0,.29.2l.66.19A9.18,9.18,0,0,1,141,134a1.12,1.12,0,0,1,.49.39,1.09,1.09,0,0,1,.18.64,1.25,1.25,0,0,1-.22.7,1.41,1.41,0,0,1-.63.51,2.29,2.29,0,0,1-.93.18,2.08,2.08,0,0,1-1.31-.36A1.66,1.66,0,0,1,138,135Z"/><path d="M145.6,134.86l.77.09a1.88,1.88,0,0,1-.68,1.05,2.29,2.29,0,0,1-2.79-.22,2.32,2.32,0,0,1-.57-1.67,2.44,2.44,0,0,1,.57-1.73,1.94,1.94,0,0,1,1.49-.61,1.88,1.88,0,0,1,1.44.6,2.39,2.39,0,0,1,.56,1.69s0,.11,0,.2h-3.29a1.7,1.7,0,0,0,.41,1.11,1.22,1.22,0,0,0,.92.39,1.14,1.14,0,0,0,.7-.22A1.43,1.43,0,0,0,145.6,134.86Zm-2.45-1.21h2.46a1.49,1.49,0,0,0-.28-.83,1.15,1.15,0,0,0-.93-.43,1.19,1.19,0,0,0-.87.34A1.37,1.37,0,0,0,143.15,133.65Z"/><path d="M150.17,136.28v-.56a1.37,1.37,0,0,1-1.23.66,1.72,1.72,0,0,1-1-.29,1.91,1.91,0,0,1-.69-.81,2.82,2.82,0,0,1-.24-1.2,3.12,3.12,0,0,1,.22-1.2,1.73,1.73,0,0,1,.66-.82,1.76,1.76,0,0,1,1-.29,1.47,1.47,0,0,1,.71.17,1.49,1.49,0,0,1,.51.44v-2.18h.74v6.08Zm-2.36-2.2a1.91,1.91,0,0,0,.36,1.27,1.08,1.08,0,0,0,.84.42,1.06,1.06,0,0,0,.83-.4,1.85,1.85,0,0,0,.34-1.22,2.07,2.07,0,0,0-.35-1.33,1.07,1.07,0,0,0-.86-.42,1,1,0,0,0-.83.41A2,2,0,0,0,147.81,134.08Z"/><path d="M152,131.05v-.86h.75v.86Zm0,5.22v-4.41h.75v4.41Z"/><path d="M153.93,136.28v-4.41h.67v.62a1.58,1.58,0,0,1,.55-.52,1.55,1.55,0,0,1,.79-.2,1.44,1.44,0,0,1,.8.2,1.08,1.08,0,0,1,.44.57,1.58,1.58,0,0,1,1.36-.77,1.34,1.34,0,0,1,1,.36,1.55,1.55,0,0,1,.35,1.12v3h-.74V133.5a2.07,2.07,0,0,0-.07-.65.63.63,0,0,0-.26-.32.82.82,0,0,0-.45-.12,1,1,0,0,0-.77.31,1.36,1.36,0,0,0-.31,1v2.56h-.75v-2.86a1.27,1.27,0,0,0-.18-.75.69.69,0,0,0-.6-.25,1.08,1.08,0,0,0-.58.17,1,1,0,0,0-.39.49,2.73,2.73,0,0,0-.12.92v2.29Z"/><path d="M164,134.86l.77.09a1.88,1.88,0,0,1-.68,1.05,2.29,2.29,0,0,1-2.79-.22,2.33,2.33,0,0,1-.57-1.67,2.44,2.44,0,0,1,.57-1.73,1.94,1.94,0,0,1,1.49-.61,1.88,1.88,0,0,1,1.45.6,2.39,2.39,0,0,1,.56,1.69s0,.11,0,.2h-3.29a1.7,1.7,0,0,0,.41,1.11,1.22,1.22,0,0,0,.92.39,1.14,1.14,0,0,0,.7-.22A1.43,1.43,0,0,0,164,134.86Zm-2.45-1.21H164a1.49,1.49,0,0,0-.28-.83,1.15,1.15,0,0,0-.93-.43,1.19,1.19,0,0,0-.87.34A1.36,1.36,0,0,0,161.57,133.65Z"/><path d="M165.73,136.28v-4.41h.67v.63a1.59,1.59,0,0,1,1.4-.73,1.84,1.84,0,0,1,.73.14,1.16,1.16,0,0,1,.5.38,1.45,1.45,0,0,1,.23.55,4.19,4.19,0,0,1,0,.73v2.71h-.75V133.6a2,2,0,0,0-.09-.68.72.72,0,0,0-.31-.36,1,1,0,0,0-.52-.13,1.21,1.21,0,0,0-.82.3,1.5,1.5,0,0,0-.35,1.15v2.41Z"/><path d="M172.09,135.61l.11.66a2.73,2.73,0,0,1-.56.07,1.27,1.27,0,0,1-.63-.13.72.72,0,0,1-.32-.34,2.69,2.69,0,0,1-.09-.88v-2.54h-.55v-.58h.55v-1.09l.74-.45v1.54h.75v.58h-.75V135a1.3,1.3,0,0,0,0,.41.31.31,0,0,0,.13.14.48.48,0,0,0,.25.05Z"/><path d="M176.82,135.61l.11.66a2.73,2.73,0,0,1-.56.07,1.27,1.27,0,0,1-.63-.13.72.72,0,0,1-.32-.34,2.66,2.66,0,0,1-.09-.88v-2.54h-.55v-.58h.55v-1.09l.74-.45v1.54h.75v.58h-.75V135a1.33,1.33,0,0,0,0,.41.32.32,0,0,0,.13.14.49.49,0,0,0,.26.05Z"/><path d="M177.54,136.28v-4.41h.67v.67a1.83,1.83,0,0,1,.47-.62.83.83,0,0,1,.48-.15,1.46,1.46,0,0,1,.77.24l-.26.69a1.06,1.06,0,0,0-.55-.16.72.72,0,0,0-.44.15.8.8,0,0,0-.28.41,2.91,2.91,0,0,0-.12.87v2.31Z"/><path d="M183.25,135.73a2.81,2.81,0,0,1-.8.5,2.31,2.31,0,0,1-.82.14,1.6,1.6,0,0,1-1.12-.35,1.17,1.17,0,0,1-.39-.91,1.2,1.2,0,0,1,.15-.59,1.22,1.22,0,0,1,.38-.43,1.83,1.83,0,0,1,.54-.25,5.16,5.16,0,0,1,.66-.11,6.84,6.84,0,0,0,1.33-.26c0-.1,0-.17,0-.2a.82.82,0,0,0-.21-.64,1.25,1.25,0,0,0-.85-.25,1.32,1.32,0,0,0-.78.19,1.13,1.13,0,0,0-.37.65l-.73-.1a1.81,1.81,0,0,1,.33-.76,1.43,1.43,0,0,1,.66-.44,3,3,0,0,1,1-.16,2.64,2.64,0,0,1,.92.13,1.21,1.21,0,0,1,.52.33,1.16,1.16,0,0,1,.23.51,4.13,4.13,0,0,1,0,.69v1a10.46,10.46,0,0,0,0,1.32,1.62,1.62,0,0,0,.19.53h-.78A1.57,1.57,0,0,1,183.25,135.73Zm-.06-1.67a5.54,5.54,0,0,1-1.22.28,2.79,2.79,0,0,0-.65.15.65.65,0,0,0-.29.24.66.66,0,0,0,.12.85,1,1,0,0,0,.66.2,1.54,1.54,0,0,0,.77-.19,1.16,1.16,0,0,0,.49-.52,1.8,1.8,0,0,0,.12-.75Z"/><path d="M185.1,138v-6.1h.68v.57a1.68,1.68,0,0,1,.54-.5,1.5,1.5,0,0,1,.74-.17,1.75,1.75,0,0,1,1,.29,1.78,1.78,0,0,1,.65.82,3,3,0,0,1,.22,1.16,2.94,2.94,0,0,1-.24,1.22,1.84,1.84,0,0,1-1.68,1.12,1.41,1.41,0,0,1-.67-.16,1.5,1.5,0,0,1-.49-.4V138Zm.68-3.87a1.92,1.92,0,0,0,.34,1.26,1.06,1.06,0,0,0,.83.41,1.08,1.08,0,0,0,.85-.42,2,2,0,0,0,.35-1.3,1.94,1.94,0,0,0-.35-1.26,1,1,0,0,0-.83-.42,1.07,1.07,0,0,0-.84.45A2,2,0,0,0,185.78,134.1Z"/><path d="M192.2,131.05v-.86h.75v.86Zm0,5.22v-4.41h.75v4.41Z"/><path d="M194.08,136.28v-4.41h.67v.63a1.59,1.59,0,0,1,1.4-.73,1.84,1.84,0,0,1,.73.14,1.16,1.16,0,0,1,.5.38,1.45,1.45,0,0,1,.23.55,4.19,4.19,0,0,1,0,.73v2.71h-.75V133.6a2,2,0,0,0-.09-.68.72.72,0,0,0-.31-.36,1,1,0,0,0-.52-.13,1.21,1.21,0,0,0-.82.3,1.5,1.5,0,0,0-.35,1.15v2.41Z"/><path d="M116.64,145.93a2.74,2.74,0,0,1-.8.5,2.29,2.29,0,0,1-.82.15,1.6,1.6,0,0,1-1.12-.36,1.17,1.17,0,0,1-.39-.91,1.23,1.23,0,0,1,.53-1,1.81,1.81,0,0,1,.54-.24,5.45,5.45,0,0,1,.66-.11,6.78,6.78,0,0,0,1.33-.26c0-.1,0-.17,0-.19a.83.83,0,0,0-.21-.64,1.26,1.26,0,0,0-.85-.25,1.32,1.32,0,0,0-.78.18,1.13,1.13,0,0,0-.37.65l-.73-.1a1.81,1.81,0,0,1,.33-.76,1.43,1.43,0,0,1,.66-.44,2.92,2.92,0,0,1,1-.16,2.66,2.66,0,0,1,.92.13,1.2,1.2,0,0,1,.52.33,1.18,1.18,0,0,1,.23.51,4.21,4.21,0,0,1,0,.69v1a10.63,10.63,0,0,0,0,1.32,1.67,1.67,0,0,0,.19.53h-.78A1.58,1.58,0,0,1,116.64,145.93Zm-.06-1.67a5.47,5.47,0,0,1-1.22.28,2.8,2.8,0,0,0-.65.15.65.65,0,0,0-.29.24.66.66,0,0,0,.12.85,1,1,0,0,0,.66.2,1.54,1.54,0,0,0,.77-.19,1.16,1.16,0,0,0,.49-.52,1.81,1.81,0,0,0,.12-.75Z"/><path d="M121.37,144.86l.73.1a1.91,1.91,0,0,1-.62,1.19,1.8,1.8,0,0,1-1.22.43,1.89,1.89,0,0,1-1.46-.59,2.4,2.4,0,0,1-.55-1.7,3.08,3.08,0,0,1,.24-1.25,1.65,1.65,0,0,1,.72-.8,2.14,2.14,0,0,1,1.05-.27,1.83,1.83,0,0,1,1.17.36,1.67,1.67,0,0,1,.58,1l-.73.11a1.21,1.21,0,0,0-.37-.67,1,1,0,0,0-.64-.22,1.16,1.16,0,0,0-.92.41,1.92,1.92,0,0,0-.35,1.28,2,2,0,0,0,.34,1.29,1.11,1.11,0,0,0,.89.4,1,1,0,0,0,.73-.27A1.34,1.34,0,0,0,121.37,144.86Z"/><path d="M125.62,144.86l.73.1a1.91,1.91,0,0,1-.62,1.19,1.8,1.8,0,0,1-1.22.43,1.89,1.89,0,0,1-1.46-.59,2.4,2.4,0,0,1-.55-1.7,3.08,3.08,0,0,1,.24-1.25,1.66,1.66,0,0,1,.72-.8,2.15,2.15,0,0,1,1.05-.27,1.83,1.83,0,0,1,1.17.36,1.67,1.67,0,0,1,.58,1l-.73.11a1.21,1.21,0,0,0-.37-.67,1,1,0,0,0-.64-.22,1.16,1.16,0,0,0-.92.41,1.92,1.92,0,0,0-.35,1.28,2,2,0,0,0,.34,1.29,1.11,1.11,0,0,0,.89.4,1,1,0,0,0,.74-.27A1.35,1.35,0,0,0,125.62,144.86Z"/><path d="M126.72,144.27a2.27,2.27,0,0,1,.68-1.81,2,2,0,0,1,1.39-.49,2,2,0,0,1,1.49.6,2.26,2.26,0,0,1,.58,1.65,2.92,2.92,0,0,1-.25,1.34,1.82,1.82,0,0,1-.74.76,2.16,2.16,0,0,1-1.06.27,2,2,0,0,1-1.5-.59A2.38,2.38,0,0,1,126.72,144.27Zm.77,0a1.88,1.88,0,0,0,.37,1.27,1.23,1.23,0,0,0,1.86,0,1.92,1.92,0,0,0,.37-1.29,1.82,1.82,0,0,0-.37-1.24,1.23,1.23,0,0,0-1.85,0A1.87,1.87,0,0,0,127.48,144.27Z"/><path d="M131.71,146.48v-4.41h.67v.67a1.81,1.81,0,0,1,.47-.62.83.83,0,0,1,.48-.15,1.46,1.46,0,0,1,.77.24l-.26.69a1.08,1.08,0,0,0-.55-.16.71.71,0,0,0-.44.15.79.79,0,0,0-.28.41,2.88,2.88,0,0,0-.12.87v2.31Z"/><path d="M137.41,146.48v-.56a1.37,1.37,0,0,1-1.23.66,1.73,1.73,0,0,1-1-.29,1.91,1.91,0,0,1-.69-.81,2.8,2.8,0,0,1-.24-1.2,3.12,3.12,0,0,1,.22-1.2,1.73,1.73,0,0,1,.66-.82,1.76,1.76,0,0,1,1-.29,1.47,1.47,0,0,1,1.22.61v-2.18h.74v6.08Zm-2.36-2.2a1.92,1.92,0,0,0,.36,1.27,1.08,1.08,0,0,0,.84.42,1.06,1.06,0,0,0,.83-.4,1.84,1.84,0,0,0,.34-1.22,2.08,2.08,0,0,0-.35-1.33,1.07,1.07,0,0,0-.86-.42,1,1,0,0,0-.83.41A2,2,0,0,0,135.05,144.28Z"/><path d="M142.16,145.93a2.74,2.74,0,0,1-.8.5,2.29,2.29,0,0,1-.82.15,1.6,1.6,0,0,1-1.12-.36,1.17,1.17,0,0,1-.39-.91,1.22,1.22,0,0,1,.53-1,1.8,1.8,0,0,1,.54-.24,5.45,5.45,0,0,1,.66-.11,6.78,6.78,0,0,0,1.33-.26c0-.1,0-.17,0-.19a.83.83,0,0,0-.21-.64,1.26,1.26,0,0,0-.85-.25,1.32,1.32,0,0,0-.78.18,1.13,1.13,0,0,0-.37.65l-.73-.1a1.81,1.81,0,0,1,.33-.76,1.43,1.43,0,0,1,.66-.44,2.93,2.93,0,0,1,1-.16,2.66,2.66,0,0,1,.92.13,1.2,1.2,0,0,1,.52.33,1.19,1.19,0,0,1,.23.51,4.29,4.29,0,0,1,0,.69v1a10.77,10.77,0,0,0,0,1.32,1.7,1.7,0,0,0,.19.53h-.78A1.58,1.58,0,0,1,142.16,145.93Zm-.06-1.67a5.48,5.48,0,0,1-1.22.28,2.79,2.79,0,0,0-.65.15.65.65,0,0,0-.29.24.66.66,0,0,0,.12.85,1,1,0,0,0,.66.2,1.54,1.54,0,0,0,.77-.19,1.16,1.16,0,0,0,.49-.52,1.81,1.81,0,0,0,.12-.75Z"/><path d="M144,146.48v-4.41h.67v.63a1.58,1.58,0,0,1,1.4-.73,1.85,1.85,0,0,1,.73.14,1.14,1.14,0,0,1,.5.38,1.42,1.42,0,0,1,.23.55,4.2,4.2,0,0,1,0,.73v2.71h-.75V143.8a2,2,0,0,0-.09-.68.71.71,0,0,0-.31-.36,1,1,0,0,0-.52-.13,1.21,1.21,0,0,0-.82.3,1.49,1.49,0,0,0-.35,1.15v2.41Z"/><path d="M151.61,144.86l.73.1a1.91,1.91,0,0,1-.62,1.19,1.79,1.79,0,0,1-1.22.43,1.89,1.89,0,0,1-1.46-.59,2.4,2.4,0,0,1-.55-1.7,3.08,3.08,0,0,1,.24-1.25,1.66,1.66,0,0,1,.72-.8,2.14,2.14,0,0,1,1.05-.27,1.83,1.83,0,0,1,1.17.36,1.66,1.66,0,0,1,.58,1l-.73.11a1.21,1.21,0,0,0-.37-.67,1,1,0,0,0-.64-.22,1.16,1.16,0,0,0-.92.41,1.91,1.91,0,0,0-.35,1.28,2,2,0,0,0,.34,1.29,1.11,1.11,0,0,0,.89.4,1,1,0,0,0,.73-.27A1.34,1.34,0,0,0,151.61,144.86Z"/><path d="M156,145.06l.77.1a1.88,1.88,0,0,1-.68,1,2.29,2.29,0,0,1-2.79-.22,2.33,2.33,0,0,1-.57-1.67,2.44,2.44,0,0,1,.57-1.73,1.94,1.94,0,0,1,1.49-.61,1.89,1.89,0,0,1,1.44.6,2.39,2.39,0,0,1,.56,1.69s0,.11,0,.2h-3.29a1.7,1.7,0,0,0,.41,1.11,1.23,1.23,0,0,0,.92.38,1.14,1.14,0,0,0,.7-.21A1.44,1.44,0,0,0,156,145.06Zm-2.45-1.21H156a1.49,1.49,0,0,0-.28-.83,1.14,1.14,0,0,0-.93-.43,1.18,1.18,0,0,0-.87.34A1.36,1.36,0,0,0,153.55,143.85Z"/><path d="M160.89,146.48l-1.35-4.41h.77l.7,2.54.26.95.23-.91.7-2.58H163l.66,2.56.22.84.25-.85.75-2.55h.73l-1.38,4.41h-.78l-.7-2.64-.17-.75-.89,3.39Z"/><path d="M166.22,141.25v-.86H167v.86Zm0,5.23v-4.41H167v4.41Z"/><path d="M169.73,145.81l.11.66a2.8,2.8,0,0,1-.56.07,1.28,1.28,0,0,1-.63-.13.72.72,0,0,1-.32-.34,2.69,2.69,0,0,1-.09-.88v-2.54h-.55v-.58h.55V141l.74-.45v1.54h.75v.58H169v2.58a1.31,1.31,0,0,0,0,.41.31.31,0,0,0,.13.15.51.51,0,0,0,.25.05Z"/><path d="M170.46,146.48v-6.08h.75v2.18a1.67,1.67,0,0,1,1.32-.61,1.77,1.77,0,0,1,.85.19,1.13,1.13,0,0,1,.52.53,2.47,2.47,0,0,1,.16,1v2.79h-.75v-2.79a1.16,1.16,0,0,0-.24-.82.91.91,0,0,0-.69-.26,1.22,1.22,0,0,0-.62.17,1,1,0,0,0-.42.47,2.14,2.14,0,0,0-.12.81v2.41Z"/><path d="M177.64,146.48v-6.08h.83l3.2,4.78v-4.78h.77v6.08h-.83l-3.2-4.78v4.78Z"/><path d="M183.83,146.48v-6.08h4.1v.72h-3.3V143h2.86v.72h-2.86v2.76Z"/><path d="M189,146.48v-6.08h2.29a5.62,5.62,0,0,1,.93.06,1.84,1.84,0,0,1,.75.29,1.49,1.49,0,0,1,.49.59,2,2,0,0,1-.31,2.14,2.37,2.37,0,0,1-1.79.54h-1.56v2.47Zm.8-3.19h1.57a1.67,1.67,0,0,0,1.11-.29,1,1,0,0,0,.33-.82,1.1,1.1,0,0,0-.19-.65.9.9,0,0,0-.51-.36,3.37,3.37,0,0,0-.75-.05h-1.56Z"/><path d="M193.35,146.48l2.34-6.08h.87l2.49,6.08h-.92l-.71-1.84h-2.54l-.67,1.84Zm1.76-2.5h2.06l-.63-1.68c-.19-.51-.34-.93-.43-1.26a7.68,7.68,0,0,1-.33,1.16Z"/><path d="M201.27,144.89l.79-.07a1.42,1.42,0,0,0,.4.86,1.1,1.1,0,0,0,.77.29,1.19,1.19,0,0,0,.91-.41,1.54,1.54,0,0,0,.37-1.08,1.38,1.38,0,0,0-.36-1,1.25,1.25,0,0,0-.94-.37,1.31,1.31,0,0,0-.65.16,1.27,1.27,0,0,0-.46.43l-.7-.09.59-3.12h3v.71h-2.43l-.33,1.64a2,2,0,0,1,1.15-.38,1.82,1.82,0,0,1,1.34.55,1.93,1.93,0,0,1,.55,1.42,2.21,2.21,0,0,1-.48,1.43,1.93,1.93,0,0,1-1.6.74,2,2,0,0,1-1.35-.46A1.82,1.82,0,0,1,201.27,144.89Z"/><path d="M208.4,146.48V145h-2.64v-.69l2.78-3.94h.61v3.94H210V145h-.82v1.46Zm0-2.14v-2.74l-1.91,2.74Z"/><path d="M213,144.27a2.27,2.27,0,0,1,.68-1.81,2,2,0,0,1,1.39-.49,2,2,0,0,1,1.49.6,2.26,2.26,0,0,1,.58,1.65,2.92,2.92,0,0,1-.25,1.34,1.82,1.82,0,0,1-.74.76,2.16,2.16,0,0,1-1.06.27,2,2,0,0,1-1.5-.59A2.38,2.38,0,0,1,213,144.27Zm.77,0a1.88,1.88,0,0,0,.37,1.27,1.23,1.23,0,0,0,1.86,0,1.92,1.92,0,0,0,.37-1.29A1.82,1.82,0,0,0,216,143a1.23,1.23,0,0,0-1.85,0A1.87,1.87,0,0,0,213.79,144.27Z"/><path d="M218,146.48v-4.41h.67v.67a1.84,1.84,0,0,1,.47-.62.83.83,0,0,1,.48-.15,1.46,1.46,0,0,1,.77.24l-.26.69a1.07,1.07,0,0,0-.55-.16.71.71,0,0,0-.44.15.8.8,0,0,0-.28.41,2.91,2.91,0,0,0-.12.87v2.31Z"/><path d="M118.2,154.55l.81.2a2.71,2.71,0,0,1-.91,1.51,2.51,2.51,0,0,1-1.61.52,2.88,2.88,0,0,1-1.6-.4,2.5,2.5,0,0,1-.94-1.16,4.14,4.14,0,0,1-.32-1.63,3.58,3.58,0,0,1,.36-1.66,2.48,2.48,0,0,1,1-1.07,3,3,0,0,1,1.48-.37A2.5,2.5,0,0,1,118,151a2.41,2.41,0,0,1,.87,1.31l-.79.19a1.88,1.88,0,0,0-.61-1,1.64,1.64,0,0,0-1-.3,2,2,0,0,0-1.17.34,1.77,1.77,0,0,0-.66.9,3.62,3.62,0,0,0-.19,1.17,3.72,3.72,0,0,0,.23,1.36,1.69,1.69,0,0,0,.7.87,2,2,0,0,0,1,.29,1.73,1.73,0,0,0,1.15-.39A2,2,0,0,0,118.2,154.55Z"/><path d="M119.33,156.68l2.34-6.08h.87l2.49,6.08h-.92l-.71-1.84h-2.54l-.67,1.84Zm1.76-2.5h2.06l-.63-1.69q-.29-.77-.43-1.26a7.71,7.71,0,0,1-.33,1.16Z"/><path d="M125.66,156.68v-6.08h.83l3.2,4.78v-4.78h.77v6.08h-.83l-3.2-4.78v4.78Z"/><path d="M131.15,156.78l1.76-6.29h.6l-1.76,6.29Z"/><path d="M138.51,154.55l.8.2a2.71,2.71,0,0,1-.91,1.51,2.51,2.51,0,0,1-1.61.52,2.89,2.89,0,0,1-1.6-.4,2.51,2.51,0,0,1-.94-1.16,4.13,4.13,0,0,1-.32-1.63,3.58,3.58,0,0,1,.36-1.66,2.49,2.49,0,0,1,1-1.07,3,3,0,0,1,1.48-.37,2.5,2.5,0,0,1,1.54.46,2.41,2.41,0,0,1,.87,1.31l-.79.19a1.88,1.88,0,0,0-.61-1,1.64,1.64,0,0,0-1-.3,2,2,0,0,0-1.17.34,1.77,1.77,0,0,0-.66.9,3.64,3.64,0,0,0-.19,1.17,3.73,3.73,0,0,0,.23,1.36,1.69,1.69,0,0,0,.7.87,2,2,0,0,0,1,.29,1.73,1.73,0,0,0,1.15-.39A2,2,0,0,0,138.51,154.55Z"/><path d="M140,154.72l.76-.07a1.67,1.67,0,0,0,.25.75,1.38,1.38,0,0,0,.61.47,2.32,2.32,0,0,0,.93.18,2.23,2.23,0,0,0,.81-.14,1.12,1.12,0,0,0,.52-.37.87.87,0,0,0,.17-.52.79.79,0,0,0-.17-.5,1.23,1.23,0,0,0-.55-.36,10.63,10.63,0,0,0-1.08-.3,5.5,5.5,0,0,1-1.17-.38,1.64,1.64,0,0,1-.65-.57,1.39,1.39,0,0,1-.21-.76,1.55,1.55,0,0,1,.26-.86,1.62,1.62,0,0,1,.76-.61,2.89,2.89,0,0,1,1.12-.21,3.06,3.06,0,0,1,1.19.22,1.72,1.72,0,0,1,.79.64,1.86,1.86,0,0,1,.3,1l-.77.06a1.24,1.24,0,0,0-.42-.87,1.63,1.63,0,0,0-1.06-.29,1.71,1.71,0,0,0-1.06.27.8.8,0,0,0-.33.65.69.69,0,0,0,.24.54,3.22,3.22,0,0,0,1.21.43,8,8,0,0,1,1.35.39,1.84,1.84,0,0,1,.78.62,1.51,1.51,0,0,1,.25.87,1.66,1.66,0,0,1-.28.92,1.84,1.84,0,0,1-.8.67,2.78,2.78,0,0,1-1.17.24,3.5,3.5,0,0,1-1.38-.24,1.94,1.94,0,0,1-.88-.72A2.06,2.06,0,0,1,140,154.72Z"/><path d="M145.31,156.68l2.34-6.08h.87l2.49,6.08h-.92l-.71-1.84h-2.54l-.67,1.84Zm1.76-2.5h2.06l-.63-1.69q-.29-.77-.43-1.26a7.88,7.88,0,0,1-.33,1.16Z"/><path d="M153.51,156.68v-6.08h2.28a2.82,2.82,0,0,1,1.12.18,1.44,1.44,0,0,1,.66.57,1.5,1.5,0,0,1,.24.8,1.39,1.39,0,0,1-.21.74,1.52,1.52,0,0,1-.64.56,1.59,1.59,0,0,1,.85.55,1.48,1.48,0,0,1,.3.92,1.79,1.79,0,0,1-.18.79,1.55,1.55,0,0,1-.45.57,1.86,1.86,0,0,1-.67.3,4,4,0,0,1-1,.1Zm.8-3.53h1.32a2.9,2.9,0,0,0,.77-.07.85.85,0,0,0,.46-.3.88.88,0,0,0,.16-.53,1,1,0,0,0-.15-.53.74.74,0,0,0-.42-.32,3.47,3.47,0,0,0-.93-.08h-1.22Zm0,2.81h1.51a3.46,3.46,0,0,0,.55,0,1.31,1.31,0,0,0,.46-.17.88.88,0,0,0,.31-.34,1.06,1.06,0,0,0,.12-.51,1,1,0,0,0-.17-.59.92.92,0,0,0-.48-.35,3,3,0,0,0-.89-.1h-1.41Z"/><path d="M161.72,156.68H161v-4.76a3.87,3.87,0,0,1-.71.51,5,5,0,0,1-.79.39v-.72a4.54,4.54,0,0,0,1.1-.71,2.82,2.82,0,0,0,.66-.81h.48Z"/><path d="M166,156.68v-1.46h-2.64v-.68l2.78-3.94h.61v3.94h.82v.68h-.82v1.46Zm0-2.14v-2.74l-1.91,2.74Z"/><path d="M168.47,155.27l.72-.07a1.25,1.25,0,0,0,.35.74,1,1,0,0,0,.66.23,1.14,1.14,0,0,0,.6-.16,1.3,1.3,0,0,0,.42-.42,2.49,2.49,0,0,0,.28-.71,3.78,3.78,0,0,0,.11-.91s0-.08,0-.15a1.71,1.71,0,0,1-.61.58,1.66,1.66,0,0,1-.84.22,1.7,1.7,0,0,1-1.28-.55,2,2,0,0,1-.52-1.44,2.05,2.05,0,0,1,.55-1.49,1.82,1.82,0,0,1,1.37-.56,2,2,0,0,1,1.08.32,2,2,0,0,1,.75.91,4.49,4.49,0,0,1,.25,1.71,5.53,5.53,0,0,1-.25,1.86,2.17,2.17,0,0,1-.75,1.05,1.94,1.94,0,0,1-1.17.36,1.61,1.61,0,0,1-1.71-1.51Zm3.06-2.68a1.46,1.46,0,0,0-.34-1,1.07,1.07,0,0,0-.82-.38,1.14,1.14,0,0,0-.87.41,1.5,1.5,0,0,0-.37,1.05,1.3,1.3,0,0,0,.35.94,1.15,1.15,0,0,0,.87.36,1.11,1.11,0,0,0,.85-.36A1.43,1.43,0,0,0,171.53,152.59Z"/><path d="M173.51,156.68v-.85h.85v.85Z"/><path d="M178.26,156.68h-.75v-4.76a3.86,3.86,0,0,1-.71.51,5,5,0,0,1-.79.39v-.72a4.51,4.51,0,0,0,1.1-.71,2.82,2.82,0,0,0,.66-.81h.48Z"/><path d="M180.6,156.68v-.85h.85v.85Z"/><path d="M117.49,49.27h.79v3.52a4.23,4.23,0,0,1-.2,1.46,1.77,1.77,0,0,1-.73.88,2.56,2.56,0,0,1-1.39.34,2.82,2.82,0,0,1-1.37-.29,1.67,1.67,0,0,1-.76-.85,4.14,4.14,0,0,1-.23-1.53V49.27h.79v3.51a3.49,3.49,0,0,0,.14,1.17,1.11,1.11,0,0,0,.5.58,1.69,1.69,0,0,0,.86.2,1.62,1.62,0,0,0,1.24-.4,2.35,2.35,0,0,0,.37-1.55Z"/><path d="M119.2,54l.72-.12a1,1,0,0,0,.34.68,1.17,1.17,0,0,0,.78.24,1.13,1.13,0,0,0,.75-.21.63.63,0,0,0,.24-.49.46.46,0,0,0-.22-.4,3.13,3.13,0,0,0-.75-.25,6.71,6.71,0,0,1-1.12-.36,1.09,1.09,0,0,1-.47-.42,1.12,1.12,0,0,1-.16-.59,1.16,1.16,0,0,1,.13-.55,1.21,1.21,0,0,1,.36-.42,1.49,1.49,0,0,1,.47-.22,2.17,2.17,0,0,1,.63-.09,2.45,2.45,0,0,1,.89.15,1.21,1.21,0,0,1,.57.4,1.6,1.6,0,0,1,.25.68l-.72.1a.8.8,0,0,0-.28-.53,1,1,0,0,0-.66-.19,1.17,1.17,0,0,0-.72.17.5.5,0,0,0-.22.4.42.42,0,0,0,.09.26.65.65,0,0,0,.28.2l.65.19a8.93,8.93,0,0,1,1.08.35,1.05,1.05,0,0,1,.66,1,1.28,1.28,0,0,1-.21.7,1.39,1.39,0,0,1-.62.51,2.2,2.2,0,0,1-.91.18,2,2,0,0,1-1.28-.36A1.67,1.67,0,0,1,119.2,54Z"/><path d="M126.6,53.93l.76.1a1.89,1.89,0,0,1-.66,1.05,2.21,2.21,0,0,1-2.74-.22,2.36,2.36,0,0,1-.55-1.67,2.47,2.47,0,0,1,.56-1.73,1.88,1.88,0,0,1,1.46-.61,1.83,1.83,0,0,1,1.42.6,2.42,2.42,0,0,1,.55,1.69s0,.11,0,.2h-3.22a1.72,1.72,0,0,0,.4,1.11,1.19,1.19,0,0,0,.9.39,1.11,1.11,0,0,0,.69-.22A1.44,1.44,0,0,0,126.6,53.93Zm-2.4-1.21h2.41a1.52,1.52,0,0,0-.28-.83,1.11,1.11,0,0,0-.91-.43,1.15,1.15,0,0,0-.85.34A1.38,1.38,0,0,0,124.2,52.73Z"/><path d="M129.64,57.06l.14-.63a1.45,1.45,0,0,0,.35.06.39.39,0,0,0,.33-.15,1.59,1.59,0,0,0,.11-.76V50.94h.73v4.65a2.23,2.23,0,0,1-.21,1.13,1,1,0,0,1-.88.42A2.09,2.09,0,0,1,129.64,57.06Zm.93-6.93v-.87h.73v.87Z"/><path d="M132.15,53.15a2.3,2.3,0,0,1,.67-1.81,2,2,0,0,1,1.36-.49,1.92,1.92,0,0,1,1.46.6,2.29,2.29,0,0,1,.57,1.65,3,3,0,0,1-.25,1.34,1.8,1.8,0,0,1-.73.76,2.09,2.09,0,0,1-1,.27,1.92,1.92,0,0,1-1.47-.59A2.4,2.4,0,0,1,132.15,53.15Zm.75,0a1.9,1.9,0,0,0,.36,1.27,1.19,1.19,0,0,0,1.82,0,1.94,1.94,0,0,0,.36-1.29,1.84,1.84,0,0,0-.37-1.24,1.19,1.19,0,0,0-1.82,0A1.89,1.89,0,0,0,132.9,53.15Z"/><path d="M137,50.13v-.86h.73v.86Zm0,5.23V50.94h.73v4.41Z"/><path d="M138.89,55.35V50.94h.66v.63a1.54,1.54,0,0,1,1.38-.73,1.77,1.77,0,0,1,.72.14,1.13,1.13,0,0,1,.49.38,1.45,1.45,0,0,1,.23.55,4.47,4.47,0,0,1,0,.73v2.71h-.73V52.67a2.06,2.06,0,0,0-.09-.68.71.71,0,0,0-.3-.36,1,1,0,0,0-.51-.13,1.17,1.17,0,0,0-.81.3,1.51,1.51,0,0,0-.34,1.15v2.41Z"/><path d="M145.11,54.68l.11.66a2.66,2.66,0,0,1-.55.07,1.24,1.24,0,0,1-.62-.13.71.71,0,0,1-.31-.34,2.7,2.7,0,0,1-.09-.88V51.53h-.54v-.58h.54V49.85l.73-.45v1.54h.74v.58h-.74V54.1a1.31,1.31,0,0,0,0,.41.3.3,0,0,0,.13.15.48.48,0,0,0,.25.05Z"/><path d="M150.94,53.74l.72.1a1.91,1.91,0,0,1-.6,1.19,1.74,1.74,0,0,1-1.19.43,1.84,1.84,0,0,1-1.43-.59,2.43,2.43,0,0,1-.54-1.7,3.13,3.13,0,0,1,.23-1.25,1.64,1.64,0,0,1,.71-.8,2.06,2.06,0,0,1,1-.27,1.77,1.77,0,0,1,1.15.36,1.67,1.67,0,0,1,.57,1l-.71.11a1.21,1.21,0,0,0-.36-.67.92.92,0,0,0-.62-.22,1.13,1.13,0,0,0-.9.4,2,2,0,0,0-.35,1.28,2,2,0,0,0,.33,1.29,1.08,1.08,0,0,0,.87.4,1,1,0,0,0,.72-.27A1.35,1.35,0,0,0,150.94,53.74Z"/><path d="M152,53.15a2.3,2.3,0,0,1,.67-1.81,2,2,0,0,1,1.36-.49,1.92,1.92,0,0,1,1.46.6,2.29,2.29,0,0,1,.56,1.65,3,3,0,0,1-.25,1.34,1.78,1.78,0,0,1-.73.76,2.09,2.09,0,0,1-1,.27,1.92,1.92,0,0,1-1.47-.59A2.4,2.4,0,0,1,152,53.15Zm.75,0a1.9,1.9,0,0,0,.36,1.27,1.19,1.19,0,0,0,1.82,0,2,2,0,0,0,.36-1.29,1.84,1.84,0,0,0-.36-1.24,1.19,1.19,0,0,0-1.82,0A1.89,1.89,0,0,0,152.76,53.15Z"/><path d="M156.9,55.35V50.94h.66v.62a1.54,1.54,0,0,1,.54-.52,1.49,1.49,0,0,1,.77-.2,1.4,1.4,0,0,1,.79.2,1.08,1.08,0,0,1,.43.57,1.54,1.54,0,0,1,1.33-.77,1.3,1.3,0,0,1,1,.36,1.57,1.57,0,0,1,.35,1.12v3H162V52.58a2.11,2.11,0,0,0-.07-.65.63.63,0,0,0-.26-.32.79.79,0,0,0-.44-.12,1,1,0,0,0-.76.31,1.38,1.38,0,0,0-.3,1v2.56h-.73V52.49a1.28,1.28,0,0,0-.18-.75.67.67,0,0,0-.59-.25,1.05,1.05,0,0,0-.57.17.94.94,0,0,0-.38.49,2.74,2.74,0,0,0-.12.92v2.29Z"/><path d="M163.83,57v-6.1h.67v.57A1.67,1.67,0,0,1,165,51a1.45,1.45,0,0,1,.72-.17,1.69,1.69,0,0,1,1,.29,1.78,1.78,0,0,1,.64.82,3,3,0,0,1,.22,1.16,3,3,0,0,1-.24,1.22,1.81,1.81,0,0,1-.69.83,1.75,1.75,0,0,1-1,.29,1.36,1.36,0,0,1-.66-.16,1.48,1.48,0,0,1-.48-.4V57Zm.66-3.87a2,2,0,0,0,.34,1.26,1,1,0,0,0,.82.41,1.05,1.05,0,0,0,.84-.42,2,2,0,0,0,.35-1.31,2,2,0,0,0-.34-1.26,1,1,0,0,0-.81-.42,1,1,0,0,0-.83.45A2,2,0,0,0,164.5,53.17Z"/><path d="M168.19,53.15a2.3,2.3,0,0,1,.67-1.81,2,2,0,0,1,1.36-.49,1.92,1.92,0,0,1,1.46.6,2.29,2.29,0,0,1,.56,1.65,3,3,0,0,1-.25,1.34,1.78,1.78,0,0,1-.73.76,2.09,2.09,0,0,1-1,.27,1.92,1.92,0,0,1-1.47-.59A2.4,2.4,0,0,1,168.19,53.15Zm.75,0a1.9,1.9,0,0,0,.36,1.27,1.19,1.19,0,0,0,1.82,0,2,2,0,0,0,.36-1.29,1.84,1.84,0,0,0-.36-1.24,1.19,1.19,0,0,0-1.82,0A1.89,1.89,0,0,0,168.94,53.15Z"/><path d="M175.91,55.35V54.7a1.57,1.57,0,0,1-1.37.75,1.72,1.72,0,0,1-.71-.15,1.17,1.17,0,0,1-.49-.38,1.43,1.43,0,0,1-.23-.55,3.91,3.91,0,0,1,0-.7V50.94h.73v2.44a4.39,4.39,0,0,0,0,.79.78.78,0,0,0,.29.46.89.89,0,0,0,.55.17,1.19,1.19,0,0,0,.62-.17,1,1,0,0,0,.41-.47,2.4,2.4,0,0,0,.12-.86V50.94h.73v4.41Z"/><path d="M177.71,55.35V50.94h.66v.63a1.55,1.55,0,0,1,1.38-.73,1.78,1.78,0,0,1,.72.14,1.14,1.14,0,0,1,.49.38,1.47,1.47,0,0,1,.23.55,4.33,4.33,0,0,1,0,.73v2.71h-.73V52.67a2,2,0,0,0-.08-.68.72.72,0,0,0-.3-.36,1,1,0,0,0-.51-.13,1.17,1.17,0,0,0-.81.3,1.51,1.51,0,0,0-.34,1.15v2.41Z"/><path d="M185.13,55.35V54.8a1.34,1.34,0,0,1-1.21.66,1.67,1.67,0,0,1-.95-.29,1.9,1.9,0,0,1-.67-.81,2.86,2.86,0,0,1-.24-1.2,3.17,3.17,0,0,1,.22-1.2,1.69,1.69,0,0,1,1.61-1.11,1.42,1.42,0,0,1,.7.17,1.47,1.47,0,0,1,.5.44V49.27h.73v6.08Zm-2.31-2.2a1.94,1.94,0,0,0,.35,1.27,1,1,0,0,0,.83.42,1,1,0,0,0,.82-.4,1.87,1.87,0,0,0,.34-1.22,2.11,2.11,0,0,0-.34-1.33,1,1,0,0,0-.84-.42,1,1,0,0,0-.82.41A2,2,0,0,0,182.82,53.15Z"/><path d="M189,53.15a2.3,2.3,0,0,1,.67-1.81,2,2,0,0,1,1.36-.49,1.92,1.92,0,0,1,1.46.6,2.29,2.29,0,0,1,.57,1.65,3,3,0,0,1-.25,1.34,1.79,1.79,0,0,1-.73.76,2.09,2.09,0,0,1-1,.27,1.92,1.92,0,0,1-1.47-.59A2.4,2.4,0,0,1,189,53.15Zm.75,0a1.91,1.91,0,0,0,.36,1.27,1.19,1.19,0,0,0,1.82,0,1.94,1.94,0,0,0,.36-1.29,1.85,1.85,0,0,0-.36-1.24,1.19,1.19,0,0,0-1.82,0A1.9,1.9,0,0,0,189.74,53.15Z"/><path d="M193.88,55.35V50.94h.66v.67A1.82,1.82,0,0,1,195,51a.8.8,0,0,1,.47-.15,1.41,1.41,0,0,1,.75.24l-.25.69a1,1,0,0,0-.54-.16.69.69,0,0,0-.43.15.8.8,0,0,0-.27.41,2.94,2.94,0,0,0-.12.87v2.31Z"/><path d="M200.42,55.35V50h-2v-.72h4.73V50h-2v5.37Z"/><path d="M205.92,53.93l.76.1a1.88,1.88,0,0,1-.66,1.05,2.21,2.21,0,0,1-2.74-.22,2.36,2.36,0,0,1-.55-1.67,2.47,2.47,0,0,1,.56-1.73,1.88,1.88,0,0,1,1.46-.61,1.83,1.83,0,0,1,1.42.6,2.42,2.42,0,0,1,.55,1.69s0,.11,0,.2h-3.22a1.72,1.72,0,0,0,.4,1.11,1.19,1.19,0,0,0,.9.39,1.11,1.11,0,0,0,.69-.22A1.43,1.43,0,0,0,205.92,53.93Zm-2.4-1.21h2.41a1.51,1.51,0,0,0-.28-.83,1.11,1.11,0,0,0-.91-.43,1.15,1.15,0,0,0-.85.34A1.37,1.37,0,0,0,203.52,52.73Z"/><path d="M207.76,55.35V51.53h-.65v-.58h.65v-.47a2.12,2.12,0,0,1,.08-.66,1,1,0,0,1,.37-.47,1.32,1.32,0,0,1,.75-.18,3.53,3.53,0,0,1,.68.08l-.11.65a2.39,2.39,0,0,0-.43,0,.64.64,0,0,0-.47.15.8.8,0,0,0-.14.54v.41h.84v.58h-.84v3.83Z"/><path d="M209.88,55.35V49.27h.73v6.08Z"/><path d="M211.46,53.15a2.3,2.3,0,0,1,.67-1.81,2,2,0,0,1,1.36-.49,1.92,1.92,0,0,1,1.46.6,2.29,2.29,0,0,1,.57,1.65,3,3,0,0,1-.25,1.34,1.79,1.79,0,0,1-.73.76,2.09,2.09,0,0,1-1,.27,1.92,1.92,0,0,1-1.47-.59A2.4,2.4,0,0,1,211.46,53.15Zm.75,0a1.91,1.91,0,0,0,.36,1.27,1.19,1.19,0,0,0,1.82,0,1.94,1.94,0,0,0,.36-1.29,1.85,1.85,0,0,0-.36-1.24,1.19,1.19,0,0,0-1.82,0A1.9,1.9,0,0,0,212.22,53.15Z"/><path d="M216.36,55.35V50.94H217v.63a1.55,1.55,0,0,1,1.38-.73,1.78,1.78,0,0,1,.72.14,1.14,1.14,0,0,1,.49.38,1.47,1.47,0,0,1,.23.55,4.33,4.33,0,0,1,0,.73v2.71h-.73V52.67a2,2,0,0,0-.08-.68.72.72,0,0,0-.3-.36,1,1,0,0,0-.51-.13,1.17,1.17,0,0,0-.81.3,1.51,1.51,0,0,0-.34,1.15v2.41Z"/><path d="M224.89,54.68l.11.66a2.66,2.66,0,0,1-.55.07,1.24,1.24,0,0,1-.62-.13.71.71,0,0,1-.31-.34,2.7,2.7,0,0,1-.09-.88V51.53h-.54v-.58h.54V49.85l.73-.45v1.54h.74v.58h-.74V54.1a1.31,1.31,0,0,0,0,.41.3.3,0,0,0,.13.15.48.48,0,0,0,.25.05Z"/><path d="M228.42,54.81a2.71,2.71,0,0,1-.78.5,2.21,2.21,0,0,1-.81.15,1.55,1.55,0,0,1-1.09-.35,1.18,1.18,0,0,1-.38-.91,1.22,1.22,0,0,1,.14-.59,1.2,1.2,0,0,1,.38-.43,1.75,1.75,0,0,1,.53-.24,5.15,5.15,0,0,1,.65-.11,6.57,6.57,0,0,0,1.31-.26c0-.1,0-.17,0-.19a.84.84,0,0,0-.21-.64,1.21,1.21,0,0,0-.83-.25,1.28,1.28,0,0,0-.76.18,1.13,1.13,0,0,0-.36.65l-.72-.1a1.83,1.83,0,0,1,.32-.76,1.4,1.4,0,0,1,.65-.44,2.83,2.83,0,0,1,1-.16,2.55,2.55,0,0,1,.9.13,1,1,0,0,1,.74.84,4.28,4.28,0,0,1,0,.69v1a10.76,10.76,0,0,0,0,1.32,1.67,1.67,0,0,0,.18.53h-.76A1.6,1.6,0,0,1,228.42,54.81Zm-.06-1.67a5.3,5.3,0,0,1-1.2.28,2.69,2.69,0,0,0-.64.15.66.66,0,0,0-.17,1.1.94.94,0,0,0,.65.2,1.48,1.48,0,0,0,.75-.19,1.15,1.15,0,0,0,.48-.52,1.83,1.83,0,0,0,.12-.75Z"/><path d="M230.22,57v-6.1h.67v.57a1.67,1.67,0,0,1,.53-.5,1.44,1.44,0,0,1,.72-.17,1.68,1.68,0,0,1,1,.29,1.77,1.77,0,0,1,.64.82,3.22,3.22,0,0,1,0,2.38,1.81,1.81,0,0,1-.69.83,1.75,1.75,0,0,1-1,.29,1.36,1.36,0,0,1-.66-.16,1.49,1.49,0,0,1-.48-.4V57Zm.66-3.87a2,2,0,0,0,.34,1.26,1,1,0,0,0,.82.41,1.05,1.05,0,0,0,.84-.42,2,2,0,0,0,.35-1.31,2,2,0,0,0-.34-1.26,1,1,0,0,0-.81-.42,1,1,0,0,0-.83.45A2,2,0,0,0,230.88,53.17Z"/><path d="M237.8,53.93l.76.1a1.89,1.89,0,0,1-.66,1.05,2.21,2.21,0,0,1-2.74-.22,2.35,2.35,0,0,1-.56-1.67,2.46,2.46,0,0,1,.56-1.73,1.88,1.88,0,0,1,1.46-.61,1.83,1.83,0,0,1,1.42.6,2.42,2.42,0,0,1,.55,1.69s0,.11,0,.2h-3.22a1.71,1.71,0,0,0,.4,1.11,1.19,1.19,0,0,0,.9.39,1.1,1.1,0,0,0,.69-.22A1.43,1.43,0,0,0,237.8,53.93Zm-2.4-1.21h2.41a1.51,1.51,0,0,0-.28-.83,1.11,1.11,0,0,0-.91-.43,1.15,1.15,0,0,0-.85.34A1.38,1.38,0,0,0,235.4,52.73Z"/><path d="M116.37,63.94l.73.1a1.9,1.9,0,0,1-.62,1.19,1.79,1.79,0,0,1-1.22.43,1.89,1.89,0,0,1-1.46-.59,2.4,2.4,0,0,1-.55-1.7,3.08,3.08,0,0,1,.24-1.25,1.65,1.65,0,0,1,.72-.8,2.14,2.14,0,0,1,1.05-.27,1.83,1.83,0,0,1,1.17.36,1.67,1.67,0,0,1,.58,1l-.73.11a1.2,1.2,0,0,0-.37-.67,1,1,0,0,0-.64-.22,1.16,1.16,0,0,0-.92.4,1.92,1.92,0,0,0-.35,1.28,2,2,0,0,0,.34,1.29,1.11,1.11,0,0,0,.89.4,1,1,0,0,0,.73-.27A1.34,1.34,0,0,0,116.37,63.94Z"/><path d="M117.47,63.35a2.27,2.27,0,0,1,.68-1.81,2.05,2.05,0,0,1,1.39-.49,2,2,0,0,1,1.49.6,2.26,2.26,0,0,1,.58,1.65,2.92,2.92,0,0,1-.26,1.34,1.81,1.81,0,0,1-.74.76,2.16,2.16,0,0,1-1.06.27,2,2,0,0,1-1.5-.59A2.37,2.37,0,0,1,117.47,63.35Zm.77,0a1.88,1.88,0,0,0,.37,1.27,1.23,1.23,0,0,0,1.85,0,1.92,1.92,0,0,0,.37-1.29,1.82,1.82,0,0,0-.37-1.24,1.23,1.23,0,0,0-1.85,0A1.87,1.87,0,0,0,118.23,63.35Z"/><path d="M122.47,65.55V61.14h.67v.62a1.55,1.55,0,0,1,1.34-.72,1.45,1.45,0,0,1,.8.2,1.09,1.09,0,0,1,.44.57,1.58,1.58,0,0,1,1.36-.77,1.34,1.34,0,0,1,1,.36,1.55,1.55,0,0,1,.35,1.12v3h-.74V62.78a2.06,2.06,0,0,0-.07-.65.62.62,0,0,0-.26-.32.82.82,0,0,0-.45-.12,1,1,0,0,0-.77.31,1.36,1.36,0,0,0-.31,1v2.56h-.75V62.69a1.26,1.26,0,0,0-.18-.75.69.69,0,0,0-.6-.25,1.08,1.08,0,0,0-.58.17.94.94,0,0,0-.39.49,2.75,2.75,0,0,0-.12.92v2.29Z"/><path d="M129.55,67.24v-6.1h.68v.57a1.67,1.67,0,0,1,.54-.5,1.5,1.5,0,0,1,.73-.17,1.74,1.74,0,0,1,1,.29,1.78,1.78,0,0,1,.65.82,3,3,0,0,1,.22,1.16,2.94,2.94,0,0,1-.24,1.22,1.83,1.83,0,0,1-.71.83,1.81,1.81,0,0,1-1,.29,1.41,1.41,0,0,1-.67-.16,1.52,1.52,0,0,1-.49-.4v2.15Zm.68-3.87a1.91,1.91,0,0,0,.34,1.26,1.06,1.06,0,0,0,.83.41,1.08,1.08,0,0,0,.85-.42,2,2,0,0,0,.35-1.31,2,2,0,0,0-.35-1.26,1,1,0,0,0-.83-.42,1.08,1.08,0,0,0-.84.45A2,2,0,0,0,130.23,63.37Z"/><path d="M137.15,65a2.77,2.77,0,0,1-.8.5,2.3,2.3,0,0,1-.82.15,1.6,1.6,0,0,1-1.12-.35,1.17,1.17,0,0,1-.39-.91,1.2,1.2,0,0,1,.15-.59,1.22,1.22,0,0,1,.39-.43,1.81,1.81,0,0,1,.54-.24,5.33,5.33,0,0,1,.66-.11,6.79,6.79,0,0,0,1.33-.26c0-.1,0-.17,0-.19a.83.83,0,0,0-.21-.64,1.25,1.25,0,0,0-.85-.25,1.32,1.32,0,0,0-.78.18,1.12,1.12,0,0,0-.37.65l-.73-.1a1.81,1.81,0,0,1,.33-.76,1.43,1.43,0,0,1,.66-.44,2.93,2.93,0,0,1,1-.16,2.64,2.64,0,0,1,.92.13,1.21,1.21,0,0,1,.52.33,1.18,1.18,0,0,1,.23.51,4.17,4.17,0,0,1,0,.69v1a10.47,10.47,0,0,0,0,1.32,1.68,1.68,0,0,0,.19.53h-.78A1.57,1.57,0,0,1,137.15,65Zm-.06-1.67a5.5,5.5,0,0,1-1.22.28,2.77,2.77,0,0,0-.65.15.65.65,0,0,0-.29.24.64.64,0,0,0-.1.35.63.63,0,0,0,.23.5,1,1,0,0,0,.66.2,1.54,1.54,0,0,0,.77-.19,1.16,1.16,0,0,0,.49-.52,1.81,1.81,0,0,0,.12-.75Z"/><path d="M140.64,64.88l.11.66a2.76,2.76,0,0,1-.56.07,1.28,1.28,0,0,1-.63-.13.72.72,0,0,1-.32-.34,2.68,2.68,0,0,1-.09-.88V61.73h-.55v-.58h.55V60.05l.74-.45v1.54h.75v.58h-.75V64.3a1.27,1.27,0,0,0,0,.41.3.3,0,0,0,.13.15.49.49,0,0,0,.25.05Z"/><path d="M141.37,60.33v-.86h.75v.86Zm0,5.23V61.14h.75v4.41Z"/><path d="M143.95,65.55h-.69V59.47H144v2.17a1.48,1.48,0,0,1,1.21-.59,1.85,1.85,0,0,1,.77.16,1.57,1.57,0,0,1,.6.46,2.22,2.22,0,0,1,.37.72,2.94,2.94,0,0,1,.13.9,2.52,2.52,0,0,1-.56,1.75,1.75,1.75,0,0,1-1.34.62,1.4,1.4,0,0,1-1.22-.65Zm0-2.24a2.29,2.29,0,0,0,.21,1.15,1.07,1.07,0,0,0,1.8.15,1.93,1.93,0,0,0,.36-1.27,2,2,0,0,0-.34-1.27,1,1,0,0,0-.83-.41,1.08,1.08,0,0,0-.85.43A1.87,1.87,0,0,0,143.94,63.31Z"/><path d="M148,65.55V59.47h.75v6.08Z"/><path d="M152.89,64.13l.77.1a1.88,1.88,0,0,1-.68,1.05,2,2,0,0,1-1.26.37,2,2,0,0,1-1.53-.6,2.32,2.32,0,0,1-.57-1.67,2.43,2.43,0,0,1,.57-1.73,1.94,1.94,0,0,1,1.49-.61,1.88,1.88,0,0,1,1.44.6,2.39,2.39,0,0,1,.56,1.69s0,.11,0,.2h-3.29a1.69,1.69,0,0,0,.41,1.11,1.23,1.23,0,0,0,.92.39,1.14,1.14,0,0,0,.7-.22A1.43,1.43,0,0,0,152.89,64.13Zm-2.45-1.21h2.46a1.5,1.5,0,0,0-.28-.83,1.15,1.15,0,0,0-.93-.43,1.19,1.19,0,0,0-.87.34A1.37,1.37,0,0,0,150.44,62.93Z"/><path d="M157.77,65.55l-1.35-4.41h.77l.7,2.54.26.95.23-.91.7-2.58h.77l.66,2.56.22.84.25-.85.76-2.55h.73l-1.38,4.41h-.78l-.7-2.64-.17-.75-.89,3.39Z"/><path d="M163.1,60.33v-.86h.75v.86Zm0,5.23V61.14h.75v4.41Z"/><path d="M166.62,64.88l.11.66a2.76,2.76,0,0,1-.56.07,1.28,1.28,0,0,1-.63-.13.73.73,0,0,1-.32-.34,2.66,2.66,0,0,1-.09-.88V61.73h-.55v-.58h.55V60.05l.74-.45v1.54h.75v.58h-.75V64.3a1.33,1.33,0,0,0,0,.41.32.32,0,0,0,.13.15.5.5,0,0,0,.26.05Z"/><path d="M167.35,65.55V59.47h.75v2.18a1.67,1.67,0,0,1,1.32-.61,1.78,1.78,0,0,1,.85.19,1.13,1.13,0,0,1,.52.53,2.46,2.46,0,0,1,.16,1v2.79h-.75V62.76a1.15,1.15,0,0,0-.24-.82.9.9,0,0,0-.69-.26,1.21,1.21,0,0,0-.62.17,1,1,0,0,0-.42.47,2.12,2.12,0,0,0-.12.81v2.41Z"/><path d="M174.44,67.24v-6.1h.68v.57a1.67,1.67,0,0,1,.54-.5,1.5,1.5,0,0,1,.73-.17,1.74,1.74,0,0,1,1,.29,1.78,1.78,0,0,1,.65.82,3,3,0,0,1,.22,1.16,2.94,2.94,0,0,1-.24,1.22,1.83,1.83,0,0,1-.71.83,1.81,1.81,0,0,1-1,.29,1.41,1.41,0,0,1-.67-.16,1.52,1.52,0,0,1-.49-.4v2.15Zm.68-3.87a1.91,1.91,0,0,0,.34,1.26,1.06,1.06,0,0,0,.83.41,1.08,1.08,0,0,0,.85-.42,2,2,0,0,0,.35-1.31,2,2,0,0,0-.35-1.26,1,1,0,0,0-.83-.42,1.08,1.08,0,0,0-.84.45A2,2,0,0,0,175.11,63.37Z"/><path d="M179.16,65.55V61.14h.67v.67a1.81,1.81,0,0,1,.47-.62.83.83,0,0,1,.48-.15,1.46,1.46,0,0,1,.77.24l-.26.69a1.07,1.07,0,0,0-.55-.16.71.71,0,0,0-.44.15.79.79,0,0,0-.28.41,2.88,2.88,0,0,0-.12.87v2.31Z"/><path d="M181.72,63.35a2.27,2.27,0,0,1,.68-1.81,2,2,0,0,1,1.39-.49,2,2,0,0,1,1.49.6,2.27,2.27,0,0,1,.58,1.65,2.92,2.92,0,0,1-.26,1.34,1.81,1.81,0,0,1-.74.76,2.16,2.16,0,0,1-1.06.27,2,2,0,0,1-1.5-.59A2.37,2.37,0,0,1,181.72,63.35Zm.77,0a1.88,1.88,0,0,0,.37,1.27,1.23,1.23,0,0,0,1.85,0,1.92,1.92,0,0,0,.37-1.29,1.82,1.82,0,0,0-.37-1.24,1.23,1.23,0,0,0-1.85,0A1.87,1.87,0,0,0,182.48,63.35Z"/><path d="M186.72,67.24v-6.1h.68v.57a1.67,1.67,0,0,1,.54-.5,1.5,1.5,0,0,1,.73-.17,1.74,1.74,0,0,1,1,.29,1.78,1.78,0,0,1,.65.82,3,3,0,0,1,.22,1.16,2.94,2.94,0,0,1-.24,1.22,1.83,1.83,0,0,1-.71.83,1.81,1.81,0,0,1-1,.29,1.41,1.41,0,0,1-.67-.16,1.52,1.52,0,0,1-.49-.4v2.15Zm.68-3.87a1.91,1.91,0,0,0,.34,1.26,1.06,1.06,0,0,0,.83.41,1.08,1.08,0,0,0,.85-.42,2,2,0,0,0,.35-1.31,2,2,0,0,0-.35-1.26,1,1,0,0,0-.83-.42,1.08,1.08,0,0,0-.84.45A2,2,0,0,0,187.4,63.37Z"/><path d="M194.33,65a2.77,2.77,0,0,1-.8.5,2.3,2.3,0,0,1-.82.15,1.6,1.6,0,0,1-1.12-.35,1.17,1.17,0,0,1-.39-.91,1.2,1.2,0,0,1,.15-.59,1.22,1.22,0,0,1,.39-.43,1.81,1.81,0,0,1,.54-.24,5.33,5.33,0,0,1,.66-.11,6.79,6.79,0,0,0,1.33-.26c0-.1,0-.17,0-.19a.83.83,0,0,0-.21-.64,1.25,1.25,0,0,0-.85-.25,1.32,1.32,0,0,0-.78.18,1.12,1.12,0,0,0-.37.65l-.73-.1a1.81,1.81,0,0,1,.33-.76,1.43,1.43,0,0,1,.66-.44,2.93,2.93,0,0,1,1-.16,2.64,2.64,0,0,1,.92.13,1.21,1.21,0,0,1,.52.33A1.18,1.18,0,0,1,195,62a4.17,4.17,0,0,1,0,.69v1a10.47,10.47,0,0,0,0,1.32,1.68,1.68,0,0,0,.19.53h-.78A1.57,1.57,0,0,1,194.33,65Zm-.06-1.67a5.5,5.5,0,0,1-1.22.28,2.77,2.77,0,0,0-.65.15.65.65,0,0,0-.29.24.64.64,0,0,0-.1.35.63.63,0,0,0,.23.5,1,1,0,0,0,.66.2,1.54,1.54,0,0,0,.77-.19,1.16,1.16,0,0,0,.49-.52,1.81,1.81,0,0,0,.12-.75Z"/><path d="M196.18,65.55V61.14h.67v.63a1.59,1.59,0,0,1,1.4-.73,1.84,1.84,0,0,1,.73.14,1.15,1.15,0,0,1,.5.38,1.44,1.44,0,0,1,.23.55,4.19,4.19,0,0,1,0,.73v2.71H199V62.87a2,2,0,0,0-.09-.68.71.71,0,0,0-.31-.36,1,1,0,0,0-.52-.13,1.21,1.21,0,0,0-.82.3,1.49,1.49,0,0,0-.35,1.15v2.41Z"/><path d="M203.92,64.13l.77.1a1.88,1.88,0,0,1-.68,1.05,2,2,0,0,1-1.26.37,2,2,0,0,1-1.53-.6,2.32,2.32,0,0,1-.57-1.67,2.43,2.43,0,0,1,.57-1.73,1.94,1.94,0,0,1,1.49-.61,1.88,1.88,0,0,1,1.44.6,2.39,2.39,0,0,1,.56,1.69s0,.11,0,.2h-3.29a1.69,1.69,0,0,0,.41,1.11,1.23,1.23,0,0,0,.92.39,1.14,1.14,0,0,0,.7-.22A1.43,1.43,0,0,0,203.92,64.13Zm-2.45-1.21h2.46a1.5,1.5,0,0,0-.28-.83,1.15,1.15,0,0,0-.93-.43,1.19,1.19,0,0,0-.87.34A1.37,1.37,0,0,0,201.47,62.93Z"/><path d="M207.86,65.92l.73.11a.69.69,0,0,0,.25.49,1.25,1.25,0,0,0,.76.21,1.33,1.33,0,0,0,.8-.21,1,1,0,0,0,.38-.58,4.82,4.82,0,0,0,.05-1,1.54,1.54,0,0,1-1.22.58,1.66,1.66,0,0,1-1.41-.66,2.52,2.52,0,0,1-.5-1.57,2.93,2.93,0,0,1,.23-1.16,1.83,1.83,0,0,1,.66-.82,1.79,1.79,0,0,1,1-.29,1.58,1.58,0,0,1,1.29.63v-.53h.69V65a3.64,3.64,0,0,1-.21,1.46,1.54,1.54,0,0,1-.66.68,2.3,2.3,0,0,1-1.12.25,2.11,2.11,0,0,1-1.27-.35A1.2,1.2,0,0,1,207.86,65.92Zm.62-2.65a1.91,1.91,0,0,0,.34,1.27,1.09,1.09,0,0,0,.86.4,1.1,1.1,0,0,0,.86-.4,1.85,1.85,0,0,0,.35-1.24,1.8,1.8,0,0,0-.36-1.22,1.11,1.11,0,0,0-.87-.41,1.08,1.08,0,0,0-.85.4A1.8,1.8,0,0,0,208.47,63.27Z"/><path d="M215.6,65a2.78,2.78,0,0,1-.8.5,2.3,2.3,0,0,1-.82.15,1.6,1.6,0,0,1-1.12-.35,1.17,1.17,0,0,1-.39-.91,1.23,1.23,0,0,1,.53-1,1.81,1.81,0,0,1,.54-.24,5.27,5.27,0,0,1,.66-.11,6.83,6.83,0,0,0,1.33-.26c0-.1,0-.17,0-.19a.83.83,0,0,0-.21-.64,1.25,1.25,0,0,0-.85-.25,1.32,1.32,0,0,0-.78.18,1.13,1.13,0,0,0-.37.65l-.73-.1a1.81,1.81,0,0,1,.33-.76,1.44,1.44,0,0,1,.66-.44,2.94,2.94,0,0,1,1-.16,2.65,2.65,0,0,1,.92.13,1.21,1.21,0,0,1,.52.33,1.18,1.18,0,0,1,.23.51,4.25,4.25,0,0,1,0,.69v1a10.76,10.76,0,0,0,0,1.32,1.64,1.64,0,0,0,.19.53h-.78A1.57,1.57,0,0,1,215.6,65Zm-.06-1.67a5.51,5.51,0,0,1-1.22.28,2.8,2.8,0,0,0-.65.15.64.64,0,0,0-.29.24.63.63,0,0,0-.1.35.64.64,0,0,0,.23.5,1,1,0,0,0,.66.2,1.53,1.53,0,0,0,.77-.19,1.16,1.16,0,0,0,.49-.52,1.8,1.8,0,0,0,.12-.75Z"/><path d="M217.15,64.24l.74-.12a1,1,0,0,0,.35.68A1.21,1.21,0,0,0,219,65a1.17,1.17,0,0,0,.76-.21.63.63,0,0,0,.25-.49.45.45,0,0,0-.22-.4,3.24,3.24,0,0,0-.76-.25,6.94,6.94,0,0,1-1.14-.36,1.09,1.09,0,0,1-.65-1,1.14,1.14,0,0,1,.14-.55,1.21,1.21,0,0,1,.37-.42,1.53,1.53,0,0,1,.48-.22,2.25,2.25,0,0,1,.64-.09,2.56,2.56,0,0,1,.91.15,1.24,1.24,0,0,1,.58.4,1.57,1.57,0,0,1,.26.68l-.73.1a.8.8,0,0,0-.29-.53,1,1,0,0,0-.67-.19,1.22,1.22,0,0,0-.73.17.5.5,0,0,0-.22.4.41.41,0,0,0,.09.26.66.66,0,0,0,.29.2l.66.19a9.19,9.19,0,0,1,1.11.35,1.12,1.12,0,0,1,.49.39,1.09,1.09,0,0,1,.18.64,1.25,1.25,0,0,1-.22.7,1.4,1.4,0,0,1-.63.51,2.28,2.28,0,0,1-.93.18,2.07,2.07,0,0,1-1.31-.36A1.65,1.65,0,0,1,217.15,64.24Z"/><path d="M221.91,65.55V64.7h.85v.85Z"/></g></svg>