<svg id="text" xmlns="http://www.w3.org/2000/svg" viewBox="0 0 295.79 130.34"><defs><style>.cls-1,.cls-2,.cls-3,.cls-4,.cls-7{stroke:#000;}.cls-1{stroke-width:0.25px;}.cls-2,.cls-3{stroke-width:0.12px;}.cls-3,.cls-5{fill:#fff;}.cls-4{fill:none;}.cls-6{font-size:10.5px;font-family:Arial-BoldMT, Arial;font-weight:700;}.cls-8{font-size:9px;font-family:ArialMT, Arial;}.cls-9{letter-spacing:-0.06em;}</style></defs><title>wrnng_fre_hzrd_frm_boiler</title><path d="M25,74.65c0-.11.09-3.29.1-3.39.15-1.72.82-6.47.92-7.75.64-8.36.14-10.6-.15-13.17-.05-.44,1.8.85,4.74,5.43.88,1.38,2.1,3.88,2.56,4.33.65.66,1,.3,1.05-.92.18-3.61.83-6.39,1.19-9.17a68.29,68.29,0,0,0,.9-11.86c0-3.23-.23-3.76,1.2-2.33a16,16,0,0,1,4,5.77c.79,1.84,1.33,7.43,2.1,1.92a28.16,28.16,0,0,0,.61-5.37c.08-1.51.25-3.56.33-5.93.24-7.14,1.76-9.48,1.89-9.74.51-1,.92,1.83,1.39,3.61S48.63,28,51,32.46c3.9,7.37,2.69,5.79,4.63,8,4.79,5.37,2.86,13.31,4.64,8,.93-2.81,1.79-4.37,2.07-5.62,1.43-6.41,1.25-4.85,2.61-1.67,1,2.41,4,7.69,3.7,12.47a22.57,22.57,0,0,0,.2,6.6c1.08,8.38,1.23,6.51,2.76,2.27,3.66-10.16,2.91-7.37,3.5-6.11,1.67,3.6,2.72,6,3.05,8.53.94,7.25.64,7.69,0,11.53-1.39,9-4,10.28.39,7.84,1.88-1,2.77-3.34,2.57-1.88C79.24,96.53,78.65,97,73.27,103.19c-5,5.79-11.57,7.42-18.18,8.2a55.43,55.43,0,0,1-17.87-.87,22.08,22.08,0,0,1-11.79-6c-5.14-5.45-5.43-9-5.89-16.09,0-.3,0-2.6,0-2.88,0-.73,0,.63,0-3.16,0-7.65,0-14.78-.37-16.53-.3-1.32,3,2.18,5.8,8.74Z"/><rect class="cls-1" x="27.09" y="112.8" width="43.03" height="2.22"/><path class="cls-2" d="M57.9,33a8.15,8.15,0,0,1,.87-2.83c.55-.72.21-.76,3.31-2.69a3.47,3.47,0,0,0,1.57-1.95c.17-.46.37-.91.48-.25A5.31,5.31,0,0,1,64,27.83a3.71,3.71,0,0,1-1,1.7A18.29,18.29,0,0,1,60.62,31a8.86,8.86,0,0,0-2.06,1.7c-.34.41-.66.53-.66.26Z"/><path class="cls-3" d="M46,59.15a8.38,8.38,0,0,1,.87-2.82c.55-.73.21-.76,3.31-2.69a3.51,3.51,0,0,0,1.58-2c.17-.46.37-.91.47-.24A5.31,5.31,0,0,1,52.09,54a3.75,3.75,0,0,1-1,1.7,18.74,18.74,0,0,1-2.33,1.51,8.63,8.63,0,0,0-2.06,1.69c-.35.41-.67.54-.67.26Z"/><path class="cls-2" d="M42.93,19A8.27,8.27,0,0,0,42,16.14c-.56-.71-.22-.76-3.35-2.63a3.49,3.49,0,0,1-1.61-1.93c-.18-.46-.38-.91-.48-.24a5.3,5.3,0,0,0,.18,2.55,3.84,3.84,0,0,0,1.06,1.68A18.29,18.29,0,0,0,40.17,17a8.74,8.74,0,0,1,2.09,1.66c.36.41.68.52.67.25Z"/><path class="cls-3" d="M43.35,111.26a65.8,65.8,0,0,1-8.43-8.63c-2.35-2.94-4.4-6.66-4.81-9.7-.45-3.3-.69-3.9,1.08-.74.11.18.86,1.68,1.31,1.66s.22-2.15.6-4.12a52.33,52.33,0,0,0,.65-5.49c.09-2.72.09-5.38,0-6.15,0-.46-.07-1.38.1-1.4a3.31,3.31,0,0,1,1.54,1.91,21.6,21.6,0,0,1,1.12,5.53c.23,2.66.48,5.06,2.26,7.81a3.5,3.5,0,0,0,2.74,1.66c.42,0,.21-1,0-1.88a18.86,18.86,0,0,1-.39-4.07,19.85,19.85,0,0,1,.26-5.35,27.94,27.94,0,0,1,.94-3.7c1.08-2.59,1-.66,1.08,0A15.53,15.53,0,0,0,43.84,81a17.91,17.91,0,0,0,2.59,5.92c1.55,2.1,2.21,2.21,2.21,2.21a6,6,0,0,0,1.91-2.44,30.08,30.08,0,0,0,2.15-7.27c.41-2.42.32-10.19.52-12.85.08-1.15,3.19,3.51,4.21,6.49a17.11,17.11,0,0,1,1,7.85c-.29,2-.53,2.72.33,3,.17,0,1.39-.56,2.21-2.48S62.7,77.29,63,78.85A28,28,0,0,1,64,85c.1,1.72-1.55,5.49-.47,5.95.25.1.64.05,1.38-.76s1.85-1.85,1.4,0a47.92,47.92,0,0,1-4.06,8.28c-2,3.28-6.08,7-7.92,8.82a47,47,0,0,1-4.69,4.19Z"/><rect class="cls-4" x="0.5" y="0.5" width="294.79" height="129.34"/><polyline points="99.61 27.13 295.29 27.13 295.29 0.67 99.61 0.67"/><path class="cls-5" d="M241.29,16.4V13.77h6.61V20a8.28,8.28,0,0,1-2.79,1.69,10.11,10.11,0,0,1-3.71.72,8.2,8.2,0,0,1-4.16-1,6.57,6.57,0,0,1-2.67-2.94,9.8,9.8,0,0,1-.89-4.16,9.1,9.1,0,0,1,1-4.33,6.74,6.74,0,0,1,2.91-2.9,7.69,7.69,0,0,1,3.64-.78,7.1,7.1,0,0,1,4.42,1.22,5.49,5.49,0,0,1,2,3.37l-3,.58a3.34,3.34,0,0,0-1.21-1.81A3.57,3.57,0,0,0,241.23,9a4.13,4.13,0,0,0-3.2,1.31,5.62,5.62,0,0,0-1.18,3.89,6.2,6.2,0,0,0,1.2,4.16,4,4,0,0,0,3.15,1.39,5.17,5.17,0,0,0,1.94-.39,6.6,6.6,0,0,0,1.66-.94v-2m-25.9,5.74V6.53h3L228.11,17V6.53H231V22.14h-3.09L221.75,12V22.14Zm-6,0V6.53H216V22.14Zm-15.22,0V6.53h3L206.87,17V6.53h2.86V22.14h-3.09L200.52,12V22.14Zm-12.29-9h2.27a11.28,11.28,0,0,0,2.76-.19,1.65,1.65,0,0,0,.87-.66,2.12,2.12,0,0,0,.31-1.17,1.92,1.92,0,0,0-.41-1.27A1.87,1.87,0,0,0,190,9.23c-.25,0-1-.05-2.24-.05h-2.4Zm-3.07,9V6.53h6.47a10.77,10.77,0,0,1,3.54.43,3.55,3.55,0,0,1,1.77,1.49,4.6,4.6,0,0,1,.66,2.46,4.23,4.23,0,0,1-1,2.9,4.79,4.79,0,0,1-3,1.44,7.27,7.27,0,0,1,1.65,1.31,19,19,0,0,1,1.75,2.53L196,22.14H192.3l-2.22-3.4a21.77,21.77,0,0,0-1.62-2.29,2.3,2.3,0,0,0-.92-.65,4.86,4.86,0,0,0-1.55-.18h-.62v6.52ZM175,16l-2.09-5.78L170.86,16Zm5.66,6.18h-3.34L176,18.59h-6.08l-1.25,3.55h-3.26l5.92-15.61h3.25Zm-30.43,0L146.61,6.53h3.14L152,17.25l2.78-10.72h3.65l2.67,10.9,2.33-10.9h3.09l-3.69,15.61h-3.26l-3-11.67-3,11.67Zm-15-6.57a.57.57,0,0,1-.52.53h-.07a.51.51,0,0,1-.51-.53c-1.69-5.49-2.5-9.34.51-9.34S136.86,10.08,135.25,15.57Zm-.59,5.95a1.66,1.66,0,0,1,0-3.31h.07a1.66,1.66,0,0,1-.07,3.31ZM135.91,4.8a1.27,1.27,0,0,0-1.25-.9,1.15,1.15,0,0,0-1.17.9l-8.37,14.77c-1.1,1.88-.15,2.63.95,2.71h17.18c1.17-.08,2.05-.83.95-2.71Z"/><text class="cls-6" transform="translate(155.16 37.25)">Fire Hazard</text><line class="cls-7" x1="99.01" y1="41.02" x2="295.29" y2="41.02"/><line class="cls-7" x1="99.39" y1="129.84" x2="99.39" y2="0.57"/><text class="cls-8" transform="translate(108.29 55.78)">Flamable items, pressurized containers, or <tspan x="0" y="10.8">any other potential fire hazardous articles </tspan><tspan x="0" y="21.6">must never be placed on or adjacent to the </tspan><tspan x="0" y="32.4">boile</tspan><tspan class="cls-9" x="19.02" y="32.4">r</tspan><tspan x="21.52" y="32.4">. Open containers or flamable material </tspan><tspan x="0" y="43.2">should not be stored or used in the same </tspan><tspan x="0" y="54">room with the boile</tspan><tspan class="cls-9" x="75.54" y="54">r</tspan><tspan x="78.04" y="54">.</tspan></text></svg>