<svg xmlns="http://www.w3.org/2000/svg" viewBox="0 0 242.95 341.19"><defs><style>.cls-1,.cls-11,.cls-13,.cls-5{fill:#fff;}.cls-10,.cls-11,.cls-12,.cls-2,.cls-3,.cls-4,.cls-6,.cls-7,.cls-8,.cls-9{stroke:#000;}.cls-2,.cls-3{stroke-width:1.22px;}.cls-10,.cls-12,.cls-3,.cls-6,.cls-7,.cls-8,.cls-9{fill:none;}.cls-12,.cls-4,.cls-5{stroke-width:0.65px;}.cls-13,.cls-5{stroke:#fff;}.cls-6{stroke-width:0.31px;}.cls-7{stroke-width:0.62px;}.cls-8{stroke-width:0.31px;}.cls-9{stroke-width:0.61px;}.cls-10,.cls-11,.cls-13{stroke-width:0.33px;}.cls-14{font-size:10.7px;font-family:Arial-BoldMT, Arial;font-weight:700;}.cls-15{font-size:10px;}.cls-15,.cls-16,.cls-19,.cls-20,.cls-21,.cls-23,.cls-26,.cls-38,.cls-41,.cls-42,.cls-45,.cls-46,.cls-48,.cls-50,.cls-51,.cls-55,.cls-56,.cls-58,.cls-60,.cls-61,.cls-63,.cls-68{font-family:ArialMT, Arial;}.cls-16,.cls-19{font-size:7.25px;}.cls-17,.cls-19{letter-spacing:0.07em;}.cls-18,.cls-20,.cls-21,.cls-23,.cls-26,.cls-38,.cls-41,.cls-42,.cls-45,.cls-46,.cls-48,.cls-50,.cls-51,.cls-55,.cls-56,.cls-58,.cls-60,.cls-61,.cls-63,.cls-64{font-size:7.5px;}.cls-20{letter-spacing:0em;}.cls-22,.cls-41{letter-spacing:0.55em;}.cls-23{letter-spacing:0.71em;}.cls-24{letter-spacing:-0.02em;}.cls-25{letter-spacing:-0.1em;}.cls-26{letter-spacing:-0.1em;}.cls-27{letter-spacing:-0.06em;}.cls-28{letter-spacing:-0.02em;}.cls-29{letter-spacing:-0.08em;}.cls-30{letter-spacing:-0.12em;}.cls-31{letter-spacing:-0.14em;}.cls-32{letter-spacing:0.66em;}.cls-33{letter-spacing:-0.02em;}.cls-34{letter-spacing:0em;}.cls-35{letter-spacing:-0.02em;}.cls-36{letter-spacing:-0.06em;}.cls-37{letter-spacing:-0.06em;}.cls-38{letter-spacing:0em;}.cls-39{letter-spacing:-0.02em;}.cls-40{letter-spacing:0em;}.cls-42,.cls-64{letter-spacing:0em;}.cls-43{letter-spacing:-0.05em;}.cls-44{letter-spacing:-0.02em;}.cls-45{letter-spacing:0.01em;}.cls-46{letter-spacing:0em;}.cls-47{letter-spacing:0.57em;}.cls-48{letter-spacing:0em;}.cls-49{letter-spacing:0.52em;}.cls-50{letter-spacing:0em;}.cls-51{letter-spacing:0.56em;}.cls-52{letter-spacing:0em;}.cls-53{letter-spacing:-0.05em;}.cls-54{letter-spacing:0em;}.cls-55{letter-spacing:0.01em;}.cls-56{letter-spacing:0.46em;}.cls-57{letter-spacing:0.01em;}.cls-58{letter-spacing:0.01em;}.cls-59{letter-spacing:0.01em;}.cls-60{letter-spacing:0.6em;}.cls-61{letter-spacing:0.49em;}.cls-62{letter-spacing:0em;}.cls-63{letter-spacing:0em;}.cls-65{letter-spacing:0em;}.cls-66{letter-spacing:-0.06em;}.cls-67{letter-spacing:0em;}.cls-68{font-size:8.5px;}.cls-69{letter-spacing:-0.06em;}</style></defs><title>wrnng_brthng-hzrd_CO-gas_precautions</title><g id="text"><rect x="0.45" y="0.33" width="241.93" height="28.34"/><path class="cls-1" d="M177.64,17V14.39h6.5v6.1a8.13,8.13,0,0,1-2.75,1.65,9.72,9.72,0,0,1-3.64.72,8,8,0,0,1-4.08-1A6.3,6.3,0,0,1,171.06,19a9.43,9.43,0,0,1-.88-4.08,9.07,9.07,0,0,1,1-4.26A6.59,6.59,0,0,1,174,7.79,7.51,7.51,0,0,1,177.59,7a7,7,0,0,1,4.34,1.2,5.45,5.45,0,0,1,2,3.3l-3,.58a3.24,3.24,0,0,0-1.19-1.78,3.48,3.48,0,0,0-2.17-.66A4,4,0,0,0,174.45,11a5.5,5.5,0,0,0-1.17,3.81,6.09,6.09,0,0,0,1.19,4.09,3.87,3.87,0,0,0,3.09,1.37,5,5,0,0,0,1.9-.39,6.36,6.36,0,0,0,1.63-.92V17M155.67,22.6V7.28h2.93l6.11,10.23V7.28h2.8V22.6h-3l-6-10v10Zm-5.91,0V7.28h3V22.6Zm-14.94,0V7.28h2.93l6.11,10.23V7.28h2.8V22.6h-3l-6-10v10Zm-12.06-8.84H125a11,11,0,0,0,2.71-.19,1.56,1.56,0,0,0,.84-.65,2,2,0,0,0,.31-1.14,1.89,1.89,0,0,0-.4-1.25,1.81,1.81,0,0,0-1.14-.6c-.24,0-1,0-2.2,0h-2.35Zm-3,8.84V7.28h6.34a10.49,10.49,0,0,1,3.48.42,3.41,3.41,0,0,1,1.73,1.46,4.48,4.48,0,0,1,.65,2.42,4.2,4.2,0,0,1-1,2.85,4.79,4.79,0,0,1-3,1.41,7,7,0,0,1,1.62,1.28,18.32,18.32,0,0,1,1.71,2.49l1.82,3h-3.6l-2.18-3.34A20.26,20.26,0,0,0,125.79,17a2.31,2.31,0,0,0-.9-.64,5.13,5.13,0,0,0-1.52-.16h-.61V22.6Zm-7.16-6.06-2.06-5.68-2,5.68Zm5.55,6.06h-3.28l-1.3-3.48h-6l-1.23,3.48h-3.2L109,7.28h3.18Zm-29.87,0L84.71,7.28h3.08L90,17.8,92.77,7.28h3.58L99,18l2.29-10.7h3L100.67,22.6h-3.2l-3-11.45-3,11.45Z"/><line class="cls-2" x1="0.44" y1="44.36" x2="241.81" y2="44.36"/><rect class="cls-3" x="0.61" y="0.61" width="241.73" height="339.98"/><path class="cls-1" d="M72.94,4l-11,19H84.28ZM74.1,21.5H71.7V19.14h2.4Zm-.52-3.64H72.22l-.62-6.27V8.69h2.59v2.9Z"/><path class="cls-4" d="M.63,266.87c15.87-7.77,14.89-9.41,26.08-12.49,5.91-1.63,18.41-1.49,23.31.41,4.15,1.6,10.58,4.62,10.58,4.62l18.1,10.17s.07,17.81-.39,17.35S56.49,274.5,56.49,274.5v41.28l-38.13.05-.07-41L.89,284.26Z"/><path class="cls-4" d="M24.49,235.39s-2,0-1.81-1.21c.25-1.45,9-11,9-11a9,9,0,0,1,6.2-2.91c6.37-.2,10,2.12,12.73,5.27,1.15,1.32,3.15,4.53,2.37,7.58C52.5,235,50.5,239,48.67,243.31c-1.5,3.55-3,7.95-5.51,8.65-3.4,1-10.37-3.13-17.47-6.45-3.21-1.5-2.36-4.46-1.67-6.29s2.33-3.4.41-3.83Z"/><path class="cls-5" d="M33.45,230.2c-.2.9-.88,1.52-1.53,1.37s-1-1-.8-1.89.89-1.51,1.53-1.36S33.65,229.3,33.45,230.2Z"/><path class="cls-6" d="M19.85,214.4c.46,1.1-.09,1.35.46,1.1s.54.15.59-.4.71-.35,0-.75A.85.85,0,0,0,19.85,214.4Z"/><path class="cls-6" d="M16,214.4c.25,1.4-.34.95.2.7s.55.15.59-.4.72-.35.05-.75S16,214.4,16,214.4Z"/><path class="cls-6" d="M17.63,220c-1.14-.44-.52-.82-.62-.14s-.38.49,0,.81-.11.91.52.42A.73.73,0,0,0,17.63,220Z"/><path class="cls-6" d="M11.25,219.17c-1.14-.45-.22-.66-.61-.14s-.58.49-.2.81,0,.63.67.15S11.25,219.17,11.25,219.17Z"/><path class="cls-6" d="M24.75,221.26c-.38,1.36-.55.27-.12.73s.41.68.68.24.53,0,.13-.8S24.75,221.26,24.75,221.26Z"/><path class="cls-6" d="M19.65,224c.41,1.1-.08,1.35.41,1.1s.5.15.54-.4.65-.35,0-.75A.73.73,0,0,0,19.65,224Z"/><path class="cls-6" d="M13.93,227.47c.46,1.09-.09,1.34.46,1.09s.54.15.59-.39.71-.35,0-.75A.85.85,0,0,0,13.93,227.47Z"/><path class="cls-6" d="M9.11,226.36c1-.35,1.1.33,1-.35s.22-.61-.23-.75-.17-.9-.61-.18A1.32,1.32,0,0,0,9.11,226.36Z"/><path class="cls-6" d="M7.33,221.71c-1,.46-1.13-.21-1,.46s-.17.63.28.73.24.87.63.11A1.35,1.35,0,0,0,7.33,221.71Z"/><path class="cls-6" d="M8.56,227.94C9,229,8.48,229.29,9,229s.55.15.59-.4.71-.35,0-.75A.85.85,0,0,0,8.56,227.94Z"/><path class="cls-6" d="M7.83,231.92c-.65,1-1.07.46-.65,1s.11.65.55.47.56.63.59-.26A1.2,1.2,0,0,0,7.83,231.92Z"/><path class="cls-6" d="M12.09,236.42c.46,1.1-.09,1.35.46,1.1s.54.15.59-.4.71-.35,0-.75A.85.85,0,0,0,12.09,236.42Z"/><path class="cls-6" d="M12.3,241.85c-.71.89-1.09.36-.71.89s.06.66.51.52.52.68.61-.2A1.24,1.24,0,0,0,12.3,241.85Z"/><path class="cls-6" d="M14.14,246.46c.38.9-.06,1.1.38.9s.45.12.48-.33.59-.29,0-.61A.71.71,0,0,0,14.14,246.46Z"/><path class="cls-6" d="M14.37,249.27c.37.9-.07,1.1.37.9s.45.12.49-.33.58-.29,0-.61A.69.69,0,0,0,14.37,249.27Z"/><path class="cls-6" d="M14.69,223.15c-1.14-.45-.22-.65-.61-.14-.49.66-.57.49-.2.81s0,.63.68.15S14.69,223.15,14.69,223.15Z"/><path class="cls-6" d="M18,231.48c-1.14-.45-.22-.66-.61-.14s-.58.49-.2.81,0,.63.67.15S18,231.48,18,231.48Z"/><path class="cls-6" d="M15.2,231.28c-1.14-.45-.23-.66-.62-.14s-.57.49-.19.81,0,.63.67.15S15.2,231.28,15.2,231.28Z"/><path class="cls-6" d="M25.57,226.94c-1.14-.45-.23-.66-.61-.14s-.58.49-.2.81,0,.63.67.15S25.57,226.94,25.57,226.94Z"/><path class="cls-6" d="M15.2,216.67c-1.14-.45-.23-.66-.62-.14s-.57.48-.19.8,0,.64.67.15S15.2,216.67,15.2,216.67Z"/><path class="cls-6" d="M10.37,232.18c-1.14-.45-.23-.66-.61-.14s-.58.48-.2.81,0,.63.67.14S10.37,232.18,10.37,232.18Z"/><path class="cls-7" d="M17.89,226c-1.15-.44-.23-.65-.62-.14s-.57.49-.19.81,0,.64.67.15S17.89,226,17.89,226Z"/><path class="cls-6" d="M5.42,226c-1.15-.44-.23-.65-.62-.14s-.57.49-.2.81.05.64.68.15S5.42,226,5.42,226Z"/><path class="cls-6" d="M7.58,225.11c-.62.29-.72-.14-.62.29s-.11.41.19.47.15.57.4.07A.86.86,0,0,0,7.58,225.11Z"/><path class="cls-6" d="M14.76,219.74c-.62.29-.72-.14-.62.29s-.11.41.19.47.15.57.4.07A.86.86,0,0,0,14.76,219.74Z"/><path class="cls-7" d="M12.86,233.05c-1.14-.45-.22-.66-.61-.14s-.58.48-.2.81,0,.63.67.14S12.86,233.05,12.86,233.05Z"/><path class="cls-7" d="M5,231.2c-1.14-.45-.22-.66-.61-.13s-.57.48-.2.8,0,.64.68.15S5,231.2,5,231.2Z"/><path class="cls-6" d="M18.32,217.39c-1.14-.45-.23-.66-.62-.14s-.57.48-.19.8,0,.64.67.16S18.32,217.39,18.32,217.39Z"/><path class="cls-6" d="M11.77,223.67c-1.15-.45-.23-.66-.62-.13s-.57.48-.19.8,0,.63.67.15S11.77,223.67,11.77,223.67Z"/><path class="cls-6" d="M21,226.67c-.08-1.42.43-.49-.12-.73s-.6-.45-.71.09-.48.29.14.8S21,226.67,21,226.67Z"/><path class="cls-6" d="M19,230.12c.34-1.37.55-.29.1-.73s-.43-.67-.69-.21-.53.08-.1.81S19,230.12,19,230.12Z"/><path class="cls-6" d="M21,237.41c.33-1.37.54-.29.09-.73s-.43-.66-.68-.2-.53.07-.1.8S21,237.41,21,237.41Z"/><path class="cls-6" d="M15.84,240.11c.33-1.38.54-.29.09-.74s-.43-.66-.68-.2-.54.07-.11.8S15.84,240.11,15.84,240.11Z"/><path class="cls-7" d="M9.24,240.26c.34-1.38.55-.3.1-.74s-.43-.66-.69-.2-.53.07-.1.8S9.24,240.26,9.24,240.26Z"/><path class="cls-6" d="M4.4,239c.33-1.37.54-.29.09-.73s-.43-.67-.69-.21-.53.07-.1.8S4.4,239,4.4,239Z"/><path class="cls-6" d="M4.73,241.7c-.65,1-1.07.47-.65,1s.1.65.54.47.56.63.59-.27A1.2,1.2,0,0,0,4.73,241.7Z"/><path class="cls-7" d="M12.5,244.6c-.66,1-1.07.46-.66,1s.11.65.55.47.56.63.59-.26A1.2,1.2,0,0,0,12.5,244.6Z"/><path class="cls-6" d="M25.6,229.09c-.66.95-1.07.46-.66.95s.11.65.55.47.56.63.59-.26A1.2,1.2,0,0,0,25.6,229.09Z"/><path class="cls-6" d="M15.66,244.15c.34-1.37.55-.29.1-.73s-.43-.66-.69-.2-.53.07-.1.8S15.66,244.15,15.66,244.15Z"/><path class="cls-6" d="M17.73,241.39c.37.9-.07,1.1.37.9s.45.12.49-.33.58-.29,0-.62A.7.7,0,0,0,17.73,241.39Z"/><path class="cls-6" d="M8.87,242.13c.37.91-.07,1.11.37.91s.45.12.49-.33.58-.29,0-.62A.71.71,0,0,0,8.87,242.13Z"/><path class="cls-6" d="M6.94,245.38c.37.9-.08,1.1.37.9s.45.12.48-.33.59-.29,0-.61A.69.69,0,0,0,6.94,245.38Z"/><path class="cls-6" d="M10.37,246.8c.34-1.38.55-.29.1-.74s-.43-.66-.69-.2-.53.07-.1.8S10.37,246.8,10.37,246.8Z"/><path class="cls-7" d="M7.31,243.21c.33-1.37.54-.29.09-.74s-.43-.66-.68-.2-.53.07-.1.8S7.31,243.21,7.31,243.21Z"/><path class="cls-6" d="M8.23,236.67c.34-1.37.55-.29.1-.73s-.43-.66-.69-.21-.53.08-.1.81S8.23,236.67,8.23,236.67Z"/><path class="cls-6" d="M6.44,239c.38.91-.07,1.11.38.91s.44.12.48-.33.58-.29,0-.62A.69.69,0,0,0,6.44,239Z"/><path class="cls-6" d="M21.93,228.63c.31.93-.15,1.09.31.93s.44.17.5-.28.6-.22.08-.61A.69.69,0,0,0,21.93,228.63Z"/><path class="cls-6" d="M21.34,245.52c.38.9-.07,1.1.38.9s.45.12.48-.33.59-.29,0-.61A.71.71,0,0,0,21.34,245.52Z"/><path class="cls-7" d="M18.64,245.15c.34-1.37.55-.29.1-.73s-.43-.66-.69-.21-.53.08-.1.81S18.64,245.15,18.64,245.15Z"/><path class="cls-7" d="M24.23,243.7c.34-1.36.54-.29.09-.73s-.42-.66-.68-.2-.53.07-.1.8S24.23,243.7,24.23,243.7Z"/><path class="cls-6" d="M19.81,248.86c.37.9-.07,1.11.37.9s.45.12.48-.33.59-.28,0-.61A.69.69,0,0,0,19.81,248.86Z"/><path class="cls-6" d="M5.05,234.85c.38.9-.07,1.1.38.9s.45.12.48-.33.59-.29,0-.62A.7.7,0,0,0,5.05,234.85Z"/><path class="cls-6" d="M10.44,235.87c-.62.29-.72-.14-.62.29s-.11.41.19.47.15.57.4.07A.85.85,0,0,0,10.44,235.87Z"/><path class="cls-6" d="M23.54,240c-.62.3-.73-.14-.62.3s-.11.4.19.46.14.57.4.08A.87.87,0,0,0,23.54,240Z"/><path class="cls-6" d="M21.05,242.64c-.61.3-.72-.13-.61.3s-.11.4.18.46.15.57.4.08A.87.87,0,0,0,21.05,242.64Z"/><path class="cls-6" d="M18,246.94c-.61.3-.72-.13-.61.3s-.11.4.18.47.15.56.4.07A.85.85,0,0,0,18,246.94Z"/><path class="cls-6" d="M19.81,238.45c-1,.25-1.07-.44-1,.25s-.26.59.18.78.1.91.6.24A1.34,1.34,0,0,0,19.81,238.45Z"/><path class="cls-7" d="M8.28,220.34c.93-.53,1.14.12.93-.53s.14-.65-.32-.71-.28-.85-.63-.06A1.34,1.34,0,0,0,8.28,220.34Z"/><path class="cls-6" d="M10,222.36c-1.14-.45-.22-.65-.61-.14-.49.66-.58.49-.2.81s0,.64.67.15S10,222.36,10,222.36Z"/><path class="cls-6" d="M18.21,223c-1.14-.45-.23-.66-.61-.14s-.58.49-.2.81,0,.63.67.15S18.21,223,18.21,223Z"/><path class="cls-7" d="M11.89,216.67c-.63,1.21-.59.1-.25.67.42.72.26.78.61.42s.53.1.28-.74S11.89,216.67,11.89,216.67Z"/><path class="cls-6" d="M13.7,213.54c-1.14-.45-.23-.66-.62-.14s-.57.48-.19.8,0,.64.67.15S13.7,213.54,13.7,213.54Z"/><path class="cls-6" d="M5.1,219.23c-.56,1.26-.58.15-.21.69s.3.75.63.36.54.06.24-.76S5.1,219.23,5.1,219.23Z"/><path class="cls-6" d="M6.53,216.4c-1.06.67-.56-.26-.51.43.06.88-.1.83.36.73s.41.4.55-.47S6.53,216.4,6.53,216.4Z"/><path class="cls-6" d="M7.23,229.55c-1.14-.45-.22-.66-.61-.15s-.57.49-.2.81,0,.64.67.15S7.23,229.55,7.23,229.55Z"/><path class="cls-7" d="M5.07,222.66c-1-.75-.08-.7-.56-.3s-.66.31-.35.72-.09.63.62.34S5.07,222.66,5.07,222.66Z"/><path class="cls-6" d="M3.73,229.75c1.11-.53.52.34.54-.36,0-.87.18-.81-.29-.77s-.38-.45-.59.41S3.73,229.75,3.73,229.75Z"/><path class="cls-6" d="M13.31,239.93c-.1-1.2.44-1.25-.1-1.2s-.43-.33-.61.17-.71.08-.24.7S13.31,239.93,13.31,239.93Z"/><path class="cls-6" d="M11.91,228.58c-1,.08-1-.62-1,.08s-.33.53.08.79,0,.92.56.34A1.27,1.27,0,0,0,11.91,228.58Z"/><path class="cls-7" d="M13,225.86c-1,.07-1-.62-1,.07s-.33.54.08.8,0,.91.56.34A1.27,1.27,0,0,0,13,225.86Z"/><path class="cls-6" d="M11.11,214.73c-.62.29-.72-.14-.62.29s-.11.41.19.47.15.56.4.07A.85.85,0,0,0,11.11,214.73Z"/><path class="cls-6" d="M15.3,235c-.76-1.1.11-.69-.45-.5s-.71,0-.53.55-.25.57.5.56S15.3,235,15.3,235Z"/><path class="cls-7" d="M17.77,235.09c-1,.08-1-.62-1,.08s-.33.53.08.8,0,.91.56.34A1.32,1.32,0,0,0,17.77,235.09Z"/><path class="cls-6" d="M20.14,233.24c-.62.29-.72-.14-.62.29s-.1.41.19.47.15.56.4.07A.85.85,0,0,0,20.14,233.24Z"/><path class="cls-6" d="M21.41,232.06c-.08-1.43.43-.5-.12-.73s-.59-.45-.7.09-.48.28.13.79S21.41,232.06,21.41,232.06Z"/><path class="cls-7" d="M22.24,233.4c1.18-.28.47.44.59-.24.16-.86.3-.76-.16-.82s-.3-.53-.65.27S22.24,233.4,22.24,233.4Z"/><path class="cls-6" d="M23.45,233.6c.31.93-.15,1.09.31.93s.44.17.51-.28.6-.22.08-.61A.7.7,0,0,0,23.45,233.6Z"/><path class="cls-6" d="M22.53,236.51c.31.94-.15,1.1.31.94s.44.16.51-.28.6-.23.07-.61A.7.7,0,0,0,22.53,236.51Z"/><path class="cls-6" d="M25.78,238.4c-.76-1.1.11-.7-.45-.51s-.7.05-.53.56-.25.56.5.55S25.78,238.4,25.78,238.4Z"/><path class="cls-6" d="M25.16,245.73c-.62.29-.73-.13-.62.29s-.11.41.18.47.15.57.41.08A.87.87,0,0,0,25.16,245.73Z"/><path class="cls-6" d="M28.66,221.33c-.62.29-.72-.14-.62.29s-.1.41.19.47.15.56.4.07A.85.85,0,0,0,28.66,221.33Z"/><path class="cls-6" d="M27.74,224.29c-.62.3-.72-.13-.62.3s-.11.4.19.47.15.56.4.07A.88.88,0,0,0,27.74,224.29Z"/><path class="cls-7" d="M30.1,223.88c-1.14-.45-.23-.65-.61-.14s-.58.49-.2.81,0,.64.67.15S30.1,223.88,30.1,223.88Z"/><path class="cls-6" d="M28.36,227.23c-1.15-.45-.23-.66-.62-.14s-.57.48-.2.8.05.64.68.15S28.36,227.23,28.36,227.23Z"/><path class="cls-6" d="M26.51,216.91c-1.14-.45-.23-.66-.62-.14s-.57.48-.19.81,0,.63.67.14S26.51,216.91,26.51,216.91Z"/><path class="cls-6" d="M27.11,219.58c-.62.29-.73-.14-.62.29s-.11.41.18.47.15.56.4.07A.84.84,0,0,0,27.11,219.58Z"/><path class="cls-6" d="M24.44,214.34c-1.14-.45-.52-.82-.62-.14s-.38.48,0,.8-.1.91.53.42A.72.72,0,0,0,24.44,214.34Z"/><path class="cls-6" d="M23.15,224.81c-.16-1.42.4-.91-.16-.71s-.54-.2-.61.34-.74.28-.09.74S23.15,224.81,23.15,224.81Z"/><path class="cls-6" d="M21.07,219.84c-1.14-.45-.23-.66-.61-.14s-.58.48-.2.8,0,.64.67.15S21.07,219.84,21.07,219.84Z"/><path class="cls-6" d="M24.61,218.47c-1.14-.47-.51-.83-.61-.15s-.4.48,0,.8-.13.91.51.44A.73.73,0,0,0,24.61,218.47Z"/><path class="cls-7" d="M22.93,220.92c-1.14-.45-.52-.83-.62-.14s-.38.48,0,.8-.11.91.52.42A.72.72,0,0,0,22.93,220.92Z"/><path class="cls-6" d="M20.81,217.4c-1.14-.45-.51-.82-.61-.14s-.38.49,0,.81-.11.91.52.42A.72.72,0,0,0,20.81,217.4Z"/><path class="cls-6" d="M23.52,216.3c-.62.29-.73-.14-.62.29s-.11.41.18.47.15.56.4.07A.87.87,0,0,0,23.52,216.3Z"/><path class="cls-8" d="M62.58,216.78c.48,1.07-.08,1.31.48,1.07s.56.14.6-.39.73-.34,0-.73A.93.93,0,0,0,62.58,216.78Z"/><path class="cls-9" d="M59.31,216.28c.25,1.36-.35.92.21.68s.56.14.6-.39.73-.34,0-.72S59.31,216.28,59.31,216.28Z"/><path class="cls-8" d="M62.66,221.06c-1.17-.44-.53-.81-.63-.14s-.39.47,0,.78-.11.88.54.41A.68.68,0,0,0,62.66,221.06Z"/><path class="cls-8" d="M55,220c-1.17-.43-.23-.63-.63-.13s-.59.47-.2.78,0,.62.69.14S55,220,55,220Z"/><path class="cls-8" d="M68.81,221.67c-.39,1.31-.56.25-.12.7s.41.66.69.23.55,0,.13-.77S68.81,221.67,68.81,221.67Z"/><path class="cls-9" d="M66.8,225.24c.43,1.07-.08,1.31.43,1.07s.5.14.54-.39.67-.34,0-.73A.78.78,0,0,0,66.8,225.24Z"/><path class="cls-8" d="M63.34,229.31c.48,1.06-.08,1.31.48,1.06s.55.15.6-.38.73-.34,0-.73A.91.91,0,0,0,63.34,229.31Z"/><path class="cls-8" d="M57.11,226.21c1-.35,1.13.32,1-.35s.23-.59-.23-.73-.17-.87-.63-.17A1.26,1.26,0,0,0,57.11,226.21Z"/><path class="cls-8" d="M51,222.51c-1,.44-1.14-.21-1,.44s-.17.62.3.71.24.84.64.1A1.24,1.24,0,0,0,51,222.51Z"/><path class="cls-8" d="M53.71,226.67c.47,1.06-.09,1.3.47,1.06s.56.15.6-.38.73-.34,0-.73A.9.9,0,0,0,53.71,226.67Z"/><path class="cls-9" d="M54.63,233.68c-.67.92-1.09.44-.67.92s.12.63.56.46.58.61.61-.26A1.14,1.14,0,0,0,54.63,233.68Z"/><path class="cls-8" d="M57.67,237.59c.47,1.06-.08,1.3.47,1.06s.56.15.61-.39.73-.33,0-.72A.91.91,0,0,0,57.67,237.59Z"/><path class="cls-8" d="M54.42,241.89c-.73.85-1.12.34-.73.85s.06.65.52.51.53.66.62-.19A1.16,1.16,0,0,0,54.42,241.89Z"/><path class="cls-9" d="M53.68,244.32c.39.87-.07,1.07.39.87s.45.12.49-.32.6-.27,0-.59A.73.73,0,0,0,53.68,244.32Z"/><path class="cls-8" d="M59.64,246.53c.39.88-.07,1.08.39.88s.45.11.49-.32.6-.28,0-.6A.75.75,0,0,0,59.64,246.53Z"/><path class="cls-9" d="M61.24,223.5c-1.17-.44-.23-.64-.63-.14s-.58.47-.2.78,0,.62.69.15S61.24,223.5,61.24,223.5Z"/><path class="cls-8" d="M63,231.62c-1.17-.43-.23-.63-.63-.13s-.59.47-.2.78,0,.62.69.14S63,231.62,63,231.62Z"/><path class="cls-8" d="M60.31,236.37c-1.17-.44-.23-.64-.63-.14s-.58.47-.2.78.05.62.69.15S60.31,236.37,60.31,236.37Z"/><path class="cls-8" d="M74.8,227.84c-1.17-.44-.23-.64-.63-.14s-.58.48-.2.79,0,.61.69.14S74.8,227.84,74.8,227.84Z"/><path class="cls-8" d="M58.64,217.21c-1.17-.43-.23-.64-.63-.14s-.58.47-.2.78,0,.62.69.15S58.64,217.21,58.64,217.21Z"/><path class="cls-8" d="M56.73,231.9c-1.17-.44-.23-.64-.63-.14s-.58.47-.2.78,0,.62.69.15S56.73,231.9,56.73,231.9Z"/><path class="cls-8" d="M62,228.19c-1.17-.43-.23-.63-.63-.13s-.58.47-.2.78,0,.62.69.15S62,228.19,62,228.19Z"/><path class="cls-8" d="M57.4,219.9c-1.17-.43-.23-.63-.63-.13s-.58.47-.2.78,0,.62.69.15S57.4,219.9,57.4,219.9Z"/><path class="cls-8" d="M53.65,224.78c-.63.29-.73-.13-.63.29s-.11.4.19.45.16.55.41.08A.81.81,0,0,0,53.65,224.78Z"/><path class="cls-8" d="M59.77,221.05c-.63.29-.74-.13-.63.29s-.11.39.19.45.15.55.41.07A.79.79,0,0,0,59.77,221.05Z"/><path class="cls-9" d="M65.05,236.14c-1.16-.43-.23-.63-.62-.13s-.59.47-.21.78,0,.62.69.15S65.05,236.14,65.05,236.14Z"/><path class="cls-8" d="M58.25,222.71c-1.17-.44-.23-.64-.63-.14s-.59.47-.2.78,0,.62.69.15S58.25,222.71,58.25,222.71Z"/><path class="cls-8" d="M61.62,218.12c-1.17-.43-.23-.64-.63-.13s-.59.47-.2.78,0,.62.69.14S61.62,218.12,61.62,218.12Z"/><path class="cls-8" d="M55.85,222.83c-1.16-.43-.22-.64-.62-.13s-.59.47-.2.78,0,.61.68.14S55.85,222.83,55.85,222.83Z"/><path class="cls-8" d="M66.2,228.08c-.07-1.38.44-.48-.12-.7s-.61-.44-.72.08-.49.27.14.77S66.2,228.08,66.2,228.08Z"/><path class="cls-8" d="M65.51,232.29c.35-1.33.56-.28.1-.71s-.44-.64-.7-.2-.55.07-.1.78S65.51,232.29,65.51,232.29Z"/><path class="cls-9" d="M70.4,244.5c.34-1.33.55-.28.09-.71s-.43-.65-.7-.2-.54.07-.1.78S70.4,244.5,70.4,244.5Z"/><path class="cls-8" d="M60.65,240.4c.34-1.33.56-.29.09-.71s-.43-.65-.7-.21-.54.08-.1.79S60.65,240.4,60.65,240.4Z"/><path class="cls-10" d="M53.13,239.78c.39-1.33.63-.28.11-.71s-.5-.65-.79-.2-.62.07-.12.78S53.13,239.78,53.13,239.78Z"/><path class="cls-8" d="M57.1,243.73c-.67.93-1.09.45-.67.93s.11.63.56.46.57.61.61-.26A1.16,1.16,0,0,0,57.1,243.73Z"/><path class="cls-8" d="M69,229c-.66.92-1.09.45-.66.92s.11.64.56.46.57.61.6-.25A1.15,1.15,0,0,0,69,229Z"/><path class="cls-8" d="M58.57,243.11c.35-1.33.56-.29.1-.72s-.44-.64-.7-.19-.55.07-.1.78S58.57,243.11,58.57,243.11Z"/><path class="cls-8" d="M60.77,242.25c.39.87-.07,1.07.39.87s.46.12.49-.32.6-.27,0-.59A.75.75,0,0,0,60.77,242.25Z"/><path class="cls-8" d="M56.53,236.05c.39.87-.07,1.07.39.87s.46.12.49-.32.6-.27,0-.59A.73.73,0,0,0,56.53,236.05Z"/><path class="cls-8" d="M54.57,240c.39.88-.07,1.08.39.88s.46.12.49-.32.6-.28,0-.6A.75.75,0,0,0,54.57,240Z"/><path class="cls-8" d="M66.85,240c.34-1.33.55-.28.09-.71s-.44-.65-.7-.2-.54.07-.1.78S66.85,240,66.85,240Z"/><path class="cls-10" d="M51.36,243.76c.38-1.33.63-.28.11-.71s-.5-.65-.79-.2-.62.07-.12.78S51.36,243.76,51.36,243.76Z"/><path class="cls-8" d="M57,234.57c.34-1.33.55-.28.09-.71s-.43-.64-.7-.19-.54.07-.1.77S57,234.57,57,234.57Z"/><path class="cls-9" d="M73.69,233c.32.91-.15,1.06.32.91s.45.16.51-.28.62-.22.08-.59A.73.73,0,0,0,73.69,233Z"/><path class="cls-8" d="M66.73,244.49c.39.87-.07,1.07.39.87s.46.12.49-.31.6-.28,0-.6A.77.77,0,0,0,66.73,244.49Z"/><path class="cls-9" d="M61.67,245.7c.34-1.33.56-.28.09-.72s-.43-.64-.69-.19-.55.07-.11.78S61.67,245.7,61.67,245.7Z"/><path class="cls-8" d="M72,242.82c.34-1.33.55-.28.09-.71s-.44-.64-.7-.2-.54.07-.1.78S72,242.82,72,242.82Z"/><path class="cls-8" d="M64.7,247.15c.39.88-.07,1.08.39.88s.46.12.49-.32.6-.28,0-.6A.76.76,0,0,0,64.7,247.15Z"/><path class="cls-9" d="M58.79,230c.38.88-.07,1.08.38.88s.46.12.5-.32.59-.28,0-.6A.73.73,0,0,0,58.79,230Z"/><path class="cls-8" d="M54.54,236.39c-.63.29-.74-.13-.63.29s-.11.39.19.45.15.55.41.07A.79.79,0,0,0,54.54,236.39Z"/><path class="cls-8" d="M67.8,242c-.63.29-.74-.13-.63.29s-.12.39.19.45.15.55.41.07A.82.82,0,0,0,67.8,242Z"/><path class="cls-8" d="M64.72,243.31c-.63.29-.74-.13-.63.29s-.12.39.18.45.16.55.41.07A.81.81,0,0,0,64.72,243.31Z"/><path class="cls-8" d="M69.81,240.11c-.63.28-.74-.13-.63.28s-.12.4.18.46.16.54.41.07A.8.8,0,0,0,69.81,240.11Z"/><path class="cls-8" d="M64.71,240.72c-1,.25-1.09-.42-1,.25s-.26.57.18.75.1.88.61.23A1.22,1.22,0,0,0,64.71,240.72Z"/><path class="cls-8" d="M51.93,221.18c1-.52,1.16.12,1-.52s.14-.62-.33-.68-.28-.83-.64-.06A1.23,1.23,0,0,0,51.93,221.18Z"/><path class="cls-9" d="M53.59,222.68c-1.17-.43-.23-.64-.63-.13s-.58.47-.2.78.05.61.69.14S53.59,222.68,53.59,222.68Z"/><path class="cls-8" d="M65,224.91c-1.17-.44-.23-.64-.63-.14s-.59.47-.2.78,0,.62.69.15S65,224.91,65,224.91Z"/><path class="cls-8" d="M55.11,217.12c-.65,1.18-.61.11-.26.66s.27.75.62.4.55.1.29-.71S55.11,217.12,55.11,217.12Z"/><path class="cls-8" d="M57,215.09c-1.17-.44-.23-.64-.63-.14s-.59.47-.2.78,0,.62.69.15S57,215.09,57,215.09Z"/><path class="cls-8" d="M47.78,219.64c-.58,1.22-.6.15-.22.67s.31.73.65.36.54.05.24-.74S47.78,219.64,47.78,219.64Z"/><path class="cls-8" d="M50.59,217.66c-1.08.66-.57-.25-.52.42.07.85-.1.81.37.71s.42.39.56-.47S50.59,217.66,50.59,217.66Z"/><path class="cls-8" d="M60.49,232.11c-1.17-.43-.23-.63-.63-.13s-.58.47-.2.78.05.62.69.14S60.49,232.11,60.49,232.11Z"/><path class="cls-8" d="M51,220.38c-1-.74-.09-.68-.58-.3s-.67.3-.36.71-.08.61.64.32S51,220.38,51,220.38Z"/><path class="cls-9" d="M57.66,240.43c-.1-1.17.45-1.21-.1-1.17s-.44-.32-.63.17-.73.08-.25.67S57.66,240.43,57.66,240.43Z"/><path class="cls-8" d="M55.37,230.23c-1,.08-1-.59-1,.08s-.34.52.08.77,0,.89.58.33A1.22,1.22,0,0,0,55.37,230.23Z"/><path class="cls-8" d="M57.72,228.68c-1,.07-1-.61-1,.07s-.34.52.08.77,0,.89.57.33A1.19,1.19,0,0,0,57.72,228.68Z"/><path class="cls-8" d="M53.51,215.68c-.63.29-.74-.13-.63.29s-.11.39.19.45.15.55.41.07A.79.79,0,0,0,53.51,215.68Z"/><path class="cls-8" d="M63.13,237.76c-.78-1.07.11-.68-.47-.49s-.72,0-.54.53-.26.55.51.54S63.13,237.76,63.13,237.76Z"/><path class="cls-8" d="M61.31,233.86c-1.05.07-1-.6-1.05.07s-.34.52.08.77,0,.89.57.33A1.19,1.19,0,0,0,61.31,233.86Z"/><path class="cls-8" d="M71.68,234.7c-.63.29-.73-.13-.63.29s-.11.39.19.45.16.55.41.07A.79.79,0,0,0,71.68,234.7Z"/><path class="cls-8" d="M69.51,234.07c-.08-1.38.43-.48-.13-.71s-.6-.43-.71.09-.5.27.13.77S69.51,234.07,69.51,234.07Z"/><path class="cls-8" d="M66.47,234.45c1.21-.27.48.43.61-.23.15-.83.3-.74-.17-.79s-.31-.51-.66.25S66.47,234.45,66.47,234.45Z"/><path class="cls-8" d="M73.22,236.48c.32.9-.15,1.06.32.9s.44.16.51-.27.62-.22.08-.59A.73.73,0,0,0,73.22,236.48Z"/><path class="cls-8" d="M66.57,237c.32.91-.15,1.06.32.91s.45.16.52-.27.61-.22.08-.59A.75.75,0,0,0,66.57,237Z"/><path class="cls-8" d="M71.54,238.74c-.78-1.07.11-.68-.47-.49s-.72,0-.54.54-.25.55.51.53S71.54,238.74,71.54,238.74Z"/><path class="cls-8" d="M69.18,245.8c-.63.29-.74-.13-.63.29s-.11.39.19.45.15.55.41.07A.79.79,0,0,0,69.18,245.8Z"/><path class="cls-9" d="M72,223.41c-.63.28-.74-.13-.63.28s-.11.4.19.46.15.54.41.06A.77.77,0,0,0,72,223.41Z"/><path class="cls-8" d="M72.1,225.82c-.64.29-.74-.13-.64.29s-.11.39.19.45.16.55.41.07A.81.81,0,0,0,72.1,225.82Z"/><path class="cls-8" d="M74.23,224.61c-1.16-.43-.23-.63-.62-.13s-.59.47-.2.78,0,.62.68.14S74.23,224.61,74.23,224.61Z"/><path class="cls-8" d="M72.77,229.43c-1.17-.43-.23-.64-.63-.13s-.59.47-.2.78,0,.61.69.14S72.77,229.43,72.77,229.43Z"/><path class="cls-8" d="M60.45,226.55c-1.17-.44-.23-.64-.63-.14s-.58.47-.2.78,0,.62.69.15S60.45,226.55,60.45,226.55Z"/><path class="cls-8" d="M71.39,219.57c-.63.28-.74-.13-.63.28s-.11.4.19.46.15.54.41.07A.79.79,0,0,0,71.39,219.57Z"/><path class="cls-8" d="M62.89,224.82c-1.16-.44-.53-.8-.63-.14s-.39.47,0,.78-.11.88.53.41A.67.67,0,0,0,62.89,224.82Z"/><path class="cls-8" d="M74.22,221.55c-.16-1.38.41-.89-.17-.7s-.54-.19-.62.33-.75.28-.1.72S74.22,221.55,74.22,221.55Z"/><path class="cls-8" d="M64.64,222.67c-1.16-.43-.23-.63-.62-.13s-.59.47-.21.78,0,.62.69.14S64.64,222.67,64.64,222.67Z"/><path class="cls-8" d="M68.62,219.37c-1.16-.46-.52-.81-.63-.15s-.4.46,0,.78-.13.88.52.42A.68.68,0,0,0,68.62,219.37Z"/><path class="cls-8" d="M66.9,221.73c-1.16-.43-.53-.79-.62-.13s-.4.47,0,.78-.11.88.53.41A.68.68,0,0,0,66.9,221.73Z"/><path class="cls-8" d="M65.24,219.35c-1.17-.44-.53-.81-.63-.14s-.39.47,0,.78-.12.88.53.41A.68.68,0,0,0,65.24,219.35Z"/><path class="cls-8" d="M66.33,217.41c-.63.28-.74-.13-.63.28s-.12.4.19.46.15.55.41.07A.81.81,0,0,0,66.33,217.41Z"/><path class="cls-8" d="M69,236.12c-.63.28-.74-.13-.63.28s-.12.4.18.46.16.54.42.07A.82.82,0,0,0,69,236.12Z"/><path class="cls-8" d="M62.47,239.12c-.64.28-.74-.14-.64.28s-.11.4.19.45.16.55.41.07A.79.79,0,0,0,62.47,239.12Z"/><path class="cls-9" d="M71.51,231.54c-.63.29-.73-.13-.63.29s-.11.39.19.45.16.55.41.07A.79.79,0,0,0,71.51,231.54Z"/><path class="cls-8" d="M67.32,230.42c-.63.29-.74-.13-.63.29s-.12.39.18.45.16.55.41.07A.81.81,0,0,0,67.32,230.42Z"/><path class="cls-8" d="M63.18,235.05c-.78-1.07.1-.67-.47-.49-.73.24-.72,0-.54.54s-.26.55.51.54S63.18,235.05,63.18,235.05Z"/><path class="cls-8" d="M70.21,226.45c-.63.28-.74-.14-.63.28s-.11.4.19.45.15.55.41.07A.8.8,0,0,0,70.21,226.45Z"/><path class="cls-8" d="M69.78,224.47c-.16-1.38.41-.89-.17-.7s-.54-.19-.62.34-.75.27-.1.72S69.78,224.47,69.78,224.47Z"/><path class="cls-11" d="M52.15,273.26a14,14,0,1,1-14-14A14,14,0,0,1,52.15,273.26Z"/><path class="cls-10" d="M37,262.67c.53,1.06-.1,1.31.53,1.06s.63.15.68-.38.82-.34,0-.73A1.12,1.12,0,0,0,37,262.67Z"/><path class="cls-12" d="M28.07,270.87c.53,1.06-.1,1.3.53,1.06s.63.15.68-.38.82-.34,0-.73A1.12,1.12,0,0,0,28.07,270.87Z"/><path class="cls-12" d="M30.29,278.87c.44.88-.08,1.07.44.88s.51.12.55-.32.68-.28,0-.6A.92.92,0,0,0,30.29,278.87Z"/><path class="cls-10" d="M33.65,265.69c-1.31-.44-.26-.64-.7-.14s-.66.47-.23.78.05.62.77.15S33.65,265.69,33.65,265.69Z"/><path class="cls-10" d="M28.3,268.67c-1.31-.44-.25-.64-.7-.14s-.66.47-.23.78.05.62.77.15S28.3,268.67,28.3,268.67Z"/><path class="cls-10" d="M38.4,268.38c-1.31-.43-.26-.64-.7-.13s-.66.47-.23.78.05.61.77.14S38.4,268.38,38.4,268.38Z"/><path class="cls-10" d="M37.26,266.12c.38-1.33.63-.28.11-.71s-.5-.65-.79-.2-.62.07-.12.78S37.26,266.12,37.26,266.12Z"/><path class="cls-12" d="M45,281.46c.39-1.33.63-.28.11-.71s-.49-.64-.78-.2-.62.07-.12.78S45,281.46,45,281.46Z"/><path class="cls-10" d="M30.37,273.48c.39-1.33.63-.28.11-.71s-.49-.64-.78-.2-.62.07-.12.78S30.37,273.48,30.37,273.48Z"/><path class="cls-10" d="M41.42,262c-.75.92-1.23.44-.75.92s.13.63.63.46.65.61.68-.26A1.11,1.11,0,0,0,41.42,262Z"/><path class="cls-10" d="M26.34,277.15c.43.87-.08,1.07.43.87s.52.12.56-.32.67-.27,0-.59A.91.91,0,0,0,26.34,277.15Z"/><path class="cls-10" d="M38.09,273.71c.38-1.32.63-.28.11-.7s-.5-.65-.79-.2-.62.07-.12.78S38.09,273.71,38.09,273.71Z"/><path class="cls-10" d="M38.83,277.5c.44.87-.08,1.07.44.87s.51.12.55-.32.67-.27,0-.59A.92.92,0,0,0,38.83,277.5Z"/><path class="cls-10" d="M34.18,279.84c.39-1.33.63-.28.11-.71s-.5-.65-.79-.2-.62.07-.12.78S34.18,279.84,34.18,279.84Z"/><path class="cls-10" d="M44.79,276.76c.39-1.33.63-.28.11-.71s-.49-.64-.79-.2-.61.08-.11.78S44.79,276.76,44.79,276.76Z"/><path class="cls-10" d="M36.54,280.16c.44.88-.08,1.07.44.88s.51.11.55-.32.68-.28,0-.6A.92.92,0,0,0,36.54,280.16Z"/><path class="cls-10" d="M32.23,263.09c.43.87-.09,1.07.43.87s.52.12.55-.32.68-.28,0-.59A.9.9,0,0,0,32.23,263.09Z"/><path class="cls-10" d="M35.17,275.85c-.71.29-.83-.13-.71.29s-.12.39.22.45.17.54.46.07A.71.71,0,0,0,35.17,275.85Z"/><path class="cls-10" d="M40.12,284.47c-.71.29-.83-.13-.71.29s-.13.39.21.45.17.54.46.07A.73.73,0,0,0,40.12,284.47Z"/><path class="cls-10" d="M41.37,271.15c-.71.28-.83-.14-.71.28s-.12.39.21.45.18.55.47.07A.7.7,0,0,0,41.37,271.15Z"/><path class="cls-10" d="M32.29,275.06c-1.17.24-1.24-.43-1.17.24s-.3.57.2.76.12.88.69.23A1.14,1.14,0,0,0,32.29,275.06Z"/><path class="cls-10" d="M30.11,267c-1.31-.44-.26-.64-.71-.14s-.66.47-.22.78.05.62.77.15S30.11,267,30.11,267Z"/><path class="cls-10" d="M33.67,271.78c-.88-1.07.12-.68-.52-.49-.82.23-.81,0-.61.54s-.29.55.57.53S33.67,271.78,33.67,271.78Z"/><path class="cls-10" d="M31.51,282.52c-1.19.07-1.17-.6-1.19.07s-.38.53.09.78,0,.89.65.33A1.13,1.13,0,0,0,31.51,282.52Z"/><path class="cls-10" d="M49.3,268.92c-.71.29-.83-.13-.71.29s-.13.39.21.45.18.55.47.07A.72.72,0,0,0,49.3,268.92Z"/><path class="cls-10" d="M43.05,267.82c-.09-1.38.49-.48-.14-.71-.8-.28-.68-.43-.81.08s-.55.28.16.78S43.05,267.82,43.05,267.82Z"/><path class="cls-10" d="M36.85,271.68c1.36-.27.54.43.68-.23.18-.83.34-.73-.19-.79s-.34-.51-.74.26S36.85,271.68,36.85,271.68Z"/><path class="cls-10" d="M40.22,281.18c.36.91-.17,1.07.36.91s.5.16.58-.27.69-.22.09-.59A.92.92,0,0,0,40.22,281.18Z"/><path class="cls-10" d="M44.24,272.06c-.87-1.07.13-.68-.52-.49-.82.23-.81,0-.61.54s-.29.55.58.53S44.24,272.06,44.24,272.06Z"/><path class="cls-10" d="M41.59,278.81c-.71.28-.83-.13-.71.28s-.13.4.21.46.17.54.46.07A.73.73,0,0,0,41.59,278.81Z"/><path class="cls-10" d="M47.51,266.12c-1.32-.44-.26-.64-.71-.14s-.66.47-.22.78,0,.62.77.15S47.51,266.12,47.51,266.12Z"/><path class="cls-12" d="M41.37,269.13c-.71.28-.83-.13-.71.28s-.13.4.21.46.17.54.46.07A.73.73,0,0,0,41.37,269.13Z"/><path class="cls-10" d="M27.09,274.16c-.71.28-.83-.13-.71.28s-.13.4.21.46.18.54.47.07A.74.74,0,0,0,27.09,274.16Z"/><path class="cls-10" d="M44.22,264.55c-.72.28-.84-.13-.72.28s-.12.4.22.46.17.54.46.07A.73.73,0,0,0,44.22,264.55Z"/><path class="cls-10" d="M39.73,264.87c-.71.28-.83-.13-.71.28s-.13.4.21.46.18.54.47.07A.71.71,0,0,0,39.73,264.87Z"/><path class="cls-12" d="M33.65,268.41c-.88-1.07.12-.68-.53-.49-.82.24-.81,0-.61.54s-.29.54.58.53S33.65,268.41,33.65,268.41Z"/><path class="cls-12" d="M37.93,275.41c.43.88-.08,1.08.43.88s.51.12.56-.32.67-.28,0-.6A.9.9,0,0,0,37.93,275.41Z"/><path class="cls-10" d="M49.45,278.14c-.88-1.07.12-.67-.52-.49-.82.24-.81.05-.61.54s-.29.55.57.54S49.45,278.14,49.45,278.14Z"/><path class="cls-10" d="M50.57,274.81c-.88-1.08.12-.68-.52-.5-.82.24-.81.05-.61.54s-.29.55.57.54S50.57,274.81,50.57,274.81Z"/><path class="cls-10" d="M48.24,280.92c-.88-1.07.12-.67-.53-.49-.82.24-.81.05-.61.54s-.29.55.58.54S48.24,280.92,48.24,280.92Z"/><path class="cls-12" d="M34.36,284.48c-.88-1.08.13-.68-.52-.5-.82.24-.81,0-.61.54s-.29.55.57.54S34.36,284.48,34.36,284.48Z"/><path class="cls-10" d="M38.32,284.87c-.88-1.07.12-.68-.53-.5-.82.24-.81.05-.61.54s-.29.55.58.54S38.32,284.87,38.32,284.87Z"/><path class="cls-10" d="M43.13,284.06c-.71.28-.83-.14-.71.28s-.13.39.21.46.17.54.46.07A.73.73,0,0,0,43.13,284.06Z"/><path class="cls-10" d="M45.34,273c.21,1.37-.45.53.2.7.83.21.72.37.8-.16s.53-.32-.22-.75S45.34,273,45.34,273Z"/><path class="cls-10" d="M35.1,273.68c-.71.29-.83-.13-.71.29s-.13.39.21.45.18.55.47.07A.74.74,0,0,0,35.1,273.68Z"/><path class="cls-10" d="M41.54,274.62c-.71.28-.84-.13-.71.28s-.13.4.21.45.17.55.46.08A.73.73,0,0,0,41.54,274.62Z"/><path class="cls-10" d="M36.13,282.25c-.88-1.07.12-.68-.53-.49-.81.23-.81,0-.6.53s-.29.55.57.54S36.13,282.25,36.13,282.25Z"/><path class="cls-10" d="M33.84,284c-.82.24-.81,0-.61.54s-.29.55.57.54.56-.58.56-.58"/><path class="cls-10" d="M50.27,271.37c-.87-1.07.13-.68-.52-.49-.82.23-.81,0-.61.54s-.29.54.58.53S50.27,271.37,50.27,271.37Z"/><path class="cls-10" d="M48.43,271.88c-.71.28-.84-.14-.71.28s-.13.4.21.46.17.54.46.07A.73.73,0,0,0,48.43,271.88Z"/><path class="cls-12" d="M45.72,269.68c-.7.29-.83-.13-.7.29s-.13.4.21.45.17.55.46.07A.72.72,0,0,0,45.72,269.68Z"/><path class="cls-12" d="M39.19,260.91c-.71.29-.84-.13-.71.29s-.13.4.21.45.17.55.46.07A.73.73,0,0,0,39.19,260.91Z"/><path class="cls-1" d="M40.21,252.55,37,252.4l.28-9.83a2.15,2.15,0,0,0-.82-1.83c-.91-.52-5.87-2.48-6.16-2.59-1.86-.68-3.48-1.28-3.47-1.75s1-.24,1-.24,9.83,2.06,10.76,3c1.13,1.1,1.52,1.68,1.55,2.89v5.52l0,4.77"/><rect class="cls-13" x="36.95" y="252.31" width="3.22" height="7.85"/><path class="cls-12" d="M37.34,254.06c.53,1.06-.1,1.3.53,1.06s.63.14.68-.39.82-.34.05-.72A1.12,1.12,0,0,0,37.34,254.06Z"/><path class="cls-10" d="M39.46,256c-.71.29-.84-.13-.71.29s-.13.39.21.45.17.55.46.07A.73.73,0,0,0,39.46,256Z"/><path class="cls-10" d="M38.88,258.57c-1.32-.43-.26-.64-.71-.13s-.66.47-.23.78.05.61.78.14S38.88,258.57,38.88,258.57Z"/><path class="cls-10" d="M37,239.14c-.71.28-.83-.13-.71.28s-.13.4.21.46.17.54.46.07A.73.73,0,0,0,37,239.14Z"/><path class="cls-10" d="M38.29,243.67c-.2.74-.61.58-.2.74s.24.34.49.1.54.19.33-.32A.72.72,0,0,0,38.29,243.67Z"/><path class="cls-12" d="M39.34,241.69c-.88-1.06.12-.67-.53-.48-.82.23-.81,0-.61.53s-.29.55.58.54S39.34,241.69,39.34,241.69Z"/><path class="cls-12" d="M38.29,247.27c.37.91-.16,1.06.37.91s.5.16.58-.27.69-.22.08-.6A.93.93,0,0,0,38.29,247.27Z"/><path class="cls-10" d="M39.51,251.26c-.88-1.07.13-.68-.52-.49-.82.24-.81,0-.61.54s-.29.54.57.53S39.51,251.26,39.51,251.26Z"/><path class="cls-10" d="M35.05,238.49c-.43-.52.06-.33-.26-.24s-.4,0-.3.27-.14.27.29.26S35.05,238.49,35.05,238.49Z"/><path class="cls-10" d="M32.48,237.91c-.44-.53.06-.34-.26-.25s-.4,0-.3.27-.15.27.28.26S32.48,237.91,32.48,237.91Z"/><path class="cls-10" d="M33.72,238.72c-.43-.53.06-.33-.26-.24s-.4,0-.3.27-.14.27.29.26S33.72,238.72,33.72,238.72Z"/><path class="cls-10" d="M29.85,237.17c-.44-.53.06-.33-.26-.24s-.4,0-.3.26-.14.27.28.27S29.85,237.17,29.85,237.17Z"/><line class="cls-3" x1="78.32" y1="315.52" x2="78.32" y2="44.66"/><text class="cls-14" transform="translate(15.97 40)">Breathing Hazard - Carbon Monoxide Gas</text><text class="cls-15" transform="translate(82.4 55.72) scale(0.99 1)">•</text><text class="cls-16" transform="translate(85.85 55.72) scale(0.97 1)"><tspan class="cls-17">	</tspan><tspan class="cls-18" x="2.55" y="-1">Install vent system in accordance with codes.</tspan></text><text class="cls-15" transform="translate(82.4 66.28) scale(0.99 1)">•</text><text class="cls-19" transform="translate(85.85 66.28) scale(0.97 1)">	</text><text class="cls-20" transform="translate(88.32 65.28) scale(0.93 1)">Do not operate water heater if any part has been</text><text class="cls-21" transform="translate(82.4 72.28) scale(0.96 1)"><tspan class="cls-22">	</tspan><tspan x="6.19" y="0">exposed to flooding or water damage.</tspan></text><text class="cls-15" transform="translate(82.4 84.13) scale(0.99 1)">•</text><text class="cls-19" transform="translate(85.85 84.13) scale(0.97 1)">	</text><text class="cls-21" transform="translate(88.32 83.13) scale(0.85 1)">High altitude models should be installed at </text><text class="cls-21" transform="translate(209.37 83.13) scale(0.83 1)">elevations</text><text class="cls-23" transform="translate(82.4 91.13) scale(0.8 1)">	</text><text class="cls-21" transform="translate(88.32 91.13) scale(0.87 1)">above </text><text class="cls-21" transform="translate(107.88 91.13) scale(0.8 1)"><tspan class="cls-24">5,</tspan><tspan x="5.95" y="0">300</tspan></text><text class="cls-21" transform="translate(122.65 91.13) scale(0.86 1)"><tspan xml:space="preserve"> feet</tspan><tspan class="cls-25" x="14.59" y="0"> </tspan></text><text class="cls-26" transform="translate(136.33 91.13) scale(0.8 1)">(</text><text class="cls-21" transform="translate(137.73 91.13) scale(0.75 1)"><tspan class="cls-27">1</tspan><tspan class="cls-28" x="3.72" y="0">,</tspan><tspan class="cls-29" x="5.66" y="0">6</tspan><tspan class="cls-28" x="9.23" y="0">1</tspan><tspan x="13.25" y="0">5 m</tspan></text><text class="cls-21" transform="translate(157.05 91.13) scale(0.8 1)">). </text><text class="cls-21" transform="translate(162.38 91.13) scale(0.86 1)">For operation above<tspan class="cls-30" x="67.12" y="0"> </tspan></text><text class="cls-21" transform="translate(221.04 91.13) scale(0.75 1)">1<tspan class="cls-28" x="4.17" y="0">0</tspan><tspan class="cls-31" x="8.19" y="0">,</tspan><tspan x="9.23" y="0">100</tspan></text><text class="cls-21" transform="translate(82.4 99.13) scale(0.84 1)"><tspan class="cls-32">	</tspan><tspan x="7.06" y="0">feet</tspan><tspan class="cls-33" x="19.57" y="0" xml:space="preserve"> (</tspan><tspan class="cls-34" x="23.85" y="0">3</tspan><tspan class="cls-35" x="28.02" y="0">,</tspan><tspan class="cls-36" x="29.95" y="0">0</tspan><tspan x="33.67" y="0">7</tspan><tspan class="cls-37" x="37.85" y="0">9</tspan><tspan x="41.57" y="0" xml:space="preserve"> m), a high altitude orifice must be installed.</tspan></text><text class="cls-15" transform="translate(82.4 111.98) scale(0.99 1)">•</text><text class="cls-19" transform="translate(85.85 111.98) scale(0.97 1)">	</text><text class="cls-21" transform="translate(88.32 110.98) scale(0.96 1)">Do not operate if soot buildup is present.</text><text class="cls-15" transform="translate(82.4 192.7) scale(0.99 1)">•</text><text class="cls-19" transform="translate(85.85 192.7) scale(0.97 1)">	</text><text class="cls-38" transform="translate(88.32 191.7) scale(0.94 1)">Do NO<tspan class="cls-39" x="22.85" y="0">T</tspan><tspan class="cls-40" x="27.28" y="0" xml:space="preserve"> elevate any portion of the field supplied</tspan></text><text class="cls-41" transform="translate(82.4 199.2) scale(0.96 1)">	</text><text class="cls-21" transform="translate(88.32 199.2) scale(0.98 1)">drain line beyond the 1/2” adaptor above the</text><text class="cls-41" transform="translate(82.4 206.7) scale(0.96 1)">	</text><text class="cls-42" transform="translate(88.32 206.7) scale(0.97 1)">adapto<tspan class="cls-43" x="23.03" y="0">r</tspan><tspan x="25.13" y="0">.</tspan><tspan class="cls-44" x="27.23" y="0"> </tspan><tspan x="29.19" y="0">This must be true for the entire length</tspan></text><text class="cls-41" transform="translate(82.4 214.2) scale(0.96 1)">	</text><text class="cls-45" transform="translate(88.32 214.2) scale(1.04 1)">of the drain line including the exit into an </text><text class="cls-41" transform="translate(82.4 221.7) scale(0.96 1)">	</text><text class="cls-21" transform="translate(88.32 221.7) scale(0.99 1)">appropriate drain.</text><text class="cls-15" transform="translate(82.4 234.88) scale(0.99 1)">•</text><text class="cls-19" transform="translate(85.85 234.88) scale(0.97 1)">	</text><text class="cls-46" transform="translate(88.32 233.88) scale(0.91 1)">Condensate lines must be free and clear of debris</text><text class="cls-21" transform="translate(82.4 241.88) scale(0.96 1)"><tspan class="cls-22">	</tspan><tspan x="6.19" y="0">and must not allow back flow through the hose.</tspan></text><text class="cls-21" transform="translate(82.4 249.88) scale(0.93 1)"><tspan class="cls-47">	</tspan><tspan x="6.38" y="0">The condensate lines must be able to flow freely</tspan></text><text class="cls-21" transform="translate(82.4 257.88) scale(0.96 1)"><tspan class="cls-22">	</tspan><tspan x="6.19" y="0">to an appropriate drain.</tspan></text><text class="cls-15" transform="translate(82.4 123.82) scale(0.99 1)">•</text><text class="cls-19" transform="translate(85.85 123.82) scale(0.97 1)">	</text><text class="cls-48" transform="translate(88.32 122.82) scale(1.04 1)">Do not obstruct water heater air intake with</text><text class="cls-21" transform="translate(82.4 130.82) scale(0.99 1)"><tspan class="cls-49">	</tspan><tspan x="6" y="0">insulating jacket.</tspan></text><text class="cls-15" transform="translate(82.4 143.5) scale(0.99 1)">•</text><text class="cls-19" transform="translate(85.85 143.5) scale(0.97 1)">	</text><text class="cls-50" transform="translate(88.32 142.5) scale(0.96 1)">Do not place chemical vapor emitting products</text><text class="cls-51" transform="translate(82.4 150.5) scale(0.95 1)">	<tspan class="cls-52" x="6.25" y="0">near water heate</tspan><tspan class="cls-53" x="62.66" y="0">r</tspan><tspan class="cls-54" x="64.75" y="0">.</tspan></text><text class="cls-15" transform="translate(82.4 269.7) scale(0.99 1)">•</text><text class="cls-19" transform="translate(85.85 269.7) scale(0.97 1)">	</text><text class="cls-55" transform="translate(88.32 268.7) scale(1.07 1)">Do not allow condensate lines to become</text><text class="cls-56" transform="translate(82.4 276.7) scale(1.08 1)">	<tspan class="cls-57" x="5.5" y="0">crimped closed.</tspan></text><text class="cls-15" transform="translate(82.4 287.87) scale(0.99 1)">•</text><text class="cls-19" transform="translate(85.85 287.87) scale(0.97 1)">	</text><text class="cls-58" transform="translate(88.32 286.87) scale(0.99 1)">Analyze the entire vent system to make sure<tspan class="cls-49" x="-6" y="7.5">	</tspan><tspan class="cls-59" x="0" y="7.5">that condensate will not become trapped in a</tspan></text><text class="cls-60" transform="translate(82.4 301.87) scale(0.9 1)">	</text><text class="cls-21" transform="translate(88.32 301.87) scale(0.89 1)">section of vent pipe and therefore reduce the open</text><text class="cls-61" transform="translate(82.4 309.37) scale(1.03 1)">	<tspan class="cls-62" x="5.77" y="0">cross sectional area of the vent.</tspan></text><text class="cls-15" transform="translate(82.4 161.67) scale(0.99 1)">•</text><text class="cls-19" transform="translate(85.85 161.67) scale(0.97 1)">	</text><text class="cls-63" transform="translate(88.32 160.67) scale(0.9 1)">Gas and carbon monoxide detectors are available.</text><text class="cls-15" transform="translate(82.4 173.27) scale(0.99 1)">•</text><text class="cls-19" transform="translate(85.85 173.27) scale(0.97 1)">	<tspan class="cls-64" x="2.55" y="-1">No vent damper installation is compatible with</tspan></text><text class="cls-41" transform="translate(82.4 180.27) scale(0.96 1)">	<tspan class="cls-65" x="6.19" y="0">this power vented water heate</tspan><tspan class="cls-66" x="106.03" y="0">r</tspan><tspan class="cls-67" x="108.1" y="0">.</tspan></text><line class="cls-2" x1="1.31" y1="315.77" x2="242.37" y2="315.77"/><text class="cls-68" transform="translate(16.38 326.49)">Breathing carbon monoxide can cause brain damage or<tspan x="0" y="9.5">death.</tspan><tspan class="cls-69" x="23.63" y="9.5"> </tspan><tspan x="25.52" y="9.5">Always read and understand instruction manual.</tspan></text></g></svg>