<svg id="Layer_1" data-name="Layer 1" xmlns="http://www.w3.org/2000/svg" viewBox="0 0 541.6 200.09"><defs><style>.cls-1,.cls-13,.cls-3,.cls-35,.cls-5,.cls-6,.cls-7,.cls-9{fill:none;}.cls-1,.cls-3,.cls-35,.cls-5,.cls-6,.cls-7,.cls-9{stroke:#010101;}.cls-1{stroke-width:1.5px;}.cls-11,.cls-14,.cls-2,.cls-31,.cls-4{fill:#010101;}.cls-10,.cls-2,.cls-8{fill-rule:evenodd;}.cls-3,.cls-5,.cls-6,.cls-7,.cls-9{stroke-linejoin:round;}.cls-3{stroke-width:0.96px;}.cls-5{stroke-width:0.86px;}.cls-6{stroke-width:0.86px;}.cls-7{stroke-width:0.69px;}.cls-12,.cls-32,.cls-33,.cls-8{fill:#fff;}.cls-9{stroke-width:0.69px;}.cls-10{fill:#676767;}.cls-11{font-size:10.13px;}.cls-11,.cls-12,.cls-14,.cls-31,.cls-33{font-family:Arial-BoldMT, Arial;font-weight:700;}.cls-12{font-size:7.5px;}.cls-14{font-size:14px;}.cls-15{letter-spacing:-0.04em;}.cls-16{font-size:10px;}.cls-17{letter-spacing:0.07em;}.cls-18{letter-spacing:0em;}.cls-19{letter-spacing:0.07em;}.cls-20{letter-spacing:0.07em;}.cls-21{letter-spacing:0em;}.cls-22{letter-spacing:0.03em;}.cls-23{letter-spacing:0.03em;}.cls-24{letter-spacing:0.45em;}.cls-25{letter-spacing:0.45em;}.cls-26{letter-spacing:0.45em;}.cls-27{letter-spacing:-0.04em;}.cls-28{letter-spacing:-0.04em;}.cls-29{letter-spacing:0.05em;}.cls-30{letter-spacing:0.05em;}.cls-31{font-size:12px;}.cls-33{font-size:24px;}.cls-34{letter-spacing:-0.05em;}.cls-35{stroke-width:0.5px;}</style></defs><title>wrnng_fre_hzrd_dnt_use_stre_flmmble_lqds</title><text/><rect class="cls-1" x="8.25" y="8.18" width="524.6" height="183.66"/><polyline class="cls-2" points="37.68 138.02 82.27 138.02 82.27 81.45 37.68 81.45"/><rect class="cls-3" x="37.68" y="81.45" width="44.59" height="56.57"/><polyline class="cls-2" points="53.71 75.92 54.08 76.29 55 77.03 56.11 77.77 56.66 77.95 57.77 77.95 58.13 77.77 59.24 77.03 60.34 75.92 60.34 82 53.71 82"/><polyline class="cls-2" points="53.9 75.74 54.27 75.92 55.19 76.66 56.29 77.4 56.84 77.58 57.21 77.58 57.21 78.5 56.66 78.32 55.92 78.13 54.82 77.4 53.9 76.66 53.34 76.29"/><polyline class="cls-2" points="57.21 77.58 57.58 77.58 57.95 77.4 59.06 76.66 60.16 75.74 60.71 76.29 59.42 77.4 59.06 77.77 58.32 78.13 57.21 78.5"/><line class="cls-4" x1="57.21" y1="78.5" x2="57.21" y2="77.58"/><line class="cls-5" x1="60.44" y1="82" x2="60.44" y2="75.92"/><polyline class="cls-2" points="60.16 75.74 60.9 75.19 60.9 75.92 59.98 75.92 60.71 76.29"/><line class="cls-6" x1="53.71" y1="82.09" x2="60.35" y2="82.09"/><polyline class="cls-2" points="60.9 82 60.9 82.56 60.34 82.56 60.34 81.64 59.98 82"/><line class="cls-7" x1="53.71" y1="82" x2="53.71" y2="75.92"/><polyline class="cls-2" points="53.71 82.56 53.34 82.56 53.34 82 54.08 82 53.71 81.64"/><polyline class="cls-2" points="53.34 75.92 53.34 75.19 53.9 75.74 53.34 76.29 54.08 75.92"/><polyline class="cls-8" points="40.26 84.21 81.35 84.21 81.35 83.85 40.26 83.85"/><polyline class="cls-8" points="40.44 136.73 81.35 136.73 81.35 134.89 40.44 134.89"/><polyline class="cls-2" points="70.48 81.45 69.93 80.9 69.74 80.53 69.93 80.35 70.11 79.98 70.85 79.24 71.22 79.06 71.4 78.69 71.03 77.95 70.67 77.77 70.3 77.77 69.93 77.58 69.38 77.03 69.38 76.29 69.74 75.92 70.48 75.55 71.03 75 71.4 74.82 71.59 74.45 71.4 74.08 71.22 73.89 69.74 73.16 69.38 72.79 69.38 72.42 69.38 71.68 69.56 71.31 69.74 71.13 70.11 70.95 71.03 70.95 71.4 70.76 71.59 70.76 71.59 70.58 71.77 70.03 71.59 69.47 71.59 69.29 69.93 67.63 69.93 67.26 70.3 66.16 70.67 65.97 71.22 65.79 73.06 65.79 73.25 65.42 73.43 65.23 73.43 64.86 73.25 64.5 73.06 63.94 72.69 63.39 72.14 63.02 71.95 62.47 71.77 62.1 71.77 61.73 72.14 61.36 73.06 61.36 73.61 61.55 74.9 61.92 75.27 61.92 75.64 61.73 75.83 61.73 75.83 61.18 75.46 60.26 75.27 59.15 75.27 58.78 75.64 58.41 76.19 58.23 76.93 58.23 77.3 58.41 77.85 58.6 78.22 58.97 78.77 59.15 78.96 59.34 79.14 59.34 79.69 58.78 79.69 58.41 79.51 57.5 79.33 57.13 79.33 56.57 80.25 55.65 80.62 55.47 80.98 55.47 81.54 55.65 81.91 55.65 82.09 56.02 82.64 56.39 83.93 57.68 84.3 57.68 84.67 57.31 84.85 56.94 85.04 56.39 85.04 55.84 85.41 54.73 85.78 54.36 86.33 54.18 86.88 54.18 87.43 54.36 87.8 54.73 87.99 55.1 88.36 55.65 88.72 56.02 89.83 56.76 90.57 56.39 90.94 55.47 91.12 55.1 91.3 54.55 91.49 54.55 91.67 54.36 92.22 54.36 92.59 54.55 93.15 54.91 93.52 55.28 94.62 56.94 95.36 57.68 95.91 57.68 96.28 57.5 97.02 56.39 97.39 56.02 97.75 55.47 97.94 55.28 98.86 55.28 99.41 55.47 99.6 55.84 99.97 56.39 99.97 56.94 100.33 58.05 100.52 58.41 100.89 58.78 101.25 58.78 101.44 58.6 101.99 57.68 102.73 56.94 103.1 56.76 103.65 56.94 104.2 57.31 104.94 58.05 105.49 58.78 106.23 59.7 106.97 60.81 108.07 63.39 108.44 64.68 107.34 63.58 106.42 62.84 105.49 62.47 104.94 62.47 104.57 62.65 104.39 62.84 104.2 63.21 104.2 64.86 104.57 66.52 103.83 65.23 102.91 64.13 102.18 63.39 101.07 62.65 100.7 62.47 99.97 62.47 99.78 62.65 99.41 63.21 99.04 63.39 98.49 63.39 98.12 63.58 97.94 63.39 97.57 63.39 97.39 63.21 97.2 62.84 97.2 62.28 96.83 61.18 96.46 60.99 95.91 60.81 95.54 60.81 95.17 60.99 94.99 61.36 94.99 61.55 94.62 62.28 94.25 62.65 93.7 62.84 93.33 63.02 92.96 63.02 92.59 62.84 92.41 62.65 92.04 62.47 91.86 62.1 91.67 61.55 90.94 60.26 90.94 60.07 90.57 59.89 90.2 59.89 89.64 60.26 89.46 60.44 89.09 61.36 88.72 62.1 87.99 62.47 87.25 62.47 86.51 61.73 86.33 61.18 85.96 60.81 85.59 60.63 85.41 60.44 84.85 60.44 83.75 60.99 83.38 61.36 83.38 61.92 83.56 62.47 83.75 63.39 83.75 63.76 83.56 64.13 82.83 64.5 82.64 64.5 82.27 64.31 81.72 64.31 81.35 64.13 80.62 64.13 80.06 64.68 79.88 65.23 79.88 65.6 80.25 66.34 80.62 66.71 80.8 67.08 80.8 68 80.25 68.37 79.88 68.73 77.48 68.73 77.3 69.1 77.11 69.66 77.11 70.03 77.85 70.39 78.59 70.95 78.96 71.31 78.96 72.24 78.77 72.61 78.04 72.79 77.3 73.16 77.11 73.53 76.93 74.08 76.93 74.26 77.11 74.26 77.3 74.45 78.41 75 78.59 75.37 78.96 75.74 78.96 76.84 78.77 77.03 78.41 77.21 77.67 77.21 77.3 77.4 77.11 77.58 76.93 77.95 77.3 78.32 78.22 78.5 78.59 78.69 78.96 78.69 79.51 79.24 79.51 79.42 79.69 79.98 79.69 80.53 79.33 80.9 78.59 81.45"/><polyline class="cls-2" points="70.11 81.64 69.56 81.27 69.38 80.53 69.56 79.98 69.93 79.61 70.67 79.06 70.85 78.87 71.03 78.5 71.77 78.69 71.59 79.24 71.22 79.61 70.3 80.35 70.11 80.53 70.11 80.71 70.67 81.08"/><polyline class="cls-2" points="71.03 78.69 70.85 78.5 70.85 78.32 70.48 78.13 70.3 78.13 69.74 77.95 69.01 77.21 69.01 76.66 69.74 76.48 69.74 76.84 70.11 77.21 70.85 77.58 71.22 77.58 71.59 78.13 71.77 78.5"/><polyline class="cls-2" points="71.77 78.69 71.77 78.5 71.03 78.69 71.03 78.5"/><polyline class="cls-2" points="69.01 76.48 69.01 76.11 69.38 75.74 70.85 74.63 71.03 74.63 71.22 74.26 71.77 74.63 71.77 75 71.4 75.37 70.67 75.74 69.93 76.29 69.74 76.48 69.74 76.66"/><polyline class="cls-2" points="69.01 76.66 69.01 76.48 69.74 76.66 69.74 76.48"/><polyline class="cls-2" points="71.22 74.45 71.22 74.26 71.03 74.26 70.3 73.89 69.74 73.71 69.01 72.97 69.01 72.61 69.74 72.24 69.74 72.61 69.93 72.79 71.4 73.53 71.77 73.89 71.95 74.26"/><polyline class="cls-2" points="71.77 74.63 71.95 74.45 71.95 74.26 71.22 74.45 71.22 74.26"/><polyline class="cls-2" points="69.01 72.42 69.01 71.5 69.19 71.13 69.56 70.76 69.93 70.58 71.03 70.58 71.22 70.39 71.4 70.03 72.14 70.21 71.95 70.76 71.77 70.95 71.03 71.31 70.11 71.31 69.74 71.68 69.74 72.42"/><polyline class="cls-2" points="69.01 72.61 69.01 72.42 69.74 72.42 69.74 72.24"/><polyline class="cls-2" points="71.4 70.21 71.22 69.66 71.22 69.47 70.67 68.92 70.3 68.73 69.93 68.37 69.56 67.81 69.56 67.26 69.74 66.52 70.48 66.89 70.3 67.26 70.3 67.63 70.85 68.18 71.22 68.37 71.95 69.1 71.95 69.47 72.14 70.03"/><polyline class="cls-2" points="72.14 70.21 72.14 70.03 71.4 70.21 71.4 70.03"/><polyline class="cls-2" points="69.74 66.52 70.11 65.97 70.67 65.6 71.22 65.42 72.69 65.42 73.06 65.05 73.61 65.6 73.25 65.97 72.69 66.34 70.85 66.34 70.3 66.89"/><polyline class="cls-2" points="69.74 66.52 70.3 66.89 70.48 66.89"/><polyline class="cls-2" points="72.88 65.23 73.06 65.05 72.88 64.68 72.69 64.13 72.32 63.76 71.59 62.65 71.4 62.1 71.4 61.55 72.14 61.92 72.14 62.1 72.14 61.92 72.14 62.28 72.51 62.65 73.61 64.31 73.8 64.86 73.8 65.23 73.61 65.6"/><polyline class="cls-2" points="73.61 65.6 72.88 65.23 73.06 65.05"/><polyline class="cls-2" points="71.59 61.36 71.95 60.99 73.25 60.99 74.9 61.55 75.27 61.55 75.64 61.36 75.83 62.1 75.27 62.28 74.72 62.28 73.61 61.92 73.06 61.92 72.51 61.73 72.32 61.73 72.14 61.92"/><polyline class="cls-2" points="71.4 61.55 71.59 61.55 71.59 61.36 72.14 61.92"/><polyline class="cls-2" points="75.46 61.55 75.46 61.18 75.09 60.26 74.9 59.34 74.9 58.6 75.27 58.23 75.83 58.78 75.64 58.97 75.64 59.15 75.83 60.07 76.19 60.99 76.19 61.92 76.01 62.1"/><polyline class="cls-2" points="75.83 62.1 76.01 62.1 75.46 61.55 75.64 61.36"/><polyline class="cls-2" points="75.46 58.05 76.19 57.86 76.93 57.86 77.48 58.05 78.04 58.41 78.77 58.78 78.96 58.97 79.33 58.6 79.69 59.34 79.14 59.7 78.77 59.7 78.59 59.52 78.04 59.34 77.67 58.97 77.11 58.78 76.75 58.6 76.38 58.6 75.64 58.78"/><polyline class="cls-2" points="75.27 58.23 75.46 58.05 75.64 58.78 75.83 58.78"/><polyline class="cls-2" points="79.14 58.78 79.33 58.6 79.14 57.68 78.96 57.13 78.96 56.57 79.33 55.84 79.88 55.47 80.43 56.02 79.88 56.39 79.69 56.76 79.69 57.13 79.88 57.5 80.06 58.23 80.06 58.97 79.88 59.34"/><polyline class="cls-2" points="79.69 59.34 79.88 59.34 79.14 58.78 79.33 58.6"/><polyline class="cls-2" points="80.06 55.47 80.43 55.1 80.98 55.1 81.72 55.28 82.09 55.47 82.27 55.65 83.01 56.21 83.75 57.13 83.93 57.31 84.3 57.31 84.3 58.05 83.75 58.05 83.2 57.68 82.46 56.76 81.91 56.21 81.54 56.02 81.35 56.02 80.8 55.84 80.62 55.84 80.43 56.02"/><polyline class="cls-2" points="79.88 55.47 80.06 55.47 80.43 56.02"/><polyline class="cls-2" points="83.93 57.31 84.3 57.13 84.48 56.76 84.67 56.21 84.67 55.65 85.22 54.55 85.59 54.18 86.14 53.81 86.51 54.55 85.96 54.73 85.41 55.84 85.41 56.57 85.22 57.13 84.85 57.68 84.48 58.05"/><polyline class="cls-2" points="84.3 58.05 84.48 58.05 83.93 57.31 84.3 57.31"/><polyline class="cls-2" points="86.33 53.81 86.88 53.81 87.62 53.99 87.99 54.55 88.72 55.28 89.09 55.84 89.46 56.02 89.83 56.39 89.64 57.13 88.91 56.76 87.99 55.84 87.8 55.28 87.43 54.91 87.06 54.73 86.88 54.55 86.33 54.55"/><polyline class="cls-2" points="86.14 53.81 86.33 53.81 86.33 54.55 86.51 54.55"/><polyline class="cls-2" points="89.83 56.39 90.01 56.21 90.2 56.21 90.57 55.47 90.94 54.36 91.67 53.99 92.22 53.99 92.22 54.73 91.67 54.73 91.67 54.91 91.49 54.91 91.12 55.65 90.75 56.57 90.38 56.94 89.83 57.13"/><polyline class="cls-2" points="89.64 57.13 89.83 57.13 89.83 56.39"/><polyline class="cls-2" points="92.41 53.99 92.78 54.18 93.33 54.55 93.88 55.1 94.99 56.76 95.17 57.13 95.73 57.31 95.17 57.86 94.62 57.68 93.52 56.02 93.15 55.65 92.78 55.1 92.04 54.73"/><polyline class="cls-2" points="92.22 53.99 92.41 53.99 92.04 54.73 92.22 54.73"/><polyline class="cls-2" points="95.54 57.31 95.73 57.31 96.09 57.13 96.65 56.21 97.02 55.65 97.57 55.28 97.75 55.1 98.31 54.91 98.86 54.91 98.86 55.65 98.12 55.65 97.57 56.21 97.2 56.76 96.65 57.68 96.09 58.05 95.36 58.05"/><polyline class="cls-2" points="95.17 57.86 95.17 58.05 95.36 58.05 95.54 57.31 95.73 57.31"/><polyline class="cls-2" points="99.04 54.91 99.6 55.28 99.97 55.65 100.33 56.21 100.33 56.76 100.7 57.86 100.89 58.23 101.25 58.41 100.7 58.97 100.33 58.78 99.97 58.23 99.6 57.13 99.6 56.57 99.41 56.21 99.04 55.84 98.67 55.65"/><polyline class="cls-2" points="98.86 54.91 99.04 54.91 98.67 55.65 98.86 55.65"/><polyline class="cls-2" points="100.89 58.41 101.07 58.41 101.81 57.5 102.18 56.94 102.54 56.57 103.1 56.39 103.65 56.57 103.47 57.31 103.1 57.13 102.36 57.86 101.81 58.78 101.25 59.15 100.89 59.15"/><polyline class="cls-2" points="100.7 58.97 100.7 59.15 100.89 59.15 100.89 58.41 101.25 58.41"/><polyline class="cls-2" points="103.83 56.57 104.39 57.13 105.12 57.68 106.6 59.52 107.15 60.63 107.89 61.92 108.44 63.21 108.81 64.5 108.07 64.68 107.7 63.39 107.15 62.28 106.6 60.99 105.86 60.07 105.31 58.97 104.57 58.23 103.83 57.68 103.28 57.13"/><polyline class="cls-2" points="103.65 56.57 103.83 56.57 103.28 57.13 103.47 57.31"/><polyline class="cls-2" points="108.07 64.86 107.7 64.31 107.15 63.94 106.23 63.21 105.49 62.84 104.94 62.84 104.57 63.21 104.57 64.86 104.94 66.52 104.2 66.71 103.83 64.86 103.83 63.02 104.02 62.65 104.39 62.28 104.76 62.1 105.68 62.1 106.6 62.47 107.7 63.39 108.26 63.76 108.63 64.31"/><polyline class="cls-2" points="108.81 64.5 108.07 64.86 108.63 64.31 108.07 64.68"/><polyline class="cls-2" points="104.2 66.71 103.47 65.6 102.54 64.5 101.81 63.58 101.44 63.21 100.89 63.02 101.25 62.28 102.36 63.02 103.28 63.94 104.02 65.05 104.94 66.34"/><polyline class="cls-2" points="104.94 66.52 104.2 66.71 104.94 66.34 104.2 66.71"/><polyline class="cls-2" points="100.89 63.02 100.52 62.84 100.33 62.84 99.6 63.58 99.04 63.76 98.67 63.76 98.31 63.02 98.86 63.02 99.04 62.84 99.6 62.47 99.78 62.28 100.15 62.1 100.7 62.1 101.25 62.28"/><line class="cls-4" x1="101.25" y1="62.29" x2="100.89" y2="63.02"/><polyline class="cls-2" points="98.49 63.76 98.12 63.94 97.39 63.58 96.83 63.02 96.83 62.28 96.46 61.55 96.28 61.36 95.91 61.18 96.09 60.44 96.65 60.63 97.2 60.99 97.57 62.1 97.57 62.65 97.75 63.02 97.94 63.02 97.94 63.21 98.12 63.21 98.49 63.02"/><polyline class="cls-2" points="98.67 63.76 98.49 63.76 98.49 63.02 98.31 63.02"/><polyline class="cls-2" points="96.09 61.18 95.54 61.18 95.54 61.36 95.36 61.36 95.36 61.73 95.17 62.1 94.99 62.65 94.44 63.02 93.88 63.21 93.52 62.65 94.07 62.28 94.44 62.1 94.44 61.73 94.62 61.55 94.62 61.18 94.81 60.81 95.36 60.44 95.91 60.44"/><polyline class="cls-2" points="96.09 60.44 95.91 60.44 96.09 61.18 95.91 61.18"/><polyline class="cls-2" points="93.7 63.21 93.33 63.39 92.78 63.39 92.04 63.02 91.67 62.28 91.3 61.73 90.57 60.44 90.38 60.26 90.2 60.26 90.01 59.52 90.38 59.52 91.12 59.89 91.3 60.07 91.86 61.36 92.22 61.92 92.41 62.1 92.59 62.47 92.78 62.47 92.96 62.65 93.15 62.65 93.52 62.47"/><polyline class="cls-2" points="93.88 63.21 93.7 63.21 93.52 62.47 93.52 62.65"/><polyline class="cls-2" points="90.38 60.26 90.01 60.44 89.83 60.63 89.46 61.36 89.28 61.92 88.54 62.65 88.17 62.84 87.8 62.84 87.62 62.1 87.99 62.1 87.99 61.92 88.36 61.73 88.54 61.55 88.72 61.18 89.09 60.26 89.46 59.89 90.01 59.52"/><polyline class="cls-2" points="90.01 59.52 90.38 60.26 90.2 60.26"/><polyline class="cls-2" points="87.8 62.84 87.06 62.84 86.51 62.47 86.14 61.92 85.78 61.18 85.41 60.81 84.85 60.81 84.48 60.99 84.3 60.26 84.67 60.07 85.41 60.07 85.78 60.26 86.33 60.63 86.51 60.99 86.88 61.55 87.06 61.92 87.43 62.1 87.8 62.1"/><polyline class="cls-2" points="87.8 62.84 87.8 62.1 87.62 62.1"/><polyline class="cls-2" points="84.67 60.99 84.12 61.36 83.75 61.55 83.75 61.92 83.93 62.28 84.12 63.21 84.12 63.94 83.93 64.31 83.2 63.94 83.38 63.58 83.38 63.39 83.2 62.47 83.01 61.92 83.01 61.18 83.56 60.81 84.12 60.26"/><polyline class="cls-2" points="84.3 60.26 84.12 60.26 84.67 60.99 84.48 60.99"/><polyline class="cls-2" points="83.75 64.5 83.01 64.86 82.64 64.86 82.09 64.68 81.72 64.68 81.17 64.5 80.62 64.5 80.25 65.05 79.69 64.5 80.06 63.94 80.43 63.94 80.8 63.76 81.35 63.76 81.91 63.94 82.27 63.94 82.83 64.13 83.38 63.76"/><polyline class="cls-2" points="83.93 64.31 83.75 64.5 83.38 63.76 83.2 63.94"/><polyline class="cls-2" points="80.43 64.86 80.25 65.23 80.25 65.6 80.43 65.79 80.62 66.16 80.98 66.52 81.17 66.89 81.17 68 80.43 67.81 80.43 67.26 80.25 66.89 79.69 66.34 79.33 65.23 79.69 64.68"/><polyline class="cls-2" points="79.69 64.5 79.69 64.68 80.43 64.86 80.25 65.05"/><polyline class="cls-2" points="80.98 68.18 80.43 68.73 79.88 69.1 77.67 69.1 77.48 69.29 76.93 68.73 77.3 68.55 77.85 68.37 79.69 68.37 80.06 68.18 80.43 67.63"/><polyline class="cls-2" points="81.17 68 81.17 68.18 80.98 68.18 80.43 67.63 80.43 67.81"/><polyline class="cls-2" points="77.67 69.29 77.48 69.66 77.67 70.03 78.04 70.21 78.96 70.58 79.14 70.95 79.33 71.13 79.33 71.87 78.59 71.87 78.59 71.5 78.41 71.31 77.67 70.76 77.11 70.58 76.75 70.21 76.75 69.84 76.56 69.47 76.93 68.92"/><polyline class="cls-2" points="76.93 68.73 76.93 68.92 77.67 69.29 77.48 69.29"/><polyline class="cls-2" points="79.33 71.87 79.33 72.42 78.96 72.79 77.85 73.34 77.48 73.71 77.3 74.08 76.56 74.08 76.75 73.34 77.11 72.97 77.85 72.61 78.41 72.24 78.59 72.05 78.59 71.87"/><line class="cls-4" x1="79.33" y1="71.87" x2="78.59" y2="71.87"/><polyline class="cls-2" points="77.3 74.08 77.48 74.26 78.22 74.45 79.33 75.55 79.33 76.29 78.59 76.29 78.59 75.92 78.41 75.55 78.04 75.37 77.85 75.19 76.75 74.63 76.56 74.26 76.56 74.08"/><line class="cls-4" x1="76.56" y1="74.08" x2="77.3" y2="74.08"/><polyline class="cls-2" points="79.33 76.29 79.33 76.84 79.14 77.21 78.96 77.4 78.59 77.58 77.48 77.58 77.3 77.77 77.3 78.13 76.56 77.77 76.75 77.4 77.11 77.03 77.48 76.84 78.22 76.84 78.59 76.66 78.59 76.29"/><line class="cls-4" x1="79.33" y1="76.29" x2="78.59" y2="76.29"/><polyline class="cls-2" points="77.3 77.77 77.3 77.95 77.48 77.95 78.22 78.13 78.77 78.32 79.14 78.5 79.69 78.87 79.88 79.06 79.88 79.24 79.14 79.61 79.14 79.24 78.96 79.24 78.77 79.06 78.04 79.06 77.11 78.69 76.75 78.5 76.56 78.13"/><polyline class="cls-2" points="76.56 77.77 76.56 78.13 77.3 77.77 77.3 78.13"/><polyline class="cls-2" points="79.88 79.42 80.06 79.98 80.06 80.71 79.51 81.27 78.77 81.82 78.41 81.08 79.14 80.71 79.33 80.35 79.14 79.98 79.14 79.42"/><polyline class="cls-2" points="79.88 79.24 79.88 79.42 79.14 79.42 79.14 79.61"/><line class="cls-9" x1="70.48" y1="81.45" x2="78.59" y2="81.45"/><polyline class="cls-2" points="78.77 81.82 78.59 81.82 78.59 81.08 78.41 81.08"/><polyline class="cls-2" points="70.48 81.82 70.3 81.82 70.11 81.64 70.67 81.08 70.48 81.08"/><path class="cls-10" d="M15,104.85v-2.39l.19-2.21L15.57,98l.37-2.4.55-2L17,91.4l.74-2,.92-2.21.92-1.84.92-2,1.11-1.84,2.58-3.68,1.29-1.66L27,74.45,28.65,73l1.47-1.65L31.78,70l1.85-1.48,1.84-1.1,1.84-1.29,2-1.11,1.84-.92,2.21-.92,2-.74L49.84,61l4.42-.74,2.4-.37,2.4-.18h4.79l2.21.18,2.39.37,2.21.37,2.4.37,2.21.73,2,.74,2.21.74,4,1.84,1.85,1.11,2,1.29,1.66,1.1L90.94,70l1.65,1.29,3.14,3.13,2.94,3.32L100,79.61l2.22,3.68,1.1,2,.92,1.84.74,2.21.74,2,.73,2.21.56,2,.37,2.4.36,4.42.19,2.39-.19,2.4-.36,4.42-.37,2.21-.56,2.21-.73,2.22-1.48,4-.92,2-1.1,2L100,130.1l-1.29,1.84-2.94,3.32-1.48,1.47-3.31,3L89.09,141l-.73.74-.93.55-2,1.29-1.85.92-2,1.11-2,.92-2.21.74-2,.73-2.21.56-2.4.55-2.21.37-2.39.37-2.21.18H59.06l-2.4-.18-2.4-.37-2.21-.37L47.63,148l-2.21-.73-2-.74-2.21-.92-1.84-1.11-2-.92-5.53-3.87-1.66-1.47-1.47-1.48-.92-.73-.74-.74-1.47-1.66-1.29-1.66-2.58-3.69-1.11-1.84-2.76-6.08-.74-2-1.1-4.43-.74-4.42L15,107.25m8.48-2.4.55,5.53.74,3.69.55,1.66.56,1.84.73,1.66.74,1.47.74,1.66.92,1.47.92,1.66,2.21,2.76,2.58,2.58,2.58,2.4,1.48,1.11,1.47.92,1.47,1.1,1.66.74,1.66.92,1.66.74,3.5,1.29,1.66.37,3.68.74,2,.36h1.84l2,.19,2-.19,1.84-.18,2-.18,1.84-.37,3.69-.92,1.84-.56,1.84-.73,1.66-.74L81.54,136l1.47-.93L86,132.86l1.47-1.29,1.29-1.29L29,85.69,27.73,87.9l-.92,2.21L25.7,92.32,25,94.72,24.6,96l-.19,1.1-.55,2.58M94.25,123.1l1.11-2,.92-2,.92-2.21.74-2.39.55-2.22.18-1.29.19-1.1.18-2.58.19-2.4V103L99,101l-.18-1.84-.37-1.66-.55-1.84L97.57,94l-.74-1.84-.55-1.66-.74-1.66-.92-1.47-.92-1.66-.92-1.48-2.21-2.76-1.11-1.29-1.29-1.29-2.76-2.39-3-2.22L81,73.34l-1.47-.92L76.19,71l-3.5-1.29-1.84-.37L69,68.74l-1.85-.19-1.84-.37-2-.18H59.42l-3.68.37-1.66.37-1.84.36-1.66.56-1.84.55-1.66.55-1.66.74-1.48.74L42.29,73l-2.95,1.85-1.29,1.1L36.57,77l-1.29,1.1"/><path class="cls-2" d="M248.12,48.28a6.83,6.83,0,1,0-6.82,6.45,6.65,6.65,0,0,0,6.82-6.45"/><polyline class="cls-10" points="241.3 114.44 127.97 114.44 131.48 112.96 134.79 111.49 136.45 110.56 137.93 109.64 139.22 108.72 140.32 107.43 141.98 105.59 144.01 103.01 146.03 100.06 148.43 97.48 149.72 96.19 151.01 95.27 151.56 94.72 152.3 94.35 153.59 93.8 154.88 93.43 156.17 93.43 156.72 93.61 157.27 93.98 158.01 94.35 158.56 94.72 159.85 93.8 160.96 92.88 162.25 91.77 163.35 90.66 165.56 88.45 167.78 86.06 169.8 83.66 171.65 81.27 174.6 77.03 176.07 74.82 177.73 71.68 178.83 70.21 179.94 68.55 181.41 66.89 182.89 65.42 184.55 63.94 185.47 63.21 186.39 62.65 187.49 61.92 188.6 61.55 189.71 60.99 192.29 60.26 193.76 60.07 195.05 59.89 196.71 59.7 198.18 59.7 199.84 59.89 201.69 60.07 203.53 60.44 202.05 60.81 200.39 61.18 198.92 61.55 197.45 62.1 196.16 62.84 194.87 63.39 193.57 64.31 192.29 65.05 190.44 67.26 189.71 68.37 188.97 69.66 188.78 70.21 188.6 70.95 188.41 72.42 188.41 74.82 188.6 75.55 189.34 75.37 191.55 73.71 192.29 72.97 192.84 72.24 195.42 69.29 196.89 68 197.63 67.44 198.55 66.89 199.47 66.52 200.39 66.34 200.21 67.26 200.03 68.37 199.84 69.1 199.84 69.84 200.03 70.76 200.03 71.13 204.08 68.18 210.71 63.02 212 62.1 213.66 60.99 215.14 60.07 216.61 58.97 217.9 57.86 219.01 56.57 219.37 55.84 219.74 54.36 219.74 53.63 220.85 55.84 221.22 56.76 221.59 57.86 221.77 59.7 221.77 61.55 221.59 62.47 221.59 63.39 221.22 64.13 221.03 65.05 219.56 68.37 217.72 71.5 215.87 74.82 215.14 76.48 214.03 79.79 213.85 81.64 216.61 81.08 217.35 80.71 217.9 80.35 218.64 79.98 219.74 78.87 221.95 76.29 222.88 75 223.98 73.71 224.35 74.45 224.72 75.74 224.9 77.21 224.9 78.69 225.09 81.64 224.9 82.74 227.11 81.64 232.46 78.69 238.35 75 243.33 71.68 243.33 72.42 242.96 73.53 242.22 76.29 240.94 79.42 239.46 82.92 236.88 88.82 235.59 91.4 235.77 91.58 236.33 91.58 237.43 91.4 239.28 90.66 241.86 89.37 245.73 87.16 250.89 84.03 250.89 84.58 250.7 85.32 250.52 85.87 250.33 86.61 249.97 87.9 248.49 90.48 247.57 91.77 246.46 93.06 245.54 94.35 244.44 95.64 239.64 100.43 238.54 101.91 239.83 101.91 241.3 101.72 242.59 101.54 243.88 101.17 246.65 100.62 249.41 99.69 251.99 98.77 254.57 97.67 256.78 96.56 258.81 95.27 257.89 97.67 256.78 100.06 255.49 102.09 254.02 104.12 252.73 105.77 251.25 107.43 248.31 110.01 246.83 111.12 245.54 112.04 243.33 113.33 241.86 114.07"/><polyline class="cls-10" points="202.61 50.86 201.5 52.89 200.39 54.36 199.47 55.65 198.37 56.57 196.16 57.68 195.23 58.05 194.13 58.23 191.73 58.41 190.44 58.78 189.34 58.97 187.86 59.52 187.31 59.89 185.84 60.63 185.1 61.18 183.63 62.65 184.91 60.26 186.57 58.05 187.49 56.94 188.6 55.84 190.81 53.99 192.1 53.07 193.57 52.34 194.87 51.78 196.34 51.23 197.81 50.86 199.29 50.68 200.95 50.68"/><polyline class="cls-10" points="183.07 56.21 180.49 56.94 178.47 57.68 177.36 58.05 176.44 58.41 174.78 59.15 173.49 60.07 172.75 60.63 172.2 60.99 171.09 62.28 170.17 63.58 169.44 65.05 168.88 66.89 168.33 68.92 167.78 71.13 167.22 73.71 166.67 76.66 165.56 83.66 167.78 81.27 172.57 76.48 173.12 75.74 173.68 75.19 174.6 73.89 175.33 72.42 175.89 70.58 176.25 68.92 176.44 67.63 176.44 66.71 176.44 64.86 177.36 63.02 178.65 61.18 179.39 60.26 181.41 58.23 182.15 57.31"/><polyline class="cls-10" points="248.86 67.44 249.6 69.66 249.97 71.87 250.15 73.89 250.15 75 249.97 75.92 249.23 77.77 248.86 78.13 248.68 78.69 247.2 80.16 244.99 81.27 243.7 81.82 244.44 79.98 244.81 77.95 245.17 73.89 245.36 72.79 245.54 71.87 246.28 70.03 246.65 69.29 247.2 68.55 247.94 68"/><polyline class="cls-10" points="256.05 81.64 256.6 83.29 256.97 84.03 257.15 84.58 257.33 85.87 257.33 86.98 257.15 88.08 256.78 88.82 256.41 89.74 255.86 90.3 254.39 91.4 252.73 92.32 249.23 93.98 251.07 91.22 252.91 88.08 254.75 84.77"/><polyline class="cls-2" points="215.14 78.69 216.24 78.32 217.35 77.77 218.45 77.03 220.66 75.19 221.95 74.08 224.72 71.31 225.09 71.68 225.27 72.24 225.82 73.16 226.19 75.74 226.38 78.13 226.56 80.16 227.3 79.98 228.03 79.61 229.14 78.87 230.06 78.13 231.17 77.21 232.46 76.11 237.25 71.68 239.28 69.47 242.04 66.52 242.41 66.16 242.96 65.79 244.25 65.42 245.73 65.05 251.81 65.05 252.91 64.86 253.83 64.68 254.57 64.5 255.12 64.13 255.86 63.76 256.23 63.02 256.6 62.47 256.97 61.55 256.97 60.44 256.78 57.68 256.6 54.18 256.23 49.94 252.18 50.68 251.99 53.26 251.62 56.76 251.62 57.5 251.44 58.23 251.07 58.6 250.33 58.78 248.49 58.97 246.28 58.97 243.51 58.78 243.7 58.6 243.88 58.05 243.88 57.68 243.33 57.13 242.96 56.94 240.38 56.57 239.09 56.21 237.99 55.65 236.7 55.1 234.85 53.99 234.3 53.26 233.19 53.26 232.64 53.63 232.46 53.81 232.46 54.18 225.82 49.2 225.46 48.83 225.27 48.47 225.27 47.73 225.46 47.17 225.82 46.44 226.19 46.25 227.3 45.33 228.77 43.86 230.8 42.02 227.3 38.7 220.66 43.67 219.74 44.41 218.82 45.33 218.64 45.88 218.45 46.25 218.45 47.36 218.64 47.73 218.82 48.28 219.74 50.31 220.85 52.15 222.69 55.1 222.88 55.84 223.25 56.57 223.43 57.68 223.43 61.73 223.25 62.65 222.14 65.05 221.59 66.71 220.66 68.73 219.56 70.95 218.27 73.34 216.79 75.92"/><polyline class="cls-2" points="228.22 38.15 231.17 41.28 231.91 41.09 233.56 40.73 234.67 40.36 235.77 39.8 236.7 39.25 237.62 38.51 237.99 38.15 238.17 37.78 238.17 37.41 237.8 37.04 237.25 36.85 237.06 36.67 237.25 36.49 237.8 36.12 237.99 35.75 238.35 35.38 238.54 35.01 238.72 34.27 238.72 33.54 238.54 33.17 237.99 32.8 237.43 32.62 235.59 32.62 234.48 32.99 233.56 33.54 232.46 34.09 231.35 34.83 229.69 36.49 228.59 37.78"/><polyline class="cls-2" points="252.36 50.12 253.1 49.76 254.39 49.57 256.05 49.39 256.23 45.88 256.23 42.2 256.05 41.65 255.68 40.73 254.94 39.99 254.39 39.62 253.83 39.44 253.28 39.44 252.73 39.62 252.18 39.99 251.81 40.36 251.62 40.91 251.25 41.46 251.07 42.38 251.07 42.75 250.7 42.2 250.15 42.02 249.78 42.02 249.41 42.2 249.23 42.38 249.23 43.67 249.23 44.23 249.6 44.96 249.78 45.52 250.33 46.25 250.89 47.17"/><polyline class="cls-8" points="108.63 71.87 110.84 69.29 111.02 69.66 112.13 70.21 113.05 70.58 113.97 71.31 114.52 72.05 115.08 73.16 115.26 73.71 115.26 75.92 116.36 76.66 117.1 77.4 117.29 77.77 117.66 78.13 117.84 79.06 118.02 80.16 118.02 81.08 117.84 82 117.66 83.11 118.39 83.85 118.94 84.58 119.5 85.5 119.87 86.24 120.05 87.16 120.23 88.27 120.23 89.37 120.05 90.48 120.6 91.22 121.16 91.77 121.71 92.51 122.08 93.24 122.45 94.9 122.63 96.56 122.45 98.22 122.08 101.17 121.71 102.27 122.45 103.38 122.63 103.75 123 104.3 123.37 106.51 123.37 107.8 123 108.91 122.26 111.49 123 112.41 123.92 113.33 124.47 114.44 125.03 115.73 125.39 117.02 125.58 118.31 125.58 119.78 125.39 121.25 125.95 121.44 126.69 121.62 127.24 121.81 127.97 122.18 129.08 122.91 130.19 124.02 130.92 122.91 131.48 122.36 132.58 121.62 133.32 121.44 134.79 120.89 137.74 120.89 139.22 121.25 139.77 121.44 140.32 121.81 141.8 120.89 143.08 120.33 144.56 119.78 146.22 119.41 147.69 119.41 149.9 119.96 150.82 120.33 152.3 121.25 152.85 120.7 153.59 120.33 155.25 119.6 156.17 119.23 158.01 118.86 160.96 118.86 161.88 119.04 164.64 120.15 165.38 120.7 166.12 121.44 166.67 120.89 167.41 120.33 168.88 119.6 170.73 119.23 172.57 119.23 175.33 119.78 176.07 120.15 176.99 120.52 177.73 120.89 178.83 121.62 179.57 120.89 180.49 120.33 181.23 119.78 183.07 119.04 184.91 118.67 186.76 118.67 188.6 119.04 189.52 119.41 191.36 120.52 193.02 122.18 193.76 121.07 194.31 120.7 194.68 120.33 195.79 119.6 196.16 119.41 196.71 119.04 197.81 118.67 198.74 118.31 202.05 118.31 202.97 118.67 204.08 119.04 205 119.6 205.92 120.33 207.58 121.99 208.13 123.1 209.06 122.18 209.98 121.44 212.19 119.96 213.48 119.41 216.06 118.67 217.35 118.49 219.93 118.49 222.51 119.23 223.8 119.96 224.9 120.7 226.93 122.73 227.11 123.1 228.96 121.62 229.88 121.07 230.8 120.7 231.91 120.33 233.75 119.96 234.85 119.96 235.77 120.15 236.88 120.33 237.8 120.89 238.91 121.44 239.83 121.99 240.94 122.91 241.86 124.02 242.96 125.12 243.51 124.2 244.99 122.73 246.46 121.62 247.38 121.25 249.04 120.89 250.89 120.89 252.73 121.44 254.57 122.18 256.41 123.28 256.78 123.28 257.33 123.65 257.7 123.83 257.89 124.2 258.44 124.94 258.81 125.86 259.18 127.15 259.36 127.7 259.36 128.25 259.55 129.55 259.18 130.84 258.62 132.13 257.15 134.34 256.23 135.26 255.12 136 254.02 136.55 252.73 137.1 251.62 137.28 250.33 137.47 249.04 137.28 247.75 136.92 246.46 136.36 245.17 135.63 243.51 133.97 242.96 133.23 240.75 135.81 239.83 136.73 238.91 137.47 237.8 138.21 235.96 138.94 234.12 139.31 233.19 139.31 232.46 139.13 231.54 138.94 230.8 138.57 229.88 138.21 228.4 137.28 227.48 138.21 226.38 139.13 225.82 139.68 224.17 140.79 223.06 141.34 221.77 141.89 220.48 142.26 217.9 142.63 215.32 142.26 212.74 141.16 211.45 140.42 210.16 139.31 209.61 138.76 209.06 138.02 208.32 139.13 207.4 140.05 204.63 142.26 203.53 142.63 202.61 143 201.5 143.37 199.47 143.37 198.37 143.18 197.45 143 195.6 141.89 195.23 141.52 194.68 141.16 193.94 140.23 192.47 141.34 190.81 142.26 189.89 142.63 188.05 143 186.94 143.18 184.91 143.18 183.07 142.81 181.97 142.44 181.04 142.08 179.02 140.97 177.18 142.08 175.33 142.81 173.49 143.18 171.83 143.18 170.17 143 169.25 142.81 168.51 142.26 167.78 141.89 167.04 141.34 166.49 140.6 165.75 139.87 164.28 140.79 162.43 141.52 161.7 141.89 160.78 142.26 158.93 142.63 157.27 142.63 156.54 142.44 155.61 142.26 154.88 141.89 154.14 141.34 152.85 140.05 151.75 140.79 150.46 141.34 149.72 141.71 148.98 141.71 147.51 141.89 145.85 141.89 144.38 141.52 142.9 140.79 141.43 139.68 140.14 140.42 139.03 141.16 138.29 141.34 137.56 141.71 137 141.89 135.53 141.89 134.79 141.52 133.87 141.16 133.13 140.6 131.48 138.94 130.74 137.65 130 136 129.08 136.73 128.16 137.1 127.05 137.65 126.13 138.02 125.03 138.21 122.81 138.21 121.16 137.65 120.79 137.47 120.23 137.1 119.87 136.73 118.76 135.07 118.39 134.34 118.02 132.86 117.84 130.84 117.84 127.15 118.02 125.86 116.73 124.39 116.36 123.65 115.81 122.73 115.44 121.99 115.26 121.25 115.08 120.33 114.89 119.6 114.89 117.94 115.26 116.09 115.63 115.36 116 114.44 117.1 112.59 116.18 111.49 115.63 110.93 115.26 110.38 114.15 107.8 113.97 106.51 113.97 105.96 114.15 105.22 114.52 103.93 114.89 103.38 115.26 102.64 114.34 99.69 113.97 98.4 113.78 97.11 113.6 96.01 113.78 94.72 113.97 94.17 114.15 93.43 114.71 92.14 113.42 90.48 112.86 89.74 112.5 88.82 112.5 86.98 112.68 86.42 113.42 85.32 113.78 84.58 113.05 84.03 112.5 83.48 111.76 82 111.57 81.27 111.39 80.16 111.39 79.24 111.57 77.95 110.65 77.58 109.92 76.84 109.73 76.48 109.36 76.11 108.99 75.37 108.63 74.45 108.63 73.53 108.44 72.61"/><polyline class="cls-2" points="108.26 71.5 108.81 72.05 111.02 69.66 110.47 69.1"/><polyline class="cls-2" points="111.21 69.1 110.47 69.47 110.65 69.84 111.39 69.47"/><polyline class="cls-2" points="110.47 69.1 110.84 68.55 111.21 69.1 110.47 69.47 111.02 69.66"/><polyline class="cls-2" points="111.21 69.29 113.42 70.39 114.15 70.95 114.89 71.68 115.08 72.24 115.26 72.61 115.63 73.71 115.63 75.92 114.89 75.92 114.89 74.82 114.71 73.71 114.71 73.34 114.15 72.24 113.6 71.5 112.86 70.95 111.94 70.58 110.84 70.03"/><polyline class="cls-2" points="110.65 69.84 110.65 70.03 110.84 70.03 111.21 69.29 111.39 69.47"/><polyline class="cls-2" points="115.44 75.55 116.18 75.92 116.55 76.29 117.29 77.21 117.66 77.58 118.02 78.13 118.21 79.06 118.39 80.16 118.39 81.08 118.21 82.19 118.02 83.11 117.29 83.11 117.47 82 117.66 81.08 117.66 80.16 117.29 78.32 116.92 77.95 116.73 77.58 116 77.03 115.63 76.66 115.08 76.29"/><polyline class="cls-2" points="114.89 75.92 114.89 76.11 115.08 76.29 115.44 75.55 115.63 75.92"/><polyline class="cls-2" points="118.02 82.92 118.58 83.66 119.31 84.4 119.87 85.32 120.23 86.24 120.42 87.16 120.6 88.27 120.6 89.37 120.42 90.48 119.68 90.48 119.87 89.19 119.87 88.27 119.5 86.42 118.76 84.95 118.02 84.21 117.29 83.29"/><polyline class="cls-2" points="117.29 83.11 117.29 83.29 118.02 82.92 118.02 83.11"/><polyline class="cls-2" points="120.23 90.3 120.97 90.85 121.52 91.58 121.89 92.32 122.45 93.24 122.81 94.9 123 96.56 122.81 98.22 122.45 101.17 122.08 102.46 121.34 102.27 121.71 100.98 121.89 99.69 122.08 98.04 122.26 96.56 122.08 94.9 121.71 93.43 121.34 92.69 120.97 92.14 120.42 91.4 119.68 90.85"/><polyline class="cls-2" points="119.68 90.48 119.5 90.66 119.68 90.85 120.23 90.3 120.42 90.48"/><polyline class="cls-2" points="121.89 102.09 122.81 103.01 123 103.56 123.37 104.3 123.74 106.51 123.74 107.8 122.63 111.67 121.89 111.49 122.63 108.91 122.81 107.62 123 107.06 123 106.69 122.81 105.41 122.63 104.48 122.26 103.93 122.08 103.56 121.71 103.01 121.34 102.64"/><polyline class="cls-2" points="121.34 102.27 121.16 102.46 121.34 102.64 121.89 102.09 122.08 102.46"/><polyline class="cls-2" points="122.45 111.3 123.37 112.22 124.1 113.14 124.84 114.25 125.39 115.54 125.76 116.83 125.95 118.31 125.95 119.78 125.76 121.25 124.84 121.25 125.03 119.6 125.21 118.31 125.03 117.02 124.66 115.73 124.1 114.62 123.55 113.7 122.81 112.59 121.89 111.86"/><polyline class="cls-2" points="121.89 111.49 121.71 111.67 121.89 111.86 122.45 111.3 122.63 111.67"/><polyline class="cls-2" points="125.39 120.89 126.87 121.25 127.42 121.44 128.16 121.81 128.71 122.18 129.26 122.73 129.82 123.1 130.37 123.83 129.82 124.2 128.9 123.28 127.24 122.18 126.5 121.99 125.95 121.81 125.21 121.62"/><polyline class="cls-2" points="124.84 121.25 124.84 121.44 125.21 121.62 125.39 120.89 125.76 121.25"/><polyline class="cls-2" points="129.82 123.83 130.19 123.1 130.55 122.54 131.11 122.18 131.84 121.62 132.4 121.25 133.13 121.07 134.79 120.52 137.74 120.52 139.95 121.07 140.5 121.44 140.14 122.18 139.58 121.81 139.03 121.62 138.29 121.44 137.74 121.25 136.27 121.25 134.79 121.44 133.5 121.81 132.76 121.99 131.11 123.1 130.74 123.65 130.37 124.2"/><polyline class="cls-2" points="129.82 124.2 130.19 124.76 130.37 124.2 129.82 123.83 130.37 123.83"/><polyline class="cls-2" points="140.14 121.44 143.08 119.96 144.56 119.41 146.03 119.04 147.69 119.04 149.17 119.41 150.09 119.6 151.01 119.96 152.48 120.89 151.93 121.62 150.64 120.7 149.9 120.33 147.69 119.78 146.95 119.78 146.22 119.96 144.74 120.15 143.27 120.7 141.98 121.25 140.5 122.18"/><polyline class="cls-2" points="140.14 122.18 140.5 122.18 140.14 121.44 140.5 121.44"/><polyline class="cls-2" points="151.93 121.07 153.4 119.96 155.06 119.23 155.98 118.86 157.09 118.67 158.01 118.49 160.96 118.49 162.06 118.67 163.91 119.41 164.83 119.96 165.56 120.52 166.3 121.25 165.75 121.81 165.01 121.07 164.28 120.52 162.8 119.78 161.88 119.41 160.96 119.23 158.01 119.23 156.17 119.6 155.43 119.96 153.77 120.7 153.04 121.07 152.48 121.62"/><polyline class="cls-2" points="151.93 121.62 152.3 121.81 152.48 121.62 151.93 121.07 152.48 120.89"/><polyline class="cls-2" points="165.75 121.25 166.3 120.52 167.04 119.96 168.88 119.23 170.73 118.86 172.57 118.86 175.33 119.41 177.18 120.15 177.91 120.52 179.02 121.25 178.65 121.99 177.54 121.25 176.07 120.52 175.15 120.15 174.23 119.96 173.49 119.78 172.57 119.78 171.65 119.6 170.73 119.6 169.8 119.78 169.07 119.96 166.85 121.07 166.3 121.81"/><polyline class="cls-2" points="165.75 121.81 166.12 121.99 166.3 121.81 165.75 121.25 166.3 121.25"/><polyline class="cls-2" points="178.65 121.44 179.39 120.7 180.31 119.96 182.89 118.67 183.99 118.49 184.91 118.31 186.94 118.31 188.78 118.67 189.71 119.04 190.63 119.6 192.47 121.07 193.21 121.81 192.65 122.36 191.92 121.62 191 120.89 190.26 120.33 189.34 119.78 188.6 119.41 186.76 119.04 184.91 119.04 183.99 119.23 183.26 119.41 181.41 120.15 179.94 121.25 179.02 121.99"/><polyline class="cls-2" points="178.65 121.99 178.83 122.18 179.02 121.99 178.65 121.44 179.02 121.25"/><polyline class="cls-2" points="192.65 121.81 194.5 119.96 195.42 119.23 195.97 119.04 196.52 118.67 198.74 117.94 202.05 117.94 204.26 118.67 205.19 119.23 206.11 119.96 207.4 121.25 208.5 122.91 207.76 123.47 207.21 122.36 206.84 121.81 206.48 121.44 205.55 120.7 204.82 119.96 203.9 119.41 202.97 119.04 201.87 118.86 200.95 118.67 199.84 118.67 198.92 118.86 197.81 119.04 196.89 119.41 196.34 119.78 195.97 119.96 195.05 120.7 194.5 121.07 193.21 122.36"/><polyline class="cls-2" points="192.65 122.36 193.02 122.73 193.21 122.36 192.65 121.81 193.21 121.81"/><polyline class="cls-2" points="207.95 122.91 209.79 121.07 212 119.6 213.29 119.04 215.87 118.31 217.35 118.12 219.93 118.12 221.4 118.49 222.69 118.86 223.98 119.6 225.09 120.52 226.38 121.62 226.93 122.18 227.11 122.54 227.48 122.91 226.93 123.47 226.56 123.1 226.38 122.73 224.72 121.07 223.61 120.33 222.32 119.6 221.03 119.23 219.93 118.86 218.64 118.86 217.35 118.86 216.06 119.04 214.77 119.41 213.66 119.78 212.37 120.33 211.27 120.89 210.34 121.81 209.24 122.54 208.5 123.47"/><polyline class="cls-2" points="207.76 123.47 208.13 123.83 208.5 123.47 207.95 122.91 208.5 122.91"/><polyline class="cls-2" points="226.93 122.91 228.77 121.44 229.69 120.89 230.8 120.33 231.72 119.96 232.83 119.78 233.75 119.6 234.85 119.6 235.96 119.78 236.88 119.96 239.09 121.07 240.2 121.81 241.12 122.73 242.22 123.65 243.15 124.94 242.59 125.49 241.67 124.2 240.56 123.28 239.64 122.36 238.72 121.62 237.62 121.25 236.7 120.7 234.85 120.33 233.75 120.33 231.91 120.7 230.98 121.07 230.06 121.44 229.14 121.99 227.48 123.47"/><polyline class="cls-2" points="226.93 123.47 227.11 123.65 227.48 123.47 226.93 122.91 227.48 122.91"/><polyline class="cls-2" points="242.59 124.94 243.15 124.02 243.88 123.1 244.62 122.54 245.54 121.81 246.28 121.44 247.2 120.89 249.04 120.52 250.89 120.52 252.73 121.07 253.83 121.44 254.75 121.81 256.6 122.91 256.23 123.65 254.39 122.54 252.54 121.81 250.89 121.44 249.04 121.44 247.38 121.62 246.65 121.99 244.44 123.65 243.88 124.57 243.15 125.49"/><polyline class="cls-2" points="242.59 125.49 242.96 125.86 243.15 125.49 242.59 124.94 243.15 124.94"/><polyline class="cls-2" points="256.23 122.91 256.97 122.91 257.52 123.28 257.89 123.65 258.26 123.83 258.81 124.76 259.55 126.97 259.73 127.7 259.73 128.25 259.92 129.55 258.99 129.55 258.99 127.7 258.44 126.05 258.07 125.12 257.52 124.39 257.33 124.02 257.15 123.83 256.6 123.65 256.41 123.65"/><polyline class="cls-2" points="256.23 123.65 256.41 123.65 256.23 122.91 256.6 122.91"/><polyline class="cls-2" points="259.92 129.73 259.55 131.02 258.81 132.31 258.62 132.86 258.26 133.6 257.7 134.15 257.33 134.71 256.41 135.44 255.31 136.36 254.2 136.92 252.91 137.47 250.33 137.84 248.86 137.65 247.57 137.28 246.28 136.73 244.99 136 243.7 134.89 242.59 133.41 243.15 133.05 243.7 133.6 244.25 134.34 245.54 135.26 246.65 136 247.75 136.55 249.04 136.92 250.33 137.1 251.44 136.92 252.73 136.73 253.83 136.36 254.94 135.63 256.78 134.15 258.26 131.94 258.81 130.84 259.18 129.36"/><polyline class="cls-2" points="259.92 129.55 259.92 129.73 259.18 129.36 258.99 129.55"/><polyline class="cls-2" points="243.15 133.41 242.22 134.89 241.12 136 240.01 136.92 239.09 137.84 238.17 138.39 237.06 138.94 235.96 139.31 234.12 139.68 233.19 139.68 231.35 139.31 230.62 138.94 229.69 138.57 228.22 137.65 228.59 136.92 230.06 137.84 230.8 138.21 231.72 138.57 232.46 138.76 233.38 138.94 234.12 138.94 234.85 138.76 236.7 138.39 238.54 137.28 239.46 136.36 240.56 135.44 241.49 134.34 242.59 133.05"/><polyline class="cls-2" points="243.15 133.05 242.78 132.68 242.59 133.05 243.15 133.41 242.59 133.41"/><polyline class="cls-2" points="228.59 137.47 227.67 138.57 226.75 139.5 226.01 140.05 224.35 141.16 223.25 141.71 221.95 142.26 220.66 142.63 219.19 142.81 217.9 143 216.61 142.81 215.14 142.63 212.56 141.52 209.98 139.68 209.42 138.94 208.69 138.39 209.24 137.84 209.98 138.39 210.53 139.13 211.63 140.05 214.21 141.52 215.5 141.89 216.61 142.08 217.9 142.26 219.19 142.08 220.3 141.89 222.88 141.16 226.19 138.94 227.11 138.02 228.03 136.92"/><polyline class="cls-2" points="228.59 136.92 228.22 136.73 228.03 136.92 228.59 137.47 228.22 137.65"/><polyline class="cls-2" points="209.42 138.39 208.5 139.5 207.76 140.42 205.92 141.89 203.71 143 202.61 143.37 201.69 143.74 199.47 143.74 197.26 143.37 195.42 142.26 194.87 141.89 194.5 141.52 193.76 140.6 194.31 140.05 195.05 140.97 195.79 141.71 196.71 142.26 197.63 142.63 199.47 143 201.5 143 202.42 142.63 203.34 142.44 204.45 141.89 205.37 141.34 207.21 139.87 207.95 138.94 208.69 137.84"/><polyline class="cls-2" points="209.24 137.84 209.06 137.47 208.69 137.84 209.42 138.39 208.69 138.39"/><polyline class="cls-2" points="194.13 140.6 192.65 141.71 191 142.63 189.89 143 187.13 143.55 184.91 143.55 183.99 143.37 182.89 143.18 181.78 142.81 180.86 142.44 178.83 141.34 179.2 140.6 181.23 141.71 183.07 142.44 184.18 142.63 184.91 142.81 186.94 142.81 189.71 142.26 190.63 141.89 192.29 141.16 193.76 140.05"/><polyline class="cls-2" points="194.31 140.05 193.94 139.68 193.76 140.05 194.13 140.6 193.76 140.6"/><polyline class="cls-2" points="179.2 141.34 177.36 142.44 176.25 142.81 175.33 143.18 173.49 143.55 171.65 143.55 169.99 143.37 169.07 143.18 168.33 142.63 167.59 142.26 166.85 141.52 166.12 140.97 165.56 140.05 166.12 139.5 166.67 140.42 167.41 140.97 167.96 141.52 168.7 142.08 169.44 142.44 170.17 142.63 171.83 142.81 173.31 142.81 175.15 142.44 176.99 141.71 177.91 141.16 178.83 140.6"/><polyline class="cls-2" points="179.2 140.6 179.02 140.42 178.83 140.6 179.2 141.34 178.83 141.34"/><polyline class="cls-2" points="166.12 140.05 164.46 141.16 160.78 142.63 160.04 142.81 159.12 143 157.27 143 155.43 142.63 154.69 142.26 153.22 141.16 152.67 140.42 153.22 139.87 153.77 140.6 154.51 141.16 155.06 141.52 155.8 141.89 157.27 142.26 158.93 142.26 159.85 142.08 160.59 141.89 161.51 141.52 162.25 141.34 163.91 140.42 165.56 139.5"/><polyline class="cls-2" points="166.12 139.5 165.94 139.31 165.56 139.5 166.12 140.05 165.56 140.05"/><polyline class="cls-2" points="153.22 140.42 151.93 141.16 150.64 141.71 149.9 142.08 148.98 142.08 147.51 142.26 145.85 142.26 145.11 142.08 144.19 141.89 142.72 141.16 141.8 140.6 141.06 140.05 141.61 139.5 142.35 140.05 144.56 141.16 146.03 141.52 147.51 141.52 148.98 141.34 149.53 141.34 150.27 141.16 151.56 140.42 152.67 139.68"/><polyline class="cls-2" points="153.22 139.87 153.04 139.5 152.67 139.68 153.22 140.42 152.67 140.42"/><polyline class="cls-2" points="141.61 140.05 140.32 140.79 139.22 141.52 138.48 141.71 137.74 142.08 137 142.26 135.34 142.26 134.61 141.89 133.69 141.52 132.95 140.97 132.03 140.05 131.29 139.13 130.37 137.84 129.63 136.36 130.19 135.81 131.11 137.47 131.84 138.57 132.58 139.5 134.06 140.97 134.79 141.34 135.53 141.52 136.82 141.52 137.56 141.34 138.11 141.16 138.85 140.79 139.95 140.05 141.06 139.5"/><polyline class="cls-2" points="141.61 139.5 141.43 139.31 141.06 139.5 141.61 140.05 141.06 140.05"/><polyline class="cls-2" points="130.19 136.36 128.34 137.47 127.24 138.02 126.13 138.39 123.92 138.76 122.63 138.57 120.97 138.02 120.42 137.65 120.05 137.47 119.13 136.55 118.76 135.81 118.39 135.26 118.02 134.52 117.84 133.78 117.66 132.86 117.47 130.84 117.47 127.15 117.66 125.86 118.39 125.86 118.21 127.34 118.21 130.84 118.39 132.68 118.58 133.6 118.76 134.15 119.13 134.89 119.5 135.44 119.68 136 120.42 136.73 120.97 137.1 121.71 137.47 122.81 137.84 124.84 137.84 125.95 137.65 126.87 137.28 127.97 136.92 128.9 136.36 129.63 135.81"/><polyline class="cls-2" points="130.19 135.81 130 135.44 129.63 135.81 130.19 136.36 129.63 136.36"/><polyline class="cls-2" points="117.66 126.05 116 123.83 115.44 122.91 115.08 122.18 114.89 121.25 114.71 120.52 114.52 119.6 114.52 117.75 114.71 117.02 114.89 116.09 115.26 115.17 116.92 112.41 117.47 112.78 116.36 114.62 116 115.54 115.63 116.28 115.44 117.2 115.26 117.94 115.26 119.6 115.81 121.81 116.18 122.54 116.55 123.47 117.1 124.02 118.21 125.68"/><polyline class="cls-2" points="118.39 125.86 118.39 125.68 118.21 125.68 117.66 126.05 117.66 125.86"/><polyline class="cls-2" points="116.92 112.78 115.81 111.67 115.44 111.12 114.89 110.56 113.78 107.98 113.6 106.69 113.6 105.96 114.15 103.75 114.52 103.2 114.89 102.46 115.63 102.83 115.08 103.56 114.89 104.12 114.52 105.41 114.34 105.96 114.34 106.51 114.52 107.8 114.89 108.91 115.63 110.2 116 110.75 117.47 112.22"/><polyline class="cls-2" points="117.47 112.78 117.66 112.59 117.47 112.22 116.92 112.78 116.92 112.41"/><polyline class="cls-2" points="114.89 102.83 113.97 99.88 113.6 98.59 113.23 96.01 113.42 94.72 113.78 93.24 114.34 91.95 115.08 92.32 114.52 93.61 114.15 94.72 113.97 96.01 114.15 97.11 114.34 98.4 114.71 99.69 115.63 102.46"/><polyline class="cls-2" points="115.63 102.83 115.63 102.46 114.89 102.83 114.89 102.46"/><polyline class="cls-2" points="114.34 92.32 113.05 90.66 112.5 89.93 112.13 89 112.13 86.98 112.31 86.24 112.68 85.69 113.05 84.95 113.42 84.4 114.15 84.77 113.78 85.5 113.05 86.61 112.86 87.16 112.86 88.82 113.6 90.3 115.08 91.95"/><polyline class="cls-2" points="115.08 92.32 115.08 91.95 114.34 92.32 114.34 91.95"/><polyline class="cls-2" points="113.6 84.95 112.86 84.4 112.13 83.66 111.39 82.19 111.21 81.27 111.02 80.16 111.02 79.06 111.21 77.95 111.94 78.13 111.76 79.24 111.76 80.16 112.13 82 112.31 82.56 112.86 83.29 113.42 83.85 113.97 84.21"/><polyline class="cls-2" points="114.15 84.77 114.34 84.58 113.97 84.21 113.6 84.95 113.42 84.4"/><polyline class="cls-2" points="111.39 78.32 110.47 77.77 110.1 77.58 109.36 76.84 109.18 76.48 108.63 75.55 108.26 74.63 108.26 73.71 108.07 72.61 108.26 71.68 108.99 71.87 108.81 72.61 108.99 73.53 108.99 74.45 109.92 76.29 110.84 77.21 111.76 77.58"/><polyline class="cls-2" points="111.94 78.13 111.94 77.77 111.76 77.58 111.39 78.32 111.21 77.95"/><polyline class="cls-2" points="108.26 71.68 108.26 71.5 108.81 72.05 108.99 71.87"/><polyline class="cls-8" points="108.44 64.68 110.84 69.29 110.84 69.66 110.65 70.21 109.18 71.68 108.44 71.68 104.57 66.52 104.39 64.86 104.39 63.76 104.57 63.21 104.76 63.02 104.94 62.65 105.86 62.65 106.6 63.02 107.52 63.76"/><polyline class="cls-2" points="108.99 64.31 107.89 64.86 110.28 69.47 111.21 68.92"/><polyline class="cls-2" points="111.39 69.29 111.39 69.84 111.21 70.39 110.47 71.5 109.92 71.87 108.81 72.24 108.44 72.24 108.63 71.13 108.99 71.13 109.92 70.21 110.1 69.84 110.1 69.29"/><polyline class="cls-2" points="111.21 68.92 111.39 69.1 111.39 69.29 110.1 69.29 110.28 69.47"/><polyline class="cls-2" points="108.07 72.05 108.81 71.31 104.94 66.16 104.2 66.89"/><polyline class="cls-2" points="108.44 72.24 108.07 72.24 108.07 72.05 108.81 71.31 108.63 71.13"/><polyline class="cls-2" points="104.02 66.71 103.83 65.05 103.83 63.58 104.02 63.02 104.2 62.65 104.57 62.28 104.94 62.1 105.86 62.1 106.97 62.47 107.89 63.21 108.81 64.13 108.07 65.05 107.15 64.13 106.23 63.58 105.86 63.39 105.68 63.21 105.31 63.21 105.12 63.39 105.12 63.58 104.94 63.76 104.94 64.86 105.12 66.52"/><polyline class="cls-2" points="104.2 66.89 104.02 66.89 104.02 66.71 105.12 66.52 104.94 66.16"/><polyline class="cls-2" points="108.81 64.13 108.99 64.31 107.89 64.86 108.07 65.05"/><text class="cls-11" transform="translate(148.8 133.97) scale(1.06 1)">F</text><text class="cls-11" transform="translate(154.33 133.97) scale(1.06 1)">l</text><text class="cls-11" transform="translate(156.91 133.97) scale(1.06 1)">a</text><text class="cls-11" transform="translate(161.88 133.97) scale(1.06 1)">m</text><text class="cls-11" transform="translate(170 133.97) scale(1.06 1)">m</text><text class="cls-11" transform="translate(177.91 133.97) scale(1.06 1)">a</text><text class="cls-11" transform="translate(183.07 133.97) scale(1.06 1)">b</text><text class="cls-11" transform="translate(188.6 133.97) scale(1.06 1)">l</text><text class="cls-11" transform="translate(191 133.97) scale(1.06 1)">e</text><text class="cls-11" transform="translate(200.21 133.97) scale(1.06 1)">V</text><text class="cls-11" transform="translate(205.74 133.97) scale(1.06 1)">a</text><text class="cls-11" transform="translate(210.71 133.97) scale(1.06 1)">p</text><text class="cls-11" transform="translate(216.27 133.97) scale(1.06 1)">o</text><text class="cls-11" transform="translate(221.77 133.97) scale(1.06 1)">r</text><text class="cls-11" transform="translate(225.27 133.97) scale(1.06 1)">s</text><text class="cls-12" transform="translate(38.05 131.94) scale(1.03 1)">F</text><text class="cls-12" transform="translate(41.76 131.94) scale(1.03 1)">L</text><text class="cls-12" transform="translate(45.42 131.94) scale(1.03 1)">A</text><text class="cls-12" transform="translate(49.66 131.94) scale(1.03 1)">M</text><text class="cls-12" transform="translate(54.84 131.94) scale(1.03 1)">M</text><text class="cls-12" transform="translate(59.98 131.94) scale(1.03 1)">A</text><text class="cls-12" transform="translate(64.23 131.94) scale(1.03 1)">B</text><text class="cls-12" transform="translate(68.64 131.94) scale(1.03 1)">L</text><text class="cls-12" transform="translate(72.32 131.94) scale(1.03 1)">E</text><text class="cls-12" transform="translate(76.35 131.94) scale(1.03 1)">S</text><line class="cls-13" x1="7.76" y1="159.13" x2="269.75" y2="159.13"/><line class="cls-13" x1="8.42" y1="161.13" x2="269.75" y2="161.13"/><text class="cls-14" transform="translate(293.11 59.9)">FIRE<tspan class="cls-15" x="31.89" y="0"> </tspan><tspan x="35.26" y="0">AND EXPLOSION HAZARD</tspan><tspan class="cls-16"><tspan x="21.5" y="12">Can result in serious injury or death</tspan><tspan class="cls-17" x="-14.29" y="29" xml:space="preserve">           </tspan><tspan class="cls-18" x="23.82" y="29">Do</tspan><tspan class="cls-19" x="37.15" y="29" xml:space="preserve">  </tspan><tspan x="44.08" y="29">not</tspan><tspan class="cls-20" x="59.62" y="29" xml:space="preserve">  </tspan><tspan x="66.55" y="29">store</tspan><tspan class="cls-19" x="91" y="29" xml:space="preserve">  </tspan><tspan x="97.93" y="29">or</tspan><tspan class="cls-20" x="107.93" y="29" xml:space="preserve">  </tspan><tspan x="114.86" y="29">use</tspan><tspan class="cls-19" x="132.09" y="29" xml:space="preserve">  </tspan><tspan x="139.02" y="29">gasoline</tspan><tspan class="cls-20" x="179.59" y="29" xml:space="preserve">  </tspan><tspan x="186.51" y="29">or</tspan><tspan class="cls-19" x="196.51" y="29" xml:space="preserve">  </tspan><tspan class="cls-21" x="203.44" y="29">other </tspan><tspan x="-14.29" y="41">flammable</tspan><tspan class="cls-22" x="35.17" y="41"> </tspan><tspan x="38.29" y="41">vapors</tspan><tspan class="cls-22" x="71.08" y="41"> </tspan><tspan x="74.2" y="41">and</tspan><tspan class="cls-22" x="91.97" y="41"> </tspan><tspan x="95.09" y="41">liquids</tspan><tspan class="cls-22" x="127.31" y="41"> </tspan><tspan x="130.42" y="41">in</tspan><tspan class="cls-22" x="139.31" y="41"> </tspan><tspan x="142.43" y="41">the</tspan><tspan class="cls-22" x="157.43" y="41"> </tspan><tspan x="160.54" y="41">vicinity</tspan><tspan class="cls-22" x="195" y="41"> </tspan><tspan x="198.11" y="41">of</tspan><tspan class="cls-23" x="207.55" y="41"> </tspan><tspan x="210.66" y="41">this </tspan><tspan x="-14.29" y="53">or</tspan><tspan class="cls-24" x="-4.29" y="53"> </tspan><tspan x="2.99" y="53">any</tspan><tspan class="cls-24" x="20.23" y="53"> </tspan><tspan class="cls-18" x="27.51" y="53">other</tspan><tspan class="cls-25" x="52.51" y="53"> </tspan><tspan x="59.79" y="53">appliance.</tspan><tspan class="cls-26" x="108.69" y="53"> </tspan><tspan x="115.98" y="53">Storage</tspan><tspan class="cls-25" x="153.21" y="53"> </tspan><tspan x="160.49" y="53">of</tspan><tspan class="cls-26" x="169.93" y="53"> </tspan><tspan x="177.21" y="53">or</tspan><tspan class="cls-25" x="187.21" y="53"> </tspan><tspan x="194.49" y="53">use</tspan><tspan class="cls-25" x="211.72" y="53"> </tspan><tspan x="219" y="53">of </tspan><tspan x="-14.29" y="65">gasoline</tspan><tspan class="cls-27" x="26.28" y="65"> </tspan><tspan x="28.63" y="65">or</tspan><tspan class="cls-28" x="38.63" y="65"> </tspan><tspan x="40.98" y="65">other</tspan><tspan class="cls-28" x="65.98" y="65"> </tspan><tspan x="68.33" y="65">flammable</tspan><tspan class="cls-27" x="117.79" y="65"> </tspan><tspan x="120.14" y="65">vapors</tspan><tspan class="cls-28" x="152.93" y="65"> </tspan><tspan x="155.28" y="65">or</tspan><tspan class="cls-27" x="165.28" y="65"> </tspan><tspan x="167.63" y="65">liquids</tspan><tspan class="cls-28" x="199.86" y="65"> </tspan><tspan x="202.21" y="65">in</tspan><tspan class="cls-27" x="211.09" y="65"> </tspan><tspan x="213.44" y="65">the </tspan><tspan x="-14.29" y="77">vicinity</tspan><tspan class="cls-29" x="20.17" y="77"> </tspan><tspan x="23.43" y="77">of</tspan><tspan class="cls-29" x="32.87" y="77"> </tspan><tspan x="36.13" y="77">this</tspan><tspan class="cls-29" x="53.91" y="77"> </tspan><tspan x="57.17" y="77">or</tspan><tspan class="cls-29" x="67.17" y="77"> </tspan><tspan x="70.43" y="77">any</tspan><tspan class="cls-29" x="87.66" y="77"> </tspan><tspan x="90.92" y="77">other</tspan><tspan class="cls-29" x="115.92" y="77"> </tspan><tspan x="119.18" y="77">appliance</tspan><tspan class="cls-29" x="165.31" y="77"> </tspan><tspan x="168.57" y="77">can</tspan><tspan class="cls-29" x="185.8" y="77"> </tspan><tspan x="189.06" y="77">result</tspan><tspan class="cls-30" x="216.29" y="77"> </tspan><tspan x="219.56" y="77">in </tspan><tspan x="-14.29" y="89">serious injury or death.</tspan></tspan></text><path class="cls-2" d="M292.21,69.51a1.45,1.45,0,0,0-1.41-1,1.31,1.31,0,0,0-1.32,1L280,85.76c-1.24,2.08-.16,2.91,1.08,3h19.41c1.33-.08,2.32-.91,1.08-3"/><path class="cls-8" d="M291.47,81.37a.62.62,0,0,1-.58.58h-.09a.57.57,0,0,1-.58-.58c-1.9-6.06-2.82-10.29.58-10.29s2.49,4.23.67,10.29"/><path class="cls-8" d="M290.8,87.92a1.83,1.83,0,0,1,0-3.65h.09a1.77,1.77,0,0,1,1.74,1.82,1.79,1.79,0,0,1-1.83,1.83"/><text class="cls-31" transform="translate(109.31 182.53)">Read and follow water heater warnings and instructions.</text><rect class="cls-4" x="270.05" y="8.08" width="261.89" height="26.07"/><path class="cls-32" d="M343.28,12.61a1.23,1.23,0,0,0-1.2-.85,1.12,1.12,0,0,0-1.13.85L332.9,26.44c-1,1.77-.14,2.47.92,2.54h16.52c1.12-.07,2-.77.91-2.54Z"/><path class="cls-4" d="M342.68,23a.54.54,0,0,1-.5.49h-.07a.48.48,0,0,1-.49-.49c-1.63-5.15-2.4-8.75.49-8.75S344.23,17.82,342.68,23Z"/><path class="cls-4" d="M342.11,28.55a1.56,1.56,0,0,1,0-3.11h.07A1.51,1.51,0,0,1,343.66,27,1.52,1.52,0,0,1,342.11,28.55Z"/><text class="cls-33" transform="translate(353.54 28.95)"><tspan class="cls-34">W</tspan><tspan x="21.36" y="0">ARNING</tspan></text><line class="cls-1" x1="270.09" y1="8.17" x2="270.09" y2="167.77"/><line class="cls-1" x1="7.84" y1="167.96" x2="532.8" y2="167.96"/><rect class="cls-35" x="0.25" y="0.25" width="541.1" height="199.59"/></svg>