<svg xmlns="http://www.w3.org/2000/svg" viewBox="0 0 248.3 122.9"><defs><style>.cls-1,.cls-8{fill:#fff;}.cls-2,.cls-3,.cls-4,.cls-5,.cls-6,.cls-7,.cls-8{stroke:#000;}.cls-2{stroke-width:1.03px;}.cls-3{stroke-width:1.14px;}.cls-4,.cls-7{fill:none;}.cls-4{stroke-width:1.07px;}.cls-5,.cls-7{stroke-width:0.24px;}.cls-6,.cls-8{stroke-width:0.97px;}.cls-9{font-size:11px;font-family:Arial-BoldMT, Arial;font-weight:700;}.cls-10{font-size:8.5px;font-family:ArialMT, Arial;}.cls-11{letter-spacing:0em;}.cls-12{letter-spacing:0.48em;}.cls-13{letter-spacing:0.48em;}.cls-14{letter-spacing:0.42em;}.cls-15{letter-spacing:0.42em;}</style></defs><title>wrnng_explsn-hzrd_frm_ovr-htd-wtr</title><g id="Layer_1" data-name="Layer 1"><polyline points="97.21 30.52 247.76 30.52 247.76 0.35 97.21 0.35"/><path class="cls-1" d="M225,18.48V15.82h6.68V22.1a8.45,8.45,0,0,1-2.82,1.7,10.14,10.14,0,0,1-3.75.74,8.22,8.22,0,0,1-4.19-1,6.5,6.5,0,0,1-2.69-3,9.84,9.84,0,0,1-.9-4.2,9.23,9.23,0,0,1,1-4.37A6.87,6.87,0,0,1,221.26,9a7.71,7.71,0,0,1,3.68-.79,7.19,7.19,0,0,1,4.46,1.23,5.62,5.62,0,0,1,2.07,3.4l-3.08.59a3.36,3.36,0,0,0-1.22-1.83,3.6,3.6,0,0,0-2.23-.67,4.14,4.14,0,0,0-3.23,1.32,5.66,5.66,0,0,0-1.2,3.92,6.24,6.24,0,0,0,1.22,4.21,4,4,0,0,0,3.18,1.4,5.29,5.29,0,0,0,2-.39,6.76,6.76,0,0,0,1.68-.95v-2M202.4,24.27V8.52h3L211.7,19V8.52h2.88V24.27h-3.12L205.28,14V24.27Zm-6.08,0V8.52h3.1V24.27Zm-15.36,0V8.52h3L190.26,19V8.52h2.88V24.27H190L183.84,14V24.27Zm-12.4-9.09h2.29a11.55,11.55,0,0,0,2.78-.19,1.67,1.67,0,0,0,.87-.67,2.08,2.08,0,0,0,.32-1.18,1.88,1.88,0,0,0-.42-1.28,1.86,1.86,0,0,0-1.16-.62c-.26,0-1-.05-2.27-.05h-2.41Zm-3.1,9.09V8.52H172a10.63,10.63,0,0,1,3.57.43,3.53,3.53,0,0,1,1.79,1.5,4.62,4.62,0,0,1,.67,2.49,4.29,4.29,0,0,1-1,2.93,4.85,4.85,0,0,1-3,1.45,7.31,7.31,0,0,1,1.66,1.32,18.32,18.32,0,0,1,1.76,2.56l1.87,3.07h-3.7l-2.24-3.43a24.15,24.15,0,0,0-1.63-2.31,2.46,2.46,0,0,0-.94-.66,5,5,0,0,0-1.56-.17h-.62v6.57ZM158.1,18,156,12.2,153.91,18Zm5.7,6.23h-3.37l-1.34-3.58H153l-1.27,3.58H148.4l6-15.75h3.28Zm-30.71,0L129.43,8.52h3.17l2.31,10.82,2.81-10.82h3.68l2.69,11,2.36-11h3.12l-3.73,15.75h-3.29L139.5,12.5l-3.05,11.77ZM118,17.65a.56.56,0,0,1-.52.53h-.07a.51.51,0,0,1-.52-.53c-1.7-5.56-2.52-9.43.52-9.43S119.59,12.09,118,17.65Zm-.59,6a1.67,1.67,0,0,1,0-3.34h.07a1.67,1.67,0,0,1-.07,3.34Zm1.26-16.88a1.3,1.3,0,0,0-1.26-.91,1.18,1.18,0,0,0-1.18.91l-8.45,14.9c-1.11,1.91-.15,2.67,1,2.74H126c1.18-.07,2.07-.83,1-2.74Z"/><line class="cls-2" x1="97.91" y1="47.75" x2="247.76" y2="47.75"/><line class="cls-3" x1="97.44" y1="122.39" x2="97.44" y2="0.35"/><rect class="cls-4" x="0.54" y="0.54" width="247.23" height="121.83"/></g><g id="exploding_man_icon" data-name="exploding man icon"><polygon class="cls-5" points="4.83 51.88 4.85 61.32 5.56 61.82 9.45 74.22 8.03 63.46 26.08 75.29 12.46 61.82 23.33 65.1 13.87 59.02 27.58 52.95 9.98 54.42 22.36 45.47 13.16 49.91 19.36 41.85 8.56 49.41 8.42 39 5.56 51.8 4.83 51.88"/><rect class="cls-6" x="0.54" y="31.42" width="3.51" height="45.73"/><path class="cls-7" d="M4.67,36.69l2,19.65-.31,6.23-1,14.58L8.34,61.92l4.9,21.5L9.58,63S23.92,78.5,23.63,77.79,10.17,61.36,10.17,61.36L45.76,83.6,12.55,60.89,62.69,88.42,18.63,62.89S61.34,82.08,61.15,81.81,13,59.56,13,59.56l.1-.8L40.27,69.29l-26-11.37-.11-.68,2.89,1.52,32.42,11L14.87,56l4.81,1.87,35,7.63L17.38,56.08l34,4.76L10.56,53.28,9.49,55.36,9,52.86l1.93.36L57,47.59,12.26,51.33l20.6-3.74-16.93,2.5L52.78,37.94,14.49,49.47,44,30.79l-31.55,18L26.32,35.26,10.54,47.86,29.69,24.09,9.12,46.84,8.71,33.11,7.37,48.3Z"/><polygon class="cls-7" points="10.64 53.13 52.01 54.29 11.6 52.41 10.64 53.13"/><line class="cls-5" x1="51.87" y1="77.4" x2="21.16" y2="61.9"/><path class="cls-7" d="M10,7.77A8.79,8.79,0,0,1,17.58,3.5a8.51,8.51,0,0,1,8.7,8.3,8.05,8.05,0,0,1-.48,2.74"/><path class="cls-7" d="M26.64,14.46a6.29,6.29,0,0,1,4.61-2,5.84,5.84,0,0,1,6.07,5.58,5.74,5.74,0,0,1-4.85,5.48"/><path class="cls-7" d="M32.72,23.78a6.34,6.34,0,0,1,2.4-.47A5.72,5.72,0,0,1,41,28.8a5.72,5.72,0,0,1-5.92,5.5,5.89,5.89,0,0,1-5.64-3.83"/><path class="cls-7" d="M12.34,38.63a4.77,4.77,0,0,1-1-2.92,5.27,5.27,0,0,1,5.45-5.06,5.65,5.65,0,0,1,3.62,1.29"/><path class="cls-7" d="M20.61,31.55a3.12,3.12,0,0,1-.37-1.48,3.52,3.52,0,0,1,3.65-3.39,3.53,3.53,0,0,1,3.65,3.39,2.19,2.19,0,0,1,0,.36"/><path class="cls-7" d="M27.39,30.74v-.11A3.65,3.65,0,1,1,31,34h-.3"/><path class="cls-7" d="M21,75.5a3.81,3.81,0,0,1-2.08.6,3.51,3.51,0,0,1-3.64-3.37,3.25,3.25,0,0,1,1.07-2.39"/><path class="cls-7" d="M25.39,80.43a3.71,3.71,0,0,1-3.25,1.82,3.54,3.54,0,0,1-3.66-3.4A3.43,3.43,0,0,1,21,75.62"/><path class="cls-7" d="M36,83a5.24,5.24,0,0,1-5.1,3.62,5.1,5.1,0,0,1-5.28-4.9,4.2,4.2,0,0,1,.16-1.18"/><path class="cls-7" d="M24,96.62A5.21,5.21,0,0,1,24.54,99a5.81,5.81,0,0,1-6,5.58,5.82,5.82,0,0,1-6-5.58A5.69,5.69,0,0,1,17,93.63"/><path class="cls-7" d="M33.55,92.17a5.44,5.44,0,0,1,2.2,4.32,5.82,5.82,0,0,1-6,5.6,6.11,6.11,0,0,1-5.15-2.7"/><path class="cls-7" d="M43.79,78.19A7.83,7.83,0,0,1,46.42,84c0,4.5-3.93,8.15-8.77,8.15a9.41,9.41,0,0,1-3.42-.64"/><path class="cls-7" d="M28.48,45.2A4,4,0,0,1,28,43.36a4.46,4.46,0,0,1,4.62-4.29,4.81,4.81,0,0,1,2.77.85"/><path class="cls-7" d="M35.71,39.85a2.66,2.66,0,0,1-.31-1.25,3,3,0,0,1,6.06,0,.19.19,0,0,1,0,.08"/><path class="cls-7" d="M41.43,39.38v-.14a3.11,3.11,0,1,1,3.1,2.88h-.26"/><path class="cls-6" d="M82.72,74.6l.51,0c-2.09.13-18.88.64-21.71.25-2.47-.33-4.66-1.42-4.88-3.72s0-7.44,0-7.44-3.19.55-3.93-.74,2-6.36,3.64-12.85a15.52,15.52,0,0,1,4.08-6.84,16.86,16.86,0,0,1,6.92-3.31c2.55-.43,7.79-.34,10.27.81a12.22,12.22,0,0,1,5.9,4.4c2.12,2.51,2.4,3.65,2.69,7.24a62.73,62.73,0,0,1,.08,8.92c-.15,2-.51,8-1.24,10.35A4.76,4.76,0,0,1,82.72,74.6Z"/><path class="cls-8" d="M63.24,54.29c-.21,1.08-1,1.85-1.84,1.72a1.75,1.75,0,0,1-1.07-2.21c.21-1.08,1-1.85,1.84-1.72S63.45,53.2,63.24,54.29Z"/><path class="cls-6" d="M76.48,122l-6.67-15s-8.78,15.08-9.5,15.23-19.86.35-19-.47S77.66,75.54,77.66,75.54a14.07,14.07,0,0,1,1.77-1.37c2.83-1.56,3.8-1.52,6.94,0S97.62,87.93,97.62,87.93L97.37,122Z"/></g><g id="text"><text class="cls-9" transform="translate(126.54 42.03)">Explosion Hazard</text><text class="cls-10" transform="translate(113.3 63.04)">Overheated<tspan class="cls-11" x="44.42" y="0"> </tspan><tspan x="46.77" y="0">water</tspan><tspan class="cls-11" x="67.55" y="0"> </tspan><tspan x="69.9" y="0">can</tspan><tspan class="cls-11" x="83.61" y="0"> </tspan><tspan x="85.96" y="0">cause</tspan><tspan class="cls-11" x="108.64" y="0"> </tspan><tspan x="110.99" y="0">the </tspan><tspan x="0" y="10.2">water tank to explode.</tspan></text><path d="M109,59.7a1.76,1.76,0,1,1-1.76-1.76A1.76,1.76,0,0,1,109,59.7Z"/><text class="cls-10" transform="translate(113.7 92.97)">Properly-sized<tspan class="cls-12" x="54.33" y="0"> </tspan><tspan x="60.79" y="0">temperature</tspan><tspan class="cls-13" x="106.62" y="0"> </tspan><tspan x="113.09" y="0">and </tspan><tspan x="0" y="10.2">pressure</tspan><tspan class="cls-14" x="33.07" y="10.2"> </tspan><tspan x="39.02" y="10.2">relief</tspan><tspan class="cls-15" x="57.45" y="10.2"> </tspan><tspan x="63.4" y="10.2">valves</tspan><tspan class="cls-14" x="87.49" y="10.2"> </tspan><tspan x="93.44" y="10.2">must</tspan><tspan class="cls-14" x="111.86" y="10.2"> </tspan><tspan x="117.81" y="10.2">be </tspan><tspan x="0" y="20.4">installed int the opening provided.</tspan></text><path d="M108.85,89.36a1.76,1.76,0,1,1-1.76-1.76A1.76,1.76,0,0,1,108.85,89.36Z"/></g></svg>