<svg id="Layer_1" data-name="Layer 1" xmlns="http://www.w3.org/2000/svg" xmlns:xlink="http://www.w3.org/1999/xlink" viewBox="0 0 263.1 270.95"><defs><style>.cls-1,.cls-3{fill:none;}.cls-2{clip-path:url(#clip-path);}.cls-3{stroke:#000;stroke-width:1.5px;}.cls-4{font-size:12px;}.cls-4,.cls-6{font-family:Arial-BoldMT, Arial;font-weight:700;}.cls-5,.cls-6{fill:#fff;}.cls-6{font-size:24px;}</style><clipPath id="clip-path"><rect class="cls-1" width="263.1" height="270.95"/></clipPath></defs><title>wrnng_explsn-hzrd_prctns</title><g class="cls-2"><rect class="cls-3" x="0.75" y="0.75" width="261.6" height="269.45"/></g><polyline points="120.45 82.95 118.68 72.7 124.05 77.51 124.66 64.95 129.78 74.5 131.31 68.92 133.07 72.83 135.33 66.17 136.13 76.16 143.87 70.2 140.94 80.84 144.3 79.88 142.84 83.28 151.19 84.43 148.38 81.55 153.69 74.75 145.88 78.15 157.47 48.29 142.84 61.67 143.57 53.08 138.87 61.55 138.63 33.1 132.65 59.44 129.23 49.89 128.2 60.02 114.41 33.04 118.07 64.12 108.74 53.8 114.54 72.38 105.63 66.17 116.61 84.88 120.45 84.75"/><g class="cls-2"><line class="cls-3" x1="0.93" y1="93.59" x2="261.6" y2="93.59"/></g><g class="cls-2"><text class="cls-4" transform="translate(80.4 107.69)">Explosion Hazar</text><text class="cls-4" transform="translate(173.71 107.69)">d</text><text class="cls-4" transform="translate(3.74 129.08)">Use a new CSA</text><text class="cls-4" transform="translate(90.66 129.08)"><tspan xml:space="preserve"> approved gas supply line.</tspan></text><text class="cls-4" transform="translate(3.74 150.48)">Install a shut-off valve.</text><text class="cls-4" transform="translate(256.99 171.88)"> </text><text class="cls-4" transform="translate(254.84 234.67)"> </text><text class="cls-4" transform="translate(3.74 234.47)">Failure to follow these instructions can </text><text class="cls-4" transform="translate(3.74 248.87)">result in death, explosion, or </text><text class="cls-4" transform="translate(3.74 263.27)">carbon monoxide poisoning.</text></g><rect x="0.78" y="0.8" width="261.89" height="26.07"/><g class="cls-2"><path class="cls-5" d="M74,6.32a1.23,1.23,0,0,0-1.2-.85,1.12,1.12,0,0,0-1.13.85l-8,13.83c-1,1.77-.14,2.47.92,2.54H81.05c1.12-.07,2-.77.91-2.54Z"/><path d="M73.38,16.68a.53.53,0,0,1-.49.49h-.07a.48.48,0,0,1-.49-.49c-1.63-5.15-2.4-8.75.49-8.75s2.12,3.6.56,8.75"/><path d="M72.82,22.26a1.56,1.56,0,0,1,0-3.11h.07a1.51,1.51,0,0,1,1.48,1.55,1.52,1.52,0,0,1-1.55,1.56"/><text class="cls-6" transform="translate(84.25 22.66)">W</text><text class="cls-6" transform="translate(105.61 22.66)">ARNING</text></g><path d="M4.61,160.29H7.78a6.15,6.15,0,0,1,1.63.16,2.86,2.86,0,0,1,1.3.79,3.77,3.77,0,0,1,.82,1.39,6.58,6.58,0,0,1,.28,2,5.52,5.52,0,0,1-.27,1.83,3.72,3.72,0,0,1-.92,1.52,3.13,3.13,0,0,1-1.21.69,5.37,5.37,0,0,1-1.54.18H4.61Zm1.73,1.45v5.69h1.3a5,5,0,0,0,1-.08,1.51,1.51,0,0,0,.7-.36,1.79,1.79,0,0,0,.46-.83,5.5,5.5,0,0,0,.17-1.57,5,5,0,0,0-.17-1.53,2,2,0,0,0-.49-.83,1.64,1.64,0,0,0-.81-.41,8.31,8.31,0,0,0-1.42-.08Z"/><path d="M12.89,165.68a3.35,3.35,0,0,1,.4-1.59,2.76,2.76,0,0,1,1.15-1.17,3.36,3.36,0,0,1,1.65-.41,3.11,3.11,0,0,1,3.22,3.24,3.24,3.24,0,0,1-.91,2.34,3.1,3.1,0,0,1-2.3.93,3.59,3.59,0,0,1-1.63-.39,2.63,2.63,0,0,1-1.18-1.13A3.79,3.79,0,0,1,12.89,165.68Zm1.68.09a2.05,2.05,0,0,0,.44,1.41,1.42,1.42,0,0,0,1.09.5,1.38,1.38,0,0,0,1.08-.5,2.07,2.07,0,0,0,.43-1.43,2,2,0,0,0-.43-1.4,1.38,1.38,0,0,0-1.08-.49,1.41,1.41,0,0,0-1.09.49A2.08,2.08,0,0,0,14.57,165.77Z"/><path d="M29.59,168.88H27.94V165.7a4.94,4.94,0,0,0-.1-1.3,1,1,0,0,0-.34-.46,1,1,0,0,0-.58-.17,1.27,1.27,0,0,0-.76.24,1.17,1.17,0,0,0-.47.62,5.62,5.62,0,0,0-.12,1.43v2.82H23.92v-6.23h1.53v.92a2.49,2.49,0,0,1,2.05-1.06,2.55,2.55,0,0,1,1,.2,1.72,1.72,0,0,1,.68.5,1.82,1.82,0,0,1,.32.69,5.23,5.23,0,0,1,.09,1.11Z"/><path d="M30.88,165.68a3.35,3.35,0,0,1,.4-1.59,2.82,2.82,0,0,1,1.15-1.17,3.39,3.39,0,0,1,1.65-.41,3.11,3.11,0,0,1,2.32.92,3.45,3.45,0,0,1,0,4.66,3.08,3.08,0,0,1-2.29.93,3.63,3.63,0,0,1-1.64-.39,2.69,2.69,0,0,1-1.18-1.13A3.79,3.79,0,0,1,30.88,165.68Zm1.69.09a2,2,0,0,0,.44,1.41,1.42,1.42,0,0,0,2.16,0,2.07,2.07,0,0,0,.44-1.43,2,2,0,0,0-.44-1.4,1.44,1.44,0,0,0-2.16,0A2,2,0,0,0,32.57,165.77Z"/><path d="M41.44,162.65V164H40.32v2.5a6.67,6.67,0,0,0,0,.89.32.32,0,0,0,.15.21.42.42,0,0,0,.28.08,2,2,0,0,0,.66-.16l.14,1.28a3.17,3.17,0,0,1-1.3.25,2,2,0,0,1-.8-.15,1.17,1.17,0,0,1-.53-.39,1.5,1.5,0,0,1-.23-.64,7.43,7.43,0,0,1,0-1.16V164h-.76v-1.32h.76v-1.23l1.65-1v2.19Z"/><path d="M51.35,164.49l-1.63.3a1.19,1.19,0,0,0-.37-.74,1.13,1.13,0,0,0-.75-.24,1.23,1.23,0,0,0-1,.42,2.16,2.16,0,0,0-.37,1.42,2.6,2.6,0,0,0,.37,1.57,1.24,1.24,0,0,0,1,.46,1.11,1.11,0,0,0,.77-.27,1.58,1.58,0,0,0,.42-.92l1.62.28a2.87,2.87,0,0,1-1,1.68,3,3,0,0,1-1.91.57,2.87,2.87,0,0,1-2.18-.86,3.95,3.95,0,0,1,0-4.79,2.92,2.92,0,0,1,2.21-.86,3,3,0,0,1,1.8.49A2.77,2.77,0,0,1,51.35,164.49Z"/><path d="M52.21,165.68a3.36,3.36,0,0,1,.41-1.59,2.8,2.8,0,0,1,1.14-1.17,3.43,3.43,0,0,1,1.66-.41,3.1,3.1,0,0,1,2.31.92,3.42,3.42,0,0,1,0,4.66,3.06,3.06,0,0,1-2.29.93,3.59,3.59,0,0,1-1.63-.39,2.63,2.63,0,0,1-1.18-1.13A3.79,3.79,0,0,1,52.21,165.68Zm1.69.09a2.05,2.05,0,0,0,.44,1.41,1.4,1.4,0,0,0,1.08.5,1.42,1.42,0,0,0,1.09-.5,2.07,2.07,0,0,0,.43-1.43,2,2,0,0,0-.43-1.4,1.41,1.41,0,0,0-1.09-.49,1.39,1.39,0,0,0-1.08.49A2.08,2.08,0,0,0,53.9,165.77Z"/><path d="M65.58,168.88H63.94V165.7a4.79,4.79,0,0,0-.11-1.3.89.89,0,0,0-.34-.46,1,1,0,0,0-.57-.17,1.3,1.3,0,0,0-.77.24,1.1,1.1,0,0,0-.46.62,5.07,5.07,0,0,0-.13,1.43v2.82H59.91v-6.23h1.53v.92a2.52,2.52,0,0,1,2.05-1.06,2.48,2.48,0,0,1,1,.2,1.65,1.65,0,0,1,.68.5,1.68,1.68,0,0,1,.32.69,5.23,5.23,0,0,1,.09,1.11Z"/><path d="M72.92,168.88H71.27V165.7a4.79,4.79,0,0,0-.11-1.3.89.89,0,0,0-.34-.46,1,1,0,0,0-.57-.17,1.3,1.3,0,0,0-.77.24,1.1,1.1,0,0,0-.46.62,5.07,5.07,0,0,0-.13,1.43v2.82H67.24v-6.23h1.53v.92a2.52,2.52,0,0,1,2-1.06,2.48,2.48,0,0,1,1,.2,1.65,1.65,0,0,1,.68.5,1.68,1.68,0,0,1,.32.69,5.12,5.12,0,0,1,.1,1.11Z"/><path d="M78.19,166.9l1.64.27a2.71,2.71,0,0,1-1,1.38,3,3,0,0,1-1.71.47,2.8,2.8,0,0,1-2.4-1.06,3.58,3.58,0,0,1-.62-2.15,3.42,3.42,0,0,1,.81-2.42,2.68,2.68,0,0,1,2-.88,2.78,2.78,0,0,1,2.19.92,4.1,4.1,0,0,1,.77,2.81H75.79a1.67,1.67,0,0,0,.4,1.14,1.25,1.25,0,0,0,1,.41,1,1,0,0,0,.65-.21A1.29,1.29,0,0,0,78.19,166.9Zm.09-1.67a1.53,1.53,0,0,0-.37-1.08,1.17,1.17,0,0,0-1.74,0,1.49,1.49,0,0,0-.35,1.06Z"/><path d="M86.68,164.49l-1.62.3a1.19,1.19,0,0,0-.37-.74,1.13,1.13,0,0,0-.75-.24,1.23,1.23,0,0,0-1,.42,2.16,2.16,0,0,0-.37,1.42,2.53,2.53,0,0,0,.37,1.57,1.24,1.24,0,0,0,1,.46,1.11,1.11,0,0,0,.77-.27,1.58,1.58,0,0,0,.42-.92l1.62.28a2.87,2.87,0,0,1-1,1.68,3,3,0,0,1-1.92.57,2.85,2.85,0,0,1-2.17-.86,3.95,3.95,0,0,1,0-4.79,2.9,2.9,0,0,1,2.2-.86,3.06,3.06,0,0,1,1.81.49A2.7,2.7,0,0,1,86.68,164.49Z"/><path d="M90.77,162.65V164H89.65v2.5a6.67,6.67,0,0,0,0,.89.32.32,0,0,0,.15.21.42.42,0,0,0,.28.08,2,2,0,0,0,.66-.16l.14,1.28a3.17,3.17,0,0,1-1.3.25,2,2,0,0,1-.8-.15,1.17,1.17,0,0,1-.53-.39,1.5,1.5,0,0,1-.23-.64,7.43,7.43,0,0,1,0-1.16V164h-.76v-1.32H88v-1.23l1.65-1v2.19Z"/><path d="M96.48,164.55,95,164.28a2.27,2.27,0,0,1,.86-1.33,3.17,3.17,0,0,1,1.83-.44,4,4,0,0,1,1.64.26,1.64,1.64,0,0,1,.76.67,3.31,3.31,0,0,1,.22,1.47l0,1.92a6.89,6.89,0,0,0,.08,1.21,3.72,3.72,0,0,0,.3.84H99c0-.11-.1-.27-.16-.49l-.06-.19a2.87,2.87,0,0,1-.9.61,2.52,2.52,0,0,1-1,.21,2.15,2.15,0,0,1-1.52-.52,1.87,1.87,0,0,1-.3-2.26,1.67,1.67,0,0,1,.7-.64,6,6,0,0,1,1.31-.38,8.94,8.94,0,0,0,1.6-.4v-.17a.83.83,0,0,0-.23-.67,1.38,1.38,0,0,0-.89-.21,1.12,1.12,0,0,0-.68.18A1.17,1.17,0,0,0,96.48,164.55Zm2.2,1.34c-.21.07-.54.15-1,.25a2.89,2.89,0,0,0-.89.29.67.67,0,0,0-.33.58.83.83,0,0,0,.26.6.93.93,0,0,0,.66.25,1.42,1.42,0,0,0,.85-.3,1,1,0,0,0,.39-.54,3.48,3.48,0,0,0,.06-.8Z"/><path d="M110.92,168.88h-1.65V165.7a4.94,4.94,0,0,0-.1-1.3.91.91,0,0,0-.35-.46.94.94,0,0,0-.57-.17,1.32,1.32,0,0,0-.77.24,1.15,1.15,0,0,0-.46.62,5.48,5.48,0,0,0-.13,1.43v2.82h-1.64v-6.23h1.53v.92a2.49,2.49,0,0,1,2-1.06,2.47,2.47,0,0,1,1,.2,1.76,1.76,0,0,1,.69.5,1.82,1.82,0,0,1,.32.69,5.23,5.23,0,0,1,.09,1.11Z"/><path d="M113.82,164.55l-1.5-.27a2.33,2.33,0,0,1,.87-1.33,3.17,3.17,0,0,1,1.83-.44,4,4,0,0,1,1.64.26,1.69,1.69,0,0,1,.76.67,3.31,3.31,0,0,1,.22,1.47l0,1.92a6.89,6.89,0,0,0,.08,1.21,3.29,3.29,0,0,0,.3.84h-1.63a3.51,3.51,0,0,1-.16-.49l-.06-.19a2.87,2.87,0,0,1-.9.61,2.53,2.53,0,0,1-1,.21,2.14,2.14,0,0,1-1.51-.52,1.83,1.83,0,0,1-.3-2.26,1.61,1.61,0,0,1,.7-.64,6,6,0,0,1,1.31-.38,8.94,8.94,0,0,0,1.6-.4v-.17a.86.86,0,0,0-.23-.67,1.38,1.38,0,0,0-.89-.21,1,1,0,0,0-1.08.78Zm2.2,1.34c-.21.07-.54.15-1,.25a2.88,2.88,0,0,0-.9.29.69.69,0,0,0-.32.58.83.83,0,0,0,.26.6.93.93,0,0,0,.66.25,1.37,1.37,0,0,0,.84-.3,1,1,0,0,0,.4-.54,3.48,3.48,0,0,0,.06-.8Z"/><path d="M122.12,162.65V164H121v2.5a6.67,6.67,0,0,0,0,.89.32.32,0,0,0,.15.21.44.44,0,0,0,.28.08,2,2,0,0,0,.66-.16l.14,1.28a3.17,3.17,0,0,1-1.3.25,2,2,0,0,1-.8-.15,1.17,1.17,0,0,1-.53-.39,1.5,1.5,0,0,1-.23-.64,9,9,0,0,1,0-1.16V164h-.76v-1.32h.76v-1.23l1.65-1v2.19Z"/><path d="M127.35,168.88V168a2.32,2.32,0,0,1-.89.78,2.53,2.53,0,0,1-1.17.29,2.19,2.19,0,0,1-1.12-.28,1.54,1.54,0,0,1-.72-.77,3.41,3.41,0,0,1-.23-1.38v-3.94h1.65v2.86a8,8,0,0,0,.09,1.61.85.85,0,0,0,.33.47,1,1,0,0,0,.61.17,1.29,1.29,0,0,0,.76-.23,1.13,1.13,0,0,0,.45-.57,6.2,6.2,0,0,0,.13-1.68v-2.63h1.64v6.23Z"/><path d="M132.16,168.88h-1.64v-6.23h1.53v.89a2.71,2.71,0,0,1,.7-.83,1.33,1.33,0,0,1,.71-.2,2.17,2.17,0,0,1,1.09.31l-.51,1.44a1.46,1.46,0,0,0-.77-.27.91.91,0,0,0-.59.19,1.32,1.32,0,0,0-.38.69,9.88,9.88,0,0,0-.14,2.09Z"/><path d="M136.49,164.55l-1.5-.27a2.33,2.33,0,0,1,.87-1.33,3.17,3.17,0,0,1,1.83-.44,4,4,0,0,1,1.64.26,1.69,1.69,0,0,1,.76.67,3.31,3.31,0,0,1,.22,1.47l0,1.92a6.89,6.89,0,0,0,.08,1.21,3.29,3.29,0,0,0,.3.84H139a3.51,3.51,0,0,1-.16-.49l-.06-.19a2.87,2.87,0,0,1-.9.61,2.53,2.53,0,0,1-1,.21,2.14,2.14,0,0,1-1.51-.52,1.83,1.83,0,0,1-.3-2.26,1.61,1.61,0,0,1,.7-.64,6,6,0,0,1,1.31-.38,9.18,9.18,0,0,0,1.6-.4v-.17a.86.86,0,0,0-.23-.67,1.38,1.38,0,0,0-.89-.21,1,1,0,0,0-1.08.78Zm2.2,1.34c-.21.07-.54.15-1,.25a2.88,2.88,0,0,0-.9.29.69.69,0,0,0-.32.58.83.83,0,0,0,.26.6.92.92,0,0,0,.65.25,1.4,1.4,0,0,0,.85-.3,1.06,1.06,0,0,0,.4-.54,3.48,3.48,0,0,0,.06-.8Z"/><path d="M141.93,168.88v-8.59h1.65v8.59Z"/><path d="M148.45,169.29l1.88.23a.68.68,0,0,0,.21.45,1.33,1.33,0,0,0,.74.17,1.91,1.91,0,0,0,1-.19.89.89,0,0,0,.33-.42,2.54,2.54,0,0,0,.07-.75v-.91a2.23,2.23,0,0,1-1.86,1,2.32,2.32,0,0,1-2-1.06,3.65,3.65,0,0,1-.57-2.09,3.44,3.44,0,0,1,.75-2.39,2.46,2.46,0,0,1,1.88-.83,2.27,2.27,0,0,1,1.9,1v-.88h1.54v5.59a5.57,5.57,0,0,1-.18,1.64,2,2,0,0,1-.51.86,2.25,2.25,0,0,1-.88.49,4.8,4.8,0,0,1-1.38.17,3.6,3.6,0,0,1-2.25-.54,1.7,1.7,0,0,1-.66-1.37A1.48,1.48,0,0,1,148.45,169.29Zm1.47-3.65a2.29,2.29,0,0,0,.38,1.45,1.21,1.21,0,0,0,.95.46,1.33,1.33,0,0,0,1-.47,2.13,2.13,0,0,0,.41-1.4,2.21,2.21,0,0,0-.39-1.44,1.29,1.29,0,0,0-1-.47,1.24,1.24,0,0,0-1,.46A2.22,2.22,0,0,0,149.92,165.64Z"/><path d="M157.16,164.55l-1.49-.27a2.27,2.27,0,0,1,.86-1.33,3.17,3.17,0,0,1,1.83-.44,4,4,0,0,1,1.64.26,1.64,1.64,0,0,1,.76.67,3.31,3.31,0,0,1,.22,1.47l0,1.92A6.89,6.89,0,0,0,161,168a3.72,3.72,0,0,0,.3.84h-1.63c0-.11-.1-.27-.16-.49l-.06-.19a2.87,2.87,0,0,1-.9.61,2.53,2.53,0,0,1-1,.21,2.14,2.14,0,0,1-1.51-.52,1.87,1.87,0,0,1-.3-2.26,1.64,1.64,0,0,1,.71-.64,5.76,5.76,0,0,1,1.3-.38,8.94,8.94,0,0,0,1.6-.4v-.17a.83.83,0,0,0-.23-.67,1.38,1.38,0,0,0-.89-.21,1,1,0,0,0-1.08.78Zm2.2,1.34c-.21.07-.54.15-1,.25a3,3,0,0,0-.9.29.69.69,0,0,0-.32.58.83.83,0,0,0,.26.6.93.93,0,0,0,.66.25,1.42,1.42,0,0,0,.85-.3,1,1,0,0,0,.39-.54,3.48,3.48,0,0,0,.06-.8Z"/><path d="M162,167.1l1.66-.25a1.24,1.24,0,0,0,.42.73,1.45,1.45,0,0,0,.91.25,1.62,1.62,0,0,0,1-.24.52.52,0,0,0,.21-.44.49.49,0,0,0-.11-.31,1.44,1.44,0,0,0-.55-.21,8.87,8.87,0,0,1-2.53-.81,1.6,1.6,0,0,1-.74-1.4,1.72,1.72,0,0,1,.64-1.36,3,3,0,0,1,2-.55,3.43,3.43,0,0,1,1.9.42,2.19,2.19,0,0,1,.86,1.23l-1.56.29a1,1,0,0,0-.37-.56,1.41,1.41,0,0,0-.8-.19,1.81,1.81,0,0,0-.93.18.38.38,0,0,0-.19.33.36.36,0,0,0,.17.3,5.67,5.67,0,0,0,1.53.46,4.58,4.58,0,0,1,1.84.74,1.53,1.53,0,0,1,.52,1.22,1.87,1.87,0,0,1-.72,1.47A3.16,3.16,0,0,1,165,169a3.46,3.46,0,0,1-2-.52A2.42,2.42,0,0,1,162,167.1Z"/><path d="M173.77,168.88l-2-6.23h1.6l1.17,4.08,1.07-4.08h1.59l1,4.08,1.19-4.08h1.62l-2,6.23H177.5l-1.07-4-1.06,4Z"/><path d="M183.18,164.55l-1.5-.27a2.33,2.33,0,0,1,.87-1.33,3.17,3.17,0,0,1,1.83-.44,4,4,0,0,1,1.64.26,1.69,1.69,0,0,1,.76.67,3.47,3.47,0,0,1,.22,1.47l0,1.92a6.89,6.89,0,0,0,.08,1.21,3.66,3.66,0,0,0,.29.84h-1.63c0-.11-.09-.27-.15-.49l-.06-.19a2.87,2.87,0,0,1-.9.61,2.56,2.56,0,0,1-1,.21,2.14,2.14,0,0,1-1.51-.52,1.74,1.74,0,0,1-.56-1.32,1.83,1.83,0,0,1,.25-.94,1.69,1.69,0,0,1,.71-.64,5.87,5.87,0,0,1,1.31-.38,9.18,9.18,0,0,0,1.6-.4v-.17a.83.83,0,0,0-.24-.67,1.34,1.34,0,0,0-.88-.21,1.18,1.18,0,0,0-.69.18A1.16,1.16,0,0,0,183.18,164.55Zm2.2,1.34c-.21.07-.55.15-1,.25a2.88,2.88,0,0,0-.9.29.69.69,0,0,0-.32.58.79.79,0,0,0,.26.6.92.92,0,0,0,.65.25,1.4,1.4,0,0,0,.85-.3,1,1,0,0,0,.39-.54,2.86,2.86,0,0,0,.07-.8Z"/><path d="M191.47,162.65V164h-1.12v2.5a6.67,6.67,0,0,0,0,.89.32.32,0,0,0,.15.21.41.41,0,0,0,.27.08,2,2,0,0,0,.67-.16l.14,1.28a3.21,3.21,0,0,1-1.3.25,2.09,2.09,0,0,1-.81-.15,1.19,1.19,0,0,1-.52-.39,1.5,1.5,0,0,1-.23-.64,7.43,7.43,0,0,1-.05-1.16V164h-.76v-1.32h.76v-1.23l1.65-1v2.19Z"/><path d="M196.22,166.9l1.64.27a2.71,2.71,0,0,1-1,1.38,3,3,0,0,1-1.71.47,2.8,2.8,0,0,1-2.4-1.06,3.58,3.58,0,0,1-.62-2.15,3.42,3.42,0,0,1,.81-2.42,2.68,2.68,0,0,1,2.05-.88,2.78,2.78,0,0,1,2.19.92,4.1,4.1,0,0,1,.77,2.81h-4.13a1.67,1.67,0,0,0,.4,1.14,1.25,1.25,0,0,0,.95.41,1,1,0,0,0,.65-.21A1.29,1.29,0,0,0,196.22,166.9Zm.09-1.67a1.53,1.53,0,0,0-.37-1.08,1.17,1.17,0,0,0-1.74,0,1.49,1.49,0,0,0-.35,1.06Z"/><path d="M200.87,168.88h-1.65v-6.23h1.53v.89a2.71,2.71,0,0,1,.71-.83,1.28,1.28,0,0,1,.71-.2,2.16,2.16,0,0,1,1.08.31l-.51,1.44A1.44,1.44,0,0,0,202,164a.91.91,0,0,0-.59.19,1.39,1.39,0,0,0-.38.69,10.12,10.12,0,0,0-.13,2.09Z"/><path d="M208.93,160.29v3.16a2.42,2.42,0,0,1,1.91-.94,2.38,2.38,0,0,1,1,.21,1.69,1.69,0,0,1,.69.54,1.92,1.92,0,0,1,.32.73,6.37,6.37,0,0,1,.08,1.24v3.65h-1.64v-3.29a4.4,4.4,0,0,0-.1-1.24.77.77,0,0,0-.33-.42,1.08,1.08,0,0,0-.59-.16,1.41,1.41,0,0,0-.74.2,1.24,1.24,0,0,0-.47.6,3.62,3.62,0,0,0-.15,1.19v3.12h-1.64v-8.59Z"/><path d="M218.23,166.9l1.64.27a2.76,2.76,0,0,1-1,1.38,3,3,0,0,1-1.71.47,2.8,2.8,0,0,1-2.4-1.06,3.58,3.58,0,0,1-.62-2.15,3.42,3.42,0,0,1,.81-2.42,2.68,2.68,0,0,1,2.05-.88,2.78,2.78,0,0,1,2.19.92,4.1,4.1,0,0,1,.77,2.81h-4.13a1.62,1.62,0,0,0,.4,1.14,1.25,1.25,0,0,0,1,.41,1,1,0,0,0,.65-.21A1.35,1.35,0,0,0,218.23,166.9Zm.09-1.67a1.53,1.53,0,0,0-.37-1.08,1.17,1.17,0,0,0-1.74,0,1.49,1.49,0,0,0-.35,1.06Z"/><path d="M222.53,164.55l-1.5-.27a2.33,2.33,0,0,1,.87-1.33,3.17,3.17,0,0,1,1.83-.44,4,4,0,0,1,1.64.26,1.69,1.69,0,0,1,.76.67,3.31,3.31,0,0,1,.22,1.47l0,1.92a6.89,6.89,0,0,0,.08,1.21,3.29,3.29,0,0,0,.3.84h-1.63a3.51,3.51,0,0,1-.16-.49l-.06-.19a2.87,2.87,0,0,1-.9.61,2.56,2.56,0,0,1-1,.21,2.14,2.14,0,0,1-1.51-.52,1.83,1.83,0,0,1-.3-2.26,1.61,1.61,0,0,1,.7-.64,6,6,0,0,1,1.31-.38,9.18,9.18,0,0,0,1.6-.4v-.17a.86.86,0,0,0-.23-.67,1.4,1.4,0,0,0-.89-.21,1,1,0,0,0-1.08.78Zm2.2,1.34c-.21.07-.54.15-1,.25a2.88,2.88,0,0,0-.9.29.69.69,0,0,0-.32.58.83.83,0,0,0,.26.6.92.92,0,0,0,.65.25,1.4,1.4,0,0,0,.85-.3,1.06,1.06,0,0,0,.4-.54,3.48,3.48,0,0,0,.06-.8Z"/><path d="M230.82,162.65V164H229.7v2.5a6.67,6.67,0,0,0,0,.89.32.32,0,0,0,.15.21.44.44,0,0,0,.28.08,2,2,0,0,0,.66-.16l.14,1.28a3.17,3.17,0,0,1-1.3.25,2,2,0,0,1-.8-.15,1.17,1.17,0,0,1-.53-.39,1.5,1.5,0,0,1-.23-.64,7.43,7.43,0,0,1,0-1.16V164h-.76v-1.32h.76v-1.23l1.65-1v2.19Z"/><path d="M235.57,166.9l1.64.27a2.71,2.71,0,0,1-1,1.38,3,3,0,0,1-1.71.47,2.8,2.8,0,0,1-2.4-1.06,3.57,3.57,0,0,1-.61-2.15,3.46,3.46,0,0,1,.8-2.42,2.7,2.7,0,0,1,2.05-.88,2.75,2.75,0,0,1,2.19.92,4.05,4.05,0,0,1,.77,2.81h-4.13a1.72,1.72,0,0,0,.4,1.14,1.26,1.26,0,0,0,1,.41,1,1,0,0,0,.65-.21A1.29,1.29,0,0,0,235.57,166.9Zm.09-1.67a1.53,1.53,0,0,0-.37-1.08,1.17,1.17,0,0,0-1.74,0,1.49,1.49,0,0,0-.35,1.06Z"/><path d="M240.22,168.88h-1.65v-6.23h1.53v.89a2.71,2.71,0,0,1,.71-.83,1.31,1.31,0,0,1,.71-.2,2.16,2.16,0,0,1,1.08.31l-.51,1.44a1.44,1.44,0,0,0-.77-.27.91.91,0,0,0-.59.19,1.31,1.31,0,0,0-.37.69,9.22,9.22,0,0,0-.14,2.09Z"/><path d="M249.5,162.65V164h-1.13v2.5a4.68,4.68,0,0,0,0,.89.34.34,0,0,0,.14.21.44.44,0,0,0,.28.08,2,2,0,0,0,.66-.16l.14,1.28a3.14,3.14,0,0,1-1.3.25,2.07,2.07,0,0,1-.8-.15,1.13,1.13,0,0,1-.52-.39,1.5,1.5,0,0,1-.24-.64,9,9,0,0,1-.05-1.16V164H246v-1.32h.76v-1.23l1.65-1v2.19Z"/><path d="M250.26,165.68a3.35,3.35,0,0,1,.4-1.59,2.82,2.82,0,0,1,1.15-1.17,3.39,3.39,0,0,1,1.65-.41,3.11,3.11,0,0,1,2.32.92,3.45,3.45,0,0,1,0,4.66,3.08,3.08,0,0,1-2.29.93,3.56,3.56,0,0,1-1.63-.39,2.66,2.66,0,0,1-1.19-1.13A3.79,3.79,0,0,1,250.26,165.68Zm1.69.09a2,2,0,0,0,.44,1.41,1.42,1.42,0,0,0,2.16,0,2.07,2.07,0,0,0,.44-1.43,2,2,0,0,0-.44-1.4,1.44,1.44,0,0,0-2.16,0A2,2,0,0,0,252,165.77Z"/><path d="M5.83,179l-1.49-.27a2.27,2.27,0,0,1,.86-1.33A3.17,3.17,0,0,1,7,176.91a4,4,0,0,1,1.64.26,1.64,1.64,0,0,1,.76.67,3.31,3.31,0,0,1,.22,1.47l0,1.92a6.89,6.89,0,0,0,.08,1.21,3.72,3.72,0,0,0,.3.84H8.38c0-.11-.1-.27-.16-.49l-.06-.19a2.87,2.87,0,0,1-.9.61,2.52,2.52,0,0,1-1,.21,2.15,2.15,0,0,1-1.52-.52,1.87,1.87,0,0,1-.3-2.26,1.64,1.64,0,0,1,.71-.64,5.76,5.76,0,0,1,1.3-.38,8.94,8.94,0,0,0,1.6-.4v-.17a.83.83,0,0,0-.23-.67,1.36,1.36,0,0,0-.88-.21,1.13,1.13,0,0,0-.69.18A1.17,1.17,0,0,0,5.83,179ZM8,180.29c-.21.07-.54.15-1,.25a2.89,2.89,0,0,0-.89.29.67.67,0,0,0-.33.58.83.83,0,0,0,.26.6.93.93,0,0,0,.66.25,1.42,1.42,0,0,0,.85-.3,1,1,0,0,0,.39-.54,3.48,3.48,0,0,0,.06-.8Z"/><path d="M16.93,183.28H15.29V180.1a4.84,4.84,0,0,0-.11-1.3.89.89,0,0,0-.34-.46,1,1,0,0,0-.57-.17,1.3,1.3,0,0,0-.77.24A1.1,1.1,0,0,0,13,179a5.07,5.07,0,0,0-.13,1.43v2.82H11.26v-6.23h1.53V178a2.51,2.51,0,0,1,2.05-1.06,2.48,2.48,0,0,1,1,.2,1.65,1.65,0,0,1,.68.5,1.68,1.68,0,0,1,.32.69,5.23,5.23,0,0,1,.09,1.11Z"/><path d="M22,183.28v-8.52h1.73v7.07H28v1.45Z"/><path d="M29.27,183.28v-1.65h1.65v1.65Z"/><path d="M32.61,183.28v-8.59H35.4a9.77,9.77,0,0,1,2.06.13,2.31,2.31,0,0,1,1.24.84,2.67,2.67,0,0,1,.49,1.67,2.82,2.82,0,0,1-.28,1.33,2.44,2.44,0,0,1-.73.85,2.55,2.55,0,0,1-.9.4,9.2,9.2,0,0,1-1.8.13H34.35v3.24Zm1.74-7.14v2.44h.95a4.43,4.43,0,0,0,1.37-.14,1.14,1.14,0,0,0,.54-.42,1.15,1.15,0,0,0,.2-.67,1.07,1.07,0,0,0-.28-.77,1.18,1.18,0,0,0-.7-.38,8,8,0,0,0-1.24-.06Z"/><path d="M40.61,183.28v-1.65h1.64v1.65Z"/><path d="M47.12,183.69l1.88.23a.66.66,0,0,0,.22.45,1.3,1.3,0,0,0,.74.17,1.87,1.87,0,0,0,1-.19.75.75,0,0,0,.33-.42,2.45,2.45,0,0,0,.08-.75v-.91a2.23,2.23,0,0,1-1.86,1,2.31,2.31,0,0,1-2-1.06,3.65,3.65,0,0,1-.57-2.09,3.44,3.44,0,0,1,.75-2.39,2.42,2.42,0,0,1,1.87-.83,2.27,2.27,0,0,1,1.9,1v-.88H53v5.59a5.3,5.3,0,0,1-.19,1.65,2,2,0,0,1-.51.85,2.21,2.21,0,0,1-.87.49,4.92,4.92,0,0,1-1.39.17,3.59,3.59,0,0,1-2.24-.54,1.7,1.7,0,0,1-.66-1.37ZM48.59,180a2.22,2.22,0,0,0,.39,1.45,1.19,1.19,0,0,0,.94.46,1.3,1.3,0,0,0,1-.47,2.05,2.05,0,0,0,.42-1.4,2.17,2.17,0,0,0-.4-1.44,1.28,1.28,0,0,0-1-.47,1.22,1.22,0,0,0-1,.46A2.16,2.16,0,0,0,48.59,180Z"/><path d="M55.83,179l-1.49-.27a2.33,2.33,0,0,1,.87-1.33,3.17,3.17,0,0,1,1.83-.44,4,4,0,0,1,1.64.26,1.69,1.69,0,0,1,.76.67,3.47,3.47,0,0,1,.22,1.47l0,1.92a6,6,0,0,0,.08,1.21,3.66,3.66,0,0,0,.29.84H58.38c0-.11-.09-.27-.15-.49l-.06-.19a2.91,2.91,0,0,1-.91.61,2.52,2.52,0,0,1-1,.21,2.17,2.17,0,0,1-1.52-.52,1.77,1.77,0,0,1-.55-1.32,1.74,1.74,0,0,1,.25-.94,1.69,1.69,0,0,1,.71-.64,5.87,5.87,0,0,1,1.31-.38,9.18,9.18,0,0,0,1.6-.4v-.17a.83.83,0,0,0-.24-.67,1.34,1.34,0,0,0-.88-.21,1.18,1.18,0,0,0-.69.18A1.23,1.23,0,0,0,55.83,179ZM58,180.29c-.21.07-.55.15-1,.25a2.88,2.88,0,0,0-.9.29.66.66,0,0,0-.32.58.79.79,0,0,0,.26.6.92.92,0,0,0,.65.25,1.4,1.4,0,0,0,.85-.3,1,1,0,0,0,.39-.54,2.86,2.86,0,0,0,.07-.8Z"/><path d="M60.7,181.5l1.65-.25a1.2,1.2,0,0,0,.43.73,1.4,1.4,0,0,0,.9.25,1.58,1.58,0,0,0,1-.24.51.51,0,0,0,.22-.44.45.45,0,0,0-.12-.31,1.31,1.31,0,0,0-.55-.21,8.64,8.64,0,0,1-2.52-.81,1.58,1.58,0,0,1-.74-1.4,1.73,1.73,0,0,1,.64-1.36,3,3,0,0,1,2-.55,3.39,3.39,0,0,1,1.89.42,2.14,2.14,0,0,1,.86,1.23l-1.55.29a1,1,0,0,0-.38-.56,1.38,1.38,0,0,0-.79-.19,1.83,1.83,0,0,0-.94.18.4.4,0,0,0-.18.33.35.35,0,0,0,.16.3,6.06,6.06,0,0,0,1.54.47,4.45,4.45,0,0,1,1.84.73,1.52,1.52,0,0,1,.51,1.22,1.89,1.89,0,0,1-.71,1.47,3.19,3.19,0,0,1-2.12.62,3.4,3.4,0,0,1-2-.52A2.33,2.33,0,0,1,60.7,181.5Z"/><path d="M70.71,181.5l1.65-.25a1.2,1.2,0,0,0,.43.73,1.4,1.4,0,0,0,.9.25,1.62,1.62,0,0,0,1-.24.53.53,0,0,0,.22-.44.45.45,0,0,0-.12-.31,1.37,1.37,0,0,0-.55-.21,8.87,8.87,0,0,1-2.53-.81,1.6,1.6,0,0,1-.74-1.4,1.76,1.76,0,0,1,.64-1.36,3,3,0,0,1,2-.55,3.41,3.41,0,0,1,1.9.42,2.14,2.14,0,0,1,.86,1.23l-1.56.29a1,1,0,0,0-.37-.56,1.39,1.39,0,0,0-.8-.19,1.81,1.81,0,0,0-.93.18.41.41,0,0,0-.19.33.36.36,0,0,0,.17.3,6.06,6.06,0,0,0,1.54.47,4.4,4.4,0,0,1,1.83.73,1.5,1.5,0,0,1,.52,1.22,1.87,1.87,0,0,1-.72,1.47,3.14,3.14,0,0,1-2.11.62,3.4,3.4,0,0,1-2-.52A2.33,2.33,0,0,1,70.71,181.5Z"/><path d="M82.06,183.28v-.93a2.43,2.43,0,0,1-.9.78,2.53,2.53,0,0,1-1.17.29,2.22,2.22,0,0,1-1.12-.28,1.63,1.63,0,0,1-.72-.77,3.41,3.41,0,0,1-.23-1.38v-3.94h1.65v2.86a7.93,7.93,0,0,0,.09,1.61A.85.85,0,0,0,80,182a1,1,0,0,0,.61.17,1.26,1.26,0,0,0,.76-.23,1.21,1.21,0,0,0,.46-.57,6.85,6.85,0,0,0,.12-1.68v-2.63h1.64v6.23Z"/><path d="M85.24,177.05h1.54V178a2.28,2.28,0,0,1,.81-.76,2.17,2.17,0,0,1,1.13-.3,2.41,2.41,0,0,1,1.84.85,3.47,3.47,0,0,1,.75,2.37,3.51,3.51,0,0,1-.76,2.42,2.36,2.36,0,0,1-1.84.87,2.06,2.06,0,0,1-.94-.21,3.05,3.05,0,0,1-.88-.7v3.13H85.24Zm1.63,3a2.37,2.37,0,0,0,.42,1.55,1.28,1.28,0,0,0,1,.5,1.2,1.2,0,0,0,1-.46,2.4,2.4,0,0,0,.38-1.51,2.26,2.26,0,0,0-.39-1.45,1.23,1.23,0,0,0-1-.48,1.27,1.27,0,0,0-1,.47A2,2,0,0,0,86.87,180.06Z"/><path d="M92.57,177.05h1.54V178a2.28,2.28,0,0,1,.81-.76,2.17,2.17,0,0,1,1.13-.3,2.41,2.41,0,0,1,1.84.85,3.47,3.47,0,0,1,.75,2.37,3.51,3.51,0,0,1-.76,2.42,2.36,2.36,0,0,1-1.84.87,2.06,2.06,0,0,1-.94-.21,3.05,3.05,0,0,1-.88-.7v3.13H92.57Zm1.63,3a2.37,2.37,0,0,0,.42,1.55,1.28,1.28,0,0,0,1,.5,1.2,1.2,0,0,0,1-.46,2.4,2.4,0,0,0,.38-1.51,2.26,2.26,0,0,0-.39-1.45,1.23,1.23,0,0,0-1-.48,1.27,1.27,0,0,0-1,.47A2,2,0,0,0,94.2,180.06Z"/><path d="M100,183.28v-8.59h1.65v8.59Z"/><path d="M102.5,177.05h1.76l1.49,4.42,1.45-4.42h1.7l-2.19,6-.4,1.09a4.25,4.25,0,0,1-.41.83,1.65,1.65,0,0,1-.45.46,1.83,1.83,0,0,1-.63.28,3.12,3.12,0,0,1-.84.1,4.14,4.14,0,0,1-.93-.1l-.15-1.29a3.76,3.76,0,0,0,.7.08,1,1,0,0,0,.85-.34,2.38,2.38,0,0,0,.42-.86Z"/><path d="M110,183.28v-1.65h1.64v1.65Z"/><path d="M4.61,193.09H7.78a6.15,6.15,0,0,1,1.63.16,2.86,2.86,0,0,1,1.3.79,3.77,3.77,0,0,1,.82,1.39,6.58,6.58,0,0,1,.28,2,5.52,5.52,0,0,1-.27,1.83,3.72,3.72,0,0,1-.92,1.52,3.13,3.13,0,0,1-1.21.69,5.37,5.37,0,0,1-1.54.18H4.61Zm1.73,1.45v5.69h1.3a5,5,0,0,0,1-.08,1.51,1.51,0,0,0,.7-.36,1.79,1.79,0,0,0,.46-.83,5.5,5.5,0,0,0,.17-1.57,5,5,0,0,0-.17-1.53,2,2,0,0,0-.49-.83,1.64,1.64,0,0,0-.81-.41,8.31,8.31,0,0,0-1.42-.08Z"/><path d="M12.89,198.48a3.35,3.35,0,0,1,.4-1.59,2.76,2.76,0,0,1,1.15-1.17,3.36,3.36,0,0,1,1.65-.41,3.11,3.11,0,0,1,3.22,3.24,3.24,3.24,0,0,1-.91,2.34,3.1,3.1,0,0,1-2.3.93,3.59,3.59,0,0,1-1.63-.39,2.69,2.69,0,0,1-1.18-1.13A3.79,3.79,0,0,1,12.89,198.48Zm1.68.09A2.05,2.05,0,0,0,15,200a1.42,1.42,0,0,0,1.09.5,1.38,1.38,0,0,0,1.08-.5,2.07,2.07,0,0,0,.43-1.43,2,2,0,0,0-.43-1.4,1.38,1.38,0,0,0-1.08-.49,1.41,1.41,0,0,0-1.09.49A2.08,2.08,0,0,0,14.57,198.57Z"/><path d="M29.59,201.68H27.94V198.5a4.94,4.94,0,0,0-.1-1.3,1,1,0,0,0-.34-.46,1,1,0,0,0-.58-.17,1.27,1.27,0,0,0-.76.24,1.17,1.17,0,0,0-.47.62,5.62,5.62,0,0,0-.12,1.43v2.82H23.92v-6.23h1.53v.92a2.49,2.49,0,0,1,2.05-1.06,2.55,2.55,0,0,1,1,.2,1.72,1.72,0,0,1,.68.5,1.82,1.82,0,0,1,.32.69,5.23,5.23,0,0,1,.09,1.11Z"/><path d="M30.88,198.48a3.35,3.35,0,0,1,.4-1.59,2.82,2.82,0,0,1,1.15-1.17,3.39,3.39,0,0,1,1.65-.41,3.11,3.11,0,0,1,2.32.92,3.45,3.45,0,0,1,0,4.66,3.08,3.08,0,0,1-2.29.93,3.63,3.63,0,0,1-1.64-.39,2.74,2.74,0,0,1-1.18-1.13A3.79,3.79,0,0,1,30.88,198.48Zm1.69.09A2,2,0,0,0,33,200a1.42,1.42,0,0,0,2.16,0,2.07,2.07,0,0,0,.44-1.43,2,2,0,0,0-.44-1.4,1.44,1.44,0,0,0-2.16,0A2,2,0,0,0,32.57,198.57Z"/><path d="M41.44,195.45v1.32H40.32v2.5a6.67,6.67,0,0,0,0,.89.32.32,0,0,0,.15.21.49.49,0,0,0,.28.08,2,2,0,0,0,.66-.16l.14,1.28a3.17,3.17,0,0,1-1.3.25,2,2,0,0,1-.8-.15,1.17,1.17,0,0,1-.53-.39,1.5,1.5,0,0,1-.23-.64,7.43,7.43,0,0,1,0-1.16v-2.71h-.76v-1.32h.76v-1.23l1.65-1v2.19Z"/><path d="M51.35,197.29l-1.63.3a1.19,1.19,0,0,0-.37-.74,1.13,1.13,0,0,0-.75-.24,1.23,1.23,0,0,0-1,.42,2.16,2.16,0,0,0-.37,1.42,2.6,2.6,0,0,0,.37,1.57,1.24,1.24,0,0,0,1,.46,1.11,1.11,0,0,0,.77-.27,1.58,1.58,0,0,0,.42-.92l1.62.28a2.87,2.87,0,0,1-1,1.68,3,3,0,0,1-1.91.57,2.87,2.87,0,0,1-2.18-.86,3.95,3.95,0,0,1,0-4.79,2.92,2.92,0,0,1,2.21-.86,3,3,0,0,1,1.8.49A2.77,2.77,0,0,1,51.35,197.29Z"/><path d="M52.21,198.48a3.36,3.36,0,0,1,.41-1.59,2.8,2.8,0,0,1,1.14-1.17,3.43,3.43,0,0,1,1.66-.41,3.1,3.1,0,0,1,2.31.92,3.42,3.42,0,0,1,0,4.66,3.06,3.06,0,0,1-2.29.93,3.59,3.59,0,0,1-1.63-.39,2.69,2.69,0,0,1-1.18-1.13A3.79,3.79,0,0,1,52.21,198.48Zm1.69.09a2.05,2.05,0,0,0,.44,1.41,1.4,1.4,0,0,0,1.08.5,1.42,1.42,0,0,0,1.09-.5,2.07,2.07,0,0,0,.43-1.43,2,2,0,0,0-.43-1.4,1.41,1.41,0,0,0-1.09-.49,1.39,1.39,0,0,0-1.08.49A2.08,2.08,0,0,0,53.9,198.57Z"/><path d="M65.58,201.68H63.94V198.5a4.79,4.79,0,0,0-.11-1.3.89.89,0,0,0-.34-.46,1,1,0,0,0-.57-.17,1.3,1.3,0,0,0-.77.24,1.1,1.1,0,0,0-.46.62,5.07,5.07,0,0,0-.13,1.43v2.82H59.91v-6.23h1.53v.92a2.52,2.52,0,0,1,2.05-1.06,2.48,2.48,0,0,1,1,.2,1.65,1.65,0,0,1,.68.5,1.68,1.68,0,0,1,.32.69,5.23,5.23,0,0,1,.09,1.11Z"/><path d="M72.92,201.68H71.27V198.5a4.79,4.79,0,0,0-.11-1.3.89.89,0,0,0-.34-.46,1,1,0,0,0-.57-.17,1.3,1.3,0,0,0-.77.24,1.1,1.1,0,0,0-.46.62,5.07,5.07,0,0,0-.13,1.43v2.82H67.24v-6.23h1.53v.92a2.52,2.52,0,0,1,2-1.06,2.48,2.48,0,0,1,1,.2,1.65,1.65,0,0,1,.68.5,1.68,1.68,0,0,1,.32.69,5.12,5.12,0,0,1,.1,1.11Z"/><path d="M78.19,199.7l1.64.27a2.71,2.71,0,0,1-1,1.38,3,3,0,0,1-1.71.47,2.8,2.8,0,0,1-2.4-1.06,3.58,3.58,0,0,1-.62-2.15,3.42,3.42,0,0,1,.81-2.42,2.68,2.68,0,0,1,2-.88,2.78,2.78,0,0,1,2.19.92,4.1,4.1,0,0,1,.77,2.81H75.79a1.67,1.67,0,0,0,.4,1.14,1.25,1.25,0,0,0,1,.41,1,1,0,0,0,.65-.21A1.29,1.29,0,0,0,78.19,199.7Zm.09-1.67a1.53,1.53,0,0,0-.37-1.08,1.17,1.17,0,0,0-1.74,0,1.49,1.49,0,0,0-.35,1.06Z"/><path d="M86.68,197.29l-1.62.3a1.19,1.19,0,0,0-.37-.74,1.13,1.13,0,0,0-.75-.24,1.23,1.23,0,0,0-1,.42,2.16,2.16,0,0,0-.37,1.42A2.53,2.53,0,0,0,83,200a1.24,1.24,0,0,0,1,.46,1.11,1.11,0,0,0,.77-.27,1.58,1.58,0,0,0,.42-.92l1.62.28a2.87,2.87,0,0,1-1,1.68,3,3,0,0,1-1.92.57,2.85,2.85,0,0,1-2.17-.86,3.95,3.95,0,0,1,0-4.79,2.9,2.9,0,0,1,2.2-.86,3.06,3.06,0,0,1,1.81.49A2.7,2.7,0,0,1,86.68,197.29Z"/><path d="M90.77,195.45v1.32H89.65v2.5a6.67,6.67,0,0,0,0,.89.32.32,0,0,0,.15.21.49.49,0,0,0,.28.08,2,2,0,0,0,.66-.16l.14,1.28a3.17,3.17,0,0,1-1.3.25,2,2,0,0,1-.8-.15,1.17,1.17,0,0,1-.53-.39,1.5,1.5,0,0,1-.23-.64,7.43,7.43,0,0,1,0-1.16v-2.71h-.76v-1.32H88v-1.23l1.65-1v2.19Z"/><path d="M96.48,197.35,95,197.08a2.27,2.27,0,0,1,.86-1.33,3.17,3.17,0,0,1,1.83-.44,4,4,0,0,1,1.64.26,1.64,1.64,0,0,1,.76.67,3.31,3.31,0,0,1,.22,1.47l0,1.92a6.89,6.89,0,0,0,.08,1.21,3.72,3.72,0,0,0,.3.84H99c0-.11-.1-.27-.16-.49l-.06-.19a2.87,2.87,0,0,1-.9.61,2.52,2.52,0,0,1-1,.21,2.15,2.15,0,0,1-1.52-.52,1.87,1.87,0,0,1-.3-2.26,1.67,1.67,0,0,1,.7-.64,6,6,0,0,1,1.31-.38,8.94,8.94,0,0,0,1.6-.4v-.17a.83.83,0,0,0-.23-.67,1.38,1.38,0,0,0-.89-.21,1.12,1.12,0,0,0-.68.18A1.17,1.17,0,0,0,96.48,197.35Zm2.2,1.34c-.21.07-.54.15-1,.25a2.89,2.89,0,0,0-.89.29.67.67,0,0,0-.33.58.83.83,0,0,0,.26.6.93.93,0,0,0,.66.25,1.42,1.42,0,0,0,.85-.3,1,1,0,0,0,.39-.54,3.48,3.48,0,0,0,.06-.8Z"/><path d="M107.58,201.68h-1.64V198.5a4.79,4.79,0,0,0-.11-1.3.89.89,0,0,0-.34-.46,1,1,0,0,0-.57-.17,1.3,1.3,0,0,0-.77.24,1.1,1.1,0,0,0-.46.62,5.07,5.07,0,0,0-.13,1.43v2.82h-1.65v-6.23h1.53v.92a2.51,2.51,0,0,1,2-1.06,2.48,2.48,0,0,1,1,.2,1.65,1.65,0,0,1,.68.5,1.68,1.68,0,0,1,.32.69,5.23,5.23,0,0,1,.09,1.11Z"/><path d="M112.65,201.68v-8.52h1.73v7.07h4.31v1.45Z"/><path d="M119.92,201.68V200h1.64v1.65Z"/><path d="M123.26,201.68v-8.59h2.79a9.77,9.77,0,0,1,2.06.13,2.26,2.26,0,0,1,1.24.84,2.67,2.67,0,0,1,.49,1.67,2.82,2.82,0,0,1-.28,1.33,2.44,2.44,0,0,1-.73.85,2.55,2.55,0,0,1-.9.4,9.2,9.2,0,0,1-1.8.13H125v3.24Zm1.74-7.14V197h1a4.43,4.43,0,0,0,1.37-.14,1.14,1.14,0,0,0,.54-.42,1.15,1.15,0,0,0,.2-.67,1.07,1.07,0,0,0-.28-.77,1.18,1.18,0,0,0-.7-.38,8,8,0,0,0-1.24-.06Z"/><path d="M131.26,201.68V200h1.64v1.65Z"/><path d="M137.77,202.09l1.88.23a.69.69,0,0,0,.22.45,1.3,1.3,0,0,0,.74.17,1.87,1.87,0,0,0,1-.19.78.78,0,0,0,.33-.42,2.45,2.45,0,0,0,.08-.75v-.91a2.23,2.23,0,0,1-1.86,1,2.31,2.31,0,0,1-2-1.06,3.65,3.65,0,0,1-.58-2.09,3.44,3.44,0,0,1,.76-2.39,2.42,2.42,0,0,1,1.87-.83,2.27,2.27,0,0,1,1.9,1v-.88h1.55V201a5.5,5.5,0,0,1-.19,1.64,2,2,0,0,1-.51.86,2.28,2.28,0,0,1-.87.49,4.92,4.92,0,0,1-1.39.17,3.59,3.59,0,0,1-2.24-.54,1.7,1.7,0,0,1-.66-1.37Zm1.47-3.65a2.22,2.22,0,0,0,.39,1.45,1.19,1.19,0,0,0,.94.46,1.33,1.33,0,0,0,1-.47,2.07,2.07,0,0,0,.42-1.4,2.15,2.15,0,0,0-.4-1.44,1.28,1.28,0,0,0-1-.47,1.22,1.22,0,0,0-1,.46A2.16,2.16,0,0,0,139.24,198.44Z"/><path d="M146.48,197.35l-1.49-.27a2.33,2.33,0,0,1,.87-1.33,3.17,3.17,0,0,1,1.83-.44,4,4,0,0,1,1.64.26,1.69,1.69,0,0,1,.76.67,3.51,3.51,0,0,1,.21,1.47v1.92a6,6,0,0,0,.08,1.21,3.66,3.66,0,0,0,.29.84H149c0-.11-.09-.27-.15-.49l-.06-.19a2.91,2.91,0,0,1-.91.61,2.52,2.52,0,0,1-1,.21,2.13,2.13,0,0,1-1.51-.52,1.86,1.86,0,0,1-.31-2.26,1.69,1.69,0,0,1,.71-.64,5.87,5.87,0,0,1,1.31-.38,9.18,9.18,0,0,0,1.6-.4v-.17a.83.83,0,0,0-.24-.67,1.34,1.34,0,0,0-.88-.21,1.18,1.18,0,0,0-.69.18A1.23,1.23,0,0,0,146.48,197.35Zm2.21,1.34c-.21.07-.55.15-1,.25a2.88,2.88,0,0,0-.9.29.66.66,0,0,0-.32.58.82.82,0,0,0,.25.6,1,1,0,0,0,.66.25,1.4,1.4,0,0,0,.85-.3,1,1,0,0,0,.39-.54,2.86,2.86,0,0,0,.07-.8Z"/><path d="M151.35,199.9l1.65-.25a1.2,1.2,0,0,0,.43.73,1.46,1.46,0,0,0,.9.25,1.58,1.58,0,0,0,1-.24.51.51,0,0,0,.22-.44.45.45,0,0,0-.12-.31,1.31,1.31,0,0,0-.55-.21,8.87,8.87,0,0,1-2.53-.81,1.59,1.59,0,0,1-.73-1.4,1.74,1.74,0,0,1,.63-1.36,3,3,0,0,1,2-.55,3.39,3.39,0,0,1,1.89.42A2.14,2.14,0,0,1,157,197l-1.55.29a1,1,0,0,0-.38-.56,1.39,1.39,0,0,0-.8-.19,1.81,1.81,0,0,0-.93.18.39.39,0,0,0-.18.33.35.35,0,0,0,.16.3,5.8,5.8,0,0,0,1.54.46,4.46,4.46,0,0,1,1.83.74,1.5,1.5,0,0,1,.52,1.22,1.89,1.89,0,0,1-.71,1.47,3.19,3.19,0,0,1-2.12.62,3.4,3.4,0,0,1-2-.52A2.33,2.33,0,0,1,151.35,199.9Z"/><path d="M163.1,201.68l-2-6.23h1.6l1.16,4.08,1.07-4.08h1.59l1,4.08,1.19-4.08h1.62l-2,6.23h-1.58l-1.07-4-1.05,4Z"/><path d="M172.5,197.35l-1.49-.27a2.27,2.27,0,0,1,.86-1.33,3.17,3.17,0,0,1,1.83-.44,4,4,0,0,1,1.64.26,1.64,1.64,0,0,1,.76.67,3.31,3.31,0,0,1,.22,1.47l0,1.92a6.89,6.89,0,0,0,.08,1.21,3.72,3.72,0,0,0,.3.84h-1.63c0-.11-.1-.27-.16-.49l-.06-.19a2.87,2.87,0,0,1-.9.61,2.53,2.53,0,0,1-1,.21,2.14,2.14,0,0,1-1.51-.52,1.87,1.87,0,0,1-.3-2.26,1.67,1.67,0,0,1,.7-.64,6,6,0,0,1,1.31-.38,8.94,8.94,0,0,0,1.6-.4v-.17a.83.83,0,0,0-.23-.67,1.38,1.38,0,0,0-.89-.21,1,1,0,0,0-1.08.78Zm2.2,1.34c-.21.07-.54.15-1,.25a3,3,0,0,0-.9.29.69.69,0,0,0-.32.58.83.83,0,0,0,.26.6.93.93,0,0,0,.66.25,1.42,1.42,0,0,0,.85-.3,1,1,0,0,0,.39-.54,3.48,3.48,0,0,0,.06-.8Z"/><path d="M180.8,195.45v1.32h-1.13v2.5a4.68,4.68,0,0,0,0,.89.34.34,0,0,0,.14.21.51.51,0,0,0,.28.08,2,2,0,0,0,.66-.16l.14,1.28a3.14,3.14,0,0,1-1.3.25,2,2,0,0,1-.8-.15,1.23,1.23,0,0,1-.53-.39,1.65,1.65,0,0,1-.23-.64,9,9,0,0,1,0-1.16v-2.71h-.76v-1.32H178v-1.23l1.65-1v2.19Z"/><path d="M185.54,199.7l1.64.27a2.75,2.75,0,0,1-1,1.38,3,3,0,0,1-1.71.47,2.81,2.81,0,0,1-2.41-1.06,3.57,3.57,0,0,1-.61-2.15,3.42,3.42,0,0,1,.81-2.42,2.68,2.68,0,0,1,2-.88,2.75,2.75,0,0,1,2.19.92,4.05,4.05,0,0,1,.77,2.81h-4.12a1.67,1.67,0,0,0,.39,1.14,1.28,1.28,0,0,0,1,.41,1,1,0,0,0,.65-.21A1.29,1.29,0,0,0,185.54,199.7Zm.1-1.67a1.58,1.58,0,0,0-.37-1.08,1.15,1.15,0,0,0-.86-.38,1.13,1.13,0,0,0-.89.4,1.49,1.49,0,0,0-.34,1.06Z"/><path d="M190.19,201.68h-1.65v-6.23h1.53v.89a2.71,2.71,0,0,1,.71-.83,1.31,1.31,0,0,1,.71-.2,2.11,2.11,0,0,1,1.08.31l-.51,1.44a1.41,1.41,0,0,0-.77-.27.88.88,0,0,0-.58.19,1.25,1.25,0,0,0-.38.69,9.83,9.83,0,0,0-.14,2.08Z"/><path d="M198.26,193.09v3.16a2.4,2.4,0,0,1,1.9-.94,2.46,2.46,0,0,1,1,.21,1.83,1.83,0,0,1,.69.54,1.9,1.9,0,0,1,.31.73,6.2,6.2,0,0,1,.09,1.24v3.65h-1.65v-3.29a5,5,0,0,0-.09-1.24.81.81,0,0,0-.33-.42,1.11,1.11,0,0,0-.6-.16,1.38,1.38,0,0,0-.73.2,1.18,1.18,0,0,0-.47.6,3.62,3.62,0,0,0-.15,1.19v3.12h-1.65v-8.59Z"/><path d="M207.55,199.7l1.64.27a2.71,2.71,0,0,1-1,1.38,3,3,0,0,1-1.71.47,2.8,2.8,0,0,1-2.4-1.06,3.57,3.57,0,0,1-.61-2.15,3.42,3.42,0,0,1,.81-2.42,2.66,2.66,0,0,1,2-.88,2.75,2.75,0,0,1,2.19.92,4.05,4.05,0,0,1,.77,2.81h-4.13a1.72,1.72,0,0,0,.4,1.14,1.26,1.26,0,0,0,.95.41,1,1,0,0,0,.65-.21A1.29,1.29,0,0,0,207.55,199.7Zm.09-1.67a1.57,1.57,0,0,0-.36-1.08,1.15,1.15,0,0,0-.86-.38,1.12,1.12,0,0,0-.89.4,1.49,1.49,0,0,0-.35,1.06Z"/><path d="M211.85,197.35l-1.49-.27a2.32,2.32,0,0,1,.86-1.33,3.17,3.17,0,0,1,1.83-.44,4,4,0,0,1,1.64.26,1.64,1.64,0,0,1,.76.67,3.31,3.31,0,0,1,.22,1.47l0,1.92a6.89,6.89,0,0,0,.08,1.21,3.72,3.72,0,0,0,.3.84H214.4c0-.11-.1-.27-.16-.49a1.07,1.07,0,0,0-.06-.19,2.87,2.87,0,0,1-.9.61,2.52,2.52,0,0,1-1,.21,2.17,2.17,0,0,1-1.52-.52,1.87,1.87,0,0,1-.3-2.26,1.64,1.64,0,0,1,.71-.64,5.71,5.71,0,0,1,1.31-.38,9,9,0,0,0,1.59-.4v-.17a.83.83,0,0,0-.23-.67,1.36,1.36,0,0,0-.88-.21,1.13,1.13,0,0,0-.69.18A1.17,1.17,0,0,0,211.85,197.35Zm2.2,1.34c-.21.07-.54.15-1,.25a2.89,2.89,0,0,0-.89.29.67.67,0,0,0-.33.58.83.83,0,0,0,.26.6.93.93,0,0,0,.66.25,1.42,1.42,0,0,0,.85-.3,1,1,0,0,0,.39-.54,3.48,3.48,0,0,0,.06-.8Z"/><path d="M220.15,195.45v1.32H219v2.5a5.87,5.87,0,0,0,0,.89.34.34,0,0,0,.14.21.51.51,0,0,0,.28.08,2,2,0,0,0,.66-.16l.14,1.28a3.14,3.14,0,0,1-1.3.25,2.07,2.07,0,0,1-.8-.15,1.13,1.13,0,0,1-.52-.39,1.5,1.5,0,0,1-.24-.64,9,9,0,0,1,0-1.16v-2.71h-.75v-1.32h.75v-1.23l1.65-1v2.19Z"/><path d="M224.89,199.7l1.65.27a2.82,2.82,0,0,1-1,1.38,3,3,0,0,1-1.71.47,2.8,2.8,0,0,1-2.4-1.06,3.58,3.58,0,0,1-.62-2.15,3.42,3.42,0,0,1,.81-2.42,2.68,2.68,0,0,1,2-.88,2.79,2.79,0,0,1,2.2.92,4.05,4.05,0,0,1,.76,2.81H222.5a1.62,1.62,0,0,0,.4,1.14,1.25,1.25,0,0,0,.95.41,1,1,0,0,0,.65-.21A1.35,1.35,0,0,0,224.89,199.7ZM225,198a1.58,1.58,0,0,0-.37-1.08,1.15,1.15,0,0,0-.86-.38,1.13,1.13,0,0,0-.89.4,1.49,1.49,0,0,0-.34,1.06Z"/><path d="M229.54,201.68h-1.65v-6.23h1.53v.89a2.86,2.86,0,0,1,.71-.83,1.33,1.33,0,0,1,.71-.2,2.17,2.17,0,0,1,1.09.31l-.51,1.44a1.47,1.47,0,0,0-.78-.27.88.88,0,0,0-.58.19,1.32,1.32,0,0,0-.38.69,9.83,9.83,0,0,0-.14,2.08Z"/><path d="M238.82,195.45v1.32H237.7v2.5a6.67,6.67,0,0,0,0,.89.32.32,0,0,0,.15.21.46.46,0,0,0,.27.08,2,2,0,0,0,.67-.16l.14,1.28a3.21,3.21,0,0,1-1.3.25,2.09,2.09,0,0,1-.81-.15,1.19,1.19,0,0,1-.52-.39,1.5,1.5,0,0,1-.23-.64,7,7,0,0,1-.06-1.16v-2.71h-.75v-1.32H236v-1.23l1.66-1v2.19Z"/><path d="M239.58,198.48a3.36,3.36,0,0,1,.41-1.59,2.8,2.8,0,0,1,1.14-1.17,3.43,3.43,0,0,1,1.66-.41,3.13,3.13,0,0,1,3.22,3.24,3.24,3.24,0,0,1-.91,2.34,3.1,3.1,0,0,1-2.3.93,3.59,3.59,0,0,1-1.63-.39A2.69,2.69,0,0,1,240,200.3,3.79,3.79,0,0,1,239.58,198.48Zm1.69.09a2.05,2.05,0,0,0,.44,1.41,1.43,1.43,0,0,0,2.17,0,2.07,2.07,0,0,0,.43-1.43,2,2,0,0,0-.43-1.4,1.45,1.45,0,0,0-2.17,0A2.08,2.08,0,0,0,241.27,198.57Z"/><path d="M5.83,211.75l-1.49-.27a2.27,2.27,0,0,1,.86-1.33A3.17,3.17,0,0,1,7,209.71a4,4,0,0,1,1.64.26,1.64,1.64,0,0,1,.76.67,3.31,3.31,0,0,1,.22,1.47l0,1.92a6.89,6.89,0,0,0,.08,1.21,3.72,3.72,0,0,0,.3.84H8.38c0-.11-.1-.27-.16-.49l-.06-.19a2.87,2.87,0,0,1-.9.61,2.52,2.52,0,0,1-1,.21,2.15,2.15,0,0,1-1.52-.52,1.87,1.87,0,0,1-.3-2.26,1.64,1.64,0,0,1,.71-.64,5.76,5.76,0,0,1,1.3-.38A8.94,8.94,0,0,0,8,212v-.17a.83.83,0,0,0-.23-.67,1.36,1.36,0,0,0-.88-.21,1.13,1.13,0,0,0-.69.18A1.17,1.17,0,0,0,5.83,211.75ZM8,213.09c-.21.07-.54.15-1,.25a2.89,2.89,0,0,0-.89.29.67.67,0,0,0-.33.58.83.83,0,0,0,.26.6.93.93,0,0,0,.66.25,1.42,1.42,0,0,0,.85-.3,1,1,0,0,0,.39-.54,3.48,3.48,0,0,0,.06-.8Z"/><path d="M20.27,216.08H18.62V212.9a4.94,4.94,0,0,0-.1-1.3.91.91,0,0,0-.35-.46.94.94,0,0,0-.57-.17,1.32,1.32,0,0,0-.77.24,1.15,1.15,0,0,0-.46.62,5.48,5.48,0,0,0-.13,1.43v2.82H14.6v-6.23h1.53v.92a2.49,2.49,0,0,1,2.05-1.06,2.47,2.47,0,0,1,1,.2,1.76,1.76,0,0,1,.69.5,1.82,1.82,0,0,1,.32.69,5.23,5.23,0,0,1,.09,1.11Z"/><path d="M23.17,211.75l-1.5-.27a2.33,2.33,0,0,1,.87-1.33,3.17,3.17,0,0,1,1.83-.44A4,4,0,0,1,26,210a1.69,1.69,0,0,1,.76.67,3.31,3.31,0,0,1,.22,1.47L27,214a6.89,6.89,0,0,0,.08,1.21,3.29,3.29,0,0,0,.3.84H25.72a3.51,3.51,0,0,1-.16-.49l-.06-.19a2.87,2.87,0,0,1-.9.61,2.53,2.53,0,0,1-1,.21,2.14,2.14,0,0,1-1.51-.52,1.83,1.83,0,0,1-.3-2.26,1.61,1.61,0,0,1,.7-.64,6,6,0,0,1,1.31-.38,8.94,8.94,0,0,0,1.6-.4v-.17a.86.86,0,0,0-.23-.67,1.38,1.38,0,0,0-.89-.21,1,1,0,0,0-1.08.78Zm2.2,1.34c-.21.07-.54.15-1,.25a2.88,2.88,0,0,0-.9.29.69.69,0,0,0-.32.58.83.83,0,0,0,.26.6.93.93,0,0,0,.66.25,1.42,1.42,0,0,0,.85-.3,1,1,0,0,0,.39-.54,3.48,3.48,0,0,0,.06-.8Z"/><path d="M31.47,209.85v1.32H30.34v2.5a6.67,6.67,0,0,0,0,.89.32.32,0,0,0,.15.21.44.44,0,0,0,.28.08,2,2,0,0,0,.66-.16L31.6,216a3.17,3.17,0,0,1-1.3.25,2,2,0,0,1-.8-.15,1.17,1.17,0,0,1-.53-.39,1.5,1.5,0,0,1-.23-.64,9,9,0,0,1,0-1.16v-2.71h-.76v-1.32h.76v-1.23l1.65-1v2.19Z"/><path d="M36.7,216.08v-.93a2.32,2.32,0,0,1-.89.78,2.53,2.53,0,0,1-1.17.29,2.19,2.19,0,0,1-1.12-.28,1.54,1.54,0,0,1-.72-.77,3.41,3.41,0,0,1-.23-1.38v-3.94h1.65v2.86a7.93,7.93,0,0,0,.09,1.61.85.85,0,0,0,.33.47,1,1,0,0,0,.61.17,1.29,1.29,0,0,0,.76-.23,1.13,1.13,0,0,0,.45-.57,6.2,6.2,0,0,0,.13-1.68v-2.63h1.64v6.23Z"/><path d="M41.51,216.08H39.87v-6.23H41.4v.89a2.71,2.71,0,0,1,.7-.83,1.34,1.34,0,0,1,.72-.2,2.16,2.16,0,0,1,1.08.31l-.51,1.44a1.46,1.46,0,0,0-.77-.27.91.91,0,0,0-.59.19,1.32,1.32,0,0,0-.38.69,9.88,9.88,0,0,0-.14,2.09Z"/><path d="M45.84,211.75l-1.5-.27a2.33,2.33,0,0,1,.87-1.33,3.17,3.17,0,0,1,1.83-.44,4,4,0,0,1,1.64.26,1.69,1.69,0,0,1,.76.67,3.31,3.31,0,0,1,.22,1.47l0,1.92a6.89,6.89,0,0,0,.08,1.21,3.29,3.29,0,0,0,.3.84H48.39a3.51,3.51,0,0,1-.16-.49l-.06-.19a2.87,2.87,0,0,1-.9.61,2.53,2.53,0,0,1-1,.21,2.14,2.14,0,0,1-1.51-.52,1.83,1.83,0,0,1-.3-2.26,1.61,1.61,0,0,1,.7-.64,6,6,0,0,1,1.31-.38A8.94,8.94,0,0,0,48,212v-.17a.86.86,0,0,0-.23-.67,1.38,1.38,0,0,0-.89-.21,1,1,0,0,0-1.08.78Zm2.2,1.34c-.21.07-.54.15-1,.25a2.88,2.88,0,0,0-.9.29.69.69,0,0,0-.32.58.83.83,0,0,0,.26.6.93.93,0,0,0,.66.25,1.37,1.37,0,0,0,.84-.3,1,1,0,0,0,.4-.54,3.48,3.48,0,0,0,.06-.8Z"/><path d="M51.28,216.08v-8.59h1.65v8.59Z"/><path d="M57.8,216.49l1.88.23a.65.65,0,0,0,.22.45,1.27,1.27,0,0,0,.73.17,1.91,1.91,0,0,0,1-.19.83.83,0,0,0,.33-.42A2.54,2.54,0,0,0,62,216v-.91a2.23,2.23,0,0,1-1.86,1,2.3,2.3,0,0,1-2-1.06,3.57,3.57,0,0,1-.58-2.09,3.44,3.44,0,0,1,.75-2.39,2.46,2.46,0,0,1,1.88-.83,2.27,2.27,0,0,1,1.9,1v-.88h1.54v5.59a5.57,5.57,0,0,1-.18,1.64,2,2,0,0,1-.51.86,2.25,2.25,0,0,1-.88.49,4.8,4.8,0,0,1-1.38.17,3.62,3.62,0,0,1-2.25-.54,1.7,1.7,0,0,1-.66-1.37A1.48,1.48,0,0,1,57.8,216.49Zm1.47-3.65a2.29,2.29,0,0,0,.38,1.45,1.21,1.21,0,0,0,1,.46,1.33,1.33,0,0,0,1-.47,2.05,2.05,0,0,0,.41-1.4,2.21,2.21,0,0,0-.39-1.44,1.29,1.29,0,0,0-1-.47,1.24,1.24,0,0,0-1,.46A2.22,2.22,0,0,0,59.27,212.84Z"/><path d="M66.51,211.75,65,211.48a2.27,2.27,0,0,1,.86-1.33,3.17,3.17,0,0,1,1.83-.44,4,4,0,0,1,1.64.26,1.69,1.69,0,0,1,.76.67,3.31,3.31,0,0,1,.22,1.47l0,1.92a6.89,6.89,0,0,0,.08,1.21,3.72,3.72,0,0,0,.3.84H69.06c0-.11-.1-.27-.16-.49l-.06-.19a2.87,2.87,0,0,1-.9.61,2.52,2.52,0,0,1-1,.21,2.15,2.15,0,0,1-1.52-.52,1.87,1.87,0,0,1-.3-2.26,1.67,1.67,0,0,1,.7-.64,6,6,0,0,1,1.31-.38,8.94,8.94,0,0,0,1.6-.4v-.17a.83.83,0,0,0-.23-.67,1.38,1.38,0,0,0-.89-.21,1.12,1.12,0,0,0-.68.18A1.17,1.17,0,0,0,66.51,211.75Zm2.2,1.34c-.21.07-.54.15-1,.25a2.79,2.79,0,0,0-.89.29.67.67,0,0,0-.33.58.83.83,0,0,0,.26.6.93.93,0,0,0,.66.25,1.42,1.42,0,0,0,.85-.3,1,1,0,0,0,.39-.54,3.48,3.48,0,0,0,.06-.8Z"/><path d="M71.37,214.3l1.66-.25a1.24,1.24,0,0,0,.42.73,1.45,1.45,0,0,0,.91.25,1.62,1.62,0,0,0,1-.24.52.52,0,0,0,.21-.44.44.44,0,0,0-.11-.31,1.44,1.44,0,0,0-.55-.21,8.87,8.87,0,0,1-2.53-.81,1.6,1.6,0,0,1-.74-1.4,1.75,1.75,0,0,1,.64-1.36,3,3,0,0,1,2-.55,3.43,3.43,0,0,1,1.9.42,2.19,2.19,0,0,1,.86,1.23l-1.56.29a.93.93,0,0,0-.38-.56,1.36,1.36,0,0,0-.79-.19,1.81,1.81,0,0,0-.93.18.39.39,0,0,0-.19.33.36.36,0,0,0,.17.3,5.67,5.67,0,0,0,1.53.46,4.58,4.58,0,0,1,1.84.74,1.53,1.53,0,0,1,.52,1.22,1.87,1.87,0,0,1-.72,1.47,3.14,3.14,0,0,1-2.11.62,3.46,3.46,0,0,1-2-.52A2.42,2.42,0,0,1,71.37,214.3Z"/><path d="M81.38,214.3l1.65-.25a1.25,1.25,0,0,0,.43.73,1.44,1.44,0,0,0,.9.25,1.63,1.63,0,0,0,1-.24.52.52,0,0,0,.21-.44.45.45,0,0,0-.12-.31,1.31,1.31,0,0,0-.55-.21,8.76,8.76,0,0,1-2.52-.81,1.6,1.6,0,0,1-.74-1.4,1.72,1.72,0,0,1,.64-1.36,3,3,0,0,1,2-.55,3.45,3.45,0,0,1,1.9.42,2.13,2.13,0,0,1,.85,1.23l-1.55.29a1,1,0,0,0-.38-.56,1.36,1.36,0,0,0-.79-.19,1.79,1.79,0,0,0-.93.18.39.39,0,0,0-.19.33.35.35,0,0,0,.16.3,5.8,5.8,0,0,0,1.54.46,4.58,4.58,0,0,1,1.84.74,1.52,1.52,0,0,1,.51,1.22,1.86,1.86,0,0,1-.71,1.47,3.17,3.17,0,0,1-2.12.62,3.44,3.44,0,0,1-2-.52A2.37,2.37,0,0,1,81.38,214.3Z"/><path d="M92.73,216.08v-.93a2.4,2.4,0,0,1-.89.78,2.53,2.53,0,0,1-1.17.29,2.26,2.26,0,0,1-1.13-.28,1.63,1.63,0,0,1-.72-.77,3.43,3.43,0,0,1-.22-1.38v-3.94h1.65v2.86a7.93,7.93,0,0,0,.09,1.61.85.85,0,0,0,.33.47,1,1,0,0,0,.61.17,1.23,1.23,0,0,0,.75-.23,1.1,1.1,0,0,0,.46-.57,6.85,6.85,0,0,0,.12-1.68v-2.63h1.65v6.23Z"/><path d="M95.92,209.85h1.53v.92a2.28,2.28,0,0,1,.81-.76,2.2,2.2,0,0,1,1.13-.3,2.38,2.38,0,0,1,1.84.85,3.43,3.43,0,0,1,.76,2.37,3.51,3.51,0,0,1-.76,2.42,2.38,2.38,0,0,1-1.85.87,2.05,2.05,0,0,1-.93-.21,2.93,2.93,0,0,1-.88-.7v3.13H95.92Zm1.63,3a2.43,2.43,0,0,0,.41,1.55,1.3,1.3,0,0,0,1,.5,1.17,1.17,0,0,0,1-.46,2.34,2.34,0,0,0,.38-1.51,2.26,2.26,0,0,0-.39-1.45,1.21,1.21,0,0,0-1-.48,1.26,1.26,0,0,0-1,.47A2,2,0,0,0,97.55,212.86Z"/><path d="M103.25,209.85h1.53v.92a2.28,2.28,0,0,1,.81-.76,2.2,2.2,0,0,1,1.13-.3,2.38,2.38,0,0,1,1.84.85,3.43,3.43,0,0,1,.76,2.37,3.51,3.51,0,0,1-.76,2.42,2.38,2.38,0,0,1-1.85.87,2.05,2.05,0,0,1-.93-.21,2.93,2.93,0,0,1-.88-.7v3.13h-1.65Zm1.63,3a2.43,2.43,0,0,0,.41,1.55,1.3,1.3,0,0,0,1,.5,1.17,1.17,0,0,0,1-.46,2.34,2.34,0,0,0,.38-1.51,2.26,2.26,0,0,0-.39-1.45,1.2,1.2,0,0,0-1-.48,1.26,1.26,0,0,0-1,.47A2,2,0,0,0,104.88,212.86Z"/><path d="M110.63,216.08v-8.59h1.64v8.59Z"/><path d="M113.18,209.85h1.75l1.49,4.42,1.45-4.42h1.71l-2.2,6-.39,1.09a4.91,4.91,0,0,1-.41.83,1.8,1.8,0,0,1-.45.46,1.83,1.83,0,0,1-.63.28,3.12,3.12,0,0,1-.84.1,4.08,4.08,0,0,1-.93-.1l-.15-1.29a3.76,3.76,0,0,0,.7.08,1,1,0,0,0,.85-.34,2.38,2.38,0,0,0,.42-.86Z"/><path d="M120.63,216.08v-1.65h1.65v1.65Z"/></svg>