<svg xmlns="http://www.w3.org/2000/svg" viewBox="0 0 277.77 390.06"><defs><style>.cls-1,.cls-6{fill:none;stroke:#000;}.cls-1{stroke-width:1.5px;}.cls-2{font-size:12px;}.cls-2,.cls-9{font-family:Arial-BoldMT, Arial;font-weight:700;}.cls-3{letter-spacing:-0.06em;}.cls-4{letter-spacing:-0.07em;}.cls-5{letter-spacing:-0.02em;}.cls-7{letter-spacing:0.04em;}.cls-8{letter-spacing:-0.04em;}.cls-9{font-size:16px;}</style></defs><title>wrnng_smell_gas</title><g id="vector_label_frames" data-name="vector label frames"><rect class="cls-1" x="0.75" y="0.75" width="276.27" height="388.56"/><rect class="cls-1" x="9.55" y="11.51" width="257.89" height="76.55"/></g><g id="text"><text class="cls-2" transform="translate(21.52 32.83)"><tspan class="cls-3">W</tspan><tspan x="10.66" y="0" xml:space="preserve">ARNING:  If   the information   in   these</tspan><tspan x="0" y="14.4">instructions is not followed exactl</tspan><tspan class="cls-4" x="193.36" y="14.4">y</tspan><tspan x="199.14" y="14.4">, a fire</tspan><tspan x="0" y="28.8">or explosion may result causing property</tspan><tspan x="0" y="43.2">damage, personal injury or death.</tspan></text><text class="cls-2" transform="translate(32.97 110.17)"><tspan xml:space="preserve">Do  not store  or  use  gasoline  or other</tspan><tspan x="0" y="14.4" xml:space="preserve">flammable   vapors  and  liquids   in  the</tspan><tspan x="0" y="28.8">vicinity of this or any other appliance.</tspan></text><text class="cls-2" transform="translate(32.97 166.51)">WH<tspan class="cls-4" x="19.99" y="0">A</tspan><tspan x="27.77" y="0">T </tspan><tspan class="cls-5" x="38.43" y="0">T</tspan><tspan x="45.54" y="0">O DO IF</tspan><tspan class="cls-5" x="90.21" y="0"> </tspan><tspan x="93.33" y="0">YOU SMEL</tspan><tspan class="cls-5" x="156" y="0">L</tspan><tspan x="163.11" y="0" xml:space="preserve"> GAS:</tspan></text><line class="cls-6" x1="17.13" y1="107.38" x2="29.25" y2="107.38"/><line class="cls-6" x1="17.13" y1="163.5" x2="29.25" y2="163.5"/><text class="cls-2" transform="translate(39.47 190.32)">Do not try to light any appliance.</text><text class="cls-2" transform="translate(39.47 215.03)"><tspan xml:space="preserve">Do not  touch any electrical switch;  do</tspan><tspan x="0" y="14.4">not use any phone in your building.</tspan></text><text class="cls-2" transform="translate(39.47 252.75)"><tspan xml:space="preserve">Immediately   call   your   gas   supplier</tspan><tspan x="0" y="14.4" xml:space="preserve">from a  neighbo</tspan><tspan class="cls-7" x="90" y="14.4">r</tspan><tspan class="cls-8" x="95.12" y="14.4">’</tspan><tspan x="98" y="14.4" xml:space="preserve">s  phone.   Follow the</tspan><tspan x="0" y="28.8">gas supplie</tspan><tspan class="cls-7" x="66.02" y="28.8">r</tspan><tspan class="cls-8" x="71.13" y="28.8">’</tspan><tspan x="74.02" y="28.8">s instructions.</tspan></text><text class="cls-2" transform="translate(39.47 304.25)"><tspan xml:space="preserve">If you cannot  reach your  gas supplie</tspan><tspan class="cls-3" x="215.38" y="0">r</tspan><tspan x="219.39" y="0">,</tspan><tspan x="0" y="14.4">call the fire department.</tspan></text><text class="cls-2" transform="translate(35.38 346.82)"><tspan xml:space="preserve">Installation     and    service    must    be</tspan><tspan x="0" y="14.4" xml:space="preserve">performed   by   a    qualified    installe</tspan><tspan class="cls-3" x="217.38" y="14.4">r</tspan><tspan x="221.39" y="14.4">,</tspan><tspan x="0" y="28.8">service agency or the gas supplie</tspan><tspan class="cls-3" x="192.08" y="28.8">r</tspan><tspan x="196.09" y="28.8">.</tspan></text><text class="cls-9" transform="translate(29.25 192.17)">•</text><text class="cls-9" transform="translate(29.25 216.84)">•</text><text class="cls-9" transform="translate(29.25 254.17)">•</text><text class="cls-9" transform="translate(29.25 306.01)">•</text><line class="cls-6" x1="18.67" y1="344.17" x2="30.75" y2="344.17"/></g></svg>