<svg id="Layer_1" data-name="Layer 1" xmlns="http://www.w3.org/2000/svg" viewBox="0 0 274.33 254.56"><defs><style>.cls-1,.cls-3,.cls-30{fill:none;}.cls-1,.cls-30{stroke:#010101;}.cls-2,.cls-4{fill:#010101;}.cls-4{font-size:12px;}.cls-26,.cls-4{font-family:Arial-BoldMT, Arial;font-weight:700;}.cls-5{letter-spacing:-0.09em;}.cls-6{letter-spacing:-0.02em;}.cls-7{font-size:10px;}.cls-8{letter-spacing:-0.06em;}.cls-9{letter-spacing:-0.07em;}.cls-10{letter-spacing:0.39em;}.cls-11{letter-spacing:0.3em;}.cls-12{letter-spacing:0.39em;}.cls-13{letter-spacing:0.39em;}.cls-14{letter-spacing:0.19em;}.cls-15{letter-spacing:0.26em;}.cls-16{letter-spacing:0.26em;}.cls-17{letter-spacing:0.33em;}.cls-18{letter-spacing:0.33em;}.cls-19{letter-spacing:0.33em;}.cls-20{letter-spacing:0.24em;}.cls-21{letter-spacing:-0.04em;}.cls-22{letter-spacing:-0.11em;}.cls-23{letter-spacing:-0.09em;}.cls-24{letter-spacing:3.32em;}.cls-25,.cls-26{fill:#fff;}.cls-26{font-size:24px;}.cls-27{letter-spacing:-0.05em;}.cls-28{font-size:8px;font-family:ArialMT, Arial;}.cls-28,.cls-29{fill:#231f20;}.cls-30{stroke-width:0.5px;}</style></defs><title>wrnng_glycol-posoning_hzrd_precautions_first_aid</title><rect class="cls-1" x="6.18" y="7.25" width="261.6" height="240.86"/><rect class="cls-2" x="5.83" y="7.06" width="261.89" height="26.07"/><rect class="cls-3" x="5.43" y="6.5" width="263.1" height="106.62"/><text class="cls-4" transform="translate(50.15 48.7)">G<tspan class="cls-5" x="9.33" y="0">L</tspan><tspan x="15.56" y="0">YCO</tspan><tspan class="cls-6" x="41.57" y="0">L</tspan><tspan x="48.68" y="0" xml:space="preserve"> POISONING HAZARD</tspan><tspan class="cls-7"><tspan x="-36.66" y="22">HARMFU</tspan><tspan class="cls-6" x="6.66" y="22">L</tspan><tspan x="12.59" y="22" xml:space="preserve"> OR </tspan><tspan class="cls-8" x="33.15" y="22">F</tspan><tspan class="cls-9" x="38.7" y="22">AT</tspan><tspan x="50.55" y="22">A</tspan><tspan class="cls-6" x="57.77" y="22">L</tspan><tspan x="63.7" y="22" xml:space="preserve"> IF S</tspan><tspan class="cls-8" x="84.81" y="22">W</tspan><tspan x="93.7" y="22">ALLOWED, HARMFU</tspan><tspan class="cls-6" x="193.13" y="22">L</tspan><tspan x="199.06" y="22" xml:space="preserve"> IF </tspan><tspan x="-36.66" y="34">INHALED</tspan><tspan class="cls-10" x="7.78" y="34"> </tspan><tspan x="14.42" y="34">OR</tspan><tspan class="cls-11" x="29.42" y="34"> </tspan><tspan x="35.18" y="34">ABSORBED</tspan><tspan class="cls-12" x="92.41" y="34"> </tspan><tspan x="99.05" y="34">THROUGH</tspan><tspan class="cls-13" x="149.6" y="34"> </tspan><tspan x="156.24" y="34">SKIN.</tspan><tspan class="cls-12" x="182.91" y="34"> </tspan><tspan x="189.56" y="34">M</tspan><tspan class="cls-5" x="197.89" y="34">A</tspan><tspan class="cls-6" x="204.19" y="34">Y</tspan><tspan x="210.68" y="34"> </tspan><tspan x="-36.66" y="46">CAUSE</tspan><tspan class="cls-14" x="-1.66" y="46"> </tspan><tspan x="3.01" y="46">ALLERGIC</tspan><tspan class="cls-15" x="54.12" y="46"> </tspan><tspan x="59.5" y="46">SKIN</tspan><tspan class="cls-16" x="83.4" y="46"> </tspan><tspan x="88.78" y="46">REACTION.</tspan><tspan class="cls-16" x="143.78" y="46"> </tspan><tspan x="149.17" y="46">M</tspan><tspan class="cls-5" x="157.5" y="46">A</tspan><tspan class="cls-6" x="163.8" y="46">Y</tspan><tspan class="cls-16" x="170.29" y="46"> </tspan><tspan x="175.68" y="46">CAUSE </tspan><tspan x="-36.66" y="58">IRRI</tspan><tspan class="cls-9" x="-16.66" y="58">TA</tspan><tspan x="-4.82" y="58">TION</tspan><tspan class="cls-17" x="19.07" y="58"> </tspan><tspan class="cls-6" x="25.1" y="58">T</tspan><tspan x="31.03" y="58">O</tspan><tspan class="cls-18" x="38.81" y="58"> </tspan><tspan x="44.84" y="58">SKIN,</tspan><tspan class="cls-19" x="71.51" y="58"> </tspan><tspan x="77.54" y="58">EYES,</tspan><tspan class="cls-20" x="107" y="58"> </tspan><tspan x="112.23" y="58">AND</tspan><tspan class="cls-17" x="133.89" y="58"> </tspan><tspan x="139.92" y="58">RESPIR</tspan><tspan class="cls-9" x="177.15" y="58">A</tspan><tspan class="cls-6" x="183.63" y="58">T</tspan><tspan x="189.56" y="58">O</tspan><tspan class="cls-21" x="197.34" y="58">R</tspan><tspan class="cls-6" x="204.19" y="58">Y</tspan><tspan x="210.68" y="58"> </tspan><tspan x="-36.66" y="70">TRAC</tspan><tspan class="cls-22" x="-8.89" y="70">T</tspan><tspan x="-3.89" y="70">. </tspan><tspan class="cls-21" x="1.67" y="70"> </tspan><tspan x="4.07" y="70">AFFECTS CENTRA</tspan><tspan class="cls-6" x="94.63" y="70">L</tspan><tspan x="100.55" y="70" xml:space="preserve"> NE</tspan><tspan class="cls-6" x="117.22" y="70">R</tspan><tspan x="124.27" y="70">VOUS SYSTEM.</tspan><tspan x="-36.66" y="92" xml:space="preserve">      Label Precautions:</tspan><tspan class="cls-23" x="69.48" y="92">	</tspan><tspan class="cls-24" x="71.34" y="92">	</tspan><tspan x="107.34" y="92">Label First</tspan><tspan class="cls-21" x="157.9" y="92"> </tspan><tspan x="160.31" y="92">Aid:</tspan></tspan></text><path class="cls-25" d="M79.05,13.05a1.23,1.23,0,0,0-1.2-.84,1.12,1.12,0,0,0-1.13.84l-8,13.84c-1.06,1.76-.15,2.47.91,2.54H86.11c1.13-.07,2-.78.91-2.54Z"/><path class="cls-2" d="M78.45,23.42a.54.54,0,0,1-.5.49h-.07a.48.48,0,0,1-.49-.49c-1.62-5.16-2.4-8.76.49-8.76S80,18.26,78.45,23.42Z"/><path class="cls-2" d="M77.88,29a1.55,1.55,0,1,1,0-3.1H78a1.55,1.55,0,0,1-.07,3.1Z"/><text class="cls-26" transform="translate(89.31 29.39)"><tspan class="cls-27">W</tspan><tspan x="21.36" y="0">ARNING</tspan></text><text class="cls-28" transform="translate(17.53 156.59)">Do not breathe vapor or mist.</text><path class="cls-29" d="M14.69,154.14a1.76,1.76,0,1,1-1.75-1.76A1.75,1.75,0,0,1,14.69,154.14Z"/><line class="cls-1" x1="6.18" y1="54.87" x2="267.78" y2="54.87"/><line class="cls-1" x1="6.18" y1="126.25" x2="267.78" y2="126.25"/><text class="cls-28" transform="translate(17.52 204.09)"><tspan class="cls-6">A</tspan><tspan x="5.19" y="0">void contact with eyes, skin </tspan><tspan x="0" y="8">and clothing.</tspan></text><path class="cls-29" d="M14.68,201.63a1.76,1.76,0,1,1-1.75-1.75A1.75,1.75,0,0,1,14.68,201.63Z"/><text class="cls-28" transform="translate(17.59 169.59)">Use only with adequate <tspan x="0" y="8">ventilation.</tspan></text><path class="cls-29" d="M14.75,167.14A1.76,1.76,0,1,1,13,165.38,1.75,1.75,0,0,1,14.75,167.14Z"/><text class="cls-28" transform="translate(17.39 190.92)">Keep container closed.</text><path class="cls-29" d="M14.55,188.47a1.76,1.76,0,1,1-1.76-1.76A1.75,1.75,0,0,1,14.55,188.47Z"/><text class="cls-28" transform="translate(17.59 225.38)"><tspan class="cls-21">W</tspan><tspan x="7.25" y="0">ash thoroughly after handling.</tspan></text><path class="cls-29" d="M14.75,222.93A1.76,1.76,0,1,1,13,221.17,1.76,1.76,0,0,1,14.75,222.93Z"/><text class="cls-28" transform="translate(140.49 156.58)">If inhaled, remove to fresh ai<tspan class="cls-8" x="100.94" y="0">r</tspan><tspan x="103.16" y="0">.</tspan></text><path class="cls-29" d="M137.65,154.13a1.76,1.76,0,1,1-1.75-1.76A1.75,1.75,0,0,1,137.65,154.13Z"/><text class="cls-28" transform="translate(140.53 169.82)">If not breathing, give artificial <tspan x="0" y="8">respiration.</tspan></text><path class="cls-29" d="M137.7,167.36a1.76,1.76,0,1,1-1.76-1.75A1.76,1.76,0,0,1,137.7,167.36Z"/><text class="cls-28" transform="translate(140.54 190.95)">If breathing is di<tspan class="cls-6" x="56.48" y="0">f</tspan><tspan x="58.55" y="0">ficult, give oxygen.</tspan></text><path class="cls-29" d="M137.7,188.5a1.76,1.76,0,1,1-1.76-1.76A1.75,1.75,0,0,1,137.7,188.5Z"/><text class="cls-28" transform="translate(140.49 204.08)">In case of contact, Immediately <tspan x="0" y="8">flush skin or eyes with plenty of </tspan><tspan x="0" y="16">water at least 15 minutes</tspan></text><path class="cls-29" d="M137.65,201.63a1.76,1.76,0,1,1-1.76-1.76A1.75,1.75,0,0,1,137.65,201.63Z"/><rect class="cls-30" x="0.25" y="0.25" width="273.83" height="254.06"/></svg>