<svg xmlns="http://www.w3.org/2000/svg" viewBox="0 0 239.27 133.21"><defs><style>.cls-1,.cls-10,.cls-11{fill:none;}.cls-1,.cls-10,.cls-11,.cls-12,.cls-2,.cls-8{stroke:#000;}.cls-12,.cls-13,.cls-3,.cls-9{fill:#fff;}.cls-4{font-size:8px;}.cls-4,.cls-5{font-family:ArialMT, Arial;}.cls-5{font-size:8.5px;}.cls-6{letter-spacing:-0.06em;}.cls-7{font-size:11px;font-family:Arial-BoldMT, Arial;font-weight:700;}.cls-11,.cls-8,.cls-9{stroke-width:0.5px;}.cls-13,.cls-9{stroke:#fff;}.cls-10,.cls-12,.cls-13{stroke-width:0.25px;}</style></defs><title>wrnng_brthng-hzrd_CO-gas_frm_frm_blckd_intke</title><g id="Layer_1" data-name="Layer 1"><rect class="cls-1" x="0.5" y="0.5" width="238.27" height="132.21"/><polyline points="0.02 27.25 239.08 27.25 239.08 0.42 0.02 0.42"/><line class="cls-2" x1="0.58" y1="43.19" x2="238.64" y2="43.19"/><line class="cls-2" x1="79.06" y1="111.36" x2="79.06" y2="43.79"/><line class="cls-2" x1="0.58" y1="111.36" x2="238.64" y2="111.36"/></g><g id="warning_logo_text" data-name="warning logo/text"><path class="cls-3" d="M175.85,16.77V14.23h6.39v6a8.15,8.15,0,0,1-2.7,1.63,9.62,9.62,0,0,1-3.58.7,7.88,7.88,0,0,1-4-1,6.27,6.27,0,0,1-2.57-2.84,9.29,9.29,0,0,1-.86-4,8.9,8.9,0,0,1,1-4.19,6.6,6.6,0,0,1,2.81-2.8A7.43,7.43,0,0,1,175.8,7a6.81,6.81,0,0,1,4.26,1.18,5.29,5.29,0,0,1,2,3.25L179.1,12a3.26,3.26,0,0,0-1.17-1.75,3.43,3.43,0,0,0-2.13-.64,4,4,0,0,0-3.09,1.26,5.41,5.41,0,0,0-1.15,3.75,6.06,6.06,0,0,0,1.16,4A3.86,3.86,0,0,0,175.77,20a5,5,0,0,0,1.86-.38,6.21,6.21,0,0,0,1.61-.91V16.77m-25,5.54V7.25h2.88l6,10.06V7.25h2.76V22.31h-3L157,12.49v9.82Zm-5.82,0V7.25h3V22.31Zm-14.69,0V7.25h2.89l6,10.06V7.25h2.76V22.31h-3l-5.91-9.82v9.82Zm-11.86-8.7h2.19a10.74,10.74,0,0,0,2.66-.18,1.54,1.54,0,0,0,.84-.64,2,2,0,0,0,.3-1.12,1.86,1.86,0,0,0-.4-1.23,1.73,1.73,0,0,0-1.12-.59c-.24,0-1,0-2.16,0h-2.31Zm-3,8.7V7.25h6.24a10.47,10.47,0,0,1,3.42.4,3.41,3.41,0,0,1,1.71,1.44,4.44,4.44,0,0,1,.64,2.38,4.13,4.13,0,0,1-1,2.8A4.66,4.66,0,0,1,127,15.66a6.75,6.75,0,0,1,1.59,1.26,18,18,0,0,1,1.69,2.45l1.79,2.94h-3.54L126.41,19a20.62,20.62,0,0,0-1.56-2.21,2.32,2.32,0,0,0-.89-.63,4.83,4.83,0,0,0-1.49-.17h-.6v6.29Zm-7-6-2-5.59-2,5.59Zm5.46,6H114.1l-1.29-3.42H107l-1.21,3.42h-3.15l5.72-15.06h3.14ZM88,22.31,84.44,7.25h3l2.22,10.34L92.37,7.25h3.52l2.58,10.52,2.25-10.52h3l-3.56,15.06H97L94.08,11.05,91.16,22.31ZM73.48,16a.55.55,0,0,1-.5.51h-.07a.5.5,0,0,1-.5-.51c-1.63-5.3-2.41-9,.5-9S75,10.67,73.48,16Zm-.57,5.75a1.6,1.6,0,0,1,0-3.2H73a1.6,1.6,0,0,1-.07,3.2Zm1.2-16.14a1.23,1.23,0,0,0-1.2-.88,1.14,1.14,0,0,0-1.14.88L63.7,19.83c-1.07,1.82-.15,2.54.92,2.62H81.2c1.13-.08,2-.8.92-2.62Z"/></g><g id="text"><text class="cls-4" transform="translate(96.18 52.84)">Do not obstruct water heater air intake.</text><text class="cls-4" transform="translate(96.18 70.34)">Gas and carbon monoxide detectors<tspan x="0" y="9.6">are available.</tspan></text><text class="cls-4" transform="translate(96.18 97.57)">Install water heater in accordance with<tspan x="0" y="9.6">the instruction manual.</tspan></text><path d="M91.64,49.85a1.76,1.76,0,1,1-1.76-1.75A1.76,1.76,0,0,1,91.64,49.85Z"/><path d="M91.63,67.14a1.76,1.76,0,1,1-1.75-1.76A1.75,1.75,0,0,1,91.63,67.14Z"/><path d="M91.63,94.4a1.76,1.76,0,1,1-1.75-1.76A1.75,1.75,0,0,1,91.63,94.4Z"/><text class="cls-5" transform="translate(13.65 119.75)">Breathing carbon monoxide can cause brain damage or<tspan x="0" y="10.2">death.</tspan><tspan class="cls-6" x="23.63" y="10.2"> </tspan><tspan x="25.52" y="10.2">Always read and understand instruction manual.</tspan></text><text class="cls-7" transform="translate(11.03 38.53)">Breathing Hazard - Carbon Monoxide Gas</text></g><g id="choking_man_icon" data-name="choking man icon"><path class="cls-8" d="M20.74,110.75l0-11.91L.71,107,.48,92C14.66,85.2,18.24,83.78,28.25,81.1c5.28-1.41,16.45-1.28,20.84.36,3.71,1.39,9.45,4,9.45,4l20,8.83s.06,15.46-.35,15.06S54.87,98.57,54.87,98.57v12.6"/><path class="cls-8" d="M26.26,64.62s-1.81,0-1.62-1c.23-1.27,8-9.59,8-9.59a8.11,8.11,0,0,1,5.54-2.52c5.69-.18,8.94,1.84,11.38,4.57,1,1.14,2.81,3.93,2.12,6.58-.43,1.62-2.22,5.14-3.85,8.88C46.53,74.58,45.16,78.4,43,79c-3,.84-9.27-2.71-15.62-5.59-2.86-1.3-2.11-3.87-1.49-5.46s2.08-3,.37-3.33Z"/><path class="cls-9" d="M34.27,60.12c-.18.78-.79,1.31-1.36,1.19a1.28,1.28,0,0,1-.72-1.64c.18-.78.79-1.31,1.37-1.19A1.29,1.29,0,0,1,34.27,60.12Z"/><path class="cls-10" d="M19,46.37c.48.92-.08,1.13.48.92s.56.13.6-.33.74-.3.05-.63A1,1,0,0,0,19,46.37Z"/><path class="cls-10" d="M15.08,46.37c.26,1.17-.35.8.21.59s.57.12.61-.34.73-.29,0-.63A.57.57,0,0,0,15.08,46.37Z"/><path class="cls-10" d="M16.73,51.09c-1.18-.38-.54-.7-.63-.12s-.4.41,0,.68-.11.76.54.35A.54.54,0,0,0,16.73,51.09Z"/><path class="cls-10" d="M10.16,50.38c-1.17-.37-.23-.55-.63-.11s-.59.41-.2.68,0,.53.69.12S10.16,50.38,10.16,50.38Z"/><path class="cls-10" d="M24.06,52.15c-.39,1.13-.57.22-.12.61s.42.57.7.2.55,0,.13-.67S24.06,52.15,24.06,52.15Z"/><path class="cls-10" d="M18.81,54.41c.43.92-.08,1.13.43.92s.51.13.55-.33.67-.3,0-.63A.86.86,0,0,0,18.81,54.41Z"/><path class="cls-10" d="M12.92,57.37c.47.92-.09,1.13.47.92s.56.13.61-.33.73-.3,0-.63A1,1,0,0,0,12.92,57.37Z"/><path class="cls-10" d="M8,56.44c1-.3,1.13.28,1-.3s.22-.51-.24-.63-.17-.76-.63-.15A1,1,0,0,0,8,56.44Z"/><path class="cls-10" d="M6.12,52.52c-1,.39-1.16-.17-1,.39s-.17.53.3.61.24.74.64.1A1,1,0,0,0,6.12,52.52Z"/><path class="cls-10" d="M7.39,57.77c.48.92-.09,1.13.48.92s.56.13.6-.33.74-.3,0-.63A1,1,0,0,0,7.39,57.77Z"/><path class="cls-10" d="M6.64,61.11c-.67.8-1.1.39-.67.8s.11.55.56.4.58.53.61-.22A1,1,0,0,0,6.64,61.11Z"/><path class="cls-10" d="M11,64.91c.48.92-.08,1.13.48.92s.56.13.6-.34.74-.29.05-.63A1,1,0,0,0,11,64.91Z"/><path class="cls-10" d="M11.25,69.48c-.74.74-1.13.3-.74.74s.07.56.53.44.53.58.62-.17A1,1,0,0,0,11.25,69.48Z"/><path class="cls-10" d="M13.14,73.35c.39.76-.07.93.39.76s.46.1.5-.27.6-.25,0-.52A.84.84,0,0,0,13.14,73.35Z"/><path class="cls-10" d="M13.37,75.72c.39.76-.07.93.39.76s.46.1.49-.28.61-.24,0-.52A.84.84,0,0,0,13.37,75.72Z"/><path class="cls-10" d="M13.71,53.74c-1.18-.38-.23-.56-.63-.12s-.6.41-.21.68.05.53.7.12S13.71,53.74,13.71,53.74Z"/><path class="cls-10" d="M17.08,60.75c-1.18-.38-.23-.56-.63-.12s-.59.41-.2.68,0,.53.69.12S17.08,60.75,17.08,60.75Z"/><path class="cls-10" d="M14.23,60.58c-1.18-.38-.24-.56-.63-.12s-.6.41-.21.68,0,.53.69.13S14.23,60.58,14.23,60.58Z"/><path class="cls-10" d="M24.91,56.93c-1.18-.38-.24-.56-.64-.12s-.59.41-.2.68,0,.53.69.12S24.91,56.93,24.91,56.93Z"/><path class="cls-10" d="M14.23,48.28c-1.18-.38-.24-.56-.63-.12s-.6.41-.21.68,0,.53.69.12S14.23,48.28,14.23,48.28Z"/><path class="cls-10" d="M9.25,61.33c-1.17-.37-.23-.55-.63-.11s-.59.4-.2.67,0,.54.69.13S9.25,61.33,9.25,61.33Z"/><path class="cls-11" d="M17,56.14c-1.17-.38-.23-.56-.63-.12s-.59.41-.2.68,0,.53.69.12S17,56.14,17,56.14Z"/><path class="cls-10" d="M4.15,56.14c-1.17-.38-.23-.56-.63-.12s-.59.41-.2.68,0,.53.69.12S4.15,56.14,4.15,56.14Z"/><path class="cls-10" d="M6.38,55.38c-.63.25-.74-.11-.63.25s-.11.34.19.39.15.48.41.07A.62.62,0,0,0,6.38,55.38Z"/><path class="cls-10" d="M13.77,50.86c-.63.25-.74-.11-.63.25s-.11.34.19.4.15.47.41.06A.62.62,0,0,0,13.77,50.86Z"/><path class="cls-11" d="M11.82,62.07c-1.18-.38-.23-.56-.63-.12s-.6.41-.21.68,0,.53.69.12S11.82,62.07,11.82,62.07Z"/><path class="cls-11" d="M3.69,60.51c-1.18-.38-.23-.55-.63-.11s-.59.4-.21.67,0,.54.7.13S3.69,60.51,3.69,60.51Z"/><path class="cls-10" d="M17.44,48.88c-1.18-.38-.23-.55-.63-.11s-.59.41-.21.68,0,.53.7.12S17.44,48.88,17.44,48.88Z"/><path class="cls-10" d="M10.69,54.17c-1.17-.37-.23-.55-.63-.11s-.59.4-.2.67,0,.54.69.13S10.69,54.17,10.69,54.17Z"/><path class="cls-10" d="M20.21,56.7c-.08-1.2.44-.42-.13-.61s-.61-.38-.72.07-.49.24.14.67S20.21,56.7,20.21,56.7Z"/><path class="cls-10" d="M18.1,59.6c.35-1.15.56-.24.1-.62s-.44-.55-.71-.17-.55.06-.1.68S18.1,59.6,18.1,59.6Z"/><path class="cls-10" d="M20.16,65.74c.34-1.16.56-.25.09-.62s-.44-.56-.7-.17-.55.06-.11.68S20.16,65.74,20.16,65.74Z"/><path class="cls-10" d="M14.88,68c.35-1.16.56-.25.1-.62s-.44-.56-.7-.17-.55.06-.11.67S14.88,68,14.88,68Z"/><path class="cls-11" d="M8.09,68.13c.35-1.15.57-.24.1-.61s-.44-.56-.7-.18-.55.07-.11.68S8.09,68.13,8.09,68.13Z"/><path class="cls-10" d="M3.1,67.06c.35-1.15.56-.24.1-.61s-.44-.56-.71-.17-.55.06-.1.67S3.1,67.06,3.1,67.06Z"/><path class="cls-10" d="M3.45,69.35c-.68.8-1.1.39-.68.8s.12.55.57.4.57.53.61-.22A1,1,0,0,0,3.45,69.35Z"/><path class="cls-11" d="M11.44,71.79c-.67.8-1.09.39-.67.8s.11.55.57.4.57.53.61-.23A1,1,0,0,0,11.44,71.79Z"/><path class="cls-10" d="M24.93,58.73c-.67.8-1.1.39-.67.8s.11.55.57.4.57.53.6-.22A1,1,0,0,0,24.93,58.73Z"/><path class="cls-10" d="M14.7,71.41c.35-1.15.57-.24.1-.61s-.44-.56-.7-.18-.55.06-.11.68S14.7,71.41,14.7,71.41Z"/><path class="cls-10" d="M16.83,69.08c.39.76-.07.93.39.76s.46.11.49-.27.61-.25,0-.52A.83.83,0,0,0,16.83,69.08Z"/><path class="cls-10" d="M7.71,69.71c.38.76-.08.94.38.76s.47.11.5-.27.6-.25,0-.52A.83.83,0,0,0,7.71,69.71Z"/><path class="cls-10" d="M5.72,72.44c.39.76-.07.93.39.76s.46.1.49-.27.6-.25,0-.52A.83.83,0,0,0,5.72,72.44Z"/><path class="cls-10" d="M9.26,73.64c.34-1.16.56-.25.09-.62s-.44-.56-.7-.17-.55.06-.1.67S9.26,73.64,9.26,73.64Z"/><path class="cls-11" d="M6.1,70.62c.35-1.16.56-.25.1-.62s-.44-.56-.71-.17-.55.06-.1.67S6.1,70.62,6.1,70.62Z"/><path class="cls-10" d="M7.05,65.12c.35-1.16.56-.25.1-.62s-.44-.56-.71-.17-.54.06-.1.67S7.05,65.12,7.05,65.12Z"/><path class="cls-10" d="M5.21,67.06c.38.76-.08.93.38.76s.46.1.5-.28.6-.24,0-.51A.83.83,0,0,0,5.21,67.06Z"/><path class="cls-10" d="M21.15,58.34c.33.79-.15.93.33.79s.45.14.51-.23.62-.2.08-.52A.84.84,0,0,0,21.15,58.34Z"/><path class="cls-10" d="M20.55,72.56c.39.76-.07.93.39.76s.46.1.5-.28.6-.24,0-.52A.85.85,0,0,0,20.55,72.56Z"/><path class="cls-11" d="M17.78,72.25c.34-1.15.56-.24.09-.61s-.44-.56-.7-.18-.55.06-.11.68S17.78,72.25,17.78,72.25Z"/><path class="cls-11" d="M23.53,71c.34-1.15.56-.24.09-.61s-.44-.56-.7-.17-.55.06-.11.67S23.53,71,23.53,71Z"/><path class="cls-10" d="M19,75.37c.39.76-.07.93.39.76s.46.11.49-.27.6-.24,0-.52A.83.83,0,0,0,19,75.37Z"/><path class="cls-10" d="M3.78,63.58c.39.76-.07.93.39.76s.46.1.49-.28.61-.24,0-.52A.84.84,0,0,0,3.78,63.58Z"/><path class="cls-10" d="M9.33,64.44c-.64.25-.75-.11-.64.25s-.11.34.19.39.15.48.41.06A.62.62,0,0,0,9.33,64.44Z"/><path class="cls-10" d="M22.81,67.93c-.63.24-.74-.12-.63.24s-.11.35.19.4.15.47.41.06A.6.6,0,0,0,22.81,67.93Z"/><path class="cls-10" d="M20.25,70.14c-.63.25-.74-.11-.63.25s-.11.34.19.39.16.48.41.06A.6.6,0,0,0,20.25,70.14Z"/><path class="cls-10" d="M17.11,73.76c-.64.25-.75-.11-.64.25s-.11.34.19.39.16.48.41.06A.62.62,0,0,0,17.11,73.76Z"/><path class="cls-10" d="M19,66.61c-1,.21-1.11-.37-1,.21s-.27.5.18.66.1.76.61.2A1,1,0,0,0,19,66.61Z"/><path class="cls-11" d="M7.1,51.37c1-.45,1.17.1,1-.45s.14-.54-.33-.59-.29-.72-.65,0A1,1,0,0,0,7.1,51.37Z"/><path class="cls-10" d="M8.86,53.07c-1.17-.38-.23-.55-.63-.12s-.59.41-.2.68,0,.54.69.13S8.86,53.07,8.86,53.07Z"/><path class="cls-10" d="M17.33,53.59c-1.18-.38-.24-.55-.64-.11s-.59.4-.2.67.05.54.69.13S17.33,53.59,17.33,53.59Z"/><path class="cls-11" d="M10.83,48.28c-.66,1-.61.09-.27.57s.27.65.63.35.55.08.29-.63S10.83,48.28,10.83,48.28Z"/><path class="cls-10" d="M12.68,45.64c-1.17-.38-.23-.55-.63-.12s-.59.41-.2.68,0,.54.69.13S12.68,45.64,12.68,45.64Z"/><path class="cls-10" d="M3.83,50.43c-.58,1.06-.6.13-.22.59s.31.63.65.3.55,0,.24-.64S3.83,50.43,3.83,50.43Z"/><path class="cls-10" d="M5.3,48.05c-1.09.57-.57-.21-.52.37.06.74-.1.7.36.61s.43.34.57-.4S5.3,48.05,5.3,48.05Z"/><path class="cls-10" d="M6,59.12c-1.17-.38-.23-.56-.63-.12s-.59.41-.2.68,0,.53.69.12S6,59.12,6,59.12Z"/><path class="cls-11" d="M3.8,53.32c-1-.63-.09-.59-.58-.25s-.68.26-.36.61-.09.53.64.28S3.8,53.32,3.8,53.32Z"/><path class="cls-10" d="M2.41,59.29c1.15-.44.55.28.56-.3,0-.74.18-.68-.29-.65s-.39-.38-.62.34S2.41,59.29,2.41,59.29Z"/><path class="cls-10" d="M12.28,67.86c-.1-1,.45-1-.1-1s-.44-.28-.63.14-.73.07-.25.59A.87.87,0,0,0,12.28,67.86Z"/><path class="cls-10" d="M10.84,58.31c-1.06.06-1-.53-1.06.06s-.34.45.08.67,0,.77.58.29A1,1,0,0,0,10.84,58.31Z"/><path class="cls-11" d="M12,56c-1.06.07-1-.52-1.06.07s-.34.45.08.67,0,.77.58.28A1,1,0,0,0,12,56Z"/><path class="cls-10" d="M10,46.64c-.64.25-.75-.11-.64.25s-.11.34.19.39.16.48.41.07A.63.63,0,0,0,10,46.64Z"/><path class="cls-10" d="M14.34,63.73c-.79-.93.11-.59-.47-.43-.74.21-.73,0-.55.47s-.26.47.52.46S14.34,63.73,14.34,63.73Z"/><path class="cls-11" d="M16.87,63.79c-1.06.06-1-.52-1.06.06s-.34.45.08.67,0,.77.58.29A1,1,0,0,0,16.87,63.79Z"/><path class="cls-10" d="M19.32,62.22c-.64.25-.75-.11-.64.25s-.11.34.19.4.16.47.41.06A.63.63,0,0,0,19.32,62.22Z"/><path class="cls-10" d="M20.62,61.23c-.08-1.2.45-.41-.12-.61s-.61-.38-.72.07-.5.24.13.67S20.62,61.23,20.62,61.23Z"/><path class="cls-11" d="M21.48,62.36c1.21-.24.48.37.61-.2s.3-.64-.17-.69-.31-.44-.67.22S21.48,62.36,21.48,62.36Z"/><path class="cls-10" d="M22.72,62.53c.33.79-.15.92.33.79s.45.14.51-.24.62-.19.08-.51A.84.84,0,0,0,22.72,62.53Z"/><path class="cls-10" d="M21.78,65c.32.79-.16.92.32.79s.45.14.52-.24.62-.19.08-.51A.84.84,0,0,0,21.78,65Z"/><path class="cls-10" d="M25.13,66.57c-.79-.93.11-.59-.47-.43-.73.21-.73,0-.55.47s-.26.47.52.47S25.13,66.57,25.13,66.57Z"/><path class="cls-10" d="M24.48,72.74c-.64.25-.74-.11-.64.25s-.11.34.2.39.15.48.41.06A.6.6,0,0,0,24.48,72.74Z"/><path class="cls-10" d="M28.09,52.2c-.64.25-.74-.12-.64.25s-.11.34.19.39.16.48.42.06A.6.6,0,0,0,28.09,52.2Z"/><path class="cls-10" d="M27.14,54.7c-.63.24-.74-.12-.63.24s-.12.35.19.4.15.47.41.06A.6.6,0,0,0,27.14,54.7Z"/><path class="cls-11" d="M29.57,54.35c-1.18-.38-.23-.55-.63-.12s-.59.41-.2.68,0,.54.69.13S29.57,54.35,29.57,54.35Z"/><path class="cls-10" d="M27.77,57.16c-1.17-.37-.23-.55-.63-.11s-.59.4-.2.67,0,.54.69.13S27.77,57.16,27.77,57.16Z"/><path class="cls-10" d="M25.87,48.48c-1.17-.38-.23-.55-.63-.12s-.59.41-.2.68,0,.54.69.13S25.87,48.48,25.87,48.48Z"/><path class="cls-10" d="M26.49,50.73c-.64.24-.75-.12-.64.24s-.11.35.19.4.16.47.42.06A.63.63,0,0,0,26.49,50.73Z"/><path class="cls-10" d="M23.74,46.32c-1.18-.38-.54-.7-.63-.12s-.4.41,0,.68-.11.76.54.35A.54.54,0,0,0,23.74,46.32Z"/><path class="cls-10" d="M22.42,55.13c-.17-1.19.4-.77-.17-.6s-.55-.17-.63.29-.76.24-.1.62A.57.57,0,0,0,22.42,55.13Z"/><path class="cls-10" d="M20.27,51c-1.17-.38-.23-.56-.63-.12s-.59.41-.2.68,0,.53.69.12S20.27,51,20.27,51Z"/><path class="cls-10" d="M23.91,49.8c-1.16-.4-.52-.71-.62-.13s-.41.4,0,.68-.13.76.53.36A.54.54,0,0,0,23.91,49.8Z"/><path class="cls-11" d="M22.18,51.85c-1.17-.37-.53-.69-.63-.11s-.39.4,0,.67-.12.77.53.36A.55.55,0,0,0,22.18,51.85Z"/><path class="cls-10" d="M20,48.9c-1.18-.38-.53-.7-.63-.12s-.4.41,0,.68-.11.76.54.35A.54.54,0,0,0,20,48.9Z"/><path class="cls-10" d="M22.79,48c-.64.24-.75-.12-.64.24s-.11.35.19.4.16.47.42.06A.6.6,0,0,0,22.79,48Z"/><path class="cls-10" d="M61.28,48.47c.48.93-.08,1.14.48.93s.56.12.61-.34.73-.29,0-.63A1.06,1.06,0,0,0,61.28,48.47Z"/><path class="cls-11" d="M58,48c.26,1.17-.34.8.22.59s.56.12.6-.34.74-.29.05-.63A.57.57,0,0,0,58,48Z"/><path class="cls-10" d="M61.36,52.18c-1.18-.38-.53-.69-.63-.12s-.4.41,0,.68-.11.77.54.36A.55.55,0,0,0,61.36,52.18Z"/><path class="cls-10" d="M53.61,51.3c-1.17-.37-.23-.55-.63-.11s-.59.41-.2.67,0,.54.69.13S53.61,51.3,53.61,51.3Z"/><path class="cls-10" d="M67.56,52.71c-.4,1.14-.57.22-.13.61s.42.58.7.2.55,0,.13-.67S67.56,52.71,67.56,52.71Z"/><path class="cls-11" d="M65.53,55.82c.43.92-.08,1.13.43.92s.51.12.55-.34.67-.29,0-.63A.87.87,0,0,0,65.53,55.82Z"/><path class="cls-10" d="M62.05,59.35c.48.92-.09,1.13.48.92s.56.13.6-.34.74-.29,0-.62A1,1,0,0,0,62.05,59.35Z"/><path class="cls-10" d="M55.77,56.65c1-.29,1.14.28,1-.29s.23-.52-.24-.64-.17-.75-.63-.15A.94.94,0,0,0,55.77,56.65Z"/><path class="cls-10" d="M49.57,53.44c-1,.39-1.16-.17-1,.39s-.17.53.3.61.24.73.64.09A1,1,0,0,0,49.57,53.44Z"/><path class="cls-10" d="M52.34,57.05c.48.93-.09,1.14.48.93s.56.12.6-.34.74-.29,0-.63A1.05,1.05,0,0,0,52.34,57.05Z"/><path class="cls-11" d="M53.27,63.14c-.67.8-1.1.38-.67.8s.11.54.56.39.58.53.61-.22A1,1,0,0,0,53.27,63.14Z"/><path class="cls-10" d="M56.34,66.53c.47.92-.09,1.13.47.92s.56.13.61-.33.73-.3,0-.63A1,1,0,0,0,56.34,66.53Z"/><path class="cls-10" d="M53.06,70.26c-.74.75-1.13.3-.74.75s.07.55.53.44.53.57.63-.17A1,1,0,0,0,53.06,70.26Z"/><path class="cls-11" d="M52.32,72.37c.39.76-.07.93.39.76s.45.11.49-.27.6-.25,0-.52A.83.83,0,0,0,52.32,72.37Z"/><path class="cls-10" d="M58.32,74.29c.39.76-.07.94.39.76s.46.11.49-.27.61-.25,0-.52A.83.83,0,0,0,58.32,74.29Z"/><path class="cls-11" d="M59.93,54.3c-1.17-.38-.23-.55-.63-.12s-.59.41-.2.68,0,.54.69.13S59.93,54.3,59.93,54.3Z"/><path class="cls-10" d="M61.71,61.36c-1.17-.38-.23-.56-.63-.12s-.59.41-.2.68,0,.53.69.12S61.71,61.36,61.71,61.36Z"/><path class="cls-10" d="M59,65.47c-1.17-.38-.23-.55-.63-.12s-.59.41-.2.68,0,.54.69.13S59,65.47,59,65.47Z"/><path class="cls-10" d="M73.59,58.07c-1.18-.38-.23-.55-.63-.12s-.59.41-.2.68,0,.54.69.13S73.59,58.07,73.59,58.07Z"/><path class="cls-10" d="M57.31,48.84c-1.17-.37-.23-.55-.63-.11s-.59.4-.2.67,0,.54.69.13S57.31,48.84,57.31,48.84Z"/><path class="cls-10" d="M55.39,61.59c-1.18-.38-.23-.55-.64-.12s-.59.41-.2.68.05.54.69.13S55.39,61.59,55.39,61.59Z"/><path class="cls-10" d="M60.71,58.38c-1.17-.38-.23-.55-.63-.12s-.59.41-.2.68,0,.53.69.13S60.71,58.38,60.71,58.38Z"/><path class="cls-10" d="M56.06,51.18c-1.18-.38-.23-.55-.63-.11s-.59.4-.2.67,0,.54.69.13S56.06,51.18,56.06,51.18Z"/><path class="cls-10" d="M52.29,55.42c-.64.25-.75-.12-.64.25s-.11.34.19.39.16.47.42.06A.63.63,0,0,0,52.29,55.42Z"/><path class="cls-10" d="M58.45,52.18c-.63.25-.74-.11-.63.25s-.12.34.18.39.16.48.42.06A.6.6,0,0,0,58.45,52.18Z"/><path class="cls-11" d="M63.77,65.28c-1.18-.38-.23-.55-.63-.12s-.59.41-.2.68,0,.54.69.13S63.77,65.28,63.77,65.28Z"/><path class="cls-10" d="M56.91,53.62c-1.17-.38-.23-.56-.63-.12s-.59.41-.2.68,0,.53.69.12S56.91,53.62,56.91,53.62Z"/><path class="cls-10" d="M60.31,49.64c-1.17-.38-.23-.56-.63-.12s-.59.41-.2.68,0,.53.69.12S60.31,49.64,60.31,49.64Z"/><path class="cls-10" d="M54.51,53.72c-1.18-.37-.23-.55-.64-.11s-.59.4-.2.67,0,.54.69.13S54.51,53.72,54.51,53.72Z"/><path class="cls-10" d="M64.93,58.28c-.08-1.2.44-.42-.12-.61-.72-.25-.61-.38-.73.07s-.49.24.14.67S64.93,58.28,64.93,58.28Z"/><path class="cls-10" d="M64.23,61.93c.35-1.15.56-.24.1-.61s-.44-.56-.7-.18-.55.07-.11.68S64.23,61.93,64.23,61.93Z"/><path class="cls-11" d="M69.15,72.53c.35-1.15.57-.25.1-.62s-.44-.56-.7-.17-.55.06-.11.68S69.15,72.53,69.15,72.53Z"/><path class="cls-10" d="M59.33,69c.35-1.16.56-.25.1-.62s-.44-.56-.71-.17-.54.06-.1.67S59.33,69,59.33,69Z"/><path class="cls-10" d="M51.86,68.43c.35-1.15.56-.24.1-.62s-.44-.55-.71-.17-.54.06-.1.68S51.86,68.43,51.86,68.43Z"/><path class="cls-10" d="M55.76,71.87c-.67.8-1.1.38-.67.8s.11.54.56.39.58.53.61-.22A1,1,0,0,0,55.76,71.87Z"/><path class="cls-10" d="M67.78,59.1c-.67.8-1.1.39-.67.8s.11.55.56.4.58.53.61-.22A1,1,0,0,0,67.78,59.1Z"/><path class="cls-10" d="M57.24,71.32c.35-1.15.56-.24.1-.62s-.44-.56-.71-.17-.54.06-.1.68S57.24,71.32,57.24,71.32Z"/><path class="cls-10" d="M59.46,70.58c.39.75-.07.93.39.75s.46.11.49-.27.61-.24,0-.52A.82.82,0,0,0,59.46,70.58Z"/><path class="cls-10" d="M55.19,65.19c.39.76-.07.94.39.76s.46.11.49-.27.6-.24,0-.52A.83.83,0,0,0,55.19,65.19Z"/><path class="cls-10" d="M53.21,68.59c.39.76-.07.93.39.76s.46.11.5-.27.6-.25,0-.52A.84.84,0,0,0,53.21,68.59Z"/><path class="cls-10" d="M65.58,68.6c.34-1.16.56-.25.09-.62s-.44-.56-.7-.17-.55.06-.11.67S65.58,68.6,65.58,68.6Z"/><path class="cls-10" d="M50.28,71.89c.34-1.16.56-.25.1-.62s-.45-.56-.71-.17-.55.06-.1.67S50.28,71.89,50.28,71.89Z"/><path class="cls-10" d="M55.69,63.92c.34-1.16.56-.25.09-.62s-.44-.56-.7-.17-.55.06-.11.67S55.69,63.92,55.69,63.92Z"/><path class="cls-11" d="M72.47,62.53c.32.79-.15.92.32.79s.45.14.52-.24.62-.19.08-.51A.84.84,0,0,0,72.47,62.53Z"/><path class="cls-10" d="M65.46,72.52c.39.76-.07.93.39.76s.46.11.5-.27.6-.25,0-.52A.84.84,0,0,0,65.46,72.52Z"/><path class="cls-11" d="M60.36,73.57c.35-1.16.56-.24.1-.62s-.44-.56-.71-.17-.55.06-.1.68S60.36,73.57,60.36,73.57Z"/><path class="cls-10" d="M70.8,71.07c.34-1.15.56-.24.09-.62s-.44-.55-.7-.17-.55.06-.11.68S70.8,71.07,70.8,71.07Z"/><path class="cls-10" d="M63.42,74.84c.39.75-.07.93.39.75s.46.11.49-.27.61-.24,0-.52A.82.82,0,0,0,63.42,74.84Z"/><path class="cls-11" d="M57.46,60c.39.76-.07.93.39.76s.46.1.49-.28.61-.24,0-.51A.83.83,0,0,0,57.46,60Z"/><path class="cls-10" d="M53.18,65.49c-.63.25-.74-.11-.63.25s-.12.34.19.4.15.47.41.06A.62.62,0,0,0,53.18,65.49Z"/><path class="cls-10" d="M66.54,70.34c-.64.25-.75-.11-.64.25s-.11.35.19.4.16.47.41.06A.63.63,0,0,0,66.54,70.34Z"/><path class="cls-10" d="M63.43,71.5c-.63.25-.74-.11-.63.25s-.12.34.19.39.15.48.41.06A.6.6,0,0,0,63.43,71.5Z"/><path class="cls-10" d="M68.56,68.72c-.64.25-.75-.11-.64.25s-.11.34.19.39.16.47.42.06A.6.6,0,0,0,68.56,68.72Z"/><path class="cls-10" d="M63.43,69.25c-1,.21-1.11-.37-1,.21s-.27.5.18.66.1.76.61.2A1,1,0,0,0,63.43,69.25Z"/><path class="cls-10" d="M50.55,52.29c1-.45,1.17.1,1-.45s.14-.54-.33-.59-.29-.72-.65-.06A1,1,0,0,0,50.55,52.29Z"/><path class="cls-11" d="M52.22,53.59c-1.17-.37-.23-.55-.63-.11s-.59.4-.2.67,0,.54.69.13S52.22,53.59,52.22,53.59Z"/><path class="cls-10" d="M63.69,55.53c-1.18-.38-.24-.56-.64-.12s-.59.41-.2.68,0,.53.69.12S63.69,55.53,63.69,55.53Z"/><path class="cls-10" d="M53.75,48.77c-.65,1-.61.09-.26.57s.27.65.63.35.55.08.29-.62S53.75,48.77,53.75,48.77Z"/><path class="cls-10" d="M55.68,47c-1.18-.38-.23-.55-.63-.11s-.6.4-.21.67,0,.54.69.13S55.68,47,55.68,47Z"/><path class="cls-10" d="M46.37,51c-.58,1.06-.6.13-.22.59s.31.63.65.3.55,0,.24-.64S46.37,51,46.37,51Z"/><path class="cls-10" d="M49.2,49.24c-1.09.56-.57-.22-.52.36.07.74-.1.7.37.61s.43.34.57-.4S49.2,49.24,49.2,49.24Z"/><path class="cls-10" d="M59.17,61.78c-1.17-.38-.23-.56-.63-.12s-.59.41-.2.68,0,.53.69.13S59.17,61.78,59.17,61.78Z"/><path class="cls-10" d="M49.62,51.59c-1.06-.63-.1-.59-.59-.25s-.67.26-.36.61-.09.53.64.28S49.62,51.59,49.62,51.59Z"/><path class="cls-11" d="M56.32,69c-.1-1,.45-1-.1-1s-.44-.28-.63.14-.73.07-.25.59A.87.87,0,0,0,56.32,69Z"/><path class="cls-10" d="M54,60.15c-1.06.06-1-.52-1.06.06s-.34.46.08.68,0,.77.58.28A1,1,0,0,0,54,60.15Z"/><path class="cls-10" d="M56.39,58.8c-1.07.06-1-.53-1.07.06s-.33.45.09.67,0,.77.57.29A1,1,0,0,0,56.39,58.8Z"/><path class="cls-10" d="M52.15,47.52c-.64.24-.75-.12-.64.24s-.11.35.19.4.16.47.41.06A.62.62,0,0,0,52.15,47.52Z"/><path class="cls-10" d="M61.83,66.68c-.78-.93.11-.59-.47-.43s-.72,0-.54.47-.26.47.51.46S61.83,66.68,61.83,66.68Z"/><path class="cls-10" d="M60,63.29c-1.06.07-1-.52-1.06.07s-.34.45.08.67,0,.77.58.28A1,1,0,0,0,60,63.29Z"/><path class="cls-10" d="M70.45,64c-.63.24-.74-.12-.63.24s-.12.35.19.4.15.47.41.06A.6.6,0,0,0,70.45,64Z"/><path class="cls-10" d="M68.26,63.48c-.08-1.2.44-.42-.13-.61s-.61-.39-.72.07-.5.24.14.67S68.26,63.48,68.26,63.48Z"/><path class="cls-10" d="M65.2,63.81c1.21-.24.48.37.61-.2.16-.73.31-.64-.17-.69s-.31-.44-.67.22S65.2,63.81,65.2,63.81Z"/><path class="cls-10" d="M72,65.57c.33.78-.15.92.33.78s.45.14.51-.23.62-.19.08-.51A.84.84,0,0,0,72,65.57Z"/><path class="cls-10" d="M65.3,66c.33.79-.15.93.33.79s.45.14.51-.23.62-.19.08-.52A.84.84,0,0,0,65.3,66Z"/><path class="cls-10" d="M70.3,67.53c-.78-.93.11-.59-.47-.42-.73.2-.72,0-.54.46s-.26.48.52.47S70.3,67.53,70.3,67.53Z"/><path class="cls-10" d="M67.93,73.66c-.64.25-.75-.11-.64.25s-.11.34.19.39.16.48.42.06A.6.6,0,0,0,67.93,73.66Z"/><path class="cls-11" d="M70.81,54.22c-.63.25-.74-.11-.63.25s-.12.34.19.39.15.48.41.06A.6.6,0,0,0,70.81,54.22Z"/><path class="cls-10" d="M70.86,56.32c-.63.25-.74-.11-.63.25s-.11.34.19.39.15.48.41.06A.6.6,0,0,0,70.86,56.32Z"/><path class="cls-10" d="M73,55.27c-1.18-.38-.23-.55-.63-.12s-.59.41-.2.68,0,.54.69.13S73,55.27,73,55.27Z"/><path class="cls-10" d="M71.54,59.45c-1.17-.38-.23-.55-.63-.12s-.59.41-.2.68,0,.54.69.13S71.54,59.45,71.54,59.45Z"/><path class="cls-10" d="M59.13,57c-1.17-.38-.23-.55-.63-.12s-.59.41-.2.68,0,.54.69.13S59.13,57,59.13,57Z"/><path class="cls-10" d="M70.16,50.89c-.64.25-.75-.11-.64.25s-.11.34.19.39.15.48.41.06A.62.62,0,0,0,70.16,50.89Z"/><path class="cls-10" d="M61.59,55.45c-1.17-.38-.53-.7-.63-.12s-.39.41,0,.68-.11.76.54.35A.54.54,0,0,0,61.59,55.45Z"/><path class="cls-10" d="M73,52.61c-.17-1.19.4-.77-.17-.6s-.55-.17-.63.28-.76.24-.1.63A.58.58,0,0,0,73,52.61Z"/><path class="cls-10" d="M63.36,53.59c-1.18-.38-.23-.56-.64-.12s-.58.41-.2.68,0,.53.7.12S63.36,53.59,63.36,53.59Z"/><path class="cls-10" d="M67.36,50.72c-1.16-.4-.52-.71-.63-.13s-.4.4,0,.68-.12.76.54.36A.54.54,0,0,0,67.36,50.72Z"/><path class="cls-10" d="M65.63,52.77c-1.17-.38-.53-.69-.63-.11s-.39.4,0,.67-.12.77.53.36A.55.55,0,0,0,65.63,52.77Z"/><path class="cls-10" d="M64,50.7c-1.18-.38-.53-.7-.63-.12s-.4.41,0,.68-.11.76.54.35A.54.54,0,0,0,64,50.7Z"/><path class="cls-10" d="M65.05,49c-.63.24-.74-.12-.63.24s-.11.35.19.4.15.47.41.06A.6.6,0,0,0,65.05,49Z"/><path class="cls-10" d="M67.73,65.26c-.63.24-.74-.12-.63.24s-.12.35.19.4.15.47.41.06A.6.6,0,0,0,67.73,65.26Z"/><path class="cls-10" d="M61.16,67.86c-.63.24-.74-.12-.63.24s-.11.35.19.4.15.47.41.06A.6.6,0,0,0,61.16,67.86Z"/><path class="cls-11" d="M70.28,61.28c-.64.25-.74-.11-.64.25s-.11.34.19.39.16.48.42.07A.62.62,0,0,0,70.28,61.28Z"/><path class="cls-10" d="M66.05,60.31c-.64.25-.74-.11-.64.25s-.11.34.19.39.16.48.42.07A.62.62,0,0,0,66.05,60.31Z"/><path class="cls-10" d="M61.88,64.33c-.78-.93.11-.59-.47-.43s-.72,0-.54.47-.26.48.51.47S61.88,64.33,61.88,64.33Z"/><path class="cls-10" d="M69,56.86c-.63.25-.74-.11-.63.25s-.11.34.19.39.15.48.41.06A.6.6,0,0,0,69,56.86Z"/><path class="cls-10" d="M68.53,55.14c-.16-1.19.41-.77-.17-.6s-.55-.17-.63.29-.75.24-.09.62A.57.57,0,0,0,68.53,55.14Z"/><path class="cls-12" d="M51,97.49A12.54,12.54,0,1,1,38.46,85.33,12.35,12.35,0,0,1,51,97.49Z"/><path class="cls-10" d="M37.42,88.3c.47.92-.09,1.13.47.92s.56.13.61-.33.73-.3,0-.63A1,1,0,0,0,37.42,88.3Z"/><path class="cls-11" d="M29.46,95.42c.48.92-.09,1.13.48.92s.56.13.6-.34.74-.29.05-.63A1,1,0,0,0,29.46,95.42Z"/><path class="cls-11" d="M31.45,102.36c.39.76-.07.94.39.76s.46.11.49-.27.6-.24,0-.52A.83.83,0,0,0,31.45,102.36Z"/><path class="cls-10" d="M34.45,90.92c-1.17-.38-.23-.55-.63-.12s-.59.41-.2.68,0,.54.69.13S34.45,90.92,34.45,90.92Z"/><path class="cls-10" d="M29.67,93.51c-1.18-.38-.23-.56-.63-.12s-.59.41-.2.68,0,.53.69.12S29.67,93.51,29.67,93.51Z"/><path class="cls-10" d="M38.7,93.26c-1.18-.38-.23-.55-.63-.12s-.59.41-.21.68,0,.54.7.13S38.7,93.26,38.7,93.26Z"/><path class="cls-10" d="M37.68,91.29c.34-1.15.56-.24.09-.61s-.44-.56-.7-.17-.55.06-.11.67S37.68,91.29,37.68,91.29Z"/><path class="cls-11" d="M44.59,104.61c.35-1.15.56-.24.1-.62s-.44-.56-.71-.17-.55.06-.1.68S44.59,104.61,44.59,104.61Z"/><path class="cls-10" d="M31.52,97.69c.35-1.16.56-.25.1-.62s-.44-.56-.71-.17-.55.06-.1.67S31.52,97.69,31.52,97.69Z"/><path class="cls-10" d="M41.4,87.75c-.68.8-1.1.39-.68.8s.12.55.57.4.58.53.61-.22A1,1,0,0,0,41.4,87.75Z"/><path class="cls-10" d="M27.91,100.87c.39.76-.07.93.39.76s.46.1.5-.28.6-.24,0-.52A.85.85,0,0,0,27.91,100.87Z"/><path class="cls-10" d="M38.42,97.89c.34-1.15.56-.24.09-.62s-.44-.56-.7-.17-.55.06-.11.68S38.42,97.89,38.42,97.89Z"/><path class="cls-10" d="M39.08,101.17c.39.76-.07.93.39.76s.46.1.49-.28.61-.24,0-.51A.83.83,0,0,0,39.08,101.17Z"/><path class="cls-10" d="M34.92,103.2c.35-1.15.56-.24.1-.62s-.44-.55-.71-.16-.54,0-.1.67S34.92,103.2,34.92,103.2Z"/><path class="cls-10" d="M44.41,100.53c.35-1.15.56-.24.1-.61s-.44-.56-.71-.17-.55.06-.1.67S44.41,100.53,44.41,100.53Z"/><path class="cls-10" d="M37,103.48c.39.76-.07.94.39.76s.47.1.5-.27.6-.25,0-.52A.85.85,0,0,0,37,103.48Z"/><path class="cls-10" d="M33.18,88.67c.38.75-.08.93.38.75s.46.11.5-.27.6-.24,0-.52A.82.82,0,0,0,33.18,88.67Z"/><path class="cls-10" d="M35.81,99.74c-.63.25-.74-.11-.63.25s-.12.34.19.39.15.48.41.06A.6.6,0,0,0,35.81,99.74Z"/><path class="cls-10" d="M40.23,107.22c-.63.25-.74-.11-.63.25s-.12.34.19.39.15.48.41.07A.62.62,0,0,0,40.23,107.22Z"/><path class="cls-10" d="M41.35,95.66c-.63.24-.74-.12-.63.24s-.12.35.19.4.15.47.41.06A.6.6,0,0,0,41.35,95.66Z"/><path class="cls-10" d="M33.23,99.06c-1,.21-1.11-.38-1,.21s-.27.49.18.65.1.77.61.2A.93.93,0,0,0,33.23,99.06Z"/><path class="cls-10" d="M31.29,92.09c-1.18-.38-.24-.55-.64-.11s-.59.4-.2.67,0,.54.69.13S31.29,92.09,31.29,92.09Z"/><path class="cls-10" d="M34.47,96.21c-.79-.93.11-.59-.47-.43s-.73,0-.55.47-.25.48.52.47S34.47,96.21,34.47,96.21Z"/><path class="cls-10" d="M32.53,105.53c-1.06.06-1-.52-1.06.06s-.34.46.08.68,0,.77.58.28A1,1,0,0,0,32.53,105.53Z"/><path class="cls-10" d="M48.44,93.73c-.63.24-.74-.12-.63.24s-.12.35.19.4.15.47.41.06A.6.6,0,0,0,48.44,93.73Z"/><path class="cls-10" d="M42.85,92.77c-.08-1.2.44-.41-.12-.61-.72-.25-.61-.38-.73.07s-.49.24.14.67S42.85,92.77,42.85,92.77Z"/><path class="cls-10" d="M37.31,96.13c1.22-.24.48.37.61-.21s.31-.63-.17-.68-.31-.45-.66.22S37.31,96.13,37.31,96.13Z"/><path class="cls-10" d="M40.32,104.37c.32.79-.15.92.32.79s.45.14.52-.24.62-.19.08-.51A.84.84,0,0,0,40.32,104.37Z"/><path class="cls-10" d="M43.92,96.45c-.79-.93.11-.58-.47-.42-.73.2-.72,0-.54.46s-.26.48.51.47S43.92,96.45,43.92,96.45Z"/><path class="cls-10" d="M41.55,102.31c-.64.25-.75-.11-.64.25s-.11.34.19.39.15.47.41.06A.62.62,0,0,0,41.55,102.31Z"/><path class="cls-10" d="M46.84,91.29c-1.18-.37-.23-.55-.63-.11s-.59.4-.21.67,0,.54.7.13S46.84,91.29,46.84,91.29Z"/><path class="cls-11" d="M41.35,93.91c-.64.24-.75-.12-.64.24s-.11.35.19.4.16.47.42.06A.6.6,0,0,0,41.35,93.91Z"/><path class="cls-10" d="M28.58,98.28c-.63.24-.74-.12-.63.24s-.11.34.19.4.15.47.41.06A.6.6,0,0,0,28.58,98.28Z"/><path class="cls-10" d="M43.9,89.93c-.64.25-.75-.11-.64.25s-.11.34.19.39.16.48.41.07A.63.63,0,0,0,43.9,89.93Z"/><path class="cls-10" d="M39.89,90.21c-.64.25-.75-.12-.64.25s-.11.34.19.39.16.47.41.06A.62.62,0,0,0,39.89,90.21Z"/><path class="cls-11" d="M34.45,93.29c-.79-.93.11-.59-.47-.43s-.73,0-.55.47-.26.47.52.46S34.45,93.29,34.45,93.29Z"/><path class="cls-11" d="M38.27,99.36c.39.76-.07.93.39.76s.46.1.5-.28.6-.24,0-.51A.83.83,0,0,0,38.27,99.36Z"/><path class="cls-10" d="M48.57,101.73c-.78-.93.11-.58-.46-.42-.74.2-.73,0-.55.46s-.26.48.52.47S48.57,101.73,48.57,101.73Z"/><path class="cls-10" d="M49.58,98.83c-.79-.93.1-.58-.47-.42-.73.2-.73,0-.55.46s-.26.48.52.47S49.58,98.83,49.58,98.83Z"/><path class="cls-10" d="M47.49,104.15c-.79-.93.11-.59-.47-.43-.73.2-.72,0-.54.47s-.26.47.51.46S47.49,104.15,47.49,104.15Z"/><path class="cls-11" d="M35.09,107.23c-.79-.93.11-.59-.47-.43-.74.2-.73,0-.55.47s-.26.47.52.46S35.09,107.23,35.09,107.23Z"/><path class="cls-10" d="M38.62,107.57c-.78-.93.11-.59-.47-.43s-.72,0-.54.47-.26.47.51.46S38.62,107.57,38.62,107.57Z"/><path class="cls-10" d="M42.92,106.86c-.63.25-.74-.11-.63.25s-.11.34.19.39.15.48.41.07A.62.62,0,0,0,42.92,106.86Z"/><path class="cls-10" d="M44.9,97.25c.19,1.19-.4.46.18.6.74.19.65.33.72-.13s.47-.28-.2-.65S44.9,97.25,44.9,97.25Z"/><path class="cls-10" d="M35.75,97.86c-.64.25-.75-.11-.64.25s-.11.34.19.39.16.47.42.06A.63.63,0,0,0,35.75,97.86Z"/><path class="cls-10" d="M41.5,98.67c-.64.25-.75-.11-.64.25s-.11.34.19.39.16.48.42.06A.6.6,0,0,0,41.5,98.67Z"/><path class="cls-10" d="M36.66,105.29c-.78-.93.11-.58-.46-.42-.74.2-.73,0-.55.46s-.26.48.52.47S36.66,105.29,36.66,105.29Z"/><path class="cls-10" d="M34.62,106.8c-.74.2-.73,0-.55.47s-.26.47.52.46.5-.5.5-.5"/><path class="cls-10" d="M49.31,95.85c-.79-.93.11-.58-.47-.42-.73.2-.72,0-.54.47s-.26.47.51.46S49.31,95.85,49.31,95.85Z"/><path class="cls-10" d="M47.66,96.29c-.64.25-.75-.11-.64.25s-.11.34.19.4.16.47.42.06A.62.62,0,0,0,47.66,96.29Z"/><path class="cls-11" d="M45.24,94.39c-.63.25-.74-.11-.63.25s-.11.34.19.39.15.47.41.06A.6.6,0,0,0,45.24,94.39Z"/><path class="cls-11" d="M39.4,86.78c-.64.25-.75-.11-.64.25s-.11.34.19.39.16.47.42.06A.6.6,0,0,0,39.4,86.78Z"/><path class="cls-3" d="M40.31,79.52l-2.89-.13.25-8.54a1.84,1.84,0,0,0-.73-1.58c-.82-.46-5.25-2.16-5.51-2.25-1.66-.59-3.12-1.11-3.1-1.52s.91-.21.91-.21,8.78,1.79,9.62,2.58a3.23,3.23,0,0,1,1.39,2.51v4.79l0,4.14"/><rect class="cls-13" x="37.4" y="79.31" width="2.88" height="6.81"/><path class="cls-11" d="M37.75,80.83c.47.92-.09,1.13.47.92s.57.12.61-.34.74-.29,0-.63A1,1,0,0,0,37.75,80.83Z"/><path class="cls-10" d="M39.64,82.52c-.64.25-.74-.11-.64.25s-.11.34.19.4.16.47.42.06A.62.62,0,0,0,39.64,82.52Z"/><path class="cls-10" d="M39.12,84.75c-1.17-.38-.23-.56-.63-.12s-.59.41-.2.68,0,.53.69.12S39.12,84.75,39.12,84.75Z"/><path class="cls-10" d="M37.41,67.88c-.63.24-.74-.12-.63.24s-.11.35.19.4.15.47.41.06A.6.6,0,0,0,37.41,67.88Z"/><path class="cls-10" d="M38.6,71.81c-.18.64-.54.51-.18.64s.21.3.43.09.49.17.31-.28A.66.66,0,0,0,38.6,71.81Z"/><path class="cls-11" d="M39.53,70.1c-.78-.93.11-.59-.47-.43-.73.2-.72,0-.54.47s-.26.47.51.46S39.53,70.1,39.53,70.1Z"/><path class="cls-11" d="M38.6,74.94c.32.78-.15.92.32.78s.45.14.52-.23.62-.19.08-.52A.83.83,0,0,0,38.6,74.94Z"/><path class="cls-10" d="M39.69,78.4c-.79-.93.11-.59-.47-.43s-.72,0-.54.47-.26.47.51.46S39.69,78.4,39.69,78.4Z"/><path class="cls-10" d="M35.7,67.32c-.39-.46,0-.29-.23-.21s-.36,0-.27.23-.13.23.25.23S35.7,67.32,35.7,67.32Z"/><path class="cls-10" d="M33.4,66.81c-.39-.46.05-.29-.23-.21s-.36,0-.27.23-.13.23.25.23S33.4,66.81,33.4,66.81Z"/><path class="cls-10" d="M34.51,67.52c-.38-.46.06-.29-.23-.21s-.35,0-.27.23-.12.23.26.23S34.51,67.52,34.51,67.52Z"/><path class="cls-10" d="M31.05,66.17c-.39-.46.05-.29-.23-.21s-.36,0-.27.23-.13.23.25.23S31.05,66.17,31.05,66.17Z"/></g></svg>