<svg id="text" xmlns="http://www.w3.org/2000/svg" viewBox="0 0 262.96 130.34"><defs><style>.cls-1{fill:none;}.cls-1,.cls-4{stroke:#000;}.cls-2{fill:#fff;}.cls-3{font-size:10.5px;}.cls-3,.cls-5{font-family:Arial-BoldMT, Arial;font-weight:700;}.cls-5{font-size:16px;fill:#fcfafc;}.cls-6{letter-spacing:-0.06em;}.cls-7{stroke:#231f20;stroke-linecap:round;stroke-miterlimit:10;stroke-width:0.5px;}.cls-8{font-size:7px;fill:#231f20;font-family:MyriadPro-Regular, Myriad Pro;}.cls-9{letter-spacing:0em;}.cls-10{letter-spacing:0em;}.cls-11{letter-spacing:-0.01em;}.cls-12{letter-spacing:0em;}.cls-13{letter-spacing:0em;}.cls-14{letter-spacing:-0.01em;}.cls-15{letter-spacing:0em;}.cls-16{letter-spacing:0.02em;}.cls-17{letter-spacing:-0.01em;}.cls-18{letter-spacing:0em;}.cls-19{letter-spacing:0.01em;}.cls-20{letter-spacing:-0.01em;}.cls-21{letter-spacing:-0.01em;}.cls-22{letter-spacing:-0.01em;}.cls-23{letter-spacing:0em;}.cls-24{letter-spacing:0.01em;}.cls-25{letter-spacing:-0.04em;}.cls-26{letter-spacing:-0.04em;}.cls-27{letter-spacing:0.02em;}.cls-28{letter-spacing:0.01em;}</style></defs><title>wrnng_shck-hzrd_brkr_and_grnd</title><rect class="cls-1" x="0.5" y="0.5" width="261.96" height="129.34"/><polyline points="99.61 27.13 262.46 27.13 262.46 0.67 99.61 0.67"/><path class="cls-2" d="M125.25,15.57a.57.57,0,0,1-.52.53h-.07a.51.51,0,0,1-.51-.53c-1.69-5.49-2.5-9.34.51-9.34S126.86,10.08,125.25,15.57Zm-.59,5.95a1.66,1.66,0,0,1,0-3.31h.07a1.66,1.66,0,0,1-.07,3.31ZM125.91,4.8a1.27,1.27,0,0,0-1.25-.9,1.15,1.15,0,0,0-1.17.9l-8.37,14.77c-1.1,1.88-.15,2.63.95,2.71h17.18c1.17-.08,2.05-.83.95-2.71Z"/><text class="cls-3" transform="translate(111.23 38.25) scale(1.08 1)">Electrical Shock Hazard</text><line class="cls-4" x1="99.01" y1="42.21" x2="262.46" y2="42.21"/><line class="cls-4" x1="99.39" y1="129.84" x2="99.39" y2="0.57"/><path d="M8,21.77S23.21,34,27.43,38.19c1.18,1.33,3.63,4.37.07,8A78.51,78.51,0,0,0,21.87,52c-2.74,2.55-4.88,8.53.18,12.85a25.78,25.78,0,0,0,9.37,4.41c.24.06.2-.29.34-.58l.34-.93h0c.92.19,1,.36,1.42,1l1.33,3.41c.19.56,1.23.38,1.07-.17l-1.39-3.82c1.24.41,2.95,1,4.35,1.39.54.15.82-.88.24-1.08L35,67.11l4-.81c.41-.1.36-1.11-.46-1,0,0-4.17.94-4.64,1a3,3,0,0,1-1.35-.14l.5-1.8c.18-.66.32-.65,0-.81A41,41,0,0,1,28,61.79c-5.45-2.49-2.39-6.29-.68-7.64a33,33,0,0,0,6.26-6.3c4.31-7.34-.47-12.47-3.49-15.19S11.46,17,11.46,17Z"/><path d="M80.25,36.61c0-3.78-5.3-3.78-5.34-.34L73.69,59.13a1,1,0,0,1-2-.05l0-29.78a2.77,2.77,0,1,0-5.53-.19l-.37,28.45a1,1,0,1,1-2-.05l-.89-33c-.05-4.86-6.18-4.59-6.18.07l.84,33.66c0,1.57-2.06,1.62-2-.1L55,29.5a3.14,3.14,0,1,0-6.27.24l.84,33.12c-.09,1.52-1.92,1.42-1.92,0l-.24-11.53c-.18-7.12-4-7.56-5.43-8.29s-1.55.68-1.5,1.67c0,2.79.52,7.06.14,10A20.25,20.25,0,0,0,40.85,58a92,92,0,0,1,.42,12l20.42-7.6c.9-.3,1.22.29.85.83l-5.72,8.88c-.18.25-.28.59.43.39.14,0,17.47-6.62,17.47-6.62.56-.2,1.36.29.56,1.13l-8.71,8.58c-.56.49-.42.79.37.69l13.4-3.14Z"/><path d="M80.48,77.38c.1-.64-.42-.44-.75-.34l-22.91,5.2c-.7.05-.7-.49-.28-.89l6.09-6.08c.66-.59-.09-.69-.42-.54l-13.68,5.1c-.84.3-.75-.44-.56-.73l5.76-8.83c.56-.79-.23-.79-.51-.64L41.36,74c0,3.93-.79,6,2.81,12.66.71,1.33,5,6.92,5,11.19a11.68,11.68,0,0,1-.66,3.92H74.35c-.15-3-.29-5.3-.29-5.3-.09-1.81-.42-2.6,1.36-5.49C77.58,87,79.5,83.32,80.48,77.38Z"/><text class="cls-5" transform="translate(144.96 19.34)"><tspan class="cls-6">W</tspan><tspan x="14.22" y="0">ARNING</tspan></text><text/><ellipse class="cls-7" cx="109.13" cy="48.17" rx="1.83" ry="2"/><text class="cls-8" transform="translate(115.46 50.64)"><tspan class="cls-9">A</tspan><tspan class="cls-10" x="4.26" y="0">n air b</tspan><tspan class="cls-11" x="22.4" y="0">r</tspan><tspan x="24.62" y="0">eaker and an app</tspan><tspan class="cls-11" x="74.84" y="0">r</tspan><tspan x="77.06" y="0">op</tspan><tspan class="cls-12" x="84.88" y="0">r</tspan><tspan x="87.2" y="0">i</tspan><tspan class="cls-13" x="88.84" y="0">a</tspan><tspan class="cls-14" x="92.18" y="0">t</tspan><tspan x="94.46" y="0">e cu</tspan><tspan class="cls-12" x="106.44" y="0">r</tspan><tspan class="cls-11" x="108.76" y="0">r</tspan><tspan x="110.98" y="0">e</tspan><tspan class="cls-15" x="114.48" y="0">n</tspan><tspan x="118.34" y="0">t lea</tspan><tspan class="cls-16" x="130.68" y="0">k</tspan><tspan x="134.09" y="0">age </tspan><tspan x="0" y="8.4">p</tspan><tspan class="cls-17" x="3.98" y="8.4">r</tspan><tspan class="cls-18" x="6.2" y="8.4">o</tspan><tspan class="cls-14" x="10.04" y="8.4">t</tspan><tspan x="12.32" y="8.4">e</tspan><tspan class="cls-19" x="15.83" y="8.4">c</tspan><tspan class="cls-14" x="19.05" y="8.4">t</tspan><tspan x="21.33" y="8.4">or must be installed outside the </tspan><tspan class="cls-15" x="114.98" y="8.4">wa</tspan><tspan class="cls-14" x="123.45" y="8.4">t</tspan><tspan x="125.72" y="8.4">er </tspan><tspan x="0" y="16.8">he</tspan><tspan class="cls-13" x="7.39" y="16.8">a</tspan><tspan class="cls-14" x="10.74" y="16.8">t</tspan><tspan x="13.01" y="16.8">er as the </tspan><tspan class="cls-20" x="39.12" y="16.8">r</tspan><tspan x="41.34" y="16.8">equi</tspan><tspan class="cls-11" x="54.28" y="16.8">r</tspan><tspan x="56.5" y="16.8">eme</tspan><tspan class="cls-13" x="69.35" y="16.8">n</tspan><tspan x="73.21" y="16.8">t of p</tspan><tspan class="cls-21" x="88.36" y="16.8">o</tspan><tspan class="cls-20" x="92.15" y="16.8">w</tspan><tspan x="97.24" y="16.8">er supply </tspan><tspan x="0" y="25.2">specific</tspan><tspan class="cls-13" x="21.83" y="25.2">a</tspan><tspan x="25.18" y="25.2">tion table </tspan><tspan class="cls-22" x="54.66" y="25.2">f</tspan><tspan x="56.62" y="25.2">or </tspan><tspan class="cls-20" x="64.23" y="25.2">y</tspan><tspan x="67.46" y="25.2">our secu</tspan><tspan class="cls-23" x="92.21" y="25.2">r</tspan><tspan x="94.52" y="25.2">i</tspan><tspan class="cls-24" x="96.16" y="25.2">t</tspan><tspan class="cls-25" x="98.54" y="25.2">y</tspan><tspan x="101.56" y="25.2">.</tspan></text><ellipse class="cls-7" cx="109.13" cy="88.01" rx="1.83" ry="2"/><text class="cls-8" transform="translate(115.29 91.64)"><tspan class="cls-21">T</tspan><tspan x="3.43" y="0">he </tspan><tspan class="cls-13" x="12.31" y="0">wa</tspan><tspan class="cls-14" x="20.78" y="0">t</tspan><tspan x="23.05" y="0">er he</tspan><tspan class="cls-13" x="37.72" y="0">a</tspan><tspan class="cls-14" x="41.07" y="0">t</tspan><tspan x="43.35" y="0">er must be </tspan><tspan class="cls-14" x="75.87" y="0">g</tspan><tspan class="cls-11" x="79.74" y="0">r</tspan><tspan x="81.96" y="0">ounded </tspan><tspan x="0" y="8.4">pe</tspan><tspan class="cls-12" x="7.49" y="8.4">r</tspan><tspan x="9.81" y="8.4">mane</tspan><tspan class="cls-13" x="26.41" y="8.4">n</tspan><tspan x="30.27" y="8.4">tl</tspan><tspan class="cls-26" x="34.24" y="8.4">y</tspan><tspan x="37.26" y="8.4">, othe</tspan><tspan class="cls-27" x="53.75" y="8.4">r</tspan><tspan x="56.21" y="8.4">wise it can </tspan><tspan class="cls-11" x="88.08" y="8.4">r</tspan><tspan x="90.3" y="8.4">esult in ele</tspan><tspan class="cls-19" x="121.56" y="8.4">c</tspan><tspan x="124.79" y="8.4">t</tspan><tspan class="cls-12" x="127.11" y="8.4">r</tspan><tspan x="129.42" y="8.4">ic </tspan><tspan x="0" y="16.8">shoc</tspan><tspan class="cls-28" x="13.64" y="16.8">k</tspan><tspan x="17.02" y="16.8">, inju</tspan><tspan class="cls-27" x="31.03" y="16.8">r</tspan><tspan class="cls-26" x="33.5" y="16.8">y</tspan><tspan x="36.52" y="16.8">, or de</tspan><tspan class="cls-13" x="54.52" y="16.8">a</tspan><tspan x="57.87" y="16.8">th.</tspan></text></svg>