<svg xmlns="http://www.w3.org/2000/svg" viewBox="0 0 248.35 71.17"><defs><style>.cls-1,.cls-2{fill:none;stroke:#000;stroke-width:0.94px;}.cls-1{stroke-miterlimit:10;}.cls-3{font-size:10.34px;font-family:Arial-BoldMT, Arial;font-weight:700;}.cls-4{letter-spacing:-0.07em;}.cls-5{font-size:12.22px;font-family:ArialMT, Arial;letter-spacing:0.03em;}.cls-6{letter-spacing:0.17em;}.cls-7{font-size:8.46px;letter-spacing:0.02em;}.cls-8{fill:#fff;}</style></defs><title>wrnng_toxic_chmcl_hzrd-non_potable</title><g id="icons"><polyline points="0.8 26.3 247.61 26.3 247.61 0.53 0.8 0.53"/><rect class="cls-1" x="0.47" y="0.47" width="247.41" height="70.23"/><path class="cls-2" d="M82,58.3"/><line class="cls-2" x1="0.68" y1="41.47" x2="247.81" y2="41.47"/><text class="cls-3" transform="translate(67.62 37.7)"><tspan class="cls-4">T</tspan><tspan x="5.55" y="0">oxic Chemical Hazard</tspan></text><text class="cls-5" transform="translate(28.49 59.38)">•<tspan class="cls-6" x="4.58" y="0">	</tspan><tspan class="cls-7" x="10.02" y="-1.88">Do not connect to non-potable water system.</tspan></text><path class="cls-8" d="M176.76,15.13V12.66h6.72v5.83a8.59,8.59,0,0,1-2.84,1.59,10.94,10.94,0,0,1-3.76.68,8.85,8.85,0,0,1-4.22-1A6.34,6.34,0,0,1,170,17a8.57,8.57,0,0,1-.9-3.9,8.1,8.1,0,0,1,1-4.06,6.63,6.63,0,0,1,3-2.72,8.28,8.28,0,0,1,3.69-.73,7.69,7.69,0,0,1,4.49,1.14,5.11,5.11,0,0,1,2.08,3.16l-3.09.55A3.15,3.15,0,0,0,179,8.77a3.9,3.9,0,0,0-2.25-.62,4.36,4.36,0,0,0-3.25,1.23,5,5,0,0,0-1.2,3.64,5.55,5.55,0,0,0,1.22,3.91,4.17,4.17,0,0,0,3.2,1.3,5.65,5.65,0,0,0,2-.36,6.88,6.88,0,0,0,1.69-.88V15.13Zm-22.71,5.38V5.88h3l6.32,9.77V5.88h2.89V20.51h-3.13L156.94,11v9.54ZM147.93,5.88h3.12V20.51h-3.12ZM132.49,20.51V5.88h3l6.31,9.77V5.88h2.9V20.51h-3.13L135.39,11v9.54ZM120,12.06h2.3a12.9,12.9,0,0,0,2.81-.17,1.65,1.65,0,0,0,.87-.63,1.81,1.81,0,0,0,.32-1.09A1.66,1.66,0,0,0,125.9,9a1.92,1.92,0,0,0-1.18-.58c-.25,0-1-.05-2.27-.05H120Zm-3.12,8.45V5.88h6.56a12,12,0,0,1,3.6.39,3.53,3.53,0,0,1,1.79,1.4,4.06,4.06,0,0,1,.67,2.31,3.85,3.85,0,0,1-1,2.72,5.13,5.13,0,0,1-3.06,1.35,7.16,7.16,0,0,1,1.67,1.23,17,17,0,0,1,1.77,2.37l1.89,2.86h-3.73l-2.25-3.19a23.12,23.12,0,0,0-1.64-2.15,2.66,2.66,0,0,0-.94-.61,5.42,5.42,0,0,0-1.57-.16H120v6.11Zm-7.39-5.79-2.13-5.43-2.08,5.43Zm5.73,5.79h-3.39l-1.34-3.33h-6.17l-1.28,3.33h-3.3l6-14.63h3.29Zm-30.88,0L80.68,5.88h3.18l2.33,10.05L89,5.88h3.71l2.7,10.22L97.79,5.88h3.14L97.18,20.51H93.87L90.8,9.57,87.74,20.51ZM69.15,14.89c-.12.32-.3.5-.52.5h-.08c-.29,0-.43-.2-.52-.5-1.71-5.15-2.53-8.76.52-8.76s2.24,3.61.6,8.76m-.6,4.44a1.56,1.56,0,1,1,0-3.11h.08a1.55,1.55,0,0,1,1.56,1.55,1.57,1.57,0,0,1-1.64,1.56M69.82,4.25a1.31,1.31,0,0,0-1.27-.85,1.19,1.19,0,0,0-1.19.85L58.87,18.1c-1.12,1.76-.15,2.47,1,2.54H77.27c1.19-.07,2.09-.78,1-2.54Z"/></g></svg>