<svg xmlns="http://www.w3.org/2000/svg" viewBox="0 0 249.64 193.47"><defs><style>.cls-1,.cls-2,.cls-3,.cls-4,.cls-6,.cls-7,.cls-8{stroke:#000;}.cls-1,.cls-3{stroke-width:0.24px;}.cls-2,.cls-4{stroke-width:0.97px;}.cls-3,.cls-8{fill:none;}.cls-4,.cls-5{fill:#fff;}.cls-6{stroke-width:1.03px;}.cls-7{stroke-width:1.14px;}.cls-8{stroke-width:1.07px;}.cls-9{font-size:11px;font-family:Arial-BoldMT, Arial;font-weight:700;}.cls-10{font-size:8.5px;font-family:ArialMT, Arial;}.cls-11{letter-spacing:-0.13em;}.cls-12{letter-spacing:-0.02em;}.cls-13{letter-spacing:-0.09em;}.cls-14{letter-spacing:-0.02em;}.cls-15{letter-spacing:-0.06em;}.cls-16{letter-spacing:0em;}</style></defs><title>wrnng_explsn-hzrd_frm__tp_vlve</title><g id="Layer_1" data-name="Layer 1"><polygon class="cls-1" points="5.31 110.8 5.34 121.81 6.1 122.39 10.32 136.85 8.79 124.31 28.33 138.1 13.57 122.39 25.36 126.22 15.11 119.13 29.95 112.05 10.89 113.77 24.3 103.33 14.34 108.5 21.05 99.11 9.36 107.93 9.21 95.78 6.1 110.7 5.31 110.8"/><rect class="cls-2" x="0.67" y="86.95" width="3.8" height="53.32"/><path class="cls-3" d="M5.15,93.09,7.34,116,7,123.26l-1,17,3.15-17.75,5.31,25.07-4-23.85S26,141.85,25.67,141,11.1,121.86,11.1,121.86l38.54,25.93-36-26.48L68,153.41,20.26,123.64S66.52,146,66.31,145.7s-52.1-25.94-52.1-25.94l.11-.94L43.69,131.1l-28.1-13.25-.13-.8,3.13,1.77L53.7,131.64l-37.51-16,5.21,2.19,37.92,8.89-40.42-11,36.86,5.55-44.23-8.82-1.17,2.43L9.84,112l2.08.41,49.91-6.56-48.47,4.37,22.32-4.37-18.34,2.92,39.9-14.17L15.78,108l32-21.78L13.59,107.15l15-15.73L11.5,106.11,32.24,78.4,10,104.92l-.44-16L8.07,106.63Z"/><polygon class="cls-3" points="11.61 112.26 56.41 113.61 12.65 111.42 11.61 112.26"/><line class="cls-1" x1="56.26" y1="140.56" x2="23" y2="122.48"/><path class="cls-3" d="M10.88,59.38a9.38,9.38,0,0,1,8.24-5,9.56,9.56,0,0,1,9.43,9.68,9.94,9.94,0,0,1-.52,3.2"/><path class="cls-3" d="M28.93,67.17A6.59,6.59,0,0,1,40.5,71.41a6.54,6.54,0,0,1-5.25,6.38"/><path class="cls-3" d="M35.52,78a6.41,6.41,0,1,1-3.5,7.8"/><path class="cls-3" d="M13.45,95.36a5.9,5.9,0,0,1,8.74-7.81"/><path class="cls-3" d="M22.4,87.09a4,4,0,1,1,7.51-1.72,3,3,0,0,1,0,.42"/><path class="cls-3" d="M29.75,86.16V86a4,4,0,1,1,4,4l-.32,0"/><path class="cls-3" d="M22.85,138.34a3.88,3.88,0,0,1-2.25.71,3.95,3.95,0,0,1-2.79-6.73"/><path class="cls-3" d="M27.58,144.1a4,4,0,1,1-4.78-5.62"/><path class="cls-3" d="M39.07,147.09a5.72,5.72,0,0,1-11.24-1.5,5.65,5.65,0,0,1,.17-1.37"/><path class="cls-3" d="M26,163a6.51,6.51,0,1,1-7.51-3.49"/><path class="cls-3" d="M36.42,157.78a6.52,6.52,0,1,1-9.72,8.42"/><path class="cls-3" d="M47.51,141.48A9.5,9.5,0,0,1,37.16,157"/><path class="cls-3" d="M30.93,103a5,5,0,0,1,7.52-6.16"/><path class="cls-3" d="M38.76,96.77a3.22,3.22,0,0,1-.34-1.45,3.28,3.28,0,0,1,6.56,0v.09"/><path class="cls-3" d="M45,96.23v-.16a3.36,3.36,0,1,1,3.36,3.35H48"/><path class="cls-2" d="M89.66,137.3l.56-.07c-2.26.16-20.45.75-23.51.3-2.68-.39-5-1.66-5.28-4.34s0-8.67,0-8.67-3.46.64-4.26-.87c-.71-1.34,2.13-7.41,3.94-15a18.26,18.26,0,0,1,4.42-8A17.59,17.59,0,0,1,73,96.84c2.76-.5,8.44-.4,11.12.94s3.55,1.5,6.39,5.13c2.29,2.93,2.6,4.26,2.92,8.44a79.67,79.67,0,0,1,.08,10.41c-.16,2.29-.56,9.38-1.34,12.06A5.43,5.43,0,0,1,89.66,137.3Z"/><path class="cls-4" d="M68.57,113.61c-.22,1.27-1.11,2.16-2,2s-1.39-1.31-1.17-2.58,1.12-2.16,2-2S68.8,112.35,68.57,113.61Z"/><path class="cls-2" d="M82.91,192.55l-7.23-17.49s-9.5,17.58-10.28,17.76-21.5.41-20.55-.55,39.34-53.88,39.34-53.88a14,14,0,0,1,1.91-1.59c3.07-1.83,4.12-1.78,7.52,0s12.18,16,12.18,16l-.27,39.72Z"/><polyline points="105.34 30.41 249.14 30.41 249.14 0.25 105.34 0.25"/><path class="cls-5" d="M233.12,18.37V15.72h6.68V22A8.46,8.46,0,0,1,237,23.7a10.29,10.29,0,0,1-3.75.73,8.21,8.21,0,0,1-4.19-1,6.52,6.52,0,0,1-2.69-3,9.8,9.8,0,0,1-.9-4.2,9.29,9.29,0,0,1,1-4.37,6.87,6.87,0,0,1,2.94-2.93,7.83,7.83,0,0,1,3.68-.78,7.19,7.19,0,0,1,4.46,1.23,5.59,5.59,0,0,1,2.07,3.4l-3.07.59a3.35,3.35,0,0,0-1.23-1.83,3.61,3.61,0,0,0-2.23-.68,4.14,4.14,0,0,0-3.23,1.32,5.69,5.69,0,0,0-1.2,3.93,6.21,6.21,0,0,0,1.22,4.2,4,4,0,0,0,3.18,1.4,5.22,5.22,0,0,0,2-.39,6.76,6.76,0,0,0,1.68-.95v-2m-26.14,5.79V8.41h3l6.29,10.52V8.41h2.88V24.16H219.6l-6.19-10.27V24.16Zm-6.08,0V8.41h3.1V24.16Zm-15.36,0V8.41h3l6.28,10.52V8.41h2.88V24.16h-3.12L192,13.89V24.16Zm-12.4-9.09H179a11.71,11.71,0,0,0,2.79-.19,1.59,1.59,0,0,0,.86-.67A2.05,2.05,0,0,0,183,13a1.9,1.9,0,0,0-.42-1.28,1.86,1.86,0,0,0-1.16-.62c-.26,0-1-.05-2.27-.05h-2.41Zm-3.1,9.09V8.41h6.52a11,11,0,0,1,3.58.43,3.48,3.48,0,0,1,1.78,1.51,4.59,4.59,0,0,1,.67,2.48,4.27,4.27,0,0,1-1,2.93,4.8,4.8,0,0,1-3,1.45,7.31,7.31,0,0,1,1.66,1.32,18.32,18.32,0,0,1,1.76,2.56l1.87,3.07h-3.7l-2.24-3.43a24.15,24.15,0,0,0-1.63-2.31,2.57,2.57,0,0,0-.94-.66,5.27,5.27,0,0,0-1.56-.17h-.62v6.57Zm-7.36-6.23-2.12-5.84L162,17.93Zm5.71,6.23h-3.38l-1.34-3.58h-6.13l-1.27,3.58h-3.29l6-15.75h3.28Zm-30.72,0L137.56,8.41h3.17L143,19.23l2.81-10.82h3.68l2.69,11,2.36-11h3.12L154,24.16h-3.29l-3.05-11.77-3,11.77Zm-15.13-6.62a.56.56,0,0,1-.51.53h-.08a.51.51,0,0,1-.52-.53c-1.7-5.55-2.52-9.43.52-9.43S127.72,12,126.09,17.54Zm-.59,6a1.68,1.68,0,0,1,0-3.35h.08a1.61,1.61,0,0,1,1.55,1.67A1.63,1.63,0,0,1,125.5,23.55Zm1.26-16.88a1.3,1.3,0,0,0-1.26-.92,1.18,1.18,0,0,0-1.18.92l-8.45,14.9c-1.11,1.9-.15,2.66,1,2.74h17.34c1.19-.08,2.07-.84,1-2.74Z"/><line class="cls-6" x1="106.04" y1="47.58" x2="248.56" y2="47.58"/><line class="cls-7" x1="105.57" y1="192.96" x2="105.57" y2="0.25"/><rect class="cls-8" x="0.54" y="0.54" width="248.57" height="192.37"/></g><g id="text"><text class="cls-9" transform="translate(134.67 41.92)">Explosion Hazard</text><text class="cls-10" transform="translate(118.43 62.93)"><tspan class="cls-11">T<tspan class="cls-12" x="4.08" y="0">emperature-Pressure Relief </tspan><tspan class="cls-13" x="106.25" y="0">V</tspan><tspan class="cls-14" x="111.12" y="0">alve</tspan></tspan><tspan x="0" y="10.2">must comply with</tspan><tspan class="cls-15" x="65.18" y="10.2"> </tspan><tspan class="cls-16" x="67.07" y="10.2">ANSI Z21.22-</tspan><tspan x="0" y="20.4">CS</tspan><tspan class="cls-15" x="11.81" y="20.4">A</tspan><tspan class="cls-16" x="17.01" y="20.4" xml:space="preserve"> 4.4 and</tspan><tspan class="cls-15" x="47.73" y="20.4"> </tspan><tspan x="49.62" y="20.4">ASME code.</tspan></text><path d="M114.11,59.59a1.76,1.76,0,1,1-1.75-1.75A1.75,1.75,0,0,1,114.11,59.59Z"/><text class="cls-10" transform="translate(118.83 104.86)">Properly sized temperature-<tspan x="0" y="10.2">pressure relief valve must be</tspan><tspan x="0" y="20.4">installed in opening provided.</tspan></text><path d="M114,101.25a1.76,1.76,0,1,1-1.76-1.75A1.76,1.76,0,0,1,114,101.25Z"/><path d="M114.05,143.06a1.76,1.76,0,1,1-1.75-1.76A1.75,1.75,0,0,1,114.05,143.06Z"/><text class="cls-10" transform="translate(119.02 146.53)">Can result in overheating and<tspan x="0" y="10.2">excessive tank pressure.</tspan></text><path d="M114,174.36a1.76,1.76,0,1,1-1.76-1.76A1.76,1.76,0,0,1,114,174.36Z"/><text class="cls-10" transform="translate(118.79 177.62)">Can cause serious injury or death.</text></g></svg>