<svg xmlns="http://www.w3.org/2000/svg" viewBox="0 0 243.7 127.31"><title>warning_fre_and_explsn_hzrd_frm_excdng_frng_rte</title><g id="Layer_1" data-name="Layer 1"><path d="M15.25,66c0-.09.08-2.93.09-3,.13-1.53.73-5.76.82-6.9.57-7.44.12-9.43-.13-11.71,0-.39,1.6.76,4.21,4.82.79,1.23,1.88,3.45,2.28,3.86.58.58.88.26.94-.83.16-3.21.74-5.68,1.06-8.15a60.87,60.87,0,0,0,.8-10.56c0-2.87-.21-3.35,1.07-2.07a14.19,14.19,0,0,1,3.55,5.13c.7,1.63,1.17,6.61,1.86,1.71a25.22,25.22,0,0,0,.55-4.78c.07-1.34.22-3.17.29-5.28.21-6.35,1.56-8.44,1.68-8.67.46-.92.82,1.63,1.24,3.21s.74,1.71,2.84,5.68c3.47,6.56,2.39,5.15,4.12,7.1,4.26,4.78,2.54,11.84,4.12,7.11.83-2.5,1.59-3.89,1.84-5,1.27-5.7,1.11-4.32,2.32-1.49.92,2.15,3.55,6.84,3.29,11.1a20.12,20.12,0,0,0,.17,5.88c1,7.46,1.1,5.79,2.46,2,3.26-9,2.59-6.56,3.12-5.44,1.49,3.2,2.42,5.3,2.72,7.59.84,6.45.57,6.84,0,10.26-1.23,8-3.58,9.15.35,7,1.67-.92,2.46-3,2.28-1.67-1.71,12.59-2.24,13-7,18.51C53.73,96.57,47.93,98,42,98.72a49.41,49.41,0,0,1-15.9-.78,19.67,19.67,0,0,1-10.48-5.38c-4.58-4.85-4.84-8-5.24-14.32,0-.27,0-2.32,0-2.56,0-.65,0,.55,0-2.82,0-6.8,0-13.14-.33-14.7-.27-1.17,2.65,1.94,5.16,7.77Z"/><rect x="17.13" y="99.97" width="38.29" height="1.97" style="stroke:#000;stroke-width:0.25px"/><path d="M44.54,29a7.29,7.29,0,0,1,.77-2.51c.49-.65.19-.68,2.95-2.4a3.09,3.09,0,0,0,1.4-1.74c.15-.41.33-.81.43-.22A4.73,4.73,0,0,1,50,24.35,3.34,3.34,0,0,1,49,25.87,17.06,17.06,0,0,1,47,27.21a7.82,7.82,0,0,0-1.84,1.51c-.31.37-.59.47-.59.23Z" style="stroke:#000;stroke-width:0.12px"/><path d="M34,52.23a7.29,7.29,0,0,1,.77-2.51c.49-.65.19-.68,2.95-2.4a3.09,3.09,0,0,0,1.4-1.74c.15-.41.33-.81.43-.22a4.76,4.76,0,0,1-.13,2.27,3.34,3.34,0,0,1-.92,1.52,16.78,16.78,0,0,1-2.08,1.34A7.82,7.82,0,0,0,34.55,52c-.31.37-.59.48-.59.23Z" style="fill:#fff;stroke:#000;stroke-width:0.12px"/><path d="M31.23,16.45a7.3,7.3,0,0,0-.82-2.5c-.5-.64-.2-.68-3-2.35A3.09,3.09,0,0,1,26,9.9c-.16-.41-.34-.81-.43-.22a4.72,4.72,0,0,0,.16,2.27,3.35,3.35,0,0,0,.94,1.5,16.69,16.69,0,0,0,2.1,1.31,7.85,7.85,0,0,1,1.86,1.48c.31.36.6.46.59.22Z" style="stroke:#000;stroke-width:0.12px"/><path d="M31.6,98.6a57.91,57.91,0,0,1-7.5-7.68C22,88.3,20.18,85,19.81,82.29c-.4-2.94-.61-3.47,1-.66.09.16.76,1.49,1.16,1.47s.2-1.91.53-3.67a44.72,44.72,0,0,0,.58-4.88c.08-2.43.09-4.79,0-5.48,0-.41-.07-1.23.09-1.24a2.93,2.93,0,0,1,1.37,1.69,19.13,19.13,0,0,1,1,4.92,13.5,13.5,0,0,0,2,6.95A3.1,3.1,0,0,0,30,82.88c.37,0,.19-.91,0-1.67a16.47,16.47,0,0,1-.35-3.62,17.78,17.78,0,0,1,.23-4.77,24.09,24.09,0,0,1,.83-3.29c1-2.31.92-.59,1,0A14.66,14.66,0,0,0,32,71.66a16,16,0,0,0,2.31,5.27c1.39,1.86,2,2,2,2A5.41,5.41,0,0,0,38,76.73a26.68,26.68,0,0,0,1.92-6.48c.37-2.15.29-9.07.46-11.43.08-1,2.84,3.13,3.75,5.78a15.14,15.14,0,0,1,.87,7c-.26,1.77-.47,2.42.29,2.64.16,0,1.24-.5,2-2.21s1.56-3.64,1.85-2.26a24.52,24.52,0,0,1,.83,5.51c.08,1.53-1.38,4.89-.42,5.29.22.09.57,0,1.23-.67s1.65-1.65,1.25,0a42.76,42.76,0,0,1-3.62,7.37c-1.81,2.92-5.4,6.21-7,7.85a42.73,42.73,0,0,1-4.18,3.73Z" style="fill:#fff;stroke:#000;stroke-width:0.12px"/><rect x="0.5" y="0.5" width="242.7" height="126.31" style="fill:none;stroke:#000"/><polyline points="76.61 27.13 242.79 27.13 242.79 0.67 76.61 0.67"/><path d="M216.52,16.4V13.77h6.62V20a8.32,8.32,0,0,1-2.8,1.69,10,10,0,0,1-3.71.73,8.18,8.18,0,0,1-4.16-1,6.48,6.48,0,0,1-2.67-2.94,9.7,9.7,0,0,1-.89-4.16,9.2,9.2,0,0,1,1-4.33A6.8,6.8,0,0,1,212.83,7a7.67,7.67,0,0,1,3.64-.78,7.13,7.13,0,0,1,4.42,1.22,5.53,5.53,0,0,1,2,3.37l-3,.58a3.32,3.32,0,0,0-1.21-1.82A3.57,3.57,0,0,0,216.47,9a4.11,4.11,0,0,0-3.2,1.31,5.6,5.6,0,0,0-1.19,3.89,6.22,6.22,0,0,0,1.2,4.17,4,4,0,0,0,3.15,1.39,5.19,5.19,0,0,0,1.93-.39,6.7,6.7,0,0,0,1.67-.94v-2m-25.9,5.74V6.53h3L203.35,17V6.53h2.85v15.6h-3.08L197,12V22.14Zm-6,0V6.53h3.07v15.6Zm-15.21,0V6.53h3L182.11,17V6.53H185v15.6h-3.08L175.75,12V22.14Zm-12.29-9h2.27a11.56,11.56,0,0,0,2.76-.19,1.66,1.66,0,0,0,.86-.66,2.09,2.09,0,0,0,.31-1.17,1.91,1.91,0,0,0-.41-1.27,1.88,1.88,0,0,0-1.16-.61q-.37,0-2.24,0h-2.39Zm-3.07,9V6.53H164a10.76,10.76,0,0,1,3.54.42,3.51,3.51,0,0,1,1.77,1.49,4.58,4.58,0,0,1,.66,2.46,4.25,4.25,0,0,1-1,2.9,4.79,4.79,0,0,1-3,1.44,7.23,7.23,0,0,1,1.65,1.31,17.92,17.92,0,0,1,1.75,2.53l1.86,3h-3.67l-2.22-3.4a21.53,21.53,0,0,0-1.62-2.29,2.39,2.39,0,0,0-.92-.65,5,5,0,0,0-1.55-.17h-.62v6.51ZM150.25,16l-2.09-5.79L146.1,16Zm5.65,6.17h-3.34l-1.33-3.54h-6.08l-1.25,3.54h-3.26l5.92-15.6h3.25Zm-30.43,0-3.63-15.6H125l2.29,10.72,2.78-10.72h3.65l2.67,10.9,2.33-10.9h3.09l-3.69,15.6h-3.26l-3-11.66-3,11.66Zm-15-6.56a.56.56,0,0,1-.51.53h-.07a.51.51,0,0,1-.51-.53c-1.69-5.5-2.5-9.34.51-9.34S112.1,10.08,110.48,15.57Zm-.59,6a1.66,1.66,0,0,1,0-3.31H110a1.66,1.66,0,0,1-.07,3.31ZM111.14,4.8a1.27,1.27,0,0,0-1.25-.9,1.17,1.17,0,0,0-1.17.9l-8.37,14.76c-1.1,1.88-.15,2.64,1,2.71h17.18c1.17-.08,2.06-.83,1-2.71Z" style="fill:#fff"/><path d="M96.34,38.25V30.74h5.15V32H97.86v1.78H101v1.27H97.86v3.19Z"/><path d="M102.74,32.07V30.74h1.44v1.33Zm0,6.18V32.81h1.44v5.44Z"/><path d="M107,38.25h-1.44V32.81h1.34v.77a2.33,2.33,0,0,1,.62-.72,1.14,1.14,0,0,1,.62-.17,1.83,1.83,0,0,1,.95.27l-.45,1.26A1.26,1.26,0,0,0,108,34a.8.8,0,0,0-.51.17,1.14,1.14,0,0,0-.33.6,8.54,8.54,0,0,0-.12,1.83Z"/><path d="M112.89,36.52l1.44.24a2.36,2.36,0,0,1-.87,1.2,2.57,2.57,0,0,1-1.49.41,2.44,2.44,0,0,1-2.1-.93,3.12,3.12,0,0,1-.54-1.88,3,3,0,0,1,.71-2.12,2.33,2.33,0,0,1,1.79-.77,2.42,2.42,0,0,1,1.92.8,3.55,3.55,0,0,1,.67,2.46H110.8a1.46,1.46,0,0,0,.35,1,1.09,1.09,0,0,0,.83.36.88.88,0,0,0,.57-.18A1.14,1.14,0,0,0,112.89,36.52Zm.08-1.46a1.39,1.39,0,0,0-.32-1,1,1,0,0,0-1.53,0,1.33,1.33,0,0,0-.3.93Z"/><path d="M119.57,34.47l-1.31-.24a2,2,0,0,1,.76-1.17,2.78,2.78,0,0,1,1.6-.38,3.45,3.45,0,0,1,1.44.23,1.43,1.43,0,0,1,.66.58,3,3,0,0,1,.19,1.29l0,1.68a5.81,5.81,0,0,0,.07,1.06,3.08,3.08,0,0,0,.26.73H121.8c0-.1-.08-.24-.14-.43l-.05-.17a2.59,2.59,0,0,1-.79.54,2.26,2.26,0,0,1-.9.18,1.85,1.85,0,0,1-1.33-.46,1.52,1.52,0,0,1-.48-1.15,1.55,1.55,0,0,1,.22-.82,1.44,1.44,0,0,1,.62-.55,4.82,4.82,0,0,1,1.15-.34,7.85,7.85,0,0,0,1.4-.35v-.14a.75.75,0,0,0-.21-.59,1.23,1.23,0,0,0-.77-.18,1,1,0,0,0-.6.15A1.05,1.05,0,0,0,119.57,34.47Zm1.93,1.17a8.87,8.87,0,0,1-.88.22,2.66,2.66,0,0,0-.78.25.6.6,0,0,0-.28.51.71.71,0,0,0,.23.52.79.79,0,0,0,.57.22,1.25,1.25,0,0,0,.74-.26.9.9,0,0,0,.34-.48,2.85,2.85,0,0,0,.06-.7Z"/><path d="M129.29,38.25h-1.44V35.48a4.29,4.29,0,0,0-.09-1.14.8.8,0,0,0-.3-.4.86.86,0,0,0-.5-.14,1.16,1.16,0,0,0-.67.21,1,1,0,0,0-.41.54,4.71,4.71,0,0,0-.11,1.25v2.47h-1.44V32.81h1.34v.8a2.18,2.18,0,0,1,1.79-.92,2.16,2.16,0,0,1,.87.17,1.46,1.46,0,0,1,.6.44,1.6,1.6,0,0,1,.28.61,4.53,4.53,0,0,1,.08,1Z"/><path d="M135.74,38.25h-1.34v-.8a2.17,2.17,0,0,1-.79.69,2,2,0,0,1-.92.23,2.07,2.07,0,0,1-1.61-.76,3.07,3.07,0,0,1-.67-2.11,3,3,0,0,1,.65-2.1,2.12,2.12,0,0,1,1.65-.72,2,2,0,0,1,1.58.76V30.74h1.44Zm-3.84-2.84a2.49,2.49,0,0,0,.24,1.26,1.09,1.09,0,0,0,1,.56,1.06,1.06,0,0,0,.85-.42,2,2,0,0,0,.35-1.26A2.14,2.14,0,0,0,134,34.2a1.07,1.07,0,0,0-.87-.41,1.08,1.08,0,0,0-.86.41A1.84,1.84,0,0,0,131.9,35.41Z"/><path d="M140.09,38.25V30.74h5.57V32h-4.06v1.67h3.77v1.27h-3.77v2h4.2v1.27Z"/><path d="M146.39,38.25l2-2.8-1.88-2.64h1.76l1,1.5,1-1.5h1.69l-1.85,2.58,2,2.87h-1.77l-1.11-1.69-1.12,1.69Z"/><path d="M152.88,32.81h1.34v.8a2,2,0,0,1,.71-.67,2,2,0,0,1,1-.26,2.08,2.08,0,0,1,1.61.74,3,3,0,0,1,.66,2.07,3.1,3.1,0,0,1-.67,2.12,2.08,2.08,0,0,1-1.62.76,1.84,1.84,0,0,1-.82-.18,2.75,2.75,0,0,1-.77-.62v2.74h-1.44Zm1.42,2.63a2.09,2.09,0,0,0,.37,1.36,1.11,1.11,0,0,0,.89.44,1,1,0,0,0,.84-.4,2.08,2.08,0,0,0,.33-1.32,2,2,0,0,0-.34-1.27,1.06,1.06,0,0,0-.85-.42,1.1,1.1,0,0,0-.88.41A1.81,1.81,0,0,0,154.31,35.44Z"/><path d="M159.34,38.25V30.74h1.44v7.52Z"/><path d="M161.92,35.46a2.94,2.94,0,0,1,.35-1.39,2.41,2.41,0,0,1,1-1,3,3,0,0,1,1.45-.35,2.72,2.72,0,0,1,2,.8,2.77,2.77,0,0,1,.79,2,2.8,2.8,0,0,1-.8,2,2.69,2.69,0,0,1-2,.81,3.16,3.16,0,0,1-1.43-.34,2.31,2.31,0,0,1-1-1A3.3,3.3,0,0,1,161.92,35.46Zm1.48.08a1.81,1.81,0,0,0,.38,1.24,1.23,1.23,0,0,0,.95.43,1.21,1.21,0,0,0,.95-.43,1.82,1.82,0,0,0,.38-1.25,1.79,1.79,0,0,0-.38-1.23,1.21,1.21,0,0,0-.95-.43,1.23,1.23,0,0,0-.95.43A1.81,1.81,0,0,0,163.4,35.53Z"/><path d="M168.16,36.7l1.45-.22a1.06,1.06,0,0,0,.38.64,1.26,1.26,0,0,0,.79.22,1.42,1.42,0,0,0,.84-.21.46.46,0,0,0,.19-.38.38.38,0,0,0-.1-.27,1.15,1.15,0,0,0-.48-.19,7.77,7.77,0,0,1-2.21-.7,1.4,1.4,0,0,1-.65-1.23,1.51,1.51,0,0,1,.56-1.19,2.61,2.61,0,0,1,1.73-.48,3,3,0,0,1,1.66.36,1.86,1.86,0,0,1,.75,1.08l-1.36.25a.84.84,0,0,0-.33-.49,1.21,1.21,0,0,0-.69-.17,1.56,1.56,0,0,0-.82.16.34.34,0,0,0-.16.29.32.32,0,0,0,.14.26,5.4,5.4,0,0,0,1.35.4,4,4,0,0,1,1.61.64,1.33,1.33,0,0,1,.45,1.07,1.65,1.65,0,0,1-.62,1.29,2.78,2.78,0,0,1-1.85.54,3,3,0,0,1-1.76-.45A2.07,2.07,0,0,1,168.16,36.7Z"/><path d="M174.51,32.07V30.74H176v1.33Zm0,6.18V32.81H176v5.44Z"/><path d="M177.09,35.46a2.94,2.94,0,0,1,.35-1.39,2.43,2.43,0,0,1,1-1,3,3,0,0,1,1.45-.35,2.72,2.72,0,0,1,2,.8,2.77,2.77,0,0,1,.79,2,2.8,2.8,0,0,1-.8,2,2.69,2.69,0,0,1-2,.81,3.16,3.16,0,0,1-1.43-.34,2.32,2.32,0,0,1-1-1A3.3,3.3,0,0,1,177.09,35.46Zm1.48.08a1.81,1.81,0,0,0,.38,1.24,1.26,1.26,0,0,0,1.89,0,1.83,1.83,0,0,0,.38-1.25,1.79,1.79,0,0,0-.38-1.23,1.26,1.26,0,0,0-1.89,0A1.81,1.81,0,0,0,178.57,35.53Z"/><path d="M188.79,38.25h-1.44V35.48a4.24,4.24,0,0,0-.09-1.14.8.8,0,0,0-.3-.4.86.86,0,0,0-.5-.14,1.16,1.16,0,0,0-.67.21,1,1,0,0,0-.41.54,4.72,4.72,0,0,0-.11,1.25v2.47h-1.44V32.81h1.34v.8a2.18,2.18,0,0,1,1.79-.92,2.15,2.15,0,0,1,.87.17,1.46,1.46,0,0,1,.6.44,1.61,1.61,0,0,1,.28.61,4.52,4.52,0,0,1,.08,1Z"/><path d="M193.19,38.25V30.74h1.52v3h3v-3h1.52v7.52h-1.52V35h-3v3.29Z"/><path d="M201.83,34.47l-1.31-.24a2,2,0,0,1,.76-1.17,2.77,2.77,0,0,1,1.6-.38,3.45,3.45,0,0,1,1.44.23,1.44,1.44,0,0,1,.66.58,3,3,0,0,1,.19,1.29l0,1.68a5.75,5.75,0,0,0,.07,1.06,3.05,3.05,0,0,0,.26.73h-1.42c0-.1-.08-.24-.14-.43l-.05-.17a2.59,2.59,0,0,1-.79.54,2.26,2.26,0,0,1-.9.18,1.86,1.86,0,0,1-1.33-.46,1.52,1.52,0,0,1-.48-1.15,1.55,1.55,0,0,1,.22-.82,1.44,1.44,0,0,1,.62-.55,4.83,4.83,0,0,1,1.15-.34,7.84,7.84,0,0,0,1.4-.35v-.14a.75.75,0,0,0-.21-.59,1.23,1.23,0,0,0-.77-.18,1,1,0,0,0-.6.15A1.05,1.05,0,0,0,201.83,34.47Zm1.93,1.17a8.89,8.89,0,0,1-.88.22,2.66,2.66,0,0,0-.79.25.6.6,0,0,0-.28.51.71.71,0,0,0,.22.52.79.79,0,0,0,.57.22,1.25,1.25,0,0,0,.74-.26.9.9,0,0,0,.34-.48,2.88,2.88,0,0,0,.06-.7Z"/><path d="M206,38.25V37.13l2-2.34c.34-.38.58-.65.74-.82l-.66,0h-1.92V32.81h4.5v1l-2.08,2.4-.73.79.74,0h2.23v1.27Z"/><path d="M212.92,34.47l-1.31-.24a2,2,0,0,1,.76-1.17,2.77,2.77,0,0,1,1.6-.38,3.45,3.45,0,0,1,1.44.23,1.43,1.43,0,0,1,.66.58,3,3,0,0,1,.19,1.29l0,1.68a5.86,5.86,0,0,0,.07,1.06,3.06,3.06,0,0,0,.26.73h-1.43c0-.1-.08-.24-.14-.43l-.05-.17a2.6,2.6,0,0,1-.79.54,2.27,2.27,0,0,1-.9.18,1.85,1.85,0,0,1-1.33-.46,1.52,1.52,0,0,1-.48-1.15,1.54,1.54,0,0,1,.22-.82,1.43,1.43,0,0,1,.62-.55,4.82,4.82,0,0,1,1.15-.34,7.85,7.85,0,0,0,1.4-.35v-.14a.75.75,0,0,0-.21-.59,1.23,1.23,0,0,0-.77-.18,1,1,0,0,0-.6.15A1.05,1.05,0,0,0,212.92,34.47Zm1.93,1.17a8.81,8.81,0,0,1-.88.22,2.66,2.66,0,0,0-.78.25.6.6,0,0,0-.28.51.71.71,0,0,0,.23.52.79.79,0,0,0,.57.22,1.25,1.25,0,0,0,.74-.26.9.9,0,0,0,.34-.48,2.83,2.83,0,0,0,.06-.7Z"/><path d="M219.06,38.25h-1.44V32.81H219v.77a2.33,2.33,0,0,1,.62-.72,1.14,1.14,0,0,1,.62-.17,1.83,1.83,0,0,1,.95.27l-.45,1.26A1.26,1.26,0,0,0,220,34a.8.8,0,0,0-.51.17,1.14,1.14,0,0,0-.33.6,8.49,8.49,0,0,0-.12,1.83Z"/><path d="M226.76,38.25h-1.34v-.8a2.17,2.17,0,0,1-.79.69,2,2,0,0,1-.92.23,2.08,2.08,0,0,1-1.61-.76,3.08,3.08,0,0,1-.67-2.11,3,3,0,0,1,.65-2.1,2.12,2.12,0,0,1,1.65-.72,2,2,0,0,1,1.58.76V30.74h1.44Zm-3.85-2.84a2.49,2.49,0,0,0,.24,1.26,1.09,1.09,0,0,0,1,.56,1.06,1.06,0,0,0,.85-.42,2,2,0,0,0,.35-1.26A2.14,2.14,0,0,0,225,34.2a1.07,1.07,0,0,0-.87-.41,1.09,1.09,0,0,0-.86.41A1.84,1.84,0,0,0,222.92,35.41Z"/><line x1="76.67" y1="42.21" x2="243.11" y2="42.21" style="stroke:#000"/><line x1="76.37" y1="126.72" x2="76.37" y2="0.56" style="stroke:#000"/></g><g id="text"><path d="M90.44,107.92v-.71H93v2.26a4.55,4.55,0,0,1-1.22.71,3.63,3.63,0,0,1-1.29.24,3.46,3.46,0,0,1-1.63-.38,2.54,2.54,0,0,1-1.11-1.11,3.49,3.49,0,0,1-.37-1.62,3.76,3.76,0,0,1,.37-1.66,2.47,2.47,0,0,1,1.07-1.14,3.35,3.35,0,0,1,1.61-.37,3.18,3.18,0,0,1,1.19.21,2,2,0,0,1,.84.6,2.65,2.65,0,0,1,.46,1l-.73.2a2.25,2.25,0,0,0-.34-.73,1.4,1.4,0,0,0-.58-.42,2.13,2.13,0,0,0-.84-.16,2.46,2.46,0,0,0-1,.17,1.78,1.78,0,0,0-.65.44,2.12,2.12,0,0,0-.38.6,3.19,3.19,0,0,0-.23,1.22,3,3,0,0,0,.28,1.36,1.79,1.79,0,0,0,.82.81,2.52,2.52,0,0,0,1.14.27,2.69,2.69,0,0,0,1-.2,2.63,2.63,0,0,0,.76-.43v-1.13Z"/><path d="M97,109.77a2.78,2.78,0,0,1-.8.5,2.31,2.31,0,0,1-.82.15,1.6,1.6,0,0,1-1.12-.35,1.17,1.17,0,0,1-.39-.91,1.21,1.21,0,0,1,.15-.59,1.23,1.23,0,0,1,.39-.43,1.84,1.84,0,0,1,.54-.24,5.3,5.3,0,0,1,.66-.11,6.78,6.78,0,0,0,1.33-.26c0-.1,0-.17,0-.2a.83.83,0,0,0-.21-.64,1.25,1.25,0,0,0-.85-.25,1.32,1.32,0,0,0-.78.18,1.13,1.13,0,0,0-.37.65l-.73-.1a1.81,1.81,0,0,1,.33-.76A1.43,1.43,0,0,1,95,106a3,3,0,0,1,1-.16,2.64,2.64,0,0,1,.92.13,1.2,1.2,0,0,1,.52.33,1.17,1.17,0,0,1,.23.51,4.21,4.21,0,0,1,0,.69v1a10.61,10.61,0,0,0,0,1.32,1.65,1.65,0,0,0,.19.53h-.78A1.58,1.58,0,0,1,97,109.77Zm-.06-1.67a5.53,5.53,0,0,1-1.22.28,2.79,2.79,0,0,0-.65.15.65.65,0,0,0-.17,1.1,1,1,0,0,0,.66.2,1.54,1.54,0,0,0,.77-.19,1.16,1.16,0,0,0,.49-.52,1.81,1.81,0,0,0,.12-.75Z"/><path d="M98.54,109l.74-.12a1,1,0,0,0,.35.68,1.21,1.21,0,0,0,.79.24,1.17,1.17,0,0,0,.76-.21.63.63,0,0,0,.25-.49.45.45,0,0,0-.22-.4,3.22,3.22,0,0,0-.76-.25,7,7,0,0,1-1.14-.36,1.09,1.09,0,0,1-.65-1,1.14,1.14,0,0,1,.14-.55,1.22,1.22,0,0,1,.37-.42,1.54,1.54,0,0,1,.48-.22,2.26,2.26,0,0,1,.65-.09,2.55,2.55,0,0,1,.91.15,1.24,1.24,0,0,1,.58.4,1.58,1.58,0,0,1,.26.68l-.73.1a.8.8,0,0,0-.29-.53,1.06,1.06,0,0,0-.67-.19,1.22,1.22,0,0,0-.73.17.5.5,0,0,0-.22.4.42.42,0,0,0,.09.26.66.66,0,0,0,.29.2l.66.19a9.28,9.28,0,0,1,1.11.35,1.12,1.12,0,0,1,.49.39,1.09,1.09,0,0,1,.18.64,1.25,1.25,0,0,1-.22.7,1.4,1.4,0,0,1-.63.51,2.29,2.29,0,0,1-.93.18,2.07,2.07,0,0,1-1.31-.36A1.66,1.66,0,0,1,98.54,109Z"/><path d="M108.33,109.77a2.78,2.78,0,0,1-.8.5,2.31,2.31,0,0,1-.82.15,1.6,1.6,0,0,1-1.12-.35,1.17,1.17,0,0,1-.39-.91,1.21,1.21,0,0,1,.15-.59,1.23,1.23,0,0,1,.39-.43,1.84,1.84,0,0,1,.54-.24,5.3,5.3,0,0,1,.66-.11,6.78,6.78,0,0,0,1.33-.26c0-.1,0-.17,0-.2a.83.83,0,0,0-.21-.64,1.25,1.25,0,0,0-.85-.25,1.32,1.32,0,0,0-.78.18,1.13,1.13,0,0,0-.37.65l-.73-.1a1.81,1.81,0,0,1,.33-.76,1.43,1.43,0,0,1,.66-.44,3,3,0,0,1,1-.16,2.64,2.64,0,0,1,.92.13,1.2,1.2,0,0,1,.52.33,1.17,1.17,0,0,1,.23.51,4.21,4.21,0,0,1,0,.69v1a10.61,10.61,0,0,0,0,1.32,1.65,1.65,0,0,0,.19.53h-.78A1.58,1.58,0,0,1,108.33,109.77Zm-.06-1.67a5.53,5.53,0,0,1-1.22.28,2.79,2.79,0,0,0-.65.15.65.65,0,0,0-.17,1.1,1,1,0,0,0,.66.2,1.54,1.54,0,0,0,.77-.19,1.16,1.16,0,0,0,.49-.52,1.81,1.81,0,0,0,.12-.75Z"/><path d="M110.18,110.31V105.9h.67v.63a1.59,1.59,0,0,1,1.4-.73,1.85,1.85,0,0,1,.73.14,1.16,1.16,0,0,1,.5.38,1.43,1.43,0,0,1,.23.55,4.31,4.31,0,0,1,0,.73v2.71H113v-2.68a2,2,0,0,0-.09-.68.71.71,0,0,0-.31-.36,1,1,0,0,0-.52-.13,1.21,1.21,0,0,0-.82.3,1.49,1.49,0,0,0-.35,1.15v2.41Z"/><path d="M117.77,110.31v-.56a1.37,1.37,0,0,1-1.23.66,1.73,1.73,0,0,1-1-.29,1.92,1.92,0,0,1-.68-.81,2.8,2.8,0,0,1-.24-1.2,3.13,3.13,0,0,1,.22-1.2,1.73,1.73,0,0,1,.66-.82,1.76,1.76,0,0,1,1-.29,1.46,1.46,0,0,1,.71.17,1.48,1.48,0,0,1,.51.44v-2.18h.74v6.08Zm-2.36-2.2a1.92,1.92,0,0,0,.36,1.27,1.08,1.08,0,0,0,.84.42,1.06,1.06,0,0,0,.83-.4,1.85,1.85,0,0,0,.34-1.22,2.07,2.07,0,0,0-.35-1.33,1.07,1.07,0,0,0-.86-.42,1,1,0,0,0-.83.41A2,2,0,0,0,115.41,108.11Z"/><path d="M124.87,108.69l.73.09A1.9,1.9,0,0,1,125,110a1.79,1.79,0,0,1-1.22.43,1.89,1.89,0,0,1-1.46-.59,2.4,2.4,0,0,1-.55-1.7,3.08,3.08,0,0,1,.24-1.25,1.66,1.66,0,0,1,.72-.8,2.13,2.13,0,0,1,1.05-.27,1.83,1.83,0,0,1,1.17.36,1.67,1.67,0,0,1,.58,1l-.73.11a1.21,1.21,0,0,0-.37-.67,1,1,0,0,0-.64-.22,1.16,1.16,0,0,0-.92.4,1.92,1.92,0,0,0-.35,1.28,2,2,0,0,0,.34,1.29,1.11,1.11,0,0,0,.89.4,1,1,0,0,0,.73-.27A1.34,1.34,0,0,0,124.87,108.69Z"/><path d="M129.12,109.77a2.77,2.77,0,0,1-.8.5,2.31,2.31,0,0,1-.82.15,1.6,1.6,0,0,1-1.12-.35,1.17,1.17,0,0,1-.39-.91,1.21,1.21,0,0,1,.15-.59,1.24,1.24,0,0,1,.39-.43,1.83,1.83,0,0,1,.54-.24,5.3,5.3,0,0,1,.66-.11,6.78,6.78,0,0,0,1.33-.26c0-.1,0-.17,0-.2a.83.83,0,0,0-.21-.64,1.25,1.25,0,0,0-.85-.25,1.32,1.32,0,0,0-.78.18,1.12,1.12,0,0,0-.37.65l-.73-.1a1.81,1.81,0,0,1,.33-.76,1.43,1.43,0,0,1,.66-.44,3,3,0,0,1,1-.16,2.64,2.64,0,0,1,.92.13,1.19,1.19,0,0,1,.52.33,1.16,1.16,0,0,1,.23.51,4.14,4.14,0,0,1,0,.69v1a10.47,10.47,0,0,0,0,1.32,1.65,1.65,0,0,0,.19.53h-.78A1.6,1.6,0,0,1,129.12,109.77Zm-.06-1.67a5.53,5.53,0,0,1-1.22.28,2.8,2.8,0,0,0-.65.15.64.64,0,0,0-.4.6.64.64,0,0,0,.23.5,1,1,0,0,0,.66.2,1.54,1.54,0,0,0,.77-.19,1.16,1.16,0,0,0,.49-.52,1.81,1.81,0,0,0,.12-.75Z"/><path d="M131,110.31V105.9h.67v.67a1.82,1.82,0,0,1,.47-.62.83.83,0,0,1,.48-.15,1.46,1.46,0,0,1,.77.24l-.26.69a1.06,1.06,0,0,0-.55-.16.72.72,0,0,0-.44.15.79.79,0,0,0-.28.41,2.91,2.91,0,0,0-.12.87v2.31Z"/><path d="M134.49,110.31h-.69v-6.08h.75v2.17a1.48,1.48,0,0,1,1.21-.59,1.85,1.85,0,0,1,.77.16,1.58,1.58,0,0,1,.6.46,2.24,2.24,0,0,1,.37.72,3,3,0,0,1,.13.9,2.52,2.52,0,0,1-.56,1.75,1.75,1.75,0,0,1-1.34.62,1.4,1.4,0,0,1-1.22-.65Zm0-2.24a2.28,2.28,0,0,0,.22,1.15,1.07,1.07,0,0,0,1.8.15,1.93,1.93,0,0,0,.36-1.27,2,2,0,0,0-.34-1.27,1,1,0,0,0-.83-.41,1.08,1.08,0,0,0-.85.42A1.87,1.87,0,0,0,134.48,108.07Z"/><path d="M138.25,108.1a2.27,2.27,0,0,1,.68-1.81,2.05,2.05,0,0,1,1.39-.49,2,2,0,0,1,1.49.6,2.26,2.26,0,0,1,.58,1.65,2.91,2.91,0,0,1-.26,1.34,1.8,1.8,0,0,1-.74.76,2.17,2.17,0,0,1-1.06.27,2,2,0,0,1-1.5-.59A2.37,2.37,0,0,1,138.25,108.1Zm.77,0a1.88,1.88,0,0,0,.37,1.27,1.23,1.23,0,0,0,1.85,0,1.93,1.93,0,0,0,.37-1.29,1.82,1.82,0,0,0-.37-1.24,1.23,1.23,0,0,0-1.85,0A1.86,1.86,0,0,0,139,108.1Z"/><path d="M143.26,110.31V105.9h.67v.63a1.59,1.59,0,0,1,1.4-.73,1.85,1.85,0,0,1,.73.14,1.15,1.15,0,0,1,.5.38,1.44,1.44,0,0,1,.23.55,4.31,4.31,0,0,1,0,.73v2.71h-.75v-2.68a2,2,0,0,0-.09-.68.72.72,0,0,0-.31-.36,1,1,0,0,0-.52-.13,1.21,1.21,0,0,0-.82.3,1.49,1.49,0,0,0-.35,1.15v2.41Z"/><path d="M150.35,110.31V105.9H151v.62a1.57,1.57,0,0,1,.55-.52,1.55,1.55,0,0,1,.78-.2,1.45,1.45,0,0,1,.8.2,1.09,1.09,0,0,1,.44.57,1.58,1.58,0,0,1,1.36-.77,1.34,1.34,0,0,1,1,.36,1.55,1.55,0,0,1,.35,1.12v3h-.74v-2.78a2,2,0,0,0-.07-.65.62.62,0,0,0-.26-.32.82.82,0,0,0-.45-.12,1,1,0,0,0-.77.31,1.36,1.36,0,0,0-.31,1v2.56H153v-2.86a1.26,1.26,0,0,0-.18-.75.69.69,0,0,0-.6-.25,1.08,1.08,0,0,0-.58.17.94.94,0,0,0-.39.49,2.74,2.74,0,0,0-.12.92v2.29Z"/><path d="M157.15,108.1a2.27,2.27,0,0,1,.68-1.81,2.05,2.05,0,0,1,1.39-.49,2,2,0,0,1,1.49.6,2.26,2.26,0,0,1,.58,1.65,2.91,2.91,0,0,1-.26,1.34,1.8,1.8,0,0,1-.74.76,2.17,2.17,0,0,1-1.06.27,2,2,0,0,1-1.5-.59A2.37,2.37,0,0,1,157.15,108.1Zm.77,0a1.88,1.88,0,0,0,.37,1.27,1.23,1.23,0,0,0,1.85,0,1.93,1.93,0,0,0,.37-1.29,1.82,1.82,0,0,0-.37-1.24,1.23,1.23,0,0,0-1.85,0A1.86,1.86,0,0,0,157.92,108.1Z"/><path d="M162.16,110.31V105.9h.67v.63a1.59,1.59,0,0,1,1.4-.73,1.85,1.85,0,0,1,.73.14,1.15,1.15,0,0,1,.5.38,1.44,1.44,0,0,1,.23.55,4.31,4.31,0,0,1,0,.73v2.71H165v-2.68a2,2,0,0,0-.09-.68.72.72,0,0,0-.31-.36,1,1,0,0,0-.52-.13,1.21,1.21,0,0,0-.82.3,1.49,1.49,0,0,0-.35,1.15v2.41Z"/><path d="M166.6,108.1a2.27,2.27,0,0,1,.68-1.81,2.05,2.05,0,0,1,1.39-.49,2,2,0,0,1,1.49.6,2.26,2.26,0,0,1,.58,1.65,2.91,2.91,0,0,1-.26,1.34,1.8,1.8,0,0,1-.74.76,2.17,2.17,0,0,1-1.06.27,2,2,0,0,1-1.5-.59A2.37,2.37,0,0,1,166.6,108.1Zm.77,0a1.88,1.88,0,0,0,.37,1.27,1.23,1.23,0,0,0,1.85,0,1.93,1.93,0,0,0,.37-1.29,1.82,1.82,0,0,0-.37-1.24,1.23,1.23,0,0,0-1.85,0A1.86,1.86,0,0,0,167.37,108.1Z"/><path d="M171.11,110.31l1.61-2.29-1.49-2.12h.93l.68,1,.31.49.34-.49.74-1h.89L173.6,108l1.64,2.33h-.92l-.91-1.37-.24-.37L172,110.31Z"/><path d="M175.86,105.08v-.86h.75v.86Zm0,5.23V105.9h.75v4.41Z"/><path d="M180.61,110.31v-.56a1.37,1.37,0,0,1-1.23.66,1.73,1.73,0,0,1-1-.29,1.92,1.92,0,0,1-.68-.81,2.8,2.8,0,0,1-.24-1.2,3.13,3.13,0,0,1,.22-1.2,1.73,1.73,0,0,1,.66-.82,1.76,1.76,0,0,1,1-.29,1.46,1.46,0,0,1,.71.17,1.48,1.48,0,0,1,.51.44v-2.18h.74v6.08Zm-2.36-2.2a1.92,1.92,0,0,0,.36,1.27,1.08,1.08,0,0,0,.84.42,1.06,1.06,0,0,0,.83-.4,1.85,1.85,0,0,0,.34-1.22,2.07,2.07,0,0,0-.35-1.33,1.07,1.07,0,0,0-.86-.42,1,1,0,0,0-.83.41A2,2,0,0,0,178.25,108.11Z"/><path d="M185.49,108.89l.77.1a1.89,1.89,0,0,1-.68,1.05,2,2,0,0,1-1.26.37,2,2,0,0,1-1.53-.6,2.32,2.32,0,0,1-.57-1.67,2.43,2.43,0,0,1,.57-1.73,1.94,1.94,0,0,1,1.49-.61,1.89,1.89,0,0,1,1.44.6,2.39,2.39,0,0,1,.56,1.69s0,.11,0,.2H183a1.7,1.7,0,0,0,.41,1.11,1.23,1.23,0,0,0,.92.39,1.15,1.15,0,0,0,.7-.22A1.44,1.44,0,0,0,185.49,108.89ZM183,107.68h2.46a1.49,1.49,0,0,0-.28-.83,1.15,1.15,0,0,0-.93-.43,1.19,1.19,0,0,0-.87.34A1.37,1.37,0,0,0,183,107.68Z"/><path d="M192.42,110.31v-.56a1.37,1.37,0,0,1-1.23.66,1.73,1.73,0,0,1-1-.29,1.92,1.92,0,0,1-.68-.81,2.8,2.8,0,0,1-.24-1.2,3.13,3.13,0,0,1,.22-1.2,1.73,1.73,0,0,1,.66-.82,1.76,1.76,0,0,1,1-.29,1.46,1.46,0,0,1,.71.17,1.48,1.48,0,0,1,.51.44v-2.18h.74v6.08Zm-2.36-2.2a1.92,1.92,0,0,0,.36,1.27,1.08,1.08,0,0,0,.84.42,1.06,1.06,0,0,0,.83-.4,1.85,1.85,0,0,0,.34-1.22,2.07,2.07,0,0,0-.35-1.33,1.07,1.07,0,0,0-.86-.42,1,1,0,0,0-.83.41A2,2,0,0,0,190.06,108.11Z"/><path d="M197.31,108.89l.77.1a1.89,1.89,0,0,1-.68,1.05,2,2,0,0,1-1.26.37,2,2,0,0,1-1.53-.6,2.32,2.32,0,0,1-.57-1.67,2.43,2.43,0,0,1,.57-1.73,1.94,1.94,0,0,1,1.49-.61,1.89,1.89,0,0,1,1.44.6,2.39,2.39,0,0,1,.56,1.69s0,.11,0,.2h-3.29a1.7,1.7,0,0,0,.41,1.11,1.23,1.23,0,0,0,.92.39,1.15,1.15,0,0,0,.7-.22A1.44,1.44,0,0,0,197.31,108.89Zm-2.45-1.21h2.46a1.49,1.49,0,0,0-.28-.83,1.15,1.15,0,0,0-.93-.43,1.19,1.19,0,0,0-.87.34A1.37,1.37,0,0,0,194.86,107.68Z"/><path d="M200.65,109.64l.11.66a2.79,2.79,0,0,1-.56.07,1.28,1.28,0,0,1-.63-.13.72.72,0,0,1-.31-.34,2.65,2.65,0,0,1-.09-.88v-2.54h-.55v-.58h.55v-1.09l.74-.45v1.54h.75v.58h-.75v2.58a1.31,1.31,0,0,0,0,.41.31.31,0,0,0,.13.14.49.49,0,0,0,.25.05Z"/><path d="M204.4,108.89l.77.1a1.89,1.89,0,0,1-.68,1.05,2,2,0,0,1-1.26.37,2,2,0,0,1-1.53-.6,2.32,2.32,0,0,1-.57-1.67,2.43,2.43,0,0,1,.57-1.73,1.94,1.94,0,0,1,1.49-.61,1.89,1.89,0,0,1,1.44.6,2.39,2.39,0,0,1,.56,1.69s0,.11,0,.2H201.9a1.7,1.7,0,0,0,.41,1.11,1.23,1.23,0,0,0,.92.39,1.15,1.15,0,0,0,.7-.22A1.44,1.44,0,0,0,204.4,108.89Zm-2.45-1.21h2.46a1.49,1.49,0,0,0-.28-.83,1.15,1.15,0,0,0-.93-.43,1.19,1.19,0,0,0-.87.34A1.37,1.37,0,0,0,201.94,107.68Z"/><path d="M209,108.69l.73.09a1.9,1.9,0,0,1-.62,1.19,1.79,1.79,0,0,1-1.22.43,1.89,1.89,0,0,1-1.46-.59,2.4,2.4,0,0,1-.55-1.7,3.08,3.08,0,0,1,.24-1.25,1.66,1.66,0,0,1,.72-.8,2.13,2.13,0,0,1,1.05-.27,1.83,1.83,0,0,1,1.17.36,1.67,1.67,0,0,1,.58,1l-.73.11a1.21,1.21,0,0,0-.37-.67,1,1,0,0,0-.64-.22,1.16,1.16,0,0,0-.92.4,1.92,1.92,0,0,0-.35,1.28,2,2,0,0,0,.34,1.29,1.11,1.11,0,0,0,.89.4,1,1,0,0,0,.73-.27A1.34,1.34,0,0,0,209,108.69Z"/><path d="M212,109.64l.11.66a2.79,2.79,0,0,1-.56.07,1.28,1.28,0,0,1-.63-.13.72.72,0,0,1-.31-.34,2.65,2.65,0,0,1-.09-.88v-2.54h-.55v-.58h.55v-1.09l.74-.45v1.54H212v.58h-.75v2.58a1.31,1.31,0,0,0,0,.41.31.31,0,0,0,.13.14.49.49,0,0,0,.25.05Z"/><path d="M212.44,108.1a2.27,2.27,0,0,1,.68-1.81,2.05,2.05,0,0,1,1.39-.49,2,2,0,0,1,1.49.6,2.26,2.26,0,0,1,.58,1.65,2.91,2.91,0,0,1-.26,1.34,1.8,1.8,0,0,1-.74.76,2.17,2.17,0,0,1-1.06.27,2,2,0,0,1-1.5-.59A2.37,2.37,0,0,1,212.44,108.1Zm.77,0a1.88,1.88,0,0,0,.37,1.27,1.23,1.23,0,0,0,1.85,0,1.93,1.93,0,0,0,.37-1.29,1.82,1.82,0,0,0-.37-1.24,1.23,1.23,0,0,0-1.85,0A1.86,1.86,0,0,0,213.21,108.1Z"/><path d="M217.44,110.31V105.9h.67v.67a1.82,1.82,0,0,1,.47-.62.83.83,0,0,1,.48-.15,1.46,1.46,0,0,1,.77.24l-.26.69a1.06,1.06,0,0,0-.55-.16.72.72,0,0,0-.44.15.79.79,0,0,0-.28.41,2.91,2.91,0,0,0-.12.87v2.31Z"/><path d="M220,109l.74-.12a1,1,0,0,0,.35.68,1.21,1.21,0,0,0,.79.24,1.17,1.17,0,0,0,.76-.21.63.63,0,0,0,.25-.49.45.45,0,0,0-.22-.4,3.22,3.22,0,0,0-.76-.25,7,7,0,0,1-1.14-.36,1.09,1.09,0,0,1-.65-1,1.14,1.14,0,0,1,.13-.55,1.22,1.22,0,0,1,.37-.42,1.53,1.53,0,0,1,.47-.22,2.26,2.26,0,0,1,.65-.09,2.55,2.55,0,0,1,.91.15,1.24,1.24,0,0,1,.58.4,1.58,1.58,0,0,1,.26.68l-.73.1a.8.8,0,0,0-.29-.53,1.06,1.06,0,0,0-.67-.19,1.22,1.22,0,0,0-.73.17.5.5,0,0,0-.22.4.42.42,0,0,0,.09.26.66.66,0,0,0,.29.2l.66.19A9.32,9.32,0,0,1,223,108a1.12,1.12,0,0,1,.49.39,1.1,1.1,0,0,1,.18.64,1.25,1.25,0,0,1-.22.7,1.4,1.4,0,0,1-.63.51,2.29,2.29,0,0,1-.93.18,2.07,2.07,0,0,1-1.31-.36A1.66,1.66,0,0,1,220,109Z"/><path d="M229.76,109.77a2.77,2.77,0,0,1-.8.5,2.31,2.31,0,0,1-.82.15,1.6,1.6,0,0,1-1.12-.35,1.17,1.17,0,0,1-.39-.91,1.21,1.21,0,0,1,.15-.59,1.24,1.24,0,0,1,.39-.43,1.83,1.83,0,0,1,.54-.24,5.3,5.3,0,0,1,.66-.11,6.78,6.78,0,0,0,1.33-.26c0-.1,0-.17,0-.2a.83.83,0,0,0-.21-.64,1.25,1.25,0,0,0-.85-.25,1.32,1.32,0,0,0-.78.18,1.12,1.12,0,0,0-.37.65l-.73-.1a1.81,1.81,0,0,1,.33-.76,1.43,1.43,0,0,1,.66-.44,3,3,0,0,1,1-.16,2.64,2.64,0,0,1,.92.13,1.19,1.19,0,0,1,.52.33,1.16,1.16,0,0,1,.23.51,4.14,4.14,0,0,1,0,.69v1a10.47,10.47,0,0,0,0,1.32,1.65,1.65,0,0,0,.19.53h-.78A1.6,1.6,0,0,1,229.76,109.77Zm-.06-1.67a5.53,5.53,0,0,1-1.22.28,2.8,2.8,0,0,0-.65.15.64.64,0,0,0-.4.6.64.64,0,0,0,.23.5,1,1,0,0,0,.66.2,1.54,1.54,0,0,0,.77-.19,1.16,1.16,0,0,0,.49-.52,1.81,1.81,0,0,0,.12-.75Z"/><path d="M231.61,110.31V105.9h.67v.67a1.82,1.82,0,0,1,.47-.62.83.83,0,0,1,.48-.15,1.46,1.46,0,0,1,.77.24l-.26.69a1.06,1.06,0,0,0-.55-.16.72.72,0,0,0-.44.15.79.79,0,0,0-.28.41,2.91,2.91,0,0,0-.12.87v2.31Z"/><path d="M237.46,108.89l.77.1a1.89,1.89,0,0,1-.68,1.05,2,2,0,0,1-1.26.37,2,2,0,0,1-1.53-.6,2.32,2.32,0,0,1-.57-1.67,2.43,2.43,0,0,1,.57-1.73,1.94,1.94,0,0,1,1.49-.61,1.89,1.89,0,0,1,1.44.6,2.39,2.39,0,0,1,.56,1.69s0,.11,0,.2H235a1.7,1.7,0,0,0,.41,1.11,1.23,1.23,0,0,0,.92.39,1.15,1.15,0,0,0,.7-.22A1.44,1.44,0,0,0,237.46,108.89ZM235,107.68h2.46a1.49,1.49,0,0,0-.28-.83,1.15,1.15,0,0,0-.93-.43,1.19,1.19,0,0,0-.87.34A1.37,1.37,0,0,0,235,107.68Z"/><path d="M90.38,120a2.78,2.78,0,0,1-.8.5,2.31,2.31,0,0,1-.82.15,1.6,1.6,0,0,1-1.12-.35,1.17,1.17,0,0,1-.39-.91,1.21,1.21,0,0,1,.15-.59,1.23,1.23,0,0,1,.39-.43,1.81,1.81,0,0,1,.54-.24A5.3,5.3,0,0,1,89,118a6.85,6.85,0,0,0,1.33-.26c0-.1,0-.17,0-.2a.83.83,0,0,0-.21-.64,1.25,1.25,0,0,0-.85-.25,1.32,1.32,0,0,0-.78.18,1.13,1.13,0,0,0-.37.65l-.73-.1a1.81,1.81,0,0,1,.33-.76,1.43,1.43,0,0,1,.66-.44,3,3,0,0,1,1-.16,2.66,2.66,0,0,1,.92.13,1.21,1.21,0,0,1,.52.33A1.17,1.17,0,0,1,91,117a4.21,4.21,0,0,1,0,.69v1a10.61,10.61,0,0,0,0,1.32,1.65,1.65,0,0,0,.19.53h-.78A1.58,1.58,0,0,1,90.38,120Zm-.06-1.67a5.53,5.53,0,0,1-1.22.28,2.79,2.79,0,0,0-.65.15.65.65,0,0,0-.17,1.1,1,1,0,0,0,.66.2,1.54,1.54,0,0,0,.77-.19,1.16,1.16,0,0,0,.49-.52,1.81,1.81,0,0,0,.12-.75Z"/><path d="M93.45,120.51l-1.68-4.41h.79l.95,2.64q.15.43.28.89.1-.35.28-.84l1-2.69h.77l-1.67,4.41Z"/><path d="M99.36,120a2.78,2.78,0,0,1-.8.5,2.31,2.31,0,0,1-.82.15,1.6,1.6,0,0,1-1.12-.35,1.17,1.17,0,0,1-.39-.91,1.21,1.21,0,0,1,.15-.59,1.23,1.23,0,0,1,.39-.43,1.81,1.81,0,0,1,.54-.24A5.3,5.3,0,0,1,98,118a6.85,6.85,0,0,0,1.33-.26c0-.1,0-.17,0-.2a.83.83,0,0,0-.21-.64,1.25,1.25,0,0,0-.85-.25,1.32,1.32,0,0,0-.78.18,1.13,1.13,0,0,0-.37.65l-.73-.1a1.81,1.81,0,0,1,.33-.76,1.43,1.43,0,0,1,.66-.44,3,3,0,0,1,1-.16,2.66,2.66,0,0,1,.92.13,1.21,1.21,0,0,1,.52.33,1.17,1.17,0,0,1,.23.51,4.21,4.21,0,0,1,0,.69v1a10.61,10.61,0,0,0,0,1.32,1.65,1.65,0,0,0,.19.53H99.5A1.58,1.58,0,0,1,99.36,120Zm-.06-1.67a5.53,5.53,0,0,1-1.22.28,2.79,2.79,0,0,0-.65.15.65.65,0,0,0-.17,1.1,1,1,0,0,0,.66.2,1.54,1.54,0,0,0,.77-.19,1.16,1.16,0,0,0,.49-.52,1.81,1.81,0,0,0,.12-.75Z"/><path d="M101.21,115.28v-.86H102v.86Zm0,5.23V116.1H102v4.41Z"/><path d="M103.08,120.51v-6.08h.75v6.08Z"/><path d="M107.86,120a2.78,2.78,0,0,1-.8.5,2.31,2.31,0,0,1-.82.15,1.6,1.6,0,0,1-1.12-.35,1.17,1.17,0,0,1-.39-.91,1.21,1.21,0,0,1,.15-.59,1.23,1.23,0,0,1,.39-.43,1.81,1.81,0,0,1,.54-.24,5.3,5.3,0,0,1,.66-.11,6.85,6.85,0,0,0,1.33-.26c0-.1,0-.17,0-.2a.83.83,0,0,0-.21-.64,1.25,1.25,0,0,0-.85-.25,1.32,1.32,0,0,0-.78.18,1.13,1.13,0,0,0-.37.65l-.73-.1a1.81,1.81,0,0,1,.33-.76,1.43,1.43,0,0,1,.66-.44,3,3,0,0,1,1-.16,2.66,2.66,0,0,1,.92.13,1.21,1.21,0,0,1,.52.33,1.17,1.17,0,0,1,.23.51,4.21,4.21,0,0,1,0,.69v1a10.61,10.61,0,0,0,0,1.32,1.65,1.65,0,0,0,.19.53H108A1.58,1.58,0,0,1,107.86,120Zm-.06-1.67a5.53,5.53,0,0,1-1.22.28,2.79,2.79,0,0,0-.65.15.65.65,0,0,0-.17,1.1,1,1,0,0,0,.66.2,1.54,1.54,0,0,0,.77-.19,1.16,1.16,0,0,0,.49-.52,1.81,1.81,0,0,0,.12-.75Z"/><path d="M110.4,120.51h-.69v-6.08h.75v2.17a1.48,1.48,0,0,1,1.21-.59,1.85,1.85,0,0,1,.77.16,1.57,1.57,0,0,1,.6.46,2.22,2.22,0,0,1,.37.72,3,3,0,0,1,.13.9A2.52,2.52,0,0,1,113,120a1.75,1.75,0,0,1-1.34.62,1.4,1.4,0,0,1-1.22-.65Zm0-2.24a2.29,2.29,0,0,0,.22,1.15,1.07,1.07,0,0,0,1.8.15,1.93,1.93,0,0,0,.36-1.27,2,2,0,0,0-.34-1.27,1,1,0,0,0-.83-.41,1.08,1.08,0,0,0-.85.42A1.87,1.87,0,0,0,110.39,118.27Z"/><path d="M114.42,120.51v-6.08h.75v6.08Z"/><path d="M119.34,119.09l.77.1a1.89,1.89,0,0,1-.68,1.05,2,2,0,0,1-1.26.37,2,2,0,0,1-1.53-.6,2.32,2.32,0,0,1-.57-1.67,2.43,2.43,0,0,1,.57-1.73,1.94,1.94,0,0,1,1.49-.62,1.89,1.89,0,0,1,1.44.6,2.39,2.39,0,0,1,.56,1.69s0,.11,0,.2h-3.29a1.7,1.7,0,0,0,.41,1.11,1.23,1.23,0,0,0,.92.39,1.15,1.15,0,0,0,.7-.22A1.44,1.44,0,0,0,119.34,119.09Zm-2.45-1.21h2.46a1.49,1.49,0,0,0-.28-.83,1.15,1.15,0,0,0-.93-.43,1.19,1.19,0,0,0-.87.34A1.36,1.36,0,0,0,116.89,117.88Z"/><path d="M121.26,120.51v-.85h.85v.85Z"/><circle cx="81.4" cy="52.53" r="1.76"/><circle cx="81.4" cy="85.65" r="1.76"/><circle cx="81.4" cy="107.64" r="1.76"/><path d="M87.35,85.28a3.31,3.31,0,0,1,.81-2.37,2.77,2.77,0,0,1,2.1-.86,2.92,2.92,0,0,1,1.52.4,2.64,2.64,0,0,1,1,1.12,3.65,3.65,0,0,1,.35,1.63,3.58,3.58,0,0,1-.37,1.66A2.55,2.55,0,0,1,91.74,88a3,3,0,0,1-1.48.38,2.87,2.87,0,0,1-1.54-.42,2.66,2.66,0,0,1-1-1.13A3.43,3.43,0,0,1,87.35,85.28Zm.83,0A2.44,2.44,0,0,0,88.77,87a2.06,2.06,0,0,0,3,0,2.58,2.58,0,0,0,.59-1.81,3.12,3.12,0,0,0-.25-1.3,1.94,1.94,0,0,0-.73-.86,2,2,0,0,0-1.09-.3,2.05,2.05,0,0,0-1.47.59A2.62,2.62,0,0,0,88.18,85.29Z"/><path d="M95.34,88.24l-1.68-4.41h.79l.95,2.64q.15.43.28.89.1-.35.28-.84l1-2.69h.77L96,88.24Z"/><path d="M101.38,86.82l.77.1a1.88,1.88,0,0,1-.68,1,2.29,2.29,0,0,1-2.79-.22,2.33,2.33,0,0,1-.57-1.67,2.44,2.44,0,0,1,.57-1.73,1.94,1.94,0,0,1,1.49-.61,1.89,1.89,0,0,1,1.44.6,2.39,2.39,0,0,1,.56,1.69s0,.11,0,.2H98.88a1.7,1.7,0,0,0,.41,1.11,1.23,1.23,0,0,0,.92.38,1.15,1.15,0,0,0,.7-.21A1.44,1.44,0,0,0,101.38,86.82Zm-2.45-1.21h2.46a1.5,1.5,0,0,0-.28-.83,1.14,1.14,0,0,0-.93-.43,1.18,1.18,0,0,0-.87.34A1.36,1.36,0,0,0,98.93,85.61Z"/><path d="M103.08,88.24V83.83h.67v.67a1.82,1.82,0,0,1,.48-.62.83.83,0,0,1,.48-.15,1.46,1.46,0,0,1,.77.24l-.26.69a1.07,1.07,0,0,0-.55-.16.71.71,0,0,0-.44.15.8.8,0,0,0-.28.41,2.91,2.91,0,0,0-.12.87v2.31Z"/><path d="M106.1,88.24V84.41h-.66v-.58h.66v-.47a2.07,2.07,0,0,1,.08-.66,1,1,0,0,1,.38-.47,1.36,1.36,0,0,1,.76-.18,3.59,3.59,0,0,1,.7.08l-.11.65a2.53,2.53,0,0,0-.44,0,.66.66,0,0,0-.48.14.79.79,0,0,0-.14.54v.41h.86v.58h-.86v3.83Z"/><path d="M108.29,83v-.86H109V83Zm0,5.23V83.83H109v4.41Z"/><path d="M110.16,88.24V83.83h.67v.67a1.82,1.82,0,0,1,.48-.62.83.83,0,0,1,.48-.15,1.46,1.46,0,0,1,.77.24l-.26.69a1.07,1.07,0,0,0-.55-.16.71.71,0,0,0-.44.15.8.8,0,0,0-.28.41,2.91,2.91,0,0,0-.12.87v2.31Z"/><path d="M113,83v-.86h.75V83Zm0,5.23V83.83h.75v4.41Z"/><path d="M114.89,88.24V83.83h.67v.63a1.59,1.59,0,0,1,1.4-.73,1.85,1.85,0,0,1,.73.14,1.15,1.15,0,0,1,.5.38,1.43,1.43,0,0,1,.23.55,4.27,4.27,0,0,1,0,.73v2.71h-.75V85.56a2,2,0,0,0-.09-.68.71.71,0,0,0-.31-.36,1,1,0,0,0-.52-.13,1.21,1.21,0,0,0-.82.3,1.49,1.49,0,0,0-.35,1.15v2.41Z"/><path d="M119.48,88.61l.73.11a.7.7,0,0,0,.25.49,1.25,1.25,0,0,0,.76.21,1.34,1.34,0,0,0,.8-.21,1,1,0,0,0,.38-.58,4.8,4.8,0,0,0,.05-1,1.54,1.54,0,0,1-1.22.58,1.66,1.66,0,0,1-1.41-.66,2.52,2.52,0,0,1-.5-1.57,2.93,2.93,0,0,1,.23-1.17,1.83,1.83,0,0,1,.66-.82,1.78,1.78,0,0,1,1-.29,1.58,1.58,0,0,1,1.29.63v-.53h.69v3.81A3.62,3.62,0,0,1,123,89.1a1.54,1.54,0,0,1-.66.68,2.3,2.3,0,0,1-1.12.25,2.11,2.11,0,0,1-1.27-.36A1.2,1.2,0,0,1,119.48,88.61ZM120.1,86a1.91,1.91,0,0,0,.34,1.27,1.14,1.14,0,0,0,1.73,0,1.85,1.85,0,0,0,.35-1.24,1.81,1.81,0,0,0-.36-1.22,1.11,1.11,0,0,0-.87-.41,1.08,1.08,0,0,0-.85.4A1.8,1.8,0,0,0,120.1,86Z"/><path d="M129.58,86.63l.73.1a1.91,1.91,0,0,1-.62,1.19,1.79,1.79,0,0,1-1.22.43,1.89,1.89,0,0,1-1.46-.59,2.4,2.4,0,0,1-.55-1.7,3.1,3.1,0,0,1,.24-1.25,1.66,1.66,0,0,1,.72-.8,2.15,2.15,0,0,1,1.05-.27,1.83,1.83,0,0,1,1.17.36,1.67,1.67,0,0,1,.59,1l-.73.11a1.21,1.21,0,0,0-.37-.67,1,1,0,0,0-.64-.22,1.16,1.16,0,0,0-.92.41,1.92,1.92,0,0,0-.35,1.28,2,2,0,0,0,.34,1.29,1.1,1.1,0,0,0,.89.4,1,1,0,0,0,.74-.27A1.34,1.34,0,0,0,129.58,86.63Z"/><path d="M130.68,86a2.27,2.27,0,0,1,.68-1.81,2,2,0,0,1,1.39-.49,2,2,0,0,1,1.49.6,2.26,2.26,0,0,1,.58,1.65,2.92,2.92,0,0,1-.25,1.34,1.82,1.82,0,0,1-.74.76,2.16,2.16,0,0,1-1.06.27,2,2,0,0,1-1.5-.59A2.37,2.37,0,0,1,130.68,86Zm.77,0a1.88,1.88,0,0,0,.37,1.27,1.23,1.23,0,0,0,1.86,0A1.92,1.92,0,0,0,134,86a1.83,1.83,0,0,0-.37-1.24,1.23,1.23,0,0,0-1.85,0A1.87,1.87,0,0,0,131.45,86Z"/><path d="M138.57,88.24v-.65a1.61,1.61,0,0,1-1.4.75,1.79,1.79,0,0,1-.73-.15,1.21,1.21,0,0,1-.5-.37,1.42,1.42,0,0,1-.23-.55,3.91,3.91,0,0,1,0-.7V83.83h.75v2.45a4.26,4.26,0,0,0,0,.79.77.77,0,0,0,.3.46.92.92,0,0,0,.56.17,1.23,1.23,0,0,0,.63-.17,1,1,0,0,0,.42-.47,2.34,2.34,0,0,0,.12-.86V83.83h.75v4.41Z"/><path d="M140.39,88.24V82.16h.75v6.08Z"/><path d="M145.16,88.24v-.56a1.37,1.37,0,0,1-1.23.66,1.73,1.73,0,0,1-1-.29,1.91,1.91,0,0,1-.69-.81A2.8,2.8,0,0,1,142,86a3.12,3.12,0,0,1,.22-1.2,1.73,1.73,0,0,1,.66-.82,1.76,1.76,0,0,1,1-.29,1.47,1.47,0,0,1,1.22.61V82.16h.74v6.08ZM142.8,86a1.92,1.92,0,0,0,.36,1.27,1.08,1.08,0,0,0,.84.42,1.06,1.06,0,0,0,.83-.4,1.84,1.84,0,0,0,.34-1.22,2.08,2.08,0,0,0-.35-1.33,1.07,1.07,0,0,0-.86-.42,1,1,0,0,0-.83.41A2,2,0,0,0,142.8,86Z"/><path d="M149.38,88.24V83.83h.67v.67a1.8,1.8,0,0,1,.48-.62.83.83,0,0,1,.48-.15,1.46,1.46,0,0,1,.77.24l-.26.69a1.07,1.07,0,0,0-.55-.16.71.71,0,0,0-.44.15.79.79,0,0,0-.28.41,2.91,2.91,0,0,0-.12.87v2.31Z"/><path d="M155.23,86.82l.77.1a1.88,1.88,0,0,1-.68,1,2.29,2.29,0,0,1-2.79-.22,2.33,2.33,0,0,1-.57-1.67,2.44,2.44,0,0,1,.57-1.73,1.94,1.94,0,0,1,1.49-.61,1.89,1.89,0,0,1,1.44.6A2.39,2.39,0,0,1,156,86s0,.11,0,.2h-3.29a1.7,1.7,0,0,0,.41,1.11,1.23,1.23,0,0,0,.92.38,1.15,1.15,0,0,0,.7-.21A1.44,1.44,0,0,0,155.23,86.82Zm-2.45-1.21h2.46a1.5,1.5,0,0,0-.28-.83,1.15,1.15,0,0,0-.93-.43,1.18,1.18,0,0,0-.87.34A1.36,1.36,0,0,0,152.78,85.61Z"/><path d="M156.65,86.92l.74-.12a1,1,0,0,0,.35.68,1.2,1.2,0,0,0,.79.24,1.17,1.17,0,0,0,.76-.21.63.63,0,0,0,.25-.49.46.46,0,0,0-.22-.4,3.26,3.26,0,0,0-.76-.25,7,7,0,0,1-1.14-.36,1.09,1.09,0,0,1-.65-1,1.14,1.14,0,0,1,.14-.54,1.21,1.21,0,0,1,.37-.42,1.5,1.5,0,0,1,.47-.22,2.23,2.23,0,0,1,.65-.09,2.55,2.55,0,0,1,.91.15,1.24,1.24,0,0,1,.58.41,1.58,1.58,0,0,1,.26.68l-.73.1a.8.8,0,0,0-.29-.53,1.06,1.06,0,0,0-.67-.19,1.21,1.21,0,0,0-.73.17.5.5,0,0,0-.22.4.41.41,0,0,0,.09.26.66.66,0,0,0,.29.2l.66.19a9.27,9.27,0,0,1,1.11.35,1.13,1.13,0,0,1,.49.39,1.09,1.09,0,0,1,.18.64,1.26,1.26,0,0,1-.22.7,1.4,1.4,0,0,1-.63.51,2.27,2.27,0,0,1-.93.18,2.07,2.07,0,0,1-1.31-.36A1.66,1.66,0,0,1,156.65,86.92Z"/><path d="M164.08,88.24v-.65a1.62,1.62,0,0,1-1.4.75,1.78,1.78,0,0,1-.73-.15,1.2,1.2,0,0,1-.5-.37,1.4,1.4,0,0,1-.23-.55,3.71,3.71,0,0,1,0-.7V83.83h.75v2.45a4.48,4.48,0,0,0,0,.79.77.77,0,0,0,.3.46.92.92,0,0,0,.56.17,1.22,1.22,0,0,0,.63-.17,1,1,0,0,0,.42-.47,2.36,2.36,0,0,0,.12-.86V83.83h.75v4.41Z"/><path d="M165.91,88.24V82.16h.75v6.08Z"/><path d="M169.44,87.57l.11.66a2.79,2.79,0,0,1-.56.07,1.29,1.29,0,0,1-.63-.13.72.72,0,0,1-.32-.34,2.68,2.68,0,0,1-.09-.88V84.41h-.55v-.58h.55V82.74l.74-.45v1.54h.75v.58h-.75V87a1.28,1.28,0,0,0,0,.41.3.3,0,0,0,.13.15.5.5,0,0,0,.25.05Z"/><path d="M172.54,83v-.86h.75V83Zm0,5.23V83.83h.75v4.41Z"/><path d="M174.42,88.24V83.83h.67v.63a1.59,1.59,0,0,1,1.4-.73,1.85,1.85,0,0,1,.73.14,1.15,1.15,0,0,1,.5.38,1.43,1.43,0,0,1,.23.55,4.34,4.34,0,0,1,0,.73v2.71h-.75V85.56a2,2,0,0,0-.09-.68.72.72,0,0,0-.31-.36,1,1,0,0,0-.52-.13,1.21,1.21,0,0,0-.82.3,1.49,1.49,0,0,0-.35,1.15v2.41Z"/><path d="M181.69,88.24V84.41H181v-.58h.66v-.47a2.08,2.08,0,0,1,.08-.66,1,1,0,0,1,.38-.47,1.36,1.36,0,0,1,.76-.18,3.58,3.58,0,0,1,.7.08l-.11.65a2.54,2.54,0,0,0-.44,0,.66.66,0,0,0-.48.14.79.79,0,0,0-.14.54v.41h.86v.58h-.86v3.83Z"/><path d="M183.88,83v-.86h.75V83Zm0,5.23V83.83h.75v4.41Z"/><path d="M185.75,88.24V83.83h.67v.67a1.84,1.84,0,0,1,.47-.62.83.83,0,0,1,.48-.15,1.46,1.46,0,0,1,.77.24l-.26.69a1.07,1.07,0,0,0-.55-.16.71.71,0,0,0-.44.15.8.8,0,0,0-.28.41,2.91,2.91,0,0,0-.12.87v2.31Z"/><path d="M191.61,86.82l.77.1a1.88,1.88,0,0,1-.68,1,2.29,2.29,0,0,1-2.79-.22,2.33,2.33,0,0,1-.57-1.67,2.44,2.44,0,0,1,.57-1.73,1.94,1.94,0,0,1,1.49-.61,1.89,1.89,0,0,1,1.44.6,2.39,2.39,0,0,1,.56,1.69s0,.11,0,.2h-3.29a1.7,1.7,0,0,0,.41,1.11,1.23,1.23,0,0,0,.92.38,1.14,1.14,0,0,0,.7-.21A1.44,1.44,0,0,0,191.61,86.82Zm-2.45-1.21h2.46a1.49,1.49,0,0,0-.28-.83,1.14,1.14,0,0,0-.93-.43,1.18,1.18,0,0,0-.87.34A1.36,1.36,0,0,0,189.16,85.61Z"/><path d="M195.4,86a2.27,2.27,0,0,1,.68-1.81,2,2,0,0,1,1.39-.49,2,2,0,0,1,1.49.6,2.26,2.26,0,0,1,.58,1.65,2.92,2.92,0,0,1-.25,1.34,1.82,1.82,0,0,1-.74.76,2.16,2.16,0,0,1-1.06.27,2,2,0,0,1-1.5-.59A2.38,2.38,0,0,1,195.4,86Zm.77,0a1.88,1.88,0,0,0,.37,1.27,1.23,1.23,0,0,0,1.86,0,1.92,1.92,0,0,0,.37-1.29,1.82,1.82,0,0,0-.37-1.24,1.23,1.23,0,0,0-1.85,0A1.87,1.87,0,0,0,196.17,86Z"/><path d="M200.4,88.24V83.83h.67v.67a1.84,1.84,0,0,1,.47-.62.83.83,0,0,1,.48-.15,1.46,1.46,0,0,1,.77.24l-.26.69a1.07,1.07,0,0,0-.55-.16.71.71,0,0,0-.44.15.8.8,0,0,0-.28.41,2.91,2.91,0,0,0-.12.87v2.31Z"/><path d="M90.52,97l.77.09a1.88,1.88,0,0,1-.68,1.05,2.29,2.29,0,0,1-2.79-.22,2.32,2.32,0,0,1-.57-1.67,2.44,2.44,0,0,1,.57-1.73,1.94,1.94,0,0,1,1.49-.61,1.88,1.88,0,0,1,1.44.6,2.39,2.39,0,0,1,.56,1.69s0,.11,0,.2H88a1.7,1.7,0,0,0,.41,1.11,1.22,1.22,0,0,0,.92.39,1.14,1.14,0,0,0,.7-.22A1.43,1.43,0,0,0,90.52,97Zm-2.45-1.21h2.46a1.49,1.49,0,0,0-.28-.83,1.15,1.15,0,0,0-.93-.43,1.19,1.19,0,0,0-.87.34A1.36,1.36,0,0,0,88.07,95.81Z"/><path d="M91.73,98.44l1.61-2.29L91.85,94h.93l.68,1,.31.49.34-.49.74-1h.89l-1.52,2.08,1.64,2.33h-.92L94,97.07l-.24-.37-1.16,1.74Z"/><path d="M96.48,100.13V94h.68v.57a1.67,1.67,0,0,1,.54-.5,1.49,1.49,0,0,1,.73-.17,1.75,1.75,0,0,1,1,.29,1.78,1.78,0,0,1,.65.82,3,3,0,0,1,.22,1.16,2.94,2.94,0,0,1-.24,1.22,1.84,1.84,0,0,1-1.68,1.12,1.41,1.41,0,0,1-.67-.16,1.51,1.51,0,0,1-.49-.4v2.15Zm.68-3.87a1.92,1.92,0,0,0,.34,1.26,1.06,1.06,0,0,0,.83.41,1.08,1.08,0,0,0,.85-.42,2,2,0,0,0,.35-1.3,2,2,0,0,0-.35-1.26,1,1,0,0,0-.83-.42,1.08,1.08,0,0,0-.84.45A2,2,0,0,0,97.15,96.26Z"/><path d="M101.19,98.44V92.36h.75v6.08Z"/><path d="M102.82,96.24a2.27,2.27,0,0,1,.68-1.81,2.05,2.05,0,0,1,1.39-.49,2,2,0,0,1,1.49.6,2.27,2.27,0,0,1,.58,1.65,2.91,2.91,0,0,1-.26,1.34,1.8,1.8,0,0,1-.74.76,2.16,2.16,0,0,1-1.06.27,2,2,0,0,1-1.5-.59A2.37,2.37,0,0,1,102.82,96.24Zm.77,0A1.88,1.88,0,0,0,104,97.5a1.23,1.23,0,0,0,1.85,0,1.92,1.92,0,0,0,.37-1.29,1.82,1.82,0,0,0-.37-1.24A1.23,1.23,0,0,0,104,95,1.87,1.87,0,0,0,103.58,96.24Z"/><path d="M107.52,97.13l.74-.12a1,1,0,0,0,.35.68,1.22,1.22,0,0,0,.79.24,1.17,1.17,0,0,0,.76-.21.63.63,0,0,0,.25-.49.45.45,0,0,0-.22-.4,3.25,3.25,0,0,0-.76-.25,7,7,0,0,1-1.14-.36,1.09,1.09,0,0,1-.65-1,1.14,1.14,0,0,1,.14-.55,1.21,1.21,0,0,1,.37-.42,1.56,1.56,0,0,1,.48-.22,2.29,2.29,0,0,1,.65-.09,2.55,2.55,0,0,1,.91.15,1.24,1.24,0,0,1,.58.4,1.59,1.59,0,0,1,.26.68l-.73.1a.8.8,0,0,0-.29-.53,1.05,1.05,0,0,0-.67-.19,1.22,1.22,0,0,0-.73.17.5.5,0,0,0-.22.4.41.41,0,0,0,.09.26.66.66,0,0,0,.29.2l.66.19a9.15,9.15,0,0,1,1.11.35,1.12,1.12,0,0,1,.49.39,1.09,1.09,0,0,1,.18.64,1.25,1.25,0,0,1-.22.7,1.41,1.41,0,0,1-.63.51,2.29,2.29,0,0,1-.93.18,2.08,2.08,0,0,1-1.31-.36A1.66,1.66,0,0,1,107.52,97.13Z"/><path d="M112.08,93.22v-.86h.75v.86Zm0,5.22V94h.75v4.41Z"/><path d="M113.68,96.24a2.27,2.27,0,0,1,.68-1.81,2.05,2.05,0,0,1,1.39-.49,2,2,0,0,1,1.49.6,2.27,2.27,0,0,1,.58,1.65,2.91,2.91,0,0,1-.26,1.34,1.8,1.8,0,0,1-.74.76,2.16,2.16,0,0,1-1.06.27,2,2,0,0,1-1.5-.59A2.37,2.37,0,0,1,113.68,96.24Zm.77,0a1.88,1.88,0,0,0,.37,1.27,1.23,1.23,0,0,0,1.85,0,1.92,1.92,0,0,0,.37-1.29,1.82,1.82,0,0,0-.37-1.24,1.23,1.23,0,0,0-1.85,0A1.87,1.87,0,0,0,114.45,96.24Z"/><path d="M118.69,98.44V94h.67v.63a1.59,1.59,0,0,1,1.4-.73,1.84,1.84,0,0,1,.73.14,1.16,1.16,0,0,1,.5.38,1.45,1.45,0,0,1,.23.55,4.25,4.25,0,0,1,0,.73v2.71h-.75V95.76a2,2,0,0,0-.09-.68.72.72,0,0,0-.31-.36,1,1,0,0,0-.52-.13,1.21,1.21,0,0,0-.82.3,1.5,1.5,0,0,0-.35,1.15v2.41Z"/><path d="M123.63,98.44v-.85h.85v.85Z"/><path d="M91.59,49.27h.81v3.52a4.17,4.17,0,0,1-.21,1.46,1.78,1.78,0,0,1-.75.88,2.65,2.65,0,0,1-1.42.34,2.92,2.92,0,0,1-1.4-.29,1.68,1.68,0,0,1-.78-.85,4.07,4.07,0,0,1-.23-1.53V49.27h.81v3.51a3.43,3.43,0,0,0,.15,1.17,1.12,1.12,0,0,0,.51.58,1.76,1.76,0,0,0,.88.2,1.68,1.68,0,0,0,1.27-.4,2.32,2.32,0,0,0,.38-1.55Z"/><path d="M93.64,55.35V50.94h.67v.63a1.59,1.59,0,0,1,1.4-.73,1.84,1.84,0,0,1,.73.14,1.15,1.15,0,0,1,.5.38,1.44,1.44,0,0,1,.23.55,4.26,4.26,0,0,1,0,.73v2.71h-.75V52.67a2,2,0,0,0-.09-.68.72.72,0,0,0-.31-.36,1,1,0,0,0-.52-.13,1.21,1.21,0,0,0-.82.3,1.49,1.49,0,0,0-.35,1.15v2.41Z"/><path d="M101.23,55.35V54.8a1.37,1.37,0,0,1-1.23.66,1.73,1.73,0,0,1-1-.29,1.91,1.91,0,0,1-.69-.81,2.81,2.81,0,0,1-.24-1.2,3.13,3.13,0,0,1,.22-1.2,1.73,1.73,0,0,1,.66-.82,1.76,1.76,0,0,1,1-.29,1.47,1.47,0,0,1,.71.17,1.49,1.49,0,0,1,.51.44V49.27h.74v6.08Zm-2.36-2.2a1.92,1.92,0,0,0,.36,1.27,1.08,1.08,0,0,0,.84.42,1.06,1.06,0,0,0,.83-.4,1.85,1.85,0,0,0,.34-1.22,2.07,2.07,0,0,0-.35-1.33,1.07,1.07,0,0,0-.86-.42,1,1,0,0,0-.83.41A2,2,0,0,0,98.86,53.15Z"/><path d="M106.11,53.93l.77.1a1.88,1.88,0,0,1-.68,1.05,2.29,2.29,0,0,1-2.79-.22,2.33,2.33,0,0,1-.57-1.67,2.44,2.44,0,0,1,.57-1.73,1.94,1.94,0,0,1,1.49-.61,1.89,1.89,0,0,1,1.44.6,2.39,2.39,0,0,1,.56,1.69s0,.11,0,.2h-3.29a1.7,1.7,0,0,0,.41,1.11,1.22,1.22,0,0,0,.92.39,1.14,1.14,0,0,0,.7-.22A1.43,1.43,0,0,0,106.11,53.93Zm-2.45-1.21h2.46a1.49,1.49,0,0,0-.28-.83,1.15,1.15,0,0,0-.93-.43,1.19,1.19,0,0,0-.87.34A1.36,1.36,0,0,0,103.66,52.73Z"/><path d="M107.81,55.35V50.94h.67v.67A1.82,1.82,0,0,1,109,51a.83.83,0,0,1,.48-.15,1.46,1.46,0,0,1,.77.24l-.26.69a1.06,1.06,0,0,0-.55-.16.71.71,0,0,0-.44.15.8.8,0,0,0-.28.41,2.91,2.91,0,0,0-.12.87v2.31Z"/><path d="M113,55.35V50.94h.67v.63a1.59,1.59,0,0,1,1.4-.73,1.84,1.84,0,0,1,.73.14,1.15,1.15,0,0,1,.5.38,1.44,1.44,0,0,1,.23.55,4.26,4.26,0,0,1,0,.73v2.71h-.75V52.67a2,2,0,0,0-.09-.68.72.72,0,0,0-.31-.36,1,1,0,0,0-.52-.13,1.21,1.21,0,0,0-.82.3,1.49,1.49,0,0,0-.35,1.15v2.41Z"/><path d="M117.46,53.15a2.27,2.27,0,0,1,.68-1.81,2.05,2.05,0,0,1,1.39-.49,2,2,0,0,1,1.49.6,2.26,2.26,0,0,1,.58,1.65,2.92,2.92,0,0,1-.26,1.34,1.81,1.81,0,0,1-.74.76,2.16,2.16,0,0,1-1.06.27,2,2,0,0,1-1.5-.59A2.37,2.37,0,0,1,117.46,53.15Zm.77,0a1.88,1.88,0,0,0,.37,1.27,1.23,1.23,0,0,0,1.85,0,1.92,1.92,0,0,0,.37-1.29,1.82,1.82,0,0,0-.37-1.24,1.23,1.23,0,0,0-1.85,0A1.87,1.87,0,0,0,118.23,53.15Z"/><path d="M127.71,53.74l.73.1a1.91,1.91,0,0,1-.62,1.19,1.79,1.79,0,0,1-1.22.43,1.89,1.89,0,0,1-1.46-.59,2.4,2.4,0,0,1-.55-1.7,3.06,3.06,0,0,1,.24-1.25,1.65,1.65,0,0,1,.72-.8,2.14,2.14,0,0,1,1.05-.27,1.83,1.83,0,0,1,1.18.36,1.67,1.67,0,0,1,.58,1l-.73.11a1.2,1.2,0,0,0-.37-.67,1,1,0,0,0-.64-.22,1.16,1.16,0,0,0-.92.4,1.92,1.92,0,0,0-.35,1.28,2,2,0,0,0,.34,1.29,1.11,1.11,0,0,0,.89.4,1,1,0,0,0,.73-.27A1.34,1.34,0,0,0,127.71,53.74Z"/><path d="M129.08,50.13v-.86h.75v.86Zm0,5.23V50.94h.75v4.41Z"/><path d="M131,55.35V50.94h.67v.67a1.8,1.8,0,0,1,.48-.62.83.83,0,0,1,.48-.15,1.45,1.45,0,0,1,.77.24l-.26.69a1.06,1.06,0,0,0-.55-.16.71.71,0,0,0-.44.15.79.79,0,0,0-.28.41,2.91,2.91,0,0,0-.12.87v2.31Z"/><path d="M136.67,53.74l.73.1a1.91,1.91,0,0,1-.62,1.19,1.79,1.79,0,0,1-1.22.43,1.89,1.89,0,0,1-1.46-.59,2.4,2.4,0,0,1-.55-1.7,3.08,3.08,0,0,1,.24-1.25,1.65,1.65,0,0,1,.72-.8,2.14,2.14,0,0,1,1.05-.27,1.83,1.83,0,0,1,1.17.36,1.66,1.66,0,0,1,.58,1l-.73.11a1.21,1.21,0,0,0-.37-.67,1,1,0,0,0-.64-.22,1.16,1.16,0,0,0-.92.4,1.91,1.91,0,0,0-.35,1.28,2,2,0,0,0,.34,1.29,1.11,1.11,0,0,0,.89.4,1,1,0,0,0,.73-.27A1.34,1.34,0,0,0,136.67,53.74Z"/><path d="M140.94,55.35V54.7a1.61,1.61,0,0,1-1.4.75,1.78,1.78,0,0,1-.73-.15,1.19,1.19,0,0,1-.5-.38,1.4,1.4,0,0,1-.23-.55,3.71,3.71,0,0,1,0-.7V50.94h.75v2.44a4.49,4.49,0,0,0,0,.79.78.78,0,0,0,.3.46.93.93,0,0,0,.56.17,1.23,1.23,0,0,0,.63-.17,1,1,0,0,0,.42-.47,2.37,2.37,0,0,0,.12-.86V50.94h.75v4.41Z"/><path d="M142.78,55.35V50.94h.67v.62A1.57,1.57,0,0,1,144,51a1.55,1.55,0,0,1,.78-.2,1.45,1.45,0,0,1,.8.2,1.09,1.09,0,0,1,.44.57,1.58,1.58,0,0,1,1.36-.77,1.34,1.34,0,0,1,1,.36,1.55,1.55,0,0,1,.35,1.12v3H148V52.58a2.06,2.06,0,0,0-.07-.65.62.62,0,0,0-.26-.32.82.82,0,0,0-.45-.12,1,1,0,0,0-.77.31,1.36,1.36,0,0,0-.31,1v2.56h-.75V52.49a1.26,1.26,0,0,0-.18-.75.69.69,0,0,0-.6-.25,1.08,1.08,0,0,0-.58.17.94.94,0,0,0-.39.49,2.74,2.74,0,0,0-.12.92v2.29Z"/><path d="M149.56,54l.74-.12a1,1,0,0,0,.35.68,1.21,1.21,0,0,0,.79.24,1.17,1.17,0,0,0,.76-.21.63.63,0,0,0,.25-.49.45.45,0,0,0-.22-.4,3.26,3.26,0,0,0-.76-.25,7,7,0,0,1-1.14-.36,1.09,1.09,0,0,1-.65-1,1.14,1.14,0,0,1,.13-.55,1.22,1.22,0,0,1,.37-.42,1.56,1.56,0,0,1,.48-.22,2.26,2.26,0,0,1,.65-.09,2.55,2.55,0,0,1,.91.15,1.24,1.24,0,0,1,.58.4,1.58,1.58,0,0,1,.26.68l-.73.1a.8.8,0,0,0-.29-.53,1.05,1.05,0,0,0-.67-.19,1.22,1.22,0,0,0-.73.17.5.5,0,0,0-.22.4.41.41,0,0,0,.09.26.67.67,0,0,0,.29.2l.66.19a9.16,9.16,0,0,1,1.11.35,1.12,1.12,0,0,1,.49.39,1.09,1.09,0,0,1,.18.64,1.25,1.25,0,0,1-.22.7,1.4,1.4,0,0,1-.63.51,2.28,2.28,0,0,1-.93.18,2.07,2.07,0,0,1-1.31-.36A1.66,1.66,0,0,1,149.56,54Z"/><path d="M155.74,54.68l.11.66a2.76,2.76,0,0,1-.56.07,1.28,1.28,0,0,1-.63-.13.72.72,0,0,1-.32-.34,2.69,2.69,0,0,1-.09-.88V51.53h-.55v-.58h.55V49.85l.74-.45v1.54h.75v.58H155V54.1a1.3,1.3,0,0,0,0,.41.31.31,0,0,0,.13.15.49.49,0,0,0,.25.05Z"/><path d="M159.34,54.81a2.78,2.78,0,0,1-.8.5,2.3,2.3,0,0,1-.82.15,1.6,1.6,0,0,1-1.12-.35,1.17,1.17,0,0,1-.39-.91,1.22,1.22,0,0,1,.53-1,1.8,1.8,0,0,1,.54-.24,5.3,5.3,0,0,1,.66-.11,6.81,6.81,0,0,0,1.33-.26c0-.1,0-.17,0-.19a.83.83,0,0,0-.21-.64,1.25,1.25,0,0,0-.85-.25,1.32,1.32,0,0,0-.78.18,1.13,1.13,0,0,0-.37.65l-.73-.1a1.81,1.81,0,0,1,.33-.76,1.43,1.43,0,0,1,.66-.44,2.94,2.94,0,0,1,1-.16,2.65,2.65,0,0,1,.92.13,1.21,1.21,0,0,1,.52.33,1.19,1.19,0,0,1,.23.51,4.28,4.28,0,0,1,0,.69v1a10.76,10.76,0,0,0,0,1.32,1.68,1.68,0,0,0,.19.53h-.78A1.57,1.57,0,0,1,159.34,54.81Zm-.06-1.67a5.51,5.51,0,0,1-1.22.28,2.77,2.77,0,0,0-.65.15.64.64,0,0,0-.4.6.63.63,0,0,0,.23.5,1,1,0,0,0,.66.2,1.54,1.54,0,0,0,.77-.19,1.16,1.16,0,0,0,.49-.52,1.81,1.81,0,0,0,.12-.75Z"/><path d="M161.2,55.35V50.94h.67v.63a1.59,1.59,0,0,1,1.4-.73A1.84,1.84,0,0,1,164,51a1.15,1.15,0,0,1,.5.38,1.44,1.44,0,0,1,.23.55,4.19,4.19,0,0,1,0,.73v2.71H164V52.67a2,2,0,0,0-.09-.68.71.71,0,0,0-.31-.36,1,1,0,0,0-.52-.13,1.21,1.21,0,0,0-.82.3,1.49,1.49,0,0,0-.35,1.15v2.41Z"/><path d="M168.8,53.74l.73.1a1.9,1.9,0,0,1-.62,1.19,1.79,1.79,0,0,1-1.22.43,1.89,1.89,0,0,1-1.46-.59,2.4,2.4,0,0,1-.55-1.7,3.08,3.08,0,0,1,.24-1.25,1.65,1.65,0,0,1,.72-.8,2.14,2.14,0,0,1,1.05-.27,1.83,1.83,0,0,1,1.17.36,1.67,1.67,0,0,1,.58,1l-.73.11a1.2,1.2,0,0,0-.37-.67,1,1,0,0,0-.64-.22,1.16,1.16,0,0,0-.92.4,1.92,1.92,0,0,0-.35,1.28,2,2,0,0,0,.34,1.29,1.11,1.11,0,0,0,.89.4,1,1,0,0,0,.74-.27A1.35,1.35,0,0,0,168.8,53.74Z"/><path d="M173.19,53.93l.77.1a1.88,1.88,0,0,1-.68,1.05,2.29,2.29,0,0,1-2.79-.22,2.33,2.33,0,0,1-.57-1.67,2.44,2.44,0,0,1,.57-1.73,1.94,1.94,0,0,1,1.49-.61,1.89,1.89,0,0,1,1.44.6,2.39,2.39,0,0,1,.56,1.69s0,.11,0,.2H170.7a1.69,1.69,0,0,0,.41,1.11,1.22,1.22,0,0,0,.92.39,1.14,1.14,0,0,0,.7-.22A1.43,1.43,0,0,0,173.19,53.93Zm-2.45-1.21h2.46a1.5,1.5,0,0,0-.28-.83,1.15,1.15,0,0,0-.93-.43,1.19,1.19,0,0,0-.87.34A1.36,1.36,0,0,0,170.74,52.73Z"/><path d="M174.6,54l.74-.12a1,1,0,0,0,.35.68,1.21,1.21,0,0,0,.79.24,1.17,1.17,0,0,0,.76-.21.63.63,0,0,0,.25-.49.45.45,0,0,0-.22-.4,3.24,3.24,0,0,0-.76-.25,6.94,6.94,0,0,1-1.14-.36,1.09,1.09,0,0,1-.65-1,1.14,1.14,0,0,1,.14-.55,1.21,1.21,0,0,1,.37-.42,1.53,1.53,0,0,1,.48-.22,2.25,2.25,0,0,1,.64-.09,2.56,2.56,0,0,1,.91.15,1.24,1.24,0,0,1,.58.4,1.57,1.57,0,0,1,.26.68l-.73.1a.8.8,0,0,0-.29-.53,1,1,0,0,0-.67-.19,1.22,1.22,0,0,0-.73.17.5.5,0,0,0-.22.4.41.41,0,0,0,.09.26.66.66,0,0,0,.29.2l.66.19a9.19,9.19,0,0,1,1.11.35,1.12,1.12,0,0,1,.49.39,1.09,1.09,0,0,1,.18.64,1.25,1.25,0,0,1-.22.7,1.4,1.4,0,0,1-.63.51,2.28,2.28,0,0,1-.93.18,2.07,2.07,0,0,1-1.31-.36A1.65,1.65,0,0,1,174.6,54Z"/><path d="M181.21,54l.74-.12a1,1,0,0,0,.35.68,1.21,1.21,0,0,0,.79.24,1.17,1.17,0,0,0,.76-.21.63.63,0,0,0,.25-.49.45.45,0,0,0-.22-.4,3.26,3.26,0,0,0-.76-.25,7,7,0,0,1-1.14-.36,1.09,1.09,0,0,1-.65-1,1.14,1.14,0,0,1,.14-.55,1.21,1.21,0,0,1,.37-.42,1.52,1.52,0,0,1,.47-.22,2.26,2.26,0,0,1,.65-.09,2.55,2.55,0,0,1,.91.15,1.24,1.24,0,0,1,.58.4,1.58,1.58,0,0,1,.26.68l-.73.1a.8.8,0,0,0-.29-.53,1.05,1.05,0,0,0-.67-.19,1.22,1.22,0,0,0-.73.17.5.5,0,0,0-.22.4.41.41,0,0,0,.09.26.66.66,0,0,0,.29.2l.66.19a9.22,9.22,0,0,1,1.11.35,1.12,1.12,0,0,1,.49.39,1.09,1.09,0,0,1,.18.64,1.25,1.25,0,0,1-.22.7,1.41,1.41,0,0,1-.63.51,2.28,2.28,0,0,1-.93.18,2.07,2.07,0,0,1-1.31-.36A1.66,1.66,0,0,1,181.21,54Z"/><path d="M185.76,55.35V49.27h.75v2.18a1.67,1.67,0,0,1,1.32-.61,1.79,1.79,0,0,1,.85.19,1.13,1.13,0,0,1,.52.53,2.45,2.45,0,0,1,.16,1v2.79h-.75V52.56a1.15,1.15,0,0,0-.24-.82.9.9,0,0,0-.69-.26,1.21,1.21,0,0,0-.62.17,1,1,0,0,0-.42.47,2.14,2.14,0,0,0-.12.81v2.41Z"/><path d="M190.21,53.15a2.27,2.27,0,0,1,.68-1.81,2.05,2.05,0,0,1,1.39-.49,2,2,0,0,1,1.49.6,2.26,2.26,0,0,1,.58,1.65,2.92,2.92,0,0,1-.25,1.34,1.81,1.81,0,0,1-.74.76,2.16,2.16,0,0,1-1.06.27,2,2,0,0,1-1.5-.59A2.37,2.37,0,0,1,190.21,53.15Zm.77,0a1.88,1.88,0,0,0,.37,1.27,1.23,1.23,0,0,0,1.86,0,1.92,1.92,0,0,0,.37-1.29,1.82,1.82,0,0,0-.37-1.24,1.23,1.23,0,0,0-1.85,0A1.87,1.87,0,0,0,191,53.15Z"/><path d="M198.1,55.35V54.7a1.61,1.61,0,0,1-1.4.75,1.79,1.79,0,0,1-.73-.15,1.2,1.2,0,0,1-.5-.38,1.42,1.42,0,0,1-.23-.55,3.91,3.91,0,0,1,0-.7V50.94h.75v2.44a4.27,4.27,0,0,0,0,.79.78.78,0,0,0,.3.46.92.92,0,0,0,.56.17,1.23,1.23,0,0,0,.63-.17,1,1,0,0,0,.42-.47,2.34,2.34,0,0,0,.12-.86V50.94h.75v4.41Z"/><path d="M199.93,55.35V49.27h.75v6.08Z"/><path d="M204.69,55.35V54.8a1.37,1.37,0,0,1-1.23.66,1.72,1.72,0,0,1-1-.29,1.91,1.91,0,0,1-.69-.81,2.8,2.8,0,0,1-.24-1.2,3.12,3.12,0,0,1,.22-1.2,1.73,1.73,0,0,1,.66-.82,1.76,1.76,0,0,1,1-.29,1.47,1.47,0,0,1,.71.17,1.48,1.48,0,0,1,.51.44V49.27h.74v6.08Zm-2.36-2.2a1.92,1.92,0,0,0,.36,1.27,1.08,1.08,0,0,0,.84.42,1.06,1.06,0,0,0,.83-.4,1.85,1.85,0,0,0,.34-1.22,2.07,2.07,0,0,0-.35-1.33,1.07,1.07,0,0,0-.86-.42,1,1,0,0,0-.83.41A2,2,0,0,0,202.33,53.15Z"/><path d="M210.55,54.68l.11.66a2.76,2.76,0,0,1-.56.07,1.28,1.28,0,0,1-.63-.13.72.72,0,0,1-.32-.34,2.69,2.69,0,0,1-.09-.88V51.53h-.55v-.58h.55V49.85l.74-.45v1.54h.75v.58h-.75V54.1a1.3,1.3,0,0,0,0,.41.31.31,0,0,0,.13.15.49.49,0,0,0,.25.05Z"/><path d="M211.28,55.35V49.27H212v2.18a1.67,1.67,0,0,1,1.32-.61,1.78,1.78,0,0,1,.85.19,1.13,1.13,0,0,1,.52.53,2.47,2.47,0,0,1,.16,1v2.79h-.75V52.56a1.16,1.16,0,0,0-.24-.82.91.91,0,0,0-.69-.26,1.22,1.22,0,0,0-.62.17,1,1,0,0,0-.42.47,2.14,2.14,0,0,0-.12.81v2.41Z"/><path d="M219,53.93l.77.1a1.88,1.88,0,0,1-.68,1.05,2.29,2.29,0,0,1-2.79-.22,2.33,2.33,0,0,1-.57-1.67,2.44,2.44,0,0,1,.57-1.73,1.94,1.94,0,0,1,1.49-.61,1.89,1.89,0,0,1,1.44.6,2.39,2.39,0,0,1,.56,1.69s0,.11,0,.2h-3.29a1.7,1.7,0,0,0,.41,1.11,1.22,1.22,0,0,0,.92.39,1.14,1.14,0,0,0,.7-.22A1.43,1.43,0,0,0,219,53.93Zm-2.45-1.21H219a1.49,1.49,0,0,0-.28-.83,1.14,1.14,0,0,0-.93-.43,1.19,1.19,0,0,0-.87.34A1.36,1.36,0,0,0,216.57,52.73Z"/><path d="M87.5,60.33v-.86h.75v.86Zm0,5.23V61.14h.75v4.41Z"/><path d="M89.39,65.55V61.14h.67v.63a1.59,1.59,0,0,1,1.4-.73,1.84,1.84,0,0,1,.73.14,1.15,1.15,0,0,1,.5.38,1.44,1.44,0,0,1,.23.55,4.26,4.26,0,0,1,0,.73v2.71h-.75V62.87a2,2,0,0,0-.09-.68.72.72,0,0,0-.31-.36,1,1,0,0,0-.52-.13,1.21,1.21,0,0,0-.82.3,1.49,1.49,0,0,0-.35,1.15v2.41Z"/><path d="M94.12,67.24v-6.1h.68v.57a1.68,1.68,0,0,1,.54-.5,1.5,1.5,0,0,1,.73-.17,1.74,1.74,0,0,1,1,.29,1.78,1.78,0,0,1,.65.82,3,3,0,0,1,.22,1.16,2.94,2.94,0,0,1-.24,1.22A1.85,1.85,0,0,1,96,65.65a1.41,1.41,0,0,1-.67-.16,1.52,1.52,0,0,1-.49-.4v2.15Zm.68-3.87a1.92,1.92,0,0,0,.34,1.26A1.06,1.06,0,0,0,96,65a1.08,1.08,0,0,0,.85-.42,2,2,0,0,0,.35-1.31A2,2,0,0,0,96.83,62a1,1,0,0,0-.83-.42,1.08,1.08,0,0,0-.84.45A2,2,0,0,0,94.79,63.37Z"/><path d="M101.73,65.55V64.9a1.61,1.61,0,0,1-1.4.75,1.78,1.78,0,0,1-.73-.15,1.2,1.2,0,0,1-.5-.38,1.41,1.41,0,0,1-.23-.55,3.81,3.81,0,0,1,0-.7V61.14h.75v2.44a4.37,4.37,0,0,0,0,.79.78.78,0,0,0,.3.46.92.92,0,0,0,.56.17,1.23,1.23,0,0,0,.63-.17,1,1,0,0,0,.42-.47,2.35,2.35,0,0,0,.12-.86V61.14h.75v4.41Z"/><path d="M105.2,64.88l.11.66a2.76,2.76,0,0,1-.56.07,1.28,1.28,0,0,1-.63-.13.72.72,0,0,1-.32-.34,2.67,2.67,0,0,1-.09-.88V61.73h-.55v-.58h.55V60.05l.74-.45v1.54h.75v.58h-.75V64.3a1.3,1.3,0,0,0,0,.41.31.31,0,0,0,.13.15.49.49,0,0,0,.25.05Z"/><path d="M111.31,64.13l.77.1a1.88,1.88,0,0,1-.68,1.05,2.29,2.29,0,0,1-2.79-.22,2.33,2.33,0,0,1-.57-1.67,2.44,2.44,0,0,1,.57-1.73A1.94,1.94,0,0,1,110.1,61a1.89,1.89,0,0,1,1.44.6,2.39,2.39,0,0,1,.56,1.69s0,.11,0,.2h-3.29a1.7,1.7,0,0,0,.41,1.11,1.22,1.22,0,0,0,.92.39,1.14,1.14,0,0,0,.7-.22A1.43,1.43,0,0,0,111.31,64.13Zm-2.45-1.21h2.46a1.49,1.49,0,0,0-.28-.83,1.15,1.15,0,0,0-.93-.43,1.19,1.19,0,0,0-.87.34A1.36,1.36,0,0,0,108.86,62.93Z"/><path d="M112.52,65.55l1.61-2.29-1.49-2.12h.93l.68,1,.31.49.34-.49.74-1h.89L115,63.22l1.64,2.33h-.92l-.9-1.37-.24-.37-1.16,1.74Z"/><path d="M120.15,63.94l.73.1a1.9,1.9,0,0,1-.62,1.19,1.79,1.79,0,0,1-1.22.43,1.89,1.89,0,0,1-1.46-.59,2.4,2.4,0,0,1-.55-1.7,3.08,3.08,0,0,1,.24-1.25,1.65,1.65,0,0,1,.72-.8,2.14,2.14,0,0,1,1.05-.27,1.83,1.83,0,0,1,1.17.36,1.67,1.67,0,0,1,.58,1l-.73.11a1.2,1.2,0,0,0-.37-.67,1,1,0,0,0-.64-.22,1.16,1.16,0,0,0-.92.4,1.92,1.92,0,0,0-.35,1.28,2,2,0,0,0,.34,1.29,1.11,1.11,0,0,0,.89.4,1,1,0,0,0,.73-.27A1.34,1.34,0,0,0,120.15,63.94Z"/><path d="M124.54,64.13l.77.1a1.88,1.88,0,0,1-.68,1.05,2.29,2.29,0,0,1-2.79-.22,2.33,2.33,0,0,1-.57-1.67,2.44,2.44,0,0,1,.57-1.73,1.94,1.94,0,0,1,1.49-.61,1.89,1.89,0,0,1,1.44.6,2.39,2.39,0,0,1,.56,1.69s0,.11,0,.2H122a1.7,1.7,0,0,0,.41,1.11,1.22,1.22,0,0,0,.92.39,1.14,1.14,0,0,0,.7-.22A1.43,1.43,0,0,0,124.54,64.13Zm-2.45-1.21h2.46a1.49,1.49,0,0,0-.28-.83,1.14,1.14,0,0,0-.93-.43,1.19,1.19,0,0,0-.87.34A1.36,1.36,0,0,0,122.09,62.93Z"/><path d="M129.27,64.13l.77.1a1.88,1.88,0,0,1-.68,1.05,2.29,2.29,0,0,1-2.79-.22,2.33,2.33,0,0,1-.57-1.67,2.44,2.44,0,0,1,.57-1.73,1.94,1.94,0,0,1,1.49-.61,1.89,1.89,0,0,1,1.44.6,2.39,2.39,0,0,1,.56,1.69s0,.11,0,.2h-3.29a1.69,1.69,0,0,0,.41,1.11,1.22,1.22,0,0,0,.92.39,1.14,1.14,0,0,0,.7-.22A1.43,1.43,0,0,0,129.27,64.13Zm-2.45-1.21h2.46a1.5,1.5,0,0,0-.28-.83,1.15,1.15,0,0,0-.93-.43,1.19,1.19,0,0,0-.87.34A1.36,1.36,0,0,0,126.81,62.93Z"/><path d="M133.84,65.55V65a1.37,1.37,0,0,1-1.23.66,1.72,1.72,0,0,1-1-.29,1.91,1.91,0,0,1-.69-.81,2.8,2.8,0,0,1-.24-1.2,3.12,3.12,0,0,1,.22-1.2,1.73,1.73,0,0,1,.66-.82,1.76,1.76,0,0,1,1-.29,1.47,1.47,0,0,1,.71.17,1.48,1.48,0,0,1,.51.44V59.47h.74v6.08Zm-2.36-2.2a1.92,1.92,0,0,0,.36,1.27,1.08,1.08,0,0,0,.84.42,1.06,1.06,0,0,0,.83-.4,1.85,1.85,0,0,0,.34-1.22,2.07,2.07,0,0,0-.35-1.33,1.07,1.07,0,0,0-.86-.42,1,1,0,0,0-.83.41A2,2,0,0,0,131.47,63.35Z"/><path d="M139.7,64.88l.11.66a2.76,2.76,0,0,1-.56.07,1.28,1.28,0,0,1-.63-.13.72.72,0,0,1-.32-.34,2.69,2.69,0,0,1-.09-.88V61.73h-.55v-.58h.55V60.05l.74-.45v1.54h.75v.58h-.75V64.3a1.3,1.3,0,0,0,0,.41.31.31,0,0,0,.13.15.49.49,0,0,0,.25.05Z"/><path d="M140.43,65.55V59.47h.75v2.18a1.67,1.67,0,0,1,1.32-.61,1.78,1.78,0,0,1,.85.19,1.13,1.13,0,0,1,.52.53,2.47,2.47,0,0,1,.16,1v2.79h-.75V62.76a1.16,1.16,0,0,0-.24-.82.91.91,0,0,0-.69-.26,1.22,1.22,0,0,0-.62.17,1,1,0,0,0-.42.47,2.14,2.14,0,0,0-.12.81v2.41Z"/><path d="M148.17,64.13l.77.1a1.88,1.88,0,0,1-.68,1.05,2.29,2.29,0,0,1-2.79-.22,2.33,2.33,0,0,1-.57-1.67,2.44,2.44,0,0,1,.57-1.73A1.94,1.94,0,0,1,147,61a1.89,1.89,0,0,1,1.44.6,2.39,2.39,0,0,1,.56,1.69s0,.11,0,.2h-3.29a1.7,1.7,0,0,0,.41,1.11A1.22,1.22,0,0,0,147,65a1.14,1.14,0,0,0,.7-.22A1.43,1.43,0,0,0,148.17,64.13Zm-2.45-1.21h2.46a1.49,1.49,0,0,0-.28-.83,1.14,1.14,0,0,0-.93-.43,1.19,1.19,0,0,0-.87.34A1.36,1.36,0,0,0,145.72,62.93Z"/><path d="M152.23,65.55V61.14h.67v.67a1.8,1.8,0,0,1,.48-.62.83.83,0,0,1,.48-.15,1.45,1.45,0,0,1,.77.24l-.26.69a1.06,1.06,0,0,0-.55-.16.71.71,0,0,0-.44.15.79.79,0,0,0-.28.41,2.91,2.91,0,0,0-.12.87v2.31Z"/><path d="M157.95,65a2.78,2.78,0,0,1-.8.5,2.3,2.3,0,0,1-.82.15,1.6,1.6,0,0,1-1.12-.35,1.17,1.17,0,0,1-.39-.91,1.22,1.22,0,0,1,.53-1,1.8,1.8,0,0,1,.54-.24,5.3,5.3,0,0,1,.66-.11,6.81,6.81,0,0,0,1.33-.26c0-.1,0-.17,0-.19a.83.83,0,0,0-.21-.64,1.25,1.25,0,0,0-.85-.25,1.32,1.32,0,0,0-.78.18,1.13,1.13,0,0,0-.37.65l-.73-.1a1.81,1.81,0,0,1,.33-.76,1.43,1.43,0,0,1,.66-.44,2.94,2.94,0,0,1,1-.16,2.65,2.65,0,0,1,.92.13,1.21,1.21,0,0,1,.52.33,1.19,1.19,0,0,1,.23.51,4.28,4.28,0,0,1,0,.69v1a10.76,10.76,0,0,0,0,1.32,1.68,1.68,0,0,0,.19.53h-.78A1.57,1.57,0,0,1,157.95,65Zm-.06-1.67a5.51,5.51,0,0,1-1.22.28,2.77,2.77,0,0,0-.65.15.64.64,0,0,0-.4.6.63.63,0,0,0,.23.5,1,1,0,0,0,.66.2,1.54,1.54,0,0,0,.77-.19,1.16,1.16,0,0,0,.49-.52,1.81,1.81,0,0,0,.12-.75Z"/><path d="M161.43,64.88l.11.66a2.76,2.76,0,0,1-.56.07,1.29,1.29,0,0,1-.63-.13.72.72,0,0,1-.31-.34,2.65,2.65,0,0,1-.09-.88V61.73h-.55v-.58h.55V60.05l.74-.45v1.54h.75v.58h-.75V64.3a1.3,1.3,0,0,0,0,.41.31.31,0,0,0,.13.15.49.49,0,0,0,.25.05Z"/><path d="M165.18,64.13l.77.1a1.88,1.88,0,0,1-.68,1.05,2.29,2.29,0,0,1-2.79-.22,2.33,2.33,0,0,1-.57-1.67,2.44,2.44,0,0,1,.57-1.73A1.94,1.94,0,0,1,164,61a1.89,1.89,0,0,1,1.44.6,2.39,2.39,0,0,1,.56,1.69s0,.11,0,.2h-3.29a1.7,1.7,0,0,0,.41,1.11A1.22,1.22,0,0,0,164,65a1.14,1.14,0,0,0,.7-.22A1.43,1.43,0,0,0,165.18,64.13Zm-2.45-1.21h2.46a1.49,1.49,0,0,0-.28-.83,1.14,1.14,0,0,0-.93-.43,1.19,1.19,0,0,0-.87.34A1.36,1.36,0,0,0,162.73,62.93Z"/><path d="M169,64.24l.74-.12a1,1,0,0,0,.35.68,1.21,1.21,0,0,0,.79.24,1.17,1.17,0,0,0,.76-.21.63.63,0,0,0,.25-.49.45.45,0,0,0-.22-.4,3.26,3.26,0,0,0-.76-.25,7,7,0,0,1-1.14-.36,1.09,1.09,0,0,1-.65-1,1.14,1.14,0,0,1,.13-.55,1.22,1.22,0,0,1,.37-.42,1.56,1.56,0,0,1,.48-.22,2.26,2.26,0,0,1,.65-.09,2.55,2.55,0,0,1,.91.15,1.24,1.24,0,0,1,.58.4,1.58,1.58,0,0,1,.26.68l-.73.1a.8.8,0,0,0-.29-.53,1.05,1.05,0,0,0-.67-.19,1.22,1.22,0,0,0-.73.17.5.5,0,0,0-.22.4.41.41,0,0,0,.09.26.67.67,0,0,0,.29.2l.66.19a9.16,9.16,0,0,1,1.11.35,1.12,1.12,0,0,1,.49.39,1.09,1.09,0,0,1,.18.64,1.25,1.25,0,0,1-.22.7,1.4,1.4,0,0,1-.63.51,2.28,2.28,0,0,1-.93.18,2.07,2.07,0,0,1-1.31-.36A1.66,1.66,0,0,1,169,64.24Z"/><path d="M173.5,65.55V59.47h.75v2.18a1.67,1.67,0,0,1,1.32-.61,1.78,1.78,0,0,1,.85.19,1.13,1.13,0,0,1,.52.53,2.47,2.47,0,0,1,.16,1v2.79h-.75V62.76a1.16,1.16,0,0,0-.24-.82.91.91,0,0,0-.69-.26,1.22,1.22,0,0,0-.62.17,1,1,0,0,0-.42.47,2.14,2.14,0,0,0-.12.81v2.41Z"/><path d="M178,63.35a2.27,2.27,0,0,1,.68-1.81A2.05,2.05,0,0,1,180,61a2,2,0,0,1,1.49.6,2.26,2.26,0,0,1,.58,1.65,2.92,2.92,0,0,1-.26,1.34,1.81,1.81,0,0,1-.74.76,2.17,2.17,0,0,1-1.06.27,2,2,0,0,1-1.5-.59A2.37,2.37,0,0,1,178,63.35Zm.77,0a1.88,1.88,0,0,0,.37,1.27,1.23,1.23,0,0,0,1.85,0,1.92,1.92,0,0,0,.37-1.29,1.82,1.82,0,0,0-.37-1.24,1.23,1.23,0,0,0-1.85,0A1.87,1.87,0,0,0,178.72,63.35Z"/><path d="M183.77,65.55l-1.35-4.41h.77l.7,2.54.26.95.23-.91.7-2.58h.77l.66,2.56.22.84.25-.85.75-2.55h.73l-1.38,4.41h-.78l-.7-2.64-.17-.75-.89,3.39Z"/><path d="M189.09,65.55V61.14h.67v.63a1.59,1.59,0,0,1,1.4-.73,1.84,1.84,0,0,1,.73.14,1.16,1.16,0,0,1,.5.38,1.46,1.46,0,0,1,.23.55,4.33,4.33,0,0,1,0,.73v2.71h-.75V62.87a2,2,0,0,0-.09-.68.72.72,0,0,0-.31-.36,1,1,0,0,0-.52-.13,1.21,1.21,0,0,0-.82.3,1.5,1.5,0,0,0-.35,1.15v2.41Z"/><path d="M195.9,63.35a2.27,2.27,0,0,1,.68-1.81A2,2,0,0,1,198,61a2,2,0,0,1,1.49.6,2.27,2.27,0,0,1,.58,1.65,2.92,2.92,0,0,1-.26,1.34,1.81,1.81,0,0,1-.74.76,2.16,2.16,0,0,1-1.06.27,2,2,0,0,1-1.5-.59A2.37,2.37,0,0,1,195.9,63.35Zm.77,0a1.88,1.88,0,0,0,.37,1.27,1.23,1.23,0,0,0,1.85,0,1.92,1.92,0,0,0,.37-1.29,1.82,1.82,0,0,0-.37-1.24,1.23,1.23,0,0,0-1.85,0A1.87,1.87,0,0,0,196.67,63.35Z"/><path d="M200.91,65.55V61.14h.67v.63A1.59,1.59,0,0,1,203,61a1.84,1.84,0,0,1,.73.14,1.15,1.15,0,0,1,.5.38,1.44,1.44,0,0,1,.23.55,4.19,4.19,0,0,1,0,.73v2.71h-.75V62.87a2,2,0,0,0-.09-.68.71.71,0,0,0-.31-.36,1,1,0,0,0-.52-.13,1.21,1.21,0,0,0-.82.3,1.49,1.49,0,0,0-.35,1.15v2.41Z"/><path d="M209.63,64.88l.11.66a2.76,2.76,0,0,1-.56.07,1.28,1.28,0,0,1-.63-.13.72.72,0,0,1-.32-.34,2.69,2.69,0,0,1-.09-.88V61.73h-.55v-.58h.55V60.05l.74-.45v1.54h.75v.58h-.75V64.3a1.3,1.3,0,0,0,0,.41.31.31,0,0,0,.13.15.49.49,0,0,0,.25.05Z"/><path d="M210.36,65.55V59.47h.75v2.18a1.67,1.67,0,0,1,1.32-.61,1.78,1.78,0,0,1,.85.19,1.13,1.13,0,0,1,.52.53,2.46,2.46,0,0,1,.16,1v2.79h-.75V62.76a1.15,1.15,0,0,0-.24-.82.9.9,0,0,0-.69-.26,1.21,1.21,0,0,0-.62.17,1,1,0,0,0-.42.47,2.12,2.12,0,0,0-.12.81v2.41Z"/><path d="M218.11,64.13l.77.1a1.88,1.88,0,0,1-.68,1.05,2.29,2.29,0,0,1-2.79-.22,2.33,2.33,0,0,1-.57-1.67,2.44,2.44,0,0,1,.57-1.73A1.94,1.94,0,0,1,216.9,61a1.89,1.89,0,0,1,1.44.6,2.39,2.39,0,0,1,.56,1.69s0,.11,0,.2h-3.29a1.7,1.7,0,0,0,.41,1.11,1.22,1.22,0,0,0,.92.39,1.14,1.14,0,0,0,.7-.22A1.43,1.43,0,0,0,218.11,64.13Zm-2.45-1.21h2.46a1.49,1.49,0,0,0-.28-.83,1.14,1.14,0,0,0-.93-.43A1.19,1.19,0,0,0,216,62,1.36,1.36,0,0,0,215.65,62.93Z"/><path d="M88.31,75.75,87,71.34h.77l.7,2.54.26.95.23-.91.7-2.58h.77l.66,2.56.22.84.25-.85.76-2.55H93l-1.38,4.41h-.78l-.7-2.64L90,72.36l-.89,3.39Z"/><path d="M96.52,75.21a2.74,2.74,0,0,1-.8.5,2.29,2.29,0,0,1-.82.15,1.6,1.6,0,0,1-1.12-.36,1.17,1.17,0,0,1-.39-.91,1.23,1.23,0,0,1,.53-1,1.81,1.81,0,0,1,.54-.24,5.45,5.45,0,0,1,.66-.11A6.78,6.78,0,0,0,96.45,73c0-.1,0-.17,0-.19a.83.83,0,0,0-.21-.64,1.26,1.26,0,0,0-.85-.25,1.32,1.32,0,0,0-.78.18,1.13,1.13,0,0,0-.37.65l-.73-.1a1.81,1.81,0,0,1,.33-.76,1.43,1.43,0,0,1,.66-.44,2.92,2.92,0,0,1,1-.16,2.66,2.66,0,0,1,.92.13,1.2,1.2,0,0,1,.52.33,1.18,1.18,0,0,1,.23.51,4.21,4.21,0,0,1,0,.69v1a10.63,10.63,0,0,0,0,1.32,1.67,1.67,0,0,0,.19.53h-.78A1.58,1.58,0,0,1,96.52,75.21Zm-.06-1.67a5.47,5.47,0,0,1-1.22.28,2.8,2.8,0,0,0-.65.15.65.65,0,0,0-.29.24.66.66,0,0,0,.12.85,1,1,0,0,0,.66.2,1.54,1.54,0,0,0,.77-.19,1.16,1.16,0,0,0,.49-.52,1.81,1.81,0,0,0,.12-.75Z"/><path d="M100,75.08l.11.66a2.8,2.8,0,0,1-.56.07,1.29,1.29,0,0,1-.63-.13.72.72,0,0,1-.32-.34,2.67,2.67,0,0,1-.09-.88V71.93H98v-.58h.55V70.25l.74-.45v1.54H100v.58h-.75V74.5a1.31,1.31,0,0,0,0,.41.31.31,0,0,0,.13.15.51.51,0,0,0,.25.05Z"/><path d="M103.75,74.33l.77.1a1.88,1.88,0,0,1-.68,1,2.29,2.29,0,0,1-2.79-.22,2.33,2.33,0,0,1-.57-1.67,2.44,2.44,0,0,1,.57-1.73,1.94,1.94,0,0,1,1.49-.61,1.89,1.89,0,0,1,1.44.6,2.39,2.39,0,0,1,.56,1.69s0,.11,0,.2h-3.29a1.7,1.7,0,0,0,.41,1.11,1.23,1.23,0,0,0,.92.38,1.15,1.15,0,0,0,.7-.21A1.44,1.44,0,0,0,103.75,74.33Zm-2.45-1.21h2.46a1.5,1.5,0,0,0-.28-.83,1.14,1.14,0,0,0-.93-.43,1.18,1.18,0,0,0-.87.34A1.36,1.36,0,0,0,101.29,73.13Z"/><path d="M105.45,75.75V71.34h.67V72a1.82,1.82,0,0,1,.48-.62.83.83,0,0,1,.48-.15,1.46,1.46,0,0,1,.77.24l-.26.69A1.07,1.07,0,0,0,107,72a.71.71,0,0,0-.44.15.8.8,0,0,0-.28.41,2.91,2.91,0,0,0-.12.87v2.31Z"/><path d="M110.65,75.75V69.67h.75v2.18a1.67,1.67,0,0,1,1.32-.61,1.78,1.78,0,0,1,.85.19,1.13,1.13,0,0,1,.52.53,2.46,2.46,0,0,1,.16,1v2.79h-.75V73a1.15,1.15,0,0,0-.24-.82.9.9,0,0,0-.69-.26,1.22,1.22,0,0,0-.62.17,1,1,0,0,0-.42.47,2.14,2.14,0,0,0-.12.81v2.41Z"/><path d="M118.39,74.33l.77.1a1.88,1.88,0,0,1-.68,1,2.29,2.29,0,0,1-2.79-.22,2.33,2.33,0,0,1-.57-1.67,2.44,2.44,0,0,1,.57-1.73,1.94,1.94,0,0,1,1.49-.61,1.89,1.89,0,0,1,1.44.6,2.39,2.39,0,0,1,.56,1.69s0,.11,0,.2H115.9a1.7,1.7,0,0,0,.41,1.11,1.23,1.23,0,0,0,.92.38,1.15,1.15,0,0,0,.7-.21A1.44,1.44,0,0,0,118.39,74.33Zm-2.45-1.21h2.46a1.5,1.5,0,0,0-.28-.83,1.14,1.14,0,0,0-.93-.43,1.18,1.18,0,0,0-.87.34A1.36,1.36,0,0,0,115.94,73.13Z"/><path d="M123,75.21a2.74,2.74,0,0,1-.8.5,2.29,2.29,0,0,1-.82.15,1.6,1.6,0,0,1-1.12-.36,1.17,1.17,0,0,1-.39-.91,1.23,1.23,0,0,1,.53-1,1.81,1.81,0,0,1,.54-.24,5.45,5.45,0,0,1,.66-.11,6.78,6.78,0,0,0,1.33-.26c0-.1,0-.17,0-.19a.83.83,0,0,0-.21-.64,1.26,1.26,0,0,0-.85-.25,1.32,1.32,0,0,0-.78.18,1.13,1.13,0,0,0-.37.65l-.73-.1a1.81,1.81,0,0,1,.33-.76,1.43,1.43,0,0,1,.66-.44,2.92,2.92,0,0,1,1-.16,2.66,2.66,0,0,1,.92.13,1.2,1.2,0,0,1,.52.33,1.19,1.19,0,0,1,.23.51,4.29,4.29,0,0,1,0,.69v1a10.77,10.77,0,0,0,0,1.32,1.7,1.7,0,0,0,.19.53h-.78A1.58,1.58,0,0,1,123,75.21Zm-.06-1.67a5.47,5.47,0,0,1-1.22.28A2.8,2.8,0,0,0,121,74a.65.65,0,0,0-.29.24.66.66,0,0,0,.12.85,1,1,0,0,0,.66.2,1.54,1.54,0,0,0,.77-.19,1.16,1.16,0,0,0,.49-.52,1.81,1.81,0,0,0,.12-.75Z"/><path d="M126.46,75.08l.11.66a2.8,2.8,0,0,1-.56.07,1.29,1.29,0,0,1-.63-.13.73.73,0,0,1-.32-.34,2.66,2.66,0,0,1-.09-.88V71.93h-.55v-.58H125V70.25l.74-.45v1.54h.75v.58h-.75V74.5a1.34,1.34,0,0,0,0,.41.32.32,0,0,0,.13.15.51.51,0,0,0,.26.05Z"/><path d="M130.21,74.33l.77.1a1.88,1.88,0,0,1-.68,1,2.29,2.29,0,0,1-2.79-.22,2.33,2.33,0,0,1-.57-1.67,2.44,2.44,0,0,1,.57-1.73,1.94,1.94,0,0,1,1.49-.61,1.89,1.89,0,0,1,1.44.6,2.39,2.39,0,0,1,.56,1.69s0,.11,0,.2h-3.29a1.7,1.7,0,0,0,.41,1.11,1.23,1.23,0,0,0,.92.38,1.14,1.14,0,0,0,.7-.21A1.44,1.44,0,0,0,130.21,74.33Zm-2.45-1.21h2.46a1.49,1.49,0,0,0-.28-.83,1.14,1.14,0,0,0-.93-.43,1.18,1.18,0,0,0-.87.34A1.36,1.36,0,0,0,127.76,73.13Z"/><path d="M131.91,75.75V71.34h.67V72a1.82,1.82,0,0,1,.48-.62.83.83,0,0,1,.48-.15,1.46,1.46,0,0,1,.77.24l-.26.69a1.07,1.07,0,0,0-.55-.16.71.71,0,0,0-.44.15.8.8,0,0,0-.28.41,2.94,2.94,0,0,0-.12.87v2.31Z"/><path d="M135,70.47v-.87h.8v.68a1.82,1.82,0,0,1-.13.8,1.14,1.14,0,0,1-.56.51L135,71.3a.65.65,0,0,0,.33-.29,1.2,1.2,0,0,0,.12-.54Z"/><path d="M136.5,74.44l.74-.12a1,1,0,0,0,.35.68,1.2,1.2,0,0,0,.79.24,1.17,1.17,0,0,0,.76-.21.63.63,0,0,0,.25-.49.45.45,0,0,0-.22-.4,3.28,3.28,0,0,0-.76-.25,7,7,0,0,1-1.14-.36,1.09,1.09,0,0,1-.64-1,1.13,1.13,0,0,1,.13-.54,1.22,1.22,0,0,1,.37-.42,1.52,1.52,0,0,1,.47-.22,2.23,2.23,0,0,1,.65-.09,2.55,2.55,0,0,1,.91.15,1.24,1.24,0,0,1,.58.41,1.59,1.59,0,0,1,.26.68l-.73.1A.8.8,0,0,0,139,72a1.06,1.06,0,0,0-.68-.19,1.22,1.22,0,0,0-.73.17.49.49,0,0,0-.22.4.41.41,0,0,0,.09.26.67.67,0,0,0,.29.2l.66.19a9.24,9.24,0,0,1,1.11.35,1.13,1.13,0,0,1,.49.39,1.09,1.09,0,0,1,.18.64,1.26,1.26,0,0,1-.22.7,1.4,1.4,0,0,1-.63.51,2.28,2.28,0,0,1-.93.18,2.07,2.07,0,0,1-1.31-.36A1.67,1.67,0,0,1,136.5,74.44Z"/><path d="M143.4,75.75V71.34h.67V72a1.8,1.8,0,0,1,.48-.62.83.83,0,0,1,.48-.15,1.46,1.46,0,0,1,.77.24l-.26.69A1.07,1.07,0,0,0,145,72a.71.71,0,0,0-.44.15.79.79,0,0,0-.28.41,2.91,2.91,0,0,0-.12.87v2.31Z"/><path d="M149.12,75.21a2.74,2.74,0,0,1-.8.5,2.29,2.29,0,0,1-.82.15,1.6,1.6,0,0,1-1.12-.36,1.17,1.17,0,0,1-.39-.91,1.22,1.22,0,0,1,.53-1,1.8,1.8,0,0,1,.54-.24,5.45,5.45,0,0,1,.66-.11,6.78,6.78,0,0,0,1.33-.26c0-.1,0-.17,0-.19a.83.83,0,0,0-.21-.64,1.26,1.26,0,0,0-.85-.25,1.32,1.32,0,0,0-.78.18,1.13,1.13,0,0,0-.37.65l-.73-.1a1.81,1.81,0,0,1,.33-.76,1.43,1.43,0,0,1,.66-.44,2.93,2.93,0,0,1,1-.16,2.66,2.66,0,0,1,.92.13,1.2,1.2,0,0,1,.52.33,1.19,1.19,0,0,1,.23.51,4.29,4.29,0,0,1,0,.69v1a10.77,10.77,0,0,0,0,1.32,1.7,1.7,0,0,0,.19.53h-.78A1.58,1.58,0,0,1,149.12,75.21Zm-.06-1.67a5.48,5.48,0,0,1-1.22.28,2.79,2.79,0,0,0-.65.15.65.65,0,0,0-.29.24.66.66,0,0,0,.12.85,1,1,0,0,0,.66.2,1.54,1.54,0,0,0,.77-.19,1.16,1.16,0,0,0,.49-.52,1.81,1.81,0,0,0,.12-.75Z"/><path d="M152.6,75.08l.11.66a2.79,2.79,0,0,1-.56.07,1.29,1.29,0,0,1-.63-.13.72.72,0,0,1-.31-.34,2.66,2.66,0,0,1-.09-.88V71.93h-.55v-.58h.55V70.25l.74-.45v1.54h.75v.58h-.75V74.5a1.31,1.31,0,0,0,0,.41.31.31,0,0,0,.13.15.51.51,0,0,0,.25.05Z"/><path d="M153.33,70.53v-.86h.75v.86Zm0,5.23V71.34h.75v4.41Z"/><path d="M155.22,75.75V71.34h.67V72a1.58,1.58,0,0,1,1.4-.73,1.85,1.85,0,0,1,.73.14,1.14,1.14,0,0,1,.5.38,1.43,1.43,0,0,1,.23.55,4.2,4.2,0,0,1,0,.73v2.71h-.75V73.07a2,2,0,0,0-.09-.68.71.71,0,0,0-.31-.36,1,1,0,0,0-.52-.13,1.2,1.2,0,0,0-.82.3,1.49,1.49,0,0,0-.35,1.15v2.41Z"/><path d="M159.81,76.12l.73.11a.7.7,0,0,0,.25.49,1.25,1.25,0,0,0,.76.21,1.34,1.34,0,0,0,.8-.21,1,1,0,0,0,.38-.58,4.79,4.79,0,0,0,.05-1,1.54,1.54,0,0,1-1.22.58,1.66,1.66,0,0,1-1.41-.66,2.52,2.52,0,0,1-.5-1.57,2.94,2.94,0,0,1,.23-1.17,1.83,1.83,0,0,1,.66-.82,1.78,1.78,0,0,1,1-.29,1.58,1.58,0,0,1,1.29.63v-.53h.69v3.81a3.62,3.62,0,0,1-.21,1.46,1.54,1.54,0,0,1-.66.68,2.3,2.3,0,0,1-1.12.25,2.11,2.11,0,0,1-1.27-.36A1.2,1.2,0,0,1,159.81,76.12Zm.62-2.65a1.92,1.92,0,0,0,.34,1.27,1.14,1.14,0,0,0,1.73,0,1.85,1.85,0,0,0,.35-1.24,1.81,1.81,0,0,0-.36-1.22,1.11,1.11,0,0,0-.87-.41,1.08,1.08,0,0,0-.85.4A1.8,1.8,0,0,0,160.43,73.47Z"/><path d="M167,75.75V69.67h.75v6.08Z"/><path d="M171.8,75.21a2.73,2.73,0,0,1-.8.5,2.29,2.29,0,0,1-.82.15,1.6,1.6,0,0,1-1.12-.36,1.17,1.17,0,0,1-.39-.91,1.2,1.2,0,0,1,.15-.59,1.22,1.22,0,0,1,.39-.43,1.81,1.81,0,0,1,.54-.24,5.48,5.48,0,0,1,.66-.11,6.77,6.77,0,0,0,1.33-.26c0-.1,0-.17,0-.19a.83.83,0,0,0-.21-.64,1.26,1.26,0,0,0-.85-.25,1.32,1.32,0,0,0-.78.18,1.13,1.13,0,0,0-.37.65l-.73-.1a1.81,1.81,0,0,1,.33-.76,1.43,1.43,0,0,1,.66-.44,2.92,2.92,0,0,1,1-.16,2.65,2.65,0,0,1,.92.13,1.2,1.2,0,0,1,.52.33,1.18,1.18,0,0,1,.23.51,4.17,4.17,0,0,1,0,.69v1a10.49,10.49,0,0,0,0,1.32,1.69,1.69,0,0,0,.19.53h-.78A1.58,1.58,0,0,1,171.8,75.21Zm-.06-1.67a5.46,5.46,0,0,1-1.22.28,2.78,2.78,0,0,0-.65.15.66.66,0,0,0-.29.24.64.64,0,0,0-.1.35.63.63,0,0,0,.23.5,1,1,0,0,0,.66.2,1.54,1.54,0,0,0,.77-.19,1.16,1.16,0,0,0,.49-.52,1.81,1.81,0,0,0,.12-.75Z"/><path d="M174.34,75.75h-.69V69.67h.75v2.17a1.48,1.48,0,0,1,1.21-.59,1.85,1.85,0,0,1,.77.16,1.57,1.57,0,0,1,.6.46,2.22,2.22,0,0,1,.37.71,3,3,0,0,1,.13.9,2.52,2.52,0,0,1-.56,1.75,1.75,1.75,0,0,1-1.34.62,1.4,1.4,0,0,1-1.22-.65Zm0-2.24a2.28,2.28,0,0,0,.22,1.15,1.07,1.07,0,0,0,1.8.15,1.93,1.93,0,0,0,.36-1.27,2,2,0,0,0-.34-1.27,1,1,0,0,0-.83-.41,1.08,1.08,0,0,0-.85.42A1.87,1.87,0,0,0,174.33,73.51Z"/><path d="M181.39,74.33l.77.1a1.88,1.88,0,0,1-.68,1,2.29,2.29,0,0,1-2.79-.22,2.33,2.33,0,0,1-.57-1.67,2.44,2.44,0,0,1,.57-1.73,1.94,1.94,0,0,1,1.49-.61,1.89,1.89,0,0,1,1.44.6,2.39,2.39,0,0,1,.56,1.69s0,.11,0,.2H178.9a1.7,1.7,0,0,0,.41,1.11,1.23,1.23,0,0,0,.92.38,1.15,1.15,0,0,0,.7-.21A1.44,1.44,0,0,0,181.39,74.33Zm-2.45-1.21h2.46a1.5,1.5,0,0,0-.28-.83,1.15,1.15,0,0,0-.93-.43,1.18,1.18,0,0,0-.87.34A1.36,1.36,0,0,0,178.94,73.13Z"/><path d="M183.09,75.75V69.67h.75v6.08Z"/><path d="M185.21,75.75V74.9h.85v.85Z"/></g></svg>