<svg id="Layer_1" data-name="Layer 1" xmlns="http://www.w3.org/2000/svg" viewBox="0 0 248.68 236.98"><defs><style>.cls-1,.cls-11,.cls-3{fill:#010101;}.cls-10,.cls-13,.cls-16,.cls-17,.cls-2,.cls-22,.cls-9{fill:none;}.cls-3{font-size:12px;}.cls-11,.cls-3,.cls-7{font-family:Arial-BoldMT, Arial;font-weight:700;}.cls-4{letter-spacing:-0.09em;}.cls-5{letter-spacing:-0.02em;}.cls-6,.cls-7{fill:#fff;}.cls-7{font-size:24px;}.cls-8{letter-spacing:-0.05em;}.cls-10,.cls-9{stroke:#010101;}.cls-9{stroke-width:0.5px;}.cls-10{stroke-width:1px;}.cls-11{font-size:10px;}.cls-12,.cls-14,.cls-15,.cls-18,.cls-19{fill:#231f20;}.cls-13,.cls-14,.cls-15,.cls-17,.cls-22{stroke:#231f20;}.cls-13{stroke-width:2px;}.cls-14{stroke-width:0.25px;}.cls-15,.cls-22{stroke-width:0.5px;}.cls-16{stroke:#fff;}.cls-18{font-size:8px;}.cls-18,.cls-19{font-family:ArialMT, Arial;}.cls-19{font-size:8.43px;}.cls-20{letter-spacing:-0.07em;}.cls-21{letter-spacing:0em;}</style></defs><title>wrnng_glycol-poisoning-hzrd_read_manual</title><rect class="cls-1" x="6.52" y="7.11" width="235.71" height="26.07"/><rect class="cls-2" x="1.9" y="6.54" width="240.34" height="73.16"/><text class="cls-3" transform="translate(37.23 48.75)">G<tspan class="cls-4" x="9.33" y="0">L</tspan><tspan x="15.56" y="0">YCO</tspan><tspan class="cls-5" x="41.57" y="0">L</tspan><tspan x="48.68" y="0" xml:space="preserve"> POISONING HAZARD</tspan></text><path class="cls-6" d="M66.52,13.1a1.23,1.23,0,0,0-1.2-.84,1.12,1.12,0,0,0-1.13.84l-8,13.84c-1.06,1.76-.15,2.46.91,2.53H73.58c1.13-.07,2-.77.92-2.53Z"/><path class="cls-1" d="M65.92,23.46a.54.54,0,0,1-.5.5h-.07a.48.48,0,0,1-.49-.5c-1.62-5.15-2.4-8.75.49-8.75S67.47,18.31,65.92,23.46Z"/><path class="cls-1" d="M65.35,29a1.56,1.56,0,0,1,0-3.11h.07A1.56,1.56,0,0,1,65.35,29Z"/><text class="cls-7" transform="translate(76.78 29.44)"><tspan class="cls-8">W</tspan><tspan x="21.36" y="0">ARNING</tspan></text><rect class="cls-9" x="0.3" y="0.25" width="248.14" height="79.45"/><text/><rect class="cls-10" x="6.32" y="6.92" width="235.92" height="66.5"/><text class="cls-11" transform="translate(39.34 61.36)">( See Page 3 for Label Precautions )</text><polyline class="cls-12" points="102.54 125.85 241.77 125.85 241.77 97.27 102.54 97.27"/><path class="cls-6" d="M229.65,113.06v-2.34H236v5.54a8,8,0,0,1-2.69,1.5,10.37,10.37,0,0,1-3.57.65,8.5,8.5,0,0,1-4-.91,5.92,5.92,0,0,1-2.57-2.62,8.15,8.15,0,0,1-.86-3.7,7.65,7.65,0,0,1,1-3.86,6.37,6.37,0,0,1,2.81-2.59,8,8,0,0,1,3.51-.69,7.22,7.22,0,0,1,4.26,1.09,4.85,4.85,0,0,1,2,3l-2.93.52a3,3,0,0,0-1.17-1.62,3.69,3.69,0,0,0-2.13-.59,4.18,4.18,0,0,0-3.09,1.16,4.78,4.78,0,0,0-1.14,3.46,5.3,5.3,0,0,0,1.16,3.72,4,4,0,0,0,3,1.23,5.31,5.31,0,0,0,1.86-.34,7,7,0,0,0,1.61-.84v-1.77m-25,5.11V104.28H211l6,9.28v-9.28h2.74v13.89h-3l-5.9-9.06v9.06Zm-5.81,0V104.28h3v13.89Zm-14.66,0V104.28h2.88l6,9.28v-9.28h2.75v13.89h-3l-5.9-9.06v9.06Zm-11.84-8H178a11.58,11.58,0,0,0,2.66-.17,1.56,1.56,0,0,0,.83-.58,1.83,1.83,0,0,0,.3-1.05,1.62,1.62,0,0,0-.4-1.13,1.78,1.78,0,0,0-1.11-.54c-.24,0-1-.05-2.16-.05h-2.31Zm-3,8V104.28H179a11.23,11.23,0,0,1,3.41.37,3.4,3.4,0,0,1,1.71,1.33,3.9,3.9,0,0,1,.63,2.19,3.62,3.62,0,0,1-1,2.59,4.81,4.81,0,0,1-2.91,1.28,6.76,6.76,0,0,1,1.59,1.17,14.92,14.92,0,0,1,1.68,2.25l1.79,2.71h-3.53l-2.14-3a19.49,19.49,0,0,0-1.56-2,2.28,2.28,0,0,0-.89-.58,4.94,4.94,0,0,0-1.49-.16h-.6v5.8Zm-7-5.49-2-5.16-2,5.16Zm5.45,5.49H168L166.73,115h-5.85l-1.21,3.15h-3.14l5.71-13.89h3.12Zm-29.32,0-3.5-13.89h3l2.21,9.54,2.68-9.54h3.51l2.57,9.7,2.25-9.7h3l-3.56,13.89h-3.14L148,107.78l-2.9,10.39Zm-14.45-5.84a.51.51,0,0,1-.49.47h-.07a.48.48,0,0,1-.5-.47c-1.62-4.9-2.4-8.32.5-8.32S129,107.43,127.46,112.33Zm-.56,5.3a1.48,1.48,0,1,1,0-2.95H127a1.46,1.46,0,0,1,1.48,1.47A1.48,1.48,0,0,1,126.9,117.63Zm1.2-14.89a1.23,1.23,0,0,0-1.2-.81,1.12,1.12,0,0,0-1.13.81l-8.07,13.14c-1.06,1.68-.14,2.35.92,2.42h16.55c1.14-.07,2-.74.92-2.42Z"/><path class="cls-13" d="M119.06,120.51"/><path class="cls-14" d="M6.69,166.15,6.23,230s36.19.23,36.21-.43c0-1.37.05-21.72.05-21.72l-5.8-10.1.5,0s6.1,8.49,7.7,10.87c1.46,2.17,2.27,3.43,3.66,5.67s5.87,4.91,9.18,3.71c3.82-1.39,11-5.5,13.63-8.33s8-9.38,8-9.38a5.56,5.56,0,0,0-.65-2.93c-.92-1.95-4.2-4.82-7.5-2.29a36.17,36.17,0,0,0-3.87,3.57c-2.38,2.47-4.91,3.33-7.21,4.71-1.41.85-2.28,1.24-4-2.49-1.64-3.53-8.39-16-10.25-18.54-1.47-2-6.35-9.5-9.23-12.31-1.37-1.33-16.6-5.62-19.89-6.59-2.61-.76-5.89-1.31-7.72.19A9.69,9.69,0,0,0,6.69,166.15Z"/><polygon class="cls-14" points="85.11 203.04 64.19 191.63 79.44 171.21 101.69 177.29 85.11 203.04"/><path class="cls-15" d="M44.68,150.2A15.27,15.27,0,1,1,29.41,135,15.22,15.22,0,0,1,44.68,150.2Z"/><path class="cls-16" d="M81.43,198.55l4.32-6.19a6.66,6.66,0,0,0,.37-1.39,7.94,7.94,0,0,0-.16-2.75,7.18,7.18,0,0,0-6.52-2.77c-.52,0-2.19,1.5-2.19,1.5l-2.06.19-1.57,4.73.71,0c3.32.21,6,2.83,6.78,7.08Z"/><polygon class="cls-14" points="63.11 190.96 48.61 176.63 65.77 155.21 78.61 170.63 63.11 190.96"/><polygon class="cls-14" points="46.94 176.38 61.77 190.71 42.61 175.71 59.61 154.21 62.44 157.88 46.94 176.38"/><polygon class="cls-14" points="52.86 191.79 47.19 182.38 49.36 182.21 57.11 188.88 52.86 191.79"/><path class="cls-16" d="M69.57,195.53l1.56-1.21a3.24,3.24,0,0,1,2.2-.77c3.36,0,6.91,2.93,6.24,8.06"/><rect class="cls-17" x="6.48" y="97.7" width="235.72" height="131.96"/><line class="cls-17" x1="102.71" y1="97.99" x2="102.71" y2="229.55"/><text class="cls-18" transform="translate(107.28 136.05) scale(1.1 1)">Read and understand instruction<tspan x="0" y="10" xml:space="preserve">manual  and  safety  messages</tspan><tspan x="0" y="20" xml:space="preserve">before  installing,   operating  or</tspan><tspan x="0" y="30" xml:space="preserve">servicing  this  unit.</tspan></text><text/><text class="cls-19" transform="translate(106.94 181.58) scale(1.04 1)"><tspan xml:space="preserve">Failure  to  follow instructions  and</tspan><tspan x="0" y="10.53" xml:space="preserve">safety  messages  could  result in</tspan><tspan x="0" y="21.07" xml:space="preserve">death  or  serious  injur</tspan><tspan class="cls-20" x="85.71" y="21.07">y</tspan><tspan class="cls-21" x="89.3" y="21.07">.</tspan><tspan x="0" y="31.6" xml:space="preserve">Instruction  manual  must  remain</tspan><tspan x="0" y="42.13">with unit.</tspan></text><rect class="cls-22" x="0.25" y="91.26" width="248.14" height="144.58"/></svg>