<svg id="choking_man_icon" data-name="choking man icon" xmlns="http://www.w3.org/2000/svg" viewBox="0 0 251.27 213.73"><defs><style>.cls-1,.cls-11,.cls-12{fill:none;}.cls-1,.cls-11,.cls-12,.cls-13,.cls-3,.cls-9{stroke:#000;}.cls-10,.cls-13,.cls-14,.cls-2{fill:#fff;}.cls-4{font-size:8px;}.cls-4,.cls-5,.cls-7{font-family:ArialMT, Arial;}.cls-5{font-size:6.25px;letter-spacing:0.02em;}.cls-6{font-size:11px;font-family:Arial-BoldMT, Arial;font-weight:700;}.cls-7{font-size:10px;}.cls-8{letter-spacing:-0.04em;}.cls-10,.cls-12,.cls-9{stroke-width:0.5px;}.cls-10,.cls-14{stroke:#fff;}.cls-11,.cls-13,.cls-14{stroke-width:0.25px;}</style></defs><title>wrnng_brthng-hzrd_CO-gas_frm_vent_inst_begin_altitude_10K</title><rect class="cls-1" x="0.5" y="0.5" width="250.27" height="212.73"/><polyline points="0.02 25.5 251.08 25.5 251.08 0.42 0.02 0.42"/><path class="cls-2" d="M178.85,14.77V12.23h6.39v6a8.15,8.15,0,0,1-2.7,1.63,9.62,9.62,0,0,1-3.58.7,7.88,7.88,0,0,1-4-1,6.27,6.27,0,0,1-2.57-2.84,9.29,9.29,0,0,1-.86-4,8.9,8.9,0,0,1,1-4.19,6.6,6.6,0,0,1,2.81-2.8A7.43,7.43,0,0,1,178.8,5a6.81,6.81,0,0,1,4.26,1.18,5.29,5.29,0,0,1,2,3.25L182.1,10a3.26,3.26,0,0,0-1.17-1.75,3.43,3.43,0,0,0-2.13-.64,4,4,0,0,0-3.09,1.26,5.41,5.41,0,0,0-1.15,3.75,6.06,6.06,0,0,0,1.16,4A3.86,3.86,0,0,0,178.77,18a5,5,0,0,0,1.86-.38,6.21,6.21,0,0,0,1.61-.91V14.77m-25,5.54V5.25h2.88l6,10.06V5.25h2.76V20.31h-3L160,10.49v9.82Zm-5.82,0V5.25h3V20.31Zm-14.69,0V5.25h2.89l6,10.06V5.25h2.76V20.31h-3l-5.91-9.82v9.82Zm-11.86-8.7h2.19a10.74,10.74,0,0,0,2.66-.18,1.54,1.54,0,0,0,.84-.64,2,2,0,0,0,.3-1.12,1.86,1.86,0,0,0-.4-1.23,1.73,1.73,0,0,0-1.12-.59c-.24,0-1,0-2.16,0h-2.31Zm-3,8.7V5.25h6.24a10.47,10.47,0,0,1,3.42.4,3.41,3.41,0,0,1,1.71,1.44,4.44,4.44,0,0,1,.64,2.38,4.13,4.13,0,0,1-1,2.8A4.66,4.66,0,0,1,130,13.66a6.75,6.75,0,0,1,1.59,1.26,18,18,0,0,1,1.69,2.45l1.79,2.94h-3.54L129.41,17a20.62,20.62,0,0,0-1.56-2.21,2.32,2.32,0,0,0-.89-.63,4.83,4.83,0,0,0-1.49-.17h-.6v6.29Zm-7-6-2-5.59-2,5.59Zm5.46,6H117.1l-1.29-3.42H110l-1.21,3.42h-3.15l5.72-15.06h3.14ZM91,20.31,87.44,5.25h3l2.22,10.34L95.37,5.25h3.52l2.58,10.52,2.25-10.52h3l-3.56,15.06H100L97.08,9.05,94.16,20.31ZM76.48,14a.55.55,0,0,1-.5.51h-.07a.5.5,0,0,1-.5-.51c-1.63-5.3-2.41-9,.5-9S78,8.67,76.48,14Zm-.57,5.75a1.6,1.6,0,0,1,0-3.2H76a1.6,1.6,0,0,1-.07,3.2Zm1.2-16.14a1.23,1.23,0,0,0-1.2-.88,1.14,1.14,0,0,0-1.14.88L66.7,17.83c-1.07,1.82-.15,2.54.92,2.62H84.2c1.13-.08,2-.8.92-2.62Z"/><line class="cls-3" x1="0.58" y1="40.19" x2="250.64" y2="40.19"/><line class="cls-3" x1="78.06" y1="190.04" x2="78.06" y2="40.63"/><line class="cls-3" x1="0.58" y1="190.16" x2="250.64" y2="190.16"/><text class="cls-4" transform="translate(14.91 199.75)">Breathing carbon monoxide can cause brain damage or death.<tspan x="18.68" y="9">Always read and understand the instruction manual.</tspan></text><text class="cls-5" transform="translate(91.2 48.9)">Install vent system in accordance with codes. </text><text class="cls-5" transform="translate(91.2 57.2)">Do not operate water heater if exposed to flooding or<tspan x="0" y="6.5">water damage</tspan></text><text class="cls-5" transform="translate(91.2 72.25)">Special consideration must be taken with installations<tspan x="0" y="6.5">above 10,000 feet (3,048 m) refer to high altitude</tspan><tspan x="0" y="13">section of this manual.</tspan></text><text class="cls-6" transform="translate(16.24 36.53)">Breathing Hazard - Carbon Monoxide Gas</text><text class="cls-7" transform="translate(84.75 50)">•</text><text class="cls-7" transform="translate(84.75 58)">•</text><text class="cls-5" transform="translate(91.2 94.2)">Do not operate if soot buildup.</text><text class="cls-7" transform="translate(84.75 95)">•</text><text class="cls-5" transform="translate(91.2 102.7)">Do not obstruct water heater air intake with insulating<tspan x="0" y="6.5">jacket or blanket.</tspan></text><text class="cls-7" transform="translate(84.75 103.5)">•</text><text class="cls-5" transform="translate(91.2 118.45)">Do not place chemical vapor emitting products near<tspan x="0" y="6.5">water heate</tspan><tspan class="cls-8" x="34.04" y="6.5">r</tspan><tspan x="35.9" y="6.5">.</tspan></text><text class="cls-7" transform="translate(84.75 119.25)">•</text><text class="cls-5" transform="translate(91.2 133.45)">Gas and carbon monoxide detectors are available.</text><text class="cls-7" transform="translate(84.75 134.25)">•</text><text class="cls-5" transform="translate(91.2 142.7)">Never operate the heater unless it is vented to the<tspan x="0" y="6.5">outdoors and has adequate air supply to avoid risks</tspan><tspan x="0" y="13">of improper operation, fire, explosion or asphyxiation.</tspan></text><text class="cls-7" transform="translate(84.75 143.5)">•</text><text class="cls-5" transform="translate(91.2 165.7)">Analyze the entire vent system to make sure that<tspan x="0" y="6.5">condensate will not become trapped in a section of</tspan><tspan x="0" y="13">vent pipe and therefore reduce the open cross</tspan><tspan x="0" y="19.5">sectional area of the vent.</tspan></text><text class="cls-7" transform="translate(84.75 166.5)">•</text><text class="cls-7" transform="translate(84.75 73.25)">•</text><path class="cls-9" d="M1,111.22c14-6.88,17.57-8.33,27.47-11,5.22-1.44,16.27-1.31,20.61.36,3.67,1.42,9.35,4.09,9.35,4.09l19.78,9s.07,15.75-.34,15.34-23.07-11-23.07-11v36.5l-33.72,0L21,118.24,1.21,126.59Z"/><path class="cls-9" d="M26.48,83.37s-1.79,0-1.6-1.06c.22-1.29,8-9.77,8-9.77A7.91,7.91,0,0,1,38.32,70c5.64-.19,8.85,1.87,11.26,4.65,1,1.17,2.78,4,2.09,6.7-.42,1.66-2.19,5.25-3.8,9.06-1.33,3.13-2.69,7-4.88,7.64-3,.85-9.17-2.77-15.45-5.7-2.83-1.33-2.09-3.94-1.47-5.56s2.06-3,.36-3.4Z"/><path class="cls-10" d="M34.41,78.79c-.18.8-.79,1.34-1.35,1.21s-.89-.87-.71-1.67.78-1.33,1.35-1.21S34.58,78,34.41,78.79Z"/><path class="cls-11" d="M19.31,64.78c.47.94-.08,1.15.47.94s.56.13.6-.34.73-.3,0-.64A1,1,0,0,0,19.31,64.78Z"/><path class="cls-11" d="M15.42,64.78c.26,1.2-.34.81.21.6s.56.13.6-.34.73-.3.05-.64A.56.56,0,0,0,15.42,64.78Z"/><path class="cls-11" d="M17.05,69.59c-1.16-.39-.53-.71-.62-.12s-.39.41,0,.69-.11.77.53.36A.56.56,0,0,0,17.05,69.59Z"/><path class="cls-11" d="M10.56,68.87c-1.17-.38-.23-.56-.63-.12s-.58.42-.2.69,0,.55.69.13S10.56,68.87,10.56,68.87Z"/><path class="cls-11" d="M24.31,70.67c-.39,1.16-.57.22-.12.62s.41.59.69.2.54,0,.13-.68S24.31,70.67,24.31,70.67Z"/><path class="cls-11" d="M19.11,73c.43.94-.08,1.16.43.94s.5.13.54-.34.66-.3,0-.64A.85.85,0,0,0,19.11,73Z"/><path class="cls-11" d="M13.28,76c.47.94-.08,1.15.47.94s.56.12.6-.35.73-.29,0-.64A1,1,0,0,0,13.28,76Z"/><path class="cls-11" d="M8.38,75c1-.3,1.12.28,1-.3s.22-.53-.24-.65-.17-.77-.62-.15A1,1,0,0,0,8.38,75Z"/><path class="cls-11" d="M6.56,71.05c-1,.39-1.14-.18-1,.39s-.17.55.29.63.24.75.64.09A1,1,0,0,0,6.56,71.05Z"/><path class="cls-11" d="M7.82,76.39c.47.94-.09,1.16.47.94s.55.13.59-.34.73-.3,0-.64A1,1,0,0,0,7.82,76.39Z"/><path class="cls-11" d="M7.07,79.8c-.66.82-1.09.4-.66.82s.11.56.56.4.57.54.6-.22A1,1,0,0,0,7.07,79.8Z"/><path class="cls-11" d="M11.41,83.67c.47.94-.09,1.15.47.94s.56.12.6-.35.72-.3,0-.64A1,1,0,0,0,11.41,83.67Z"/><path class="cls-11" d="M11.63,88.32c-.73.76-1.12.31-.73.76s.07.57.52.45.53.59.62-.18A1,1,0,0,0,11.63,88.32Z"/><path class="cls-11" d="M13.5,92.27c.39.77-.07,1,.39.77s.46.11.49-.28.59-.24,0-.52A.82.82,0,0,0,13.5,92.27Z"/><path class="cls-11" d="M13.73,94.68c.39.77-.07.95.39.77s.45.11.49-.28.59-.25,0-.53A.81.81,0,0,0,13.73,94.68Z"/><path class="cls-11" d="M14.06,72.28c-1.16-.38-.22-.56-.62-.11s-.58.41-.2.69,0,.54.68.12S14.06,72.28,14.06,72.28Z"/><path class="cls-11" d="M17.4,79.43c-1.16-.39-.23-.57-.62-.12s-.59.41-.2.69,0,.54.68.13S17.4,79.43,17.4,79.43Z"/><path class="cls-11" d="M14.58,79.26c-1.17-.39-.23-.57-.63-.12s-.58.41-.2.69,0,.54.69.13S14.58,79.26,14.58,79.26Z"/><path class="cls-11" d="M25.14,75.54c-1.16-.39-.23-.57-.62-.12s-.59.41-.2.69,0,.54.68.13S25.14,75.54,25.14,75.54Z"/><path class="cls-11" d="M14.58,66.72c-1.17-.38-.23-.56-.63-.11s-.58.41-.2.69,0,.54.69.12S14.58,66.72,14.58,66.72Z"/><path class="cls-11" d="M9.66,80c-1.16-.39-.23-.57-.63-.12s-.58.41-.2.69.05.54.69.13S9.66,80,9.66,80Z"/><path class="cls-12" d="M17.31,74.73c-1.16-.39-.22-.56-.62-.12s-.58.42-.2.69,0,.55.68.13S17.31,74.73,17.31,74.73Z"/><path class="cls-11" d="M4.61,74.73c-1.16-.39-.23-.56-.62-.12s-.59.42-.2.69,0,.55.68.13S4.61,74.73,4.61,74.73Z"/><path class="cls-11" d="M6.82,74c-.63.26-.74-.11-.63.26s-.11.35.19.4.15.48.41.06A.66.66,0,0,0,6.82,74Z"/><path class="cls-11" d="M14.13,69.36c-.63.25-.74-.12-.63.25s-.11.35.19.4.15.49.41.07A.64.64,0,0,0,14.13,69.36Z"/><path class="cls-12" d="M12.19,80.77c-1.16-.38-.22-.56-.62-.12s-.58.42-.2.69,0,.55.68.13S12.19,80.77,12.19,80.77Z"/><path class="cls-12" d="M4.15,79.19c-1.16-.39-.22-.57-.62-.12s-.59.42-.2.69,0,.55.68.13S4.15,79.19,4.15,79.19Z"/><path class="cls-11" d="M17.75,67.34c-1.16-.38-.22-.56-.62-.12s-.58.42-.2.69,0,.55.68.13S17.75,67.34,17.75,67.34Z"/><path class="cls-11" d="M11.08,72.73c-1.16-.38-.23-.56-.62-.12s-.59.42-.2.69,0,.55.68.13S11.08,72.73,11.08,72.73Z"/><path class="cls-11" d="M20.5,75.3c-.08-1.22.43-.42-.13-.62-.71-.25-.6-.39-.71.07s-.49.25.13.69S20.5,75.3,20.5,75.3Z"/><path class="cls-11" d="M18.41,78.26c.34-1.17.56-.25.1-.63s-.44-.57-.7-.17-.54.06-.1.69S18.41,78.26,18.41,78.26Z"/><path class="cls-11" d="M20.45,84.51c.34-1.17.55-.24.09-.62s-.44-.57-.7-.18-.54.06-.1.69S20.45,84.51,20.45,84.51Z"/><path class="cls-11" d="M15.23,86.82c.34-1.17.55-.25.09-.62s-.43-.57-.69-.18-.55.06-.11.69S15.23,86.82,15.23,86.82Z"/><path class="cls-12" d="M8.51,87c.34-1.17.56-.25.1-.63s-.44-.57-.7-.17-.54.06-.1.69S8.51,87,8.51,87Z"/><path class="cls-11" d="M3.57,85.87c.35-1.18.56-.25.1-.63s-.44-.57-.7-.18-.54.07-.1.69S3.57,85.87,3.57,85.87Z"/><path class="cls-11" d="M3.91,88.2c-.66.81-1.08.39-.66.81s.11.56.56.41.57.54.6-.23A1,1,0,0,0,3.91,88.2Z"/><path class="cls-12" d="M11.83,90.68c-.67.81-1.09.39-.67.81s.11.56.56.41.57.54.6-.23A1,1,0,0,0,11.83,90.68Z"/><path class="cls-11" d="M25.17,77.37c-.67.82-1.09.4-.67.82s.12.56.56.41.57.54.6-.23A1,1,0,0,0,25.17,77.37Z"/><path class="cls-11" d="M15.05,90.29c.34-1.17.56-.24.1-.62s-.44-.57-.7-.18-.54.06-.1.69S15.05,90.29,15.05,90.29Z"/><path class="cls-11" d="M17.15,87.92c.39.78-.07,1,.39.78s.45.1.49-.28.59-.25,0-.53A.82.82,0,0,0,17.15,87.92Z"/><path class="cls-11" d="M8.13,88.56c.38.78-.07,1,.38.78s.46.1.49-.29.6-.24,0-.52A.82.82,0,0,0,8.13,88.56Z"/><path class="cls-11" d="M6.16,91.34c.39.78-.07,1,.39.78s.45.1.49-.28.59-.25,0-.53A.82.82,0,0,0,6.16,91.34Z"/><path class="cls-11" d="M9.66,92.56c.35-1.17.56-.25.1-.63s-.44-.56-.7-.17-.54.06-.1.69S9.66,92.56,9.66,92.56Z"/><path class="cls-12" d="M6.54,89.48c.34-1.17.56-.24.1-.63s-.44-.56-.7-.17-.54.06-.1.69S6.54,89.48,6.54,89.48Z"/><path class="cls-11" d="M7.48,83.88c.34-1.18.56-.25.1-.63s-.44-.57-.7-.17-.54.06-.1.68S7.48,83.88,7.48,83.88Z"/><path class="cls-11" d="M5.65,85.86c.39.77-.07,1,.39.77s.45.11.49-.28.59-.24,0-.52A.82.82,0,0,0,5.65,85.86Z"/><path class="cls-11" d="M21.43,77c.32.8-.15.94.32.8s.45.15.51-.24.62-.19.08-.52A.81.81,0,0,0,21.43,77Z"/><path class="cls-11" d="M20.84,91.46c.38.78-.07,1,.38.78s.46.1.49-.28.6-.25,0-.53A.82.82,0,0,0,20.84,91.46Z"/><path class="cls-12" d="M18.09,91.15c.34-1.18.55-.25.09-.63s-.43-.56-.69-.17-.55.06-.1.69S18.09,91.15,18.09,91.15Z"/><path class="cls-12" d="M23.78,89.91c.34-1.17.55-.25.09-.63s-.43-.57-.69-.17-.55.06-.11.69S23.78,89.91,23.78,89.91Z"/><path class="cls-11" d="M19.27,94.33c.38.77-.07,1,.38.77s.46.11.49-.28.6-.24,0-.53A.81.81,0,0,0,19.27,94.33Z"/><path class="cls-11" d="M4.24,82.31c.39.77-.07,1,.39.77s.45.11.49-.28.59-.24,0-.52A.8.8,0,0,0,4.24,82.31Z"/><path class="cls-11" d="M9.73,83.19c-.63.25-.74-.11-.63.25s-.11.35.19.41.15.48.41.06A.66.66,0,0,0,9.73,83.19Z"/><path class="cls-11" d="M23.07,86.74c-.63.25-.73-.11-.63.25s-.11.35.19.41.15.48.41.06A.64.64,0,0,0,23.07,86.74Z"/><path class="cls-11" d="M20.54,89c-.63.25-.73-.12-.63.25s-.11.35.19.4.15.49.41.06A.62.62,0,0,0,20.54,89Z"/><path class="cls-11" d="M17.43,92.69c-.63.25-.74-.12-.63.25s-.11.35.19.4.15.48.4.06A.63.63,0,0,0,17.43,92.69Z"/><path class="cls-11" d="M19.28,85.4c-1,.22-1.09-.37-1,.22s-.27.5.18.66.1.78.61.21A1,1,0,0,0,19.28,85.4Z"/><path class="cls-12" d="M7.53,69.87c1-.45,1.16.11,1-.45s.14-.55-.33-.61-.29-.73-.64,0A1,1,0,0,0,7.53,69.87Z"/><path class="cls-11" d="M9.27,71.61c-1.16-.39-.22-.57-.62-.12s-.59.42-.2.69,0,.55.68.13S9.27,71.61,9.27,71.61Z"/><path class="cls-11" d="M17.64,72.14c-1.16-.39-.22-.57-.62-.12s-.59.41-.2.69,0,.54.68.13S17.64,72.14,17.64,72.14Z"/><path class="cls-12" d="M11.21,66.72c-.64,1-.6.09-.26.58s.27.67.63.36.54.09.28-.64S11.21,66.72,11.21,66.72Z"/><path class="cls-11" d="M13.05,64c-1.16-.39-.23-.57-.62-.12s-.59.41-.21.69,0,.55.69.13S13.05,64,13.05,64Z"/><path class="cls-11" d="M4.29,68.92c-.57,1.08-.59.13-.22.59s.32.65.65.32.55,0,.24-.66S4.29,68.92,4.29,68.92Z"/><path class="cls-11" d="M5.75,66.5c-1.08.58-.57-.23-.52.37s-.1.71.36.62.43.34.57-.41S5.75,66.5,5.75,66.5Z"/><path class="cls-11" d="M6.46,77.77c-1.16-.39-.23-.57-.62-.12s-.58.41-.2.69,0,.54.68.13S6.46,77.77,6.46,77.77Z"/><path class="cls-12" d="M4.27,71.86c-1-.64-.09-.6-.58-.26s-.67.27-.36.63-.09.54.64.28S4.27,71.86,4.27,71.86Z"/><path class="cls-11" d="M2.89,78c1.14-.46.54.28.56-.31,0-.76.17-.7-.3-.66s-.38-.39-.6.34S2.89,78,2.89,78Z"/><path class="cls-11" d="M12.66,86.67c-.11-1,.44-1.07-.11-1s-.43-.28-.62.15-.73.07-.25.6A.85.85,0,0,0,12.66,86.67Z"/><path class="cls-11" d="M11.23,76.94c-1.05.06-1-.53-1.05.06s-.34.46.08.69,0,.79.57.29A1,1,0,0,0,11.23,76.94Z"/><path class="cls-12" d="M12.35,74.6c-1,.07-1-.53-1,.07s-.33.46.08.68,0,.79.58.29A1,1,0,0,0,12.35,74.6Z"/><path class="cls-11" d="M10.41,65.06c-.62.25-.73-.12-.62.25s-.12.35.18.4.16.48.41.06A.62.62,0,0,0,10.41,65.06Z"/><path class="cls-11" d="M14.69,82.47c-.78-1,.1-.6-.47-.44-.72.21-.72,0-.54.48s-.25.48.51.47S14.69,82.47,14.69,82.47Z"/><path class="cls-12" d="M17.19,82.53c-1.05.06-1-.54-1.05.06s-.33.46.08.69,0,.78.58.29A1,1,0,0,0,17.19,82.53Z"/><path class="cls-11" d="M19.61,80.93c-.63.25-.73-.11-.63.25s-.11.36.19.41.16.48.41.06A.64.64,0,0,0,19.61,80.93Z"/><path class="cls-11" d="M20.91,79.92c-.08-1.22.43-.42-.13-.62-.71-.25-.6-.39-.71.07s-.49.25.13.68S20.91,79.92,20.91,79.92Z"/><path class="cls-12" d="M21.75,81.07c1.2-.24.48.38.6-.2.16-.74.31-.65-.16-.7s-.31-.46-.66.22S21.75,81.07,21.75,81.07Z"/><path class="cls-11" d="M23,81.24c.32.81-.15.94.32.81s.45.14.51-.24.62-.2.08-.53A.83.83,0,0,0,23,81.24Z"/><path class="cls-11" d="M22.05,83.74c.32.8-.15.94.32.8s.44.15.51-.23.61-.2.08-.53A.82.82,0,0,0,22.05,83.74Z"/><path class="cls-11" d="M25.36,85.36c-.78-1,.11-.6-.46-.43-.73.21-.72,0-.54.47s-.26.49.51.48S25.36,85.36,25.36,85.36Z"/><path class="cls-11" d="M24.72,91.65c-.63.25-.74-.12-.63.25s-.11.35.19.4.15.49.41.07A.63.63,0,0,0,24.72,91.65Z"/><path class="cls-11" d="M28.29,70.72c-.63.25-.73-.12-.63.25s-.11.35.19.4.15.49.41.07A.63.63,0,0,0,28.29,70.72Z"/><path class="cls-11" d="M27.35,73.26c-.62.25-.73-.11-.62.25s-.12.35.18.41.16.48.41.06A.64.64,0,0,0,27.35,73.26Z"/><path class="cls-12" d="M29.76,72.91c-1.17-.38-.23-.56-.63-.12s-.58.42-.2.69,0,.55.68.13S29.76,72.91,29.76,72.91Z"/><path class="cls-11" d="M28,75.78c-1.16-.39-.23-.57-.63-.12s-.58.41-.2.69.05.54.69.13S28,75.78,28,75.78Z"/><path class="cls-11" d="M26.1,66.93c-1.17-.38-.23-.56-.63-.12s-.58.42-.2.69,0,.55.69.13S26.1,66.93,26.1,66.93Z"/><path class="cls-11" d="M26.71,69.22c-.63.25-.74-.12-.63.25s-.11.35.19.4.15.49.41.06A.64.64,0,0,0,26.71,69.22Z"/><path class="cls-11" d="M24,64.73c-1.16-.39-.53-.71-.63-.12s-.39.41,0,.69-.1.78.54.36A.56.56,0,0,0,24,64.73Z"/><path class="cls-11" d="M22.68,73.71c-.16-1.22.4-.79-.17-.62s-.54-.17-.62.3-.75.24-.09.64A.56.56,0,0,0,22.68,73.71Z"/><path class="cls-11" d="M20.56,69.44c-1.16-.38-.23-.56-.63-.12s-.58.42-.2.69.05.55.69.13S20.56,69.44,20.56,69.44Z"/><path class="cls-11" d="M24.16,68.27c-1.15-.4-.51-.71-.62-.13s-.4.41,0,.69-.12.78.53.37A.56.56,0,0,0,24.16,68.27Z"/><path class="cls-12" d="M22.45,70.37c-1.16-.39-.53-.71-.62-.12s-.4.41,0,.69-.11.78.53.36A.56.56,0,0,0,22.45,70.37Z"/><path class="cls-11" d="M20.3,67.35c-1.16-.38-.53-.7-.63-.11s-.39.41,0,.69-.11.77.53.36A.57.57,0,0,0,20.3,67.35Z"/><path class="cls-11" d="M23.05,66.41c-.63.25-.74-.12-.63.25s-.11.35.19.4.15.48.41.06A.64.64,0,0,0,23.05,66.41Z"/><path class="cls-11" d="M61.13,66.92c.47.94-.09,1.16.47.94s.56.13.6-.34.72-.3,0-.64A1,1,0,0,0,61.13,66.92Z"/><path class="cls-12" d="M57.86,66.48c.26,1.2-.34.81.21.6s.56.13.6-.34.73-.3,0-.64A.56.56,0,0,0,57.86,66.48Z"/><path class="cls-11" d="M61.2,70.7c-1.16-.38-.53-.71-.62-.12s-.4.42,0,.69-.11.78.53.36A.56.56,0,0,0,61.2,70.7Z"/><path class="cls-11" d="M53.54,69.81c-1.17-.39-.23-.57-.63-.12s-.58.41-.2.69,0,.54.69.13S53.54,69.81,53.54,69.81Z"/><path class="cls-11" d="M67.33,71.24c-.39,1.16-.56.23-.12.62s.41.59.69.21.55,0,.13-.68S67.33,71.24,67.33,71.24Z"/><path class="cls-12" d="M65.33,74.4c.42.95-.08,1.16.42.95s.51.12.55-.35.66-.3,0-.64A.84.84,0,0,0,65.33,74.4Z"/><path class="cls-11" d="M61.89,78c.47.94-.09,1.16.47.94s.55.13.59-.34.73-.3,0-.64A1,1,0,0,0,61.89,78Z"/><path class="cls-11" d="M55.68,75.26c1-.31,1.12.28,1-.31s.22-.52-.23-.64-.17-.77-.63-.16A1,1,0,0,0,55.68,75.26Z"/><path class="cls-11" d="M49.54,72c-1,.39-1.14-.18-1,.39s-.17.54.29.62.24.75.64.1A1,1,0,0,0,49.54,72Z"/><path class="cls-11" d="M52.28,75.67c.47.94-.09,1.15.47.94s.56.13.6-.35.73-.3,0-.64A1,1,0,0,0,52.28,75.67Z"/><path class="cls-12" d="M53.2,81.86c-.66.82-1.09.4-.66.82s.11.56.55.4.58.54.61-.22A1,1,0,0,0,53.2,81.86Z"/><path class="cls-11" d="M56.23,85.32c.47.94-.08,1.16.47.94s.56.13.6-.34.73-.3.05-.64A1,1,0,0,0,56.23,85.32Z"/><path class="cls-11" d="M53,89.12c-.73.76-1.12.31-.73.76s.07.57.52.45.53.59.62-.17A1,1,0,0,0,53,89.12Z"/><path class="cls-12" d="M52.26,91.27c.38.78-.07,1,.38.78s.46.1.49-.28.6-.25,0-.53A.82.82,0,0,0,52.26,91.27Z"/><path class="cls-11" d="M58.2,93.23c.38.77-.08,1,.38.77s.46.11.49-.28.6-.24,0-.52A.81.81,0,0,0,58.2,93.23Z"/><path class="cls-12" d="M59.79,72.86c-1.16-.38-.23-.56-.63-.12s-.58.42-.2.69,0,.55.69.13S59.79,72.86,59.79,72.86Z"/><path class="cls-11" d="M61.55,80.05c-1.16-.38-.23-.57-.62-.12s-.59.41-.2.69,0,.55.68.13S61.55,80.05,61.55,80.05Z"/><path class="cls-11" d="M58.86,84.24c-1.16-.38-.23-.56-.62-.12s-.59.42-.2.69,0,.55.68.13S58.86,84.24,58.86,84.24Z"/><path class="cls-11" d="M73.3,76.7c-1.16-.38-.23-.56-.62-.12s-.59.42-.2.69,0,.55.68.13S73.3,76.7,73.3,76.7Z"/><path class="cls-11" d="M57.2,67.3c-1.16-.38-.23-.56-.63-.12s-.58.42-.2.69.05.55.69.13S57.2,67.3,57.2,67.3Z"/><path class="cls-11" d="M55.29,80.29c-1.16-.39-.23-.57-.62-.12s-.59.41-.2.69,0,.54.68.13S55.29,80.29,55.29,80.29Z"/><path class="cls-11" d="M60.56,77c-1.16-.38-.22-.56-.62-.11s-.59.41-.2.69,0,.54.68.13S60.56,77,60.56,77Z"/><path class="cls-11" d="M56,69.68c-1.16-.38-.23-.56-.63-.11s-.58.41-.2.68,0,.55.69.13S56,69.68,56,69.68Z"/><path class="cls-11" d="M52.23,74c-.63.25-.74-.12-.63.25s-.11.35.19.41.15.48.41.06A.65.65,0,0,0,52.23,74Z"/><path class="cls-11" d="M58.33,70.7c-.63.25-.74-.12-.63.25s-.12.35.18.4.16.49.41.07A.65.65,0,0,0,58.33,70.7Z"/><path class="cls-12" d="M63.59,84.05c-1.17-.39-.23-.57-.63-.12s-.58.41-.2.69,0,.54.69.13S63.59,84.05,63.59,84.05Z"/><path class="cls-11" d="M56.81,72.17c-1.17-.39-.23-.57-.63-.13s-.58.42-.2.7,0,.54.68.12S56.81,72.17,56.81,72.17Z"/><path class="cls-11" d="M60.17,68.11c-1.17-.39-.23-.57-.63-.12s-.58.42-.2.69,0,.55.68.13S60.17,68.11,60.17,68.11Z"/><path class="cls-11" d="M54.42,72.27c-1.16-.38-.23-.56-.62-.11s-.59.41-.2.68,0,.55.68.13S54.42,72.27,54.42,72.27Z"/><path class="cls-11" d="M64.74,76.92c-.08-1.23.43-.43-.13-.63s-.6-.38-.71.08-.49.24.13.68S64.74,76.92,64.74,76.92Z"/><path class="cls-11" d="M64,80.64c.35-1.18.56-.25.1-.63s-.44-.57-.7-.18-.54.07-.1.69S64,80.64,64,80.64Z"/><path class="cls-12" d="M68.91,91.43c.35-1.17.56-.25.1-.63s-.44-.56-.7-.17-.54.06-.1.69S68.91,91.43,68.91,91.43Z"/><path class="cls-11" d="M59.2,87.81c.34-1.18.55-.25.09-.63s-.43-.57-.69-.18-.55.06-.11.69S59.2,87.81,59.2,87.81Z"/><path class="cls-11" d="M51.81,87.26c.34-1.18.55-.25.09-.63s-.43-.57-.69-.17-.55.06-.11.68S51.81,87.26,51.81,87.26Z"/><path class="cls-11" d="M55.66,90.76c-.66.81-1.09.39-.66.81s.11.56.55.41.58.54.61-.23A1,1,0,0,0,55.66,90.76Z"/><path class="cls-11" d="M67.55,77.75c-.66.82-1.08.4-.66.82s.11.56.56.4.57.54.6-.22A1,1,0,0,0,67.55,77.75Z"/><path class="cls-11" d="M57.13,90.2c.34-1.17.56-.25.1-.63s-.44-.57-.7-.17-.54.06-.1.69S57.13,90.2,57.13,90.2Z"/><path class="cls-11" d="M59.32,89.44c.39.78-.07,1,.39.78s.45.1.49-.29.59-.24,0-.52A.82.82,0,0,0,59.32,89.44Z"/><path class="cls-11" d="M55.1,84c.38.77-.07,1,.38.77s.46.11.49-.28.6-.24,0-.53A.81.81,0,0,0,55.1,84Z"/><path class="cls-11" d="M53.14,87.42c.39.78-.07,1,.39.78s.45.1.49-.29.59-.24,0-.52A.8.8,0,0,0,53.14,87.42Z"/><path class="cls-11" d="M65.37,87.43c.34-1.18.56-.25.1-.63s-.44-.57-.7-.18-.54.06-.1.69S65.37,87.43,65.37,87.43Z"/><path class="cls-11" d="M50.24,90.78c.34-1.18.56-.25.1-.63s-.44-.57-.7-.18-.54.07-.1.69S50.24,90.78,50.24,90.78Z"/><path class="cls-11" d="M55.59,82.66c.34-1.18.55-.25.1-.63s-.44-.57-.7-.18-.54.07-.1.69S55.59,82.66,55.59,82.66Z"/><path class="cls-12" d="M72.19,81.24c.32.81-.15.94.32.81s.45.14.51-.24.62-.2.08-.52A.82.82,0,0,0,72.19,81.24Z"/><path class="cls-11" d="M65.26,91.43c.39.77-.07.94.39.77s.45.11.49-.28.59-.25,0-.53A.81.81,0,0,0,65.26,91.43Z"/><path class="cls-12" d="M60.21,92.49c.35-1.17.56-.25.1-.63s-.44-.57-.7-.17-.54.06-.1.69S60.21,92.49,60.21,92.49Z"/><path class="cls-11" d="M70.54,90c.34-1.18.55-.25.09-.63s-.43-.57-.7-.18-.54.07-.1.69S70.54,90,70.54,90Z"/><path class="cls-11" d="M63.24,93.78c.38.78-.07,1,.38.78s.46.1.49-.29.6-.24,0-.52A.8.8,0,0,0,63.24,93.78Z"/><path class="cls-12" d="M57.34,78.61c.39.78-.07,1,.39.78s.45.1.49-.28.6-.25,0-.53A.82.82,0,0,0,57.34,78.61Z"/><path class="cls-11" d="M53.11,84.26c-.62.25-.73-.11-.62.25s-.12.35.18.41.16.48.41.06A.64.64,0,0,0,53.11,84.26Z"/><path class="cls-11" d="M66.32,89.21c-.63.25-.73-.12-.63.25s-.11.35.19.4.15.48.41.06A.62.62,0,0,0,66.32,89.21Z"/><path class="cls-11" d="M63.25,90.38c-.63.26-.73-.11-.63.26s-.11.35.19.4.15.48.41.06A.64.64,0,0,0,63.25,90.38Z"/><path class="cls-11" d="M68.32,87.55c-.62.25-.73-.11-.62.25s-.12.35.18.41.16.48.41.06A.64.64,0,0,0,68.32,87.55Z"/><path class="cls-11" d="M63.25,88.09c-1,.22-1.09-.37-1,.22s-.26.5.18.66.1.78.61.21A1,1,0,0,0,63.25,88.09Z"/><path class="cls-11" d="M50.51,70.81c1-.45,1.16.11,1-.45s.14-.56-.33-.61-.28-.73-.64,0A1,1,0,0,0,50.51,70.81Z"/><path class="cls-12" d="M52.16,72.14c-1.16-.39-.22-.56-.62-.12s-.59.42-.2.69,0,.55.68.13S52.16,72.14,52.16,72.14Z"/><path class="cls-11" d="M63.5,74.11c-1.16-.39-.23-.57-.62-.12s-.59.41-.2.69,0,.54.68.13S63.5,74.11,63.5,74.11Z"/><path class="cls-11" d="M53.68,67.23c-.65,1-.6.09-.26.57s.26.67.62.36.54.09.29-.63S53.68,67.23,53.68,67.23Z"/><path class="cls-11" d="M55.58,65.42c-1.16-.38-.23-.56-.62-.11s-.59.41-.2.69,0,.54.68.12S55.58,65.42,55.58,65.42Z"/><path class="cls-11" d="M46.37,69.45c-.57,1.08-.59.13-.22.6s.32.64.65.31.55,0,.24-.66S46.37,69.45,46.37,69.45Z"/><path class="cls-11" d="M49.18,67.7c-1.08.58-.57-.22-.52.37.06.75-.1.71.36.63s.43.34.57-.41S49.18,67.7,49.18,67.7Z"/><path class="cls-11" d="M59,80.48c-1.16-.39-.23-.56-.62-.12s-.59.42-.2.69,0,.55.68.13S59,80.48,59,80.48Z"/><path class="cls-11" d="M49.59,70.1c-1-.65-.09-.6-.58-.26s-.67.27-.36.62-.09.54.63.29S49.59,70.1,49.59,70.1Z"/><path class="cls-12" d="M56.22,87.83c-.1-1,.45-1.06-.1-1s-.44-.28-.63.15-.72.07-.24.6A.84.84,0,0,0,56.22,87.83Z"/><path class="cls-11" d="M53.94,78.82c-1,.07-1-.53-1,.07s-.33.46.08.68,0,.79.57.29A1,1,0,0,0,53.94,78.82Z"/><path class="cls-11" d="M56.28,77.44c-1.05.06-1-.53-1.05.06s-.33.47.08.69,0,.78.58.29A1,1,0,0,0,56.28,77.44Z"/><path class="cls-11" d="M52.09,66c-.63.25-.74-.12-.63.25s-.11.35.19.4.15.49.41.07A.66.66,0,0,0,52.09,66Z"/><path class="cls-11" d="M61.67,85.47c-.78-1,.11-.6-.47-.43s-.71,0-.53.47-.26.49.51.48S61.67,85.47,61.67,85.47Z"/><path class="cls-11" d="M59.86,82c-1,.07-1-.53-1,.07s-.34.46.08.68,0,.79.57.29A1,1,0,0,0,59.86,82Z"/><path class="cls-11" d="M70.19,82.77c-.62.25-.73-.12-.62.25s-.11.35.18.4.16.49.41.07A.63.63,0,0,0,70.19,82.77Z"/><path class="cls-11" d="M68,82.21c-.08-1.22.43-.42-.13-.62-.71-.26-.6-.39-.71.07s-.49.24.13.68S68,82.21,68,82.21Z"/><path class="cls-11" d="M65,82.55c1.2-.24.48.38.6-.21s.31-.65-.16-.7-.31-.45-.66.23S65,82.55,65,82.55Z"/><path class="cls-11" d="M71.72,84.34c.32.8-.15.94.32.8s.45.14.51-.24.62-.19.08-.52A.81.81,0,0,0,71.72,84.34Z"/><path class="cls-11" d="M65.1,84.79c.32.8-.15.93.32.8s.45.14.51-.24.62-.2.08-.52A.81.81,0,0,0,65.1,84.79Z"/><path class="cls-11" d="M70.05,86.34c-.78-1,.11-.6-.46-.43-.73.21-.72,0-.54.47s-.26.49.51.48S70.05,86.34,70.05,86.34Z"/><path class="cls-11" d="M67.7,92.58c-.63.26-.74-.11-.63.26s-.11.35.19.4.15.48.41.06A.64.64,0,0,0,67.7,92.58Z"/><path class="cls-12" d="M70.55,72.78c-.63.25-.73-.11-.63.25s-.11.35.19.4.15.49.41.07A.64.64,0,0,0,70.55,72.78Z"/><path class="cls-11" d="M70.6,74.92c-.63.25-.73-.12-.63.25s-.11.35.19.4.16.49.41.06A.62.62,0,0,0,70.6,74.92Z"/><path class="cls-11" d="M72.74,73.85c-1.17-.39-.23-.57-.63-.12s-.58.41-.2.69,0,.54.69.13S72.74,73.85,72.74,73.85Z"/><path class="cls-11" d="M71.27,78.11c-1.16-.39-.22-.57-.62-.12s-.58.41-.2.69,0,.55.68.13S71.27,78.11,71.27,78.11Z"/><path class="cls-11" d="M59,75.56c-1.16-.39-.23-.56-.62-.12s-.59.42-.2.69,0,.55.68.13S59,75.56,59,75.56Z"/><path class="cls-11" d="M69.9,69.39c-.62.25-.73-.12-.62.25s-.12.35.18.4.16.48.41.06A.62.62,0,0,0,69.9,69.39Z"/><path class="cls-11" d="M61.43,74c-1.16-.38-.52-.71-.62-.12s-.39.41,0,.69-.11.78.53.36A.56.56,0,0,0,61.43,74Z"/><path class="cls-11" d="M72.72,71.14c-.16-1.22.41-.79-.16-.62s-.55-.17-.63.3-.75.24-.09.63A.55.55,0,0,0,72.72,71.14Z"/><path class="cls-11" d="M63.18,72.13c-1.16-.38-.23-.56-.63-.12s-.58.42-.2.69,0,.55.69.13S63.18,72.13,63.18,72.13Z"/><path class="cls-11" d="M67.14,69.21c-1.15-.41-.51-.72-.62-.13s-.4.41,0,.69-.12.78.52.37A.56.56,0,0,0,67.14,69.21Z"/><path class="cls-11" d="M65.43,71.3c-1.16-.38-.53-.7-.62-.12s-.4.42,0,.69-.11.78.53.37A.57.57,0,0,0,65.43,71.3Z"/><path class="cls-11" d="M63.77,69.19c-1.16-.38-.52-.71-.62-.12s-.39.42,0,.69-.11.78.53.36A.56.56,0,0,0,63.77,69.19Z"/><path class="cls-11" d="M64.86,67.48c-.63.25-.74-.12-.63.25s-.11.35.19.4.15.49.41.06A.64.64,0,0,0,64.86,67.48Z"/><path class="cls-11" d="M67.51,84c-.63.26-.74-.11-.63.26s-.11.34.19.4.15.48.41.06A.66.66,0,0,0,67.51,84Z"/><path class="cls-11" d="M61,86.67c-.63.25-.74-.11-.63.25s-.11.36.19.41.15.48.41.06A.66.66,0,0,0,61,86.67Z"/><path class="cls-12" d="M70,80c-.63.25-.74-.12-.63.25s-.11.35.19.4.15.48.4.06A.63.63,0,0,0,70,80Z"/><path class="cls-11" d="M65.84,79c-.63.25-.73-.12-.63.25s-.11.35.19.4.16.48.41.06A.62.62,0,0,0,65.84,79Z"/><path class="cls-11" d="M61.72,83.08c-.78-1,.11-.6-.47-.43s-.71,0-.54.47-.25.48.51.47S61.72,83.08,61.72,83.08Z"/><path class="cls-11" d="M68.72,75.47c-.62.25-.73-.12-.62.25s-.11.35.18.4.16.49.41.06A.62.62,0,0,0,68.72,75.47Z"/><path class="cls-11" d="M68.3,73.72c-.17-1.22.4-.79-.17-.62s-.54-.17-.62.3-.75.24-.09.64A.56.56,0,0,0,68.3,73.72Z"/><path class="cls-13" d="M50.94,116.86a12.39,12.39,0,1,1-12.39-12.39A12.4,12.4,0,0,1,50.94,116.86Z"/><path class="cls-11" d="M37.52,107.5c.47.94-.09,1.16.47.94s.55.13.6-.34.72-.3,0-.64A1,1,0,0,0,37.52,107.5Z"/><path class="cls-12" d="M29.65,114.75c.47.94-.09,1.16.47.94s.56.13.6-.34.73-.3,0-.64A1,1,0,0,0,29.65,114.75Z"/><path class="cls-12" d="M31.61,121.83c.39.77-.07,1,.39.77s.45.11.49-.28.59-.24,0-.53A.81.81,0,0,0,31.61,121.83Z"/><path class="cls-11" d="M34.59,110.17c-1.17-.38-.23-.56-.63-.12s-.58.42-.2.69,0,.55.68.13S34.59,110.17,34.59,110.17Z"/><path class="cls-11" d="M29.86,112.8c-1.17-.38-.23-.56-.63-.11s-.59.41-.2.69,0,.54.68.12S29.86,112.8,29.86,112.8Z"/><path class="cls-11" d="M38.79,112.55c-1.17-.38-.23-.56-.63-.11s-.58.41-.2.68,0,.55.68.13S38.79,112.55,38.79,112.55Z"/><path class="cls-11" d="M37.77,110.55c.35-1.18.56-.25.1-.63s-.44-.57-.7-.17-.54.06-.1.69S37.77,110.55,37.77,110.55Z"/><path class="cls-12" d="M44.61,124.12c.35-1.18.56-.25.1-.63s-.44-.57-.7-.18-.54.06-.1.69S44.61,124.12,44.61,124.12Z"/><path class="cls-11" d="M31.69,117.06c.34-1.17.55-.25.09-.62s-.43-.58-.69-.18-.55.06-.11.69S31.69,117.06,31.69,117.06Z"/><path class="cls-11" d="M41.45,106.94c-.66.82-1.08.4-.66.82s.11.56.56.4.57.54.6-.22A1,1,0,0,0,41.45,106.94Z"/><path class="cls-11" d="M28.12,120.3c.38.78-.07,1,.38.78s.46.1.49-.28.6-.25,0-.53A.82.82,0,0,0,28.12,120.3Z"/><path class="cls-11" d="M38.51,117.27c.34-1.18.55-.25.09-.63s-.43-.57-.69-.17-.55.06-.11.69S38.51,117.27,38.51,117.27Z"/><path class="cls-11" d="M39.16,120.61c.39.78-.07,1,.39.78s.45.1.49-.28.59-.25,0-.53A.82.82,0,0,0,39.16,120.61Z"/><path class="cls-11" d="M35.05,122.68c.34-1.17.56-.25.1-.63s-.44-.56-.7-.17-.54.06-.1.69S35.05,122.68,35.05,122.68Z"/><path class="cls-11" d="M44.44,120c.34-1.17.55-.24.09-.62s-.43-.57-.7-.18-.54.07-.1.69S44.44,120,44.44,120Z"/><path class="cls-11" d="M37.14,123c.39.77-.07,1,.39.77s.45.11.49-.28.59-.24,0-.53A.81.81,0,0,0,37.14,123Z"/><path class="cls-11" d="M33.32,107.87c.39.77-.07.95.39.77s.45.11.49-.28.59-.24,0-.53A.81.81,0,0,0,33.32,107.87Z"/><path class="cls-11" d="M35.93,119.16c-.63.25-.74-.12-.63.25s-.11.35.19.4.15.48.41.06A.64.64,0,0,0,35.93,119.16Z"/><path class="cls-11" d="M40.3,126.78c-.63.25-.73-.12-.63.25s-.11.35.19.4.16.49.41.07A.63.63,0,0,0,40.3,126.78Z"/><path class="cls-11" d="M41.41,115c-.63.25-.73-.12-.63.25s-.11.35.19.4.15.48.41.06A.62.62,0,0,0,41.41,115Z"/><path class="cls-11" d="M33.38,118.46c-1,.21-1.1-.38-1,.21s-.27.51.18.67.1.78.6.2A1,1,0,0,0,33.38,118.46Z"/><path class="cls-11" d="M31.45,111.36c-1.16-.38-.23-.56-.62-.12s-.59.42-.2.69,0,.55.68.13S31.45,111.36,31.45,111.36Z"/><path class="cls-11" d="M34.6,115.56c-.78-1,.11-.6-.46-.44-.73.21-.72,0-.54.48s-.26.48.51.48S34.6,115.56,34.6,115.56Z"/><path class="cls-11" d="M32.69,125.06c-1,.06-1-.53-1,.06s-.34.46.08.69,0,.78.57.29A1,1,0,0,0,32.69,125.06Z"/><path class="cls-11" d="M48.42,113c-.63.25-.73-.12-.63.25s-.11.35.19.4.16.49.41.06A.62.62,0,0,0,48.42,113Z"/><path class="cls-11" d="M42.9,112.05c-.08-1.22.43-.42-.13-.62-.71-.25-.6-.39-.71.07s-.49.25.13.69S42.9,112.05,42.9,112.05Z"/><path class="cls-11" d="M37.41,115.47c1.21-.24.48.38.61-.2.15-.74.3-.65-.17-.7s-.31-.45-.66.23S37.41,115.47,37.41,115.47Z"/><path class="cls-11" d="M40.39,123.87c.32.81-.15.94.32.81s.44.14.51-.24.61-.2.08-.52A.82.82,0,0,0,40.39,123.87Z"/><path class="cls-11" d="M44,115.81c-.78-1,.11-.6-.46-.44-.73.21-.72,0-.54.48s-.26.48.51.47S44,115.81,44,115.81Z"/><path class="cls-11" d="M41.6,121.77c-.63.25-.73-.11-.63.25s-.11.35.19.41.15.48.41.06A.64.64,0,0,0,41.6,121.77Z"/><path class="cls-11" d="M46.84,110.55c-1.16-.38-.23-.56-.63-.12s-.58.42-.2.69.05.55.69.13S46.84,110.55,46.84,110.55Z"/><path class="cls-12" d="M41.41,113.21c-.63.25-.74-.11-.63.25s-.11.35.19.41.15.48.41.06A.66.66,0,0,0,41.41,113.21Z"/><path class="cls-11" d="M28.78,117.66c-.63.25-.73-.12-.63.25s-.11.35.19.41.15.48.41.06A.64.64,0,0,0,28.78,117.66Z"/><path class="cls-11" d="M43.93,109.16c-.63.26-.74-.11-.63.26s-.11.35.19.4.15.48.4.06A.65.65,0,0,0,43.93,109.16Z"/><path class="cls-11" d="M40,109.45c-.63.25-.74-.12-.63.25s-.11.35.19.4.15.48.41.06A.62.62,0,0,0,40,109.45Z"/><path class="cls-12" d="M34.58,112.58c-.78-1,.11-.6-.46-.44-.73.21-.72,0-.54.48s-.26.48.51.47S34.58,112.58,34.58,112.58Z"/><path class="cls-12" d="M38.36,118.77c.39.77-.07,1,.39.77s.45.11.49-.28.59-.24,0-.52A.8.8,0,0,0,38.36,118.77Z"/><path class="cls-11" d="M48.56,121.18c-.78-.94.1-.59-.47-.43-.72.21-.71,0-.54.48s-.25.48.51.47S48.56,121.18,48.56,121.18Z"/><path class="cls-11" d="M49.54,118.23c-.77-.94.11-.6-.46-.43s-.72,0-.54.47-.25.49.51.48S49.54,118.23,49.54,118.23Z"/><path class="cls-11" d="M47.48,123.64c-.77-.94.11-.6-.46-.43-.72.21-.72,0-.54.48s-.26.48.51.47S47.48,123.64,47.48,123.64Z"/><path class="cls-12" d="M35.21,126.78c-.77-.94.11-.59-.46-.43-.73.21-.72,0-.54.48s-.26.48.51.47S35.21,126.78,35.21,126.78Z"/><path class="cls-11" d="M38.71,127.13c-.78-.95.11-.6-.47-.43s-.71,0-.53.47-.26.49.51.48S38.71,127.13,38.71,127.13Z"/><path class="cls-11" d="M43,126.42c-.63.25-.74-.12-.63.25s-.11.34.18.4.16.48.41.06A.63.63,0,0,0,43,126.42Z"/><path class="cls-11" d="M44.92,116.62c.19,1.21-.4.46.18.61s.64.34.71-.13.46-.29-.2-.67S44.92,116.62,44.92,116.62Z"/><path class="cls-11" d="M35.87,117.24c-.63.25-.74-.12-.63.25s-.11.35.18.4.16.49.41.07A.64.64,0,0,0,35.87,117.24Z"/><path class="cls-11" d="M41.56,118.07c-.63.25-.74-.12-.63.25s-.11.35.19.4.15.48.4.06A.63.63,0,0,0,41.56,118.07Z"/><path class="cls-11" d="M36.77,124.81c-.77-.94.11-.6-.46-.43s-.72,0-.54.47-.25.49.51.48S36.77,124.81,36.77,124.81Z"/><path class="cls-11" d="M34.75,126.35c-.73.21-.72,0-.54.48s-.26.48.51.47.49-.52.49-.52"/><path class="cls-11" d="M49.28,115.2c-.77-1,.11-.6-.46-.44s-.72,0-.54.48-.26.48.51.47S49.28,115.2,49.28,115.2Z"/><path class="cls-11" d="M47.65,115.64c-.63.26-.74-.11-.63.26s-.11.35.19.4.15.48.41.06A.66.66,0,0,0,47.65,115.64Z"/><path class="cls-12" d="M45.26,113.7c-.63.26-.74-.11-.63.26s-.11.35.19.4.15.48.41.06A.66.66,0,0,0,45.26,113.7Z"/><path class="cls-12" d="M39.48,106c-.63.25-.74-.12-.63.25s-.11.35.19.4.15.49.41.07A.65.65,0,0,0,39.48,106Z"/><path class="cls-2" d="M40.38,98.56l-2.86-.14.25-8.69A1.91,1.91,0,0,0,37,88.11c-.8-.46-5.19-2.19-5.44-2.29-1.65-.6-3.09-1.13-3.07-1.55s.9-.21.9-.21,8.69,1.82,9.51,2.63a3.28,3.28,0,0,1,1.38,2.55v4.88l0,4.22"/><rect class="cls-14" x="37.5" y="98.34" width="2.85" height="6.94"/><path class="cls-12" d="M37.85,99.88c.47.94-.09,1.16.47.94s.55.13.6-.34.72-.3,0-.64A1,1,0,0,0,37.85,99.88Z"/><path class="cls-11" d="M39.72,101.62c-.63.25-.74-.12-.63.25s-.11.34.19.4.15.48.41.06A.64.64,0,0,0,39.72,101.62Z"/><path class="cls-11" d="M39.2,103.88c-1.16-.39-.23-.57-.62-.12s-.58.41-.2.69,0,.54.68.13S39.2,103.88,39.2,103.88Z"/><path class="cls-11" d="M37.52,86.69c-.63.25-.74-.11-.63.25s-.11.35.19.41.15.48.4.06A.65.65,0,0,0,37.52,86.69Z"/><path class="cls-11" d="M38.69,90.7c-.18.65-.54.52-.18.65s.21.3.43.1.48.16.3-.29A.64.64,0,0,0,38.69,90.7Z"/><path class="cls-12" d="M39.61,89c-.77-.94.11-.59-.46-.43-.73.21-.72,0-.54.48s-.26.48.51.47S39.61,89,39.61,89Z"/><path class="cls-12" d="M38.69,93.88c.32.8-.15.94.32.8s.44.15.51-.23.62-.2.08-.53A.83.83,0,0,0,38.69,93.88Z"/><path class="cls-11" d="M39.77,97.41c-.78-1,.1-.6-.47-.43s-.71,0-.54.48-.25.48.51.47S39.77,97.41,39.77,97.41Z"/><path class="cls-11" d="M35.82,86.12c-.38-.46,0-.29-.23-.21s-.35,0-.27.24-.12.23.26.23S35.82,86.12,35.82,86.12Z"/><path class="cls-11" d="M33.54,85.6c-.38-.46.06-.29-.22-.21s-.36,0-.27.23-.13.24.25.24S33.54,85.6,33.54,85.6Z"/><path class="cls-11" d="M34.65,86.33c-.39-.47.05-.3-.23-.22s-.36,0-.27.24-.12.24.25.23S34.65,86.33,34.65,86.33Z"/><path class="cls-11" d="M31.22,85c-.38-.47.05-.29-.23-.21s-.35,0-.26.23-.13.24.25.24S31.22,85,31.22,85Z"/><rect x="0.5" y="154.49" width="77.56" height="35.55"/></svg>