<svg id="Layer_1" data-name="Layer 1" xmlns="http://www.w3.org/2000/svg" viewBox="0 0 252.79 75.86"><defs><style>.cls-1,.cls-2{fill:#231f20;}.cls-2{font-size:8.5px;font-family:ArialMT, Arial;}.cls-17,.cls-2{letter-spacing:0.02em;}.cls-3{letter-spacing:0.14em;}.cls-4{letter-spacing:0.02em;}.cls-5{letter-spacing:0.14em;}.cls-6{letter-spacing:0.1em;}.cls-7{letter-spacing:-0.02em;}.cls-8{letter-spacing:0.16em;}.cls-9{letter-spacing:0.04em;}.cls-10{letter-spacing:0.1em;}.cls-11{letter-spacing:0em;}.cls-12{letter-spacing:0.06em;}.cls-13{letter-spacing:0.08em;}.cls-14{letter-spacing:0.08em;}.cls-15{letter-spacing:0.08em;}.cls-16{letter-spacing:-0.14em;}.cls-18{letter-spacing:0.16em;}.cls-19,.cls-20{fill:#fff;}.cls-19,.cls-21{stroke:#000;}.cls-19{stroke-width:0.15px;}.cls-21{fill:none;}</style></defs><title>wrnng_explsn-hzrd_tank-explosion</title><rect class="cls-1" x="5.58" y="6.02" width="241.73" height="24.61"/><text class="cls-2" transform="translate(9.77 42.08)">Failur<tspan class="cls-3" x="22.43" y="0">e</tspan><tspan class="cls-4" x="28.37" y="0" xml:space="preserve"> t</tspan><tspan class="cls-5" x="33.48" y="0">o</tspan><tspan class="cls-4" x="39.43" y="0" xml:space="preserve"> follow</tspan><tspan class="cls-6" x="64.89" y="0"> </tspan><tspan class="cls-4" x="68.13" y="0">thes</tspan><tspan class="cls-7" x="84.97" y="0">e</tspan><tspan class="cls-5" x="89.56" y="0"> </tspan><tspan x="93.13" y="0">instructions</tspan><tspan class="cls-8" x="138.47" y="0"> </tspan><tspan x="142.22" y="0">ca</tspan><tspan class="cls-5" x="151.58" y="0">n</tspan><tspan class="cls-9" x="157.53" y="0"> </tspan><tspan class="cls-4" x="160.25" y="0">cause</tspan><tspan class="cls-5" x="183.91" y="0"> </tspan><tspan class="cls-4" x="187.49" y="0">th</tspan><tspan class="cls-10" x="194.97" y="0">e</tspan><tspan class="cls-11" x="200.57" y="0"> </tspan><tspan class="cls-4" x="202.96" y="0">tan</tspan><tspan class="cls-12" x="215.36" y="0">k</tspan><tspan class="cls-4" x="220.15" y="0" xml:space="preserve"> to </tspan><tspan x="0" y="10.5">explode and result in DEATH,</tspan><tspan class="cls-13" x="117.45" y="10.5"> </tspan><tspan x="120.51" y="10.5">SERIOUS</tspan><tspan class="cls-14" x="160.14" y="10.5"> </tspan><tspan x="163.21" y="10.5">BODILY</tspan><tspan class="cls-15" x="195.56" y="10.5"> </tspan><tspan class="cls-4" x="198.63" y="10.5">INJUR</tspan><tspan class="cls-16" x="224.63" y="10.5">Y</tspan><tspan x="229.14" y="10.5">, </tspan><tspan class="cls-4"><tspan x="0" y="21">OR</tspan><tspan class="cls-8" x="13.14" y="21"> </tspan><tspan class="cls-17" x="16.89" y="21">PROPERTY</tspan><tspan class="cls-18" x="65.21" y="21"> </tspan><tspan class="cls-17" x="68.96" y="21">DAMAGE.</tspan></tspan></text><polygon class="cls-19" points="150.67 21.49 144.35 11.72 141.32 11.72 141.32 26.35 144.22 26.35 144.22 16.81 150.44 26.35 153.57 26.35 153.57 11.72 150.67 11.72 150.67 21.49"/><polygon class="cls-19" points="106.62 11.72 104.25 21.94 101.55 11.72 97.84 11.72 95.02 21.77 92.69 11.72 89.51 11.72 93.19 26.35 96.57 26.35 99.63 15.41 102.7 26.35 106.01 26.35 109.75 11.72 106.62 11.72"/><path class="cls-19" d="M185.59,18.5V21h3.57v1.86a6.88,6.88,0,0,1-1.69.88,5.65,5.65,0,0,1-2,.36,4.17,4.17,0,0,1-3.2-1.3,5.55,5.55,0,0,1-1.22-3.91,5,5,0,0,1,1.2-3.64A4.36,4.36,0,0,1,185.54,14a3.83,3.83,0,0,1,2.25.63,3.09,3.09,0,0,1,1.23,1.7l3.09-.55A5.11,5.11,0,0,0,190,12.61a7.69,7.69,0,0,0-4.49-1.14,8.28,8.28,0,0,0-3.69.73,6.63,6.63,0,0,0-3,2.72,8.1,8.1,0,0,0-1,4.06,8.54,8.54,0,0,0,.9,3.9,6.34,6.34,0,0,0,2.71,2.76,8.85,8.85,0,0,0,4.22,1,10.94,10.94,0,0,0,3.76-.68,8.59,8.59,0,0,0,2.84-1.59V18.5Z"/><polygon class="cls-19" points="172.23 21.49 165.91 11.72 162.88 11.72 162.88 26.35 165.77 26.35 165.77 16.81 171.99 26.35 175.12 26.35 175.12 11.72 172.23 11.72 172.23 21.49"/><rect class="cls-19" x="156.76" y="11.72" width="3.12" height="14.63"/><path class="cls-19" d="M136,21.12a7.46,7.46,0,0,0-1.67-1.23,5,5,0,0,0,3.05-1.35,3.78,3.78,0,0,0,1-2.72,4.06,4.06,0,0,0-.67-2.31,3.53,3.53,0,0,0-1.79-1.4,12,12,0,0,0-3.6-.39h-6.56V26.35h3.12V20.24h.63a5.81,5.81,0,0,1,1.57.16A2.66,2.66,0,0,1,132,21a23.12,23.12,0,0,1,1.64,2.15l2.25,3.19h3.73l-1.89-2.85A16.59,16.59,0,0,0,136,21.12Zm-4.8-3.22h-2.3V14.19h2.43c1.26,0,2,0,2.27.05a1.92,1.92,0,0,1,1.18.58,1.66,1.66,0,0,1,.42,1.19,1.86,1.86,0,0,1-.32,1.1,1.69,1.69,0,0,1-.87.62A12.9,12.9,0,0,1,131.15,17.9Z"/><path class="cls-19" d="M114.6,11.72l-6,14.63h3.3L113.17,23h6.16l1.35,3.33h3.39l-6.18-14.63Zm-.47,8.84,2.08-5.43,2.12,5.43Z"/><path class="cls-20" d="M77.53,9.66a1.08,1.08,0,0,0-2,0l-9.3,15.08c-.55.89-.15,1.62.9,1.62H85.91c1,0,1.46-.73.91-1.62Zm-1,15.18a1.41,1.41,0,1,1,0-2.81h.07a1.41,1.41,0,1,1-.07,2.81Zm.74-4.37a.53.53,0,0,1-.44.46h-.53c-.26,0-.35-.16-.44-.46-1.36-4.78-2-8.12.67-8.12S78.53,15.69,77.23,20.47Z"/><rect class="cls-21" x="0.5" y="0.5" width="251.79" height="74.86"/><rect class="cls-21" x="5.57" y="6.13" width="241.56" height="63.74"/></svg>