<svg id="Layer_1" data-name="Layer 1" xmlns="http://www.w3.org/2000/svg" viewBox="0 0 252.86 96.46"><defs><style>.cls-1{fill:none;stroke:#231f20;stroke-width:0.96px;}.cls-2,.cls-6,.cls-7{fill:#231f20;}.cls-3{font-size:21.09px;}.cls-3,.cls-5{fill:#fff;}.cls-3,.cls-7{font-family:Arial-BoldMT, Arial;font-weight:700;}.cls-4{letter-spacing:-0.05em;}.cls-5,.cls-6{fill-rule:evenodd;}.cls-7{font-size:8.04px;}.cls-8{letter-spacing:-0.07em;}</style></defs><title>wrnng_some_tsks_rqir_srvce_tchntn</title><rect class="cls-1" x="0.48" y="0.48" width="251.91" height="95.5"/><rect class="cls-1" x="6.36" y="5.75" width="240.59" height="84.95"/><rect class="cls-2" x="6.76" y="6.55" width="239.81" height="29.87"/><rect class="cls-1" x="6.76" y="6.55" width="239.81" height="29.87"/><path class="cls-1" d="M247,52.56"/><path class="cls-1" d="M6.66,52.56"/><text class="cls-3" transform="translate(87.95 29.24)"><tspan class="cls-4">W</tspan><tspan x="18.77" y="0">ARNING</tspan></text><path class="cls-5" d="M72.85,14.55a1.07,1.07,0,0,0-2.06,0l-7,12.36c-.9,1.6-.11,2.25.83,2.27H79.06c1,0,1.75-.67.83-2.27"/><path class="cls-2" d="M72.82,14.57h0l0,0m7,12.38-7-12.36.07,0,7,12.37Zm0,0h0l0,0Zm.41,1.2a2.65,2.65,0,0,0-.41-1.2l.07,0a2.7,2.7,0,0,1,.42,1.24Zm-.11.5a1,1,0,0,0,.11-.5h.08a1,1,0,0,1-.13.54Zm-.33.33a1,1,0,0,0,.33-.33l.06,0a1,1,0,0,1-.36.36Zm0,.07h0l0,0Zm-.79.12a1.67,1.67,0,0,0,.76-.19l0,.07a1.68,1.68,0,0,1-.79.19Zm0,.07h0v0Zm-14.48-.07H79.06v.07H64.58Zm0,.07h0v0ZM63.86,29a1.7,1.7,0,0,0,.72.18v.07a1.51,1.51,0,0,1-.75-.18Zm-.34-.34a.86.86,0,0,0,.34.34l0,.07a1,1,0,0,1-.38-.37Zm-.13-.53a1,1,0,0,0,.13.53l-.07,0a1,1,0,0,1-.13-.57Zm.4-1.17a2.65,2.65,0,0,0-.4,1.17h-.07a2.47,2.47,0,0,1,.4-1.2Zm-.07,0Zm7.1-12.33-7,12.36-.07,0,7-12.37Zm0,0h0l0,0Zm1-.76a1,1,0,0,0-1,.76l-.07,0a1.11,1.11,0,0,1,1.07-.81Zm0,0h0v0Zm1,.76a1,1,0,0,0-1-.76v-.08a1.11,1.11,0,0,1,1.07.81Z"/><path class="cls-5" d="M71.84,25.48a1.21,1.21,0,0,1,1.22,1.21,1.26,1.26,0,0,1-1.24,1.24,1.24,1.24,0,0,1-1.22-1.24,1.21,1.21,0,0,1,1.2-1.21m0-1.58a.39.39,0,0,1-.36-.38c-1.26-4-1.89-6.92.38-6.92s1.66,2.88.4,6.92a.39.39,0,0,1-.38.38Z"/><path class="cls-2" d="M71.84,23.94h0v-.08h0m.29-.05a.39.39,0,0,1-.29.13v-.08a.35.35,0,0,0,.24-.1Zm.13-.29a.39.39,0,0,1-.13.29l0,0a.35.35,0,0,0,.1-.24Zm-.08,0h0Zm1.2-5a20.37,20.37,0,0,1-1.12,5l-.08,0a20.35,20.35,0,0,0,1.12-5Zm-1.56-2c1.16,0,1.59.73,1.56,2H73.3c0-1.2-.38-1.9-1.48-1.9Zm-1.55,2c0-1.25.39-2,1.55-2v.08c-1.11,0-1.51.7-1.48,1.9Zm1.13,5a21,21,0,0,1-1.13-5h.07a21.45,21.45,0,0,0,1.13,5Zm.07,0h0Zm0,.3a.45.45,0,0,1-.12-.29h.08a.33.33,0,0,0,.1.24Zm.28.13a.37.37,0,0,1-.28-.13l.06,0a.29.29,0,0,0,.22.1Z"/><path class="cls-2" d="M70.93,25.8a1.23,1.23,0,0,1,.87-.36v.07a1.17,1.17,0,0,0-.82.35m-.41.83a1.24,1.24,0,0,1,.36-.89l0,.06a1.16,1.16,0,0,0-.34.83Zm.36.9a1.3,1.3,0,0,1-.36-.9h.07a1.24,1.24,0,0,0,.35.85Zm.89.37a1.25,1.25,0,0,1-.89-.37l.06-.05a1.17,1.17,0,0,0,.83.35Zm.9-.37a1.27,1.27,0,0,1-.9.37v-.07a1.18,1.18,0,0,0,.84-.36Zm.37-.9a1.27,1.27,0,0,1-.37.9l-.06-.06a1.17,1.17,0,0,0,.35-.84Zm-.36-.89a1.28,1.28,0,0,1,.36.89H73a1.12,1.12,0,0,0-.34-.83Zm-.89-.36a1.28,1.28,0,0,1,.89.36l-.06.06a1.17,1.17,0,0,0-.83-.35Z"/><path class="cls-6" d="M71.8,23.9a.39.39,0,0,1-.36-.38c-1.26-4-1.89-6.92.38-6.92s1.66,2.88.4,6.92a.39.39,0,0,1-.38.38"/><path class="cls-2" d="M71.84,23.94h0v-.08h0m.29-.05a.39.39,0,0,1-.29.13v-.08a.35.35,0,0,0,.24-.1Zm.13-.29a.39.39,0,0,1-.13.29l0,0a.35.35,0,0,0,.1-.24Zm-.08,0h0Zm1.2-5a20.37,20.37,0,0,1-1.12,5l-.08,0a20.35,20.35,0,0,0,1.12-5Zm-1.56-2c1.16,0,1.59.73,1.56,2H73.3c0-1.2-.38-1.9-1.48-1.9Zm-1.55,2c0-1.25.39-2,1.55-2v.08c-1.11,0-1.51.7-1.48,1.9Zm1.13,5a21,21,0,0,1-1.13-5h.07a21.45,21.45,0,0,0,1.13,5Zm.07,0h0Zm0,.3a.45.45,0,0,1-.12-.29h.08a.33.33,0,0,0,.1.24Zm.28.13a.37.37,0,0,1-.28-.13l.06,0a.29.29,0,0,0,.22.1Z"/><path class="cls-6" d="M71.84,25.48a1.2,1.2,0,0,1,1.22,1.21,1.26,1.26,0,0,1-1.24,1.24,1.24,1.24,0,0,1-1.22-1.24,1.2,1.2,0,0,1,1.2-1.21"/><path class="cls-2" d="M71.8,25.44h0v.07h0m-.87.29a1.23,1.23,0,0,1,.87-.36v.07a1.17,1.17,0,0,0-.82.35Zm-.36.89a1.24,1.24,0,0,1,.36-.89l0,.06a1.16,1.16,0,0,0-.34.83Zm.36.9a1.3,1.3,0,0,1-.36-.9h.07a1.24,1.24,0,0,0,.35.85Zm.89.37a1.25,1.25,0,0,1-.89-.37l.06-.05a1.17,1.17,0,0,0,.83.35Zm.9-.37a1.27,1.27,0,0,1-.9.37v-.07a1.18,1.18,0,0,0,.84-.36Zm.37-.9a1.27,1.27,0,0,1-.37.9l-.06-.06a1.17,1.17,0,0,0,.35-.84Zm-.36-.89a1.28,1.28,0,0,1,.36.89H73a1.12,1.12,0,0,0-.34-.83Zm-.89-.36a1.28,1.28,0,0,1,.89.36l-.06.06a1.17,1.17,0,0,0-.83-.35Z"/><text class="cls-7" transform="translate(9.24 46.07)">Some of the checks below may need to be done by a <tspan x="0" y="9.65">qualified service technician. Call a service technician for any </tspan><tspan x="0" y="19.3">remedy that involves gas or electricit</tspan><tspan class="cls-8" x="141.65" y="19.3">y</tspan><tspan x="145.53" y="19.3">. Call a service </tspan><tspan x="0" y="28.94">technician if you have any doubt or reservation about </tspan><tspan x="0" y="38.59">performing the remedy yourself.</tspan></text></svg>