<svg xmlns="http://www.w3.org/2000/svg" xmlns:xlink="http://www.w3.org/1999/xlink" viewBox="0 0 242.58 211.46"><defs><style>.cls-1,.cls-8{fill:none;}.cls-10,.cls-2,.cls-3,.cls-4,.cls-6,.cls-8{stroke:#000;}.cls-2{stroke-width:0.2px;}.cls-3,.cls-4{stroke-width:0.1px;}.cls-4,.cls-7{fill:#fff;}.cls-5{clip-path:url(#clip-path);}.cls-6{stroke-width:1.18px;}.cls-9{font-size:11.5px;font-family:Arial-BoldMT, Arial;font-weight:700;}.cls-11{font-size:8.5px;}.cls-11,.cls-14{font-family:ArialMT, Arial;}.cls-12{letter-spacing:-0.06em;}.cls-13{letter-spacing:0em;}.cls-14{font-size:8px;}.cls-15{letter-spacing:-0.02em;}</style><clipPath id="clip-path"><rect class="cls-1" x="192.54" y="171.81" width="41.08" height="41.08" transform="translate(-1.7 382.81) rotate(-83.64)"/></clipPath></defs><title>wrnng_fre-and-explsn-hzrd_frm_lkd_gas</title><g id="Layer_1" data-name="Layer 1"><path class="cls-2" d="M8.41,187.68c0-.06.05-1.74.05-1.79.08-.91.43-3.41.49-4.08a27.36,27.36,0,0,0-.08-6.94c0-.23.94.45,2.49,2.86.47.72,1.11,2,1.35,2.28s.53.15.56-.49c.09-1.9.44-3.36.63-4.83a37.1,37.1,0,0,0,.47-6.25c0-1.7-.12-2,.63-1.22a8.2,8.2,0,0,1,2.1,3c.42,1,.7,3.91,1.11,1a16.39,16.39,0,0,0,.32-2.83c0-.8.13-1.88.17-3.13.13-3.76.93-5,1-5.13.27-.54.49,1,.73,1.9s.44,1,1.69,3.37c2.05,3.88,1.41,3.05,2.44,4.2,2.52,2.83,1.5,7,2.44,4.21.49-1.48.94-2.31,1.09-3,.75-3.37.66-2.55,1.37-.88.55,1.28,2.11,4.05,1.95,6.57a12.19,12.19,0,0,0,.11,3.49c.57,4.41.65,3.42,1.45,1.19,1.93-5.35,1.54-3.88,1.85-3.22a15.89,15.89,0,0,1,1.61,4.49c.49,3.83.33,4.06,0,6.08-.73,4.75-2.12,5.42.21,4.13,1-.54,1.46-1.76,1.35-1-1,7.46-1.32,7.72-4.16,11-2.66,3.06-6.09,3.92-9.58,4.33a29.15,29.15,0,0,1-9.41-.46,11.61,11.61,0,0,1-6.21-3.19c-2.71-2.87-2.87-4.75-3.11-8.47,0-.17,0-1.38,0-1.52,0-.39,0,.32,0-1.67A84.63,84.63,0,0,0,5.35,183c-.16-.69,1.57,1.15,3.05,4.6Z"/><rect class="cls-2" x="9.52" y="207.78" width="22.68" height="1.17"/><path class="cls-3" d="M25.75,165.73a4.56,4.56,0,0,1,.46-1.49c.29-.38.11-.4,1.75-1.42a1.88,1.88,0,0,0,.83-1c.09-.24.19-.48.25-.13A3,3,0,0,1,29,163a1.93,1.93,0,0,1-.54.89,9,9,0,0,1-1.23.79,5,5,0,0,0-1.09.9c-.18.22-.35.28-.35.14Z"/><path class="cls-4" d="M19.49,179.51A4.18,4.18,0,0,1,20,178c.28-.38.1-.4,1.74-1.42a1.82,1.82,0,0,0,.83-1c.09-.25.19-.48.25-.14a2.9,2.9,0,0,1-.07,1.35,2.07,2.07,0,0,1-.55.9,10.46,10.46,0,0,1-1.23.79,4.67,4.67,0,0,0-1.08.89c-.19.22-.35.29-.35.14Z"/><path class="cls-3" d="M17.87,158.33a4.24,4.24,0,0,0-.49-1.48c-.29-.38-.12-.4-1.76-1.39a1.82,1.82,0,0,1-.85-1c-.1-.24-.21-.47-.26-.12a2.92,2.92,0,0,0,.1,1.34,2.08,2.08,0,0,0,.56.89,10.07,10.07,0,0,0,1.24.77,4.59,4.59,0,0,1,1.11.88c.18.21.35.27.35.13Z"/><path class="cls-4" d="M18.09,207a33.4,33.4,0,0,1-4.44-4.55,11.64,11.64,0,0,1-2.54-5.11c-.24-1.74-.36-2.05.57-.39.06.1.45.89.69.87s.11-1.13.32-2.17c.11-.62.31-2.15.34-2.89.05-1.43.05-2.84,0-3.24,0-.24,0-.73,0-.74a1.76,1.76,0,0,1,.81,1,11.39,11.39,0,0,1,.59,2.91,8,8,0,0,0,1.19,4.12,1.83,1.83,0,0,0,1.44.87c.22,0,.11-.54,0-1a10.16,10.16,0,0,1-.2-2.14,10.06,10.06,0,0,1,.14-2.82,13.18,13.18,0,0,1,.49-2c.57-1.37.54-.35.57,0a9.52,9.52,0,0,0,1.58,4.36c.82,1.1,1.16,1.16,1.16,1.16a3.16,3.16,0,0,0,1-1.28A15.48,15.48,0,0,0,23,190.18c.22-1.27.17-5.37.28-6.77,0-.6,1.68,1.86,2.22,3.43A8.86,8.86,0,0,1,26,191c-.15,1.05-.28,1.43.18,1.56.09,0,.73-.29,1.16-1.31s.93-2.15,1.1-1.33a14.35,14.35,0,0,1,.48,3.26c0,.91-.81,2.9-.25,3.14.14.05.34,0,.73-.4s1-1,.74,0A26.06,26.06,0,0,1,28,200.23a30.29,30.29,0,0,1-4.17,4.64,26.1,26.1,0,0,1-2.47,2.21Z"/><g class="cls-5"><polyline points="202.83 209.3 202.36 201.52 205.96 205.54 207.45 196.24 210.48 203.78 212.07 199.75 213.06 202.81 215.3 198.03 215.06 205.54 221.32 201.75 218.25 209.43 220.84 208.99 219.46 211.4 223.74 210.57 228.25 205.95 222.16 207.83 233.26 186.56 221.09 196.8 222.35 190.47 218.31 194.89 220.49 173.69 213.86 192.8 212.11 185.41 210.5 192.86 202.47 171.63 202.62 195.07 196.53 186.62 199.3 200.94 193.19 195.57 199.81 210.41 202.68 210.63"/></g><path class="cls-6" d="M241.61,177.34c0,2.46-4.59,5.69-5.4,6.43-1.56,1.41-3.49,2.2-5.2,1s-5.2-4.28-5.2-4.28-1.32,2.38-2.62,2.12c-1.15-.24-3.38-4.93-7-9.75a14.09,14.09,0,0,1-2.58-6.57,13.55,13.55,0,0,1,1.38-6.39c1.06-1.89,3.93-5.24,6.05-6.19a10.32,10.32,0,0,1,6.22-1.28c2.88.06,3.83.54,6.49,2.41A60.28,60.28,0,0,1,240,160l1.39,1.32C242.09,161.92,241.58,173.29,241.61,177.34Z"/><polyline class="cls-7" points="219.13 177.71 220.55 173.55 219.91 179.07 219.11 177.77"/><path class="cls-7" d="M222.1,170.7c.61.68.77,1.53.36,1.89s-1.23.12-1.84-.55-.76-1.53-.36-1.9S221.5,170,222.1,170.7Z"/><rect class="cls-8" x="0.5" y="0.5" width="241.58" height="210.46"/><polyline points="0.79 24.61 241.99 24.61 241.99 0.66 0.79 0.66"/><path class="cls-7" d="M166.65,14.46V12.12h5.65v5.54a7.12,7.12,0,0,1-2.38,1.51,8.27,8.27,0,0,1-3.17.64,6.72,6.72,0,0,1-3.55-.91,5.6,5.6,0,0,1-2.27-2.62,9,9,0,0,1-.77-3.71A8.59,8.59,0,0,1,161,8.71a6,6,0,0,1,2.49-2.59,6.36,6.36,0,0,1,3.11-.69,5.89,5.89,0,0,1,3.77,1.08,5,5,0,0,1,1.76,3l-2.61.52a3,3,0,0,0-1-1.62,2.94,2.94,0,0,0-1.89-.59A3.45,3.45,0,0,0,163.88,9a5.17,5.17,0,0,0-1,3.47,5.77,5.77,0,0,0,1,3.72,3.34,3.34,0,0,0,2.69,1.23,4.33,4.33,0,0,0,1.66-.34,5.61,5.61,0,0,0,1.42-.84V14.46m-22.11,5.12V5.66h2.55l5.31,9.3V5.66h2.44V19.58h-2.63L150,10.5v9.08Zm-5.15,0V5.66H145V19.58Zm-13,0V5.66H132l5.32,9.3V5.66h2.43V19.58h-2.63l-5.23-9.08v9.08Zm-10.5-8h1.94a9.65,9.65,0,0,0,2.36-.17,1.37,1.37,0,0,0,.73-.59,1.89,1.89,0,0,0,.27-1,1.78,1.78,0,0,0-.35-1.14,1.57,1.57,0,0,0-1-.55c-.21,0-.85,0-1.91,0h-2Zm-2.62,8V5.66h5.52a8.79,8.79,0,0,1,3,.38,3,3,0,0,1,1.51,1.33,4.21,4.21,0,0,1,.57,2.19,3.89,3.89,0,0,1-.86,2.59,4,4,0,0,1-2.57,1.29,5.94,5.94,0,0,1,1.41,1.17,16,16,0,0,1,1.48,2.25L128,19.58h-3.13l-1.9-3a18.66,18.66,0,0,0-1.38-2,2,2,0,0,0-.79-.59,4.15,4.15,0,0,0-1.32-.15h-.53v5.81Zm-6.22-5.51-1.79-5.16-1.75,5.16Zm4.82,5.51h-2.85l-1.13-3.16h-5.19l-1.07,3.16h-2.78l5.06-13.92h2.77Zm-26,0L85.83,5.66h2.68l2,9.56,2.37-9.56H96l2.27,9.72,2-9.72h2.63L99.71,19.58H96.93L94.34,9.18l-2.57,10.4Zm-12.8-5.85a.49.49,0,0,1-.44.47h-.06a.45.45,0,0,1-.44-.47c-1.44-4.91-2.13-8.33.44-8.33S77.51,8.82,76.13,13.73Zm-.5,5.3a1.48,1.48,0,0,1,0-3h.06a1.48,1.48,0,0,1-.06,3ZM76.69,4.12a1.09,1.09,0,0,0-1.06-.81,1,1,0,0,0-1,.81L67.48,17.29c-.94,1.68-.12,2.35.82,2.42H83c1-.07,1.76-.74.82-2.42Z"/><text class="cls-9" transform="translate(54.74 36.71)">Fire or Explosion Hazard</text><line class="cls-10" x1="0.99" y1="40.9" x2="242.05" y2="40.9"/><line class="cls-10" x1="50.99" y1="169.15" x2="182.07" y2="169.15"/></g><g id="bullets"><path d="M16.15,75.71A1.76,1.76,0,1,1,14.39,74,1.75,1.75,0,0,1,16.15,75.71Z"/><path d="M16.15,51a1.76,1.76,0,1,1-1.76-1.76A1.75,1.75,0,0,1,16.15,51Z"/><path d="M16,87.24a1.76,1.76,0,1,1-1.76-1.76A1.76,1.76,0,0,1,16,87.24Z"/><path d="M16,111.52a1.76,1.76,0,1,1-1.76-1.76A1.75,1.75,0,0,1,16,111.52Z"/><path d="M16.16,123.16a1.76,1.76,0,1,1-1.76-1.76A1.75,1.75,0,0,1,16.16,123.16Z"/><path d="M16,135.59a1.76,1.76,0,1,1-1.76-1.75A1.76,1.76,0,0,1,16,135.59Z"/></g><g id="text"><text class="cls-11" transform="translate(57.42 181.57)">Read instruction manual before<tspan x="7.09" y="10.2">installing, using or servicing</tspan><tspan x="34.49" y="20.4">water heate</tspan><tspan class="cls-12" x="78.91" y="20.4">r</tspan><tspan class="cls-13" x="81.27" y="20.4">.</tspan></text><text class="cls-14" transform="translate(20.58 78.54)"><tspan class="cls-15">A</tspan><tspan x="5.19" y="0">void all ignition sources if you smell gas.</tspan></text><text class="cls-14" transform="translate(20.57 54.04)">Do not store or use gasoline or other flammable vapors and<tspan x="0" y="9.6">liquids in the vicinity of this or any other appliance.</tspan></text><text class="cls-14" transform="translate(20.57 114.04)">Use only the gas shown on the water heater rating label.</text><text class="cls-14" transform="translate(20.57 138.79)">Keep ignition sources away from faucets after extended<tspan x="0" y="9.6">periods of non-use.</tspan></text><text class="cls-14" transform="translate(20.57 125.54)">Maintain required clearances to combustibles.</text><text class="cls-14" transform="translate(20.57 90.29)">Do not expose water heater controls to excessive gas<tspan x="0" y="9.6">pressure.</tspan></text></g></svg>