<svg xmlns="http://www.w3.org/2000/svg" viewBox="0 0 239.27 148.59"><defs><style>.cls-1,.cls-3,.cls-4,.cls-5,.cls-8,.cls-9{stroke:#000;}.cls-1,.cls-2,.cls-4{stroke-width:0.5px;}.cls-2,.cls-5,.cls-6,.cls-7{fill:#fff;}.cls-2,.cls-7{stroke:#fff;}.cls-3,.cls-4,.cls-8{fill:none;}.cls-3,.cls-5,.cls-7{stroke-width:0.25px;}.cls-10{font-size:11px;}.cls-10,.cls-12,.cls-13,.cls-14{font-family:Arial-BoldMT, Arial;font-weight:700;}.cls-11{font-size:8px;}.cls-11,.cls-15,.cls-19{font-family:ArialMT, Arial;}.cls-13,.cls-17{letter-spacing:-0.07em;}.cls-14{letter-spacing:-0.04em;}.cls-15{font-weight:400;}.cls-16{letter-spacing:-0.11em;}.cls-18{letter-spacing:-0.06em;}.cls-19{font-size:8.5px;}.cls-20{letter-spacing:-0.06em;}</style></defs><title>wrnng_brthng-hzrd_CO-gas_frm_chmcl_strge</title><g id="Layer_1" data-name="Layer 1"><path class="cls-1" d="M.48,84.65c12.2-6,15.28-7.24,23.89-9.61,4.54-1.25,14.15-1.13,17.92.32,3.2,1.23,8.14,3.55,8.14,3.55l17.2,7.82s.05,13.7-.3,13.35-20.06-9.56-20.06-9.56v31.75l-29.33,0-.05-31.54L.68,98Z"/><path class="cls-1" d="M22.66,60.44s-1.56,0-1.4-.92c.2-1.12,6.93-8.5,6.93-8.5A6.87,6.87,0,0,1,33,48.79c4.9-.16,7.7,1.63,9.8,4,.88,1,2.42,3.49,1.82,5.84-.37,1.44-1.91,4.56-3.32,7.87-1.15,2.73-2.33,6.11-4.23,6.64-2.62.74-8-2.4-13.44-5-2.47-1.16-1.82-3.43-1.28-4.84s1.79-2.61.31-3Z"/><path class="cls-2" d="M29.55,56.45c-.16.7-.68,1.17-1.17,1.06s-.77-.76-.62-1.45.68-1.17,1.17-1.06S29.7,55.76,29.55,56.45Z"/><path class="cls-3" d="M16.42,44.27c.41.82-.07,1,.41.82s.49.11.52-.3.64-.26,0-.56A.88.88,0,0,0,16.42,44.27Z"/><path class="cls-3" d="M13,44.27c.22,1-.3.71.18.52s.49.11.52-.3.64-.26,0-.55A.48.48,0,0,0,13,44.27Z"/><path class="cls-3" d="M14.46,48.45c-1-.34-.46-.62-.55-.11s-.34.37,0,.61-.1.67.46.31A.49.49,0,0,0,14.46,48.45Z"/><path class="cls-3" d="M8.81,47.83c-1-.34-.2-.49-.54-.11s-.51.37-.18.6,0,.48.6.12S8.81,47.83,8.81,47.83Z"/><path class="cls-3" d="M20.77,49.39c-.34,1-.49.19-.11.54s.36.51.6.18.48,0,.11-.6S20.77,49.39,20.77,49.39Z"/><path class="cls-3" d="M16.25,51.39c.37.82-.07,1,.37.82s.44.11.47-.29.57-.27,0-.56A.72.72,0,0,0,16.25,51.39Z"/><path class="cls-3" d="M11.18,54c.41.81-.08,1,.41.81s.48.11.52-.29.63-.26,0-.56A.86.86,0,0,0,11.18,54Z"/><path class="cls-3" d="M6.91,53.19c.88-.26,1,.25.88-.26s.19-.46-.2-.56-.15-.67-.55-.14A.88.88,0,0,0,6.91,53.19Z"/><path class="cls-3" d="M5.33,49.72c-.85.34-1-.15-.85.34s-.15.48.26.55.2.65.55.08A.88.88,0,0,0,5.33,49.72Z"/><path class="cls-3" d="M6.43,54.37c.4.82-.08,1,.4.82s.49.11.52-.3.64-.26,0-.56A.87.87,0,0,0,6.43,54.37Z"/><path class="cls-3" d="M5.78,57.33c-.58.71-1,.35-.58.71s.1.49.49.35.49.47.52-.19A.87.87,0,0,0,5.78,57.33Z"/><path class="cls-3" d="M9.55,60.69c.41.82-.08,1,.41.82s.48.11.52-.3.63-.26,0-.55A.87.87,0,0,0,9.55,60.69Z"/><path class="cls-3" d="M9.74,64.74c-.63.66-1,.27-.63.66s.05.5.45.39.46.51.54-.15A.87.87,0,0,0,9.74,64.74Z"/><path class="cls-3" d="M11.37,68.18c.34.67-.06.82.34.67s.39.09.42-.24.52-.22,0-.46A.7.7,0,0,0,11.37,68.18Z"/><path class="cls-3" d="M11.57,70.27c.33.67-.06.83.33.67s.4.1.43-.24.52-.21,0-.46A.71.71,0,0,0,11.57,70.27Z"/><path class="cls-3" d="M11.86,50.8c-1-.34-.2-.49-.54-.11s-.51.37-.18.6,0,.48.6.11S11.86,50.8,11.86,50.8Z"/><path class="cls-3" d="M14.76,57c-1-.34-.2-.49-.54-.11s-.51.37-.18.6,0,.48.6.12S14.76,57,14.76,57Z"/><path class="cls-3" d="M12.31,56.86c-1-.33-.2-.49-.55-.1s-.51.36-.17.6,0,.47.59.11S12.31,56.86,12.31,56.86Z"/><path class="cls-3" d="M21.49,53.62c-1-.33-.2-.49-.54-.1s-.51.36-.18.6,0,.47.6.11S21.49,53.62,21.49,53.62Z"/><path class="cls-3" d="M12.31,46c-1-.33-.2-.49-.55-.1s-.51.36-.17.6,0,.47.59.11S12.31,46,12.31,46Z"/><path class="cls-3" d="M8,57.53c-1-.34-.2-.49-.55-.1s-.5.36-.17.6,0,.47.6.11S8,57.53,8,57.53Z"/><path class="cls-4" d="M14.69,52.92c-1-.33-.2-.49-.55-.1s-.51.36-.17.6,0,.47.59.11S14.69,52.92,14.69,52.92Z"/><path class="cls-3" d="M3.64,52.92c-1-.33-.2-.49-.54-.1s-.51.36-.18.6,0,.47.6.11S3.64,52.92,3.64,52.92Z"/><path class="cls-3" d="M5.56,52.26c-.55.22-.64-.1-.55.22s-.09.3.17.35.13.42.35.05A.56.56,0,0,0,5.56,52.26Z"/><path class="cls-3" d="M11.92,48.25c-.55.22-.64-.1-.55.22s-.1.31.16.35.14.42.36,0A.56.56,0,0,0,11.92,48.25Z"/><path class="cls-4" d="M10.23,58.18c-1-.34-.19-.49-.54-.11s-.51.37-.17.6,0,.48.59.12S10.23,58.18,10.23,58.18Z"/><path class="cls-4" d="M3.24,56.8c-1-.34-.2-.49-.54-.1s-.51.36-.18.6,0,.47.6.11S3.24,56.8,3.24,56.8Z"/><path class="cls-3" d="M15.07,46.5c-1-.34-.2-.49-.54-.1s-.51.36-.18.6,0,.47.6.11S15.07,46.5,15.07,46.5Z"/><path class="cls-3" d="M9.27,51.19c-1-.34-.2-.5-.55-.11s-.51.36-.17.6,0,.48.59.11S9.27,51.19,9.27,51.19Z"/><path class="cls-3" d="M17.45,53.42c-.07-1.06.38-.37-.11-.54s-.52-.34-.62.06-.42.22.12.6S17.45,53.42,17.45,53.42Z"/><path class="cls-3" d="M15.64,56c.3-1,.48-.21.08-.54s-.38-.5-.6-.15-.48.05-.09.59S15.64,56,15.64,56Z"/><path class="cls-3" d="M17.41,61.43c.3-1,.48-.21.08-.55s-.38-.49-.6-.15-.48.06-.1.6S17.41,61.43,17.41,61.43Z"/><path class="cls-3" d="M12.87,63.44c.3-1,.48-.22.08-.55s-.38-.49-.6-.15-.48.06-.09.6S12.87,63.44,12.87,63.44Z"/><path class="cls-4" d="M7,63.55c.3-1,.48-.22.08-.54s-.38-.5-.6-.16-.47.06-.09.6S7,63.55,7,63.55Z"/><path class="cls-3" d="M2.74,62.61c.29-1,.48-.22.08-.55s-.38-.5-.61-.15-.47.05-.09.6S2.74,62.61,2.74,62.61Z"/><path class="cls-3" d="M3,64.63c-.58.71-.94.35-.58.71s.1.49.49.35.5.47.52-.19A.87.87,0,0,0,3,64.63Z"/><path class="cls-4" d="M9.91,66.79c-.58.71-.94.34-.58.71s.1.48.49.35.5.47.52-.19A.86.86,0,0,0,9.91,66.79Z"/><path class="cls-3" d="M21.52,55.22c-.58.71-.95.35-.58.71s.1.49.48.35.5.47.53-.19A.88.88,0,0,0,21.52,55.22Z"/><path class="cls-3" d="M12.72,66.46c.3-1,.48-.22.08-.55s-.38-.49-.6-.15-.48,0-.1.6S12.72,66.46,12.72,66.46Z"/><path class="cls-3" d="M14.54,64.4c.34.67-.06.82.34.67s.4.09.43-.25.51-.21,0-.46A.72.72,0,0,0,14.54,64.4Z"/><path class="cls-3" d="M6.7,65c.33.68-.06.83.33.68s.4.09.43-.25.52-.21,0-.46A.71.71,0,0,0,6.7,65Z"/><path class="cls-3" d="M5,67.37c.33.67-.07.83.33.67s.4.09.43-.24.51-.22,0-.46A.69.69,0,0,0,5,67.37Z"/><path class="cls-3" d="M8,68.43c.3-1,.49-.22.08-.55s-.37-.49-.6-.15-.47.06-.09.6S8,68.43,8,68.43Z"/><path class="cls-4" d="M5.32,65.75c.29-1,.48-.21.08-.54s-.38-.5-.61-.16-.47.06-.09.6S5.32,65.75,5.32,65.75Z"/><path class="cls-3" d="M6.14,60.88c.29-1,.48-.22.08-.55s-.38-.49-.61-.15-.47.06-.09.6S6.14,60.88,6.14,60.88Z"/><path class="cls-3" d="M4.55,62.6c.33.68-.07.83.33.68s.4.09.43-.25.51-.21,0-.46A.71.71,0,0,0,4.55,62.6Z"/><path class="cls-3" d="M18.27,54.88c.27.7-.13.82.27.7s.39.12.45-.21.53-.17.07-.45A.69.69,0,0,0,18.27,54.88Z"/><path class="cls-3" d="M17.75,67.48c.33.67-.06.82.33.67s.4.09.43-.25.52-.21,0-.46A.7.7,0,0,0,17.75,67.48Z"/><path class="cls-4" d="M15.36,67.2c.3-1,.48-.21.08-.54s-.38-.5-.6-.16-.48.06-.09.6S15.36,67.2,15.36,67.2Z"/><path class="cls-4" d="M20.31,66.12c.29-1,.48-.21.08-.54s-.38-.5-.61-.15-.47,0-.09.59S20.31,66.12,20.31,66.12Z"/><path class="cls-3" d="M16.39,70c.33.67-.07.82.33.67s.4.09.43-.24.51-.22,0-.46A.69.69,0,0,0,16.39,70Z"/><path class="cls-3" d="M3.32,59.52c.33.67-.06.82.33.67s.4.09.43-.25.52-.21,0-.46A.7.7,0,0,0,3.32,59.52Z"/><path class="cls-3" d="M8.09,60.28c-.55.22-.64-.1-.55.22s-.1.31.17.35.13.42.35,0A.56.56,0,0,0,8.09,60.28Z"/><path class="cls-3" d="M19.69,63.37c-.54.22-.64-.1-.54.22s-.1.3.16.35.13.42.35.05A.54.54,0,0,0,19.69,63.37Z"/><path class="cls-3" d="M17.49,65.33c-.54.22-.64-.1-.54.22s-.1.3.16.35.13.42.35,0A.54.54,0,0,0,17.49,65.33Z"/><path class="cls-3" d="M14.78,68.54c-.54.22-.64-.1-.54.22s-.1.3.16.35.13.42.36,0A.55.55,0,0,0,14.78,68.54Z"/><path class="cls-3" d="M16.4,62.21c-.9.18-1-.33-.9.18s-.23.44.15.58.09.68.53.18A.87.87,0,0,0,16.4,62.21Z"/><path class="cls-4" d="M6.18,48.7c.83-.4,1,.09.83-.4s.12-.48-.29-.52-.25-.64-.56-.05A.86.86,0,0,0,6.18,48.7Z"/><path class="cls-3" d="M7.69,50.21c-1-.34-.19-.49-.54-.11s-.51.37-.17.61,0,.47.59.11S7.69,50.21,7.69,50.21Z"/><path class="cls-3" d="M15,50.67c-1-.34-.2-.49-.54-.1s-.51.36-.18.59,0,.48.6.12S15,50.67,15,50.67Z"/><path class="cls-4" d="M9.38,46c-.56.91-.52.08-.23.51s.23.57.55.3.46.08.24-.55S9.38,46,9.38,46Z"/><path class="cls-3" d="M11,43.63c-1-.34-.2-.5-.55-.11s-.5.36-.17.6,0,.48.59.11S11,43.63,11,43.63Z"/><path class="cls-3" d="M3.36,47.87c-.49.94-.51.11-.19.52s.27.56.56.27.48,0,.21-.57S3.36,47.87,3.36,47.87Z"/><path class="cls-3" d="M4.63,45.76c-.94.51-.5-.19-.45.33s-.09.61.31.54.37.3.49-.36S4.63,45.76,4.63,45.76Z"/><path class="cls-3" d="M5.25,55.56c-1-.33-.2-.49-.54-.1s-.51.36-.18.6,0,.48.6.11S5.25,55.56,5.25,55.56Z"/><path class="cls-4" d="M3.34,50.43c-.91-.56-.08-.52-.51-.23s-.57.23-.31.55-.07.47.56.24S3.34,50.43,3.34,50.43Z"/><path class="cls-3" d="M2.14,55.72c1-.39.47.25.48-.27s.16-.6-.25-.57-.33-.34-.53.3S2.14,55.72,2.14,55.72Z"/><path class="cls-3" d="M10.63,63.31c-.09-.9.39-.93-.09-.9s-.38-.24-.54.13-.63.06-.21.52A.72.72,0,0,0,10.63,63.31Z"/><path class="cls-3" d="M9.4,54.85c-.92,0-.9-.47-.92,0s-.29.4.07.6,0,.68.5.25A.86.86,0,0,0,9.4,54.85Z"/><path class="cls-4" d="M10.37,52.81c-.91.06-.89-.46-.91.06s-.29.4.07.59,0,.69.5.26A.88.88,0,0,0,10.37,52.81Z"/><path class="cls-3" d="M8.68,44.51c-.54.22-.64-.1-.54.22s-.1.31.16.35.13.42.36.05A.55.55,0,0,0,8.68,44.51Z"/><path class="cls-3" d="M12.4,59.65c-.68-.82.09-.52-.4-.38s-.63,0-.47.42-.22.42.44.41S12.4,59.65,12.4,59.65Z"/><path class="cls-4" d="M14.58,59.7c-.91.06-.89-.46-.91.06s-.3.4.07.59,0,.69.5.26A.88.88,0,0,0,14.58,59.7Z"/><path class="cls-3" d="M16.68,58.32c-.54.22-.64-.1-.54.22s-.1.3.16.35.13.41.36,0A.55.55,0,0,0,16.68,58.32Z"/><path class="cls-3" d="M17.81,57.44c-.07-1.06.38-.37-.11-.54s-.52-.34-.62.06-.43.21.12.59S17.81,57.44,17.81,57.44Z"/><path class="cls-4" d="M18.55,58.44c1-.21.41.33.52-.18s.26-.57-.15-.61-.26-.39-.57.2S18.55,58.44,18.55,58.44Z"/><path class="cls-3" d="M19.61,58.59c.28.69-.12.81.28.69s.39.13.45-.2.53-.17.07-.46A.72.72,0,0,0,19.61,58.59Z"/><path class="cls-3" d="M18.8,60.76c.28.7-.13.82.28.7s.38.12.44-.21.54-.17.07-.45A.7.7,0,0,0,18.8,60.76Z"/><path class="cls-3" d="M21.68,62.17c-.67-.83.1-.52-.4-.38s-.62,0-.47.41-.22.42.44.42S21.68,62.17,21.68,62.17Z"/><path class="cls-3" d="M21.13,67.64c-.55.21-.64-.1-.55.21s-.1.31.16.36.14.42.36.05A.56.56,0,0,0,21.13,67.64Z"/><path class="cls-3" d="M24.23,49.44c-.55.21-.64-.11-.55.21s-.09.31.17.35.13.42.35.06A.54.54,0,0,0,24.23,49.44Z"/><path class="cls-3" d="M23.42,51.65c-.55.22-.64-.1-.55.22s-.1.3.16.35.14.42.36.05A.56.56,0,0,0,23.42,51.65Z"/><path class="cls-4" d="M25.5,51.34c-1-.33-.19-.49-.54-.1s-.51.36-.17.6,0,.47.59.11S25.5,51.34,25.5,51.34Z"/><path class="cls-3" d="M24,53.83c-1-.33-.2-.49-.54-.1s-.51.36-.18.6,0,.48.6.11S24,53.83,24,53.83Z"/><path class="cls-3" d="M22.32,46.14c-1-.33-.2-.49-.54-.1s-.51.36-.18.6,0,.47.6.11S22.32,46.14,22.32,46.14Z"/><path class="cls-3" d="M22.85,48.13c-.54.22-.64-.1-.54.22s-.1.3.16.35.13.42.36,0A.55.55,0,0,0,22.85,48.13Z"/><path class="cls-3" d="M20.49,44.22c-1-.33-.46-.61-.55-.1s-.34.36,0,.6-.1.68.46.31A.49.49,0,0,0,20.49,44.22Z"/><path class="cls-3" d="M19.35,52c-.14-1.05.35-.68-.14-.53s-.48-.15-.55.26-.65.21-.08.55A.49.49,0,0,0,19.35,52Z"/><path class="cls-3" d="M17.51,48.32c-1-.33-.2-.49-.55-.1s-.5.36-.17.6,0,.48.59.11S17.51,48.32,17.51,48.32Z"/><path class="cls-3" d="M20.64,47.31c-1-.35-.45-.63-.54-.12s-.35.36,0,.6-.11.68.46.33A.49.49,0,0,0,20.64,47.31Z"/><path class="cls-4" d="M19.15,49.13c-1-.33-.46-.62-.54-.1s-.34.36,0,.6-.09.67.47.31A.49.49,0,0,0,19.15,49.13Z"/><path class="cls-3" d="M17.28,46.51c-1-.34-.46-.62-.54-.11s-.34.37,0,.61-.09.67.46.31A.49.49,0,0,0,17.28,46.51Z"/><path class="cls-3" d="M19.67,45.69c-.55.21-.64-.11-.55.21s-.09.31.17.35.13.42.35.06A.54.54,0,0,0,19.67,45.69Z"/><path class="cls-3" d="M52.79,46.13c.41.82-.08,1,.41.82s.48.11.52-.29.63-.27,0-.56A.86.86,0,0,0,52.79,46.13Z"/><path class="cls-4" d="M50,45.75c.22,1-.3.71.18.52s.49.11.52-.3.64-.26,0-.55A.48.48,0,0,0,50,45.75Z"/><path class="cls-3" d="M52.85,49.42c-1-.34-.46-.62-.54-.11s-.34.37,0,.6-.09.68.46.32A.49.49,0,0,0,52.85,49.42Z"/><path class="cls-3" d="M46.19,48.64c-1-.33-.2-.49-.55-.1s-.51.36-.17.6,0,.47.59.11S46.19,48.64,46.19,48.64Z"/><path class="cls-3" d="M58.18,49.89c-.33,1-.49.2-.1.54s.36.51.6.18.47,0,.11-.6S58.18,49.89,58.18,49.89Z"/><path class="cls-4" d="M56.44,52.64c.37.82-.07,1,.37.82s.44.11.47-.3.58-.26,0-.56A.73.73,0,0,0,56.44,52.64Z"/><path class="cls-3" d="M53.45,55.77c.4.82-.08,1,.4.82s.49.11.53-.3.63-.26,0-.56A.85.85,0,0,0,53.45,55.77Z"/><path class="cls-3" d="M48.05,53.38c.87-.26,1,.25.87-.26s.19-.46-.2-.57-.15-.66-.54-.13A.85.85,0,0,0,48.05,53.38Z"/><path class="cls-3" d="M42.71,50.54c-.85.34-1-.16-.85.34s-.15.47.25.54.21.65.56.08A.86.86,0,0,0,42.71,50.54Z"/><path class="cls-3" d="M45.09,53.74c.41.82-.07,1,.41.82s.49.11.52-.3.64-.26,0-.56A.87.87,0,0,0,45.09,53.74Z"/><path class="cls-4" d="M45.89,59.13c-.57.7-.94.34-.57.7s.09.49.48.36.5.47.53-.2A.87.87,0,0,0,45.89,59.13Z"/><path class="cls-3" d="M48.53,62.13c.41.82-.07,1,.41.82s.48.11.52-.3.63-.26,0-.55A.87.87,0,0,0,48.53,62.13Z"/><path class="cls-3" d="M45.71,65.44c-.63.66-1,.27-.63.66s.05.49.45.39.46.51.54-.15A.87.87,0,0,0,45.71,65.44Z"/><path class="cls-4" d="M45.07,67.31c.34.67-.06.82.34.67s.39.09.42-.24.52-.22,0-.46A.7.7,0,0,0,45.07,67.31Z"/><path class="cls-3" d="M50.24,69c.33.68-.06.83.33.68s.4.08.43-.25.52-.22,0-.46A.71.71,0,0,0,50.24,69Z"/><path class="cls-4" d="M51.62,51.3c-1-.34-.2-.49-.54-.11s-.51.37-.18.6,0,.48.6.12S51.62,51.3,51.62,51.3Z"/><path class="cls-3" d="M53.15,57.55c-1-.34-.19-.49-.54-.11s-.51.37-.17.6,0,.48.59.12S53.15,57.55,53.15,57.55Z"/><path class="cls-3" d="M50.82,61.19c-1-.33-.2-.49-.55-.1s-.5.36-.17.6,0,.48.59.11S50.82,61.19,50.82,61.19Z"/><path class="cls-3" d="M63.37,54.64c-1-.34-.2-.49-.54-.11s-.51.36-.17.6,0,.48.59.12S63.37,54.64,63.37,54.64Z"/><path class="cls-3" d="M49.37,46.46c-1-.33-.2-.49-.54-.1s-.51.36-.18.6,0,.48.6.11S49.37,46.46,49.37,46.46Z"/><path class="cls-3" d="M47.71,57.76c-1-.34-.2-.49-.54-.11s-.51.36-.17.6,0,.48.59.11S47.71,57.76,47.71,57.76Z"/><path class="cls-3" d="M52.3,54.91c-1-.33-.2-.49-.55-.1s-.5.36-.17.6,0,.47.6.11S52.3,54.91,52.3,54.91Z"/><path class="cls-3" d="M48.29,48.53c-1-.33-.2-.49-.54-.1s-.51.36-.17.6,0,.48.59.11S48.29,48.53,48.29,48.53Z"/><path class="cls-3" d="M45.05,52.29c-.55.22-.64-.1-.55.22s-.1.3.16.35.14.42.36,0A.56.56,0,0,0,45.05,52.29Z"/><path class="cls-3" d="M50.35,49.42c-.55.22-.64-.1-.55.22s-.09.3.17.35.13.42.35,0A.54.54,0,0,0,50.35,49.42Z"/><path class="cls-4" d="M54.93,61c-1-.33-.2-.49-.55-.1s-.51.36-.17.6,0,.48.59.11S54.93,61,54.93,61Z"/><path class="cls-3" d="M49,50.69c-1-.33-.2-.49-.55-.1s-.5.36-.17.6,0,.47.6.11S49,50.69,49,50.69Z"/><path class="cls-3" d="M52,47.17c-1-.34-.2-.5-.54-.11s-.51.36-.18.6,0,.48.6.11S52,47.17,52,47.17Z"/><path class="cls-3" d="M47,50.79c-1-.34-.2-.5-.55-.11s-.51.36-.17.6,0,.48.59.11S47,50.79,47,50.79Z"/><path class="cls-3" d="M55.92,54.82c-.06-1.06.38-.36-.1-.54s-.53-.33-.63.06-.42.22.12.6S55.92,54.82,55.92,54.82Z"/><path class="cls-3" d="M55.32,58.06c.3-1,.49-.22.09-.55S55,57,54.8,57.36s-.47.06-.09.6S55.32,58.06,55.32,58.06Z"/><path class="cls-4" d="M59.56,67.45c.3-1,.48-.22.08-.55s-.38-.49-.61-.15-.47,0-.08.6S59.56,67.45,59.56,67.45Z"/><path class="cls-3" d="M51.11,64.29c.3-1,.48-.21.08-.54s-.38-.5-.61-.16-.47.06-.08.6S51.11,64.29,51.11,64.29Z"/><path class="cls-3" d="M44.68,63.82c.3-1,.48-.22.09-.55s-.38-.49-.61-.15-.47.05-.09.6S44.68,63.82,44.68,63.82Z"/><path class="cls-3" d="M48,66.86c-.58.71-.94.34-.58.71s.1.49.49.35.5.47.52-.19A.86.86,0,0,0,48,66.86Z"/><path class="cls-3" d="M58.38,55.55c-.58.71-1,.35-.58.71s.09.49.48.35.5.47.53-.19A.88.88,0,0,0,58.38,55.55Z"/><path class="cls-3" d="M49.31,66.38c.3-1,.48-.22.08-.55s-.37-.49-.6-.15-.47,0-.09.6S49.31,66.38,49.31,66.38Z"/><path class="cls-3" d="M51.22,65.72c.33.67-.06.82.33.67s.4.09.43-.25.52-.21,0-.45A.69.69,0,0,0,51.22,65.72Z"/><path class="cls-3" d="M47.54,61c.34.67-.06.82.34.67s.39.09.42-.24.52-.22,0-.46A.7.7,0,0,0,47.54,61Z"/><path class="cls-3" d="M45.84,64c.34.67-.06.83.34.67s.4.09.43-.24.51-.22,0-.46A.71.71,0,0,0,45.84,64Z"/><path class="cls-3" d="M56.48,64c.3-1,.48-.21.08-.54s-.38-.5-.6-.15-.48,0-.09.59S56.48,64,56.48,64Z"/><path class="cls-3" d="M43.32,66.88c.3-1,.48-.22.08-.55s-.38-.49-.6-.15-.48,0-.09.6S43.32,66.88,43.32,66.88Z"/><path class="cls-3" d="M48,59.82c.3-1,.48-.22.09-.55s-.38-.5-.61-.15-.47.05-.09.6S48,59.82,48,59.82Z"/><path class="cls-4" d="M62.41,58.59c.28.7-.13.82.28.7s.38.12.44-.21.54-.17.07-.46A.71.71,0,0,0,62.41,58.59Z"/><path class="cls-3" d="M56.38,67.44c.34.67-.06.83.34.67s.39.1.42-.24.52-.21,0-.46A.72.72,0,0,0,56.38,67.44Z"/><path class="cls-4" d="M52,68.37c.3-1,.49-.22.09-.55s-.38-.49-.61-.15-.47,0-.09.6S52,68.37,52,68.37Z"/><path class="cls-3" d="M61,66.16c.3-1,.48-.22.08-.55s-.38-.49-.6-.15-.48.05-.09.6S61,66.16,61,66.16Z"/><path class="cls-3" d="M54.62,69.49c.34.67-.06.83.34.67s.39.1.42-.24.52-.21,0-.46A.73.73,0,0,0,54.62,69.49Z"/><path class="cls-4" d="M49.5,56.3c.33.67-.06.83.33.67s.4.1.43-.24.52-.22,0-.46A.71.71,0,0,0,49.5,56.3Z"/><path class="cls-3" d="M45.82,61.21c-.55.22-.64-.1-.55.22s-.1.31.16.35.14.42.36.06A.58.58,0,0,0,45.82,61.21Z"/><path class="cls-3" d="M57.3,65.51c-.54.22-.64-.1-.54.22s-.1.31.16.35.13.42.36.06A.57.57,0,0,0,57.3,65.51Z"/><path class="cls-3" d="M54.63,66.54c-.54.22-.64-.1-.54.22s-.1.3.16.35.13.42.36,0A.55.55,0,0,0,54.63,66.54Z"/><path class="cls-3" d="M59.05,64.07c-.55.22-.64-.1-.55.22s-.1.31.16.35.14.42.36.06A.58.58,0,0,0,59.05,64.07Z"/><path class="cls-3" d="M54.63,64.54c-.89.19-1-.32-.89.19s-.23.44.15.58.09.68.53.18A.87.87,0,0,0,54.63,64.54Z"/><path class="cls-3" d="M43.56,49.51c.82-.39,1,.1.82-.39s.12-.48-.29-.53-.24-.64-.55-.05A.86.86,0,0,0,43.56,49.51Z"/><path class="cls-4" d="M45,50.67c-1-.33-.2-.49-.54-.1s-.51.36-.18.6,0,.47.6.11S45,50.67,45,50.67Z"/><path class="cls-3" d="M54.85,52.38c-1-.33-.2-.49-.54-.1s-.51.36-.17.6,0,.47.59.11S54.85,52.38,54.85,52.38Z"/><path class="cls-3" d="M46.31,46.4c-.56.9-.52.08-.23.5s.23.58.55.31.46.08.24-.55S46.31,46.4,46.31,46.4Z"/><path class="cls-3" d="M48,44.83c-1-.33-.2-.49-.54-.1s-.51.36-.17.6,0,.47.59.11S48,44.83,48,44.83Z"/><path class="cls-3" d="M40,48.33c-.5.94-.52.12-.2.52s.28.56.57.27.47,0,.21-.57S40,48.33,40,48.33Z"/><path class="cls-3" d="M42.4,46.81c-.94.5-.5-.19-.45.32s-.09.62.31.55.37.3.49-.36S42.4,46.81,42.4,46.81Z"/><path class="cls-3" d="M51,57.92c-1-.33-.2-.49-.54-.1s-.51.36-.18.6,0,.47.6.11S51,57.92,51,57.92Z"/><path class="cls-3" d="M42.75,48.9c-.9-.57-.08-.52-.5-.23s-.58.23-.31.54-.08.47.55.25S42.75,48.9,42.75,48.9Z"/><path class="cls-4" d="M48.52,64.32c-.09-.9.39-.93-.09-.9s-.38-.24-.54.13-.63.06-.22.52A.73.73,0,0,0,48.52,64.32Z"/><path class="cls-3" d="M46.54,56.48c-.91.06-.9-.46-.91.06s-.3.4.06.59,0,.69.5.25A.86.86,0,0,0,46.54,56.48Z"/><path class="cls-3" d="M48.57,55.28c-.91,0-.89-.46-.91,0s-.29.41.07.6,0,.68.5.25A.84.84,0,0,0,48.57,55.28Z"/><path class="cls-3" d="M44.93,45.29c-.55.22-.64-.1-.55.22s-.1.3.16.35.14.42.36,0A.56.56,0,0,0,44.93,45.29Z"/><path class="cls-3" d="M53.26,62.26c-.68-.82.09-.52-.41-.37s-.62,0-.46.41-.23.42.44.41S53.26,62.26,53.26,62.26Z"/><path class="cls-3" d="M51.68,59.26c-.91.06-.89-.46-.91.06s-.29.4.07.6,0,.68.5.25A.86.86,0,0,0,51.68,59.26Z"/><path class="cls-3" d="M60.67,59.91c-.54.22-.64-.1-.54.22s-.1.31.16.35.13.42.35.06A.56.56,0,0,0,60.67,59.91Z"/><path class="cls-3" d="M58.79,59.43c-.07-1.07.38-.37-.11-.54s-.53-.34-.62.06-.43.21.12.59S58.79,59.43,58.79,59.43Z"/><path class="cls-3" d="M56.16,59.72c1-.21.41.33.52-.18s.26-.56-.15-.61-.26-.39-.57.2S56.16,59.72,56.16,59.72Z"/><path class="cls-3" d="M62,61.28c.28.7-.13.82.28.7s.38.12.44-.21.54-.17.07-.46A.71.71,0,0,0,62,61.28Z"/><path class="cls-3" d="M56.24,61.67c.28.69-.13.81.28.69s.39.13.45-.2.53-.17.07-.46A.72.72,0,0,0,56.24,61.67Z"/><path class="cls-3" d="M60.55,63c-.68-.82.09-.52-.41-.38s-.62,0-.47.42-.22.42.45.41S60.55,63,60.55,63Z"/><path class="cls-3" d="M58.5,68.45c-.54.22-.64-.1-.54.22s-.1.3.16.35.13.42.36,0A.55.55,0,0,0,58.5,68.45Z"/><path class="cls-4" d="M61,51.23c-.54.22-.64-.1-.54.22s-.1.3.16.35.13.41.35.05A.54.54,0,0,0,61,51.23Z"/><path class="cls-3" d="M61,53.09c-.55.22-.64-.1-.55.22s-.1.3.16.35.14.42.36.05A.56.56,0,0,0,61,53.09Z"/><path class="cls-3" d="M62.88,52.16c-1-.34-.2-.5-.54-.11s-.51.36-.18.6,0,.48.6.11S62.88,52.16,62.88,52.16Z"/><path class="cls-3" d="M61.61,55.86c-1-.33-.2-.49-.54-.1s-.51.36-.18.6,0,.47.6.11S61.61,55.86,61.61,55.86Z"/><path class="cls-3" d="M50.94,53.64c-1-.33-.2-.48-.55-.1s-.5.36-.17.6,0,.48.59.11S50.94,53.64,50.94,53.64Z"/><path class="cls-3" d="M60.42,48.28c-.55.21-.64-.11-.55.21s-.1.31.16.35.14.43.36.06A.56.56,0,0,0,60.42,48.28Z"/><path class="cls-3" d="M53.05,52.31c-1-.33-.45-.61-.54-.1s-.34.36,0,.6-.09.68.47.31A.49.49,0,0,0,53.05,52.31Z"/><path class="cls-3" d="M62.87,49.8c-.14-1.06.35-.68-.15-.54s-.47-.14-.54.26-.65.21-.08.55A.49.49,0,0,0,62.87,49.8Z"/><path class="cls-3" d="M54.57,50.66c-1-.33-.2-.49-.54-.1s-.51.36-.18.6,0,.48.6.11S54.57,50.66,54.57,50.66Z"/><path class="cls-3" d="M58,48.12c-1-.35-.45-.62-.54-.11s-.35.35,0,.6-.11.67.46.32A.49.49,0,0,0,58,48.12Z"/><path class="cls-3" d="M56.53,49.94c-1-.33-.46-.61-.54-.1s-.35.36,0,.6-.1.68.46.32A.5.5,0,0,0,56.53,49.94Z"/><path class="cls-3" d="M55.09,48.11c-1-.34-.46-.62-.55-.11s-.34.36,0,.6-.1.68.46.32A.49.49,0,0,0,55.09,48.11Z"/><path class="cls-3" d="M56,46.62c-.55.22-.64-.1-.55.22s-.09.3.17.35.13.42.35.05A.54.54,0,0,0,56,46.62Z"/><path class="cls-3" d="M58.33,61c-.54.21-.63-.11-.54.21s-.1.31.16.35.13.42.36.06A.55.55,0,0,0,58.33,61Z"/><path class="cls-3" d="M52.68,63.31c-.54.22-.64-.1-.54.22s-.1.3.16.35.13.42.36,0A.55.55,0,0,0,52.68,63.31Z"/><path class="cls-4" d="M60.53,57.48c-.55.22-.64-.1-.55.22s-.1.31.16.35.14.42.36.06A.58.58,0,0,0,60.53,57.48Z"/><path class="cls-3" d="M56.89,56.62c-.55.22-.64-.1-.55.22s-.1.31.16.35.14.42.36.06A.58.58,0,0,0,56.89,56.62Z"/><path class="cls-3" d="M53.3,60.18c-.68-.82.09-.52-.4-.37s-.63,0-.47.41-.22.42.44.41S53.3,60.18,53.3,60.18Z"/><path class="cls-3" d="M59.39,53.57c-.54.21-.64-.11-.54.21s-.1.31.16.35.13.43.36.06A.55.55,0,0,0,59.39,53.57Z"/><path class="cls-3" d="M59,52c-.14-1,.35-.68-.14-.53s-.48-.15-.55.26-.64.21-.07.55A.48.48,0,0,0,59,52Z"/><path class="cls-5" d="M43.93,89.56A10.78,10.78,0,1,1,33.15,78.79,10.77,10.77,0,0,1,43.93,89.56Z"/><path class="cls-3" d="M32.25,81.42c.41.82-.07,1,.41.82s.49.11.52-.3.64-.26,0-.56A.89.89,0,0,0,32.25,81.42Z"/><path class="cls-4" d="M25.41,87.73c.41.81-.07,1,.41.81s.49.12.52-.29.63-.26,0-.56A.86.86,0,0,0,25.41,87.73Z"/><path class="cls-4" d="M27.12,93.88c.33.68-.06.83.33.68s.4.09.43-.25.52-.21,0-.46A.71.71,0,0,0,27.12,93.88Z"/><path class="cls-3" d="M29.7,83.74c-1-.33-.2-.49-.54-.1s-.51.36-.17.6,0,.48.59.11S29.7,83.74,29.7,83.74Z"/><path class="cls-3" d="M25.59,86c-1-.33-.2-.49-.54-.1s-.51.36-.18.6,0,.48.6.11S25.59,86,25.59,86Z"/><path class="cls-3" d="M33.36,85.82c-1-.34-.2-.5-.55-.11s-.5.36-.17.6,0,.48.6.11S33.36,85.82,33.36,85.82Z"/><path class="cls-3" d="M32.48,84.07c.29-1,.48-.21.08-.54s-.38-.5-.61-.15-.47.05-.09.59S32.48,84.07,32.48,84.07Z"/><path class="cls-4" d="M38.43,95.87c.29-1,.48-.21.08-.55s-.38-.49-.61-.15-.47.06-.09.6S38.43,95.87,38.43,95.87Z"/><path class="cls-3" d="M27.18,89.74c.3-1,.49-.22.09-.55s-.38-.49-.61-.15-.47,0-.09.6S27.18,89.74,27.18,89.74Z"/><path class="cls-3" d="M35.68,80.94c-.58.71-1,.34-.58.71s.1.48.49.35.49.47.52-.2A.85.85,0,0,0,35.68,80.94Z"/><path class="cls-3" d="M24.08,92.56c.33.67-.06.82.33.67s.4.09.43-.25.52-.21,0-.45A.69.69,0,0,0,24.08,92.56Z"/><path class="cls-3" d="M33.11,89.92c.3-1,.49-.22.09-.55s-.38-.5-.61-.15-.47,0-.09.6S33.11,89.92,33.11,89.92Z"/><path class="cls-3" d="M33.69,92.83c.33.67-.07.82.33.67s.4.09.43-.25.52-.21,0-.46A.7.7,0,0,0,33.69,92.83Z"/><path class="cls-3" d="M30.11,94.63c.3-1,.48-.22.08-.55s-.38-.5-.6-.15-.48,0-.09.59S30.11,94.63,30.11,94.63Z"/><path class="cls-3" d="M38.27,92.26c.3-1,.48-.22.09-.55s-.38-.49-.61-.15-.47.06-.09.6S38.27,92.26,38.27,92.26Z"/><path class="cls-3" d="M31.93,94.87c.33.68-.06.83.33.68s.4.09.43-.25.52-.21,0-.46A.71.71,0,0,0,31.93,94.87Z"/><path class="cls-3" d="M28.61,81.74c.33.68-.07.83.33.68s.4.09.43-.25.52-.21,0-.46A.71.71,0,0,0,28.61,81.74Z"/><path class="cls-3" d="M30.87,91.56c-.54.22-.64-.1-.54.22s-.1.3.16.35.13.42.36.05A.55.55,0,0,0,30.87,91.56Z"/><path class="cls-3" d="M34.68,98.19c-.55.22-.64-.1-.55.22s-.1.3.16.35.14.41.36,0A.56.56,0,0,0,34.68,98.19Z"/><path class="cls-3" d="M35.64,87.94c-.54.22-.64-.1-.54.22s-.1.3.16.35.13.42.35,0A.54.54,0,0,0,35.64,87.94Z"/><path class="cls-3" d="M28.66,91c-.9.19-1-.33-.9.19s-.23.44.15.58.09.67.53.18A.89.89,0,0,0,28.66,91Z"/><path class="cls-3" d="M27,84.78c-1-.34-.2-.49-.54-.1s-.51.36-.18.6,0,.47.6.11S27,84.78,27,84.78Z"/><path class="cls-3" d="M29.72,88.43c-.68-.82.09-.52-.41-.38s-.62,0-.46.41-.23.43.44.42S29.72,88.43,29.72,88.43Z"/><path class="cls-3" d="M28.05,96.69c-.91,0-.89-.46-.91,0s-.29.41.07.6,0,.69.5.25A.84.84,0,0,0,28.05,96.69Z"/><path class="cls-3" d="M41.74,86.23c-.55.22-.64-.1-.55.22s-.09.3.17.35.13.42.35,0A.56.56,0,0,0,41.74,86.23Z"/><path class="cls-3" d="M36.93,85.38c-.07-1.06.38-.37-.1-.54s-.53-.34-.63.06-.42.21.12.6S36.93,85.38,36.93,85.38Z"/><path class="cls-3" d="M32.16,88.36c1.05-.21.42.32.53-.18s.26-.57-.15-.61-.26-.4-.57.2S32.16,88.36,32.16,88.36Z"/><path class="cls-3" d="M34.75,95.66c.28.7-.13.82.28.7s.39.12.44-.21.54-.17.07-.45A.7.7,0,0,0,34.75,95.66Z"/><path class="cls-3" d="M37.85,88.64c-.68-.82.09-.52-.4-.37s-.63,0-.47.41-.22.42.44.41S37.85,88.64,37.85,88.64Z"/><path class="cls-3" d="M35.81,93.83c-.55.22-.64-.1-.55.22s-.1.31.16.35.14.42.36.06A.58.58,0,0,0,35.81,93.83Z"/><path class="cls-3" d="M40.36,84.07c-1-.33-.2-.49-.54-.1s-.51.36-.18.6,0,.47.6.11S40.36,84.07,40.36,84.07Z"/><path class="cls-4" d="M35.64,86.39c-.55.22-.64-.1-.55.22s-.1.3.16.35.14.42.36.05A.56.56,0,0,0,35.64,86.39Z"/><path class="cls-3" d="M24.66,90.26c-.55.22-.64-.1-.55.22s-.1.3.16.35.14.42.36,0A.56.56,0,0,0,24.66,90.26Z"/><path class="cls-3" d="M37.83,82.87c-.55.22-.64-.1-.55.22s-.09.3.17.35.13.41.35,0A.56.56,0,0,0,37.83,82.87Z"/><path class="cls-3" d="M34.38,83.11c-.55.22-.64-.1-.55.22s-.09.31.17.35.13.42.35,0A.54.54,0,0,0,34.38,83.11Z"/><path class="cls-4" d="M29.7,85.84c-.68-.83.09-.52-.4-.38s-.63,0-.47.41-.22.42.44.42S29.7,85.84,29.7,85.84Z"/><path class="cls-4" d="M33,91.22c.34.68-.06.83.34.68s.39.09.42-.25.52-.21,0-.46A.71.71,0,0,0,33,91.22Z"/><path class="cls-3" d="M41.85,93.32c-.67-.82.1-.52-.4-.38s-.62,0-.47.42-.22.42.44.41S41.85,93.32,41.85,93.32Z"/><path class="cls-3" d="M42.71,90.75c-.67-.82.1-.52-.4-.37s-.62,0-.47.41-.22.42.45.41S42.71,90.75,42.71,90.75Z"/><path class="cls-3" d="M40.92,95.46c-.67-.82.09-.52-.4-.38s-.63,0-.47.42-.22.42.44.41S40.92,95.46,40.92,95.46Z"/><path class="cls-4" d="M30.25,98.19c-.68-.82.09-.52-.4-.38s-.63,0-.47.42-.22.42.44.41S30.25,98.19,30.25,98.19Z"/><path class="cls-3" d="M33.29,98.49c-.67-.82.09-.52-.4-.38s-.62,0-.47.42-.22.42.44.41S33.29,98.49,33.29,98.49Z"/><path class="cls-3" d="M37,97.87c-.54.22-.64-.1-.54.22s-.1.3.16.35.13.42.36,0A.55.55,0,0,0,37,97.87Z"/><path class="cls-3" d="M38.7,89.35c.16,1.06-.35.4.15.54s.55.28.61-.12.41-.25-.17-.58S38.7,89.35,38.7,89.35Z"/><path class="cls-3" d="M30.82,89.89c-.55.22-.64-.1-.55.22s-.09.3.16.35.14.42.36.05A.56.56,0,0,0,30.82,89.89Z"/><path class="cls-3" d="M35.77,90.61c-.55.22-.64-.1-.55.22s-.1.3.16.35.14.42.36,0A.56.56,0,0,0,35.77,90.61Z"/><path class="cls-3" d="M31.61,96.48c-.68-.83.09-.52-.41-.38s-.62,0-.46.41-.23.42.44.42S31.61,96.48,31.61,96.48Z"/><path class="cls-3" d="M29.85,97.81c-.63.18-.63,0-.47.42s-.22.42.44.41.43-.45.43-.45"/><path class="cls-3" d="M42.49,88.11c-.68-.82.09-.52-.41-.37s-.62,0-.47.41-.22.42.45.41S42.49,88.11,42.49,88.11Z"/><path class="cls-3" d="M41.07,88.5c-.55.22-.64-.1-.55.22s-.1.31.16.35.14.42.36.06A.58.58,0,0,0,41.07,88.5Z"/><path class="cls-4" d="M39,86.82c-.55.22-.64-.1-.55.22s-.1.3.16.34.14.42.36.06A.56.56,0,0,0,39,86.82Z"/><path class="cls-4" d="M34,80.07c-.55.22-.64-.1-.55.22s-.09.31.17.35.13.42.35,0A.54.54,0,0,0,34,80.07Z"/><path class="cls-6" d="M34.75,73.64l-2.49-.11L32.47,66a1.66,1.66,0,0,0-.63-1.4c-.7-.4-4.51-1.91-4.74-2-1.42-.53-2.68-1-2.66-1.35s.78-.19.78-.19,7.56,1.59,8.28,2.29a2.87,2.87,0,0,1,1.19,2.22v4.25l0,3.66"/><rect class="cls-7" x="32.24" y="73.45" width="2.48" height="6.04"/><path class="cls-4" d="M32.54,74.8c.41.82-.07,1,.41.82s.48.11.52-.3.63-.26,0-.56A.86.86,0,0,0,32.54,74.8Z"/><path class="cls-3" d="M34.17,76.3c-.55.22-.64-.1-.55.22s-.1.31.16.35.14.42.36.06A.58.58,0,0,0,34.17,76.3Z"/><path class="cls-3" d="M33.72,78.27c-1-.33-.2-.49-.54-.1s-.51.36-.18.6,0,.47.6.11S33.72,78.27,33.72,78.27Z"/><path class="cls-3" d="M32.25,63.33c-.54.21-.64-.1-.54.21s-.1.31.16.35.13.42.36.06A.55.55,0,0,0,32.25,63.33Z"/><path class="cls-3" d="M33.27,66.81c-.15.57-.47.45-.15.57s.18.26.37.08.42.15.26-.25A.56.56,0,0,0,33.27,66.81Z"/><path class="cls-4" d="M34.08,65.29c-.68-.82.09-.52-.41-.37s-.62,0-.47.41-.22.42.45.41S34.08,65.29,34.08,65.29Z"/><path class="cls-4" d="M33.27,69.58c.28.7-.12.82.28.7s.39.12.45-.21.53-.17.07-.46A.72.72,0,0,0,33.27,69.58Z"/><path class="cls-3" d="M34.21,72.65c-.68-.83.1-.52-.4-.38s-.63,0-.47.41-.22.42.44.42S34.21,72.65,34.21,72.65Z"/><path class="cls-3" d="M30.78,62.83c-.34-.41,0-.26-.2-.19s-.31,0-.23.21-.11.21.22.2S30.78,62.83,30.78,62.83Z"/><path class="cls-3" d="M28.8,62.38c-.33-.41.05-.26-.2-.19s-.31,0-.23.21-.11.2.22.2S28.8,62.38,28.8,62.38Z"/><path class="cls-3" d="M29.76,63c-.34-.41,0-.26-.2-.19s-.31,0-.23.21-.11.2.22.2S29.76,63,29.76,63Z"/><path class="cls-3" d="M26.78,61.81c-.33-.4,0-.25-.2-.18s-.31,0-.23.2-.11.21.22.2S26.78,61.81,26.78,61.81Z"/><rect class="cls-8" x="0.5" y="0.5" width="238.27" height="147.59"/><polyline points="0.02 27.25 239.08 27.25 239.08 0.42 0.02 0.42"/><path class="cls-6" d="M177.85,16.77V14.23h6.39v6a8.15,8.15,0,0,1-2.7,1.63,9.62,9.62,0,0,1-3.58.7,7.88,7.88,0,0,1-4-1,6.27,6.27,0,0,1-2.57-2.84,9.29,9.29,0,0,1-.86-4,8.9,8.9,0,0,1,1-4.19,6.6,6.6,0,0,1,2.81-2.8A7.43,7.43,0,0,1,177.8,7a6.81,6.81,0,0,1,4.26,1.18,5.29,5.29,0,0,1,2,3.25L181.1,12a3.26,3.26,0,0,0-1.17-1.75,3.43,3.43,0,0,0-2.13-.64,4,4,0,0,0-3.09,1.26,5.41,5.41,0,0,0-1.15,3.75,6.06,6.06,0,0,0,1.16,4A3.86,3.86,0,0,0,177.77,20a5,5,0,0,0,1.86-.38,6.21,6.21,0,0,0,1.61-.91V16.77m-25,5.54V7.25h2.88l6,10.06V7.25h2.76V22.31h-3L159,12.49v9.82Zm-5.82,0V7.25h3V22.31Zm-14.69,0V7.25h2.89l6,10.06V7.25h2.76V22.31h-3l-5.91-9.82v9.82Zm-11.86-8.7h2.19a10.74,10.74,0,0,0,2.66-.18,1.54,1.54,0,0,0,.84-.64,2,2,0,0,0,.3-1.12,1.86,1.86,0,0,0-.4-1.23,1.73,1.73,0,0,0-1.12-.59c-.24,0-1,0-2.16,0h-2.31Zm-3,8.7V7.25h6.24a10.47,10.47,0,0,1,3.42.4,3.41,3.41,0,0,1,1.71,1.44,4.44,4.44,0,0,1,.64,2.38,4.13,4.13,0,0,1-1,2.8A4.66,4.66,0,0,1,129,15.66a6.75,6.75,0,0,1,1.59,1.26,18,18,0,0,1,1.69,2.45l1.79,2.94h-3.54L128.41,19a20.62,20.62,0,0,0-1.56-2.21,2.32,2.32,0,0,0-.89-.63,4.83,4.83,0,0,0-1.49-.17h-.6v6.29Zm-7-6-2-5.59-2,5.59Zm5.46,6H116.1l-1.29-3.42H109l-1.21,3.42h-3.15l5.72-15.06h3.14ZM90,22.31,86.44,7.25h3l2.22,10.34L94.37,7.25h3.52l2.58,10.52,2.25-10.52h3l-3.56,15.06H99L96.08,11.05,93.16,22.31ZM75.48,16a.55.55,0,0,1-.5.51h-.07a.5.5,0,0,1-.5-.51c-1.63-5.3-2.41-9,.5-9S77,10.67,75.48,16Zm-.57,5.75a1.6,1.6,0,0,1,0-3.2H75a1.6,1.6,0,0,1-.07,3.2Zm1.2-16.14a1.23,1.23,0,0,0-1.2-.88,1.14,1.14,0,0,0-1.14.88L65.7,19.83c-1.07,1.82-.15,2.54.92,2.62H83.2c1.13-.08,2-.8.92-2.62Z"/><line class="cls-9" x1="0.58" y1="43.19" x2="238.64" y2="43.19"/><line class="cls-9" x1="68.06" y1="122.06" x2="68.06" y2="43.79"/><line class="cls-9" x1="0.58" y1="122.36" x2="238.64" y2="122.36"/></g><g id="text"><text class="cls-10" transform="translate(11.03 38.53)">Breathing Hazard - Carbon Monoxide Gas</text><text class="cls-11" transform="translate(86.18 54.84)">Install water heater in accordance with<tspan x="0" y="9.6">the Instruction Manual and </tspan><tspan class="cls-12" x="96.5" y="9.6">NF</tspan><tspan class="cls-13" x="107.17" y="9.6">P</tspan><tspan class="cls-14" x="111.91" y="9.6">A</tspan><tspan class="cls-12" x="117.39" y="9.6" xml:space="preserve"> 54 </tspan><tspan x="130.73" y="9.6">or</tspan><tspan class="cls-12"><tspan x="0" y="19.2">CAN/CSA-B149.1</tspan><tspan class="cls-15" x="64.91" y="19.2">.</tspan></tspan></text><text class="cls-11" transform="translate(86.18 85.34)"><tspan class="cls-16">T</tspan><tspan x="4" y="0">o avoid injur</tspan><tspan class="cls-17" x="47.14" y="0">y</tspan><tspan x="50.54" y="0">, combustion and ventilation</tspan><tspan x="0" y="9.6">air must be taken from outdoors.</tspan></text><text class="cls-11" transform="translate(86.18 106.57)"><tspan xml:space="preserve">Do not place chemical vapor  emitting</tspan><tspan x="0" y="9.6">products near water heate</tspan><tspan class="cls-18" x="92.95" y="9.6">r</tspan><tspan x="95.17" y="9.6">.</tspan></text><text class="cls-19" transform="translate(13.65 132.75)">Breathing carbon monoxide can cause brain damage or<tspan x="0" y="10.2">death.</tspan><tspan class="cls-20" x="23.63" y="10.2"> </tspan><tspan x="25.52" y="10.2">Always read and understand instruction manual.</tspan></text><path d="M81.64,51.85a1.76,1.76,0,1,1-1.76-1.75A1.76,1.76,0,0,1,81.64,51.85Z"/><path d="M81.63,82.14a1.76,1.76,0,1,1-1.75-1.76A1.75,1.75,0,0,1,81.63,82.14Z"/><path d="M81.63,103.4a1.76,1.76,0,1,1-1.75-1.76A1.75,1.75,0,0,1,81.63,103.4Z"/></g></svg>