<svg id="Layer_1" data-name="Layer 1" xmlns="http://www.w3.org/2000/svg" xmlns:xlink="http://www.w3.org/1999/xlink" viewBox="0 0 263.1 164.95"><defs><style>.cls-1,.cls-3{fill:none;}.cls-2{clip-path:url(#clip-path);}.cls-3{stroke:#010101;stroke-width:1.5px;}.cls-4{font-size:12px;}.cls-4,.cls-9{fill:#010101;}.cls-11,.cls-4{font-family:Arial-BoldMT, Arial;font-weight:700;}.cls-5{letter-spacing:-0.04em;}.cls-6{letter-spacing:0em;}.cls-7{letter-spacing:0em;}.cls-8{letter-spacing:0em;}.cls-10,.cls-11{fill:#fff;}.cls-11{font-size:24px;}</style><clipPath id="clip-path"><rect class="cls-1" width="263.1" height="164.95"/></clipPath></defs><title>wrnng_brthng-hzrd_CO-gas_fllw_applicalble_codes</title><g class="cls-2"><rect class="cls-3" x="0.75" y="0.75" width="261.6" height="163.45"/><text class="cls-4" transform="translate(54.42 41.69)">Carbon Monoxide </text><text class="cls-4" transform="translate(159.08 41.69)"><tspan class="cls-5">W</tspan><tspan x="10.89" y="0">a</tspan></text><text class="cls-4" transform="translate(176.63 41.69)">rnin</text><text class="cls-4" transform="translate(199.3 41.69)">g</text><text class="cls-4" transform="translate(3.73 64.69)">Follow all the local and stat<tspan class="cls-6" x="156.02" y="0">e</tspan><tspan x="162.67" y="0" xml:space="preserve"> codes or</tspan></text><text class="cls-4" transform="translate(219.12 64.69)">, in</text><text class="cls-4" transform="translate(3.73 78.69)">the absence of local and sta<tspan class="cls-7" x="160.05" y="0">t</tspan><tspan x="164.03" y="0">e codes, the </tspan></text><text class="cls-4" transform="translate(3.73 92.7)">“National Fuel Gas Code”, A<tspan class="cls-7" x="162.02" y="0">N</tspan><tspan x="170.68" y="0">SI Z223.1 </tspan></text><text class="cls-4" transform="translate(3.73 106.7)">(N<tspan class="cls-8" x="12.66" y="0">F</tspan><tspan x="20" y="0">P</tspan></text><text class="cls-4" transform="translate(30.84 106.7)">A </text><text class="cls-4" transform="translate(42.4 106.7)">54)- current edition to properly install </text><text class="cls-4" transform="translate(3.73 120.71)">vent system</text><text class="cls-4" transform="translate(73.06 120.71)">.</text><text class="cls-4" transform="translate(3.73 143.71)">Failure to do so can result i<tspan class="cls-7" x="156.03" y="0">n</tspan><tspan x="163.35" y="0" xml:space="preserve"> death,</tspan></text><text class="cls-4" transform="translate(3.73 157.71)">explosion, or carbon monox<tspan class="cls-7" x="160.69" y="0">i</tspan><tspan x="164.01" y="0">de poisoning.</tspan></text></g><rect class="cls-9" x="0.61" y="0.8" width="261.89" height="26.07"/><g class="cls-2"><path class="cls-10" d="M73.83,6.51a1.23,1.23,0,0,0-1.2-.85,1.12,1.12,0,0,0-1.13.85l-8,13.83c-1.06,1.77-.15,2.47.91,2.54H80.89c1.13-.07,2-.77.92-2.54Z"/><path class="cls-9" d="M73.23,16.87a.54.54,0,0,1-.5.5h-.07a.49.49,0,0,1-.49-.5c-1.63-5.15-2.4-8.75.49-8.75s2.12,3.6.57,8.75"/><path class="cls-9" d="M72.66,22.45a1.56,1.56,0,0,1,0-3.11h.07a1.51,1.51,0,0,1,1.48,1.55,1.52,1.52,0,0,1-1.55,1.56"/><text class="cls-11" transform="translate(84.09 22.85)">W</text><text class="cls-11" transform="translate(105.45 22.85)">ARNING</text></g></svg>