<svg xmlns="http://www.w3.org/2000/svg" viewBox="0 0 243.7 132.98"><defs><style>.cls-1,.cls-2,.cls-3,.cls-4,.cls-7{stroke:#000;}.cls-1{stroke-width:0.25px;}.cls-2,.cls-3{stroke-width:0.12px;}.cls-3,.cls-5{fill:#fff;}.cls-4{fill:none;}.cls-6{font-size:10.5px;font-family:Arial-BoldMT, Arial;font-weight:700;}.cls-8{font-size:8.5px;font-family:ArialMT, Arial;}.cls-9{letter-spacing:-0.04em;}.cls-10{letter-spacing:0em;}.cls-11{letter-spacing:-0.02em;}</style></defs><title>wrnng_fre-and-explsn-hzrd_exssve-gas-prssre</title><g id="Layer_1" data-name="Layer 1"><path d="M12.18,78.22c0-.1.09-3.26.09-3.36.15-1.71.82-6.43.92-7.7.64-8.29.13-10.51-.15-13.06,0-.44,1.78.84,4.7,5.38.88,1.37,2.09,3.85,2.54,4.31.64.64,1,.29,1-.93.18-3.57.82-6.33,1.18-9.09A67.59,67.59,0,0,0,23.4,42c0-3.21-.23-3.74,1.19-2.31a15.71,15.71,0,0,1,4,5.72c.79,1.82,1.32,7.37,2.08,1.91A28.15,28.15,0,0,0,31.24,42c.08-1.5.25-3.54.33-5.89.24-7.08,1.74-9.41,1.87-9.67.51-1,.92,1.82,1.38,3.58s.83,1.92,3.17,6.34c3.87,7.31,2.67,5.75,4.6,7.92,4.75,5.33,2.84,13.21,4.6,7.92.93-2.79,1.78-4.34,2.05-5.57,1.42-6.36,1.24-4.83,2.6-1.67,1,2.4,4,7.63,3.66,12.38a22.63,22.63,0,0,0,.2,6.55c1.08,8.32,1.22,6.46,2.74,2.26,3.63-10.09,2.89-7.32,3.47-6.07,1.67,3.57,2.7,5.91,3,8.46.93,7.2.63,7.63,0,11.45-1.38,9-4,10.2.39,7.78,1.85-1,2.74-3.31,2.54-1.86-1.91,14-2.49,14.53-7.83,20.64-5,5.76-11.48,7.37-18,8.15a54.92,54.92,0,0,1-17.74-.86,21.89,21.89,0,0,1-11.69-6c-5.11-5.41-5.4-8.94-5.85-16,0-.3,0-2.58,0-2.86,0-.72,0,.62,0-3.14,0-7.58,0-14.66-.37-16.4-.3-1.31,3,2.16,5.75,8.67Z"/><rect class="cls-1" x="14.26" y="116.08" width="42.71" height="2.2"/><path class="cls-2" d="M44.84,36.88a8.08,8.08,0,0,1,.87-2.8c.55-.72.21-.76,3.28-2.67a3.48,3.48,0,0,0,1.57-1.94c.17-.46.36-.91.47-.25a5.23,5.23,0,0,1-.14,2.53,3.73,3.73,0,0,1-1,1.69,18.66,18.66,0,0,1-2.32,1.5,9,9,0,0,0-2,1.68c-.34.41-.66.53-.66.26Z"/><path class="cls-3" d="M33,62.84A8.36,8.36,0,0,1,33.9,60c.55-.72.21-.76,3.29-2.67a3.44,3.44,0,0,0,1.56-1.94c.17-.46.37-.91.47-.25a5.23,5.23,0,0,1-.14,2.53,3.75,3.75,0,0,1-1,1.7,19.32,19.32,0,0,1-2.32,1.49,8.93,8.93,0,0,0-2,1.68c-.35.41-.66.53-.66.26Z"/><path class="cls-2" d="M30,22.94a8.25,8.25,0,0,0-.91-2.79c-.56-.71-.22-.75-3.33-2.61a3.45,3.45,0,0,1-1.59-1.91c-.18-.46-.39-.9-.48-.24a5.22,5.22,0,0,0,.18,2.53,3.77,3.77,0,0,0,1.05,1.67,18.32,18.32,0,0,0,2.34,1.46,8.83,8.83,0,0,1,2.08,1.64c.35.41.67.52.66.25Z"/><path class="cls-3" d="M30.41,114.56A65.36,65.36,0,0,1,22,106c-2.34-2.93-4.37-6.61-4.78-9.63-.44-3.28-.68-3.87,1.08-.74.1.18.85,1.67,1.3,1.65s.22-2.13.59-4.09a51.53,51.53,0,0,0,.65-5.45c.09-2.7.09-5.34,0-6.11,0-.45-.07-1.36.1-1.38a3.32,3.32,0,0,1,1.53,1.89,21.84,21.84,0,0,1,1.11,5.5,15.12,15.12,0,0,0,2.24,7.74A3.47,3.47,0,0,0,28.61,97c.41,0,.21-1,0-1.87a18.43,18.43,0,0,1-.39-4,20.54,20.54,0,0,1,.26-5.32,27.91,27.91,0,0,1,.93-3.67c1.07-2.57,1-.65,1.07,0a16.9,16.9,0,0,0,.41,2.33,17.75,17.75,0,0,0,2.57,5.87c1.55,2.08,2.19,2.2,2.19,2.2a6.11,6.11,0,0,0,1.9-2.42,29.88,29.88,0,0,0,2.14-7.23c.4-2.39.32-10.11.51-12.75.09-1.14,3.17,3.49,4.18,6.45a16.79,16.79,0,0,1,1,7.78c-.29,2-.52,2.7.33,3,.17,0,1.38-.56,2.19-2.47s1.74-4.05,2.06-2.51a26.83,26.83,0,0,1,.93,6.15c.09,1.7-1.55,5.45-.48,5.9.25.1.64,0,1.37-.75s1.84-1.84,1.4,0a48.36,48.36,0,0,1-4,8.21c-2,3.26-6,6.93-7.85,8.76a48.82,48.82,0,0,1-4.66,4.16Z"/><rect class="cls-4" x="0.5" y="0.5" width="242.7" height="131.98"/><polyline points="73.95 27.13 242.79 27.13 242.79 0.67 73.95 0.67"/><path class="cls-5" d="M214,16.4V13.77h6.62V20a8.23,8.23,0,0,1-2.8,1.69,10,10,0,0,1-3.7.72,8.2,8.2,0,0,1-4.16-1,6.57,6.57,0,0,1-2.67-2.94,9.8,9.8,0,0,1-.89-4.16,9.1,9.1,0,0,1,1-4.33,6.74,6.74,0,0,1,2.91-2.9A7.69,7.69,0,0,1,214,6.27a7.1,7.1,0,0,1,4.42,1.22,5.49,5.49,0,0,1,2.05,3.37l-3,.58a3.31,3.31,0,0,0-1.22-1.81A3.52,3.52,0,0,0,214,9a4.12,4.12,0,0,0-3.2,1.31,5.62,5.62,0,0,0-1.18,3.89,6.2,6.2,0,0,0,1.2,4.16,4,4,0,0,0,3.15,1.39,5.17,5.17,0,0,0,1.94-.39,6.6,6.6,0,0,0,1.66-.94v-2m-25.9,5.74V6.53h3L200.84,17V6.53h2.86V22.14h-3.09L194.48,12V22.14Zm-6,0V6.53h3.07V22.14Zm-15.22,0V6.53h3L179.6,17V6.53h2.86V22.14h-3.09L173.25,12V22.14Zm-12.29-9h2.27a11.28,11.28,0,0,0,2.76-.19,1.65,1.65,0,0,0,.87-.66,2.12,2.12,0,0,0,.31-1.17,1.92,1.92,0,0,0-.41-1.27,1.87,1.87,0,0,0-1.16-.61c-.25,0-1-.05-2.24-.05h-2.4Zm-3.07,9V6.53h6.47A10.77,10.77,0,0,1,165,7a3.55,3.55,0,0,1,1.77,1.49,4.6,4.6,0,0,1,.66,2.46,4.23,4.23,0,0,1-1,2.9,4.79,4.79,0,0,1-3,1.44,7.27,7.27,0,0,1,1.65,1.31,18.24,18.24,0,0,1,1.74,2.53l1.86,3.05H165l-2.22-3.4a21.77,21.77,0,0,0-1.62-2.29,2.3,2.3,0,0,0-.92-.65,4.86,4.86,0,0,0-1.55-.18h-.62v6.52ZM147.74,16l-2.09-5.78L143.59,16Zm5.66,6.18h-3.35l-1.32-3.55h-6.08l-1.26,3.55h-3.25l5.92-15.61h3.25Zm-30.43,0L119.34,6.53h3.14l2.29,10.72,2.78-10.72h3.65l2.67,10.9,2.33-10.9h3.09L135.6,22.14h-3.26l-3-11.67-3,11.67Zm-15-6.57a.57.57,0,0,1-.52.53h-.07a.51.51,0,0,1-.51-.53c-1.69-5.49-2.5-9.34.51-9.34S109.59,10.08,108,15.57Zm-.59,5.95a1.66,1.66,0,0,1,0-3.31h.07a1.66,1.66,0,0,1-.07,3.31ZM108.64,4.8a1.27,1.27,0,0,0-1.25-.9,1.17,1.17,0,0,0-1.18.9L97.85,19.57c-1.1,1.88-.15,2.63,1,2.71H116c1.17-.08,2-.83,1-2.71Z"/><text class="cls-6" transform="translate(93.07 37.25)">Fire and Explosion Hazard</text><line class="cls-7" x1="74.01" y1="41.21" x2="243.11" y2="41.21"/><line class="cls-7" x1="73.37" y1="132.38" x2="73.37" y2="0.56"/><text class="cls-8" transform="translate(84.94 105.31)"><tspan class="cls-9">T</tspan><tspan class="cls-10" x="4.88" y="0">urn o</tspan><tspan class="cls-11" x="24.25" y="0">f</tspan><tspan x="26.46" y="0">f gas lines during installation.</tspan></text><text class="cls-8" transform="translate(84.94 117.64)">Contact a qualified installer or service<tspan x="0" y="10.2">agency for installation and service.</tspan></text></g><g id="text"><path d="M81.16,48.53a1.76,1.76,0,1,1-1.76-1.76A1.75,1.75,0,0,1,81.16,48.53Z"/><path d="M81.16,79.64a1.76,1.76,0,1,1-1.76-1.76A1.76,1.76,0,0,1,81.16,79.64Z"/><path d="M81.16,102.64a1.76,1.76,0,1,1-1.76-1.76A1.75,1.75,0,0,1,81.16,102.64Z"/><path d="M81.16,115a1.76,1.76,0,1,1-1.76-1.76A1.75,1.75,0,0,1,81.16,115Z"/><text class="cls-8" transform="translate(84.94 83.24)">Excessive gas pressure to gas valve can<tspan x="0" y="10.2">cause serious injury or death.</tspan></text><text class="cls-8" transform="translate(84.94 51.35)">Do not use water heater with any gas<tspan x="0" y="10.2">other than the gas shown on the rating</tspan><tspan x="0" y="20.4">label. </tspan></text></g></svg>