<?xml version="1.0" encoding="utf-8"?>
<!-- Generator: Adobe Illustrator 23.0.3, SVG Export Plug-In . SVG Version: 6.00 Build 0)  -->
<svg version="1.1" xmlns="http://www.w3.org/2000/svg" xmlns:xlink="http://www.w3.org/1999/xlink" x="0px" y="0px"
	 viewBox="0 0 239.27 148.59" style="enable-background:new 0 0 239.27 148.59;" xml:space="preserve">
<style type="text/css">
	.Arched_x0020_Green{fill:url(#SVGID_1_);stroke:#FFFFFF;stroke-width:0.25;stroke-miterlimit:1;}
	.st0{stroke:#000000;stroke-width:0.5;}
	.st1{fill:#FFFFFF;stroke:#FFFFFF;stroke-width:0.5;}
	.st2{fill:none;stroke:#000000;stroke-width:0.25;}
	.st3{fill:none;stroke:#000000;stroke-width:0.5;}
	.st4{fill:#FFFFFF;stroke:#000000;stroke-width:0.25;}
	.st5{fill:#FFFFFF;}
	.st6{fill:#FFFFFF;stroke:#FFFFFF;stroke-width:0.25;}
	.st7{fill:none;stroke:#000000;}
	.st8{stroke:#000000;}
	.st9{font-family:'Arial-BoldMT';}
	.st10{font-size:11px;}
	.st11{font-family:'ArialMT';}
	.st12{font-size:8px;}
	.st13{font-size:8.5px;}
</style>
<linearGradient id="SVGID_1_" gradientUnits="userSpaceOnUse" x1="-186.7979" y1="482.5635" x2="-186.0908" y2="481.8564">
	<stop  offset="0" style="stop-color:#20AC4B"/>
	<stop  offset="0.9831" style="stop-color:#19361A"/>
</linearGradient>
<g id="Layer_1">
	<g>
		<path class="st0" d="M0.48,84.65c12.2-5.97,15.28-7.24,23.89-9.61c4.54-1.25,14.15-1.14,17.93,0.32c3.19,1.23,8.13,3.55,8.13,3.55
			l17.2,7.82c0,0,0.05,13.7-0.3,13.34c-0.36-0.36-20.06-9.56-20.06-9.56v31.74l-29.33,0.04l-0.05-31.54L0.68,98.02L0.48,84.65z"/>
		<path class="st0" d="M22.66,60.44c0,0-1.55-0.01-1.39-0.93c0.2-1.12,6.92-8.5,6.92-8.5s1.77-2.14,4.77-2.23
			c4.9-0.16,7.69,1.63,9.79,4.05c0.88,1.02,2.42,3.49,1.82,5.83c-0.37,1.44-1.91,4.56-3.31,7.87c-1.16,2.73-2.33,6.11-4.24,6.65
			c-2.61,0.74-7.98-2.41-13.44-4.96c-2.46-1.15-1.82-3.43-1.28-4.84c0.53-1.41,1.79-2.62,0.32-2.95H22.66z"/>
		<path class="st1" d="M29.55,56.45c-0.15,0.69-0.68,1.16-1.17,1.05c-0.49-0.11-0.77-0.76-0.62-1.45c0.15-0.69,0.68-1.16,1.17-1.05
			C29.43,55.11,29.7,55.76,29.55,56.45z"/>
		<path class="st2" d="M16.42,44.27c0.41,0.82-0.08,1,0.41,0.82c0.48-0.19,0.48,0.11,0.52-0.3c0.04-0.41,0.63-0.26,0.04-0.56
			C16.79,43.94,16.42,44.27,16.42,44.27z"/>
		<path class="st2" d="M13.04,44.27c0.22,1.04-0.3,0.71,0.19,0.52c0.48-0.18,0.48,0.11,0.52-0.3c0.04-0.41,0.63-0.26,0.04-0.56
			C13.19,43.64,13.04,44.27,13.04,44.27z"/>
		<path class="st2" d="M14.46,48.45c-1.01-0.33-0.46-0.62-0.54-0.1c-0.08,0.51-0.34,0.36-0.01,0.6c0.33,0.24-0.1,0.68,0.46,0.31
			C14.93,48.9,14.46,48.45,14.46,48.45z"/>
		<path class="st2" d="M8.81,47.83c-1.01-0.34-0.2-0.49-0.54-0.1c-0.43,0.49-0.51,0.36-0.17,0.6c0.33,0.24,0.04,0.47,0.59,0.11
			C9.25,48.07,8.81,47.83,8.81,47.83z"/>
		<path class="st2" d="M20.77,49.39c-0.34,1.01-0.49,0.2-0.11,0.54c0.49,0.44,0.36,0.51,0.6,0.18c0.24-0.33,0.48-0.04,0.11-0.59
			C21.02,48.95,20.77,49.39,20.77,49.39z"/>
		<path class="st2" d="M16.25,51.39c0.37,0.82-0.07,1.01,0.37,0.82c0.44-0.19,0.44,0.11,0.47-0.3c0.03-0.41,0.58-0.26,0.03-0.56
			C16.58,51.06,16.25,51.39,16.25,51.39z"/>
		<path class="st2" d="M11.18,54.02c0.41,0.82-0.07,1,0.41,0.82c0.48-0.18,0.48,0.11,0.52-0.3c0.04-0.41,0.63-0.26,0.04-0.56
			C11.55,53.68,11.18,54.02,11.18,54.02z"/>
		<path class="st2" d="M6.91,53.19c0.88-0.26,0.98,0.25,0.88-0.26c-0.1-0.51,0.19-0.46-0.2-0.56c-0.4-0.11-0.15-0.67-0.54-0.13
			C6.65,52.77,6.91,53.19,6.91,53.19z"/>
		<path class="st2" d="M5.33,49.72c-0.85,0.34-0.99-0.16-0.85,0.34c0.15,0.5-0.15,0.47,0.25,0.54c0.4,0.07,0.21,0.65,0.55,0.08
			C5.63,50.12,5.33,49.72,5.33,49.72z"/>
		<path class="st2" d="M6.43,54.37c0.41,0.82-0.07,1,0.41,0.82c0.48-0.19,0.48,0.11,0.52-0.3c0.04-0.41,0.63-0.26,0.04-0.56
			C6.8,54.04,6.43,54.37,6.43,54.37z"/>
		<path class="st2" d="M5.78,57.33c-0.58,0.71-0.95,0.34-0.58,0.71c0.37,0.36,0.1,0.49,0.49,0.35c0.39-0.13,0.5,0.47,0.52-0.19
			C6.24,57.54,5.78,57.33,5.78,57.33z"/>
		<path class="st2" d="M9.55,60.69c0.41,0.82-0.07,1,0.41,0.82c0.48-0.19,0.48,0.11,0.52-0.3c0.04-0.41,0.63-0.26,0.04-0.56
			C9.92,60.36,9.55,60.69,9.55,60.69z"/>
		<path class="st2" d="M9.74,64.74c-0.63,0.66-0.97,0.27-0.63,0.66c0.34,0.39,0.06,0.49,0.45,0.39c0.4-0.1,0.46,0.51,0.54-0.15
			C10.18,64.98,9.74,64.74,9.74,64.74z"/>
		<path class="st2" d="M11.37,68.18c0.33,0.67-0.06,0.83,0.33,0.67c0.4-0.15,0.4,0.09,0.43-0.25c0.03-0.34,0.52-0.21,0.03-0.46
			C11.68,67.9,11.37,68.18,11.37,68.18z"/>
		<path class="st2" d="M11.57,70.27c0.34,0.67-0.06,0.83,0.34,0.67c0.4-0.15,0.4,0.09,0.43-0.24c0.03-0.34,0.52-0.21,0.03-0.46
			C11.87,70,11.57,70.27,11.57,70.27z"/>
		<path class="st2" d="M11.86,50.8c-1.01-0.33-0.2-0.49-0.54-0.1c-0.44,0.49-0.51,0.36-0.17,0.6c0.33,0.24,0.04,0.47,0.6,0.11
			C12.29,51.04,11.86,50.8,11.86,50.8z"/>
		<path class="st2" d="M14.76,57.01c-1.01-0.33-0.2-0.49-0.54-0.1c-0.43,0.49-0.51,0.36-0.17,0.6c0.33,0.24,0.04,0.48,0.6,0.11
			C15.2,57.25,14.76,57.01,14.76,57.01z"/>
		<path class="st2" d="M12.31,56.86c-1.01-0.33-0.2-0.49-0.54-0.1c-0.43,0.49-0.51,0.36-0.17,0.6c0.33,0.24,0.04,0.47,0.59,0.11
			C12.74,57.11,12.31,56.86,12.31,56.86z"/>
		<path class="st2" d="M21.49,53.62c-1.01-0.33-0.2-0.49-0.54-0.1c-0.43,0.49-0.51,0.36-0.17,0.6c0.33,0.24,0.04,0.47,0.6,0.11
			C21.93,53.87,21.49,53.62,21.49,53.62z"/>
		<path class="st2" d="M12.31,45.96c-1.01-0.33-0.2-0.49-0.54-0.1c-0.43,0.49-0.51,0.36-0.17,0.6c0.33,0.24,0.04,0.47,0.59,0.11
			C12.74,46.21,12.31,45.96,12.31,45.96z"/>
		<path class="st2" d="M8.03,57.53c-1.01-0.33-0.2-0.49-0.54-0.1c-0.43,0.49-0.51,0.36-0.17,0.6c0.33,0.24,0.04,0.47,0.59,0.11
			C8.46,57.77,8.03,57.53,8.03,57.53z"/>
		<path class="st3" d="M14.69,52.92c-1.01-0.33-0.2-0.49-0.54-0.1c-0.43,0.49-0.51,0.36-0.17,0.6c0.33,0.24,0.04,0.47,0.59,0.11
			C15.12,53.17,14.69,52.92,14.69,52.92z"/>
		<path class="st2" d="M3.64,52.92c-1.01-0.33-0.2-0.49-0.54-0.1c-0.43,0.49-0.51,0.36-0.18,0.6c0.34,0.24,0.04,0.47,0.6,0.11
			C4.08,53.17,3.64,52.92,3.64,52.92z"/>
		<path class="st2" d="M5.56,52.26c-0.55,0.22-0.64-0.1-0.55,0.22c0.09,0.32-0.1,0.3,0.16,0.35c0.26,0.05,0.13,0.42,0.36,0.05
			C5.75,52.51,5.56,52.26,5.56,52.26z"/>
		<path class="st2" d="M11.92,48.25c-0.55,0.22-0.64-0.1-0.55,0.22c0.09,0.32-0.1,0.3,0.16,0.35c0.26,0.05,0.13,0.42,0.36,0.05
			C12.11,48.51,11.92,48.25,11.92,48.25z"/>
		<path class="st3" d="M10.23,58.18c-1.01-0.33-0.2-0.49-0.54-0.1c-0.44,0.49-0.51,0.36-0.17,0.6c0.33,0.24,0.04,0.47,0.6,0.11
			C10.67,58.42,10.23,58.18,10.23,58.18z"/>
		<path class="st3" d="M3.24,56.8c-1.01-0.34-0.2-0.49-0.54-0.1c-0.43,0.49-0.51,0.36-0.17,0.6c0.33,0.24,0.04,0.47,0.6,0.11
			C3.68,57.05,3.24,56.8,3.24,56.8z"/>
		<path class="st2" d="M15.07,46.5c-1.01-0.34-0.2-0.49-0.54-0.1c-0.44,0.49-0.51,0.36-0.17,0.6c0.33,0.24,0.04,0.47,0.6,0.11
			C15.5,46.74,15.07,46.5,15.07,46.5z"/>
		<path class="st2" d="M9.27,51.19c-1.01-0.34-0.2-0.49-0.54-0.1c-0.43,0.49-0.51,0.36-0.17,0.6c0.33,0.24,0.04,0.47,0.59,0.11
			C9.7,51.43,9.27,51.19,9.27,51.19z"/>
		<path class="st2" d="M17.45,53.42c-0.07-1.06,0.38-0.37-0.11-0.54c-0.62-0.22-0.52-0.34-0.62,0.06c-0.1,0.4-0.43,0.21,0.12,0.59
			C17.39,53.92,17.45,53.42,17.45,53.42z"/>
		<path class="st2" d="M15.64,55.99c0.3-1.02,0.48-0.22,0.08-0.55c-0.5-0.42-0.38-0.49-0.61-0.15c-0.23,0.34-0.47,0.05-0.09,0.6
			C15.41,56.44,15.64,55.99,15.64,55.99z"/>
		<path class="st2" d="M17.41,61.43c0.3-1.02,0.48-0.22,0.08-0.55c-0.5-0.42-0.38-0.49-0.6-0.15c-0.23,0.34-0.47,0.05-0.09,0.6
			C17.18,61.87,17.41,61.43,17.41,61.43z"/>
		<path class="st2" d="M12.87,63.44c0.3-1.02,0.48-0.22,0.08-0.55c-0.5-0.42-0.38-0.49-0.61-0.15c-0.23,0.34-0.47,0.06-0.09,0.6
			C12.64,63.88,12.87,63.44,12.87,63.44z"/>
		<path class="st3" d="M7.03,63.55c0.3-1.02,0.48-0.22,0.08-0.55c-0.5-0.42-0.38-0.5-0.61-0.15c-0.23,0.34-0.47,0.06-0.09,0.6
			C6.8,64,7.03,63.55,7.03,63.55z"/>
		<path class="st2" d="M2.74,62.61c0.3-1.02,0.48-0.22,0.08-0.55c-0.5-0.42-0.38-0.5-0.61-0.15c-0.23,0.34-0.47,0.06-0.09,0.6
			C2.51,63.05,2.74,62.61,2.74,62.61z"/>
		<path class="st2" d="M3.03,64.63c-0.58,0.71-0.95,0.34-0.58,0.71c0.37,0.37,0.1,0.49,0.48,0.35c0.39-0.13,0.5,0.47,0.52-0.2
			C3.49,64.84,3.03,64.63,3.03,64.63z"/>
		<path class="st3" d="M9.91,66.79c-0.58,0.71-0.95,0.34-0.58,0.71c0.37,0.37,0.1,0.49,0.49,0.35c0.39-0.13,0.5,0.47,0.52-0.2
			C10.37,66.99,9.91,66.79,9.91,66.79z"/>
		<path class="st2" d="M21.52,55.22c-0.58,0.71-0.95,0.35-0.58,0.71c0.37,0.37,0.1,0.49,0.49,0.35c0.39-0.13,0.5,0.47,0.52-0.2
			C21.98,55.42,21.52,55.22,21.52,55.22z"/>
		<path class="st2" d="M12.72,66.46c0.3-1.02,0.48-0.22,0.08-0.54c-0.5-0.42-0.38-0.5-0.61-0.15c-0.23,0.34-0.47,0.05-0.09,0.6
			C12.49,66.9,12.72,66.46,12.72,66.46z"/>
		<path class="st2" d="M14.54,64.4c0.34,0.67-0.06,0.82,0.34,0.67c0.4-0.15,0.4,0.09,0.43-0.25c0.03-0.34,0.52-0.22,0.03-0.46
			C14.85,64.12,14.54,64.4,14.54,64.4z"/>
		<path class="st2" d="M6.7,64.95c0.33,0.67-0.06,0.83,0.33,0.67c0.4-0.15,0.4,0.09,0.43-0.25c0.03-0.34,0.52-0.21,0.03-0.46
			C7,64.68,6.7,64.95,6.7,64.95z"/>
		<path class="st2" d="M4.99,67.37c0.33,0.67-0.06,0.82,0.33,0.67c0.4-0.15,0.4,0.09,0.43-0.25c0.03-0.34,0.52-0.21,0.03-0.46
			C5.29,67.09,4.99,67.37,4.99,67.37z"/>
		<path class="st2" d="M8.03,68.43c0.3-1.02,0.48-0.22,0.08-0.55c-0.5-0.42-0.38-0.5-0.6-0.15c-0.23,0.34-0.47,0.06-0.09,0.6
			C7.8,68.88,8.03,68.43,8.03,68.43z"/>
		<path class="st3" d="M5.32,65.75c0.3-1.02,0.48-0.22,0.08-0.55c-0.5-0.42-0.38-0.49-0.61-0.15c-0.23,0.35-0.47,0.06-0.09,0.6
			C5.09,66.2,5.32,65.75,5.32,65.75z"/>
		<path class="st2" d="M6.14,60.88c0.3-1.02,0.48-0.22,0.08-0.55c-0.51-0.42-0.38-0.5-0.61-0.15c-0.23,0.34-0.47,0.05-0.09,0.6
			C5.9,61.32,6.14,60.88,6.14,60.88z"/>
		<path class="st2" d="M4.55,62.6c0.33,0.67-0.06,0.82,0.33,0.67c0.4-0.15,0.4,0.09,0.43-0.24c0.03-0.34,0.52-0.21,0.03-0.46
			C4.85,62.33,4.55,62.6,4.55,62.6z"/>
		<path class="st2" d="M18.27,54.88c0.28,0.7-0.13,0.82,0.28,0.7c0.41-0.12,0.39,0.13,0.45-0.21c0.06-0.33,0.53-0.17,0.07-0.45
			C18.59,54.63,18.27,54.88,18.27,54.88z"/>
		<path class="st2" d="M17.75,67.48c0.33,0.67-0.06,0.82,0.33,0.67c0.4-0.15,0.4,0.09,0.43-0.25c0.03-0.33,0.52-0.21,0.03-0.46
			C18.05,67.2,17.75,67.48,17.75,67.48z"/>
		<path class="st3" d="M15.36,67.2c0.3-1.02,0.48-0.22,0.08-0.55c-0.5-0.42-0.38-0.49-0.61-0.15c-0.23,0.34-0.47,0.05-0.09,0.6
			C15.13,67.65,15.36,67.2,15.36,67.2z"/>
		<path class="st3" d="M20.31,66.12c0.3-1.02,0.48-0.22,0.08-0.55c-0.5-0.42-0.38-0.49-0.61-0.15c-0.23,0.34-0.47,0.05-0.09,0.6
			C20.07,66.57,20.31,66.12,20.31,66.12z"/>
		<path class="st2" d="M16.39,69.97c0.33,0.67-0.06,0.82,0.33,0.67c0.4-0.15,0.4,0.09,0.43-0.24c0.03-0.34,0.52-0.21,0.03-0.46
			C16.69,69.69,16.39,69.97,16.39,69.97z"/>
		<path class="st2" d="M3.32,59.52c0.33,0.67-0.06,0.82,0.33,0.67c0.4-0.15,0.4,0.09,0.43-0.24c0.03-0.34,0.52-0.21,0.03-0.46
			C3.62,59.24,3.32,59.52,3.32,59.52z"/>
		<path class="st2" d="M8.09,60.28c-0.55,0.22-0.64-0.1-0.55,0.22c0.09,0.32-0.1,0.3,0.16,0.35c0.26,0.05,0.13,0.42,0.36,0.05
			C8.28,60.54,8.09,60.28,8.09,60.28z"/>
		<path class="st2" d="M19.69,63.37c-0.55,0.22-0.64-0.1-0.55,0.22c0.09,0.32-0.1,0.3,0.16,0.35c0.26,0.05,0.13,0.42,0.36,0.05
			C19.89,63.63,19.69,63.37,19.69,63.37z"/>
		<path class="st2" d="M17.49,65.33c-0.55,0.22-0.64-0.1-0.55,0.22c0.09,0.32-0.1,0.3,0.16,0.35c0.26,0.04,0.13,0.42,0.36,0.05
			C17.69,65.59,17.49,65.33,17.49,65.33z"/>
		<path class="st2" d="M14.78,68.54c-0.55,0.22-0.64-0.1-0.55,0.22c0.09,0.32-0.1,0.3,0.16,0.35c0.26,0.05,0.13,0.42,0.36,0.05
			C14.98,68.8,14.78,68.54,14.78,68.54z"/>
		<path class="st2" d="M16.4,62.21c-0.9,0.19-0.95-0.33-0.9,0.19c0.06,0.52-0.23,0.44,0.15,0.58c0.39,0.14,0.09,0.68,0.53,0.18
			C16.62,62.65,16.4,62.21,16.4,62.21z"/>
		<path class="st3" d="M6.18,48.7c0.83-0.39,1,0.09,0.83-0.39c-0.18-0.49,0.12-0.48-0.29-0.53c-0.41-0.04-0.25-0.64-0.56-0.05
			C5.85,48.32,6.18,48.7,6.18,48.7z"/>
		<path class="st2" d="M7.69,50.21c-1.01-0.33-0.2-0.49-0.54-0.1c-0.43,0.49-0.51,0.36-0.17,0.6c0.33,0.24,0.04,0.47,0.6,0.11
			C8.13,50.45,7.69,50.21,7.69,50.21z"/>
		<path class="st2" d="M14.97,50.67c-1.01-0.33-0.2-0.49-0.54-0.1c-0.44,0.49-0.51,0.36-0.17,0.6c0.33,0.24,0.04,0.48,0.6,0.11
			C15.41,50.92,14.97,50.67,14.97,50.67z"/>
		<path class="st3" d="M9.38,45.96c-0.56,0.91-0.52,0.08-0.23,0.5C9.53,47,9.38,47.04,9.7,46.77c0.31-0.27,0.47,0.07,0.25-0.55
			C9.72,45.59,9.38,45.96,9.38,45.96z"/>
		<path class="st2" d="M10.98,43.63c-1.01-0.33-0.2-0.49-0.54-0.1c-0.44,0.49-0.51,0.36-0.17,0.6c0.33,0.24,0.04,0.47,0.6,0.11
			C11.41,43.87,10.98,43.63,10.98,43.63z"/>
		<path class="st2" d="M3.36,47.87c-0.5,0.94-0.52,0.12-0.19,0.52c0.41,0.51,0.27,0.56,0.56,0.27c0.29-0.29,0.47,0.04,0.21-0.57
			C3.68,47.48,3.36,47.87,3.36,47.87z"/>
		<path class="st2" d="M4.63,45.76c-0.94,0.5-0.49-0.19-0.45,0.32c0.06,0.65-0.09,0.62,0.31,0.54c0.4-0.08,0.37,0.3,0.49-0.35
			C5.11,45.62,4.63,45.76,4.63,45.76z"/>
		<path class="st2" d="M5.25,55.56c-1.01-0.33-0.2-0.49-0.54-0.1c-0.43,0.49-0.51,0.36-0.17,0.6c0.33,0.24,0.04,0.47,0.59,0.11
			C5.68,55.81,5.25,55.56,5.25,55.56z"/>
		<path class="st3" d="M3.34,50.43c-0.9-0.56-0.08-0.52-0.5-0.23c-0.54,0.37-0.58,0.23-0.31,0.54c0.27,0.31-0.08,0.47,0.55,0.25
			C3.7,50.77,3.34,50.43,3.34,50.43z"/>
		<path class="st2" d="M2.14,55.72c0.99-0.39,0.47,0.25,0.48-0.27c0.02-0.65,0.16-0.6-0.25-0.57c-0.41,0.03-0.33-0.34-0.53,0.3
			C1.65,55.81,2.14,55.72,2.14,55.72z"/>
		<path class="st2" d="M10.63,63.31c-0.09-0.9,0.39-0.93-0.09-0.9c-0.48,0.04-0.38-0.25-0.54,0.13c-0.16,0.38-0.63,0.06-0.21,0.52
			C10.21,63.52,10.63,63.31,10.63,63.31z"/>
		<path class="st2" d="M9.4,54.85C8.48,54.9,8.5,54.38,8.48,54.9c-0.02,0.52-0.29,0.4,0.07,0.6c0.36,0.19-0.01,0.68,0.5,0.25
			C9.56,55.32,9.4,54.85,9.4,54.85z"/>
		<path class="st3" d="M10.37,52.81c-0.91,0.06-0.9-0.46-0.91,0.06c-0.02,0.52-0.29,0.4,0.07,0.6c0.36,0.2-0.01,0.68,0.5,0.25
			C10.53,53.29,10.37,52.81,10.37,52.81z"/>
		<path class="st2" d="M8.68,44.51c-0.55,0.22-0.64-0.1-0.55,0.22c0.09,0.32-0.1,0.31,0.16,0.35c0.26,0.05,0.13,0.42,0.36,0.05
			C8.88,44.77,8.68,44.51,8.68,44.51z"/>
		<path class="st2" d="M12.4,59.65c-0.68-0.82,0.1-0.52-0.4-0.38c-0.63,0.18-0.62,0.03-0.47,0.41c0.15,0.38-0.22,0.42,0.44,0.41
			C12.64,60.09,12.4,59.65,12.4,59.65z"/>
		<path class="st3" d="M14.58,59.7c-0.91,0.05-0.89-0.46-0.91,0.05c-0.02,0.52-0.29,0.4,0.07,0.6c0.36,0.19-0.01,0.68,0.5,0.25
			C14.74,60.17,14.58,59.7,14.58,59.7z"/>
		<path class="st2" d="M16.68,58.32c-0.55,0.22-0.64-0.1-0.55,0.22c0.09,0.32-0.1,0.3,0.16,0.35c0.26,0.04,0.13,0.42,0.36,0.05
			C16.88,58.57,16.68,58.32,16.68,58.32z"/>
		<path class="st2" d="M17.81,57.44c-0.07-1.06,0.38-0.37-0.11-0.54c-0.62-0.22-0.52-0.34-0.62,0.06c-0.1,0.4-0.43,0.21,0.12,0.59
			C17.74,57.94,17.81,57.44,17.81,57.44z"/>
		<path class="st3" d="M18.55,58.44c1.04-0.21,0.41,0.33,0.52-0.18c0.14-0.64,0.26-0.56-0.14-0.61c-0.41-0.04-0.27-0.39-0.57,0.2
			C18.04,58.44,18.55,58.44,18.55,58.44z"/>
		<path class="st2" d="M19.61,58.59c0.28,0.7-0.13,0.82,0.28,0.7c0.41-0.12,0.39,0.12,0.45-0.21c0.06-0.33,0.53-0.17,0.07-0.45
			C19.94,58.34,19.61,58.59,19.61,58.59z"/>
		<path class="st2" d="M18.8,60.76c0.28,0.7-0.13,0.82,0.28,0.7c0.41-0.12,0.39,0.12,0.44-0.21c0.06-0.33,0.53-0.17,0.07-0.45
			C19.13,60.51,18.8,60.76,18.8,60.76z"/>
		<path class="st2" d="M21.68,62.17c-0.68-0.82,0.09-0.52-0.4-0.38c-0.63,0.18-0.62,0.03-0.47,0.41c0.15,0.38-0.22,0.42,0.44,0.41
			C21.92,62.61,21.68,62.17,21.68,62.17z"/>
		<path class="st2" d="M21.13,67.64c-0.55,0.22-0.64-0.1-0.55,0.22c0.09,0.32-0.1,0.31,0.16,0.35c0.26,0.05,0.13,0.42,0.35,0.05
			C21.32,67.89,21.13,67.64,21.13,67.64z"/>
		<path class="st2" d="M24.23,49.44c-0.55,0.22-0.64-0.1-0.55,0.22c0.09,0.32-0.1,0.3,0.16,0.35c0.26,0.05,0.13,0.42,0.36,0.05
			C24.43,49.69,24.23,49.44,24.23,49.44z"/>
		<path class="st2" d="M23.42,51.65c-0.55,0.22-0.64-0.1-0.55,0.22c0.09,0.32-0.1,0.3,0.16,0.35c0.26,0.04,0.13,0.42,0.35,0.05
			C23.61,51.9,23.42,51.65,23.42,51.65z"/>
		<path class="st3" d="M25.5,51.34c-1.01-0.33-0.2-0.49-0.54-0.1c-0.43,0.49-0.51,0.36-0.17,0.6c0.33,0.24,0.04,0.47,0.59,0.11
			C25.94,51.59,25.5,51.34,25.5,51.34z"/>
		<path class="st2" d="M23.96,53.83c-1.01-0.34-0.2-0.49-0.54-0.1c-0.43,0.49-0.51,0.36-0.17,0.6c0.33,0.24,0.04,0.47,0.59,0.11
			C24.4,54.08,23.96,53.83,23.96,53.83z"/>
		<path class="st2" d="M22.32,46.14c-1.01-0.33-0.2-0.49-0.54-0.1c-0.43,0.49-0.51,0.36-0.17,0.6c0.33,0.24,0.04,0.47,0.6,0.11
			C22.76,46.39,22.32,46.14,22.32,46.14z"/>
		<path class="st2" d="M22.85,48.13c-0.55,0.22-0.64-0.1-0.55,0.22c0.09,0.32-0.1,0.3,0.16,0.35c0.26,0.05,0.13,0.42,0.35,0.05
			C23.05,48.39,22.85,48.13,22.85,48.13z"/>
		<path class="st2" d="M20.49,44.22c-1.01-0.34-0.46-0.61-0.54-0.1c-0.08,0.51-0.34,0.36-0.01,0.6c0.33,0.24-0.09,0.68,0.46,0.31
			C20.96,44.67,20.49,44.22,20.49,44.22z"/>
		<path class="st2" d="M19.35,52.03c-0.14-1.06,0.35-0.68-0.14-0.53c-0.5,0.15-0.47-0.15-0.54,0.26c-0.07,0.4-0.65,0.21-0.08,0.55
			C19.15,52.65,19.35,52.03,19.35,52.03z"/>
		<path class="st2" d="M17.51,48.32c-1.01-0.34-0.2-0.49-0.54-0.1c-0.43,0.49-0.51,0.36-0.17,0.6c0.33,0.24,0.04,0.47,0.59,0.11
			C17.94,48.57,17.51,48.32,17.51,48.32z"/>
		<path class="st2" d="M20.64,47.31c-1-0.35-0.45-0.62-0.54-0.11c-0.09,0.51-0.35,0.35-0.02,0.6c0.33,0.25-0.11,0.68,0.46,0.32
			C21.1,47.76,20.64,47.31,20.64,47.31z"/>
		<path class="st3" d="M19.15,49.13c-1.01-0.33-0.46-0.61-0.54-0.1c-0.08,0.51-0.34,0.36-0.01,0.6c0.33,0.24-0.1,0.68,0.46,0.31
			C19.62,49.58,19.15,49.13,19.15,49.13z"/>
		<path class="st2" d="M17.28,46.51c-1.01-0.34-0.46-0.61-0.54-0.1c-0.08,0.51-0.34,0.36-0.01,0.6c0.33,0.24-0.1,0.68,0.46,0.31
			C17.75,46.96,17.28,46.51,17.28,46.51z"/>
		<path class="st2" d="M19.67,45.69c-0.55,0.22-0.64-0.1-0.55,0.22c0.09,0.32-0.1,0.3,0.16,0.35c0.26,0.04,0.13,0.42,0.35,0.05
			C19.87,45.94,19.67,45.69,19.67,45.69z"/>
		<path class="st2" d="M52.79,46.13c0.41,0.82-0.07,1,0.41,0.82c0.48-0.19,0.48,0.11,0.52-0.3c0.04-0.41,0.63-0.26,0.04-0.56
			C53.16,45.8,52.79,46.13,52.79,46.13z"/>
		<path class="st3" d="M49.95,45.75c0.22,1.04-0.3,0.71,0.19,0.52c0.48-0.19,0.48,0.11,0.52-0.3c0.04-0.41,0.63-0.26,0.04-0.56
			C50.1,45.12,49.95,45.75,49.95,45.75z"/>
		<path class="st2" d="M52.85,49.42c-1.01-0.34-0.46-0.62-0.54-0.11c-0.08,0.51-0.34,0.36-0.01,0.6c0.33,0.24-0.1,0.68,0.46,0.32
			C53.32,49.87,52.85,49.42,52.85,49.42z"/>
		<path class="st2" d="M46.19,48.64c-1.01-0.33-0.2-0.49-0.54-0.1c-0.43,0.49-0.51,0.36-0.17,0.6c0.33,0.24,0.04,0.47,0.6,0.11
			C46.62,48.89,46.19,48.64,46.19,48.64z"/>
		<path class="st2" d="M58.18,49.89c-0.34,1.01-0.49,0.2-0.11,0.54c0.49,0.44,0.36,0.51,0.6,0.18c0.24-0.33,0.47-0.04,0.11-0.59
			C58.43,49.46,58.18,49.89,58.18,49.89z"/>
		<path class="st3" d="M56.44,52.64c0.37,0.82-0.07,1,0.37,0.82c0.44-0.19,0.44,0.11,0.47-0.3c0.03-0.41,0.58-0.26,0.03-0.56
			C56.78,52.3,56.44,52.64,56.44,52.64z"/>
		<path class="st2" d="M53.45,55.77c0.41,0.82-0.07,1,0.41,0.82c0.48-0.19,0.48,0.11,0.52-0.3c0.04-0.41,0.63-0.26,0.04-0.56
			C53.82,55.43,53.45,55.77,53.45,55.77z"/>
		<path class="st2" d="M48.05,53.38c0.88-0.26,0.98,0.25,0.88-0.26c-0.1-0.51,0.19-0.46-0.2-0.56c-0.4-0.11-0.15-0.67-0.54-0.13
			C47.78,52.96,48.05,53.38,48.05,53.38z"/>
		<path class="st2" d="M42.71,50.54c-0.85,0.34-1-0.16-0.85,0.34c0.14,0.5-0.15,0.47,0.25,0.54c0.4,0.07,0.21,0.65,0.55,0.08
			C43.01,50.94,42.71,50.54,42.71,50.54z"/>
		<path class="st2" d="M45.09,53.74c0.41,0.82-0.08,1,0.41,0.82c0.48-0.19,0.48,0.11,0.52-0.3c0.04-0.41,0.63-0.26,0.04-0.56
			C45.47,53.4,45.09,53.74,45.09,53.74z"/>
		<path class="st3" d="M45.89,59.13c-0.58,0.71-0.95,0.34-0.58,0.71c0.37,0.36,0.1,0.48,0.48,0.35c0.39-0.13,0.5,0.47,0.52-0.19
			C46.35,59.33,45.89,59.13,45.89,59.13z"/>
		<path class="st2" d="M48.53,62.13c0.41,0.82-0.07,1,0.41,0.82c0.48-0.19,0.48,0.11,0.52-0.3c0.04-0.41,0.63-0.26,0.04-0.56
			C48.9,61.8,48.53,62.13,48.53,62.13z"/>
		<path class="st2" d="M45.71,65.44c-0.63,0.66-0.97,0.27-0.63,0.66c0.34,0.39,0.06,0.49,0.46,0.39c0.4-0.1,0.46,0.51,0.54-0.15
			C46.15,65.68,45.71,65.44,45.71,65.44z"/>
		<path class="st3" d="M45.07,67.31c0.34,0.67-0.06,0.82,0.34,0.67c0.4-0.15,0.4,0.09,0.43-0.24c0.03-0.34,0.52-0.21,0.03-0.46
			C45.38,67.03,45.07,67.31,45.07,67.31z"/>
		<path class="st2" d="M50.24,69.01c0.34,0.67-0.06,0.83,0.34,0.67c0.4-0.15,0.4,0.09,0.43-0.25c0.03-0.34,0.52-0.22,0.03-0.46
			C50.54,68.74,50.24,69.01,50.24,69.01z"/>
		<path class="st3" d="M51.62,51.3c-1.01-0.33-0.2-0.49-0.54-0.1c-0.44,0.49-0.51,0.36-0.18,0.6c0.33,0.24,0.04,0.47,0.6,0.11
			C52.06,51.54,51.62,51.3,51.62,51.3z"/>
		<path class="st2" d="M53.15,57.55c-1.01-0.33-0.2-0.49-0.54-0.1c-0.43,0.49-0.51,0.36-0.17,0.6c0.33,0.24,0.04,0.47,0.6,0.11
			C53.59,57.79,53.15,57.55,53.15,57.55z"/>
		<path class="st2" d="M50.82,61.19c-1.01-0.33-0.2-0.49-0.54-0.1c-0.43,0.49-0.51,0.36-0.17,0.6c0.33,0.24,0.04,0.47,0.59,0.11
			C51.25,61.44,50.82,61.19,50.82,61.19z"/>
		<path class="st2" d="M63.37,54.64c-1.01-0.33-0.2-0.49-0.54-0.1c-0.43,0.49-0.51,0.36-0.17,0.6c0.33,0.24,0.04,0.47,0.59,0.11
			C63.81,54.88,63.37,54.64,63.37,54.64z"/>
		<path class="st2" d="M49.37,46.46c-1.01-0.33-0.2-0.49-0.54-0.1c-0.44,0.49-0.51,0.36-0.17,0.6c0.33,0.24,0.04,0.48,0.6,0.11
			C49.81,46.71,49.37,46.46,49.37,46.46z"/>
		<path class="st2" d="M47.71,57.76c-1.01-0.34-0.2-0.49-0.54-0.1c-0.44,0.49-0.51,0.36-0.17,0.6c0.33,0.24,0.04,0.47,0.6,0.11
			C48.15,58,47.71,57.76,47.71,57.76z"/>
		<path class="st2" d="M52.3,54.91c-1.01-0.33-0.2-0.49-0.54-0.1c-0.44,0.49-0.51,0.36-0.17,0.6c0.33,0.24,0.04,0.47,0.6,0.11
			C52.73,55.16,52.3,54.91,52.3,54.91z"/>
		<path class="st2" d="M48.29,48.53c-1.01-0.33-0.2-0.49-0.54-0.1c-0.43,0.49-0.51,0.36-0.17,0.6c0.33,0.24,0.04,0.47,0.59,0.11
			C48.73,48.78,48.29,48.53,48.29,48.53z"/>
		<path class="st2" d="M45.05,52.29c-0.55,0.22-0.64-0.1-0.55,0.22c0.09,0.32-0.1,0.3,0.16,0.35c0.26,0.05,0.13,0.42,0.36,0.05
			C45.24,52.54,45.05,52.29,45.05,52.29z"/>
		<path class="st2" d="M50.35,49.42c-0.55,0.22-0.64-0.1-0.55,0.22c0.09,0.32-0.1,0.31,0.16,0.35c0.26,0.05,0.13,0.42,0.36,0.05
			C50.55,49.68,50.35,49.42,50.35,49.42z"/>
		<path class="st3" d="M54.93,61.02c-1.01-0.33-0.2-0.49-0.54-0.1c-0.43,0.49-0.51,0.36-0.17,0.6c0.33,0.24,0.04,0.47,0.59,0.11
			C55.36,61.27,54.93,61.02,54.93,61.02z"/>
		<path class="st2" d="M49.03,50.69c-1.01-0.34-0.2-0.49-0.54-0.1c-0.43,0.49-0.51,0.36-0.17,0.6c0.33,0.24,0.04,0.47,0.59,0.11
			C49.46,50.94,49.03,50.69,49.03,50.69z"/>
		<path class="st2" d="M51.95,47.17c-1.01-0.34-0.2-0.49-0.54-0.1c-0.44,0.49-0.51,0.36-0.17,0.6c0.33,0.24,0.04,0.48,0.6,0.11
			C52.39,47.41,51.95,47.17,51.95,47.17z"/>
		<path class="st2" d="M46.96,50.79c-1.01-0.33-0.2-0.49-0.54-0.1c-0.43,0.49-0.51,0.36-0.17,0.6c0.33,0.24,0.04,0.47,0.6,0.11
			C47.39,51.03,46.96,50.79,46.96,50.79z"/>
		<path class="st2" d="M55.92,54.82c-0.07-1.06,0.38-0.37-0.11-0.54c-0.62-0.22-0.52-0.34-0.62,0.06c-0.1,0.4-0.43,0.21,0.12,0.59
			C55.86,55.32,55.92,54.82,55.92,54.82z"/>
		<path class="st2" d="M55.32,58.06c0.3-1.02,0.48-0.22,0.08-0.55c-0.5-0.42-0.38-0.49-0.61-0.15c-0.23,0.34-0.47,0.06-0.09,0.6
			C55.09,58.5,55.32,58.06,55.32,58.06z"/>
		<path class="st3" d="M59.56,67.45c0.3-1.02,0.48-0.22,0.08-0.55c-0.5-0.42-0.38-0.49-0.61-0.15c-0.23,0.34-0.47,0.05-0.09,0.6
			C59.33,67.89,59.56,67.45,59.56,67.45z"/>
		<path class="st2" d="M51.11,64.29c0.3-1.02,0.48-0.22,0.08-0.55c-0.5-0.42-0.38-0.5-0.61-0.15c-0.23,0.34-0.47,0.06-0.09,0.6
			C50.88,64.74,51.11,64.29,51.11,64.29z"/>
		<path class="st2" d="M44.68,63.82c0.3-1.02,0.48-0.22,0.08-0.55c-0.5-0.42-0.38-0.5-0.61-0.15c-0.23,0.34-0.47,0.05-0.09,0.6
			C44.45,64.26,44.68,63.82,44.68,63.82z"/>
		<path class="st2" d="M48.03,66.86c-0.58,0.71-0.95,0.34-0.58,0.71c0.37,0.36,0.1,0.49,0.49,0.35c0.39-0.13,0.5,0.47,0.52-0.2
			C48.49,67.06,48.03,66.86,48.03,66.86z"/>
		<path class="st2" d="M58.38,55.55c-0.58,0.71-0.95,0.34-0.58,0.71c0.37,0.36,0.1,0.49,0.48,0.35c0.39-0.13,0.5,0.47,0.52-0.2
			C58.83,55.75,58.38,55.55,58.38,55.55z"/>
		<path class="st2" d="M49.31,66.38c0.3-1.02,0.48-0.22,0.08-0.55c-0.5-0.42-0.38-0.49-0.61-0.15c-0.23,0.34-0.47,0.05-0.09,0.6
			C49.08,66.82,49.31,66.38,49.31,66.38z"/>
		<path class="st2" d="M51.22,65.72c0.33,0.67-0.06,0.82,0.33,0.67c0.4-0.15,0.4,0.09,0.43-0.24c0.03-0.34,0.52-0.21,0.03-0.46
			C51.52,65.44,51.22,65.72,51.22,65.72z"/>
		<path class="st2" d="M47.54,60.95c0.34,0.67-0.06,0.83,0.34,0.67c0.4-0.15,0.4,0.09,0.43-0.24c0.03-0.34,0.52-0.21,0.03-0.46
			C47.85,60.67,47.54,60.95,47.54,60.95z"/>
		<path class="st2" d="M45.84,63.96c0.33,0.67-0.06,0.83,0.33,0.67c0.4-0.15,0.4,0.09,0.43-0.24c0.03-0.34,0.52-0.21,0.03-0.46
			C46.15,63.68,45.84,63.96,45.84,63.96z"/>
		<path class="st2" d="M56.48,63.96c0.3-1.02,0.48-0.22,0.08-0.55c-0.5-0.42-0.38-0.49-0.61-0.15c-0.23,0.34-0.47,0.05-0.09,0.6
			C56.25,64.41,56.48,63.96,56.48,63.96z"/>
		<path class="st2" d="M43.32,66.88c0.3-1.02,0.48-0.22,0.08-0.55c-0.5-0.42-0.38-0.5-0.61-0.15c-0.23,0.34-0.47,0.05-0.09,0.6
			C43.09,67.32,43.32,66.88,43.32,66.88z"/>
		<path class="st2" d="M47.97,59.82c0.3-1.02,0.48-0.22,0.08-0.55c-0.5-0.42-0.38-0.49-0.61-0.15c-0.23,0.34-0.47,0.05-0.09,0.6
			C47.74,60.26,47.97,59.82,47.97,59.82z"/>
		<path class="st3" d="M62.41,58.59c0.28,0.7-0.13,0.82,0.28,0.7c0.41-0.12,0.39,0.13,0.44-0.21c0.06-0.33,0.53-0.17,0.07-0.45
			C62.74,58.34,62.41,58.59,62.41,58.59z"/>
		<path class="st2" d="M56.38,67.44c0.33,0.67-0.06,0.82,0.33,0.67c0.4-0.15,0.4,0.09,0.43-0.24c0.03-0.34,0.52-0.21,0.03-0.46
			C56.69,67.17,56.38,67.44,56.38,67.44z"/>
		<path class="st3" d="M51.99,68.37c0.3-1.02,0.48-0.22,0.08-0.55c-0.5-0.42-0.38-0.49-0.61-0.15c-0.23,0.34-0.47,0.05-0.09,0.6
			C51.76,68.81,51.99,68.37,51.99,68.37z"/>
		<path class="st2" d="M60.97,66.16c0.3-1.02,0.48-0.22,0.08-0.55c-0.5-0.42-0.38-0.49-0.61-0.15c-0.23,0.34-0.47,0.05-0.09,0.6
			C60.74,66.6,60.97,66.16,60.97,66.16z"/>
		<path class="st2" d="M54.62,69.49c0.34,0.67-0.06,0.83,0.34,0.67c0.4-0.15,0.4,0.09,0.43-0.25c0.03-0.33,0.52-0.21,0.03-0.46
			C54.93,69.22,54.62,69.49,54.62,69.49z"/>
		<path class="st3" d="M49.5,56.3c0.33,0.67-0.06,0.83,0.33,0.67c0.4-0.15,0.4,0.09,0.43-0.25c0.03-0.34,0.52-0.22,0.03-0.46
			C49.8,56.03,49.5,56.3,49.5,56.3z"/>
		<path class="st2" d="M45.82,61.21c-0.55,0.22-0.64-0.1-0.55,0.22c0.09,0.32-0.1,0.3,0.16,0.35c0.26,0.05,0.13,0.42,0.35,0.05
			C46.01,61.47,45.82,61.21,45.82,61.21z"/>
		<path class="st2" d="M57.3,65.51c-0.55,0.22-0.64-0.1-0.55,0.22c0.09,0.32-0.1,0.31,0.16,0.35c0.26,0.05,0.13,0.42,0.36,0.05
			C57.5,65.77,57.3,65.51,57.3,65.51z"/>
		<path class="st2" d="M54.63,66.54c-0.55,0.22-0.64-0.1-0.55,0.22c0.09,0.32-0.1,0.3,0.16,0.35c0.26,0.05,0.13,0.42,0.36,0.05
			C54.83,66.79,54.63,66.54,54.63,66.54z"/>
		<path class="st2" d="M59.05,64.07c-0.55,0.22-0.64-0.1-0.55,0.22c0.09,0.32-0.1,0.3,0.16,0.35c0.26,0.05,0.13,0.42,0.36,0.05
			C59.24,64.33,59.05,64.07,59.05,64.07z"/>
		<path class="st2" d="M54.63,64.54c-0.9,0.19-0.95-0.33-0.9,0.19c0.06,0.52-0.23,0.44,0.15,0.58c0.39,0.14,0.09,0.68,0.53,0.18
			C54.86,64.99,54.63,64.54,54.63,64.54z"/>
		<path class="st2" d="M43.56,49.51c0.82-0.39,1,0.09,0.82-0.39c-0.18-0.49,0.12-0.48-0.29-0.53c-0.41-0.05-0.25-0.64-0.56-0.05
			C43.23,49.14,43.56,49.51,43.56,49.51z"/>
		<path class="st3" d="M44.99,50.67c-1.01-0.33-0.2-0.49-0.54-0.1c-0.43,0.49-0.51,0.36-0.17,0.6c0.33,0.24,0.04,0.47,0.6,0.11
			C45.43,50.92,44.99,50.67,44.99,50.67z"/>
		<path class="st2" d="M54.85,52.38c-1.01-0.34-0.2-0.49-0.54-0.1c-0.43,0.49-0.51,0.36-0.17,0.6c0.33,0.24,0.04,0.47,0.59,0.11
			C55.29,52.63,54.85,52.38,54.85,52.38z"/>
		<path class="st2" d="M46.31,46.4c-0.56,0.91-0.52,0.08-0.23,0.5c0.37,0.54,0.23,0.58,0.54,0.31c0.31-0.27,0.47,0.07,0.25-0.55
			C46.65,46.03,46.31,46.4,46.31,46.4z"/>
		<path class="st2" d="M47.96,44.83c-1.01-0.33-0.2-0.49-0.54-0.1c-0.44,0.49-0.51,0.36-0.18,0.6c0.33,0.24,0.04,0.47,0.6,0.11
			C48.4,45.08,47.96,44.83,47.96,44.83z"/>
		<path class="st2" d="M39.96,48.33c-0.5,0.94-0.52,0.11-0.19,0.52c0.41,0.51,0.27,0.56,0.56,0.27c0.29-0.29,0.47,0.04,0.21-0.57
			C40.27,47.94,39.96,48.33,39.96,48.33z"/>
		<path class="st2" d="M42.4,46.81c-0.94,0.5-0.49-0.19-0.45,0.32c0.05,0.65-0.09,0.62,0.31,0.54c0.4-0.08,0.37,0.3,0.49-0.36
			C42.88,46.67,42.4,46.81,42.4,46.81z"/>
		<path class="st2" d="M50.97,57.92c-1.01-0.34-0.2-0.49-0.54-0.1c-0.43,0.49-0.51,0.36-0.17,0.6c0.33,0.24,0.04,0.47,0.59,0.11
			C51.41,58.17,50.97,57.92,50.97,57.92z"/>
		<path class="st2" d="M42.75,48.9c-0.9-0.56-0.08-0.52-0.5-0.23c-0.54,0.37-0.58,0.23-0.31,0.54c0.27,0.31-0.08,0.47,0.55,0.25
			C43.12,49.24,42.75,48.9,42.75,48.9z"/>
		<path class="st3" d="M48.52,64.32c-0.09-0.89,0.39-0.93-0.09-0.89c-0.47,0.03-0.38-0.25-0.54,0.13c-0.16,0.38-0.63,0.06-0.21,0.52
			C48.09,64.53,48.52,64.32,48.52,64.32z"/>
		<path class="st2" d="M46.54,56.48c-0.91,0.06-0.89-0.46-0.91,0.06c-0.02,0.52-0.29,0.4,0.07,0.6c0.36,0.19-0.01,0.68,0.5,0.25
			C46.7,56.95,46.54,56.48,46.54,56.48z"/>
		<path class="st2" d="M48.57,55.28c-0.91,0.06-0.89-0.46-0.91,0.06c-0.02,0.52-0.29,0.4,0.07,0.6c0.36,0.2-0.01,0.68,0.5,0.25
			C48.74,55.75,48.57,55.28,48.57,55.28z"/>
		<path class="st2" d="M44.93,45.29c-0.55,0.22-0.64-0.1-0.55,0.22c0.09,0.32-0.1,0.3,0.16,0.35c0.26,0.05,0.13,0.42,0.36,0.05
			C45.12,45.54,44.93,45.29,44.93,45.29z"/>
		<path class="st2" d="M53.26,62.26c-0.67-0.82,0.09-0.52-0.4-0.38c-0.63,0.18-0.62,0.03-0.47,0.41c0.15,0.38-0.22,0.42,0.44,0.41
			C53.49,62.71,53.26,62.26,53.26,62.26z"/>
		<path class="st2" d="M51.68,59.26c-0.91,0.06-0.89-0.46-0.91,0.06c-0.02,0.52-0.29,0.4,0.07,0.6c0.36,0.2-0.01,0.68,0.5,0.25
			C51.85,59.74,51.68,59.26,51.68,59.26z"/>
		<path class="st2" d="M60.67,59.91c-0.55,0.22-0.64-0.1-0.55,0.22c0.09,0.32-0.1,0.3,0.16,0.35c0.26,0.05,0.13,0.42,0.36,0.05
			C60.87,60.17,60.67,59.91,60.67,59.91z"/>
		<path class="st2" d="M58.79,59.43c-0.07-1.06,0.38-0.37-0.11-0.54c-0.62-0.22-0.52-0.34-0.62,0.06c-0.1,0.4-0.43,0.21,0.12,0.59
			C58.72,59.92,58.79,59.43,58.79,59.43z"/>
		<path class="st2" d="M56.16,59.72c1.04-0.21,0.42,0.33,0.52-0.18c0.14-0.64,0.26-0.57-0.15-0.61c-0.41-0.04-0.27-0.39-0.57,0.2
			C55.66,59.72,56.16,59.72,56.16,59.72z"/>
		<path class="st2" d="M62,61.28c0.28,0.7-0.13,0.82,0.28,0.7c0.41-0.12,0.39,0.12,0.44-0.21c0.06-0.33,0.53-0.17,0.07-0.45
			C62.33,61.03,62,61.28,62,61.28z"/>
		<path class="st2" d="M56.24,61.67c0.28,0.7-0.13,0.82,0.28,0.7c0.41-0.12,0.39,0.12,0.45-0.21c0.06-0.33,0.53-0.17,0.07-0.45
			C56.57,61.42,56.24,61.67,56.24,61.67z"/>
		<path class="st2" d="M60.55,63.02c-0.67-0.82,0.1-0.52-0.4-0.38c-0.63,0.18-0.62,0.03-0.47,0.41c0.15,0.38-0.22,0.42,0.44,0.41
			C60.78,63.46,60.55,63.02,60.55,63.02z"/>
		<path class="st2" d="M58.5,68.45c-0.55,0.22-0.64-0.1-0.55,0.22c0.09,0.32-0.1,0.3,0.16,0.35c0.26,0.05,0.13,0.42,0.36,0.05
			C58.7,68.71,58.5,68.45,58.5,68.45z"/>
		<path class="st3" d="M60.98,51.23c-0.55,0.22-0.64-0.1-0.55,0.22c0.09,0.32-0.1,0.3,0.16,0.35c0.26,0.04,0.13,0.42,0.35,0.05
			C61.18,51.48,60.98,51.23,60.98,51.23z"/>
		<path class="st2" d="M61.03,53.09c-0.55,0.22-0.64-0.1-0.55,0.22c0.09,0.32-0.1,0.3,0.16,0.35c0.26,0.05,0.13,0.42,0.36,0.05
			C61.22,53.34,61.03,53.09,61.03,53.09z"/>
		<path class="st2" d="M62.88,52.16c-1.01-0.34-0.2-0.49-0.54-0.1c-0.43,0.49-0.51,0.36-0.17,0.6c0.33,0.24,0.04,0.48,0.6,0.11
			C63.32,52.4,62.88,52.16,62.88,52.16z"/>
		<path class="st2" d="M61.61,55.86c-1.01-0.33-0.2-0.49-0.54-0.1c-0.44,0.49-0.51,0.36-0.17,0.6c0.33,0.24,0.04,0.47,0.59,0.11
			C62.05,56.11,61.61,55.86,61.61,55.86z"/>
		<path class="st2" d="M50.94,53.64c-1.01-0.33-0.2-0.49-0.54-0.1c-0.43,0.49-0.51,0.36-0.17,0.6c0.33,0.24,0.04,0.48,0.59,0.11
			C51.37,53.89,50.94,53.64,50.94,53.64z"/>
		<path class="st2" d="M60.42,48.28c-0.55,0.22-0.64-0.1-0.55,0.22c0.09,0.32-0.1,0.3,0.16,0.35c0.26,0.05,0.13,0.42,0.36,0.05
			C60.61,48.53,60.42,48.28,60.42,48.28z"/>
		<path class="st2" d="M53.05,52.31c-1.01-0.33-0.46-0.62-0.54-0.1c-0.08,0.51-0.34,0.36-0.01,0.6c0.33,0.24-0.1,0.68,0.46,0.31
			C53.52,52.76,53.05,52.31,53.05,52.31z"/>
		<path class="st2" d="M62.87,49.8c-0.14-1.06,0.35-0.68-0.15-0.53c-0.5,0.15-0.47-0.15-0.54,0.26c-0.07,0.41-0.65,0.21-0.08,0.55
			C62.67,50.42,62.87,49.8,62.87,49.8z"/>
		<path class="st2" d="M54.57,50.66c-1.01-0.34-0.2-0.49-0.54-0.1c-0.43,0.49-0.51,0.36-0.17,0.6c0.33,0.24,0.04,0.47,0.6,0.11
			C55.01,50.91,54.57,50.66,54.57,50.66z"/>
		<path class="st2" d="M58.02,48.12c-1.01-0.35-0.45-0.62-0.54-0.11c-0.09,0.51-0.35,0.36-0.02,0.6c0.33,0.24-0.11,0.67,0.46,0.32
			C58.48,48.58,58.02,48.12,58.02,48.12z"/>
		<path class="st2" d="M56.53,49.94c-1.01-0.33-0.46-0.61-0.54-0.1c-0.08,0.51-0.34,0.36-0.01,0.6c0.33,0.24-0.1,0.68,0.46,0.32
			C57,50.39,56.53,49.94,56.53,49.94z"/>
		<path class="st2" d="M55.09,48.11c-1.01-0.33-0.46-0.62-0.54-0.1c-0.08,0.51-0.34,0.36-0.01,0.6c0.33,0.24-0.1,0.68,0.46,0.31
			C55.56,48.55,55.09,48.11,55.09,48.11z"/>
		<path class="st2" d="M56.03,46.62c-0.55,0.22-0.64-0.1-0.55,0.22c0.09,0.32-0.1,0.3,0.16,0.35c0.26,0.05,0.13,0.42,0.36,0.05
			C56.23,46.87,56.03,46.62,56.03,46.62z"/>
		<path class="st2" d="M58.33,61.01c-0.55,0.22-0.64-0.1-0.55,0.22c0.09,0.32-0.1,0.3,0.16,0.35c0.26,0.05,0.13,0.42,0.36,0.05
			C58.53,61.26,58.33,61.01,58.33,61.01z"/>
		<path class="st2" d="M52.68,63.31c-0.55,0.22-0.64-0.1-0.55,0.22c0.09,0.32-0.1,0.3,0.16,0.35c0.26,0.05,0.13,0.42,0.36,0.06
			C52.88,63.57,52.68,63.31,52.68,63.31z"/>
		<path class="st3" d="M60.53,57.48c-0.55,0.22-0.64-0.1-0.55,0.22c0.09,0.32-0.1,0.3,0.16,0.35c0.26,0.05,0.13,0.42,0.35,0.05
			C60.72,57.74,60.53,57.48,60.53,57.48z"/>
		<path class="st2" d="M56.89,56.62c-0.55,0.22-0.64-0.1-0.55,0.22c0.09,0.32-0.1,0.3,0.16,0.35c0.26,0.05,0.13,0.42,0.36,0.05
			C57.08,56.88,56.89,56.62,56.89,56.62z"/>
		<path class="st2" d="M53.3,60.18c-0.68-0.82,0.09-0.52-0.4-0.38c-0.63,0.18-0.62,0.03-0.47,0.41c0.15,0.38-0.22,0.42,0.44,0.41
			C53.54,60.63,53.3,60.18,53.3,60.18z"/>
		<path class="st2" d="M59.39,53.57c-0.55,0.22-0.64-0.1-0.55,0.22c0.09,0.32-0.1,0.31,0.16,0.35c0.26,0.05,0.13,0.42,0.35,0.05
			C59.59,53.82,59.39,53.57,59.39,53.57z"/>
		<path class="st2" d="M59.02,52.04c-0.14-1.06,0.35-0.68-0.14-0.53c-0.5,0.15-0.48-0.15-0.54,0.26c-0.07,0.4-0.65,0.21-0.08,0.55
			C58.83,52.66,59.02,52.04,59.02,52.04z"/>
		<path class="st4" d="M43.93,89.56c0,5.95-4.82,10.78-10.78,10.78c-5.95,0-10.78-4.83-10.78-10.78c0-5.95,4.83-10.78,10.78-10.78
			C39.11,78.79,43.93,83.61,43.93,89.56z"/>
		<path class="st2" d="M32.25,81.42c0.41,0.82-0.08,1,0.41,0.82c0.48-0.18,0.48,0.11,0.52-0.3c0.04-0.41,0.63-0.26,0.04-0.56
			C32.63,81.09,32.25,81.42,32.25,81.42z"/>
		<path class="st3" d="M25.41,87.73c0.41,0.82-0.07,1,0.41,0.82c0.48-0.18,0.48,0.11,0.52-0.3c0.04-0.41,0.63-0.26,0.04-0.56
			C25.78,87.39,25.41,87.73,25.41,87.73z"/>
		<path class="st3" d="M27.12,93.88c0.34,0.67-0.06,0.83,0.34,0.67c0.4-0.15,0.39,0.09,0.43-0.25c0.03-0.34,0.52-0.21,0.03-0.46
			C27.42,93.61,27.12,93.88,27.12,93.88z"/>
		<path class="st2" d="M29.7,83.74c-1.01-0.33-0.2-0.49-0.54-0.1c-0.43,0.49-0.51,0.36-0.17,0.6c0.33,0.24,0.04,0.48,0.6,0.11
			C30.14,83.99,29.7,83.74,29.7,83.74z"/>
		<path class="st2" d="M25.59,86.03c-1.01-0.33-0.2-0.49-0.54-0.1c-0.44,0.49-0.51,0.36-0.17,0.6c0.33,0.24,0.04,0.47,0.59,0.11
			C26.03,86.28,25.59,86.03,25.59,86.03z"/>
		<path class="st2" d="M33.36,85.82c-1.01-0.33-0.2-0.49-0.54-0.1c-0.44,0.49-0.51,0.36-0.17,0.6c0.33,0.24,0.04,0.47,0.59,0.11
			C33.79,86.06,33.36,85.82,33.36,85.82z"/>
		<path class="st2" d="M32.48,84.07c0.3-1.02,0.48-0.22,0.08-0.55c-0.5-0.42-0.38-0.5-0.61-0.15c-0.23,0.34-0.47,0.05-0.09,0.6
			C32.25,84.52,32.48,84.07,32.48,84.07z"/>
		<path class="st3" d="M38.43,95.87c0.3-1.02,0.48-0.22,0.08-0.55c-0.5-0.42-0.38-0.49-0.61-0.15c-0.23,0.34-0.47,0.05-0.09,0.6
			C38.2,96.32,38.43,95.87,38.43,95.87z"/>
		<path class="st2" d="M27.18,89.74c0.3-1.02,0.48-0.22,0.08-0.54c-0.5-0.42-0.38-0.5-0.61-0.15c-0.23,0.34-0.47,0.05-0.09,0.6
			C26.95,90.18,27.18,89.74,27.18,89.74z"/>
		<path class="st2" d="M35.68,80.94c-0.58,0.71-0.95,0.34-0.58,0.71c0.37,0.36,0.1,0.49,0.49,0.35c0.39-0.13,0.5,0.47,0.52-0.2
			C36.14,81.14,35.68,80.94,35.68,80.94z"/>
		<path class="st2" d="M24.08,92.56c0.33,0.67-0.06,0.83,0.33,0.67c0.4-0.15,0.4,0.09,0.43-0.25c0.03-0.33,0.52-0.21,0.03-0.46
			C24.38,92.28,24.08,92.56,24.08,92.56z"/>
		<path class="st2" d="M33.11,89.92c0.3-1.02,0.48-0.21,0.08-0.54c-0.5-0.42-0.38-0.5-0.61-0.15c-0.23,0.34-0.47,0.05-0.09,0.6
			C32.89,90.36,33.11,89.92,33.11,89.92z"/>
		<path class="st2" d="M33.69,92.83c0.33,0.67-0.06,0.83,0.33,0.67c0.4-0.15,0.4,0.09,0.43-0.24c0.03-0.34,0.52-0.21,0.03-0.46
			C33.99,92.55,33.69,92.83,33.69,92.83z"/>
		<path class="st2" d="M30.11,94.63c0.3-1.02,0.48-0.22,0.08-0.55c-0.5-0.42-0.38-0.49-0.61-0.15c-0.23,0.34-0.47,0.05-0.09,0.6
			C29.88,95.07,30.11,94.63,30.11,94.63z"/>
		<path class="st2" d="M38.27,92.26c0.3-1.02,0.48-0.22,0.08-0.55c-0.5-0.42-0.38-0.5-0.61-0.15c-0.23,0.34-0.47,0.06-0.09,0.6
			C38.04,92.71,38.27,92.26,38.27,92.26z"/>
		<path class="st2" d="M31.93,94.87c0.34,0.67-0.06,0.83,0.34,0.67c0.4-0.15,0.4,0.09,0.43-0.24c0.03-0.34,0.52-0.21,0.03-0.46
			C32.23,94.6,31.93,94.87,31.93,94.87z"/>
		<path class="st2" d="M28.61,81.74c0.33,0.67-0.06,0.83,0.33,0.67c0.4-0.15,0.4,0.09,0.43-0.25c0.03-0.34,0.52-0.21,0.03-0.46
			C28.91,81.47,28.61,81.74,28.61,81.74z"/>
		<path class="st2" d="M30.88,91.56c-0.55,0.22-0.64-0.1-0.55,0.22c0.09,0.32-0.1,0.3,0.16,0.35c0.26,0.05,0.13,0.42,0.36,0.05
			C31.07,91.81,30.88,91.56,30.88,91.56z"/>
		<path class="st2" d="M34.68,98.19c-0.55,0.22-0.64-0.1-0.55,0.22c0.09,0.32-0.1,0.3,0.16,0.35c0.26,0.05,0.13,0.42,0.36,0.05
			C34.87,98.44,34.68,98.19,34.68,98.19z"/>
		<path class="st2" d="M35.64,87.94c-0.55,0.22-0.64-0.1-0.55,0.22c0.09,0.32-0.1,0.3,0.16,0.35c0.26,0.05,0.13,0.42,0.36,0.05
			C35.84,88.2,35.64,87.94,35.64,87.94z"/>
		<path class="st2" d="M28.66,90.95c-0.9,0.19-0.95-0.33-0.9,0.19c0.06,0.52-0.23,0.44,0.15,0.58c0.39,0.14,0.09,0.68,0.53,0.18
			C28.88,91.4,28.66,90.95,28.66,90.95z"/>
		<path class="st2" d="M26.98,84.78c-1.01-0.33-0.2-0.49-0.54-0.1c-0.43,0.49-0.51,0.36-0.17,0.6c0.33,0.24,0.04,0.47,0.6,0.11
			C27.42,85.03,26.98,84.78,26.98,84.78z"/>
		<path class="st2" d="M29.72,88.43c-0.67-0.82,0.09-0.52-0.4-0.38c-0.63,0.18-0.62,0.03-0.47,0.41c0.15,0.38-0.22,0.42,0.44,0.41
			C29.95,88.87,29.72,88.43,29.72,88.43z"/>
		<path class="st2" d="M28.05,96.69c-0.91,0.05-0.89-0.46-0.91,0.05c-0.02,0.52-0.29,0.4,0.07,0.6c0.36,0.19-0.01,0.68,0.5,0.25
			C28.22,97.16,28.05,96.69,28.05,96.69z"/>
		<path class="st2" d="M41.74,86.23c-0.55,0.22-0.64-0.1-0.55,0.22c0.09,0.32-0.1,0.3,0.16,0.35c0.26,0.05,0.13,0.42,0.36,0.05
			C41.93,86.49,41.74,86.23,41.74,86.23z"/>
		<path class="st2" d="M36.93,85.38c-0.07-1.06,0.38-0.37-0.11-0.54c-0.62-0.22-0.53-0.34-0.62,0.06c-0.1,0.4-0.43,0.21,0.12,0.59
			C36.87,85.88,36.93,85.38,36.93,85.38z"/>
		<path class="st2" d="M32.17,88.36c1.04-0.21,0.42,0.33,0.52-0.18c0.14-0.64,0.26-0.57-0.15-0.61c-0.41-0.04-0.27-0.4-0.57,0.2
			C31.66,88.36,32.17,88.36,32.17,88.36z"/>
		<path class="st2" d="M34.75,95.66c0.28,0.7-0.13,0.82,0.28,0.7c0.41-0.12,0.39,0.12,0.45-0.21c0.06-0.33,0.53-0.17,0.07-0.46
			C35.08,95.41,34.75,95.66,34.75,95.66z"/>
		<path class="st2" d="M37.85,88.64c-0.67-0.82,0.09-0.52-0.4-0.38c-0.63,0.18-0.62,0.03-0.47,0.41c0.15,0.38-0.22,0.42,0.44,0.41
			C38.09,89.08,37.85,88.64,37.85,88.64z"/>
		<path class="st2" d="M35.81,93.83c-0.55,0.22-0.64-0.1-0.55,0.22c0.09,0.32-0.1,0.31,0.16,0.35c0.26,0.04,0.13,0.42,0.36,0.05
			C36,94.09,35.81,93.83,35.81,93.83z"/>
		<path class="st2" d="M40.36,84.07c-1.01-0.33-0.2-0.49-0.54-0.1c-0.43,0.49-0.51,0.36-0.17,0.6c0.33,0.24,0.04,0.48,0.6,0.11
			C40.79,84.32,40.36,84.07,40.36,84.07z"/>
		<path class="st3" d="M35.64,86.39c-0.55,0.22-0.64-0.1-0.55,0.22c0.09,0.32-0.1,0.31,0.16,0.35c0.26,0.04,0.13,0.42,0.36,0.05
			C35.83,86.64,35.64,86.39,35.64,86.39z"/>
		<path class="st2" d="M24.66,90.26c-0.55,0.22-0.64-0.1-0.55,0.22c0.09,0.32-0.1,0.3,0.16,0.35c0.26,0.05,0.13,0.42,0.36,0.05
			C24.85,90.51,24.66,90.26,24.66,90.26z"/>
		<path class="st2" d="M37.83,82.87c-0.55,0.22-0.64-0.1-0.55,0.22c0.09,0.32-0.1,0.3,0.16,0.35c0.26,0.05,0.13,0.42,0.36,0.06
			C38.02,83.12,37.83,82.87,37.83,82.87z"/>
		<path class="st2" d="M34.38,83.11c-0.55,0.22-0.64-0.1-0.55,0.22c0.09,0.32-0.1,0.3,0.16,0.35c0.26,0.05,0.13,0.42,0.36,0.05
			C34.58,83.37,34.38,83.11,34.38,83.11z"/>
		<path class="st3" d="M29.7,85.84c-0.67-0.82,0.09-0.52-0.4-0.38c-0.63,0.18-0.62,0.03-0.47,0.42c0.15,0.38-0.22,0.42,0.44,0.41
			C29.94,86.28,29.7,85.84,29.7,85.84z"/>
		<path class="st3" d="M32.99,91.22c0.33,0.67-0.06,0.82,0.33,0.67c0.4-0.15,0.4,0.09,0.43-0.25c0.03-0.34,0.52-0.21,0.03-0.46
			C33.29,90.95,32.99,91.22,32.99,91.22z"/>
		<path class="st2" d="M41.85,93.32c-0.67-0.82,0.09-0.52-0.4-0.38c-0.63,0.18-0.62,0.03-0.47,0.42c0.15,0.38-0.22,0.42,0.44,0.41
			C42.09,93.76,41.85,93.32,41.85,93.32z"/>
		<path class="st2" d="M42.71,90.75c-0.68-0.82,0.09-0.52-0.4-0.38c-0.63,0.18-0.62,0.03-0.47,0.41c0.15,0.38-0.22,0.42,0.44,0.41
			C42.95,91.19,42.71,90.75,42.71,90.75z"/>
		<path class="st2" d="M40.92,95.46c-0.68-0.82,0.09-0.52-0.4-0.38c-0.63,0.18-0.62,0.03-0.47,0.42c0.15,0.38-0.22,0.42,0.44,0.41
			C41.16,95.9,40.92,95.46,40.92,95.46z"/>
		<path class="st3" d="M30.25,98.19c-0.68-0.82,0.09-0.52-0.4-0.38c-0.63,0.18-0.62,0.03-0.47,0.42c0.15,0.38-0.22,0.42,0.44,0.41
			C30.49,98.63,30.25,98.19,30.25,98.19z"/>
		<path class="st2" d="M33.29,98.49c-0.67-0.82,0.09-0.52-0.4-0.38c-0.63,0.18-0.62,0.03-0.47,0.41c0.15,0.38-0.22,0.42,0.44,0.41
			C33.53,98.93,33.29,98.49,33.29,98.49z"/>
		<path class="st2" d="M36.99,97.87c-0.55,0.22-0.64-0.1-0.55,0.22c0.09,0.32-0.1,0.3,0.16,0.35c0.26,0.05,0.13,0.42,0.36,0.05
			C37.19,98.13,36.99,97.87,36.99,97.87z"/>
		<path class="st2" d="M38.7,89.35c0.16,1.05-0.35,0.4,0.15,0.53c0.63,0.16,0.55,0.29,0.61-0.12c0.06-0.41,0.41-0.25-0.17-0.58
			C38.72,88.85,38.7,89.35,38.7,89.35z"/>
		<path class="st2" d="M30.82,89.89c-0.55,0.22-0.64-0.1-0.55,0.22c0.09,0.32-0.1,0.3,0.16,0.35c0.26,0.05,0.13,0.42,0.36,0.05
			C31.01,90.15,30.82,89.89,30.82,89.89z"/>
		<path class="st2" d="M35.77,90.61c-0.55,0.22-0.64-0.1-0.55,0.22c0.09,0.32-0.1,0.3,0.16,0.35c0.26,0.05,0.13,0.42,0.36,0.05
			C35.96,90.87,35.77,90.61,35.77,90.61z"/>
		<path class="st2" d="M31.61,96.48c-0.67-0.82,0.1-0.52-0.4-0.38c-0.63,0.18-0.62,0.03-0.47,0.41c0.15,0.38-0.22,0.42,0.44,0.41
			C31.84,96.92,31.61,96.48,31.61,96.48z"/>
		<path class="st2" d="M29.85,97.81c-0.63,0.18-0.62,0.03-0.47,0.42c0.15,0.38-0.22,0.42,0.44,0.41c0.66-0.01,0.43-0.45,0.43-0.45"
			/>
		<path class="st2" d="M42.49,88.11c-0.67-0.82,0.1-0.52-0.4-0.38c-0.63,0.18-0.62,0.03-0.47,0.41c0.15,0.38-0.22,0.42,0.44,0.41
			C42.72,88.55,42.49,88.11,42.49,88.11z"/>
		<path class="st2" d="M41.07,88.5c-0.55,0.22-0.64-0.1-0.55,0.22c0.09,0.32-0.1,0.3,0.16,0.35c0.26,0.04,0.13,0.42,0.36,0.05
			C41.26,88.76,41.07,88.5,41.07,88.5z"/>
		<path class="st3" d="M38.99,86.82c-0.55,0.22-0.64-0.1-0.55,0.22c0.09,0.32-0.1,0.3,0.16,0.35c0.26,0.05,0.13,0.42,0.36,0.05
			C39.18,87.07,38.99,86.82,38.99,86.82z"/>
		<path class="st3" d="M33.96,80.07c-0.55,0.22-0.64-0.1-0.55,0.22c0.09,0.32-0.1,0.3,0.16,0.35c0.26,0.05,0.13,0.42,0.36,0.05
			C34.16,80.33,33.96,80.07,33.96,80.07z"/>
		<path class="st5" d="M34.75,73.64l-2.49-0.12l0.21-7.56c0,0,0.05-1.01-0.63-1.4c-0.7-0.41-4.51-1.91-4.74-1.99
			c-1.43-0.53-2.68-0.99-2.67-1.35c0.01-0.36,0.78-0.19,0.78-0.19s7.56,1.59,8.28,2.29c0.86,0.84,1.16,1.29,1.19,2.22v4.25
			l0.03,3.67"/>
		<rect x="32.24" y="73.45" class="st6" width="2.48" height="6.04"/>
		<path class="st3" d="M32.54,74.8c0.41,0.82-0.07,1,0.41,0.82c0.48-0.19,0.48,0.11,0.52-0.3c0.04-0.41,0.63-0.26,0.04-0.56
			C32.91,74.46,32.54,74.8,32.54,74.8z"/>
		<path class="st2" d="M34.17,76.3c-0.55,0.22-0.64-0.1-0.55,0.22c0.09,0.32-0.1,0.31,0.16,0.35c0.26,0.05,0.13,0.42,0.36,0.05
			C34.36,76.56,34.17,76.3,34.17,76.3z"/>
		<path class="st2" d="M33.72,78.27c-1.01-0.34-0.2-0.49-0.54-0.1c-0.43,0.49-0.51,0.36-0.17,0.6c0.33,0.24,0.04,0.47,0.59,0.11
			C34.16,78.52,33.72,78.27,33.72,78.27z"/>
		<path class="st2" d="M32.25,63.33c-0.55,0.22-0.64-0.1-0.55,0.22c0.09,0.32-0.1,0.3,0.16,0.35c0.26,0.05,0.13,0.42,0.36,0.05
			C32.45,63.58,32.25,63.33,32.25,63.33z"/>
		<path class="st2" d="M33.27,66.81c-0.15,0.57-0.47,0.45-0.15,0.57c0.31,0.12,0.18,0.26,0.38,0.08c0.19-0.18,0.42,0.15,0.26-0.25
			C33.59,66.81,33.27,66.81,33.27,66.81z"/>
		<path class="st3" d="M34.08,65.29c-0.68-0.82,0.09-0.52-0.4-0.38c-0.63,0.18-0.62,0.03-0.47,0.41c0.15,0.38-0.22,0.42,0.44,0.41
			C34.31,65.73,34.08,65.29,34.08,65.29z"/>
		<path class="st3" d="M33.27,69.58c0.28,0.7-0.13,0.82,0.28,0.7c0.41-0.12,0.39,0.13,0.44-0.21c0.06-0.33,0.53-0.17,0.07-0.46
			C33.6,69.33,33.27,69.58,33.27,69.58z"/>
		<path class="st2" d="M34.21,72.65c-0.68-0.82,0.09-0.52-0.4-0.38c-0.63,0.18-0.62,0.03-0.47,0.41c0.15,0.38-0.22,0.42,0.44,0.41
			C34.45,73.09,34.21,72.65,34.21,72.65z"/>
		<path class="st2" d="M30.78,62.83c-0.33-0.41,0.05-0.26-0.2-0.19c-0.31,0.09-0.31,0.02-0.23,0.21c0.08,0.19-0.11,0.21,0.22,0.2
			C30.9,63.05,30.78,62.83,30.78,62.83z"/>
		<path class="st2" d="M28.8,62.38c-0.33-0.41,0.05-0.26-0.2-0.19c-0.31,0.09-0.31,0.02-0.23,0.2c0.08,0.19-0.11,0.21,0.22,0.21
			C28.92,62.6,28.8,62.38,28.8,62.38z"/>
		<path class="st2" d="M29.76,63.01c-0.33-0.41,0.05-0.26-0.2-0.19c-0.31,0.09-0.31,0.02-0.23,0.21c0.08,0.19-0.11,0.21,0.22,0.2
			C29.88,63.23,29.76,63.01,29.76,63.01z"/>
		<path class="st2" d="M26.78,61.81c-0.33-0.41,0.05-0.26-0.2-0.19c-0.31,0.09-0.31,0.02-0.23,0.21c0.08,0.19-0.11,0.21,0.22,0.2
			C26.9,62.03,26.78,61.81,26.78,61.81z"/>
	</g>
	<rect x="0.5" y="0.5" class="st7" width="238.27" height="147.59"/>
	<g>
		<g>
			<polyline points="0.02,27.25 239.08,27.25 239.08,0.42 0.02,0.42 			"/>
			<path class="st5" d="M177.85,16.77v-2.54h6.39v6c-0.62,0.62-1.52,1.16-2.7,1.63c-1.18,0.47-2.37,0.7-3.58,0.7
				c-1.53,0-2.87-0.33-4.02-0.99c-1.14-0.66-2-1.61-2.57-2.84c-0.58-1.23-0.86-2.57-0.86-4.01c0-1.57,0.32-2.96,0.96-4.18
				c0.64-1.22,1.58-2.15,2.82-2.8c0.94-0.5,2.11-0.75,3.51-0.75c1.82,0,3.25,0.39,4.27,1.18c1.02,0.79,1.69,1.87,1.98,3.25
				l-2.94,0.56c-0.21-0.74-0.6-1.32-1.17-1.75c-0.57-0.43-1.28-0.64-2.14-0.64c-1.29,0-2.33,0.42-3.09,1.26
				c-0.77,0.85-1.14,2.09-1.14,3.75c0,1.79,0.38,3.13,1.16,4.02c0.77,0.89,1.79,1.34,3.04,1.34c0.62,0,1.24-0.13,1.87-0.37
				c0.62-0.25,1.16-0.56,1.61-0.91v-1.91 M156.24,22.31V7.25h2.89l6.01,10.06V7.25h2.75v15.06h-2.98l-5.92-9.82v9.82H156.24z
				 M150.42,22.31V7.25h2.96v15.06H150.42z M135.73,22.31V7.25h2.88l6.01,10.06V7.25h2.75v15.06h-2.98l-5.92-9.82v9.82H135.73z
				 M123.87,13.61h2.19c1.42,0,2.31-0.06,2.67-0.18c0.35-0.12,0.63-0.34,0.83-0.64c0.2-0.3,0.3-0.68,0.3-1.13
				c0-0.51-0.13-0.92-0.4-1.23c-0.26-0.31-0.63-0.51-1.12-0.59c-0.24-0.03-0.96-0.05-2.17-0.05h-2.31V13.61z M120.9,22.31V7.25h6.24
				c1.57,0,2.71,0.14,3.42,0.41c0.71,0.27,1.28,0.75,1.71,1.44c0.43,0.69,0.64,1.48,0.64,2.37c0,1.13-0.33,2.07-0.97,2.8
				c-0.65,0.73-1.62,1.2-2.91,1.39c0.64,0.39,1.17,0.81,1.59,1.27c0.41,0.46,0.98,1.27,1.68,2.45l1.79,2.94h-3.54l-2.14-3.28
				c-0.76-1.17-1.28-1.91-1.56-2.21c-0.28-0.3-0.58-0.51-0.89-0.63c-0.31-0.11-0.81-0.17-1.49-0.17h-0.6v6.29H120.9z M113.86,16.35
				l-2.02-5.59l-1.98,5.59H113.86z M119.32,22.31h-3.23l-1.28-3.42h-5.87l-1.21,3.42h-3.14l5.72-15.06h3.13L119.32,22.31z
				 M89.95,22.31l-3.5-15.06h3.03l2.21,10.35l2.68-10.35h3.52l2.58,10.52l2.25-10.52h2.98l-3.57,15.06H99l-2.92-11.26l-2.92,11.26
				H89.95z M75.48,15.97c0,0.29-0.28,0.51-0.5,0.51h-0.07c-0.28,0-0.5-0.22-0.5-0.51c-1.63-5.31-2.41-9.02,0.5-9.02
				C77.89,6.96,77.03,10.67,75.48,15.97z M74.91,21.72c-0.85,0-1.56-0.73-1.56-1.6c0-0.87,0.71-1.6,1.56-1.6h0.07
				c0.85,0,1.49,0.73,1.49,1.6C76.47,20.99,75.83,21.72,74.91,21.72z M76.11,5.58c-0.35-0.95-1.2-0.87-1.2-0.87
				s-0.85-0.07-1.13,0.87L65.7,19.83c-1.06,1.82-0.14,2.54,0.92,2.62H83.2c1.13-0.07,1.98-0.8,0.92-2.62L76.11,5.58z"/>
		</g>
	</g>
	<line class="st8" x1="0.58" y1="43.19" x2="238.64" y2="43.19"/>
	<line class="st8" x1="68.06" y1="122.06" x2="68.06" y2="43.79"/>
	<line class="st8" x1="0.58" y1="122.36" x2="238.64" y2="122.36"/>
</g>
<g id="text">
	<text transform="matrix(1 0 0 1 11.0336 38.5342)" class="st9 st10">Breathing Hazard - Carbon Monoxide Gas</text>
	<text transform="matrix(1 0 0 1 86.1831 54.8428)"><tspan x="0" y="0" class="st11 st12">Install water heater in accordance with</tspan><tspan x="0" y="9.6" class="st11 st12">the Instruction Manual and NFPA 54.</tspan></text>
	<text transform="matrix(1 0 0 1 86.1831 82.3389)"><tspan x="0" y="0" class="st11 st12">To avoid injury, combustion and ventilation</tspan><tspan x="0" y="9.6" class="st11 st12">air must be taken from outdoors.</tspan></text>
	<text transform="matrix(1 0 0 1 86.1831 106.5654)"><tspan x="0" y="0" class="st11 st12">Do not place chemical vapor  emitting</tspan><tspan x="0" y="9.6" class="st11 st12">products near water heater.</tspan></text>
	<text transform="matrix(1 0 0 1 13.6464 132.751)"><tspan x="0" y="0" class="st11 st13">Breathing carbon monoxide can cause brain damage or</tspan><tspan x="0" y="10.2" class="st11 st13">death. Always read and understand instruction manual.</tspan></text>
	<path d="M81.64,51.85c0,0.97-0.79,1.76-1.76,1.76c-0.97,0-1.76-0.79-1.76-1.76c0-0.97,0.79-1.76,1.76-1.76
		C80.85,50.1,81.64,50.88,81.64,51.85z"/>
	<path d="M81.63,79.14c0,0.97-0.79,1.76-1.76,1.76c-0.97,0-1.76-0.79-1.76-1.76c0-0.97,0.79-1.76,1.76-1.76
		C80.85,77.38,81.63,78.17,81.63,79.14z"/>
	<path d="M81.63,103.4c0,0.97-0.79,1.76-1.76,1.76c-0.97,0-1.76-0.79-1.76-1.76c0-0.97,0.79-1.76,1.76-1.76
		C80.85,101.64,81.63,102.42,81.63,103.4z"/>
</g>
</svg>
