<svg id="Layer_1" data-name="Layer 1" xmlns="http://www.w3.org/2000/svg" viewBox="0 0 191.37 57.39"><title>AHRI_cert_black</title><path d="M180.21,0H10.88C4.25,0,0,14.12,0,28.13S4.46,57.39,11.09,57.39H179.15c6.63,0,12.22-15.26,12.22-29.34S186.84,0,180.21,0Z" style="fill:#fff"/><path d="M166.82,21.93h-2V33h2c3.26,0,4.16-2.48,4.16-5.53S170.08,21.93,166.82,21.93Z"/><path d="M66.3,19a2.06,2.06,0,0,0-1.08-1.84,4.43,4.43,0,0,0-2-.3H60.45v4.3H63C64.49,21.15,66.3,20.92,66.3,19Z"/><path d="M170,41.16c-.62,0-.73.64-.73,1.44s0,1.57.67,1.57.74-.85.74-1.53S170.63,41.16,170,41.16Z"/><path d="M147.86,41.11c-.62,0-.74.67-.74,1.62s.11,1.62.74,1.62.74-.53.74-1.62S148.49,41.11,147.86,41.11Z"/><path d="M162.16,41.11c-.62,0-.74.67-.74,1.62s.11,1.62.74,1.62.74-.53.74-1.62S162.79,41.11,162.16,41.11Z"/><path d="M125.47,41.16c-.5,0-.67.4-.67,1.56,0,1,.13,1.59.73,1.59s.73-.61.73-1.53S126.13,41.16,125.47,41.16Z"/><path d="M180.21,0H10.88C4.25,0,0,14.12,0,28.13S4.46,57.39,11.09,57.39H179.15c6.63,0,12.22-15.26,12.22-29.34S186.84,0,180.21,0ZM146.84,20h2.09V34.88h-2.09Zm-9.35,0h7v1.89h-5V26.2h5v1.89h-5v6.8h-2.09Zm-84-8H64.92a10.53,10.53,0,0,1,5.82,1.38,6.13,6.13,0,0,1,2.76,5.39,5.81,5.81,0,0,1-3.33,5.62c-5.28.71-10.94.25-16.71-.47ZM19.51,12H26.8l3.08,9.83a38.73,38.73,0,0,0-6.27.77l-1.12-4-1.29,4.57a27,27,0,0,0-5.89,2.52l-.08,0ZM40.57,34.59H26.8l-1.28-4.44h-6l-1.38,4.44H12.51l2.24-7.21a44.89,44.89,0,0,1,16.17-2.19L33.67,34V25.34c2.33.18,4.63.46,6.9.79Zm12.22,0h-6.9V27c2.33.38,4.63.75,6.9,1Zm0-10.7c-6.37-.81-12.87-1.89-19.12-2V12h6.9v8.31h5.32V12h6.9Zm7.66,10.7h-7V28.08a62.84,62.84,0,0,0,7,.5Zm5.45,0-2.33-6.1a31.1,31.1,0,0,0,7-1.25l3,7.35Zm15.31,0h-7V25.81a30.47,30.47,0,0,0,7-4.58Zm0-14a24.75,24.75,0,0,1-7,3.07V12h7ZM91.84,44.89h-1l-.67-3.34h0l-.62,3.34h-1l-1-4.3h.9l.6,3.39h0l.64-3.39h1L91.35,44h0L92,40.58h.86ZM88.2,27.47c0-5.21,2.29-7.66,5.1-7.66,3.52,0,4.67,2.62,4.92,5.94h-2c-.25-2.09-.82-4.22-3-4.22-1.91,0-3,2.34-3,5.94s1.11,5.94,3,5.94c2.42,0,2.73-2,2.93-4.12h2c0,3.38-1.37,5.84-4.9,5.84C90.5,35.13,88.2,32.67,88.2,27.47Zm9.92,17.42h-1l-.67-3.34h0l-.62,3.34h-1l-1-4.3h.9l.6,3.39h0L96,40.58h1L97.63,44h0l.59-3.39h.86Zm6.28,0h-1l-.67-3.34h0l-.62,3.34h-1l-1-4.3h.9l.6,3.39h0l.64-3.39h1l.64,3.39h0l.59-3.39h.86Zm2.88,0h-.91V43.83h.91Zm.93-23h-5.37V26.2h5.37v1.89h-5.37V33h5.37v1.89h-7.46V20h7.46Zm4,22.9a1,1,0,0,1-.42.1c-.38,0-.7-.15-.73-.57h0A1.12,1.12,0,0,1,110,45c-.69,0-1.12-.38-1.12-1.21a1.18,1.18,0,0,1,1-1.35l.67-.18c.31-.09.5-.18.5-.55s-.14-.64-.59-.64-.66.41-.66.82h-.81c0-.91.38-1.42,1.51-1.42.76,0,1.37.3,1.37,1.06V44c0,.16.1.3.22.3a.37.37,0,0,0,.14,0Zm4.33.06h-.86v-3c0-.56-.17-.78-.6-.78s-.69.28-.69.84v2.89h-.86V39.18h.86V41l0,0a1.24,1.24,0,0,1,1.05-.59c.66,0,1.07.3,1.07,1.17Zm3.72-3.5a1.61,1.61,0,0,0-.36,0c-.39,0-.86.18-.86,1v2.57h-.86v-4.3H119v.67h0a1.06,1.06,0,0,1,1-.78.68.68,0,0,1,.21,0Zm-1.45-6.5L113.7,27.3h1.64c1.64,0,3-.82,3-2.54a2.67,2.67,0,0,0-2.93-2.83h-1.89v13h-2.09V20h4.14c2.44,0,4.86,1.41,4.86,4.39,0,2.34-1,4.16-3.38,4.47l4.22,6Zm3.59,10h-.86v-4.3h.86Zm0-4.91h-.86v-.86h.86Zm4.69,4.91h-.82v-.53h0a.92.92,0,0,1-.94.64c-1,0-1.41-.84-1.41-2.32,0-1.91.67-2.21,1.33-2.21a1,1,0,0,1,1,.62h0V39.18h.86Zm2.54,0h-.86v-4.3h.86Zm0-4.91h-.86v-.86h.86Zm.67-18h-3.18v13H125v-13h-3.18V20h8.44Zm3.09,19.45a1.62,1.62,0,0,0-.36,0c-.39,0-.86.18-.86,1v2.57h-.86v-4.3h.86v.67h0a1.06,1.06,0,0,1,1-.78.68.68,0,0,1,.21,0Zm1-6.5h-2.09V20h2.09Zm3.16,8h-2.25v.25c0,.58.07,1.31.72,1.31s.69-.7.69-1h.82A1.42,1.42,0,0,1,136,45c-.7,0-1.58-.21-1.58-2.2,0-1.13.24-2.33,1.59-2.33,1.2,0,1.52.72,1.52,1.92Zm2.94,1.51c.48,0,.66-.39.66-1H142c-.06,1-.41,1.68-1.47,1.68-1.25,0-1.6-.93-1.6-2.26s.35-2.26,1.6-2.26A1.38,1.38,0,0,1,142,42h-.86c0-.4-.11-.92-.62-.9s-.74.67-.74,1.62S139.86,44.36,140.48,44.36Zm4.7-3.13h-.7v2.57c0,.34.1.46.39.46a1.59,1.59,0,0,0,.31,0v.64a2.81,2.81,0,0,1-.7.07c-.58,0-.87-.16-.87-1V41.22H143v-.64h.59V39.36h.86v1.22h.7ZM147.86,45c-1.19,0-1.6-.93-1.6-2.26s.35-2.26,1.6-2.26,1.61.93,1.61,2.26S149.06,45,147.86,45ZM153,41.38a1.62,1.62,0,0,0-.36,0c-.39,0-.86.18-.86,1v2.57h-.86v-4.3h.86v.67h0a1.06,1.06,0,0,1,1-.78.68.68,0,0,1,.21,0ZM156.14,45c-.34,1.17-.62,1.33-1.5,1.31a2.57,2.57,0,0,1-.34,0v-.69a1.72,1.72,0,0,0,.28,0c.3,0,.49-.06.58-.34l.11-.35L154,40.58H155l.74,3.23h0l.69-3.23h.9Zm2.87-.16h-.91V43.83H159Zm.49-23h-5.37V26.2h5.37v1.89h-5.37V33h5.37v1.89H152V20h7.46ZM162.16,45c-1.19,0-1.6-.93-1.6-2.26s.35-2.26,1.6-2.26,1.61.93,1.61,2.26S163.36,45,162.16,45Zm5.16-3.61a1.62,1.62,0,0,0-.36,0c-.39,0-.86.18-.86,1v2.57h-.86v-4.3h.86v.67h0a1.06,1.06,0,0,1,1-.78.68.68,0,0,1,.21,0Zm4.26,3.29c0,1-.45,1.68-1.61,1.68s-1.42-.75-1.42-1.1h.82a.56.56,0,0,0,.62.51.72.72,0,0,0,.73-.81v-.7h0a1,1,0,0,1-1,.59c-1,0-1.29-1-1.29-2.17,0-.94.14-2.21,1.37-2.21a1,1,0,0,1,.94.64h0v-.53h.82Zm-4.43-9.79h-4.41V20h4.41c4.3,0,5.92,3.36,5.92,7.42S171.45,34.88,167.15,34.88Zm11.59-12.67a2.92,2.92,0,0,1-.64,1A2.95,2.95,0,0,1,176,24a3,3,0,0,1-1.19-.23,2.79,2.79,0,0,1-.93-.63,3,3,0,0,1-.61-1,3.18,3.18,0,0,1-.22-1.19,3.1,3.1,0,0,1,.24-1.23,2.84,2.84,0,0,1,1.58-1.56A3,3,0,0,1,176,18a3,3,0,0,1,1.12.22,2.85,2.85,0,0,1,1.58,1.56,3.3,3.3,0,0,1,0,2.46Z"/><path d="M109.7,43.71c0,.36.18.65.54.65.52,0,.78-.39.78-1v-.72a5.69,5.69,0,0,1-1,.4A.71.71,0,0,0,109.7,43.71Z"/><path d="M136,41.06c-.55,0-.72.54-.72,1.1v.09h1.38V42C136.67,41.48,136.5,41.06,136,41.06Z"/><path d="M176.76,20.58a.54.54,0,0,0,.07-.29.39.39,0,0,0-.07-.24.45.45,0,0,0-.17-.14.71.71,0,0,0-.23-.06h-.91v1h.9a.6.6,0,0,0,.24-.07A.45.45,0,0,0,176.76,20.58Z"/><path d="M177.67,19.2A2.23,2.23,0,0,0,176,18.5a2.27,2.27,0,0,0-.91.18,2.21,2.21,0,0,0-.74.51,2.4,2.4,0,0,0-.49.79,2.8,2.8,0,0,0-.18,1,2.84,2.84,0,0,0,.16,1,2.42,2.42,0,0,0,.46.79,2.22,2.22,0,0,0,.73.53,2.28,2.28,0,0,0,2.6-.49,2.36,2.36,0,0,0,.49-.78,3,3,0,0,0,0-2A2.37,2.37,0,0,0,177.67,19.2Zm-.85,3.51L176,21.28h-.51v1.42h-.55V19.38h1.26a1.52,1.52,0,0,1,.91.22.85.85,0,0,1,.3.73.81.81,0,0,1-.25.66,1.09,1.09,0,0,1-.62.25l.93,1.46Z"/></svg>