<svg id="Layer_1" data-name="Layer 1" xmlns="http://www.w3.org/2000/svg" viewBox="0 0 54.94 54.94"><defs><style>.cls-1{fill:#fff;}.cls-2{fill:#5c5c5c;}</style></defs><title>CSA_star_logo_grayscale</title><path class="cls-1" d="M49.31,48.66a2.58,2.58,0,1,1,2.58,2.58A2.59,2.59,0,0,1,49.31,48.66Z"/><path class="cls-1" d="M0,27.47A27.47,27.47,0,1,0,27.47,0,27.5,27.5,0,0,0,0,27.47"/><path d="M9.2,27.47A18.27,18.27,0,1,1,27.47,45.74,18.3,18.3,0,0,1,9.2,27.47m-.58,0A18.86,18.86,0,1,0,27.47,8.62,18.87,18.87,0,0,0,8.62,27.47Z"/><path d="M.59,27.47A26.88,26.88,0,1,1,27.47,54.36,26.91,26.91,0,0,1,.59,27.47m-.59,0A27.47,27.47,0,1,0,27.47,0,27.5,27.5,0,0,0,0,27.47Z"/><path d="M23.86,22.47l3.61-11.1,3.61,11.1H42.76l-9.45,6.87S36.45,39,36.92,40.45l-9.45-6.87L18,40.45c.48-1.46,3.61-11.11,3.61-11.11l-9.45-6.87H23.86m-.42-.58h-13L21,29.56c-.12.39-4,12.4-4,12.4l10.55-7.67L38,42s-3.9-12-4-12.4l10.55-7.67h-13c-.12-.38-4-12.39-4-12.39S23.57,21.51,23.44,21.89Z"/><path class="cls-2" d="M23.86,22.47l3.61-11.1,3.61,11.1H42.76l-9.45,6.87S36.45,39,36.92,40.45l-9.45-6.87L18,40.45c.48-1.46,3.61-11.11,3.61-11.11l-9.45-6.87H23.86"/><path d="M11,42.56c.63-.59.74-1,.39-1.44s-1-.46-2,.39-1.1,1.49-.75,1.9.7.43,1.48-.07l.54.65a1.72,1.72,0,0,1-2.57-.07c-.73-.86-.65-1.86.76-3.05,1.26-1.07,2.48-1,3.13-.25a1.75,1.75,0,0,1-.39,2.59L11,42.56"/><polyline points="11.72 47.37 14.59 43.35 16.66 44.83 16.22 45.44 14.84 44.45 14.12 45.46 15.52 46.46 15.08 47.07 13.68 46.07 12.84 47.25 14.25 48.26 13.81 48.87 11.72 47.37"/><path d="M17.5,50.79l.81-2h0l.49,2.53.93.38-.54-2.35a1.27,1.27,0,0,0,1.57-.88,1.45,1.45,0,0,0-.84-2l-1.38-.56-1.84,4.59.79.32m1.55-3.9.41.17c.48.19.77.49.52,1.1s-.57.55-1.05.36l-.46-.18Z"/><polyline points="22.66 48.17 22.79 47.39 25.59 47.84 25.46 48.62 24.48 48.46 23.82 52.56 22.98 52.43 23.64 48.33 22.66 48.17"/><polyline points="27.73 52.82 27.6 47.88 28.44 47.85 28.57 52.8 27.73 52.82"/><polyline points="31.8 52.48 30.75 47.65 33.12 47.13 33.28 47.86 31.73 48.2 32 49.43 33.55 49.09 33.7 49.82 32.16 50.16 32.62 52.3 31.8 52.48"/><polyline points="37.04 50.95 35.1 46.41 35.88 46.07 37.82 50.62 37.04 50.95"/><polyline points="40.77 49.09 37.97 45.01 40.07 43.57 40.49 44.19 39.1 45.15 39.8 46.18 41.22 45.2 41.64 45.82 40.23 46.8 41.05 47.99 42.48 47.01 42.9 47.63 40.77 49.09"/><path d="M45.41,45.45l1-1.08c.81-.92.67-2.12-.51-3.16S43.59,40,42.8,40.93l-1.09,1.25,3.7,3.27M42.83,42l.42-.48c.43-.49,1.12-.52,2,.29s1,1.48.54,2l-.42.47Z"/><path d="M14.5,11.63l1.17-.82c1-.7,1.16-1.9.26-3.19C15.14,6.49,14,5.94,13,6.62l-1.36,1,2.82,4.06M12.8,7.7l.52-.36c.54-.38,1.22-.24,1.92.77s.6,1.67,0,2.05l-.52.37Z"/><polyline points="19.19 8.77 17.47 4.13 19.85 3.25 20.11 3.95 18.53 4.54 18.96 5.71 20.57 5.11 20.83 5.81 19.22 6.41 19.72 7.77 21.35 7.16 21.61 7.87 19.19 8.77"/><path d="M24.09,5.77c.11.45.3.84.83.77a.66.66,0,0,0,.59-.77c-.14-1.15-2.14-.15-2.37-2a1.33,1.33,0,0,1,1.24-1.5A1.36,1.36,0,0,1,26,3.5l-.78.1c-.09-.37-.33-.68-.73-.63a.56.56,0,0,0-.5.7c.12,1,2.12.08,2.35,2A1.41,1.41,0,0,1,25,7.29a1.46,1.46,0,0,1-1.67-1.43l.78-.09"/><polyline points="28.66 7.09 29.05 2.16 29.89 2.23 29.51 7.15 28.66 7.09"/><path d="M35.26,5.07c.08-.71-.12-1.07-.54-1.2-.59-.18-1.11.2-1.49,1.43s-.15,1.84.49,2,1-.19,1.17-.89l-1.17-.36.22-.72,2,.61-.19.62c-.36,1.17-1.11,1.8-2.23,1.45s-1.58-1.32-1.06-3c.45-1.49,1.4-2.24,2.55-1.89a1.65,1.65,0,0,1,1.08,2.15l-.8-.24"/><polyline points="37.05 9.37 39.71 5.2 40.47 5.69 40.07 9.23 40.08 9.23 41.8 6.53 42.43 6.94 39.78 11.11 39.16 10.71 39.56 6.86 39.55 6.85 37.69 9.78 37.05 9.37"/><path class="cls-1" d="M33.61,27.47a6.14,6.14,0,1,1-6.14-6.14,6.14,6.14,0,0,1,6.14,6.14"/><path d="M30.62,30.05a4.06,4.06,0,1,1,0-5.16l1-1a5.46,5.46,0,1,0,.06,7l-1.08-.89"/><path d="M24.08,26.4a3.58,3.58,0,0,1,3-2.47v2.19H26v-.48s-.24,0-.56.55l1.6,1.49V31a3.49,3.49,0,0,1-3-2.54l1-.36s.47,1.08.86,1.2V28.14L24.08,26.4"/><path d="M29.09,25.64v1.29h.76a2.44,2.44,0,0,0-.76-1.29M29.42,29a4.22,4.22,0,0,0,.46-1h-.8v2.66a3.88,3.88,0,0,1-1.14.35V23.93a3.57,3.57,0,0,1,3.1,3.54,3.52,3.52,0,0,1-.82,2.28Z"/><path d="M54.17,48.63a2.33,2.33,0,1,1-2.32-2.38,2.31,2.31,0,0,1,2.32,2.38m-2.32,2.88a2.87,2.87,0,1,0-2.92-2.88A2.87,2.87,0,0,0,51.85,51.51Zm-.6-2.65h.56l.84,1.44h.6l-.85-1.46a.85.85,0,0,0,.78-.91c0-.65-.39-.94-1.18-.94H50.74V50.3h.51Zm0-1.46H52c.52,0,.72.22.72.5s-.24.54-.82.54h-.6Z"/></svg>