<?xml version="1.0" encoding="UTF-8" standalone="no"?>
<svg
   xmlns:dc="http://purl.org/dc/elements/1.1/"
   xmlns:cc="http://creativecommons.org/ns#"
   xmlns:rdf="http://www.w3.org/1999/02/22-rdf-syntax-ns#"
   xmlns:svg="http://www.w3.org/2000/svg"
   xmlns="http://www.w3.org/2000/svg"
   height="224.60002"
   width="294.29999"
   xml:space="preserve"
   viewBox="0 0 294.29999 224.60002"
   y="0px"
   x="0px"
   id="Layer_1"
   version="1.1"><metadata
     id="metadata57"><rdf:RDF><cc:Work
         rdf:about=""><dc:format>image/svg+xml</dc:format><dc:type
           rdf:resource="http://purl.org/dc/dcmitype/StillImage" /><dc:title></dc:title></cc:Work></rdf:RDF></metadata><defs
     id="defs55" /><style
     id="style3"
     type="text/css">
	.st0{fill-rule:evenodd;clip-rule:evenodd;fill:#FFFFFF;}
	.st1{fill-rule:evenodd;clip-rule:evenodd;}
</style><g
     transform="translate(-168.89999,-380.1)"
     id="g5"><g
       id="g7"><circle
         style="clip-rule:evenodd;fill:#ffffff;fill-rule:evenodd"
         id="circle9"
         r="78"
         cy="473"
         cx="321.10001"
         class="st0" /><g
         id="g11"><polygon
           style="clip-rule:evenodd;fill-rule:evenodd"
           id="polygon13"
           points="365.4,535 358.3,538.9 350.7,542.4 342.5,544.6 334.2,546.1 325.6,546.8 317.9,546.3 310.6,545.1 303.7,543.3 296.8,540.9 290.4,537.7 284.2,534 278.6,529.8 273.4,525.1 268.7,520 264.3,514 260.6,508.1 257.6,501.7 255.2,494.8 253.2,487.7 252.2,480.6 251.7,473 252.2,465.3 253.2,458.2 255.2,451 257.6,444.2 260.6,437.7 264.3,431.8 268.7,425.9 273.4,420.8 278.6,416.1 284.2,411.9 290.4,408.2 296.8,405 303.7,402.5 310.6,400.8 317.9,399.6 325.6,399.1 333,399.6 340.1,400.6 347,402.5 353.9,404.8 360,407.9 366.2,411.4 371.9,415.6 377,420.3 391.5,406.7 384.9,400.8 377.8,395.6 370.1,391 362.3,387.3 353.6,384.3 344.8,382.1 335.7,380.6 326.3,380.1 316.7,380.6 307.6,382.1 298.5,384.3 289.9,387.5 281.8,391.5 274.1,396.1 266.7,401.6 260.1,407.5 254.2,414.1 248.8,421.5 244.1,429.1 240.2,437.2 236.9,445.9 234.7,455 233.2,464.1 232.7,473.7 233.2,483.3 234.7,492.6 236.9,501.5 240.2,510.1 244.1,518.2 248.8,526.1 254.2,533.3 260.1,539.9 266.7,545.8 274.1,551.2 281.8,555.9 289.9,559.9 298.5,563.1 307.6,565.3 316.7,566.7 326.3,567.2 337.4,566.7 347.7,564.8 357.8,561.8 367.4,557.6 376.5,552.7 384.9,546.8 392.5,539.9 399.4,532.3 383.7,518.2 383.7,518.2 383.7,518.2 378.2,524.4 372.1,530.1 "
           class="st1" /><polygon
           style="clip-rule:evenodd;fill-rule:evenodd"
           id="polygon15"
           points="287.4,498.6 285.2,494.8 283.5,491.4 281.5,485.7 265.3,485.7 266.3,490.2 267.7,494.4 269.7,498.6 271.9,502.7 274.6,506.7 277.6,510.6 280.8,514.3 284.2,517.7 287.9,521 291.9,523.9 296.1,526.4 300.5,528.6 305.2,530.5 309.8,532 314.8,533 319.7,533.8 320.2,471.7 292.6,443.9 293.8,441.4 296.3,438 298,436 300.2,434.3 302.9,432.6 306.4,431.1 306.4,437 319.9,437 319.9,411.4 314,412.1 307.6,413.6 301,416.1 294.6,419.5 287.9,424 282,429.6 276.3,436 271.2,443.9 304.9,480.3 304.9,513.1 299,509.6 299,509.6 299,509.6 294.3,506.2 290.4,502.2 "
           class="st1" /><path
           style="clip-rule:evenodd;fill-rule:evenodd"
           id="path17"
           d="m 365.9,489.4 -0.7,2.7 -1,2.2 -2.4,3.9 -3,4.2 12.1,10.6 4.7,-6.2 4.2,-6.7 3.2,-6.6 2.2,-7.1 1.5,-7.4 0.2,-7.8 -1,-8.1 -2.2,-8.9 -1.7,-4.7 -1.7,-4.2 -2.2,-3.9 -2.7,-3.9 -2.7,-3.7 -3,-3.5 -3.2,-3 -3.2,-3 -5.3,-3.5 -2.1,-1.4 -7.6,-3.9 -8.4,-2.7 -4.2,-1 -4.2,-0.5 0,122.4 6.4,-1.2 5.4,-1.5 4.4,-1.7 0,-46 10.2,0 8.5,0 0,3.5 -0.5,2.6 0,0 0,0 z m -8,-24.1 -9.5,0 0,-31.7 4.4,2.7 3.7,3.5 1.3,1.6 1.9,2.1 2.7,4.2 2,4.4 1.7,4.4 1,4.7 0.2,4.2 -9.4,0 0,-0.1 0,0 z"
           class="st1" /></g></g><g
       id="g19"><rect
         style="clip-rule:evenodd;fill:#ffffff;fill-rule:evenodd"
         id="rect21"
         height="32.299999"
         width="294.29999"
         class="st0"
         y="572.40002"
         x="168.89999" /><g
         id="g23"><path
           id="path25"
           d="m 175.5,601.1 0,-25.1 3.3,0 0,22.1 12.3,0 0,3 -15.6,0 z" /><path
           id="path27"
           d="m 193.5,592 c 0,-3.4 0.9,-5.8 2.8,-7.5 1.6,-1.3 3.5,-2 5.7,-2 2.5,0 4.5,0.8 6.1,2.5 1.6,1.6 2.4,3.9 2.4,6.8 0,2.3 -0.4,4.2 -1.1,5.5 -0.7,1.3 -1.7,2.4 -3.1,3.1 -1.3,0.7 -2.8,1.1 -4.4,1.1 -2.5,0 -4.6,-0.8 -6.2,-2.4 -1.4,-1.7 -2.2,-4 -2.2,-7.1 z m 3.2,0 c 0,2.3 0.5,4.1 1.5,5.2 1,1.2 2.3,1.7 3.8,1.7 1.5,0 2.8,-0.6 3.8,-1.7 1,-1.2 1.5,-2.9 1.5,-5.3 0,-2.2 -0.5,-3.9 -1.5,-5.1 -1,-1.2 -2.3,-1.7 -3.8,-1.7 -1.5,0 -2.8,0.6 -3.8,1.7 -1,1.1 -1.5,2.9 -1.5,5.2 z" /><path
           id="path29"
           d="m 217.5,601.1 -5.6,-18.1 3.2,0 2.9,10.5 1.1,3.9 c 0,-0.2 0.4,-1.4 0.9,-3.7 l 2.9,-10.6 3.2,0 2.7,10.5 0.9,3.5 1,-3.5 3.1,-10.5 3,0 -5.7,18.1 -3.1,0 -2.9,-10.9 -0.7,-3.1 -3.7,14 -3.2,0 z" /><path
           id="path31"
           d="m 249.4,601.1 0,-25.1 3.3,0 0,22.1 12.3,0 0,3 -15.6,0 z" /><path
           id="path33"
           d="m 281,595.2 3.2,0.4 c -0.5,1.9 -1.4,3.3 -2.8,4.3 -1.4,1 -3.1,1.5 -5.2,1.5 -2.7,0 -4.8,-0.8 -6.3,-2.5 -1.6,-1.6 -2.3,-3.9 -2.3,-6.9 0,-3.1 0.8,-5.4 2.4,-7.1 1.6,-1.7 3.6,-2.5 6.1,-2.5 2.4,0 4.4,0.8 5.9,2.5 1.5,1.7 2.3,4 2.3,7 0,0.2 0,0.5 0,0.8 l -13.5,0 c 0.1,2 0.7,3.5 1.7,4.6 1,1.1 2.3,1.6 3.8,1.6 1.1,0 2.1,-0.3 2.9,-0.9 0.7,-0.5 1.4,-1.5 1.8,-2.8 z m -10.1,-5 10.1,0 c -0.1,-1.5 -0.5,-2.7 -1.2,-3.4 -1,-1.2 -2.3,-1.8 -3.8,-1.8 -1.4,0 -2.6,0.5 -3.6,1.4 -0.8,1 -1.4,2.3 -1.5,3.8 z" /><path
           id="path35"
           d="m 299.9,598.8 c -1.1,1 -2.2,1.7 -3.3,2.1 -1.1,0.4 -2.2,0.6 -3.4,0.6 -2,0 -3.5,-0.5 -4.6,-1.5 -1.1,-1 -1.6,-2.2 -1.6,-3.7 0,-0.9 0.2,-1.7 0.6,-2.4 0.4,-0.7 0.9,-1.3 1.6,-1.8 0.7,-0.4 1.4,-0.8 2.2,-1 0.6,-0.2 1.5,-0.3 2.7,-0.5 2.5,-0.3 4.3,-0.6 5.5,-1.1 0,-0.4 0,-0.7 0,-0.8 0,-1.3 -0.3,-2.1 -0.9,-2.6 -0.8,-0.7 -2,-1 -3.5,-1 -1.4,0 -2.5,0.3 -3.2,0.8 -0.7,0.5 -1.2,1.4 -1.5,2.7 l -3,-0.4 c 0.3,-1.3 0.7,-2.3 1.3,-3.1 0.6,-0.8 1.5,-1.4 2.7,-1.8 1.2,-0.4 2.6,-0.6 4.1,-0.6 1.5,0 2.8,0.2 3.8,0.5 1,0.4 1.7,0.8 2.1,1.4 0.5,0.6 0.8,1.3 1,2.1 0.1,0.5 0.2,1.5 0.2,2.8 l 0,4.1 c 0,2.9 0.1,4.7 0.2,5.4 0.1,0.8 0.4,1.5 0.8,2.2 l -3.2,0 c -0.3,-0.8 -0.5,-1.5 -0.6,-2.4 z m -0.3,-6.8 c -1.1,0.5 -2.8,0.8 -5,1.2 -1.3,0.2 -2.2,0.4 -2.7,0.6 -0.5,0.2 -0.9,0.6 -1.2,1 -0.3,0.4 -0.4,0.9 -0.4,1.5 0,0.8 0.3,1.5 0.9,2.1 0.6,0.5 1.5,0.8 2.7,0.8 1.2,0 2.2,-0.3 3.2,-0.8 0.9,-0.5 1.6,-1.2 2,-2.1 0.3,-0.7 0.5,-1.7 0.5,-3.1 l 0,-1.2 z" /><path
           id="path37"
           d="m 319.3,601.1 0,-2.3 c -1.2,1.8 -2.8,2.7 -5.1,2.7 -1.4,0 -2.8,-0.4 -4,-1.2 -1.2,-0.8 -2.2,-1.9 -2.8,-3.3 -0.7,-1.4 -1,-3.1 -1,-4.9 0,-1.8 0.3,-3.5 0.9,-4.9 0.6,-1.5 1.5,-2.6 2.7,-3.4 1.2,-0.8 2.6,-1.2 4.1,-1.2 1.1,0 2.1,0.2 2.9,0.7 0.9,0.5 1.5,1.1 2.1,1.8 l 0,-9 3.1,0 0,25.1 -2.9,0 z m -9.7,-9.1 c 0,2.3 0.5,4.1 1.5,5.2 1,1.2 2.1,1.7 3.5,1.7 1.3,0 2.5,-0.5 3.4,-1.6 0.9,-1.1 1.4,-2.8 1.4,-5 0,-2.5 -0.5,-4.3 -1.4,-5.5 -1,-1.2 -2.1,-1.7 -3.5,-1.7 -1.4,0 -2.5,0.6 -3.4,1.7 -1.1,1 -1.5,2.8 -1.5,5.2 z" /><path
           id="path39"
           d="m 355,592.3 3.3,0.8 c -0.7,2.7 -1.9,4.8 -3.8,6.2 -1.8,1.4 -4,2.1 -6.6,2.1 -2.7,0 -4.9,-0.5 -6.6,-1.6 -1.7,-1.1 -3,-2.7 -3.9,-4.8 -0.9,-2.1 -1.3,-4.3 -1.3,-6.7 0,-2.6 0.5,-4.9 1.5,-6.8 1,-1.9 2.4,-3.4 4.3,-4.4 1.8,-1 3.9,-1.5 6.1,-1.5 2.5,0 4.6,0.6 6.3,1.9 1.7,1.3 2.9,3.1 3.6,5.4 l -3.3,0.8 c -0.6,-1.8 -1.4,-3.1 -2.5,-4 -1.1,-0.8 -2.5,-1.2 -4.2,-1.2 -1.9,0 -3.5,0.5 -4.8,1.4 -1.3,0.9 -2.2,2.2 -2.7,3.7 -0.5,1.6 -0.8,3.2 -0.8,4.8 0,2.1 0.3,4 0.9,5.6 0.6,1.6 1.6,2.8 2.9,3.6 1.3,0.8 2.7,1.2 4.3,1.2 1.9,0 3.4,-0.5 4.7,-1.6 1.3,-1.2 2.1,-2.8 2.6,-4.9 z" /><path
           id="path41"
           d="m 360.8,592 c 0,-3.4 0.9,-5.8 2.8,-7.5 1.6,-1.3 3.5,-2 5.7,-2 2.5,0 4.5,0.8 6.1,2.5 1.6,1.6 2.4,3.9 2.4,6.8 0,2.3 -0.3,4.2 -1.1,5.5 -0.7,1.3 -1.7,2.4 -3.1,3.1 -1.3,0.7 -2.8,1.1 -4.4,1.1 -2.5,0 -4.6,-0.8 -6.2,-2.4 -1.4,-1.7 -2.2,-4 -2.2,-7.1 z m 3.2,0 c 0,2.3 0.5,4.1 1.5,5.2 1,1.2 2.3,1.7 3.8,1.7 1.5,0 2.8,-0.6 3.8,-1.7 1,-1.2 1.5,-2.9 1.5,-5.3 0,-2.2 -0.5,-3.9 -1.5,-5.1 -1,-1.2 -2.3,-1.7 -3.8,-1.7 -1.5,0 -2.8,0.6 -3.8,1.7 -1,1.1 -1.5,2.9 -1.5,5.2 z" /><path
           id="path43"
           d="m 381.5,601.1 0,-18.1 2.8,0 0,2.6 c 1.3,-2 3.3,-3 5.8,-3 1.1,0 2.1,0.2 3,0.6 0.9,0.4 1.6,0.9 2.1,1.5 0.5,0.6 0.8,1.4 1,2.3 0.1,0.6 0.2,1.6 0.2,3 l 0,11.2 -3.1,0 0,-11 c 0,-1.3 -0.1,-2.2 -0.4,-2.8 -0.2,-0.6 -0.7,-1.1 -1.3,-1.5 -0.6,-0.4 -1.3,-0.6 -2.1,-0.6 -1.3,0 -2.4,0.4 -3.4,1.2 -1,0.8 -1.4,2.4 -1.4,4.7 l 0,9.9 -3.2,0 z" /><path
           id="path45"
           d="m 407.6,598.3 0.4,2.7 c -0.9,0.2 -1.6,0.3 -2.3,0.3 -1.1,0 -2,-0.2 -2.6,-0.5 -0.6,-0.4 -1,-0.8 -1.3,-1.4 -0.3,-0.6 -0.4,-1.8 -0.4,-3.6 l 0,-10.4 -2.3,0 0,-2.4 2.3,0 0,-4.5 3.1,-1.8 0,6.3 3.1,0 0,2.4 -3.1,0 0,10.6 c 0,0.9 0.1,1.4 0.2,1.7 0.1,0.3 0.3,0.5 0.5,0.6 0.2,0.1 0.6,0.2 1.1,0.2 0.3,-0.1 0.8,-0.1 1.3,-0.2 z" /><path
           id="path47"
           d="m 423.1,595.2 3.2,0.4 c -0.5,1.9 -1.4,3.3 -2.8,4.3 -1.4,1 -3.1,1.5 -5.2,1.5 -2.7,0 -4.8,-0.8 -6.3,-2.5 -1.6,-1.6 -2.3,-3.9 -2.3,-6.9 0,-3.1 0.8,-5.4 2.4,-7.1 1.6,-1.7 3.6,-2.5 6.1,-2.5 2.4,0 4.4,0.8 5.9,2.5 1.5,1.7 2.3,4 2.3,7 0,0.2 0,0.5 0,0.8 l -13.5,0 c 0.1,2 0.7,3.5 1.7,4.6 1,1.1 2.3,1.6 3.8,1.6 1.1,0 2.1,-0.3 2.9,-0.9 0.7,-0.5 1.3,-1.5 1.8,-2.8 z m -10.1,-5 10.1,0 c -0.1,-1.5 -0.5,-2.7 -1.2,-3.4 -1,-1.2 -2.3,-1.8 -3.8,-1.8 -1.4,0 -2.6,0.5 -3.6,1.4 -0.9,1 -1.4,2.3 -1.5,3.8 z" /><path
           id="path49"
           d="m 430.1,601.1 0,-18.1 2.8,0 0,2.6 c 1.3,-2 3.3,-3 5.8,-3 1.1,0 2.1,0.2 3,0.6 0.9,0.4 1.6,0.9 2.1,1.5 0.5,0.6 0.8,1.4 1,2.3 0.1,0.6 0.2,1.6 0.2,3 l 0,11.2 -3.1,0 0,-11 c 0,-1.3 -0.1,-2.2 -0.4,-2.8 -0.2,-0.6 -0.7,-1.1 -1.3,-1.5 -0.6,-0.4 -1.3,-0.6 -2.1,-0.6 -1.3,0 -2.4,0.4 -3.4,1.2 -1,0.8 -1.4,2.4 -1.4,4.7 l 0,9.9 -3.2,0 z" /><path
           id="path51"
           d="m 456.3,598.3 0.4,2.7 c -0.9,0.2 -1.6,0.3 -2.3,0.3 -1.1,0 -2,-0.2 -2.6,-0.5 -0.6,-0.4 -1,-0.8 -1.3,-1.4 -0.3,-0.6 -0.4,-1.8 -0.4,-3.6 l 0,-10.4 -2.3,0 0,-2.4 2.3,0 0,-4.5 3.1,-1.8 0,6.3 3.1,0 0,2.4 -3.1,0 0,10.6 c 0,0.9 0.1,1.4 0.2,1.7 0.1,0.3 0.3,0.5 0.5,0.6 0.2,0.1 0.6,0.2 1.1,0.2 0.3,-0.1 0.7,-0.1 1.3,-0.2 z" /></g></g></g></svg>