<?xml version="1.0" encoding="UTF-8" standalone="no"?>
<svg
   xmlns:dc="http://purl.org/dc/elements/1.1/"
   xmlns:cc="http://creativecommons.org/ns#"
   xmlns:rdf="http://www.w3.org/1999/02/22-rdf-syntax-ns#"
   xmlns:svg="http://www.w3.org/2000/svg"
   xmlns="http://www.w3.org/2000/svg"
   height="183.90326"
   width="197.5"
   xml:space="preserve"
   viewBox="0 0 197.5 183.90326"
   y="0px"
   x="0px"
   id="Layer_1"
   version="1.1"><metadata
     id="metadata73"><rdf:RDF><cc:Work
         rdf:about=""><dc:format>image/svg+xml</dc:format><dc:type
           rdf:resource="http://purl.org/dc/dcmitype/StillImage" /><dc:title></dc:title></cc:Work></rdf:RDF></metadata><defs
     id="defs71" /><style
     id="style3"
     type="text/css">
	.st0{fill:#FFFFFF;}
</style><circle
     style="fill:#ffffff"
     id="circle5"
     r="52.599998"
     cy="88.403267"
     cx="98.700012"
     class="st0" /><g
     transform="translate(-199.5,-312.69674)"
     id="g7"><g
       id="g9"><path
         id="path11"
         d="m 216,485.9 0,0 1.8,-16.3 5.2,0 -3.9,23.3 -6.1,0 -1.7,-16.4 -0.1,0 -1.8,16.4 -6,0 -3.9,-23.3 5.3,0 1.6,16.3 0.1,-0.1 2.2,-16.3 5.3,0 2,16.4 z" /><path
         id="path13"
         d="m 221.7,492.8 5.1,-23.3 6.6,0 5.1,23.3 -5.5,0 -0.8,-4.5 -4.3,0 -0.7,4.5 -5.5,0 z m 8.4,-19 0,0 -1.6,10.4 3.2,0 -1.6,-10.4 z" /><path
         id="path15"
         d="m 237,469.6 14.1,0 0,4.7 -4.4,0 0,18.6 -5.5,0 0,-18.6 -4.2,0 0,-4.7 z" /><path
         id="path17"
         d="m 252.6,492.8 0,-23.3 12.5,0 0,4.7 -7,0 0,4.3 6.8,0 0,4.7 -6.8,0 0,5 7.4,0 0,4.7 -12.9,0 z" /><path
         id="path19"
         d="m 273.5,492.8 -5.5,0 0,-23.3 8,0 c 4.5,0 6.7,1.8 6.7,6.4 0,2.5 -0.6,4.2 -2.9,5.3 l 0,0.1 c 1.5,0.3 2.6,1.4 2.7,3 0.2,1.9 0.2,5.9 0.5,7.3 0.1,0.3 0.3,0.6 0.5,0.8 l 0,0.3 -6,0 c -0.2,-0.4 -0.3,-0.9 -0.3,-1.3 -0.1,-2 0,-4 -0.1,-5.4 -0.2,-1.4 -0.6,-2.4 -1.9,-2.4 l -1.8,0 0,9.2 z m 0,-13.3 1.9,0 c 1.6,0 2,-1.5 2,-2.9 0,-2.8 -1.1,-2.9 -3.8,-2.8 l 0,5.7 z" /><path
         id="path21"
         d="m 307.7,485.4 c 0,2.5 -0.4,4.4 -1.5,5.8 l 2.5,2.7 -3.2,2.7 -3.1,-3.4 c -0.6,0.1 -1.3,0.2 -2.1,0.2 -5.5,0 -7.4,-2.7 -7.4,-8 l 0,-9.4 c 0,-4.5 2.7,-6.9 7.4,-6.9 4.8,0 7.3,2.5 7.3,6.9 l 0,9.4 z m -9.3,0.5 c 0,1.3 0.2,3.3 2,3.3 1.8,0 1.9,-2 1.9,-3.3 l 0,-9.5 c 0,-1.4 -0.1,-3.1 -1.9,-3.1 -1.7,0 -2,1.7 -2,3.1 l 0,9.5 z" /><path
         id="path23"
         d="m 310.2,469.6 5.5,0 0,17.5 c 0,1.1 0.3,2.1 1.9,2.1 1.4,0 1.9,-1.2 1.9,-2.2 l 0,-17.4 5.5,0 0,16.8 c 0,3.9 -1.8,7 -7.3,7 -4.6,0 -7.3,-2.2 -7.3,-7 l 0,-16.8 z" /><path
         id="path25"
         d="m 325.8,492.8 5.1,-23.3 6.6,0 5.1,23.3 -5.6,0 -0.8,-4.5 -4.2,0 -0.7,4.5 -5.5,0 z m 8.4,-19 0,0 -1.6,10.4 3.2,0 -1.6,-10.4 z" /><path
         id="path27"
         d="m 343.9,492.8 0,-23.3 5.5,0 0,18.6 6.7,0 0,4.7 -12.2,0 z" /><path
         id="path29"
         d="m 358.1,492.8 0,-23.3 5.5,0 0,23.3 -5.5,0 z" /><path
         id="path31"
         d="m 365.2,469.6 14.1,0 0,4.7 -4.3,0 0,18.6 -5.5,0 0,-18.6 -4.3,0 0,-4.7 z" /><path
         id="path33"
         d="m 388.6,477.2 0,0 2.9,-7.6 5.5,0 -5.6,13.5 0,9.8 -5.5,0 0,-9.8 -5.5,-13.5 5.5,0 2.7,7.6 z" /></g><path
       id="path35"
       d="m 297.2,343.9 c -31.8,0 -57.6,25.8 -57.6,57.6 0,31.8 25.8,57.6 57.6,57.6 31.8,0 57.6,-25.8 57.6,-57.6 0,-31.8 -25.8,-57.6 -57.6,-57.6 z m 0,104.5 c -25.9,0 -46.9,-21 -46.9,-46.9 0,-25.9 21,-46.9 46.9,-46.9 25.9,0 46.9,21 46.9,46.9 0,25.9 -21,46.9 -46.9,46.9 z" /><path
       id="path37"
       d="M 283.4,426" /><path
       id="path39"
       d="m 269.1,370.6 10.6,0 0,34.2 c 0,2.2 0.7,4.1 3.7,4.1 2.8,0 3.6,-2.4 3.6,-4.4 l 0,-33.9 10.6,0 0,32.8 c 0,7.7 -3.4,13.6 -14.3,13.6 -9,0 -14.3,-4.3 -14.3,-13.6 l 0,-32.8 z" /><path
       id="path41"
       d="m 301.9,432.4 0,-45.4 10.6,0 0,36.3 13,0 0,9.1 -23.6,0 z" /><path
       id="path43"
       d="m 282.1,423.2 1.1,0 c 0.5,0 1.5,0 1.5,1.2 0,1.2 -1,1.3 -1.4,1.3 l -1.2,0 0,-2.5 z m 0,3.3 1.4,0 c 0.9,0 1.2,0.6 1.2,1.3 0,0.5 0.1,1.3 0.2,1.8 l 0.9,0 0,-0.2 c -0.2,0 -0.2,-0.3 -0.3,-0.4 -0.1,-0.5 -0.1,-1 -0.2,-1.6 -0.1,-0.9 -0.3,-1.2 -1.3,-1.3 l 0,0 c 0.8,-0.1 1.3,-0.7 1.4,-1.5 0,-1.6 -0.9,-2 -2.4,-2 l -1.8,0 0,7.1 0.8,0 0,-3.2 z" /><path
       id="path45"
       d="m 283.4,432.5 c 3.6,0 6.4,-2.9 6.4,-6.4 0,-3.6 -2.9,-6.4 -6.4,-6.4 -3.5,0 -6.4,2.9 -6.4,6.4 0,3.5 2.9,6.4 6.4,6.4 z m -5.8,-6.5 c 0,-3.2 2.6,-5.8 5.8,-5.8 3.2,0 5.8,2.6 5.8,5.8 0,3.2 -2.6,5.8 -5.8,5.8 -3.2,0 -5.8,-2.6 -5.8,-5.8 z" /><g
       id="g47"><path
         id="path49"
         d="m 234.6,351.7 -1.2,-0.9 c -1.6,-1.2 -2.8,-1.2 -3.4,-0.4 -1.1,1.3 -0.6,2.2 0.7,3.1 l 9.1,7 c 1,0.8 2,0.8 2.8,-0.3 1.1,-1.5 -0.3,-2.8 -1.5,-3.6 l -1.7,-1.3 3.3,-4.3 2.3,1.7 c 3.2,2.4 4,5.9 0.7,10.4 -3,4 -6.3,3.9 -10.1,1.1 l -7.6,-5.8 c -4,-3.1 -4.5,-6.3 -1.5,-10.3 2.8,-3.7 6.1,-4.7 9.9,-1.9 l 1.6,1.2 -3.4,4.3 z" /><path
         id="path51"
         d="m 251,355.7 -15,-17.7 4.2,-3.5 12,14.2 5.1,-4.3 3,3.5 -9.3,7.8 z" /><path
         id="path53"
         d="m 261.3,346.9 -5.6,-23.1 5.9,-2.9 14.8,18.7 -5,2.4 -2.7,-3.7 -3.8,1.9 1.4,4.4 -5,2.3 z m -0.8,-20.8 0,0 3.1,10.1 2.8,-1.4 -5.9,-8.7 z" /><path
         id="path55"
         d="m 279.2,331.1 0.4,1.6 c 0.3,1.3 1,2.4 2.7,2 1.2,-0.3 1.5,-1.5 1.3,-2.7 -0.4,-1.9 -2.2,-2.3 -3.7,-2.8 -1.8,-0.6 -3.4,-1.1 -4.7,-2.1 -1.2,-0.9 -2.1,-2.2 -2.6,-4.2 -1,-4.3 1.1,-7 5.2,-7.9 4.6,-1 7.7,1.5 8.4,5.8 l -4.9,1.1 c -0.4,-1.3 -0.7,-3.1 -2.5,-2.9 -1.1,0.2 -1.6,0.9 -1.5,1.9 0.2,1.4 1,1.9 2.2,2.4 2.3,0.8 4.2,1.2 5.7,2.1 1.5,0.9 2.6,2.2 3.2,5 1,4.4 -0.9,7.3 -5.3,8.3 -4.9,1.1 -7.5,-1.2 -8.2,-4.2 l -0.5,-2.4 4.8,-1 z" /><path
         id="path57"
         d="m 295.7,328.8 0,1.6 c 0,1.3 0.4,2.5 2.1,2.5 1.3,0 1.8,-1.1 1.9,-2.3 0,-2 -1.6,-2.7 -3,-3.6 -1.7,-1 -3.1,-1.9 -4.1,-3.1 -1,-1.2 -1.5,-2.6 -1.5,-4.7 0.1,-4.4 2.7,-6.6 7,-6.5 4.7,0.1 7.1,3.3 6.8,7.6 l -5,-0.1 c 0,-1.4 0.1,-3.2 -1.7,-3.4 -1.1,-0.1 -1.8,0.5 -1.9,1.5 -0.2,1.4 0.5,2.1 1.6,2.9 2,1.3 3.8,2.2 5,3.4 1.3,1.2 2,2.8 1.9,5.6 -0.1,4.5 -2.6,6.9 -7.1,6.8 -5,-0.1 -7.1,-2.9 -7,-6 l 0,-2.5 5,0.3 z" /><path
         id="path59"
         d="m 306.5,337.3 4.3,-22.9 5.4,1 -4.3,22.9 -5.4,-1 z" /><path
         id="path61"
         d="m 314.3,338.6 8.2,-21.7 12,4.5 -1.6,4.3 -6.9,-2.6 -1.5,3.9 6.3,2.4 -1.6,4.3 -6.3,-2.4 -3.5,9.2 -5.1,-1.9 z" /><path
         id="path63"
         d="m 326.5,343.5 11.4,-20.3 4.8,2.7 -11.4,20.3 -4.8,-2.7 z" /><path
         id="path65"
         d="m 333.4,347.3 14.7,-18 9.7,7.9 -2.9,3.6 -5.4,-4.5 -2.7,3.3 5.3,4.3 -2.9,3.6 -5.3,-4.3 -3.2,3.9 5.7,4.7 -2.9,3.6 -10.1,-8.1 z" /><path
         id="path67"
         d="m 344.8,356.9 18.6,-13.9 3.5,4.7 c 1.2,1.6 2.6,3.5 2.8,5.6 0.3,2.4 -1.3,4.1 -3.1,5.4 l -8.3,6.2 c -1.9,1.4 -3.7,1.8 -5.4,1.1 -1.6,-0.6 -2.8,-1.9 -3.8,-3.2 l -4.3,-5.9 z m 6.7,1.9 c 2,3.1 3.2,2.2 5.6,0.3 l 6.1,-4.5 c 2.2,-1.7 1.8,-2.5 0.2,-4.6 l -11.9,8.8 z" /></g></g></svg>