<svg id="Layer_1" data-name="Layer 1" xmlns="http://www.w3.org/2000/svg" viewBox="0 0 197.53 183.8"><title>UL_classified_water_quality</title><circle cx="98.77" cy="88.27" r="52.56" style="fill:#fff"/><path d="M16.55,173h.06l1.7-16.31H23.5L19.62,180H13.48l-1.67-16.37h-.06L10,180h-6L0,156.74H5.27l1.64,16.34L7,173l2.2-16.28h5.27Z"/><path d="M22.29,180l5.08-23.25h6.57L39,180H33.48l-.78-4.53H28.43L27.78,180Zm8.37-19H30.6L29,171.37h3.16Z"/><path d="M37.6,156.74H51.74v4.65h-4.4V180H41.88v-18.6H37.6Z"/><path d="M53.23,180V156.74H65.72v4.65h-7v4.28H65.5v4.65H58.68v5h7.41V180Z"/><path d="M74.06,180H68.6V156.74h8c4.46,0,6.7,1.8,6.7,6.42,0,2.48-.59,4.25-2.88,5.3v.06a3.21,3.21,0,0,1,2.7,3c.15,1.86.19,5.86.5,7.35a2,2,0,0,0,.53.81V180h-6a4.89,4.89,0,0,1-.31-1.33c-.09-2,0-4-.12-5.39s-.59-2.36-1.86-2.45h-1.8Zm0-13.36h1.86c1.58,0,2-1.46,2-2.88,0-2.76-1.15-2.88-3.81-2.82Z"/><path d="M108.31,172.58c0,2.48-.4,4.4-1.52,5.77l2.54,2.73-3.19,2.73-3.07-3.44a10.89,10.89,0,0,1-2.11.19c-5.52,0-7.44-2.73-7.44-8v-9.46c0-4.46,2.67-6.94,7.44-6.94s7.35,2.48,7.35,6.94ZM99,173c0,1.33.22,3.32,2,3.32s1.89-2,1.89-3.32v-9.55c0-1.43-.12-3.13-1.92-3.13s-2,1.71-2,3.13Z"/><path d="M110.82,156.74h5.46v17.55c0,1.12.34,2.08,1.89,2.08s1.86-1.24,1.86-2.23V156.74h5.46v16.83c0,3.94-1.77,7-7.35,7-4.62,0-7.32-2.2-7.32-7Z"/><path d="M126.42,180l5.08-23.25h6.57L143.13,180h-5.52l-.78-4.53h-4.28L131.9,180Zm8.37-19h-.06l-1.58,10.42h3.16Z"/><path d="M144.52,180V156.74H150v18.6h6.66V180Z"/><path d="M158.72,180V156.74h5.46V180Z"/><path d="M165.82,156.74H180v4.65h-4.4V180H170.1v-18.6h-4.28Z"/><path d="M189.22,164.33h.06l2.79-7.59h5.46l-5.61,13.49V180h-5.46v-9.76L181,156.74h5.52Z"/><path d="M97.81,31a57.61,57.61,0,1,0,57.61,57.61A57.61,57.61,0,0,0,97.81,31Zm0,104.52a46.92,46.92,0,1,1,46.92-46.91A46.92,46.92,0,0,1,97.81,135.53Z"/><path d="M84,113.14"/><path d="M69.7,57.73H80.32V92C80.32,94.13,81,96,84,96c2.78,0,3.63-2.42,3.63-4.35V57.73H98.27V90.56c0,7.68-3.44,13.61-14.32,13.61-9,0-14.26-4.3-14.26-13.61Z"/><path d="M102.46,119.53V74.13h10.62v36.3h13v9.09Z"/><path d="M82.66,110.36h1.1c.53,0,1.48,0,1.5,1.24a1.21,1.21,0,0,1-1.37,1.3H82.66Zm0,3.25H84c.92,0,1.21.6,1.21,1.31a6.48,6.48,0,0,0,.24,1.79h.91v-.16c-.19,0-.25-.31-.27-.44-.08-.53-.12-1-.15-1.57-.11-.94-.34-1.23-1.25-1.32v0a1.51,1.51,0,0,0,1.36-1.53c0-1.63-.89-2-2.37-2H81.87v7.06h.78Z"/><path d="M84,119.63a6.45,6.45,0,1,0-6.45-6.45A6.46,6.46,0,0,0,84,119.63Zm-5.77-6.45A5.77,5.77,0,1,1,84,119,5.78,5.78,0,0,1,78.23,113.19Z"/><path d="M35.23,38.84,34,37.94c-1.58-1.2-2.83-1.25-3.45-.43-1.05,1.34-.56,2.22.65,3.14l9.15,7c1,.79,2,.83,2.83-.3,1.12-1.48-.31-2.77-1.45-3.63l-1.68-1.27,3.3-4.35,2.27,1.72c3.19,2.42,4,5.93.65,10.38-3,4-6.34,3.95-10.12,1.08L28.6,45.48c-4-3.05-4.5-6.33-1.48-10.31,2.81-3.71,6.08-4.73,9.86-1.86l1.56,1.18Z"/><path d="M51.54,42.87l-15-17.73,4.16-3.53,12,14.19,5.08-4.31,3,3.55Z"/><path d="M61.89,34,56.25,10.9,62.15,8,76.9,26.68l-5,2.42-2.68-3.73-3.84,1.88,1.4,4.35Zm-.84-20.78-.06,0,3.15,10.05L67,21.93Z"/><path d="M79.77,18.25l.36,1.6c.29,1.3,1,2.36,2.66,2,1.24-.28,1.54-1.52,1.28-2.67-.43-1.91-2.16-2.28-3.74-2.82a15.63,15.63,0,0,1-4.69-2.07,6.79,6.79,0,0,1-2.56-4.19c-1-4.27,1.13-7,5.25-7.94C83,1.12,86,3.67,86.72,8l-4.9,1.1c-.36-1.32-.7-3.15-2.48-2.88a1.62,1.62,0,0,0-1.51,1.93c.15,1.39,1,1.94,2.23,2.42a38.44,38.44,0,0,1,5.68,2.1c1.5.87,2.56,2.22,3.18,5,1,4.36-.91,7.32-5.32,8.3C78.71,27,76,24.77,75.38,21.77l-.54-2.42Z"/><path d="M96.31,16l0,1.64c0,1.33.39,2.52,2.13,2.55,1.27,0,1.85-1.12,1.87-2.29,0-2-1.57-2.72-3-3.61a15.64,15.64,0,0,1-4.07-3.1,6.79,6.79,0,0,1-1.51-4.67c.07-4.37,2.74-6.56,7-6.49,4.74.08,7.11,3.28,6.79,7.64l-5-.08c0-1.36.05-3.22-1.74-3.38a1.61,1.61,0,0,0-1.92,1.52c-.18,1.39.52,2.12,1.6,2.88a38.31,38.31,0,0,1,5,3.37c1.25,1.2,2,2.76,1.92,5.58-.07,4.46-2.59,6.9-7.12,6.83-5-.08-7.05-2.9-7-6l0-2.48Z"/><path d="M107.07,24.4l4.26-22.86,5.36,1L112.43,25.4Z"/><path d="M114.93,25.78,123.17,4l12,4.55-1.65,4.35-6.9-2.61-1.46,3.86,6.35,2.41-1.65,4.35-6.35-2.41L120,27.71Z"/><path d="M127,30.7,138.4,10.41l4.76,2.67L131.8,33.36Z"/><path d="M134,34.47l14.74-18,9.66,7.92L155.44,28,150,23.55l-2.71,3.31,5.27,4.33-2.95,3.6-5.27-4.33-3.19,3.88,5.73,4.7-2.95,3.6Z"/><path d="M145.43,44.08,164,30.15l3.55,4.74c1.19,1.59,2.57,3.54,2.81,5.57.27,2.43-1.34,4.06-3.13,5.4L159,52c-1.88,1.37-3.67,1.82-5.41,1.15A8.69,8.69,0,0,1,149.83,50ZM152,45.94c2,3.08,3.2,2.21,5.63.28l6.08-4.55c2.17-1.66,1.75-2.47.21-4.64Z"/></svg>