<svg id="Layer_1" data-name="Layer 1" xmlns="http://www.w3.org/2000/svg" viewBox="0 0 129.86 183.81"><title>UL_gas_fired_listed</title><circle cx="65.07" cy="88.53" r="53" style="fill:#fff"/><path d="M10.81,7.5A4.3,4.3,0,0,0,9.07,4.37a3.14,3.14,0,0,0-1.72-.49,3.41,3.41,0,0,0-3,2,12.22,12.22,0,0,0-1.16,6q0,4,1.26,5.72a3.58,3.58,0,0,0,2.87,1.68A3.11,3.11,0,0,0,9.93,18a6.82,6.82,0,0,0,1.24-3.46H7.72V10.84H14V22.62H11.87l-.31-2.73a9.05,9.05,0,0,1-1.63,2.17,4.45,4.45,0,0,1-3.06,1.1,5.64,5.64,0,0,1-4.89-3q-2-3-2-8.3A15.92,15.92,0,0,1,2,3.31,6.06,6.06,0,0,1,7.33.09a5.67,5.67,0,0,1,4.61,2.12,9.28,9.28,0,0,1,2,5.29Z"/><path d="M22.39.62h3.79l5.74,22H28.24l-1.08-4.56h-6l-1.11,4.56H16.58Zm-.27,13.69h4.16l-2-8.66Z"/><path d="M36.89,15.84a5.57,5.57,0,0,0,.6,2.24,3,3,0,0,0,2.79,1.35,4.44,4.44,0,0,0,1.92-.36,2.57,2.57,0,0,0,1.4-2.54,2.1,2.1,0,0,0-.69-1.68,6.27,6.27,0,0,0-2.18-1L39,13.31a9,9,0,0,1-3.45-1.69A6.29,6.29,0,0,1,34,6.86,7.63,7.63,0,0,1,35.54,2,5.49,5.49,0,0,1,40.1,0,5.75,5.75,0,0,1,44.4,1.84a7.69,7.69,0,0,1,1.86,5.35H43.1a3.42,3.42,0,0,0-1.26-2.82,3.31,3.31,0,0,0-2-.55,2.93,2.93,0,0,0-2.07.72,2.59,2.59,0,0,0-.77,2,2.08,2.08,0,0,0,.76,1.76,7.71,7.71,0,0,0,2.09.91l2.76.91a6.19,6.19,0,0,1,2.71,1.6,6.48,6.48,0,0,1,1.4,4.49,7.53,7.53,0,0,1-1.67,5,5.79,5.79,0,0,1-4.7,2,6.26,6.26,0,0,1-4.88-2,7.71,7.71,0,0,1-1.78-5.39Z"/><path d="M48.77,12.09h8v4h-8Z"/><path d="M60.23.69H72.48V4.53H63.82V9.59h7.59v3.78H63.82v9.25H60.23Z"/><path d="M79.89,22.62H75.52V.66h4.37Z"/><path d="M94.48,1.19A4.37,4.37,0,0,1,96,2.73a7.66,7.66,0,0,1,.82,1.85,8.13,8.13,0,0,1,.3,2.31A8.49,8.49,0,0,1,96.53,10a3.72,3.72,0,0,1-1.92,2.14,3.45,3.45,0,0,1,1.6,1.74,9.47,9.47,0,0,1,.47,3.45v1.48a15.69,15.69,0,0,0,.09,2.05,2,2,0,0,0,.6,1.26v.55H93.63q-.16-.73-.22-1.18a14.45,14.45,0,0,1-.14-1.9l0-2.05a5.33,5.33,0,0,0-.53-2.82,2.24,2.24,0,0,0-1.92-.7H87.49v8.66H84.15V.62h7.77A5.46,5.46,0,0,1,94.48,1.19Zm-7,3.25v5.91h3.63A3,3,0,0,0,92.75,10a2.75,2.75,0,0,0,1-2.48,3.18,3.18,0,0,0-.93-2.68,2.61,2.61,0,0,0-1.56-.39Z"/><path d="M112.42,4.53h-8.19V9.22h7.5V13h-7.5v5.69h8.56v3.94H101V.66h11.41Z"/><path d="M125.64,1.1a5.85,5.85,0,0,1,2.76,2.79,11.82,11.82,0,0,1,1.16,3.55,22.94,22.94,0,0,1,.31,3.64,19,19,0,0,1-1.3,7.43q-1.76,4.1-5.43,4.1h-7V.62h7A6.47,6.47,0,0,1,125.64,1.1Zm-6.21,3.33V18.81h3.13q2.4,0,3.35-3.21a15,15,0,0,0,.52-4.2,13.48,13.48,0,0,0-.78-5.16,3,3,0,0,0-3.09-1.8Z"/><polyline points="10.66 183.11 10.66 153.27 17.66 153.27 17.66 177.16 26.22 177.16 26.22 183.11 10.66 183.11"/><rect x="28.88" y="153.27" width="7.01" height="29.84"/><path d="M45,173.11v2.11c0,1.7.56,3.22,2.8,3.22,1.63,0,2.35-1.47,2.35-3,0-2.5-2.07-3.46-3.9-4.57A20,20,0,0,1,41,167a8.67,8.67,0,0,1-2-6c0-5.61,3.39-8.48,8.81-8.48,6.09,0,9.19,4.06,8.88,9.67H50.16c-.08-1.75,0-4.13-2.31-4.29a2.07,2.07,0,0,0-2.43,2c-.2,1.79.71,2.7,2.11,3.66,2.63,1.67,4.9,2.7,6.53,4.21s2.59,3.5,2.59,7.11c0,5.72-3.19,8.91-9,8.91-6.42,0-9.13-3.59-9.13-7.52v-3.18H45"/><polyline points="58.66 153.27 76.81 153.27 76.81 159.21 71.16 159.21 71.16 183.11 64.15 183.11 64.15 159.21 58.66 159.21 58.66 153.27"/><polyline points="79.52 183.11 79.52 153.27 95.56 153.27 95.56 159.21 86.53 159.21 86.53 164.76 95.28 164.76 95.28 170.7 86.53 170.7 86.53 177.16 96.03 177.16 96.03 183.11 79.52 183.11"/><path d="M106.42,158.65c3.4.08,4.54.28,4.58,3.78v9.73c.12,4,.08,5.88-4.58,5.56Zm2.41,24.46a11.12,11.12,0,0,0,6.19-1.4c2-1.27,2.95-3.47,3-6.45V162c0-2.86-.44-5.77-3.14-7.36-2.27-1.31-5.32-1.39-7.85-1.39h-7.6V183.1h9.42"/><path d="M7.27,88.3A57.62,57.62,0,1,1,64.9,145.92,57.62,57.62,0,0,1,7.27,88.3ZM64.9,135.22A46.92,46.92,0,1,0,18,88.29,46.93,46.93,0,0,0,64.9,135.22"/><path d="M36.78,57.39H47.41V91.63c0,2.18.67,4.05,3.69,4.05,2.78,0,3.63-2.42,3.63-4.36V57.39H65.36V90.24c0,7.68-3.44,13.62-14.32,13.62-9,0-14.26-4.3-14.26-13.62V57.39"/><polyline points="69.55 119.21 69.55 73.8 80.17 73.8 80.17 110.11 93.19 110.11 93.19 119.21 69.55 119.21"/><path d="M49.74,110h1.1c.53,0,1.48,0,1.5,1.24a1.21,1.21,0,0,1-1.36,1.3H49.74Zm0,3.25h1.37c.92,0,1.2.6,1.2,1.31a6.59,6.59,0,0,0,.24,1.8h.92v-.16c-.19,0-.25-.31-.27-.44-.08-.53-.12-1-.15-1.57-.11-.94-.34-1.23-1.25-1.32v0a1.51,1.51,0,0,0,1.36-1.53c0-1.63-.89-2-2.37-2H49v7.06h.78v-3.1"/><path d="M44.64,112.86a6.45,6.45,0,1,0,6.45-6.45A6.46,6.46,0,0,0,44.64,112.86Zm.68,0a5.77,5.77,0,1,1,5.77,5.77,5.78,5.78,0,0,1-5.77-5.77"/></svg>