<svg id="Layer_1" data-name="Layer 1" xmlns="http://www.w3.org/2000/svg" width="96.73" height="29.17" viewBox="0 0 96.73 29.17">
  <defs>
    <style>
      .cls-1 {
        fill: #fff;
      }
    </style>
  </defs>
  <title>caution_icon-property_damage</title>
  <g>
    <polyline points="0 29.17 96.73 29.17 96.73 0 0 0"/>
    <g>
      <path class="cls-1" d="M24.45,16.25l2,.62a4.4,4.4,0,0,1-1.5,2.44,4.28,4.28,0,0,1-2.66.8A4.31,4.31,0,0,1,19,18.74,5.22,5.22,0,0,1,17.68,15,5.48,5.48,0,0,1,19,11.12a4.43,4.43,0,0,1,3.4-1.38,4.17,4.17,0,0,1,3,1.09,4,4,0,0,1,1,1.85l-2,.48a2.07,2.07,0,0,0-2.11-1.68,2.28,2.28,0,0,0-1.81.8,3.92,3.92,0,0,0-.69,2.59,4.2,4.2,0,0,0,.68,2.71,2.22,2.22,0,0,0,1.78.81,2,2,0,0,0,1.39-.51A3,3,0,0,0,24.45,16.25Z"/>
      <path class="cls-1" d="M37.19,19.93H35l-.87-2.28h-4l-.83,2.28H27.13l3.9-10h2.14Zm-3.73-4-1.38-3.72L30.73,16Z"/>
      <path class="cls-1" d="M38.24,9.91h2v5.43A11.31,11.31,0,0,0,40.34,17,1.62,1.62,0,0,0,41,18a2.15,2.15,0,0,0,1.34.37A2,2,0,0,0,43.6,18a1.39,1.39,0,0,0,.53-.86,11.23,11.23,0,0,0,.09-1.7V9.91h2v5.26a13.53,13.53,0,0,1-.16,2.55A2.82,2.82,0,0,1,45.47,19a3,3,0,0,1-1.18.82,5.12,5.12,0,0,1-1.93.3,5.53,5.53,0,0,1-2.18-.33A3.1,3.1,0,0,1,39,18.91a2.76,2.76,0,0,1-.57-1.11,12.19,12.19,0,0,1-.2-2.54Z"/>
      <path class="cls-1" d="M50.62,19.93V11.61h-3V9.91h8v1.7h-3v8.33Z"/>
      <path class="cls-1" d="M56.86,19.93v-10h2v10Z"/>
      <path class="cls-1" d="M60.4,15a6.37,6.37,0,0,1,.46-2.57A4.71,4.71,0,0,1,61.79,11a3.89,3.89,0,0,1,1.29-.9,5.5,5.5,0,0,1,2.16-.4,4.71,4.71,0,0,1,3.54,1.37,5.27,5.27,0,0,1,1.33,3.82,5.25,5.25,0,0,1-1.32,3.8,4.67,4.67,0,0,1-3.53,1.37,4.72,4.72,0,0,1-3.55-1.36A5.17,5.17,0,0,1,60.4,15Zm2.08-.07a3.75,3.75,0,0,0,.79,2.58,2.7,2.7,0,0,0,4,0A3.83,3.83,0,0,0,68,14.89a3.77,3.77,0,0,0-.75-2.57,2.8,2.8,0,0,0-4,0A3.78,3.78,0,0,0,62.48,14.92Z"/>
      <path class="cls-1" d="M71.72,19.93v-10h2l4.1,6.69V9.91h1.88v10h-2l-4-6.54v6.54Z"/>
    </g>
  </g>
</svg>
