<svg id="ƒŒƒCƒ__xFF0D__1" data-name="ƒŒƒCƒ„_xFF0D__1" xmlns="http://www.w3.org/2000/svg" viewBox="0 0 37.5 32.45"><title>caution_triangle-whte_on_blck</title><path d="M514.59,351a1.75,1.75,0,0,1,2.78,0l17.23,29.36a1.75,1.75,0,0,1-1.39,2.4H498.75a1.75,1.75,0,0,1-1.39-2.4Z" transform="translate(-497.23 -350.33)"/><polygon points="2.97 30.03 34.52 30.03 18.75 2.86 2.97 30.03"/><circle cx="18.74" cy="26.45" r="2.2" style="fill:#fff"/><path d="M516,376.78" transform="translate(-497.23 -350.33)"/><path d="M516,361" transform="translate(-497.23 -350.33)"/><path d="M517,371.88a1,1,0,0,1-2.06,0L513.55,361a2.41,2.41,0,0,1,4.83,0Z" transform="translate(-497.23 -350.33)" style="fill:#fff"/></svg>