<svg id="Layer_1" data-name="Layer 1" xmlns="http://www.w3.org/2000/svg" width="96.73" height="29.17" viewBox="0 0 96.73 29.17">
  <defs>
    <style>
      .cls-1 {
        fill: #fff;
      }
    </style>
  </defs>
  <title>caution_icon</title>
  <g>
    <polyline points="0 29.17 96.73 29.17 96.73 0 0 0"/>
    <g>
      <path class="cls-1" d="M15.35,7.08a1.23,1.23,0,0,0-1.2-.87A1.13,1.13,0,0,0,13,7.08L4.93,21.33c-1.06,1.82-.14,2.54.92,2.62H22.44c1.13-.07,2-.8.92-2.62Z"/>
      <g>
        <path d="M14.7,17.71a.54.54,0,0,1-.5.51h-.07a.49.49,0,0,1-.5-.51c-1.63-5.31-2.41-9,.5-9S16.26,12.4,14.7,17.71Z"/>
        <path d="M14.14,23.46a1.6,1.6,0,0,1,0-3.2h.07a1.6,1.6,0,0,1-.07,3.2Z"/>
      </g>
    </g>
    <g>
      <path class="cls-1" d="M33.45,20.25l2,.62a4.4,4.4,0,0,1-1.5,2.44A4.72,4.72,0,0,1,28,22.74,5.22,5.22,0,0,1,26.68,19,5.48,5.48,0,0,1,28,15.13a4.43,4.43,0,0,1,3.4-1.38,4.17,4.17,0,0,1,3,1.09,4,4,0,0,1,1,1.85l-2,.48a2.07,2.07,0,0,0-2.11-1.68,2.28,2.28,0,0,0-1.81.8,3.92,3.92,0,0,0-.69,2.59,4.2,4.2,0,0,0,.68,2.71,2.22,2.22,0,0,0,1.78.81,2,2,0,0,0,1.39-.51A3,3,0,0,0,33.45,20.25Z"/>
      <path class="cls-1" d="M46.19,23.93H44l-.87-2.28h-4l-.83,2.28H36.13l3.9-10h2.14Zm-3.73-4-1.38-3.72L39.73,20Z"/>
      <path class="cls-1" d="M47.24,13.91h2v5.43A11.31,11.31,0,0,0,49.34,21,1.62,1.62,0,0,0,50,22a2.15,2.15,0,0,0,1.34.37A2,2,0,0,0,52.6,22a1.39,1.39,0,0,0,.53-.86,11.23,11.23,0,0,0,.09-1.7V13.91h2v5.26a13.53,13.53,0,0,1-.16,2.55A2.82,2.82,0,0,1,54.47,23a3,3,0,0,1-1.18.82,5.12,5.12,0,0,1-1.93.3,5.53,5.53,0,0,1-2.18-.33A3.1,3.1,0,0,1,48,22.91a2.76,2.76,0,0,1-.57-1.11,12.19,12.19,0,0,1-.2-2.54Z"/>
      <path class="cls-1" d="M59.62,23.93V15.61h-3v-1.7h8v1.7h-3v8.33Z"/>
      <path class="cls-1" d="M65.86,23.93v-10h2v10Z"/>
      <path class="cls-1" d="M69.4,19a6.36,6.36,0,0,1,.46-2.57A4.71,4.71,0,0,1,70.79,15a3.89,3.89,0,0,1,1.29-.9,5.5,5.5,0,0,1,2.16-.4,4.71,4.71,0,0,1,3.54,1.37,5.27,5.27,0,0,1,1.33,3.82,5.25,5.25,0,0,1-1.32,3.8,4.67,4.67,0,0,1-3.53,1.37,4.72,4.72,0,0,1-3.55-1.36A5.17,5.17,0,0,1,69.4,19Zm2.08-.07a3.75,3.75,0,0,0,.79,2.58,2.7,2.7,0,0,0,4,0A3.83,3.83,0,0,0,77,18.89a3.77,3.77,0,0,0-.75-2.57,2.8,2.8,0,0,0-4,0A3.78,3.78,0,0,0,71.48,18.92Z"/>
      <path class="cls-1" d="M80.72,23.93v-10h2l4.1,6.69V13.91h1.88v10h-2l-4-6.54v6.54Z"/>
    </g>
  </g>
</svg>
