<svg id="Layer_1" data-name="Layer 1" xmlns="http://www.w3.org/2000/svg" width="96.73" height="29.17" viewBox="0 0 96.73 29.17">
  <defs>
    <style>
      .cls-1 {
        fill: #fff;
      }
    </style>
  </defs>
  <title>danger_icon</title>
  <g>
    <polyline points="0 29.17 96.73 29.17 96.73 0 0 0"/>
    <g>
      <path class="cls-1" d="M15.35,7.08a1.23,1.23,0,0,0-1.2-.87A1.13,1.13,0,0,0,13,7.08L4.93,21.33c-1.06,1.82-.14,2.54.92,2.62H22.44c1.13-.07,2-.8.92-2.62Z"/>
      <g>
        <path d="M14.7,17.71a.54.54,0,0,1-.5.51h-.07a.49.49,0,0,1-.5-.51c-1.63-5.31-2.41-9,.5-9S16.26,12.4,14.7,17.71Z"/>
        <path d="M14.14,23.46a1.6,1.6,0,0,1,0-3.2h.07a1.6,1.6,0,0,1-.07,3.2Z"/>
      </g>
    </g>
    <g>
      <path class="cls-1" d="M27,13.91h3.7a7.23,7.23,0,0,1,1.91.19,3.35,3.35,0,0,1,1.51.92,4.38,4.38,0,0,1,1,1.62A7.4,7.4,0,0,1,35.43,19a6.59,6.59,0,0,1-.31,2.13,4.43,4.43,0,0,1-1.07,1.77,3.56,3.56,0,0,1-1.42.8,6.14,6.14,0,0,1-1.79.21H27Zm2,1.7v6.64h1.51a5.53,5.53,0,0,0,1.22-.1,1.87,1.87,0,0,0,.82-.42,2.12,2.12,0,0,0,.53-1,6.53,6.53,0,0,0,.21-1.83,6,6,0,0,0-.21-1.78,2.29,2.29,0,0,0-.57-1,1.93,1.93,0,0,0-.94-.47,9.15,9.15,0,0,0-1.66-.1Z"/>
      <path class="cls-1" d="M46.19,23.93H44l-.87-2.28h-4l-.83,2.28H36.13l3.9-10h2.14Zm-3.73-4-1.38-3.72L39.73,20Z"/>
      <path class="cls-1" d="M47.28,23.93v-10h2l4.1,6.69V13.91h1.88v10h-2l-4-6.54v6.54Z"/>
      <path class="cls-1" d="M62,20.25V18.56h4.36v4a5.48,5.48,0,0,1-1.84,1.08,6.69,6.69,0,0,1-2.44.47,5.48,5.48,0,0,1-2.74-.66,4.19,4.19,0,0,1-1.76-1.89A6.1,6.1,0,0,1,57,18.89a5.77,5.77,0,0,1,.66-2.78,4.42,4.42,0,0,1,1.92-1.87,5.19,5.19,0,0,1,2.4-.5,4.79,4.79,0,0,1,2.92.78,3.53,3.53,0,0,1,1.35,2.16l-2,.38a2.12,2.12,0,0,0-.8-1.17A2.41,2.41,0,0,0,62,15.47a2.74,2.74,0,0,0-2.11.84,3.54,3.54,0,0,0-.78,2.5,3.92,3.92,0,0,0,.79,2.68,2.65,2.65,0,0,0,2.08.89,3.47,3.47,0,0,0,1.27-.25,4.38,4.38,0,0,0,1.1-.6V20.25Z"/>
      <path class="cls-1" d="M68.26,23.93v-10h7.43v1.7H70.28v2.22h5v1.69h-5v2.73h5.6v1.69Z"/>
      <path class="cls-1" d="M77.6,23.93v-10h4.26a7.29,7.29,0,0,1,2.33.27,2.31,2.31,0,0,1,1.17,1,2.88,2.88,0,0,1,.44,1.58,2.67,2.67,0,0,1-.66,1.86,3.18,3.18,0,0,1-2,.93,4.71,4.71,0,0,1,1.08.84A11.47,11.47,0,0,1,85.39,22l1.22,2H84.19l-1.46-2.18a14.21,14.21,0,0,0-1.07-1.47,1.56,1.56,0,0,0-.61-.42,3.34,3.34,0,0,0-1-.11h-.41v4.18Zm2-5.78h1.5A7.73,7.73,0,0,0,82.94,18a1.09,1.09,0,0,0,.57-.42,1.31,1.31,0,0,0,.21-.75,1.2,1.2,0,0,0-.27-.82,1.24,1.24,0,0,0-.76-.39q-.25,0-1.48,0H79.63Z"/>
    </g>
  </g>
</svg>
