<svg id="Layer_1" data-name="Layer 1" xmlns="http://www.w3.org/2000/svg" viewBox="0 0 72.49 84.81"><title>electrical_shock_icon</title><path d="M0,4.77S15.21,17,19.43,21.19c1.18,1.32,3.63,4.37.07,8A78.31,78.31,0,0,0,13.87,35C11.13,37.52,9,43.5,14,47.82a25.9,25.9,0,0,0,9.37,4.41c.23.05.2-.29.34-.59l.34-.93h0c.92.2,1,.37,1.42,1.05l1.34,3.41c.19.56,1.23.39,1.07-.16l-1.39-3.83c1.23.41,2.94,1,4.35,1.39.54.15.82-.88.24-1.08L27,50.11l4-.8c.4-.11.35-1.11-.47-1,0,0-4.17.93-4.64,1a3.12,3.12,0,0,1-1.35-.13l.5-1.8c.18-.66.32-.65,0-.8A40.47,40.47,0,0,1,20,44.79c-5.45-2.49-2.39-6.29-.68-7.64a33,33,0,0,0,6.25-6.3c4.31-7.33-.47-12.46-3.49-15.18S3.46,0,3.46,0Z"/><path d="M72.25,19.61c0-3.78-5.3-3.78-5.34-.34L65.69,42.13a1,1,0,0,1-2,0l0-29.78a2.77,2.77,0,1,0-5.53-.2l-.37,28.46a1,1,0,1,1-2,0L55,7.47c0-4.86-6.18-4.59-6.18.07l.84,33.66c0,1.57-2.06,1.62-2-.1L47,12.5c-.18-4.47-6.32-4.07-6.28.24l.84,33.12c-.09,1.52-1.92,1.42-1.92,0l-.23-11.53c-.19-7.11-4-7.56-5.44-8.29s-1.55.69-1.5,1.67c0,2.79.52,7.06.14,10.06A21.45,21.45,0,0,0,32.85,41a91.16,91.16,0,0,1,.42,12l20.42-7.6c.89-.3,1.22.29.84.83l-5.72,8.88c-.19.25-.28.59.42.39l17.47-6.62c.56-.2,1.36.29.56,1.13l-8.71,8.58c-.56.49-.42.79.38.69l13.4-3.14Z"/><path d="M72.48,60.38c.09-.64-.42-.44-.75-.34l-22.91,5.2c-.7,0-.7-.49-.28-.88l6.09-6.08c.65-.59-.09-.69-.42-.54l-13.68,5.1c-.84.3-.75-.44-.56-.73l5.76-8.83c.56-.79-.23-.79-.52-.64L33.36,57c0,3.92-.8,6,2.81,12.66.7,1.33,5,6.92,5,11.19a11.65,11.65,0,0,1-.66,3.92H66.35c-.14-3-.28-5.3-.28-5.3-.09-1.82-.42-2.6,1.36-5.5C69.58,69.95,71.5,66.32,72.48,60.38Z"/></svg>