<svg id="Layer_1" data-name="Layer 1" xmlns="http://www.w3.org/2000/svg" viewBox="0 0 32.89 54.96"><title>fire_icon</title><path d="M3.18,33.59c0-.05,0-1.73,0-1.79.08-.91.44-3.41.49-4.08a27.32,27.32,0,0,0-.08-6.94c0-.23.95.45,2.49,2.86.47.72,1.11,2,1.35,2.28s.53.15.56-.49c.09-1.9.44-3.36.63-4.83a36.35,36.35,0,0,0,.47-6.25c0-1.7-.12-2,.63-1.23a8.42,8.42,0,0,1,2.1,3c.42,1,.7,3.91,1.1,1a15,15,0,0,0,.32-2.83c0-.79.13-1.87.17-3.12.13-3.76.93-5,1-5.14.27-.54.49,1,.73,1.9s.44,1,1.68,3.36c2.06,3.88,1.41,3,2.44,4.21,2.52,2.83,1.51,7,2.44,4.2.49-1.48.94-2.3,1.09-3,.75-3.37.66-2.56,1.38-.88.54,1.27,2.1,4,1.95,6.57a11.87,11.87,0,0,0,.1,3.48c.57,4.41.65,3.43,1.45,1.2,1.93-5.35,1.53-3.88,1.84-3.22a15.51,15.51,0,0,1,1.61,4.49c.5,3.82.34,4.05,0,6.08-.73,4.75-2.12,5.42.21,4.13,1-.54,1.46-1.76,1.35-1-1,7.46-1.32,7.71-4.16,11C26,51.68,22.52,52.54,19,52.95a29.34,29.34,0,0,1-9.42-.46A11.66,11.66,0,0,1,3.41,49.3C.7,46.43.55,44.55.31,40.83c0-.16,0-1.37,0-1.52,0-.39,0,.33,0-1.67a82.43,82.43,0,0,0-.2-8.71c-.16-.69,1.57,1.15,3.05,4.6Z" transform="translate(0 0)" style="stroke:#000;stroke-width:0.202877px"/><rect x="4.28" y="53.69" width="22.68" height="1.17" style="stroke:#000;stroke-width:0.202877px"/><path d="M20.52,11.64A4.28,4.28,0,0,1,21,10.15c.29-.38.11-.41,1.74-1.42a1.83,1.83,0,0,0,.83-1c.09-.24.19-.48.25-.13a2.81,2.81,0,0,1-.08,1.34,2,2,0,0,1-.54.9,9.93,9.93,0,0,1-1.23.79,4.79,4.79,0,0,0-1.09.9c-.18.22-.35.28-.35.14Z" transform="translate(0 0)" style="stroke:#000;stroke-width:0.09738000000000001px"/><path d="M14.25,25.42a4.24,4.24,0,0,1,.46-1.49c.29-.38.11-.4,1.74-1.42a1.85,1.85,0,0,0,.83-1c.09-.25.19-.48.25-.13a2.81,2.81,0,0,1-.07,1.34,2,2,0,0,1-.54.9,9.82,9.82,0,0,1-1.23.8,4.5,4.5,0,0,0-1.09.89c-.18.22-.35.28-.35.14Z" transform="translate(0 0)" style="fill:#fff;stroke:#000;stroke-width:0.09738000000000001px"/><path d="M12.63,4.24a4.21,4.21,0,0,0-.48-1.48c-.3-.38-.12-.4-1.77-1.39a1.83,1.83,0,0,1-.85-1c-.1-.24-.2-.48-.26-.13a2.83,2.83,0,0,0,.1,1.34,2,2,0,0,0,.56.89,9.35,9.35,0,0,0,1.24.77,4.75,4.75,0,0,1,1.1.88c.18.21.35.27.35.13Z" transform="translate(0 0)" style="stroke:#000;stroke-width:0.09738000000000001px"/><path d="M12.85,52.88a34.21,34.21,0,0,1-4.44-4.54,11.68,11.68,0,0,1-2.54-5.11c-.23-1.74-.36-2.05.57-.39.06.1.45.89.69.88s.11-1.13.31-2.17a26.88,26.88,0,0,0,.34-2.89c0-1.44.05-2.84,0-3.24,0-.24,0-.72.05-.73a1.76,1.76,0,0,1,.81,1,11.36,11.36,0,0,1,.59,2.92,8,8,0,0,0,1.19,4.11,1.84,1.84,0,0,0,1.44.87c.22,0,.11-.54,0-1a9.77,9.77,0,0,1-.2-2.14,10.48,10.48,0,0,1,.14-2.82,14.29,14.29,0,0,1,.49-1.95c.57-1.36.54-.35.57,0a8.76,8.76,0,0,0,.22,1.24A9.49,9.49,0,0,0,14.47,40c.82,1.1,1.16,1.16,1.16,1.16a3.17,3.17,0,0,0,1-1.28,15.62,15.62,0,0,0,1.14-3.83c.22-1.27.17-5.37.27-6.77,0-.61,1.68,1.85,2.22,3.42a8.94,8.94,0,0,1,.51,4.13c-.15,1-.28,1.43.17,1.56.09,0,.74-.3,1.16-1.31s.93-2.15,1.1-1.33a14.54,14.54,0,0,1,.49,3.26c0,.91-.82,2.9-.25,3.14.13.05.34,0,.73-.4s1-1,.74,0a25.7,25.7,0,0,1-2.14,4.36,30.14,30.14,0,0,1-4.17,4.65A25.21,25.21,0,0,1,16.14,53Z" transform="translate(0 0)" style="fill:#fff;stroke:#000;stroke-width:0.09738000000000001px"/></svg>