<svg id="Layer_1" data-name="Layer 1" xmlns="http://www.w3.org/2000/svg" width="96.73" height="29.17" viewBox="0 0 96.73 29.17">
  <defs>
    <style>
      .cls-1 {
        fill: #fff;
      }
    </style>
  </defs>
  <title>warning_icon</title>
  <g>
    <polyline points="0 29.17 96.73 29.17 96.73 0 0 0"/>
    <g>
      <path class="cls-1" d="M15.35,7.08a1.23,1.23,0,0,0-1.2-.87A1.13,1.13,0,0,0,13,7.08L4.93,21.33c-1.06,1.82-.14,2.54.92,2.62H22.44c1.13-.07,2-.8.92-2.62Z"/>
      <g>
        <path d="M14.7,17.71a.54.54,0,0,1-.5.51h-.07a.49.49,0,0,1-.5-.51c-1.63-5.31-2.41-9,.5-9S16.26,12.4,14.7,17.71Z"/>
        <path d="M14.14,23.46a1.6,1.6,0,0,1,0-3.2h.07a1.6,1.6,0,0,1-.07,3.2Z"/>
      </g>
    </g>
    <g>
      <path class="cls-1" d="M28.46,23.93l-2.39-10h2.07l1.51,6.88,1.83-6.88h2.41l1.76,7,1.54-7h2l-2.43,10H34.64l-2-7.49-2,7.49Z"/>
      <path class="cls-1" d="M48.52,23.93h-2.2l-.87-2.28h-4l-.83,2.28H38.46l3.9-10H44.5Zm-3.73-4-1.38-3.72L42.06,20Z"/>
      <path class="cls-1" d="M49.6,23.93v-10h4.26a7.29,7.29,0,0,1,2.33.27,2.31,2.31,0,0,1,1.17,1,2.88,2.88,0,0,1,.44,1.58,2.67,2.67,0,0,1-.66,1.86,3.18,3.18,0,0,1-2,.93,4.71,4.71,0,0,1,1.08.84A11.47,11.47,0,0,1,57.38,22l1.22,2H56.19l-1.46-2.18a14.21,14.21,0,0,0-1.07-1.47,1.56,1.56,0,0,0-.61-.42,3.34,3.34,0,0,0-1-.11h-.41v4.18Zm2-5.78h1.5A7.73,7.73,0,0,0,54.94,18a1.09,1.09,0,0,0,.57-.42,1.31,1.31,0,0,0,.21-.75,1.2,1.2,0,0,0-.27-.82,1.24,1.24,0,0,0-.76-.39q-.25,0-1.48,0H51.62Z"/>
      <path class="cls-1" d="M59.72,23.93v-10h2l4.1,6.69V13.91h1.88v10h-2l-4-6.54v6.54Z"/>
      <path class="cls-1" d="M69.75,23.93v-10h2v10Z"/>
      <path class="cls-1" d="M73.72,23.93v-10h2l4.1,6.69V13.91h1.88v10h-2l-4-6.54v6.54Z"/>
      <path class="cls-1" d="M88.47,20.25V18.56h4.36v4A5.48,5.48,0,0,1,91,23.64a6.69,6.69,0,0,1-2.44.47,5.48,5.48,0,0,1-2.74-.66A4.19,4.19,0,0,1,84,21.56a6.1,6.1,0,0,1-.59-2.67,5.77,5.77,0,0,1,.66-2.78A4.42,4.42,0,0,1,86,14.24a5.19,5.19,0,0,1,2.4-.5,4.79,4.79,0,0,1,2.92.78,3.53,3.53,0,0,1,1.35,2.16l-2,.38a2.12,2.12,0,0,0-.8-1.17,2.41,2.41,0,0,0-1.46-.43,2.74,2.74,0,0,0-2.11.84,3.54,3.54,0,0,0-.78,2.5,3.92,3.92,0,0,0,.79,2.68,2.65,2.65,0,0,0,2.08.89,3.47,3.47,0,0,0,1.27-.25,4.38,4.38,0,0,0,1.1-.6V20.25Z"/>
    </g>
  </g>
</svg>
