<svg id="all_icons" data-name="all icons" xmlns="http://www.w3.org/2000/svg" width="0.42in" height="0.42in" viewBox="0 0 30.56 29.99">
  <defs>
    <style>
      .cls-1 {
        fill: #fff;
        stroke: #000;
      }

      .cls-2 {
        fill: #231f20;
      }
    </style>
  </defs>
  <title>24_volt_gas_valve_energized_icon</title>
  <g>
    <circle class="cls-1" cx="12.29" cy="17.7" r="11.79"/>
    <polygon class="cls-2" points="22.71 17.17 19.9 19.76 19.9 14.36 22.71 17.17"/>
    <g>
      <path d="M6.08,18.5v-.84H8.26v2a2.76,2.76,0,0,1-.92.54,3.35,3.35,0,0,1-1.22.23,2.74,2.74,0,0,1-1.37-.33,2.09,2.09,0,0,1-.88-.94,3,3,0,0,1-.29-1.33,2.89,2.89,0,0,1,.33-1.39,2.21,2.21,0,0,1,1-.93,2.6,2.6,0,0,1,1.2-.25,2.4,2.4,0,0,1,1.46.39,1.77,1.77,0,0,1,.67,1.08l-1,.19a1.06,1.06,0,0,0-.4-.58,1.2,1.2,0,0,0-.73-.21A1.37,1.37,0,0,0,5,16.53a1.77,1.77,0,0,0-.39,1.25A2,2,0,0,0,5,19.11a1.32,1.32,0,0,0,1,.45,1.74,1.74,0,0,0,.64-.12,2.16,2.16,0,0,0,.55-.3V18.5Z" transform="translate(0 -0.91)"/>
      <path d="M13.71,20.34h-1.1l-.44-1.14h-2l-.41,1.14H8.69l2-5h1.07Zm-1.86-2-.69-1.86-.68,1.86Z" transform="translate(0 -0.91)"/>
      <path d="M14,18.71l1-.1a1.21,1.21,0,0,0,.36.73,1.09,1.09,0,0,0,.73.23,1.13,1.13,0,0,0,.74-.21.62.62,0,0,0,.25-.48.46.46,0,0,0-.1-.3.83.83,0,0,0-.36-.22l-.81-.22a2.76,2.76,0,0,1-1.14-.5,1.31,1.31,0,0,1-.46-1,1.29,1.29,0,0,1,.22-.72,1.35,1.35,0,0,1,.63-.51,2.51,2.51,0,0,1,1-.17,2.12,2.12,0,0,1,1.42.41,1.46,1.46,0,0,1,.5,1.1l-1,0a.86.86,0,0,0-.28-.56,1,1,0,0,0-.64-.17,1.16,1.16,0,0,0-.69.18.37.37,0,0,0-.16.31.38.38,0,0,0,.15.3,2.67,2.67,0,0,0,.93.34,4.85,4.85,0,0,1,1.09.36,1.4,1.4,0,0,1,.55.51,1.58,1.58,0,0,1,0,1.61,1.43,1.43,0,0,1-.68.56,2.84,2.84,0,0,1-1.09.18A2.17,2.17,0,0,1,14.6,20,1.91,1.91,0,0,1,14,18.71Z" transform="translate(0 -0.91)"/>
    </g>
    <g>
      <path class="cls-2" d="M5.59,3.53a3.19,3.19,0,0,1,.23-1.29,2.37,2.37,0,0,1,.47-.69,2,2,0,0,1,.65-.45A2.76,2.76,0,0,1,8,.91a2.35,2.35,0,0,1,1.77.69,2.63,2.63,0,0,1,.66,1.91,2.63,2.63,0,0,1-.66,1.9A2.33,2.33,0,0,1,8,6.09a2.36,2.36,0,0,1-1.78-.68A2.59,2.59,0,0,1,5.59,3.53Zm1,0A1.87,1.87,0,0,0,7,4.79a1.35,1.35,0,0,0,2,0,1.92,1.92,0,0,0,.39-1.31A1.88,1.88,0,0,0,9,2.2a1.28,1.28,0,0,0-1-.42A1.28,1.28,0,0,0,7,2.2,1.9,1.9,0,0,0,6.64,3.5Z" transform="translate(0 -0.91)"/>
      <path class="cls-2" d="M11.25,6V1h3.44v.85H12.26V3h2.09v.85H12.26V6Z" transform="translate(0 -0.91)"/>
      <path class="cls-2" d="M15.53,6V1H19v.85H16.54V3h2.09v.85H16.54V6Z" transform="translate(0 -0.91)"/>
    </g>
    <g>
      <path class="cls-2" d="M25.7,14.65a3.18,3.18,0,0,1,.23-1.29,2.34,2.34,0,0,1,.47-.69,2,2,0,0,1,.65-.45,2.75,2.75,0,0,1,1.08-.2,2.36,2.36,0,0,1,1.77.69,2.64,2.64,0,0,1,.66,1.91,2.62,2.62,0,0,1-.66,1.9,2.33,2.33,0,0,1-1.76.69,2.36,2.36,0,0,1-1.78-.68A2.59,2.59,0,0,1,25.7,14.65Zm1,0a1.87,1.87,0,0,0,.39,1.29,1.35,1.35,0,0,0,2,0,1.92,1.92,0,0,0,.39-1.31,1.88,1.88,0,0,0-.38-1.29,1.4,1.4,0,0,0-2,0A1.9,1.9,0,0,0,26.74,14.62Z" transform="translate(0 -0.91)"/>
      <path class="cls-2" d="M26.11,23.46v-5h1l2.05,3.35V18.45h.94v5h-1l-2-3.27v3.27Z" transform="translate(0 -0.91)"/>
    </g>
  </g>
</svg>
