<svg id="Layer_1" data-name="Layer 1" xmlns="http://www.w3.org/2000/svg" width="223.07" height="186.83" viewBox="0 0 223.07 186.83">
  <defs>
    <style>
      .cls-1, .cls-10, .cls-11, .cls-3, .cls-5, .cls-7, .cls-8, .cls-9 {
        fill: none;
      }

      .cls-1 {
        stroke: #000;
      }

      .cls-1, .cls-2 {
        stroke-miterlimit: 10;
      }

      .cls-2 {
        fill: #fcfcfc;
      }

      .cls-10, .cls-11, .cls-2, .cls-3, .cls-5, .cls-6, .cls-7, .cls-8, .cls-9 {
        stroke: #231f20;
      }

      .cls-10, .cls-2, .cls-7, .cls-9 {
        stroke-linecap: round;
      }

      .cls-3 {
        stroke-width: 0.99px;
      }

      .cls-4 {
        fill: #231f20;
      }

      .cls-5 {
        stroke-width: 0.25px;
      }

      .cls-6 {
        fill: #fff;
        stroke-linecap: square;
        stroke-linejoin: bevel;
      }

      .cls-6, .cls-9 {
        stroke-width: 0.46px;
      }

      .cls-10, .cls-7, .cls-9 {
        stroke-linejoin: round;
      }

      .cls-11, .cls-7 {
        stroke-width: 0.66px;
      }

      .cls-10 {
        stroke-width: 0.39px;
      }
    </style>
  </defs>
  <title>cndnste_drn_instlltn</title>
  <g>
    <line class="cls-1" x1="93.41" y1="164.73" x2="116.19" y2="118.02"/>
    <polygon points="117.94 121.08 120.08 110.06 112.72 118.53 117.94 121.08"/>
  </g>
  <g>
    <circle class="cls-2" cx="92.08" cy="164.56" r="7.37"/>
    <path d="M90.15,167.43a3.23,3.23,0,0,0,1.58.45c1.24,0,1.63-.79,1.62-1.39,0-1-.91-1.43-1.85-1.43H91v-.73h.54c.7,0,1.6-.36,1.6-1.21,0-.57-.36-1.08-1.25-1.08a2.63,2.63,0,0,0-1.43.47l-.25-.7a3.4,3.4,0,0,1,1.87-.55c1.41,0,2,.84,2,1.71a1.77,1.77,0,0,1-1.32,1.68v0a1.86,1.86,0,0,1,1.6,1.84c0,1.14-.89,2.15-2.61,2.15a3.63,3.63,0,0,1-1.86-.48Z"/>
  </g>
  <g>
    <line class="cls-3" x1="158.41" y1="45.06" x2="133.42" y2="81.66"/>
    <polygon class="cls-4" points="132.65 79.69 130.41 86.06 135.53 81.66 132.65 79.69"/>
  </g>
  <rect class="cls-5" x="130.59" y="87.06" width="37.82" height="5.62"/>
  <path class="cls-5" d="M168.11,87.1a7.31,7.31,0,0,1,7.54,7.05"/>
  <path class="cls-5" d="M168.55,92.71a1.3,1.3,0,0,1,1.3,1.3"/>
  <polyline class="cls-5" points="175.85 94.16 175.84 94.16 175.78 94.16 175.65 94.16 175.45 94.16 175.17 94.16 174.83 94.16 174.45 94.16 174.02 94.16 173.57 94.16 173.09 94.16 172.61 94.16 172.13 94.16 171.68 94.16 171.25 94.16 170.86 94.16 170.53 94.16 170.26 94.16 170.05 94.16 169.92 94.16 169.86 94.16 169.85 94.16"/>
  <polyline class="cls-5" points="175.72 94.12 175.72 107.88 170.01 107.88 170.01 94.12"/>
  <g>
    <line class="cls-3" x1="177.08" y1="55.39" x2="161.24" y2="77.01"/>
    <polygon class="cls-4" points="160.09 73.75 156.08 84.06 164.71 77.13 160.09 73.75"/>
  </g>
  <path class="cls-6" d="M161.67,128.09h24.51m-5.9,48,.13.17v.17c.06.88,1.6,1.85,3,1.8H184c1.37.06,2.93-.93,3-1.8v-.35m-19.39,0V177c2.63,12.79,29.58,12.77,32.24,0v-.95m3.27-7.74h-.26l-.26.08h-.26l-.26.09-1,.34-.39.26c-1.05.95-.08.19-.79,1v.43M203.09,160h-1.31c-7.88.45-13.94,4.48-14.68,9.63l-.13.95M167.57,137.9v-.17l-.13-.17v-.17l-.13-.08m13.5-.26-.26.34-.13.26V138l-.13.26m1.83-2.75.26-.17.13-.26v-.17l.13-.17v-.43m-17.43,0v.43l.26.34.13.26.13.17m15.07,29.84-.13.26-.26.34v.43l-.13.26m1.83-2.75.26-.17.13-.26v-.17l.13-.26v-.43m-15.07,4v-.26l-.13-.17v-.26l-.26-.34-.13-.26m-1.83-2.75V163l.13.26.13.17.13.26.13.17m-4.06-34v-1.81m24.51,1.81v-1.81m0,1.81H161.67m3.54,4.38V129.9m17.43,4.38V129.9m-15.33,7.4-1.57-1.81M180.8,137l1.31-1.55m-14.55,21V137.9m12.71,18.57V138.24m2.36,18.23H165.21m17.43,0h0m2.23,1.72H163m0-1.72h2.23M163,158.19v-1.72m21.89,0h-2.23m2.23,1.72v-1.72m-17.3,19.61v-9.46m12.71,9.46v-9.46m19.53,9.46v-5.5m-12.85,0v5.5m-4.32-46.17H165.21m0,32.67v-4.38m17.43,4.38v-4.38m-1.84,7.14,1.31-1.46M167,165.32l-1.31-1.46m41.68-5.42v11.44m0-11.44h0M210,157v14.36m-2.62,0v-1.46m2.62,1.46h-2.62m0-14.36v1.46M210,157h-2.62m0,3h-4.32m4.32,8.34V160m0,8.34h-4.32"/>
  <line class="cls-7" x1="2.25" y1="146.08" x2="167.41" y2="146.08"/>
  <line class="cls-7" x1="222.75" y1="146.39" x2="180.08" y2="146.39"/>
  <line class="cls-3" x1="181.75" y1="108.39" x2="202.41" y2="108.39"/>
  <g>
    <line class="cls-3" x1="192.08" y1="122.03" x2="192.08" y2="113.6"/>
    <polygon class="cls-4" points="193.51 121.05 192.08 126.39 190.65 121.05 193.51 121.05"/>
    <polygon class="cls-4" points="193.51 114.57 192.08 109.23 190.65 114.57 193.51 114.57"/>
  </g>
  <g>
    <line class="cls-3" x1="192.08" y1="71.39" x2="192.08" y2="102.36"/>
    <polygon class="cls-4" points="190.65 101.38 192.08 106.73 193.51 101.38 190.65 101.38"/>
  </g>
  <line class="cls-7" x1="0.33" y1="128.13" x2="221.41" y2="128.13"/>
  <g>
    <line class="cls-8" x1="126.08" y1="166.39" x2="152.22" y2="166.15"/>
    <polygon class="cls-4" points="150.27 169.07 161.08 166.06 150.21 163.26 150.27 169.07"/>
  </g>
  <g>
    <circle class="cls-2" cx="124.41" cy="165.89" r="7.37"/>
    <path d="M125.25,169.87v-1.95h-3.32v-.64l3.19-4.57h1v4.44h1v.76h-1v1.95Zm0-2.71v-2.39q0-.56,0-1.12h0c-.22.42-.4.73-.59,1.06l-1.75,2.43v0Z"/>
  </g>
  <g>
    <circle class="cls-2" cx="191.75" cy="70.56" r="7.37"/>
    <path d="M193.85,68.2h-2.73L190.85,70a3.83,3.83,0,0,1,.58,0,3,3,0,0,1,1.54.38,2,2,0,0,1,1,1.84,2.48,2.48,0,0,1-2.66,2.44,3.51,3.51,0,0,1-1.78-.44l.24-.74a3.2,3.2,0,0,0,1.53.4A1.58,1.58,0,0,0,193,72.33c0-.92-.63-1.58-2.06-1.58a7.45,7.45,0,0,0-1,.08l.46-3.43h3.42Z"/>
  </g>
  <g>
    <circle class="cls-2" cx="178.08" cy="55.56" r="7.37"/>
    <path d="M180,53.07a3.48,3.48,0,0,0-.73,0,2.91,2.91,0,0,0-2.49,2.54h0a2.18,2.18,0,0,1,3.88,1.49,2.39,2.39,0,0,1-2.38,2.52c-1.53,0-2.53-1.19-2.53-3A4.5,4.5,0,0,1,177,53.39a3.89,3.89,0,0,1,2.29-1.06,4.66,4.66,0,0,1,.7-.06Zm-.27,4.13a1.45,1.45,0,0,0-1.47-1.64,1.59,1.59,0,0,0-1.39.88.82.82,0,0,0-.11.43c0,1.18.56,2,1.57,2C179.17,58.91,179.73,58.22,179.73,57.2Z"/>
  </g>
  <g>
    <circle class="cls-2" cx="157.75" cy="45.89" r="7.37"/>
    <path d="M160.23,42.72v.64l-3.11,6.51h-1l3.1-6.33v0h-3.5v-.8Z"/>
  </g>
  <g>
    <line class="cls-8" x1="56.41" y1="23.89" x2="89.31" y2="45.24"/>
    <polygon class="cls-4" points="86.07 46.6 96.75 50.06 89.23 41.72 86.07 46.6"/>
  </g>
  <g>
    <circle class="cls-2" cx="56.41" cy="23.89" r="7.37"/>
    <path d="M56.35,21.62h0l-1.24.67-.19-.74,1.56-.84h.83v7.15h-.94Z"/>
  </g>
  <g>
    <line class="cls-8" x1="51.91" y1="47.56" x2="99.4" y2="60.27"/>
    <polygon class="cls-4" points="97.33 62.06 106.08 62.06 98.5 57.69 97.33 62.06"/>
  </g>
  <g>
    <circle class="cls-2" cx="51.75" cy="46.89" r="7.37"/>
    <path d="M49.59,50.87v-.59l.76-.74C52.17,47.8,53,46.88,53,45.8a1.28,1.28,0,0,0-1.42-1.4,2.44,2.44,0,0,0-1.52.6l-.31-.68a3.14,3.14,0,0,1,2-.73A2,2,0,0,1,54,45.68c0,1.32-1,2.39-2.46,3.84l-.57.53v0h3.21v.8Z"/>
  </g>
  <path class="cls-7" d="M85.25,78.35c0-8,1.33-14.53,3-14.53m-3,14.63c0,8,1.33,14.53,3,14.53M18.76,125.25H30.41l2.29,0,2.27,0,2.25,0,2.23,0,2.2,0,2.17,0L46,125l2.11,0,2.08,0,2,0,2,0,2,0,1.92,0,1.88,0,1.83,0,1.78-.05,1.74,0,1.68-.05,1.63-.06,1.57-.05,1.52-.06,1.46-.06,1.4-.06,1.34-.07,1.28-.06,1.22-.06L79.6,124l1.09-.07,1-.07,1-.07.88-.07.82-.07.75-.07.67-.07.6-.07.53-.07.46-.08.39-.07.31-.08.24-.07.16-.07.09-.08v-.05m-69.2-3.78h1.74m-1.74-1.31h9.31l2.29,0h2.28l2.26,0,2.24,0,2.21,0,2.19,0,2.16,0,2.13,0,2.1,0,2.06,0,2,0,2,0,1.94,0,1.9,0,1.86,0,1.82,0,1.76,0,1.72-.05,1.66-.05,1.61-.06,1.55-.06,1.5-.06,1.44-.06,1.38-.06,1.32-.06,1.26-.06,1.2-.06,1.13-.07,1.07-.07,1-.07.93-.07.86-.07.8-.07.72-.07.65-.07.58-.07.51-.07.43-.07.36-.08.29-.07.22-.07.14-.08.07-.07v0M74.59,120l.06.07a.47.47,0,0,1,0,.13.89.89,0,0,1,0,.15.58.58,0,0,1,0,.16.66.66,0,0,1,0,.15.42.42,0,0,1-.06.12l0,.05m-48.33.07.11,0a.27.27,0,0,1,.11.09.4.4,0,0,1,.08.13.52.52,0,0,1,0,.15.59.59,0,0,1,0,.16.77.77,0,0,1-.05.15.48.48,0,0,1-.1.12l-.12.08a.3.3,0,0,1-.14,0H26.1m52,3.62h-.07l-1.16.07-1.23.06-1.29.06-1.35.06-1.41.06-1.47.06-1.53.06-1.58.06-1.63.05-1.68.05-1.74,0-1.78,0-1.83,0-1.88,0-1.92,0-2,0-2,0-2,0-2.07,0-2.1,0-2.13,0-2.16,0-2.19,0-2.21,0-2.23,0-2.26,0H29l-2.29,0h-8m55.74-6.22s0,.1,0,.16a.79.79,0,0,0,0,.14.3.3,0,0,0,.06.1.17.17,0,0,0,.07.06h.08a.16.16,0,0,0,.08,0,.3.3,0,0,0,.06-.1.43.43,0,0,0,0-.13.63.63,0,0,0,0-.15.58.58,0,0,0,0-.16.71.71,0,0,0,0-.15.4.4,0,0,0-.06-.11.19.19,0,0,0-.07-.07.12.12,0,0,0-.08,0l-.08,0a.31.31,0,0,0-.07.08.71.71,0,0,0-.06.12.88.88,0,0,0,0,.15s0,.06,0,.1m-48.64,1a.58.58,0,0,0,0,.16.42.42,0,0,0,.07.14.45.45,0,0,0,.1.11.36.36,0,0,0,.13.06.35.35,0,0,0,.14,0,.3.3,0,0,0,.13,0,.44.44,0,0,0,.11-.09.51.51,0,0,0,.08-.13.56.56,0,0,0,0-.15.61.61,0,0,0,0-.16.53.53,0,0,0-.06-.15.52.52,0,0,0-.09-.12.41.41,0,0,0-.12-.08l-.14,0a.33.33,0,0,0-.14,0A.36.36,0,0,0,26,121a.54.54,0,0,0-.09.12.67.67,0,0,0-.05.15s0,.07,0,.1m-7.06-2.29H30.36l2.28,0,2.26,0,2.24,0,2.22,0,2.19,0,2.17,0,2.14,0,2.1,0,2.07,0,2,0,2,0,2,0,1.92,0,1.87,0,1.82,0,1.78,0,1.73-.05,1.68,0,1.63-.05,1.57-.06,1.51-.06,1.46-.06,1.4-.06,1.34-.06L77,118l1.21-.06,1.15-.07,1.08-.06,1-.07.95-.07.88-.07.82-.07.74-.07.67-.07.6-.07.53-.07.46-.07.38-.07.31-.08.24-.07.16-.08.09-.07v-.05m-70.51,2.37h8l2.32,0h2.31l2.29,0L35,119l2.25,0,2.23,0,2.2,0,2.17,0,2.14,0,2.11,0,2.08,0,2,0,2,0,2,0,1.92,0,1.88,0,1.83,0,1.79,0,1.73-.05,1.68-.05,1.63-.05,1.57-.06,1.52-.05,1.46-.06,1.4-.06,1.35-.06,1.28-.07,1.22-.06,1.16-.07,1.08-.07,1-.07,1-.07.88-.07.82-.07.75-.07.67-.07.6-.07.53-.08.46-.07.39-.08.31-.07.24-.07.16-.08.09-.07v-.08l-.06-.07-.11-.07m-.11.2,0,0a1.35,1.35,0,0,0,.09-.29,1.63,1.63,0,0,0,0-.35,1.88,1.88,0,0,0,0-.34,1.37,1.37,0,0,0-.08-.3l0,0m0,0V93m0-29.41q0-31.65,0-63.29M55.88,126.26A4.85,4.85,0,0,0,62,126.1m16.2-.64.84,0,1-.06.94-.07.88-.06.82-.07.76-.07.7-.07.64-.07.58-.07.52-.07.47-.08.42-.08.38-.1.36-.12.22-.11.15-.1.15-.12.15-.15a1.47,1.47,0,0,0,.14-.19,1.69,1.69,0,0,0,.2-.52,1,1,0,0,0,0-.35h0m0,0v-6.14"/>
  <path class="cls-9" d="M123.09,55l.1.67h.86L124,55h-.86m1-.67L124,55l.1.67h0V54.28h-.06m-.66,1.35h-.2l-.1-.67.1-.67m.23,1.35v.06l-.06.08-.05,0-.06,0-.05-.09,0-.13,0-.18,0-.2v-.43l0-.2,0-.18m0,0,.05-.13.05-.09.05,0,.06,0,.05.09v.05m-.18,1.51h0l-.05,0-.05-.09,0-.13,0-.18,0-.2v-.43l0-.2,0-.18m0,0,0-.13.05-.09.07,0m.16,1.51v.06l-.06.08-.05,0-.06,0-.05-.09,0-.13,0-.18,0-.2v-.43l0-.2,0-.18m0,0,.05-.13.05-.09.05,0,.06,0,.05.09v.05m-.56-.14.06-.14.06-.09h.14v0h0v0h0v0h0v0m-.35,0-.05.19,0,.23,0,.25v.53l0,.23.05.19.05.14L123,56h.15v0l0,0h0l0,0h0v0m-.34-1.64.06-.14.06-.09h-3.88L119,54l-.06.14m3.88,0-.05.19,0,.23,0,.25v.53l0,.23.05.19.05.14L123,56h-3.9L119,55.9l-.06-.15,0-.19,0-.23v-.79l0-.23.05-.19m4.28,0-.07,0-.05.09,0,.13m.14,1.43-.05,0-.05-.09,0-.12,0-.18,0-.2v-.43l0-.2,0-.18m0-4.19.1.65h.84l-.09-.65h-.85m.06,4.11h.86L124,55h-.86l.1-.67m-4.48,1,0-.11v-.51l0-.12m0,.83h0l0-.08m0-.74,0-.08h0m4.93,1.14h0m.4-6.12-.1.66.09.65h.05V49.51h-.05m-.4,6.12h.43V54.28m-.44,1.35h.1m-.58-1.35h.93m0,0h.14m-1-5h0l-.06,0-.05.09,0,.13m0,0,0,.17,0,.2v.42l0,.2,0,.16.05.14.05.08.05,0m.18-1.47v-.05l-.06-.08-.05,0-.05,0-.05.09-.05.13m0,0,0,.17v.62l0,.2,0,.16,0,.14.05.08.06,0,.05,0,.05-.08,0-.07m0,0h-.2l-.1-.65.1-.66m.23,1.31,0,.07-.05.08-.05,0-.06,0-.05-.08,0-.14,0-.16,0-.2v-.62l0-.17m0,0,.05-.13.05-.09.05,0,.05,0,.06.08v.05m-.55-.14.05-.14.07-.07h-3.79l-.06.08-.06.14m3.79,0-.05.19,0,.23v.76l0,.22,0,.19.06.14.06.08h-3.79l-.06-.09-.05-.13-.05-.19,0-.23,0-.25V50l0-.25,0-.23.05-.19m3.79,0,.05-.14.07-.07h.14l0,0v0h0v.09m-.35,0-.05.19,0,.23v.76l0,.22,0,.19.06.14.06.08h.14v0h0l0,0h0l0,0h0v0m.05-1.62-.06,0-.05.09,0,.13m.14,1.4-.05,0-.05-.08-.05-.14,0-.16,0-.2V50l0-.2,0-.17m.1,6.21,0,0v.06l0,.05,0,0-.05,0-.05,0h-.05L123,56h.15v0l0,0h0l0,0h0v0m0-1.65v0h0v0h0v0h0v0H123m0,0,.08,0h.07l.05,0,0,0,0,0,0,0v.06l0,0m.95.17v1.35h.05l.1-.66-.1-.67h-.05m-1-4.77h.85l-.1.66h-.85l.1-.66m-4.42.65V49.9l0-.1m0,.8h0l0-.08v-.36m.05-.36,0-.08h0m4.4,6.08h-.05m.27.57h0m-.06-.73v.73h0m0-2.8v.72m-.24,1.51h0m0-1.68h0m0,0,0,0,0,0,0,0v-.08l0-.09v-1m.13,0h-.13m-.15,2.93,0,0,0,0v.05l0,.08v1.08h.18v-.14m-.3-2.8h0m.4-3.3h0m-.47-1.31h.9m-.43,1.31h.42V49.51h.14m-.57,1.31h.1m0,4.8h.43V54.28h-.09M123.06,56h0l0,0v.18h.28V56l0-.08v-.05l0,0v.06l0,.05,0,0-.05,0-.05,0h-.05m0-2.17v0l0,0v-.18m-.05.23h.07l.05,0,0,0,0,0,0,0v.06l0,0,0,0v-.08l0-.09v-.2h-.28m.17-2.66,0,0v.06l0,.05,0,0-.05,0-.05,0h-.05l-.08-.05h.14v0h0l0,0h0l0,0h0v0m0-1.6v-.09h0v0l0,0H123m0,0,.06-.05h.06l.05,0,0,0,0,.05,0,0v.05l0,0m.93.17v1.32h0l.1-.66-.1-.66h0M123.33,51h-.05m.27.56h0m-.06-.71v.7h0m0-2.73v.7M123.28,51h0m0-1.64h0m0,0,0,0,0,0,0-.05V48.13m.18.68v-.68h-.18m.17,3.72v-.31m-.3-.56,0,0,0,0,0,.05,0,.06v1.05h.06m-.18-2.87h0m-.23,6.92v.57l.06.05,0,0,0,0,0,0h0l0,0h0l0,0h0v-.8h-.28m.25-3.39h0l0,0h0l0,0,0,0,0,0-.06,0m0,0v.57h.28v-.79h0m.45-2h.42V49.51h-.09m.23,5.46-.1-.67m-5.51,1.19.05.18m0-1.27,0-.17m4.3-3h0v.2h.26v-.28l0-.06,0-.05,0,0v.06l0,.05,0,0-.05,0-.05,0h-.05m0-2.12h0v-.2m-.05.21h.06l.05,0,0,0,0,.05,0,0v.05l0,0,0-.05V48.9h-.26m-4.4,6.57v0m0,0,0-.19v-.66l0-.19m0,0v0m4.39-3V52l.05,0h0l0,0h0l0,0h.11v-.78h-.26m0-3.1v.55h.26v-.77h-.06l0,0h0l0,0,0,0h0l-.06.06m1.22,1.83-.1-.66M119,53.95v0h0m0,0h.14L119,54l-.06.14m-.05,1.76,0,0h.14L119,55.9l-.06-.15,0-.19,0-.23v-.79l0-.23.05-.19m.09,2.92h.17M124.36,55l-.1.66h-.86m-4.49-4.94,0,.17m0-1.23.05-.17m5.91,4.1v0m-6,2.27.05.06m-.05-1.83,0,0m0,0,.06-.08m0-3.33,0-.19v-.64l0-.19m0,1v0m0-1v0m-.05,6.16-.05-.12m.05.12,0,.05m0-1.73-.05.13m4.67,2.13h0m0-.73v.73h1.38v-2.8h-1.38m0,0v.72m0-.72h1.38m-6.13,1.84h0l0-.08,0-.11v-.51l0-.12m0,0,0-.08h0m4.75,1.88h1.36v-2.8M119.17,56l-.08-.05m0,0H123l.08.05h-3.9m-.06-2.12H123l.08,0h-3.88l-.08,0m0-4.72h0v0m0,0h.13l-.06.08-.06.14m0,1.73h0v0h.13l-.06-.09-.05-.13-.05-.19,0-.23,0-.25V50l0-.25,0-.23.05-.19m.1-1.23h0m.17,0h0m-.18,4.07h0M119,55.93l.1.08m-.1-2.06.1-.06m5.31-3.72-.1.66h-.84m1.43-2v0m-5.8,7.2h.1l-.08-.05H119l0,0M119,51l.06.08M119,49.29v0m0,0,.06-.06M119,51l0,0m0,0-.05-.13m.06-1.52-.05.13m4.54,2.07h0m0-.7v.7h1.36V48.81h-1.36m0,0v.7m0-.7h1.36m-6,1.79h0l0-.08V49.9l0-.1m0,0,0-.08h0m4.64,1.83h1.32V48.81M119.17,56h3.91l0,0v.18h-3.88V56h0m.06-4.86H123l.08.05h-3.79l-.08-.05m-.05,2.69h0v-.22m-.05.23h3.88v0l0,0v-.18h-3.88m0-4.49H123l.06-.05h-3.78l-.08,0m-.14,2,.1.06m-.09-2,.1-.06m-.15,4.76.05,0h.06l-.08,0H119m0,0h0v0m.1-.06.05,0h.08v-.22h-.14m0,0h0m.12-2.45,0,0h.05l-.08-.05h-.13v0h0m0,4.9h0m0,0h0m.19.84h3.88l.06.05,0,0,0,0,0,0h0l0,0h0l0,0h-4.29v0h0v0h0l0,0h0v0h0l.05-.05m0-.57h3.88v.57h-3.88v-.57m0-3.17h3.88v.57h-3.88v-.56m-.21.84h0v0m.32-2.5v-.15h0m0,0h3.81v.2h-3.8v0m0-2.29v-.21m0,.21h3.79v-.2h-3.78m-.32,7.36h0m0,0h.14v.57l-.05.05h0v0h0l0,0h0v0h0v0h0m0-.8h.14V56h-.12m0,.24h0m0-2.62h.14v-.56l-.05-.06,0,0,0,0,0,0v-.05h0m0,0h0m0,.77h0m.15-4.51.05,0h.05v-.21h-.14m0,0h0m0,.24.05,0h.05l-.08,0h-.13m0,0v0h0M119,56.08v.17m0-.17V56m0-2.17v.08m0-1h0v.05l0,0,0,0,0,0,.05.06h3.88l.06,0,0,0,0,0,0,0h0l0,0h-4.25m.12-1.69h0m-.12,2.56v-.09m0,.09v.09m0,3.23v-.79m0,.79v-.1m.11-5.77h0m-.1,1.68v.79m.29-1.65h3.78l.05,0h0l0,0h0l0,0h-4.06l0,0v0h0l0,0,0-.05m0-.56h3.8V52h-3.78v-.56M119.07,57h0m.31-8.72h3.78v.55h-3.78v-.56m-.29,4.52h4.44m-4.34-3.72h0m0,0v0m.14,2.11h-.06l0,0m0,.24h.12v-.19m-.13.19h0m0,0h.12V52l0,.05,0,0h0v0l0,0h0m0-3.31h.14v-.56l0-.05,0,0,0,0,0,0h0v0h0m0,0h0m0,0h0m0,.76h0m0,2.3v0m0,.1v.17m0-.17v-.08m0-2.13v.08m0-1h0v0h0l0,0,0,0,0,0,0,.05h3.78l.06-.06h0l0,0,0,0h0l0,0h-4.15m0,.85v-.09m0,.09v.08m0,2.87v-.49m0,.77V52m0-3.91v.77m0,3.31h0m0,0h4.26m-4.25-4.1h4.38m-.05,24.7.11.2m-.11-.2-.1-.18m-.91-.85-.18-.09m.18.09.19.13m-3,4.72-.15-.1m.15.1.22.11m-.79-.57.57.46.67.28.72.09.72-.09.69-.28.57-.44.46-.57.28-.67.09-.72-.09-.72-.28-.68-.44-.57-.57-.46-.67-.28-.72-.1-.72.1-.68.28-.57.44-.46.57-.28.67-.09.73.09.72.28.68.44.57m2-4.77H121m.12,0,.32,0m-2.75,4.18.18.28m-.18-.28-.05-.09m1.76-4-.26.08m-1.73,3.34,0,.13m0-.13,0-.1m.76-2.59-.18.18m.18-.18.11-.12m-.85,1.37.08-.25m-.08.25,0,.16m5.18-16.72v.14h-4.33m.15-8.92h0m4.2,3.41v.3m0-3.72v.68m-4.46,27.38.57.46.67.28.72.09.72-.09.69-.28.57-.44.46-.57.28-.67.09-.72-.09-.72-.28-.68-.44-.57-.57-.46-.67-.28-.72-.1-.72.1-.68.28-.57.44-.46.57-.28.67-.09.73.09.72.28.68.44.57m.42.36-.34-.27-.06-.07m4.65-1.13,0,.08-.12.25-.06.14-.05.07-.18.28-.05.07-.22.24-.08.08-.34.27-.07,0-.1.06-.28.14-.39.14h-.14l-.37,0h-.49l-.17,0-.27-.05h0l-.38-.13-.06,0h0M123.66,73v0l.14.35v.06h0v0l.08.38v.33l0,.43,0,.15,0,.14,0,.13m-1.08-3.16.08,0,.07.07.24.2h0l.28.33,0,.06m-2-1.21.3.05.1,0h0l.09,0,.39.17m-1.82-.23.34-.05h.25m-1.87.7.08-.06.26-.18.09-.06,0,0,.34-.16.06,0h0m-1.65,1.64h0l.18-.38,0,0,0,0,.09-.13.17-.22m-.58,2.41,0-.19v-.06l0-.37v-.06l0-.3v-.2m.27,1.89,0-.08-.17-.39m.71,1.15h0l-.22-.24-.05-.06m1.66-4.42-.13,0M118,56.35H118m0,0h1.08m-1.08,0H118m-.06,0h1.08M112.4,86.54v2.68l.22-.13.15-.08.1-.06.29-.16.43-.22.05,0,.16-.09.23-.11.06,0,.42-.22.38-.2.11,0,.12-.05.42-.19.53-.25.15-.06.42-.18.51-.2.08,0,.08,0,.52-.19.56-.2h0l.61-.19.48-.14.12,0,.64-.14.42-.1.19,0h0l.58-.1.44-.06h.15l.46-.05h.11l.5-.06h.13l.43,0,.36,0h2.64m-7.15-8.88-.34-.27-.06-.07M123.66,73v0l.14.35v.06h0v0l.08.38v.33l0,.43,0,.15,0,.14,0,.13,0,.08-.12.25-.06.14-.05.07-.18.28-.05.07-.22.24-.08.08-.34.27-.07,0-.1.06-.28.14-.39.14h-.14l-.37,0h-.49l-.17,0-.27-.05h0l-.38-.13-.06,0h0m2.79-4.83.08,0,.07.07.24.2h0l.28.33,0,.06m-2-1.21.3.05.1,0h0l.09,0,.39.17m-1.82-.23.34-.05h.25m-1.45.39,0,0,.34-.16.06,0h0m-2-20.08h0m0,0h.06m-.06,0h1.05m-1,0h1m-2.13,10.71h-1.82m22.92.09H117.06m-1.82,0h-.61l-.49,0h-.07l-.51.05-.46.08h-.05l-.32.07-.33.11-.14.08-.12.08-.22.18-.14.17h0l-.09.13-.05.1v0M138,62.85h-3.28m-19.29,0h-.74l-.43,0-.33,0h-.18l-.44,0h0l-.34.06-.2.06-.13,0-.28.13h0l-.22.14-.09.09-.07.08-.1.11,0,0,0,.06v0m26.45-1.37H115.25m0,0h-.61l-.49,0h-.07l-.51.05-.46.08h-.05l-.32.07-.33.11-.14.08-.12.08-.22.18-.14.17h0l-.09.13-.05.1v0m.15,23.9v2.21l.08-.1V87.13h0v-.62m-.12-.14v1m0-1,0-.25V84.87h0V75.72l0-.3V73h0V71.1l0-.64v-.18l.05-.57V69.6l.05-.39,0,.72v.81l0,.81V86.49m-.12-.14v3.16l-.06.14,0,0h0l0,0-.06.12v0l0,.06-.06.09h0v0l0,0-.05.06-.05.08V86.72m0-11.35v7.49h0v.85h0v3m.5-.37,0-.25V84.87h0V75.72l0-.3V73h0V71.1l0-.64v-.18l.05-.57V69.6l.05-.39,0-.28,0-.3v-.13l0-.23v-.18l0-.23v-.47h0v-.2l-.13.19-.08.16,0,.07-.11.24-.1.32-.05.17-.1.46v.1l-.09.58v.06l-.06.68v.11l0,.6V71l0,.74v3.67m4.35-11.85h-.09l-.34,0h-.45l-.3,0h0l-.37,0-.25,0h0l-.36,0-.17,0h-.07l-.33.05h0l-.14,0-.24,0h0l-.17,0h-.07l-.1,0h-.2M138,62.85H115.4m-1.67.08-.44,0h0l-.34.06-.2.06-.13,0-.28.13h0l-.22.14-.09.09-.07.08-.1.11,0,0,0,.06v0m3.68-1h-.74l-.43,0-.33,0h-.18M112,69.21l0-.28,0-.3v-.13l0-.23v-.18l0-.23v-.47h0v-.2h.08l.08,0,.07,0,.08,0,0,.08,0,.11v0l0,.25V69l0,.33h-.32l-.08,0h-.07l-.07,0-.06,0m4.29-5.6,0,.13m-4.44,22.76v.62h0v2.26l.09,0,0,0h0l.07,0,.06,0h.2V86.54m-.49-1.13V71.55l0-.81v-.81l0-.72.06,0,.07,0h.07l.08,0h.32V70l0,.53,0,.52v2.82h0V84.55h0v2m-.49,0V85.41m4.4-21.8h0v0h-.65m.71.22h0v0h0m0,.15V64m0-.14,0-.13m0-.13h0v0h0m.1.24h0v0h0m0,.19h0m0,.15h0m0,0v-.13h0v0l0-.1v-.06l0-.06,0-.08,0,0m.13.4v0m18.31-1.09H115.4m3.92,44.94h-.72m.15.33v0l-.05,0h0l0,0v0h0v-.06h0v0h0m.23.37h0m.1,0h0m.1,0h-.05m.11,0h0m.1,0h0m.23-.37h0v0h0v.06h0v0l0,0v0l-.05,0v0m-.57-.29v.05m.74-2.95h-.74m.74,0v2.85h-.72v-2.85m0,3v.05m.61.08-.05,0m0,0,0,0m.13-.2v0m-.33.27h.1m0,0h0m.1,0h0m.25-.37h0v0h0v.06h0v0l0,0v0l-.05,0v0m.18-.33h0v.09h0V108h0v0h-.28m.26-.39h0v-2.85h0m0,2.85h0v-2.85h0m8.19.05h.37m-8.56-.05h-9.23m9.23,0h8.19M119.11,108l.05,0,0,0m-.05.05h0m-.42,0h.05m.58-.36v.09h0V108h0v0h0m5.13,0h-5.13m0-.39h5.3v.09h0V108l0,0,0,0,0,0h0l0,0h0m-5.1-3.26v2.85h5.3v-2.85h-5.32m-.84,0v2.85h.06v-2.85h-.05m.52,3.22H119m.1,0h0m-.16,0h0m-.12,0h.08m-.05,0h0m0,0h0m.2,0h0m-.07,0h.06l.05,0h0m-.1,0h0m-.11,0h0m0,0h0m0,0h0m0,0h0m-.05,0h0m0,0h0m0,0h0m0,0h0m0,0h0m.05,0h0m-.05,0h0m0,0h0m0,0h0m0,0h0m.05,0h0m-.05,0h0m0,0h0m0,0h0m.09,0h-8.5m16.66.06H119m-5.93,0h0m-2.49,0h2.52m5.93,0h-6m6,0h8.16m-8.49-.11v0l-.05,0h0l0,0v0h0v-.06h0v0h-.06v.09h0v.08h0V108h0v0h0m.27,0h0m.1,0h0m-.32,0h.37M116.38,63.9h0m-4.66.93h.13l.15,0,.1,0,.06,0h0l.21,0,.14,0,.13,0h0l.24-.06.36-.08.24-.05h.11l.29,0,.27,0,.21,0,.23,0h.1l.18,0,.51-.05h1m-.75-.48h-.09l-.34,0h-.45l-.3,0h0l-.37,0-.25,0h0l-.36,0-.17,0h-.07l-.33.05h0l-.14,0-.24,0h0l-.17,0h-.07l-.1,0h-.2m7.42,8.14.08-.06.26-.18.09-.06m-1.19,1.42h0l.18-.38,0,0,0,0,.09-.13.17-.22m-.58,2.41,0-.19v-.06l0-.37v-.06l0-.3v-.2m.27,1.89,0-.08-.17-.39m.71,1.15h0l-.22-.24-.05-.06M137,64.08H115.86m0,0h-.43l-.51.05-.18,0h-.1l-.23,0-.21,0-.27,0-.29,0h-.11l-.24.05-.36.08-.24.06h0l-.13,0-.14,0-.21,0h0l-.06,0-.1,0-.15,0h-.13m11.82-8.42h0m7.86,0h-.23m2.3,0h-1m6.11,0h-4.9m-20.45-.06h-1.93m27.27.09h-7.37l-1.45,0h-6.23m-10.29,0h-1.93m7.78-2.81h-5.84m0,2.79h5.84m-8-2.81h2.2m0,2.79h-1.93m1.94-2.81h5.84m19.7.09h-13.9m-11.64,0H111m2.27,2.79h5.75m-5.75,0h-2m7.92-7.55h-5.7m0,2.73h5.69m-7.82-2.73h2.13m0,2.73h-1.7m26.27.09H123.55m-10,0h-1.7m26.27.09H123.55m-10,0h-1.7m1.7-2.74h5.7m19.2.09H124.87m-11.36,0h-2.13m2.21,2.72h5.61m-5.61,0h-1.78m-1,13.78h0l.06.06h0l.1.13v0l.14.19,0,0,0,0,.14.2,0,0,.23.3h0l.11.17.15.2h0l.3.43m.08,0,.08,0,.07,0,.08,0-.08-.11-.2-.32-.05-.08-.2-.32-.07-.09,0-.08-.1-.17-.05-.06-.1-.17,0,0,0-.05-.11-.17v0l-.09-.13,0,0,0,0,0,0m1,2h.08m12.39,40.55v.09h0V108l0,0,0,0,0,0h0l0,0h-.08m.27-.4h.08v0h0v.07h0V108h0l0,.05h0l0,0h-.45m.34-.4h0v0h0v.07h0V108h0l0,.05h0l0,0h.05m.05,0h-.05m.1,0h0m-.24-.38h.6m-.66-2.85v2.85h.08v-2.85h-.08m.08,0h.6m-.6,0v2.85h.6m-12.12,0h5.29v.09h0v.08h0V108h0v0h-5.11l-.05,0h0l0,0,0,0v0l0,0v0l0-.08h0v-.09m-.06,0h0v0h0v.06h0v.06h0l0,0V108H113m.44,0H113m.16-.39h.06v.09h0l0,.08v0l0,0v0l0,0,0,0h0l.05,0h0m-.2-3.24v2.86h5.29v-2.86h-5.29m-.07,0v2.86h.06v-2.86h-.07M125.27,108l0,0m.06-.2v.05m0-.05v-2.85m-.27,3.21h.08m-.28.06h0m.27-.06-.08,0m.2-.15,0-.06,0-.06v0m-12.79-.09v.14l0,.05m12.5.2h-.08m-.07,0h-.05m.17,0H125m0,0h0m-12.44-3.28v2.86m.48.38h0m0,0h0m-.3-.1h0m0,0-.05-.05m12.3.19h0m.3-.19h0m-12.44.13h-.06m12.12.08h0m0,0h0m0,0H125m-.05,0h0m-.05,0h0m0,0h0m-.09,0H125m-.06,0h0m0,0h0m0,0H125m.11,0h0m-.16,0h0m-.05,0h0m-12-.05h0m0,0h0m-.18-.05,0,0m0,0h.05m-.18-.17h0m0,0,0,0m.23.14h0m.09,0h0m12,0h0m-11.94,0h0m0,0h0m12.15,0h0l0,0h0l0-.05m-.14.12h0m0,0h0m0,0h0m0,0h0m-12,0h0m0,0h0m-.05,0h0m0,0H113m-.1,0h0m0,0H113m-.1,0h0m0,0h0m0,0H113m-.05,0H113m-.14,0h0m0,0h0m0,0h0m12.13,0h0m-.06,0h0M112.89,108h0m0-.37h.34v0h0v.06h0v.06h0l0,0V108H113m-.39-.39h.27m-.27,0h.61v-2.86h-.6M125,108.1h.1l.05,0m-.1,0h0M112.89,108h0m-.05,0,.05,0H113m-1.71-5.28h1.88m.77,0h12.87m-12.87-.05h-.77m13.92.33H113.29m13.76.05H111m2.32,0H111m2-38.17.19-.32.1-.18M113,89.87l.34-.22.09,0,.15-.1.13-.08.21-.13.19-.11.32-.19.1,0,.19-.12.25-.15.06,0,.42-.23.2-.11.28-.15.11,0,.21-.11.18-.09.49-.24h0l.53-.23h0l.1-.05.45-.18.25-.1.32-.11.39-.14.18-.06.57-.16.14-.05.44-.11.2-.05h0l.34-.08.33-.06.23,0,.44-.08H122l.52-.08h0l.51-.05h3.31M112.94,89.7h0l0-.05,0-.08v0l-.08-.1,0,0h0l0,0-.08-.06-.05,0-.07,0h0l-.06,0m.57.65,0-.07v-.1m-.52-.48.22-.13.15-.08.1-.06.29-.16.43-.22.05,0,.16-.09.23-.11.06,0,.42-.21.38-.2.11-.05.11,0,.42-.19.53-.26.15-.06.42-.18.51-.2.08,0,.08,0,.52-.19.56-.2,0,0,.61-.19.48-.14.12,0,.63-.14.42-.1.19,0h0l.58-.1.44-.06h.15l.46-.05h.11l.49-.07h.13l.43,0,.35,0h2.64m-14.86,4.09h.05l.06,0h.31l.08,0,.09,0,.09.05.07,0h0l.08.06.05,0h0l.05.06,0,.05h0l0,0,0,.06m-1.08-.47.08-.1.1,0h.38l.08,0h0l.08,0h0l0,0h0l.08,0,0,0,0,0,0,0,.05,0h0l0,0,0,0,0,.05v0l-.06.11m.06-.11,0-.07v-.1l0-.05,0-.08v0l-.08-.1,0,0h0l0,0-.08-.06-.05,0-.07,0h0l-.06,0h-.2l-.06,0-.06,0h0l0,0-.09,0v0l.1,0h.38l.08,0h0l.08,0h0l0,0h0l.08,0,0,0,0,0,0,0,.05,0h0l0,0,0,0,0,.05v0m-.74-.38h0l.08,0,.09,0,.09.05.07,0h0l.08.06.05,0h0l.05.06,0,.05h0l0,0,0,.06-.19.29-.05.06v0l-.13.15-.09.1-.1.1m0,0-.11.1-.08,0L112,91l0-.13v-.05l0-.07,0-.09,0,0-.08-.1-.11-.09,0,0-.09,0-.06,0h-.17l.05-.07.05-.07,0,0v0h0l.06-.09,0-.06v0l.06-.12,0-.05h0v0l.06-.14h.05l.06,0h.29m13.59,2.31-.06-.28-.09-.38-.06-.41,0-.38,0-.43V89.5l0-.34,0-.42.06-.41,0-.2.09-.4m.55,14.11H122l-.91,0h-6.88m-.74,0h-1.78m1.78,0h.74m-2.48-10.61h.05l0,0,.08-.05,0,0L112,91l.11-.09.08,0,.11-.1m0,0,.1-.1.09-.1.13-.15v0l.05-.06.19-.29.06-.11.34-.22.09,0,.15-.1.13-.08.21-.13.19-.11.32-.19.1,0,.19-.12.25-.15.06,0,.42-.23.2-.11.28-.15.11,0,.21-.11.18-.09.49-.24h0l.53-.23h0l.1-.05.45-.18.25-.1.32-.11.39-.14.18-.06.57-.16.14-.05.44-.11.2-.05h0l.34-.08.33-.06.23,0,.44-.08H122l.52-.08h0l.51-.05h3.31m0,7.35h0l0-.07h0l0-.05-.06-.16-.09-.2,0-.11-.09-.24,0-.09-.08-.23-.1-.35m0-4.06.1-.37.05-.15L126,87l0-.11.1-.26.06-.17.08-.18,0-.12h0l0-.07v0m.37,6.26h0l-.05-.1-.09-.2-.08-.17,0-.09-.1-.29m.59,1.28h0l0-.05,0,0v0l-.06-.13-.08-.15m-.37-.86-.08-.24-.09-.32-.08-.34v-.08l0-.24,0-.35v-.62l.05-.36.06-.34,0-.17.07-.22,0-.11.12-.3,0-.13,0-.08.08-.19.1-.22,0-.07,0-.07.08-.15,0-.09h0l0-.06v0m-.62,6.68h0l0-.07h0l0-.05-.06-.16-.09-.2,0-.11-.09-.24,0-.09-.08-.23-.1-.35m0,0-.06-.28-.09-.38-.06-.41,0-.38,0-.43V89.5l0-.34,0-.42.06-.41,0-.2.09-.4.1-.37.05-.15L126,87l0-.11.1-.26.06-.17.08-.18,0-.12h0l0-.07v0m-14.71,5.13h.05l0,0,.08-.05,0,0L112,91l0-.13v-.05l0-.07,0-.09,0,0-.08-.1-.11-.09,0,0-.09,0-.06,0h-.17m0,0-.17.09h-.06l-.05,0,0,0,0,0h0m16,2.25h0l0-.05,0,0v0l-.06-.13-.08-.15h0l-.05-.1-.09-.2-.08-.17,0-.09-.1-.29m0,0-.08-.24-.09-.32-.08-.34v-.08l0-.24,0-.35v-.62l.05-.36.06-.34,0-.17.07-.22,0-.11.12-.3,0-.13,0-.08.08-.19.1-.22,0-.07,0-.07.08-.15,0-.09h0l0-.06v0m3.57,5.14v0m0-.61v0m0-1.49v2.1m0,0v-2.1m0,1.49v0m-19.3-34.85v.22m0-3.3v.28m.43-5v.25m-3.1,16.08h.25m0,0h1.07m-1.74.43h.23m0,0h1.94m15,39.55h2.15m0,0v2.85h-2.15m0,0h2.15v.1l0,.09-.06.08-.08.06-.1,0h-.1m0,0h-2l.05,0m2.4-.33h0v.05h0v.08h0l0,.05h0l0,.05h0v0h-.24m.28-.39h0v.1l0,.09-.06.08-.08.06-.1,0h0m.28-.39h0v-2.85h0m0,2.85h0v-2.85h0m.1,2.85h-.08m.29,0h0m-.33,0h.29m-.29,0h0v.05h0v.08h0l0,.05h0l0,.05h0v0h-.06m.15-3.25h.33m-.27,2.85h-.08m0-2.85v2.85h.33m-15.06.29.05,0h-2.11l-.09,0-.08-.06-.06-.07,0-.09v-.1m0,0h2.08m0-2.86h-2.09m0,0v2.86h2.08M138.69,57v-.34m0-3.3V51.92m-28.26,55.77h.05v.1l0,.09.06.07.08.06.09,0h-.26l0,0h0V108h0v0h0v-.18h0m-1.82-42.82h.25m0,0h1.07m0-2.13h-1.13m0,0h-.19m1.09-.22H109m0,0h-.13m1.1.23h-1.13m0,0h-.19m1.8,42.11v2.86h.05v-2.86h-.05m.72-48.25v.33m0-5.08v1.43m.55,37.92v-.13m-2-28.55H109m0,0h-.13M126.42,86v-.17m1.41,22.08,0-.08m0,0v0m-.1.16-.06.05m.06-.05h0l.05-.08m0-.18,0-2.85m0,2.85v.07m-.37.32h.19m-.23.07h-.06m.06,0h0m-.1,0h0m0,0h0m0,0h0m-1-22.07V86m0,.07v.15m.58.46,3.59.08m-3.74-.1-.14-.05m.14.05.15,0m0,16.45v1.75m-.56-18.5-.06-.15m.29.38-.13-.1m0,0-.1-.13m.28,16.47.28.28m-.28-.28-.18-.22m0,0-.13-.24-.08-.27m0,0,0-.27m0,0,0-8.5M134.64,76l.28-.62m-.28.62-.32.62m0,0-.33.62m.93-1.87.27-.63m-1.55,3.12-.37.62m.37-.62.35-.62m1.66-3.73-.23.62-.24.61m-2.32,4.36.41-.62M136,72.24l-.19.61-.2.62m-3.21,6.21.42-.61m-.42.61-.43.6m4.2-8.63.29-1.19.22-1.16m-.51,2.35-.16.6m-4,8-.47.58m0,0-.48.59m5.66-12.15.15-1.13M130,82.57l.52-.56.51-.57m5.81-13.28.1-1.11m-7.49,16-.55.52m.55-.52.55-.53M137,67.06,137,66m-8.08,17.63-.58.51M137,65v-.89m0,.89v1m-9.85,19.09-.47.34m.47-.34.6-.47.58-.48M137,64.08v-.14l0-.13m.15-.23-.09.1M126.58,85.54l.13-.11m-.13.11-.09.14m0,0-.06.15m-15.47,19v-1.74m-.49,5h.1m-.1,0h0m0,0h0m.18,0h0m-.21-.05h.07m.18,0h0m-.29-.06h0m0,0-.06-.05m0,0h0m0,0,0-.08,0-.08m0-.11v.11m1.13-5,.18-.21.13-.24.09-.25,0-.28m-1.41-36.5h.11m-.11,0-.1-.05m1.51,36.55,0-10.61M111,103.08l.28-.29m-1.13,2v2.84m.43.39h0m-.42-42.82-.09-.06M127,92.73l3.59-.05m-3.59.05h-.15l-.15.06m0,0-.13.1m-16.5-27.73-.08-.1m16.42,28.1,0,.17m0-.17.07-.14.09-.13M111.36,51.53V48.8m.13,41.9.09.11.06.13,0,.13m-.31-.46-.13-.06m.13.06.11.09m-.24-.15-.12,0m0,0H111M110,65l0,.1m0-.1v-.11m-1.76.43h.11l.11,0m.09-.08-.09.08m.09-.08.06-.09m.05-.1-.05.1m.05-.1v-.11m2.73.24.37-.33m-3.1.09V62.72m2.64,2.45.08-.06m.29-1.7v-6.5m-.63-.56V53.54M110,62.73l-.23-.23m.23.23v2.13m-1.09-2.36-.21.21M111.85,64l-.13-.25m.19.46,0-.11m0,.11v.22l0,.1,0,.1-.05.09m0,0-.08.09m.17-.71,0-.09m-.2-.46V63.4m0,.11,0,.1m0,0,.05.1m-.86,1.59H111m-.12,0h-.48m.06,42.49v-.1h-.33m.45.39h0l0,0h0V108h0v-.05h0v-.08m0-.11h0m-.33,0h.33v-2.85h-.32m27-41,.06-.13M111,65.3l.11,0,.1,0,.09-.07m26.87-2.64-.08.18-.1.14-.72.74m.9-1.06,0-.18m0,0V57m-10.62,50.75h0m-.43.39h.31m.13-.39h0m-17.11-.05h0m.12.38h.33m-.45-.39h0m27.64-55.78V51.6m-27.63,56.08h0m1.37-56.17v.32M108.18,65.3,99,65.5c.39,3.92,1.55,22.33.12,24.95l11.9,0m27.4-41.6v2.73m.37,2v2.8m-.57-7.56v-.25m.4,5v-.28m0,3.3v-.23m-12.2,45.42h-1.92l-.65,0H113.53m13.24,1H113.9m0,0h-2.65m.42-1h1.87m11.52,6.33h2.06m-2.17,0h0m-14,0H113m12,0h0m.07,0H125m-11.93,0H113m0,0h0m12,0h0m0,0h0m0,0h0m0,0h0m0,0h0m0,0h0m-12,0h0m0,0h0m0,0h0m11.92,0h0m-11.93,0h0m0,0h0m0,0h0m0,0h0m12,0h0m0,0h0m-11.94,0h0m0,0h0m0,0h0m11.94,0h0m-.49,0H125m-11.92,0h0m0,0h.49m5.08,0h-5.08m5.47,0h0m0,0h0m0,0h0m0,0h0m0,0h0m5.45,0h-5.05m0,0H119m0,0h-.39m.39,0h0m18-44H116.39m0,0v-.13h0v0l0-.1v-.06l0-.06,0-.08,0,0m3.88,0h-3.88m21,.09H120.13m3.47-15h14.58m-26.46-.09h7.49m4.39,0h14.58m-26.46-.09h7.49m4.34,4.75h15m-27.29-.09h7.78m0,3.31h-7.89m27.53.08H123.51m-4.45.33h-7.4m26.52.08H123.51m-12.3,0h.44m7.4,0h-7.84m27,.09H123.51m-4.45-.34h-7.89m27.53.08H123.51m0-3.3h15m-27.29-.09h7.78m0,0h-7.78m27.29.07H123.52m-4.33-1.45h-8m27.53.09H123.47m-4.4,1.42h-7.78m27.29.07H123.52m-4.33-1.45h-8m27.53.09H123.47m-5.35,11.65h-2.48m21.6.07H118.12m-7.11,27h0l0,0,0,0,.05,0h.06l.16-.09V86.72m-.43-21.41h0l.06.06h0l.1.13v0l.14.19,0,0,0,0,.14.2,0,0,.23.31h0l.11.17.15.2h0l.3.43-.13.19-.08.16,0,.07-.11.24-.1.32-.05.17-.1.46v.1l-.09.58v.06l-.06.68v.11l0,.6V71l0,.74V82.86h0v.85h0v3m-3-21.41h.19m-.23,0h0m.19,0h1.94m.9-.14,0,0,0,0,0,0,.09.13v0l.11.16,0,.05,0,0,.1.17.05.06.1.17,0,.08.07.09.2.32.05.07.2.32.08.11,0,.08,0,.11v0l0,.25V69l0,.33V70l0,.53,0,.52v13.5h0v2m25.68-34.93H123.57m14.84-2.65H124.87m13.21,2.8H123.55m7.82,4.85h-.23m2.3,0h-1m6.11,0h-4.9m5.1-2.77h-13.9m13.7,2.88h-7.37l-1.45,0h-6.23"/>
  <path class="cls-10" d="M92.61,63.5l-.06,0m.84-.38a1,1,0,0,0,1.4.91m-.85-1.81a1,1,0,0,0-.55.9m2.89-.32a.21.21,0,0,0-.14-.05m.13,1.6V62.84m0,0H96.1m0,0V63m0-.2-.06,0h0m-3.69,1.69a.58.58,0,0,0-.17.19m.4-1.83a.21.21,0,0,0-.14-.05m-.05,1.72a.2.2,0,0,0-.29,0m.3-1.71-.06,0-.06,0H92.2l-.06,0-.06,0-.06.06L92,63l-.06.1m0,1.33,0-1.33m.47-.24,0,1.67m0,0h.18m0,0V62.84m0,0h-.18M95,64.19a1.45,1.45,0,0,0,.17-.44m0,.44V63.8m.54.39,0,0m.35,0,0,0m-3,0L93,64.07,93,64m.3-1.38.07,0m1.88,1.23.58-.3m-2.35-1.08.15,0h.1M93,62.21a1.78,1.78,0,0,0-.64.57m3.47,1.38V63.5m0,.67h.35m0,0v-.67m0,0a1.77,1.77,0,0,0-3.55,0h0m0,0v.67M93,63.5v.67m2.83-.67a1.42,1.42,0,0,0-2.84,0h0m0,.69,0,0m-.36,0H93m-.36,0-.07,0m2.3-.17-.06,0h0m.29-1.28a.7.7,0,1,0-.3.94A.7.7,0,0,0,95.08,62.79Zm.7,1.4h.36m-.36,0H92.94m-.36,0h.36m4.39,7.44-.07-1.08-.08-1-.09-1-.1-.87-.11-.79-.11-.7-.12-.61-.13-.51-.13-.41-.13-.3-.13-.19m-3.58,0,0,0m1.19,7.52-.07-1-.07-1-.09-.9L93.45,68l-.1-.76-.1-.68-.11-.6L93,65.43,92.9,65l-.12-.33-.12-.23-.11-.12m1.24,7.29-.07-1.08-.08-1-.09-1-.1-.88-.11-.79-.11-.7-.12-.61L93,65.08l-.13-.41-.13-.3-.14-.19m1.2,7.44,0,.08m0,0h3.55m0,0,0-.09m0,0H93.78M96,92.45H96l.13-.09.13-.19.12-.29.12-.38.12-.47.11-.56.11-.65.1-.73.09-.8.09-.87.08-.93.07-1,.06-1,.05-1.09,0-1.12,0-1.15,0-1.16V77.58m0,0c0-1.48-.08-4.39-.18-5.87M92.17,92.07l0,0,.13.13.13,0,.13-.06.13-.17.12-.26.12-.36.12-.45.11-.54.11-.63.1-.71.09-.79.09-.86.08-.93.07-1,.06-1,0-1.08,0-1.12,0-1.15,0-1.17V77.59M92.34,64.5l-.07.05-.11.14m1.77,12.91V76.42l0-1.16,0-1.14,0-1.11-.06-1.07-.06-1-.07-1-.08-.91-.09-.84-.1-.77-.11-.69-.11-.61L93,65.63l-.12-.42-.12-.33-.12-.23-.13-.13h0m-.4,27.64.11.17.13.11h.13l.13-.09.13-.19.12-.29L93,91.5,93.1,91l.11-.56.1-.65.1-.73.09-.8.09-.87.08-.93.07-1,.06-1,0-1.08,0-1.12,0-1.15,0-1.16V77.58m0,0V76.41l0-1.16,0-1.14,0-1.11-.05-1.07-.06-1-.07-1L93.56,69l-.09-.85-.1-.77-.1-.7-.11-.62L93,65.55l-.12-.44-.12-.35-.12-.25-.13-.15h0m3.74,27.81,0,0,.13.13.13,0,.13-.07.13-.17.13-.27.12-.36.12-.46.11-.55.11-.64.1-.72.1-.8.09-.87.08-.93.07-1,.06-1L98,83.41l0-1.13,0-1.15L98,80V77.59m0,0V76.41l0-1.17,0-1.15,0-1.11-.05-1.08-.07-1-.07-1L97.66,69l-.09-.84-.1-.77-.1-.69-.11-.61-.12-.52L97,65.13l-.12-.33-.13-.23-.13-.13-.13,0-.13.07-.05.06m2,27.85h0l.13-.07.13-.17.13-.27.12-.36L99,91l.11-.55.11-.64.1-.72.1-.8.09-.87.08-.93.07-1,.06-1,.05-1.09,0-1.12,0-1.15,0-1.17V77.58m0,0V76.4l0-1.17,0-1.14,0-1.11-.05-1.07-.06-1-.08-1L99.43,69l-.09-.85-.1-.77-.1-.69L99,66.07l-.12-.52-.12-.43-.13-.33-.12-.23-.13-.14-.11,0M96.54,91.93l.12,0,.13-.14.12-.24.12-.34.12-.43.11-.52.11-.61.1-.69.1-.77.09-.85.08-.91.07-1,.06-1,.05-1.07,0-1.1,0-1.13,0-1.15V77.61m0,0V76.45l0-1.15,0-1.12,0-1.09L97.83,72l-.07-1-.07-1-.08-.89-.09-.82-.1-.75-.1-.67-.11-.58-.12-.5-.12-.4-.12-.31-.12-.21-.13-.11-.08,0M91.86,92.36h0l.13-.07.13-.17.13-.27.12-.36.12-.46.11-.55.11-.64.1-.72.1-.8.09-.87.08-.93.07-1,.06-1,.05-1.09,0-1.12,0-1.15,0-1.17V77.59m0,0V76.41l0-1.17,0-1.14,0-1.11-.05-1.07-.07-1-.07-1L93,69l-.09-.85-.1-.77-.11-.69-.11-.61-.12-.52-.12-.43-.12-.33-.13-.23L92,64.43l-.11,0m4.29-1.61H96m-3.6,0h-.18m1.69-.52-.58.3m1.22,1.62.28-.15m-1.28-2.13-.58.3m1.8,1.85.1,0a.75.75,0,0,0,.24-.18,1.09,1.09,0,0,0,.17-.24,1.06,1.06,0,0,0,.09-.28,1,1,0,0,0,0-.29,1,1,0,0,0-.25-.53,1,1,0,0,0-.23-.19.94.94,0,0,0-.28-.11,1.14,1.14,0,0,0-.3,0,.75.75,0,0,0-.29.07l-.08,0M92.43,92.45H96M98.3,64.39H96.53m0,28h1.77M92.75,64.82h-.53m4.31,0h-.08m-.06,27.11h.15m-4.31,0h.53m-.92-27.54-4.3,0m0,27.92,4.32.09"/>
  <path class="cls-11" d="M138.25.33l.06,52h-.13l-26.74.16h-.13L111.39.33"/>
  <path class="cls-7" d="M220.5,128.13l1.92,17.94m-8.59-17.94,1.92,17.94m-8.59-17.94,1.92,17.94m-8.59-17.94,1.92,17.94m-8.59-17.94,1.92,17.94m-8.59-17.94,1.92,17.94m-28.61-17.94,1.92,17.94m-8.59-17.94c.39,3.68,1.46,14.53,1.85,18.21m-8.52-18.21.47,4.43.75,7q.35,3.27.7,6.54m-8.54-18.19c.45,4.16,1.43,14,1.87,18.19m-8.59-17.94,1.92,17.94m-8.59-17.94L129,146.08m-15.26-17.94,1.92,17.94m4.75-17.94,1.92,17.94m-15.26-17.94L109,146.08m-8.59-17.94,1.92,17.94m-8.59-17.94,1.92,17.94m-8.59-17.94L89,146.08m-8.59-17.94,1.92,17.94m-8.59-17.94,1.92,17.94M67,128.13,69,146.08m-8.59-17.94,1.92,17.94M53.7,128.13l1.92,17.94M47,128.13,49,146.08m-8.59-17.94,1.92,17.94m-8.59-17.94,1.92,17.94M27,128.13l1.92,17.94m-8.59-17.94,1.92,17.94m-8.59-17.94,1.92,17.94M7,128.13l1.92,17.94M.33,128.13l1.92,17.94"/>
</svg>
