<svg id="Layer_1" data-name="Layer 1" xmlns="http://www.w3.org/2000/svg" viewBox="0 0 303.4 161.41"><title>crcltn_pmp_wiring_strge_tnk_or_bldgn_recrcltn</title><rect x="0.5" y="0.5" width="302.4" height="160.42" style="fill:none;stroke:#000;stroke-width:0.9970249999999999px"/><line x1="80.43" y1="80.35" x2="189.12" y2="80.35" style="fill:none;stroke:#000;stroke-linecap:round;stroke-linejoin:round"/><polyline points="77.95 149.08 251.63 149.08 251.63 136.29" style="fill:none;stroke:#000;stroke-linecap:round;stroke-linejoin:round"/><polygon points="183.79 42.52 183.79 72.36 212.21 72.36 212.21 42.52 183.79 42.52 183.79 42.52" style="fill:#fff;stroke:#000;fill-rule:evenodd"/><polygon points="183.79 72.36 212.21 72.36 212.21 42.52 183.79 42.52 183.79 72.36 183.79 72.36" style="fill:none;stroke:#000;stroke-linecap:round;stroke-linejoin:round"/><path d="M190.75,52.26a1.54,1.54,0,0,0-1.53-1.53,1.56,1.56,0,0,0-1.53,1.53,1.54,1.54,0,0,0,1.53,1.53,1.52,1.52,0,0,0,1.53-1.53" style="fill:none;stroke:#000;stroke-linecap:round;stroke-linejoin:round"/><path d="M209,52.26a1.51,1.51,0,1,0-3,0,1.51,1.51,0,1,0,3,0" style="fill:none;stroke:#000;stroke-linecap:round;stroke-linejoin:round"/><line x1="190.75" y1="52.26" x2="207.52" y2="46.18" style="fill:none;stroke:#000;stroke-linecap:round;stroke-linejoin:round"/><line x1="198.36" y1="49.48" x2="198.36" y2="56.84" style="fill:none;stroke:#000;stroke-linecap:round;stroke-linejoin:round"/><polyline points="198.36 56.84 202.94 56.84 202.94 61.38" style="fill:none;stroke:#000;stroke-linecap:round;stroke-linejoin:round"/><polyline points="202.94 61.38 198.36 61.38 198.36 65.97" style="fill:none;stroke:#000;stroke-linecap:round;stroke-linejoin:round"/><line x1="189.12" y1="53.78" x2="189.12" y2="80.35" style="fill:none;stroke:#000;stroke-linecap:round;stroke-linejoin:round"/><line x1="207.59" y1="53.78" x2="207.59" y2="80.71" style="fill:none;stroke:#000;stroke-linecap:round;stroke-linejoin:round"/><line x1="207.59" y1="80.71" x2="251.63" y2="80.71" style="fill:none;stroke:#000;stroke-linecap:round;stroke-linejoin:round"/><line x1="251.63" y1="80.71" x2="251.63" y2="102.19" style="fill:none;stroke:#000;stroke-linecap:round;stroke-linejoin:round"/><path d="M234.58,119.24a17,17,0,0,1,34.1,0h0a17,17,0,0,1-34.1,0" style="fill:#fff;stroke:#000;fill-rule:evenodd"/><path d="M234.58,119.24a17,17,0,0,1,34.1,0h0a17,17,0,0,1-34.1,0" style="fill:none;stroke:#000;stroke-linecap:round;stroke-linejoin:round"/><line x1="93.93" y1="101.72" x2="93.93" y2="85.98" style="fill:none;stroke:#000"/><path d="M92.91,83.62c-.5,1.65-1,2.73-1.49,4.05h5A39.68,39.68,0,0,1,95,83.62a29.58,29.58,0,0,1-1-4.42A29.63,29.63,0,0,1,92.91,83.62Z"/><line x1="93.93" y1="127.72" x2="93.93" y2="143.46" style="fill:none;stroke:#000"/><path d="M95,145.82c.5-1.65,1-2.73,1.49-4.05h-5a39.63,39.63,0,0,1,1.49,4.05,29.57,29.57,0,0,1,1,4.41A29.63,29.63,0,0,1,95,145.82Z"/><path d="M131,9.94V4.21h3.86v.68h-3.11V6.66h2.69v.68h-2.69v2.6Z"/><path d="M135.93,9.94V4.21h.76V9.94Z"/><path d="M138,9.94V4.21h4.14v.68h-3.38V6.64H142v.67h-3.17V9.26h3.52v.68Z"/><path d="M143.33,9.94V4.21h.76V9.26h2.82v.68Z"/><path d="M147.81,9.94V4.21h2a4.78,4.78,0,0,1,1,.08,1.93,1.93,0,0,1,.84.41,2.33,2.33,0,0,1,.68,1A3.84,3.84,0,0,1,152.54,7a4,4,0,0,1-.15,1.16A2.79,2.79,0,0,1,152,9a2.09,2.09,0,0,1-.52.52,2.14,2.14,0,0,1-.68.29,3.88,3.88,0,0,1-.92.1Zm.76-.68h1.22a3,3,0,0,0,.89-.11,1.27,1.27,0,0,0,.51-.3,1.81,1.81,0,0,0,.42-.72,3.53,3.53,0,0,0,.15-1.1,2.67,2.67,0,0,0-.29-1.38,1.48,1.48,0,0,0-.72-.65,3,3,0,0,0-1-.12h-1.2Z"/><path d="M155.55,8.1l.71-.06a1.6,1.6,0,0,0,.24.71,1.3,1.3,0,0,0,.58.45,2.19,2.19,0,0,0,.88.17,2.1,2.1,0,0,0,.77-.13,1.05,1.05,0,0,0,.49-.35.81.81,0,0,0,.16-.49.74.74,0,0,0-.16-.47,1.15,1.15,0,0,0-.52-.34,9.87,9.87,0,0,0-1-.28,5.18,5.18,0,0,1-1.11-.36,1.56,1.56,0,0,1-.61-.53,1.32,1.32,0,0,1-.2-.71,1.45,1.45,0,0,1,.25-.81,1.53,1.53,0,0,1,.72-.57,2.74,2.74,0,0,1,1.05-.2,2.87,2.87,0,0,1,1.12.21,1.62,1.62,0,0,1,.75.6,1.71,1.71,0,0,1,.28.9l-.73.05a1.17,1.17,0,0,0-.4-.82,1.54,1.54,0,0,0-1-.28,1.61,1.61,0,0,0-1,.25.76.76,0,0,0-.31.61.65.65,0,0,0,.22.51,3,3,0,0,0,1.14.41,7.5,7.5,0,0,1,1.27.37,1.73,1.73,0,0,1,.74.58,1.41,1.41,0,0,1,.24.81,1.55,1.55,0,0,1-.26.86,1.71,1.71,0,0,1-.75.63A2.62,2.62,0,0,1,158,10a3.3,3.3,0,0,1-1.3-.23,1.83,1.83,0,0,1-.82-.68A1.94,1.94,0,0,1,155.55,8.1Z"/><path d="M164.9,4.21h.76V7.52a3.9,3.9,0,0,1-.2,1.37,1.66,1.66,0,0,1-.71.83,2.5,2.5,0,0,1-1.34.32,2.76,2.76,0,0,1-1.32-.28,1.59,1.59,0,0,1-.73-.8,3.85,3.85,0,0,1-.22-1.44V4.21h.76v3.3a3.24,3.24,0,0,0,.14,1.1,1.06,1.06,0,0,0,.48.54,1.66,1.66,0,0,0,.83.19A1.57,1.57,0,0,0,164.54,9a2.18,2.18,0,0,0,.36-1.46Z"/><path d="M166.92,9.94V4.21h2.16a5.24,5.24,0,0,1,.87.05,1.72,1.72,0,0,1,.71.27,1.39,1.39,0,0,1,.46.55,1.74,1.74,0,0,1,.17.78,1.76,1.76,0,0,1-.46,1.24,2.23,2.23,0,0,1-1.68.51h-1.47V9.94Zm.76-3h1.48a1.57,1.57,0,0,0,1-.27,1,1,0,0,0,.31-.77,1,1,0,0,0-.18-.62.84.84,0,0,0-.48-.34,3.21,3.21,0,0,0-.71-.05h-1.46Z"/><path d="M172.26,9.94V4.21h2.16a5.24,5.24,0,0,1,.87.05,1.72,1.72,0,0,1,.71.27,1.39,1.39,0,0,1,.46.55,1.74,1.74,0,0,1,.17.78,1.76,1.76,0,0,1-.46,1.24,2.23,2.23,0,0,1-1.68.51H173V9.94Zm.76-3h1.48a1.57,1.57,0,0,0,1-.27,1,1,0,0,0,.31-.77,1,1,0,0,0-.18-.62.84.84,0,0,0-.48-.34,3.21,3.21,0,0,0-.71-.05H173Z"/><path d="M177.56,9.94V4.21h.76V9.26h2.82v.68Z"/><path d="M182.17,9.94V4.21h.76V9.94Z"/><path d="M184.28,9.94V4.21h4.14v.68H185V6.64h3.17v.67H185V9.26h3.52v.68Z"/><path d="M189.6,9.94V4.21h2a4.78,4.78,0,0,1,1,.08,1.93,1.93,0,0,1,.84.41,2.31,2.31,0,0,1,.68,1A3.83,3.83,0,0,1,194.33,7a4,4,0,0,1-.15,1.16,2.77,2.77,0,0,1-.39.83,2.05,2.05,0,0,1-.52.52,2.12,2.12,0,0,1-.68.29,3.87,3.87,0,0,1-.92.1Zm.76-.68h1.22a3,3,0,0,0,.89-.11,1.26,1.26,0,0,0,.51-.3,1.8,1.8,0,0,0,.42-.72,3.5,3.5,0,0,0,.15-1.1,2.66,2.66,0,0,0-.29-1.38,1.48,1.48,0,0,0-.72-.65,3,3,0,0,0-1-.12h-1.2Z"/><path d="M198.91,9.94V4.89H197V4.21h4.54v.68h-1.89V9.94Z"/><path d="M202.36,9.94V4.21h4.14v.68h-3.38V6.64h3.17v.67h-3.17V9.26h3.52v.68Z"/><path d="M207.65,9.94V4.21h1.14l1.36,4.05c.13.38.22.66.27.85l.3-.92,1.37-4h1V9.94h-.73V5.15l-1.66,4.79H210l-1.66-4.87V9.94Z"/><path d="M214.34,9.94V4.21h2.16a5.24,5.24,0,0,1,.87.05,1.72,1.72,0,0,1,.71.27,1.39,1.39,0,0,1,.46.55,1.74,1.74,0,0,1,.17.78,1.76,1.76,0,0,1-.46,1.24,2.23,2.23,0,0,1-1.68.51H215.1V9.94Zm.76-3h1.48a1.57,1.57,0,0,0,1-.27,1,1,0,0,0,.31-.77,1,1,0,0,0-.18-.62.84.84,0,0,0-.48-.34,3.21,3.21,0,0,0-.71-.05H215.1Z"/><path d="M219.69,9.94V4.21h4.14v.68h-3.38V6.64h3.17v.67h-3.17V9.26H224v.68Z"/><path d="M225,9.94V4.21h2.54a3.38,3.38,0,0,1,1.16.15,1.27,1.27,0,0,1,.64.54,1.61,1.61,0,0,1,.24.86,1.44,1.44,0,0,1-.39,1,2,2,0,0,1-1.22.53,2,2,0,0,1,.46.29,3.87,3.87,0,0,1,.63.76l1,1.56h-1l-.76-1.19q-.33-.52-.55-.79a1.71,1.71,0,0,0-.38-.38,1.12,1.12,0,0,0-.35-.15,2.25,2.25,0,0,0-.42,0h-.88V9.94Zm.76-3.2h1.63a2.45,2.45,0,0,0,.81-.11.86.86,0,0,0,.45-.34.93.93,0,0,0,.15-.51.85.85,0,0,0-.29-.67,1.37,1.37,0,0,0-.93-.26h-1.81Z"/><path d="M230.16,9.94l2.2-5.73h.82l2.34,5.73h-.86L234,8.21H231.6L231,9.94Zm1.65-2.35h1.94L233.16,6q-.27-.72-.41-1.19a7.23,7.23,0,0,1-.31,1.09Z"/><path d="M237,9.94V4.89H235.1V4.21h4.54v.68h-1.89V9.94Z"/><path d="M244.18,4.21h.76V7.52a3.9,3.9,0,0,1-.2,1.37,1.66,1.66,0,0,1-.71.83,2.5,2.5,0,0,1-1.34.32,2.76,2.76,0,0,1-1.32-.28,1.59,1.59,0,0,1-.73-.8,3.85,3.85,0,0,1-.22-1.44V4.21h.76v3.3a3.24,3.24,0,0,0,.14,1.1,1.06,1.06,0,0,0,.48.54,1.66,1.66,0,0,0,.83.19A1.57,1.57,0,0,0,243.82,9a2.18,2.18,0,0,0,.36-1.46Z"/><path d="M246.21,9.94V4.21h2.54a3.38,3.38,0,0,1,1.16.15,1.27,1.27,0,0,1,.64.54,1.61,1.61,0,0,1,.24.86,1.44,1.44,0,0,1-.39,1,2,2,0,0,1-1.22.53,2,2,0,0,1,.46.29,3.87,3.87,0,0,1,.63.76l1,1.56h-1l-.76-1.19q-.33-.52-.55-.79a1.71,1.71,0,0,0-.38-.38,1.12,1.12,0,0,0-.35-.15,2.25,2.25,0,0,0-.42,0H247V9.94Zm.76-3.2h1.63a2.45,2.45,0,0,0,.81-.11.86.86,0,0,0,.45-.34.93.93,0,0,0,.15-.51.85.85,0,0,0-.29-.67,1.37,1.37,0,0,0-.93-.26H247Z"/><path d="M252,9.94V4.21h4.14v.68h-3.38V6.64h3.17v.67h-3.17V9.26h3.52v.68Z"/><path d="M263.62,7.93l.76.19a2.54,2.54,0,0,1-.86,1.42A2.36,2.36,0,0,1,262,10a2.72,2.72,0,0,1-1.51-.38,2.36,2.36,0,0,1-.88-1.09,3.91,3.91,0,0,1-.3-1.54,3.39,3.39,0,0,1,.34-1.56,2.35,2.35,0,0,1,1-1A2.85,2.85,0,0,1,262,4.12a2.34,2.34,0,0,1,1.45.44,2.27,2.27,0,0,1,.82,1.23l-.75.18A1.76,1.76,0,0,0,263,5a1.54,1.54,0,0,0-1-.29,1.86,1.86,0,0,0-1.1.32,1.68,1.68,0,0,0-.62.85A3.44,3.44,0,0,0,260.1,7a3.52,3.52,0,0,0,.21,1.28,1.59,1.59,0,0,0,.66.81,1.86,1.86,0,0,0,1,.27A1.62,1.62,0,0,0,263,9,1.87,1.87,0,0,0,263.62,7.93Z"/><path d="M265.08,7.15a3.12,3.12,0,0,1,.77-2.23,2.6,2.6,0,0,1,2-.81,2.74,2.74,0,0,1,1.43.38,2.47,2.47,0,0,1,1,1.06,3.43,3.43,0,0,1,.33,1.54,3.37,3.37,0,0,1-.35,1.56,2.4,2.4,0,0,1-1,1,2.85,2.85,0,0,1-1.39.35,2.71,2.71,0,0,1-1.45-.39,2.52,2.52,0,0,1-1-1.07A3.23,3.23,0,0,1,265.08,7.15Zm.78,0a2.29,2.29,0,0,0,.56,1.63,1.94,1.94,0,0,0,2.8,0,2.43,2.43,0,0,0,.55-1.71,2.92,2.92,0,0,0-.24-1.22,1.8,1.8,0,0,0-.69-.81,1.87,1.87,0,0,0-1-.29,1.94,1.94,0,0,0-1.38.55A2.47,2.47,0,0,0,265.86,7.16Z"/><path d="M271.52,9.94V4.21h.78l3,4.5V4.21H276V9.94h-.78l-3-4.5v4.5Z"/><path d="M278.77,9.94V4.89h-1.89V4.21h4.54v.68h-1.89V9.94Z"/><path d="M282.21,9.94V4.21h2.54a3.38,3.38,0,0,1,1.16.15,1.27,1.27,0,0,1,.64.54,1.61,1.61,0,0,1,.24.86,1.44,1.44,0,0,1-.39,1,2,2,0,0,1-1.22.53,2,2,0,0,1,.46.29,3.87,3.87,0,0,1,.63.76l1,1.56h-1l-.76-1.19q-.33-.52-.55-.79a1.71,1.71,0,0,0-.38-.38,1.12,1.12,0,0,0-.35-.15,2.25,2.25,0,0,0-.42,0H283V9.94Zm.76-3.2h1.63a2.45,2.45,0,0,0,.81-.11.86.86,0,0,0,.45-.34.93.93,0,0,0,.15-.51.85.85,0,0,0-.29-.67,1.37,1.37,0,0,0-.93-.26H283Z"/><path d="M287.74,7.15a3.12,3.12,0,0,1,.77-2.23,2.6,2.6,0,0,1,2-.81,2.74,2.74,0,0,1,1.43.38,2.47,2.47,0,0,1,1,1.06,3.43,3.43,0,0,1,.33,1.54,3.37,3.37,0,0,1-.35,1.56,2.4,2.4,0,0,1-1,1,2.85,2.85,0,0,1-1.39.35A2.71,2.71,0,0,1,289,9.65a2.52,2.52,0,0,1-1-1.07A3.23,3.23,0,0,1,287.74,7.15Zm.78,0a2.29,2.29,0,0,0,.56,1.63,1.94,1.94,0,0,0,2.8,0,2.43,2.43,0,0,0,.55-1.71,2.92,2.92,0,0,0-.24-1.22,1.8,1.8,0,0,0-.69-.81,1.87,1.87,0,0,0-1-.29,1.94,1.94,0,0,0-1.38.55A2.47,2.47,0,0,0,288.52,7.16Z"/><path d="M294.17,9.94V4.21h.76V9.26h2.82v.68Z"/><path d="M131,19.54V13.81h.76v5.73Z"/><path d="M133.13,19.54V13.81h.78l3,4.5v-4.5h.73v5.73h-.78l-3-4.5v4.5Z"/><path d="M138.65,17.7l.71-.06a1.58,1.58,0,0,0,.24.71,1.29,1.29,0,0,0,.58.45,2.18,2.18,0,0,0,.88.17,2.11,2.11,0,0,0,.77-.13,1.06,1.06,0,0,0,.49-.35.82.82,0,0,0,.16-.49.74.74,0,0,0-.16-.47,1.16,1.16,0,0,0-.52-.34,10,10,0,0,0-1-.28,5.16,5.16,0,0,1-1.11-.36,1.55,1.55,0,0,1-.61-.53,1.31,1.31,0,0,1-.2-.71,1.45,1.45,0,0,1,.25-.81,1.52,1.52,0,0,1,.72-.57,2.73,2.73,0,0,1,1.05-.2,2.87,2.87,0,0,1,1.12.21,1.62,1.62,0,0,1,.75.6,1.73,1.73,0,0,1,.28.9l-.73.05a1.17,1.17,0,0,0-.4-.82,1.55,1.55,0,0,0-1-.28,1.6,1.6,0,0,0-1,.25.75.75,0,0,0-.31.61.65.65,0,0,0,.22.51,3,3,0,0,0,1.14.41,7.56,7.56,0,0,1,1.27.37,1.74,1.74,0,0,1,.74.58,1.42,1.42,0,0,1,.24.81,1.56,1.56,0,0,1-.26.86,1.72,1.72,0,0,1-.75.63,2.62,2.62,0,0,1-1.1.22,3.29,3.29,0,0,1-1.3-.23,1.82,1.82,0,0,1-.82-.68A1.94,1.94,0,0,1,138.65,17.7Z"/><path d="M145.71,19.54V14.49h-1.89v-.68h4.54v.68h-1.89v5.05Z"/><path d="M147.91,19.54l2.2-5.73h.82l2.34,5.73h-.86l-.67-1.73h-2.39l-.63,1.73Zm1.65-2.35h1.94l-.6-1.59q-.27-.72-.41-1.19a7.35,7.35,0,0,1-.31,1.09Z"/><path d="M153.85,19.54V13.81h.76v5.05h2.82v.68Z"/><path d="M158.29,19.54V13.81h.76v5.05h2.82v.68Z"/><path d="M162.79,19.54V13.81h4.14v.68h-3.38v1.75h3.17v.67h-3.17v1.95h3.52v.68Z"/><path d="M168.11,19.54V13.81h2a4.78,4.78,0,0,1,1,.08,1.93,1.93,0,0,1,.84.41,2.31,2.31,0,0,1,.68,1,3.83,3.83,0,0,1,.22,1.36,4,4,0,0,1-.15,1.16,2.77,2.77,0,0,1-.39.83,2.05,2.05,0,0,1-.52.52,2.12,2.12,0,0,1-.68.29,3.87,3.87,0,0,1-.92.1Zm.76-.68h1.22a3,3,0,0,0,.89-.11,1.26,1.26,0,0,0,.51-.3,1.8,1.8,0,0,0,.42-.72,3.5,3.5,0,0,0,.15-1.1,2.66,2.66,0,0,0-.29-1.38,1.48,1.48,0,0,0-.72-.65,3,3,0,0,0-1-.12h-1.2Z"/><path d="M176.24,19.54V13.81H177v5.73Z"/><path d="M178.33,19.54V13.81h.78l3,4.5v-4.5h.73v5.73h-.78l-3-4.5v4.5Z"/><path d="M187.65,19.54V14.49h-1.89v-.68h4.54v.68H188.4v5.05Z"/><path d="M191.1,19.54V13.81h.76v2.35h3V13.81h.76v5.73h-.76v-2.7h-3v2.7Z"/><path d="M196.87,19.54V13.81H201v.68h-3.38v1.75h3.17v.67h-3.17v1.95h3.52v.68Z"/><path d="M204.15,17.7l.71-.06a1.6,1.6,0,0,0,.24.71,1.3,1.3,0,0,0,.58.45,2.19,2.19,0,0,0,.88.17,2.1,2.1,0,0,0,.77-.13,1.05,1.05,0,0,0,.49-.35A.81.81,0,0,0,208,18a.74.74,0,0,0-.16-.47,1.15,1.15,0,0,0-.52-.34,9.87,9.87,0,0,0-1-.28,5.18,5.18,0,0,1-1.11-.36,1.56,1.56,0,0,1-.61-.53,1.32,1.32,0,0,1-.2-.71,1.45,1.45,0,0,1,.25-.81,1.53,1.53,0,0,1,.72-.57,2.74,2.74,0,0,1,1.05-.2,2.87,2.87,0,0,1,1.12.21,1.62,1.62,0,0,1,.75.6,1.71,1.71,0,0,1,.28.9l-.73.05a1.17,1.17,0,0,0-.4-.82,1.54,1.54,0,0,0-1-.28,1.61,1.61,0,0,0-1,.25.76.76,0,0,0-.31.61.65.65,0,0,0,.22.51,3,3,0,0,0,1.14.41,7.5,7.5,0,0,1,1.27.37,1.73,1.73,0,0,1,.74.58,1.41,1.41,0,0,1,.24.81,1.55,1.55,0,0,1-.26.86,1.71,1.71,0,0,1-.75.63,2.62,2.62,0,0,1-1.1.22,3.3,3.3,0,0,1-1.3-.23,1.83,1.83,0,0,1-.82-.68A1.94,1.94,0,0,1,204.15,17.7Z"/><path d="M211.2,19.54V14.49h-1.89v-.68h4.54v.68H212v5.05Z"/><path d="M214.26,16.75a3.12,3.12,0,0,1,.77-2.23,2.6,2.6,0,0,1,2-.81,2.74,2.74,0,0,1,1.43.38,2.47,2.47,0,0,1,1,1.06,3.43,3.43,0,0,1,.33,1.54,3.37,3.37,0,0,1-.35,1.56,2.4,2.4,0,0,1-1,1,2.85,2.85,0,0,1-1.39.35,2.71,2.71,0,0,1-1.45-.39,2.52,2.52,0,0,1-1-1.07A3.23,3.23,0,0,1,214.26,16.75Zm.78,0a2.29,2.29,0,0,0,.56,1.63,1.94,1.94,0,0,0,2.8,0,2.43,2.43,0,0,0,.55-1.71,2.92,2.92,0,0,0-.24-1.22,1.8,1.8,0,0,0-.69-.81,1.87,1.87,0,0,0-1-.29,1.94,1.94,0,0,0-1.38.55A2.47,2.47,0,0,0,215,16.76Z"/><path d="M220.72,19.54V13.81h2.54a3.38,3.38,0,0,1,1.16.15,1.27,1.27,0,0,1,.64.54,1.61,1.61,0,0,1,.24.86,1.44,1.44,0,0,1-.39,1,2,2,0,0,1-1.22.53,2,2,0,0,1,.46.29,3.87,3.87,0,0,1,.63.76l1,1.56h-1l-.76-1.19q-.33-.52-.55-.79a1.71,1.71,0,0,0-.38-.38,1.12,1.12,0,0,0-.35-.15,2.25,2.25,0,0,0-.42,0h-.88v2.54Zm.76-3.2h1.63a2.45,2.45,0,0,0,.81-.11.86.86,0,0,0,.45-.34.93.93,0,0,0,.15-.51.85.85,0,0,0-.29-.67,1.37,1.37,0,0,0-.93-.26h-1.81Z"/><path d="M225.86,19.54l2.2-5.73h.82l2.34,5.73h-.86l-.67-1.73h-2.39l-.63,1.73Zm1.65-2.35h1.94l-.6-1.59q-.27-.72-.41-1.19a7.23,7.23,0,0,1-.31,1.09Z"/><path d="M234.51,17.29v-.67h2.43v2.13a4.25,4.25,0,0,1-1.15.67,3.41,3.41,0,0,1-1.22.22,3.25,3.25,0,0,1-1.53-.36,2.39,2.39,0,0,1-1-1,3.29,3.29,0,0,1-.35-1.53,3.55,3.55,0,0,1,.35-1.56,2.33,2.33,0,0,1,1-1.08,3.15,3.15,0,0,1,1.51-.35,3,3,0,0,1,1.12.2,1.85,1.85,0,0,1,.79.56,2.44,2.44,0,0,1,.43.94l-.68.19a2.09,2.09,0,0,0-.32-.69,1.3,1.3,0,0,0-.55-.4,2,2,0,0,0-.79-.15,2.33,2.33,0,0,0-.9.16,1.69,1.69,0,0,0-.61.42,2,2,0,0,0-.36.57,3,3,0,0,0-.22,1.15,2.8,2.8,0,0,0,.26,1.28,1.69,1.69,0,0,0,.77.77,2.37,2.37,0,0,0,1.07.25,2.55,2.55,0,0,0,1-.19,2.45,2.45,0,0,0,.71-.4V17.29Z"/><path d="M238.06,19.54V13.81h4.14v.68h-3.38v1.75H242v.67h-3.17v1.95h3.52v.68Z"/><path d="M246.92,19.54V14.49H245v-.68h4.54v.68h-1.89v5.05Z"/><path d="M249.13,19.54l2.2-5.73h.82l2.34,5.73h-.86L253,17.81h-2.39l-.63,1.73Zm1.65-2.35h1.94l-.6-1.59q-.27-.72-.41-1.19a7.23,7.23,0,0,1-.31,1.09Z"/><path d="M255.08,19.54V13.81h.78l3,4.5v-4.5h.73v5.73h-.78l-3-4.5v4.5Z"/><path d="M260.84,19.54V13.81h.76v2.84l2.84-2.84h1l-2.4,2.32,2.51,3.41h-1l-2-2.9-.94.91v2Z"/><path d="M130.68,26.35a3.11,3.11,0,0,1,.77-2.23,2.6,2.6,0,0,1,2-.81,2.74,2.74,0,0,1,1.43.38,2.47,2.47,0,0,1,1,1.06,3.43,3.43,0,0,1,.33,1.54,3.37,3.37,0,0,1-.35,1.56,2.4,2.4,0,0,1-1,1,2.85,2.85,0,0,1-1.39.35,2.71,2.71,0,0,1-1.45-.39,2.52,2.52,0,0,1-1-1.07A3.23,3.23,0,0,1,130.68,26.35Zm.78,0A2.29,2.29,0,0,0,132,28a1.94,1.94,0,0,0,2.8,0,2.43,2.43,0,0,0,.55-1.71,2.94,2.94,0,0,0-.24-1.22,1.81,1.81,0,0,0-.69-.81,1.87,1.87,0,0,0-1-.29,1.94,1.94,0,0,0-1.38.55A2.47,2.47,0,0,0,131.46,26.36Z"/><path d="M137.15,29.14V23.41h2.54a3.39,3.39,0,0,1,1.16.15,1.27,1.27,0,0,1,.64.54,1.62,1.62,0,0,1,.24.86,1.44,1.44,0,0,1-.39,1,2,2,0,0,1-1.22.53,2,2,0,0,1,.46.29,3.94,3.94,0,0,1,.63.76l1,1.56h-1l-.76-1.19q-.33-.52-.55-.79a1.73,1.73,0,0,0-.38-.38,1.12,1.12,0,0,0-.35-.15,2.25,2.25,0,0,0-.42,0h-.88v2.54Zm.76-3.2h1.63a2.45,2.45,0,0,0,.81-.11.86.86,0,0,0,.45-.34.93.93,0,0,0,.15-.51.86.86,0,0,0-.29-.67,1.38,1.38,0,0,0-.93-.26H137.9Z"/><path d="M149.22,27.13l.76.19a2.55,2.55,0,0,1-.86,1.42,2.36,2.36,0,0,1-1.51.49,2.72,2.72,0,0,1-1.51-.38,2.35,2.35,0,0,1-.88-1.09,3.89,3.89,0,0,1-.3-1.54,3.38,3.38,0,0,1,.34-1.56,2.34,2.34,0,0,1,1-1,2.84,2.84,0,0,1,1.39-.35,2.34,2.34,0,0,1,1.45.44,2.27,2.27,0,0,1,.82,1.23l-.75.18a1.77,1.77,0,0,0-.58-.91,1.54,1.54,0,0,0-1-.29,1.85,1.85,0,0,0-1.1.32,1.67,1.67,0,0,0-.62.85,3.41,3.41,0,0,0-.18,1.1,3.5,3.5,0,0,0,.21,1.28,1.58,1.58,0,0,0,.66.81,1.86,1.86,0,0,0,1,.27,1.63,1.63,0,0,0,1.08-.37A1.88,1.88,0,0,0,149.22,27.13Z"/><path d="M151,29.14V23.41h.76v5.73Z"/><path d="M153.15,29.14V23.41h2.54a3.38,3.38,0,0,1,1.16.15,1.27,1.27,0,0,1,.64.54,1.61,1.61,0,0,1,.24.86,1.44,1.44,0,0,1-.39,1,2,2,0,0,1-1.22.53,2,2,0,0,1,.46.29,3.87,3.87,0,0,1,.63.76l1,1.56h-1l-.76-1.19q-.33-.52-.55-.79a1.71,1.71,0,0,0-.38-.38,1.12,1.12,0,0,0-.35-.15,2.25,2.25,0,0,0-.42,0h-.88v2.54Zm.76-3.2h1.63a2.45,2.45,0,0,0,.81-.11.86.86,0,0,0,.45-.34.93.93,0,0,0,.15-.51.85.85,0,0,0-.29-.67,1.37,1.37,0,0,0-.93-.26H153.9Z"/><path d="M163,27.13l.76.19a2.54,2.54,0,0,1-.86,1.42,2.36,2.36,0,0,1-1.51.49,2.72,2.72,0,0,1-1.51-.38,2.36,2.36,0,0,1-.88-1.09,3.91,3.91,0,0,1-.3-1.54,3.39,3.39,0,0,1,.34-1.56,2.35,2.35,0,0,1,1-1,2.85,2.85,0,0,1,1.39-.35,2.34,2.34,0,0,1,1.45.44,2.27,2.27,0,0,1,.82,1.23l-.75.18a1.76,1.76,0,0,0-.58-.91,1.54,1.54,0,0,0-1-.29,1.86,1.86,0,0,0-1.1.32,1.68,1.68,0,0,0-.62.85,3.44,3.44,0,0,0-.18,1.1,3.52,3.52,0,0,0,.21,1.28,1.59,1.59,0,0,0,.66.81,1.86,1.86,0,0,0,1,.27,1.62,1.62,0,0,0,1.08-.37A1.87,1.87,0,0,0,163,27.13Z"/><path d="M168.45,23.41h.76v3.31a3.9,3.9,0,0,1-.2,1.37,1.66,1.66,0,0,1-.71.83,2.5,2.5,0,0,1-1.34.32,2.76,2.76,0,0,1-1.32-.28,1.59,1.59,0,0,1-.73-.8,3.85,3.85,0,0,1-.22-1.44V23.41h.76v3.3a3.24,3.24,0,0,0,.14,1.1,1.06,1.06,0,0,0,.48.54,1.66,1.66,0,0,0,.83.19,1.57,1.57,0,0,0,1.19-.38,2.18,2.18,0,0,0,.36-1.46Z"/><path d="M170.44,29.14V23.41h.76v5.05H174v.68Z"/><path d="M174.29,29.14l2.2-5.73h.82l2.34,5.73h-.86l-.67-1.73h-2.39l-.63,1.73Zm1.65-2.35h1.94l-.6-1.59q-.27-.72-.41-1.19a7.23,7.23,0,0,1-.31,1.09Z"/><path d="M181.11,29.14V24.09h-1.89v-.68h4.54v.68h-1.89v5.05Z"/><path d="M184.67,29.14V23.41h.76v5.73Z"/><path d="M186.76,29.14V23.41h.78l3,4.5v-4.5h.73v5.73h-.78l-3-4.5v4.5Z"/><path d="M195.22,26.89v-.67h2.43v2.13a4.25,4.25,0,0,1-1.15.67,3.41,3.41,0,0,1-1.22.22,3.25,3.25,0,0,1-1.53-.36,2.39,2.39,0,0,1-1-1,3.29,3.29,0,0,1-.35-1.53,3.55,3.55,0,0,1,.35-1.56,2.33,2.33,0,0,1,1-1.08,3.15,3.15,0,0,1,1.51-.35,3,3,0,0,1,1.12.2,1.85,1.85,0,0,1,.79.56,2.44,2.44,0,0,1,.43.94l-.68.19a2.09,2.09,0,0,0-.32-.69,1.3,1.3,0,0,0-.55-.4,2,2,0,0,0-.79-.15,2.33,2.33,0,0,0-.9.16,1.69,1.69,0,0,0-.61.42,2,2,0,0,0-.36.57,3,3,0,0,0-.22,1.15,2.8,2.8,0,0,0,.26,1.28,1.69,1.69,0,0,0,.77.77,2.37,2.37,0,0,0,1.07.25,2.55,2.55,0,0,0,1-.19,2.45,2.45,0,0,0,.71-.4V26.89Z"/><path d="M201,29.14V23.41h.76v5.05h2.82v.68Z"/><path d="M205.21,26.35a3.12,3.12,0,0,1,.77-2.23,2.6,2.6,0,0,1,2-.81,2.74,2.74,0,0,1,1.43.38,2.47,2.47,0,0,1,1,1.06,3.43,3.43,0,0,1,.33,1.54,3.37,3.37,0,0,1-.35,1.56,2.4,2.4,0,0,1-1,1,2.85,2.85,0,0,1-1.39.35,2.71,2.71,0,0,1-1.45-.39,2.52,2.52,0,0,1-1-1.07A3.23,3.23,0,0,1,205.21,26.35Zm.78,0a2.29,2.29,0,0,0,.56,1.63,1.94,1.94,0,0,0,2.8,0,2.43,2.43,0,0,0,.55-1.71,2.92,2.92,0,0,0-.24-1.22,1.8,1.8,0,0,0-.69-.81,1.87,1.87,0,0,0-1-.29,1.94,1.94,0,0,0-1.38.55A2.47,2.47,0,0,0,206,26.36Z"/><path d="M211.43,26.35a3.12,3.12,0,0,1,.77-2.23,2.6,2.6,0,0,1,2-.81,2.74,2.74,0,0,1,1.43.38,2.47,2.47,0,0,1,1,1.06,3.43,3.43,0,0,1,.33,1.54,3.37,3.37,0,0,1-.35,1.56,2.4,2.4,0,0,1-1,1,2.85,2.85,0,0,1-1.39.35,2.71,2.71,0,0,1-1.45-.39,2.52,2.52,0,0,1-1-1.07A3.23,3.23,0,0,1,211.43,26.35Zm.78,0a2.29,2.29,0,0,0,.56,1.63,1.94,1.94,0,0,0,2.8,0,2.43,2.43,0,0,0,.55-1.71,2.92,2.92,0,0,0-.24-1.22,1.8,1.8,0,0,0-.69-.81,1.87,1.87,0,0,0-1-.29,1.94,1.94,0,0,0-1.38.55A2.47,2.47,0,0,0,212.21,26.36Z"/><path d="M217.88,29.14V23.41H220a5.24,5.24,0,0,1,.87.05,1.72,1.72,0,0,1,.71.27,1.39,1.39,0,0,1,.46.55,1.74,1.74,0,0,1,.17.78,1.76,1.76,0,0,1-.46,1.24,2.23,2.23,0,0,1-1.68.51h-1.47v2.33Zm.76-3h1.48a1.57,1.57,0,0,0,1-.27,1,1,0,0,0,.31-.77,1,1,0,0,0-.18-.62.84.84,0,0,0-.48-.34,3.21,3.21,0,0,0-.71-.05h-1.46Z"/><path d="M225.31,29.14V23.41h2.54a3.38,3.38,0,0,1,1.16.15,1.27,1.27,0,0,1,.64.54,1.61,1.61,0,0,1,.24.86,1.44,1.44,0,0,1-.39,1,2,2,0,0,1-1.22.53,2,2,0,0,1,.46.29,3.87,3.87,0,0,1,.63.76l1,1.56h-1l-.76-1.19q-.33-.52-.55-.79a1.71,1.71,0,0,0-.38-.38,1.12,1.12,0,0,0-.35-.15,2.25,2.25,0,0,0-.42,0h-.88v2.54Zm.76-3.2h1.63a2.45,2.45,0,0,0,.81-.11.86.86,0,0,0,.45-.34.93.93,0,0,0,.15-.51.85.85,0,0,0-.29-.67,1.37,1.37,0,0,0-.93-.26h-1.81Z"/><path d="M231.09,29.14V23.41h4.14v.68h-3.38v1.75H235v.67h-3.17v1.95h3.52v.68Z"/><path d="M237.87,29.14V24.09H236v-.68h4.54v.68h-1.89v5.05Z"/><path d="M245.06,23.41h.76v3.31a3.9,3.9,0,0,1-.2,1.37,1.66,1.66,0,0,1-.71.83,2.5,2.5,0,0,1-1.34.32,2.76,2.76,0,0,1-1.32-.28,1.59,1.59,0,0,1-.73-.8,3.85,3.85,0,0,1-.22-1.44V23.41h.76v3.3a3.24,3.24,0,0,0,.14,1.1,1.06,1.06,0,0,0,.48.54,1.66,1.66,0,0,0,.83.19,1.57,1.57,0,0,0,1.19-.38,2.18,2.18,0,0,0,.36-1.46Z"/><path d="M247.09,29.14V23.41h2.54a3.38,3.38,0,0,1,1.16.15,1.27,1.27,0,0,1,.64.54,1.61,1.61,0,0,1,.24.86,1.44,1.44,0,0,1-.39,1,2,2,0,0,1-1.22.53,2,2,0,0,1,.46.29,3.87,3.87,0,0,1,.63.76l1,1.56h-1l-.76-1.19q-.33-.52-.55-.79a1.71,1.71,0,0,0-.38-.38,1.12,1.12,0,0,0-.35-.15,2.25,2.25,0,0,0-.42,0h-.88v2.54Zm.76-3.2h1.63a2.45,2.45,0,0,0,.81-.11.86.86,0,0,0,.45-.34.93.93,0,0,0,.15-.51.85.85,0,0,0-.29-.67,1.37,1.37,0,0,0-.93-.26h-1.81Z"/><path d="M252.85,29.14V23.41h.78l3,4.5v-4.5h.73v5.73h-.78l-3-4.5v4.5Z"/><path d="M260.82,29.14V23.41h.76v5.05h2.82v.68Z"/><path d="M265.43,29.14V23.41h.76v5.73Z"/><path d="M267.52,29.14V23.41h.78l3,4.5v-4.5H272v5.73h-.78l-3-4.5v4.5Z"/><path d="M273.32,29.14V23.41h4.14v.68h-3.38v1.75h3.17v.67h-3.17v1.95h3.52v.68Z"/><path d="M207.87,111.31l.76.19a2.55,2.55,0,0,1-.86,1.42,2.36,2.36,0,0,1-1.51.49,2.72,2.72,0,0,1-1.51-.38,2.35,2.35,0,0,1-.88-1.09,3.89,3.89,0,0,1-.3-1.54,3.38,3.38,0,0,1,.34-1.56,2.34,2.34,0,0,1,1-1,2.84,2.84,0,0,1,1.39-.35,2.34,2.34,0,0,1,1.45.44,2.27,2.27,0,0,1,.82,1.23l-.75.18a1.77,1.77,0,0,0-.58-.91,1.54,1.54,0,0,0-1-.29,1.85,1.85,0,0,0-1.1.32,1.67,1.67,0,0,0-.62.85,3.41,3.41,0,0,0-.18,1.1,3.5,3.5,0,0,0,.21,1.28,1.58,1.58,0,0,0,.66.81,1.86,1.86,0,0,0,1,.27,1.63,1.63,0,0,0,1.08-.37A1.88,1.88,0,0,0,207.87,111.31Z"/><path d="M209.69,113.31v-5.73h.76v5.73Z"/><path d="M211.8,113.31v-5.73h2.54a3.39,3.39,0,0,1,1.16.15,1.27,1.27,0,0,1,.64.54,1.62,1.62,0,0,1,.24.86,1.44,1.44,0,0,1-.39,1,2,2,0,0,1-1.22.53,2,2,0,0,1,.46.29,3.94,3.94,0,0,1,.63.76l1,1.56h-1l-.76-1.19q-.33-.52-.55-.79a1.73,1.73,0,0,0-.38-.38,1.12,1.12,0,0,0-.35-.15,2.25,2.25,0,0,0-.42,0h-.88v2.54Zm.76-3.2h1.63A2.45,2.45,0,0,0,215,110a.86.86,0,0,0,.45-.34.93.93,0,0,0,.15-.51.86.86,0,0,0-.29-.67,1.38,1.38,0,0,0-.93-.26h-1.81Z"/><path d="M221.65,111.31l.76.19a2.55,2.55,0,0,1-.86,1.42,2.36,2.36,0,0,1-1.51.49,2.72,2.72,0,0,1-1.51-.38,2.35,2.35,0,0,1-.88-1.09,3.89,3.89,0,0,1-.3-1.54,3.38,3.38,0,0,1,.34-1.56,2.34,2.34,0,0,1,1-1,2.84,2.84,0,0,1,1.39-.35,2.34,2.34,0,0,1,1.45.44,2.27,2.27,0,0,1,.82,1.23l-.75.18a1.77,1.77,0,0,0-.58-.91,1.54,1.54,0,0,0-1-.29,1.85,1.85,0,0,0-1.1.32,1.67,1.67,0,0,0-.62.85,3.41,3.41,0,0,0-.18,1.1,3.5,3.5,0,0,0,.21,1.28,1.58,1.58,0,0,0,.66.81,1.86,1.86,0,0,0,1,.27,1.63,1.63,0,0,0,1.08-.37A1.88,1.88,0,0,0,221.65,111.31Z"/><path d="M202.08,122.91v-5.73h2.16a5.25,5.25,0,0,1,.87.05,1.72,1.72,0,0,1,.71.27,1.4,1.4,0,0,1,.46.55,1.86,1.86,0,0,1-.29,2,2.23,2.23,0,0,1-1.68.51h-1.47v2.33Zm.76-3h1.48a1.57,1.57,0,0,0,1-.27,1,1,0,0,0,.31-.77,1,1,0,0,0-.18-.62.85.85,0,0,0-.48-.34,3.22,3.22,0,0,0-.71-.05h-1.46Z"/><path d="M211.17,117.19h.76v3.31a3.93,3.93,0,0,1-.2,1.37,1.67,1.67,0,0,1-.71.83,2.5,2.5,0,0,1-1.34.32,2.75,2.75,0,0,1-1.32-.28,1.58,1.58,0,0,1-.73-.8,3.83,3.83,0,0,1-.22-1.44v-3.31h.76v3.3a3.21,3.21,0,0,0,.14,1.1,1.06,1.06,0,0,0,.48.54,1.65,1.65,0,0,0,.83.19,1.58,1.58,0,0,0,1.19-.38,2.18,2.18,0,0,0,.36-1.46Z"/><path d="M213.17,122.91v-5.73h1.14l1.36,4.05.27.85q.1-.31.3-.92l1.37-4h1v5.73h-.73v-4.79l-1.66,4.79h-.68L213.9,118v4.88Z"/><path d="M219.86,122.91v-5.73H222a5.25,5.25,0,0,1,.87.05,1.72,1.72,0,0,1,.71.27,1.4,1.4,0,0,1,.46.55,1.86,1.86,0,0,1-.29,2,2.23,2.23,0,0,1-1.68.51h-1.47v2.33Zm.76-3h1.48a1.57,1.57,0,0,0,1-.27,1,1,0,0,0,.31-.77,1,1,0,0,0-.18-.62.85.85,0,0,0-.48-.34,3.22,3.22,0,0,0-.71-.05h-1.46Z"/><path d="M198.73,132.51v-5.73h1.14l1.36,4.05.27.85q.1-.31.3-.92l1.37-4h1v5.73h-.73v-4.79l-1.66,4.79h-.68l-1.66-4.88v4.88Z"/><path d="M205.18,129.73a3.11,3.11,0,0,1,.77-2.23,2.6,2.6,0,0,1,2-.81,2.74,2.74,0,0,1,1.43.38,2.47,2.47,0,0,1,1,1.06,3.43,3.43,0,0,1,.33,1.54,3.37,3.37,0,0,1-.35,1.56,2.4,2.4,0,0,1-1,1,2.85,2.85,0,0,1-1.39.35,2.71,2.71,0,0,1-1.45-.39,2.52,2.52,0,0,1-1-1.07A3.23,3.23,0,0,1,205.18,129.73Zm.78,0a2.29,2.29,0,0,0,.56,1.63,1.94,1.94,0,0,0,2.8,0,2.43,2.43,0,0,0,.55-1.71,2.94,2.94,0,0,0-.24-1.22,1.81,1.81,0,0,0-.69-.81,1.87,1.87,0,0,0-1-.29,1.94,1.94,0,0,0-1.38.55A2.47,2.47,0,0,0,206,129.74Z"/><path d="M213.09,132.51v-5.05h-1.89v-.68h4.54v.68h-1.89v5.05Z"/><path d="M216.15,129.73a3.11,3.11,0,0,1,.77-2.23,2.6,2.6,0,0,1,2-.81,2.74,2.74,0,0,1,1.43.38,2.47,2.47,0,0,1,1,1.06,3.43,3.43,0,0,1,.33,1.54,3.37,3.37,0,0,1-.35,1.56,2.4,2.4,0,0,1-1,1,2.85,2.85,0,0,1-1.39.35,2.71,2.71,0,0,1-1.45-.39,2.52,2.52,0,0,1-1-1.07A3.23,3.23,0,0,1,216.15,129.73Zm.78,0a2.29,2.29,0,0,0,.56,1.63,1.94,1.94,0,0,0,2.8,0,2.43,2.43,0,0,0,.55-1.71,2.94,2.94,0,0,0-.24-1.22,1.81,1.81,0,0,0-.69-.81,1.87,1.87,0,0,0-1-.29,1.94,1.94,0,0,0-1.38.55A2.47,2.47,0,0,0,216.93,129.74Z"/><path d="M222.61,132.51v-5.73h2.54a3.39,3.39,0,0,1,1.16.15,1.27,1.27,0,0,1,.64.54,1.62,1.62,0,0,1,.24.86,1.44,1.44,0,0,1-.39,1,2,2,0,0,1-1.22.53,2,2,0,0,1,.46.29,3.94,3.94,0,0,1,.63.76l1,1.56h-1l-.76-1.19q-.33-.52-.55-.79a1.73,1.73,0,0,0-.38-.38,1.12,1.12,0,0,0-.35-.15,2.25,2.25,0,0,0-.42,0h-.88v2.54Zm.76-3.2H225a2.45,2.45,0,0,0,.81-.11.86.86,0,0,0,.45-.34.93.93,0,0,0,.15-.51.86.86,0,0,0-.29-.67,1.38,1.38,0,0,0-.93-.26h-1.81Z"/><path d="M47.22,82.22V76.49H48v5.05h2.82v.68Z"/><path d="M54.06,82.22h-.7V77.74a3.63,3.63,0,0,1-.67.48,4.77,4.77,0,0,1-.74.36v-.68a4.23,4.23,0,0,0,1-.67,2.64,2.64,0,0,0,.63-.77h.45Z"/><path d="M58.39,82.22V76.49h.76v2.35h3V76.49h.76v5.73h-.76v-2.7h-3v2.7Z"/><path d="M63.91,79.43a3.11,3.11,0,0,1,.77-2.23,2.6,2.6,0,0,1,2-.81,2.74,2.74,0,0,1,1.43.38,2.47,2.47,0,0,1,1,1.06,3.43,3.43,0,0,1,.33,1.54A3.37,3.37,0,0,1,69,80.92a2.4,2.4,0,0,1-1,1,2.85,2.85,0,0,1-1.39.35,2.71,2.71,0,0,1-1.45-.39,2.52,2.52,0,0,1-1-1.07A3.23,3.23,0,0,1,63.91,79.43Zm.78,0a2.29,2.29,0,0,0,.56,1.63,1.94,1.94,0,0,0,2.8,0,2.43,2.43,0,0,0,.55-1.71,2.94,2.94,0,0,0-.24-1.22,1.81,1.81,0,0,0-.69-.81,1.87,1.87,0,0,0-1-.29,1.94,1.94,0,0,0-1.38.55A2.47,2.47,0,0,0,64.7,79.44Z"/><path d="M71.82,82.22V77.17H69.94v-.68h4.54v.68H72.58v5.05Z"/><path d="M26.64,151.34v-5.73h.76v5.05h2.82v.68Z"/><path d="M34.53,150.66v.68H30.74a1.26,1.26,0,0,1,.08-.49,2.6,2.6,0,0,1,.46-.76,7.21,7.21,0,0,1,.92-.87A7.84,7.84,0,0,0,33.47,148a1.45,1.45,0,0,0,.33-.85.94.94,0,0,0-.3-.71,1.08,1.08,0,0,0-.78-.29,1.1,1.1,0,0,0-.81.3,1.15,1.15,0,0,0-.31.84l-.72-.07a1.78,1.78,0,0,1,.56-1.23,1.91,1.91,0,0,1,1.3-.42A1.81,1.81,0,0,1,34,146a1.5,1.5,0,0,1,.48,1.13,1.72,1.72,0,0,1-.14.68,2.61,2.61,0,0,1-.47.7,11.37,11.37,0,0,1-1.08,1q-.63.53-.81.72a2.27,2.27,0,0,0-.3.38Z"/><path d="M37.78,151.34v-5.73h.78l3,4.5v-4.5h.73v5.73h-.78l-3-4.5v4.5Z"/><path d="M43.58,151.34v-5.73h4.14v.68H44.34V148h3.17v.67H44.34v1.95h3.52v.68Z"/><path d="M52.66,145.61h.76v3.31a3.93,3.93,0,0,1-.2,1.37,1.67,1.67,0,0,1-.71.83,2.5,2.5,0,0,1-1.34.32,2.75,2.75,0,0,1-1.32-.28,1.58,1.58,0,0,1-.73-.8,3.83,3.83,0,0,1-.22-1.44v-3.31h.76v3.3a3.21,3.21,0,0,0,.14,1.1,1.06,1.06,0,0,0,.48.54,1.65,1.65,0,0,0,.83.19,1.58,1.58,0,0,0,1.19-.38,2.18,2.18,0,0,0,.36-1.46Z"/><path d="M56.14,151.34v-5.05H54.25v-.68h4.54v.68H56.9v5.05Z"/><path d="M59.58,151.34v-5.73h2.54a3.39,3.39,0,0,1,1.16.15,1.27,1.27,0,0,1,.64.54,1.62,1.62,0,0,1,.24.86,1.44,1.44,0,0,1-.39,1,2,2,0,0,1-1.22.53A2,2,0,0,1,63,149a3.94,3.94,0,0,1,.63.76l1,1.56h-1l-.76-1.19q-.33-.52-.55-.79A1.73,1.73,0,0,0,62,149a1.12,1.12,0,0,0-.35-.15,2.25,2.25,0,0,0-.42,0h-.88v2.54Zm.76-3.2H62a2.45,2.45,0,0,0,.81-.11.86.86,0,0,0,.45-.34.93.93,0,0,0,.15-.51.86.86,0,0,0-.29-.67,1.38,1.38,0,0,0-.93-.26H60.34Z"/><path d="M64.72,151.34l2.2-5.73h.82l2.34,5.73h-.86l-.67-1.73H66.15l-.63,1.73ZM66.37,149h1.94l-.6-1.59q-.27-.72-.41-1.19A7.35,7.35,0,0,1,67,147.3Z"/><path d="M70.65,151.34v-5.73h.76v5.05h2.82v.68Z"/><path d="M81.2,112.33h-.7v-4.48a3.63,3.63,0,0,1-.67.48,4.77,4.77,0,0,1-.74.36V108a4.23,4.23,0,0,0,1-.67,2.64,2.64,0,0,0,.63-.77h.45Z"/><path d="M86.69,111.65v.68H82.91a1.26,1.26,0,0,1,.08-.49,2.6,2.6,0,0,1,.46-.76,7.21,7.21,0,0,1,.92-.87A7.84,7.84,0,0,0,85.64,109a1.45,1.45,0,0,0,.33-.85.94.94,0,0,0-.3-.71,1.08,1.08,0,0,0-.78-.29,1.1,1.1,0,0,0-.81.3,1.15,1.15,0,0,0-.31.84l-.72-.07A1.78,1.78,0,0,1,83.6,107a1.91,1.91,0,0,1,1.3-.42,1.81,1.81,0,0,1,1.3.46,1.5,1.5,0,0,1,.48,1.13,1.72,1.72,0,0,1-.14.68,2.61,2.61,0,0,1-.47.7,11.37,11.37,0,0,1-1.08,1q-.63.53-.81.72a2.27,2.27,0,0,0-.3.38Z"/><path d="M87.45,109.51a5.23,5.23,0,0,1,.21-1.63,2,2,0,0,1,.62-1,1.59,1.59,0,0,1,1-.34,1.69,1.69,0,0,1,.81.19,1.55,1.55,0,0,1,.57.54,2.86,2.86,0,0,1,.36.85,5.66,5.66,0,0,1,.13,1.35,5.27,5.27,0,0,1-.21,1.63,2,2,0,0,1-.62,1,1.74,1.74,0,0,1-2.34-.26A3.77,3.77,0,0,1,87.45,109.51Zm.72,0a3.59,3.59,0,0,0,.33,1.88.94.94,0,0,0,1.63,0,5.5,5.5,0,0,0,0-3.75,1,1,0,0,0-.82-.46.9.9,0,0,0-.77.41A3.63,3.63,0,0,0,88.17,109.51Z"/><path d="M96,112.33l-2.22-5.73h.82l1.49,4.16q.18.5.3.94.13-.47.31-.94l1.55-4.16h.77l-2.24,5.73Z"/><path d="M98.52,112.33l2.2-5.73h.82l2.34,5.73H103l-.67-1.73H100l-.63,1.73Zm1.65-2.35h1.94l-.6-1.59q-.27-.72-.41-1.19a7.35,7.35,0,0,1-.31,1.09Z"/><path d="M108.57,110.32l.76.19a2.55,2.55,0,0,1-.86,1.42,2.36,2.36,0,0,1-1.51.49,2.72,2.72,0,0,1-1.51-.38,2.35,2.35,0,0,1-.88-1.09,3.89,3.89,0,0,1-.3-1.54,3.38,3.38,0,0,1,.34-1.56,2.34,2.34,0,0,1,1-1,2.84,2.84,0,0,1,1.39-.35,2.34,2.34,0,0,1,1.45.44,2.27,2.27,0,0,1,.82,1.23l-.75.18a1.77,1.77,0,0,0-.58-.91,1.54,1.54,0,0,0-1-.29,1.85,1.85,0,0,0-1.1.32,1.67,1.67,0,0,0-.62.85,3.41,3.41,0,0,0-.18,1.1,3.5,3.5,0,0,0,.21,1.28,1.58,1.58,0,0,0,.66.81,1.86,1.86,0,0,0,1,.27,1.63,1.63,0,0,0,1.08-.37A1.88,1.88,0,0,0,108.57,110.32Z"/><path d="M79.44,121.93V116.2H81.6a5.25,5.25,0,0,1,.87.05,1.72,1.72,0,0,1,.71.27,1.4,1.4,0,0,1,.46.55,1.86,1.86,0,0,1-.29,2,2.23,2.23,0,0,1-1.68.51H80.19v2.33Zm.76-3h1.48a1.57,1.57,0,0,0,1-.27,1,1,0,0,0,.31-.77,1,1,0,0,0-.18-.62.85.85,0,0,0-.48-.34,3.22,3.22,0,0,0-.71-.05H80.19Z"/><path d="M84.54,119.14a3.11,3.11,0,0,1,.77-2.23,2.6,2.6,0,0,1,2-.81,2.74,2.74,0,0,1,1.43.38,2.47,2.47,0,0,1,1,1.06,3.43,3.43,0,0,1,.33,1.54,3.37,3.37,0,0,1-.35,1.56,2.4,2.4,0,0,1-1,1,2.85,2.85,0,0,1-1.39.35,2.71,2.71,0,0,1-1.45-.39,2.52,2.52,0,0,1-1-1.07A3.23,3.23,0,0,1,84.54,119.14Zm.78,0a2.29,2.29,0,0,0,.56,1.63,1.94,1.94,0,0,0,2.8,0,2.43,2.43,0,0,0,.55-1.71,2.94,2.94,0,0,0-.24-1.22,1.81,1.81,0,0,0-.69-.81,1.87,1.87,0,0,0-1-.29,1.94,1.94,0,0,0-1.38.55A2.47,2.47,0,0,0,85.32,119.15Z"/><path d="M92,121.93l-1.52-5.73h.78l.87,3.75q.14.59.24,1.17.22-.92.26-1.06l1.09-3.87h.91l.82,2.9a15.25,15.25,0,0,1,.45,2q.11-.54.29-1.25l.9-3.68h.76l-1.57,5.73h-.73l-1.21-4.36c-.1-.36-.16-.59-.18-.67-.06.26-.12.49-.17.67l-1.21,4.36Z"/><path d="M98.56,121.93V116.2h4.14v.68H99.32v1.75h3.17v.67H99.32v1.95h3.52v.68Z"/><path d="M103.89,121.93V116.2h2.54a3.39,3.39,0,0,1,1.16.15,1.27,1.27,0,0,1,.64.54,1.62,1.62,0,0,1,.24.86,1.44,1.44,0,0,1-.39,1,2,2,0,0,1-1.22.53,2,2,0,0,1,.46.29,3.94,3.94,0,0,1,.63.76l1,1.56h-1l-.76-1.19q-.33-.52-.55-.79a1.73,1.73,0,0,0-.38-.38,1.12,1.12,0,0,0-.35-.15,2.25,2.25,0,0,0-.42,0h-.88v2.54Zm.76-3.2h1.63a2.45,2.45,0,0,0,.81-.11.86.86,0,0,0,.45-.34.93.93,0,0,0,.15-.51.86.86,0,0,0-.29-.67,1.38,1.38,0,0,0-.93-.26h-1.81Z"/><line x1="157.13" y1="32.1" x2="177.79" y2="50.77" style="fill:none;stroke:#000"/><path d="M180.23,51.59c-.89-1.48-1.38-2.54-2-3.82l-3.38,3.74a39.6,39.6,0,0,1,4,1.61,29.58,29.58,0,0,1,4,2.19A29.64,29.64,0,0,1,180.23,51.59Z"/><line x1="130.29" y1="31.74" x2="278.13" y2="31.74" style="fill:none;stroke:#000"/><path d="M4.57,36.07V31.77h.84l1.76,2.87V31.77H8v4.29H7.11l-1.73-2.8v2.8Z"/><path d="M8.72,33.95a2.73,2.73,0,0,1,.2-1.1,2,2,0,0,1,.4-.59,1.67,1.67,0,0,1,.56-.39,2.36,2.36,0,0,1,.93-.17,2,2,0,0,1,1.52.59,2.63,2.63,0,0,1,0,3.27,2,2,0,0,1-1.51.59,2,2,0,0,1-1.52-.58A2.22,2.22,0,0,1,8.72,33.95Zm.89,0A1.61,1.61,0,0,0,10,35a1.16,1.16,0,0,0,1.71,0A1.64,1.64,0,0,0,12,33.9a1.61,1.61,0,0,0-.32-1.1,1.2,1.2,0,0,0-1.72,0A1.62,1.62,0,0,0,9.61,33.92Z"/><path d="M14.53,36.07V32.5H13.26v-.73h3.41v.73H15.4v3.57Z"/><path d="M17.23,36.07V31.77h3.18v.73H18.1v1h2.16v.72H18.1v1.17h2.4v.72Z"/><path d="M21.38,33.78V33h.82v.82Zm0,2.29v-.82h.82v.82Z"/><path d="M27.74,31.77h.57v2.48a2.94,2.94,0,0,1-.15,1,1.25,1.25,0,0,1-.53.62,1.87,1.87,0,0,1-1,.24,2.06,2.06,0,0,1-1-.21,1.19,1.19,0,0,1-.55-.6,2.87,2.87,0,0,1-.16-1.08V31.77h.57v2.48a2.42,2.42,0,0,0,.1.82.79.79,0,0,0,.36.41,1.24,1.24,0,0,0,.62.14,1.18,1.18,0,0,0,.89-.28,1.64,1.64,0,0,0,.27-1.09Z"/><path d="M29.06,34.69l.54,0a1.18,1.18,0,0,0,.18.53,1,1,0,0,0,.43.33,1.64,1.64,0,0,0,.66.13,1.58,1.58,0,0,0,.57-.1.8.8,0,0,0,.37-.27.61.61,0,0,0,.12-.37.56.56,0,0,0-.12-.35.87.87,0,0,0-.39-.25,7.56,7.56,0,0,0-.76-.21,3.91,3.91,0,0,1-.83-.27,1.16,1.16,0,0,1-.46-.4,1,1,0,0,1-.15-.53,1.09,1.09,0,0,1,.18-.61,1.14,1.14,0,0,1,.54-.43,2,2,0,0,1,.79-.15,2.15,2.15,0,0,1,.84.15,1.21,1.21,0,0,1,.56.45,1.3,1.3,0,0,1,.21.68l-.54,0a.88.88,0,0,0-.3-.62,1.16,1.16,0,0,0-.75-.21,1.2,1.2,0,0,0-.75.19.57.57,0,0,0-.24.46.49.49,0,0,0,.17.38,2.26,2.26,0,0,0,.86.31,5.67,5.67,0,0,1,1,.27,1.3,1.3,0,0,1,.55.44,1.07,1.07,0,0,1,.18.61,1.17,1.17,0,0,1-.2.65,1.29,1.29,0,0,1-.56.47,2,2,0,0,1-.83.17,2.47,2.47,0,0,1-1-.17,1.37,1.37,0,0,1-.62-.51A1.45,1.45,0,0,1,29.06,34.69Z"/><path d="M33.27,36.07V31.77h3.11v.51H33.84v1.32h2.38v.5H33.84v1.46h2.64v.51Z"/><path d="M38.73,34.69l.54,0a1.18,1.18,0,0,0,.18.53,1,1,0,0,0,.43.33,1.64,1.64,0,0,0,.66.13,1.58,1.58,0,0,0,.57-.1.8.8,0,0,0,.37-.27.61.61,0,0,0,.12-.37.56.56,0,0,0-.12-.35.87.87,0,0,0-.39-.25,7.56,7.56,0,0,0-.76-.21,3.91,3.91,0,0,1-.83-.27,1.16,1.16,0,0,1-.46-.4,1,1,0,0,1-.15-.53,1.09,1.09,0,0,1,.18-.61,1.14,1.14,0,0,1,.54-.43,2,2,0,0,1,.79-.15,2.15,2.15,0,0,1,.84.15,1.21,1.21,0,0,1,.56.45A1.3,1.3,0,0,1,42,33l-.54,0a.88.88,0,0,0-.3-.62,1.16,1.16,0,0,0-.75-.21,1.2,1.2,0,0,0-.75.19.57.57,0,0,0-.24.46.49.49,0,0,0,.17.38,2.26,2.26,0,0,0,.86.31,5.67,5.67,0,0,1,1,.27,1.3,1.3,0,0,1,.55.44,1.07,1.07,0,0,1,.18.61,1.17,1.17,0,0,1-.2.65,1.29,1.29,0,0,1-.56.47,2,2,0,0,1-.83.17,2.47,2.47,0,0,1-1-.17,1.37,1.37,0,0,1-.62-.51A1.45,1.45,0,0,1,38.73,34.69Z"/><path d="M42.94,36.07V31.77H46v.51H43.51v1.32h2.38v.5H43.51v1.46h2.64v.51Z"/><path d="M46.93,36.07V31.77h1.62a3.91,3.91,0,0,1,.65,0,1.29,1.29,0,0,1,.53.2,1.05,1.05,0,0,1,.34.41,1.4,1.4,0,0,1-.22,1.51,1.67,1.67,0,0,1-1.26.38H47.5v1.75Zm.57-2.25h1.11a1.18,1.18,0,0,0,.78-.21.73.73,0,0,0,.23-.58.78.78,0,0,0-.14-.46.64.64,0,0,0-.36-.25,2.43,2.43,0,0,0-.53,0H47.5Z"/><path d="M50,36.07l1.65-4.29h.61L54,36.07h-.65l-.5-1.3h-1.8l-.47,1.3Zm1.24-1.76h1.46l-.45-1.19q-.21-.54-.3-.89a5.48,5.48,0,0,1-.23.82Z"/><path d="M54.5,36.07V31.77h1.9a2.53,2.53,0,0,1,.87.12,1,1,0,0,1,.48.41,1.22,1.22,0,0,1,.18.65,1.08,1.08,0,0,1-.3.77,1.5,1.5,0,0,1-.91.4,1.47,1.47,0,0,1,.34.21,3,3,0,0,1,.47.57l.75,1.17h-.71L57,35.17q-.25-.39-.41-.59a1.29,1.29,0,0,0-.29-.29.85.85,0,0,0-.26-.11l-.32,0h-.66v1.91Zm.57-2.4h1.22a1.83,1.83,0,0,0,.61-.08.65.65,0,0,0,.33-.26.7.7,0,0,0,.11-.39.64.64,0,0,0-.22-.5,1,1,0,0,0-.7-.2H55.07Z"/><path d="M58.35,36.07,60,31.77h.61l1.76,4.29h-.65l-.5-1.3h-1.8L59,36.07Zm1.24-1.76H61l-.45-1.19q-.21-.54-.3-.89a5.48,5.48,0,0,1-.23.82Z"/><path d="M63.47,36.07V32.28H62.06v-.51h3.4v.51H64v3.79Z"/><path d="M66.05,36.07V31.77h3.11v.51H66.62v1.32H69v.5H66.62v1.46h2.64v.51Z"/><path d="M73.48,36.07H73V32.71a2.73,2.73,0,0,1-.5.36,3.54,3.54,0,0,1-.56.27v-.51a3.18,3.18,0,0,0,.77-.5,2,2,0,0,0,.47-.57h.34Z"/><path d="M77.61,35.56v.51H74.77a.93.93,0,0,1,.06-.37,1.94,1.94,0,0,1,.35-.57,5.44,5.44,0,0,1,.69-.65,5.85,5.85,0,0,0,.95-.91,1.09,1.09,0,0,0,.25-.63.7.7,0,0,0-.22-.53.81.81,0,0,0-.58-.22.82.82,0,0,0-.61.23.86.86,0,0,0-.23.63L74.87,33a1.33,1.33,0,0,1,.42-.92,1.43,1.43,0,0,1,1-.32,1.36,1.36,0,0,1,1,.34,1.13,1.13,0,0,1,.36.85,1.29,1.29,0,0,1-.11.51,2,2,0,0,1-.35.52,8.53,8.53,0,0,1-.81.76q-.47.4-.61.54a1.73,1.73,0,0,0-.22.29Z"/><path d="M78.17,33.95a3.93,3.93,0,0,1,.16-1.23,1.53,1.53,0,0,1,.47-.72,1.19,1.19,0,0,1,.78-.25,1.27,1.27,0,0,1,.61.14,1.16,1.16,0,0,1,.43.4,2.15,2.15,0,0,1,.27.64,4.24,4.24,0,0,1,.1,1,3.94,3.94,0,0,1-.16,1.22,1.53,1.53,0,0,1-.46.72,1.19,1.19,0,0,1-.78.25,1.18,1.18,0,0,1-1-.45A2.83,2.83,0,0,1,78.17,33.95Zm.54,0A2.69,2.69,0,0,0,79,35.36a.71.71,0,0,0,1.22,0,2.69,2.69,0,0,0,.25-1.41,2.69,2.69,0,0,0-.25-1.41.73.73,0,0,0-.62-.35.68.68,0,0,0-.58.31A2.72,2.72,0,0,0,78.71,33.95Z"/><path d="M84.62,36.07,83,31.77h.62l1.12,3.12q.13.38.23.7.1-.35.23-.7l1.16-3.12h.58L85.2,36.07Z"/><path d="M86.47,36.07l1.65-4.29h.61l1.76,4.29h-.65l-.5-1.3h-1.8l-.47,1.3Zm1.24-1.76h1.46l-.45-1.19q-.21-.54-.3-.89a5.48,5.48,0,0,1-.23.82Z"/><path d="M94,34.56l.57.14a1.91,1.91,0,0,1-.64,1.07,1.77,1.77,0,0,1-1.14.37,2,2,0,0,1-1.13-.28A1.77,1.77,0,0,1,91,35a2.92,2.92,0,0,1-.23-1.15A2.53,2.53,0,0,1,91,32.72a1.76,1.76,0,0,1,.73-.76,2.13,2.13,0,0,1,1-.26A1.76,1.76,0,0,1,93.9,32a1.7,1.7,0,0,1,.61.92l-.56.13a1.33,1.33,0,0,0-.43-.68,1.16,1.16,0,0,0-.71-.21,1.39,1.39,0,0,0-.83.24,1.25,1.25,0,0,0-.47.64,2.57,2.57,0,0,0-.13.82,2.62,2.62,0,0,0,.16,1,1.19,1.19,0,0,0,.5.61,1.39,1.39,0,0,0,.73.2,1.22,1.22,0,0,0,.81-.28A1.41,1.41,0,0,0,94,34.56Z"/><path d="M96.95,36.07V31.77h1.62a3.91,3.91,0,0,1,.65,0,1.29,1.29,0,0,1,.53.2,1.05,1.05,0,0,1,.34.41,1.4,1.4,0,0,1-.22,1.51,1.67,1.67,0,0,1-1.26.38h-1.1v1.75Zm.57-2.25h1.11a1.18,1.18,0,0,0,.78-.21.73.73,0,0,0,.23-.58.78.78,0,0,0-.14-.46.64.64,0,0,0-.36-.25,2.43,2.43,0,0,0-.53,0h-1.1Z"/><path d="M100.78,34a2.33,2.33,0,0,1,.57-1.67,2,2,0,0,1,1.48-.6,2.06,2.06,0,0,1,1.07.28,1.86,1.86,0,0,1,.73.79,2.57,2.57,0,0,1,.25,1.15,2.53,2.53,0,0,1-.26,1.17,1.8,1.8,0,0,1-.75.78,2.13,2.13,0,0,1-1,.27,2,2,0,0,1-1.08-.29A1.89,1.89,0,0,1,101,35,2.42,2.42,0,0,1,100.78,34Zm.59,0a1.72,1.72,0,0,0,.42,1.22,1.46,1.46,0,0,0,2.1,0,1.82,1.82,0,0,0,.41-1.28,2.2,2.2,0,0,0-.18-.92,1.36,1.36,0,0,0-.52-.61,1.41,1.41,0,0,0-.77-.22,1.45,1.45,0,0,0-1,.41A1.85,1.85,0,0,0,101.36,34Z"/><path d="M106.37,36.07l-1.14-4.29h.58l.65,2.82q.11.44.18.88l.19-.79.82-2.9h.69l.62,2.17a11.52,11.52,0,0,1,.33,1.52q.08-.41.21-.93l.67-2.76h.57l-1.18,4.29H109l-.91-3.27q-.11-.41-.13-.5-.07.3-.13.5l-.91,3.27Z"/><path d="M111.29,36.07V31.77h3.11v.51h-2.54v1.32h2.38v.5h-2.38v1.46h2.64v.51Z"/><path d="M115.29,36.07V31.77h1.9a2.53,2.53,0,0,1,.87.12,1,1,0,0,1,.48.41,1.22,1.22,0,0,1,.18.65,1.08,1.08,0,0,1-.3.77,1.5,1.5,0,0,1-.91.4,1.47,1.47,0,0,1,.34.21,3,3,0,0,1,.47.57l.75,1.17h-.71l-.57-.89q-.25-.39-.41-.59a1.29,1.29,0,0,0-.29-.29.85.85,0,0,0-.26-.11l-.32,0h-.66v1.91Zm.57-2.4h1.22a1.83,1.83,0,0,0,.61-.08.65.65,0,0,0,.33-.26.7.7,0,0,0,.11-.39.64.64,0,0,0-.22-.5,1,1,0,0,0-.7-.2h-1.36Z"/><path d="M4.4,41.89l.54,0a1.18,1.18,0,0,0,.18.53,1,1,0,0,0,.43.33,1.64,1.64,0,0,0,.66.13,1.58,1.58,0,0,0,.57-.1.8.8,0,0,0,.37-.27.61.61,0,0,0,.12-.37.56.56,0,0,0-.12-.35.87.87,0,0,0-.39-.25A7.56,7.56,0,0,0,6,41.29,3.91,3.91,0,0,1,5.17,41a1.16,1.16,0,0,1-.46-.4,1,1,0,0,1-.15-.53,1.09,1.09,0,0,1,.18-.61A1.14,1.14,0,0,1,5.28,39a2,2,0,0,1,.79-.15,2.15,2.15,0,0,1,.84.15,1.21,1.21,0,0,1,.56.45,1.3,1.3,0,0,1,.21.68l-.54,0a.88.88,0,0,0-.3-.62,1.16,1.16,0,0,0-.75-.21,1.2,1.2,0,0,0-.75.19.57.57,0,0,0-.24.46.49.49,0,0,0,.17.38,2.26,2.26,0,0,0,.86.31,5.67,5.67,0,0,1,1,.27,1.3,1.3,0,0,1,.55.44,1.07,1.07,0,0,1,.18.61,1.17,1.17,0,0,1-.2.65,1.29,1.29,0,0,1-.56.47,2,2,0,0,1-.83.17,2.47,2.47,0,0,1-1-.17,1.37,1.37,0,0,1-.62-.51A1.45,1.45,0,0,1,4.4,41.89Z"/><path d="M11.41,39H12v2.48a2.94,2.94,0,0,1-.15,1,1.25,1.25,0,0,1-.53.62,1.87,1.87,0,0,1-1,.24,2.06,2.06,0,0,1-1-.21,1.19,1.19,0,0,1-.55-.6,2.87,2.87,0,0,1-.16-1.08V39h.57v2.48a2.42,2.42,0,0,0,.1.82.79.79,0,0,0,.36.41,1.24,1.24,0,0,0,.62.14,1.18,1.18,0,0,0,.89-.28,1.64,1.64,0,0,0,.27-1.09Z"/><path d="M12.92,43.27V39h1.62a3.91,3.91,0,0,1,.65,0,1.29,1.29,0,0,1,.53.2,1.05,1.05,0,0,1,.34.41,1.4,1.4,0,0,1-.22,1.51,1.67,1.67,0,0,1-1.26.38h-1.1v1.75ZM13.49,41H14.6a1.18,1.18,0,0,0,.78-.21.73.73,0,0,0,.23-.58.78.78,0,0,0-.14-.46.64.64,0,0,0-.36-.25,2.43,2.43,0,0,0-.53,0h-1.1Z"/><path d="M16.93,43.27V39h1.62a3.91,3.91,0,0,1,.65,0,1.29,1.29,0,0,1,.53.2,1.05,1.05,0,0,1,.34.41,1.4,1.4,0,0,1-.22,1.51,1.67,1.67,0,0,1-1.26.38H17.5v1.75ZM17.5,41h1.11a1.18,1.18,0,0,0,.78-.21.73.73,0,0,0,.23-.58.78.78,0,0,0-.14-.46.64.64,0,0,0-.36-.25,2.43,2.43,0,0,0-.53,0H17.5Z"/><path d="M20.91,43.27V39h.57v3.79h2.12v.51Z"/><path d="M25,43.27V41.45L23.37,39h.69l.85,1.29q.23.36.44.73.19-.34.47-.76L26.65,39h.66L25.6,41.45v1.82Z"/><path d="M29.41,43.27V39h2.9v.51H30v1.33h2v.51H30v2Z"/><path d="M32.87,41.18a2.33,2.33,0,0,1,.57-1.67,2,2,0,0,1,1.48-.6,2.06,2.06,0,0,1,1.07.28,1.86,1.86,0,0,1,.73.79A2.57,2.57,0,0,1,37,41.13a2.53,2.53,0,0,1-.26,1.17,1.8,1.8,0,0,1-.75.78,2.13,2.13,0,0,1-1,.27A2,2,0,0,1,33.84,43a1.89,1.89,0,0,1-.72-.8A2.42,2.42,0,0,1,32.87,41.18Zm.59,0a1.72,1.72,0,0,0,.42,1.22,1.46,1.46,0,0,0,2.1,0,1.82,1.82,0,0,0,.41-1.28,2.2,2.2,0,0,0-.18-.92,1.36,1.36,0,0,0-.52-.61,1.41,1.41,0,0,0-.77-.22,1.45,1.45,0,0,0-1,.41A1.85,1.85,0,0,0,33.46,41.18Z"/><path d="M37.72,43.27V39h1.9a2.53,2.53,0,0,1,.87.12,1,1,0,0,1,.48.41,1.22,1.22,0,0,1,.18.65,1.08,1.08,0,0,1-.3.77,1.5,1.5,0,0,1-.91.4,1.47,1.47,0,0,1,.34.21,3,3,0,0,1,.47.57l.75,1.17h-.71l-.57-.89q-.25-.39-.41-.59a1.29,1.29,0,0,0-.29-.29.85.85,0,0,0-.26-.11l-.32,0h-.66v1.91Zm.57-2.4h1.22a1.83,1.83,0,0,0,.61-.08.65.65,0,0,0,.33-.26.7.7,0,0,0,.11-.39.64.64,0,0,0-.22-.5,1,1,0,0,0-.7-.2H38.29Z"/><path d="M43.71,43.27V39h1.62A3.91,3.91,0,0,1,46,39a1.29,1.29,0,0,1,.53.2,1.05,1.05,0,0,1,.34.41,1.4,1.4,0,0,1-.22,1.51,1.67,1.67,0,0,1-1.26.38h-1.1v1.75ZM44.28,41h1.11a1.18,1.18,0,0,0,.78-.21.73.73,0,0,0,.23-.58.78.78,0,0,0-.14-.46.64.64,0,0,0-.36-.25,2.43,2.43,0,0,0-.53,0h-1.1Z"/><path d="M50.53,39h.57v2.48a2.94,2.94,0,0,1-.15,1,1.25,1.25,0,0,1-.53.62,1.87,1.87,0,0,1-1,.24,2.06,2.06,0,0,1-1-.21,1.19,1.19,0,0,1-.55-.6,2.87,2.87,0,0,1-.16-1.08V39h.57v2.48a2.42,2.42,0,0,0,.1.82.79.79,0,0,0,.36.41,1.24,1.24,0,0,0,.62.14,1.18,1.18,0,0,0,.89-.28,1.64,1.64,0,0,0,.27-1.09Z"/><path d="M52,43.27V39h.86l1,3,.21.64.23-.69,1-3h.76v4.29h-.55V39.67l-1.25,3.59h-.51l-1.24-3.66v3.66Z"/><path d="M57,43.27V39h1.62a3.91,3.91,0,0,1,.65,0,1.29,1.29,0,0,1,.53.2,1.05,1.05,0,0,1,.34.41A1.4,1.4,0,0,1,60,41.14a1.67,1.67,0,0,1-1.26.38h-1.1v1.75ZM57.61,41h1.11a1.18,1.18,0,0,0,.78-.21.73.73,0,0,0,.23-.58.78.78,0,0,0-.14-.46.64.64,0,0,0-.36-.25,2.43,2.43,0,0,0-.53,0h-1.1Z"/><path d="M65.67,41.76l.57.14A1.91,1.91,0,0,1,65.6,43a1.77,1.77,0,0,1-1.14.37,2,2,0,0,1-1.13-.28,1.77,1.77,0,0,1-.66-.82,2.92,2.92,0,0,1-.23-1.15,2.53,2.53,0,0,1,.26-1.17,1.76,1.76,0,0,1,.73-.76,2.13,2.13,0,0,1,1-.26,1.76,1.76,0,0,1,1.08.33,1.7,1.7,0,0,1,.61.92l-.56.13a1.33,1.33,0,0,0-.43-.68,1.16,1.16,0,0,0-.71-.21,1.39,1.39,0,0,0-.83.24,1.25,1.25,0,0,0-.47.64,2.57,2.57,0,0,0-.13.82,2.62,2.62,0,0,0,.16,1,1.19,1.19,0,0,0,.5.61,1.39,1.39,0,0,0,.73.2,1.22,1.22,0,0,0,.81-.28A1.41,1.41,0,0,0,65.67,41.76Z"/><path d="M67,43.27V39h.57v4.29Z"/><path d="M68.62,43.27V39h1.9a2.53,2.53,0,0,1,.87.12,1,1,0,0,1,.48.41,1.22,1.22,0,0,1,.18.65,1.08,1.08,0,0,1-.3.77,1.5,1.5,0,0,1-.91.4,1.47,1.47,0,0,1,.34.21,3,3,0,0,1,.47.57l.75,1.17h-.71l-.57-.89q-.25-.39-.41-.59a1.29,1.29,0,0,0-.29-.29.85.85,0,0,0-.26-.11l-.32,0h-.66v1.91Zm.57-2.4h1.22a1.83,1.83,0,0,0,.61-.08.65.65,0,0,0,.33-.26.7.7,0,0,0,.11-.39.64.64,0,0,0-.22-.5,1,1,0,0,0-.7-.2H69.18Z"/><path d="M76,41.76l.57.14A1.91,1.91,0,0,1,75.93,43a1.77,1.77,0,0,1-1.14.37,2,2,0,0,1-1.13-.28,1.77,1.77,0,0,1-.66-.82,2.92,2.92,0,0,1-.23-1.15A2.53,2.53,0,0,1,73,39.92a1.76,1.76,0,0,1,.73-.76,2.13,2.13,0,0,1,1-.26,1.76,1.76,0,0,1,1.08.33,1.7,1.7,0,0,1,.61.92l-.56.13a1.33,1.33,0,0,0-.43-.68,1.16,1.16,0,0,0-.71-.21,1.39,1.39,0,0,0-.83.24,1.25,1.25,0,0,0-.47.64,2.57,2.57,0,0,0-.13.82,2.62,2.62,0,0,0,.16,1,1.19,1.19,0,0,0,.5.61,1.39,1.39,0,0,0,.73.2,1.22,1.22,0,0,0,.81-.28A1.41,1.41,0,0,0,76,41.76Z"/><path d="M80.09,39h.57v2.48a2.94,2.94,0,0,1-.15,1,1.25,1.25,0,0,1-.53.62,1.87,1.87,0,0,1-1,.24,2.06,2.06,0,0,1-1-.21,1.19,1.19,0,0,1-.55-.6,2.87,2.87,0,0,1-.16-1.08V39h.57v2.48a2.42,2.42,0,0,0,.1.82.79.79,0,0,0,.36.41,1.24,1.24,0,0,0,.62.14,1.18,1.18,0,0,0,.89-.28,1.64,1.64,0,0,0,.27-1.09Z"/><path d="M81.7,43.27V39h.57v4.29Z"/><path d="M84.37,43.27V39.48H83V39h3.4v.51H84.93v3.79Z"/><path d="M86.35,43.27v-.6H87v.6Z"/><path d="M89.61,43.27V39h1.48a3.59,3.59,0,0,1,.76.06,1.45,1.45,0,0,1,.63.31,1.75,1.75,0,0,1,.51.73,2.88,2.88,0,0,1,.17,1A3,3,0,0,1,93,42a2.1,2.1,0,0,1-.29.63,1.56,1.56,0,0,1-.39.39,1.59,1.59,0,0,1-.51.22,2.93,2.93,0,0,1-.69.07Zm.57-.51h.92a2.23,2.23,0,0,0,.67-.08,1,1,0,0,0,.39-.22,1.35,1.35,0,0,0,.31-.54,2.66,2.66,0,0,0,.11-.83,2,2,0,0,0-.22-1,1.11,1.11,0,0,0-.54-.48,2.22,2.22,0,0,0-.74-.09h-.9Z"/><path d="M93.77,41.18a2.33,2.33,0,0,1,.57-1.67,2,2,0,0,1,1.48-.6,2.06,2.06,0,0,1,1.07.28,1.86,1.86,0,0,1,.73.79,2.57,2.57,0,0,1,.25,1.15,2.53,2.53,0,0,1-.26,1.17,1.8,1.8,0,0,1-.75.78,2.13,2.13,0,0,1-1,.27A2,2,0,0,1,94.74,43a1.89,1.89,0,0,1-.72-.8A2.42,2.42,0,0,1,93.77,41.18Zm.59,0a1.72,1.72,0,0,0,.42,1.22,1.46,1.46,0,0,0,2.1,0,1.82,1.82,0,0,0,.41-1.28,2.2,2.2,0,0,0-.18-.92,1.36,1.36,0,0,0-.52-.61,1.41,1.41,0,0,0-.77-.22,1.45,1.45,0,0,0-1,.41A1.85,1.85,0,0,0,94.35,41.18Z"/><path d="M100.27,43.27V39h.58l2.26,3.37V39h.54v4.29h-.58l-2.26-3.37v3.38Z"/><path d="M104.43,41.18A2.33,2.33,0,0,1,105,39.5a2,2,0,0,1,1.48-.6,2.06,2.06,0,0,1,1.07.28,1.86,1.86,0,0,1,.73.79,2.57,2.57,0,0,1,.25,1.15,2.53,2.53,0,0,1-.26,1.17,1.8,1.8,0,0,1-.75.78,2.13,2.13,0,0,1-1,.27A2,2,0,0,1,105.4,43a1.89,1.89,0,0,1-.72-.8A2.42,2.42,0,0,1,104.43,41.18Zm.59,0a1.72,1.72,0,0,0,.42,1.22,1.46,1.46,0,0,0,2.1,0,1.82,1.82,0,0,0,.41-1.28,2.2,2.2,0,0,0-.18-.92,1.36,1.36,0,0,0-.52-.61,1.41,1.41,0,0,0-.77-.22,1.45,1.45,0,0,0-1,.41A1.85,1.85,0,0,0,105,41.18Z"/><path d="M110.37,43.27V39.48H109V39h3.4v.51h-1.42v3.79Z"/><path d="M4.4,49.09l.54,0a1.18,1.18,0,0,0,.18.53,1,1,0,0,0,.43.33A1.64,1.64,0,0,0,6.2,50a1.58,1.58,0,0,0,.57-.1.8.8,0,0,0,.37-.27.61.61,0,0,0,.12-.37.56.56,0,0,0-.12-.35.87.87,0,0,0-.39-.25A7.56,7.56,0,0,0,6,48.48a3.91,3.91,0,0,1-.83-.27,1.16,1.16,0,0,1-.46-.4,1,1,0,0,1-.15-.53,1.09,1.09,0,0,1,.18-.61,1.14,1.14,0,0,1,.54-.43,2,2,0,0,1,.79-.15,2.15,2.15,0,0,1,.84.15,1.21,1.21,0,0,1,.56.45,1.3,1.3,0,0,1,.21.68l-.54,0a.88.88,0,0,0-.3-.62,1.16,1.16,0,0,0-.75-.21,1.2,1.2,0,0,0-.75.19.57.57,0,0,0-.24.46.49.49,0,0,0,.17.38,2.26,2.26,0,0,0,.86.31,5.67,5.67,0,0,1,1,.27,1.3,1.3,0,0,1,.55.44,1.07,1.07,0,0,1,.18.61,1.17,1.17,0,0,1-.2.65,1.29,1.29,0,0,1-.56.47,2,2,0,0,1-.83.17,2.47,2.47,0,0,1-1-.17,1.37,1.37,0,0,1-.62-.51A1.45,1.45,0,0,1,4.4,49.09Z"/><path d="M8.61,50.47V46.17h.57v1.76h2.23V46.17H12v4.29h-.57v-2H9.18v2Z"/><path d="M12.45,50.47l1.65-4.29h.61l1.76,4.29h-.65l-.5-1.3h-1.8l-.47,1.3Zm1.24-1.76h1.46l-.45-1.19q-.21-.54-.3-.89a5.48,5.48,0,0,1-.23.82Z"/><path d="M16.94,50.47V46.17h1.9a2.53,2.53,0,0,1,.87.12,1,1,0,0,1,.48.41,1.22,1.22,0,0,1,.18.65,1.08,1.08,0,0,1-.3.77,1.5,1.5,0,0,1-.91.4,1.47,1.47,0,0,1,.34.21,3,3,0,0,1,.47.57l.75,1.17H20l-.57-.89q-.25-.39-.41-.59a1.29,1.29,0,0,0-.29-.29.85.85,0,0,0-.26-.11l-.32,0H17.5v1.91Zm.57-2.4h1.22a1.83,1.83,0,0,0,.61-.08.65.65,0,0,0,.33-.26.7.7,0,0,0,.11-.39.64.64,0,0,0-.22-.5,1,1,0,0,0-.7-.2H17.5Z"/><path d="M21.27,50.47V46.17h3.11v.51H21.84V48h2.38v.5H21.84V50h2.64v.51Z"/><path d="M26.93,50.47V46.17h1.62a3.91,3.91,0,0,1,.65,0,1.29,1.29,0,0,1,.53.2,1.05,1.05,0,0,1,.34.41,1.4,1.4,0,0,1-.22,1.51,1.67,1.67,0,0,1-1.26.38H27.5v1.75Zm.57-2.25h1.11a1.18,1.18,0,0,0,.78-.21.73.73,0,0,0,.23-.58.78.78,0,0,0-.14-.46.64.64,0,0,0-.36-.25,2.43,2.43,0,0,0-.53,0H27.5Z"/><path d="M30.76,48.38a2.33,2.33,0,0,1,.57-1.67,2,2,0,0,1,1.48-.6,2.06,2.06,0,0,1,1.07.28,1.86,1.86,0,0,1,.73.79,2.57,2.57,0,0,1,.25,1.15,2.53,2.53,0,0,1-.26,1.17,1.8,1.8,0,0,1-.75.78,2.13,2.13,0,0,1-1,.27,2,2,0,0,1-1.08-.29,1.89,1.89,0,0,1-.72-.8A2.42,2.42,0,0,1,30.76,48.38Zm.59,0a1.72,1.72,0,0,0,.42,1.22,1.46,1.46,0,0,0,2.1,0,1.82,1.82,0,0,0,.41-1.28,2.2,2.2,0,0,0-.18-.92,1.36,1.36,0,0,0-.52-.61,1.41,1.41,0,0,0-.77-.22,1.45,1.45,0,0,0-1,.41A1.85,1.85,0,0,0,31.34,48.38Z"/><path d="M36.35,50.47l-1.14-4.29h.58L36.44,49q.11.44.18.88l.19-.79.82-2.9h.69l.62,2.17a11.52,11.52,0,0,1,.33,1.52q.08-.41.21-.93l.67-2.76h.57l-1.18,4.29H39l-.91-3.27q-.11-.41-.13-.5-.07.3-.13.5l-.91,3.27Z"/><path d="M41.27,50.47V46.17h3.11v.51H41.84V48h2.38v.5H41.84V50h2.64v.51Z"/><path d="M45.27,50.47V46.17h1.9a2.53,2.53,0,0,1,.87.12,1,1,0,0,1,.48.41,1.22,1.22,0,0,1,.18.65,1.08,1.08,0,0,1-.3.77,1.5,1.5,0,0,1-.91.4,1.47,1.47,0,0,1,.34.21,3,3,0,0,1,.47.57l.75,1.17h-.71l-.57-.89q-.25-.39-.41-.59a1.29,1.29,0,0,0-.29-.29.85.85,0,0,0-.26-.11l-.32,0h-.66v1.91Zm.57-2.4h1.22a1.83,1.83,0,0,0,.61-.08.65.65,0,0,0,.33-.26.7.7,0,0,0,.11-.39.64.64,0,0,0-.22-.5,1,1,0,0,0-.7-.2H45.84Z"/><path d="M52,50.47l-1.14-4.29h.58L52.11,49q.11.44.18.88l.19-.79.82-2.9H54l.62,2.17a11.52,11.52,0,0,1,.33,1.52q.08-.41.21-.93l.67-2.76h.57l-1.18,4.29h-.55l-.91-3.27q-.11-.41-.13-.5-.07.3-.13.5l-.91,3.27Z"/><path d="M57,50.47V46.17h.57v4.29Z"/><path d="M59.69,50.47V46.68H58.27v-.51h3.4v.51H60.25v3.79Z"/><path d="M62.28,50.47V46.17h.57v1.76h2.23V46.17h.57v4.29h-.57v-2H62.84v2Z"/><path d="M69,50.47l-1.14-4.29h.58L69.1,49q.11.44.18.88l.19-.79.82-2.9H71l.62,2.17a11.52,11.52,0,0,1,.33,1.52q.08-.41.21-.93l.67-2.76h.57l-1.18,4.29h-.55l-.91-3.27q-.11-.41-.13-.5-.07.3-.13.5l-.91,3.27Z"/><path d="M73.23,50.47l1.65-4.29h.61l1.76,4.29H76.6l-.5-1.3H74.3l-.47,1.3Zm1.24-1.76h1.46l-.45-1.19q-.21-.54-.3-.89a5.48,5.48,0,0,1-.23.82Z"/><path d="M78.35,50.47V46.68H76.93v-.51h3.4v.51H78.92v3.79Z"/><path d="M80.93,50.47V46.17H84v.51H81.5V48h2.38v.5H81.5V50h2.64v.51Z"/><path d="M84.93,50.47V46.17h1.9a2.53,2.53,0,0,1,.87.12,1,1,0,0,1,.48.41,1.22,1.22,0,0,1,.18.65,1.08,1.08,0,0,1-.3.77,1.5,1.5,0,0,1-.91.4,1.47,1.47,0,0,1,.34.21,3,3,0,0,1,.47.57l.75,1.17H88l-.57-.89q-.25-.39-.41-.59a1.29,1.29,0,0,0-.29-.29.85.85,0,0,0-.26-.11l-.32,0H85.5v1.91Zm.57-2.4h1.22a1.83,1.83,0,0,0,.61-.08.65.65,0,0,0,.33-.26.7.7,0,0,0,.11-.39.64.64,0,0,0-.22-.5,1,1,0,0,0-.7-.2H85.5Z"/><path d="M90.94,50.47V46.17h.57v1.76h2.23V46.17h.57v4.29h-.57v-2H91.51v2Z"/><path d="M95.27,50.47V46.17h3.11v.51H95.83V48h2.38v.5H95.83V50h2.64v.51Z"/><path d="M98.79,50.47l1.65-4.29H101l1.76,4.29h-.65l-.5-1.3h-1.8l-.47,1.3ZM100,48.7h1.46L101,47.51q-.21-.54-.3-.89a5.48,5.48,0,0,1-.23.82Z"/><path d="M103.91,50.47V46.68h-1.42v-.51h3.4v.51h-1.42v3.79Z"/><path d="M106.49,50.47V46.17h3.11v.51h-2.54V48h2.38v.5h-2.38V50h2.64v.51Z"/><path d="M110.49,50.47V46.17h1.9a2.53,2.53,0,0,1,.87.12,1,1,0,0,1,.48.41,1.22,1.22,0,0,1,.18.65,1.08,1.08,0,0,1-.3.77,1.5,1.5,0,0,1-.91.4,1.47,1.47,0,0,1,.34.21,3,3,0,0,1,.47.57l.75,1.17h-.71l-.57-.89q-.25-.39-.41-.59a1.29,1.29,0,0,0-.29-.29.85.85,0,0,0-.26-.11l-.32,0h-.66v1.91Zm.57-2.4h1.22a1.83,1.83,0,0,0,.61-.08.65.65,0,0,0,.33-.26.7.7,0,0,0,.11-.39.64.64,0,0,0-.22-.5,1,1,0,0,0-.7-.2h-1.36Z"/><path d="M115.68,50.47l1.65-4.29h.61l1.76,4.29H119l-.5-1.3h-1.8l-.47,1.3Zm1.24-1.76h1.46l-.45-1.19q-.21-.54-.3-.89a5.48,5.48,0,0,1-.23.82Z"/><path d="M120,49.09l.54,0a1.18,1.18,0,0,0,.18.53,1,1,0,0,0,.43.33,1.64,1.64,0,0,0,.66.13,1.58,1.58,0,0,0,.57-.1.8.8,0,0,0,.37-.27.61.61,0,0,0,.12-.37.56.56,0,0,0-.12-.35.87.87,0,0,0-.39-.25,7.56,7.56,0,0,0-.76-.21,3.91,3.91,0,0,1-.83-.27,1.16,1.16,0,0,1-.46-.4,1,1,0,0,1-.15-.53,1.09,1.09,0,0,1,.18-.61,1.14,1.14,0,0,1,.54-.43,2,2,0,0,1,.79-.15,2.15,2.15,0,0,1,.84.15,1.21,1.21,0,0,1,.56.45,1.3,1.3,0,0,1,.21.68l-.54,0a.88.88,0,0,0-.3-.62,1.16,1.16,0,0,0-.75-.21,1.2,1.2,0,0,0-.75.19.57.57,0,0,0-.24.46.49.49,0,0,0,.17.38,2.26,2.26,0,0,0,.86.31,5.67,5.67,0,0,1,1,.27,1.3,1.3,0,0,1,.55.44,1.07,1.07,0,0,1,.18.61,1.17,1.17,0,0,1-.2.65,1.29,1.29,0,0,1-.56.47,2,2,0,0,1-.83.17,2.47,2.47,0,0,1-1-.17,1.37,1.37,0,0,1-.62-.51A1.45,1.45,0,0,1,120,49.09Z"/><path d="M5.68,57.67V53.88H4.27v-.51h3.4v.51H6.25v3.79Z"/><path d="M8.27,57.67V53.37h.57v1.76h2.23V53.37h.57v4.29h-.57v-2H8.84v2Z"/><path d="M12.68,57.67V53.37h.57v4.29Z"/><path d="M14.06,56.29l.54,0a1.18,1.18,0,0,0,.18.53,1,1,0,0,0,.43.33,1.64,1.64,0,0,0,.66.13,1.58,1.58,0,0,0,.57-.1.8.8,0,0,0,.37-.27.61.61,0,0,0,.12-.37.56.56,0,0,0-.12-.35.87.87,0,0,0-.39-.25,7.56,7.56,0,0,0-.76-.21,3.91,3.91,0,0,1-.83-.27,1.16,1.16,0,0,1-.46-.4,1,1,0,0,1-.15-.53,1.09,1.09,0,0,1,.18-.61,1.14,1.14,0,0,1,.54-.43,2,2,0,0,1,.79-.15,2.15,2.15,0,0,1,.84.15,1.21,1.21,0,0,1,.56.45,1.3,1.3,0,0,1,.21.68l-.54,0a.88.88,0,0,0-.3-.62,1.16,1.16,0,0,0-.75-.21A1.2,1.2,0,0,0,15,54a.57.57,0,0,0-.24.46.49.49,0,0,0,.17.38,2.26,2.26,0,0,0,.86.31,5.67,5.67,0,0,1,1,.27,1.3,1.3,0,0,1,.55.44,1.07,1.07,0,0,1,.18.61,1.17,1.17,0,0,1-.2.65,1.29,1.29,0,0,1-.56.47,2,2,0,0,1-.83.17,2.47,2.47,0,0,1-1-.17,1.37,1.37,0,0,1-.62-.51A1.45,1.45,0,0,1,14.06,56.29Z"/><path d="M19.91,57.67V53.37h.86l1,3L22,57l.23-.69,1-3H24v4.29h-.55V54.07l-1.25,3.59H21.7L20.45,54v3.66Z"/><path d="M24.45,57.67l1.65-4.29h.61l1.76,4.29h-.65l-.5-1.3h-1.8l-.47,1.3Zm1.24-1.76h1.46l-.45-1.19q-.21-.54-.3-.89a5.48,5.48,0,0,1-.23.82Z"/><path d="M29.69,57.67V55.85L28,53.37h.69l.85,1.29q.23.36.44.73.19-.34.47-.76l.83-1.26H32l-1.71,2.48v1.82Z"/><path d="M37.1,56.16l.57.14A1.91,1.91,0,0,1,37,57.37a1.77,1.77,0,0,1-1.14.37,2,2,0,0,1-1.13-.28,1.77,1.77,0,0,1-.66-.82,2.92,2.92,0,0,1-.23-1.15,2.53,2.53,0,0,1,.26-1.17,1.76,1.76,0,0,1,.73-.76,2.13,2.13,0,0,1,1-.26,1.76,1.76,0,0,1,1.08.33,1.7,1.7,0,0,1,.61.92l-.56.13a1.33,1.33,0,0,0-.43-.68,1.16,1.16,0,0,0-.71-.21,1.39,1.39,0,0,0-.83.24,1.25,1.25,0,0,0-.47.64,2.57,2.57,0,0,0-.13.82,2.62,2.62,0,0,0,.16,1,1.19,1.19,0,0,0,.5.61,1.39,1.39,0,0,0,.73.2,1.22,1.22,0,0,0,.81-.28A1.41,1.41,0,0,0,37.1,56.16Z"/><path d="M37.9,57.67l1.65-4.29h.61l1.76,4.29h-.65l-.5-1.3H39l-.47,1.3Zm1.24-1.76H40.6l-.45-1.19q-.21-.54-.3-.89a5.48,5.48,0,0,1-.23.82Z"/><path d="M45.19,53.37h.57v2.48a2.94,2.94,0,0,1-.15,1,1.25,1.25,0,0,1-.53.62,1.87,1.87,0,0,1-1,.24,2.06,2.06,0,0,1-1-.21,1.19,1.19,0,0,1-.55-.6,2.87,2.87,0,0,1-.16-1.08V53.37H43v2.48a2.42,2.42,0,0,0,.1.82.79.79,0,0,0,.36.41,1.24,1.24,0,0,0,.62.14,1.18,1.18,0,0,0,.89-.28,1.64,1.64,0,0,0,.27-1.09Z"/><path d="M46.51,56.29l.54,0a1.18,1.18,0,0,0,.18.53,1,1,0,0,0,.43.33,1.64,1.64,0,0,0,.66.13,1.58,1.58,0,0,0,.57-.1.8.8,0,0,0,.37-.27.61.61,0,0,0,.12-.37.56.56,0,0,0-.12-.35.87.87,0,0,0-.39-.25,7.56,7.56,0,0,0-.76-.21,3.91,3.91,0,0,1-.83-.27,1.16,1.16,0,0,1-.46-.4,1,1,0,0,1-.15-.53,1.09,1.09,0,0,1,.18-.61,1.14,1.14,0,0,1,.54-.43,2,2,0,0,1,.79-.15,2.15,2.15,0,0,1,.84.15,1.21,1.21,0,0,1,.56.45,1.3,1.3,0,0,1,.21.68l-.54,0A.88.88,0,0,0,49,54a1.16,1.16,0,0,0-.75-.21,1.2,1.2,0,0,0-.75.19.57.57,0,0,0-.24.46.49.49,0,0,0,.17.38,2.26,2.26,0,0,0,.86.31,5.67,5.67,0,0,1,1,.27,1.3,1.3,0,0,1,.55.44,1.07,1.07,0,0,1,.18.61,1.17,1.17,0,0,1-.2.65,1.29,1.29,0,0,1-.56.47,2,2,0,0,1-.83.17,2.47,2.47,0,0,1-1-.17,1.37,1.37,0,0,1-.62-.51A1.45,1.45,0,0,1,46.51,56.29Z"/><path d="M50.72,57.67V53.37h3.11v.51H51.29v1.32h2.38v.5H51.29v1.46h2.64v.51Z"/><path d="M56.39,57.67V53.37H59.5v.51H57v1.32h2.38v.5H57v1.46h2.64v.51Z"/><path d="M60.36,57.67V53.37h.57v3.79H63v.51Z"/><path d="M63.73,57.67V53.37h3.11v.51H64.3v1.32h2.38v.5H64.3v1.46h2.64v.51Z"/><path d="M70.78,56.16l.57.14a1.91,1.91,0,0,1-.64,1.07,1.77,1.77,0,0,1-1.14.37,2,2,0,0,1-1.13-.28,1.77,1.77,0,0,1-.66-.82,2.92,2.92,0,0,1-.23-1.15,2.53,2.53,0,0,1,.26-1.17,1.76,1.76,0,0,1,.73-.76,2.13,2.13,0,0,1,1-.26,1.76,1.76,0,0,1,1.08.33,1.7,1.7,0,0,1,.61.92l-.56.13a1.33,1.33,0,0,0-.43-.68,1.16,1.16,0,0,0-.71-.21,1.39,1.39,0,0,0-.83.24,1.25,1.25,0,0,0-.47.64,2.57,2.57,0,0,0-.13.82,2.62,2.62,0,0,0,.16,1,1.19,1.19,0,0,0,.5.61,1.39,1.39,0,0,0,.73.2,1.22,1.22,0,0,0,.81-.28A1.41,1.41,0,0,0,70.78,56.16Z"/><path d="M73.14,57.67V53.88H71.73v-.51h3.4v.51H73.71v3.79Z"/><path d="M75.73,57.67V53.37h1.9a2.53,2.53,0,0,1,.87.12,1,1,0,0,1,.48.41,1.22,1.22,0,0,1,.18.65,1.08,1.08,0,0,1-.3.77,1.5,1.5,0,0,1-.91.4,1.47,1.47,0,0,1,.34.21,3,3,0,0,1,.47.57l.75,1.17H78.8l-.57-.89q-.25-.39-.41-.59a1.29,1.29,0,0,0-.29-.29.85.85,0,0,0-.26-.11l-.32,0h-.66v1.91Zm.57-2.4h1.22a1.83,1.83,0,0,0,.61-.08.65.65,0,0,0,.33-.26.7.7,0,0,0,.11-.39.64.64,0,0,0-.22-.5,1,1,0,0,0-.7-.2H76.29Z"/><path d="M80.15,57.67V53.37h.57v4.29Z"/><path d="M84.78,56.16l.57.14a1.91,1.91,0,0,1-.64,1.07,1.77,1.77,0,0,1-1.14.37,2,2,0,0,1-1.13-.28,1.77,1.77,0,0,1-.66-.82,2.92,2.92,0,0,1-.23-1.15,2.53,2.53,0,0,1,.26-1.17,1.76,1.76,0,0,1,.73-.76,2.13,2.13,0,0,1,1-.26,1.76,1.76,0,0,1,1.08.33,1.7,1.7,0,0,1,.61.92l-.56.13a1.33,1.33,0,0,0-.43-.68,1.16,1.16,0,0,0-.71-.21,1.39,1.39,0,0,0-.83.24,1.25,1.25,0,0,0-.47.64,2.57,2.57,0,0,0-.13.82,2.62,2.62,0,0,0,.16,1,1.19,1.19,0,0,0,.5.61,1.39,1.39,0,0,0,.73.2,1.22,1.22,0,0,0,.81-.28A1.41,1.41,0,0,0,84.78,56.16Z"/><path d="M85.58,57.67l1.65-4.29h.61l1.76,4.29H89l-.5-1.3h-1.8l-.47,1.3Zm1.24-1.76h1.46l-.45-1.19q-.21-.54-.3-.89a5.48,5.48,0,0,1-.23.82Z"/><path d="M90,57.67V53.37h.57v3.79h2.12v.51Z"/><path d="M94.81,57.67V53.37h.57v3.79h2.12v.51Z"/><path d="M98.27,57.67V53.37h.57v4.29Z"/><path d="M99.83,57.67V53.37h.58l2.26,3.37V53.37h.54v4.29h-.58l-2.26-3.37v3.38Z"/><path d="M104.18,57.67V53.37h3.11v.51h-2.54v1.32h2.38v.5h-2.38v1.46h2.64v.51Z"/><path d="M4.58,64.87V60.57h.58l2.26,3.37V60.57H8v4.29H7.38L5.13,61.49v3.38Z"/><path d="M8.75,62.77a2.33,2.33,0,0,1,.57-1.67,2,2,0,0,1,1.48-.6,2.06,2.06,0,0,1,1.07.28,1.86,1.86,0,0,1,.73.79,2.57,2.57,0,0,1,.25,1.15,2.53,2.53,0,0,1-.26,1.17,1.8,1.8,0,0,1-.75.78,2.13,2.13,0,0,1-1,.27,2,2,0,0,1-1.08-.29,1.89,1.89,0,0,1-.72-.8A2.42,2.42,0,0,1,8.75,62.77Zm.59,0A1.72,1.72,0,0,0,9.75,64a1.46,1.46,0,0,0,2.1,0,1.82,1.82,0,0,0,.41-1.28,2.2,2.2,0,0,0-.18-.92,1.36,1.36,0,0,0-.52-.61,1.41,1.41,0,0,0-.77-.22,1.45,1.45,0,0,0-1,.41A1.85,1.85,0,0,0,9.34,62.78Z"/><path d="M13.69,64.87V60.57h.57v4.29Z"/><path d="M15.06,63.49l.54,0a1.18,1.18,0,0,0,.18.53,1,1,0,0,0,.43.33,1.64,1.64,0,0,0,.66.13,1.58,1.58,0,0,0,.57-.1.8.8,0,0,0,.37-.27.61.61,0,0,0,.12-.37.56.56,0,0,0-.12-.35.87.87,0,0,0-.39-.25,7.56,7.56,0,0,0-.76-.21,3.91,3.91,0,0,1-.83-.27,1.16,1.16,0,0,1-.46-.4,1,1,0,0,1-.15-.53,1.09,1.09,0,0,1,.18-.61,1.14,1.14,0,0,1,.54-.43,2,2,0,0,1,.79-.15,2.15,2.15,0,0,1,.84.15,1.21,1.21,0,0,1,.56.45,1.3,1.3,0,0,1,.21.68l-.54,0a.88.88,0,0,0-.3-.62,1.16,1.16,0,0,0-.75-.21,1.2,1.2,0,0,0-.75.19.57.57,0,0,0-.24.46.49.49,0,0,0,.17.38,2.26,2.26,0,0,0,.86.31,5.67,5.67,0,0,1,1,.27,1.3,1.3,0,0,1,.55.44,1.07,1.07,0,0,1,.18.61,1.17,1.17,0,0,1-.2.65,1.29,1.29,0,0,1-.56.47,2,2,0,0,1-.83.17,2.47,2.47,0,0,1-1-.17,1.37,1.37,0,0,1-.62-.51A1.45,1.45,0,0,1,15.06,63.49Z"/><path d="M19.27,64.87V60.57h3.11v.51H19.84v1.32h2.38v.5H19.84v1.46h2.64v.51Z"/><path d="M24.12,64.87l1.65-4.29h.61l1.76,4.29H27.5l-.5-1.3H25.2l-.47,1.3Zm1.24-1.76h1.46l-.45-1.19q-.21-.54-.3-.89a5.48,5.48,0,0,1-.23.82Z"/><path d="M28.59,64.87V60.57h.58l2.26,3.37V60.57H32v4.29h-.58l-2.26-3.37v3.38Z"/><path d="M32.93,64.87V60.57h1.48a3.59,3.59,0,0,1,.76.06,1.45,1.45,0,0,1,.63.31,1.75,1.75,0,0,1,.51.73,2.88,2.88,0,0,1,.17,1,3,3,0,0,1-.11.87,2.1,2.1,0,0,1-.29.63,1.55,1.55,0,0,1-.39.39,1.59,1.59,0,0,1-.51.22,2.93,2.93,0,0,1-.69.07Zm.57-.51h.92a2.23,2.23,0,0,0,.67-.08,1,1,0,0,0,.39-.22,1.35,1.35,0,0,0,.31-.54,2.66,2.66,0,0,0,.11-.83,2,2,0,0,0-.22-1,1.11,1.11,0,0,0-.54-.48,2.22,2.22,0,0,0-.74-.09h-.9Z"/><path d="M38.91,64.87V60.57h.57v3.79h2.12v.51Z"/><path d="M42.28,64.87V60.57h3.11v.51H42.85v1.32h2.38v.5H42.85v1.46h2.64v.51Z"/><path d="M45.8,64.87l1.65-4.29h.61l1.76,4.29h-.65l-.5-1.3h-1.8l-.47,1.3ZM47,63.1h1.46L48,61.91q-.21-.54-.3-.89a5.48,5.48,0,0,1-.23.82Z"/><path d="M50.27,64.87V60.57h1.48a3.59,3.59,0,0,1,.76.06,1.45,1.45,0,0,1,.63.31,1.75,1.75,0,0,1,.51.73,2.88,2.88,0,0,1,.17,1,3,3,0,0,1-.11.87,2.1,2.1,0,0,1-.29.63,1.55,1.55,0,0,1-.39.39,1.59,1.59,0,0,1-.51.22,2.93,2.93,0,0,1-.69.07Zm.57-.51h.92a2.23,2.23,0,0,0,.67-.08,1,1,0,0,0,.39-.22,1.35,1.35,0,0,0,.31-.54,2.66,2.66,0,0,0,.11-.83,2,2,0,0,0-.22-1,1.11,1.11,0,0,0-.54-.48,2.22,2.22,0,0,0-.74-.09h-.9Z"/><path d="M57.26,64.87V61.08H55.84v-.51h3.4v.51H57.83v3.79Z"/><path d="M59.55,62.77a2.33,2.33,0,0,1,.57-1.67,2,2,0,0,1,1.48-.6,2.06,2.06,0,0,1,1.07.28,1.86,1.86,0,0,1,.73.79,2.57,2.57,0,0,1,.25,1.15,2.53,2.53,0,0,1-.26,1.17,1.8,1.8,0,0,1-.75.78,2.13,2.13,0,0,1-1,.27,2,2,0,0,1-1.08-.29,1.89,1.89,0,0,1-.72-.8A2.42,2.42,0,0,1,59.55,62.77Zm.59,0A1.72,1.72,0,0,0,60.55,64a1.46,1.46,0,0,0,2.1,0,1.82,1.82,0,0,0,.41-1.28,2.2,2.2,0,0,0-.18-.92,1.36,1.36,0,0,0-.52-.61,1.41,1.41,0,0,0-.77-.22,1.45,1.45,0,0,0-1,.41A1.85,1.85,0,0,0,60.13,62.78Z"/><path d="M66.07,64.87V60.57h3.11v.51H66.63v1.32H69v.5H66.63v1.46h2.64v.51Z"/><path d="M70.07,64.87V60.57H72a2.53,2.53,0,0,1,.87.12,1,1,0,0,1,.48.41,1.22,1.22,0,0,1,.18.65,1.08,1.08,0,0,1-.3.77,1.5,1.5,0,0,1-.91.4,1.47,1.47,0,0,1,.34.21,3,3,0,0,1,.47.57l.75,1.17h-.71L72.57,64q-.25-.39-.41-.59a1.29,1.29,0,0,0-.29-.29.85.85,0,0,0-.26-.11l-.32,0h-.66v1.91Zm.57-2.4h1.22a1.83,1.83,0,0,0,.61-.08.65.65,0,0,0,.33-.26.7.7,0,0,0,.11-.39.64.64,0,0,0-.22-.5A1,1,0,0,0,72,61H70.63Z"/><path d="M74.4,64.87V60.57h1.9a2.53,2.53,0,0,1,.87.12,1,1,0,0,1,.48.41,1.22,1.22,0,0,1,.18.65,1.08,1.08,0,0,1-.3.77,1.5,1.5,0,0,1-.91.4,1.47,1.47,0,0,1,.34.21,3,3,0,0,1,.47.57l.75,1.17h-.71L76.9,64q-.25-.39-.41-.59a1.29,1.29,0,0,0-.29-.29.85.85,0,0,0-.26-.11l-.32,0H75v1.91Zm.57-2.4h1.22a1.83,1.83,0,0,0,.61-.08.65.65,0,0,0,.33-.26.7.7,0,0,0,.11-.39.64.64,0,0,0-.22-.5,1,1,0,0,0-.7-.2H75Z"/><path d="M78.25,64.87l1.65-4.29h.61l1.76,4.29h-.65l-.5-1.3h-1.8l-.47,1.3Zm1.24-1.76h1.46l-.45-1.19q-.21-.54-.3-.89a5.48,5.48,0,0,1-.23.82Z"/><path d="M83.37,64.87V61.08H82v-.51h3.4v.51H83.94v3.79Z"/><path d="M86,64.87V60.57h.57v4.29Z"/><path d="M90.68,63.36l.57.14a1.91,1.91,0,0,1-.64,1.07,1.77,1.77,0,0,1-1.14.37,2,2,0,0,1-1.13-.28,1.76,1.76,0,0,1-.66-.82,2.92,2.92,0,0,1-.23-1.15,2.53,2.53,0,0,1,.26-1.17,1.76,1.76,0,0,1,.73-.76,2.13,2.13,0,0,1,1-.26,1.76,1.76,0,0,1,1.08.33,1.7,1.7,0,0,1,.61.92l-.56.13a1.33,1.33,0,0,0-.43-.68,1.16,1.16,0,0,0-.71-.21,1.39,1.39,0,0,0-.83.24,1.25,1.25,0,0,0-.47.64,2.57,2.57,0,0,0-.13.82,2.62,2.62,0,0,0,.16,1,1.19,1.19,0,0,0,.5.61,1.39,1.39,0,0,0,.73.2,1.22,1.22,0,0,0,.81-.28A1.41,1.41,0,0,0,90.68,63.36Z"/><path d="M96.68,63.36l.57.14a1.91,1.91,0,0,1-.64,1.07,1.77,1.77,0,0,1-1.14.37,2,2,0,0,1-1.13-.28,1.76,1.76,0,0,1-.66-.82,2.92,2.92,0,0,1-.23-1.15,2.53,2.53,0,0,1,.26-1.17,1.76,1.76,0,0,1,.73-.76,2.13,2.13,0,0,1,1-.26,1.76,1.76,0,0,1,1.08.33,1.7,1.7,0,0,1,.61.92l-.56.13a1.33,1.33,0,0,0-.43-.68,1.16,1.16,0,0,0-.71-.21,1.39,1.39,0,0,0-.83.24,1.25,1.25,0,0,0-.47.64,2.57,2.57,0,0,0-.13.82,2.62,2.62,0,0,0,.16,1,1.19,1.19,0,0,0,.5.61,1.39,1.39,0,0,0,.73.2,1.22,1.22,0,0,0,.81-.28A1.41,1.41,0,0,0,96.68,63.36Z"/><path d="M97.77,62.77a2.33,2.33,0,0,1,.57-1.67,2,2,0,0,1,1.48-.6,2.06,2.06,0,0,1,1.07.28,1.86,1.86,0,0,1,.73.79,2.57,2.57,0,0,1,.25,1.15,2.53,2.53,0,0,1-.26,1.17,1.8,1.8,0,0,1-.75.78,2.13,2.13,0,0,1-1,.27,2,2,0,0,1-1.08-.29,1.89,1.89,0,0,1-.72-.8A2.42,2.42,0,0,1,97.77,62.77Zm.59,0A1.72,1.72,0,0,0,98.77,64a1.46,1.46,0,0,0,2.1,0,1.82,1.82,0,0,0,.41-1.28,2.2,2.2,0,0,0-.18-.92,1.36,1.36,0,0,0-.52-.61,1.41,1.41,0,0,0-.77-.22,1.45,1.45,0,0,0-1,.41A1.85,1.85,0,0,0,98.36,62.78Z"/><path d="M102.61,64.87V60.57h.58l2.26,3.37V60.57H106v4.29h-.58l-2.26-3.37v3.38Z"/><path d="M108,64.87V61.08h-1.42v-.51H110v.51h-1.42v3.79Z"/><path d="M110.62,64.87V60.57h1.9a2.53,2.53,0,0,1,.87.12,1,1,0,0,1,.48.41,1.22,1.22,0,0,1,.18.65,1.08,1.08,0,0,1-.3.77,1.5,1.5,0,0,1-.91.4,1.47,1.47,0,0,1,.34.21,3,3,0,0,1,.47.57l.75,1.17h-.71l-.57-.89q-.25-.39-.41-.59a1.29,1.29,0,0,0-.29-.29.85.85,0,0,0-.26-.11l-.32,0h-.66v1.91Zm.57-2.4h1.22a1.83,1.83,0,0,0,.61-.08.65.65,0,0,0,.33-.26.7.7,0,0,0,.11-.39.64.64,0,0,0-.22-.5,1,1,0,0,0-.7-.2h-1.36Z"/><path d="M114.77,62.77a2.33,2.33,0,0,1,.57-1.67,2,2,0,0,1,1.48-.6,2.06,2.06,0,0,1,1.07.28,1.86,1.86,0,0,1,.73.79,2.57,2.57,0,0,1,.25,1.15,2.53,2.53,0,0,1-.26,1.17,1.8,1.8,0,0,1-.75.78,2.13,2.13,0,0,1-1,.27,2,2,0,0,1-1.08-.29,1.89,1.89,0,0,1-.72-.8A2.42,2.42,0,0,1,114.77,62.77Zm.59,0a1.72,1.72,0,0,0,.42,1.22,1.46,1.46,0,0,0,2.1,0,1.82,1.82,0,0,0,.41-1.28,2.2,2.2,0,0,0-.18-.92,1.36,1.36,0,0,0-.52-.61,1.41,1.41,0,0,0-.77-.22,1.45,1.45,0,0,0-1,.41A1.85,1.85,0,0,0,115.36,62.78Z"/><path d="M119.59,64.87V60.57h.57v3.79h2.12v.51Z"/><path d="M4.4,70.69l.54,0a1.18,1.18,0,0,0,.18.53,1,1,0,0,0,.43.33,1.62,1.62,0,0,0,.66.13,1.58,1.58,0,0,0,.57-.1.79.79,0,0,0,.37-.27.61.61,0,0,0,.12-.37.56.56,0,0,0-.12-.35.88.88,0,0,0-.39-.25A7.79,7.79,0,0,0,6,70.08a3.86,3.86,0,0,1-.83-.27,1.16,1.16,0,0,1-.46-.4,1,1,0,0,1-.15-.53,1.09,1.09,0,0,1,.18-.61,1.14,1.14,0,0,1,.54-.43,2,2,0,0,1,.79-.15,2.15,2.15,0,0,1,.84.15,1.21,1.21,0,0,1,.56.45,1.3,1.3,0,0,1,.21.68l-.54,0a.88.88,0,0,0-.3-.62,1.16,1.16,0,0,0-.75-.21,1.2,1.2,0,0,0-.75.19.57.57,0,0,0-.24.46.49.49,0,0,0,.17.38,2.28,2.28,0,0,0,.86.31,5.59,5.59,0,0,1,1,.27,1.31,1.31,0,0,1,.55.44,1.07,1.07,0,0,1,.18.61,1.17,1.17,0,0,1-.2.65,1.29,1.29,0,0,1-.56.47,2,2,0,0,1-.83.17,2.47,2.47,0,0,1-1-.17,1.37,1.37,0,0,1-.62-.51A1.45,1.45,0,0,1,4.4,70.69Z"/><path d="M9.8,72.07V70.25L8.15,67.77h.69l.85,1.29q.23.36.44.73.19-.34.47-.76l.83-1.26h.66l-1.71,2.48v1.82Z"/><path d="M12.4,70.69l.54,0a1.18,1.18,0,0,0,.18.53,1,1,0,0,0,.43.33,1.62,1.62,0,0,0,.66.13,1.58,1.58,0,0,0,.57-.1.79.79,0,0,0,.37-.27.61.61,0,0,0,.12-.37.56.56,0,0,0-.12-.35.88.88,0,0,0-.39-.25,7.79,7.79,0,0,0-.76-.21,3.86,3.86,0,0,1-.83-.27,1.16,1.16,0,0,1-.46-.4,1,1,0,0,1-.15-.53,1.09,1.09,0,0,1,.18-.61,1.14,1.14,0,0,1,.54-.43,2,2,0,0,1,.79-.15,2.15,2.15,0,0,1,.84.15,1.21,1.21,0,0,1,.56.45,1.3,1.3,0,0,1,.21.68l-.54,0a.88.88,0,0,0-.3-.62,1.16,1.16,0,0,0-.75-.21,1.2,1.2,0,0,0-.75.19.57.57,0,0,0-.24.46.49.49,0,0,0,.17.38,2.28,2.28,0,0,0,.86.31,5.59,5.59,0,0,1,1,.27,1.31,1.31,0,0,1,.55.44,1.07,1.07,0,0,1,.18.61,1.17,1.17,0,0,1-.2.65,1.29,1.29,0,0,1-.56.47,2,2,0,0,1-.83.17,2.47,2.47,0,0,1-1-.17,1.37,1.37,0,0,1-.62-.51A1.45,1.45,0,0,1,12.4,70.69Z"/><path d="M17.69,72.07V68.28H16.27v-.51h3.4v.51H18.26v3.79Z"/><path d="M20.27,72.07V67.77h3.11v.51H20.84v1.32h2.38v.5H20.84v1.46h2.64v.51Z"/><path d="M24.25,72.07V67.77h.86l1,3,.21.64.23-.69,1-3h.76v4.29H27.8V68.47l-1.25,3.59H26l-1.24-3.66v3.66Z"/><path d="M30.75,70a2.33,2.33,0,0,1,.57-1.67,2,2,0,0,1,1.48-.61,2.06,2.06,0,0,1,1.07.28,1.86,1.86,0,0,1,.73.79,2.57,2.57,0,0,1,.25,1.15,2.53,2.53,0,0,1-.26,1.17,1.8,1.8,0,0,1-.75.78,2.13,2.13,0,0,1-1,.26,2,2,0,0,1-1.08-.29A1.89,1.89,0,0,1,31,71,2.42,2.42,0,0,1,30.75,70Zm.59,0a1.72,1.72,0,0,0,.42,1.22,1.46,1.46,0,0,0,2.1,0,1.82,1.82,0,0,0,.41-1.28A2.2,2.2,0,0,0,34.1,69a1.36,1.36,0,0,0-.52-.61,1.41,1.41,0,0,0-.77-.22,1.45,1.45,0,0,0-1,.42A1.85,1.85,0,0,0,31.34,70Z"/><path d="M35.59,72.07V67.77h1.62a3.91,3.91,0,0,1,.65,0,1.29,1.29,0,0,1,.53.2,1.05,1.05,0,0,1,.34.41,1.4,1.4,0,0,1-.22,1.51,1.67,1.67,0,0,1-1.26.38h-1.1v1.75Zm.57-2.25h1.11a1.18,1.18,0,0,0,.78-.21.73.73,0,0,0,.23-.58.77.77,0,0,0-.14-.46.64.64,0,0,0-.36-.25,2.43,2.43,0,0,0-.53,0h-1.1Z"/><path d="M39.61,72.07V67.77h3.11v.51H40.18v1.32h2.38v.5H40.18v1.46h2.64v.51Z"/><path d="M43.61,72.07V67.77h1.9a2.53,2.53,0,0,1,.87.12,1,1,0,0,1,.48.41,1.22,1.22,0,0,1,.18.65,1.08,1.08,0,0,1-.3.77,1.5,1.5,0,0,1-.91.4,1.47,1.47,0,0,1,.34.21,3,3,0,0,1,.47.57l.75,1.17h-.71l-.57-.89q-.25-.39-.41-.59a1.29,1.29,0,0,0-.29-.29.85.85,0,0,0-.26-.11l-.32,0h-.66v1.91Zm.57-2.4H45.4a1.81,1.81,0,0,0,.61-.08.64.64,0,0,0,.33-.26.69.69,0,0,0,.11-.38.64.64,0,0,0-.22-.5,1,1,0,0,0-.7-.2H44.18Z"/><path d="M47.46,72.07l1.65-4.29h.61l1.76,4.29h-.65l-.5-1.3h-1.8l-.47,1.3ZM48.7,70.3h1.46l-.45-1.19q-.21-.54-.3-.89a5.48,5.48,0,0,1-.23.82Z"/><path d="M52.58,72.07V68.28H51.17v-.51h3.4v.51H53.15v3.79Z"/><path d="M55.25,72.07V67.77h.57v4.29Z"/><path d="M56.65,70a2.33,2.33,0,0,1,.57-1.67,2,2,0,0,1,1.48-.61,2.06,2.06,0,0,1,1.07.28,1.86,1.86,0,0,1,.73.79,2.57,2.57,0,0,1,.25,1.15,2.53,2.53,0,0,1-.26,1.17,1.8,1.8,0,0,1-.75.78,2.13,2.13,0,0,1-1,.26,2,2,0,0,1-1.08-.29,1.89,1.89,0,0,1-.72-.8A2.42,2.42,0,0,1,56.65,70Zm.59,0a1.72,1.72,0,0,0,.42,1.22,1.46,1.46,0,0,0,2.1,0,1.82,1.82,0,0,0,.41-1.28A2.2,2.2,0,0,0,60,69a1.36,1.36,0,0,0-.52-.61,1.41,1.41,0,0,0-.77-.22,1.45,1.45,0,0,0-1,.42A1.85,1.85,0,0,0,57.23,70Z"/><path d="M61.48,72.07V67.77h.58l2.26,3.37V67.77h.54v4.29h-.58L62,68.69v3.38Z"/><path d="M65.9,72.07v-.6h.6v.6Z"/></svg>