<svg id="Layer_1" data-name="Layer 1" xmlns="http://www.w3.org/2000/svg" viewBox="0 0 303.32 179.65"><title>crcltn_pmp_wrng_dshwshr_lp_tggle_swtch</title><rect x="0.46" y="0.46" width="302.4" height="178.73" style="fill:none;stroke:#000;stroke-width:0.918045px"/><line x1="79.39" y1="115.01" x2="79.39" y2="99.27" style="fill:none;stroke:#000"/><path d="M78.37,96.91A43.12,43.12,0,0,1,76.88,101h5a39.54,39.54,0,0,1-1.49-4.05,29.55,29.55,0,0,1-1-4.41A29.6,29.6,0,0,1,78.37,96.91Z"/><line x1="79.39" y1="142.02" x2="79.39" y2="157.75" style="fill:none;stroke:#000"/><path d="M80.42,160.12c.5-1.65,1-2.73,1.49-4.05h-5a39.62,39.62,0,0,1,1.49,4.05,29.57,29.57,0,0,1,1,4.41A29.63,29.63,0,0,1,80.42,160.12Z"/><line x1="63.88" y1="92.07" x2="150.26" y2="92.07" style="fill:none;stroke:#000;stroke-linecap:round;stroke-linejoin:round"/><polyline points="66.24 165.42 276.59 165.42 276.59 151.77" style="fill:none;stroke:#000;stroke-linecap:round;stroke-linejoin:round"/><polygon points="207.42 51.7 207.42 83.54 237.74 83.54 237.74 51.7 207.42 51.7 207.42 51.7" style="fill:#fff;stroke:#000;fill-rule:evenodd"/><polygon points="207.42 83.54 237.74 83.54 237.74 51.7 207.42 51.7 207.42 83.54 207.42 83.54" style="fill:none;stroke:#000;stroke-linecap:round;stroke-linejoin:round"/><path d="M214.85,62.09a1.63,1.63,0,1,0-3.26,0,1.63,1.63,0,1,0,3.26,0" style="fill:none;stroke:#000;stroke-linecap:round;stroke-linejoin:round"/><path d="M234.33,62.09a1.61,1.61,0,1,0-3.22,0,1.61,1.61,0,1,0,3.22,0" style="fill:none;stroke:#000;stroke-linecap:round;stroke-linejoin:round"/><line x1="214.85" y1="62.09" x2="232.7" y2="55.61" style="fill:none;stroke:#000;stroke-linecap:round;stroke-linejoin:round"/><line x1="222.96" y1="59.13" x2="222.96" y2="66.98" style="fill:none;stroke:#000;stroke-linecap:round;stroke-linejoin:round"/><polyline points="222.96 66.98 227.85 66.98 227.85 71.83" style="fill:none;stroke:#000;stroke-linecap:round;stroke-linejoin:round"/><polyline points="227.85 71.83 222.96 71.83 222.96 76.72" style="fill:none;stroke:#000;stroke-linecap:round;stroke-linejoin:round"/><line x1="213.1" y1="63.72" x2="213.1" y2="92.07" style="fill:none;stroke:#000;stroke-linecap:round;stroke-linejoin:round"/><line x1="232.78" y1="63.72" x2="232.78" y2="92.45" style="fill:none;stroke:#000;stroke-linecap:round;stroke-linejoin:round"/><line x1="232.81" y1="92.45" x2="276.59" y2="92.45" style="fill:none;stroke:#000;stroke-linecap:round;stroke-linejoin:round"/><line x1="276.59" y1="92.45" x2="276.59" y2="115.38" style="fill:none;stroke:#000;stroke-linecap:round;stroke-linejoin:round"/><path d="M258.4,133.58a18.19,18.19,0,1,1,36.39,0h0a18.19,18.19,0,1,1-36.39,0" style="fill:#fff;stroke:#000;fill-rule:evenodd"/><path d="M258.4,133.58a18.19,18.19,0,1,1,36.39,0h0a18.19,18.19,0,1,1-36.39,0" style="fill:none;stroke:#000;stroke-linecap:round;stroke-linejoin:round"/><polygon points="144.2 51.7 144.2 83.54 174.5 83.54 174.5 51.7 144.2 51.7 144.2 51.7" style="fill:#fff;stroke:#000;fill-rule:evenodd"/><polygon points="144.2 83.54 174.5 83.54 174.5 51.7 144.2 51.7 144.2 83.54 144.2 83.54" style="fill:none;stroke:#000;stroke-linecap:round;stroke-linejoin:round"/><line x1="150.26" y1="64.78" x2="150.26" y2="92.07" style="fill:none;stroke:#000;stroke-linecap:round;stroke-linejoin:round"/><line x1="168.44" y1="64.78" x2="168.44" y2="92.15" style="fill:none;stroke:#000;stroke-linecap:round;stroke-linejoin:round"/><path d="M167.31,64.78a1.14,1.14,0,0,0,2.27,0v0a1.14,1.14,0,0,0-1.14-1.14,1.17,1.17,0,0,0-1.14,1.14Zm-18.18,0a1.14,1.14,0,0,0,1.14,1.14,1.11,1.11,0,0,0,1.14-1.1v0a1.14,1.14,0,0,0-1.14-1.14,1.17,1.17,0,0,0-1.14,1.14Z" style="fill:#fff;stroke:#000;fill-rule:evenodd"/><path d="M167.31,64.78a1.14,1.14,0,0,0,2.27,0v0a1.14,1.14,0,0,0-1.14-1.14,1.17,1.17,0,0,0-1.14,1.14Zm-18.18,0a1.14,1.14,0,0,0,1.14,1.14,1.11,1.11,0,0,0,1.14-1.1v0a1.14,1.14,0,0,0-1.14-1.14,1.17,1.17,0,0,0-1.14,1.14Z" style="fill:none;stroke:#000;stroke-linecap:round;stroke-linejoin:round"/><line x1="151.32" y1="64.36" x2="166.17" y2="59.1" style="fill:none;stroke:#000;stroke-linecap:round;stroke-linejoin:round"/><line x1="168.44" y1="92.15" x2="213.1" y2="92.15" style="fill:none;stroke:#000;stroke-linecap:round;stroke-linejoin:round"/><path d="M164.19,10V4.32H168V5h-3.11V6.77h2.69v.68h-2.69V10Z"/><path d="M169.16,10V4.32h.76V10Z"/><path d="M171.27,10V4.32h4.14V5H172V6.75h3.17v.67H172V9.37h3.52V10Z"/><path d="M176.56,10V4.32h.76V9.37h2.82V10Z"/><path d="M181,10V4.32h2a4.78,4.78,0,0,1,1,.08,1.93,1.93,0,0,1,.84.41,2.33,2.33,0,0,1,.68,1,3.85,3.85,0,0,1,.22,1.36,4,4,0,0,1-.15,1.16,2.79,2.79,0,0,1-.39.83,2.09,2.09,0,0,1-.52.52,2.14,2.14,0,0,1-.68.29,3.88,3.88,0,0,1-.92.1Zm.76-.68H183a3,3,0,0,0,.89-.11,1.27,1.27,0,0,0,.51-.3,1.81,1.81,0,0,0,.42-.72,3.53,3.53,0,0,0,.15-1.1,2.67,2.67,0,0,0-.29-1.38,1.48,1.48,0,0,0-.72-.65A3,3,0,0,0,183,5h-1.2Z"/><path d="M188.78,8.21l.71-.06a1.58,1.58,0,0,0,.24.71,1.29,1.29,0,0,0,.58.45,2.18,2.18,0,0,0,.88.17,2.11,2.11,0,0,0,.77-.13,1.06,1.06,0,0,0,.49-.35.82.82,0,0,0,.16-.49.74.74,0,0,0-.16-.47,1.16,1.16,0,0,0-.52-.34,10,10,0,0,0-1-.28A5.16,5.16,0,0,1,189.82,7a1.55,1.55,0,0,1-.61-.53,1.31,1.31,0,0,1-.2-.71,1.45,1.45,0,0,1,.25-.81,1.52,1.52,0,0,1,.72-.57,2.73,2.73,0,0,1,1.05-.2,2.87,2.87,0,0,1,1.12.21,1.62,1.62,0,0,1,.75.6,1.73,1.73,0,0,1,.28.9l-.73.05a1.17,1.17,0,0,0-.4-.82,1.55,1.55,0,0,0-1-.28,1.6,1.6,0,0,0-1,.25.75.75,0,0,0-.31.61.65.65,0,0,0,.22.51,3,3,0,0,0,1.14.41,7.56,7.56,0,0,1,1.27.37,1.74,1.74,0,0,1,.74.58,1.42,1.42,0,0,1,.24.81,1.56,1.56,0,0,1-.26.86,1.72,1.72,0,0,1-.75.63,2.62,2.62,0,0,1-1.1.22,3.29,3.29,0,0,1-1.3-.23,1.82,1.82,0,0,1-.82-.68A1.94,1.94,0,0,1,188.78,8.21Z"/><path d="M198.14,4.32h.76V7.63A3.93,3.93,0,0,1,198.7,9a1.67,1.67,0,0,1-.71.83,2.5,2.5,0,0,1-1.34.32,2.75,2.75,0,0,1-1.32-.28,1.58,1.58,0,0,1-.73-.8,3.83,3.83,0,0,1-.22-1.44V4.32h.76v3.3a3.21,3.21,0,0,0,.14,1.1,1.06,1.06,0,0,0,.48.54,1.65,1.65,0,0,0,.83.19,1.58,1.58,0,0,0,1.19-.38,2.18,2.18,0,0,0,.36-1.46Z"/><path d="M200.16,10V4.32h2.16a5.25,5.25,0,0,1,.87.05,1.72,1.72,0,0,1,.71.27,1.4,1.4,0,0,1,.46.55,1.75,1.75,0,0,1,.17.78,1.76,1.76,0,0,1-.46,1.24,2.23,2.23,0,0,1-1.68.51h-1.47V10Zm.76-3h1.48a1.57,1.57,0,0,0,1-.27,1,1,0,0,0,.31-.77,1,1,0,0,0-.18-.62.85.85,0,0,0-.48-.34,3.22,3.22,0,0,0-.71-.05h-1.46Z"/><path d="M205.49,10V4.32h2.16a5.25,5.25,0,0,1,.87.05,1.72,1.72,0,0,1,.71.27,1.4,1.4,0,0,1,.46.55,1.75,1.75,0,0,1,.17.78,1.76,1.76,0,0,1-.46,1.24,2.23,2.23,0,0,1-1.68.51h-1.47V10Zm.76-3h1.48a1.57,1.57,0,0,0,1-.27,1,1,0,0,0,.31-.77,1,1,0,0,0-.18-.62.85.85,0,0,0-.48-.34,3.22,3.22,0,0,0-.71-.05h-1.46Z"/><path d="M210.8,10V4.32h.76V9.37h2.82V10Z"/><path d="M215.41,10V4.32h.76V10Z"/><path d="M217.51,10V4.32h4.14V5h-3.38V6.75h3.17v.67h-3.17V9.37h3.52V10Z"/><path d="M222.83,10V4.32h2a4.78,4.78,0,0,1,1,.08,1.93,1.93,0,0,1,.84.41,2.33,2.33,0,0,1,.68,1,3.85,3.85,0,0,1,.22,1.36,4,4,0,0,1-.15,1.16,2.79,2.79,0,0,1-.39.83,2.09,2.09,0,0,1-.52.52,2.14,2.14,0,0,1-.68.29,3.88,3.88,0,0,1-.92.1Zm.76-.68h1.22a3,3,0,0,0,.89-.11,1.27,1.27,0,0,0,.51-.3,1.81,1.81,0,0,0,.42-.72,3.53,3.53,0,0,0,.15-1.1,2.67,2.67,0,0,0-.29-1.38,1.48,1.48,0,0,0-.72-.65,3,3,0,0,0-1-.12h-1.2Z"/><path d="M232.15,10V5h-1.89V4.32h4.54V5h-1.89V10Z"/><path d="M235.59,10V4.32h4.14V5h-3.38V6.75h3.17v.67h-3.17V9.37h3.52V10Z"/><path d="M240.89,10V4.32H242l1.36,4.05.27.85q.1-.31.3-.92l1.37-4h1V10h-.73V5.25L244,10h-.68l-1.66-4.87V10Z"/><path d="M247.58,10V4.32h2.16a5.25,5.25,0,0,1,.87.05,1.72,1.72,0,0,1,.71.27,1.4,1.4,0,0,1,.46.55,1.75,1.75,0,0,1,.17.78,1.76,1.76,0,0,1-.46,1.24,2.23,2.23,0,0,1-1.68.51h-1.47V10Zm.76-3h1.48a1.57,1.57,0,0,0,1-.27,1,1,0,0,0,.31-.77,1,1,0,0,0-.18-.62.85.85,0,0,0-.48-.34A3.22,3.22,0,0,0,249.8,5h-1.46Z"/><path d="M252.93,10V4.32h4.14V5h-3.38V6.75h3.17v.67h-3.17V9.37h3.52V10Z"/><path d="M258.26,10V4.32h2.54a3.39,3.39,0,0,1,1.16.15,1.27,1.27,0,0,1,.64.54,1.62,1.62,0,0,1,.24.86,1.44,1.44,0,0,1-.39,1,2,2,0,0,1-1.22.53,2,2,0,0,1,.46.29,3.94,3.94,0,0,1,.63.76l1,1.56h-1l-.76-1.19q-.33-.52-.55-.79a1.73,1.73,0,0,0-.38-.38,1.12,1.12,0,0,0-.35-.15,2.25,2.25,0,0,0-.42,0H259V10Zm.76-3.2h1.63a2.45,2.45,0,0,0,.81-.11.86.86,0,0,0,.45-.34.93.93,0,0,0,.15-.51.86.86,0,0,0-.29-.67,1.38,1.38,0,0,0-.93-.26H259Z"/><path d="M263.4,10l2.2-5.73h.82L268.76,10h-.86l-.67-1.73h-2.39L264.2,10ZM265,7.69H267l-.6-1.59q-.27-.72-.41-1.19A7.35,7.35,0,0,1,265.68,6Z"/><path d="M270.23,10V5h-1.89V4.32h4.54V5H271V10Z"/><path d="M277.41,4.32h.76V7.63A3.93,3.93,0,0,1,278,9a1.67,1.67,0,0,1-.71.83,2.5,2.5,0,0,1-1.34.32,2.75,2.75,0,0,1-1.32-.28,1.58,1.58,0,0,1-.73-.8,3.83,3.83,0,0,1-.22-1.44V4.32h.76v3.3a3.21,3.21,0,0,0,.14,1.1,1.06,1.06,0,0,0,.48.54,1.65,1.65,0,0,0,.83.19,1.58,1.58,0,0,0,1.19-.38,2.18,2.18,0,0,0,.36-1.46Z"/><path d="M279.44,10V4.32H282a3.39,3.39,0,0,1,1.16.15,1.27,1.27,0,0,1,.64.54,1.62,1.62,0,0,1,.24.86,1.44,1.44,0,0,1-.39,1,2,2,0,0,1-1.22.53,2,2,0,0,1,.46.29,3.94,3.94,0,0,1,.63.76l1,1.56h-1l-.76-1.19q-.33-.52-.55-.79a1.73,1.73,0,0,0-.38-.38,1.12,1.12,0,0,0-.35-.15,2.25,2.25,0,0,0-.42,0h-.88V10Zm.76-3.2h1.63a2.45,2.45,0,0,0,.81-.11.86.86,0,0,0,.45-.34.93.93,0,0,0,.15-.51.86.86,0,0,0-.29-.67A1.38,1.38,0,0,0,282,5H280.2Z"/><path d="M285.23,10V4.32h4.14V5H286V6.75h3.17v.67H286V9.37h3.52V10Z"/><path d="M168.23,17.64l.76.19a2.55,2.55,0,0,1-.86,1.42,2.36,2.36,0,0,1-1.51.49,2.72,2.72,0,0,1-1.51-.38,2.35,2.35,0,0,1-.88-1.09,3.89,3.89,0,0,1-.3-1.54,3.38,3.38,0,0,1,.34-1.56,2.34,2.34,0,0,1,1-1,2.84,2.84,0,0,1,1.39-.35,2.34,2.34,0,0,1,1.45.44,2.27,2.27,0,0,1,.82,1.23l-.75.18a1.77,1.77,0,0,0-.58-.91,1.54,1.54,0,0,0-1-.29,1.85,1.85,0,0,0-1.1.32,1.67,1.67,0,0,0-.62.85,3.41,3.41,0,0,0-.18,1.1,3.5,3.5,0,0,0,.21,1.28,1.58,1.58,0,0,0,.66.81,1.86,1.86,0,0,0,1,.27,1.63,1.63,0,0,0,1.08-.37A1.88,1.88,0,0,0,168.23,17.64Z"/><path d="M169.69,16.86a3.11,3.11,0,0,1,.77-2.23,2.6,2.6,0,0,1,2-.81,2.74,2.74,0,0,1,1.43.38,2.47,2.47,0,0,1,1,1.06,3.43,3.43,0,0,1,.33,1.54,3.37,3.37,0,0,1-.35,1.56,2.4,2.4,0,0,1-1,1,2.85,2.85,0,0,1-1.39.35,2.71,2.71,0,0,1-1.45-.39,2.52,2.52,0,0,1-1-1.07A3.23,3.23,0,0,1,169.69,16.86Zm.78,0A2.29,2.29,0,0,0,171,18.5a1.94,1.94,0,0,0,2.8,0,2.43,2.43,0,0,0,.55-1.71,2.94,2.94,0,0,0-.24-1.22,1.81,1.81,0,0,0-.69-.81,1.87,1.87,0,0,0-1-.29,1.94,1.94,0,0,0-1.38.55A2.47,2.47,0,0,0,170.48,16.87Z"/><path d="M176.14,19.65V13.92h.78l3,4.5v-4.5h.73v5.73h-.78l-3-4.5v4.5Z"/><path d="M183.38,19.65V14.6H181.5v-.68H186v.68h-1.89v5.05Z"/><path d="M186.82,19.65V13.92h2.54a3.39,3.39,0,0,1,1.16.15,1.27,1.27,0,0,1,.64.54,1.62,1.62,0,0,1,.24.86,1.44,1.44,0,0,1-.39,1,2,2,0,0,1-1.22.53,2,2,0,0,1,.46.29,3.94,3.94,0,0,1,.63.76l1,1.56h-1l-.76-1.19q-.33-.52-.55-.79a1.73,1.73,0,0,0-.38-.38,1.12,1.12,0,0,0-.35-.15,2.25,2.25,0,0,0-.42,0h-.88v2.54Zm.76-3.2h1.63a2.45,2.45,0,0,0,.81-.11.86.86,0,0,0,.45-.34.93.93,0,0,0,.15-.51.86.86,0,0,0-.29-.67,1.38,1.38,0,0,0-.93-.26h-1.81Z"/><path d="M192.36,16.86a3.11,3.11,0,0,1,.77-2.23,2.6,2.6,0,0,1,2-.81,2.74,2.74,0,0,1,1.43.38,2.47,2.47,0,0,1,1,1.06,3.43,3.43,0,0,1,.33,1.54,3.37,3.37,0,0,1-.35,1.56,2.4,2.4,0,0,1-1,1,2.85,2.85,0,0,1-1.39.35,2.71,2.71,0,0,1-1.45-.39,2.52,2.52,0,0,1-1-1.07A3.23,3.23,0,0,1,192.36,16.86Zm.78,0a2.29,2.29,0,0,0,.56,1.63,1.94,1.94,0,0,0,2.8,0,2.43,2.43,0,0,0,.55-1.71,2.94,2.94,0,0,0-.24-1.22,1.81,1.81,0,0,0-.69-.81,1.87,1.87,0,0,0-1-.29,1.94,1.94,0,0,0-1.38.55A2.47,2.47,0,0,0,193.14,16.87Z"/><path d="M198.78,19.65V13.92h.76V19h2.82v.68Z"/><path d="M205.32,19.65V13.92h.76v5.73Z"/><path d="M207.4,19.65V13.92h.78l3,4.5v-4.5h.73v5.73h-.78l-3-4.5v4.5Z"/><path d="M212.93,17.81l.71-.06a1.58,1.58,0,0,0,.24.71,1.29,1.29,0,0,0,.58.45,2.18,2.18,0,0,0,.88.17,2.11,2.11,0,0,0,.77-.13,1.06,1.06,0,0,0,.49-.35.82.82,0,0,0,.16-.49.74.74,0,0,0-.16-.47,1.16,1.16,0,0,0-.52-.34,10,10,0,0,0-1-.28,5.16,5.16,0,0,1-1.11-.36,1.55,1.55,0,0,1-.61-.53,1.31,1.31,0,0,1-.2-.71,1.45,1.45,0,0,1,.25-.81,1.52,1.52,0,0,1,.72-.57,2.73,2.73,0,0,1,1.05-.2,2.87,2.87,0,0,1,1.12.21,1.62,1.62,0,0,1,.75.6,1.73,1.73,0,0,1,.28.9l-.73.05a1.17,1.17,0,0,0-.4-.82,1.55,1.55,0,0,0-1-.28,1.6,1.6,0,0,0-1,.25.75.75,0,0,0-.31.61.65.65,0,0,0,.22.51,3,3,0,0,0,1.14.41,7.56,7.56,0,0,1,1.27.37,1.74,1.74,0,0,1,.74.58,1.42,1.42,0,0,1,.24.81,1.56,1.56,0,0,1-.26.86,1.72,1.72,0,0,1-.75.63,2.62,2.62,0,0,1-1.1.22,3.29,3.29,0,0,1-1.3-.23,1.82,1.82,0,0,1-.82-.68A1.94,1.94,0,0,1,212.93,17.81Z"/><path d="M220,19.65V14.6h-1.89v-.68h4.54v.68h-1.89v5.05Z"/><path d="M222.19,19.65l2.2-5.73h.82l2.34,5.73h-.86L226,17.91h-2.39L223,19.65Zm1.65-2.35h1.94l-.6-1.59q-.27-.72-.41-1.19a7.35,7.35,0,0,1-.31,1.09Z"/><path d="M228.12,19.65V13.92h.76V19h2.82v.68Z"/><path d="M232.57,19.65V13.92h.76V19h2.82v.68Z"/><path d="M237.07,19.65V13.92h4.14v.68h-3.38v1.75H241V17h-3.17V19h3.52v.68Z"/><path d="M242.39,19.65V13.92h2a4.78,4.78,0,0,1,1,.08,1.93,1.93,0,0,1,.84.41,2.33,2.33,0,0,1,.68,1,3.85,3.85,0,0,1,.22,1.36,4,4,0,0,1-.15,1.16,2.79,2.79,0,0,1-.39.83,2.09,2.09,0,0,1-.52.52,2.14,2.14,0,0,1-.68.29,3.88,3.88,0,0,1-.92.1Zm.76-.68h1.22a3,3,0,0,0,.89-.11,1.27,1.27,0,0,0,.51-.3,1.81,1.81,0,0,0,.42-.72,3.53,3.53,0,0,0,.15-1.1,2.67,2.67,0,0,0-.29-1.38,1.48,1.48,0,0,0-.72-.65,3,3,0,0,0-1-.12h-1.2Z"/><path d="M250.51,19.65V13.92h.76v5.73Z"/><path d="M252.6,19.65V13.92h.78l3,4.5v-4.5h.73v5.73h-.78l-3-4.5v4.5Z"/><path d="M261.92,19.65V14.6H260v-.68h4.54v.68h-1.89v5.05Z"/><path d="M265.37,19.65V13.92h.76v2.35h3V13.92h.76v5.73h-.76v-2.7h-3v2.7Z"/><path d="M271.14,19.65V13.92h4.14v.68H271.9v1.75h3.17V17H271.9V19h3.52v.68Z"/><path d="M168.23,27.24l.76.19a2.55,2.55,0,0,1-.86,1.42,2.36,2.36,0,0,1-1.51.49,2.72,2.72,0,0,1-1.51-.38,2.35,2.35,0,0,1-.88-1.09,3.89,3.89,0,0,1-.3-1.54,3.38,3.38,0,0,1,.34-1.56,2.34,2.34,0,0,1,1-1,2.84,2.84,0,0,1,1.39-.35,2.34,2.34,0,0,1,1.45.44,2.27,2.27,0,0,1,.82,1.23l-.75.18a1.77,1.77,0,0,0-.58-.91,1.54,1.54,0,0,0-1-.29,1.85,1.85,0,0,0-1.1.32,1.67,1.67,0,0,0-.62.85,3.41,3.41,0,0,0-.18,1.1,3.5,3.5,0,0,0,.21,1.28,1.58,1.58,0,0,0,.66.81,1.86,1.86,0,0,0,1,.27,1.63,1.63,0,0,0,1.08-.37A1.88,1.88,0,0,0,168.23,27.24Z"/><path d="M170.05,29.25V23.52h.76v5.73Z"/><path d="M172.16,29.25V23.52h2.54a3.39,3.39,0,0,1,1.16.15,1.27,1.27,0,0,1,.64.54,1.62,1.62,0,0,1,.24.86,1.44,1.44,0,0,1-.39,1,2,2,0,0,1-1.22.53,2,2,0,0,1,.46.29,3.94,3.94,0,0,1,.63.76l1,1.56h-1l-.76-1.19q-.33-.52-.55-.79a1.73,1.73,0,0,0-.38-.38,1.12,1.12,0,0,0-.35-.15,2.25,2.25,0,0,0-.42,0h-.88v2.54Zm.76-3.2h1.63a2.45,2.45,0,0,0,.81-.11.86.86,0,0,0,.45-.34.93.93,0,0,0,.15-.51.86.86,0,0,0-.29-.67,1.38,1.38,0,0,0-.93-.26h-1.81Z"/><path d="M182,27.24l.76.19a2.55,2.55,0,0,1-.86,1.42,2.36,2.36,0,0,1-1.51.49,2.72,2.72,0,0,1-1.51-.38,2.35,2.35,0,0,1-.88-1.09,3.89,3.89,0,0,1-.3-1.54,3.38,3.38,0,0,1,.34-1.56,2.34,2.34,0,0,1,1-1,2.84,2.84,0,0,1,1.39-.35,2.34,2.34,0,0,1,1.45.44,2.27,2.27,0,0,1,.82,1.23l-.75.18a1.77,1.77,0,0,0-.58-.91,1.54,1.54,0,0,0-1-.29,1.85,1.85,0,0,0-1.1.32,1.67,1.67,0,0,0-.62.85,3.41,3.41,0,0,0-.18,1.1,3.5,3.5,0,0,0,.21,1.28,1.58,1.58,0,0,0,.66.81,1.86,1.86,0,0,0,1,.27,1.63,1.63,0,0,0,1.08-.37A1.88,1.88,0,0,0,182,27.24Z"/><path d="M187.46,23.52h.76v3.31a3.93,3.93,0,0,1-.2,1.37,1.67,1.67,0,0,1-.71.83,2.5,2.5,0,0,1-1.34.32,2.75,2.75,0,0,1-1.32-.28,1.58,1.58,0,0,1-.73-.8,3.83,3.83,0,0,1-.22-1.44V23.52h.76v3.3a3.21,3.21,0,0,0,.14,1.1,1.06,1.06,0,0,0,.48.54,1.65,1.65,0,0,0,.83.19,1.58,1.58,0,0,0,1.19-.38,2.18,2.18,0,0,0,.36-1.46Z"/><path d="M189.45,29.25V23.52h.76v5.05H193v.68Z"/><path d="M193.3,29.25l2.2-5.73h.82l2.34,5.73h-.86l-.67-1.73h-2.39l-.63,1.73ZM195,26.9h1.94l-.6-1.59q-.27-.72-.41-1.19a7.35,7.35,0,0,1-.31,1.09Z"/><path d="M200.13,29.25V24.2h-1.89v-.68h4.54v.68h-1.89v5.05Z"/><path d="M203.69,29.25V23.52h.76v5.73Z"/><path d="M205.77,29.25V23.52h.78l3,4.5v-4.5h.73v5.73h-.78l-3-4.5v4.5Z"/><path d="M214.24,27v-.67h2.43v2.13a4.27,4.27,0,0,1-1.15.67,3.42,3.42,0,0,1-1.22.22,3.25,3.25,0,0,1-1.53-.36,2.39,2.39,0,0,1-1-1,3.29,3.29,0,0,1-.35-1.53,3.54,3.54,0,0,1,.35-1.56,2.33,2.33,0,0,1,1-1.08,3.15,3.15,0,0,1,1.51-.35,3,3,0,0,1,1.12.2,1.86,1.86,0,0,1,.79.56,2.47,2.47,0,0,1,.43.94l-.68.19a2.11,2.11,0,0,0-.32-.69,1.31,1.31,0,0,0-.55-.4,2,2,0,0,0-.79-.15,2.32,2.32,0,0,0-.9.16,1.68,1.68,0,0,0-.61.42,2,2,0,0,0-.36.57,3,3,0,0,0-.22,1.15,2.8,2.8,0,0,0,.26,1.28,1.69,1.69,0,0,0,.77.77,2.37,2.37,0,0,0,1.07.25,2.55,2.55,0,0,0,1-.19,2.46,2.46,0,0,0,.71-.4V27Z"/><path d="M220,29.25V23.52h.76v5.05h2.82v.68Z"/><path d="M224.22,26.46a3.11,3.11,0,0,1,.77-2.23,2.6,2.6,0,0,1,2-.81,2.74,2.74,0,0,1,1.43.38,2.47,2.47,0,0,1,1,1.06,3.43,3.43,0,0,1,.33,1.54,3.37,3.37,0,0,1-.35,1.56,2.4,2.4,0,0,1-1,1,2.85,2.85,0,0,1-1.39.35,2.71,2.71,0,0,1-1.45-.39,2.52,2.52,0,0,1-1-1.07A3.23,3.23,0,0,1,224.22,26.46Zm.78,0a2.29,2.29,0,0,0,.56,1.63,1.94,1.94,0,0,0,2.8,0,2.43,2.43,0,0,0,.55-1.71,2.94,2.94,0,0,0-.24-1.22,1.81,1.81,0,0,0-.69-.81,1.87,1.87,0,0,0-1-.29,1.94,1.94,0,0,0-1.38.55A2.47,2.47,0,0,0,225,26.47Z"/><path d="M230.44,26.46a3.11,3.11,0,0,1,.77-2.23,2.6,2.6,0,0,1,2-.81,2.74,2.74,0,0,1,1.43.38,2.47,2.47,0,0,1,1,1.06,3.43,3.43,0,0,1,.33,1.54,3.37,3.37,0,0,1-.35,1.56,2.4,2.4,0,0,1-1,1,2.85,2.85,0,0,1-1.39.35,2.71,2.71,0,0,1-1.45-.39,2.52,2.52,0,0,1-1-1.07A3.23,3.23,0,0,1,230.44,26.46Zm.78,0a2.29,2.29,0,0,0,.56,1.63,1.94,1.94,0,0,0,2.8,0,2.43,2.43,0,0,0,.55-1.71,2.94,2.94,0,0,0-.24-1.22,1.81,1.81,0,0,0-.69-.81,1.87,1.87,0,0,0-1-.29,1.94,1.94,0,0,0-1.38.55A2.47,2.47,0,0,0,231.23,26.47Z"/><path d="M236.9,29.25V23.52h2.16a5.25,5.25,0,0,1,.87.05,1.72,1.72,0,0,1,.71.27,1.4,1.4,0,0,1,.46.55,1.86,1.86,0,0,1-.29,2,2.23,2.23,0,0,1-1.68.51h-1.47v2.33Zm.76-3h1.48a1.57,1.57,0,0,0,1-.27,1,1,0,0,0,.31-.77,1,1,0,0,0-.18-.62.85.85,0,0,0-.48-.34,3.22,3.22,0,0,0-.71-.05h-1.46Z"/><path d="M244.32,29.25V23.52h2.54a3.39,3.39,0,0,1,1.16.15,1.27,1.27,0,0,1,.64.54,1.62,1.62,0,0,1,.24.86,1.44,1.44,0,0,1-.39,1,2,2,0,0,1-1.22.53,2,2,0,0,1,.46.29,3.94,3.94,0,0,1,.63.76l1,1.56h-1l-.76-1.19q-.33-.52-.55-.79a1.73,1.73,0,0,0-.38-.38,1.12,1.12,0,0,0-.35-.15,2.25,2.25,0,0,0-.42,0h-.88v2.54Zm.76-3.2h1.63a2.45,2.45,0,0,0,.81-.11.86.86,0,0,0,.45-.34.93.93,0,0,0,.15-.51.86.86,0,0,0-.29-.67,1.38,1.38,0,0,0-.93-.26h-1.81Z"/><path d="M250.1,29.25V23.52h4.14v.68h-3.38v1.75H254v.67h-3.17v1.95h3.52v.68Z"/><path d="M256.88,29.25V24.2H255v-.68h4.54v.68h-1.89v5.05Z"/><path d="M264.07,23.52h.76v3.31a3.93,3.93,0,0,1-.2,1.37,1.67,1.67,0,0,1-.71.83,2.5,2.5,0,0,1-1.34.32,2.75,2.75,0,0,1-1.32-.28,1.58,1.58,0,0,1-.73-.8,3.83,3.83,0,0,1-.22-1.44V23.52h.76v3.3a3.21,3.21,0,0,0,.14,1.1,1.06,1.06,0,0,0,.48.54,1.65,1.65,0,0,0,.83.19,1.58,1.58,0,0,0,1.19-.38,2.18,2.18,0,0,0,.36-1.46Z"/><path d="M266.1,29.25V23.52h2.54a3.39,3.39,0,0,1,1.16.15,1.27,1.27,0,0,1,.64.54,1.62,1.62,0,0,1,.24.86,1.44,1.44,0,0,1-.39,1,2,2,0,0,1-1.22.53,2,2,0,0,1,.46.29,3.94,3.94,0,0,1,.63.76l1,1.56h-1l-.76-1.19q-.33-.52-.55-.79a1.73,1.73,0,0,0-.38-.38,1.12,1.12,0,0,0-.35-.15,2.25,2.25,0,0,0-.42,0h-.88v2.54Zm.76-3.2h1.63a2.45,2.45,0,0,0,.81-.11.86.86,0,0,0,.45-.34.93.93,0,0,0,.15-.51.86.86,0,0,0-.29-.67,1.38,1.38,0,0,0-.93-.26h-1.81Z"/><path d="M271.86,29.25V23.52h.78l3,4.5v-4.5h.73v5.73h-.78l-3-4.5v4.5Z"/><path d="M279.83,29.25V23.52h.76v5.05h2.82v.68Z"/><path d="M284.44,29.25V23.52h.76v5.73Z"/><path d="M286.53,29.25V23.52h.78l3,4.5v-4.5H291v5.73h-.78l-3-4.5v4.5Z"/><path d="M292.33,29.25V23.52h4.14v.68h-3.38v1.75h3.17v.67h-3.17v1.95h3.52v.68Z"/><path d="M86.62,10V4.32h2a4.78,4.78,0,0,1,1,.08,1.93,1.93,0,0,1,.84.41,2.33,2.33,0,0,1,.68,1,3.85,3.85,0,0,1,.22,1.36,4,4,0,0,1-.15,1.16,2.79,2.79,0,0,1-.39.83,2.09,2.09,0,0,1-.52.52,2.14,2.14,0,0,1-.68.29,3.88,3.88,0,0,1-.92.1Zm.76-.68H88.6a3,3,0,0,0,.89-.11A1.27,1.27,0,0,0,90,9a1.81,1.81,0,0,0,.42-.72,3.53,3.53,0,0,0,.15-1.1,2.67,2.67,0,0,0-.29-1.38,1.48,1.48,0,0,0-.72-.65,3,3,0,0,0-1-.12h-1.2Z"/><path d="M92.53,10V4.32h.76V10Z"/><path d="M94.37,8.21l.71-.06a1.58,1.58,0,0,0,.24.71,1.29,1.29,0,0,0,.58.45,2.18,2.18,0,0,0,.88.17,2.11,2.11,0,0,0,.77-.13A1.06,1.06,0,0,0,98,9a.82.82,0,0,0,.16-.49A.74.74,0,0,0,98,8a1.16,1.16,0,0,0-.52-.34,10,10,0,0,0-1-.28A5.16,5.16,0,0,1,95.4,7a1.55,1.55,0,0,1-.61-.53,1.31,1.31,0,0,1-.2-.71A1.45,1.45,0,0,1,94.83,5a1.52,1.52,0,0,1,.72-.57,2.73,2.73,0,0,1,1.05-.2,2.87,2.87,0,0,1,1.12.21,1.62,1.62,0,0,1,.75.6,1.73,1.73,0,0,1,.28.9L98,6a1.17,1.17,0,0,0-.4-.82,1.55,1.55,0,0,0-1-.28,1.6,1.6,0,0,0-1,.25.75.75,0,0,0-.31.61.65.65,0,0,0,.22.51,3,3,0,0,0,1.14.41A7.56,7.56,0,0,1,97.95,7a1.74,1.74,0,0,1,.74.58,1.42,1.42,0,0,1,.24.81,1.56,1.56,0,0,1-.26.86,1.72,1.72,0,0,1-.75.63,2.62,2.62,0,0,1-1.1.22,3.29,3.29,0,0,1-1.3-.23,1.82,1.82,0,0,1-.82-.68A1.94,1.94,0,0,1,94.37,8.21Z"/><path d="M100,10V4.32h.76V6.67h3V4.32h.76V10h-.76V7.35h-3V10Z"/><path d="M106.74,10l-1.52-5.73H106l.87,3.75q.14.59.24,1.17.22-.92.26-1.06l1.09-3.87h.91l.82,2.9a15.25,15.25,0,0,1,.45,2q.11-.54.29-1.25l.9-3.68h.76L111,10h-.73l-1.21-4.36c-.1-.36-.16-.59-.18-.67-.06.26-.12.49-.17.67L107.51,10Z"/><path d="M112.36,10l2.2-5.73h.82L117.72,10h-.86l-.67-1.73H113.8L113.17,10ZM114,7.69H116l-.6-1.59q-.27-.72-.41-1.19A7.35,7.35,0,0,1,114.64,6Z"/><path d="M118.07,8.21l.71-.06a1.58,1.58,0,0,0,.24.71,1.29,1.29,0,0,0,.58.45,2.18,2.18,0,0,0,.88.17,2.11,2.11,0,0,0,.77-.13,1.06,1.06,0,0,0,.49-.35.82.82,0,0,0,.16-.49.74.74,0,0,0-.16-.47,1.16,1.16,0,0,0-.52-.34,10,10,0,0,0-1-.28A5.16,5.16,0,0,1,119.1,7a1.55,1.55,0,0,1-.61-.53,1.31,1.31,0,0,1-.2-.71,1.45,1.45,0,0,1,.25-.81,1.52,1.52,0,0,1,.72-.57,2.73,2.73,0,0,1,1.05-.2,2.87,2.87,0,0,1,1.12.21,1.62,1.62,0,0,1,.75.6,1.73,1.73,0,0,1,.28.9l-.73.05a1.17,1.17,0,0,0-.4-.82,1.55,1.55,0,0,0-1-.28,1.6,1.6,0,0,0-1,.25.75.75,0,0,0-.31.61.65.65,0,0,0,.22.51,3,3,0,0,0,1.14.41,7.56,7.56,0,0,1,1.27.37,1.74,1.74,0,0,1,.74.58,1.42,1.42,0,0,1,.24.81,1.56,1.56,0,0,1-.26.86,1.72,1.72,0,0,1-.75.63,2.62,2.62,0,0,1-1.1.22,3.29,3.29,0,0,1-1.3-.23,1.82,1.82,0,0,1-.82-.68A1.94,1.94,0,0,1,118.07,8.21Z"/><path d="M123.69,10V4.32h.76V6.67h3V4.32h.76V10h-.76V7.35h-3V10Z"/><path d="M129.46,10V4.32h4.14V5h-3.38V6.75h3.17v.67h-3.17V9.37h3.52V10Z"/><path d="M134.79,10V4.32h2.54a3.39,3.39,0,0,1,1.16.15,1.27,1.27,0,0,1,.64.54,1.62,1.62,0,0,1,.24.86,1.44,1.44,0,0,1-.39,1,2,2,0,0,1-1.22.53,2,2,0,0,1,.46.29,3.94,3.94,0,0,1,.63.76l1,1.56h-1l-.76-1.19q-.33-.52-.55-.79a1.73,1.73,0,0,0-.38-.38,1.12,1.12,0,0,0-.35-.15,2.25,2.25,0,0,0-.42,0h-.88V10Zm.76-3.2h1.63a2.45,2.45,0,0,0,.81-.11.86.86,0,0,0,.45-.34.93.93,0,0,0,.15-.51.86.86,0,0,0-.29-.67,1.38,1.38,0,0,0-.93-.26h-1.81Z"/><path d="M88.08,19.65V14.6H86.19v-.68h4.54v.68H88.84v5.05Z"/><path d="M91.14,16.86a3.11,3.11,0,0,1,.77-2.23,2.6,2.6,0,0,1,2-.81,2.74,2.74,0,0,1,1.43.38,2.47,2.47,0,0,1,1,1.06,3.43,3.43,0,0,1,.33,1.54,3.37,3.37,0,0,1-.35,1.56,2.4,2.4,0,0,1-1,1,2.85,2.85,0,0,1-1.39.35,2.71,2.71,0,0,1-1.45-.39,2.52,2.52,0,0,1-1-1.07A3.23,3.23,0,0,1,91.14,16.86Zm.78,0a2.29,2.29,0,0,0,.56,1.63,1.94,1.94,0,0,0,2.8,0,2.43,2.43,0,0,0,.55-1.71,2.94,2.94,0,0,0-.24-1.22,1.81,1.81,0,0,0-.69-.81,1.87,1.87,0,0,0-1-.29A1.94,1.94,0,0,0,92.5,15,2.47,2.47,0,0,0,91.92,16.87Z"/><path d="M100.27,17.4v-.67h2.43v2.13a4.27,4.27,0,0,1-1.15.67,3.42,3.42,0,0,1-1.22.22,3.25,3.25,0,0,1-1.53-.36,2.39,2.39,0,0,1-1-1,3.29,3.29,0,0,1-.35-1.53,3.54,3.54,0,0,1,.35-1.56,2.33,2.33,0,0,1,1-1.08,3.15,3.15,0,0,1,1.51-.35,3,3,0,0,1,1.12.2,1.86,1.86,0,0,1,.79.56,2.47,2.47,0,0,1,.43.94l-.68.19a2.11,2.11,0,0,0-.32-.69,1.31,1.31,0,0,0-.55-.4,2,2,0,0,0-.79-.15,2.32,2.32,0,0,0-.9.16,1.68,1.68,0,0,0-.61.42,2,2,0,0,0-.36.57,3,3,0,0,0-.22,1.15A2.8,2.8,0,0,0,98.44,18a1.69,1.69,0,0,0,.77.77,2.37,2.37,0,0,0,1.07.25,2.55,2.55,0,0,0,1-.19,2.46,2.46,0,0,0,.71-.4V17.4Z"/><path d="M106.49,17.4v-.67h2.43v2.13a4.27,4.27,0,0,1-1.15.67,3.42,3.42,0,0,1-1.22.22,3.25,3.25,0,0,1-1.53-.36,2.39,2.39,0,0,1-1-1,3.29,3.29,0,0,1-.35-1.53,3.54,3.54,0,0,1,.35-1.56,2.33,2.33,0,0,1,1-1.08,3.15,3.15,0,0,1,1.51-.35,3,3,0,0,1,1.12.2,1.86,1.86,0,0,1,.79.56,2.47,2.47,0,0,1,.43.94l-.68.19a2.11,2.11,0,0,0-.32-.69,1.31,1.31,0,0,0-.55-.4,2,2,0,0,0-.79-.15,2.32,2.32,0,0,0-.9.16A1.68,1.68,0,0,0,105,15a2,2,0,0,0-.36.57,3,3,0,0,0-.22,1.15,2.8,2.8,0,0,0,.26,1.28,1.69,1.69,0,0,0,.77.77,2.37,2.37,0,0,0,1.07.25,2.55,2.55,0,0,0,1-.19,2.46,2.46,0,0,0,.71-.4V17.4Z"/><path d="M110,19.65V13.92h.76V19h2.82v.68Z"/><path d="M114.5,19.65V13.92h4.14v.68h-3.38v1.75h3.17V17h-3.17V19h3.52v.68Z"/><path d="M86.37,27.41l.71-.06a1.58,1.58,0,0,0,.24.71,1.29,1.29,0,0,0,.58.45,2.18,2.18,0,0,0,.88.17,2.11,2.11,0,0,0,.77-.13,1.06,1.06,0,0,0,.49-.35.82.82,0,0,0,.16-.49.74.74,0,0,0-.16-.47,1.16,1.16,0,0,0-.52-.34,10,10,0,0,0-1-.28,5.16,5.16,0,0,1-1.11-.36,1.55,1.55,0,0,1-.61-.53,1.31,1.31,0,0,1-.2-.71,1.45,1.45,0,0,1,.25-.81,1.52,1.52,0,0,1,.72-.57,2.73,2.73,0,0,1,1.05-.2,2.87,2.87,0,0,1,1.12.21,1.62,1.62,0,0,1,.75.6,1.73,1.73,0,0,1,.28.9l-.73.05a1.17,1.17,0,0,0-.4-.82,1.55,1.55,0,0,0-1-.28,1.6,1.6,0,0,0-1,.25.75.75,0,0,0-.31.61.65.65,0,0,0,.22.51,3,3,0,0,0,1.14.41,7.56,7.56,0,0,1,1.27.37,1.74,1.74,0,0,1,.74.58,1.42,1.42,0,0,1,.24.81,1.56,1.56,0,0,1-.26.86,1.72,1.72,0,0,1-.75.63,2.62,2.62,0,0,1-1.1.22,3.29,3.29,0,0,1-1.3-.23,1.82,1.82,0,0,1-.82-.68A1.94,1.94,0,0,1,86.37,27.41Z"/><path d="M93,29.25l-1.52-5.73h.78l.87,3.75q.14.59.24,1.17.22-.92.26-1.06l1.09-3.87h.91l.82,2.9a15.25,15.25,0,0,1,.45,2q.11-.54.29-1.25l.9-3.68h.76l-1.57,5.73H96.5L95.3,24.88c-.1-.36-.16-.59-.18-.67-.06.26-.12.49-.17.67l-1.21,4.36Z"/><path d="M99.64,29.25V23.52h.76v5.73Z"/><path d="M103.19,29.25V24.2H101.3v-.68h4.54v.68h-1.89v5.05Z"/><path d="M110.71,27.24l.76.19a2.55,2.55,0,0,1-.86,1.42,2.36,2.36,0,0,1-1.51.49,2.72,2.72,0,0,1-1.51-.38,2.35,2.35,0,0,1-.88-1.09,3.89,3.89,0,0,1-.3-1.54,3.38,3.38,0,0,1,.34-1.56,2.34,2.34,0,0,1,1-1,2.84,2.84,0,0,1,1.39-.35,2.34,2.34,0,0,1,1.45.44,2.27,2.27,0,0,1,.82,1.23l-.75.18a1.77,1.77,0,0,0-.58-.91,1.54,1.54,0,0,0-1-.29,1.85,1.85,0,0,0-1.1.32,1.67,1.67,0,0,0-.62.85,3.41,3.41,0,0,0-.18,1.1,3.5,3.5,0,0,0,.21,1.28,1.58,1.58,0,0,0,.66.81,1.86,1.86,0,0,0,1,.27,1.63,1.63,0,0,0,1.08-.37A1.88,1.88,0,0,0,110.71,27.24Z"/><path d="M112.42,29.25V23.52h.76v2.35h3V23.52h.76v5.73h-.76v-2.7h-3v2.7Z"/><path d="M232.33,125.59l.76.19a2.55,2.55,0,0,1-.86,1.42,2.36,2.36,0,0,1-1.51.49,2.72,2.72,0,0,1-1.51-.38,2.35,2.35,0,0,1-.88-1.09,3.89,3.89,0,0,1-.3-1.54,3.38,3.38,0,0,1,.34-1.56,2.34,2.34,0,0,1,1-1,2.84,2.84,0,0,1,1.39-.35,2.34,2.34,0,0,1,1.45.44,2.27,2.27,0,0,1,.82,1.23l-.75.18a1.77,1.77,0,0,0-.58-.91,1.54,1.54,0,0,0-1-.29,1.85,1.85,0,0,0-1.1.32,1.67,1.67,0,0,0-.62.85,3.41,3.41,0,0,0-.18,1.1A3.5,3.5,0,0,0,229,126a1.58,1.58,0,0,0,.66.81,1.86,1.86,0,0,0,1,.27,1.63,1.63,0,0,0,1.08-.37A1.88,1.88,0,0,0,232.33,125.59Z"/><path d="M234.15,127.6v-5.73h.76v5.73Z"/><path d="M236.26,127.6v-5.73h2.54A3.39,3.39,0,0,1,240,122a1.27,1.27,0,0,1,.64.54,1.62,1.62,0,0,1,.24.86,1.44,1.44,0,0,1-.39,1,2,2,0,0,1-1.22.53,2,2,0,0,1,.46.29,3.94,3.94,0,0,1,.63.76l1,1.56h-1l-.76-1.19q-.33-.52-.55-.79a1.73,1.73,0,0,0-.38-.38,1.12,1.12,0,0,0-.35-.15,2.25,2.25,0,0,0-.42,0H237v2.54Zm.76-3.2h1.63a2.45,2.45,0,0,0,.81-.11.86.86,0,0,0,.45-.34.93.93,0,0,0,.15-.51.86.86,0,0,0-.29-.67,1.38,1.38,0,0,0-.93-.26H237Z"/><path d="M246.11,125.59l.76.19a2.55,2.55,0,0,1-.86,1.42,2.36,2.36,0,0,1-1.51.49,2.72,2.72,0,0,1-1.51-.38,2.35,2.35,0,0,1-.88-1.09,3.89,3.89,0,0,1-.3-1.54,3.38,3.38,0,0,1,.34-1.56,2.34,2.34,0,0,1,1-1,2.84,2.84,0,0,1,1.39-.35,2.34,2.34,0,0,1,1.45.44,2.27,2.27,0,0,1,.82,1.23l-.75.18a1.77,1.77,0,0,0-.58-.91,1.54,1.54,0,0,0-1-.29,1.85,1.85,0,0,0-1.1.32,1.67,1.67,0,0,0-.62.85,3.41,3.41,0,0,0-.18,1.1,3.5,3.5,0,0,0,.21,1.28,1.58,1.58,0,0,0,.66.81,1.86,1.86,0,0,0,1,.27,1.63,1.63,0,0,0,1.08-.37A1.88,1.88,0,0,0,246.11,125.59Z"/><path d="M226.54,137.2v-5.73h2.16a5.25,5.25,0,0,1,.87.05,1.72,1.72,0,0,1,.71.27,1.4,1.4,0,0,1,.46.55,1.86,1.86,0,0,1-.29,2,2.23,2.23,0,0,1-1.68.51H227.3v2.33Zm.76-3h1.48a1.57,1.57,0,0,0,1-.27,1,1,0,0,0,.31-.77,1,1,0,0,0-.18-.62.85.85,0,0,0-.48-.34,3.22,3.22,0,0,0-.71-.05H227.3Z"/><path d="M235.63,131.47h.76v3.31a3.93,3.93,0,0,1-.2,1.37,1.67,1.67,0,0,1-.71.83,2.5,2.5,0,0,1-1.34.32,2.75,2.75,0,0,1-1.32-.28,1.58,1.58,0,0,1-.73-.8,3.83,3.83,0,0,1-.22-1.44v-3.31h.76v3.3a3.21,3.21,0,0,0,.14,1.1,1.06,1.06,0,0,0,.48.54,1.65,1.65,0,0,0,.83.19,1.58,1.58,0,0,0,1.19-.38,2.18,2.18,0,0,0,.36-1.46Z"/><path d="M237.63,137.2v-5.73h1.14l1.36,4.05.27.85q.1-.31.3-.92l1.37-4h1v5.73h-.73v-4.79l-1.66,4.79H240l-1.66-4.87v4.88Z"/><path d="M244.32,137.2v-5.73h2.16a5.25,5.25,0,0,1,.87.05,1.72,1.72,0,0,1,.71.27,1.4,1.4,0,0,1,.46.55,1.86,1.86,0,0,1-.29,2,2.23,2.23,0,0,1-1.68.51h-1.47v2.33Zm.76-3h1.48a1.57,1.57,0,0,0,1-.27,1,1,0,0,0,.31-.77,1,1,0,0,0-.18-.62.85.85,0,0,0-.48-.34,3.22,3.22,0,0,0-.71-.05h-1.46Z"/><path d="M223.19,146.8v-5.73h1.14l1.36,4.05.27.85q.1-.31.3-.92l1.37-4h1v5.73h-.73V142l-1.66,4.79h-.68l-1.66-4.87v4.88Z"/><path d="M229.64,144a3.11,3.11,0,0,1,.77-2.23,2.6,2.6,0,0,1,2-.81,2.74,2.74,0,0,1,1.43.38,2.47,2.47,0,0,1,1,1.06,3.43,3.43,0,0,1,.33,1.54,3.37,3.37,0,0,1-.35,1.56,2.4,2.4,0,0,1-1,1,2.85,2.85,0,0,1-1.39.35,2.71,2.71,0,0,1-1.45-.39,2.52,2.52,0,0,1-1-1.07A3.23,3.23,0,0,1,229.64,144Zm.78,0a2.29,2.29,0,0,0,.56,1.63,1.94,1.94,0,0,0,2.8,0,2.43,2.43,0,0,0,.55-1.71,2.94,2.94,0,0,0-.24-1.22,1.81,1.81,0,0,0-.69-.81,1.87,1.87,0,0,0-1-.29,1.94,1.94,0,0,0-1.38.55A2.47,2.47,0,0,0,230.43,144Z"/><path d="M237.55,146.8v-5.05h-1.89v-.68h4.54v.68h-1.89v5.05Z"/><path d="M240.61,144a3.11,3.11,0,0,1,.77-2.23,2.6,2.6,0,0,1,2-.81,2.74,2.74,0,0,1,1.43.38,2.47,2.47,0,0,1,1,1.06,3.43,3.43,0,0,1,.33,1.54,3.37,3.37,0,0,1-.35,1.56,2.4,2.4,0,0,1-1,1,2.85,2.85,0,0,1-1.39.35,2.71,2.71,0,0,1-1.45-.39,2.52,2.52,0,0,1-1-1.07A3.23,3.23,0,0,1,240.61,144Zm.78,0a2.29,2.29,0,0,0,.56,1.63,1.94,1.94,0,0,0,2.8,0,2.43,2.43,0,0,0,.55-1.71,2.94,2.94,0,0,0-.24-1.22,1.81,1.81,0,0,0-.69-.81,1.87,1.87,0,0,0-1-.29,1.94,1.94,0,0,0-1.38.55A2.47,2.47,0,0,0,241.39,144Z"/><path d="M247.07,146.8v-5.73h2.54a3.39,3.39,0,0,1,1.16.15,1.27,1.27,0,0,1,.64.54,1.62,1.62,0,0,1,.24.86,1.44,1.44,0,0,1-.39,1,2,2,0,0,1-1.22.53,2,2,0,0,1,.46.29,3.94,3.94,0,0,1,.63.76l1,1.56h-1l-.76-1.19q-.33-.52-.55-.79a1.73,1.73,0,0,0-.38-.38,1.12,1.12,0,0,0-.35-.15,2.25,2.25,0,0,0-.42,0h-.88v2.54Zm.76-3.2h1.63a2.45,2.45,0,0,0,.81-.11.86.86,0,0,0,.45-.34.93.93,0,0,0,.15-.51.86.86,0,0,0-.29-.67,1.38,1.38,0,0,0-.93-.26h-1.81Z"/><path d="M34.68,94.5V88.78h.76v5.05h2.82v.68Z"/><path d="M41.52,94.5h-.7V90a3.63,3.63,0,0,1-.67.48,4.77,4.77,0,0,1-.74.36v-.68a4.23,4.23,0,0,0,1-.67,2.64,2.64,0,0,0,.63-.77h.45Z"/><path d="M45.85,94.5V88.78h.76v2.35h3V88.78h.76V94.5h-.76v-2.7h-3v2.7Z"/><path d="M51.38,91.72a3.11,3.11,0,0,1,.77-2.23,2.6,2.6,0,0,1,2-.81,2.74,2.74,0,0,1,1.43.38,2.47,2.47,0,0,1,1,1.06,3.43,3.43,0,0,1,.33,1.54,3.37,3.37,0,0,1-.35,1.56,2.4,2.4,0,0,1-1,1,2.85,2.85,0,0,1-1.39.35,2.71,2.71,0,0,1-1.45-.39,2.52,2.52,0,0,1-1-1.07A3.23,3.23,0,0,1,51.38,91.72Zm.78,0a2.29,2.29,0,0,0,.56,1.63,1.94,1.94,0,0,0,2.8,0,2.43,2.43,0,0,0,.55-1.71,2.94,2.94,0,0,0-.24-1.22,1.81,1.81,0,0,0-.69-.81,1.87,1.87,0,0,0-1-.29,1.94,1.94,0,0,0-1.38.55A2.47,2.47,0,0,0,52.16,91.73Z"/><path d="M59.29,94.5V89.45H57.4v-.68h4.54v.68H60V94.5Z"/><path d="M14.37,167.62v-5.73h.76v5.05h2.82v.68Z"/><path d="M22.26,166.94v.68H18.47a1.26,1.26,0,0,1,.08-.49,2.6,2.6,0,0,1,.46-.76,7.21,7.21,0,0,1,.92-.87,7.84,7.84,0,0,0,1.26-1.21,1.45,1.45,0,0,0,.33-.85.94.94,0,0,0-.3-.71,1.08,1.08,0,0,0-.78-.29,1.1,1.1,0,0,0-.81.3,1.15,1.15,0,0,0-.31.84l-.72-.07a1.78,1.78,0,0,1,.56-1.23,1.91,1.91,0,0,1,1.3-.42,1.81,1.81,0,0,1,1.3.46,1.5,1.5,0,0,1,.48,1.13,1.72,1.72,0,0,1-.14.68,2.61,2.61,0,0,1-.47.7,11.37,11.37,0,0,1-1.08,1q-.63.53-.81.72a2.27,2.27,0,0,0-.3.38Z"/><path d="M25.51,167.62v-5.73h.78l3,4.5v-4.5H30v5.73h-.78l-3-4.5v4.5Z"/><path d="M31.31,167.62v-5.73h4.14v.68H32.07v1.75h3.17V165H32.07v1.95h3.52v.68Z"/><path d="M40.39,161.89h.76v3.31a3.93,3.93,0,0,1-.2,1.37,1.67,1.67,0,0,1-.71.83,2.5,2.5,0,0,1-1.34.32,2.75,2.75,0,0,1-1.32-.28,1.58,1.58,0,0,1-.73-.8,3.83,3.83,0,0,1-.22-1.44v-3.31h.76v3.3a3.21,3.21,0,0,0,.14,1.1,1.06,1.06,0,0,0,.48.54,1.65,1.65,0,0,0,.83.19,1.58,1.58,0,0,0,1.19-.38,2.18,2.18,0,0,0,.36-1.46Z"/><path d="M43.87,167.62v-5.05H42v-.68h4.54v.68H44.63v5.05Z"/><path d="M47.31,167.62v-5.73h2.54A3.39,3.39,0,0,1,51,162a1.27,1.27,0,0,1,.64.54,1.62,1.62,0,0,1,.24.86,1.44,1.44,0,0,1-.39,1,2,2,0,0,1-1.22.53,2,2,0,0,1,.46.29,3.94,3.94,0,0,1,.63.76l1,1.56h-1l-.76-1.19q-.33-.52-.55-.79a1.73,1.73,0,0,0-.38-.38,1.12,1.12,0,0,0-.35-.15,2.25,2.25,0,0,0-.42,0h-.88v2.54Zm.76-3.2H49.7a2.45,2.45,0,0,0,.81-.11A.86.86,0,0,0,51,164a.93.93,0,0,0,.15-.51.86.86,0,0,0-.29-.67,1.38,1.38,0,0,0-.93-.26H48.07Z"/><path d="M52.45,167.62l2.2-5.73h.82l2.34,5.73h-.86l-.67-1.73H53.88l-.63,1.73Zm1.65-2.35H56l-.6-1.59q-.27-.72-.41-1.19a7.35,7.35,0,0,1-.31,1.09Z"/><path d="M58.38,167.62v-5.73h.76v5.05H62v.68Z"/><path d="M66.66,124.61H66v-4.48a3.63,3.63,0,0,1-.67.48,4.77,4.77,0,0,1-.74.36v-.68a4.23,4.23,0,0,0,1-.67,2.64,2.64,0,0,0,.63-.77h.45Z"/><path d="M72.16,123.94v.68H68.37a1.26,1.26,0,0,1,.08-.49,2.6,2.6,0,0,1,.46-.76,7.21,7.21,0,0,1,.92-.87,7.84,7.84,0,0,0,1.26-1.21,1.45,1.45,0,0,0,.33-.85.94.94,0,0,0-.3-.71,1.08,1.08,0,0,0-.78-.29,1.1,1.1,0,0,0-.81.3,1.15,1.15,0,0,0-.31.84l-.72-.07a1.78,1.78,0,0,1,.56-1.23,1.91,1.91,0,0,1,1.3-.42,1.81,1.81,0,0,1,1.3.46,1.5,1.5,0,0,1,.48,1.13,1.72,1.72,0,0,1-.14.68,2.61,2.61,0,0,1-.47.7,11.37,11.37,0,0,1-1.08,1q-.63.53-.81.72a2.27,2.27,0,0,0-.3.38Z"/><path d="M72.91,121.79a5.23,5.23,0,0,1,.21-1.63,2,2,0,0,1,.62-1,1.59,1.59,0,0,1,1-.34,1.69,1.69,0,0,1,.81.19,1.55,1.55,0,0,1,.57.54,2.86,2.86,0,0,1,.36.85,5.66,5.66,0,0,1,.13,1.35,5.27,5.27,0,0,1-.21,1.63,2,2,0,0,1-.62,1,1.74,1.74,0,0,1-2.34-.26A3.77,3.77,0,0,1,72.91,121.79Zm.72,0a3.59,3.59,0,0,0,.33,1.88.94.94,0,0,0,1.63,0,5.5,5.5,0,0,0,0-3.75,1,1,0,0,0-.82-.46.9.9,0,0,0-.77.41A3.63,3.63,0,0,0,73.63,121.79Z"/><path d="M81.5,124.61l-2.22-5.73h.82L81.59,123q.18.5.3.94.13-.47.31-.94l1.55-4.16h.77l-2.24,5.73Z"/><path d="M84,124.61l2.2-5.73H87l2.34,5.73h-.86l-.67-1.73H85.41l-.63,1.73Zm1.65-2.35h1.94l-.6-1.59q-.27-.72-.41-1.19a7.35,7.35,0,0,1-.31,1.09Z"/><path d="M94,122.61l.76.19a2.55,2.55,0,0,1-.86,1.42,2.36,2.36,0,0,1-1.51.49,2.72,2.72,0,0,1-1.51-.38,2.35,2.35,0,0,1-.88-1.09,3.89,3.89,0,0,1-.3-1.54,3.38,3.38,0,0,1,.34-1.56,2.34,2.34,0,0,1,1-1,2.84,2.84,0,0,1,1.39-.35,2.34,2.34,0,0,1,1.45.44,2.27,2.27,0,0,1,.82,1.23l-.75.18a1.77,1.77,0,0,0-.58-.91,1.54,1.54,0,0,0-1-.29,1.85,1.85,0,0,0-1.1.32,1.67,1.67,0,0,0-.62.85,3.41,3.41,0,0,0-.18,1.1,3.5,3.5,0,0,0,.21,1.28,1.58,1.58,0,0,0,.66.81,1.86,1.86,0,0,0,1,.27,1.63,1.63,0,0,0,1.08-.37A1.88,1.88,0,0,0,94,122.61Z"/><path d="M64.9,134.21v-5.73h2.16a5.25,5.25,0,0,1,.87.05,1.72,1.72,0,0,1,.71.27,1.4,1.4,0,0,1,.46.55,1.86,1.86,0,0,1-.29,2,2.23,2.23,0,0,1-1.68.51H65.66v2.33Zm.76-3h1.48a1.57,1.57,0,0,0,1-.27,1,1,0,0,0,.31-.77,1,1,0,0,0-.18-.62.85.85,0,0,0-.48-.34,3.22,3.22,0,0,0-.71-.05H65.66Z"/><path d="M70,131.43a3.11,3.11,0,0,1,.77-2.23,2.6,2.6,0,0,1,2-.81,2.74,2.74,0,0,1,1.43.38,2.47,2.47,0,0,1,1,1.06,3.43,3.43,0,0,1,.33,1.54,3.37,3.37,0,0,1-.35,1.56,2.4,2.4,0,0,1-1,1,2.85,2.85,0,0,1-1.39.35,2.71,2.71,0,0,1-1.45-.39,2.52,2.52,0,0,1-1-1.07A3.23,3.23,0,0,1,70,131.43Zm.78,0a2.29,2.29,0,0,0,.56,1.63,1.94,1.94,0,0,0,2.8,0,2.43,2.43,0,0,0,.55-1.71,2.94,2.94,0,0,0-.24-1.22,1.81,1.81,0,0,0-.69-.81,1.87,1.87,0,0,0-1-.29,1.94,1.94,0,0,0-1.38.55A2.47,2.47,0,0,0,70.78,131.44Z"/><path d="M77.46,134.21l-1.52-5.73h.78l.87,3.75q.14.59.24,1.17.22-.92.26-1.06l1.09-3.87h.91l.82,2.9a15.25,15.25,0,0,1,.45,2q.11-.54.29-1.25l.9-3.68h.76l-1.57,5.73H81l-1.21-4.36c-.1-.36-.16-.59-.18-.67-.06.26-.12.49-.17.67l-1.21,4.36Z"/><path d="M84,134.21v-5.73h4.14v.68H84.78v1.75h3.17v.67H84.78v1.95H88.3v.68Z"/><path d="M89.35,134.21v-5.73h2.54a3.39,3.39,0,0,1,1.16.15,1.27,1.27,0,0,1,.64.54,1.62,1.62,0,0,1,.24.86,1.44,1.44,0,0,1-.39,1,2,2,0,0,1-1.22.53,2,2,0,0,1,.46.29,3.94,3.94,0,0,1,.63.76l1,1.56h-1L92.69,133q-.33-.52-.55-.79a1.73,1.73,0,0,0-.38-.38,1.12,1.12,0,0,0-.35-.15,2.25,2.25,0,0,0-.42,0h-.88v2.54Zm.76-3.2h1.63a2.45,2.45,0,0,0,.81-.11.86.86,0,0,0,.45-.34.93.93,0,0,0,.15-.51.86.86,0,0,0-.29-.67,1.38,1.38,0,0,0-.93-.26H90.11Z"/><line x1="297.03" y1="31.84" x2="163.53" y2="31.84" style="fill:none;stroke:#000"/><line x1="222.96" y1="31.41" x2="222.96" y2="44.69" style="fill:none;stroke:#000"/><path d="M224,47.05A43.09,43.09,0,0,1,225.47,43h-5a39.86,39.86,0,0,1,1.49,4.05,29.55,29.55,0,0,1,1,4.41A29.56,29.56,0,0,1,224,47.05Z"/><line x1="86.01" y1="31.84" x2="117.92" y2="31.84" style="fill:none;stroke:#000"/><line x1="117.92" y1="31.84" x2="137.92" y2="49.19" style="fill:none;stroke:#000"/><path d="M140.38,50c-.92-1.46-1.43-2.51-2.09-3.78L135,50a39.66,39.66,0,0,1,4,1.53,29.64,29.64,0,0,1,4,2.11A29.63,29.63,0,0,1,140.38,50Z"/><path d="M4.53,44.32V40h.84l1.76,2.87V40h.81v4.29H7.07l-1.73-2.8v2.8Z"/><path d="M8.68,42.2a2.73,2.73,0,0,1,.2-1.1,2,2,0,0,1,.4-.59,1.67,1.67,0,0,1,.56-.39,2.36,2.36,0,0,1,.93-.17,2,2,0,0,1,1.52.59,2.63,2.63,0,0,1,0,3.27,2,2,0,0,1-1.51.59,2,2,0,0,1-1.52-.58A2.22,2.22,0,0,1,8.68,42.2Zm.89,0a1.61,1.61,0,0,0,.34,1.11,1.16,1.16,0,0,0,1.71,0A1.64,1.64,0,0,0,12,42.16a1.61,1.61,0,0,0-.32-1.1,1.2,1.2,0,0,0-1.72,0A1.62,1.62,0,0,0,9.57,42.17Z"/><path d="M14.49,44.32V40.75H13.22V40h3.41v.73H15.36v3.57Z"/><path d="M17.19,44.32V40h3.18v.73H18.06v1h2.16v.72H18.06V43.6h2.4v.72Z"/><path d="M21.34,42v-.82h.82V42Zm0,2.29V43.5h.82v.82Z"/><path d="M27.7,40h.57v2.48a2.94,2.94,0,0,1-.15,1,1.25,1.25,0,0,1-.53.62,1.87,1.87,0,0,1-1,.24,2.06,2.06,0,0,1-1-.21,1.19,1.19,0,0,1-.55-.6,2.87,2.87,0,0,1-.16-1.08V40h.57V42.5a2.42,2.42,0,0,0,.1.82.79.79,0,0,0,.36.41,1.24,1.24,0,0,0,.62.14,1.18,1.18,0,0,0,.89-.28,1.64,1.64,0,0,0,.27-1.09Z"/><path d="M29,42.94l.54,0a1.18,1.18,0,0,0,.18.53,1,1,0,0,0,.43.33,1.64,1.64,0,0,0,.66.13,1.58,1.58,0,0,0,.57-.1.8.8,0,0,0,.37-.27.61.61,0,0,0,.12-.37.56.56,0,0,0-.12-.35.87.87,0,0,0-.39-.25,7.56,7.56,0,0,0-.76-.21,3.91,3.91,0,0,1-.83-.27,1.16,1.16,0,0,1-.46-.4,1,1,0,0,1-.15-.53,1.09,1.09,0,0,1,.18-.61,1.14,1.14,0,0,1,.54-.43A2,2,0,0,1,30.7,40a2.15,2.15,0,0,1,.84.15,1.21,1.21,0,0,1,.56.45,1.3,1.3,0,0,1,.21.68l-.54,0a.88.88,0,0,0-.3-.62,1.16,1.16,0,0,0-.75-.21,1.2,1.2,0,0,0-.75.19.57.57,0,0,0-.24.46.49.49,0,0,0,.17.38,2.26,2.26,0,0,0,.86.31,5.67,5.67,0,0,1,1,.27,1.3,1.3,0,0,1,.55.44,1.07,1.07,0,0,1,.18.61,1.17,1.17,0,0,1-.2.65,1.29,1.29,0,0,1-.56.47,2,2,0,0,1-.83.17,2.47,2.47,0,0,1-1-.17,1.37,1.37,0,0,1-.62-.51A1.45,1.45,0,0,1,29,42.94Z"/><path d="M33.23,44.32V40h3.11v.51H33.8v1.32h2.38v.5H33.8v1.46h2.64v.51Z"/><path d="M38.69,42.94l.54,0a1.18,1.18,0,0,0,.18.53,1,1,0,0,0,.43.33,1.64,1.64,0,0,0,.66.13,1.58,1.58,0,0,0,.57-.1.8.8,0,0,0,.37-.27.61.61,0,0,0,.12-.37.56.56,0,0,0-.12-.35.87.87,0,0,0-.39-.25,7.56,7.56,0,0,0-.76-.21,3.91,3.91,0,0,1-.83-.27,1.16,1.16,0,0,1-.46-.4,1,1,0,0,1-.15-.53,1.09,1.09,0,0,1,.18-.61,1.14,1.14,0,0,1,.54-.43,2,2,0,0,1,.79-.15,2.15,2.15,0,0,1,.84.15,1.21,1.21,0,0,1,.56.45,1.3,1.3,0,0,1,.21.68l-.54,0a.88.88,0,0,0-.3-.62,1.16,1.16,0,0,0-.75-.21,1.2,1.2,0,0,0-.75.19.57.57,0,0,0-.24.46.49.49,0,0,0,.17.38,2.26,2.26,0,0,0,.86.31,5.67,5.67,0,0,1,1,.27,1.3,1.3,0,0,1,.55.44,1.07,1.07,0,0,1,.18.61,1.17,1.17,0,0,1-.2.65,1.29,1.29,0,0,1-.56.47,2,2,0,0,1-.83.17,2.47,2.47,0,0,1-1-.17,1.37,1.37,0,0,1-.62-.51A1.45,1.45,0,0,1,38.69,42.94Z"/><path d="M42.9,44.32V40H46v.51H43.47v1.32h2.38v.5H43.47v1.46h2.64v.51Z"/><path d="M46.89,44.32V40h1.62a3.91,3.91,0,0,1,.65,0,1.29,1.29,0,0,1,.53.2,1.05,1.05,0,0,1,.34.41,1.4,1.4,0,0,1-.22,1.51,1.67,1.67,0,0,1-1.26.38h-1.1v1.75Zm.57-2.25h1.11a1.18,1.18,0,0,0,.78-.21.73.73,0,0,0,.23-.58.78.78,0,0,0-.14-.46.64.64,0,0,0-.36-.25,2.43,2.43,0,0,0-.53,0h-1.1Z"/><path d="M50,44.32,51.62,40h.61L54,44.32h-.65l-.5-1.3h-1.8l-.47,1.3Zm1.24-1.76h1.46l-.45-1.19q-.21-.54-.3-.89a5.48,5.48,0,0,1-.23.82Z"/><path d="M54.46,44.32V40h1.9a2.53,2.53,0,0,1,.87.12,1,1,0,0,1,.48.41,1.22,1.22,0,0,1,.18.65,1.08,1.08,0,0,1-.3.77,1.5,1.5,0,0,1-.91.4,1.47,1.47,0,0,1,.34.21,3,3,0,0,1,.47.57l.75,1.17h-.71L57,43.43q-.25-.39-.41-.59a1.29,1.29,0,0,0-.29-.29.85.85,0,0,0-.26-.11l-.32,0H55v1.91Zm.57-2.4h1.22a1.83,1.83,0,0,0,.61-.08.65.65,0,0,0,.33-.26.7.7,0,0,0,.11-.39.64.64,0,0,0-.22-.5,1,1,0,0,0-.7-.2H55Z"/><path d="M58.31,44.32,60,40h.61l1.76,4.29h-.65l-.5-1.3h-1.8l-.47,1.3Zm1.24-1.76H61l-.45-1.19q-.21-.54-.3-.89a5.48,5.48,0,0,1-.23.82Z"/><path d="M63.43,44.32V40.53H62V40h3.4v.51H64v3.79Z"/><path d="M66,44.32V40h3.11v.51H66.58v1.32H69v.5H66.58v1.46h2.64v.51Z"/><path d="M73.44,44.32h-.53V41a2.73,2.73,0,0,1-.5.36,3.54,3.54,0,0,1-.56.27v-.51a3.18,3.18,0,0,0,.77-.5,2,2,0,0,0,.47-.57h.34Z"/><path d="M77.57,43.81v.51H74.73a.93.93,0,0,1,.06-.37,1.94,1.94,0,0,1,.35-.57,5.44,5.44,0,0,1,.69-.65,5.85,5.85,0,0,0,.95-.91,1.09,1.09,0,0,0,.25-.63.7.7,0,0,0-.22-.53.81.81,0,0,0-.58-.22.82.82,0,0,0-.61.23.86.86,0,0,0-.23.63l-.54-.06a1.33,1.33,0,0,1,.42-.92,1.43,1.43,0,0,1,1-.32,1.36,1.36,0,0,1,1,.34,1.13,1.13,0,0,1,.36.85,1.29,1.29,0,0,1-.11.51,2,2,0,0,1-.35.52,8.53,8.53,0,0,1-.81.76q-.47.4-.61.54a1.73,1.73,0,0,0-.22.29Z"/><path d="M78.13,42.2A3.93,3.93,0,0,1,78.29,41a1.53,1.53,0,0,1,.47-.72,1.19,1.19,0,0,1,.78-.25,1.27,1.27,0,0,1,.61.14,1.16,1.16,0,0,1,.43.4,2.15,2.15,0,0,1,.27.64,4.24,4.24,0,0,1,.1,1,3.94,3.94,0,0,1-.16,1.22,1.53,1.53,0,0,1-.46.72,1.19,1.19,0,0,1-.78.25,1.18,1.18,0,0,1-1-.45A2.83,2.83,0,0,1,78.13,42.2Zm.54,0a2.69,2.69,0,0,0,.25,1.41.71.71,0,0,0,1.22,0,2.69,2.69,0,0,0,.25-1.41,2.69,2.69,0,0,0-.25-1.41.73.73,0,0,0-.62-.35.68.68,0,0,0-.58.31A2.72,2.72,0,0,0,78.67,42.2Z"/><path d="M84.58,44.32,82.91,40h.62l1.12,3.12q.13.38.23.7.1-.35.23-.7L86.26,40h.58l-1.68,4.29Z"/><path d="M86.44,44.32,88.08,40h.61l1.76,4.29h-.65l-.5-1.3h-1.8L87,44.32Zm1.24-1.76h1.46l-.45-1.19q-.21-.54-.3-.89a5.48,5.48,0,0,1-.23.82Z"/><path d="M94,42.81l.57.14A1.91,1.91,0,0,1,93.9,44a1.77,1.77,0,0,1-1.14.37,2,2,0,0,1-1.13-.28,1.77,1.77,0,0,1-.66-.82,2.92,2.92,0,0,1-.23-1.15A2.53,2.53,0,0,1,91,41a1.76,1.76,0,0,1,.73-.76,2.13,2.13,0,0,1,1-.26,1.76,1.76,0,0,1,1.08.33,1.7,1.7,0,0,1,.61.92l-.56.13a1.33,1.33,0,0,0-.43-.68,1.16,1.16,0,0,0-.71-.21,1.39,1.39,0,0,0-.83.24,1.25,1.25,0,0,0-.47.64,2.57,2.57,0,0,0-.13.82,2.62,2.62,0,0,0,.16,1,1.19,1.19,0,0,0,.5.61,1.39,1.39,0,0,0,.73.2,1.22,1.22,0,0,0,.81-.28A1.41,1.41,0,0,0,94,42.81Z"/><path d="M96.91,44.32V40h1.62a3.91,3.91,0,0,1,.65,0,1.29,1.29,0,0,1,.53.2,1.05,1.05,0,0,1,.34.41,1.4,1.4,0,0,1-.22,1.51,1.67,1.67,0,0,1-1.26.38h-1.1v1.75Zm.57-2.25h1.11a1.18,1.18,0,0,0,.78-.21.73.73,0,0,0,.23-.58.78.78,0,0,0-.14-.46.64.64,0,0,0-.36-.25,2.43,2.43,0,0,0-.53,0h-1.1Z"/><path d="M100.74,42.23a2.33,2.33,0,0,1,.57-1.67,2,2,0,0,1,1.48-.6,2.06,2.06,0,0,1,1.07.28,1.86,1.86,0,0,1,.73.79,2.57,2.57,0,0,1,.25,1.15,2.53,2.53,0,0,1-.26,1.17,1.8,1.8,0,0,1-.75.78,2.13,2.13,0,0,1-1,.27,2,2,0,0,1-1.08-.29,1.89,1.89,0,0,1-.72-.8A2.42,2.42,0,0,1,100.74,42.23Zm.59,0a1.72,1.72,0,0,0,.42,1.22,1.46,1.46,0,0,0,2.1,0,1.82,1.82,0,0,0,.41-1.28,2.2,2.2,0,0,0-.18-.92,1.36,1.36,0,0,0-.52-.61,1.41,1.41,0,0,0-.77-.22,1.45,1.45,0,0,0-1,.41A1.85,1.85,0,0,0,101.32,42.24Z"/><path d="M106.33,44.32,105.19,40h.58l.65,2.82q.11.44.18.88l.19-.79.82-2.9h.69l.62,2.17a11.52,11.52,0,0,1,.33,1.52q.08-.41.21-.93l.67-2.76h.57l-1.18,4.29H109L108.08,41q-.11-.41-.13-.5-.07.3-.13.5l-.91,3.27Z"/><path d="M111.25,44.32V40h3.11v.51h-2.54v1.32h2.38v.5h-2.38v1.46h2.64v.51Z"/><path d="M115.25,44.32V40h1.9a2.53,2.53,0,0,1,.87.12,1,1,0,0,1,.48.41,1.22,1.22,0,0,1,.18.65,1.08,1.08,0,0,1-.3.77,1.5,1.5,0,0,1-.91.4,1.47,1.47,0,0,1,.34.21,3,3,0,0,1,.47.57l.75,1.17h-.71l-.57-.89q-.25-.39-.41-.59a1.29,1.29,0,0,0-.29-.29.85.85,0,0,0-.26-.11l-.32,0h-.66v1.91Zm.57-2.4H117a1.83,1.83,0,0,0,.61-.08.65.65,0,0,0,.33-.26.7.7,0,0,0,.11-.39.64.64,0,0,0-.22-.5,1,1,0,0,0-.7-.2h-1.36Z"/><path d="M4.36,50.14l.54,0a1.18,1.18,0,0,0,.18.53A1,1,0,0,0,5.5,51a1.64,1.64,0,0,0,.66.13,1.58,1.58,0,0,0,.57-.1.8.8,0,0,0,.37-.27.61.61,0,0,0,.12-.37A.56.56,0,0,0,7.11,50a.87.87,0,0,0-.39-.25A7.56,7.56,0,0,0,6,49.54a3.91,3.91,0,0,1-.83-.27,1.16,1.16,0,0,1-.46-.4,1,1,0,0,1-.15-.53,1.09,1.09,0,0,1,.18-.61,1.14,1.14,0,0,1,.54-.43A2,2,0,0,1,6,47.15a2.15,2.15,0,0,1,.84.15,1.21,1.21,0,0,1,.56.45,1.3,1.3,0,0,1,.21.68l-.54,0a.88.88,0,0,0-.3-.62,1.16,1.16,0,0,0-.75-.21,1.2,1.2,0,0,0-.75.19.57.57,0,0,0-.24.46.49.49,0,0,0,.17.38,2.26,2.26,0,0,0,.86.31,5.67,5.67,0,0,1,1,.27,1.3,1.3,0,0,1,.55.44,1.07,1.07,0,0,1,.18.61,1.17,1.17,0,0,1-.2.65,1.29,1.29,0,0,1-.56.47,2,2,0,0,1-.83.17,2.47,2.47,0,0,1-1-.17,1.37,1.37,0,0,1-.62-.51A1.45,1.45,0,0,1,4.36,50.14Z"/><path d="M11.37,47.22h.57v2.48a2.94,2.94,0,0,1-.15,1,1.25,1.25,0,0,1-.53.62,1.87,1.87,0,0,1-1,.24,2.06,2.06,0,0,1-1-.21,1.19,1.19,0,0,1-.55-.6,2.87,2.87,0,0,1-.16-1.08V47.22h.57V49.7a2.42,2.42,0,0,0,.1.82.79.79,0,0,0,.36.41,1.24,1.24,0,0,0,.62.14,1.18,1.18,0,0,0,.89-.28,1.64,1.64,0,0,0,.27-1.09Z"/><path d="M12.89,51.52V47.22h1.62a3.91,3.91,0,0,1,.65,0,1.29,1.29,0,0,1,.53.2,1.05,1.05,0,0,1,.34.41,1.4,1.4,0,0,1-.22,1.51,1.67,1.67,0,0,1-1.26.38h-1.1v1.75Zm.57-2.25h1.11a1.18,1.18,0,0,0,.78-.21.73.73,0,0,0,.23-.58.78.78,0,0,0-.14-.46.64.64,0,0,0-.36-.25,2.43,2.43,0,0,0-.53,0h-1.1Z"/><path d="M16.89,51.52V47.22h1.62a3.91,3.91,0,0,1,.65,0,1.29,1.29,0,0,1,.53.2,1.05,1.05,0,0,1,.34.41,1.4,1.4,0,0,1-.22,1.51,1.67,1.67,0,0,1-1.26.38h-1.1v1.75Zm.57-2.25h1.11a1.18,1.18,0,0,0,.78-.21.73.73,0,0,0,.23-.58.78.78,0,0,0-.14-.46.64.64,0,0,0-.36-.25,2.43,2.43,0,0,0-.53,0h-1.1Z"/><path d="M20.87,51.52V47.22h.57V51h2.12v.51Z"/><path d="M25,51.52V49.7l-1.66-2.48H24l.85,1.29q.23.36.44.73.19-.34.47-.76l.83-1.26h.66L25.56,49.7v1.82Z"/><path d="M29.37,51.52V47.22h2.9v.51H29.94v1.33h2v.51h-2v2Z"/><path d="M32.83,49.43a2.33,2.33,0,0,1,.57-1.67,2,2,0,0,1,1.48-.6,2.06,2.06,0,0,1,1.07.28,1.86,1.86,0,0,1,.73.79,2.57,2.57,0,0,1,.25,1.15,2.53,2.53,0,0,1-.26,1.17,1.8,1.8,0,0,1-.75.78,2.13,2.13,0,0,1-1,.27,2,2,0,0,1-1.08-.29,1.89,1.89,0,0,1-.72-.8A2.42,2.42,0,0,1,32.83,49.43Zm.59,0a1.72,1.72,0,0,0,.42,1.22,1.46,1.46,0,0,0,2.1,0,1.82,1.82,0,0,0,.41-1.28,2.2,2.2,0,0,0-.18-.92,1.36,1.36,0,0,0-.52-.61,1.41,1.41,0,0,0-.77-.22,1.45,1.45,0,0,0-1,.41A1.85,1.85,0,0,0,33.42,49.44Z"/><path d="M37.68,51.52V47.22h1.9a2.53,2.53,0,0,1,.87.12,1,1,0,0,1,.48.41,1.22,1.22,0,0,1,.18.65,1.08,1.08,0,0,1-.3.77,1.5,1.5,0,0,1-.91.4,1.47,1.47,0,0,1,.34.21,3,3,0,0,1,.47.57l.75,1.17h-.71l-.57-.89q-.25-.39-.41-.59a1.29,1.29,0,0,0-.29-.29.85.85,0,0,0-.26-.11l-.32,0h-.66v1.91Zm.57-2.4h1.22a1.83,1.83,0,0,0,.61-.08.65.65,0,0,0,.33-.26.7.7,0,0,0,.11-.39.64.64,0,0,0-.22-.5,1,1,0,0,0-.7-.2H38.25Z"/><path d="M43.67,51.52V47.22h1.62a3.91,3.91,0,0,1,.65,0,1.29,1.29,0,0,1,.53.2,1.05,1.05,0,0,1,.34.41,1.4,1.4,0,0,1-.22,1.51,1.67,1.67,0,0,1-1.26.38h-1.1v1.75Zm.57-2.25h1.11a1.18,1.18,0,0,0,.78-.21.73.73,0,0,0,.23-.58.78.78,0,0,0-.14-.46.64.64,0,0,0-.36-.25,2.43,2.43,0,0,0-.53,0h-1.1Z"/><path d="M50.49,47.22h.57v2.48a2.94,2.94,0,0,1-.15,1,1.25,1.25,0,0,1-.53.62,1.87,1.87,0,0,1-1,.24,2.06,2.06,0,0,1-1-.21,1.19,1.19,0,0,1-.55-.6,2.87,2.87,0,0,1-.16-1.08V47.22h.57V49.7a2.42,2.42,0,0,0,.1.82.79.79,0,0,0,.36.41,1.24,1.24,0,0,0,.62.14,1.18,1.18,0,0,0,.89-.28,1.64,1.64,0,0,0,.27-1.09Z"/><path d="M52,51.52V47.22h.86l1,3,.21.64.23-.69,1-3h.76v4.29h-.55V47.92l-1.25,3.59h-.51l-1.24-3.66v3.66Z"/><path d="M57,51.52V47.22h1.62a3.91,3.91,0,0,1,.65,0,1.29,1.29,0,0,1,.53.2,1.05,1.05,0,0,1,.34.41,1.4,1.4,0,0,1-.22,1.51,1.67,1.67,0,0,1-1.26.38h-1.1v1.75Zm.57-2.25h1.11a1.18,1.18,0,0,0,.78-.21.73.73,0,0,0,.23-.58.78.78,0,0,0-.14-.46.64.64,0,0,0-.36-.25,2.43,2.43,0,0,0-.53,0h-1.1Z"/><path d="M65.63,50l.57.14a1.91,1.91,0,0,1-.64,1.07,1.77,1.77,0,0,1-1.14.37,2,2,0,0,1-1.13-.28,1.77,1.77,0,0,1-.66-.82,2.92,2.92,0,0,1-.23-1.15,2.53,2.53,0,0,1,.26-1.17,1.76,1.76,0,0,1,.73-.76,2.13,2.13,0,0,1,1-.26,1.76,1.76,0,0,1,1.08.33,1.7,1.7,0,0,1,.61.92l-.56.13a1.33,1.33,0,0,0-.43-.68,1.16,1.16,0,0,0-.71-.21,1.39,1.39,0,0,0-.83.24,1.25,1.25,0,0,0-.47.64,2.57,2.57,0,0,0-.13.82,2.62,2.62,0,0,0,.16,1,1.19,1.19,0,0,0,.5.61,1.39,1.39,0,0,0,.73.2,1.22,1.22,0,0,0,.81-.28A1.41,1.41,0,0,0,65.63,50Z"/><path d="M67,51.52V47.22h.57v4.29Z"/><path d="M68.58,51.52V47.22h1.9a2.53,2.53,0,0,1,.87.12,1,1,0,0,1,.48.41,1.22,1.22,0,0,1,.18.65,1.08,1.08,0,0,1-.3.77,1.5,1.5,0,0,1-.91.4,1.47,1.47,0,0,1,.34.21,3,3,0,0,1,.47.57l.75,1.17h-.71l-.57-.89q-.25-.39-.41-.59a1.29,1.29,0,0,0-.29-.29.85.85,0,0,0-.26-.11l-.32,0h-.66v1.91Zm.57-2.4h1.22A1.83,1.83,0,0,0,71,49a.65.65,0,0,0,.33-.26.7.7,0,0,0,.11-.39.64.64,0,0,0-.22-.5,1,1,0,0,0-.7-.2H69.14Z"/><path d="M76,50l.57.14a1.91,1.91,0,0,1-.64,1.07,1.77,1.77,0,0,1-1.14.37,2,2,0,0,1-1.13-.28,1.77,1.77,0,0,1-.66-.82,2.92,2.92,0,0,1-.23-1.15A2.53,2.53,0,0,1,73,48.17a1.76,1.76,0,0,1,.73-.76,2.13,2.13,0,0,1,1-.26,1.76,1.76,0,0,1,1.08.33,1.7,1.7,0,0,1,.61.92l-.56.13a1.33,1.33,0,0,0-.43-.68,1.16,1.16,0,0,0-.71-.21,1.39,1.39,0,0,0-.83.24,1.25,1.25,0,0,0-.47.64,2.57,2.57,0,0,0-.13.82,2.62,2.62,0,0,0,.16,1,1.19,1.19,0,0,0,.5.61,1.39,1.39,0,0,0,.73.2,1.22,1.22,0,0,0,.81-.28A1.41,1.41,0,0,0,76,50Z"/><path d="M80.05,47.22h.57v2.48a2.94,2.94,0,0,1-.15,1,1.25,1.25,0,0,1-.53.62,1.87,1.87,0,0,1-1,.24,2.06,2.06,0,0,1-1-.21,1.19,1.19,0,0,1-.55-.6,2.87,2.87,0,0,1-.16-1.08V47.22h.57V49.7a2.42,2.42,0,0,0,.1.82.79.79,0,0,0,.36.41,1.24,1.24,0,0,0,.62.14,1.18,1.18,0,0,0,.89-.28,1.64,1.64,0,0,0,.27-1.09Z"/><path d="M81.66,51.52V47.22h.57v4.29Z"/><path d="M84.33,51.52V47.73H82.91v-.51h3.4v.51H84.89v3.79Z"/><path d="M86.31,51.52v-.6h.6v.6Z"/><path d="M89.57,51.52V47.22H91a3.59,3.59,0,0,1,.76.06,1.45,1.45,0,0,1,.63.31,1.75,1.75,0,0,1,.51.73,2.88,2.88,0,0,1,.17,1,3,3,0,0,1-.11.87,2.1,2.1,0,0,1-.29.63,1.56,1.56,0,0,1-.39.39,1.59,1.59,0,0,1-.51.22,2.93,2.93,0,0,1-.69.07Zm.57-.51h.92a2.23,2.23,0,0,0,.67-.08,1,1,0,0,0,.39-.22,1.35,1.35,0,0,0,.31-.54,2.66,2.66,0,0,0,.11-.83,2,2,0,0,0-.22-1,1.11,1.11,0,0,0-.54-.48,2.22,2.22,0,0,0-.74-.09h-.9Z"/><path d="M93.73,49.43a2.33,2.33,0,0,1,.57-1.67,2,2,0,0,1,1.48-.6,2.06,2.06,0,0,1,1.07.28,1.86,1.86,0,0,1,.73.79,2.57,2.57,0,0,1,.25,1.15,2.53,2.53,0,0,1-.26,1.17,1.8,1.8,0,0,1-.75.78,2.13,2.13,0,0,1-1,.27,2,2,0,0,1-1.08-.29,1.89,1.89,0,0,1-.72-.8A2.42,2.42,0,0,1,93.73,49.43Zm.59,0a1.72,1.72,0,0,0,.42,1.22,1.46,1.46,0,0,0,2.1,0,1.82,1.82,0,0,0,.41-1.28,2.2,2.2,0,0,0-.18-.92,1.36,1.36,0,0,0-.52-.61,1.41,1.41,0,0,0-.77-.22,1.45,1.45,0,0,0-1,.41A1.85,1.85,0,0,0,94.31,49.44Z"/><path d="M100.23,51.52V47.22h.58l2.26,3.37V47.22h.54v4.29H103l-2.26-3.37v3.38Z"/><path d="M104.39,49.43a2.33,2.33,0,0,1,.57-1.67,2,2,0,0,1,1.48-.6,2.06,2.06,0,0,1,1.07.28,1.86,1.86,0,0,1,.73.79,2.57,2.57,0,0,1,.25,1.15,2.53,2.53,0,0,1-.26,1.17,1.8,1.8,0,0,1-.75.78,2.13,2.13,0,0,1-1,.27,2,2,0,0,1-1.08-.29,1.89,1.89,0,0,1-.72-.8A2.42,2.42,0,0,1,104.39,49.43Zm.59,0a1.72,1.72,0,0,0,.42,1.22,1.46,1.46,0,0,0,2.1,0,1.82,1.82,0,0,0,.41-1.28,2.2,2.2,0,0,0-.18-.92,1.36,1.36,0,0,0-.52-.61,1.41,1.41,0,0,0-.77-.22,1.45,1.45,0,0,0-1,.41A1.85,1.85,0,0,0,105,49.44Z"/><path d="M110.33,51.52V47.73h-1.42v-.51h3.4v.51H110.9v3.79Z"/><path d="M4.36,57.34l.54,0a1.18,1.18,0,0,0,.18.53,1,1,0,0,0,.43.33,1.64,1.64,0,0,0,.66.13,1.58,1.58,0,0,0,.57-.1.8.8,0,0,0,.37-.27.61.61,0,0,0,.12-.37.56.56,0,0,0-.12-.35.87.87,0,0,0-.39-.25A7.56,7.56,0,0,0,6,56.74a3.91,3.91,0,0,1-.83-.27,1.16,1.16,0,0,1-.46-.4,1,1,0,0,1-.15-.53,1.09,1.09,0,0,1,.18-.61,1.14,1.14,0,0,1,.54-.43A2,2,0,0,1,6,54.35a2.15,2.15,0,0,1,.84.15,1.21,1.21,0,0,1,.56.45,1.3,1.3,0,0,1,.21.68l-.54,0a.88.88,0,0,0-.3-.62,1.16,1.16,0,0,0-.75-.21A1.2,1.2,0,0,0,5.3,55a.57.57,0,0,0-.24.46.49.49,0,0,0,.17.38,2.26,2.26,0,0,0,.86.31,5.67,5.67,0,0,1,1,.27,1.3,1.3,0,0,1,.55.44,1.07,1.07,0,0,1,.18.61,1.17,1.17,0,0,1-.2.65,1.29,1.29,0,0,1-.56.47,2,2,0,0,1-.83.17,2.47,2.47,0,0,1-1-.17,1.37,1.37,0,0,1-.62-.51A1.45,1.45,0,0,1,4.36,57.34Z"/><path d="M8.57,58.72V54.42h.57v1.76h2.23V54.42h.57v4.29h-.57v-2H9.14v2Z"/><path d="M12.41,58.72l1.65-4.29h.61l1.76,4.29h-.65l-.5-1.3h-1.8L13,58.72ZM13.65,57h1.46l-.45-1.19q-.21-.54-.3-.89a5.48,5.48,0,0,1-.23.82Z"/><path d="M16.9,58.72V54.42h1.9a2.53,2.53,0,0,1,.87.12,1,1,0,0,1,.48.41,1.22,1.22,0,0,1,.18.65,1.08,1.08,0,0,1-.3.77,1.5,1.5,0,0,1-.91.4,1.47,1.47,0,0,1,.34.21,3,3,0,0,1,.47.57l.75,1.17H20l-.57-.89q-.25-.39-.41-.59a1.29,1.29,0,0,0-.29-.29.85.85,0,0,0-.26-.11l-.32,0h-.66v1.91Zm.57-2.4h1.22a1.83,1.83,0,0,0,.61-.08.65.65,0,0,0,.33-.26.7.7,0,0,0,.11-.39.64.64,0,0,0-.22-.5,1,1,0,0,0-.7-.2H17.46Z"/><path d="M21.23,58.72V54.42h3.11v.51H21.8v1.32h2.38v.5H21.8v1.46h2.64v.51Z"/><path d="M26.89,58.72V54.42h1.62a3.91,3.91,0,0,1,.65,0,1.29,1.29,0,0,1,.53.2,1.05,1.05,0,0,1,.34.41,1.4,1.4,0,0,1-.22,1.51,1.67,1.67,0,0,1-1.26.38h-1.1v1.75Zm.57-2.25h1.11a1.18,1.18,0,0,0,.78-.21.73.73,0,0,0,.23-.58.78.78,0,0,0-.14-.46.64.64,0,0,0-.36-.25,2.43,2.43,0,0,0-.53,0h-1.1Z"/><path d="M30.72,56.63A2.33,2.33,0,0,1,31.29,55a2,2,0,0,1,1.48-.6,2.06,2.06,0,0,1,1.07.28,1.86,1.86,0,0,1,.73.79,2.57,2.57,0,0,1,.25,1.15,2.53,2.53,0,0,1-.26,1.17,1.8,1.8,0,0,1-.75.78,2.13,2.13,0,0,1-1,.27,2,2,0,0,1-1.08-.29,1.89,1.89,0,0,1-.72-.8A2.42,2.42,0,0,1,30.72,56.63Zm.59,0a1.72,1.72,0,0,0,.42,1.22,1.46,1.46,0,0,0,2.1,0,1.82,1.82,0,0,0,.41-1.28,2.2,2.2,0,0,0-.18-.92,1.36,1.36,0,0,0-.52-.61,1.41,1.41,0,0,0-.77-.22,1.45,1.45,0,0,0-1,.41A1.85,1.85,0,0,0,31.3,56.64Z"/><path d="M36.31,58.72l-1.14-4.29h.58l.65,2.82q.11.44.18.88l.19-.79.82-2.9h.69l.62,2.17a11.52,11.52,0,0,1,.33,1.52q.08-.41.21-.93l.67-2.76h.57l-1.18,4.29H39l-.91-3.27q-.11-.41-.13-.5-.07.3-.13.5l-.91,3.27Z"/><path d="M41.23,58.72V54.42h3.11v.51H41.8v1.32h2.38v.5H41.8v1.46h2.64v.51Z"/><path d="M45.23,58.72V54.42h1.9a2.53,2.53,0,0,1,.87.12,1,1,0,0,1,.48.41,1.22,1.22,0,0,1,.18.65,1.08,1.08,0,0,1-.3.77,1.5,1.5,0,0,1-.91.4,1.47,1.47,0,0,1,.34.21,3,3,0,0,1,.47.57L49,58.72H48.3l-.57-.89q-.25-.39-.41-.59a1.29,1.29,0,0,0-.29-.29.85.85,0,0,0-.26-.11l-.32,0H45.8v1.91Zm.57-2.4H47a1.83,1.83,0,0,0,.61-.08A.65.65,0,0,0,48,56a.7.7,0,0,0,.11-.39.64.64,0,0,0-.22-.5,1,1,0,0,0-.7-.2H45.8Z"/><path d="M52,58.72l-1.14-4.29h.58l.65,2.82q.11.44.18.88l.19-.79.82-2.9h.69l.62,2.17a11.52,11.52,0,0,1,.33,1.52q.08-.41.21-.93l.67-2.76h.57l-1.18,4.29h-.55l-.91-3.27q-.11-.41-.13-.5-.07.3-.13.5l-.91,3.27Z"/><path d="M57,58.72V54.42h.57v4.29Z"/><path d="M59.65,58.72V54.93H58.23v-.51h3.4v.51H60.21v3.79Z"/><path d="M62.24,58.72V54.42h.57v1.76H65V54.42h.57v4.29H65v-2H62.8v2Z"/><path d="M69,58.72l-1.14-4.29h.58l.65,2.82q.11.44.18.88l.19-.79.82-2.9h.69l.62,2.17a11.52,11.52,0,0,1,.33,1.52q.08-.41.21-.93l.67-2.76h.57l-1.18,4.29h-.55l-.91-3.27q-.11-.41-.13-.5-.07.3-.13.5l-.91,3.27Z"/><path d="M73.19,58.72l1.65-4.29h.61l1.76,4.29h-.65l-.5-1.3h-1.8l-.47,1.3ZM74.43,57h1.46l-.45-1.19q-.21-.54-.3-.89a5.48,5.48,0,0,1-.23.82Z"/><path d="M78.31,58.72V54.93H76.89v-.51h3.4v.51H78.88v3.79Z"/><path d="M80.89,58.72V54.42H84v.51H81.46v1.32h2.38v.5H81.46v1.46H84.1v.51Z"/><path d="M84.89,58.72V54.42h1.9a2.53,2.53,0,0,1,.87.12,1,1,0,0,1,.48.41,1.22,1.22,0,0,1,.18.65,1.08,1.08,0,0,1-.3.77,1.5,1.5,0,0,1-.91.4,1.47,1.47,0,0,1,.34.21,3,3,0,0,1,.47.57l.75,1.17H88l-.57-.89q-.25-.39-.41-.59a1.29,1.29,0,0,0-.29-.29.85.85,0,0,0-.26-.11l-.32,0h-.66v1.91Zm.57-2.4h1.22a1.83,1.83,0,0,0,.61-.08.65.65,0,0,0,.33-.26.7.7,0,0,0,.11-.39.64.64,0,0,0-.22-.5,1,1,0,0,0-.7-.2H85.46Z"/><path d="M90.9,58.72V54.42h.57v1.76H93.7V54.42h.57v4.29H93.7v-2H91.47v2Z"/><path d="M95.23,58.72V54.42h3.11v.51H95.8v1.32h2.38v.5H95.8v1.46h2.64v.51Z"/><path d="M98.75,58.72l1.65-4.29H101l1.76,4.29h-.65l-.5-1.3h-1.8l-.47,1.3ZM100,57h1.46L101,55.77q-.21-.54-.3-.89a5.48,5.48,0,0,1-.23.82Z"/><path d="M103.87,58.72V54.93h-1.42v-.51h3.4v.51h-1.42v3.79Z"/><path d="M106.45,58.72V54.42h3.11v.51H107v1.32h2.38v.5H107v1.46h2.64v.51Z"/><path d="M110.45,58.72V54.42h1.9a2.53,2.53,0,0,1,.87.12,1,1,0,0,1,.48.41,1.22,1.22,0,0,1,.18.65,1.08,1.08,0,0,1-.3.77,1.5,1.5,0,0,1-.91.4A1.47,1.47,0,0,1,113,57a3,3,0,0,1,.47.57l.75,1.17h-.71l-.57-.89q-.25-.39-.41-.59a1.29,1.29,0,0,0-.29-.29.85.85,0,0,0-.26-.11l-.32,0H111v1.91Zm.57-2.4h1.22a1.83,1.83,0,0,0,.61-.08.65.65,0,0,0,.33-.26.7.7,0,0,0,.11-.39.64.64,0,0,0-.22-.5,1,1,0,0,0-.7-.2H111Z"/><path d="M115.64,58.72l1.65-4.29h.61l1.76,4.29H119l-.5-1.3h-1.8l-.47,1.3ZM116.88,57h1.46l-.45-1.19q-.21-.54-.3-.89a5.48,5.48,0,0,1-.23.82Z"/><path d="M119.92,57.34l.54,0a1.18,1.18,0,0,0,.18.53,1,1,0,0,0,.43.33,1.64,1.64,0,0,0,.66.13,1.58,1.58,0,0,0,.57-.1.8.8,0,0,0,.37-.27.61.61,0,0,0,.12-.37.56.56,0,0,0-.12-.35.87.87,0,0,0-.39-.25,7.56,7.56,0,0,0-.76-.21,3.91,3.91,0,0,1-.83-.27,1.16,1.16,0,0,1-.46-.4,1,1,0,0,1-.15-.53,1.09,1.09,0,0,1,.18-.61,1.14,1.14,0,0,1,.54-.43,2,2,0,0,1,.79-.15,2.15,2.15,0,0,1,.84.15A1.21,1.21,0,0,1,123,55a1.3,1.3,0,0,1,.21.68l-.54,0a.88.88,0,0,0-.3-.62,1.16,1.16,0,0,0-.75-.21,1.2,1.2,0,0,0-.75.19.57.57,0,0,0-.24.46.49.49,0,0,0,.17.38,2.26,2.26,0,0,0,.86.31,5.67,5.67,0,0,1,1,.27,1.3,1.3,0,0,1,.55.44,1.07,1.07,0,0,1,.18.61,1.17,1.17,0,0,1-.2.65,1.29,1.29,0,0,1-.56.47,2,2,0,0,1-.83.17,2.47,2.47,0,0,1-1-.17,1.37,1.37,0,0,1-.62-.51A1.45,1.45,0,0,1,119.92,57.34Z"/><path d="M5.64,65.92V62.13H4.23v-.51h3.4v.51H6.21v3.79Z"/><path d="M8.23,65.92V61.62H8.8v1.76H11V61.62h.57v4.29H11v-2H8.8v2Z"/><path d="M12.65,65.92V61.62h.57v4.29Z"/><path d="M14,64.54l.54,0a1.18,1.18,0,0,0,.18.53,1,1,0,0,0,.43.33,1.64,1.64,0,0,0,.66.13,1.58,1.58,0,0,0,.57-.1.8.8,0,0,0,.37-.27.61.61,0,0,0,.12-.37.56.56,0,0,0-.12-.35.87.87,0,0,0-.39-.25,7.56,7.56,0,0,0-.76-.21,3.91,3.91,0,0,1-.83-.27,1.16,1.16,0,0,1-.46-.4,1,1,0,0,1-.15-.53,1.09,1.09,0,0,1,.18-.61,1.14,1.14,0,0,1,.54-.43,2,2,0,0,1,.79-.15,2.15,2.15,0,0,1,.84.15,1.21,1.21,0,0,1,.56.45,1.3,1.3,0,0,1,.21.68l-.54,0a.88.88,0,0,0-.3-.62,1.16,1.16,0,0,0-.75-.21,1.2,1.2,0,0,0-.75.19.57.57,0,0,0-.24.46.49.49,0,0,0,.17.38,2.26,2.26,0,0,0,.86.31,5.67,5.67,0,0,1,1,.27,1.3,1.3,0,0,1,.55.44,1.07,1.07,0,0,1,.18.61,1.17,1.17,0,0,1-.2.65,1.29,1.29,0,0,1-.56.47,2,2,0,0,1-.83.17,2.47,2.47,0,0,1-1-.17,1.37,1.37,0,0,1-.62-.51A1.45,1.45,0,0,1,14,64.54Z"/><path d="M19.87,65.92V61.62h.86l1,3,.21.64.23-.69,1-3H24v4.29h-.55V62.32l-1.25,3.59h-.51l-1.24-3.66v3.66Z"/><path d="M24.41,65.92l1.65-4.29h.61l1.76,4.29h-.65l-.5-1.3h-1.8L25,65.92Zm1.24-1.76h1.46L26.66,63q-.21-.54-.3-.89a5.48,5.48,0,0,1-.23.82Z"/><path d="M29.65,65.92V64.1L28,61.62h.69l.85,1.29q.23.36.44.73.19-.34.47-.76l.83-1.26h.66L30.22,64.1v1.82Z"/><path d="M37.06,64.41l.57.14A1.91,1.91,0,0,1,37,65.62a1.77,1.77,0,0,1-1.14.37,2,2,0,0,1-1.13-.28,1.77,1.77,0,0,1-.66-.82,2.92,2.92,0,0,1-.23-1.15,2.53,2.53,0,0,1,.26-1.17,1.76,1.76,0,0,1,.73-.76,2.13,2.13,0,0,1,1-.26,1.76,1.76,0,0,1,1.08.33,1.7,1.7,0,0,1,.61.92l-.56.13a1.33,1.33,0,0,0-.43-.68,1.16,1.16,0,0,0-.71-.21,1.39,1.39,0,0,0-.83.24,1.25,1.25,0,0,0-.47.64,2.57,2.57,0,0,0-.13.82,2.62,2.62,0,0,0,.16,1,1.19,1.19,0,0,0,.5.61,1.39,1.39,0,0,0,.73.2,1.22,1.22,0,0,0,.81-.28A1.41,1.41,0,0,0,37.06,64.41Z"/><path d="M37.86,65.92l1.65-4.29h.61l1.76,4.29h-.65l-.5-1.3h-1.8l-.47,1.3Zm1.24-1.76h1.46L40.11,63q-.21-.54-.3-.89a5.48,5.48,0,0,1-.23.82Z"/><path d="M45.15,61.62h.57v2.48a2.94,2.94,0,0,1-.15,1,1.25,1.25,0,0,1-.53.62A1.87,1.87,0,0,1,44,66a2.06,2.06,0,0,1-1-.21,1.19,1.19,0,0,1-.55-.6,2.87,2.87,0,0,1-.16-1.08V61.62h.57V64.1a2.42,2.42,0,0,0,.1.82.79.79,0,0,0,.36.41,1.24,1.24,0,0,0,.62.14,1.18,1.18,0,0,0,.89-.28,1.64,1.64,0,0,0,.27-1.09Z"/><path d="M46.47,64.54l.54,0a1.18,1.18,0,0,0,.18.53,1,1,0,0,0,.43.33,1.64,1.64,0,0,0,.66.13,1.58,1.58,0,0,0,.57-.1.8.8,0,0,0,.37-.27.61.61,0,0,0,.12-.37.56.56,0,0,0-.12-.35.87.87,0,0,0-.39-.25,7.56,7.56,0,0,0-.76-.21,3.91,3.91,0,0,1-.83-.27,1.16,1.16,0,0,1-.46-.4,1,1,0,0,1-.15-.53,1.09,1.09,0,0,1,.18-.61,1.14,1.14,0,0,1,.54-.43,2,2,0,0,1,.79-.15,2.15,2.15,0,0,1,.84.15,1.21,1.21,0,0,1,.56.45,1.3,1.3,0,0,1,.21.68l-.54,0a.88.88,0,0,0-.3-.62,1.16,1.16,0,0,0-.75-.21,1.2,1.2,0,0,0-.75.19.57.57,0,0,0-.24.46.49.49,0,0,0,.17.38,2.26,2.26,0,0,0,.86.31,5.67,5.67,0,0,1,1,.27,1.3,1.3,0,0,1,.55.44,1.07,1.07,0,0,1,.18.61,1.17,1.17,0,0,1-.2.65,1.29,1.29,0,0,1-.56.47,2,2,0,0,1-.83.17,2.47,2.47,0,0,1-1-.17,1.37,1.37,0,0,1-.62-.51A1.45,1.45,0,0,1,46.47,64.54Z"/><path d="M50.68,65.92V61.62h3.11v.51H51.25v1.32h2.38V64H51.25v1.46h2.64v.51Z"/><path d="M56.35,65.92V61.62h3.11v.51H56.92v1.32h2.38V64H56.92v1.46h2.64v.51Z"/><path d="M60.32,65.92V61.62h.57v3.79H63v.51Z"/><path d="M63.69,65.92V61.62h3.11v.51H64.26v1.32h2.38V64H64.26v1.46h2.64v.51Z"/><path d="M70.74,64.41l.57.14a1.91,1.91,0,0,1-.64,1.07,1.77,1.77,0,0,1-1.14.37,2,2,0,0,1-1.13-.28,1.77,1.77,0,0,1-.66-.82,2.92,2.92,0,0,1-.23-1.15,2.53,2.53,0,0,1,.26-1.17,1.76,1.76,0,0,1,.73-.76,2.13,2.13,0,0,1,1-.26,1.76,1.76,0,0,1,1.08.33,1.7,1.7,0,0,1,.61.92l-.56.13a1.33,1.33,0,0,0-.43-.68,1.16,1.16,0,0,0-.71-.21,1.39,1.39,0,0,0-.83.24,1.25,1.25,0,0,0-.47.64,2.57,2.57,0,0,0-.13.82,2.62,2.62,0,0,0,.16,1,1.19,1.19,0,0,0,.5.61,1.39,1.39,0,0,0,.73.2,1.22,1.22,0,0,0,.81-.28A1.41,1.41,0,0,0,70.74,64.41Z"/><path d="M73.11,65.92V62.13H71.69v-.51h3.4v.51H73.67v3.79Z"/><path d="M75.69,65.92V61.62h1.9a2.53,2.53,0,0,1,.87.12,1,1,0,0,1,.48.41,1.22,1.22,0,0,1,.18.65,1.08,1.08,0,0,1-.3.77,1.5,1.5,0,0,1-.91.4,1.47,1.47,0,0,1,.34.21,3,3,0,0,1,.47.57l.75,1.17h-.71L78.19,65q-.25-.39-.41-.59a1.29,1.29,0,0,0-.29-.29.85.85,0,0,0-.26-.11l-.32,0h-.66v1.91Zm.57-2.4h1.22a1.83,1.83,0,0,0,.61-.08.65.65,0,0,0,.33-.26.7.7,0,0,0,.11-.39.64.64,0,0,0-.22-.5,1,1,0,0,0-.7-.2H76.25Z"/><path d="M80.11,65.92V61.62h.57v4.29Z"/><path d="M84.74,64.41l.57.14a1.91,1.91,0,0,1-.64,1.07,1.77,1.77,0,0,1-1.14.37,2,2,0,0,1-1.13-.28,1.77,1.77,0,0,1-.66-.82,2.92,2.92,0,0,1-.23-1.15,2.53,2.53,0,0,1,.26-1.17,1.76,1.76,0,0,1,.73-.76,2.13,2.13,0,0,1,1-.26,1.76,1.76,0,0,1,1.08.33,1.7,1.7,0,0,1,.61.92l-.56.13a1.33,1.33,0,0,0-.43-.68,1.16,1.16,0,0,0-.71-.21,1.39,1.39,0,0,0-.83.24,1.25,1.25,0,0,0-.47.64,2.57,2.57,0,0,0-.13.82,2.62,2.62,0,0,0,.16,1,1.19,1.19,0,0,0,.5.61,1.39,1.39,0,0,0,.73.2,1.22,1.22,0,0,0,.81-.28A1.41,1.41,0,0,0,84.74,64.41Z"/><path d="M85.54,65.92l1.65-4.29h.61l1.76,4.29h-.65l-.5-1.3h-1.8l-.47,1.3Zm1.24-1.76h1.46L87.79,63q-.21-.54-.3-.89a5.48,5.48,0,0,1-.23.82Z"/><path d="M90,65.92V61.62h.57v3.79h2.12v.51Z"/><path d="M94.77,65.92V61.62h.57v3.79h2.12v.51Z"/><path d="M98.23,65.92V61.62h.57v4.29Z"/><path d="M99.79,65.92V61.62h.58L102.63,65V61.62h.54v4.29h-.58l-2.26-3.38v3.38Z"/><path d="M104.14,65.92V61.62h3.11v.51h-2.54v1.32h2.38V64h-2.38v1.46h2.64v.51Z"/><path d="M4.54,73.12V68.82h.58L7.38,72.2V68.82h.54v4.29H7.35L5.09,69.74v3.38Z"/><path d="M8.71,71a2.33,2.33,0,0,1,.57-1.67,2,2,0,0,1,1.48-.6,2.06,2.06,0,0,1,1.07.28,1.86,1.86,0,0,1,.73.79A2.57,2.57,0,0,1,12.82,71a2.53,2.53,0,0,1-.26,1.17,1.8,1.8,0,0,1-.75.78,2.13,2.13,0,0,1-1,.27,2,2,0,0,1-1.08-.29A1.89,1.89,0,0,1,9,72.1,2.42,2.42,0,0,1,8.71,71Zm.59,0a1.72,1.72,0,0,0,.42,1.22,1.46,1.46,0,0,0,2.1,0A1.82,1.82,0,0,0,12.23,71a2.2,2.2,0,0,0-.18-.92,1.36,1.36,0,0,0-.52-.61,1.41,1.41,0,0,0-.77-.22,1.45,1.45,0,0,0-1,.41A1.85,1.85,0,0,0,9.3,71Z"/><path d="M13.65,73.12V68.82h.57v4.29Z"/><path d="M15,71.74l.54,0a1.18,1.18,0,0,0,.18.53,1,1,0,0,0,.43.33,1.64,1.64,0,0,0,.66.13,1.58,1.58,0,0,0,.57-.1.8.8,0,0,0,.37-.27A.61.61,0,0,0,17.9,72a.56.56,0,0,0-.12-.35.87.87,0,0,0-.39-.25,7.56,7.56,0,0,0-.76-.21,3.91,3.91,0,0,1-.83-.27,1.16,1.16,0,0,1-.46-.4,1,1,0,0,1-.15-.53,1.09,1.09,0,0,1,.18-.61,1.14,1.14,0,0,1,.54-.43,2,2,0,0,1,.79-.15,2.15,2.15,0,0,1,.84.15,1.21,1.21,0,0,1,.56.45,1.3,1.3,0,0,1,.21.68l-.54,0a.88.88,0,0,0-.3-.62,1.16,1.16,0,0,0-.75-.21,1.2,1.2,0,0,0-.75.19.57.57,0,0,0-.24.46.49.49,0,0,0,.17.38,2.26,2.26,0,0,0,.86.31,5.67,5.67,0,0,1,1,.27,1.3,1.3,0,0,1,.55.44,1.07,1.07,0,0,1,.18.61,1.17,1.17,0,0,1-.2.65,1.29,1.29,0,0,1-.56.47,2,2,0,0,1-.83.17,2.47,2.47,0,0,1-1-.17,1.37,1.37,0,0,1-.62-.51A1.45,1.45,0,0,1,15,71.74Z"/><path d="M19.23,73.12V68.82h3.11v.51H19.8v1.32h2.38v.5H19.8v1.46h2.64v.51Z"/><path d="M24.09,73.12l1.65-4.29h.61l1.76,4.29h-.65l-.5-1.3h-1.8l-.47,1.3Zm1.24-1.76h1.46l-.45-1.19q-.21-.54-.3-.89a5.48,5.48,0,0,1-.23.82Z"/><path d="M28.55,73.12V68.82h.58l2.26,3.37V68.82h.54v4.29h-.58L29.1,69.74v3.38Z"/><path d="M32.89,73.12V68.82h1.48a3.59,3.59,0,0,1,.76.06,1.45,1.45,0,0,1,.63.31,1.75,1.75,0,0,1,.51.73,2.88,2.88,0,0,1,.17,1,3,3,0,0,1-.11.87,2.1,2.1,0,0,1-.29.63,1.56,1.56,0,0,1-.39.39,1.59,1.59,0,0,1-.51.22,2.93,2.93,0,0,1-.69.07Zm.57-.51h.92a2.23,2.23,0,0,0,.67-.08,1,1,0,0,0,.39-.22,1.35,1.35,0,0,0,.31-.54,2.66,2.66,0,0,0,.11-.83,2,2,0,0,0-.22-1,1.11,1.11,0,0,0-.54-.48,2.22,2.22,0,0,0-.74-.09h-.9Z"/><path d="M38.87,73.12V68.82h.57v3.79h2.12v.51Z"/><path d="M42.24,73.12V68.82h3.11v.51H42.81v1.32h2.38v.5H42.81v1.46h2.64v.51Z"/><path d="M45.76,73.12l1.65-4.29H48l1.76,4.29h-.65l-.5-1.3h-1.8l-.47,1.3ZM47,71.36h1.46L48,70.17q-.21-.54-.3-.89a5.48,5.48,0,0,1-.23.82Z"/><path d="M50.23,73.12V68.82h1.48a3.59,3.59,0,0,1,.76.06,1.45,1.45,0,0,1,.63.31,1.75,1.75,0,0,1,.51.73,2.88,2.88,0,0,1,.17,1,3,3,0,0,1-.11.87,2.1,2.1,0,0,1-.29.63,1.56,1.56,0,0,1-.39.39,1.59,1.59,0,0,1-.51.22,2.93,2.93,0,0,1-.69.07Zm.57-.51h.92a2.23,2.23,0,0,0,.67-.08,1,1,0,0,0,.39-.22,1.35,1.35,0,0,0,.31-.54,2.66,2.66,0,0,0,.11-.83,2,2,0,0,0-.22-1,1.11,1.11,0,0,0-.54-.48,2.22,2.22,0,0,0-.74-.09h-.9Z"/><path d="M57.22,73.12V69.33H55.8v-.51h3.4v.51H57.79v3.79Z"/><path d="M59.51,71a2.33,2.33,0,0,1,.57-1.67,2,2,0,0,1,1.48-.6,2.06,2.06,0,0,1,1.07.28,1.86,1.86,0,0,1,.73.79A2.57,2.57,0,0,1,63.62,71a2.53,2.53,0,0,1-.26,1.17,1.8,1.8,0,0,1-.75.78,2.13,2.13,0,0,1-1,.27,2,2,0,0,1-1.08-.29,1.89,1.89,0,0,1-.72-.8A2.42,2.42,0,0,1,59.51,71Zm.59,0a1.72,1.72,0,0,0,.42,1.22,1.46,1.46,0,0,0,2.1,0A1.82,1.82,0,0,0,63,71a2.2,2.2,0,0,0-.18-.92,1.36,1.36,0,0,0-.52-.61,1.41,1.41,0,0,0-.77-.22,1.45,1.45,0,0,0-1,.41A1.85,1.85,0,0,0,60.09,71Z"/><path d="M66,73.12V68.82h3.11v.51H66.6v1.32H69v.5H66.6v1.46h2.64v.51Z"/><path d="M70,73.12V68.82h1.9a2.53,2.53,0,0,1,.87.12,1,1,0,0,1,.48.41,1.22,1.22,0,0,1,.18.65,1.08,1.08,0,0,1-.3.77,1.5,1.5,0,0,1-.91.4,1.47,1.47,0,0,1,.34.21,3,3,0,0,1,.47.57l.75,1.17H73.1l-.57-.89q-.25-.39-.41-.59a1.29,1.29,0,0,0-.29-.29.85.85,0,0,0-.26-.11l-.32,0h-.66v1.91Zm.57-2.4h1.22a1.83,1.83,0,0,0,.61-.08.65.65,0,0,0,.33-.26.7.7,0,0,0,.11-.39.64.64,0,0,0-.22-.5,1,1,0,0,0-.7-.2H70.59Z"/><path d="M74.36,73.12V68.82h1.9a2.53,2.53,0,0,1,.87.12,1,1,0,0,1,.48.41,1.22,1.22,0,0,1,.18.65,1.08,1.08,0,0,1-.3.77,1.5,1.5,0,0,1-.91.4,1.47,1.47,0,0,1,.34.21,3,3,0,0,1,.47.57l.75,1.17h-.71l-.57-.89q-.25-.39-.41-.59a1.29,1.29,0,0,0-.29-.29.85.85,0,0,0-.26-.11l-.32,0h-.66v1.91Zm.57-2.4h1.22a1.83,1.83,0,0,0,.61-.08.65.65,0,0,0,.33-.26.7.7,0,0,0,.11-.39.64.64,0,0,0-.22-.5,1,1,0,0,0-.7-.2H74.93Z"/><path d="M78.21,73.12l1.65-4.29h.61l1.76,4.29h-.65l-.5-1.3h-1.8l-.47,1.3Zm1.24-1.76h1.46l-.45-1.19q-.21-.54-.3-.89a5.48,5.48,0,0,1-.23.82Z"/><path d="M83.33,73.12V69.33H81.92v-.51h3.4v.51H83.9v3.79Z"/><path d="M86,73.12V68.82h.57v4.29Z"/><path d="M90.64,71.61l.57.14a1.91,1.91,0,0,1-.64,1.07,1.77,1.77,0,0,1-1.14.37,2,2,0,0,1-1.13-.28,1.77,1.77,0,0,1-.66-.82,2.92,2.92,0,0,1-.23-1.15,2.53,2.53,0,0,1,.26-1.17,1.76,1.76,0,0,1,.73-.76,2.13,2.13,0,0,1,1-.26,1.76,1.76,0,0,1,1.08.33,1.7,1.7,0,0,1,.61.92l-.56.13a1.33,1.33,0,0,0-.43-.68,1.16,1.16,0,0,0-.71-.21,1.39,1.39,0,0,0-.83.24,1.25,1.25,0,0,0-.47.64,2.57,2.57,0,0,0-.13.82,2.62,2.62,0,0,0,.16,1,1.19,1.19,0,0,0,.5.61,1.39,1.39,0,0,0,.73.2,1.22,1.22,0,0,0,.81-.28A1.41,1.41,0,0,0,90.64,71.61Z"/><path d="M96.64,71.61l.57.14a1.91,1.91,0,0,1-.64,1.07,1.77,1.77,0,0,1-1.14.37,2,2,0,0,1-1.13-.28,1.77,1.77,0,0,1-.66-.82,2.92,2.92,0,0,1-.23-1.15,2.53,2.53,0,0,1,.26-1.17,1.76,1.76,0,0,1,.73-.76,2.13,2.13,0,0,1,1-.26,1.76,1.76,0,0,1,1.08.33,1.7,1.7,0,0,1,.61.92l-.56.13a1.33,1.33,0,0,0-.43-.68,1.16,1.16,0,0,0-.71-.21,1.39,1.39,0,0,0-.83.24,1.25,1.25,0,0,0-.47.64,2.57,2.57,0,0,0-.13.82,2.62,2.62,0,0,0,.16,1,1.19,1.19,0,0,0,.5.61,1.39,1.39,0,0,0,.73.2,1.22,1.22,0,0,0,.81-.28A1.41,1.41,0,0,0,96.64,71.61Z"/><path d="M97.73,71a2.33,2.33,0,0,1,.57-1.67,2,2,0,0,1,1.48-.6,2.06,2.06,0,0,1,1.07.28,1.86,1.86,0,0,1,.73.79,2.57,2.57,0,0,1,.25,1.15,2.53,2.53,0,0,1-.26,1.17,1.8,1.8,0,0,1-.75.78,2.13,2.13,0,0,1-1,.27,2,2,0,0,1-1.08-.29,1.89,1.89,0,0,1-.72-.8A2.42,2.42,0,0,1,97.73,71Zm.59,0a1.72,1.72,0,0,0,.42,1.22,1.46,1.46,0,0,0,2.1,0,1.82,1.82,0,0,0,.41-1.28,2.2,2.2,0,0,0-.18-.92,1.36,1.36,0,0,0-.52-.61,1.41,1.41,0,0,0-.77-.22,1.45,1.45,0,0,0-1,.41A1.85,1.85,0,0,0,98.32,71Z"/><path d="M102.57,73.12V68.82h.58l2.26,3.37V68.82h.54v4.29h-.58l-2.26-3.37v3.38Z"/><path d="M108,73.12V69.33h-1.42v-.51H110v.51h-1.42v3.79Z"/><path d="M110.58,73.12V68.82h1.9a2.53,2.53,0,0,1,.87.12,1,1,0,0,1,.48.41A1.22,1.22,0,0,1,114,70a1.08,1.08,0,0,1-.3.77,1.5,1.5,0,0,1-.91.4,1.47,1.47,0,0,1,.34.21,3,3,0,0,1,.47.57l.75,1.17h-.71l-.57-.89q-.25-.39-.41-.59a1.29,1.29,0,0,0-.29-.29.85.85,0,0,0-.26-.11l-.32,0h-.66v1.91Zm.57-2.4h1.22a1.83,1.83,0,0,0,.61-.08.65.65,0,0,0,.33-.26.7.7,0,0,0,.11-.39.64.64,0,0,0-.22-.5,1,1,0,0,0-.7-.2h-1.36Z"/><path d="M114.73,71a2.33,2.33,0,0,1,.57-1.67,2,2,0,0,1,1.48-.6,2.06,2.06,0,0,1,1.07.28,1.86,1.86,0,0,1,.73.79,2.57,2.57,0,0,1,.25,1.15,2.53,2.53,0,0,1-.26,1.17,1.8,1.8,0,0,1-.75.78,2.13,2.13,0,0,1-1,.27,2,2,0,0,1-1.08-.29,1.89,1.89,0,0,1-.72-.8A2.42,2.42,0,0,1,114.73,71Zm.59,0a1.72,1.72,0,0,0,.42,1.22,1.46,1.46,0,0,0,2.1,0,1.82,1.82,0,0,0,.41-1.28,2.2,2.2,0,0,0-.18-.92,1.36,1.36,0,0,0-.52-.61,1.41,1.41,0,0,0-.77-.22,1.45,1.45,0,0,0-1,.41A1.85,1.85,0,0,0,115.32,71Z"/><path d="M119.55,73.12V68.82h.57v3.79h2.12v.51Z"/><path d="M4.36,78.94l.54,0a1.18,1.18,0,0,0,.18.53,1,1,0,0,0,.43.33,1.62,1.62,0,0,0,.66.13,1.58,1.58,0,0,0,.57-.1.79.79,0,0,0,.37-.27.61.61,0,0,0,.12-.37.56.56,0,0,0-.12-.35.88.88,0,0,0-.39-.25A7.79,7.79,0,0,0,6,78.34a3.86,3.86,0,0,1-.83-.27,1.16,1.16,0,0,1-.46-.4,1,1,0,0,1-.15-.53,1.09,1.09,0,0,1,.18-.61,1.14,1.14,0,0,1,.54-.43A2,2,0,0,1,6,76a2.15,2.15,0,0,1,.84.15,1.21,1.21,0,0,1,.56.45,1.3,1.3,0,0,1,.21.68l-.54,0a.88.88,0,0,0-.3-.62,1.16,1.16,0,0,0-.75-.21,1.2,1.2,0,0,0-.75.19.57.57,0,0,0-.24.46.49.49,0,0,0,.17.38,2.28,2.28,0,0,0,.86.31,5.59,5.59,0,0,1,1,.27,1.31,1.31,0,0,1,.55.44,1.07,1.07,0,0,1,.18.61,1.17,1.17,0,0,1-.2.65,1.29,1.29,0,0,1-.56.47,2,2,0,0,1-.83.17,2.47,2.47,0,0,1-1-.17,1.37,1.37,0,0,1-.62-.51A1.45,1.45,0,0,1,4.36,78.94Z"/><path d="M9.76,80.32V78.5L8.11,76H8.8l.85,1.29q.23.36.44.73.19-.34.47-.76L11.38,76H12L10.33,78.5v1.82Z"/><path d="M12.36,78.94l.54,0a1.18,1.18,0,0,0,.18.53,1,1,0,0,0,.43.33,1.62,1.62,0,0,0,.66.13,1.58,1.58,0,0,0,.57-.1.79.79,0,0,0,.37-.27.61.61,0,0,0,.12-.37.56.56,0,0,0-.12-.35.88.88,0,0,0-.39-.25,7.79,7.79,0,0,0-.76-.21,3.86,3.86,0,0,1-.83-.27,1.16,1.16,0,0,1-.46-.4,1,1,0,0,1-.15-.53,1.09,1.09,0,0,1,.18-.61,1.14,1.14,0,0,1,.54-.43A2,2,0,0,1,14,76a2.15,2.15,0,0,1,.84.15,1.21,1.21,0,0,1,.56.45,1.3,1.3,0,0,1,.21.68l-.54,0a.88.88,0,0,0-.3-.62,1.16,1.16,0,0,0-.75-.21,1.2,1.2,0,0,0-.75.19.57.57,0,0,0-.24.46.49.49,0,0,0,.17.38,2.28,2.28,0,0,0,.86.31,5.59,5.59,0,0,1,1,.27,1.31,1.31,0,0,1,.55.44,1.07,1.07,0,0,1,.18.61,1.17,1.17,0,0,1-.2.65,1.29,1.29,0,0,1-.56.47,2,2,0,0,1-.83.17,2.47,2.47,0,0,1-1-.17,1.37,1.37,0,0,1-.62-.51A1.45,1.45,0,0,1,12.36,78.94Z"/><path d="M17.65,80.32V76.53H16.23V76h3.4v.51H18.22v3.79Z"/><path d="M20.23,80.32V76h3.11v.51H20.8v1.32h2.38v.5H20.8v1.46h2.64v.51Z"/><path d="M24.21,80.32V76h.86l1,3,.21.64.23-.69,1-3h.76v4.29h-.55V76.72l-1.25,3.59H26l-1.24-3.66v3.66Z"/><path d="M30.72,78.23a2.33,2.33,0,0,1,.57-1.67,2,2,0,0,1,1.48-.6,2.06,2.06,0,0,1,1.07.28,1.86,1.86,0,0,1,.73.79,2.58,2.58,0,0,1,.25,1.15,2.53,2.53,0,0,1-.26,1.17,1.8,1.8,0,0,1-.75.78,2.13,2.13,0,0,1-1,.26,2,2,0,0,1-1.08-.29,1.89,1.89,0,0,1-.72-.8A2.42,2.42,0,0,1,30.72,78.23Zm.59,0a1.72,1.72,0,0,0,.42,1.22,1.46,1.46,0,0,0,2.1,0,1.82,1.82,0,0,0,.41-1.28,2.2,2.2,0,0,0-.18-.92,1.36,1.36,0,0,0-.52-.61,1.41,1.41,0,0,0-.77-.22,1.45,1.45,0,0,0-1,.41A1.85,1.85,0,0,0,31.3,78.24Z"/><path d="M35.56,80.32V76h1.62a3.91,3.91,0,0,1,.65,0,1.29,1.29,0,0,1,.53.2,1.05,1.05,0,0,1,.34.41,1.4,1.4,0,0,1-.22,1.51,1.67,1.67,0,0,1-1.26.38h-1.1v1.75Zm.57-2.25h1.11a1.18,1.18,0,0,0,.78-.21.73.73,0,0,0,.23-.58.78.78,0,0,0-.14-.46.64.64,0,0,0-.36-.25,2.43,2.43,0,0,0-.53,0h-1.1Z"/><path d="M39.57,80.32V76h3.11v.51H40.14v1.32h2.38v.5H40.14v1.46h2.64v.51Z"/><path d="M43.57,80.32V76h1.9a2.53,2.53,0,0,1,.87.12,1,1,0,0,1,.48.41,1.22,1.22,0,0,1,.18.65,1.08,1.08,0,0,1-.3.77,1.5,1.5,0,0,1-.91.4,1.47,1.47,0,0,1,.34.21,2.93,2.93,0,0,1,.47.57l.75,1.17h-.71l-.57-.89q-.25-.39-.41-.59a1.29,1.29,0,0,0-.29-.29.85.85,0,0,0-.26-.11l-.32,0h-.66v1.91Zm.57-2.4h1.22a1.81,1.81,0,0,0,.61-.08.64.64,0,0,0,.33-.26.69.69,0,0,0,.11-.38.64.64,0,0,0-.22-.5,1,1,0,0,0-.7-.2H44.14Z"/><path d="M47.42,80.32,49.07,76h.61l1.76,4.29h-.65l-.5-1.3H48.5L48,80.32Zm1.24-1.76h1.46l-.45-1.19q-.21-.54-.3-.89a5.48,5.48,0,0,1-.23.82Z"/><path d="M52.54,80.32V76.53H51.13V76h3.4v.51H53.11v3.79Z"/><path d="M55.21,80.32V76h.57v4.29Z"/><path d="M56.61,78.23a2.33,2.33,0,0,1,.57-1.67,2,2,0,0,1,1.48-.6,2.06,2.06,0,0,1,1.07.28,1.86,1.86,0,0,1,.73.79,2.58,2.58,0,0,1,.25,1.15,2.53,2.53,0,0,1-.26,1.17,1.8,1.8,0,0,1-.75.78,2.13,2.13,0,0,1-1,.26,2,2,0,0,1-1.08-.29,1.89,1.89,0,0,1-.72-.8A2.42,2.42,0,0,1,56.61,78.23Zm.59,0a1.72,1.72,0,0,0,.42,1.22,1.46,1.46,0,0,0,2.1,0,1.82,1.82,0,0,0,.41-1.28,2.2,2.2,0,0,0-.18-.92,1.36,1.36,0,0,0-.52-.61,1.41,1.41,0,0,0-.77-.22,1.45,1.45,0,0,0-1,.41A1.85,1.85,0,0,0,57.19,78.24Z"/><path d="M61.44,80.32V76H62l2.26,3.37V76h.54v4.29h-.58L62,76.94v3.37Z"/><path d="M65.86,80.32v-.6h.6v.6Z"/></svg>