<svg id="Layer_1" data-name="Layer 1" xmlns="http://www.w3.org/2000/svg" xmlns:xlink="http://www.w3.org/1999/xlink" viewBox="0 0 47.59 56.73"><defs><clipPath id="clip-path" transform="translate(-2.71 0)"><polygon points="0 55.87 39.51 60.2 43.91 21.33 4.41 17 0 55.87" style="fill:none"/></clipPath></defs><title>explosion_hazard_icon</title><g style="clip-path:url(#clip-path)"><polyline points="9.33 54.73 8.88 47.32 12.36 51.16 13.8 42.3 16.73 49.47 18.27 45.64 19.23 48.55 21.4 44.01 21.16 51.16 27.22 47.54 24.25 54.85 26.75 54.44 25.42 56.73 29.56 55.94 33.93 51.55 28.03 53.34 38.77 33.09 27 42.83 28.22 36.8 24.31 41.02 26.42 20.83 20 39.03 18.31 31.99 16.75 39.09 8.98 18.87 9.13 41.19 3.23 33.14 5.91 46.77 0 41.66 6.41 55.79 9.18 56"/></g><path d="M49.56,24.31c0,2.34-4.44,5.42-5.23,6.12-1.51,1.34-3.37,2.09-5,1s-5-4.07-5-4.07-1.28,2.27-2.54,2S28.47,24.65,25,20.06a13.36,13.36,0,0,1-2.5-6.26,12.78,12.78,0,0,1,1.34-6.08c1-1.81,3.8-5,5.85-5.89a10.16,10.16,0,0,1,6-1.23c2.79.07,3.71.51,6.28,2.3A58,58,0,0,1,48,7.75L49.35,9C50,9.63,49.53,20.44,49.56,24.31Z" transform="translate(-2.71 0)" style="stroke:#000;stroke-width:1.18355px"/><polyline points="25.1 24.66 26.48 20.7 25.86 25.96 25.08 24.71" style="fill:#fff"/><path d="M30.68,18c.59.65.75,1.45.35,1.8s-1.19.11-1.78-.53-.74-1.45-.34-1.8S30.1,17.34,30.68,18Z" transform="translate(-2.71 0)" style="fill:#fff"/></svg>