<svg id="Layer_1" data-name="Layer 1" xmlns="http://www.w3.org/2000/svg" viewBox="0 0 26.97 45.04"><title>fire_icon</title><path d="M2.62,27.51s0-1.42,0-1.46c.06-.74.36-2.79.4-3.34A22.42,22.42,0,0,0,3,17c0-.19.77.37,2,2.34.38.59.91,1.67,1.1,1.87s.43.13.46-.4c.08-1.56.36-2.75.52-4a29.8,29.8,0,0,0,.38-5.12c0-1.39-.1-1.62.52-1a6.91,6.91,0,0,1,1.72,2.49c.34.79.57,3.2.9.83a12.21,12.21,0,0,0,.27-2.32c0-.65.11-1.54.14-2.56.1-3.08.76-4.09.81-4.21.22-.44.4.79.6,1.56s.36.83,1.38,2.75c1.68,3.18,1.16,2.5,2,3.44,2.06,2.32,1.23,5.74,2,3.44.4-1.21.77-1.88.89-2.43.62-2.76.54-2.09,1.13-.72.45,1,1.72,3.32,1.6,5.38a9.71,9.71,0,0,0,.09,2.85c.47,3.61.53,2.81,1.19,1,1.58-4.39,1.26-3.18,1.51-2.64a12.72,12.72,0,0,1,1.32,3.68,12.11,12.11,0,0,1,0,5c-.6,3.89-1.74,4.43.17,3.38.81-.45,1.19-1.44,1.11-.81-.83,6.11-1.08,6.32-3.4,9-2.18,2.5-5,3.2-7.85,3.54A24,24,0,0,1,7.9,43a9.55,9.55,0,0,1-5.08-2.61C.59,38,.47,36.5.27,33.44c0-.13,0-1.12,0-1.25,0-.32,0,.27,0-1.37A67.54,67.54,0,0,0,.11,23.7c-.13-.57,1.29.94,2.5,3.77Z" transform="translate(0 0)" style="stroke:#000;stroke-width:0.202877px"/><rect x="3.52" y="43.98" width="18.57" height="0.96" style="stroke:#000;stroke-width:0.202877px"/><path d="M16.82,9.54a3.5,3.5,0,0,1,.37-1.22c.24-.31.09-.33,1.43-1.16a1.5,1.5,0,0,0,.68-.84c.07-.2.16-.39.21-.11a2.3,2.3,0,0,1-.06,1.1A1.6,1.6,0,0,1,19,8a8.08,8.08,0,0,1-1,.65,3.9,3.9,0,0,0-.89.73c-.15.18-.29.23-.29.11Z" transform="translate(0 0)" style="stroke:#000;stroke-width:0.09738000000000001px"/><path d="M11.69,20.83a3.47,3.47,0,0,1,.38-1.22c.24-.31.09-.33,1.43-1.16a1.51,1.51,0,0,0,.68-.84c.07-.2.16-.39.21-.11a2.29,2.29,0,0,1-.06,1.1,1.63,1.63,0,0,1-.45.74,8,8,0,0,1-1,.65,3.68,3.68,0,0,0-.89.73c-.15.18-.29.23-.29.11Z" transform="translate(0 0)" style="fill:#fff;stroke:#000;stroke-width:0.09738000000000001px"/><path d="M10.36,3.48A3.47,3.47,0,0,0,10,2.27c-.24-.31-.1-.33-1.45-1.14A1.49,1.49,0,0,1,7.83.3c-.08-.2-.17-.39-.21-.1a2.32,2.32,0,0,0,.08,1.1A1.63,1.63,0,0,0,8.16,2a7.64,7.64,0,0,0,1,.63,3.91,3.91,0,0,1,.9.72c.15.17.29.22.29.11Z" transform="translate(0 0)" style="stroke:#000;stroke-width:0.09738000000000001px"/><path d="M10.54,43.32a28.06,28.06,0,0,1-3.64-3.72A9.57,9.57,0,0,1,4.83,35.4c-.19-1.42-.3-1.68.47-.32,0,.08.37.73.56.72S6,34.87,6.12,34a21.92,21.92,0,0,0,.28-2.37c0-1.18,0-2.32,0-2.66s0-.59,0-.6a1.44,1.44,0,0,1,.66.82,9.27,9.27,0,0,1,.48,2.39,6.55,6.55,0,0,0,1,3.37,1.51,1.51,0,0,0,1.18.72c.18,0,.09-.44,0-.81a8,8,0,0,1-.17-1.75,8.6,8.6,0,0,1,.11-2.31,11.74,11.74,0,0,1,.41-1.6c.46-1.12.44-.29.46,0a7.25,7.25,0,0,0,.18,1,7.76,7.76,0,0,0,1.12,2.55c.67.91,1,1,1,1a2.59,2.59,0,0,0,.82-1.05,12.79,12.79,0,0,0,.93-3.14c.18-1,.14-4.4.22-5.54,0-.5,1.38,1.52,1.82,2.8A7.32,7.32,0,0,1,17,30.21c-.13.86-.23,1.18.14,1.28.08,0,.6-.24,1-1.07s.76-1.76.9-1.09a11.89,11.89,0,0,1,.4,2.67c0,.74-.67,2.37-.21,2.57.11,0,.28,0,.6-.33s.8-.8.61,0a21,21,0,0,1-1.75,3.57,24.65,24.65,0,0,1-3.42,3.81,20.61,20.61,0,0,1-2,1.81Z" transform="translate(0 0)" style="fill:#fff;stroke:#000;stroke-width:0.09738000000000001px"/></svg>