<svg id="text" xmlns="http://www.w3.org/2000/svg" viewBox="0 0 300.71 337.73"><title>flat_roof_vertical_terminations_plus_clearances</title><line x1="210.1" y1="30.9" x2="209.74" y2="30.54" style="fill:none;stroke:#000;stroke-linecap:round;stroke-linejoin:round"/><g id="SPLINE"><line x1="209.71" y1="2.26" x2="210.07" y2="1.89" style="fill:none;stroke:#000;stroke-linecap:round;stroke-linejoin:round"/></g><g id="SPLINE-2" data-name="SPLINE"><line x1="210.11" y1="1.87" x2="221.31" y2="1.86" style="fill:none;stroke:#000;stroke-linecap:round;stroke-linejoin:round"/></g><line x1="221.34" y1="30.91" x2="210.15" y2="30.92" style="fill:none;stroke:#000;stroke-linecap:round;stroke-linejoin:round"/><line x1="253.23" y1="44.92" x2="252.87" y2="45.29" style="fill:none;stroke:#000;stroke-linecap:round;stroke-linejoin:round"/><line x1="224.53" y1="45.32" x2="224.16" y2="44.96" style="fill:none;stroke:#000;stroke-linecap:round;stroke-linejoin:round"/><line x1="224.16" y1="44.96" x2="224.15" y2="33.75" style="fill:none;stroke:#000;stroke-linecap:round;stroke-linejoin:round"/><line x1="253.22" y1="33.71" x2="253.23" y2="44.92" style="fill:none;stroke:#000;stroke-linecap:round;stroke-linejoin:round"/><line x1="224.74" y1="33.73" x2="225.66" y2="32.81" style="fill:none;stroke:#000;stroke-linecap:round;stroke-linejoin:round"/><line x1="251.7" y1="32.77" x2="252.63" y2="33.7" style="fill:none;stroke:#000;stroke-linecap:round;stroke-linejoin:round"/><g id="SPLINE-3" data-name="SPLINE"><line x1="221.6" y1="2.91" x2="222.07" y2="3.38" style="fill:none;stroke:#000;stroke-linecap:round;stroke-linejoin:round"/></g><line x1="221.87" y1="29.62" x2="221.63" y2="29.86" style="fill:none;stroke:#000;stroke-linecap:round;stroke-linejoin:round"/><g id="SPLINE-4" data-name="SPLINE"><line x1="222.05" y1="3.37" x2="224.2" y2="3.36" style="fill:none;stroke:#000;stroke-linecap:round;stroke-linejoin:round"/></g><path d="M224.2,3.36l1,0h0c.47,0,.94,0,1.4.09h0q.7.06,1.4.16h0q.69.1,1.39.23h0c.46.09.92.19,1.37.3h0q.68.17,1.36.37h0q.67.2,1.34.44h0q.66.24,1.31.51h0q.65.27,1.28.57h0q.63.3,1.25.64h0q.62.33,1.22.7h0q.6.37,1.18.76h0c.39.26.77.54,1.14.82h0q.56.43,1.1.88h0q.54.45,1,.93h0q.52.48,1,1h0q.49.51.95,1h0q.46.53.9,1.08h0q.43.55.84,1.13h0q.4.57.78,1.17h0q.38.59.72,1.21h0q.35.61.66,1.24h0q.31.63.59,1.28h0c.19.43.36.87.53,1.3h0q.25.66.46,1.33h0c.14.45.27.9.39,1.35h0c.12.45.22.91.32,1.37h0c.1.46.18.92.25,1.38h0c.07.46.13.93.18,1.4h0c0,.47.09.93.11,1.4h0c0,.45,0,.91,0,1.36" style="fill:none;stroke:#000;stroke-linecap:round;stroke-linejoin:round"/><line x1="225.66" y1="32.81" x2="225.66" y2="30.85" style="fill:none;stroke:#000;stroke-linecap:round;stroke-linejoin:round"/><line x1="251.7" y1="30.82" x2="251.7" y2="32.77" style="fill:none;stroke:#000;stroke-linecap:round;stroke-linejoin:round"/><line x1="209.78" y1="29.48" x2="195.18" y2="29.49" style="fill:none;stroke:#000;stroke-linecap:round;stroke-linejoin:round"/><g id="SPLINE-5" data-name="SPLINE"><line x1="195.15" y1="3.34" x2="209.75" y2="3.32" style="fill:none;stroke:#000;stroke-linecap:round;stroke-linejoin:round"/></g><g id="SPLINE-6" data-name="SPLINE"><line x1="149.26" y1="20.19" x2="158.95" y2="10.46" style="fill:none;stroke:#000;stroke-linecap:round;stroke-linejoin:round"/></g><g id="SPLINE-7" data-name="SPLINE"><line x1="179.73" y1="32.35" x2="170.63" y2="41.48" style="fill:none;stroke:#000;stroke-linecap:round;stroke-linejoin:round"/></g><g id="SPLINE-8" data-name="SPLINE"><path d="M170.56,18.22l.52.51h0l.13.13" style="fill:none;stroke:#000;stroke-linecap:round;stroke-linejoin:round"/></g><g id="SPLINE-9" data-name="SPLINE"><path d="M159,10.46l.1-.11h0a1.59,1.59,0,0,1,.31-.23h0a2.39,2.39,0,0,1,.33-.16h0l.33-.1h0l.32,0h.3l.27,0h0l.23.05h0l.2.07h0l.17.07h0l.16.08h0l.16.1h0l.2.13h0l.31.22h0l.32.26h0l.34.28h0l.4.35h0l.43.38h0l.46.42h0l.5.45h0l.53.49h0l.56.52h0l.59.55h0l.61.58h0l.63.6h0l.65.63h0l.66.64h0l.68.66h0l.68.67h0l.17.17" style="fill:none;stroke:#000;stroke-linecap:round;stroke-linejoin:round"/></g><line x1="194.7" y1="32.33" x2="180.17" y2="32.34" style="fill:none;stroke:#000;stroke-linecap:round;stroke-linejoin:round"/><g id="SPLINE-10" data-name="SPLINE"><line x1="180.93" y1="0.51" x2="194.66" y2="0.5" style="fill:none;stroke:#000;stroke-linecap:round;stroke-linejoin:round"/></g><g id="SPLINE-11" data-name="SPLINE"><path d="M178.38,4.56l0-.34h0c0-.18,0-.35.05-.51h0l.06-.47h0c0-.16,0-.3.07-.44h0c0-.14.05-.28.09-.42h0c0-.09.05-.18.09-.28h0l.08-.2h0l.11-.21h0a2.22,2.22,0,0,1,.14-.22h0a2.35,2.35,0,0,1,.19-.23h0a2.25,2.25,0,0,1,.23-.22h0a2.3,2.3,0,0,1,.29-.2h0a2.2,2.2,0,0,1,.33-.16h0a2.63,2.63,0,0,1,.36-.1h0a1.46,1.46,0,0,1,.37,0h.05" style="fill:none;stroke:#000;stroke-linecap:round;stroke-linejoin:round"/></g><g id="SPLINE-12" data-name="SPLINE"><path d="M162.83,11.06l.87-.55h0q.79-.49,1.6-.94h0q.81-.45,1.64-.88h0q.83-.42,1.67-.82h0q.84-.39,1.7-.75h0q.86-.36,1.73-.68h0q.87-.33,1.75-.62h0q.88-.29,1.78-.55h0c.6-.17,1.2-.33,1.8-.48h0l1.24-.29" style="fill:none;stroke:#000;stroke-linecap:round;stroke-linejoin:round"/></g><g id="SPLINE-13" data-name="SPLINE"><path d="M178.61,4.5l.05,0h0" style="fill:none;stroke:#000;stroke-linecap:round;stroke-linejoin:round"/></g><g id="SPLINE-14" data-name="SPLINE"><path d="M180.16,32.34h-.05a1.42,1.42,0,0,1-.29,0" style="fill:none;stroke:#000;stroke-linecap:round;stroke-linejoin:round"/></g><g id="SPLINE-15" data-name="SPLINE"><path d="M179.83,32.32h-.06l0,0" style="fill:none;stroke:#000;stroke-linecap:round;stroke-linejoin:round"/></g><path d="M225.33,45.32c6.61-.08,19.77-.11,26.38,0" style="fill:none;stroke:#000;stroke-linecap:round;stroke-linejoin:round"/><path d="M251.71,45.28h.36" style="fill:none;stroke:#000;stroke-linecap:round;stroke-linejoin:round"/><polyline points="209.46 3.32 209.49 3.16 209.54 2.82 209.59 2.55 209.65 2.37 209.71 2.26 209.76 2.24 209.82 2.29 209.88 2.43 209.94 2.65 209.99 2.94 210.05 3.32 210.1 3.77 210.15 4.29 210.2 4.88 210.24 5.53 210.29 6.25 210.33 7.03 210.36 7.86 210.4 8.74 210.43 9.66 210.46 10.62 210.48 11.62 210.5 12.64 210.51 13.68 210.52 14.74 210.53 15.81 210.53 16.88 210.52 17.95 210.52 19.01 210.5 20.06 210.49 21.08 210.47 22.08 210.45 23.04 210.42 23.97 210.39 24.85 210.35 25.69 210.31 26.47 210.27 27.2 210.22 27.86 210.18 28.45 210.13 28.98 210.08 29.44 210.02 29.82 209.97 30.12 209.91 30.35 209.86 30.49 209.8 30.56 209.74 30.54 209.68 30.45 209.63 30.27 209.57 30.01 209.52 29.68 209.49 29.48" style="fill:none;stroke:#000;stroke-linecap:round;stroke-linejoin:round"/><polyline points="210.1 30.9 210.15 30.92 210.21 30.88 210.26 30.75 210.32 30.55 210.38 30.26 210.43 29.9 210.48 29.46 210.53 28.95 210.58 28.37 210.63 27.72 210.67 27.01 210.71 26.24 210.75 25.41 210.78 24.54 210.81 23.61 210.84 22.65 210.86 21.65 210.88 20.63 210.89 19.58 210.9 18.51 210.91 17.43 210.91 16.34 210.91 15.26 210.9 14.18 210.88 13.11 210.87 12.06 210.85 11.04 210.82 10.05 210.79 9.09 210.76 8.17 210.73 7.3 210.69 6.48 210.65 5.71 210.6 5.01 210.55 4.37 210.5 3.79 210.45 3.29 210.4 2.86 210.34 2.5 210.28 2.23 210.23 2.03 210.17 1.91 210.11 1.87 210.07 1.89" style="fill:none;stroke:#000;stroke-linecap:round;stroke-linejoin:round"/><polyline points="221.31 1.86 221.37 1.9 221.43 2.02 221.48 2.21 221.54 2.49 221.59 2.85 221.65 3.28 221.7 3.78 221.75 4.35 221.8 5 221.84 5.7 221.88 6.47 221.92 7.29 221.96 8.16 221.99 9.08 222.02 10.04 222.04 11.03 222.06 12.05 222.08 13.1 222.09 14.17 222.1 15.25 222.1 16.33 222.1 17.42 222.1 18.5 222.09 19.57 222.07 20.61 222.06 21.64 222.03 22.64 222.01 23.6 221.98 24.52 221.95 25.4 221.91 26.23 221.87 27 221.82 27.71 221.78 28.36 221.73 28.94 221.68 29.45 221.63 29.89 221.57 30.25 221.52 30.54 221.46 30.74 221.4 30.87 221.34 30.91 221.34 30.91" style="fill:none;stroke:#000;stroke-linecap:round;stroke-linejoin:round"/><polyline points="209.75 3.32 209.81 3.36 209.86 3.47 209.92 3.67 209.97 3.94 210.02 4.3 210.07 4.72 210.12 5.22 210.17 5.79 210.21 6.42 210.25 7.12 210.29 7.87 210.32 8.67 210.36 9.52 210.39 10.42 210.41 11.35 210.43 12.31 210.45 13.3 210.46 14.3 210.47 15.32 210.47 16.35 210.47 17.38 210.46 18.39 210.45 19.4 210.44 20.39 210.42 21.36 210.4 22.29 210.37 23.19 210.34 24.05 210.31 24.86 210.28 25.61 210.24 26.31 210.19 26.95 210.15 27.52 210.1 28.03 210.05 28.46 210 28.82 209.95 29.1 209.89 29.31 209.84 29.43 209.78 29.48 209.78 29.48" style="fill:none;stroke:#000;stroke-linecap:round;stroke-linejoin:round"/><polyline points="224.55 45.32 224.64 45.31 224.82 45.31 225.08 45.31 225.42 45.3 225.83 45.3 226.31 45.29 226.87 45.29 227.5 45.28 228.18 45.28 228.93 45.28 229.74 45.27 230.59 45.27 231.5 45.27 232.44 45.26 233.42 45.26 234.43 45.26 235.46 45.26 236.52 45.25 237.58 45.25 238.65 45.25 239.72 45.25 240.79 45.25 241.84 45.25 242.88 45.25 243.89 45.25 244.88 45.25 245.82 45.25 246.73 45.25 247.59 45.25 248.4 45.25 249.15 45.26 249.85 45.26 250.47 45.26 251.04 45.26 251.53 45.27 251.95 45.27 252.29 45.27 252.56 45.27 252.74 45.28 252.84 45.28 252.87 45.29 252.81 45.29 252.67 45.3 252.45 45.3 252.16 45.3 252.06 45.3" style="fill:none;stroke:#000;stroke-linecap:round;stroke-linejoin:round"/><polyline points="225.33 45.34 225.27 45.34 224.96 45.33 224.74 45.33 224.59 45.33 224.53 45.32 224.55 45.32" style="fill:none;stroke:#000;stroke-linecap:round;stroke-linejoin:round"/><line x1="224.18" y1="44.96" x2="224.16" y2="44.96" style="fill:none;stroke:#000;stroke-linecap:round;stroke-linejoin:round"/><path d="M224.18,45c7.28-.1,21.76-.11,29,0" style="fill:none;stroke:#000;stroke-linecap:round;stroke-linejoin:round"/><path d="M224.15,33.75c7.29-.1,21.78-.12,29.07,0" style="fill:none;stroke:#000;stroke-linecap:round;stroke-linejoin:round"/><path d="M225.66,32.81c6.53-.09,19.51-.11,26,0" style="fill:none;stroke:#000;stroke-linecap:round;stroke-linejoin:round"/><line x1="221.87" y1="29.62" x2="222.1" y2="29.38" style="fill:none;stroke:#000;stroke-linecap:round;stroke-linejoin:round"/><polyline points="222.1 29.38 222.16 29.28 222.21 29.1 222.26 28.84 222.32 28.5 222.37 28.08 222.41 27.59 222.46 27.03 222.5 26.41 222.54 25.72 222.58 24.97 222.62 24.17 222.65 23.32 222.67 22.43 222.69 21.5 222.71 20.54 222.73 19.55 222.74 18.54 222.75 17.52 222.75 16.49 222.74 15.46 222.74 14.44 222.72 13.43 222.71 12.43 222.69 11.46 222.66 10.53 222.64 9.63 222.61 8.77 222.57 7.96 222.53 7.2 222.49 6.5 222.45 5.86 222.4 5.29 222.35 4.78 222.3 4.35 222.25 4 222.2 3.72 222.14 3.52 222.09 3.4 222.07 3.38" style="fill:none;stroke:#000;stroke-linecap:round;stroke-linejoin:round"/><line x1="221.87" y1="29.62" x2="221.87" y2="29.62" style="fill:none;stroke:#000;stroke-linecap:round;stroke-linejoin:round"/><line x1="224.27" y1="29.38" x2="222.1" y2="29.38" style="fill:none;stroke:#000;stroke-linecap:round;stroke-linejoin:round"/><path d="M224.27,29.38a1.47,1.47,0,0,1,1.45,1.22" style="fill:none;stroke:#000;stroke-linecap:round;stroke-linejoin:round"/><line x1="225.64" y1="30.85" x2="225.68" y2="30.85" style="fill:none;stroke:#000;stroke-linecap:round;stroke-linejoin:round"/><line x1="225.68" y1="30.85" x2="225.72" y2="30.85" style="fill:none;stroke:#000;stroke-linecap:round;stroke-linejoin:round"/><line x1="225.72" y1="30.85" x2="225.72" y2="30.6" style="fill:none;stroke:#000;stroke-linecap:round;stroke-linejoin:round"/><g id="LWPOLYLINE"><polyline points="149.28 20.18 149.37 20.2 149.51 20.28 149.71 20.42 149.96 20.61 150.27 20.86 150.63 21.16 151.04 21.51 151.5 21.91 152 22.36 152.54 22.86 153.12 23.39 153.74 23.97 154.4 24.59 155.08 25.23 155.79 25.91 156.52 26.61 157.27 27.34 158.03 28.08 158.8 28.84 159.58 29.61 160.36 30.39 161.14 31.16 161.91 31.94 162.68 32.71 163.43 33.47 164.15 34.22 164.86 34.95 165.54 35.66 166.19 36.34 166.81 36.99 167.39 37.61 167.93 38.19 168.43 38.73 168.88 39.23 169.29 39.69 169.64 40.1 169.95 40.46 170.2 40.77 170.39 41.02 170.53 41.22 170.61 41.37 170.64 41.46 170.61 41.49 170.52 41.47 170.38 41.38 170.18 41.25 169.93 41.05 169.62 40.81 169.26 40.51 168.85 40.16 168.39 39.75 167.89 39.3 167.35 38.81 166.77 38.27 166.15 37.69 165.49 37.08 164.81 36.43 164.1 35.76 163.37 35.05 162.62 34.33 161.86 33.58 161.09 32.83 160.31 32.06 159.53 31.28 158.75 30.5 157.97 29.73 157.21 28.95 156.46 28.19 155.74 27.45 155.03 26.72 154.35 26.01 153.7 25.33 153.08 24.68 152.5 24.06 151.96 23.48 151.46 22.93 151.01 22.43 150.6 21.98 150.25 21.57 149.94 21.21 149.69 20.9 149.5 20.64 149.36 20.44 149.27 20.3 149.25 20.21 149.28 20.18" style="fill:none;stroke:#000;stroke-linecap:round;stroke-linejoin:round"/></g><g id="LWPOLYLINE-2" data-name="LWPOLYLINE"><polyline points="160.64 30.78 161.36 31.5 162.07 32.22 162.77 32.93 163.45 33.63 164.11 34.31 164.75 34.97 165.35 35.6 165.92 36.2 166.45 36.77 166.95 37.3 167.4 37.8 167.8 38.24 168.16 38.65 168.46 39.01 168.72 39.31 168.91 39.56 169.06 39.77 169.15 39.91 169.18 40 169.15 40.03 169.07 40.01 168.93 39.92 168.73 39.79 168.48 39.6 168.18 39.35 167.83 39.05 167.43 38.7 166.98 38.3 166.49 37.86 165.96 37.37 165.39 36.84 164.79 36.28 164.16 35.68 163.5 35.05 162.82 34.4 162.13 33.72 161.41 33.03 160.7 32.32 159.97 31.6 159.25 30.88 158.53 30.16 157.81 29.44 157.12 28.73 156.44 28.04 155.78 27.36 155.14 26.7 154.54 26.07 153.97 25.47 153.44 24.9 152.94 24.36 152.49 23.87 152.09 23.42 151.73 23.02 151.43 22.66 151.17 22.36 150.97 22.1 150.83 21.9 150.74 21.76 150.71 21.67 150.74 21.64 150.82 21.66 150.96 21.74 151.16 21.88 151.41 22.07 151.71 22.32 152.06 22.62 152.46 22.96 152.91 23.36 153.4 23.81 153.93 24.29 154.5 24.82 155.1 25.39 155.73 25.98 156.39 26.61 157.07 27.27 157.76 27.94 158.47 28.64 159.19 29.35 159.92 30.06 160.64 30.78" style="fill:none;stroke:#000;stroke-linecap:round;stroke-linejoin:round"/></g><g id="SPLINE-16" data-name="SPLINE"><path d="M179,27.79l.11.43h0l.1.41h0c.06.23.11.44.15.64h0c0,.21.08.4.12.58h0c0,.17.06.33.08.48h0c0,.15,0,.29.06.43" style="fill:none;stroke:#000;stroke-linecap:round;stroke-linejoin:round"/></g><g id="SPLINE-17" data-name="SPLINE"><path d="M170.82,18.48l.53.53h0l.82.83h0l.84.86h0l.83.87h0l.78.84h0l.76.84h0l.75.85h0l.71.83h0l.61.75h0l.57.72h0l.07.09" style="fill:none;stroke:#000;stroke-linecap:round;stroke-linejoin:round"/></g><polyline points="194.7 32.33 194.7 32.33 194.76 32.28 194.82 32.16 194.88 31.95 194.94 31.67 195 31.3 195.05 30.87 195.11 30.35 195.16 29.77 195.21 29.12 195.25 28.4 195.3 27.63 195.34 26.79 195.38 25.9 195.41 24.97 195.44 23.99 195.47 22.97 195.49 21.92 195.51 20.84 195.52 19.74 195.53 18.62 195.53 17.49 195.53 16.35 195.53 15.22 195.52 14.09 195.51 12.97 195.5 11.87 195.47 10.8 195.45 9.75 195.42 8.73 195.39 7.76 195.35 6.83 195.31 5.95 195.27 5.12 195.22 4.35 195.18 3.64 195.13 2.99 195.07 2.42 195.02 1.91 194.96 1.48 194.9 1.13 194.84 0.85 194.78 0.65 194.72 0.54 194.66 0.5" style="fill:none;stroke:#000;stroke-linecap:round;stroke-linejoin:round"/><g id="SPLINE-18" data-name="SPLINE"><line x1="179.45" y1="23.05" x2="179.47" y2="21.68" style="fill:none;stroke:#000;stroke-linecap:round;stroke-linejoin:round"/></g><g id="SPLINE-19" data-name="SPLINE"><line x1="179.27" y1="21.63" x2="179.25" y2="23" style="fill:none;stroke:#000;stroke-linecap:round;stroke-linejoin:round"/></g><g id="SPLINE-20" data-name="SPLINE"><path d="M179.15,27.66l-.47-.66h0l-.52-.69h0l-.58-.74h0l-.63-.77h0l-.69-.81h0l-.72-.82h0l-.78-.86h0l-.8-.86h0l-.8-.84h0l-.81-.83h0l-.84-.84h0l-.84-.83" style="fill:none;stroke:#000;stroke-linecap:round;stroke-linejoin:round"/></g><g id="SPLINE-21" data-name="SPLINE"><path d="M179.25,23v.94h0c0,.34,0,.66,0,1h0c0,.32,0,.64,0,.95h0c0,.32,0,.62,0,.92h0l0,.87" style="fill:none;stroke:#000;stroke-linecap:round;stroke-linejoin:round"/></g><g id="ARC"><path d="M170.66,18.11a.2.2,0,0,1-.13.08" style="fill:none;stroke:#000;stroke-linecap:round;stroke-linejoin:round"/></g><g id="ARC-2" data-name="ARC"><path d="M179,27.79a.21.21,0,0,1,.1-.13" style="fill:none;stroke:#000;stroke-linecap:round;stroke-linejoin:round"/></g><g id="ARC-3" data-name="ARC"><path d="M179.27,21.63a.26.26,0,0,1,.2,0" style="fill:none;stroke:#000;stroke-linecap:round;stroke-linejoin:round"/></g><g id="SPLINE-22" data-name="SPLINE"><path d="M179.47,21.68c0-.65,0-1.31,0-2h0c0-.67,0-1.36,0-2h0c0-.38,0-.75,0-1.13h0c0-.38,0-.75,0-1.12h0c0-.38,0-.76,0-1.14h0c0-.37,0-.74,0-1.11h0c0-.35,0-.69,0-1h0c0-.33,0-.66,0-1h0c0-.33,0-.65,0-1h0c0-.31,0-.62,0-.91h0c0-.28,0-.55,0-.82h0q0-.39,0-.76h0q0-.37,0-.71h0c0-.22,0-.44-.05-.64h0c0-.19,0-.37-.05-.54h0c0-.17,0-.32-.05-.46h0c0-.14,0-.27-.05-.39h0c0-.11,0-.21-.06-.3h0a1.17,1.17,0,0,0-.06-.2h0l0,0" style="fill:none;stroke:#000;stroke-linecap:round;stroke-linejoin:round"/></g><g id="SPLINE-23" data-name="SPLINE"><line x1="178.68" y1="4.41" x2="178.65" y2="4.52" style="fill:none;stroke:#000;stroke-linecap:round;stroke-linejoin:round"/></g><g id="SPLINE-24" data-name="SPLINE"><path d="M179.35,27.72c0-.51,0-1,0-1.57h0c0-.56,0-1.15,0-1.77h0c0-.43,0-.87,0-1.32" style="fill:none;stroke:#000;stroke-linecap:round;stroke-linejoin:round"/></g><g id="SPLINE-25" data-name="SPLINE"><path d="M179.86,30.74c0-.25,0-.5-.08-.79h0c0-.15,0-.31-.07-.48h0c0-.17-.06-.35-.1-.54h0c0-.14-.05-.28-.08-.43h0l-.1-.47h0l-.07-.32" style="fill:none;stroke:#000;stroke-linecap:round;stroke-linejoin:round"/></g><g id="ARC-4" data-name="ARC"><path d="M179.25,23a.24.24,0,0,1,.2.05" style="fill:none;stroke:#000;stroke-linecap:round;stroke-linejoin:round"/></g><g id="ARC-5" data-name="ARC"><path d="M179.15,27.66a.22.22,0,0,1,.21.06" style="fill:none;stroke:#000;stroke-linecap:round;stroke-linejoin:round"/></g><g id="ARC-6" data-name="ARC"><path d="M179,27.79a.53.53,0,0,1,.31-.07" style="fill:none;stroke:#000;stroke-linecap:round;stroke-linejoin:round"/></g><g id="ARC-7" data-name="ARC"><path d="M179.66,30.76a.19.19,0,0,1,.19,0" style="fill:none;stroke:#000;stroke-linecap:round;stroke-linejoin:round"/></g><polyline points="224.2 3.36 224.25 3.4 224.31 3.52 224.36 3.72 224.42 3.99 224.47 4.35 224.52 4.78 224.57 5.28 224.61 5.86 224.66 6.5 224.7 7.2 224.74 7.95 224.77 8.77 224.8 9.62 224.83 10.52 224.86 11.46 224.88 12.43 224.89 13.42 224.9 14.43 224.91 15.46 224.91 16.49 224.91 17.52 224.91 18.54 224.9 19.55 224.88 20.54 224.86 21.5 224.84 22.43 224.81 23.32 224.78 24.17 224.75 24.97 224.71 25.72 224.67 26.41 224.63 27.03 224.58 27.59 224.53 28.08 224.48 28.5 224.43 28.84 224.38 29.1 224.32 29.28 224.27 29.38" style="fill:none;stroke:#000;stroke-linecap:round;stroke-linejoin:round"/><line x1="225.68" y1="30.85" x2="225.66" y2="30.85" style="fill:none;stroke:#000;stroke-linecap:round;stroke-linejoin:round"/><path d="M225.68,30.85c6.52-.09,19.5-.1,26,0" style="fill:none;stroke:#000;stroke-linecap:round;stroke-linejoin:round"/><g id="SPLINE-26" data-name="SPLINE"><path d="M179.66,30.76c0,.18,0,.36,0,.52h0c0,.16,0,.3,0,.42h0c0,.13,0,.24,0,.33h0a1.56,1.56,0,0,1,0,.22h0a.19.19,0,0,1,0,.1h0" style="fill:none;stroke:#000;stroke-linecap:round;stroke-linejoin:round"/></g><g id="LWPOLYLINE-3" data-name="LWPOLYLINE"><polyline points="158.95 10.46 158.97 10.45 159.06 10.47 159.2 10.55 159.4 10.69 159.66 10.88 159.97 11.13 160.33 11.44 160.74 11.79 161.2 12.19 161.7 12.65 162.25 13.14 162.83 13.68 163.46 14.26 164.11 14.88 164.8 15.53 165.51 16.21 166.24 16.91 166.99 17.64 167.76 18.39 168.53 19.15 169.31 19.92 170.1 20.7 170.88 21.48 171.65 22.26 172.42 23.03 173.16 23.79 173.9 24.54 174.6 25.27 175.28 25.98 175.93 26.66 176.55 27.31 177.13 27.93 177.66 28.51 178.16 29.05 178.61 29.55 179.01 30 179.36 30.41 179.66 30.76" style="fill:none;stroke:#000;stroke-linecap:round;stroke-linejoin:round"/></g><g id="SPLINE-27" data-name="SPLINE"><path d="M178.09,26.5l.47.62h0l.48.67" style="fill:none;stroke:#000;stroke-linecap:round;stroke-linejoin:round"/></g><g id="SPLINE-28" data-name="SPLINE"><path d="M180.17,32.33l.06,0h0a.7.7,0,0,0,.13-.15h0a2.31,2.31,0,0,0,.14-.23h0c.05-.09.1-.2.16-.32h0c.05-.13.11-.27.16-.42h0q.08-.24.16-.52h0c.05-.2.11-.41.16-.64h0c0-.23.1-.47.14-.73h0c0-.27.09-.55.13-.85h0c0-.3.07-.61.1-.93h0c.05-.52.09-1.07.13-1.66h0c0-.6.06-1.23.08-1.87" style="fill:none;stroke:#000;stroke-linecap:round;stroke-linejoin:round"/></g><g id="LWPOLYLINE-4" data-name="LWPOLYLINE"><polyline points="181.7 23.99 181.73 22.97 181.75 21.92 181.77 20.84 181.78 19.74 181.79 18.62 181.8 17.49 181.8 16.36 181.8 15.22 181.79 14.09 181.77 12.98 181.76 11.88 181.74 10.8 181.71 9.76 181.68 8.74 181.65 7.77 181.62 6.84 181.58 5.96 181.53 5.13 181.49 4.36 181.44 3.65 181.39 3.01 181.34 2.43 181.28 1.93 181.22 1.5 181.17 1.14 181.11 0.86 181.05 0.67 180.99 0.55 180.93 0.52" style="fill:none;stroke:#000;stroke-linecap:round;stroke-linejoin:round"/></g><g id="LWPOLYLINE-5" data-name="LWPOLYLINE"><polyline points="178.4 4.52 178.41 4.39 178.46 3.92 178.51 3.51 178.56 3.19 178.62 2.94 178.68 2.77 178.73 2.69 178.79 2.68 178.85 2.76 178.9 2.92 178.96 3.16 179.01 3.48 179.07 3.87 179.12 4.34 179.17 4.88 179.21 5.49 179.26 6.17 179.3 6.9 179.34 7.7 179.37 8.54 179.41 9.43 179.43 10.37 179.46 11.33 179.48 12.33 179.5 13.36 179.51 14.4 179.51 15.45 179.52 16.51 179.51 17.57 179.51 18.62 179.5 19.66 179.49 20.68 179.47 21.68" style="fill:none;stroke:#000;stroke-linecap:round;stroke-linejoin:round"/></g><g id="SPLINE-29" data-name="SPLINE"><path d="M178.61,4.51l0,0h0a.33.33,0,0,1,.06.11h0a1.91,1.91,0,0,1,.06.21h0c0,.08,0,.18.05.29h0c0,.11,0,.23.05.37h0q0,.21.05.46h0c0,.17,0,.35.05.55h0c0,.19,0,.39,0,.61h0c0,.21,0,.44,0,.68h0q0,.37,0,.77h0c0,.27,0,.54,0,.83h0c0,.28,0,.58,0,.88h0q0,.45,0,.93h0q0,.49,0,1h0c0,.34,0,.68,0,1h0l0,1.07h0v1.09h0v1.14h0c0,.38,0,.76,0,1.15h0c0,.66,0,1.32,0,2h0c0,.67,0,1.32,0,2" style="fill:none;stroke:#000;stroke-linecap:round;stroke-linejoin:round"/></g><g id="SPLINE-30" data-name="SPLINE"><path d="M170.66,18.11l-.78-.76h0l-.76-.74h0l-.76-.73h0l-.74-.7h0l-.68-.64h0l-.64-.6h0l-.62-.57h0l-.57-.52h0l-.49-.44h0l-.44-.38h0l-.39-.33h0l-.33-.27h0l-.25-.19h0l-.15-.1" style="fill:none;stroke:#000;stroke-linecap:round;stroke-linejoin:round"/></g><g id="SPLINE-31" data-name="SPLINE"><path d="M178.84,4.44l0-.08h0a.05.05,0,0,0-.06,0h0s0,0-.06.07h0" style="fill:none;stroke:#000;stroke-linecap:round;stroke-linejoin:round"/></g><g id="SPLINE-32" data-name="SPLINE"><path d="M179.82,32.3s.06,0,.07,0h0a.85.85,0,0,0,0-.24h0c0-.11,0-.25,0-.41h0c0-.16,0-.35,0-.58h0l0-.29" style="fill:none;stroke:#000;stroke-linecap:round;stroke-linejoin:round"/></g><polyline points="226.67 328.13 226.67 45.25 251 45.25 251 328.13" style="fill:none;stroke:#000;stroke-linecap:round;stroke-linejoin:round"/><polyline points="288.64 241.42 282.45 235.62 271.11 235.62 267.89 232.4 243.01 232.4 232.66 232.4 207.78 232.4 204.55 235.62 193.21 235.62 187.02 241.42" style="fill:#fff;stroke:#000;stroke-linecap:round;stroke-linejoin:round"/><polyline points="291.55 241.46 41.18 241.46 41.18 287.79 291.55 287.79" style="fill:#fff;stroke:#000;stroke-linecap:round;stroke-linejoin:round"/><path d="M201.24,287.89v15.22h75V287.89Zm6.5,10.82a3.37,3.37,0,1,1,3.37-3.36A3.37,3.37,0,0,1,207.74,298.7Zm10.1,0a3.37,3.37,0,1,1,3.37-3.36A3.37,3.37,0,0,1,217.84,298.72Zm10.43,0a3.37,3.37,0,1,1,3.37-3.36A3.37,3.37,0,0,1,228.27,298.74Zm10.77,0a3.37,3.37,0,1,1,3.37-3.36A3.37,3.37,0,0,1,239,298.76Zm10.34,0a3.37,3.37,0,1,1,3.38-3.36A3.36,3.36,0,0,1,249.38,298.78Zm10.1,0a3.37,3.37,0,1,1,3.37-3.36A3.36,3.36,0,0,1,259.49,298.8Zm10.13,0a3.37,3.37,0,1,1,3.37-3.36A3.37,3.37,0,0,1,269.62,298.82Z" style="fill:#fff;stroke:#000"/><polyline points="291.43 224.47 291.43 255.76 283.93 260.95 299.77 271.19 291.43 276.23 291.27 305.64" style="fill:none;stroke:#000"/><polyline points="65.18 328.49 65.18 115.46 18.85 115.46 18.85 328.49" style="fill:#fff;stroke:#000;stroke-linecap:round;stroke-linejoin:round"/><polyline points="82.17 328.46 50.88 328.46 45.69 320.96 35.45 336.79 30.41 328.46 0 328.29" style="fill:none;stroke:#000"/><polyline points="280.9 328.46 249.61 328.46 244.42 320.96 234.18 336.79 229.14 328.46 198.73 328.29" style="fill:none;stroke:#000"/><polyline points="65.22 241.45 18.86 241.45 65.18 212.79" style="fill:none;stroke:#000;stroke-linecap:round;stroke-linejoin:round"/><line x1="19.28" y1="216.79" x2="65.18" y2="188.46" style="fill:#fff;stroke:#000;stroke-linecap:round;stroke-linejoin:round"/><line x1="19.28" y1="192.46" x2="65.18" y2="164.12" style="fill:#fff;stroke:#000;stroke-linecap:round;stroke-linejoin:round"/><line x1="19.28" y1="168.12" x2="65.18" y2="139.79" style="fill:#fff;stroke:#000;stroke-linecap:round;stroke-linejoin:round"/><line x1="19.28" y1="143.79" x2="65.18" y2="115.46" style="fill:#fff;stroke:#000;stroke-linecap:round;stroke-linejoin:round"/><path d="M75.79,140.94V134.5h.85v6.44Z"/><path d="M78.14,140.94V134.5H79l3.38,5.06V134.5h.82v6.44h-.87L79,135.88v5.06Z"/><path d="M86.29,140.94v-5.68H84.17v-.76h5.11v.76H87.14v5.68Z"/><path d="M88.77,140.94l2.47-6.44h.92l2.64,6.44h-1l-.75-2H90.38l-.71,2Zm1.86-2.65h2.18l-.67-1.78q-.31-.81-.46-1.34a8.1,8.1,0,0,1-.35,1.23Z"/><path d="M95.45,140.94V134.5h.85v3.19l3.2-3.19h1.16L98,137.11l2.82,3.83H99.65l-2.29-3.26-1.05,1v2.23Z"/><path d="M101.5,140.94V134.5h4.66v.76h-3.81v2h3.56V138h-3.56v2.19h4v.76Z"/><path d="M108.78,140.94l2.47-6.44h.92l2.64,6.44h-1l-.75-2H110.4l-.71,2Zm1.86-2.65h2.18l-.67-1.78q-.31-.81-.46-1.34a8.1,8.1,0,0,1-.35,1.23Z"/><path d="M115.64,140.94V134.5h.85v6.44Z"/><path d="M118,140.94V134.5h2.86a3.8,3.8,0,0,1,1.31.17,1.43,1.43,0,0,1,.72.61,1.83,1.83,0,0,1,.27,1,1.62,1.62,0,0,1-.44,1.16,2.25,2.25,0,0,1-1.37.6,2.21,2.21,0,0,1,.51.32,4.43,4.43,0,0,1,.71.86l1.12,1.75h-1.07l-.85-1.34q-.37-.58-.62-.89a2,2,0,0,0-.43-.43,1.27,1.27,0,0,0-.39-.17,2.56,2.56,0,0,0-.47,0h-1v2.86Zm.85-3.6h1.83a2.75,2.75,0,0,0,.91-.12,1,1,0,0,0,.5-.39,1,1,0,0,0,.17-.58,1,1,0,0,0-.33-.75,1.55,1.55,0,0,0-1-.29h-2Z"/><path d="M125.79,140.94l2.47-6.44h.92l2.64,6.44h-1l-.75-2H127.4l-.71,2Zm1.86-2.65h2.18l-.67-1.78q-.31-.81-.46-1.34a8.1,8.1,0,0,1-.35,1.23Z"/><path d="M132.49,140.94V134.5h.88l3.38,5.06V134.5h.82v6.44h-.87l-3.38-5.06v5.06Z"/><path d="M139,140.94V134.5h2.22a5.38,5.38,0,0,1,1.15.09,2.19,2.19,0,0,1,.95.46,2.63,2.63,0,0,1,.76,1.1,4.31,4.31,0,0,1,.25,1.53,4.53,4.53,0,0,1-.17,1.3,3.2,3.2,0,0,1-.44.94,2.35,2.35,0,0,1-.59.58,2.39,2.39,0,0,1-.77.32,4.39,4.39,0,0,1-1,.11Zm.85-.76h1.38a3.34,3.34,0,0,0,1-.12,1.43,1.43,0,0,0,.58-.33,2,2,0,0,0,.47-.82,4,4,0,0,0,.17-1.24,3,3,0,0,0-.33-1.55,1.67,1.67,0,0,0-.81-.73,3.34,3.34,0,0,0-1.1-.13h-1.35Z"/><path d="M144.81,141.05l1.87-6.66h.63l-1.86,6.66Z"/><path d="M147.74,137.81a3.5,3.5,0,0,1,.86-2.51,2.93,2.93,0,0,1,2.22-.91,3.09,3.09,0,0,1,1.61.43,2.79,2.79,0,0,1,1.09,1.19,3.87,3.87,0,0,1,.38,1.73,3.8,3.8,0,0,1-.39,1.75,2.7,2.7,0,0,1-1.12,1.17,3.2,3.2,0,0,1-1.56.4,3,3,0,0,1-1.63-.44,2.83,2.83,0,0,1-1.08-1.2A3.64,3.64,0,0,1,147.74,137.81Zm.88,0a2.58,2.58,0,0,0,.63,1.83,2.18,2.18,0,0,0,3.16,0,2.74,2.74,0,0,0,.62-1.92,3.29,3.29,0,0,0-.27-1.37,2,2,0,0,0-.78-.91,2.11,2.11,0,0,0-1.15-.32,2.18,2.18,0,0,0-1.56.62A2.78,2.78,0,0,0,148.62,137.82Z"/><path d="M155,140.94V134.5h2.86a3.8,3.8,0,0,1,1.31.17,1.43,1.43,0,0,1,.72.61,1.83,1.83,0,0,1,.27,1,1.62,1.62,0,0,1-.44,1.16,2.25,2.25,0,0,1-1.37.6,2.21,2.21,0,0,1,.51.32,4.43,4.43,0,0,1,.71.86l1.12,1.75h-1.07l-.85-1.34q-.37-.58-.62-.89a2,2,0,0,0-.43-.43,1.27,1.27,0,0,0-.39-.17,2.56,2.56,0,0,0-.47,0h-1v2.86Zm.85-3.6h1.83a2.75,2.75,0,0,0,.91-.12,1,1,0,0,0,.5-.39,1,1,0,0,0,.17-.58,1,1,0,0,0-.33-.75,1.55,1.55,0,0,0-1-.29h-2Z"/><path d="M165.84,140.94l-2.5-6.44h.92l1.67,4.68q.2.56.34,1.05.15-.53.35-1.05l1.74-4.68h.87l-2.52,6.44Z"/><path d="M170,140.94V134.5h4.66v.76h-3.81v2h3.56V138h-3.56v2.19h4v.76Z"/><path d="M176,140.94V134.5h.88l3.38,5.06V134.5h.82v6.44h-.87l-3.38-5.06v5.06Z"/><path d="M184.15,140.94v-5.68H182v-.76h5.11v.76H185v5.68Z"/><path d="M77.29,151.74v-5.68H75.17v-.76h5.11v.76H78.14v5.68Z"/><path d="M81.16,151.74V145.3h4.66v.76H82v2h3.56v.76H82V151h4v.76Z"/><path d="M87.16,151.74V145.3H90a3.8,3.8,0,0,1,1.31.17,1.43,1.43,0,0,1,.72.61,1.83,1.83,0,0,1,.27,1,1.62,1.62,0,0,1-.44,1.16,2.25,2.25,0,0,1-1.37.6,2.21,2.21,0,0,1,.51.32,4.43,4.43,0,0,1,.71.86l1.12,1.75H91.77l-.85-1.34q-.37-.58-.62-.89a2,2,0,0,0-.43-.43,1.27,1.27,0,0,0-.39-.17,2.56,2.56,0,0,0-.47,0H88v2.86Zm.85-3.6h1.83a2.75,2.75,0,0,0,.91-.12,1,1,0,0,0,.5-.39,1,1,0,0,0,.17-.58,1,1,0,0,0-.33-.75,1.55,1.55,0,0,0-1-.29H88Z"/><path d="M93.62,151.74V145.3h1.28l1.53,4.56q.21.64.31,1,.11-.35.34-1l1.54-4.48h1.15v6.44h-.82v-5.39l-1.87,5.39h-.77l-1.86-5.48v5.48Z"/><path d="M101.29,151.74V145.3h.85v6.44Z"/><path d="M103.64,151.74V145.3h.88l3.38,5.06V145.3h.82v6.44h-.87l-3.38-5.06v5.06Z"/><path d="M109.44,151.74l2.47-6.44h.92l2.64,6.44h-1l-.75-2h-2.69l-.71,2Zm1.86-2.65h2.18l-.67-1.78q-.31-.81-.46-1.34a8.1,8.1,0,0,1-.35,1.23Z"/><path d="M117.12,151.74v-5.68H115v-.76h5.11v.76H118v5.68Z"/><path d="M121.12,151.74V145.3H122v6.44Z"/><path d="M123.22,148.61a3.5,3.5,0,0,1,.86-2.51,2.93,2.93,0,0,1,2.22-.91,3.09,3.09,0,0,1,1.61.43A2.79,2.79,0,0,1,129,146.8a3.87,3.87,0,0,1,.38,1.73,3.8,3.8,0,0,1-.39,1.75,2.7,2.7,0,0,1-1.12,1.17,3.2,3.2,0,0,1-1.56.4,3,3,0,0,1-1.63-.44,2.83,2.83,0,0,1-1.08-1.2A3.64,3.64,0,0,1,123.22,148.61Zm.88,0a2.58,2.58,0,0,0,.63,1.83,2.18,2.18,0,0,0,3.16,0,2.74,2.74,0,0,0,.62-1.92,3.29,3.29,0,0,0-.27-1.37,2,2,0,0,0-.78-.91,2.11,2.11,0,0,0-1.15-.32,2.18,2.18,0,0,0-1.56.62A2.78,2.78,0,0,0,124.1,148.62Z"/><path d="M130.47,151.74V145.3h.88l3.38,5.06V145.3h.82v6.44h-.87l-3.38-5.06v5.06Z"/><path d="M138.39,153.64a7.85,7.85,0,0,1-1.11-1.93,6.07,6.07,0,0,1-.12-4.3,8.4,8.4,0,0,1,1.22-2.21H139q-.53.91-.7,1.31a7.13,7.13,0,0,0-.42,1.27,7.35,7.35,0,0,0-.19,1.65,7.93,7.93,0,0,0,1.31,4.22Z"/><path d="M139.69,149.67l.8-.07a1.76,1.76,0,0,0,.27.79,1.45,1.45,0,0,0,.65.5,2.46,2.46,0,0,0,1,.19,2.37,2.37,0,0,0,.86-.15,1.19,1.19,0,0,0,.56-.4A.92.92,0,0,0,144,150a.84.84,0,0,0-.18-.53,1.3,1.3,0,0,0-.58-.38,11.42,11.42,0,0,0-1.15-.31,5.84,5.84,0,0,1-1.24-.4,1.74,1.74,0,0,1-.69-.6,1.47,1.47,0,0,1-.23-.8,1.63,1.63,0,0,1,.28-.91,1.71,1.71,0,0,1,.81-.64,3.06,3.06,0,0,1,1.18-.22,3.22,3.22,0,0,1,1.26.23,1.83,1.83,0,0,1,.84.68,2,2,0,0,1,.32,1l-.82.06a1.32,1.32,0,0,0-.45-.92,1.74,1.74,0,0,0-1.12-.31,1.8,1.8,0,0,0-1.13.28.85.85,0,0,0-.35.68.73.73,0,0,0,.25.57,3.39,3.39,0,0,0,1.29.46,8.52,8.52,0,0,1,1.43.41,2,2,0,0,1,.83.66,1.6,1.6,0,0,1,.27.92,1.75,1.75,0,0,1-.29,1,1.94,1.94,0,0,1-.85.71,3,3,0,0,1-1.24.25,3.7,3.7,0,0,1-1.46-.25,2.05,2.05,0,0,1-.93-.77A2.18,2.18,0,0,1,139.69,149.67Z"/><path d="M146.4,153.64h-.57a7.93,7.93,0,0,0,1.31-4.22,7.22,7.22,0,0,0-.19-1.64,6.89,6.89,0,0,0-.42-1.27,14.54,14.54,0,0,0-.71-1.32h.57a8.43,8.43,0,0,1,1.22,2.21,6.06,6.06,0,0,1-.12,4.3A8,8,0,0,1,146.4,153.64Z"/><path d="M151.45,151.74V145.3h1.28l1.53,4.56q.21.64.31,1,.11-.35.34-1l1.54-4.48h1.15v6.44h-.82v-5.39l-1.87,5.39h-.77l-1.86-5.48v5.48Z"/><path d="M163.2,145.3h.85V149a4.41,4.41,0,0,1-.22,1.54,1.88,1.88,0,0,1-.79.93,2.81,2.81,0,0,1-1.51.36,3.09,3.09,0,0,1-1.48-.31,1.78,1.78,0,0,1-.82-.9A4.3,4.3,0,0,1,159,149V145.3h.85V149a3.64,3.64,0,0,0,.16,1.24,1.19,1.19,0,0,0,.54.61,1.86,1.86,0,0,0,.93.22,1.78,1.78,0,0,0,1.34-.43,2.46,2.46,0,0,0,.4-1.64Z"/><path d="M165.18,149.67l.8-.07a1.76,1.76,0,0,0,.27.79,1.45,1.45,0,0,0,.65.5,2.46,2.46,0,0,0,1,.19,2.37,2.37,0,0,0,.86-.15,1.19,1.19,0,0,0,.56-.4.92.92,0,0,0,.18-.55.84.84,0,0,0-.18-.53,1.3,1.3,0,0,0-.58-.38,11.42,11.42,0,0,0-1.15-.31,5.84,5.84,0,0,1-1.24-.4,1.74,1.74,0,0,1-.69-.6,1.47,1.47,0,0,1-.23-.8,1.63,1.63,0,0,1,.28-.91,1.71,1.71,0,0,1,.81-.64,3.06,3.06,0,0,1,1.18-.22,3.22,3.22,0,0,1,1.26.23,1.83,1.83,0,0,1,.84.68,2,2,0,0,1,.32,1l-.82.06a1.32,1.32,0,0,0-.45-.92,1.74,1.74,0,0,0-1.12-.31,1.8,1.8,0,0,0-1.13.28.85.85,0,0,0-.35.68.73.73,0,0,0,.25.57,3.39,3.39,0,0,0,1.29.46,8.52,8.52,0,0,1,1.43.41,2,2,0,0,1,.83.66,1.6,1.6,0,0,1,.27.92,1.75,1.75,0,0,1-.29,1,1.94,1.94,0,0,1-.85.71,3,3,0,0,1-1.24.25,3.7,3.7,0,0,1-1.46-.25,2.05,2.05,0,0,1-.93-.77A2.18,2.18,0,0,1,165.18,149.67Z"/><path d="M173.12,151.74v-5.68H171v-.76h5.11v.76H174v5.68Z"/><path d="M179.28,151.74V145.3h2.42a3,3,0,0,1,1.18.2,1.53,1.53,0,0,1,.7.6,1.58,1.58,0,0,1,.25.85,1.47,1.47,0,0,1-.22.78,1.61,1.61,0,0,1-.68.59,1.69,1.69,0,0,1,.9.58,1.57,1.57,0,0,1,.31,1,1.89,1.89,0,0,1-.19.84,1.63,1.63,0,0,1-.47.6,2,2,0,0,1-.71.32,4.3,4.3,0,0,1-1,.11Zm.85-3.74h1.39a3.11,3.11,0,0,0,.81-.07.91.91,0,0,0,.49-.32.93.93,0,0,0,.17-.56,1,1,0,0,0-.15-.56.78.78,0,0,0-.44-.33,3.67,3.67,0,0,0-1-.09h-1.29Zm0,3h1.6a3.69,3.69,0,0,0,.58,0,1.38,1.38,0,0,0,.49-.18.93.93,0,0,0,.33-.36,1.13,1.13,0,0,0,.13-.54,1.07,1.07,0,0,0-.18-.63,1,1,0,0,0-.51-.37,3.18,3.18,0,0,0-.94-.11h-1.49Z"/><path d="M185.33,151.74V145.3H190v.76h-3.81v2h3.56v.76h-3.56V151h4v.76Z"/><path d="M192.61,151.74l2.47-6.44H196l2.64,6.44h-1l-.75-2h-2.69l-.71,2Zm1.86-2.65h2.18l-.67-1.78q-.31-.81-.46-1.34a8.1,8.1,0,0,1-.35,1.23Z"/><path d="M75.62,162.54V156.1h1.28l1.53,4.56q.21.64.31,1,.11-.35.34-1l1.54-4.48h1.15v6.44h-.82v-5.39l-1.87,5.39h-.77l-1.86-5.48v5.48Z"/><path d="M83.29,162.54V156.1h.85v6.44Z"/><path d="M85.64,162.54V156.1h.88l3.38,5.06V156.1h.82v6.44h-.87l-3.38-5.06v5.06Z"/><path d="M92.29,162.54V156.1h.85v6.44Z"/><path d="M94.62,162.54V156.1H95.9l1.53,4.56q.21.64.31,1,.11-.35.34-1l1.54-4.48h1.15v6.44h-.82v-5.39l-1.87,5.39h-.77l-1.86-5.48v5.48Z"/><path d="M106.37,156.1h.85v3.72a4.41,4.41,0,0,1-.22,1.54,1.88,1.88,0,0,1-.79.93,2.81,2.81,0,0,1-1.51.36,3.09,3.09,0,0,1-1.48-.31,1.78,1.78,0,0,1-.82-.9,4.3,4.3,0,0,1-.25-1.61V156.1H103v3.72a3.64,3.64,0,0,0,.16,1.24,1.19,1.19,0,0,0,.54.61,1.86,1.86,0,0,0,.93.22,1.78,1.78,0,0,0,1.34-.43,2.46,2.46,0,0,0,.4-1.64Z"/><path d="M108.62,162.54V156.1h1.28l1.53,4.56q.21.64.31,1,.11-.35.34-1l1.54-4.48h1.15v6.44h-.82v-5.39l-1.87,5.39h-.77l-1.86-5.48v5.48Z"/><path d="M118.38,159.41a3.5,3.5,0,0,1,.86-2.51,2.93,2.93,0,0,1,2.22-.91,3.09,3.09,0,0,1,1.61.43,2.79,2.79,0,0,1,1.09,1.19,3.87,3.87,0,0,1,.38,1.73,3.8,3.8,0,0,1-.39,1.75,2.7,2.7,0,0,1-1.12,1.17,3.2,3.2,0,0,1-1.56.4,3,3,0,0,1-1.63-.44,2.83,2.83,0,0,1-1.08-1.2A3.64,3.64,0,0,1,118.38,159.41Zm.88,0a2.58,2.58,0,0,0,.63,1.83,2.18,2.18,0,0,0,3.16,0,2.74,2.74,0,0,0,.62-1.92,3.29,3.29,0,0,0-.27-1.37,2,2,0,0,0-.78-.91,2.11,2.11,0,0,0-1.15-.32,2.18,2.18,0,0,0-1.56.62A2.78,2.78,0,0,0,119.26,159.42Z"/><path d="M125.69,162.54V156.1H130v.76h-3.49v2h3v.76h-3v2.93Z"/><path d="M137.48,161.78v.76h-4.26a1.38,1.38,0,0,1,.09-.55,2.87,2.87,0,0,1,.52-.86,8.11,8.11,0,0,1,1-1,8.78,8.78,0,0,0,1.42-1.36,1.63,1.63,0,0,0,.37-1,1.06,1.06,0,0,0-.34-.79,1.22,1.22,0,0,0-.88-.32,1.24,1.24,0,0,0-.91.34,1.3,1.3,0,0,0-.35.95l-.81-.08a2,2,0,0,1,.63-1.39,2.14,2.14,0,0,1,1.46-.48,2,2,0,0,1,1.47.51,1.69,1.69,0,0,1,.54,1.27,1.93,1.93,0,0,1-.16.76,3,3,0,0,1-.52.79,12.86,12.86,0,0,1-1.22,1.13q-.71.6-.91.81a2.6,2.6,0,0,0-.33.43Z"/><path d="M140.86,162.54V161h-2.79v-.73L141,156.1h.65v4.17h.87V161h-.87v1.54Zm0-2.27v-2.9l-2,2.9Z"/><path d="M146.3,162.54V156.1h.85v6.44Z"/><path d="M148.64,162.54V156.1h.88l3.38,5.06V156.1h.82v6.44h-.87l-3.38-5.06v5.06Z"/><path d="M159.75,160.29l.85.22a2.87,2.87,0,0,1-1,1.6,2.66,2.66,0,0,1-1.7.55,3.05,3.05,0,0,1-1.69-.42,2.64,2.64,0,0,1-1-1.23,4.37,4.37,0,0,1-.34-1.73,3.79,3.79,0,0,1,.38-1.76,2.63,2.63,0,0,1,1.09-1.14,3.19,3.19,0,0,1,1.56-.39,2.64,2.64,0,0,1,1.63.49,2.56,2.56,0,0,1,.92,1.38l-.84.2a2,2,0,0,0-.65-1,1.73,1.73,0,0,0-1.07-.32,2.08,2.08,0,0,0-1.24.36,1.88,1.88,0,0,0-.7,1,3.84,3.84,0,0,0-.2,1.24,3.94,3.94,0,0,0,.24,1.44,1.79,1.79,0,0,0,.75.92,2.09,2.09,0,0,0,1.09.3,1.84,1.84,0,0,0,1.21-.41A2.12,2.12,0,0,0,159.75,160.29Z"/><path d="M161.67,162.54V156.1h4.66v.76h-3.81v2h3.56v.76h-3.56v2.19h4v.76Z"/><path d="M167.36,160.47l.8-.07a1.76,1.76,0,0,0,.27.79,1.45,1.45,0,0,0,.65.5,2.46,2.46,0,0,0,1,.19,2.37,2.37,0,0,0,.86-.15,1.19,1.19,0,0,0,.56-.4.92.92,0,0,0,.18-.55.84.84,0,0,0-.18-.53,1.3,1.3,0,0,0-.58-.38,11.42,11.42,0,0,0-1.15-.31,5.84,5.84,0,0,1-1.24-.4,1.74,1.74,0,0,1-.69-.6,1.47,1.47,0,0,1-.23-.8,1.63,1.63,0,0,1,.28-.91,1.71,1.71,0,0,1,.81-.64,3.06,3.06,0,0,1,1.18-.22,3.22,3.22,0,0,1,1.26.23,1.83,1.83,0,0,1,.84.68,2,2,0,0,1,.32,1l-.82.06a1.32,1.32,0,0,0-.45-.92,1.74,1.74,0,0,0-1.12-.31,1.8,1.8,0,0,0-1.13.28.85.85,0,0,0-.35.68.73.73,0,0,0,.25.57,3.39,3.39,0,0,0,1.29.46,8.52,8.52,0,0,1,1.43.41,2,2,0,0,1,.83.66,1.6,1.6,0,0,1,.27.92,1.75,1.75,0,0,1-.29,1,1.94,1.94,0,0,1-.85.71,3,3,0,0,1-1.24.25,3.7,3.7,0,0,1-1.46-.25,2.05,2.05,0,0,1-.93-.77A2.18,2.18,0,0,1,167.36,160.47Z"/><path d="M177.57,164.44a7.85,7.85,0,0,1-1.11-1.93,6.07,6.07,0,0,1-.12-4.3,8.4,8.4,0,0,1,1.22-2.21h.57q-.53.91-.7,1.31a7.13,7.13,0,0,0-.42,1.27,7.35,7.35,0,0,0-.19,1.65,7.93,7.93,0,0,0,1.31,4.22Z"/><path d="M182.94,157.68l-.79.06a1.49,1.49,0,0,0-.3-.68,1,1,0,0,0-.79-.34,1.09,1.09,0,0,0-.66.21,1.79,1.79,0,0,0-.59.8,4.13,4.13,0,0,0-.22,1.49,1.83,1.83,0,0,1,.7-.65,1.87,1.87,0,0,1,.87-.21,1.79,1.79,0,0,1,1.35.58,2.09,2.09,0,0,1,.56,1.5,2.48,2.48,0,0,1-.26,1.13,1.91,1.91,0,0,1-.72.8,2,2,0,0,1-1,.28,2,2,0,0,1-1.61-.73,3.67,3.67,0,0,1-.62-2.4,4.3,4.3,0,0,1,.69-2.72,2,2,0,0,1,1.62-.74,1.73,1.73,0,0,1,1.83,1.6Zm-3.23,2.78a1.83,1.83,0,0,0,.17.78,1.29,1.29,0,0,0,.49.57,1.21,1.21,0,0,0,.66.2,1.12,1.12,0,0,0,.86-.4,1.6,1.6,0,0,0,.36-1.1,1.49,1.49,0,0,0-.36-1.05,1.17,1.17,0,0,0-.9-.38,1.22,1.22,0,0,0-.91.38A1.39,1.39,0,0,0,179.71,160.46Z"/><path d="M183.84,159.37a5.91,5.91,0,0,1,.24-1.84,2.29,2.29,0,0,1,.7-1.07,1.78,1.78,0,0,1,1.17-.38,1.9,1.9,0,0,1,.91.21,1.74,1.74,0,0,1,.65.6,3.24,3.24,0,0,1,.4,1,6.37,6.37,0,0,1,.14,1.52,5.92,5.92,0,0,1-.23,1.83,2.29,2.29,0,0,1-.7,1.08,1.79,1.79,0,0,1-1.17.38,1.77,1.77,0,0,1-1.46-.67A4.25,4.25,0,0,1,183.84,159.37Zm.81,0a4,4,0,0,0,.37,2.11,1.06,1.06,0,0,0,1.83,0,6.19,6.19,0,0,0,0-4.22,1.1,1.1,0,0,0-.93-.52,1,1,0,0,0-.87.46A4.08,4.08,0,0,0,184.65,159.37Z"/><path d="M194.61,160.83l.78.1a2,2,0,0,1-.65,1.26,1.9,1.9,0,0,1-1.29.46,2,2,0,0,1-1.54-.63,2.54,2.54,0,0,1-.58-1.8,3.26,3.26,0,0,1,.25-1.32,1.76,1.76,0,0,1,.76-.85,2.27,2.27,0,0,1,1.11-.28,1.94,1.94,0,0,1,1.24.38,1.77,1.77,0,0,1,.62,1.09l-.77.12a1.27,1.27,0,0,0-.39-.71,1,1,0,0,0-.67-.24,1.23,1.23,0,0,0-1,.43,2,2,0,0,0-.37,1.36,2.1,2.1,0,0,0,.36,1.37,1.17,1.17,0,0,0,.94.43,1.11,1.11,0,0,0,.78-.29A1.42,1.42,0,0,0,194.61,160.83Z"/><path d="M196.06,162.54v-4.67h.71v.65a1.66,1.66,0,0,1,.58-.55,1.64,1.64,0,0,1,.83-.21,1.54,1.54,0,0,1,.85.22,1.15,1.15,0,0,1,.47.6,1.68,1.68,0,0,1,1.44-.82,1.42,1.42,0,0,1,1.07.38,1.64,1.64,0,0,1,.37,1.18v3.2h-.79V159.6a2.18,2.18,0,0,0-.08-.68.67.67,0,0,0-.28-.34.87.87,0,0,0-.47-.13,1.11,1.11,0,0,0-.82.33,1.44,1.44,0,0,0-.33,1v2.71h-.79v-3a1.33,1.33,0,0,0-.19-.79.73.73,0,0,0-.63-.26,1.15,1.15,0,0,0-.62.18,1,1,0,0,0-.41.51,2.9,2.9,0,0,0-.13,1v2.42Z"/><path d="M204.08,164.44h-.57a7.93,7.93,0,0,0,1.31-4.22,7.22,7.22,0,0,0-.19-1.64,6.89,6.89,0,0,0-.42-1.27,14.54,14.54,0,0,0-.71-1.32h.57a8.43,8.43,0,0,1,1.22,2.21,6.06,6.06,0,0,1-.12,4.3A8,8,0,0,1,204.08,164.44Z"/><path d="M74.94,173.34l2.47-6.44h.92L81,173.34H80l-.75-2H76.55l-.71,2Zm1.86-2.65H79l-.67-1.78q-.31-.81-.46-1.34a8.1,8.1,0,0,1-.35,1.23Z"/><path d="M81.62,173.34V166.9H84a3,3,0,0,1,1.18.2,1.53,1.53,0,0,1,.7.6,1.58,1.58,0,0,1,.25.85,1.47,1.47,0,0,1-.22.78,1.61,1.61,0,0,1-.68.59,1.69,1.69,0,0,1,.9.58,1.57,1.57,0,0,1,.31,1,1.89,1.89,0,0,1-.19.84,1.63,1.63,0,0,1-.47.6,2,2,0,0,1-.71.32,4.3,4.3,0,0,1-1,.11Zm.85-3.74h1.39a3.11,3.11,0,0,0,.81-.07.91.91,0,0,0,.49-.32.93.93,0,0,0,.17-.56,1,1,0,0,0-.15-.56.78.78,0,0,0-.44-.33,3.67,3.67,0,0,0-1-.09H82.47Zm0,3h1.6a3.69,3.69,0,0,0,.58,0,1.38,1.38,0,0,0,.49-.18.93.93,0,0,0,.33-.36,1.13,1.13,0,0,0,.13-.54,1.07,1.07,0,0,0-.18-.63,1,1,0,0,0-.51-.37,3.18,3.18,0,0,0-.94-.11H82.47Z"/><path d="M87.4,170.21a3.5,3.5,0,0,1,.86-2.51,2.93,2.93,0,0,1,2.22-.91,3.09,3.09,0,0,1,1.61.43,2.79,2.79,0,0,1,1.09,1.19,3.87,3.87,0,0,1,.38,1.73,3.8,3.8,0,0,1-.39,1.75A2.7,2.7,0,0,1,92,173.06a3.2,3.2,0,0,1-1.56.4,3,3,0,0,1-1.63-.44,2.83,2.83,0,0,1-1.08-1.2A3.64,3.64,0,0,1,87.4,170.21Zm.88,0a2.58,2.58,0,0,0,.63,1.83,2.18,2.18,0,0,0,3.16,0,2.74,2.74,0,0,0,.62-1.92,3.29,3.29,0,0,0-.27-1.37,2,2,0,0,0-.78-.91,2.11,2.11,0,0,0-1.15-.32,2.18,2.18,0,0,0-1.56.62A2.78,2.78,0,0,0,88.28,170.22Z"/><path d="M96.5,173.34,94,166.9h.92l1.67,4.68q.2.56.34,1.05.15-.53.35-1.05L99,166.9h.87l-2.52,6.44Z"/><path d="M100.68,173.34V166.9h4.66v.76h-3.81v2h3.56v.76h-3.56v2.19h4v.76Z"/><path d="M108,173.34l2.47-6.44h.92l2.64,6.44h-1l-.75-2h-2.69l-.71,2Zm1.86-2.65H112l-.67-1.78q-.31-.81-.46-1.34a8.1,8.1,0,0,1-.35,1.23Z"/><path d="M114.66,173.34V166.9h.88l3.38,5.06V166.9h.82v6.44h-.87l-3.38-5.06v5.06Z"/><path d="M123,173.34v-2.73l-2.48-3.71h1l1.27,1.94q.35.54.65,1.09.29-.51.7-1.14l1.25-1.89h1l-2.57,3.71v2.73Z"/><path d="M129.51,173.34V166.9h2.43a5.87,5.87,0,0,1,1,.06,2,2,0,0,1,.8.3,1.59,1.59,0,0,1,.52.62,2.1,2.1,0,0,1-.33,2.27,2.51,2.51,0,0,1-1.89.57h-1.65v2.62Zm.85-3.38H132a1.77,1.77,0,0,0,1.17-.31,1.1,1.1,0,0,0,.35-.87,1.16,1.16,0,0,0-.2-.69,1,1,0,0,0-.54-.38,3.64,3.64,0,0,0-.79-.06h-1.65Z"/><path d="M134.14,173.34l2.47-6.44h.92l2.64,6.44h-1l-.75-2h-2.69l-.71,2ZM136,170.7h2.18l-.67-1.78q-.31-.81-.46-1.34a8.1,8.1,0,0,1-.35,1.23Z"/><path d="M140.86,173.34V166.9h2.86a3.8,3.8,0,0,1,1.31.17,1.43,1.43,0,0,1,.72.61,1.83,1.83,0,0,1,.27,1,1.62,1.62,0,0,1-.44,1.16,2.25,2.25,0,0,1-1.37.6,2.21,2.21,0,0,1,.51.32,4.43,4.43,0,0,1,.71.86l1.12,1.75h-1.07l-.85-1.34q-.37-.58-.62-.89a2,2,0,0,0-.43-.43,1.27,1.27,0,0,0-.39-.17,2.56,2.56,0,0,0-.47,0h-1v2.86Zm.85-3.6h1.83a2.75,2.75,0,0,0,.91-.12,1,1,0,0,0,.5-.39,1,1,0,0,0,.17-.58,1,1,0,0,0-.33-.75,1.55,1.55,0,0,0-1-.29h-2Z"/><path d="M146.64,173.34l2.47-6.44H150l2.64,6.44h-1l-.75-2h-2.69l-.71,2Zm1.86-2.65h2.18l-.67-1.78q-.31-.81-.46-1.34a8.1,8.1,0,0,1-.35,1.23Z"/><path d="M153.35,173.34V166.9h2.43a5.87,5.87,0,0,1,1,.06,2,2,0,0,1,.8.3,1.59,1.59,0,0,1,.52.62,2.1,2.1,0,0,1-.33,2.27,2.51,2.51,0,0,1-1.89.57H154.2v2.62Zm.85-3.38h1.67a1.77,1.77,0,0,0,1.17-.31,1.1,1.1,0,0,0,.35-.87,1.16,1.16,0,0,0-.2-.69,1,1,0,0,0-.54-.38,3.64,3.64,0,0,0-.79-.06H154.2Z"/><path d="M159.37,173.34V166.9H164v.76h-3.81v2h3.56v.76h-3.56v2.19h4v.76Z"/><path d="M167,173.34v-5.68h-2.12v-.76H170v.76h-2.13v5.68Z"/><path d="M170,173.34v-.9h.9v.9a1.61,1.61,0,0,1-.18.8,1.15,1.15,0,0,1-.56.47l-.22-.34a.75.75,0,0,0,.37-.32,1.38,1.38,0,0,0,.13-.61Z"/><path d="M176.7,173.34l-2.5-6.44h.92l1.67,4.68q.2.56.34,1.05.15-.53.35-1.05l1.74-4.68h.87l-2.52,6.44Z"/><path d="M180.88,173.34V166.9h4.66v.76h-3.81v2h3.56v.76h-3.56v2.19h4v.76Z"/><path d="M186.87,173.34V166.9h2.86a3.8,3.8,0,0,1,1.31.17,1.43,1.43,0,0,1,.72.61,1.83,1.83,0,0,1,.27,1,1.62,1.62,0,0,1-.44,1.16,2.25,2.25,0,0,1-1.37.6,2.21,2.21,0,0,1,.51.32,4.43,4.43,0,0,1,.71.86l1.12,1.75h-1.07l-.85-1.34q-.37-.58-.62-.89a2,2,0,0,0-.43-.43,1.27,1.27,0,0,0-.39-.17,2.56,2.56,0,0,0-.47,0h-1v2.86Zm.85-3.6h1.83a2.75,2.75,0,0,0,.91-.12,1,1,0,0,0,.5-.39,1,1,0,0,0,.17-.58,1,1,0,0,0-.33-.75,1.55,1.55,0,0,0-1-.29h-2Z"/><path d="M194.84,173.34v-5.68h-2.12v-.76h5.11v.76h-2.13v5.68Z"/><path d="M198.84,173.34V166.9h.85v6.44Z"/><path d="M205.79,171.08l.85.22a2.87,2.87,0,0,1-1,1.6,2.66,2.66,0,0,1-1.7.55,3.05,3.05,0,0,1-1.69-.42,2.64,2.64,0,0,1-1-1.23,4.37,4.37,0,0,1-.34-1.73,3.79,3.79,0,0,1,.38-1.76,2.63,2.63,0,0,1,1.09-1.14,3.19,3.19,0,0,1,1.56-.39,2.64,2.64,0,0,1,1.63.49,2.56,2.56,0,0,1,.92,1.38l-.84.2a2,2,0,0,0-.65-1,1.73,1.73,0,0,0-1.07-.32,2.08,2.08,0,0,0-1.24.36,1.88,1.88,0,0,0-.7,1,3.84,3.84,0,0,0-.2,1.24,3.94,3.94,0,0,0,.24,1.44,1.79,1.79,0,0,0,.75.92,2.09,2.09,0,0,0,1.09.3,1.84,1.84,0,0,0,1.21-.41A2.12,2.12,0,0,0,205.79,171.08Z"/><path d="M207,173.34l2.47-6.44h.92l2.64,6.44h-1l-.75-2H208.6l-.71,2Zm1.86-2.65H211l-.67-1.78q-.31-.81-.46-1.34a8.1,8.1,0,0,1-.35,1.23Z"/><path d="M213.66,173.34V166.9h.85v5.68h3.17v.76Z"/><path d="M76.77,184.14l-1.71-6.44h.88l1,4.22q.16.66.27,1.32.25-1,.29-1.19l1.23-4.35h1l.92,3.26a17.28,17.28,0,0,1,.5,2.28q.12-.61.32-1.4l1-4.14h.86l-1.77,6.44h-.82l-1.36-4.91q-.17-.62-.2-.76c-.07.3-.13.55-.19.76l-1.37,4.91Z"/><path d="M83.1,184.14l2.47-6.44h.92l2.64,6.44h-1l-.75-2H84.71l-.71,2ZM85,181.5h2.18l-.67-1.78q-.31-.81-.46-1.34a8.1,8.1,0,0,1-.35,1.23Z"/><path d="M89.78,184.14V177.7h.85v5.68H93.8v.76Z"/><path d="M94.78,184.14V177.7h.85v5.68h3.17v.76Z"/><path d="M101.73,181a3.5,3.5,0,0,1,.86-2.51,2.93,2.93,0,0,1,2.22-.91,3.09,3.09,0,0,1,1.61.43,2.79,2.79,0,0,1,1.09,1.19,3.87,3.87,0,0,1,.38,1.73,3.8,3.8,0,0,1-.39,1.75,2.7,2.7,0,0,1-1.12,1.17,3.2,3.2,0,0,1-1.56.4,3,3,0,0,1-1.63-.44,2.83,2.83,0,0,1-1.08-1.2A3.64,3.64,0,0,1,101.73,181Zm.88,0a2.58,2.58,0,0,0,.63,1.83,2.18,2.18,0,0,0,3.16,0,2.74,2.74,0,0,0,.62-1.92,3.29,3.29,0,0,0-.27-1.37,2,2,0,0,0-.78-.91,2.11,2.11,0,0,0-1.15-.32,2.18,2.18,0,0,0-1.56.62A2.78,2.78,0,0,0,102.61,181Z"/><path d="M109,184.14V177.7h2.86a3.8,3.8,0,0,1,1.31.17,1.43,1.43,0,0,1,.72.61,1.83,1.83,0,0,1,.27,1,1.62,1.62,0,0,1-.44,1.16,2.25,2.25,0,0,1-1.37.6,2.21,2.21,0,0,1,.51.32,4.43,4.43,0,0,1,.71.86l1.12,1.75h-1.07l-.85-1.34q-.37-.58-.62-.89a2,2,0,0,0-.43-.43,1.27,1.27,0,0,0-.39-.17,2.56,2.56,0,0,0-.47,0h-1v2.86Zm.85-3.6h1.83a2.75,2.75,0,0,0,.91-.12,1,1,0,0,0,.5-.39,1,1,0,0,0,.17-.58,1,1,0,0,0-.33-.75,1.55,1.55,0,0,0-1-.29h-2Z"/><path d="M117.7,182.07l.8-.07a1.76,1.76,0,0,0,.27.79,1.45,1.45,0,0,0,.65.5,2.46,2.46,0,0,0,1,.19,2.37,2.37,0,0,0,.86-.15,1.19,1.19,0,0,0,.56-.4.92.92,0,0,0,.18-.55.84.84,0,0,0-.18-.53,1.3,1.3,0,0,0-.58-.38,11.42,11.42,0,0,0-1.15-.31,5.84,5.84,0,0,1-1.24-.4,1.74,1.74,0,0,1-.69-.6,1.47,1.47,0,0,1-.23-.8,1.63,1.63,0,0,1,.28-.91,1.71,1.71,0,0,1,.81-.64,3.06,3.06,0,0,1,1.18-.22,3.22,3.22,0,0,1,1.26.23,1.83,1.83,0,0,1,.84.68,2,2,0,0,1,.32,1l-.82.06a1.32,1.32,0,0,0-.45-.92,1.74,1.74,0,0,0-1.12-.31,1.8,1.8,0,0,0-1.13.28.85.85,0,0,0-.35.68.73.73,0,0,0,.25.57,3.39,3.39,0,0,0,1.29.46,8.52,8.52,0,0,1,1.43.41,2,2,0,0,1,.83.66,1.6,1.6,0,0,1,.27.92,1.75,1.75,0,0,1-.29,1,1.94,1.94,0,0,1-.85.71,3,3,0,0,1-1.24.25A3.7,3.7,0,0,1,119,184a2.05,2.05,0,0,1-.93-.77A2.18,2.18,0,0,1,117.7,182.07Z"/><path d="M125.63,184.14v-5.68h-2.12v-.76h5.11v.76h-2.13v5.68Z"/><path d="M129.5,184.14V177.7h2.86a3.8,3.8,0,0,1,1.31.17,1.43,1.43,0,0,1,.72.61,1.83,1.83,0,0,1,.27,1,1.62,1.62,0,0,1-.44,1.16,2.25,2.25,0,0,1-1.37.6,2.21,2.21,0,0,1,.51.32,4.43,4.43,0,0,1,.71.86l1.12,1.75h-1.07l-.85-1.34q-.37-.58-.62-.89a2,2,0,0,0-.43-.43,1.27,1.27,0,0,0-.39-.17,2.56,2.56,0,0,0-.47,0h-1v2.86Zm.85-3.6h1.83a2.75,2.75,0,0,0,.91-.12,1,1,0,0,0,.5-.39,1,1,0,0,0,.17-.58,1,1,0,0,0-.33-.75,1.55,1.55,0,0,0-1-.29h-2Z"/><path d="M140.22,177.7h.85v3.72a4.41,4.41,0,0,1-.22,1.54,1.88,1.88,0,0,1-.79.93,2.81,2.81,0,0,1-1.51.36,3.09,3.09,0,0,1-1.48-.31,1.78,1.78,0,0,1-.82-.9,4.3,4.3,0,0,1-.25-1.61V177.7h.85v3.72a3.64,3.64,0,0,0,.16,1.24,1.19,1.19,0,0,0,.54.61,1.86,1.86,0,0,0,.93.22,1.78,1.78,0,0,0,1.34-.43,2.46,2.46,0,0,0,.4-1.64Z"/><path d="M147.09,181.89l.85.22a2.87,2.87,0,0,1-1,1.6,2.66,2.66,0,0,1-1.7.55,3.05,3.05,0,0,1-1.69-.42,2.64,2.64,0,0,1-1-1.23,4.37,4.37,0,0,1-.34-1.73,3.79,3.79,0,0,1,.38-1.76,2.63,2.63,0,0,1,1.09-1.14,3.19,3.19,0,0,1,1.56-.39,2.64,2.64,0,0,1,1.63.49,2.56,2.56,0,0,1,.92,1.38l-.84.2a2,2,0,0,0-.65-1,1.73,1.73,0,0,0-1.07-.32,2.08,2.08,0,0,0-1.24.36,1.88,1.88,0,0,0-.7,1,3.84,3.84,0,0,0-.2,1.24,3.94,3.94,0,0,0,.24,1.44,1.79,1.79,0,0,0,.75.92,2.09,2.09,0,0,0,1.09.3,1.84,1.84,0,0,0,1.21-.41A2.12,2.12,0,0,0,147.09,181.89Z"/><path d="M150.63,184.14v-5.68h-2.12v-.76h5.11v.76h-2.13v5.68Z"/><path d="M158.71,177.7h.85v3.72a4.41,4.41,0,0,1-.22,1.54,1.88,1.88,0,0,1-.79.93,2.81,2.81,0,0,1-1.51.36,3.09,3.09,0,0,1-1.48-.31,1.78,1.78,0,0,1-.82-.9,4.3,4.3,0,0,1-.25-1.61V177.7h.85v3.72a3.64,3.64,0,0,0,.16,1.24,1.19,1.19,0,0,0,.54.61,1.86,1.86,0,0,0,.93.22,1.78,1.78,0,0,0,1.34-.43,2.46,2.46,0,0,0,.4-1.64Z"/><path d="M161,184.14V177.7h2.86a3.8,3.8,0,0,1,1.31.17,1.43,1.43,0,0,1,.72.61,1.83,1.83,0,0,1,.27,1,1.62,1.62,0,0,1-.44,1.16,2.25,2.25,0,0,1-1.37.6,2.21,2.21,0,0,1,.51.32,4.43,4.43,0,0,1,.71.86l1.12,1.75h-1.07l-.85-1.34q-.37-.58-.62-.89a2,2,0,0,0-.43-.43,1.27,1.27,0,0,0-.39-.17,2.56,2.56,0,0,0-.47,0h-1v2.86Zm.85-3.6h1.83a2.75,2.75,0,0,0,.91-.12,1,1,0,0,0,.5-.39,1,1,0,0,0,.17-.58,1,1,0,0,0-.33-.75,1.55,1.55,0,0,0-1-.29h-2Z"/><path d="M167.5,184.14V177.7h4.66v.76h-3.81v2h3.56v.76h-3.56v2.19h4v.76Z"/><path d="M177.11,184.14l-1.71-6.44h.88l1,4.22q.16.66.27,1.32.25-1,.29-1.19L179,177.7h1L181,181a17.28,17.28,0,0,1,.5,2.28q.12-.61.32-1.4l1-4.14h.86l-1.77,6.44h-.82l-1.36-4.91q-.17-.62-.2-.76c-.07.3-.13.55-.19.76L178,184.14Z"/><path d="M184.63,184.14V177.7h.85v6.44Z"/><path d="M188.62,184.14v-5.68H186.5v-.76h5.11v.76h-2.13v5.68Z"/><path d="M192.51,184.14V177.7h.85v2.65h3.35V177.7h.85v6.44h-.85v-3h-3.35v3Z"/><path d="M199.13,184.14V177.7H200v6.44Z"/><path d="M201.47,184.14V177.7h.88l3.38,5.06V177.7h.82v6.44h-.87l-3.38-5.06v5.06Z"/><path d="M78.31,194.94h-.79v-5a4.11,4.11,0,0,1-.75.54,5.29,5.29,0,0,1-.83.41v-.76a4.82,4.82,0,0,0,1.16-.76,3,3,0,0,0,.7-.86h.51Z"/><path d="M80.33,191.77a5.91,5.91,0,0,1,.24-1.84,2.29,2.29,0,0,1,.7-1.07,1.78,1.78,0,0,1,1.17-.38,1.9,1.9,0,0,1,.91.21,1.74,1.74,0,0,1,.65.6,3.24,3.24,0,0,1,.4,1,6.37,6.37,0,0,1,.14,1.52,5.92,5.92,0,0,1-.23,1.83,2.29,2.29,0,0,1-.7,1.08,1.79,1.79,0,0,1-1.17.38,1.77,1.77,0,0,1-1.46-.67A4.25,4.25,0,0,1,80.33,191.77Zm.81,0a4,4,0,0,0,.37,2.11,1.06,1.06,0,0,0,1.83,0,6.19,6.19,0,0,0,0-4.22,1.1,1.1,0,0,0-.93-.52,1,1,0,0,0-.87.46A4.08,4.08,0,0,0,81.15,191.77Z"/><path d="M88.2,194.94V188.5h4.35v.76H89.06v2h3V192h-3v2.93Z"/><path d="M93.68,194.94V188.5h4.66v.76H94.53v2h3.56V192H94.53v2.19h4v.76Z"/><path d="M99.68,194.94V188.5h4.66v.76h-3.81v2h3.56V192h-3.56v2.19h4v.76Z"/><path d="M107.3,194.94v-5.68h-2.12v-.76h5.11v.76h-2.13v5.68Z"/><path d="M114.91,196.84a7.84,7.84,0,0,1-1.11-1.93,6.07,6.07,0,0,1-.12-4.3,8.4,8.4,0,0,1,1.22-2.21h.57q-.53.91-.7,1.31a7.13,7.13,0,0,0-.42,1.27,7.35,7.35,0,0,0-.19,1.65,7.93,7.93,0,0,0,1.31,4.22Z"/><path d="M116.18,193.24l.79-.11a1.74,1.74,0,0,0,.46,1,1.14,1.14,0,0,0,.8.3,1.28,1.28,0,0,0,.94-.39,1.31,1.31,0,0,0,.38-1,1.22,1.22,0,0,0-.36-.9,1.23,1.23,0,0,0-.91-.35,2.27,2.27,0,0,0-.56.09l.09-.69H118a1.63,1.63,0,0,0,.91-.26.9.9,0,0,0,.4-.81,1,1,0,0,0-.29-.72,1,1,0,0,0-.76-.29,1.08,1.08,0,0,0-.77.29,1.46,1.46,0,0,0-.4.87l-.79-.14a2,2,0,0,1,.66-1.23,1.9,1.9,0,0,1,1.28-.44,2.11,2.11,0,0,1,1,.23,1.63,1.63,0,0,1,.68.62,1.58,1.58,0,0,1,.24.83,1.37,1.37,0,0,1-.22.76,1.54,1.54,0,0,1-.66.54,1.5,1.5,0,0,1,.89.55,1.67,1.67,0,0,1,.32,1,1.9,1.9,0,0,1-.62,1.43,2.16,2.16,0,0,1-1.56.59,2,2,0,0,1-1.41-.51A2,2,0,0,1,116.18,193.24Z"/><path d="M123.9,194.94v-4.67h.71v.65a1.66,1.66,0,0,1,.58-.55,1.64,1.64,0,0,1,.83-.21,1.54,1.54,0,0,1,.85.22,1.15,1.15,0,0,1,.47.6,1.68,1.68,0,0,1,1.44-.82,1.42,1.42,0,0,1,1.07.38,1.64,1.64,0,0,1,.37,1.18v3.2h-.79V192a2.18,2.18,0,0,0-.08-.68.67.67,0,0,0-.28-.34.87.87,0,0,0-.47-.13,1.11,1.11,0,0,0-.82.33,1.44,1.44,0,0,0-.33,1v2.71h-.79v-3a1.33,1.33,0,0,0-.19-.79.73.73,0,0,0-.63-.26,1.15,1.15,0,0,0-.62.18,1,1,0,0,0-.41.51,2.9,2.9,0,0,0-.13,1v2.42Z"/><path d="M131.92,196.84h-.57a7.93,7.93,0,0,0,1.31-4.22,7.22,7.22,0,0,0-.19-1.64,6.89,6.89,0,0,0-.42-1.27,14.54,14.54,0,0,0-.71-1.32h.57a8.43,8.43,0,0,1,1.22,2.21,6.06,6.06,0,0,1-.12,4.3A8,8,0,0,1,131.92,196.84Z"/><path d="M137,194.94V188.5h.85v2.65h3.35V188.5h.85v6.44h-.85v-3h-3.35v3Z"/><path d="M143.24,191.81a3.5,3.5,0,0,1,.86-2.51,2.93,2.93,0,0,1,2.22-.91,3.09,3.09,0,0,1,1.61.43A2.79,2.79,0,0,1,149,190a3.87,3.87,0,0,1,.38,1.73,3.8,3.8,0,0,1-.39,1.75,2.7,2.7,0,0,1-1.12,1.17,3.2,3.2,0,0,1-1.56.4,3,3,0,0,1-1.63-.44,2.83,2.83,0,0,1-1.08-1.2A3.64,3.64,0,0,1,143.24,191.81Zm.88,0a2.58,2.58,0,0,0,.63,1.83,2.18,2.18,0,0,0,3.16,0,2.74,2.74,0,0,0,.62-1.92,3.29,3.29,0,0,0-.27-1.37,2,2,0,0,0-.78-.91,2.11,2.11,0,0,0-1.15-.32,2.18,2.18,0,0,0-1.56.62A2.78,2.78,0,0,0,144.12,191.82Z"/><path d="M150.51,194.94V188.5h2.86a3.8,3.8,0,0,1,1.31.17,1.43,1.43,0,0,1,.72.61,1.83,1.83,0,0,1,.27,1,1.62,1.62,0,0,1-.44,1.16,2.25,2.25,0,0,1-1.37.6,2.21,2.21,0,0,1,.51.32,4.43,4.43,0,0,1,.71.86l1.12,1.75h-1.07l-.85-1.34q-.37-.58-.62-.89a2,2,0,0,0-.43-.43,1.27,1.27,0,0,0-.39-.17,2.56,2.56,0,0,0-.47,0h-1v2.86Zm.85-3.6h1.83a2.75,2.75,0,0,0,.91-.12,1,1,0,0,0,.5-.39,1,1,0,0,0,.17-.58,1,1,0,0,0-.33-.75,1.55,1.55,0,0,0-1-.29h-2Z"/><path d="M157.14,194.94V188.5H158v6.44Z"/><path d="M159,194.94v-.79l3.3-4.13q.35-.44.67-.76h-3.59v-.76H164v.76l-3.62,4.47-.39.45h4.11v.76Z"/><path d="M164.74,191.81a3.5,3.5,0,0,1,.86-2.51,2.93,2.93,0,0,1,2.22-.91,3.09,3.09,0,0,1,1.61.43,2.79,2.79,0,0,1,1.09,1.19,3.87,3.87,0,0,1,.38,1.73,3.8,3.8,0,0,1-.39,1.75,2.7,2.7,0,0,1-1.12,1.17,3.2,3.2,0,0,1-1.56.4,3,3,0,0,1-1.63-.44,2.83,2.83,0,0,1-1.08-1.2A3.64,3.64,0,0,1,164.74,191.81Zm.88,0a2.58,2.58,0,0,0,.63,1.83,2.18,2.18,0,0,0,3.16,0,2.74,2.74,0,0,0,.62-1.92,3.29,3.29,0,0,0-.27-1.37,2,2,0,0,0-.78-.91,2.11,2.11,0,0,0-1.15-.32,2.18,2.18,0,0,0-1.56.62A2.78,2.78,0,0,0,165.62,191.82Z"/><path d="M172,194.94V188.5h.88l3.38,5.06V188.5h.82v6.44h-.87l-3.38-5.06v5.06Z"/><path d="M180.13,194.94v-5.68H178v-.76h5.11v.76H181v5.68Z"/><path d="M182.62,194.94l2.47-6.44H186l2.64,6.44h-1l-.75-2h-2.69l-.71,2Zm1.86-2.65h2.18l-.67-1.78q-.31-.81-.46-1.34a8.1,8.1,0,0,1-.35,1.23Z"/><path d="M189.29,194.94V188.5h.85v5.68h3.17v.76Z"/><path d="M194.3,194.94V188.5h.85v5.68h3.17v.76Z"/><path d="M200.49,194.94v-2.73L198,188.5h1l1.27,1.94q.35.54.65,1.09.29-.51.7-1.14l1.25-1.89h1l-2.57,3.71v2.73Z"/><path d="M203.64,194.94V194h.9v.9Z"/><line x1="105.79" y1="115.46" x2="172.46" y2="115.46" style="fill:none;stroke:#000;stroke-width:1.5px"/><line x1="105.73" y1="41.48" x2="172.41" y2="41.48" style="fill:none;stroke:#000;stroke-width:1.5px"/><path d="M103.22,74v.68H99.44a1.24,1.24,0,0,1,.08-.49,2.58,2.58,0,0,1,.46-.76,7.27,7.27,0,0,1,.92-.87,7.78,7.78,0,0,0,1.26-1.21,1.45,1.45,0,0,0,.33-.85.94.94,0,0,0-.3-.71,1.08,1.08,0,0,0-.78-.29,1.1,1.1,0,0,0-.81.3,1.15,1.15,0,0,0-.31.84l-.72-.07a1.78,1.78,0,0,1,.56-1.23,1.9,1.9,0,0,1,1.3-.42,1.82,1.82,0,0,1,1.3.46,1.5,1.5,0,0,1,.48,1.13,1.72,1.72,0,0,1-.14.68,2.63,2.63,0,0,1-.47.7,11.37,11.37,0,0,1-1.08,1q-.63.53-.81.72a2.33,2.33,0,0,0-.3.38Z"/><path d="M106.23,74.69V73.32h-2.48v-.64L106.36,69h.57v3.71h.77v.64h-.77v1.37Zm0-2V70.1l-1.79,2.58Z"/><path d="M111.06,74.69V69h.76v5.73Z"/><path d="M113.15,74.69V69h.78l3,4.5V69h.73v5.73h-.78l-3-4.5v4.5Z"/><path d="M123,72.69l.76.19a2.55,2.55,0,0,1-.86,1.42,2.36,2.36,0,0,1-1.51.49,2.72,2.72,0,0,1-1.51-.38,2.35,2.35,0,0,1-.88-1.09,3.9,3.9,0,0,1-.3-1.54,3.37,3.37,0,0,1,.34-1.56,2.34,2.34,0,0,1,1-1,2.84,2.84,0,0,1,1.39-.35,2.35,2.35,0,0,1,1.45.44,2.27,2.27,0,0,1,.82,1.23l-.75.18a1.77,1.77,0,0,0-.58-.91,1.54,1.54,0,0,0-1-.29,1.85,1.85,0,0,0-1.1.32,1.67,1.67,0,0,0-.62.85,3.43,3.43,0,0,0-.18,1.1,3.49,3.49,0,0,0,.21,1.28,1.59,1.59,0,0,0,.66.81,1.86,1.86,0,0,0,1,.27,1.63,1.63,0,0,0,1.08-.37A1.88,1.88,0,0,0,123,72.69Z"/><path d="M124.74,74.69V69h.76v2.35h3V69h.76v5.73h-.76V72h-3v2.7Z"/><path d="M130.5,74.69V69h4.14v.68h-3.38V71.4h3.17v.67h-3.17V74h3.52v.68Z"/><path d="M135.57,72.85l.71-.06a1.58,1.58,0,0,0,.24.71,1.29,1.29,0,0,0,.58.45,2.18,2.18,0,0,0,.88.17,2.11,2.11,0,0,0,.77-.13,1.06,1.06,0,0,0,.49-.35.82.82,0,0,0,.16-.49.74.74,0,0,0-.16-.47,1.16,1.16,0,0,0-.52-.34,10,10,0,0,0-1-.28,5.22,5.22,0,0,1-1.11-.36,1.55,1.55,0,0,1-.61-.53,1.31,1.31,0,0,1-.2-.71,1.46,1.46,0,0,1,.25-.81,1.52,1.52,0,0,1,.72-.57,2.72,2.72,0,0,1,1.05-.2,2.87,2.87,0,0,1,1.12.21,1.62,1.62,0,0,1,.75.6,1.73,1.73,0,0,1,.28.9l-.73.05a1.17,1.17,0,0,0-.4-.82,1.54,1.54,0,0,0-1-.28,1.6,1.6,0,0,0-1,.25.75.75,0,0,0-.31.61.65.65,0,0,0,.22.51,3,3,0,0,0,1.14.41,7.56,7.56,0,0,1,1.27.37,1.74,1.74,0,0,1,.74.58,1.42,1.42,0,0,1,.24.81,1.56,1.56,0,0,1-.26.86,1.72,1.72,0,0,1-.75.63,2.62,2.62,0,0,1-1.1.22,3.3,3.3,0,0,1-1.3-.23,1.82,1.82,0,0,1-.82-.68A1.94,1.94,0,0,1,135.57,72.85Z"/><path d="M144.64,76.38a7.05,7.05,0,0,1-1-1.72,5.39,5.39,0,0,1-.1-3.82,7.5,7.5,0,0,1,1.09-2h.5q-.47.81-.62,1.16a6.29,6.29,0,0,0-.37,1.13,6.51,6.51,0,0,0-.17,1.47,7.05,7.05,0,0,0,1.17,3.75Z"/><path d="M149.41,70.37l-.7.05a1.33,1.33,0,0,0-.27-.6.93.93,0,0,0-.7-.3,1,1,0,0,0-.59.19,1.6,1.6,0,0,0-.52.71,3.68,3.68,0,0,0-.2,1.32,1.62,1.62,0,0,1,.62-.57,1.67,1.67,0,0,1,.77-.19,1.59,1.59,0,0,1,1.2.52,1.86,1.86,0,0,1,.49,1.34,2.2,2.2,0,0,1-.23,1,1.7,1.7,0,0,1-.64.71,1.74,1.74,0,0,1-.92.25,1.8,1.8,0,0,1-1.43-.65,3.26,3.26,0,0,1-.55-2.13,3.82,3.82,0,0,1,.61-2.41,1.76,1.76,0,0,1,1.44-.66,1.53,1.53,0,0,1,1.63,1.43Zm-2.87,2.47a1.64,1.64,0,0,0,.15.7,1.15,1.15,0,0,0,.43.51,1.08,1.08,0,0,0,.58.17,1,1,0,0,0,.77-.36,1.41,1.41,0,0,0,.32-1,1.32,1.32,0,0,0-.32-.94,1,1,0,0,0-.8-.34,1.09,1.09,0,0,0-.81.34A1.23,1.23,0,0,0,146.54,72.84Z"/><path d="M150.21,71.87a5.23,5.23,0,0,1,.21-1.63,2,2,0,0,1,.62-1,1.59,1.59,0,0,1,1-.34,1.69,1.69,0,0,1,.81.19,1.55,1.55,0,0,1,.57.54,2.86,2.86,0,0,1,.36.85,5.66,5.66,0,0,1,.13,1.35,5.26,5.26,0,0,1-.21,1.63,2,2,0,0,1-.62,1,1.59,1.59,0,0,1-1,.34,1.57,1.57,0,0,1-1.3-.59A3.77,3.77,0,0,1,150.21,71.87Zm.72,0a3.59,3.59,0,0,0,.33,1.88.94.94,0,0,0,1.63,0,5.5,5.5,0,0,0,0-3.75,1,1,0,0,0-.82-.46.9.9,0,0,0-.77.41A3.63,3.63,0,0,0,150.93,71.87Z"/><path d="M159.79,73.17l.69.09a1.79,1.79,0,0,1-.58,1.12,1.69,1.69,0,0,1-1.15.4,1.78,1.78,0,0,1-1.37-.56,2.26,2.26,0,0,1-.52-1.6,2.89,2.89,0,0,1,.22-1.18,1.55,1.55,0,0,1,.68-.76,2,2,0,0,1,1-.25,1.72,1.72,0,0,1,1.11.34,1.57,1.57,0,0,1,.55,1l-.68.11a1.14,1.14,0,0,0-.35-.63.89.89,0,0,0-.6-.21,1.09,1.09,0,0,0-.86.38,1.81,1.81,0,0,0-.33,1.21,1.87,1.87,0,0,0,.32,1.21,1,1,0,0,0,.84.38,1,1,0,0,0,.69-.25A1.26,1.26,0,0,0,159.79,73.17Z"/><path d="M161.08,74.69V70.54h.63v.58a1.48,1.48,0,0,1,.52-.49,1.46,1.46,0,0,1,.74-.19,1.36,1.36,0,0,1,.76.19,1,1,0,0,1,.42.54,1.49,1.49,0,0,1,1.28-.73,1.26,1.26,0,0,1,.95.34,1.46,1.46,0,0,1,.33,1.05v2.85H166V72.08a1.91,1.91,0,0,0-.07-.61.59.59,0,0,0-.25-.3.77.77,0,0,0-.42-.11,1,1,0,0,0-.73.29,1.28,1.28,0,0,0-.29.93v2.41h-.7V72a1.19,1.19,0,0,0-.17-.7.65.65,0,0,0-.56-.23,1,1,0,0,0-.55.16.88.88,0,0,0-.37.46,2.58,2.58,0,0,0-.11.87v2.15Z"/><path d="M168.2,76.38h-.5a7.05,7.05,0,0,0,1.17-3.75,6.4,6.4,0,0,0-.17-1.46,6.12,6.12,0,0,0-.37-1.12,13.29,13.29,0,0,0-.63-1.17h.5a7.5,7.5,0,0,1,1.09,2,5.38,5.38,0,0,1-.1,3.82A7.15,7.15,0,0,1,168.2,76.38Z"/><path d="M86.31,85.69V80h1.14L88.81,84q.19.57.27.85.1-.31.3-.92l1.37-4h1v5.73H91V80.9l-1.66,4.79H88.7L87,80.82v4.88Z"/><path d="M93.13,85.69V80h.76v5.73Z"/><path d="M95.21,85.69V80H96l3,4.5V80h.73v5.73h-.78l-3-4.5v4.5Z"/><path d="M101.13,85.69V80h.76v5.73Z"/><path d="M103.2,85.69V80h1.14L105.69,84q.19.57.27.85.1-.31.3-.92l1.37-4h1v5.73h-.73V80.9l-1.66,4.79h-.68l-1.66-4.87v4.88Z"/><path d="M113.64,80h.76v3.31a3.92,3.92,0,0,1-.2,1.37,1.67,1.67,0,0,1-.71.83,2.5,2.5,0,0,1-1.34.32,2.75,2.75,0,0,1-1.32-.28,1.59,1.59,0,0,1-.73-.8,3.81,3.81,0,0,1-.22-1.44V80h.76v3.3a3.21,3.21,0,0,0,.14,1.1,1.05,1.05,0,0,0,.48.54,1.66,1.66,0,0,0,.83.19,1.58,1.58,0,0,0,1.19-.38,2.18,2.18,0,0,0,.36-1.46Z"/><path d="M115.64,85.69V80h1.14L118.14,84q.19.57.27.85.1-.31.3-.92l1.37-4h1v5.73h-.73V80.9l-1.66,4.79H118l-1.66-4.87v4.88Z"/><path d="M124.57,85.69V80h.76v2.35h3V80h.76v5.73h-.76V83h-3v2.7Z"/><path d="M130.34,85.69V80h4.14v.68H131.1V82.4h3.17v.67H131.1V85h3.52v.68Z"/><path d="M135.79,85.69V80h.76v5.73Z"/><path d="M140.57,83.45v-.67H143V84.9a4.29,4.29,0,0,1-1.15.67,3.41,3.41,0,0,1-1.22.22,3.25,3.25,0,0,1-1.53-.36,2.39,2.39,0,0,1-1-1,3.29,3.29,0,0,1-.35-1.53A3.54,3.54,0,0,1,138,81.3a2.33,2.33,0,0,1,1-1.08,3.15,3.15,0,0,1,1.51-.35,3,3,0,0,1,1.12.2,1.86,1.86,0,0,1,.79.56,2.48,2.48,0,0,1,.43.94l-.68.19a2.11,2.11,0,0,0-.32-.69,1.31,1.31,0,0,0-.55-.4,2,2,0,0,0-.79-.15,2.32,2.32,0,0,0-.9.16,1.68,1.68,0,0,0-.61.42,2,2,0,0,0-.36.57,3,3,0,0,0-.22,1.15,2.8,2.8,0,0,0,.26,1.28,1.69,1.69,0,0,0,.77.77,2.38,2.38,0,0,0,1.07.25,2.54,2.54,0,0,0,1-.19,2.48,2.48,0,0,0,.71-.4V83.45Z"/><path d="M144.13,85.69V80h.76v2.35h3V80h.76v5.73h-.76V83h-3v2.7Z"/><path d="M151.34,85.69V80.64h-1.89V80H154v.68H152.1v5.05Z"/><path d="M155.78,85.69,158,80h.82l2.34,5.73h-.86L159.61,84h-2.39l-.63,1.73Zm1.65-2.35h1.94l-.6-1.59q-.27-.72-.41-1.19a7.33,7.33,0,0,1-.31,1.09Z"/><path d="M161.71,85.69V80h2.15a2.66,2.66,0,0,1,1.05.17,1.35,1.35,0,0,1,.62.54,1.41,1.41,0,0,1,.22.76,1.3,1.3,0,0,1-.2.69,1.42,1.42,0,0,1-.6.52,1.5,1.5,0,0,1,.8.52A1.39,1.39,0,0,1,166,84a1.67,1.67,0,0,1-.17.75,1.44,1.44,0,0,1-.42.53,1.76,1.76,0,0,1-.63.28,3.81,3.81,0,0,1-.92.1Zm.76-3.32h1.24a2.75,2.75,0,0,0,.72-.07.8.8,0,0,0,.44-.29.82.82,0,0,0,.15-.5.92.92,0,0,0-.14-.5.69.69,0,0,0-.39-.3,3.27,3.27,0,0,0-.87-.08h-1.14Zm0,2.64h1.43a3.3,3.3,0,0,0,.52,0,1.24,1.24,0,0,0,.44-.16.83.83,0,0,0,.29-.32,1,1,0,0,0,.11-.48,1,1,0,0,0-.16-.56.86.86,0,0,0-.46-.33,2.82,2.82,0,0,0-.84-.1h-1.32Z"/><path d="M166.85,82.9a3.11,3.11,0,0,1,.77-2.23,2.6,2.6,0,0,1,2-.81,2.75,2.75,0,0,1,1.43.38,2.47,2.47,0,0,1,1,1.06,3.43,3.43,0,0,1,.33,1.54A3.38,3.38,0,0,1,172,84.4a2.4,2.4,0,0,1-1,1,2.85,2.85,0,0,1-1.39.35,2.71,2.71,0,0,1-1.45-.39,2.51,2.51,0,0,1-1-1.07A3.23,3.23,0,0,1,166.85,82.9Zm.78,0a2.29,2.29,0,0,0,.56,1.63,1.94,1.94,0,0,0,2.8,0,2.43,2.43,0,0,0,.55-1.71,2.94,2.94,0,0,0-.24-1.22,1.81,1.81,0,0,0-.69-.81,1.87,1.87,0,0,0-1-.29,1.94,1.94,0,0,0-1.38.55A2.47,2.47,0,0,0,167.63,82.92Z"/><path d="M174.94,85.69,172.72,80h.82L175,84.13q.18.5.3.94.13-.47.31-.94L177.19,80H178l-2.24,5.73Z"/><path d="M178.66,85.69V80h4.14v.68h-3.38V82.4h3.17v.67h-3.17V85h3.52v.68Z"/><path d="M81.28,10.17V4.44H82v5.73Z"/><path d="M83.42,10.17V4.44h3.86v.68H84.18V6.89h2.69v.68H84.18v2.6Z"/><path d="M90.46,10.17V4.44h.76V9.5H94v.68Z"/><path d="M95,10.17V4.44h4.14v.68H95.71V6.87h3.17v.67H95.71V9.5h3.52v.68Z"/><path d="M100,8.33l.71-.06A1.58,1.58,0,0,0,101,9a1.29,1.29,0,0,0,.58.45,2.18,2.18,0,0,0,.88.17,2.11,2.11,0,0,0,.77-.13,1.06,1.06,0,0,0,.49-.35.82.82,0,0,0,.16-.49.75.75,0,0,0-.16-.47,1.16,1.16,0,0,0-.52-.34,10.1,10.1,0,0,0-1-.28A5.23,5.23,0,0,1,101,7.17a1.55,1.55,0,0,1-.61-.53,1.31,1.31,0,0,1-.2-.71,1.46,1.46,0,0,1,.25-.81,1.52,1.52,0,0,1,.72-.57,2.72,2.72,0,0,1,1.05-.2,2.87,2.87,0,0,1,1.12.21,1.62,1.62,0,0,1,.75.6,1.74,1.74,0,0,1,.28.9l-.73.05a1.17,1.17,0,0,0-.4-.82,1.54,1.54,0,0,0-1-.28,1.6,1.6,0,0,0-1,.25.76.76,0,0,0-.31.61.65.65,0,0,0,.22.51,3,3,0,0,0,1.14.41,7.56,7.56,0,0,1,1.27.37,1.73,1.73,0,0,1,.74.58,1.42,1.42,0,0,1,.24.81,1.56,1.56,0,0,1-.26.86,1.72,1.72,0,0,1-.75.63,2.62,2.62,0,0,1-1.1.22,3.3,3.3,0,0,1-1.3-.23,1.83,1.83,0,0,1-.82-.68A1.93,1.93,0,0,1,100,8.33Z"/><path d="M105.35,8.33l.71-.06a1.58,1.58,0,0,0,.24.71,1.29,1.29,0,0,0,.58.45,2.18,2.18,0,0,0,.88.17,2.11,2.11,0,0,0,.77-.13,1.06,1.06,0,0,0,.49-.35.82.82,0,0,0,.16-.49.74.74,0,0,0-.16-.47,1.16,1.16,0,0,0-.52-.34,10,10,0,0,0-1-.28,5.22,5.22,0,0,1-1.11-.36,1.55,1.55,0,0,1-.61-.53,1.31,1.31,0,0,1-.2-.71,1.46,1.46,0,0,1,.25-.81,1.52,1.52,0,0,1,.72-.57,2.72,2.72,0,0,1,1.05-.2,2.87,2.87,0,0,1,1.12.21,1.62,1.62,0,0,1,.75.6,1.73,1.73,0,0,1,.28.9l-.73.05a1.17,1.17,0,0,0-.4-.82,1.54,1.54,0,0,0-1-.28,1.6,1.6,0,0,0-1,.25.75.75,0,0,0-.31.61.65.65,0,0,0,.22.51,3,3,0,0,0,1.14.41,7.56,7.56,0,0,1,1.27.37,1.74,1.74,0,0,1,.74.58,1.42,1.42,0,0,1,.24.81,1.56,1.56,0,0,1-.26.86,1.72,1.72,0,0,1-.75.63,2.62,2.62,0,0,1-1.1.22,3.3,3.3,0,0,1-1.3-.23,1.82,1.82,0,0,1-.82-.68A1.94,1.94,0,0,1,105.35,8.33Z"/><path d="M114.48,10.17V5.12h-1.89V4.44h4.54v.68h-1.89v5.05Z"/><path d="M117.93,10.17V4.44h.76V6.8h3V4.44h.76v5.73h-.76V7.47h-3v2.7Z"/><path d="M123.06,10.17l2.2-5.73h.82l2.34,5.73h-.86l-.67-1.73h-2.39l-.63,1.73Zm1.65-2.35h1.94l-.6-1.59q-.27-.72-.41-1.19a7.33,7.33,0,0,1-.31,1.09Z"/><path d="M129,10.17V4.44h.78l3,4.5V4.44h.73v5.73h-.78l-3-4.5v4.5Z"/><path d="M84.19,23.94h-.7V19.46a3.63,3.63,0,0,1-.67.48,4.7,4.7,0,0,1-.74.36v-.68a4.25,4.25,0,0,0,1-.67,2.64,2.64,0,0,0,.63-.77h.45Z"/><path d="M86,21.12a5.24,5.24,0,0,1,.21-1.63,2,2,0,0,1,.62-1,1.59,1.59,0,0,1,1-.34,1.69,1.69,0,0,1,.81.19,1.54,1.54,0,0,1,.57.54,2.88,2.88,0,0,1,.36.85,5.66,5.66,0,0,1,.13,1.35,5.25,5.25,0,0,1-.21,1.63,2,2,0,0,1-.62,1,1.59,1.59,0,0,1-1,.34,1.57,1.57,0,0,1-1.3-.59A3.77,3.77,0,0,1,86,21.12Zm.72,0A3.59,3.59,0,0,0,87,23a.94.94,0,0,0,1.63,0A3.59,3.59,0,0,0,89,21.12a3.59,3.59,0,0,0-.33-1.88,1,1,0,0,0-.82-.46.9.9,0,0,0-.77.41A3.63,3.63,0,0,0,86.71,21.12Z"/><path d="M93,23.94V18.22h3.86v.68H93.74v1.77h2.69v.68H93.74v2.6Z"/><path d="M97.85,23.94V18.22H102v.68H98.61v1.75h3.17v.67H98.61v1.95h3.52v.68Z"/><path d="M103.18,23.94V18.22h4.14v.68h-3.38v1.75h3.17v.67h-3.17v1.95h3.52v.68Z"/><path d="M110,23.94V18.89h-1.89v-.68h4.54v.68h-1.89v5.05Z"/><path d="M116.72,25.63a7.05,7.05,0,0,1-1-1.72,5.39,5.39,0,0,1-.1-3.82,7.5,7.5,0,0,1,1.09-2h.5q-.47.81-.62,1.16a6.29,6.29,0,0,0-.37,1.13,6.51,6.51,0,0,0-.17,1.47,7.05,7.05,0,0,0,1.17,3.75Z"/><path d="M117.85,22.43l.7-.09a1.55,1.55,0,0,0,.41.86,1,1,0,0,0,.71.26,1.14,1.14,0,0,0,.84-.34,1.16,1.16,0,0,0,.34-.85,1.08,1.08,0,0,0-.32-.8,1.09,1.09,0,0,0-.8-.31,2,2,0,0,0-.5.08l.08-.62h.11a1.45,1.45,0,0,0,.81-.23.8.8,0,0,0,.36-.72.85.85,0,0,0-.26-.64.93.93,0,0,0-.68-.25A1,1,0,0,0,119,19a1.29,1.29,0,0,0-.35.77l-.7-.12a1.81,1.81,0,0,1,.59-1.1,1.69,1.69,0,0,1,1.14-.39,1.87,1.87,0,0,1,.86.2,1.46,1.46,0,0,1,.6.55,1.41,1.41,0,0,1,.21.74,1.21,1.21,0,0,1-.2.68,1.36,1.36,0,0,1-.59.48,1.33,1.33,0,0,1,.79.49,1.48,1.48,0,0,1,.28.92,1.69,1.69,0,0,1-.55,1.27,1.92,1.92,0,0,1-1.38.52,1.8,1.8,0,0,1-1.25-.45A1.74,1.74,0,0,1,117.85,22.43Z"/><path d="M124.71,23.94V19.8h.63v.58a1.48,1.48,0,0,1,.52-.49,1.46,1.46,0,0,1,.74-.19,1.36,1.36,0,0,1,.76.19,1,1,0,0,1,.42.54,1.49,1.49,0,0,1,1.28-.73A1.26,1.26,0,0,1,130,20a1.46,1.46,0,0,1,.33,1.05v2.85h-.7V21.33a1.91,1.91,0,0,0-.07-.61.59.59,0,0,0-.25-.3.77.77,0,0,0-.42-.11,1,1,0,0,0-.73.29,1.28,1.28,0,0,0-.29.93v2.41h-.7v-2.7a1.19,1.19,0,0,0-.17-.7.65.65,0,0,0-.56-.23,1,1,0,0,0-.55.16.88.88,0,0,0-.37.46,2.58,2.58,0,0,0-.11.87v2.15Z"/><path d="M131.84,25.63h-.5a7.05,7.05,0,0,0,1.17-3.75,6.4,6.4,0,0,0-.17-1.46,6.12,6.12,0,0,0-.37-1.12,13.29,13.29,0,0,0-.63-1.17h.5a7.5,7.5,0,0,1,1.09,2,5.38,5.38,0,0,1-.1,3.82A7.15,7.15,0,0,1,131.84,25.63Z"/><line x1="134.4" y1="90.96" x2="134.4" y2="106.46" style="fill:none;stroke:#000"/><path d="M135.42,108.82c.5-1.65,1-2.73,1.49-4.05h-5a39.59,39.59,0,0,1,1.49,4.05,29.56,29.56,0,0,1,1,4.42A29.61,29.61,0,0,1,135.42,108.82Z"/><line x1="134.4" y1="63.46" x2="134.4" y2="48.46" style="fill:none;stroke:#000"/><path d="M133.37,46.1c-.5,1.65-1,2.73-1.49,4.05h5a39.59,39.59,0,0,1-1.49-4.05,29.56,29.56,0,0,1-1-4.42A29.61,29.61,0,0,1,133.37,46.1Z"/><line x1="65.18" y1="107.96" x2="65.18" y2="1.86" style="fill:none;stroke:#000;stroke-width:1.5px"/><line x1="148.01" y1="27.14" x2="148.01" y2="1.86" style="fill:none;stroke:#000;stroke-width:1.5px"/><line x1="72.51" y1="14.5" x2="141.51" y2="14.5" style="fill:none;stroke:#000"/><path d="M143.88,13.48c-1.65-.5-2.73-1-4.05-1.49v5a39.56,39.56,0,0,1,4.05-1.49,29.56,29.56,0,0,1,4.42-1A29.61,29.61,0,0,1,143.88,13.48Z"/><path d="M70.15,15.53A43.18,43.18,0,0,1,74.21,17V12a39.56,39.56,0,0,1-4.05,1.49,29.56,29.56,0,0,1-4.42,1A29.61,29.61,0,0,1,70.15,15.53Z"/></svg>