<svg id="text" xmlns="http://www.w3.org/2000/svg" width="3.56in" height="2.64in" viewBox="0 0 256.19 190.43">
  <defs>
    <style>
      .cls-1, .cls-2, .cls-3 {
        fill: none;
        stroke: #000;
      }

      .cls-1, .cls-2 {
        stroke-linecap: round;
        stroke-linejoin: round;
      }

      .cls-1 {
        stroke-width: 0.5px;
      }

      .cls-2 {
        stroke-width: 0.25px;
      }
    </style>
  </defs>
  <title>gas_vlve__vntri_assmbly_top_vw</title>
  <g>
    <g>
      <g id="SPLINE">
        <line class="cls-1" x1="79.42" y1="140.49" x2="79.49" y2="140.49"/>
      </g>
      <g id="SPLINE-2" data-name="SPLINE">
        <line class="cls-1" x1="83.53" y1="140.5" x2="87.35" y2="140.51"/>
      </g>
      <g id="SPLINE-3" data-name="SPLINE">
        <line class="cls-1" x1="87.37" y1="131.44" x2="83.56" y2="131.44"/>
      </g>
      <g id="SPLINE-4" data-name="SPLINE">
        <line class="cls-1" x1="79.5" y1="131.43" x2="79.44" y2="131.43"/>
      </g>
      <g id="SPLINE-5" data-name="SPLINE">
        <line class="cls-1" x1="96.92" y1="128.01" x2="103.43" y2="128.02"/>
      </g>
      <g id="SPLINE-6" data-name="SPLINE">
        <line class="cls-1" x1="103.46" y1="125.5" x2="126.6" y2="125.54"/>
      </g>
      <g id="SPLINE-7" data-name="SPLINE">
        <line class="cls-1" x1="127.84" y1="114.02" x2="127.84" y2="115.82"/>
      </g>
      <g id="SPLINE-8" data-name="SPLINE">
        <line class="cls-1" x1="135.12" y1="115.8" x2="135.11" y2="114.01"/>
      </g>
      <g id="SPLINE-9" data-name="SPLINE">
        <line class="cls-1" x1="116" y1="96.73" x2="116.01" y2="98.52"/>
      </g>
      <g id="SPLINE-10" data-name="SPLINE">
        <line class="cls-1" x1="123.16" y1="98.51" x2="123.16" y2="96.71"/>
      </g>
      <g id="SPLINE-11" data-name="SPLINE">
        <line class="cls-1" x1="79.27" y1="190.17" x2="87.33" y2="190.18"/>
      </g>
      <g id="SPLINE-12" data-name="SPLINE">
        <line class="cls-1" x1="87.42" y1="182.45" x2="100.24" y2="178.62"/>
      </g>
      <g id="SPLINE-13" data-name="SPLINE">
        <line class="cls-1" x1="96.92" y1="128.01" x2="103.43" y2="128.02"/>
      </g>
      <g id="SPLINE-14" data-name="SPLINE">
        <line class="cls-1" x1="100.24" y1="178.62" x2="151.6" y2="177.2"/>
      </g>
      <g id="SPLINE-15" data-name="SPLINE">
        <line class="cls-1" x1="151.68" y1="127.86" x2="103.45" y2="126.36"/>
      </g>
      <g id="SPLINE-16" data-name="SPLINE">
        <line class="cls-1" x1="103.46" y1="125.5" x2="126.6" y2="125.54"/>
      </g>
      <g id="SPLINE-17" data-name="SPLINE">
        <line class="cls-1" x1="68.01" y1="177.31" x2="79.29" y2="177.33"/>
      </g>
      <g id="SPLINE-18" data-name="SPLINE">
        <line class="cls-1" x1="79.38" y1="127.48" x2="68.1" y2="127.46"/>
      </g>
      <g id="SPLINE-19" data-name="SPLINE">
        <line class="cls-1" x1="151.6" y1="177.2" x2="165.94" y2="177.22"/>
      </g>
      <g id="SPLINE-20" data-name="SPLINE">
        <line class="cls-1" x1="166.02" y1="127.88" x2="151.68" y2="127.86"/>
      </g>
      <g id="SPLINE-21" data-name="SPLINE">
        <path class="cls-1" d="M167.27,153.72c0-.82,0-1.64,0-2.46h0c0-.33,0-.66,0-1h0c0-.54,0-1.08,0-1.61h0c0-.55,0-1.1,0-1.64h0v-1.7h0c0-.58,0-1.15,0-1.71h0v-1.68h0c0-.55,0-1.09,0-1.62h0v-1.54h0q0-.75,0-1.45h0c0-.46,0-.91,0-1.33h0c0-.42,0-.83,0-1.21h0c0-.38,0-.73,0-1.07h0c0-.33,0-.64,0-.93h0c0-.28,0-.55,0-.8h0c0-.24,0-.45,0-.65h0c0-.19,0-.36,0-.52h0c0-.15,0-.28,0-.39h0c0-.11,0-.2,0-.28h0c0-.07,0-.13,0-.19h0s0-.08,0-.12h0a.73.73,0,0,1,0-.08h0a.42.42,0,0,0,0-.1h0l0-.09h0l0-.08h0l-.06-.1h0a.79.79,0,0,0-.12-.14h0a.88.88,0,0,0-.21-.14h0a.53.53,0,0,0-.28-.06h0" transform="translate(-0.45 -1.17)"/>
      </g>
      <g id="SPLINE-22" data-name="SPLINE">
        <path class="cls-1" d="M166.4,178.38a1.22,1.22,0,0,0,.23,0h0a.7.7,0,0,0,.25-.15h0A.73.73,0,0,0,167,178h0l.06-.11h0l0-.09h0a.89.89,0,0,0,0-.1h0s0-.06,0-.07h0a1,1,0,0,0,0-.1h0c0-.07,0-.15,0-.26h0c0-.11,0-.25,0-.42h0c0-.18,0-.4,0-.64h0c0-.23,0-.5,0-.79h0c0-.26,0-.54,0-.85h0c0-.33,0-.68,0-1.05h0c0-.38,0-.79,0-1.22h0q0-.66,0-1.39h0c0-.49,0-1,0-1.54h0q0-.81,0-1.67h0q0-.87,0-1.78h0c0-.61,0-1.23,0-1.87h0q0-.94,0-1.92h0c0-.62,0-1.26,0-1.9h0q0-.91,0-1.85h0c0-.45,0-.9,0-1.35h0c0-.48,0-1,0-1.44h0q0-.94,0-1.9" transform="translate(-0.45 -1.17)"/>
      </g>
      <g id="SPLINE-23" data-name="SPLINE">
        <line class="cls-1" x1="124.17" y1="48.01" x2="124.04" y2="72.45"/>
      </g>
      <g id="SPLINE-24" data-name="SPLINE">
        <line class="cls-1" x1="179.43" y1="71.58" x2="179.55" y2="47.14"/>
      </g>
      <g id="SPLINE-25" data-name="SPLINE">
        <line class="cls-1" x1="106.58" y1="78.72" x2="106.55" y2="85.53"/>
      </g>
      <g id="SPLINE-26" data-name="SPLINE">
        <line class="cls-1" x1="115.61" y1="85.58" x2="115.64" y2="78.77"/>
      </g>
      <g id="SPLINE-27" data-name="SPLINE">
        <line class="cls-1" x1="120.07" y1="78.75" x2="120.04" y2="85.55"/>
      </g>
      <g id="SPLINE-28" data-name="SPLINE">
        <line class="cls-1" x1="129.1" y1="85.6" x2="129.14" y2="78.79"/>
      </g>
      <g id="SPLINE-29" data-name="SPLINE">
        <line class="cls-1" x1="116.85" y1="54.26" x2="115.41" y2="50.21"/>
      </g>
      <g id="SPLINE-30" data-name="SPLINE">
        <line class="cls-1" x1="111.32" y1="52.72" x2="111.32" y2="51.29"/>
      </g>
      <g id="SPLINE-31" data-name="SPLINE">
        <line class="cls-1" x1="117.31" y1="61.35" x2="117.34" y2="57.05"/>
      </g>
      <g id="SPLINE-32" data-name="SPLINE">
        <line class="cls-1" x1="108.05" y1="51.27" x2="108.06" y2="50.55"/>
      </g>
      <g id="SPLINE-33" data-name="SPLINE">
        <line class="cls-1" x1="182.46" y1="121.23" x2="182.48" y2="117.02"/>
      </g>
      <g id="SPLINE-34" data-name="SPLINE">
        <line class="cls-1" x1="174.22" y1="117.01" x2="174.2" y2="121.19"/>
      </g>
      <g id="SPLINE-35" data-name="SPLINE">
        <line class="cls-1" x1="80.71" y1="67.11" x2="80.76" y2="67.11"/>
      </g>
      <g id="SPLINE-36" data-name="SPLINE">
        <line class="cls-1" x1="82" y1="55.03" x2="80.73" y2="55.03"/>
      </g>
      <g id="LWPOLYLINE">
        <polyline class="cls-1" points="79.45 132.74 79.45 133.63 79.45 134.67 79.45 135.79 79.45 136.92 79.44 138 79.44 138.94 79.44 139.69 79.43 140.22 79.43 140.47 79.42 140.44 79.42 140.13 79.42 139.56 79.42 138.76 79.42 137.79 79.42 136.7 79.42 135.57 79.42 134.46 79.42 133.44 79.43 132.58 79.43 131.94 79.44 131.55 79.44 131.43 79.44 131.6 79.45 132.05 79.45 132.74"/>
      </g>
      <g id="ARC">
        <path class="cls-1" d="M87.8,141.68c0-1.94,0-5.81,0-7.76" transform="translate(-0.45 -1.17)"/>
      </g>
      <g id="ARC-2" data-name="ARC">
        <path class="cls-1" d="M87.83,133.92c0-.33,0-1,0-1.31" transform="translate(-0.45 -1.17)"/>
      </g>
      <g id="LWPOLYLINE-2" data-name="LWPOLYLINE">
        <polyline class="cls-1" points="79.44 134.6 79.44 134.19 79.44 134.04 79.43 134.2 79.43 134.62 79.43 135.24 79.42 135.98 79.42 136.71 79.42 137.33 79.43 137.74 79.43 137.88 79.43 137.73 79.44 137.31 79.44 136.69 79.44 135.95 79.44 135.22 79.44 134.6"/>
      </g>
      <g id="LINE">
        <line class="cls-1" x1="96.83" y1="111.63" x2="103.48" y2="111.64"/>
      </g>
      <g id="ARC-3" data-name="ARC">
        <path class="cls-1" d="M103.88,129.19c0-4.1.07-12.27.05-16.38" transform="translate(-0.45 -1.17)"/>
      </g>
      <g id="LINE-2" data-name="LINE">
        <line class="cls-1" x1="96.81" y1="98.55" x2="96.83" y2="111.63"/>
      </g>
      <g id="ARC-4" data-name="ARC">
        <path class="cls-1" d="M127,126.71c0-3,.06-9,0-12.07" transform="translate(-0.45 -1.17)"/>
      </g>
      <g id="LINE-3" data-name="LINE">
        <line class="cls-1" x1="96.81" y1="98.55" x2="103.46" y2="98.56"/>
      </g>
      <g id="LINE-4" data-name="LINE">
        <line class="cls-1" x1="103.46" y1="98.56" x2="103.48" y2="111.64"/>
      </g>
      <g id="LINE-5" data-name="LINE">
        <line class="cls-1" x1="103.46" y1="100.35" x2="117.13" y2="100.37"/>
      </g>
      <g id="LINE-6" data-name="LINE">
        <line class="cls-1" x1="122.02" y1="100.38" x2="126.61" y2="100.39"/>
      </g>
      <g id="LINE-7" data-name="LINE">
        <line class="cls-1" x1="126.61" y1="100.39" x2="126.64" y2="113.47"/>
      </g>
      <g id="LWPOLYLINE-3" data-name="LWPOLYLINE">
        <polyline class="cls-1" points="131.47 118.4 132.45 118.3 133.36 118.03 134.13 117.58 134.7 117.01 135.04 116.34 135.11 115.64 134.91 114.95 134.46 114.32 133.78 113.81 132.94 113.44 131.99 113.25 131 113.25 130.04 113.44 129.19 113.8 128.52 114.31 128.06 114.94 127.85 115.63 127.92 116.33 128.24 117 128.81 117.57 129.58 118.02 130.49 118.3 131.47 118.4"/>
      </g>
      <g id="LINE-8" data-name="LINE">
        <line class="cls-1" x1="129.06" y1="115.81" x2="130.26" y2="117.3"/>
      </g>
      <g id="LINE-9" data-name="LINE">
        <line class="cls-1" x1="130.26" y1="117.3" x2="132.68" y2="117.3"/>
      </g>
      <g id="LINE-10" data-name="LINE">
        <line class="cls-1" x1="132.68" y1="117.3" x2="133.9" y2="115.81"/>
      </g>
      <g id="LINE-11" data-name="LINE">
        <line class="cls-1" x1="133.9" y1="115.81" x2="132.7" y2="114.32"/>
      </g>
      <g id="LINE-12" data-name="LINE">
        <line class="cls-1" x1="132.7" y1="114.32" x2="130.28" y2="114.32"/>
      </g>
      <g id="LINE-13" data-name="LINE">
        <line class="cls-1" x1="130.28" y1="114.32" x2="129.06" y2="115.81"/>
      </g>
      <g id="LWPOLYLINE-4" data-name="LWPOLYLINE">
        <polyline class="cls-1" points="135.11 114.01 135.1 113.84 134.91 113.15 134.45 112.53 133.78 112.01 132.94 111.64 131.98 111.45 130.99 111.45 130.04 111.64 129.19 112 128.51 112.52 128.06 113.14 127.85 113.83 127.84 114.02"/>
      </g>
      <g id="LINE-14" data-name="LINE">
        <line class="cls-1" x1="132.68" y1="116.22" x2="133.46" y2="115.27"/>
      </g>
      <g id="LINE-15" data-name="LINE">
        <line class="cls-1" x1="130.26" y1="116.22" x2="132.68" y2="116.22"/>
      </g>
      <g id="LINE-16" data-name="LINE">
        <line class="cls-1" x1="129.5" y1="115.27" x2="130.26" y2="116.22"/>
      </g>
      <g id="LINE-17" data-name="LINE">
        <line class="cls-1" x1="130.26" y1="116.22" x2="130.26" y2="117.3"/>
      </g>
      <g id="LINE-18" data-name="LINE">
        <line class="cls-1" x1="132.68" y1="116.22" x2="132.68" y2="117.3"/>
      </g>
      <g id="LWPOLYLINE-5" data-name="LWPOLYLINE">
        <polyline class="cls-1" points="119.57 101.06 120.58 100.96 121.51 100.66 122.28 100.19 122.83 99.58 123.12 98.89 123.13 98.16 122.84 97.47 122.3 96.85 121.53 96.38 120.6 96.08 119.6 95.97 118.59 96.07 117.66 96.37 116.89 96.84 116.33 97.45 116.04 98.15 116.04 98.87 116.32 99.57 116.87 100.18 117.64 100.66 118.56 100.96 119.57 101.06"/>
      </g>
      <g id="LINE-19" data-name="LINE">
        <line class="cls-1" x1="117.41" y1="98.51" x2="118.49" y2="99.86"/>
      </g>
      <g id="LINE-20" data-name="LINE">
        <line class="cls-1" x1="118.49" y1="99.86" x2="120.67" y2="99.86"/>
      </g>
      <g id="LINE-21" data-name="LINE">
        <line class="cls-1" x1="120.67" y1="99.86" x2="121.76" y2="98.52"/>
      </g>
      <g id="LINE-22" data-name="LINE">
        <line class="cls-1" x1="121.76" y1="98.52" x2="120.68" y2="97.18"/>
      </g>
      <g id="LINE-23" data-name="LINE">
        <line class="cls-1" x1="120.68" y1="97.18" x2="118.5" y2="97.17"/>
      </g>
      <g id="LINE-24" data-name="LINE">
        <line class="cls-1" x1="118.5" y1="97.17" x2="117.41" y2="98.51"/>
      </g>
      <g id="LWPOLYLINE-6" data-name="LWPOLYLINE">
        <polyline class="cls-1" points="123.16 96.71 123.13 96.36 122.84 95.67 122.29 95.06 121.53 94.58 120.6 94.28 119.59 94.17 118.58 94.28 117.66 94.58 116.89 95.05 116.33 95.66 116.04 96.35 116 96.73"/>
      </g>
      <g id="LINE-25" data-name="LINE">
        <line class="cls-1" x1="120.66" y1="98.78" x2="121.32" y2="97.98"/>
      </g>
      <g id="LINE-26" data-name="LINE">
        <line class="cls-1" x1="118.49" y1="98.78" x2="120.66" y2="98.78"/>
      </g>
      <g id="LINE-27" data-name="LINE">
        <line class="cls-1" x1="117.84" y1="97.98" x2="118.49" y2="98.78"/>
      </g>
      <g id="LINE-28" data-name="LINE">
        <line class="cls-1" x1="118.49" y1="98.78" x2="118.49" y2="99.86"/>
      </g>
      <g id="LINE-29" data-name="LINE">
        <line class="cls-1" x1="120.66" y1="98.78" x2="120.67" y2="99.86"/>
      </g>
      <g id="ARC-5" data-name="ARC">
        <path class="cls-1" d="M79.84,115.89c-.07,4-.13,12-.13,16" transform="translate(-0.45 -1.17)"/>
      </g>
      <g id="LINE-30" data-name="LINE">
        <line class="cls-1" x1="79.39" y1="114.72" x2="79.52" y2="89.59"/>
      </g>
      <g id="LINE-31" data-name="LINE">
        <line class="cls-1" x1="79.52" y1="89.59" x2="79.52" y2="92.42"/>
      </g>
      <g id="LINE-32" data-name="LINE">
        <line class="cls-1" x1="79.52" y1="92.42" x2="79.55" y2="116.82"/>
      </g>
      <g id="LWPOLYLINE-7" data-name="LWPOLYLINE">
        <polyline class="cls-1" points="79.55 116.82 79.55 118.58 79.55 120.48 79.55 122.5 79.55 124.59 79.54 126.72 79.54 128.82 79.53 130.88 79.53 132.85"/>
      </g>
      <g id="LINE-33" data-name="LINE">
        <line class="cls-1" x1="79.53" y1="132.85" x2="79.47" y2="148.9"/>
      </g>
      <g id="ARC-6" data-name="ARC">
        <path class="cls-1" d="M79.92,150.06c0,.59,0,1.78,0,2.38" transform="translate(-0.45 -1.17)"/>
      </g>
      <g id="LWPOLYLINE-8" data-name="LWPOLYLINE">
        <polyline class="cls-1" points="79.19 177.38 79.2 179.68 79.2 181.78 79.21 183.68 79.21 185.35 79.22 186.79 79.23 187.99 79.24 188.93 79.25 189.61 79.26 190.02 79.27 190.17 79.28 190.05 79.29 189.66 79.3 189 79.32 188.08 79.33 186.91 79.34 185.49 79.35 183.84 79.36 181.96 79.38 179.88 79.39 177.59 79.4 175.13 79.41 172.5 79.42 169.73 79.43 166.84 79.44 163.85 79.45 160.77 79.45 157.64 79.46 154.46 79.47 151.27"/>
      </g>
      <g id="LWPOLYLINE-9" data-name="LWPOLYLINE">
        <polyline class="cls-1" points="79.25 174.04 79.26 174.69 79.26 175.73 79.27 176.52 79.28 177.05 79.29 177.31 79.3 177.29 79.31 177 79.32 176.44 79.33 175.62 79.33 174.54 79.35 173.22 79.36 171.67 79.36 169.91 79.38 167.97 79.38 165.84 79.39 163.57 79.4 161.19 79.41 158.7 79.41 156.14 79.42 153.55 79.42 150.94 79.43 148.34 79.43 145.79 79.43 143.32 79.43 140.94 79.43 140.49"/>
      </g>
      <g id="LWPOLYLINE-10" data-name="LWPOLYLINE">
        <polyline class="cls-1" points="79.42 133.69 79.42 132.93 79.42 131.41 79.41 130.13 79.4 129.08 79.4 128.29 79.39 127.76 79.38 127.51 79.37 127.53 79.36 127.81 79.35 128.37 79.34 129.2 79.33 130.27 79.33 130.77"/>
      </g>
      <g id="ARC-7" data-name="ARC">
        <path class="cls-1" d="M83.95,150.07c0,.59,0,1.79,0,2.38" transform="translate(-0.45 -1.17)"/>
      </g>
      <g id="LINE-34" data-name="LINE">
        <line class="cls-1" x1="83.5" y1="148.9" x2="83.55" y2="132.86"/>
      </g>
      <g id="LWPOLYLINE-11" data-name="LWPOLYLINE">
        <polyline class="cls-1" points="83.56 132.86 83.56 130.89 83.57 128.83 83.57 126.72 83.57 124.6 83.58 122.51 83.58 120.49 83.58 118.58 83.58 116.83"/>
      </g>
      <g id="LINE-35" data-name="LINE">
        <line class="cls-1" x1="83.58" y1="116.83" x2="83.55" y2="92.43"/>
      </g>
      <g id="LINE-36" data-name="LINE">
        <line class="cls-1" x1="79.55" y1="116.82" x2="83.58" y2="116.83"/>
      </g>
      <g id="LINE-37" data-name="LINE">
        <line class="cls-1" x1="83.55" y1="132.86" x2="79.53" y2="132.85"/>
      </g>
      <g id="LINE-38" data-name="LINE">
        <line class="cls-1" x1="79.47" y1="148.9" x2="83.5" y2="148.9"/>
      </g>
      <g id="LINE-39" data-name="LINE">
        <line class="cls-1" x1="79.47" y1="151.27" x2="83.49" y2="151.28"/>
      </g>
      <g id="LINE-40" data-name="LINE">
        <line class="cls-1" x1="83.52" y1="141.76" x2="87.53" y2="141.76"/>
      </g>
      <g id="LWPOLYLINE-12" data-name="LWPOLYLINE">
        <polyline class="cls-1" points="87.53 141.76 87.53 144.9 87.53 148.1 87.52 151.32 87.52 154.56 87.51 157.77 87.5 160.95 87.5 164.07 87.49 167.1 87.48 170.02 87.47 172.82 87.45 175.47 87.44 177.94 87.43 180.23 87.42 182.31 87.41 184.18 87.39 185.81 87.38 187.2 87.37 188.33 87.36 189.2 87.34 189.79 87.33 190.12 87.33 190.19"/>
      </g>
      <g id="LINE-41" data-name="LINE">
        <line class="cls-1" x1="87.53" y1="141.76" x2="87.53" y2="137.86"/>
      </g>
      <g id="LINE-42" data-name="LINE">
        <line class="cls-1" x1="96.93" y1="127.68" x2="96.85" y2="149.27"/>
      </g>
      <g id="LWPOLYLINE-13" data-name="LWPOLYLINE">
        <polyline class="cls-1" points="96.94 113.47 96.94 114.92 96.94 116.54 96.94 118.31 96.94 120.16 96.94 122.07 96.94 123.99 96.93 125.88 96.92 127.68"/>
      </g>
      <g id="LINE-43" data-name="LINE">
        <line class="cls-1" x1="96.94" y1="111.63" x2="96.94" y2="113.47"/>
      </g>
      <g id="LINE-44" data-name="LINE">
        <line class="cls-1" x1="79.52" y1="92.42" x2="83.55" y2="92.43"/>
      </g>
      <g id="SPLINE-37" data-name="SPLINE">
        <path class="cls-1" d="M88,146.05c.91.38,1.82.77,2.71,1.17h0c2.24,1,4.43,2.11,6.61,3.22" transform="translate(-0.45 -1.17)"/>
      </g>
      <g id="LINE-45" data-name="LINE">
        <line class="cls-1" x1="87.37" y1="137.86" x2="87.53" y2="137.86"/>
      </g>
      <g id="LWPOLYLINE-14" data-name="LWPOLYLINE">
        <polyline class="cls-1" points="100.24 178.62 100.25 178.49 100.25 178.09 100.26 177.41 100.28 176.48 100.29 175.3 100.3 173.87 100.31 172.23 100.32 170.38 100.33 168.34 100.33 166.14 100.34 163.79 100.35 161.33 100.36 158.77 100.36 156.15 100.37 153.49 100.37 150.82 100.38 148.16 100.38 145.55 100.38 143.01 100.38 140.57 100.38 138.25 100.38 136.08 100.38 134.09 100.37 132.28 100.37 130.68 100.36 129.31 100.36 128.18 100.35 128.01"/>
      </g>
      <g id="LINE-46" data-name="LINE">
        <line class="cls-1" x1="96.94" y1="111.63" x2="103.48" y2="111.64"/>
      </g>
      <g id="ARC-8" data-name="ARC">
        <path class="cls-1" d="M103.88,129.19c0-4.1.07-12.27.05-16.38" transform="translate(-0.45 -1.17)"/>
      </g>
      <g id="LINE-47" data-name="LINE">
        <line class="cls-1" x1="103.46" y1="98.56" x2="103.48" y2="111.64"/>
      </g>
      <g id="LWPOLYLINE-15" data-name="LWPOLYLINE">
        <polyline class="cls-1" points="151.68 127.86 151.68 127.88 151.69 128.13 151.7 128.66 151.71 129.44 151.71 130.47 151.72 131.75 151.72 133.25 151.73 134.97 151.73 136.88 151.73 138.96 151.73 141.18 151.73 143.53 151.73 145.99 151.73 148.51 151.73 151.08 151.72 153.66 151.72 156.23 151.71 158.76 151.7 161.22 151.7 163.58 151.69 165.83 151.68 167.93 151.67 169.86 151.66 171.6 151.65 173.13 151.64 174.44 151.63 175.5 151.62 176.32 151.61 176.87 151.6 177.16 151.6 177.2"/>
      </g>
      <g id="ARC-9" data-name="ARC">
        <path class="cls-1" d="M127,126.71c0-3,.06-9,0-12.07" transform="translate(-0.45 -1.17)"/>
      </g>
      <g id="LINE-48" data-name="LINE">
        <line class="cls-1" x1="126.64" y1="113.47" x2="126.61" y2="100.39"/>
      </g>
      <g id="LWPOLYLINE-16" data-name="LWPOLYLINE">
        <polyline class="cls-1" points="67.96 170.13 67.97 171.86 67.97 173.38 67.98 174.67 67.98 175.71 67.99 176.5 68 177.03 68.01 177.28 68.02 177.27 68.03 176.98 68.04 176.42 68.05 175.6 68.06 174.52 68.07 173.2 68.08 171.65 68.09 169.9 68.1 167.94 68.1 165.82 68.11 163.56 68.12 161.17 68.13 158.68 68.13 156.12 68.14 153.53 68.14 150.92 68.15 148.32 68.15 145.78 68.15 143.3 68.15 140.93 68.15 138.68 68.15 136.57 68.15 134.65 68.14 132.91 68.14 131.4 68.13 130.1 68.13 129.06 68.12 128.27 68.11 127.74 68.1 127.49 68.09 127.5 68.08 127.79 68.07 128.35 68.06 129.18 68.05 130.25 68.04 131.57 68.03 133.12 68.02 134.88 68.01 136.83 68 138.95 68 141.22 67.99 143.61 67.98 146.09 67.98 148.65 67.97 151.25 67.97 153.85 67.96 156.45 67.96 159 67.96 161.47 67.96 163.85 67.96 166.1 67.96 168.2 67.96 170.13"/>
      </g>
      <g id="LWPOLYLINE-17" data-name="LWPOLYLINE">
        <polyline class="cls-1" points="67.97 169.05 67.97 167.18 67.97 165.13 67.97 162.93 67.97 160.6 67.97 158.19 67.97 155.7 67.97 153.17 67.98 150.64 67.98 148.12 67.99 145.66 68 143.28 68 141 68.01 138.85 68.02 136.86 68.03 135.06 68.04 133.46 68.05 132.08 68.06 130.94 68.07 130.05 68.08 129.42 68.09 129.06 68.1 128.98 68.1 129.17 68.11 129.63 68.12 130.36 68.13 131.34 68.13 132.57 68.14 134.04 68.14 135.72 68.14 137.6 68.14 139.65 68.15 141.85 68.14 144.17 68.14 146.59 68.14 149.07 68.14 151.6 68.13 154.14 68.13 156.65 68.12 159.11 68.11 161.5 68.11 163.78 68.1 165.92 68.09 167.91 68.08 169.71 68.07 171.31 68.06 172.69 68.05 173.84 68.04 174.72 68.03 175.35 68.02 175.71 68.01 175.8 68 175.61 68 175.15 67.99 174.42 67.98 173.43 67.98 172.19 67.97 170.73 67.97 169.05"/>
      </g>
      <g id="LINE-49" data-name="LINE">
        <line class="cls-1" x1="83.56" y1="98.52" x2="103.46" y2="98.56"/>
      </g>
      <g id="LINE-50" data-name="LINE">
        <line class="cls-1" x1="103.46" y1="100.35" x2="117.13" y2="100.37"/>
      </g>
      <g id="LINE-51" data-name="LINE">
        <line class="cls-1" x1="122.02" y1="100.38" x2="126.61" y2="100.39"/>
      </g>
      <g id="LINE-52" data-name="LINE">
        <line class="cls-1" x1="138.73" y1="89.69" x2="138.74" y2="92.52"/>
      </g>
      <g id="LINE-53" data-name="LINE">
        <line class="cls-1" x1="138.58" y1="127.45" x2="138.59" y2="121.44"/>
      </g>
      <g id="LINE-54" data-name="LINE">
        <line class="cls-1" x1="138.74" y1="92.52" x2="138.59" y2="121.44"/>
      </g>
      <g id="LINE-55" data-name="LINE">
        <line class="cls-1" x1="79.52" y1="89.59" x2="138.73" y2="89.69"/>
      </g>
      <g id="LINE-56" data-name="LINE">
        <line class="cls-1" x1="138.74" y1="92.52" x2="83.55" y2="92.43"/>
      </g>
      <g id="LINE-57" data-name="LINE">
        <line class="cls-1" x1="138.59" y1="121.44" x2="126.63" y2="121.42"/>
      </g>
      <g id="LWPOLYLINE-18" data-name="LWPOLYLINE">
        <polyline class="cls-1" points="129.3 96.81 129.44 96.26 129.83 95.77 130.44 95.41 131.18 95.22 131.97 95.22 132.71 95.42 133.31 95.78 133.7 96.27 133.83 96.82 133.69 97.37 133.29 97.85 132.69 98.21 131.95 98.4 131.16 98.4 130.42 98.21 129.82 97.85 129.43 97.36 129.3 96.81"/>
      </g>
      <g id="LWPOLYLINE-19" data-name="LWPOLYLINE">
        <polyline class="cls-1" points="104.63 96.77 104.77 96.16 105.16 95.61 105.78 95.17 106.55 94.9 107.41 94.8 108.26 94.9 109.03 95.18 109.64 95.62 110.03 96.17 110.17 96.78 110.03 97.39 109.63 97.93 109.02 98.37 108.24 98.65 107.39 98.74 106.53 98.64 105.76 98.36 105.15 97.93 104.76 97.38 104.63 96.77"/>
      </g>
      <g id="LWPOLYLINE-20" data-name="LWPOLYLINE">
        <polyline class="cls-1" points="131.63 103.44 132.49 103.54 133.26 103.82 133.87 104.26 134.26 104.81 134.39 105.42 134.25 106.03 133.86 106.58 133.24 107.01 132.47 107.29 131.61 107.39 130.75 107.29 129.99 107 129.37 106.57 128.98 106.02 128.85 105.41 128.99 104.8 129.38 104.25 130 103.82 130.78 103.54 131.63 103.44"/>
      </g>
      <g id="ARC-10" data-name="ARC">
        <path class="cls-1" d="M130.14,105.17a3.52,3.52,0,0,0,3.86,0" transform="translate(-0.45 -1.17)"/>
      </g>
      <g id="LWPOLYLINE-21" data-name="LWPOLYLINE">
        <polyline class="cls-1" points="177.05 53.25 178.08 51.9 178.84 50.47 179.34 48.97 179.55 47.44 179.47 45.91 179.1 44.39 178.46 42.92 177.54 41.53 176.38 40.23 174.98 39.04 173.37 38 171.58 37.11 169.65 36.39 167.59 35.86 165.46 35.52 163.28 35.38 161.09 35.45 158.94 35.71"/>
      </g>
      <g id="LINE-58" data-name="LINE">
        <line class="cls-1" x1="177.05" y1="53.25" x2="177.06" y2="62.99"/>
      </g>
      <g id="LINE-59" data-name="LINE">
        <line class="cls-1" x1="177.06" y1="62.99" x2="135.78" y2="62.92"/>
      </g>
      <g id="LINE-60" data-name="LINE">
        <line class="cls-1" x1="135.78" y1="62.92" x2="135.77" y2="58.66"/>
      </g>
      <g id="LWPOLYLINE-22" data-name="LWPOLYLINE">
        <polyline class="cls-1" points="132.97 40.16 131.24 40.56 129.62 41.15 128.15 41.91 126.88 42.82 125.82 43.86 125.01 45 124.46 46.22 124.19 47.49 124.22 48.77 124.52 50.03 125.1 51.24 125.95 52.38 127.04 53.41 128.35 54.3"/>
      </g>
      <g id="LINE-61" data-name="LINE">
        <path class="cls-1" d="M140.56,40.11l18.83-3.23" transform="translate(-0.45 -1.17)"/>
      </g>
      <g id="LINE-62" data-name="LINE">
        <line class="cls-1" x1="177.06" y1="62.99" x2="176.94" y2="87.43"/>
      </g>
      <g id="LINE-63" data-name="LINE">
        <line class="cls-1" x1="138.67" y1="87.37" x2="176.94" y2="87.43"/>
      </g>
      <g id="LINE-64" data-name="LINE">
        <line class="cls-1" x1="138.67" y1="87.37" x2="135.65" y2="87.36"/>
      </g>
      <g id="LINE-65" data-name="LINE">
        <line class="cls-1" x1="135.65" y1="87.36" x2="135.78" y2="62.92"/>
      </g>
      <g id="LINE-66" data-name="LINE">
        <line class="cls-1" x1="135.65" y1="87.36" x2="135.64" y2="83.1"/>
      </g>
      <g id="LINE-67" data-name="LINE">
        <line class="cls-1" x1="135.64" y1="83.1" x2="135.77" y2="58.66"/>
      </g>
      <g id="LINE-68" data-name="LINE">
        <line class="cls-1" x1="135.64" y1="83.1" x2="129.13" y2="79.28"/>
      </g>
      <g id="ARC-11" data-name="ARC">
        <path class="cls-1" d="M124.49,73.62a6.07,6.07,0,0,0,.88,3.14" transform="translate(-0.45 -1.17)"/>
      </g>
      <g id="ARC-12" data-name="ARC">
        <path class="cls-1" d="M177.37,78.86a9.25,9.25,0,0,0,2.51-6.12" transform="translate(-0.45 -1.17)"/>
      </g>
      <g id="LWPOLYLINE-23" data-name="LWPOLYLINE">
        <polyline class="cls-1" points="111.08 88.74 109.96 88.64 108.9 88.34 107.98 87.87 107.25 87.25 106.77 86.53 106.55 85.75 106.55 85.53"/>
      </g>
      <g id="LWPOLYLINE-24" data-name="LWPOLYLINE">
        <polyline class="cls-1" points="115.61 85.58 115.6 85.76 115.39 86.55 114.91 87.27 114.18 87.88 113.26 88.35 112.21 88.64 111.08 88.74"/>
      </g>
      <g id="LWPOLYLINE-25" data-name="LWPOLYLINE">
        <polyline class="cls-1" points="111.12 81.93 112.25 81.83 113.3 81.54 114.22 81.07 114.94 80.46 115.42 79.74 115.63 78.95 115.56 78.16 115.21 77.4 114.6 76.72 113.77 76.17 112.77 75.79 111.67 75.59 110.54 75.59 109.44 75.78 108.44 76.17 107.62 76.71 107.01 77.38 106.66 78.14 106.59 78.94 106.8 79.72 107.29 80.44 108.01 81.06 108.93 81.53 109.99 81.83 111.12 81.93"/>
      </g>
      <g id="LWPOLYLINE-26" data-name="LWPOLYLINE">
        <polyline class="cls-1" points="124.58 88.76 123.45 88.66 122.39 88.36 121.47 87.89 120.75 87.28 120.26 86.55 120.05 85.77 120.04 85.55"/>
      </g>
      <g id="LWPOLYLINE-27" data-name="LWPOLYLINE">
        <polyline class="cls-1" points="129.1 85.6 129.09 85.78 128.88 86.57 128.4 87.29 127.68 87.9 126.76 88.37 125.7 88.66 124.58 88.76"/>
      </g>
      <g id="LWPOLYLINE-28" data-name="LWPOLYLINE">
        <polyline class="cls-1" points="124.61 81.95 125.74 81.85 126.79 81.56 127.71 81.09 128.43 80.48 128.92 79.76 129.13 78.98 129.06 78.18 128.7 77.42 128.09 76.75 127.26 76.2 126.27 75.81 125.17 75.61 124.03 75.61 122.93 75.81 121.94 76.19 121.11 76.73 120.5 77.41 120.15 78.16 120.08 78.96 120.3 79.74 120.78 80.47 121.51 81.08 122.43 81.55 123.48 81.85 124.61 81.95"/>
      </g>
      <g id="LWPOLYLINE-29" data-name="LWPOLYLINE">
        <path class="cls-1" d="M108.84,68.28c5.26-1.87,10.49-6.79,8.46-12.85" transform="translate(-0.45 -1.17)"/>
        <path class="cls-1" d="M86,60.59c2.12,6.2,9.11,8.5,15.07,8.79" transform="translate(-0.45 -1.17)"/>
      </g>
      <g id="SPLINE-38" data-name="SPLINE">
        <line class="cls-1" x1="85.51" y1="59.42" x2="87.08" y2="55.12"/>
      </g>
      <g id="LWPOLYLINE-30" data-name="LWPOLYLINE">
        <path class="cls-1" d="M103.11,64c6.41-.31,15.89-5.45,12.52-13.2-3-6.9-13-8.36-19.46-6.5a17.57,17.57,0,0,0-5,2.37" transform="translate(-0.45 -1.17)"/>
        <path class="cls-1" d="M87.53,56.29c1.75,4.62,6.73,6.85,11.29,7.58" transform="translate(-0.45 -1.17)"/>
      </g>
      <g id="LWPOLYLINE-31" data-name="LWPOLYLINE">
        <path class="cls-1" d="M95.57,59.41a8.11,8.11,0,0,1-3.3-3.11" transform="translate(-0.45 -1.17)"/>
        <path class="cls-1" d="M111.77,53.89c-.18,5.25-6.64,7.28-11,7" transform="translate(-0.45 -1.17)"/>
      </g>
      <g id="LINE-69" data-name="LINE">
        <line class="cls-1" x1="87.08" y1="55.12" x2="91.82" y2="55.13"/>
      </g>
      <g id="LINE-70" data-name="LINE">
        <path class="cls-1" d="M84.58,48.84h3.85" transform="translate(-0.45 -1.17)"/>
      </g>
      <g id="LWPOLYLINE-32" data-name="LWPOLYLINE">
        <path class="cls-1" d="M99.93,59.34c5.48.81,15.85-3.82,10.43-10.5C106.39,44,97,44.2,93,48.85" transform="translate(-0.45 -1.17)"/>
      </g>
      <g id="LINE-71" data-name="LINE">
        <line class="cls-1" x1="84.14" y1="53.68" x2="91.83" y2="53.7"/>
      </g>
      <g id="LINE-72" data-name="LINE">
        <line class="cls-1" x1="84.14" y1="53.68" x2="84.13" y2="47.67"/>
      </g>
      <g id="LWPOLYLINE-33" data-name="LWPOLYLINE">
        <path class="cls-1" d="M108.5,52.44c-.19,4.85-7.35,5.54-10.67,3.86" transform="translate(-0.45 -1.17)"/>
      </g>
      <g id="LINE-73" data-name="LINE">
        <line class="cls-1" x1="91.82" y1="55.13" x2="91.83" y2="53.7"/>
      </g>
      <g id="LINE-74" data-name="LINE">
        <line class="cls-1" x1="82.06" y1="76.23" x2="82.09" y2="70.49"/>
      </g>
      <g id="LINE-75" data-name="LINE">
        <line class="cls-1" x1="82.02" y1="56.57" x2="82.06" y2="76.23"/>
      </g>
      <g id="LINE-76" data-name="LINE">
        <line class="cls-1" x1="82.01" y1="52.82" x2="82" y2="56.57"/>
      </g>
      <g id="LINE-77" data-name="LINE">
        <line class="cls-1" x1="82.01" y1="52.82" x2="82.02" y2="53.53"/>
      </g>
      <g id="LINE-78" data-name="LINE">
        <line class="cls-1" x1="82.05" y1="47.8" x2="82.02" y2="53.53"/>
      </g>
      <g id="LINE-79" data-name="LINE">
        <line class="cls-1" x1="82.09" y1="70.49" x2="82.05" y2="47.8"/>
      </g>
      <g id="LINE-80" data-name="LINE">
        <line class="cls-1" x1="82.01" y1="52.82" x2="82.02" y2="52.82"/>
      </g>
      <g id="LINE-81" data-name="LINE">
        <line class="cls-1" x1="120.32" y1="52.89" x2="124.14" y2="52.9"/>
      </g>
      <g id="LINE-82" data-name="LINE">
        <line class="cls-1" x1="186.55" y1="56.61" x2="179.51" y2="56.6"/>
      </g>
      <g id="LINE-83" data-name="LINE">
        <line class="cls-1" x1="186.55" y1="56.61" x2="186.6" y2="83.91"/>
      </g>
      <g id="LINE-84" data-name="LINE">
        <line class="cls-1" x1="186.6" y1="83.91" x2="176.96" y2="83.9"/>
      </g>
      <g id="LINE-85" data-name="LINE">
        <line class="cls-1" x1="138.67" y1="87.37" x2="138.67" y2="88.78"/>
      </g>
      <g id="LINE-86" data-name="LINE">
        <line class="cls-1" x1="138.67" y1="88.78" x2="124.58" y2="88.76"/>
      </g>
      <g id="LINE-87" data-name="LINE">
        <line class="cls-1" x1="124.58" y1="88.76" x2="111.08" y2="88.74"/>
      </g>
      <g id="LINE-88" data-name="LINE">
        <line class="cls-1" x1="111.08" y1="88.74" x2="99.2" y2="88.72"/>
      </g>
      <g id="LINE-89" data-name="LINE">
        <line class="cls-1" x1="99.19" y1="82" x2="99.2" y2="88.72"/>
      </g>
      <g id="LINE-90" data-name="LINE">
        <line class="cls-1" x1="98.48" y1="82" x2="99.19" y2="82"/>
      </g>
      <g id="ARC-13" data-name="ARC">
        <path class="cls-1" d="M97.92,82.45a.9.9,0,0,0,1,.71" transform="translate(-0.45 -1.17)"/>
      </g>
      <g id="LINE-91" data-name="LINE">
        <line class="cls-1" x1="97.47" y1="80.44" x2="97.47" y2="81.29"/>
      </g>
      <g id="LINE-92" data-name="LINE">
        <line class="cls-1" x1="120.06" y1="80.48" x2="115.63" y2="80.47"/>
      </g>
      <g id="LINE-93" data-name="LINE">
        <line class="cls-1" x1="106.57" y1="80.45" x2="97.47" y2="80.44"/>
      </g>
      <g id="LINE-94" data-name="LINE">
        <line class="cls-1" x1="138.67" y1="88.78" x2="138.67" y2="89.69"/>
      </g>
      <g id="LINE-95" data-name="LINE">
        <line class="cls-1" x1="99.2" y1="88.72" x2="99.19" y2="89.63"/>
      </g>
      <g id="LINE-96" data-name="LINE">
        <line class="cls-1" x1="99.15" y1="89.63" x2="99.19" y2="82"/>
      </g>
      <g id="LWPOLYLINE-34" data-name="LWPOLYLINE">
        <path class="cls-1" d="M102.6,73.72c-6.29.31-14.43-2.3-16.67-8.84" transform="translate(-0.45 -1.17)"/>
        <path class="cls-1" d="M117.76,62.52c-.19,4.39-3.38,7.48-7.12,9.32" transform="translate(-0.45 -1.17)"/>
      </g>
      <g id="LINE-97" data-name="LINE">
        <line class="cls-1" x1="85.49" y1="63.72" x2="85.51" y2="59.42"/>
      </g>
      <g id="LWPOLYLINE-35" data-name="LWPOLYLINE">
        <path class="cls-1" d="M96.94,55.06c3.5,2.42,14.3,1,11.06-5.11-2.38-4.5-12.81-4.14-13.09,1.72" transform="translate(-0.45 -1.17)"/>
      </g>
      <g id="LINE-98" data-name="LINE">
        <line class="cls-1" x1="120.36" y1="74.74" x2="120.31" y2="47.86"/>
      </g>
      <g id="LINE-99" data-name="LINE">
        <path class="cls-1" d="M116.66,75.9h4.15" transform="translate(-0.45 -1.17)"/>
        <path class="cls-1" d="M97.65,75.87h7.17" transform="translate(-0.45 -1.17)"/>
      </g>
      <g id="LINE-100" data-name="LINE">
        <line class="cls-1" x1="97.2" y1="74.7" x2="97.2" y2="74.04"/>
      </g>
      <g id="ARC-14" data-name="ARC">
        <path class="cls-1" d="M88.5,71.67a21.87,21.87,0,0,0,9.15,3.54" transform="translate(-0.45 -1.17)"/>
      </g>
      <g id="LINE-101" data-name="LINE">
        <line class="cls-1" x1="82.09" y1="70.49" x2="88.05" y2="70.5"/>
      </g>
      <g id="LINE-102" data-name="LINE">
        <line class="cls-1" x1="82.05" y1="47.8" x2="84.13" y2="47.8"/>
      </g>
      <g id="LINE-103" data-name="LINE">
        <line class="cls-1" x1="114.11" y1="47.85" x2="120.31" y2="47.86"/>
      </g>
      <g id="LINE-104" data-name="LINE">
        <line class="cls-1" x1="84.09" y1="63.72" x2="84.08" y2="57.7"/>
      </g>
      <g id="LINE-105" data-name="LINE">
        <line class="cls-1" x1="84.09" y1="63.72" x2="85.49" y2="63.72"/>
      </g>
      <g id="LINE-106" data-name="LINE">
        <line class="cls-1" x1="97.2" y1="74.7" x2="97.17" y2="80.44"/>
      </g>
      <g id="LINE-107" data-name="LINE">
        <line class="cls-1" x1="97.17" y1="79.77" x2="97.17" y2="80.44"/>
      </g>
      <g id="LINE-108" data-name="LINE">
        <line class="cls-1" x1="97.2" y1="74.04" x2="97.17" y2="79.77"/>
      </g>
      <g id="LINE-109" data-name="LINE">
        <line class="cls-1" x1="120.36" y1="74.74" x2="120.35" y2="77.67"/>
      </g>
      <g id="LINE-110" data-name="LINE">
        <line class="cls-1" x1="97.17" y1="80.44" x2="97.47" y2="80.44"/>
      </g>
      <g id="ARC-15" data-name="ARC">
        <path class="cls-1" d="M91,78.92a23.33,23.33,0,0,0,6.57,2" transform="translate(-0.45 -1.17)"/>
      </g>
      <g id="ARC-16" data-name="ARC">
        <path class="cls-1" d="M88.47,77.4A18.71,18.71,0,0,0,91,78.92" transform="translate(-0.45 -1.17)"/>
      </g>
      <g id="LINE-111" data-name="LINE">
        <line class="cls-1" x1="88.02" y1="76.23" x2="88.05" y2="70.5"/>
      </g>
      <g id="LINE-112" data-name="LINE">
        <line class="cls-1" x1="84.09" y1="63.72" x2="84.14" y2="53.68"/>
      </g>
      <g id="LINE-113" data-name="LINE">
        <line class="cls-1" x1="84.13" y1="47.67" x2="84.08" y2="57.7"/>
      </g>
      <g id="LINE-114" data-name="LINE">
        <line class="cls-1" x1="138.61" y1="116.95" x2="186.43" y2="117.03"/>
      </g>
      <g id="LINE-115" data-name="LINE">
        <line class="cls-1" x1="186.6" y1="83.91" x2="186.43" y2="117.03"/>
      </g>
      <g id="LINE-116" data-name="LINE">
        <line class="cls-1" x1="82.06" y1="76.23" x2="88.02" y2="76.23"/>
      </g>
      <g id="LINE-117" data-name="LINE">
        <line class="cls-1" x1="97.42" y1="89.62" x2="97.47" y2="80.44"/>
      </g>
      <g id="LINE-118" data-name="LINE">
        <line class="cls-1" x1="85.28" y1="79.5" x2="85.22" y2="89.6"/>
      </g>
      <g id="ARC-17" data-name="ARC">
        <path class="cls-1" d="M91,78.92a9.72,9.72,0,0,0-5.32,1.75" transform="translate(-0.45 -1.17)"/>
      </g>
      <g id="LINE-119" data-name="LINE">
        <line class="cls-1" x1="80.8" y1="89.6" x2="80.85" y2="79.49"/>
      </g>
      <g id="LINE-120" data-name="LINE">
        <line class="cls-1" x1="80.85" y1="79.49" x2="85.28" y2="79.5"/>
      </g>
      <g id="LINE-121" data-name="LINE">
        <line class="cls-1" x1="80.7" y1="89.6" x2="80.68" y2="82.09"/>
      </g>
      <g id="LINE-122" data-name="LINE">
        <line class="cls-1" x1="80.68" y1="82.09" x2="80.81" y2="56.57"/>
      </g>
      <g id="LINE-123" data-name="LINE">
        <line class="cls-1" x1="80.81" y1="56.57" x2="80.85" y2="79.49"/>
      </g>
      <g id="LWPOLYLINE-36" data-name="LWPOLYLINE">
        <polyline class="cls-1" points="80.77 88.52 80.77 89.55 80.77 89.6"/>
      </g>
      <g id="LWPOLYLINE-37" data-name="LWPOLYLINE">
        <path class="cls-1" d="M81.22,89.68" transform="translate(-0.45 -1.17)"/>
        <polyline class="cls-1" points="80.73 89.6 80.73 88.88 80.73 87.71 80.73 86.38 80.73 84.93 80.73 83.38 80.73 81.8 80.73 80.22 80.74 78.69 80.74 77.25 80.75 75.95 80.75 74.82 80.76 73.89 80.77 73.2 80.77 72.75 80.78 72.58 80.78 72.67 80.79 73.02 80.79 73.64 80.79 74.49 80.8 75.56 80.8 76.81 80.8 78.2 80.8 79.71 80.8 81.28 80.79 82.87 80.79 84.43 80.78 85.92 80.78 87.29 80.77 88.52"/>
      </g>
      <g id="SPLINE-39" data-name="SPLINE">
        <path class="cls-1" d="M81.16,79.29c0,.06,0,.11,0,.18h0c0,.08,0,.17,0,.27h0q0,.16,0,.32h0c0,.17,0,.34,0,.51h0V81h0c0,.11,0,.18,0,.23h0s0,.06,0,0h0s0,0,0,0h0s0-.05,0-.1h0s0-.08,0-.14h0c0-.05,0-.11,0-.18h0c0-.08,0-.17,0-.26h0c0-.11,0-.22,0-.32h0c0-.17,0-.34,0-.51h0v-.42h0c0-.11,0-.18,0-.23h0s0-.06,0,0h0v0h0s0,.05,0,.1h0s0,.09,0,.14" transform="translate(-0.45 -1.17)"/>
      </g>
      <g id="SPLINE-40" data-name="SPLINE">
        <path class="cls-1" d="M81.26,83.58c0,.06,0,.11,0,.18h0c0,.08,0,.17,0,.27h0q0,.16,0,.32h0c0,.17,0,.34,0,.51h0v.42h0c0,.11,0,.18,0,.23h0s0,.06,0,0h0s0,0,0,0h0s0-.05,0-.1h0s0-.08,0-.14h0c0-.05,0-.11,0-.18h0c0-.08,0-.17,0-.26h0c0-.11,0-.21,0-.32h0c0-.17,0-.34,0-.51h0v-.42h0c0-.11,0-.19,0-.23h0s0-.06,0,0h0v.05h0s0,.05,0,.1h0s0,.09,0,.14" transform="translate(-0.45 -1.17)"/>
      </g>
      <g id="SPLINE-41" data-name="SPLINE">
        <path class="cls-1" d="M81.23,66.73c0,.06,0,.11,0,.18h0c0,.08,0,.17,0,.27h0c0,.11,0,.22,0,.32h0c0,.17,0,.34,0,.51h0c0,.16,0,.31,0,.42h0c0,.11,0,.18,0,.23h0s0,.06,0,0h0v0h0s0-.05,0-.1h0s0-.08,0-.14h0c0-.05,0-.11,0-.17h0c0-.08,0-.17,0-.27h0c0-.11,0-.22,0-.32h0c0-.17,0-.34,0-.51h0c0-.16,0-.31,0-.42h0c0-.11,0-.18,0-.23h0s0-.06,0,0h0v0h0s0,.05,0,.1h0s0,.09,0,.14" transform="translate(-0.45 -1.17)"/>
      </g>
      <g id="LINE-124" data-name="LINE">
        <line class="cls-1" x1="82.02" y1="56.57" x2="80.81" y2="56.57"/>
      </g>
      <g id="LWPOLYLINE-38" data-name="LWPOLYLINE">
        <polyline class="cls-1" points="182.46 121.22 182.32 121.97 181.91 122.67 181.26 123.27 180.4 123.72 179.41 124.01 178.34 124.11 177.27 124.01 176.27 123.72 175.42 123.26 174.76 122.65 174.34 121.95 174.2 121.2 174.2 121.19"/>
      </g>
      <g id="LWPOLYLINE-39" data-name="LWPOLYLINE">
        <polyline class="cls-1" points="172.21 117 171.88 117.52 171.24 118.11 170.41 118.56 169.44 118.84 168.39 118.94 167.35 118.84 166.38 118.55 165.54 118.1 164.9 117.51 164.57 116.99"/>
      </g>
      <g id="LINE-125" data-name="LINE">
        <line class="cls-1" x1="82" y1="55.15" x2="81.95" y2="55.15"/>
      </g>
      <g id="LINE-126" data-name="LINE">
        <line class="cls-1" x1="81.95" y1="55.15" x2="81.94" y2="55.04"/>
      </g>
      <g id="LINE-127" data-name="LINE">
        <line class="cls-1" x1="81.95" y1="55.15" x2="81.95" y2="56.57"/>
      </g>
      <g id="ARC-18" data-name="ARC">
        <path class="cls-1" d="M82.4,57.74c0-.39,0-1.15,0-1.54" transform="translate(-0.45 -1.17)"/>
      </g>
      <g id="LWPOLYLINE-40" data-name="LWPOLYLINE">
        <polyline class="cls-1" points="80.7 65.37 80.7 66.18 80.71 66.75 80.71 67.06 80.72 67.09 80.72 66.83 80.72 66.31 80.73 65.54 80.73 64.56 80.74 63.42 80.74 62.17 80.75 60.87 80.75 59.57 80.75 58.35 80.75 57.25 80.75 56.34 80.74 55.64 80.74 55.2 80.73 55.03 80.73 55.14 80.72 55.53 80.72 56.19 80.72 57.06 80.71 58.13 80.71 59.33 80.7 60.62 80.7 61.92 80.7 63.19 80.7 64.36 80.7 65.37"/>
      </g>
      <g id="SPLINE-42" data-name="SPLINE">
        <path class="cls-1" d="M81.23,66.73s0-.1,0-.14h0s0-.08,0-.1h0v0h0s0,0,0,0h0s0,.12,0,.23h0c0,.11,0,.26,0,.42h0c0,.17,0,.34,0,.51h0c0,.11,0,.22,0,.32h0c0,.09,0,.18,0,.27h0c0,.06,0,.12,0,.17h0c0,.05,0,.1,0,.14h0s0,.07,0,.1h0s0,.05,0,0h0" transform="translate(-0.45 -1.17)"/>
      </g>
      <g id="SPLINE-43" data-name="SPLINE">
        <path class="cls-1" d="M81.23,68.65c0-.06,0-.12,0-.23h0c0-.11,0-.26,0-.42h0c0-.17,0-.34,0-.51h0c0-.11,0-.22,0-.32h0c0-.09,0-.18,0-.27h0c0-.06,0-.12,0-.18" transform="translate(-0.45 -1.17)"/>
      </g>
      <g id="SPLINE-44" data-name="SPLINE">
        <path class="cls-1" d="M81.26,83.58s0-.1,0-.14h0s0-.08,0-.1h0v-.05h0s0,0,0,0h0s0,.12,0,.23h0V84h0c0,.17,0,.34,0,.51h0c0,.11,0,.22,0,.32h0c0,.09,0,.18,0,.26h0c0,.06,0,.12,0,.18h0c0,.05,0,.1,0,.14h0s0,.07,0,.1h0s0,.05,0,0h0" transform="translate(-0.45 -1.17)"/>
      </g>
      <g id="SPLINE-45" data-name="SPLINE">
        <path class="cls-1" d="M81.26,85.5c0-.06,0-.12,0-.23h0v-.42h0c0-.17,0-.34,0-.51h0c0-.11,0-.22,0-.32h0c0-.09,0-.18,0-.27h0c0-.06,0-.12,0-.18" transform="translate(-0.45 -1.17)"/>
      </g>
      <g id="SPLINE-46" data-name="SPLINE">
        <path class="cls-1" d="M81.16,79.29s0-.1,0-.14h0s0-.08,0-.1h0v0h0s0,0,0,0h0s0,.12,0,.23h0v.42h0c0,.17,0,.34,0,.51h0c0,.11,0,.22,0,.32h0c0,.09,0,.18,0,.26h0c0,.06,0,.12,0,.18h0c0,.05,0,.1,0,.14h0s0,.07,0,.1h0s0,.05,0,0h0" transform="translate(-0.45 -1.17)"/>
      </g>
      <g id="SPLINE-47" data-name="SPLINE">
        <path class="cls-1" d="M81.16,81.21c0-.06,0-.12,0-.23h0v-.42h0c0-.17,0-.34,0-.51h0q0-.16,0-.32h0c0-.09,0-.19,0-.27h0c0-.06,0-.12,0-.18" transform="translate(-0.45 -1.17)"/>
      </g>
      <g id="LINE-128" data-name="LINE">
        <line class="cls-1" x1="103.48" y1="113.44" x2="126.64" y2="113.47"/>
      </g>
      <g id="LINE-129" data-name="LINE">
        <line class="cls-1" x1="96.93" y1="127.68" x2="83.57" y2="127.65"/>
      </g>
      <g id="LINE-130" data-name="LINE">
        <line class="cls-1" x1="83.57" y1="113.45" x2="96.94" y2="113.47"/>
      </g>
      <g id="LINE-131" data-name="LINE">
        <line class="cls-1" x1="103.48" y1="113.44" x2="126.64" y2="113.47"/>
      </g>
      <g id="LWPOLYLINE-41" data-name="LWPOLYLINE">
        <polyline class="cls-1" points="166.02 127.88 166.02 127.91 166.03 128.16 166.04 128.68 166.05 129.46 166.05 130.5 166.06 131.77 166.06 133.28 166.07 134.99 166.07 136.9 166.07 138.98 166.07 141.21 166.07 143.56 166.07 146.01 166.07 148.53 166.06 151.1 166.06 153.68 166.06 156.25 166.05 158.78 166.04 161.24 166.04 163.61 166.03 165.85 166.02 167.95 166.01 169.88 166 171.63 165.99 173.16 165.98 174.46 165.97 175.53 165.96 176.34 165.95 176.9 165.94 177.18 165.94 177.22"/>
      </g>
      <g id="LINE-132" data-name="LINE">
        <path class="cls-1" d="M128.79,55.47q0,3.7,0,7.4" transform="translate(-0.45 -1.17)"/>
      </g>
      <g id="LINE-133" data-name="LINE">
        <line class="cls-1" x1="97.47" y1="81.29" x2="97.43" y2="89.62"/>
      </g>
      <g id="LINE-134" data-name="LINE">
        <line class="cls-1" x1="98.44" y1="89.63" x2="98.48" y2="82"/>
      </g>
      <g id="LINE-135" data-name="LINE">
        <line class="cls-1" x1="82" y1="55.04" x2="81.94" y2="55.04"/>
      </g>
    </g>
    <ellipse class="cls-2" cx="111.08" cy="78.97" rx="2.67" ry="1.35"/>
    <line class="cls-2" x1="109.48" y1="77.89" x2="112.85" y2="79.98"/>
    <g>
      <ellipse class="cls-2" cx="124.61" cy="78.62" rx="2.67" ry="1.35"/>
      <line class="cls-2" x1="122.77" y1="79.6" x2="126.5" y2="77.79"/>
    </g>
  </g>
  <g>
    <path d="M8.37,7.72V1.28H9.65l1.52,4.56q.21.64.31,1,.11-.35.34-1l1.54-4.48h1.15V7.72h-.82V2.33L11.82,7.72h-.77L9.19,2.24V7.72Z" transform="translate(-0.45 -1.17)"/>
    <path d="M15.18,7.72l2.47-6.44h.92l2.64,6.44h-1l-.75-2H16.8l-.71,2ZM17,5.08h2.18l-.67-1.78Q18.25,2.48,18.1,2a8.21,8.21,0,0,1-.35,1.23Z" transform="translate(-0.45 -1.17)"/>
    <path d="M21.89,7.72V1.28h.87l3.38,5.06V1.28H27V7.72h-.87L22.7,2.66V7.72Z" transform="translate(-0.45 -1.17)"/>
    <path d="M28.54,7.72V1.28h.85V7.72Z" transform="translate(-0.45 -1.17)"/>
    <path d="M30.94,7.72V1.28h4.35V2H31.79V4h3V4.8h-3V7.72Z" transform="translate(-0.45 -1.17)"/>
    <path d="M36.13,4.59A3.5,3.5,0,0,1,37,2.07a2.93,2.93,0,0,1,2.22-.91,3.1,3.1,0,0,1,1.61.43,2.8,2.8,0,0,1,1.09,1.19,3.87,3.87,0,0,1,.38,1.73,3.79,3.79,0,0,1-.39,1.75,2.7,2.7,0,0,1-1.12,1.17,3.2,3.2,0,0,1-1.56.4,3,3,0,0,1-1.63-.44,2.82,2.82,0,0,1-1.08-1.2A3.64,3.64,0,0,1,36.13,4.59Zm.88,0a2.58,2.58,0,0,0,.63,1.83,2.18,2.18,0,0,0,3.16,0,2.74,2.74,0,0,0,.62-1.92,3.29,3.29,0,0,0-.27-1.37,2,2,0,0,0-.78-.91,2.11,2.11,0,0,0-1.15-.32,2.18,2.18,0,0,0-1.56.62A2.78,2.78,0,0,0,37,4.6Z" transform="translate(-0.45 -1.17)"/>
    <path d="M43.36,7.72V1.28h.85V7h3.17v.76Z" transform="translate(-0.45 -1.17)"/>
    <path d="M48.4,7.72V1.28h2.22a5.31,5.31,0,0,1,1.15.09,2.19,2.19,0,0,1,.95.46,2.63,2.63,0,0,1,.76,1.1,4.32,4.32,0,0,1,.25,1.53,4.54,4.54,0,0,1-.17,1.3,3.21,3.21,0,0,1-.44.94,2.36,2.36,0,0,1-.59.58,2.41,2.41,0,0,1-.77.32,4.39,4.39,0,0,1-1,.11ZM49.25,7h1.38a3.34,3.34,0,0,0,1-.12,1.43,1.43,0,0,0,.58-.33,2,2,0,0,0,.47-.82,4,4,0,0,0,.17-1.24,3,3,0,0,0-.33-1.55,1.67,1.67,0,0,0-.81-.73A3.34,3.34,0,0,0,50.6,2H49.25Z" transform="translate(-0.45 -1.17)"/>
    <path d="M60.41,5.2V4.44h2.73V6.83a4.83,4.83,0,0,1-1.3.75,3.85,3.85,0,0,1-1.37.25,3.65,3.65,0,0,1-1.72-.41,2.68,2.68,0,0,1-1.17-1.18,3.7,3.7,0,0,1-.4-1.72,4,4,0,0,1,.39-1.76,2.62,2.62,0,0,1,1.13-1.21,3.55,3.55,0,0,1,1.7-.4,3.38,3.38,0,0,1,1.26.23,2.1,2.1,0,0,1,.89.63A2.81,2.81,0,0,1,63,3.08l-.77.21a2.38,2.38,0,0,0-.36-.77,1.47,1.47,0,0,0-.62-.45,2.25,2.25,0,0,0-.89-.17,2.6,2.6,0,0,0-1,.18,1.87,1.87,0,0,0-.69.47,2.25,2.25,0,0,0-.41.64,3.37,3.37,0,0,0-.25,1.3,3.15,3.15,0,0,0,.3,1.44,1.9,1.9,0,0,0,.86.86,2.68,2.68,0,0,0,1.21.28,2.86,2.86,0,0,0,1.08-.21,2.82,2.82,0,0,0,.8-.46V5.2Z" transform="translate(-0.45 -1.17)"/>
    <path d="M63.69,7.72l2.47-6.44h.92l2.64,6.44h-1l-.75-2H65.3l-.71,2Zm1.86-2.65h2.18l-.67-1.78Q66.75,2.48,66.6,2a8.1,8.1,0,0,1-.35,1.23Z" transform="translate(-0.45 -1.17)"/>
    <path d="M70.11,5.65l.8-.07a1.76,1.76,0,0,0,.27.79,1.45,1.45,0,0,0,.65.5,2.46,2.46,0,0,0,1,.19,2.37,2.37,0,0,0,.86-.15,1.19,1.19,0,0,0,.56-.4A.92.92,0,0,0,74.42,6a.84.84,0,0,0-.18-.53,1.3,1.3,0,0,0-.58-.38,11.23,11.23,0,0,0-1.15-.31,5.87,5.87,0,0,1-1.24-.4,1.74,1.74,0,0,1-.69-.6,1.47,1.47,0,0,1-.23-.8A1.63,1.63,0,0,1,70.63,2a1.7,1.7,0,0,1,.81-.64,3.06,3.06,0,0,1,1.18-.22,3.22,3.22,0,0,1,1.26.23,1.83,1.83,0,0,1,.84.68,2,2,0,0,1,.32,1l-.82.06a1.32,1.32,0,0,0-.45-.92,1.74,1.74,0,0,0-1.12-.31,1.8,1.8,0,0,0-1.13.28.85.85,0,0,0-.35.68.73.73,0,0,0,.25.57,3.39,3.39,0,0,0,1.29.46,8.52,8.52,0,0,1,1.43.41A2,2,0,0,1,75,5a1.6,1.6,0,0,1,.27.92,1.75,1.75,0,0,1-.29,1,1.94,1.94,0,0,1-.85.71,3,3,0,0,1-1.24.25,3.72,3.72,0,0,1-1.46-.25,2.05,2.05,0,0,1-.93-.77A2.18,2.18,0,0,1,70.11,5.65Z" transform="translate(-0.45 -1.17)"/>
    <path d="M17.64,18.52V12.08h2.43a5.87,5.87,0,0,1,1,.06,2,2,0,0,1,.8.3,1.58,1.58,0,0,1,.52.62A2.1,2.1,0,0,1,22,15.33a2.51,2.51,0,0,1-1.89.57H18.5v2.62Zm.85-3.38h1.67a1.76,1.76,0,0,0,1.17-.31,1.09,1.09,0,0,0,.35-.87,1.16,1.16,0,0,0-.2-.69,1,1,0,0,0-.54-.38,3.65,3.65,0,0,0-.8-.06H18.5Z" transform="translate(-0.45 -1.17)"/>
    <path d="M23.66,18.52V12.08h2.86a3.79,3.79,0,0,1,1.31.17,1.43,1.43,0,0,1,.72.61,1.83,1.83,0,0,1,.27,1A1.62,1.62,0,0,1,28.37,15a2.24,2.24,0,0,1-1.37.6,2.24,2.24,0,0,1,.51.32,4.46,4.46,0,0,1,.71.86l1.12,1.75H28.26l-.85-1.34q-.37-.58-.62-.89a1.94,1.94,0,0,0-.43-.43,1.27,1.27,0,0,0-.39-.17,2.55,2.55,0,0,0-.47,0h-1v2.86Zm.85-3.6h1.83a2.76,2.76,0,0,0,.91-.12,1,1,0,0,0,.5-.39,1,1,0,0,0,.17-.58,1,1,0,0,0-.33-.75,1.55,1.55,0,0,0-1-.29h-2Z" transform="translate(-0.45 -1.17)"/>
    <path d="M30.16,18.52V12.08h4.66v.76H31v2h3.56v.76H31v2.19h4v.76Z" transform="translate(-0.45 -1.17)"/>
    <path d="M35.86,16.45l.8-.07a1.76,1.76,0,0,0,.27.79,1.45,1.45,0,0,0,.65.5,2.46,2.46,0,0,0,1,.19,2.37,2.37,0,0,0,.86-.15,1.19,1.19,0,0,0,.56-.4.92.92,0,0,0,.18-.55.84.84,0,0,0-.18-.53,1.3,1.3,0,0,0-.58-.38,11.23,11.23,0,0,0-1.15-.31,5.87,5.87,0,0,1-1.24-.4,1.74,1.74,0,0,1-.69-.6,1.47,1.47,0,0,1-.23-.8,1.63,1.63,0,0,1,.28-.91,1.7,1.7,0,0,1,.81-.64A3.06,3.06,0,0,1,38.37,12a3.22,3.22,0,0,1,1.26.23,1.83,1.83,0,0,1,.84.68,2,2,0,0,1,.32,1L40,14a1.32,1.32,0,0,0-.45-.92,1.74,1.74,0,0,0-1.12-.31,1.8,1.8,0,0,0-1.13.28.85.85,0,0,0-.35.68.73.73,0,0,0,.25.57,3.39,3.39,0,0,0,1.29.46,8.52,8.52,0,0,1,1.43.41,2,2,0,0,1,.83.66,1.6,1.6,0,0,1,.27.92,1.75,1.75,0,0,1-.29,1,1.94,1.94,0,0,1-.85.71,3,3,0,0,1-1.24.25,3.72,3.72,0,0,1-1.46-.25,2.05,2.05,0,0,1-.93-.77A2.18,2.18,0,0,1,35.86,16.45Z" transform="translate(-0.45 -1.17)"/>
    <path d="M41.86,16.45l.8-.07a1.76,1.76,0,0,0,.27.79,1.45,1.45,0,0,0,.65.5,2.46,2.46,0,0,0,1,.19,2.37,2.37,0,0,0,.86-.15,1.19,1.19,0,0,0,.56-.4.92.92,0,0,0,.18-.55.84.84,0,0,0-.18-.53,1.3,1.3,0,0,0-.58-.38,11.23,11.23,0,0,0-1.15-.31,5.87,5.87,0,0,1-1.24-.4,1.74,1.74,0,0,1-.69-.6,1.47,1.47,0,0,1-.23-.8,1.63,1.63,0,0,1,.28-.91,1.7,1.7,0,0,1,.81-.64A3.06,3.06,0,0,1,44.37,12a3.22,3.22,0,0,1,1.26.23,1.83,1.83,0,0,1,.84.68,2,2,0,0,1,.32,1L46,14a1.32,1.32,0,0,0-.45-.92,1.74,1.74,0,0,0-1.12-.31,1.8,1.8,0,0,0-1.13.28.85.85,0,0,0-.35.68.73.73,0,0,0,.25.57,3.39,3.39,0,0,0,1.29.46,8.52,8.52,0,0,1,1.43.41,2,2,0,0,1,.83.66,1.6,1.6,0,0,1,.27.92,1.75,1.75,0,0,1-.29,1,1.94,1.94,0,0,1-.85.71,3,3,0,0,1-1.24.25,3.72,3.72,0,0,1-1.46-.25,2.05,2.05,0,0,1-.93-.77A2.18,2.18,0,0,1,41.86,16.45Z" transform="translate(-0.45 -1.17)"/>
    <path d="M52.38,12.08h.85V15.8A4.4,4.4,0,0,1,53,17.35a1.89,1.89,0,0,1-.79.93,2.82,2.82,0,0,1-1.51.36,3.09,3.09,0,0,1-1.48-.31,1.78,1.78,0,0,1-.82-.9,4.3,4.3,0,0,1-.25-1.62V12.08H49V15.8A3.64,3.64,0,0,0,49.18,17a1.19,1.19,0,0,0,.54.61,1.85,1.85,0,0,0,.93.22A1.77,1.77,0,0,0,52,17.44a2.45,2.45,0,0,0,.4-1.64Z" transform="translate(-0.45 -1.17)"/>
    <path d="M54.67,18.52V12.08h2.86a3.79,3.79,0,0,1,1.31.17,1.43,1.43,0,0,1,.72.61,1.83,1.83,0,0,1,.27,1A1.62,1.62,0,0,1,59.37,15a2.24,2.24,0,0,1-1.37.6,2.24,2.24,0,0,1,.51.32,4.46,4.46,0,0,1,.71.86l1.12,1.75H59.27l-.85-1.34q-.37-.58-.62-.89a2,2,0,0,0-.43-.43,1.27,1.27,0,0,0-.39-.17,2.55,2.55,0,0,0-.47,0h-1v2.86Zm.85-3.6h1.83a2.76,2.76,0,0,0,.91-.12,1,1,0,0,0,.5-.39,1,1,0,0,0,.17-.58,1,1,0,0,0-.33-.75,1.55,1.55,0,0,0-1-.29h-2Z" transform="translate(-0.45 -1.17)"/>
    <path d="M61.17,18.52V12.08h4.66v.76H62v2h3.56v.76H62v2.19h4v.76Z" transform="translate(-0.45 -1.17)"/>
    <path d="M19,29.32V23.64H16.91v-.76H22v.76H19.88v5.68Z" transform="translate(-0.45 -1.17)"/>
    <path d="M22.91,29.32V22.88h4.66v.76H23.76v2h3.56v.76H23.76v2.19h4v.76Z" transform="translate(-0.45 -1.17)"/>
    <path d="M28.6,27.25l.8-.07a1.77,1.77,0,0,0,.27.79,1.46,1.46,0,0,0,.65.5,2.46,2.46,0,0,0,1,.19,2.36,2.36,0,0,0,.86-.15,1.19,1.19,0,0,0,.56-.4.93.93,0,0,0,.18-.55.84.84,0,0,0-.18-.53,1.3,1.3,0,0,0-.58-.38A11.08,11.08,0,0,0,31,26.35a5.91,5.91,0,0,1-1.24-.4,1.75,1.75,0,0,1-.69-.6,1.47,1.47,0,0,1-.23-.8,1.64,1.64,0,0,1,.28-.91,1.7,1.7,0,0,1,.81-.64,3.06,3.06,0,0,1,1.18-.22,3.22,3.22,0,0,1,1.26.23,1.82,1.82,0,0,1,.84.68,2,2,0,0,1,.32,1l-.82.06a1.31,1.31,0,0,0-.45-.92,1.74,1.74,0,0,0-1.12-.31,1.81,1.81,0,0,0-1.13.28.85.85,0,0,0-.35.68.74.74,0,0,0,.25.57,3.4,3.4,0,0,0,1.29.46,8.52,8.52,0,0,1,1.43.41,2,2,0,0,1,.83.66,1.61,1.61,0,0,1,.27.92,1.74,1.74,0,0,1-.29,1,1.94,1.94,0,0,1-.85.71,3,3,0,0,1-1.24.25,3.73,3.73,0,0,1-1.46-.25,2,2,0,0,1-.93-.77A2.18,2.18,0,0,1,28.6,27.25Z" transform="translate(-0.45 -1.17)"/>
    <path d="M36.54,29.32V23.64H34.41v-.76h5.11v.76H37.39v5.68Z" transform="translate(-0.45 -1.17)"/>
    <path d="M42.73,29.32V22.88h2.43a5.87,5.87,0,0,1,1,.06,2,2,0,0,1,.8.3,1.59,1.59,0,0,1,.52.62,2.1,2.1,0,0,1-.33,2.27,2.51,2.51,0,0,1-1.89.57H43.58v2.62Zm.85-3.38h1.67a1.76,1.76,0,0,0,1.17-.31,1.09,1.09,0,0,0,.35-.87,1.16,1.16,0,0,0-.2-.69A1,1,0,0,0,46,23.7a3.65,3.65,0,0,0-.79-.06H43.58Z" transform="translate(-0.45 -1.17)"/>
    <path d="M48.48,26.19a3.5,3.5,0,0,1,.86-2.51,2.93,2.93,0,0,1,2.22-.91,3.1,3.1,0,0,1,1.61.43,2.8,2.8,0,0,1,1.09,1.19,3.87,3.87,0,0,1,.38,1.73,3.79,3.79,0,0,1-.39,1.75A2.7,2.7,0,0,1,53.12,29a3.2,3.2,0,0,1-1.56.4A3,3,0,0,1,49.93,29a2.82,2.82,0,0,1-1.08-1.2A3.64,3.64,0,0,1,48.48,26.19Zm.88,0A2.58,2.58,0,0,0,50,28a2.18,2.18,0,0,0,3.16,0,2.74,2.74,0,0,0,.62-1.92,3.29,3.29,0,0,0-.27-1.37,2,2,0,0,0-.78-.91,2.11,2.11,0,0,0-1.15-.32,2.18,2.18,0,0,0-1.56.62A2.78,2.78,0,0,0,49.35,26.2Z" transform="translate(-0.45 -1.17)"/>
    <path d="M55.75,29.32V22.88H58.6a3.79,3.79,0,0,1,1.31.17,1.43,1.43,0,0,1,.72.61,1.83,1.83,0,0,1,.27,1,1.62,1.62,0,0,1-.44,1.16,2.24,2.24,0,0,1-1.37.6,2.24,2.24,0,0,1,.51.32,4.46,4.46,0,0,1,.71.86l1.12,1.75H60.35L59.5,28q-.37-.58-.62-.89a2,2,0,0,0-.43-.43,1.27,1.27,0,0,0-.39-.17,2.55,2.55,0,0,0-.47,0h-1v2.86Zm.85-3.6h1.83a2.76,2.76,0,0,0,.91-.12,1,1,0,0,0,.5-.39,1,1,0,0,0,.17-.58,1,1,0,0,0-.33-.75,1.55,1.55,0,0,0-1-.29h-2Z" transform="translate(-0.45 -1.17)"/>
    <path d="M63.71,29.32V23.64H61.59v-.76H66.7v.76H64.56v5.68Z" transform="translate(-0.45 -1.17)"/>
    <path d="M7.56,42a7.93,7.93,0,0,1-1.11-1.93,6.07,6.07,0,0,1-.11-4.3,8.45,8.45,0,0,1,1.22-2.21h.57q-.53.92-.7,1.31A7.13,7.13,0,0,0,7,36.14a7.35,7.35,0,0,0-.19,1.65A7.93,7.93,0,0,0,8.13,42Z" transform="translate(-0.45 -1.17)"/>
    <path d="M9.12,40.12V33.68h1.27L13,38v-4.3h1.21v6.44H12.93l-2.6-4.2v4.2Z" transform="translate(-0.45 -1.17)"/>
    <path d="M15.32,37.72a2.52,2.52,0,0,1,.3-1.19,2.08,2.08,0,0,1,.86-.88,2.54,2.54,0,0,1,1.24-.3,2.33,2.33,0,0,1,1.74.69,2.38,2.38,0,0,1,.68,1.74,2.41,2.41,0,0,1-.68,1.76,2.31,2.31,0,0,1-1.72.7,2.71,2.71,0,0,1-1.22-.29,2,2,0,0,1-.89-.85A2.83,2.83,0,0,1,15.32,37.72Zm1.27.07a1.55,1.55,0,0,0,.33,1.06,1.08,1.08,0,0,0,1.62,0,1.57,1.57,0,0,0,.33-1.07,1.54,1.54,0,0,0-.33-1.05,1.08,1.08,0,0,0-1.62,0A1.55,1.55,0,0,0,16.58,37.79Z" transform="translate(-0.45 -1.17)"/>
    <path d="M25.34,40.12H24.11V37.74a3.68,3.68,0,0,0-.08-1,.69.69,0,0,0-.26-.35.74.74,0,0,0-.43-.12,1,1,0,0,0-.58.18.89.89,0,0,0-.35.47A4,4,0,0,0,22.33,38v2.11H21.09V35.46h1.15v.69a1.87,1.87,0,0,1,1.54-.79,1.84,1.84,0,0,1,.75.15,1.25,1.25,0,0,1,.51.38,1.38,1.38,0,0,1,.24.52,3.89,3.89,0,0,1,.07.83Z" transform="translate(-0.45 -1.17)"/>
    <path d="M26.46,38.41V37.17h2.43v1.23Z" transform="translate(-0.45 -1.17)"/>
    <path d="M35.41,40.12H34l-.56-1.46H30.86l-.53,1.46H28.95l2.51-6.44h1.37ZM33,37.58l-.89-2.39-.87,2.39Z" transform="translate(-0.45 -1.17)"/>
    <path d="M40.37,40.12H39.23v-.69a1.86,1.86,0,0,1-.67.6,1.73,1.73,0,0,1-.78.2,1.78,1.78,0,0,1-1.38-.65,2.64,2.64,0,0,1-.57-1.81,2.6,2.6,0,0,1,.56-1.8,1.82,1.82,0,0,1,1.41-.62,1.75,1.75,0,0,1,1.35.65V33.68h1.23Zm-3.29-2.43a2.14,2.14,0,0,0,.21,1.08.93.93,0,0,0,.83.48.91.91,0,0,0,.72-.36,1.67,1.67,0,0,0,.3-1.08,1.83,1.83,0,0,0-.29-1.16.92.92,0,0,0-.74-.35.93.93,0,0,0-.74.35A1.58,1.58,0,0,0,37.08,37.69Z" transform="translate(-0.45 -1.17)"/>
    <path d="M42.8,35.46V40a4.72,4.72,0,0,1-.12,1.26,1,1,0,0,1-.45.57,1.58,1.58,0,0,1-.85.21,2.68,2.68,0,0,1-.4,0l-.46-.1.22-1.05.16,0h.14a.55.55,0,0,0,.31-.08.4.4,0,0,0,.16-.2,3.23,3.23,0,0,0,0-.69V35.46Zm-1.24-.63V33.68H42.8v1.14Z" transform="translate(-0.45 -1.17)"/>
    <path d="M47.16,40.12v-.7a1.8,1.8,0,0,1-.67.59,1.89,1.89,0,0,1-.88.21,1.71,1.71,0,0,1-.84-.21,1.21,1.21,0,0,1-.54-.58,2.56,2.56,0,0,1-.17-1v-3H45.3V37.6a5.89,5.89,0,0,0,.07,1.21.65.65,0,0,0,.25.35.76.76,0,0,0,.46.13,1,1,0,0,0,.57-.17.88.88,0,0,0,.34-.43,4.94,4.94,0,0,0,.09-1.26v-2h1.24v4.67Z" transform="translate(-0.45 -1.17)"/>
    <path d="M49.15,38.79l1.24-.19a.9.9,0,0,0,.32.55,1.08,1.08,0,0,0,.68.19,1.21,1.21,0,0,0,.72-.18.39.39,0,0,0,.16-.33.33.33,0,0,0-.09-.23,1,1,0,0,0-.41-.16,6.67,6.67,0,0,1-1.89-.6,1.2,1.2,0,0,1-.55-1.05,1.29,1.29,0,0,1,.48-1,2.24,2.24,0,0,1,1.49-.41,2.6,2.6,0,0,1,1.42.31,1.6,1.6,0,0,1,.64.92l-1.16.21a.73.73,0,0,0-.28-.42,1,1,0,0,0-.59-.14,1.34,1.34,0,0,0-.7.14.29.29,0,0,0-.14.25.28.28,0,0,0,.12.22,4.65,4.65,0,0,0,1.15.35,3.43,3.43,0,0,1,1.38.55,1.14,1.14,0,0,1,.39.92,1.41,1.41,0,0,1-.54,1.1,2.38,2.38,0,0,1-1.59.46,2.6,2.6,0,0,1-1.51-.39A1.78,1.78,0,0,1,49.15,38.79Z" transform="translate(-0.45 -1.17)"/>
    <path d="M56.73,35.46v1h-.84v1.88a4.59,4.59,0,0,0,0,.67.27.27,0,0,0,.11.16.34.34,0,0,0,.21.06,1.6,1.6,0,0,0,.5-.12l.11,1a2.45,2.45,0,0,1-1,.18,1.54,1.54,0,0,1-.6-.11.88.88,0,0,1-.39-.29,1.15,1.15,0,0,1-.17-.48,6.17,6.17,0,0,1,0-.87v-2h-.57v-1h.57v-.93l1.24-.72v1.65Z" transform="translate(-0.45 -1.17)"/>
    <path d="M58.51,36.88l-1.12-.2a1.75,1.75,0,0,1,.65-1,2.38,2.38,0,0,1,1.37-.33,3,3,0,0,1,1.23.2,1.23,1.23,0,0,1,.57.5,2.55,2.55,0,0,1,.16,1.11v1.44a5,5,0,0,0,.06.91,2.63,2.63,0,0,0,.22.63H60.43c0-.08-.07-.2-.12-.37l0-.14a2.21,2.21,0,0,1-.68.46,1.94,1.94,0,0,1-.77.15,1.59,1.59,0,0,1-1.14-.39,1.3,1.3,0,0,1-.42-1,1.33,1.33,0,0,1,.19-.71,1.23,1.23,0,0,1,.53-.47,4.12,4.12,0,0,1,1-.29,6.73,6.73,0,0,0,1.2-.3V37a.64.64,0,0,0-.18-.51,1,1,0,0,0-.66-.15.89.89,0,0,0-.51.13A.9.9,0,0,0,58.51,36.88Zm1.65,1a7.45,7.45,0,0,1-.75.19,2.29,2.29,0,0,0-.67.22.51.51,0,0,0-.24.43.61.61,0,0,0,.19.45.67.67,0,0,0,.49.19,1.07,1.07,0,0,0,.64-.22.78.78,0,0,0,.29-.41,2.45,2.45,0,0,0,0-.6Z" transform="translate(-0.45 -1.17)"/>
    <path d="M62.54,40.12V33.68h1.23V36a1.75,1.75,0,0,1,1.35-.65,1.82,1.82,0,0,1,1.41.62,2.56,2.56,0,0,1,.56,1.77,2.69,2.69,0,0,1-.57,1.84,1.77,1.77,0,0,1-1.38.65,1.71,1.71,0,0,1-.79-.2,1.88,1.88,0,0,1-.67-.59v.69Zm1.23-2.43A2,2,0,0,0,64,38.76a1,1,0,0,0,.85.49.87.87,0,0,0,.7-.35,1.71,1.71,0,0,0,.29-1.1,1.82,1.82,0,0,0-.29-1.15.92.92,0,0,0-.74-.35.93.93,0,0,0-.74.35A1.58,1.58,0,0,0,63.77,37.69Z" transform="translate(-0.45 -1.17)"/>
    <path d="M68.09,40.12V33.68h1.23v6.44Z" transform="translate(-0.45 -1.17)"/>
    <path d="M73.3,38.64l1.23.21a2,2,0,0,1-.75,1,2.21,2.21,0,0,1-1.28.35,2.09,2.09,0,0,1-1.8-.79,2.67,2.67,0,0,1-.46-1.61A2.57,2.57,0,0,1,70.84,36a2,2,0,0,1,1.53-.66A2.07,2.07,0,0,1,74,36a3,3,0,0,1,.58,2.11H71.5a1.25,1.25,0,0,0,.3.85.93.93,0,0,0,.71.31.75.75,0,0,0,.49-.16A1,1,0,0,0,73.3,38.64Zm.07-1.25a1.19,1.19,0,0,0-.28-.82.89.89,0,0,0-1.31,0,1.14,1.14,0,0,0-.26.8Z" transform="translate(-0.45 -1.17)"/>
    <path d="M76.07,42H75.5a7.93,7.93,0,0,0,1.31-4.22,7.23,7.23,0,0,0-.19-1.64,6.89,6.89,0,0,0-.42-1.27,14.54,14.54,0,0,0-.71-1.32h.57a8.46,8.46,0,0,1,1.22,2.21,6.06,6.06,0,0,1-.12,4.3A8.05,8.05,0,0,1,76.07,42Z" transform="translate(-0.45 -1.17)"/>
  </g>
  <g>
    <path d="M113.79,5.65l.8-.07a1.76,1.76,0,0,0,.27.79,1.45,1.45,0,0,0,.65.5,2.46,2.46,0,0,0,1,.19,2.38,2.38,0,0,0,.86-.15,1.2,1.2,0,0,0,.55-.4A.92.92,0,0,0,118.1,6a.84.84,0,0,0-.18-.53,1.3,1.3,0,0,0-.58-.38,11.28,11.28,0,0,0-1.15-.31,5.86,5.86,0,0,1-1.24-.4,1.74,1.74,0,0,1-.69-.6,1.46,1.46,0,0,1-.23-.8,1.64,1.64,0,0,1,.28-.91,1.71,1.71,0,0,1,.81-.64,3.07,3.07,0,0,1,1.18-.22,3.23,3.23,0,0,1,1.26.23,1.82,1.82,0,0,1,.84.68,2,2,0,0,1,.32,1l-.82.06a1.32,1.32,0,0,0-.45-.92,1.74,1.74,0,0,0-1.12-.31,1.8,1.8,0,0,0-1.13.28.85.85,0,0,0-.35.68.73.73,0,0,0,.25.57,3.38,3.38,0,0,0,1.29.46,8.55,8.55,0,0,1,1.43.41,1.94,1.94,0,0,1,.83.66,1.59,1.59,0,0,1,.27.92,1.76,1.76,0,0,1-.29,1,2,2,0,0,1-.85.71,3,3,0,0,1-1.24.25,3.72,3.72,0,0,1-1.46-.25,2.05,2.05,0,0,1-.93-.77A2.17,2.17,0,0,1,113.79,5.65Z" transform="translate(-0.45 -1.17)"/>
    <path d="M124.31,1.28h.85V5a4.4,4.4,0,0,1-.22,1.54,1.88,1.88,0,0,1-.79.93,2.81,2.81,0,0,1-1.5.36,3.1,3.1,0,0,1-1.48-.31,1.78,1.78,0,0,1-.82-.9A4.3,4.3,0,0,1,120.1,5V1.28H121V5a3.61,3.61,0,0,0,.16,1.24,1.18,1.18,0,0,0,.54.61,1.85,1.85,0,0,0,.93.22,1.77,1.77,0,0,0,1.34-.43,2.45,2.45,0,0,0,.4-1.64Z" transform="translate(-0.45 -1.17)"/>
    <path d="M126.59,7.72V1.28H129a5.88,5.88,0,0,1,1,.06,2,2,0,0,1,.79.3,1.58,1.58,0,0,1,.52.62,2,2,0,0,1,.2.88A2,2,0,0,1,131,4.54a2.51,2.51,0,0,1-1.89.57h-1.65V7.72Zm.85-3.38h1.67A1.76,1.76,0,0,0,130.28,4a1.1,1.1,0,0,0,.35-.87,1.16,1.16,0,0,0-.2-.69,1,1,0,0,0-.54-.38,3.64,3.64,0,0,0-.79-.06h-1.65Z" transform="translate(-0.45 -1.17)"/>
    <path d="M132.59,7.72V1.28H135a5.86,5.86,0,0,1,1,.06,2,2,0,0,1,.8.3,1.59,1.59,0,0,1,.52.62,2,2,0,0,1,.2.88A2,2,0,0,1,137,4.54a2.5,2.5,0,0,1-1.89.57h-1.65V7.72Zm.85-3.38h1.67A1.76,1.76,0,0,0,136.28,4a1.09,1.09,0,0,0,.35-.87,1.16,1.16,0,0,0-.21-.69,1,1,0,0,0-.54-.38,3.65,3.65,0,0,0-.79-.06h-1.65Z" transform="translate(-0.45 -1.17)"/>
    <path d="M138.56,7.72V1.28h.85V7h3.17v.76Z" transform="translate(-0.45 -1.17)"/>
    <path d="M144.75,7.72V5l-2.48-3.71h1l1.27,1.94q.35.54.65,1.09.29-.51.7-1.14l1.25-1.89h1L145.6,5V7.72Z" transform="translate(-0.45 -1.17)"/>
    <path d="M154.28,5.2V4.44H157V6.83a4.81,4.81,0,0,1-1.29.75,3.85,3.85,0,0,1-1.37.25,3.65,3.65,0,0,1-1.72-.41,2.68,2.68,0,0,1-1.17-1.18,3.7,3.7,0,0,1-.4-1.72,4,4,0,0,1,.39-1.76,2.61,2.61,0,0,1,1.13-1.21,3.55,3.55,0,0,1,1.7-.4,3.39,3.39,0,0,1,1.26.23,2.09,2.09,0,0,1,.88.63,2.78,2.78,0,0,1,.49,1.05l-.77.21a2.38,2.38,0,0,0-.36-.77,1.49,1.49,0,0,0-.62-.45,2.25,2.25,0,0,0-.89-.17,2.6,2.6,0,0,0-1,.18,1.87,1.87,0,0,0-.69.47,2.23,2.23,0,0,0-.41.64,3.37,3.37,0,0,0-.25,1.3,3.15,3.15,0,0,0,.3,1.44,1.91,1.91,0,0,0,.86.86,2.68,2.68,0,0,0,1.21.28,2.86,2.86,0,0,0,1.08-.21,2.81,2.81,0,0,0,.8-.46V5.2Z" transform="translate(-0.45 -1.17)"/>
    <path d="M157.56,7.72,160,1.28H161l2.64,6.44h-1l-.75-2h-2.69l-.71,2Zm1.86-2.65h2.18l-.67-1.78q-.31-.81-.46-1.34a8.1,8.1,0,0,1-.35,1.23Z" transform="translate(-0.45 -1.17)"/>
    <path d="M164,5.65l.8-.07a1.75,1.75,0,0,0,.27.79,1.45,1.45,0,0,0,.65.5,2.45,2.45,0,0,0,1,.19,2.38,2.38,0,0,0,.86-.15,1.2,1.2,0,0,0,.55-.4.92.92,0,0,0,.18-.55.84.84,0,0,0-.18-.53,1.3,1.3,0,0,0-.58-.38,11.39,11.39,0,0,0-1.15-.31,5.83,5.83,0,0,1-1.24-.4,1.74,1.74,0,0,1-.69-.6,1.46,1.46,0,0,1-.23-.8,1.63,1.63,0,0,1,.28-.91,1.7,1.7,0,0,1,.81-.64,3.06,3.06,0,0,1,1.18-.22,3.23,3.23,0,0,1,1.26.23,1.83,1.83,0,0,1,.84.68,2,2,0,0,1,.32,1l-.82.06a1.32,1.32,0,0,0-.45-.92,1.74,1.74,0,0,0-1.12-.31,1.8,1.8,0,0,0-1.13.28.85.85,0,0,0-.35.68.73.73,0,0,0,.25.57,3.38,3.38,0,0,0,1.29.46,8.52,8.52,0,0,1,1.43.41,1.94,1.94,0,0,1,.83.66,1.59,1.59,0,0,1,.27.92,1.76,1.76,0,0,1-.29,1,2,2,0,0,1-.85.71,3,3,0,0,1-1.24.25,3.71,3.71,0,0,1-1.46-.25,2.05,2.05,0,0,1-.93-.77A2.17,2.17,0,0,1,164,5.65Z" transform="translate(-0.45 -1.17)"/>
    <path d="M117.42,18.52V12.08h2.43a5.85,5.85,0,0,1,1,.06,2,2,0,0,1,.8.3,1.59,1.59,0,0,1,.52.62,2.1,2.1,0,0,1-.33,2.27,2.5,2.5,0,0,1-1.89.57h-1.65v2.62Zm.85-3.38h1.67a1.76,1.76,0,0,0,1.17-.31,1.09,1.09,0,0,0,.35-.87,1.16,1.16,0,0,0-.21-.69,1,1,0,0,0-.54-.38,3.66,3.66,0,0,0-.8-.06h-1.65Z" transform="translate(-0.45 -1.17)"/>
    <path d="M123.44,18.52V12.08h2.86a3.79,3.79,0,0,1,1.31.17,1.43,1.43,0,0,1,.72.61,1.82,1.82,0,0,1,.27,1,1.61,1.61,0,0,1-.44,1.16,2.23,2.23,0,0,1-1.37.6,2.23,2.23,0,0,1,.51.32,4.46,4.46,0,0,1,.71.86l1.12,1.75H128l-.85-1.34q-.37-.58-.62-.89a1.92,1.92,0,0,0-.43-.43,1.26,1.26,0,0,0-.39-.17,2.54,2.54,0,0,0-.47,0h-1v2.86Zm.85-3.6h1.83a2.76,2.76,0,0,0,.91-.12,1,1,0,0,0,.5-.39,1.06,1.06,0,0,0,.17-.58,1,1,0,0,0-.33-.75,1.56,1.56,0,0,0-1-.29h-2Z" transform="translate(-0.45 -1.17)"/>
    <path d="M129.94,18.52V12.08h4.66v.76h-3.8v2h3.56v.76H130.8v2.19h4v.76Z" transform="translate(-0.45 -1.17)"/>
    <path d="M135.64,16.45l.8-.07a1.75,1.75,0,0,0,.27.79,1.45,1.45,0,0,0,.65.5,2.45,2.45,0,0,0,1,.19,2.38,2.38,0,0,0,.86-.15,1.2,1.2,0,0,0,.55-.4.92.92,0,0,0,.18-.55.84.84,0,0,0-.18-.53,1.3,1.3,0,0,0-.58-.38,11.39,11.39,0,0,0-1.15-.31,5.83,5.83,0,0,1-1.24-.4,1.74,1.74,0,0,1-.69-.6,1.46,1.46,0,0,1-.23-.8,1.63,1.63,0,0,1,.28-.91,1.7,1.7,0,0,1,.81-.64,3.06,3.06,0,0,1,1.18-.22,3.23,3.23,0,0,1,1.26.23,1.83,1.83,0,0,1,.84.68,2,2,0,0,1,.32,1l-.82.06a1.32,1.32,0,0,0-.45-.92,1.74,1.74,0,0,0-1.12-.31,1.8,1.8,0,0,0-1.13.28.85.85,0,0,0-.35.68.73.73,0,0,0,.25.57,3.38,3.38,0,0,0,1.29.46,8.52,8.52,0,0,1,1.43.41,1.94,1.94,0,0,1,.83.66,1.59,1.59,0,0,1,.27.92,1.76,1.76,0,0,1-.29,1,2,2,0,0,1-.85.71,3,3,0,0,1-1.24.25,3.71,3.71,0,0,1-1.46-.25,2.05,2.05,0,0,1-.93-.77A2.17,2.17,0,0,1,135.64,16.45Z" transform="translate(-0.45 -1.17)"/>
    <path d="M141.64,16.45l.8-.07a1.75,1.75,0,0,0,.27.79,1.45,1.45,0,0,0,.65.5,2.45,2.45,0,0,0,1,.19,2.38,2.38,0,0,0,.86-.15,1.2,1.2,0,0,0,.55-.4.92.92,0,0,0,.18-.55.84.84,0,0,0-.18-.53,1.3,1.3,0,0,0-.58-.38,11.39,11.39,0,0,0-1.15-.31,5.83,5.83,0,0,1-1.24-.4,1.74,1.74,0,0,1-.69-.6,1.46,1.46,0,0,1-.23-.8,1.63,1.63,0,0,1,.28-.91,1.7,1.7,0,0,1,.81-.64,3.06,3.06,0,0,1,1.18-.22,3.23,3.23,0,0,1,1.26.23,1.83,1.83,0,0,1,.84.68,2,2,0,0,1,.32,1l-.82.06a1.32,1.32,0,0,0-.45-.92,1.74,1.74,0,0,0-1.12-.31,1.8,1.8,0,0,0-1.13.28.85.85,0,0,0-.35.68.73.73,0,0,0,.25.57,3.38,3.38,0,0,0,1.29.46,8.52,8.52,0,0,1,1.43.41,1.94,1.94,0,0,1,.83.66,1.59,1.59,0,0,1,.27.92,1.76,1.76,0,0,1-.29,1,2,2,0,0,1-.85.71,3,3,0,0,1-1.24.25,3.71,3.71,0,0,1-1.46-.25,2.05,2.05,0,0,1-.93-.77A2.17,2.17,0,0,1,141.64,16.45Z" transform="translate(-0.45 -1.17)"/>
    <path d="M152.16,12.08H153V15.8a4.41,4.41,0,0,1-.22,1.54,1.89,1.89,0,0,1-.79.93,2.82,2.82,0,0,1-1.51.36,3.09,3.09,0,0,1-1.48-.31,1.78,1.78,0,0,1-.82-.9,4.3,4.3,0,0,1-.25-1.62V12.08h.85V15.8A3.65,3.65,0,0,0,149,17a1.19,1.19,0,0,0,.54.61,1.85,1.85,0,0,0,.93.22,1.77,1.77,0,0,0,1.34-.43,2.46,2.46,0,0,0,.4-1.64Z" transform="translate(-0.45 -1.17)"/>
    <path d="M154.45,18.52V12.08h2.86a3.78,3.78,0,0,1,1.31.17,1.43,1.43,0,0,1,.72.61,1.82,1.82,0,0,1,.27,1,1.61,1.61,0,0,1-.44,1.16,2.23,2.23,0,0,1-1.37.6,2.22,2.22,0,0,1,.51.32,4.42,4.42,0,0,1,.71.86l1.12,1.75h-1.07l-.85-1.34q-.37-.58-.62-.89a1.94,1.94,0,0,0-.43-.43,1.26,1.26,0,0,0-.39-.17,2.54,2.54,0,0,0-.47,0h-1v2.86Zm.85-3.6h1.83a2.76,2.76,0,0,0,.91-.12,1,1,0,0,0,.5-.39,1.05,1.05,0,0,0,.17-.58,1,1,0,0,0-.33-.75,1.56,1.56,0,0,0-1-.29h-2Z" transform="translate(-0.45 -1.17)"/>
    <path d="M161,18.52V12.08h4.66v.76h-3.8v2h3.56v.76H161.8v2.19h4v.76Z" transform="translate(-0.45 -1.17)"/>
    <path d="M118.81,29.32V23.64h-2.12v-.76h5.11v.76h-2.13v5.68Z" transform="translate(-0.45 -1.17)"/>
    <path d="M122.69,29.32V22.88h4.66v.76h-3.81v2h3.56v.76h-3.56v2.19h4v.76Z" transform="translate(-0.45 -1.17)"/>
    <path d="M128.38,27.25l.8-.07a1.77,1.77,0,0,0,.27.79,1.46,1.46,0,0,0,.65.5,2.46,2.46,0,0,0,1,.19,2.36,2.36,0,0,0,.86-.15,1.19,1.19,0,0,0,.56-.4.93.93,0,0,0,.18-.55.84.84,0,0,0-.18-.53,1.3,1.3,0,0,0-.58-.38,11.08,11.08,0,0,0-1.15-.31,5.91,5.91,0,0,1-1.24-.4,1.75,1.75,0,0,1-.69-.6,1.47,1.47,0,0,1-.23-.8,1.63,1.63,0,0,1,.28-.91,1.7,1.7,0,0,1,.81-.64,3.06,3.06,0,0,1,1.18-.22,3.22,3.22,0,0,1,1.26.23,1.82,1.82,0,0,1,.84.68,2,2,0,0,1,.32,1l-.82.06a1.31,1.31,0,0,0-.45-.92,1.74,1.74,0,0,0-1.12-.31,1.81,1.81,0,0,0-1.13.28.85.85,0,0,0-.35.68.74.74,0,0,0,.25.57,3.4,3.4,0,0,0,1.29.46,8.52,8.52,0,0,1,1.43.41,2,2,0,0,1,.83.66,1.61,1.61,0,0,1,.27.92,1.74,1.74,0,0,1-.29,1,1.94,1.94,0,0,1-.85.71,3,3,0,0,1-1.24.25,3.73,3.73,0,0,1-1.46-.25,2.05,2.05,0,0,1-.93-.77A2.18,2.18,0,0,1,128.38,27.25Z" transform="translate(-0.45 -1.17)"/>
    <path d="M136.32,29.32V23.64h-2.12v-.76h5.11v.76h-2.13v5.68Z" transform="translate(-0.45 -1.17)"/>
    <path d="M142.51,29.32V22.88h2.43a5.88,5.88,0,0,1,1,.06,2,2,0,0,1,.79.3,1.58,1.58,0,0,1,.52.62,2.1,2.1,0,0,1-.33,2.27,2.51,2.51,0,0,1-1.89.57h-1.65v2.62Zm.85-3.38H145a1.76,1.76,0,0,0,1.17-.31,1.1,1.1,0,0,0,.35-.87,1.16,1.16,0,0,0-.2-.69,1,1,0,0,0-.54-.38,3.64,3.64,0,0,0-.79-.06h-1.65Z" transform="translate(-0.45 -1.17)"/>
    <path d="M148.26,26.19a3.49,3.49,0,0,1,.86-2.51,2.92,2.92,0,0,1,2.22-.91,3.1,3.1,0,0,1,1.61.43A2.8,2.8,0,0,1,154,24.38a3.87,3.87,0,0,1,.38,1.73,3.79,3.79,0,0,1-.39,1.75A2.7,2.7,0,0,1,152.9,29a3.2,3.2,0,0,1-1.56.4,3,3,0,0,1-1.63-.44,2.82,2.82,0,0,1-1.08-1.2A3.64,3.64,0,0,1,148.26,26.19Zm.88,0a2.58,2.58,0,0,0,.63,1.83,2.18,2.18,0,0,0,3.16,0,2.74,2.74,0,0,0,.62-1.92,3.29,3.29,0,0,0-.27-1.37,2.06,2.06,0,0,0-.78-.91,2.12,2.12,0,0,0-1.15-.32,2.18,2.18,0,0,0-1.56.62A2.78,2.78,0,0,0,149.14,26.2Z" transform="translate(-0.45 -1.17)"/>
    <path d="M155.53,29.32V22.88h2.86a3.79,3.79,0,0,1,1.31.17,1.44,1.44,0,0,1,.72.61,1.84,1.84,0,0,1,.27,1,1.62,1.62,0,0,1-.44,1.16,2.24,2.24,0,0,1-1.37.6,2.26,2.26,0,0,1,.51.32,4.49,4.49,0,0,1,.71.86l1.12,1.75h-1.07L159.28,28q-.37-.58-.62-.89a2,2,0,0,0-.43-.43,1.29,1.29,0,0,0-.39-.17,2.56,2.56,0,0,0-.47,0h-1v2.86Zm.85-3.6h1.83a2.77,2.77,0,0,0,.91-.12,1,1,0,0,0,.5-.39,1,1,0,0,0,.17-.58,1,1,0,0,0-.33-.75,1.55,1.55,0,0,0-1-.29h-2Z" transform="translate(-0.45 -1.17)"/>
    <path d="M163.49,29.32V23.64h-2.12v-.76h5.11v.76h-2.13v5.68Z" transform="translate(-0.45 -1.17)"/>
  </g>
  <g>
    <path d="M198.89,172.09l-2.5-6.44h.92l1.67,4.68q.2.56.34,1.05.15-.53.35-1.05l1.74-4.68h.87l-2.52,6.44Z" transform="translate(-0.45 -1.17)"/>
    <path d="M203.07,172.09v-6.44h4.66v.76h-3.81v2h3.56v.76h-3.56v2.19h4v.76Z" transform="translate(-0.45 -1.17)"/>
    <path d="M209,172.09v-6.44h.88l3.38,5.06v-5.06h.82v6.44h-.87L209.87,167v5.06Z" transform="translate(-0.45 -1.17)"/>
    <path d="M217.2,172.09v-5.68h-2.12v-.76h5.11v.76H218v5.68Z" transform="translate(-0.45 -1.17)"/>
    <path d="M225.28,165.65h.85v3.72a4.4,4.4,0,0,1-.22,1.54,1.89,1.89,0,0,1-.79.93,2.82,2.82,0,0,1-1.51.36,3.09,3.09,0,0,1-1.48-.31,1.78,1.78,0,0,1-.82-.9,4.3,4.3,0,0,1-.25-1.62v-3.72h.85v3.72a3.64,3.64,0,0,0,.16,1.24,1.19,1.19,0,0,0,.54.61,1.85,1.85,0,0,0,.93.22,1.77,1.77,0,0,0,1.34-.43,2.45,2.45,0,0,0,.4-1.64Z" transform="translate(-0.45 -1.17)"/>
    <path d="M227.57,172.09v-6.44h2.86a3.79,3.79,0,0,1,1.31.17,1.43,1.43,0,0,1,.72.61,1.83,1.83,0,0,1,.27,1,1.62,1.62,0,0,1-.44,1.16,2.24,2.24,0,0,1-1.37.6,2.24,2.24,0,0,1,.51.32,4.46,4.46,0,0,1,.71.86l1.12,1.75h-1.07l-.85-1.34q-.37-.58-.62-.89a2,2,0,0,0-.43-.43,1.27,1.27,0,0,0-.39-.17,2.55,2.55,0,0,0-.47,0h-1v2.86Zm.85-3.6h1.83a2.76,2.76,0,0,0,.91-.12,1,1,0,0,0,.5-.39,1,1,0,0,0,.17-.58,1,1,0,0,0-.33-.75,1.55,1.55,0,0,0-1-.29h-2Z" transform="translate(-0.45 -1.17)"/>
    <path d="M234.2,172.09v-6.44h.85v6.44Z" transform="translate(-0.45 -1.17)"/>
  </g>
  <g>
    <path d="M201.66,139.38l.85.22a2.87,2.87,0,0,1-1,1.6,2.66,2.66,0,0,1-1.7.55,3.05,3.05,0,0,1-1.69-.42,2.64,2.64,0,0,1-1-1.23,4.37,4.37,0,0,1-.34-1.73,3.79,3.79,0,0,1,.38-1.76,2.63,2.63,0,0,1,1.09-1.14,3.19,3.19,0,0,1,1.56-.39,2.65,2.65,0,0,1,1.63.49,2.56,2.56,0,0,1,.92,1.38l-.84.2a2,2,0,0,0-.65-1,1.73,1.73,0,0,0-1.07-.32,2.08,2.08,0,0,0-1.24.36,1.88,1.88,0,0,0-.7,1,3.85,3.85,0,0,0-.2,1.24,3.94,3.94,0,0,0,.24,1.43,1.79,1.79,0,0,0,.75.92,2.09,2.09,0,0,0,1.09.3,1.83,1.83,0,0,0,1.21-.41A2.11,2.11,0,0,0,201.66,139.38Z" transform="translate(-0.45 -1.17)"/>
    <path d="M203.31,138.5a3.5,3.5,0,0,1,.86-2.51,2.93,2.93,0,0,1,2.22-.91,3.1,3.1,0,0,1,1.61.43,2.8,2.8,0,0,1,1.09,1.19,3.87,3.87,0,0,1,.38,1.73,3.79,3.79,0,0,1-.39,1.75,2.7,2.7,0,0,1-1.12,1.17,3.2,3.2,0,0,1-1.56.4,3,3,0,0,1-1.63-.44,2.82,2.82,0,0,1-1.08-1.2A3.64,3.64,0,0,1,203.31,138.5Zm.88,0a2.58,2.58,0,0,0,.63,1.83,2.18,2.18,0,0,0,3.16,0,2.74,2.74,0,0,0,.62-1.92,3.29,3.29,0,0,0-.27-1.37,2,2,0,0,0-.78-.91,2.11,2.11,0,0,0-1.15-.32,2.18,2.18,0,0,0-1.56.62A2.78,2.78,0,0,0,204.19,138.51Z" transform="translate(-0.45 -1.17)"/>
    <path d="M210.54,141.64V135.2h1.28l1.53,4.56q.21.64.31,1,.11-.35.34-1l1.54-4.48h1.15v6.44h-.82v-5.39L214,141.64h-.77l-1.86-5.48v5.48Z" transform="translate(-0.45 -1.17)"/>
    <path d="M218,141.64V135.2h2.42a3,3,0,0,1,1.18.2,1.52,1.52,0,0,1,.7.6,1.58,1.58,0,0,1,.25.85,1.47,1.47,0,0,1-.22.78,1.61,1.61,0,0,1-.68.59,1.69,1.69,0,0,1,.9.58,1.57,1.57,0,0,1,.31,1,1.88,1.88,0,0,1-.19.84,1.63,1.63,0,0,1-.47.6,2,2,0,0,1-.71.32,4.32,4.32,0,0,1-1,.11Zm.85-3.74h1.39a3.06,3.06,0,0,0,.81-.08.9.9,0,0,0,.49-.32.93.93,0,0,0,.17-.56,1,1,0,0,0-.15-.56.77.77,0,0,0-.44-.33,3.66,3.66,0,0,0-1-.09h-1.29Zm0,3h1.6a3.68,3.68,0,0,0,.58,0,1.38,1.38,0,0,0,.49-.18.93.93,0,0,0,.33-.36,1.13,1.13,0,0,0,.13-.54,1.07,1.07,0,0,0-.18-.63,1,1,0,0,0-.51-.37,3.16,3.16,0,0,0-.94-.11h-1.49Z" transform="translate(-0.45 -1.17)"/>
    <path d="M228.29,135.2h.85v3.72a4.4,4.4,0,0,1-.22,1.54,1.89,1.89,0,0,1-.79.93,2.82,2.82,0,0,1-1.51.36,3.09,3.09,0,0,1-1.48-.31,1.78,1.78,0,0,1-.82-.9,4.3,4.3,0,0,1-.25-1.62V135.2h.85v3.72a3.64,3.64,0,0,0,.16,1.24,1.19,1.19,0,0,0,.54.61,1.85,1.85,0,0,0,.93.22,1.77,1.77,0,0,0,1.34-.43,2.45,2.45,0,0,0,.4-1.64Z" transform="translate(-0.45 -1.17)"/>
    <path d="M230.27,139.57l.8-.07a1.76,1.76,0,0,0,.27.79,1.45,1.45,0,0,0,.65.5,2.46,2.46,0,0,0,1,.19,2.37,2.37,0,0,0,.86-.15,1.19,1.19,0,0,0,.56-.4.92.92,0,0,0,.18-.55.84.84,0,0,0-.18-.53,1.3,1.3,0,0,0-.58-.38,11.23,11.23,0,0,0-1.15-.31,5.87,5.87,0,0,1-1.24-.4,1.74,1.74,0,0,1-.69-.6,1.47,1.47,0,0,1-.23-.8,1.63,1.63,0,0,1,.28-.91,1.7,1.7,0,0,1,.81-.64,3.06,3.06,0,0,1,1.18-.22,3.22,3.22,0,0,1,1.26.23,1.83,1.83,0,0,1,.84.68,2,2,0,0,1,.32,1l-.82.06a1.32,1.32,0,0,0-.45-.92,1.74,1.74,0,0,0-1.12-.31,1.8,1.8,0,0,0-1.13.28.85.85,0,0,0-.35.68.73.73,0,0,0,.25.57,3.39,3.39,0,0,0,1.29.46,8.52,8.52,0,0,1,1.43.41,2,2,0,0,1,.83.66,1.6,1.6,0,0,1,.27.92,1.75,1.75,0,0,1-.29,1,1.94,1.94,0,0,1-.85.71,3,3,0,0,1-1.24.25,3.72,3.72,0,0,1-1.46-.25,2.05,2.05,0,0,1-.93-.77A2.18,2.18,0,0,1,230.27,139.57Z" transform="translate(-0.45 -1.17)"/>
    <path d="M238.21,141.64V136h-2.12v-.76h5.11V136h-2.13v5.68Z" transform="translate(-0.45 -1.17)"/>
    <path d="M242.21,141.64V135.2h.85v6.44Z" transform="translate(-0.45 -1.17)"/>
    <path d="M244.31,138.5a3.5,3.5,0,0,1,.86-2.51,2.93,2.93,0,0,1,2.22-.91,3.1,3.1,0,0,1,1.61.43,2.8,2.8,0,0,1,1.09,1.19,3.87,3.87,0,0,1,.38,1.73,3.79,3.79,0,0,1-.39,1.75,2.7,2.7,0,0,1-1.12,1.17,3.2,3.2,0,0,1-1.56.4,3,3,0,0,1-1.63-.44,2.82,2.82,0,0,1-1.08-1.2A3.64,3.64,0,0,1,244.31,138.5Zm.88,0a2.58,2.58,0,0,0,.63,1.83,2.18,2.18,0,0,0,3.16,0,2.74,2.74,0,0,0,.62-1.92,3.29,3.29,0,0,0-.27-1.37,2,2,0,0,0-.78-.91,2.11,2.11,0,0,0-1.15-.32,2.18,2.18,0,0,0-1.56.62A2.78,2.78,0,0,0,245.19,138.51Z" transform="translate(-0.45 -1.17)"/>
    <path d="M251.56,141.64V135.2h.88l3.38,5.06V135.2h.82v6.44h-.87l-3.38-5.06v5.06Z" transform="translate(-0.45 -1.17)"/>
    <path d="M196.36,152.44l2.47-6.44h.92l2.64,6.44h-1l-.75-2H198l-.71,2Zm1.86-2.65h2.18l-.67-1.78q-.31-.81-.46-1.34a8.1,8.1,0,0,1-.35,1.23Z" transform="translate(-0.45 -1.17)"/>
    <path d="M203.21,152.44V146h.85v6.44Z" transform="translate(-0.45 -1.17)"/>
    <path d="M205.58,152.44V146h2.86a3.79,3.79,0,0,1,1.31.17,1.43,1.43,0,0,1,.72.61,1.83,1.83,0,0,1,.27,1,1.62,1.62,0,0,1-.44,1.16,2.24,2.24,0,0,1-1.37.6,2.24,2.24,0,0,1,.51.32,4.46,4.46,0,0,1,.71.86l1.12,1.75h-1.07l-.85-1.34q-.37-.58-.62-.89a2,2,0,0,0-.43-.43,1.27,1.27,0,0,0-.39-.17,2.55,2.55,0,0,0-.47,0h-1v2.86Zm.85-3.6h1.83a2.76,2.76,0,0,0,.91-.12,1,1,0,0,0,.5-.39,1,1,0,0,0,.17-.58,1,1,0,0,0-.33-.75,1.55,1.55,0,0,0-1-.29h-2Z" transform="translate(-0.45 -1.17)"/>
    <path d="M214.71,152.44V146h.85v6.44Z" transform="translate(-0.45 -1.17)"/>
    <path d="M217.06,152.44V146h.88l3.38,5.06V146h.82v6.44h-.87l-3.38-5.06v5.06Z" transform="translate(-0.45 -1.17)"/>
    <path d="M223.53,152.44V146h.85v5.68h3.17v.76Z" transform="translate(-0.45 -1.17)"/>
    <path d="M228.59,152.44V146h4.66v.76h-3.81v2H233v.76h-3.56v2.19h4v.76Z" transform="translate(-0.45 -1.17)"/>
    <path d="M236.22,152.44v-5.68h-2.12V146h5.11v.76h-2.13v5.68Z" transform="translate(-0.45 -1.17)"/>
  </g>
  <g>
    <path d="M232.91,45.78V45h2.73v2.39a4.81,4.81,0,0,1-1.29.75,3.85,3.85,0,0,1-1.37.25,3.65,3.65,0,0,1-1.72-.41,2.68,2.68,0,0,1-1.17-1.18,3.7,3.7,0,0,1-.4-1.72,4,4,0,0,1,.39-1.76,2.61,2.61,0,0,1,1.13-1.21,3.55,3.55,0,0,1,1.7-.4,3.39,3.39,0,0,1,1.26.23,2.09,2.09,0,0,1,.88.63,2.78,2.78,0,0,1,.49,1.05l-.77.21a2.38,2.38,0,0,0-.36-.77,1.49,1.49,0,0,0-.62-.45,2.25,2.25,0,0,0-.89-.17,2.6,2.6,0,0,0-1,.18,1.87,1.87,0,0,0-.69.47,2.23,2.23,0,0,0-.41.64,3.37,3.37,0,0,0-.25,1.3,3.15,3.15,0,0,0,.3,1.44,1.91,1.91,0,0,0,.86.86,2.68,2.68,0,0,0,1.21.28,2.86,2.86,0,0,0,1.08-.21,2.81,2.81,0,0,0,.8-.46v-1.2Z" transform="translate(-0.45 -1.17)"/>
    <path d="M236.19,48.3l2.47-6.44h.92l2.64,6.44h-1l-.75-2h-2.69l-.71,2Zm1.86-2.65h2.18l-.67-1.78q-.31-.81-.46-1.34a8.1,8.1,0,0,1-.35,1.23Z" transform="translate(-0.45 -1.17)"/>
    <path d="M242.61,46.23l.8-.07a1.75,1.75,0,0,0,.27.79,1.45,1.45,0,0,0,.65.5,2.45,2.45,0,0,0,1,.19,2.38,2.38,0,0,0,.86-.15,1.2,1.2,0,0,0,.55-.4.92.92,0,0,0,.18-.55.84.84,0,0,0-.18-.53,1.3,1.3,0,0,0-.58-.38,11.39,11.39,0,0,0-1.15-.31,5.83,5.83,0,0,1-1.24-.4,1.74,1.74,0,0,1-.69-.6,1.46,1.46,0,0,1-.23-.8,1.63,1.63,0,0,1,.28-.91,1.7,1.7,0,0,1,.81-.64,3.06,3.06,0,0,1,1.18-.22,3.23,3.23,0,0,1,1.26.23,1.83,1.83,0,0,1,.84.68,2,2,0,0,1,.32,1l-.82.06a1.32,1.32,0,0,0-.45-.92,1.74,1.74,0,0,0-1.12-.31,1.8,1.8,0,0,0-1.13.28.85.85,0,0,0-.35.68.73.73,0,0,0,.25.57,3.38,3.38,0,0,0,1.29.46,8.52,8.52,0,0,1,1.43.41,1.94,1.94,0,0,1,.83.66,1.59,1.59,0,0,1,.27.92,1.76,1.76,0,0,1-.29,1,2,2,0,0,1-.85.71,3,3,0,0,1-1.24.25,3.71,3.71,0,0,1-1.46-.25,2.05,2.05,0,0,1-.93-.77A2.17,2.17,0,0,1,242.61,46.23Z" transform="translate(-0.45 -1.17)"/>
    <path d="M231.74,59.1l-2.5-6.44h.92l1.67,4.68q.2.56.34,1.05c.1-.35.22-.7.35-1.05l1.74-4.68h.87l-2.52,6.44Z" transform="translate(-0.45 -1.17)"/>
    <path d="M234.53,59.1,237,52.66h.92l2.64,6.44h-1l-.75-2h-2.69l-.71,2Zm1.86-2.65h2.18l-.67-1.78q-.31-.81-.46-1.34a8.1,8.1,0,0,1-.35,1.23Z" transform="translate(-0.45 -1.17)"/>
    <path d="M241.2,59.1V52.66h.85v5.68h3.17v.76Z" transform="translate(-0.45 -1.17)"/>
    <path d="M247.42,59.1l-2.5-6.44h.92l1.67,4.68c.13.38.25.73.34,1.05q.15-.53.35-1.05l1.74-4.68h.87l-2.52,6.44Z" transform="translate(-0.45 -1.17)"/>
    <path d="M251.6,59.1V52.66h4.66v.76h-3.8v2H256v.76h-3.56v2.19h4v.76Z" transform="translate(-0.45 -1.17)"/>
  </g>
  <g>
    <path d="M5.29,104.32l.85.22a2.87,2.87,0,0,1-1,1.6,2.66,2.66,0,0,1-1.7.55,3.05,3.05,0,0,1-1.69-.42,2.64,2.64,0,0,1-1-1.23,4.37,4.37,0,0,1-.34-1.73,3.79,3.79,0,0,1,.38-1.76,2.63,2.63,0,0,1,1.09-1.14A3.19,3.19,0,0,1,3.49,100a2.64,2.64,0,0,1,1.63.49A2.56,2.56,0,0,1,6,101.9l-.84.2a2,2,0,0,0-.65-1,1.73,1.73,0,0,0-1.07-.32,2.08,2.08,0,0,0-1.24.36,1.88,1.88,0,0,0-.7,1,3.84,3.84,0,0,0-.2,1.24,3.93,3.93,0,0,0,.24,1.44,1.79,1.79,0,0,0,.75.92,2.09,2.09,0,0,0,1.09.3,1.83,1.83,0,0,0,1.21-.41A2.11,2.11,0,0,0,5.29,104.32Z" transform="translate(-0.45 -1.17)"/>
    <path d="M6.93,103.44a3.5,3.5,0,0,1,.86-2.51A2.93,2.93,0,0,1,10,100a3.08,3.08,0,0,1,1.61.43,2.79,2.79,0,0,1,1.09,1.19,3.87,3.87,0,0,1,.38,1.73,3.8,3.8,0,0,1-.4,1.75,2.7,2.7,0,0,1-1.12,1.17,3.2,3.2,0,0,1-1.56.4,3,3,0,0,1-1.63-.44,2.83,2.83,0,0,1-1.09-1.2A3.64,3.64,0,0,1,6.93,103.44Zm.88,0a2.58,2.58,0,0,0,.63,1.83A2.06,2.06,0,0,0,10,106a2.06,2.06,0,0,0,1.58-.68,2.74,2.74,0,0,0,.62-1.92A3.3,3.3,0,0,0,12,102a2,2,0,0,0-.78-.91,2.11,2.11,0,0,0-1.15-.32,2.18,2.18,0,0,0-1.56.62A2.78,2.78,0,0,0,7.81,103.46Z" transform="translate(-0.45 -1.17)"/>
    <path d="M14.17,106.58v-6.44h1.28L17,104.7q.21.64.31,1,.11-.35.34-1l1.54-4.48h1.15v6.44h-.82v-5.39l-1.87,5.39h-.77L15,101.1v5.48Z" transform="translate(-0.45 -1.17)"/>
    <path d="M21.66,106.58v-6.44h2.42a3,3,0,0,1,1.18.2,1.53,1.53,0,0,1,.7.6,1.59,1.59,0,0,1,.25.85,1.46,1.46,0,0,1-.22.78,1.6,1.6,0,0,1-.68.59,1.69,1.69,0,0,1,.9.58,1.57,1.57,0,0,1,.31,1,1.89,1.89,0,0,1-.19.84,1.63,1.63,0,0,1-.47.6,2,2,0,0,1-.71.32,4.3,4.3,0,0,1-1,.11Zm.85-3.74H23.9a3.11,3.11,0,0,0,.81-.07.91.91,0,0,0,.49-.32.93.93,0,0,0,.16-.56,1,1,0,0,0-.15-.56.78.78,0,0,0-.44-.33,3.67,3.67,0,0,0-1-.09H22.51Zm0,3h1.6a3.69,3.69,0,0,0,.58,0,1.39,1.39,0,0,0,.49-.18.93.93,0,0,0,.33-.36,1.12,1.12,0,0,0,.13-.54,1.07,1.07,0,0,0-.18-.63,1,1,0,0,0-.51-.37,3.18,3.18,0,0,0-.94-.11H22.51Z" transform="translate(-0.45 -1.17)"/>
    <path d="M31.92,100.14h.85v3.72a4.41,4.41,0,0,1-.22,1.54,1.88,1.88,0,0,1-.79.93,2.81,2.81,0,0,1-1.51.36,3.09,3.09,0,0,1-1.48-.31,1.78,1.78,0,0,1-.82-.9,4.3,4.3,0,0,1-.25-1.61v-3.72h.85v3.72a3.63,3.63,0,0,0,.16,1.24,1.18,1.18,0,0,0,.54.61,1.86,1.86,0,0,0,.93.22,1.78,1.78,0,0,0,1.34-.43,2.46,2.46,0,0,0,.4-1.64Z" transform="translate(-0.45 -1.17)"/>
    <path d="M33.9,104.51l.8-.07a1.77,1.77,0,0,0,.27.79,1.45,1.45,0,0,0,.65.5,2.46,2.46,0,0,0,1,.19,2.37,2.37,0,0,0,.86-.15,1.19,1.19,0,0,0,.56-.4.92.92,0,0,0,.18-.55.84.84,0,0,0-.18-.53,1.3,1.3,0,0,0-.58-.38,11.36,11.36,0,0,0-1.15-.31,5.86,5.86,0,0,1-1.24-.4,1.74,1.74,0,0,1-.69-.6,1.47,1.47,0,0,1-.23-.8,1.64,1.64,0,0,1,.28-.91,1.71,1.71,0,0,1,.81-.64,3.07,3.07,0,0,1,1.18-.22,3.22,3.22,0,0,1,1.26.23,1.82,1.82,0,0,1,.84.68,2,2,0,0,1,.32,1L38,102a1.32,1.32,0,0,0-.45-.92,1.74,1.74,0,0,0-1.12-.31,1.8,1.8,0,0,0-1.13.28.85.85,0,0,0-.35.68.73.73,0,0,0,.25.57,3.38,3.38,0,0,0,1.29.46,8.55,8.55,0,0,1,1.43.41,2,2,0,0,1,.83.66,1.6,1.6,0,0,1,.27.92,1.75,1.75,0,0,1-.29,1,1.94,1.94,0,0,1-.85.71,3,3,0,0,1-1.24.25,3.7,3.7,0,0,1-1.47-.25,2.05,2.05,0,0,1-.93-.77A2.18,2.18,0,0,1,33.9,104.51Z" transform="translate(-0.45 -1.17)"/>
    <path d="M41.84,106.58V100.9H39.71v-.76h5.11v.76H42.69v5.68Z" transform="translate(-0.45 -1.17)"/>
    <path d="M45.84,106.58v-6.44h.85v6.44Z" transform="translate(-0.45 -1.17)"/>
    <path d="M47.94,103.44a3.5,3.5,0,0,1,.86-2.51A2.93,2.93,0,0,1,51,100a3.08,3.08,0,0,1,1.61.43,2.79,2.79,0,0,1,1.09,1.19,3.87,3.87,0,0,1,.38,1.73,3.8,3.8,0,0,1-.4,1.75,2.7,2.7,0,0,1-1.12,1.17,3.2,3.2,0,0,1-1.56.4,3,3,0,0,1-1.63-.44,2.83,2.83,0,0,1-1.09-1.2A3.64,3.64,0,0,1,47.94,103.44Zm.88,0a2.58,2.58,0,0,0,.63,1.83,2.18,2.18,0,0,0,3.16,0,2.74,2.74,0,0,0,.62-1.92A3.3,3.3,0,0,0,53,102a2,2,0,0,0-.78-.91,2.11,2.11,0,0,0-1.15-.32,2.18,2.18,0,0,0-1.56.62A2.78,2.78,0,0,0,48.81,103.46Z" transform="translate(-0.45 -1.17)"/>
    <path d="M55.19,106.58v-6.44h.87l3.38,5.06v-5.06h.82v6.44h-.87L56,101.52v5.06Z" transform="translate(-0.45 -1.17)"/>
    <path d="M.66,117.38v-6.44H3.08a3,3,0,0,1,1.18.2,1.53,1.53,0,0,1,.7.6,1.59,1.59,0,0,1,.25.85,1.46,1.46,0,0,1-.22.78,1.6,1.6,0,0,1-.68.59,1.69,1.69,0,0,1,.9.58,1.57,1.57,0,0,1,.31,1,1.89,1.89,0,0,1-.19.84,1.63,1.63,0,0,1-.47.6,2,2,0,0,1-.71.32,4.3,4.3,0,0,1-1,.11Zm.85-3.74H2.9a3.11,3.11,0,0,0,.81-.07.91.91,0,0,0,.49-.32.93.93,0,0,0,.16-.56,1,1,0,0,0-.15-.56.78.78,0,0,0-.44-.33,3.67,3.67,0,0,0-1-.09H1.51Zm0,3h1.6a3.69,3.69,0,0,0,.58,0,1.39,1.39,0,0,0,.49-.18.93.93,0,0,0,.33-.36,1.12,1.12,0,0,0,.13-.54,1.07,1.07,0,0,0-.18-.63,1,1,0,0,0-.51-.37A3.18,3.18,0,0,0,3,114.4H1.51Z" transform="translate(-0.45 -1.17)"/>
    <path d="M6.66,117.38v-6.44h.85v5.68h3.17v.76Z" transform="translate(-0.45 -1.17)"/>
    <path d="M11.44,114.24a3.5,3.5,0,0,1,.86-2.51,2.93,2.93,0,0,1,2.22-.91,3.08,3.08,0,0,1,1.61.43,2.79,2.79,0,0,1,1.09,1.19,3.87,3.87,0,0,1,.38,1.73,3.8,3.8,0,0,1-.4,1.75,2.7,2.7,0,0,1-1.12,1.17,3.2,3.2,0,0,1-1.56.4,3,3,0,0,1-1.63-.44,2.83,2.83,0,0,1-1.09-1.2A3.64,3.64,0,0,1,11.44,114.24Zm.88,0a2.58,2.58,0,0,0,.63,1.83,2.18,2.18,0,0,0,3.16,0,2.74,2.74,0,0,0,.62-1.92,3.3,3.3,0,0,0-.27-1.37,2,2,0,0,0-.78-.91,2.11,2.11,0,0,0-1.15-.32,2.18,2.18,0,0,0-1.56.62A2.78,2.78,0,0,0,12.32,114.26Z" transform="translate(-0.45 -1.17)"/>
    <path d="M19.83,117.38l-1.71-6.44H19l1,4.22q.16.66.27,1.32.25-1,.29-1.19l1.23-4.35h1l.92,3.26a17.28,17.28,0,0,1,.5,2.28q.12-.61.32-1.4l1-4.14h.86l-1.77,6.44h-.82l-1.36-4.91q-.17-.62-.2-.76-.1.44-.19.76l-1.37,4.91Z" transform="translate(-0.45 -1.17)"/>
    <path d="M27.22,117.38v-6.44h4.66v.76H28.07v2h3.56v.76H28.07v2.19h4v.76Z" transform="translate(-0.45 -1.17)"/>
    <path d="M33.21,117.38v-6.44h2.86a3.8,3.8,0,0,1,1.31.17,1.43,1.43,0,0,1,.72.61,1.83,1.83,0,0,1,.27,1,1.62,1.62,0,0,1-.44,1.16,2.25,2.25,0,0,1-1.37.6,2.21,2.21,0,0,1,.51.32,4.43,4.43,0,0,1,.71.86l1.12,1.75H37.82L37,116q-.37-.58-.62-.89a1.92,1.92,0,0,0-.43-.43,1.27,1.27,0,0,0-.39-.17,2.56,2.56,0,0,0-.47,0h-1v2.86Zm.85-3.6H35.9a2.75,2.75,0,0,0,.91-.12,1,1,0,0,0,.5-.39,1,1,0,0,0,.17-.58,1,1,0,0,0-.33-.75,1.55,1.55,0,0,0-1-.29h-2Z" transform="translate(-0.45 -1.17)"/>
    <path d="M5.29,125.92l.85.22a2.87,2.87,0,0,1-1,1.6,2.66,2.66,0,0,1-1.7.55,3.05,3.05,0,0,1-1.69-.42,2.64,2.64,0,0,1-1-1.23,4.37,4.37,0,0,1-.34-1.73,3.79,3.79,0,0,1,.38-1.76A2.63,2.63,0,0,1,1.93,122a3.19,3.19,0,0,1,1.56-.39,2.64,2.64,0,0,1,1.63.49A2.56,2.56,0,0,1,6,123.5l-.84.2a2,2,0,0,0-.65-1,1.73,1.73,0,0,0-1.07-.32,2.08,2.08,0,0,0-1.24.36,1.88,1.88,0,0,0-.7,1,3.84,3.84,0,0,0-.2,1.24,3.93,3.93,0,0,0,.24,1.44,1.79,1.79,0,0,0,.75.92,2.09,2.09,0,0,0,1.09.3,1.83,1.83,0,0,0,1.21-.41A2.11,2.11,0,0,0,5.29,125.92Z" transform="translate(-0.45 -1.17)"/>
    <path d="M6.93,125a3.5,3.5,0,0,1,.86-2.51,2.93,2.93,0,0,1,2.22-.91,3.08,3.08,0,0,1,1.61.43,2.79,2.79,0,0,1,1.09,1.19A3.87,3.87,0,0,1,13.1,125a3.8,3.8,0,0,1-.4,1.75,2.7,2.7,0,0,1-1.12,1.17,3.2,3.2,0,0,1-1.56.4,3,3,0,0,1-1.63-.44,2.83,2.83,0,0,1-1.09-1.2A3.64,3.64,0,0,1,6.93,125Zm.88,0a2.58,2.58,0,0,0,.63,1.83,2.06,2.06,0,0,0,1.57.67,2.06,2.06,0,0,0,1.58-.68,2.74,2.74,0,0,0,.62-1.92,3.3,3.3,0,0,0-.27-1.37,2,2,0,0,0-.78-.91,2.11,2.11,0,0,0-1.15-.32,2.18,2.18,0,0,0-1.56.62A2.78,2.78,0,0,0,7.81,125.06Z" transform="translate(-0.45 -1.17)"/>
    <path d="M14.19,128.18v-6.44h.87l3.38,5.06v-5.06h.82v6.44h-.87L15,123.12v5.06Z" transform="translate(-0.45 -1.17)"/>
    <path d="M20.69,128.18v-6.44h.87l3.38,5.06v-5.06h.82v6.44h-.87l-3.38-5.06v5.06Z" transform="translate(-0.45 -1.17)"/>
    <path d="M27.21,128.18v-6.44h4.66v.76H28.06v2h3.56v.76H28.06v2.19h4v.76Z" transform="translate(-0.45 -1.17)"/>
    <path d="M37.79,125.92l.85.22a2.87,2.87,0,0,1-1,1.6,2.66,2.66,0,0,1-1.7.55,3.05,3.05,0,0,1-1.69-.42,2.64,2.64,0,0,1-1-1.23,4.37,4.37,0,0,1-.34-1.73,3.79,3.79,0,0,1,.38-1.76A2.63,2.63,0,0,1,34.43,122a3.19,3.19,0,0,1,1.56-.39,2.64,2.64,0,0,1,1.63.49,2.56,2.56,0,0,1,.92,1.38l-.84.2a2,2,0,0,0-.65-1,1.73,1.73,0,0,0-1.07-.32,2.08,2.08,0,0,0-1.24.36,1.88,1.88,0,0,0-.7,1,3.84,3.84,0,0,0-.2,1.24,3.93,3.93,0,0,0,.24,1.44,1.79,1.79,0,0,0,.75.92,2.09,2.09,0,0,0,1.09.3,1.83,1.83,0,0,0,1.21-.41A2.11,2.11,0,0,0,37.79,125.92Z" transform="translate(-0.45 -1.17)"/>
    <path d="M41.33,128.18V122.5H39.21v-.76h5.11v.76H42.19v5.68Z" transform="translate(-0.45 -1.17)"/>
    <path d="M45.34,128.18v-6.44h.85v6.44Z" transform="translate(-0.45 -1.17)"/>
    <path d="M47.43,125a3.5,3.5,0,0,1,.86-2.51,2.93,2.93,0,0,1,2.22-.91,3.08,3.08,0,0,1,1.61.43,2.79,2.79,0,0,1,1.09,1.19A3.87,3.87,0,0,1,53.6,125a3.8,3.8,0,0,1-.4,1.75,2.7,2.7,0,0,1-1.12,1.17,3.2,3.2,0,0,1-1.56.4,3,3,0,0,1-1.63-.44,2.83,2.83,0,0,1-1.09-1.2A3.64,3.64,0,0,1,47.43,125Zm.88,0a2.58,2.58,0,0,0,.63,1.83,2.18,2.18,0,0,0,3.16,0,2.74,2.74,0,0,0,.62-1.92,3.3,3.3,0,0,0-.27-1.37,2,2,0,0,0-.78-.91,2.11,2.11,0,0,0-1.15-.32A2.18,2.18,0,0,0,49,123,2.78,2.78,0,0,0,48.31,125.06Z" transform="translate(-0.45 -1.17)"/>
    <path d="M54.69,128.18v-6.44h.87l3.38,5.06v-5.06h.82v6.44h-.87l-3.38-5.06v5.06Z" transform="translate(-0.45 -1.17)"/>
  </g>
  <g>
    <line class="cls-3" x1="191.55" y1="141.75" x2="176.92" y2="141.75"/>
    <path d="M175,143.95a43.06,43.06,0,0,1,4.05,1.49v-5a39.41,39.41,0,0,1-4.05,1.49,29.52,29.52,0,0,1-4.42,1A29.49,29.49,0,0,1,175,143.95Z" transform="translate(-0.45 -1.17)"/>
  </g>
  <g>
    <line class="cls-3" x1="191.55" y1="168.53" x2="176.92" y2="168.53"/>
    <path d="M175,170.72c1.65.5,2.73,1,4.05,1.49v-5a39.32,39.32,0,0,1-4.05,1.49,29.59,29.59,0,0,1-4.42,1A29.55,29.55,0,0,1,175,170.72Z" transform="translate(-0.45 -1.17)"/>
  </g>
  <g>
    <line class="cls-3" x1="33.22" y1="131.37" x2="56.89" y2="149.27"/>
    <path d="M59.84,151c-1-1.4-1.6-2.41-2.33-3.64l-3,4a39.56,39.56,0,0,1,4.13,1.26,29.52,29.52,0,0,1,4.14,1.84A29.73,29.73,0,0,1,59.84,151Z" transform="translate(-0.45 -1.17)"/>
  </g>
  <g>
    <line class="cls-3" x1="75.55" y1="27.03" x2="105.98" y2="70.51"/>
    <path d="M108.63,73c-.54-1.64-.78-2.79-1.1-4.18l-4.13,2.89a39.75,39.75,0,0,1,3.55,2.47,29.66,29.66,0,0,1,3.38,3A29.59,29.59,0,0,1,108.63,73Z" transform="translate(-0.45 -1.17)"/>
  </g>
  <g>
    <line class="cls-3" x1="138.55" y1="32.03" x2="128.23" y2="69.33"/>
    <path d="M129,73a43.2,43.2,0,0,1,2.52-3.51l-4.86-1.35a39.9,39.9,0,0,1,.36,4.31,29.56,29.56,0,0,1-.18,4.53A29.66,29.66,0,0,1,129,73Z" transform="translate(-0.45 -1.17)"/>
  </g>
  <g>
    <line class="cls-3" x1="228.76" y1="59.36" x2="195.92" y2="81.29"/>
    <path d="M195,84.62a43.17,43.17,0,0,1,4.2-1l-2.8-4.19a39.39,39.39,0,0,1-2.54,3.49,29.7,29.7,0,0,1-3.1,3.31A29.55,29.55,0,0,1,195,84.62Z" transform="translate(-0.45 -1.17)"/>
  </g>
</svg>
