<svg id="Layer_1" data-name="Layer 1" xmlns="http://www.w3.org/2000/svg" viewBox="0 0 244.67 81.03"><title>gas_input_equation</title><path d="M39.34,16.23,41.76,13l-2.23-3h1.4l1,1.46q.29.42.46.7l.5-.69L44,10h1.34l-2.28,2.93,2.46,3.29H44.15L42.8,14.3l-.36-.52L40.7,16.23Z" transform="translate(0 -1.67)"/><path d="M53.73,16.23V7.64h1.21v3.53h4.74V7.64h1.21v8.59H59.68v-4H54.94v4Z" transform="translate(0 -1.67)"/><path d="M75.74,11.18h-6v-1h6Zm0,2.61h-6v-1h6Z" transform="translate(0 -1.67)"/><path d="M84.46,16.23V7.64h3.42a4.48,4.48,0,0,1,1.68.26,2.13,2.13,0,0,1,1,.8,2,2,0,0,1,.36,1.13,1.87,1.87,0,0,1-.32,1,2.23,2.23,0,0,1-1,.79,2.4,2.4,0,0,1,1.27.78,2,2,0,0,1,.44,1.3,2.39,2.39,0,0,1-.27,1.12,2.2,2.2,0,0,1-.67.8,2.88,2.88,0,0,1-1,.42,6.45,6.45,0,0,1-1.47.14Zm1.21-5h2a4.67,4.67,0,0,0,1.15-.1,1.29,1.29,0,0,0,.69-.43,1.18,1.18,0,0,0,.23-.75,1.32,1.32,0,0,0-.22-.75,1.1,1.1,0,0,0-.62-.45,5.51,5.51,0,0,0-1.39-.12H85.67Zm0,4h2.27a5.55,5.55,0,0,0,.82,0,2,2,0,0,0,.7-.23,1.28,1.28,0,0,0,.46-.48,1.43,1.43,0,0,0,.18-.72,1.34,1.34,0,0,0-1-1.33,4.76,4.76,0,0,0-1.34-.14H85.67Z" transform="translate(0 -1.67)"/><path d="M95.32,15.29l.16.93a4.41,4.41,0,0,1-.85.09,2,2,0,0,1-.95-.18,1,1,0,0,1-.47-.48,3.57,3.57,0,0,1-.14-1.25V10.83h-.82V10h.82V8.47l1.11-.63V10h1.13v.82H94.19v3.64a1.73,1.73,0,0,0,.06.58.45.45,0,0,0,.19.21.79.79,0,0,0,.38.08A3.87,3.87,0,0,0,95.32,15.29Z" transform="translate(0 -1.67)"/><path d="M100.75,16.23v-.91a2.46,2.46,0,0,1-2.1,1.05,2.81,2.81,0,0,1-1.09-.21,1.79,1.79,0,0,1-.75-.53,1.93,1.93,0,0,1-.35-.78,5.07,5.07,0,0,1-.07-1V10h1.12v3.45a5.82,5.82,0,0,0,.07,1.11,1.1,1.1,0,0,0,.45.65,1.45,1.45,0,0,0,.85.24,1.93,1.93,0,0,0,.95-.24,1.38,1.38,0,0,0,.63-.66,3.15,3.15,0,0,0,.18-1.22V10h1.12v6.22Z" transform="translate(0 -1.67)"/><path d="M102.67,16.38l2.65-8.88h.9l-2.64,8.88Z" transform="translate(0 -1.67)"/><path d="M107,16.23V7.64h1.12v3.08a2.57,2.57,0,0,1,2-.86,2.81,2.81,0,0,1,1.28.27,1.65,1.65,0,0,1,.78.75,3.29,3.29,0,0,1,.23,1.39v3.94h-1.12V12.29a1.57,1.57,0,0,0-.36-1.15,1.4,1.4,0,0,0-1-.36A1.9,1.9,0,0,0,109,11a1.41,1.41,0,0,0-.63.66,2.87,2.87,0,0,0-.19,1.15v3.4Z" transform="translate(0 -1.67)"/><path d="M114.13,16.23V10h1V11a2.61,2.61,0,0,1,.71-.87,1.3,1.3,0,0,1,.72-.21,2.28,2.28,0,0,1,1.15.34l-.39,1a1.68,1.68,0,0,0-.82-.23,1.11,1.11,0,0,0-.66.21,1.13,1.13,0,0,0-.42.58,3.88,3.88,0,0,0-.19,1.23v3.26Z" transform="translate(0 -1.67)"/><path d="M1.06,8l1.05-.14a2.32,2.32,0,0,0,.62,1.29,1.53,1.53,0,0,0,1.06.4,1.7,1.7,0,0,0,1.26-.52,1.74,1.74,0,0,0,.51-1.28,1.62,1.62,0,0,0-.47-1.2,1.64,1.64,0,0,0-1.21-.47,3,3,0,0,0-.74.12l.12-.93h.17A2.17,2.17,0,0,0,4.64,5a1.2,1.2,0,0,0,.54-1.08,1.28,1.28,0,0,0-.39-1,1.39,1.39,0,0,0-1-.38,1.44,1.44,0,0,0-1,.39,1.94,1.94,0,0,0-.53,1.16L1.16,3.9A2.71,2.71,0,0,1,2,2.26a2.54,2.54,0,0,1,1.71-.58A2.81,2.81,0,0,1,5,2a2.18,2.18,0,0,1,.91.82,2.11,2.11,0,0,1,.31,1.11,1.81,1.81,0,0,1-.3,1,2,2,0,0,1-.88.73,2,2,0,0,1,1.18.73,2.22,2.22,0,0,1,.42,1.39,2.54,2.54,0,0,1-.82,1.91,2.89,2.89,0,0,1-2.07.78,2.7,2.7,0,0,1-1.88-.67A2.61,2.61,0,0,1,1.06,8Z" transform="translate(0 -1.67)"/><path d="M13.2,3.81l-1,.08a2,2,0,0,0-.4-.9,1.4,1.4,0,0,0-1.05-.45,1.45,1.45,0,0,0-.88.28A2.4,2.4,0,0,0,9,3.88a5.54,5.54,0,0,0-.3,2A2.44,2.44,0,0,1,9.66,5a2.51,2.51,0,0,1,1.15-.28,2.39,2.39,0,0,1,1.8.78,2.79,2.79,0,0,1,.74,2A3.3,3.3,0,0,1,13,9a2.54,2.54,0,0,1-1,1.06,2.62,2.62,0,0,1-1.38.37,2.7,2.7,0,0,1-2.15-1,4.9,4.9,0,0,1-.83-3.2A5.73,5.73,0,0,1,8.6,2.66a2.64,2.64,0,0,1,2.16-1,2.43,2.43,0,0,1,1.66.57A2.41,2.41,0,0,1,13.2,3.81ZM8.89,7.51a2.45,2.45,0,0,0,.23,1,1.72,1.72,0,0,0,.65.76,1.62,1.62,0,0,0,.87.26A1.49,1.49,0,0,0,11.79,9a2.12,2.12,0,0,0,.48-1.46,2,2,0,0,0-.47-1.4,1.56,1.56,0,0,0-1.2-.51,1.63,1.63,0,0,0-1.21.51A1.85,1.85,0,0,0,8.89,7.51Z" transform="translate(0 -1.67)"/><path d="M14.4,6.06a7.86,7.86,0,0,1,.31-2.45,3.05,3.05,0,0,1,.93-1.43,2.38,2.38,0,0,1,1.56-.5A2.54,2.54,0,0,1,18.41,2a2.32,2.32,0,0,1,.86.8A4.31,4.31,0,0,1,19.81,4a8.49,8.49,0,0,1,.19,2,7.88,7.88,0,0,1-.31,2.44,3.05,3.05,0,0,1-.93,1.44,2.38,2.38,0,0,1-1.56.51,2.36,2.36,0,0,1-2-.89A5.66,5.66,0,0,1,14.4,6.06Zm1.08,0A5.39,5.39,0,0,0,16,8.88a1.41,1.41,0,0,0,2.44,0,5.39,5.39,0,0,0,.5-2.81,5.38,5.38,0,0,0-.5-2.82,1.47,1.47,0,0,0-1.23-.7A1.35,1.35,0,0,0,16,3.16,5.45,5.45,0,0,0,15.48,6.06Z" transform="translate(0 -1.67)"/><path d="M21.07,6.06a7.86,7.86,0,0,1,.31-2.45,3.05,3.05,0,0,1,.93-1.43,2.38,2.38,0,0,1,1.56-.5A2.54,2.54,0,0,1,25.09,2a2.32,2.32,0,0,1,.86.8A4.31,4.31,0,0,1,26.48,4a8.49,8.49,0,0,1,.19,2,7.88,7.88,0,0,1-.31,2.44,3.05,3.05,0,0,1-.93,1.44,2.38,2.38,0,0,1-1.56.51,2.36,2.36,0,0,1-2-.89A5.66,5.66,0,0,1,21.07,6.06Zm1.08,0a5.39,5.39,0,0,0,.5,2.82,1.41,1.41,0,0,0,2.44,0,5.39,5.39,0,0,0,.5-2.81,5.38,5.38,0,0,0-.5-2.82,1.47,1.47,0,0,0-1.23-.7,1.35,1.35,0,0,0-1.16.62A5.45,5.45,0,0,0,22.16,6.06Z" transform="translate(0 -1.67)"/><path d="M13.46,26V18.47H10.63v-1h6.81v1H14.59V26Z" transform="translate(0 -1.67)"/><line x1="0.02" y1="11.36" x2="25.52" y2="11.36" style="fill:none;stroke:#000"/><path d="M39.34,72.74l2.42-3.23-2.23-3h1.4l1,1.46q.29.42.46.7l.5-.69L44,66.52h1.34l-2.28,2.93,2.46,3.29H44.15L42.8,70.81l-.36-.52L40.7,72.74Z" transform="translate(0 -1.67)"/><path d="M57.46,72.74H56.34V66a5.79,5.79,0,0,1-1.06.73,7.74,7.74,0,0,1-1.18.54v-1a6.82,6.82,0,0,0,1.64-1,4,4,0,0,0,1-1.15h.72Z" transform="translate(0 -1.67)"/><path d="M60.33,68.5a7.43,7.43,0,0,1,.33-2.45,3,3,0,0,1,1-1.43,2.64,2.64,0,0,1,1.65-.5,2.83,2.83,0,0,1,1.29.28,2.41,2.41,0,0,1,.92.8,4.18,4.18,0,0,1,.57,1.28,8,8,0,0,1,.21,2,7.46,7.46,0,0,1-.33,2.44,3,3,0,0,1-1,1.44,2.64,2.64,0,0,1-1.66.51A2.57,2.57,0,0,1,61.23,72,5.41,5.41,0,0,1,60.33,68.5Zm1.15,0A5.11,5.11,0,0,0,62,71.32a1.55,1.55,0,0,0,2.6,0,5.11,5.11,0,0,0,.53-2.81,5.11,5.11,0,0,0-.53-2.82,1.58,1.58,0,0,0-1.31-.7,1.46,1.46,0,0,0-1.23.62A5.18,5.18,0,0,0,61.48,68.5Z" transform="translate(0 -1.67)"/><path d="M67.42,70.49l1.18-.09a1.94,1.94,0,0,0,.61,1.22,1.71,1.71,0,0,0,1.15.41,1.84,1.84,0,0,0,1.37-.57,2.09,2.09,0,0,0,.56-1.52,1.89,1.89,0,0,0-.54-1.42A1.94,1.94,0,0,0,70.33,68a2.05,2.05,0,0,0-1,.23,1.86,1.86,0,0,0-.69.6l-1.05-.13.88-4.41H73v1H69.4l-.49,2.31A3.1,3.1,0,0,1,70.63,67a2.82,2.82,0,0,1,2,.78,2.64,2.64,0,0,1,.82,2,3,3,0,0,1-.72,2,3,3,0,0,1-2.4,1,3.07,3.07,0,0,1-2-.66A2.51,2.51,0,0,1,67.42,70.49Z" transform="translate(0 -1.67)"/><path d="M74.51,68.5a7.43,7.43,0,0,1,.33-2.45,3,3,0,0,1,1-1.43,2.64,2.64,0,0,1,1.65-.5,2.83,2.83,0,0,1,1.29.28,2.41,2.41,0,0,1,.92.8,4.18,4.18,0,0,1,.57,1.28,8,8,0,0,1,.21,2,7.46,7.46,0,0,1-.33,2.44,3,3,0,0,1-1,1.44,2.64,2.64,0,0,1-1.66.51A2.57,2.57,0,0,1,75.41,72,5.41,5.41,0,0,1,74.51,68.5Zm1.15,0a5.11,5.11,0,0,0,.53,2.82,1.55,1.55,0,0,0,2.6,0,5.11,5.11,0,0,0,.53-2.81,5.11,5.11,0,0,0-.53-2.82,1.58,1.58,0,0,0-1.31-.7,1.46,1.46,0,0,0-1.23.62A5.18,5.18,0,0,0,75.66,68.5Z" transform="translate(0 -1.67)"/><path d="M94.89,67.69h-6v-1h6Zm0,2.61h-6v-1h6Z" transform="translate(0 -1.67)"/><path d="M103.22,70.47l1.12-.14a2.28,2.28,0,0,0,.66,1.29,1.68,1.68,0,0,0,1.13.4,1.87,1.87,0,0,0,1.33-.52,1.69,1.69,0,0,0,.54-1.28,1.57,1.57,0,0,0-.5-1.2,1.8,1.8,0,0,0-1.28-.47,3.4,3.4,0,0,0-.79.12l.12-.93h.18a2.41,2.41,0,0,0,1.29-.35,1.18,1.18,0,0,0,.57-1.08,1.24,1.24,0,0,0-.42-1A1.53,1.53,0,0,0,106.1,65a1.58,1.58,0,0,0-1.09.39,1.89,1.89,0,0,0-.56,1.16l-1.12-.19a2.67,2.67,0,0,1,.93-1.64,2.81,2.81,0,0,1,1.81-.58,3.14,3.14,0,0,1,1.38.3,2.27,2.27,0,0,1,1,.82,2,2,0,0,1,.33,1.11,1.74,1.74,0,0,1-.32,1,2.14,2.14,0,0,1-.94.73,2,2,0,0,1,1.71,2.12,2.47,2.47,0,0,1-.87,1.91,3.17,3.17,0,0,1-2.2.78,3,3,0,0,1-2-.67A2.55,2.55,0,0,1,103.22,70.47Z" transform="translate(0 -1.67)"/><path d="M110.31,68.5a7.43,7.43,0,0,1,.33-2.45,3,3,0,0,1,1-1.43,2.64,2.64,0,0,1,1.65-.5,2.83,2.83,0,0,1,1.29.28,2.41,2.41,0,0,1,.92.8,4.18,4.18,0,0,1,.57,1.28,8,8,0,0,1,.21,2,7.46,7.46,0,0,1-.33,2.44,3,3,0,0,1-1,1.44,2.64,2.64,0,0,1-1.66.51,2.57,2.57,0,0,1-2.07-.89A5.41,5.41,0,0,1,110.31,68.5Zm1.15,0a5.11,5.11,0,0,0,.53,2.82,1.55,1.55,0,0,0,2.6,0,5.11,5.11,0,0,0,.53-2.81,5.11,5.11,0,0,0-.53-2.82,1.58,1.58,0,0,0-1.31-.7,1.46,1.46,0,0,0-1.23.62A5.18,5.18,0,0,0,111.46,68.5Z" transform="translate(0 -1.67)"/><path d="M117.4,68.5a7.43,7.43,0,0,1,.33-2.45,3,3,0,0,1,1-1.43,2.64,2.64,0,0,1,1.65-.5,2.83,2.83,0,0,1,1.29.28,2.41,2.41,0,0,1,.92.8,4.18,4.18,0,0,1,.57,1.28,8,8,0,0,1,.21,2,7.46,7.46,0,0,1-.33,2.44,3,3,0,0,1-1,1.44,2.64,2.64,0,0,1-1.66.51A2.57,2.57,0,0,1,118.3,72,5.41,5.41,0,0,1,117.4,68.5Zm1.15,0a5.11,5.11,0,0,0,.53,2.82,1.55,1.55,0,0,0,2.6,0,5.11,5.11,0,0,0,.53-2.81,5.11,5.11,0,0,0-.53-2.82,1.58,1.58,0,0,0-1.31-.7,1.46,1.46,0,0,0-1.23.62A5.18,5.18,0,0,0,118.55,68.5Z" transform="translate(0 -1.67)"/><path d="M125.09,72.74v-1.2h1.28v1.2a2,2,0,0,1-.25,1.07,1.6,1.6,0,0,1-.79.63L125,74a1,1,0,0,0,.52-.43,1.75,1.75,0,0,0,.19-.82Z" transform="translate(0 -1.67)"/><path d="M128,68.5a7.43,7.43,0,0,1,.33-2.45,3,3,0,0,1,1-1.43,2.64,2.64,0,0,1,1.65-.5,2.83,2.83,0,0,1,1.29.28,2.41,2.41,0,0,1,.92.8,4.18,4.18,0,0,1,.57,1.28,8,8,0,0,1,.21,2,7.46,7.46,0,0,1-.33,2.44,3,3,0,0,1-1,1.44,2.64,2.64,0,0,1-1.66.51,2.57,2.57,0,0,1-2.07-.89A5.41,5.41,0,0,1,128,68.5Zm1.15,0a5.11,5.11,0,0,0,.53,2.82,1.55,1.55,0,0,0,2.6,0,5.11,5.11,0,0,0,.53-2.81,5.11,5.11,0,0,0-.53-2.82A1.58,1.58,0,0,0,131,65a1.46,1.46,0,0,0-1.23.62A5.18,5.18,0,0,0,129.18,68.5Z" transform="translate(0 -1.67)"/><path d="M135.12,68.5a7.43,7.43,0,0,1,.33-2.45,3,3,0,0,1,1-1.43,2.64,2.64,0,0,1,1.65-.5,2.83,2.83,0,0,1,1.29.28,2.41,2.41,0,0,1,.92.8,4.18,4.18,0,0,1,.57,1.28,8,8,0,0,1,.21,2,7.46,7.46,0,0,1-.33,2.44,3,3,0,0,1-1,1.44,2.64,2.64,0,0,1-1.66.51A2.57,2.57,0,0,1,136,72,5.41,5.41,0,0,1,135.12,68.5Zm1.15,0a5.11,5.11,0,0,0,.53,2.82,1.55,1.55,0,0,0,2.6,0,5.11,5.11,0,0,0,.53-2.81,5.11,5.11,0,0,0-.53-2.82,1.58,1.58,0,0,0-1.31-.7,1.46,1.46,0,0,0-1.23.62A5.18,5.18,0,0,0,136.27,68.5Z" transform="translate(0 -1.67)"/><path d="M142.21,68.5a7.43,7.43,0,0,1,.33-2.45,3,3,0,0,1,1-1.43,2.64,2.64,0,0,1,1.65-.5,2.83,2.83,0,0,1,1.29.28,2.41,2.41,0,0,1,.92.8,4.18,4.18,0,0,1,.57,1.28,8,8,0,0,1,.21,2,7.46,7.46,0,0,1-.33,2.44,3,3,0,0,1-1,1.44,2.64,2.64,0,0,1-1.66.51,2.57,2.57,0,0,1-2.07-.89A5.41,5.41,0,0,1,142.21,68.5Zm1.15,0a5.11,5.11,0,0,0,.53,2.82,1.55,1.55,0,0,0,2.6,0A5.11,5.11,0,0,0,147,68.5a5.11,5.11,0,0,0-.53-2.82,1.58,1.58,0,0,0-1.31-.7,1.46,1.46,0,0,0-1.23.62A5.18,5.18,0,0,0,143.36,68.5Z" transform="translate(0 -1.67)"/><path d="M153.25,72.74V64.15h3.42a4.48,4.48,0,0,1,1.68.26,2.13,2.13,0,0,1,1,.8,2,2,0,0,1,.36,1.13,1.87,1.87,0,0,1-.32,1,2.23,2.23,0,0,1-1,.79,2.4,2.4,0,0,1,1.27.78,2,2,0,0,1,.44,1.3,2.39,2.39,0,0,1-.27,1.12,2.2,2.2,0,0,1-.67.8,2.88,2.88,0,0,1-1,.42,6.45,6.45,0,0,1-1.47.14Zm1.21-5h2a4.67,4.67,0,0,0,1.15-.1,1.29,1.29,0,0,0,.69-.43,1.18,1.18,0,0,0,.23-.75,1.32,1.32,0,0,0-.22-.75,1.1,1.1,0,0,0-.62-.45,5.51,5.51,0,0,0-1.39-.12h-1.82Zm0,4h2.27a5.55,5.55,0,0,0,.82,0,2,2,0,0,0,.7-.23,1.28,1.28,0,0,0,.46-.48,1.43,1.43,0,0,0,.18-.72,1.34,1.34,0,0,0-1-1.33,4.76,4.76,0,0,0-1.34-.14h-2.11Z" transform="translate(0 -1.67)"/><path d="M164.11,71.8l.16.93a4.41,4.41,0,0,1-.85.09,2,2,0,0,1-.95-.18,1,1,0,0,1-.47-.48,3.57,3.57,0,0,1-.14-1.25V67.34H161v-.82h.82V65l1.11-.63v2.17h1.13v.82H163V71a1.73,1.73,0,0,0,.06.58.45.45,0,0,0,.19.21.79.79,0,0,0,.38.08A3.87,3.87,0,0,0,164.11,71.8Z" transform="translate(0 -1.67)"/><path d="M169.53,72.74v-.91a2.46,2.46,0,0,1-2.1,1.05,2.81,2.81,0,0,1-1.09-.21,1.79,1.79,0,0,1-.75-.53,1.93,1.93,0,0,1-.35-.78,5.07,5.07,0,0,1-.07-1V66.52h1.12V70a5.82,5.82,0,0,0,.07,1.11,1.1,1.1,0,0,0,.45.65,1.45,1.45,0,0,0,.85.24,1.93,1.93,0,0,0,.95-.24,1.38,1.38,0,0,0,.63-.66,3.15,3.15,0,0,0,.18-1.22V66.52h1.12v6.22Z" transform="translate(0 -1.67)"/><path d="M171.45,72.89,174.1,64h.9l-2.64,8.88Z" transform="translate(0 -1.67)"/><path d="M175.83,72.74V64.15H177v3.08a2.57,2.57,0,0,1,2-.86,2.81,2.81,0,0,1,1.28.27,1.65,1.65,0,0,1,.78.75,3.29,3.29,0,0,1,.23,1.39v3.94H180.1V68.8a1.57,1.57,0,0,0-.36-1.15,1.4,1.4,0,0,0-1-.36,1.9,1.9,0,0,0-.94.24,1.41,1.41,0,0,0-.63.66,2.87,2.87,0,0,0-.19,1.15v3.4Z" transform="translate(0 -1.67)"/><path d="M182.91,72.74V66.52h1v.94a2.61,2.61,0,0,1,.71-.87,1.3,1.3,0,0,1,.72-.21,2.28,2.28,0,0,1,1.15.34l-.39,1a1.68,1.68,0,0,0-.82-.23,1.11,1.11,0,0,0-.66.21,1.13,1.13,0,0,0-.42.58,3.88,3.88,0,0,0-.19,1.23v3.26Z" transform="translate(0 -1.67)"/><path d="M192.85,75.27a10.41,10.41,0,0,1-1.57-2.58,7.65,7.65,0,0,1-.16-5.73,11.05,11.05,0,0,1,1.73-3h.8a19.72,19.72,0,0,0-1,1.74,9.09,9.09,0,0,0-.6,1.69,9.24,9.24,0,0,0-.27,2.2,10.14,10.14,0,0,0,1.86,5.63Z" transform="translate(0 -1.67)"/><path d="M196.37,68.08a2.11,2.11,0,0,1-1-.69,1.72,1.72,0,0,1-.34-1.07,2,2,0,0,1,.72-1.58,3.16,3.16,0,0,1,3.83,0,2.06,2.06,0,0,1,.73,1.59,1.68,1.68,0,0,1-.33,1,2.1,2.1,0,0,1-1,.68,2.46,2.46,0,0,1,1.28.83,2.19,2.19,0,0,1,.44,1.37,2.4,2.4,0,0,1-.83,1.85,3.53,3.53,0,0,1-4.36,0,2.43,2.43,0,0,1-.83-1.88,2.18,2.18,0,0,1,.45-1.4A2.28,2.28,0,0,1,196.37,68.08Zm-.58,2.18a1.82,1.82,0,0,0,.23.87,1.56,1.56,0,0,0,.68.65,2.07,2.07,0,0,0,1,.23,1.87,1.87,0,0,0,1.33-.49,1.61,1.61,0,0,0,.52-1.24A1.64,1.64,0,0,0,199,69a1.91,1.91,0,0,0-1.35-.5,1.83,1.83,0,0,0-1.31.49A1.63,1.63,0,0,0,195.79,70.26Zm.36-4a1.3,1.3,0,0,0,.42,1,1.53,1.53,0,0,0,1.08.39,1.5,1.5,0,0,0,1.06-.38,1.23,1.23,0,0,0,.41-.94,1.28,1.28,0,0,0-.43-1,1.5,1.5,0,0,0-1.06-.4,1.52,1.52,0,0,0-1.06.39A1.21,1.21,0,0,0,196.15,66.3Z" transform="translate(0 -1.67)"/><path d="M201.81,65.28v-1h5.91v.82A11.75,11.75,0,0,0,206,67.4a13.67,13.67,0,0,0-1.32,3,10.49,10.49,0,0,0-.43,2.36h-1.15a10,10,0,0,1,.42-2.45,12.43,12.43,0,0,1,1.16-2.77,11.85,11.85,0,0,1,1.61-2.25Z" transform="translate(0 -1.67)"/><path d="M209.46,72.74v-1.2h1.28v1.2Z" transform="translate(0 -1.67)"/><path d="M212.54,70.75l1.08-.09a1.72,1.72,0,0,0,.52,1,1.49,1.49,0,0,0,1,.32,1.79,1.79,0,0,0,.91-.22,1.88,1.88,0,0,0,.64-.59,3.39,3.39,0,0,0,.42-1,5,5,0,0,0,.17-1.29s0-.12,0-.21a2.51,2.51,0,0,1-.92.82,2.74,2.74,0,0,1-3.18-.46,2.74,2.74,0,0,1-.78-2,2.77,2.77,0,0,1,2.87-2.9,3.06,3.06,0,0,1,1.63.45A2.86,2.86,0,0,1,218,65.85a6,6,0,0,1,.38,2.42,7.4,7.4,0,0,1-.38,2.62,3.09,3.09,0,0,1-1.13,1.49,3.05,3.05,0,0,1-1.76.51,2.66,2.66,0,0,1-1.75-.56A2.36,2.36,0,0,1,212.54,70.75ZM217.13,67a2,2,0,0,0-.51-1.44,1.66,1.66,0,0,0-1.24-.53,1.75,1.75,0,0,0-1.3.57,2.05,2.05,0,0,0-.55,1.49,1.78,1.78,0,0,0,1.82,1.85,1.71,1.71,0,0,0,1.28-.51A2,2,0,0,0,217.13,67Z" transform="translate(0 -1.67)"/><path d="M223.32,72.74V64.15h1.12V69l2.65-2.53h1.45L226,68.83l2.78,3.91h-1.38l-2.19-3.18-.79.71v2.47Z" transform="translate(0 -1.67)"/><path d="M231.43,72.74,229,64.15h1.24l1.39,5.63q.22.88.39,1.76.35-1.38.41-1.59l1.74-5.8h1.46l1.31,4.35a21.87,21.87,0,0,1,.71,3q.17-.81.45-1.87l1.43-5.52h1.21l-2.5,8.59h-1.16l-1.92-6.54q-.24-.82-.29-1-.14.59-.27,1l-1.94,6.54Z" transform="translate(0 -1.67)"/><path d="M242.46,75.27h-.8a10.14,10.14,0,0,0,1.86-5.63,9.1,9.1,0,0,0-.27-2.19,8.83,8.83,0,0,0-.59-1.69,19.5,19.5,0,0,0-1-1.76h.8a11.05,11.05,0,0,1,1.73,3,7.63,7.63,0,0,1-.17,5.73A10.61,10.61,0,0,1,242.46,75.27Z" transform="translate(0 -1.67)"/><path d="M1,64.54l1.05-.14a2.32,2.32,0,0,0,.62,1.29,1.53,1.53,0,0,0,1.06.4A1.7,1.7,0,0,0,5,65.57a1.74,1.74,0,0,0,.51-1.28,1.62,1.62,0,0,0-.47-1.2,1.64,1.64,0,0,0-1.21-.47,3,3,0,0,0-.74.12l.12-.93h.17a2.17,2.17,0,0,0,1.21-.35,1.2,1.2,0,0,0,.54-1.08,1.28,1.28,0,0,0-.39-1,1.39,1.39,0,0,0-1-.38,1.44,1.44,0,0,0-1,.39A1.94,1.94,0,0,0,2.2,60.6l-1.05-.19A2.71,2.71,0,0,1,2,58.77a2.54,2.54,0,0,1,1.71-.58,2.81,2.81,0,0,1,1.29.3,2.18,2.18,0,0,1,.91.82,2.11,2.11,0,0,1,.31,1.11,1.81,1.81,0,0,1-.3,1,2,2,0,0,1-.88.73,2,2,0,0,1,1.18.73,2.22,2.22,0,0,1,.42,1.39,2.54,2.54,0,0,1-.82,1.91A2.89,2.89,0,0,1,3.77,67a2.7,2.7,0,0,1-1.88-.67A2.61,2.61,0,0,1,1,64.54Z" transform="translate(0 -1.67)"/><path d="M13.18,60.32l-1,.08a2,2,0,0,0-.4-.9,1.4,1.4,0,0,0-1.05-.45,1.45,1.45,0,0,0-.88.28A2.4,2.4,0,0,0,9,60.39a5.54,5.54,0,0,0-.3,2,2.44,2.44,0,0,1,.93-.86,2.51,2.51,0,0,1,1.15-.28,2.39,2.39,0,0,1,1.8.78,2.79,2.79,0,0,1,.74,2,3.3,3.3,0,0,1-.35,1.5,2.54,2.54,0,0,1-1,1.06,2.62,2.62,0,0,1-1.38.37,2.7,2.7,0,0,1-2.15-1,4.9,4.9,0,0,1-.83-3.2,5.73,5.73,0,0,1,.92-3.62,2.64,2.64,0,0,1,2.16-1,2.3,2.3,0,0,1,2.44,2.14ZM8.87,64a2.45,2.45,0,0,0,.23,1,1.72,1.72,0,0,0,.65.76,1.62,1.62,0,0,0,.87.26,1.49,1.49,0,0,0,1.15-.54,2.12,2.12,0,0,0,.48-1.46,2,2,0,0,0-.47-1.4,1.56,1.56,0,0,0-1.2-.51,1.63,1.63,0,0,0-1.21.51A1.85,1.85,0,0,0,8.87,64Z" transform="translate(0 -1.67)"/><path d="M14.38,62.57a7.86,7.86,0,0,1,.31-2.45,3.05,3.05,0,0,1,.93-1.43,2.38,2.38,0,0,1,1.56-.5,2.54,2.54,0,0,1,1.21.28,2.32,2.32,0,0,1,.86.8,4.31,4.31,0,0,1,.53,1.28,8.49,8.49,0,0,1,.19,2A7.88,7.88,0,0,1,19.67,65a3.05,3.05,0,0,1-.93,1.44,2.38,2.38,0,0,1-1.56.51,2.36,2.36,0,0,1-2-.89A5.66,5.66,0,0,1,14.38,62.57Zm1.08,0a5.39,5.39,0,0,0,.5,2.82,1.41,1.41,0,0,0,2.44,0,5.39,5.39,0,0,0,.5-2.81,5.38,5.38,0,0,0-.5-2.82,1.47,1.47,0,0,0-1.23-.7,1.35,1.35,0,0,0-1.16.62A5.45,5.45,0,0,0,15.46,62.57Z" transform="translate(0 -1.67)"/><path d="M21.05,62.57a7.86,7.86,0,0,1,.31-2.45,3.05,3.05,0,0,1,.93-1.43,2.38,2.38,0,0,1,1.56-.5,2.54,2.54,0,0,1,1.21.28,2.32,2.32,0,0,1,.86.8,4.31,4.31,0,0,1,.53,1.28,8.49,8.49,0,0,1,.19,2A7.88,7.88,0,0,1,26.35,65a3.05,3.05,0,0,1-.93,1.44,2.38,2.38,0,0,1-1.56.51,2.36,2.36,0,0,1-2-.89A5.66,5.66,0,0,1,21.05,62.57Zm1.08,0a5.39,5.39,0,0,0,.5,2.82,1.41,1.41,0,0,0,2.44,0,5.39,5.39,0,0,0,.5-2.81,5.38,5.38,0,0,0-.5-2.82,1.47,1.47,0,0,0-1.23-.7,1.35,1.35,0,0,0-1.16.62A5.45,5.45,0,0,0,22.14,62.57Z" transform="translate(0 -1.67)"/><path d="M6.68,82.56H5.62V75.84a5.45,5.45,0,0,1-1,.73,7.08,7.08,0,0,1-1.11.54v-1a6.37,6.37,0,0,0,1.55-1A4,4,0,0,0,6,73.93h.68Z" transform="translate(0 -1.67)"/><path d="M14.92,81.55v1H9.24a1.87,1.87,0,0,1,.12-.73,3.87,3.87,0,0,1,.69-1.14,10.88,10.88,0,0,1,1.38-1.3,11.7,11.7,0,0,0,1.89-1.82,2.18,2.18,0,0,0,.49-1.27,1.41,1.41,0,0,0-.45-1.06,1.62,1.62,0,0,0-1.17-.43,1.65,1.65,0,0,0-1.22.46,1.73,1.73,0,0,0-.46,1.27l-1.08-.11a2.67,2.67,0,0,1,.84-1.85,2.86,2.86,0,0,1,2-.64,2.72,2.72,0,0,1,2,.69,2.25,2.25,0,0,1,.72,1.7,2.58,2.58,0,0,1-.21,1,3.93,3.93,0,0,1-.7,1,17.06,17.06,0,0,1-1.63,1.51q-.95.8-1.22,1.08a3.47,3.47,0,0,0-.45.57Z" transform="translate(0 -1.67)"/><path d="M16.64,82.56v-1.2h1.2v1.2Z" transform="translate(0 -1.67)"/><path d="M24.86,76.07l-1,.08a2,2,0,0,0-.4-.9,1.4,1.4,0,0,0-1.05-.45,1.45,1.45,0,0,0-.88.28,2.4,2.4,0,0,0-.79,1.06,5.54,5.54,0,0,0-.3,2,2.44,2.44,0,0,1,.93-.86A2.51,2.51,0,0,1,22.47,77a2.39,2.39,0,0,1,1.8.78,2.79,2.79,0,0,1,.74,2,3.3,3.3,0,0,1-.35,1.5,2.54,2.54,0,0,1-1,1.06,2.62,2.62,0,0,1-1.38.37,2.7,2.7,0,0,1-2.15-1,4.9,4.9,0,0,1-.83-3.2,5.73,5.73,0,0,1,.92-3.62,2.64,2.64,0,0,1,2.16-1,2.3,2.3,0,0,1,2.44,2.14Zm-4.31,3.7a2.45,2.45,0,0,0,.23,1,1.72,1.72,0,0,0,.65.76,1.62,1.62,0,0,0,.87.26,1.49,1.49,0,0,0,1.15-.54,2.12,2.12,0,0,0,.48-1.46,2,2,0,0,0-.47-1.4,1.56,1.56,0,0,0-1.2-.51,1.63,1.63,0,0,0-1.21.51A1.85,1.85,0,0,0,20.55,79.78Z" transform="translate(0 -1.67)"/><line y1="67.87" x2="25.5" y2="67.87" style="fill:none;stroke:#000"/><path d="M1,44.43V35.84H7.18v1H2.11v2.63H6.86v1H2.11v2.92H7.38v1Z" transform="translate(0 -1.67)"/><path d="M8.11,44.43l2.27-3.23-2.1-3H9.6l1,1.46q.27.42.43.7l.47-.69,1-1.47h1.26l-2.15,2.93,2.31,3.29H12.64l-1.28-1.93L11,42,9.39,44.43Z" transform="translate(0 -1.67)"/><path d="M18.88,43.66a3.93,3.93,0,0,1-1.13.7,3.26,3.26,0,0,1-1.16.21,2.26,2.26,0,0,1-1.58-.5,1.65,1.65,0,0,1-.55-1.28,1.7,1.7,0,0,1,.21-.83,1.72,1.72,0,0,1,.54-.61A2.56,2.56,0,0,1,16,41a7.54,7.54,0,0,1,.94-.16,9.64,9.64,0,0,0,1.88-.36q0-.22,0-.28a1.16,1.16,0,0,0-.3-.91,1.77,1.77,0,0,0-1.2-.36,1.86,1.86,0,0,0-1.1.26,1.59,1.59,0,0,0-.52.92l-1-.14a2.56,2.56,0,0,1,.46-1.07,2,2,0,0,1,.93-.63,4.16,4.16,0,0,1,1.41-.22,3.74,3.74,0,0,1,1.29.19,1.71,1.71,0,0,1,.73.47,1.66,1.66,0,0,1,.33.72,5.94,5.94,0,0,1,.05,1v1.41a14.93,14.93,0,0,0,.07,1.86,2.35,2.35,0,0,0,.27.75h-1.1A2.24,2.24,0,0,1,18.88,43.66Zm-.09-2.36a7.74,7.74,0,0,1-1.72.4,4,4,0,0,0-.92.21.92.92,0,0,0-.42.34.93.93,0,0,0,.17,1.2,1.37,1.37,0,0,0,.93.28,2.18,2.18,0,0,0,1.08-.27,1.64,1.64,0,0,0,.7-.73,2.55,2.55,0,0,0,.17-1.05Z" transform="translate(0 -1.67)"/><path d="M21.49,44.43V38.2h.94v.87a2.22,2.22,0,0,1,.78-.74,2.19,2.19,0,0,1,1.11-.28,2,2,0,0,1,1.13.29,1.54,1.54,0,0,1,.62.8A2.23,2.23,0,0,1,28,38.06a1.89,1.89,0,0,1,1.42.51,2.19,2.19,0,0,1,.5,1.58v4.27h-1V40.51a2.89,2.89,0,0,0-.1-.91.88.88,0,0,0-.37-.45,1.16,1.16,0,0,0-.63-.17,1.47,1.47,0,0,0-1.09.44,1.92,1.92,0,0,0-.43,1.4v3.62H25.19v-4a1.78,1.78,0,0,0-.26-1.05,1,1,0,0,0-.84-.35,1.53,1.53,0,0,0-.82.23,1.33,1.33,0,0,0-.55.69,3.86,3.86,0,0,0-.17,1.3v3.23Z" transform="translate(0 -1.67)"/><path d="M31.49,46.81V38.2h1V39a2.37,2.37,0,0,1,.77-.71,2.11,2.11,0,0,1,1-.24,2.46,2.46,0,0,1,1.41.41,2.52,2.52,0,0,1,.92,1.16,4.23,4.23,0,0,1,.31,1.64A4.16,4.16,0,0,1,36.54,43a2.58,2.58,0,0,1-1,1.17,2.56,2.56,0,0,1-1.37.41,2,2,0,0,1-.95-.22,2.15,2.15,0,0,1-.69-.56v3Zm1-5.46a2.71,2.71,0,0,0,.49,1.78,1.49,1.49,0,0,0,1.18.57,1.52,1.52,0,0,0,1.2-.59,2.82,2.82,0,0,0,.5-1.84,2.75,2.75,0,0,0-.49-1.78,1.47,1.47,0,0,0-1.17-.59,1.52,1.52,0,0,0-1.19.63A2.82,2.82,0,0,0,32.44,41.35Z" transform="translate(0 -1.67)"/><path d="M38.14,44.43V35.84h1.05v8.59Z" transform="translate(0 -1.67)"/><path d="M45.08,42.42l1.09.13a2.66,2.66,0,0,1-1,1.48,3.24,3.24,0,0,1-3.95-.31,3.29,3.29,0,0,1-.8-2.36,3.44,3.44,0,0,1,.81-2.44,2.74,2.74,0,0,1,2.1-.87,2.66,2.66,0,0,1,2,.85,3.38,3.38,0,0,1,.79,2.39q0,.09,0,.28H41.56a2.39,2.39,0,0,0,.58,1.57,1.73,1.73,0,0,0,1.3.54,1.61,1.61,0,0,0,1-.3A2,2,0,0,0,45.08,42.42Zm-3.46-1.71H45.1a2.11,2.11,0,0,0-.4-1.18,1.62,1.62,0,0,0-1.31-.61,1.68,1.68,0,0,0-1.22.49A1.92,1.92,0,0,0,41.62,40.72Z" transform="translate(0 -1.67)"/><path d="M47.79,39.41V38.2H49v1.2Zm0,5v-1.2H49v1.2Z" transform="translate(0 -1.67)"/></svg>