<svg id="text" xmlns="http://www.w3.org/2000/svg" width="2.96in" height="1.81in" viewBox="0 0 213.2 129.97">
  <defs>
    <style>
      .cls-1, .cls-2 {
        fill: none;
        stroke: #000;
      }

      .cls-1 {
        stroke-linecap: round;
        stroke-linejoin: round;
        stroke-width: 0.75px;
      }

      .cls-2 {
        stroke-width: 1.5px;
      }
    </style>
  </defs>
  <title>gas_vlve_vntri_assmbly_tst_prt_dtl_vi</title>
  <g>
    <g>
      <g id="SPLINE">
        <line class="cls-1" x1="98.22" y1="53.12" x2="97.99" y2="97.96"/>
      </g>
      <g id="SPLINE-2" data-name="SPLINE">
        <line class="cls-1" x1="199.67" y1="96.36" x2="199.89" y2="51.52"/>
      </g>
      <g id="SPLINE-3" data-name="SPLINE">
        <line class="cls-1" x1="65.93" y1="109.47" x2="65.87" y2="121.96"/>
      </g>
      <g id="SPLINE-4" data-name="SPLINE">
        <line class="cls-1" x1="82.51" y1="122.04" x2="82.57" y2="109.55"/>
      </g>
      <g id="SPLINE-5" data-name="SPLINE">
        <line class="cls-1" x1="90.71" y1="109.51" x2="90.64" y2="122"/>
      </g>
      <g id="SPLINE-6" data-name="SPLINE">
        <line class="cls-1" x1="107.28" y1="122.08" x2="107.35" y2="109.59"/>
      </g>
      <g id="SPLINE-7" data-name="SPLINE">
        <line class="cls-1" x1="84.8" y1="64.58" x2="82.15" y2="57.16"/>
      </g>
      <g id="SPLINE-8" data-name="SPLINE">
        <line class="cls-1" x1="74.63" y1="61.77" x2="74.65" y2="59.13"/>
      </g>
      <g id="SPLINE-9" data-name="SPLINE">
        <line class="cls-1" x1="85.64" y1="77.6" x2="85.68" y2="69.71"/>
      </g>
      <g id="SPLINE-10" data-name="SPLINE">
        <line class="cls-1" x1="68.64" y1="59.1" x2="68.64" y2="57.79"/>
      </g>
      <g id="SPLINE-11" data-name="SPLINE">
        <line class="cls-1" x1="18.45" y1="88.17" x2="18.53" y2="88.17"/>
      </g>
      <g id="SPLINE-12" data-name="SPLINE">
        <line class="cls-1" x1="20.82" y1="66" x2="18.49" y2="66"/>
      </g>
      <g id="LINE">
        <line class="cls-1" x1="16.25" y1="129.41" x2="124.96" y2="129.6"/>
      </g>
      <g id="LWPOLYLINE">
        <polyline class="cls-1" points="195.29 62.75 197.19 60.26 198.59 57.63 199.5 54.88 199.88 52.08 199.74 49.26 199.07 46.48 197.88 43.78 196.21 41.22 194.07 38.83 191.5 36.66 188.54 34.74 185.26 33.11 181.71 31.79 177.94 30.82 174.01 30.2 170.02 29.94 166.01 30.06 162.06 30.55"/>
      </g>
      <g id="LINE-2" data-name="LINE">
        <line class="cls-1" x1="195.29" y1="62.75" x2="195.33" y2="80.61"/>
      </g>
      <g id="LINE-3" data-name="LINE">
        <line class="cls-1" x1="195.33" y1="80.61" x2="119.53" y2="80.49"/>
      </g>
      <g id="LINE-4" data-name="LINE">
        <line class="cls-1" x1="119.53" y1="80.49" x2="119.52" y2="72.66"/>
      </g>
      <g id="LWPOLYLINE-2" data-name="LWPOLYLINE">
        <polyline class="cls-1" points="114.37 38.72 111.2 39.45 108.23 40.53 105.54 41.92 103.19 43.59 101.25 45.49 99.76 47.59 98.76 49.84 98.27 52.16 98.31 54.51 98.87 56.83 99.94 59.05 101.5 61.14 103.5 63.03 105.89 64.67"/>
      </g>
      <g id="LINE-5" data-name="LINE">
        <path class="cls-1" d="M128,37.64l34.57-5.92" transform="translate(-0.54 -1.17)"/>
      </g>
      <g id="LINE-6" data-name="LINE">
        <line class="cls-1" x1="195.33" y1="80.61" x2="195.1" y2="125.45"/>
      </g>
      <g id="LINE-7" data-name="LINE">
        <line class="cls-1" x1="124.85" y1="125.33" x2="195.1" y2="125.45"/>
      </g>
      <g id="LINE-8" data-name="LINE">
        <line class="cls-1" x1="124.85" y1="125.33" x2="119.3" y2="125.32"/>
      </g>
      <g id="LINE-9" data-name="LINE">
        <line class="cls-1" x1="119.3" y1="125.32" x2="119.53" y2="80.49"/>
      </g>
      <g id="LINE-10" data-name="LINE">
        <line class="cls-1" x1="119.3" y1="125.32" x2="119.29" y2="117.5"/>
      </g>
      <g id="LINE-11" data-name="LINE">
        <line class="cls-1" x1="119.29" y1="117.5" x2="119.52" y2="72.66"/>
      </g>
      <g id="LINE-12" data-name="LINE">
        <line class="cls-1" x1="119.29" y1="117.5" x2="107.34" y2="110.49"/>
      </g>
      <g id="ARC">
        <path class="cls-1" d="M98.54,99.13a11.14,11.14,0,0,0,1.62,5.77" transform="translate(-0.54 -1.17)"/>
      </g>
      <g id="ARC-2" data-name="ARC">
        <path class="cls-1" d="M195.61,108.75a17,17,0,0,0,4.6-11.22" transform="translate(-0.54 -1.17)"/>
      </g>
      <g id="LWPOLYLINE-3" data-name="LWPOLYLINE">
        <polyline class="cls-1" points="74.2 127.84 72.13 127.65 70.19 127.11 68.5 126.25 67.17 125.12 66.28 123.79 65.88 122.35 65.87 121.96"/>
      </g>
      <g id="LWPOLYLINE-4" data-name="LWPOLYLINE">
        <polyline class="cls-1" points="82.51 122.04 82.49 122.38 82.11 123.82 81.22 125.14 79.89 126.27 78.21 127.13 76.27 127.66 74.2 127.84"/>
      </g>
      <g id="LWPOLYLINE-5" data-name="LWPOLYLINE">
        <polyline class="cls-1" points="74.27 115.35 76.33 115.17 78.27 114.63 79.96 113.78 81.28 112.65 82.17 111.33 82.56 109.89 82.42 108.43 81.78 107.04 80.66 105.8 79.13 104.79 77.31 104.08 75.29 103.72 73.2 103.72 71.18 104.07 69.35 104.78 67.83 105.78 66.72 107.01 66.08 108.4 65.95 109.86 66.34 111.3 67.23 112.63 68.57 113.76 70.25 114.62 72.19 115.16 74.27 115.35"/>
      </g>
      <g id="LWPOLYLINE-6" data-name="LWPOLYLINE">
        <polyline class="cls-1" points="98.97 127.88 96.9 127.69 94.96 127.15 93.27 126.29 91.94 125.16 91.05 123.83 90.66 122.4 90.64 122"/>
      </g>
      <g id="LWPOLYLINE-7" data-name="LWPOLYLINE">
        <polyline class="cls-1" points="107.28 122.08 107.26 122.42 106.88 123.86 105.99 125.18 104.67 126.31 102.98 127.17 101.04 127.7 98.97 127.88"/>
      </g>
      <g id="LWPOLYLINE-8" data-name="LWPOLYLINE">
        <polyline class="cls-1" points="99.04 115.39 101.11 115.21 103.04 114.68 104.73 113.82 106.05 112.69 106.94 111.37 107.33 109.93 107.2 108.47 106.55 107.08 105.43 105.84 103.91 104.84 102.08 104.13 100.06 103.76 97.97 103.76 95.95 104.12 94.13 104.82 92.61 105.82 91.49 107.05 90.85 108.44 90.72 109.9 91.12 111.34 92.01 112.67 93.34 113.8 95.03 114.66 96.97 115.2 99.04 115.39"/>
      </g>
      <g id="LWPOLYLINE-9" data-name="LWPOLYLINE">
        <path class="cls-1" d="M69.81,89.33c9.66-3.42,19.25-12.46,15.53-23.58" transform="translate(-0.54 -1.17)"/>
        <path class="cls-1" d="M27.79,75.22c3.89,11.37,16.73,15.58,27.66,16.13" transform="translate(-0.54 -1.17)"/>
      </g>
      <g id="SPLINE-13" data-name="SPLINE">
        <line class="cls-1" x1="27.25" y1="74.06" x2="30.14" y2="66.17"/>
      </g>
      <g id="LWPOLYLINE-10" data-name="LWPOLYLINE">
        <path class="cls-1" d="M59.29,81.54c11.76-.57,29.17-10,23-24.23C76.77,44.64,58.35,42,46.55,45.38a32.24,32.24,0,0,0-9.17,4.34" transform="translate(-0.54 -1.17)"/>
        <path class="cls-1" d="M30.68,67.34C33.9,75.81,43,79.91,51.41,81.25" transform="translate(-0.54 -1.17)"/>
      </g>
      <g id="LWPOLYLINE-11" data-name="LWPOLYLINE">
        <path class="cls-1" d="M45.44,73.06a14.89,14.89,0,0,1-6.06-5.71" transform="translate(-0.54 -1.17)"/>
        <path class="cls-1" d="M75.18,62.93C74.85,72.56,63,76.28,55,75.74" transform="translate(-0.54 -1.17)"/>
      </g>
      <g id="LINE-13" data-name="LINE">
        <line class="cls-1" x1="30.14" y1="66.17" x2="38.83" y2="66.19"/>
      </g>
      <g id="LINE-14" data-name="LINE">
        <path class="cls-1" d="M25.26,53.66h7.07" transform="translate(-0.54 -1.17)"/>
      </g>
      <g id="LWPOLYLINE-12" data-name="LWPOLYLINE">
        <path class="cls-1" d="M53.44,72.94c10.06,1.48,29.1-7,19.14-19.28-7.27-8.94-24.57-8.52-31.9,0" transform="translate(-0.54 -1.17)"/>
      </g>
      <g id="LINE-15" data-name="LINE">
        <line class="cls-1" x1="24.74" y1="63.53" x2="38.85" y2="63.56"/>
      </g>
      <g id="LINE-16" data-name="LINE">
        <line class="cls-1" x1="24.74" y1="63.53" x2="24.72" y2="52.49"/>
      </g>
      <g id="LWPOLYLINE-13" data-name="LWPOLYLINE">
        <path class="cls-1" d="M69.18,60.27c-.35,8.9-13.49,10.18-19.58,7.08" transform="translate(-0.54 -1.17)"/>
      </g>
      <g id="LINE-17" data-name="LINE">
        <line class="cls-1" x1="38.83" y1="66.19" x2="38.85" y2="63.56"/>
      </g>
      <g id="LINE-18" data-name="LINE">
        <line class="cls-1" x1="20.91" y1="104.89" x2="20.97" y2="94.37"/>
      </g>
      <g id="LINE-19" data-name="LINE">
        <line class="cls-1" x1="20.85" y1="68.83" x2="20.91" y2="104.89"/>
      </g>
      <g id="LINE-20" data-name="LINE">
        <line class="cls-1" x1="20.84" y1="61.95" x2="20.8" y2="68.83"/>
      </g>
      <g id="LINE-21" data-name="LINE">
        <line class="cls-1" x1="20.84" y1="61.95" x2="20.84" y2="63.25"/>
      </g>
      <g id="LINE-22" data-name="LINE">
        <line class="cls-1" x1="20.89" y1="52.73" x2="20.84" y2="63.25"/>
      </g>
      <g id="LINE-23" data-name="LINE">
        <line class="cls-1" x1="20.97" y1="94.37" x2="20.89" y2="52.73"/>
      </g>
      <g id="LINE-24" data-name="LINE">
        <line class="cls-1" x1="20.84" y1="61.95" x2="20.85" y2="61.95"/>
      </g>
      <g id="LINE-25" data-name="LINE">
        <line class="cls-1" x1="91.16" y1="62.07" x2="98.18" y2="62.09"/>
      </g>
      <g id="LINE-26" data-name="LINE">
        <line class="cls-1" x1="212.74" y1="68.9" x2="199.81" y2="68.88"/>
      </g>
      <g id="LINE-27" data-name="LINE">
        <line class="cls-1" x1="212.74" y1="68.9" x2="212.83" y2="118.99"/>
      </g>
      <g id="LINE-28" data-name="LINE">
        <line class="cls-1" x1="212.83" y1="118.99" x2="195.13" y2="118.96"/>
      </g>
      <g id="LINE-29" data-name="LINE">
        <line class="cls-1" x1="124.85" y1="125.33" x2="124.85" y2="127.93"/>
      </g>
      <g id="LINE-30" data-name="LINE">
        <line class="cls-1" x1="124.85" y1="127.93" x2="98.97" y2="127.88"/>
      </g>
      <g id="LINE-31" data-name="LINE">
        <line class="cls-1" x1="98.97" y1="127.88" x2="74.2" y2="127.84"/>
      </g>
      <g id="LINE-32" data-name="LINE">
        <line class="cls-1" x1="74.2" y1="127.84" x2="52.38" y2="127.8"/>
      </g>
      <g id="LINE-33" data-name="LINE">
        <line class="cls-1" x1="52.36" y1="115.48" x2="52.38" y2="127.8"/>
      </g>
      <g id="LINE-34" data-name="LINE">
        <line class="cls-1" x1="51.07" y1="115.47" x2="52.36" y2="115.48"/>
      </g>
      <g id="ARC-3" data-name="ARC">
        <path class="cls-1" d="M49.76,115.34a1.66,1.66,0,0,0,1.85,1.3" transform="translate(-0.54 -1.17)"/>
      </g>
      <g id="LINE-35" data-name="LINE">
        <line class="cls-1" x1="49.21" y1="112.62" x2="49.22" y2="114.17"/>
      </g>
      <g id="LINE-36" data-name="LINE">
        <line class="cls-1" x1="90.69" y1="112.69" x2="82.56" y2="112.67"/>
      </g>
      <g id="LINE-37" data-name="LINE">
        <line class="cls-1" x1="65.92" y1="112.64" x2="49.21" y2="112.62"/>
      </g>
      <g id="LINE-38" data-name="LINE">
        <line class="cls-1" x1="124.85" y1="127.93" x2="124.85" y2="129.6"/>
      </g>
      <g id="LINE-39" data-name="LINE">
        <line class="cls-1" x1="52.38" y1="127.8" x2="52.37" y2="129.47"/>
      </g>
      <g id="LINE-40" data-name="LINE">
        <line class="cls-1" x1="52.29" y1="129.47" x2="52.36" y2="115.48"/>
      </g>
      <g id="LWPOLYLINE-14" data-name="LWPOLYLINE">
        <path class="cls-1" d="M58.35,99.32c-11.55.57-26.48-4.22-30.6-16.21" transform="translate(-0.54 -1.17)"/>
        <path class="cls-1" d="M86.19,78.77c-.35,8-6.2,13.71-13.06,17.09" transform="translate(-0.54 -1.17)"/>
      </g>
      <g id="LINE-41" data-name="LINE">
        <line class="cls-1" x1="27.21" y1="81.95" x2="27.25" y2="74.06"/>
      </g>
      <g id="LWPOLYLINE-15" data-name="LWPOLYLINE">
        <path class="cls-1" d="M48,65.09c6.43,4.43,26.26,1.89,20.31-9.38-4.37-8.27-23.51-7.59-24,3.16" transform="translate(-0.54 -1.17)"/>
      </g>
      <g id="LINE-42" data-name="LINE">
        <line class="cls-1" x1="91.23" y1="102.17" x2="91.14" y2="52.85"/>
      </g>
      <g id="LINE-43" data-name="LINE">
        <path class="cls-1" d="M84.15,103.32h7.62" transform="translate(-0.54 -1.17)"/>
        <path class="cls-1" d="M49.26,103.26l13.15,0" transform="translate(-0.54 -1.17)"/>
      </g>
      <g id="LINE-44" data-name="LINE">
        <line class="cls-1" x1="48.71" y1="102.09" x2="48.71" y2="100.88"/>
      </g>
      <g id="ARC-4" data-name="ARC">
        <path class="cls-1" d="M32.45,95.55A40.16,40.16,0,0,0,49.25,102" transform="translate(-0.54 -1.17)"/>
      </g>
      <g id="LINE-45" data-name="LINE">
        <line class="cls-1" x1="20.97" y1="94.37" x2="31.91" y2="94.39"/>
      </g>
      <g id="LINE-46" data-name="LINE">
        <line class="cls-1" x1="20.89" y1="52.73" x2="24.72" y2="52.73"/>
      </g>
      <g id="LINE-47" data-name="LINE">
        <line class="cls-1" x1="79.76" y1="52.83" x2="91.14" y2="52.85"/>
      </g>
      <g id="LINE-48" data-name="LINE">
        <line class="cls-1" x1="24.64" y1="81.94" x2="24.62" y2="70.91"/>
      </g>
      <g id="LINE-49" data-name="LINE">
        <line class="cls-1" x1="24.64" y1="81.94" x2="27.21" y2="81.95"/>
      </g>
      <g id="LINE-50" data-name="LINE">
        <line class="cls-1" x1="48.71" y1="102.09" x2="48.66" y2="112.61"/>
      </g>
      <g id="LINE-51" data-name="LINE">
        <line class="cls-1" x1="48.65" y1="111.4" x2="48.66" y2="112.61"/>
      </g>
      <g id="LINE-52" data-name="LINE">
        <line class="cls-1" x1="48.71" y1="100.88" x2="48.65" y2="111.4"/>
      </g>
      <g id="LINE-53" data-name="LINE">
        <line class="cls-1" x1="91.23" y1="102.17" x2="91.21" y2="107.54"/>
      </g>
      <g id="LINE-54" data-name="LINE">
        <line class="cls-1" x1="48.66" y1="112.61" x2="49.21" y2="112.62"/>
      </g>
      <g id="ARC-5" data-name="ARC">
        <path class="cls-1" d="M37.14,108.85a42.8,42.8,0,0,0,12.06,3.71" transform="translate(-0.54 -1.17)"/>
      </g>
      <g id="ARC-6" data-name="ARC">
        <path class="cls-1" d="M32.4,106.07a34.36,34.36,0,0,0,4.74,2.78" transform="translate(-0.54 -1.17)"/>
      </g>
      <g id="LINE-55" data-name="LINE">
        <line class="cls-1" x1="31.86" y1="104.9" x2="31.91" y2="94.39"/>
      </g>
      <g id="LINE-56" data-name="LINE">
        <line class="cls-1" x1="24.64" y1="81.94" x2="24.74" y2="63.53"/>
      </g>
      <g id="LINE-57" data-name="LINE">
        <line class="cls-1" x1="24.72" y1="52.49" x2="24.62" y2="70.91"/>
      </g>
      <g id="LINE-58" data-name="LINE">
        <line class="cls-1" x1="20.91" y1="104.89" x2="31.86" y2="104.9"/>
      </g>
      <g id="LINE-59" data-name="LINE">
        <line class="cls-1" x1="49.12" y1="129.47" x2="49.21" y2="112.62"/>
      </g>
      <g id="LINE-60" data-name="LINE">
        <line class="cls-1" x1="26.82" y1="110.89" x2="26.73" y2="129.43"/>
      </g>
      <g id="ARC-7" data-name="ARC">
        <path class="cls-1" d="M37.14,108.85a17.86,17.86,0,0,0-9.77,3.21" transform="translate(-0.54 -1.17)"/>
      </g>
      <g id="LINE-61" data-name="LINE">
        <line class="cls-1" x1="18.61" y1="129.42" x2="18.71" y2="110.88"/>
      </g>
      <g id="LINE-62" data-name="LINE">
        <line class="cls-1" x1="18.71" y1="110.88" x2="26.82" y2="110.89"/>
      </g>
      <g id="LINE-63" data-name="LINE">
        <line class="cls-1" x1="18.42" y1="129.42" x2="18.39" y2="115.64"/>
      </g>
      <g id="LINE-64" data-name="LINE">
        <line class="cls-1" x1="18.39" y1="115.64" x2="18.63" y2="68.83"/>
      </g>
      <g id="LINE-65" data-name="LINE">
        <line class="cls-1" x1="18.63" y1="68.83" x2="18.71" y2="110.88"/>
      </g>
      <g id="LWPOLYLINE-16" data-name="LWPOLYLINE">
        <polyline class="cls-1" points="18.56 127.43 18.55 129.33 18.55 129.42"/>
      </g>
      <g id="LWPOLYLINE-17" data-name="LWPOLYLINE">
        <path class="cls-1" d="M19.1,128.6" transform="translate(-0.54 -1.17)"/>
        <polyline class="cls-1" points="18.48 129.42 18.48 128.09 18.47 125.96 18.47 123.52 18.47 120.85 18.47 118.02 18.48 115.11 18.48 112.21 18.49 109.41 18.5 106.77 18.51 104.38 18.52 102.3 18.53 100.6 18.54 99.33 18.55 98.52 18.57 98.19 18.57 98.36 18.58 99.01 18.59 100.14 18.59 101.7 18.6 103.66 18.6 105.95 18.6 108.52 18.6 111.28 18.6 114.16 18.59 117.07 18.59 119.94 18.58 122.67 18.57 125.19 18.56 127.43"/>
      </g>
      <g id="SPLINE-14" data-name="SPLINE">
        <path class="cls-1" d="M19,109.54c0,.11,0,.21,0,.32h0c0,.15,0,.32,0,.49h0c0,.2,0,.4,0,.59h0c0,.31,0,.63,0,.93h0v.77h0c0,.21,0,.34,0,.42h0c0,.08,0,.11,0,.08h0s0,0,0-.09h0s0-.09,0-.18h0c0-.07,0-.15,0-.25h0c0-.1,0-.2,0-.32h0c0-.15,0-.32,0-.49h0c0-.2,0-.39,0-.59h0c0-.31,0-.63,0-.94h0v-.77h0c0-.2,0-.34,0-.42h0c0-.08,0-.1,0-.08h0s0,0,0,.09h0s0,.09,0,.18h0c0,.07,0,.16,0,.25" transform="translate(-0.54 -1.17)"/>
      </g>
      <g id="SPLINE-15" data-name="SPLINE">
        <path class="cls-1" d="M19.17,117.4c0,.1,0,.21,0,.32h0c0,.15,0,.32,0,.49h0q0,.3,0,.59h0c0,.31,0,.63,0,.93h0v.77h0c0,.2,0,.34,0,.42h0c0,.08,0,.1,0,.08h0s0,0,0-.09h0s0-.1,0-.18h0c0-.07,0-.15,0-.25h0c0-.1,0-.21,0-.32h0c0-.15,0-.32,0-.49h0c0-.2,0-.39,0-.6h0c0-.31,0-.63,0-.94h0v-.77h0c0-.21,0-.34,0-.42h0c0-.08,0-.1,0-.08h0s0,0,0,.09h0s0,.09,0,.18h0c0,.07,0,.16,0,.25" transform="translate(-0.54 -1.17)"/>
      </g>
      <g id="SPLINE-16" data-name="SPLINE">
        <path class="cls-1" d="M19.11,86.5c0,.1,0,.21,0,.32h0c0,.15,0,.32,0,.49h0c0,.2,0,.4,0,.59h0c0,.31,0,.63,0,.93h0c0,.29,0,.56,0,.77h0c0,.21,0,.34,0,.42h0c0,.08,0,.11,0,.09h0s0,0,0-.09h0s0-.09,0-.18h0c0-.07,0-.15,0-.25h0c0-.1,0-.2,0-.32h0c0-.15,0-.32,0-.49h0c0-.2,0-.39,0-.59h0c0-.31,0-.63,0-.94h0c0-.29,0-.57,0-.77h0c0-.21,0-.34,0-.42h0c0-.08,0-.11,0-.08h0s0,0,0,.09h0s0,.09,0,.18h0c0,.07,0,.16,0,.25" transform="translate(-0.54 -1.17)"/>
      </g>
      <g id="LINE-66" data-name="LINE">
        <line class="cls-1" x1="20.85" y1="68.83" x2="18.63" y2="68.83"/>
      </g>
      <g id="LINE-67" data-name="LINE">
        <line class="cls-1" x1="20.81" y1="66.23" x2="20.72" y2="66.23"/>
      </g>
      <g id="LINE-68" data-name="LINE">
        <line class="cls-1" x1="20.72" y1="66.23" x2="20.71" y2="66.02"/>
      </g>
      <g id="LINE-69" data-name="LINE">
        <line class="cls-1" x1="20.72" y1="66.23" x2="20.72" y2="68.83"/>
      </g>
      <g id="ARC-8" data-name="ARC">
        <path class="cls-1" d="M21.27,70c0-.71,0-2.11,0-2.82" transform="translate(-0.54 -1.17)"/>
      </g>
      <g id="LWPOLYLINE-18" data-name="LWPOLYLINE">
        <polyline class="cls-1" points="18.43 84.97 18.43 86.46 18.44 87.51 18.44 88.07 18.45 88.12 18.46 87.66 18.47 86.7 18.48 85.28 18.49 83.49 18.5 81.39 18.5 79.1 18.5 76.71 18.51 74.34 18.51 72.09 18.51 70.08 18.5 68.4 18.5 67.12 18.49 66.31 18.49 66 18.48 66.21 18.47 66.93 18.46 68.12 18.45 69.73 18.44 71.69 18.44 73.9 18.43 76.25 18.43 78.65 18.42 80.97 18.42 83.11 18.43 84.97"/>
      </g>
      <g id="SPLINE-17" data-name="SPLINE">
        <path class="cls-1" d="M19.11,86.5c0-.09,0-.18,0-.25h0c0-.09,0-.14,0-.18h0s0-.08,0-.09h0s0,0,0,.08h0c0,.08,0,.21,0,.42h0c0,.21,0,.49,0,.77h0c0,.31,0,.62,0,.94h0c0,.2,0,.4,0,.59h0c0,.17,0,.34,0,.49h0c0,.12,0,.22,0,.32h0c0,.1,0,.18,0,.25h0c0,.08,0,.14,0,.18h0c0,.05,0,.1,0,.09h0v0" transform="translate(-0.54 -1.17)"/>
      </g>
      <g id="SPLINE-18" data-name="SPLINE">
        <path class="cls-1" d="M19.11,90c0-.11,0-.22,0-.42h0c0-.2,0-.48,0-.77h0c0-.31,0-.62,0-.93h0c0-.2,0-.4,0-.59h0c0-.17,0-.34,0-.49h0c0-.12,0-.22,0-.32" transform="translate(-0.54 -1.17)"/>
      </g>
      <g id="SPLINE-19" data-name="SPLINE">
        <path class="cls-1" d="M19.17,117.4c0-.09,0-.18,0-.25h0c0-.09,0-.14,0-.18h0s0-.08,0-.09h0s0,0,0,.08h0c0,.08,0,.21,0,.42h0v.77h0c0,.31,0,.62,0,.94h0c0,.2,0,.4,0,.6h0c0,.17,0,.34,0,.49h0c0,.12,0,.23,0,.32h0c0,.1,0,.18,0,.25h0c0,.08,0,.14,0,.18h0c0,.05,0,.1,0,.09h0v0" transform="translate(-0.54 -1.17)"/>
      </g>
      <g id="SPLINE-20" data-name="SPLINE">
        <path class="cls-1" d="M19.17,120.92c0-.11,0-.22,0-.42h0v-.77h0c0-.31,0-.62,0-.93h0c0-.2,0-.4,0-.59h0c0-.17,0-.34,0-.49h0c0-.12,0-.22,0-.32" transform="translate(-0.54 -1.17)"/>
      </g>
      <g id="SPLINE-21" data-name="SPLINE">
        <path class="cls-1" d="M19,109.54c0-.09,0-.18,0-.25h0c0-.09,0-.14,0-.18h0s0-.08,0-.09h0s0,0,0,.08h0c0,.08,0,.21,0,.42h0v.77h0c0,.31,0,.62,0,.94h0c0,.2,0,.4,0,.59h0c0,.17,0,.34,0,.49h0c0,.12,0,.23,0,.32h0c0,.1,0,.18,0,.25h0c0,.08,0,.14,0,.18h0c0,.05,0,.1,0,.09h0v0" transform="translate(-0.54 -1.17)"/>
      </g>
      <g id="SPLINE-22" data-name="SPLINE">
        <path class="cls-1" d="M19,113.07c0-.11,0-.22,0-.42h0v-.77h0c0-.31,0-.62,0-.93h0c0-.2,0-.4,0-.59h0c0-.17,0-.34,0-.49h0c0-.12,0-.22,0-.32" transform="translate(-0.54 -1.17)"/>
      </g>
      <g id="LINE-70" data-name="LINE">
        <path class="cls-1" d="M106.44,65.84l-.07,13.57" transform="translate(-0.54 -1.17)"/>
      </g>
      <g id="LINE-71" data-name="LINE">
        <line class="cls-1" x1="49.22" y1="114.17" x2="49.14" y2="129.47"/>
      </g>
      <g id="LINE-72" data-name="LINE">
        <line class="cls-1" x1="50.99" y1="129.47" x2="51.07" y2="115.47"/>
      </g>
      <g id="LINE-73" data-name="LINE">
        <line class="cls-1" x1="20.82" y1="66.02" x2="20.71" y2="66.02"/>
      </g>
    </g>
    <ellipse class="cls-1" cx="74.2" cy="109.92" rx="4.9" ry="2.48"/>
    <line class="cls-1" x1="71.27" y1="107.94" x2="77.44" y2="111.77"/>
    <g>
      <ellipse class="cls-1" cx="99.03" cy="109.29" rx="4.9" ry="2.48"/>
      <line class="cls-1" x1="95.65" y1="111.08" x2="102.5" y2="107.76"/>
    </g>
  </g>
  <g>
    <path d="M1.66,7.72V1.28H2.94L4.47,5.84q.21.64.31,1,.11-.35.34-1L6.66,1.28H7.81V7.72H7V2.33L5.11,7.72H4.34L2.48,2.24V7.72Z" transform="translate(-0.54 -1.17)"/>
    <path d="M8.48,7.72l2.47-6.44h.92L14.5,7.72h-1l-.75-2H10.09l-.71,2Zm1.86-2.65h2.18l-.67-1.78q-.31-.81-.46-1.34A8.21,8.21,0,0,1,11,3.19Z" transform="translate(-0.54 -1.17)"/>
    <path d="M15.18,7.72V1.28h.87l3.38,5.06V1.28h.82V7.72h-.87L16,2.66V7.72Z" transform="translate(-0.54 -1.17)"/>
    <path d="M21.83,7.72V1.28h.85V7.72Z" transform="translate(-0.54 -1.17)"/>
    <path d="M24.23,7.72V1.28h4.35V2H25.08V4h3V4.8h-3V7.72Z" transform="translate(-0.54 -1.17)"/>
    <path d="M29.42,4.59a3.5,3.5,0,0,1,.86-2.51,2.93,2.93,0,0,1,2.22-.91,3.1,3.1,0,0,1,1.61.43,2.8,2.8,0,0,1,1.09,1.19,3.87,3.87,0,0,1,.38,1.73,3.79,3.79,0,0,1-.39,1.75,2.7,2.7,0,0,1-1.12,1.17,3.2,3.2,0,0,1-1.56.4,3,3,0,0,1-1.63-.44,2.82,2.82,0,0,1-1.08-1.2A3.64,3.64,0,0,1,29.42,4.59Zm.88,0a2.58,2.58,0,0,0,.63,1.83,2.18,2.18,0,0,0,3.16,0,2.74,2.74,0,0,0,.62-1.92,3.29,3.29,0,0,0-.27-1.37,2,2,0,0,0-.78-.91,2.11,2.11,0,0,0-1.15-.32A2.18,2.18,0,0,0,31,2.52,2.78,2.78,0,0,0,30.3,4.6Z" transform="translate(-0.54 -1.17)"/>
    <path d="M36.65,7.72V1.28h.85V7h3.17v.76Z" transform="translate(-0.54 -1.17)"/>
    <path d="M41.69,7.72V1.28h2.22a5.31,5.31,0,0,1,1.15.09,2.19,2.19,0,0,1,.95.46,2.63,2.63,0,0,1,.76,1.1A4.32,4.32,0,0,1,47,4.47a4.54,4.54,0,0,1-.17,1.3,3.21,3.21,0,0,1-.44.94,2.36,2.36,0,0,1-.59.58,2.41,2.41,0,0,1-.77.32,4.39,4.39,0,0,1-1,.11ZM42.54,7h1.38a3.34,3.34,0,0,0,1-.12,1.43,1.43,0,0,0,.58-.33A2,2,0,0,0,46,5.7a4,4,0,0,0,.17-1.24A3,3,0,0,0,45.8,2.9,1.67,1.67,0,0,0,45,2.17,3.34,3.34,0,0,0,43.9,2H42.54Z" transform="translate(-0.54 -1.17)"/>
    <path d="M53.7,5.2V4.44h2.73V6.83a4.83,4.83,0,0,1-1.3.75,3.85,3.85,0,0,1-1.37.25A3.65,3.65,0,0,1,52,7.43a2.68,2.68,0,0,1-1.17-1.18,3.7,3.7,0,0,1-.4-1.72,4,4,0,0,1,.39-1.76A2.62,2.62,0,0,1,52,1.57a3.55,3.55,0,0,1,1.7-.4A3.38,3.38,0,0,1,55,1.4a2.1,2.1,0,0,1,.89.63,2.81,2.81,0,0,1,.49,1.05l-.77.21a2.38,2.38,0,0,0-.36-.77,1.47,1.47,0,0,0-.62-.45,2.25,2.25,0,0,0-.89-.17,2.6,2.6,0,0,0-1,.18,1.87,1.87,0,0,0-.69.47,2.25,2.25,0,0,0-.41.64,3.37,3.37,0,0,0-.25,1.3,3.15,3.15,0,0,0,.3,1.44,1.9,1.9,0,0,0,.86.86,2.68,2.68,0,0,0,1.21.28,2.86,2.86,0,0,0,1.08-.21,2.82,2.82,0,0,0,.8-.46V5.2Z" transform="translate(-0.54 -1.17)"/>
    <path d="M57,7.72l2.47-6.44h.92L63,7.72H62l-.75-2H58.59l-.71,2Zm1.86-2.65H61l-.67-1.78Q60,2.48,59.9,2a8.1,8.1,0,0,1-.35,1.23Z" transform="translate(-0.54 -1.17)"/>
    <path d="M63.4,5.65l.8-.07a1.76,1.76,0,0,0,.27.79,1.45,1.45,0,0,0,.65.5,2.46,2.46,0,0,0,1,.19A2.37,2.37,0,0,0,67,6.92a1.19,1.19,0,0,0,.56-.4A.92.92,0,0,0,67.71,6a.84.84,0,0,0-.18-.53A1.3,1.3,0,0,0,67,5.07a11.23,11.23,0,0,0-1.15-.31,5.87,5.87,0,0,1-1.24-.4,1.74,1.74,0,0,1-.69-.6,1.47,1.47,0,0,1-.23-.8A1.63,1.63,0,0,1,63.93,2a1.7,1.7,0,0,1,.81-.64,3.06,3.06,0,0,1,1.18-.22,3.22,3.22,0,0,1,1.26.23,1.83,1.83,0,0,1,.84.68,2,2,0,0,1,.32,1l-.82.06a1.32,1.32,0,0,0-.45-.92A1.74,1.74,0,0,0,66,1.92a1.8,1.8,0,0,0-1.13.28.85.85,0,0,0-.35.68.73.73,0,0,0,.25.57A3.39,3.39,0,0,0,66,3.92a8.52,8.52,0,0,1,1.43.41,2,2,0,0,1,.83.66,1.6,1.6,0,0,1,.27.92,1.75,1.75,0,0,1-.29,1,1.94,1.94,0,0,1-.85.71,3,3,0,0,1-1.24.25,3.72,3.72,0,0,1-1.46-.25,2.05,2.05,0,0,1-.93-.77A2.18,2.18,0,0,1,63.4,5.65Z" transform="translate(-0.54 -1.17)"/>
    <path d="M10.93,18.52V12.08h2.43a5.87,5.87,0,0,1,1,.06,2,2,0,0,1,.8.3,1.58,1.58,0,0,1,.52.62,2.1,2.1,0,0,1-.33,2.27,2.51,2.51,0,0,1-1.89.57H11.79v2.62Zm.85-3.38h1.67a1.76,1.76,0,0,0,1.17-.31A1.09,1.09,0,0,0,15,14a1.16,1.16,0,0,0-.2-.69,1,1,0,0,0-.54-.38,3.65,3.65,0,0,0-.8-.06H11.79Z" transform="translate(-0.54 -1.17)"/>
    <path d="M16.95,18.52V12.08h2.86a3.79,3.79,0,0,1,1.31.17,1.43,1.43,0,0,1,.72.61,1.83,1.83,0,0,1,.27,1A1.62,1.62,0,0,1,21.66,15a2.24,2.24,0,0,1-1.37.6,2.24,2.24,0,0,1,.51.32,4.46,4.46,0,0,1,.71.86l1.12,1.75H21.56l-.85-1.34q-.37-.58-.62-.89a1.94,1.94,0,0,0-.43-.43,1.27,1.27,0,0,0-.39-.17,2.55,2.55,0,0,0-.47,0h-1v2.86Zm.85-3.6h1.83a2.76,2.76,0,0,0,.91-.12,1,1,0,0,0,.5-.39,1,1,0,0,0,.17-.58,1,1,0,0,0-.33-.75,1.55,1.55,0,0,0-1-.29h-2Z" transform="translate(-0.54 -1.17)"/>
    <path d="M23.45,18.52V12.08h4.66v.76H24.31v2h3.56v.76H24.31v2.19h4v.76Z" transform="translate(-0.54 -1.17)"/>
    <path d="M29.15,16.45l.8-.07a1.76,1.76,0,0,0,.27.79,1.45,1.45,0,0,0,.65.5,2.46,2.46,0,0,0,1,.19,2.37,2.37,0,0,0,.86-.15,1.19,1.19,0,0,0,.56-.4.92.92,0,0,0,.18-.55.84.84,0,0,0-.18-.53,1.3,1.3,0,0,0-.58-.38,11.23,11.23,0,0,0-1.15-.31,5.87,5.87,0,0,1-1.24-.4,1.74,1.74,0,0,1-.69-.6,1.47,1.47,0,0,1-.23-.8,1.63,1.63,0,0,1,.28-.91,1.7,1.7,0,0,1,.81-.64A3.06,3.06,0,0,1,31.66,12a3.22,3.22,0,0,1,1.26.23,1.83,1.83,0,0,1,.84.68,2,2,0,0,1,.32,1l-.82.06a1.32,1.32,0,0,0-.45-.92,1.74,1.74,0,0,0-1.12-.31,1.8,1.8,0,0,0-1.13.28.85.85,0,0,0-.35.68.73.73,0,0,0,.25.57,3.39,3.39,0,0,0,1.29.46,8.52,8.52,0,0,1,1.43.41,2,2,0,0,1,.83.66,1.6,1.6,0,0,1,.27.92,1.75,1.75,0,0,1-.29,1,1.94,1.94,0,0,1-.85.71,3,3,0,0,1-1.24.25,3.72,3.72,0,0,1-1.46-.25,2.05,2.05,0,0,1-.93-.77A2.18,2.18,0,0,1,29.15,16.45Z" transform="translate(-0.54 -1.17)"/>
    <path d="M35.15,16.45l.8-.07a1.76,1.76,0,0,0,.27.79,1.45,1.45,0,0,0,.65.5,2.46,2.46,0,0,0,1,.19,2.37,2.37,0,0,0,.86-.15,1.19,1.19,0,0,0,.56-.4.92.92,0,0,0,.18-.55.84.84,0,0,0-.18-.53,1.3,1.3,0,0,0-.58-.38,11.23,11.23,0,0,0-1.15-.31,5.87,5.87,0,0,1-1.24-.4,1.74,1.74,0,0,1-.69-.6,1.47,1.47,0,0,1-.23-.8,1.63,1.63,0,0,1,.28-.91,1.7,1.7,0,0,1,.81-.64A3.06,3.06,0,0,1,37.67,12a3.22,3.22,0,0,1,1.26.23,1.83,1.83,0,0,1,.84.68,2,2,0,0,1,.32,1l-.82.06a1.32,1.32,0,0,0-.45-.92,1.74,1.74,0,0,0-1.12-.31,1.8,1.8,0,0,0-1.13.28.85.85,0,0,0-.35.68.73.73,0,0,0,.25.57,3.39,3.39,0,0,0,1.29.46,8.52,8.52,0,0,1,1.43.41,2,2,0,0,1,.83.66,1.6,1.6,0,0,1,.27.92,1.75,1.75,0,0,1-.29,1,1.94,1.94,0,0,1-.85.71,3,3,0,0,1-1.24.25,3.72,3.72,0,0,1-1.46-.25,2.05,2.05,0,0,1-.93-.77A2.18,2.18,0,0,1,35.15,16.45Z" transform="translate(-0.54 -1.17)"/>
    <path d="M45.67,12.08h.85V15.8a4.4,4.4,0,0,1-.22,1.54,1.89,1.89,0,0,1-.79.93,2.82,2.82,0,0,1-1.51.36,3.09,3.09,0,0,1-1.48-.31,1.78,1.78,0,0,1-.82-.9,4.3,4.3,0,0,1-.25-1.62V12.08h.85V15.8A3.64,3.64,0,0,0,42.47,17a1.19,1.19,0,0,0,.54.61,1.85,1.85,0,0,0,.93.22,1.77,1.77,0,0,0,1.34-.43,2.45,2.45,0,0,0,.4-1.64Z" transform="translate(-0.54 -1.17)"/>
    <path d="M48,18.52V12.08h2.86a3.79,3.79,0,0,1,1.31.17,1.43,1.43,0,0,1,.72.61,1.83,1.83,0,0,1,.27,1A1.62,1.62,0,0,1,52.66,15a2.24,2.24,0,0,1-1.37.6,2.24,2.24,0,0,1,.51.32,4.46,4.46,0,0,1,.71.86l1.12,1.75H52.56l-.85-1.34q-.37-.58-.62-.89a2,2,0,0,0-.43-.43,1.27,1.27,0,0,0-.39-.17,2.55,2.55,0,0,0-.47,0h-1v2.86Zm.85-3.6h1.83a2.76,2.76,0,0,0,.91-.12,1,1,0,0,0,.5-.39,1,1,0,0,0,.17-.58,1,1,0,0,0-.33-.75,1.55,1.55,0,0,0-1-.29h-2Z" transform="translate(-0.54 -1.17)"/>
    <path d="M54.46,18.52V12.08h4.66v.76H55.31v2h3.56v.76H55.31v2.19h4v.76Z" transform="translate(-0.54 -1.17)"/>
    <path d="M13.57,29.32V23.64H11.45v-.76h5.11v.76H14.43v5.68Z" transform="translate(-0.54 -1.17)"/>
    <path d="M17.45,29.32V22.88h4.66v.76H18.3v2h3.56v.76H18.3v2.19h4v.76Z" transform="translate(-0.54 -1.17)"/>
    <path d="M23.14,27.25l.8-.07a1.77,1.77,0,0,0,.27.79,1.46,1.46,0,0,0,.65.5,2.46,2.46,0,0,0,1,.19,2.36,2.36,0,0,0,.86-.15,1.19,1.19,0,0,0,.56-.4.93.93,0,0,0,.18-.55.84.84,0,0,0-.18-.53,1.3,1.3,0,0,0-.58-.38,11.08,11.08,0,0,0-1.15-.31,5.91,5.91,0,0,1-1.24-.4,1.75,1.75,0,0,1-.69-.6,1.47,1.47,0,0,1-.23-.8,1.64,1.64,0,0,1,.28-.91,1.7,1.7,0,0,1,.81-.64,3.06,3.06,0,0,1,1.18-.22,3.22,3.22,0,0,1,1.26.23,1.82,1.82,0,0,1,.84.68,2,2,0,0,1,.32,1l-.82.06a1.31,1.31,0,0,0-.45-.92,1.74,1.74,0,0,0-1.12-.31,1.81,1.81,0,0,0-1.13.28.85.85,0,0,0-.35.68.74.74,0,0,0,.25.57,3.4,3.4,0,0,0,1.29.46,8.52,8.52,0,0,1,1.43.41,2,2,0,0,1,.83.66,1.61,1.61,0,0,1,.27.92,1.74,1.74,0,0,1-.29,1,1.94,1.94,0,0,1-.85.71,3,3,0,0,1-1.24.25,3.73,3.73,0,0,1-1.46-.25,2,2,0,0,1-.93-.77A2.18,2.18,0,0,1,23.14,27.25Z" transform="translate(-0.54 -1.17)"/>
    <path d="M31.08,29.32V23.64H29v-.76h5.11v.76H31.93v5.68Z" transform="translate(-0.54 -1.17)"/>
    <path d="M37.27,29.32V22.88H39.7a5.87,5.87,0,0,1,1,.06,2,2,0,0,1,.8.3,1.59,1.59,0,0,1,.52.62,2.1,2.1,0,0,1-.33,2.27,2.51,2.51,0,0,1-1.89.57H38.13v2.62Zm.85-3.38h1.67A1.76,1.76,0,0,0,41,25.64a1.09,1.09,0,0,0,.35-.87,1.16,1.16,0,0,0-.2-.69,1,1,0,0,0-.54-.38,3.65,3.65,0,0,0-.79-.06H38.13Z" transform="translate(-0.54 -1.17)"/>
    <path d="M43,26.19a3.5,3.5,0,0,1,.86-2.51,2.93,2.93,0,0,1,2.22-.91,3.1,3.1,0,0,1,1.61.43,2.8,2.8,0,0,1,1.09,1.19,3.87,3.87,0,0,1,.38,1.73,3.79,3.79,0,0,1-.39,1.75A2.7,2.7,0,0,1,47.66,29a3.2,3.2,0,0,1-1.56.4A3,3,0,0,1,44.47,29a2.82,2.82,0,0,1-1.08-1.2A3.64,3.64,0,0,1,43,26.19Zm.88,0A2.58,2.58,0,0,0,44.52,28a2.18,2.18,0,0,0,3.16,0,2.74,2.74,0,0,0,.62-1.92A3.29,3.29,0,0,0,48,24.73a2,2,0,0,0-.78-.91,2.11,2.11,0,0,0-1.15-.32,2.18,2.18,0,0,0-1.56.62A2.78,2.78,0,0,0,43.9,26.2Z" transform="translate(-0.54 -1.17)"/>
    <path d="M50.29,29.32V22.88h2.86a3.79,3.79,0,0,1,1.31.17,1.43,1.43,0,0,1,.72.61,1.83,1.83,0,0,1,.27,1A1.62,1.62,0,0,1,55,25.79a2.24,2.24,0,0,1-1.37.6,2.24,2.24,0,0,1,.51.32,4.46,4.46,0,0,1,.71.86L56,29.32H54.89L54,28q-.37-.58-.62-.89a2,2,0,0,0-.43-.43,1.27,1.27,0,0,0-.39-.17,2.55,2.55,0,0,0-.47,0h-1v2.86Zm.85-3.6H53a2.76,2.76,0,0,0,.91-.12,1,1,0,0,0,.5-.39,1,1,0,0,0,.17-.58,1,1,0,0,0-.33-.75,1.55,1.55,0,0,0-1-.29h-2Z" transform="translate(-0.54 -1.17)"/>
    <path d="M58.25,29.32V23.64H56.13v-.76h5.11v.76H59.1v5.68Z" transform="translate(-0.54 -1.17)"/>
    <path d="M2.1,42A7.93,7.93,0,0,1,1,40.08a6.07,6.07,0,0,1-.11-4.3A8.45,8.45,0,0,1,2.1,33.57h.57q-.53.92-.7,1.31a7.13,7.13,0,0,0-.42,1.27,7.35,7.35,0,0,0-.19,1.65A7.93,7.93,0,0,0,2.67,42Z" transform="translate(-0.54 -1.17)"/>
    <path d="M3.67,40.12V33.68H4.93L7.57,38v-4.3H8.78v6.44H7.47l-2.6-4.2v4.2Z" transform="translate(-0.54 -1.17)"/>
    <path d="M9.86,37.72a2.52,2.52,0,0,1,.3-1.19,2.08,2.08,0,0,1,.86-.88,2.54,2.54,0,0,1,1.24-.3A2.33,2.33,0,0,1,14,36a2.38,2.38,0,0,1,.68,1.74A2.41,2.41,0,0,1,14,39.53a2.31,2.31,0,0,1-1.72.7A2.71,2.71,0,0,1,11,39.94a2,2,0,0,1-.89-.85A2.83,2.83,0,0,1,9.86,37.72Zm1.27.07a1.55,1.55,0,0,0,.33,1.06,1.08,1.08,0,0,0,1.62,0,1.57,1.57,0,0,0,.33-1.07,1.54,1.54,0,0,0-.33-1.05,1.08,1.08,0,0,0-1.62,0A1.55,1.55,0,0,0,11.12,37.79Z" transform="translate(-0.54 -1.17)"/>
    <path d="M19.89,40.12H18.65V37.74a3.68,3.68,0,0,0-.08-1,.69.69,0,0,0-.26-.35.74.74,0,0,0-.43-.12,1,1,0,0,0-.58.18.89.89,0,0,0-.35.47A4,4,0,0,0,16.87,38v2.11H15.63V35.46h1.15v.69a1.87,1.87,0,0,1,1.54-.79,1.84,1.84,0,0,1,.75.15,1.25,1.25,0,0,1,.51.38,1.38,1.38,0,0,1,.24.52,3.89,3.89,0,0,1,.07.83Z" transform="translate(-0.54 -1.17)"/>
    <path d="M21,38.41V37.17h2.43v1.23Z" transform="translate(-0.54 -1.17)"/>
    <path d="M30,40.12H28.54L28,38.66H25.4l-.53,1.46H23.49L26,33.68h1.38Zm-2.4-2.55-.89-2.39-.87,2.39Z" transform="translate(-0.54 -1.17)"/>
    <path d="M34.91,40.12H33.77v-.69a1.86,1.86,0,0,1-.67.6,1.73,1.73,0,0,1-.78.2,1.78,1.78,0,0,1-1.38-.65,2.64,2.64,0,0,1-.57-1.81,2.6,2.6,0,0,1,.56-1.8,1.82,1.82,0,0,1,1.41-.62,1.75,1.75,0,0,1,1.35.65V33.68h1.23Zm-3.29-2.43a2.14,2.14,0,0,0,.21,1.08.93.93,0,0,0,.83.48.91.91,0,0,0,.72-.36,1.67,1.67,0,0,0,.3-1.08,1.83,1.83,0,0,0-.29-1.16.92.92,0,0,0-.74-.35.93.93,0,0,0-.74.35A1.58,1.58,0,0,0,31.62,37.69Z" transform="translate(-0.54 -1.17)"/>
    <path d="M37.34,35.46V40a4.72,4.72,0,0,1-.12,1.26,1,1,0,0,1-.45.57,1.58,1.58,0,0,1-.85.21,2.68,2.68,0,0,1-.4,0l-.46-.1.22-1.05.16,0h.14a.55.55,0,0,0,.31-.08.4.4,0,0,0,.16-.2,3.23,3.23,0,0,0,0-.69V35.46Zm-1.24-.63V33.68h1.24v1.14Z" transform="translate(-0.54 -1.17)"/>
    <path d="M41.7,40.12v-.7A1.8,1.8,0,0,1,41,40a1.89,1.89,0,0,1-.88.21,1.71,1.71,0,0,1-.84-.21,1.21,1.21,0,0,1-.54-.58,2.56,2.56,0,0,1-.17-1v-3h1.24V37.6a5.89,5.89,0,0,0,.07,1.21.65.65,0,0,0,.25.35.76.76,0,0,0,.46.13,1,1,0,0,0,.57-.17.88.88,0,0,0,.34-.43,4.94,4.94,0,0,0,.09-1.26v-2h1.24v4.67Z" transform="translate(-0.54 -1.17)"/>
    <path d="M43.69,38.79l1.24-.19a.9.9,0,0,0,.32.55,1.08,1.08,0,0,0,.68.19,1.21,1.21,0,0,0,.72-.18.39.39,0,0,0,.16-.33.33.33,0,0,0-.09-.23,1,1,0,0,0-.41-.16,6.67,6.67,0,0,1-1.89-.6,1.2,1.2,0,0,1-.55-1.05,1.29,1.29,0,0,1,.48-1,2.24,2.24,0,0,1,1.49-.41,2.6,2.6,0,0,1,1.42.31,1.6,1.6,0,0,1,.64.92l-1.16.21a.73.73,0,0,0-.28-.42,1,1,0,0,0-.59-.14,1.34,1.34,0,0,0-.7.14.29.29,0,0,0-.14.25.28.28,0,0,0,.12.22,4.65,4.65,0,0,0,1.15.35,3.43,3.43,0,0,1,1.38.55,1.14,1.14,0,0,1,.39.92,1.41,1.41,0,0,1-.54,1.1,2.38,2.38,0,0,1-1.59.46,2.6,2.6,0,0,1-1.51-.39A1.78,1.78,0,0,1,43.69,38.79Z" transform="translate(-0.54 -1.17)"/>
    <path d="M51.28,35.46v1h-.84v1.88a4.59,4.59,0,0,0,0,.67.27.27,0,0,0,.11.16.34.34,0,0,0,.21.06,1.6,1.6,0,0,0,.5-.12l.11,1a2.45,2.45,0,0,1-1,.18,1.54,1.54,0,0,1-.6-.11.88.88,0,0,1-.39-.29,1.15,1.15,0,0,1-.17-.48,6.17,6.17,0,0,1,0-.87v-2h-.57v-1h.57v-.93l1.24-.72v1.65Z" transform="translate(-0.54 -1.17)"/>
    <path d="M53.05,36.88l-1.12-.2a1.75,1.75,0,0,1,.65-1A2.38,2.38,0,0,1,54,35.35a3,3,0,0,1,1.23.2,1.23,1.23,0,0,1,.57.5,2.55,2.55,0,0,1,.16,1.11v1.44a5,5,0,0,0,.06.91,2.63,2.63,0,0,0,.22.63H55c0-.08-.07-.2-.12-.37l0-.14a2.21,2.21,0,0,1-.68.46,1.94,1.94,0,0,1-.77.15,1.59,1.59,0,0,1-1.14-.39,1.3,1.3,0,0,1-.42-1,1.33,1.33,0,0,1,.19-.71,1.23,1.23,0,0,1,.53-.47,4.12,4.12,0,0,1,1-.29,6.73,6.73,0,0,0,1.2-.3V37a.64.64,0,0,0-.18-.51,1,1,0,0,0-.66-.15.89.89,0,0,0-.51.13A.9.9,0,0,0,53.05,36.88Zm1.65,1a7.45,7.45,0,0,1-.75.19,2.29,2.29,0,0,0-.67.22.51.51,0,0,0-.24.43.61.61,0,0,0,.19.45.67.67,0,0,0,.49.19,1.07,1.07,0,0,0,.64-.22.78.78,0,0,0,.29-.41,2.45,2.45,0,0,0,0-.6Z" transform="translate(-0.54 -1.17)"/>
    <path d="M57.08,40.12V33.68h1.23V36a1.75,1.75,0,0,1,1.35-.65,1.82,1.82,0,0,1,1.41.62,2.56,2.56,0,0,1,.56,1.77,2.69,2.69,0,0,1-.57,1.84,1.77,1.77,0,0,1-1.38.65,1.71,1.71,0,0,1-.79-.2,1.88,1.88,0,0,1-.67-.59v.69Zm1.23-2.43a2,2,0,0,0,.23,1.07,1,1,0,0,0,.85.49.87.87,0,0,0,.7-.35,1.71,1.71,0,0,0,.29-1.1,1.82,1.82,0,0,0-.29-1.15.92.92,0,0,0-.74-.35.93.93,0,0,0-.74.35A1.58,1.58,0,0,0,58.31,37.69Z" transform="translate(-0.54 -1.17)"/>
    <path d="M62.64,40.12V33.68h1.23v6.44Z" transform="translate(-0.54 -1.17)"/>
    <path d="M67.84,38.64l1.23.21a2,2,0,0,1-.75,1,2.21,2.21,0,0,1-1.28.35,2.09,2.09,0,0,1-1.8-.79,2.67,2.67,0,0,1-.46-1.61A2.57,2.57,0,0,1,65.38,36a2,2,0,0,1,1.53-.66,2.07,2.07,0,0,1,1.64.69,3,3,0,0,1,.58,2.11H66a1.25,1.25,0,0,0,.3.85.93.93,0,0,0,.71.31.75.75,0,0,0,.49-.16A1,1,0,0,0,67.84,38.64Zm.07-1.25a1.19,1.19,0,0,0-.28-.82.89.89,0,0,0-1.31,0,1.14,1.14,0,0,0-.26.8Z" transform="translate(-0.54 -1.17)"/>
    <path d="M70.61,42H70a7.93,7.93,0,0,0,1.31-4.22,7.23,7.23,0,0,0-.19-1.64,6.89,6.89,0,0,0-.42-1.27A14.54,14.54,0,0,0,70,33.57h.57a8.46,8.46,0,0,1,1.22,2.21,6.06,6.06,0,0,1-.12,4.3A8.05,8.05,0,0,1,70.61,42Z" transform="translate(-0.54 -1.17)"/>
  </g>
  <g>
    <path d="M115.34,8.74l.8-.07a1.76,1.76,0,0,0,.27.79,1.46,1.46,0,0,0,.65.5,2.46,2.46,0,0,0,1,.19,2.37,2.37,0,0,0,.86-.15,1.2,1.2,0,0,0,.56-.4.92.92,0,0,0,.18-.55.84.84,0,0,0-.18-.53,1.3,1.3,0,0,0-.58-.38,11.16,11.16,0,0,0-1.15-.31,5.89,5.89,0,0,1-1.24-.4,1.74,1.74,0,0,1-.69-.6,1.47,1.47,0,0,1-.23-.8,1.63,1.63,0,0,1,.28-.91,1.7,1.7,0,0,1,.81-.64,3.06,3.06,0,0,1,1.18-.22,3.22,3.22,0,0,1,1.26.23,1.83,1.83,0,0,1,.84.68,2,2,0,0,1,.32,1l-.82.06a1.32,1.32,0,0,0-.45-.92A1.74,1.74,0,0,0,117.89,5a1.8,1.8,0,0,0-1.13.28.85.85,0,0,0-.35.68.73.73,0,0,0,.25.57,3.38,3.38,0,0,0,1.29.46,8.52,8.52,0,0,1,1.43.41,2,2,0,0,1,.83.66,1.6,1.6,0,0,1,.27.92,1.75,1.75,0,0,1-.29,1,1.94,1.94,0,0,1-.85.71,3,3,0,0,1-1.24.25,3.72,3.72,0,0,1-1.46-.25,2.05,2.05,0,0,1-.93-.77A2.18,2.18,0,0,1,115.34,8.74Z" transform="translate(-0.54 -1.17)"/>
    <path d="M125.86,4.36h.85V8.08a4.4,4.4,0,0,1-.22,1.54,1.89,1.89,0,0,1-.79.93,2.81,2.81,0,0,1-1.5.36,3.1,3.1,0,0,1-1.48-.31,1.78,1.78,0,0,1-.82-.9,4.3,4.3,0,0,1-.25-1.62V4.36h.85V8.08a3.64,3.64,0,0,0,.16,1.24,1.18,1.18,0,0,0,.54.61,1.85,1.85,0,0,0,.93.22,1.78,1.78,0,0,0,1.34-.43,2.46,2.46,0,0,0,.4-1.64Z" transform="translate(-0.54 -1.17)"/>
    <path d="M128.14,10.81V4.36h2.43a5.88,5.88,0,0,1,1,.06,2,2,0,0,1,.79.3,1.58,1.58,0,0,1,.52.62,2,2,0,0,1,.2.88,2,2,0,0,1-.52,1.39,2.51,2.51,0,0,1-1.89.57H129v2.62ZM129,7.43h1.67a1.76,1.76,0,0,0,1.17-.31,1.1,1.1,0,0,0,.35-.87,1.16,1.16,0,0,0-.2-.69,1,1,0,0,0-.54-.38,3.64,3.64,0,0,0-.79-.06H129Z" transform="translate(-0.54 -1.17)"/>
    <path d="M134.14,10.81V4.36h2.43a5.87,5.87,0,0,1,1,.06,2,2,0,0,1,.8.3,1.59,1.59,0,0,1,.52.62,2,2,0,0,1,.2.88,2,2,0,0,1-.52,1.39,2.51,2.51,0,0,1-1.89.57H135v2.62ZM135,7.43h1.67a1.76,1.76,0,0,0,1.17-.31,1.09,1.09,0,0,0,.35-.87,1.16,1.16,0,0,0-.2-.69,1,1,0,0,0-.54-.38,3.65,3.65,0,0,0-.79-.06H135Z" transform="translate(-0.54 -1.17)"/>
    <path d="M140.11,10.81V4.36H141V10h3.17v.76Z" transform="translate(-0.54 -1.17)"/>
    <path d="M146.3,10.81V8.08l-2.48-3.71h1l1.27,1.94q.35.54.65,1.09.29-.51.7-1.14l1.25-1.89h1l-2.57,3.71v2.73Z" transform="translate(-0.54 -1.17)"/>
    <path d="M155.84,8.28V7.52h2.73V9.91a4.83,4.83,0,0,1-1.3.75,3.85,3.85,0,0,1-1.37.25,3.65,3.65,0,0,1-1.72-.41A2.68,2.68,0,0,1,153,9.33a3.7,3.7,0,0,1-.4-1.72A4,4,0,0,1,153,5.86a2.62,2.62,0,0,1,1.13-1.21,3.55,3.55,0,0,1,1.7-.4,3.38,3.38,0,0,1,1.26.23,2.1,2.1,0,0,1,.89.63,2.81,2.81,0,0,1,.49,1.05l-.77.21a2.38,2.38,0,0,0-.36-.77,1.47,1.47,0,0,0-.62-.45,2.25,2.25,0,0,0-.89-.17,2.6,2.6,0,0,0-1,.18,1.87,1.87,0,0,0-.69.47,2.25,2.25,0,0,0-.41.64,3.37,3.37,0,0,0-.25,1.3,3.15,3.15,0,0,0,.3,1.44,1.9,1.9,0,0,0,.86.86,2.68,2.68,0,0,0,1.21.28,2.86,2.86,0,0,0,1.08-.21,2.82,2.82,0,0,0,.8-.46V8.28Z" transform="translate(-0.54 -1.17)"/>
    <path d="M159.11,10.81l2.47-6.44h.92l2.64,6.44h-1l-.75-2h-2.69l-.71,2ZM161,8.16h2.18l-.67-1.78Q162.18,5.56,162,5a8.1,8.1,0,0,1-.35,1.23Z" transform="translate(-0.54 -1.17)"/>
    <path d="M165.53,8.74l.8-.07a1.76,1.76,0,0,0,.27.79,1.45,1.45,0,0,0,.65.5,2.46,2.46,0,0,0,1,.19,2.37,2.37,0,0,0,.86-.15,1.19,1.19,0,0,0,.56-.4.92.92,0,0,0,.18-.55.84.84,0,0,0-.18-.53,1.3,1.3,0,0,0-.58-.38,11.23,11.23,0,0,0-1.15-.31,5.87,5.87,0,0,1-1.24-.4,1.74,1.74,0,0,1-.69-.6,1.47,1.47,0,0,1-.23-.8,1.63,1.63,0,0,1,.28-.91,1.7,1.7,0,0,1,.81-.64A3.06,3.06,0,0,1,168,4.25a3.22,3.22,0,0,1,1.26.23,1.83,1.83,0,0,1,.84.68,2,2,0,0,1,.32,1l-.82.06a1.32,1.32,0,0,0-.45-.92A1.74,1.74,0,0,0,168.08,5a1.8,1.8,0,0,0-1.13.28.85.85,0,0,0-.35.68.73.73,0,0,0,.25.57,3.39,3.39,0,0,0,1.29.46,8.52,8.52,0,0,1,1.43.41,2,2,0,0,1,.83.66,1.6,1.6,0,0,1,.27.92,1.75,1.75,0,0,1-.29,1,1.94,1.94,0,0,1-.85.71,3,3,0,0,1-1.24.25,3.72,3.72,0,0,1-1.46-.25,2.05,2.05,0,0,1-.93-.77A2.18,2.18,0,0,1,165.53,8.74Z" transform="translate(-0.54 -1.17)"/>
    <path d="M92.8,21.61V15.16h2.43a5.86,5.86,0,0,1,1,.06,2,2,0,0,1,.8.3,1.59,1.59,0,0,1,.52.62,2.1,2.1,0,0,1-.33,2.27A2.51,2.51,0,0,1,95.3,19H93.65v2.62Zm.85-3.38h1.67a1.76,1.76,0,0,0,1.17-.31,1.09,1.09,0,0,0,.35-.87,1.16,1.16,0,0,0-.2-.69,1,1,0,0,0-.54-.38,3.65,3.65,0,0,0-.79-.06H93.65Z" transform="translate(-0.54 -1.17)"/>
    <path d="M98.81,21.61V15.16h2.86a3.8,3.8,0,0,1,1.31.17,1.43,1.43,0,0,1,.72.61,1.83,1.83,0,0,1,.27,1,1.62,1.62,0,0,1-.44,1.16,2.24,2.24,0,0,1-1.37.6,2.25,2.25,0,0,1,.51.32,4.49,4.49,0,0,1,.71.86l1.12,1.75h-1.07l-.85-1.34q-.37-.58-.62-.89a1.92,1.92,0,0,0-.43-.43,1.27,1.27,0,0,0-.39-.17,2.55,2.55,0,0,0-.47,0h-1v2.86Zm.85-3.6h1.83a2.76,2.76,0,0,0,.91-.12,1,1,0,0,0,.5-.39,1,1,0,0,0,.17-.58,1,1,0,0,0-.33-.75,1.55,1.55,0,0,0-1-.29h-2Z" transform="translate(-0.54 -1.17)"/>
    <path d="M105.32,21.61V15.16H110v.76h-3.81v2h3.56v.76h-3.56v2.19h4v.76Z" transform="translate(-0.54 -1.17)"/>
    <path d="M111,19.54l.8-.07a1.76,1.76,0,0,0,.27.79,1.45,1.45,0,0,0,.65.5,2.46,2.46,0,0,0,1,.19,2.38,2.38,0,0,0,.86-.15,1.2,1.2,0,0,0,.55-.4.92.92,0,0,0,.18-.55.84.84,0,0,0-.18-.53,1.3,1.3,0,0,0-.58-.38,11.28,11.28,0,0,0-1.15-.31,5.86,5.86,0,0,1-1.24-.4,1.74,1.74,0,0,1-.69-.6,1.46,1.46,0,0,1-.23-.8,1.64,1.64,0,0,1,.28-.91,1.71,1.71,0,0,1,.81-.64,3.07,3.07,0,0,1,1.18-.22,3.23,3.23,0,0,1,1.26.23,1.82,1.82,0,0,1,.84.68,2,2,0,0,1,.32,1l-.82.06a1.32,1.32,0,0,0-.45-.92,1.74,1.74,0,0,0-1.12-.31,1.8,1.8,0,0,0-1.13.28.85.85,0,0,0-.35.68.73.73,0,0,0,.25.57,3.38,3.38,0,0,0,1.29.46,8.55,8.55,0,0,1,1.43.41,1.94,1.94,0,0,1,.83.66,1.59,1.59,0,0,1,.27.92,1.76,1.76,0,0,1-.29,1,2,2,0,0,1-.85.71,3,3,0,0,1-1.24.25,3.72,3.72,0,0,1-1.46-.25,2.05,2.05,0,0,1-.93-.77A2.17,2.17,0,0,1,111,19.54Z" transform="translate(-0.54 -1.17)"/>
    <path d="M117,19.54l.8-.07a1.78,1.78,0,0,0,.27.79,1.46,1.46,0,0,0,.65.5,2.46,2.46,0,0,0,1,.19,2.36,2.36,0,0,0,.86-.15,1.2,1.2,0,0,0,.56-.4.93.93,0,0,0,.18-.55.84.84,0,0,0-.18-.53,1.3,1.3,0,0,0-.58-.38,11.08,11.08,0,0,0-1.15-.31,5.91,5.91,0,0,1-1.24-.4,1.75,1.75,0,0,1-.69-.6,1.48,1.48,0,0,1-.23-.8,1.64,1.64,0,0,1,.28-.91,1.71,1.71,0,0,1,.81-.64,3.07,3.07,0,0,1,1.18-.22,3.22,3.22,0,0,1,1.26.23,1.82,1.82,0,0,1,.84.68,2,2,0,0,1,.32,1l-.82.06a1.32,1.32,0,0,0-.45-.92,1.74,1.74,0,0,0-1.12-.31,1.81,1.81,0,0,0-1.13.28.85.85,0,0,0-.35.68.74.74,0,0,0,.25.57,3.39,3.39,0,0,0,1.29.46,8.54,8.54,0,0,1,1.43.41,2,2,0,0,1,.83.66,1.61,1.61,0,0,1,.27.92,1.74,1.74,0,0,1-.29,1,1.94,1.94,0,0,1-.85.71,3,3,0,0,1-1.24.25,3.73,3.73,0,0,1-1.47-.25,2.05,2.05,0,0,1-.93-.77A2.18,2.18,0,0,1,117,19.54Z" transform="translate(-0.54 -1.17)"/>
    <path d="M127.54,15.16h.85v3.72a4.41,4.41,0,0,1-.22,1.54,1.89,1.89,0,0,1-.79.93,2.82,2.82,0,0,1-1.51.36,3.09,3.09,0,0,1-1.48-.31,1.78,1.78,0,0,1-.82-.9,4.3,4.3,0,0,1-.25-1.62V15.16h.85v3.72a3.64,3.64,0,0,0,.16,1.24,1.18,1.18,0,0,0,.54.61,1.85,1.85,0,0,0,.93.22,1.77,1.77,0,0,0,1.34-.43,2.45,2.45,0,0,0,.4-1.64Z" transform="translate(-0.54 -1.17)"/>
    <path d="M129.82,21.61V15.16h2.86a3.79,3.79,0,0,1,1.31.17,1.43,1.43,0,0,1,.72.61,1.83,1.83,0,0,1,.27,1,1.62,1.62,0,0,1-.44,1.16,2.24,2.24,0,0,1-1.37.6,2.24,2.24,0,0,1,.51.32,4.46,4.46,0,0,1,.71.86l1.12,1.75h-1.07l-.85-1.34q-.37-.58-.62-.89a2,2,0,0,0-.43-.43,1.27,1.27,0,0,0-.39-.17,2.55,2.55,0,0,0-.47,0h-1v2.86Zm.85-3.6h1.83a2.76,2.76,0,0,0,.91-.12,1,1,0,0,0,.5-.39,1,1,0,0,0,.17-.58,1,1,0,0,0-.33-.75,1.55,1.55,0,0,0-1-.29h-2Z" transform="translate(-0.54 -1.17)"/>
    <path d="M136.33,21.61V15.16H141v.76h-3.81v2h3.56v.76h-3.56v2.19h4v.76Z" transform="translate(-0.54 -1.17)"/>
    <path d="M146.29,21.61V15.92h-2.12v-.76h5.11v.76h-2.13v5.68Z" transform="translate(-0.54 -1.17)"/>
    <path d="M150.16,21.61V15.16h4.66v.76H151v2h3.56v.76H151v2.19h4v.76Z" transform="translate(-0.54 -1.17)"/>
    <path d="M155.86,19.54l.8-.07a1.76,1.76,0,0,0,.27.79,1.45,1.45,0,0,0,.65.5,2.46,2.46,0,0,0,1,.19,2.37,2.37,0,0,0,.86-.15,1.19,1.19,0,0,0,.56-.4.92.92,0,0,0,.18-.55.84.84,0,0,0-.18-.53,1.3,1.3,0,0,0-.58-.38,11.23,11.23,0,0,0-1.15-.31,5.87,5.87,0,0,1-1.24-.4,1.74,1.74,0,0,1-.69-.6,1.47,1.47,0,0,1-.23-.8,1.63,1.63,0,0,1,.28-.91,1.7,1.7,0,0,1,.81-.64,3.06,3.06,0,0,1,1.18-.22,3.22,3.22,0,0,1,1.26.23,1.83,1.83,0,0,1,.84.68,2,2,0,0,1,.32,1L160,17a1.32,1.32,0,0,0-.45-.92,1.74,1.74,0,0,0-1.12-.31,1.8,1.8,0,0,0-1.13.28.85.85,0,0,0-.35.68.73.73,0,0,0,.25.57,3.39,3.39,0,0,0,1.29.46,8.52,8.52,0,0,1,1.43.41,2,2,0,0,1,.83.66,1.6,1.6,0,0,1,.27.92,1.75,1.75,0,0,1-.29,1,1.94,1.94,0,0,1-.85.71,3,3,0,0,1-1.24.25,3.72,3.72,0,0,1-1.46-.25,2.05,2.05,0,0,1-.93-.77A2.18,2.18,0,0,1,155.86,19.54Z" transform="translate(-0.54 -1.17)"/>
    <path d="M163.79,21.61V15.92h-2.12v-.76h5.11v.76h-2.13v5.68Z" transform="translate(-0.54 -1.17)"/>
    <path d="M170,21.61V15.16h2.43a5.87,5.87,0,0,1,1,.06,2,2,0,0,1,.8.3,1.59,1.59,0,0,1,.52.62,2.1,2.1,0,0,1-.33,2.27,2.51,2.51,0,0,1-1.89.57h-1.65v2.62Zm.85-3.38h1.67a1.76,1.76,0,0,0,1.17-.31,1.09,1.09,0,0,0,.35-.87,1.16,1.16,0,0,0-.2-.69,1,1,0,0,0-.54-.38,3.65,3.65,0,0,0-.79-.06h-1.65Z" transform="translate(-0.54 -1.17)"/>
    <path d="M175.73,18.47a3.5,3.5,0,0,1,.86-2.51,2.93,2.93,0,0,1,2.22-.91,3.1,3.1,0,0,1,1.61.43,2.8,2.8,0,0,1,1.09,1.19,3.87,3.87,0,0,1,.38,1.73,3.79,3.79,0,0,1-.39,1.75,2.7,2.7,0,0,1-1.12,1.17,3.2,3.2,0,0,1-1.56.4,3,3,0,0,1-1.63-.44,2.82,2.82,0,0,1-1.08-1.2A3.64,3.64,0,0,1,175.73,18.47Zm.88,0a2.58,2.58,0,0,0,.63,1.83,2.18,2.18,0,0,0,3.16,0,2.74,2.74,0,0,0,.62-1.92,3.29,3.29,0,0,0-.27-1.37,2,2,0,0,0-.78-.91,2.11,2.11,0,0,0-1.15-.32,2.18,2.18,0,0,0-1.56.62A2.78,2.78,0,0,0,176.61,18.48Z" transform="translate(-0.54 -1.17)"/>
    <path d="M183,21.61V15.16h2.86a3.79,3.79,0,0,1,1.31.17,1.43,1.43,0,0,1,.72.61,1.83,1.83,0,0,1,.27,1,1.62,1.62,0,0,1-.44,1.16,2.24,2.24,0,0,1-1.37.6,2.24,2.24,0,0,1,.51.32,4.46,4.46,0,0,1,.71.86l1.12,1.75h-1.07l-.85-1.34q-.37-.58-.62-.89a2,2,0,0,0-.43-.43,1.27,1.27,0,0,0-.39-.17,2.55,2.55,0,0,0-.47,0h-1v2.86Zm.85-3.6h1.83a2.76,2.76,0,0,0,.91-.12,1,1,0,0,0,.5-.39,1,1,0,0,0,.17-.58,1,1,0,0,0-.33-.75,1.55,1.55,0,0,0-1-.29h-2Z" transform="translate(-0.54 -1.17)"/>
    <path d="M191,21.61V15.92h-2.12v-.76H194v.76h-2.13v5.68Z" transform="translate(-0.54 -1.17)"/>
  </g>
  <path class="cls-2" d="M230.49,115.34" transform="translate(-0.54 -1.17)"/>
  <g>
    <line class="cls-2" x1="125.41" y1="24.95" x2="107.64" y2="93.94"/>
    <path d="M108.79,98.93a64.65,64.65,0,0,1,3.68-5.33l-7.33-1.89a59.31,59.31,0,0,1,.65,6.45,44.48,44.48,0,0,1-.15,6.8A44.34,44.34,0,0,1,108.79,98.93Z" transform="translate(-0.54 -1.17)"/>
  </g>
  <g>
    <line class="cls-2" x1="30.14" y1="42.86" x2="63.29" y2="94.39"/>
    <path d="M67,97.7c-.71-2.49-1-4.22-1.41-6.33l-6.36,4.09a59.23,59.23,0,0,1,5.17,3.9,44.37,44.37,0,0,1,4.88,4.73A44.39,44.39,0,0,1,67,97.7Z" transform="translate(-0.54 -1.17)"/>
  </g>
</svg>
