<svg id="Layer_1" data-name="Layer 1" xmlns="http://www.w3.org/2000/svg" viewBox="0 0 232.51 111.06"><title>junction_box_and_wiring</title><path d="M125.65,22.27l-.1-.1v-.59l-.1,0v-.29h0v-.29h-.1v-.1m-7.83,4.06-.39.29m0,0v.1h.1v.1l.1.1v0h.1v.1h.1v.1h.1v.1h.1v.1h.05V26h.1v.1h.1v.1h.1m3.33.54v.44m0,0v-.1H122v0h.29l0-.1h.2l.1-.1M120.7,18.4v-.49H120V18h-.34l-.1.1h-.2l-.1.1m5.53,6.27.39.2m0,0v-.2l.1-.1v-.2l.1-.1v-.15l0-.1v-.29l.1-.1v-.29m-3.87-5.24-.1.49m1.52,0-.1-.1h-.1l-.1-.1h-.2l-.1-.1h-.2l0-.1H122l-.1-.1h-.29m3,2.3.34-.25m0,0-.1-.1v-.1h-.1v-.1l0-.1h-.1v-.1l-.19-.2-.1,0v-.1h-.1l-.2-.2h-.1v-.1m-7.24,5.43.44-.1m-.74-1.27V23c0,.83.12.39.1.83v.1h.1v.24h.1m3.67,3,.1-.44m-1.47,0h.1l.1.1h.1l.05.1h.2l.1.1h.29l.1,0h.34m3.33-.64v-.1h.1v-.1h.1l.25-.25h.1v-.1h.1v-.1h.1v-.1l.1-.1h.1v-.1l.1,0-.29-.29m-7-5.53.29.29m.74-1.32h-.19v.1h-.1l-.2.2h-.1V19l-.1.1-.05.1h-.1v0h-.1v.1h-.1v.1l-.1.1m-.1,1.13-.34-.2m0,0h-.1v.1l-.1.1v.15h-.1V21l-.1.1v.29l-.1.1v.34m6.9,5h-.1c-1.48,0-3.24-.09-4.7-.2h0m.34-8.37h.1c1.55,0,3.11.12,4.7.15h.1M125,22.71l-.1-1.17-.44-1.13c-1.9-2.62-5.22-2.58-7,.29L117,21.78V23a4.08,4.08,0,0,0,7.29,2l.54-1.08Zm-1.37-4.26v.1l.1.1.15.39.59,1,.74,1.52.24.44.2.44.1.2.1.1v.1l-.1.2-.2.25-.64,1L124,25.65l-.24.49-.29.44-.1.1-.1.2m-4.85-.2v-.1l-.1-.1-.2-.34-.54-1-.73-1.47-.29-.49-.2-.44-.1-.2-.1-.1v0l.1-.2.19-.29.64-1,.93-1.37.29-.44.24-.49.1-.1.1-.15M171.32,43v25m2.89-25.21v25.5M178,42.78v6.56m0,0v18.9M82.92,58.44V86.1m27.9-27.66H82.92m82.87,0H131.28m0,27.66h34.51m-65.35,0h10.38m-14.15,0h3.28m-17,0h3.52m4.11-23.94h.1m-.24-.59v-2.2m0,0h.15v2.79M87.91,80.32l-.49,1-.24-.1.54-1M71.41,68.77v1.57m0,0v.2m0-.2h-4.5m4.5-30v.2m0,0v1.57m0-1.57h-4.5m4.5,1.57v1m0-1h-4.5m4.5,25.65v1m0,0h-4.5m4.5-25.6v4.6m0-1h-4.5m4.5-3.57h-4.5m4.5,20v1m0,0v3.62m0,0h-4.5m4.5-3.62h-4.5M71.41,58v5.14m0,0h-4.5m4.5-15.37V53m0-5.24h-4.5M71.41,53v5h-4.5m4.5-5h-4.5m-5.24-7.64h.54m-.54,20.17h.54m0-1.91h-.54m0-16.3h.54m10.57-3V66.67m-9.4-23.89V68.23M62.21,42.78V68.23m-.54-25.7v.64m0,24.62v.73m-11.06,0v-26l.2-1.47c1.38-5.38,9.2-5.41,10.57,0l.3,1.47m0,26h-.1v.88h-.1v.49l-.1.1v.15h-.1v.2l-.1.1v.2l-.1.1v.1l0,.1v0l-.1.1v.1l-.1.1v.1l-.19.19v.1l-.1,0-.2.2V72h-.1v.1h0v.1h-.1v.1H60v.1h-.1v.1h-.1v0h-.1v.1h-.1v.1h-.1l0,.1-.2.2h-.1l-.19.2h-.1l-.1,0h-.1l0,.1h-.1l-.1.1h-.1l-.1.1H58l-.1.1H57.8v.1h-.2l-.1.1h-.44V74h-.93l-.1.1V74h-.93v-.1h-.44l-.1-.1h-.2v-.1h-.19l-.1-.1h-.15l-.1-.1h-.1l-.1-.1h-.1l-.1-.1h-.1l-.1,0h0L53,73h-.1l-.29-.29h-.1v-.1h0v-.1h-.1v0h-.1v-.1h-.1v-.1h-.1v-.1H52v-.1h-.1V72h-.1v-.1l-.1-.1,0-.1-.1,0v-.1l-.2-.19v-.1l-.1-.1v-.1l-.1-.1v0l-.1-.1v-.1l-.1-.1v-.2l0-.1v-.2h-.1V70l-.1-.1v-.49h-.1v-.88h-.1m10-25.35h1.13V67.79H60.55m0-24.62V67.79m-7.93,0h-.1v.54l0,.1v.24l0,.1v.59l.1,0m6.9,0v-.64h.1v-.44h-.1v-.54m-5.68,1.62h4.5m0-1.62h-4.5m5.68,1.62-.44,1.13-.73.93L57.22,72l-1.08.2L54.92,72l-1.08-.54-.73-.93-.49-1.12h1.22v.2h.1v.2H54v.1l.05.1v.1h.1v0h.1v.1h.1v.1h.1v.1h.1v.1h.2v.1h0v.1H55v.1h.2l.1.1h.29v0h1v0H57v-.1h.15v-.1h.19v-.1h.1l.1-.1h.1v-.1h.1v-.1h.1v-.1h.1v-.1h0v0H58v-.2h.1v-.1h.1v-.2h.1v-.2h1.17m0-1.62H58.34m-4.5,0H52.62m0,0,.49-1.13.73-.93,1.08-.54,1.22-.2,1.08.2,1.13.54.73.93.44,1.13m-1.17,0-.1-.1v-.2h-.1v-.1l-.1-.1v-.1h-.1v-.1l0-.1v0h-.1v-.1h-.1v-.1h-.1l-.1-.1h-.1v-.1h-.1v-.1h-.19v-.1H57l-.1-.1h-.29v0h-1v0h-.29l-.1.1H55v.1h-.1l-.1.1h0v.1h-.1l-.1.1h-.1v.1h-.1V67h-.1v0l-.1.1v.1h-.1v.1H54v.2h-.1v.2l-.1.1M52.62,41.51h-.1v.2a1.68,1.68,0,0,1,0,.54v.2l0,.1v.54l.1.1m6.9,0v-.64h.1V42h-.1v-.54m-5.68,1.66h4.5m0-1.66h-4.5m5.68,1.66-.44,1.13-.73.88-1.13.59-1.08.15-1.22-.15-1.08-.59-.73-.88-.49-1.13h1.22v.2h.1v.15H54v.1l.05.1v.1h.1v.1h.1V44h.1v.1h.1v.1h.1v.1h.2v0h0v.1H55v.1h.2l.1.1h.29v.1h1v-.1H57v-.1h.15v-.1h.19v-.1h.1l.1,0h.1v-.1h.1v-.1h.1V44h.1v-.1h0v-.1H58v-.2h.1v-.1h.1v-.15h.1v-.2h1.17m-1.17-1.66-.1-.1v-.2h-.1v0l-.1-.1V41h-.1v-.1l0-.1v-.1h-.1v-.1h-.1v-.1h-.1l-.1-.1h-.1v0h-.1v-.1h-.19v-.1H57l-.1-.1h-.29v-.1h-1V40h-.29l-.1.1H55v.1h-.1l-.1.1h0v0h-.1l-.1.1h-.1v.1h-.1v.1h-.1v.1l-.1.1V41h-.1v.1H54v.15h-.1v.2l-.1.1H52.62l.49-1.13.73-.88,1.08-.59,1.22-.15,1.08.15,1.13.59.73.88.44,1.13H58.34M183.75,55.7h-2.2m2.2-1.66h-2.2m2.2.73h-2.2m2.2,1.27h-2.2m0-1.17h-.29m2.79,0h-.3m.3,14V57.61m0-5.34V41.95m0,15.66v-.25l.1-.2.19-.1.25-.1m-3.87,0,.39.2.1.2,0,.25m0-15.66V52.13m0,5.48V68.87M184.87,57V52.67m-.39-.39.39.39M184.48,57l.2.1.19-.1m-4.41-4.31V57m.25,0-.2.1,0-.1m.25-4.7-.2.2,0,.2m.73.24v3.33m0,0H184V52.91m.44,4.06v-4.7m0,0h-3.77m0,0V57m0,0h3.77M184,52.91H181.2M98.68,81.79h-7m1.57-.29h5.43m0,1.27H93.24m-1.66-.25h.1m-.1,0h7.1m0,10.87h-7m1.57-.29h5.43m0,1.32H93.24m-1.66-.29h7.1m-7.1,0h.1m7.93,2.1v7.39h-.1v.44h-.1v.2h-.1v.1l-.1.1v.1h-.1v0H99l0,.1h-.1v.1h-.19v.1h-.44v.1H91.68M99.41,90.7v-.34h.1v-.2h.1v-.1l.1-.1v-.1h.1v-.1h0v0h.1v-.1h.2v-.1h.19v-.1h.25l.1-.1h1.22v.29h-1.47v.1h-.19v0h-.1l-.1.1h-.1V90h-.1v.1l0,.1v.1h-.1v.2h-.1v.15m-6.36,14.1h5v-.1h.34v0h.19v-.1h.1v-.1H99v-.1h0v-.1h.1V104h.1v-.34h.1V96.23M98.24,70.93h.44v0h.19v.1H99l0,.1h.1v.1h.1v.1l.1.1v.1h.1v.15h.1v.49l.1.1m-.3,0-.1-.1v-.39h-.1v-.15H99v-.1h0v-.1h-.1v-.1h-.1v-.1h-.19v-.1h-.34m-6.66-.24h.1m7.63,8.71V72.3m-7.73-1.37h6.66M99.7,85.17v.19h.1v.2h0v.1h.1v.1h.1v0h.1v.1h.2V86h.19l.05.1H101M98.24,71.17h-5m7.73,15h.93v.29H101l-.1-.1h-.44l-.1-.1h-.19v-.1H100l-.1-.1h-.1V86h0v-.1h-.1v-.1h-.1v0l-.1-.1v-.1h-.1v-.2l-.1-.1v-.1m.3-12.87v7.34m-.93,5.53V79.64m8.13,4.45V80.67m-2.15,4.5V79.64m-6,11.06v5.53m8.13-4.5v3.43m-2.15-4.45v5.53M91.58,72.3l-1.18.2L89.28,73l-.93.73-.54,1.08-.29,1.22.1,1.17.49,1.13.73.93,1,.74,1.12.29h1.18A4,4,0,0,0,93.88,73l-1.08-.54Zm0,9.5-.1-.1h-.93l0-.1h-.39v-.1h-.29l-.1-.1h-.15v-.1h-.2v-.1h-.19l-.1-.1H89l0,0h-.1V81h-.1l-.1-.1h-.1l-.19-.2h-.1v-.1H88.2l-.19-.2h-.1v0h-.1v-.1h-.1v-.1h-.1V80h-.1v-.1h-.1v-.1l0-.1-.1-.1v-.1h-.1v0l-.2-.2v-.1l-.1-.1V79h-.1v-.1l-.1-.1v0l-.05-.1v-.2h-.1v-.2h-.1v-.2l-.1-.1v-.25h-.1v-.39l-.1-.1V75.33l.1-.1v-.39h.1V74.6l.1-.1v-.2h.1v-.2h.1V74l.05-.1v-.1l.1-.1v-.1h.1v-.1l.1-.1v-.1l.1,0,.1-.1V73h.1v-.1l.1-.1,0-.1v-.1h.1v-.1h.1v0h.1v-.1h.1v-.1h.1v-.1H88l.19-.2h.05v-.1h.1l.19-.2h.1l.1,0h.1v-.1h.1l0-.1h.1l.1-.1h.19v-.1h.2v-.1h.15l.1-.1h.29V71h.19c.47,0,0-.07.44,0h.83m1.66.24h.19l.1.1h0l.1.1h.19l.1.1h.1v.1h.2v.1h.1l0,0h.1v.1h.1l.1.1h.1V72h.1v.1H95c.41.56.63.45,1,1.13l.1,0v.1l.1.1v.1l.1.1v.1l.1.1V74l.1.1v0l.1.1v.2h.1v.2l0,.1v.25h.1v.49h.1v1.76l-.1,0v.29l-.1.1V78h0v.2l-.1.1v.1l-.1.1v.2l-.1.1v0h-.1V79h-.1v.1l-.1.1v.1H96v.1l0,.1v0h-.1v.1h-.1v.1l-.64.64c-.45.49,0-.09-.49.39l-.1.1h-.1l0,.1h-.1l-.1.1h-.1l-.1,0h-.1l-.1.1h-.1l-.1.1h-.15v.1h-.19v.1m-1.66,14-1.18.2-1.12.44-.93.83-.54,1.12-.29,1.08.1,1.22.49,1.18.73.93,1,.64,1.12.39h1.18c3.83-.66,4.73-5,1.76-7.39l-1.08-.44Zm1.66,9.2v-.1h.19l.1,0h0l.1-.1h.19l.1-.1h.1v-.1h.2v-.1h.1l0-.1h.1V104h.1l.1-.1h.1v0h.1v-.1H95l.1-.1,0-.1.49-.49.1-.05.1-.09v-.1l.1-.1,0-.1.1-.1v-.1l.1-.1v0l.1-.1v-.1l.1-.1v-.1l.1-.1v-.1l.1-.1v-.15h.1v-.2l0-.1v-.29h.1v-.44h.1V98.63l-.1-.1v-.24l-.1-.1V97.9l0-.1v-.2l-.1,0v-.1l-.1-.1v-.2l-.1-.1V97h-.1v-.2h-.1v0l-.1-.1v-.1H96v-.1l0-.1v-.1h-.1v-.1h-.1V96l-.1,0-.49-.49,0-.1-.2-.2h-.1l-.1,0-.19-.2h-.1l0-.1h-.1l-.1-.1h-.1l-.1-.1h-.1l-.1-.1h-.1l-.1-.1h-.15v0h-.19m-1.66-.29h-1l0,.1h-.39v.1h-.29l-.1.1h-.15v0h-.2v.1h-.19l-.1.1H89l0,.1h-.1v.1h-.1l-.1.1h-.1l-.19.2h-.1v0H88.2l-.19.2h-.1v.1h-.1v.1h-.1v.1h-.1v.1h-.1v.1h-.1V96l-.15.15v.1h-.1v.1l-.2.2v.1l-.1.1v0h-.1v.1l-.1.1v.1l-.05.1v.2h-.1v.2h-.1v.15l-.1.1v.29h-.1v.34l-.1.09v2l.1.1v.34h.1v.29l.1.1v.15h.1v.2h.1v.2l.05.1v.1l.1.1v.1h.1v0l.1.1v.1l.2.2v.1h.1v.1l.1.09,0,.05v.1h.1v.1h.1v.1h.1v.1h.1v.1h.1v.1H88l.19.2h.05v0h.1l.19.2h.1l.1.1h.1v.1h.1l0,.1h.1l.1.1h.19v.1h.2v0h.15l.1.1h.29v.1h.39l0,.1h.93l.1.1m0-21.1-1.18.2-1.12.44-.93.83-.54,1.13-.29,1.08.1,1.32L88.1,90l.73.93,1,.63,1.12.39h1.18c3.84-.67,4.73-5,1.76-7.39l-1.08-.44Zm1.66,9.2V93h.19l.1-.1h0l.1,0h.19l.1-.1h.1v-.1h.2v-.1h.1l0-.1h.1v-.1h.1l.1-.1h.1v-.1h.1v-.1H95l.1,0,0-.1.59-.59.1,0v-.1l.1-.1,0-.1.1-.1v-.1l.1-.1v-.1l.1-.1v0l.1-.1v-.1l.1-.1v-.1l.1-.1v-.2h.1v-.15l0-.1v-.29h.1v-.44h.1V87l-.1-.1v-.29l-.1,0v-.29l0-.1V86l-.1-.1v-.1l-.1,0v-.2l-.1-.1v-.1h-.1v-.19h-.1v-.1l-.1,0v-.1H96v-.1l0-.1v-.1h-.1v-.1h-.1v-.1l-.2-.2-.1,0-.29-.29,0-.1-.2-.19h-.1l-.1-.1-.1,0-.1-.1h-.1l0-.1h-.1l-.1-.1h-.1l-.1-.1h-.1l-.1-.1h-.1l-.1-.1h-.15v-.1h-.19m-1.66-.25h-1l0,.1h-.39v0h-.29l-.1.1h-.15v.1h-.2V83h-.19l-.1.1H89l0,.1h-.1v.1h-.1l-.1.1h-.1l-.1.1-.1,0h-.1v.1H88.2L88,83.8h-.1v.1h-.1V84h-.1v.1h-.1v.1h-.1v0h-.1v.1l0,.1-.1.1v.1h-.1v.1l-.2.2V85l-.1,0v.1h-.1v.1l-.1.1v.1l-.05.1v.2h-.1v.15h-.1v.2l-.1.1v.29h-.1v.34l-.1.1v2l.1,0v.39h.1v.29l.1.1v.15h.1v.19h.1v.2l.05.1v.1l.1,0v.1h.1v.1l.1.1v.1l.2.19v.1h.1v.1l.1,0,0,.1v.1h.1v.1h.1v.1h.1v.1h.1v.1h.1V92H88l.1,0,.1.1h.05v.1h.1l.19.2h.1l.1.1h.1v.1h.1l0,.1h.1l.1.1h.19v0h.2V93h.15l.1.1h.29v.1h.39l0,.1h.93l.1.1m82.77-25.16v40.63m0-94.81V42.73M67.64,40.38V2.06m0,94.91V70.53m106.71,38.33H79.63M67.64,2.06H162.5m-10,26.48V24.91m0,10.43V31.77m-11-3.23V24.91m0,10.43V31.77m36.17,36.76V49.24m0,0V42.54m-6.36,25.41h2.89m0-25h-2.89m2.89,25.26h1m0-25.5h-1m3.77,0-.1,0v-.2h-.19m-1.37,26h1.37v-.1h.19v-.2h.1m-.29-25.7h-1.37m-109.4,28h4.5m0-30.15h-4.5M65.78,44.3h-2.4m9.4,0H71.41m0,22.37h1.37m-9.4,0h2.4m-2.4-23.89H62.21m0,25.45h1.17M180.52,57.07h4.16M184,41.95h-2.79m0,27H184m-73.23,11.7h-4m0,3.43h4m-11.5-4.45h-.64m6,0h-5m.1,5.53h4.94m-6,0h.73m7.39-4.5-2.15-1m0,5.53,2.15-1.08m4,7.64h-4m0,3.43h4M99.41,90.7h-.73m6,0H99.7m-.1,5.53h5m-6,0h.64m7.49-4.5-2.15-1m0,5.53,2.15-1.08" transform="translate(-0.34)" style="fill:none;stroke:#000;stroke-linecap:round;stroke-linejoin:round;stroke-width:0.488px"/><path d="M133.19,16.25V43.91m0,0h27.66m0,0V16.25m0,0H133.19M147,24.38l-1.47.2-1.32.54a5.72,5.72,0,0,0,.64,10.33l1.42.34h1.37a5.7,5.7,0,0,0,2-10.67l-1.27-.54Zm2.11,5.73.64-.69M147,30.1l-.73.64m2.84-.64.64.64m-.64-.64H147m0,0,.64-.69M147,32.31l-.73.64m.73-.64V30.1l.64.64M147,32.31l.64.64m-.64-5,.64-.64m-.64.64V30.1m0-2.15-.73-.64m-1.47,2.79-.69.64m.69-.64-.69-.69m.69.69H147m0,0-.73-.69m1.37-2.1v2.1m0,0h2.1m0,0v1.32m0,0h-2.1m0,0v2.2m0,0H146.3m0,0v-2.2m0,0h-2.15m0,0V29.42m0,0h2.15m0,0v-2.1m0,0h1.37M147,33.87l-1.22-.2-1.08-.54-.83-.83-.49-1-.15-1.17.15-1.13.49-1.13.83-.78,1.08-.59,1.22-.2,1.08.2,1.13.59.83.78.44,1.13.2,1.13-.2,1.17-.44,1-.83.83-1.13.54Zm-3.77-1.57,0,.1,1.12,2H147m-3.77-2.1v.1h0v.1l.1,0v.1h.1v.1l.39.39v.1h.1l0,.1.1,0,.1.1h.1v.1h.1l.1.1h.1v.1h.1l.1.1h0l.1.1h.1l.1.1h.1l.1,0h.2l0,.1h.19l.1.1h.39l.1.1H147m0,0h2.45m0,0,1.22-2.1M147,34.41v-.1h.83v-.1h.34v-.1h.29v0h.2l0-.1h.1l.1-.1h.1l.1-.1h.1l.1-.1h.1v-.1h0v-.1h.1l.1-.1.1,0h.1v-.1h.1v-.1h.1V33h.1v-.1h.1v-.1l.05-.1.1-.1v-.1h.1v0h.1v-.1l.1-.1m0,0v-.2h.1v-.2l.1-.1v0l.1-.1v-.2h0v-.29l.1-.1v-.34h.1V29.37h-.1V29l-.1-.1v-.25h0v-.2l-.1-.1v-.1l-.1-.1V28l-.1-.1v-.1m0,4.46.1-.2,1.17-2m0,0-1.27-2.15m-7.44,0-.1.2-1.22,2m0,0,1.32,2.2m0-4.36h-.1V28l-.1.1v.1l-.1.1v.2h-.1v.15l-.1.1v.29l-.1.1v.73l-.1.1v.1l.1.1v.73h.1v.34h.1v.29h.1v.2l.1,0v.1l.1.1v.1l.1.1m7.44-4.26-.1-.1v0h-.1v-.1l-.1-.1v-.1h-.1v-.1l-.05-.1-.19-.2v0H150V27h-.1v-.1h-.1l-.2-.2h-.1v-.1h0l-.1-.1h-.1v-.1h-.1l-.1-.1h-.1l-.1,0h-.1l0-.1h-.2V26h-.2l-.1-.1h-.29l0-.1h-.59v-.1H147m3.67,2.2-.1-.15-1.13-2.06m0,0H147m0,0h-.93v.1h-.39v.1h-.24V26h-.2l-.1.1h-.1l-.1.1h-.1l0,0h-.1l-.1.1h-.1v.1h-.1v.1h-.1l-.2.2h-.1v.1h0V27h-.1v.1h-.1v0h-.1v.1l-.19.2v.1h-.1v.1h-.1v.1l0,.1v.15m3.77-2.2h-2.59m0,0-1.17,2.2m6.17-3h3m-11,0h3m4.89,10.43h3m-11,0h3m7.93-10.43H153m-.54,10.43H153M140.92,24.91h.59m-.59,10.43h.59m-1.76,0V24.91h1.17m-1.17,10.43h1.17m0,0V24.91m12.09,0h1.18m0,10.43V24.91M153,35.34V24.91m0,10.43h1.18M117.38,86.2h-6.56m20.46,0h-6.61m.64,4.06h6m-7.64-11h7.64v6.9m-7.64-6.9v-4m0-6.9h7.64v6.9h-7.64m0-6.9V64.37m0-6.9h7.64v6.9h-7.64m0-6.9V53.4m0-6.9h7.64v6.9h-7.64m0-6.9V42.44m0-6.9h7.64v6.9h-7.64m0-6.9V31.47m1.57-6.9h6.07v6.9h-7.64m-6.8-10.87h-6V13.7h20.46v6.9h-6.56M118.4,31.47h-7.59v-6.9h6.46m1.13,6.9v4.06m0,6.9h-7.59v-6.9h7.59m0,6.9V46.5m0,6.9h-7.59V46.5h7.59m0,6.9v4.06m0,6.9h-7.59v-6.9h7.59m0,6.9v4.06m0,6.9h-7.59v-6.9h7.59m0,6.9v4m-7.59,6.9V79.3h7.59m12.87,11v6.9H110.82v-6.9h6.36m2.2-12.92.1.59.39.54.54.34.64.2.54-.2.59-.34.34-.54.2-.59-.2-.64-.34-.54-.59-.39-.54-.1-.64.1-.54.39-.39.54Zm0-11,.1.63.39.49.54.34.64.2.54-.2.59-.34.34-.49.2-.63-.2-.64-.34-.54-.59-.39-.54-.1-.64.1-.54.39-.39.54Zm0-11,.1.64.39.59.54.34.64.1.54-.1.59-.34.34-.59.2-.64-.2-.64-.34-.54-.59-.39-.54-.1-.64.1-.54.39-.39.54Zm0-11,.1.64.39.59.54.34.64.1.54-.1.59-.34.34-.59.2-.64-.2-.64-.34-.54-.59-.39-.54-.1-.64.1-.54.39-.39.54Zm0-11,.1.64.39.59.54.34.64.1.54-.1.59-.34.34-.59.2-.64-.2-.64c-.71-1-1.65-1.44-2.64-.44l-.39.44ZM115,61h3.47M115,72h3.47M115,83h3.47M115,50.17h3.47m-3.47-11h3.47M115,17.28h3.47m-3.47,11h3.47m5.09,11H127M123.54,61H127m-3.47-43.76H127m-3.47,32.89H127M123.54,83H127m-3.47-54.73H127M123.54,72H127M115,93.83h3.47m5.09,0H127m-8.57-66H115m3.47-11H115m3.47,43.81H115m3.47,11H115m3.47-21.93H115m3.47,32.89H115m3.47-43.81H115m12,0h-3.47M127,16.89h-3.47m3.47,11h-3.47M127,71.66h-3.47M127,49.73h-3.47m3.47,11h-3.47M127,82.62h-3.47m-5.09,10.87H115m12,0h-3.47M115,17.08l.1.73.34.59.69.34.64.2.64-.2.64-.34.39-.59.15-.73-.15-.64-.39-.64-.64-.39-.64-.1-.64.1-.69.39-.34.64Zm-.3,0,.1.83.49.64a2,2,0,0,0,3.38-.64l.2-.83-.2-.73-.44-.73-.64-.44-.83-.1-.83.1-.63.44-.49.73ZM115,39l.1.64.34.69.69.34.64.1.64-.1.64-.34.39-.69.15-.64-.15-.73a1.87,1.87,0,0,0-3-.54l-.34.54Zm-.3,0,.1.73.49.73.63.49.83.1.83-.1.64-.49.44-.73.2-.73-.2-.83a2.06,2.06,0,0,0-3.38-.64l-.49.64Zm.3,43.76.1.69.34.64.69.34.64.1.64-.1.64-.34.39-.64.15-.69L118.4,82a1.86,1.86,0,0,0-3-.54l-.34.54Zm-.3,0,.1.83.49.64.63.49.83.1.83-.1.64-.49.44-.64.2-.83-.2-.83a2.06,2.06,0,0,0-3.38-.64l-.49.64Zm8.57,0,.1.83.49.64.64.49.83.1.83-.1.64-.49.44-.64.2-.83-.2-.83a2.06,2.06,0,0,0-3.38-.64l-.49.64Zm.29,0,.1.69.34.64.68.34.64.1.64-.1.64-.34.39-.64.15-.69L127,82a1.86,1.86,0,0,0-3-.54l-.34.54Zm0-43.76.1.64.34.69.68.34.64.1.64-.1.64-.34.39-.69.15-.64-.15-.73a1.87,1.87,0,0,0-3-.54l-.34.54Zm-.29,0,.1.73.49.73.64.49.83.1.83-.1.64-.49.44-.73.2-.73-.2-.83a2.06,2.06,0,0,0-3.38-.64l-.49.64Zm.29,11,.1.64.34.59.68.44.64.1.64-.1.64-.44.39-.59.15-.64-.15-.73-.39-.54-.64-.49-.64,0-.64,0-.68.49-.34.54Zm-.29,0,.1.73.49.64a2,2,0,0,0,3.38-.64l.2-.73-.2-.83a2.06,2.06,0,0,0-3.38-.64l-.49.64ZM115,60.84l.1.74.34.59.69.34.64.2.64-.2.64-.34.39-.59.15-.74-.15-.63-.39-.54-.64-.49-.64,0-.64,0-.69.49-.34.54Zm-.3,0,.1.83.49.63a2,2,0,0,0,3.38-.63l.2-.83-.2-.73-.44-.74-.64-.34-.83-.2-.83.2-.63.34-.49.74ZM115,50l.1.64.34.59.69.44.64.1.64-.1.64-.44.39-.59.15-.64-.15-.73L118,48.7l-.64-.49-.64,0-.64,0-.69.49-.34.54Zm-.3,0,.1.73.49.64a2,2,0,0,0,3.38-.64l.2-.73-.2-.83a2.06,2.06,0,0,0-3.38-.64l-.49.64Zm.3,43.66.1.78.34.54a1.9,1.9,0,0,0,3-.54l.15-.78L118.4,93l-.39-.63-.64-.34-.64-.1-.64.1-.69.34-.34.63Zm-.3,0,.1.83.49.69.63.44.83.2.83-.2.64-.44.44-.69.2-.83-.2-.74-.44-.73-.64-.44-.83-.1-.83.1-.63.44-.49.73Zm8.86-32.8.1.74.34.59.68.34.64.2.64-.2.64-.34.39-.59.15-.74-.15-.63-.39-.54-.64-.49-.64,0-.64,0-.68.49-.34.54Zm-.29,0,.1.83.49.63a2,2,0,0,0,3.38-.63l.2-.83-.2-.73-.44-.74-.64-.34-.83-.2-.83.2-.64.34-.49.74Zm0-43.76.1.83.49.64a2,2,0,0,0,3.38-.64l.2-.83-.2-.73-.44-.73-.64-.44-.83-.1-.83.1-.64.44-.49.73Zm.29,0,.1.73.34.59.68.34.64.2.64-.2.64-.34.39-.59.15-.73-.15-.64-.39-.64-.64-.39-.64-.1-.64.1-.68.39-.34.64Zm-.29,11,.1.83.49.64.64.49.83.1.83-.1.64-.49.44-.64.2-.83-.2-.83a2.06,2.06,0,0,0-3.38-.64l-.49.64Zm.29,0,.1.64.34.68.68.34.64.1.64-.1.64-.34.39-.68.15-.64-.15-.73a1.87,1.87,0,0,0-3-.54l-.34.54Zm0,65.59.1.78L124,95a1.9,1.9,0,0,0,3-.54l.15-.78L127,93l-.39-.63-.64-.34-.64-.1-.64.1-.68.34-.34.63Zm-.29,0,.1.83.49.69.64.44.83.2.83-.2.64-.44.44-.69.2-.83-.2-.74-.44-.73-.64-.44-.83-.1-.83.1-.64.44-.49.73ZM115,71.81l.1.73.34.59.69.34.64.2.64-.2.64-.34.39-.59.15-.73-.15-.64-.39-.64-.64-.39-.64,0-.64,0-.69.39-.34.64Zm-.3,0,.1.83.49.64a2,2,0,0,0,3.38-.64l.2-.83-.2-.73-.44-.73-.64-.44-.83-.1-.83.1-.63.44-.49.73Zm0-43.76.1.83.49.64.63.49.83.1.83-.1.64-.49.44-.64.2-.83-.2-.83a2.06,2.06,0,0,0-3.38-.64l-.49.64Zm.3,0,.1.64.34.68.69.34.64.1.64-.1.64-.34.39-.68.15-.64-.15-.73a1.87,1.87,0,0,0-3-.54l-.34.54Zm8.57,43.76.1.73.34.59.68.34.64.2.64-.2.64-.34.39-.59.15-.73-.15-.64-.39-.64-.64-.39-.64,0-.64,0-.68.39-.34.64Zm-.29,0,.1.83.49.64a2,2,0,0,0,3.38-.64l.2-.83-.2-.73-.44-.73-.64-.44-.83-.1-.83.1-.64.44-.49.73ZM122,23.74h-.2v.1h-.2v.1h-.15v0h-.83v0h-.2l-.1-.1h-.1v-.1h-.1l-.1-.1,0-.1-.1-.1v-.1h-.1v-.2h-.1V23h-.1v-.83h.1V22l.1-.1v-.1h.1v-.1l.14-.15h.1v-.1h.1v-.1h.2v-.1h.2v-.1h.83v.1h.15l.1.1h.1v.1h.1l.1.1.1,0,.1.1v.1h.1V22h0v.2h.1V23h-.1v.15l0,.1v.1h-.1v.1l-.29.29m.39.25-.69.39-.73.1-.74-.2-.54-.44-.34-.69-.1-.73.15-.73.49-.54.64-.34.73-.1.73.15.54.49.39.64.1.73-.2.73ZM122,89.53h-.2v.1h-.2v.1h-.15v0h-.83v0h-.2l-.1-.1h-.1v-.1h-.1l-.1-.1,0-.1-.1-.1v-.1h-.1v-.2h-.1v-.15h-.1V88h.1v-.19l.1-.1v-.1h.1v-.1l.14-.15h.1v-.1h.1v-.1h.2V87h.2v-.1h.83V87h.15l.1.1h.1v.1h.1l.1.1.1,0,.1.1v.1h.1v.2h0V88h.1v.83h-.1v.15l0,.1v.1h-.1v.1l-.29.29m.39.25-.69.39-.73.1-.74-.2-.54-.44-.34-.69-.1-.73.15-.73.49-.54.64-.34.73-.1.73.15.54.49.39.64.1.73-.2.74Zm2.55.49.39.2m0,0v-.2l.1-.1V90l.1-.1v-.15l0-.1v-.29l.1-.1v-.29m-8.91,1.13.44-.1m-.74-1.27v.1c0,.83.12.39.1.83v.1h.1V90h.1m6.46-5.78-.1-.1h-.1l-.1-.1h-.2l-.1-.1h-.2l0-.1H122l-.1-.1h-.29m.1,0-.1.49m-4.41,2.3-.34-.2m0,0h-.1v.1l-.1.1v.15h-.1v.2l-.1.1v.29l-.1.1v.34M124.57,86l.34-.25m0,0-.1-.1v-.1h-.1v-.1l0-.1h-.1v-.1l-.19-.2-.1,0v-.1h-.1l-.2-.2h-.1v-.1m-6.51.83.29.29m.74-1.32h-.19v.1h-.1l-.2.2h-.1v.1l-.1.1-.05.1h-.1v0h-.1v.1h-.1v.1l-.1.1m.2,5.34-.39.29m0,0v.1h.1v.1l.1.1v0h.1v.1h.1v.1h.1v.1h.1v.1h.05v.1h.1v.1h.1V92h.1m2.3,1,.1-.44m-1.47,0h.1l.1.1h.1l.05.1h.2l.1.1h.29l.1,0h.34m3.33-.63v-.1h.1v-.1h.1l0,0,.2-.2h.1v-.1h.1v-.1h.1v-.1l.1-.1h.1v-.1l.1,0-.29-.29m1.27-2.94-.1-.1v-.59l-.1,0V87h0v-.29h-.1v-.1m.1,0-.49.1m-3.57,5.83v.34H122v0h.29l0-.1h.2l.1-.1m-1.91-8.47V83.7H120v.1h-.34l-.1.1h-.2l-.1.1M125,88.5l-.1-1.17-.44-1.12c-1.9-2.62-5.22-2.58-7,.29L117,87.57v1.22a4.08,4.08,0,0,0,7.29,2l.54-1.08Zm-6.61,4v-.1l-.1-.1-.2-.34-.54-1-.73-1.47-.29-.49-.2-.44-.1-.2-.1-.1v0l.1-.2.19-.29.64-1,.93-1.37.29-.44.24-.49.1-.1.1-.15h.1c1.55,0,3.11.12,4.7.15h.1v.1l.1.1.15.39.59,1,.74,1.52.24.44.2.44.1.2.1.1v.1l-.1.2-.2.25-.64,1L124,91.43l-.24.49-.29.44-.1.1-.1.2h-.1c-1.48,0-3.24-.09-4.7-.2h0m7-71.61-.49.1" transform="translate(-0.34)" style="fill:none;stroke:#000;stroke-linecap:round;stroke-linejoin:round;stroke-width:0.488px"/><path d="M142.68,39.84h.93l.2-.2.1-.15-.1-.2v-.1l-.1-.1h-.1l-.44-.1h-.49v.83m10.23.39-.44-1m0,0-.49,1m0,0h.93m-12.33,1.08V38.77m0,0h1.37m0,0V39m0,0h-1.17m0,0v.83m0,0h1.17m0,0V40m0,0h-1.17m0,0v1m0,0h1.17m0,0v.25m0,0h-1.37m4.16,0h-.2m0,0,.34-2.55m0,0h.1m-.1,0L146,40.87m0,0,1-2.11m0,0h.1m-.1,0,.34,2.55m0,0h-.19m0,0-.25-1.81m0,0L146,41.31m0,0h-.1m0,0L145,39.5m0,0-.25,1.81m4.21,0h-.19m0,0V38.77m0,0h.1m-.1,0,1.76,2m0,0v-2m0,0h.2m0,0v2.55m0,0h.1m-.1,0-1.76-2m0,0v2m5.09,0V38.77m0,0h.24m0,0v2.3m0,0h1m0,0v.25m0,0H154m-1.57-2.55h.1m-.1,0,1.17,2.55m0,0h-.29m0,0-.34-.83m0,0h-1.22m0,0-.34.83m0,0h-.29m0,0,1.32-2.55m-4.55,2.55V38.77m0,0h.2m0,0v2.55m0,0h-.2m-5.48,0V38.77m0,0H143m0,0h.54m0,0,.29,0,.2.2,0,.2v.29m0,0v.15l-.15.2-.2.2-.54.1m0,0,.88,1.17m0,0h-.24m0,0-.93-1.17m0,0h-.19m0,0v1.17m0,0h-.25M139.3,39h-.59m0,0v-.25m0,0h1.42m0,0V39m0,0h-.69m0,0v2.3m0,0h-.15m0,0V39m3.28-19.87V20m.49,0,.44,0,.19-.2.1-.2v-.1l-.2-.2-.1,0-.34-.1m0,0h-.59m0,.88h.49m3.87.1-.1-.44-.29-.39-.34-.15h-.39m0,0-.44.1-.49.25-.15.29v.44m0,0,.1.49.25.34.39.2h.34m0,0,.49-.1.34-.29.19-.24.1-.49m3.38,1.42h-.25m0,0V18.84m0,0h.1m0,0,1.62,2.11m0,0V18.84m0,0h.29m0,0v2.69m0,0H152m0,0-1.66-2.15m0,0v2.15m-5.87-1.32.1-.64.34-.44.49-.2.44-.1m0,0,.59.1.44.34.3.39,0,.44m0,0-.15.68-.39.44-.34.2-.49.1m0,0-.54-.1-.44-.39-.29-.34-.1-.49m-3.87-1.37.64.1.49.34m0,0-.2.2m0,0-.49-.25-.54-.1m0,0-.44.1-.39.25-.2.29-.1.34m0,0,.1.59.39.34.34.2h.39m0,0H141l.29-.2.2-.25.1-.29m0,0h-.83m0,0v-.29m0,0h1.08m0,0-.1.59-.34.44-.39.29h-.44m0,0-.64-.1-.49-.39m0,0-.25-.44-.1-.49m0,0,.2-.54.34-.44.39-.29h.54m1.86,2.69V18.84m0,0h.44m0,0h.39l.25.1m0,0,.19.1.2.2.1.15v.2m0,0v.29l-.1.15-.2.1-.63.2m0,0,1,1.22m0,0h-.24m0,0-1-1.22m0,0h-.2m0,0v1.22m0,0h-.15m5.24-1.13V18.84m0,0h.25m0,0v1.57m0,0v.39m0,0,.1.15.2.2.39.1m0,0h.15l.19-.1.1-.2.1-.1m0,0v-.44m0,0V18.84m0,0h.2m0,0v1.57m0,0v.44l-.2.39-.29.2-.25.1m0,0h-.29l-.44-.29-.1-.29m0,0V20.7l-.1-.29m5.87,1.13h-.83m0,0V18.84m0,0h.59m0,0,.44.1H154m0,0,.44.29.2.34.2.64m0,0-.1.59-.39.44-.34.2-.49.1m-.64-2.4v2.1m0,0h.39m0,0,.34-.1H154m0,0,.24-.2.2-.25.1-.49m0,0v-.34l-.2-.39-.19-.2-.25,0m0,0-.49-.1h-.34m0,0h-.2" transform="translate(-0.34)" style="fill:none;stroke:#000;stroke-linecap:round;stroke-linejoin:round;stroke-width:0.156px"/><path d="M107.44,80.67l-.1-.2V80c0-.58-.14-.17-.1-.93l-.1-.1v-.34l-.1-.1v-.2l-.1-.1v-.2l-.1-.15v-.29l0-.1v-.2l-.1-.15-.1-.1v-.2l-.1-.1v-.2l-.1-.1-.1-.15v-.1l-.1-.19-.1-.1v-.2l-.1-.1,0-.15-.2-.2v-.2l-.1-.1-.1-.2-.1,0-.1-.2-.1-.1-.15-.3a4,4,0,0,1-.69-.83l0-.1-.1,0-.1-.1-.1-.19-.29-.3-.15-.1-.1-.15-.29-.29-.2-.1-.1-.1,0-.1-.1-.1-.2,0-.2-.2-.19-.1-.1-.1-.05-.1-.19-.1-.1-.1-.1,0-.19-.1-.1-.1h-.15l-.1-.1-.2-.1-.2-.2h-.19l-.05-.1-.2-.1h-.1l-.2,0-.1-.1H99.8l-.1-.1-.2-.1h-.2l-.1-.1H99l0-.1h-.2l-.1-.1h-.19l-.1-.1h-.15l-.2,0h-.29l-.1-.1h-.34l-.1-.1h-.49l-.15-.1h-.73l-.2-.1H94.42l-.15.1h-.83l-.19.1H92.8l-.1.1h-.39l-.1.1h-.15l-.1,0h-.2l-.19.1h-.29l0,.1H91l-.2.1-.1.1h-.2l0,.1h-.2l-.1.1-.19.1h-.1l-.2,0,0,.1h-.2l-.1.1-.19.1-.2.2h-.15l-.1.1h-.1m14.64,20,.1-.2.1,0,.1-.1c.49-.38.2-.18.54-.59l.1,0,.1-.1c.3-.28-.13-.08.44-.59l.1-.15.2-.2.1-.2.1-.1.05-.2.1,0,.1-.1.1-.2.1-.1.1-.2a5.49,5.49,0,0,0,.34-.64v-.1l.1-.2.1,0v-.2l.1-.1.1-.2V86m-9.79,7.39v.25l1.42-.25m.54-.49-.54.2m8.08-7-1,1.86L104,89.62l-1.17,1.08m-14-19.63.1-.1,0,0,.2-.1.1-.1h.1l.2-.1.1-.1.15-.1h.1l.2-.1.1-.1h.2l.1-.1a8.39,8.39,0,0,0,1.27-.44h.3l0-.1h.19l.2-.1h.34l.2-.1h.49l0,0h1.13l.1-.1h.44l.19.1h.83c.34,0,.24.08.73,0l.2.1h.34l.2.1h.2l.1.1h.25l.2.1h.1l.19.1h.1L99,70h.1l.2.1.1,0h.2l.1.1h.15l.1.1.2.1h.1l.19.1.1.1.15.1h.1l.1.1.2.1a4.57,4.57,0,0,1,.64.34l.2.2.19.1.05.1.29.15.2.2a2.13,2.13,0,0,1,.54.49l.1,0,.1.1c.56.25.07.21.54.59l.1,0,.1.1.1.2.2.2.15.29.1,0,.2.2.1.2a1.54,1.54,0,0,1,.44.64v.1l.1.1.1.2.1.1v0l.1.2.1.1.1.2v.1l0,.15.1.1v.2l.1.1V77l.1.1.1.15v.1l.1.2v.1l.1.2v.1l.1.15v.29l.1.1v.2l0,.15v.39l.1.2v.44l.1.1v.73m-20.51,9.2-.19-.15L86,89.33,85.8,89l-.1-.1-.1,0-.1-.2-.29-.29-.1-.2L85,88.06l-.1-.2v-.1l-.1-.1-.1-.2-.1-.1-.1-.15v-.1l-.1-.1-.15-.29v-.15l-.1-.1-.1-.2v-.1l-.1-.2m9.49,7.64v-.25m0-51.59v-.29l-2.05-.44-1.81-.73a12.15,12.15,0,0,1,2.5-22.52l2-.34h2.11a12.16,12.16,0,0,1,4.5,22.86l-1.91.73-2.05.44v.29l2.05-.49,1.91-.73a12.36,12.36,0,0,0-3.48-23.2l-2.1-.2-2.05.2a12.34,12.34,0,0,0-3.48,23.2l1.81.73,2.05.49m18.94,22.57.2.2c.38.33.19,0,.64.54l.2.1.2.2.19,0,0,.1.1.1.2.1.19.2.2.1,0,.1h.19l.1.1.2,0,.2.2h.15l.1.1.2.1.1.1H116l.1.1.15.1h.1l.2,0h.1l.2.1H117l.1.1.2.1h.29l.1.1h.15l.2.1h.1l.2.1m-7.49-19.09-.1.1-.15.29-.1.1-.1,0-.1.2-.1.1v.2l-.1.1-.1.15-.1.1v.2l-.15.29-.1.1v.15l-.1.1v.2l-.1.1c-.12.25-.17.49-.29.73v.2l-.05.1v.15l-.1.1v.39l-.1.1V53l-.1.2v.29l-.1.2v.54l-.1.2v2.1l.1.2V57c0,.59.13.19.1.73l.1.2v.29l.1.2m9.4-15H118l-.1.1h-.19l-.15,0h-.29l-.1.1-.2.1h-.1l-.15.1h-.2l-.1.1h-.19l-.1.1-.15.1h-.1l-.19.1-.1.1-.2,0h-.1l-.15.1-.1.1-.2.1h-.1l-.1.1-.15.1-.1.1-.29.15-.1.1-.2.1,0,.1-.19.1-.29.29-.3.15,0,.1-.2.1-.29.29h-.1M122,43.17l-.93-.1-1,.1m9.5,3.33-.2-.2,0-.1c-.32-.27-.87-.63-1.22-.93l-.1-.1-.2-.1-.15-.15h-.2l-.1-.1-.2-.1-.1-.1-.15-.1h-.1l-.1-.1-.29-.15h-.2l0-.1-.19-.1h-.1l-.2-.1-.1-.1h-.15l-.19-.1h-.1l-.2-.1h-.1a2,2,0,0,0-1-.24l-.19-.1h-.1M133,58.44V58.1l.1-.1v-.39l0,0v-.69l.1,0V54l-.1-.1v-.2c0-.4-.08-.29,0-.73l-.1-.15v-.29l-.1-.2v-.1l-.1-.15V52l-.1-.2v-.1l-.1-.2v-.2l-.1,0v-.2l-.1-.1v-.2l0-.1-.1-.15v-.1l-.1-.2-.1-.1V50l-.1-.1-.1-.15-.1-.1v-.2l-.2-.2,0-.2-.1,0-.1-.2-.1-.1v-.1l-.1-.1M123.64,67.6l.1-.1h.15l.1-.1h.29l.2-.1h.2l0-.1h.19l.1-.1h.2l.1-.1.15,0h.1l.2-.1h.2l.1-.1.15-.1.1-.1h.1l.2-.1.1-.1h.2l.1-.1.15,0,.1-.1.2-.1.1-.1h.1l.15-.1.1-.1.2-.1.2-.2.2,0,.1-.1,0-.1.1-.1.2-.1.29-.29.15,0,.1-.2.1-.1h.1m-.34,0-.2.1-.2.2-.3.15,0,.1-.2.2-.2.1-.2.2-.2,0h0l-.1.1-.2.1-.2.2-.2.1h0l-.1.1-.2.1-.1.1h-.2l-.1,0-.15.1-.1.1h-.2l-.1.1h-.2l-.1.1-.15.1h-.1l-.2.1h-.1l-.19.1h0l-.2,0h-.1l-.2.1h-.1l-.2.1h-.34M131.28,49v0l.1.1.1.2.1.1,0,.1v.2l.1,0,.1.2.1.1c0,.35.58,1,.54,1.57l.1.1v.2l.1.1v.15l.1.1v.2l.1.1v.34l.1.1v.49l.1.2V54l.1.2v2.5l-.1.15v.49l-.1.1v.44l-.1.2v.1l-.1.2v0m-9.1-14.83h.24l.1.1h.29l.2.1h.1l.15.1h.19l.1.1h.2l.1.1.15.1h.1l.2.1h.1l.2,0,.1.1h.15l.19.2.2.1h.1l.19.1,0,.1.3.15h.1l.2.1.1.1,0,.1.2.1c.19.24.63.41.83.64l.29.29m-9.4-2.94h2.64m-9.35,3,0-.2.2-.2a4.59,4.59,0,0,0,.83-.64h.1l.19-.1a1.94,1.94,0,0,1,.93-.54l0-.1.1-.1h.2l.1-.1c.6-.41.46,0,1-.44h.1L117,44c.36,0,.67-.29,1-.29h.1l.2-.1h.1m-9.15,14.83-.1-.15v-.2l-.05-.1c0-.55-.15-.14-.1-1l-.1-.15V54.14l.1-.2V53.5l.1-.1v-.49l.05,0v-.2l.1-.2v-.29l.1,0v-.2l.1-.1v-.2l.1-.1v-.2l.1-.15v-.1l.1-.2.1-.1v-.2l.15-.15v-.2l.1-.1.1-.2v-.1l.1-.15.1-.1.1-.2.1-.1v-.1l.1-.2.05,0v-.1m7.68,18.4-.19-.1H118l-.1-.1h-.19l-.05-.1h-.29l-.2,0h-.1l-.2-.1,0-.1h-.2l-.1-.1h-.2l-.1-.1-.15-.1H116l-.19-.1-.1-.1h-.2c-.37-.2-.2-.19-.64-.34l-.1-.1-.19-.1,0-.1-.1-.1-.2-.1h-.1l-.29-.15,0-.1-.1-.1-.59-.44-.15-.1-.1-.1-.1-.2m.24-32.8-.24.29a1.85,1.85,0,1,0,3,2l.19-.64m0,0-.19-.73-.39-.64-.24-.29m-2.4,54.73.1.1h.1v.1h0v.1h.2v.1h.2v0h.29v.1h.83v-.1h.24v0h.2v-.1h.2v-.1h.1v-.1h.15v-.1m58.93,22.66.59.39.14,0,.1.2m0-108.08-.1.2-.44.29V2M66.91,109.5v-.2l.2,0,.24-.2.1-.1m.2-106.9-.29-.15-.24-.2-.2-.1v-.2M175.18,109.3l-.34-.15-.49-.29m2,.83-.63-.2m-109.3,0-.1.1-.49.1m1.66-.73-.25.2-.29.15m0-107.69.29.2.44.24m-1.86-.73.59.1m109.3,0,.1-.1h.54m-1.66.59.29-.2m-94.77,108h-.54m0,1.13h.54m-12.73-1.13h-.54m0,1.13h.54M161.92,1.32h.59m0-1.08h-.59m12.73,1.08h.54m0-1.08h-.54M76.31,102.16l-.19-.73-.34-.69c-1.22-.82-2.47-.71-3.13.69l-.1.73.1.74a2,2,0,0,0,3.13.54l.34-.54Zm3.33,6.71v-8.47m0,0L76.11,97H67.45m0,0v11.89m12.19,0v2H67.45m12.19-2H67.45m0,2v-2m-.54.83H65.78m1.13,0v1.13H65.78v-1.13m110.53,1.13v-1.13H80.17m96.14,1.13H80.17m0-1.13v1.13m95-109.5h1.13m-1.13,0V.24h1.13V1.32M65.78.24V1.32m0,0h96.14M65.78.24h96.14m0,1.08V.24m.59,0h12.14m0,0V2.06m-12.14,0V.24m13.8,109.25h-1.13M176.31,1.42h-1.13V109.5M176.31,1.42V109.5m-109.4,0V1.42m-1.13,0h1.13M65.78,109.5h1.13m-1.13,0V1.42m101.86,9.3.73-.15.54-.39A1.89,1.89,0,0,0,168.38,7l-.73-.1-.73.1-.64.44-.39.59-.15.73.15.73.39.64.64.39Zm7,3.33v-12m0,0H162.5m0,0v8.52m0,0L165.88,14m0,0h8.76" transform="translate(-0.34)" style="fill:none;stroke:#000;stroke-linecap:round;stroke-linejoin:round;stroke-width:0.488px"/><path d="M86.34,72.74l-.39.39-.25.15m2.55-2.2-.83.59-.88.83m-.29.73.29-.29m2.84-13.56,1,2.2m.15.59L89.47,60m-.19-.64h.1m.1.64v2.15m0,0h-.19m0,0V59.37m-.74,12.33h-.29m.59-.88v.25m-.59.63v-.63H87l1.47-2.2m.39,2.2h-.3v.63m-.1-2.84h.1v2h.3m-.59,0V69.6l-.83,1.23h.83M88.1,59.37H89v.29h-.73v.83H89v.24h-.73v1.13H89v.29H88.1V59.37m-2.4,10.77.44,0,.19-.2.1-.2M86.15,69l.19.1.19.2.1.15.05.29m0,0-.05.29-.1.15-.39.2M85.51,69h.64m.29.74-.1-.29-.1,0-.1-.1h-.44m.44,1.08-.44.1h-.29m0,0h-.19v1.27H85V69m0,0h.54m.2.3h-.49v.88m0,0h.49m2.2-1.81.29-.1.25-.1.1-.2.1-.24m0,0-.1-.1v-.2l-.19-.2-.64-.1m-.44.69.1.25,0,.1m0,0,.3.2h.19m0,.25-.39,0-.25-.2-.2-.29-.1-.25m.1-1.42.1-.25.24-.3.2-.1.29-.1m-.19,1.22.49-.1.15-.2.1-.1v-.1m.29.83.1.29v.2l-.1.34-.2.39-.34.1-.29,0m.83-2.2v.2l-.1.2-.29.2m.1-.59-.1-.15-.1-.2-.34-.1-.19.1-.2.1-.15.25m.54-.74.34.1.29.2.1.2.1.25m-1,.73v-.24m-.74.93h.29M88.35,67l.19.15.2.1m-1.37-.83h-.3m-.39,16.05-.05.25-.1.2-.39.2m0,0-.44.1h-.29m.1-1.47h.64l.19.1.19.15.1.2.05.29m-1,.44.44-.1.1-.1.1,0,.1-.2m0,0-.1-.29-.19-.2h-.44m-.29,1.22h-.19v1.27H85V81.7m0,0h.54m.2.25h-.49v.93m0,0h.49m-.2-10.77h.34l.3.1.19.1.19.2.1.15.05.19-.05.3-.1.24-.19.1-.19.1h-.74m.29-.29.44,0h.1l.1-.1.1-.3m-1,.73h-.19v1.27H85V72.1m0,0h.54m.93.73-.1-.19-.1-.1-.1,0-.44-.1h-.49v.88m0,0h.49m1,5.92-.05.29-.1.25-.19.1-.19.1m0,0h-.74m.1-1.47h.34l.3.1m0,0,.19.1.19.15.1.2.05.2m-1,.44.44-.1h.1l.1,0,.1-.29m0,0-.1-.2-.19-.2-.44,0m-.29,1.17h-.19V81.2H85V78.46m0,0h.54m.2.29h-.49v.88m0,0h.49m-.2-17h.64l.19.1.19.2.1.2.05.25m-1,.49.44-.1.19-.19.1-.2m0,0-.1-.25-.19-.2h-.44m1,.44-.05.29-.1.2-.19,0-.19.1-.44.1h-.49V65.4H85V62.6m0,0h.54m.2.29h-.49v.93m0,0h.49m-.1-1.57-.39-.19L85,61.68l-.19-.93m0,0,.19-.88.15-.39.19-.1.29-.1m0,0,.2.1.15.1.29.39.2.88-.2.93-.19.39-.25.1-.2.1m-.73-1.52.2.78.15.25.39.2.2-.1.15-.1.2-.25.19-.78L86.15,60l-.2-.25-.15-.1-.2-.1-.39.2-.15.25-.2.73m2.54,12,.2-.64h.59m-.39.29v.1m0-.1h.1m-.54,9.94,0,.19.49.25m0,0,.44-.15.1-.2v-.1m-.54-.44h-.19l-.2,0-.1.2,0,.2m1,.54.49.49m-.2.24-.1-.24-.19-.2-.15-.1h-.29m.54-.73-.1-.29-.1-.1-.34,0m-.39,2.54-.34-.25L87,83.6l.1-.24.1-.2.34-.29-.25-.25-.1-.29.1-.39.15-.25.3-.1h.19l.34.1.29.2.1.15.1.29v.19l-.2.15-.19.2m-.44.2h-.29l-.2.2-.15.2v.15m0,0,.1.29.15.19.2.1m-.3-23.35h-.34m0,0h-.19v1.32h-.1V59.37m0,0h.49l.15.1.2.1.1.2v.83l-.1.15-.2.1m-.54-.25h.54l.1-.1.1-.39V60l-.1-.2-.15-.1h-.49v.93m-.73,16.1-.44.1h-.49v1.27H85V75.33m0,0h1.18m.1.34-.1,0h-.93v.88m0,0h.49l.44-.1h.1m1.13-13h-.3l.1-.34.24-.39.3-.19H88l.34.1.29.2.2.29v.25l-.1.29-.1.25-.39.49-.73.74h1.32v.29H87l1.13-1.22.34-.34.1-.29v-.44l-.19-.2-.15-.1H88l-.59.2,0,.15v.29M85,65.74h.88l.3.1.19.1.19.2.1.15.05.2-.05.29-.1.25-.39.2h-.93v1.32H85V65.74M85.22,67h.49l.44-.1h.1l.1-.1.1-.29-.1-.2-.1,0-.1-.1-.44-.1h-.49V67" transform="translate(-0.34)" style="fill:none;stroke:#000;stroke-linecap:round;stroke-linejoin:round;stroke-width:0.156px"/><path d="M131.81,86.1v.2l.1.2v.15l.1.1.1.19a8.69,8.69,0,0,0,.73,1.66l.1.2.1.15.1.1,0,.2.2.39.1.15.1.1.2.39.15.2.1,0,.2.39.2.1.1.2.1.15.15.1.2.39.19.1.1.15.1.1.15.2.29.29a11.59,11.59,0,0,0,1.27,1.08l.29.29.39.19.15.2.1,0c.53.23,1,.66,1.57.93h.1l.39.2.15.1.59.29.15,0h.2l.59.29h.15l.39.2h.2l.15.1h.2l.2.1h.19l.15,0h.2l.19.1h.2l.15.1h.2a14.78,14.78,0,0,0,1.76.2h1.57a7,7,0,0,0,1.76-.2h.34c.48-.23,1.19-.2,1.66-.44h.29l.15-.1.2-.1h.19c.49-.44.68-.15,1.57-.73l.39-.2c.49-.29,1-.52,1.47-.83l.15-.1.19-.15.1-.1.39-.19,0-.2.39-.2.1-.15.2-.1.15-.1.1-.2.2-.1.1-.1.2-.15.1-.1.15-.19.39-.39.2-.15,0-.2.39-.39.1-.15.29-.29,0-.2.1-.2.2-.15.1-.1.2-.39.1-.15.25-.49.2-.2.1-.15.1-.2v-.1l.1-.19,0-.2.1-.15.29-.59.1-.15v-.2l.2-.39.1-.15v-.2l0-.2v-.1M134.6,71.46l-.19.1-.1.15-.1.2-.2.1-.1.2,0,.2-.1.1-.1.15-.2.19-.2.39-.1,0a7.22,7.22,0,0,1-.73,1.42l0,.15V75l-.2.39c-.24.37-.35,1.07-.59,1.47v.2l0,.15c0,.54-.36,1-.29,1.57l-.1.2v.29m30.59,6.8-.1.1-.1.2v.2l-.1.15-.1.19a5.39,5.39,0,0,1-.73,1.57l-.19.39c-.26.57-.56.95-.83,1.47l-.15.1-.1.15-.1.2a21.07,21.07,0,0,1-2.94,2.94l-.39.2-.1.2-.19.1-.15.1-.1.1-.2,0-.19.1-.15.1-.1.1-.59.29-.15.1-.2,0-.1.1a8.8,8.8,0,0,1-1.66.73h-.19l-.15.1h-.1l-.2.1c-.56.23-1.18.28-1.76.49h-.34l-.2,0h-.54l-.2.1h-2.1a11.4,11.4,0,0,1-4.16-.74H142l-.2-.1h-.15A7.1,7.1,0,0,1,140,95.3l-.1-.1-.19,0-.39-.2-.15-.1-.19-.1-.1-.1-.2-.1-.15-.1-.2,0-.1-.1-.19-.1-.2-.1,0-.2-.39-.2a18.4,18.4,0,0,1-2.94-2.94l-.1-.2-.1-.15-.2-.1a13.5,13.5,0,0,0-.83-1.47l-.1-.2,0-.2a3.84,3.84,0,0,1-.73-1.57l-.1-.19-.1-.15v-.2l-.1-.2v-.1M110.82,27.51l-.1-.29v-.34l0-.2v-.2l-.1-.2c.06-.59-.36-1-.39-1.62l-.2-.39a7.75,7.75,0,0,0-.64-1.66l-.1-.2-.1-.15-.05-.2-.1-.2-.1-.1-.1-.2-.1-.15-.2-.39-.1-.1,0-.15-.2-.2-.2-.39-.1-.1-.2-.15-.24-.49-.19-.2-.1,0-.29-.29,0-.2-.29-.29-.2-.15L106,18l0-.1-.2-.1-.1-.15-.19-.1-.2-.2-.05-.1-.19-.1-.1-.2-.2-.1-.2,0-.15-.2-.1-.1-.39-.2-.25-.24-.39-.2-.2-.1-.1-.1-.15-.1-.59-.29-.15,0-.59-.29h-.1l-.15-.1-.39-.2-.19-.1h-.15l-.2,0-.19-.1h-.2l-.15-.1-.2-.1h-.2l-.2-.1H99l-.15-.1h-.29l-.2-.1h-.15l-.2-.1h-.2l-.2-.1h-.54l-.19,0h-.64l-.19-.1H94l-.19.1h-.54l-.29,0h-.54l-.2.1h-.15l-.2.1h-.39c-.54.25-1.22.34-1.66.59h-.15l-.2,0c-.59.29-1.24.54-1.86.83l-.2.1,0,.1-.59.29-.15.1-.1.1-.19,0-.19.2-.2.1-.15.1-.29.29-.2,0-.1.1-.15.1-.59.59-.2,0-.15.2-.39.39-.2.15-.15.29-.2.1-.1.2-.2.2-.1,0,0,.2-.2.1-.19.39-.2.15-.1.1-.1.2,0,.2-.1.1-.2.15c-.31.59-.61,1.17-.93,1.76l-.2.39v.1l-.1.15,0,.2-.2.39V24l-.2.39v.2l-.1.15-.1.2v.2l-.1.2v.2l-.05.15v.29l-.1.2v.15l-.1.2v.2l-.1.2v.54l-.1.2v.64l-.1.2v2.1l.1.2v.54l.1.29v.54l.1.2v.2l.1.15V33l.1.2v.15l.05.2.1.2V34l.1.15v.2l.2.39v.2l.1.15.2.39,0,.2v.15l.3.59c.29.43.65,1.3.93,1.66l.1.15.2.2,0,.2.1.2c.38.21.56.85,1.12,1.27l.1.2.2.15a10.36,10.36,0,0,0,1.37,1.32l.2.1,0,.15.39.2.29.29.15.1.2.1.1.1.2.15.19.1.15.1.2.1.1.1.2.1.15.1.2,0,.59.29.15.1.19.1h.1l.2.1.15.1.2.1.19,0h.2l.15.1.2.1h.2l.19.1a17,17,0,0,0,4.41.73h1c.59,0,1.16-.19,1.76-.2h.15l.2-.1H98l.2,0h.34l.19-.1H99l.15-.1.2-.1h.2l.2-.1h.15l.39-.2h.19c.62-.33,1-.33,1.66-.73l.15-.1.19-.1a12.3,12.3,0,0,0,1.66-1l.2-.1.1-.1.15-.2.2-.1.1-.1.2,0-.2-.2L103,43l-2.11,1A15.56,15.56,0,0,1,82,21.24l1.32-1.86L85,17.72a15.58,15.58,0,0,1,24.57,17.62l-1,2.1-1.27,1.86m0,0,.19.2.1-.2,0-.2.1-.2.2-.1.1-.15.1-.2.1-.1.1-.2.15-.15.2-.39.1-.1.1-.2.1-.15.2-.39.05-.2.1-.1.1-.15.2-.39v-.2l.1-.15.2-.39,0-.2V34.9l.2-.39v-.2l.1-.2.1-.15v-.2l.1-.2v-.2a5,5,0,0,0,.34-1.57v-.44M135.49,86.1v.1l.1.2v.1l.1.15.2.2V87l.1.1.1.2.1,0v.2l.1.1,0,.2.2.2.1.15.2.2.1.2.1.1,0,.1a7.8,7.8,0,0,0,.69.83l.1.15,0,.1.2.19.19.1.1.1.1.2.1,0,0,.1.19.1.29.29.2.1,0,.1.1.1.2,0,.2.2.19.1.1.1,0,.1h.19l.1.1.2.1c.37.2.2.19.64.34l.1.1.19.1h.1l.15.1.1.1h.2l.1.1h.2l0,0,.2.1h.19l.1.1h.19l.1.1h.15l.1.1h.39l.1.1h.15l.1.1h.39l.1.1h.54m14-11.16V80.57l-.39-2-.15-.83m-.69,8.37,0,.1-.1.1v.2l-.1.1-.1.15-.1.1V87l-.1.1-.1.2-.1,0v.1l-.15.29-.1.1-.1.2-.1.1-.1,0-.1.2-.2.2v.2l0,.1-.29.15-.1.2-.39.39,0,.15-.29.29-.2.1-.2.2,0,.1-.1,0-.2.1-.1.2-.2.2h-.15l-.2.2-.29.15-.1.1-.2.1,0,.1-.1.1-.2.1h-.1l-.1.1-.2.1,0,0h-.2l-.1.1-.2.1-.1.1h-.2l0,.1-.2.1h-.1l-.1.1h-.2l-.15.1h-.1l-.2.1h-.1l-.19,0h-.1l-.15.1h-.1l-.2.1h-.29l-.15.1h-.29l-.1.1h-.29l-.15.1v.25l.1,0h.24l.2-.1h.29l.15-.1h.29l.2-.1h.1l.15-.1c.38,0,.66-.26,1-.29l.1,0h.2l.1-.1.15-.1h.1l.19-.1.1-.1.2-.1h.1l.15-.1.1-.1.29-.15h.1l.15-.1.1-.1.19-.1.2-.2.2-.1.15-.15.2-.1.2-.2.2-.1c.44-.6.32-.18.73-.64l.1-.2.15-.1c.47-.39.25-.34.68-.73l0-.2.1-.1.1,0,.1-.1a8.81,8.81,0,0,1,.64-.93l.1-.1v-.2c.48-.51.27-.42.54-.93v-.15l.1-.1.1-.2v-.1h.1m.2-7.93.34,1.86.1,1.76m-7.54-11.65.44.2,1.13.59m-7.74,22.71v-.25l-.19-.1h-.25l-.2-.1h-.29l-.2-.1h-.24l-.1-.1h-.2l-.1-.1c-.38.07-.68-.21-1-.25l-.15-.1h-.1l-.2-.1-.1-.1h-.1l-.15-.1-.1-.1h-.19l-.1-.1-.19,0-.1-.1h-.1l-.15-.1-.1-.1-.2-.1-.2-.19-.15-.1H140l-.29-.15-.2-.2-.2-.1,0-.1-.29-.29-.2,0-.1-.1-.15-.29-.1-.1-.2-.1-.1-.1-.1,0-.1-.1-.15-.29-.2-.2-.1-.2-.1,0-.2-.2-.1-.2-.1-.1,0-.1-.1-.15-.2-.2-.1-.2v-.1l-.1-.1-.1-.2-.1,0,0-.2V87l-.1-.1-.1-.2-.1-.1v-.15l-.1-.1-.1-.2V86M92.07,93.39l1.37.25M83.65,86.1v.1l.1.2v.1l.1.15.19.2V87l.1.1.1.2,0,0c0,.34.33.56.49.83l.19.2.15.29.1.1.1.15.2.2.1.2.2.2,0,.1.1.15.29.29.2.1.1.1.1.2.05,0m-3.77-11-.15,1,0,2.06.1.64" transform="translate(-0.34)" style="fill:none;stroke:#000;stroke-linecap:round;stroke-linejoin:round;stroke-width:0.488px"/><path d="M163.34,71.66V68.87h.1M151.15,76.8l-.44-1.37m.54,1.66-.34,1.08m.88,0h-.15m0-2.74h.15m-.88,2.74h-.2l.44-1.37m.49,1.37-.39-1.08m.54-1.66-.44,1.37.44,1.37m-1.08-2.74h.2l.34,1.17.39-1.17m1.47-6.56v2.79m-.1,0v-2.5h-.29m0,0,.1-.29h.29m0,2.79H153m-1.22-2.79-.44,1.37m.29,1.42-.39-1.13m-.54,1.13.44-1.42m0,0-.44-1.37m.54,1.66-.34,1.13h-.2m.64-1.42.44,1.42h-.15m-.93-2.79h.2l.34,1.22.39-1.22h.15m-3.57,8.47-.2.83m1.13,0H149m-1,0h-.15l.64-2.74h.1m.44,2.74-.29-.83h-.54m.29-1.91.64,2.74m-.64-2.11-.19,1h.44l-.25-1m0-7.19.64,2.79H149l-.29-.83h-.54l-.2.83h-.15l.64-2.79h.1m-.1.64-.19,1h.44l-.25-1m6.41-6.9h.49m0,0v2.79h-.19m0,0V62.9h-.34l0-.29m2.3,5.92V65.74m.1,0,1.42,2.11m0,0V65.74m.25,2.79h-.1l-1.47-2.06m-.2-.73h.1m.1.73v2.06m0,0h-.2m1.52-2.79H159v2.79m-10.13-2.79.93,2.79h-.3l-.24-.83h-.83l-.3.83h-.25l.88-2.79h.1m-.34,1.66h.64l-.39-1-.25,1m9.5-2-1.42-2.15v2.15h-.25m1.71-2.79v2.79m-1.71,0V62.6h.1l1.37,2.11m.24.68h0m-.2-.68V62.6h.24m0,7.1-.15,2m1.47,0h-.1m-1.37,0h-.2m.93,0h-.1l-.49-2m1.22,2-.2-2m.1-.83.2,2.79m-.2-2.79h.1m-.2.83-.44,2M158,68.87l.54,2.3m0,0,.63-2.3m-1.47,2.79.29-2.79h0M153.35,75l-.54-1.17m.1-.29.73,1.47m-.83-1.17L152.27,75H152l.73-1.47L152,72.3h.29l.54,1.08.54-1.08h.29m0,2.74h-.29m.29-2.74-.73,1.27m.44-5-.54-1.13-.64,1.13H152l.63-1.42m.93-1.37-.64,1.37M152,65.74h.29m.54,1.13.54-1.12h.2m-.93,1.37L152,65.74m.93,1.37.73,1.42h-.29m-1.08-2.79.54,1.13m2-7.39v2.79h-.1L153.45,60v2.25h-.15m0,0V59.47h0m0,0,1.27,2.11V59.47h.2m-2.89,0h1m-.83.29v.83m0,0h.83v.24h-.83v1h.83m0-2.4v.29h-.83m.83,2.1v.39h-1V59.47m-1.08,22.47v.93m1.08-1.18v.25m0,0h-1.08m0,.93h1.08m0,0v.29h-1.08v1h1.08v.25h-1.37V81.69h1.37m-2.55-.49H148m0,0V78.46m1.32,2.5v.25M148,78.46h.29V81m0,0h1m15-3.43v-2.1h.1m-1.08,0h.1m-.1,0,1,2.1m-.88-1.47v2.11m0,0h-.1m1.08,0-1-2.11m1-.63v2.74h.1m-1.17,0V75.43M148.85,72.3l.93,2.74h-.3l-.24-.93h-.83l-.3.93h-.25l.88-2.74h.1m-.34,1.57h.64l-.29-.93-.34.93m11.85-2.2-.44-2m0,0-.19,2m.73,0h-.1m.73,0,0-2m0-.83.24,2.79m-1.47-2.79h.1l.54,2.3.59-2.3h0m-1.37,2.79h-.1m1.42-2-.59,2m.83,0h-.2m-1.47,0,.2-2.79m-4.31-3.13v2.79m0,0h-.19V66h-.39l.1-.29m0,0h.49m3.67,9.69.2,2.74h-.1l-.19-1.91-.44,1.91h-.1l-.49-1.91-.15,1.91h-.2m.29-2.74.54,2.3.63-2.3h.1m-1.57,2.74.29-2.74h0m-3.77,6.51v-.25h1.32v.25h-.49v2.5h-.25v-2.5h-.59m6.17-.25h.2v2.5h.93v.25h-1.12V81.69m.59-5.43-.59,1.91m.59-2.74.24,2.74h-.2m-.64,0h-.1m.73,0,0-1.91m-.59,1.47.59-2.3h0m-.73,2.74-.44-1.91-.19,1.91h-.1l.2-2.74m0,0h.1l.54,2.3m-9.84.73V81.2m-.2,0V78.76H150l.19-.29m.44,2.74h-.2m-.25-2.74h.44M159,81.69l1,2.74h-.29l-.34-.83h-.93l-.39.83h-.24l1.08-2.74h.1m-.44,1.67h.73l-.39-1-.34,1M160.45,66h-.25l-.3.2-.19.24-.15.73m.88,1.13.49-.1.24-.39.2-.74m-.93-1.37.59.1.34.44.2.83m-2,.1,0,.39.29.44.3.2.25.1m.93-1.22-.1-.44-.2-.39-.25-.15-.39-.1m1.13,1.08v.59l-.29.54-.34.29-.49,0m0,0-.44-.15-.44-.39-.2-.83.1-.64.25-.44.39-.3.34-.1m.1,9.3-.54-.1-.39-.44-.24-.83m0,0,.1-.54.25-.59.39-.24.34-.1m0,0,.59.2.34.34.29.93-.1.54-.29.49-.34.25-.39.1m-.93-1.37v.44l.29.39.3.2.25.1.49-.1.34-.39.1-.64v-.44l-.29-.49-.25-.2-.39,0-.25,0-.39.39-.2.74m-2.3-3.43-.15-.64-.2-.34-.1-.1h-.2m0-.39.2.1.19.2.25.34.1.83m-.73-1.08h-.2l0,.1-.2.34-.1.64m0,0,.1.73.2.29,0,.1.2.1.39-.2.1-.29.15-.73m.1,0-.1.93-.25.39-.1.1-.29,0m0,0-.2,0-.15-.1-.2-.39-.2-.93m0,0,.2-.83.2-.34.15-.2.2-.1m-6-9.3h.34l.3.1.1.29v.34m0,0-.1.49-.3.15-.24.1h-.29v1.32h-.19V59.47m0,0h.39m-.19,1.22h.29l.24-.1.1-.1.1-.2.1-.1-.1-.25-.1-.2h-.64v.93m5,13.17.25-.49.1-.34m0,0v-.2l-.2-.2,0-.15h-.2m-.63.64v-.39l.15-.25.2-.2.29-.1m0,.29h-.19l-.1,0-.1.2-.1.39m.49-.93.34.1.19.24.1.49-.1.54-.29.49-.54.73h1V75h-1.47l.83-1.17m-.59-.74h-.15m-5.29,4.6v-.64m0,0V75.43m0,0h.1v2l.1.39.1.1.1,0h.19v0l.1-.1.1-.29.05-.29V75.43h.1v2.4l-.15.25-.1.1-.19.1-.2-.1-.2-.2-.1-.24m4.8-.93.2-.83.2-.34.2-.2.15-.1.29.1.19.2.15.34m0,1.76-.25.34-.19.2H155m0,0h-.15l-.2-.2-.2-.25m0,0-.2-.59V76.8m1.37-.83,0,.2-.29-.39-.1-.1h-.34l-.1.1-.2.39-.1.64.1.73.29.44H155l.2,0,.19-.1.2-.29,0,.2m-.64-9,.29.1.19.2.15.34m-1.17.83.1.73.2.29.1.1.15.1m0,0,.39-.2.2-.29,0,.2-.25.39-.19.15H155l-.15,0-.2-.1-.2-.29-.2-.54v-.49l.2-.83.2-.44.2-.1.15-.1m.64.64,0,.2-.29-.34-.1-.1h-.34l-.1.1-.2.34-.1.64m-3,4.06V74m.2,0-.1.73-.19.25-.2.1H151m0,0h-.29l-.29-.2-.15-.34V74m.15,0v.34m-.15-.34V72.3M151.44,74V72.3h.2V74m-1.22.34.2.39.2.1h.34l.1-.2.2-.29m-1.18-2h.15V74m11.8,1.37.19.1.2.2.24.34.1.83-.1.93-.24.34-.1.1-.29.1-.2-.1-.15-.1-.2-.34-.2-.93.2-.83.2-.34.15-.2.2-.1m-.54,1.47.1.73.15.29.1.1.2,0,.19,0,.2-.1,0-.29.2-.73-.2-.64-.15-.39-.1-.1H162l-.1.1-.15.39-.1.64m-5.09,6.36.93,1.27m0,0h-.34l-.83-1.27h-.1v1.27h-.29V81.69m0,0h.74l.29.1.25.1.1.15.1.39v.34l-.25.29-.29.1h-.29m-.34-.29h.64l.19-.1.1-.15,0-.2,0-.1v-.2L157,82l-.39-.1h-.34v.93M150,71.46h.1v-.1l.1-.1.1-.29m-.68-.44v.39m.68,0,.05-.24v-.2m-.73.39.1.34.2.2h.1m.34-.93V68.87h.1v2.4l-.15.29-.1.1-.19,0-.2,0-.2-.2-.1-.29v-2.3m0,0h.1v1.66m.59-7.93h.15v2.06l.1.15.1.19.19.1.1.1.2-.1.15-.1.1-.29.1-.25V62.6h.19v1.66l-.1.73-.29.39-.1,0h-.24l-.2,0-.29-.1-.15-.39V62.6m2.2,19.09h.2v2l0,.29.2.2.2,0h.2l.15,0,.2-.1.1-.29.1-.29V81.69h.19v1.67l-.1.83-.29.25-.2.1h-.44l-.3-.2-.15-.15-.1-.2v-2.3m5-4.89-.1.93-.25.34-.1.1-.29.1-.2-.1-.15-.1-.2-.34-.2-.93.2-.83.2-.34.15-.2.2-.1.2.1.19.2.25.34.1.83m-1.27,0,.1.73.2.29,0,.1.2,0,.2,0,.19-.1.1-.29.15-.73-.15-.64-.2-.39-.1-.1h-.39l-.24.49-.1.64m4.41-13.66-.2.1L160,62.9l-.39-.1-.44.2-.29.34-.15.64v.49l.25.34.29.29.34.1.2-.1.29-.1.25-.29.2.2-.44.39-.49.15-.24,0-.29-.1-.34-.29-.2-.54-.1-.49.1-.54.25-.54.39-.29.44-.1.29.1.3.1.34.44m-11.6-3.77.29.1.24.2.3.29.2.88-.29.93-.25.39-.29.1h-.2l-.34-.1-.29-.2-.2-.29-.2-.83.2-.88.59-.59h.24m-.83,1.47v.39l.3.44.19.19.34.1h.2l.2-.1.25-.29.2-.74-.1-.44-.2-.44-.24-.2-.29-.1h-.19l-.15.1-.29.25-.2.83m14.1,7.93.19.1.2.2.24.34.1.83-.1.93-.24.39-.1.1-.29,0-.2,0-.15-.1-.2-.39-.2-.93.2-.83.2-.34.15-.2.2-.1m-.54,1.47.1.73.15.29.1.1.2.1.39-.2,0-.29.2-.73-.2-.64-.15-.34-.1-.1H162l-.1.1-.15.34-.1.64m-11.41-4.5h.15v2.06l.1.24.1.2.2.1h.24l.2-.2.1-.29.1-.25V65.74h.2V67.5l-.1.73-.29.29-.1,0h-.44l-.29-.15-.15-.39v-2.3M153,75.67h-.2l-.1.2v.39m0,0h-.15l0-.59.2-.15.2-.2.2.1.1.1,0,.15.1.49v.34l-.1.29,0,.2-.1.2-.39.73h.73v.25h-1l.54-1.08.1-.29.1-.2v-.2l0-.15,0-.39-.1-.2H153" transform="translate(-0.34)" style="fill:none;stroke:#000;stroke-linecap:round;stroke-linejoin:round;stroke-width:0.156px"/><path d="M152.82,66.77l-.2-.1m4,2.2-.1-.1-1-.73m2.4,2-.59-.59m.83.83-.15-.15m.64.74-.2-.29m.83.93-.49-.54m1.13,1.47-.2-.2-.34-.54m1.81,2.94-.15-.49-.93-1.47m2.2,5.33-.44-1.62-.59-1.57m.39,1.81.34,1.22m-1-2.89.44.93m-1.57-3,.83,1.47.2.39m-2.2-3.43.83,1.13.24.25M158,70.44l0,.1.29.29m-1.86-1.67,1.32,1.17m-2.3-1.91.83.64M151,69.7l-.68-.19m1,.29h-.2m4.06,2.5-.64-.64-.2-.1m1.47,1.37-.44-.54m2.5,3.38-.39-.83m1.13,2.5-.39-.93v-.1m.83,7,.1-.39m-.19-.54-.2.93M158,76.6l.34,1M156,73.47l.64.83,1.13,1.76.1.29m-2.69-3.82.1.2.54.54m-5.53-3.47.73.29m14.74,16V58.44M148.12,81.7l1.57,2.1m-1.37-1.37v2m-.29,0V81.7h.1m1.57,2.1V81.7m-1.37,2.74H148m1.86,0-1.57-2m1.37-.73h.2m0,0v2.74h.1m-.29-19h-.25m-.73-2.15-.29.93m.73.29h-.83l-.29.93m.73-2.79.93,2.79m-1.27-1.22H149l-.34-.93m.73,2.15-.29-.93M148,65.4h-.25m0,0,.93-2.79h0M157.51,75h-.29M159,75h-.1l-1.37-2.1m1.22-.64H159m-1.47.64V75M159,72.3V75m-1.66-2.74,1.42,2.1m0,0V72.3M157.22,75V72.3h.1M152.82,64l.73,1.42h-.25M152.57,64l-.68-1.37m1.42,2.79-.59-1.22m0,0-.64,1.22m0,0h-.19m1.42-2.79h.15L152.82,64m-.93-1.37h.29m-.29,2.79.68-1.42m-.39-1.37.54,1.13.59-1.13m11,8.37V68.87m0,0h.1m0,2.79-1-2.15v2.15h-.1m1.07-2.79v2.79h.1m-1.17-2.79,1,2.11" transform="translate(-0.34)" style="fill:none;stroke:#000;stroke-linecap:round;stroke-linejoin:round;stroke-width:0.156px"/><path d="M143.91,55.51l-.2-.93-.44-.63-.68-.54-.88-.1-.83.1-.68.54-.54.63-.1.93.1.83.54.64.68.59.83,0,.88,0,.68-.59.44-.64Zm14.25,2.94v0h.1v-.1h.1l.1-.1h.1v-.1h.1V58h.1v-.1h0v-.1h.1v-.1h.1v-.1h.1v0l.09-.1v-.1h.1v-.1l.1-.1v-.1l.1-.1v-.1l.1,0v-.2h0v-.29h.1V55.9l.1-.1v-.29m0,0-.2-1.08c-2.27-5.72-10-.14-5.24,3.87l.2.15m-67.16,0v0h.1v-.1h.1l.1-.1h.1v-.1h.1V58H88v-.1h.1v-.1h.1v-.1h.05v-.1l.1,0v-.1h.1v-.1l.1-.1v-.1l.1-.1V57h.1v-.15l.1-.1v-.2h.1v-.39h0v-.64m.1,0-.15-1.08c-2.48-5.6-9.83-.37-5.38,3.87l.29.15m18.26,0v0h.05v-.1h.1l.1-.1h.1v-.1h.1V58h.1v-.1h.1v-.1h.1v-.1h.1v-.1h0v0l.1-.1v-.1h.1v-.1l.1-.1v-.1l.1-.1v-.1l.1,0v-.2h.1v-.29h.1v-.1c0-.4.06-.34.05-.63v-.1m0,0-.15-1.08c-2.37-5.65-9.9-.3-5.34,3.87l.25.15m25.89-22.91.1-.73m-6.07-2.3h-.1v0h-.1v.1h-.1v.1l-.1.1v.1h-.1v.2h-.1v.2h-.1v.15l-.05.1v.19l-.1.1v.34l-.1.1v.83h.1v.39m6.9-.73-.2-1.13-.44-1-.2-.15m26.63,33.43-.29-.1h-.2l-.2-.1a14,14,0,0,0-2.64-.2h-.39a15.27,15.27,0,0,0-2.94.29l-.2.1h-.15l-.2.1h-.2l-.2.1h-.2l-.15.1-.2,0h-.2l-.19.1-.15.1h-.19a3.25,3.25,0,0,1-.93.39l-.2.1-.15,0-.1.1-.19.1c-.35.15-.58.34-.93.49l-.1.1-.19,0c-1.14.58-.17.29-1,.69l-.2,0-.1.2-.2.1L137,69v.1" transform="translate(-0.34)" style="fill:none;stroke:#000;stroke-linecap:round;stroke-linejoin:round;stroke-width:0.488px"/><path d="M202.45,53.7s-.11.3,16.32-.31l11.61-.29m-27.92,3.54s-.07.27,16.41-.41L230.57,56M202.45,60.6s0,.22,16.41-.31L230.57,60m-52.89.51h3.57m-3.57-3.87h3.57m-3.57-3h3.57m-9.94,6.9-2.2-.1h-2.64c-6.41.23-13.52.81-16.59,7.44l-1,2.4-.73,2.5c-1.84,7.64-2.22,16.06-10.67,19.33l-2.84,1-3.33.54m40-37-4.31-.2-3.67-.29L160.21,56l-2.6-.2-2.2.1-2.4.34-2.1,1-2.06,1.56-1.81,2-2.5,3.33L142.14,68l-2.49,4-2.59,4-2.74,3.67-3,3.13M152.72,30.1h.93l1.13.24.88.59.93.73,1,1.66.39,1.91v2.1l-.39,2.4-.54,2.89-.49,2.74-.15,2.2.24,2.06.64,1.17,1.13,1.13,1.86.83,1.91.44,2.4.39,3,.1,3.67-.1m-60.65,20-8.42-2.2-8.08-2.94L88,65.74,82,62.6m0,0L80.37,61l-1.76-1-1.76-.74-2.1-.44-2.11-.29m38-6.8-.78.54-1.52.2-2-.2L103.82,52l-3-.59-3.67-.54-4.4-.64-5.09-.64L82,49M98.68,81.5l-2.59.83c-10.06,2.28-13.23-6.71-13.8-15L82,62.6m28.68,0H82m28.68-32.8-5,1-4.6,1.57-4.36,2.1-4,2.69-3.87,3.28-3.62,4L82,49M92.8,93.49l-3,.1a9.8,9.8,0,0,1-9.3-6.85l-.83-3.38-.25-4.16.34-4.8.83-5.53L82,62.6m64.86-36.47-2.79-3.77-3-3.13-3.38-2.59L134,14.59,130.15,13l-5-1.08L120,11.65l-5.24.54-5.14,1.32-5,2-4.8,2.79-4.41,3.48-4,4.16-2.74,3.87-2.4,4.26-2,4.6-1.47,4.94L82,49m0,0-2.55,1.32-2.59.93-4.21,1.08m38-11.6-5.92-.54-5.63.44L93.68,42l-4,1.76-3.87,2.3L82,49M50.41,53.6l-19.74.65m19.74,4.29L30.67,59.68" transform="translate(-0.34)" style="fill:none;stroke:#000;stroke-miterlimit:10;stroke-width:0.488px"/><path d="M230.37,53.09h1.47l.93-.1m-2.2,3h1l0,.1h1.13M230.57,60h1.37l.83,0" transform="translate(-0.34)" style="fill:none;stroke:#000;stroke-linecap:round;stroke-linejoin:round;stroke-width:0.163px"/><path d="M50.61,61.43s-5.95,1.11-9.27,4.18c-3.54,3.26-6.61,9.32-6.61,9.32M109,87.86l2.3-1.76,1.47-1.47.74-1.27.1-1.22-.39-1-.93-.78L111,79.54l-1.57-.73A104.46,104.46,0,0,1,82.38,67l-4.7-2.79-5-2.74M184,60.5h7.54l.49.1m-8-4h8m-8-3h8" transform="translate(-0.34)" style="fill:none;stroke:#000;stroke-miterlimit:10;stroke-width:0.488px"/><path d="M184,52.38V62m-2.79-9.59V62H184m-2.79-9.59H184m18.4-.64V69.36M192.07,51.74V69.36h10.38M192.07,51.74h10.38M72.64,50.47V62.61" transform="translate(-0.34)" style="fill:none;stroke:#000;stroke-linecap:round;stroke-linejoin:round;stroke-width:0.488px"/><path d="M24.55,74.39l-.29-.64-.54-.49c-1.44-.42-2.38,0-2.79,1.47l.1.73.39.69c1,1.08,2.26.71,3-.39l.2-.64Zm.73-.2-.49-.93L24,72.72l-.88-.39-1,.1-.83.59-.64.73-.29.93.1,1,.44.83.73.64,1,.3.93-.1.93-.44.64-.73.29-.93Zm9.45-.93v3m-9.35-3v3h9.35m-9.35-3h9.35M109,85.76V90m-7.1-4.21V90H109m-7.1-4.21H109" transform="translate(-0.34)" style="fill:none;stroke:#000;stroke-miterlimit:10;stroke-width:0.488px"/><path d="M183.75,49.34h.39a.56.56,0,0,0,.2-.73l-.39-.2h-.2l-.1.1,0,.2-.1.2V49l.1.1.14.2.2-.44Z" transform="translate(-0.34)" style="fill-rule:evenodd"/><path d="M183.75,49.34h.39a.56.56,0,0,0,.2-.73l-.39-.2h-.2l-.1.1,0,.2-.1.2V49l.1.1.14.2.2-.44Zm0,0h.39a.56.56,0,0,0,.2-.73l-.39-.2h-.2l-.1.1,0,.2-.1.2V49l.1.1.14.2.2-.44Z" transform="translate(-0.34)" style="fill:none;stroke:#000;stroke-linecap:round;stroke-linejoin:round;stroke-width:0.488px"/><line x1="33.11" y1="24.68" x2="99.81" y2="37.9" style="fill:none;stroke:#000;stroke-miterlimit:10;stroke-width:0.65px"/><polygon points="97.79 39.81 106.92 39.21 98.71 35.16 97.79 39.81"/><line x1="33.11" y1="24.68" x2="40.85" y2="46.03" style="fill:none;stroke:#000;stroke-miterlimit:10;stroke-width:0.65px"/><polygon points="38.16 45.28 43.41 52.79 42.62 43.67 38.16 45.28"/><line x1="194.65" y1="12.85" x2="161.08" y2="24.72" style="fill:none;stroke:#000;stroke-miterlimit:10;stroke-width:0.65px"/><polygon points="161.85 22.04 154.3 27.22 163.42 26.51 161.85 22.04"/><line x1="212.74" y1="37.9" x2="220.82" y2="46.37" style="fill:none;stroke:#000;stroke-miterlimit:10;stroke-width:0.65px"/><polygon points="218.06 46.77 225.88 51.53 221.49 43.5 218.06 46.77"/><line x1="6.19" y1="58.94" x2="15.03" y2="68.04" style="fill:none;stroke:#000;stroke-miterlimit:10;stroke-width:0.65px"/><polygon points="12.27 68.46 20.13 73.15 15.67 65.16 12.27 68.46"/><line x1="186.08" y1="82.2" x2="135.79" y2="82.55" style="fill:none;stroke:#000;stroke-miterlimit:10;stroke-width:0.65px"/><polygon points="137.39 80.27 128.57 82.7 137.43 85.01 137.39 80.27"/><line x1="186.49" y1="98.1" x2="135.78" y2="94.53" style="fill:none;stroke:#000;stroke-miterlimit:10;stroke-width:0.65px"/><polygon points="137.55 92.38 128.56 94.12 137.21 97.11 137.55 92.38"/><path d="M14.26,15.43V10.77h.94v1.83H17V10.77H18v4.65H17v-2H15.2v2Z" transform="translate(-0.34)"/><path d="M20.9,14.35l.89.15a1.45,1.45,0,0,1-.54.74,1.59,1.59,0,0,1-.92.26,1.51,1.51,0,0,1-1.3-.57,1.94,1.94,0,0,1-.33-1.16,1.86,1.86,0,0,1,.44-1.31A1.44,1.44,0,0,1,20.23,12a1.5,1.5,0,0,1,1.19.5A2.2,2.2,0,0,1,21.84,14H19.6a.9.9,0,0,0,.22.62.68.68,0,0,0,.51.22.55.55,0,0,0,.35-.11A.7.7,0,0,0,20.9,14.35Zm.05-.9a.86.86,0,0,0-.2-.59.61.61,0,0,0-.46-.2.62.62,0,0,0-.48.21.82.82,0,0,0-.19.58Z" transform="translate(-0.34)"/><path d="M23.23,13.08l-.81-.15a1.26,1.26,0,0,1,.47-.72,1.72,1.72,0,0,1,1-.23,2.13,2.13,0,0,1,.89.14.88.88,0,0,1,.41.36,1.83,1.83,0,0,1,.12.8v1a3.66,3.66,0,0,0,0,.66,1.91,1.91,0,0,0,.16.45h-.88c0-.06-.05-.15-.09-.26l0-.1a1.6,1.6,0,0,1-.49.33,1.39,1.39,0,0,1-.56.11,1.15,1.15,0,0,1-.82-.28.94.94,0,0,1-.3-.71,1,1,0,0,1,.14-.51.89.89,0,0,1,.38-.34,3,3,0,0,1,.71-.21,4.86,4.86,0,0,0,.87-.22v-.09a.46.46,0,0,0-.13-.37.76.76,0,0,0-.48-.11.64.64,0,0,0-.37.09A.65.65,0,0,0,23.23,13.08Zm1.19.72-.54.14a1.65,1.65,0,0,0-.49.16.37.37,0,0,0-.17.31.44.44,0,0,0,.14.32.49.49,0,0,0,.36.14.77.77,0,0,0,.46-.16.56.56,0,0,0,.21-.29,1.75,1.75,0,0,0,0-.44Z" transform="translate(-0.34)"/><path d="M27.72,12.06v.71h-.61v1.36a3.36,3.36,0,0,0,0,.48.19.19,0,0,0,.08.11.25.25,0,0,0,.15,0,1.16,1.16,0,0,0,.36-.09l.08.69a1.77,1.77,0,0,1-.7.13,1.12,1.12,0,0,1-.44-.08.63.63,0,0,1-.28-.21.83.83,0,0,1-.13-.35,4.42,4.42,0,0,1,0-.63V12.77h-.41v-.71h.41v-.67l.89-.52v1.19Z" transform="translate(-0.34)"/><path d="M30.29,14.35l.89.15a1.45,1.45,0,0,1-.54.74,1.59,1.59,0,0,1-.92.26,1.51,1.51,0,0,1-1.3-.57,1.94,1.94,0,0,1-.33-1.16,1.86,1.86,0,0,1,.44-1.31A1.44,1.44,0,0,1,29.63,12a1.5,1.5,0,0,1,1.19.5A2.2,2.2,0,0,1,31.23,14H29a.9.9,0,0,0,.22.62.68.68,0,0,0,.51.22.55.55,0,0,0,.35-.11A.7.7,0,0,0,30.29,14.35Zm.05-.9a.86.86,0,0,0-.2-.59.61.61,0,0,0-.46-.2.62.62,0,0,0-.48.21.82.82,0,0,0-.19.58Z" transform="translate(-0.34)"/><path d="M32.81,15.43h-.89V12.06h.83v.48a1.44,1.44,0,0,1,.38-.45.7.7,0,0,1,.39-.11,1.13,1.13,0,0,1,.59.17l-.28.78a.78.78,0,0,0-.42-.15.49.49,0,0,0-.32.1.71.71,0,0,0-.21.37,5.3,5.3,0,0,0-.07,1.13Z" transform="translate(-0.34)"/><path d="M37,15.43l-1.11-4.65h1l.7,3.2.85-3.2h1.12L40.29,14,41,10.77H42l-1.13,4.65h-1l-.93-3.48L38,15.43Z" transform="translate(-0.34)"/><path d="M42.43,11.6v-.83h.89v.83Zm0,3.83V12.06h.89v3.37Z" transform="translate(-0.34)"/><path d="M45.09,15.43H44.2V12.06H45v.48a1.44,1.44,0,0,1,.38-.45.7.7,0,0,1,.39-.11,1.13,1.13,0,0,1,.59.17l-.28.78a.78.78,0,0,0-.42-.15.49.49,0,0,0-.32.1.71.71,0,0,0-.21.37,5.3,5.3,0,0,0-.07,1.13Z" transform="translate(-0.34)"/><path d="M46.76,11.6v-.83h.89v.83Zm0,3.83V12.06h.89v3.37Z" transform="translate(-0.34)"/><path d="M51.63,15.43h-.89V13.71a2.71,2.71,0,0,0-.06-.71.5.5,0,0,0-.19-.25.53.53,0,0,0-.31-.09.71.71,0,0,0-.42.13.64.64,0,0,0-.25.34,2.93,2.93,0,0,0-.07.77v1.53h-.89V12.06h.83v.5A1.38,1.38,0,0,1,51,12.09a.9.9,0,0,1,.37.27,1,1,0,0,1,.17.38,2.82,2.82,0,0,1,0,.6Z" transform="translate(-0.34)"/><path d="M52.46,15.65l1,.12a.35.35,0,0,0,.12.24.67.67,0,0,0,.4.1,1,1,0,0,0,.52-.1.43.43,0,0,0,.18-.23,1.32,1.32,0,0,0,0-.41v-.49a1.21,1.21,0,0,1-1,.55,1.24,1.24,0,0,1-1.08-.57,2,2,0,0,1-.31-1.13,1.85,1.85,0,0,1,.41-1.29,1.31,1.31,0,0,1,1-.45,1.23,1.23,0,0,1,1,.55v-.47h.83v3a3,3,0,0,1-.1.89,1.1,1.1,0,0,1-.28.46,1.22,1.22,0,0,1-.47.26,2.5,2.5,0,0,1-.75.1,1.94,1.94,0,0,1-1.22-.29.92.92,0,0,1-.36-.74S52.46,15.69,52.46,15.65Zm.8-2a1.21,1.21,0,0,0,.21.79.64.64,0,0,0,.51.25.71.71,0,0,0,.55-.26,1.11,1.11,0,0,0,.23-.76,1.18,1.18,0,0,0-.22-.78.69.69,0,0,0-.55-.25.66.66,0,0,0-.53.25A1.17,1.17,0,0,0,53.25,13.67Z" transform="translate(-0.34)"/><path d="M1.95,24.59H1.33a6.19,6.19,0,0,1-.74-1.52,5,5,0,0,1-.25-1.53,4.79,4.79,0,0,1,.31-1.74,6.09,6.09,0,0,1,.69-1.31H2a9.67,9.67,0,0,0-.6,1.64,6.17,6.17,0,0,0-.07,2.5,7.06,7.06,0,0,0,.26,1Q1.67,24,1.95,24.59Z" transform="translate(-0.34)"/><path d="M2.64,23.23V18.57H5.83v.79H3.58v1.1H5.53v.79H3.58v2Z" transform="translate(-0.34)"/><path d="M7.27,20.88l-.81-.15A1.26,1.26,0,0,1,6.93,20a1.72,1.72,0,0,1,1-.23,2.13,2.13,0,0,1,.89.14.88.88,0,0,1,.41.36,1.83,1.83,0,0,1,.12.8v1a3.66,3.66,0,0,0,0,.66,1.91,1.91,0,0,0,.16.45H8.65c0-.06-.05-.15-.09-.26l0-.1a1.6,1.6,0,0,1-.49.33,1.39,1.39,0,0,1-.56.11A1.15,1.15,0,0,1,6.67,23a.94.94,0,0,1-.3-.71,1,1,0,0,1,.14-.51.89.89,0,0,1,.38-.34,3,3,0,0,1,.71-.21A4.86,4.86,0,0,0,8.46,21v-.09a.46.46,0,0,0-.13-.37.76.76,0,0,0-.48-.11.64.64,0,0,0-.37.09A.65.65,0,0,0,7.27,20.88Zm1.19.72-.54.14a1.65,1.65,0,0,0-.49.16.37.37,0,0,0-.17.31.44.44,0,0,0,.14.32.49.49,0,0,0,.36.14.77.77,0,0,0,.46-.16.56.56,0,0,0,.21-.29,1.75,1.75,0,0,0,0-.44Z" transform="translate(-0.34)"/><path d="M13.16,20.85l-.88.16a.64.64,0,0,0-.2-.4.61.61,0,0,0-.41-.13.67.67,0,0,0-.53.23,1.17,1.17,0,0,0-.2.77,1.36,1.36,0,0,0,.2.85.66.66,0,0,0,.54.25.6.6,0,0,0,.42-.14.87.87,0,0,0,.23-.5l.88.15a1.55,1.55,0,0,1-.52.91,1.62,1.62,0,0,1-1,.31,1.54,1.54,0,0,1-1.18-.47A1.81,1.81,0,0,1,10,21.54a1.81,1.81,0,0,1,.44-1.3,1.57,1.57,0,0,1,1.19-.46,1.63,1.63,0,0,1,1,.27A1.47,1.47,0,0,1,13.16,20.85Z" transform="translate(-0.34)"/><path d="M15.38,19.86v.71h-.61v1.36a3.36,3.36,0,0,0,0,.48.19.19,0,0,0,.08.11.25.25,0,0,0,.15,0,1.16,1.16,0,0,0,.36-.09l.08.69a1.77,1.77,0,0,1-.7.13,1.12,1.12,0,0,1-.44-.08A.63.63,0,0,1,14,23a.83.83,0,0,1-.13-.35,4.42,4.42,0,0,1,0-.63V20.57h-.41v-.71h.41v-.67l.89-.52v1.19Z" transform="translate(-0.34)"/><path d="M15.79,21.49a1.82,1.82,0,0,1,.22-.86,1.5,1.5,0,0,1,.62-.63,1.84,1.84,0,0,1,.9-.22,1.68,1.68,0,0,1,1.25.5,1.71,1.71,0,0,1,.49,1.26,1.74,1.74,0,0,1-.49,1.27,1.67,1.67,0,0,1-1.24.5,2,2,0,0,1-.88-.21,1.43,1.43,0,0,1-.64-.61A2,2,0,0,1,15.79,21.49Zm.91,0a1.12,1.12,0,0,0,.24.77.78.78,0,0,0,1.17,0,1.13,1.13,0,0,0,.24-.77,1.11,1.11,0,0,0-.24-.76.78.78,0,0,0-1.17,0A1.12,1.12,0,0,0,16.7,21.54Z" transform="translate(-0.34)"/><path d="M20.82,23.23h-.89V19.86h.83v.48a1.44,1.44,0,0,1,.38-.45.7.7,0,0,1,.39-.11,1.13,1.13,0,0,1,.59.17l-.28.78a.78.78,0,0,0-.42-.15.49.49,0,0,0-.32.1.71.71,0,0,0-.21.37,5.3,5.3,0,0,0-.07,1.13Z" transform="translate(-0.34)"/><path d="M22.07,19.86H23l.81,2.39.79-2.39h.92L24.35,23.1l-.21.59a2.42,2.42,0,0,1-.22.45,1,1,0,0,1-.24.25,1.09,1.09,0,0,1-.34.15,1.76,1.76,0,0,1-.46.05,2.35,2.35,0,0,1-.5-.05l-.08-.7a2,2,0,0,0,.38,0,.56.56,0,0,0,.46-.18,1.26,1.26,0,0,0,.23-.46Z" transform="translate(-0.34)"/><path d="M27.89,23.23V18.57h.94v4.65Z" transform="translate(-0.34)"/><path d="M32.79,23.23H31.9V21.51a2.71,2.71,0,0,0-.06-.71.5.5,0,0,0-.19-.25.53.53,0,0,0-.31-.09.71.71,0,0,0-.42.13.64.64,0,0,0-.25.34,2.93,2.93,0,0,0-.07.77v1.53h-.89V19.86h.83v.5a1.38,1.38,0,0,1,1.65-.46.9.9,0,0,1,.37.27,1,1,0,0,1,.17.38,2.82,2.82,0,0,1,0,.6Z" transform="translate(-0.34)"/><path d="M33.38,22.26l.89-.14a.66.66,0,0,0,.23.4.78.78,0,0,0,.49.13.88.88,0,0,0,.52-.13.28.28,0,0,0,.12-.24.23.23,0,0,0-.06-.17.71.71,0,0,0-.3-.12,4.82,4.82,0,0,1-1.37-.43.87.87,0,0,1-.4-.76.93.93,0,0,1,.35-.74,1.62,1.62,0,0,1,1.07-.3,1.87,1.87,0,0,1,1,.23,1.15,1.15,0,0,1,.46.67l-.84.16a.52.52,0,0,0-.21-.3.75.75,0,0,0-.43-.1,1,1,0,0,0-.5.1.21.21,0,0,0-.1.18.2.2,0,0,0,.09.16,3.36,3.36,0,0,0,.83.25,2.48,2.48,0,0,1,1,.4.82.82,0,0,1,.28.66,1,1,0,0,1-.39.8A1.72,1.72,0,0,1,35,23.3,1.88,1.88,0,0,1,33.9,23,1.28,1.28,0,0,1,33.38,22.26Z" transform="translate(-0.34)"/><path d="M38.85,19.86v.71h-.61v1.36a3.36,3.36,0,0,0,0,.48.19.19,0,0,0,.08.11.25.25,0,0,0,.15,0,1.16,1.16,0,0,0,.36-.09l.08.69a1.77,1.77,0,0,1-.7.13,1.12,1.12,0,0,1-.44-.08A.63.63,0,0,1,37.5,23a.83.83,0,0,1-.13-.35,4.42,4.42,0,0,1,0-.63V20.57h-.41v-.71h.41v-.67l.89-.52v1.19Z" transform="translate(-0.34)"/><path d="M40.14,20.88l-.81-.15A1.26,1.26,0,0,1,39.8,20a1.72,1.72,0,0,1,1-.23,2.13,2.13,0,0,1,.89.14.88.88,0,0,1,.41.36,1.83,1.83,0,0,1,.12.8v1a3.66,3.66,0,0,0,0,.66,1.91,1.91,0,0,0,.16.45h-.88c0-.06-.05-.15-.09-.26l0-.1a1.6,1.6,0,0,1-.49.33,1.39,1.39,0,0,1-.56.11,1.15,1.15,0,0,1-.82-.28.94.94,0,0,1-.3-.71,1,1,0,0,1,.14-.51.89.89,0,0,1,.38-.34,3,3,0,0,1,.71-.21,4.86,4.86,0,0,0,.87-.22v-.09a.46.46,0,0,0-.13-.37.76.76,0,0,0-.48-.11.64.64,0,0,0-.37.09A.65.65,0,0,0,40.14,20.88Zm1.19.72-.54.14a1.65,1.65,0,0,0-.49.16.37.37,0,0,0-.17.31.44.44,0,0,0,.14.32.49.49,0,0,0,.36.14.77.77,0,0,0,.46-.16.56.56,0,0,0,.21-.29,1.75,1.75,0,0,0,0-.44Z" transform="translate(-0.34)"/><path d="M43.09,23.23V18.57H44v4.65Z" transform="translate(-0.34)"/><path d="M44.89,23.23V18.57h.89v4.65Z" transform="translate(-0.34)"/><path d="M48.65,22.15l.89.15A1.45,1.45,0,0,1,49,23a1.59,1.59,0,0,1-.92.26,1.51,1.51,0,0,1-1.3-.57,1.94,1.94,0,0,1-.33-1.16,1.86,1.86,0,0,1,.44-1.31A1.44,1.44,0,0,1,48,19.78a1.5,1.5,0,0,1,1.19.5,2.2,2.2,0,0,1,.42,1.52H47.35a.9.9,0,0,0,.22.62.68.68,0,0,0,.51.22.55.55,0,0,0,.35-.11A.7.7,0,0,0,48.65,22.15Zm.05-.9a.86.86,0,0,0-.2-.59.61.61,0,0,0-.46-.2.62.62,0,0,0-.48.21.82.82,0,0,0-.19.58Z" transform="translate(-0.34)"/><path d="M53.41,23.23h-.83v-.5a1.34,1.34,0,0,1-.49.43,1.25,1.25,0,0,1-.57.14,1.29,1.29,0,0,1-1-.47,1.9,1.9,0,0,1-.41-1.31,1.88,1.88,0,0,1,.4-1.3,1.31,1.31,0,0,1,1-.45,1.26,1.26,0,0,1,1,.47V18.57h.89ZM51,21.47a1.55,1.55,0,0,0,.15.78.68.68,0,0,0,.6.35.66.66,0,0,0,.52-.26,1.21,1.21,0,0,0,.22-.78,1.32,1.32,0,0,0-.21-.84.66.66,0,0,0-.54-.26.67.67,0,0,0-.53.25A1.14,1.14,0,0,0,51,21.47Z" transform="translate(-0.34)"/><path d="M54,24.59q.26-.57.37-.87a6.39,6.39,0,0,0,.2-.69,7.16,7.16,0,0,0,.14-.75,5.88,5.88,0,0,0,0-.73,6.14,6.14,0,0,0-.16-1.43,9.55,9.55,0,0,0-.6-1.64h.61a5.81,5.81,0,0,1,.75,1.45,4.71,4.71,0,0,1,.26,1.55,5.39,5.39,0,0,1-.21,1.42,6,6,0,0,1-.78,1.68Z" transform="translate(-0.34)"/><path d="M4.86,50.72V46.06H6.26l.84,3.17.83-3.17H9.35v4.65H8.48V47.05l-.92,3.66h-.9l-.92-3.66v3.66Z" transform="translate(-0.34)"/><path d="M10.09,48.42a3,3,0,0,1,.21-1.19,2.17,2.17,0,0,1,.43-.64,1.8,1.8,0,0,1,.6-.42,2.55,2.55,0,0,1,1-.18,2.19,2.19,0,0,1,1.65.64,2.85,2.85,0,0,1,0,3.54,2.17,2.17,0,0,1-1.64.64,2.19,2.19,0,0,1-1.65-.63A2.4,2.4,0,0,1,10.09,48.42Zm1,0a1.74,1.74,0,0,0,.37,1.2,1.19,1.19,0,0,0,.93.41,1.18,1.18,0,0,0,.92-.4,1.78,1.78,0,0,0,.36-1.21,1.75,1.75,0,0,0-.35-1.19,1.3,1.3,0,0,0-1.87,0A1.76,1.76,0,0,0,11.06,48.39Z" transform="translate(-0.34)"/><path d="M16.53,50.72l-1.66-4.65h1l1.18,3.44,1.14-3.44h1l-1.67,4.65Z" transform="translate(-0.34)"/><path d="M2.7,56v-.78h2v1.85a2.53,2.53,0,0,1-.86.5,3.12,3.12,0,0,1-1.13.22,2.55,2.55,0,0,1-1.27-.31,2,2,0,0,1-.82-.88,2.84,2.84,0,0,1-.27-1.24,2.68,2.68,0,0,1,.3-1.29,2.05,2.05,0,0,1,.89-.87A2.41,2.41,0,0,1,2.69,53,2.23,2.23,0,0,1,4,53.35a1.64,1.64,0,0,1,.63,1l-.93.17A1,1,0,0,0,3.36,54a1.12,1.12,0,0,0-.68-.2,1.27,1.27,0,0,0-1,.39,1.65,1.65,0,0,0-.36,1.16,1.82,1.82,0,0,0,.37,1.24,1.23,1.23,0,0,0,1,.41,1.62,1.62,0,0,0,.59-.12,2,2,0,0,0,.51-.28V56Z" transform="translate(-0.34)"/><path d="M6.44,57.72H5.55V54.34h.83v.48a1.44,1.44,0,0,1,.38-.45.7.7,0,0,1,.39-.11,1.13,1.13,0,0,1,.59.17l-.28.78A.78.78,0,0,0,7,55.07a.49.49,0,0,0-.32.1.71.71,0,0,0-.21.37,5.3,5.3,0,0,0-.07,1.13Z" transform="translate(-0.34)"/><path d="M7.91,56a1.82,1.82,0,0,1,.22-.86,1.5,1.5,0,0,1,.62-.63,1.84,1.84,0,0,1,.9-.22,1.68,1.68,0,0,1,1.25.5A1.71,1.71,0,0,1,11.39,56a1.73,1.73,0,0,1-.49,1.27,1.67,1.67,0,0,1-1.24.5,2,2,0,0,1-.88-.21A1.44,1.44,0,0,1,8.13,57,2,2,0,0,1,7.91,56Zm.91,0a1.12,1.12,0,0,0,.24.77.78.78,0,0,0,1.17,0,1.13,1.13,0,0,0,.24-.77,1.11,1.11,0,0,0-.24-.76.78.78,0,0,0-1.17,0A1.12,1.12,0,0,0,8.83,56Z" transform="translate(-0.34)"/><path d="M14.31,57.72v-.51a1.29,1.29,0,0,1-.48.43,1.36,1.36,0,0,1-.63.16,1.24,1.24,0,0,1-.61-.15.87.87,0,0,1-.39-.42,1.86,1.86,0,0,1-.12-.75V54.34H13v1.55a4.28,4.28,0,0,0,0,.87.47.47,0,0,0,.18.25.55.55,0,0,0,.33.09.71.71,0,0,0,.41-.12.64.64,0,0,0,.25-.31,3.59,3.59,0,0,0,.07-.91V54.34h.89v3.37Z" transform="translate(-0.34)"/><path d="M19.12,57.72h-.89V56a2.71,2.71,0,0,0-.06-.71A.5.5,0,0,0,18,55a.53.53,0,0,0-.31-.09.71.71,0,0,0-.42.13.64.64,0,0,0-.25.34,2.93,2.93,0,0,0-.07.77v1.53h-.89V54.34h.83v.5a1.38,1.38,0,0,1,1.65-.46.9.9,0,0,1,.37.27,1,1,0,0,1,.17.38,2.82,2.82,0,0,1,0,.6Z" transform="translate(-0.34)"/><path d="M23.12,57.72h-.83v-.5a1.34,1.34,0,0,1-.49.43,1.24,1.24,0,0,1-.57.14,1.28,1.28,0,0,1-1-.47A1.9,1.9,0,0,1,19.83,56a1.88,1.88,0,0,1,.4-1.3,1.31,1.31,0,0,1,1-.45,1.26,1.26,0,0,1,1,.47V53.06h.89ZM20.74,56a1.55,1.55,0,0,0,.15.78.67.67,0,0,0,.6.35.66.66,0,0,0,.52-.26,1.21,1.21,0,0,0,.22-.78,1.32,1.32,0,0,0-.21-.84.66.66,0,0,0-.54-.26.67.67,0,0,0-.53.25A1.14,1.14,0,0,0,20.74,56Z" transform="translate(-0.34)"/><path d="M200.66,9.94V9.15h2V11a2.54,2.54,0,0,1-.86.5,3.11,3.11,0,0,1-1.13.22,2.55,2.55,0,0,1-1.27-.31,2,2,0,0,1-.82-.88,2.84,2.84,0,0,1-.27-1.24,2.68,2.68,0,0,1,.3-1.29,2.05,2.05,0,0,1,.89-.87,2.41,2.41,0,0,1,1.11-.23,2.23,2.23,0,0,1,1.35.36,1.64,1.64,0,0,1,.63,1l-.93.17a1,1,0,0,0-.37-.54,1.12,1.12,0,0,0-.68-.2,1.27,1.27,0,0,0-1,.39,1.65,1.65,0,0,0-.36,1.16,1.82,1.82,0,0,0,.37,1.24,1.23,1.23,0,0,0,1,.41,1.62,1.62,0,0,0,.59-.12,2,2,0,0,0,.51-.28V9.94Z" transform="translate(-0.34)"/><path d="M204.4,11.65h-.89V8.28h.83v.48a1.44,1.44,0,0,1,.38-.45.7.7,0,0,1,.39-.11,1.13,1.13,0,0,1,.59.17l-.28.78A.78.78,0,0,0,205,9a.49.49,0,0,0-.32.1.71.71,0,0,0-.21.37,5.3,5.3,0,0,0-.07,1.13Z" transform="translate(-0.34)"/><path d="M205.87,9.92a1.82,1.82,0,0,1,.22-.86,1.5,1.5,0,0,1,.62-.63,1.84,1.84,0,0,1,.9-.22,1.68,1.68,0,0,1,1.25.5,1.71,1.71,0,0,1,.49,1.26,1.74,1.74,0,0,1-.49,1.27,1.67,1.67,0,0,1-1.24.5,2,2,0,0,1-.88-.21,1.43,1.43,0,0,1-.64-.61A2,2,0,0,1,205.87,9.92Zm.91,0a1.12,1.12,0,0,0,.24.77.78.78,0,0,0,1.17,0,1.13,1.13,0,0,0,.24-.77,1.11,1.11,0,0,0-.24-.76.78.78,0,0,0-1.17,0A1.12,1.12,0,0,0,206.79,10Z" transform="translate(-0.34)"/><path d="M212.27,11.65v-.5a1.3,1.3,0,0,1-.48.43,1.36,1.36,0,0,1-.63.16,1.24,1.24,0,0,1-.61-.15.87.87,0,0,1-.39-.42,1.86,1.86,0,0,1-.12-.75V8.28h.89V9.83a4.27,4.27,0,0,0,0,.87.47.47,0,0,0,.18.25.55.55,0,0,0,.33.09.7.7,0,0,0,.41-.13.64.64,0,0,0,.25-.31,3.59,3.59,0,0,0,.07-.91V8.28h.89v3.37Z" transform="translate(-0.34)"/><path d="M217.08,11.65h-.89V9.93a2.71,2.71,0,0,0-.06-.71A.5.5,0,0,0,216,9a.53.53,0,0,0-.31-.09.71.71,0,0,0-.42.13.64.64,0,0,0-.25.34,2.93,2.93,0,0,0-.07.77v1.53H214V8.28h.83v.5a1.38,1.38,0,0,1,1.65-.46.9.9,0,0,1,.37.27A1,1,0,0,1,217,9a2.82,2.82,0,0,1,0,.6Z" transform="translate(-0.34)"/><path d="M221.08,11.65h-.83v-.5a1.34,1.34,0,0,1-.49.43,1.25,1.25,0,0,1-.57.14,1.29,1.29,0,0,1-1-.47,1.9,1.9,0,0,1-.41-1.31,1.88,1.88,0,0,1,.4-1.3,1.31,1.31,0,0,1,1-.45,1.26,1.26,0,0,1,1,.47V7h.89ZM218.7,9.89a1.55,1.55,0,0,0,.15.78.68.68,0,0,0,.6.35.66.66,0,0,0,.52-.26,1.21,1.21,0,0,0,.22-.78,1.32,1.32,0,0,0-.21-.84.66.66,0,0,0-.54-.26.67.67,0,0,0-.53.25A1.14,1.14,0,0,0,218.7,9.89Z" transform="translate(-0.34)"/><path d="M197.73,19.45V15.58h-1.38V14.8h3.7v.79h-1.38v3.87Z" transform="translate(-0.34)"/><path d="M202.6,18.38l.89.15a1.45,1.45,0,0,1-.54.74,1.59,1.59,0,0,1-.92.26,1.51,1.51,0,0,1-1.3-.57,1.94,1.94,0,0,1-.33-1.16,1.86,1.86,0,0,1,.44-1.31,1.44,1.44,0,0,1,1.11-.47,1.5,1.5,0,0,1,1.19.5,2.2,2.2,0,0,1,.42,1.52H201.3a.9.9,0,0,0,.22.62.68.68,0,0,0,.51.22.55.55,0,0,0,.35-.11A.7.7,0,0,0,202.6,18.38Zm.05-.9a.86.86,0,0,0-.2-.59.61.61,0,0,0-.46-.2.62.62,0,0,0-.48.21.82.82,0,0,0-.19.58Z" transform="translate(-0.34)"/><path d="M205.12,19.45h-.89V16.08h.83v.48a1.44,1.44,0,0,1,.38-.45.7.7,0,0,1,.39-.11,1.13,1.13,0,0,1,.59.17l-.28.78a.78.78,0,0,0-.42-.15.49.49,0,0,0-.32.1.71.71,0,0,0-.21.37,5.3,5.3,0,0,0-.07,1.13Z" transform="translate(-0.34)"/><path d="M206.73,16.08h.82v.46A1.32,1.32,0,0,1,208.6,16a1.13,1.13,0,0,1,.56.13,1,1,0,0,1,.39.4,1.55,1.55,0,0,1,.48-.4,1.17,1.17,0,0,1,.55-.13,1.22,1.22,0,0,1,.63.15.93.93,0,0,1,.38.44,1.92,1.92,0,0,1,.09.7v2.16h-.89V17.52a1.43,1.43,0,0,0-.09-.65.42.42,0,0,0-.38-.19.61.61,0,0,0-.35.11.63.63,0,0,0-.24.33,2.4,2.4,0,0,0-.07.7v1.62h-.89V17.6a2.53,2.53,0,0,0,0-.63.4.4,0,0,0-.15-.21.46.46,0,0,0-.27-.07.65.65,0,0,0-.37.11.61.61,0,0,0-.24.32,2.38,2.38,0,0,0-.07.7v1.64h-.89Z" transform="translate(-0.34)"/><path d="M212.58,15.62V14.8h.89v.83Zm0,3.83V16.08h.89v3.37Z" transform="translate(-0.34)"/><path d="M217.45,19.45h-.89V17.73a2.71,2.71,0,0,0-.06-.71.5.5,0,0,0-.19-.25.53.53,0,0,0-.31-.09.71.71,0,0,0-.42.13.64.64,0,0,0-.25.34,2.93,2.93,0,0,0-.07.77v1.53h-.89V16.08h.83v.5a1.38,1.38,0,0,1,1.65-.46.9.9,0,0,1,.37.27,1,1,0,0,1,.17.38,2.82,2.82,0,0,1,0,.6Z" transform="translate(-0.34)"/><path d="M219,17.11l-.81-.15a1.26,1.26,0,0,1,.47-.72,1.72,1.72,0,0,1,1-.23,2.13,2.13,0,0,1,.89.14.88.88,0,0,1,.41.36,1.83,1.83,0,0,1,.12.8v1a3.66,3.66,0,0,0,0,.66,1.91,1.91,0,0,0,.16.45h-.88c0-.06-.05-.15-.09-.26l0-.1a1.6,1.6,0,0,1-.49.33,1.39,1.39,0,0,1-.56.11,1.15,1.15,0,0,1-.82-.28.94.94,0,0,1-.3-.71,1,1,0,0,1,.14-.51.89.89,0,0,1,.38-.34,3,3,0,0,1,.71-.21,4.86,4.86,0,0,0,.87-.22v-.09a.46.46,0,0,0-.13-.37.76.76,0,0,0-.48-.11.64.64,0,0,0-.37.09A.65.65,0,0,0,219,17.11Zm1.19.72-.54.14a1.65,1.65,0,0,0-.49.16.37.37,0,0,0-.17.31.44.44,0,0,0,.14.32.49.49,0,0,0,.36.14.77.77,0,0,0,.46-.16.56.56,0,0,0,.21-.29,1.75,1.75,0,0,0,0-.44Z" transform="translate(-0.34)"/><path d="M222,19.45V14.8h.89v4.65Z" transform="translate(-0.34)"/><path d="M194.22,30.84h.94v2.95a3,3,0,0,1-.1.89,1.26,1.26,0,0,1-.5.65,1.64,1.64,0,0,1-.95.25,1.41,1.41,0,0,1-1.06-.39,1.58,1.58,0,0,1-.37-1.13l.88-.1a1.23,1.23,0,0,0,.12.56.5.5,0,0,0,.46.25.51.51,0,0,0,.44-.18,1.41,1.41,0,0,0,.13-.74Z" transform="translate(-0.34)"/><path d="M198.37,35.49V35a1.3,1.3,0,0,1-.48.43,1.36,1.36,0,0,1-.63.16,1.24,1.24,0,0,1-.61-.15.87.87,0,0,1-.39-.42,1.86,1.86,0,0,1-.12-.75V32.12H197v1.55a4.27,4.27,0,0,0,0,.87.47.47,0,0,0,.18.25.55.55,0,0,0,.33.09.7.7,0,0,0,.41-.13.64.64,0,0,0,.25-.31,3.59,3.59,0,0,0,.07-.91V32.12h.89v3.37Z" transform="translate(-0.34)"/><path d="M200.06,32.12h.82v.46a1.32,1.32,0,0,1,1.05-.54,1.13,1.13,0,0,1,.56.13,1,1,0,0,1,.39.4,1.55,1.55,0,0,1,.48-.4,1.17,1.17,0,0,1,.55-.13,1.22,1.22,0,0,1,.63.15.93.93,0,0,1,.38.44,1.92,1.92,0,0,1,.09.7v2.16h-.89V33.56a1.43,1.43,0,0,0-.09-.65.42.42,0,0,0-.38-.19.61.61,0,0,0-.35.11.63.63,0,0,0-.24.33,2.4,2.4,0,0,0-.07.7v1.62h-.89V33.64a2.53,2.53,0,0,0,0-.63.4.4,0,0,0-.15-.21.46.46,0,0,0-.27-.07.65.65,0,0,0-.37.11.61.61,0,0,0-.24.32,2.38,2.38,0,0,0-.07.7v1.64h-.89Z" transform="translate(-0.34)"/><path d="M205.88,32.12h.83v.5a1.25,1.25,0,0,1,.44-.41,1.2,1.2,0,0,1,.61-.16,1.29,1.29,0,0,1,1,.46,1.86,1.86,0,0,1,.41,1.28,1.92,1.92,0,0,1-.41,1.31,1.29,1.29,0,0,1-1,.47,1.13,1.13,0,0,1-.51-.11,1.69,1.69,0,0,1-.48-.38v1.7h-.89Zm.88,1.63a1.3,1.3,0,0,0,.23.84.69.69,0,0,0,.55.27.64.64,0,0,0,.52-.25,1.28,1.28,0,0,0,.21-.82A1.22,1.22,0,0,0,208,33a.66.66,0,0,0-.53-.26A.69.69,0,0,0,207,33,1.12,1.12,0,0,0,206.76,33.75Z" transform="translate(-0.34)"/><path d="M211.82,34.42l.89.15a1.45,1.45,0,0,1-.54.74,1.59,1.59,0,0,1-.92.26,1.51,1.51,0,0,1-1.3-.57,1.94,1.94,0,0,1-.33-1.16,1.86,1.86,0,0,1,.44-1.31,1.44,1.44,0,0,1,1.11-.47,1.5,1.5,0,0,1,1.19.5,2.2,2.2,0,0,1,.42,1.52h-2.23a.9.9,0,0,0,.22.62.68.68,0,0,0,.51.22.55.55,0,0,0,.35-.11A.7.7,0,0,0,211.82,34.42Zm.05-.9a.86.86,0,0,0-.2-.59.61.61,0,0,0-.46-.2.62.62,0,0,0-.48.21.82.82,0,0,0-.19.58Z" transform="translate(-0.34)"/><path d="M214.34,35.49h-.89V32.12h.83v.48a1.44,1.44,0,0,1,.38-.45A.7.7,0,0,1,215,32a1.13,1.13,0,0,1,.59.17l-.28.78a.78.78,0,0,0-.42-.15.49.49,0,0,0-.32.1.71.71,0,0,0-.21.37,5.3,5.3,0,0,0-.07,1.13Z" transform="translate(-0.34)"/><path d="M218.49,35.49l-1.11-4.65h1L219,34l.85-3.2H221l.82,3.25.71-3.25h.95l-1.13,4.65h-1L220.43,32l-.92,3.48Z" transform="translate(-0.34)"/><path d="M224,31.66v-.83h.89v.83Zm0,3.83V32.12h.89v3.37Z" transform="translate(-0.34)"/><path d="M226.62,35.49h-.89V32.12h.83v.48a1.44,1.44,0,0,1,.38-.45.7.7,0,0,1,.39-.11,1.13,1.13,0,0,1,.59.17l-.28.78a.78.78,0,0,0-.42-.15.49.49,0,0,0-.32.1.71.71,0,0,0-.21.37,5.3,5.3,0,0,0-.07,1.13Z" transform="translate(-0.34)"/><path d="M230.25,34.42l.89.15a1.45,1.45,0,0,1-.54.74,1.59,1.59,0,0,1-.92.26,1.51,1.51,0,0,1-1.3-.57,1.94,1.94,0,0,1-.33-1.16,1.86,1.86,0,0,1,.44-1.31,1.44,1.44,0,0,1,1.11-.47,1.5,1.5,0,0,1,1.19.5,2.2,2.2,0,0,1,.42,1.52h-2.23a.9.9,0,0,0,.22.62.68.68,0,0,0,.51.22.55.55,0,0,0,.35-.11A.7.7,0,0,0,230.25,34.42Zm.05-.9a.86.86,0,0,0-.2-.59.61.61,0,0,0-.46-.2.62.62,0,0,0-.48.21.82.82,0,0,0-.19.58Z" transform="translate(-0.34)"/><path d="M190.11,82.64V78H191v3.83h2.34v.78Z" transform="translate(-0.34)"/><path d="M196.14,82.64h-.89V79.28a3.08,3.08,0,0,1-1.15.68v-.81a2.56,2.56,0,0,0,.76-.43,1.63,1.63,0,0,0,.56-.74h.72Z" transform="translate(-0.34)"/><path d="M189.31,100.1V95.45h.91l1.9,3.11V95.45H193v4.65h-.94l-1.87-3v3Z" transform="translate(-0.34)"/><path d="M195.94,99l.89.15a1.45,1.45,0,0,1-.54.75,1.59,1.59,0,0,1-.92.25,1.51,1.51,0,0,1-1.3-.57,1.94,1.94,0,0,1-.33-1.16,1.86,1.86,0,0,1,.44-1.31,1.44,1.44,0,0,1,1.11-.47,1.5,1.5,0,0,1,1.19.5,2.2,2.2,0,0,1,.42,1.52h-2.23a.9.9,0,0,0,.22.62.68.68,0,0,0,.51.22.55.55,0,0,0,.35-.11A.7.7,0,0,0,195.94,99Zm.05-.9a.86.86,0,0,0-.2-.59.64.64,0,0,0-.95,0,.82.82,0,0,0-.19.58Z" transform="translate(-0.34)"/><path d="M199.82,100.1v-.5a1.3,1.3,0,0,1-.48.43,1.36,1.36,0,0,1-.63.16,1.24,1.24,0,0,1-.61-.15.87.87,0,0,1-.39-.42,1.86,1.86,0,0,1-.12-.75V96.73h.89v1.55a4.28,4.28,0,0,0,0,.87.47.47,0,0,0,.18.25.55.55,0,0,0,.33.09.71.71,0,0,0,.41-.13.63.63,0,0,0,.25-.31,3.58,3.58,0,0,0,.07-.91V96.73h.89v3.37Z" transform="translate(-0.34)"/><path d="M203.12,96.73v.71h-.61V98.8a3.37,3.37,0,0,0,0,.48.19.19,0,0,0,.08.11.25.25,0,0,0,.15,0,1.17,1.17,0,0,0,.36-.09l.08.69a1.75,1.75,0,0,1-.7.13,1.11,1.11,0,0,1-.44-.08.62.62,0,0,1-.28-.21.83.83,0,0,1-.13-.35,4.42,4.42,0,0,1,0-.63V97.44h-.41v-.71h.41v-.67l.89-.52v1.19Z" transform="translate(-0.34)"/><path d="M204.59,100.1h-.89V96.73h.83v.48a1.44,1.44,0,0,1,.38-.45.7.7,0,0,1,.39-.11,1.13,1.13,0,0,1,.59.17l-.28.78a.78.78,0,0,0-.42-.15.5.5,0,0,0-.32.1.7.7,0,0,0-.21.37,5.3,5.3,0,0,0-.07,1.13Z" transform="translate(-0.34)"/><path d="M206.93,97.76l-.81-.15a1.26,1.26,0,0,1,.47-.72,1.72,1.72,0,0,1,1-.23,2.14,2.14,0,0,1,.89.14.88.88,0,0,1,.41.36,1.82,1.82,0,0,1,.12.8v1a3.66,3.66,0,0,0,0,.66,1.92,1.92,0,0,0,.16.45h-.88c0-.06-.05-.15-.09-.26l0-.1a1.58,1.58,0,0,1-.49.33,1.39,1.39,0,0,1-.56.11,1.15,1.15,0,0,1-.82-.28.94.94,0,0,1-.3-.71,1,1,0,0,1,.14-.51.89.89,0,0,1,.38-.34,3,3,0,0,1,.71-.21,4.86,4.86,0,0,0,.87-.22v-.09a.46.46,0,0,0-.13-.37.76.76,0,0,0-.48-.11.64.64,0,0,0-.37.09A.66.66,0,0,0,206.93,97.76Zm1.19.72-.54.14a1.66,1.66,0,0,0-.49.16.37.37,0,0,0-.17.31.44.44,0,0,0,.14.32.49.49,0,0,0,.36.14.77.77,0,0,0,.46-.16.56.56,0,0,0,.21-.29,1.75,1.75,0,0,0,0-.43Z" transform="translate(-0.34)"/><path d="M209.88,100.1V95.45h.89v4.65Z" transform="translate(-0.34)"/></svg>