<svg id="alternate_note_text" data-name="alternate note text" xmlns="http://www.w3.org/2000/svg" viewBox="0 0 293.9 348.74"><title>pwr_vent_vert_instlltn_plus_clrnce</title><path d="M120.25,235.79q.22-58,.12-116" transform="translate(0 -1.3)" style="fill:none;stroke:#000;stroke-linecap:round;stroke-linejoin:round"/><path d="M93.63,119.75q-.31,51.79-.16,103.57" transform="translate(0 -1.3)" style="fill:none;stroke:#000;stroke-linecap:round;stroke-linejoin:round"/><path d="M120.37,345.53q0-18.09,0-36.18" transform="translate(0 -1.3)" style="fill:none;stroke:#000;stroke-linecap:round;stroke-linejoin:round"/><path d="M93.63,301.75q-.15,15.37-.18,30.73" transform="translate(0 -1.3)" style="fill:none;stroke:#000;stroke-linecap:round;stroke-linejoin:round"/><line x1="135.59" y1="104.06" x2="135.95" y2="103.7" style="fill:none;stroke:#000;stroke-linecap:round;stroke-linejoin:round"/><g id="SPLINE"><line x1="135.99" y1="75.41" x2="135.62" y2="75.05" style="fill:none;stroke:#000;stroke-linecap:round;stroke-linejoin:round"/></g><g id="SPLINE-2" data-name="SPLINE"><line x1="135.58" y1="75.03" x2="124.39" y2="75.02" style="fill:none;stroke:#000;stroke-linecap:round;stroke-linejoin:round"/></g><line x1="124.36" y1="104.07" x2="135.55" y2="104.08" style="fill:none;stroke:#000;stroke-linecap:round;stroke-linejoin:round"/><line x1="92.47" y1="118.08" x2="92.83" y2="118.44" style="fill:none;stroke:#000;stroke-linecap:round;stroke-linejoin:round"/><line x1="121.17" y1="118.48" x2="121.53" y2="118.12" style="fill:none;stroke:#000;stroke-linecap:round;stroke-linejoin:round"/><line x1="121.53" y1="118.12" x2="121.55" y2="106.91" style="fill:none;stroke:#000;stroke-linecap:round;stroke-linejoin:round"/><line x1="92.48" y1="106.87" x2="92.47" y2="118.08" style="fill:none;stroke:#000;stroke-linecap:round;stroke-linejoin:round"/><line x1="120.96" y1="106.89" x2="120.04" y2="105.96" style="fill:none;stroke:#000;stroke-linecap:round;stroke-linejoin:round"/><line x1="93.99" y1="105.93" x2="93.07" y2="106.86" style="fill:none;stroke:#000;stroke-linecap:round;stroke-linejoin:round"/><g id="SPLINE-3" data-name="SPLINE"><line x1="124.09" y1="76.07" x2="123.63" y2="76.54" style="fill:none;stroke:#000;stroke-linecap:round;stroke-linejoin:round"/></g><line x1="123.83" y1="102.78" x2="124.07" y2="103.02" style="fill:none;stroke:#000;stroke-linecap:round;stroke-linejoin:round"/><g id="SPLINE-4" data-name="SPLINE"><line x1="123.64" y1="76.52" x2="121.5" y2="76.52" style="fill:none;stroke:#000;stroke-linecap:round;stroke-linejoin:round"/></g><path d="M121.5,77.82l-1,0h0c-.47,0-.94,0-1.4.09h0q-.7.06-1.4.16h0q-.7.1-1.39.23h0q-.69.13-1.37.3h0q-.68.17-1.36.37h0q-.67.2-1.34.44h0q-.66.24-1.31.51h0q-.65.27-1.28.57h0q-.63.3-1.25.64h0q-.62.33-1.22.7h0q-.6.37-1.18.76h0q-.58.4-1.14.82h0q-.56.43-1.1.88h0q-.54.45-1,.93h0q-.51.48-1,1h0q-.49.51-.95,1h0q-.46.53-.9,1.08h0q-.43.55-.84,1.13h0q-.41.57-.78,1.17h0q-.37.59-.72,1.21h0q-.34.61-.66,1.24h0q-.31.63-.59,1.28h0q-.28.65-.53,1.3h0q-.25.66-.46,1.33h0q-.21.67-.39,1.35h0q-.18.68-.32,1.37h0q-.14.69-.25,1.38h0q-.11.7-.18,1.4h0c0,.47-.09.93-.11,1.4h0c0,.45,0,.91,0,1.36" transform="translate(0 -1.3)" style="fill:none;stroke:#000;stroke-linecap:round;stroke-linejoin:round"/><line x1="120.04" y1="105.96" x2="120.04" y2="104.01" style="fill:none;stroke:#000;stroke-linecap:round;stroke-linejoin:round"/><line x1="94" y1="103.98" x2="93.99" y2="105.93" style="fill:none;stroke:#000;stroke-linecap:round;stroke-linejoin:round"/><line x1="135.92" y1="102.64" x2="150.52" y2="102.65" style="fill:none;stroke:#000;stroke-linecap:round;stroke-linejoin:round"/><g id="SPLINE-5" data-name="SPLINE"><line x1="150.54" y1="76.49" x2="135.94" y2="76.48" style="fill:none;stroke:#000;stroke-linecap:round;stroke-linejoin:round"/></g><path d="M120.37,119.78c-6.61-.08-19.77-.11-26.38,0" transform="translate(0 -1.3)" style="fill:none;stroke:#000;stroke-linecap:round;stroke-linejoin:round"/><path d="M94,119.74h-.36" transform="translate(0 -1.3)" style="fill:none;stroke:#000;stroke-linecap:round;stroke-linejoin:round"/><polyline points="136.23 76.48 136.21 76.32 136.16 75.98 136.1 75.71 136.05 75.53 135.99 75.42 135.93 75.4 135.88 75.45 135.82 75.59 135.76 75.81 135.71 76.1 135.65 76.48 135.6 76.92 135.55 77.45 135.5 78.04 135.45 78.69 135.41 79.41 135.37 80.19 135.33 81.02 135.3 81.9 135.27 82.82 135.24 83.78 135.22 84.77 135.2 85.8 135.19 86.84 135.18 87.9 135.17 88.97 135.17 90.04 135.17 91.11 135.18 92.17 135.19 93.21 135.21 94.24 135.23 95.24 135.25 96.2 135.28 97.13 135.31 98.01 135.35 98.85 135.38 99.63 135.43 100.35 135.47 101.02 135.52 101.61 135.57 102.14 135.62 102.6 135.67 102.98 135.73 103.28 135.78 103.51 135.84 103.65 135.9 103.72 135.96 103.7 136.01 103.6 136.07 103.43 136.13 103.17 136.18 102.83 136.21 102.64" style="fill:none;stroke:#000;stroke-linecap:round;stroke-linejoin:round"/><polyline points="135.59 104.06 135.55 104.08 135.49 104.04 135.43 103.91 135.38 103.71 135.32 103.42 135.27 103.06 135.21 102.62 135.16 102.11 135.11 101.53 135.07 100.88 135.03 100.17 134.99 99.4 134.95 98.57 134.91 97.69 134.88 96.77 134.86 95.81 134.84 94.81 134.82 93.79 134.81 92.73 134.8 91.67 134.79 90.59 134.79 89.5 134.79 88.42 134.8 87.34 134.81 86.27 134.83 85.22 134.85 84.2 134.88 83.2 134.9 82.25 134.94 81.33 134.97 80.46 135.01 79.64 135.05 78.87 135.1 78.17 135.14 77.52 135.19 76.95 135.25 76.45 135.3 76.02 135.36 75.66 135.41 75.38 135.47 75.19 135.53 75.07 135.59 75.03 135.63 75.05" style="fill:none;stroke:#000;stroke-linecap:round;stroke-linejoin:round"/><polyline points="124.39 75.02 124.33 75.06 124.27 75.17 124.22 75.37 124.16 75.65 124.1 76 124.05 76.44 124 76.94 123.95 77.51 123.9 78.15 123.86 78.86 123.81 79.63 123.77 80.45 123.74 81.32 123.71 82.23 123.68 83.19 123.65 84.19 123.63 85.21 123.62 86.26 123.6 87.33 123.6 88.41 123.59 89.49 123.59 90.58 123.6 91.66 123.61 92.72 123.62 93.77 123.64 94.8 123.66 95.8 123.69 96.76 123.72 97.68 123.75 98.56 123.79 99.39 123.83 100.16 123.87 100.87 123.92 101.52 123.97 102.1 124.02 102.61 124.07 103.05 124.13 103.41 124.18 103.69 124.24 103.9 124.3 104.03 124.35 104.07 124.36 104.07" style="fill:none;stroke:#000;stroke-linecap:round;stroke-linejoin:round"/><polyline points="135.94 76.48 135.89 76.52 135.84 76.63 135.78 76.83 135.73 77.1 135.68 77.45 135.63 77.88 135.58 78.38 135.53 78.95 135.49 79.58 135.44 80.27 135.41 81.03 135.37 81.83 135.34 82.68 135.31 83.58 135.29 84.51 135.27 85.47 135.25 86.46 135.24 87.46 135.23 88.48 135.23 89.51 135.23 90.53 135.23 91.55 135.24 92.56 135.26 93.55 135.28 94.52 135.3 95.45 135.32 96.35 135.35 97.2 135.39 98.01 135.42 98.77 135.46 99.47 135.5 100.11 135.55 100.68 135.6 101.19 135.65 101.62 135.7 101.98 135.75 102.26 135.8 102.47 135.86 102.59 135.91 102.64 135.92 102.64" style="fill:none;stroke:#000;stroke-linecap:round;stroke-linejoin:round"/><polyline points="121.15 118.48 121.05 118.47 120.88 118.47 120.62 118.46 120.28 118.46 119.87 118.46 119.38 118.45 118.83 118.45 118.2 118.44 117.51 118.44 116.76 118.44 115.96 118.43 115.1 118.43 114.2 118.43 113.26 118.42 112.28 118.42 111.27 118.42 110.23 118.42 109.18 118.41 108.12 118.41 107.04 118.41 105.97 118.41 104.91 118.41 103.85 118.41 102.82 118.41 101.8 118.41 100.82 118.41 99.88 118.41 98.97 118.41 98.11 118.41 97.3 118.41 96.55 118.41 95.85 118.42 95.22 118.42 94.66 118.42 94.17 118.42 93.75 118.43 93.41 118.43 93.14 118.43 92.96 118.44 92.85 118.44 92.83 118.44 92.89 118.45 93.02 118.45 93.24 118.46 93.54 118.46 93.63 118.46" style="fill:none;stroke:#000;stroke-linecap:round;stroke-linejoin:round"/><polyline points="120.37 118.5 120.43 118.5 120.73 118.49 120.96 118.49 121.1 118.48 121.17 118.48 121.15 118.48" style="fill:none;stroke:#000;stroke-linecap:round;stroke-linejoin:round"/><line x1="121.51" y1="118.12" x2="121.53" y2="118.12" style="fill:none;stroke:#000;stroke-linecap:round;stroke-linejoin:round"/><path d="M121.51,119.42c-7.28-.1-21.76-.11-29,0" transform="translate(0 -1.3)" style="fill:none;stroke:#000;stroke-linecap:round;stroke-linejoin:round"/><path d="M121.55,108.21c-7.29-.1-21.78-.12-29.07,0" transform="translate(0 -1.3)" style="fill:none;stroke:#000;stroke-linecap:round;stroke-linejoin:round"/><path d="M120,107.27c-6.53-.09-19.51-.11-26,0" transform="translate(0 -1.3)" style="fill:none;stroke:#000;stroke-linecap:round;stroke-linejoin:round"/><line x1="123.83" y1="102.78" x2="123.59" y2="102.54" style="fill:none;stroke:#000;stroke-linecap:round;stroke-linejoin:round"/><polyline points="123.59 102.54 123.54 102.44 123.48 102.26 123.43 102 123.38 101.66 123.33 101.24 123.28 100.75 123.24 100.19 123.19 99.57 123.15 98.88 123.12 98.13 123.08 97.33 123.05 96.48 123.03 95.59 123 94.66 122.98 93.7 122.97 92.71 122.96 91.7 122.95 90.68 122.95 89.65 122.95 88.62 122.96 87.59 122.97 86.58 122.99 85.59 123.01 84.62 123.03 83.69 123.06 82.78 123.09 81.93 123.13 81.11 123.17 80.36 123.21 79.66 123.25 79.02 123.3 78.44 123.34 77.94 123.39 77.51 123.45 77.16 123.5 76.88 123.56 76.68 123.61 76.56 123.63 76.54" style="fill:none;stroke:#000;stroke-linecap:round;stroke-linejoin:round"/><line x1="123.83" y1="102.78" x2="123.83" y2="102.78" style="fill:none;stroke:#000;stroke-linecap:round;stroke-linejoin:round"/><line x1="121.43" y1="102.54" x2="123.59" y2="102.54" style="fill:none;stroke:#000;stroke-linecap:round;stroke-linejoin:round"/><path d="M121.43,103.84a1.47,1.47,0,0,0-1.45,1.22" transform="translate(0 -1.3)" style="fill:none;stroke:#000;stroke-linecap:round;stroke-linejoin:round"/><line x1="120.06" y1="104.01" x2="120.02" y2="104.01" style="fill:none;stroke:#000;stroke-linecap:round;stroke-linejoin:round"/><line x1="120.02" y1="104.01" x2="119.98" y2="104.01" style="fill:none;stroke:#000;stroke-linecap:round;stroke-linejoin:round"/><line x1="123.83" y1="102.78" x2="119.98" y2="104.01" style="fill:none;stroke:#000;stroke-linecap:round;stroke-linejoin:round"/><line x1="123.85" y1="102.8" x2="120.06" y2="104.01" style="fill:none;stroke:#000;stroke-linecap:round;stroke-linejoin:round"/><line x1="119.98" y1="104.01" x2="119.98" y2="103.76" style="fill:none;stroke:#000;stroke-linecap:round;stroke-linejoin:round"/><polyline points="151 105.49 151 105.49 150.94 105.44 150.88 105.32 150.81 105.11 150.76 104.83 150.7 104.46 150.64 104.02 150.59 103.51 150.54 102.93 150.49 102.28 150.44 101.56 150.4 100.78 150.36 99.95 150.32 99.06 150.29 98.13 150.26 97.15 150.23 96.13 150.21 95.08 150.19 94 150.18 92.9 150.17 91.78 150.16 90.65 150.16 89.51 150.17 88.38 150.18 87.25 150.19 86.13 150.2 85.03 150.22 83.95 150.25 82.91 150.28 81.89 150.31 80.92 150.34 79.99 150.38 79.11 150.43 78.28 150.47 77.51 150.52 76.8 150.57 76.15 150.62 75.58 150.68 75.07 150.74 74.64 150.79 74.29 150.85 74.01 150.91 73.81 150.97 73.69 151.03 73.66" style="fill:none;stroke:#000;stroke-linecap:round;stroke-linejoin:round"/><polyline points="121.5 76.52 121.44 76.56 121.39 76.68 121.33 76.88 121.28 77.15 121.23 77.51 121.18 77.94 121.13 78.44 121.08 79.02 121.04 79.65 121 80.36 120.96 81.11 120.92 81.92 120.89 82.78 120.86 83.68 120.84 84.62 120.82 85.59 120.81 86.58 120.8 87.59 120.79 88.62 120.78 89.65 120.79 90.67 120.79 91.7 120.8 92.7 120.82 93.69 120.83 94.66 120.86 95.59 120.89 96.48 120.92 97.33 120.95 98.13 120.99 98.88 121.03 99.56 121.07 100.19 121.11 100.75 121.16 101.24 121.21 101.65 121.27 101.99 121.32 102.26 121.37 102.44 121.43 102.54" style="fill:none;stroke:#000;stroke-linecap:round;stroke-linejoin:round"/><line x1="120.02" y1="104.01" x2="120.04" y2="104.01" style="fill:none;stroke:#000;stroke-linecap:round;stroke-linejoin:round"/><path d="M120,105.31c-6.52-.09-19.5-.1-26,0" transform="translate(0 -1.3)" style="fill:none;stroke:#000;stroke-linecap:round;stroke-linejoin:round"/><line x1="8.73" y1="191.98" x2="190.73" y2="278.4" style="fill:none;stroke:#000;stroke-linecap:round;stroke-linejoin:round"/><line x1="8.73" y1="242.98" x2="190.73" y2="329.4" style="fill:none;stroke:#000;stroke-linecap:round;stroke-linejoin:round"/><line x1="120.36" y1="234.98" x2="141.67" y2="244.49" style="fill:none;stroke:#000;stroke-linecap:round;stroke-linejoin:round"/><line x1="141.67" y1="244.49" x2="143.11" y2="248.59" style="fill:none;stroke:#000;stroke-linecap:round;stroke-linejoin:round"/><line x1="143.11" y1="248.59" x2="151.76" y2="252.4" style="fill:none;stroke:#000;stroke-linecap:round;stroke-linejoin:round"/><line x1="151.76" y1="252.4" x2="155.42" y2="261.45" style="fill:none;stroke:#000;stroke-linecap:round;stroke-linejoin:round"/><line x1="122.57" y1="235.86" x2="72.43" y2="212.69" style="fill:none;stroke:#000;stroke-linecap:round;stroke-linejoin:round"/><line x1="72.43" y1="212.69" x2="68.37" y2="214.25" style="fill:none;stroke:#000;stroke-linecap:round;stroke-linejoin:round"/><line x1="68.37" y1="214.25" x2="59.87" y2="210.13" style="fill:none;stroke:#000;stroke-linecap:round;stroke-linejoin:round"/><line x1="59.66" y1="210.11" x2="52.21" y2="212.49" style="fill:none;stroke:#000;stroke-linecap:round;stroke-linejoin:round"/><rect x="100.61" y="262.5" width="15.15" height="75.74" transform="translate(-209.48 267.23) rotate(-64.47)" style="fill:#fff;stroke:#000"/><circle cx="79.89" cy="286.39" r="3.37" transform="translate(-212.96 233.7) rotate(-64.46)" style="fill:#fff;stroke:#000"/><circle cx="89" cy="290.74" r="3.37" transform="translate(-211.71 244.46) rotate(-64.47)" style="fill:#fff;stroke:#000"/><circle cx="98.11" cy="295.09" r="3.37" transform="translate(-210.46 255.16) rotate(-64.47)" style="fill:#fff;stroke:#000"/><circle cx="107.23" cy="299.45" r="3.37" transform="translate(-209.2 265.87) rotate(-64.47)" style="fill:#fff;stroke:#000"/><circle cx="116.34" cy="303.8" r="3.37" transform="translate(-207.94 276.53) rotate(-64.47)" style="fill:#fff;stroke:#000"/><circle cx="125.45" cy="308.15" r="3.37" transform="translate(-206.68 287.28) rotate(-64.48)" style="fill:#fff;stroke:#000"/><circle cx="134.56" cy="312.5" r="3.37" transform="translate(-205.42 297.88) rotate(-64.46)" style="fill:#fff;stroke:#000"/><g id="SPLINE-6" data-name="SPLINE"><rect x="174.1" y="98.97" width="34.57" height="12.83" transform="translate(-18.46 164.88) rotate(-45)" style="fill:none;stroke:#000;stroke-linecap:round;stroke-linejoin:round"/></g><g id="SPLINE-7" data-name="SPLINE"><line x1="198.23" y1="88.16" x2="195.96" y2="88.16" style="fill:none;stroke:#000;stroke-linecap:round;stroke-linejoin:round"/></g><g id="SPLINE-8" data-name="SPLINE"><line x1="175.46" y1="109.52" x2="175.46" y2="110.93" style="fill:none;stroke:#000;stroke-linecap:round;stroke-linejoin:round;stroke-width:0.425197px"/></g><g id="SPLINE-9" data-name="SPLINE"><line x1="163.12" y1="105.81" x2="164.12" y2="104.82" style="fill:none;stroke:#000;stroke-linecap:round;stroke-linejoin:round;stroke-width:0.425197px"/></g><g id="SPLINE-10" data-name="SPLINE"><line x1="164.73" y1="75.22" x2="163.12" y2="73.62" style="fill:none;stroke:#000;stroke-linecap:round;stroke-linejoin:round;stroke-width:0.425197px"/></g><g id="SPLINE-11" data-name="SPLINE"><line x1="151.1" y1="105.81" x2="163.12" y2="105.81" style="fill:none;stroke:#000;stroke-linecap:round;stroke-linejoin:round;stroke-width:0.75px"/></g><g id="SPLINE-12" data-name="SPLINE"><line x1="163.12" y1="73.62" x2="151.1" y2="73.62" style="fill:none;stroke:#000;stroke-linecap:round;stroke-linejoin:round;stroke-width:0.75px"/></g><g id="ARC"><path d="M175.46,110.82a32.66,32.66,0,0,0-11.35-4.7" transform="translate(0 -1.3)" style="fill:none;stroke:#000;stroke-linecap:round;stroke-linejoin:round;stroke-width:0.75px"/></g><g id="ARC-2" data-name="ARC"><path d="M195.61,89.81c-7.11-6.28-21.42-12.21-30.89-12.79" transform="translate(0 -1.3)" style="fill:none;stroke:#000;stroke-linecap:round;stroke-linejoin:round;stroke-width:0.75px"/></g><g id="LWPOLYLINE"><polyline points="184.36 99.76 185.1 99.02 185.84 98.28 186.59 97.54 187.32 96.8 188.05 96.07 188.77 95.35 189.47 94.65 190.15 93.97 190.81 93.32 191.44 92.69 192.04 92.08 192.6 91.52 193.13 90.99 193.63 90.5 194.08 90.04 194.48 89.64 194.84 89.28 195.16 88.96 195.42 88.7 195.63 88.49 195.79 88.33 195.9 88.22 195.95 88.17 195.96 88.16" style="fill:none;stroke:#000;stroke-linecap:round;stroke-linejoin:round;stroke-width:0.75px"/></g><g id="SPLINE-13" data-name="SPLINE"><path d="M175.46,110.82h0l0,0h0l.11-.12h0l.17-.19h0l.23-.26h0l.3-.34h0l.37-.41h0l.42-.46h0l.47-.52h0l.54-.6h0l.59-.65h0l.63-.69h0l.67-.73h0l.72-.79h0l.76-.83h0l.69-.75h0l.71-.77h0l.74-.8h0l.75-.81" transform="translate(0 -1.3)" style="fill:none;stroke:#000;stroke-linecap:round;stroke-linejoin:round;stroke-width:0.75px"/></g><g id="LINE"><line x1="163.12" y1="105.81" x2="163.12" y2="73.62" style="fill:none;stroke:#000;stroke-linecap:round;stroke-linejoin:round;stroke-width:0.75px"/></g><g id="LINE-2" data-name="LINE"><line x1="164.73" y1="75.22" x2="164.73" y2="91.62" style="fill:none;stroke:#000;stroke-linecap:round;stroke-linejoin:round;stroke-width:0.75px"/></g><g id="SPLINE-14" data-name="SPLINE"><path d="M164.73,92.92c0,.35,0,.71,0,1.06h0q0,.53,0,1h0l0,1h0l0,1h0l0,1.11h0c0,.36,0,.72,0,1.06h0c0,.35,0,.7,0,1h0c0,.34,0,.66,0,1h0l0,.87h0l0,.8h0l0,.74h0l0,.65h0c0,.19,0,.37,0,.54h0c0,.16,0,.31,0,.45h0l0,.36h0c0,.1,0,.19,0,.26h0c0,.07,0,.12,0,.15h0v0" transform="translate(0 -1.3)" style="fill:none;stroke:#000;stroke-linecap:round;stroke-linejoin:round;stroke-width:0.75px"/></g><g id="LINE-3" data-name="LINE"><line x1="151.1" y1="105.81" x2="151.1" y2="73.62" style="fill:none;stroke:#000;stroke-linecap:round;stroke-linejoin:round;stroke-width:0.75px"/></g><polyline points="190.4 258.57 190.4 289.86 182.9 295.05 198.73 305.29 190.4 310.33 190.23 348.74" style="fill:none;stroke:#000"/><polyline points="8.4 176.57 8.4 207.86 0.9 213.05 16.73 223.29 8.4 228.33 8.23 266.74" style="fill:none;stroke:#000"/><line x1="139.27" y1="124.82" x2="226.4" y2="124.82" style="fill:none;stroke:#000;stroke-width:1.5px"/><line x1="139.27" y1="235.24" x2="226.6" y2="235.24" style="fill:none;stroke:#000;stroke-width:1.5px"/><line x1="202.93" y1="131.82" x2="202.93" y2="145.07" style="fill:none;stroke:#000"/><path d="M201.91,130.76a43.09,43.09,0,0,1-1.49,4.05h5a39.59,39.59,0,0,1-1.49-4.05,29.57,29.57,0,0,1-1-4.41A29.54,29.54,0,0,1,201.91,130.76Z" transform="translate(0 -1.3)"/><line x1="202.93" y1="228.07" x2="202.93" y2="207.74" style="fill:none;stroke:#000"/><path d="M204,231.73c.5-1.65,1-2.73,1.49-4.05h-5a39.53,39.53,0,0,1,1.49,4.05,29.54,29.54,0,0,1,1,4.41A29.67,29.67,0,0,1,204,231.73Z" transform="translate(0 -1.3)"/><line x1="142.93" y1="38.07" x2="142.93" y2="20.74" style="fill:none;stroke:#000"/><path d="M144,41.73a43.17,43.17,0,0,1,1.49-4.05h-5a39.57,39.57,0,0,1,1.49,4.05,29.56,29.56,0,0,1,1,4.41A29.61,29.61,0,0,1,144,41.73Z" transform="translate(0 -1.3)"/><line x1="136.23" y1="36.61" x2="136.23" y2="71.24" style="fill:none;stroke:#000;stroke-width:1.5px"/><line x1="149.9" y1="36.61" x2="149.9" y2="71.24" style="fill:none;stroke:#000;stroke-width:1.5px"/><line x1="215.89" y1="63.73" x2="198.52" y2="81.36" style="fill:none;stroke:#000"/><path d="M197.59,85.06c1.52-.83,2.6-1.27,3.91-1.84l-3.59-3.54a39.79,39.79,0,0,1-1.78,3.93,29.58,29.58,0,0,1-2.37,3.87A29.69,29.69,0,0,1,197.59,85.06Z" transform="translate(0 -1.3)"/><line x1="66.9" y1="141.24" x2="79.4" y2="208.24" style="fill:none;stroke:#000"/><path d="M80.84,211.67c.19-1.72.44-2.86.72-4.26l-5,.92a39.6,39.6,0,0,1,2.21,3.71,29.51,29.51,0,0,1,1.82,4.15A29.7,29.7,0,0,1,80.84,211.67Z" transform="translate(0 -1.3)"/><line x1="69.4" y1="66.24" x2="91.4" y2="81.74" style="fill:none;stroke:#000"/><path d="M93.92,83.56A43.16,43.16,0,0,1,91.47,80l-2.91,4.12a39.5,39.5,0,0,1,4.17,1.12,29.56,29.56,0,0,1,4.2,1.7A29.61,29.61,0,0,1,93.92,83.56Z" transform="translate(0 -1.3)"/><line x1="37.9" y1="316.74" x2="70.9" y2="296.74" style="fill:none;stroke:#000"/><path d="M72.39,295.94a43,43,0,0,1-4.24.83l2.61,4.31a39.61,39.61,0,0,1,2.69-3.38,29.6,29.6,0,0,1,3.24-3.17A29.49,29.49,0,0,1,72.39,295.94Z" transform="translate(0 -1.3)"/><line x1="142.73" y1="21.24" x2="116.57" y2="14.74" style="fill:none;stroke:#000"/><line x1="139.73" y1="47.78" x2="146.4" y2="47.78" style="fill:none;stroke:#000;stroke-width:0.75px"/><path d="M147.73,48.5a24.28,24.28,0,0,1-2.28-.84V50.5a22.3,22.3,0,0,1,2.28-.84,16.63,16.63,0,0,1,2.48-.58A16.61,16.61,0,0,1,147.73,48.5Z" transform="translate(0 -1.3)"/><path d="M138.4,49.66a24.3,24.3,0,0,1,2.28.84V47.66a22.31,22.31,0,0,1-2.28.84,16.63,16.63,0,0,1-2.48.58A16.61,16.61,0,0,1,138.4,49.66Z" transform="translate(0 -1.3)"/><path d="M74.27,7.74v.84H69.54a1.54,1.54,0,0,1,.1-.61,3.22,3.22,0,0,1,.58-1,9,9,0,0,1,1.15-1.08,9.75,9.75,0,0,0,1.58-1.52,1.82,1.82,0,0,0,.41-1.06A1.18,1.18,0,0,0,73,2.48a1.35,1.35,0,0,0-1-.36,1.37,1.37,0,0,0-1,.38,1.44,1.44,0,0,0-.39,1.05l-.9-.09a2.22,2.22,0,0,1,.7-1.54A2.38,2.38,0,0,1,72,1.39,2.27,2.27,0,0,1,73.66,2a1.88,1.88,0,0,1,.6,1.42,2.15,2.15,0,0,1-.18.84,3.28,3.28,0,0,1-.58.87,14.23,14.23,0,0,1-1.36,1.26q-.79.66-1,.9a2.89,2.89,0,0,0-.37.48Z" transform="translate(0 -1.3)"/><path d="M75.22,2.37v-1h.94v.81A2.16,2.16,0,0,1,76,3.1a1.33,1.33,0,0,1-.65.6l-.21-.35A.77.77,0,0,0,75.53,3a1.43,1.43,0,0,0,.14-.64Zm1.51,0v-1h.94v.81a2.16,2.16,0,0,1-.15.94,1.33,1.33,0,0,1-.65.6l-.21-.35A.77.77,0,0,0,77,3a1.43,1.43,0,0,0,.14-.64Z" transform="translate(0 -1.3)"/><path d="M83.24,10.69A8.76,8.76,0,0,1,82,8.54a6.74,6.74,0,0,1-.13-4.78A9.34,9.34,0,0,1,83.24,1.3h.63q-.59,1-.78,1.45a8,8,0,0,0-.47,1.41A8.19,8.19,0,0,0,82.41,6a8.81,8.81,0,0,0,1.46,4.69Z" transform="translate(0 -1.3)"/><path d="M84.65,6.71l.92-.08a1.65,1.65,0,0,0,.48,1,1.29,1.29,0,0,0,.9.34A1.4,1.4,0,0,0,88,7.5a1.8,1.8,0,0,0,.44-1.27A1.63,1.63,0,0,0,88,5a1.48,1.48,0,0,0-1.11-.43,1.53,1.53,0,0,0-.77.19,1.49,1.49,0,0,0-.54.5L84.8,5.2l.69-3.68h3.56v.84H86.2l-.39,1.92a2.33,2.33,0,0,1,1.35-.45,2.14,2.14,0,0,1,1.58.65,2.27,2.27,0,0,1,.64,1.67,2.6,2.6,0,0,1-.57,1.68,2.27,2.27,0,0,1-1.88.87,2.31,2.31,0,0,1-1.59-.55A2.13,2.13,0,0,1,84.65,6.71Z" transform="translate(0 -1.3)"/><path d="M96.62,6.68l.86.11a2.24,2.24,0,0,1-.73,1.4,2.11,2.11,0,0,1-1.43.51A2.23,2.23,0,0,1,93.61,8,2.83,2.83,0,0,1,93,6a3.61,3.61,0,0,1,.28-1.47,1.94,1.94,0,0,1,.85-.94,2.52,2.52,0,0,1,1.24-.31,2.15,2.15,0,0,1,1.38.43,2,2,0,0,1,.69,1.21l-.85.13a1.42,1.42,0,0,0-.43-.79A1.12,1.12,0,0,0,95.36,4a1.36,1.36,0,0,0-1.08.48A2.26,2.26,0,0,0,93.87,6a2.34,2.34,0,0,0,.4,1.52,1.3,1.3,0,0,0,1,.47,1.23,1.23,0,0,0,.86-.32A1.57,1.57,0,0,0,96.62,6.68Z" transform="translate(0 -1.3)"/><path d="M98.23,8.58V3.4H99v.73a1.85,1.85,0,0,1,.65-.61,1.82,1.82,0,0,1,.92-.23,1.71,1.71,0,0,1,.95.24,1.28,1.28,0,0,1,.52.67,1.86,1.86,0,0,1,1.6-.91,1.58,1.58,0,0,1,1.19.43A1.83,1.83,0,0,1,105.26,5V8.58h-.87V5.31a2.42,2.42,0,0,0-.08-.76.74.74,0,0,0-.31-.37,1,1,0,0,0-.53-.14,1.23,1.23,0,0,0-.91.36,1.6,1.6,0,0,0-.36,1.16v3h-.88V5.21a1.48,1.48,0,0,0-.21-.88.81.81,0,0,0-.7-.29,1.27,1.27,0,0,0-.69.2,1.11,1.11,0,0,0-.46.57,3.21,3.21,0,0,0-.14,1.08V8.58Z" transform="translate(0 -1.3)"/><path d="M107.14,10.69h-.63A8.81,8.81,0,0,0,108,6a8,8,0,0,0-.21-1.82,7.65,7.65,0,0,0-.46-1.41,16.41,16.41,0,0,0-.79-1.46h.63a9.34,9.34,0,0,1,1.36,2.46,6.72,6.72,0,0,1-.13,4.78A8.92,8.92,0,0,1,107.14,10.69Z" transform="translate(0 -1.3)"/><path d="M65.81,20.58V13.42h1.43l1.69,5.07q.23.71.34,1.06.12-.39.38-1.15l1.71-5h1.27v7.16h-.91v-6l-2.08,6h-.85l-2.07-6.09v6.09Z" transform="translate(0 -1.3)"/><path d="M73.38,20.58l2.75-7.16h1l2.93,7.16H79l-.83-2.17h-3l-.79,2.17Zm2.07-2.94h2.43l-.75-2q-.34-.9-.51-1.48a9.09,9.09,0,0,1-.39,1.37Z" transform="translate(0 -1.3)"/><path d="M80.11,20.58l2.77-3.73-2.44-3.43h1.13l1.3,1.84a10.44,10.44,0,0,1,.58.88,9.37,9.37,0,0,1,.57-.82l1.44-1.9h1L84,16.8l2.71,3.78H85.5L83.7,18l-.31-.48q-.24.39-.34.54l-1.8,2.5Z" transform="translate(0 -1.3)"/><path d="M87.67,20.58V13.42h.95v7.16Z" transform="translate(0 -1.3)"/><path d="M90.26,20.58V13.42h1.43l1.69,5.07q.23.71.34,1.06.12-.39.38-1.15l1.71-5h1.27v7.16h-.91v-6l-2.08,6h-.85l-2.07-6.09v6.09Z" transform="translate(0 -1.3)"/><path d="M103.32,13.42h.95v4.14a4.89,4.89,0,0,1-.24,1.71,2.1,2.1,0,0,1-.88,1,3.13,3.13,0,0,1-1.67.4,3.44,3.44,0,0,1-1.65-.35,2,2,0,0,1-.91-1,4.78,4.78,0,0,1-.27-1.79V13.42h.95v4.13a4,4,0,0,0,.17,1.37,1.32,1.32,0,0,0,.6.68,2.07,2.07,0,0,0,1,.24,2,2,0,0,0,1.49-.47,2.73,2.73,0,0,0,.44-1.82Z" transform="translate(0 -1.3)"/><path d="M105.81,20.58V13.42h1.43l1.69,5.07q.23.71.34,1.06.12-.39.38-1.15l1.71-5h1.27v7.16h-.91v-6l-2.08,6h-.85l-2.07-6.09v6.09Z" transform="translate(0 -1.3)"/><path d="M179.76,25.54V18.38h4.83v.84H180.7v2.22h3.36v.84H180.7v3.25Z" transform="translate(0 -1.3)"/><path d="M184.48,25.54l2.75-7.16h1l2.93,7.16H190.1l-.83-2.17h-3l-.79,2.17Zm2.07-2.94H189l-.75-2q-.34-.9-.51-1.48a9.09,9.09,0,0,1-.39,1.37Z" transform="translate(0 -1.3)"/><path d="M197,23l.95.24A3.19,3.19,0,0,1,196.92,25a3,3,0,0,1-1.89.61,3.4,3.4,0,0,1-1.88-.47,2.93,2.93,0,0,1-1.1-1.36,4.86,4.86,0,0,1-.38-1.92,4.21,4.21,0,0,1,.43-2,2.92,2.92,0,0,1,1.21-1.26,3.56,3.56,0,0,1,1.74-.43,2.93,2.93,0,0,1,1.81.55,2.84,2.84,0,0,1,1,1.54l-.93.22a2.21,2.21,0,0,0-.72-1.14,1.92,1.92,0,0,0-1.19-.36,2.31,2.31,0,0,0-1.38.4,2.08,2.08,0,0,0-.78,1.06,4.28,4.28,0,0,0-.22,1.37,4.38,4.38,0,0,0,.27,1.59,2,2,0,0,0,.83,1,2.32,2.32,0,0,0,1.22.34,2,2,0,0,0,1.35-.46A2.35,2.35,0,0,0,197,23Z" transform="translate(0 -1.3)"/><path d="M201,25.54V19.23h-2.36v-.84h5.67v.84h-2.37v6.31Z" transform="translate(0 -1.3)"/><path d="M204.8,22.05a3.89,3.89,0,0,1,1-2.79,3.25,3.25,0,0,1,2.47-1,3.42,3.42,0,0,1,1.79.47A3.1,3.1,0,0,1,211.22,20a4.3,4.3,0,0,1,.42,1.92,4.22,4.22,0,0,1-.44,1.95,3,3,0,0,1-1.25,1.3,3.56,3.56,0,0,1-1.74.44,3.38,3.38,0,0,1-1.81-.49,3.15,3.15,0,0,1-1.21-1.33A4,4,0,0,1,204.8,22.05Zm1,0a2.86,2.86,0,0,0,.7,2,2.43,2.43,0,0,0,3.51,0,3,3,0,0,0,.69-2.13,3.66,3.66,0,0,0-.3-1.53,2.27,2.27,0,0,0-.86-1,2.35,2.35,0,0,0-1.28-.36,2.42,2.42,0,0,0-1.73.69A3.08,3.08,0,0,0,205.77,22.07Z" transform="translate(0 -1.3)"/><path d="M212.88,25.54V18.38h3.17a4.23,4.23,0,0,1,1.46.19,1.59,1.59,0,0,1,.8.68,2,2,0,0,1,.3,1.08,1.8,1.8,0,0,1-.49,1.28,2.5,2.5,0,0,1-1.52.66,2.45,2.45,0,0,1,.57.36,4.92,4.92,0,0,1,.79,1l1.25,1.95H218L217,24q-.41-.64-.68-1a2.12,2.12,0,0,0-.48-.48,1.4,1.4,0,0,0-.43-.19,2.83,2.83,0,0,0-.53,0h-1.1v3.18Zm.95-4h2a3.06,3.06,0,0,0,1-.13,1.08,1.08,0,0,0,.56-.43,1.16,1.16,0,0,0,.19-.64,1.07,1.07,0,0,0-.37-.83,1.73,1.73,0,0,0-1.17-.33h-2.27Z" transform="translate(0 -1.3)"/><path d="M221.92,25.54v-3l-2.76-4.13h1.15l1.41,2.16q.39.61.73,1.21.32-.56.78-1.26l1.39-2.1h1.1l-2.86,4.13v3Z" transform="translate(0 -1.3)"/><path d="M228.85,23.24l.89-.08a2,2,0,0,0,.3.88,1.61,1.61,0,0,0,.72.56,2.73,2.73,0,0,0,1.1.21,2.63,2.63,0,0,0,1-.16,1.33,1.33,0,0,0,.62-.44,1,1,0,0,0,.2-.61.93.93,0,0,0-.2-.59,1.44,1.44,0,0,0-.64-.42,12.65,12.65,0,0,0-1.27-.35,6.5,6.5,0,0,1-1.38-.45,1.93,1.93,0,0,1-.76-.67,1.63,1.63,0,0,1-.25-.89,1.82,1.82,0,0,1,.31-1,1.91,1.91,0,0,1,.9-.72,3.41,3.41,0,0,1,1.31-.24,3.6,3.6,0,0,1,1.4.26,2,2,0,0,1,.93.75,2.17,2.17,0,0,1,.35,1.13l-.91.07a1.47,1.47,0,0,0-.5-1,1.93,1.93,0,0,0-1.25-.35,2,2,0,0,0-1.25.31.94.94,0,0,0-.39.76.81.81,0,0,0,.28.63,3.78,3.78,0,0,0,1.43.51,9.43,9.43,0,0,1,1.58.46,2.17,2.17,0,0,1,.92.73,1.78,1.78,0,0,1,.3,1,2,2,0,0,1-.33,1.08,2.15,2.15,0,0,1-.94.79,3.28,3.28,0,0,1-1.38.28,4.11,4.11,0,0,1-1.63-.28,2.28,2.28,0,0,1-1-.85A2.42,2.42,0,0,1,228.85,23.24Z" transform="translate(0 -1.3)"/><path d="M240.54,18.38h.95v4.14a4.89,4.89,0,0,1-.24,1.71,2.1,2.1,0,0,1-.88,1,3.13,3.13,0,0,1-1.67.4,3.44,3.44,0,0,1-1.65-.35,2,2,0,0,1-.91-1,4.78,4.78,0,0,1-.27-1.79V18.38h.95v4.13a4,4,0,0,0,.17,1.37,1.32,1.32,0,0,0,.6.68,2.07,2.07,0,0,0,1,.24,2,2,0,0,0,1.49-.47,2.73,2.73,0,0,0,.44-1.82Z" transform="translate(0 -1.3)"/><path d="M243.06,25.54V18.38h2.7a6.54,6.54,0,0,1,1.09.07,2.15,2.15,0,0,1,.88.33,1.75,1.75,0,0,1,.57.69,2.33,2.33,0,0,1-.36,2.52,2.79,2.79,0,0,1-2.1.63H244v2.91Zm.95-3.75h1.85a2,2,0,0,0,1.3-.34,1.22,1.22,0,0,0,.39-1,1.29,1.29,0,0,0-.23-.77,1.06,1.06,0,0,0-.6-.42,4,4,0,0,0-.88-.06H244Z" transform="translate(0 -1.3)"/><path d="M249.73,25.54V18.38h2.7a6.54,6.54,0,0,1,1.09.07,2.15,2.15,0,0,1,.88.33,1.75,1.75,0,0,1,.57.69,2.33,2.33,0,0,1-.36,2.52,2.79,2.79,0,0,1-2.1.63h-1.84v2.91Zm.95-3.75h1.85a2,2,0,0,0,1.3-.34,1.22,1.22,0,0,0,.39-1,1.29,1.29,0,0,0-.23-.77,1.06,1.06,0,0,0-.6-.42,4,4,0,0,0-.88-.06h-1.83Z" transform="translate(0 -1.3)"/><path d="M256.36,25.54V18.38h.95v6.31h3.53v.84Z" transform="translate(0 -1.3)"/><path d="M262.12,25.54V18.38h.95v7.16Z" transform="translate(0 -1.3)"/><path d="M264.76,25.54V18.38h5.18v.84h-4.23v2.19h4v.84h-4v2.44h4.39v.84Z" transform="translate(0 -1.3)"/><path d="M271.41,25.54V18.38h2.47a6,6,0,0,1,1.27.1,2.42,2.42,0,0,1,1,.51,2.9,2.9,0,0,1,.85,1.22,4.79,4.79,0,0,1,.28,1.7,5,5,0,0,1-.19,1.45,3.51,3.51,0,0,1-.49,1,2.6,2.6,0,0,1-.65.65,2.67,2.67,0,0,1-.86.36,4.86,4.86,0,0,1-1.15.12Zm.95-.84h1.53a3.7,3.7,0,0,0,1.11-.13,1.58,1.58,0,0,0,.64-.37,2.27,2.27,0,0,0,.53-.91,4.44,4.44,0,0,0,.19-1.38,3.33,3.33,0,0,0-.37-1.73,1.85,1.85,0,0,0-.9-.81,3.7,3.7,0,0,0-1.23-.15h-1.5Z" transform="translate(0 -1.3)"/><path d="M166.35,35.24l.89-.08a2,2,0,0,0,.3.88,1.61,1.61,0,0,0,.72.56,2.73,2.73,0,0,0,1.1.21,2.63,2.63,0,0,0,1-.16,1.33,1.33,0,0,0,.62-.44,1,1,0,0,0,.2-.61.93.93,0,0,0-.2-.59,1.44,1.44,0,0,0-.64-.42,12.65,12.65,0,0,0-1.27-.35,6.5,6.5,0,0,1-1.38-.45,1.93,1.93,0,0,1-.76-.67,1.63,1.63,0,0,1-.25-.89,1.82,1.82,0,0,1,.31-1,1.91,1.91,0,0,1,.9-.72,3.41,3.41,0,0,1,1.31-.24,3.6,3.6,0,0,1,1.4.26,2,2,0,0,1,.93.75,2.17,2.17,0,0,1,.35,1.13l-.91.07a1.47,1.47,0,0,0-.5-1,1.93,1.93,0,0,0-1.25-.35,2,2,0,0,0-1.25.31.94.94,0,0,0-.39.76.81.81,0,0,0,.28.63,3.78,3.78,0,0,0,1.43.51,9.43,9.43,0,0,1,1.58.46,2.17,2.17,0,0,1,.92.73,1.78,1.78,0,0,1,.3,1,2,2,0,0,1-.33,1.08,2.15,2.15,0,0,1-.94.79,3.28,3.28,0,0,1-1.38.28,4.11,4.11,0,0,1-1.63-.28,2.28,2.28,0,0,1-1-.85A2.42,2.42,0,0,1,166.35,35.24Z" transform="translate(0 -1.3)"/><path d="M175.16,37.54V31.23H172.8v-.84h5.67v.84h-2.37v6.31Z" transform="translate(0 -1.3)"/><path d="M177.92,37.54l2.75-7.16h1l2.93,7.16h-1.08l-.83-2.17h-3l-.79,2.17ZM180,34.6h2.43l-.75-2q-.34-.9-.51-1.48a9.09,9.09,0,0,1-.39,1.37Z" transform="translate(0 -1.3)"/><path d="M185.37,37.54V30.38h1L190.1,36V30.38H191v7.16h-1l-3.76-5.62v5.63Z" transform="translate(0 -1.3)"/><path d="M192.6,37.54V30.38h2.47a6,6,0,0,1,1.27.1,2.42,2.42,0,0,1,1,.51,2.9,2.9,0,0,1,.85,1.22,4.79,4.79,0,0,1,.28,1.7,5,5,0,0,1-.19,1.45,3.51,3.51,0,0,1-.49,1,2.6,2.6,0,0,1-.65.65,2.67,2.67,0,0,1-.86.36,4.86,4.86,0,0,1-1.15.12Zm.95-.84h1.53a3.7,3.7,0,0,0,1.11-.13,1.58,1.58,0,0,0,.64-.37,2.27,2.27,0,0,0,.53-.91,4.44,4.44,0,0,0,.19-1.38,3.33,3.33,0,0,0-.37-1.73,1.85,1.85,0,0,0-.9-.81,3.7,3.7,0,0,0-1.23-.15h-1.5Z" transform="translate(0 -1.3)"/><path d="M199,37.54l2.75-7.16h1l2.93,7.16h-1.08l-.83-2.17h-3L200,37.54Zm2.07-2.94h2.43l-.75-2q-.34-.9-.51-1.48a9.09,9.09,0,0,1-.39,1.37Z" transform="translate(0 -1.3)"/><path d="M206.5,37.54V30.38h3.17a4.23,4.23,0,0,1,1.46.19,1.59,1.59,0,0,1,.8.68,2,2,0,0,1,.3,1.08,1.8,1.8,0,0,1-.49,1.28,2.5,2.5,0,0,1-1.52.66,2.45,2.45,0,0,1,.57.36,4.92,4.92,0,0,1,.79,1l1.25,1.95h-1.19L210.67,36q-.41-.64-.68-1a2.12,2.12,0,0,0-.48-.48,1.4,1.4,0,0,0-.43-.19,2.83,2.83,0,0,0-.53,0h-1.1v3.18Zm.95-4h2a3.06,3.06,0,0,0,1-.13,1.08,1.08,0,0,0,.56-.43,1.16,1.16,0,0,0,.19-.64,1.07,1.07,0,0,0-.37-.83,1.73,1.73,0,0,0-1.17-.33h-2.27Z" transform="translate(0 -1.3)"/><path d="M213.71,37.54V30.38h2.47a6,6,0,0,1,1.27.1,2.42,2.42,0,0,1,1,.51,2.9,2.9,0,0,1,.85,1.22,4.79,4.79,0,0,1,.28,1.7,5,5,0,0,1-.19,1.45,3.51,3.51,0,0,1-.49,1,2.6,2.6,0,0,1-.65.65,2.67,2.67,0,0,1-.86.36,4.86,4.86,0,0,1-1.15.12Zm.95-.84h1.53a3.7,3.7,0,0,0,1.11-.13,1.58,1.58,0,0,0,.64-.37,2.27,2.27,0,0,0,.53-.91,4.44,4.44,0,0,0,.19-1.38,3.33,3.33,0,0,0-.37-1.73,1.85,1.85,0,0,0-.9-.81,3.7,3.7,0,0,0-1.23-.15h-1.5Z" transform="translate(0 -1.3)"/><path d="M225.35,37.54V31.23H223v-.84h5.67v.84H226.3v6.31Z" transform="translate(0 -1.3)"/><path d="M229.66,37.54V30.38h5.18v.84H230.6v2.19h4v.84h-4v2.44H235v.84Z" transform="translate(0 -1.3)"/><path d="M236.32,37.54V30.38h3.17a4.23,4.23,0,0,1,1.46.19,1.59,1.59,0,0,1,.8.68,2,2,0,0,1,.3,1.08,1.8,1.8,0,0,1-.49,1.28,2.5,2.5,0,0,1-1.52.66,2.45,2.45,0,0,1,.57.36,4.92,4.92,0,0,1,.79,1l1.25,1.95h-1.19L240.49,36q-.41-.64-.68-1a2.12,2.12,0,0,0-.48-.48,1.4,1.4,0,0,0-.43-.19,2.83,2.83,0,0,0-.53,0h-1.1v3.18Zm.95-4h2a3.06,3.06,0,0,0,1-.13,1.08,1.08,0,0,0,.56-.43,1.16,1.16,0,0,0,.19-.64,1.07,1.07,0,0,0-.37-.83,1.73,1.73,0,0,0-1.17-.33h-2.27Z" transform="translate(0 -1.3)"/><path d="M243.5,37.54V30.38h1.43l1.69,5.07q.23.71.34,1.06.12-.39.38-1.15l1.71-5h1.27v7.16h-.91v-6l-2.08,6h-.85l-2.07-6.09v6.09Z" transform="translate(0 -1.3)"/><path d="M252,37.54V30.38H253v7.16Z" transform="translate(0 -1.3)"/><path d="M254.63,37.54V30.38h1L259.36,36V30.38h.91v7.16h-1l-3.76-5.62v5.63Z" transform="translate(0 -1.3)"/><path d="M261.07,37.54l2.75-7.16h1l2.93,7.16h-1.08l-.83-2.17h-3l-.79,2.17Zm2.07-2.94h2.43l-.75-2q-.34-.9-.51-1.48a9.09,9.09,0,0,1-.39,1.37Z" transform="translate(0 -1.3)"/><path d="M269.61,37.54V31.23h-2.36v-.84h5.67v.84h-2.37v6.31Z" transform="translate(0 -1.3)"/><path d="M274.06,37.54V30.38H275v7.16Z" transform="translate(0 -1.3)"/><path d="M276.39,34.05a3.89,3.89,0,0,1,1-2.79,3.25,3.25,0,0,1,2.47-1,3.42,3.42,0,0,1,1.79.47A3.1,3.1,0,0,1,282.81,32a4.3,4.3,0,0,1,.42,1.92,4.22,4.22,0,0,1-.44,1.95,3,3,0,0,1-1.25,1.3,3.56,3.56,0,0,1-1.74.44,3.38,3.38,0,0,1-1.81-.49,3.15,3.15,0,0,1-1.21-1.33A4,4,0,0,1,276.39,34.05Zm1,0a2.86,2.86,0,0,0,.7,2,2.43,2.43,0,0,0,3.51,0,3,3,0,0,0,.69-2.13,3.66,3.66,0,0,0-.3-1.53,2.27,2.27,0,0,0-.86-1,2.35,2.35,0,0,0-1.28-.36,2.42,2.42,0,0,0-1.73.69A3.08,3.08,0,0,0,277.36,34.07Z" transform="translate(0 -1.3)"/><path d="M284.44,37.54V30.38h1L289.17,36V30.38h.91v7.16h-1l-3.76-5.62v5.63Z" transform="translate(0 -1.3)"/><path d="M163.15,49.54V42.38h2.7a6.54,6.54,0,0,1,1.09.07,2.15,2.15,0,0,1,.88.33,1.75,1.75,0,0,1,.57.69A2.33,2.33,0,0,1,168,46a2.79,2.79,0,0,1-2.1.63H164.1v2.91Zm.95-3.75h1.85a2,2,0,0,0,1.3-.34,1.22,1.22,0,0,0,.39-1,1.29,1.29,0,0,0-.23-.77,1.06,1.06,0,0,0-.6-.42,4,4,0,0,0-.88-.06H164.1Z" transform="translate(0 -1.3)"/><path d="M169.53,46.05a3.89,3.89,0,0,1,1-2.79,3.25,3.25,0,0,1,2.47-1,3.42,3.42,0,0,1,1.79.47A3.1,3.1,0,0,1,176,44a4.3,4.3,0,0,1,.42,1.92,4.22,4.22,0,0,1-.44,1.95,3,3,0,0,1-1.25,1.3,3.56,3.56,0,0,1-1.74.44,3.38,3.38,0,0,1-1.81-.49,3.15,3.15,0,0,1-1.21-1.33A4,4,0,0,1,169.53,46.05Zm1,0a2.86,2.86,0,0,0,.7,2,2.43,2.43,0,0,0,3.51,0A3,3,0,0,0,175.4,46a3.66,3.66,0,0,0-.3-1.53,2.27,2.27,0,0,0-.86-1,2.35,2.35,0,0,0-1.28-.36,2.42,2.42,0,0,0-1.73.69A3.08,3.08,0,0,0,170.51,46.07Z" transform="translate(0 -1.3)"/><path d="M177.76,49.54V42.38h.95v7.16Z" transform="translate(0 -1.3)"/><path d="M180.37,49.54V42.38h1L185.1,48V42.38H186v7.16h-1l-3.76-5.62v5.63Z" transform="translate(0 -1.3)"/><path d="M189.42,49.54V43.23h-2.36v-.84h5.67v.84h-2.37v6.31Z" transform="translate(0 -1.3)"/><path d="M193.73,49.54V42.38h5.18v.84h-4.23v2.19h4v.84h-4v2.44h4.39v.84Z" transform="translate(0 -1.3)"/><path d="M200.38,49.54V42.38h2.47a6,6,0,0,1,1.27.1,2.42,2.42,0,0,1,1,.51,2.9,2.9,0,0,1,.85,1.22,4.79,4.79,0,0,1,.28,1.7,5,5,0,0,1-.19,1.45,3.51,3.51,0,0,1-.49,1,2.6,2.6,0,0,1-.65.65,2.67,2.67,0,0,1-.86.36,4.86,4.86,0,0,1-1.15.12Zm.95-.84h1.53a3.7,3.7,0,0,0,1.11-.13,1.58,1.58,0,0,0,.64-.37,2.27,2.27,0,0,0,.53-.91,4.44,4.44,0,0,0,.19-1.38,3.33,3.33,0,0,0-.37-1.73,1.85,1.85,0,0,0-.9-.81,3.7,3.7,0,0,0-1.23-.15h-1.5Z" transform="translate(0 -1.3)"/><path d="M210.38,49.54V42.38h2.47a6,6,0,0,1,1.27.1,2.42,2.42,0,0,1,1,.51,2.9,2.9,0,0,1,.85,1.22,4.79,4.79,0,0,1,.28,1.7,5,5,0,0,1-.19,1.45,3.51,3.51,0,0,1-.49,1,2.6,2.6,0,0,1-.65.65,2.67,2.67,0,0,1-.86.36,4.86,4.86,0,0,1-1.15.12Zm.95-.84h1.53a3.7,3.7,0,0,0,1.11-.13,1.58,1.58,0,0,0,.64-.37,2.27,2.27,0,0,0,.53-.91,4.44,4.44,0,0,0,.19-1.38,3.33,3.33,0,0,0-.37-1.73,1.85,1.85,0,0,0-.9-.81,3.7,3.7,0,0,0-1.23-.15h-1.5Z" transform="translate(0 -1.3)"/><path d="M217.31,46.05a3.89,3.89,0,0,1,1-2.79,3.25,3.25,0,0,1,2.47-1,3.42,3.42,0,0,1,1.79.47A3.1,3.1,0,0,1,223.74,44a4.3,4.3,0,0,1,.42,1.92,4.22,4.22,0,0,1-.44,1.95,3,3,0,0,1-1.25,1.3,3.56,3.56,0,0,1-1.74.44,3.38,3.38,0,0,1-1.81-.49,3.15,3.15,0,0,1-1.21-1.33A4,4,0,0,1,217.31,46.05Zm1,0a2.86,2.86,0,0,0,.7,2,2.43,2.43,0,0,0,3.51,0,3,3,0,0,0,.69-2.13,3.66,3.66,0,0,0-.3-1.53,2.27,2.27,0,0,0-.86-1,2.35,2.35,0,0,0-1.28-.36,2.42,2.42,0,0,0-1.73.69A3.08,3.08,0,0,0,218.29,46.07Z" transform="translate(0 -1.3)"/><path d="M226.63,49.54l-1.9-7.16h1l1.09,4.69q.18.74.3,1.46.27-1.15.32-1.32l1.36-4.83h1.14l1,3.62a19.3,19.3,0,0,1,.56,2.53q.14-.68.36-1.56l1.12-4.6h1l-2,7.16h-.91l-1.51-5.45q-.19-.68-.22-.84c-.08.33-.14.61-.21.84l-1.52,5.45Z" transform="translate(0 -1.3)"/><path d="M234.81,49.54V42.38h1L239.54,48V42.38h.91v7.16h-1l-3.76-5.62v5.63Z" transform="translate(0 -1.3)"/><path d="M246.46,49.54V43.23H244.1v-.84h5.67v.84H247.4v6.31Z" transform="translate(0 -1.3)"/><path d="M250.27,46.05a3.89,3.89,0,0,1,1-2.79,3.25,3.25,0,0,1,2.47-1,3.42,3.42,0,0,1,1.79.47A3.1,3.1,0,0,1,256.7,44a4.3,4.3,0,0,1,.42,1.92,4.22,4.22,0,0,1-.44,1.95,3,3,0,0,1-1.25,1.3,3.56,3.56,0,0,1-1.74.44,3.38,3.38,0,0,1-1.81-.49,3.15,3.15,0,0,1-1.21-1.33A4,4,0,0,1,250.27,46.05Zm1,0a2.86,2.86,0,0,0,.7,2,2.43,2.43,0,0,0,3.51,0,3,3,0,0,0,.69-2.13,3.66,3.66,0,0,0-.3-1.53,2.27,2.27,0,0,0-.86-1,2.35,2.35,0,0,0-1.28-.36,2.42,2.42,0,0,0-1.73.69A3.08,3.08,0,0,0,251.25,46.07Z" transform="translate(0 -1.3)"/><path d="M259.59,49.54l-1.9-7.16h1l1.09,4.69q.18.74.3,1.46.27-1.15.32-1.32l1.36-4.83h1.14l1,3.62a19.3,19.3,0,0,1,.56,2.53q.14-.68.36-1.56l1.12-4.6h1l-2,7.16H264l-1.51-5.45q-.19-.68-.22-.84c-.08.33-.14.61-.21.84l-1.52,5.45Z" transform="translate(0 -1.3)"/><path d="M266.62,49.54l2.75-7.16h1l2.93,7.16h-1.08l-.83-2.17h-3l-.79,2.17Zm2.07-2.94h2.43l-.75-2q-.34-.9-.51-1.48a9.09,9.09,0,0,1-.39,1.37Z" transform="translate(0 -1.3)"/><path d="M274.09,49.54V42.38h3.17a4.23,4.23,0,0,1,1.46.19,1.59,1.59,0,0,1,.8.68,2,2,0,0,1,.3,1.08,1.8,1.8,0,0,1-.49,1.28,2.5,2.5,0,0,1-1.52.66,2.45,2.45,0,0,1,.57.36,4.92,4.92,0,0,1,.79,1l1.25,1.95h-1.19L278.26,48q-.41-.64-.68-1a2.12,2.12,0,0,0-.48-.48,1.4,1.4,0,0,0-.43-.19,2.83,2.83,0,0,0-.53,0H275v3.18Zm.95-4h2a3.06,3.06,0,0,0,1-.13,1.08,1.08,0,0,0,.56-.43,1.16,1.16,0,0,0,.19-.64,1.07,1.07,0,0,0-.37-.83,1.73,1.73,0,0,0-1.17-.33H275Z" transform="translate(0 -1.3)"/><path d="M281.3,49.54V42.38h2.47a6,6,0,0,1,1.27.1,2.42,2.42,0,0,1,1,.51,2.9,2.9,0,0,1,.85,1.22,4.79,4.79,0,0,1,.28,1.7,5,5,0,0,1-.19,1.45,3.51,3.51,0,0,1-.49,1,2.6,2.6,0,0,1-.65.65,2.67,2.67,0,0,1-.86.36,4.86,4.86,0,0,1-1.15.12Zm.95-.84h1.53a3.7,3.7,0,0,0,1.11-.13,1.58,1.58,0,0,0,.64-.37,2.27,2.27,0,0,0,.53-.91,4.44,4.44,0,0,0,.19-1.38,3.33,3.33,0,0,0-.37-1.73,1.85,1.85,0,0,0-.9-.81,3.7,3.7,0,0,0-1.23-.15h-1.5Z" transform="translate(0 -1.3)"/><path d="M288.2,47.24l.89-.08a2,2,0,0,0,.3.88,1.61,1.61,0,0,0,.72.56,2.73,2.73,0,0,0,1.1.21,2.63,2.63,0,0,0,1-.16,1.33,1.33,0,0,0,.62-.44,1,1,0,0,0,.2-.61.93.93,0,0,0-.2-.59,1.44,1.44,0,0,0-.64-.42,12.65,12.65,0,0,0-1.27-.35,6.5,6.5,0,0,1-1.38-.45,1.93,1.93,0,0,1-.76-.67,1.63,1.63,0,0,1-.25-.89,1.82,1.82,0,0,1,.31-1,1.91,1.91,0,0,1,.9-.72,3.41,3.41,0,0,1,1.31-.24,3.6,3.6,0,0,1,1.4.26,2,2,0,0,1,.93.75,2.17,2.17,0,0,1,.35,1.13l-.91.07a1.47,1.47,0,0,0-.5-1,1.93,1.93,0,0,0-1.25-.35,2,2,0,0,0-1.25.31.94.94,0,0,0-.39.76.81.81,0,0,0,.28.63,3.78,3.78,0,0,0,1.43.51,9.43,9.43,0,0,1,1.58.46,2.17,2.17,0,0,1,.92.73,1.78,1.78,0,0,1,.3,1,2,2,0,0,1-.33,1.08,2.15,2.15,0,0,1-.94.79,3.28,3.28,0,0,1-1.38.28,4.11,4.11,0,0,1-1.63-.28,2.28,2.28,0,0,1-1-.85A2.42,2.42,0,0,1,288.2,47.24Z" transform="translate(0 -1.3)"/><path d="M197.38,61.54V55.23H195v-.84h5.67v.84h-2.37v6.31Z" transform="translate(0 -1.3)"/><path d="M201.7,61.54V54.38h.95v2.94h3.72V54.38h.95v7.16h-.95V58.16h-3.72v3.37Z" transform="translate(0 -1.3)"/><path d="M208.91,61.54V54.38h5.18v.84h-4.23v2.19h4v.84h-4v2.44h4.39v.84Z" transform="translate(0 -1.3)"/><path d="M221.69,58.73v-.84h3v2.66a5.35,5.35,0,0,1-1.44.84,4.28,4.28,0,0,1-1.52.28,4.06,4.06,0,0,1-1.92-.45,3,3,0,0,1-1.3-1.31A4.11,4.11,0,0,1,218.1,58a4.43,4.43,0,0,1,.44-2,2.91,2.91,0,0,1,1.26-1.35,3.94,3.94,0,0,1,1.89-.44,3.74,3.74,0,0,1,1.4.25,2.32,2.32,0,0,1,1,.7,3.12,3.12,0,0,1,.54,1.17l-.85.23a2.65,2.65,0,0,0-.4-.86,1.64,1.64,0,0,0-.68-.5,2.5,2.5,0,0,0-1-.19,2.9,2.9,0,0,0-1.12.2,2.09,2.09,0,0,0-.76.52,2.47,2.47,0,0,0-.45.71,3.74,3.74,0,0,0-.27,1.44,3.51,3.51,0,0,0,.33,1.6,2.12,2.12,0,0,0,1,1,3,3,0,0,0,1.34.31,3.18,3.18,0,0,0,1.2-.24,3.1,3.1,0,0,0,.89-.51V58.73Z" transform="translate(0 -1.3)"/><path d="M226.13,61.54V54.38h3.17a4.23,4.23,0,0,1,1.46.19,1.59,1.59,0,0,1,.8.68,2,2,0,0,1,.3,1.08,1.8,1.8,0,0,1-.49,1.28,2.5,2.5,0,0,1-1.52.66,2.45,2.45,0,0,1,.57.36,4.92,4.92,0,0,1,.79,1l1.25,1.95h-1.19L230.3,60q-.41-.64-.68-1a2.12,2.12,0,0,0-.48-.48,1.4,1.4,0,0,0-.43-.19,2.83,2.83,0,0,0-.53,0h-1.1v3.18Zm.95-4h2a3.06,3.06,0,0,0,1-.13,1.08,1.08,0,0,0,.56-.43,1.16,1.16,0,0,0,.19-.64,1.07,1.07,0,0,0-.37-.83,1.73,1.73,0,0,0-1.17-.33h-2.27Z" transform="translate(0 -1.3)"/><path d="M233,58.05a3.89,3.89,0,0,1,1-2.79,3.25,3.25,0,0,1,2.47-1,3.42,3.42,0,0,1,1.79.47A3.1,3.1,0,0,1,239.48,56,4.3,4.3,0,0,1,239.9,58a4.22,4.22,0,0,1-.44,1.95,3,3,0,0,1-1.25,1.3,3.56,3.56,0,0,1-1.74.44,3.38,3.38,0,0,1-1.81-.49,3.15,3.15,0,0,1-1.21-1.33A4,4,0,0,1,233,58.05Zm1,0a2.86,2.86,0,0,0,.7,2,2.43,2.43,0,0,0,3.51,0,3,3,0,0,0,.69-2.13,3.66,3.66,0,0,0-.3-1.53,2.27,2.27,0,0,0-.86-1,2.35,2.35,0,0,0-1.28-.36,2.42,2.42,0,0,0-1.73.69A3.08,3.08,0,0,0,234,58.07Z" transform="translate(0 -1.3)"/><path d="M245.81,54.38h.95v4.14a4.89,4.89,0,0,1-.24,1.71,2.1,2.1,0,0,1-.88,1,3.13,3.13,0,0,1-1.67.4,3.44,3.44,0,0,1-1.65-.35,2,2,0,0,1-.91-1,4.78,4.78,0,0,1-.27-1.79V54.38h.95v4.13a4,4,0,0,0,.17,1.37,1.32,1.32,0,0,0,.6.68,2.07,2.07,0,0,0,1,.24,2,2,0,0,0,1.49-.47,2.73,2.73,0,0,0,.44-1.82Z" transform="translate(0 -1.3)"/><path d="M248.33,61.54V54.38h1L253.06,60V54.38H254v7.16h-1l-3.76-5.62v5.63Z" transform="translate(0 -1.3)"/><path d="M255.56,61.54V54.38H258a6,6,0,0,1,1.27.1,2.42,2.42,0,0,1,1,.51,2.9,2.9,0,0,1,.85,1.22,4.79,4.79,0,0,1,.28,1.7,5,5,0,0,1-.19,1.45,3.51,3.51,0,0,1-.49,1,2.6,2.6,0,0,1-.65.65,2.67,2.67,0,0,1-.86.36,4.86,4.86,0,0,1-1.15.12Zm.95-.84H258a3.7,3.7,0,0,0,1.11-.13,1.58,1.58,0,0,0,.64-.37,2.27,2.27,0,0,0,.53-.91,4.44,4.44,0,0,0,.19-1.38,3.33,3.33,0,0,0-.37-1.73,1.85,1.85,0,0,0-.9-.81,3.7,3.7,0,0,0-1.23-.15h-1.5Z" transform="translate(0 -1.3)"/><path d="M26,45V37.88h4.83v.84H27v2.22h3.36v.84H27V45Z" transform="translate(0 -1.3)"/><path d="M32.27,45V37.88h.95V45Z" transform="translate(0 -1.3)"/><path d="M34.91,45V37.88h5.18v.84H35.85v2.19h4v.84h-4v2.44h4.39V45Z" transform="translate(0 -1.3)"/><path d="M41.52,45V37.88h.95v6.31H46V45Z" transform="translate(0 -1.3)"/><path d="M47.12,45V37.88h2.47a6,6,0,0,1,1.27.1,2.42,2.42,0,0,1,1,.51,2.9,2.9,0,0,1,.85,1.22,4.79,4.79,0,0,1,.28,1.7,5,5,0,0,1-.19,1.45,3.51,3.51,0,0,1-.49,1,2.6,2.6,0,0,1-.65.65,2.67,2.67,0,0,1-.86.36A4.86,4.86,0,0,1,49.7,45Zm.95-.84h1.53a3.7,3.7,0,0,0,1.11-.13,1.58,1.58,0,0,0,.64-.37,2.27,2.27,0,0,0,.53-.91,4.44,4.44,0,0,0,.19-1.38,3.33,3.33,0,0,0-.37-1.73,1.85,1.85,0,0,0-.9-.81,3.7,3.7,0,0,0-1.23-.15h-1.5Z" transform="translate(0 -1.3)"/><path d="M15.12,54.74l.89-.08a2,2,0,0,0,.3.88,1.61,1.61,0,0,0,.72.56,2.73,2.73,0,0,0,1.1.21,2.63,2.63,0,0,0,1-.16,1.33,1.33,0,0,0,.62-.44,1,1,0,0,0,.2-.61.93.93,0,0,0-.2-.59,1.44,1.44,0,0,0-.64-.42,12.65,12.65,0,0,0-1.27-.35,6.5,6.5,0,0,1-1.38-.45,1.93,1.93,0,0,1-.76-.67,1.63,1.63,0,0,1-.25-.89,1.82,1.82,0,0,1,.31-1,1.91,1.91,0,0,1,.9-.72,3.41,3.41,0,0,1,1.31-.24,3.6,3.6,0,0,1,1.4.26,2,2,0,0,1,.93.75,2.17,2.17,0,0,1,.35,1.13l-.91.07a1.47,1.47,0,0,0-.5-1,1.93,1.93,0,0,0-1.25-.35,2,2,0,0,0-1.25.31.94.94,0,0,0-.39.76.81.81,0,0,0,.28.63,3.78,3.78,0,0,0,1.43.51,9.43,9.43,0,0,1,1.58.46,2.17,2.17,0,0,1,.92.73,1.78,1.78,0,0,1,.3,1,2,2,0,0,1-.33,1.08,2.15,2.15,0,0,1-.94.79,3.28,3.28,0,0,1-1.38.28,4.11,4.11,0,0,1-1.63-.28,2.28,2.28,0,0,1-1-.85A2.42,2.42,0,0,1,15.12,54.74Z" transform="translate(0 -1.3)"/><path d="M26.81,49.88h.95V54a4.89,4.89,0,0,1-.24,1.71,2.1,2.1,0,0,1-.88,1,3.13,3.13,0,0,1-1.67.4,3.44,3.44,0,0,1-1.65-.35,2,2,0,0,1-.91-1A4.78,4.78,0,0,1,22.12,54V49.88h.95V54a4,4,0,0,0,.17,1.37,1.32,1.32,0,0,0,.6.68,2.07,2.07,0,0,0,1,.24,2,2,0,0,0,1.49-.47A2.73,2.73,0,0,0,26.81,54Z" transform="translate(0 -1.3)"/><path d="M29.33,57V49.88H32a6.54,6.54,0,0,1,1.09.07,2.15,2.15,0,0,1,.88.33,1.75,1.75,0,0,1,.57.69,2.33,2.33,0,0,1-.36,2.52,2.79,2.79,0,0,1-2.1.63H30.28V57Zm.95-3.75h1.85a2,2,0,0,0,1.3-.34,1.22,1.22,0,0,0,.39-1,1.29,1.29,0,0,0-.23-.77,1.06,1.06,0,0,0-.6-.42,4,4,0,0,0-.88-.06H30.28Z" transform="translate(0 -1.3)"/><path d="M36,57V49.88h2.7a6.54,6.54,0,0,1,1.09.07,2.15,2.15,0,0,1,.88.33,1.75,1.75,0,0,1,.57.69,2.33,2.33,0,0,1-.36,2.52,2.79,2.79,0,0,1-2.1.63H36.95V57Zm.95-3.75H38.8a2,2,0,0,0,1.3-.34,1.22,1.22,0,0,0,.39-1,1.29,1.29,0,0,0-.23-.77,1.06,1.06,0,0,0-.6-.42,4,4,0,0,0-.88-.06H36.95Z" transform="translate(0 -1.3)"/><path d="M42.63,57V49.88h.95v6.31H47.1V57Z" transform="translate(0 -1.3)"/><path d="M48.39,57V49.88h.95V57Z" transform="translate(0 -1.3)"/><path d="M51,57V49.88h5.18v.84H52v2.19h4v.84H52v2.44h4.39V57Z" transform="translate(0 -1.3)"/><path d="M57.68,57V49.88h2.47a6,6,0,0,1,1.27.1,2.42,2.42,0,0,1,1,.51,2.9,2.9,0,0,1,.85,1.22,4.79,4.79,0,0,1,.28,1.7,5,5,0,0,1-.19,1.45,3.51,3.51,0,0,1-.49,1,2.6,2.6,0,0,1-.65.65,2.67,2.67,0,0,1-.86.36,4.86,4.86,0,0,1-1.15.12Zm.95-.84h1.53a3.7,3.7,0,0,0,1.11-.13,1.58,1.58,0,0,0,.64-.37,2.27,2.27,0,0,0,.53-.91,4.44,4.44,0,0,0,.19-1.38,3.33,3.33,0,0,0-.37-1.73,1.85,1.85,0,0,0-.9-.81,3.7,3.7,0,0,0-1.23-.15h-1.5Z" transform="translate(0 -1.3)"/><path d="M12.94,67.38l.84-.08a1.46,1.46,0,0,0,.41.86,1.13,1.13,0,0,0,.78.27,1.34,1.34,0,0,0,.71-.19,1.52,1.52,0,0,0,.5-.5,2.92,2.92,0,0,0,.33-.84,4.41,4.41,0,0,0,.13-1.07s0-.1,0-.18a2,2,0,0,1-.72.68,2,2,0,0,1-1,.26,2,2,0,0,1-1.5-.64,2.36,2.36,0,0,1-.62-1.7,2.42,2.42,0,0,1,.64-1.75,2.15,2.15,0,0,1,1.61-.66,2.3,2.3,0,0,1,1.28.38,2.36,2.36,0,0,1,.88,1.07,5.3,5.3,0,0,1,.3,2,6.53,6.53,0,0,1-.3,2.19,2.56,2.56,0,0,1-.89,1.24,2.29,2.29,0,0,1-1.38.42,1.89,1.89,0,0,1-2-1.78Zm3.6-3.16a1.72,1.72,0,0,0-.4-1.2,1.26,1.26,0,0,0-1-.44,1.34,1.34,0,0,0-1,.48,1.77,1.77,0,0,0-.43,1.24,1.53,1.53,0,0,0,.41,1.11,1.36,1.36,0,0,0,1,.43,1.3,1.3,0,0,0,1-.43A1.68,1.68,0,0,0,16.53,64.22Z" transform="translate(0 -1.3)"/><path d="M18.37,65.51a6.56,6.56,0,0,1,.26-2,2.54,2.54,0,0,1,.78-1.19,2,2,0,0,1,1.3-.42,2.11,2.11,0,0,1,1,.23,1.93,1.93,0,0,1,.72.67,3.6,3.6,0,0,1,.44,1.06A7.07,7.07,0,0,1,23,65.51a6.56,6.56,0,0,1-.26,2,2.55,2.55,0,0,1-.77,1.2,2,2,0,0,1-1.3.42,2,2,0,0,1-1.63-.74A4.72,4.72,0,0,1,18.37,65.51Zm.9,0a4.5,4.5,0,0,0,.41,2.35,1.18,1.18,0,0,0,2,0,4.5,4.5,0,0,0,.41-2.34,4.49,4.49,0,0,0-.41-2.35,1.23,1.23,0,0,0-1-.58,1.13,1.13,0,0,0-1,.51A4.54,4.54,0,0,0,19.27,65.51Z" transform="translate(0 -1.3)"/><path d="M24.14,63.11a1.36,1.36,0,1,1,.4,1A1.3,1.3,0,0,1,24.14,63.11Zm.53,0a.82.82,0,0,0,.83.83.83.83,0,0,0,0-1.65.82.82,0,0,0-.83.83Z" transform="translate(0 -1.3)"/><path d="M31.08,69V61.88h5.18v.84H32v2.19h4v.84H32v2.44h4.39V69Z" transform="translate(0 -1.3)"/><path d="M37.69,69V61.88h.95v6.31h3.53V69Z" transform="translate(0 -1.3)"/><path d="M43.25,69V61.88h2.69a3.33,3.33,0,0,1,1.32.22,1.69,1.69,0,0,1,.78.67,1.76,1.76,0,0,1,.28.94,1.62,1.62,0,0,1-.25.86,1.78,1.78,0,0,1-.75.65,1.87,1.87,0,0,1,1,.65A1.74,1.74,0,0,1,48.66,67a2.1,2.1,0,0,1-.21.94,1.82,1.82,0,0,1-.53.67,2.19,2.19,0,0,1-.78.35A4.78,4.78,0,0,1,46,69Zm.95-4.15h1.55a3.46,3.46,0,0,0,.9-.08,1,1,0,0,0,.54-.36,1,1,0,0,0,.18-.62,1.15,1.15,0,0,0-.17-.63.87.87,0,0,0-.49-.37,4.07,4.07,0,0,0-1.09-.1H44.2Zm0,3.31H46a4.09,4.09,0,0,0,.64,0,1.54,1.54,0,0,0,.55-.2,1,1,0,0,0,.36-.4,1.24,1.24,0,0,0,.14-.6,1.19,1.19,0,0,0-.21-.7,1.08,1.08,0,0,0-.57-.42,3.54,3.54,0,0,0-1-.12H44.2Z" transform="translate(0 -1.3)"/><path d="M49.67,65.55a3.89,3.89,0,0,1,1-2.79,3.25,3.25,0,0,1,2.47-1,3.42,3.42,0,0,1,1.79.47,3.1,3.1,0,0,1,1.21,1.32,4.3,4.3,0,0,1,.42,1.92,4.22,4.22,0,0,1-.44,1.95,3,3,0,0,1-1.25,1.3,3.56,3.56,0,0,1-1.74.44,3.38,3.38,0,0,1-1.81-.49,3.15,3.15,0,0,1-1.21-1.33A4,4,0,0,1,49.67,65.55Zm1,0a2.86,2.86,0,0,0,.7,2,2.43,2.43,0,0,0,3.51,0,3,3,0,0,0,.69-2.13,3.66,3.66,0,0,0-.3-1.53,2.27,2.27,0,0,0-.86-1,2.35,2.35,0,0,0-1.28-.36,2.42,2.42,0,0,0-1.73.69A3.08,3.08,0,0,0,50.65,65.57Z" transform="translate(0 -1.3)"/><path d="M59,69l-1.9-7.16h1l1.09,4.69q.18.74.3,1.46.27-1.15.32-1.32l1.36-4.83h1.14l1,3.62A19.3,19.3,0,0,1,63.86,68q.14-.68.36-1.56l1.12-4.6h1l-2,7.16h-.91l-1.51-5.45q-.19-.68-.22-.84c-.08.33-.14.61-.21.84L60,69Z" transform="translate(0 -1.3)"/><path d="M5.72,324v-7.16h4.83v.84H6.67v2.22H10v.84H6.67V324Z" transform="translate(0 -1.3)"/><path d="M11.94,324v-7.16h.95V324Z" transform="translate(0 -1.3)"/><path d="M14.58,324v-7.16h5.18v.84H15.52v2.19h4v.84h-4v2.44h4.39V324Z" transform="translate(0 -1.3)"/><path d="M21.19,324v-7.16h.95v6.31h3.53V324Z" transform="translate(0 -1.3)"/><path d="M26.79,324v-7.16h2.47a6,6,0,0,1,1.27.1,2.42,2.42,0,0,1,1,.51,2.9,2.9,0,0,1,.85,1.22,4.8,4.8,0,0,1,.28,1.7,5,5,0,0,1-.19,1.45,3.5,3.5,0,0,1-.49,1,2.6,2.6,0,0,1-.65.65,2.67,2.67,0,0,1-.86.36,4.89,4.89,0,0,1-1.15.12Zm.95-.84h1.53a3.7,3.7,0,0,0,1.11-.13,1.58,1.58,0,0,0,.64-.37,2.26,2.26,0,0,0,.53-.91,4.43,4.43,0,0,0,.19-1.38,3.33,3.33,0,0,0-.37-1.73,1.85,1.85,0,0,0-.9-.81,3.7,3.7,0,0,0-1.23-.15h-1.5Z" transform="translate(0 -1.3)"/><path d="M5.35,333.74l.89-.08a2,2,0,0,0,.3.88,1.62,1.62,0,0,0,.72.56,2.74,2.74,0,0,0,1.1.21,2.63,2.63,0,0,0,1-.16,1.33,1.33,0,0,0,.62-.44,1,1,0,0,0,.2-.61.93.93,0,0,0-.2-.59,1.44,1.44,0,0,0-.64-.42A12.42,12.42,0,0,0,8,332.74a6.49,6.49,0,0,1-1.38-.45,1.94,1.94,0,0,1-.76-.67,1.63,1.63,0,0,1-.25-.89,1.82,1.82,0,0,1,.31-1,1.91,1.91,0,0,1,.9-.72,3.4,3.4,0,0,1,1.31-.24,3.58,3.58,0,0,1,1.4.26,2,2,0,0,1,.93.75,2.17,2.17,0,0,1,.35,1.13l-.91.07a1.47,1.47,0,0,0-.5-1,1.93,1.93,0,0,0-1.25-.35,2,2,0,0,0-1.25.31.94.94,0,0,0-.39.76.81.81,0,0,0,.28.63,3.77,3.77,0,0,0,1.43.51,9.41,9.41,0,0,1,1.58.46,2.16,2.16,0,0,1,.92.73,1.78,1.78,0,0,1,.3,1,2,2,0,0,1-.33,1.08,2.15,2.15,0,0,1-.94.79,3.29,3.29,0,0,1-1.38.28,4.12,4.12,0,0,1-1.63-.28,2.28,2.28,0,0,1-1-.85A2.42,2.42,0,0,1,5.35,333.74Z" transform="translate(0 -1.3)"/><path d="M17,328.88H18V333a4.89,4.89,0,0,1-.24,1.71,2.1,2.1,0,0,1-.88,1,3.13,3.13,0,0,1-1.67.4,3.44,3.44,0,0,1-1.65-.35,2,2,0,0,1-.91-1,4.77,4.77,0,0,1-.27-1.79v-4.14h.95V333a4,4,0,0,0,.17,1.38,1.32,1.32,0,0,0,.6.68,2.07,2.07,0,0,0,1,.24,2,2,0,0,0,1.49-.47A2.73,2.73,0,0,0,17,333Z" transform="translate(0 -1.3)"/><path d="M19.56,336v-7.16h2.7a6.59,6.59,0,0,1,1.09.07,2.16,2.16,0,0,1,.88.33,1.76,1.76,0,0,1,.57.69,2.33,2.33,0,0,1-.36,2.52,2.79,2.79,0,0,1-2.1.63H20.51V336Zm.95-3.75h1.85a2,2,0,0,0,1.3-.34,1.22,1.22,0,0,0,.39-1,1.29,1.29,0,0,0-.23-.77,1.06,1.06,0,0,0-.6-.42,4,4,0,0,0-.88-.06H20.51Z" transform="translate(0 -1.3)"/><path d="M26.23,336v-7.16h2.7a6.59,6.59,0,0,1,1.09.07,2.16,2.16,0,0,1,.88.33,1.76,1.76,0,0,1,.57.69,2.33,2.33,0,0,1-.36,2.52,2.79,2.79,0,0,1-2.1.63H27.18V336Zm.95-3.75H29a2,2,0,0,0,1.3-.34,1.22,1.22,0,0,0,.39-1,1.29,1.29,0,0,0-.23-.77,1.06,1.06,0,0,0-.6-.42,4,4,0,0,0-.88-.06H27.18Z" transform="translate(0 -1.3)"/><path d="M32.86,336v-7.16h.95v6.31h3.53V336Z" transform="translate(0 -1.3)"/><path d="M38.62,336v-7.16h.95V336Z" transform="translate(0 -1.3)"/><path d="M41.26,336v-7.16h5.18v.84H42.21v2.19h4v.84h-4v2.44H46.6V336Z" transform="translate(0 -1.3)"/><path d="M47.91,336v-7.16h2.47a6,6,0,0,1,1.27.1,2.42,2.42,0,0,1,1,.51,2.9,2.9,0,0,1,.85,1.22,4.8,4.8,0,0,1,.28,1.7,5,5,0,0,1-.19,1.45,3.5,3.5,0,0,1-.49,1,2.6,2.6,0,0,1-.65.65,2.67,2.67,0,0,1-.86.36,4.89,4.89,0,0,1-1.15.12Zm.95-.84h1.53a3.7,3.7,0,0,0,1.11-.13,1.58,1.58,0,0,0,.64-.37,2.26,2.26,0,0,0,.53-.91,4.43,4.43,0,0,0,.19-1.38,3.33,3.33,0,0,0-.37-1.73,1.85,1.85,0,0,0-.9-.81,3.7,3.7,0,0,0-1.23-.15h-1.5Z" transform="translate(0 -1.3)"/><path d="M5.35,345.74l.89-.08a2,2,0,0,0,.3.88,1.62,1.62,0,0,0,.72.56,2.74,2.74,0,0,0,1.1.21,2.63,2.63,0,0,0,1-.16,1.33,1.33,0,0,0,.62-.44,1,1,0,0,0,.2-.61.93.93,0,0,0-.2-.59,1.44,1.44,0,0,0-.64-.42A12.42,12.42,0,0,0,8,344.74a6.49,6.49,0,0,1-1.38-.45,1.94,1.94,0,0,1-.76-.67,1.63,1.63,0,0,1-.25-.89,1.82,1.82,0,0,1,.31-1,1.91,1.91,0,0,1,.9-.72,3.4,3.4,0,0,1,1.31-.24,3.58,3.58,0,0,1,1.4.26,2,2,0,0,1,.93.75,2.17,2.17,0,0,1,.35,1.13l-.91.07a1.47,1.47,0,0,0-.5-1,1.93,1.93,0,0,0-1.25-.35,2,2,0,0,0-1.25.31.94.94,0,0,0-.39.76.81.81,0,0,0,.28.63,3.77,3.77,0,0,0,1.43.51,9.41,9.41,0,0,1,1.58.46,2.16,2.16,0,0,1,.92.73,1.78,1.78,0,0,1,.3,1,2,2,0,0,1-.33,1.08,2.15,2.15,0,0,1-.94.79,3.29,3.29,0,0,1-1.38.28,4.12,4.12,0,0,1-1.63-.28,2.28,2.28,0,0,1-1-.85A2.42,2.42,0,0,1,5.35,345.74Z" transform="translate(0 -1.3)"/><path d="M14.16,348v-6.31H11.8v-.84h5.67v.84H15.11V348Z" transform="translate(0 -1.3)"/><path d="M18.46,348v-7.16h3.17a4.22,4.22,0,0,1,1.46.19,1.59,1.59,0,0,1,.8.68,2,2,0,0,1,.3,1.08,1.8,1.8,0,0,1-.49,1.28,2.5,2.5,0,0,1-1.52.66,2.43,2.43,0,0,1,.57.36,4.92,4.92,0,0,1,.79,1L24.77,348H23.58l-.95-1.49q-.41-.64-.68-1a2.12,2.12,0,0,0-.48-.48,1.4,1.4,0,0,0-.43-.19,2.79,2.79,0,0,0-.53,0h-1.1V348Zm.95-4h2a3.07,3.07,0,0,0,1-.13,1.09,1.09,0,0,0,.56-.43,1.17,1.17,0,0,0,.19-.64,1.07,1.07,0,0,0-.37-.83,1.73,1.73,0,0,0-1.17-.33H19.41Z" transform="translate(0 -1.3)"/><path d="M24.88,348l2.75-7.16h1L31.58,348H30.5l-.83-2.17h-3L25.89,348ZM27,345.1h2.43l-.75-2c-.23-.6-.4-1.1-.51-1.48a9.11,9.11,0,0,1-.39,1.37Z" transform="translate(0 -1.3)"/><path d="M32.34,348v-7.16H35a6.59,6.59,0,0,1,1.09.07,2.16,2.16,0,0,1,.88.33,1.76,1.76,0,0,1,.57.69,2.33,2.33,0,0,1-.36,2.52,2.79,2.79,0,0,1-2.1.63H33.29V348Zm.95-3.75h1.85a2,2,0,0,0,1.3-.34,1.22,1.22,0,0,0,.39-1,1.29,1.29,0,0,0-.23-.77,1.06,1.06,0,0,0-.6-.42,4,4,0,0,0-.88-.06H33.29Z" transform="translate(0 -1.3)"/><path d="M38.24,348.16l2.08-7.4H41l-2.07,7.4Z" transform="translate(0 -1.3)"/><path d="M41.47,345.74l.89-.08a2,2,0,0,0,.3.88,1.62,1.62,0,0,0,.72.56,2.74,2.74,0,0,0,1.1.21,2.63,2.63,0,0,0,1-.16,1.33,1.33,0,0,0,.62-.44,1,1,0,0,0,.2-.61.93.93,0,0,0-.2-.59,1.44,1.44,0,0,0-.64-.42,12.42,12.42,0,0,0-1.27-.35,6.49,6.49,0,0,1-1.38-.45,1.94,1.94,0,0,1-.76-.67,1.63,1.63,0,0,1-.25-.89,1.82,1.82,0,0,1,.31-1,1.91,1.91,0,0,1,.9-.72,3.4,3.4,0,0,1,1.31-.24,3.58,3.58,0,0,1,1.4.26,2,2,0,0,1,.93.75A2.17,2.17,0,0,1,47,342.9L46,343a1.47,1.47,0,0,0-.5-1,1.93,1.93,0,0,0-1.25-.35,2,2,0,0,0-1.25.31.94.94,0,0,0-.39.76.81.81,0,0,0,.28.63,3.77,3.77,0,0,0,1.43.51,9.41,9.41,0,0,1,1.58.46,2.16,2.16,0,0,1,.92.73,1.78,1.78,0,0,1,.3,1,2,2,0,0,1-.33,1.08,2.15,2.15,0,0,1-.94.79,3.29,3.29,0,0,1-1.38.28,4.12,4.12,0,0,1-1.63-.28,2.28,2.28,0,0,1-1-.85A2.42,2.42,0,0,1,41.47,345.74Z" transform="translate(0 -1.3)"/><path d="M53.16,340.88h.95V345a4.89,4.89,0,0,1-.24,1.71,2.1,2.1,0,0,1-.88,1,3.13,3.13,0,0,1-1.67.4,3.44,3.44,0,0,1-1.65-.35,2,2,0,0,1-.91-1,4.77,4.77,0,0,1-.27-1.79v-4.14h.95V345a4,4,0,0,0,.17,1.38,1.32,1.32,0,0,0,.6.68,2.07,2.07,0,0,0,1,.24,2,2,0,0,0,1.49-.47,2.73,2.73,0,0,0,.44-1.82Z" transform="translate(0 -1.3)"/><path d="M55.68,348v-7.16h2.7a6.59,6.59,0,0,1,1.09.07,2.16,2.16,0,0,1,.88.33,1.76,1.76,0,0,1,.57.69,2.33,2.33,0,0,1-.36,2.52,2.79,2.79,0,0,1-2.1.63H56.63V348Zm.95-3.75h1.85a2,2,0,0,0,1.3-.34,1.22,1.22,0,0,0,.39-1,1.29,1.29,0,0,0-.23-.77,1.06,1.06,0,0,0-.6-.42,4,4,0,0,0-.88-.06H56.63Z" transform="translate(0 -1.3)"/><path d="M62.35,348v-7.16h2.7a6.59,6.59,0,0,1,1.09.07,2.16,2.16,0,0,1,.88.33,1.76,1.76,0,0,1,.57.69,2.33,2.33,0,0,1-.36,2.52,2.79,2.79,0,0,1-2.1.63H63.3V348Zm.95-3.75h1.85a2,2,0,0,0,1.3-.34,1.22,1.22,0,0,0,.39-1,1.29,1.29,0,0,0-.23-.77,1.06,1.06,0,0,0-.6-.42,4,4,0,0,0-.88-.06H63.3Z" transform="translate(0 -1.3)"/><path d="M68.73,344.55a3.89,3.89,0,0,1,1-2.79,3.25,3.25,0,0,1,2.47-1,3.43,3.43,0,0,1,1.79.47,3.1,3.1,0,0,1,1.21,1.32,4.3,4.3,0,0,1,.42,1.92,4.22,4.22,0,0,1-.44,1.95,3,3,0,0,1-1.25,1.3,3.55,3.55,0,0,1-1.74.44,3.39,3.39,0,0,1-1.81-.49,3.15,3.15,0,0,1-1.21-1.33A4,4,0,0,1,68.73,344.55Zm1,0a2.86,2.86,0,0,0,.7,2,2.43,2.43,0,0,0,3.51,0,3,3,0,0,0,.69-2.13,3.66,3.66,0,0,0-.3-1.53,2.27,2.27,0,0,0-.86-1,2.36,2.36,0,0,0-1.28-.36,2.42,2.42,0,0,0-1.73.69A3.08,3.08,0,0,0,69.71,344.57Z" transform="translate(0 -1.3)"/><path d="M76.81,348v-7.16H80a4.22,4.22,0,0,1,1.46.19,1.59,1.59,0,0,1,.8.68,2,2,0,0,1,.3,1.08,1.8,1.8,0,0,1-.49,1.28,2.5,2.5,0,0,1-1.52.66,2.43,2.43,0,0,1,.57.36,4.92,4.92,0,0,1,.79,1L83.12,348H81.93L81,346.55q-.41-.64-.68-1a2.12,2.12,0,0,0-.48-.48,1.4,1.4,0,0,0-.43-.19,2.79,2.79,0,0,0-.53,0h-1.1V348Zm.95-4h2a3.07,3.07,0,0,0,1-.13,1.09,1.09,0,0,0,.56-.43,1.17,1.17,0,0,0,.19-.64,1.07,1.07,0,0,0-.37-.83,1.73,1.73,0,0,0-1.17-.33H77.76Z" transform="translate(0 -1.3)"/><path d="M85.66,348v-6.31H83.3v-.84H89v.84H86.61V348Z" transform="translate(0 -1.3)"/><path d="M5.22,103.54V96.38H10v.84H6.17v2.22H9.53v.84H6.17v3.25Z" transform="translate(0 -1.3)"/><path d="M11.44,103.54V96.38h.95v7.16Z" transform="translate(0 -1.3)"/><path d="M14.08,103.54V96.38h5.18v.84H15v2.19h4v.84H15v2.44h4.39v.84Z" transform="translate(0 -1.3)"/><path d="M20.69,103.54V96.38h.95v6.31h3.53v.84Z" transform="translate(0 -1.3)"/><path d="M26.29,103.54V96.38h2.47a6,6,0,0,1,1.27.1,2.42,2.42,0,0,1,1,.51,2.9,2.9,0,0,1,.85,1.22,4.79,4.79,0,0,1,.28,1.7,5,5,0,0,1-.19,1.45,3.51,3.51,0,0,1-.49,1,2.6,2.6,0,0,1-.65.65,2.67,2.67,0,0,1-.86.36,4.86,4.86,0,0,1-1.15.12Zm.95-.84h1.53a3.7,3.7,0,0,0,1.11-.13,1.58,1.58,0,0,0,.64-.37,2.27,2.27,0,0,0,.53-.91,4.44,4.44,0,0,0,.19-1.38,3.33,3.33,0,0,0-.37-1.73,1.85,1.85,0,0,0-.9-.81,3.7,3.7,0,0,0-1.23-.15h-1.5Z" transform="translate(0 -1.3)"/><path d="M36,101.24l.89-.08a2,2,0,0,0,.3.88,1.61,1.61,0,0,0,.72.56,2.73,2.73,0,0,0,1.1.21,2.63,2.63,0,0,0,1-.16,1.33,1.33,0,0,0,.62-.44,1,1,0,0,0,.2-.61.93.93,0,0,0-.2-.59,1.44,1.44,0,0,0-.64-.42,12.65,12.65,0,0,0-1.27-.35,6.5,6.5,0,0,1-1.38-.45,1.93,1.93,0,0,1-.76-.67,1.63,1.63,0,0,1-.25-.89,1.82,1.82,0,0,1,.31-1,1.91,1.91,0,0,1,.9-.72,3.41,3.41,0,0,1,1.31-.24,3.6,3.6,0,0,1,1.4.26,2,2,0,0,1,.93.75,2.17,2.17,0,0,1,.35,1.13l-.91.07a1.47,1.47,0,0,0-.5-1,1.93,1.93,0,0,0-1.25-.35,2,2,0,0,0-1.25.31.94.94,0,0,0-.39.76.81.81,0,0,0,.28.63,3.78,3.78,0,0,0,1.43.51,9.43,9.43,0,0,1,1.58.46,2.17,2.17,0,0,1,.92.73,1.78,1.78,0,0,1,.3,1,2,2,0,0,1-.33,1.08,2.15,2.15,0,0,1-.94.79,3.28,3.28,0,0,1-1.38.28,4.11,4.11,0,0,1-1.63-.28,2.28,2.28,0,0,1-1-.85A2.42,2.42,0,0,1,36,101.24Z" transform="translate(0 -1.3)"/><path d="M47.66,96.38h.95v4.14a4.89,4.89,0,0,1-.24,1.71,2.1,2.1,0,0,1-.88,1,3.13,3.13,0,0,1-1.67.4,3.44,3.44,0,0,1-1.65-.35,2,2,0,0,1-.91-1,4.78,4.78,0,0,1-.27-1.79V96.38h.95v4.13a4,4,0,0,0,.17,1.37,1.32,1.32,0,0,0,.6.68,2.07,2.07,0,0,0,1,.24,2,2,0,0,0,1.49-.47,2.73,2.73,0,0,0,.44-1.82Z" transform="translate(0 -1.3)"/><path d="M50.18,103.54V96.38h2.7a6.54,6.54,0,0,1,1.09.07,2.15,2.15,0,0,1,.88.33,1.75,1.75,0,0,1,.57.69,2.33,2.33,0,0,1-.36,2.52,2.79,2.79,0,0,1-2.1.63H51.13v2.91Zm.95-3.75H53a2,2,0,0,0,1.3-.34,1.22,1.22,0,0,0,.39-1,1.29,1.29,0,0,0-.23-.77,1.06,1.06,0,0,0-.6-.42,4,4,0,0,0-.88-.06H51.13Z" transform="translate(0 -1.3)"/><path d="M56.85,103.54V96.38h2.7a6.54,6.54,0,0,1,1.09.07,2.15,2.15,0,0,1,.88.33,1.75,1.75,0,0,1,.57.69,2.33,2.33,0,0,1-.36,2.52,2.79,2.79,0,0,1-2.1.63H57.8v2.91Zm.95-3.75h1.85a2,2,0,0,0,1.3-.34,1.22,1.22,0,0,0,.39-1,1.29,1.29,0,0,0-.23-.77,1.06,1.06,0,0,0-.6-.42,4,4,0,0,0-.88-.06H57.8Z" transform="translate(0 -1.3)"/><path d="M63.48,103.54V96.38h.95v6.31H68v.84Z" transform="translate(0 -1.3)"/><path d="M69.24,103.54V96.38h.95v7.16Z" transform="translate(0 -1.3)"/><path d="M71.88,103.54V96.38h5.18v.84H72.83v2.19h4v.84h-4v2.44h4.39v.84Z" transform="translate(0 -1.3)"/><path d="M78.53,103.54V96.38H81a6,6,0,0,1,1.27.1,2.42,2.42,0,0,1,1,.51,2.9,2.9,0,0,1,.85,1.22,4.79,4.79,0,0,1,.28,1.7,5,5,0,0,1-.19,1.45,3.51,3.51,0,0,1-.49,1,2.6,2.6,0,0,1-.65.65,2.67,2.67,0,0,1-.86.36,4.86,4.86,0,0,1-1.15.12Zm.95-.84H81a3.7,3.7,0,0,0,1.11-.13,1.58,1.58,0,0,0,.64-.37,2.27,2.27,0,0,0,.53-.91,4.44,4.44,0,0,0,.19-1.38,3.33,3.33,0,0,0-.37-1.73,1.85,1.85,0,0,0-.9-.81A3.7,3.7,0,0,0,81,97.23h-1.5Z" transform="translate(0 -1.3)"/><path d="M5.17,115.54v-7.16h2.7a6.54,6.54,0,0,1,1.09.07,2.15,2.15,0,0,1,.88.33,1.75,1.75,0,0,1,.57.69,2.33,2.33,0,0,1-.36,2.52,2.79,2.79,0,0,1-2.1.63H6.12v2.91Zm.95-3.75H8a2,2,0,0,0,1.3-.34,1.22,1.22,0,0,0,.39-1,1.29,1.29,0,0,0-.23-.77,1.06,1.06,0,0,0-.6-.42,4,4,0,0,0-.88-.06H6.12Z" transform="translate(0 -1.3)"/><path d="M11.8,115.54v-7.16h.95v6.31h3.53v.84Z" transform="translate(0 -1.3)"/><path d="M22.1,108.38H23v4.14a4.89,4.89,0,0,1-.24,1.71,2.1,2.1,0,0,1-.88,1,3.13,3.13,0,0,1-1.67.4,3.44,3.44,0,0,1-1.65-.35,2,2,0,0,1-.91-1,4.78,4.78,0,0,1-.27-1.79v-4.14h.95v4.13a4,4,0,0,0,.17,1.37,1.32,1.32,0,0,0,.6.68,2.07,2.07,0,0,0,1,.24,2,2,0,0,0,1.49-.47,2.73,2.73,0,0,0,.44-1.82Z" transform="translate(0 -1.3)"/><path d="M24.59,115.54v-7.16H26l1.69,5.07q.23.71.34,1.06.12-.39.38-1.15l1.71-5h1.27v7.16h-.91v-6l-2.08,6h-.85l-2.07-6.09v6.09Z" transform="translate(0 -1.3)"/><path d="M32.91,115.54v-7.16H35.6a3.33,3.33,0,0,1,1.32.22,1.69,1.69,0,0,1,.78.67,1.76,1.76,0,0,1,.28.94,1.62,1.62,0,0,1-.25.86,1.78,1.78,0,0,1-.75.65,1.87,1.87,0,0,1,1,.65,1.74,1.74,0,0,1,.35,1.08,2.1,2.1,0,0,1-.21.94,1.82,1.82,0,0,1-.53.67,2.19,2.19,0,0,1-.78.35,4.78,4.78,0,0,1-1.16.12Zm.95-4.15h1.55a3.46,3.46,0,0,0,.9-.08,1,1,0,0,0,.54-.36,1,1,0,0,0,.18-.62,1.15,1.15,0,0,0-.17-.63.87.87,0,0,0-.49-.37,4.07,4.07,0,0,0-1.09-.1H33.86Zm0,3.31h1.78a4.09,4.09,0,0,0,.64,0,1.54,1.54,0,0,0,.55-.2,1,1,0,0,0,.36-.4,1.24,1.24,0,0,0,.14-.6,1.19,1.19,0,0,0-.21-.7,1.08,1.08,0,0,0-.57-.42,3.54,3.54,0,0,0-1-.12H33.86Z" transform="translate(0 -1.3)"/><path d="M39.78,115.54v-7.16h.95v7.16Z" transform="translate(0 -1.3)"/><path d="M42.39,115.54v-7.16h1L47.12,114v-5.62H48v7.16h-1l-3.76-5.62v5.63Z" transform="translate(0 -1.3)"/><path d="M53,112.73v-.84h3v2.66a5.35,5.35,0,0,1-1.44.84,4.28,4.28,0,0,1-1.52.28,4.06,4.06,0,0,1-1.92-.45,3,3,0,0,1-1.3-1.31,4.11,4.11,0,0,1-.44-1.91,4.43,4.43,0,0,1,.44-2,2.91,2.91,0,0,1,1.26-1.35,3.94,3.94,0,0,1,1.89-.44,3.74,3.74,0,0,1,1.4.25,2.32,2.32,0,0,1,1,.7,3.12,3.12,0,0,1,.54,1.17l-.85.23a2.65,2.65,0,0,0-.4-.86,1.64,1.64,0,0,0-.68-.5,2.5,2.5,0,0,0-1-.19,2.9,2.9,0,0,0-1.12.2,2.09,2.09,0,0,0-.76.52,2.47,2.47,0,0,0-.45.71,3.74,3.74,0,0,0-.27,1.44,3.51,3.51,0,0,0,.33,1.6,2.12,2.12,0,0,0,1,1,3,3,0,0,0,1.34.31,3.18,3.18,0,0,0,1.2-.24,3.1,3.1,0,0,0,.89-.51v-1.33Z" transform="translate(0 -1.3)"/><path d="M5.19,127.54v-7.16H8.36a4.23,4.23,0,0,1,1.46.19,1.59,1.59,0,0,1,.8.68,2,2,0,0,1,.3,1.08,1.8,1.8,0,0,1-.49,1.28,2.5,2.5,0,0,1-1.52.66,2.45,2.45,0,0,1,.57.36,4.92,4.92,0,0,1,.79,1l1.25,1.95H10.3L9.36,126q-.41-.64-.68-1a2.12,2.12,0,0,0-.48-.48,1.4,1.4,0,0,0-.43-.19,2.83,2.83,0,0,0-.53,0H6.13v3.18Zm.95-4h2a3.06,3.06,0,0,0,1-.13,1.08,1.08,0,0,0,.56-.43,1.16,1.16,0,0,0,.19-.64,1.07,1.07,0,0,0-.37-.83,1.73,1.73,0,0,0-1.17-.33H6.13Z" transform="translate(0 -1.3)"/><path d="M12.1,124.05a3.89,3.89,0,0,1,1-2.79,3.25,3.25,0,0,1,2.47-1,3.42,3.42,0,0,1,1.79.47A3.1,3.1,0,0,1,18.53,122,4.3,4.3,0,0,1,19,124a4.22,4.22,0,0,1-.44,1.95,3,3,0,0,1-1.25,1.3,3.56,3.56,0,0,1-1.74.44,3.38,3.38,0,0,1-1.81-.49,3.15,3.15,0,0,1-1.21-1.33A4,4,0,0,1,12.1,124.05Zm1,0a2.86,2.86,0,0,0,.7,2,2.43,2.43,0,0,0,3.51,0A3,3,0,0,0,18,124a3.66,3.66,0,0,0-.3-1.53,2.27,2.27,0,0,0-.86-1,2.35,2.35,0,0,0-1.28-.36,2.42,2.42,0,0,0-1.73.69A3.08,3.08,0,0,0,13.08,124.07Z" transform="translate(0 -1.3)"/><path d="M19.88,124.05a3.89,3.89,0,0,1,1-2.79,3.25,3.25,0,0,1,2.47-1,3.42,3.42,0,0,1,1.79.47A3.1,3.1,0,0,1,26.31,122a4.3,4.3,0,0,1,.42,1.92,4.22,4.22,0,0,1-.44,1.95,3,3,0,0,1-1.25,1.3,3.56,3.56,0,0,1-1.74.44,3.38,3.38,0,0,1-1.81-.49,3.15,3.15,0,0,1-1.21-1.33A4,4,0,0,1,19.88,124.05Zm1,0a2.86,2.86,0,0,0,.7,2,2.43,2.43,0,0,0,3.51,0,3,3,0,0,0,.69-2.13,3.66,3.66,0,0,0-.3-1.53,2.27,2.27,0,0,0-.86-1,2.35,2.35,0,0,0-1.28-.36,2.42,2.42,0,0,0-1.73.69A3.08,3.08,0,0,0,20.86,124.07Z" transform="translate(0 -1.3)"/><path d="M28,127.54v-7.16h4.83v.84H28.95v2.22H32.3v.84H28.95v3.25Z" transform="translate(0 -1.3)"/><path d="M36.8,127.54v-7.16h2.69a3.33,3.33,0,0,1,1.32.22,1.69,1.69,0,0,1,.78.67,1.76,1.76,0,0,1,.28.94,1.62,1.62,0,0,1-.25.86,1.78,1.78,0,0,1-.75.65,1.87,1.87,0,0,1,1,.65,1.74,1.74,0,0,1,.35,1.08,2.1,2.1,0,0,1-.21.94,1.82,1.82,0,0,1-.53.67,2.19,2.19,0,0,1-.78.35,4.78,4.78,0,0,1-1.16.12Zm.95-4.15h1.55a3.46,3.46,0,0,0,.9-.08,1,1,0,0,0,.54-.36,1,1,0,0,0,.18-.62,1.15,1.15,0,0,0-.17-.63.87.87,0,0,0-.49-.37,4.07,4.07,0,0,0-1.09-.1H37.74Zm0,3.31h1.78a4.09,4.09,0,0,0,.64,0,1.54,1.54,0,0,0,.55-.2,1,1,0,0,0,.36-.4,1.24,1.24,0,0,0,.14-.6,1.19,1.19,0,0,0-.21-.7,1.08,1.08,0,0,0-.57-.42,3.54,3.54,0,0,0-1-.12H37.74Z" transform="translate(0 -1.3)"/><path d="M43.22,124.05a3.89,3.89,0,0,1,1-2.79,3.25,3.25,0,0,1,2.47-1,3.42,3.42,0,0,1,1.79.47A3.1,3.1,0,0,1,49.65,122a4.3,4.3,0,0,1,.42,1.92,4.22,4.22,0,0,1-.44,1.95,3,3,0,0,1-1.25,1.3,3.56,3.56,0,0,1-1.74.44,3.38,3.38,0,0,1-1.81-.49,3.15,3.15,0,0,1-1.21-1.33A4,4,0,0,1,43.22,124.05Zm1,0a2.86,2.86,0,0,0,.7,2,2.43,2.43,0,0,0,3.51,0,3,3,0,0,0,.69-2.13,3.66,3.66,0,0,0-.3-1.53,2.27,2.27,0,0,0-.86-1,2.35,2.35,0,0,0-1.28-.36,2.42,2.42,0,0,0-1.73.69A3.08,3.08,0,0,0,44.19,124.07Z" transform="translate(0 -1.3)"/><path d="M51,124.05a3.89,3.89,0,0,1,1-2.79,3.25,3.25,0,0,1,2.47-1,3.42,3.42,0,0,1,1.79.47A3.1,3.1,0,0,1,57.42,122a4.3,4.3,0,0,1,.42,1.92,4.22,4.22,0,0,1-.44,1.95,3,3,0,0,1-1.25,1.3,3.56,3.56,0,0,1-1.74.44,3.38,3.38,0,0,1-1.81-.49,3.15,3.15,0,0,1-1.21-1.33A4,4,0,0,1,51,124.05Zm1,0a2.86,2.86,0,0,0,.7,2,2.43,2.43,0,0,0,3.51,0,3,3,0,0,0,.69-2.13,3.66,3.66,0,0,0-.3-1.53,2.27,2.27,0,0,0-.86-1,2.35,2.35,0,0,0-1.28-.36,2.42,2.42,0,0,0-1.73.69A3.08,3.08,0,0,0,52,124.07Z" transform="translate(0 -1.3)"/><path d="M60.88,127.54v-6.31H58.53v-.84H64.2v.84H61.83v6.31Z" transform="translate(0 -1.3)"/><path d="M4.88,136.05a3.89,3.89,0,0,1,1-2.79,3.25,3.25,0,0,1,2.47-1,3.42,3.42,0,0,1,1.79.47A3.1,3.1,0,0,1,11.31,134a4.3,4.3,0,0,1,.42,1.92,4.22,4.22,0,0,1-.44,1.95,3,3,0,0,1-1.25,1.3,3.56,3.56,0,0,1-1.74.44,3.38,3.38,0,0,1-1.81-.49,3.15,3.15,0,0,1-1.21-1.33A4,4,0,0,1,4.88,136.05Zm1,0a2.86,2.86,0,0,0,.7,2,2.29,2.29,0,0,0,1.75.74,2.29,2.29,0,0,0,1.76-.75,3,3,0,0,0,.69-2.13,3.66,3.66,0,0,0-.3-1.53,2.27,2.27,0,0,0-.86-1,2.35,2.35,0,0,0-1.28-.36,2.42,2.42,0,0,0-1.73.69A3.08,3.08,0,0,0,5.86,136.07Z" transform="translate(0 -1.3)"/><path d="M13,139.54v-7.16h3.17a4.23,4.23,0,0,1,1.46.19,1.59,1.59,0,0,1,.8.68,2,2,0,0,1,.3,1.08,1.8,1.8,0,0,1-.49,1.28,2.5,2.5,0,0,1-1.52.66,2.45,2.45,0,0,1,.57.36,4.92,4.92,0,0,1,.79,1l1.25,1.95H18.08L17.13,138q-.41-.64-.68-1a2.12,2.12,0,0,0-.48-.48,1.4,1.4,0,0,0-.43-.19,2.83,2.83,0,0,0-.53,0h-1.1v3.18Zm.95-4h2a3.06,3.06,0,0,0,1-.13,1.08,1.08,0,0,0,.56-.43,1.16,1.16,0,0,0,.19-.64,1.07,1.07,0,0,0-.37-.83,1.73,1.73,0,0,0-1.17-.33H13.91Z" transform="translate(0 -1.3)"/><path d="M23,139.54v-7.16h4.83v.84H23.95v2.22H27.3v.84H23.95v3.25Z" transform="translate(0 -1.3)"/><path d="M29,139.54v-7.16H30v6.31h3.53v.84Z" transform="translate(0 -1.3)"/><path d="M33.83,139.54l2.75-7.16h1l2.93,7.16H39.45l-.83-2.17h-3l-.79,2.17Zm2.07-2.94h2.43l-.75-2q-.34-.9-.51-1.48a9.09,9.09,0,0,1-.39,1.37Z" transform="translate(0 -1.3)"/><path d="M41,137.24l.89-.08a2,2,0,0,0,.3.88,1.61,1.61,0,0,0,.72.56,2.73,2.73,0,0,0,1.1.21,2.63,2.63,0,0,0,1-.16,1.33,1.33,0,0,0,.62-.44,1,1,0,0,0,.2-.61.93.93,0,0,0-.2-.59,1.44,1.44,0,0,0-.64-.42,12.65,12.65,0,0,0-1.27-.35,6.5,6.5,0,0,1-1.38-.45,1.93,1.93,0,0,1-.76-.67,1.63,1.63,0,0,1-.25-.89,1.82,1.82,0,0,1,.31-1,1.91,1.91,0,0,1,.9-.72,3.41,3.41,0,0,1,1.31-.24,3.6,3.6,0,0,1,1.4.26,2,2,0,0,1,.93.75,2.17,2.17,0,0,1,.35,1.13l-.91.07a1.47,1.47,0,0,0-.5-1,1.93,1.93,0,0,0-1.25-.35,2,2,0,0,0-1.25.31.94.94,0,0,0-.39.76.81.81,0,0,0,.28.63,3.78,3.78,0,0,0,1.43.51,9.43,9.43,0,0,1,1.58.46,2.17,2.17,0,0,1,.92.73,1.78,1.78,0,0,1,.3,1,2,2,0,0,1-.33,1.08,2.15,2.15,0,0,1-.94.79,3.28,3.28,0,0,1-1.38.28,4.11,4.11,0,0,1-1.63-.28,2.28,2.28,0,0,1-1-.85A2.42,2.42,0,0,1,41,137.24Z" transform="translate(0 -1.3)"/><path d="M48,139.54v-7.16h.95v2.94h3.72v-2.94h.95v7.16h-.95v-3.37H48.94v3.37Z" transform="translate(0 -1.3)"/><path d="M55.34,139.54v-7.16h.95v7.16Z" transform="translate(0 -1.3)"/><path d="M57.95,139.54v-7.16h1L62.68,138v-5.62h.91v7.16h-1l-3.76-5.62v5.63Z" transform="translate(0 -1.3)"/><path d="M68.53,136.73v-.84h3v2.66a5.35,5.35,0,0,1-1.44.84,4.28,4.28,0,0,1-1.52.28,4.06,4.06,0,0,1-1.92-.45,3,3,0,0,1-1.3-1.31,4.11,4.11,0,0,1-.44-1.91,4.43,4.43,0,0,1,.44-2,2.91,2.91,0,0,1,1.26-1.35,3.94,3.94,0,0,1,1.89-.44,3.74,3.74,0,0,1,1.4.25,2.32,2.32,0,0,1,1,.7,3.12,3.12,0,0,1,.54,1.17l-.85.23a2.65,2.65,0,0,0-.4-.86,1.64,1.64,0,0,0-.68-.5,2.5,2.5,0,0,0-1-.19,2.9,2.9,0,0,0-1.12.2,2.09,2.09,0,0,0-.76.52,2.47,2.47,0,0,0-.45.71,3.74,3.74,0,0,0-.27,1.44,3.51,3.51,0,0,0,.33,1.6,2.12,2.12,0,0,0,1,1,3,3,0,0,0,1.34.31,3.18,3.18,0,0,0,1.2-.24,3.1,3.1,0,0,0,.89-.51v-1.33Z" transform="translate(0 -1.3)"/><path d="M145.64,157.68v-7.16h1.43l1.69,5.07q.23.71.34,1.06.12-.39.38-1.15l1.71-5h1.27v7.16h-.91v-6l-2.08,6h-.85l-2.07-6.09v6.09Z" transform="translate(0 -1.3)"/><path d="M153.21,157.68l2.75-7.16h1l2.93,7.16h-1.08l-.83-2.17h-3l-.79,2.17Zm2.07-2.94h2.43l-.75-2q-.34-.9-.51-1.48a9.09,9.09,0,0,1-.39,1.37Z" transform="translate(0 -1.3)"/><path d="M160.83,157.68v-7.16h.95v7.16Z" transform="translate(0 -1.3)"/><path d="M163.44,157.68v-7.16h1l3.76,5.62v-5.62h.91v7.16h-1l-3.76-5.62v5.63Z" transform="translate(0 -1.3)"/><path d="M172.49,157.68v-6.31h-2.36v-.84h5.67v.84h-2.37v6.31Z" transform="translate(0 -1.3)"/><path d="M175.25,157.68l2.75-7.16h1l2.93,7.16h-1.08l-.83-2.17h-3l-.79,2.17Zm2.07-2.94h2.43l-.75-2q-.34-.9-.51-1.48a9.09,9.09,0,0,1-.39,1.37Z" transform="translate(0 -1.3)"/><path d="M182.87,157.68v-7.16h.95v7.16Z" transform="translate(0 -1.3)"/><path d="M185.48,157.68v-7.16h1l3.76,5.62v-5.62h.91v7.16h-1l-3.76-5.62v5.63Z" transform="translate(0 -1.3)"/><path d="M198.44,157.68h-.88v-5.6a4.55,4.55,0,0,1-.83.61,5.9,5.9,0,0,1-.92.45v-.85a5.32,5.32,0,0,0,1.29-.84,3.3,3.3,0,0,0,.78-1h.57Z" transform="translate(0 -1.3)"/><path d="M205.31,156.83v.84h-4.73a1.54,1.54,0,0,1,.1-.61,3.22,3.22,0,0,1,.58-1,9,9,0,0,1,1.15-1.08,9.75,9.75,0,0,0,1.58-1.52,1.82,1.82,0,0,0,.41-1.06,1.18,1.18,0,0,0-.37-.88,1.35,1.35,0,0,0-1-.36,1.37,1.37,0,0,0-1,.38,1.44,1.44,0,0,0-.39,1.05l-.9-.09a2.22,2.22,0,0,1,.7-1.54,2.38,2.38,0,0,1,1.63-.53,2.27,2.27,0,0,1,1.63.57,1.88,1.88,0,0,1,.6,1.42,2.15,2.15,0,0,1-.18.84,3.28,3.28,0,0,1-.58.87,14.23,14.23,0,0,1-1.36,1.26q-.79.66-1,.9a2.89,2.89,0,0,0-.37.48Z" transform="translate(0 -1.3)"/><path d="M206.26,151.47v-1h.94v.81a2.16,2.16,0,0,1-.15.94,1.33,1.33,0,0,1-.65.6l-.21-.35a.77.77,0,0,0,.39-.34,1.43,1.43,0,0,0,.14-.64Zm1.51,0v-1h.94v.81a2.16,2.16,0,0,1-.15.94,1.33,1.33,0,0,1-.65.6l-.21-.35a.77.77,0,0,0,.39-.34,1.43,1.43,0,0,0,.14-.64Z" transform="translate(0 -1.3)"/><path d="M214.28,159.78a8.76,8.76,0,0,1-1.23-2.15,6.74,6.74,0,0,1-.13-4.78,9.34,9.34,0,0,1,1.36-2.46h.63q-.59,1-.78,1.45a8,8,0,0,0-.47,1.41,8.19,8.19,0,0,0-.21,1.84,8.81,8.81,0,0,0,1.46,4.69Z" transform="translate(0 -1.3)"/><path d="M215.7,155.79l.88-.12a1.93,1.93,0,0,0,.52,1.08,1.27,1.27,0,0,0,.89.33,1.42,1.42,0,0,0,1-.43,1.45,1.45,0,0,0,.43-1.06,1.35,1.35,0,0,0-.4-1,1.37,1.37,0,0,0-1-.39,2.53,2.53,0,0,0-.62.1l.1-.77h.14a1.81,1.81,0,0,0,1-.29,1,1,0,0,0,.45-.9,1.07,1.07,0,0,0-.33-.8,1.16,1.16,0,0,0-.84-.32,1.2,1.2,0,0,0-.85.32,1.62,1.62,0,0,0-.44,1l-.88-.16a2.26,2.26,0,0,1,.73-1.37,2.12,2.12,0,0,1,1.42-.49,2.34,2.34,0,0,1,1.08.25,1.81,1.81,0,0,1,.75.69,1.76,1.76,0,0,1,.26.92,1.51,1.51,0,0,1-.25.84,1.7,1.7,0,0,1-.74.61,1.66,1.66,0,0,1,1,.61,1.85,1.85,0,0,1,.35,1.15,2.11,2.11,0,0,1-.68,1.59,2.41,2.41,0,0,1-1.73.65,2.25,2.25,0,0,1-1.56-.56A2.17,2.17,0,0,1,215.7,155.79Z" transform="translate(0 -1.3)"/><path d="M221.25,154.15a6.56,6.56,0,0,1,.26-2,2.54,2.54,0,0,1,.78-1.19,2,2,0,0,1,1.3-.42,2.11,2.11,0,0,1,1,.23,1.93,1.93,0,0,1,.72.67,3.6,3.6,0,0,1,.44,1.06,7.07,7.07,0,0,1,.16,1.69,6.56,6.56,0,0,1-.26,2,2.55,2.55,0,0,1-.77,1.2,2,2,0,0,1-1.3.42,2,2,0,0,1-1.63-.74A4.72,4.72,0,0,1,221.25,154.15Zm.9,0a4.5,4.5,0,0,0,.41,2.35,1.18,1.18,0,0,0,2,0,6.88,6.88,0,0,0,0-4.69,1.23,1.23,0,0,0-1-.58,1.13,1.13,0,0,0-1,.51A4.54,4.54,0,0,0,222.16,154.15Z" transform="translate(0 -1.3)"/><path d="M233.22,155.78l.86.11a2.24,2.24,0,0,1-.73,1.4,2.11,2.11,0,0,1-1.43.51,2.23,2.23,0,0,1-1.71-.7,2.83,2.83,0,0,1-.65-2,3.61,3.61,0,0,1,.28-1.47,1.94,1.94,0,0,1,.85-.94,2.52,2.52,0,0,1,1.24-.31,2.15,2.15,0,0,1,1.38.43A2,2,0,0,1,234,154l-.85.13a1.42,1.42,0,0,0-.43-.79,1.12,1.12,0,0,0-.75-.26,1.36,1.36,0,0,0-1.08.48,2.26,2.26,0,0,0-.42,1.51,2.34,2.34,0,0,0,.4,1.52,1.3,1.3,0,0,0,1,.47,1.23,1.23,0,0,0,.86-.32A1.57,1.57,0,0,0,233.22,155.78Z" transform="translate(0 -1.3)"/><path d="M234.84,157.68v-5.19h.79v.73a1.85,1.85,0,0,1,.65-.61,1.82,1.82,0,0,1,.92-.23,1.71,1.71,0,0,1,.95.24,1.28,1.28,0,0,1,.52.67,1.86,1.86,0,0,1,1.6-.91,1.58,1.58,0,0,1,1.19.43,1.83,1.83,0,0,1,.42,1.32v3.56H241v-3.27a2.42,2.42,0,0,0-.08-.76.74.74,0,0,0-.31-.37,1,1,0,0,0-.53-.14,1.23,1.23,0,0,0-.91.36,1.6,1.6,0,0,0-.36,1.16v3h-.88v-3.37a1.48,1.48,0,0,0-.21-.88.81.81,0,0,0-.7-.29,1.27,1.27,0,0,0-.69.2,1.11,1.11,0,0,0-.46.57,3.21,3.21,0,0,0-.14,1.08v2.69Z" transform="translate(0 -1.3)"/><path d="M243.74,159.78h-.63a8.81,8.81,0,0,0,1.46-4.69,8,8,0,0,0-.21-1.82,7.65,7.65,0,0,0-.46-1.41,16.41,16.41,0,0,0-.79-1.46h.63a9.34,9.34,0,0,1,1.36,2.46,6.72,6.72,0,0,1-.13,4.78A8.92,8.92,0,0,1,243.74,159.78Z" transform="translate(0 -1.3)"/><path d="M148.62,169.68h-.88v-5.6a4.55,4.55,0,0,1-.83.61,5.9,5.9,0,0,1-.92.45v-.85a5.32,5.32,0,0,0,1.29-.84,3.3,3.3,0,0,0,.78-1h.57Z" transform="translate(0 -1.3)"/><path d="M152.23,165.8a1.65,1.65,0,0,1-.81-.57,1.49,1.49,0,0,1-.26-.89,1.74,1.74,0,0,1,.56-1.31,2.36,2.36,0,0,1,3,0,1.76,1.76,0,0,1,.57,1.33,1.46,1.46,0,0,1-.26.87,1.65,1.65,0,0,1-.79.57,1.92,1.92,0,0,1,1,.69,1.9,1.9,0,0,1,.34,1.14,2.06,2.06,0,0,1-.65,1.54,2.65,2.65,0,0,1-3.42,0,2.09,2.09,0,0,1-.65-1.56,1.89,1.89,0,0,1,.35-1.17A1.77,1.77,0,0,1,152.23,165.8Zm-.46,1.82a1.6,1.6,0,0,0,.18.73,1.26,1.26,0,0,0,.53.54,1.55,1.55,0,0,0,.76.19,1.42,1.42,0,0,0,1-.41,1.39,1.39,0,0,0,.41-1,1.41,1.41,0,0,0-.42-1,1.45,1.45,0,0,0-1.06-.42,1.4,1.4,0,0,0-1.44,1.44Zm.28-3.31a1.12,1.12,0,0,0,.33.83,1.16,1.16,0,0,0,.85.32,1.14,1.14,0,0,0,.83-.32,1.06,1.06,0,0,0,.32-.78,1.1,1.1,0,0,0-.33-.81,1.23,1.23,0,0,0-1.67,0A1,1,0,0,0,152.05,164.31Z" transform="translate(0 -1.3)"/><path d="M156.45,163.47v-1h.94v.81a2.16,2.16,0,0,1-.15.94,1.33,1.33,0,0,1-.65.6l-.21-.35a.77.77,0,0,0,.39-.34,1.43,1.43,0,0,0,.14-.64Zm1.51,0v-1h.94v.81a2.16,2.16,0,0,1-.15.94,1.33,1.33,0,0,1-.65.6l-.21-.35a.77.77,0,0,0,.39-.34,1.43,1.43,0,0,0,.14-.64Z" transform="translate(0 -1.3)"/><path d="M164.47,171.78a8.76,8.76,0,0,1-1.23-2.15,6.74,6.74,0,0,1-.13-4.78,9.34,9.34,0,0,1,1.36-2.46h.63q-.59,1-.78,1.45a8,8,0,0,0-.47,1.41,8.19,8.19,0,0,0-.21,1.84,8.81,8.81,0,0,0,1.46,4.69Z" transform="translate(0 -1.3)"/><path d="M168.69,169.68V168h-3.11v-.81l3.27-4.64h.72v4.64h1V168h-1v1.71Zm0-2.52v-3.23l-2.24,3.23Z" transform="translate(0 -1.3)"/><path d="M171.44,167.8l.92-.08a1.65,1.65,0,0,0,.48,1,1.29,1.29,0,0,0,.9.34,1.4,1.4,0,0,0,1.07-.48,1.8,1.8,0,0,0,.44-1.27,1.63,1.63,0,0,0-.42-1.19,1.48,1.48,0,0,0-1.11-.43,1.53,1.53,0,0,0-.77.19,1.49,1.49,0,0,0-.54.5l-.83-.11.69-3.68h3.56v.84H173l-.39,1.92a2.33,2.33,0,0,1,1.35-.45,2.14,2.14,0,0,1,1.58.65,2.27,2.27,0,0,1,.64,1.67,2.6,2.6,0,0,1-.57,1.68,2.27,2.27,0,0,1-1.88.87,2.31,2.31,0,0,1-1.59-.55A2.13,2.13,0,0,1,171.44,167.8Z" transform="translate(0 -1.3)"/><path d="M183.41,167.78l.86.11a2.24,2.24,0,0,1-.73,1.4,2.11,2.11,0,0,1-1.43.51,2.23,2.23,0,0,1-1.71-.7,2.83,2.83,0,0,1-.65-2,3.61,3.61,0,0,1,.28-1.47,1.94,1.94,0,0,1,.85-.94,2.52,2.52,0,0,1,1.24-.31,2.15,2.15,0,0,1,1.38.43,2,2,0,0,1,.69,1.21l-.85.13a1.42,1.42,0,0,0-.43-.79,1.12,1.12,0,0,0-.75-.26,1.36,1.36,0,0,0-1.08.48,2.26,2.26,0,0,0-.42,1.51,2.34,2.34,0,0,0,.4,1.52,1.3,1.3,0,0,0,1,.47,1.23,1.23,0,0,0,.86-.32A1.57,1.57,0,0,0,183.41,167.78Z" transform="translate(0 -1.3)"/><path d="M185,169.68v-5.19h.79v.73a1.85,1.85,0,0,1,.65-.61,1.82,1.82,0,0,1,.92-.23,1.71,1.71,0,0,1,.95.24,1.28,1.28,0,0,1,.52.67,1.86,1.86,0,0,1,1.6-.91,1.58,1.58,0,0,1,1.19.43,1.83,1.83,0,0,1,.42,1.32v3.56h-.87v-3.27a2.42,2.42,0,0,0-.08-.76.74.74,0,0,0-.31-.37,1,1,0,0,0-.53-.14,1.23,1.23,0,0,0-.91.36,1.6,1.6,0,0,0-.36,1.16v3h-.88v-3.37a1.48,1.48,0,0,0-.21-.88.81.81,0,0,0-.7-.29,1.27,1.27,0,0,0-.69.2,1.11,1.11,0,0,0-.46.57,3.21,3.21,0,0,0-.14,1.08v2.69Z" transform="translate(0 -1.3)"/><path d="M193.93,171.78h-.63a8.81,8.81,0,0,0,1.46-4.69,8,8,0,0,0-.21-1.82,7.65,7.65,0,0,0-.46-1.41,16.41,16.41,0,0,0-.79-1.46h.63a9.34,9.34,0,0,1,1.36,2.46,6.72,6.72,0,0,1-.13,4.78A8.92,8.92,0,0,1,193.93,171.78Z" transform="translate(0 -1.3)"/><path d="M199.62,169.68v-7.16h4.83v.84h-3.88v2.22h3.36v.84h-3.36v3.25Z" transform="translate(0 -1.3)"/><path d="M205.39,166.19a3.89,3.89,0,0,1,1-2.79,3.25,3.25,0,0,1,2.47-1,3.42,3.42,0,0,1,1.79.47,3.1,3.1,0,0,1,1.21,1.32,4.3,4.3,0,0,1,.42,1.92,4.22,4.22,0,0,1-.44,1.95,3,3,0,0,1-1.25,1.3,3.56,3.56,0,0,1-1.74.44,3.38,3.38,0,0,1-1.81-.49A3.15,3.15,0,0,1,205.8,168,4,4,0,0,1,205.39,166.19Zm1,0a2.86,2.86,0,0,0,.7,2,2.43,2.43,0,0,0,3.51,0,3,3,0,0,0,.69-2.13,3.66,3.66,0,0,0-.3-1.53,2.27,2.27,0,0,0-.86-1,2.35,2.35,0,0,0-1.28-.36,2.42,2.42,0,0,0-1.73.69A3.08,3.08,0,0,0,206.37,166.21Z" transform="translate(0 -1.3)"/><path d="M213.47,169.68v-7.16h3.17a4.23,4.23,0,0,1,1.46.19,1.59,1.59,0,0,1,.8.68,2,2,0,0,1,.3,1.08,1.8,1.8,0,0,1-.49,1.28,2.5,2.5,0,0,1-1.52.66,2.45,2.45,0,0,1,.57.36,4.92,4.92,0,0,1,.79,1l1.25,1.95h-1.19l-.95-1.49q-.41-.64-.68-1a2.12,2.12,0,0,0-.48-.48,1.4,1.4,0,0,0-.43-.19,2.83,2.83,0,0,0-.53,0h-1.1v3.18Zm.95-4h2a3.06,3.06,0,0,0,1-.13,1.08,1.08,0,0,0,.56-.43,1.16,1.16,0,0,0,.19-.64,1.07,1.07,0,0,0-.37-.83,1.73,1.73,0,0,0-1.17-.33h-2.27Z" transform="translate(0 -1.3)"/><path d="M228.57,167.17l.95.24a3.19,3.19,0,0,1-1.07,1.78,3,3,0,0,1-1.89.61,3.4,3.4,0,0,1-1.88-.47,2.93,2.93,0,0,1-1.1-1.36,4.86,4.86,0,0,1-.38-1.92,4.21,4.21,0,0,1,.43-2,2.92,2.92,0,0,1,1.21-1.26,3.56,3.56,0,0,1,1.74-.43,2.93,2.93,0,0,1,1.81.55,2.84,2.84,0,0,1,1,1.54l-.93.22a2.21,2.21,0,0,0-.72-1.14,1.92,1.92,0,0,0-1.19-.36,2.31,2.31,0,0,0-1.38.4,2.08,2.08,0,0,0-.78,1.06,4.28,4.28,0,0,0-.22,1.37,4.38,4.38,0,0,0,.27,1.59,2,2,0,0,0,.83,1,2.32,2.32,0,0,0,1.22.34,2,2,0,0,0,1.35-.46A2.35,2.35,0,0,0,228.57,167.17Z" transform="translate(0 -1.3)"/><path d="M229.89,169.68l2.75-7.16h1l2.93,7.16h-1.08l-.83-2.17h-3l-.79,2.17Zm2.07-2.94h2.43l-.75-2q-.34-.9-.51-1.48a9.09,9.09,0,0,1-.39,1.37Z" transform="translate(0 -1.3)"/><path d="M237.34,169.68v-7.16h1l3.76,5.62v-5.62H243v7.16h-1l-3.76-5.62v5.63Z" transform="translate(0 -1.3)"/><path d="M243.79,169.68l2.75-7.16h1l2.93,7.16h-1.08l-.83-2.17h-3l-.79,2.17Zm2.07-2.94h2.43l-.75-2q-.34-.9-.51-1.48a9.09,9.09,0,0,1-.39,1.37Z" transform="translate(0 -1.3)"/><path d="M251.24,169.68v-7.16h2.47a6,6,0,0,1,1.27.1,2.42,2.42,0,0,1,1,.51,2.9,2.9,0,0,1,.85,1.22,4.79,4.79,0,0,1,.28,1.7,5,5,0,0,1-.19,1.45,3.51,3.51,0,0,1-.49,1,2.6,2.6,0,0,1-.65.65,2.67,2.67,0,0,1-.86.36,4.86,4.86,0,0,1-1.15.12Zm.95-.84h1.53a3.7,3.7,0,0,0,1.11-.13,1.58,1.58,0,0,0,.64-.37,2.27,2.27,0,0,0,.53-.91,4.44,4.44,0,0,0,.19-1.38,3.33,3.33,0,0,0-.37-1.73,1.85,1.85,0,0,0-.9-.81,3.7,3.7,0,0,0-1.23-.15h-1.5Z" transform="translate(0 -1.3)"/><path d="M257.68,169.68l2.75-7.16h1l2.93,7.16H263.3l-.83-2.17h-3l-.79,2.17Zm2.07-2.94h2.43l-.75-2q-.34-.9-.51-1.48a9.09,9.09,0,0,1-.39,1.37Z" transform="translate(0 -1.3)"/><path d="M145.64,181.68v-7.16h1.43l1.69,5.07q.23.71.34,1.06.12-.39.38-1.15l1.71-5h1.27v7.16h-.91v-6l-2.08,6h-.85l-2.07-6.09v6.09Z" transform="translate(0 -1.3)"/><path d="M154.16,181.68v-7.16h.95v7.16Z" transform="translate(0 -1.3)"/><path d="M156.77,181.68v-7.16h1l3.76,5.62v-5.62h.91v7.16h-1l-3.76-5.62v5.63Z" transform="translate(0 -1.3)"/><path d="M164.16,181.68v-7.16h.95v7.16Z" transform="translate(0 -1.3)"/><path d="M166.75,181.68v-7.16h1.43l1.69,5.07q.23.71.34,1.06.12-.39.38-1.15l1.71-5h1.27v7.16h-.91v-6l-2.08,6h-.85l-2.07-6.09v6.09Z" transform="translate(0 -1.3)"/><path d="M179.81,174.52h.95v4.14a4.89,4.89,0,0,1-.24,1.71,2.1,2.1,0,0,1-.88,1,3.13,3.13,0,0,1-1.67.4,3.44,3.44,0,0,1-1.65-.35,2,2,0,0,1-.91-1,4.78,4.78,0,0,1-.27-1.79v-4.14h.95v4.13a4,4,0,0,0,.17,1.37,1.32,1.32,0,0,0,.6.68,2.07,2.07,0,0,0,1,.24,2,2,0,0,0,1.49-.47,2.73,2.73,0,0,0,.44-1.82Z" transform="translate(0 -1.3)"/><path d="M182.3,181.68v-7.16h1.43l1.69,5.07q.23.71.34,1.06.12-.39.38-1.15l1.71-5h1.27v7.16h-.91v-6l-2.08,6h-.85l-2.07-6.09v6.09Z" transform="translate(0 -1.3)"/><path d="M198.55,179.17l.95.24a3.19,3.19,0,0,1-1.07,1.78,3,3,0,0,1-1.89.61,3.4,3.4,0,0,1-1.88-.47,2.93,2.93,0,0,1-1.1-1.36,4.86,4.86,0,0,1-.38-1.92,4.21,4.21,0,0,1,.43-2,2.92,2.92,0,0,1,1.21-1.26,3.56,3.56,0,0,1,1.74-.43,2.93,2.93,0,0,1,1.81.55,2.84,2.84,0,0,1,1,1.54l-.93.22a2.21,2.21,0,0,0-.72-1.14,1.92,1.92,0,0,0-1.19-.36,2.31,2.31,0,0,0-1.38.4,2.08,2.08,0,0,0-.78,1.06,4.28,4.28,0,0,0-.22,1.37,4.38,4.38,0,0,0,.27,1.59,2,2,0,0,0,.83,1,2.32,2.32,0,0,0,1.22.34,2,2,0,0,0,1.35-.46A2.35,2.35,0,0,0,198.55,179.17Z" transform="translate(0 -1.3)"/><path d="M200.62,181.68v-7.16h.95v6.31h3.53v.84Z" transform="translate(0 -1.3)"/><path d="M206.24,181.68v-7.16h5.18v.84h-4.23v2.19h4v.84h-4v2.44h4.39v.84Z" transform="translate(0 -1.3)"/><path d="M212.11,181.68l2.75-7.16h1l2.93,7.16h-1.08l-.83-2.17h-3l-.79,2.17Zm2.07-2.94h2.43l-.75-2q-.34-.9-.51-1.48a9.09,9.09,0,0,1-.39,1.37Z" transform="translate(0 -1.3)"/><path d="M219.58,181.68v-7.16h3.17a4.23,4.23,0,0,1,1.46.19,1.59,1.59,0,0,1,.8.68,2,2,0,0,1,.3,1.08,1.8,1.8,0,0,1-.49,1.28,2.5,2.5,0,0,1-1.52.66,2.45,2.45,0,0,1,.57.36,4.92,4.92,0,0,1,.79,1l1.25,1.95h-1.19l-.95-1.49q-.41-.64-.68-1a2.12,2.12,0,0,0-.48-.48,1.4,1.4,0,0,0-.43-.19,2.83,2.83,0,0,0-.53,0h-1.1v3.18Zm.95-4h2a3.06,3.06,0,0,0,1-.13,1.08,1.08,0,0,0,.56-.43,1.16,1.16,0,0,0,.19-.64,1.07,1.07,0,0,0-.37-.83,1.73,1.73,0,0,0-1.17-.33h-2.27Z" transform="translate(0 -1.3)"/><path d="M226,181.68l2.75-7.16h1l2.93,7.16h-1.08l-.83-2.17h-3l-.79,2.17Zm2.07-2.94h2.43l-.75-2q-.34-.9-.51-1.48a9.09,9.09,0,0,1-.39,1.37Z" transform="translate(0 -1.3)"/><path d="M233.44,181.68v-7.16h1l3.76,5.62v-5.62h.91v7.16h-1l-3.76-5.62v5.63Z" transform="translate(0 -1.3)"/><path d="M245.78,179.17l.95.24a3.19,3.19,0,0,1-1.07,1.78,3,3,0,0,1-1.89.61,3.4,3.4,0,0,1-1.88-.47,2.93,2.93,0,0,1-1.1-1.36,4.86,4.86,0,0,1-.38-1.92,4.21,4.21,0,0,1,.43-2,2.92,2.92,0,0,1,1.21-1.26,3.56,3.56,0,0,1,1.74-.43,2.93,2.93,0,0,1,1.81.55,2.84,2.84,0,0,1,1,1.54l-.93.22a2.21,2.21,0,0,0-.72-1.14,1.92,1.92,0,0,0-1.19-.36,2.31,2.31,0,0,0-1.38.4,2.08,2.08,0,0,0-.78,1.06,4.28,4.28,0,0,0-.22,1.37,4.38,4.38,0,0,0,.27,1.59,2,2,0,0,0,.83,1,2.32,2.32,0,0,0,1.22.34,2,2,0,0,0,1.35-.46A2.35,2.35,0,0,0,245.78,179.17Z" transform="translate(0 -1.3)"/><path d="M247.92,181.68v-7.16h5.18v.84h-4.23v2.19h4v.84h-4v2.44h4.39v.84Z" transform="translate(0 -1.3)"/><path d="M144.88,193.68l2.75-7.16h1l2.93,7.16H150.5l-.83-2.17h-3l-.79,2.17Zm2.07-2.94h2.43l-.75-2q-.34-.9-.51-1.48a9.09,9.09,0,0,1-.39,1.37Z" transform="translate(0 -1.3)"/><path d="M152.3,193.68v-7.16H155a3.33,3.33,0,0,1,1.32.22,1.69,1.69,0,0,1,.78.67,1.76,1.76,0,0,1,.28.94,1.62,1.62,0,0,1-.25.86,1.78,1.78,0,0,1-.75.65,1.87,1.87,0,0,1,1,.65,1.74,1.74,0,0,1,.35,1.08,2.1,2.1,0,0,1-.21.94,1.82,1.82,0,0,1-.53.67,2.19,2.19,0,0,1-.78.35,4.78,4.78,0,0,1-1.16.12Zm.95-4.15h1.55a3.46,3.46,0,0,0,.9-.08,1,1,0,0,0,.54-.36,1,1,0,0,0,.18-.62,1.15,1.15,0,0,0-.17-.63.87.87,0,0,0-.49-.37,4.07,4.07,0,0,0-1.09-.1h-1.43Zm0,3.31H155a4.09,4.09,0,0,0,.64,0,1.54,1.54,0,0,0,.55-.2,1,1,0,0,0,.36-.4,1.24,1.24,0,0,0,.14-.6,1.19,1.19,0,0,0-.21-.7,1.08,1.08,0,0,0-.57-.42,3.54,3.54,0,0,0-1-.12h-1.66Z" transform="translate(0 -1.3)"/><path d="M158.72,190.19a3.89,3.89,0,0,1,1-2.79,3.25,3.25,0,0,1,2.47-1,3.42,3.42,0,0,1,1.79.47,3.1,3.1,0,0,1,1.21,1.32,4.3,4.3,0,0,1,.42,1.92,4.22,4.22,0,0,1-.44,1.95,3,3,0,0,1-1.25,1.3,3.56,3.56,0,0,1-1.74.44,3.38,3.38,0,0,1-1.81-.49,3.15,3.15,0,0,1-1.21-1.33A4,4,0,0,1,158.72,190.19Zm1,0a2.86,2.86,0,0,0,.7,2,2.43,2.43,0,0,0,3.51,0,3,3,0,0,0,.69-2.13,3.66,3.66,0,0,0-.3-1.53,2.27,2.27,0,0,0-.86-1,2.35,2.35,0,0,0-1.28-.36,2.42,2.42,0,0,0-1.73.69A3.08,3.08,0,0,0,159.7,190.21Z" transform="translate(0 -1.3)"/><path d="M168.83,193.68l-2.77-7.16h1l1.86,5.2q.22.62.38,1.17.17-.59.39-1.17l1.93-5.2h1l-2.8,7.16Z" transform="translate(0 -1.3)"/><path d="M173.48,193.68v-7.16h5.18v.84h-4.23v2.19h4v.84h-4v2.44h4.39v.84Z" transform="translate(0 -1.3)"/><path d="M182.94,193.68v-7.16h.95v2.94h3.72v-2.94h.95v7.16h-.95V190.3h-3.72v3.37Z" transform="translate(0 -1.3)"/><path d="M190.29,193.68v-7.16h.95v7.16Z" transform="translate(0 -1.3)"/><path d="M196.26,190.87V190h3v2.66a5.35,5.35,0,0,1-1.44.84,4.28,4.28,0,0,1-1.52.28,4.06,4.06,0,0,1-1.92-.45,3,3,0,0,1-1.3-1.31,4.11,4.11,0,0,1-.44-1.91,4.43,4.43,0,0,1,.44-2,2.91,2.91,0,0,1,1.26-1.35,3.94,3.94,0,0,1,1.89-.44,3.74,3.74,0,0,1,1.4.25,2.32,2.32,0,0,1,1,.7,3.12,3.12,0,0,1,.54,1.17l-.85.23a2.65,2.65,0,0,0-.4-.86,1.64,1.64,0,0,0-.68-.5,2.5,2.5,0,0,0-1-.19,2.9,2.9,0,0,0-1.12.2,2.09,2.09,0,0,0-.76.52,2.47,2.47,0,0,0-.45.71,3.74,3.74,0,0,0-.27,1.44,3.51,3.51,0,0,0,.33,1.6,2.12,2.12,0,0,0,1,1,3,3,0,0,0,1.34.31,3.18,3.18,0,0,0,1.2-.24,3.1,3.1,0,0,0,.89-.51v-1.33Z" transform="translate(0 -1.3)"/><path d="M200.71,193.68v-7.16h.95v2.94h3.72v-2.94h.95v7.16h-.95V190.3h-3.72v3.37Z" transform="translate(0 -1.3)"/><path d="M207.93,193.68v-7.16h5.18v.84h-4.23v2.19h4v.84h-4v2.44h4.39v.84Z" transform="translate(0 -1.3)"/><path d="M214.25,191.38l.89-.08a2,2,0,0,0,.3.88,1.61,1.61,0,0,0,.72.56,2.73,2.73,0,0,0,1.1.21,2.63,2.63,0,0,0,1-.16,1.33,1.33,0,0,0,.62-.44,1,1,0,0,0,.2-.61.93.93,0,0,0-.2-.59,1.44,1.44,0,0,0-.64-.42,12.65,12.65,0,0,0-1.27-.35,6.5,6.5,0,0,1-1.38-.45,1.93,1.93,0,0,1-.76-.67,1.63,1.63,0,0,1-.25-.89,1.82,1.82,0,0,1,.31-1,1.91,1.91,0,0,1,.9-.72,3.41,3.41,0,0,1,1.31-.24,3.6,3.6,0,0,1,1.4.26,2,2,0,0,1,.93.75,2.17,2.17,0,0,1,.35,1.13l-.91.07a1.47,1.47,0,0,0-.5-1,1.93,1.93,0,0,0-1.25-.35,2,2,0,0,0-1.25.31.94.94,0,0,0-.39.76.81.81,0,0,0,.28.63,3.78,3.78,0,0,0,1.43.51,9.43,9.43,0,0,1,1.58.46,2.17,2.17,0,0,1,.92.73,1.78,1.78,0,0,1,.3,1,2,2,0,0,1-.33,1.08,2.15,2.15,0,0,1-.94.79,3.28,3.28,0,0,1-1.38.28,4.11,4.11,0,0,1-1.63-.28,2.28,2.28,0,0,1-1-.85A2.42,2.42,0,0,1,214.25,191.38Z" transform="translate(0 -1.3)"/><path d="M223.07,193.68v-6.31h-2.36v-.84h5.67v.84H224v6.31Z" transform="translate(0 -1.3)"/><path d="M228.62,193.68l2.75-7.16h1l2.93,7.16h-1.08l-.83-2.17h-3l-.79,2.17Zm2.07-2.94h2.43l-.75-2q-.34-.9-.51-1.48a9.09,9.09,0,0,1-.39,1.37Z" transform="translate(0 -1.3)"/><path d="M236.06,193.68v-7.16h1l3.76,5.62v-5.62h.91v7.16h-1L237,188.05v5.63Z" transform="translate(0 -1.3)"/><path d="M245.11,193.68v-6.31h-2.36v-.84h5.67v.84h-2.37v6.31Z" transform="translate(0 -1.3)"/><path d="M249.56,193.68v-7.16h.95v7.16Z" transform="translate(0 -1.3)"/><path d="M257.29,191.17l.95.24a3.19,3.19,0,0,1-1.07,1.78,3,3,0,0,1-1.89.61,3.4,3.4,0,0,1-1.88-.47,2.93,2.93,0,0,1-1.1-1.36,4.86,4.86,0,0,1-.38-1.92,4.21,4.21,0,0,1,.43-2,2.92,2.92,0,0,1,1.21-1.26,3.56,3.56,0,0,1,1.74-.43,2.93,2.93,0,0,1,1.81.55,2.84,2.84,0,0,1,1,1.54l-.93.22a2.21,2.21,0,0,0-.72-1.14,1.92,1.92,0,0,0-1.19-.36,2.31,2.31,0,0,0-1.38.4,2.08,2.08,0,0,0-.78,1.06,4.28,4.28,0,0,0-.22,1.37,4.38,4.38,0,0,0,.27,1.59,2,2,0,0,0,.83,1,2.32,2.32,0,0,0,1.22.34,2,2,0,0,0,1.35-.46A2.35,2.35,0,0,0,257.29,191.17Z" transform="translate(0 -1.3)"/><path d="M259.56,193.68v-7.16h.95v7.16Z" transform="translate(0 -1.3)"/><path d="M262.18,193.68v-7.16h2.7a6.54,6.54,0,0,1,1.09.07,2.15,2.15,0,0,1,.88.33,1.75,1.75,0,0,1,.57.69,2.33,2.33,0,0,1-.36,2.52,2.79,2.79,0,0,1-2.1.63h-1.84v2.91Zm.95-3.75H265a2,2,0,0,0,1.3-.34,1.22,1.22,0,0,0,.39-1,1.29,1.29,0,0,0-.23-.77,1.06,1.06,0,0,0-.6-.42,4,4,0,0,0-.88-.06h-1.83Z" transform="translate(0 -1.3)"/><path d="M267.32,193.68l2.75-7.16h1l2.93,7.16h-1.08l-.83-2.17h-3l-.79,2.17Zm2.07-2.94h2.43l-.75-2q-.34-.9-.51-1.48a9.09,9.09,0,0,1-.39,1.37Z" transform="translate(0 -1.3)"/><path d="M275.86,193.68v-6.31H273.5v-.84h5.67v.84H276.8v6.31Z" transform="translate(0 -1.3)"/><path d="M280.16,193.68v-7.16h5.18v.84h-4.23v2.19h4v.84h-4v2.44h4.39v.84Z" transform="translate(0 -1.3)"/><path d="M286.81,193.68v-7.16h2.47a6,6,0,0,1,1.27.1,2.42,2.42,0,0,1,1,.51,2.9,2.9,0,0,1,.85,1.22,4.79,4.79,0,0,1,.28,1.7,5,5,0,0,1-.19,1.45,3.51,3.51,0,0,1-.49,1,2.6,2.6,0,0,1-.65.65,2.67,2.67,0,0,1-.86.36,4.86,4.86,0,0,1-1.15.12Zm.95-.84h1.53a3.7,3.7,0,0,0,1.11-.13,1.58,1.58,0,0,0,.64-.37,2.27,2.27,0,0,0,.53-.91,4.44,4.44,0,0,0,.19-1.38,3.33,3.33,0,0,0-.37-1.73,1.85,1.85,0,0,0-.9-.81,3.7,3.7,0,0,0-1.23-.15h-1.5Z" transform="translate(0 -1.3)"/><path d="M145.35,203.38l.89-.08a2,2,0,0,0,.3.88,1.62,1.62,0,0,0,.72.56,2.74,2.74,0,0,0,1.1.21,2.63,2.63,0,0,0,1-.16,1.33,1.33,0,0,0,.62-.44,1,1,0,0,0,.2-.61.93.93,0,0,0-.2-.59,1.44,1.44,0,0,0-.64-.42,12.42,12.42,0,0,0-1.27-.35,6.55,6.55,0,0,1-1.38-.45,1.93,1.93,0,0,1-.76-.67,1.63,1.63,0,0,1-.25-.89,1.82,1.82,0,0,1,.31-1,1.91,1.91,0,0,1,.9-.72,3.4,3.4,0,0,1,1.31-.24,3.58,3.58,0,0,1,1.4.26,2,2,0,0,1,.93.75,2.17,2.17,0,0,1,.35,1.13l-.91.07a1.47,1.47,0,0,0-.5-1,1.93,1.93,0,0,0-1.25-.35,2,2,0,0,0-1.25.31,1,1,0,0,0-.39.76.81.81,0,0,0,.28.63,3.77,3.77,0,0,0,1.43.51,9.51,9.51,0,0,1,1.58.46,2.17,2.17,0,0,1,.92.73,1.78,1.78,0,0,1,.3,1,2,2,0,0,1-.33,1.08,2.15,2.15,0,0,1-.94.79,3.29,3.29,0,0,1-1.38.28,4.12,4.12,0,0,1-1.63-.28,2.28,2.28,0,0,1-1-.85A2.42,2.42,0,0,1,145.35,203.38Z" transform="translate(0 -1.3)"/><path d="M152.33,205.68v-7.16h1l3.76,5.62v-5.62H158v7.16h-1l-3.76-5.62v5.63Z" transform="translate(0 -1.3)"/><path d="M159.27,202.19a3.89,3.89,0,0,1,1-2.79,3.25,3.25,0,0,1,2.47-1,3.43,3.43,0,0,1,1.79.47,3.1,3.1,0,0,1,1.21,1.32,4.3,4.3,0,0,1,.42,1.92,4.22,4.22,0,0,1-.44,1.95,3,3,0,0,1-1.25,1.3,3.55,3.55,0,0,1-1.74.44,3.39,3.39,0,0,1-1.81-.49,3.14,3.14,0,0,1-1.21-1.33A4,4,0,0,1,159.27,202.19Zm1,0a2.86,2.86,0,0,0,.7,2,2.43,2.43,0,0,0,3.51,0,3,3,0,0,0,.69-2.13,3.66,3.66,0,0,0-.3-1.53,2.27,2.27,0,0,0-.86-1,2.36,2.36,0,0,0-1.28-.36,2.42,2.42,0,0,0-1.73.69A3.08,3.08,0,0,0,160.25,202.21Z" transform="translate(0 -1.3)"/><path d="M168.59,205.68l-1.9-7.16h1l1.09,4.69q.18.74.3,1.46.27-1.15.32-1.32l1.36-4.83h1.14l1,3.62a19.3,19.3,0,0,1,.56,2.53q.14-.68.36-1.56l1.12-4.6h1l-2,7.16H173l-1.51-5.45c-.13-.46-.2-.74-.22-.84-.08.33-.14.61-.21.84l-1.52,5.45Z" transform="translate(0 -1.3)"/><path d="M179.52,205.68v-7.16h.95v6.31H184v.84Z" transform="translate(0 -1.3)"/><path d="M185.14,205.68v-7.16h5.18v.84h-4.23v2.19h4v.84h-4v2.44h4.39v.84Z" transform="translate(0 -1.3)"/><path d="M193.83,205.68l-2.77-7.16h1l1.86,5.2q.22.63.38,1.17.17-.59.39-1.17l1.93-5.2h1l-2.8,7.16Z" transform="translate(0 -1.3)"/><path d="M198.48,205.68v-7.16h5.18v.84h-4.23v2.19h4v.84h-4v2.44h4.39v.84Z" transform="translate(0 -1.3)"/><path d="M205.09,205.68v-7.16H206v6.31h3.53v.84Z" transform="translate(0 -1.3)"/><path d="M210.83,205.68v-1h1v1Z" transform="translate(0 -1.3)"/></svg>