<svg xmlns="http://www.w3.org/2000/svg" viewBox="0 0 215.38 89.59"><title>sidewall_termination_installation</title><g id="Layer_1" data-name="Layer 1"><rect x="92.84" y="31.24" width="1.99" height="35.39" style="fill:#fff;stroke:#000;stroke-linecap:round;stroke-linejoin:round;stroke-width:0.7396619999999999px"/><rect x="66.45" y="31.24" width="1.99" height="35.39" style="fill:#fff;stroke:#000;stroke-linecap:round;stroke-linejoin:round;stroke-width:0.7396619999999999px"/><line x1="71.53" y1="0.33" x2="71.53" y2="89.22" style="fill:none;stroke:#000;stroke-miterlimit:10;stroke-width:0.7396619999999999px"/><polyline points="92.82 0.33 92.82 89.22 68.54 89.22 68.54 0.33" style="fill:none;stroke:#000;stroke-miterlimit:10;stroke-width:0.7396619999999999px"/><line x1="89.83" y1="0.33" x2="89.83" y2="89.22" style="fill:none;stroke:#000;stroke-miterlimit:10;stroke-width:0.7396619999999999px"/><path d="M107.75,50.94v4.45a1.16,1.16,0,0,1-1.16,1.24H99.31V40.09h7.29a1.16,1.16,0,0,1,1.16,1.24v9.61Z" transform="translate(0 -0.78)" style="fill:none;stroke:#000;stroke-linecap:round;stroke-linejoin:round;stroke-width:0.7396619999999999px"/><path d="M114.86,49.09,118,45.95a1.16,1.16,0,0,1,1.7-.06L124.85,51l-3.4,3.39-4.91,4.9-3.4,3.39L108,57.57a1.16,1.16,0,0,1,.06-1.7l3.15-3.14Z" transform="translate(0 -0.78)" style="fill:none;stroke:#000;stroke-linecap:round;stroke-linejoin:round;stroke-width:0.7396619999999999px"/><path d="M32.82,51v4.45s0,.07,0,.11H99V41.22H32.8a1.42,1.42,0,0,1,0,.19V51Z" transform="translate(0 -0.78)" style="fill:#fff;stroke:#000;stroke-linecap:round;stroke-linejoin:round;stroke-width:0.7396619999999999px"/><path d="M108.06,55.76l3.15-3.14L114.86,49l2.37-2.36v0c-3-3.2-8.55-4.31-9.48-4.47V55.28a1.29,1.29,0,0,1-.21.75l.23.12A1.45,1.45,0,0,1,108.06,55.76Z" transform="translate(0 -0.78)" style="fill:#fff;stroke:#000;stroke-linecap:round;stroke-linejoin:round;stroke-width:0.7396619999999999px"/><path d="M64.64,50.94v4.45a1.16,1.16,0,0,1-1.16,1.24H56.19V40.09h7.29a1.16,1.16,0,0,1,1.16,1.24v9.61Z" transform="translate(0 -0.78)" style="fill:#fff;stroke:#000;stroke-linecap:round;stroke-linejoin:round;stroke-width:0.7396619999999999px"/><line x1="110.97" y1="85.27" x2="98.14" y2="85.27" style="fill:none;stroke:#000;stroke-width:0.75px"/><path d="M96.37,86.82c1.24.38,2,.72,3,1.12V84.16a29.81,29.81,0,0,1-3,1.12,22.12,22.12,0,0,1-3.31.77A22.21,22.21,0,0,1,96.37,86.82Z" transform="translate(0 -0.78)"/><line x1="49.64" y1="85.27" x2="62.47" y2="85.27" style="fill:none;stroke:#000;stroke-width:0.75px"/><path d="M64.24,85.28c-1.24-.37-2-.72-3-1.12v3.78a29.78,29.78,0,0,1,3-1.12,22.11,22.11,0,0,1,3.31-.77A22.23,22.23,0,0,1,64.24,85.28Z" transform="translate(0 -0.78)"/><line x1="32.76" y1="70.92" x2="50.76" y2="59.67" style="fill:none;stroke:#000;stroke-width:0.75px"/><path d="M51.86,58.86a32.26,32.26,0,0,1-3.17.66l2,3.21a29.77,29.77,0,0,1,2-2.56,22.18,22.18,0,0,1,2.4-2.41A22.15,22.15,0,0,1,51.86,58.86Z" transform="translate(0 -0.78)"/><line x1="52.01" y1="18.42" x2="61.76" y2="28.92" style="fill:none;stroke:#000;stroke-width:0.75px"/><path d="M63.53,30.47a32.36,32.36,0,0,1-1.25-3l-2.77,2.57a29.69,29.69,0,0,1,2.89,1.47,22.12,22.12,0,0,1,2.82,1.9A22.21,22.21,0,0,1,63.53,30.47Z" transform="translate(0 -0.78)"/><line x1="99.3" y1="37.75" x2="99.3" y2="16.76" style="fill:none;stroke:#000;stroke-width:0.75px"/><line x1="131.56" y1="63.47" x2="122.98" y2="58.65" style="fill:none;stroke:#000;stroke-width:0.75px"/><path d="M121.06,59.24a32,32,0,0,1,2.1,2.46L125,58.4a29.45,29.45,0,0,1-3.2-.51,22.24,22.24,0,0,1-3.27-.95A22.09,22.09,0,0,1,121.06,59.24Z" transform="translate(0 -0.78)"/><line x1="107.51" y1="3.67" x2="98.22" y2="14.13" style="fill:none;stroke:#000;stroke-width:0.5px"/><path d="M97.82,16.14a21.59,21.59,0,0,1,1.9-1l-1.89-1.67a19.8,19.8,0,0,1-.79,2,14.72,14.72,0,0,1-1.08,2A14.83,14.83,0,0,1,97.82,16.14Z" transform="translate(0 -0.78)"/><line x1="95.18" y1="19.5" x2="97.06" y2="19.5" style="fill:none;stroke:#000;stroke-width:0.5px"/><path d="M97.94,19.9c-.62-.19-1-.36-1.52-.56v1.89a14.87,14.87,0,0,1,1.52-.56,11,11,0,0,1,1.66-.39A11.08,11.08,0,0,1,97.94,19.9Z" transform="translate(0 -0.78)"/><path d="M94.29,20.67c.62.19,1,.36,1.52.56V19.34a14.88,14.88,0,0,1-1.52.56,11.06,11.06,0,0,1-1.66.39A11.11,11.11,0,0,1,94.29,20.67Z" transform="translate(0 -0.78)"/><line x1="107.51" y1="3.67" x2="118.01" y2="3.67" style="fill:none;stroke:#000;stroke-width:0.5px"/></g><g id="text"><path d="M1.56,88V83.72h.57V88Z" transform="translate(0 -0.78)" style="fill:#231f20"/><path d="M3.13,88V83.72h.58L6,87.09V83.72h.54V88H5.93L3.67,84.64V88Z" transform="translate(0 -0.78)" style="fill:#231f20"/><path d="M8.56,88V84.23H7.14v-.51h3.4v.51H9.13V88Z" transform="translate(0 -0.78)" style="fill:#231f20"/><path d="M11.14,88V83.72h3.11v.51H11.71v1.32h2.38V86H11.71v1.46h2.64V88Z" transform="translate(0 -0.78)" style="fill:#231f20"/><path d="M15.14,88V83.72H17a2.53,2.53,0,0,1,.87.12,1,1,0,0,1,.48.41,1.22,1.22,0,0,1,.18.65,1.08,1.08,0,0,1-.3.77,1.5,1.5,0,0,1-.91.4,1.47,1.47,0,0,1,.34.21,3,3,0,0,1,.47.57L18.93,88h-.71l-.57-.89q-.25-.39-.41-.59a1.29,1.29,0,0,0-.29-.29.85.85,0,0,0-.26-.11l-.32,0h-.66V88Zm.57-2.4h1.22a1.83,1.83,0,0,0,.61-.08.65.65,0,0,0,.33-.26.7.7,0,0,0,.11-.39.64.64,0,0,0-.22-.5,1,1,0,0,0-.7-.2H15.71Z" transform="translate(0 -0.78)" style="fill:#231f20"/><path d="M19.56,88V83.72h.57V88Z" transform="translate(0 -0.78)" style="fill:#231f20"/><path d="M21,85.93a2.34,2.34,0,0,1,.57-1.67,2,2,0,0,1,1.48-.6,2.06,2.06,0,0,1,1.07.28,1.86,1.86,0,0,1,.73.79,2.57,2.57,0,0,1,.25,1.15A2.53,2.53,0,0,1,24.8,87a1.79,1.79,0,0,1-.75.78,2.12,2.12,0,0,1-1,.27,2,2,0,0,1-1.08-.29,1.89,1.89,0,0,1-.72-.8A2.42,2.42,0,0,1,21,85.93Zm.59,0A1.72,1.72,0,0,0,22,87.16a1.46,1.46,0,0,0,2.1,0,1.82,1.82,0,0,0,.41-1.28A2.19,2.19,0,0,0,24.3,85a1.36,1.36,0,0,0-.52-.61,1.41,1.41,0,0,0-.77-.21,1.46,1.46,0,0,0-1,.41A1.85,1.85,0,0,0,21.54,85.93Z" transform="translate(0 -0.78)" style="fill:#231f20"/><path d="M25.81,88V83.72h1.9a2.53,2.53,0,0,1,.87.12,1,1,0,0,1,.48.41,1.22,1.22,0,0,1,.18.65,1.08,1.08,0,0,1-.3.77,1.5,1.5,0,0,1-.91.4,1.47,1.47,0,0,1,.34.21,3,3,0,0,1,.47.57L29.59,88h-.71l-.57-.89q-.25-.39-.41-.59a1.29,1.29,0,0,0-.29-.29.85.85,0,0,0-.26-.11l-.32,0h-.66V88Zm.57-2.4H27.6a1.83,1.83,0,0,0,.61-.08.65.65,0,0,0,.33-.26.7.7,0,0,0,.11-.39.64.64,0,0,0-.22-.5,1,1,0,0,0-.7-.2H26.38Z" transform="translate(0 -0.78)" style="fill:#231f20"/><path d="M32.55,88l-1.14-4.29H32l.65,2.82q.11.44.18.88l.19-.79.82-2.9h.69l.62,2.17a11.52,11.52,0,0,1,.33,1.52q.08-.41.21-.93l.67-2.76h.57L35.75,88h-.55l-.91-3.27q-.11-.41-.13-.5-.07.3-.13.5L33.13,88Z" transform="translate(0 -0.78)" style="fill:#231f20"/><path d="M36.77,88l1.65-4.29H39L40.79,88h-.65l-.5-1.3h-1.8L37.37,88ZM38,86.25h1.46L39,85.06q-.21-.54-.3-.89a5.48,5.48,0,0,1-.23.82Z" transform="translate(0 -0.78)" style="fill:#231f20"/><path d="M41.22,88V83.72h.57v3.79H43.9V88Z" transform="translate(0 -0.78)" style="fill:#231f20"/><path d="M44.55,88V83.72h.57v3.79h2.12V88Z" transform="translate(0 -0.78)" style="fill:#231f20"/><path d="M114.72,88V83.72h3.11v.51h-2.54v1.32h2.38V86h-2.37v1.46h2.64V88Z" transform="translate(0 -0.78)" style="fill:#231f20"/><path d="M118.28,88l1.66-2.24-1.46-2.06h.68l.78,1.1a6.27,6.27,0,0,1,.35.53,5.61,5.61,0,0,1,.34-.49l.87-1.14h.62l-1.51,2L122.21,88h-.7l-1.08-1.53-.19-.29-.21.32L119,88Z" transform="translate(0 -0.78)" style="fill:#231f20"/><path d="M123.81,88V84.23h-1.41v-.51h3.4v.51h-1.42V88Z" transform="translate(0 -0.78)" style="fill:#231f20"/><path d="M126.39,88V83.72h3.11v.51H127v1.32h2.38V86H127v1.46h2.64V88Z" transform="translate(0 -0.78)" style="fill:#231f20"/><path d="M130.39,88V83.72h1.9a2.54,2.54,0,0,1,.87.12,1,1,0,0,1,.48.41,1.22,1.22,0,0,1,.18.65,1.08,1.08,0,0,1-.3.77,1.5,1.5,0,0,1-.91.4,1.5,1.5,0,0,1,.34.21,3,3,0,0,1,.47.57l.75,1.17h-.71l-.57-.89q-.25-.39-.41-.59a1.31,1.31,0,0,0-.29-.29.86.86,0,0,0-.26-.11l-.32,0H131V88Zm.57-2.4h1.22a1.83,1.83,0,0,0,.61-.08.65.65,0,0,0,.33-.26.7.7,0,0,0,.12-.39.64.64,0,0,0-.22-.5,1,1,0,0,0-.7-.2H131Z" transform="translate(0 -0.78)" style="fill:#231f20"/><path d="M134.81,88V83.72h.57V88Z" transform="translate(0 -0.78)" style="fill:#231f20"/><path d="M136.21,85.93a2.33,2.33,0,0,1,.57-1.67,2,2,0,0,1,1.48-.6,2.06,2.06,0,0,1,1.07.28,1.86,1.86,0,0,1,.73.79,2.57,2.57,0,0,1,.25,1.15,2.53,2.53,0,0,1-.26,1.17,1.8,1.8,0,0,1-.75.78,2.12,2.12,0,0,1-1,.27,2,2,0,0,1-1.08-.29,1.88,1.88,0,0,1-.72-.8A2.42,2.42,0,0,1,136.21,85.93Zm.59,0a1.72,1.72,0,0,0,.42,1.22,1.46,1.46,0,0,0,2.1,0,1.82,1.82,0,0,0,.42-1.28,2.19,2.19,0,0,0-.18-.92,1.36,1.36,0,0,0-.52-.61,1.42,1.42,0,0,0-.77-.21,1.46,1.46,0,0,0-1,.41A1.85,1.85,0,0,0,136.8,85.93Z" transform="translate(0 -0.78)" style="fill:#231f20"/><path d="M141.06,88V83.72H143a2.53,2.53,0,0,1,.87.12,1,1,0,0,1,.48.41,1.23,1.23,0,0,1,.18.65,1.08,1.08,0,0,1-.29.77,1.5,1.5,0,0,1-.91.4,1.49,1.49,0,0,1,.34.21,3,3,0,0,1,.47.57l.75,1.17h-.71l-.57-.89q-.25-.39-.41-.59a1.29,1.29,0,0,0-.29-.29.85.85,0,0,0-.26-.11l-.32,0h-.66V88Zm.57-2.4h1.22a1.84,1.84,0,0,0,.61-.08.65.65,0,0,0,.33-.26.7.7,0,0,0,.11-.39.64.64,0,0,0-.22-.5,1,1,0,0,0-.7-.2h-1.36Z" transform="translate(0 -0.78)" style="fill:#231f20"/><path d="M147.8,88l-1.14-4.29h.58l.65,2.82q.11.44.18.88l.19-.79.82-2.9h.69l.62,2.17a11.84,11.84,0,0,1,.33,1.52q.08-.41.21-.93l.67-2.76h.57L151,88h-.55l-.9-3.27c-.08-.27-.12-.44-.13-.5q-.07.3-.13.5L148.38,88Z" transform="translate(0 -0.78)" style="fill:#231f20"/><path d="M152,88l1.65-4.29h.61L156,88h-.65l-.5-1.3h-1.8l-.47,1.3Zm1.24-1.76h1.46l-.45-1.19q-.21-.54-.3-.89a5.47,5.47,0,0,1-.23.82Z" transform="translate(0 -0.78)" style="fill:#231f20"/><path d="M156.47,88V83.72H157v3.79h2.12V88Z" transform="translate(0 -0.78)" style="fill:#231f20"/><path d="M159.81,88V83.72h.57v3.79h2.12V88Z" transform="translate(0 -0.78)" style="fill:#231f20"/><path d="M.49,44.69V40.4h2.9v.51H1.06v1.33h2v.51h-2v2Z" transform="translate(0 -0.78)" style="fill:#231f20"/><path d="M4.14,44.69V40.4H6a2.53,2.53,0,0,1,.87.12,1,1,0,0,1,.48.41,1.22,1.22,0,0,1,.18.65,1.08,1.08,0,0,1-.3.77,1.5,1.5,0,0,1-.91.4A1.47,1.47,0,0,1,6.7,43a3,3,0,0,1,.47.57l.75,1.17H7.21l-.57-.89q-.25-.39-.41-.59a1.29,1.29,0,0,0-.29-.29.85.85,0,0,0-.26-.11l-.32,0H4.71v1.91Zm.57-2.4H5.93a1.83,1.83,0,0,0,.61-.08A.65.65,0,0,0,6.87,42,.7.7,0,0,0,7,41.57a.64.64,0,0,0-.22-.5,1,1,0,0,0-.7-.2H4.71Z" transform="translate(0 -0.78)" style="fill:#231f20"/><path d="M8.29,42.6a2.33,2.33,0,0,1,.57-1.67,2,2,0,0,1,1.48-.6,2.06,2.06,0,0,1,1.07.28,1.86,1.86,0,0,1,.73.79,2.57,2.57,0,0,1,.25,1.15,2.53,2.53,0,0,1-.26,1.17,1.8,1.8,0,0,1-.75.78,2.13,2.13,0,0,1-1,.27,2,2,0,0,1-1.08-.29,1.89,1.89,0,0,1-.72-.8A2.42,2.42,0,0,1,8.29,42.6Zm.59,0a1.72,1.72,0,0,0,.42,1.22,1.46,1.46,0,0,0,2.1,0,1.82,1.82,0,0,0,.41-1.28,2.2,2.2,0,0,0-.18-.92,1.36,1.36,0,0,0-.52-.61,1.41,1.41,0,0,0-.77-.22,1.45,1.45,0,0,0-1,.41A1.85,1.85,0,0,0,8.87,42.61Z" transform="translate(0 -0.78)" style="fill:#231f20"/><path d="M13.11,44.69V40.4H14l1,3,.21.64.23-.69,1-3h.76v4.29h-.55V41.1l-1.25,3.59H14.9L13.66,41v3.66Z" transform="translate(0 -0.78)" style="fill:#231f20"/><path d="M1.21,51.19.07,46.9H.66l.65,2.82q.11.44.18.88l.19-.79.82-2.9h.69l.62,2.17a11.52,11.52,0,0,1,.33,1.52q.08-.41.21-.93L5,46.9H5.6L4.42,51.19H3.87L3,47.92q-.11-.41-.13-.5-.07.3-.13.5l-.91,3.27Z" transform="translate(0 -0.78)" style="fill:#231f20"/><path d="M5.43,51.19,7.08,46.9h.61l1.76,4.29H8.8l-.5-1.3H6.51L6,51.19Zm1.24-1.76H8.13l-.45-1.19q-.21-.54-.3-.89a5.48,5.48,0,0,1-.23.82Z" transform="translate(0 -0.78)" style="fill:#231f20"/><path d="M10.55,51.19V47.4H9.14V46.9h3.4v.51H11.12v3.79Z" transform="translate(0 -0.78)" style="fill:#231f20"/><path d="M13.14,51.19V46.9h3.11v.51H13.71v1.32h2.38v.5H13.71v1.46h2.64v.51Z" transform="translate(0 -0.78)" style="fill:#231f20"/><path d="M17.14,51.19V46.9H19a2.53,2.53,0,0,1,.87.12,1,1,0,0,1,.48.41,1.22,1.22,0,0,1,.18.65,1.08,1.08,0,0,1-.3.77,1.5,1.5,0,0,1-.91.4,1.47,1.47,0,0,1,.34.21,3,3,0,0,1,.47.57l.75,1.17h-.71l-.57-.89q-.25-.39-.41-.59a1.29,1.29,0,0,0-.29-.29.85.85,0,0,0-.26-.11l-.32,0H17.7v1.91Zm.57-2.4h1.22a1.83,1.83,0,0,0,.61-.08.65.65,0,0,0,.33-.26.7.7,0,0,0,.11-.39.64.64,0,0,0-.22-.5,1,1,0,0,0-.7-.2H17.7Z" transform="translate(0 -0.78)" style="fill:#231f20"/><path d="M.48,57.69V53.4H1v1.76H3.28V53.4h.57v4.29H3.28v-2H1v2Z" transform="translate(0 -0.78)" style="fill:#231f20"/><path d="M4.81,57.69V53.4H7.91v.51H5.38v1.32H7.75v.5H5.38v1.46H8v.51Z" transform="translate(0 -0.78)" style="fill:#231f20"/><path d="M8.33,57.69,10,53.4h.61l1.76,4.29H11.7l-.5-1.3H9.4l-.47,1.3Zm1.24-1.76H11l-.45-1.19q-.21-.54-.3-.89a5.48,5.48,0,0,1-.23.82Z" transform="translate(0 -0.78)" style="fill:#231f20"/><path d="M13.45,57.69V53.9H12V53.4h3.4v.51H14v3.79Z" transform="translate(0 -0.78)" style="fill:#231f20"/><path d="M16,57.69V53.4h3.11v.51H16.6v1.32H19v.5H16.6v1.46h2.64v.51Z" transform="translate(0 -0.78)" style="fill:#231f20"/><path d="M20,57.69V53.4h1.9a2.53,2.53,0,0,1,.87.12,1,1,0,0,1,.48.41,1.22,1.22,0,0,1,.18.65,1.08,1.08,0,0,1-.3.77,1.5,1.5,0,0,1-.91.4,1.47,1.47,0,0,1,.34.21,3,3,0,0,1,.47.57l.75,1.17H23.1l-.57-.89q-.25-.39-.41-.59a1.29,1.29,0,0,0-.29-.29.85.85,0,0,0-.26-.11l-.32,0H20.6v1.91Zm.57-2.4h1.22a1.83,1.83,0,0,0,.61-.08.65.65,0,0,0,.33-.26.7.7,0,0,0,.11-.39.64.64,0,0,0-.22-.5,1,1,0,0,0-.7-.2H20.6Z" transform="translate(0 -0.78)" style="fill:#231f20"/><path d="M3.53,73.17l.57.14a1.91,1.91,0,0,1-.64,1.07,1.77,1.77,0,0,1-1.14.37,2,2,0,0,1-1.13-.28,1.77,1.77,0,0,1-.66-.82A2.92,2.92,0,0,1,.3,72.49a2.53,2.53,0,0,1,.26-1.17,1.76,1.76,0,0,1,.73-.76,2.14,2.14,0,0,1,1-.26,1.76,1.76,0,0,1,1.08.33,1.7,1.7,0,0,1,.61.92l-.56.13A1.33,1.33,0,0,0,3,71a1.16,1.16,0,0,0-.71-.21,1.39,1.39,0,0,0-.83.24,1.26,1.26,0,0,0-.47.64,2.57,2.57,0,0,0-.13.83,2.61,2.61,0,0,0,.16,1,1.19,1.19,0,0,0,.5.61,1.39,1.39,0,0,0,.73.2A1.22,1.22,0,0,0,3.08,74,1.41,1.41,0,0,0,3.53,73.17Z" transform="translate(0 -0.78)" style="fill:#231f20"/><path d="M4.62,72.58a2.33,2.33,0,0,1,.57-1.67,2,2,0,0,1,1.48-.61,2.06,2.06,0,0,1,1.07.28,1.86,1.86,0,0,1,.73.79,2.58,2.58,0,0,1,.25,1.15,2.53,2.53,0,0,1-.26,1.17,1.8,1.8,0,0,1-.75.78,2.13,2.13,0,0,1-1,.26,2,2,0,0,1-1.08-.29,1.89,1.89,0,0,1-.72-.8A2.42,2.42,0,0,1,4.62,72.58Zm.59,0a1.72,1.72,0,0,0,.42,1.22,1.37,1.37,0,0,0,1,.45,1.37,1.37,0,0,0,1.06-.45,1.82,1.82,0,0,0,.41-1.28A2.21,2.21,0,0,0,8,71.61,1.36,1.36,0,0,0,7.45,71a1.4,1.4,0,0,0-.77-.22,1.45,1.45,0,0,0-1,.42A1.85,1.85,0,0,0,5.21,72.59Z" transform="translate(0 -0.78)" style="fill:#231f20"/><path d="M12.28,70.38h.57v2.48a2.94,2.94,0,0,1-.15,1,1.25,1.25,0,0,1-.53.62,1.86,1.86,0,0,1-1,.24,2.06,2.06,0,0,1-1-.21,1.19,1.19,0,0,1-.55-.6,2.87,2.87,0,0,1-.16-1.08V70.38H10v2.48a2.41,2.41,0,0,0,.1.82.79.79,0,0,0,.36.41,1.24,1.24,0,0,0,.62.14,1.18,1.18,0,0,0,.89-.28,1.64,1.64,0,0,0,.27-1.09Z" transform="translate(0 -0.78)" style="fill:#231f20"/><path d="M13.8,74.67V70.38h1.62a3.91,3.91,0,0,1,.65,0,1.29,1.29,0,0,1,.53.2,1.05,1.05,0,0,1,.34.41,1.4,1.4,0,0,1-.22,1.51,1.67,1.67,0,0,1-1.26.38h-1.1v1.75Zm.57-2.25h1.11a1.18,1.18,0,0,0,.78-.21.73.73,0,0,0,.23-.58.77.77,0,0,0-.14-.46.64.64,0,0,0-.36-.25,2.43,2.43,0,0,0-.53,0h-1.1Z" transform="translate(0 -0.78)" style="fill:#231f20"/><path d="M17.77,74.67V70.38h.57v3.79h2.12v.51Z" transform="translate(0 -0.78)" style="fill:#231f20"/><path d="M21.23,74.67V70.38h.57v4.29Z" transform="translate(0 -0.78)" style="fill:#231f20"/><path d="M22.8,74.67V70.38h.58l2.26,3.37V70.38h.54v4.29H25.6L23.34,71.3v3.38Z" transform="translate(0 -0.78)" style="fill:#231f20"/><path d="M29.14,73v-.5H31v1.59a3.18,3.18,0,0,1-.86.5,2.56,2.56,0,0,1-.91.17A2.44,2.44,0,0,1,28,74.48a1.79,1.79,0,0,1-.78-.78A2.47,2.47,0,0,1,27,72.55a2.66,2.66,0,0,1,.26-1.17,1.74,1.74,0,0,1,.75-.81,2.36,2.36,0,0,1,1.13-.26,2.25,2.25,0,0,1,.84.15,1.4,1.4,0,0,1,.59.42,1.86,1.86,0,0,1,.33.7l-.51.14a1.59,1.59,0,0,0-.24-.52,1,1,0,0,0-.41-.3,1.52,1.52,0,0,0-.59-.11,1.76,1.76,0,0,0-.67.12,1.27,1.27,0,0,0-.46.31,1.49,1.49,0,0,0-.27.42,2.25,2.25,0,0,0-.16.86,2.1,2.1,0,0,0,.2,1,1.27,1.27,0,0,0,.58.57,1.78,1.78,0,0,0,.8.19,1.89,1.89,0,0,0,.72-.14,1.84,1.84,0,0,0,.53-.3V73Z" transform="translate(0 -0.78)" style="fill:#231f20"/><path d="M.45,5.15V.85h.86l1,3,.21.64.23-.69,1-3h.76V5.15H4V1.55L2.76,5.15H2.24L1,1.49V5.15Z" transform="translate(0 -0.78)" style="fill:#231f20"/><path d="M5.48,5.15V.85H8.59v.51H6.05V2.68H8.43v.5H6.05V4.64H8.69v.51Z" transform="translate(0 -0.78)" style="fill:#231f20"/><path d="M10.56,5.15V1.36H9.15V.85h3.4v.51H11.13V5.15Z" transform="translate(0 -0.78)" style="fill:#231f20"/><path d="M12.1,5.15,13.75.85h.61l1.76,4.29h-.65L15,3.85h-1.8l-.47,1.3Zm1.24-1.76H14.8L14.35,2.2q-.21-.54-.3-.89a5.48,5.48,0,0,1-.23.82Z" transform="translate(0 -0.78)" style="fill:#231f20"/><path d="M16.43,5.15V.85H17V4.64h2.12v.51Z" transform="translate(0 -0.78)" style="fill:#231f20"/><path d="M21.24,5.15V.85h1.62a3.91,3.91,0,0,1,.65,0,1.29,1.29,0,0,1,.53.2,1.05,1.05,0,0,1,.34.41,1.32,1.32,0,0,1,.13.59,1.32,1.32,0,0,1-.35.93,1.67,1.67,0,0,1-1.26.38H21.8V5.15ZM21.8,2.9h1.11a1.18,1.18,0,0,0,.78-.21.73.73,0,0,0,.23-.58.78.78,0,0,0-.14-.46.64.64,0,0,0-.36-.25,2.43,2.43,0,0,0-.53,0H21.8Z" transform="translate(0 -0.78)" style="fill:#231f20"/><path d="M25.21,5.15V.85h.57V4.64H27.9v.51Z" transform="translate(0 -0.78)" style="fill:#231f20"/><path d="M28.1,5.15,29.75.85h.61l1.76,4.29h-.65L31,3.85h-1.8l-.47,1.3Zm1.24-1.76H30.8L30.35,2.2q-.21-.54-.3-.89a5.48,5.48,0,0,1-.23.82Z" transform="translate(0 -0.78)" style="fill:#231f20"/><path d="M33.11,5.15V1.36H31.69V.85h3.4v.51H33.67V5.15Z" transform="translate(0 -0.78)" style="fill:#231f20"/><path d="M35.69,5.15V.85H38.8v.51H36.26V2.68h2.38v.5H36.26V4.64H38.9v.51Z" transform="translate(0 -0.78)" style="fill:#231f20"/><path d="M39.49,3.77l.54,0a1.18,1.18,0,0,0,.18.53,1,1,0,0,0,.43.33,1.64,1.64,0,0,0,.66.13,1.58,1.58,0,0,0,.57-.1.8.8,0,0,0,.37-.27A.61.61,0,0,0,42.36,4a.56.56,0,0,0-.12-.35.87.87,0,0,0-.39-.25,7.56,7.56,0,0,0-.76-.21,3.91,3.91,0,0,1-.83-.27,1.16,1.16,0,0,1-.46-.4A1,1,0,0,1,39.65,2a1.09,1.09,0,0,1,.18-.61,1.14,1.14,0,0,1,.54-.43,2,2,0,0,1,.79-.15A2.15,2.15,0,0,1,42,.93a1.21,1.21,0,0,1,.56.45,1.3,1.3,0,0,1,.21.68l-.54,0a.88.88,0,0,0-.3-.62,1.16,1.16,0,0,0-.75-.21,1.2,1.2,0,0,0-.75.19.57.57,0,0,0-.24.46.49.49,0,0,0,.17.38,2.26,2.26,0,0,0,.86.31,5.67,5.67,0,0,1,1,.27,1.3,1.3,0,0,1,.55.44,1.07,1.07,0,0,1,.18.61,1.17,1.17,0,0,1-.2.65,1.29,1.29,0,0,1-.56.47,2,2,0,0,1-.83.17,2.47,2.47,0,0,1-1-.17,1.37,1.37,0,0,1-.62-.51A1.45,1.45,0,0,1,39.49,3.77Z" transform="translate(0 -0.78)" style="fill:#231f20"/><path d="M.57,11.65V7.35h.57v4.29Z" transform="translate(0 -0.78)" style="fill:#231f20"/><path d="M2.13,11.65V7.35h.58L5,10.73V7.35h.54v4.29H4.93L2.68,8.27v3.37Z" transform="translate(0 -0.78)" style="fill:#231f20"/><path d="M6.28,10.27l.54,0a1.18,1.18,0,0,0,.18.53,1,1,0,0,0,.43.33,1.64,1.64,0,0,0,.66.13,1.58,1.58,0,0,0,.57-.1A.8.8,0,0,0,9,10.85a.61.61,0,0,0,.12-.37A.56.56,0,0,0,9,10.13a.87.87,0,0,0-.39-.25,7.56,7.56,0,0,0-.76-.21,3.91,3.91,0,0,1-.83-.27A1.16,1.16,0,0,1,6.59,9a1,1,0,0,1-.15-.53,1.09,1.09,0,0,1,.18-.61,1.14,1.14,0,0,1,.54-.43A2,2,0,0,1,8,7.28a2.15,2.15,0,0,1,.84.15,1.21,1.21,0,0,1,.56.45,1.3,1.3,0,0,1,.21.68L9,8.6A.88.88,0,0,0,8.73,8,1.16,1.16,0,0,0,8,7.78,1.2,1.2,0,0,0,7.23,8,.57.57,0,0,0,7,8.43a.49.49,0,0,0,.17.38A2.26,2.26,0,0,0,8,9.11a5.67,5.67,0,0,1,1,.27,1.3,1.3,0,0,1,.55.44,1.07,1.07,0,0,1,.18.61,1.17,1.17,0,0,1-.2.65,1.29,1.29,0,0,1-.56.47,2,2,0,0,1-.83.17,2.47,2.47,0,0,1-1-.17A1.37,1.37,0,0,1,6.51,11,1.45,1.45,0,0,1,6.28,10.27Z" transform="translate(0 -0.78)" style="fill:#231f20"/><path d="M11.57,11.65V7.86H10.15V7.35h3.4v.51H12.14v3.79Z" transform="translate(0 -0.78)" style="fill:#231f20"/><path d="M13.22,11.65l1.65-4.29h.61l1.76,4.29h-.65l-.5-1.3H14.3l-.47,1.3Zm1.24-1.76h1.46L15.47,8.7q-.21-.54-.3-.89a5.48,5.48,0,0,1-.23.82Z" transform="translate(0 -0.78)" style="fill:#231f20"/><path d="M17.67,11.65V7.35h.57v3.79h2.12v.51Z" transform="translate(0 -0.78)" style="fill:#231f20"/><path d="M21,11.65V7.35h.57v3.79h2.12v.51Z" transform="translate(0 -0.78)" style="fill:#231f20"/><path d="M25.91,11.65V7.35h.57v4.29Z" transform="translate(0 -0.78)" style="fill:#231f20"/><path d="M27.48,11.65V7.35h.58l2.26,3.37V7.35h.54v4.29h-.58L28,8.27v3.37Z" transform="translate(0 -0.78)" style="fill:#231f20"/><path d="M31.62,10.27l.54,0a1.18,1.18,0,0,0,.18.53,1,1,0,0,0,.43.33,1.64,1.64,0,0,0,.66.13,1.58,1.58,0,0,0,.57-.1.8.8,0,0,0,.37-.27.61.61,0,0,0,.12-.37.56.56,0,0,0-.12-.35A.87.87,0,0,0,34,9.88a7.56,7.56,0,0,0-.76-.21,3.91,3.91,0,0,1-.83-.27,1.16,1.16,0,0,1-.46-.4,1,1,0,0,1-.15-.53A1.09,1.09,0,0,1,32,7.86a1.14,1.14,0,0,1,.54-.43,2,2,0,0,1,.79-.15,2.15,2.15,0,0,1,.84.15,1.21,1.21,0,0,1,.56.45,1.3,1.3,0,0,1,.21.68l-.54,0a.88.88,0,0,0-.3-.62,1.16,1.16,0,0,0-.75-.21,1.2,1.2,0,0,0-.75.19.57.57,0,0,0-.24.46.49.49,0,0,0,.17.38,2.26,2.26,0,0,0,.86.31,5.67,5.67,0,0,1,1,.27,1.3,1.3,0,0,1,.55.44,1.07,1.07,0,0,1,.18.61,1.17,1.17,0,0,1-.2.65,1.29,1.29,0,0,1-.56.47,2,2,0,0,1-.83.17,2.47,2.47,0,0,1-1-.17,1.37,1.37,0,0,1-.62-.51A1.45,1.45,0,0,1,31.62,10.27Z" transform="translate(0 -0.78)" style="fill:#231f20"/><path d="M35.91,11.65V7.35h.57v4.29Z" transform="translate(0 -0.78)" style="fill:#231f20"/><path d="M37.48,11.65V7.35H39a3.59,3.59,0,0,1,.76.06,1.45,1.45,0,0,1,.63.31,1.75,1.75,0,0,1,.51.73,2.88,2.88,0,0,1,.17,1,3,3,0,0,1-.11.87,2.1,2.1,0,0,1-.29.63,1.56,1.56,0,0,1-.39.39,1.59,1.59,0,0,1-.51.22,2.93,2.93,0,0,1-.69.07Zm.57-.51H39a2.23,2.23,0,0,0,.67-.08,1,1,0,0,0,.39-.22,1.35,1.35,0,0,0,.31-.54,2.66,2.66,0,0,0,.11-.83,2,2,0,0,0-.22-1,1.11,1.11,0,0,0-.54-.48A2.22,2.22,0,0,0,39,7.86h-.9Z" transform="translate(0 -0.78)" style="fill:#231f20"/><path d="M41.83,11.65V7.35h3.11v.51H42.4V9.18h2.38v.5H42.4v1.46H45v.51Z" transform="translate(0 -0.78)" style="fill:#231f20"/><path d="M0,18.15l1.65-4.29h.61L4,18.15H3.37l-.5-1.3H1.08L.6,18.15Zm1.24-1.76H2.7L2.25,15.2q-.21-.54-.3-.89a5.48,5.48,0,0,1-.23.82Z" transform="translate(0 -0.78)" style="fill:#231f20"/><path d="M4.47,18.15V13.85h.58l2.26,3.37V13.85h.54v4.29H7.27L5,14.77v3.37Z" transform="translate(0 -0.78)" style="fill:#231f20"/><path d="M8.81,18.15V13.85h1.48a3.59,3.59,0,0,1,.76.06,1.45,1.45,0,0,1,.63.31,1.75,1.75,0,0,1,.51.73,2.88,2.88,0,0,1,.17,1,3,3,0,0,1-.11.87,2.1,2.1,0,0,1-.29.63,1.56,1.56,0,0,1-.39.39,1.59,1.59,0,0,1-.51.22,2.93,2.93,0,0,1-.69.07Zm.57-.51h.92a2.23,2.23,0,0,0,.67-.08,1,1,0,0,0,.39-.22,1.35,1.35,0,0,0,.31-.54,2.66,2.66,0,0,0,.11-.83,2,2,0,0,0-.22-1,1.11,1.11,0,0,0-.54-.48,2.22,2.22,0,0,0-.74-.09h-.9Z" transform="translate(0 -0.78)" style="fill:#231f20"/><path d="M12.68,18.22l1.25-4.44h.42L13.1,18.22Z" transform="translate(0 -0.78)" style="fill:#231f20"/><path d="M14.63,16.06a2.33,2.33,0,0,1,.57-1.67,2,2,0,0,1,1.48-.6,2.06,2.06,0,0,1,1.07.28,1.86,1.86,0,0,1,.73.79A2.57,2.57,0,0,1,18.74,16a2.53,2.53,0,0,1-.26,1.17,1.8,1.8,0,0,1-.75.78,2.13,2.13,0,0,1-1,.27,2,2,0,0,1-1.08-.29,1.89,1.89,0,0,1-.72-.8A2.42,2.42,0,0,1,14.63,16.06Zm.59,0a1.72,1.72,0,0,0,.42,1.22,1.46,1.46,0,0,0,2.1,0A1.82,1.82,0,0,0,18.16,16a2.2,2.2,0,0,0-.18-.92,1.36,1.36,0,0,0-.52-.61,1.41,1.41,0,0,0-.77-.22,1.45,1.45,0,0,0-1,.41A1.85,1.85,0,0,0,15.22,16.07Z" transform="translate(0 -0.78)" style="fill:#231f20"/><path d="M19.48,18.15V13.85h1.9a2.53,2.53,0,0,1,.87.12,1,1,0,0,1,.48.41,1.22,1.22,0,0,1,.18.65,1.08,1.08,0,0,1-.3.77,1.5,1.5,0,0,1-.91.4,1.47,1.47,0,0,1,.34.21,3,3,0,0,1,.47.57l.75,1.17h-.71L22,17.26q-.25-.39-.41-.59a1.29,1.29,0,0,0-.29-.29.85.85,0,0,0-.26-.11l-.32,0h-.66v1.91Zm.57-2.4h1.22a1.83,1.83,0,0,0,.61-.08.65.65,0,0,0,.33-.26.7.7,0,0,0,.11-.39.64.64,0,0,0-.22-.5,1,1,0,0,0-.7-.2H20.05Z" transform="translate(0 -0.78)" style="fill:#231f20"/><path d="M25.3,16.06a2.33,2.33,0,0,1,.57-1.67,2,2,0,0,1,1.48-.6,2.06,2.06,0,0,1,1.07.28,1.86,1.86,0,0,1,.73.79A2.57,2.57,0,0,1,29.41,16a2.53,2.53,0,0,1-.26,1.17,1.8,1.8,0,0,1-.75.78,2.13,2.13,0,0,1-1,.27,2,2,0,0,1-1.08-.29,1.89,1.89,0,0,1-.72-.8A2.42,2.42,0,0,1,25.3,16.06Zm.59,0a1.72,1.72,0,0,0,.42,1.22,1.46,1.46,0,0,0,2.1,0A1.82,1.82,0,0,0,28.82,16a2.2,2.2,0,0,0-.18-.92,1.36,1.36,0,0,0-.52-.61,1.41,1.41,0,0,0-.77-.22,1.45,1.45,0,0,0-1,.41A1.85,1.85,0,0,0,25.89,16.07Z" transform="translate(0 -0.78)" style="fill:#231f20"/><path d="M33,13.85h.57v2.48a2.94,2.94,0,0,1-.15,1,1.25,1.25,0,0,1-.53.62,1.87,1.87,0,0,1-1,.24,2.06,2.06,0,0,1-1-.21,1.19,1.19,0,0,1-.55-.6,2.87,2.87,0,0,1-.16-1.08V13.85h.57v2.48a2.42,2.42,0,0,0,.1.82.79.79,0,0,0,.36.41,1.24,1.24,0,0,0,.62.14,1.18,1.18,0,0,0,.89-.28A1.64,1.64,0,0,0,33,16.33Z" transform="translate(0 -0.78)" style="fill:#231f20"/><path d="M35.57,18.15V14.36H34.15v-.51h3.4v.51H36.14v3.79Z" transform="translate(0 -0.78)" style="fill:#231f20"/><path d="M37.95,16.77l.54,0a1.18,1.18,0,0,0,.18.53,1,1,0,0,0,.43.33,1.64,1.64,0,0,0,.66.13,1.58,1.58,0,0,0,.57-.1.8.8,0,0,0,.37-.27.61.61,0,0,0,.12-.37.56.56,0,0,0-.12-.35.87.87,0,0,0-.39-.25,7.56,7.56,0,0,0-.76-.21,3.91,3.91,0,0,1-.83-.27,1.16,1.16,0,0,1-.46-.4,1,1,0,0,1-.15-.53,1.09,1.09,0,0,1,.18-.61,1.14,1.14,0,0,1,.54-.43,2,2,0,0,1,.79-.15,2.15,2.15,0,0,1,.84.15,1.21,1.21,0,0,1,.56.45,1.3,1.3,0,0,1,.21.68l-.54,0a.88.88,0,0,0-.3-.62,1.16,1.16,0,0,0-.75-.21,1.2,1.2,0,0,0-.75.19.57.57,0,0,0-.24.46.49.49,0,0,0,.17.38,2.26,2.26,0,0,0,.86.31,5.67,5.67,0,0,1,1,.27,1.3,1.3,0,0,1,.55.44,1.07,1.07,0,0,1,.18.61,1.17,1.17,0,0,1-.2.65,1.29,1.29,0,0,1-.56.47,2,2,0,0,1-.83.17,2.47,2.47,0,0,1-1-.17,1.37,1.37,0,0,1-.62-.51A1.45,1.45,0,0,1,37.95,16.77Z" transform="translate(0 -0.78)" style="fill:#231f20"/><path d="M42.24,18.15V13.85h.57v4.29Z" transform="translate(0 -0.78)" style="fill:#231f20"/><path d="M43.81,18.15V13.85h1.48a3.59,3.59,0,0,1,.76.06,1.45,1.45,0,0,1,.63.31,1.75,1.75,0,0,1,.51.73,2.88,2.88,0,0,1,.17,1,3,3,0,0,1-.11.87,2.1,2.1,0,0,1-.29.63,1.56,1.56,0,0,1-.39.39,1.59,1.59,0,0,1-.51.22,2.93,2.93,0,0,1-.69.07Zm.57-.51h.92a2.23,2.23,0,0,0,.67-.08,1,1,0,0,0,.39-.22,1.35,1.35,0,0,0,.31-.54,2.66,2.66,0,0,0,.11-.83,2,2,0,0,0-.22-1,1.11,1.11,0,0,0-.54-.48,2.22,2.22,0,0,0-.74-.09h-.9Z" transform="translate(0 -0.78)" style="fill:#231f20"/><path d="M48.15,18.15V13.85h3.11v.51H48.72v1.32H51.1v.5H48.72v1.46h2.64v.51Z" transform="translate(0 -0.78)" style="fill:#231f20"/><path d="M133.21,58.17V53.88h2.9v.51h-2.33v1.33h2v.51h-2v2Z" transform="translate(0 -0.78)" style="fill:#231f20"/><path d="M136,58.17l1.65-4.29h.61l1.76,4.29h-.65l-.5-1.3h-1.8l-.47,1.3Zm1.24-1.76h1.46l-.45-1.19q-.21-.54-.3-.89a5.48,5.48,0,0,1-.23.82Z" transform="translate(0 -0.78)" style="fill:#231f20"/><path d="M143.58,56.67l.57.14a1.92,1.92,0,0,1-.64,1.07,1.77,1.77,0,0,1-1.14.37,2,2,0,0,1-1.13-.28,1.76,1.76,0,0,1-.66-.82,2.92,2.92,0,0,1-.23-1.15,2.53,2.53,0,0,1,.26-1.17,1.75,1.75,0,0,1,.73-.76,2.13,2.13,0,0,1,1-.26,1.76,1.76,0,0,1,1.08.33,1.7,1.7,0,0,1,.61.92l-.56.13a1.33,1.33,0,0,0-.43-.68,1.16,1.16,0,0,0-.71-.21,1.39,1.39,0,0,0-.83.24,1.25,1.25,0,0,0-.47.64,2.57,2.57,0,0,0-.13.82,2.61,2.61,0,0,0,.16,1,1.19,1.19,0,0,0,.5.61,1.39,1.39,0,0,0,.73.2,1.22,1.22,0,0,0,.81-.28A1.41,1.41,0,0,0,143.58,56.67Z" transform="translate(0 -0.78)" style="fill:#231f20"/><path d="M145.94,58.17V54.38h-1.42v-.51h3.4v.51h-1.42v3.79Z" transform="translate(0 -0.78)" style="fill:#231f20"/><path d="M148.23,56.08a2.33,2.33,0,0,1,.57-1.67,2,2,0,0,1,1.48-.6,2.06,2.06,0,0,1,1.07.28,1.86,1.86,0,0,1,.73.79,2.59,2.59,0,0,1,.25,1.15,2.53,2.53,0,0,1-.26,1.17,1.79,1.79,0,0,1-.75.78,2.12,2.12,0,0,1-1,.27A2,2,0,0,1,149.2,58a1.89,1.89,0,0,1-.72-.8A2.42,2.42,0,0,1,148.23,56.08Zm.59,0a1.71,1.71,0,0,0,.42,1.22,1.46,1.46,0,0,0,2.1,0,1.83,1.83,0,0,0,.41-1.28,2.2,2.2,0,0,0-.18-.92,1.37,1.37,0,0,0-.52-.61,1.41,1.41,0,0,0-.77-.22,1.45,1.45,0,0,0-1,.41A1.85,1.85,0,0,0,148.82,56.09Z" transform="translate(0 -0.78)" style="fill:#231f20"/><path d="M153.08,58.17V53.88H155a2.53,2.53,0,0,1,.87.12,1,1,0,0,1,.48.41,1.22,1.22,0,0,1,.18.65,1.08,1.08,0,0,1-.3.77,1.5,1.5,0,0,1-.91.4,1.47,1.47,0,0,1,.34.21,3,3,0,0,1,.47.57l.75,1.17h-.71l-.57-.89q-.25-.39-.41-.59a1.31,1.31,0,0,0-.29-.29.87.87,0,0,0-.26-.11l-.32,0h-.66v1.91Zm.57-2.4h1.22a1.83,1.83,0,0,0,.61-.08.65.65,0,0,0,.33-.26.7.7,0,0,0,.11-.39.64.64,0,0,0-.22-.5,1,1,0,0,0-.7-.2h-1.36Z" transform="translate(0 -0.78)" style="fill:#231f20"/><path d="M158.51,58.17V56.35l-1.66-2.48h.69l.85,1.29q.23.36.44.73.19-.34.47-.76l.83-1.26h.66l-1.71,2.48v1.82Z" transform="translate(0 -0.78)" style="fill:#231f20"/><path d="M162.67,56.79l.54,0a1.19,1.19,0,0,0,.18.53,1,1,0,0,0,.43.33,1.65,1.65,0,0,0,.66.13,1.58,1.58,0,0,0,.57-.1.8.8,0,0,0,.37-.26.62.62,0,0,0,.12-.37.56.56,0,0,0-.12-.35.87.87,0,0,0-.39-.25,7.7,7.7,0,0,0-.76-.21,3.91,3.91,0,0,1-.83-.27,1.16,1.16,0,0,1-.46-.4,1,1,0,0,1-.15-.53,1.09,1.09,0,0,1,.18-.61,1.14,1.14,0,0,1,.54-.43,2,2,0,0,1,.79-.15,2.15,2.15,0,0,1,.84.15,1.21,1.21,0,0,1,.56.45,1.3,1.3,0,0,1,.21.68l-.54,0a.88.88,0,0,0-.3-.62,1.16,1.16,0,0,0-.75-.21,1.2,1.2,0,0,0-.75.19.57.57,0,0,0-.24.46.49.49,0,0,0,.17.38,2.26,2.26,0,0,0,.86.31,5.69,5.69,0,0,1,1,.27,1.3,1.3,0,0,1,.55.44,1.07,1.07,0,0,1,.18.61,1.16,1.16,0,0,1-.2.65,1.29,1.29,0,0,1-.56.47,2,2,0,0,1-.83.17,2.47,2.47,0,0,1-1-.17,1.36,1.36,0,0,1-.62-.51A1.44,1.44,0,0,1,162.67,56.79Z" transform="translate(0 -0.78)" style="fill:#231f20"/><path d="M169.68,53.88h.57v2.48a2.94,2.94,0,0,1-.15,1,1.25,1.25,0,0,1-.53.62,1.87,1.87,0,0,1-1,.24,2.06,2.06,0,0,1-1-.21,1.18,1.18,0,0,1-.55-.6,2.86,2.86,0,0,1-.16-1.08V53.88h.57v2.48a2.39,2.39,0,0,0,.1.83.78.78,0,0,0,.36.41,1.24,1.24,0,0,0,.62.14,1.18,1.18,0,0,0,.89-.28,1.64,1.64,0,0,0,.27-1.09Z" transform="translate(0 -0.78)" style="fill:#231f20"/><path d="M171.19,58.17V53.88h1.62a3.91,3.91,0,0,1,.65,0,1.29,1.29,0,0,1,.53.2,1.05,1.05,0,0,1,.34.41,1.4,1.4,0,0,1-.22,1.51,1.67,1.67,0,0,1-1.26.38h-1.1v1.75Zm.57-2.25h1.11a1.18,1.18,0,0,0,.78-.21.73.73,0,0,0,.23-.58.77.77,0,0,0-.14-.46.63.63,0,0,0-.36-.25,2.43,2.43,0,0,0-.53,0h-1.1Z" transform="translate(0 -0.78)" style="fill:#231f20"/><path d="M175.2,58.17V53.88h1.62a3.91,3.91,0,0,1,.65,0,1.29,1.29,0,0,1,.53.2,1.05,1.05,0,0,1,.34.41,1.4,1.4,0,0,1-.22,1.51,1.67,1.67,0,0,1-1.26.38h-1.1v1.75Zm.57-2.25h1.11a1.18,1.18,0,0,0,.78-.21.73.73,0,0,0,.23-.58.77.77,0,0,0-.14-.46.63.63,0,0,0-.36-.25,2.43,2.43,0,0,0-.53,0h-1.1Z" transform="translate(0 -0.78)" style="fill:#231f20"/><path d="M179.17,58.17V53.88h.57v3.79h2.12v.51Z" transform="translate(0 -0.78)" style="fill:#231f20"/><path d="M182.63,58.17V53.88h.57v4.29Z" transform="translate(0 -0.78)" style="fill:#231f20"/><path d="M184.21,58.17V53.88h3.11v.51h-2.54V55.7h2.38v.5h-2.38v1.46h2.64v.51Z" transform="translate(0 -0.78)" style="fill:#231f20"/><path d="M188.2,58.17V53.88h1.48a3.59,3.59,0,0,1,.76.06,1.45,1.45,0,0,1,.63.31,1.75,1.75,0,0,1,.51.73,2.88,2.88,0,0,1,.17,1,3,3,0,0,1-.11.87,2.09,2.09,0,0,1-.29.63,1.56,1.56,0,0,1-.39.39,1.61,1.61,0,0,1-.51.21,2.92,2.92,0,0,1-.69.07Zm.57-.51h.92a2.22,2.22,0,0,0,.67-.08,1,1,0,0,0,.39-.22,1.36,1.36,0,0,0,.32-.54,2.68,2.68,0,0,0,.11-.83,2,2,0,0,0-.22-1,1.11,1.11,0,0,0-.54-.48,2.22,2.22,0,0,0-.74-.09h-.9Z" transform="translate(0 -0.78)" style="fill:#231f20"/><path d="M133,63.29l.54,0a1.19,1.19,0,0,0,.18.53,1,1,0,0,0,.43.33,1.65,1.65,0,0,0,.66.13,1.58,1.58,0,0,0,.57-.1.8.8,0,0,0,.37-.26.62.62,0,0,0,.12-.37.56.56,0,0,0-.12-.35.87.87,0,0,0-.39-.25,7.61,7.61,0,0,0-.76-.21,3.9,3.9,0,0,1-.83-.27,1.16,1.16,0,0,1-.46-.4,1,1,0,0,1-.15-.54,1.09,1.09,0,0,1,.18-.61,1.14,1.14,0,0,1,.54-.43,2,2,0,0,1,.79-.15,2.13,2.13,0,0,1,.84.15,1.2,1.2,0,0,1,.56.45,1.3,1.3,0,0,1,.21.68l-.54,0a.88.88,0,0,0-.3-.62,1.16,1.16,0,0,0-.75-.21,1.21,1.21,0,0,0-.75.19.57.57,0,0,0-.24.46.49.49,0,0,0,.17.38,2.24,2.24,0,0,0,.86.31,5.77,5.77,0,0,1,1,.27,1.3,1.3,0,0,1,.55.44,1.07,1.07,0,0,1,.18.61,1.16,1.16,0,0,1-.2.65,1.29,1.29,0,0,1-.56.47,2,2,0,0,1-.83.17,2.47,2.47,0,0,1-1-.17,1.36,1.36,0,0,1-.62-.51A1.44,1.44,0,0,1,133,63.29Z" transform="translate(0 -0.78)" style="fill:#231f20"/><path d="M138.28,64.67V60.88h-1.42v-.51h3.4v.51h-1.42v3.79Z" transform="translate(0 -0.78)" style="fill:#231f20"/><path d="M139.93,64.67l1.65-4.29h.61L144,64.67h-.65l-.5-1.3H141l-.47,1.3Zm1.24-1.76h1.46l-.45-1.19q-.21-.54-.3-.89a5.48,5.48,0,0,1-.23.82Z" transform="translate(0 -0.78)" style="fill:#231f20"/><path d="M144.4,64.67V60.38H145l2.26,3.37V60.38h.54v4.29h-.58l-2.26-3.37v3.38Z" transform="translate(0 -0.78)" style="fill:#231f20"/><path d="M148.74,64.67V60.38h1.48a3.59,3.59,0,0,1,.76.06,1.45,1.45,0,0,1,.63.31,1.76,1.76,0,0,1,.51.73,2.91,2.91,0,0,1,.17,1,3,3,0,0,1-.11.87,2.09,2.09,0,0,1-.29.63,1.55,1.55,0,0,1-.39.39,1.6,1.6,0,0,1-.51.21,2.94,2.94,0,0,1-.69.07Zm.57-.51h.92a2.23,2.23,0,0,0,.67-.08,1,1,0,0,0,.38-.22,1.35,1.35,0,0,0,.31-.54,2.65,2.65,0,0,0,.11-.83,2,2,0,0,0-.22-1,1.12,1.12,0,0,0-.54-.48,2.22,2.22,0,0,0-.74-.09h-.9Z" transform="translate(0 -0.78)" style="fill:#231f20"/><path d="M152.6,64.67l1.65-4.29h.61l1.76,4.29H156l-.5-1.3h-1.8l-.47,1.3Zm1.24-1.76h1.46l-.45-1.19q-.21-.54-.3-.89a5.48,5.48,0,0,1-.23.82Z" transform="translate(0 -0.78)" style="fill:#231f20"/><path d="M157.08,64.67V60.38H159a2.53,2.53,0,0,1,.87.12,1,1,0,0,1,.48.41,1.22,1.22,0,0,1,.18.65,1.08,1.08,0,0,1-.3.77,1.5,1.5,0,0,1-.91.4,1.47,1.47,0,0,1,.34.21,3,3,0,0,1,.47.57l.75,1.17h-.71l-.57-.89q-.25-.39-.41-.59a1.27,1.27,0,0,0-.29-.29.84.84,0,0,0-.26-.11l-.32,0h-.66v1.91Zm.57-2.4h1.22a1.83,1.83,0,0,0,.61-.08.65.65,0,0,0,.33-.26.7.7,0,0,0,.11-.39.64.64,0,0,0-.22-.5,1,1,0,0,0-.7-.2h-1.36Z" transform="translate(0 -0.78)" style="fill:#231f20"/><path d="M161.41,64.67V60.38h1.48a3.59,3.59,0,0,1,.76.06,1.45,1.45,0,0,1,.63.31,1.76,1.76,0,0,1,.51.73,2.91,2.91,0,0,1,.17,1,3,3,0,0,1-.11.87,2.09,2.09,0,0,1-.29.63,1.55,1.55,0,0,1-.39.39,1.6,1.6,0,0,1-.51.21,2.94,2.94,0,0,1-.69.07Zm.57-.51h.92a2.23,2.23,0,0,0,.67-.08,1,1,0,0,0,.38-.22,1.35,1.35,0,0,0,.31-.54,2.65,2.65,0,0,0,.11-.83,2,2,0,0,0-.22-1,1.12,1.12,0,0,0-.54-.48,2.22,2.22,0,0,0-.74-.09H162Z" transform="translate(0 -0.78)" style="fill:#231f20"/><path d="M168.39,64.67V60.88H167v-.51h3.4v.51H169v3.79Z" transform="translate(0 -0.78)" style="fill:#231f20"/><path d="M171,64.67V60.38h3.11v.51h-2.54V62.2h2.38v.5h-2.38v1.46h2.64v.51Z" transform="translate(0 -0.78)" style="fill:#231f20"/><path d="M175,64.67V60.38h1.9a2.53,2.53,0,0,1,.87.12,1,1,0,0,1,.48.41,1.22,1.22,0,0,1,.18.65,1.08,1.08,0,0,1-.3.77,1.5,1.5,0,0,1-.91.4,1.47,1.47,0,0,1,.34.21,3,3,0,0,1,.47.57l.75,1.17H178l-.57-.89q-.25-.39-.41-.59a1.31,1.31,0,0,0-.29-.29.87.87,0,0,0-.26-.11l-.32,0h-.66v1.91Zm.57-2.4h1.22a1.83,1.83,0,0,0,.61-.08.65.65,0,0,0,.33-.26.7.7,0,0,0,.11-.39.64.64,0,0,0-.22-.5,1,1,0,0,0-.7-.2h-1.36Z" transform="translate(0 -0.78)" style="fill:#231f20"/><path d="M179.28,64.67V60.38h.86l1,3,.21.64.23-.69,1-3h.76v4.29h-.55V61.08l-1.25,3.59h-.51L179.83,61v3.66Z" transform="translate(0 -0.78)" style="fill:#231f20"/><path d="M184.39,64.67V60.38H185v4.29Z" transform="translate(0 -0.78)" style="fill:#231f20"/><path d="M186,64.67V60.38h.58l2.26,3.37V60.38h.54v4.29h-.58L186.5,61.3v3.38Z" transform="translate(0 -0.78)" style="fill:#231f20"/><path d="M189.82,64.67l1.65-4.29h.61l1.76,4.29h-.65l-.5-1.3h-1.8l-.47,1.3Zm1.24-1.76h1.46l-.45-1.19q-.21-.54-.3-.89a5.48,5.48,0,0,1-.23.82Z" transform="translate(0 -0.78)" style="fill:#231f20"/><path d="M194.95,64.67V60.88h-1.42v-.51h3.4v.51h-1.42v3.79Z" transform="translate(0 -0.78)" style="fill:#231f20"/><path d="M197.61,64.67V60.38h.57v4.29Z" transform="translate(0 -0.78)" style="fill:#231f20"/><path d="M199,62.58a2.34,2.34,0,0,1,.57-1.67,2,2,0,0,1,1.48-.6,2.06,2.06,0,0,1,1.07.28,1.86,1.86,0,0,1,.73.79,2.58,2.58,0,0,1,.25,1.15,2.53,2.53,0,0,1-.26,1.17,1.79,1.79,0,0,1-.75.78,2.12,2.12,0,0,1-1,.27,2,2,0,0,1-1.08-.29,1.89,1.89,0,0,1-.72-.8A2.42,2.42,0,0,1,199,62.58Zm.59,0a1.71,1.71,0,0,0,.42,1.22,1.46,1.46,0,0,0,2.1,0,1.83,1.83,0,0,0,.41-1.28,2.19,2.19,0,0,0-.18-.92,1.37,1.37,0,0,0-.52-.61,1.42,1.42,0,0,0-.77-.21,1.45,1.45,0,0,0-1,.41A1.85,1.85,0,0,0,199.6,62.59Z" transform="translate(0 -0.78)" style="fill:#231f20"/><path d="M203.85,64.67V60.38h.58l2.26,3.37V60.38h.54v4.29h-.58l-2.26-3.37v3.38Z" transform="translate(0 -0.78)" style="fill:#231f20"/><path d="M133.18,71.17V66.88h1.62a3.91,3.91,0,0,1,.65,0,1.31,1.31,0,0,1,.53.2,1.07,1.07,0,0,1,.34.42,1.4,1.4,0,0,1-.22,1.51,1.67,1.67,0,0,1-1.26.38h-1.1v1.75Zm.57-2.25h1.11a1.18,1.18,0,0,0,.78-.21.73.73,0,0,0,.23-.58.79.79,0,0,0-.14-.46.65.65,0,0,0-.36-.25,2.43,2.43,0,0,0-.53,0h-1.1Z" transform="translate(0 -0.78)" style="fill:#231f20"/><path d="M137,69.08a2.34,2.34,0,0,1,.57-1.67,2,2,0,0,1,1.48-.6,2.06,2.06,0,0,1,1.07.28,1.85,1.85,0,0,1,.73.79,2.56,2.56,0,0,1,.25,1.15,2.53,2.53,0,0,1-.26,1.17,1.79,1.79,0,0,1-.75.78,2.12,2.12,0,0,1-1,.27A2,2,0,0,1,138,71a1.89,1.89,0,0,1-.72-.8A2.42,2.42,0,0,1,137,69.08Zm.59,0a1.72,1.72,0,0,0,.42,1.22,1.46,1.46,0,0,0,2.1,0,1.82,1.82,0,0,0,.42-1.28,2.21,2.21,0,0,0-.18-.92,1.37,1.37,0,0,0-.52-.61,1.41,1.41,0,0,0-.77-.21,1.46,1.46,0,0,0-1,.41A1.86,1.86,0,0,0,137.6,69.09Z" transform="translate(0 -0.78)" style="fill:#231f20"/><path d="M141.95,71.17V66.88h.57v4.29Z" transform="translate(0 -0.78)" style="fill:#231f20"/><path d="M143.51,71.17V66.88h.58l2.26,3.37V66.88h.54v4.29h-.58l-2.26-3.37v3.38Z" transform="translate(0 -0.78)" style="fill:#231f20"/><path d="M148.94,71.17V67.38h-1.42v-.51h3.4v.51h-1.42v3.79Z" transform="translate(0 -0.78)" style="fill:#231f20"/><path d="M151.53,71.17V66.88h3.11v.51H152.1V68.7h2.38v.5H152.1v1.46h2.64v.51Z" transform="translate(0 -0.78)" style="fill:#231f20"/><path d="M155.52,71.17V66.88H157a3.59,3.59,0,0,1,.76.06,1.45,1.45,0,0,1,.63.31,1.76,1.76,0,0,1,.51.73,2.91,2.91,0,0,1,.17,1,3,3,0,0,1-.11.87,2.09,2.09,0,0,1-.29.63,1.55,1.55,0,0,1-.39.39,1.6,1.6,0,0,1-.51.21,2.94,2.94,0,0,1-.69.07Zm.57-.51H157a2.23,2.23,0,0,0,.67-.08,1,1,0,0,0,.38-.22,1.35,1.35,0,0,0,.31-.54,2.65,2.65,0,0,0,.11-.83,2,2,0,0,0-.22-1,1.12,1.12,0,0,0-.54-.48,2.22,2.22,0,0,0-.74-.09h-.9Z" transform="translate(0 -0.78)" style="fill:#231f20"/><path d="M161.52,71.17V66.88H163a3.59,3.59,0,0,1,.76.06,1.45,1.45,0,0,1,.63.31,1.76,1.76,0,0,1,.51.73,2.91,2.91,0,0,1,.17,1,3,3,0,0,1-.11.87,2.09,2.09,0,0,1-.29.63,1.55,1.55,0,0,1-.39.39,1.6,1.6,0,0,1-.51.21,2.94,2.94,0,0,1-.69.07Zm.57-.51H163a2.23,2.23,0,0,0,.67-.08,1,1,0,0,0,.38-.22,1.35,1.35,0,0,0,.31-.54,2.65,2.65,0,0,0,.11-.83,2,2,0,0,0-.22-1,1.12,1.12,0,0,0-.54-.48,2.22,2.22,0,0,0-.74-.09h-.9Z" transform="translate(0 -0.78)" style="fill:#231f20"/><path d="M165.68,69.08a2.34,2.34,0,0,1,.57-1.67,2,2,0,0,1,1.48-.6,2.06,2.06,0,0,1,1.07.28,1.86,1.86,0,0,1,.73.79,2.58,2.58,0,0,1,.25,1.15,2.53,2.53,0,0,1-.26,1.17,1.79,1.79,0,0,1-.75.78,2.12,2.12,0,0,1-1,.27,2,2,0,0,1-1.08-.29,1.89,1.89,0,0,1-.72-.8A2.42,2.42,0,0,1,165.68,69.08Zm.59,0a1.71,1.71,0,0,0,.42,1.22,1.46,1.46,0,0,0,2.1,0A1.83,1.83,0,0,0,169.2,69a2.19,2.19,0,0,0-.18-.92,1.37,1.37,0,0,0-.52-.61,1.42,1.42,0,0,0-.77-.21,1.45,1.45,0,0,0-1,.41A1.85,1.85,0,0,0,166.26,69.09Z" transform="translate(0 -0.78)" style="fill:#231f20"/><path d="M171.27,71.17l-1.14-4.29h.58l.65,2.82q.11.44.18.88l.19-.79.82-2.9h.69l.62,2.17a11.52,11.52,0,0,1,.33,1.52q.08-.41.21-.93l.67-2.76h.57l-1.18,4.29h-.55L173,67.9q-.11-.41-.13-.5-.07.3-.13.5l-.91,3.27Z" transform="translate(0 -0.78)" style="fill:#231f20"/><path d="M176.17,71.17V66.88h.58L179,70.25V66.88h.54v4.29H179l-2.26-3.37v3.38Z" transform="translate(0 -0.78)" style="fill:#231f20"/><path d="M134.27,77.67V73.88h-1.42v-.51h3.4v.51h-1.42v3.79Z" transform="translate(0 -0.78)" style="fill:#231f20"/><path d="M136.57,75.58a2.34,2.34,0,0,1,.57-1.67,2,2,0,0,1,1.48-.6,2.06,2.06,0,0,1,1.07.28,1.85,1.85,0,0,1,.73.79,2.56,2.56,0,0,1,.25,1.15,2.53,2.53,0,0,1-.26,1.17,1.79,1.79,0,0,1-.75.78,2.12,2.12,0,0,1-1,.27,2,2,0,0,1-1.08-.29,1.89,1.89,0,0,1-.72-.8A2.42,2.42,0,0,1,136.57,75.58Zm.59,0a1.72,1.72,0,0,0,.42,1.22,1.46,1.46,0,0,0,2.1,0,1.82,1.82,0,0,0,.42-1.28,2.21,2.21,0,0,0-.18-.92,1.37,1.37,0,0,0-.52-.61,1.41,1.41,0,0,0-.77-.21,1.46,1.46,0,0,0-1,.41A1.86,1.86,0,0,0,137.15,75.59Z" transform="translate(0 -0.78)" style="fill:#231f20"/><path d="M142.16,77.67,141,73.38h.58l.65,2.82q.11.44.18.88l.19-.79.82-2.9h.69l.62,2.17a11.52,11.52,0,0,1,.33,1.52q.08-.41.21-.93l.67-2.76h.57l-1.18,4.29h-.55l-.91-3.27q-.11-.41-.13-.5-.07.3-.13.5l-.91,3.27Z" transform="translate(0 -0.78)" style="fill:#231f20"/><path d="M146.37,77.67,148,73.38h.61l1.76,4.29h-.65l-.5-1.3h-1.8l-.47,1.3Zm1.24-1.76h1.46l-.45-1.19q-.21-.54-.3-.89a5.48,5.48,0,0,1-.23.82Z" transform="translate(0 -0.78)" style="fill:#231f20"/><path d="M150.86,77.67V73.38h1.9a2.53,2.53,0,0,1,.87.12,1,1,0,0,1,.48.41,1.22,1.22,0,0,1,.18.65,1.08,1.08,0,0,1-.3.77,1.5,1.5,0,0,1-.91.4,1.47,1.47,0,0,1,.34.21,3,3,0,0,1,.47.57l.75,1.17h-.71l-.57-.89q-.25-.39-.41-.59a1.31,1.31,0,0,0-.29-.29.87.87,0,0,0-.26-.11l-.32,0h-.66v1.91Zm.57-2.4h1.22a1.83,1.83,0,0,0,.61-.08.65.65,0,0,0,.33-.26.7.7,0,0,0,.11-.39.64.64,0,0,0-.22-.5,1,1,0,0,0-.7-.2h-1.36Z" transform="translate(0 -0.78)" style="fill:#231f20"/><path d="M155.18,77.67V73.38h1.48a3.59,3.59,0,0,1,.76.06,1.45,1.45,0,0,1,.63.31,1.75,1.75,0,0,1,.51.73,2.89,2.89,0,0,1,.17,1,3,3,0,0,1-.11.87,2.09,2.09,0,0,1-.29.63,1.56,1.56,0,0,1-.39.39,1.61,1.61,0,0,1-.51.21,2.92,2.92,0,0,1-.69.07Zm.57-.51h.92a2.22,2.22,0,0,0,.67-.08,1,1,0,0,0,.39-.22,1.36,1.36,0,0,0,.32-.54,2.68,2.68,0,0,0,.11-.83,2,2,0,0,0-.22-1,1.12,1.12,0,0,0-.54-.48,2.22,2.22,0,0,0-.74-.09h-.9Z" transform="translate(0 -0.78)" style="fill:#231f20"/><path d="M159.32,76.29l.54,0a1.19,1.19,0,0,0,.18.53,1,1,0,0,0,.43.33,1.65,1.65,0,0,0,.66.13,1.58,1.58,0,0,0,.57-.1.8.8,0,0,0,.37-.26.62.62,0,0,0,.12-.37.56.56,0,0,0-.12-.35.87.87,0,0,0-.39-.25,7.61,7.61,0,0,0-.76-.21,3.9,3.9,0,0,1-.83-.27,1.16,1.16,0,0,1-.46-.4,1,1,0,0,1-.15-.54,1.09,1.09,0,0,1,.18-.61,1.14,1.14,0,0,1,.54-.43,2,2,0,0,1,.79-.15,2.13,2.13,0,0,1,.84.15,1.2,1.2,0,0,1,.56.45,1.3,1.3,0,0,1,.21.68l-.54,0a.88.88,0,0,0-.3-.62,1.16,1.16,0,0,0-.75-.21,1.21,1.21,0,0,0-.75.19.57.57,0,0,0-.24.46.49.49,0,0,0,.17.38,2.24,2.24,0,0,0,.86.31,5.77,5.77,0,0,1,1,.27,1.3,1.3,0,0,1,.55.44,1.07,1.07,0,0,1,.18.61,1.16,1.16,0,0,1-.2.65,1.29,1.29,0,0,1-.56.47,2,2,0,0,1-.83.17,2.47,2.47,0,0,1-1-.17,1.36,1.36,0,0,1-.62-.51A1.44,1.44,0,0,1,159.32,76.29Z" transform="translate(0 -0.78)" style="fill:#231f20"/><path d="M166.17,77.67V73.88h-1.42v-.51h3.4v.51h-1.42v3.79Z" transform="translate(0 -0.78)" style="fill:#231f20"/><path d="M168.76,77.67V73.38h.57v1.76h2.23V73.38h.57v4.29h-.57v-2h-2.23v2Z" transform="translate(0 -0.78)" style="fill:#231f20"/><path d="M173.08,77.67V73.38h3.11v.51h-2.54V75.2H176v.5h-2.38v1.46h2.64v.51Z" transform="translate(0 -0.78)" style="fill:#231f20"/><path d="M180.75,76v-.5h1.82v1.59a3.21,3.21,0,0,1-.86.5,2.58,2.58,0,0,1-.91.17,2.42,2.42,0,0,1-1.15-.27,1.78,1.78,0,0,1-.78-.78,2.47,2.47,0,0,1-.26-1.15,2.66,2.66,0,0,1,.26-1.17,1.75,1.75,0,0,1,.75-.81,2.36,2.36,0,0,1,1.13-.26,2.26,2.26,0,0,1,.84.15,1.41,1.41,0,0,1,.59.42,1.86,1.86,0,0,1,.33.7l-.51.14a1.59,1.59,0,0,0-.24-.52,1,1,0,0,0-.41-.3,1.5,1.5,0,0,0-.59-.11,1.72,1.72,0,0,0-.67.12,1.23,1.23,0,0,0-.46.31,1.47,1.47,0,0,0-.27.42,2.25,2.25,0,0,0-.16.86,2.11,2.11,0,0,0,.2,1A1.27,1.27,0,0,0,180,77a1.78,1.78,0,0,0,.8.19,1.91,1.91,0,0,0,.72-.14,1.86,1.86,0,0,0,.53-.3V76Z" transform="translate(0 -0.78)" style="fill:#231f20"/><path d="M183.42,77.67V73.38h1.9a2.53,2.53,0,0,1,.87.12,1,1,0,0,1,.48.41,1.22,1.22,0,0,1,.18.65,1.08,1.08,0,0,1-.3.77,1.5,1.5,0,0,1-.91.4,1.47,1.47,0,0,1,.34.21,3,3,0,0,1,.47.57l.75,1.17h-.71l-.57-.89q-.25-.39-.41-.59a1.31,1.31,0,0,0-.29-.29.87.87,0,0,0-.26-.11l-.32,0H184v1.91Zm.57-2.4h1.22a1.83,1.83,0,0,0,.61-.08.65.65,0,0,0,.33-.26.7.7,0,0,0,.11-.39A.64.64,0,0,0,186,74a1,1,0,0,0-.7-.2H184Z" transform="translate(0 -0.78)" style="fill:#231f20"/><path d="M187.57,75.58a2.34,2.34,0,0,1,.57-1.67,2,2,0,0,1,1.48-.6,2.06,2.06,0,0,1,1.07.28,1.86,1.86,0,0,1,.73.79,2.58,2.58,0,0,1,.25,1.15,2.53,2.53,0,0,1-.26,1.17,1.79,1.79,0,0,1-.75.78,2.12,2.12,0,0,1-1,.27,2,2,0,0,1-1.08-.29,1.89,1.89,0,0,1-.72-.8A2.42,2.42,0,0,1,187.57,75.58Zm.59,0a1.71,1.71,0,0,0,.42,1.22,1.46,1.46,0,0,0,2.1,0,1.83,1.83,0,0,0,.41-1.28,2.19,2.19,0,0,0-.18-.92,1.37,1.37,0,0,0-.52-.61,1.42,1.42,0,0,0-.77-.21,1.45,1.45,0,0,0-1,.41A1.85,1.85,0,0,0,188.15,75.59Z" transform="translate(0 -0.78)" style="fill:#231f20"/><path d="M195.23,73.38h.57v2.48a2.94,2.94,0,0,1-.15,1,1.25,1.25,0,0,1-.53.62,1.87,1.87,0,0,1-1,.24,2.06,2.06,0,0,1-1-.21,1.18,1.18,0,0,1-.55-.6,2.86,2.86,0,0,1-.16-1.08V73.38H193v2.48a2.39,2.39,0,0,0,.1.83.78.78,0,0,0,.36.41,1.24,1.24,0,0,0,.62.14,1.18,1.18,0,0,0,.89-.28,1.64,1.64,0,0,0,.27-1.09Z" transform="translate(0 -0.78)" style="fill:#231f20"/><path d="M196.74,77.67V73.38h.58l2.26,3.37V73.38h.54v4.29h-.58l-2.26-3.37v3.38Z" transform="translate(0 -0.78)" style="fill:#231f20"/><path d="M201.07,77.67V73.38h1.48a3.59,3.59,0,0,1,.76.06,1.45,1.45,0,0,1,.63.31,1.76,1.76,0,0,1,.51.73,2.91,2.91,0,0,1,.17,1,3,3,0,0,1-.11.87,2.09,2.09,0,0,1-.29.63,1.55,1.55,0,0,1-.39.39,1.6,1.6,0,0,1-.51.21,2.94,2.94,0,0,1-.69.07Zm.57-.51h.92a2.23,2.23,0,0,0,.67-.08,1,1,0,0,0,.38-.22,1.35,1.35,0,0,0,.31-.54,2.65,2.65,0,0,0,.11-.83,2,2,0,0,0-.22-1,1.12,1.12,0,0,0-.54-.48,2.22,2.22,0,0,0-.74-.09h-.9Z" transform="translate(0 -0.78)" style="fill:#231f20"/><path d="M121,6.17V1.88h.57V6.17Z" transform="translate(0 -0.78)" style="fill:#231f20"/><path d="M122.54,6.17V1.88h.58l2.26,3.37V1.88h.54V6.17h-.58L123.09,2.8V6.17Z" transform="translate(0 -0.78)" style="fill:#231f20"/><path d="M129.95,4.67l.57.14a1.92,1.92,0,0,1-.64,1.07,1.78,1.78,0,0,1-1.14.37A2,2,0,0,1,127.61,6a1.77,1.77,0,0,1-.66-.82A2.92,2.92,0,0,1,126.72,4,2.53,2.53,0,0,1,127,2.82a1.75,1.75,0,0,1,.73-.76,2.13,2.13,0,0,1,1-.26,1.76,1.76,0,0,1,1.08.33,1.7,1.7,0,0,1,.61.92l-.56.13a1.33,1.33,0,0,0-.43-.68,1.16,1.16,0,0,0-.71-.21,1.39,1.39,0,0,0-.83.24,1.25,1.25,0,0,0-.47.64,2.57,2.57,0,0,0-.13.82,2.6,2.6,0,0,0,.16,1,1.18,1.18,0,0,0,.5.61,1.39,1.39,0,0,0,.73.2,1.22,1.22,0,0,0,.81-.28A1.41,1.41,0,0,0,129.95,4.67Z" transform="translate(0 -0.78)" style="fill:#231f20"/><path d="M131.22,6.17V1.88h1.9A2.53,2.53,0,0,1,134,2a1,1,0,0,1,.48.41,1.22,1.22,0,0,1,.18.65,1.08,1.08,0,0,1-.3.77,1.5,1.5,0,0,1-.91.4,1.47,1.47,0,0,1,.34.21,3,3,0,0,1,.47.57L135,6.17h-.71l-.57-.89q-.25-.39-.41-.59A1.31,1.31,0,0,0,133,4.4a.87.87,0,0,0-.26-.11l-.32,0h-.66V6.17Zm.57-2.4H133a1.83,1.83,0,0,0,.61-.08.65.65,0,0,0,.33-.26.7.7,0,0,0,.11-.39.64.64,0,0,0-.22-.5,1,1,0,0,0-.7-.2h-1.36Z" transform="translate(0 -0.78)" style="fill:#231f20"/><path d="M135.56,6.17V1.88h3.11v.51h-2.54V3.7h2.38v.5h-2.38V5.66h2.64v.51Z" transform="translate(0 -0.78)" style="fill:#231f20"/><path d="M139.08,6.17l1.65-4.29h.61l1.76,4.29h-.65l-.5-1.3h-1.8l-.47,1.3Zm1.24-1.76h1.46l-.45-1.19q-.21-.54-.3-.89a5.48,5.48,0,0,1-.23.82Z" transform="translate(0 -0.78)" style="fill:#231f20"/><path d="M143.36,4.79l.54,0a1.18,1.18,0,0,0,.18.53,1,1,0,0,0,.43.33,1.64,1.64,0,0,0,.66.13,1.58,1.58,0,0,0,.57-.1.8.8,0,0,0,.37-.27.62.62,0,0,0,.12-.37.56.56,0,0,0-.12-.35.87.87,0,0,0-.39-.25,7.56,7.56,0,0,0-.76-.21,3.91,3.91,0,0,1-.83-.27,1.16,1.16,0,0,1-.46-.4,1,1,0,0,1-.15-.53,1.09,1.09,0,0,1,.18-.61,1.14,1.14,0,0,1,.54-.43A2,2,0,0,1,145,1.8a2.15,2.15,0,0,1,.84.15,1.21,1.21,0,0,1,.56.45,1.3,1.3,0,0,1,.21.68l-.54,0a.88.88,0,0,0-.3-.62,1.16,1.16,0,0,0-.75-.21,1.2,1.2,0,0,0-.75.19.57.57,0,0,0-.24.46.49.49,0,0,0,.17.38,2.26,2.26,0,0,0,.86.31,5.69,5.69,0,0,1,1,.27,1.3,1.3,0,0,1,.55.44,1.07,1.07,0,0,1,.18.61,1.17,1.17,0,0,1-.2.65,1.29,1.29,0,0,1-.56.47,2,2,0,0,1-.83.17,2.47,2.47,0,0,1-1-.17,1.36,1.36,0,0,1-.62-.51A1.44,1.44,0,0,1,143.36,4.79Z" transform="translate(0 -0.78)" style="fill:#231f20"/><path d="M147.57,6.17V1.88h3.11v.51h-2.54V3.7h2.38v.5h-2.38V5.66h2.64v.51Z" transform="translate(0 -0.78)" style="fill:#231f20"/><path d="M153.23,6.17V1.88h3.11v.51H153.8V3.7h2.38v.5H153.8V5.66h2.64v.51Z" transform="translate(0 -0.78)" style="fill:#231f20"/><path d="M156.79,6.17l1.66-2.24L157,1.88h.68l.78,1.1a6.27,6.27,0,0,1,.35.53,5.61,5.61,0,0,1,.34-.49L160,1.88h.62l-1.51,2,1.63,2.27H160l-1.08-1.53-.19-.29-.21.32-1.08,1.5Z" transform="translate(0 -0.78)" style="fill:#231f20"/><path d="M161.23,6.17V1.88h1.62a3.91,3.91,0,0,1,.65,0,1.29,1.29,0,0,1,.53.2,1.06,1.06,0,0,1,.34.41,1.33,1.33,0,0,1,.13.59,1.32,1.32,0,0,1-.35.93,1.67,1.67,0,0,1-1.26.38h-1.1V6.17Zm.57-2.25h1.11a1.18,1.18,0,0,0,.78-.21.73.73,0,0,0,.23-.58.78.78,0,0,0-.14-.46.64.64,0,0,0-.36-.25,2.43,2.43,0,0,0-.53,0h-1.1Z" transform="translate(0 -0.78)" style="fill:#231f20"/><path d="M165.06,4.08a2.33,2.33,0,0,1,.57-1.67,2,2,0,0,1,1.48-.6,2.06,2.06,0,0,1,1.07.28,1.85,1.85,0,0,1,.73.79A2.56,2.56,0,0,1,169.16,4a2.53,2.53,0,0,1-.26,1.17,1.8,1.8,0,0,1-.75.78,2.13,2.13,0,0,1-1,.27A2,2,0,0,1,166,6a1.89,1.89,0,0,1-.72-.8A2.42,2.42,0,0,1,165.06,4.08Zm.59,0a1.72,1.72,0,0,0,.42,1.22,1.46,1.46,0,0,0,2.1,0A1.82,1.82,0,0,0,168.58,4a2.22,2.22,0,0,0-.18-.92,1.37,1.37,0,0,0-.52-.61,1.4,1.4,0,0,0-.77-.22,1.46,1.46,0,0,0-1,.41A1.86,1.86,0,0,0,165.64,4.09Z" transform="translate(0 -0.78)" style="fill:#231f20"/><path d="M169.7,4.79l.54,0a1.18,1.18,0,0,0,.18.53,1,1,0,0,0,.43.33,1.64,1.64,0,0,0,.66.13,1.58,1.58,0,0,0,.57-.1.8.8,0,0,0,.37-.27.62.62,0,0,0,.12-.37.56.56,0,0,0-.12-.35.87.87,0,0,0-.39-.25,7.56,7.56,0,0,0-.76-.21,3.91,3.91,0,0,1-.83-.27,1.16,1.16,0,0,1-.46-.4,1,1,0,0,1-.15-.53,1.09,1.09,0,0,1,.18-.61,1.14,1.14,0,0,1,.54-.43,2,2,0,0,1,.79-.15,2.15,2.15,0,0,1,.84.15,1.21,1.21,0,0,1,.56.45,1.3,1.3,0,0,1,.21.68l-.54,0a.88.88,0,0,0-.3-.62,1.16,1.16,0,0,0-.75-.21,1.2,1.2,0,0,0-.75.19.57.57,0,0,0-.24.46.49.49,0,0,0,.17.38,2.26,2.26,0,0,0,.86.31,5.69,5.69,0,0,1,1,.27,1.3,1.3,0,0,1,.55.44,1.07,1.07,0,0,1,.18.61,1.17,1.17,0,0,1-.2.65,1.29,1.29,0,0,1-.56.47,2,2,0,0,1-.83.17,2.47,2.47,0,0,1-1-.17,1.36,1.36,0,0,1-.62-.51A1.44,1.44,0,0,1,169.7,4.79Z" transform="translate(0 -0.78)" style="fill:#231f20"/><path d="M173.91,6.17V1.88H177v.51h-2.54V3.7h2.38v.5h-2.38V5.66h2.64v.51Z" transform="translate(0 -0.78)" style="fill:#231f20"/><path d="M177.9,6.17V1.88h1.48a3.59,3.59,0,0,1,.76.06,1.45,1.45,0,0,1,.63.31,1.76,1.76,0,0,1,.51.73,2.9,2.9,0,0,1,.17,1,3,3,0,0,1-.11.87,2.1,2.1,0,0,1-.29.63,1.56,1.56,0,0,1-.39.39,1.6,1.6,0,0,1-.51.22,2.94,2.94,0,0,1-.69.07Zm.57-.51h.92a2.23,2.23,0,0,0,.67-.08,1,1,0,0,0,.38-.22,1.35,1.35,0,0,0,.31-.54,2.66,2.66,0,0,0,.11-.83,2,2,0,0,0-.22-1,1.12,1.12,0,0,0-.54-.48,2.22,2.22,0,0,0-.74-.09h-.9Z" transform="translate(0 -0.78)" style="fill:#231f20"/><path d="M185.13,6.17l-1.66-4.29h.62L185.19,5q.13.38.23.7.1-.35.23-.7l1.16-3.12h.58l-1.68,4.29Z" transform="translate(0 -0.78)" style="fill:#231f20"/><path d="M187.91,6.17V1.88H191v.51h-2.54V3.7h2.38v.5h-2.38V5.66h2.64v.51Z" transform="translate(0 -0.78)" style="fill:#231f20"/><path d="M191.9,6.17V1.88h.58l2.26,3.37V1.88h.54V6.17h-.58L192.44,2.8V6.17Z" transform="translate(0 -0.78)" style="fill:#231f20"/><path d="M197.33,6.17V2.38h-1.42V1.88h3.4v.51H197.9V6.17Z" transform="translate(0 -0.78)" style="fill:#231f20"/><path d="M120.88,13.37V9.08h1.62a3.91,3.91,0,0,1,.65,0,1.29,1.29,0,0,1,.53.2,1.06,1.06,0,0,1,.34.41,1.4,1.4,0,0,1-.22,1.51,1.67,1.67,0,0,1-1.26.38h-1.1v1.75Zm.57-2.25h1.11a1.18,1.18,0,0,0,.78-.21.73.73,0,0,0,.23-.58.78.78,0,0,0-.14-.46.64.64,0,0,0-.36-.25,2.43,2.43,0,0,0-.53,0h-1.1Z" transform="translate(0 -0.78)" style="fill:#231f20"/><path d="M125,13.37V9.08h.57v4.29Z" transform="translate(0 -0.78)" style="fill:#231f20"/><path d="M126.55,13.37V9.08h1.62a3.91,3.91,0,0,1,.65,0,1.29,1.29,0,0,1,.53.2,1.06,1.06,0,0,1,.34.41,1.4,1.4,0,0,1-.22,1.51,1.67,1.67,0,0,1-1.26.38h-1.1v1.75Zm.57-2.25h1.11a1.18,1.18,0,0,0,.78-.21.73.73,0,0,0,.23-.58.78.78,0,0,0-.14-.46.64.64,0,0,0-.36-.25,2.43,2.43,0,0,0-.53,0h-1.1Z" transform="translate(0 -0.78)" style="fill:#231f20"/><path d="M130.65,13.37V9.08h.57v4.29Z" transform="translate(0 -0.78)" style="fill:#231f20"/><path d="M132.21,13.37V9.08h.58l2.26,3.37V9.08h.54v4.29H135L132.76,10v3.38Z" transform="translate(0 -0.78)" style="fill:#231f20"/><path d="M138.56,11.69v-.5h1.82v1.59a3.21,3.21,0,0,1-.86.5,2.56,2.56,0,0,1-.91.17,2.44,2.44,0,0,1-1.15-.27,1.79,1.79,0,0,1-.78-.78,2.47,2.47,0,0,1-.26-1.15,2.65,2.65,0,0,1,.26-1.17,1.74,1.74,0,0,1,.75-.81A2.36,2.36,0,0,1,138.56,9a2.25,2.25,0,0,1,.84.15,1.4,1.4,0,0,1,.59.42,1.86,1.86,0,0,1,.33.7l-.51.14a1.59,1.59,0,0,0-.24-.52,1,1,0,0,0-.41-.3,1.5,1.5,0,0,0-.59-.11,1.74,1.74,0,0,0-.67.12,1.26,1.26,0,0,0-.46.31,1.49,1.49,0,0,0-.27.42,2.25,2.25,0,0,0-.16.86,2.08,2.08,0,0,0,.2,1,1.26,1.26,0,0,0,.58.57,1.78,1.78,0,0,0,.8.19,1.91,1.91,0,0,0,.72-.14,1.86,1.86,0,0,0,.53-.3v-.8Z" transform="translate(0 -0.78)" style="fill:#231f20"/><path d="M145.71,9.08h.57v2.48a2.94,2.94,0,0,1-.15,1,1.25,1.25,0,0,1-.53.62,1.87,1.87,0,0,1-1,.24,2.06,2.06,0,0,1-1-.21,1.19,1.19,0,0,1-.55-.6,2.87,2.87,0,0,1-.16-1.08V9.08h.57v2.48a2.39,2.39,0,0,0,.1.82.78.78,0,0,0,.36.41,1.24,1.24,0,0,0,.62.14,1.18,1.18,0,0,0,.89-.28,1.64,1.64,0,0,0,.27-1.09Z" transform="translate(0 -0.78)" style="fill:#231f20"/><path d="M147.22,13.37V9.08h1.62a3.91,3.91,0,0,1,.65,0,1.29,1.29,0,0,1,.53.2,1.06,1.06,0,0,1,.34.41,1.4,1.4,0,0,1-.22,1.51,1.67,1.67,0,0,1-1.26.38h-1.1v1.75Zm.57-2.25h1.11a1.18,1.18,0,0,0,.78-.21.73.73,0,0,0,.23-.58.78.78,0,0,0-.14-.46.64.64,0,0,0-.36-.25,2.43,2.43,0,0,0-.53,0h-1.1Z" transform="translate(0 -0.78)" style="fill:#231f20"/><path d="M153.76,13.37V9.58h-1.42V9.08h3.4v.51h-1.42v3.79Z" transform="translate(0 -0.78)" style="fill:#231f20"/><path d="M156.06,11.28a2.33,2.33,0,0,1,.57-1.67,2,2,0,0,1,1.48-.6,2.06,2.06,0,0,1,1.07.28,1.85,1.85,0,0,1,.73.79,2.56,2.56,0,0,1,.25,1.15,2.53,2.53,0,0,1-.26,1.17,1.8,1.8,0,0,1-.75.78,2.13,2.13,0,0,1-1,.27,2,2,0,0,1-1.08-.29,1.89,1.89,0,0,1-.72-.8A2.42,2.42,0,0,1,156.06,11.28Zm.59,0a1.72,1.72,0,0,0,.42,1.22,1.46,1.46,0,0,0,2.1,0,1.82,1.82,0,0,0,.42-1.28,2.22,2.22,0,0,0-.18-.92,1.37,1.37,0,0,0-.52-.61,1.4,1.4,0,0,0-.77-.22,1.46,1.46,0,0,0-1,.41A1.86,1.86,0,0,0,156.64,11.29Z" transform="translate(0 -0.78)" style="fill:#231f20"/><path d="M161.76,13.37l1.65-4.29H164l1.76,4.29h-.65l-.5-1.3h-1.8l-.47,1.3ZM163,11.61h1.46L164,10.42q-.21-.54-.3-.89a5.48,5.48,0,0,1-.23.82Z" transform="translate(0 -0.78)" style="fill:#231f20"/><path d="M167.55,13.37V9.08h.86l1,3,.21.64.23-.69,1-3h.76v4.29h-.55V9.78l-1.25,3.59h-.51L168.1,9.71v3.66Z" transform="translate(0 -0.78)" style="fill:#231f20"/><path d="M172.1,13.37l1.65-4.29h.61l1.76,4.29h-.65l-.5-1.3h-1.8l-.47,1.3Zm1.24-1.76h1.46l-.45-1.19q-.21-.54-.3-.89a5.48,5.48,0,0,1-.23.82Z" transform="translate(0 -0.78)" style="fill:#231f20"/><path d="M176.13,13.37l1.66-2.24-1.46-2.06H177l.78,1.1a6.27,6.27,0,0,1,.35.53,5.61,5.61,0,0,1,.34-.49l.86-1.14H180l-1.51,2,1.63,2.27h-.7l-1.08-1.53-.19-.29-.21.32-1.08,1.5Z" transform="translate(0 -0.78)" style="fill:#231f20"/><path d="M180.67,13.37V9.08h.57v4.29Z" transform="translate(0 -0.78)" style="fill:#231f20"/><path d="M182.22,13.37V9.08h.86l1,3,.21.64.23-.69,1-3h.76v4.29h-.55V9.78l-1.25,3.59H184l-1.24-3.66v3.66Z" transform="translate(0 -0.78)" style="fill:#231f20"/><path d="M190.05,9.08h.57v2.48a2.94,2.94,0,0,1-.15,1,1.25,1.25,0,0,1-.53.62,1.87,1.87,0,0,1-1,.24,2.06,2.06,0,0,1-1-.21,1.19,1.19,0,0,1-.55-.6,2.87,2.87,0,0,1-.16-1.08V9.08h.57v2.48a2.39,2.39,0,0,0,.1.82.78.78,0,0,0,.36.41,1.24,1.24,0,0,0,.62.14,1.18,1.18,0,0,0,.89-.28,1.64,1.64,0,0,0,.27-1.09Z" transform="translate(0 -0.78)" style="fill:#231f20"/><path d="M191.55,13.37V9.08h.86l1,3,.21.64.23-.69,1-3h.76v4.29h-.55V9.78l-1.25,3.59h-.51L192.1,9.71v3.66Z" transform="translate(0 -0.78)" style="fill:#231f20"/><path d="M120.71,18.48a2.33,2.33,0,0,1,.57-1.67,2,2,0,0,1,1.48-.6,2.06,2.06,0,0,1,1.07.28,1.85,1.85,0,0,1,.73.79,2.56,2.56,0,0,1,.25,1.15,2.53,2.53,0,0,1-.26,1.17,1.8,1.8,0,0,1-.75.78,2.13,2.13,0,0,1-1,.27,2,2,0,0,1-1.08-.29,1.89,1.89,0,0,1-.72-.8A2.42,2.42,0,0,1,120.71,18.48Zm.59,0a1.72,1.72,0,0,0,.42,1.22,1.46,1.46,0,0,0,2.1,0,1.82,1.82,0,0,0,.42-1.28,2.22,2.22,0,0,0-.18-.92,1.37,1.37,0,0,0-.52-.61,1.4,1.4,0,0,0-.77-.22,1.46,1.46,0,0,0-1,.41A1.86,1.86,0,0,0,121.29,18.49Z" transform="translate(0 -0.78)" style="fill:#231f20"/><path d="M125.58,20.57V16.28h2.9v.51h-2.33v1.33h2v.51h-2v2Z" transform="translate(0 -0.78)" style="fill:#231f20"/><path d="M133.4,17.33l-.52,0a1,1,0,0,0-.2-.45.7.7,0,0,0-.53-.23.72.72,0,0,0-.44.14,1.2,1.2,0,0,0-.39.53,2.77,2.77,0,0,0-.15,1,1.22,1.22,0,0,1,.47-.43,1.25,1.25,0,0,1,.58-.14,1.2,1.2,0,0,1,.9.39,1.4,1.4,0,0,1,.37,1,1.65,1.65,0,0,1-.17.75,1.27,1.27,0,0,1-.48.53,1.31,1.31,0,0,1-.69.18,1.35,1.35,0,0,1-1.08-.48,2.45,2.45,0,0,1-.42-1.6,2.86,2.86,0,0,1,.46-1.81,1.32,1.32,0,0,1,1.08-.49,1.15,1.15,0,0,1,1.22,1.07Zm-2.15,1.85a1.22,1.22,0,0,0,.12.52.86.86,0,0,0,.32.38.81.81,0,0,0,.44.13.74.74,0,0,0,.57-.27,1.06,1.06,0,0,0,.24-.73,1,1,0,0,0-.24-.7.78.78,0,0,0-.6-.26.81.81,0,0,0-.61.26A.92.92,0,0,0,131.25,19.18Z" transform="translate(0 -0.78)" style="fill:#231f20"/><path d="M136,20.57V16.28h.57v4.29Z" transform="translate(0 -0.78)" style="fill:#231f20"/><path d="M137.55,20.57V16.28h.58l2.26,3.37V16.28h.54v4.29h-.58l-2.26-3.37v3.38Z" transform="translate(0 -0.78)" style="fill:#231f20"/><path d="M144.95,19.06l.57.14a1.92,1.92,0,0,1-.64,1.07,1.78,1.78,0,0,1-1.14.37,2,2,0,0,1-1.13-.28,1.77,1.77,0,0,1-.66-.82,2.92,2.92,0,0,1-.23-1.15,2.53,2.53,0,0,1,.26-1.17,1.75,1.75,0,0,1,.73-.76,2.13,2.13,0,0,1,1-.26,1.76,1.76,0,0,1,1.08.33,1.7,1.7,0,0,1,.61.92l-.56.13a1.33,1.33,0,0,0-.43-.68,1.16,1.16,0,0,0-.71-.21,1.39,1.39,0,0,0-.83.24,1.25,1.25,0,0,0-.47.64,2.57,2.57,0,0,0-.13.82,2.6,2.6,0,0,0,.16,1,1.18,1.18,0,0,0,.5.61,1.39,1.39,0,0,0,.73.2,1.22,1.22,0,0,0,.81-.28A1.41,1.41,0,0,0,144.95,19.06Z" transform="translate(0 -0.78)" style="fill:#231f20"/><path d="M146.24,20.57V16.28h.57V18H149V16.28h.57v4.29H149v-2H146.8v2Z" transform="translate(0 -0.78)" style="fill:#231f20"/><path d="M150.56,20.57V16.28h3.11v.51h-2.54V18.1h2.38v.5h-2.38v1.46h2.64v.51Z" transform="translate(0 -0.78)" style="fill:#231f20"/><path d="M154.36,19.19l.54,0a1.18,1.18,0,0,0,.18.53,1,1,0,0,0,.43.33,1.64,1.64,0,0,0,.66.13,1.58,1.58,0,0,0,.57-.1.8.8,0,0,0,.37-.27.62.62,0,0,0,.12-.37.56.56,0,0,0-.12-.35.87.87,0,0,0-.39-.25,7.56,7.56,0,0,0-.76-.21,3.91,3.91,0,0,1-.83-.27,1.16,1.16,0,0,1-.46-.4,1,1,0,0,1-.15-.53,1.09,1.09,0,0,1,.18-.61,1.14,1.14,0,0,1,.54-.43,2,2,0,0,1,.79-.15,2.15,2.15,0,0,1,.84.15,1.21,1.21,0,0,1,.56.45,1.3,1.3,0,0,1,.21.68l-.54,0a.88.88,0,0,0-.3-.62,1.16,1.16,0,0,0-.75-.21,1.2,1.2,0,0,0-.75.19.57.57,0,0,0-.24.46.49.49,0,0,0,.17.38,2.26,2.26,0,0,0,.86.31,5.69,5.69,0,0,1,1,.27,1.3,1.3,0,0,1,.55.44,1.07,1.07,0,0,1,.18.61,1.17,1.17,0,0,1-.2.65,1.29,1.29,0,0,1-.56.47,2,2,0,0,1-.83.17,2.47,2.47,0,0,1-1-.17,1.36,1.36,0,0,1-.62-.51A1.44,1.44,0,0,1,154.36,19.19Z" transform="translate(0 -0.78)" style="fill:#231f20"/><path d="M161.16,21.83a5.27,5.27,0,0,1-.74-1.29,4,4,0,0,1-.08-2.87,5.62,5.62,0,0,1,.81-1.48h.38q-.35.61-.47.87a4.75,4.75,0,0,0-.28.84,4.9,4.9,0,0,0-.13,1.1,5.29,5.29,0,0,0,.88,2.82Z" transform="translate(0 -0.78)" style="fill:#231f20"/><path d="M164,20.57h-.53V17.21a2.75,2.75,0,0,1-.5.36,3.59,3.59,0,0,1-.56.27v-.51a3.18,3.18,0,0,0,.77-.5,2,2,0,0,0,.47-.57H164Z" transform="translate(0 -0.78)" style="fill:#231f20"/><path d="M165.34,19.45l.55,0a1,1,0,0,0,.29.61.78.78,0,0,0,.54.2.84.84,0,0,0,.64-.29,1.08,1.08,0,0,0,.26-.76,1,1,0,0,0-.25-.71.88.88,0,0,0-.66-.26.92.92,0,0,0-.46.12.89.89,0,0,0-.32.3l-.5-.06.42-2.21H168v.5h-1.71L166,18a1.4,1.4,0,0,1,.81-.27,1.29,1.29,0,0,1,.95.39,1.36,1.36,0,0,1,.39,1,1.56,1.56,0,0,1-.34,1,1.36,1.36,0,0,1-1.13.52,1.39,1.39,0,0,1-1-.33A1.28,1.28,0,0,1,165.34,19.45Z" transform="translate(0 -0.78)" style="fill:#231f20"/><path d="M169,20.57V20h.6v.6Z" transform="translate(0 -0.78)" style="fill:#231f20"/><path d="M173.12,20.06v.51h-2.84a.93.93,0,0,1,.06-.37,1.94,1.94,0,0,1,.35-.57,5.45,5.45,0,0,1,.69-.65,5.85,5.85,0,0,0,.95-.91,1.09,1.09,0,0,0,.25-.63.7.7,0,0,0-.22-.53.81.81,0,0,0-.58-.22.82.82,0,0,0-.61.23.86.86,0,0,0-.23.63l-.54-.06a1.33,1.33,0,0,1,.42-.92,1.43,1.43,0,0,1,1-.32,1.36,1.36,0,0,1,1,.34,1.13,1.13,0,0,1,.36.85A1.29,1.29,0,0,1,173,18a2,2,0,0,1-.35.52,8.51,8.51,0,0,1-.81.76q-.47.4-.61.54a1.73,1.73,0,0,0-.22.29Z" transform="translate(0 -0.78)" style="fill:#231f20"/><path d="M177.53,19.43l.52.07a1.35,1.35,0,0,1-.43.84,1.27,1.27,0,0,1-.86.3,1.33,1.33,0,0,1-1-.42,1.69,1.69,0,0,1-.39-1.2,2.17,2.17,0,0,1,.17-.88,1.16,1.16,0,0,1,.51-.57,1.5,1.5,0,0,1,.74-.19,1.29,1.29,0,0,1,.83.26,1.18,1.18,0,0,1,.41.73l-.51.08a.86.86,0,0,0-.26-.47.67.67,0,0,0-.45-.16.82.82,0,0,0-.65.29,1.36,1.36,0,0,0-.25.9,1.4,1.4,0,0,0,.24.91.78.78,0,0,0,.63.28.74.74,0,0,0,.52-.19A1,1,0,0,0,177.53,19.43Z" transform="translate(0 -0.78)" style="fill:#231f20"/><path d="M178.5,20.57V17.46H179v.44a1.11,1.11,0,0,1,.39-.37,1.09,1.09,0,0,1,.55-.14,1,1,0,0,1,.57.14.77.77,0,0,1,.31.4,1.12,1.12,0,0,1,1-.54,1,1,0,0,1,.71.26,1.1,1.1,0,0,1,.25.79v2.14h-.52v-2a1.44,1.44,0,0,0-.05-.46.44.44,0,0,0-.19-.22.58.58,0,0,0-.32-.08.74.74,0,0,0-.54.22,1,1,0,0,0-.22.7v1.81h-.53v-2a.89.89,0,0,0-.13-.53.49.49,0,0,0-.42-.18.77.77,0,0,0-.41.12.67.67,0,0,0-.27.34A1.93,1.93,0,0,0,179,19v1.61Z" transform="translate(0 -0.78)" style="fill:#231f20"/><path d="M183.84,21.83h-.38a5.29,5.29,0,0,0,.88-2.82,4.81,4.81,0,0,0-.13-1.09,4.59,4.59,0,0,0-.28-.84,9.9,9.9,0,0,0-.47-.88h.38a5.62,5.62,0,0,1,.81,1.48,4,4,0,0,1-.08,2.87A5.4,5.4,0,0,1,183.84,21.83Z" transform="translate(0 -0.78)" style="fill:#231f20"/><path d="M187.26,20.57V16.28h2.9v.51h-2.33v1.33h2v.51h-2v2Z" transform="translate(0 -0.78)" style="fill:#231f20"/><path d="M190.9,20.57V16.28h1.9a2.53,2.53,0,0,1,.87.12,1,1,0,0,1,.48.41,1.22,1.22,0,0,1,.18.65,1.08,1.08,0,0,1-.3.77,1.5,1.5,0,0,1-.91.4,1.47,1.47,0,0,1,.34.21,3,3,0,0,1,.47.57l.75,1.17H194l-.57-.89q-.25-.39-.41-.59a1.31,1.31,0,0,0-.29-.29.87.87,0,0,0-.26-.11l-.32,0h-.66v1.91Zm.57-2.4h1.22a1.83,1.83,0,0,0,.61-.08.65.65,0,0,0,.33-.26.7.7,0,0,0,.11-.39.64.64,0,0,0-.22-.5,1,1,0,0,0-.7-.2h-1.36Z" transform="translate(0 -0.78)" style="fill:#231f20"/><path d="M195.05,18.48a2.33,2.33,0,0,1,.57-1.67,2,2,0,0,1,1.48-.6,2.06,2.06,0,0,1,1.07.28,1.85,1.85,0,0,1,.73.79,2.56,2.56,0,0,1,.25,1.15,2.53,2.53,0,0,1-.26,1.17,1.8,1.8,0,0,1-.75.78,2.13,2.13,0,0,1-1,.27,2,2,0,0,1-1.08-.29,1.89,1.89,0,0,1-.72-.8A2.42,2.42,0,0,1,195.05,18.48Zm.59,0a1.72,1.72,0,0,0,.42,1.22,1.46,1.46,0,0,0,2.1,0,1.82,1.82,0,0,0,.42-1.28,2.22,2.22,0,0,0-.18-.92,1.37,1.37,0,0,0-.52-.61,1.4,1.4,0,0,0-.77-.22,1.46,1.46,0,0,0-1,.41A1.86,1.86,0,0,0,195.64,18.49Z" transform="translate(0 -0.78)" style="fill:#231f20"/><path d="M199.88,20.57V16.28h.86l1,3L202,20l.23-.69,1-3H204v4.29h-.55V17l-1.25,3.59h-.51l-1.24-3.66v3.66Z" transform="translate(0 -0.78)" style="fill:#231f20"/><path d="M121.63,27.77l-1.14-4.29h.58l.65,2.82q.11.44.18.88l.19-.79.82-2.9h.69l.62,2.17a11.52,11.52,0,0,1,.33,1.52q.08-.41.21-.93l.67-2.76H126l-1.18,4.29h-.55l-.91-3.27q-.11-.41-.13-.5-.07.3-.13.5l-.91,3.27Z" transform="translate(0 -0.78)" style="fill:#231f20"/><path d="M125.85,27.77l1.65-4.29h.61l1.76,4.29h-.65l-.5-1.3h-1.8l-.47,1.3ZM127.09,26h1.46l-.45-1.19q-.21-.54-.3-.89a5.48,5.48,0,0,1-.23.82Z" transform="translate(0 -0.78)" style="fill:#231f20"/><path d="M130.3,27.77V23.48h.57v3.79H133v.51Z" transform="translate(0 -0.78)" style="fill:#231f20"/><path d="M133.64,27.77V23.48h.57v3.79h2.12v.51Z" transform="translate(0 -0.78)" style="fill:#231f20"/><path d="M139.43,27.77V24H138v-.51h3.4V24H140v3.79Z" transform="translate(0 -0.78)" style="fill:#231f20"/><path d="M141.72,25.68a2.33,2.33,0,0,1,.57-1.67,2,2,0,0,1,1.48-.6,2.06,2.06,0,0,1,1.07.28,1.85,1.85,0,0,1,.73.79,2.56,2.56,0,0,1,.25,1.15,2.53,2.53,0,0,1-.26,1.17,1.8,1.8,0,0,1-.75.78,2.13,2.13,0,0,1-1,.27,2,2,0,0,1-1.08-.29,1.89,1.89,0,0,1-.72-.8A2.42,2.42,0,0,1,141.72,25.68Zm.59,0a1.72,1.72,0,0,0,.42,1.22,1.46,1.46,0,0,0,2.1,0,1.82,1.82,0,0,0,.42-1.28,2.22,2.22,0,0,0-.18-.92,1.37,1.37,0,0,0-.52-.61,1.4,1.4,0,0,0-.77-.22,1.46,1.46,0,0,0-1,.41A1.86,1.86,0,0,0,142.3,25.69Z" transform="translate(0 -0.78)" style="fill:#231f20"/><path d="M148.24,27.77V23.48h.57v1.76H151V23.48h.57v4.29H151v-2h-2.23v2Z" transform="translate(0 -0.78)" style="fill:#231f20"/><path d="M152.57,27.77V23.48h3.11V24h-2.54V25.3h2.38v.5h-2.38v1.46h2.64v.51Z" transform="translate(0 -0.78)" style="fill:#231f20"/><path d="M156.54,27.77V23.48h.57v3.79h2.12v.51Z" transform="translate(0 -0.78)" style="fill:#231f20"/><path d="M159.9,27.77V23.48h1.62a3.91,3.91,0,0,1,.65,0,1.29,1.29,0,0,1,.53.2,1.06,1.06,0,0,1,.34.41,1.4,1.4,0,0,1-.22,1.51,1.67,1.67,0,0,1-1.26.38h-1.1v1.75Zm.57-2.25h1.11a1.18,1.18,0,0,0,.78-.21.73.73,0,0,0,.23-.58.78.78,0,0,0-.14-.46.64.64,0,0,0-.36-.25,2.43,2.43,0,0,0-.53,0h-1.1Z" transform="translate(0 -0.78)" style="fill:#231f20"/><path d="M165.46,27.77V23.48h1.62a3.91,3.91,0,0,1,.65,0,1.29,1.29,0,0,1,.53.2,1.06,1.06,0,0,1,.34.41,1.4,1.4,0,0,1-.22,1.51,1.67,1.67,0,0,1-1.26.38H166v1.75Zm.57-2.25h1.11a1.18,1.18,0,0,0,.78-.21.73.73,0,0,0,.23-.58.78.78,0,0,0-.14-.46.64.64,0,0,0-.36-.25,2.43,2.43,0,0,0-.53,0H166Z" transform="translate(0 -0.78)" style="fill:#231f20"/><path d="M169.47,27.77V23.48h1.9a2.53,2.53,0,0,1,.87.12,1,1,0,0,1,.48.41,1.22,1.22,0,0,1,.18.65,1.08,1.08,0,0,1-.3.77,1.5,1.5,0,0,1-.91.4A1.47,1.47,0,0,1,172,26a3,3,0,0,1,.47.57l.75,1.17h-.71l-.57-.89q-.25-.39-.41-.59a1.31,1.31,0,0,0-.29-.29.87.87,0,0,0-.26-.11l-.32,0H170v1.91Zm.57-2.4h1.22a1.83,1.83,0,0,0,.61-.08.65.65,0,0,0,.33-.26.7.7,0,0,0,.11-.39.64.64,0,0,0-.22-.5,1,1,0,0,0-.7-.2H170Z" transform="translate(0 -0.78)" style="fill:#231f20"/><path d="M173.8,27.77V23.48h3.11V24h-2.54V25.3h2.38v.5h-2.38v1.46H177v.51Z" transform="translate(0 -0.78)" style="fill:#231f20"/><path d="M179,27.77l-1.66-4.29H178l1.12,3.12q.13.38.23.7.1-.35.23-.7l1.16-3.12h.58l-1.68,4.29Z" transform="translate(0 -0.78)" style="fill:#231f20"/><path d="M181.81,27.77V23.48h3.11V24h-2.54V25.3h2.38v.5h-2.38v1.46H185v.51Z" transform="translate(0 -0.78)" style="fill:#231f20"/><path d="M185.79,27.77V23.48h.58l2.26,3.37V23.48h.54v4.29h-.58l-2.26-3.37v3.38Z" transform="translate(0 -0.78)" style="fill:#231f20"/><path d="M191.22,27.77V24h-1.42v-.51h3.4V24h-1.42v3.79Z" transform="translate(0 -0.78)" style="fill:#231f20"/><path d="M196.58,27.77l-1.66-4.29h.62l1.12,3.12q.13.38.23.7.1-.35.23-.7l1.16-3.12h.58l-1.68,4.29Z" transform="translate(0 -0.78)" style="fill:#231f20"/><path d="M198.44,27.77l1.65-4.29h.61l1.76,4.29h-.65l-.5-1.3h-1.8l-.47,1.3ZM199.68,26h1.46l-.45-1.19q-.21-.54-.3-.89a5.48,5.48,0,0,1-.23.82Z" transform="translate(0 -0.78)" style="fill:#231f20"/><path d="M202.91,27.77V23.48h1.62a3.91,3.91,0,0,1,.65,0,1.29,1.29,0,0,1,.53.2,1.06,1.06,0,0,1,.34.41,1.4,1.4,0,0,1-.22,1.51,1.67,1.67,0,0,1-1.26.38h-1.1v1.75Zm.57-2.25h1.11a1.18,1.18,0,0,0,.78-.21.73.73,0,0,0,.23-.58.78.78,0,0,0-.14-.46.64.64,0,0,0-.36-.25,2.43,2.43,0,0,0-.53,0h-1.1Z" transform="translate(0 -0.78)" style="fill:#231f20"/><path d="M206.74,25.68a2.33,2.33,0,0,1,.57-1.67,2,2,0,0,1,1.48-.6,2.06,2.06,0,0,1,1.07.28,1.85,1.85,0,0,1,.73.79,2.56,2.56,0,0,1,.25,1.15,2.53,2.53,0,0,1-.26,1.17,1.8,1.8,0,0,1-.75.78,2.13,2.13,0,0,1-1,.27,2,2,0,0,1-1.08-.29,1.89,1.89,0,0,1-.72-.8A2.42,2.42,0,0,1,206.74,25.68Zm.59,0a1.72,1.72,0,0,0,.42,1.22,1.46,1.46,0,0,0,2.1,0,1.82,1.82,0,0,0,.42-1.28,2.22,2.22,0,0,0-.18-.92,1.37,1.37,0,0,0-.52-.61,1.4,1.4,0,0,0-.77-.22,1.46,1.46,0,0,0-1,.41A1.86,1.86,0,0,0,207.33,25.69Z" transform="translate(0 -0.78)" style="fill:#231f20"/><path d="M211.59,27.77V23.48h1.9a2.53,2.53,0,0,1,.87.12,1,1,0,0,1,.48.41,1.22,1.22,0,0,1,.18.65,1.08,1.08,0,0,1-.3.77,1.5,1.5,0,0,1-.91.4,1.47,1.47,0,0,1,.34.21,3,3,0,0,1,.47.57l.75,1.17h-.71l-.57-.89q-.25-.39-.41-.59a1.31,1.31,0,0,0-.29-.29.87.87,0,0,0-.26-.11l-.32,0h-.66v1.91Zm.57-2.4h1.22a1.83,1.83,0,0,0,.61-.08.65.65,0,0,0,.33-.26.7.7,0,0,0,.11-.39.64.64,0,0,0-.22-.5,1,1,0,0,0-.7-.2h-1.36Z" transform="translate(0 -0.78)" style="fill:#231f20"/><path d="M120.91,35V30.68h2.9v.51h-2.33v1.33h2V33h-2v2Z" transform="translate(0 -0.78)" style="fill:#231f20"/><path d="M124.56,35V30.68h1.9a2.53,2.53,0,0,1,.87.12,1,1,0,0,1,.48.41,1.22,1.22,0,0,1,.18.65,1.08,1.08,0,0,1-.3.77,1.5,1.5,0,0,1-.91.4,1.47,1.47,0,0,1,.34.21,3,3,0,0,1,.47.57l.75,1.17h-.71l-.57-.89q-.25-.39-.41-.59a1.31,1.31,0,0,0-.29-.29.87.87,0,0,0-.26-.11l-.32,0h-.66V35Zm.57-2.4h1.22a1.83,1.83,0,0,0,.61-.08.65.65,0,0,0,.33-.26.7.7,0,0,0,.11-.39.64.64,0,0,0-.22-.5,1,1,0,0,0-.7-.2h-1.36Z" transform="translate(0 -0.78)" style="fill:#231f20"/><path d="M128.71,32.88a2.33,2.33,0,0,1,.57-1.67,2,2,0,0,1,1.48-.6,2.06,2.06,0,0,1,1.07.28,1.85,1.85,0,0,1,.73.79,2.56,2.56,0,0,1,.25,1.15,2.53,2.53,0,0,1-.26,1.17,1.8,1.8,0,0,1-.75.78,2.13,2.13,0,0,1-1,.27,2,2,0,0,1-1.08-.29A1.89,1.89,0,0,1,129,34,2.42,2.42,0,0,1,128.71,32.88Zm.59,0a1.72,1.72,0,0,0,.42,1.22,1.46,1.46,0,0,0,2.1,0,1.82,1.82,0,0,0,.42-1.28,2.22,2.22,0,0,0-.18-.92,1.37,1.37,0,0,0-.52-.61,1.4,1.4,0,0,0-.77-.22,1.46,1.46,0,0,0-1,.41A1.86,1.86,0,0,0,129.29,32.89Z" transform="translate(0 -0.78)" style="fill:#231f20"/><path d="M133.53,35V30.68h.86l1,3,.21.64.23-.69,1-3h.76V35h-.55V31.38L135.83,35h-.51l-1.24-3.66V35Z" transform="translate(0 -0.78)" style="fill:#231f20"/><path d="M140.21,35V30.68h1.48a3.59,3.59,0,0,1,.76.06,1.45,1.45,0,0,1,.63.31,1.76,1.76,0,0,1,.51.73,2.9,2.9,0,0,1,.17,1,3,3,0,0,1-.11.87,2.1,2.1,0,0,1-.29.63,1.56,1.56,0,0,1-.39.39,1.6,1.6,0,0,1-.51.22,2.94,2.94,0,0,1-.69.07Zm.57-.51h.92a2.23,2.23,0,0,0,.67-.08,1,1,0,0,0,.38-.22,1.35,1.35,0,0,0,.31-.54,2.66,2.66,0,0,0,.11-.83,2,2,0,0,0-.22-1,1.12,1.12,0,0,0-.54-.48,2.22,2.22,0,0,0-.74-.09h-.9Z" transform="translate(0 -0.78)" style="fill:#231f20"/><path d="M144.64,35V30.68h.57V35Z" transform="translate(0 -0.78)" style="fill:#231f20"/><path d="M146,33.59l.54,0a1.18,1.18,0,0,0,.18.53,1,1,0,0,0,.43.33,1.64,1.64,0,0,0,.66.13,1.58,1.58,0,0,0,.57-.1.8.8,0,0,0,.37-.27.62.62,0,0,0,.12-.37.56.56,0,0,0-.12-.35.87.87,0,0,0-.39-.25,7.56,7.56,0,0,0-.76-.21,3.91,3.91,0,0,1-.83-.27,1.16,1.16,0,0,1-.46-.4,1,1,0,0,1-.15-.53,1.09,1.09,0,0,1,.18-.61,1.14,1.14,0,0,1,.54-.43,2,2,0,0,1,.79-.15,2.15,2.15,0,0,1,.84.15,1.21,1.21,0,0,1,.56.45,1.3,1.3,0,0,1,.21.68l-.54,0a.88.88,0,0,0-.3-.62,1.16,1.16,0,0,0-.75-.21,1.2,1.2,0,0,0-.75.19.57.57,0,0,0-.24.46.49.49,0,0,0,.17.38,2.26,2.26,0,0,0,.86.31,5.69,5.69,0,0,1,1,.27,1.3,1.3,0,0,1,.55.44,1.07,1.07,0,0,1,.18.61,1.17,1.17,0,0,1-.2.65,1.29,1.29,0,0,1-.56.47,2,2,0,0,1-.83.17,2.47,2.47,0,0,1-1-.17,1.36,1.36,0,0,1-.62-.51A1.44,1.44,0,0,1,146,33.59Z" transform="translate(0 -0.78)" style="fill:#231f20"/><path d="M153.28,33.46l.57.14a1.92,1.92,0,0,1-.64,1.07,1.78,1.78,0,0,1-1.14.37,2,2,0,0,1-1.13-.28,1.77,1.77,0,0,1-.66-.82,2.92,2.92,0,0,1-.23-1.15,2.53,2.53,0,0,1,.26-1.17,1.75,1.75,0,0,1,.73-.76,2.13,2.13,0,0,1,1-.26,1.76,1.76,0,0,1,1.08.33,1.7,1.7,0,0,1,.61.92l-.56.13a1.33,1.33,0,0,0-.43-.68,1.16,1.16,0,0,0-.71-.21,1.39,1.39,0,0,0-.83.24,1.25,1.25,0,0,0-.47.64,2.57,2.57,0,0,0-.13.82,2.6,2.6,0,0,0,.16,1,1.18,1.18,0,0,0,.5.61,1.39,1.39,0,0,0,.73.2,1.22,1.22,0,0,0,.81-.28A1.41,1.41,0,0,0,153.28,33.46Z" transform="translate(0 -0.78)" style="fill:#231f20"/><path d="M154.37,32.88a2.33,2.33,0,0,1,.57-1.67,2,2,0,0,1,1.48-.6,2.06,2.06,0,0,1,1.07.28,1.85,1.85,0,0,1,.73.79,2.56,2.56,0,0,1,.25,1.15,2.53,2.53,0,0,1-.26,1.17,1.8,1.8,0,0,1-.75.78,2.13,2.13,0,0,1-1,.27,2,2,0,0,1-1.08-.29,1.89,1.89,0,0,1-.72-.8A2.42,2.42,0,0,1,154.37,32.88Zm.59,0a1.72,1.72,0,0,0,.42,1.22,1.46,1.46,0,0,0,2.1,0,1.82,1.82,0,0,0,.42-1.28,2.22,2.22,0,0,0-.18-.92,1.37,1.37,0,0,0-.52-.61,1.4,1.4,0,0,0-.77-.22,1.46,1.46,0,0,0-1,.41A1.86,1.86,0,0,0,155,32.89Z" transform="translate(0 -0.78)" style="fill:#231f20"/><path d="M159.19,35V30.68h.57v3.79h2.12V35Z" transform="translate(0 -0.78)" style="fill:#231f20"/><path d="M162.38,32.88A2.33,2.33,0,0,1,163,31.2a2,2,0,0,1,1.48-.6,2.06,2.06,0,0,1,1.07.28,1.85,1.85,0,0,1,.73.79,2.56,2.56,0,0,1,.25,1.15,2.53,2.53,0,0,1-.26,1.17,1.8,1.8,0,0,1-.75.78,2.13,2.13,0,0,1-1,.27,2,2,0,0,1-1.08-.29,1.89,1.89,0,0,1-.72-.8A2.42,2.42,0,0,1,162.38,32.88Zm.59,0a1.72,1.72,0,0,0,.42,1.22,1.46,1.46,0,0,0,2.1,0,1.82,1.82,0,0,0,.42-1.28,2.22,2.22,0,0,0-.18-.92,1.37,1.37,0,0,0-.52-.61,1.4,1.4,0,0,0-.77-.22,1.46,1.46,0,0,0-1,.41A1.86,1.86,0,0,0,163,32.89Z" transform="translate(0 -0.78)" style="fill:#231f20"/><path d="M167.23,35V30.68h1.9a2.53,2.53,0,0,1,.87.12,1,1,0,0,1,.48.41,1.22,1.22,0,0,1,.18.65,1.08,1.08,0,0,1-.3.77,1.5,1.5,0,0,1-.91.4,1.47,1.47,0,0,1,.34.21,3,3,0,0,1,.47.57L171,35h-.71l-.57-.89q-.25-.39-.41-.59a1.31,1.31,0,0,0-.29-.29.87.87,0,0,0-.26-.11l-.32,0h-.66V35Zm.57-2.4H169a1.83,1.83,0,0,0,.61-.08.65.65,0,0,0,.33-.26.7.7,0,0,0,.11-.39.64.64,0,0,0-.22-.5,1,1,0,0,0-.7-.2h-1.36Z" transform="translate(0 -0.78)" style="fill:#231f20"/><path d="M171.65,35V30.68h.57V35Z" transform="translate(0 -0.78)" style="fill:#231f20"/><path d="M173.21,35V30.68h.58L176.05,34V30.68h.54V35H176l-2.26-3.37V35Z" transform="translate(0 -0.78)" style="fill:#231f20"/><path d="M179.56,33.29v-.5h1.82v1.59a3.21,3.21,0,0,1-.86.5,2.56,2.56,0,0,1-.91.17,2.44,2.44,0,0,1-1.15-.27,1.79,1.79,0,0,1-.78-.78,2.47,2.47,0,0,1-.26-1.15,2.65,2.65,0,0,1,.26-1.17,1.74,1.74,0,0,1,.75-.81,2.36,2.36,0,0,1,1.13-.26,2.25,2.25,0,0,1,.84.15,1.4,1.4,0,0,1,.59.42,1.86,1.86,0,0,1,.33.7l-.51.14a1.59,1.59,0,0,0-.24-.52,1,1,0,0,0-.41-.3,1.5,1.5,0,0,0-.59-.11,1.74,1.74,0,0,0-.67.12,1.26,1.26,0,0,0-.46.31,1.49,1.49,0,0,0-.27.42,2.25,2.25,0,0,0-.16.86,2.08,2.08,0,0,0,.2,1,1.26,1.26,0,0,0,.58.57,1.78,1.78,0,0,0,.8.19,1.91,1.91,0,0,0,.72-.14,1.86,1.86,0,0,0,.53-.3v-.8Z" transform="translate(0 -0.78)" style="fill:#231f20"/><path d="M184.87,35V31.18h-1.42v-.51h3.4v.51h-1.42V35Z" transform="translate(0 -0.78)" style="fill:#231f20"/><path d="M187.46,35V30.68H188v1.76h2.23V30.68h.57V35h-.57v-2H188v2Z" transform="translate(0 -0.78)" style="fill:#231f20"/><path d="M191.79,35V30.68h3.11v.51h-2.54V32.5h2.38V33h-2.38v1.46H195V35Z" transform="translate(0 -0.78)" style="fill:#231f20"/><path d="M198.19,35l-1.14-4.29h.58l.65,2.82q.11.44.18.88l.19-.79.82-2.9h.69l.62,2.17a11.52,11.52,0,0,1,.33,1.52q.08-.41.21-.93l.67-2.76h.57L201.4,35h-.55l-.91-3.27q-.11-.41-.13-.5-.07.3-.13.5L198.77,35Z" transform="translate(0 -0.78)" style="fill:#231f20"/><path d="M202.41,35l1.65-4.29h.61L206.43,35h-.65l-.5-1.3h-1.8L203,35Zm1.24-1.76h1.46L204.66,32q-.21-.54-.3-.89a5.48,5.48,0,0,1-.23.82Z" transform="translate(0 -0.78)" style="fill:#231f20"/><path d="M206.86,35V30.68h.57v3.79h2.12V35Z" transform="translate(0 -0.78)" style="fill:#231f20"/><path d="M210.2,35V30.68h.57v3.79h2.12V35Z" transform="translate(0 -0.78)" style="fill:#231f20"/><path d="M120.69,40.79l.54,0a1.18,1.18,0,0,0,.18.53,1,1,0,0,0,.43.33,1.64,1.64,0,0,0,.66.13,1.58,1.58,0,0,0,.57-.1.8.8,0,0,0,.37-.27.62.62,0,0,0,.12-.37.56.56,0,0,0-.12-.35.87.87,0,0,0-.39-.25,7.56,7.56,0,0,0-.76-.21,3.91,3.91,0,0,1-.83-.27,1.16,1.16,0,0,1-.46-.4,1,1,0,0,1-.15-.53,1.09,1.09,0,0,1,.18-.61,1.14,1.14,0,0,1,.54-.43,2,2,0,0,1,.79-.15,2.15,2.15,0,0,1,.84.15,1.21,1.21,0,0,1,.56.45,1.3,1.3,0,0,1,.21.68l-.54,0a.88.88,0,0,0-.3-.62,1.16,1.16,0,0,0-.75-.21,1.2,1.2,0,0,0-.75.19.57.57,0,0,0-.24.46.49.49,0,0,0,.17.38,2.26,2.26,0,0,0,.86.31,5.69,5.69,0,0,1,1,.27,1.3,1.3,0,0,1,.55.44,1.07,1.07,0,0,1,.18.61,1.17,1.17,0,0,1-.2.65,1.29,1.29,0,0,1-.56.47,2,2,0,0,1-.83.17,2.47,2.47,0,0,1-1-.17,1.36,1.36,0,0,1-.62-.51A1.44,1.44,0,0,1,120.69,40.79Z" transform="translate(0 -0.78)" style="fill:#231f20"/><path d="M127.7,37.88h.57v2.48a2.94,2.94,0,0,1-.15,1,1.25,1.25,0,0,1-.53.62,1.87,1.87,0,0,1-1,.24,2.06,2.06,0,0,1-1-.21,1.19,1.19,0,0,1-.55-.6,2.87,2.87,0,0,1-.16-1.08V37.88h.57v2.48a2.39,2.39,0,0,0,.1.82.78.78,0,0,0,.36.41,1.24,1.24,0,0,0,.62.14,1.18,1.18,0,0,0,.89-.28,1.64,1.64,0,0,0,.27-1.09Z" transform="translate(0 -0.78)" style="fill:#231f20"/><path d="M129.23,42.17V37.88h1.9A2.53,2.53,0,0,1,132,38a1,1,0,0,1,.48.41,1.22,1.22,0,0,1,.18.65,1.08,1.08,0,0,1-.3.77,1.5,1.5,0,0,1-.91.4,1.47,1.47,0,0,1,.34.21,3,3,0,0,1,.47.57l.75,1.17h-.71l-.57-.89q-.25-.39-.41-.59a1.31,1.31,0,0,0-.29-.29.87.87,0,0,0-.26-.11l-.32,0h-.66v1.91Zm.57-2.4H131a1.83,1.83,0,0,0,.61-.08.65.65,0,0,0,.33-.26.7.7,0,0,0,.11-.39.64.64,0,0,0-.22-.5,1,1,0,0,0-.7-.2h-1.36Z" transform="translate(0 -0.78)" style="fill:#231f20"/><path d="M133.58,42.17V37.88h2.9v.51h-2.33v1.33h2v.51h-2v2Z" transform="translate(0 -0.78)" style="fill:#231f20"/><path d="M136.41,42.17l1.65-4.29h.61l1.76,4.29h-.65l-.5-1.3h-1.8l-.47,1.3Zm1.24-1.76h1.46l-.45-1.19q-.21-.54-.3-.89a5.48,5.48,0,0,1-.23.82Z" transform="translate(0 -0.78)" style="fill:#231f20"/><path d="M144,40.67l.57.14a1.92,1.92,0,0,1-.64,1.07,1.78,1.78,0,0,1-1.14.37,2,2,0,0,1-1.13-.28,1.77,1.77,0,0,1-.66-.82,2.92,2.92,0,0,1-.23-1.15,2.53,2.53,0,0,1,.26-1.17,1.75,1.75,0,0,1,.73-.76,2.13,2.13,0,0,1,1-.26,1.76,1.76,0,0,1,1.08.33,1.7,1.7,0,0,1,.61.92l-.56.13a1.33,1.33,0,0,0-.43-.68,1.16,1.16,0,0,0-.71-.21,1.39,1.39,0,0,0-.83.24,1.25,1.25,0,0,0-.47.64,2.57,2.57,0,0,0-.13.82,2.6,2.6,0,0,0,.16,1,1.18,1.18,0,0,0,.5.61,1.39,1.39,0,0,0,.73.2,1.22,1.22,0,0,0,.81-.28A1.41,1.41,0,0,0,144,40.67Z" transform="translate(0 -0.78)" style="fill:#231f20"/><path d="M145.23,42.17V37.88h3.11v.51H145.8V39.7h2.38v.5H145.8v1.46h2.64v.51Z" transform="translate(0 -0.78)" style="fill:#231f20"/><path d="M151,42.17V37.88h.57v4.29Z" transform="translate(0 -0.78)" style="fill:#231f20"/><path d="M152.55,42.17V37.88h.58l2.26,3.37V37.88h.54v4.29h-.58l-2.26-3.37v3.38Z" transform="translate(0 -0.78)" style="fill:#231f20"/><path d="M161.62,40.67l.57.14a1.92,1.92,0,0,1-.64,1.07,1.78,1.78,0,0,1-1.14.37,2,2,0,0,1-1.13-.28,1.77,1.77,0,0,1-.66-.82,2.92,2.92,0,0,1-.23-1.15,2.53,2.53,0,0,1,.26-1.17,1.75,1.75,0,0,1,.73-.76,2.13,2.13,0,0,1,1-.26,1.76,1.76,0,0,1,1.08.33,1.7,1.7,0,0,1,.61.92l-.56.13a1.33,1.33,0,0,0-.43-.68,1.16,1.16,0,0,0-.71-.21,1.39,1.39,0,0,0-.83.24,1.25,1.25,0,0,0-.47.64A2.57,2.57,0,0,0,159,40a2.6,2.6,0,0,0,.16,1,1.18,1.18,0,0,0,.5.61,1.39,1.39,0,0,0,.73.2,1.22,1.22,0,0,0,.81-.28A1.41,1.41,0,0,0,161.62,40.67Z" transform="translate(0 -0.78)" style="fill:#231f20"/><path d="M162.71,40.08a2.33,2.33,0,0,1,.57-1.67,2,2,0,0,1,1.48-.6,2.06,2.06,0,0,1,1.07.28,1.85,1.85,0,0,1,.73.79,2.56,2.56,0,0,1,.25,1.15,2.53,2.53,0,0,1-.26,1.17,1.8,1.8,0,0,1-.75.78,2.13,2.13,0,0,1-1,.27,2,2,0,0,1-1.08-.29,1.89,1.89,0,0,1-.72-.8A2.42,2.42,0,0,1,162.71,40.08Zm.59,0a1.72,1.72,0,0,0,.42,1.22,1.46,1.46,0,0,0,2.1,0,1.82,1.82,0,0,0,.42-1.28,2.22,2.22,0,0,0-.18-.92,1.37,1.37,0,0,0-.52-.61,1.4,1.4,0,0,0-.77-.22,1.46,1.46,0,0,0-1,.41A1.86,1.86,0,0,0,163.3,40.09Z" transform="translate(0 -0.78)" style="fill:#231f20"/><path d="M167.53,42.17V37.88h.57v3.79h2.12v.51Z" transform="translate(0 -0.78)" style="fill:#231f20"/><path d="M170.89,42.17V37.88h1.48a3.59,3.59,0,0,1,.76.06,1.45,1.45,0,0,1,.63.31,1.76,1.76,0,0,1,.51.73,2.9,2.9,0,0,1,.17,1,3,3,0,0,1-.11.87,2.1,2.1,0,0,1-.29.63,1.56,1.56,0,0,1-.39.39,1.6,1.6,0,0,1-.51.22,2.94,2.94,0,0,1-.69.07Zm.57-.51h.92a2.23,2.23,0,0,0,.67-.08,1,1,0,0,0,.38-.22,1.35,1.35,0,0,0,.31-.54,2.66,2.66,0,0,0,.11-.83,2,2,0,0,0-.22-1,1.12,1.12,0,0,0-.54-.48,2.22,2.22,0,0,0-.74-.09h-.9Z" transform="translate(0 -0.78)" style="fill:#231f20"/><path d="M175.24,42.17V37.88h3.11v.51H175.8V39.7h2.38v.5H175.8v1.46h2.64v.51Z" transform="translate(0 -0.78)" style="fill:#231f20"/><path d="M179.24,42.17V37.88h1.9A2.53,2.53,0,0,1,182,38a1,1,0,0,1,.48.41,1.22,1.22,0,0,1,.18.65,1.08,1.08,0,0,1-.3.77,1.5,1.5,0,0,1-.91.4,1.47,1.47,0,0,1,.34.21,3,3,0,0,1,.47.57l.75,1.17h-.71l-.57-.89q-.25-.39-.41-.59a1.31,1.31,0,0,0-.29-.29.87.87,0,0,0-.26-.11l-.32,0h-.66v1.91Zm.57-2.4H181a1.83,1.83,0,0,0,.61-.08.65.65,0,0,0,.33-.26.7.7,0,0,0,.11-.39.64.64,0,0,0-.22-.5,1,1,0,0,0-.7-.2H179.8Z" transform="translate(0 -0.78)" style="fill:#231f20"/><path d="M188.29,40.67l.57.14a1.92,1.92,0,0,1-.64,1.07,1.78,1.78,0,0,1-1.14.37A2,2,0,0,1,186,42a1.77,1.77,0,0,1-.66-.82,2.92,2.92,0,0,1-.23-1.15,2.53,2.53,0,0,1,.26-1.17,1.75,1.75,0,0,1,.73-.76,2.13,2.13,0,0,1,1-.26,1.76,1.76,0,0,1,1.08.33,1.7,1.7,0,0,1,.61.92l-.56.13a1.33,1.33,0,0,0-.43-.68,1.16,1.16,0,0,0-.71-.21,1.39,1.39,0,0,0-.83.24,1.25,1.25,0,0,0-.47.64,2.57,2.57,0,0,0-.13.82,2.6,2.6,0,0,0,.16,1,1.18,1.18,0,0,0,.5.61,1.39,1.39,0,0,0,.73.2,1.22,1.22,0,0,0,.81-.28A1.41,1.41,0,0,0,188.29,40.67Z" transform="translate(0 -0.78)" style="fill:#231f20"/><path d="M189.54,42.17V37.88h.57v3.79h2.12v.51Z" transform="translate(0 -0.78)" style="fill:#231f20"/><path d="M193,42.17V37.88h.57v4.29Z" transform="translate(0 -0.78)" style="fill:#231f20"/><path d="M194.55,42.17V37.88h.86l1,3,.21.64.23-.69,1-3h.76v4.29h-.55V38.58l-1.25,3.59h-.51l-1.24-3.66v3.66Z" transform="translate(0 -0.78)" style="fill:#231f20"/><path d="M199.09,42.17l1.65-4.29h.61l1.76,4.29h-.65l-.5-1.3h-1.8l-.47,1.3Zm1.24-1.76h1.46l-.45-1.19q-.21-.54-.3-.89a5.48,5.48,0,0,1-.23.82Z" transform="translate(0 -0.78)" style="fill:#231f20"/><path d="M204.21,42.17V38.38H202.8v-.51h3.4v.51h-1.42v3.79Z" transform="translate(0 -0.78)" style="fill:#231f20"/><path d="M206.79,42.17V37.88h3.11v.51h-2.54V39.7h2.38v.5h-2.38v1.46H210v.51Z" transform="translate(0 -0.78)" style="fill:#231f20"/><path d="M210.59,40.79l.54,0a1.18,1.18,0,0,0,.18.53,1,1,0,0,0,.43.33,1.64,1.64,0,0,0,.66.13,1.58,1.58,0,0,0,.57-.1.8.8,0,0,0,.37-.27.62.62,0,0,0,.12-.37.56.56,0,0,0-.12-.35.87.87,0,0,0-.39-.25,7.56,7.56,0,0,0-.76-.21,3.91,3.91,0,0,1-.83-.27,1.16,1.16,0,0,1-.46-.4,1,1,0,0,1-.15-.53,1.09,1.09,0,0,1,.18-.61,1.14,1.14,0,0,1,.54-.43,2,2,0,0,1,.79-.15,2.15,2.15,0,0,1,.84.15,1.21,1.21,0,0,1,.56.45,1.3,1.3,0,0,1,.21.68l-.54,0a.88.88,0,0,0-.3-.62,1.16,1.16,0,0,0-.75-.21,1.2,1.2,0,0,0-.75.19.57.57,0,0,0-.24.46.49.49,0,0,0,.17.38,2.26,2.26,0,0,0,.86.31,5.69,5.69,0,0,1,1,.27,1.3,1.3,0,0,1,.55.44A1.07,1.07,0,0,1,214,41a1.17,1.17,0,0,1-.2.65,1.29,1.29,0,0,1-.56.47,2,2,0,0,1-.83.17,2.47,2.47,0,0,1-1-.17,1.36,1.36,0,0,1-.62-.51A1.44,1.44,0,0,1,210.59,40.79Z" transform="translate(0 -0.78)" style="fill:#231f20"/></g></svg>