<svg id="arrows" xmlns="http://www.w3.org/2000/svg" viewBox="0 0 310.41 271.57"><title>standard_vent_intake_air_terminations</title><path d="M112,161.33q.22-58,.12-116" style="fill:none;stroke:#000;stroke-linecap:round;stroke-linejoin:round"/><path d="M85.4,45.29q-.31,51.79-.16,103.57" style="fill:none;stroke:#000;stroke-linecap:round;stroke-linejoin:round"/><path d="M112.14,271.07q0-18.09,0-36.18" style="fill:none;stroke:#000;stroke-linecap:round;stroke-linejoin:round"/><path d="M85.4,227.29q-.15,15.37-.18,30.73" style="fill:none;stroke:#000;stroke-linecap:round;stroke-linejoin:round"/><line x1="127.36" y1="30.9" x2="127.72" y2="30.54" style="fill:none;stroke:#000;stroke-linecap:round;stroke-linejoin:round"/><g id="SPLINE"><line x1="127.75" y1="2.26" x2="127.39" y2="1.89" style="fill:none;stroke:#000;stroke-linecap:round;stroke-linejoin:round"/></g><g id="SPLINE-2" data-name="SPLINE"><line x1="127.35" y1="1.87" x2="116.16" y2="1.86" style="fill:none;stroke:#000;stroke-linecap:round;stroke-linejoin:round"/></g><line x1="116.12" y1="30.91" x2="127.32" y2="30.92" style="fill:none;stroke:#000;stroke-linecap:round;stroke-linejoin:round"/><line x1="84.23" y1="44.92" x2="84.59" y2="45.29" style="fill:none;stroke:#000;stroke-linecap:round;stroke-linejoin:round"/><line x1="112.94" y1="45.32" x2="113.3" y2="44.96" style="fill:none;stroke:#000;stroke-linecap:round;stroke-linejoin:round"/><line x1="113.3" y1="44.96" x2="113.32" y2="33.75" style="fill:none;stroke:#000;stroke-linecap:round;stroke-linejoin:round"/><line x1="84.25" y1="33.71" x2="84.23" y2="44.92" style="fill:none;stroke:#000;stroke-linecap:round;stroke-linejoin:round"/><line x1="112.73" y1="33.73" x2="111.8" y2="32.81" style="fill:none;stroke:#000;stroke-linecap:round;stroke-linejoin:round"/><line x1="85.76" y1="32.77" x2="84.84" y2="33.7" style="fill:none;stroke:#000;stroke-linecap:round;stroke-linejoin:round"/><g id="SPLINE-3" data-name="SPLINE"><line x1="115.86" y1="2.91" x2="115.39" y2="3.38" style="fill:none;stroke:#000;stroke-linecap:round;stroke-linejoin:round"/></g><line x1="115.6" y1="29.62" x2="115.83" y2="29.86" style="fill:none;stroke:#000;stroke-linecap:round;stroke-linejoin:round"/><g id="SPLINE-4" data-name="SPLINE"><line x1="115.41" y1="3.37" x2="113.26" y2="3.36" style="fill:none;stroke:#000;stroke-linecap:round;stroke-linejoin:round"/></g><path d="M113.26,3.36l-1,0h0c-.47,0-.94,0-1.4.09h0q-.7.06-1.4.16h0q-.7.1-1.39.23h0q-.69.13-1.37.3h0q-.68.17-1.36.37h0q-.67.2-1.34.44h0q-.66.24-1.31.51h0q-.65.27-1.28.57h0q-.63.3-1.25.64h0q-.62.33-1.22.7h0q-.6.37-1.18.76h0q-.58.4-1.14.82h0q-.56.43-1.1.88h0q-.54.45-1,.93h0q-.51.48-1,1h0q-.49.51-.95,1h0q-.46.53-.9,1.08h0q-.43.55-.84,1.13h0q-.41.57-.78,1.17h0q-.37.59-.72,1.21h0q-.34.61-.66,1.24h0q-.31.63-.59,1.28h0q-.28.65-.53,1.3h0q-.25.66-.46,1.33h0q-.21.67-.39,1.35h0q-.18.68-.32,1.37h0q-.14.69-.25,1.38h0q-.11.7-.18,1.4h0c0,.47-.09.93-.11,1.4h0c0,.45,0,.91,0,1.36" style="fill:none;stroke:#000;stroke-linecap:round;stroke-linejoin:round"/><line x1="111.8" y1="32.81" x2="111.81" y2="30.85" style="fill:none;stroke:#000;stroke-linecap:round;stroke-linejoin:round"/><line x1="85.76" y1="30.82" x2="85.76" y2="32.77" style="fill:none;stroke:#000;stroke-linecap:round;stroke-linejoin:round"/><line x1="127.68" y1="29.48" x2="142.28" y2="29.49" style="fill:none;stroke:#000;stroke-linecap:round;stroke-linejoin:round"/><g id="SPLINE-5" data-name="SPLINE"><line x1="142.31" y1="3.34" x2="127.71" y2="3.32" style="fill:none;stroke:#000;stroke-linecap:round;stroke-linejoin:round"/></g><g id="SPLINE-6" data-name="SPLINE"><line x1="188.21" y1="20.19" x2="178.52" y2="10.46" style="fill:none;stroke:#000;stroke-linecap:round;stroke-linejoin:round"/></g><g id="SPLINE-7" data-name="SPLINE"><line x1="157.74" y1="32.35" x2="166.83" y2="41.48" style="fill:none;stroke:#000;stroke-linecap:round;stroke-linejoin:round"/></g><g id="SPLINE-8" data-name="SPLINE"><path d="M166.91,18.22l-.52.51h0l-.13.13" style="fill:none;stroke:#000;stroke-linecap:round;stroke-linejoin:round"/></g><g id="SPLINE-9" data-name="SPLINE"><path d="M178.51,10.46l-.1-.11h0a1.62,1.62,0,0,0-.31-.23h0a2.43,2.43,0,0,0-.33-.16h0a2.14,2.14,0,0,0-.33-.1h0l-.32,0h-.3l-.27,0h0l-.23.05h0l-.2.07h0L176,10h0l-.16.08h0l-.16.1h0l-.2.13h0l-.31.22h0l-.32.26h0l-.34.28h0l-.4.35h0l-.43.38h0l-.46.42h0l-.5.45h0l-.53.49h0l-.56.52h0l-.59.55h0l-.61.58h0l-.63.6h0l-.65.63h0l-.66.64h0l-.68.66h0l-.68.67h0l-.17.17" style="fill:none;stroke:#000;stroke-linecap:round;stroke-linejoin:round"/></g><line x1="142.77" y1="32.33" x2="157.3" y2="32.34" style="fill:none;stroke:#000;stroke-linecap:round;stroke-linejoin:round"/><g id="SPLINE-10" data-name="SPLINE"><line x1="156.54" y1="0.51" x2="142.8" y2="0.5" style="fill:none;stroke:#000;stroke-linecap:round;stroke-linejoin:round"/></g><g id="SPLINE-11" data-name="SPLINE"><path d="M159.08,4.56l0-.34h0c0-.18,0-.35-.05-.51h0c0-.17,0-.32-.06-.47h0c0-.16,0-.3-.07-.44h0c0-.14-.06-.28-.09-.42h0c0-.09-.05-.18-.09-.28h0l-.08-.2h0l-.11-.21h0a2.25,2.25,0,0,0-.14-.22h0a2.35,2.35,0,0,0-.18-.23h0a2.26,2.26,0,0,0-.23-.22h0a2.24,2.24,0,0,0-.29-.2h0a2.16,2.16,0,0,0-.33-.16h0a2.61,2.61,0,0,0-.36-.1h0a1.47,1.47,0,0,0-.37,0h-.05" style="fill:none;stroke:#000;stroke-linecap:round;stroke-linejoin:round"/></g><g id="SPLINE-12" data-name="SPLINE"><path d="M174.64,11.06l-.87-.55h0q-.79-.49-1.6-.94h0q-.81-.45-1.64-.88h0q-.83-.42-1.67-.82h0q-.84-.39-1.7-.75h0q-.86-.36-1.73-.68h0q-.87-.33-1.75-.62h0q-.88-.29-1.78-.55h0c-.6-.17-1.19-.33-1.8-.48h0l-1.24-.29" style="fill:none;stroke:#000;stroke-linecap:round;stroke-linejoin:round"/></g><g id="SPLINE-13" data-name="SPLINE"><path d="M158.85,4.5l-.05,0h0" style="fill:none;stroke:#000;stroke-linecap:round;stroke-linejoin:round"/></g><g id="SPLINE-14" data-name="SPLINE"><path d="M157.3,32.34h.05a1.43,1.43,0,0,0,.29,0" style="fill:none;stroke:#000;stroke-linecap:round;stroke-linejoin:round"/></g><g id="SPLINE-15" data-name="SPLINE"><path d="M157.63,32.32h.06l0,0" style="fill:none;stroke:#000;stroke-linecap:round;stroke-linejoin:round"/></g><path d="M112.14,45.32c-6.61-.08-19.77-.11-26.38,0" style="fill:none;stroke:#000;stroke-linecap:round;stroke-linejoin:round"/><path d="M85.75,45.28H85.4" style="fill:none;stroke:#000;stroke-linecap:round;stroke-linejoin:round"/><polyline points="128 3.32 127.98 3.16 127.93 2.82 127.87 2.55 127.81 2.37 127.76 2.26 127.7 2.24 127.64 2.29 127.59 2.43 127.53 2.65 127.47 2.94 127.42 3.32 127.37 3.77 127.32 4.29 127.27 4.88 127.22 5.53 127.18 6.25 127.14 7.03 127.1 7.86 127.07 8.74 127.04 9.66 127.01 10.62 126.99 11.62 126.97 12.64 126.95 13.68 126.94 14.74 126.94 15.81 126.94 16.88 126.94 17.95 126.95 19.01 126.96 20.06 126.98 21.08 127 22.08 127.02 23.04 127.05 23.97 127.08 24.85 127.11 25.69 127.15 26.47 127.19 27.2 127.24 27.86 127.29 28.45 127.33 28.98 127.39 29.44 127.44 29.82 127.5 30.12 127.55 30.35 127.61 30.49 127.67 30.56 127.72 30.54 127.78 30.45 127.84 30.27 127.89 30.01 127.95 29.68 127.97 29.48" style="fill:none;stroke:#000;stroke-linecap:round;stroke-linejoin:round"/><polyline points="127.36 30.9 127.32 30.92 127.26 30.88 127.2 30.75 127.14 30.55 127.09 30.26 127.03 29.9 126.98 29.46 126.93 28.95 126.88 28.37 126.84 27.72 126.79 27.01 126.75 26.24 126.72 25.41 126.68 24.54 126.65 23.61 126.63 22.65 126.6 21.65 126.59 20.63 126.57 19.58 126.56 18.51 126.56 17.43 126.56 16.34 126.56 15.26 126.57 14.18 126.58 13.11 126.6 12.06 126.62 11.04 126.64 10.05 126.67 9.09 126.7 8.17 126.74 7.3 126.78 6.48 126.82 5.71 126.86 5.01 126.91 4.37 126.96 3.79 127.02 3.29 127.07 2.86 127.12 2.5 127.18 2.23 127.24 2.03 127.3 1.91 127.35 1.87 127.39 1.89" style="fill:none;stroke:#000;stroke-linecap:round;stroke-linejoin:round"/><polyline points="116.16 1.86 116.1 1.9 116.04 2.02 115.98 2.21 115.93 2.49 115.87 2.85 115.82 3.28 115.77 3.78 115.72 4.35 115.67 5 115.62 5.7 115.58 6.47 115.54 7.29 115.51 8.16 115.47 9.08 115.45 10.04 115.42 11.03 115.4 12.05 115.39 13.1 115.37 14.17 115.36 15.25 115.36 16.33 115.36 17.42 115.37 18.5 115.38 19.57 115.39 20.61 115.41 21.64 115.43 22.64 115.46 23.6 115.49 24.52 115.52 25.4 115.56 26.23 115.6 27 115.64 27.71 115.69 28.36 115.73 28.94 115.78 29.45 115.84 29.89 115.89 30.25 115.95 30.54 116.01 30.74 116.06 30.87 116.12 30.91 116.12 30.91" style="fill:none;stroke:#000;stroke-linecap:round;stroke-linejoin:round"/><polyline points="127.71 3.32 127.66 3.36 127.6 3.47 127.55 3.67 127.5 3.94 127.44 4.3 127.39 4.72 127.34 5.22 127.3 5.79 127.25 6.42 127.21 7.12 127.17 7.87 127.14 8.67 127.11 9.52 127.08 10.42 127.06 11.35 127.03 12.31 127.02 13.3 127.01 14.3 127 15.32 127 16.35 127 17.38 127 18.39 127.01 19.4 127.03 20.39 127.04 21.36 127.06 22.29 127.09 23.19 127.12 24.05 127.15 24.86 127.19 25.61 127.23 26.31 127.27 26.95 127.32 27.52 127.36 28.03 127.41 28.46 127.47 28.82 127.52 29.1 127.57 29.31 127.63 29.43 127.68 29.48 127.68 29.48" style="fill:none;stroke:#000;stroke-linecap:round;stroke-linejoin:round"/><polyline points="112.92 45.32 112.82 45.31 112.64 45.31 112.39 45.31 112.05 45.3 111.64 45.3 111.15 45.29 110.59 45.29 109.97 45.28 109.28 45.28 108.53 45.28 107.73 45.27 106.87 45.27 105.97 45.27 105.03 45.26 104.05 45.26 103.04 45.26 102 45.26 100.95 45.25 99.88 45.25 98.81 45.25 97.74 45.25 96.67 45.25 95.62 45.25 94.58 45.25 93.57 45.25 92.59 45.25 91.64 45.25 90.74 45.25 89.88 45.25 89.07 45.25 88.31 45.26 87.62 45.26 86.99 45.26 86.43 45.26 85.94 45.27 85.52 45.27 85.17 45.27 84.91 45.27 84.72 45.28 84.62 45.28 84.6 45.29 84.65 45.29 84.79 45.3 85.01 45.3 85.31 45.3 85.4 45.3" style="fill:none;stroke:#000;stroke-linecap:round;stroke-linejoin:round"/><polyline points="112.14 45.34 112.2 45.34 112.5 45.33 112.73 45.33 112.87 45.33 112.94 45.32 112.92 45.32" style="fill:none;stroke:#000;stroke-linecap:round;stroke-linejoin:round"/><line x1="113.28" y1="44.96" x2="113.3" y2="44.96" style="fill:none;stroke:#000;stroke-linecap:round;stroke-linejoin:round"/><path d="M113.28,45c-7.28-.1-21.76-.11-29,0" style="fill:none;stroke:#000;stroke-linecap:round;stroke-linejoin:round"/><path d="M113.32,33.75c-7.29-.1-21.78-.12-29.07,0" style="fill:none;stroke:#000;stroke-linecap:round;stroke-linejoin:round"/><path d="M111.8,32.81c-6.53-.09-19.51-.11-26,0" style="fill:none;stroke:#000;stroke-linecap:round;stroke-linejoin:round"/><line x1="115.6" y1="29.62" x2="115.36" y2="29.38" style="fill:none;stroke:#000;stroke-linecap:round;stroke-linejoin:round"/><polyline points="115.36 29.38 115.31 29.28 115.25 29.1 115.2 28.84 115.15 28.5 115.1 28.08 115.05 27.59 115 27.03 114.96 26.41 114.92 25.72 114.88 24.97 114.85 24.17 114.82 23.32 114.79 22.43 114.77 21.5 114.75 20.54 114.74 19.55 114.73 18.54 114.72 17.52 114.72 16.49 114.72 15.46 114.73 14.44 114.74 13.43 114.76 12.43 114.78 11.46 114.8 10.53 114.83 9.63 114.86 8.77 114.89 7.96 114.93 7.2 114.97 6.5 115.02 5.86 115.06 5.29 115.11 4.78 115.16 4.35 115.22 4 115.27 3.72 115.32 3.52 115.38 3.4 115.39 3.38" style="fill:none;stroke:#000;stroke-linecap:round;stroke-linejoin:round"/><line x1="115.6" y1="29.62" x2="115.6" y2="29.62" style="fill:none;stroke:#000;stroke-linecap:round;stroke-linejoin:round"/><line x1="113.2" y1="29.38" x2="115.36" y2="29.38" style="fill:none;stroke:#000;stroke-linecap:round;stroke-linejoin:round"/><path d="M113.2,29.38a1.47,1.47,0,0,0-1.45,1.22" style="fill:none;stroke:#000;stroke-linecap:round;stroke-linejoin:round"/><line x1="111.83" y1="30.85" x2="111.79" y2="30.85" style="fill:none;stroke:#000;stroke-linecap:round;stroke-linejoin:round"/><line x1="111.79" y1="30.85" x2="111.75" y2="30.85" style="fill:none;stroke:#000;stroke-linecap:round;stroke-linejoin:round"/><line x1="115.6" y1="29.62" x2="111.75" y2="30.85" style="fill:none;stroke:#000;stroke-linecap:round;stroke-linejoin:round"/><line x1="115.62" y1="29.64" x2="111.83" y2="30.85" style="fill:none;stroke:#000;stroke-linecap:round;stroke-linejoin:round"/><line x1="111.75" y1="30.85" x2="111.75" y2="30.6" style="fill:none;stroke:#000;stroke-linecap:round;stroke-linejoin:round"/><g id="LWPOLYLINE"><polyline points="188.19 20.18 188.1 20.2 187.96 20.28 187.76 20.42 187.5 20.61 187.19 20.86 186.84 21.16 186.43 21.51 185.97 21.91 185.47 22.36 184.93 22.86 184.34 23.39 183.72 23.97 183.07 24.59 182.39 25.23 181.68 25.91 180.95 26.61 180.2 27.34 179.44 28.08 178.66 28.84 177.88 29.61 177.1 30.39 176.32 31.16 175.55 31.94 174.79 32.71 174.04 33.47 173.31 34.22 172.6 34.95 171.93 35.66 171.27 36.34 170.66 36.99 170.08 37.61 169.53 38.19 169.04 38.73 168.58 39.23 168.18 39.69 167.82 40.1 167.52 40.46 167.27 40.77 167.07 41.02 166.93 41.22 166.85 41.37 166.82 41.46 166.85 41.49 166.94 41.47 167.09 41.38 167.28 41.25 167.54 41.05 167.85 40.81 168.21 40.51 168.62 40.16 169.07 39.75 169.57 39.3 170.12 38.81 170.7 38.27 171.32 37.69 171.97 37.08 172.65 36.43 173.36 35.76 174.09 35.05 174.84 34.33 175.6 33.58 176.38 32.83 177.16 32.06 177.94 31.28 178.72 30.5 179.49 29.73 180.25 28.95 181 28.19 181.73 27.45 182.44 26.72 183.12 26.01 183.77 25.33 184.38 24.68 184.97 24.06 185.51 23.48 186 22.93 186.46 22.43 186.86 21.98 187.22 21.57 187.52 21.21 187.77 20.9 187.97 20.64 188.11 20.44 188.19 20.3 188.22 20.21 188.19 20.18" style="fill:none;stroke:#000;stroke-linecap:round;stroke-linejoin:round"/></g><g id="LWPOLYLINE-2" data-name="LWPOLYLINE"><polyline points="176.82 30.78 176.1 31.5 175.39 32.22 174.69 32.93 174.01 33.63 173.35 34.31 172.72 34.97 172.12 35.6 171.54 36.2 171.01 36.77 170.52 37.3 170.07 37.8 169.66 38.24 169.31 38.65 169 39.01 168.75 39.31 168.55 39.56 168.41 39.77 168.32 39.91 168.29 40 168.31 40.03 168.4 40.01 168.54 39.92 168.73 39.79 168.98 39.6 169.28 39.35 169.64 39.05 170.04 38.7 170.48 38.3 170.97 37.86 171.5 37.37 172.07 36.84 172.68 36.28 173.31 35.68 173.96 35.05 174.64 34.4 175.34 33.72 176.05 33.03 176.77 32.32 177.49 31.6 178.22 30.88 178.94 30.16 179.65 29.44 180.35 28.73 181.03 28.04 181.69 27.36 182.32 26.7 182.93 26.07 183.5 25.47 184.03 24.9 184.52 24.36 184.97 23.87 185.38 23.42 185.73 23.02 186.04 22.66 186.29 22.36 186.49 22.1 186.63 21.9 186.72 21.76 186.75 21.67 186.73 21.64 186.64 21.66 186.5 21.74 186.31 21.88 186.06 22.07 185.76 22.32 185.41 22.62 185 22.96 184.56 23.36 184.07 23.81 183.54 24.29 182.97 24.82 182.37 25.39 181.74 25.98 181.08 26.61 180.4 27.27 179.7 27.94 178.99 28.64 178.27 29.35 177.55 30.06 176.82 30.78" style="fill:none;stroke:#000;stroke-linecap:round;stroke-linejoin:round"/></g><g id="SPLINE-16" data-name="SPLINE"><path d="M158.42,27.79l-.11.43h0l-.1.41h0q-.08.34-.15.64h0c0,.21-.08.4-.12.58h0c0,.17-.06.33-.08.48h0c0,.15,0,.29-.06.43" style="fill:none;stroke:#000;stroke-linecap:round;stroke-linejoin:round"/></g><g id="SPLINE-17" data-name="SPLINE"><path d="M166.65,18.48l-.53.53h0l-.82.83h0l-.84.86h0l-.83.87h0l-.78.84h0l-.76.84h0l-.75.85h0l-.71.83h0l-.61.75h0l-.57.72h0l-.07.09" style="fill:none;stroke:#000;stroke-linecap:round;stroke-linejoin:round"/></g><polyline points="142.77 32.33 142.76 32.33 142.7 32.28 142.64 32.16 142.58 31.95 142.52 31.67 142.47 31.3 142.41 30.87 142.36 30.35 142.31 29.77 142.26 29.12 142.21 28.4 142.17 27.63 142.13 26.79 142.09 25.9 142.06 24.97 142.03 23.99 142 22.97 141.98 21.92 141.96 20.84 141.94 19.74 141.94 18.62 141.93 17.49 141.93 16.35 141.93 15.22 141.94 14.09 141.95 12.97 141.97 11.87 141.99 10.8 142.02 9.75 142.04 8.73 142.08 7.76 142.11 6.83 142.15 5.95 142.19 5.12 142.24 4.35 142.29 3.64 142.34 2.99 142.39 2.42 142.45 1.91 142.5 1.48 142.56 1.13 142.62 0.85 142.68 0.65 142.74 0.54 142.8 0.5" style="fill:none;stroke:#000;stroke-linecap:round;stroke-linejoin:round"/><g id="SPLINE-18" data-name="SPLINE"><line x1="158.01" y1="23.05" x2="158" y2="21.68" style="fill:none;stroke:#000;stroke-linecap:round;stroke-linejoin:round"/></g><g id="LWPOLYLINE-3" data-name="LWPOLYLINE"><polyline points="158.01 23.05 157.92 23.24 157.76 23.42 157.53 23.58 157.25 23.72 156.92 23.84 156.55 23.92 156.16 23.97 155.76 23.99" style="fill:none;stroke:#000;stroke-linecap:round;stroke-linejoin:round"/></g><g id="SPLINE-19" data-name="SPLINE"><line x1="158.2" y1="21.63" x2="158.22" y2="23" style="fill:none;stroke:#000;stroke-linecap:round;stroke-linejoin:round"/></g><g id="SPLINE-20" data-name="SPLINE"><path d="M158.32,27.66l.47-.66h0l.52-.69h0l.58-.74h0l.63-.77h0l.69-.81h0l.72-.82h0l.78-.86h0l.8-.86h0l.8-.84h0l.81-.83h0l.84-.84h0l.84-.83" style="fill:none;stroke:#000;stroke-linecap:round;stroke-linejoin:round"/></g><g id="SPLINE-21" data-name="SPLINE"><path d="M158.22,23v.94h0q0,.5,0,1h0q0,.48,0,.95h0c0,.32,0,.62,0,.92h0c0,.3,0,.58,0,.87" style="fill:none;stroke:#000;stroke-linecap:round;stroke-linejoin:round"/></g><g id="ARC"><path d="M166.8,18.11a.2.2,0,0,0,.13.08" style="fill:none;stroke:#000;stroke-linecap:round;stroke-linejoin:round"/></g><g id="ARC-2" data-name="ARC"><path d="M158.42,27.79a.21.21,0,0,0-.1-.13" style="fill:none;stroke:#000;stroke-linecap:round;stroke-linejoin:round"/></g><g id="ARC-3" data-name="ARC"><path d="M158.2,21.63a.26.26,0,0,0-.2,0" style="fill:none;stroke:#000;stroke-linecap:round;stroke-linejoin:round"/></g><g id="SPLINE-22" data-name="SPLINE"><path d="M158,21.68c0-.65,0-1.31,0-2h0c0-.67,0-1.36,0-2h0c0-.38,0-.75,0-1.13h0c0-.38,0-.75,0-1.12h0q0-.57,0-1.14h0q0-.56,0-1.11h0q0-.52,0-1h0c0-.33,0-.66,0-1h0q0-.5,0-1h0q0-.47,0-.91h0c0-.28,0-.55,0-.82h0q0-.39,0-.76h0q0-.37,0-.71h0q0-.34,0-.64h0q0-.29.05-.54h0c0-.17,0-.32.05-.46h0c0-.14,0-.27.06-.39h0c0-.11,0-.21.06-.3h0a1.26,1.26,0,0,1,.06-.2h0l0,0" style="fill:none;stroke:#000;stroke-linecap:round;stroke-linejoin:round"/></g><g id="SPLINE-23" data-name="SPLINE"><line x1="158.78" y1="4.41" x2="158.82" y2="4.52" style="fill:none;stroke:#000;stroke-linecap:round;stroke-linejoin:round"/></g><g id="SPLINE-24" data-name="SPLINE"><path d="M158.11,27.72c0-.51,0-1,0-1.57h0c0-.56,0-1.15,0-1.77h0c0-.43,0-.87,0-1.32" style="fill:none;stroke:#000;stroke-linecap:round;stroke-linejoin:round"/></g><g id="SPLINE-25" data-name="SPLINE"><path d="M157.61,30.74c0-.25,0-.5.08-.79h0c0-.15,0-.31.07-.48h0c0-.17.06-.35.1-.54h0l.08-.43h0L158,28h0l.07-.32" style="fill:none;stroke:#000;stroke-linecap:round;stroke-linejoin:round"/></g><g id="ARC-4" data-name="ARC"><path d="M158.22,23a.24.24,0,0,0-.2.05" style="fill:none;stroke:#000;stroke-linecap:round;stroke-linejoin:round"/></g><g id="ARC-5" data-name="ARC"><path d="M158.32,27.66a.22.22,0,0,0-.21.06" style="fill:none;stroke:#000;stroke-linecap:round;stroke-linejoin:round"/></g><g id="ARC-6" data-name="ARC"><path d="M158.42,27.79a.53.53,0,0,0-.31-.07" style="fill:none;stroke:#000;stroke-linecap:round;stroke-linejoin:round"/></g><g id="ARC-7" data-name="ARC"><path d="M157.8,30.76a.19.19,0,0,0-.19,0" style="fill:none;stroke:#000;stroke-linecap:round;stroke-linejoin:round"/></g><polyline points="113.26 3.36 113.21 3.4 113.16 3.52 113.1 3.72 113.05 3.99 113 4.35 112.94 4.78 112.9 5.28 112.85 5.86 112.81 6.5 112.77 7.2 112.73 7.95 112.69 8.77 112.66 9.62 112.63 10.52 112.61 11.46 112.59 12.43 112.57 13.42 112.56 14.43 112.56 15.46 112.55 16.49 112.55 17.52 112.56 18.54 112.57 19.55 112.58 20.54 112.6 21.5 112.63 22.43 112.65 23.32 112.68 24.17 112.72 24.97 112.75 25.72 112.79 26.41 112.84 27.03 112.88 27.59 112.93 28.08 112.98 28.5 113.03 28.84 113.09 29.1 113.14 29.28 113.19 29.38" style="fill:none;stroke:#000;stroke-linecap:round;stroke-linejoin:round"/><line x1="111.79" y1="30.85" x2="111.81" y2="30.85" style="fill:none;stroke:#000;stroke-linecap:round;stroke-linejoin:round"/><path d="M111.79,30.85c-6.52-.09-19.5-.1-26,0" style="fill:none;stroke:#000;stroke-linecap:round;stroke-linejoin:round"/><g id="SPLINE-26" data-name="SPLINE"><path d="M157.8,30.76l0,.52h0c0,.16,0,.3,0,.42h0c0,.13,0,.24,0,.33h0a1.7,1.7,0,0,0,0,.22h0a.18.18,0,0,0,0,.1h0" style="fill:none;stroke:#000;stroke-linecap:round;stroke-linejoin:round"/></g><g id="LWPOLYLINE-4" data-name="LWPOLYLINE"><polyline points="178.52 10.46 178.49 10.45 178.41 10.47 178.26 10.55 178.06 10.69 177.81 10.88 177.5 11.13 177.14 11.44 176.73 11.79 176.27 12.19 175.76 12.65 175.22 13.14 174.63 13.68 174.01 14.26 173.35 14.88 172.67 15.53 171.96 16.21 171.22 16.91 170.47 17.64 169.71 18.39 168.93 19.15 168.15 19.92 167.37 20.7 166.59 21.48 165.81 22.26 165.05 23.03 164.3 23.79 163.57 24.54 162.86 25.27 162.18 25.98 161.53 26.66 160.92 27.31 160.34 27.93 159.8 28.51 159.3 29.05 158.85 29.55 158.45 30 158.1 30.41 157.8 30.76" style="fill:none;stroke:#000;stroke-linecap:round;stroke-linejoin:round"/></g><g id="SPLINE-27" data-name="SPLINE"><path d="M159.37,26.5l-.47.62h0l-.48.67" style="fill:none;stroke:#000;stroke-linecap:round;stroke-linejoin:round"/></g><g id="SPLINE-28" data-name="SPLINE"><path d="M157.3,32.33l-.06,0h0a.67.67,0,0,1-.13-.15h0a2.32,2.32,0,0,1-.14-.23h0c-.05-.09-.1-.2-.16-.32h0c-.05-.13-.11-.27-.16-.42h0q-.08-.24-.16-.52h0c-.05-.2-.11-.41-.16-.64h0q-.07-.34-.14-.73h0c0-.27-.09-.55-.12-.85h0c0-.3-.07-.61-.1-.93h0q-.08-.78-.12-1.66h0c0-.6-.06-1.23-.08-1.87" style="fill:none;stroke:#000;stroke-linecap:round;stroke-linejoin:round"/></g><g id="LWPOLYLINE-5" data-name="LWPOLYLINE"><polyline points="155.76 23.99 155.74 22.97 155.71 21.92 155.69 20.84 155.68 19.74 155.67 18.62 155.67 17.49 155.67 16.36 155.67 15.22 155.68 14.09 155.69 12.98 155.71 11.88 155.73 10.8 155.75 9.76 155.78 8.74 155.81 7.77 155.85 6.84 155.89 5.96 155.93 5.13 155.98 4.36 156.02 3.65 156.07 3.01 156.13 2.43 156.18 1.93 156.24 1.5 156.3 1.14 156.36 0.86 156.42 0.67 156.48 0.55 156.54 0.52" style="fill:none;stroke:#000;stroke-linecap:round;stroke-linejoin:round"/></g><g id="LWPOLYLINE-6" data-name="LWPOLYLINE"><polyline points="159.07 4.52 159.06 4.39 159 3.92 158.95 3.51 158.9 3.19 158.84 2.94 158.79 2.77 158.73 2.69 158.68 2.68 158.62 2.76 158.56 2.92 158.51 3.16 158.45 3.48 158.4 3.87 158.35 4.34 158.3 4.88 158.25 5.49 158.21 6.17 158.16 6.9 158.13 7.7 158.09 8.54 158.06 9.43 158.03 10.37 158.01 11.33 157.99 12.33 157.97 13.36 157.96 14.4 157.95 15.45 157.95 16.51 157.95 17.57 157.96 18.62 157.97 19.66 157.98 20.68 158 21.68" style="fill:none;stroke:#000;stroke-linecap:round;stroke-linejoin:round"/></g><g id="SPLINE-29" data-name="SPLINE"><path d="M158.85,4.51l0,0h0a.33.33,0,0,0-.06.11h0a1.9,1.9,0,0,0-.06.21h0c0,.08,0,.18-.05.29h0c0,.11,0,.23-.05.37h0c0,.14,0,.3-.05.46h0q0,.25-.05.55h0q0,.29,0,.61h0c0,.21,0,.44,0,.68h0c0,.24,0,.5,0,.77h0q0,.4,0,.83h0q0,.43,0,.88h0q0,.45,0,.93h0c0,.33,0,.66,0,1h0c0,.34,0,.68,0,1h0q0,.53,0,1.07h0q0,.54,0,1.09h0c0,.38,0,.76,0,1.14h0q0,.57,0,1.15h0c0,.66,0,1.32,0,2h0c0,.67,0,1.32,0,2" style="fill:none;stroke:#000;stroke-linecap:round;stroke-linejoin:round"/></g><g id="SPLINE-30" data-name="SPLINE"><path d="M166.8,18.11l.78-.76h0l.76-.74h0l.76-.73h0l.74-.7h0l.68-.64h0l.64-.6h0l.62-.57h0l.57-.52h0l.49-.44h0l.44-.38h0l.39-.33h0l.33-.27h0l.25-.19h0l.15-.1" style="fill:none;stroke:#000;stroke-linecap:round;stroke-linejoin:round"/></g><g id="SPLINE-31" data-name="SPLINE"><path d="M158.62,4.44l0-.08h0a0,0,0,0,1,.06,0h0s0,0,.06.07h0" style="fill:none;stroke:#000;stroke-linecap:round;stroke-linejoin:round"/></g><g id="SPLINE-32" data-name="SPLINE"><path d="M157.64,32.3a.07.07,0,0,1-.07,0h0a.86.86,0,0,1,0-.24h0c0-.11,0-.25,0-.41h0c0-.16,0-.35,0-.58h0l0-.29" style="fill:none;stroke:#000;stroke-linecap:round;stroke-linejoin:round"/></g><line x1="0.5" y1="118.82" x2="182.49" y2="205.25" style="fill:none;stroke:#000;stroke-linecap:round;stroke-linejoin:round"/><line x1="0.5" y1="169.82" x2="182.49" y2="256.25" style="fill:none;stroke:#000;stroke-linecap:round;stroke-linejoin:round"/><line x1="112.12" y1="161.82" x2="133.44" y2="171.33" style="fill:none;stroke:#000;stroke-linecap:round;stroke-linejoin:round"/><line x1="133.44" y1="171.33" x2="134.88" y2="175.43" style="fill:none;stroke:#000;stroke-linecap:round;stroke-linejoin:round"/><line x1="134.88" y1="175.43" x2="143.53" y2="179.25" style="fill:none;stroke:#000;stroke-linecap:round;stroke-linejoin:round"/><line x1="143.53" y1="179.25" x2="147.18" y2="188.29" style="fill:none;stroke:#000;stroke-linecap:round;stroke-linejoin:round"/><line x1="114.33" y1="162.7" x2="64.2" y2="139.53" style="fill:none;stroke:#000;stroke-linecap:round;stroke-linejoin:round"/><line x1="64.2" y1="139.53" x2="60.14" y2="141.09" style="fill:none;stroke:#000;stroke-linecap:round;stroke-linejoin:round"/><line x1="60.14" y1="141.09" x2="51.63" y2="136.97" style="fill:none;stroke:#000;stroke-linecap:round;stroke-linejoin:round"/><line x1="51.42" y1="136.95" x2="43.98" y2="139.33" style="fill:none;stroke:#000;stroke-linecap:round;stroke-linejoin:round"/><rect x="92.38" y="188.04" width="15.15" height="75.74" transform="translate(-146.98 218.74) rotate(-64.47)" style="fill:#fff;stroke:#000"/><circle cx="71.65" cy="211.93" r="3.37" transform="translate(-150.46 185.22) rotate(-64.46)" style="fill:#fff;stroke:#000"/><circle cx="80.77" cy="216.28" r="3.37" transform="translate(-149.21 195.96) rotate(-64.47)" style="fill:#fff;stroke:#000"/><circle cx="89.88" cy="220.63" r="3.37" transform="translate(-147.95 206.67) rotate(-64.48)" style="fill:#fff;stroke:#000"/><circle cx="98.99" cy="224.99" r="3.37" transform="translate(-146.69 217.34) rotate(-64.47)" style="fill:#fff;stroke:#000"/><circle cx="108.1" cy="229.34" r="3.37" transform="translate(-145.43 228.02) rotate(-64.46)" style="fill:#fff;stroke:#000"/><circle cx="117.22" cy="233.69" r="3.37" transform="translate(-144.17 238.78) rotate(-64.48)" style="fill:#fff;stroke:#000"/><circle cx="126.33" cy="238.04" r="3.37" transform="translate(-142.92 249.41) rotate(-64.46)" style="fill:#fff;stroke:#000"/><path d="M119.47,97.27V88.68h1.14v8.59Z"/><path d="M122.6,97.27V88.68h1.17l4.51,6.74V88.68h1.09v8.59H128.2l-4.51-6.75v6.75Z"/><path d="M133.46,97.27V89.7h-2.83v-1h6.81v1H134.6v7.58Z"/><path d="M136.78,97.27l3.3-8.59h1.22l3.52,8.59h-1.29l-1-2.6h-3.59l-.94,2.6Zm2.48-3.53h2.91l-.9-2.38q-.41-1.08-.61-1.78a11,11,0,0,1-.46,1.64Z"/><path d="M145.68,97.27V88.68h1.14v4.26l4.27-4.26h1.54L149,92.16l3.76,5.11h-1.5l-3.06-4.35-1.41,1.37v3Z"/><path d="M153.75,97.27V88.68H160v1h-5.07v2.63h4.75v1h-4.75v2.92h5.27v1Z"/><path d="M163.46,97.27l3.3-8.59H168l3.52,8.59H170.2l-1-2.6h-3.59l-.94,2.6Zm2.48-3.53h2.91l-.9-2.38q-.41-1.08-.61-1.78a11,11,0,0,1-.46,1.64Z"/><path d="M172.6,97.27V88.68h1.14v8.59Z"/><path d="M175.76,97.27V88.68h3.81a5.07,5.07,0,0,1,1.75.23,1.91,1.91,0,0,1,1,.82,2.44,2.44,0,0,1,.36,1.29,2.16,2.16,0,0,1-.59,1.54,3,3,0,0,1-1.83.8,3,3,0,0,1,.69.43,5.91,5.91,0,0,1,.94,1.14l1.49,2.34H181.9l-1.14-1.79q-.5-.77-.82-1.18a2.58,2.58,0,0,0-.58-.57,1.71,1.71,0,0,0-.52-.23,3.41,3.41,0,0,0-.63,0h-1.32v3.81Zm1.14-4.8h2.44a3.66,3.66,0,0,0,1.22-.16,1.3,1.3,0,0,0,.67-.52,1.39,1.39,0,0,0,.23-.77,1.28,1.28,0,0,0-.44-1,2.07,2.07,0,0,0-1.4-.39h-2.72Z"/><path d="M186.13,97.27l3.3-8.59h1.22l3.52,8.59h-1.29l-1-2.6h-3.59l-.94,2.6Zm2.48-3.53h2.91l-.9-2.38q-.41-1.08-.61-1.78a11,11,0,0,1-.46,1.64Z"/><path d="M195.07,97.27V88.68h1.17l4.51,6.74V88.68h1.09v8.59h-1.17l-4.51-6.75v6.75Z"/><path d="M203.75,97.27V88.68h3a7.18,7.18,0,0,1,1.53.12,2.91,2.91,0,0,1,1.26.62,3.49,3.49,0,0,1,1,1.47,5.76,5.76,0,0,1,.34,2,6,6,0,0,1-.23,1.73,4.21,4.21,0,0,1-.59,1.25,3.11,3.11,0,0,1-.78.78,3.19,3.19,0,0,1-1,.43,5.85,5.85,0,0,1-1.38.15Zm1.14-1h1.83a4.45,4.45,0,0,0,1.33-.16,1.91,1.91,0,0,0,.77-.45,2.71,2.71,0,0,0,.63-1.09,5.31,5.31,0,0,0,.23-1.66,4,4,0,0,0-.44-2.07,2.23,2.23,0,0,0-1.08-1,4.44,4.44,0,0,0-1.47-.18h-1.8Z"/><path d="M121.73,111.67l-3.33-8.59h1.23l2.23,6.24q.27.75.45,1.41.2-.7.46-1.41l2.32-6.24h1.16l-3.36,8.59Z"/><path d="M127.31,111.67v-8.59h6.21v1h-5.07v2.63h4.75v1h-4.75v2.92h5.27v1Z"/><path d="M135.28,111.67v-8.59h1.17l4.51,6.74v-6.74H142v8.59h-1.17l-4.51-6.75v6.75Z"/><path d="M146.14,111.67V104.1h-2.83v-1h6.81v1h-2.84v7.58Z"/><path d="M156.28,114.2a10.54,10.54,0,0,1-1.48-2.58,8.09,8.09,0,0,1-.15-5.73,11.23,11.23,0,0,1,1.63-3H157q-.71,1.22-.94,1.74a9.51,9.51,0,0,0-.56,1.69,9.8,9.8,0,0,0-.25,2.2A10.57,10.57,0,0,0,157,114.2Z"/><path d="M158.42,111.67v-8.59h6.21v1h-5.07v2.63h4.75v1h-4.75v2.92h5.27v1Z"/><path d="M165.53,111.67l3.32-4.48-2.93-4.11h1.35l1.56,2.2a12.53,12.53,0,0,1,.69,1.05,11.22,11.22,0,0,1,.68-1l1.73-2.28h1.24l-3,4,3.25,4.54H172l-2.16-3.06-.37-.57q-.29.47-.41.64l-2.16,3Z"/><path d="M174.44,111.67v-8.59h1.14v3.53H180v-3.53h1.14v8.59H180v-4h-4.46v4Z"/><path d="M182.13,111.67l3.3-8.59h1.22l3.52,8.59h-1.29l-1-2.6h-3.59l-.94,2.6Zm2.48-3.53h2.91l-.9-2.38q-.41-1.08-.61-1.78a11,11,0,0,1-.46,1.64Z"/><path d="M196.71,103.08h1.14v5a5.87,5.87,0,0,1-.29,2.06,2.51,2.51,0,0,1-1.06,1.24,3.75,3.75,0,0,1-2,.48,4.12,4.12,0,0,1-2-.42,2.37,2.37,0,0,1-1.1-1.2,5.74,5.74,0,0,1-.33-2.15v-5h1.14v5a4.83,4.83,0,0,0,.21,1.65,1.58,1.58,0,0,0,.71.82,2.48,2.48,0,0,0,1.24.29,2.37,2.37,0,0,0,1.79-.57,3.27,3.27,0,0,0,.53-2.19Z"/><path d="M199.35,108.91l1.07-.09a2.37,2.37,0,0,0,.35,1.06,1.94,1.94,0,0,0,.86.67,3.27,3.27,0,0,0,1.32.25,3.16,3.16,0,0,0,1.15-.19,1.59,1.59,0,0,0,.74-.53,1.23,1.23,0,0,0,.24-.74,1.12,1.12,0,0,0-.23-.71,1.74,1.74,0,0,0-.77-.51,15.12,15.12,0,0,0-1.53-.42,7.81,7.81,0,0,1-1.66-.54,2.33,2.33,0,0,1-.92-.8,2,2,0,0,1-.3-1.07,2.18,2.18,0,0,1,.37-1.22,2.29,2.29,0,0,1,1.08-.86,4.09,4.09,0,0,1,1.58-.29,4.31,4.31,0,0,1,1.68.31,2.43,2.43,0,0,1,1.12.91,2.6,2.6,0,0,1,.42,1.35l-1.09.08a1.76,1.76,0,0,0-.59-1.23,2.31,2.31,0,0,0-1.5-.42,2.4,2.4,0,0,0-1.5.38,1.13,1.13,0,0,0-.47.91,1,1,0,0,0,.33.76,4.53,4.53,0,0,0,1.71.61,11.34,11.34,0,0,1,1.9.55,2.6,2.6,0,0,1,1.11.88,2.13,2.13,0,0,1,.36,1.22,2.34,2.34,0,0,1-.39,1.29,2.58,2.58,0,0,1-1.13.94,3.93,3.93,0,0,1-1.66.34,4.94,4.94,0,0,1-2-.34,2.74,2.74,0,0,1-1.24-1A2.9,2.9,0,0,1,199.35,108.91Z"/><path d="M209.93,111.67V104.1H207.1v-1h6.81v1h-2.84v7.58Z"/><path d="M215.63,114.2h-.76a10.57,10.57,0,0,0,1.75-5.63,9.62,9.62,0,0,0-.25-2.19,9.19,9.19,0,0,0-.56-1.69,19.8,19.8,0,0,0-.94-1.76h.76a11.23,11.23,0,0,1,1.63,3,8.07,8.07,0,0,1-.16,5.73A10.73,10.73,0,0,1,215.63,114.2Z"/><path d="M224.37,111.67V104.1h-2.83v-1h6.81v1h-2.84v7.58Z"/><path d="M229.54,111.67v-8.59h6.21v1h-5.07v2.63h4.75v1h-4.75v2.92H236v1Z"/><path d="M237.54,111.67v-8.59h3.81a5.07,5.07,0,0,1,1.75.23,1.91,1.91,0,0,1,1,.82,2.44,2.44,0,0,1,.36,1.29,2.16,2.16,0,0,1-.59,1.54,3,3,0,0,1-1.83.8,3,3,0,0,1,.69.43,5.91,5.91,0,0,1,.94,1.14l1.49,2.34h-1.43l-1.14-1.79q-.5-.77-.82-1.18a2.58,2.58,0,0,0-.58-.57,1.71,1.71,0,0,0-.52-.23,3.41,3.41,0,0,0-.63,0h-1.32v3.81Zm1.14-4.8h2.44a3.66,3.66,0,0,0,1.22-.16,1.3,1.3,0,0,0,.67-.52,1.39,1.39,0,0,0,.23-.77,1.28,1.28,0,0,0-.44-1,2.07,2.07,0,0,0-1.4-.39h-2.72Z"/><path d="M246.15,111.67v-8.59h1.71l2,6.08q.28.85.41,1.27.15-.47.46-1.38l2.06-6h1.53v8.59h-1.1v-7.19l-2.5,7.19h-1l-2.48-7.31v7.31Z"/><path d="M256.38,111.67v-8.59h1.14v8.59Z"/><path d="M259.5,111.67v-8.59h1.17l4.51,6.74v-6.74h1.09v8.59h-1.17l-4.51-6.75v6.75Z"/><path d="M267.24,111.67l3.3-8.59h1.22l3.52,8.59H274l-1-2.6h-3.59l-.94,2.6Zm2.48-3.53h2.91l-.9-2.38q-.41-1.08-.61-1.78a11,11,0,0,1-.46,1.64Z"/><path d="M277.48,111.67V104.1h-2.83v-1h6.81v1h-2.84v7.58Z"/><path d="M282.82,111.67v-8.59H284v8.59Z"/><path d="M285.61,107.49a4.67,4.67,0,0,1,1.15-3.35,3.9,3.9,0,0,1,3-1.21,4.11,4.11,0,0,1,2.14.57,3.71,3.71,0,0,1,1.46,1.58,5.15,5.15,0,0,1,.5,2.31,5.06,5.06,0,0,1-.53,2.34,3.6,3.6,0,0,1-1.49,1.56,4.27,4.27,0,0,1-2.09.53,4.06,4.06,0,0,1-2.17-.59,3.77,3.77,0,0,1-1.45-1.6A4.85,4.85,0,0,1,285.61,107.49Zm1.17,0a3.44,3.44,0,0,0,.83,2.45,2.91,2.91,0,0,0,4.21,0,3.65,3.65,0,0,0,.83-2.56,4.4,4.4,0,0,0-.35-1.83,2.72,2.72,0,0,0-1-1.21,2.81,2.81,0,0,0-1.53-.43,2.91,2.91,0,0,0-2.08.83A3.7,3.7,0,0,0,286.79,107.51Z"/><path d="M295.28,111.67v-8.59h1.17l4.51,6.74v-6.74H302v8.59h-1.17l-4.51-6.75v6.75Z"/><path d="M303.57,108.91l1.07-.09a2.37,2.37,0,0,0,.35,1.06,1.94,1.94,0,0,0,.86.67,3.27,3.27,0,0,0,1.32.25,3.16,3.16,0,0,0,1.15-.19,1.59,1.59,0,0,0,.74-.53,1.23,1.23,0,0,0,.24-.74,1.12,1.12,0,0,0-.23-.71,1.74,1.74,0,0,0-.77-.51,15.12,15.12,0,0,0-1.53-.42,7.81,7.81,0,0,1-1.66-.54,2.33,2.33,0,0,1-.92-.8,2,2,0,0,1-.3-1.07,2.18,2.18,0,0,1,.37-1.22,2.29,2.29,0,0,1,1.08-.86,4.09,4.09,0,0,1,1.58-.29,4.31,4.31,0,0,1,1.68.31,2.43,2.43,0,0,1,1.12.91,2.6,2.6,0,0,1,.42,1.35l-1.09.08a1.76,1.76,0,0,0-.59-1.23,2.31,2.31,0,0,0-1.5-.42,2.4,2.4,0,0,0-1.5.38,1.13,1.13,0,0,0-.47.91,1,1,0,0,0,.33.76,4.53,4.53,0,0,0,1.71.61,11.34,11.34,0,0,1,1.9.55,2.6,2.6,0,0,1,1.11.88,2.13,2.13,0,0,1,.36,1.22,2.34,2.34,0,0,1-.39,1.29,2.58,2.58,0,0,1-1.13.94,3.93,3.93,0,0,1-1.66.34,4.94,4.94,0,0,1-2-.34,2.74,2.74,0,0,1-1.24-1A2.9,2.9,0,0,1,303.57,108.91Z"/><path d="M122.23,126.07V124h-3.73v-1l3.92-5.57h.86V123h1.16v1h-1.16v2.06Zm0-3v-3.87L119.54,123Z"/><path d="M125.53,123.82l1.11-.09a2,2,0,0,0,.57,1.22,1.55,1.55,0,0,0,1.08.41,1.68,1.68,0,0,0,1.29-.57,2.16,2.16,0,0,0,.53-1.52,2,2,0,0,0-.51-1.42,1.77,1.77,0,0,0-1.33-.52,1.84,1.84,0,0,0-.92.23,1.79,1.79,0,0,0-.64.6l-1-.13.83-4.41h4.27v1h-3.43l-.46,2.31a2.8,2.8,0,0,1,1.62-.54,2.57,2.57,0,0,1,1.9.78,2.72,2.72,0,0,1,.77,2,3.13,3.13,0,0,1-.68,2,2.72,2.72,0,0,1-2.26,1,2.78,2.78,0,0,1-1.91-.66A2.56,2.56,0,0,1,125.53,123.82Z"/><path d="M132.45,119a1.63,1.63,0,1,1,.48,1.15A1.56,1.56,0,0,1,132.45,119Zm.64,0a1,1,0,1,0,.29-.7A1,1,0,0,0,133.09,119Z"/><path d="M140.78,126.07v-8.59H147v1h-5.07v2.63h4.75v1h-4.75v2.92h5.27v1Z"/><path d="M148.72,126.07v-8.59h1.14v7.58h4.23v1Z"/><path d="M155.39,126.07v-8.59h3.22a4,4,0,0,1,1.58.26,2,2,0,0,1,.93.8,2.12,2.12,0,0,1,.34,1.13,2,2,0,0,1-.3,1,2.13,2.13,0,0,1-.9.79,2.24,2.24,0,0,1,1.2.78,2.09,2.09,0,0,1,.42,1.3,2.51,2.51,0,0,1-.25,1.12,2.17,2.17,0,0,1-.63.8,2.63,2.63,0,0,1-.94.42,5.72,5.72,0,0,1-1.39.14Zm1.14-5h1.86a4.14,4.14,0,0,0,1.08-.1,1.2,1.2,0,0,0,.65-.43,1.23,1.23,0,0,0,.22-.75,1.38,1.38,0,0,0-.21-.75,1,1,0,0,0-.59-.45,4.89,4.89,0,0,0-1.31-.12h-1.72Zm0,4h2.14a4.92,4.92,0,0,0,.77,0,1.85,1.85,0,0,0,.66-.23,1.24,1.24,0,0,0,.43-.48,1.49,1.49,0,0,0,.17-.72,1.43,1.43,0,0,0-.25-.83,1.3,1.3,0,0,0-.68-.5,4.23,4.23,0,0,0-1.26-.14h-2Z"/><path d="M163.1,121.89a4.67,4.67,0,0,1,1.15-3.35,3.9,3.9,0,0,1,3-1.21,4.11,4.11,0,0,1,2.14.57,3.71,3.71,0,0,1,1.46,1.58,5.15,5.15,0,0,1,.5,2.31,5.06,5.06,0,0,1-.53,2.34,3.6,3.6,0,0,1-1.49,1.56,4.27,4.27,0,0,1-2.09.53,4.06,4.06,0,0,1-2.17-.59,3.77,3.77,0,0,1-1.45-1.6A4.85,4.85,0,0,1,163.1,121.89Zm1.17,0a3.44,3.44,0,0,0,.83,2.45,2.91,2.91,0,0,0,4.21,0,3.65,3.65,0,0,0,.83-2.56,4.4,4.4,0,0,0-.35-1.83,2.72,2.72,0,0,0-1-1.21,2.81,2.81,0,0,0-1.53-.43,2.91,2.91,0,0,0-2.08.83A3.7,3.7,0,0,0,164.27,121.91Z"/><path d="M174.28,126.07,172,117.48h1.17l1.31,5.63q.21.88.36,1.76.33-1.38.39-1.59l1.63-5.8h1.37l1.23,4.35a23,23,0,0,1,.67,3q.16-.81.43-1.87l1.35-5.52H183l-2.36,8.59h-1.1l-1.81-6.54q-.23-.82-.27-1-.13.59-.25,1l-1.82,6.54Z"/><path d="M188.94,126.07l-2.28-8.59h1.17l1.31,5.63q.21.88.36,1.76.33-1.38.39-1.59l1.63-5.8h1.37l1.23,4.35a23,23,0,0,1,.67,3q.16-.81.43-1.87l1.35-5.52h1.14l-2.35,8.59h-1.1l-1.81-6.54q-.23-.82-.27-1-.13.59-.25,1l-1.82,6.54Z"/><path d="M199,126.07v-8.59h1.14v8.59Z"/><path d="M204.28,126.07V118.5h-2.83v-1h6.81v1h-2.84v7.58Z"/><path d="M209.46,126.07v-8.59h1.14V121h4.46v-3.53h1.14v8.59h-1.14v-4H210.6v4Z"/><path d="M221.44,126.07v-8.59h3.81a5.07,5.07,0,0,1,1.75.23,1.91,1.91,0,0,1,1,.82,2.44,2.44,0,0,1,.36,1.29,2.16,2.16,0,0,1-.59,1.54,3,3,0,0,1-1.83.8,3,3,0,0,1,.69.43,5.91,5.91,0,0,1,.94,1.14l1.49,2.34h-1.43l-1.14-1.79q-.5-.77-.82-1.18a2.58,2.58,0,0,0-.58-.57,1.71,1.71,0,0,0-.52-.23,3.41,3.41,0,0,0-.63,0h-1.32v3.81Zm1.14-4.8H225a3.66,3.66,0,0,0,1.22-.16,1.3,1.3,0,0,0,.67-.52,1.39,1.39,0,0,0,.23-.77,1.28,1.28,0,0,0-.44-1,2.07,2.07,0,0,0-1.4-.39h-2.72Z"/><path d="M230.11,126.07v-8.59h6.21v1h-5.07v2.63H236v1h-4.75v2.92h5.27v1Z"/><path d="M244.22,123.06l1.14.29a3.83,3.83,0,0,1-1.29,2.14,3.54,3.54,0,0,1-2.27.74,4.08,4.08,0,0,1-2.26-.57,3.53,3.53,0,0,1-1.32-1.64,5.84,5.84,0,0,1-.45-2.3,5.06,5.06,0,0,1,.51-2.34,3.51,3.51,0,0,1,1.46-1.52,4.26,4.26,0,0,1,2.08-.52A3.52,3.52,0,0,1,244,118a3.41,3.41,0,0,1,1.22,1.85l-1.12.26a2.65,2.65,0,0,0-.87-1.37,2.31,2.31,0,0,0-1.43-.43,2.78,2.78,0,0,0-1.66.47,2.51,2.51,0,0,0-.93,1.27,5.13,5.13,0,0,0-.27,1.65,5.24,5.24,0,0,0,.32,1.91,2.38,2.38,0,0,0,1,1.22,2.79,2.79,0,0,0,1.46.4,2.44,2.44,0,0,0,1.62-.55A2.82,2.82,0,0,0,244.22,123.06Z"/><path d="M246.78,126.07v-8.59H253v1h-5.07v2.63h4.75v1h-4.75v2.92h5.27v1Z"/><path d="M254.38,123.31l1.07-.09a2.37,2.37,0,0,0,.35,1.06,1.94,1.94,0,0,0,.86.67,3.27,3.27,0,0,0,1.32.25,3.16,3.16,0,0,0,1.15-.19,1.59,1.59,0,0,0,.74-.53,1.23,1.23,0,0,0,.24-.74,1.12,1.12,0,0,0-.23-.71,1.74,1.74,0,0,0-.77-.51,15.12,15.12,0,0,0-1.53-.42,7.81,7.81,0,0,1-1.66-.54,2.33,2.33,0,0,1-.92-.8,2,2,0,0,1-.3-1.07,2.18,2.18,0,0,1,.37-1.22,2.29,2.29,0,0,1,1.08-.86,4.09,4.09,0,0,1,1.58-.29,4.31,4.31,0,0,1,1.68.31,2.43,2.43,0,0,1,1.12.91,2.6,2.6,0,0,1,.42,1.35l-1.09.08a1.76,1.76,0,0,0-.59-1.23,2.31,2.31,0,0,0-1.5-.42,2.4,2.4,0,0,0-1.5.38,1.13,1.13,0,0,0-.47.91,1,1,0,0,0,.33.76,4.53,4.53,0,0,0,1.71.61,11.34,11.34,0,0,1,1.9.55,2.6,2.6,0,0,1,1.11.88,2.13,2.13,0,0,1,.36,1.22,2.34,2.34,0,0,1-.39,1.29,2.58,2.58,0,0,1-1.13.94,3.93,3.93,0,0,1-1.66.34,4.94,4.94,0,0,1-2-.34,2.74,2.74,0,0,1-1.24-1A2.9,2.9,0,0,1,254.38,123.31Z"/><path d="M262.38,123.31l1.07-.09a2.37,2.37,0,0,0,.35,1.06,1.94,1.94,0,0,0,.86.67,3.27,3.27,0,0,0,1.32.25,3.16,3.16,0,0,0,1.15-.19,1.59,1.59,0,0,0,.74-.53,1.23,1.23,0,0,0,.24-.74,1.12,1.12,0,0,0-.23-.71,1.74,1.74,0,0,0-.77-.51,15.12,15.12,0,0,0-1.53-.42,7.81,7.81,0,0,1-1.66-.54,2.33,2.33,0,0,1-.92-.8,2,2,0,0,1-.3-1.07,2.18,2.18,0,0,1,.37-1.22,2.29,2.29,0,0,1,1.08-.86,4.09,4.09,0,0,1,1.58-.29,4.31,4.31,0,0,1,1.68.31,2.43,2.43,0,0,1,1.12.91,2.6,2.6,0,0,1,.42,1.35l-1.09.08a1.76,1.76,0,0,0-.59-1.23,2.31,2.31,0,0,0-1.5-.42,2.4,2.4,0,0,0-1.5.38,1.13,1.13,0,0,0-.47.91,1,1,0,0,0,.33.76,4.53,4.53,0,0,0,1.71.61,11.34,11.34,0,0,1,1.9.55,2.6,2.6,0,0,1,1.11.88,2.13,2.13,0,0,1,.36,1.22,2.34,2.34,0,0,1-.39,1.29,2.58,2.58,0,0,1-1.13.94,3.93,3.93,0,0,1-1.66.34,4.94,4.94,0,0,1-2-.34,2.74,2.74,0,0,1-1.24-1A2.9,2.9,0,0,1,262.38,123.31Z"/><path d="M270.8,126.07v-8.59H277v1h-5.07v2.63h4.75v1h-4.75v2.92h5.27v1Z"/><path d="M278.78,126.07v-8.59h3a7.18,7.18,0,0,1,1.53.12,2.91,2.91,0,0,1,1.26.62,3.49,3.49,0,0,1,1,1.47,5.76,5.76,0,0,1,.34,2,6,6,0,0,1-.23,1.73,4.21,4.21,0,0,1-.59,1.25,3.11,3.11,0,0,1-.78.78,3.19,3.19,0,0,1-1,.43,5.85,5.85,0,0,1-1.38.15Zm1.14-1h1.83a4.45,4.45,0,0,0,1.33-.16,1.91,1.91,0,0,0,.77-.45,2.71,2.71,0,0,0,.63-1.09,5.31,5.31,0,0,0,.23-1.66,4,4,0,0,0-.44-2.07,2.23,2.23,0,0,0-1.08-1,4.44,4.44,0,0,0-1.47-.18h-1.8Z"/><path d="M119.28,140.47v-8.59h3a7.18,7.18,0,0,1,1.53.12,2.91,2.91,0,0,1,1.26.62,3.49,3.49,0,0,1,1,1.47,5.76,5.76,0,0,1,.34,2,6,6,0,0,1-.23,1.73,4.21,4.21,0,0,1-.59,1.25,3.11,3.11,0,0,1-.78.78,3.19,3.19,0,0,1-1,.43,5.85,5.85,0,0,1-1.38.15Zm1.14-1h1.83a4.45,4.45,0,0,0,1.33-.16,1.91,1.91,0,0,0,.77-.45,2.71,2.71,0,0,0,.63-1.09,5.31,5.31,0,0,0,.23-1.66,4,4,0,0,0-.44-2.07,2.23,2.23,0,0,0-1.08-1,4.44,4.44,0,0,0-1.47-.18h-1.8Z"/><path d="M128,140.47v-8.59h6.21v1h-5.07v2.63h4.75v1h-4.75v2.92h5.27v1Z"/><path d="M135.9,140.47v-8.59h3.22a4,4,0,0,1,1.58.26,2,2,0,0,1,.93.8,2.12,2.12,0,0,1,.34,1.13,2,2,0,0,1-.3,1,2.13,2.13,0,0,1-.9.79,2.24,2.24,0,0,1,1.2.78,2.09,2.09,0,0,1,.42,1.3,2.51,2.51,0,0,1-.25,1.12,2.17,2.17,0,0,1-.63.8,2.63,2.63,0,0,1-.94.42,5.72,5.72,0,0,1-1.39.14Zm1.14-5h1.86a4.14,4.14,0,0,0,1.08-.1,1.2,1.2,0,0,0,.65-.43,1.23,1.23,0,0,0,.22-.75,1.38,1.38,0,0,0-.21-.75,1,1,0,0,0-.59-.45,4.89,4.89,0,0,0-1.31-.12H137Zm0,4h2.14a4.92,4.92,0,0,0,.77,0,1.85,1.85,0,0,0,.66-.23,1.24,1.24,0,0,0,.43-.48,1.49,1.49,0,0,0,.17-.72,1.43,1.43,0,0,0-.25-.83,1.3,1.3,0,0,0-.68-.5,4.23,4.23,0,0,0-1.26-.14h-2Z"/><path d="M144,140.47v-8.59h3.81a5.07,5.07,0,0,1,1.75.23,1.91,1.91,0,0,1,1,.82,2.44,2.44,0,0,1,.36,1.29,2.16,2.16,0,0,1-.59,1.54,3,3,0,0,1-1.83.8,3,3,0,0,1,.69.43,5.91,5.91,0,0,1,.94,1.14l1.49,2.34h-1.43L149,138.69q-.5-.77-.82-1.18a2.58,2.58,0,0,0-.58-.57,1.71,1.71,0,0,0-.52-.23,3.41,3.41,0,0,0-.63,0h-1.32v3.81Zm1.14-4.8h2.44a3.66,3.66,0,0,0,1.22-.16,1.3,1.3,0,0,0,.67-.52,1.39,1.39,0,0,0,.23-.77,1.28,1.28,0,0,0-.44-1,2.07,2.07,0,0,0-1.4-.39h-2.72Z"/><path d="M152.81,140.47v-8.59h1.14v8.59Z"/><path d="M155.57,137.71l1.07-.09a2.37,2.37,0,0,0,.35,1.06,1.94,1.94,0,0,0,.86.67,3.27,3.27,0,0,0,1.32.25,3.16,3.16,0,0,0,1.15-.19,1.59,1.59,0,0,0,.74-.53,1.23,1.23,0,0,0,.24-.74,1.12,1.12,0,0,0-.23-.71,1.74,1.74,0,0,0-.77-.51,15.12,15.12,0,0,0-1.53-.42,7.81,7.81,0,0,1-1.66-.54,2.33,2.33,0,0,1-.92-.8,2,2,0,0,1-.3-1.07,2.18,2.18,0,0,1,.37-1.22,2.29,2.29,0,0,1,1.08-.86,4.09,4.09,0,0,1,1.58-.29,4.31,4.31,0,0,1,1.68.31,2.43,2.43,0,0,1,1.12.91,2.6,2.6,0,0,1,.42,1.35l-1.09.08a1.76,1.76,0,0,0-.59-1.23,2.31,2.31,0,0,0-1.5-.42,2.4,2.4,0,0,0-1.5.38,1.13,1.13,0,0,0-.47.91,1,1,0,0,0,.33.76,4.53,4.53,0,0,0,1.71.61,11.34,11.34,0,0,1,1.9.55,2.6,2.6,0,0,1,1.11.88,2.13,2.13,0,0,1,.36,1.22,2.34,2.34,0,0,1-.39,1.29,2.58,2.58,0,0,1-1.13.94,3.93,3.93,0,0,1-1.66.34,4.94,4.94,0,0,1-2-.34,2.74,2.74,0,0,1-1.24-1A2.9,2.9,0,0,1,155.57,137.71Z"/><path d="M166.9,137.71l1.07-.09a2.37,2.37,0,0,0,.35,1.06,1.94,1.94,0,0,0,.86.67,3.27,3.27,0,0,0,1.32.25,3.16,3.16,0,0,0,1.15-.19,1.59,1.59,0,0,0,.74-.53,1.23,1.23,0,0,0,.24-.74,1.12,1.12,0,0,0-.23-.71,1.74,1.74,0,0,0-.77-.51,15.12,15.12,0,0,0-1.53-.42,7.81,7.81,0,0,1-1.66-.54,2.33,2.33,0,0,1-.92-.8,2,2,0,0,1-.3-1.07,2.18,2.18,0,0,1,.37-1.22,2.29,2.29,0,0,1,1.08-.86,4.09,4.09,0,0,1,1.58-.29,4.31,4.31,0,0,1,1.68.31,2.43,2.43,0,0,1,1.12.91,2.6,2.6,0,0,1,.42,1.35l-1.09.08a1.76,1.76,0,0,0-.59-1.23,2.31,2.31,0,0,0-1.5-.42,2.4,2.4,0,0,0-1.5.38,1.13,1.13,0,0,0-.47.91,1,1,0,0,0,.33.76,4.53,4.53,0,0,0,1.71.61,11.34,11.34,0,0,1,1.9.55,2.6,2.6,0,0,1,1.11.88,2.13,2.13,0,0,1,.36,1.22,2.34,2.34,0,0,1-.39,1.29,2.58,2.58,0,0,1-1.13.94,3.93,3.93,0,0,1-1.66.34,4.94,4.94,0,0,1-2-.34,2.74,2.74,0,0,1-1.24-1A2.9,2.9,0,0,1,166.9,137.71Z"/><path d="M181.42,137.46l1.14.29a3.83,3.83,0,0,1-1.29,2.14,3.54,3.54,0,0,1-2.27.74,4.08,4.08,0,0,1-2.26-.57,3.53,3.53,0,0,1-1.32-1.64,5.84,5.84,0,0,1-.45-2.3,5.06,5.06,0,0,1,.51-2.34,3.51,3.51,0,0,1,1.46-1.52,4.26,4.26,0,0,1,2.08-.52,3.52,3.52,0,0,1,2.17.66,3.41,3.41,0,0,1,1.22,1.85l-1.12.26a2.65,2.65,0,0,0-.87-1.37,2.31,2.31,0,0,0-1.43-.43,2.78,2.78,0,0,0-1.66.47,2.51,2.51,0,0,0-.93,1.27,5.13,5.13,0,0,0-.27,1.65,5.24,5.24,0,0,0,.32,1.91,2.38,2.38,0,0,0,1,1.22,2.79,2.79,0,0,0,1.46.4,2.44,2.44,0,0,0,1.62-.55A2.82,2.82,0,0,0,181.42,137.46Z"/><path d="M184,140.47v-8.59h3.81a5.07,5.07,0,0,1,1.75.23,1.91,1.91,0,0,1,1,.82,2.44,2.44,0,0,1,.36,1.29,2.16,2.16,0,0,1-.59,1.54,3,3,0,0,1-1.83.8,3,3,0,0,1,.69.43,5.91,5.91,0,0,1,.94,1.14l1.49,2.34h-1.43L189,138.69q-.5-.77-.82-1.18a2.58,2.58,0,0,0-.58-.57,1.71,1.71,0,0,0-.52-.23,3.41,3.41,0,0,0-.63,0h-1.32v3.81Zm1.14-4.8h2.44a3.66,3.66,0,0,0,1.22-.16,1.3,1.3,0,0,0,.67-.52,1.39,1.39,0,0,0,.23-.77,1.28,1.28,0,0,0-.44-1,2.07,2.07,0,0,0-1.4-.39h-2.72Z"/><path d="M192.65,140.47v-8.59h6.21v1h-5.07v2.63h4.75v1h-4.75v2.92h5.27v1Z"/><path d="M200.65,140.47v-8.59h6.21v1h-5.07v2.63h4.75v1h-4.75v2.92h5.27v1Z"/><path d="M208.62,140.47v-8.59h1.17l4.51,6.74v-6.74h1.09v8.59h-1.17l-4.51-6.75v6.75Z"/><line x1="170.61" y1="85.28" x2="170.61" y2="56.41" style="fill:none;stroke:#000;stroke-width:2px"/><path d="M168.56,51.69c-1,3.31-1.92,5.46-3,8.11h10.09a79.19,79.19,0,0,1-3-8.11,59.14,59.14,0,0,1-2.06-8.83A59.24,59.24,0,0,1,168.56,51.69Z"/></svg>