<svg id="buttons" xmlns="http://www.w3.org/2000/svg" viewBox="0 0 225.67 130.31"><title>tank_temperature_setpoint_screen</title><rect x="0.5" y="0.5" width="224.67" height="129.31" style="fill:none;stroke:#000"/><rect x="1.37" y="0.64" width="223.38" height="15.46" style="stroke:#000"/><rect x="0.5" y="108.87" width="224.67" height="20.94" style="fill:none;stroke:#000"/><path d="M6.47,30.77V21.93H3.17V20.75h7.94v1.18H7.79v8.84Z"/><path d="M15.5,29.87a4.59,4.59,0,0,1-1.32.82,3.8,3.8,0,0,1-1.36.24A2.64,2.64,0,0,1,11,30.35a1.93,1.93,0,0,1-.64-1.49,2,2,0,0,1,.88-1.68,3,3,0,0,1,.89-.4,8.73,8.73,0,0,1,1.09-.18,11.25,11.25,0,0,0,2.19-.42c0-.17,0-.28,0-.32a1.36,1.36,0,0,0-.35-1.06,2.06,2.06,0,0,0-1.4-.42,2.17,2.17,0,0,0-1.28.3,1.86,1.86,0,0,0-.61,1.08l-1.2-.16a3,3,0,0,1,.54-1.25,2.36,2.36,0,0,1,1.09-.73,4.85,4.85,0,0,1,1.65-.26,4.36,4.36,0,0,1,1.51.22,2,2,0,0,1,.85.55,1.94,1.94,0,0,1,.38.84,6.93,6.93,0,0,1,.06,1.13v1.64a17.45,17.45,0,0,0,.08,2.17,2.74,2.74,0,0,0,.31.87H15.74A2.62,2.62,0,0,1,15.5,29.87Zm-.1-2.75a9,9,0,0,1-2,.46,4.63,4.63,0,0,0-1.07.25,1.07,1.07,0,0,0-.49.4,1.09,1.09,0,0,0,.2,1.4,1.6,1.6,0,0,0,1.09.33,2.54,2.54,0,0,0,1.26-.31,1.92,1.92,0,0,0,.81-.85,3,3,0,0,0,.2-1.23Z"/><path d="M18.55,30.77V23.51h1.11v1A2.61,2.61,0,0,1,22,23.34a3,3,0,0,1,1.21.24,1.9,1.9,0,0,1,.82.62,2.37,2.37,0,0,1,.38.91,7.06,7.06,0,0,1,.07,1.2v4.46H23.22V26.35a3.31,3.31,0,0,0-.14-1.12,1.18,1.18,0,0,0-.51-.59,1.62,1.62,0,0,0-.86-.22,2,2,0,0,0-1.36.5,2.46,2.46,0,0,0-.57,1.89v4Z"/><path d="M26.34,30.77v-10h1.23v5.71l2.91-3h1.59L29.3,26.2l3.06,4.57H30.84l-2.4-3.71-.87.83v2.88Z"/><path d="M39.68,30.77V21.93h-3.3V20.75h7.94v1.18H41v8.84Z"/><path d="M48.94,28.43l1.27.16a3.1,3.1,0,0,1-1.11,1.73,3.77,3.77,0,0,1-4.6-.37,3.83,3.83,0,0,1-.93-2.75,4,4,0,0,1,.94-2.84,3.19,3.19,0,0,1,2.45-1,3.1,3.1,0,0,1,2.38,1,3.94,3.94,0,0,1,.92,2.79q0,.11,0,.33H44.83a2.79,2.79,0,0,0,.68,1.83,2,2,0,0,0,1.52.64,1.88,1.88,0,0,0,1.16-.36A2.36,2.36,0,0,0,48.94,28.43Zm-4-2H49a2.46,2.46,0,0,0-.46-1.37A1.89,1.89,0,0,0,47,24.36a2,2,0,0,0-1.43.57A2.25,2.25,0,0,0,44.9,26.44Z"/><path d="M51.76,30.77V23.51h1.1v1a2.59,2.59,0,0,1,.91-.86,2.56,2.56,0,0,1,1.29-.32,2.39,2.39,0,0,1,1.32.33,1.79,1.79,0,0,1,.73.94,2.61,2.61,0,0,1,2.24-1.27,2.21,2.21,0,0,1,1.66.6,2.56,2.56,0,0,1,.58,1.84v5H60.37V26.19a3.37,3.37,0,0,0-.12-1.06,1,1,0,0,0-.43-.52,1.35,1.35,0,0,0-.74-.2,1.72,1.72,0,0,0-1.27.51,2.24,2.24,0,0,0-.51,1.63v4.22H56.07V26.05a2.07,2.07,0,0,0-.3-1.23,1.14,1.14,0,0,0-1-.41,1.79,1.79,0,0,0-1,.27,1.55,1.55,0,0,0-.64.8A4.5,4.5,0,0,0,53,27v3.77Z"/><path d="M63.42,33.55v-10h1.12v.94a2.76,2.76,0,0,1,.9-.83,2.46,2.46,0,0,1,1.21-.28,2.87,2.87,0,0,1,1.64.48,2.94,2.94,0,0,1,1.07,1.35,4.93,4.93,0,0,1,.36,1.91,4.85,4.85,0,0,1-.4,2,3,3,0,0,1-1.16,1.37,3,3,0,0,1-1.6.48,2.31,2.31,0,0,1-1.1-.26,2.52,2.52,0,0,1-.8-.66v3.53Zm1.11-6.37a3.16,3.16,0,0,0,.57,2.07,1.74,1.74,0,0,0,1.37.67,1.78,1.78,0,0,0,1.4-.69,3.29,3.29,0,0,0,.58-2.15A3.21,3.21,0,0,0,67.89,25a1.72,1.72,0,0,0-1.36-.69,1.77,1.77,0,0,0-1.39.73A3.29,3.29,0,0,0,64.53,27.18Z"/><path d="M76.17,28.43l1.27.16a3.1,3.1,0,0,1-1.11,1.73,3.77,3.77,0,0,1-4.6-.37,3.83,3.83,0,0,1-.93-2.75,4,4,0,0,1,.94-2.84,3.19,3.19,0,0,1,2.45-1,3.1,3.1,0,0,1,2.38,1,3.94,3.94,0,0,1,.92,2.79q0,.11,0,.33H72.07a2.79,2.79,0,0,0,.68,1.83,2,2,0,0,0,1.52.64,1.88,1.88,0,0,0,1.16-.36A2.36,2.36,0,0,0,76.17,28.43Zm-4-2h4.05a2.46,2.46,0,0,0-.46-1.37,1.89,1.89,0,0,0-1.52-.71,2,2,0,0,0-1.43.57A2.25,2.25,0,0,0,72.13,26.44Z"/><path d="M79,30.77V23.51h1.11v1.1a3,3,0,0,1,.78-1,1.37,1.37,0,0,1,.79-.25,2.4,2.4,0,0,1,1.26.4l-.42,1.14a1.76,1.76,0,0,0-.9-.27,1.17,1.17,0,0,0-.72.24,1.31,1.31,0,0,0-.46.67A4.79,4.79,0,0,0,80.21,27v3.8Z"/><path d="M88.39,29.87a4.59,4.59,0,0,1-1.32.82,3.8,3.8,0,0,1-1.36.24,2.64,2.64,0,0,1-1.84-.58,1.93,1.93,0,0,1-.64-1.49,2,2,0,0,1,.88-1.68,3,3,0,0,1,.89-.4,8.73,8.73,0,0,1,1.09-.18,11.25,11.25,0,0,0,2.19-.42c0-.17,0-.28,0-.32a1.36,1.36,0,0,0-.35-1.06,2.06,2.06,0,0,0-1.4-.42,2.17,2.17,0,0,0-1.28.3,1.86,1.86,0,0,0-.61,1.08l-1.2-.16A3,3,0,0,1,84,24.33a2.36,2.36,0,0,1,1.09-.73,4.85,4.85,0,0,1,1.65-.26,4.36,4.36,0,0,1,1.51.22,2,2,0,0,1,.85.55,1.94,1.94,0,0,1,.38.84,6.93,6.93,0,0,1,.06,1.13v1.64a17.45,17.45,0,0,0,.08,2.17,2.74,2.74,0,0,0,.31.87H88.64A2.62,2.62,0,0,1,88.39,29.87Zm-.1-2.75a9,9,0,0,1-2,.46,4.63,4.63,0,0,0-1.07.25,1.07,1.07,0,0,0-.49.4,1.09,1.09,0,0,0,.2,1.4A1.6,1.6,0,0,0,86,30a2.54,2.54,0,0,0,1.26-.31,1.92,1.92,0,0,0,.81-.85,3,3,0,0,0,.2-1.23Z"/><path d="M94.13,29.67l.18,1.09a4.57,4.57,0,0,1-.93.11,2.11,2.11,0,0,1-1-.21,1.19,1.19,0,0,1-.52-.56,4.41,4.41,0,0,1-.15-1.45V24.47h-.9v-1h.9v-1.8L92.89,21v2.54h1.24v1H92.89v4.25a2.14,2.14,0,0,0,.06.68.51.51,0,0,0,.21.24.82.82,0,0,0,.42.09A4,4,0,0,0,94.13,29.67Z"/><path d="M100.09,30.77V29.7a2.66,2.66,0,0,1-2.3,1.23,2.94,2.94,0,0,1-1.2-.25,2,2,0,0,1-.83-.62,2.32,2.32,0,0,1-.38-.91A6.24,6.24,0,0,1,95.3,28v-4.5h1.23v4a7.16,7.16,0,0,0,.08,1.3,1.28,1.28,0,0,0,.49.76,1.52,1.52,0,0,0,.93.28,2,2,0,0,0,1-.28,1.58,1.58,0,0,0,.69-.77,3.88,3.88,0,0,0,.2-1.42V23.51h1.23v7.26Z"/><path d="M103.1,30.77V23.51h1.11v1.1a3,3,0,0,1,.78-1,1.37,1.37,0,0,1,.79-.25,2.4,2.4,0,0,1,1.26.4l-.42,1.14a1.76,1.76,0,0,0-.9-.27,1.17,1.17,0,0,0-.72.24,1.31,1.31,0,0,0-.46.67,4.79,4.79,0,0,0-.21,1.44v3.8Z"/><path d="M112.75,28.43l1.27.16a3.1,3.1,0,0,1-1.11,1.73,3.77,3.77,0,0,1-4.6-.37,3.83,3.83,0,0,1-.93-2.75,4,4,0,0,1,.94-2.84,3.19,3.19,0,0,1,2.45-1,3.1,3.1,0,0,1,2.38,1,3.94,3.94,0,0,1,.92,2.79q0,.11,0,.33h-5.41a2.79,2.79,0,0,0,.68,1.83,2,2,0,0,0,1.52.64,1.88,1.88,0,0,0,1.16-.36A2.36,2.36,0,0,0,112.75,28.43Zm-4-2h4.05a2.46,2.46,0,0,0-.46-1.37,1.89,1.89,0,0,0-1.52-.71,2,2,0,0,0-1.43.57A2.25,2.25,0,0,0,108.71,26.44Z"/><path d="M188.05,30.77h-1.23V22.93a6.35,6.35,0,0,1-1.17.85,8.26,8.26,0,0,1-1.3.64V23.22a7.42,7.42,0,0,0,1.8-1.18,4.62,4.62,0,0,0,1.09-1.34h.79Z"/><path d="M191.21,25.83a9.16,9.16,0,0,1,.37-2.86,3.56,3.56,0,0,1,1.09-1.67,2.78,2.78,0,0,1,1.82-.59,3,3,0,0,1,1.42.32,2.71,2.71,0,0,1,1,.94,5,5,0,0,1,.62,1.49,9.9,9.9,0,0,1,.23,2.37,9.21,9.21,0,0,1-.36,2.85,3.55,3.55,0,0,1-1.08,1.67,2.78,2.78,0,0,1-1.82.59,2.75,2.75,0,0,1-2.28-1A6.6,6.6,0,0,1,191.21,25.83Zm1.26,0a6.28,6.28,0,0,0,.58,3.28,1.65,1.65,0,0,0,2.85,0,6.28,6.28,0,0,0,.58-3.28,6.27,6.27,0,0,0-.58-3.29,1.71,1.71,0,0,0-1.44-.81,1.58,1.58,0,0,0-1.35.72A6.36,6.36,0,0,0,192.47,25.83Z"/><path d="M199,28.12l1.23-.16a2.72,2.72,0,0,0,.72,1.51,1.78,1.78,0,0,0,1.24.46,2,2,0,0,0,1.47-.6,2,2,0,0,0,.6-1.49,1.89,1.89,0,0,0-.55-1.4,1.92,1.92,0,0,0-1.41-.55,3.53,3.53,0,0,0-.87.14l.14-1.08h.2a2.53,2.53,0,0,0,1.42-.41,1.4,1.4,0,0,0,.63-1.26,1.5,1.5,0,0,0-.46-1.12,1.63,1.63,0,0,0-1.18-.44,1.68,1.68,0,0,0-1.2.45,2.26,2.26,0,0,0-.62,1.35l-1.23-.22a3.16,3.16,0,0,1,1-1.92,3,3,0,0,1,2-.68,3.27,3.27,0,0,1,1.51.35,2.55,2.55,0,0,1,1.06,1,2.47,2.47,0,0,1,.37,1.29,2.11,2.11,0,0,1-.35,1.18,2.38,2.38,0,0,1-1,.85,2.32,2.32,0,0,1,1.38.85,2.59,2.59,0,0,1,.49,1.62,3,3,0,0,1-1,2.23,3.36,3.36,0,0,1-2.42.91,3.15,3.15,0,0,1-2.19-.79A3,3,0,0,1,199,28.12Z"/><path d="M207.07,22.47a1.9,1.9,0,1,1,.56,1.35A1.82,1.82,0,0,1,207.07,22.47Zm.75,0a1.16,1.16,0,1,0,.34-.82A1.11,1.11,0,0,0,207.82,22.47Z"/><path d="M212.94,30.77v-10h6.76v1.18h-5.43V25H219v1.18h-4.7v4.55Z"/><path d="M3.51,42.69a5.45,5.45,0,0,1,1.34-3.91,4.56,4.56,0,0,1,3.46-1.41,4.8,4.8,0,0,1,2.5.66,4.33,4.33,0,0,1,1.7,1.85,6,6,0,0,1,.58,2.69,5.91,5.91,0,0,1-.62,2.73,4.2,4.2,0,0,1-1.74,1.82,5,5,0,0,1-2.43.62,4.74,4.74,0,0,1-2.53-.68,4.4,4.4,0,0,1-1.69-1.87A5.66,5.66,0,0,1,3.51,42.69Zm1.37,0a4,4,0,0,0,1,2.85,3.2,3.2,0,0,0,2.44,1,3.2,3.2,0,0,0,2.46-1.05,4.26,4.26,0,0,0,1-3,5.13,5.13,0,0,0-.41-2.14A3.18,3.18,0,0,0,10.11,39a3.28,3.28,0,0,0-1.79-.5,3.39,3.39,0,0,0-2.42,1A4.32,4.32,0,0,0,4.88,42.71Z"/><path d="M14.65,50.35v-10h1.12v.94a2.76,2.76,0,0,1,.9-.83,2.46,2.46,0,0,1,1.21-.28,2.87,2.87,0,0,1,1.64.48A2.94,2.94,0,0,1,20.59,42,4.93,4.93,0,0,1,21,43.88a4.85,4.85,0,0,1-.4,2,3,3,0,0,1-1.16,1.37,3,3,0,0,1-1.6.48,2.31,2.31,0,0,1-1.1-.26,2.52,2.52,0,0,1-.8-.66v3.53ZM15.76,44a3.16,3.16,0,0,0,.57,2.07,1.74,1.74,0,0,0,1.37.67,1.78,1.78,0,0,0,1.4-.69,3.29,3.29,0,0,0,.58-2.15,3.21,3.21,0,0,0-.57-2.08,1.72,1.72,0,0,0-1.36-.69,1.77,1.77,0,0,0-1.39.73A3.29,3.29,0,0,0,15.76,44Z"/><path d="M27.41,45.23l1.27.16a3.1,3.1,0,0,1-1.11,1.73,3.35,3.35,0,0,1-2.08.62,3.32,3.32,0,0,1-2.53-1A3.83,3.83,0,0,1,22,44,4,4,0,0,1,23,41.16a3.19,3.19,0,0,1,2.45-1,3.1,3.1,0,0,1,2.38,1,3.94,3.94,0,0,1,.92,2.79q0,.11,0,.33H23.3A2.79,2.79,0,0,0,24,46.08a2,2,0,0,0,1.52.64,1.88,1.88,0,0,0,1.16-.36A2.36,2.36,0,0,0,27.41,45.23Zm-4-2h4.05A2.46,2.46,0,0,0,27,41.87a1.89,1.89,0,0,0-1.52-.71,2,2,0,0,0-1.43.57A2.25,2.25,0,0,0,23.37,43.24Z"/><path d="M30.21,47.57V40.31h1.11v1.1a3,3,0,0,1,.78-1,1.37,1.37,0,0,1,.79-.25,2.4,2.4,0,0,1,1.26.4l-.42,1.14a1.76,1.76,0,0,0-.9-.27,1.17,1.17,0,0,0-.72.24,1.31,1.31,0,0,0-.46.67,4.79,4.79,0,0,0-.21,1.44v3.8Z"/><path d="M39.62,46.67a4.59,4.59,0,0,1-1.32.82,3.8,3.8,0,0,1-1.36.24,2.64,2.64,0,0,1-1.84-.58,1.93,1.93,0,0,1-.64-1.49A2,2,0,0,1,35.35,44a3,3,0,0,1,.89-.4,8.73,8.73,0,0,1,1.09-.18A11.25,11.25,0,0,0,39.52,43c0-.17,0-.28,0-.32a1.36,1.36,0,0,0-.35-1.06,2.06,2.06,0,0,0-1.4-.42,2.17,2.17,0,0,0-1.28.3,1.86,1.86,0,0,0-.61,1.08l-1.2-.16a3,3,0,0,1,.54-1.25,2.36,2.36,0,0,1,1.09-.73A4.85,4.85,0,0,1,38,40.14a4.36,4.36,0,0,1,1.51.22,2,2,0,0,1,.85.55,1.94,1.94,0,0,1,.38.84,6.93,6.93,0,0,1,.06,1.13v1.64a17.45,17.45,0,0,0,.08,2.17,2.74,2.74,0,0,0,.31.87H39.87A2.62,2.62,0,0,1,39.62,46.67Zm-.1-2.75a9,9,0,0,1-2,.46,4.63,4.63,0,0,0-1.07.25A1.07,1.07,0,0,0,36,45a1.09,1.09,0,0,0,.2,1.4,1.6,1.6,0,0,0,1.09.33,2.54,2.54,0,0,0,1.26-.31,1.92,1.92,0,0,0,.81-.85,3,3,0,0,0,.2-1.23Z"/><path d="M45.36,46.47l.18,1.09a4.57,4.57,0,0,1-.93.11,2.11,2.11,0,0,1-1-.21,1.19,1.19,0,0,1-.52-.56,4.41,4.41,0,0,1-.15-1.45V41.27H42v-1h.9v-1.8l1.22-.74v2.54h1.24v1H44.12v4.25a2.14,2.14,0,0,0,.06.68.51.51,0,0,0,.21.24.82.82,0,0,0,.42.09A4,4,0,0,0,45.36,46.47Z"/><path d="M46.57,39V37.55H47.8V39Zm0,8.61V40.31H47.8v7.26Z"/><path d="M49.67,47.57V40.31h1.11v1a2.61,2.61,0,0,1,2.31-1.2,3,3,0,0,1,1.21.24,1.9,1.9,0,0,1,.82.62,2.37,2.37,0,0,1,.38.91,7.06,7.06,0,0,1,.07,1.2v4.46H54.34V43.15A3.31,3.31,0,0,0,54.2,42a1.18,1.18,0,0,0-.51-.59,1.62,1.62,0,0,0-.86-.22,2,2,0,0,0-1.36.5,2.46,2.46,0,0,0-.57,1.89v4Z"/><path d="M57.23,48.17l1.2.18a1.14,1.14,0,0,0,.42.81,2,2,0,0,0,1.25.34,2.2,2.2,0,0,0,1.32-.34,1.68,1.68,0,0,0,.63-1,7.86,7.86,0,0,0,.09-1.58,2.53,2.53,0,0,1-2,1,2.74,2.74,0,0,1-2.32-1.08A4.16,4.16,0,0,1,57,43.9,4.82,4.82,0,0,1,57.36,42a3,3,0,0,1,1.09-1.36,2.94,2.94,0,0,1,1.68-.48,2.6,2.6,0,0,1,2.12,1v-.87h1.13v6.28A6,6,0,0,1,63,49a2.52,2.52,0,0,1-1.09,1.12,3.79,3.79,0,0,1-1.84.41,3.47,3.47,0,0,1-2.1-.58A2,2,0,0,1,57.23,48.17Zm1-4.36a3.15,3.15,0,0,0,.57,2.08,1.87,1.87,0,0,0,2.84,0,3,3,0,0,0,.57-2,3,3,0,0,0-.59-2,1.83,1.83,0,0,0-1.43-.68,1.78,1.78,0,0,0-1.39.67A3,3,0,0,0,58.25,43.81Z"/><path d="M68.84,44.35l1.25-.11a2.76,2.76,0,0,0,.41,1.23,2.26,2.26,0,0,0,1,.78,3.82,3.82,0,0,0,1.54.3,3.68,3.68,0,0,0,1.34-.23,1.86,1.86,0,0,0,.86-.62,1.44,1.44,0,0,0,.28-.86,1.31,1.31,0,0,0-.27-.82,2,2,0,0,0-.9-.59,17.66,17.66,0,0,0-1.78-.49,9.14,9.14,0,0,1-1.93-.63,2.71,2.71,0,0,1-1.07-.93,2.29,2.29,0,0,1-.35-1.25,2.55,2.55,0,0,1,.43-1.42,2.67,2.67,0,0,1,1.26-1,4.77,4.77,0,0,1,1.84-.34,5,5,0,0,1,2,.36A2.83,2.83,0,0,1,76,38.79a3,3,0,0,1,.49,1.58l-1.27.1A2.05,2.05,0,0,0,74.55,39a2.7,2.7,0,0,0-1.75-.49,2.8,2.8,0,0,0-1.75.44A1.32,1.32,0,0,0,70.5,40a1.14,1.14,0,0,0,.39.89,5.28,5.28,0,0,0,2,.71,13.23,13.23,0,0,1,2.22.64,3,3,0,0,1,1.29,1,2.49,2.49,0,0,1,.42,1.43,2.73,2.73,0,0,1-.46,1.51A3,3,0,0,1,75,47.35a4.58,4.58,0,0,1-1.93.39,5.77,5.77,0,0,1-2.28-.4,3.19,3.19,0,0,1-1.44-1.19A3.38,3.38,0,0,1,68.84,44.35Z"/><path d="M83.44,45.23l1.27.16a3.1,3.1,0,0,1-1.11,1.73,3.77,3.77,0,0,1-4.6-.37A3.83,3.83,0,0,1,78.06,44,4,4,0,0,1,79,41.16a3.19,3.19,0,0,1,2.45-1,3.1,3.1,0,0,1,2.38,1,3.94,3.94,0,0,1,.92,2.79q0,.11,0,.33H79.33A2.79,2.79,0,0,0,80,46.08a2,2,0,0,0,1.52.64,1.88,1.88,0,0,0,1.16-.36A2.36,2.36,0,0,0,83.44,45.23Zm-4-2h4.05A2.46,2.46,0,0,0,83,41.87a1.89,1.89,0,0,0-1.52-.71,2,2,0,0,0-1.43.57A2.25,2.25,0,0,0,79.4,43.24Z"/><path d="M88.94,46.47l.18,1.09a4.57,4.57,0,0,1-.93.11,2.11,2.11,0,0,1-1-.21,1.19,1.19,0,0,1-.52-.56,4.41,4.41,0,0,1-.15-1.45V41.27h-.9v-1h.9v-1.8l1.22-.74v2.54h1.24v1H87.71v4.25a2.14,2.14,0,0,0,.06.68.51.51,0,0,0,.21.24.82.82,0,0,0,.42.09A4,4,0,0,0,88.94,46.47Z"/><path d="M94.19,47.57v-10H98a9.11,9.11,0,0,1,1.52.1,3,3,0,0,1,1.24.47,2.46,2.46,0,0,1,.8,1,3.26,3.26,0,0,1-.51,3.53,3.9,3.9,0,0,1-2.94.89H95.52v4.07Zm1.33-5.26h2.59a2.75,2.75,0,0,0,1.83-.48,1.71,1.71,0,0,0,.54-1.35,1.81,1.81,0,0,0-.32-1.08,1.49,1.49,0,0,0-.84-.59,5.68,5.68,0,0,0-1.24-.09H95.52Z"/><path d="M102.92,43.94A3.74,3.74,0,0,1,104,41a3.38,3.38,0,0,1,2.28-.81,3.26,3.26,0,0,1,2.45,1,3.73,3.73,0,0,1,1,2.71,4.8,4.8,0,0,1-.42,2.2,3,3,0,0,1-1.22,1.25,3.56,3.56,0,0,1-1.75.44,3.26,3.26,0,0,1-2.46-1A3.91,3.91,0,0,1,102.92,43.94Zm1.26,0a3.09,3.09,0,0,0,.61,2.09,2,2,0,0,0,3.06,0,3.16,3.16,0,0,0,.61-2.13,3,3,0,0,0-.61-2,2,2,0,0,0-3.05,0A3.08,3.08,0,0,0,104.18,43.94Z"/><path d="M111.17,39V37.55h1.23V39Zm0,8.61V40.31h1.23v7.26Z"/><path d="M114.27,47.57V40.31h1.11v1a2.61,2.61,0,0,1,2.31-1.2,3,3,0,0,1,1.21.24,1.9,1.9,0,0,1,.82.62,2.37,2.37,0,0,1,.38.91,7.06,7.06,0,0,1,.07,1.2v4.46h-1.23V43.15A3.31,3.31,0,0,0,118.8,42a1.18,1.18,0,0,0-.51-.59,1.62,1.62,0,0,0-.86-.22,2,2,0,0,0-1.36.5,2.46,2.46,0,0,0-.57,1.89v4Z"/><path d="M124.74,46.47l.18,1.09a4.57,4.57,0,0,1-.93.11,2.11,2.11,0,0,1-1-.21,1.19,1.19,0,0,1-.52-.56,4.41,4.41,0,0,1-.15-1.45V41.27h-.9v-1h.9v-1.8l1.22-.74v2.54h1.24v1h-1.24v4.25a2.14,2.14,0,0,0,.06.68.51.51,0,0,0,.21.24.82.82,0,0,0,.42.09A4,4,0,0,0,124.74,46.47Z"/><path d="M188.05,47.57h-1.23V39.73a6.35,6.35,0,0,1-1.17.85,8.26,8.26,0,0,1-1.3.64V40a7.42,7.42,0,0,0,1.8-1.18,4.62,4.62,0,0,0,1.09-1.34h.79Z"/><path d="M197.67,46.39v1.18H191a2.19,2.19,0,0,1,.14-.85,4.53,4.53,0,0,1,.81-1.33,12.72,12.72,0,0,1,1.61-1.52,13.65,13.65,0,0,0,2.21-2.12,2.54,2.54,0,0,0,.57-1.48,1.64,1.64,0,0,0-.52-1.23,1.88,1.88,0,0,0-1.36-.5,1.92,1.92,0,0,0-1.42.53,2,2,0,0,0-.54,1.48l-1.26-.13a3.11,3.11,0,0,1,1-2.16,3.33,3.33,0,0,1,2.28-.74,3.18,3.18,0,0,1,2.28.8,2.63,2.63,0,0,1,.84,2,3,3,0,0,1-.25,1.18,4.58,4.58,0,0,1-.82,1.22,19.88,19.88,0,0,1-1.9,1.76q-1.11.93-1.42,1.26a4,4,0,0,0-.52.67Z"/><path d="M199,42.63a9.16,9.16,0,0,1,.37-2.86,3.56,3.56,0,0,1,1.09-1.67,2.78,2.78,0,0,1,1.82-.59,3,3,0,0,1,1.42.32,2.71,2.71,0,0,1,1,.94,5,5,0,0,1,.62,1.49,9.9,9.9,0,0,1,.23,2.37,9.21,9.21,0,0,1-.36,2.85,3.55,3.55,0,0,1-1.08,1.67,2.78,2.78,0,0,1-1.82.59,2.75,2.75,0,0,1-2.28-1A6.6,6.6,0,0,1,199,42.63Zm1.26,0a6.28,6.28,0,0,0,.58,3.28,1.65,1.65,0,0,0,2.85,0,6.28,6.28,0,0,0,.58-3.28,6.27,6.27,0,0,0-.58-3.29,1.71,1.71,0,0,0-1.44-.81,1.58,1.58,0,0,0-1.35.72A6.36,6.36,0,0,0,200.26,42.63Z"/><path d="M207.07,39.27a1.9,1.9,0,1,1,.56,1.35A1.82,1.82,0,0,1,207.07,39.27Zm.75,0a1.16,1.16,0,1,0,.34-.82A1.11,1.11,0,0,0,207.82,39.27Z"/><path d="M212.94,47.57v-10h6.76v1.18h-5.43v3.1H219V43h-4.7v4.55Z"/><path d="M3.2,57.33l.71-.06a1.58,1.58,0,0,0,.24.71,1.29,1.29,0,0,0,.58.45,2.18,2.18,0,0,0,.88.17,2.11,2.11,0,0,0,.77-.13,1.06,1.06,0,0,0,.49-.35A.82.82,0,0,0,7,57.61a.75.75,0,0,0-.16-.47,1.16,1.16,0,0,0-.52-.34,10.1,10.1,0,0,0-1-.28,5.23,5.23,0,0,1-1.11-.36,1.55,1.55,0,0,1-.61-.53,1.31,1.31,0,0,1-.2-.71,1.46,1.46,0,0,1,.25-.81,1.52,1.52,0,0,1,.72-.57,2.72,2.72,0,0,1,1.05-.2,2.87,2.87,0,0,1,1.12.21,1.62,1.62,0,0,1,.75.6,1.74,1.74,0,0,1,.28.9l-.73.05a1.17,1.17,0,0,0-.4-.82,1.54,1.54,0,0,0-1-.28,1.6,1.6,0,0,0-1,.25.76.76,0,0,0-.31.61.65.65,0,0,0,.22.51,3,3,0,0,0,1.14.41,7.56,7.56,0,0,1,1.27.37,1.73,1.73,0,0,1,.74.58,1.42,1.42,0,0,1,.24.81,1.56,1.56,0,0,1-.26.86,1.72,1.72,0,0,1-.75.63,2.62,2.62,0,0,1-1.1.22A3.3,3.3,0,0,1,4.34,59a1.83,1.83,0,0,1-.82-.68A1.93,1.93,0,0,1,3.2,57.33Z"/><path d="M10.24,58.54l.1.62a2.62,2.62,0,0,1-.53.06,1.2,1.2,0,0,1-.59-.12.68.68,0,0,1-.3-.32A2.52,2.52,0,0,1,8.83,58V55.57H8.31V55h.52V54l.7-.42V55h.71v.55H9.53V58a1.22,1.22,0,0,0,0,.39.29.29,0,0,0,.12.14.47.47,0,0,0,.24.05Z"/><path d="M13.63,58.66a2.63,2.63,0,0,1-.75.47,2.17,2.17,0,0,1-.78.14,1.51,1.51,0,0,1-1.05-.33,1.1,1.1,0,0,1-.37-.85,1.16,1.16,0,0,1,.5-1,1.71,1.71,0,0,1,.51-.23,5,5,0,0,1,.63-.11,6.43,6.43,0,0,0,1.25-.24c0-.1,0-.16,0-.18a.78.78,0,0,0-.2-.61,1.18,1.18,0,0,0-.8-.24,1.24,1.24,0,0,0-.73.17,1.06,1.06,0,0,0-.35.62l-.69-.09a1.71,1.71,0,0,1,.31-.71,1.35,1.35,0,0,1,.62-.42,2.77,2.77,0,0,1,.94-.15,2.49,2.49,0,0,1,.86.13,1.14,1.14,0,0,1,.49.31,1.11,1.11,0,0,1,.22.48,4,4,0,0,1,0,.65v.94a10,10,0,0,0,0,1.24,1.56,1.56,0,0,0,.18.5h-.73A1.5,1.5,0,0,1,13.63,58.66Zm-.06-1.57a5.16,5.16,0,0,1-1.15.27,2.64,2.64,0,0,0-.61.14.61.61,0,0,0-.28.23.62.62,0,0,0,.12.8.92.92,0,0,0,.62.19,1.45,1.45,0,0,0,.72-.18,1.1,1.1,0,0,0,.46-.49,1.69,1.69,0,0,0,.11-.7Z"/><path d="M16.91,58.54l.1.62a2.62,2.62,0,0,1-.53.06,1.2,1.2,0,0,1-.59-.12.68.68,0,0,1-.3-.32A2.52,2.52,0,0,1,15.5,58V55.57H15V55h.52V54l.7-.42V55h.71v.55H16.2V58a1.22,1.22,0,0,0,0,.39.29.29,0,0,0,.12.14.47.47,0,0,0,.24.05Z"/><path d="M20.31,59.17v-.61a1.52,1.52,0,0,1-1.32.7,1.68,1.68,0,0,1-.69-.14,1.13,1.13,0,0,1-.47-.35,1.32,1.32,0,0,1-.22-.52,3.56,3.56,0,0,1,0-.66V55h.7v2.3a4.08,4.08,0,0,0,0,.74.73.73,0,0,0,.28.44.87.87,0,0,0,.53.16,1.16,1.16,0,0,0,.59-.16.9.9,0,0,0,.39-.44,2.22,2.22,0,0,0,.12-.81V55h.7v4.15Z"/><path d="M21.76,57.93l.7-.11a1,1,0,0,0,.33.64,1.14,1.14,0,0,0,.75.22,1.1,1.1,0,0,0,.72-.2.59.59,0,0,0,.23-.46.43.43,0,0,0-.21-.37,3,3,0,0,0-.72-.24,6.56,6.56,0,0,1-1.07-.34,1,1,0,0,1-.61-1,1.07,1.07,0,0,1,.13-.51,1.13,1.13,0,0,1,.35-.39A1.46,1.46,0,0,1,22.8,55a2.12,2.12,0,0,1,.61-.08,2.4,2.4,0,0,1,.86.14,1.17,1.17,0,0,1,.54.38,1.49,1.49,0,0,1,.24.64l-.69.09a.75.75,0,0,0-.27-.5,1,1,0,0,0-.63-.18,1.15,1.15,0,0,0-.69.16.47.47,0,0,0-.21.38.39.39,0,0,0,.09.25.62.62,0,0,0,.27.19l.62.18a8.68,8.68,0,0,1,1,.33,1.05,1.05,0,0,1,.46.37,1,1,0,0,1,.17.6,1.18,1.18,0,0,1-.21.66,1.33,1.33,0,0,1-.59.48,2.15,2.15,0,0,1-.87.17,2,2,0,0,1-1.23-.34A1.56,1.56,0,0,1,21.76,57.93Z"/><path d="M26.24,55.82V55H27v.8Zm0,3.35v-.8H27v.8Z"/><path d="M30.6,59.17V53.44h.76v2.35h3V53.44h.76v5.73h-.76v-2.7h-3v2.7Z"/><path d="M39.11,57.83l.73.09a1.77,1.77,0,0,1-.64,1,2.16,2.16,0,0,1-2.63-.21A2.19,2.19,0,0,1,36,57.13a2.29,2.29,0,0,1,.54-1.62,1.83,1.83,0,0,1,1.4-.58,1.77,1.77,0,0,1,1.36.57,2.25,2.25,0,0,1,.53,1.59s0,.1,0,.19H36.76a1.59,1.59,0,0,0,.39,1,1.15,1.15,0,0,0,.87.36,1.08,1.08,0,0,0,.66-.2A1.35,1.35,0,0,0,39.11,57.83ZM36.8,56.7h2.32a1.4,1.4,0,0,0-.27-.79A1.08,1.08,0,0,0,38,55.5a1.12,1.12,0,0,0-.81.32A1.28,1.28,0,0,0,36.8,56.7Z"/><path d="M43.42,58.66a2.63,2.63,0,0,1-.75.47,2.17,2.17,0,0,1-.78.14,1.51,1.51,0,0,1-1.05-.33,1.1,1.1,0,0,1-.37-.85,1.16,1.16,0,0,1,.5-1,1.71,1.71,0,0,1,.51-.23,5,5,0,0,1,.63-.11,6.43,6.43,0,0,0,1.25-.24c0-.1,0-.16,0-.18a.78.78,0,0,0-.2-.61,1.18,1.18,0,0,0-.8-.24,1.24,1.24,0,0,0-.73.17,1.06,1.06,0,0,0-.35.62l-.69-.09a1.71,1.71,0,0,1,.31-.71,1.35,1.35,0,0,1,.62-.42,2.77,2.77,0,0,1,.94-.15,2.49,2.49,0,0,1,.86.13,1.14,1.14,0,0,1,.49.31,1.11,1.11,0,0,1,.22.48,4,4,0,0,1,0,.65v.94a10,10,0,0,0,0,1.24,1.56,1.56,0,0,0,.18.5h-.73A1.5,1.5,0,0,1,43.42,58.66Zm-.06-1.57a5.16,5.16,0,0,1-1.15.27,2.64,2.64,0,0,0-.61.14.61.61,0,0,0-.28.23.62.62,0,0,0,.12.8.92.92,0,0,0,.62.19,1.45,1.45,0,0,0,.72-.18,1.1,1.1,0,0,0,.46-.49,1.69,1.69,0,0,0,.11-.7Z"/><path d="M46.7,58.54l.1.62a2.62,2.62,0,0,1-.53.06,1.2,1.2,0,0,1-.59-.12.68.68,0,0,1-.3-.32,2.52,2.52,0,0,1-.09-.83V55.57h-.52V55h.52V54l.7-.42V55h.71v.55H46V58a1.22,1.22,0,0,0,0,.39.29.29,0,0,0,.12.14.47.47,0,0,0,.24.05Z"/><path d="M47.39,54.25v-.81h.7v.81Zm0,4.92V55h.7v4.15Z"/><path d="M49.17,59.17V55h.63v.59a1.49,1.49,0,0,1,1.32-.68,1.73,1.73,0,0,1,.69.13,1.08,1.08,0,0,1,.47.35,1.36,1.36,0,0,1,.22.52,4,4,0,0,1,0,.68v2.55h-.7V56.64a1.89,1.89,0,0,0-.08-.64.68.68,0,0,0-.29-.34.93.93,0,0,0-.49-.13,1.14,1.14,0,0,0-.78.29,1.41,1.41,0,0,0-.33,1.08v2.27Z"/><path d="M53.49,59.51l.68.1a.65.65,0,0,0,.24.46,1.17,1.17,0,0,0,.71.2,1.25,1.25,0,0,0,.75-.2,1,1,0,0,0,.36-.55,4.49,4.49,0,0,0,.05-.9,1.45,1.45,0,0,1-1.15.54,1.57,1.57,0,0,1-1.32-.62,2.38,2.38,0,0,1-.47-1.48,2.76,2.76,0,0,1,.21-1.1,1.72,1.72,0,0,1,.62-.78,1.68,1.68,0,0,1,1-.27,1.49,1.49,0,0,1,1.21.59V55H57v3.59A3.4,3.4,0,0,1,56.8,60a1.44,1.44,0,0,1-.62.64,2.17,2.17,0,0,1-1.05.23,2,2,0,0,1-1.2-.33A1.13,1.13,0,0,1,53.49,59.51ZM54.07,57a1.8,1.8,0,0,0,.32,1.19,1,1,0,0,0,.81.38,1,1,0,0,0,.81-.37A1.74,1.74,0,0,0,56.35,57,1.7,1.7,0,0,0,56,55.89a1,1,0,0,0-.81-.39,1,1,0,0,0-.8.38A1.69,1.69,0,0,0,54.07,57Z"/><path d="M22.62,122.7v-7.87h1.57L26,120.4q.26.78.38,1.17.13-.43.42-1.26l1.89-5.48h1.4v7.87h-1v-6.59l-2.29,6.59H25.9L23.62,116v6.7Z"/><path d="M31.83,122.7v-7.87h5.69v.93H32.88v2.41h4.36v.92H32.88v2.68h4.83v.93Z"/><path d="M39.14,122.7v-7.87h1.07L44.34,121v-6.18h1v7.87H44.27l-4.14-6.19v6.19Z"/><path d="M52.26,114.83h1v4.55a5.38,5.38,0,0,1-.27,1.88,2.3,2.3,0,0,1-1,1.14,3.43,3.43,0,0,1-1.84.44,3.78,3.78,0,0,1-1.81-.38,2.18,2.18,0,0,1-1-1.1,5.26,5.26,0,0,1-.3-2v-4.55h1v4.54a4.42,4.42,0,0,0,.19,1.51,1.45,1.45,0,0,0,.66.75,2.28,2.28,0,0,0,1.14.26,2.17,2.17,0,0,0,1.64-.52,3,3,0,0,0,.49-2Z"/><path d="M172.68,122.7v-7.87h1v3.23h4.09v-3.23h1v7.87h-1V119h-4.09v3.71Z"/><path d="M180.62,122.7v-7.87h5.69v.93h-4.65v2.41H186v.92h-4.36v2.68h4.83v.93Z"/><path d="M187.89,122.7v-7.87h1v6.94h3.88v.93Z"/><path d="M194,122.7v-7.87h3a7.19,7.19,0,0,1,1.2.08,2.38,2.38,0,0,1,1,.37,1.92,1.92,0,0,1,.63.76,2.56,2.56,0,0,1-.4,2.77,3.06,3.06,0,0,1-2.31.7h-2v3.2Zm1-4.13h2a2.16,2.16,0,0,0,1.43-.37,1.34,1.34,0,0,0,.42-1.06,1.43,1.43,0,0,0-.25-.85,1.18,1.18,0,0,0-.66-.46,4.43,4.43,0,0,0-1-.07h-2Z"/><path d="M60.34,87.49c-2.46,2.46-9.61,5.13-12.37,2.36s-.09-9.91,2.36-12.37S57,75.28,59.78,78,62.79,85,60.34,87.49Z" style="isolation:isolate"/><path d="M50.12,77.28c-2.53,2.53-5.32,9.83-2.36,12.79a5,5,0,0,0,3.66,1.26,15,15,0,0,0,9.13-3.62h0a6.19,6.19,0,0,0,1.78-4.42A7.79,7.79,0,0,0,60,77.83C57.12,75,52.69,74.71,50.12,77.28ZM48.17,89.64c-2.58-2.57,0-9.6,2.36-12s6.39-2.09,9,.56a7.2,7.2,0,0,1,2.16,5,5.61,5.61,0,0,1-1.61,4h0a14.31,14.31,0,0,1-8.71,3.45A4.42,4.42,0,0,1,48.17,89.64Z" style="fill:#fff"/><path d="M35.61,92.25c2.46-2.46,9.61-5.13,12.37-2.36s.09,9.91-2.36,12.37-6.69,2.21-9.45-.56S33.15,94.71,35.61,92.25Z" style="isolation:isolate"/><path d="M44.53,88.42A15,15,0,0,0,35.4,92h0a6.19,6.19,0,0,0-1.78,4.43,8,8,0,0,0,7.78,7.77,6.2,6.2,0,0,0,4.43-1.78A14.74,14.74,0,0,0,49,96.26c.76-2.94.45-5.28-.85-6.58A5,5,0,0,0,44.53,88.42Zm-8.16,13.07a7.2,7.2,0,0,1-2.16-5,5.61,5.61,0,0,1,1.6-4h0A14.32,14.32,0,0,1,44.53,89a4.41,4.41,0,0,1,3.24,1.09c2.58,2.57,0,9.59-2.36,12a5.62,5.62,0,0,1-4,1.6A7.2,7.2,0,0,1,36.37,101.49Z" style="fill:#fff"/><path d="M45.62,77.58C48.07,80,50.74,87.19,48,90s-9.91.09-12.37-2.36-2.21-6.69.56-9.45S43.16,75.13,45.62,77.58Z" style="isolation:isolate"/><path d="M41.4,75.6A7.8,7.8,0,0,0,36,77.93c-2.87,2.87-3.12,7.3-.56,9.87s9.83,5.32,12.79,2.36a5,5,0,0,0,1.26-3.66,15,15,0,0,0-3.62-9.13h0A6.19,6.19,0,0,0,41.4,75.6Zm.35,14.85a14.16,14.16,0,0,1-5.94-3.06c-2.34-2.34-2.09-6.39.56-9a7.2,7.2,0,0,1,5-2.16,5.61,5.61,0,0,1,4,1.61h0a14.31,14.31,0,0,1,3.45,8.71,4.41,4.41,0,0,1-1.09,3.24C46.22,91.3,43.33,90.85,41.75,90.44Z" style="fill:#fff"/><path d="M50.4,102.23c-2.46-2.46-5.13-9.61-2.36-12.37s9.91-.09,12.37,2.36,2.21,6.69-.56,9.45S52.86,104.69,50.4,102.23Z" style="isolation:isolate"/><path d="M47.83,89.66a5,5,0,0,0-1.26,3.66,15,15,0,0,0,3.62,9.13h0a6.2,6.2,0,0,0,4.43,1.78,8,8,0,0,0,7.78-7.78A6.2,6.2,0,0,0,60.62,92a14.77,14.77,0,0,0-6.21-3.21C51.48,88,49.14,88.35,47.83,89.66ZM50.61,102a14.3,14.3,0,0,1-3.45-8.71,4.42,4.42,0,0,1,1.09-3.24c1.56-1.56,4.44-1.11,6-.7a14.14,14.14,0,0,1,5.94,3.06,5.61,5.61,0,0,1,1.61,4,7.39,7.39,0,0,1-7.19,7.19,5.61,5.61,0,0,1-4-1.61Z" style="fill:#fff"/><circle cx="48.01" cy="89.9" r="2.95" style="isolation:isolate"/><path d="M44.76,89.9A3.24,3.24,0,1,0,48,86.66,3.25,3.25,0,0,0,44.76,89.9Zm.59,0A2.65,2.65,0,1,1,48,92.56,2.66,2.66,0,0,1,45.35,89.9Z" style="fill:#fff"/><rect x="51.64" y="94.23" width="11.5" height="11.5" style="fill:#fff;stroke:#000"/><path d="M52.66,101.1c.9.79,2.25,2.7,2.82,3.16a41.56,41.56,0,0,1,6.31-8.68c-3,1-6.31,6.65-6.31,6.65l-1.24-1.46Z"/><path d="M178.06,105.73c-1.24-3.22-3.95-5.49-5.81-6.85a8.12,8.12,0,0,1-.89-11.53c2.7-3.21,3.16-4.91,3-9a7.3,7.3,0,0,0-.93-3.22s8.22,3.53,10.87,9.81,1.43,10.3-1.54,13.52A33.13,33.13,0,0,0,178.06,105.73Z"/><path d="M178,105.49a14,14,0,0,0-4.13-5.74,5.51,5.51,0,0,1-.94-8.18c2-2.43,4.5-4.64,4.36-7.78a5.52,5.52,0,0,0-.71-2.44,26.2,26.2,0,0,1,6.13,8.36c2,4.76,1.3,7.54-.94,10A27.88,27.88,0,0,0,178,105.49Z" style="fill:#fff;stroke:#000"/><circle cx="138.47" cy="93.94" r="11.79" style="fill:#fff;stroke:#000"/><polygon points="148.9 93.41 146.09 96 146.09 90.6 148.9 93.41"/><path d="M132.27,93.83V93h2.18v2a2.76,2.76,0,0,1-.92.54,3.35,3.35,0,0,1-1.22.23,2.74,2.74,0,0,1-1.37-.33,2.09,2.09,0,0,1-.88-.94,3,3,0,0,1-.29-1.33,2.89,2.89,0,0,1,.33-1.39,2.21,2.21,0,0,1,1-.93,2.6,2.6,0,0,1,1.2-.25,2.4,2.4,0,0,1,1.46.39,1.77,1.77,0,0,1,.67,1.08l-1,.19a1.06,1.06,0,0,0-.4-.58,1.2,1.2,0,0,0-.73-.21,1.37,1.37,0,0,0-1.05.42,1.77,1.77,0,0,0-.39,1.25,2,2,0,0,0,.4,1.34,1.32,1.32,0,0,0,1,.45,1.74,1.74,0,0,0,.64-.12,2.16,2.16,0,0,0,.55-.3v-.63Z"/><path d="M139.9,95.67h-1.1l-.44-1.14h-2l-.41,1.14h-1.07l2-5h1.07Zm-1.86-2-.69-1.86-.68,1.86Z"/><path d="M140.18,94l1-.1a1.21,1.21,0,0,0,.36.73,1.09,1.09,0,0,0,.73.23,1.13,1.13,0,0,0,.74-.21.62.62,0,0,0,.25-.48.46.46,0,0,0-.1-.3.83.83,0,0,0-.36-.22l-.81-.22a2.76,2.76,0,0,1-1.14-.5,1.31,1.31,0,0,1-.46-1,1.29,1.29,0,0,1,.22-.72,1.35,1.35,0,0,1,.63-.51,2.51,2.51,0,0,1,1-.17,2.12,2.12,0,0,1,1.42.41,1.46,1.46,0,0,1,.5,1.1l-1,0a.86.86,0,0,0-.28-.56,1,1,0,0,0-.64-.17,1.16,1.16,0,0,0-.69.18.37.37,0,0,0-.16.31.38.38,0,0,0,.15.3,2.67,2.67,0,0,0,.93.34,4.85,4.85,0,0,1,1.09.36,1.4,1.4,0,0,1,.55.51A1.58,1.58,0,0,1,144,95a1.43,1.43,0,0,1-.68.56,2.84,2.84,0,0,1-1.09.18,2.17,2.17,0,0,1-1.46-.44A1.91,1.91,0,0,1,140.18,94Z"/><path d="M131.78,78.86a3.19,3.19,0,0,1,.23-1.29,2.37,2.37,0,0,1,.47-.69,2,2,0,0,1,.65-.45,2.76,2.76,0,0,1,1.08-.2,2.35,2.35,0,0,1,1.77.69,3.07,3.07,0,0,1,0,3.81,2.63,2.63,0,0,1-3.54,0A2.59,2.59,0,0,1,131.78,78.86Zm1,0a1.87,1.87,0,0,0,.39,1.29,1.35,1.35,0,0,0,2,0,1.92,1.92,0,0,0,.39-1.31,1.88,1.88,0,0,0-.38-1.29,1.4,1.4,0,0,0-2,0A1.9,1.9,0,0,0,132.82,78.83Z"/><path d="M137.44,81.34v-5h3.44v.85h-2.42v1.19h2.09v.85h-2.09v2.13Z"/><path d="M141.71,81.34v-5h3.44v.85h-2.42v1.19h2.09v.85h-2.09v2.13Z"/><path d="M151.89,90a3.18,3.18,0,0,1,.23-1.29,2.35,2.35,0,0,1,.47-.69,2,2,0,0,1,.65-.45,2.75,2.75,0,0,1,1.08-.2,2.35,2.35,0,0,1,1.77.69,3.07,3.07,0,0,1,0,3.81,2.64,2.64,0,0,1-3.54,0A2.59,2.59,0,0,1,151.89,90Zm1,0a1.88,1.88,0,0,0,.39,1.29,1.35,1.35,0,0,0,2,0,1.92,1.92,0,0,0,.39-1.31,1.89,1.89,0,0,0-.38-1.29,1.4,1.4,0,0,0-2,0A1.89,1.89,0,0,0,152.93,89.95Z"/><path d="M152.3,98.79v-5h1l2.05,3.35V93.78h.94v5h-1l-2-3.27v3.27Z"/><polygon points="81.55 103.8 91.3 90.55 83.8 88.05 100.3 75.3 90.55 87.3 98.05 90.3 81.55 103.8"/><path d="M206.07,98.56V96.65c0-4.27,4.38-6.18,4.38-9.55,0-2-.9-3.72-3.21-3.72a2.87,2.87,0,0,0-2.94,2.7.93.93,0,0,0,.94,1,2.17,2.17,0,0,1,1.84,2.27A2.81,2.81,0,0,1,204.35,92c-2,0-3.25-2-3.25-4.89,0-4.07,3.52-6.18,7.16-6.18s6.81,2.07,6.81,5.71a7.56,7.56,0,0,1-2.82,5.87c-1.53,1.33-3.05,2.07-3.09,6.07Zm3.87,4.54a2.29,2.29,0,1,1-2.31-2.62A2.52,2.52,0,0,1,209.95,103.1Z"/><path d="M9.82,97.5V80.82a3.72,3.72,0,0,1,3.84-3.59h0a3.72,3.72,0,0,1,3.84,3.59V97.31" style="fill:none;stroke:#000;stroke-width:0.5px"/><path d="M17.5,83.14a3.74,3.74,0,0,1-3.84,3.63,3.74,3.74,0,0,1-3.84-3.63" style="fill:none;stroke:#000;stroke-width:0.5px"/><path d="M17.5,86.47a3.74,3.74,0,0,1-3.84,3.63,3.74,3.74,0,0,1-3.84-3.63" style="fill:none;stroke:#000;stroke-width:0.5px"/><path d="M17.5,89.81a3.74,3.74,0,0,1-3.84,3.63,3.74,3.74,0,0,1-3.84-3.63" style="fill:none;stroke:#000;stroke-width:0.5px"/><ellipse cx="13.66" cy="100.41" rx="5.69" ry="5.31" style="fill:gray;stroke:#000;stroke-width:0.5px"/><ellipse cx="13.64" cy="80.16" rx="3.78" ry="3.28" style="fill:#fff;stroke:#000;stroke-width:0.5px"/></svg>