<svg id="Layer_1" data-name="Layer 1" xmlns="http://www.w3.org/2000/svg" xmlns:xlink="http://www.w3.org/1999/xlink" width="217.25" height="616.43" viewBox="0 0 217.25 616.43">
  <defs>
    <style>
      .cls-1, .cls-3 {
        fill: none;
      }

      .cls-2 {
        clip-path: url(#clip-path);
      }

      .cls-3 {
        stroke: #929497;
      }
    </style>
    <clipPath id="clip-path" transform="translate(0 0)">
      <rect class="cls-1" width="217.25" height="616.43"/>
    </clipPath>
  </defs>
  <title>title_page_grey_grid</title>
  <g class="cls-2">
    <line class="cls-3" x1="0.5" y1="615" x2="0.5"/>
    <line class="cls-3" x1="216.75" y1="615.24" x2="216.75" y2="0.24"/>
    <line class="cls-3" x1="18.55" y1="615.38" x2="18.55" y2="0.38"/>
    <line class="cls-3" x1="35.8" y1="616.43" x2="35.8" y2="0.38"/>
    <line class="cls-3" x1="53.8" y1="615.38" x2="53.8" y2="0.38"/>
    <line class="cls-3" x1="71.8" y1="615.38" x2="71.8" y2="0.38"/>
    <line class="cls-3" x1="89.85" y1="615.38" x2="89.85" y2="0.38"/>
    <line class="cls-3" x1="107.9" y1="615.18" x2="107.9" y2="0.38"/>
    <line class="cls-3" x1="125.9" y1="615.38" x2="125.9" y2="0.38"/>
    <line class="cls-3" x1="143.95" y1="616.43" x2="143.95" y2="0.38"/>
    <line class="cls-3" x1="161.95" y1="615.38" x2="161.95" y2="0.38"/>
    <line class="cls-3" x1="179.95" y1="616.43" x2="179.95" y2="0.38"/>
    <line class="cls-3" x1="197.95" y1="616.43" x2="197.95" y2="0.38"/>
    <line class="cls-3" x1="0.5" y1="18.49" x2="215.9" y2="18.49"/>
    <line class="cls-3" x1="0.5" y1="36.53" x2="216.75" y2="36.53"/>
    <line class="cls-3" x1="0.5" y1="54.76" x2="216.75" y2="54.76"/>
    <line class="cls-3" x1="0.5" y1="72.85" x2="216.75" y2="72.85"/>
    <line class="cls-3" x1="0.5" y1="90.98" x2="216.75" y2="90.98"/>
    <line class="cls-3" x1="0.5" y1="109.12" x2="216.75" y2="109.12"/>
    <line class="cls-3" x1="0.5" y1="127.25" x2="216.75" y2="127.25"/>
    <line class="cls-3" x1="0.5" y1="145.39" x2="216.75" y2="145.39"/>
    <line class="cls-3" x1="0.5" y1="163.47" x2="216.75" y2="163.47"/>
    <line class="cls-3" x1="0.5" y1="181.56" x2="216.75" y2="181.56"/>
    <line class="cls-3" x1="0.5" y1="199.69" x2="216.75" y2="199.69"/>
    <line class="cls-3" x1="0.5" y1="217.38" x2="216.75" y2="217.38"/>
    <line class="cls-3" x1="0.5" y1="235.56" x2="216.75" y2="235.56"/>
    <line class="cls-3" x1="0.5" y1="253.65" x2="216.75" y2="253.65"/>
    <line class="cls-3" x1="0.5" y1="271.78" x2="216.75" y2="271.78"/>
    <line class="cls-3" x1="0.5" y1="289.87" x2="216.75" y2="289.87"/>
    <line class="cls-3" x1="0.5" y1="308" x2="216.75" y2="308"/>
    <line class="cls-3" x1="0.5" y1="326.19" x2="216.75" y2="326.19"/>
    <line class="cls-3" x1="0.5" y1="344.28" x2="216.75" y2="344.28"/>
    <line class="cls-3" x1="0.5" y1="362.36" x2="216.75" y2="362.36"/>
    <line class="cls-3" x1="0.5" y1="380.55" x2="216.75" y2="380.55"/>
    <line class="cls-3" x1="0.5" y1="398.53" x2="216.75" y2="398.53"/>
    <line class="cls-3" x1="0.5" y1="416.77" x2="216.75" y2="416.77"/>
    <line class="cls-3" x1="0.5" y1="434.85" x2="216.75" y2="434.85"/>
    <line class="cls-3" x1="0.5" y1="452.99" x2="216.75" y2="452.99"/>
    <line class="cls-3" x1="0.5" y1="471.07" x2="216.75" y2="471.07"/>
    <line class="cls-3" x1="0.5" y1="489.21" x2="216.75" y2="489.21"/>
    <line class="cls-3" x1="0.5" y1="507.34" x2="216.75" y2="507.34"/>
    <line class="cls-3" x1="0.5" y1="525.48" x2="216.75" y2="525.48"/>
    <line class="cls-3" x1="0.5" y1="543.61" x2="216.75" y2="543.61"/>
    <line class="cls-3" x1="0.5" y1="561.75" x2="216.75" y2="561.75"/>
    <line class="cls-3" x1="0.5" y1="580.89" x2="216.75" y2="580.89"/>
    <line class="cls-3" x1="0.5" y1="599.03" x2="216.75" y2="599.03"/>
    <line class="cls-3" x1="0.5" y1="0.88" x2="216.75" y2="0.88"/>
  </g>
</svg>
