<svg id="title_bar" data-name="title bar" xmlns="http://www.w3.org/2000/svg" width="3.13in" height="1.81in" viewBox="0 0 225.67 130.33">
  <defs>
    <style>
      .cls-1, .cls-2, .cls-4 {
        fill: none;
      }

      .cls-1, .cls-3, .cls-4 {
        stroke: #000;
      }

      .cls-3, .cls-5 {
        fill: #231f20;
      }

      .cls-4 {
        stroke-linecap: round;
        stroke-linejoin: round;
        stroke-width: 0.98px;
      }

      .cls-6 {
        fill: #fff;
      }
    </style>
  </defs>
  <title>UIM-oprting_set_pnt_scrn</title>
  <g>
    <rect class="cls-1" x="0.5" y="0.5" width="224.67" height="129.31"/>
    <rect class="cls-2" x="0.49" y="101.87" width="224.67" height="27.94"/>
    <rect class="cls-3" x="0.51" y="0.67" width="179.74" height="18.62"/>
    <rect class="cls-1" x="0.51" y="21.9" width="179.74" height="18.62"/>
  </g>
  <rect class="cls-2" x="45.65" y="101.87" width="44.92" height="27.98"/>
  <rect class="cls-4" x="90.57" y="101.87" width="44.92" height="27.98"/>
  <rect class="cls-2" x="180.23" y="101.87" width="44.92" height="27.98"/>
  <rect class="cls-2" x="135.36" y="101.87" width="44.92" height="27.98"/>
  <line class="cls-4" x1="0.53" y1="101.87" x2="225.04" y2="101.87"/>
  <g>
    <path class="cls-5" d="M59,118.84,60.87,111h.7l2,7.87h-.74l-.58-2.38H60.21l-.54,2.38Zm1.42-3.23h1.67l-.51-2.18q-.24-1-.35-1.63a14.89,14.89,0,0,1-.27,1.5Z" transform="translate(-50.17)"/>
    <path class="cls-5" d="M68.19,116.08l.65.26a4.21,4.21,0,0,1-.74,2,1.61,1.61,0,0,1-1.3.67,1.72,1.72,0,0,1-1.3-.52,3.38,3.38,0,0,1-.76-1.5,8.21,8.21,0,0,1-.26-2.11,7,7,0,0,1,.29-2.15,3,3,0,0,1,.84-1.39,1.78,1.78,0,0,1,1.2-.48,1.56,1.56,0,0,1,1.24.6,3.59,3.59,0,0,1,.7,1.69l-.64.24a2.85,2.85,0,0,0-.5-1.25,1,1,0,0,0-.82-.39,1.22,1.22,0,0,0-1,.44,2.54,2.54,0,0,0-.54,1.17,7.29,7.29,0,0,0-.16,1.51,7.44,7.44,0,0,0,.18,1.75,2.26,2.26,0,0,0,.57,1.12,1.19,1.19,0,0,0,.84.37,1.13,1.13,0,0,0,.93-.5A3.22,3.22,0,0,0,68.19,116.08Z" transform="translate(-50.17)"/>
    <path class="cls-5" d="M73.72,116.08l.65.26a4.21,4.21,0,0,1-.74,2,1.61,1.61,0,0,1-1.3.67,1.72,1.72,0,0,1-1.3-.52,3.38,3.38,0,0,1-.76-1.5,8.21,8.21,0,0,1-.26-2.11,7,7,0,0,1,.29-2.15,3,3,0,0,1,.84-1.39,1.78,1.78,0,0,1,1.2-.48,1.56,1.56,0,0,1,1.24.6,3.59,3.59,0,0,1,.7,1.69l-.64.24a2.85,2.85,0,0,0-.5-1.25,1,1,0,0,0-.82-.39,1.22,1.22,0,0,0-1,.44,2.54,2.54,0,0,0-.54,1.17,7.29,7.29,0,0,0-.16,1.51,7.44,7.44,0,0,0,.18,1.75,2.26,2.26,0,0,0,.57,1.12,1.19,1.19,0,0,0,.84.37,1.13,1.13,0,0,0,.93-.5A3.22,3.22,0,0,0,73.72,116.08Z" transform="translate(-50.17)"/>
    <path class="cls-5" d="M75.74,118.84V111H79.3v.93H76.39v2.41h2.73v.92H76.39v2.68h3v.93Z" transform="translate(-50.17)"/>
    <path class="cls-5" d="M80.87,118.84V111h1.86a2.84,2.84,0,0,1,.75.08,1.22,1.22,0,0,1,.61.37,2,2,0,0,1,.4.76,3.66,3.66,0,0,1,.15,1.07,3.36,3.36,0,0,1-.4,1.7,1.53,1.53,0,0,1-1.45.7H81.52v3.2Zm.65-4.13H82.8a1,1,0,0,0,.9-.38,1.81,1.81,0,0,0,.27-1.06,2.07,2.07,0,0,0-.16-.85.85.85,0,0,0-.41-.46,1.78,1.78,0,0,0-.61-.07H81.52Z" transform="translate(-50.17)"/>
    <path class="cls-5" d="M87.27,118.84V111.9H85.65V111h3.91v.93H87.93v6.94Z" transform="translate(-50.17)"/>
  </g>
  <g>
    <path class="cls-5" d="M153.88,118.84V111h1.85a1.38,1.38,0,0,1,1.44,1,2.84,2.84,0,0,1,.19,1,2.61,2.61,0,0,1-.17,1,1.65,1.65,0,0,1-.52.72,1.43,1.43,0,0,1,.69.71,2.73,2.73,0,0,1,.24,1.19,3.48,3.48,0,0,1-.15,1,2.12,2.12,0,0,1-.36.73,1.35,1.35,0,0,1-.54.39,2.11,2.11,0,0,1-.79.13Zm.65-4.57h1.07a1.53,1.53,0,0,0,.62-.09.77.77,0,0,0,.38-.39,1.65,1.65,0,0,0,.13-.69,1.86,1.86,0,0,0-.12-.69.73.73,0,0,0-.34-.41,1.81,1.81,0,0,0-.75-.11h-1Zm0,3.64h1.23a1.79,1.79,0,0,0,.44,0,.86.86,0,0,0,.38-.21,1.1,1.1,0,0,0,.25-.44,2.05,2.05,0,0,0,.1-.66,1.9,1.9,0,0,0-.14-.77.89.89,0,0,0-.39-.46,1.59,1.59,0,0,0-.72-.13h-1.14Z" transform="translate(-50.17)"/>
    <path class="cls-5" d="M158.52,118.84l1.89-7.87h.7l2,7.87h-.74l-.58-2.38h-2.06l-.54,2.38Zm1.42-3.23h1.67l-.51-2.18q-.24-1-.35-1.63a14.89,14.89,0,0,1-.27,1.5Z" transform="translate(-50.17)"/>
    <path class="cls-5" d="M167.72,116.08l.65.26a4.21,4.21,0,0,1-.74,2,1.61,1.61,0,0,1-1.3.67,1.72,1.72,0,0,1-1.3-.52,3.38,3.38,0,0,1-.76-1.5,8.21,8.21,0,0,1-.26-2.11,7,7,0,0,1,.29-2.15,3,3,0,0,1,.84-1.39,1.78,1.78,0,0,1,1.2-.48,1.56,1.56,0,0,1,1.24.6,3.59,3.59,0,0,1,.7,1.69l-.64.24a2.85,2.85,0,0,0-.5-1.25,1,1,0,0,0-.82-.39,1.22,1.22,0,0,0-1,.44,2.54,2.54,0,0,0-.54,1.17,7.29,7.29,0,0,0-.16,1.51,7.44,7.44,0,0,0,.18,1.75,2.26,2.26,0,0,0,.57,1.12,1.19,1.19,0,0,0,.84.37,1.13,1.13,0,0,0,.93-.5A3.22,3.22,0,0,0,167.72,116.08Z" transform="translate(-50.17)"/>
    <path class="cls-5" d="M169.7,118.84V111h.65v3.9l2.45-3.9h.88l-2.07,3.19,2.16,4.68h-.86l-1.76-4-.81,1.26v2.73Z" transform="translate(-50.17)"/>
  </g>
  <rect class="cls-4" x="0.53" y="101.87" width="44.92" height="27.98"/>
  <rect class="cls-4" x="180.23" y="51.12" width="44.92" height="50.71"/>
  <rect class="cls-4" x="180.23" y="0.52" width="44.92" height="50.6"/>
  <rect class="cls-5" x="200.08" y="75.39" width="6.78" height="1.36"/>
  <g>
    <path class="cls-6" d="M64.48,9.51a5.41,5.41,0,0,1,1.58-4.13,5.72,5.72,0,0,1,4.09-1.49,6.19,6.19,0,0,1,3,.7,4.82,4.82,0,0,1,2,2,5.81,5.81,0,0,1,.69,2.85,5.72,5.72,0,0,1-.73,2.89A4.71,4.71,0,0,1,73,14.2a6.43,6.43,0,0,1-2.88.65,6.1,6.1,0,0,1-3-.72,4.88,4.88,0,0,1-2-2A5.47,5.47,0,0,1,64.48,9.51Zm1.62,0a4.13,4.13,0,0,0,7,3,4.21,4.21,0,0,0,1.14-3.16,5,5,0,0,0-.49-2.26,3.5,3.5,0,0,0-1.43-1.5,4.22,4.22,0,0,0-2.11-.53,4.27,4.27,0,0,0-2.86,1A4.28,4.28,0,0,0,66.1,9.53Z" transform="translate(-50.17)"/>
    <path class="cls-6" d="M78.39,17.62V7h1.32V8A2.92,2.92,0,0,1,82.2,6.82a3.68,3.68,0,0,1,1.94.51,3.19,3.19,0,0,1,1.27,1.43,4.74,4.74,0,0,1,.43,2,4.67,4.67,0,0,1-.47,2.12A3.31,3.31,0,0,1,84,14.35a3.84,3.84,0,0,1-1.9.5,3,3,0,0,1-1.3-.28,2.91,2.91,0,0,1-.95-.69v3.74Zm1.32-6.74a3.1,3.1,0,0,0,.67,2.19,2.15,2.15,0,0,0,1.62.71A2.2,2.2,0,0,0,83.66,13a3.23,3.23,0,0,0,.69-2.28,3.15,3.15,0,0,0-.67-2.2,2.12,2.12,0,0,0-1.61-.73,2.18,2.18,0,0,0-1.64.78A3.23,3.23,0,0,0,79.7,10.88Z" transform="translate(-50.17)"/>
    <path class="cls-6" d="M94.21,12.2l1.5.17a3.27,3.27,0,0,1-1.32,1.83,4.29,4.29,0,0,1-2.46.65,4.18,4.18,0,0,1-3-1,3.81,3.81,0,0,1-1.1-2.91,4,4,0,0,1,1.11-3,4,4,0,0,1,2.89-1.07,3.89,3.89,0,0,1,2.81,1,3.9,3.9,0,0,1,1.09,3c0,.08,0,.19,0,.35h-6.4a2.78,2.78,0,0,0,.8,1.94,2.52,2.52,0,0,0,1.79.67,2.41,2.41,0,0,0,1.37-.38A2.5,2.5,0,0,0,94.21,12.2ZM89.43,10.1h4.79a2.44,2.44,0,0,0-.55-1.45,2.34,2.34,0,0,0-1.8-.75,2.46,2.46,0,0,0-1.68.6A2.26,2.26,0,0,0,89.43,10.1Z" transform="translate(-50.17)"/>
    <path class="cls-6" d="M98.26,14.68V7h1.31V8.16a3.27,3.27,0,0,1,.93-1.08,1.75,1.75,0,0,1,.93-.26,3.08,3.08,0,0,1,1.49.42l-.5,1.21a2.27,2.27,0,0,0-1.07-.28,1.5,1.5,0,0,0-.86.26,1.4,1.4,0,0,0-.54.71,4.58,4.58,0,0,0-.24,1.52v4Z" transform="translate(-50.17)"/>
    <path class="cls-6" d="M110.13,13.73a5.58,5.58,0,0,1-1.56.87,5,5,0,0,1-1.6.25,3.36,3.36,0,0,1-2.17-.62,2,2,0,0,1-.47-2.61,2.22,2.22,0,0,1,.75-.75,3.7,3.7,0,0,1,1-.43,11.49,11.49,0,0,1,1.29-.2A14.69,14.69,0,0,0,110,9.8q0-.27,0-.34a1.35,1.35,0,0,0-.41-1.12A2.63,2.63,0,0,0,108,7.9a2.8,2.8,0,0,0-1.52.32,1.94,1.94,0,0,0-.72,1.14l-1.42-.17a3,3,0,0,1,.64-1.32,2.83,2.83,0,0,1,1.28-.77,6.35,6.35,0,0,1,1.95-.27,5.71,5.71,0,0,1,1.79.23,2.39,2.39,0,0,1,1,.58,2,2,0,0,1,.45.89,6.6,6.6,0,0,1,.07,1.2v1.74a16.49,16.49,0,0,0,.09,2.3,2.69,2.69,0,0,0,.37.92h-1.52A2.54,2.54,0,0,1,110.13,13.73ZM110,10.82a11.81,11.81,0,0,1-2.38.49,6,6,0,0,0-1.27.26,1.24,1.24,0,0,0-.57.42,1,1,0,0,0-.2.62,1.06,1.06,0,0,0,.44.87,2,2,0,0,0,1.29.35,3.28,3.28,0,0,0,1.49-.33,2.14,2.14,0,0,0,1-.9,2.85,2.85,0,0,0,.23-1.3Z" transform="translate(-50.17)"/>
    <path class="cls-6" d="M117.66,13.51l.21,1.15a6,6,0,0,1-1.1.12,2.73,2.73,0,0,1-1.23-.22,1.32,1.32,0,0,1-.61-.59,4.2,4.2,0,0,1-.18-1.54V8h-1.07V7h1.07V5.09l1.45-.78V7h1.46V8h-1.46V12.5a2,2,0,0,0,.08.72.56.56,0,0,0,.25.25,1.06,1.06,0,0,0,.5.09A5.19,5.19,0,0,0,117.66,13.51Z" transform="translate(-50.17)"/>
    <path class="cls-6" d="M119.83,5.57V4.07h1.45v1.5Zm0,9.11V7h1.45v7.68Z" transform="translate(-50.17)"/>
    <path class="cls-6" d="M124.24,14.68V7h1.31V8.09a3.2,3.2,0,0,1,2.73-1.27,4,4,0,0,1,1.43.25,2.23,2.23,0,0,1,1,.65,2.39,2.39,0,0,1,.45,1,6.71,6.71,0,0,1,.08,1.27v4.72h-1.45V10a3.17,3.17,0,0,0-.17-1.19,1.3,1.3,0,0,0-.6-.63,2.09,2.09,0,0,0-1-.24,2.52,2.52,0,0,0-1.6.53,2.43,2.43,0,0,0-.67,2v4.2Z" transform="translate(-50.17)"/>
    <path class="cls-6" d="M133.92,15.31l1.41.19a1.18,1.18,0,0,0,.49.85,2.64,2.64,0,0,0,1.48.36,2.84,2.84,0,0,0,1.56-.36,1.78,1.78,0,0,0,.74-1,7.44,7.44,0,0,0,.1-1.67,3.14,3.14,0,0,1-2.37,1,3.39,3.39,0,0,1-2.74-1.14,4.1,4.1,0,0,1-1-2.74,4.65,4.65,0,0,1,.44-2,3.28,3.28,0,0,1,1.29-1.44,3.78,3.78,0,0,1,2-.51,3.22,3.22,0,0,1,2.5,1.1V7h1.34v6.64a5.7,5.7,0,0,1-.41,2.54,2.84,2.84,0,0,1-1.29,1.18,4.92,4.92,0,0,1-2.18.43,4.46,4.46,0,0,1-2.48-.62A2,2,0,0,1,133.92,15.31Zm1.2-4.62a3.09,3.09,0,0,0,.67,2.21,2.39,2.39,0,0,0,3.36,0,3,3,0,0,0,.68-2.17,2.93,2.93,0,0,0-.7-2.13,2.27,2.27,0,0,0-1.68-.72,2.2,2.2,0,0,0-1.65.71A2.91,2.91,0,0,0,135.13,10.7Z" transform="translate(-50.17)"/>
    <path class="cls-6" d="M149.13,11.27l1.48-.12a2.73,2.73,0,0,0,.49,1.31,2.65,2.65,0,0,0,1.19.82,5,5,0,0,0,1.82.31,4.82,4.82,0,0,0,1.58-.24,2.2,2.2,0,0,0,1-.66,1.41,1.41,0,0,0,.34-.91,1.29,1.29,0,0,0-.32-.87,2.44,2.44,0,0,0-1.07-.63q-.48-.17-2.11-.52a11.74,11.74,0,0,1-2.29-.66,3.12,3.12,0,0,1-1.26-1,2.24,2.24,0,0,1-.42-1.32,2.5,2.5,0,0,1,.51-1.5,3.12,3.12,0,0,1,1.49-1.06,6.22,6.22,0,0,1,2.17-.36,6.56,6.56,0,0,1,2.32.38,3.31,3.31,0,0,1,1.55,1.12,3,3,0,0,1,.58,1.67l-1.5.1a2.1,2.1,0,0,0-.82-1.52,3.46,3.46,0,0,0-2.06-.51,3.6,3.6,0,0,0-2.07.47,1.36,1.36,0,0,0-.65,1.13,1.15,1.15,0,0,0,.46.94,6.69,6.69,0,0,0,2.36.76,17.09,17.09,0,0,1,2.62.68,3.55,3.55,0,0,1,1.53,1.08,2.44,2.44,0,0,1,.49,1.51,2.68,2.68,0,0,1-.54,1.6,3.5,3.5,0,0,1-1.56,1.16,6,6,0,0,1-2.28.42,7.54,7.54,0,0,1-2.69-.42,3.72,3.72,0,0,1-1.7-1.26A3.32,3.32,0,0,1,149.13,11.27Z" transform="translate(-50.17)"/>
    <path class="cls-6" d="M167.13,12.2l1.5.17a3.28,3.28,0,0,1-1.32,1.83,4.29,4.29,0,0,1-2.46.65,4.18,4.18,0,0,1-3-1,3.81,3.81,0,0,1-1.1-2.91,4,4,0,0,1,1.11-3,4,4,0,0,1,2.89-1.07,3.89,3.89,0,0,1,2.81,1,3.9,3.9,0,0,1,1.09,3c0,.08,0,.19,0,.35h-6.4a2.78,2.78,0,0,0,.8,1.94,2.52,2.52,0,0,0,1.79.67,2.41,2.41,0,0,0,1.37-.38A2.5,2.5,0,0,0,167.13,12.2Zm-4.77-2.11h4.79a2.43,2.43,0,0,0-.55-1.45,2.34,2.34,0,0,0-1.8-.75,2.46,2.46,0,0,0-1.68.6A2.26,2.26,0,0,0,162.36,10.1Z" transform="translate(-50.17)"/>
    <path class="cls-6" d="M174.38,13.51l.21,1.15a6,6,0,0,1-1.1.12,2.73,2.73,0,0,1-1.23-.22,1.32,1.32,0,0,1-.61-.59,4.21,4.21,0,0,1-.18-1.54V8h-1.07V7h1.07V5.09l1.45-.78V7h1.46V8h-1.46V12.5a2.06,2.06,0,0,0,.08.72.57.57,0,0,0,.25.25,1.06,1.06,0,0,0,.5.09A5.19,5.19,0,0,0,174.38,13.51Z" transform="translate(-50.17)"/>
    <path class="cls-6" d="M176.55,17.62V7h1.33V8a3.15,3.15,0,0,1,1.06-.88,3.19,3.19,0,0,1,1.43-.29,3.68,3.68,0,0,1,1.94.51,3.19,3.19,0,0,1,1.27,1.43,4.75,4.75,0,0,1,.43,2,4.68,4.68,0,0,1-.47,2.12,3.32,3.32,0,0,1-1.37,1.45,3.83,3.83,0,0,1-1.89.5,3,3,0,0,1-1.3-.28,2.92,2.92,0,0,1-.95-.69v3.74Zm1.32-6.74a3.1,3.1,0,0,0,.67,2.19,2.15,2.15,0,0,0,1.62.71,2.2,2.2,0,0,0,1.66-.73,3.23,3.23,0,0,0,.69-2.28,3.15,3.15,0,0,0-.67-2.2,2.12,2.12,0,0,0-1.61-.73,2.18,2.18,0,0,0-1.64.78A3.22,3.22,0,0,0,177.86,10.88Z" transform="translate(-50.17)"/>
    <path class="cls-6" d="M186,10.84a3.75,3.75,0,0,1,1.32-3.16,4.29,4.29,0,0,1,2.7-.85,4.09,4.09,0,0,1,2.89,1A3.71,3.71,0,0,1,194,10.73a4.63,4.63,0,0,1-.5,2.33A3.35,3.35,0,0,1,192,14.38a4.61,4.61,0,0,1-2.07.47,4.1,4.1,0,0,1-2.91-1A3.88,3.88,0,0,1,186,10.84Zm1.49,0a3,3,0,0,0,.72,2.21,2.58,2.58,0,0,0,3.61,0,3.11,3.11,0,0,0,.72-2.25,3,3,0,0,0-.72-2.16,2.59,2.59,0,0,0-3.61,0A3,3,0,0,0,187.45,10.84Z" transform="translate(-50.17)"/>
    <path class="cls-6" d="M196.45,5.57V4.07h1.45v1.5Zm0,9.11V7h1.45v7.68Z" transform="translate(-50.17)"/>
    <path class="cls-6" d="M200.86,14.68V7h1.31V8.09a3.2,3.2,0,0,1,2.73-1.27,4,4,0,0,1,1.43.25,2.24,2.24,0,0,1,1,.65,2.39,2.39,0,0,1,.45,1,6.69,6.69,0,0,1,.08,1.27v4.72h-1.46V10a3.19,3.19,0,0,0-.17-1.19,1.3,1.3,0,0,0-.6-.63,2.08,2.08,0,0,0-1-.24,2.52,2.52,0,0,0-1.6.53,2.43,2.43,0,0,0-.67,2v4.2Z" transform="translate(-50.17)"/>
    <path class="cls-6" d="M214,13.51l.21,1.15a6,6,0,0,1-1.1.12,2.73,2.73,0,0,1-1.23-.22,1.32,1.32,0,0,1-.61-.59,4.21,4.21,0,0,1-.18-1.54V8H210V7h1.07V5.09l1.45-.78V7H214V8h-1.46V12.5a2.06,2.06,0,0,0,.08.72.57.57,0,0,0,.25.25,1.06,1.06,0,0,0,.5.09A5.19,5.19,0,0,0,214,13.51Z" transform="translate(-50.17)"/>
  </g>
  <g>
    <path class="cls-5" d="M86.81,57.28V49.74h1.33l1.58,5.33q.22.75.32,1.12.11-.41.35-1.21L92,49.74h1.19v7.54h-.85V51l-1.93,6.31h-.79l-1.93-6.42v6.42Z" transform="translate(-50.17)"/>
    <path class="cls-5" d="M94.92,57.28V49.74h.88v7.54Z" transform="translate(-50.17)"/>
    <path class="cls-5" d="M97.53,57.28V49.74h.9l3.5,5.92V49.74h.84v7.54h-.9l-3.5-5.92v5.92Z" transform="translate(-50.17)"/>
    <path class="cls-5" d="M85.3,66.06l.79-.08a1.63,1.63,0,0,0,.38.91,1,1,0,0,0,.72.28,1.14,1.14,0,0,0,.66-.2,1.52,1.52,0,0,0,.47-.52,3.29,3.29,0,0,0,.3-.88,5.24,5.24,0,0,0,.12-1.13s0-.1,0-.19a2,2,0,0,1-.67.72,1.66,1.66,0,0,1-.92.28,1.77,1.77,0,0,1-1.4-.68,2.68,2.68,0,0,1-.57-1.79,2.74,2.74,0,0,1,.6-1.84,1.89,1.89,0,0,1,1.5-.7,2,2,0,0,1,1.19.4,2.44,2.44,0,0,1,.82,1.13,6.23,6.23,0,0,1,.28,2.12,7.69,7.69,0,0,1-.28,2.3,2.7,2.7,0,0,1-.82,1.3,2,2,0,0,1-1.28.45,1.74,1.74,0,0,1-1.28-.49A2.22,2.22,0,0,1,85.3,66.06Zm3.35-3.33a2,2,0,0,0-.37-1.26,1.12,1.12,0,0,0-.9-.47,1.19,1.19,0,0,0-.95.5,2,2,0,0,0-.4,1.31A1.74,1.74,0,0,0,86.4,64a1.2,1.2,0,0,0,.95.45,1.15,1.15,0,0,0,.93-.45A1.93,1.93,0,0,0,88.64,62.74Z" transform="translate(-50.17)"/>
    <path class="cls-5" d="M90.53,64.09a7.74,7.74,0,0,1,.24-2.15,2.72,2.72,0,0,1,.72-1.26,1.71,1.71,0,0,1,1.21-.44,1.78,1.78,0,0,1,.94.24,1.91,1.91,0,0,1,.67.7,4,4,0,0,1,.41,1.12,8.37,8.37,0,0,1,.15,1.78,7.77,7.77,0,0,1-.24,2.14,2.72,2.72,0,0,1-.72,1.26,1.71,1.71,0,0,1-1.21.45,1.75,1.75,0,0,1-1.51-.78A5.48,5.48,0,0,1,90.53,64.09Zm.84,0a5.27,5.27,0,0,0,.38,2.47,1,1,0,0,0,1.89,0A5.26,5.26,0,0,0,94,64.09a5.26,5.26,0,0,0-.38-2.47,1.12,1.12,0,0,0-1-.61,1,1,0,0,0-.9.54A5.31,5.31,0,0,0,91.37,64.09Z" transform="translate(-50.17)"/>
    <path class="cls-5" d="M95.57,62.33A1.82,1.82,0,0,1,96.09,61a1.7,1.7,0,0,1,2.49,0,1.93,1.93,0,0,1,0,2.62,1.7,1.7,0,0,1-2.49,0A1.83,1.83,0,0,1,95.57,62.33Zm.69,0a1.12,1.12,0,0,0,.31.8,1,1,0,0,0,1.51,0,1.17,1.17,0,0,0,0-1.6,1,1,0,0,0-1.51,0A1.12,1.12,0,0,0,96.27,62.33Z" transform="translate(-50.17)"/>
    <path class="cls-5" d="M99.94,67.81V60.27h4.49v.89h-3.61v2.33h3.12v.89h-3.12v3.42Z" transform="translate(-50.17)"/>
  </g>
  <g>
    <path class="cls-5" d="M165.78,57.28V49.74h1.33l1.58,5.33q.22.75.32,1.12.11-.41.35-1.21l1.59-5.24h1.19v7.54h-.85V51l-1.93,6.31h-.79l-1.93-6.42v6.42Z" transform="translate(-50.17)"/>
    <path class="cls-5" d="M172.64,57.28l2.56-7.54h.95l2.72,7.54h-1L177.09,55H174.3l-.73,2.28Zm1.92-3.09h2.26l-.69-2.09q-.32-1-.47-1.56a10.81,10.81,0,0,1-.36,1.44Z" transform="translate(-50.17)"/>
    <path class="cls-5" d="M178.9,57.28l2.58-3.93-2.27-3.61h1l1.21,1.93q.38.6.54.92.22-.41.53-.86l1.34-2h1l-2.34,3.55,2.52,4h-1.09l-1.68-2.69-.29-.5q-.22.41-.32.57L180,57.28Z" transform="translate(-50.17)"/>
    <path class="cls-5" d="M166.1,67.81h-.82v-5.9a4.29,4.29,0,0,1-.78.64,5.19,5.19,0,0,1-.86.48v-.89a4.94,4.94,0,0,0,1.2-.88,3.42,3.42,0,0,0,.73-1h.53Z" transform="translate(-50.17)"/>
    <path class="cls-5" d="M168.52,63.72a1.56,1.56,0,0,1-.75-.6,1.72,1.72,0,0,1-.25-.94A2,2,0,0,1,168,60.8a1.81,1.81,0,0,1,1.39-.56,1.83,1.83,0,0,1,1.4.57,2,2,0,0,1,.53,1.4,1.68,1.68,0,0,1-.24.91,1.55,1.55,0,0,1-.74.6,1.81,1.81,0,0,1,.93.73,2.19,2.19,0,0,1,.32,1.2,2.31,2.31,0,0,1-.6,1.62,2.24,2.24,0,0,1-3.18,0,2.35,2.35,0,0,1-.6-1.65,2.17,2.17,0,0,1,.33-1.23A1.64,1.64,0,0,1,168.52,63.72Zm-.43,1.91a1.86,1.86,0,0,0,.17.77,1.28,1.28,0,0,0,.49.57,1.31,1.31,0,0,0,.7.2,1.24,1.24,0,0,0,1-.43,1.57,1.57,0,0,0,.38-1.08,1.59,1.59,0,0,0-.39-1.11,1.27,1.27,0,0,0-1-.44,1.22,1.22,0,0,0-1,.43A1.58,1.58,0,0,0,168.1,65.63Zm.26-3.48a1.26,1.26,0,0,0,.3.87,1,1,0,0,0,.79.34,1,1,0,0,0,.77-.34,1.19,1.19,0,0,0,.3-.82,1.23,1.23,0,0,0-.31-.86,1,1,0,0,0-.77-.35,1,1,0,0,0-.78.34A1.17,1.17,0,0,0,168.36,62.15Z" transform="translate(-50.17)"/>
    <path class="cls-5" d="M172.44,64.09a7.74,7.74,0,0,1,.24-2.15,2.73,2.73,0,0,1,.72-1.26,1.71,1.71,0,0,1,1.21-.44,1.78,1.78,0,0,1,.94.24,1.91,1.91,0,0,1,.67.7,4,4,0,0,1,.41,1.12,8.4,8.4,0,0,1,.15,1.78,7.74,7.74,0,0,1-.24,2.14,2.72,2.72,0,0,1-.72,1.26,1.71,1.71,0,0,1-1.21.45,1.75,1.75,0,0,1-1.51-.78A5.48,5.48,0,0,1,172.44,64.09Zm.84,0a5.26,5.26,0,0,0,.38,2.47,1,1,0,0,0,1.89,0,5.26,5.26,0,0,0,.38-2.47,5.25,5.25,0,0,0-.38-2.47,1.12,1.12,0,0,0-1-.61,1,1,0,0,0-.9.54A5.31,5.31,0,0,0,173.28,64.09Z" transform="translate(-50.17)"/>
    <path class="cls-5" d="M178.22,62.33a1.82,1.82,0,0,1,.52-1.31,1.7,1.7,0,0,1,2.49,0,1.92,1.92,0,0,1,0,2.62,1.7,1.7,0,0,1-2.49,0A1.83,1.83,0,0,1,178.22,62.33Zm.69,0a1.12,1.12,0,0,0,.31.8,1,1,0,0,0,1.51,0,1.17,1.17,0,0,0,0-1.6,1,1,0,0,0-1.51,0A1.12,1.12,0,0,0,178.92,62.33Z" transform="translate(-50.17)"/>
    <path class="cls-5" d="M182.59,67.81V60.27h4.49v.89h-3.61v2.33h3.12v.89h-3.12v3.42Z" transform="translate(-50.17)"/>
  </g>
  <g>
    <path class="cls-5" d="M125.47,36h-1.32V28.12a6.83,6.83,0,0,1-1.25.85,9.09,9.09,0,0,1-1.39.64V28.42a8.08,8.08,0,0,0,1.94-1.18,4.72,4.72,0,0,0,1.18-1.34h.85Z" transform="translate(-50.17)"/>
    <path class="cls-5" d="M134.6,34.81V36h-7.12a2.07,2.07,0,0,1,.15-.86,4.5,4.5,0,0,1,.87-1.34,13.29,13.29,0,0,1,1.73-1.52,14.29,14.29,0,0,0,2.37-2.13,2.46,2.46,0,0,0,.62-1.49,1.6,1.6,0,0,0-.56-1.24,2.11,2.11,0,0,0-1.46-.5,2.14,2.14,0,0,0-1.53.54,2,2,0,0,0-.58,1.48l-1.36-.13a3,3,0,0,1,1-2.17,3.75,3.75,0,0,1,2.45-.74,3.56,3.56,0,0,1,2.45.8,2.56,2.56,0,0,1,.9,2,2.85,2.85,0,0,1-.26,1.19,4.6,4.6,0,0,1-.88,1.23,20.87,20.87,0,0,1-2,1.77q-1.19.93-1.53,1.27a4.14,4.14,0,0,0-.56.67Z" transform="translate(-50.17)"/>
    <path class="cls-5" d="M136,31a8.65,8.65,0,0,1,.39-2.87,3.56,3.56,0,0,1,1.17-1.68,3.12,3.12,0,0,1,1.95-.59,3.37,3.37,0,0,1,1.52.33,2.84,2.84,0,0,1,1.08.94,4.88,4.88,0,0,1,.67,1.5A9.32,9.32,0,0,1,143,31a8.67,8.67,0,0,1-.39,2.86,3.56,3.56,0,0,1-1.16,1.68,3.13,3.13,0,0,1-2,.59,3,3,0,0,1-2.45-1A6.3,6.3,0,0,1,136,31Zm1.36,0a6,6,0,0,0,.62,3.3,1.84,1.84,0,0,0,3.06,0,6,6,0,0,0,.62-3.29,6,6,0,0,0-.62-3.3,1.87,1.87,0,0,0-1.55-.82,1.73,1.73,0,0,0-1.45.72A6,6,0,0,0,137.38,31Z" transform="translate(-50.17)"/>
    <path class="cls-5" d="M144.17,29.55a2.84,2.84,0,1,1,.84,2A2.73,2.73,0,0,1,144.17,29.55Zm1.12,0a1.73,1.73,0,1,0,.51-1.23A1.67,1.67,0,0,0,145.29,29.55Z" transform="translate(-50.17)"/>
    <path class="cls-5" d="M152.49,36V25.93h7.26v1.19h-5.84v3.12H159v1.19h-5.05V36Z" transform="translate(-50.17)"/>
  </g>
  <polygon class="cls-5" points="206.86 26.73 204.15 26.73 204.15 24.02 202.79 24.02 202.79 26.73 200.08 26.73 200.08 28.09 202.79 28.09 202.79 30.8 204.15 30.8 204.15 28.09 206.86 28.09 206.86 26.73"/>
</svg>
