<svg id="title_bar" data-name="title bar" xmlns="http://www.w3.org/2000/svg" width="3.13in" height="1.81in" viewBox="0 0 225.68 130.33">
  <defs>
    <style>
      .cls-1, .cls-3, .cls-5, .cls-6 {
        fill: none;
      }

      .cls-1, .cls-2, .cls-5, .cls-6 {
        stroke: #000;
      }

      .cls-4 {
        fill: #fff;
      }

      .cls-5 {
        stroke-linecap: round;
        stroke-linejoin: round;
      }

      .cls-5, .cls-6 {
        stroke-width: 0.98px;
      }
    </style>
  </defs>
  <title>UIM-mn_mnu_scrn</title>
  <g>
    <rect class="cls-1" x="0.5" y="0.5" width="224.67" height="129.31"/>
    <rect class="cls-2" x="1.37" y="0.64" width="223.81" height="14.46"/>
    <rect class="cls-3" x="0.49" y="101.87" width="224.67" height="27.94"/>
  </g>
  <g>
    <path class="cls-4" d="M136.35,11V3.84h1.5l1.78,5.07q.25.71.36,1.06.13-.39.4-1.15l1.8-5h1.34V11h-1V5l-2.18,6h-.9L137.3,4.91V11Z" transform="translate(-50.17)"/>
    <path class="cls-4" d="M148.82,10.36a3.46,3.46,0,0,1-1,.59,3,3,0,0,1-1,.17,2,2,0,0,1-1.38-.42A1.35,1.35,0,0,1,145,9.63a1.36,1.36,0,0,1,.18-.7,1.46,1.46,0,0,1,.48-.51,2.3,2.3,0,0,1,.66-.29A7,7,0,0,1,147.1,8a8.79,8.79,0,0,0,1.65-.3c0-.12,0-.2,0-.23a.94.94,0,0,0-.26-.76,1.6,1.6,0,0,0-1.05-.3,1.69,1.69,0,0,0-1,.22,1.32,1.32,0,0,0-.46.77l-.9-.12a2.08,2.08,0,0,1,.41-.89,1.78,1.78,0,0,1,.82-.52,3.8,3.8,0,0,1,1.24-.18,3.42,3.42,0,0,1,1.13.16,1.5,1.5,0,0,1,.64.39,1.35,1.35,0,0,1,.29.6,4.71,4.71,0,0,1,0,.81V8.83a11.92,11.92,0,0,0,.06,1.55A1.9,1.9,0,0,0,150,11h-1A1.79,1.79,0,0,1,148.82,10.36Zm-.08-2a7.06,7.06,0,0,1-1.51.33,3.65,3.65,0,0,0-.81.18.79.79,0,0,0-.36.29.72.72,0,0,0-.13.42.73.73,0,0,0,.28.59,1.24,1.24,0,0,0,.82.23,2,2,0,0,0,.95-.22,1.4,1.4,0,0,0,.61-.61,2,2,0,0,0,.15-.88Z" transform="translate(-50.17)"/>
    <path class="cls-4" d="M151.37,4.85v-1h.92v1Zm0,6.15V5.81h.92V11Z" transform="translate(-50.17)"/>
    <path class="cls-4" d="M154,11V5.81h.83v.74a2,2,0,0,1,1.73-.85,2.37,2.37,0,0,1,.9.17,1.42,1.42,0,0,1,.62.44,1.65,1.65,0,0,1,.29.65,4.8,4.8,0,0,1,.05.85V11h-.92V7.84a2.25,2.25,0,0,0-.11-.8.86.86,0,0,0-.38-.42,1.26,1.26,0,0,0-.64-.16,1.54,1.54,0,0,0-1,.36,1.71,1.71,0,0,0-.43,1.35V11Z" transform="translate(-50.17)"/>
    <path class="cls-4" d="M163.33,11V3.84h1.5l1.78,5.07q.25.71.36,1.06.13-.39.4-1.15l1.8-5h1.34V11h-1V5l-2.18,6h-.9l-2.17-6.09V11Z" transform="translate(-50.17)"/>
    <path class="cls-4" d="M176,9.33l1,.11a2.21,2.21,0,0,1-.84,1.24,2.6,2.6,0,0,1-1.56.44,2.56,2.56,0,0,1-1.89-.7,2.66,2.66,0,0,1-.7-2,2.78,2.78,0,0,1,.71-2,2.46,2.46,0,0,1,1.84-.72,2.39,2.39,0,0,1,1.79.71,2.73,2.73,0,0,1,.69,2q0,.08,0,.23H172.9a2,2,0,0,0,.51,1.31,1.55,1.55,0,0,0,1.14.45,1.47,1.47,0,0,0,.87-.25A1.69,1.69,0,0,0,176,9.33Zm-3-1.42h3a1.71,1.71,0,0,0-.35-1,1.45,1.45,0,0,0-1.14-.51,1.51,1.51,0,0,0-1.07.41A1.56,1.56,0,0,0,173,7.91Z" transform="translate(-50.17)"/>
    <path class="cls-4" d="M178.36,11V5.81h.83v.74a2,2,0,0,1,1.73-.85,2.38,2.38,0,0,1,.91.17,1.42,1.42,0,0,1,.62.44,1.65,1.65,0,0,1,.29.65,4.81,4.81,0,0,1,.05.85V11h-.92V7.84a2.25,2.25,0,0,0-.11-.8.85.85,0,0,0-.38-.42,1.26,1.26,0,0,0-.64-.16,1.54,1.54,0,0,0-1,.36,1.71,1.71,0,0,0-.43,1.35V11Z" transform="translate(-50.17)"/>
    <path class="cls-4" d="M188,11v-.76a2,2,0,0,1-1.73.88,2.29,2.29,0,0,1-.9-.18,1.47,1.47,0,0,1-.62-.44,1.62,1.62,0,0,1-.28-.65,4.23,4.23,0,0,1-.06-.82V5.81h.92V8.69a4.92,4.92,0,0,0,.06.93.92.92,0,0,0,.37.54,1.18,1.18,0,0,0,.7.2,1.57,1.57,0,0,0,.78-.2,1.15,1.15,0,0,0,.52-.55,2.66,2.66,0,0,0,.15-1V5.81h.92V11Z" transform="translate(-50.17)"/>
  </g>
  <rect class="cls-3" x="0.53" y="101.87" width="44.92" height="27.98"/>
  <rect class="cls-3" x="45.65" y="101.87" width="44.92" height="27.98"/>
  <rect class="cls-5" x="90.57" y="101.87" width="44.92" height="27.98"/>
  <rect class="cls-5" x="180.23" y="101.87" width="44.92" height="27.98"/>
  <rect class="cls-3" x="135.36" y="101.87" width="44.92" height="27.98"/>
  <rect class="cls-4" x="2.78" y="17.42" width="204.89" height="16.39"/>
  <line class="cls-5" x1="0.53" y1="101.87" x2="225.04" y2="101.87"/>
  <g>
    <path d="M243.81,118.84V111h.65v3.23H247V111h.65v7.87H247v-3.71h-2.56v3.71Z" transform="translate(-50.17)"/>
    <path d="M249.33,118.84V111h3.57v.93H250v2.41h2.73v.92H250v2.68h3v.93Z" transform="translate(-50.17)"/>
    <path d="M254.44,118.84V111h.65v6.94h2.43v.93Z" transform="translate(-50.17)"/>
    <path d="M258.85,118.84V111h1.86a2.84,2.84,0,0,1,.75.08,1.22,1.22,0,0,1,.61.37,2,2,0,0,1,.4.76,3.66,3.66,0,0,1,.15,1.07,3.36,3.36,0,0,1-.4,1.7,1.53,1.53,0,0,1-1.45.7H259.5v3.2Zm.65-4.13h1.27a1,1,0,0,0,.9-.38,1.81,1.81,0,0,0,.27-1.06,2.07,2.07,0,0,0-.16-.85.85.85,0,0,0-.41-.46,1.78,1.78,0,0,0-.61-.07H259.5Z" transform="translate(-50.17)"/>
  </g>
  <g>
    <path d="M152.88,118.84V111h1.85a1.38,1.38,0,0,1,1.44,1,2.84,2.84,0,0,1,.19,1,2.61,2.61,0,0,1-.17,1,1.65,1.65,0,0,1-.52.72,1.43,1.43,0,0,1,.69.71,2.73,2.73,0,0,1,.24,1.19,3.48,3.48,0,0,1-.15,1,2.12,2.12,0,0,1-.36.73,1.35,1.35,0,0,1-.54.39,2.11,2.11,0,0,1-.79.13Zm.65-4.57h1.07a1.53,1.53,0,0,0,.62-.09.77.77,0,0,0,.38-.39,1.65,1.65,0,0,0,.13-.69,1.86,1.86,0,0,0-.12-.69.73.73,0,0,0-.34-.41,1.81,1.81,0,0,0-.75-.11h-1Zm0,3.64h1.23a1.79,1.79,0,0,0,.44,0,.86.86,0,0,0,.38-.21,1.1,1.1,0,0,0,.25-.44,2.05,2.05,0,0,0,.1-.66,1.9,1.9,0,0,0-.14-.77.89.89,0,0,0-.39-.46,1.59,1.59,0,0,0-.72-.13h-1.14Z" transform="translate(-50.17)"/>
    <path d="M157.52,118.84l1.89-7.87h.7l2,7.87h-.74l-.58-2.38h-2.06l-.54,2.38Zm1.42-3.23h1.67l-.51-2.18q-.24-1-.35-1.63a14.89,14.89,0,0,1-.27,1.5Z" transform="translate(-50.17)"/>
    <path d="M166.72,116.08l.65.26a4.21,4.21,0,0,1-.74,2,1.61,1.61,0,0,1-1.3.67,1.72,1.72,0,0,1-1.3-.52,3.38,3.38,0,0,1-.76-1.5,8.21,8.21,0,0,1-.26-2.11,7,7,0,0,1,.29-2.15,3,3,0,0,1,.84-1.39,1.78,1.78,0,0,1,1.2-.48,1.56,1.56,0,0,1,1.24.6,3.59,3.59,0,0,1,.7,1.69l-.64.24a2.85,2.85,0,0,0-.5-1.25,1,1,0,0,0-.82-.39,1.22,1.22,0,0,0-1,.44,2.54,2.54,0,0,0-.54,1.17,7.29,7.29,0,0,0-.16,1.51,7.44,7.44,0,0,0,.18,1.75,2.26,2.26,0,0,0,.57,1.12,1.19,1.19,0,0,0,.84.37,1.13,1.13,0,0,0,.93-.5A3.22,3.22,0,0,0,166.72,116.08Z" transform="translate(-50.17)"/>
    <path d="M168.7,118.84V111h.65v3.9l2.45-3.9h.88l-2.07,3.19,2.16,4.68h-.86l-1.76-4-.81,1.26v2.73Z" transform="translate(-50.17)"/>
  </g>
  <rect class="cls-6" x="209.68" y="83.2" width="15.48" height="18.65"/>
  <polygon points="210.46 92.12 217.43 99.08 224.37 92.12 210.46 92.12"/>
  <rect class="cls-6" x="209.68" y="15.08" width="15.48" height="18.65"/>
  <rect x="210.23" y="35.39" width="13.56" height="35.65"/>
  <polygon points="224.4 24.93 217.43 17.97 210.48 24.93 224.4 24.93"/>
  <g>
    <path d="M57.14,29.79v-9H53.61v-1.2h8.48v1.2H58.55v9Z" transform="translate(-50.17)"/>
    <path d="M67.55,27.42l1.36.16a3.14,3.14,0,0,1-1.19,1.76A3.7,3.7,0,0,1,65.5,30a3.64,3.64,0,0,1-2.7-1,3.78,3.78,0,0,1-1-2.8,4,4,0,0,1,1-2.89,3.5,3.5,0,0,1,2.61-1,3.4,3.4,0,0,1,2.54,1,3.89,3.89,0,0,1,1,2.84q0,.11,0,.33H63.16a2.76,2.76,0,0,0,.72,1.86,2.2,2.2,0,0,0,1.62.65,2.08,2.08,0,0,0,1.23-.36A2.4,2.4,0,0,0,67.55,27.42Zm-4.31-2h4.33a2.43,2.43,0,0,0-.5-1.4,2.06,2.06,0,0,0-1.63-.72,2.14,2.14,0,0,0-1.52.58A2.23,2.23,0,0,0,63.24,25.39Z" transform="translate(-50.17)"/>
    <path d="M71.08,29.79V22.41h1.17v1a2.71,2.71,0,0,1,1-.87,2.83,2.83,0,0,1,1.38-.33,2.65,2.65,0,0,1,1.41.34,1.84,1.84,0,0,1,.78,1,2.81,2.81,0,0,1,2.39-1.29,2.43,2.43,0,0,1,1.77.61,2.52,2.52,0,0,1,.62,1.87v5.07H80.27V25.14a3.27,3.27,0,0,0-.13-1.08,1.06,1.06,0,0,0-.46-.53,1.5,1.5,0,0,0-.79-.2,1.88,1.88,0,0,0-1.36.52A2.21,2.21,0,0,0,77,25.51v4.29H75.68V25a2,2,0,0,0-.32-1.25,1.24,1.24,0,0,0-1.05-.42,2,2,0,0,0-1,.28,1.6,1.6,0,0,0-.68.81A4.37,4.37,0,0,0,72.39,26v3.83Z" transform="translate(-50.17)"/>
    <path d="M84.05,32.62V22.41h1.2v1a2.9,2.9,0,0,1,1-.84,2.74,2.74,0,0,1,1.29-.28,3.18,3.18,0,0,1,1.75.49,3,3,0,0,1,1.15,1.37A4.8,4.8,0,0,1,90.78,26a4.73,4.73,0,0,1-.43,2,3.11,3.11,0,0,1-1.24,1.39A3.3,3.3,0,0,1,87.4,30a2.58,2.58,0,0,1-1.18-.26,2.66,2.66,0,0,1-.86-.67v3.59Zm1.19-6.48a3.1,3.1,0,0,0,.61,2.11,1.89,1.89,0,0,0,1.47.68,1.93,1.93,0,0,0,1.5-.71A3.23,3.23,0,0,0,89.44,26a3.15,3.15,0,0,0-.61-2.11,1.87,1.87,0,0,0-1.46-.7,1.92,1.92,0,0,0-1.49.75A3.23,3.23,0,0,0,85.24,26.14Z" transform="translate(-50.17)"/>
    <path d="M98.19,27.42l1.36.16a3.14,3.14,0,0,1-1.19,1.76,3.7,3.7,0,0,1-2.22.63,3.64,3.64,0,0,1-2.7-1,3.78,3.78,0,0,1-1-2.8,4,4,0,0,1,1-2.89,3.5,3.5,0,0,1,2.61-1,3.4,3.4,0,0,1,2.54,1,3.89,3.89,0,0,1,1,2.84q0,.11,0,.33H93.81a2.76,2.76,0,0,0,.72,1.86,2.2,2.2,0,0,0,1.62.65,2.08,2.08,0,0,0,1.23-.36A2.4,2.4,0,0,0,98.19,27.42Zm-4.31-2h4.33a2.43,2.43,0,0,0-.5-1.4,2.06,2.06,0,0,0-1.63-.72,2.14,2.14,0,0,0-1.52.58A2.23,2.23,0,0,0,93.88,25.39Z" transform="translate(-50.17)"/>
    <path d="M101.71,29.79V22.41h1.18v1.12a3.07,3.07,0,0,1,.84-1,1.51,1.51,0,0,1,.84-.25,2.66,2.66,0,0,1,1.35.4l-.45,1.16a2,2,0,0,0-1-.27,1.29,1.29,0,0,0-.77.25,1.33,1.33,0,0,0-.49.68,4.66,4.66,0,0,0-.22,1.46v3.86Z" transform="translate(-50.17)"/>
    <path d="M112.28,28.88a4.94,4.94,0,0,1-1.4.83,4.24,4.24,0,0,1-1.45.24,2.91,2.91,0,0,1-2-.59,1.92,1.92,0,0,1-.69-1.52,2,2,0,0,1,.26-1,2.08,2.08,0,0,1,.68-.72,3.27,3.27,0,0,1,.95-.41,10,10,0,0,1,1.17-.19,12.57,12.57,0,0,0,2.34-.43q0-.26,0-.33a1.34,1.34,0,0,0-.37-1.08,2.28,2.28,0,0,0-1.5-.42,2.41,2.41,0,0,0-1.37.31,1.87,1.87,0,0,0-.65,1.09L107,24.52a3,3,0,0,1,.58-1.27,2.54,2.54,0,0,1,1.16-.74,5.41,5.41,0,0,1,1.76-.26,4.86,4.86,0,0,1,1.61.22A2.14,2.14,0,0,1,113,23a1.93,1.93,0,0,1,.41.85A6.71,6.71,0,0,1,113.5,25V26.7a16.91,16.91,0,0,0,.08,2.21,2.7,2.7,0,0,0,.33.89h-1.37A2.55,2.55,0,0,1,112.28,28.88Zm-.11-2.79a10,10,0,0,1-2.15.47,5.17,5.17,0,0,0-1.15.25,1.13,1.13,0,0,0-.52.41,1,1,0,0,0-.18.59,1,1,0,0,0,.4.83,1.77,1.77,0,0,0,1.16.33,2.82,2.82,0,0,0,1.35-.32,2,2,0,0,0,.87-.87,2.89,2.89,0,0,0,.21-1.25Z" transform="translate(-50.17)"/>
    <path d="M118.92,28.67l.19,1.11a5.14,5.14,0,0,1-1,.11,2.34,2.34,0,0,1-1.11-.22,1.23,1.23,0,0,1-.55-.57,4.27,4.27,0,0,1-.16-1.48V23.39h-1v-1h1V20.59l1.31-.75v2.58h1.32v1H117.6V27.7a2.08,2.08,0,0,0,.07.69.53.53,0,0,0,.23.24.91.91,0,0,0,.45.09A4.44,4.44,0,0,0,118.92,28.67Z" transform="translate(-50.17)"/>
    <path d="M125.81,29.79V28.71A2.88,2.88,0,0,1,123.35,30a3.26,3.26,0,0,1-1.28-.25,2.1,2.1,0,0,1-.88-.63,2.29,2.29,0,0,1-.41-.93A6,6,0,0,1,120.7,27V22.41H122v4.09a7,7,0,0,0,.08,1.32,1.3,1.3,0,0,0,.53.77,1.69,1.69,0,0,0,1,.28,2.24,2.24,0,0,0,1.11-.29,1.63,1.63,0,0,0,.73-.79,3.78,3.78,0,0,0,.21-1.44v-4H127v7.38Z" transform="translate(-50.17)"/>
    <path d="M129.55,29.79V22.41h1.18v1.12a3.07,3.07,0,0,1,.84-1,1.51,1.51,0,0,1,.84-.25,2.66,2.66,0,0,1,1.35.4l-.45,1.16a2,2,0,0,0-1-.27,1.29,1.29,0,0,0-.77.25,1.33,1.33,0,0,0-.49.68,4.66,4.66,0,0,0-.22,1.46v3.86Z" transform="translate(-50.17)"/>
    <path d="M140.37,27.42l1.36.16a3.14,3.14,0,0,1-1.19,1.76,3.7,3.7,0,0,1-2.22.63,3.64,3.64,0,0,1-2.7-1,3.78,3.78,0,0,1-1-2.8,4,4,0,0,1,1-2.89,3.5,3.5,0,0,1,2.61-1,3.4,3.4,0,0,1,2.54,1,3.89,3.89,0,0,1,1,2.84q0,.11,0,.33H136a2.76,2.76,0,0,0,.72,1.86,2.2,2.2,0,0,0,1.62.65,2.08,2.08,0,0,0,1.23-.36A2.4,2.4,0,0,0,140.37,27.42Zm-4.31-2h4.33a2.43,2.43,0,0,0-.5-1.4,2.06,2.06,0,0,0-1.63-.72,2.14,2.14,0,0,0-1.52.58A2.23,2.23,0,0,0,136.06,25.39Z" transform="translate(-50.17)"/>
    <path d="M143.37,27.59l1.3-.19a1.7,1.7,0,0,0,.61,1.14,2.2,2.2,0,0,0,1.4.4,2.13,2.13,0,0,0,1.34-.35,1,1,0,0,0,.44-.82.75.75,0,0,0-.39-.67,5.88,5.88,0,0,0-1.34-.42,12.7,12.7,0,0,1-2-.6,1.92,1.92,0,0,1-.85-.7,1.8,1.8,0,0,1-.29-1,1.83,1.83,0,0,1,.24-.91,2.05,2.05,0,0,1,.65-.7,2.79,2.79,0,0,1,.84-.37,4.18,4.18,0,0,1,1.13-.15,4.68,4.68,0,0,1,1.6.25,2.18,2.18,0,0,1,1,.68,2.57,2.57,0,0,1,.45,1.14l-1.28.17a1.32,1.32,0,0,0-.51-.89,1.92,1.92,0,0,0-1.19-.32,2.23,2.23,0,0,0-1.29.29.82.82,0,0,0-.39.67.67.67,0,0,0,.16.44,1.16,1.16,0,0,0,.5.33q.2.07,1.16.32a16.83,16.83,0,0,1,1.94.58,2,2,0,0,1,.86.66,1.77,1.77,0,0,1,.31,1.07,2,2,0,0,1-.38,1.18,2.45,2.45,0,0,1-1.11.85,4.2,4.2,0,0,1-1.63.3,3.78,3.78,0,0,1-2.3-.6A2.75,2.75,0,0,1,143.37,27.59Z" transform="translate(-50.17)"/>
    <path d="M247.64,25.34l-7.09,2.88V27l5.61-2.22-5.61-2.2V21.32l7.09,2.85Z" transform="translate(-50.17)"/>
    <path d="M54.46,45.79V35.61h1.42v4.18h5.56V35.61h1.42V45.79H61.44V41H55.87v4.8Z" transform="translate(-50.17)"/>
    <path d="M70.87,43.42l1.36.16A3.14,3.14,0,0,1,71,45.34a3.7,3.7,0,0,1-2.22.63,3.64,3.64,0,0,1-2.7-1,3.78,3.78,0,0,1-1-2.8,4,4,0,0,1,1-2.89,3.5,3.5,0,0,1,2.61-1,3.4,3.4,0,0,1,2.54,1,3.89,3.89,0,0,1,1,2.84q0,.11,0,.33H66.48a2.76,2.76,0,0,0,.72,1.86,2.2,2.2,0,0,0,1.62.65,2.08,2.08,0,0,0,1.23-.36A2.4,2.4,0,0,0,70.87,43.42Zm-4.31-2h4.33a2.43,2.43,0,0,0-.5-1.4,2.06,2.06,0,0,0-1.63-.72,2.14,2.14,0,0,0-1.52.58A2.23,2.23,0,0,0,66.56,41.39Z" transform="translate(-50.17)"/>
    <path d="M79.46,44.88a4.94,4.94,0,0,1-1.4.83A4.24,4.24,0,0,1,76.6,46a2.91,2.91,0,0,1-2-.59A1.92,1.92,0,0,1,74,43.85a2,2,0,0,1,.26-1,2.08,2.08,0,0,1,.68-.72,3.27,3.27,0,0,1,.95-.41A10,10,0,0,1,77,41.54a12.57,12.57,0,0,0,2.34-.43q0-.26,0-.33A1.34,1.34,0,0,0,79,39.71a2.28,2.28,0,0,0-1.5-.42,2.41,2.41,0,0,0-1.37.31,1.87,1.87,0,0,0-.65,1.09l-1.28-.17a3,3,0,0,1,.58-1.27,2.54,2.54,0,0,1,1.16-.74,5.41,5.41,0,0,1,1.76-.26,4.86,4.86,0,0,1,1.61.22,2.14,2.14,0,0,1,.91.56,1.93,1.93,0,0,1,.41.85A6.71,6.71,0,0,1,80.67,41V42.7a16.91,16.91,0,0,0,.08,2.21,2.7,2.7,0,0,0,.33.89H79.72A2.55,2.55,0,0,1,79.46,44.88Zm-.11-2.79a10,10,0,0,1-2.15.47,5.17,5.17,0,0,0-1.15.25,1.13,1.13,0,0,0-.52.41,1,1,0,0,0-.18.59,1,1,0,0,0,.4.83,1.77,1.77,0,0,0,1.16.33,2.82,2.82,0,0,0,1.35-.32,2,2,0,0,0,.87-.87,2.89,2.89,0,0,0,.21-1.25Z" transform="translate(-50.17)"/>
    <path d="M86.1,44.67l.19,1.11a5.14,5.14,0,0,1-1,.11,2.34,2.34,0,0,1-1.11-.22,1.23,1.23,0,0,1-.55-.57,4.27,4.27,0,0,1-.16-1.48V39.39h-1v-1h1V36.59l1.31-.75v2.58H86.1v1H84.78V43.7a2.08,2.08,0,0,0,.07.69.53.53,0,0,0,.23.24.91.91,0,0,0,.45.09A4.44,4.44,0,0,0,86.1,44.67Z" transform="translate(-50.17)"/>
    <path d="M93.21,43.42l1.36.16a3.14,3.14,0,0,1-1.19,1.76,3.7,3.7,0,0,1-2.22.63,3.64,3.64,0,0,1-2.7-1,3.78,3.78,0,0,1-1-2.8,4,4,0,0,1,1-2.89,3.5,3.5,0,0,1,2.61-1,3.4,3.4,0,0,1,2.54,1,3.89,3.89,0,0,1,1,2.84q0,.11,0,.33H88.83a2.76,2.76,0,0,0,.72,1.86,2.2,2.2,0,0,0,1.62.65,2.08,2.08,0,0,0,1.23-.36A2.4,2.4,0,0,0,93.21,43.42Zm-4.31-2h4.33a2.43,2.43,0,0,0-.5-1.4,2.06,2.06,0,0,0-1.63-.72,2.14,2.14,0,0,0-1.52.58A2.23,2.23,0,0,0,88.9,41.39Z" transform="translate(-50.17)"/>
    <path d="M96.73,45.79V38.41h1.18v1.12a3.07,3.07,0,0,1,.84-1,1.51,1.51,0,0,1,.84-.25,2.66,2.66,0,0,1,1.35.4l-.45,1.16a2,2,0,0,0-1-.27,1.29,1.29,0,0,0-.77.25,1.33,1.33,0,0,0-.49.68A4.66,4.66,0,0,0,98,41.93v3.86Z" transform="translate(-50.17)"/>
    <path d="M106.6,42.52l1.34-.11a2.72,2.72,0,0,0,.44,1.25,2.4,2.4,0,0,0,1.08.79,4.25,4.25,0,0,0,1.64.3,4.11,4.11,0,0,0,1.43-.23,2,2,0,0,0,.92-.63,1.41,1.41,0,0,0,.3-.87,1.28,1.28,0,0,0-.29-.84,2.17,2.17,0,0,0-1-.6,19.6,19.6,0,0,0-1.9-.5,10.08,10.08,0,0,1-2.07-.64,2.86,2.86,0,0,1-1.14-.95,2.24,2.24,0,0,1-.38-1.27,2.5,2.5,0,0,1,.46-1.44,2.83,2.83,0,0,1,1.34-1,5.32,5.32,0,0,1,2-.35,5.6,5.6,0,0,1,2.1.36,2.92,2.92,0,0,1,1.92,2.68l-1.36.1a2.05,2.05,0,0,0-.74-1.46,3,3,0,0,0-1.86-.49,3.1,3.1,0,0,0-1.87.45,1.33,1.33,0,0,0-.59,1.08,1.14,1.14,0,0,0,.42.9,5.83,5.83,0,0,0,2.13.73,14.66,14.66,0,0,1,2.37.65,3.22,3.22,0,0,1,1.38,1,2.44,2.44,0,0,1,.45,1.45,2.68,2.68,0,0,1-.49,1.53,3.19,3.19,0,0,1-1.4,1.12,5.1,5.1,0,0,1-2.06.4,6.42,6.42,0,0,1-2.43-.4,3.37,3.37,0,0,1-1.54-1.21A3.33,3.33,0,0,1,106.6,42.52Z" transform="translate(-50.17)"/>
    <path d="M120.28,44.67l.19,1.11a5.14,5.14,0,0,1-1,.11,2.34,2.34,0,0,1-1.11-.22,1.23,1.23,0,0,1-.55-.57,4.27,4.27,0,0,1-.16-1.48V39.39h-1v-1h1V36.59l1.31-.75v2.58h1.32v1H119V43.7a2.08,2.08,0,0,0,.07.69.53.53,0,0,0,.23.24.91.91,0,0,0,.45.09A4.44,4.44,0,0,0,120.28,44.67Z" transform="translate(-50.17)"/>
    <path d="M127.14,44.88a4.94,4.94,0,0,1-1.4.83,4.24,4.24,0,0,1-1.45.24,2.91,2.91,0,0,1-2-.59,1.92,1.92,0,0,1-.69-1.52,2,2,0,0,1,.26-1,2.08,2.08,0,0,1,.68-.72,3.27,3.27,0,0,1,.95-.41,10,10,0,0,1,1.17-.19,12.57,12.57,0,0,0,2.34-.43q0-.26,0-.33a1.34,1.34,0,0,0-.37-1.08,2.28,2.28,0,0,0-1.5-.42,2.41,2.41,0,0,0-1.37.31,1.87,1.87,0,0,0-.65,1.09l-1.28-.17a3,3,0,0,1,.58-1.27,2.54,2.54,0,0,1,1.16-.74,5.41,5.41,0,0,1,1.76-.26,4.86,4.86,0,0,1,1.61.22,2.14,2.14,0,0,1,.91.56,1.93,1.93,0,0,1,.41.85,6.71,6.71,0,0,1,.07,1.15V42.7a16.91,16.91,0,0,0,.08,2.21,2.7,2.7,0,0,0,.33.89h-1.37A2.55,2.55,0,0,1,127.14,44.88ZM127,42.09a10,10,0,0,1-2.15.47,5.17,5.17,0,0,0-1.15.25,1.13,1.13,0,0,0-.52.41,1,1,0,0,0-.18.59,1,1,0,0,0,.4.83,1.77,1.77,0,0,0,1.16.33,2.82,2.82,0,0,0,1.35-.32,2,2,0,0,0,.87-.87,2.89,2.89,0,0,0,.21-1.25Z" transform="translate(-50.17)"/>
    <path d="M133.79,44.67l.19,1.11a5.14,5.14,0,0,1-1,.11,2.34,2.34,0,0,1-1.11-.22,1.23,1.23,0,0,1-.55-.57,4.27,4.27,0,0,1-.16-1.48V39.39h-1v-1h1V36.59l1.31-.75v2.58h1.32v1h-1.32V43.7a2.08,2.08,0,0,0,.07.69.53.53,0,0,0,.23.24.91.91,0,0,0,.45.09A4.44,4.44,0,0,0,133.79,44.67Z" transform="translate(-50.17)"/>
    <path d="M140.67,45.79V44.71A2.88,2.88,0,0,1,138.22,46a3.26,3.26,0,0,1-1.28-.25,2.1,2.1,0,0,1-.88-.63,2.29,2.29,0,0,1-.41-.93,6,6,0,0,1-.08-1.17V38.41h1.31v4.09a7,7,0,0,0,.08,1.32,1.3,1.3,0,0,0,.53.77,1.69,1.69,0,0,0,1,.28,2.24,2.24,0,0,0,1.11-.29,1.63,1.63,0,0,0,.73-.79,3.78,3.78,0,0,0,.21-1.44v-4h1.31v7.38Z" transform="translate(-50.17)"/>
    <path d="M143.91,43.59l1.3-.19a1.7,1.7,0,0,0,.61,1.14,2.2,2.2,0,0,0,1.4.4,2.13,2.13,0,0,0,1.34-.35,1,1,0,0,0,.44-.82.75.75,0,0,0-.39-.67,5.88,5.88,0,0,0-1.34-.42,12.7,12.7,0,0,1-2-.6,1.92,1.92,0,0,1-.85-.7,1.8,1.8,0,0,1-.29-1,1.83,1.83,0,0,1,.24-.91,2.05,2.05,0,0,1,.65-.7,2.79,2.79,0,0,1,.84-.37,4.18,4.18,0,0,1,1.13-.15,4.68,4.68,0,0,1,1.6.25,2.18,2.18,0,0,1,1,.68,2.57,2.57,0,0,1,.45,1.14l-1.28.17a1.32,1.32,0,0,0-.51-.89,1.92,1.92,0,0,0-1.19-.32,2.23,2.23,0,0,0-1.29.29.82.82,0,0,0-.39.67.67.67,0,0,0,.16.44,1.16,1.16,0,0,0,.5.33q.2.07,1.16.32a16.83,16.83,0,0,1,1.94.58,2,2,0,0,1,.86.66,1.77,1.77,0,0,1,.31,1.07A2,2,0,0,1,150,44.8a2.45,2.45,0,0,1-1.11.85,4.2,4.2,0,0,1-1.63.3,3.78,3.78,0,0,1-2.3-.6A2.75,2.75,0,0,1,143.91,43.59Z" transform="translate(-50.17)"/>
    <path d="M247.88,41.34l-7.09,2.88V43l5.61-2.22-5.61-2.2V37.32l7.09,2.85Z" transform="translate(-50.17)"/>
    <path d="M54.42,61.79V51.61H58.1a9.34,9.34,0,0,1,1.9.15,3.69,3.69,0,0,1,1.57.73,4.15,4.15,0,0,1,1.27,1.74,6.54,6.54,0,0,1,.42,2.42A6.79,6.79,0,0,1,63,58.7a4.89,4.89,0,0,1-.73,1.48,3.78,3.78,0,0,1-1,.92,4.08,4.08,0,0,1-1.28.51,7.65,7.65,0,0,1-1.72.17Zm1.42-1.2h2.28a5.79,5.79,0,0,0,1.66-.19,2.4,2.4,0,0,0,1-.53,3.18,3.18,0,0,0,.78-1.29,6,6,0,0,0,.28-2,4.55,4.55,0,0,0-.55-2.46A2.73,2.73,0,0,0,59.91,53a5.79,5.79,0,0,0-1.83-.21H55.83Z" transform="translate(-50.17)"/>
    <path d="M65.57,53V51.61h1.31V53Zm0,8.75V54.41h1.31v7.38Z" transform="translate(-50.17)"/>
    <path d="M68.88,59.59l1.3-.19a1.7,1.7,0,0,0,.61,1.14,2.2,2.2,0,0,0,1.4.4,2.13,2.13,0,0,0,1.34-.35,1,1,0,0,0,.44-.82.75.75,0,0,0-.39-.67,5.88,5.88,0,0,0-1.34-.42,12.7,12.7,0,0,1-2-.6,1.92,1.92,0,0,1-.85-.7,1.8,1.8,0,0,1-.29-1,1.83,1.83,0,0,1,.24-.91,2.05,2.05,0,0,1,.65-.7,2.79,2.79,0,0,1,.84-.37A4.18,4.18,0,0,1,72,54.25a4.68,4.68,0,0,1,1.6.25,2.18,2.18,0,0,1,1,.68A2.57,2.57,0,0,1,75,56.32l-1.28.17a1.32,1.32,0,0,0-.51-.89A1.92,1.92,0,0,0,72,55.27a2.23,2.23,0,0,0-1.29.29.82.82,0,0,0-.39.67.67.67,0,0,0,.16.44A1.16,1.16,0,0,0,71,57q.2.07,1.16.32a16.83,16.83,0,0,1,1.94.58,2,2,0,0,1,.86.66,1.77,1.77,0,0,1,.31,1.07,2,2,0,0,1-.38,1.18,2.45,2.45,0,0,1-1.11.85,4.2,4.2,0,0,1-1.63.3,3.78,3.78,0,0,1-2.3-.6A2.75,2.75,0,0,1,68.88,59.59Z" transform="translate(-50.17)"/>
    <path d="M77.4,64.62V54.41h1.2v1a2.9,2.9,0,0,1,1-.84,2.74,2.74,0,0,1,1.29-.28,3.18,3.18,0,0,1,1.75.49,3,3,0,0,1,1.15,1.37A4.8,4.8,0,0,1,84.13,58a4.73,4.73,0,0,1-.43,2,3.11,3.11,0,0,1-1.24,1.39,3.3,3.3,0,0,1-1.71.48,2.58,2.58,0,0,1-1.18-.26,2.66,2.66,0,0,1-.86-.67v3.59Zm1.19-6.48a3.1,3.1,0,0,0,.61,2.11,1.89,1.89,0,0,0,1.47.68,1.93,1.93,0,0,0,1.5-.71A3.23,3.23,0,0,0,82.79,58a3.15,3.15,0,0,0-.61-2.11,1.87,1.87,0,0,0-1.46-.7,1.92,1.92,0,0,0-1.49.75A3.23,3.23,0,0,0,78.59,58.14Z" transform="translate(-50.17)"/>
    <path d="M86.21,61.79V51.61h1.31V61.79Z" transform="translate(-50.17)"/>
    <path d="M95.14,60.88a4.94,4.94,0,0,1-1.4.83,4.24,4.24,0,0,1-1.45.24,2.91,2.91,0,0,1-2-.59,1.92,1.92,0,0,1-.69-1.52,2,2,0,0,1,.26-1,2.08,2.08,0,0,1,.68-.72,3.27,3.27,0,0,1,.95-.41,10,10,0,0,1,1.17-.19A12.57,12.57,0,0,0,95,57.11q0-.26,0-.33a1.34,1.34,0,0,0-.37-1.08,2.28,2.28,0,0,0-1.5-.42,2.41,2.41,0,0,0-1.37.31,1.87,1.87,0,0,0-.65,1.09l-1.28-.17a3,3,0,0,1,.58-1.27,2.54,2.54,0,0,1,1.16-.74,5.41,5.41,0,0,1,1.76-.26,4.86,4.86,0,0,1,1.61.22,2.14,2.14,0,0,1,.91.56,1.93,1.93,0,0,1,.41.85A6.71,6.71,0,0,1,96.36,57V58.7a16.91,16.91,0,0,0,.08,2.21,2.7,2.7,0,0,0,.33.89H95.4A2.55,2.55,0,0,1,95.14,60.88ZM95,58.09a10,10,0,0,1-2.15.47,5.17,5.17,0,0,0-1.15.25,1.13,1.13,0,0,0-.52.41,1,1,0,0,0-.18.59,1,1,0,0,0,.4.83A1.77,1.77,0,0,0,92.6,61a2.82,2.82,0,0,0,1.35-.32,2,2,0,0,0,.87-.87A2.89,2.89,0,0,0,95,58.55Z" transform="translate(-50.17)"/>
    <path d="M98.86,64.64l-.15-1.17a3.06,3.06,0,0,0,.75.11,1.5,1.5,0,0,0,.7-.14,1.17,1.17,0,0,0,.43-.39,6,6,0,0,0,.4-.93l.12-.31-2.94-7.39h1.42l1.61,4.27q.31.81.56,1.71a16.3,16.3,0,0,1,.54-1.68l1.66-4.3h1.31l-2.95,7.51a14.43,14.43,0,0,1-.74,1.67,2.51,2.51,0,0,1-.8.91,2,2,0,0,1-1.08.29A2.75,2.75,0,0,1,98.86,64.64Z" transform="translate(-50.17)"/>
    <path d="M111.27,58.52l1.34-.11a2.72,2.72,0,0,0,.44,1.25,2.4,2.4,0,0,0,1.08.79,4.25,4.25,0,0,0,1.64.3,4.11,4.11,0,0,0,1.43-.23,2,2,0,0,0,.92-.63,1.41,1.41,0,0,0,.3-.87,1.28,1.28,0,0,0-.29-.84,2.17,2.17,0,0,0-1-.6,19.6,19.6,0,0,0-1.9-.5,10.08,10.08,0,0,1-2.07-.64,2.86,2.86,0,0,1-1.14-.95,2.24,2.24,0,0,1-.38-1.27,2.5,2.5,0,0,1,.46-1.44,2.83,2.83,0,0,1,1.34-1,5.32,5.32,0,0,1,2-.35,5.6,5.6,0,0,1,2.1.36,2.92,2.92,0,0,1,1.92,2.68l-1.36.1a2.05,2.05,0,0,0-.74-1.46,3,3,0,0,0-1.86-.49,3.1,3.1,0,0,0-1.87.45,1.33,1.33,0,0,0-.59,1.08,1.14,1.14,0,0,0,.42.9,5.83,5.83,0,0,0,2.13.73,14.66,14.66,0,0,1,2.37.65,3.22,3.22,0,0,1,1.38,1,2.44,2.44,0,0,1,.45,1.45,2.68,2.68,0,0,1-.49,1.53,3.19,3.19,0,0,1-1.4,1.12,5.1,5.1,0,0,1-2.06.4,6.42,6.42,0,0,1-2.43-.4,3.37,3.37,0,0,1-1.54-1.21A3.33,3.33,0,0,1,111.27,58.52Z" transform="translate(-50.17)"/>
    <path d="M127.38,59.42l1.36.16a3.14,3.14,0,0,1-1.19,1.76,3.7,3.7,0,0,1-2.22.63,3.64,3.64,0,0,1-2.7-1,3.78,3.78,0,0,1-1-2.8,4,4,0,0,1,1-2.89,3.5,3.5,0,0,1,2.61-1,3.4,3.4,0,0,1,2.54,1,3.89,3.89,0,0,1,1,2.84q0,.11,0,.33H123a2.76,2.76,0,0,0,.72,1.86,2.2,2.2,0,0,0,1.62.65,2.08,2.08,0,0,0,1.23-.36A2.4,2.4,0,0,0,127.38,59.42Zm-4.31-2h4.33a2.43,2.43,0,0,0-.5-1.4,2.06,2.06,0,0,0-1.63-.72,2.14,2.14,0,0,0-1.52.58A2.23,2.23,0,0,0,123.07,57.39Z" transform="translate(-50.17)"/>
    <path d="M133.78,60.67l.19,1.11a5.14,5.14,0,0,1-1,.11,2.34,2.34,0,0,1-1.11-.22,1.23,1.23,0,0,1-.55-.57,4.27,4.27,0,0,1-.16-1.48V55.39h-1v-1h1V52.59l1.31-.75v2.58h1.32v1h-1.32V59.7a2.08,2.08,0,0,0,.07.69.53.53,0,0,0,.23.24.91.91,0,0,0,.45.09A4.44,4.44,0,0,0,133.78,60.67Z" transform="translate(-50.17)"/>
    <path d="M138.46,60.67l.19,1.11a5.14,5.14,0,0,1-1,.11,2.34,2.34,0,0,1-1.11-.22,1.23,1.23,0,0,1-.55-.57,4.27,4.27,0,0,1-.16-1.48V55.39h-1v-1h1V52.59l1.31-.75v2.58h1.32v1h-1.32V59.7a2.08,2.08,0,0,0,.07.69.53.53,0,0,0,.23.24.91.91,0,0,0,.45.09A4.44,4.44,0,0,0,138.46,60.67Z" transform="translate(-50.17)"/>
    <path d="M140.27,53V51.61h1.31V53Zm0,8.75V54.41h1.31v7.38Z" transform="translate(-50.17)"/>
    <path d="M144.11,61.79V54.41h1.18v1a2.83,2.83,0,0,1,2.47-1.22,3.37,3.37,0,0,1,1.29.24,2,2,0,0,1,.88.63,2.36,2.36,0,0,1,.41.92,6.86,6.86,0,0,1,.07,1.22v4.54h-1.31V57.3a3.22,3.22,0,0,0-.15-1.14,1.22,1.22,0,0,0-.54-.6,1.8,1.8,0,0,0-.92-.23,2.19,2.19,0,0,0-1.45.51,2.43,2.43,0,0,0-.61,1.93v4Z" transform="translate(-50.17)"/>
    <path d="M152.7,62.41l1.28.18a1.14,1.14,0,0,0,.44.82,2.27,2.27,0,0,0,1.34.35,2.43,2.43,0,0,0,1.41-.35,1.71,1.71,0,0,0,.67-1,7.63,7.63,0,0,0,.09-1.6,2.76,2.76,0,0,1-2.15,1,3,3,0,0,1-2.47-1.1,4.09,4.09,0,0,1-.88-2.63,4.7,4.7,0,0,1,.4-1.95A3.09,3.09,0,0,1,154,54.73a3.26,3.26,0,0,1,1.79-.49,2.83,2.83,0,0,1,2.26,1.06v-.89h1.21v6.38a5.79,5.79,0,0,1-.37,2.44,2.63,2.63,0,0,1-1.17,1.14,4.22,4.22,0,0,1-2,.42,3.85,3.85,0,0,1-2.24-.59A2,2,0,0,1,152.7,62.41ZM153.79,58a3.09,3.09,0,0,0,.61,2.12,2,2,0,0,0,1.52.67,2,2,0,0,0,1.52-.66A3,3,0,0,0,158,58a2.93,2.93,0,0,0-.63-2,2,2,0,0,0-1.52-.69,1.93,1.93,0,0,0-1.49.68A2.91,2.91,0,0,0,153.79,58Z" transform="translate(-50.17)"/>
    <path d="M161.25,59.59l1.3-.19a1.7,1.7,0,0,0,.61,1.14,2.2,2.2,0,0,0,1.4.4,2.12,2.12,0,0,0,1.34-.35,1,1,0,0,0,.44-.82.75.75,0,0,0-.39-.67,5.87,5.87,0,0,0-1.34-.42,12.69,12.69,0,0,1-2-.6,1.92,1.92,0,0,1-.85-.7,1.8,1.8,0,0,1-.29-1,1.83,1.83,0,0,1,.24-.91,2.05,2.05,0,0,1,.65-.7,2.79,2.79,0,0,1,.84-.37,4.18,4.18,0,0,1,1.13-.15,4.68,4.68,0,0,1,1.6.25,2.17,2.17,0,0,1,1,.68,2.54,2.54,0,0,1,.45,1.14l-1.29.17a1.32,1.32,0,0,0-.51-.89,1.92,1.92,0,0,0-1.19-.32,2.23,2.23,0,0,0-1.29.29.82.82,0,0,0-.39.67.67.67,0,0,0,.16.44,1.16,1.16,0,0,0,.5.33q.2.07,1.16.32a16.81,16.81,0,0,1,1.94.58,2,2,0,0,1,.87.66,1.77,1.77,0,0,1,.31,1.07,2,2,0,0,1-.38,1.18,2.44,2.44,0,0,1-1.11.85,4.19,4.19,0,0,1-1.63.3,3.78,3.78,0,0,1-2.3-.6A2.75,2.75,0,0,1,161.25,59.59Z" transform="translate(-50.17)"/>
    <path d="M247.42,57.34l-7.09,2.88V59l5.61-2.22-5.61-2.2V53.32l7.09,2.85Z" transform="translate(-50.17)"/>
    <path d="M54.46,77.79V67.61h1.42v4.18h5.56V67.61h1.42V77.79H61.44V73H55.87v4.8Z" transform="translate(-50.17)"/>
    <path d="M70.87,75.42l1.36.16A3.14,3.14,0,0,1,71,77.34a3.7,3.7,0,0,1-2.22.63,3.64,3.64,0,0,1-2.7-1,3.78,3.78,0,0,1-1-2.8,4,4,0,0,1,1-2.89,3.5,3.5,0,0,1,2.61-1,3.4,3.4,0,0,1,2.54,1,3.89,3.89,0,0,1,1,2.84q0,.11,0,.33H66.48a2.76,2.76,0,0,0,.72,1.86,2.2,2.2,0,0,0,1.62.65,2.08,2.08,0,0,0,1.23-.36A2.4,2.4,0,0,0,70.87,75.42Zm-4.31-2h4.33a2.43,2.43,0,0,0-.5-1.4,2.06,2.06,0,0,0-1.63-.72,2.14,2.14,0,0,0-1.52.58A2.23,2.23,0,0,0,66.56,73.39Z" transform="translate(-50.17)"/>
    <path d="M79.46,76.88a4.94,4.94,0,0,1-1.4.83A4.24,4.24,0,0,1,76.6,78a2.91,2.91,0,0,1-2-.59A1.92,1.92,0,0,1,74,75.85a2,2,0,0,1,.26-1,2.08,2.08,0,0,1,.68-.72,3.27,3.27,0,0,1,.95-.41A10,10,0,0,1,77,73.54a12.57,12.57,0,0,0,2.34-.43q0-.26,0-.33A1.34,1.34,0,0,0,79,71.71a2.28,2.28,0,0,0-1.5-.42,2.41,2.41,0,0,0-1.37.31,1.87,1.87,0,0,0-.65,1.09l-1.28-.17a3,3,0,0,1,.58-1.27,2.54,2.54,0,0,1,1.16-.74,5.41,5.41,0,0,1,1.76-.26,4.86,4.86,0,0,1,1.61.22,2.14,2.14,0,0,1,.91.56,1.93,1.93,0,0,1,.41.85A6.71,6.71,0,0,1,80.67,73V74.7a16.91,16.91,0,0,0,.08,2.21,2.7,2.7,0,0,0,.33.89H79.72A2.55,2.55,0,0,1,79.46,76.88Zm-.11-2.79a10,10,0,0,1-2.15.47,5.17,5.17,0,0,0-1.15.25,1.13,1.13,0,0,0-.52.41,1,1,0,0,0-.18.59,1,1,0,0,0,.4.83,1.77,1.77,0,0,0,1.16.33,2.82,2.82,0,0,0,1.35-.32,2,2,0,0,0,.87-.87,2.89,2.89,0,0,0,.21-1.25Z" transform="translate(-50.17)"/>
    <path d="M86.1,76.67l.19,1.11a5.14,5.14,0,0,1-1,.11,2.34,2.34,0,0,1-1.11-.22,1.23,1.23,0,0,1-.55-.57,4.27,4.27,0,0,1-.16-1.48V71.39h-1v-1h1V68.59l1.31-.75v2.58H86.1v1H84.78V75.7a2.08,2.08,0,0,0,.07.69.53.53,0,0,0,.23.24.91.91,0,0,0,.45.09A4.44,4.44,0,0,0,86.1,76.67Z" transform="translate(-50.17)"/>
    <path d="M93.21,75.42l1.36.16a3.14,3.14,0,0,1-1.19,1.76,3.7,3.7,0,0,1-2.22.63,3.64,3.64,0,0,1-2.7-1,3.78,3.78,0,0,1-1-2.8,4,4,0,0,1,1-2.89,3.5,3.5,0,0,1,2.61-1,3.4,3.4,0,0,1,2.54,1,3.89,3.89,0,0,1,1,2.84q0,.11,0,.33H88.83a2.76,2.76,0,0,0,.72,1.86,2.2,2.2,0,0,0,1.62.65,2.08,2.08,0,0,0,1.23-.36A2.4,2.4,0,0,0,93.21,75.42Zm-4.31-2h4.33a2.43,2.43,0,0,0-.5-1.4,2.06,2.06,0,0,0-1.63-.72,2.14,2.14,0,0,0-1.52.58A2.23,2.23,0,0,0,88.9,73.39Z" transform="translate(-50.17)"/>
    <path d="M96.73,77.79V70.41h1.18v1.12a3.07,3.07,0,0,1,.84-1,1.51,1.51,0,0,1,.84-.25,2.66,2.66,0,0,1,1.35.4l-.45,1.16a2,2,0,0,0-1-.27,1.29,1.29,0,0,0-.77.25,1.33,1.33,0,0,0-.49.68A4.66,4.66,0,0,0,98,73.93v3.86Z" transform="translate(-50.17)"/>
    <path d="M107.33,77.79V67.61h1.42V77.79Z" transform="translate(-50.17)"/>
    <path d="M111.59,77.79V70.41h1.18v1a2.83,2.83,0,0,1,2.47-1.22,3.37,3.37,0,0,1,1.29.24,2,2,0,0,1,.88.63,2.36,2.36,0,0,1,.41.92,6.86,6.86,0,0,1,.07,1.22v4.54h-1.31V73.3a3.22,3.22,0,0,0-.15-1.14,1.22,1.22,0,0,0-.54-.6,1.8,1.8,0,0,0-.92-.23,2.19,2.19,0,0,0-1.45.51,2.43,2.43,0,0,0-.61,1.93v4Z" transform="translate(-50.17)"/>
    <path d="M120.74,77.79V71.39h-1.16v-1h1.16v-.79a3.29,3.29,0,0,1,.14-1.1,1.62,1.62,0,0,1,.67-.79,2.5,2.5,0,0,1,1.34-.3,6.73,6.73,0,0,1,1.23.13l-.2,1.09a4.62,4.62,0,0,0-.77-.07,1.19,1.19,0,0,0-.85.24,1.27,1.27,0,0,0-.25.91v.68h1.51v1H122v6.41Z" transform="translate(-50.17)"/>
    <path d="M124.62,74.1a3.46,3.46,0,0,1,3.63-3.86,3.57,3.57,0,0,1,2.61,1,3.69,3.69,0,0,1,1,2.76,4.69,4.69,0,0,1-.45,2.24,3.1,3.1,0,0,1-1.31,1.27,4,4,0,0,1-1.87.45,3.58,3.58,0,0,1-2.63-1A3.85,3.85,0,0,1,124.62,74.1Zm1.35,0a3,3,0,0,0,.65,2.12,2.23,2.23,0,0,0,3.26,0,3.11,3.11,0,0,0,.65-2.16,3,3,0,0,0-.65-2.07,2.24,2.24,0,0,0-3.26,0A3,3,0,0,0,126,74.1Z" transform="translate(-50.17)"/>
    <path d="M133.92,77.79V70.41h1.18v1.12a3.07,3.07,0,0,1,.84-1,1.51,1.51,0,0,1,.84-.25,2.66,2.66,0,0,1,1.35.4l-.45,1.16a2,2,0,0,0-1-.27,1.29,1.29,0,0,0-.77.25,1.33,1.33,0,0,0-.49.68,4.66,4.66,0,0,0-.22,1.46v3.86Z" transform="translate(-50.17)"/>
    <path d="M139.44,77.79V70.41h1.17v1a2.71,2.71,0,0,1,1-.87,2.83,2.83,0,0,1,1.38-.33,2.65,2.65,0,0,1,1.41.34,1.84,1.84,0,0,1,.78,1,2.81,2.81,0,0,1,2.39-1.29,2.43,2.43,0,0,1,1.77.61,2.52,2.52,0,0,1,.62,1.87v5.07h-1.31V73.14a3.27,3.27,0,0,0-.13-1.08,1.06,1.06,0,0,0-.46-.53,1.5,1.5,0,0,0-.79-.2,1.88,1.88,0,0,0-1.36.52,2.21,2.21,0,0,0-.54,1.66v4.29H144V73a2,2,0,0,0-.32-1.25,1.24,1.24,0,0,0-1.05-.42,2,2,0,0,0-1,.28,1.6,1.6,0,0,0-.68.81,4.37,4.37,0,0,0-.21,1.54v3.83Z" transform="translate(-50.17)"/>
    <path d="M157.47,76.88a4.94,4.94,0,0,1-1.4.83,4.24,4.24,0,0,1-1.45.24,2.91,2.91,0,0,1-2-.59,1.92,1.92,0,0,1-.69-1.52,2,2,0,0,1,.26-1,2.08,2.08,0,0,1,.68-.72,3.27,3.27,0,0,1,.95-.41,10,10,0,0,1,1.17-.19,12.57,12.57,0,0,0,2.34-.43q0-.26,0-.33a1.34,1.34,0,0,0-.37-1.08,2.28,2.28,0,0,0-1.5-.42,2.41,2.41,0,0,0-1.37.31,1.87,1.87,0,0,0-.65,1.09l-1.28-.17a3,3,0,0,1,.58-1.27,2.54,2.54,0,0,1,1.16-.74,5.41,5.41,0,0,1,1.76-.26,4.86,4.86,0,0,1,1.61.22,2.14,2.14,0,0,1,.91.56,1.93,1.93,0,0,1,.41.85,6.71,6.71,0,0,1,.07,1.15V74.7a16.91,16.91,0,0,0,.08,2.21,2.7,2.7,0,0,0,.33.89h-1.37A2.55,2.55,0,0,1,157.47,76.88Zm-.11-2.79a10,10,0,0,1-2.15.47,5.17,5.17,0,0,0-1.15.25,1.13,1.13,0,0,0-.52.41,1,1,0,0,0-.18.59,1,1,0,0,0,.4.83,1.77,1.77,0,0,0,1.16.33,2.82,2.82,0,0,0,1.35-.32,2,2,0,0,0,.87-.87,2.89,2.89,0,0,0,.21-1.25Z" transform="translate(-50.17)"/>
    <path d="M164.11,76.67l.19,1.11a5.13,5.13,0,0,1-1,.11,2.34,2.34,0,0,1-1.11-.22,1.23,1.23,0,0,1-.55-.57,4.27,4.27,0,0,1-.16-1.48V71.39h-1v-1h1V68.59l1.31-.75v2.58h1.32v1h-1.32V75.7a2.08,2.08,0,0,0,.07.69.53.53,0,0,0,.23.24.91.91,0,0,0,.45.09A4.44,4.44,0,0,0,164.11,76.67Z" transform="translate(-50.17)"/>
    <path d="M165.93,69V67.61h1.31V69Zm0,8.75V70.41h1.31v7.38Z" transform="translate(-50.17)"/>
    <path d="M169.28,74.1a3.47,3.47,0,0,1,3.63-3.86,3.57,3.57,0,0,1,2.61,1,3.69,3.69,0,0,1,1,2.76,4.69,4.69,0,0,1-.45,2.24,3.1,3.1,0,0,1-1.31,1.27,4,4,0,0,1-1.87.45,3.58,3.58,0,0,1-2.63-1A3.85,3.85,0,0,1,169.28,74.1Zm1.35,0a3,3,0,0,0,.65,2.12,2.23,2.23,0,0,0,3.26,0,3.11,3.11,0,0,0,.65-2.16,3,3,0,0,0-.65-2.07,2.24,2.24,0,0,0-3.26,0A3,3,0,0,0,170.63,74.1Z" transform="translate(-50.17)"/>
    <path d="M178.6,77.79V70.41h1.18v1a2.83,2.83,0,0,1,2.47-1.22,3.37,3.37,0,0,1,1.29.24,2,2,0,0,1,.88.63,2.35,2.35,0,0,1,.41.92,6.8,6.8,0,0,1,.07,1.22v4.54h-1.31V73.3a3.23,3.23,0,0,0-.15-1.14,1.23,1.23,0,0,0-.54-.6,1.8,1.8,0,0,0-.92-.23,2.19,2.19,0,0,0-1.45.51,2.43,2.43,0,0,0-.61,1.93v4Z" transform="translate(-50.17)"/>
    <path d="M247.28,73.34l-7.09,2.88V75l5.61-2.22-5.61-2.2V69.32l7.09,2.85Z" transform="translate(-50.17)"/>
    <path d="M62,90.22l1.42.34a4.51,4.51,0,0,1-1.6,2.53A4.56,4.56,0,0,1,59,94a5.28,5.28,0,0,1-2.81-.67,4.23,4.23,0,0,1-1.65-1.94A6.64,6.64,0,0,1,54,88.62a5.77,5.77,0,0,1,.64-2.78A4.26,4.26,0,0,1,56.46,84a5.52,5.52,0,0,1,2.59-.62,4.54,4.54,0,0,1,2.7.78,4,4,0,0,1,1.53,2.19l-1.39.31a3.14,3.14,0,0,0-1.08-1.62A3,3,0,0,0,59,84.59a3.58,3.58,0,0,0-2.06.56,3,3,0,0,0-1.16,1.51,5.83,5.83,0,0,0-.34,2,6,6,0,0,0,.4,2.27,2.86,2.86,0,0,0,1.24,1.45,3.6,3.6,0,0,0,1.82.48,3.14,3.14,0,0,0,2-.65A3.31,3.31,0,0,0,62,90.22Z" transform="translate(-50.17)"/>
    <path d="M70.64,93.79V92.71A2.88,2.88,0,0,1,68.18,94a3.26,3.26,0,0,1-1.28-.25,2.1,2.1,0,0,1-.88-.63,2.29,2.29,0,0,1-.41-.93A6,6,0,0,1,65.53,91V86.41h1.31v4.09a7,7,0,0,0,.08,1.32,1.3,1.3,0,0,0,.53.77,1.69,1.69,0,0,0,1,.28,2.24,2.24,0,0,0,1.11-.29,1.63,1.63,0,0,0,.73-.79,3.78,3.78,0,0,0,.21-1.44v-4h1.31v7.38Z" transform="translate(-50.17)"/>
    <path d="M74.38,93.79V86.41h1.18v1.12a3.07,3.07,0,0,1,.84-1,1.51,1.51,0,0,1,.84-.25,2.66,2.66,0,0,1,1.35.4l-.45,1.16a2,2,0,0,0-1-.27,1.29,1.29,0,0,0-.77.25,1.33,1.33,0,0,0-.49.68,4.66,4.66,0,0,0-.22,1.46v3.86Z" transform="translate(-50.17)"/>
    <path d="M79.88,93.79V86.41h1.18v1.12a3.07,3.07,0,0,1,.84-1,1.51,1.51,0,0,1,.84-.25,2.66,2.66,0,0,1,1.35.4l-.45,1.16a2,2,0,0,0-1-.27,1.29,1.29,0,0,0-.77.25,1.33,1.33,0,0,0-.49.68,4.66,4.66,0,0,0-.22,1.46v3.86Z" transform="translate(-50.17)"/>
    <path d="M90.7,91.42l1.36.16a3.14,3.14,0,0,1-1.19,1.76,3.7,3.7,0,0,1-2.22.63A3.64,3.64,0,0,1,86,93a3.78,3.78,0,0,1-1-2.8,4,4,0,0,1,1-2.89,3.5,3.5,0,0,1,2.61-1,3.4,3.4,0,0,1,2.54,1,3.89,3.89,0,0,1,1,2.84q0,.11,0,.33H86.32A2.76,2.76,0,0,0,87,92.29a2.2,2.2,0,0,0,1.62.65,2.08,2.08,0,0,0,1.23-.36A2.4,2.4,0,0,0,90.7,91.42Zm-4.31-2h4.33a2.43,2.43,0,0,0-.5-1.4,2.06,2.06,0,0,0-1.63-.72,2.14,2.14,0,0,0-1.52.58A2.23,2.23,0,0,0,86.39,89.39Z" transform="translate(-50.17)"/>
    <path d="M94.23,93.79V86.41h1.18v1a2.83,2.83,0,0,1,2.47-1.22,3.37,3.37,0,0,1,1.29.24,2,2,0,0,1,.88.63,2.36,2.36,0,0,1,.41.92,6.86,6.86,0,0,1,.07,1.22v4.54H99.22V89.3a3.22,3.22,0,0,0-.15-1.14,1.22,1.22,0,0,0-.54-.6,1.8,1.8,0,0,0-.92-.23,2.19,2.19,0,0,0-1.45.51,2.43,2.43,0,0,0-.61,1.93v4Z" transform="translate(-50.17)"/>
    <path d="M105.94,92.67l.19,1.11a5.14,5.14,0,0,1-1,.11,2.34,2.34,0,0,1-1.11-.22,1.23,1.23,0,0,1-.55-.57,4.27,4.27,0,0,1-.16-1.48V87.39h-1v-1h1V84.59l1.31-.75v2.58h1.32v1h-1.32V91.7a2.08,2.08,0,0,0,.07.69.53.53,0,0,0,.23.24.91.91,0,0,0,.45.09A4.44,4.44,0,0,0,105.94,92.67Z" transform="translate(-50.17)"/>
    <path d="M112.66,93.79V83.61h7.22v1.2h-5.8V88h5v1.2h-5v4.63Z" transform="translate(-50.17)"/>
    <path d="M127.13,92.88a4.94,4.94,0,0,1-1.4.83,4.24,4.24,0,0,1-1.45.24,2.91,2.91,0,0,1-2-.59,1.92,1.92,0,0,1-.69-1.52,2,2,0,0,1,.26-1,2.08,2.08,0,0,1,.68-.72,3.27,3.27,0,0,1,.95-.41,10,10,0,0,1,1.17-.19,12.57,12.57,0,0,0,2.34-.43q0-.26,0-.33a1.34,1.34,0,0,0-.37-1.08,2.28,2.28,0,0,0-1.5-.42,2.41,2.41,0,0,0-1.37.31,1.87,1.87,0,0,0-.65,1.09l-1.28-.17a3,3,0,0,1,.58-1.27,2.54,2.54,0,0,1,1.16-.74,5.41,5.41,0,0,1,1.76-.26,4.86,4.86,0,0,1,1.61.22,2.14,2.14,0,0,1,.91.56,1.93,1.93,0,0,1,.41.85,6.71,6.71,0,0,1,.07,1.15V90.7a16.91,16.91,0,0,0,.08,2.21,2.7,2.7,0,0,0,.33.89h-1.37A2.55,2.55,0,0,1,127.13,92.88ZM127,90.09a10,10,0,0,1-2.15.47,5.17,5.17,0,0,0-1.15.25,1.13,1.13,0,0,0-.52.41,1,1,0,0,0-.18.59,1,1,0,0,0,.4.83,1.77,1.77,0,0,0,1.16.33,2.82,2.82,0,0,0,1.35-.32,2,2,0,0,0,.87-.87,2.89,2.89,0,0,0,.21-1.25Z" transform="translate(-50.17)"/>
    <path d="M136,93.79V92.71A2.88,2.88,0,0,1,133.53,94a3.26,3.26,0,0,1-1.28-.25,2.1,2.1,0,0,1-.88-.63,2.29,2.29,0,0,1-.41-.93,6,6,0,0,1-.08-1.17V86.41h1.31v4.09a7,7,0,0,0,.08,1.32,1.3,1.3,0,0,0,.53.77,1.69,1.69,0,0,0,1,.28,2.24,2.24,0,0,0,1.11-.29,1.63,1.63,0,0,0,.73-.79,3.78,3.78,0,0,0,.21-1.44v-4h1.31v7.38Z" transform="translate(-50.17)"/>
    <path d="M139.71,93.79V83.61H141V93.79Z" transform="translate(-50.17)"/>
    <path d="M146.45,92.67l.19,1.11a5.14,5.14,0,0,1-1,.11,2.34,2.34,0,0,1-1.11-.22,1.23,1.23,0,0,1-.55-.57,4.27,4.27,0,0,1-.16-1.48V87.39h-1v-1h1V84.59l1.31-.75v2.58h1.32v1h-1.32V91.7a2.08,2.08,0,0,0,.07.69.53.53,0,0,0,.23.24.91.91,0,0,0,.45.09A4.44,4.44,0,0,0,146.45,92.67Z" transform="translate(-50.17)"/>
    <path d="M246.89,89.34l-7.09,2.88V91l5.61-2.22-5.61-2.2V85.32l7.09,2.85Z" transform="translate(-50.17)"/>
  </g>
</svg>
