<svg xmlns="http://www.w3.org/2000/svg" width="0.42in" height="0.43in" viewBox="0 0 30.02 30.72">
  <defs>
    <style>
      .cls-1 {
        fill: #231f20;
        isolation: isolate;
      }

      .cls-2, .cls-3 {
        fill: #fff;
      }

      .cls-3 {
        stroke: #000;
      }
    </style>
  </defs>
  <title>UIM-status_blwr_prover_cntcts_clsd_icon</title>
  <g id="display_icons" data-name="display icons">
    <g>
      <g>
        <g>
          <path class="cls-1" d="M26.71,12c-2.46,2.46-9.61,5.12-12.37,2.36S14.25,4.44,16.7,2s6.69-2.21,9.45.56S29.17,9.53,26.71,12Z" transform="translate(0 0)"/>
          <path class="cls-2" d="M16.5,1.77C14,4.3,11.18,11.6,14.13,14.56a5,5,0,0,0,3.66,1.26,15,15,0,0,0,9.13-3.62h0A6.19,6.19,0,0,0,28.7,7.77a7.79,7.79,0,0,0-2.33-5.44C23.49-.54,19.06-.79,16.5,1.77ZM14.55,14.14c-2.58-2.57,0-9.6,2.36-12s6.39-2.09,9,.56a7.2,7.2,0,0,1,2.16,5,5.61,5.61,0,0,1-1.6,4h0a14.31,14.31,0,0,1-8.71,3.45A4.42,4.42,0,0,1,14.55,14.14Z" transform="translate(0 0)"/>
        </g>
        <g>
          <path class="cls-1" d="M2,16.75c2.46-2.46,9.61-5.13,12.37-2.36S14.45,24.3,12,26.76,5.3,29,2.54,26.2-.47,19.21,2,16.75Z" transform="translate(0 0)"/>
          <path class="cls-2" d="M10.91,12.92a15,15,0,0,0-9.13,3.62h0A6.19,6.19,0,0,0,0,21a7.79,7.79,0,0,0,2.33,5.44,7.79,7.79,0,0,0,5.44,2.33A6.2,6.2,0,0,0,12.2,27a14.74,14.74,0,0,0,3.22-6.21c.76-2.94.45-5.27-.85-6.58A5,5,0,0,0,10.91,12.92ZM2.75,26A7.2,7.2,0,0,1,.59,21a5.61,5.61,0,0,1,1.6-4h0a14.32,14.32,0,0,1,8.71-3.45,4.42,4.42,0,0,1,3.24,1.09c2.58,2.57,0,9.59-2.36,12a5.62,5.62,0,0,1-4,1.6A7.2,7.2,0,0,1,2.75,26Z" transform="translate(0 0)"/>
        </g>
        <g>
          <path class="cls-1" d="M12,2.08c2.46,2.46,5.13,9.61,2.36,12.37S4.44,14.54,2,12.09-.22,5.4,2.54,2.64,9.54-.38,12,2.08Z" transform="translate(0 0)"/>
          <path class="cls-2" d="M7.78.09A7.8,7.8,0,0,0,2.33,2.43C-.54,5.3-.79,9.73,1.78,12.3s9.83,5.32,12.79,2.36A5,5,0,0,0,15.82,11,15,15,0,0,0,12.2,1.87h0A6.19,6.19,0,0,0,7.78.09Zm.35,14.85a14.15,14.15,0,0,1-5.94-3.06c-2.34-2.34-2.09-6.39.56-9a7.2,7.2,0,0,1,5-2.16,5.61,5.61,0,0,1,4,1.6h0A14.31,14.31,0,0,1,15.23,11a4.41,4.41,0,0,1-1.09,3.24C12.59,15.8,9.71,15.35,8.13,14.94Z" transform="translate(0 0)"/>
        </g>
        <g>
          <path class="cls-1" d="M16.78,26.73c-2.46-2.45-5.13-9.61-2.36-12.37s9.91-.09,12.37,2.36,2.21,6.69-.56,9.45S19.24,29.19,16.78,26.73Z" transform="translate(0 0)"/>
          <path class="cls-2" d="M14.21,14.15a5,5,0,0,0-1.26,3.66,15,15,0,0,0,3.62,9.13h0A6.2,6.2,0,0,0,21,28.72a8,8,0,0,0,7.78-7.78A6.2,6.2,0,0,0,27,16.52a14.77,14.77,0,0,0-6.21-3.22C17.85,12.55,15.51,12.85,14.21,14.15ZM17,26.52a14.3,14.3,0,0,1-3.45-8.71,4.42,4.42,0,0,1,1.09-3.24c1.56-1.56,4.44-1.11,6-.7a14.12,14.12,0,0,1,5.93,3.06,5.61,5.61,0,0,1,1.61,4A7.39,7.39,0,0,1,21,28.13a5.61,5.61,0,0,1-4-1.61Z" transform="translate(0 0)"/>
        </g>
        <g>
          <circle class="cls-1" cx="14.38" cy="14.4" r="2.95"/>
          <path class="cls-2" d="M11.14,14.4a3.24,3.24,0,1,0,3.24-3.24A3.25,3.25,0,0,0,11.14,14.4Zm.59,0a2.65,2.65,0,1,1,2.65,2.65A2.66,2.66,0,0,1,11.73,14.4Z" transform="translate(0 0)"/>
        </g>
      </g>
      <g>
        <rect class="cls-3" x="18.02" y="18.73" width="11.5" height="11.5"/>
        <path d="M19,25.6c.9.79,2.25,2.7,2.82,3.16a41.55,41.55,0,0,1,6.31-8.68c-3,1-6.31,6.65-6.31,6.65l-1.24-1.46Z" transform="translate(0 0)"/>
      </g>
    </g>
  </g>
</svg>
