<svg id="Layer_1" data-name="Layer 1" xmlns="http://www.w3.org/2000/svg" viewBox="0 0 62.87 62.91"><title>UIM_combustion_blower_reenergized_icon</title><path d="M62.6,30.42a11.47,11.47,0,0,0-1.36-3.72,19.85,19.85,0,0,0-2.11-2.8,10.25,10.25,0,0,0-2.41-1.71,12.21,12.21,0,0,0-3.1-.89,21.53,21.53,0,0,0-3.37-.12,18.68,18.68,0,0,0-3.12.5,13.29,13.29,0,0,0-2.55,1C44,23,43,23.6,42.51,24a11.46,11.46,0,0,0-2.06,2c-.15.19-.28.38-.4.57A10,10,0,0,0,35.5,22.4a3.18,3.18,0,0,1,.07-.63,5.66,5.66,0,0,1,.52-1.24c.22-.38.69-1.1,1-1.59a12.65,12.65,0,0,1,1.54-1.69c.49-.44,1.73-1.51,2.75-2.38a19.29,19.29,0,0,0,2.7-2.8A8.35,8.35,0,0,0,45.24,9.6a13.89,13.89,0,0,0,.27-2.41A6.87,6.87,0,0,0,45,4.91,7.33,7.33,0,0,0,43.43,2.8a12.22,12.22,0,0,0-2.58-1.64,14.57,14.57,0,0,0-3-.92A26.51,26.51,0,0,0,34.36,0a34.63,34.63,0,0,0-3.94.27A11.45,11.45,0,0,0,26.7,1.64a19.9,19.9,0,0,0-2.8,2.11,10.23,10.23,0,0,0-1.71,2.41,12.22,12.22,0,0,0-.89,3.1,21.57,21.57,0,0,0-.12,3.37,18.65,18.65,0,0,0,.5,3.12,13.26,13.26,0,0,0,1,2.55c.34.6.91,1.53,1.26,2.06a11.42,11.42,0,0,0,2,2.06,6.87,6.87,0,0,0,.57.4,10,10,0,0,0-4.14,4.53,3.13,3.13,0,0,1-.63-.07,5.62,5.62,0,0,1-1.24-.52c-.38-.22-1.09-.69-1.58-1a12.7,12.7,0,0,1-1.68-1.54c-.44-.49-1.5-1.73-2.37-2.76a19.23,19.23,0,0,0-2.79-2.71,8.32,8.32,0,0,0-2.48-1.12,13.85,13.85,0,0,0-2.4-.28,6.86,6.86,0,0,0-2.28.49,7.34,7.34,0,0,0-2.11,1.58,12.24,12.24,0,0,0-1.64,2.57,14.58,14.58,0,0,0-.93,3A26.53,26.53,0,0,0,0,28.42a34.44,34.44,0,0,0,.26,3.94,11.48,11.48,0,0,0,1.35,3.72,19.82,19.82,0,0,0,2.1,2.81,10.29,10.29,0,0,0,2.4,1.72,12.2,12.2,0,0,0,3.1.9,21.55,21.55,0,0,0,3.37.13,18.68,18.68,0,0,0,3.12-.49,13.26,13.26,0,0,0,2.56-1c.6-.34,1.53-.91,2.06-1.26a11.39,11.39,0,0,0,2.06-2,6.71,6.71,0,0,0,.4-.56,10,10,0,0,0,4.65,4.22,3.13,3.13,0,0,1-.06.63,5.6,5.6,0,0,1-.51,1.24c-.21.38-.68,1.1-1,1.6a12.69,12.69,0,0,1-1.52,1.7c-.49.44-1.72,1.52-2.73,2.41a19.22,19.22,0,0,0-2.68,2.83,8.33,8.33,0,0,0-1.09,2.49,13.81,13.81,0,0,0-.25,2.41,6.86,6.86,0,0,0,.52,2.28,7.34,7.34,0,0,0,1.61,2.09A12.2,12.2,0,0,0,22.3,61.8a14.56,14.56,0,0,0,3,.89,26.66,26.66,0,0,0,3.5.21,34.46,34.46,0,0,0,3.94-.31,11.46,11.46,0,0,0,3.71-1.4,19.91,19.91,0,0,0,2.78-2.13,10.25,10.25,0,0,0,1.69-2.42,12.21,12.21,0,0,0,.86-3.11,21.51,21.51,0,0,0,.09-3.37A18.74,18.74,0,0,0,41.35,47a13.33,13.33,0,0,0-1-2.54c-.35-.6-.92-1.52-1.29-2a11.4,11.4,0,0,0-2.05-2,6.92,6.92,0,0,0-.57-.4,10,10,0,0,0,4.07-4.5,3.11,3.11,0,0,1,.63.07,5.64,5.64,0,0,1,1.24.52c.38.22,1.1.69,1.59,1a12.61,12.61,0,0,1,1.69,1.54c.44.49,1.51,1.73,2.38,2.75a19.29,19.29,0,0,0,2.8,2.7,8.32,8.32,0,0,0,2.48,1.12,13.89,13.89,0,0,0,2.41.27A6.87,6.87,0,0,0,58,45a7.33,7.33,0,0,0,2.11-1.59,12.28,12.28,0,0,0,1.64-2.58,14.54,14.54,0,0,0,.92-3,26.43,26.43,0,0,0,.25-3.5A34.51,34.51,0,0,0,62.6,30.42ZM31.43,38.86a7.42,7.42,0,1,1,7.42-7.42A7.43,7.43,0,0,1,31.43,38.86Z"/><circle cx="31.43" cy="31.44" r="4.5"/><path d="M19.93,6.8l-1-1.73a50,50,0,0,0-10.67,9l1.51,1.32A48.91,48.91,0,0,1,19.93,6.8Z"/><path d="M13.66,17.5l1.13,1.06a41.25,41.25,0,0,1,5-4.51l-.93-1.24A42.86,42.86,0,0,0,13.66,17.5Z"/><path d="M56.16,20.14l1.74-1a50.06,50.06,0,0,0-9-10.74L47.61,9.9A48.9,48.9,0,0,1,56.16,20.14Z"/><path d="M44.44,14.9a41.29,41.29,0,0,1,4.47,5L50.16,19a42.91,42.91,0,0,0-4.65-5.21Z"/><path d="M42.81,56.13l1,1.73a50,50,0,0,0,10.71-9L53,47.55A48.87,48.87,0,0,1,42.81,56.13Z"/><path d="M49.14,45.46,48,44.39a41.15,41.15,0,0,1-5,4.49l.93,1.24A42.66,42.66,0,0,0,49.14,45.46Z"/><path d="M6.95,43.26l-1.71,1a50.07,50.07,0,0,0,9.18,10.55l1.3-1.52A48.83,48.83,0,0,1,6.95,43.26Z"/><path d="M18.78,48.25a41.17,41.17,0,0,1-4.58-4.91L13,44.29a42.85,42.85,0,0,0,4.76,5.11Z"/></svg>