<svg id="Layer_1" data-name="Layer 1" xmlns="http://www.w3.org/2000/svg" viewBox="0 0 225.67 130.33"><title>UIM_wmsg_high_temp_limit_exceeded</title><rect x="0.5" y="0.5" width="224.67" height="129.31" style="fill:none;stroke:#000"/><rect x="0.49" y="101.87" width="224.67" height="27.94" style="fill:none"/><rect x="0.53" y="101.87" width="44.92" height="27.98" style="fill:none"/><rect x="45.65" y="101.87" width="44.92" height="27.98" style="fill:none"/><rect x="90.57" y="101.87" width="44.92" height="27.98" style="fill:none;stroke:#000;stroke-linecap:round;stroke-linejoin:round;stroke-width:0.9753649999999999px"/><rect x="176.45" y="101.87" width="48.71" height="27.98" style="fill:none;stroke:#000;stroke-linecap:round;stroke-linejoin:round;stroke-width:0.9753649999999999px"/><rect x="135.36" y="101.87" width="41.22" height="27.98" style="fill:none"/><line x1="0.53" y1="101.87" x2="225.04" y2="101.87" style="fill:none;stroke:#000;stroke-linecap:round;stroke-linejoin:round;stroke-width:0.9753649999999999px"/><path d="M180.52,118.84l1.89-7.87h.7l2,7.87h-.74l-.58-2.38h-2.06l-.54,2.38Zm1.42-3.23h1.67l-.51-2.18q-.24-1-.35-1.63a14.87,14.87,0,0,1-.27,1.5Z" style="fill:#231f20"/><path d="M185.8,118.84V111h1.7a2.63,2.63,0,0,1,.88.11,1.56,1.56,0,0,1,.72.56,3.64,3.64,0,0,1,.58,1.35,8.18,8.18,0,0,1,.19,1.87,8.66,8.66,0,0,1-.13,1.59,5.17,5.17,0,0,1-.34,1.15,2.59,2.59,0,0,1-.45.71,1.58,1.58,0,0,1-.59.4,2.19,2.19,0,0,1-.79.13Zm.65-.93h1.05a1.67,1.67,0,0,0,.77-.15,1.13,1.13,0,0,0,.44-.41,3.06,3.06,0,0,0,.36-1,7.57,7.57,0,0,0,.13-1.52,5.54,5.54,0,0,0-.25-1.9,1.74,1.74,0,0,0-.62-.89,1.68,1.68,0,0,0-.84-.16h-1Z" style="fill:#231f20"/><path d="M192.32,118.84,190.41,111h.71l1.28,5.72q.16.69.26,1.29.11-.64.27-1.29l1.33-5.72h.67L193,118.84Z" style="fill:#231f20"/><path d="M195,118.84l1.89-7.87h.7l2,7.87h-.74l-.58-2.38H196.2l-.54,2.38Zm1.42-3.23h1.67l-.51-2.18q-.24-1-.35-1.63a14.87,14.87,0,0,1-.27,1.5Z" style="fill:#231f20"/><path d="M200.65,118.84V111h.67l2.59,6.18V111h.63v7.87h-.67l-2.59-6.19v6.19Z" style="fill:#231f20"/><path d="M209.7,116.08l.65.26a4.21,4.21,0,0,1-.74,2,1.61,1.61,0,0,1-1.3.67,1.72,1.72,0,0,1-1.3-.52,3.37,3.37,0,0,1-.76-1.5,8.21,8.21,0,0,1-.26-2.11,7,7,0,0,1,.29-2.15,3,3,0,0,1,.84-1.39,1.78,1.78,0,0,1,1.2-.47,1.56,1.56,0,0,1,1.24.6,3.59,3.59,0,0,1,.7,1.69l-.64.24a2.85,2.85,0,0,0-.5-1.25,1,1,0,0,0-.82-.39,1.22,1.22,0,0,0-1,.43,2.54,2.54,0,0,0-.54,1.17,7.29,7.29,0,0,0-.16,1.51,7.44,7.44,0,0,0,.18,1.75,2.26,2.26,0,0,0,.57,1.12,1.19,1.19,0,0,0,.84.37,1.13,1.13,0,0,0,.93-.5A3.22,3.22,0,0,0,209.7,116.08Z" style="fill:#231f20"/><path d="M211.72,118.84V111h3.57v.93h-2.91v2.41h2.73v.92h-2.73v2.68h3v.93Z" style="fill:#231f20"/><path d="M216.85,118.84V111h1.7a2.63,2.63,0,0,1,.88.11,1.56,1.56,0,0,1,.72.56,3.64,3.64,0,0,1,.58,1.35,8.18,8.18,0,0,1,.19,1.87,8.66,8.66,0,0,1-.13,1.59,5.17,5.17,0,0,1-.34,1.15,2.59,2.59,0,0,1-.45.71,1.58,1.58,0,0,1-.59.4,2.19,2.19,0,0,1-.79.13Zm.65-.93h1.05a1.67,1.67,0,0,0,.77-.15,1.13,1.13,0,0,0,.44-.41,3.06,3.06,0,0,0,.36-1,7.57,7.57,0,0,0,.13-1.52,5.54,5.54,0,0,0-.25-1.9,1.74,1.74,0,0,0-.62-.89,1.68,1.68,0,0,0-.84-.16h-1Z" style="fill:#231f20"/><rect x="209.68" y="86.13" width="15.48" height="15.65" style="fill:none;stroke:#000;stroke-width:0.9753649999999999px"/><polygon points="210.45 93.05 217.42 100.01 224.37 93.05 210.45 93.05" style="fill:#231f20"/><rect x="209.68" y="40.98" width="15.48" height="15.65" style="fill:none;stroke:#000;stroke-width:0.9753649999999999px"/><rect x="211.23" y="58.21" width="12.5" height="14.08"/><polygon points="224.4 49.82 217.42 42.86 210.48 49.82 224.4 49.82" style="fill:#231f20"/><path d="M103.71,118.84V111h1.85a1.38,1.38,0,0,1,1.44,1,2.84,2.84,0,0,1,.19,1,2.6,2.6,0,0,1-.17,1,1.65,1.65,0,0,1-.52.72,1.43,1.43,0,0,1,.69.71,2.73,2.73,0,0,1,.24,1.19,3.48,3.48,0,0,1-.15,1,2.12,2.12,0,0,1-.36.73,1.34,1.34,0,0,1-.54.39,2.11,2.11,0,0,1-.79.13Zm.65-4.57h1.07a1.54,1.54,0,0,0,.62-.09.78.78,0,0,0,.38-.39,1.64,1.64,0,0,0,.13-.69,1.86,1.86,0,0,0-.12-.69.73.73,0,0,0-.34-.41,1.82,1.82,0,0,0-.75-.11h-1Zm0,3.64h1.23a1.76,1.76,0,0,0,.44,0,.85.85,0,0,0,.38-.21,1.09,1.09,0,0,0,.25-.44,2.05,2.05,0,0,0,.1-.66,1.9,1.9,0,0,0-.14-.77.89.89,0,0,0-.39-.46,1.6,1.6,0,0,0-.72-.13h-1.14Z"/><path d="M108.34,118.84l1.89-7.87h.7l2,7.87h-.74l-.58-2.38h-2.06l-.54,2.38Zm1.42-3.23h1.67l-.51-2.18q-.24-1-.35-1.63a14.87,14.87,0,0,1-.27,1.5Z"/><path d="M117.55,116.08l.65.26a4.21,4.21,0,0,1-.74,2,1.61,1.61,0,0,1-1.3.67,1.72,1.72,0,0,1-1.3-.52,3.37,3.37,0,0,1-.76-1.5,8.21,8.21,0,0,1-.26-2.11,7,7,0,0,1,.29-2.15,3,3,0,0,1,.84-1.39,1.78,1.78,0,0,1,1.2-.47,1.56,1.56,0,0,1,1.24.6,3.59,3.59,0,0,1,.7,1.69l-.64.24a2.85,2.85,0,0,0-.5-1.25,1,1,0,0,0-.82-.39,1.22,1.22,0,0,0-1,.43,2.54,2.54,0,0,0-.54,1.17,7.29,7.29,0,0,0-.16,1.51,7.44,7.44,0,0,0,.18,1.75,2.26,2.26,0,0,0,.57,1.12,1.19,1.19,0,0,0,.84.37,1.13,1.13,0,0,0,.93-.5A3.22,3.22,0,0,0,117.55,116.08Z"/><path d="M119.53,118.84V111h.65v3.91l2.45-3.91h.88l-2.07,3.19,2.16,4.68h-.86l-1.76-4-.81,1.26v2.73Z"/><line x1="0.53" y1="40.99" x2="225.04" y2="40.99" style="fill:none;stroke:#000;stroke-linecap:round;stroke-linejoin:round;stroke-width:0.9753649999999999px"/><line x1="209.68" y1="51.65" x2="209.68" y2="90.99" style="fill:none;stroke:#000;stroke-width:0.9753649999999999px"/><path d="M50.64,23.32a7.49,7.49,0,0,1,.25-2.16,2.72,2.72,0,0,1,.76-1.26,1.84,1.84,0,0,1,1.26-.44,1.93,1.93,0,0,1,1,.25,2,2,0,0,1,.7.71A4,4,0,0,1,55,21.53a8.13,8.13,0,0,1,.16,1.79,7.53,7.53,0,0,1-.25,2.15,2.72,2.72,0,0,1-.75,1.27,1.83,1.83,0,0,1-1.27.45,1.86,1.86,0,0,1-1.58-.79A5.33,5.33,0,0,1,50.64,23.32Zm.88,0a5.1,5.1,0,0,0,.4,2.48,1.1,1.1,0,0,0,2,0,5.11,5.11,0,0,0,.4-2.48,5.1,5.1,0,0,0-.4-2.49,1.18,1.18,0,0,0-1-.62,1.08,1.08,0,0,0-.94.54A5.16,5.16,0,0,0,51.52,23.32Z"/><path d="M64.23,27.06v-.69a1.55,1.55,0,0,1-1.41.82,1.88,1.88,0,0,1-1.11-.36,2.34,2.34,0,0,1-.79-1,3.75,3.75,0,0,1-.28-1.49,4.19,4.19,0,0,1,.25-1.49,2.14,2.14,0,0,1,.76-1,1.91,1.91,0,0,1,1.13-.36,1.58,1.58,0,0,1,.81.21,1.75,1.75,0,0,1,.58.55V19.48H65v7.58Zm-2.71-2.74a2.53,2.53,0,0,0,.41,1.58,1.2,1.2,0,0,0,1,.52,1.18,1.18,0,0,0,1-.5,2.44,2.44,0,0,0,.39-1.52,2.75,2.75,0,0,0-.4-1.65,1.2,1.2,0,0,0-1-.53,1.16,1.16,0,0,0-1,.51A2.66,2.66,0,0,0,61.52,24.32Z"/><path d="M70.64,26.38a3.17,3.17,0,0,1-.92.62,2.47,2.47,0,0,1-.94.18,1.74,1.74,0,0,1-1.28-.44,1.52,1.52,0,0,1-.45-1.13,1.6,1.6,0,0,1,.17-.74,1.49,1.49,0,0,1,.44-.54,2,2,0,0,1,.62-.3,5.6,5.6,0,0,1,.76-.14,7.3,7.3,0,0,0,1.53-.32c0-.13,0-.21,0-.24a1.08,1.08,0,0,0-.24-.8,1.36,1.36,0,0,0-1-.32,1.42,1.42,0,0,0-.89.23,1.44,1.44,0,0,0-.43.81l-.84-.12a2.36,2.36,0,0,1,.38-.94,1.65,1.65,0,0,1,.76-.55,3.14,3.14,0,0,1,1.15-.19,2.81,2.81,0,0,1,1.05.17,1.38,1.38,0,0,1,.59.42,1.53,1.53,0,0,1,.27.63,5.63,5.63,0,0,1,0,.86v1.24a14.25,14.25,0,0,0,.05,1.64,2.17,2.17,0,0,0,.22.66h-.89A2.11,2.11,0,0,1,70.64,26.38Zm-.07-2.08a5.88,5.88,0,0,1-1.4.35,3,3,0,0,0-.75.19.76.76,0,0,0-.34.3.84.84,0,0,0-.12.44.82.82,0,0,0,.26.62,1.06,1.06,0,0,0,.76.25,1.65,1.65,0,0,0,.88-.24,1.41,1.41,0,0,0,.57-.64,2.43,2.43,0,0,0,.14-.93Z"/><path d="M73.7,29.17l-.1-.87a1.75,1.75,0,0,0,.49.08.88.88,0,0,0,.46-.1.81.81,0,0,0,.28-.29,4.86,4.86,0,0,0,.26-.69l.08-.23-1.92-5.5h.92l1.05,3.18q.2.6.37,1.27.15-.64.35-1.25L77,21.57h.86L76,27.15a11.44,11.44,0,0,1-.48,1.25,1.81,1.81,0,0,1-.52.67,1.17,1.17,0,0,1-.7.21A1.6,1.6,0,0,1,73.7,29.17Z"/><path d="M79.24,25.42l.85-.14a1.33,1.33,0,0,0,.4.85,1.31,1.31,0,0,0,.91.29,1.26,1.26,0,0,0,.88-.26.8.8,0,0,0,.29-.61.58.58,0,0,0-.25-.5,3.52,3.52,0,0,0-.88-.32,7.47,7.47,0,0,1-1.31-.45,1.3,1.3,0,0,1-.55-.52,1.47,1.47,0,0,1-.19-.74,1.52,1.52,0,0,1,.15-.68,1.47,1.47,0,0,1,.42-.52,1.7,1.7,0,0,1,.54-.27,2.39,2.39,0,0,1,.74-.11,2.72,2.72,0,0,1,1,.19,1.43,1.43,0,0,1,.66.5,2.08,2.08,0,0,1,.29.85l-.84.12a1,1,0,0,0-.33-.66,1.14,1.14,0,0,0-.77-.24,1.32,1.32,0,0,0-.84.21.63.63,0,0,0-.25.5.54.54,0,0,0,.1.33.76.76,0,0,0,.33.25l.76.24a10.06,10.06,0,0,1,1.27.43,1.32,1.32,0,0,1,.56.49,1.46,1.46,0,0,1,.2.8,1.66,1.66,0,0,1-1,1.51,2.45,2.45,0,0,1-1.07.22,2.24,2.24,0,0,1-1.5-.44A2.12,2.12,0,0,1,79.24,25.42Z"/><path d="M88.87,23.32a7.49,7.49,0,0,1,.25-2.16,2.72,2.72,0,0,1,.76-1.26,1.84,1.84,0,0,1,1.26-.44,1.93,1.93,0,0,1,1,.25,2,2,0,0,1,.7.71,4,4,0,0,1,.43,1.13,8.13,8.13,0,0,1,.16,1.79,7.53,7.53,0,0,1-.25,2.15,2.72,2.72,0,0,1-.75,1.27,1.83,1.83,0,0,1-1.27.45,1.86,1.86,0,0,1-1.58-.79A5.33,5.33,0,0,1,88.87,23.32Zm.88,0a5.1,5.1,0,0,0,.4,2.48,1.1,1.1,0,0,0,2,0,5.11,5.11,0,0,0,.4-2.48,5.1,5.1,0,0,0-.4-2.49,1.18,1.18,0,0,0-1-.62,1.08,1.08,0,0,0-.94.54A5.16,5.16,0,0,0,89.75,23.32Z"/><path d="M99.19,27.06V19.48H100V22.2a1.85,1.85,0,0,1,1.51-.75,1.91,1.91,0,0,1,1,.24,1.37,1.37,0,0,1,.59.66,3.29,3.29,0,0,1,.18,1.23v3.48h-.86V23.58a1.52,1.52,0,0,0-.28-1,1,1,0,0,0-.79-.32,1.31,1.31,0,0,0-.72.21,1.18,1.18,0,0,0-.48.58,2.89,2.89,0,0,0-.14,1v3Z"/><path d="M105.57,27.06V21.57h.77v.83a2.25,2.25,0,0,1,.54-.77.9.9,0,0,1,.55-.19,1.58,1.58,0,0,1,.88.3l-.3.86a1.15,1.15,0,0,0-.63-.2.78.78,0,0,0-.5.18,1,1,0,0,0-.32.51,3.91,3.91,0,0,0-.14,1.08v2.87Z"/><path d="M109.46,25.42l.85-.14a1.33,1.33,0,0,0,.4.85,1.31,1.31,0,0,0,.91.29,1.26,1.26,0,0,0,.88-.26.8.8,0,0,0,.29-.61.58.58,0,0,0-.25-.5,3.52,3.52,0,0,0-.88-.32,7.47,7.47,0,0,1-1.31-.45,1.3,1.3,0,0,1-.55-.52,1.47,1.47,0,0,1-.19-.74,1.52,1.52,0,0,1,.15-.68,1.47,1.47,0,0,1,.42-.52,1.7,1.7,0,0,1,.54-.27,2.39,2.39,0,0,1,.74-.11,2.72,2.72,0,0,1,1,.19,1.43,1.43,0,0,1,.66.5,2.08,2.08,0,0,1,.29.85l-.84.12a1,1,0,0,0-.33-.66,1.14,1.14,0,0,0-.77-.24,1.32,1.32,0,0,0-.84.21.63.63,0,0,0-.25.5.54.54,0,0,0,.1.33.76.76,0,0,0,.33.25l.76.24a10.06,10.06,0,0,1,1.27.43,1.32,1.32,0,0,1,.56.49,1.46,1.46,0,0,1,.2.8,1.66,1.66,0,0,1-1,1.51,2.45,2.45,0,0,1-1.07.22,2.24,2.24,0,0,1-1.5-.44A2.12,2.12,0,0,1,109.46,25.42Z"/><path d="M119.09,23.32a7.49,7.49,0,0,1,.25-2.16,2.72,2.72,0,0,1,.76-1.26,1.83,1.83,0,0,1,1.26-.44,1.94,1.94,0,0,1,1,.25,2,2,0,0,1,.7.71,4,4,0,0,1,.43,1.13,8.12,8.12,0,0,1,.16,1.79,7.53,7.53,0,0,1-.25,2.15,2.72,2.72,0,0,1-.75,1.27,1.83,1.83,0,0,1-1.27.45,1.86,1.86,0,0,1-1.58-.79A5.33,5.33,0,0,1,119.09,23.32Zm.88,0a5.11,5.11,0,0,0,.4,2.48,1.1,1.1,0,0,0,2,0,5.11,5.11,0,0,0,.4-2.48,5.11,5.11,0,0,0-.4-2.49,1.18,1.18,0,0,0-1-.62,1.08,1.08,0,0,0-.94.54A5.16,5.16,0,0,0,120,23.32Z"/><path d="M129.41,27.06V21.57h.77v.77a1.88,1.88,0,0,1,.63-.65,1.67,1.67,0,0,1,.9-.25,1.56,1.56,0,0,1,.92.25,1.35,1.35,0,0,1,.51.71,1.79,1.79,0,0,1,1.56-1,1.47,1.47,0,0,1,1.16.45,2,2,0,0,1,.4,1.39v3.77h-.85V23.6a2.79,2.79,0,0,0-.08-.8.76.76,0,0,0-.3-.4.89.89,0,0,0-.51-.15,1.15,1.15,0,0,0-.88.38,1.79,1.79,0,0,0-.35,1.23v3.19h-.86V23.49a1.67,1.67,0,0,0-.21-.93.77.77,0,0,0-.69-.31,1.17,1.17,0,0,0-.67.21,1.16,1.16,0,0,0-.45.61,3.68,3.68,0,0,0-.14,1.15v2.85Z"/><path d="M138.5,20.55V19.48h.86v1.07Zm0,6.51V21.57h.86v5.49Z"/><path d="M141.64,27.06V21.57h.77v.78a1.78,1.78,0,0,1,1.61-.9,2,2,0,0,1,.84.18,1.35,1.35,0,0,1,.57.47,1.89,1.89,0,0,1,.27.69,5.85,5.85,0,0,1,0,.91v3.38h-.86V23.72a2.71,2.71,0,0,0-.1-.85.87.87,0,0,0-.35-.45,1.06,1.06,0,0,0-.6-.17,1.32,1.32,0,0,0-.94.38,2,2,0,0,0-.4,1.43v3Z"/><path d="M147.69,25.42l.85-.14a1.33,1.33,0,0,0,.4.85,1.31,1.31,0,0,0,.91.29,1.26,1.26,0,0,0,.88-.26.81.81,0,0,0,.29-.61.58.58,0,0,0-.25-.5,3.53,3.53,0,0,0-.88-.32,7.47,7.47,0,0,1-1.31-.45,1.3,1.3,0,0,1-.55-.52,1.47,1.47,0,0,1-.19-.74,1.52,1.52,0,0,1,.15-.68,1.48,1.48,0,0,1,.42-.52,1.69,1.69,0,0,1,.54-.27,2.39,2.39,0,0,1,.74-.11,2.72,2.72,0,0,1,1,.19,1.43,1.43,0,0,1,.66.5,2.08,2.08,0,0,1,.29.85l-.84.12a1,1,0,0,0-.33-.66,1.14,1.14,0,0,0-.77-.24,1.32,1.32,0,0,0-.84.21.63.63,0,0,0-.25.5.55.55,0,0,0,.1.33.76.76,0,0,0,.33.25l.76.24a10,10,0,0,1,1.27.43,1.32,1.32,0,0,1,.56.49,1.46,1.46,0,0,1,.2.8,1.66,1.66,0,0,1-1,1.51,2.45,2.45,0,0,1-1.07.22,2.24,2.24,0,0,1-1.5-.44A2.12,2.12,0,0,1,147.69,25.42Z"/><path d="M160.86,26.38a3.16,3.16,0,0,1-.92.62,2.47,2.47,0,0,1-.94.18,1.74,1.74,0,0,1-1.28-.44,1.52,1.52,0,0,1-.45-1.13,1.6,1.6,0,0,1,.17-.74,1.48,1.48,0,0,1,.44-.54,2,2,0,0,1,.62-.3,5.6,5.6,0,0,1,.76-.14,7.3,7.3,0,0,0,1.53-.32c0-.13,0-.21,0-.24a1.09,1.09,0,0,0-.24-.8,1.36,1.36,0,0,0-1-.32,1.42,1.42,0,0,0-.89.23,1.44,1.44,0,0,0-.43.81l-.84-.12a2.36,2.36,0,0,1,.38-.94,1.65,1.65,0,0,1,.76-.55,3.14,3.14,0,0,1,1.15-.19,2.81,2.81,0,0,1,1.05.17,1.38,1.38,0,0,1,.59.42,1.53,1.53,0,0,1,.27.63,5.7,5.7,0,0,1,0,.86v1.24a14.37,14.37,0,0,0,.05,1.64,2.16,2.16,0,0,0,.22.66H161A2.11,2.11,0,0,1,160.86,26.38Zm-.07-2.08a5.89,5.89,0,0,1-1.4.35,3,3,0,0,0-.75.19.76.76,0,0,0-.34.3.85.85,0,0,0-.12.44.82.82,0,0,0,.26.62,1.06,1.06,0,0,0,.76.25,1.65,1.65,0,0,0,.88-.24,1.41,1.41,0,0,0,.57-.64,2.43,2.43,0,0,0,.14-.93Z"/><path d="M163.8,27.51l.83.13a.88.88,0,0,0,.29.61,1.35,1.35,0,0,0,.87.26,1.44,1.44,0,0,0,.92-.26,1.28,1.28,0,0,0,.44-.72,6.35,6.35,0,0,0,.06-1.19,1.71,1.71,0,0,1-1.4.72,1.86,1.86,0,0,1-1.61-.82,3.33,3.33,0,0,1-.57-2,3.91,3.91,0,0,1,.26-1.45,2.24,2.24,0,0,1,.76-1,1.93,1.93,0,0,1,1.17-.36,1.76,1.76,0,0,1,1.47.79v-.66h.79v4.75a4.85,4.85,0,0,1-.24,1.82,1.84,1.84,0,0,1-.76.85,2.47,2.47,0,0,1-1.28.31,2.28,2.28,0,0,1-1.46-.44A1.55,1.55,0,0,1,163.8,27.51Zm.71-3.3a2.54,2.54,0,0,0,.39,1.58,1.24,1.24,0,0,0,2,0,2.45,2.45,0,0,0,.4-1.55,2.39,2.39,0,0,0-.41-1.52,1.24,1.24,0,0,0-1-.51,1.2,1.2,0,0,0-1,.5A2.37,2.37,0,0,0,164.5,24.22Z"/><path d="M170,24.31a3,3,0,0,1,.78-2.26,2.24,2.24,0,0,1,1.59-.61,2.18,2.18,0,0,1,1.7.74,3,3,0,0,1,.66,2,3.92,3.92,0,0,1-.29,1.67,2.17,2.17,0,0,1-.85.94,2.33,2.33,0,0,1-1.22.34,2.18,2.18,0,0,1-1.72-.74A3.12,3.12,0,0,1,170,24.31Zm.88,0a2.48,2.48,0,0,0,.42,1.58,1.34,1.34,0,0,0,2.13,0,2.54,2.54,0,0,0,.42-1.61,2.41,2.41,0,0,0-.43-1.54,1.34,1.34,0,0,0-2.12,0A2.47,2.47,0,0,0,170.91,24.31Z"/><path d="M62.72,37.62V30h5v.89H63.65v2.32h3.86v.89H63.65v2.58h4.28v.89Z"/><path d="M70.06,37.62V32.13h.77V33a2.25,2.25,0,0,1,.54-.77.9.9,0,0,1,.55-.19,1.58,1.58,0,0,1,.88.3l-.3.86a1.15,1.15,0,0,0-.63-.2.78.78,0,0,0-.5.18,1,1,0,0,0-.32.51,3.91,3.91,0,0,0-.14,1.08v2.87Z"/><path d="M74.28,37.62V32.13h.77V33a2.25,2.25,0,0,1,.54-.77.9.9,0,0,1,.55-.19,1.58,1.58,0,0,1,.88.3l-.3.86a1.15,1.15,0,0,0-.63-.2.78.78,0,0,0-.5.18,1,1,0,0,0-.32.51,3.91,3.91,0,0,0-.14,1.08v2.87Z"/><path d="M78.19,34.87A3,3,0,0,1,79,32.61,2.24,2.24,0,0,1,80.56,32a2.18,2.18,0,0,1,1.7.74,3,3,0,0,1,.66,2,3.9,3.9,0,0,1-.29,1.67,2.17,2.17,0,0,1-.85.94,2.33,2.33,0,0,1-1.22.34A2.18,2.18,0,0,1,78.84,37,3.11,3.11,0,0,1,78.19,34.87Zm.88,0a2.48,2.48,0,0,0,.42,1.58,1.34,1.34,0,0,0,2.13,0A2.54,2.54,0,0,0,82,34.84a2.4,2.4,0,0,0-.43-1.54,1.34,1.34,0,0,0-2.12,0A2.47,2.47,0,0,0,79.07,34.87Z"/><path d="M84.89,37.62V32.13h.77V33a2.25,2.25,0,0,1,.54-.77.9.9,0,0,1,.55-.19,1.58,1.58,0,0,1,.88.3l-.3.86a1.15,1.15,0,0,0-.63-.2.78.78,0,0,0-.5.18,1,1,0,0,0-.32.51,3.91,3.91,0,0,0-.14,1.08v2.87Z"/><path d="M97.89,35l.92.25a3.43,3.43,0,0,1-1,1.88,2.73,2.73,0,0,1-1.84.65,3.12,3.12,0,0,1-1.83-.5A3.08,3.08,0,0,1,93,35.8a5.55,5.55,0,0,1-.37-2,4.78,4.78,0,0,1,.42-2.06,3,3,0,0,1,1.18-1.34,3.24,3.24,0,0,1,1.69-.46,2.71,2.71,0,0,1,1.76.58,3,3,0,0,1,1,1.63l-.91.23a2.37,2.37,0,0,0-.7-1.2,1.78,1.78,0,0,0-1.16-.38,2.13,2.13,0,0,0-1.34.42,2.2,2.2,0,0,0-.76,1.12,4.88,4.88,0,0,0-.22,1.46,5,5,0,0,0,.26,1.69,2.07,2.07,0,0,0,.81,1.08,2.12,2.12,0,0,0,1.18.36,1.89,1.89,0,0,0,1.31-.49A2.54,2.54,0,0,0,97.89,35Z"/><path d="M100.5,34.87a3,3,0,0,1,.78-2.26,2.24,2.24,0,0,1,1.59-.61,2.18,2.18,0,0,1,1.7.74,3,3,0,0,1,.66,2,3.9,3.9,0,0,1-.29,1.67,2.17,2.17,0,0,1-.85.94,2.33,2.33,0,0,1-1.22.34,2.18,2.18,0,0,1-1.71-.74A3.11,3.11,0,0,1,100.5,34.87Zm.88,0a2.48,2.48,0,0,0,.42,1.58,1.34,1.34,0,0,0,2.13,0,2.54,2.54,0,0,0,.42-1.61,2.4,2.4,0,0,0-.43-1.54,1.34,1.34,0,0,0-2.12,0A2.47,2.47,0,0,0,101.38,34.87Z"/><path d="M110.49,37.62v-.69a1.55,1.55,0,0,1-1.41.82,1.88,1.88,0,0,1-1.11-.36,2.34,2.34,0,0,1-.79-1,3.75,3.75,0,0,1-.28-1.49,4.19,4.19,0,0,1,.25-1.49,2.14,2.14,0,0,1,.76-1A1.91,1.91,0,0,1,109,32a1.58,1.58,0,0,1,.81.21,1.75,1.75,0,0,1,.58.55V30h.85v7.58Zm-2.71-2.74a2.53,2.53,0,0,0,.41,1.58,1.2,1.2,0,0,0,1,.52,1.18,1.18,0,0,0,1-.5A2.44,2.44,0,0,0,110.5,35a2.75,2.75,0,0,0-.4-1.65,1.2,1.2,0,0,0-1-.53,1.16,1.16,0,0,0-1,.51A2.66,2.66,0,0,0,107.78,34.88Z"/><path d="M117.06,35.85l.88.12a2.37,2.37,0,0,1-.78,1.31A2.47,2.47,0,0,1,114,37a3.06,3.06,0,0,1-.65-2.08,3.2,3.2,0,0,1,.66-2.15,2.14,2.14,0,0,1,1.7-.76,2.08,2.08,0,0,1,1.66.75,3.15,3.15,0,0,1,.64,2.11c0,.05,0,.14,0,.25H114.2a2.22,2.22,0,0,0,.47,1.38,1.35,1.35,0,0,0,1.06.48,1.24,1.24,0,0,0,.8-.27A1.79,1.79,0,0,0,117.06,35.85Zm-2.81-1.5h2.82a2,2,0,0,0-.32-1,1.27,1.27,0,0,0-1.06-.54,1.31,1.31,0,0,0-1,.43A1.78,1.78,0,0,0,114.25,34.35Z"/><path d="M120.23,33.19V32.13h1v1.06Zm0,4.43V36.56h1v1.06Z"/><path d="M126.7,37.62,129.38,30h1l2.85,7.58h-1.05l-.81-2.29h-2.92l-.77,2.29Zm2-3.11h2.37l-.73-2.1q-.33-1-.49-1.57a10.45,10.45,0,0,1-.38,1.45Z"/><path d="M134.6,35.63l.9-.08a1.82,1.82,0,0,0,.46,1.07,1.21,1.21,0,0,0,.88.36,1.32,1.32,0,0,0,1-.51,2,2,0,0,0,.43-1.34,1.82,1.82,0,0,0-.41-1.26,1.38,1.38,0,0,0-1.08-.46,1.41,1.41,0,0,0-.75.2,1.51,1.51,0,0,0-.52.53l-.8-.11.68-3.89h3.47V31h-2.78l-.38,2a2.15,2.15,0,0,1,1.32-.48,2,2,0,0,1,1.54.69,2.52,2.52,0,0,1,.63,1.77,2.91,2.91,0,0,1-.55,1.78,2.32,2.32,0,0,1-3.39.34A2.34,2.34,0,0,1,134.6,35.63Z"/><path d="M141.09,35.34v-.94h2.63v.94Z"/><path d="M149.12,37.62V35.8h-3v-.85L149.28,30h.7v4.91h.94v.85H150v1.81Zm0-2.67V31.53l-2.18,3.42Z"/><path d="M152.58,33.88a7.49,7.49,0,0,1,.25-2.16,2.72,2.72,0,0,1,.76-1.26,1.83,1.83,0,0,1,1.26-.44,1.94,1.94,0,0,1,1,.25,2,2,0,0,1,.7.71,4,4,0,0,1,.43,1.13,8.12,8.12,0,0,1,.16,1.79,7.53,7.53,0,0,1-.25,2.15,2.72,2.72,0,0,1-.75,1.27,1.83,1.83,0,0,1-1.27.45,1.86,1.86,0,0,1-1.58-.79A5.33,5.33,0,0,1,152.58,33.88Zm.88,0a5.11,5.11,0,0,0,.4,2.48,1.1,1.1,0,0,0,2,0,5.11,5.11,0,0,0,.4-2.48,5.11,5.11,0,0,0-.4-2.49,1.18,1.18,0,0,0-1-.62,1.08,1.08,0,0,0-.94.54A5.16,5.16,0,0,0,153.46,33.88Z"/><path d="M161.61,37.62h-.86V31.69a4.48,4.48,0,0,1-.81.64,5.66,5.66,0,0,1-.9.48v-.9A5.16,5.16,0,0,0,160.3,31a3.44,3.44,0,0,0,.76-1h.55Z"/><path d="M16.19,14.34V3.13h1.36v4.6h5.36V3.13h1.36v11.2H22.92V9.06H17.56v5.28Z"/><path d="M27.36,4.71V3.13h1.27V4.71Zm0,9.62V6.22h1.27v8.12Z"/><path d="M31.29,15l1.23.2a1.31,1.31,0,0,0,.43.9,2,2,0,0,0,1.29.38,2.13,2.13,0,0,0,1.36-.38A1.9,1.9,0,0,0,36.24,15a9.52,9.52,0,0,0,.09-1.77,2.53,2.53,0,0,1-2.07,1.06,2.74,2.74,0,0,1-2.38-1.21,4.93,4.93,0,0,1-.84-2.9,5.8,5.8,0,0,1,.39-2.14,3.32,3.32,0,0,1,1.12-1.52A2.86,2.86,0,0,1,34.27,6,2.61,2.61,0,0,1,36.45,7.2v-1h1.17v7a7.18,7.18,0,0,1-.36,2.69,2.73,2.73,0,0,1-1.13,1.25,3.65,3.65,0,0,1-1.9.46A3.37,3.37,0,0,1,32.08,17,2.29,2.29,0,0,1,31.29,15Zm1-4.88a3.74,3.74,0,0,0,.58,2.33,1.8,1.8,0,0,0,1.46.73,1.81,1.81,0,0,0,1.46-.73,3.62,3.62,0,0,0,.59-2.29,3.53,3.53,0,0,0-.61-2.25,1.83,1.83,0,0,0-1.47-.76,1.77,1.77,0,0,0-1.44.75A3.51,3.51,0,0,0,32.34,10.13Z"/><path d="M40.5,14.34V3.13h1.27v4A2.74,2.74,0,0,1,44,6a2.82,2.82,0,0,1,1.44.36,2,2,0,0,1,.88,1,4.89,4.89,0,0,1,.26,1.82v5.14H45.32V9.19a2.25,2.25,0,0,0-.41-1.5,1.46,1.46,0,0,0-1.16-.47,1.93,1.93,0,0,0-1.06.32A1.75,1.75,0,0,0,42,8.4a4.26,4.26,0,0,0-.21,1.5v4.44Z"/><path d="M57.23,14.34V4.45h-3.4V3.13H62V4.45H58.59v9.88Z"/><path d="M69.32,11.72l1.31.18a3.51,3.51,0,0,1-1.15,1.93,3.65,3.65,0,0,1-4.74-.41,4.52,4.52,0,0,1-1-3.08,4.73,4.73,0,0,1,1-3.18A3.16,3.16,0,0,1,67.28,6a3.07,3.07,0,0,1,2.45,1.11,4.64,4.64,0,0,1,.95,3.12c0,.08,0,.2,0,.37H65.1a3.28,3.28,0,0,0,.7,2,2,2,0,0,0,1.56.71,1.83,1.83,0,0,0,1.19-.4A2.66,2.66,0,0,0,69.32,11.72ZM65.17,9.5h4.17A2.9,2.9,0,0,0,68.86,8a1.88,1.88,0,0,0-1.57-.79,1.93,1.93,0,0,0-1.47.63A2.62,2.62,0,0,0,65.17,9.5Z"/><path d="M73.19,14.34V6.22h1.13V7.36a2.77,2.77,0,0,1,.94-1A2.46,2.46,0,0,1,76.58,6a2.31,2.31,0,0,1,1.36.37,2,2,0,0,1,.75,1A2.64,2.64,0,0,1,81,6a2.17,2.17,0,0,1,1.71.67,3,3,0,0,1,.6,2.06v5.57H82.05V9.22A4.07,4.07,0,0,0,81.93,8a1.14,1.14,0,0,0-.45-.58,1.31,1.31,0,0,0-.76-.22,1.7,1.7,0,0,0-1.31.57,2.65,2.65,0,0,0-.52,1.82v4.71H77.63V9.06a2.48,2.48,0,0,0-.31-1.38,1.13,1.13,0,0,0-1-.46,1.73,1.73,0,0,0-1,.31,1.71,1.71,0,0,0-.66.89,5.43,5.43,0,0,0-.2,1.7v4.21Z"/><path d="M86.15,17.45V6.22h1.15V7.27a2.94,2.94,0,0,1,.92-.93A2.37,2.37,0,0,1,89.47,6a2.79,2.79,0,0,1,1.69.54,3.25,3.25,0,0,1,1.1,1.51,5.93,5.93,0,0,1,.37,2.14,5.84,5.84,0,0,1-.41,2.24A3.31,3.31,0,0,1,91,14a2.9,2.9,0,0,1-1.65.53,2.22,2.22,0,0,1-1.14-.29,2.64,2.64,0,0,1-.83-.73v4Zm1.15-7.12a3.75,3.75,0,0,0,.58,2.32,1.74,1.74,0,0,0,1.41.75,1.78,1.78,0,0,0,1.45-.78,3.91,3.91,0,0,0,.6-2.4,3.81,3.81,0,0,0-.59-2.32,1.73,1.73,0,0,0-1.4-.77,1.78,1.78,0,0,0-1.43.82A3.9,3.9,0,0,0,87.3,10.32Z"/><path d="M100.2,14.34V3.13h1.36V13h5.08v1.32Z"/><path d="M109.08,4.71V3.13h1.27V4.71Zm0,9.62V6.22h1.27v8.12Z"/><path d="M113.24,14.34V6.22h1.13V7.36a2.76,2.76,0,0,1,.94-1A2.46,2.46,0,0,1,116.64,6a2.31,2.31,0,0,1,1.36.37,2,2,0,0,1,.75,1A2.64,2.64,0,0,1,121.05,6a2.17,2.17,0,0,1,1.71.67,3,3,0,0,1,.6,2.06v5.57H122.1V9.22A4.08,4.08,0,0,0,122,8a1.13,1.13,0,0,0-.45-.58,1.3,1.3,0,0,0-.76-.22,1.7,1.7,0,0,0-1.31.57,2.65,2.65,0,0,0-.52,1.82v4.71h-1.27V9.06a2.47,2.47,0,0,0-.31-1.38,1.13,1.13,0,0,0-1-.46,1.73,1.73,0,0,0-1,.31,1.71,1.71,0,0,0-.66.89,5.41,5.41,0,0,0-.21,1.7v4.21Z"/><path d="M126.21,4.71V3.13h1.27V4.71Zm0,9.62V6.22h1.27v8.12Z"/><path d="M133.14,13.1l.18,1.21a4.3,4.3,0,0,1-1,.12,2,2,0,0,1-1.07-.24,1.29,1.29,0,0,1-.53-.62A5.31,5.31,0,0,1,130.6,12V7.29h-.93V6.22h.93v-2l1.26-.83V6.22h1.27V7.29h-1.27V12a2.57,2.57,0,0,0,.07.76.56.56,0,0,0,.22.27.79.79,0,0,0,.43.1A3.74,3.74,0,0,0,133.14,13.1Z"/><path d="M140.5,14.34V3.13H148V4.45h-6.09V7.89h5.71V9.2h-5.71V13h6.33v1.32Z"/><path d="M150,14.34l2.73-4.22-2.53-3.9h1.58L153,8.12q.32.54.52.91.31-.5.57-.89l1.26-1.92h1.51L154.25,10,157,14.34h-1.55l-1.53-2.52-.41-.68-2,3.2Z"/><path d="M163.92,11.36l1.25.18a3.61,3.61,0,0,1-1,2.19,2.9,2.9,0,0,1-2.06.79,3.08,3.08,0,0,1-2.46-1.09,4.66,4.66,0,0,1-.93-3.12,6.07,6.07,0,0,1,.4-2.3,3,3,0,0,1,1.22-1.48A3.39,3.39,0,0,1,162.07,6a2.93,2.93,0,0,1,2,.67,3.13,3.13,0,0,1,1,1.9l-1.23.21a2.27,2.27,0,0,0-.62-1.23,1.53,1.53,0,0,0-1.08-.41,1.9,1.9,0,0,0-1.55.75,3.76,3.76,0,0,0-.6,2.36,3.9,3.9,0,0,0,.58,2.38,1.82,1.82,0,0,0,1.51.74,1.7,1.7,0,0,0,1.25-.5A2.56,2.56,0,0,0,163.92,11.36Z"/><path d="M172.33,11.72l1.31.18a3.52,3.52,0,0,1-1.15,1.93,3.65,3.65,0,0,1-4.74-.41,4.52,4.52,0,0,1-1-3.08,4.74,4.74,0,0,1,1-3.18A3.16,3.16,0,0,1,170.28,6a3.08,3.08,0,0,1,2.45,1.11,4.65,4.65,0,0,1,.95,3.12c0,.08,0,.2,0,.37H168.1a3.28,3.28,0,0,0,.7,2,2,2,0,0,0,1.56.71,1.84,1.84,0,0,0,1.19-.4A2.66,2.66,0,0,0,172.33,11.72ZM168.17,9.5h4.17A2.9,2.9,0,0,0,171.87,8a1.88,1.88,0,0,0-1.57-.79,1.93,1.93,0,0,0-1.47.63A2.62,2.62,0,0,0,168.17,9.5Z"/><path d="M181.31,11.72l1.31.18a3.52,3.52,0,0,1-1.15,1.93,3.65,3.65,0,0,1-4.74-.41,4.52,4.52,0,0,1-1-3.08,4.74,4.74,0,0,1,1-3.18A3.16,3.16,0,0,1,179.26,6a3.08,3.08,0,0,1,2.45,1.11,4.65,4.65,0,0,1,.95,3.12c0,.08,0,.2,0,.37h-5.57a3.28,3.28,0,0,0,.7,2,2,2,0,0,0,1.56.71,1.84,1.84,0,0,0,1.19-.4A2.66,2.66,0,0,0,181.31,11.72ZM177.15,9.5h4.17A2.9,2.9,0,0,0,180.84,8a1.88,1.88,0,0,0-1.57-.79,1.93,1.93,0,0,0-1.47.63A2.62,2.62,0,0,0,177.15,9.5Z"/><path d="M190,14.34v-1a2.28,2.28,0,0,1-2.09,1.21,2.77,2.77,0,0,1-1.64-.54,3.46,3.46,0,0,1-1.16-1.49,5.54,5.54,0,0,1-.41-2.2,6.2,6.2,0,0,1,.37-2.21,3.16,3.16,0,0,1,1.12-1.52A2.82,2.82,0,0,1,187.87,6a2.34,2.34,0,0,1,1.2.31,2.59,2.59,0,0,1,.86.81v-4h1.26v11.2Zm-4-4a3.74,3.74,0,0,0,.6,2.33,1.78,1.78,0,0,0,1.43.77,1.74,1.74,0,0,0,1.41-.74A3.61,3.61,0,0,0,190,10.4,4.06,4.06,0,0,0,189.45,8,1.77,1.77,0,0,0,188,7.18a1.71,1.71,0,0,0-1.41.75A3.93,3.93,0,0,0,186,10.29Z"/><path d="M199.26,11.72l1.31.18a3.52,3.52,0,0,1-1.15,1.93,3.65,3.65,0,0,1-4.74-.41,4.52,4.52,0,0,1-1-3.08,4.74,4.74,0,0,1,1-3.18A3.16,3.16,0,0,1,197.22,6a3.08,3.08,0,0,1,2.45,1.11,4.65,4.65,0,0,1,.95,3.12c0,.08,0,.2,0,.37H195a3.28,3.28,0,0,0,.7,2,2,2,0,0,0,1.56.71,1.84,1.84,0,0,0,1.19-.4A2.66,2.66,0,0,0,199.26,11.72ZM195.11,9.5h4.17A2.9,2.9,0,0,0,198.8,8a1.88,1.88,0,0,0-1.57-.79,1.93,1.93,0,0,0-1.47.63A2.62,2.62,0,0,0,195.11,9.5Z"/><path d="M208,14.34v-1a2.28,2.28,0,0,1-2.09,1.21,2.77,2.77,0,0,1-1.64-.54,3.46,3.46,0,0,1-1.16-1.49,5.54,5.54,0,0,1-.41-2.2A6.2,6.2,0,0,1,203,8.08a3.16,3.16,0,0,1,1.12-1.52A2.82,2.82,0,0,1,205.83,6a2.34,2.34,0,0,1,1.2.31,2.59,2.59,0,0,1,.86.81v-4h1.26v11.2Zm-4-4a3.74,3.74,0,0,0,.6,2.33,1.78,1.78,0,0,0,1.43.77,1.74,1.74,0,0,0,1.41-.74A3.61,3.61,0,0,0,208,10.4,4.06,4.06,0,0,0,207.4,8a1.77,1.77,0,0,0-1.46-.78,1.71,1.71,0,0,0-1.41.75A3.93,3.93,0,0,0,204,10.29Z"/><path d="M37.63,51.94V44.78h5.43v.84H38.62v2.19h4.16v.84H38.62v2.44h4.61v.84Z"/><path d="M44.81,51.94V46.75h.83v.74a2,2,0,0,1,1.73-.85,2.37,2.37,0,0,1,.9.17,1.42,1.42,0,0,1,.62.44,1.65,1.65,0,0,1,.29.65,4.8,4.8,0,0,1,.05.85v3.19h-.92V48.78a2.25,2.25,0,0,0-.11-.8.86.86,0,0,0-.38-.42,1.26,1.26,0,0,0-.64-.16,1.54,1.54,0,0,0-1,.36,1.71,1.71,0,0,0-.43,1.35v2.83Z"/><path d="M54.69,50.27l1,.11a2.21,2.21,0,0,1-.84,1.24,2.6,2.6,0,0,1-1.56.44,2.56,2.56,0,0,1-1.89-.7,2.66,2.66,0,0,1-.7-2,2.78,2.78,0,0,1,.71-2,2.45,2.45,0,0,1,1.84-.72,2.39,2.39,0,0,1,1.78.71,2.73,2.73,0,0,1,.69,2c0,.05,0,.13,0,.23H51.61a1.94,1.94,0,0,0,.51,1.31,1.55,1.55,0,0,0,1.14.45,1.46,1.46,0,0,0,.87-.25A1.69,1.69,0,0,0,54.69,50.27Zm-3-1.42h3a1.71,1.71,0,0,0-.35-1,1.44,1.44,0,0,0-1.14-.51,1.51,1.51,0,0,0-1.07.41A1.57,1.57,0,0,0,51.66,48.84Z"/><path d="M57.11,51.94V46.75h.83v.79a2.16,2.16,0,0,1,.59-.73,1.06,1.06,0,0,1,.59-.18,1.86,1.86,0,0,1,.95.28l-.32.82a1.37,1.37,0,0,0-.68-.19.91.91,0,0,0-.54.17.94.94,0,0,0-.34.48,3.27,3.27,0,0,0-.15,1v2.71Z"/><path d="M60.76,52.37l.9.13a.8.8,0,0,0,.31.58,1.59,1.59,0,0,0,.94.24,1.71,1.71,0,0,0,1-.24,1.2,1.2,0,0,0,.47-.68,5.38,5.38,0,0,0,.07-1.13,1.94,1.94,0,0,1-1.51.68,2.1,2.1,0,0,1-1.74-.77,2.88,2.88,0,0,1-.62-1.85,3.3,3.3,0,0,1,.28-1.37,2.17,2.17,0,0,1,.82-1,2.29,2.29,0,0,1,1.26-.34,2,2,0,0,1,1.59.74v-.62h.85v4.48a4.07,4.07,0,0,1-.26,1.72,1.85,1.85,0,0,1-.82.8,3,3,0,0,1-1.38.29,2.7,2.7,0,0,1-1.57-.42A1.38,1.38,0,0,1,60.76,52.37Zm.76-3.12a2.17,2.17,0,0,0,.43,1.49,1.45,1.45,0,0,0,2.13,0,2.1,2.1,0,0,0,.43-1.46,2.06,2.06,0,0,0-.44-1.44A1.4,1.4,0,0,0,63,47.36a1.36,1.36,0,0,0-1,.48A2,2,0,0,0,61.52,49.25Z"/><path d="M67,53.93l-.1-.83a2.14,2.14,0,0,0,.53.08,1.06,1.06,0,0,0,.49-.1.82.82,0,0,0,.3-.27,4.2,4.2,0,0,0,.28-.65l.08-.21-2.07-5.2h1l1.13,3q.22.57.39,1.2a11.3,11.3,0,0,1,.38-1.18l1.16-3h.92L69.48,52A10.07,10.07,0,0,1,69,53.2a1.77,1.77,0,0,1-.56.64,1.38,1.38,0,0,1-.76.2A1.92,1.92,0,0,1,67,53.93Z"/><path d="M81.36,49.43l1,.24a3.17,3.17,0,0,1-1.13,1.78,3.2,3.2,0,0,1-2,.61,3.71,3.71,0,0,1-2-.47,3,3,0,0,1-1.16-1.36,4.67,4.67,0,0,1-.4-1.92,4,4,0,0,1,.45-2,3,3,0,0,1,1.28-1.26,3.88,3.88,0,0,1,1.82-.43,3.19,3.19,0,0,1,1.9.55,2.84,2.84,0,0,1,1.07,1.54l-1,.22a2.21,2.21,0,0,0-.76-1.14,2.09,2.09,0,0,0-1.25-.36,2.52,2.52,0,0,0-1.45.4A2.1,2.1,0,0,0,77,46.92a4.09,4.09,0,0,0-.24,1.37A4.19,4.19,0,0,0,77,49.89a2,2,0,0,0,.87,1,2.53,2.53,0,0,0,1.28.34,2.21,2.21,0,0,0,1.42-.46A2.33,2.33,0,0,0,81.36,49.43Z"/><path d="M87.35,51.94v-.76a2,2,0,0,1-1.73.88,2.3,2.3,0,0,1-.9-.18,1.48,1.48,0,0,1-.62-.44,1.61,1.61,0,0,1-.28-.65,4.26,4.26,0,0,1-.06-.82V46.75h.92v2.88a4.89,4.89,0,0,0,.06.93.91.91,0,0,0,.37.54,1.18,1.18,0,0,0,.7.2,1.58,1.58,0,0,0,.78-.2,1.15,1.15,0,0,0,.52-.55,2.64,2.64,0,0,0,.15-1V46.75h.92v5.19Z"/><path d="M91.95,51.15l.13.78a3.57,3.57,0,0,1-.7.08,1.64,1.64,0,0,1-.78-.15.87.87,0,0,1-.39-.4,3,3,0,0,1-.11-1v-3h-.68v-.68h.68V45.47l.92-.53v1.81h.93v.68H91v3a1.47,1.47,0,0,0,0,.48.37.37,0,0,0,.16.17.64.64,0,0,0,.31.06Z"/><path d="M96.21,48.45a3.78,3.78,0,0,1,1-2.79,3.5,3.5,0,0,1,2.59-1,3.74,3.74,0,0,1,1.88.47A3.16,3.16,0,0,1,103,46.44a4.12,4.12,0,0,1,.44,1.92,4.05,4.05,0,0,1-.46,1.95,3.07,3.07,0,0,1-1.31,1.3,3.89,3.89,0,0,1-1.83.44,3.69,3.69,0,0,1-1.9-.49,3.2,3.2,0,0,1-1.27-1.33A3.88,3.88,0,0,1,96.21,48.45Zm1,0a2.78,2.78,0,0,0,.73,2,2.64,2.64,0,0,0,3.68,0,3,3,0,0,0,.73-2.13,3.51,3.51,0,0,0-.31-1.53,2.3,2.3,0,0,0-.91-1,2.55,2.55,0,0,0-1.34-.36,2.61,2.61,0,0,0-1.82.69A3,3,0,0,0,97.24,48.46Z"/><path d="M105.1,51.94v-4.5h-.81v-.68h.81V46.2a2.31,2.31,0,0,1,.1-.78,1.14,1.14,0,0,1,.47-.55,1.76,1.76,0,0,1,.94-.21,4.73,4.73,0,0,1,.86.09l-.14.77a3.23,3.23,0,0,0-.54,0,.83.83,0,0,0-.59.17.89.89,0,0,0-.17.64v.48h1.06v.68H106v4.5Z"/><path d="M108.14,51.94v-4.5h-.81v-.68h.81V46.2a2.31,2.31,0,0,1,.1-.78,1.14,1.14,0,0,1,.47-.55,1.76,1.76,0,0,1,.94-.21,4.73,4.73,0,0,1,.86.09l-.14.77a3.23,3.23,0,0,0-.54,0,.83.83,0,0,0-.59.17.89.89,0,0,0-.17.64v.48h1.06v.68h-1.06v4.5Z"/><path d="M114.39,51.94V44.78h.92v2.57a2.11,2.11,0,0,1,1.63-.71,2.29,2.29,0,0,1,1.05.23,1.36,1.36,0,0,1,.64.63,2.76,2.76,0,0,1,.19,1.16v3.29h-.92V48.65a1.31,1.31,0,0,0-.3-1,1.15,1.15,0,0,0-.85-.3,1.55,1.55,0,0,0-.77.2,1.17,1.17,0,0,0-.52.55,2.42,2.42,0,0,0-.15,1v2.84Z"/><path d="M124.09,51.3a3.46,3.46,0,0,1-1,.59,3,3,0,0,1-1,.17,2,2,0,0,1-1.38-.42,1.35,1.35,0,0,1-.48-1.07,1.37,1.37,0,0,1,.18-.7,1.47,1.47,0,0,1,.48-.51,2.3,2.3,0,0,1,.66-.29,7,7,0,0,1,.82-.13,8.8,8.8,0,0,0,1.65-.3c0-.12,0-.2,0-.23a.94.94,0,0,0-.26-.76,1.6,1.6,0,0,0-1.05-.3,1.69,1.69,0,0,0-1,.22,1.32,1.32,0,0,0-.46.77l-.9-.12a2.08,2.08,0,0,1,.41-.89,1.78,1.78,0,0,1,.81-.52,3.8,3.8,0,0,1,1.24-.18,3.43,3.43,0,0,1,1.13.16,1.5,1.5,0,0,1,.64.39,1.35,1.35,0,0,1,.29.6,4.65,4.65,0,0,1,0,.81v1.17a11.92,11.92,0,0,0,.06,1.55,1.91,1.91,0,0,0,.23.62h-1A1.79,1.79,0,0,1,124.09,51.3Zm-.08-2a7.07,7.07,0,0,1-1.51.33,3.66,3.66,0,0,0-.8.18.78.78,0,0,0-.36.29.72.72,0,0,0-.13.42.74.74,0,0,0,.28.59,1.24,1.24,0,0,0,.82.23,2,2,0,0,0,.95-.22,1.4,1.4,0,0,0,.61-.61,2,2,0,0,0,.15-.88Z"/><path d="M126.33,50.39l.91-.14a1.2,1.2,0,0,0,.43.8,1.54,1.54,0,0,0,1,.28,1.49,1.49,0,0,0,.94-.25.73.73,0,0,0,.31-.58.53.53,0,0,0-.27-.47,4.17,4.17,0,0,0-.94-.3,9,9,0,0,1-1.41-.42,1.34,1.34,0,0,1-.59-.49,1.26,1.26,0,0,1-.2-.7,1.28,1.28,0,0,1,.17-.64,1.44,1.44,0,0,1,.45-.49,1.93,1.93,0,0,1,.59-.26,2.93,2.93,0,0,1,.8-.1,3.3,3.3,0,0,1,1.13.18,1.54,1.54,0,0,1,.71.48,1.81,1.81,0,0,1,.32.8l-.9.12a.93.93,0,0,0-.36-.62,1.35,1.35,0,0,0-.83-.22,1.57,1.57,0,0,0-.91.2.57.57,0,0,0-.27.47.47.47,0,0,0,.11.31.82.82,0,0,0,.35.23l.81.22a11.84,11.84,0,0,1,1.37.41,1.38,1.38,0,0,1,.61.46,1.25,1.25,0,0,1,.22.75,1.42,1.42,0,0,1-.27.83,1.73,1.73,0,0,1-.78.6,3,3,0,0,1-1.15.21,2.65,2.65,0,0,1-1.62-.42A1.93,1.93,0,0,1,126.33,50.39Z"/><path d="M135.12,50.39l.91-.14a1.2,1.2,0,0,0,.43.8,1.54,1.54,0,0,0,1,.28,1.49,1.49,0,0,0,.94-.25.73.73,0,0,0,.31-.58.53.53,0,0,0-.27-.47,4.17,4.17,0,0,0-.94-.3,9,9,0,0,1-1.41-.42,1.34,1.34,0,0,1-.59-.49,1.26,1.26,0,0,1-.2-.7,1.28,1.28,0,0,1,.17-.64,1.44,1.44,0,0,1,.45-.49,1.93,1.93,0,0,1,.59-.26,2.93,2.93,0,0,1,.8-.1,3.3,3.3,0,0,1,1.13.18,1.54,1.54,0,0,1,.71.48,1.81,1.81,0,0,1,.32.8l-.9.12a.93.93,0,0,0-.36-.62,1.35,1.35,0,0,0-.83-.22,1.57,1.57,0,0,0-.91.2.57.57,0,0,0-.27.47.47.47,0,0,0,.11.31.82.82,0,0,0,.35.23l.81.22a11.84,11.84,0,0,1,1.37.41,1.38,1.38,0,0,1,.61.46,1.25,1.25,0,0,1,.22.75,1.42,1.42,0,0,1-.27.83,1.73,1.73,0,0,1-.78.6,3,3,0,0,1-1.15.21,2.65,2.65,0,0,1-1.62-.42A1.93,1.93,0,0,1,135.12,50.39Z"/><path d="M141.06,51.94V44.78H142v2.57a2.11,2.11,0,0,1,1.63-.71,2.29,2.29,0,0,1,1.05.23,1.37,1.37,0,0,1,.64.63,2.78,2.78,0,0,1,.19,1.16v3.29h-.92V48.65a1.31,1.31,0,0,0-.3-1,1.14,1.14,0,0,0-.85-.3,1.55,1.55,0,0,0-.77.2,1.16,1.16,0,0,0-.52.55,2.4,2.4,0,0,0-.15,1v2.84Z"/><path d="M150.78,51.94v-.76a2,2,0,0,1-1.73.88,2.3,2.3,0,0,1-.9-.18,1.48,1.48,0,0,1-.62-.44,1.62,1.62,0,0,1-.29-.65,4.31,4.31,0,0,1-.06-.82V46.75h.92v2.88a4.84,4.84,0,0,0,.06.93.91.91,0,0,0,.37.54,1.18,1.18,0,0,0,.7.2,1.58,1.58,0,0,0,.78-.2,1.15,1.15,0,0,0,.51-.55,2.65,2.65,0,0,0,.15-1V46.75h.92v5.19Z"/><path d="M155.38,51.15l.13.78a3.57,3.57,0,0,1-.7.08,1.64,1.64,0,0,1-.78-.15.87.87,0,0,1-.39-.4,3,3,0,0,1-.11-1v-3h-.68v-.68h.68V45.47l.92-.53v1.81h.93v.68h-.93v3a1.48,1.48,0,0,0,0,.48.37.37,0,0,0,.16.17.63.63,0,0,0,.31.06Z"/><path d="M159.49,49.34A2.43,2.43,0,0,1,162,46.63a2.51,2.51,0,0,1,1.84.7,2.59,2.59,0,0,1,.71,1.94,3.29,3.29,0,0,1-.32,1.57,2.18,2.18,0,0,1-.92.89,2.78,2.78,0,0,1-1.32.32,2.51,2.51,0,0,1-1.85-.7A2.7,2.7,0,0,1,159.49,49.34Zm.95,0a2.14,2.14,0,0,0,.46,1.49,1.57,1.57,0,0,0,2.29,0,2.19,2.19,0,0,0,.46-1.52,2.07,2.07,0,0,0-.46-1.46,1.57,1.57,0,0,0-2.29,0A2.13,2.13,0,0,0,160.44,49.34Z"/><path d="M166.21,51.94v-4.5h-.81v-.68h.81V46.2a2.3,2.3,0,0,1,.1-.78,1.13,1.13,0,0,1,.47-.55,1.76,1.76,0,0,1,.94-.21,4.73,4.73,0,0,1,.86.09l-.14.77a3.23,3.23,0,0,0-.54,0,.84.84,0,0,0-.6.17.89.89,0,0,0-.17.64v.48h1.06v.68h-1.06v4.5Z"/><path d="M169.25,51.94v-4.5h-.82v-.68h.82V46.2a2.3,2.3,0,0,1,.1-.78,1.13,1.13,0,0,1,.47-.55,1.76,1.76,0,0,1,.94-.21,4.73,4.73,0,0,1,.86.09l-.14.77a3.22,3.22,0,0,0-.54,0,.83.83,0,0,0-.59.17.89.89,0,0,0-.17.64v.48h1.06v.68h-1.06v4.5Z"/><path d="M38.49,62.94l-1.67-5.19h1l.87,3L39,61.86l.28-1.07.87-3h.95l.82,3,.27,1,.31-1,.93-3h.9l-1.7,5.19h-1l-.87-3.11-.21-.88-1.1,4Z"/><path d="M48.94,62.3a3.46,3.46,0,0,1-1,.59,3,3,0,0,1-1,.17,2,2,0,0,1-1.38-.42,1.35,1.35,0,0,1-.48-1.07,1.36,1.36,0,0,1,.18-.7,1.46,1.46,0,0,1,.48-.51,2.3,2.3,0,0,1,.66-.29,7,7,0,0,1,.82-.13,8.79,8.79,0,0,0,1.65-.3c0-.12,0-.2,0-.23a.94.94,0,0,0-.26-.76,1.6,1.6,0,0,0-1.05-.3,1.69,1.69,0,0,0-1,.22,1.32,1.32,0,0,0-.46.77l-.9-.12a2.08,2.08,0,0,1,.41-.89,1.78,1.78,0,0,1,.82-.52,3.8,3.8,0,0,1,1.24-.18,3.42,3.42,0,0,1,1.13.16,1.5,1.5,0,0,1,.64.39,1.35,1.35,0,0,1,.29.6,4.71,4.71,0,0,1,0,.81v1.17a11.92,11.92,0,0,0,.06,1.55,1.9,1.9,0,0,0,.23.62h-1A1.79,1.79,0,0,1,48.94,62.3Zm-.08-2a7.06,7.06,0,0,1-1.51.33,3.65,3.65,0,0,0-.81.18.79.79,0,0,0-.36.29.72.72,0,0,0-.13.42.73.73,0,0,0,.28.59,1.24,1.24,0,0,0,.82.23,2,2,0,0,0,.95-.22,1.4,1.4,0,0,0,.61-.61,2,2,0,0,0,.15-.88Z"/><path d="M53.56,62.15l.13.78A3.57,3.57,0,0,1,53,63a1.64,1.64,0,0,1-.78-.15.87.87,0,0,1-.39-.4,3,3,0,0,1-.11-1v-3H51v-.68h.68V56.47l.92-.53v1.81h.93v.68h-.93v3a1.47,1.47,0,0,0,0,.48.37.37,0,0,0,.16.17.64.64,0,0,0,.31.06Z"/><path d="M58.5,61.27l1,.11a2.21,2.21,0,0,1-.84,1.24,2.6,2.6,0,0,1-1.56.44,2.56,2.56,0,0,1-1.89-.7,2.66,2.66,0,0,1-.7-2,2.78,2.78,0,0,1,.71-2A2.45,2.45,0,0,1,57,57.63a2.39,2.39,0,0,1,1.78.71,2.73,2.73,0,0,1,.69,2c0,.05,0,.13,0,.23H55.42a1.94,1.94,0,0,0,.51,1.31,1.55,1.55,0,0,0,1.14.45,1.46,1.46,0,0,0,.87-.25A1.69,1.69,0,0,0,58.5,61.27Zm-3-1.42h3a1.71,1.71,0,0,0-.35-1A1.44,1.44,0,0,0,57,58.36a1.51,1.51,0,0,0-1.07.41A1.57,1.57,0,0,0,55.47,59.84Z"/><path d="M60.92,62.94V57.75h.83v.79a2.16,2.16,0,0,1,.59-.73,1.06,1.06,0,0,1,.59-.18,1.86,1.86,0,0,1,.95.28l-.32.82a1.37,1.37,0,0,0-.68-.19.91.91,0,0,0-.54.17.94.94,0,0,0-.34.48,3.27,3.27,0,0,0-.15,1v2.71Z"/><path d="M68,62.94V55.78h.92v2.57a2.11,2.11,0,0,1,1.63-.71,2.29,2.29,0,0,1,1.05.23,1.36,1.36,0,0,1,.64.63,2.77,2.77,0,0,1,.19,1.16v3.29h-.92V59.65a1.32,1.32,0,0,0-.3-1,1.15,1.15,0,0,0-.85-.3,1.55,1.55,0,0,0-.77.2,1.17,1.17,0,0,0-.52.55,2.42,2.42,0,0,0-.15,1v2.84Z"/><path d="M77.85,61.27l1,.11A2.21,2.21,0,0,1,78,62.61a2.6,2.6,0,0,1-1.56.44,2.56,2.56,0,0,1-1.89-.7,2.66,2.66,0,0,1-.7-2,2.78,2.78,0,0,1,.71-2,2.45,2.45,0,0,1,1.84-.72,2.39,2.39,0,0,1,1.78.71,2.73,2.73,0,0,1,.69,2c0,.05,0,.13,0,.23H74.77a1.94,1.94,0,0,0,.51,1.31,1.55,1.55,0,0,0,1.14.45,1.46,1.46,0,0,0,.87-.25A1.69,1.69,0,0,0,77.85,61.27Zm-3-1.42h3a1.71,1.71,0,0,0-.35-1,1.44,1.44,0,0,0-1.14-.51,1.51,1.51,0,0,0-1.07.41A1.57,1.57,0,0,0,74.82,59.84Z"/><path d="M83.83,62.3a3.46,3.46,0,0,1-1,.59,3,3,0,0,1-1,.17,2,2,0,0,1-1.38-.42A1.35,1.35,0,0,1,80,61.57a1.36,1.36,0,0,1,.18-.7,1.46,1.46,0,0,1,.48-.51,2.3,2.3,0,0,1,.66-.29,7,7,0,0,1,.82-.13,8.79,8.79,0,0,0,1.65-.3c0-.12,0-.2,0-.23a.94.94,0,0,0-.26-.76,1.6,1.6,0,0,0-1.05-.3,1.69,1.69,0,0,0-1,.22,1.32,1.32,0,0,0-.46.77l-.9-.12a2.08,2.08,0,0,1,.41-.89,1.78,1.78,0,0,1,.82-.52,3.8,3.8,0,0,1,1.24-.18,3.42,3.42,0,0,1,1.13.16,1.5,1.5,0,0,1,.64.39,1.35,1.35,0,0,1,.29.6,4.71,4.71,0,0,1,0,.81v1.17a11.92,11.92,0,0,0,.06,1.55,1.9,1.9,0,0,0,.23.62H84A1.79,1.79,0,0,1,83.83,62.3Zm-.08-2a7.06,7.06,0,0,1-1.51.33,3.65,3.65,0,0,0-.81.18.79.79,0,0,0-.36.29.72.72,0,0,0-.13.42.73.73,0,0,0,.28.59,1.24,1.24,0,0,0,.82.23,2,2,0,0,0,.95-.22,1.4,1.4,0,0,0,.61-.61,2,2,0,0,0,.15-.88Z"/><path d="M88.45,62.15l.13.78a3.57,3.57,0,0,1-.7.08,1.64,1.64,0,0,1-.78-.15.87.87,0,0,1-.39-.4,3,3,0,0,1-.11-1v-3h-.68v-.68h.68V56.47l.92-.53v1.81h.93v.68h-.93v3a1.47,1.47,0,0,0,0,.48.37.37,0,0,0,.16.17.64.64,0,0,0,.31.06Z"/><path d="M93.4,61.27l1,.11a2.21,2.21,0,0,1-.84,1.24,2.6,2.6,0,0,1-1.56.44,2.56,2.56,0,0,1-1.89-.7,2.66,2.66,0,0,1-.7-2,2.78,2.78,0,0,1,.71-2,2.45,2.45,0,0,1,1.84-.72,2.39,2.39,0,0,1,1.78.71,2.73,2.73,0,0,1,.69,2c0,.05,0,.13,0,.23H90.31a1.94,1.94,0,0,0,.51,1.31,1.55,1.55,0,0,0,1.14.45,1.46,1.46,0,0,0,.87-.25A1.69,1.69,0,0,0,93.4,61.27Zm-3-1.42h3a1.71,1.71,0,0,0-.35-1,1.44,1.44,0,0,0-1.14-.51,1.51,1.51,0,0,0-1.07.41A1.57,1.57,0,0,0,90.37,59.84Z"/><path d="M95.81,62.94V57.75h.83v.79a2.16,2.16,0,0,1,.59-.73,1.06,1.06,0,0,1,.59-.18,1.86,1.86,0,0,1,.95.28l-.32.82a1.37,1.37,0,0,0-.68-.19.91.91,0,0,0-.54.17.94.94,0,0,0-.34.48,3.27,3.27,0,0,0-.15,1v2.71Z"/><path d="M106.4,62.94v-.65a1.72,1.72,0,0,1-1.52.77,2.21,2.21,0,0,1-1.2-.34,2.28,2.28,0,0,1-.85-1,3.17,3.17,0,0,1-.3-1.41,3.52,3.52,0,0,1,.27-1.41,2.06,2.06,0,0,1,.81-1,2.26,2.26,0,0,1,1.22-.34,1.89,1.89,0,0,1,.88.2,1.81,1.81,0,0,1,.63.52V55.78h.92v7.16Zm-2.92-2.59a2.18,2.18,0,0,0,.44,1.49,1.36,1.36,0,0,0,1,.49,1.33,1.33,0,0,0,1-.47,2.1,2.1,0,0,0,.42-1.44,2.35,2.35,0,0,0-.43-1.56,1.35,1.35,0,0,0-1.06-.5,1.3,1.3,0,0,0-1,.48A2.28,2.28,0,0,0,103.48,60.35Z"/><path d="M112.59,62.94v-.76a2,2,0,0,1-1.73.88,2.3,2.3,0,0,1-.9-.18,1.48,1.48,0,0,1-.62-.44,1.61,1.61,0,0,1-.28-.65A4.26,4.26,0,0,1,109,61V57.75h.92v2.88a4.89,4.89,0,0,0,.06.93.91.91,0,0,0,.37.54,1.18,1.18,0,0,0,.7.2,1.58,1.58,0,0,0,.78-.2,1.15,1.15,0,0,0,.52-.55,2.64,2.64,0,0,0,.15-1V57.75h.92v5.19Z"/><path d="M118.9,61.27l1,.11a2.21,2.21,0,0,1-.84,1.24,2.6,2.6,0,0,1-1.56.44,2.56,2.56,0,0,1-1.89-.7,2.66,2.66,0,0,1-.7-2,2.78,2.78,0,0,1,.71-2,2.45,2.45,0,0,1,1.84-.72,2.38,2.38,0,0,1,1.78.71,2.73,2.73,0,0,1,.69,2c0,.05,0,.13,0,.23h-4.06a1.93,1.93,0,0,0,.51,1.31,1.55,1.55,0,0,0,1.14.45,1.46,1.46,0,0,0,.87-.25A1.68,1.68,0,0,0,118.9,61.27Zm-3-1.42h3a1.71,1.71,0,0,0-.35-1,1.44,1.44,0,0,0-1.14-.51,1.51,1.51,0,0,0-1.07.41A1.57,1.57,0,0,0,115.87,59.84Z"/><path d="M126.58,62.15l.13.78a3.57,3.57,0,0,1-.7.08,1.65,1.65,0,0,1-.78-.15.86.86,0,0,1-.39-.4,3,3,0,0,1-.11-1v-3h-.68v-.68h.68V56.47l.92-.53v1.81h.93v.68h-.93v3a1.44,1.44,0,0,0,0,.48.37.37,0,0,0,.16.17.64.64,0,0,0,.32.06Z"/><path d="M127.45,60.34A2.44,2.44,0,0,1,130,57.63a2.5,2.5,0,0,1,1.83.7,2.59,2.59,0,0,1,.71,1.94,3.31,3.31,0,0,1-.31,1.57,2.18,2.18,0,0,1-.92.89,2.78,2.78,0,0,1-1.32.32,2.51,2.51,0,0,1-1.85-.7A2.71,2.71,0,0,1,127.45,60.34Zm.95,0a2.14,2.14,0,0,0,.46,1.49,1.57,1.57,0,0,0,2.29,0,2.19,2.19,0,0,0,.46-1.52,2.08,2.08,0,0,0-.46-1.46,1.57,1.57,0,0,0-2.29,0A2.13,2.13,0,0,0,128.4,60.34Z"/><path d="M137.18,62.94V55.78h.92v2.57a2.1,2.1,0,0,1,1.63-.71,2.29,2.29,0,0,1,1.05.23,1.35,1.35,0,0,1,.64.63,2.76,2.76,0,0,1,.19,1.16v3.29h-.92V59.65a1.32,1.32,0,0,0-.3-1,1.15,1.15,0,0,0-.85-.3,1.55,1.55,0,0,0-.77.2,1.18,1.18,0,0,0-.52.55,2.44,2.44,0,0,0-.15,1v2.84Z"/><path d="M143.34,56.79v-1h.92v1Zm0,6.15V57.75h.92v5.19Z"/><path d="M145.81,63.37l.9.13a.8.8,0,0,0,.31.58,1.59,1.59,0,0,0,.94.24,1.71,1.71,0,0,0,1-.24,1.2,1.2,0,0,0,.47-.68,5.44,5.44,0,0,0,.07-1.13,1.94,1.94,0,0,1-1.51.68,2.1,2.1,0,0,1-1.74-.77,2.88,2.88,0,0,1-.62-1.85,3.31,3.31,0,0,1,.28-1.37,2.18,2.18,0,0,1,.82-1,2.29,2.29,0,0,1,1.26-.34,2,2,0,0,1,1.59.74v-.62h.85v4.48a4.06,4.06,0,0,1-.26,1.72,1.85,1.85,0,0,1-.82.8A3,3,0,0,1,148,65a2.7,2.7,0,0,1-1.57-.42A1.38,1.38,0,0,1,145.81,63.37Zm.76-3.12a2.17,2.17,0,0,0,.42,1.49,1.45,1.45,0,0,0,2.13,0,2.1,2.1,0,0,0,.43-1.46,2.06,2.06,0,0,0-.44-1.44,1.4,1.4,0,0,0-1.07-.48,1.36,1.36,0,0,0-1,.48A2,2,0,0,0,146.58,60.25Z"/><path d="M152.14,62.94V55.78h.92v2.57a2.1,2.1,0,0,1,1.63-.71,2.29,2.29,0,0,1,1.05.23,1.35,1.35,0,0,1,.64.63,2.76,2.76,0,0,1,.19,1.16v3.29h-.92V59.65a1.32,1.32,0,0,0-.3-1,1.15,1.15,0,0,0-.85-.3,1.55,1.55,0,0,0-.77.2,1.18,1.18,0,0,0-.52.55,2.44,2.44,0,0,0-.15,1v2.84Z"/><path d="M163.54,62.15l.13.78a3.57,3.57,0,0,1-.7.08,1.64,1.64,0,0,1-.78-.15.87.87,0,0,1-.39-.4,3,3,0,0,1-.11-1v-3H161v-.68h.68V56.47l.92-.53v1.81h.93v.68h-.93v3a1.48,1.48,0,0,0,0,.48.37.37,0,0,0,.16.17.63.63,0,0,0,.31.06Z"/><path d="M168.31,62.3a3.46,3.46,0,0,1-1,.59,3,3,0,0,1-1,.17,2,2,0,0,1-1.38-.42,1.35,1.35,0,0,1-.48-1.07,1.37,1.37,0,0,1,.18-.7,1.47,1.47,0,0,1,.48-.51,2.3,2.3,0,0,1,.66-.29,7,7,0,0,1,.82-.13,8.8,8.8,0,0,0,1.65-.3c0-.12,0-.2,0-.23a.94.94,0,0,0-.26-.76,1.6,1.6,0,0,0-1.05-.3,1.69,1.69,0,0,0-1,.22,1.32,1.32,0,0,0-.46.77l-.9-.12a2.08,2.08,0,0,1,.41-.89,1.78,1.78,0,0,1,.81-.52,3.8,3.8,0,0,1,1.24-.18,3.43,3.43,0,0,1,1.13.16,1.5,1.5,0,0,1,.64.39,1.35,1.35,0,0,1,.29.6,4.65,4.65,0,0,1,0,.81v1.17a11.92,11.92,0,0,0,.06,1.55,1.91,1.91,0,0,0,.23.62h-1A1.79,1.79,0,0,1,168.31,62.3Zm-.08-2a7.07,7.07,0,0,1-1.51.33,3.66,3.66,0,0,0-.8.18.78.78,0,0,0-.36.29.72.72,0,0,0-.13.42.74.74,0,0,0,.28.59,1.24,1.24,0,0,0,.82.23,2,2,0,0,0,.95-.22,1.4,1.4,0,0,0,.61-.61,2,2,0,0,0,.15-.88Z"/><path d="M170.91,62.94V57.75h.83v.74a2,2,0,0,1,1.73-.85,2.37,2.37,0,0,1,.9.17,1.42,1.42,0,0,1,.62.44,1.65,1.65,0,0,1,.29.65,4.78,4.78,0,0,1,.05.85v3.19h-.92V59.78a2.25,2.25,0,0,0-.11-.8.86.86,0,0,0-.38-.42,1.26,1.26,0,0,0-.64-.16,1.54,1.54,0,0,0-1,.36,1.71,1.71,0,0,0-.43,1.35v2.83Z"/><path d="M177.07,62.94V55.78H178v4.08l2.18-2.11h1.19l-2.08,1.92,2.29,3.26h-1.14l-1.8-2.65-.65.6v2.06Z"/><path d="M39.5,73.15l.13.78a3.54,3.54,0,0,1-.7.08,1.65,1.65,0,0,1-.78-.15.87.87,0,0,1-.39-.4,3,3,0,0,1-.11-1v-3H37v-.68h.68V67.47l.92-.53v1.81h.93v.68h-.93v3a1.47,1.47,0,0,0,0,.48.38.38,0,0,0,.16.17.64.64,0,0,0,.31.06Z"/><path d="M44.45,72.27l1,.11a2.21,2.21,0,0,1-.84,1.23,2.6,2.6,0,0,1-1.56.44,2.55,2.55,0,0,1-1.89-.7,2.66,2.66,0,0,1-.7-2,2.78,2.78,0,0,1,.71-2A2.46,2.46,0,0,1,43,68.63a2.39,2.39,0,0,1,1.78.71,2.73,2.73,0,0,1,.69,2c0,.05,0,.13,0,.23H41.37a1.94,1.94,0,0,0,.51,1.31,1.55,1.55,0,0,0,1.14.45,1.46,1.46,0,0,0,.87-.25A1.69,1.69,0,0,0,44.45,72.27Zm-3-1.42h3a1.71,1.71,0,0,0-.35-1A1.45,1.45,0,0,0,43,69.35a1.51,1.51,0,0,0-1.07.41A1.56,1.56,0,0,0,41.42,70.85Z"/><path d="M46.88,73.94V68.75h.83v.73a1.9,1.9,0,0,1,.68-.61,2,2,0,0,1,1-.23,1.86,1.86,0,0,1,1,.24,1.29,1.29,0,0,1,.55.67,2,2,0,0,1,1.68-.91,1.7,1.7,0,0,1,1.25.43,1.77,1.77,0,0,1,.44,1.32v3.56h-.92V70.67a2.31,2.31,0,0,0-.09-.76.74.74,0,0,0-.33-.37,1.05,1.05,0,0,0-.55-.14,1.32,1.32,0,0,0-1,.36A1.56,1.56,0,0,0,51,70.92v3h-.92V70.57a1.43,1.43,0,0,0-.23-.88.87.87,0,0,0-.74-.29,1.39,1.39,0,0,0-.72.2,1.12,1.12,0,0,0-.48.57,3.07,3.07,0,0,0-.15,1.08v2.69Z"/><path d="M55.94,75.92V68.75h.84v.67a2,2,0,0,1,.67-.59,1.92,1.92,0,0,1,.91-.2,2.24,2.24,0,0,1,1.23.34,2.13,2.13,0,0,1,.8,1,3.38,3.38,0,0,1,.27,1.37,3.32,3.32,0,0,1-.3,1.43,2.18,2.18,0,0,1-.87,1,2.32,2.32,0,0,1-1.2.34,1.8,1.8,0,0,1-.83-.19,1.85,1.85,0,0,1-.6-.47v2.53Zm.84-4.55a2.18,2.18,0,0,0,.43,1.48,1.33,1.33,0,0,0,1,.48,1.36,1.36,0,0,0,1.05-.5,2.28,2.28,0,0,0,.44-1.54,2.22,2.22,0,0,0-.43-1.48,1.31,1.31,0,0,0-1-.49,1.35,1.35,0,0,0-1,.52A2.27,2.27,0,0,0,56.77,71.37Z"/><path d="M65.82,72.27l1,.11a2.21,2.21,0,0,1-.84,1.23,2.6,2.6,0,0,1-1.56.44,2.55,2.55,0,0,1-1.89-.7,2.66,2.66,0,0,1-.7-2,2.78,2.78,0,0,1,.71-2,2.46,2.46,0,0,1,1.84-.72,2.39,2.39,0,0,1,1.78.71,2.73,2.73,0,0,1,.69,2c0,.05,0,.13,0,.23H62.74a1.94,1.94,0,0,0,.51,1.31,1.55,1.55,0,0,0,1.14.45,1.46,1.46,0,0,0,.87-.25A1.69,1.69,0,0,0,65.82,72.27Zm-3-1.42h3a1.71,1.71,0,0,0-.35-1,1.45,1.45,0,0,0-1.14-.51,1.51,1.51,0,0,0-1.07.41A1.56,1.56,0,0,0,62.79,70.85Z"/><path d="M68.24,73.94V68.75h.83v.79a2.16,2.16,0,0,1,.59-.73,1.06,1.06,0,0,1,.59-.18,1.87,1.87,0,0,1,.95.28l-.32.82a1.37,1.37,0,0,0-.68-.19.91.91,0,0,0-.54.17.93.93,0,0,0-.34.48,3.27,3.27,0,0,0-.15,1v2.71Z"/><path d="M75.61,73.3a3.49,3.49,0,0,1-1,.59,3,3,0,0,1-1,.17,2,2,0,0,1-1.38-.42,1.42,1.42,0,0,1-.3-1.76,1.46,1.46,0,0,1,.48-.51,2.28,2.28,0,0,1,.66-.29,6.92,6.92,0,0,1,.82-.13,8.75,8.75,0,0,0,1.65-.3c0-.12,0-.2,0-.23a1,1,0,0,0-.26-.76,1.6,1.6,0,0,0-1.05-.3,1.7,1.7,0,0,0-1,.22,1.32,1.32,0,0,0-.46.77l-.9-.12a2.08,2.08,0,0,1,.41-.89,1.78,1.78,0,0,1,.82-.52,3.8,3.8,0,0,1,1.24-.18,3.44,3.44,0,0,1,1.13.16,1.51,1.51,0,0,1,.64.39,1.35,1.35,0,0,1,.29.6,4.71,4.71,0,0,1,0,.81v1.17a11.91,11.91,0,0,0,.06,1.55,1.9,1.9,0,0,0,.23.62h-1A1.79,1.79,0,0,1,75.61,73.3Zm-.08-2a7.12,7.12,0,0,1-1.51.33,3.59,3.59,0,0,0-.81.18.79.79,0,0,0-.36.29.72.72,0,0,0-.13.42.73.73,0,0,0,.28.59,1.24,1.24,0,0,0,.82.23,2,2,0,0,0,.95-.22,1.4,1.4,0,0,0,.61-.61,2,2,0,0,0,.15-.88Z"/><path d="M80.23,73.15l.13.78a3.54,3.54,0,0,1-.7.08,1.65,1.65,0,0,1-.78-.15.87.87,0,0,1-.39-.4,3,3,0,0,1-.11-1v-3H77.7v-.68h.68V67.47l.92-.53v1.81h.93v.68H79.3v3a1.47,1.47,0,0,0,0,.48.38.38,0,0,0,.16.17.64.64,0,0,0,.31.06Z"/><path d="M85,73.94v-.76a2,2,0,0,1-1.73.88,2.3,2.3,0,0,1-.9-.18,1.47,1.47,0,0,1-.62-.44,1.61,1.61,0,0,1-.28-.65,4.25,4.25,0,0,1-.06-.82V68.75h.92v2.88a4.9,4.9,0,0,0,.06.93.91.91,0,0,0,.37.54,1.18,1.18,0,0,0,.7.2,1.58,1.58,0,0,0,.78-.2,1.14,1.14,0,0,0,.52-.55,2.64,2.64,0,0,0,.15-1V68.75h.92v5.19Z"/><path d="M87.59,73.94V68.75h.83v.79a2.16,2.16,0,0,1,.59-.73,1.06,1.06,0,0,1,.59-.18,1.87,1.87,0,0,1,.95.28l-.32.82a1.37,1.37,0,0,0-.68-.19.91.91,0,0,0-.54.17.93.93,0,0,0-.34.48,3.27,3.27,0,0,0-.15,1v2.71Z"/><path d="M95.14,72.27l1,.11a2.21,2.21,0,0,1-.84,1.23,2.6,2.6,0,0,1-1.56.44,2.55,2.55,0,0,1-1.89-.7,2.66,2.66,0,0,1-.7-2,2.78,2.78,0,0,1,.71-2,2.46,2.46,0,0,1,1.84-.72,2.39,2.39,0,0,1,1.78.71,2.73,2.73,0,0,1,.69,2c0,.05,0,.13,0,.23H92.06a1.94,1.94,0,0,0,.51,1.31,1.55,1.55,0,0,0,1.14.45,1.46,1.46,0,0,0,.87-.25A1.69,1.69,0,0,0,95.14,72.27Zm-3-1.42h3a1.71,1.71,0,0,0-.35-1,1.45,1.45,0,0,0-1.14-.51,1.51,1.51,0,0,0-1.07.41A1.56,1.56,0,0,0,92.11,70.85Z"/><path d="M97.83,73.94v-1h1.05v1Z"/><path d="M37.61,92.94V85.78h2.84a7.26,7.26,0,0,1,1.14.07,2.33,2.33,0,0,1,.93.33,1.79,1.79,0,0,1,.6.69,2.11,2.11,0,0,1,.23,1,2.14,2.14,0,0,1-.61,1.55,3,3,0,0,1-2.2.63H38.6v2.91Zm1-3.75h1.94a2.14,2.14,0,0,0,1.37-.34,1.19,1.19,0,0,0,.4-1,1.25,1.25,0,0,0-.24-.77,1.11,1.11,0,0,0-.63-.42,4.5,4.5,0,0,0-.93-.06H38.6Z"/><path d="M44.8,92.94V87.75h.83v.79a2.16,2.16,0,0,1,.59-.73,1.06,1.06,0,0,1,.59-.18,1.87,1.87,0,0,1,.95.28l-.32.82a1.37,1.37,0,0,0-.68-.19.91.91,0,0,0-.54.17.93.93,0,0,0-.34.48,3.27,3.27,0,0,0-.15,1v2.71Z"/><path d="M52.35,91.27l1,.11a2.21,2.21,0,0,1-.84,1.23,2.6,2.6,0,0,1-1.56.44,2.55,2.55,0,0,1-1.89-.7,2.66,2.66,0,0,1-.7-2,2.78,2.78,0,0,1,.71-2,2.46,2.46,0,0,1,1.84-.72,2.39,2.39,0,0,1,1.78.71,2.73,2.73,0,0,1,.69,2c0,.05,0,.13,0,.23H49.26a1.94,1.94,0,0,0,.51,1.31,1.55,1.55,0,0,0,1.14.45,1.46,1.46,0,0,0,.87-.25A1.69,1.69,0,0,0,52.35,91.27Zm-3-1.42h3a1.71,1.71,0,0,0-.35-1,1.45,1.45,0,0,0-1.14-.51,1.51,1.51,0,0,0-1.07.41A1.56,1.56,0,0,0,49.32,89.85Z"/><path d="M54.4,91.39l.91-.14a1.2,1.2,0,0,0,.43.8,1.54,1.54,0,0,0,1,.28,1.5,1.5,0,0,0,.94-.25.73.73,0,0,0,.31-.58.53.53,0,0,0-.27-.47,4.18,4.18,0,0,0-.94-.3,8.84,8.84,0,0,1-1.41-.42,1.35,1.35,0,0,1-.59-.49,1.26,1.26,0,0,1-.2-.7,1.28,1.28,0,0,1,.17-.64,1.46,1.46,0,0,1,.45-.49,2,2,0,0,1,.59-.26,2.91,2.91,0,0,1,.8-.11,3.3,3.3,0,0,1,1.13.18,1.54,1.54,0,0,1,.72.48,1.81,1.81,0,0,1,.32.8l-.9.12a.93.93,0,0,0-.36-.62,1.35,1.35,0,0,0-.83-.22,1.56,1.56,0,0,0-.91.2.57.57,0,0,0-.27.47.47.47,0,0,0,.11.31.81.81,0,0,0,.35.23l.81.22a11.83,11.83,0,0,1,1.37.41,1.38,1.38,0,0,1,.61.46,1.25,1.25,0,0,1,.22.75,1.43,1.43,0,0,1-.27.83,1.72,1.72,0,0,1-.78.6,3,3,0,0,1-1.15.21,2.65,2.65,0,0,1-1.62-.42A1.93,1.93,0,0,1,54.4,91.39Z"/><path d="M60,91.39l.91-.14a1.2,1.2,0,0,0,.43.8,1.54,1.54,0,0,0,1,.28,1.5,1.5,0,0,0,.94-.25.73.73,0,0,0,.31-.58.53.53,0,0,0-.27-.47,4.18,4.18,0,0,0-.94-.3,8.84,8.84,0,0,1-1.41-.42,1.35,1.35,0,0,1-.59-.49,1.26,1.26,0,0,1-.2-.7,1.28,1.28,0,0,1,.17-.64,1.46,1.46,0,0,1,.45-.49,2,2,0,0,1,.59-.26,2.91,2.91,0,0,1,.8-.11,3.3,3.3,0,0,1,1.13.18,1.54,1.54,0,0,1,.72.48,1.81,1.81,0,0,1,.32.8l-.9.12a.93.93,0,0,0-.36-.62,1.35,1.35,0,0,0-.83-.22,1.56,1.56,0,0,0-.91.2A.57.57,0,0,0,61,89a.47.47,0,0,0,.11.31.81.81,0,0,0,.35.23l.81.22a11.83,11.83,0,0,1,1.37.41,1.38,1.38,0,0,1,.61.46,1.25,1.25,0,0,1,.22.75,1.43,1.43,0,0,1-.27.83,1.72,1.72,0,0,1-.78.6,3,3,0,0,1-1.15.21,2.65,2.65,0,0,1-1.62-.42A1.93,1.93,0,0,1,60,91.39Z"/><path d="M71.15,92.15l.13.78a3.54,3.54,0,0,1-.7.08,1.65,1.65,0,0,1-.78-.15.87.87,0,0,1-.39-.4,3,3,0,0,1-.11-1v-3h-.68v-.68h.68V86.47l.92-.53v1.81h.93v.68h-.93v3a1.47,1.47,0,0,0,0,.48.38.38,0,0,0,.16.17.64.64,0,0,0,.31.06Z"/><path d="M72.37,92.94V85.78h.92v2.57a2.11,2.11,0,0,1,1.63-.71,2.29,2.29,0,0,1,1.05.23,1.36,1.36,0,0,1,.64.63,2.76,2.76,0,0,1,.19,1.16v3.29h-.92V89.65a1.32,1.32,0,0,0-.3-1,1.15,1.15,0,0,0-.85-.3,1.54,1.54,0,0,0-.77.2,1.17,1.17,0,0,0-.52.55,2.41,2.41,0,0,0-.15,1v2.84Z"/><path d="M82.25,91.27l1,.11a2.21,2.21,0,0,1-.84,1.23,2.6,2.6,0,0,1-1.56.44,2.55,2.55,0,0,1-1.89-.7,2.66,2.66,0,0,1-.7-2,2.78,2.78,0,0,1,.71-2,2.46,2.46,0,0,1,1.84-.72,2.39,2.39,0,0,1,1.78.71,2.73,2.73,0,0,1,.69,2c0,.05,0,.13,0,.23H79.17a1.94,1.94,0,0,0,.51,1.31,1.55,1.55,0,0,0,1.14.45,1.46,1.46,0,0,0,.87-.25A1.69,1.69,0,0,0,82.25,91.27Zm-3-1.42h3a1.71,1.71,0,0,0-.35-1,1.45,1.45,0,0,0-1.14-.51,1.51,1.51,0,0,0-1.07.41A1.56,1.56,0,0,0,79.22,89.85Z"/><path d="M86.62,92.94l2.89-7.16h1.07l3.08,7.16H92.52l-.88-2.17H88.5l-.83,2.17ZM88.79,90h2.55l-.78-2q-.36-.9-.53-1.48a8.73,8.73,0,0,1-.41,1.37Z"/><path d="M98.18,92.94v-.65a1.72,1.72,0,0,1-1.52.77,2.21,2.21,0,0,1-1.2-.34,2.27,2.27,0,0,1-.85-1,3.17,3.17,0,0,1-.3-1.41,3.52,3.52,0,0,1,.27-1.41,2.06,2.06,0,0,1,.81-1,2.26,2.26,0,0,1,1.22-.34,1.89,1.89,0,0,1,.88.2,1.82,1.82,0,0,1,.63.51V85.78H99v7.16Zm-2.92-2.59a2.18,2.18,0,0,0,.44,1.49,1.36,1.36,0,0,0,1,.49,1.33,1.33,0,0,0,1-.47,2.1,2.1,0,0,0,.42-1.44,2.35,2.35,0,0,0-.43-1.56,1.35,1.35,0,0,0-1.06-.5,1.3,1.3,0,0,0-1,.48A2.27,2.27,0,0,0,95.26,90.35Z"/><path d="M102.31,92.94l-2.07-5.19h1l1.17,3.11q.19.5.35,1,.12-.41.34-1l1.21-3.16h.95l-2.06,5.19Z"/><path d="M109.92,92.3a3.49,3.49,0,0,1-1,.59,3,3,0,0,1-1,.17,2,2,0,0,1-1.38-.42,1.42,1.42,0,0,1-.3-1.76,1.46,1.46,0,0,1,.48-.51,2.28,2.28,0,0,1,.66-.29,6.92,6.92,0,0,1,.82-.13,8.75,8.75,0,0,0,1.65-.3c0-.12,0-.2,0-.23a1,1,0,0,0-.26-.76,1.6,1.6,0,0,0-1.05-.3,1.7,1.7,0,0,0-1,.22,1.32,1.32,0,0,0-.46.77l-.9-.12a2.08,2.08,0,0,1,.41-.89,1.78,1.78,0,0,1,.82-.52,3.8,3.8,0,0,1,1.24-.18,3.44,3.44,0,0,1,1.13.16,1.51,1.51,0,0,1,.64.39,1.35,1.35,0,0,1,.29.6,4.71,4.71,0,0,1,0,.81v1.17a11.91,11.91,0,0,0,.06,1.55,1.9,1.9,0,0,0,.23.62h-1A1.79,1.79,0,0,1,109.92,92.3Zm-.08-2a7.12,7.12,0,0,1-1.51.33,3.59,3.59,0,0,0-.81.18.79.79,0,0,0-.36.29.72.72,0,0,0-.13.42.73.73,0,0,0,.28.59,1.24,1.24,0,0,0,.82.23,2,2,0,0,0,.95-.22,1.4,1.4,0,0,0,.61-.61,2,2,0,0,0,.15-.88Z"/><path d="M112.52,92.94V87.75h.83v.74a2,2,0,0,1,1.73-.86,2.38,2.38,0,0,1,.91.17,1.42,1.42,0,0,1,.62.44,1.65,1.65,0,0,1,.29.65,4.82,4.82,0,0,1,.05.86v3.19H116V89.78a2.25,2.25,0,0,0-.11-.8.85.85,0,0,0-.38-.42,1.26,1.26,0,0,0-.64-.16,1.54,1.54,0,0,0-1,.36,1.7,1.7,0,0,0-.43,1.35v2.83Z"/><path d="M122.23,91l.91.11a2.21,2.21,0,0,1-.76,1.4,2.29,2.29,0,0,1-1.5.5,2.4,2.4,0,0,1-1.8-.7,2.74,2.74,0,0,1-.68-2,3.49,3.49,0,0,1,.29-1.47,2,2,0,0,1,.89-.94,2.74,2.74,0,0,1,1.3-.32,2.33,2.33,0,0,1,1.45.43,1.94,1.94,0,0,1,.72,1.21l-.9.13a1.4,1.4,0,0,0-.45-.79,1.21,1.21,0,0,0-.79-.26,1.46,1.46,0,0,0-1.13.48,2.19,2.19,0,0,0-.44,1.51,2.25,2.25,0,0,0,.42,1.52,1.39,1.39,0,0,0,1.1.47,1.33,1.33,0,0,0,.91-.32A1.54,1.54,0,0,0,122.23,91Z"/><path d="M128,91.27l1,.11a2.21,2.21,0,0,1-.84,1.23,2.6,2.6,0,0,1-1.56.44,2.56,2.56,0,0,1-1.89-.7,2.66,2.66,0,0,1-.7-2,2.78,2.78,0,0,1,.71-2,2.46,2.46,0,0,1,1.84-.72,2.39,2.39,0,0,1,1.78.71,2.73,2.73,0,0,1,.69,2q0,.08,0,.23h-4.06a1.94,1.94,0,0,0,.51,1.31,1.55,1.55,0,0,0,1.14.45,1.46,1.46,0,0,0,.87-.25A1.69,1.69,0,0,0,128,91.27Zm-3-1.42h3a1.71,1.71,0,0,0-.35-1,1.45,1.45,0,0,0-1.14-.51,1.5,1.5,0,0,0-1.07.41A1.56,1.56,0,0,0,124.94,89.85Z"/><path d="M133.93,92.94v-.65a1.71,1.71,0,0,1-1.52.77,2.2,2.2,0,0,1-1.2-.34,2.27,2.27,0,0,1-.85-1,3.16,3.16,0,0,1-.3-1.41,3.52,3.52,0,0,1,.27-1.41,2.06,2.06,0,0,1,.82-1,2.26,2.26,0,0,1,1.22-.34,1.89,1.89,0,0,1,.88.2,1.82,1.82,0,0,1,.63.51V85.78h.92v7.16ZM131,90.35a2.19,2.19,0,0,0,.44,1.49,1.36,1.36,0,0,0,1,.49,1.33,1.33,0,0,0,1-.47,2.1,2.1,0,0,0,.42-1.44,2.35,2.35,0,0,0-.43-1.56,1.35,1.35,0,0,0-1.06-.5,1.3,1.3,0,0,0-1,.48A2.27,2.27,0,0,0,131,90.35Z"/><path d="M140.63,92.94h-.86V85.78h.92v2.55a1.86,1.86,0,0,1,1.49-.7,2.37,2.37,0,0,1,1,.19,1.92,1.92,0,0,1,.74.54,2.6,2.6,0,0,1,.46.84,3.34,3.34,0,0,1,.16,1.05,2.87,2.87,0,0,1-.69,2.06,2.21,2.21,0,0,1-1.66.73,1.76,1.76,0,0,1-1.51-.77Zm0-2.63a2.57,2.57,0,0,0,.27,1.35,1.34,1.34,0,0,0,1.18.68,1.35,1.35,0,0,0,1-.5,2.2,2.2,0,0,0,.44-1.49,2.23,2.23,0,0,0-.42-1.5,1.31,1.31,0,0,0-1-.48,1.35,1.35,0,0,0-1,.5A2.12,2.12,0,0,0,140.62,90.3Z"/><path d="M149.51,92.94v-.76a2,2,0,0,1-1.73.88,2.3,2.3,0,0,1-.9-.18,1.48,1.48,0,0,1-.62-.44,1.61,1.61,0,0,1-.29-.65,4.28,4.28,0,0,1-.06-.82V87.75h.92v2.88a4.87,4.87,0,0,0,.06.93.91.91,0,0,0,.37.54,1.19,1.19,0,0,0,.7.2,1.58,1.58,0,0,0,.78-.2,1.13,1.13,0,0,0,.51-.55,2.63,2.63,0,0,0,.15-1V87.75h.92v5.19Z"/><path d="M154.11,92.15l.13.78a3.54,3.54,0,0,1-.7.08,1.64,1.64,0,0,1-.78-.15.87.87,0,0,1-.39-.4,3,3,0,0,1-.11-1v-3h-.68v-.68h.68V86.47l.92-.53v1.81h.93v.68h-.93v3a1.5,1.5,0,0,0,0,.48.38.38,0,0,0,.16.17.64.64,0,0,0,.31.06Z"/><path d="M157.34,92.15l.13.78a3.54,3.54,0,0,1-.7.08,1.64,1.64,0,0,1-.78-.15.87.87,0,0,1-.39-.4,3,3,0,0,1-.11-1v-3h-.68v-.68h.68V86.47l.92-.53v1.81h.93v.68h-.93v3a1.5,1.5,0,0,0,0,.48.38.38,0,0,0,.16.17.64.64,0,0,0,.31.06Z"/><path d="M158.21,90.34a2.43,2.43,0,0,1,2.55-2.71,2.51,2.51,0,0,1,1.84.7,2.59,2.59,0,0,1,.71,1.94,3.28,3.28,0,0,1-.32,1.58,2.18,2.18,0,0,1-.92.89,2.78,2.78,0,0,1-1.31.32,2.51,2.51,0,0,1-1.85-.7A2.71,2.71,0,0,1,158.21,90.34Zm.95,0a2.13,2.13,0,0,0,.46,1.49,1.57,1.57,0,0,0,2.29,0,2.18,2.18,0,0,0,.46-1.52,2.07,2.07,0,0,0-.46-1.46,1.57,1.57,0,0,0-2.29,0A2.13,2.13,0,0,0,159.16,90.34Z"/><path d="M164.71,92.94V87.75h.83v.74a2,2,0,0,1,1.73-.86,2.38,2.38,0,0,1,.91.17,1.42,1.42,0,0,1,.62.44,1.65,1.65,0,0,1,.29.65,4.82,4.82,0,0,1,.05.86v3.19h-.92V89.78a2.25,2.25,0,0,0-.11-.8.85.85,0,0,0-.38-.42,1.26,1.26,0,0,0-.64-.16,1.54,1.54,0,0,0-1,.36,1.7,1.7,0,0,0-.43,1.35v2.83Z"/><path d="M174.32,92.94v-4.5h-.82v-.68h.82V87.2a2.31,2.31,0,0,1,.1-.78,1.13,1.13,0,0,1,.47-.55,1.76,1.76,0,0,1,.94-.21,4.73,4.73,0,0,1,.86.09l-.14.77a3.28,3.28,0,0,0-.54,0,.83.83,0,0,0-.59.17.89.89,0,0,0-.17.64v.48h1.06v.68h-1.06v4.5Z"/><path d="M177,90.34a2.43,2.43,0,0,1,2.55-2.71,2.51,2.51,0,0,1,1.84.7,2.59,2.59,0,0,1,.71,1.94,3.29,3.29,0,0,1-.32,1.58,2.19,2.19,0,0,1-.92.89,2.78,2.78,0,0,1-1.32.32,2.51,2.51,0,0,1-1.85-.7A2.71,2.71,0,0,1,177,90.34Zm.95,0a2.14,2.14,0,0,0,.46,1.49,1.57,1.57,0,0,0,2.29,0,2.19,2.19,0,0,0,.46-1.52,2.07,2.07,0,0,0-.46-1.46,1.49,1.49,0,0,0-1.14-.5,1.5,1.5,0,0,0-1.15.49A2.13,2.13,0,0,0,177.94,90.34Z"/><path d="M183.47,92.94V87.75h.83v.79a2.15,2.15,0,0,1,.59-.73,1.06,1.06,0,0,1,.59-.18,1.86,1.86,0,0,1,.95.28l-.32.82a1.37,1.37,0,0,0-.68-.19.91.91,0,0,0-.54.17.93.93,0,0,0-.34.48,3.27,3.27,0,0,0-.15,1v2.71Z"/><rect x="16.37" y="54.74" width="5.74" height="18.4" style="stroke:#000;stroke-width:3px"/><circle cx="19.32" cy="78.94" r="3.68" style="stroke:#000;stroke-width:3px"/><rect x="16.3" y="54.74" width="5.75" height="18.4" style="fill:#fff"/><circle cx="19.25" cy="78.94" r="3.68" style="fill:#fff"/></svg>