<svg id="Layer_1" data-name="Layer 1" xmlns="http://www.w3.org/2000/svg" viewBox="0 0 225.68 130.34"><title>UIM_fault_occurrence_menu</title><rect x="0.5" y="0.5" width="224.67" height="129.31" style="fill:none;stroke:#000"/><rect x="1.37" y="0.64" width="223.81" height="14.46" style="stroke:#000"/><rect x="0.49" y="101.87" width="224.67" height="27.94" style="fill:none"/><path d="M72,11V3.84h5.07v.84H73V6.9h3.53v.84H73V11Z" style="fill:#fff"/><path d="M82.1,10.36a3.46,3.46,0,0,1-1,.59,3,3,0,0,1-1,.17,2,2,0,0,1-1.38-.42,1.35,1.35,0,0,1-.48-1.07,1.36,1.36,0,0,1,.18-.7,1.46,1.46,0,0,1,.48-.51,2.3,2.3,0,0,1,.66-.29A7,7,0,0,1,80.38,8,8.79,8.79,0,0,0,82,7.71c0-.12,0-.2,0-.23a.94.94,0,0,0-.26-.76,1.6,1.6,0,0,0-1.05-.3,1.69,1.69,0,0,0-1,.22,1.32,1.32,0,0,0-.46.77l-.9-.12a2.08,2.08,0,0,1,.41-.89,1.78,1.78,0,0,1,.82-.52,3.8,3.8,0,0,1,1.24-.18A3.42,3.42,0,0,1,82,5.85a1.5,1.5,0,0,1,.64.39,1.35,1.35,0,0,1,.29.6,4.71,4.71,0,0,1,0,.81V8.83A11.92,11.92,0,0,0,83,10.38a1.9,1.9,0,0,0,.23.62h-1A1.79,1.79,0,0,1,82.1,10.36ZM82,8.4a7.06,7.06,0,0,1-1.51.33,3.65,3.65,0,0,0-.81.18.79.79,0,0,0-.36.29.72.72,0,0,0-.13.42.73.73,0,0,0,.28.59,1.24,1.24,0,0,0,.82.23,2,2,0,0,0,.95-.22,1.4,1.4,0,0,0,.61-.61A2,2,0,0,0,82,8.72Z" style="fill:#fff"/><path d="M88.22,11v-.76a2,2,0,0,1-1.73.88,2.3,2.3,0,0,1-.9-.18A1.48,1.48,0,0,1,85,10.5a1.61,1.61,0,0,1-.28-.65A4.26,4.26,0,0,1,84.63,9V5.81h.92V8.69a4.89,4.89,0,0,0,.06.93.91.91,0,0,0,.37.54,1.18,1.18,0,0,0,.7.2,1.58,1.58,0,0,0,.78-.2A1.15,1.15,0,0,0,88,9.6a2.64,2.64,0,0,0,.15-1V5.81H89V11Z" style="fill:#fff"/><path d="M90.73,11V3.84h.92V11Z" style="fill:#fff"/><path d="M95.36,10.21l.13.78a3.57,3.57,0,0,1-.7.08,1.64,1.64,0,0,1-.78-.15.87.87,0,0,1-.39-.4,3,3,0,0,1-.11-1v-3h-.68V5.81h.68V4.53L94.44,4V5.81h.93V6.5h-.93v3a1.47,1.47,0,0,0,0,.48.37.37,0,0,0,.16.17.64.64,0,0,0,.31.06Z" style="fill:#fff"/><path d="M99.52,7.51a3.78,3.78,0,0,1,1-2.79,3.5,3.5,0,0,1,2.59-1,3.74,3.74,0,0,1,1.88.47,3.16,3.16,0,0,1,1.27,1.32,4.12,4.12,0,0,1,.44,1.92,4.05,4.05,0,0,1-.46,1.95,3.07,3.07,0,0,1-1.31,1.3,3.89,3.89,0,0,1-1.83.44,3.69,3.69,0,0,1-1.9-.49A3.2,3.2,0,0,1,100,9.3,3.88,3.88,0,0,1,99.52,7.51Zm1,0a2.78,2.78,0,0,0,.73,2,2.64,2.64,0,0,0,3.68,0,3,3,0,0,0,.73-2.13,3.51,3.51,0,0,0-.31-1.53,2.3,2.3,0,0,0-.91-1,2.55,2.55,0,0,0-1.34-.36,2.61,2.61,0,0,0-1.82.69A3,3,0,0,0,100.55,7.53Z" style="fill:#fff"/><path d="M111.69,9.1l.91.11a2.21,2.21,0,0,1-.76,1.4,2.29,2.29,0,0,1-1.5.51,2.4,2.4,0,0,1-1.8-.7,2.74,2.74,0,0,1-.68-2A3.47,3.47,0,0,1,108.15,7,2,2,0,0,1,109,6a2.75,2.75,0,0,1,1.3-.31,2.34,2.34,0,0,1,1.45.43,1.94,1.94,0,0,1,.72,1.21l-.9.13a1.4,1.4,0,0,0-.45-.79,1.21,1.21,0,0,0-.79-.26,1.46,1.46,0,0,0-1.13.48,2.18,2.18,0,0,0-.44,1.51,2.25,2.25,0,0,0,.42,1.52,1.4,1.4,0,0,0,1.1.47,1.33,1.33,0,0,0,.91-.32A1.54,1.54,0,0,0,111.69,9.1Z" style="fill:#fff"/><path d="M117.2,9.1l.91.11a2.21,2.21,0,0,1-.76,1.4,2.29,2.29,0,0,1-1.5.51,2.4,2.4,0,0,1-1.8-.7,2.74,2.74,0,0,1-.68-2A3.47,3.47,0,0,1,113.66,7a2,2,0,0,1,.89-.94,2.74,2.74,0,0,1,1.3-.31,2.34,2.34,0,0,1,1.45.43A1.94,1.94,0,0,1,118,7.34l-.9.13a1.4,1.4,0,0,0-.45-.79,1.21,1.21,0,0,0-.79-.26,1.47,1.47,0,0,0-1.13.48,2.19,2.19,0,0,0-.44,1.51,2.26,2.26,0,0,0,.42,1.52,1.4,1.4,0,0,0,1.1.47,1.33,1.33,0,0,0,.91-.32A1.54,1.54,0,0,0,117.2,9.1Z" style="fill:#fff"/><path d="M122.73,11v-.76a2,2,0,0,1-1.73.88,2.3,2.3,0,0,1-.9-.18,1.48,1.48,0,0,1-.62-.44,1.6,1.6,0,0,1-.28-.65,4.21,4.21,0,0,1-.06-.82V5.81h.92V8.69a5,5,0,0,0,.06.93.92.92,0,0,0,.37.54,1.19,1.19,0,0,0,.7.2,1.57,1.57,0,0,0,.78-.2,1.14,1.14,0,0,0,.52-.55,2.63,2.63,0,0,0,.15-1V5.81h.92V11Z" style="fill:#fff"/><path d="M125.25,11V5.81h.83V6.6a2.15,2.15,0,0,1,.59-.73,1.06,1.06,0,0,1,.59-.18,1.86,1.86,0,0,1,.95.28l-.32.82a1.37,1.37,0,0,0-.68-.19.91.91,0,0,0-.54.17.93.93,0,0,0-.34.48,3.24,3.24,0,0,0-.15,1V11Z" style="fill:#fff"/><path d="M129,11V5.81h.83V6.6a2.16,2.16,0,0,1,.59-.73A1.06,1.06,0,0,1,131,5.7,1.87,1.87,0,0,1,132,6l-.32.82A1.37,1.37,0,0,0,131,6.6a.91.91,0,0,0-.54.17.94.94,0,0,0-.34.48,3.27,3.27,0,0,0-.15,1V11Z" style="fill:#fff"/><path d="M136.51,9.33l1,.11a2.21,2.21,0,0,1-.84,1.24,2.6,2.6,0,0,1-1.56.44,2.56,2.56,0,0,1-1.89-.7,2.66,2.66,0,0,1-.7-2,2.78,2.78,0,0,1,.71-2A2.45,2.45,0,0,1,135,5.7a2.39,2.39,0,0,1,1.78.71,2.73,2.73,0,0,1,.69,2c0,.05,0,.13,0,.23h-4.06a1.94,1.94,0,0,0,.51,1.31,1.55,1.55,0,0,0,1.14.45,1.46,1.46,0,0,0,.87-.25A1.69,1.69,0,0,0,136.51,9.33Zm-3-1.42h3a1.71,1.71,0,0,0-.35-1A1.45,1.45,0,0,0,135,6.42a1.51,1.51,0,0,0-1.07.41A1.57,1.57,0,0,0,133.48,7.91Z" style="fill:#fff"/><path d="M138.89,11V5.81h.83v.74a2,2,0,0,1,1.73-.85,2.37,2.37,0,0,1,.9.17,1.42,1.42,0,0,1,.62.44,1.65,1.65,0,0,1,.29.65,4.69,4.69,0,0,1,.05.85V11h-.92V7.84a2.25,2.25,0,0,0-.11-.8.86.86,0,0,0-.38-.42,1.25,1.25,0,0,0-.64-.16,1.54,1.54,0,0,0-1,.36,1.71,1.71,0,0,0-.43,1.35V11Z" style="fill:#fff"/><path d="M148.54,9.1l.91.11a2.21,2.21,0,0,1-.76,1.4,2.28,2.28,0,0,1-1.5.51,2.4,2.4,0,0,1-1.8-.7,2.74,2.74,0,0,1-.68-2A3.47,3.47,0,0,1,145,7a2,2,0,0,1,.89-.94,2.75,2.75,0,0,1,1.3-.31,2.34,2.34,0,0,1,1.45.43,1.94,1.94,0,0,1,.72,1.21l-.9.13a1.41,1.41,0,0,0-.45-.79,1.21,1.21,0,0,0-.79-.26,1.46,1.46,0,0,0-1.13.48,2.18,2.18,0,0,0-.44,1.51,2.25,2.25,0,0,0,.42,1.52,1.39,1.39,0,0,0,1.1.47,1.33,1.33,0,0,0,.91-.32A1.54,1.54,0,0,0,148.54,9.1Z" style="fill:#fff"/><path d="M154.23,9.33l1,.11a2.21,2.21,0,0,1-.84,1.24,2.6,2.6,0,0,1-1.56.44,2.56,2.56,0,0,1-1.89-.7,2.66,2.66,0,0,1-.7-2,2.78,2.78,0,0,1,.71-2,2.45,2.45,0,0,1,1.84-.72,2.39,2.39,0,0,1,1.78.71,2.73,2.73,0,0,1,.69,2c0,.05,0,.13,0,.23h-4.06a1.94,1.94,0,0,0,.51,1.31,1.55,1.55,0,0,0,1.14.45,1.46,1.46,0,0,0,.87-.25A1.69,1.69,0,0,0,154.23,9.33Zm-3-1.42h3a1.71,1.71,0,0,0-.35-1,1.45,1.45,0,0,0-1.14-.51,1.51,1.51,0,0,0-1.07.41A1.57,1.57,0,0,0,151.2,7.91Z" style="fill:#fff"/><rect x="0.53" y="101.87" width="44.92" height="27.98" style="fill:none"/><rect x="45.65" y="101.87" width="44.92" height="27.98" style="fill:none"/><rect x="90.57" y="101.87" width="44.92" height="27.98" style="fill:none;stroke:#000"/><rect x="180.23" y="101.87" width="44.92" height="27.98" style="fill:none;stroke:#000;stroke-linecap:round;stroke-linejoin:round;stroke-width:0.9753649999999999px"/><rect x="135.36" y="101.87" width="44.92" height="27.98" style="fill:none"/><rect x="2.78" y="17.42" width="204.89" height="13.39" style="fill:none"/><line x1="0.53" y1="101.87" x2="225.04" y2="101.87" style="fill:none;stroke:#000;stroke-linecap:round;stroke-linejoin:round;stroke-width:0.9753649999999999px"/><path d="M193.64,118.84V111h.65v3.23h2.56V111h.65v7.87h-.65v-3.71h-2.56v3.71Z"/><path d="M199.16,118.84V111h3.57v.93h-2.91v2.41h2.73v.92h-2.73v2.68h3v.93Z"/><path d="M204.27,118.84V111h.65v6.95h2.43v.93Z"/><path d="M208.68,118.84V111h1.86a2.86,2.86,0,0,1,.75.08,1.22,1.22,0,0,1,.61.37,2,2,0,0,1,.4.76,3.66,3.66,0,0,1,.15,1.07,3.36,3.36,0,0,1-.4,1.7,1.53,1.53,0,0,1-1.45.7h-1.26v3.2Zm.65-4.13h1.27a1,1,0,0,0,.9-.38,1.81,1.81,0,0,0,.27-1.06,2.07,2.07,0,0,0-.16-.85.84.84,0,0,0-.41-.46,1.8,1.8,0,0,0-.61-.07h-1.26Z"/><rect x="209.68" y="83.2" width="15.48" height="18.65" style="fill:none;stroke:#000;stroke-width:0.9753649999999999px"/><polygon points="210.46 92.12 217.43 99.08 224.37 92.12 210.46 92.12"/><rect x="209.68" y="15.08" width="15.48" height="18.65" style="fill:none;stroke:#000;stroke-width:0.9753649999999999px"/><rect x="210.23" y="35.38" width="13.56" height="15.35"/><polygon points="224.4 24.93 217.43 17.97 210.48 24.93 224.4 24.93"/><path d="M103.71,118.84V111h1.85a1.38,1.38,0,0,1,1.44,1,2.84,2.84,0,0,1,.19,1,2.61,2.61,0,0,1-.17,1,1.66,1.66,0,0,1-.52.72,1.43,1.43,0,0,1,.69.71,2.74,2.74,0,0,1,.24,1.19,3.48,3.48,0,0,1-.15,1,2.12,2.12,0,0,1-.36.73,1.35,1.35,0,0,1-.54.39,2.11,2.11,0,0,1-.79.13Zm.65-4.57h1.07a1.52,1.52,0,0,0,.62-.09.77.77,0,0,0,.38-.39,1.64,1.64,0,0,0,.13-.69,1.86,1.86,0,0,0-.12-.69.73.73,0,0,0-.34-.41,1.82,1.82,0,0,0-.75-.11h-1Zm0,3.64h1.23a1.81,1.81,0,0,0,.44,0,.85.85,0,0,0,.38-.21,1.1,1.1,0,0,0,.25-.44,2.06,2.06,0,0,0,.1-.66,1.9,1.9,0,0,0-.14-.77.89.89,0,0,0-.39-.46,1.58,1.58,0,0,0-.72-.13h-1.14Z"/><path d="M108.34,118.84l1.89-7.87h.7l2,7.87h-.74l-.58-2.38h-2.06l-.54,2.38Zm1.42-3.23h1.67l-.51-2.18c-.16-.66-.27-1.21-.35-1.63a14.87,14.87,0,0,1-.27,1.5Z"/><path d="M117.55,116.08l.65.26a4.21,4.21,0,0,1-.74,2,1.61,1.61,0,0,1-1.3.67,1.72,1.72,0,0,1-1.3-.52,3.37,3.37,0,0,1-.76-1.5,8.2,8.2,0,0,1-.26-2.11,7,7,0,0,1,.29-2.15,3,3,0,0,1,.84-1.39,1.78,1.78,0,0,1,1.2-.48,1.56,1.56,0,0,1,1.24.6,3.59,3.59,0,0,1,.7,1.69l-.64.24a2.84,2.84,0,0,0-.5-1.25,1,1,0,0,0-.82-.39,1.22,1.22,0,0,0-1,.43,2.54,2.54,0,0,0-.54,1.17,7.29,7.29,0,0,0-.16,1.51,7.44,7.44,0,0,0,.18,1.75,2.26,2.26,0,0,0,.57,1.12,1.19,1.19,0,0,0,.84.37,1.13,1.13,0,0,0,.93-.51A3.22,3.22,0,0,0,117.55,116.08Z"/><path d="M119.53,118.84V111h.65v3.9l2.45-3.9h.88l-2.07,3.19,2.16,4.68h-.86l-1.76-4-.81,1.26v2.73Z"/><path d="M4.82,27.41V19.53h1v7.87Z"/><path d="M7.62,27.88l.94.14a.9.9,0,0,0,.33.63,1.61,1.61,0,0,0,1,.27,1.73,1.73,0,0,0,1-.27,1.32,1.32,0,0,0,.49-.75,6.17,6.17,0,0,0,.07-1.24,2,2,0,0,1-1.58.75,2.15,2.15,0,0,1-1.82-.85,3.27,3.27,0,0,1-.64-2A3.79,3.79,0,0,1,7.72,23,2.36,2.36,0,0,1,8.58,22a2.31,2.31,0,0,1,1.32-.38,2,2,0,0,1,1.67.82V21.7h.89v4.93a4.67,4.67,0,0,1-.27,1.89,2,2,0,0,1-.86.88,3,3,0,0,1-1.45.32,2.73,2.73,0,0,1-1.65-.46A1.55,1.55,0,0,1,7.62,27.88Zm.8-3.43a2.47,2.47,0,0,0,.45,1.64,1.47,1.47,0,0,0,2.23,0,2.39,2.39,0,0,0,.45-1.61,2.34,2.34,0,0,0-.46-1.58A1.44,1.44,0,0,0,10,22.37a1.39,1.39,0,0,0-1.1.52A2.32,2.32,0,0,0,8.42,24.45Z"/><path d="M14.14,27.41V21.7H15v.81a2.05,2.05,0,0,1,1.82-.94,2.37,2.37,0,0,1,.95.19,1.48,1.48,0,0,1,.65.49,1.87,1.87,0,0,1,.3.71,5.55,5.55,0,0,1,.05.94v3.51h-1V23.94a2.61,2.61,0,0,0-.11-.88.93.93,0,0,0-.4-.47,1.27,1.27,0,0,0-.67-.17,1.57,1.57,0,0,0-1.07.39,1.93,1.93,0,0,0-.45,1.49v3.12Z"/><path d="M20.48,20.65V19.53h1v1.11Zm0,6.76V21.7h1v5.7Z"/><path d="M25.25,26.54l.14.85a3.6,3.6,0,0,1-.73.09,1.66,1.66,0,0,1-.82-.17.93.93,0,0,1-.41-.44,3.46,3.46,0,0,1-.12-1.14V22.46H22.6V21.7h.71V20.29l1-.58v2h1v.75h-1v3.34a1.68,1.68,0,0,0,.05.53.4.4,0,0,0,.17.19.65.65,0,0,0,.33.07Z"/><path d="M26.42,20.65V19.53h1v1.11Zm0,6.76V21.7h1v5.7Z"/><path d="M28.72,24.56a2.94,2.94,0,0,1,.88-2.35,2.66,2.66,0,0,1,1.79-.63,2.56,2.56,0,0,1,1.92.77,2.93,2.93,0,0,1,.75,2.13,3.77,3.77,0,0,1-.33,1.73,2.34,2.34,0,0,1-1,1,2.8,2.8,0,0,1-1.38.35,2.56,2.56,0,0,1-1.94-.77A3.07,3.07,0,0,1,28.72,24.56Zm1,0a2.43,2.43,0,0,0,.48,1.64,1.59,1.59,0,0,0,2.4,0,2.49,2.49,0,0,0,.48-1.67,2.36,2.36,0,0,0-.48-1.6,1.59,1.59,0,0,0-2.4,0A2.42,2.42,0,0,0,29.71,24.56Z"/><path d="M35.41,27.41V21.7h.87v.81a2.05,2.05,0,0,1,1.82-.94,2.37,2.37,0,0,1,.95.19,1.48,1.48,0,0,1,.65.49A1.87,1.87,0,0,1,40,23a5.55,5.55,0,0,1,.05.94v3.51h-1V23.94a2.61,2.61,0,0,0-.11-.88.93.93,0,0,0-.4-.47,1.27,1.27,0,0,0-.67-.17,1.57,1.57,0,0,0-1.07.39,1.93,1.93,0,0,0-.45,1.49v3.12Z"/><path d="M45.21,27.41V19.53h5.31v.93H46.25V22.9h3.7v.93h-3.7v3.58Z"/><path d="M55.69,26.7a3.6,3.6,0,0,1-1,.64,3,3,0,0,1-1.07.19,2.08,2.08,0,0,1-1.44-.46,1.52,1.52,0,0,1-.5-1.17,1.56,1.56,0,0,1,.19-.77,1.58,1.58,0,0,1,.5-.56,2.35,2.35,0,0,1,.7-.32,6.85,6.85,0,0,1,.86-.15,8.84,8.84,0,0,0,1.72-.33c0-.13,0-.22,0-.25a1.07,1.07,0,0,0-.27-.83,1.62,1.62,0,0,0-1.1-.33,1.71,1.71,0,0,0-1,.24,1.46,1.46,0,0,0-.48.85l-.95-.13a2.34,2.34,0,0,1,.42-1,1.86,1.86,0,0,1,.85-.58,3.82,3.82,0,0,1,1.29-.2,3.42,3.42,0,0,1,1.19.17,1.56,1.56,0,0,1,.67.43,1.52,1.52,0,0,1,.3.66,5.44,5.44,0,0,1,0,.89V25a13.6,13.6,0,0,0,.06,1.71,2.15,2.15,0,0,0,.24.68h-1A2.06,2.06,0,0,1,55.69,26.7Zm-.08-2.16a7.1,7.1,0,0,1-1.58.37,3.63,3.63,0,0,0-.84.19.84.84,0,0,0-.38.31.85.85,0,0,0,.16,1.1,1.26,1.26,0,0,0,.86.26,2,2,0,0,0,1-.24,1.5,1.5,0,0,0,.64-.67,2.33,2.33,0,0,0,.16-1Z"/><path d="M58.31,20.65V19.53h1v1.11Zm0,6.76V21.7h1v5.7Z"/><path d="M60.95,27.41V19.53h1v7.87Z"/><path d="M67.37,27.41v-.84a2.09,2.09,0,0,1-1.81,1,2.3,2.3,0,0,1-.94-.19,1.55,1.55,0,0,1-.65-.49,1.82,1.82,0,0,1-.3-.72,4.9,4.9,0,0,1-.06-.9V21.7h1v3.16a5.62,5.62,0,0,0,.06,1,1,1,0,0,0,.39.6,1.2,1.2,0,0,0,.73.22,1.59,1.59,0,0,0,.82-.22,1.24,1.24,0,0,0,.54-.61,3.05,3.05,0,0,0,.16-1.11V21.7h1v5.7Z"/><path d="M70,27.41V21.7h.87v.86a2.37,2.37,0,0,1,.61-.8,1.08,1.08,0,0,1,.62-.19,1.89,1.89,0,0,1,1,.31l-.33.9a1.38,1.38,0,0,0-.71-.21.92.92,0,0,0-.57.19,1,1,0,0,0-.36.53,3.77,3.77,0,0,0-.16,1.13v3Z"/><path d="M77.76,25.57l1,.12a2.44,2.44,0,0,1-.88,1.36,3,3,0,0,1-3.62-.29,3,3,0,0,1-.73-2.16,3.15,3.15,0,0,1,.74-2.23,2.51,2.51,0,0,1,1.92-.79,2.44,2.44,0,0,1,1.87.78,3.09,3.09,0,0,1,.73,2.19c0,.06,0,.14,0,.26H74.53a2.19,2.19,0,0,0,.53,1.44,1.58,1.58,0,0,0,1.19.5,1.48,1.48,0,0,0,.91-.28A1.86,1.86,0,0,0,77.76,25.57ZM74.58,24h3.19a1.93,1.93,0,0,0-.37-1.08,1.48,1.48,0,0,0-1.2-.56,1.53,1.53,0,0,0-1.12.45A1.76,1.76,0,0,0,74.58,24Z"/><path d="M183,23.52a7.21,7.21,0,0,1,.29-2.25,2.8,2.8,0,0,1,.85-1.31,2.18,2.18,0,0,1,1.43-.46,2.33,2.33,0,0,1,1.11.25,2.13,2.13,0,0,1,.79.74,4,4,0,0,1,.49,1.17,7.77,7.77,0,0,1,.18,1.86,7.23,7.23,0,0,1-.29,2.24,2.8,2.8,0,0,1-.85,1.32,2.18,2.18,0,0,1-1.43.46,2.16,2.16,0,0,1-1.79-.82A5.19,5.19,0,0,1,183,23.52Zm1,0a4.93,4.93,0,0,0,.45,2.58,1.3,1.3,0,0,0,2.24,0,4.94,4.94,0,0,0,.45-2.58,4.93,4.93,0,0,0-.45-2.58,1.34,1.34,0,0,0-1.13-.64,1.24,1.24,0,0,0-1.06.56A5,5,0,0,0,184,23.52Z"/><path d="M202.11,24l-5.22,2.23v-1L201,23.52l-4.13-1.7v-1l5.22,2.2Z"/><path d="M4.67,41.41V33.53h5.69v.93H5.71v2.41h4.36v.92H5.71v2.68h4.83v.93Z"/><path d="M17.82,38.65l1,.26a3.51,3.51,0,0,1-1.18,2,3.25,3.25,0,0,1-2.08.67A3.74,3.74,0,0,1,13.53,41a3.24,3.24,0,0,1-1.21-1.5,5.36,5.36,0,0,1-.42-2.11,4.64,4.64,0,0,1,.47-2.15,3.22,3.22,0,0,1,1.34-1.39,3.91,3.91,0,0,1,1.91-.48,3.23,3.23,0,0,1,2,.6,3.12,3.12,0,0,1,1.12,1.69l-1,.24a2.43,2.43,0,0,0-.79-1.25,2.12,2.12,0,0,0-1.31-.39,2.55,2.55,0,0,0-1.52.44,2.3,2.3,0,0,0-.86,1.17A4.71,4.71,0,0,0,13,37.41a4.8,4.8,0,0,0,.29,1.75,2.18,2.18,0,0,0,.91,1.12,2.55,2.55,0,0,0,1.34.37,2.24,2.24,0,0,0,1.48-.5A2.58,2.58,0,0,0,17.82,38.65Z"/><path d="M20,37.57A4.28,4.28,0,0,1,21.1,34.5a3.58,3.58,0,0,1,2.72-1.11,3.77,3.77,0,0,1,2,.52,3.4,3.4,0,0,1,1.33,1.45,4.71,4.71,0,0,1,.46,2.11,4.64,4.64,0,0,1-.48,2.14,3.3,3.3,0,0,1-1.37,1.43,3.92,3.92,0,0,1-1.91.49,3.72,3.72,0,0,1-2-.54,3.46,3.46,0,0,1-1.33-1.47A4.44,4.44,0,0,1,20,37.57Zm1.07,0a3.16,3.16,0,0,0,.77,2.24,2.67,2.67,0,0,0,3.86,0,3.34,3.34,0,0,0,.76-2.35,4,4,0,0,0-.32-1.68,2.5,2.5,0,0,0-1-1.11,2.57,2.57,0,0,0-1.4-.4,2.66,2.66,0,0,0-1.9.76A3.4,3.4,0,0,0,21.12,37.59Z"/><path d="M183,37.52a7.21,7.21,0,0,1,.29-2.25,2.8,2.8,0,0,1,.85-1.31,2.18,2.18,0,0,1,1.43-.46,2.33,2.33,0,0,1,1.11.25,2.13,2.13,0,0,1,.79.74,4,4,0,0,1,.49,1.17,7.77,7.77,0,0,1,.18,1.86,7.23,7.23,0,0,1-.29,2.24,2.8,2.8,0,0,1-.85,1.32,2.18,2.18,0,0,1-1.43.46,2.16,2.16,0,0,1-1.79-.82A5.19,5.19,0,0,1,183,37.52Zm1,0a4.93,4.93,0,0,0,.45,2.58,1.3,1.3,0,0,0,2.24,0,4.94,4.94,0,0,0,.45-2.58,4.93,4.93,0,0,0-.45-2.58,1.34,1.34,0,0,0-1.13-.64,1.24,1.24,0,0,0-1.06.56A5,5,0,0,0,184,37.52Z"/><path d="M202.11,38l-5.22,2.23v-1L201,37.52l-4.13-1.7v-1l5.22,2.2Z"/><path d="M4.6,55.41V47.53h1v6.94H9.52v.93Z"/><path d="M10.5,52.56a2.94,2.94,0,0,1,.88-2.35,2.66,2.66,0,0,1,1.79-.63,2.56,2.56,0,0,1,1.92.77,2.93,2.93,0,0,1,.75,2.13,3.77,3.77,0,0,1-.33,1.73,2.34,2.34,0,0,1-1,1,2.8,2.8,0,0,1-1.38.35,2.56,2.56,0,0,1-1.94-.77A3.07,3.07,0,0,1,10.5,52.56Zm1,0A2.43,2.43,0,0,0,12,54.2a1.59,1.59,0,0,0,2.4,0,2.49,2.49,0,0,0,.48-1.67,2.36,2.36,0,0,0-.48-1.6,1.59,1.59,0,0,0-2.4,0A2.42,2.42,0,0,0,11.49,52.56Z"/><path d="M18.25,55.41,16.5,49.7h1L18.41,53l.34,1.22L19,53,20,49.7h1L21.8,53l.28,1.09.33-1.1,1-3.3h.94l-1.78,5.7h-1L20.63,52l-.22-1-1.15,4.39Z"/><path d="M32.44,52.32V51.4h3.34v2.92a5.88,5.88,0,0,1-1.58.92,4.7,4.7,0,0,1-1.68.31,4.48,4.48,0,0,1-2.11-.5A3.29,3.29,0,0,1,29,53.61a4.52,4.52,0,0,1-.48-2.1A4.87,4.87,0,0,1,29,49.36a3.19,3.19,0,0,1,1.38-1.48,4.33,4.33,0,0,1,2.08-.48,4.12,4.12,0,0,1,1.54.28,2.55,2.55,0,0,1,1.08.77,3.43,3.43,0,0,1,.6,1.29l-.94.26a2.91,2.91,0,0,0-.44-.95,1.81,1.81,0,0,0-.75-.55,2.76,2.76,0,0,0-1.08-.21,3.2,3.2,0,0,0-1.24.22,2.32,2.32,0,0,0-.84.57,2.73,2.73,0,0,0-.5.78,4.12,4.12,0,0,0-.3,1.58,3.84,3.84,0,0,0,.36,1.76A2.32,2.32,0,0,0,31,54.26a3.27,3.27,0,0,0,1.47.34,3.49,3.49,0,0,0,1.32-.26,3.41,3.41,0,0,0,1-.56V52.32Z"/><path d="M41.14,54.7a3.6,3.6,0,0,1-1,.64,3,3,0,0,1-1.07.19,2.08,2.08,0,0,1-1.44-.46,1.52,1.52,0,0,1-.5-1.17,1.56,1.56,0,0,1,.19-.77,1.58,1.58,0,0,1,.5-.56,2.35,2.35,0,0,1,.7-.32,6.85,6.85,0,0,1,.86-.15,8.84,8.84,0,0,0,1.72-.33c0-.13,0-.22,0-.25a1.07,1.07,0,0,0-.27-.83,1.62,1.62,0,0,0-1.1-.33,1.71,1.71,0,0,0-1,.24,1.46,1.46,0,0,0-.48.85l-.95-.13a2.34,2.34,0,0,1,.42-1,1.86,1.86,0,0,1,.85-.58,3.82,3.82,0,0,1,1.29-.2,3.42,3.42,0,0,1,1.19.17,1.56,1.56,0,0,1,.67.43,1.52,1.52,0,0,1,.3.66,5.44,5.44,0,0,1,0,.89V53a13.6,13.6,0,0,0,.06,1.71,2.15,2.15,0,0,0,.24.68h-1A2.06,2.06,0,0,1,41.14,54.7Zm-.08-2.16a7.1,7.1,0,0,1-1.58.37,3.63,3.63,0,0,0-.84.19.84.84,0,0,0-.38.31.85.85,0,0,0,.16,1.1,1.26,1.26,0,0,0,.86.26,2,2,0,0,0,1-.24,1.5,1.5,0,0,0,.64-.67,2.33,2.33,0,0,0,.16-1Z"/><path d="M43.36,53.71l1-.15a1.33,1.33,0,0,0,.45.88,1.56,1.56,0,0,0,1,.31,1.51,1.51,0,0,0,1-.27.81.81,0,0,0,.32-.64.59.59,0,0,0-.28-.52,4.18,4.18,0,0,0-1-.33,9,9,0,0,1-1.47-.46,1.41,1.41,0,0,1-.84-1.31,1.47,1.47,0,0,1,.17-.71,1.57,1.57,0,0,1,.48-.54,2,2,0,0,1,.62-.28,2.93,2.93,0,0,1,.83-.12,3.3,3.3,0,0,1,1.18.19,1.6,1.6,0,0,1,.75.52,2.05,2.05,0,0,1,.33.88l-.95.13a1,1,0,0,0-.37-.69,1.36,1.36,0,0,0-.87-.25,1.58,1.58,0,0,0-1,.22.64.64,0,0,0-.28.52.53.53,0,0,0,.12.34.85.85,0,0,0,.37.26l.85.25a11.89,11.89,0,0,1,1.43.45,1.45,1.45,0,0,1,.64.51,1.42,1.42,0,0,1,.23.83,1.62,1.62,0,0,1-.28.91,1.83,1.83,0,0,1-.81.66,3,3,0,0,1-1.2.23,2.68,2.68,0,0,1-1.69-.46A2.15,2.15,0,0,1,43.36,53.71Z"/><path d="M52.87,55.41V47.53h3a7.15,7.15,0,0,1,1.2.08A2.37,2.37,0,0,1,58,48a1.93,1.93,0,0,1,.63.76,2.56,2.56,0,0,1-.4,2.77,3.07,3.07,0,0,1-2.31.7h-2v3.2Zm1-4.13h2a2.16,2.16,0,0,0,1.43-.38,1.34,1.34,0,0,0,.42-1.06,1.43,1.43,0,0,0-.25-.85,1.17,1.17,0,0,0-.66-.46,4.46,4.46,0,0,0-1-.07h-2Z"/><path d="M60.29,55.41V49.7h.87v.86a2.37,2.37,0,0,1,.61-.8,1.08,1.08,0,0,1,.62-.19,1.89,1.89,0,0,1,1,.31l-.33.9a1.38,1.38,0,0,0-.71-.21.92.92,0,0,0-.57.19,1,1,0,0,0-.36.53,3.77,3.77,0,0,0-.16,1.13v3Z"/><path d="M68.09,53.57l1,.12a2.44,2.44,0,0,1-.88,1.36,3,3,0,0,1-3.62-.29,3,3,0,0,1-.73-2.16,3.15,3.15,0,0,1,.74-2.23,2.51,2.51,0,0,1,1.92-.79,2.44,2.44,0,0,1,1.87.78,3.09,3.09,0,0,1,.73,2.19c0,.06,0,.14,0,.26H64.86a2.19,2.19,0,0,0,.53,1.44,1.58,1.58,0,0,0,1.19.5,1.48,1.48,0,0,0,.91-.28A1.86,1.86,0,0,0,68.09,53.57ZM64.92,52H68.1a1.93,1.93,0,0,0-.37-1.08,1.48,1.48,0,0,0-1.2-.56,1.53,1.53,0,0,0-1.12.45A1.76,1.76,0,0,0,64.92,52Z"/><path d="M70.14,53.71l1-.15a1.33,1.33,0,0,0,.45.88,1.56,1.56,0,0,0,1,.31,1.51,1.51,0,0,0,1-.27.81.81,0,0,0,.32-.64.59.59,0,0,0-.28-.52,4.18,4.18,0,0,0-1-.33,9,9,0,0,1-1.47-.46,1.41,1.41,0,0,1-.84-1.31,1.47,1.47,0,0,1,.17-.71,1.57,1.57,0,0,1,.48-.54,2,2,0,0,1,.62-.28,2.93,2.93,0,0,1,.83-.12,3.3,3.3,0,0,1,1.18.19,1.6,1.6,0,0,1,.75.52,2.05,2.05,0,0,1,.33.88l-.95.13a1,1,0,0,0-.37-.69,1.36,1.36,0,0,0-.87-.25,1.58,1.58,0,0,0-1,.22.64.64,0,0,0-.28.52.53.53,0,0,0,.12.34.85.85,0,0,0,.37.26l.85.25A11.89,11.89,0,0,1,74,52.4a1.45,1.45,0,0,1,.64.51,1.42,1.42,0,0,1,.23.83,1.62,1.62,0,0,1-.28.91,1.83,1.83,0,0,1-.81.66,3,3,0,0,1-1.2.23,2.68,2.68,0,0,1-1.69-.46A2.15,2.15,0,0,1,70.14,53.71Z"/><path d="M75.86,53.71l1-.15a1.33,1.33,0,0,0,.45.88,1.56,1.56,0,0,0,1,.31,1.51,1.51,0,0,0,1-.27.81.81,0,0,0,.32-.64.59.59,0,0,0-.28-.52,4.18,4.18,0,0,0-1-.33,9,9,0,0,1-1.47-.46A1.41,1.41,0,0,1,76,51.22a1.47,1.47,0,0,1,.17-.71,1.57,1.57,0,0,1,.48-.54,2,2,0,0,1,.62-.28,2.93,2.93,0,0,1,.83-.12,3.3,3.3,0,0,1,1.18.19,1.6,1.6,0,0,1,.75.52,2.05,2.05,0,0,1,.33.88l-.95.13a1,1,0,0,0-.37-.69,1.36,1.36,0,0,0-.87-.25,1.58,1.58,0,0,0-1,.22.64.64,0,0,0-.28.52.53.53,0,0,0,.12.34.85.85,0,0,0,.37.26l.85.25a11.89,11.89,0,0,1,1.43.45,1.45,1.45,0,0,1,.64.51,1.42,1.42,0,0,1,.23.83,1.62,1.62,0,0,1-.28.91,1.83,1.83,0,0,1-.81.66,3,3,0,0,1-1.2.23,2.68,2.68,0,0,1-1.69-.46A2.15,2.15,0,0,1,75.86,53.71Z"/><path d="M85.7,55.41v-.84a2.09,2.09,0,0,1-1.81,1,2.3,2.3,0,0,1-.94-.19,1.55,1.55,0,0,1-.65-.49,1.82,1.82,0,0,1-.3-.72,4.9,4.9,0,0,1-.06-.9V49.7h1v3.16a5.62,5.62,0,0,0,.06,1,1,1,0,0,0,.39.6,1.2,1.2,0,0,0,.73.22,1.59,1.59,0,0,0,.82-.22,1.24,1.24,0,0,0,.54-.61,3.05,3.05,0,0,0,.16-1.11V49.7h1v5.7Z"/><path d="M88.29,55.41V49.7h.87v.86a2.37,2.37,0,0,1,.61-.8,1.08,1.08,0,0,1,.62-.19,1.89,1.89,0,0,1,1,.31l-.33.9a1.38,1.38,0,0,0-.71-.21.92.92,0,0,0-.57.19,1,1,0,0,0-.36.53,3.77,3.77,0,0,0-.16,1.13v3Z"/><path d="M96.09,53.57l1,.12a2.44,2.44,0,0,1-.88,1.36,3,3,0,0,1-3.62-.29,3,3,0,0,1-.73-2.16,3.15,3.15,0,0,1,.74-2.23,2.51,2.51,0,0,1,1.92-.79,2.44,2.44,0,0,1,1.87.78,3.09,3.09,0,0,1,.73,2.19c0,.06,0,.14,0,.26H92.86a2.19,2.19,0,0,0,.53,1.44,1.58,1.58,0,0,0,1.19.5,1.48,1.48,0,0,0,.91-.28A1.86,1.86,0,0,0,96.09,53.57ZM92.92,52H96.1a1.93,1.93,0,0,0-.37-1.08,1.48,1.48,0,0,0-1.2-.56,1.53,1.53,0,0,0-1.12.45A1.76,1.76,0,0,0,92.92,52Z"/><path d="M186.62,55.41h-1V49.25a5,5,0,0,1-.92.67,6.47,6.47,0,0,1-1,.5v-.93a5.83,5.83,0,0,0,1.42-.92A3.62,3.62,0,0,0,186,47.5h.62Z"/><path d="M202.11,52l-5.22,2.23v-1L201,51.52l-4.13-1.7v-1l5.22,2.2Z"/><path d="M4.6,69.41V61.53h3A3.65,3.65,0,0,1,9,61.77a1.86,1.86,0,0,1,.85.74,1.94,1.94,0,0,1,.31,1,1.79,1.79,0,0,1-.27,1,2,2,0,0,1-.83.72,2.06,2.06,0,0,1,1.1.71,1.91,1.91,0,0,1,.38,1.19,2.29,2.29,0,0,1-.23,1,2,2,0,0,1-.58.73,2.41,2.41,0,0,1-.86.39,5.23,5.23,0,0,1-1.27.13Zm1-4.56h1.7a3.79,3.79,0,0,0,1-.09,1.1,1.1,0,0,0,.6-.39,1.13,1.13,0,0,0,.2-.69A1.27,1.27,0,0,0,9,63a1,1,0,0,0-.54-.41,4.5,4.5,0,0,0-1.2-.11H5.64Zm0,3.64h2a4.46,4.46,0,0,0,.71,0,1.69,1.69,0,0,0,.6-.21,1.14,1.14,0,0,0,.4-.44,1.37,1.37,0,0,0,.16-.66,1.31,1.31,0,0,0-.23-.77,1.19,1.19,0,0,0-.63-.46,3.89,3.89,0,0,0-1.15-.13H5.64Z"/><path d="M12.06,69.41V61.53h1v7.87Z"/><path d="M14.38,66.56a2.94,2.94,0,0,1,.88-2.35,2.66,2.66,0,0,1,1.79-.63,2.56,2.56,0,0,1,1.92.77,2.93,2.93,0,0,1,.75,2.13,3.77,3.77,0,0,1-.33,1.73,2.34,2.34,0,0,1-1,1,2.79,2.79,0,0,1-1.38.35,2.57,2.57,0,0,1-1.94-.77A3.07,3.07,0,0,1,14.38,66.56Zm1,0a2.43,2.43,0,0,0,.48,1.64,1.59,1.59,0,0,0,2.4,0,2.49,2.49,0,0,0,.48-1.67,2.36,2.36,0,0,0-.48-1.6,1.59,1.59,0,0,0-2.4,0A2.42,2.42,0,0,0,15.38,66.56Z"/><path d="M24.8,67.32l1,.12A2.47,2.47,0,0,1,25,69a2.33,2.33,0,0,1-1.58.55,2.44,2.44,0,0,1-1.88-.77,3.1,3.1,0,0,1-.71-2.19A4,4,0,0,1,21.09,65a2.13,2.13,0,0,1,.93-1,2.76,2.76,0,0,1,1.36-.35A2.37,2.37,0,0,1,24.9,64a2.15,2.15,0,0,1,.76,1.33l-.94.15a1.56,1.56,0,0,0-.48-.86,1.23,1.23,0,0,0-.82-.29,1.5,1.5,0,0,0-1.19.52,2.49,2.49,0,0,0-.46,1.66,2.57,2.57,0,0,0,.44,1.67,1.43,1.43,0,0,0,1.15.52,1.35,1.35,0,0,0,1-.35A1.73,1.73,0,0,0,24.8,67.32Z"/><path d="M26.81,69.41V61.53h1V66l2.29-2.32h1.25l-2.18,2.12,2.4,3.59H30.34l-1.89-2.92-.68.66v2.26Z"/><path d="M36.42,67.57l1,.12a2.44,2.44,0,0,1-.88,1.36,3,3,0,0,1-3.62-.29,3,3,0,0,1-.73-2.16,3.15,3.15,0,0,1,.74-2.23,2.51,2.51,0,0,1,1.92-.79,2.44,2.44,0,0,1,1.87.78,3.09,3.09,0,0,1,.73,2.19c0,.06,0,.14,0,.26H33.2a2.19,2.19,0,0,0,.53,1.44,1.58,1.58,0,0,0,1.19.5,1.48,1.48,0,0,0,.91-.28A1.85,1.85,0,0,0,36.42,67.57ZM33.25,66h3.19a1.93,1.93,0,0,0-.37-1.08,1.48,1.48,0,0,0-1.2-.56,1.53,1.53,0,0,0-1.12.45A1.76,1.76,0,0,0,33.25,66Z"/><path d="M42.56,69.41v-.72a1.77,1.77,0,0,1-1.6.85,2.24,2.24,0,0,1-1.25-.37,2.48,2.48,0,0,1-.89-1.05,3.62,3.62,0,0,1-.31-1.55A4.06,4.06,0,0,1,38.79,65a2.25,2.25,0,0,1,.85-1.07,2.28,2.28,0,0,1,1.27-.37,1.9,1.9,0,0,1,1.57.78V61.53h1v7.87ZM39.5,66.56A2.48,2.48,0,0,0,40,68.2a1.39,1.39,0,0,0,1.09.54,1.37,1.37,0,0,0,1.08-.52,2.39,2.39,0,0,0,.44-1.58,2.68,2.68,0,0,0-.45-1.72A1.39,1.39,0,0,0,41,64.37a1.34,1.34,0,0,0-1.08.53A2.6,2.6,0,0,0,39.5,66.56Z"/><path d="M48.77,69.41V61.53h1v7.87Z"/><path d="M51.75,69.41V63.7h.87v.81a2.05,2.05,0,0,1,1.82-.94,2.37,2.37,0,0,1,.95.19,1.48,1.48,0,0,1,.65.49,1.87,1.87,0,0,1,.3.71,5.55,5.55,0,0,1,.05.94v3.51h-1V65.94a2.61,2.61,0,0,0-.11-.88.93.93,0,0,0-.4-.47,1.27,1.27,0,0,0-.67-.17,1.57,1.57,0,0,0-1.07.39,1.93,1.93,0,0,0-.45,1.49v3.11Z"/><path d="M60.2,68.54l.14.85a3.63,3.63,0,0,1-.73.09,1.66,1.66,0,0,1-.82-.17.93.93,0,0,1-.41-.44,3.46,3.46,0,0,1-.12-1.14V64.46h-.71V63.7h.71V62.29l1-.58v2h1v.75h-1v3.34a1.68,1.68,0,0,0,.05.53.41.41,0,0,0,.17.19.64.64,0,0,0,.33.07Z"/><path d="M65.08,68.7a3.58,3.58,0,0,1-1,.64,3,3,0,0,1-1.07.19,2.07,2.07,0,0,1-1.44-.46A1.52,1.52,0,0,1,61,67.9a1.58,1.58,0,0,1,.69-1.32,2.32,2.32,0,0,1,.7-.32,6.85,6.85,0,0,1,.86-.15A8.84,8.84,0,0,0,65,65.79c0-.13,0-.22,0-.25a1.07,1.07,0,0,0-.27-.83,1.62,1.62,0,0,0-1.1-.33,1.71,1.71,0,0,0-1,.24,1.46,1.46,0,0,0-.48.85l-.95-.13a2.34,2.34,0,0,1,.42-1,1.86,1.86,0,0,1,.85-.58,3.82,3.82,0,0,1,1.29-.2,3.42,3.42,0,0,1,1.19.17,1.56,1.56,0,0,1,.67.43,1.52,1.52,0,0,1,.3.66,5.44,5.44,0,0,1,0,.89V67A13.6,13.6,0,0,0,66,68.72a2.15,2.15,0,0,0,.24.68h-1A2.05,2.05,0,0,1,65.08,68.7ZM65,66.54a7.1,7.1,0,0,1-1.58.37,3.69,3.69,0,0,0-.84.19.84.84,0,0,0-.38.31.86.86,0,0,0,.16,1.1,1.26,1.26,0,0,0,.86.26,2,2,0,0,0,1-.25,1.5,1.5,0,0,0,.64-.67,2.33,2.33,0,0,0,.16-1Z"/><path d="M67.7,69.41V61.53h1V66L71,63.7h1.25L70,65.82l2.4,3.59H71.24l-1.89-2.92-.68.66v2.26Z"/><path d="M77.32,67.57l1,.12a2.44,2.44,0,0,1-.88,1.36,3,3,0,0,1-3.62-.29,3,3,0,0,1-.73-2.16,3.15,3.15,0,0,1,.74-2.23,2.51,2.51,0,0,1,1.92-.79,2.44,2.44,0,0,1,1.87.78,3.09,3.09,0,0,1,.73,2.19c0,.06,0,.14,0,.26H74.1a2.19,2.19,0,0,0,.53,1.44,1.58,1.58,0,0,0,1.19.5,1.48,1.48,0,0,0,.91-.28A1.85,1.85,0,0,0,77.32,67.57ZM74.15,66h3.19A1.93,1.93,0,0,0,77,64.93a1.48,1.48,0,0,0-1.2-.56,1.53,1.53,0,0,0-1.12.45A1.76,1.76,0,0,0,74.15,66Z"/><path d="M81.68,69.41l3-7.87h1.12l3.22,7.87H87.87L86.95,67H83.66l-.86,2.38ZM84,66.17h2.67L85.8,64q-.38-1-.56-1.63a10,10,0,0,1-.42,1.5Z"/><path d="M90,62.65V61.53h1v1.11Zm0,6.76V63.7h1v5.7Z"/><path d="M92.64,69.41V63.7h.87v.86a2.37,2.37,0,0,1,.61-.8,1.08,1.08,0,0,1,.62-.19,1.89,1.89,0,0,1,1,.31l-.33.9a1.38,1.38,0,0,0-.71-.21.92.92,0,0,0-.57.19,1,1,0,0,0-.36.53,3.76,3.76,0,0,0-.16,1.13v3Z"/><path d="M186.62,69.41h-1V63.25a5,5,0,0,1-.92.67,6.47,6.47,0,0,1-1,.5v-.93a5.83,5.83,0,0,0,1.42-.92A3.62,3.62,0,0,0,186,61.5h.62Z"/><path d="M202.11,66l-5.22,2.23v-1L201,65.52l-4.13-1.7v-1l5.22,2.2Z"/><path d="M4.6,83.41V75.53h3A3.66,3.66,0,0,1,9,75.77a1.86,1.86,0,0,1,.85.74,1.94,1.94,0,0,1,.31,1,1.79,1.79,0,0,1-.27,1,2,2,0,0,1-.83.72,2.07,2.07,0,0,1,1.1.71,1.91,1.91,0,0,1,.38,1.19,2.29,2.29,0,0,1-.23,1,2,2,0,0,1-.58.73,2.41,2.41,0,0,1-.86.39,5.23,5.23,0,0,1-1.27.13Zm1-4.56h1.7a3.81,3.81,0,0,0,1-.09,1.09,1.09,0,0,0,.6-.39,1.12,1.12,0,0,0,.2-.69A1.27,1.27,0,0,0,9,77a1,1,0,0,0-.54-.41,4.45,4.45,0,0,0-1.2-.11H5.64Zm0,3.64h2a4.46,4.46,0,0,0,.71,0,1.69,1.69,0,0,0,.6-.21,1.14,1.14,0,0,0,.4-.44,1.37,1.37,0,0,0,.16-.66,1.3,1.3,0,0,0-.23-.76,1.19,1.19,0,0,0-.63-.46,3.87,3.87,0,0,0-1.15-.13H5.64Z"/><path d="M12.06,83.41V75.53h1v7.87Z"/><path d="M14.38,80.56a2.94,2.94,0,0,1,.88-2.35,2.66,2.66,0,0,1,1.79-.63,2.56,2.56,0,0,1,1.92.77,2.94,2.94,0,0,1,.75,2.13,3.77,3.77,0,0,1-.33,1.73,2.34,2.34,0,0,1-1,1,2.79,2.79,0,0,1-1.38.35,2.57,2.57,0,0,1-1.94-.77A3.07,3.07,0,0,1,14.38,80.56Zm1,0a2.43,2.43,0,0,0,.48,1.64,1.59,1.59,0,0,0,2.4,0,2.49,2.49,0,0,0,.48-1.67,2.35,2.35,0,0,0-.48-1.6,1.59,1.59,0,0,0-2.4,0A2.42,2.42,0,0,0,15.38,80.56Z"/><path d="M24.8,81.32l1,.12A2.47,2.47,0,0,1,25,83a2.33,2.33,0,0,1-1.58.55,2.44,2.44,0,0,1-1.88-.77,3.1,3.1,0,0,1-.71-2.19A4,4,0,0,1,21.09,79a2.14,2.14,0,0,1,.93-1,2.77,2.77,0,0,1,1.36-.35A2.37,2.37,0,0,1,24.9,78a2.16,2.16,0,0,1,.76,1.34l-.94.14a1.56,1.56,0,0,0-.48-.87,1.23,1.23,0,0,0-.82-.29,1.5,1.5,0,0,0-1.19.52,2.49,2.49,0,0,0-.46,1.66,2.57,2.57,0,0,0,.44,1.67,1.43,1.43,0,0,0,1.15.52,1.35,1.35,0,0,0,1-.35A1.73,1.73,0,0,0,24.8,81.32Z"/><path d="M26.81,83.41V75.53h1V80l2.29-2.32h1.25l-2.18,2.12,2.4,3.59H30.34l-1.89-2.92-.68.66v2.26Z"/><path d="M36.42,81.57l1,.12a2.44,2.44,0,0,1-.88,1.36,3,3,0,0,1-3.62-.29,3,3,0,0,1-.73-2.16,3.15,3.15,0,0,1,.74-2.23,2.51,2.51,0,0,1,1.92-.79,2.44,2.44,0,0,1,1.87.78,3.09,3.09,0,0,1,.73,2.19c0,.06,0,.14,0,.26H33.2a2.19,2.19,0,0,0,.53,1.44,1.58,1.58,0,0,0,1.19.5,1.48,1.48,0,0,0,.91-.28A1.85,1.85,0,0,0,36.42,81.57ZM33.25,80h3.19a1.93,1.93,0,0,0-.37-1.08,1.48,1.48,0,0,0-1.2-.56,1.54,1.54,0,0,0-1.12.45A1.76,1.76,0,0,0,33.25,80Z"/><path d="M42.56,83.41v-.72a1.77,1.77,0,0,1-1.6.85,2.24,2.24,0,0,1-1.25-.37,2.48,2.48,0,0,1-.89-1.05,3.62,3.62,0,0,1-.31-1.55A4.06,4.06,0,0,1,38.79,79a2.25,2.25,0,0,1,.85-1.07,2.28,2.28,0,0,1,1.27-.37,1.9,1.9,0,0,1,1.57.78V75.53h1v7.87ZM39.5,80.56A2.48,2.48,0,0,0,40,82.2a1.39,1.39,0,0,0,1.09.54,1.37,1.37,0,0,0,1.08-.52,2.39,2.39,0,0,0,.44-1.58,2.68,2.68,0,0,0-.45-1.72A1.39,1.39,0,0,0,41,78.37a1.34,1.34,0,0,0-1.08.53A2.6,2.6,0,0,0,39.5,80.56Z"/><path d="M48.62,83.41V75.53h5.69v.93H49.66v2.41H54v.92H49.66v2.68h4.83v.93Z"/><path d="M55.38,83.41l2.08-3L55.54,77.7h1.21L57.62,79q.25.38.4.64l.44-.63,1-1.35h1.15l-2,2.69,2.12,3H59.54l-1.17-1.77-.31-.48-1.5,2.25Z"/><path d="M61.75,83.41V75.53h1v2.82a2.16,2.16,0,0,1,1.71-.78,2.29,2.29,0,0,1,1.1.25,1.47,1.47,0,0,1,.67.69,3.19,3.19,0,0,1,.2,1.28v3.61h-1V79.79a1.49,1.49,0,0,0-.31-1.06,1.16,1.16,0,0,0-.89-.33,1.57,1.57,0,0,0-.81.22,1.26,1.26,0,0,0-.54.6,2.78,2.78,0,0,0-.16,1.05v3.12Z"/><path d="M71.81,82.7a3.58,3.58,0,0,1-1,.64,3,3,0,0,1-1.07.19,2.07,2.07,0,0,1-1.44-.46,1.52,1.52,0,0,1-.5-1.17,1.58,1.58,0,0,1,.69-1.32,2.31,2.31,0,0,1,.7-.32,7,7,0,0,1,.86-.15,8.82,8.82,0,0,0,1.72-.33c0-.13,0-.22,0-.25a1.07,1.07,0,0,0-.27-.83,1.62,1.62,0,0,0-1.1-.33,1.7,1.7,0,0,0-1,.24,1.46,1.46,0,0,0-.48.85l-.95-.13a2.35,2.35,0,0,1,.42-1,1.87,1.87,0,0,1,.85-.57,3.8,3.8,0,0,1,1.29-.2,3.41,3.41,0,0,1,1.19.17,1.56,1.56,0,0,1,.67.43,1.52,1.52,0,0,1,.3.66,5.44,5.44,0,0,1,0,.89V81a13.6,13.6,0,0,0,.06,1.71,2.15,2.15,0,0,0,.24.68H72A2.05,2.05,0,0,1,71.81,82.7Zm-.08-2.16a7.1,7.1,0,0,1-1.58.37,3.69,3.69,0,0,0-.84.19.84.84,0,0,0-.38.31.86.86,0,0,0,.16,1.1,1.26,1.26,0,0,0,.86.26,2,2,0,0,0,1-.25,1.5,1.5,0,0,0,.64-.67,2.33,2.33,0,0,0,.16-1Z"/><path d="M78.16,83.41v-.84a2.09,2.09,0,0,1-1.81,1,2.3,2.3,0,0,1-.94-.19,1.55,1.55,0,0,1-.65-.49,1.82,1.82,0,0,1-.3-.72,4.89,4.89,0,0,1-.06-.9V77.7h1v3.16a5.62,5.62,0,0,0,.06,1,1,1,0,0,0,.39.6,1.2,1.2,0,0,0,.73.22,1.59,1.59,0,0,0,.82-.22,1.24,1.24,0,0,0,.54-.61,3,3,0,0,0,.16-1.11V77.7h1v5.7Z"/><path d="M80.37,81.71l1-.15a1.33,1.33,0,0,0,.45.88,1.56,1.56,0,0,0,1,.31,1.51,1.51,0,0,0,1-.27.81.81,0,0,0,.32-.64.59.59,0,0,0-.28-.52,4.17,4.17,0,0,0-1-.33,9,9,0,0,1-1.47-.46,1.41,1.41,0,0,1-.84-1.31,1.46,1.46,0,0,1,.17-.71,1.57,1.57,0,0,1,.48-.54,2,2,0,0,1,.62-.28,2.91,2.91,0,0,1,.83-.12,3.3,3.3,0,0,1,1.18.19,1.6,1.6,0,0,1,.75.52,2.05,2.05,0,0,1,.33.88L84,79.3a1,1,0,0,0-.37-.69,1.37,1.37,0,0,0-.87-.25,1.58,1.58,0,0,0-1,.22.64.64,0,0,0-.28.52.54.54,0,0,0,.12.34.86.86,0,0,0,.37.26l.85.25a11.85,11.85,0,0,1,1.43.45,1.45,1.45,0,0,1,.64.51,1.41,1.41,0,0,1,.23.83,1.62,1.62,0,0,1-.28.91,1.83,1.83,0,0,1-.81.66,3,3,0,0,1-1.2.23,2.68,2.68,0,0,1-1.69-.46A2.15,2.15,0,0,1,80.37,81.71Z"/><path d="M88.59,82.54l.14.85a3.63,3.63,0,0,1-.73.09,1.66,1.66,0,0,1-.82-.17.93.93,0,0,1-.41-.44,3.46,3.46,0,0,1-.12-1.14V78.46h-.71V77.7h.71V76.29l1-.58v2h1v.75h-1v3.33a1.68,1.68,0,0,0,.05.53.41.41,0,0,0,.17.19.64.64,0,0,0,.33.07Z"/><path d="M186.62,83.41h-1V77.25a5,5,0,0,1-.92.67,6.48,6.48,0,0,1-1,.5v-.94a5.8,5.8,0,0,0,1.42-.92A3.61,3.61,0,0,0,186,75.5h.62Z"/><path d="M202.11,80l-5.22,2.23v-1L201,79.52l-4.13-1.7v-1l5.22,2.2Z"/><path d="M4.67,97.41V89.53h5.69v.93H5.71v2.41h4.36v.92H5.71v2.68h4.83v.93Z"/><path d="M11.43,97.41l2.08-3L11.59,91.7H12.8L13.67,93q.25.38.4.64l.44-.63,1-1.35h1.15l-2,2.69,2.12,3H15.59l-1.17-1.77-.31-.48-1.5,2.25Z"/><path d="M19.91,96.54l.14.85a3.63,3.63,0,0,1-.73.09,1.66,1.66,0,0,1-.82-.17.93.93,0,0,1-.41-.44A3.46,3.46,0,0,1,18,95.74V92.46h-.71V91.7H18V90.29l1-.58v2h1v.75h-1v3.33a1.68,1.68,0,0,0,.05.53.41.41,0,0,0,.17.19.64.64,0,0,0,.33.07Z"/><path d="M25,95.57l1,.12a2.44,2.44,0,0,1-.88,1.36,2.63,2.63,0,0,1-1.63.48,2.61,2.61,0,0,1-2-.77,3,3,0,0,1-.73-2.16,3.15,3.15,0,0,1,.74-2.23,2.51,2.51,0,0,1,1.92-.79,2.44,2.44,0,0,1,1.87.78A3.09,3.09,0,0,1,26,94.54c0,.06,0,.14,0,.26H21.75a2.19,2.19,0,0,0,.53,1.44,1.58,1.58,0,0,0,1.19.5,1.48,1.48,0,0,0,.91-.28A1.85,1.85,0,0,0,25,95.57ZM21.81,94H25a1.93,1.93,0,0,0-.37-1.08,1.48,1.48,0,0,0-1.2-.56,1.54,1.54,0,0,0-1.12.45A1.76,1.76,0,0,0,21.81,94Z"/><path d="M27.4,97.41V91.7h.87v.86a2.36,2.36,0,0,1,.61-.8,1.08,1.08,0,0,1,.62-.19,1.89,1.89,0,0,1,1,.31l-.33.9a1.38,1.38,0,0,0-.71-.21.92.92,0,0,0-.57.19,1,1,0,0,0-.36.53,3.76,3.76,0,0,0-.16,1.13v3Z"/><path d="M31.3,97.41V91.7h.87v.81A2,2,0,0,1,34,91.58a2.35,2.35,0,0,1,.95.19,1.49,1.49,0,0,1,.65.49,1.86,1.86,0,0,1,.3.71,5.56,5.56,0,0,1,.05.94v3.51H35V93.94a2.61,2.61,0,0,0-.11-.88.94.94,0,0,0-.4-.47,1.28,1.28,0,0,0-.67-.17,1.57,1.57,0,0,0-1.07.39,1.93,1.93,0,0,0-.45,1.49v3.12Z"/><path d="M41.35,96.7a3.58,3.58,0,0,1-1,.64,3,3,0,0,1-1.07.19,2.07,2.07,0,0,1-1.44-.46,1.52,1.52,0,0,1-.5-1.17A1.58,1.58,0,0,1,38,94.58a2.31,2.31,0,0,1,.7-.32,7,7,0,0,1,.86-.15,8.82,8.82,0,0,0,1.72-.33c0-.13,0-.22,0-.25A1.07,1.07,0,0,0,41,92.7a1.62,1.62,0,0,0-1.1-.33,1.7,1.7,0,0,0-1,.24,1.46,1.46,0,0,0-.48.85l-.95-.13a2.35,2.35,0,0,1,.42-1,1.87,1.87,0,0,1,.85-.57,3.8,3.8,0,0,1,1.29-.2,3.41,3.41,0,0,1,1.19.17,1.56,1.56,0,0,1,.67.43,1.52,1.52,0,0,1,.3.66,5.44,5.44,0,0,1,0,.89V95a13.6,13.6,0,0,0,.06,1.71,2.15,2.15,0,0,0,.24.68h-1A2.05,2.05,0,0,1,41.35,96.7Zm-.08-2.16a7.1,7.1,0,0,1-1.58.37,3.69,3.69,0,0,0-.84.19.84.84,0,0,0-.38.31.86.86,0,0,0,.16,1.1,1.26,1.26,0,0,0,.86.26,2,2,0,0,0,1-.25,1.5,1.5,0,0,0,.64-.67,2.33,2.33,0,0,0,.16-1Z"/><path d="M43.95,97.41V89.53h1v7.87Z"/><path d="M50.21,97.41V89.53h1v7.87Z"/><path d="M53.19,97.41V91.7h.87v.81a2,2,0,0,1,1.82-.94,2.35,2.35,0,0,1,.95.19,1.49,1.49,0,0,1,.65.49,1.86,1.86,0,0,1,.3.71,5.56,5.56,0,0,1,.05.94v3.51h-1V93.94a2.61,2.61,0,0,0-.11-.88.94.94,0,0,0-.4-.47,1.28,1.28,0,0,0-.67-.17,1.57,1.57,0,0,0-1.07.39,1.93,1.93,0,0,0-.45,1.49v3.12Z"/><path d="M59.52,99.59V91.7h.88v.74a2.18,2.18,0,0,1,.7-.65,1.94,1.94,0,0,1,1-.22,2.26,2.26,0,0,1,1.29.38A2.32,2.32,0,0,1,64.19,93a3.87,3.87,0,0,1,.28,1.5,3.82,3.82,0,0,1-.31,1.58,2.37,2.37,0,0,1-.91,1.07,2.34,2.34,0,0,1-1.26.37,1.82,1.82,0,0,1-.87-.2,2,2,0,0,1-.63-.52v2.78Zm.88-5a2.48,2.48,0,0,0,.45,1.63,1.37,1.37,0,0,0,1.08.53A1.4,1.4,0,0,0,63,96.2a2.58,2.58,0,0,0,.46-1.69A2.52,2.52,0,0,0,63,92.87,1.35,1.35,0,0,0,62,92.33a1.39,1.39,0,0,0-1.09.58A2.58,2.58,0,0,0,60.4,94.59Z"/><path d="M69.6,97.41v-.84a2.09,2.09,0,0,1-1.81,1,2.3,2.3,0,0,1-.94-.19,1.55,1.55,0,0,1-.65-.49,1.82,1.82,0,0,1-.3-.72,4.89,4.89,0,0,1-.06-.9V91.7h1v3.16a5.62,5.62,0,0,0,.06,1,1,1,0,0,0,.39.6,1.2,1.2,0,0,0,.73.22,1.59,1.59,0,0,0,.82-.22,1.24,1.24,0,0,0,.54-.61,3,3,0,0,0,.16-1.11V91.7h1v5.7Z"/><path d="M74.31,96.54l.14.85a3.63,3.63,0,0,1-.73.09,1.66,1.66,0,0,1-.82-.17.93.93,0,0,1-.41-.44,3.46,3.46,0,0,1-.12-1.14V92.46h-.71V91.7h.71V90.29l1-.58v2h1v.75h-1v3.33a1.68,1.68,0,0,0,.05.53.41.41,0,0,0,.17.19.64.64,0,0,0,.33.07Z"/><path d="M183,93.52a7.21,7.21,0,0,1,.29-2.25,2.8,2.8,0,0,1,.85-1.31,2.18,2.18,0,0,1,1.43-.46,2.33,2.33,0,0,1,1.11.26,2.12,2.12,0,0,1,.79.74,4,4,0,0,1,.49,1.17,7.78,7.78,0,0,1,.18,1.86,7.22,7.22,0,0,1-.29,2.24,2.79,2.79,0,0,1-.85,1.32,2.4,2.4,0,0,1-3.22-.35A5.19,5.19,0,0,1,183,93.52Zm1,0a4.93,4.93,0,0,0,.45,2.58,1.3,1.3,0,0,0,2.24,0,7.56,7.56,0,0,0,0-5.16,1.35,1.35,0,0,0-1.13-.64,1.24,1.24,0,0,0-1.06.56A5,5,0,0,0,184,93.52Z"/><path d="M202.11,94l-5.22,2.23v-1L201,93.52l-4.13-1.7v-1l5.22,2.2Z"/></svg>