<svg id="Layer_1" data-name="Layer 1" xmlns="http://www.w3.org/2000/svg" viewBox="0 0 29.69 67.58"><title>UIM_at_setpoint_temperature_icon</title><path d="M24.06,41.12V37.58h3.71v-2.5H24.06V29.15h3.71v-2.5H24.06V20.73h3.71v-2.5H24.06V12.3h3.71V9.8H24.06V9.21a9.21,9.21,0,0,0-18.43,0v31.9a14.84,14.84,0,1,0,18.43,0ZM14.84,64.58A11.83,11.83,0,0,1,8,43.09l.63-.45V9.21a6.21,6.21,0,0,1,12.43,0V42.64l.63.45a11.83,11.83,0,0,1-6.84,21.49Z"/><path d="M20.39,44.92,18.81,43.8V9.41a4,4,0,0,0-7.9,0V43.8L9.31,44.92a9.59,9.59,0,1,0,11.08,0Z"/><rect x="9.85" y="9.8" width="9.94" height="2.5" style="fill:#fff"/><rect x="9.85" y="18.23" width="9.94" height="2.5" style="fill:#fff"/><rect x="9.85" y="26.65" width="9.94" height="2.5" style="fill:#fff"/><rect x="9.85" y="35.08" width="9.94" height="2.5" style="fill:#fff"/></svg>