<svg id="callouts" xmlns="http://www.w3.org/2000/svg" viewBox="0 0 319.82 167.57"><title>UIM_home_screen_components</title><g id="therm_hot" data-name="therm hot"><path d="M77.68,85.44V83.81H79.4V82.65H77.68V79.91H79.4V78.75H77.68V76H79.4V74.85H77.68V72.11H79.4V70.95H77.68v-.27a4.26,4.26,0,0,0-8.53,0V85.44a6.87,6.87,0,1,0,8.53,0ZM73.42,96.3a5.48,5.48,0,0,1-3.17-9.95l.29-.2V70.68a2.88,2.88,0,1,1,5.75,0V86.15l.29.21a5.48,5.48,0,0,1-3.17,9.95Z" transform="translate(-0.01)"/><path d="M76,87.21l-.73-.52V84.07H71.59v2.62l-.73.52a4.44,4.44,0,1,0,5.13,0Z" transform="translate(-0.01)"/></g><path d="M151.09,83.32l-.8,7.3,7.57-12.84L152,79.06l.55-6.79-7.29,12.38Zm-1.67-1.92,6.26-1.89L151.86,86l1.64-5-6.14,1.84,3.77-6.45Z" transform="translate(-0.01)"/><path d="M147.75,98.23l1.4-12.74-7.34,1.67,13-22.06-1,11.84,7.41-1.6Zm2.51-14-1.06,9.63,10.11-17.14-6.53,1.41.72-8.95-9.73,16.53Z" transform="translate(-0.01)"/><path d="M238.89,80.09c-.29-.64-.77-1.7-1.13-2.34a20.88,20.88,0,0,0-1.82-2.54c-.64-.76-1.77-2-2.55-2.73-1.43-1.34-3.21-3-3.21-3l-3-2.54.39.7a5,5,0,0,1,.5,1.28c.06.32.13.91.15,1.31a7.46,7.46,0,0,1-.13,1.62,9.54,9.54,0,0,1-.54,1.7,16.27,16.27,0,0,1-2.5,2.88,45.83,45.83,0,0,0-3.53,3.87,14.44,14.44,0,0,0-1.89,3.21,12.8,12.8,0,0,0-.59,2.41,18.18,18.18,0,0,0,0,2.27,7.14,7.14,0,0,0,.78,2.64c2.46,4.22,8.75,7.17,8.56,7l-1.15-1.11L225.55,95A15.82,15.82,0,0,1,224,93.16a12,12,0,0,1-1.28-2.35c-.62-1.75-1.23-3.74,2.49-7.1.71-.64,2-1.76,2.93-2.51a24,24,0,0,0,2.13-2,11.27,11.27,0,0,0,.85-1.17,5.16,5.16,0,0,0,.45-1,3.45,3.45,0,0,0,.12-.75v0a4.73,4.73,0,0,0,.61.73,16.43,16.43,0,0,1,1.31,1.45c.38.49.93,1.2,1.2,1.59a10.54,10.54,0,0,1,1,2,14.26,14.26,0,0,1,.67,2.58,11.75,11.75,0,0,1-1.18,7.13,15.43,15.43,0,0,1-4.71,5.89c.71-.11,3.64-1.73,6.92-5.31a12.36,12.36,0,0,0,1.41-2A12.09,12.09,0,0,0,238.89,80.09Z" transform="translate(-0.01)"/><path d="M232.46,94a10.84,10.84,0,0,0,1-3.21,9.62,9.62,0,0,0-.21-3.62,12.41,12.41,0,0,0-1.63-4.13l-.12.76a5.89,5.89,0,0,1-.46,1.42,6.05,6.05,0,0,1-1,1.33l-1.38,1.3a15.73,15.73,0,0,0-1.14,1.22,4.42,4.42,0,0,0-.67,1.22,6.72,6.72,0,0,0-.23,1.2,10.18,10.18,0,0,0,0,1.3,7.87,7.87,0,0,0,.32,1.52,7.2,7.2,0,0,0,.79,1.53c.36.52.64.92.8,1.12a4.68,4.68,0,0,0,.71.7A11.22,11.22,0,0,0,232.46,94Z" transform="translate(-0.01)"/><circle cx="265.97" cy="93.96" r="3.78"/><path d="M267.13,68.57c-3.85,0-8.65,1.06-8.9,8.35h0v0h5.63a3,3,0,1,1,5.9,0c0,1.81-1.18,2.82-3,3.27a20,20,0,0,1-3.63.59v7.33s5.91,0,5.91,0V84.74c4.1-.62,7.17-3.24,7.17-7.42A8.94,8.94,0,0,0,267.13,68.57Z" transform="translate(-0.01)"/><path d="M65.69,28.68V19.84h-3.3V18.66h7.94v1.18H67v8.84Z" transform="translate(-0.01)"/><path d="M74.72,27.78a4.59,4.59,0,0,1-1.32.82,3.8,3.8,0,0,1-1.36.24,2.64,2.64,0,0,1-1.84-.58,1.93,1.93,0,0,1-.64-1.49,2,2,0,0,1,.88-1.68,3,3,0,0,1,.89-.4,8.73,8.73,0,0,1,1.09-.18,11.25,11.25,0,0,0,2.19-.42c0-.17,0-.28,0-.32a1.36,1.36,0,0,0-.35-1.06,2.06,2.06,0,0,0-1.4-.42,2.17,2.17,0,0,0-1.28.3A1.86,1.86,0,0,0,71,23.65l-1.2-.16a3,3,0,0,1,.54-1.25,2.36,2.36,0,0,1,1.09-.73,4.85,4.85,0,0,1,1.65-.26,4.36,4.36,0,0,1,1.51.22,2,2,0,0,1,.85.55,1.94,1.94,0,0,1,.38.84A6.93,6.93,0,0,1,75.86,24v1.64a17.45,17.45,0,0,0,.08,2.17,2.74,2.74,0,0,0,.31.87H75A2.62,2.62,0,0,1,74.72,27.78ZM74.62,25a9,9,0,0,1-2,.46,4.63,4.63,0,0,0-1.07.25,1.07,1.07,0,0,0-.49.4,1.09,1.09,0,0,0,.2,1.4,1.6,1.6,0,0,0,1.09.33,2.54,2.54,0,0,0,1.26-.31,1.92,1.92,0,0,0,.81-.85,3,3,0,0,0,.2-1.23Z" transform="translate(-0.01)"/><path d="M77.77,28.68V21.42h1.11v1a2.61,2.61,0,0,1,2.31-1.2,3,3,0,0,1,1.21.24,1.9,1.9,0,0,1,.82.62,2.37,2.37,0,0,1,.38.91,7.06,7.06,0,0,1,.07,1.2v4.46H82.44V24.26a3.31,3.31,0,0,0-.14-1.12,1.18,1.18,0,0,0-.51-.59,1.62,1.62,0,0,0-.86-.22,2,2,0,0,0-1.36.5A2.46,2.46,0,0,0,79,24.71v4Z" transform="translate(-0.01)"/><path d="M85.56,28.68v-10h1.23v5.71l2.91-3H91.3l-2.78,2.69,3.06,4.57H90.06L87.66,25l-.87.83v2.88Z" transform="translate(-0.01)"/><path d="M98.9,28.68V19.84H95.6V18.66h7.94v1.18h-3.32v8.84Z" transform="translate(-0.01)"/><path d="M108.16,26.34l1.27.16a3.1,3.1,0,0,1-1.11,1.73,3.77,3.77,0,0,1-4.6-.37,3.83,3.83,0,0,1-.93-2.75,4,4,0,0,1,.94-2.84,3.19,3.19,0,0,1,2.45-1,3.1,3.1,0,0,1,2.38,1,3.94,3.94,0,0,1,.92,2.79q0,.11,0,.33h-5.41a2.79,2.79,0,0,0,.68,1.83,2,2,0,0,0,1.52.64,1.88,1.88,0,0,0,1.16-.36A2.36,2.36,0,0,0,108.16,26.34Zm-4-2h4.05a2.46,2.46,0,0,0-.46-1.37,1.89,1.89,0,0,0-1.52-.71,2,2,0,0,0-1.43.57A2.25,2.25,0,0,0,104.12,24.35Z" transform="translate(-0.01)"/><path d="M111,28.68V21.42h1.1v1a2.59,2.59,0,0,1,.91-.86,2.56,2.56,0,0,1,1.29-.32,2.39,2.39,0,0,1,1.32.33,1.79,1.79,0,0,1,.73.94,2.61,2.61,0,0,1,2.24-1.27,2.21,2.21,0,0,1,1.66.6,2.56,2.56,0,0,1,.58,1.84v5h-1.22V24.1a3.37,3.37,0,0,0-.12-1.06,1,1,0,0,0-.43-.52,1.35,1.35,0,0,0-.74-.2,1.72,1.72,0,0,0-1.27.51,2.24,2.24,0,0,0-.51,1.63v4.22h-1.23V24a2.07,2.07,0,0,0-.3-1.23,1.14,1.14,0,0,0-1-.41,1.79,1.79,0,0,0-1,.27,1.55,1.55,0,0,0-.64.8,4.5,4.5,0,0,0-.2,1.52v3.77Z" transform="translate(-0.01)"/><path d="M122.64,31.46v-10h1.12v.94a2.76,2.76,0,0,1,.9-.83,2.46,2.46,0,0,1,1.21-.28,2.87,2.87,0,0,1,1.64.48,2.94,2.94,0,0,1,1.07,1.35,4.93,4.93,0,0,1,.36,1.91,4.85,4.85,0,0,1-.4,2,3,3,0,0,1-1.16,1.37,3,3,0,0,1-1.6.48,2.31,2.31,0,0,1-1.1-.26,2.52,2.52,0,0,1-.8-.66v3.53Zm1.11-6.37a3.16,3.16,0,0,0,.57,2.07,1.74,1.74,0,0,0,1.37.67,1.78,1.78,0,0,0,1.4-.69,3.29,3.29,0,0,0,.58-2.15,3.21,3.21,0,0,0-.57-2.08,1.72,1.72,0,0,0-1.36-.69,1.77,1.77,0,0,0-1.39.73A3.29,3.29,0,0,0,123.76,25.09Z" transform="translate(-0.01)"/><path d="M135.4,26.34l1.27.16a3.1,3.1,0,0,1-1.11,1.73,3.77,3.77,0,0,1-4.6-.37,3.83,3.83,0,0,1-.93-2.75,4,4,0,0,1,.94-2.84,3.19,3.19,0,0,1,2.45-1,3.1,3.1,0,0,1,2.38,1,3.94,3.94,0,0,1,.92,2.79q0,.11,0,.33h-5.41a2.79,2.79,0,0,0,.68,1.83,2,2,0,0,0,1.52.64,1.88,1.88,0,0,0,1.16-.36A2.36,2.36,0,0,0,135.4,26.34Zm-4-2h4.05a2.46,2.46,0,0,0-.46-1.37,1.89,1.89,0,0,0-1.52-.71,2,2,0,0,0-1.43.57A2.25,2.25,0,0,0,131.36,24.35Z" transform="translate(-0.01)"/><path d="M138.2,28.68V21.42h1.11v1.1a3,3,0,0,1,.78-1,1.37,1.37,0,0,1,.79-.25,2.4,2.4,0,0,1,1.26.4l-.42,1.14a1.76,1.76,0,0,0-.9-.27,1.17,1.17,0,0,0-.72.24,1.31,1.31,0,0,0-.46.67,4.79,4.79,0,0,0-.21,1.44v3.8Z" transform="translate(-0.01)"/><path d="M147.61,27.78a4.59,4.59,0,0,1-1.32.82,3.8,3.8,0,0,1-1.36.24,2.64,2.64,0,0,1-1.84-.58,1.93,1.93,0,0,1-.64-1.49,2,2,0,0,1,.88-1.68,3,3,0,0,1,.89-.4,8.73,8.73,0,0,1,1.09-.18,11.25,11.25,0,0,0,2.19-.42c0-.17,0-.28,0-.32a1.36,1.36,0,0,0-.35-1.06,2.06,2.06,0,0,0-1.4-.42,2.17,2.17,0,0,0-1.28.3,1.86,1.86,0,0,0-.61,1.08l-1.2-.16a3,3,0,0,1,.54-1.25,2.36,2.36,0,0,1,1.09-.73,4.85,4.85,0,0,1,1.65-.26,4.36,4.36,0,0,1,1.51.22,2,2,0,0,1,.85.55,1.94,1.94,0,0,1,.38.84,6.93,6.93,0,0,1,.06,1.13v1.64a17.45,17.45,0,0,0,.08,2.17,2.74,2.74,0,0,0,.31.87h-1.29A2.62,2.62,0,0,1,147.61,27.78Zm-.1-2.75a9,9,0,0,1-2,.46,4.63,4.63,0,0,0-1.07.25,1.07,1.07,0,0,0-.49.4,1.09,1.09,0,0,0,.2,1.4,1.6,1.6,0,0,0,1.09.33,2.54,2.54,0,0,0,1.26-.31,1.92,1.92,0,0,0,.81-.85,3,3,0,0,0,.2-1.23Z" transform="translate(-0.01)"/><path d="M153.35,27.58l.18,1.09a4.57,4.57,0,0,1-.93.11,2.11,2.11,0,0,1-1-.21A1.19,1.19,0,0,1,151,28a4.41,4.41,0,0,1-.15-1.45V22.37H150v-1h.9v-1.8l1.22-.74v2.54h1.24v1h-1.24v4.25a2.14,2.14,0,0,0,.06.68.51.51,0,0,0,.21.24.82.82,0,0,0,.42.09A4,4,0,0,0,153.35,27.58Z" transform="translate(-0.01)"/><path d="M159.31,28.68V27.61a2.66,2.66,0,0,1-2.3,1.23,2.94,2.94,0,0,1-1.2-.25A2,2,0,0,1,155,28a2.32,2.32,0,0,1-.38-.91,6.24,6.24,0,0,1-.08-1.15v-4.5h1.23v4a7.16,7.16,0,0,0,.08,1.3,1.28,1.28,0,0,0,.49.76,1.52,1.52,0,0,0,.93.28,2,2,0,0,0,1-.28,1.58,1.58,0,0,0,.69-.77,3.88,3.88,0,0,0,.2-1.42V21.42h1.23v7.26Z" transform="translate(-0.01)"/><path d="M162.33,28.68V21.42h1.11v1.1a3,3,0,0,1,.78-1,1.37,1.37,0,0,1,.79-.25,2.4,2.4,0,0,1,1.26.4l-.42,1.14a1.76,1.76,0,0,0-.9-.27,1.17,1.17,0,0,0-.72.24,1.31,1.31,0,0,0-.46.67,4.79,4.79,0,0,0-.21,1.44v3.8Z" transform="translate(-0.01)"/><path d="M172,26.34l1.27.16a3.1,3.1,0,0,1-1.11,1.73,3.77,3.77,0,0,1-4.6-.37,3.83,3.83,0,0,1-.93-2.75,4,4,0,0,1,.94-2.84,3.19,3.19,0,0,1,2.45-1,3.1,3.1,0,0,1,2.38,1,3.94,3.94,0,0,1,.92,2.79q0,.11,0,.33h-5.41a2.79,2.79,0,0,0,.68,1.83,2,2,0,0,0,1.52.64,1.88,1.88,0,0,0,1.16-.36A2.36,2.36,0,0,0,172,26.34Zm-4-2H172a2.46,2.46,0,0,0-.46-1.37,1.89,1.89,0,0,0-1.52-.71,2,2,0,0,0-1.43.57A2.25,2.25,0,0,0,167.93,24.35Z" transform="translate(-0.01)"/><path d="M247.28,28.68H246V20.84a6.35,6.35,0,0,1-1.17.85,8.26,8.26,0,0,1-1.3.64V21.13a7.42,7.42,0,0,0,1.8-1.18,4.62,4.62,0,0,0,1.09-1.34h.79Z" transform="translate(-0.01)"/><path d="M250.43,23.73a9.16,9.16,0,0,1,.37-2.86,3.56,3.56,0,0,1,1.09-1.67,2.78,2.78,0,0,1,1.82-.59,3,3,0,0,1,1.42.32,2.71,2.71,0,0,1,1,.94,5,5,0,0,1,.62,1.49,9.9,9.9,0,0,1,.23,2.37,9.21,9.21,0,0,1-.36,2.85,3.55,3.55,0,0,1-1.08,1.67,2.78,2.78,0,0,1-1.82.59,2.75,2.75,0,0,1-2.28-1A6.6,6.6,0,0,1,250.43,23.73Zm1.26,0a6.28,6.28,0,0,0,.58,3.28,1.65,1.65,0,0,0,2.85,0,6.28,6.28,0,0,0,.58-3.28,6.27,6.27,0,0,0-.58-3.29,1.71,1.71,0,0,0-1.44-.81,1.58,1.58,0,0,0-1.35.72A6.36,6.36,0,0,0,251.69,23.73Z" transform="translate(-0.01)"/><path d="M258.22,26l1.23-.16a2.72,2.72,0,0,0,.72,1.51,1.78,1.78,0,0,0,1.24.46,2,2,0,0,0,1.47-.6,2,2,0,0,0,.6-1.49,1.89,1.89,0,0,0-.55-1.4,1.92,1.92,0,0,0-1.41-.55,3.53,3.53,0,0,0-.87.14l.14-1.08h.2a2.53,2.53,0,0,0,1.42-.41,1.4,1.4,0,0,0,.63-1.26,1.5,1.5,0,0,0-.46-1.12,1.63,1.63,0,0,0-1.18-.44,1.68,1.68,0,0,0-1.2.45,2.26,2.26,0,0,0-.62,1.35l-1.23-.22a3.16,3.16,0,0,1,1-1.92,3,3,0,0,1,2-.68,3.27,3.27,0,0,1,1.51.35,2.55,2.55,0,0,1,1.06,1,2.47,2.47,0,0,1,.37,1.29,2.11,2.11,0,0,1-.35,1.18,2.38,2.38,0,0,1-1,.85,2.32,2.32,0,0,1,1.38.85,2.59,2.59,0,0,1,.49,1.62,3,3,0,0,1-1,2.23,3.36,3.36,0,0,1-2.42.91,3.15,3.15,0,0,1-2.19-.79A3,3,0,0,1,258.22,26Z" transform="translate(-0.01)"/><path d="M266.3,20.38a1.9,1.9,0,1,1,.56,1.35A1.82,1.82,0,0,1,266.3,20.38Zm.75,0a1.16,1.16,0,1,0,.34-.82A1.11,1.11,0,0,0,267,20.38Z" transform="translate(-0.01)"/><path d="M272.17,28.68v-10h6.76v1.18h-5.43v3.1h4.7v1.18h-4.7v4.55Z" transform="translate(-0.01)"/><path d="M62.74,40.6a5.45,5.45,0,0,1,1.34-3.91,4.56,4.56,0,0,1,3.46-1.41,4.8,4.8,0,0,1,2.5.66,4.33,4.33,0,0,1,1.7,1.85,6,6,0,0,1,.58,2.69,5.91,5.91,0,0,1-.62,2.73A4.2,4.2,0,0,1,70,45a5,5,0,0,1-2.43.62A4.74,4.74,0,0,1,65,45a4.4,4.4,0,0,1-1.69-1.87A5.66,5.66,0,0,1,62.74,40.6Zm1.37,0a4,4,0,0,0,1,2.85,3.4,3.4,0,0,0,4.91,0,4.26,4.26,0,0,0,1-3,5.13,5.13,0,0,0-.41-2.14,3.18,3.18,0,0,0-1.21-1.42,3.28,3.28,0,0,0-1.79-.5,3.39,3.39,0,0,0-2.42,1A4.32,4.32,0,0,0,64.11,40.62Z" transform="translate(-0.01)"/><path d="M73.87,48.26v-10H75v.94a2.76,2.76,0,0,1,.9-.83,2.46,2.46,0,0,1,1.21-.28,2.87,2.87,0,0,1,1.64.48,2.94,2.94,0,0,1,1.07,1.35,4.93,4.93,0,0,1,.36,1.91,4.85,4.85,0,0,1-.4,2,3,3,0,0,1-1.16,1.37,3,3,0,0,1-1.6.48,2.31,2.31,0,0,1-1.1-.26,2.52,2.52,0,0,1-.8-.66v3.53ZM75,41.89A3.16,3.16,0,0,0,75.56,44a1.74,1.74,0,0,0,1.37.67,1.78,1.78,0,0,0,1.4-.69,3.29,3.29,0,0,0,.58-2.15,3.21,3.21,0,0,0-.57-2.08A1.72,1.72,0,0,0,77,39a1.77,1.77,0,0,0-1.39.73A3.29,3.29,0,0,0,75,41.89Z" transform="translate(-0.01)"/><path d="M86.63,43.14l1.27.16A3.1,3.1,0,0,1,86.79,45a3.77,3.77,0,0,1-4.6-.37,3.83,3.83,0,0,1-.93-2.75,4,4,0,0,1,.94-2.84,3.19,3.19,0,0,1,2.45-1A3.1,3.1,0,0,1,87,39a3.94,3.94,0,0,1,.92,2.79q0,.11,0,.33H82.52A2.79,2.79,0,0,0,83.2,44a2,2,0,0,0,1.52.64,1.88,1.88,0,0,0,1.16-.36A2.36,2.36,0,0,0,86.63,43.14Zm-4-2h4.05a2.46,2.46,0,0,0-.46-1.37,1.89,1.89,0,0,0-1.52-.71,2,2,0,0,0-1.43.57A2.25,2.25,0,0,0,82.59,41.15Z" transform="translate(-0.01)"/><path d="M89.43,45.48V38.22h1.11v1.1a3,3,0,0,1,.78-1,1.37,1.37,0,0,1,.79-.25,2.4,2.4,0,0,1,1.26.4L93,39.59a1.76,1.76,0,0,0-.9-.27,1.17,1.17,0,0,0-.72.24,1.31,1.31,0,0,0-.46.67,4.79,4.79,0,0,0-.21,1.44v3.8Z" transform="translate(-0.01)"/><path d="M98.85,44.58a4.59,4.59,0,0,1-1.32.82,3.8,3.8,0,0,1-1.36.24,2.64,2.64,0,0,1-1.84-.58,1.93,1.93,0,0,1-.64-1.49,2,2,0,0,1,.88-1.68,3,3,0,0,1,.89-.4,8.73,8.73,0,0,1,1.09-.18,11.25,11.25,0,0,0,2.19-.42c0-.17,0-.28,0-.32a1.36,1.36,0,0,0-.35-1.06,2.06,2.06,0,0,0-1.4-.42,2.17,2.17,0,0,0-1.28.3,1.86,1.86,0,0,0-.61,1.08l-1.2-.16A3,3,0,0,1,94.44,39a2.36,2.36,0,0,1,1.09-.73,4.85,4.85,0,0,1,1.65-.26,4.36,4.36,0,0,1,1.51.22,2,2,0,0,1,.85.55,1.94,1.94,0,0,1,.38.84,6.93,6.93,0,0,1,.06,1.13v1.64a17.45,17.45,0,0,0,.08,2.17,2.74,2.74,0,0,0,.31.87H99.09A2.62,2.62,0,0,1,98.85,44.58Zm-.1-2.75a9,9,0,0,1-2,.46,4.63,4.63,0,0,0-1.07.25,1.07,1.07,0,0,0-.49.4,1.09,1.09,0,0,0,.2,1.4,1.6,1.6,0,0,0,1.09.33,2.54,2.54,0,0,0,1.26-.31,1.92,1.92,0,0,0,.81-.85,3,3,0,0,0,.2-1.23Z" transform="translate(-0.01)"/><path d="M104.58,44.38l.18,1.09a4.57,4.57,0,0,1-.93.11,2.11,2.11,0,0,1-1-.21,1.19,1.19,0,0,1-.52-.56,4.41,4.41,0,0,1-.15-1.45V39.17h-.9v-1h.9v-1.8l1.22-.74v2.54h1.24v1h-1.24v4.25a2.14,2.14,0,0,0,.06.68.51.51,0,0,0,.21.24.82.82,0,0,0,.42.09A4,4,0,0,0,104.58,44.38Z" transform="translate(-0.01)"/><path d="M105.79,36.87V35.46H107v1.42Zm0,8.61V38.22H107v7.26Z" transform="translate(-0.01)"/><path d="M108.9,45.48V38.22H110v1a2.61,2.61,0,0,1,2.31-1.2,3,3,0,0,1,1.21.24,1.9,1.9,0,0,1,.82.62,2.37,2.37,0,0,1,.38.91,7.06,7.06,0,0,1,.07,1.2v4.46h-1.23V41.06a3.31,3.31,0,0,0-.14-1.12,1.18,1.18,0,0,0-.51-.59,1.62,1.62,0,0,0-.86-.22,2,2,0,0,0-1.36.5,2.46,2.46,0,0,0-.57,1.89v4Z" transform="translate(-0.01)"/><path d="M116.46,46.08l1.2.18a1.14,1.14,0,0,0,.42.81,2,2,0,0,0,1.25.34,2.2,2.2,0,0,0,1.32-.34,1.68,1.68,0,0,0,.63-1,7.86,7.86,0,0,0,.09-1.58,2.53,2.53,0,0,1-2,1A2.74,2.74,0,0,1,117,44.4a4.16,4.16,0,0,1-.82-2.59,4.82,4.82,0,0,1,.38-1.92,3,3,0,0,1,1.09-1.36,2.94,2.94,0,0,1,1.68-.48,2.6,2.6,0,0,1,2.12,1v-.87h1.13v6.28a6,6,0,0,1-.35,2.4A2.52,2.52,0,0,1,121.17,48a3.79,3.79,0,0,1-1.84.41,3.47,3.47,0,0,1-2.1-.58A2,2,0,0,1,116.46,46.08Zm1-4.36A3.15,3.15,0,0,0,118,43.8a1.87,1.87,0,0,0,2.84,0,3,3,0,0,0,.57-2,3,3,0,0,0-.59-2,1.83,1.83,0,0,0-1.43-.68,1.78,1.78,0,0,0-1.39.67A3,3,0,0,0,117.47,41.72Z" transform="translate(-0.01)"/><path d="M128.06,42.26l1.25-.11a2.76,2.76,0,0,0,.41,1.23,2.26,2.26,0,0,0,1,.78,3.82,3.82,0,0,0,1.54.3,3.68,3.68,0,0,0,1.34-.23,1.86,1.86,0,0,0,.86-.62,1.44,1.44,0,0,0,.28-.86,1.31,1.31,0,0,0-.27-.82,2,2,0,0,0-.9-.59,17.66,17.66,0,0,0-1.78-.49,9.14,9.14,0,0,1-1.93-.63,2.71,2.71,0,0,1-1.07-.93,2.29,2.29,0,0,1-.35-1.25,2.55,2.55,0,0,1,.43-1.42,2.67,2.67,0,0,1,1.26-1,4.77,4.77,0,0,1,1.84-.34,5,5,0,0,1,2,.36,2.83,2.83,0,0,1,1.31,1.06,3,3,0,0,1,.49,1.58l-1.27.1a2.05,2.05,0,0,0-.69-1.44,2.7,2.7,0,0,0-1.75-.49,2.8,2.8,0,0,0-1.75.44,1.32,1.32,0,0,0-.55,1.06,1.14,1.14,0,0,0,.39.89,5.28,5.28,0,0,0,2,.71,13.23,13.23,0,0,1,2.22.64,3,3,0,0,1,1.29,1,2.49,2.49,0,0,1,.42,1.43,2.73,2.73,0,0,1-.46,1.51,3,3,0,0,1-1.32,1.1,4.58,4.58,0,0,1-1.93.39,5.77,5.77,0,0,1-2.28-.4,3.19,3.19,0,0,1-1.44-1.19A3.38,3.38,0,0,1,128.06,42.26Z" transform="translate(-0.01)"/><path d="M142.66,43.14l1.27.16A3.1,3.1,0,0,1,142.82,45a3.77,3.77,0,0,1-4.6-.37,3.83,3.83,0,0,1-.93-2.75,4,4,0,0,1,.94-2.84,3.19,3.19,0,0,1,2.45-1,3.1,3.1,0,0,1,2.38,1,3.94,3.94,0,0,1,.92,2.79q0,.11,0,.33h-5.41a2.79,2.79,0,0,0,.68,1.83,2,2,0,0,0,1.52.64,1.88,1.88,0,0,0,1.16-.36A2.36,2.36,0,0,0,142.66,43.14Zm-4-2h4.05a2.46,2.46,0,0,0-.46-1.37,1.89,1.89,0,0,0-1.52-.71,2,2,0,0,0-1.43.57A2.25,2.25,0,0,0,138.62,41.15Z" transform="translate(-0.01)"/><path d="M148.17,44.38l.18,1.09a4.57,4.57,0,0,1-.93.11,2.11,2.11,0,0,1-1-.21,1.19,1.19,0,0,1-.52-.56,4.41,4.41,0,0,1-.15-1.45V39.17h-.9v-1h.9v-1.8l1.22-.74v2.54h1.24v1h-1.24v4.25a2.14,2.14,0,0,0,.06.68.51.51,0,0,0,.21.24.82.82,0,0,0,.42.09A4,4,0,0,0,148.17,44.38Z" transform="translate(-0.01)"/><path d="M153.42,45.48v-10h3.78a9.11,9.11,0,0,1,1.52.1A3,3,0,0,1,160,36a2.46,2.46,0,0,1,.8,1,3.26,3.26,0,0,1-.51,3.53,3.9,3.9,0,0,1-2.94.89h-2.57v4.07Zm1.33-5.26h2.59a2.75,2.75,0,0,0,1.83-.48,1.71,1.71,0,0,0,.54-1.35,1.81,1.81,0,0,0-.32-1.08,1.49,1.49,0,0,0-.84-.59,5.68,5.68,0,0,0-1.24-.09h-2.56Z" transform="translate(-0.01)"/><path d="M162.14,41.85a3.74,3.74,0,0,1,1.12-3,3.38,3.38,0,0,1,2.28-.81A3.26,3.26,0,0,1,168,39a3.73,3.73,0,0,1,1,2.71,4.8,4.8,0,0,1-.42,2.2,3,3,0,0,1-1.22,1.25,3.56,3.56,0,0,1-1.75.44,3.26,3.26,0,0,1-2.46-1A3.91,3.91,0,0,1,162.14,41.85Zm1.26,0a3.09,3.09,0,0,0,.61,2.09,2,2,0,0,0,3.06,0,3.16,3.16,0,0,0,.61-2.13,3,3,0,0,0-.61-2,2,2,0,0,0-3.05,0A3.08,3.08,0,0,0,163.41,41.85Z" transform="translate(-0.01)"/><path d="M170.39,36.87V35.46h1.23v1.42Zm0,8.61V38.22h1.23v7.26Z" transform="translate(-0.01)"/><path d="M173.49,45.48V38.22h1.11v1a2.61,2.61,0,0,1,2.31-1.2,3,3,0,0,1,1.21.24,1.9,1.9,0,0,1,.82.62,2.37,2.37,0,0,1,.38.91,7.06,7.06,0,0,1,.07,1.2v4.46h-1.23V41.06a3.31,3.31,0,0,0-.14-1.12,1.18,1.18,0,0,0-.51-.59,1.62,1.62,0,0,0-.86-.22,2,2,0,0,0-1.36.5,2.46,2.46,0,0,0-.57,1.89v4Z" transform="translate(-0.01)"/><path d="M184,44.38l.18,1.09a4.57,4.57,0,0,1-.93.11,2.11,2.11,0,0,1-1-.21,1.19,1.19,0,0,1-.52-.56,4.41,4.41,0,0,1-.15-1.45V39.17h-.9v-1h.9v-1.8l1.22-.74v2.54H184v1h-1.24v4.25a2.14,2.14,0,0,0,.06.68.51.51,0,0,0,.21.24.82.82,0,0,0,.42.09A4,4,0,0,0,184,44.38Z" transform="translate(-0.01)"/><path d="M247.28,45.48H246V37.64a6.35,6.35,0,0,1-1.17.85,8.26,8.26,0,0,1-1.3.64V37.93a7.42,7.42,0,0,0,1.8-1.18,4.62,4.62,0,0,0,1.09-1.34h.79Z" transform="translate(-0.01)"/><path d="M256.9,44.29v1.18h-6.62a2.19,2.19,0,0,1,.14-.85,4.53,4.53,0,0,1,.81-1.33,12.72,12.72,0,0,1,1.61-1.52A13.65,13.65,0,0,0,255,39.65a2.54,2.54,0,0,0,.57-1.48,1.64,1.64,0,0,0-.52-1.23,1.88,1.88,0,0,0-1.36-.5,1.92,1.92,0,0,0-1.42.53,2,2,0,0,0-.54,1.48l-1.26-.13a3.11,3.11,0,0,1,1-2.16,3.33,3.33,0,0,1,2.28-.74,3.18,3.18,0,0,1,2.28.8,2.63,2.63,0,0,1,.84,2,3,3,0,0,1-.25,1.18,4.58,4.58,0,0,1-.82,1.22,19.88,19.88,0,0,1-1.9,1.76q-1.11.93-1.42,1.26a4,4,0,0,0-.52.67Z" transform="translate(-0.01)"/><path d="M258.22,40.53a9.16,9.16,0,0,1,.37-2.86A3.56,3.56,0,0,1,259.67,36a2.78,2.78,0,0,1,1.82-.59,3,3,0,0,1,1.42.32,2.71,2.71,0,0,1,1,.94,5,5,0,0,1,.62,1.49,9.9,9.9,0,0,1,.23,2.37,9.21,9.21,0,0,1-.36,2.85,3.55,3.55,0,0,1-1.08,1.67,2.78,2.78,0,0,1-1.82.59,2.75,2.75,0,0,1-2.28-1A6.6,6.6,0,0,1,258.22,40.53Zm1.26,0a6.28,6.28,0,0,0,.58,3.28,1.65,1.65,0,0,0,2.85,0,6.28,6.28,0,0,0,.58-3.28,6.27,6.27,0,0,0-.58-3.29,1.71,1.71,0,0,0-1.44-.81,1.58,1.58,0,0,0-1.35.72A6.36,6.36,0,0,0,259.48,40.53Z" transform="translate(-0.01)"/><path d="M266.3,37.18a1.9,1.9,0,1,1,.56,1.35A1.82,1.82,0,0,1,266.3,37.18Zm.75,0a1.16,1.16,0,1,0,.34-.82A1.11,1.11,0,0,0,267,37.18Z" transform="translate(-0.01)"/><path d="M272.17,45.48v-10h6.76v1.18h-5.43v3.1h4.7v1.18h-4.7v4.55Z" transform="translate(-0.01)"/><path d="M62.42,55.24l.71-.06a1.58,1.58,0,0,0,.24.71,1.29,1.29,0,0,0,.58.45,2.18,2.18,0,0,0,.88.17,2.11,2.11,0,0,0,.77-.13,1.06,1.06,0,0,0,.49-.35.82.82,0,0,0,.16-.49.75.75,0,0,0-.16-.47,1.16,1.16,0,0,0-.52-.34,10.1,10.1,0,0,0-1-.28,5.23,5.23,0,0,1-1.11-.36,1.55,1.55,0,0,1-.61-.53,1.31,1.31,0,0,1-.2-.71,1.46,1.46,0,0,1,.25-.81,1.52,1.52,0,0,1,.72-.57,2.72,2.72,0,0,1,1.05-.2,2.87,2.87,0,0,1,1.12.21,1.62,1.62,0,0,1,.75.6,1.74,1.74,0,0,1,.28.9l-.73.05a1.17,1.17,0,0,0-.4-.82,1.54,1.54,0,0,0-1-.28,1.6,1.6,0,0,0-1,.25.76.76,0,0,0-.31.61.65.65,0,0,0,.22.51,3,3,0,0,0,1.14.41,7.56,7.56,0,0,1,1.27.37,1.73,1.73,0,0,1,.74.58,1.42,1.42,0,0,1,.24.81,1.56,1.56,0,0,1-.26.86,1.72,1.72,0,0,1-.75.63,2.62,2.62,0,0,1-1.1.22,3.3,3.3,0,0,1-1.3-.23,1.83,1.83,0,0,1-.82-.68A1.93,1.93,0,0,1,62.42,55.24Z" transform="translate(-0.01)"/><path d="M69.46,56.45l.1.62a2.62,2.62,0,0,1-.53.06,1.2,1.2,0,0,1-.59-.12.68.68,0,0,1-.3-.32,2.52,2.52,0,0,1-.09-.83V53.48h-.52v-.55h.52v-1l.7-.42v1.45h.71v.55h-.71V55.9a1.22,1.22,0,0,0,0,.39.29.29,0,0,0,.12.14.47.47,0,0,0,.24.05Z" transform="translate(-0.01)"/><path d="M72.86,56.56a2.63,2.63,0,0,1-.75.47,2.17,2.17,0,0,1-.78.14,1.51,1.51,0,0,1-1.05-.33,1.1,1.1,0,0,1-.37-.85,1.16,1.16,0,0,1,.5-1,1.71,1.71,0,0,1,.51-.23,5,5,0,0,1,.63-.11,6.43,6.43,0,0,0,1.25-.24c0-.1,0-.16,0-.18a.78.78,0,0,0-.2-.61,1.18,1.18,0,0,0-.8-.24,1.24,1.24,0,0,0-.73.17,1.06,1.06,0,0,0-.35.62L70,54.11a1.71,1.71,0,0,1,.31-.71A1.35,1.35,0,0,1,71,53a2.77,2.77,0,0,1,.94-.15,2.49,2.49,0,0,1,.86.13,1.14,1.14,0,0,1,.49.31,1.11,1.11,0,0,1,.22.48,4,4,0,0,1,0,.65v.94a10,10,0,0,0,0,1.24,1.56,1.56,0,0,0,.18.5H73A1.5,1.5,0,0,1,72.86,56.56ZM72.8,55a5.16,5.16,0,0,1-1.15.27,2.64,2.64,0,0,0-.61.14.61.61,0,0,0-.28.23.62.62,0,0,0,.12.8.92.92,0,0,0,.62.19,1.45,1.45,0,0,0,.72-.18,1.1,1.1,0,0,0,.46-.49,1.69,1.69,0,0,0,.11-.7Z" transform="translate(-0.01)"/><path d="M76.13,56.45l.1.62a2.62,2.62,0,0,1-.53.06,1.2,1.2,0,0,1-.59-.12.68.68,0,0,1-.3-.32,2.52,2.52,0,0,1-.09-.83V53.48h-.52v-.55h.52v-1l.7-.42v1.45h.71v.55h-.71V55.9a1.22,1.22,0,0,0,0,.39.29.29,0,0,0,.12.14.47.47,0,0,0,.24.05Z" transform="translate(-0.01)"/><path d="M79.54,57.08v-.61a1.52,1.52,0,0,1-1.32.7,1.68,1.68,0,0,1-.69-.14,1.13,1.13,0,0,1-.47-.35,1.32,1.32,0,0,1-.22-.52,3.56,3.56,0,0,1,0-.66V52.93h.7v2.3a4.08,4.08,0,0,0,0,.74.73.73,0,0,0,.28.44.87.87,0,0,0,.53.16A1.16,1.16,0,0,0,79,56.4a.9.9,0,0,0,.39-.44,2.22,2.22,0,0,0,.12-.81V52.93h.7v4.15Z" transform="translate(-0.01)"/><path d="M81,55.84l.7-.11a1,1,0,0,0,.33.64,1.14,1.14,0,0,0,.75.22,1.1,1.1,0,0,0,.72-.2.59.59,0,0,0,.23-.46.43.43,0,0,0-.21-.37,3,3,0,0,0-.72-.24A6.56,6.56,0,0,1,81.71,55a1,1,0,0,1-.61-1,1.07,1.07,0,0,1,.13-.51,1.13,1.13,0,0,1,.35-.39,1.46,1.46,0,0,1,.45-.21,2.12,2.12,0,0,1,.61-.08,2.4,2.4,0,0,1,.86.14,1.17,1.17,0,0,1,.54.38,1.49,1.49,0,0,1,.24.64l-.69.09a.75.75,0,0,0-.27-.5,1,1,0,0,0-.63-.18,1.15,1.15,0,0,0-.69.16.47.47,0,0,0-.21.38.39.39,0,0,0,.09.25.62.62,0,0,0,.27.19l.62.18a8.68,8.68,0,0,1,1,.33,1.05,1.05,0,0,1,.46.37,1,1,0,0,1,.17.6,1.18,1.18,0,0,1-.21.66,1.33,1.33,0,0,1-.59.48,2.15,2.15,0,0,1-.87.17,2,2,0,0,1-1.23-.34A1.56,1.56,0,0,1,81,55.84Z" transform="translate(-0.01)"/><path d="M85.46,53.73v-.8h.8v.8Zm0,3.35v-.8h.8v.8Z" transform="translate(-0.01)"/><path d="M89.83,57.08V51.35h.76V53.7h3V51.35h.76v5.73h-.76v-2.7h-3v2.7Z" transform="translate(-0.01)"/><path d="M98.33,55.74l.73.09a1.77,1.77,0,0,1-.64,1,2.16,2.16,0,0,1-2.63-.21A2.19,2.19,0,0,1,95.26,55a2.29,2.29,0,0,1,.54-1.62,1.83,1.83,0,0,1,1.4-.58,1.77,1.77,0,0,1,1.36.57A2.25,2.25,0,0,1,99.08,55s0,.1,0,.19H96a1.59,1.59,0,0,0,.39,1,1.15,1.15,0,0,0,.87.36,1.08,1.08,0,0,0,.66-.2A1.35,1.35,0,0,0,98.33,55.74ZM96,54.6h2.32a1.4,1.4,0,0,0-.27-.79,1.08,1.08,0,0,0-.87-.41,1.12,1.12,0,0,0-.81.32A1.28,1.28,0,0,0,96,54.6Z" transform="translate(-0.01)"/><path d="M102.65,56.56a2.63,2.63,0,0,1-.75.47,2.17,2.17,0,0,1-.78.14,1.51,1.51,0,0,1-1.05-.33A1.1,1.1,0,0,1,99.7,56a1.16,1.16,0,0,1,.5-1,1.71,1.71,0,0,1,.51-.23,5,5,0,0,1,.63-.11,6.43,6.43,0,0,0,1.25-.24c0-.1,0-.16,0-.18a.78.78,0,0,0-.2-.61,1.18,1.18,0,0,0-.8-.24,1.24,1.24,0,0,0-.73.17,1.06,1.06,0,0,0-.35.62l-.69-.09a1.71,1.71,0,0,1,.31-.71,1.35,1.35,0,0,1,.62-.42,2.77,2.77,0,0,1,.94-.15,2.49,2.49,0,0,1,.86.13,1.14,1.14,0,0,1,.49.31,1.11,1.11,0,0,1,.22.48,4,4,0,0,1,0,.65v.94a10,10,0,0,0,0,1.24,1.56,1.56,0,0,0,.18.5h-.73A1.5,1.5,0,0,1,102.65,56.56ZM102.59,55a5.16,5.16,0,0,1-1.15.27,2.64,2.64,0,0,0-.61.14.61.61,0,0,0-.28.23.62.62,0,0,0,.12.8.92.92,0,0,0,.62.19,1.45,1.45,0,0,0,.72-.18,1.1,1.1,0,0,0,.46-.49,1.69,1.69,0,0,0,.11-.7Z" transform="translate(-0.01)"/><path d="M105.93,56.45l.1.62a2.62,2.62,0,0,1-.53.06,1.2,1.2,0,0,1-.59-.12.68.68,0,0,1-.3-.32,2.52,2.52,0,0,1-.09-.83V53.48H104v-.55h.52v-1l.7-.42v1.45h.71v.55h-.71V55.9a1.22,1.22,0,0,0,0,.39.29.29,0,0,0,.12.14.47.47,0,0,0,.24.05Z" transform="translate(-0.01)"/><path d="M106.62,52.16v-.81h.7v.81Zm0,4.92V52.93h.7v4.15Z" transform="translate(-0.01)"/><path d="M108.39,57.08V52.93H109v.59a1.49,1.49,0,0,1,1.32-.68A1.73,1.73,0,0,1,111,53a1.08,1.08,0,0,1,.47.35,1.36,1.36,0,0,1,.22.52,4,4,0,0,1,0,.68v2.55h-.7V54.55a1.89,1.89,0,0,0-.08-.64.68.68,0,0,0-.29-.34.93.93,0,0,0-.49-.13,1.14,1.14,0,0,0-.78.29,1.41,1.41,0,0,0-.33,1.08v2.27Z" transform="translate(-0.01)"/><path d="M112.71,57.42l.68.1a.65.65,0,0,0,.24.46,1.17,1.17,0,0,0,.71.2,1.25,1.25,0,0,0,.75-.2,1,1,0,0,0,.36-.55,4.49,4.49,0,0,0,.05-.9,1.45,1.45,0,0,1-1.15.54,1.57,1.57,0,0,1-1.32-.62,2.38,2.38,0,0,1-.47-1.48,2.76,2.76,0,0,1,.21-1.1,1.72,1.72,0,0,1,.62-.78,1.68,1.68,0,0,1,1-.27,1.49,1.49,0,0,1,1.21.59v-.5h.65v3.59a3.4,3.4,0,0,1-.2,1.37,1.44,1.44,0,0,1-.62.64,2.17,2.17,0,0,1-1.05.23,2,2,0,0,1-1.2-.33A1.13,1.13,0,0,1,112.71,57.42Zm.58-2.49a1.8,1.8,0,0,0,.32,1.19,1,1,0,0,0,.81.38,1,1,0,0,0,.81-.37,1.74,1.74,0,0,0,.33-1.17,1.7,1.7,0,0,0-.34-1.15,1,1,0,0,0-.81-.39,1,1,0,0,0-.8.38A1.69,1.69,0,0,0,113.29,54.93Z" transform="translate(-0.01)"/><circle cx="185.67" cy="85.84" r="11.79" style="fill:#fff;stroke:#000"/><polygon points="196.09 85.31 193.28 87.91 193.28 82.5 196.09 85.31"/><path d="M179.48,85.73v-.84h2.18v2a2.76,2.76,0,0,1-.92.54,3.35,3.35,0,0,1-1.22.23,2.74,2.74,0,0,1-1.37-.33,2.09,2.09,0,0,1-.88-.94,3,3,0,0,1-.29-1.33,2.89,2.89,0,0,1,.33-1.39,2.21,2.21,0,0,1,1-.93,2.6,2.6,0,0,1,1.2-.25,2.4,2.4,0,0,1,1.46.39A1.77,1.77,0,0,1,181.6,84l-1,.19a1.06,1.06,0,0,0-.4-.58,1.2,1.2,0,0,0-.73-.21,1.37,1.37,0,0,0-1.05.42A1.77,1.77,0,0,0,178,85a2,2,0,0,0,.4,1.34,1.32,1.32,0,0,0,1,.45,1.74,1.74,0,0,0,.64-.12,2.16,2.16,0,0,0,.55-.3v-.63Z" transform="translate(-0.01)"/><path d="M187.12,87.57H186l-.44-1.14h-2l-.41,1.14h-1.07l2-5h1.07Zm-1.86-2-.69-1.86-.68,1.86Z" transform="translate(-0.01)"/><path d="M187.4,85.94l1-.1a1.21,1.21,0,0,0,.36.73,1.09,1.09,0,0,0,.73.23,1.13,1.13,0,0,0,.74-.21.62.62,0,0,0,.25-.48.46.46,0,0,0-.1-.3.83.83,0,0,0-.36-.22l-.81-.22a2.76,2.76,0,0,1-1.14-.5,1.31,1.31,0,0,1-.46-1,1.29,1.29,0,0,1,.22-.72,1.35,1.35,0,0,1,.63-.51,2.51,2.51,0,0,1,1-.17,2.12,2.12,0,0,1,1.42.41,1.46,1.46,0,0,1,.5,1.1l-1,0a.86.86,0,0,0-.28-.56,1,1,0,0,0-.64-.17,1.16,1.16,0,0,0-.69.18.37.37,0,0,0-.16.31.38.38,0,0,0,.15.3,2.67,2.67,0,0,0,.93.34,4.85,4.85,0,0,1,1.09.36,1.4,1.4,0,0,1,.55.51,1.58,1.58,0,0,1,0,1.61,1.43,1.43,0,0,1-.68.56,2.84,2.84,0,0,1-1.09.18,2.17,2.17,0,0,1-1.46-.44A1.91,1.91,0,0,1,187.4,85.94Z" transform="translate(-0.01)"/><path d="M179,70.77a3.19,3.19,0,0,1,.23-1.29,2.37,2.37,0,0,1,.47-.69,2,2,0,0,1,.65-.45,2.76,2.76,0,0,1,1.08-.2,2.35,2.35,0,0,1,1.77.69,3.07,3.07,0,0,1,0,3.81,2.63,2.63,0,0,1-3.54,0A2.59,2.59,0,0,1,179,70.77Zm1,0a1.87,1.87,0,0,0,.39,1.29,1.35,1.35,0,0,0,2,0,1.92,1.92,0,0,0,.39-1.31,1.88,1.88,0,0,0-.38-1.29,1.4,1.4,0,0,0-2,0A1.9,1.9,0,0,0,180,70.73Z" transform="translate(-0.01)"/><path d="M184.65,73.24v-5h3.44v.85h-2.42v1.19h2.09v.85h-2.09v2.13Z" transform="translate(-0.01)"/><path d="M188.93,73.24v-5h3.44v.85h-2.42v1.19H192v.85h-2.09v2.13Z" transform="translate(-0.01)"/><path d="M199.1,81.89a3.18,3.18,0,0,1,.23-1.29,2.35,2.35,0,0,1,.47-.69,2,2,0,0,1,.65-.45,2.75,2.75,0,0,1,1.08-.2,2.35,2.35,0,0,1,1.77.69,3.07,3.07,0,0,1,0,3.81,2.63,2.63,0,0,1-3.54,0A2.59,2.59,0,0,1,199.1,81.89Zm1,0a1.88,1.88,0,0,0,.39,1.29,1.35,1.35,0,0,0,2,0,1.92,1.92,0,0,0,.39-1.31,1.89,1.89,0,0,0-.38-1.29,1.4,1.4,0,0,0-2,0A1.89,1.89,0,0,0,200.14,81.85Z" transform="translate(-0.01)"/><path d="M199.51,90.69v-5h1L202.55,89V85.68h.94v5h-1l-2-3.27v3.27Z" transform="translate(-0.01)"/><rect x="58.26" y="0.5" width="224.67" height="129.31" style="fill:none;stroke:#000"/><rect x="59.14" y="0.64" width="223.38" height="14.46" style="stroke:#000"/><path d="M251.51,118.7v-7.87h.65v3.23h2.56v-3.23h.65v7.87h-.65V115h-2.56v3.71Z" transform="translate(-0.01)"/><path d="M257,118.7v-7.87h3.57v.93h-2.91v2.41h2.73v.92h-2.73v2.68h3v.93Z" transform="translate(-0.01)"/><path d="M262.13,118.7v-7.87h.65v6.94h2.43v.93Z" transform="translate(-0.01)"/><path d="M266.54,118.7v-7.87h1.86a2.88,2.88,0,0,1,.75.08,1.23,1.23,0,0,1,.61.37,2,2,0,0,1,.4.76,3.66,3.66,0,0,1,.15,1.07,3.36,3.36,0,0,1-.4,1.7,1.52,1.52,0,0,1-1.45.7H267.2v3.2Zm.65-4.13h1.28a1,1,0,0,0,.9-.37,1.81,1.81,0,0,0,.27-1.06,2.09,2.09,0,0,0-.16-.85.85.85,0,0,0-.41-.46,1.77,1.77,0,0,0-.61-.07H267.2Z" transform="translate(-0.01)"/><path d="M70.56,118.7v-7.87h1l1.17,5.58q.16.78.24,1.17.08-.43.26-1.26l1.18-5.48h.88v7.87h-.63v-6.59L73.2,118.7h-.59L71.19,112v6.7Z" transform="translate(-0.01)"/><path d="M76.88,118.7v-7.87h3.57v.93H77.54v2.41h2.73v.92H77.54v2.68h3v.93Z" transform="translate(-0.01)"/><path d="M82,118.7v-7.87h.67L85.27,117v-6.18h.63v7.87h-.67l-2.59-6.19v6.19Z" transform="translate(-0.01)"/><path d="M90.78,110.83h.65v4.55a8.41,8.41,0,0,1-.17,1.88,2.34,2.34,0,0,1-.61,1.14,1.56,1.56,0,0,1-1.15.44,1.67,1.67,0,0,1-1.13-.38,2.12,2.12,0,0,1-.63-1.1,8.16,8.16,0,0,1-.19-2v-4.55h.65v4.54a6.92,6.92,0,0,0,.12,1.51,1.45,1.45,0,0,0,.41.75,1,1,0,0,0,.71.26,1.09,1.09,0,0,0,1-.52,4.42,4.42,0,0,0,.31-2Z" transform="translate(-0.01)"/><rect x="58.3" y="101.87" width="44.92" height="27.98" style="fill:none;stroke:#000;stroke-linecap:round;stroke-linejoin:round;stroke-width:0.9753649999999999px"/><rect x="238.04" y="101.87" width="44.92" height="27.98" style="fill:none;stroke:#000;stroke-linecap:round;stroke-linejoin:round;stroke-width:0.9753649999999999px"/><polygon points="148.34 129.84 103.42 129.84 103.42 101.87 148.34 101.87 193.13 101.87 238.05 101.87 238.05 129.84 193.13 129.84 148.34 129.84" style="fill:none;stroke:#000;stroke-linecap:round;stroke-linejoin:round;stroke-width:0.9753649999999999px"/><line x1="9.82" y1="19.07" x2="46.87" y2="35.03" style="fill:none;stroke:#000;stroke-width:1.5px"/><path d="M50.74,35A64.77,64.77,0,0,1,46,30.56l-3,6.95a59.35,59.35,0,0,1,6.47.35,44.35,44.35,0,0,1,6.69,1.2A44.45,44.45,0,0,1,50.74,35Z" transform="translate(-0.01)"/><line x1="117.09" y1="156.07" x2="127.2" y2="156.07" style="fill:none;stroke:#000;stroke-width:1.5px"/><path d="M130.76,154.54c-2.48-.75-4.09-1.44-6.08-2.24v7.57a59.11,59.11,0,0,1,6.08-2.24,44.24,44.24,0,0,1,6.62-1.55A44.43,44.43,0,0,1,130.76,154.54Z" transform="translate(-0.01)"/><line x1="13.32" y1="68.07" x2="61.9" y2="79.98" style="fill:none;stroke:#000;stroke-width:1.5px"/><path d="M65.72,79.33C63.49,78,62.09,77,60.35,75.71l-1.8,7.35A59.39,59.39,0,0,1,65,82.33a44.31,44.31,0,0,1,6.8.07A44.39,44.39,0,0,1,65.72,79.33Z" transform="translate(-0.01)"/><rect x="139.11" y="145.07" width="65.02" height="22" style="fill:none;stroke:#000;stroke-linejoin:round"/><rect x="147.69" y="151" width="47.88" height="10.15" style="fill:none;stroke:#000;stroke-linejoin:round"/><polyline points="13.32 68.07 80.72 62.6 91.32 67.74" style="fill:none;stroke:#000;stroke-linecap:round;stroke-linejoin:round;stroke-width:1.5px"/><path d="M95.19,67.9c-1.9-1.76-3.05-3.08-4.5-4.67L87.39,70a59.4,59.4,0,0,1,6.45.64,44.32,44.32,0,0,1,6.63,1.5A44.49,44.49,0,0,1,95.19,67.9Z" transform="translate(-0.01)"/><path d="M124.35,90.77a5.69,5.69,0,0,0,.57-1.88,10,10,0,0,0,0-1.74,5.06,5.06,0,0,0-.44-1.39,6,6,0,0,0-1-1.28,10.63,10.63,0,0,0-1.3-1.06,9.27,9.27,0,0,0-1.38-.74,6.54,6.54,0,0,0-1.31-.36c-.34,0-.87-.1-1.19-.11a5.64,5.64,0,0,0-1.42.19l-.33.1a4.93,4.93,0,0,0-.56-3,1.66,1.66,0,0,1,.22-.23,2.89,2.89,0,0,1,.58-.33c.2-.08.6-.23.89-.32a6.28,6.28,0,0,1,1.11-.21l1.8-.12a9.53,9.53,0,0,0,1.9-.3,4,4,0,0,0,1.18-.65,6.72,6.72,0,0,0,.82-.87,3.39,3.39,0,0,0,.48-1,3.65,3.65,0,0,0,0-1.31,6,6,0,0,0-.53-1.42,7.3,7.3,0,0,0-.91-1.26,13.29,13.29,0,0,0-1.31-1.14,17.18,17.18,0,0,0-1.64-1.07,5.7,5.7,0,0,0-1.88-.57,9.94,9.94,0,0,0-1.74,0,5.15,5.15,0,0,0-1.39.44,6.18,6.18,0,0,0-1.28,1,11.1,11.1,0,0,0-1.05,1.29,9.41,9.41,0,0,0-.74,1.39,6.59,6.59,0,0,0-.36,1.31c0,.34-.1.87-.11,1.19a5.73,5.73,0,0,0,.19,1.42,2.93,2.93,0,0,0,.11.33,5,5,0,0,0-3,.55,1.53,1.53,0,0,1-.23-.22,2.71,2.71,0,0,1-.33-.58c-.09-.2-.23-.6-.31-.88a6.14,6.14,0,0,1-.2-1.11c0-.33-.08-1.13-.11-1.8a9.77,9.77,0,0,0-.29-1.91,4.15,4.15,0,0,0-.64-1.18,6.87,6.87,0,0,0-.87-.83,3.44,3.44,0,0,0-1-.49,3.66,3.66,0,0,0-1.31,0,6.05,6.05,0,0,0-1.42.53,7.24,7.24,0,0,0-1.26.91,12.9,12.9,0,0,0-1.15,1.31,17,17,0,0,0-1.07,1.63,5.68,5.68,0,0,0-.58,1.88,9.83,9.83,0,0,0,0,1.74,5.12,5.12,0,0,0,.44,1.4,6.08,6.08,0,0,0,1,1.28,10.63,10.63,0,0,0,1.29,1.06,9.47,9.47,0,0,0,1.38.74,6.53,6.53,0,0,0,1.31.36c.34,0,.87.1,1.19.12a5.71,5.71,0,0,0,1.42-.19l.33-.1a4.94,4.94,0,0,0,.58,3.05,1.48,1.48,0,0,1-.21.23,2.82,2.82,0,0,1-.57.34c-.2.09-.6.23-.88.32a6.21,6.21,0,0,1-1.11.22l-1.8.14a9.61,9.61,0,0,0-1.9.32,4.19,4.19,0,0,0-1.17.66,7.07,7.07,0,0,0-.82.88,3.46,3.46,0,0,0-.47,1.05,3.62,3.62,0,0,0,0,1.3,6,6,0,0,0,.55,1.41A7.06,7.06,0,0,0,100,92.4a13.33,13.33,0,0,0,1.32,1.13A17.22,17.22,0,0,0,103,94.58a5.69,5.69,0,0,0,1.88.55,9.92,9.92,0,0,0,1.74,0,5,5,0,0,0,1.39-.45,6.07,6.07,0,0,0,1.27-1,10.86,10.86,0,0,0,1-1.3A9.33,9.33,0,0,0,111,91a6.57,6.57,0,0,0,.35-1.31c0-.34.09-.88.1-1.19a5.57,5.57,0,0,0-.2-1.42,3,3,0,0,0-.11-.33,4.94,4.94,0,0,0,3-.56,1.45,1.45,0,0,1,.23.22,2.71,2.71,0,0,1,.33.57c.09.2.23.6.32.88a6.28,6.28,0,0,1,.21,1.11c0,.32.08,1.13.12,1.8a9.76,9.76,0,0,0,.3,1.91,4.23,4.23,0,0,0,.65,1.18,7.12,7.12,0,0,0,.87.83,3.39,3.39,0,0,0,1,.48,3.62,3.62,0,0,0,1.31,0,6,6,0,0,0,1.42-.53,7.22,7.22,0,0,0,1.26-.91,13,13,0,0,0,1.14-1.31A17.24,17.24,0,0,0,124.35,90.77Zm-14.83-6a3.68,3.68,0,1,1,5.15-.72A3.68,3.68,0,0,1,109.51,84.81Z" transform="translate(-0.01)"/><circle cx="111.73" cy="81.88" r="2.23" transform="translate(-20.96 121.69) rotate(-52.94)"/><path d="M114.54,68.71l.12-1a24.83,24.83,0,0,0-6.91.39l.2,1A24.16,24.16,0,0,1,114.54,68.71Z" transform="translate(-0.01)"/><path d="M108.86,71.07l.13.75a20.61,20.61,0,0,1,3.31-.3v-.77A20.93,20.93,0,0,0,108.86,71.07Z" transform="translate(-0.01)"/><path d="M124.87,84.79l1,.13a24.77,24.77,0,0,0-.33-6.92l-1,.19A24.23,24.23,0,0,1,124.87,84.79Z" transform="translate(-0.01)"/><path d="M121.8,79.22a20.67,20.67,0,0,1,.27,3.31h.77a21.42,21.42,0,0,0-.28-3.44Z" transform="translate(-0.01)"/><path d="M108.86,95l-.12,1a24.73,24.73,0,0,0,6.91-.36l-.2-1A24.21,24.21,0,0,1,108.86,95Z" transform="translate(-0.01)"/><path d="M114.54,92.7l-.13-.76a20.16,20.16,0,0,1-3.31.29V93A21.17,21.17,0,0,0,114.54,92.7Z" transform="translate(-0.01)"/><path d="M98.53,79.24l-1-.1A24.75,24.75,0,0,0,98,86l1-.22A24.24,24.24,0,0,1,98.53,79.24Z" transform="translate(-0.01)"/><path d="M101.71,84.74a20.41,20.41,0,0,1-.34-3.31h-.77a21.22,21.22,0,0,0,.35,3.44Z" transform="translate(-0.01)"/><rect x="123.28" y="88.27" width="10.42" height="10.67" style="fill:#fff"/><path d="M122.65,87.68V99.52h11.42V87.68Zm.93,10.87v-9.9h9.22l-5.31,5.27-2-2L124,93.2l3.19,3.3,5.91-5.88v7.94Z" transform="translate(-0.01)"/><ellipse cx="8.33" cy="18.82" rx="7.83" ry="7.65" style="fill:#fff;stroke:#231f20;stroke-linecap:round;stroke-miterlimit:10"/><path d="M8.8,22.66H7.75V15.94a5.45,5.45,0,0,1-1,.73,7.08,7.08,0,0,1-1.11.54v-1a6.37,6.37,0,0,0,1.55-1A4,4,0,0,0,8.12,14H8.8Z" transform="translate(-0.01)" style="fill:#231f20"/><ellipse cx="12.66" cy="68.16" rx="7.83" ry="7.65" style="fill:#fff;stroke:#231f20;stroke-linecap:round;stroke-miterlimit:10"/><path d="M14.7,71v1H9a1.87,1.87,0,0,1,.12-.73,3.87,3.87,0,0,1,.69-1.14,10.88,10.88,0,0,1,1.38-1.3A11.7,11.7,0,0,0,13.12,67a2.18,2.18,0,0,0,.49-1.27,1.41,1.41,0,0,0-.45-1.06A1.62,1.62,0,0,0,12,64.25a1.65,1.65,0,0,0-1.22.46A1.73,1.73,0,0,0,10.31,66l-1.08-.11A2.67,2.67,0,0,1,10.06,64a2.86,2.86,0,0,1,2-.64,2.72,2.72,0,0,1,2,.69,2.25,2.25,0,0,1,.72,1.7,2.58,2.58,0,0,1-.21,1,3.93,3.93,0,0,1-.7,1,17.06,17.06,0,0,1-1.63,1.51q-.95.8-1.22,1.08a3.47,3.47,0,0,0-.45.57Z" transform="translate(-0.01)" style="fill:#231f20"/><line x1="15.65" y1="116.24" x2="44.05" y2="116.24" style="fill:none;stroke:#000;stroke-width:1.5px"/><polygon points="41.79 119.55 54.15 116.24 41.79 112.93 41.79 119.55"/><ellipse cx="15.16" cy="116.32" rx="7.83" ry="7.65" style="fill:#fff;stroke:#231f20;stroke-linecap:round;stroke-miterlimit:10"/><path d="M11.67,117.9l1.05-.14a2.32,2.32,0,0,0,.62,1.29,1.53,1.53,0,0,0,1.06.4,1.7,1.7,0,0,0,1.26-.52,1.74,1.74,0,0,0,.51-1.28,1.62,1.62,0,0,0-.47-1.2,1.64,1.64,0,0,0-1.21-.47,3,3,0,0,0-.74.12l.12-.93H14a2.17,2.17,0,0,0,1.21-.35,1.2,1.2,0,0,0,.54-1.08,1.28,1.28,0,0,0-.39-1,1.39,1.39,0,0,0-1-.38,1.44,1.44,0,0,0-1,.39,1.94,1.94,0,0,0-.53,1.16l-1.05-.19a2.71,2.71,0,0,1,.88-1.64,2.54,2.54,0,0,1,1.71-.58,2.81,2.81,0,0,1,1.29.3,2.18,2.18,0,0,1,.91.82,2.11,2.11,0,0,1,.31,1.11,1.81,1.81,0,0,1-.3,1,2,2,0,0,1-.88.73,2,2,0,0,1,1.18.73,2.22,2.22,0,0,1,.42,1.39,2.54,2.54,0,0,1-.82,1.91,2.89,2.89,0,0,1-2.07.78,2.7,2.7,0,0,1-1.88-.67A2.61,2.61,0,0,1,11.67,117.9Z" transform="translate(-0.01)" style="fill:#231f20"/><ellipse cx="109.49" cy="156.99" rx="7.83" ry="7.65" style="fill:#fff;stroke:#231f20;stroke-linecap:round;stroke-miterlimit:10"/><path d="M109.38,160.83v-2.06h-3.73v-1l3.92-5.57h.86v5.57h1.16v1h-1.16v2.06Zm0-3v-3.87l-2.69,3.87Z" transform="translate(-0.01)" style="fill:#231f20"/><line x1="311.32" y1="52.91" x2="289.51" y2="18.09" style="fill:none;stroke:#000;stroke-width:1.5px"/><polygon points="293.88 18.26 283.65 8.74 287.75 22.1 293.88 18.26"/><ellipse cx="311.49" cy="52.99" rx="7.83" ry="7.65" style="fill:#fff;stroke:#231f20;stroke-linecap:round;stroke-miterlimit:10"/><path d="M308,54.58l1.11-.09a2,2,0,0,0,.57,1.22,1.55,1.55,0,0,0,1.08.41,1.68,1.68,0,0,0,1.29-.57,2.16,2.16,0,0,0,.53-1.52,2,2,0,0,0-.51-1.42,1.77,1.77,0,0,0-1.33-.52,1.84,1.84,0,0,0-.92.23,1.79,1.79,0,0,0-.64.6l-1-.13.83-4.41h4.27v1h-3.43l-.46,2.31a2.8,2.8,0,0,1,1.62-.54,2.57,2.57,0,0,1,1.9.78,2.72,2.72,0,0,1,.77,2,3.13,3.13,0,0,1-.68,2,2.72,2.72,0,0,1-2.26,1,2.78,2.78,0,0,1-1.91-.66A2.56,2.56,0,0,1,308,54.58Z" transform="translate(-0.01)" style="fill:#231f20"/></svg>