<svg id="Layer_1" data-name="Layer 1" xmlns="http://www.w3.org/2000/svg" viewBox="0 0 225.68 130.33"><title>UIM_main_menu</title><rect x="0.5" y="0.5" width="224.67" height="129.31" style="fill:none;stroke:#000"/><rect x="1.37" y="0.64" width="223.81" height="14.46" style="stroke:#000"/><rect x="0.49" y="101.87" width="224.67" height="27.94" style="fill:none"/><path d="M86.17,11V3.84h1.5l1.78,5.07q.25.71.36,1.06.13-.39.4-1.15l1.8-5h1.34V11h-1V5L90.2,11h-.9L87.13,4.91V11Z" style="fill:#fff"/><path d="M98.65,10.36a3.46,3.46,0,0,1-1,.59,3,3,0,0,1-1,.17,2,2,0,0,1-1.38-.42,1.35,1.35,0,0,1-.48-1.07,1.36,1.36,0,0,1,.18-.7,1.46,1.46,0,0,1,.48-.51,2.3,2.3,0,0,1,.66-.29A7,7,0,0,1,96.93,8a8.79,8.79,0,0,0,1.65-.3c0-.12,0-.2,0-.23a.94.94,0,0,0-.26-.76,1.6,1.6,0,0,0-1.05-.3,1.69,1.69,0,0,0-1,.22,1.32,1.32,0,0,0-.46.77l-.9-.12a2.08,2.08,0,0,1,.41-.89,1.78,1.78,0,0,1,.82-.52A3.8,3.8,0,0,1,97.4,5.7a3.42,3.42,0,0,1,1.13.16,1.5,1.5,0,0,1,.64.39,1.35,1.35,0,0,1,.29.6,4.71,4.71,0,0,1,0,.81V8.83a11.92,11.92,0,0,0,.06,1.55,1.9,1.9,0,0,0,.23.62h-1A1.79,1.79,0,0,1,98.65,10.36Zm-.08-2a7.06,7.06,0,0,1-1.51.33,3.65,3.65,0,0,0-.81.18.79.79,0,0,0-.36.29.72.72,0,0,0-.13.42.73.73,0,0,0,.28.59,1.24,1.24,0,0,0,.82.23,2,2,0,0,0,.95-.22,1.4,1.4,0,0,0,.61-.61,2,2,0,0,0,.15-.88Z" style="fill:#fff"/><path d="M101.2,4.85v-1h.92v1Zm0,6.15V5.81h.92V11Z" style="fill:#fff"/><path d="M103.79,11V5.81h.83v.74a2,2,0,0,1,1.73-.85,2.37,2.37,0,0,1,.9.17,1.42,1.42,0,0,1,.62.44,1.65,1.65,0,0,1,.29.65,4.8,4.8,0,0,1,.05.85V11h-.92V7.84a2.25,2.25,0,0,0-.11-.8.86.86,0,0,0-.38-.42,1.26,1.26,0,0,0-.64-.16,1.54,1.54,0,0,0-1,.36,1.71,1.71,0,0,0-.43,1.35V11Z" style="fill:#fff"/><path d="M113.16,11V3.84h1.5l1.78,5.07q.25.71.36,1.06.13-.39.4-1.15l1.8-5h1.34V11h-1V5l-2.18,6h-.9l-2.17-6.09V11Z" style="fill:#fff"/><path d="M125.81,9.33l1,.11a2.21,2.21,0,0,1-.84,1.24,2.6,2.6,0,0,1-1.56.44,2.56,2.56,0,0,1-1.89-.7,2.66,2.66,0,0,1-.7-2,2.78,2.78,0,0,1,.71-2,2.46,2.46,0,0,1,1.84-.72,2.39,2.39,0,0,1,1.78.71,2.73,2.73,0,0,1,.69,2q0,.08,0,.23h-4.06a1.94,1.94,0,0,0,.51,1.31,1.55,1.55,0,0,0,1.14.45,1.46,1.46,0,0,0,.87-.25A1.69,1.69,0,0,0,125.81,9.33Zm-3-1.42h3a1.71,1.71,0,0,0-.35-1,1.44,1.44,0,0,0-1.14-.51,1.51,1.51,0,0,0-1.07.41A1.56,1.56,0,0,0,122.78,7.91Z" style="fill:#fff"/><path d="M128.19,11V5.81H129v.74a2,2,0,0,1,1.73-.85,2.37,2.37,0,0,1,.9.17,1.42,1.42,0,0,1,.62.44,1.65,1.65,0,0,1,.29.65,4.81,4.81,0,0,1,.05.85V11h-.92V7.84a2.25,2.25,0,0,0-.11-.8.86.86,0,0,0-.38-.42,1.26,1.26,0,0,0-.64-.16,1.54,1.54,0,0,0-1,.36,1.71,1.71,0,0,0-.43,1.35V11Z" style="fill:#fff"/><path d="M137.86,11v-.76a2,2,0,0,1-1.73.88,2.3,2.3,0,0,1-.9-.18,1.48,1.48,0,0,1-.62-.44,1.62,1.62,0,0,1-.28-.65,4.21,4.21,0,0,1-.06-.82V5.81h.92V8.69a4.84,4.84,0,0,0,.06.93.91.91,0,0,0,.37.54,1.18,1.18,0,0,0,.7.2,1.58,1.58,0,0,0,.78-.2,1.15,1.15,0,0,0,.51-.55,2.63,2.63,0,0,0,.15-1V5.81h.92V11Z" style="fill:#fff"/><rect x="0.53" y="101.87" width="44.92" height="27.98" style="fill:none"/><rect x="45.65" y="101.87" width="44.92" height="27.98" style="fill:none"/><rect x="90.57" y="101.87" width="44.92" height="27.98" style="fill:none;stroke:#000;stroke-linecap:round;stroke-linejoin:round;stroke-width:0.9753649999999999px"/><rect x="180.23" y="101.87" width="44.92" height="27.98" style="fill:none;stroke:#000;stroke-linecap:round;stroke-linejoin:round;stroke-width:0.9753649999999999px"/><rect x="135.36" y="101.87" width="44.92" height="27.98" style="fill:none"/><rect x="2.78" y="17.42" width="204.89" height="16.39" style="fill:#fff"/><line x1="0.53" y1="101.87" x2="225.04" y2="101.87" style="fill:none;stroke:#000;stroke-linecap:round;stroke-linejoin:round;stroke-width:0.9753649999999999px"/><path d="M193.64,118.84V111h.65v3.23h2.56V111h.65v7.87h-.65v-3.71h-2.56v3.71Z"/><path d="M199.16,118.84V111h3.57v.93h-2.91v2.41h2.73v.92h-2.73v2.68h3v.93Z"/><path d="M204.27,118.84V111h.65v6.94h2.43v.93Z"/><path d="M208.68,118.84V111h1.86a2.82,2.82,0,0,1,.75.08,1.22,1.22,0,0,1,.61.37,2,2,0,0,1,.4.76,3.66,3.66,0,0,1,.15,1.07,3.36,3.36,0,0,1-.4,1.7,1.53,1.53,0,0,1-1.45.7h-1.26v3.2Zm.65-4.13h1.27a1,1,0,0,0,.9-.38,1.81,1.81,0,0,0,.27-1.06,2.07,2.07,0,0,0-.16-.85.84.84,0,0,0-.41-.46,1.76,1.76,0,0,0-.61-.07h-1.26Z"/><path d="M102.71,118.84V111h1.85a1.38,1.38,0,0,1,1.44,1,2.84,2.84,0,0,1,.19,1,2.61,2.61,0,0,1-.17,1,1.66,1.66,0,0,1-.52.72,1.43,1.43,0,0,1,.69.71,2.74,2.74,0,0,1,.24,1.19,3.48,3.48,0,0,1-.15,1,2.11,2.11,0,0,1-.36.73,1.35,1.35,0,0,1-.54.39,2.11,2.11,0,0,1-.79.13Zm.65-4.57h1.07a1.52,1.52,0,0,0,.62-.09.77.77,0,0,0,.38-.39,1.65,1.65,0,0,0,.13-.69,1.86,1.86,0,0,0-.12-.69.73.73,0,0,0-.34-.41,1.81,1.81,0,0,0-.75-.11h-1Zm0,3.64h1.23a1.82,1.82,0,0,0,.44,0,.86.86,0,0,0,.38-.21,1.1,1.1,0,0,0,.25-.44,2.06,2.06,0,0,0,.1-.66,1.89,1.89,0,0,0-.14-.76.89.89,0,0,0-.39-.46,1.58,1.58,0,0,0-.72-.13h-1.14Z"/><path d="M107.34,118.84l1.89-7.87h.7l2,7.87h-.74l-.58-2.38h-2.06l-.54,2.38Zm1.42-3.23h1.67l-.51-2.18q-.24-1-.35-1.63a14.92,14.92,0,0,1-.27,1.5Z"/><path d="M116.55,116.08l.65.26a4.21,4.21,0,0,1-.74,2,1.61,1.61,0,0,1-1.3.67,1.72,1.72,0,0,1-1.3-.52,3.38,3.38,0,0,1-.76-1.5,8.2,8.2,0,0,1-.26-2.11,7,7,0,0,1,.29-2.15,3,3,0,0,1,.84-1.39,1.78,1.78,0,0,1,1.2-.48,1.56,1.56,0,0,1,1.24.6,3.59,3.59,0,0,1,.7,1.69l-.64.24a2.84,2.84,0,0,0-.5-1.25,1,1,0,0,0-.82-.39,1.22,1.22,0,0,0-1,.44,2.54,2.54,0,0,0-.54,1.17,7.28,7.28,0,0,0-.16,1.51,7.44,7.44,0,0,0,.18,1.75,2.26,2.26,0,0,0,.57,1.12,1.19,1.19,0,0,0,.84.37,1.13,1.13,0,0,0,.93-.5A3.22,3.22,0,0,0,116.55,116.08Z"/><path d="M118.53,118.84V111h.65v3.9l2.45-3.9h.88l-2.07,3.19,2.16,4.68h-.86l-1.76-4-.81,1.26v2.73Z"/><rect x="209.68" y="83.2" width="15.48" height="18.65" style="fill:none;stroke:#000;stroke-width:0.9753649999999999px"/><polygon points="210.46 92.12 217.43 99.08 224.37 92.12 210.46 92.12"/><rect x="209.68" y="15.08" width="15.48" height="18.65" style="fill:none;stroke:#000;stroke-width:0.9753649999999999px"/><rect x="210.23" y="35.39" width="13.56" height="35.65"/><polygon points="224.4 24.93 217.43 17.97 210.48 24.93 224.4 24.93"/><path d="M7,29.79v-9H3.44v-1.2h8.48v1.2H8.38v9Z"/><path d="M17.38,27.42l1.36.16a3.14,3.14,0,0,1-1.19,1.76,3.7,3.7,0,0,1-2.22.63,3.64,3.64,0,0,1-2.7-1,3.78,3.78,0,0,1-1-2.8,4,4,0,0,1,1-2.89,3.5,3.5,0,0,1,2.61-1,3.4,3.4,0,0,1,2.54,1,3.89,3.89,0,0,1,1,2.84q0,.11,0,.33H13a2.76,2.76,0,0,0,.72,1.86,2.2,2.2,0,0,0,1.62.65,2.08,2.08,0,0,0,1.23-.36A2.4,2.4,0,0,0,17.38,27.42Zm-4.31-2h4.33a2.43,2.43,0,0,0-.5-1.4,2.06,2.06,0,0,0-1.63-.72,2.14,2.14,0,0,0-1.52.58A2.23,2.23,0,0,0,13.06,25.39Z"/><path d="M20.91,29.79V22.41h1.17v1a2.71,2.71,0,0,1,1-.87,2.83,2.83,0,0,1,1.38-.33,2.65,2.65,0,0,1,1.41.34,1.84,1.84,0,0,1,.78,1A2.81,2.81,0,0,1,29,22.25a2.43,2.43,0,0,1,1.77.61,2.52,2.52,0,0,1,.62,1.87v5.07H30.1V25.14A3.27,3.27,0,0,0,30,24.06a1.06,1.06,0,0,0-.46-.53,1.5,1.5,0,0,0-.79-.2,1.88,1.88,0,0,0-1.36.52,2.21,2.21,0,0,0-.54,1.66v4.29H25.51V25a2,2,0,0,0-.32-1.25,1.24,1.24,0,0,0-1.05-.42,2,2,0,0,0-1,.28,1.6,1.6,0,0,0-.68.81A4.37,4.37,0,0,0,22.22,26v3.83Z"/><path d="M33.88,32.62V22.41h1.2v1a2.9,2.9,0,0,1,1-.84,2.74,2.74,0,0,1,1.29-.28,3.18,3.18,0,0,1,1.75.49,3,3,0,0,1,1.15,1.37A4.8,4.8,0,0,1,40.61,26a4.73,4.73,0,0,1-.43,2,3.11,3.11,0,0,1-1.24,1.39,3.3,3.3,0,0,1-1.71.48A2.58,2.58,0,0,1,36,29.7a2.66,2.66,0,0,1-.86-.67v3.59Zm1.19-6.48a3.1,3.1,0,0,0,.61,2.11,1.89,1.89,0,0,0,1.47.68,1.93,1.93,0,0,0,1.5-.71A3.23,3.23,0,0,0,39.26,26a3.15,3.15,0,0,0-.61-2.11,1.87,1.87,0,0,0-1.46-.7,1.92,1.92,0,0,0-1.49.75A3.23,3.23,0,0,0,35.07,26.15Z"/><path d="M48,27.42l1.36.16a3.14,3.14,0,0,1-1.19,1.76A3.7,3.7,0,0,1,46,30a3.64,3.64,0,0,1-2.7-1,3.78,3.78,0,0,1-1-2.8,4,4,0,0,1,1-2.89,3.5,3.5,0,0,1,2.61-1,3.4,3.4,0,0,1,2.54,1,3.89,3.89,0,0,1,1,2.84q0,.11,0,.33H43.63a2.76,2.76,0,0,0,.72,1.86,2.2,2.2,0,0,0,1.62.65,2.08,2.08,0,0,0,1.23-.36A2.4,2.4,0,0,0,48,27.42Zm-4.31-2H48a2.43,2.43,0,0,0-.5-1.4,2.06,2.06,0,0,0-1.63-.72,2.14,2.14,0,0,0-1.52.58A2.23,2.23,0,0,0,43.71,25.39Z"/><path d="M51.53,29.79V22.41h1.18v1.12a3.07,3.07,0,0,1,.84-1,1.51,1.51,0,0,1,.84-.25,2.66,2.66,0,0,1,1.35.4l-.45,1.16a2,2,0,0,0-1-.27,1.29,1.29,0,0,0-.77.25,1.33,1.33,0,0,0-.49.68,4.66,4.66,0,0,0-.22,1.46v3.86Z"/><path d="M62.11,28.88a4.94,4.94,0,0,1-1.4.83,4.24,4.24,0,0,1-1.45.24,2.91,2.91,0,0,1-2-.59,1.92,1.92,0,0,1-.69-1.52,2,2,0,0,1,.26-1,2.08,2.08,0,0,1,.68-.72,3.27,3.27,0,0,1,.95-.41,10,10,0,0,1,1.17-.19A12.57,12.57,0,0,0,62,25.11q0-.26,0-.33a1.34,1.34,0,0,0-.37-1.08,2.28,2.28,0,0,0-1.5-.42,2.41,2.41,0,0,0-1.37.31,1.87,1.87,0,0,0-.65,1.09l-1.28-.17a3,3,0,0,1,.58-1.27,2.54,2.54,0,0,1,1.16-.74,5.41,5.41,0,0,1,1.76-.26,4.86,4.86,0,0,1,1.61.22,2.14,2.14,0,0,1,.91.56,1.93,1.93,0,0,1,.41.85A6.71,6.71,0,0,1,63.32,25V26.7a16.91,16.91,0,0,0,.08,2.21,2.7,2.7,0,0,0,.33.89H62.37A2.55,2.55,0,0,1,62.11,28.88ZM62,26.09a10,10,0,0,1-2.15.47,5.17,5.17,0,0,0-1.15.25,1.13,1.13,0,0,0-.52.41,1,1,0,0,0-.18.59,1,1,0,0,0,.4.83,1.77,1.77,0,0,0,1.16.33,2.82,2.82,0,0,0,1.35-.32,2,2,0,0,0,.87-.87A2.89,2.89,0,0,0,62,26.55Z"/><path d="M68.75,28.67l.19,1.11a5.14,5.14,0,0,1-1,.11,2.34,2.34,0,0,1-1.11-.22,1.23,1.23,0,0,1-.55-.57,4.27,4.27,0,0,1-.16-1.48V23.39h-1v-1h1V20.59l1.31-.75v2.58h1.32v1H67.43V27.7a2.08,2.08,0,0,0,.07.69.53.53,0,0,0,.23.24.91.91,0,0,0,.45.09A4.44,4.44,0,0,0,68.75,28.67Z"/><path d="M75.64,29.79V28.71A2.88,2.88,0,0,1,73.18,30a3.26,3.26,0,0,1-1.28-.25,2.1,2.1,0,0,1-.88-.63,2.29,2.29,0,0,1-.41-.93A6,6,0,0,1,70.53,27V22.41h1.31v4.09a7,7,0,0,0,.08,1.32,1.3,1.3,0,0,0,.53.77,1.69,1.69,0,0,0,1,.28,2.24,2.24,0,0,0,1.11-.29,1.63,1.63,0,0,0,.73-.79,3.78,3.78,0,0,0,.21-1.44v-4h1.31v7.38Z"/><path d="M79.38,29.79V22.41h1.18v1.12a3.07,3.07,0,0,1,.84-1,1.51,1.51,0,0,1,.84-.25,2.66,2.66,0,0,1,1.35.4l-.45,1.16a2,2,0,0,0-1-.27,1.29,1.29,0,0,0-.77.25,1.33,1.33,0,0,0-.49.68,4.66,4.66,0,0,0-.22,1.46v3.86Z"/><path d="M90.2,27.42l1.36.16a3.14,3.14,0,0,1-1.19,1.76,3.7,3.7,0,0,1-2.22.63,3.64,3.64,0,0,1-2.7-1,3.78,3.78,0,0,1-1-2.8,4,4,0,0,1,1-2.89,3.5,3.5,0,0,1,2.61-1,3.4,3.4,0,0,1,2.54,1,3.89,3.89,0,0,1,1,2.84q0,.11,0,.33H85.81a2.76,2.76,0,0,0,.72,1.86,2.2,2.2,0,0,0,1.62.65,2.08,2.08,0,0,0,1.23-.36A2.4,2.4,0,0,0,90.2,27.42Zm-4.31-2h4.33a2.43,2.43,0,0,0-.5-1.4,2.06,2.06,0,0,0-1.63-.72,2.14,2.14,0,0,0-1.52.58A2.23,2.23,0,0,0,85.89,25.39Z"/><path d="M93.2,27.59l1.3-.19a1.7,1.7,0,0,0,.61,1.14,2.2,2.2,0,0,0,1.4.4,2.13,2.13,0,0,0,1.34-.35,1,1,0,0,0,.44-.82.75.75,0,0,0-.39-.67,5.88,5.88,0,0,0-1.34-.42,12.7,12.7,0,0,1-2-.6,1.92,1.92,0,0,1-.85-.7,1.8,1.8,0,0,1-.29-1,1.83,1.83,0,0,1,.24-.91,2.05,2.05,0,0,1,.65-.7,2.79,2.79,0,0,1,.84-.37,4.18,4.18,0,0,1,1.13-.15,4.68,4.68,0,0,1,1.6.25,2.18,2.18,0,0,1,1,.68,2.57,2.57,0,0,1,.45,1.14l-1.28.17a1.32,1.32,0,0,0-.51-.89,1.92,1.92,0,0,0-1.19-.32,2.23,2.23,0,0,0-1.29.29.82.82,0,0,0-.39.67.67.67,0,0,0,.16.44,1.16,1.16,0,0,0,.5.33q.2.07,1.16.32a16.83,16.83,0,0,1,1.94.58,2,2,0,0,1,.86.66,1.77,1.77,0,0,1,.31,1.07,2,2,0,0,1-.38,1.18,2.45,2.45,0,0,1-1.11.85,4.2,4.2,0,0,1-1.63.3,3.78,3.78,0,0,1-2.3-.6A2.75,2.75,0,0,1,93.2,27.59Z"/><path d="M197.47,25.34l-7.09,2.88V27L196,24.76l-5.61-2.2V21.32l7.09,2.85Z"/><path d="M4.29,45.79V35.61H5.7v4.18h5.56V35.61h1.42V45.79H11.26V41H5.7v4.8Z"/><path d="M20.7,43.42l1.36.16a3.14,3.14,0,0,1-1.19,1.76,3.7,3.7,0,0,1-2.22.63A3.64,3.64,0,0,1,16,45a3.78,3.78,0,0,1-1-2.8,4,4,0,0,1,1-2.89,3.5,3.5,0,0,1,2.61-1,3.4,3.4,0,0,1,2.54,1,3.89,3.89,0,0,1,1,2.84q0,.11,0,.33H16.31A2.76,2.76,0,0,0,17,44.29a2.2,2.2,0,0,0,1.62.65,2.08,2.08,0,0,0,1.23-.36A2.4,2.4,0,0,0,20.7,43.42Zm-4.31-2h4.33a2.43,2.43,0,0,0-.5-1.4,2.06,2.06,0,0,0-1.63-.72,2.14,2.14,0,0,0-1.52.58A2.23,2.23,0,0,0,16.38,41.39Z"/><path d="M29.28,44.88a4.94,4.94,0,0,1-1.4.83,4.24,4.24,0,0,1-1.45.24,2.91,2.91,0,0,1-2-.59,1.92,1.92,0,0,1-.69-1.52,2,2,0,0,1,.26-1,2.08,2.08,0,0,1,.68-.72,3.27,3.27,0,0,1,.95-.41,10,10,0,0,1,1.17-.19,12.57,12.57,0,0,0,2.34-.43q0-.26,0-.33a1.34,1.34,0,0,0-.37-1.08,2.28,2.28,0,0,0-1.5-.42,2.41,2.41,0,0,0-1.37.31,1.87,1.87,0,0,0-.65,1.09L24,40.52a3,3,0,0,1,.58-1.27,2.54,2.54,0,0,1,1.16-.74,5.41,5.41,0,0,1,1.76-.26,4.86,4.86,0,0,1,1.61.22A2.14,2.14,0,0,1,30,39a1.93,1.93,0,0,1,.41.85A6.71,6.71,0,0,1,30.5,41V42.7a16.91,16.91,0,0,0,.08,2.21,2.7,2.7,0,0,0,.33.89H29.55A2.55,2.55,0,0,1,29.28,44.88Zm-.11-2.79a10,10,0,0,1-2.15.47,5.17,5.17,0,0,0-1.15.25,1.13,1.13,0,0,0-.52.41,1,1,0,0,0-.18.59,1,1,0,0,0,.4.83,1.77,1.77,0,0,0,1.16.33,2.82,2.82,0,0,0,1.35-.32A2,2,0,0,0,29,43.8a2.89,2.89,0,0,0,.21-1.25Z"/><path d="M35.93,44.67l.19,1.11a5.14,5.14,0,0,1-1,.11A2.34,2.34,0,0,1,34,45.68a1.23,1.23,0,0,1-.55-.57,4.27,4.27,0,0,1-.16-1.48V39.39h-1v-1h1V36.59l1.31-.75v2.58h1.32v1H34.61V43.7a2.08,2.08,0,0,0,.07.69.53.53,0,0,0,.23.24.91.91,0,0,0,.45.09A4.44,4.44,0,0,0,35.93,44.67Z"/><path d="M43,43.42l1.36.16a3.14,3.14,0,0,1-1.19,1.76A3.7,3.7,0,0,1,41,46a3.64,3.64,0,0,1-2.7-1,3.78,3.78,0,0,1-1-2.8,4,4,0,0,1,1-2.89,3.5,3.5,0,0,1,2.61-1,3.4,3.4,0,0,1,2.54,1,3.89,3.89,0,0,1,1,2.84q0,.11,0,.33H38.66a2.76,2.76,0,0,0,.72,1.86,2.2,2.2,0,0,0,1.62.65,2.08,2.08,0,0,0,1.23-.36A2.4,2.4,0,0,0,43,43.42Zm-4.31-2h4.33a2.43,2.43,0,0,0-.5-1.4,2.06,2.06,0,0,0-1.63-.72,2.14,2.14,0,0,0-1.52.58A2.23,2.23,0,0,0,38.73,41.39Z"/><path d="M46.56,45.79V38.41h1.18v1.12a3.07,3.07,0,0,1,.84-1,1.51,1.51,0,0,1,.84-.25,2.66,2.66,0,0,1,1.35.4l-.45,1.16a2,2,0,0,0-1-.27,1.29,1.29,0,0,0-.77.25,1.33,1.33,0,0,0-.49.68,4.66,4.66,0,0,0-.22,1.46v3.86Z"/><path d="M56.43,42.52l1.34-.11a2.72,2.72,0,0,0,.44,1.25,2.4,2.4,0,0,0,1.08.79,4.25,4.25,0,0,0,1.64.3,4.11,4.11,0,0,0,1.43-.23,2,2,0,0,0,.92-.63,1.41,1.41,0,0,0,.3-.87,1.28,1.28,0,0,0-.29-.84,2.17,2.17,0,0,0-1-.6,19.6,19.6,0,0,0-1.9-.5,10.08,10.08,0,0,1-2.07-.64,2.86,2.86,0,0,1-1.14-.95,2.24,2.24,0,0,1-.38-1.27,2.5,2.5,0,0,1,.46-1.44,2.83,2.83,0,0,1,1.34-1,5.32,5.32,0,0,1,2-.35,5.6,5.6,0,0,1,2.1.36,2.92,2.92,0,0,1,1.92,2.68l-1.36.1a2.05,2.05,0,0,0-.74-1.46,3,3,0,0,0-1.86-.49,3.1,3.1,0,0,0-1.87.45,1.33,1.33,0,0,0-.59,1.08,1.14,1.14,0,0,0,.42.9,5.83,5.83,0,0,0,2.13.73,14.66,14.66,0,0,1,2.37.65,3.22,3.22,0,0,1,1.38,1,2.44,2.44,0,0,1,.45,1.45,2.68,2.68,0,0,1-.49,1.53,3.19,3.19,0,0,1-1.4,1.12A5.1,5.1,0,0,1,61,46a6.42,6.42,0,0,1-2.43-.4A3.37,3.37,0,0,1,57,44.35,3.33,3.33,0,0,1,56.43,42.52Z"/><path d="M70.11,44.67l.19,1.11a5.14,5.14,0,0,1-1,.11,2.34,2.34,0,0,1-1.11-.22,1.23,1.23,0,0,1-.55-.57,4.27,4.27,0,0,1-.16-1.48V39.39h-1v-1h1V36.59l1.31-.75v2.58h1.32v1H68.79V43.7a2.08,2.08,0,0,0,.07.69.53.53,0,0,0,.23.24.91.91,0,0,0,.45.09A4.44,4.44,0,0,0,70.11,44.67Z"/><path d="M77,44.88a4.94,4.94,0,0,1-1.4.83,4.24,4.24,0,0,1-1.45.24,2.91,2.91,0,0,1-2-.59,1.92,1.92,0,0,1-.69-1.52,2,2,0,0,1,.26-1,2.08,2.08,0,0,1,.68-.72,3.27,3.27,0,0,1,.95-.41,10,10,0,0,1,1.17-.19,12.57,12.57,0,0,0,2.34-.43q0-.26,0-.33a1.34,1.34,0,0,0-.37-1.08,2.28,2.28,0,0,0-1.5-.42,2.41,2.41,0,0,0-1.37.31A1.87,1.87,0,0,0,73,40.69l-1.28-.17a3,3,0,0,1,.58-1.27,2.54,2.54,0,0,1,1.16-.74,5.41,5.41,0,0,1,1.76-.26,4.86,4.86,0,0,1,1.61.22,2.14,2.14,0,0,1,.91.56,1.93,1.93,0,0,1,.41.85A6.71,6.71,0,0,1,78.19,41V42.7a16.91,16.91,0,0,0,.08,2.21,2.7,2.7,0,0,0,.33.89H77.23A2.55,2.55,0,0,1,77,44.88Zm-.11-2.79a10,10,0,0,1-2.15.47,5.17,5.17,0,0,0-1.15.25,1.13,1.13,0,0,0-.52.41,1,1,0,0,0-.18.59,1,1,0,0,0,.4.83,1.77,1.77,0,0,0,1.16.33,2.82,2.82,0,0,0,1.35-.32,2,2,0,0,0,.87-.87,2.89,2.89,0,0,0,.21-1.25Z"/><path d="M83.62,44.67l.19,1.11a5.14,5.14,0,0,1-1,.11,2.34,2.34,0,0,1-1.11-.22,1.23,1.23,0,0,1-.55-.57A4.27,4.27,0,0,1,81,43.63V39.39H80v-1h1V36.59l1.31-.75v2.58h1.32v1H82.3V43.7a2.08,2.08,0,0,0,.07.69.53.53,0,0,0,.23.24.91.91,0,0,0,.45.09A4.44,4.44,0,0,0,83.62,44.67Z"/><path d="M90.5,45.79V44.71A2.88,2.88,0,0,1,88,46a3.26,3.26,0,0,1-1.28-.25,2.1,2.1,0,0,1-.88-.63,2.29,2.29,0,0,1-.41-.93A6,6,0,0,1,85.39,43V38.41h1.31v4.09a7,7,0,0,0,.08,1.32,1.3,1.3,0,0,0,.53.77,1.69,1.69,0,0,0,1,.28,2.24,2.24,0,0,0,1.11-.29,1.63,1.63,0,0,0,.73-.79,3.78,3.78,0,0,0,.21-1.44v-4h1.31v7.38Z"/><path d="M93.73,43.59,95,43.4a1.7,1.7,0,0,0,.61,1.14,2.2,2.2,0,0,0,1.4.4,2.13,2.13,0,0,0,1.34-.35,1,1,0,0,0,.44-.82.75.75,0,0,0-.39-.67,5.88,5.88,0,0,0-1.34-.42,12.7,12.7,0,0,1-2-.6,1.92,1.92,0,0,1-.85-.7,1.8,1.8,0,0,1-.29-1,1.83,1.83,0,0,1,.24-.91,2.05,2.05,0,0,1,.65-.7,2.79,2.79,0,0,1,.84-.37,4.18,4.18,0,0,1,1.13-.15,4.68,4.68,0,0,1,1.6.25,2.18,2.18,0,0,1,1,.68,2.57,2.57,0,0,1,.45,1.14l-1.28.17a1.32,1.32,0,0,0-.51-.89,1.92,1.92,0,0,0-1.19-.32,2.23,2.23,0,0,0-1.29.29.82.82,0,0,0-.39.67.67.67,0,0,0,.16.44,1.16,1.16,0,0,0,.5.33q.2.07,1.16.32A16.83,16.83,0,0,1,99,41.9a2,2,0,0,1,.86.66,1.77,1.77,0,0,1,.31,1.07,2,2,0,0,1-.38,1.18,2.45,2.45,0,0,1-1.11.85A4.2,4.2,0,0,1,97,46a3.78,3.78,0,0,1-2.3-.6A2.75,2.75,0,0,1,93.73,43.59Z"/><path d="M197.7,41.34l-7.09,2.88V43l5.61-2.22-5.61-2.2V37.32l7.09,2.85Z"/><path d="M4.24,61.79V51.61H7.93a9.34,9.34,0,0,1,1.9.15,3.69,3.69,0,0,1,1.57.73,4.15,4.15,0,0,1,1.27,1.74,6.54,6.54,0,0,1,.42,2.42,6.79,6.79,0,0,1-.28,2.06,4.89,4.89,0,0,1-.73,1.48,3.78,3.78,0,0,1-1,.92,4.08,4.08,0,0,1-1.28.51,7.65,7.65,0,0,1-1.72.17Zm1.42-1.2H7.94A5.79,5.79,0,0,0,9.6,60.4a2.4,2.4,0,0,0,1-.53,3.18,3.18,0,0,0,.78-1.29,6,6,0,0,0,.28-2,4.55,4.55,0,0,0-.55-2.46A2.73,2.73,0,0,0,9.74,53a5.79,5.79,0,0,0-1.83-.21H5.66Z"/><path d="M15.4,53V51.61h1.31V53Zm0,8.75V54.41h1.31v7.38Z"/><path d="M18.71,59.59,20,59.4a1.7,1.7,0,0,0,.61,1.14,2.2,2.2,0,0,0,1.4.4,2.13,2.13,0,0,0,1.34-.35,1,1,0,0,0,.44-.82.75.75,0,0,0-.39-.67,5.88,5.88,0,0,0-1.34-.42,12.7,12.7,0,0,1-2-.6,1.92,1.92,0,0,1-.85-.7,1.8,1.8,0,0,1-.29-1,1.83,1.83,0,0,1,.24-.91,2.05,2.05,0,0,1,.65-.7,2.79,2.79,0,0,1,.84-.37,4.18,4.18,0,0,1,1.13-.15,4.68,4.68,0,0,1,1.6.25,2.18,2.18,0,0,1,1,.68,2.57,2.57,0,0,1,.45,1.14l-1.28.17a1.32,1.32,0,0,0-.51-.89,1.92,1.92,0,0,0-1.19-.32,2.23,2.23,0,0,0-1.29.29.82.82,0,0,0-.39.67.67.67,0,0,0,.16.44,1.16,1.16,0,0,0,.5.33q.2.07,1.16.32A16.83,16.83,0,0,1,24,57.9a2,2,0,0,1,.86.66,1.77,1.77,0,0,1,.31,1.07,2,2,0,0,1-.38,1.18,2.45,2.45,0,0,1-1.11.85A4.2,4.2,0,0,1,22,62a3.78,3.78,0,0,1-2.3-.6A2.75,2.75,0,0,1,18.71,59.59Z"/><path d="M27.23,64.62V54.41h1.2v1a2.9,2.9,0,0,1,1-.84,2.74,2.74,0,0,1,1.29-.28,3.18,3.18,0,0,1,1.75.49,3,3,0,0,1,1.15,1.37A4.8,4.8,0,0,1,34,58a4.73,4.73,0,0,1-.43,2,3.11,3.11,0,0,1-1.24,1.39,3.3,3.3,0,0,1-1.71.48,2.58,2.58,0,0,1-1.18-.26,2.66,2.66,0,0,1-.86-.67v3.59Zm1.19-6.48A3.1,3.1,0,0,0,29,60.25a1.89,1.89,0,0,0,1.47.68,1.93,1.93,0,0,0,1.5-.71A3.23,3.23,0,0,0,32.62,58,3.15,3.15,0,0,0,32,55.93a1.87,1.87,0,0,0-1.46-.7,1.92,1.92,0,0,0-1.49.75A3.23,3.23,0,0,0,28.42,58.15Z"/><path d="M36,61.79V51.61h1.31V61.79Z"/><path d="M45,60.88a4.94,4.94,0,0,1-1.4.83,4.24,4.24,0,0,1-1.45.24,2.91,2.91,0,0,1-2-.59,1.92,1.92,0,0,1-.69-1.52,2,2,0,0,1,.26-1,2.08,2.08,0,0,1,.68-.72,3.27,3.27,0,0,1,.95-.41,10,10,0,0,1,1.17-.19,12.57,12.57,0,0,0,2.34-.43q0-.26,0-.33a1.34,1.34,0,0,0-.37-1.08,2.28,2.28,0,0,0-1.5-.42,2.41,2.41,0,0,0-1.37.31A1.87,1.87,0,0,0,41,56.69l-1.28-.17a3,3,0,0,1,.58-1.27,2.54,2.54,0,0,1,1.16-.74,5.41,5.41,0,0,1,1.76-.26,4.86,4.86,0,0,1,1.61.22,2.14,2.14,0,0,1,.91.56,1.93,1.93,0,0,1,.41.85A6.71,6.71,0,0,1,46.19,57V58.7a16.91,16.91,0,0,0,.08,2.21,2.7,2.7,0,0,0,.33.89H45.23A2.55,2.55,0,0,1,45,60.88Zm-.11-2.79a10,10,0,0,1-2.15.47,5.17,5.17,0,0,0-1.15.25,1.13,1.13,0,0,0-.52.41,1,1,0,0,0-.18.59,1,1,0,0,0,.4.83,1.77,1.77,0,0,0,1.16.33,2.82,2.82,0,0,0,1.35-.32,2,2,0,0,0,.87-.87,2.89,2.89,0,0,0,.21-1.25Z"/><path d="M48.69,64.64l-.15-1.17a3.06,3.06,0,0,0,.75.11,1.5,1.5,0,0,0,.7-.14,1.17,1.17,0,0,0,.43-.39,6,6,0,0,0,.4-.93l.12-.31L48,54.41h1.42L51,58.69q.31.81.56,1.71a16.3,16.3,0,0,1,.54-1.68l1.66-4.3H55.1l-2.95,7.51a14.43,14.43,0,0,1-.74,1.67,2.51,2.51,0,0,1-.8.91,2,2,0,0,1-1.08.29A2.75,2.75,0,0,1,48.69,64.64Z"/><path d="M61.1,58.52l1.34-.11a2.72,2.72,0,0,0,.44,1.25,2.4,2.4,0,0,0,1.08.79,4.25,4.25,0,0,0,1.64.3A4.11,4.11,0,0,0,67,60.53a2,2,0,0,0,.92-.63,1.41,1.41,0,0,0,.3-.87,1.28,1.28,0,0,0-.29-.84,2.17,2.17,0,0,0-1-.6,19.6,19.6,0,0,0-1.9-.5A10.08,10.08,0,0,1,63,56.46a2.86,2.86,0,0,1-1.14-.95,2.24,2.24,0,0,1-.38-1.27A2.5,2.5,0,0,1,62,52.8a2.83,2.83,0,0,1,1.34-1,5.32,5.32,0,0,1,2-.35,5.6,5.6,0,0,1,2.1.36,2.92,2.92,0,0,1,1.92,2.68l-1.36.1a2.05,2.05,0,0,0-.74-1.46,3,3,0,0,0-1.86-.49,3.1,3.1,0,0,0-1.87.45,1.33,1.33,0,0,0-.59,1.08,1.14,1.14,0,0,0,.42.9,5.83,5.83,0,0,0,2.13.73,14.66,14.66,0,0,1,2.37.65,3.22,3.22,0,0,1,1.38,1,2.44,2.44,0,0,1,.45,1.45,2.68,2.68,0,0,1-.49,1.53,3.19,3.19,0,0,1-1.4,1.12,5.1,5.1,0,0,1-2.06.4,6.42,6.42,0,0,1-2.43-.4,3.37,3.37,0,0,1-1.54-1.21A3.33,3.33,0,0,1,61.1,58.52Z"/><path d="M77.21,59.42l1.36.16a3.14,3.14,0,0,1-1.19,1.76,3.7,3.7,0,0,1-2.22.63,3.64,3.64,0,0,1-2.7-1,3.78,3.78,0,0,1-1-2.8,4,4,0,0,1,1-2.89,3.5,3.5,0,0,1,2.61-1,3.4,3.4,0,0,1,2.54,1,3.89,3.89,0,0,1,1,2.84q0,.11,0,.33H72.83a2.76,2.76,0,0,0,.72,1.86,2.2,2.2,0,0,0,1.62.65,2.08,2.08,0,0,0,1.23-.36A2.4,2.4,0,0,0,77.21,59.42Zm-4.31-2h4.33a2.43,2.43,0,0,0-.5-1.4,2.06,2.06,0,0,0-1.63-.72,2.14,2.14,0,0,0-1.52.58A2.23,2.23,0,0,0,72.9,57.39Z"/><path d="M83.61,60.67l.19,1.11a5.14,5.14,0,0,1-1,.11,2.34,2.34,0,0,1-1.11-.22,1.23,1.23,0,0,1-.55-.57A4.27,4.27,0,0,1,81,59.63V55.39H80v-1h1V52.59l1.31-.75v2.58h1.32v1H82.29V59.7a2.08,2.08,0,0,0,.07.69.53.53,0,0,0,.23.24.91.91,0,0,0,.45.09A4.44,4.44,0,0,0,83.61,60.67Z"/><path d="M88.28,60.67l.19,1.11a5.14,5.14,0,0,1-1,.11,2.34,2.34,0,0,1-1.11-.22,1.23,1.23,0,0,1-.55-.57,4.27,4.27,0,0,1-.16-1.48V55.39h-1v-1h1V52.59L87,51.83v2.58h1.32v1H87V59.7a2.08,2.08,0,0,0,.07.69.53.53,0,0,0,.23.24.91.91,0,0,0,.45.09A4.44,4.44,0,0,0,88.28,60.67Z"/><path d="M90.1,53V51.61h1.31V53Zm0,8.75V54.41h1.31v7.38Z"/><path d="M93.94,61.79V54.41h1.18v1a2.83,2.83,0,0,1,2.47-1.22,3.37,3.37,0,0,1,1.29.24,2,2,0,0,1,.88.63,2.36,2.36,0,0,1,.41.92,6.86,6.86,0,0,1,.07,1.22v4.54H98.92V57.3a3.22,3.22,0,0,0-.15-1.14,1.22,1.22,0,0,0-.54-.6,1.8,1.8,0,0,0-.92-.23,2.19,2.19,0,0,0-1.45.51,2.43,2.43,0,0,0-.61,1.93v4Z"/><path d="M102.53,62.41l1.28.18a1.14,1.14,0,0,0,.44.82,2.27,2.27,0,0,0,1.34.35,2.43,2.43,0,0,0,1.41-.35,1.71,1.71,0,0,0,.67-1,7.63,7.63,0,0,0,.09-1.6,2.76,2.76,0,0,1-2.15,1,3,3,0,0,1-2.47-1.1,4.09,4.09,0,0,1-.88-2.63,4.7,4.7,0,0,1,.4-1.95,3.09,3.09,0,0,1,1.16-1.38,3.26,3.26,0,0,1,1.79-.49,2.83,2.83,0,0,1,2.26,1.06v-.89h1.21v6.38a5.79,5.79,0,0,1-.37,2.44,2.63,2.63,0,0,1-1.17,1.14,4.22,4.22,0,0,1-2,.42,3.85,3.85,0,0,1-2.24-.59A2,2,0,0,1,102.53,62.41ZM103.62,58a3.09,3.09,0,0,0,.61,2.12,2,2,0,0,0,1.52.67,2,2,0,0,0,1.52-.66,3,3,0,0,0,.61-2.08,2.93,2.93,0,0,0-.63-2,2,2,0,0,0-1.52-.69,1.93,1.93,0,0,0-1.49.68A2.91,2.91,0,0,0,103.62,58Z"/><path d="M111.08,59.59l1.3-.19a1.7,1.7,0,0,0,.61,1.14,2.2,2.2,0,0,0,1.4.4,2.12,2.12,0,0,0,1.34-.35,1,1,0,0,0,.44-.82.75.75,0,0,0-.39-.67,5.87,5.87,0,0,0-1.34-.42,12.69,12.69,0,0,1-2-.6,1.92,1.92,0,0,1-.85-.7,1.8,1.8,0,0,1-.29-1,1.83,1.83,0,0,1,.24-.91,2.05,2.05,0,0,1,.65-.7,2.79,2.79,0,0,1,.84-.37,4.18,4.18,0,0,1,1.13-.15,4.68,4.68,0,0,1,1.6.25,2.17,2.17,0,0,1,1,.68,2.54,2.54,0,0,1,.45,1.14l-1.29.17a1.32,1.32,0,0,0-.51-.89,1.92,1.92,0,0,0-1.19-.32,2.23,2.23,0,0,0-1.29.29.82.82,0,0,0-.39.67.67.67,0,0,0,.16.44,1.16,1.16,0,0,0,.5.33q.2.07,1.16.32a16.81,16.81,0,0,1,1.94.58,2,2,0,0,1,.87.66,1.77,1.77,0,0,1,.31,1.07,2,2,0,0,1-.38,1.18,2.44,2.44,0,0,1-1.11.85,4.19,4.19,0,0,1-1.63.3,3.78,3.78,0,0,1-2.3-.6A2.75,2.75,0,0,1,111.08,59.59Z"/><path d="M197.25,57.34l-7.09,2.88V59l5.61-2.22-5.61-2.2V53.32l7.09,2.85Z"/><path d="M4.29,77.79V67.61H5.7v4.18h5.56V67.61h1.42V77.79H11.26V73H5.7v4.8Z"/><path d="M20.7,75.42l1.36.16a3.14,3.14,0,0,1-1.19,1.76,3.7,3.7,0,0,1-2.22.63A3.64,3.64,0,0,1,16,77a3.78,3.78,0,0,1-1-2.8,4,4,0,0,1,1-2.89,3.5,3.5,0,0,1,2.61-1,3.4,3.4,0,0,1,2.54,1,3.89,3.89,0,0,1,1,2.84q0,.11,0,.33H16.31A2.76,2.76,0,0,0,17,76.29a2.2,2.2,0,0,0,1.62.65,2.08,2.08,0,0,0,1.23-.36A2.4,2.4,0,0,0,20.7,75.42Zm-4.31-2h4.33a2.43,2.43,0,0,0-.5-1.4,2.06,2.06,0,0,0-1.63-.72,2.14,2.14,0,0,0-1.52.58A2.23,2.23,0,0,0,16.38,73.39Z"/><path d="M29.28,76.88a4.94,4.94,0,0,1-1.4.83,4.24,4.24,0,0,1-1.45.24,2.91,2.91,0,0,1-2-.59,1.92,1.92,0,0,1-.69-1.52,2,2,0,0,1,.26-1,2.08,2.08,0,0,1,.68-.72,3.27,3.27,0,0,1,.95-.41,10,10,0,0,1,1.17-.19,12.57,12.57,0,0,0,2.34-.43q0-.26,0-.33a1.34,1.34,0,0,0-.37-1.08,2.28,2.28,0,0,0-1.5-.42,2.41,2.41,0,0,0-1.37.31,1.87,1.87,0,0,0-.65,1.09L24,72.52a3,3,0,0,1,.58-1.27,2.54,2.54,0,0,1,1.16-.74,5.41,5.41,0,0,1,1.76-.26,4.86,4.86,0,0,1,1.61.22A2.14,2.14,0,0,1,30,71a1.93,1.93,0,0,1,.41.85A6.71,6.71,0,0,1,30.5,73V74.7a16.91,16.91,0,0,0,.08,2.21,2.7,2.7,0,0,0,.33.89H29.55A2.55,2.55,0,0,1,29.28,76.88Zm-.11-2.79a10,10,0,0,1-2.15.47,5.17,5.17,0,0,0-1.15.25,1.13,1.13,0,0,0-.52.41,1,1,0,0,0-.18.59,1,1,0,0,0,.4.83,1.77,1.77,0,0,0,1.16.33,2.82,2.82,0,0,0,1.35-.32A2,2,0,0,0,29,75.8a2.89,2.89,0,0,0,.21-1.25Z"/><path d="M35.93,76.67l.19,1.11a5.14,5.14,0,0,1-1,.11A2.34,2.34,0,0,1,34,77.68a1.23,1.23,0,0,1-.55-.57,4.27,4.27,0,0,1-.16-1.48V71.39h-1v-1h1V68.59l1.31-.75v2.58h1.32v1H34.61V75.7a2.08,2.08,0,0,0,.07.69.53.53,0,0,0,.23.24.91.91,0,0,0,.45.09A4.44,4.44,0,0,0,35.93,76.67Z"/><path d="M43,75.42l1.36.16a3.14,3.14,0,0,1-1.19,1.76A3.7,3.7,0,0,1,41,78a3.64,3.64,0,0,1-2.7-1,3.78,3.78,0,0,1-1-2.8,4,4,0,0,1,1-2.89,3.5,3.5,0,0,1,2.61-1,3.4,3.4,0,0,1,2.54,1,3.89,3.89,0,0,1,1,2.84q0,.11,0,.33H38.66a2.76,2.76,0,0,0,.72,1.86,2.2,2.2,0,0,0,1.62.65,2.08,2.08,0,0,0,1.23-.36A2.4,2.4,0,0,0,43,75.42Zm-4.31-2h4.33a2.43,2.43,0,0,0-.5-1.4,2.06,2.06,0,0,0-1.63-.72,2.14,2.14,0,0,0-1.52.58A2.23,2.23,0,0,0,38.73,73.39Z"/><path d="M46.56,77.79V70.41h1.18v1.12a3.07,3.07,0,0,1,.84-1,1.51,1.51,0,0,1,.84-.25,2.66,2.66,0,0,1,1.35.4l-.45,1.16a2,2,0,0,0-1-.27,1.29,1.29,0,0,0-.77.25,1.33,1.33,0,0,0-.49.68,4.66,4.66,0,0,0-.22,1.46v3.86Z"/><path d="M57.16,77.79V67.61h1.42V77.79Z"/><path d="M61.42,77.79V70.41H62.6v1a2.83,2.83,0,0,1,2.47-1.22,3.37,3.37,0,0,1,1.29.24,2,2,0,0,1,.88.63,2.36,2.36,0,0,1,.41.92,6.86,6.86,0,0,1,.07,1.22v4.54H66.41V73.3a3.22,3.22,0,0,0-.15-1.14,1.22,1.22,0,0,0-.54-.6,1.8,1.8,0,0,0-.92-.23,2.19,2.19,0,0,0-1.45.51,2.43,2.43,0,0,0-.61,1.93v4Z"/><path d="M70.57,77.79V71.39H69.41v-1h1.16v-.79a3.29,3.29,0,0,1,.14-1.1,1.62,1.62,0,0,1,.67-.79,2.5,2.5,0,0,1,1.34-.3,6.73,6.73,0,0,1,1.23.13l-.2,1.09a4.62,4.62,0,0,0-.77-.07,1.19,1.19,0,0,0-.85.24,1.27,1.27,0,0,0-.25.91v.68h1.51v1H71.88v6.41Z"/><path d="M74.44,74.1a3.46,3.46,0,0,1,3.63-3.86,3.57,3.57,0,0,1,2.61,1,3.69,3.69,0,0,1,1,2.76,4.69,4.69,0,0,1-.45,2.24,3.1,3.1,0,0,1-1.31,1.27,4,4,0,0,1-1.87.45,3.58,3.58,0,0,1-2.63-1A3.85,3.85,0,0,1,74.44,74.1Zm1.35,0a3,3,0,0,0,.65,2.12,2.23,2.23,0,0,0,3.26,0,3.11,3.11,0,0,0,.65-2.16A3,3,0,0,0,79.7,72a2.24,2.24,0,0,0-3.26,0A3,3,0,0,0,75.79,74.1Z"/><path d="M83.75,77.79V70.41h1.18v1.12a3.07,3.07,0,0,1,.84-1,1.51,1.51,0,0,1,.84-.25,2.66,2.66,0,0,1,1.35.4l-.45,1.16a2,2,0,0,0-1-.27,1.29,1.29,0,0,0-.77.25,1.33,1.33,0,0,0-.49.68,4.66,4.66,0,0,0-.22,1.46v3.86Z"/><path d="M89.27,77.79V70.41h1.17v1a2.71,2.71,0,0,1,1-.87,2.83,2.83,0,0,1,1.38-.33,2.65,2.65,0,0,1,1.41.34,1.84,1.84,0,0,1,.78,1,2.81,2.81,0,0,1,2.39-1.29,2.43,2.43,0,0,1,1.77.61,2.52,2.52,0,0,1,.62,1.87v5.07H98.46V73.14a3.27,3.27,0,0,0-.13-1.08,1.06,1.06,0,0,0-.46-.53,1.5,1.5,0,0,0-.79-.2,1.88,1.88,0,0,0-1.36.52,2.21,2.21,0,0,0-.54,1.66v4.29H93.87V73a2,2,0,0,0-.32-1.25,1.24,1.24,0,0,0-1.05-.42,2,2,0,0,0-1,.28,1.6,1.6,0,0,0-.68.81A4.37,4.37,0,0,0,90.58,74v3.83Z"/><path d="M107.3,76.88a4.94,4.94,0,0,1-1.4.83,4.24,4.24,0,0,1-1.45.24,2.91,2.91,0,0,1-2-.59,1.92,1.92,0,0,1-.69-1.52,2,2,0,0,1,.26-1,2.08,2.08,0,0,1,.68-.72,3.27,3.27,0,0,1,.95-.41,10,10,0,0,1,1.17-.19,12.57,12.57,0,0,0,2.34-.43q0-.26,0-.33a1.34,1.34,0,0,0-.37-1.08,2.28,2.28,0,0,0-1.5-.42,2.41,2.41,0,0,0-1.37.31,1.87,1.87,0,0,0-.65,1.09L102,72.52a3,3,0,0,1,.58-1.27,2.54,2.54,0,0,1,1.16-.74,5.41,5.41,0,0,1,1.76-.26,4.86,4.86,0,0,1,1.61.22A2.14,2.14,0,0,1,108,71a1.93,1.93,0,0,1,.41.85,6.71,6.71,0,0,1,.07,1.15V74.7a16.91,16.91,0,0,0,.08,2.21,2.7,2.7,0,0,0,.33.89h-1.37A2.55,2.55,0,0,1,107.3,76.88Zm-.11-2.79a10,10,0,0,1-2.15.47,5.17,5.17,0,0,0-1.15.25,1.13,1.13,0,0,0-.52.41,1,1,0,0,0-.18.59,1,1,0,0,0,.4.83,1.77,1.77,0,0,0,1.16.33,2.82,2.82,0,0,0,1.35-.32,2,2,0,0,0,.87-.87,2.89,2.89,0,0,0,.21-1.25Z"/><path d="M113.94,76.67l.19,1.11a5.13,5.13,0,0,1-1,.11,2.34,2.34,0,0,1-1.11-.22,1.23,1.23,0,0,1-.55-.57,4.27,4.27,0,0,1-.16-1.48V71.39h-1v-1h1V68.59l1.31-.75v2.58h1.32v1h-1.32V75.7a2.08,2.08,0,0,0,.07.69.53.53,0,0,0,.23.24.91.91,0,0,0,.45.09A4.44,4.44,0,0,0,113.94,76.67Z"/><path d="M115.76,69V67.61h1.31V69Zm0,8.75V70.41h1.31v7.38Z"/><path d="M119.1,74.1a3.47,3.47,0,0,1,3.63-3.86,3.57,3.57,0,0,1,2.61,1,3.69,3.69,0,0,1,1,2.76,4.69,4.69,0,0,1-.45,2.24,3.1,3.1,0,0,1-1.31,1.27,4,4,0,0,1-1.87.45,3.58,3.58,0,0,1-2.63-1A3.85,3.85,0,0,1,119.1,74.1Zm1.35,0a3,3,0,0,0,.65,2.12,2.23,2.23,0,0,0,3.26,0,3.11,3.11,0,0,0,.65-2.16,3,3,0,0,0-.65-2.07,2.24,2.24,0,0,0-3.26,0A3,3,0,0,0,120.46,74.1Z"/><path d="M128.43,77.79V70.41h1.18v1a2.83,2.83,0,0,1,2.47-1.22,3.37,3.37,0,0,1,1.29.24,2,2,0,0,1,.88.63,2.35,2.35,0,0,1,.41.92,6.8,6.8,0,0,1,.07,1.22v4.54h-1.31V73.3a3.23,3.23,0,0,0-.15-1.14,1.23,1.23,0,0,0-.54-.6,1.8,1.8,0,0,0-.92-.23,2.19,2.19,0,0,0-1.45.51,2.43,2.43,0,0,0-.61,1.93v4Z"/><path d="M197.1,73.34,190,76.22V75l5.61-2.22L190,70.57V69.32l7.09,2.85Z"/><path d="M11.88,90.22l1.42.34a4.51,4.51,0,0,1-1.6,2.53A4.56,4.56,0,0,1,8.86,94,5.28,5.28,0,0,1,6,93.3,4.24,4.24,0,0,1,4.4,91.35a6.64,6.64,0,0,1-.57-2.73,5.76,5.76,0,0,1,.64-2.78A4.26,4.26,0,0,1,6.29,84a5.52,5.52,0,0,1,2.59-.62,4.54,4.54,0,0,1,2.7.78,4,4,0,0,1,1.53,2.19l-1.39.31a3.14,3.14,0,0,0-1.08-1.62,3,3,0,0,0-1.78-.51,3.58,3.58,0,0,0-2.06.56,3,3,0,0,0-1.16,1.51,5.83,5.83,0,0,0-.34,2,6,6,0,0,0,.4,2.27,2.85,2.85,0,0,0,1.24,1.45,3.59,3.59,0,0,0,1.82.48,3.14,3.14,0,0,0,2-.65A3.3,3.3,0,0,0,11.88,90.22Z"/><path d="M20.47,93.79V92.71A2.88,2.88,0,0,1,18,94a3.27,3.27,0,0,1-1.28-.25,2.09,2.09,0,0,1-.88-.63,2.29,2.29,0,0,1-.41-.93A6,6,0,0,1,15.36,91V86.41h1.31v4.09a7,7,0,0,0,.08,1.32,1.3,1.3,0,0,0,.53.77,1.69,1.69,0,0,0,1,.28,2.24,2.24,0,0,0,1.11-.29,1.63,1.63,0,0,0,.73-.79,3.78,3.78,0,0,0,.21-1.44v-4h1.31v7.38Z"/><path d="M24.21,93.79V86.41h1.18v1.12a3.07,3.07,0,0,1,.84-1,1.51,1.51,0,0,1,.84-.25,2.66,2.66,0,0,1,1.35.4L28,87.81a2,2,0,0,0-1-.27,1.29,1.29,0,0,0-.77.25,1.34,1.34,0,0,0-.49.68,4.66,4.66,0,0,0-.22,1.46v3.86Z"/><path d="M29.71,93.79V86.41h1.18v1.12a3.07,3.07,0,0,1,.84-1,1.51,1.51,0,0,1,.84-.25,2.66,2.66,0,0,1,1.35.4l-.45,1.16a2,2,0,0,0-1-.27,1.29,1.29,0,0,0-.77.25,1.34,1.34,0,0,0-.49.68A4.66,4.66,0,0,0,31,89.93v3.86Z"/><path d="M40.53,91.42l1.36.16a3.14,3.14,0,0,1-1.19,1.76,3.7,3.7,0,0,1-2.22.63,3.64,3.64,0,0,1-2.7-1,3.78,3.78,0,0,1-1-2.8,4,4,0,0,1,1-2.89,3.5,3.5,0,0,1,2.61-1,3.4,3.4,0,0,1,2.54,1,3.89,3.89,0,0,1,1,2.84c0,.07,0,.18,0,.33H36.15a2.76,2.76,0,0,0,.72,1.86,2.2,2.2,0,0,0,1.62.65,2.08,2.08,0,0,0,1.23-.36A2.4,2.4,0,0,0,40.53,91.42Zm-4.31-2h4.33a2.43,2.43,0,0,0-.5-1.4,2.06,2.06,0,0,0-1.63-.72,2.14,2.14,0,0,0-1.52.58A2.23,2.23,0,0,0,36.22,89.39Z"/><path d="M44.06,93.79V86.41h1.18v1a2.83,2.83,0,0,1,2.47-1.22,3.37,3.37,0,0,1,1.29.24,2,2,0,0,1,.88.63,2.36,2.36,0,0,1,.41.92,6.87,6.87,0,0,1,.07,1.22v4.54H49V89.3a3.22,3.22,0,0,0-.15-1.14,1.22,1.22,0,0,0-.54-.61,1.8,1.8,0,0,0-.92-.23,2.19,2.19,0,0,0-1.45.51,2.43,2.43,0,0,0-.61,1.92v4Z"/><path d="M55.76,92.67,56,93.78a5.17,5.17,0,0,1-1,.11,2.34,2.34,0,0,1-1.11-.21,1.23,1.23,0,0,1-.55-.57,4.27,4.27,0,0,1-.16-1.48V87.39h-1v-1h1V84.58l1.31-.75v2.58h1.32v1H54.44V91.7a2.07,2.07,0,0,0,.07.69.52.52,0,0,0,.23.24.91.91,0,0,0,.45.09A4.53,4.53,0,0,0,55.76,92.67Z"/><path d="M62.49,93.79V83.61h7.22v1.2H63.9V88h5v1.2h-5v4.63Z"/><path d="M77,92.88a4.93,4.93,0,0,1-1.4.83A4.24,4.24,0,0,1,74.1,94a2.91,2.91,0,0,1-2-.59,1.92,1.92,0,0,1-.69-1.52,2,2,0,0,1,.26-1,2.08,2.08,0,0,1,.68-.72,3.27,3.27,0,0,1,.95-.41,10,10,0,0,1,1.17-.19,12.49,12.49,0,0,0,2.34-.43c0-.17,0-.28,0-.33a1.34,1.34,0,0,0-.37-1.08,2.28,2.28,0,0,0-1.5-.42,2.41,2.41,0,0,0-1.37.31A1.87,1.87,0,0,0,73,88.69l-1.28-.17a3,3,0,0,1,.58-1.27,2.54,2.54,0,0,1,1.16-.74,5.41,5.41,0,0,1,1.76-.26,4.86,4.86,0,0,1,1.61.22,2.14,2.14,0,0,1,.91.56,1.93,1.93,0,0,1,.41.85A6.71,6.71,0,0,1,78.17,89V90.7a16.9,16.9,0,0,0,.08,2.21,2.7,2.7,0,0,0,.33.89H77.22A2.55,2.55,0,0,1,77,92.88Zm-.11-2.79a10,10,0,0,1-2.15.47,5.16,5.16,0,0,0-1.15.25,1.13,1.13,0,0,0-.52.41,1.07,1.07,0,0,0,.22,1.43,1.77,1.77,0,0,0,1.16.33,2.82,2.82,0,0,0,1.35-.32,2,2,0,0,0,.87-.87,2.89,2.89,0,0,0,.21-1.25Z"/><path d="M85.81,93.79V92.71A2.88,2.88,0,0,1,83.35,94a3.27,3.27,0,0,1-1.28-.25,2.09,2.09,0,0,1-.88-.63,2.29,2.29,0,0,1-.41-.93A6,6,0,0,1,80.7,91V86.41H82v4.09a7,7,0,0,0,.08,1.32,1.3,1.3,0,0,0,.53.77,1.69,1.69,0,0,0,1,.28,2.24,2.24,0,0,0,1.11-.29,1.63,1.63,0,0,0,.73-.79,3.78,3.78,0,0,0,.21-1.44v-4H87v7.38Z"/><path d="M89.54,93.79V83.61h1.31V93.79Z"/><path d="M96.28,92.67l.19,1.11a5.17,5.17,0,0,1-1,.11,2.34,2.34,0,0,1-1.11-.21,1.23,1.23,0,0,1-.55-.57,4.27,4.27,0,0,1-.16-1.48V87.39h-1v-1h1V84.58L95,83.83v2.58h1.32v1H95V91.7a2.07,2.07,0,0,0,.07.69.52.52,0,0,0,.23.24.91.91,0,0,0,.45.09A4.53,4.53,0,0,0,96.28,92.67Z"/><path d="M196.72,89.34l-7.09,2.88V91l5.61-2.22-5.61-2.2V85.32l7.09,2.85Z"/></svg>