<svg id="Layer_1" data-name="Layer 1" xmlns="http://www.w3.org/2000/svg" viewBox="0 0 225.68 130.33"><title>UIM_heater_status_menu3</title><rect x="0.5" y="0.5" width="224.67" height="129.31" style="fill:none;stroke:#000"/><rect x="1.37" y="0.64" width="223.81" height="14.46" style="stroke:#000"/><rect x="0.49" y="101.87" width="224.67" height="27.94" style="fill:none"/><path d="M67.91,11V3.84h1V6.78h3.91V3.84h1V11h-1V7.62H68.91V11Z" style="fill:#fff"/><path d="M79.34,9.33l1,.11a2.21,2.21,0,0,1-.84,1.24,2.6,2.6,0,0,1-1.56.44,2.56,2.56,0,0,1-1.89-.7,2.66,2.66,0,0,1-.7-2,2.78,2.78,0,0,1,.71-2,2.45,2.45,0,0,1,1.84-.72,2.39,2.39,0,0,1,1.78.71,2.73,2.73,0,0,1,.69,2c0,.05,0,.13,0,.23H76.25a1.94,1.94,0,0,0,.51,1.31,1.55,1.55,0,0,0,1.14.45,1.46,1.46,0,0,0,.87-.25A1.69,1.69,0,0,0,79.34,9.33Zm-3-1.42h3a1.71,1.71,0,0,0-.35-1,1.44,1.44,0,0,0-1.14-.51,1.51,1.51,0,0,0-1.07.41A1.57,1.57,0,0,0,76.31,7.91Z" style="fill:#fff"/><path d="M85.26,10.36a3.46,3.46,0,0,1-1,.59,3,3,0,0,1-1,.17,2,2,0,0,1-1.38-.42,1.35,1.35,0,0,1-.48-1.07,1.36,1.36,0,0,1,.18-.7,1.46,1.46,0,0,1,.48-.51,2.3,2.3,0,0,1,.66-.29A7,7,0,0,1,83.54,8a8.79,8.79,0,0,0,1.65-.3c0-.12,0-.2,0-.23a.94.94,0,0,0-.26-.76,1.6,1.6,0,0,0-1.05-.3,1.69,1.69,0,0,0-1,.22,1.32,1.32,0,0,0-.46.77l-.9-.12A2.08,2.08,0,0,1,82,6.4a1.78,1.78,0,0,1,.82-.52A3.8,3.8,0,0,1,84,5.7a3.42,3.42,0,0,1,1.13.16,1.5,1.5,0,0,1,.64.39,1.35,1.35,0,0,1,.29.6,4.71,4.71,0,0,1,0,.81V8.83a11.92,11.92,0,0,0,.06,1.55,1.9,1.9,0,0,0,.23.62h-1A1.79,1.79,0,0,1,85.26,10.36Zm-.08-2a7.06,7.06,0,0,1-1.51.33,3.65,3.65,0,0,0-.81.18.79.79,0,0,0-.36.29.72.72,0,0,0-.13.42.73.73,0,0,0,.28.59,1.24,1.24,0,0,0,.82.23,2,2,0,0,0,.95-.22A1.4,1.4,0,0,0,85,9.6a2,2,0,0,0,.15-.88Z" style="fill:#fff"/><path d="M89.83,10.21,90,11a3.57,3.57,0,0,1-.7.08,1.64,1.64,0,0,1-.78-.15.87.87,0,0,1-.39-.4,3,3,0,0,1-.11-1v-3H87.3V5.81H88V4.53L88.9,4V5.81h.93V6.5H88.9v3a1.47,1.47,0,0,0,0,.48.37.37,0,0,0,.16.17.64.64,0,0,0,.31.06Z" style="fill:#fff"/><path d="M94.72,9.33l1,.11a2.21,2.21,0,0,1-.84,1.24,2.6,2.6,0,0,1-1.56.44,2.56,2.56,0,0,1-1.89-.7,2.66,2.66,0,0,1-.7-2,2.78,2.78,0,0,1,.71-2,2.45,2.45,0,0,1,1.84-.72A2.39,2.39,0,0,1,95,6.4a2.73,2.73,0,0,1,.69,2c0,.05,0,.13,0,.23H91.64a1.94,1.94,0,0,0,.51,1.31,1.55,1.55,0,0,0,1.14.45,1.46,1.46,0,0,0,.87-.25A1.69,1.69,0,0,0,94.72,9.33Zm-3-1.42h3a1.71,1.71,0,0,0-.35-1,1.44,1.44,0,0,0-1.14-.51,1.51,1.51,0,0,0-1.07.41A1.57,1.57,0,0,0,91.69,7.91Z" style="fill:#fff"/><path d="M97.08,11V5.81h.83V6.6a2.16,2.16,0,0,1,.59-.73,1.06,1.06,0,0,1,.59-.18A1.86,1.86,0,0,1,100,6l-.32.82A1.37,1.37,0,0,0,99,6.6a.91.91,0,0,0-.54.17.94.94,0,0,0-.34.48,3.27,3.27,0,0,0-.15,1V11Z" style="fill:#fff"/><path d="M104.32,11V3.84h1V11Z" style="fill:#fff"/><path d="M107.21,11V5.81H108v.74a2,2,0,0,1,1.73-.85,2.37,2.37,0,0,1,.9.17,1.42,1.42,0,0,1,.62.44,1.65,1.65,0,0,1,.29.65,4.8,4.8,0,0,1,.05.85V11h-.92V7.84a2.25,2.25,0,0,0-.11-.8.86.86,0,0,0-.38-.42,1.26,1.26,0,0,0-.64-.16,1.54,1.54,0,0,0-1,.36,1.71,1.71,0,0,0-.43,1.35V11Z" style="fill:#fff"/><path d="M113.54,11V6.5h-.81V5.81h.81V5.26a2.31,2.31,0,0,1,.1-.78,1.14,1.14,0,0,1,.47-.55,1.76,1.76,0,0,1,.94-.21,4.73,4.73,0,0,1,.86.09l-.14.77a3.22,3.22,0,0,0-.54,0,.83.83,0,0,0-.59.17.89.89,0,0,0-.18.64v.48h1.06V6.5h-1.06V11Z" style="fill:#fff"/><path d="M116.15,8.41A2.61,2.61,0,0,1,117,6.27a2.61,2.61,0,0,1,1.71-.58,2.51,2.51,0,0,1,1.84.7,2.59,2.59,0,0,1,.71,1.94,3.29,3.29,0,0,1-.32,1.57,2.18,2.18,0,0,1-.92.89,2.78,2.78,0,0,1-1.32.32,2.51,2.51,0,0,1-1.85-.7A2.7,2.7,0,0,1,116.15,8.41Zm.95,0a2.14,2.14,0,0,0,.46,1.49,1.57,1.57,0,0,0,2.29,0,2.19,2.19,0,0,0,.46-1.52,2.07,2.07,0,0,0-.46-1.46,1.57,1.57,0,0,0-2.29,0A2.13,2.13,0,0,0,117.1,8.41Z" style="fill:#fff"/><path d="M122.59,11V5.81h.83V6.6a2.16,2.16,0,0,1,.59-.73,1.06,1.06,0,0,1,.59-.18,1.86,1.86,0,0,1,.95.28l-.32.82a1.37,1.37,0,0,0-.68-.19.91.91,0,0,0-.54.17.94.94,0,0,0-.34.48,3.3,3.3,0,0,0-.15,1V11Z" style="fill:#fff"/><path d="M126.36,11V5.81h.82v.73a1.92,1.92,0,0,1,.68-.61,2,2,0,0,1,1-.23,1.86,1.86,0,0,1,1,.24,1.29,1.29,0,0,1,.55.67,2,2,0,0,1,1.68-.91,1.71,1.71,0,0,1,1.25.43,1.77,1.77,0,0,1,.44,1.32V11h-.92V7.73a2.28,2.28,0,0,0-.09-.76.74.74,0,0,0-.33-.37,1.06,1.06,0,0,0-.55-.14,1.32,1.32,0,0,0-1,.36A1.55,1.55,0,0,0,130.51,8v3h-.92V7.63a1.43,1.43,0,0,0-.23-.88.87.87,0,0,0-.74-.29,1.39,1.39,0,0,0-.72.2,1.12,1.12,0,0,0-.48.57,3.08,3.08,0,0,0-.15,1.08V11Z" style="fill:#fff"/><path d="M138.92,10.36a3.46,3.46,0,0,1-1,.59,3,3,0,0,1-1,.17,2,2,0,0,1-1.38-.42,1.42,1.42,0,0,1-.3-1.76,1.46,1.46,0,0,1,.48-.51,2.29,2.29,0,0,1,.66-.29A6.93,6.93,0,0,1,137.2,8a8.78,8.78,0,0,0,1.65-.3c0-.12,0-.2,0-.23a.94.94,0,0,0-.26-.76,1.6,1.6,0,0,0-1.05-.3,1.69,1.69,0,0,0-1,.22,1.32,1.32,0,0,0-.46.77l-.9-.12a2.09,2.09,0,0,1,.41-.89,1.78,1.78,0,0,1,.82-.52,3.79,3.79,0,0,1,1.24-.18,3.43,3.43,0,0,1,1.13.16,1.5,1.5,0,0,1,.64.39,1.35,1.35,0,0,1,.29.6,4.65,4.65,0,0,1,0,.81V8.83a11.92,11.92,0,0,0,.06,1.55,1.89,1.89,0,0,0,.23.62h-1A1.79,1.79,0,0,1,138.92,10.36Zm-.08-2a7.06,7.06,0,0,1-1.51.33,3.67,3.67,0,0,0-.81.18.79.79,0,0,0-.36.29.72.72,0,0,0-.13.42.74.74,0,0,0,.28.59,1.25,1.25,0,0,0,.82.23,2,2,0,0,0,.95-.22,1.4,1.4,0,0,0,.61-.61,2,2,0,0,0,.15-.88Z" style="fill:#fff"/><path d="M143.48,10.21l.13.78a3.57,3.57,0,0,1-.7.08,1.64,1.64,0,0,1-.78-.15.87.87,0,0,1-.39-.4,3,3,0,0,1-.11-1v-3H141V5.81h.68V4.53l.92-.53V5.81h.93V6.5h-.93v3a1.47,1.47,0,0,0,0,.48.38.38,0,0,0,.16.17.64.64,0,0,0,.32.06Z" style="fill:#fff"/><path d="M144.65,4.85v-1h.92v1Zm0,6.15V5.81h.92V11Z" style="fill:#fff"/><path d="M146.9,8.41a2.61,2.61,0,0,1,.84-2.13,2.61,2.61,0,0,1,1.71-.58,2.51,2.51,0,0,1,1.83.7A2.59,2.59,0,0,1,152,8.33a3.29,3.29,0,0,1-.32,1.57,2.18,2.18,0,0,1-.92.89,2.78,2.78,0,0,1-1.31.32,2.51,2.51,0,0,1-1.85-.7A2.71,2.71,0,0,1,146.9,8.41Zm.95,0a2.13,2.13,0,0,0,.46,1.49,1.57,1.57,0,0,0,2.29,0,2.18,2.18,0,0,0,.46-1.52,2.08,2.08,0,0,0-.46-1.46,1.57,1.57,0,0,0-2.29,0A2.12,2.12,0,0,0,147.85,8.41Z" style="fill:#fff"/><path d="M153.34,11V5.81h.83v.74a2,2,0,0,1,1.73-.85,2.38,2.38,0,0,1,.91.17,1.43,1.43,0,0,1,.62.44,1.65,1.65,0,0,1,.29.65,4.91,4.91,0,0,1,.05.85V11h-.92V7.84a2.25,2.25,0,0,0-.11-.8.85.85,0,0,0-.38-.42,1.27,1.27,0,0,0-.64-.16,1.54,1.54,0,0,0-1,.36,1.71,1.71,0,0,0-.43,1.35V11Z" style="fill:#fff"/><rect x="0.53" y="101.87" width="44.92" height="27.98" style="fill:none"/><rect x="45.65" y="101.87" width="44.92" height="27.98" style="fill:none"/><rect x="90.57" y="101.87" width="44.92" height="27.98" style="fill:none;stroke:#000;stroke-linecap:round;stroke-linejoin:round;stroke-width:0.9753649999999999px"/><rect x="180.23" y="101.87" width="44.92" height="27.98" style="fill:none;stroke:#000;stroke-linecap:round;stroke-linejoin:round;stroke-width:0.9753649999999999px"/><rect x="135.36" y="101.87" width="44.92" height="27.98" style="fill:none"/><rect x="2.78" y="17.42" width="204.89" height="13.39" style="fill:#fff"/><line x1="0.53" y1="101.87" x2="225.04" y2="101.87" style="fill:none;stroke:#000;stroke-linecap:round;stroke-linejoin:round;stroke-width:0.9753649999999999px"/><path d="M193.64,118.84V111h.65v3.23h2.56V111h.65v7.87h-.65v-3.71h-2.56v3.71Z"/><path d="M199.16,118.84V111h3.57v.93h-2.91v2.41h2.73v.92h-2.73v2.68h3v.93Z"/><path d="M204.27,118.84V111h.65v6.95h2.43v.93Z"/><path d="M208.68,118.84V111h1.86a2.86,2.86,0,0,1,.75.08,1.22,1.22,0,0,1,.61.37,2,2,0,0,1,.4.76,3.66,3.66,0,0,1,.15,1.07,3.36,3.36,0,0,1-.4,1.7,1.53,1.53,0,0,1-1.45.7h-1.26v3.2Zm.65-4.13h1.27a1,1,0,0,0,.9-.38,1.81,1.81,0,0,0,.27-1.06,2.07,2.07,0,0,0-.16-.85.84.84,0,0,0-.41-.46,1.8,1.8,0,0,0-.61-.07h-1.26Z"/><rect x="209.68" y="83.2" width="15.48" height="18.65" style="fill:none;stroke:#000;stroke-width:0.9753649999999999px"/><polygon points="210.46 92.12 217.43 99.08 224.37 92.12 210.46 92.12"/><rect x="209.68" y="15.08" width="15.48" height="18.65" style="fill:none;stroke:#000;stroke-width:0.9753649999999999px"/><rect x="210.23" y="49.42" width="13.56" height="21.35"/><polygon points="224.4 24.93 217.43 17.97 210.48 24.93 224.4 24.93"/><path d="M103.71,118.84V111h1.85a1.38,1.38,0,0,1,1.44,1,2.84,2.84,0,0,1,.19,1,2.61,2.61,0,0,1-.17,1,1.66,1.66,0,0,1-.52.72,1.43,1.43,0,0,1,.69.71,2.74,2.74,0,0,1,.24,1.19,3.48,3.48,0,0,1-.15,1,2.12,2.12,0,0,1-.36.73,1.35,1.35,0,0,1-.54.39,2.11,2.11,0,0,1-.79.13Zm.65-4.57h1.07a1.52,1.52,0,0,0,.62-.09.77.77,0,0,0,.38-.39,1.64,1.64,0,0,0,.13-.69,1.86,1.86,0,0,0-.12-.69.73.73,0,0,0-.34-.41,1.82,1.82,0,0,0-.75-.11h-1Zm0,3.64h1.23a1.81,1.81,0,0,0,.44,0,.85.85,0,0,0,.38-.21,1.1,1.1,0,0,0,.25-.44,2.06,2.06,0,0,0,.1-.66,1.9,1.9,0,0,0-.14-.77.89.89,0,0,0-.39-.46,1.58,1.58,0,0,0-.72-.13h-1.14Z"/><path d="M108.34,118.84l1.89-7.87h.7l2,7.87h-.74l-.58-2.38h-2.06l-.54,2.38Zm1.42-3.23h1.67l-.51-2.18c-.16-.66-.27-1.21-.35-1.63a14.87,14.87,0,0,1-.27,1.5Z"/><path d="M117.55,116.08l.65.26a4.21,4.21,0,0,1-.74,2,1.61,1.61,0,0,1-1.3.67,1.72,1.72,0,0,1-1.3-.52,3.37,3.37,0,0,1-.76-1.5,8.2,8.2,0,0,1-.26-2.11,7,7,0,0,1,.29-2.15,3,3,0,0,1,.84-1.39,1.78,1.78,0,0,1,1.2-.48,1.56,1.56,0,0,1,1.24.6,3.59,3.59,0,0,1,.7,1.69l-.64.24a2.84,2.84,0,0,0-.5-1.25,1,1,0,0,0-.82-.39,1.22,1.22,0,0,0-1,.43,2.54,2.54,0,0,0-.54,1.17,7.29,7.29,0,0,0-.16,1.51,7.44,7.44,0,0,0,.18,1.75,2.26,2.26,0,0,0,.57,1.12,1.19,1.19,0,0,0,.84.37,1.13,1.13,0,0,0,.93-.51A3.22,3.22,0,0,0,117.55,116.08Z"/><path d="M119.53,118.84V111h.65v3.9l2.45-3.9h.88l-2.07,3.19,2.16,4.68h-.86l-1.76-4-.81,1.26v2.73Z"/><path d="M4.82,27.41V19.53h1v7.87Z"/><path d="M7.62,27.88l.94.14a.9.9,0,0,0,.33.63,1.61,1.61,0,0,0,1,.27,1.73,1.73,0,0,0,1-.27,1.32,1.32,0,0,0,.49-.75,6.17,6.17,0,0,0,.07-1.24,2,2,0,0,1-1.58.75,2.15,2.15,0,0,1-1.82-.85,3.27,3.27,0,0,1-.64-2A3.79,3.79,0,0,1,7.72,23,2.36,2.36,0,0,1,8.58,22a2.31,2.31,0,0,1,1.32-.38,2,2,0,0,1,1.67.82V21.7h.89v4.93a4.67,4.67,0,0,1-.27,1.89,2,2,0,0,1-.86.88,3,3,0,0,1-1.45.32,2.73,2.73,0,0,1-1.65-.46A1.55,1.55,0,0,1,7.62,27.88Zm.8-3.43a2.47,2.47,0,0,0,.45,1.64,1.47,1.47,0,0,0,2.23,0,2.39,2.39,0,0,0,.45-1.61,2.34,2.34,0,0,0-.46-1.58A1.44,1.44,0,0,0,10,22.37a1.39,1.39,0,0,0-1.1.52A2.32,2.32,0,0,0,8.42,24.45Z"/><path d="M14.14,27.41V21.7H15v.81a2.05,2.05,0,0,1,1.82-.94,2.37,2.37,0,0,1,.95.19,1.48,1.48,0,0,1,.65.49,1.87,1.87,0,0,1,.3.71,5.55,5.55,0,0,1,.05.94v3.51h-1V23.94a2.61,2.61,0,0,0-.11-.88.93.93,0,0,0-.4-.47,1.27,1.27,0,0,0-.67-.17,1.57,1.57,0,0,0-1.07.39,1.93,1.93,0,0,0-.45,1.49v3.12Z"/><path d="M20.48,20.65V19.53h1v1.11Zm0,6.76V21.7h1v5.7Z"/><path d="M25.25,26.54l.14.85a3.6,3.6,0,0,1-.73.09,1.66,1.66,0,0,1-.82-.17.93.93,0,0,1-.41-.44,3.46,3.46,0,0,1-.12-1.14V22.46H22.6V21.7h.71V20.29l1-.58v2h1v.75h-1v3.34a1.68,1.68,0,0,0,.05.53.4.4,0,0,0,.17.19.65.65,0,0,0,.33.07Z"/><path d="M26.42,20.65V19.53h1v1.11Zm0,6.76V21.7h1v5.7Z"/><path d="M28.72,24.56a2.94,2.94,0,0,1,.88-2.35,2.66,2.66,0,0,1,1.79-.63,2.56,2.56,0,0,1,1.92.77,2.93,2.93,0,0,1,.75,2.13,3.77,3.77,0,0,1-.33,1.73,2.34,2.34,0,0,1-1,1,2.8,2.8,0,0,1-1.38.35,2.56,2.56,0,0,1-1.94-.77A3.07,3.07,0,0,1,28.72,24.56Zm1,0a2.43,2.43,0,0,0,.48,1.64,1.59,1.59,0,0,0,2.4,0,2.49,2.49,0,0,0,.48-1.67,2.36,2.36,0,0,0-.48-1.6,1.59,1.59,0,0,0-2.4,0A2.42,2.42,0,0,0,29.71,24.56Z"/><path d="M35.41,27.41V21.7h.87v.81a2.05,2.05,0,0,1,1.82-.94,2.37,2.37,0,0,1,.95.19,1.48,1.48,0,0,1,.65.49A1.87,1.87,0,0,1,40,23a5.55,5.55,0,0,1,.05.94v3.51h-1V23.94a2.61,2.61,0,0,0-.11-.88.93.93,0,0,0-.4-.47,1.27,1.27,0,0,0-.67-.17,1.57,1.57,0,0,0-1.07.39,1.93,1.93,0,0,0-.45,1.49v3.12Z"/><path d="M45.21,27.41V19.53h5.31v.93H46.25V22.9h3.7v.93h-3.7v3.58Z"/><path d="M55.69,26.7a3.6,3.6,0,0,1-1,.64,3,3,0,0,1-1.07.19,2.08,2.08,0,0,1-1.44-.46,1.52,1.52,0,0,1-.5-1.17,1.56,1.56,0,0,1,.19-.77,1.58,1.58,0,0,1,.5-.56,2.35,2.35,0,0,1,.7-.32,6.85,6.85,0,0,1,.86-.15,8.84,8.84,0,0,0,1.72-.33c0-.13,0-.22,0-.25a1.07,1.07,0,0,0-.27-.83,1.62,1.62,0,0,0-1.1-.33,1.71,1.71,0,0,0-1,.24,1.46,1.46,0,0,0-.48.85l-.95-.13a2.34,2.34,0,0,1,.42-1,1.86,1.86,0,0,1,.85-.58,3.82,3.82,0,0,1,1.29-.2,3.42,3.42,0,0,1,1.19.17,1.56,1.56,0,0,1,.67.43,1.52,1.52,0,0,1,.3.66,5.44,5.44,0,0,1,0,.89V25a13.6,13.6,0,0,0,.06,1.71,2.15,2.15,0,0,0,.24.68h-1A2.06,2.06,0,0,1,55.69,26.7Zm-.08-2.16a7.1,7.1,0,0,1-1.58.37,3.63,3.63,0,0,0-.84.19.84.84,0,0,0-.38.31.85.85,0,0,0,.16,1.1,1.26,1.26,0,0,0,.86.26,2,2,0,0,0,1-.24,1.5,1.5,0,0,0,.64-.67,2.33,2.33,0,0,0,.16-1Z"/><path d="M58.31,20.65V19.53h1v1.11Zm0,6.76V21.7h1v5.7Z"/><path d="M60.95,27.41V19.53h1v7.87Z"/><path d="M67.37,27.41v-.84a2.09,2.09,0,0,1-1.81,1,2.3,2.3,0,0,1-.94-.19,1.55,1.55,0,0,1-.65-.49,1.82,1.82,0,0,1-.3-.72,4.9,4.9,0,0,1-.06-.9V21.7h1v3.16a5.62,5.62,0,0,0,.06,1,1,1,0,0,0,.39.6,1.2,1.2,0,0,0,.73.22,1.59,1.59,0,0,0,.82-.22,1.24,1.24,0,0,0,.54-.61,3.05,3.05,0,0,0,.16-1.11V21.7h1v5.7Z"/><path d="M70,27.41V21.7h.87v.86a2.37,2.37,0,0,1,.61-.8,1.08,1.08,0,0,1,.62-.19,1.89,1.89,0,0,1,1,.31l-.33.9a1.38,1.38,0,0,0-.71-.21.92.92,0,0,0-.57.19,1,1,0,0,0-.36.53,3.77,3.77,0,0,0-.16,1.13v3Z"/><path d="M77.76,25.57l1,.12a2.44,2.44,0,0,1-.88,1.36,3,3,0,0,1-3.62-.29,3,3,0,0,1-.73-2.16,3.15,3.15,0,0,1,.74-2.23,2.51,2.51,0,0,1,1.92-.79,2.44,2.44,0,0,1,1.87.78,3.09,3.09,0,0,1,.73,2.19c0,.06,0,.14,0,.26H74.53a2.19,2.19,0,0,0,.53,1.44,1.58,1.58,0,0,0,1.19.5,1.48,1.48,0,0,0,.91-.28A1.86,1.86,0,0,0,77.76,25.57ZM74.58,24h3.19a1.93,1.93,0,0,0-.37-1.08,1.48,1.48,0,0,0-1.2-.56,1.53,1.53,0,0,0-1.12.45A1.76,1.76,0,0,0,74.58,24Z"/><path d="M89.21,24.65l1,.26a3.51,3.51,0,0,1-1.18,2,3.25,3.25,0,0,1-2.08.67A3.74,3.74,0,0,1,84.92,27a3.24,3.24,0,0,1-1.21-1.5,5.36,5.36,0,0,1-.42-2.11,4.64,4.64,0,0,1,.47-2.15,3.22,3.22,0,0,1,1.34-1.39A3.91,3.91,0,0,1,87,19.4a3.23,3.23,0,0,1,2,.6,3.12,3.12,0,0,1,1.12,1.69l-1,.24a2.43,2.43,0,0,0-.79-1.25A2.12,2.12,0,0,0,87,20.29a2.55,2.55,0,0,0-1.52.44,2.3,2.3,0,0,0-.86,1.17,4.71,4.71,0,0,0-.25,1.51,4.8,4.8,0,0,0,.29,1.75,2.18,2.18,0,0,0,.91,1.12,2.55,2.55,0,0,0,1.34.37,2.24,2.24,0,0,0,1.48-.5A2.58,2.58,0,0,0,89.21,24.65Z"/><path d="M91.27,24.56a2.94,2.94,0,0,1,.88-2.35,2.66,2.66,0,0,1,1.79-.63,2.56,2.56,0,0,1,1.92.77,2.93,2.93,0,0,1,.75,2.13,3.77,3.77,0,0,1-.33,1.73,2.34,2.34,0,0,1-1,1,2.8,2.8,0,0,1-1.38.35A2.56,2.56,0,0,1,92,26.77,3.07,3.07,0,0,1,91.27,24.56Zm1,0a2.43,2.43,0,0,0,.48,1.64,1.59,1.59,0,0,0,2.4,0,2.49,2.49,0,0,0,.48-1.67,2.36,2.36,0,0,0-.48-1.6,1.59,1.59,0,0,0-2.4,0A2.42,2.42,0,0,0,92.27,24.56Z"/><path d="M101.71,27.41v-.84a2.09,2.09,0,0,1-1.81,1,2.3,2.3,0,0,1-.94-.19,1.55,1.55,0,0,1-.65-.49,1.82,1.82,0,0,1-.3-.72,4.9,4.9,0,0,1-.06-.9V21.7h1v3.16a5.62,5.62,0,0,0,.06,1,1,1,0,0,0,.39.6,1.2,1.2,0,0,0,.73.22,1.59,1.59,0,0,0,.82-.22,1.24,1.24,0,0,0,.54-.61,3.05,3.05,0,0,0,.16-1.11V21.7h1v5.7Z"/><path d="M104.31,27.41V21.7h.87v.81a2.05,2.05,0,0,1,1.82-.94,2.37,2.37,0,0,1,.95.19,1.48,1.48,0,0,1,.65.49,1.87,1.87,0,0,1,.3.71,5.55,5.55,0,0,1,.05.94v3.51h-1V23.94a2.61,2.61,0,0,0-.11-.88.93.93,0,0,0-.4-.47,1.27,1.27,0,0,0-.67-.17,1.57,1.57,0,0,0-1.07.39,1.93,1.93,0,0,0-.45,1.49v3.12Z"/><path d="M112.76,26.54l.14.85a3.6,3.6,0,0,1-.73.09,1.66,1.66,0,0,1-.82-.17.93.93,0,0,1-.41-.44,3.46,3.46,0,0,1-.12-1.14V22.46h-.71V21.7h.71V20.29l1-.58v2h1v.75h-1v3.34a1.68,1.68,0,0,0,.05.53.4.4,0,0,0,.17.19.65.65,0,0,0,.33.07Z"/><path d="M186.62,27.41h-1V21.25a5,5,0,0,1-.92.67,6.47,6.47,0,0,1-1,.5v-.93a5.83,5.83,0,0,0,1.42-.92A3.62,3.62,0,0,0,186,19.5h.62Z"/><path d="M202.11,24l-5.22,2.23v-1L201,23.52l-4.13-1.7v-1l5.22,2.2Z"/><path d="M4.7,41.41V33.53H10v.93H5.74V36.9h3.7v.93H5.74v3.58Z"/><path d="M11.44,41.41V33.53h1v7.87Z"/><path d="M17.85,40.7a3.6,3.6,0,0,1-1,.64,3,3,0,0,1-1.07.19,2.08,2.08,0,0,1-1.44-.46,1.52,1.52,0,0,1-.5-1.17,1.56,1.56,0,0,1,.19-.77,1.58,1.58,0,0,1,.5-.56,2.35,2.35,0,0,1,.7-.32,6.85,6.85,0,0,1,.86-.15,8.84,8.84,0,0,0,1.72-.33c0-.13,0-.22,0-.25a1.07,1.07,0,0,0-.27-.83,1.62,1.62,0,0,0-1.1-.33,1.71,1.71,0,0,0-1,.24,1.46,1.46,0,0,0-.48.85L14,37.33a2.34,2.34,0,0,1,.42-1,1.86,1.86,0,0,1,.85-.58,3.82,3.82,0,0,1,1.29-.2,3.42,3.42,0,0,1,1.19.17,1.56,1.56,0,0,1,.67.43,1.52,1.52,0,0,1,.3.66,5.44,5.44,0,0,1,0,.89V39a13.6,13.6,0,0,0,.06,1.71,2.15,2.15,0,0,0,.24.68H18A2.06,2.06,0,0,1,17.85,40.7Zm-.08-2.16a7.1,7.1,0,0,1-1.58.37,3.63,3.63,0,0,0-.84.19.84.84,0,0,0-.38.31.85.85,0,0,0,.16,1.1,1.26,1.26,0,0,0,.86.26,2,2,0,0,0,1-.24,1.5,1.5,0,0,0,.64-.67,2.33,2.33,0,0,0,.16-1Z"/><path d="M20.46,41.41V35.7h.86v.8a2,2,0,0,1,.71-.67,2,2,0,0,1,1-.25,1.88,1.88,0,0,1,1,.26,1.41,1.41,0,0,1,.57.74,2,2,0,0,1,1.76-1,1.74,1.74,0,0,1,1.31.47,2,2,0,0,1,.46,1.45v3.92h-1V37.81a2.64,2.64,0,0,0-.09-.84.81.81,0,0,0-.34-.41,1.06,1.06,0,0,0-.58-.16,1.35,1.35,0,0,0-1,.4,1.76,1.76,0,0,0-.4,1.28v3.31h-1V37.7a1.63,1.63,0,0,0-.24-1,.9.9,0,0,0-.77-.32,1.41,1.41,0,0,0-.75.21,1.22,1.22,0,0,0-.5.63,3.53,3.53,0,0,0-.16,1.19v3Z"/><path d="M33.75,39.57l1,.12a2.44,2.44,0,0,1-.88,1.36,3,3,0,0,1-3.62-.29,3,3,0,0,1-.73-2.16,3.15,3.15,0,0,1,.74-2.23,2.51,2.51,0,0,1,1.92-.79,2.44,2.44,0,0,1,1.87.78,3.09,3.09,0,0,1,.73,2.19c0,.06,0,.14,0,.26H30.52a2.19,2.19,0,0,0,.53,1.44,1.58,1.58,0,0,0,1.19.5,1.48,1.48,0,0,0,.91-.28A1.86,1.86,0,0,0,33.75,39.57ZM30.58,38h3.19a1.93,1.93,0,0,0-.37-1.08,1.48,1.48,0,0,0-1.2-.56,1.53,1.53,0,0,0-1.12.45A1.76,1.76,0,0,0,30.58,38Z"/><path d="M39.54,41.41V33.53h1v6.94h3.88v.93Z"/><path d="M45.44,38.56a2.94,2.94,0,0,1,.88-2.35,2.66,2.66,0,0,1,1.79-.63,2.56,2.56,0,0,1,1.92.77,2.93,2.93,0,0,1,.75,2.13,3.77,3.77,0,0,1-.33,1.73,2.34,2.34,0,0,1-1,1,2.8,2.8,0,0,1-1.38.35,2.56,2.56,0,0,1-1.94-.77A3.07,3.07,0,0,1,45.44,38.56Zm1,0a2.43,2.43,0,0,0,.48,1.64,1.59,1.59,0,0,0,2.4,0,2.49,2.49,0,0,0,.48-1.67,2.36,2.36,0,0,0-.48-1.6,1.59,1.59,0,0,0-2.4,0A2.42,2.42,0,0,0,46.43,38.56Z"/><path d="M51.75,39.71l1-.15a1.33,1.33,0,0,0,.45.88,1.56,1.56,0,0,0,1,.31,1.51,1.51,0,0,0,1-.27.81.81,0,0,0,.32-.64.59.59,0,0,0-.28-.52,4.18,4.18,0,0,0-1-.33,9,9,0,0,1-1.47-.46,1.41,1.41,0,0,1-.84-1.31,1.47,1.47,0,0,1,.17-.71,1.57,1.57,0,0,1,.48-.54,2,2,0,0,1,.62-.28,2.93,2.93,0,0,1,.83-.12,3.3,3.3,0,0,1,1.18.19,1.6,1.6,0,0,1,.75.52,2.05,2.05,0,0,1,.33.88l-.95.13a1,1,0,0,0-.37-.69,1.36,1.36,0,0,0-.87-.25,1.58,1.58,0,0,0-1,.22.64.64,0,0,0-.28.52.53.53,0,0,0,.12.34.85.85,0,0,0,.37.26l.85.25a11.89,11.89,0,0,1,1.43.45,1.45,1.45,0,0,1,.64.51,1.42,1.42,0,0,1,.23.83,1.62,1.62,0,0,1-.28.91,1.83,1.83,0,0,1-.81.66,3,3,0,0,1-1.2.23,2.68,2.68,0,0,1-1.69-.46A2.15,2.15,0,0,1,51.75,39.71Z"/><path d="M57.47,39.71l1-.15a1.33,1.33,0,0,0,.45.88,1.56,1.56,0,0,0,1,.31,1.51,1.51,0,0,0,1-.27.81.81,0,0,0,.32-.64.59.59,0,0,0-.28-.52,4.18,4.18,0,0,0-1-.33,9,9,0,0,1-1.47-.46,1.41,1.41,0,0,1-.84-1.31,1.47,1.47,0,0,1,.17-.71,1.57,1.57,0,0,1,.48-.54,2,2,0,0,1,.62-.28,2.93,2.93,0,0,1,.83-.12,3.3,3.3,0,0,1,1.18.19,1.6,1.6,0,0,1,.75.52,2.05,2.05,0,0,1,.33.88L61,37.3a1,1,0,0,0-.37-.69,1.36,1.36,0,0,0-.87-.25,1.58,1.58,0,0,0-1,.22.64.64,0,0,0-.28.52.53.53,0,0,0,.12.34.85.85,0,0,0,.37.26l.85.25a11.89,11.89,0,0,1,1.43.45,1.45,1.45,0,0,1,.64.51,1.42,1.42,0,0,1,.23.83,1.62,1.62,0,0,1-.28.91,1.83,1.83,0,0,1-.81.66,3,3,0,0,1-1.2.23,2.68,2.68,0,0,1-1.69-.46A2.15,2.15,0,0,1,57.47,39.71Z"/><path d="M72.59,38.65l1,.26a3.51,3.51,0,0,1-1.18,2,3.25,3.25,0,0,1-2.08.67A3.74,3.74,0,0,1,68.3,41a3.24,3.24,0,0,1-1.21-1.5,5.36,5.36,0,0,1-.42-2.11,4.64,4.64,0,0,1,.47-2.15,3.22,3.22,0,0,1,1.34-1.39,3.91,3.91,0,0,1,1.91-.48,3.23,3.23,0,0,1,2,.6,3.12,3.12,0,0,1,1.12,1.69l-1,.24a2.43,2.43,0,0,0-.79-1.25,2.12,2.12,0,0,0-1.31-.39,2.55,2.55,0,0,0-1.52.44A2.3,2.3,0,0,0,68,35.89a4.71,4.71,0,0,0-.25,1.51A4.8,4.8,0,0,0,68,39.16,2.18,2.18,0,0,0,69,40.28a2.55,2.55,0,0,0,1.34.37,2.24,2.24,0,0,0,1.48-.5A2.58,2.58,0,0,0,72.59,38.65Z"/><path d="M74.65,38.56a2.94,2.94,0,0,1,.88-2.35,2.66,2.66,0,0,1,1.79-.63,2.56,2.56,0,0,1,1.92.77A2.93,2.93,0,0,1,80,38.48a3.77,3.77,0,0,1-.33,1.73,2.34,2.34,0,0,1-1,1,2.8,2.8,0,0,1-1.38.35,2.56,2.56,0,0,1-1.94-.77A3.07,3.07,0,0,1,74.65,38.56Zm1,0a2.43,2.43,0,0,0,.48,1.64,1.59,1.59,0,0,0,2.4,0A2.49,2.49,0,0,0,79,38.52a2.36,2.36,0,0,0-.48-1.6,1.59,1.59,0,0,0-2.4,0A2.42,2.42,0,0,0,75.65,38.56Z"/><path d="M85.09,41.41v-.84a2.09,2.09,0,0,1-1.81,1,2.3,2.3,0,0,1-.94-.19,1.55,1.55,0,0,1-.65-.49,1.82,1.82,0,0,1-.3-.72,4.9,4.9,0,0,1-.06-.9V35.7h1v3.16a5.62,5.62,0,0,0,.06,1,1,1,0,0,0,.39.6,1.2,1.2,0,0,0,.73.22,1.59,1.59,0,0,0,.82-.22,1.24,1.24,0,0,0,.54-.61A3.05,3.05,0,0,0,85,38.76V35.7h1v5.7Z"/><path d="M87.69,41.41V35.7h.87v.81a2.05,2.05,0,0,1,1.82-.94,2.37,2.37,0,0,1,.95.19,1.48,1.48,0,0,1,.65.49,1.87,1.87,0,0,1,.3.71,5.55,5.55,0,0,1,.05.94v3.51h-1V37.94a2.61,2.61,0,0,0-.11-.88.93.93,0,0,0-.4-.47,1.27,1.27,0,0,0-.67-.17,1.57,1.57,0,0,0-1.07.39,1.93,1.93,0,0,0-.45,1.49v3.12Z"/><path d="M96.14,40.54l.14.85a3.6,3.6,0,0,1-.73.09,1.66,1.66,0,0,1-.82-.17.93.93,0,0,1-.41-.44,3.46,3.46,0,0,1-.12-1.14V36.46H93.5V35.7h.71V34.29l1-.58v2h1v.75h-1v3.34a1.68,1.68,0,0,0,.05.53.4.4,0,0,0,.17.19.65.65,0,0,0,.33.07Z"/><path d="M183,37.52a7.21,7.21,0,0,1,.29-2.25,2.8,2.8,0,0,1,.85-1.31,2.18,2.18,0,0,1,1.43-.46,2.33,2.33,0,0,1,1.11.25,2.13,2.13,0,0,1,.79.74,4,4,0,0,1,.49,1.17,7.77,7.77,0,0,1,.18,1.86,7.23,7.23,0,0,1-.29,2.24,2.8,2.8,0,0,1-.85,1.32,2.18,2.18,0,0,1-1.43.46,2.16,2.16,0,0,1-1.79-.82A5.19,5.19,0,0,1,183,37.52Zm1,0a4.93,4.93,0,0,0,.45,2.58,1.3,1.3,0,0,0,2.24,0,4.94,4.94,0,0,0,.45-2.58,4.93,4.93,0,0,0-.45-2.58,1.34,1.34,0,0,0-1.13-.64,1.24,1.24,0,0,0-1.06.56A5,5,0,0,0,184,37.52Z"/><path d="M202.11,38l-5.22,2.23v-1L201,37.52l-4.13-1.7v-1l5.22,2.2Z"/><path d="M10.26,52.65l1,.26a3.51,3.51,0,0,1-1.18,2A3.25,3.25,0,0,1,8,55.54,3.74,3.74,0,0,1,6,55a3.24,3.24,0,0,1-1.21-1.5,5.36,5.36,0,0,1-.42-2.11,4.64,4.64,0,0,1,.47-2.15,3.22,3.22,0,0,1,1.34-1.39,3.91,3.91,0,0,1,1.91-.48,3.23,3.23,0,0,1,2,.6,3.12,3.12,0,0,1,1.12,1.69l-1,.24a2.43,2.43,0,0,0-.79-1.25A2.12,2.12,0,0,0,8,48.29a2.55,2.55,0,0,0-1.52.44,2.3,2.3,0,0,0-.86,1.17,4.71,4.71,0,0,0-.25,1.51,4.8,4.8,0,0,0,.29,1.75,2.18,2.18,0,0,0,.91,1.12A2.55,2.55,0,0,0,8,54.65a2.24,2.24,0,0,0,1.48-.5A2.58,2.58,0,0,0,10.26,52.65Z"/><path d="M18.43,52.65l1,.26a3.51,3.51,0,0,1-1.18,2,3.25,3.25,0,0,1-2.08.67A3.74,3.74,0,0,1,14.14,55a3.24,3.24,0,0,1-1.21-1.5,5.36,5.36,0,0,1-.42-2.11A4.64,4.64,0,0,1,13,49.27a3.22,3.22,0,0,1,1.34-1.39,3.91,3.91,0,0,1,1.91-.48,3.23,3.23,0,0,1,2,.6,3.12,3.12,0,0,1,1.12,1.69l-1,.24a2.43,2.43,0,0,0-.79-1.25,2.12,2.12,0,0,0-1.31-.39,2.55,2.55,0,0,0-1.52.44,2.3,2.3,0,0,0-.86,1.17,4.71,4.71,0,0,0-.25,1.51,4.8,4.8,0,0,0,.29,1.75,2.18,2.18,0,0,0,.91,1.12,2.55,2.55,0,0,0,1.34.37,2.24,2.24,0,0,0,1.48-.5A2.58,2.58,0,0,0,18.43,52.65Z"/><path d="M20.93,55.41V47.53h3a3.65,3.65,0,0,1,1.45.24,1.86,1.86,0,0,1,.85.74,1.94,1.94,0,0,1,.31,1,1.79,1.79,0,0,1-.27,1,2,2,0,0,1-.83.72,2.06,2.06,0,0,1,1.1.71,1.91,1.91,0,0,1,.38,1.19,2.3,2.3,0,0,1-.23,1,2,2,0,0,1-.58.73,2.4,2.4,0,0,1-.86.39,5.23,5.23,0,0,1-1.27.13Zm1-4.57h1.7a3.79,3.79,0,0,0,1-.09,1.1,1.1,0,0,0,.6-.39,1.13,1.13,0,0,0,.2-.69,1.27,1.27,0,0,0-.19-.69,1,1,0,0,0-.54-.41,4.5,4.5,0,0,0-1.2-.11H22Zm0,3.64h2a4.54,4.54,0,0,0,.71,0,1.7,1.7,0,0,0,.6-.21,1.14,1.14,0,0,0,.4-.44,1.37,1.37,0,0,0,.16-.66,1.31,1.31,0,0,0-.23-.77,1.19,1.19,0,0,0-.63-.46,3.89,3.89,0,0,0-1.15-.13H22Z"/><path d="M34.06,55.41,31,47.53h1.13l2,5.72q.25.69.41,1.29.18-.64.42-1.29l2.13-5.72h1.06l-3.08,7.87Z"/><path d="M42.54,53.57l1,.12a2.44,2.44,0,0,1-.88,1.36A3,3,0,0,1,39,54.77a3,3,0,0,1-.73-2.16,3.15,3.15,0,0,1,.74-2.23A2.51,2.51,0,0,1,41,49.57a2.44,2.44,0,0,1,1.87.78,3.09,3.09,0,0,1,.73,2.19c0,.06,0,.14,0,.26H39.31a2.19,2.19,0,0,0,.53,1.44,1.58,1.58,0,0,0,1.19.5,1.48,1.48,0,0,0,.91-.28A1.86,1.86,0,0,0,42.54,53.57ZM39.36,52h3.19a1.93,1.93,0,0,0-.37-1.08,1.48,1.48,0,0,0-1.2-.56,1.53,1.53,0,0,0-1.12.45A1.76,1.76,0,0,0,39.36,52Z"/><path d="M45,55.41V49.7h.87v.86a2.37,2.37,0,0,1,.61-.8,1.08,1.08,0,0,1,.62-.19,1.89,1.89,0,0,1,1,.31l-.33.9a1.38,1.38,0,0,0-.71-.21.92.92,0,0,0-.57.19,1,1,0,0,0-.36.53,3.77,3.77,0,0,0-.16,1.13v3Z"/><path d="M48.47,53.71l1-.15a1.33,1.33,0,0,0,.45.88,1.56,1.56,0,0,0,1,.31,1.51,1.51,0,0,0,1-.27.81.81,0,0,0,.32-.64.59.59,0,0,0-.28-.52,4.18,4.18,0,0,0-1-.33,9,9,0,0,1-1.47-.46,1.41,1.41,0,0,1-.84-1.31,1.47,1.47,0,0,1,.17-.71,1.57,1.57,0,0,1,.48-.54,2,2,0,0,1,.62-.28,2.93,2.93,0,0,1,.83-.12,3.3,3.3,0,0,1,1.18.19,1.6,1.6,0,0,1,.75.52,2.05,2.05,0,0,1,.33.88L52,51.3a1,1,0,0,0-.37-.69,1.36,1.36,0,0,0-.87-.25,1.58,1.58,0,0,0-1,.22.64.64,0,0,0-.28.52.53.53,0,0,0,.12.34.85.85,0,0,0,.37.26l.85.25a11.89,11.89,0,0,1,1.43.45,1.45,1.45,0,0,1,.64.51,1.42,1.42,0,0,1,.23.83,1.62,1.62,0,0,1-.28.91,1.83,1.83,0,0,1-.81.66,3,3,0,0,1-1.2.23,2.68,2.68,0,0,1-1.69-.46A2.15,2.15,0,0,1,48.47,53.71Z"/><path d="M54.58,48.65V47.53h1v1.11Zm0,6.76V49.7h1v5.7Z"/><path d="M56.88,52.56a2.94,2.94,0,0,1,.88-2.35,2.66,2.66,0,0,1,1.79-.63,2.56,2.56,0,0,1,1.92.77,2.93,2.93,0,0,1,.75,2.13,3.77,3.77,0,0,1-.33,1.73,2.34,2.34,0,0,1-1,1,2.8,2.8,0,0,1-1.38.35,2.56,2.56,0,0,1-1.94-.77A3.07,3.07,0,0,1,56.88,52.56Zm1,0a2.43,2.43,0,0,0,.48,1.64,1.59,1.59,0,0,0,2.4,0,2.49,2.49,0,0,0,.48-1.67,2.36,2.36,0,0,0-.48-1.6,1.59,1.59,0,0,0-2.4,0A2.42,2.42,0,0,0,57.87,52.56Z"/><path d="M63.57,55.41V49.7h.87v.81a2.05,2.05,0,0,1,1.82-.94,2.37,2.37,0,0,1,.95.19,1.48,1.48,0,0,1,.65.49,1.87,1.87,0,0,1,.3.71,5.55,5.55,0,0,1,.05.94v3.51h-1V51.94a2.61,2.61,0,0,0-.11-.88.93.93,0,0,0-.4-.47,1.27,1.27,0,0,0-.67-.17A1.57,1.57,0,0,0,65,50.8a1.93,1.93,0,0,0-.45,1.49v3.12Z"/><path d="M167,53.33l1-.13a2.14,2.14,0,0,0,.57,1.18,1.4,1.4,0,0,0,1,.36,1.56,1.56,0,0,0,1.15-.47,1.59,1.59,0,0,0,.47-1.17,1.48,1.48,0,0,0-.44-1.1,1.5,1.5,0,0,0-1.11-.43,2.77,2.77,0,0,0-.68.11l.11-.85h.16a2,2,0,0,0,1.11-.32,1.1,1.1,0,0,0,.49-1,1.17,1.17,0,0,0-.36-.88,1.28,1.28,0,0,0-.93-.35,1.32,1.32,0,0,0-.94.35,1.78,1.78,0,0,0-.48,1.06l-1-.17a2.49,2.49,0,0,1,.8-1.51,2.33,2.33,0,0,1,1.56-.53,2.58,2.58,0,0,1,1.19.28,2,2,0,0,1,.83.75,1.94,1.94,0,0,1,.29,1,1.66,1.66,0,0,1-.27.93,1.87,1.87,0,0,1-.81.67,1.82,1.82,0,0,1,1.08.67,2,2,0,0,1,.39,1.27,2.32,2.32,0,0,1-.75,1.75,2.64,2.64,0,0,1-1.9.72,2.48,2.48,0,0,1-1.72-.62A2.39,2.39,0,0,1,167,53.33Z"/><path d="M173.91,55.41v-1.1H175v1.1Z"/><path d="M180.28,55.41h-1V49.25a5,5,0,0,1-.92.67,6.47,6.47,0,0,1-1,.5v-.93a5.83,5.83,0,0,0,1.42-.92,3.62,3.62,0,0,0,.86-1.05h.62Z"/><path d="M183,48.56v-.93h5.1v.75a10.76,10.76,0,0,0-1.49,2.13,12.91,12.91,0,0,0-1.14,2.73,10.2,10.2,0,0,0-.37,2.16h-1a9.61,9.61,0,0,1,.37-2.25,11.8,11.8,0,0,1,1-2.54,10.87,10.87,0,0,1,1.39-2.06Z"/><path d="M202.11,52l-5.22,2.23v-1L201,51.52l-4.13-1.7v-1l5.22,2.2Z"/><path d="M10.26,66.65l1,.26a3.51,3.51,0,0,1-1.18,2A3.25,3.25,0,0,1,8,69.54,3.75,3.75,0,0,1,6,69a3.24,3.24,0,0,1-1.21-1.5,5.36,5.36,0,0,1-.42-2.11,4.64,4.64,0,0,1,.47-2.15,3.22,3.22,0,0,1,1.34-1.39,3.91,3.91,0,0,1,1.91-.48,3.23,3.23,0,0,1,2,.6,3.12,3.12,0,0,1,1.12,1.69l-1,.24a2.43,2.43,0,0,0-.79-1.25A2.12,2.12,0,0,0,8,62.29a2.55,2.55,0,0,0-1.52.44,2.3,2.3,0,0,0-.86,1.17,4.71,4.71,0,0,0-.25,1.51,4.79,4.79,0,0,0,.29,1.75,2.18,2.18,0,0,0,.91,1.12A2.56,2.56,0,0,0,8,68.65a2.25,2.25,0,0,0,1.48-.5A2.58,2.58,0,0,0,10.26,66.65Z"/><path d="M12.33,66.56a2.94,2.94,0,0,1,.88-2.35A2.66,2.66,0,0,1,15,63.57a2.56,2.56,0,0,1,1.92.77,2.93,2.93,0,0,1,.75,2.13,3.77,3.77,0,0,1-.33,1.73,2.34,2.34,0,0,1-1,1,2.79,2.79,0,0,1-1.38.35,2.57,2.57,0,0,1-1.94-.77A3.07,3.07,0,0,1,12.33,66.56Zm1,0a2.43,2.43,0,0,0,.48,1.64,1.59,1.59,0,0,0,2.4,0,2.49,2.49,0,0,0,.48-1.67,2.36,2.36,0,0,0-.48-1.6,1.59,1.59,0,0,0-2.4,0A2.42,2.42,0,0,0,13.32,66.56Z"/><path d="M19,69.41V63.7h.87v.81a2.05,2.05,0,0,1,1.82-.94,2.37,2.37,0,0,1,.95.19,1.48,1.48,0,0,1,.65.49,1.87,1.87,0,0,1,.3.71,5.55,5.55,0,0,1,.05.94v3.51h-1V65.94a2.61,2.61,0,0,0-.11-.88.93.93,0,0,0-.4-.47,1.27,1.27,0,0,0-.67-.17,1.57,1.57,0,0,0-1.07.39A1.93,1.93,0,0,0,20,66.29v3.11Z"/><path d="M25.59,69.41v-5h-.85V63.7h.85V63.1a2.66,2.66,0,0,1,.1-.85,1.23,1.23,0,0,1,.49-.61,1.77,1.77,0,0,1,1-.23,4.74,4.74,0,0,1,.9.1l-.15.84a3.26,3.26,0,0,0-.57-.05.85.85,0,0,0-.62.19,1,1,0,0,0-.18.7v.53h1.11v.75H26.55v5Z"/><path d="M28.64,62.65V61.53h1v1.11Zm0,6.76V63.7h1v5.7Z"/><path d="M31.12,69.88l.94.14a.89.89,0,0,0,.33.63,1.6,1.6,0,0,0,1,.27,1.72,1.72,0,0,0,1-.27,1.32,1.32,0,0,0,.49-.75A6.16,6.16,0,0,0,35,68.66a2,2,0,0,1-1.58.75,2.15,2.15,0,0,1-1.82-.85,3.27,3.27,0,0,1-.64-2,3.79,3.79,0,0,1,.3-1.51A2.36,2.36,0,0,1,32.08,64a2.31,2.31,0,0,1,1.32-.38,2,2,0,0,1,1.67.82V63.7H36v4.93a4.67,4.67,0,0,1-.27,1.89,2,2,0,0,1-.86.88,3,3,0,0,1-1.45.32,2.73,2.73,0,0,1-1.65-.46A1.55,1.55,0,0,1,31.12,69.88Zm.8-3.43a2.47,2.47,0,0,0,.45,1.64,1.47,1.47,0,0,0,2.23,0,2.4,2.4,0,0,0,.45-1.61,2.34,2.34,0,0,0-.46-1.58,1.44,1.44,0,0,0-1.12-.53,1.39,1.39,0,0,0-1.1.52A2.32,2.32,0,0,0,31.92,66.45Z"/><path d="M46.66,66.65l1,.26a3.51,3.51,0,0,1-1.18,2,3.25,3.25,0,0,1-2.08.67A3.75,3.75,0,0,1,42.37,69a3.24,3.24,0,0,1-1.21-1.5,5.36,5.36,0,0,1-.42-2.11,4.64,4.64,0,0,1,.47-2.15,3.22,3.22,0,0,1,1.34-1.39,3.91,3.91,0,0,1,1.91-.48,3.23,3.23,0,0,1,2,.6,3.12,3.12,0,0,1,1.12,1.69l-1,.24a2.43,2.43,0,0,0-.79-1.25,2.12,2.12,0,0,0-1.31-.39,2.55,2.55,0,0,0-1.52.44,2.3,2.3,0,0,0-.86,1.17,4.71,4.71,0,0,0-.25,1.51,4.79,4.79,0,0,0,.29,1.75A2.18,2.18,0,0,0,43,68.28a2.56,2.56,0,0,0,1.34.37,2.25,2.25,0,0,0,1.48-.5A2.58,2.58,0,0,0,46.66,66.65Z"/><path d="M49.22,69.41V61.53h3.49a4.66,4.66,0,0,1,1.6.21,1.75,1.75,0,0,1,.88.75,2.24,2.24,0,0,1,.33,1.19A2,2,0,0,1,55,65.09a2.75,2.75,0,0,1-1.68.73,2.69,2.69,0,0,1,.63.39,5.43,5.43,0,0,1,.86,1l1.37,2.14H54.85l-1-1.64q-.46-.71-.75-1.08a2.38,2.38,0,0,0-.53-.53,1.58,1.58,0,0,0-.48-.21,3.14,3.14,0,0,0-.58,0H50.26v3.5Zm1-4.4H52.5a3.35,3.35,0,0,0,1.12-.15,1.19,1.19,0,0,0,.61-.47,1.28,1.28,0,0,0,.21-.71,1.17,1.17,0,0,0-.41-.92,1.9,1.9,0,0,0-1.28-.36H50.26Z"/><path d="M63,66.65l1,.26a3.51,3.51,0,0,1-1.18,2,3.25,3.25,0,0,1-2.08.67A3.75,3.75,0,0,1,58.69,69a3.24,3.24,0,0,1-1.21-1.5,5.36,5.36,0,0,1-.42-2.11,4.64,4.64,0,0,1,.47-2.15,3.22,3.22,0,0,1,1.34-1.39,3.91,3.91,0,0,1,1.91-.48,3.23,3.23,0,0,1,2,.6,3.12,3.12,0,0,1,1.12,1.69l-1,.24a2.43,2.43,0,0,0-.79-1.25,2.12,2.12,0,0,0-1.31-.39,2.55,2.55,0,0,0-1.52.44,2.3,2.3,0,0,0-.86,1.17,4.71,4.71,0,0,0-.25,1.51,4.79,4.79,0,0,0,.29,1.75,2.18,2.18,0,0,0,.91,1.12,2.56,2.56,0,0,0,1.34.37,2.25,2.25,0,0,0,1.48-.5A2.58,2.58,0,0,0,63,66.65Z"/><path d="M148.86,65.52a7.18,7.18,0,0,1,.29-2.25A2.79,2.79,0,0,1,150,62a2.18,2.18,0,0,1,1.43-.46,2.33,2.33,0,0,1,1.11.25,2.12,2.12,0,0,1,.79.74,3.93,3.93,0,0,1,.49,1.17,7.78,7.78,0,0,1,.18,1.86,7.2,7.2,0,0,1-.28,2.24,2.8,2.8,0,0,1-.85,1.32,2.4,2.4,0,0,1-3.22-.35A5.19,5.19,0,0,1,148.86,65.52Zm1,0a4.93,4.93,0,0,0,.45,2.58,1.3,1.3,0,0,0,2.24,0,4.94,4.94,0,0,0,.45-2.58,4.93,4.93,0,0,0-.45-2.58,1.35,1.35,0,0,0-1.13-.64,1.24,1.24,0,0,0-1.06.56A5,5,0,0,0,149.86,65.52Z"/><path d="M154.83,69.41l2.08-3L155,63.7h1.21l.88,1.34q.25.38.4.64l.44-.63,1-1.35H160l-2,2.69,2.12,3H159l-1.17-1.77-.31-.48L156,69.41Z"/><path d="M161.31,69.41V61.53H164a6.58,6.58,0,0,1,1.4.11,2.67,2.67,0,0,1,1.15.56,3.2,3.2,0,0,1,.93,1.35,5.28,5.28,0,0,1,.31,1.87,5.46,5.46,0,0,1-.21,1.59,3.83,3.83,0,0,1-.54,1.15,2.83,2.83,0,0,1-.72.71,2.9,2.9,0,0,1-.94.4,5.41,5.41,0,0,1-1.27.13Zm1-.93H164a4,4,0,0,0,1.22-.15,1.74,1.74,0,0,0,.71-.41,2.47,2.47,0,0,0,.58-1,4.87,4.87,0,0,0,.21-1.52,3.67,3.67,0,0,0-.41-1.9,2,2,0,0,0-1-.89,4.07,4.07,0,0,0-1.35-.16h-1.65Z"/><path d="M169.15,62.56v-.93h5.1v.75a10.76,10.76,0,0,0-1.49,2.13,12.91,12.91,0,0,0-1.14,2.73,10.2,10.2,0,0,0-.37,2.16h-1a9.61,9.61,0,0,1,.37-2.24,11.8,11.8,0,0,1,1-2.54A10.87,10.87,0,0,1,173,62.56Z"/><path d="M175,69.41l3-7.87h1.12l3.22,7.87h-1.19L180.21,67h-3.29l-.87,2.38Zm2.27-3.23h2.67L179.07,64q-.38-1-.56-1.63a10.07,10.07,0,0,1-.42,1.5Z"/><path d="M183,62.56v-.93h5.1v.75a10.76,10.76,0,0,0-1.49,2.13,12.91,12.91,0,0,0-1.14,2.73,10.2,10.2,0,0,0-.37,2.16h-1a9.61,9.61,0,0,1,.37-2.24,11.8,11.8,0,0,1,1-2.54,10.87,10.87,0,0,1,1.39-2.06Z"/><path d="M202.11,66l-5.22,2.23v-1L201,65.52l-4.13-1.7v-1l5.22,2.2Z"/><path d="M9.81,75.53h1v4.55A5.38,5.38,0,0,1,10.59,82a2.3,2.3,0,0,1-1,1.14,3.44,3.44,0,0,1-1.84.44A3.78,3.78,0,0,1,6,83.16a2.18,2.18,0,0,1-1-1.1,5.26,5.26,0,0,1-.3-2V75.53h1v4.54a4.41,4.41,0,0,0,.19,1.51,1.45,1.45,0,0,0,.66.75,2.27,2.27,0,0,0,1.14.26,2.17,2.17,0,0,0,1.64-.52,3,3,0,0,0,.49-2Z"/><path d="M13,83.41V75.53h1v7.87Z"/><path d="M16.05,83.41V75.53h1.57l1.86,5.57q.26.78.38,1.17.13-.43.42-1.26l1.89-5.48h1.4v7.87h-1V76.82l-2.29,6.59h-.94l-2.28-6.7v6.7Z"/><path d="M31,83.41l-3.05-7.87h1.13l2,5.72q.25.69.41,1.29.18-.64.42-1.29l2.13-5.72h1.06l-3.08,7.87Z"/><path d="M39.48,81.57l1,.12a2.44,2.44,0,0,1-.88,1.36A3,3,0,0,1,36,82.77a3,3,0,0,1-.73-2.16A3.15,3.15,0,0,1,36,78.37a2.51,2.51,0,0,1,1.92-.79,2.44,2.44,0,0,1,1.87.78,3.09,3.09,0,0,1,.73,2.19c0,.06,0,.14,0,.26H36.25a2.19,2.19,0,0,0,.53,1.44,1.58,1.58,0,0,0,1.19.5,1.48,1.48,0,0,0,.91-.28A1.85,1.85,0,0,0,39.48,81.57ZM36.3,80h3.19a1.93,1.93,0,0,0-.37-1.08,1.48,1.48,0,0,0-1.2-.56,1.54,1.54,0,0,0-1.12.45A1.76,1.76,0,0,0,36.3,80Z"/><path d="M41.9,83.41V77.7h.87v.86a2.36,2.36,0,0,1,.61-.8,1.08,1.08,0,0,1,.62-.19,1.89,1.89,0,0,1,1,.31l-.33.9a1.38,1.38,0,0,0-.71-.21.92.92,0,0,0-.57.19,1,1,0,0,0-.36.53,3.76,3.76,0,0,0-.16,1.13v3Z"/><path d="M45.4,81.71l1-.15a1.33,1.33,0,0,0,.45.88,1.56,1.56,0,0,0,1,.31,1.51,1.51,0,0,0,1-.27.81.81,0,0,0,.32-.64.59.59,0,0,0-.28-.52,4.17,4.17,0,0,0-1-.33,9,9,0,0,1-1.47-.46,1.41,1.41,0,0,1-.84-1.31,1.46,1.46,0,0,1,.17-.71,1.57,1.57,0,0,1,.48-.54,2,2,0,0,1,.62-.28,2.91,2.91,0,0,1,.83-.12,3.3,3.3,0,0,1,1.18.19,1.6,1.6,0,0,1,.75.52,2.05,2.05,0,0,1,.33.88L49,79.3a1,1,0,0,0-.37-.69,1.37,1.37,0,0,0-.87-.25,1.58,1.58,0,0,0-1,.22.64.64,0,0,0-.28.52.54.54,0,0,0,.12.34.86.86,0,0,0,.37.26l.85.25a11.85,11.85,0,0,1,1.43.45,1.45,1.45,0,0,1,.64.51,1.41,1.41,0,0,1,.23.83,1.62,1.62,0,0,1-.28.91,1.83,1.83,0,0,1-.81.66,3,3,0,0,1-1.2.23,2.68,2.68,0,0,1-1.69-.46A2.15,2.15,0,0,1,45.4,81.71Z"/><path d="M51.52,76.65V75.53h1v1.11Zm0,6.76V77.7h1v5.7Z"/><path d="M53.82,80.56a2.94,2.94,0,0,1,.88-2.35,2.66,2.66,0,0,1,1.79-.63,2.56,2.56,0,0,1,1.92.77,2.94,2.94,0,0,1,.75,2.13,3.77,3.77,0,0,1-.33,1.73,2.34,2.34,0,0,1-1,1,2.79,2.79,0,0,1-1.38.35,2.57,2.57,0,0,1-1.94-.77A3.07,3.07,0,0,1,53.82,80.56Zm1,0a2.43,2.43,0,0,0,.48,1.64,1.59,1.59,0,0,0,2.4,0,2.49,2.49,0,0,0,.48-1.67,2.35,2.35,0,0,0-.48-1.6,1.59,1.59,0,0,0-2.4,0A2.42,2.42,0,0,0,54.81,80.56Z"/><path d="M60.51,83.41V77.7h.87v.81a2,2,0,0,1,1.82-.94,2.35,2.35,0,0,1,.95.19,1.49,1.49,0,0,1,.65.49,1.86,1.86,0,0,1,.3.71,5.56,5.56,0,0,1,.05.94v3.51h-1V79.94a2.61,2.61,0,0,0-.11-.88.94.94,0,0,0-.4-.47,1.28,1.28,0,0,0-.67-.17,1.57,1.57,0,0,0-1.07.39,1.93,1.93,0,0,0-.45,1.49v3.12Z"/><path d="M172.11,82.48v.93h-5.21a1.72,1.72,0,0,1,.11-.67,3.56,3.56,0,0,1,.64-1,9.89,9.89,0,0,1,1.26-1.19,10.71,10.71,0,0,0,1.74-1.67,2,2,0,0,0,.45-1.16,1.29,1.29,0,0,0-.41-1,1.48,1.48,0,0,0-1.07-.39,1.51,1.51,0,0,0-1.12.42,1.58,1.58,0,0,0-.42,1.16l-1-.1a2.44,2.44,0,0,1,.77-1.69,2.62,2.62,0,0,1,1.79-.58,2.49,2.49,0,0,1,1.79.63,2.06,2.06,0,0,1,.66,1.56,2.36,2.36,0,0,1-.19.93,3.61,3.61,0,0,1-.64,1A15.69,15.69,0,0,1,169.77,81q-.87.73-1.12,1a3.2,3.2,0,0,0-.41.52Z"/><path d="M173.91,83.41v-1.1H175v1.1Z"/><path d="M176.64,81.34l1-.09a1.83,1.83,0,0,0,.52,1.12,1.43,1.43,0,0,0,1,.37,1.55,1.55,0,0,0,1.18-.53,2,2,0,0,0,.48-1.4,1.8,1.8,0,0,0-.46-1.31,1.62,1.62,0,0,0-1.22-.48,1.69,1.69,0,0,0-.84.21,1.65,1.65,0,0,0-.59.55l-.91-.12.76-4h3.92v.92h-3.14l-.42,2.12a2.57,2.57,0,0,1,1.49-.49,2.36,2.36,0,0,1,1.74.71,2.5,2.5,0,0,1,.71,1.84,2.87,2.87,0,0,1-.62,1.85,2.5,2.5,0,0,1-2.07,1,2.55,2.55,0,0,1-1.75-.6A2.34,2.34,0,0,1,176.64,81.34Z"/><path d="M184.47,79.14a1.81,1.81,0,0,1-.89-.63,1.64,1.64,0,0,1-.29-1,1.91,1.91,0,0,1,.62-1.45,2.6,2.6,0,0,1,3.3,0,1.94,1.94,0,0,1,.63,1.46,1.61,1.61,0,0,1-.29,1,1.81,1.81,0,0,1-.87.63,2.13,2.13,0,0,1,1.1.76,2.1,2.1,0,0,1,.38,1.26,2.26,2.26,0,0,1-.71,1.7,2.91,2.91,0,0,1-3.76,0,2.3,2.3,0,0,1-.71-1.72,2.08,2.08,0,0,1,.39-1.29A2,2,0,0,1,184.47,79.14Zm-.5,2a1.75,1.75,0,0,0,.2.8,1.37,1.37,0,0,0,.58.6,1.69,1.69,0,0,0,.83.21,1.56,1.56,0,0,0,1.14-.45,1.53,1.53,0,0,0,.45-1.13,1.55,1.55,0,0,0-.46-1.16,1.6,1.6,0,0,0-1.16-.46A1.54,1.54,0,0,0,184,81.14Zm.31-3.64a1.23,1.23,0,0,0,.36.91,1.27,1.27,0,0,0,.93.35,1.25,1.25,0,0,0,.92-.35,1.16,1.16,0,0,0,.36-.86,1.21,1.21,0,0,0-.37-.89,1.25,1.25,0,0,0-.92-.36,1.27,1.27,0,0,0-.92.36A1.14,1.14,0,0,0,184.28,77.5Z"/><path d="M202.11,80l-5.22,2.23v-1L201,79.52l-4.13-1.7v-1l5.22,2.2Z"/><path d="M10.26,94.65l1,.26a3.51,3.51,0,0,1-1.18,2A3.25,3.25,0,0,1,8,97.54,3.75,3.75,0,0,1,6,97a3.24,3.24,0,0,1-1.21-1.5,5.36,5.36,0,0,1-.42-2.11,4.64,4.64,0,0,1,.47-2.14,3.23,3.23,0,0,1,1.34-1.39,3.91,3.91,0,0,1,1.91-.47,3.23,3.23,0,0,1,2,.6,3.12,3.12,0,0,1,1.12,1.69l-1,.24a2.44,2.44,0,0,0-.79-1.25A2.12,2.12,0,0,0,8,90.29a2.55,2.55,0,0,0-1.52.43,2.3,2.3,0,0,0-.86,1.17,4.72,4.72,0,0,0-.25,1.51,4.79,4.79,0,0,0,.29,1.75,2.18,2.18,0,0,0,.91,1.12A2.56,2.56,0,0,0,8,96.65a2.25,2.25,0,0,0,1.48-.5A2.58,2.58,0,0,0,10.26,94.65Z"/><path d="M12.33,94.56a2.94,2.94,0,0,1,.88-2.35A2.66,2.66,0,0,1,15,91.58a2.56,2.56,0,0,1,1.92.77,2.94,2.94,0,0,1,.75,2.13,3.77,3.77,0,0,1-.33,1.73,2.34,2.34,0,0,1-1,1,2.79,2.79,0,0,1-1.38.35,2.57,2.57,0,0,1-1.94-.77A3.07,3.07,0,0,1,12.33,94.56Zm1,0a2.43,2.43,0,0,0,.48,1.64,1.59,1.59,0,0,0,2.4,0,2.49,2.49,0,0,0,.48-1.67,2.35,2.35,0,0,0-.48-1.6,1.59,1.59,0,0,0-2.4,0A2.42,2.42,0,0,0,13.32,94.56Z"/><path d="M19,97.41V91.7h.87v.81a2,2,0,0,1,1.82-.94,2.35,2.35,0,0,1,.95.19,1.49,1.49,0,0,1,.65.49,1.86,1.86,0,0,1,.3.71,5.56,5.56,0,0,1,.05.94v3.51h-1V93.94a2.61,2.61,0,0,0-.11-.88.94.94,0,0,0-.4-.47,1.28,1.28,0,0,0-.67-.17,1.57,1.57,0,0,0-1.07.39A1.93,1.93,0,0,0,20,94.29v3.12Z"/><path d="M25.59,97.41v-5h-.85V91.7h.85V91.1a2.66,2.66,0,0,1,.1-.85,1.23,1.23,0,0,1,.49-.61,1.77,1.77,0,0,1,1-.23,4.74,4.74,0,0,1,.9.1l-.15.84a3.3,3.3,0,0,0-.57-.05.85.85,0,0,0-.62.19,1,1,0,0,0-.18.7v.53h1.11v.75H26.55v5Z"/><path d="M28.64,90.65V89.53h1v1.11Zm0,6.76V91.7h1v5.7Z"/><path d="M31.12,97.88l.94.14a.89.89,0,0,0,.33.63,1.6,1.6,0,0,0,1,.27,1.72,1.72,0,0,0,1-.27,1.32,1.32,0,0,0,.49-.75A6.16,6.16,0,0,0,35,96.66a2,2,0,0,1-1.58.75,2.15,2.15,0,0,1-1.82-.85,3.27,3.27,0,0,1-.64-2,3.8,3.8,0,0,1,.3-1.51A2.36,2.36,0,0,1,32.08,92a2.32,2.32,0,0,1,1.32-.37,2,2,0,0,1,1.67.82V91.7H36v4.93a4.67,4.67,0,0,1-.27,1.89,2,2,0,0,1-.86.88,3,3,0,0,1-1.45.32,2.73,2.73,0,0,1-1.65-.46A1.55,1.55,0,0,1,31.12,97.88Zm.8-3.43a2.47,2.47,0,0,0,.45,1.64,1.47,1.47,0,0,0,2.23,0,2.4,2.4,0,0,0,.45-1.61,2.33,2.33,0,0,0-.46-1.58,1.43,1.43,0,0,0-1.12-.53,1.39,1.39,0,0,0-1.1.52A2.32,2.32,0,0,0,31.92,94.45Z"/><path d="M41.38,97.41v-.84a2.09,2.09,0,0,1-1.81,1,2.3,2.3,0,0,1-.94-.19,1.55,1.55,0,0,1-.65-.49,1.82,1.82,0,0,1-.3-.72,4.89,4.89,0,0,1-.06-.9V91.7h1v3.16a5.62,5.62,0,0,0,.06,1,1,1,0,0,0,.39.6,1.2,1.2,0,0,0,.73.22,1.59,1.59,0,0,0,.82-.22,1.24,1.24,0,0,0,.54-.61,3,3,0,0,0,.16-1.11V91.7h1v5.7Z"/><path d="M44,97.41V91.7h.87v.86a2.36,2.36,0,0,1,.61-.8,1.08,1.08,0,0,1,.62-.19,1.89,1.89,0,0,1,1,.31l-.33.9a1.38,1.38,0,0,0-.71-.21.92.92,0,0,0-.57.19,1,1,0,0,0-.36.53,3.76,3.76,0,0,0-.16,1.13v3Z"/><path d="M51.58,96.7a3.58,3.58,0,0,1-1,.64,3,3,0,0,1-1.07.19A2.07,2.07,0,0,1,48,97.08a1.52,1.52,0,0,1-.5-1.17,1.58,1.58,0,0,1,.69-1.32,2.31,2.31,0,0,1,.7-.32,7,7,0,0,1,.86-.15,8.82,8.82,0,0,0,1.72-.33c0-.13,0-.22,0-.25a1.07,1.07,0,0,0-.27-.83,1.62,1.62,0,0,0-1.1-.33,1.7,1.7,0,0,0-1,.24,1.46,1.46,0,0,0-.48.85l-.95-.13a2.35,2.35,0,0,1,.42-1,1.87,1.87,0,0,1,.85-.57,3.8,3.8,0,0,1,1.29-.2,3.41,3.41,0,0,1,1.19.17,1.56,1.56,0,0,1,.67.43,1.52,1.52,0,0,1,.3.66,5.44,5.44,0,0,1,0,.89V95a13.6,13.6,0,0,0,.06,1.71,2.15,2.15,0,0,0,.24.68h-1A2.05,2.05,0,0,1,51.58,96.7Zm-.08-2.16a7.1,7.1,0,0,1-1.58.37,3.69,3.69,0,0,0-.84.19.84.84,0,0,0-.38.31.86.86,0,0,0,.16,1.1,1.26,1.26,0,0,0,.86.26,2,2,0,0,0,1-.25,1.5,1.5,0,0,0,.64-.67,2.33,2.33,0,0,0,.16-1Z"/><path d="M56.31,96.54l.14.85a3.63,3.63,0,0,1-.73.09,1.66,1.66,0,0,1-.82-.17.93.93,0,0,1-.41-.44,3.46,3.46,0,0,1-.12-1.14V92.46h-.71V91.7h.71V90.29l1-.58v2h1v.75h-1v3.33a1.68,1.68,0,0,0,.05.53.41.41,0,0,0,.17.19.64.64,0,0,0,.33.07Z"/><path d="M57.48,90.65V89.53h1v1.11Zm0,6.76V91.7h1v5.7Z"/><path d="M59.78,94.56a2.94,2.94,0,0,1,.88-2.35,2.66,2.66,0,0,1,1.79-.63,2.56,2.56,0,0,1,1.92.77,2.94,2.94,0,0,1,.75,2.13,3.77,3.77,0,0,1-.33,1.73,2.34,2.34,0,0,1-1,1,2.79,2.79,0,0,1-1.38.35,2.57,2.57,0,0,1-1.94-.77A3.07,3.07,0,0,1,59.78,94.56Zm1,0a2.43,2.43,0,0,0,.48,1.64,1.59,1.59,0,0,0,2.4,0,2.49,2.49,0,0,0,.48-1.67,2.35,2.35,0,0,0-.48-1.6,1.59,1.59,0,0,0-2.4,0A2.42,2.42,0,0,0,60.77,94.56Z"/><path d="M66.47,97.41V91.7h.87v.81a2,2,0,0,1,1.82-.94,2.35,2.35,0,0,1,.95.19,1.49,1.49,0,0,1,.65.49,1.86,1.86,0,0,1,.3.71,5.56,5.56,0,0,1,.05.94v3.51h-1V93.94a2.61,2.61,0,0,0-.11-.88.94.94,0,0,0-.4-.47,1.28,1.28,0,0,0-.67-.17,1.57,1.57,0,0,0-1.07.39,1.93,1.93,0,0,0-.45,1.49v3.12Z"/><path d="M76.23,97.41V89.53h3.49a4.67,4.67,0,0,1,1.6.21,1.76,1.76,0,0,1,.88.75,2.24,2.24,0,0,1,.33,1.19A2,2,0,0,1,82,93.09a2.75,2.75,0,0,1-1.68.73,2.71,2.71,0,0,1,.63.39,5.41,5.41,0,0,1,.86,1l1.37,2.14H81.86l-1-1.64q-.46-.71-.75-1.08a2.39,2.39,0,0,0-.53-.53,1.58,1.58,0,0,0-.48-.21,3.2,3.2,0,0,0-.58,0H77.27v3.5Zm1-4.4h2.24a3.33,3.33,0,0,0,1.12-.15,1.18,1.18,0,0,0,.61-.47,1.27,1.27,0,0,0,.21-.71,1.17,1.17,0,0,0-.41-.92,1.9,1.9,0,0,0-1.28-.36H77.27Z"/><path d="M88,96.7a3.58,3.58,0,0,1-1,.64,3,3,0,0,1-1.07.19,2.07,2.07,0,0,1-1.44-.46,1.52,1.52,0,0,1-.5-1.17,1.58,1.58,0,0,1,.69-1.32,2.31,2.31,0,0,1,.7-.32,7,7,0,0,1,.86-.15,8.82,8.82,0,0,0,1.72-.33c0-.13,0-.22,0-.25a1.07,1.07,0,0,0-.27-.83,1.62,1.62,0,0,0-1.1-.33,1.7,1.7,0,0,0-1,.24,1.46,1.46,0,0,0-.48.85l-.95-.13a2.35,2.35,0,0,1,.42-1,1.87,1.87,0,0,1,.85-.57,3.8,3.8,0,0,1,1.29-.2,3.41,3.41,0,0,1,1.19.17,1.56,1.56,0,0,1,.67.43,1.52,1.52,0,0,1,.3.66,5.44,5.44,0,0,1,0,.89V95a13.6,13.6,0,0,0,.06,1.71,2.15,2.15,0,0,0,.24.68h-1A2.05,2.05,0,0,1,88,96.7Zm-.08-2.16a7.1,7.1,0,0,1-1.58.37,3.69,3.69,0,0,0-.84.19.84.84,0,0,0-.38.31.86.86,0,0,0,.16,1.1,1.26,1.26,0,0,0,.86.26,2,2,0,0,0,1-.25,1.5,1.5,0,0,0,.64-.67,2.33,2.33,0,0,0,.16-1Z"/><path d="M91.64,97.41,89.9,91.7h1L91.8,95l.34,1.22.3-1.18.91-3.34h1L95.19,95l.28,1.09.33-1.1,1-3.3h.94l-1.78,5.7h-1L94,94l-.22-1-1.15,4.39Z"/><path d="M150.08,93.52a7.18,7.18,0,0,1,.29-2.25,2.79,2.79,0,0,1,.85-1.31,2.18,2.18,0,0,1,1.43-.46,2.33,2.33,0,0,1,1.11.26,2.12,2.12,0,0,1,.79.74,4,4,0,0,1,.49,1.17,7.84,7.84,0,0,1,.18,1.86,7.23,7.23,0,0,1-.28,2.24,2.8,2.8,0,0,1-.85,1.32,2.4,2.4,0,0,1-3.22-.35A5.19,5.19,0,0,1,150.08,93.52Zm1,0a4.93,4.93,0,0,0,.46,2.58,1.29,1.29,0,0,0,2.24,0,7.55,7.55,0,0,0,0-5.16,1.35,1.35,0,0,0-1.13-.64,1.24,1.24,0,0,0-1.06.56A5,5,0,0,0,151.08,93.52Z"/><path d="M156,97.41l2.08-3L156.2,91.7h1.21l.88,1.34c.16.25.3.47.4.64l.44-.63,1-1.35h1.16l-2,2.69,2.12,3H160.2L159,95.64l-.31-.48-1.5,2.25Z"/><path d="M162.14,95.34l1-.09a1.82,1.82,0,0,0,.52,1.12,1.42,1.42,0,0,0,1,.37,1.54,1.54,0,0,0,1.18-.53,2,2,0,0,0,.48-1.4,1.8,1.8,0,0,0-.46-1.31,1.62,1.62,0,0,0-1.22-.48,1.7,1.7,0,0,0-.84.21,1.64,1.64,0,0,0-.59.55l-.91-.12.76-4H167v.92h-3.14l-.42,2.12a2.57,2.57,0,0,1,1.49-.49,2.36,2.36,0,0,1,1.74.71,2.5,2.5,0,0,1,.71,1.84,2.86,2.86,0,0,1-.62,1.85,2.5,2.5,0,0,1-2.07,1,2.55,2.55,0,0,1-1.75-.6A2.35,2.35,0,0,1,162.14,95.34Z"/><path d="M172.12,97.41h-1V91.25a5,5,0,0,1-.92.67,6.52,6.52,0,0,1-1,.5v-.94a5.84,5.84,0,0,0,1.42-.92,3.62,3.62,0,0,0,.86-1.05h.62Z"/><path d="M174.82,93.52a7.21,7.21,0,0,1,.29-2.25A2.8,2.8,0,0,1,176,90a2.18,2.18,0,0,1,1.43-.46,2.33,2.33,0,0,1,1.11.26,2.12,2.12,0,0,1,.79.74,4,4,0,0,1,.49,1.17,7.78,7.78,0,0,1,.18,1.86,7.22,7.22,0,0,1-.29,2.24,2.79,2.79,0,0,1-.85,1.32,2.4,2.4,0,0,1-3.22-.35A5.19,5.19,0,0,1,174.82,93.52Zm1,0a4.93,4.93,0,0,0,.45,2.58,1.3,1.3,0,0,0,2.24,0,7.56,7.56,0,0,0,0-5.16,1.35,1.35,0,0,0-1.13-.64,1.24,1.24,0,0,0-1.06.56A5,5,0,0,0,175.81,93.52Z"/><path d="M187.16,94.65l1,.26a3.5,3.5,0,0,1-1.18,2,3.25,3.25,0,0,1-2.08.67,3.75,3.75,0,0,1-2.07-.52,3.25,3.25,0,0,1-1.21-1.5,5.36,5.36,0,0,1-.42-2.11,4.64,4.64,0,0,1,.47-2.14,3.23,3.23,0,0,1,1.34-1.39A3.91,3.91,0,0,1,185,89.4a3.23,3.23,0,0,1,2,.6,3.13,3.13,0,0,1,1.12,1.69l-1,.24a2.44,2.44,0,0,0-.79-1.25,2.12,2.12,0,0,0-1.31-.39,2.56,2.56,0,0,0-1.52.43,2.3,2.3,0,0,0-.86,1.17,4.74,4.74,0,0,0-.25,1.51,4.79,4.79,0,0,0,.29,1.75,2.18,2.18,0,0,0,.91,1.12,2.56,2.56,0,0,0,1.34.37,2.24,2.24,0,0,0,1.48-.5A2.57,2.57,0,0,0,187.16,94.65Z"/><path d="M202.11,94l-5.22,2.23v-1L201,93.52l-4.13-1.7v-1l5.22,2.2Z"/></svg>