<svg id="Layer_1" data-name="Layer 1" xmlns="http://www.w3.org/2000/svg" viewBox="0 0 66.92 66.92"><title>UIM_unable_to_heat_icon</title><path d="M41.59,40.09V37h3.27V34.77H41.59V29.53h3.27V27.33H41.59V22.09h3.27V19.89H41.59V14.65h3.27V12.45H41.59v-.52a8.13,8.13,0,1,0-16.27,0V40.09a13.1,13.1,0,1,0,16.27,0ZM33.46,60.8a10.45,10.45,0,0,1-6-19l.56-.39V11.93a5.48,5.48,0,1,1,11,0V41.44l.56.4a10.45,10.45,0,0,1-6,19Z"/><path d="M38.36,43.45l-1.39-1V38.19l-7-4v8.28l-1.39,1a8.47,8.47,0,1,0,9.78,0Z"/><circle cx="33.46" cy="33.46" r="32.21" style="fill:none;stroke:#000;stroke-linecap:round;stroke-linejoin:round;stroke-width:2.5px"/><line x1="6.84" y1="16.63" x2="60.71" y2="49" style="fill:none;stroke:#000;stroke-linecap:round;stroke-linejoin:round;stroke-width:2.5px"/></svg>