<svg id="Layer_1" data-name="Layer 1" xmlns="http://www.w3.org/2000/svg" viewBox="0 0 225.68 130.33"><title>UIM_heater_information_menu2</title><rect x="0.5" y="0.5" width="224.67" height="129.31" style="fill:none;stroke:#000"/><rect x="1.37" y="0.64" width="223.81" height="14.46" style="stroke:#000"/><rect x="0.49" y="101.87" width="224.67" height="27.94" style="fill:none"/><path d="M68.55,11V3.84h1V6.78h3.91V3.84h1V11h-1V7.62H69.54V11Z" style="fill:#fff"/><path d="M80,9.33l1,.11a2.21,2.21,0,0,1-.84,1.24,2.6,2.6,0,0,1-1.56.44,2.56,2.56,0,0,1-1.89-.7,2.66,2.66,0,0,1-.7-2,2.78,2.78,0,0,1,.71-2,2.45,2.45,0,0,1,1.84-.72,2.39,2.39,0,0,1,1.78.71,2.73,2.73,0,0,1,.69,2c0,.05,0,.13,0,.23H76.89a1.94,1.94,0,0,0,.51,1.31,1.55,1.55,0,0,0,1.14.45,1.46,1.46,0,0,0,.87-.25A1.69,1.69,0,0,0,80,9.33Zm-3-1.42h3a1.71,1.71,0,0,0-.35-1,1.44,1.44,0,0,0-1.14-.51,1.51,1.51,0,0,0-1.07.41A1.57,1.57,0,0,0,76.94,7.91Z" style="fill:#fff"/><path d="M85.9,10.36a3.46,3.46,0,0,1-1,.59,3,3,0,0,1-1,.17,2,2,0,0,1-1.38-.42A1.35,1.35,0,0,1,82,9.63a1.36,1.36,0,0,1,.18-.7,1.46,1.46,0,0,1,.48-.51,2.3,2.3,0,0,1,.66-.29A7,7,0,0,1,84.17,8a8.79,8.79,0,0,0,1.65-.3c0-.12,0-.2,0-.23a.94.94,0,0,0-.26-.76,1.6,1.6,0,0,0-1.05-.3,1.69,1.69,0,0,0-1,.22,1.32,1.32,0,0,0-.46.77l-.9-.12a2.08,2.08,0,0,1,.41-.89,1.78,1.78,0,0,1,.82-.52,3.8,3.8,0,0,1,1.24-.18,3.42,3.42,0,0,1,1.13.16,1.5,1.5,0,0,1,.64.39,1.35,1.35,0,0,1,.29.6,4.71,4.71,0,0,1,0,.81V8.83a11.92,11.92,0,0,0,.06,1.55A1.9,1.9,0,0,0,87,11h-1A1.79,1.79,0,0,1,85.9,10.36Zm-.08-2a7.06,7.06,0,0,1-1.51.33,3.65,3.65,0,0,0-.81.18.79.79,0,0,0-.36.29.72.72,0,0,0-.13.42.73.73,0,0,0,.28.59,1.24,1.24,0,0,0,.82.23,2,2,0,0,0,.95-.22,1.4,1.4,0,0,0,.61-.61,2,2,0,0,0,.15-.88Z" style="fill:#fff"/><path d="M90.46,10.21l.13.78a3.57,3.57,0,0,1-.7.08,1.64,1.64,0,0,1-.78-.15.87.87,0,0,1-.39-.4,3,3,0,0,1-.11-1v-3h-.68V5.81h.68V4.53L89.53,4V5.81h.93V6.5h-.93v3a1.47,1.47,0,0,0,0,.48.37.37,0,0,0,.16.17.64.64,0,0,0,.31.06Z" style="fill:#fff"/><path d="M95.35,9.33l1,.11a2.21,2.21,0,0,1-.84,1.24,2.6,2.6,0,0,1-1.56.44,2.56,2.56,0,0,1-1.89-.7,2.66,2.66,0,0,1-.7-2,2.78,2.78,0,0,1,.71-2,2.45,2.45,0,0,1,1.84-.72,2.39,2.39,0,0,1,1.78.71,2.73,2.73,0,0,1,.69,2c0,.05,0,.13,0,.23H92.27a1.94,1.94,0,0,0,.51,1.31,1.55,1.55,0,0,0,1.14.45,1.46,1.46,0,0,0,.87-.25A1.69,1.69,0,0,0,95.35,9.33Zm-3-1.42h3a1.71,1.71,0,0,0-.35-1,1.44,1.44,0,0,0-1.14-.51,1.51,1.51,0,0,0-1.07.41A1.57,1.57,0,0,0,92.32,7.91Z" style="fill:#fff"/><path d="M97.72,11V5.81h.83V6.6a2.16,2.16,0,0,1,.59-.73,1.06,1.06,0,0,1,.59-.18,1.86,1.86,0,0,1,.95.28l-.32.82a1.37,1.37,0,0,0-.68-.19.91.91,0,0,0-.54.17.94.94,0,0,0-.34.48,3.27,3.27,0,0,0-.15,1V11Z" style="fill:#fff"/><path d="M105,11V3.84h1V11Z" style="fill:#fff"/><path d="M107.85,11V5.81h.83v.74a2,2,0,0,1,1.73-.85,2.37,2.37,0,0,1,.9.17,1.42,1.42,0,0,1,.62.44,1.65,1.65,0,0,1,.29.65,4.8,4.8,0,0,1,.05.85V11h-.92V7.84a2.25,2.25,0,0,0-.11-.8.86.86,0,0,0-.38-.42,1.26,1.26,0,0,0-.64-.16,1.54,1.54,0,0,0-1,.36,1.71,1.71,0,0,0-.43,1.35V11Z" style="fill:#fff"/><path d="M114.17,11V6.5h-.81V5.81h.81V5.26a2.3,2.3,0,0,1,.1-.78,1.13,1.13,0,0,1,.47-.55,1.76,1.76,0,0,1,.94-.21,4.73,4.73,0,0,1,.86.09l-.14.77a3.23,3.23,0,0,0-.54,0,.84.84,0,0,0-.6.17.89.89,0,0,0-.17.64v.48h1.06V6.5h-1.06V11Z" style="fill:#fff"/><path d="M116.79,8.41a2.61,2.61,0,0,1,.84-2.13,2.61,2.61,0,0,1,1.71-.58,2.51,2.51,0,0,1,1.83.7,2.59,2.59,0,0,1,.71,1.94,3.29,3.29,0,0,1-.32,1.57,2.18,2.18,0,0,1-.92.89,2.78,2.78,0,0,1-1.31.32,2.51,2.51,0,0,1-1.85-.7A2.71,2.71,0,0,1,116.79,8.41Zm.95,0a2.13,2.13,0,0,0,.46,1.49,1.57,1.57,0,0,0,2.29,0,2.18,2.18,0,0,0,.46-1.52,2.08,2.08,0,0,0-.46-1.46,1.57,1.57,0,0,0-2.29,0A2.12,2.12,0,0,0,117.73,8.41Z" style="fill:#fff"/><path d="M123.22,11V5.81h.83V6.6a2.15,2.15,0,0,1,.59-.73,1.06,1.06,0,0,1,.59-.18,1.86,1.86,0,0,1,.95.28l-.32.82a1.37,1.37,0,0,0-.68-.19.91.91,0,0,0-.54.17.93.93,0,0,0-.34.48,3.24,3.24,0,0,0-.15,1V11Z" style="fill:#fff"/><path d="M127,11V5.81h.83v.73a1.89,1.89,0,0,1,.68-.61,2,2,0,0,1,1-.23,1.86,1.86,0,0,1,1,.24,1.29,1.29,0,0,1,.55.67,2,2,0,0,1,1.68-.91,1.7,1.7,0,0,1,1.25.43,1.77,1.77,0,0,1,.44,1.32V11h-.92V7.73a2.33,2.33,0,0,0-.09-.76A.75.75,0,0,0,133,6.6a1.06,1.06,0,0,0-.55-.14,1.32,1.32,0,0,0-1,.36A1.56,1.56,0,0,0,131.15,8v3h-.92V7.63a1.43,1.43,0,0,0-.23-.88.87.87,0,0,0-.74-.29,1.39,1.39,0,0,0-.72.2,1.12,1.12,0,0,0-.48.57,3.06,3.06,0,0,0-.15,1.08V11Z" style="fill:#fff"/><path d="M139.55,10.36a3.47,3.47,0,0,1-1,.59,3,3,0,0,1-1,.17,2,2,0,0,1-1.38-.42,1.35,1.35,0,0,1-.48-1.07,1.37,1.37,0,0,1,.18-.7,1.46,1.46,0,0,1,.48-.51,2.3,2.3,0,0,1,.66-.29,7,7,0,0,1,.82-.13,8.8,8.8,0,0,0,1.65-.3c0-.12,0-.2,0-.23a.94.94,0,0,0-.26-.76,1.6,1.6,0,0,0-1.05-.3,1.69,1.69,0,0,0-1,.22,1.32,1.32,0,0,0-.46.77l-.9-.12a2.07,2.07,0,0,1,.41-.89,1.79,1.79,0,0,1,.82-.52,3.8,3.8,0,0,1,1.24-.18,3.42,3.42,0,0,1,1.13.16,1.51,1.51,0,0,1,.64.39,1.35,1.35,0,0,1,.29.6,4.78,4.78,0,0,1,0,.81V8.83a11.92,11.92,0,0,0,.06,1.55,1.92,1.92,0,0,0,.23.62h-1A1.79,1.79,0,0,1,139.55,10.36Zm-.08-2a7,7,0,0,1-1.51.33,3.63,3.63,0,0,0-.8.18.79.79,0,0,0-.36.29.72.72,0,0,0-.13.42.73.73,0,0,0,.28.59,1.24,1.24,0,0,0,.82.23,2,2,0,0,0,.95-.22,1.4,1.4,0,0,0,.61-.61,2,2,0,0,0,.15-.88Z" style="fill:#fff"/><path d="M144.12,10.21l.13.78a3.57,3.57,0,0,1-.7.08,1.64,1.64,0,0,1-.78-.15.87.87,0,0,1-.39-.4,3,3,0,0,1-.11-1v-3h-.68V5.81h.68V4.53l.92-.53V5.81h.93V6.5h-.93v3a1.48,1.48,0,0,0,0,.48.37.37,0,0,0,.16.17.63.63,0,0,0,.31.06Z" style="fill:#fff"/><path d="M145.29,4.85v-1h.92v1Zm0,6.15V5.81h.92V11Z" style="fill:#fff"/><path d="M147.53,8.41a2.61,2.61,0,0,1,.84-2.13,2.61,2.61,0,0,1,1.71-.58,2.51,2.51,0,0,1,1.84.7,2.59,2.59,0,0,1,.71,1.94,3.29,3.29,0,0,1-.32,1.57,2.18,2.18,0,0,1-.92.89,2.78,2.78,0,0,1-1.32.32,2.51,2.51,0,0,1-1.85-.7A2.7,2.7,0,0,1,147.53,8.41Zm.95,0a2.14,2.14,0,0,0,.46,1.49,1.57,1.57,0,0,0,2.29,0,2.19,2.19,0,0,0,.46-1.52,2.07,2.07,0,0,0-.46-1.46,1.57,1.57,0,0,0-2.29,0A2.13,2.13,0,0,0,148.48,8.41Z" style="fill:#fff"/><path d="M154,11V5.81h.83v.74a2,2,0,0,1,1.73-.85,2.37,2.37,0,0,1,.9.17,1.42,1.42,0,0,1,.62.44,1.65,1.65,0,0,1,.29.65,4.69,4.69,0,0,1,.05.85V11h-.92V7.84a2.25,2.25,0,0,0-.11-.8.86.86,0,0,0-.38-.42,1.25,1.25,0,0,0-.64-.16,1.54,1.54,0,0,0-1,.36,1.71,1.71,0,0,0-.43,1.35V11Z" style="fill:#fff"/><rect x="0.53" y="101.87" width="44.92" height="27.98" style="fill:none"/><rect x="45.65" y="101.87" width="44.92" height="27.98" style="fill:none"/><rect x="90.57" y="101.87" width="44.92" height="27.98" style="fill:none;stroke:#000;stroke-linecap:round;stroke-linejoin:round;stroke-width:0.9753649999999999px"/><rect x="180.23" y="101.87" width="44.92" height="27.98" style="fill:none;stroke:#000;stroke-linecap:round;stroke-linejoin:round;stroke-width:0.9753649999999999px"/><rect x="135.36" y="101.87" width="44.92" height="27.98" style="fill:none"/><rect x="2.78" y="17.42" width="204.89" height="13.39" style="fill:#fff"/><line x1="0.53" y1="101.87" x2="225.04" y2="101.87" style="fill:none;stroke:#000;stroke-linecap:round;stroke-linejoin:round;stroke-width:0.9753649999999999px"/><path d="M193.64,118.84V111h.65v3.23h2.56V111h.65v7.87h-.65v-3.71h-2.56v3.71Z"/><path d="M199.16,118.84V111h3.57v.93h-2.91v2.41h2.73v.92h-2.73v2.68h3v.93Z"/><path d="M204.27,118.84V111h.65v6.95h2.43v.93Z"/><path d="M208.68,118.84V111h1.86a2.86,2.86,0,0,1,.75.08,1.22,1.22,0,0,1,.61.37,2,2,0,0,1,.4.76,3.66,3.66,0,0,1,.15,1.07,3.36,3.36,0,0,1-.4,1.7,1.53,1.53,0,0,1-1.45.7h-1.26v3.2Zm.65-4.13h1.27a1,1,0,0,0,.9-.38,1.81,1.81,0,0,0,.27-1.06,2.07,2.07,0,0,0-.16-.85.84.84,0,0,0-.41-.46,1.8,1.8,0,0,0-.61-.07h-1.26Z"/><rect x="209.68" y="83.2" width="15.48" height="18.65" style="fill:none;stroke:#000;stroke-width:0.9753649999999999px"/><polygon points="210.46 92.12 217.43 99.08 224.37 92.12 210.46 92.12"/><rect x="209.68" y="15.08" width="15.48" height="18.65" style="fill:none;stroke:#000;stroke-width:0.9753649999999999px"/><rect x="210.23" y="49.42" width="13.56" height="21.35"/><polygon points="224.4 24.93 217.43 17.97 210.48 24.93 224.4 24.93"/><path d="M103.71,118.84V111h1.85a1.38,1.38,0,0,1,1.44,1,2.84,2.84,0,0,1,.19,1,2.61,2.61,0,0,1-.17,1,1.66,1.66,0,0,1-.52.72,1.43,1.43,0,0,1,.69.71,2.74,2.74,0,0,1,.24,1.19,3.48,3.48,0,0,1-.15,1,2.12,2.12,0,0,1-.36.73,1.35,1.35,0,0,1-.54.39,2.11,2.11,0,0,1-.79.13Zm.65-4.57h1.07a1.52,1.52,0,0,0,.62-.09.77.77,0,0,0,.38-.39,1.64,1.64,0,0,0,.13-.69,1.86,1.86,0,0,0-.12-.69.73.73,0,0,0-.34-.41,1.82,1.82,0,0,0-.75-.11h-1Zm0,3.64h1.23a1.81,1.81,0,0,0,.44,0,.85.85,0,0,0,.38-.21,1.1,1.1,0,0,0,.25-.44,2.06,2.06,0,0,0,.1-.66,1.9,1.9,0,0,0-.14-.77.89.89,0,0,0-.39-.46,1.58,1.58,0,0,0-.72-.13h-1.14Z"/><path d="M108.34,118.84l1.89-7.87h.7l2,7.87h-.74l-.58-2.38h-2.06l-.54,2.38Zm1.42-3.23h1.67l-.51-2.18c-.16-.66-.27-1.21-.35-1.63a14.87,14.87,0,0,1-.27,1.5Z"/><path d="M117.55,116.08l.65.26a4.21,4.21,0,0,1-.74,2,1.61,1.61,0,0,1-1.3.67,1.72,1.72,0,0,1-1.3-.52,3.37,3.37,0,0,1-.76-1.5,8.2,8.2,0,0,1-.26-2.11,7,7,0,0,1,.29-2.15,3,3,0,0,1,.84-1.39,1.78,1.78,0,0,1,1.2-.48,1.56,1.56,0,0,1,1.24.6,3.59,3.59,0,0,1,.7,1.69l-.64.24a2.84,2.84,0,0,0-.5-1.25,1,1,0,0,0-.82-.39,1.22,1.22,0,0,0-1,.43,2.54,2.54,0,0,0-.54,1.17,7.29,7.29,0,0,0-.16,1.51,7.44,7.44,0,0,0,.18,1.75,2.26,2.26,0,0,0,.57,1.12,1.19,1.19,0,0,0,.84.37,1.13,1.13,0,0,0,.93-.51A3.22,3.22,0,0,0,117.55,116.08Z"/><path d="M119.53,118.84V111h.65v3.9l2.45-3.9h.88l-2.07,3.19,2.16,4.68h-.86l-1.76-4-.81,1.26v2.73Z"/><path d="M4.82,27.41V19.53h1v7.87Z"/><path d="M7.62,27.88l.94.14a.9.9,0,0,0,.33.63,1.61,1.61,0,0,0,1,.27,1.73,1.73,0,0,0,1-.27,1.32,1.32,0,0,0,.49-.75,6.17,6.17,0,0,0,.07-1.24,2,2,0,0,1-1.58.75,2.15,2.15,0,0,1-1.82-.85,3.27,3.27,0,0,1-.64-2A3.79,3.79,0,0,1,7.72,23,2.36,2.36,0,0,1,8.58,22a2.31,2.31,0,0,1,1.32-.38,2,2,0,0,1,1.67.82V21.7h.89v4.93a4.67,4.67,0,0,1-.27,1.89,2,2,0,0,1-.86.88,3,3,0,0,1-1.45.32,2.73,2.73,0,0,1-1.65-.46A1.55,1.55,0,0,1,7.62,27.88Zm.8-3.43a2.47,2.47,0,0,0,.45,1.64,1.47,1.47,0,0,0,2.23,0,2.39,2.39,0,0,0,.45-1.61,2.34,2.34,0,0,0-.46-1.58A1.44,1.44,0,0,0,10,22.37a1.39,1.39,0,0,0-1.1.52A2.32,2.32,0,0,0,8.42,24.45Z"/><path d="M14.14,27.41V21.7H15v.81a2.05,2.05,0,0,1,1.82-.94,2.37,2.37,0,0,1,.95.19,1.48,1.48,0,0,1,.65.49,1.87,1.87,0,0,1,.3.71,5.55,5.55,0,0,1,.05.94v3.51h-1V23.94a2.61,2.61,0,0,0-.11-.88.93.93,0,0,0-.4-.47,1.27,1.27,0,0,0-.67-.17,1.57,1.57,0,0,0-1.07.39,1.93,1.93,0,0,0-.45,1.49v3.12Z"/><path d="M20.48,20.65V19.53h1v1.11Zm0,6.76V21.7h1v5.7Z"/><path d="M25.25,26.54l.14.85a3.6,3.6,0,0,1-.73.09,1.66,1.66,0,0,1-.82-.17.93.93,0,0,1-.41-.44,3.46,3.46,0,0,1-.12-1.14V22.46H22.6V21.7h.71V20.29l1-.58v2h1v.75h-1v3.34a1.68,1.68,0,0,0,.05.53.4.4,0,0,0,.17.19.65.65,0,0,0,.33.07Z"/><path d="M26.42,20.65V19.53h1v1.11Zm0,6.76V21.7h1v5.7Z"/><path d="M28.72,24.56a2.94,2.94,0,0,1,.88-2.35,2.66,2.66,0,0,1,1.79-.63,2.56,2.56,0,0,1,1.92.77,2.93,2.93,0,0,1,.75,2.13,3.77,3.77,0,0,1-.33,1.73,2.34,2.34,0,0,1-1,1,2.8,2.8,0,0,1-1.38.35,2.56,2.56,0,0,1-1.94-.77A3.07,3.07,0,0,1,28.72,24.56Zm1,0a2.43,2.43,0,0,0,.48,1.64,1.59,1.59,0,0,0,2.4,0,2.49,2.49,0,0,0,.48-1.67,2.36,2.36,0,0,0-.48-1.6,1.59,1.59,0,0,0-2.4,0A2.42,2.42,0,0,0,29.71,24.56Z"/><path d="M35.41,27.41V21.7h.87v.81a2.05,2.05,0,0,1,1.82-.94,2.37,2.37,0,0,1,.95.19,1.48,1.48,0,0,1,.65.49A1.87,1.87,0,0,1,40,23a5.55,5.55,0,0,1,.05.94v3.51h-1V23.94a2.61,2.61,0,0,0-.11-.88.93.93,0,0,0-.4-.47,1.27,1.27,0,0,0-.67-.17,1.57,1.57,0,0,0-1.07.39,1.93,1.93,0,0,0-.45,1.49v3.12Z"/><path d="M47,27.41V20.46H44.36v-.93H50.6v.93H48v6.94Z"/><path d="M51.35,27.41V21.7h.87v.86a2.37,2.37,0,0,1,.61-.8,1.08,1.08,0,0,1,.62-.19,1.89,1.89,0,0,1,1,.31l-.33.9a1.38,1.38,0,0,0-.71-.21.92.92,0,0,0-.57.19,1,1,0,0,0-.36.53,3.77,3.77,0,0,0-.16,1.13v3Z"/><path d="M55.25,20.65V19.53h1v1.11Zm0,6.76V21.7h1v5.7Z"/><path d="M61.63,26.7a3.6,3.6,0,0,1-1,.64,3,3,0,0,1-1.07.19,2.08,2.08,0,0,1-1.44-.46,1.52,1.52,0,0,1-.5-1.17,1.56,1.56,0,0,1,.19-.77,1.58,1.58,0,0,1,.5-.56,2.35,2.35,0,0,1,.7-.32,6.85,6.85,0,0,1,.86-.15,8.84,8.84,0,0,0,1.72-.33c0-.13,0-.22,0-.25a1.07,1.07,0,0,0-.27-.83,1.62,1.62,0,0,0-1.1-.33,1.71,1.71,0,0,0-1,.24,1.46,1.46,0,0,0-.48.85l-.95-.13a2.34,2.34,0,0,1,.42-1,1.86,1.86,0,0,1,.85-.58,3.82,3.82,0,0,1,1.29-.2,3.42,3.42,0,0,1,1.19.17,1.56,1.56,0,0,1,.67.43,1.52,1.52,0,0,1,.3.66,5.44,5.44,0,0,1,0,.89V25a13.6,13.6,0,0,0,.06,1.71,2.15,2.15,0,0,0,.24.68h-1A2.06,2.06,0,0,1,61.63,26.7Zm-.08-2.16a7.1,7.1,0,0,1-1.58.37,3.63,3.63,0,0,0-.84.19.84.84,0,0,0-.38.31.85.85,0,0,0,.16,1.1,1.26,1.26,0,0,0,.86.26,2,2,0,0,0,1-.24,1.5,1.5,0,0,0,.64-.67,2.33,2.33,0,0,0,.16-1Z"/><path d="M64.22,27.41V19.53h1v7.87Z"/><path d="M66.52,25.71l1-.15a1.33,1.33,0,0,0,.45.88,1.56,1.56,0,0,0,1,.31,1.51,1.51,0,0,0,1-.27.81.81,0,0,0,.32-.64.59.59,0,0,0-.28-.52A4.18,4.18,0,0,0,69,25a9,9,0,0,1-1.47-.46,1.41,1.41,0,0,1-.84-1.31,1.47,1.47,0,0,1,.17-.71,1.57,1.57,0,0,1,.48-.54,2,2,0,0,1,.62-.28,2.93,2.93,0,0,1,.83-.12,3.3,3.3,0,0,1,1.18.19,1.6,1.6,0,0,1,.75.52,2.05,2.05,0,0,1,.33.88l-.95.13a1,1,0,0,0-.37-.69,1.36,1.36,0,0,0-.87-.25,1.58,1.58,0,0,0-1,.22.64.64,0,0,0-.28.52.53.53,0,0,0,.12.34.85.85,0,0,0,.37.26l.85.25a11.89,11.89,0,0,1,1.43.45,1.45,1.45,0,0,1,.64.51,1.42,1.42,0,0,1,.23.83,1.62,1.62,0,0,1-.28.91,1.83,1.83,0,0,1-.81.66,3,3,0,0,1-1.2.23,2.68,2.68,0,0,1-1.69-.46A2.15,2.15,0,0,1,66.52,25.71Z"/><path d="M157.83,25.33l1-.13a2.14,2.14,0,0,0,.57,1.18,1.4,1.4,0,0,0,1,.36,1.56,1.56,0,0,0,1.15-.47A1.59,1.59,0,0,0,162,25.1a1.48,1.48,0,0,0-.44-1.1,1.5,1.5,0,0,0-1.11-.43,2.77,2.77,0,0,0-.68.11l.11-.85H160a2,2,0,0,0,1.11-.32,1.1,1.1,0,0,0,.49-1,1.17,1.17,0,0,0-.36-.88,1.28,1.28,0,0,0-.93-.35,1.32,1.32,0,0,0-.94.35,1.78,1.78,0,0,0-.48,1.06l-1-.17a2.49,2.49,0,0,1,.8-1.51,2.33,2.33,0,0,1,1.56-.53,2.58,2.58,0,0,1,1.19.28,2,2,0,0,1,.83.75,1.94,1.94,0,0,1,.29,1,1.66,1.66,0,0,1-.27.93,1.87,1.87,0,0,1-.81.67,1.82,1.82,0,0,1,1.08.67,2,2,0,0,1,.39,1.27,2.32,2.32,0,0,1-.75,1.75,2.64,2.64,0,0,1-1.9.72,2.48,2.48,0,0,1-1.72-.62A2.39,2.39,0,0,1,157.83,25.33Z"/><path d="M169.82,26.54l.14.85a3.6,3.6,0,0,1-.73.09,1.66,1.66,0,0,1-.82-.17.93.93,0,0,1-.41-.44,3.45,3.45,0,0,1-.12-1.14V22.46h-.71V21.7h.71V20.29l1-.58v2h1v.75h-1v3.34a1.67,1.67,0,0,0,.05.53.4.4,0,0,0,.17.19.65.65,0,0,0,.33.07Z"/><path d="M171,27.41V21.7h.87v.86a2.36,2.36,0,0,1,.61-.8,1.08,1.08,0,0,1,.62-.19,1.89,1.89,0,0,1,1,.31l-.33.9a1.38,1.38,0,0,0-.71-.21.92.92,0,0,0-.57.19,1,1,0,0,0-.36.53,3.77,3.77,0,0,0-.16,1.13v3Z"/><path d="M174.87,20.65V19.53h1v1.11Zm0,6.76V21.7h1v5.7Z"/><path d="M181.43,25.57l1,.12a2.44,2.44,0,0,1-.87,1.36,3,3,0,0,1-3.62-.29,3,3,0,0,1-.73-2.16,3.15,3.15,0,0,1,.74-2.23,2.51,2.51,0,0,1,1.92-.79,2.44,2.44,0,0,1,1.87.78,3.09,3.09,0,0,1,.73,2.19q0,.09,0,.26h-4.25a2.19,2.19,0,0,0,.53,1.44,1.59,1.59,0,0,0,1.19.5,1.48,1.48,0,0,0,.91-.28A1.86,1.86,0,0,0,181.43,25.57ZM178.26,24h3.18a1.93,1.93,0,0,0-.37-1.08,1.48,1.48,0,0,0-1.2-.56,1.53,1.53,0,0,0-1.12.45A1.76,1.76,0,0,0,178.26,24Z"/><path d="M183.48,25.71l1-.15a1.33,1.33,0,0,0,.45.88,1.56,1.56,0,0,0,1,.31,1.51,1.51,0,0,0,1-.27.81.81,0,0,0,.32-.64.59.59,0,0,0-.28-.52,4.17,4.17,0,0,0-1-.33,9,9,0,0,1-1.47-.46,1.41,1.41,0,0,1-.84-1.31,1.48,1.48,0,0,1,.17-.71,1.57,1.57,0,0,1,.48-.54,2,2,0,0,1,.62-.28,2.92,2.92,0,0,1,.83-.12,3.3,3.3,0,0,1,1.18.19,1.61,1.61,0,0,1,.75.52,2,2,0,0,1,.33.88l-.95.13a1,1,0,0,0-.37-.69,1.37,1.37,0,0,0-.87-.25,1.58,1.58,0,0,0-1,.22.64.64,0,0,0-.28.52.54.54,0,0,0,.12.34.84.84,0,0,0,.37.26l.85.25a12,12,0,0,1,1.43.45,1.46,1.46,0,0,1,.64.51,1.42,1.42,0,0,1,.23.83,1.62,1.62,0,0,1-.28.91,1.83,1.83,0,0,1-.81.66,3,3,0,0,1-1.2.23,2.68,2.68,0,0,1-1.7-.46A2.15,2.15,0,0,1,183.48,25.71Z"/><path d="M202.11,24l-5.22,2.23v-1L201,23.52l-4.13-1.7v-1l5.22,2.2Z"/><path d="M4.61,41.41V33.53H6.18L8,39.11q.26.78.38,1.17.13-.43.42-1.26l1.89-5.48h1.4v7.87h-1V34.82L8.83,41.41H7.89L5.62,34.7v6.7Z"/><path d="M13.54,38.56a2.94,2.94,0,0,1,.88-2.35,2.66,2.66,0,0,1,1.79-.63,2.56,2.56,0,0,1,1.92.77,2.93,2.93,0,0,1,.75,2.13,3.77,3.77,0,0,1-.33,1.73,2.34,2.34,0,0,1-1,1,2.8,2.8,0,0,1-1.38.35,2.56,2.56,0,0,1-1.94-.77A3.07,3.07,0,0,1,13.54,38.56Zm1,0A2.43,2.43,0,0,0,15,40.2a1.59,1.59,0,0,0,2.4,0,2.49,2.49,0,0,0,.48-1.67,2.36,2.36,0,0,0-.48-1.6,1.59,1.59,0,0,0-2.4,0A2.42,2.42,0,0,0,14.54,38.56Z"/><path d="M23.94,41.41v-.72a1.77,1.77,0,0,1-1.6.85,2.24,2.24,0,0,1-1.25-.38,2.47,2.47,0,0,1-.89-1,3.62,3.62,0,0,1-.31-1.55A4.05,4.05,0,0,1,20.18,37,2.25,2.25,0,0,1,21,35.95a2.28,2.28,0,0,1,1.27-.37,1.9,1.9,0,0,1,1.57.78V33.53h1v7.87Zm-3.06-2.85a2.48,2.48,0,0,0,.46,1.64,1.39,1.39,0,0,0,1.09.54,1.37,1.37,0,0,0,1.08-.52A2.39,2.39,0,0,0,24,38.64a2.68,2.68,0,0,0-.45-1.72,1.39,1.39,0,0,0-1.11-.55,1.34,1.34,0,0,0-1.08.53A2.6,2.6,0,0,0,20.89,38.56Z"/><path d="M30.32,41.41v-.84a2.09,2.09,0,0,1-1.81,1,2.3,2.3,0,0,1-.94-.19,1.55,1.55,0,0,1-.65-.49,1.82,1.82,0,0,1-.3-.72,4.9,4.9,0,0,1-.06-.9V35.7h1v3.16a5.62,5.62,0,0,0,.06,1,1,1,0,0,0,.39.6,1.2,1.2,0,0,0,.73.22,1.59,1.59,0,0,0,.82-.22,1.24,1.24,0,0,0,.54-.61,3.05,3.05,0,0,0,.16-1.11V35.7h1v5.7Z"/><path d="M32.9,41.41V33.53h1v7.87Z"/><path d="M39.3,40.7a3.6,3.6,0,0,1-1,.64,3,3,0,0,1-1.07.19,2.08,2.08,0,0,1-1.44-.46,1.52,1.52,0,0,1-.5-1.17,1.56,1.56,0,0,1,.19-.77,1.58,1.58,0,0,1,.5-.56,2.35,2.35,0,0,1,.7-.32,6.85,6.85,0,0,1,.86-.15,8.84,8.84,0,0,0,1.72-.33c0-.13,0-.22,0-.25A1.07,1.07,0,0,0,39,36.7a1.62,1.62,0,0,0-1.1-.33,1.71,1.71,0,0,0-1,.24,1.46,1.46,0,0,0-.48.85l-.95-.13a2.34,2.34,0,0,1,.42-1,1.86,1.86,0,0,1,.85-.58,3.82,3.82,0,0,1,1.29-.2,3.42,3.42,0,0,1,1.19.17,1.56,1.56,0,0,1,.67.43,1.52,1.52,0,0,1,.3.66,5.44,5.44,0,0,1,0,.89V39a13.6,13.6,0,0,0,.06,1.71,2.15,2.15,0,0,0,.24.68h-1A2.06,2.06,0,0,1,39.3,40.7Zm-.08-2.16a7.1,7.1,0,0,1-1.58.37,3.63,3.63,0,0,0-.84.19.84.84,0,0,0-.38.31.85.85,0,0,0,.16,1.1,1.26,1.26,0,0,0,.86.26,2,2,0,0,0,1-.24,1.5,1.5,0,0,0,.64-.67,2.33,2.33,0,0,0,.16-1Z"/><path d="M44,40.54l.14.85a3.6,3.6,0,0,1-.73.09,1.66,1.66,0,0,1-.82-.17.93.93,0,0,1-.41-.44,3.46,3.46,0,0,1-.12-1.14V36.46h-.71V35.7h.71V34.29l1-.58v2h1v.75h-1v3.34a1.68,1.68,0,0,0,.05.53.4.4,0,0,0,.17.19.65.65,0,0,0,.33.07Z"/><path d="M45.2,34.65V33.53h1v1.11Zm0,6.76V35.7h1v5.7Z"/><path d="M47.5,38.56a2.94,2.94,0,0,1,.88-2.35,2.66,2.66,0,0,1,1.79-.63,2.56,2.56,0,0,1,1.92.77,2.93,2.93,0,0,1,.75,2.13,3.77,3.77,0,0,1-.33,1.73,2.34,2.34,0,0,1-1,1,2.8,2.8,0,0,1-1.38.35,2.56,2.56,0,0,1-1.94-.77A3.07,3.07,0,0,1,47.5,38.56Zm1,0A2.43,2.43,0,0,0,49,40.2a1.59,1.59,0,0,0,2.4,0,2.49,2.49,0,0,0,.48-1.67,2.36,2.36,0,0,0-.48-1.6,1.59,1.59,0,0,0-2.4,0A2.42,2.42,0,0,0,48.49,38.56Z"/><path d="M54.2,41.41V35.7h.87v.81a2.05,2.05,0,0,1,1.82-.94,2.37,2.37,0,0,1,.95.19,1.48,1.48,0,0,1,.65.49,1.87,1.87,0,0,1,.3.71,5.55,5.55,0,0,1,.05.94v3.51h-1V37.94a2.61,2.61,0,0,0-.11-.88.93.93,0,0,0-.4-.47,1.27,1.27,0,0,0-.67-.17,1.57,1.57,0,0,0-1.07.39,1.93,1.93,0,0,0-.45,1.49v3.12Z"/><path d="M147.82,41.41V33.53h5.69v.93h-4.65v2.41h4.36v.92h-4.36v2.68h4.83v.93Z"/><path d="M155.24,41.41V35.7h.87v.81a2.05,2.05,0,0,1,1.82-.94,2.37,2.37,0,0,1,.95.19,1.48,1.48,0,0,1,.65.49,1.87,1.87,0,0,1,.3.71,5.5,5.5,0,0,1,.05.94v3.51h-1V37.94a2.58,2.58,0,0,0-.11-.88.92.92,0,0,0-.4-.47,1.27,1.27,0,0,0-.67-.17,1.57,1.57,0,0,0-1.07.39,1.93,1.93,0,0,0-.45,1.49v3.12Z"/><path d="M165.29,40.7a3.6,3.6,0,0,1-1,.64,3,3,0,0,1-1.07.19,2.08,2.08,0,0,1-1.44-.46,1.52,1.52,0,0,1-.5-1.17,1.56,1.56,0,0,1,.19-.77,1.59,1.59,0,0,1,.5-.56,2.35,2.35,0,0,1,.7-.32,6.85,6.85,0,0,1,.86-.15,8.84,8.84,0,0,0,1.72-.33c0-.13,0-.22,0-.25a1.07,1.07,0,0,0-.27-.83,1.62,1.62,0,0,0-1.1-.33,1.71,1.71,0,0,0-1,.24,1.46,1.46,0,0,0-.48.85l-.95-.13a2.35,2.35,0,0,1,.42-1,1.86,1.86,0,0,1,.85-.58,3.81,3.81,0,0,1,1.29-.2,3.42,3.42,0,0,1,1.19.17,1.56,1.56,0,0,1,.67.43,1.52,1.52,0,0,1,.3.66,5.43,5.43,0,0,1,0,.89V39a13.54,13.54,0,0,0,.06,1.71,2.14,2.14,0,0,0,.24.68h-1A2,2,0,0,1,165.29,40.7Zm-.08-2.16a7.09,7.09,0,0,1-1.58.37,3.62,3.62,0,0,0-.84.19.84.84,0,0,0-.38.31.85.85,0,0,0,.16,1.1,1.26,1.26,0,0,0,.86.26,2,2,0,0,0,1-.24,1.5,1.5,0,0,0,.64-.67,2.32,2.32,0,0,0,.16-1Z"/><path d="M168.8,41.41h-.9V33.53h1v2.81a1.91,1.91,0,0,1,1.56-.77,2.39,2.39,0,0,1,1,.21,2,2,0,0,1,.77.6,2.86,2.86,0,0,1,.48.93,3.83,3.83,0,0,1,.17,1.16,3.25,3.25,0,0,1-.73,2.27,2.26,2.26,0,0,1-1.74.8,1.82,1.82,0,0,1-1.58-.84Zm0-2.9a3,3,0,0,0,.28,1.48,1.38,1.38,0,0,0,2.33.2,2.5,2.5,0,0,0,.46-1.64,2.55,2.55,0,0,0-.44-1.65,1.35,1.35,0,0,0-1.07-.53,1.39,1.39,0,0,0-1.1.55A2.41,2.41,0,0,0,168.79,38.51Z"/><path d="M174.23,41.41V33.53h1v7.87Z"/><path d="M180.82,39.57l1,.12a2.44,2.44,0,0,1-.87,1.36,3,3,0,0,1-3.62-.29,3,3,0,0,1-.73-2.16,3.15,3.15,0,0,1,.74-2.23,2.51,2.51,0,0,1,1.92-.79,2.44,2.44,0,0,1,1.87.78,3.09,3.09,0,0,1,.73,2.19c0,.06,0,.14,0,.26h-4.25a2.19,2.19,0,0,0,.53,1.44,1.58,1.58,0,0,0,1.19.5,1.48,1.48,0,0,0,.91-.28A1.86,1.86,0,0,0,180.82,39.57ZM177.64,38h3.19a1.93,1.93,0,0,0-.37-1.08,1.48,1.48,0,0,0-1.2-.56,1.53,1.53,0,0,0-1.12.45A1.77,1.77,0,0,0,177.64,38Z"/><path d="M187,41.41v-.72a1.77,1.77,0,0,1-1.6.85,2.24,2.24,0,0,1-1.25-.38,2.47,2.47,0,0,1-.89-1,3.62,3.62,0,0,1-.31-1.55,4.06,4.06,0,0,1,.28-1.55,2.25,2.25,0,0,1,.85-1.07,2.28,2.28,0,0,1,1.27-.37,1.9,1.9,0,0,1,1.57.78V33.53h1v7.87Zm-3.06-2.85a2.47,2.47,0,0,0,.46,1.64,1.39,1.39,0,0,0,1.09.54,1.37,1.37,0,0,0,1.08-.52,2.39,2.39,0,0,0,.44-1.58,2.68,2.68,0,0,0-.45-1.72,1.39,1.39,0,0,0-1.11-.55,1.34,1.34,0,0,0-1.08.53A2.6,2.6,0,0,0,183.89,38.56Z"/><path d="M202.11,38l-5.22,2.23v-1L201,37.52l-4.13-1.7v-1l5.22,2.2Z"/><path d="M6.65,55.41V48.46H4.05v-.93H10.3v.93H7.69v6.94Z"/><path d="M9.88,52.56a2.94,2.94,0,0,1,.88-2.35,2.66,2.66,0,0,1,1.79-.63,2.56,2.56,0,0,1,1.92.77,2.93,2.93,0,0,1,.75,2.13,3.77,3.77,0,0,1-.33,1.73,2.34,2.34,0,0,1-1,1,2.8,2.8,0,0,1-1.38.35,2.56,2.56,0,0,1-1.94-.77A3.07,3.07,0,0,1,9.88,52.56Zm1,0a2.43,2.43,0,0,0,.48,1.64,1.59,1.59,0,0,0,2.4,0,2.49,2.49,0,0,0,.48-1.67,2.36,2.36,0,0,0-.48-1.6,1.59,1.59,0,0,0-2.4,0A2.42,2.42,0,0,0,10.88,52.56Z"/><path d="M18.69,54.54l.14.85a3.6,3.6,0,0,1-.73.09,1.66,1.66,0,0,1-.82-.17.93.93,0,0,1-.41-.44,3.46,3.46,0,0,1-.12-1.14V50.46H16V49.7h.71V48.29l1-.58v2h1v.75h-1v3.34a1.68,1.68,0,0,0,.05.53.4.4,0,0,0,.17.19.65.65,0,0,0,.33.07Z"/><path d="M23.58,54.7a3.6,3.6,0,0,1-1,.64,3,3,0,0,1-1.07.19A2.08,2.08,0,0,1,20,55.08a1.52,1.52,0,0,1-.5-1.17,1.56,1.56,0,0,1,.19-.77,1.58,1.58,0,0,1,.5-.56,2.35,2.35,0,0,1,.7-.32,6.85,6.85,0,0,1,.86-.15,8.84,8.84,0,0,0,1.72-.33c0-.13,0-.22,0-.25a1.07,1.07,0,0,0-.27-.83,1.62,1.62,0,0,0-1.1-.33,1.71,1.71,0,0,0-1,.24,1.46,1.46,0,0,0-.48.85l-.95-.13a2.34,2.34,0,0,1,.42-1,1.86,1.86,0,0,1,.85-.58,3.82,3.82,0,0,1,1.29-.2,3.42,3.42,0,0,1,1.19.17,1.56,1.56,0,0,1,.67.43,1.52,1.52,0,0,1,.3.66,5.44,5.44,0,0,1,0,.89V53a13.6,13.6,0,0,0,.06,1.71,2.15,2.15,0,0,0,.24.68h-1A2.06,2.06,0,0,1,23.58,54.7Zm-.08-2.16a7.1,7.1,0,0,1-1.58.37,3.63,3.63,0,0,0-.84.19.84.84,0,0,0-.38.31.85.85,0,0,0,.16,1.1,1.26,1.26,0,0,0,.86.26,2,2,0,0,0,1-.24,1.5,1.5,0,0,0,.64-.67,2.33,2.33,0,0,0,.16-1Z"/><path d="M26.17,55.41V47.53h1v7.87Z"/><path d="M37.87,52.65l1,.26a3.51,3.51,0,0,1-1.18,2,3.25,3.25,0,0,1-2.08.67A3.74,3.74,0,0,1,33.59,55a3.24,3.24,0,0,1-1.21-1.5A5.36,5.36,0,0,1,32,51.41a4.64,4.64,0,0,1,.47-2.15,3.22,3.22,0,0,1,1.34-1.39,3.91,3.91,0,0,1,1.91-.48,3.23,3.23,0,0,1,2,.6,3.12,3.12,0,0,1,1.12,1.69l-1,.24A2.43,2.43,0,0,0,37,48.68a2.12,2.12,0,0,0-1.31-.39,2.55,2.55,0,0,0-1.52.44,2.3,2.3,0,0,0-.86,1.17A4.71,4.71,0,0,0,33,51.41a4.8,4.8,0,0,0,.29,1.75,2.18,2.18,0,0,0,.91,1.12,2.55,2.55,0,0,0,1.34.37,2.24,2.24,0,0,0,1.48-.5A2.58,2.58,0,0,0,37.87,52.65Z"/><path d="M40.25,57.6l-.11-.91a2.16,2.16,0,0,0,.55.09,1.06,1.06,0,0,0,.52-.11.88.88,0,0,0,.32-.3,4.73,4.73,0,0,0,.3-.72l.09-.24L39.75,49.7h1L42,53q.23.63.41,1.32a13,13,0,0,1,.4-1.3L44,49.7h1l-2.17,5.8a11.43,11.43,0,0,1-.54,1.29,1.9,1.9,0,0,1-.59.7,1.39,1.39,0,0,1-.79.22A1.94,1.94,0,0,1,40.25,57.6Z"/><path d="M49.74,53.32l1,.12a2.47,2.47,0,0,1-.8,1.54,2.33,2.33,0,0,1-1.58.56,2.45,2.45,0,0,1-1.88-.77,3.1,3.1,0,0,1-.71-2.19A4,4,0,0,1,46,51a2.13,2.13,0,0,1,.93-1,2.76,2.76,0,0,1,1.36-.35,2.37,2.37,0,0,1,1.52.47,2.15,2.15,0,0,1,.76,1.33l-.94.15a1.56,1.56,0,0,0-.48-.86,1.23,1.23,0,0,0-.82-.29,1.5,1.5,0,0,0-1.19.52,2.49,2.49,0,0,0-.46,1.66,2.57,2.57,0,0,0,.44,1.67,1.43,1.43,0,0,0,1.15.52,1.35,1.35,0,0,0,1-.35A1.73,1.73,0,0,0,49.74,53.32Z"/><path d="M51.72,55.41V47.53h1v7.87Z"/><path d="M58.31,53.57l1,.12a2.44,2.44,0,0,1-.88,1.36,3,3,0,0,1-3.62-.29,3,3,0,0,1-.73-2.16,3.15,3.15,0,0,1,.74-2.23,2.51,2.51,0,0,1,1.92-.79,2.44,2.44,0,0,1,1.87.78,3.09,3.09,0,0,1,.73,2.19c0,.06,0,.14,0,.26H55.08a2.19,2.19,0,0,0,.53,1.44,1.58,1.58,0,0,0,1.19.5,1.48,1.48,0,0,0,.91-.28A1.86,1.86,0,0,0,58.31,53.57ZM55.13,52h3.19A1.93,1.93,0,0,0,58,50.93a1.48,1.48,0,0,0-1.2-.56,1.53,1.53,0,0,0-1.12.45A1.76,1.76,0,0,0,55.13,52Z"/><path d="M60.35,53.71l1-.15a1.33,1.33,0,0,0,.45.88,1.56,1.56,0,0,0,1,.31,1.51,1.51,0,0,0,1-.27.81.81,0,0,0,.32-.64.59.59,0,0,0-.28-.52,4.18,4.18,0,0,0-1-.33,9,9,0,0,1-1.47-.46,1.41,1.41,0,0,1-.84-1.31,1.47,1.47,0,0,1,.17-.71,1.57,1.57,0,0,1,.48-.54,2,2,0,0,1,.62-.28,2.93,2.93,0,0,1,.83-.12,3.3,3.3,0,0,1,1.18.19,1.6,1.6,0,0,1,.75.52,2.05,2.05,0,0,1,.33.88l-.95.13a1,1,0,0,0-.37-.69,1.36,1.36,0,0,0-.87-.25,1.58,1.58,0,0,0-1,.22.64.64,0,0,0-.28.52.53.53,0,0,0,.12.34.85.85,0,0,0,.37.26l.85.25a11.89,11.89,0,0,1,1.43.45,1.45,1.45,0,0,1,.64.51,1.42,1.42,0,0,1,.23.83,1.62,1.62,0,0,1-.28.91,1.83,1.83,0,0,1-.81.66,3,3,0,0,1-1.2.23,2.68,2.68,0,0,1-1.69-.46A2.15,2.15,0,0,1,60.35,53.71Z"/><path d="M75.48,52.65l1,.26a3.51,3.51,0,0,1-1.18,2,3.25,3.25,0,0,1-2.08.67A3.74,3.74,0,0,1,71.19,55,3.24,3.24,0,0,1,70,53.52a5.36,5.36,0,0,1-.42-2.11A4.64,4.64,0,0,1,70,49.27a3.22,3.22,0,0,1,1.34-1.39,3.91,3.91,0,0,1,1.91-.48,3.23,3.23,0,0,1,2,.6,3.12,3.12,0,0,1,1.12,1.69l-1,.24a2.43,2.43,0,0,0-.79-1.25,2.12,2.12,0,0,0-1.31-.39,2.55,2.55,0,0,0-1.52.44,2.3,2.3,0,0,0-.86,1.17,4.71,4.71,0,0,0-.25,1.51,4.8,4.8,0,0,0,.29,1.75,2.18,2.18,0,0,0,.91,1.12,2.55,2.55,0,0,0,1.34.37,2.24,2.24,0,0,0,1.48-.5A2.58,2.58,0,0,0,75.48,52.65Z"/><path d="M77.54,52.56a2.94,2.94,0,0,1,.88-2.35,2.66,2.66,0,0,1,1.79-.63,2.56,2.56,0,0,1,1.92.77,2.93,2.93,0,0,1,.75,2.13,3.77,3.77,0,0,1-.33,1.73,2.34,2.34,0,0,1-1,1,2.8,2.8,0,0,1-1.38.35,2.56,2.56,0,0,1-1.94-.77A3.07,3.07,0,0,1,77.54,52.56Zm1,0A2.43,2.43,0,0,0,79,54.2a1.59,1.59,0,0,0,2.4,0,2.49,2.49,0,0,0,.48-1.67,2.36,2.36,0,0,0-.48-1.6,1.59,1.59,0,0,0-2.4,0A2.42,2.42,0,0,0,78.53,52.56Z"/><path d="M88,55.41v-.84a2.09,2.09,0,0,1-1.81,1,2.3,2.3,0,0,1-.94-.19,1.55,1.55,0,0,1-.65-.49,1.82,1.82,0,0,1-.3-.72,4.9,4.9,0,0,1-.06-.9V49.7h1v3.16a5.62,5.62,0,0,0,.06,1,1,1,0,0,0,.39.6,1.2,1.2,0,0,0,.73.22,1.59,1.59,0,0,0,.82-.22,1.24,1.24,0,0,0,.54-.61,3.05,3.05,0,0,0,.16-1.11V49.7h1v5.7Z"/><path d="M90.57,55.41V49.7h.87v.81a2.05,2.05,0,0,1,1.82-.94,2.37,2.37,0,0,1,.95.19,1.48,1.48,0,0,1,.65.49,1.87,1.87,0,0,1,.3.71,5.55,5.55,0,0,1,.05.94v3.51h-1V51.94a2.61,2.61,0,0,0-.11-.88.93.93,0,0,0-.4-.47,1.27,1.27,0,0,0-.67-.17A1.57,1.57,0,0,0,92,50.8a1.93,1.93,0,0,0-.45,1.49v3.12Z"/><path d="M99,54.54l.14.85a3.6,3.6,0,0,1-.73.09,1.66,1.66,0,0,1-.82-.17.93.93,0,0,1-.41-.44,3.46,3.46,0,0,1-.12-1.14V50.46h-.71V49.7h.71V48.29l1-.58v2h1v.75h-1v3.34a1.68,1.68,0,0,0,.05.53.4.4,0,0,0,.17.19.65.65,0,0,0,.33.07Z"/><path d="M104.09,53.57l1,.12a2.44,2.44,0,0,1-.88,1.36,3,3,0,0,1-3.62-.29,3,3,0,0,1-.73-2.16,3.15,3.15,0,0,1,.74-2.23,2.51,2.51,0,0,1,1.92-.79,2.44,2.44,0,0,1,1.87.78,3.09,3.09,0,0,1,.73,2.19c0,.06,0,.14,0,.26h-4.25a2.19,2.19,0,0,0,.53,1.44,1.58,1.58,0,0,0,1.19.5,1.48,1.48,0,0,0,.91-.28A1.86,1.86,0,0,0,104.09,53.57ZM100.92,52h3.19a1.93,1.93,0,0,0-.37-1.08,1.48,1.48,0,0,0-1.2-.56,1.53,1.53,0,0,0-1.12.45A1.76,1.76,0,0,0,100.92,52Z"/><path d="M106.51,55.41V49.7h.87v.86a2.37,2.37,0,0,1,.61-.8,1.08,1.08,0,0,1,.62-.19,1.89,1.89,0,0,1,1,.31l-.33.9a1.38,1.38,0,0,0-.71-.21.92.92,0,0,0-.57.19,1,1,0,0,0-.36.53,3.77,3.77,0,0,0-.16,1.13v3Z"/><path d="M188.06,54.48v.93h-5.2a1.72,1.72,0,0,1,.11-.67,3.58,3.58,0,0,1,.64-1,10,10,0,0,1,1.27-1.19,10.71,10.71,0,0,0,1.73-1.67,2,2,0,0,0,.45-1.16,1.29,1.29,0,0,0-.41-1,1.48,1.48,0,0,0-1.07-.4,1.51,1.51,0,0,0-1.12.42,1.58,1.58,0,0,0-.42,1.16l-1-.1a2.45,2.45,0,0,1,.77-1.69,2.62,2.62,0,0,1,1.79-.58,2.5,2.5,0,0,1,1.79.63,2.06,2.06,0,0,1,.66,1.56,2.36,2.36,0,0,1-.19.93,3.61,3.61,0,0,1-.64,1A15.57,15.57,0,0,1,185.73,53q-.87.73-1.12,1a3.23,3.23,0,0,0-.41.52Z"/><path d="M202.11,52l-5.22,2.23v-1L201,51.52l-4.13-1.7v-1l5.22,2.2Z"/><path d="M4.82,69.41V61.53h1v7.87Z"/><path d="M7.62,69.88l.94.14a.89.89,0,0,0,.33.63,1.6,1.6,0,0,0,1,.27,1.72,1.72,0,0,0,1-.27,1.32,1.32,0,0,0,.49-.75,6.16,6.16,0,0,0,.07-1.24,2,2,0,0,1-1.58.75,2.15,2.15,0,0,1-1.82-.85,3.27,3.27,0,0,1-.64-2A3.79,3.79,0,0,1,7.72,65,2.36,2.36,0,0,1,8.58,64a2.31,2.31,0,0,1,1.32-.38,2,2,0,0,1,1.67.82V63.7h.89v4.93a4.67,4.67,0,0,1-.27,1.89,2,2,0,0,1-.86.88,3,3,0,0,1-1.45.32,2.73,2.73,0,0,1-1.65-.46A1.55,1.55,0,0,1,7.62,69.88Zm.8-3.43a2.47,2.47,0,0,0,.45,1.64,1.47,1.47,0,0,0,2.23,0,2.4,2.4,0,0,0,.45-1.61,2.34,2.34,0,0,0-.46-1.58A1.44,1.44,0,0,0,10,64.37a1.39,1.39,0,0,0-1.1.52A2.32,2.32,0,0,0,8.42,66.45Z"/><path d="M14.14,69.41V63.7H15v.81a2.05,2.05,0,0,1,1.82-.94,2.37,2.37,0,0,1,.95.19,1.48,1.48,0,0,1,.65.49,1.87,1.87,0,0,1,.3.71,5.55,5.55,0,0,1,.05.94v3.51h-1V65.94a2.61,2.61,0,0,0-.11-.88.93.93,0,0,0-.4-.47,1.27,1.27,0,0,0-.67-.17,1.57,1.57,0,0,0-1.07.39,1.93,1.93,0,0,0-.45,1.49v3.11Z"/><path d="M20.48,62.65V61.53h1v1.11Zm0,6.76V63.7h1v5.7Z"/><path d="M25.25,68.54l.14.85a3.63,3.63,0,0,1-.73.09,1.66,1.66,0,0,1-.82-.17.93.93,0,0,1-.41-.44,3.46,3.46,0,0,1-.12-1.14V64.46H22.6V63.7h.71V62.29l1-.58v2h1v.75h-1v3.34a1.68,1.68,0,0,0,.05.53.41.41,0,0,0,.17.19.64.64,0,0,0,.33.07Z"/><path d="M26.42,62.65V61.53h1v1.11Zm0,6.76V63.7h1v5.7Z"/><path d="M28.72,66.56a2.94,2.94,0,0,1,.88-2.35,2.66,2.66,0,0,1,1.79-.63,2.56,2.56,0,0,1,1.92.77,2.93,2.93,0,0,1,.75,2.13,3.77,3.77,0,0,1-.33,1.73,2.34,2.34,0,0,1-1,1,2.79,2.79,0,0,1-1.38.35,2.57,2.57,0,0,1-1.94-.77A3.07,3.07,0,0,1,28.72,66.56Zm1,0a2.43,2.43,0,0,0,.48,1.64,1.59,1.59,0,0,0,2.4,0,2.49,2.49,0,0,0,.48-1.67,2.36,2.36,0,0,0-.48-1.6,1.59,1.59,0,0,0-2.4,0A2.42,2.42,0,0,0,29.71,66.56Z"/><path d="M35.41,69.41V63.7h.87v.81a2.05,2.05,0,0,1,1.82-.94,2.37,2.37,0,0,1,.95.19,1.48,1.48,0,0,1,.65.49A1.87,1.87,0,0,1,40,65a5.55,5.55,0,0,1,.05.94v3.51h-1V65.94a2.61,2.61,0,0,0-.11-.88.93.93,0,0,0-.4-.47,1.27,1.27,0,0,0-.67-.17,1.57,1.57,0,0,0-1.07.39,1.93,1.93,0,0,0-.45,1.49v3.11Z"/><path d="M45.21,69.41V61.53h5.31v.93H46.25V64.9h3.7v.93h-3.7v3.58Z"/><path d="M55.69,68.7a3.58,3.58,0,0,1-1,.64,3,3,0,0,1-1.07.19,2.07,2.07,0,0,1-1.44-.46,1.52,1.52,0,0,1-.5-1.17,1.58,1.58,0,0,1,.69-1.32,2.32,2.32,0,0,1,.7-.32,6.85,6.85,0,0,1,.86-.15,8.84,8.84,0,0,0,1.72-.33c0-.13,0-.22,0-.25a1.07,1.07,0,0,0-.27-.83,1.62,1.62,0,0,0-1.1-.33,1.71,1.71,0,0,0-1,.24,1.46,1.46,0,0,0-.48.85l-.95-.13a2.34,2.34,0,0,1,.42-1,1.86,1.86,0,0,1,.85-.58,3.82,3.82,0,0,1,1.29-.2,3.42,3.42,0,0,1,1.19.17,1.56,1.56,0,0,1,.67.43,1.52,1.52,0,0,1,.3.66,5.44,5.44,0,0,1,0,.89V67a13.6,13.6,0,0,0,.06,1.71,2.15,2.15,0,0,0,.24.68h-1A2.05,2.05,0,0,1,55.69,68.7Zm-.08-2.16a7.1,7.1,0,0,1-1.58.37,3.69,3.69,0,0,0-.84.19.84.84,0,0,0-.38.31.86.86,0,0,0,.16,1.1,1.26,1.26,0,0,0,.86.26,2,2,0,0,0,1-.25,1.5,1.5,0,0,0,.64-.67,2.33,2.33,0,0,0,.16-1Z"/><path d="M58.31,62.65V61.53h1v1.11Zm0,6.76V63.7h1v5.7Z"/><path d="M60.95,69.41V61.53h1v7.87Z"/><path d="M67.37,69.41v-.84a2.09,2.09,0,0,1-1.81,1,2.3,2.3,0,0,1-.94-.19,1.55,1.55,0,0,1-.65-.49,1.82,1.82,0,0,1-.3-.72,4.89,4.89,0,0,1-.06-.9V63.7h1v3.16a5.62,5.62,0,0,0,.06,1,1,1,0,0,0,.39.6,1.2,1.2,0,0,0,.73.22,1.59,1.59,0,0,0,.82-.22,1.24,1.24,0,0,0,.54-.61,3,3,0,0,0,.16-1.11V63.7h1v5.7Z"/><path d="M70,69.41V63.7h.87v.86a2.37,2.37,0,0,1,.61-.8,1.08,1.08,0,0,1,.62-.19,1.89,1.89,0,0,1,1,.31l-.33.9a1.38,1.38,0,0,0-.71-.21.92.92,0,0,0-.57.19,1,1,0,0,0-.36.53,3.76,3.76,0,0,0-.16,1.13v3Z"/><path d="M77.76,67.57l1,.12a2.44,2.44,0,0,1-.88,1.36,3,3,0,0,1-3.62-.29,3,3,0,0,1-.73-2.16,3.15,3.15,0,0,1,.74-2.23,2.51,2.51,0,0,1,1.92-.79,2.44,2.44,0,0,1,1.87.78,3.09,3.09,0,0,1,.73,2.19c0,.06,0,.14,0,.26H74.53a2.19,2.19,0,0,0,.53,1.44,1.58,1.58,0,0,0,1.19.5,1.48,1.48,0,0,0,.91-.28A1.85,1.85,0,0,0,77.76,67.57ZM74.58,66h3.19a1.93,1.93,0,0,0-.37-1.08,1.48,1.48,0,0,0-1.2-.56,1.53,1.53,0,0,0-1.12.45A1.76,1.76,0,0,0,74.58,66Z"/><path d="M89.21,66.65l1,.26a3.51,3.51,0,0,1-1.18,2,3.25,3.25,0,0,1-2.08.67A3.75,3.75,0,0,1,84.92,69a3.24,3.24,0,0,1-1.21-1.5,5.36,5.36,0,0,1-.42-2.11,4.64,4.64,0,0,1,.47-2.15,3.22,3.22,0,0,1,1.34-1.39A3.91,3.91,0,0,1,87,61.4a3.23,3.23,0,0,1,2,.6,3.12,3.12,0,0,1,1.12,1.69l-1,.24a2.43,2.43,0,0,0-.79-1.25A2.12,2.12,0,0,0,87,62.29a2.55,2.55,0,0,0-1.52.44,2.3,2.3,0,0,0-.86,1.17,4.71,4.71,0,0,0-.25,1.51,4.79,4.79,0,0,0,.29,1.75,2.18,2.18,0,0,0,.91,1.12,2.56,2.56,0,0,0,1.34.37,2.25,2.25,0,0,0,1.48-.5A2.58,2.58,0,0,0,89.21,66.65Z"/><path d="M91.27,66.56a2.94,2.94,0,0,1,.88-2.35,2.66,2.66,0,0,1,1.79-.63,2.56,2.56,0,0,1,1.92.77,2.93,2.93,0,0,1,.75,2.13,3.77,3.77,0,0,1-.33,1.73,2.34,2.34,0,0,1-1,1,2.79,2.79,0,0,1-1.38.35A2.57,2.57,0,0,1,92,68.77,3.07,3.07,0,0,1,91.27,66.56Zm1,0a2.43,2.43,0,0,0,.48,1.64,1.59,1.59,0,0,0,2.4,0,2.49,2.49,0,0,0,.48-1.67,2.36,2.36,0,0,0-.48-1.6,1.59,1.59,0,0,0-2.4,0A2.42,2.42,0,0,0,92.27,66.56Z"/><path d="M101.71,69.41v-.84a2.09,2.09,0,0,1-1.81,1,2.3,2.3,0,0,1-.94-.19,1.55,1.55,0,0,1-.65-.49,1.82,1.82,0,0,1-.3-.72,4.89,4.89,0,0,1-.06-.9V63.7h1v3.16a5.62,5.62,0,0,0,.06,1,1,1,0,0,0,.39.6,1.2,1.2,0,0,0,.73.22,1.59,1.59,0,0,0,.82-.22,1.24,1.24,0,0,0,.54-.61,3,3,0,0,0,.16-1.11V63.7h1v5.7Z"/><path d="M104.31,69.41V63.7h.87v.81a2.05,2.05,0,0,1,1.82-.94,2.37,2.37,0,0,1,.95.19,1.48,1.48,0,0,1,.65.49,1.87,1.87,0,0,1,.3.71,5.55,5.55,0,0,1,.05.94v3.51h-1V65.94a2.61,2.61,0,0,0-.11-.88.93.93,0,0,0-.4-.47,1.27,1.27,0,0,0-.67-.17,1.57,1.57,0,0,0-1.07.39,1.93,1.93,0,0,0-.45,1.49v3.11Z"/><path d="M112.76,68.54l.14.85a3.63,3.63,0,0,1-.73.09,1.66,1.66,0,0,1-.82-.17.93.93,0,0,1-.41-.44,3.46,3.46,0,0,1-.12-1.14V64.46h-.71V63.7h.71V62.29l1-.58v2h1v.75h-1v3.34a1.68,1.68,0,0,0,.05.53.41.41,0,0,0,.17.19.64.64,0,0,0,.33.07Z"/><path d="M186.62,69.41h-1V63.25a5,5,0,0,1-.92.67,6.47,6.47,0,0,1-1,.5v-.93a5.83,5.83,0,0,0,1.42-.92A3.62,3.62,0,0,0,186,61.5h.62Z"/><path d="M202.11,66l-5.22,2.23v-1L201,65.52l-4.13-1.7v-1l5.22,2.2Z"/><path d="M4.7,83.41V75.53H10v.93H5.74V78.9h3.7v.93H5.74v3.58Z"/><path d="M11.44,83.41V75.53h1v7.87Z"/><path d="M17.85,82.7a3.58,3.58,0,0,1-1,.64,3,3,0,0,1-1.07.19,2.07,2.07,0,0,1-1.44-.46,1.52,1.52,0,0,1-.5-1.17,1.58,1.58,0,0,1,.69-1.32,2.31,2.31,0,0,1,.7-.32,7,7,0,0,1,.86-.15,8.82,8.82,0,0,0,1.72-.33c0-.13,0-.22,0-.25a1.07,1.07,0,0,0-.27-.83,1.62,1.62,0,0,0-1.1-.33,1.7,1.7,0,0,0-1,.24,1.46,1.46,0,0,0-.48.85L14,79.33a2.35,2.35,0,0,1,.42-1,1.87,1.87,0,0,1,.85-.57,3.8,3.8,0,0,1,1.29-.2,3.41,3.41,0,0,1,1.19.17,1.56,1.56,0,0,1,.67.43,1.52,1.52,0,0,1,.3.66,5.44,5.44,0,0,1,0,.89V81a13.6,13.6,0,0,0,.06,1.71,2.15,2.15,0,0,0,.24.68H18A2.05,2.05,0,0,1,17.85,82.7Zm-.08-2.16a7.1,7.1,0,0,1-1.58.37,3.69,3.69,0,0,0-.84.19.84.84,0,0,0-.38.31.86.86,0,0,0,.16,1.1,1.26,1.26,0,0,0,.86.26,2,2,0,0,0,1-.25,1.5,1.5,0,0,0,.64-.67,2.33,2.33,0,0,0,.16-1Z"/><path d="M20.46,83.41V77.7h.86v.8a2,2,0,0,1,.71-.67,2,2,0,0,1,1-.25,1.88,1.88,0,0,1,1,.26,1.41,1.41,0,0,1,.57.74,2,2,0,0,1,1.76-1,1.74,1.74,0,0,1,1.31.47,2,2,0,0,1,.46,1.45v3.92h-1V79.81a2.63,2.63,0,0,0-.09-.83.81.81,0,0,0-.34-.41,1.06,1.06,0,0,0-.58-.16,1.35,1.35,0,0,0-1,.4,1.76,1.76,0,0,0-.4,1.28v3.31h-1V79.7a1.63,1.63,0,0,0-.24-1,.9.9,0,0,0-.77-.32,1.4,1.4,0,0,0-.75.21,1.22,1.22,0,0,0-.5.63,3.53,3.53,0,0,0-.16,1.19v3Z"/><path d="M33.75,81.57l1,.12a2.44,2.44,0,0,1-.88,1.36,3,3,0,0,1-3.62-.29,3,3,0,0,1-.73-2.16,3.15,3.15,0,0,1,.74-2.23,2.51,2.51,0,0,1,1.92-.79,2.44,2.44,0,0,1,1.87.78,3.09,3.09,0,0,1,.73,2.19c0,.06,0,.14,0,.26H30.52a2.19,2.19,0,0,0,.53,1.44,1.58,1.58,0,0,0,1.19.5,1.48,1.48,0,0,0,.91-.28A1.85,1.85,0,0,0,33.75,81.57ZM30.58,80h3.19a1.93,1.93,0,0,0-.37-1.08,1.48,1.48,0,0,0-1.2-.56,1.54,1.54,0,0,0-1.12.45A1.76,1.76,0,0,0,30.58,80Z"/><path d="M39.54,83.41V75.53h1v6.94h3.88v.93Z"/><path d="M45.44,80.56a2.94,2.94,0,0,1,.88-2.35,2.66,2.66,0,0,1,1.79-.63,2.56,2.56,0,0,1,1.92.77,2.94,2.94,0,0,1,.75,2.13,3.77,3.77,0,0,1-.33,1.73,2.34,2.34,0,0,1-1,1,2.79,2.79,0,0,1-1.38.35,2.57,2.57,0,0,1-1.94-.77A3.07,3.07,0,0,1,45.44,80.56Zm1,0a2.43,2.43,0,0,0,.48,1.64,1.59,1.59,0,0,0,2.4,0,2.49,2.49,0,0,0,.48-1.67,2.35,2.35,0,0,0-.48-1.6,1.59,1.59,0,0,0-2.4,0A2.42,2.42,0,0,0,46.43,80.56Z"/><path d="M51.75,81.71l1-.15a1.33,1.33,0,0,0,.45.88,1.56,1.56,0,0,0,1,.31,1.51,1.51,0,0,0,1-.27.81.81,0,0,0,.32-.64.59.59,0,0,0-.28-.52,4.17,4.17,0,0,0-1-.33,9,9,0,0,1-1.47-.46,1.41,1.41,0,0,1-.84-1.31,1.46,1.46,0,0,1,.17-.71,1.57,1.57,0,0,1,.48-.54,2,2,0,0,1,.62-.28,2.91,2.91,0,0,1,.83-.12,3.3,3.3,0,0,1,1.18.19,1.6,1.6,0,0,1,.75.52,2.05,2.05,0,0,1,.33.88l-.95.13a1,1,0,0,0-.37-.69,1.37,1.37,0,0,0-.87-.25,1.58,1.58,0,0,0-1,.22.64.64,0,0,0-.28.52.54.54,0,0,0,.12.34.86.86,0,0,0,.37.26l.85.25a11.85,11.85,0,0,1,1.43.45,1.45,1.45,0,0,1,.64.51,1.41,1.41,0,0,1,.23.83,1.62,1.62,0,0,1-.28.91,1.83,1.83,0,0,1-.81.66,3,3,0,0,1-1.2.23,2.68,2.68,0,0,1-1.69-.46A2.15,2.15,0,0,1,51.75,81.71Z"/><path d="M57.47,81.71l1-.15a1.33,1.33,0,0,0,.45.88,1.56,1.56,0,0,0,1,.31,1.51,1.51,0,0,0,1-.27.81.81,0,0,0,.32-.64.59.59,0,0,0-.28-.52,4.17,4.17,0,0,0-1-.33,9,9,0,0,1-1.47-.46,1.41,1.41,0,0,1-.84-1.31,1.46,1.46,0,0,1,.17-.71,1.57,1.57,0,0,1,.48-.54,2,2,0,0,1,.62-.28,2.91,2.91,0,0,1,.83-.12,3.3,3.3,0,0,1,1.18.19,1.6,1.6,0,0,1,.75.52,2.05,2.05,0,0,1,.33.88L61,79.3a1,1,0,0,0-.37-.69,1.37,1.37,0,0,0-.87-.25,1.58,1.58,0,0,0-1,.22.64.64,0,0,0-.28.52.54.54,0,0,0,.12.34.86.86,0,0,0,.37.26l.85.25a11.85,11.85,0,0,1,1.43.45,1.45,1.45,0,0,1,.64.51,1.41,1.41,0,0,1,.23.83,1.62,1.62,0,0,1-.28.91,1.83,1.83,0,0,1-.81.66,3,3,0,0,1-1.2.23,2.68,2.68,0,0,1-1.69-.46A2.15,2.15,0,0,1,57.47,81.71Z"/><path d="M72.59,80.65l1,.26a3.51,3.51,0,0,1-1.18,2,3.25,3.25,0,0,1-2.08.67A3.75,3.75,0,0,1,68.3,83a3.24,3.24,0,0,1-1.21-1.5,5.36,5.36,0,0,1-.42-2.11,4.64,4.64,0,0,1,.47-2.14,3.23,3.23,0,0,1,1.34-1.39,3.91,3.91,0,0,1,1.91-.47,3.23,3.23,0,0,1,2,.6,3.12,3.12,0,0,1,1.12,1.69l-1,.24a2.44,2.44,0,0,0-.79-1.25,2.12,2.12,0,0,0-1.31-.39,2.55,2.55,0,0,0-1.52.43A2.3,2.3,0,0,0,68,77.89a4.72,4.72,0,0,0-.25,1.51A4.79,4.79,0,0,0,68,81.16,2.18,2.18,0,0,0,69,82.28a2.56,2.56,0,0,0,1.34.37,2.25,2.25,0,0,0,1.48-.5A2.58,2.58,0,0,0,72.59,80.65Z"/><path d="M74.65,80.56a2.94,2.94,0,0,1,.88-2.35,2.66,2.66,0,0,1,1.79-.63,2.56,2.56,0,0,1,1.92.77A2.94,2.94,0,0,1,80,80.48a3.77,3.77,0,0,1-.33,1.73,2.34,2.34,0,0,1-1,1,2.79,2.79,0,0,1-1.38.35,2.57,2.57,0,0,1-1.94-.77A3.07,3.07,0,0,1,74.65,80.56Zm1,0a2.43,2.43,0,0,0,.48,1.64,1.59,1.59,0,0,0,2.4,0A2.49,2.49,0,0,0,79,80.52a2.35,2.35,0,0,0-.48-1.6,1.59,1.59,0,0,0-2.4,0A2.42,2.42,0,0,0,75.65,80.56Z"/><path d="M85.09,83.41v-.84a2.09,2.09,0,0,1-1.81,1,2.3,2.3,0,0,1-.94-.19,1.55,1.55,0,0,1-.65-.49,1.82,1.82,0,0,1-.3-.72,4.89,4.89,0,0,1-.06-.9V77.7h1v3.16a5.62,5.62,0,0,0,.06,1,1,1,0,0,0,.39.6,1.2,1.2,0,0,0,.73.22,1.59,1.59,0,0,0,.82-.22,1.24,1.24,0,0,0,.54-.61A3,3,0,0,0,85,80.76V77.7h1v5.7Z"/><path d="M87.69,83.41V77.7h.87v.81a2,2,0,0,1,1.82-.94,2.35,2.35,0,0,1,.95.19,1.49,1.49,0,0,1,.65.49,1.86,1.86,0,0,1,.3.71,5.56,5.56,0,0,1,.05.94v3.51h-1V79.94a2.61,2.61,0,0,0-.11-.88.94.94,0,0,0-.4-.47,1.28,1.28,0,0,0-.67-.17,1.57,1.57,0,0,0-1.07.39,1.93,1.93,0,0,0-.45,1.49v3.12Z"/><path d="M96.14,82.54l.14.85a3.63,3.63,0,0,1-.73.09,1.66,1.66,0,0,1-.82-.17.93.93,0,0,1-.41-.44,3.46,3.46,0,0,1-.12-1.14V78.46H93.5V77.7h.71V76.29l1-.58v2h1v.75h-1v3.33a1.68,1.68,0,0,0,.05.53.41.41,0,0,0,.17.19.64.64,0,0,0,.33.07Z"/><path d="M183,79.52a7.21,7.21,0,0,1,.29-2.25,2.8,2.8,0,0,1,.85-1.31,2.18,2.18,0,0,1,1.43-.46,2.33,2.33,0,0,1,1.11.26,2.12,2.12,0,0,1,.79.74,4,4,0,0,1,.49,1.17,7.78,7.78,0,0,1,.18,1.86,7.22,7.22,0,0,1-.29,2.24,2.79,2.79,0,0,1-.85,1.32,2.4,2.4,0,0,1-3.22-.35A5.19,5.19,0,0,1,183,79.52Zm1,0a4.93,4.93,0,0,0,.45,2.58,1.3,1.3,0,0,0,2.24,0,4.94,4.94,0,0,0,.45-2.58,4.94,4.94,0,0,0-.45-2.58,1.35,1.35,0,0,0-1.13-.64,1.24,1.24,0,0,0-1.06.56A5,5,0,0,0,184,79.52Z"/><path d="M202.11,80l-5.22,2.23v-1L201,79.52l-4.13-1.7v-1l5.22,2.2Z"/><path d="M10.26,94.65l1,.26a3.51,3.51,0,0,1-1.18,2A3.25,3.25,0,0,1,8,97.54,3.75,3.75,0,0,1,6,97a3.24,3.24,0,0,1-1.21-1.5,5.36,5.36,0,0,1-.42-2.11,4.64,4.64,0,0,1,.47-2.14,3.23,3.23,0,0,1,1.34-1.39,3.91,3.91,0,0,1,1.91-.47,3.23,3.23,0,0,1,2,.6,3.12,3.12,0,0,1,1.12,1.69l-1,.24a2.44,2.44,0,0,0-.79-1.25A2.12,2.12,0,0,0,8,90.29a2.55,2.55,0,0,0-1.52.43,2.3,2.3,0,0,0-.86,1.17,4.72,4.72,0,0,0-.25,1.51,4.79,4.79,0,0,0,.29,1.75,2.18,2.18,0,0,0,.91,1.12A2.56,2.56,0,0,0,8,96.65a2.25,2.25,0,0,0,1.48-.5A2.58,2.58,0,0,0,10.26,94.65Z"/><path d="M18.43,94.65l1,.26a3.51,3.51,0,0,1-1.18,2,3.25,3.25,0,0,1-2.08.67A3.75,3.75,0,0,1,14.14,97a3.24,3.24,0,0,1-1.21-1.5,5.36,5.36,0,0,1-.42-2.11A4.64,4.64,0,0,1,13,91.27a3.23,3.23,0,0,1,1.34-1.39,3.91,3.91,0,0,1,1.91-.47,3.23,3.23,0,0,1,2,.6,3.12,3.12,0,0,1,1.12,1.69l-1,.24a2.44,2.44,0,0,0-.79-1.25,2.12,2.12,0,0,0-1.31-.39,2.55,2.55,0,0,0-1.52.43,2.3,2.3,0,0,0-.86,1.17,4.72,4.72,0,0,0-.25,1.51,4.79,4.79,0,0,0,.29,1.75,2.18,2.18,0,0,0,.91,1.12,2.56,2.56,0,0,0,1.34.37,2.25,2.25,0,0,0,1.48-.5A2.58,2.58,0,0,0,18.43,94.65Z"/><path d="M20.93,97.41V89.53h3a3.66,3.66,0,0,1,1.45.24,1.86,1.86,0,0,1,.85.74,1.94,1.94,0,0,1,.31,1,1.79,1.79,0,0,1-.27,1,2,2,0,0,1-.83.72,2.07,2.07,0,0,1,1.1.71,1.91,1.91,0,0,1,.38,1.19,2.29,2.29,0,0,1-.23,1,2,2,0,0,1-.58.73,2.41,2.41,0,0,1-.86.39,5.23,5.23,0,0,1-1.27.13Zm1-4.56h1.7a3.81,3.81,0,0,0,1-.09,1.09,1.09,0,0,0,.6-.39,1.12,1.12,0,0,0,.2-.69,1.27,1.27,0,0,0-.19-.69,1,1,0,0,0-.54-.41,4.45,4.45,0,0,0-1.2-.11H22Zm0,3.64h2a4.46,4.46,0,0,0,.71,0,1.69,1.69,0,0,0,.6-.21,1.14,1.14,0,0,0,.4-.44,1.37,1.37,0,0,0,.16-.66,1.3,1.3,0,0,0-.23-.76,1.19,1.19,0,0,0-.63-.46,3.87,3.87,0,0,0-1.15-.13H22Z"/><path d="M34.06,97.41,31,89.53h1.13l2,5.72q.25.69.41,1.29.18-.64.42-1.29l2.13-5.72h1.06l-3.08,7.87Z"/><path d="M42.54,95.57l1,.12a2.44,2.44,0,0,1-.88,1.36A3,3,0,0,1,39,96.77a3,3,0,0,1-.73-2.16,3.15,3.15,0,0,1,.74-2.23A2.51,2.51,0,0,1,41,91.58a2.44,2.44,0,0,1,1.87.78,3.09,3.09,0,0,1,.73,2.19c0,.06,0,.14,0,.26H39.31a2.19,2.19,0,0,0,.53,1.44,1.58,1.58,0,0,0,1.19.5,1.48,1.48,0,0,0,.91-.28A1.85,1.85,0,0,0,42.54,95.57ZM39.36,94h3.19a1.93,1.93,0,0,0-.37-1.08,1.48,1.48,0,0,0-1.2-.56,1.54,1.54,0,0,0-1.12.45A1.76,1.76,0,0,0,39.36,94Z"/><path d="M45,97.41V91.7h.87v.86a2.36,2.36,0,0,1,.61-.8,1.08,1.08,0,0,1,.62-.19,1.89,1.89,0,0,1,1,.31l-.33.9a1.38,1.38,0,0,0-.71-.21.92.92,0,0,0-.57.19,1,1,0,0,0-.36.53,3.76,3.76,0,0,0-.16,1.13v3Z"/><path d="M48.47,95.71l1-.15a1.33,1.33,0,0,0,.45.88,1.56,1.56,0,0,0,1,.31,1.51,1.51,0,0,0,1-.27.81.81,0,0,0,.32-.64.59.59,0,0,0-.28-.52,4.17,4.17,0,0,0-1-.33,9,9,0,0,1-1.47-.46,1.41,1.41,0,0,1-.84-1.31,1.46,1.46,0,0,1,.17-.71,1.57,1.57,0,0,1,.48-.54,2,2,0,0,1,.62-.28,2.91,2.91,0,0,1,.83-.12,3.3,3.3,0,0,1,1.18.19,1.6,1.6,0,0,1,.75.52,2.05,2.05,0,0,1,.33.88L52,93.3a1,1,0,0,0-.37-.69,1.37,1.37,0,0,0-.87-.25,1.58,1.58,0,0,0-1,.22.64.64,0,0,0-.28.52.54.54,0,0,0,.12.34.86.86,0,0,0,.37.26l.85.25a11.85,11.85,0,0,1,1.43.45,1.45,1.45,0,0,1,.64.51,1.41,1.41,0,0,1,.23.83,1.62,1.62,0,0,1-.28.91,1.83,1.83,0,0,1-.81.66,3,3,0,0,1-1.2.23,2.68,2.68,0,0,1-1.69-.46A2.15,2.15,0,0,1,48.47,95.71Z"/><path d="M54.58,90.65V89.53h1v1.11Zm0,6.76V91.7h1v5.7Z"/><path d="M56.88,94.56a2.94,2.94,0,0,1,.88-2.35,2.66,2.66,0,0,1,1.79-.63,2.56,2.56,0,0,1,1.92.77,2.94,2.94,0,0,1,.75,2.13,3.77,3.77,0,0,1-.33,1.73,2.34,2.34,0,0,1-1,1,2.79,2.79,0,0,1-1.38.35,2.57,2.57,0,0,1-1.94-.77A3.07,3.07,0,0,1,56.88,94.56Zm1,0a2.43,2.43,0,0,0,.48,1.64,1.59,1.59,0,0,0,2.4,0,2.49,2.49,0,0,0,.48-1.67,2.35,2.35,0,0,0-.48-1.6,1.59,1.59,0,0,0-2.4,0A2.42,2.42,0,0,0,57.87,94.56Z"/><path d="M63.57,97.41V91.7h.87v.81a2,2,0,0,1,1.82-.94,2.35,2.35,0,0,1,.95.19,1.49,1.49,0,0,1,.65.49,1.86,1.86,0,0,1,.3.71,5.56,5.56,0,0,1,.05.94v3.51h-1V93.94a2.61,2.61,0,0,0-.11-.88.94.94,0,0,0-.4-.47,1.28,1.28,0,0,0-.67-.17A1.57,1.57,0,0,0,65,92.8a1.93,1.93,0,0,0-.45,1.49v3.12Z"/><path d="M167,95.33l1-.13a2.13,2.13,0,0,0,.57,1.18,1.4,1.4,0,0,0,1,.36,1.56,1.56,0,0,0,1.15-.47,1.59,1.59,0,0,0,.47-1.17,1.48,1.48,0,0,0-.44-1.1,1.5,1.5,0,0,0-1.11-.43,2.74,2.74,0,0,0-.68.11l.11-.85h.16a2,2,0,0,0,1.11-.32,1.1,1.1,0,0,0,.49-1,1.17,1.17,0,0,0-.36-.88,1.28,1.28,0,0,0-.93-.35,1.32,1.32,0,0,0-.94.36,1.78,1.78,0,0,0-.48,1.06l-1-.17a2.48,2.48,0,0,1,.8-1.51,2.33,2.33,0,0,1,1.56-.54,2.57,2.57,0,0,1,1.19.28,2,2,0,0,1,.83.75,1.94,1.94,0,0,1,.29,1,1.66,1.66,0,0,1-.27.93,1.87,1.87,0,0,1-.81.67,1.83,1.83,0,0,1,1.08.67,2,2,0,0,1,.39,1.27,2.32,2.32,0,0,1-.75,1.75,2.65,2.65,0,0,1-1.9.72,2.48,2.48,0,0,1-1.72-.62A2.39,2.39,0,0,1,167,95.33Z"/><path d="M173.91,97.41v-1.1H175v1.1Z"/><path d="M180.28,97.41h-1V91.25a5,5,0,0,1-.92.67,6.48,6.48,0,0,1-1,.5v-.94a5.8,5.8,0,0,0,1.42-.92,3.61,3.61,0,0,0,.86-1.05h.62Z"/><path d="M183,90.57v-.93h5.1v.75a10.73,10.73,0,0,0-1.49,2.13,12.92,12.92,0,0,0-1.14,2.73,10.2,10.2,0,0,0-.37,2.16h-1a9.61,9.61,0,0,1,.37-2.24,11.81,11.81,0,0,1,1-2.54,10.86,10.86,0,0,1,1.39-2.06Z"/><path d="M202.11,94l-5.22,2.23v-1L201,93.52l-4.13-1.7v-1l5.22,2.2Z"/></svg>