<svg id="Layer_1" data-name="Layer 1" xmlns="http://www.w3.org/2000/svg" viewBox="0 0 225.68 124.33"><title>UIM_heater_status_menu2</title><rect x="0.5" y="0.5" width="224.67" height="123.3" style="fill:none;stroke:#000"/><rect x="1.37" y="0.64" width="223.81" height="12.46" style="fill:#231f20;stroke:#000"/><rect x="0.49" y="99.87" width="224.67" height="23.93" style="fill:none"/><path d="M79.27,10V2.84h1V5.78h3.91V2.84h1V10h-1V6.62H80.27V10Z" style="fill:#fff"/><path d="M90.69,8.33l1,.11a2.21,2.21,0,0,1-.84,1.24,2.6,2.6,0,0,1-1.56.44,2.56,2.56,0,0,1-1.89-.7,2.66,2.66,0,0,1-.7-2,2.78,2.78,0,0,1,.71-2A2.45,2.45,0,0,1,89.2,4.7,2.39,2.39,0,0,1,91,5.4a2.73,2.73,0,0,1,.69,2c0,.05,0,.13,0,.23H87.61a1.94,1.94,0,0,0,.51,1.31,1.55,1.55,0,0,0,1.14.45,1.46,1.46,0,0,0,.87-.25A1.69,1.69,0,0,0,90.69,8.33Zm-3-1.42h3a1.71,1.71,0,0,0-.35-1,1.44,1.44,0,0,0-1.14-.51,1.51,1.51,0,0,0-1.07.41A1.57,1.57,0,0,0,87.66,6.91Z" style="fill:#fff"/><path d="M96.62,9.36a3.46,3.46,0,0,1-1,.59,3,3,0,0,1-1,.17,2,2,0,0,1-1.38-.42,1.35,1.35,0,0,1-.48-1.07,1.36,1.36,0,0,1,.18-.7,1.46,1.46,0,0,1,.48-.51,2.3,2.3,0,0,1,.66-.29A7,7,0,0,1,94.9,7a8.79,8.79,0,0,0,1.65-.3c0-.12,0-.2,0-.23a.94.94,0,0,0-.26-.76,1.6,1.6,0,0,0-1.05-.3,1.69,1.69,0,0,0-1,.22,1.32,1.32,0,0,0-.46.77l-.9-.12a2.08,2.08,0,0,1,.41-.89,1.78,1.78,0,0,1,.82-.52,3.8,3.8,0,0,1,1.24-.18,3.42,3.42,0,0,1,1.13.16,1.5,1.5,0,0,1,.64.39,1.35,1.35,0,0,1,.29.6,4.71,4.71,0,0,1,0,.81V7.83a11.92,11.92,0,0,0,.06,1.55,1.9,1.9,0,0,0,.23.62h-1A1.79,1.79,0,0,1,96.62,9.36Zm-.08-2A7.06,7.06,0,0,1,95,7.73a3.65,3.65,0,0,0-.81.18.79.79,0,0,0-.36.29.72.72,0,0,0-.13.42.73.73,0,0,0,.28.59,1.24,1.24,0,0,0,.82.23,2,2,0,0,0,.95-.22,1.4,1.4,0,0,0,.61-.61,2,2,0,0,0,.15-.88Z" style="fill:#fff"/><path d="M101.19,9.21l.13.78a3.57,3.57,0,0,1-.7.08,1.64,1.64,0,0,1-.78-.15.87.87,0,0,1-.39-.4,3,3,0,0,1-.11-1v-3h-.68V4.81h.68V3.53l.92-.53V4.81h.93V5.5h-.93v3a1.47,1.47,0,0,0,0,.48.37.37,0,0,0,.16.17.64.64,0,0,0,.31.06Z" style="fill:#fff"/><path d="M106.08,8.33l1,.11a2.21,2.21,0,0,1-.84,1.24,2.6,2.6,0,0,1-1.56.44,2.56,2.56,0,0,1-1.89-.7,2.66,2.66,0,0,1-.7-2,2.78,2.78,0,0,1,.71-2,2.45,2.45,0,0,1,1.84-.72,2.39,2.39,0,0,1,1.78.71,2.73,2.73,0,0,1,.69,2c0,.05,0,.13,0,.23H103a1.94,1.94,0,0,0,.51,1.31,1.55,1.55,0,0,0,1.14.45,1.46,1.46,0,0,0,.87-.25A1.69,1.69,0,0,0,106.08,8.33Zm-3-1.42h3a1.71,1.71,0,0,0-.35-1,1.44,1.44,0,0,0-1.14-.51,1.51,1.51,0,0,0-1.07.41A1.57,1.57,0,0,0,103,6.91Z" style="fill:#fff"/><path d="M108.44,10V4.81h.83V5.6a2.16,2.16,0,0,1,.59-.73,1.06,1.06,0,0,1,.59-.18,1.86,1.86,0,0,1,.95.28l-.32.82a1.37,1.37,0,0,0-.68-.19.91.91,0,0,0-.54.17.94.94,0,0,0-.34.48,3.27,3.27,0,0,0-.15,1V10Z" style="fill:#fff"/><path d="M115.17,7.7l.94-.08a1.89,1.89,0,0,0,.31.88,1.68,1.68,0,0,0,.76.56,3,3,0,0,0,1.15.21,2.89,2.89,0,0,0,1-.16,1.4,1.4,0,0,0,.65-.44,1,1,0,0,0,.21-.61.9.9,0,0,0-.21-.59,1.53,1.53,0,0,0-.68-.42A13.7,13.7,0,0,0,118,6.69a7.07,7.07,0,0,1-1.45-.45,2,2,0,0,1-.8-.67,1.57,1.57,0,0,1-.26-.89,1.75,1.75,0,0,1,.32-1,2,2,0,0,1,.94-.72,3.73,3.73,0,0,1,1.38-.24,3.93,3.93,0,0,1,1.47.26,2.05,2.05,0,0,1,1.35,1.88l-1,.07a1.44,1.44,0,0,0-.52-1,2.1,2.1,0,0,0-1.31-.35,2.18,2.18,0,0,0-1.32.31.93.93,0,0,0-.41.76.8.8,0,0,0,.29.63,4.09,4.09,0,0,0,1.5.51,10.28,10.28,0,0,1,1.66.46,2.26,2.26,0,0,1,1,.73,1.72,1.72,0,0,1,.31,1,1.89,1.89,0,0,1-.34,1.08,2.24,2.24,0,0,1-1,.79,3.59,3.59,0,0,1-1.45.28,4.51,4.51,0,0,1-1.71-.28A2.37,2.37,0,0,1,115.58,9,2.34,2.34,0,0,1,115.17,7.7Z" style="fill:#fff"/><path d="M124.67,9.21l.13.78a3.57,3.57,0,0,1-.7.08,1.65,1.65,0,0,1-.78-.15.86.86,0,0,1-.39-.4,3,3,0,0,1-.11-1v-3h-.68V4.81h.68V3.53l.92-.53V4.81h.93V5.5h-.93v3a1.44,1.44,0,0,0,0,.48.37.37,0,0,0,.16.17.64.64,0,0,0,.32.06Z" style="fill:#fff"/><path d="M129.39,9.36a3.46,3.46,0,0,1-1,.59,3,3,0,0,1-1,.17A2,2,0,0,1,126,9.7a1.42,1.42,0,0,1-.3-1.76,1.46,1.46,0,0,1,.48-.51,2.29,2.29,0,0,1,.66-.29,6.93,6.93,0,0,1,.82-.13,8.78,8.78,0,0,0,1.65-.3c0-.12,0-.2,0-.23a.94.94,0,0,0-.26-.76,1.6,1.6,0,0,0-1.05-.3,1.69,1.69,0,0,0-1,.22,1.32,1.32,0,0,0-.46.77l-.9-.12a2.09,2.09,0,0,1,.41-.89,1.78,1.78,0,0,1,.82-.52,3.79,3.79,0,0,1,1.24-.18,3.43,3.43,0,0,1,1.13.16,1.5,1.5,0,0,1,.64.39,1.35,1.35,0,0,1,.29.6,4.65,4.65,0,0,1,0,.81V7.83a11.92,11.92,0,0,0,.06,1.55,1.89,1.89,0,0,0,.23.62h-1A1.79,1.79,0,0,1,129.39,9.36Zm-.08-2a7.06,7.06,0,0,1-1.51.33,3.67,3.67,0,0,0-.81.18.79.79,0,0,0-.36.29.72.72,0,0,0-.13.42.74.74,0,0,0,.28.59,1.25,1.25,0,0,0,.82.23,2,2,0,0,0,.95-.22,1.4,1.4,0,0,0,.61-.61,2,2,0,0,0,.15-.88Z" style="fill:#fff"/><path d="M134,9.21l.13.78a3.57,3.57,0,0,1-.7.08,1.64,1.64,0,0,1-.78-.15.87.87,0,0,1-.39-.4,3,3,0,0,1-.11-1v-3h-.68V4.81h.68V3.53L133,3V4.81H134V5.5H133v3a1.47,1.47,0,0,0,0,.48.38.38,0,0,0,.16.17.64.64,0,0,0,.32.06Z" style="fill:#fff"/><path d="M138.69,10V9.24a2,2,0,0,1-1.73.88,2.3,2.3,0,0,1-.9-.18,1.48,1.48,0,0,1-.62-.44,1.6,1.6,0,0,1-.29-.65A4.29,4.29,0,0,1,135.1,8V4.81H136V7.69a4.86,4.86,0,0,0,.06.93.91.91,0,0,0,.37.54,1.19,1.19,0,0,0,.7.2,1.58,1.58,0,0,0,.78-.2,1.14,1.14,0,0,0,.51-.55,2.63,2.63,0,0,0,.15-1V4.81h.92V10Z" style="fill:#fff"/><path d="M140.85,8.45l.91-.14a1.2,1.2,0,0,0,.43.8,1.55,1.55,0,0,0,1,.28,1.49,1.49,0,0,0,.94-.25.73.73,0,0,0,.31-.58.53.53,0,0,0-.27-.47,4.17,4.17,0,0,0-.94-.3,8.93,8.93,0,0,1-1.41-.42,1.35,1.35,0,0,1-.6-.49,1.26,1.26,0,0,1-.2-.7,1.28,1.28,0,0,1,.17-.64,1.45,1.45,0,0,1,.45-.49,2,2,0,0,1,.59-.26,2.93,2.93,0,0,1,.8-.1,3.29,3.29,0,0,1,1.13.18,1.53,1.53,0,0,1,.72.48,1.82,1.82,0,0,1,.32.8l-.9.12a.93.93,0,0,0-.36-.62,1.35,1.35,0,0,0-.83-.22,1.57,1.57,0,0,0-.91.2.58.58,0,0,0-.27.47.47.47,0,0,0,.11.31.82.82,0,0,0,.35.23l.82.22a11.68,11.68,0,0,1,1.37.41,1.38,1.38,0,0,1,.61.46,1.24,1.24,0,0,1,.22.75,1.43,1.43,0,0,1-.27.83,1.72,1.72,0,0,1-.78.6,3,3,0,0,1-1.15.21,2.65,2.65,0,0,1-1.62-.42A1.93,1.93,0,0,1,140.85,8.45Z" style="fill:#fff"/><rect x="0.53" y="99.87" width="44.92" height="23.97" style="fill:none"/><rect x="45.65" y="99.87" width="44.92" height="23.97" style="fill:none"/><rect x="90.57" y="99.87" width="44.92" height="23.97" style="fill:none;stroke:#000;stroke-linecap:round;stroke-linejoin:round;stroke-width:0.9753649999999999px"/><rect x="180.23" y="99.87" width="44.92" height="23.97" style="fill:none;stroke:#000;stroke-linecap:round;stroke-linejoin:round;stroke-width:0.9753649999999999px"/><rect x="135.36" y="99.87" width="44.92" height="23.97" style="fill:none"/><line x1="0.53" y1="99.87" x2="225.04" y2="99.87" style="fill:none;stroke:#000;stroke-linecap:round;stroke-linejoin:round;stroke-width:0.9753649999999999px"/><path d="M193.64,115.84V108h.65v3.23h2.56V108h.65v7.87h-.65v-3.71h-2.56v3.71Z" style="fill:#231f20"/><path d="M199.16,115.84V108h3.57v.93h-2.91v2.41h2.73v.92h-2.73v2.68h3v.93Z" style="fill:#231f20"/><path d="M204.27,115.84V108h.65v6.94h2.43v.93Z" style="fill:#231f20"/><path d="M208.68,115.84V108h1.86a2.82,2.82,0,0,1,.75.08,1.22,1.22,0,0,1,.61.37,2,2,0,0,1,.4.76,3.66,3.66,0,0,1,.15,1.07,3.36,3.36,0,0,1-.4,1.7,1.53,1.53,0,0,1-1.45.7h-1.26v3.2Zm.65-4.13h1.27a1,1,0,0,0,.9-.38,1.81,1.81,0,0,0,.27-1.06,2.07,2.07,0,0,0-.16-.85.84.84,0,0,0-.41-.46,1.76,1.76,0,0,0-.61-.07h-1.26Z" style="fill:#231f20"/><rect x="209.68" y="81.2" width="15.48" height="18.65" style="fill:none;stroke:#000;stroke-width:0.9753649999999999px"/><polygon points="210.46 90.12 217.43 97.08 224.37 90.12 210.46 90.12" style="fill:#231f20"/><rect x="210.23" y="56.35" width="13.56" height="23.68"/><rect x="209.68" y="13.08" width="15.48" height="18.65" style="fill:none;stroke:#000;stroke-width:0.9753649999999999px"/><polygon points="224.4 22.92 217.43 15.96 210.48 22.92 224.4 22.92" style="fill:#231f20"/><path d="M102.71,115.84V108h1.85a1.38,1.38,0,0,1,1.44,1,2.84,2.84,0,0,1,.19,1,2.61,2.61,0,0,1-.17,1,1.66,1.66,0,0,1-.52.72,1.43,1.43,0,0,1,.69.71,2.74,2.74,0,0,1,.24,1.19,3.48,3.48,0,0,1-.15,1,2.11,2.11,0,0,1-.36.73,1.35,1.35,0,0,1-.54.39,2.11,2.11,0,0,1-.79.13Zm.65-4.57h1.07a1.52,1.52,0,0,0,.62-.09.77.77,0,0,0,.38-.39,1.65,1.65,0,0,0,.13-.69,1.86,1.86,0,0,0-.12-.69.73.73,0,0,0-.34-.41,1.81,1.81,0,0,0-.75-.11h-1Zm0,3.64h1.23a1.82,1.82,0,0,0,.44,0,.86.86,0,0,0,.38-.21,1.1,1.1,0,0,0,.25-.44,2.06,2.06,0,0,0,.1-.66,1.89,1.89,0,0,0-.14-.76.89.89,0,0,0-.39-.46,1.58,1.58,0,0,0-.72-.13h-1.14Z" style="fill:#231f20"/><path d="M107.34,115.84l1.89-7.87h.7l2,7.87h-.74l-.58-2.38h-2.06l-.54,2.38Zm1.42-3.23h1.67l-.51-2.18q-.24-1-.35-1.63a14.92,14.92,0,0,1-.27,1.5Z" style="fill:#231f20"/><path d="M116.55,113.08l.65.26a4.21,4.21,0,0,1-.74,2,1.61,1.61,0,0,1-1.3.67,1.72,1.72,0,0,1-1.3-.52,3.38,3.38,0,0,1-.76-1.5,8.2,8.2,0,0,1-.26-2.11,7,7,0,0,1,.29-2.15,3,3,0,0,1,.84-1.39,1.78,1.78,0,0,1,1.2-.48,1.56,1.56,0,0,1,1.24.6,3.59,3.59,0,0,1,.7,1.69l-.64.24a2.84,2.84,0,0,0-.5-1.25,1,1,0,0,0-.82-.39,1.22,1.22,0,0,0-1,.44,2.54,2.54,0,0,0-.54,1.17,7.28,7.28,0,0,0-.16,1.51,7.44,7.44,0,0,0,.18,1.75,2.26,2.26,0,0,0,.57,1.12,1.19,1.19,0,0,0,.84.37,1.13,1.13,0,0,0,.93-.5A3.22,3.22,0,0,0,116.55,113.08Z" style="fill:#231f20"/><path d="M118.53,115.84V108h.65v3.9l2.45-3.9h.88l-2.07,3.19,2.16,4.68h-.86l-1.76-4-.81,1.26v2.73Z" style="fill:#231f20"/><path d="M8.33,22.32v-.92h3.34v2.92a5.88,5.88,0,0,1-1.58.92,4.7,4.7,0,0,1-1.68.31A4.48,4.48,0,0,1,6.3,25a3.29,3.29,0,0,1-1.43-1.44,4.52,4.52,0,0,1-.48-2.1,4.87,4.87,0,0,1,.48-2.15,3.19,3.19,0,0,1,1.38-1.48,4.33,4.33,0,0,1,2.08-.48,4.12,4.12,0,0,1,1.54.28,2.55,2.55,0,0,1,1.08.77,3.43,3.43,0,0,1,.6,1.29l-.94.26a2.91,2.91,0,0,0-.44-.95,1.81,1.81,0,0,0-.75-.55,2.76,2.76,0,0,0-1.08-.21,3.2,3.2,0,0,0-1.24.22,2.32,2.32,0,0,0-.84.57,2.73,2.73,0,0,0-.5.78,4.12,4.12,0,0,0-.3,1.58,3.84,3.84,0,0,0,.36,1.76,2.32,2.32,0,0,0,1.06,1.05,3.27,3.27,0,0,0,1.47.34,3.49,3.49,0,0,0,1.32-.26,3.41,3.41,0,0,0,1-.56V22.32Z"/><path d="M17,24.7a3.6,3.6,0,0,1-1,.64,3,3,0,0,1-1.07.19,2.08,2.08,0,0,1-1.44-.46A1.52,1.52,0,0,1,13,23.9a1.56,1.56,0,0,1,.19-.77,1.58,1.58,0,0,1,.5-.56,2.35,2.35,0,0,1,.7-.32,6.85,6.85,0,0,1,.86-.15,8.84,8.84,0,0,0,1.72-.33c0-.13,0-.22,0-.25a1.07,1.07,0,0,0-.27-.83,1.62,1.62,0,0,0-1.1-.33,1.71,1.71,0,0,0-1,.24,1.46,1.46,0,0,0-.48.85l-.95-.13a2.34,2.34,0,0,1,.42-1,1.86,1.86,0,0,1,.85-.58,3.82,3.82,0,0,1,1.29-.2,3.42,3.42,0,0,1,1.19.17,1.56,1.56,0,0,1,.67.43,1.52,1.52,0,0,1,.3.66,5.44,5.44,0,0,1,0,.89V23A13.6,13.6,0,0,0,18,24.72a2.15,2.15,0,0,0,.24.68h-1A2.06,2.06,0,0,1,17,24.7Zm-.08-2.16a7.1,7.1,0,0,1-1.58.37,3.63,3.63,0,0,0-.84.19.84.84,0,0,0-.38.31.85.85,0,0,0,.16,1.1,1.26,1.26,0,0,0,.86.26,2,2,0,0,0,1-.24,1.5,1.5,0,0,0,.64-.67,2.33,2.33,0,0,0,.16-1Z"/><path d="M19.25,23.7l1-.15a1.33,1.33,0,0,0,.45.88,1.56,1.56,0,0,0,1,.31,1.51,1.51,0,0,0,1-.27.81.81,0,0,0,.32-.64.59.59,0,0,0-.28-.52,4.18,4.18,0,0,0-1-.33,9,9,0,0,1-1.47-.46,1.41,1.41,0,0,1-.84-1.31,1.47,1.47,0,0,1,.17-.71,1.57,1.57,0,0,1,.48-.54,2,2,0,0,1,.62-.28,2.93,2.93,0,0,1,.83-.12,3.3,3.3,0,0,1,1.18.19,1.6,1.6,0,0,1,.75.52,2.05,2.05,0,0,1,.33.88l-.95.13a1,1,0,0,0-.37-.69,1.36,1.36,0,0,0-.87-.25,1.58,1.58,0,0,0-1,.22.64.64,0,0,0-.28.52.53.53,0,0,0,.12.34.85.85,0,0,0,.37.26l.85.25a11.89,11.89,0,0,1,1.43.45,1.45,1.45,0,0,1,.64.51,1.42,1.42,0,0,1,.23.83,1.62,1.62,0,0,1-.28.91,1.83,1.83,0,0,1-.81.66,3,3,0,0,1-1.2.23A2.68,2.68,0,0,1,20,25.07,2.15,2.15,0,0,1,19.25,23.7Z"/><path d="M31,25.41,28,17.53h1.13l2,5.72q.25.69.41,1.29.18-.64.42-1.29l2.13-5.72h1.06l-3.08,7.87Z"/><path d="M39.09,24.7a3.6,3.6,0,0,1-1,.64,3,3,0,0,1-1.07.19,2.08,2.08,0,0,1-1.44-.46A1.52,1.52,0,0,1,35,23.9a1.56,1.56,0,0,1,.19-.77,1.58,1.58,0,0,1,.5-.56,2.35,2.35,0,0,1,.7-.32,6.85,6.85,0,0,1,.86-.15A8.84,8.84,0,0,0,39,21.79c0-.13,0-.22,0-.25a1.07,1.07,0,0,0-.27-.83,1.62,1.62,0,0,0-1.1-.33,1.71,1.71,0,0,0-1,.24,1.46,1.46,0,0,0-.48.85l-.95-.13a2.34,2.34,0,0,1,.42-1,1.86,1.86,0,0,1,.85-.58,3.82,3.82,0,0,1,1.29-.2,3.42,3.42,0,0,1,1.19.17,1.56,1.56,0,0,1,.67.43,1.52,1.52,0,0,1,.3.66,5.44,5.44,0,0,1,0,.89V23a13.6,13.6,0,0,0,.06,1.71,2.15,2.15,0,0,0,.24.68h-1A2.06,2.06,0,0,1,39.09,24.7ZM39,22.54a7.1,7.1,0,0,1-1.58.37,3.63,3.63,0,0,0-.84.19.84.84,0,0,0-.38.31.85.85,0,0,0,.16,1.1,1.26,1.26,0,0,0,.86.26,2,2,0,0,0,1-.24,1.5,1.5,0,0,0,.64-.67,2.33,2.33,0,0,0,.16-1Z"/><path d="M41.69,25.41V17.53h1v7.87Z"/><path d="M46,25.41l-2.17-5.7h1L46,23.12q.2.55.37,1.15.13-.45.36-1.08L48,19.7h1l-2.16,5.7Z"/><path d="M54,23.57l1,.12a2.44,2.44,0,0,1-.88,1.36,3,3,0,0,1-3.62-.29,3,3,0,0,1-.73-2.16,3.15,3.15,0,0,1,.74-2.23,2.51,2.51,0,0,1,1.92-.79,2.44,2.44,0,0,1,1.87.78A3.09,3.09,0,0,1,55,22.54c0,.06,0,.14,0,.26H50.77a2.19,2.19,0,0,0,.53,1.44,1.58,1.58,0,0,0,1.19.5,1.48,1.48,0,0,0,.91-.28A1.86,1.86,0,0,0,54,23.57ZM50.82,22H54a1.93,1.93,0,0,0-.37-1.08,1.48,1.48,0,0,0-1.2-.56,1.53,1.53,0,0,0-1.12.45A1.76,1.76,0,0,0,50.82,22Z"/><path d="M59.51,21.57a4.28,4.28,0,0,1,1.05-3.07,3.58,3.58,0,0,1,2.72-1.11,3.77,3.77,0,0,1,2,.52,3.4,3.4,0,0,1,1.33,1.45A4.71,4.71,0,0,1,67,21.48a4.64,4.64,0,0,1-.48,2.14,3.3,3.3,0,0,1-1.37,1.43,3.92,3.92,0,0,1-1.91.49,3.72,3.72,0,0,1-2-.54A3.46,3.46,0,0,1,60,23.54,4.44,4.44,0,0,1,59.51,21.57Zm1.07,0a3.16,3.16,0,0,0,.77,2.24,2.67,2.67,0,0,0,3.86,0A3.34,3.34,0,0,0,66,21.47a4,4,0,0,0-.32-1.68,2.5,2.5,0,0,0-1-1.11,2.57,2.57,0,0,0-1.4-.4,2.66,2.66,0,0,0-1.9.76A3.4,3.4,0,0,0,60.59,21.59Z"/><path d="M68.48,25.41V19.7h.87v.81a2.05,2.05,0,0,1,1.82-.94,2.37,2.37,0,0,1,.95.19,1.48,1.48,0,0,1,.65.49,1.87,1.87,0,0,1,.3.71,5.55,5.55,0,0,1,.05.94v3.51h-1V21.94a2.61,2.61,0,0,0-.11-.88.93.93,0,0,0-.4-.47,1.27,1.27,0,0,0-.67-.17,1.57,1.57,0,0,0-1.07.39,1.93,1.93,0,0,0-.45,1.49v3.12Z"/><path d="M189.27,25.41V17.53h1.07l4.14,6.18V17.53h1v7.87h-1.07l-4.14-6.19v6.19Z"/><path d="M197,22.55a2.94,2.94,0,0,1,.88-2.35,2.65,2.65,0,0,1,1.79-.63,2.56,2.56,0,0,1,1.92.77,2.93,2.93,0,0,1,.75,2.13,3.77,3.77,0,0,1-.33,1.73,2.34,2.34,0,0,1-1,1,2.8,2.8,0,0,1-1.38.35,2.56,2.56,0,0,1-1.94-.77A3.07,3.07,0,0,1,197,22.55Zm1,0a2.43,2.43,0,0,0,.48,1.64,1.59,1.59,0,0,0,2.4,0,2.49,2.49,0,0,0,.48-1.67,2.36,2.36,0,0,0-.48-1.6,1.59,1.59,0,0,0-2.4,0A2.42,2.42,0,0,0,198,22.55Z"/><path d="M4.7,39.41V31.53H10v.93H5.74V34.9h3.7v.93H5.74v3.58Z"/><path d="M11.44,39.41V31.53h1v7.87Z"/><path d="M17.85,38.7a3.6,3.6,0,0,1-1,.64,3,3,0,0,1-1.07.19,2.08,2.08,0,0,1-1.44-.46,1.52,1.52,0,0,1-.5-1.17,1.56,1.56,0,0,1,.19-.77,1.58,1.58,0,0,1,.5-.56,2.35,2.35,0,0,1,.7-.32,6.85,6.85,0,0,1,.86-.15,8.84,8.84,0,0,0,1.72-.33c0-.13,0-.22,0-.25a1.07,1.07,0,0,0-.27-.83,1.62,1.62,0,0,0-1.1-.33,1.71,1.71,0,0,0-1,.24,1.46,1.46,0,0,0-.48.85L14,35.33a2.34,2.34,0,0,1,.42-1,1.86,1.86,0,0,1,.85-.58,3.82,3.82,0,0,1,1.29-.2,3.42,3.42,0,0,1,1.19.17,1.56,1.56,0,0,1,.67.43,1.52,1.52,0,0,1,.3.66,5.44,5.44,0,0,1,0,.89V37a13.6,13.6,0,0,0,.06,1.71,2.15,2.15,0,0,0,.24.68H18A2.06,2.06,0,0,1,17.85,38.7Zm-.08-2.16a7.1,7.1,0,0,1-1.58.37,3.63,3.63,0,0,0-.84.19.84.84,0,0,0-.38.31.85.85,0,0,0,.16,1.1,1.26,1.26,0,0,0,.86.26,2,2,0,0,0,1-.24,1.5,1.5,0,0,0,.64-.67,2.33,2.33,0,0,0,.16-1Z"/><path d="M20.46,39.41V33.7h.86v.8a2,2,0,0,1,.71-.67,2,2,0,0,1,1-.25,1.88,1.88,0,0,1,1,.26,1.41,1.41,0,0,1,.57.74,2,2,0,0,1,1.76-1,1.74,1.74,0,0,1,1.31.47,2,2,0,0,1,.46,1.45v3.92h-1V35.81a2.64,2.64,0,0,0-.09-.84.81.81,0,0,0-.34-.41,1.06,1.06,0,0,0-.58-.16,1.35,1.35,0,0,0-1,.4,1.76,1.76,0,0,0-.4,1.28v3.31h-1V35.7a1.63,1.63,0,0,0-.24-1,.9.9,0,0,0-.77-.32,1.41,1.41,0,0,0-.75.21,1.22,1.22,0,0,0-.5.63,3.53,3.53,0,0,0-.16,1.19v3Z"/><path d="M33.75,37.57l1,.12a2.44,2.44,0,0,1-.88,1.36,3,3,0,0,1-3.62-.29,3,3,0,0,1-.73-2.16,3.15,3.15,0,0,1,.74-2.23,2.51,2.51,0,0,1,1.92-.79,2.44,2.44,0,0,1,1.87.78,3.09,3.09,0,0,1,.73,2.19c0,.06,0,.14,0,.26H30.52a2.19,2.19,0,0,0,.53,1.44,1.58,1.58,0,0,0,1.19.5,1.48,1.48,0,0,0,.91-.28A1.86,1.86,0,0,0,33.75,37.57ZM30.58,36h3.19a1.93,1.93,0,0,0-.37-1.08,1.48,1.48,0,0,0-1.2-.56,1.53,1.53,0,0,0-1.12.45A1.76,1.76,0,0,0,30.58,36Z"/><path d="M39.58,39.41V31.53h2.71a6.58,6.58,0,0,1,1.4.11,2.67,2.67,0,0,1,1.15.56,3.2,3.2,0,0,1,.93,1.35,5.29,5.29,0,0,1,.31,1.87A5.5,5.5,0,0,1,45.88,37a3.86,3.86,0,0,1-.54,1.15,2.85,2.85,0,0,1-.72.71,2.91,2.91,0,0,1-.94.4,5.38,5.38,0,0,1-1.27.13Zm1-.93h1.68a4.08,4.08,0,0,0,1.22-.15,1.75,1.75,0,0,0,.71-.41,2.48,2.48,0,0,0,.58-1A4.86,4.86,0,0,0,45,35.41a3.67,3.67,0,0,0-.41-1.9,2,2,0,0,0-1-.89,4.07,4.07,0,0,0-1.35-.16H40.62Z"/><path d="M51.53,37.57l1,.12a2.44,2.44,0,0,1-.88,1.36A3,3,0,0,1,48,38.76a3,3,0,0,1-.73-2.16A3.15,3.15,0,0,1,48,34.37,2.51,2.51,0,0,1,50,33.57a2.44,2.44,0,0,1,1.87.78,3.09,3.09,0,0,1,.73,2.19c0,.06,0,.14,0,.26H48.3a2.19,2.19,0,0,0,.53,1.44,1.58,1.58,0,0,0,1.19.5,1.48,1.48,0,0,0,.91-.28A1.86,1.86,0,0,0,51.53,37.57ZM48.35,36h3.19a1.93,1.93,0,0,0-.37-1.08,1.48,1.48,0,0,0-1.2-.56,1.53,1.53,0,0,0-1.12.45A1.76,1.76,0,0,0,48.35,36Z"/><path d="M56.07,38.54l.14.85a3.6,3.6,0,0,1-.73.09,1.66,1.66,0,0,1-.82-.17.93.93,0,0,1-.41-.44,3.46,3.46,0,0,1-.12-1.14V34.45h-.71V33.7h.71V32.29l1-.58v2h1v.75h-1v3.34a1.68,1.68,0,0,0,.05.53.4.4,0,0,0,.17.19.65.65,0,0,0,.33.07Z"/><path d="M61.14,37.57l1,.12a2.44,2.44,0,0,1-.88,1.36,3,3,0,0,1-3.62-.29,3,3,0,0,1-.73-2.16,3.15,3.15,0,0,1,.74-2.23,2.51,2.51,0,0,1,1.92-.79,2.44,2.44,0,0,1,1.87.78,3.09,3.09,0,0,1,.73,2.19c0,.06,0,.14,0,.26H57.91a2.19,2.19,0,0,0,.53,1.44,1.58,1.58,0,0,0,1.19.5,1.48,1.48,0,0,0,.91-.28A1.86,1.86,0,0,0,61.14,37.57ZM58,36h3.19a1.93,1.93,0,0,0-.37-1.08,1.48,1.48,0,0,0-1.2-.56,1.53,1.53,0,0,0-1.12.45A1.76,1.76,0,0,0,58,36Z"/><path d="M67.3,37.32l1,.12a2.47,2.47,0,0,1-.8,1.54,2.33,2.33,0,0,1-1.58.56A2.45,2.45,0,0,1,64,38.77a3.1,3.1,0,0,1-.71-2.19A4,4,0,0,1,63.59,35a2.13,2.13,0,0,1,.93-1,2.76,2.76,0,0,1,1.36-.35A2.37,2.37,0,0,1,67.4,34a2.15,2.15,0,0,1,.76,1.33l-.94.15a1.56,1.56,0,0,0-.48-.86,1.23,1.23,0,0,0-.82-.29,1.5,1.5,0,0,0-1.19.52,2.49,2.49,0,0,0-.46,1.66,2.57,2.57,0,0,0,.44,1.67,1.43,1.43,0,0,0,1.15.52,1.35,1.35,0,0,0,1-.35A1.73,1.73,0,0,0,67.3,37.32Z"/><path d="M71.41,38.54l.14.85a3.6,3.6,0,0,1-.73.09,1.66,1.66,0,0,1-.82-.17.93.93,0,0,1-.41-.44,3.46,3.46,0,0,1-.12-1.14V34.45h-.71V33.7h.71V32.29l1-.58v2h1v.75h-1v3.34a1.68,1.68,0,0,0,.05.53.4.4,0,0,0,.17.19.65.65,0,0,0,.33.07Z"/><path d="M76.48,37.57l1,.12a2.44,2.44,0,0,1-.88,1.36A3,3,0,0,1,73,38.76a3,3,0,0,1-.73-2.16A3.15,3.15,0,0,1,73,34.37a2.51,2.51,0,0,1,1.92-.79,2.44,2.44,0,0,1,1.87.78,3.09,3.09,0,0,1,.73,2.19c0,.06,0,.14,0,.26H73.25a2.19,2.19,0,0,0,.53,1.44,1.58,1.58,0,0,0,1.19.5,1.48,1.48,0,0,0,.91-.28A1.86,1.86,0,0,0,76.48,37.57ZM73.3,36h3.19a1.93,1.93,0,0,0-.37-1.08,1.48,1.48,0,0,0-1.2-.56,1.53,1.53,0,0,0-1.12.45A1.76,1.76,0,0,0,73.3,36Z"/><path d="M82.61,39.41v-.72a1.77,1.77,0,0,1-1.6.85,2.24,2.24,0,0,1-1.25-.38,2.47,2.47,0,0,1-.89-1,3.62,3.62,0,0,1-.31-1.55A4.05,4.05,0,0,1,78.84,35a2.25,2.25,0,0,1,.85-1.07A2.28,2.28,0,0,1,81,33.57a1.9,1.9,0,0,1,1.57.78V31.53h1v7.87Zm-3.06-2.85A2.48,2.48,0,0,0,80,38.2a1.39,1.39,0,0,0,1.09.54,1.37,1.37,0,0,0,1.08-.52,2.39,2.39,0,0,0,.44-1.58,2.68,2.68,0,0,0-.45-1.72,1.39,1.39,0,0,0-1.11-.55A1.34,1.34,0,0,0,80,34.9,2.6,2.6,0,0,0,79.55,36.56Z"/><path d="M189.27,39.41V31.53h1.07l4.14,6.18V31.53h1v7.87h-1.07l-4.14-6.19v6.19Z"/><path d="M197,36.55a2.94,2.94,0,0,1,.88-2.35,2.65,2.65,0,0,1,1.79-.63,2.56,2.56,0,0,1,1.92.77,2.93,2.93,0,0,1,.75,2.13,3.77,3.77,0,0,1-.33,1.73,2.34,2.34,0,0,1-1,1,2.8,2.8,0,0,1-1.38.35,2.56,2.56,0,0,1-1.94-.77A3.07,3.07,0,0,1,197,36.55Zm1,0a2.43,2.43,0,0,0,.48,1.64,1.59,1.59,0,0,0,2.4,0,2.49,2.49,0,0,0,.48-1.67,2.36,2.36,0,0,0-.48-1.6,1.59,1.59,0,0,0-2.4,0A2.42,2.42,0,0,0,198,36.55Z"/><path d="M4.6,53.41V45.53h3A3.65,3.65,0,0,1,9,45.77a1.86,1.86,0,0,1,.85.74,1.94,1.94,0,0,1,.31,1,1.79,1.79,0,0,1-.27,1,2,2,0,0,1-.83.72,2.06,2.06,0,0,1,1.1.71,1.91,1.91,0,0,1,.38,1.19,2.3,2.3,0,0,1-.23,1,2,2,0,0,1-.58.73,2.4,2.4,0,0,1-.86.39,5.23,5.23,0,0,1-1.27.13Zm1-4.57h1.7a3.79,3.79,0,0,0,1-.09,1.1,1.1,0,0,0,.6-.39,1.13,1.13,0,0,0,.2-.69A1.27,1.27,0,0,0,9,47a1,1,0,0,0-.54-.41,4.5,4.5,0,0,0-1.2-.11H5.64Zm0,3.64h2a4.54,4.54,0,0,0,.71,0,1.7,1.7,0,0,0,.6-.21,1.14,1.14,0,0,0,.4-.44,1.37,1.37,0,0,0,.16-.66,1.31,1.31,0,0,0-.23-.77,1.19,1.19,0,0,0-.63-.46,3.89,3.89,0,0,0-1.15-.13H5.64Z"/><path d="M12.06,53.41V45.53h1v7.87Z"/><path d="M14.38,50.55a2.94,2.94,0,0,1,.88-2.35,2.66,2.66,0,0,1,1.79-.63,2.56,2.56,0,0,1,1.92.77,2.93,2.93,0,0,1,.75,2.13,3.77,3.77,0,0,1-.33,1.73,2.34,2.34,0,0,1-1,1,2.8,2.8,0,0,1-1.38.35,2.56,2.56,0,0,1-1.94-.77A3.07,3.07,0,0,1,14.38,50.55Zm1,0a2.43,2.43,0,0,0,.48,1.64,1.59,1.59,0,0,0,2.4,0,2.49,2.49,0,0,0,.48-1.67,2.36,2.36,0,0,0-.48-1.6,1.59,1.59,0,0,0-2.4,0A2.42,2.42,0,0,0,15.38,50.55Z"/><path d="M22.13,53.41l-1.75-5.7h1L22.29,51l.34,1.22.3-1.18.91-3.34h1L25.68,51,26,52.1,26.3,51l1-3.3h.94l-1.78,5.7h-1L24.52,50l-.22-1-1.15,4.39Z"/><path d="M33.15,51.57l1,.12a2.44,2.44,0,0,1-.88,1.36,3,3,0,0,1-3.62-.29,3,3,0,0,1-.73-2.16,3.15,3.15,0,0,1,.74-2.23,2.51,2.51,0,0,1,1.92-.79,2.44,2.44,0,0,1,1.87.78,3.09,3.09,0,0,1,.73,2.19c0,.06,0,.14,0,.26H29.92a2.19,2.19,0,0,0,.53,1.44,1.58,1.58,0,0,0,1.19.5,1.48,1.48,0,0,0,.91-.28A1.86,1.86,0,0,0,33.15,51.57ZM30,50h3.19a1.93,1.93,0,0,0-.37-1.08,1.48,1.48,0,0,0-1.2-.56,1.53,1.53,0,0,0-1.12.45A1.76,1.76,0,0,0,30,50Z"/><path d="M35.57,53.41V47.7h.87v.86a2.37,2.37,0,0,1,.61-.8,1.08,1.08,0,0,1,.62-.19,1.89,1.89,0,0,1,1,.31l-.33.9a1.38,1.38,0,0,0-.71-.21.92.92,0,0,0-.57.19,1,1,0,0,0-.36.53,3.77,3.77,0,0,0-.16,1.13v3Z"/><path d="M42.88,53.41V45.53h3.49a4.66,4.66,0,0,1,1.6.21,1.75,1.75,0,0,1,.88.75,2.24,2.24,0,0,1,.33,1.19,2,2,0,0,1-.54,1.41,2.75,2.75,0,0,1-1.68.73,2.69,2.69,0,0,1,.63.39,5.41,5.41,0,0,1,.86,1l1.37,2.14H48.51l-1-1.64q-.46-.71-.75-1.08a2.37,2.37,0,0,0-.53-.53,1.58,1.58,0,0,0-.48-.21,3.14,3.14,0,0,0-.58,0H43.92v3.5Zm1-4.4h2.24a3.35,3.35,0,0,0,1.12-.15,1.19,1.19,0,0,0,.61-.47,1.28,1.28,0,0,0,.21-.71,1.17,1.17,0,0,0-.41-.92,1.9,1.9,0,0,0-1.28-.36H43.92Z"/><path d="M51,53.41V45.53h3a7.15,7.15,0,0,1,1.2.08,2.37,2.37,0,0,1,1,.37,1.93,1.93,0,0,1,.63.76,2.56,2.56,0,0,1-.4,2.77,3.07,3.07,0,0,1-2.31.7h-2v3.2Zm1-4.13h2a2.16,2.16,0,0,0,1.43-.38A1.34,1.34,0,0,0,56,47.84a1.43,1.43,0,0,0-.25-.85,1.17,1.17,0,0,0-.66-.46,4.46,4.46,0,0,0-1-.07h-2Z"/><path d="M58.55,53.41V45.53h1.57L62,51.11q.26.78.38,1.17.13-.43.42-1.26l1.89-5.48h1.4v7.87h-1V46.82l-2.29,6.59h-.94l-2.28-6.7v6.7Z"/><path d="M76.86,50.64l1,.26a3.51,3.51,0,0,1-1.18,2,3.25,3.25,0,0,1-2.08.67A3.74,3.74,0,0,1,72.57,53a3.24,3.24,0,0,1-1.21-1.5,5.36,5.36,0,0,1-.42-2.11,4.64,4.64,0,0,1,.47-2.15,3.22,3.22,0,0,1,1.34-1.39,3.91,3.91,0,0,1,1.91-.48,3.23,3.23,0,0,1,2,.6,3.12,3.12,0,0,1,1.12,1.69l-1,.24a2.43,2.43,0,0,0-.79-1.25,2.12,2.12,0,0,0-1.31-.39,2.55,2.55,0,0,0-1.52.44,2.3,2.3,0,0,0-.86,1.17A4.71,4.71,0,0,0,72,49.4a4.8,4.8,0,0,0,.29,1.75,2.18,2.18,0,0,0,.91,1.12,2.55,2.55,0,0,0,1.34.37,2.24,2.24,0,0,0,1.48-.5A2.58,2.58,0,0,0,76.86,50.64Z"/><path d="M79.38,53.41V45.53h1.57l1.86,5.58q.26.78.38,1.17.13-.43.42-1.26l1.89-5.48h1.4v7.87h-1V46.82L83.6,53.41h-.94l-2.28-6.7v6.7Z"/><path d="M88.79,53.41V45.53H91.5a6.58,6.58,0,0,1,1.4.11,2.67,2.67,0,0,1,1.15.56A3.2,3.2,0,0,1,95,47.55a5.29,5.29,0,0,1,.31,1.87A5.5,5.5,0,0,1,95.09,51a3.86,3.86,0,0,1-.54,1.15,2.85,2.85,0,0,1-.72.71,2.91,2.91,0,0,1-.94.4,5.38,5.38,0,0,1-1.27.13Zm1-.93h1.68a4.08,4.08,0,0,0,1.22-.15,1.75,1.75,0,0,0,.71-.41,2.48,2.48,0,0,0,.58-1,4.86,4.86,0,0,0,.21-1.52,3.67,3.67,0,0,0-.41-1.9,2,2,0,0,0-1-.89,4.07,4.07,0,0,0-1.35-.16H89.83Z"/><path d="M197.06,49.52a7.21,7.21,0,0,1,.29-2.25A2.8,2.8,0,0,1,198.2,46a2.18,2.18,0,0,1,1.43-.46,2.33,2.33,0,0,1,1.11.25,2.13,2.13,0,0,1,.79.74,4,4,0,0,1,.49,1.17,7.77,7.77,0,0,1,.18,1.86,7.23,7.23,0,0,1-.29,2.24,2.8,2.8,0,0,1-.85,1.32,2.18,2.18,0,0,1-1.43.46,2.16,2.16,0,0,1-1.79-.82A5.19,5.19,0,0,1,197.06,49.52Zm1,0a4.93,4.93,0,0,0,.45,2.58,1.3,1.3,0,0,0,2.24,0,4.94,4.94,0,0,0,.45-2.58,4.93,4.93,0,0,0-.45-2.58,1.34,1.34,0,0,0-1.13-.64,1.24,1.24,0,0,0-1.06.56A5,5,0,0,0,198.05,49.52Z"/><path d="M4.6,67.41V59.53h3A3.65,3.65,0,0,1,9,59.77a1.86,1.86,0,0,1,.85.74,1.94,1.94,0,0,1,.31,1,1.79,1.79,0,0,1-.27,1,2,2,0,0,1-.83.72,2.06,2.06,0,0,1,1.1.71,1.91,1.91,0,0,1,.38,1.19,2.29,2.29,0,0,1-.23,1,2,2,0,0,1-.58.73,2.41,2.41,0,0,1-.86.39,5.23,5.23,0,0,1-1.27.13Zm1-4.56h1.7a3.79,3.79,0,0,0,1-.09,1.1,1.1,0,0,0,.6-.39,1.13,1.13,0,0,0,.2-.69A1.27,1.27,0,0,0,9,61a1,1,0,0,0-.54-.41,4.5,4.5,0,0,0-1.2-.11H5.64Zm0,3.64h2a4.46,4.46,0,0,0,.71,0,1.69,1.69,0,0,0,.6-.21,1.14,1.14,0,0,0,.4-.44,1.37,1.37,0,0,0,.16-.66,1.3,1.3,0,0,0-.23-.76,1.19,1.19,0,0,0-.63-.46,3.87,3.87,0,0,0-1.15-.13H5.64Z"/><path d="M12.06,67.41V59.53h1v7.87Z"/><path d="M14.38,64.55a2.94,2.94,0,0,1,.88-2.35,2.66,2.66,0,0,1,1.79-.63,2.56,2.56,0,0,1,1.92.77,2.93,2.93,0,0,1,.75,2.13,3.77,3.77,0,0,1-.33,1.73,2.34,2.34,0,0,1-1,1,2.79,2.79,0,0,1-1.38.35,2.57,2.57,0,0,1-1.94-.77A3.07,3.07,0,0,1,14.38,64.55Zm1,0a2.43,2.43,0,0,0,.48,1.64,1.59,1.59,0,0,0,2.4,0,2.49,2.49,0,0,0,.48-1.67,2.36,2.36,0,0,0-.48-1.6,1.59,1.59,0,0,0-2.4,0A2.42,2.42,0,0,0,15.38,64.55Z"/><path d="M22.13,67.41l-1.75-5.7h1L22.29,65l.34,1.22.3-1.18.91-3.34h1L25.68,65,26,66.1,26.3,65l1-3.3h.94l-1.78,5.7h-1L24.52,64l-.22-1-1.15,4.39Z"/><path d="M33.15,65.57l1,.12a2.44,2.44,0,0,1-.88,1.36,3,3,0,0,1-3.62-.29,3,3,0,0,1-.73-2.16,3.15,3.15,0,0,1,.74-2.23,2.51,2.51,0,0,1,1.92-.79,2.44,2.44,0,0,1,1.87.78,3.09,3.09,0,0,1,.73,2.19c0,.06,0,.14,0,.26H29.92a2.19,2.19,0,0,0,.53,1.44,1.58,1.58,0,0,0,1.19.5,1.48,1.48,0,0,0,.91-.28A1.85,1.85,0,0,0,33.15,65.57ZM30,64h3.19a1.93,1.93,0,0,0-.37-1.08,1.48,1.48,0,0,0-1.2-.56,1.53,1.53,0,0,0-1.12.45A1.77,1.77,0,0,0,30,64Z"/><path d="M35.57,67.41V61.7h.87v.86a2.37,2.37,0,0,1,.61-.8,1.08,1.08,0,0,1,.62-.19,1.89,1.89,0,0,1,1,.31l-.33.9a1.38,1.38,0,0,0-.71-.21.92.92,0,0,0-.57.19,1,1,0,0,0-.36.53,3.76,3.76,0,0,0-.16,1.13v3Z"/><path d="M42.88,67.41V59.53h3.49a4.66,4.66,0,0,1,1.6.21,1.75,1.75,0,0,1,.88.75,2.24,2.24,0,0,1,.33,1.19,2,2,0,0,1-.54,1.41,2.75,2.75,0,0,1-1.68.73,2.71,2.71,0,0,1,.63.39,5.41,5.41,0,0,1,.86,1l1.37,2.14H48.51l-1-1.64q-.46-.71-.75-1.08a2.39,2.39,0,0,0-.53-.53,1.58,1.58,0,0,0-.48-.21,3.2,3.2,0,0,0-.58,0H43.92v3.5Zm1-4.4h2.24a3.35,3.35,0,0,0,1.12-.15,1.19,1.19,0,0,0,.61-.47,1.28,1.28,0,0,0,.21-.71,1.17,1.17,0,0,0-.41-.92,1.9,1.9,0,0,0-1.28-.36H43.92Z"/><path d="M51,67.41V59.53h3a7.15,7.15,0,0,1,1.2.08,2.37,2.37,0,0,1,1,.37,1.93,1.93,0,0,1,.63.76,2.56,2.56,0,0,1-.4,2.77,3.07,3.07,0,0,1-2.31.7h-2v3.2Zm1-4.13h2a2.16,2.16,0,0,0,1.43-.38A1.34,1.34,0,0,0,56,61.84a1.43,1.43,0,0,0-.25-.85,1.17,1.17,0,0,0-.66-.46,4.46,4.46,0,0,0-1-.07h-2Z"/><path d="M58.55,67.41V59.53h1.57L62,65.11q.26.78.38,1.17.13-.43.42-1.26l1.89-5.48h1.4v7.87h-1V60.82l-2.29,6.59h-.94l-2.28-6.7v6.7Z"/><path d="M197.06,63.52a7.21,7.21,0,0,1,.29-2.25A2.8,2.8,0,0,1,198.2,60a2.18,2.18,0,0,1,1.43-.46,2.33,2.33,0,0,1,1.11.25,2.13,2.13,0,0,1,.79.74,4,4,0,0,1,.49,1.17,7.77,7.77,0,0,1,.18,1.86,7.22,7.22,0,0,1-.29,2.24,2.79,2.79,0,0,1-.85,1.32,2.4,2.4,0,0,1-3.22-.35A5.19,5.19,0,0,1,197.06,63.52Zm1,0a4.93,4.93,0,0,0,.45,2.58,1.3,1.3,0,0,0,2.24,0,4.94,4.94,0,0,0,.45-2.58,4.93,4.93,0,0,0-.45-2.58,1.34,1.34,0,0,0-1.13-.64,1.24,1.24,0,0,0-1.06.56A5,5,0,0,0,198.05,63.52Z"/><path d="M3.78,81.41l3-7.87H7.93l3.22,7.87H10L9,79H5.75l-.86,2.38Zm2.27-3.23H8.72L7.9,76q-.38-1-.56-1.63a10,10,0,0,1-.42,1.5Z"/><path d="M12.08,81.41V75.7h.87v.81a2,2,0,0,1,1.82-.94,2.35,2.35,0,0,1,.95.19,1.49,1.49,0,0,1,.65.49,1.86,1.86,0,0,1,.3.71,5.56,5.56,0,0,1,.05.94v3.51h-1V77.94a2.61,2.61,0,0,0-.11-.88.94.94,0,0,0-.4-.47,1.28,1.28,0,0,0-.67-.17,1.57,1.57,0,0,0-1.07.39A1.93,1.93,0,0,0,13,78.29v3.12Z"/><path d="M18.06,78.55a2.94,2.94,0,0,1,.88-2.35,2.66,2.66,0,0,1,1.79-.63,2.56,2.56,0,0,1,1.92.77,2.94,2.94,0,0,1,.75,2.13,3.77,3.77,0,0,1-.33,1.73,2.34,2.34,0,0,1-1,1,2.79,2.79,0,0,1-1.38.35,2.57,2.57,0,0,1-1.94-.77A3.07,3.07,0,0,1,18.06,78.55Zm1,0a2.43,2.43,0,0,0,.48,1.64,1.59,1.59,0,0,0,2.4,0,2.49,2.49,0,0,0,.48-1.67,2.35,2.35,0,0,0-.48-1.6,1.59,1.59,0,0,0-2.4,0A2.42,2.42,0,0,0,19,78.55Z"/><path d="M28.45,81.41v-.72a1.77,1.77,0,0,1-1.6.85,2.24,2.24,0,0,1-1.25-.37,2.48,2.48,0,0,1-.89-1.05,3.62,3.62,0,0,1-.31-1.55A4.06,4.06,0,0,1,24.69,77a2.25,2.25,0,0,1,.85-1.07,2.28,2.28,0,0,1,1.27-.37,1.9,1.9,0,0,1,1.57.78V73.53h1v7.87ZM25.4,78.56a2.48,2.48,0,0,0,.46,1.64,1.39,1.39,0,0,0,1.09.54A1.37,1.37,0,0,0,28,80.22a2.39,2.39,0,0,0,.44-1.58A2.68,2.68,0,0,0,28,76.92a1.39,1.39,0,0,0-1.11-.55,1.34,1.34,0,0,0-1.08.53A2.6,2.6,0,0,0,25.4,78.56Z"/><path d="M35,79.57l1,.12a2.44,2.44,0,0,1-.88,1.36,3,3,0,0,1-3.62-.29,3,3,0,0,1-.73-2.16,3.15,3.15,0,0,1,.74-2.23,2.51,2.51,0,0,1,1.92-.79,2.44,2.44,0,0,1,1.87.78A3.09,3.09,0,0,1,36,78.54c0,.06,0,.14,0,.26H31.77a2.19,2.19,0,0,0,.53,1.44,1.58,1.58,0,0,0,1.19.5,1.48,1.48,0,0,0,.91-.28A1.85,1.85,0,0,0,35,79.57ZM31.82,78H35a1.93,1.93,0,0,0-.37-1.08,1.48,1.48,0,0,0-1.2-.56,1.54,1.54,0,0,0-1.12.45A1.76,1.76,0,0,0,31.82,78Z"/><path d="M46.45,78.65l1,.26a3.51,3.51,0,0,1-1.18,2,3.25,3.25,0,0,1-2.08.67A3.75,3.75,0,0,1,42.16,81a3.24,3.24,0,0,1-1.21-1.5,5.36,5.36,0,0,1-.42-2.11A4.64,4.64,0,0,1,41,75.26a3.23,3.23,0,0,1,1.34-1.39,3.91,3.91,0,0,1,1.91-.47,3.23,3.23,0,0,1,2,.6,3.12,3.12,0,0,1,1.12,1.69l-1,.24a2.44,2.44,0,0,0-.79-1.25,2.12,2.12,0,0,0-1.31-.39,2.55,2.55,0,0,0-1.52.43,2.3,2.3,0,0,0-.86,1.17,4.72,4.72,0,0,0-.25,1.51,4.79,4.79,0,0,0,.29,1.75,2.18,2.18,0,0,0,.91,1.12,2.56,2.56,0,0,0,1.34.37,2.25,2.25,0,0,0,1.48-.5A2.58,2.58,0,0,0,46.45,78.65Z"/><path d="M52.61,81.41v-.84a2.09,2.09,0,0,1-1.81,1,2.3,2.3,0,0,1-.94-.19,1.55,1.55,0,0,1-.65-.49,1.82,1.82,0,0,1-.3-.72,4.89,4.89,0,0,1-.06-.9V75.7h1v3.16a5.62,5.62,0,0,0,.06,1,1,1,0,0,0,.39.6,1.2,1.2,0,0,0,.73.22,1.59,1.59,0,0,0,.82-.22,1.24,1.24,0,0,0,.54-.61,3,3,0,0,0,.16-1.11V75.7h1v5.7Z"/><path d="M55.2,81.41V75.7h.87v.86a2.36,2.36,0,0,1,.61-.8,1.08,1.08,0,0,1,.62-.19,1.89,1.89,0,0,1,1,.31l-.33.9a1.38,1.38,0,0,0-.71-.21.92.92,0,0,0-.57.19,1,1,0,0,0-.36.53,3.76,3.76,0,0,0-.16,1.13v3Z"/><path d="M59.08,81.41V75.7h.87v.86a2.36,2.36,0,0,1,.61-.8,1.08,1.08,0,0,1,.62-.19,1.89,1.89,0,0,1,1,.31l-.33.9a1.38,1.38,0,0,0-.71-.21.92.92,0,0,0-.57.19,1,1,0,0,0-.36.53A3.76,3.76,0,0,0,60,78.42v3Z"/><path d="M66.88,79.57l1,.12A2.44,2.44,0,0,1,67,81.05a3,3,0,0,1-3.62-.29,3,3,0,0,1-.73-2.16,3.15,3.15,0,0,1,.74-2.23,2.51,2.51,0,0,1,1.92-.79,2.44,2.44,0,0,1,1.87.78,3.09,3.09,0,0,1,.73,2.19c0,.06,0,.14,0,.26H63.65a2.19,2.19,0,0,0,.53,1.44,1.58,1.58,0,0,0,1.19.5,1.48,1.48,0,0,0,.91-.28A1.85,1.85,0,0,0,66.88,79.57ZM63.7,78h3.19a1.93,1.93,0,0,0-.37-1.08,1.48,1.48,0,0,0-1.2-.56,1.54,1.54,0,0,0-1.12.45A1.76,1.76,0,0,0,63.7,78Z"/><path d="M69.31,81.41V75.7h.87v.81A2,2,0,0,1,72,75.57a2.35,2.35,0,0,1,.95.19,1.49,1.49,0,0,1,.65.49,1.86,1.86,0,0,1,.3.71,5.56,5.56,0,0,1,.05.94v3.51H73V77.94a2.61,2.61,0,0,0-.11-.88.94.94,0,0,0-.4-.47,1.28,1.28,0,0,0-.67-.17,1.57,1.57,0,0,0-1.07.39,1.93,1.93,0,0,0-.45,1.49v3.12Z"/><path d="M77.76,80.54l.14.85a3.63,3.63,0,0,1-.73.09,1.66,1.66,0,0,1-.82-.17.93.93,0,0,1-.41-.44,3.46,3.46,0,0,1-.12-1.14V76.45h-.71V75.7h.71V74.29l1-.58v2h1v.75h-1v3.33a1.68,1.68,0,0,0,.05.53.41.41,0,0,0,.17.19.64.64,0,0,0,.33.07Z"/><path d="M153.86,79.34l1-.09a1.83,1.83,0,0,0,.52,1.12,1.43,1.43,0,0,0,1,.37,1.54,1.54,0,0,0,1.18-.53,2,2,0,0,0,.48-1.4,1.79,1.79,0,0,0-.46-1.31,1.62,1.62,0,0,0-1.22-.48,1.7,1.7,0,0,0-.84.21,1.63,1.63,0,0,0-.59.55l-.91-.12.76-4h3.92v.92h-3.14l-.42,2.12a2.56,2.56,0,0,1,1.49-.49,2.36,2.36,0,0,1,1.74.71,2.5,2.5,0,0,1,.71,1.84,2.86,2.86,0,0,1-.62,1.85,2.49,2.49,0,0,1-2.07,1,2.55,2.55,0,0,1-1.75-.6A2.35,2.35,0,0,1,153.86,79.34Z"/><path d="M163.4,81.41h-1V75.25a5,5,0,0,1-.92.67,6.52,6.52,0,0,1-1,.5v-.94a5.84,5.84,0,0,0,1.42-.92,3.62,3.62,0,0,0,.86-1.05h.62Z"/><path d="M165.54,81.41V80.3h1.1v1.1Z"/><path d="M168,79.34l1-.09a1.83,1.83,0,0,0,.52,1.12,1.43,1.43,0,0,0,1,.37,1.55,1.55,0,0,0,1.18-.53,2,2,0,0,0,.48-1.4,1.79,1.79,0,0,0-.46-1.31,1.62,1.62,0,0,0-1.22-.48,1.69,1.69,0,0,0-.84.21,1.64,1.64,0,0,0-.59.55l-.91-.12.76-4h3.92v.92h-3.14l-.42,2.12a2.56,2.56,0,0,1,1.49-.49,2.36,2.36,0,0,1,1.74.71,2.5,2.5,0,0,1,.71,1.84,2.87,2.87,0,0,1-.62,1.85,2.49,2.49,0,0,1-2.07,1,2.55,2.55,0,0,1-1.75-.6A2.35,2.35,0,0,1,168,79.34Z"/><path d="M174.39,77.52a7.18,7.18,0,0,1,.29-2.25,2.79,2.79,0,0,1,.85-1.31A2.18,2.18,0,0,1,177,73.5a2.33,2.33,0,0,1,1.11.26,2.12,2.12,0,0,1,.79.74,3.93,3.93,0,0,1,.49,1.17,7.79,7.79,0,0,1,.18,1.86,7.2,7.2,0,0,1-.28,2.24,2.8,2.8,0,0,1-.85,1.32,2.4,2.4,0,0,1-3.22-.35A5.19,5.19,0,0,1,174.39,77.52Zm1,0a4.93,4.93,0,0,0,.45,2.58,1.3,1.3,0,0,0,2.24,0,4.94,4.94,0,0,0,.45-2.58,4.94,4.94,0,0,0-.45-2.58,1.35,1.35,0,0,0-1.13-.64,1.24,1.24,0,0,0-1.06.56A5,5,0,0,0,175.38,77.52Z"/><path d="M180.72,77.52a7.18,7.18,0,0,1,.29-2.25,2.79,2.79,0,0,1,.85-1.31,2.18,2.18,0,0,1,1.43-.46,2.33,2.33,0,0,1,1.11.26,2.12,2.12,0,0,1,.79.74,3.93,3.93,0,0,1,.49,1.17,7.79,7.79,0,0,1,.18,1.86,7.2,7.2,0,0,1-.28,2.24,2.8,2.8,0,0,1-.85,1.32,2.4,2.4,0,0,1-3.22-.35A5.19,5.19,0,0,1,180.72,77.52Zm1,0a4.93,4.93,0,0,0,.45,2.58,1.3,1.3,0,0,0,2.24,0,4.94,4.94,0,0,0,.45-2.58,4.94,4.94,0,0,0-.45-2.58,1.35,1.35,0,0,0-1.13-.64,1.24,1.24,0,0,0-1.06.56A5,5,0,0,0,181.72,77.52Z"/><path d="M187.33,81.41V75.7h.86v.8a2.05,2.05,0,0,1,.71-.67,2,2,0,0,1,1-.25,1.88,1.88,0,0,1,1,.26,1.41,1.41,0,0,1,.57.74,2,2,0,0,1,1.76-1,1.74,1.74,0,0,1,1.3.47,2,2,0,0,1,.46,1.45v3.92h-1V77.81A2.61,2.61,0,0,0,194,77a.81.81,0,0,0-.34-.41,1.06,1.06,0,0,0-.58-.16,1.35,1.35,0,0,0-1,.4,1.76,1.76,0,0,0-.4,1.28v3.31h-1V77.7a1.63,1.63,0,0,0-.24-1,.9.9,0,0,0-.77-.32,1.41,1.41,0,0,0-.76.21,1.22,1.22,0,0,0-.5.63,3.55,3.55,0,0,0-.16,1.19v3Z"/><path d="M196,81.41l3-7.87h1.12l3.22,7.87h-1.19L201.24,79h-3.29l-.86,2.38Zm2.27-3.23h2.67L200.09,76q-.38-1-.56-1.63a9.91,9.91,0,0,1-.42,1.5Z"/><path d="M3.78,95.41l3-7.87H7.93l3.22,7.87H10L9,93H5.75l-.86,2.38Zm2.27-3.23H8.72L7.9,90q-.38-1-.56-1.63a10,10,0,0,1-.42,1.5Z"/><path d="M12.08,95.41V89.7h.87v.81a2,2,0,0,1,1.82-.94,2.35,2.35,0,0,1,.95.19,1.49,1.49,0,0,1,.65.49,1.86,1.86,0,0,1,.3.71,5.56,5.56,0,0,1,.05.94v3.51h-1V91.94a2.61,2.61,0,0,0-.11-.88.94.94,0,0,0-.4-.47,1.28,1.28,0,0,0-.67-.17,1.57,1.57,0,0,0-1.07.39A1.93,1.93,0,0,0,13,92.29v3.12Z"/><path d="M18.06,92.55a2.94,2.94,0,0,1,.88-2.35,2.66,2.66,0,0,1,1.79-.63,2.56,2.56,0,0,1,1.92.77,2.94,2.94,0,0,1,.75,2.13,3.77,3.77,0,0,1-.33,1.73,2.34,2.34,0,0,1-1,1,2.79,2.79,0,0,1-1.38.35,2.57,2.57,0,0,1-1.94-.77A3.07,3.07,0,0,1,18.06,92.55Zm1,0a2.43,2.43,0,0,0,.48,1.64,1.59,1.59,0,0,0,2.4,0,2.49,2.49,0,0,0,.48-1.67,2.35,2.35,0,0,0-.48-1.6,1.59,1.59,0,0,0-2.4,0A2.42,2.42,0,0,0,19,92.55Z"/><path d="M28.45,95.41v-.72a1.77,1.77,0,0,1-1.6.85,2.24,2.24,0,0,1-1.25-.37,2.48,2.48,0,0,1-.89-1.05,3.62,3.62,0,0,1-.31-1.55A4.06,4.06,0,0,1,24.69,91a2.25,2.25,0,0,1,.85-1.07,2.28,2.28,0,0,1,1.27-.37,1.9,1.9,0,0,1,1.57.78V87.53h1v7.87ZM25.4,92.56a2.48,2.48,0,0,0,.46,1.64,1.39,1.39,0,0,0,1.09.54A1.37,1.37,0,0,0,28,94.22a2.39,2.39,0,0,0,.44-1.58A2.68,2.68,0,0,0,28,90.92a1.39,1.39,0,0,0-1.11-.55,1.34,1.34,0,0,0-1.08.53A2.6,2.6,0,0,0,25.4,92.56Z"/><path d="M35,93.57l1,.12a2.44,2.44,0,0,1-.88,1.36,3,3,0,0,1-3.62-.29,3,3,0,0,1-.73-2.16,3.15,3.15,0,0,1,.74-2.23,2.51,2.51,0,0,1,1.92-.79,2.44,2.44,0,0,1,1.87.78A3.09,3.09,0,0,1,36,92.54c0,.06,0,.14,0,.26H31.77a2.19,2.19,0,0,0,.53,1.44,1.58,1.58,0,0,0,1.19.5,1.48,1.48,0,0,0,.91-.28A1.85,1.85,0,0,0,35,93.57ZM31.82,92H35a1.93,1.93,0,0,0-.37-1.08,1.48,1.48,0,0,0-1.2-.56,1.54,1.54,0,0,0-1.12.45A1.76,1.76,0,0,0,31.82,92Z"/><path d="M42.63,95.41V88.46H40v-.93h6.24v.93h-2.6v6.94Z"/><path d="M49.95,94.7a3.58,3.58,0,0,1-1,.64,3,3,0,0,1-1.07.19,2.07,2.07,0,0,1-1.44-.46,1.52,1.52,0,0,1-.5-1.17,1.58,1.58,0,0,1,.69-1.32,2.31,2.31,0,0,1,.7-.32,7,7,0,0,1,.86-.15,8.82,8.82,0,0,0,1.72-.33c0-.13,0-.22,0-.25a1.07,1.07,0,0,0-.27-.83,1.62,1.62,0,0,0-1.1-.33,1.7,1.7,0,0,0-1,.24,1.46,1.46,0,0,0-.48.85l-.95-.13a2.35,2.35,0,0,1,.42-1,1.87,1.87,0,0,1,.85-.57,3.8,3.8,0,0,1,1.29-.2,3.41,3.41,0,0,1,1.19.17,1.56,1.56,0,0,1,.67.43,1.52,1.52,0,0,1,.3.66,5.44,5.44,0,0,1,0,.89V93a13.6,13.6,0,0,0,.06,1.71,2.15,2.15,0,0,0,.24.68h-1A2.05,2.05,0,0,1,49.95,94.7Zm-.08-2.16a7.1,7.1,0,0,1-1.58.37,3.69,3.69,0,0,0-.84.19.84.84,0,0,0-.38.31.86.86,0,0,0,.16,1.1,1.26,1.26,0,0,0,.86.26,2,2,0,0,0,1-.25,1.5,1.5,0,0,0,.64-.67,2.33,2.33,0,0,0,.16-1Z"/><path d="M52.56,95.41V89.7h.87v.81a2,2,0,0,1,1.82-.94,2.35,2.35,0,0,1,.95.19,1.49,1.49,0,0,1,.65.49,1.86,1.86,0,0,1,.3.71,5.56,5.56,0,0,1,.05.94v3.51h-1V91.94a2.61,2.61,0,0,0-.11-.88.94.94,0,0,0-.4-.47,1.28,1.28,0,0,0-.67-.17A1.57,1.57,0,0,0,54,90.8a1.93,1.93,0,0,0-.45,1.49v3.12Z"/><path d="M58.91,95.41V87.53h1V92l2.29-2.32h1.25l-2.18,2.12,2.4,3.59H62.44l-1.89-2.92-.68.66v2.26Z"/><path d="M70.27,95.41l-3.05-7.87h1.13l2,5.72q.25.69.41,1.29.18-.64.42-1.29l2.13-5.72h1.06l-3.08,7.87Z"/><path d="M74.49,92.55a2.94,2.94,0,0,1,.88-2.35,2.66,2.66,0,0,1,1.79-.63,2.56,2.56,0,0,1,1.92.77,2.94,2.94,0,0,1,.75,2.13,3.77,3.77,0,0,1-.33,1.73,2.34,2.34,0,0,1-1,1,2.79,2.79,0,0,1-1.38.35,2.57,2.57,0,0,1-1.94-.77A3.07,3.07,0,0,1,74.49,92.55Zm1,0A2.43,2.43,0,0,0,76,94.19a1.59,1.59,0,0,0,2.4,0,2.49,2.49,0,0,0,.48-1.67,2.35,2.35,0,0,0-.48-1.6,1.59,1.59,0,0,0-2.4,0A2.42,2.42,0,0,0,75.48,92.55Z"/><path d="M81.16,95.41V87.53h1v7.87Z"/><path d="M86,94.54l.14.85a3.63,3.63,0,0,1-.73.09,1.66,1.66,0,0,1-.82-.17.93.93,0,0,1-.41-.44A3.46,3.46,0,0,1,84,93.74V90.45h-.71V89.7H84V88.29l1-.58v2h1v.75H85v3.33a1.68,1.68,0,0,0,.05.53.41.41,0,0,0,.17.19.64.64,0,0,0,.33.07Z"/><path d="M90.85,94.7a3.58,3.58,0,0,1-1,.64,3,3,0,0,1-1.07.19,2.07,2.07,0,0,1-1.44-.46,1.52,1.52,0,0,1-.5-1.17,1.58,1.58,0,0,1,.69-1.32,2.31,2.31,0,0,1,.7-.32,7,7,0,0,1,.86-.15,8.82,8.82,0,0,0,1.72-.33c0-.13,0-.22,0-.25a1.07,1.07,0,0,0-.27-.83,1.62,1.62,0,0,0-1.1-.33,1.7,1.7,0,0,0-1,.24,1.46,1.46,0,0,0-.48.85L87,91.33a2.35,2.35,0,0,1,.42-1,1.87,1.87,0,0,1,.85-.57,3.8,3.8,0,0,1,1.29-.2,3.41,3.41,0,0,1,1.19.17,1.56,1.56,0,0,1,.67.43,1.52,1.52,0,0,1,.3.66,5.44,5.44,0,0,1,0,.89V93a13.6,13.6,0,0,0,.06,1.71,2.15,2.15,0,0,0,.24.68H91A2.05,2.05,0,0,1,90.85,94.7Zm-.08-2.16a7.1,7.1,0,0,1-1.58.37,3.69,3.69,0,0,0-.84.19.84.84,0,0,0-.38.31.86.86,0,0,0,.16,1.1,1.26,1.26,0,0,0,.86.26,2,2,0,0,0,1-.25,1.5,1.5,0,0,0,.64-.67,2.33,2.33,0,0,0,.16-1Z"/><path d="M93.29,95.88l.94.14a.89.89,0,0,0,.33.63,1.6,1.6,0,0,0,1,.27,1.72,1.72,0,0,0,1-.27,1.32,1.32,0,0,0,.49-.75,6.16,6.16,0,0,0,.07-1.24,2,2,0,0,1-1.58.75,2.15,2.15,0,0,1-1.82-.85,3.27,3.27,0,0,1-.64-2,3.8,3.8,0,0,1,.3-1.51,2.36,2.36,0,0,1,.86-1.07,2.32,2.32,0,0,1,1.32-.37,2,2,0,0,1,1.67.82V89.7h.89v4.93a4.67,4.67,0,0,1-.27,1.89,2,2,0,0,1-.86.88,3,3,0,0,1-1.45.32,2.73,2.73,0,0,1-1.65-.46A1.55,1.55,0,0,1,93.29,95.88Zm.8-3.43a2.47,2.47,0,0,0,.45,1.64,1.47,1.47,0,0,0,2.23,0,2.4,2.4,0,0,0,.45-1.61,2.33,2.33,0,0,0-.46-1.58,1.43,1.43,0,0,0-1.12-.53,1.39,1.39,0,0,0-1.1.52A2.32,2.32,0,0,0,94.09,92.45Z"/><path d="M103.71,93.57l1,.12a2.44,2.44,0,0,1-.88,1.36,3,3,0,0,1-3.62-.29,3,3,0,0,1-.73-2.16,3.15,3.15,0,0,1,.74-2.23,2.51,2.51,0,0,1,1.92-.79,2.44,2.44,0,0,1,1.87.78,3.09,3.09,0,0,1,.73,2.19c0,.06,0,.14,0,.26h-4.25a2.19,2.19,0,0,0,.53,1.44,1.58,1.58,0,0,0,1.19.5,1.48,1.48,0,0,0,.91-.28A1.85,1.85,0,0,0,103.71,93.57ZM100.53,92h3.19a1.93,1.93,0,0,0-.37-1.08,1.48,1.48,0,0,0-1.2-.56,1.54,1.54,0,0,0-1.12.45A1.76,1.76,0,0,0,100.53,92Z"/><path d="M174.05,94.48v.93h-5.2a1.72,1.72,0,0,1,.11-.67,3.58,3.58,0,0,1,.64-1,10,10,0,0,1,1.27-1.19,10.73,10.73,0,0,0,1.73-1.67,2,2,0,0,0,.45-1.16,1.29,1.29,0,0,0-.41-1,1.48,1.48,0,0,0-1.07-.39,1.51,1.51,0,0,0-1.12.42,1.58,1.58,0,0,0-.42,1.16l-1-.1a2.45,2.45,0,0,1,.77-1.69,2.62,2.62,0,0,1,1.79-.58,2.5,2.5,0,0,1,1.79.63,2.06,2.06,0,0,1,.66,1.56,2.36,2.36,0,0,1-.19.93,3.62,3.62,0,0,1-.64,1A15.57,15.57,0,0,1,171.72,93q-.87.73-1.12,1a3.25,3.25,0,0,0-.41.52Z"/><path d="M175.85,95.41V94.3H177v1.1Z"/><path d="M182.94,89.46l-1,.08a1.81,1.81,0,0,0-.37-.83,1.28,1.28,0,0,0-1-.41,1.33,1.33,0,0,0-.81.26,2.2,2.2,0,0,0-.72,1,5.11,5.11,0,0,0-.27,1.82,2.25,2.25,0,0,1,.85-.79,2.3,2.3,0,0,1,1.06-.26,2.19,2.19,0,0,1,1.65.71,2.55,2.55,0,0,1,.68,1.84,3,3,0,0,1-.32,1.38,2.34,2.34,0,0,1-.88,1,2.41,2.41,0,0,1-1.27.34,2.48,2.48,0,0,1-2-.89,4.49,4.49,0,0,1-.76-2.93,5.25,5.25,0,0,1,.84-3.32,2.42,2.42,0,0,1,2-.9,2.11,2.11,0,0,1,2.23,2ZM179,92.85a2.24,2.24,0,0,0,.21,1,1.58,1.58,0,0,0,.59.7,1.49,1.49,0,0,0,.8.24,1.36,1.36,0,0,0,1.05-.49,2,2,0,0,0,.44-1.34,1.81,1.81,0,0,0-.44-1.29,1.43,1.43,0,0,0-1.1-.47,1.49,1.49,0,0,0-1.11.47A1.69,1.69,0,0,0,179,92.85Z"/><path d="M187.36,95.41V93.52h-3.42v-.89l3.59-5.1h.79v5.1h1.06v.89h-1.06v1.88Zm0-2.77V89.08l-2.47,3.55Z"/><path d="M193.36,95.41h-1V89.25a5.05,5.05,0,0,1-.92.67,6.48,6.48,0,0,1-1,.5v-.94a5.84,5.84,0,0,0,1.42-.92,3.64,3.64,0,0,0,.86-1.05h.62Z"/><path d="M198.48,95.41l-3.05-7.87h1.13l2,5.72c.16.46.3.89.41,1.29.12-.43.26-.86.42-1.29l2.13-5.72h1.06l-3.08,7.87Z"/></svg>