<svg id="Layer_1" data-name="Layer 1" xmlns="http://www.w3.org/2000/svg" viewBox="0 0 225.67 130.31"><title>UIM_service_contact_information_menu4</title><rect x="0.49" y="101.87" width="224.67" height="27.94" style="fill:none"/><rect x="0.51" y="0.67" width="179.74" height="18.62" style="fill:#231f20;stroke:#000"/><rect x="0.51" y="21.9" width="179.74" height="18.62" style="fill:none;stroke:#fff"/><rect x="0.5" y="0.5" width="224.67" height="129.31" style="fill:none;stroke:#000"/><rect x="45.65" y="101.87" width="44.92" height="27.98" style="fill:none"/><line x1="90.57" y1="101.87" x2="135.49" y2="101.87" style="fill:none;stroke:#000;stroke-linecap:round;stroke-linejoin:round;stroke-width:0.9753649999999999px"/><rect x="180.23" y="101.87" width="44.92" height="27.98" style="fill:none"/><polyline points="135.36 101.87 180.28 101.87 180.28 129.84 135.36 129.84" style="fill:none"/><line x1="0.53" y1="101.87" x2="225.04" y2="101.87" style="fill:none;stroke:#000;stroke-linecap:round;stroke-linejoin:round;stroke-width:0.9753649999999999px"/><path d="M8.81,118.84,10.7,111h.7l2,7.88h-.74l-.58-2.38H10l-.54,2.38Zm1.42-3.23H11.9l-.51-2.18q-.24-1-.35-1.63a15,15,0,0,1-.27,1.5Z" style="fill:#231f20"/><path d="M18,116.08l.65.26a4.21,4.21,0,0,1-.74,2,1.61,1.61,0,0,1-1.3.67,1.72,1.72,0,0,1-1.3-.52,3.37,3.37,0,0,1-.76-1.5,8.2,8.2,0,0,1-.26-2.11,7,7,0,0,1,.29-2.15,3,3,0,0,1,.84-1.39,1.78,1.78,0,0,1,1.2-.48,1.56,1.56,0,0,1,1.24.6,3.59,3.59,0,0,1,.7,1.69l-.64.24a2.84,2.84,0,0,0-.5-1.25,1,1,0,0,0-.82-.39,1.21,1.21,0,0,0-1,.44,2.53,2.53,0,0,0-.54,1.17,7.27,7.27,0,0,0-.16,1.51,7.45,7.45,0,0,0,.18,1.75,2.25,2.25,0,0,0,.57,1.12,1.19,1.19,0,0,0,.84.37,1.13,1.13,0,0,0,.93-.5A3.22,3.22,0,0,0,18,116.08Z" style="fill:#231f20"/><path d="M23.54,116.08l.65.26a4.21,4.21,0,0,1-.74,2,1.61,1.61,0,0,1-1.3.67,1.72,1.72,0,0,1-1.3-.52,3.37,3.37,0,0,1-.76-1.5,8.2,8.2,0,0,1-.26-2.11,7,7,0,0,1,.29-2.15,3,3,0,0,1,.84-1.39,1.78,1.78,0,0,1,1.2-.48,1.56,1.56,0,0,1,1.24.6,3.59,3.59,0,0,1,.7,1.69l-.64.24a2.84,2.84,0,0,0-.5-1.25,1,1,0,0,0-.82-.39,1.21,1.21,0,0,0-1,.44,2.53,2.53,0,0,0-.54,1.17,7.27,7.27,0,0,0-.16,1.51,7.45,7.45,0,0,0,.18,1.75,2.25,2.25,0,0,0,.57,1.12,1.19,1.19,0,0,0,.84.37,1.13,1.13,0,0,0,.93-.5A3.22,3.22,0,0,0,23.54,116.08Z" style="fill:#231f20"/><path d="M25.57,118.84V111h3.57v.93H26.22v2.41h2.73v.92H26.22v2.68h3v.93Z" style="fill:#231f20"/><path d="M30.7,118.84V111h1.86a2.82,2.82,0,0,1,.75.08,1.23,1.23,0,0,1,.61.37,2,2,0,0,1,.4.76,3.67,3.67,0,0,1,.15,1.07,3.37,3.37,0,0,1-.4,1.7,1.53,1.53,0,0,1-1.45.7H31.35v3.2Zm.65-4.13h1.27a1,1,0,0,0,.9-.38,1.81,1.81,0,0,0,.27-1.06,2.07,2.07,0,0,0-.16-.85.84.84,0,0,0-.41-.46,1.76,1.76,0,0,0-.61-.07H31.35Z" style="fill:#231f20"/><path d="M37.1,118.84V111.9H35.48V111h3.91v.93H37.75v6.95Z" style="fill:#231f20"/><path d="M66.69,114.77v-1.07l6.16-2.6v1.14l-4.89,2,4.89,2v1.14Z"/><path d="M7.14,39l2.63,6.16H8.64l-2-4.88-2,4.88H3.47L6.08,39Z"/><path d="M162,114.77l-6.16,2.63v-1.14l4.88-2-4.88-2v-1.14l6.16,2.6Z"/><path d="M103.71,118.84V111h1.85a1.38,1.38,0,0,1,1.44,1,2.84,2.84,0,0,1,.19,1,2.6,2.6,0,0,1-.17,1,1.66,1.66,0,0,1-.52.72,1.43,1.43,0,0,1,.69.71,2.73,2.73,0,0,1,.24,1.19,3.49,3.49,0,0,1-.15,1,2.11,2.11,0,0,1-.36.73,1.34,1.34,0,0,1-.54.39,2.11,2.11,0,0,1-.79.13Zm.65-4.57h1.07a1.53,1.53,0,0,0,.62-.09.78.78,0,0,0,.38-.39,1.65,1.65,0,0,0,.13-.69,1.86,1.86,0,0,0-.12-.69.74.74,0,0,0-.34-.41,1.83,1.83,0,0,0-.75-.11h-1Zm0,3.64h1.23a1.82,1.82,0,0,0,.44,0,.86.86,0,0,0,.38-.21,1.1,1.1,0,0,0,.25-.44,2.06,2.06,0,0,0,.1-.66,1.9,1.9,0,0,0-.14-.77.89.89,0,0,0-.39-.46,1.6,1.6,0,0,0-.72-.13h-1.14Z" style="fill:#231f20"/><path d="M108.34,118.84l1.89-7.87h.7l2,7.88h-.74l-.58-2.38h-2.06l-.54,2.38Zm1.42-3.23h1.67l-.51-2.18q-.24-1-.35-1.63a15,15,0,0,1-.27,1.5Z" style="fill:#231f20"/><path d="M117.55,116.08l.65.26a4.21,4.21,0,0,1-.74,2,1.61,1.61,0,0,1-1.3.67,1.72,1.72,0,0,1-1.3-.52,3.37,3.37,0,0,1-.76-1.5,8.2,8.2,0,0,1-.26-2.11,7,7,0,0,1,.29-2.15,3,3,0,0,1,.84-1.39,1.78,1.78,0,0,1,1.2-.48,1.56,1.56,0,0,1,1.24.6,3.59,3.59,0,0,1,.7,1.69l-.64.24a2.84,2.84,0,0,0-.5-1.25,1,1,0,0,0-.82-.39,1.21,1.21,0,0,0-1,.44,2.53,2.53,0,0,0-.54,1.17,7.27,7.27,0,0,0-.16,1.51,7.45,7.45,0,0,0,.18,1.75,2.25,2.25,0,0,0,.57,1.12,1.19,1.19,0,0,0,.84.37,1.13,1.13,0,0,0,.93-.5A3.22,3.22,0,0,0,117.55,116.08Z" style="fill:#231f20"/><path d="M119.53,118.84V111h.65v3.91l2.45-3.91h.88l-2.07,3.19,2.16,4.68h-.86l-1.76-4-.81,1.26v2.73Z" style="fill:#231f20"/><rect x="0.53" y="101.87" width="44.92" height="27.98" style="fill:none"/><rect x="180.23" y="51.12" width="44.92" height="50.71" style="fill:none;stroke:#000;stroke-linecap:round;stroke-linejoin:round;stroke-width:0.9753649999999999px"/><rect x="180.23" y="0.52" width="44.92" height="50.6" style="fill:none;stroke:#000;stroke-linecap:round;stroke-linejoin:round;stroke-width:0.9753649999999999px"/><rect x="200.08" y="75.39" width="6.78" height="1.36" style="fill:#231f20"/><path d="M19.52,11l1.4.35A4.72,4.72,0,0,1,19.33,14a4.38,4.38,0,0,1-2.8.91,5,5,0,0,1-2.79-.7,4.36,4.36,0,0,1-1.63-2,7.22,7.22,0,0,1-.56-2.84,6.25,6.25,0,0,1,.63-2.89A4.34,4.34,0,0,1,14,4.53a5.26,5.26,0,0,1,2.57-.64,4.35,4.35,0,0,1,2.68.81A4.21,4.21,0,0,1,20.74,7l-1.38.33a3.27,3.27,0,0,0-1.07-1.69,2.85,2.85,0,0,0-1.77-.53,3.43,3.43,0,0,0-2,.59,3.09,3.09,0,0,0-1.15,1.57,6.32,6.32,0,0,0-.33,2,6.46,6.46,0,0,0,.39,2.36,2.93,2.93,0,0,0,1.23,1.51,3.44,3.44,0,0,0,1.8.5,3,3,0,0,0,2-.68A3.48,3.48,0,0,0,19.52,11Z" style="fill:#fff"/><path d="M22.78,14.68V4.07h1.3v3.8a2.91,2.91,0,0,1,2.3-1.06,3.1,3.1,0,0,1,1.48.34,2,2,0,0,1,.9.93A4.28,4.28,0,0,1,29,9.81v4.87h-1.3V9.81a2,2,0,0,0-.42-1.42,1.57,1.57,0,0,0-1.2-.44,2.11,2.11,0,0,0-1.09.3,1.7,1.7,0,0,0-.73.81,3.74,3.74,0,0,0-.22,1.42v4.2Z" style="fill:#fff"/><path d="M36.33,13.73a4.88,4.88,0,0,1-1.39.87,4,4,0,0,1-1.44.25,2.79,2.79,0,0,1-1.95-.62,2,2,0,0,1-.68-1.58,2.14,2.14,0,0,1,.93-1.78,3.13,3.13,0,0,1,.94-.43,9.28,9.28,0,0,1,1.16-.2,11.93,11.93,0,0,0,2.32-.45q0-.27,0-.34a1.44,1.44,0,0,0-.37-1.12,2.18,2.18,0,0,0-1.48-.44A2.3,2.3,0,0,0,33,8.22a2,2,0,0,0-.65,1.14L31.1,9.19a3.16,3.16,0,0,1,.57-1.32,2.5,2.5,0,0,1,1.15-.77,5.13,5.13,0,0,1,1.74-.27,4.61,4.61,0,0,1,1.6.23,2.1,2.1,0,0,1,.9.58,2.05,2.05,0,0,1,.41.89,7.39,7.39,0,0,1,.06,1.2v1.74a18.52,18.52,0,0,0,.08,2.3,2.9,2.9,0,0,0,.33.92H36.59A2.76,2.76,0,0,1,36.33,13.73Zm-.11-2.91a9.63,9.63,0,0,1-2.13.49,4.91,4.91,0,0,0-1.14.26,1.13,1.13,0,0,0-.51.42,1.15,1.15,0,0,0,.21,1.49,1.7,1.7,0,0,0,1.15.35,2.68,2.68,0,0,0,1.34-.33,2,2,0,0,0,.86-.9,3.15,3.15,0,0,0,.21-1.3Z" style="fill:#fff"/><path d="M39.85,14.68V7H41V8.09a2.76,2.76,0,0,1,2.44-1.27,3.21,3.21,0,0,1,1.28.25,2,2,0,0,1,.87.65,2.52,2.52,0,0,1,.4,1A7.44,7.44,0,0,1,46.09,10v4.72h-1.3V10a3.52,3.52,0,0,0-.15-1.19,1.25,1.25,0,0,0-.54-.63,1.71,1.71,0,0,0-.91-.24,2.11,2.11,0,0,0-1.44.53,2.6,2.6,0,0,0-.6,2v4.2Z" style="fill:#fff"/><path d="M48.15,15.31l1.27.19a1.21,1.21,0,0,0,.44.85,2.18,2.18,0,0,0,1.32.36,2.33,2.33,0,0,0,1.4-.36,1.78,1.78,0,0,0,.67-1,8.32,8.32,0,0,0,.09-1.67,2.68,2.68,0,0,1-2.13,1,2.9,2.9,0,0,1-2.45-1.14,4.4,4.4,0,0,1-.87-2.74,5.1,5.1,0,0,1,.4-2,3.18,3.18,0,0,1,1.15-1.44,3.11,3.11,0,0,1,1.78-.51,2.76,2.76,0,0,1,2.24,1.1V7h1.2v6.64a6.29,6.29,0,0,1-.37,2.54,2.67,2.67,0,0,1-1.16,1.18,4,4,0,0,1-1.95.43A3.67,3.67,0,0,1,49,17.18,2.09,2.09,0,0,1,48.15,15.31Zm1.08-4.62a3.33,3.33,0,0,0,.6,2.21,2,2,0,0,0,3,0,3.22,3.22,0,0,0,.61-2.17,3.15,3.15,0,0,0-.63-2.13,1.94,1.94,0,0,0-1.51-.72,1.88,1.88,0,0,0-1.48.71A3.13,3.13,0,0,0,49.23,10.7Z" style="fill:#fff"/><path d="M62.18,12.2l1.35.17a3.28,3.28,0,0,1-1.18,1.83,4,4,0,0,1-4.87-.39,4.06,4.06,0,0,1-1-2.91,4.24,4.24,0,0,1,1-3,3.38,3.38,0,0,1,2.59-1.07,3.29,3.29,0,0,1,2.52,1,4.17,4.17,0,0,1,1,3c0,.08,0,.19,0,.35H57.83a3,3,0,0,0,.72,1.94,2.13,2.13,0,0,0,1.61.67,2,2,0,0,0,1.22-.38A2.49,2.49,0,0,0,62.18,12.2ZM57.91,10.1H62.2a2.6,2.6,0,0,0-.49-1.45,2,2,0,0,0-1.61-.75,2.07,2.07,0,0,0-1.51.6A2.38,2.38,0,0,0,57.91,10.1Z" style="fill:#fff"/><path d="M77.6,11l1.4.35A4.72,4.72,0,0,1,77.42,14a4.38,4.38,0,0,1-2.8.91,5,5,0,0,1-2.79-.7,4.36,4.36,0,0,1-1.63-2,7.22,7.22,0,0,1-.56-2.84,6.25,6.25,0,0,1,.63-2.89,4.34,4.34,0,0,1,1.8-1.87,5.26,5.26,0,0,1,2.57-.64,4.35,4.35,0,0,1,2.68.81A4.21,4.21,0,0,1,78.83,7l-1.38.33a3.27,3.27,0,0,0-1.07-1.69,2.85,2.85,0,0,0-1.77-.53,3.43,3.43,0,0,0-2,.59,3.09,3.09,0,0,0-1.15,1.57,6.32,6.32,0,0,0-.33,2,6.46,6.46,0,0,0,.39,2.36,2.93,2.93,0,0,0,1.23,1.51,3.44,3.44,0,0,0,1.8.5,3,3,0,0,0,2-.68A3.48,3.48,0,0,0,77.6,11Z" style="fill:#fff"/><path d="M80.38,10.84a4,4,0,0,1,1.19-3.16A3.57,3.57,0,0,1,84,6.82a3.45,3.45,0,0,1,2.59,1,4,4,0,0,1,1,2.87,5.07,5.07,0,0,1-.44,2.33,3.14,3.14,0,0,1-1.29,1.32,3.77,3.77,0,0,1-1.86.47,3.45,3.45,0,0,1-2.61-1A4.13,4.13,0,0,1,80.38,10.84Zm1.34,0A3.27,3.27,0,0,0,82.36,13a2.14,2.14,0,0,0,3.23,0,3.35,3.35,0,0,0,.64-2.25,3.18,3.18,0,0,0-.65-2.16,2.15,2.15,0,0,0-3.23,0A3.26,3.26,0,0,0,81.72,10.84Z" style="fill:#fff"/><path d="M89.4,14.68V7h1.17V8.09A2.76,2.76,0,0,1,93,6.82a3.21,3.21,0,0,1,1.28.25,2,2,0,0,1,.87.65,2.52,2.52,0,0,1,.4,1A7.44,7.44,0,0,1,95.64,10v4.72h-1.3V10a3.52,3.52,0,0,0-.15-1.19,1.25,1.25,0,0,0-.54-.63,1.71,1.71,0,0,0-.91-.24,2.11,2.11,0,0,0-1.44.53,2.6,2.6,0,0,0-.6,2v4.2Z" style="fill:#fff"/><path d="M100.78,13.51l.19,1.15a4.83,4.83,0,0,1-1,.12,2.23,2.23,0,0,1-1.1-.22,1.25,1.25,0,0,1-.55-.59,4.65,4.65,0,0,1-.16-1.54V8h-1V7h1V5.09l1.29-.78V7h1.31V8H99.47V12.5a2.27,2.27,0,0,0,.07.72.54.54,0,0,0,.22.25.87.87,0,0,0,.44.09A4.17,4.17,0,0,0,100.78,13.51Z" style="fill:#fff"/><path d="M107.36,13.73a4.88,4.88,0,0,1-1.39.87,4,4,0,0,1-1.44.25,2.79,2.79,0,0,1-1.95-.62,2,2,0,0,1-.68-1.58,2.14,2.14,0,0,1,.93-1.78,3.13,3.13,0,0,1,.94-.43,9.28,9.28,0,0,1,1.16-.2,11.93,11.93,0,0,0,2.32-.45q0-.27,0-.34a1.44,1.44,0,0,0-.37-1.12,2.18,2.18,0,0,0-1.48-.44,2.3,2.3,0,0,0-1.36.32,2,2,0,0,0-.65,1.14l-1.27-.17a3.16,3.16,0,0,1,.57-1.32,2.5,2.5,0,0,1,1.15-.77,5.13,5.13,0,0,1,1.74-.27,4.61,4.61,0,0,1,1.6.23,2.1,2.1,0,0,1,.9.58,2.05,2.05,0,0,1,.41.89,7.39,7.39,0,0,1,.06,1.2v1.74a18.52,18.52,0,0,0,.08,2.3,2.9,2.9,0,0,0,.33.92h-1.36A2.76,2.76,0,0,1,107.36,13.73Zm-.11-2.91a9.63,9.63,0,0,1-2.13.49,4.91,4.91,0,0,0-1.14.26,1.13,1.13,0,0,0-.51.42,1.15,1.15,0,0,0,.21,1.49,1.7,1.7,0,0,0,1.15.35,2.68,2.68,0,0,0,1.34-.33,2,2,0,0,0,.86-.9,3.15,3.15,0,0,0,.21-1.3Z" style="fill:#fff"/><path d="M115.9,11.86l1.28.17a3.32,3.32,0,0,1-1.07,2.07,3.13,3.13,0,0,1-2.12.75,3.3,3.3,0,0,1-2.54-1,4.18,4.18,0,0,1-1-3,5.35,5.35,0,0,1,.41-2.18,2.88,2.88,0,0,1,1.25-1.4A3.73,3.73,0,0,1,114,6.82a3.19,3.19,0,0,1,2,.63,2.91,2.91,0,0,1,1,1.8l-1.27.2a2.1,2.1,0,0,0-.64-1.16A1.65,1.65,0,0,0,114,7.89a2,2,0,0,0-1.6.71,3.35,3.35,0,0,0-.61,2.23,3.46,3.46,0,0,0,.59,2.25,1.93,1.93,0,0,0,1.55.7,1.82,1.82,0,0,0,1.28-.47A2.33,2.33,0,0,0,115.9,11.86Z" style="fill:#fff"/><path d="M121.43,13.51l.19,1.15a4.84,4.84,0,0,1-1,.12,2.23,2.23,0,0,1-1.1-.22A1.26,1.26,0,0,1,119,14a4.68,4.68,0,0,1-.16-1.54V8h-1V7h1V5.09l1.29-.78V7h1.31V8h-1.31V12.5a2.26,2.26,0,0,0,.07.72.54.54,0,0,0,.22.25.87.87,0,0,0,.45.09A4.17,4.17,0,0,0,121.43,13.51Z" style="fill:#fff"/><path d="M127.57,14.68V4.07H129l5.57,8.33V4.07h1.35v10.6h-1.44l-5.57-8.33v8.33Z" style="fill:#fff"/><path d="M143.42,13.73a4.86,4.86,0,0,1-1.39.87,4,4,0,0,1-1.44.25,2.79,2.79,0,0,1-1.95-.62,2,2,0,0,1-.68-1.58,2.14,2.14,0,0,1,.93-1.78,3.14,3.14,0,0,1,.94-.43,9.31,9.31,0,0,1,1.16-.2,11.9,11.9,0,0,0,2.32-.45c0-.18,0-.29,0-.34A1.44,1.44,0,0,0,143,8.34a2.18,2.18,0,0,0-1.48-.44,2.3,2.3,0,0,0-1.36.32,2,2,0,0,0-.65,1.14l-1.27-.17a3.14,3.14,0,0,1,.57-1.32,2.51,2.51,0,0,1,1.15-.77,5.13,5.13,0,0,1,1.74-.27,4.62,4.62,0,0,1,1.6.23,2.1,2.1,0,0,1,.9.58,2.05,2.05,0,0,1,.41.89,7.41,7.41,0,0,1,.06,1.2v1.74a18.34,18.34,0,0,0,.08,2.3,2.88,2.88,0,0,0,.33.92h-1.36A2.78,2.78,0,0,1,143.42,13.73Zm-.11-2.91a9.62,9.62,0,0,1-2.13.49,4.9,4.9,0,0,0-1.13.26,1.12,1.12,0,0,0-.51.42,1.15,1.15,0,0,0,.21,1.49,1.7,1.7,0,0,0,1.15.35,2.68,2.68,0,0,0,1.34-.33,2,2,0,0,0,.86-.9,3.13,3.13,0,0,0,.21-1.3Z" style="fill:#fff"/><path d="M146.94,14.68V7h1.17V8.07a2.74,2.74,0,0,1,1-.91,2.71,2.71,0,0,1,1.37-.34,2.54,2.54,0,0,1,1.4.35,1.9,1.9,0,0,1,.77,1A2.76,2.76,0,0,1,155,6.82a2.34,2.34,0,0,1,1.76.63,2.71,2.71,0,0,1,.61,1.95v5.27h-1.29V9.84a3.57,3.57,0,0,0-.13-1.12,1.09,1.09,0,0,0-.46-.55,1.43,1.43,0,0,0-.78-.21,1.82,1.82,0,0,0-1.34.54,2.37,2.37,0,0,0-.54,1.73v4.46h-1.3v-5a2.2,2.2,0,0,0-.32-1.3,1.21,1.21,0,0,0-1-.43,1.89,1.89,0,0,0-1,.29,1.64,1.64,0,0,0-.68.85,4.77,4.77,0,0,0-.21,1.61v4Z" style="fill:#fff"/><path d="M164.84,12.2l1.35.17A3.28,3.28,0,0,1,165,14.2a4,4,0,0,1-4.87-.39,4.06,4.06,0,0,1-1-2.91,4.24,4.24,0,0,1,1-3,3.38,3.38,0,0,1,2.59-1.07,3.28,3.28,0,0,1,2.52,1,4.17,4.17,0,0,1,1,3c0,.08,0,.19,0,.35h-5.73a3,3,0,0,0,.72,1.94,2.13,2.13,0,0,0,1.61.67A2,2,0,0,0,164,13.4,2.49,2.49,0,0,0,164.84,12.2Zm-4.28-2.11h4.29a2.6,2.6,0,0,0-.49-1.45,2,2,0,0,0-1.61-.75,2.07,2.07,0,0,0-1.51.6A2.38,2.38,0,0,0,160.57,10.1Z" style="fill:#fff"/><polygon points="206.86 26.73 204.15 26.73 204.15 24.02 202.79 24.02 202.79 26.73 200.08 26.73 200.08 28.09 202.79 28.09 202.79 30.8 204.15 30.8 204.15 28.09 206.86 28.09 206.86 26.73" style="fill:#231f20"/><line x1="45.03" y1="101.89" x2="45.03" y2="129.87" style="fill:none;stroke:#000;stroke-miterlimit:10;stroke-width:0.5px"/><line x1="45.99" y1="101.89" x2="45.99" y2="129.87" style="fill:none;stroke:#000;stroke-miterlimit:10;stroke-width:0.5px"/><line x1="90.06" y1="101.89" x2="90.06" y2="129.87" style="fill:none;stroke:#000;stroke-miterlimit:10;stroke-width:0.5px"/><line x1="91.02" y1="101.89" x2="91.02" y2="129.87" style="fill:none;stroke:#000;stroke-miterlimit:10;stroke-width:0.5px"/><line x1="135.09" y1="101.89" x2="135.09" y2="129.87" style="fill:none;stroke:#000;stroke-miterlimit:10;stroke-width:0.5px"/><line x1="136.06" y1="101.89" x2="136.06" y2="129.87" style="fill:none;stroke:#000;stroke-miterlimit:10;stroke-width:0.5px"/><line x1="180.13" y1="101.89" x2="180.13" y2="129.87" style="fill:none;stroke:#000;stroke-miterlimit:10;stroke-width:0.5px"/></svg>