<svg id="Layer_1" data-name="Layer 1" xmlns="http://www.w3.org/2000/svg" viewBox="0 0 225.67 130.33"><title>UIM_wmsg_ignition_failure</title><rect x="16.35" y="54.69" width="5.74" height="18.4" style="stroke:#000;stroke-width:3px"/><circle cx="19.3" cy="78.89" r="3.68" style="stroke:#000;stroke-width:3px"/><rect x="0.5" y="0.5" width="224.67" height="129.31" style="fill:none;stroke:#000"/><rect x="0.49" y="101.87" width="224.67" height="27.94" style="fill:none"/><rect x="0.53" y="101.87" width="44.92" height="27.98" style="fill:none"/><rect x="45.65" y="101.87" width="44.92" height="27.98" style="fill:none"/><rect x="90.57" y="101.87" width="44.92" height="27.98" style="fill:none;stroke:#000;stroke-linecap:round;stroke-linejoin:round;stroke-width:0.9753649999999999px"/><rect x="176.45" y="101.87" width="48.71" height="27.98" style="fill:none;stroke:#000;stroke-linecap:round;stroke-linejoin:round;stroke-width:0.9753649999999999px"/><rect x="135.36" y="101.87" width="41.22" height="27.98" style="fill:none"/><line x1="0.53" y1="101.87" x2="225.04" y2="101.87" style="fill:none;stroke:#000;stroke-linecap:round;stroke-linejoin:round;stroke-width:0.9753649999999999px"/><path d="M180.52,118.84l1.89-7.87h.7l2,7.87h-.74l-.58-2.38h-2.06l-.54,2.38Zm1.42-3.23h1.67l-.51-2.18q-.24-1-.35-1.63a14.87,14.87,0,0,1-.27,1.5Z" style="fill:#231f20"/><path d="M185.8,118.84V111h1.7a2.63,2.63,0,0,1,.88.11,1.56,1.56,0,0,1,.72.56,3.64,3.64,0,0,1,.58,1.35,8.18,8.18,0,0,1,.19,1.87,8.66,8.66,0,0,1-.13,1.59,5.17,5.17,0,0,1-.34,1.15,2.59,2.59,0,0,1-.45.71,1.58,1.58,0,0,1-.59.4,2.19,2.19,0,0,1-.79.13Zm.65-.93h1.05a1.67,1.67,0,0,0,.77-.15,1.13,1.13,0,0,0,.44-.41,3.06,3.06,0,0,0,.36-1,7.57,7.57,0,0,0,.13-1.52,5.54,5.54,0,0,0-.25-1.9,1.74,1.74,0,0,0-.62-.89,1.68,1.68,0,0,0-.84-.16h-1Z" style="fill:#231f20"/><path d="M192.32,118.84,190.41,111h.71l1.28,5.72q.16.69.26,1.29.11-.64.27-1.29l1.33-5.72h.67L193,118.84Z" style="fill:#231f20"/><path d="M195,118.84l1.89-7.87h.7l2,7.87h-.74l-.58-2.38H196.2l-.54,2.38Zm1.42-3.23h1.67l-.51-2.18q-.24-1-.35-1.63a14.87,14.87,0,0,1-.27,1.5Z" style="fill:#231f20"/><path d="M200.65,118.84V111h.67l2.59,6.18V111h.63v7.87h-.67l-2.59-6.19v6.19Z" style="fill:#231f20"/><path d="M209.7,116.08l.65.26a4.21,4.21,0,0,1-.74,2,1.61,1.61,0,0,1-1.3.67,1.72,1.72,0,0,1-1.3-.52,3.37,3.37,0,0,1-.76-1.5,8.21,8.21,0,0,1-.26-2.11,7,7,0,0,1,.29-2.15,3,3,0,0,1,.84-1.39,1.78,1.78,0,0,1,1.2-.47,1.56,1.56,0,0,1,1.24.6,3.59,3.59,0,0,1,.7,1.69l-.64.24a2.85,2.85,0,0,0-.5-1.25,1,1,0,0,0-.82-.39,1.22,1.22,0,0,0-1,.43,2.54,2.54,0,0,0-.54,1.17,7.29,7.29,0,0,0-.16,1.51,7.44,7.44,0,0,0,.18,1.75,2.26,2.26,0,0,0,.57,1.12,1.19,1.19,0,0,0,.84.37,1.13,1.13,0,0,0,.93-.5A3.22,3.22,0,0,0,209.7,116.08Z" style="fill:#231f20"/><path d="M211.72,118.84V111h3.57v.93h-2.91v2.41h2.73v.92h-2.73v2.68h3v.93Z" style="fill:#231f20"/><path d="M216.85,118.84V111h1.7a2.63,2.63,0,0,1,.88.11,1.56,1.56,0,0,1,.72.56,3.64,3.64,0,0,1,.58,1.35,8.18,8.18,0,0,1,.19,1.87,8.66,8.66,0,0,1-.13,1.59,5.17,5.17,0,0,1-.34,1.15,2.59,2.59,0,0,1-.45.71,1.58,1.58,0,0,1-.59.4,2.19,2.19,0,0,1-.79.13Zm.65-.93h1.05a1.67,1.67,0,0,0,.77-.15,1.13,1.13,0,0,0,.44-.41,3.06,3.06,0,0,0,.36-1,7.57,7.57,0,0,0,.13-1.52,5.54,5.54,0,0,0-.25-1.9,1.74,1.74,0,0,0-.62-.89,1.68,1.68,0,0,0-.84-.16h-1Z" style="fill:#231f20"/><rect x="209.68" y="86.13" width="15.48" height="15.65" style="fill:none;stroke:#000;stroke-width:0.9753649999999999px"/><polygon points="210.45 93.05 217.42 100.01 224.37 93.05 210.45 93.05" style="fill:#231f20"/><rect x="209.68" y="40.98" width="15.48" height="15.65" style="fill:none;stroke:#000;stroke-width:0.9753649999999999px"/><rect x="211.23" y="58.2" width="12.5" height="14.08"/><polygon points="224.4 49.82 217.42 42.86 210.48 49.82 224.4 49.82" style="fill:#231f20"/><path d="M103.71,118.84V111h1.85a1.38,1.38,0,0,1,1.44,1,2.84,2.84,0,0,1,.19,1,2.6,2.6,0,0,1-.17,1,1.65,1.65,0,0,1-.52.72,1.43,1.43,0,0,1,.69.71,2.73,2.73,0,0,1,.24,1.19,3.48,3.48,0,0,1-.15,1,2.12,2.12,0,0,1-.36.73,1.34,1.34,0,0,1-.54.39,2.11,2.11,0,0,1-.79.13Zm.65-4.57h1.07a1.54,1.54,0,0,0,.62-.09.78.78,0,0,0,.38-.39,1.64,1.64,0,0,0,.13-.69,1.86,1.86,0,0,0-.12-.69.73.73,0,0,0-.34-.41,1.82,1.82,0,0,0-.75-.11h-1Zm0,3.64h1.23a1.76,1.76,0,0,0,.44,0,.85.85,0,0,0,.38-.21,1.09,1.09,0,0,0,.25-.44,2.05,2.05,0,0,0,.1-.66,1.9,1.9,0,0,0-.14-.77.89.89,0,0,0-.39-.46,1.6,1.6,0,0,0-.72-.13h-1.14Z"/><path d="M108.34,118.84l1.89-7.87h.7l2,7.87h-.74l-.58-2.38h-2.06l-.54,2.38Zm1.42-3.23h1.67l-.51-2.18q-.24-1-.35-1.63a14.87,14.87,0,0,1-.27,1.5Z"/><path d="M117.55,116.08l.65.26a4.21,4.21,0,0,1-.74,2,1.61,1.61,0,0,1-1.3.67,1.72,1.72,0,0,1-1.3-.52,3.37,3.37,0,0,1-.76-1.5,8.21,8.21,0,0,1-.26-2.11,7,7,0,0,1,.29-2.15,3,3,0,0,1,.84-1.39,1.78,1.78,0,0,1,1.2-.47,1.56,1.56,0,0,1,1.24.6,3.59,3.59,0,0,1,.7,1.69l-.64.24a2.85,2.85,0,0,0-.5-1.25,1,1,0,0,0-.82-.39,1.22,1.22,0,0,0-1,.43,2.54,2.54,0,0,0-.54,1.17,7.29,7.29,0,0,0-.16,1.51,7.44,7.44,0,0,0,.18,1.75,2.26,2.26,0,0,0,.57,1.12,1.19,1.19,0,0,0,.84.37,1.13,1.13,0,0,0,.93-.5A3.22,3.22,0,0,0,117.55,116.08Z"/><path d="M119.53,118.84V111h.65v3.91l2.45-3.91h.88l-2.07,3.19,2.16,4.68h-.86l-1.76-4-.81,1.26v2.73Z"/><line x1="0.53" y1="40.99" x2="225.04" y2="40.99" style="fill:none;stroke:#000;stroke-linecap:round;stroke-linejoin:round;stroke-width:0.9753649999999999px"/><line x1="209.68" y1="51.65" x2="209.68" y2="90.99" style="fill:none;stroke:#000;stroke-width:0.9753649999999999px"/><path d="M50.34,23.32a7.49,7.49,0,0,1,.25-2.16,2.72,2.72,0,0,1,.76-1.26,1.84,1.84,0,0,1,1.26-.44,1.93,1.93,0,0,1,1,.25,2,2,0,0,1,.7.71,4,4,0,0,1,.43,1.13,8.13,8.13,0,0,1,.16,1.79,7.53,7.53,0,0,1-.25,2.15,2.72,2.72,0,0,1-.75,1.27,1.83,1.83,0,0,1-1.27.45A1.86,1.86,0,0,1,51,26.4,5.33,5.33,0,0,1,50.34,23.32Zm.88,0a5.1,5.1,0,0,0,.4,2.48,1.1,1.1,0,0,0,2,0,5.11,5.11,0,0,0,.4-2.48,5.1,5.1,0,0,0-.4-2.49,1.18,1.18,0,0,0-1-.62,1.08,1.08,0,0,0-.94.54A5.16,5.16,0,0,0,51.22,23.32Z"/><path d="M63.94,27.06v-.69a1.55,1.55,0,0,1-1.41.82,1.88,1.88,0,0,1-1.11-.36,2.34,2.34,0,0,1-.79-1,3.75,3.75,0,0,1-.28-1.49,4.19,4.19,0,0,1,.25-1.49,2.14,2.14,0,0,1,.76-1,1.91,1.91,0,0,1,1.13-.36,1.58,1.58,0,0,1,.81.21,1.75,1.75,0,0,1,.58.55V19.48h.85v7.58Zm-2.71-2.74a2.53,2.53,0,0,0,.41,1.58,1.2,1.2,0,0,0,1,.52,1.18,1.18,0,0,0,1-.5,2.44,2.44,0,0,0,.39-1.52,2.75,2.75,0,0,0-.4-1.65,1.2,1.2,0,0,0-1-.53,1.16,1.16,0,0,0-1,.51A2.66,2.66,0,0,0,61.23,24.32Z"/><path d="M70.35,26.38a3.17,3.17,0,0,1-.92.62,2.47,2.47,0,0,1-.94.18,1.74,1.74,0,0,1-1.28-.44,1.52,1.52,0,0,1-.45-1.13,1.6,1.6,0,0,1,.17-.74,1.49,1.49,0,0,1,.44-.54A2,2,0,0,1,68,24a5.6,5.6,0,0,1,.76-.14,7.3,7.3,0,0,0,1.53-.32c0-.13,0-.21,0-.24a1.08,1.08,0,0,0-.24-.8,1.36,1.36,0,0,0-1-.32,1.42,1.42,0,0,0-.89.23,1.44,1.44,0,0,0-.43.81l-.84-.12a2.36,2.36,0,0,1,.38-.94,1.65,1.65,0,0,1,.76-.55,3.14,3.14,0,0,1,1.15-.19,2.81,2.81,0,0,1,1.05.17,1.38,1.38,0,0,1,.59.42,1.53,1.53,0,0,1,.27.63,5.63,5.63,0,0,1,0,.86v1.24a14.25,14.25,0,0,0,.05,1.64,2.17,2.17,0,0,0,.22.66h-.89A2.11,2.11,0,0,1,70.35,26.38Zm-.07-2.08a5.88,5.88,0,0,1-1.4.35,3,3,0,0,0-.75.19.76.76,0,0,0-.34.3.84.84,0,0,0-.12.44.82.82,0,0,0,.26.62,1.06,1.06,0,0,0,.76.25,1.65,1.65,0,0,0,.88-.24,1.41,1.41,0,0,0,.57-.64,2.43,2.43,0,0,0,.14-.93Z"/><path d="M73.41,29.17l-.1-.87a1.75,1.75,0,0,0,.49.08.88.88,0,0,0,.46-.1.81.81,0,0,0,.28-.29,4.86,4.86,0,0,0,.26-.69l.08-.23L73,21.57h.92l1.05,3.18q.2.6.37,1.27.15-.64.35-1.25l1.08-3.2h.86l-1.92,5.58a11.44,11.44,0,0,1-.48,1.25,1.81,1.81,0,0,1-.52.67,1.17,1.17,0,0,1-.7.21A1.6,1.6,0,0,1,73.41,29.17Z"/><path d="M78.95,25.42l.85-.14a1.33,1.33,0,0,0,.4.85,1.31,1.31,0,0,0,.91.29,1.26,1.26,0,0,0,.88-.26.8.8,0,0,0,.29-.61A.58.58,0,0,0,82,25a3.52,3.52,0,0,0-.88-.32,7.47,7.47,0,0,1-1.31-.45,1.3,1.3,0,0,1-.55-.52,1.47,1.47,0,0,1-.19-.74,1.52,1.52,0,0,1,.15-.68,1.47,1.47,0,0,1,.42-.52,1.7,1.7,0,0,1,.54-.27,2.39,2.39,0,0,1,.74-.11,2.72,2.72,0,0,1,1,.19,1.43,1.43,0,0,1,.66.5A2.08,2.08,0,0,1,83,23l-.84.12a1,1,0,0,0-.33-.66,1.14,1.14,0,0,0-.77-.24,1.32,1.32,0,0,0-.84.21.63.63,0,0,0-.25.5.54.54,0,0,0,.1.33.76.76,0,0,0,.33.25l.76.24a10.06,10.06,0,0,1,1.27.43,1.32,1.32,0,0,1,.56.49,1.46,1.46,0,0,1,.2.8,1.66,1.66,0,0,1-1,1.51,2.45,2.45,0,0,1-1.07.22,2.24,2.24,0,0,1-1.5-.44A2.12,2.12,0,0,1,78.95,25.42Z"/><path d="M89.17,23.32a7.49,7.49,0,0,1,.25-2.16,2.72,2.72,0,0,1,.76-1.26,1.84,1.84,0,0,1,1.26-.44,1.93,1.93,0,0,1,1,.25,2,2,0,0,1,.7.71,4,4,0,0,1,.43,1.13,8.13,8.13,0,0,1,.16,1.79,7.53,7.53,0,0,1-.25,2.15,2.72,2.72,0,0,1-.75,1.27,1.83,1.83,0,0,1-1.27.45,1.86,1.86,0,0,1-1.58-.79A5.33,5.33,0,0,1,89.17,23.32Zm.88,0a5.1,5.1,0,0,0,.4,2.48,1.1,1.1,0,0,0,2,0,5.11,5.11,0,0,0,.4-2.48,5.1,5.1,0,0,0-.4-2.49,1.18,1.18,0,0,0-1-.62,1.08,1.08,0,0,0-.94.54A5.16,5.16,0,0,0,90,23.32Z"/><path d="M99.48,27.06V19.48h.86V22.2a1.85,1.85,0,0,1,1.51-.75,1.91,1.91,0,0,1,1,.24,1.37,1.37,0,0,1,.59.66,3.29,3.29,0,0,1,.18,1.23v3.48h-.86V23.58a1.52,1.52,0,0,0-.28-1,1,1,0,0,0-.79-.32,1.31,1.31,0,0,0-.72.21,1.18,1.18,0,0,0-.48.58,2.89,2.89,0,0,0-.14,1v3Z"/><path d="M105.86,27.06V21.57h.77v.83a2.25,2.25,0,0,1,.54-.77.9.9,0,0,1,.55-.19,1.58,1.58,0,0,1,.88.3l-.3.86a1.15,1.15,0,0,0-.63-.2.78.78,0,0,0-.5.18,1,1,0,0,0-.32.51,3.91,3.91,0,0,0-.14,1.08v2.87Z"/><path d="M109.75,25.42l.85-.14a1.33,1.33,0,0,0,.4.85,1.31,1.31,0,0,0,.91.29,1.26,1.26,0,0,0,.88-.26.8.8,0,0,0,.29-.61.58.58,0,0,0-.25-.5,3.52,3.52,0,0,0-.88-.32,7.47,7.47,0,0,1-1.31-.45,1.3,1.3,0,0,1-.55-.52,1.47,1.47,0,0,1-.19-.74,1.52,1.52,0,0,1,.15-.68,1.47,1.47,0,0,1,.42-.52,1.7,1.7,0,0,1,.54-.27,2.39,2.39,0,0,1,.74-.11,2.72,2.72,0,0,1,1,.19,1.43,1.43,0,0,1,.66.5,2.08,2.08,0,0,1,.29.85l-.84.12a1,1,0,0,0-.33-.66,1.14,1.14,0,0,0-.77-.24,1.32,1.32,0,0,0-.84.21.63.63,0,0,0-.25.5.54.54,0,0,0,.1.33.76.76,0,0,0,.33.25l.76.24a10.06,10.06,0,0,1,1.27.43,1.32,1.32,0,0,1,.56.49,1.46,1.46,0,0,1,.2.8A1.66,1.66,0,0,1,113,27a2.45,2.45,0,0,1-1.07.22,2.24,2.24,0,0,1-1.5-.44A2.12,2.12,0,0,1,109.75,25.42Z"/><path d="M120,23.32a7.49,7.49,0,0,1,.25-2.16,2.72,2.72,0,0,1,.76-1.26,1.83,1.83,0,0,1,1.26-.44,1.94,1.94,0,0,1,1,.25,2,2,0,0,1,.7.71,4,4,0,0,1,.43,1.13,8.12,8.12,0,0,1,.16,1.79,7.53,7.53,0,0,1-.25,2.15,2.72,2.72,0,0,1-.75,1.27,1.83,1.83,0,0,1-1.27.45,1.86,1.86,0,0,1-1.58-.79A5.33,5.33,0,0,1,120,23.32Zm.88,0a5.11,5.11,0,0,0,.4,2.48,1.1,1.1,0,0,0,2,0,5.11,5.11,0,0,0,.4-2.48,5.11,5.11,0,0,0-.4-2.49,1.18,1.18,0,0,0-1-.62,1.08,1.08,0,0,0-.94.54A5.16,5.16,0,0,0,120.85,23.32Z"/><path d="M129.7,27.06V21.57h.77v.77a1.88,1.88,0,0,1,.63-.65,1.67,1.67,0,0,1,.9-.25,1.56,1.56,0,0,1,.92.25,1.35,1.35,0,0,1,.51.71,1.79,1.79,0,0,1,1.56-1,1.47,1.47,0,0,1,1.16.45,2,2,0,0,1,.4,1.39v3.77h-.85V23.6a2.79,2.79,0,0,0-.08-.8.76.76,0,0,0-.3-.4.89.89,0,0,0-.51-.15,1.15,1.15,0,0,0-.88.38,1.79,1.79,0,0,0-.35,1.23v3.19h-.86V23.49a1.67,1.67,0,0,0-.21-.93.77.77,0,0,0-.69-.31,1.17,1.17,0,0,0-.67.21,1.16,1.16,0,0,0-.45.61,3.68,3.68,0,0,0-.14,1.15v2.85Z"/><path d="M138.79,20.55V19.48h.86v1.07Zm0,6.51V21.57h.86v5.49Z"/><path d="M141.93,27.06V21.57h.77v.78a1.78,1.78,0,0,1,1.61-.9,2,2,0,0,1,.84.18,1.35,1.35,0,0,1,.57.47,1.89,1.89,0,0,1,.27.69,5.85,5.85,0,0,1,0,.91v3.38h-.86V23.72a2.71,2.71,0,0,0-.1-.85.87.87,0,0,0-.35-.45,1.06,1.06,0,0,0-.6-.17,1.32,1.32,0,0,0-.94.38,2,2,0,0,0-.4,1.43v3Z"/><path d="M148,25.42l.85-.14a1.33,1.33,0,0,0,.4.85,1.31,1.31,0,0,0,.91.29,1.26,1.26,0,0,0,.88-.26.81.81,0,0,0,.29-.61A.58.58,0,0,0,151,25a3.53,3.53,0,0,0-.88-.32,7.47,7.47,0,0,1-1.31-.45,1.3,1.3,0,0,1-.55-.52,1.47,1.47,0,0,1-.19-.74,1.52,1.52,0,0,1,.15-.68,1.48,1.48,0,0,1,.42-.52,1.69,1.69,0,0,1,.54-.27,2.39,2.39,0,0,1,.74-.11,2.72,2.72,0,0,1,1,.19,1.43,1.43,0,0,1,.66.5A2.08,2.08,0,0,1,152,23l-.84.12a1,1,0,0,0-.33-.66,1.14,1.14,0,0,0-.77-.24,1.32,1.32,0,0,0-.84.21.63.63,0,0,0-.25.5.55.55,0,0,0,.1.33.76.76,0,0,0,.33.25l.76.24a10,10,0,0,1,1.27.43,1.32,1.32,0,0,1,.56.49,1.46,1.46,0,0,1,.2.8,1.66,1.66,0,0,1-1,1.51,2.45,2.45,0,0,1-1.07.22,2.24,2.24,0,0,1-1.5-.44A2.12,2.12,0,0,1,148,25.42Z"/><path d="M161.15,26.38a3.16,3.16,0,0,1-.92.62,2.47,2.47,0,0,1-.94.18,1.74,1.74,0,0,1-1.28-.44,1.52,1.52,0,0,1-.45-1.13,1.6,1.6,0,0,1,.17-.74,1.48,1.48,0,0,1,.44-.54,2,2,0,0,1,.62-.3,5.6,5.6,0,0,1,.76-.14,7.3,7.3,0,0,0,1.53-.32c0-.13,0-.21,0-.24a1.09,1.09,0,0,0-.24-.8,1.36,1.36,0,0,0-1-.32,1.42,1.42,0,0,0-.89.23,1.44,1.44,0,0,0-.43.81l-.84-.12a2.36,2.36,0,0,1,.38-.94,1.65,1.65,0,0,1,.76-.55,3.14,3.14,0,0,1,1.15-.19,2.81,2.81,0,0,1,1.05.17,1.38,1.38,0,0,1,.59.42,1.53,1.53,0,0,1,.27.63,5.7,5.7,0,0,1,0,.86v1.24A14.37,14.37,0,0,0,162,26.4a2.16,2.16,0,0,0,.22.66h-.89A2.11,2.11,0,0,1,161.15,26.38Zm-.07-2.08a5.89,5.89,0,0,1-1.4.35,3,3,0,0,0-.75.19.76.76,0,0,0-.34.3.85.85,0,0,0-.12.44.82.82,0,0,0,.26.62,1.06,1.06,0,0,0,.76.25,1.65,1.65,0,0,0,.88-.24,1.41,1.41,0,0,0,.57-.64,2.43,2.43,0,0,0,.14-.93Z"/><path d="M164.09,27.51l.83.13a.88.88,0,0,0,.29.61,1.35,1.35,0,0,0,.87.26,1.44,1.44,0,0,0,.92-.26,1.28,1.28,0,0,0,.44-.72,6.35,6.35,0,0,0,.06-1.19,1.71,1.71,0,0,1-1.4.72,1.86,1.86,0,0,1-1.61-.82,3.33,3.33,0,0,1-.57-2,3.91,3.91,0,0,1,.26-1.45,2.24,2.24,0,0,1,.76-1,1.93,1.93,0,0,1,1.17-.36,1.76,1.76,0,0,1,1.47.79v-.66h.79v4.75a4.85,4.85,0,0,1-.24,1.82,1.84,1.84,0,0,1-.76.85,2.47,2.47,0,0,1-1.28.31,2.28,2.28,0,0,1-1.46-.44A1.55,1.55,0,0,1,164.09,27.51Zm.71-3.3a2.54,2.54,0,0,0,.39,1.58,1.24,1.24,0,0,0,2,0,2.45,2.45,0,0,0,.4-1.55,2.39,2.39,0,0,0-.41-1.52,1.24,1.24,0,0,0-1-.51,1.2,1.2,0,0,0-1,.5A2.37,2.37,0,0,0,164.8,24.22Z"/><path d="M170.32,24.31a3,3,0,0,1,.78-2.26,2.24,2.24,0,0,1,1.59-.61,2.18,2.18,0,0,1,1.7.74,3,3,0,0,1,.66,2,3.92,3.92,0,0,1-.29,1.67,2.17,2.17,0,0,1-.85.94,2.33,2.33,0,0,1-1.22.34,2.18,2.18,0,0,1-1.72-.74A3.12,3.12,0,0,1,170.32,24.31Zm.88,0a2.48,2.48,0,0,0,.42,1.58,1.34,1.34,0,0,0,2.13,0,2.54,2.54,0,0,0,.42-1.61,2.41,2.41,0,0,0-.43-1.54,1.34,1.34,0,0,0-2.12,0A2.47,2.47,0,0,0,171.2,24.31Z"/><path d="M66.12,37.62V30h5v.89H67v2.32H70.9v.89H67v2.58h4.28v.89Z"/><path d="M73.45,37.62V32.13h.77V33a2.25,2.25,0,0,1,.54-.77.9.9,0,0,1,.55-.19,1.58,1.58,0,0,1,.88.3l-.3.86a1.15,1.15,0,0,0-.63-.2.78.78,0,0,0-.5.18,1,1,0,0,0-.32.51,3.91,3.91,0,0,0-.14,1.08v2.87Z"/><path d="M77.67,37.62V32.13h.77V33a2.25,2.25,0,0,1,.54-.77.9.9,0,0,1,.55-.19,1.58,1.58,0,0,1,.88.3l-.3.86a1.15,1.15,0,0,0-.63-.2.78.78,0,0,0-.5.18,1,1,0,0,0-.32.51,3.91,3.91,0,0,0-.14,1.08v2.87Z"/><path d="M81.58,34.87a3,3,0,0,1,.78-2.26A2.24,2.24,0,0,1,84,32a2.18,2.18,0,0,1,1.7.74,3,3,0,0,1,.66,2A3.9,3.9,0,0,1,86,36.46a2.17,2.17,0,0,1-.85.94,2.33,2.33,0,0,1-1.22.34A2.18,2.18,0,0,1,82.24,37,3.11,3.11,0,0,1,81.58,34.87Zm.88,0a2.48,2.48,0,0,0,.42,1.58,1.34,1.34,0,0,0,2.13,0,2.54,2.54,0,0,0,.42-1.61A2.4,2.4,0,0,0,85,33.3a1.34,1.34,0,0,0-2.12,0A2.47,2.47,0,0,0,82.46,34.87Z"/><path d="M88.28,37.62V32.13h.77V33a2.25,2.25,0,0,1,.54-.77.9.9,0,0,1,.55-.19,1.58,1.58,0,0,1,.88.3l-.3.86a1.15,1.15,0,0,0-.63-.2.78.78,0,0,0-.5.18,1,1,0,0,0-.32.51,3.91,3.91,0,0,0-.14,1.08v2.87Z"/><path d="M101.28,35l.92.25a3.43,3.43,0,0,1-1,1.88,2.73,2.73,0,0,1-1.84.65,3.12,3.12,0,0,1-1.83-.5,3.08,3.08,0,0,1-1.08-1.45,5.55,5.55,0,0,1-.37-2,4.78,4.78,0,0,1,.42-2.06,3,3,0,0,1,1.18-1.34,3.24,3.24,0,0,1,1.69-.46,2.71,2.71,0,0,1,1.76.58,3,3,0,0,1,1,1.63l-.91.23a2.37,2.37,0,0,0-.7-1.2,1.78,1.78,0,0,0-1.16-.38,2.13,2.13,0,0,0-1.34.42,2.2,2.2,0,0,0-.76,1.12A4.88,4.88,0,0,0,97,33.77a5,5,0,0,0,.26,1.69,2.07,2.07,0,0,0,.81,1.08,2.12,2.12,0,0,0,1.18.36,1.89,1.89,0,0,0,1.31-.49A2.54,2.54,0,0,0,101.28,35Z"/><path d="M103.89,34.87a3,3,0,0,1,.78-2.26,2.24,2.24,0,0,1,1.59-.61,2.18,2.18,0,0,1,1.7.74,3,3,0,0,1,.66,2,3.9,3.9,0,0,1-.29,1.67,2.17,2.17,0,0,1-.85.94,2.33,2.33,0,0,1-1.22.34,2.18,2.18,0,0,1-1.71-.74A3.11,3.11,0,0,1,103.89,34.87Zm.88,0a2.48,2.48,0,0,0,.42,1.58,1.34,1.34,0,0,0,2.13,0,2.54,2.54,0,0,0,.42-1.61,2.4,2.4,0,0,0-.43-1.54,1.34,1.34,0,0,0-2.12,0A2.47,2.47,0,0,0,104.77,34.87Z"/><path d="M113.88,37.62v-.69a1.55,1.55,0,0,1-1.41.82,1.88,1.88,0,0,1-1.11-.36,2.34,2.34,0,0,1-.79-1,3.75,3.75,0,0,1-.28-1.49,4.19,4.19,0,0,1,.25-1.49,2.14,2.14,0,0,1,.76-1,1.91,1.91,0,0,1,1.13-.36,1.58,1.58,0,0,1,.81.21,1.75,1.75,0,0,1,.58.55V30h.85v7.58Zm-2.71-2.74a2.53,2.53,0,0,0,.41,1.58,1.2,1.2,0,0,0,1,.52,1.18,1.18,0,0,0,1-.5,2.44,2.44,0,0,0,.39-1.52,2.75,2.75,0,0,0-.4-1.65,1.2,1.2,0,0,0-1-.53,1.16,1.16,0,0,0-1,.51A2.66,2.66,0,0,0,111.17,34.88Z"/><path d="M120.45,35.85l.88.12a2.38,2.38,0,0,1-.78,1.31,2.47,2.47,0,0,1-3.21-.28,3.06,3.06,0,0,1-.65-2.08,3.2,3.2,0,0,1,.66-2.15,2.14,2.14,0,0,1,1.7-.76,2.08,2.08,0,0,1,1.66.75,3.15,3.15,0,0,1,.64,2.11c0,.05,0,.14,0,.25h-3.77a2.21,2.21,0,0,0,.47,1.38,1.35,1.35,0,0,0,1.06.48,1.24,1.24,0,0,0,.8-.27A1.79,1.79,0,0,0,120.45,35.85Zm-2.81-1.5h2.82a2,2,0,0,0-.32-1,1.27,1.27,0,0,0-1.06-.54,1.31,1.31,0,0,0-1,.43A1.77,1.77,0,0,0,117.64,34.35Z"/><path d="M123.63,33.19V32.13h1v1.06Zm0,4.43V36.56h1v1.06Z"/><path d="M130.82,37.62V30h2.62a3,3,0,0,1,1.28.23,1.7,1.7,0,0,1,.76.71,2,2,0,0,1,.27,1,1.83,1.83,0,0,1-.24.92,1.78,1.78,0,0,1-.73.69,1.82,1.82,0,0,1,1,.69,2,2,0,0,1,.34,1.15,2.38,2.38,0,0,1-.21,1,1.92,1.92,0,0,1-.51.71,2.06,2.06,0,0,1-.76.37,4.27,4.27,0,0,1-1.13.13Zm.92-4.39h1.51a3.11,3.11,0,0,0,.88-.09,1,1,0,0,0,.53-.38,1.15,1.15,0,0,0,.18-.66,1.3,1.3,0,0,0-.17-.66.85.85,0,0,0-.48-.39,3.64,3.64,0,0,0-1.06-.11h-1.39Zm0,3.5h1.74a3.67,3.67,0,0,0,.63,0,1.44,1.44,0,0,0,.53-.21,1.07,1.07,0,0,0,.35-.42,1.41,1.41,0,0,0,.14-.64,1.33,1.33,0,0,0-.2-.74,1.07,1.07,0,0,0-.55-.44,3.2,3.2,0,0,0-1-.13h-1.61Z"/><path d="M142.49,36.72v.89h-4.61A1.8,1.8,0,0,1,138,37a3.51,3.51,0,0,1,.56-1,9.23,9.23,0,0,1,1.12-1.15,9.92,9.92,0,0,0,1.54-1.6,2,2,0,0,0,.4-1.12,1.3,1.3,0,0,0-.36-.93,1.25,1.25,0,0,0-.95-.38,1.28,1.28,0,0,0-1,.4,1.6,1.6,0,0,0-.38,1.12l-.88-.1a2.45,2.45,0,0,1,.68-1.63,2.21,2.21,0,0,1,1.58-.56,2.11,2.11,0,0,1,1.59.6,2.07,2.07,0,0,1,.59,1.5,2.44,2.44,0,0,1-.17.89,3.52,3.52,0,0,1-.57.92,14.37,14.37,0,0,1-1.32,1.33q-.77.7-1,1a3.08,3.08,0,0,0-.36.5Z"/><path d="M144.29,35.34v-.94h2.63v.94Z"/><path d="M148.66,31v-.89h4.51v.72a10.46,10.46,0,0,0-1.32,2,13.15,13.15,0,0,0-1,2.63,10.57,10.57,0,0,0-.33,2.08h-.88a10.05,10.05,0,0,1,.32-2.16,11.94,11.94,0,0,1,.89-2.44,10.56,10.56,0,0,1,1.23-2Z"/><path d="M155,33.88a7.49,7.49,0,0,1,.25-2.16,2.72,2.72,0,0,1,.76-1.26,1.83,1.83,0,0,1,1.26-.44,1.94,1.94,0,0,1,1,.25,2,2,0,0,1,.7.71,4,4,0,0,1,.43,1.13,8.12,8.12,0,0,1,.16,1.79,7.53,7.53,0,0,1-.25,2.15,2.72,2.72,0,0,1-.75,1.27,1.83,1.83,0,0,1-1.27.45,1.86,1.86,0,0,1-1.58-.79A5.33,5.33,0,0,1,155,33.88Zm.88,0a5.11,5.11,0,0,0,.4,2.48,1.1,1.1,0,0,0,2,0,5.11,5.11,0,0,0,.4-2.48,5.11,5.11,0,0,0-.4-2.49,1.18,1.18,0,0,0-1-.62,1.08,1.08,0,0,0-.94.54A5.16,5.16,0,0,0,155.88,33.88Z"/><path d="M55.91,14.34V3.13h1.36v11.2Z"/><path d="M60.72,15l1.23.2a1.31,1.31,0,0,0,.43.9,2,2,0,0,0,1.29.38A2.13,2.13,0,0,0,65,16.11,1.9,1.9,0,0,0,65.68,15a9.52,9.52,0,0,0,.09-1.77,2.53,2.53,0,0,1-2.07,1.06,2.74,2.74,0,0,1-2.38-1.21,4.93,4.93,0,0,1-.84-2.9,5.8,5.8,0,0,1,.39-2.14A3.32,3.32,0,0,1,62,6.57,2.86,2.86,0,0,1,63.71,6,2.61,2.61,0,0,1,65.89,7.2v-1h1.17v7a7.18,7.18,0,0,1-.36,2.69,2.73,2.73,0,0,1-1.13,1.25,3.65,3.65,0,0,1-1.9.46A3.37,3.37,0,0,1,61.52,17,2.29,2.29,0,0,1,60.72,15Zm1-4.88a3.74,3.74,0,0,0,.58,2.33,1.8,1.8,0,0,0,1.46.73,1.81,1.81,0,0,0,1.46-.73,3.62,3.62,0,0,0,.59-2.29,3.53,3.53,0,0,0-.61-2.25,1.83,1.83,0,0,0-1.47-.76,1.77,1.77,0,0,0-1.44.75A3.51,3.51,0,0,0,61.77,10.13Z"/><path d="M70.41,14.34V6.22h1.14V7.37A2.63,2.63,0,0,1,73.93,6a2.91,2.91,0,0,1,1.24.26A2,2,0,0,1,76,7a2.77,2.77,0,0,1,.39,1,8.55,8.55,0,0,1,.07,1.34v5H75.21V9.4a4,4,0,0,0-.15-1.26,1.3,1.3,0,0,0-.52-.67,1.57,1.57,0,0,0-.88-.25,2,2,0,0,0-1.4.56,2.91,2.91,0,0,0-.59,2.12v4.43Z"/><path d="M79.87,4.71V3.13h1.27V4.71Zm0,9.62V6.22h1.27v8.12Z"/><path d="M87.27,13.1l.18,1.21a4.31,4.31,0,0,1-1,.12,2,2,0,0,1-1.07-.24,1.29,1.29,0,0,1-.53-.62A5.33,5.33,0,0,1,84.73,12V7.29h-.93V6.22h.93v-2L86,3.39V6.22h1.27V7.29H86V12a2.57,2.57,0,0,0,.07.76.56.56,0,0,0,.22.27.79.79,0,0,0,.43.1A3.74,3.74,0,0,0,87.27,13.1Z"/><path d="M90,4.71V3.13h1.27V4.71Zm0,9.62V6.22h1.27v8.12Z"/><path d="M94.12,10.28a4.38,4.38,0,0,1,1.15-3.34A3.31,3.31,0,0,1,97.62,6a3.22,3.22,0,0,1,2.52,1.1,4.39,4.39,0,0,1,1,3,5.77,5.77,0,0,1-.43,2.46A3.22,3.22,0,0,1,99.42,14a3.44,3.44,0,0,1-1.8.5,3.23,3.23,0,0,1-2.54-1.09A4.61,4.61,0,0,1,94.12,10.28Zm1.3,0A3.66,3.66,0,0,0,96,12.61a2,2,0,0,0,3.14,0,3.76,3.76,0,0,0,.63-2.38A3.55,3.55,0,0,0,99.18,8a2,2,0,0,0-3.14,0A3.65,3.65,0,0,0,95.42,10.28Z"/><path d="M104,14.34V6.22h1.14V7.37A2.63,2.63,0,0,1,107.56,6a2.91,2.91,0,0,1,1.24.26,2,2,0,0,1,.85.69A2.77,2.77,0,0,1,110,8a8.55,8.55,0,0,1,.07,1.34v5h-1.27V9.4a4,4,0,0,0-.15-1.26,1.3,1.3,0,0,0-.52-.67,1.57,1.57,0,0,0-.88-.25,2,2,0,0,0-1.4.56,2.91,2.91,0,0,0-.59,2.12v4.43Z"/><path d="M119.17,14.34V3.13h7V4.45h-5.59V7.92h4.84V9.25h-4.84v5.09Z"/><path d="M134,13.33a4.68,4.68,0,0,1-1.35.92,3.65,3.65,0,0,1-1.4.27,2.58,2.58,0,0,1-1.89-.65,2.25,2.25,0,0,1-.66-1.67,2.37,2.37,0,0,1,.25-1.09,2.18,2.18,0,0,1,.65-.79,3,3,0,0,1,.91-.45,8.46,8.46,0,0,1,1.13-.21,10.72,10.72,0,0,0,2.26-.47c0-.19,0-.31,0-.36a1.6,1.6,0,0,0-.36-1.18,2,2,0,0,0-1.44-.47,2.1,2.1,0,0,0-1.32.34,2.12,2.12,0,0,0-.63,1.2L129,8.54a3.49,3.49,0,0,1,.56-1.39,2.44,2.44,0,0,1,1.12-.82,4.64,4.64,0,0,1,1.7-.29,4.17,4.17,0,0,1,1.55.24,2,2,0,0,1,.88.62,2.26,2.26,0,0,1,.39.94,8.43,8.43,0,0,1,.06,1.27v1.83a21.17,21.17,0,0,0,.08,2.43,3.21,3.21,0,0,0,.32,1H134.3A3.14,3.14,0,0,1,134,13.33Zm-.11-3.07a8.66,8.66,0,0,1-2.07.52,4.49,4.49,0,0,0-1.1.28,1.13,1.13,0,0,0-.5.45,1.25,1.25,0,0,0-.18.65,1.22,1.22,0,0,0,.38.92,1.56,1.56,0,0,0,1.12.37,2.44,2.44,0,0,0,1.3-.35,2.07,2.07,0,0,0,.84-1,3.58,3.58,0,0,0,.2-1.37Z"/><path d="M138.64,4.71V3.13h1.27V4.71Zm0,9.62V6.22h1.27v8.12Z"/><path d="M143.24,14.34V3.13h1.27v11.2Z"/><path d="M152.81,14.34V13.14a2.69,2.69,0,0,1-2.37,1.38,2.82,2.82,0,0,1-1.23-.28,2.06,2.06,0,0,1-.85-.69,2.71,2.71,0,0,1-.39-1,7.55,7.55,0,0,1-.08-1.28v-5h1.27v4.5a8.7,8.7,0,0,0,.08,1.45,1.45,1.45,0,0,0,.51.85,1.49,1.49,0,0,0,1,.31,2,2,0,0,0,1.07-.32,1.72,1.72,0,0,0,.71-.86,4.67,4.67,0,0,0,.21-1.59V6.22h1.27v8.12Z"/><path d="M157.35,14.34V6.22h1.14V7.45a3.33,3.33,0,0,1,.81-1.14,1.33,1.33,0,0,1,.81-.28,2.33,2.33,0,0,1,1.3.44L161,7.76a1.7,1.7,0,0,0-.93-.3,1.15,1.15,0,0,0-.75.27,1.48,1.48,0,0,0-.47.75,5.79,5.79,0,0,0-.21,1.6v4.25Z"/><path d="M168.71,11.72l1.31.18a3.52,3.52,0,0,1-1.15,1.93,3.65,3.65,0,0,1-4.74-.41,4.52,4.52,0,0,1-1-3.08,4.74,4.74,0,0,1,1-3.18A3.16,3.16,0,0,1,166.67,6a3.08,3.08,0,0,1,2.45,1.11,4.65,4.65,0,0,1,.95,3.12c0,.08,0,.2,0,.37h-5.57a3.28,3.28,0,0,0,.7,2,2,2,0,0,0,1.56.71,1.84,1.84,0,0,0,1.19-.4A2.66,2.66,0,0,0,168.71,11.72ZM164.56,9.5h4.17A2.9,2.9,0,0,0,168.25,8a1.88,1.88,0,0,0-1.57-.79,1.93,1.93,0,0,0-1.47.63A2.62,2.62,0,0,0,164.56,9.5Z"/><path d="M37.66,51.94V44.78h5.07v.84H38.65v2.22h3.53v.84H38.65v3.25Z"/><path d="M44.2,51.94V44.78h.92v7.16Z"/><path d="M50.42,51.3a3.46,3.46,0,0,1-1,.59,3,3,0,0,1-1,.17A2,2,0,0,1,47,51.64a1.35,1.35,0,0,1-.48-1.07,1.36,1.36,0,0,1,.18-.7,1.46,1.46,0,0,1,.48-.51,2.3,2.3,0,0,1,.66-.29,7,7,0,0,1,.82-.13,8.79,8.79,0,0,0,1.65-.3c0-.12,0-.2,0-.23a.94.94,0,0,0-.26-.76,1.6,1.6,0,0,0-1.05-.3,1.69,1.69,0,0,0-1,.22,1.32,1.32,0,0,0-.46.77l-.9-.12a2.08,2.08,0,0,1,.41-.89,1.78,1.78,0,0,1,.82-.52,3.8,3.8,0,0,1,1.24-.18,3.42,3.42,0,0,1,1.13.16,1.5,1.5,0,0,1,.64.39,1.35,1.35,0,0,1,.29.6,4.71,4.71,0,0,1,0,.81v1.17a11.92,11.92,0,0,0,.06,1.55,1.9,1.9,0,0,0,.23.62h-1A1.79,1.79,0,0,1,50.42,51.3Zm-.08-2a7.06,7.06,0,0,1-1.51.33,3.65,3.65,0,0,0-.81.18.79.79,0,0,0-.36.29.72.72,0,0,0-.13.42.73.73,0,0,0,.28.59,1.24,1.24,0,0,0,.82.23,2,2,0,0,0,.95-.22,1.4,1.4,0,0,0,.61-.61,2,2,0,0,0,.15-.88Z"/><path d="M53,51.94V46.75h.83v.73a1.91,1.91,0,0,1,.68-.61,2,2,0,0,1,1-.23,1.86,1.86,0,0,1,1,.24,1.29,1.29,0,0,1,.55.67,2,2,0,0,1,1.68-.91,1.71,1.71,0,0,1,1.25.43,1.77,1.77,0,0,1,.44,1.32v3.56h-.92V48.67a2.3,2.3,0,0,0-.09-.76.74.74,0,0,0-.33-.37,1.06,1.06,0,0,0-.55-.14,1.32,1.32,0,0,0-1,.36,1.55,1.55,0,0,0-.38,1.16v3h-.92V48.57a1.43,1.43,0,0,0-.23-.88.87.87,0,0,0-.74-.29,1.39,1.39,0,0,0-.72.2,1.12,1.12,0,0,0-.48.57,3.07,3.07,0,0,0-.15,1.08v2.69Z"/><path d="M65.81,50.27l1,.11a2.21,2.21,0,0,1-.84,1.24,2.6,2.6,0,0,1-1.56.44,2.56,2.56,0,0,1-1.89-.7,2.66,2.66,0,0,1-.7-2,2.78,2.78,0,0,1,.71-2,2.45,2.45,0,0,1,1.84-.72,2.39,2.39,0,0,1,1.78.71,2.73,2.73,0,0,1,.69,2c0,.05,0,.13,0,.23H62.73a1.94,1.94,0,0,0,.51,1.31,1.55,1.55,0,0,0,1.14.45,1.46,1.46,0,0,0,.87-.25A1.69,1.69,0,0,0,65.81,50.27Zm-3-1.42h3a1.71,1.71,0,0,0-.35-1,1.44,1.44,0,0,0-1.14-.51,1.51,1.51,0,0,0-1.07.41A1.57,1.57,0,0,0,62.78,48.84Z"/><path d="M71.47,51.94V46.75h.83v.74A2,2,0,0,1,74,46.63a2.37,2.37,0,0,1,.9.17,1.42,1.42,0,0,1,.62.44,1.65,1.65,0,0,1,.29.65,4.8,4.8,0,0,1,.05.85v3.19H75V48.78a2.25,2.25,0,0,0-.11-.8.86.86,0,0,0-.38-.42,1.26,1.26,0,0,0-.64-.16,1.54,1.54,0,0,0-1,.36,1.71,1.71,0,0,0-.43,1.35v2.83Z"/><path d="M77.28,49.34a2.43,2.43,0,0,1,2.55-2.71,2.51,2.51,0,0,1,1.84.7,2.59,2.59,0,0,1,.71,1.94,3.29,3.29,0,0,1-.32,1.57,2.18,2.18,0,0,1-.92.89,2.78,2.78,0,0,1-1.31.32,2.51,2.51,0,0,1-1.85-.7A2.71,2.71,0,0,1,77.28,49.34Zm.95,0a2.14,2.14,0,0,0,.46,1.49,1.57,1.57,0,0,0,2.29,0,2.19,2.19,0,0,0,.46-1.52A2.07,2.07,0,0,0,81,47.86a1.57,1.57,0,0,0-2.29,0A2.13,2.13,0,0,0,78.23,49.34Z"/><path d="M85.79,51.15l.13.78a3.57,3.57,0,0,1-.7.08,1.64,1.64,0,0,1-.78-.15.87.87,0,0,1-.39-.4,3,3,0,0,1-.11-1v-3h-.68v-.68h.68V45.47l.92-.53v1.81h.93v.68h-.93v3a1.47,1.47,0,0,0,0,.48.37.37,0,0,0,.16.17.64.64,0,0,0,.31.06Z"/><path d="M93.77,51.94v-.65a1.72,1.72,0,0,1-1.52.77,2.21,2.21,0,0,1-1.2-.34,2.28,2.28,0,0,1-.85-1,3.17,3.17,0,0,1-.3-1.41,3.52,3.52,0,0,1,.27-1.41A2.06,2.06,0,0,1,91,47a2.26,2.26,0,0,1,1.22-.34,1.89,1.89,0,0,1,.88.2,1.81,1.81,0,0,1,.63.52V44.78h.92v7.16Zm-2.92-2.59a2.18,2.18,0,0,0,.44,1.49,1.36,1.36,0,0,0,1,.49,1.33,1.33,0,0,0,1-.47,2.1,2.1,0,0,0,.42-1.44,2.35,2.35,0,0,0-.43-1.56,1.35,1.35,0,0,0-1.06-.5,1.3,1.3,0,0,0-1,.48A2.28,2.28,0,0,0,90.86,49.35Z"/><path d="M100.12,50.27l1,.11a2.21,2.21,0,0,1-.84,1.24,2.6,2.6,0,0,1-1.56.44,2.56,2.56,0,0,1-1.89-.7,2.66,2.66,0,0,1-.7-2,2.78,2.78,0,0,1,.71-2,2.45,2.45,0,0,1,1.84-.72,2.39,2.39,0,0,1,1.78.71,2.73,2.73,0,0,1,.69,2c0,.05,0,.13,0,.23H97a1.94,1.94,0,0,0,.51,1.31,1.55,1.55,0,0,0,1.14.45,1.46,1.46,0,0,0,.87-.25A1.69,1.69,0,0,0,100.12,50.27Zm-3-1.42h3a1.71,1.71,0,0,0-.35-1,1.44,1.44,0,0,0-1.14-.51,1.51,1.51,0,0,0-1.07.41A1.57,1.57,0,0,0,97.09,48.84Z"/><path d="M104.57,51.15l.13.78a3.57,3.57,0,0,1-.7.08,1.64,1.64,0,0,1-.78-.15.87.87,0,0,1-.39-.4,3,3,0,0,1-.11-1v-3H102v-.68h.68V45.47l.92-.53v1.81h.93v.68h-.93v3a1.47,1.47,0,0,0,0,.48.37.37,0,0,0,.16.17.64.64,0,0,0,.31.06Z"/><path d="M109.51,50.27l1,.11a2.21,2.21,0,0,1-.84,1.24,2.6,2.6,0,0,1-1.56.44,2.56,2.56,0,0,1-1.89-.7,2.66,2.66,0,0,1-.7-2,2.78,2.78,0,0,1,.71-2,2.45,2.45,0,0,1,1.84-.72,2.39,2.39,0,0,1,1.78.71,2.73,2.73,0,0,1,.69,2c0,.05,0,.13,0,.23h-4.06a1.94,1.94,0,0,0,.51,1.31,1.55,1.55,0,0,0,1.14.45,1.46,1.46,0,0,0,.87-.25A1.69,1.69,0,0,0,109.51,50.27Zm-3-1.42h3a1.71,1.71,0,0,0-.35-1,1.44,1.44,0,0,0-1.14-.51,1.51,1.51,0,0,0-1.07.41A1.57,1.57,0,0,0,106.48,48.84Z"/><path d="M115.49,50l.91.11a2.2,2.2,0,0,1-.76,1.4,2.28,2.28,0,0,1-1.5.51,2.4,2.4,0,0,1-1.8-.7,2.74,2.74,0,0,1-.68-2,3.47,3.47,0,0,1,.29-1.47,2,2,0,0,1,.89-.94,2.75,2.75,0,0,1,1.3-.31,2.34,2.34,0,0,1,1.45.43,2,2,0,0,1,.72,1.21l-.9.13a1.4,1.4,0,0,0-.45-.79,1.21,1.21,0,0,0-.79-.26,1.46,1.46,0,0,0-1.13.48,2.18,2.18,0,0,0-.44,1.51,2.25,2.25,0,0,0,.42,1.52,1.4,1.4,0,0,0,1.1.47A1.33,1.33,0,0,0,115,51,1.54,1.54,0,0,0,115.49,50Z"/><path d="M119.52,51.15l.13.78a3.57,3.57,0,0,1-.7.08,1.64,1.64,0,0,1-.78-.15.87.87,0,0,1-.39-.4,3,3,0,0,1-.11-1v-3H117v-.68h.68V45.47l.92-.53v1.81h.93v.68h-.93v3a1.51,1.51,0,0,0,0,.48.38.38,0,0,0,.16.17.63.63,0,0,0,.31.06Z"/><path d="M124.46,50.27l1,.11a2.21,2.21,0,0,1-.84,1.24,2.6,2.6,0,0,1-1.56.44,2.56,2.56,0,0,1-1.89-.7,2.66,2.66,0,0,1-.7-2,2.78,2.78,0,0,1,.71-2,2.45,2.45,0,0,1,1.84-.72,2.39,2.39,0,0,1,1.78.71,2.73,2.73,0,0,1,.69,2c0,.05,0,.13,0,.23h-4.06a1.94,1.94,0,0,0,.51,1.31,1.55,1.55,0,0,0,1.14.45,1.46,1.46,0,0,0,.87-.25A1.69,1.69,0,0,0,124.46,50.27Zm-3-1.42h3a1.71,1.71,0,0,0-.35-1,1.45,1.45,0,0,0-1.14-.51,1.51,1.51,0,0,0-1.07.41A1.57,1.57,0,0,0,121.43,48.84Z"/><path d="M130.42,51.94v-.65a1.72,1.72,0,0,1-1.52.77,2.21,2.21,0,0,1-1.2-.34,2.29,2.29,0,0,1-.85-1,3.18,3.18,0,0,1-.3-1.41,3.52,3.52,0,0,1,.27-1.41,2.05,2.05,0,0,1,.81-1,2.26,2.26,0,0,1,1.21-.34,1.89,1.89,0,0,1,.88.2,1.81,1.81,0,0,1,.63.52V44.78h.92v7.16Zm-2.92-2.59a2.17,2.17,0,0,0,.44,1.49,1.35,1.35,0,0,0,1,.49,1.33,1.33,0,0,0,1-.47,2.1,2.1,0,0,0,.42-1.44,2.35,2.35,0,0,0-.43-1.56,1.35,1.35,0,0,0-1.06-.5,1.3,1.3,0,0,0-1,.48A2.28,2.28,0,0,0,127.5,49.35Z"/><path d="M133.31,51.94v-1h1.05v1Z"/><path d="M145,49.43l1,.24a3.16,3.16,0,0,1-1.12,1.78,3.2,3.2,0,0,1-2,.61,3.71,3.71,0,0,1-2-.47,3,3,0,0,1-1.16-1.36,4.66,4.66,0,0,1-.4-1.92,4.05,4.05,0,0,1,.45-2,3,3,0,0,1,1.28-1.26,3.88,3.88,0,0,1,1.82-.43,3.19,3.19,0,0,1,1.9.55,2.84,2.84,0,0,1,1.07,1.54l-1,.22a2.2,2.2,0,0,0-.76-1.14,2.1,2.1,0,0,0-1.25-.36,2.51,2.51,0,0,0-1.45.4,2.1,2.1,0,0,0-.82,1.06,4.09,4.09,0,0,0-.24,1.37,4.2,4.2,0,0,0,.28,1.59,2,2,0,0,0,.87,1,2.53,2.53,0,0,0,1.28.34,2.21,2.21,0,0,0,1.42-.46A2.33,2.33,0,0,0,145,49.43Z"/><path d="M147.39,51.94V44.78h.92v7.16Z"/><path d="M153.78,50.27l1,.11a2.21,2.21,0,0,1-.84,1.24,2.6,2.6,0,0,1-1.56.44,2.56,2.56,0,0,1-1.89-.7,2.66,2.66,0,0,1-.7-2,2.78,2.78,0,0,1,.71-2,2.46,2.46,0,0,1,1.84-.72,2.39,2.39,0,0,1,1.78.71,2.73,2.73,0,0,1,.69,2q0,.08,0,.23H150.7a1.94,1.94,0,0,0,.51,1.31,1.55,1.55,0,0,0,1.14.45,1.46,1.46,0,0,0,.87-.25A1.69,1.69,0,0,0,153.78,50.27Zm-3-1.42h3a1.71,1.71,0,0,0-.35-1,1.44,1.44,0,0,0-1.14-.51,1.51,1.51,0,0,0-1.07.41A1.56,1.56,0,0,0,150.75,48.84Z"/><path d="M159.76,51.3a3.46,3.46,0,0,1-1,.59,3,3,0,0,1-1,.17,2,2,0,0,1-1.38-.42,1.42,1.42,0,0,1-.3-1.76,1.46,1.46,0,0,1,.48-.51,2.29,2.29,0,0,1,.66-.29,6.93,6.93,0,0,1,.82-.13,8.78,8.78,0,0,0,1.65-.3c0-.12,0-.2,0-.23a.94.94,0,0,0-.26-.76,1.6,1.6,0,0,0-1.05-.3,1.69,1.69,0,0,0-1,.22,1.32,1.32,0,0,0-.46.77l-.9-.12a2.09,2.09,0,0,1,.41-.89,1.78,1.78,0,0,1,.82-.52,3.79,3.79,0,0,1,1.24-.18,3.43,3.43,0,0,1,1.13.16,1.5,1.5,0,0,1,.64.39,1.35,1.35,0,0,1,.29.6,4.65,4.65,0,0,1,0,.81v1.17a11.92,11.92,0,0,0,.06,1.55,1.89,1.89,0,0,0,.23.62h-1A1.79,1.79,0,0,1,159.76,51.3Zm-.08-2a7.06,7.06,0,0,1-1.51.33,3.67,3.67,0,0,0-.81.18.79.79,0,0,0-.36.29.72.72,0,0,0-.13.42.74.74,0,0,0,.28.59,1.25,1.25,0,0,0,.82.23,2,2,0,0,0,.95-.22,1.4,1.4,0,0,0,.61-.61,2,2,0,0,0,.15-.88Z"/><path d="M162.36,51.94V46.75h.83v.74a2,2,0,0,1,1.73-.85,2.38,2.38,0,0,1,.91.17,1.43,1.43,0,0,1,.62.44,1.65,1.65,0,0,1,.29.65,4.91,4.91,0,0,1,.05.85v3.19h-.92V48.78a2.25,2.25,0,0,0-.11-.8.85.85,0,0,0-.38-.42,1.27,1.27,0,0,0-.64-.16,1.54,1.54,0,0,0-1,.36,1.71,1.71,0,0,0-.43,1.35v2.83Z"/><path d="M172,51.94v-4.5h-.82v-.68H172V46.2a2.33,2.33,0,0,1,.1-.78,1.14,1.14,0,0,1,.47-.55,1.76,1.76,0,0,1,.94-.21,4.73,4.73,0,0,1,.86.09l-.14.77a3.22,3.22,0,0,0-.54,0,.83.83,0,0,0-.59.17.89.89,0,0,0-.18.64v.48H174v.68h-1.06v4.5Z"/><path d="M175,51.94V44.78h.92v7.16Z"/><path d="M181.18,51.3a3.46,3.46,0,0,1-1,.59,3,3,0,0,1-1,.17,2,2,0,0,1-1.38-.42,1.35,1.35,0,0,1-.48-1.07,1.37,1.37,0,0,1,.18-.7,1.47,1.47,0,0,1,.48-.51,2.3,2.3,0,0,1,.66-.29,7,7,0,0,1,.82-.13,8.8,8.8,0,0,0,1.65-.3c0-.12,0-.2,0-.23a.94.94,0,0,0-.26-.76,1.6,1.6,0,0,0-1.05-.3,1.69,1.69,0,0,0-1,.22,1.32,1.32,0,0,0-.46.77l-.9-.12a2.08,2.08,0,0,1,.41-.89,1.78,1.78,0,0,1,.81-.52,3.8,3.8,0,0,1,1.24-.18,3.43,3.43,0,0,1,1.13.16,1.5,1.5,0,0,1,.64.39,1.35,1.35,0,0,1,.29.6,4.65,4.65,0,0,1,0,.81v1.17a11.92,11.92,0,0,0,.06,1.55,1.91,1.91,0,0,0,.23.62h-1A1.79,1.79,0,0,1,181.18,51.3Zm-.08-2a7.07,7.07,0,0,1-1.51.33,3.66,3.66,0,0,0-.8.18.78.78,0,0,0-.36.29.72.72,0,0,0-.13.42.74.74,0,0,0,.28.59,1.24,1.24,0,0,0,.82.23,2,2,0,0,0,.95-.22,1.4,1.4,0,0,0,.61-.61,2,2,0,0,0,.15-.88Z"/><path d="M183.79,51.94V46.75h.83v.73a1.91,1.91,0,0,1,.68-.61,2,2,0,0,1,1-.23,1.86,1.86,0,0,1,1,.24,1.3,1.3,0,0,1,.55.67,2,2,0,0,1,1.68-.91,1.71,1.71,0,0,1,1.25.43,1.77,1.77,0,0,1,.44,1.32v3.56h-.92V48.67a2.3,2.3,0,0,0-.09-.76.74.74,0,0,0-.33-.37,1.05,1.05,0,0,0-.55-.14,1.32,1.32,0,0,0-1,.36,1.55,1.55,0,0,0-.38,1.16v3H187V48.57a1.43,1.43,0,0,0-.23-.88.87.87,0,0,0-.74-.29,1.39,1.39,0,0,0-.72.2,1.12,1.12,0,0,0-.48.57,3.06,3.06,0,0,0-.15,1.08v2.69Z"/><path d="M196.57,50.27l1,.11a2.21,2.21,0,0,1-.84,1.24,2.6,2.6,0,0,1-1.56.44,2.56,2.56,0,0,1-1.89-.7,2.66,2.66,0,0,1-.7-2,2.78,2.78,0,0,1,.71-2,2.45,2.45,0,0,1,1.84-.72,2.39,2.39,0,0,1,1.78.71,2.73,2.73,0,0,1,.69,2c0,.05,0,.13,0,.23h-4.06a1.94,1.94,0,0,0,.51,1.31,1.55,1.55,0,0,0,1.14.45,1.46,1.46,0,0,0,.87-.25A1.69,1.69,0,0,0,196.57,50.27Zm-3-1.42h3a1.71,1.71,0,0,0-.35-1,1.45,1.45,0,0,0-1.14-.51,1.51,1.51,0,0,0-1.07.41A1.57,1.57,0,0,0,193.54,48.84Z"/><path d="M42.6,62.94V57.75h.83v.79a2.16,2.16,0,0,1,.59-.73,1.06,1.06,0,0,1,.59-.18,1.86,1.86,0,0,1,.95.28l-.32.82a1.37,1.37,0,0,0-.68-.19.91.91,0,0,0-.54.17.94.94,0,0,0-.34.48,3.27,3.27,0,0,0-.15,1v2.71Z"/><path d="M46.08,60.34a2.43,2.43,0,0,1,2.55-2.71,2.51,2.51,0,0,1,1.84.7,2.59,2.59,0,0,1,.71,1.94,3.29,3.29,0,0,1-.32,1.57,2.18,2.18,0,0,1-.92.89,2.78,2.78,0,0,1-1.31.32,2.51,2.51,0,0,1-1.85-.7A2.71,2.71,0,0,1,46.08,60.34Zm.95,0a2.14,2.14,0,0,0,.46,1.49,1.57,1.57,0,0,0,2.29,0,2.19,2.19,0,0,0,.46-1.52,2.07,2.07,0,0,0-.46-1.46,1.57,1.57,0,0,0-2.29,0A2.13,2.13,0,0,0,47,60.34Z"/><path d="M56.11,62.94v-.65a1.72,1.72,0,0,1-1.52.77,2.21,2.21,0,0,1-1.2-.34,2.28,2.28,0,0,1-.85-1,3.17,3.17,0,0,1-.3-1.41,3.52,3.52,0,0,1,.27-1.41,2.06,2.06,0,0,1,.81-1,2.26,2.26,0,0,1,1.22-.34,1.89,1.89,0,0,1,.88.2,1.81,1.81,0,0,1,.63.52V55.78H57v7.16Zm-2.92-2.59a2.18,2.18,0,0,0,.44,1.49,1.36,1.36,0,0,0,1,.49,1.33,1.33,0,0,0,1-.47,2.1,2.1,0,0,0,.42-1.44,2.35,2.35,0,0,0-.43-1.56,1.35,1.35,0,0,0-1.06-.5,1.3,1.3,0,0,0-1,.48A2.28,2.28,0,0,0,53.19,60.35Z"/><path d="M59,62.94v-1H60v1Z"/><path d="M70.68,60.43l1,.24a3.17,3.17,0,0,1-1.13,1.78,3.2,3.2,0,0,1-2,.61,3.71,3.71,0,0,1-2-.47,3,3,0,0,1-1.16-1.36A4.67,4.67,0,0,1,65,59.3a4,4,0,0,1,.45-2,3,3,0,0,1,1.28-1.26,3.88,3.88,0,0,1,1.82-.43,3.19,3.19,0,0,1,1.9.55,2.84,2.84,0,0,1,1.07,1.54l-1,.22a2.21,2.21,0,0,0-.76-1.14,2.09,2.09,0,0,0-1.25-.36,2.52,2.52,0,0,0-1.45.4,2.1,2.1,0,0,0-.82,1.06,4.09,4.09,0,0,0-.24,1.37,4.19,4.19,0,0,0,.28,1.59,2,2,0,0,0,.87,1,2.53,2.53,0,0,0,1.28.34,2.21,2.21,0,0,0,1.42-.46A2.33,2.33,0,0,0,70.68,60.43Z"/><path d="M73.09,62.94V55.78H74v2.57a2.11,2.11,0,0,1,1.63-.71,2.29,2.29,0,0,1,1.05.23,1.36,1.36,0,0,1,.64.63,2.77,2.77,0,0,1,.19,1.16v3.29h-.92V59.65a1.32,1.32,0,0,0-.3-1,1.15,1.15,0,0,0-.85-.3,1.55,1.55,0,0,0-.77.2,1.17,1.17,0,0,0-.52.55,2.42,2.42,0,0,0-.15,1v2.84Z"/><path d="M83,61.27l1,.11a2.21,2.21,0,0,1-.84,1.24,2.6,2.6,0,0,1-1.56.44,2.56,2.56,0,0,1-1.89-.7,2.66,2.66,0,0,1-.7-2,2.78,2.78,0,0,1,.71-2,2.45,2.45,0,0,1,1.84-.72,2.39,2.39,0,0,1,1.78.71,2.73,2.73,0,0,1,.69,2c0,.05,0,.13,0,.23H79.89a1.94,1.94,0,0,0,.51,1.31,1.55,1.55,0,0,0,1.14.45,1.46,1.46,0,0,0,.87-.25A1.69,1.69,0,0,0,83,61.27Zm-3-1.42h3a1.71,1.71,0,0,0-.35-1,1.44,1.44,0,0,0-1.14-.51,1.51,1.51,0,0,0-1.07.41A1.57,1.57,0,0,0,79.95,59.84Z"/><path d="M89,61l.91.11a2.21,2.21,0,0,1-.76,1.4,2.29,2.29,0,0,1-1.5.51,2.4,2.4,0,0,1-1.8-.7,2.74,2.74,0,0,1-.68-2,3.47,3.47,0,0,1,.29-1.47,2,2,0,0,1,.89-.94,2.75,2.75,0,0,1,1.3-.31,2.34,2.34,0,0,1,1.45.43,1.94,1.94,0,0,1,.72,1.21l-.9.13a1.4,1.4,0,0,0-.45-.79,1.21,1.21,0,0,0-.79-.26,1.46,1.46,0,0,0-1.13.48,2.18,2.18,0,0,0-.44,1.51,2.25,2.25,0,0,0,.42,1.52,1.4,1.4,0,0,0,1.1.47,1.33,1.33,0,0,0,.91-.32A1.54,1.54,0,0,0,89,61Z"/><path d="M91,62.94V55.78h.92v4.08l2.18-2.11h1.19l-2.08,1.92,2.29,3.26H94.35l-1.8-2.65-.65.6v2.06Z"/><path d="M99.6,63.37l.9.13a.8.8,0,0,0,.31.58,1.59,1.59,0,0,0,.94.24,1.71,1.71,0,0,0,1-.24,1.2,1.2,0,0,0,.47-.68,5.38,5.38,0,0,0,.07-1.13,1.94,1.94,0,0,1-1.51.68,2.1,2.1,0,0,1-1.74-.77,2.88,2.88,0,0,1-.62-1.85,3.3,3.3,0,0,1,.28-1.37,2.17,2.17,0,0,1,.82-1,2.29,2.29,0,0,1,1.26-.34,2,2,0,0,1,1.59.74v-.62h.85v4.48a4.07,4.07,0,0,1-.26,1.72,1.85,1.85,0,0,1-.82.8,3,3,0,0,1-1.38.29,2.7,2.7,0,0,1-1.57-.42A1.38,1.38,0,0,1,99.6,63.37Zm.76-3.12a2.17,2.17,0,0,0,.43,1.49,1.45,1.45,0,0,0,2.13,0,2.1,2.1,0,0,0,.43-1.46,2.06,2.06,0,0,0-.44-1.44,1.4,1.4,0,0,0-1.07-.48,1.36,1.36,0,0,0-1,.48A2,2,0,0,0,100.36,60.25Z"/><path d="M109.47,62.3a3.46,3.46,0,0,1-1,.59,3,3,0,0,1-1,.17,2,2,0,0,1-1.38-.42,1.35,1.35,0,0,1-.48-1.07,1.36,1.36,0,0,1,.18-.7,1.46,1.46,0,0,1,.48-.51,2.3,2.3,0,0,1,.66-.29,7,7,0,0,1,.82-.13,8.79,8.79,0,0,0,1.65-.3c0-.12,0-.2,0-.23a.94.94,0,0,0-.26-.76,1.6,1.6,0,0,0-1.05-.3,1.69,1.69,0,0,0-1,.22,1.32,1.32,0,0,0-.46.77l-.9-.12a2.08,2.08,0,0,1,.41-.89,1.78,1.78,0,0,1,.82-.52,3.8,3.8,0,0,1,1.24-.18,3.42,3.42,0,0,1,1.13.16,1.5,1.5,0,0,1,.64.39,1.35,1.35,0,0,1,.29.6,4.71,4.71,0,0,1,0,.81v1.17a11.92,11.92,0,0,0,.06,1.55,1.9,1.9,0,0,0,.23.62h-1A1.79,1.79,0,0,1,109.47,62.3Zm-.08-2a7.06,7.06,0,0,1-1.51.33,3.65,3.65,0,0,0-.81.18.79.79,0,0,0-.36.29.72.72,0,0,0-.13.42.73.73,0,0,0,.28.59,1.24,1.24,0,0,0,.82.23,2,2,0,0,0,.95-.22,1.4,1.4,0,0,0,.61-.61,2,2,0,0,0,.15-.88Z"/><path d="M111.71,61.39l.91-.14a1.2,1.2,0,0,0,.43.8,1.54,1.54,0,0,0,1,.28,1.5,1.5,0,0,0,.94-.25.73.73,0,0,0,.31-.58A.53.53,0,0,0,115,61a4.17,4.17,0,0,0-.94-.3,8.94,8.94,0,0,1-1.41-.42,1.35,1.35,0,0,1-.59-.49,1.26,1.26,0,0,1-.2-.7,1.28,1.28,0,0,1,.17-.64,1.45,1.45,0,0,1,.45-.49,1.94,1.94,0,0,1,.59-.26,2.93,2.93,0,0,1,.8-.1,3.3,3.3,0,0,1,1.13.18,1.54,1.54,0,0,1,.71.48,1.81,1.81,0,0,1,.32.8l-.9.12a.93.93,0,0,0-.36-.62,1.35,1.35,0,0,0-.83-.22,1.57,1.57,0,0,0-.91.2.58.58,0,0,0-.27.47.47.47,0,0,0,.11.31.82.82,0,0,0,.35.23l.81.22a11.73,11.73,0,0,1,1.37.41,1.38,1.38,0,0,1,.61.46,1.25,1.25,0,0,1,.22.75,1.43,1.43,0,0,1-.27.83,1.72,1.72,0,0,1-.78.6,3,3,0,0,1-1.15.21,2.65,2.65,0,0,1-1.62-.42A1.93,1.93,0,0,1,111.71,61.39Z"/><path d="M120.5,61.39l.91-.14a1.2,1.2,0,0,0,.43.8,1.55,1.55,0,0,0,1,.28,1.49,1.49,0,0,0,.94-.25.73.73,0,0,0,.31-.58.53.53,0,0,0-.27-.47,4.17,4.17,0,0,0-.94-.3,8.93,8.93,0,0,1-1.41-.42,1.35,1.35,0,0,1-.6-.49,1.26,1.26,0,0,1-.2-.7,1.28,1.28,0,0,1,.17-.64,1.45,1.45,0,0,1,.45-.49,2,2,0,0,1,.59-.26,2.93,2.93,0,0,1,.8-.1,3.29,3.29,0,0,1,1.13.18,1.53,1.53,0,0,1,.72.48,1.82,1.82,0,0,1,.32.8l-.9.12a.93.93,0,0,0-.36-.62,1.35,1.35,0,0,0-.83-.22,1.57,1.57,0,0,0-.91.2.58.58,0,0,0-.27.47.47.47,0,0,0,.11.31.82.82,0,0,0,.35.23l.82.22a11.68,11.68,0,0,1,1.37.41,1.38,1.38,0,0,1,.61.46,1.24,1.24,0,0,1,.22.75,1.43,1.43,0,0,1-.27.83,1.72,1.72,0,0,1-.78.6,3,3,0,0,1-1.15.21,2.65,2.65,0,0,1-1.62-.42A1.93,1.93,0,0,1,120.5,61.39Z"/><path d="M130,62.94v-.76a2,2,0,0,1-1.73.88,2.29,2.29,0,0,1-.9-.18,1.47,1.47,0,0,1-.62-.44,1.62,1.62,0,0,1-.28-.65,4.23,4.23,0,0,1-.06-.82V57.75h.92v2.88a4.92,4.92,0,0,0,.06.93.92.92,0,0,0,.37.54,1.18,1.18,0,0,0,.7.2,1.57,1.57,0,0,0,.78-.2,1.15,1.15,0,0,0,.52-.55,2.66,2.66,0,0,0,.15-1V57.75h.92v5.19Z"/><path d="M132.59,64.92V57.75h.84v.67a2,2,0,0,1,.67-.59,1.92,1.92,0,0,1,.91-.2,2.23,2.23,0,0,1,1.23.34,2.12,2.12,0,0,1,.8,1,3.58,3.58,0,0,1,0,2.8,2.18,2.18,0,0,1-.87,1,2.32,2.32,0,0,1-1.2.34,1.81,1.81,0,0,1-.83-.19,1.85,1.85,0,0,1-.6-.47v2.52Zm.84-4.55a2.18,2.18,0,0,0,.43,1.48,1.33,1.33,0,0,0,1,.48,1.36,1.36,0,0,0,1.05-.5,2.27,2.27,0,0,0,.44-1.54,2.21,2.21,0,0,0-.43-1.48,1.31,1.31,0,0,0-1-.49,1.35,1.35,0,0,0-1,.52A2.27,2.27,0,0,0,133.43,60.37Z"/><path d="M138.75,64.92V57.75h.84v.67a2,2,0,0,1,.67-.59,1.92,1.92,0,0,1,.91-.2,2.23,2.23,0,0,1,1.23.34,2.12,2.12,0,0,1,.8,1,3.38,3.38,0,0,1,.27,1.36,3.32,3.32,0,0,1-.3,1.43,2.18,2.18,0,0,1-.87,1,2.32,2.32,0,0,1-1.2.34,1.82,1.82,0,0,1-.83-.19,1.85,1.85,0,0,1-.6-.47v2.52Zm.83-4.55a2.18,2.18,0,0,0,.43,1.48,1.33,1.33,0,0,0,1,.48,1.36,1.36,0,0,0,1.05-.5,2.27,2.27,0,0,0,.44-1.54,2.21,2.21,0,0,0-.43-1.48,1.31,1.31,0,0,0-1-.49,1.35,1.35,0,0,0-1,.52A2.27,2.27,0,0,0,139.58,60.37Z"/><path d="M144.88,62.94V55.78h.92v7.16Z"/><path d="M147.51,64.93l-.1-.83a2.14,2.14,0,0,0,.53.08,1.06,1.06,0,0,0,.49-.1.83.83,0,0,0,.3-.27,4.18,4.18,0,0,0,.28-.65l.08-.21L147,57.75h1l1.13,3q.22.57.39,1.2a11.41,11.41,0,0,1,.38-1.18l1.16-3H152L149.94,63a10.17,10.17,0,0,1-.52,1.18,1.77,1.77,0,0,1-.56.64,1.38,1.38,0,0,1-.76.2A1.93,1.93,0,0,1,147.51,64.93Z"/><path d="M152.59,62.94v-1h1.05v1Z"/><path d="M37.61,84.94V77.78h2.84a7.26,7.26,0,0,1,1.14.07,2.33,2.33,0,0,1,.93.33,1.79,1.79,0,0,1,.6.69,2.11,2.11,0,0,1,.23,1,2.14,2.14,0,0,1-.61,1.55,3,3,0,0,1-2.2.63H38.6v2.91Zm1-3.75h1.94a2.14,2.14,0,0,0,1.37-.34,1.19,1.19,0,0,0,.4-1,1.25,1.25,0,0,0-.24-.77,1.11,1.11,0,0,0-.63-.42,4.5,4.5,0,0,0-.93-.06H38.6Z"/><path d="M44.8,84.94V79.75h.83v.79a2.16,2.16,0,0,1,.59-.73,1.06,1.06,0,0,1,.59-.18,1.87,1.87,0,0,1,.95.28l-.32.82a1.37,1.37,0,0,0-.68-.19.91.91,0,0,0-.54.17.93.93,0,0,0-.34.48,3.27,3.27,0,0,0-.15,1v2.71Z"/><path d="M52.35,83.27l1,.11a2.21,2.21,0,0,1-.84,1.23,2.6,2.6,0,0,1-1.56.44,2.55,2.55,0,0,1-1.89-.7,2.66,2.66,0,0,1-.7-2,2.78,2.78,0,0,1,.71-2,2.46,2.46,0,0,1,1.84-.72,2.39,2.39,0,0,1,1.78.71,2.73,2.73,0,0,1,.69,2c0,.05,0,.13,0,.23H49.26a1.94,1.94,0,0,0,.51,1.31,1.55,1.55,0,0,0,1.14.45,1.46,1.46,0,0,0,.87-.25A1.69,1.69,0,0,0,52.35,83.27Zm-3-1.42h3a1.71,1.71,0,0,0-.35-1,1.45,1.45,0,0,0-1.14-.51,1.51,1.51,0,0,0-1.07.41A1.56,1.56,0,0,0,49.32,81.85Z"/><path d="M54.4,83.39l.91-.14a1.2,1.2,0,0,0,.43.8,1.54,1.54,0,0,0,1,.28,1.5,1.5,0,0,0,.94-.25.73.73,0,0,0,.31-.58.53.53,0,0,0-.27-.47,4.18,4.18,0,0,0-.94-.3,8.84,8.84,0,0,1-1.41-.42,1.35,1.35,0,0,1-.59-.49,1.26,1.26,0,0,1-.2-.7,1.28,1.28,0,0,1,.17-.64,1.46,1.46,0,0,1,.45-.49,2,2,0,0,1,.59-.26,2.91,2.91,0,0,1,.8-.11,3.3,3.3,0,0,1,1.13.18,1.54,1.54,0,0,1,.72.48,1.81,1.81,0,0,1,.32.8l-.9.12a.93.93,0,0,0-.36-.62,1.35,1.35,0,0,0-.83-.22,1.56,1.56,0,0,0-.91.2.57.57,0,0,0-.27.47.47.47,0,0,0,.11.31.81.81,0,0,0,.35.23l.81.22a11.83,11.83,0,0,1,1.37.41,1.38,1.38,0,0,1,.61.46,1.25,1.25,0,0,1,.22.75,1.43,1.43,0,0,1-.27.83,1.72,1.72,0,0,1-.78.6,3,3,0,0,1-1.15.21,2.65,2.65,0,0,1-1.62-.42A1.93,1.93,0,0,1,54.4,83.39Z"/><path d="M60,83.39l.91-.14a1.2,1.2,0,0,0,.43.8,1.54,1.54,0,0,0,1,.28,1.5,1.5,0,0,0,.94-.25.73.73,0,0,0,.31-.58.53.53,0,0,0-.27-.47,4.18,4.18,0,0,0-.94-.3,8.84,8.84,0,0,1-1.41-.42,1.35,1.35,0,0,1-.59-.49,1.26,1.26,0,0,1-.2-.7,1.28,1.28,0,0,1,.17-.64,1.46,1.46,0,0,1,.45-.49,2,2,0,0,1,.59-.26,2.91,2.91,0,0,1,.8-.11,3.3,3.3,0,0,1,1.13.18,1.54,1.54,0,0,1,.72.48,1.81,1.81,0,0,1,.32.8l-.9.12a.93.93,0,0,0-.36-.62,1.35,1.35,0,0,0-.83-.22,1.56,1.56,0,0,0-.91.2A.57.57,0,0,0,61,81a.47.47,0,0,0,.11.31.81.81,0,0,0,.35.23l.81.22a11.83,11.83,0,0,1,1.37.41,1.38,1.38,0,0,1,.61.46,1.25,1.25,0,0,1,.22.75,1.43,1.43,0,0,1-.27.83,1.72,1.72,0,0,1-.78.6,3,3,0,0,1-1.15.21,2.65,2.65,0,0,1-1.62-.42A1.93,1.93,0,0,1,60,83.39Z"/><path d="M71.15,84.15l.13.78a3.54,3.54,0,0,1-.7.08,1.65,1.65,0,0,1-.78-.15.87.87,0,0,1-.39-.4,3,3,0,0,1-.11-1v-3h-.68v-.68h.68V78.47l.92-.53v1.81h.93v.68h-.93v3a1.47,1.47,0,0,0,0,.48.38.38,0,0,0,.16.17.64.64,0,0,0,.31.06Z"/><path d="M72.37,84.94V77.78h.92v2.57a2.11,2.11,0,0,1,1.63-.71,2.29,2.29,0,0,1,1.05.23,1.36,1.36,0,0,1,.64.63,2.76,2.76,0,0,1,.19,1.16v3.29h-.92V81.65a1.32,1.32,0,0,0-.3-1,1.15,1.15,0,0,0-.85-.3,1.54,1.54,0,0,0-.77.2,1.17,1.17,0,0,0-.52.55,2.41,2.41,0,0,0-.15,1v2.84Z"/><path d="M82.25,83.27l1,.11a2.21,2.21,0,0,1-.84,1.23,2.6,2.6,0,0,1-1.56.44,2.55,2.55,0,0,1-1.89-.7,2.66,2.66,0,0,1-.7-2,2.78,2.78,0,0,1,.71-2,2.46,2.46,0,0,1,1.84-.72,2.39,2.39,0,0,1,1.78.71,2.73,2.73,0,0,1,.69,2c0,.05,0,.13,0,.23H79.17a1.94,1.94,0,0,0,.51,1.31,1.55,1.55,0,0,0,1.14.45,1.46,1.46,0,0,0,.87-.25A1.69,1.69,0,0,0,82.25,83.27Zm-3-1.42h3a1.71,1.71,0,0,0-.35-1,1.45,1.45,0,0,0-1.14-.51,1.51,1.51,0,0,0-1.07.41A1.56,1.56,0,0,0,79.22,81.85Z"/><path d="M86.62,84.94l2.89-7.16h1.07l3.08,7.16H92.52l-.88-2.17H88.5l-.83,2.17ZM88.79,82h2.55l-.78-2q-.36-.9-.53-1.48a8.73,8.73,0,0,1-.41,1.37Z"/><path d="M98.18,84.94v-.65a1.72,1.72,0,0,1-1.52.77,2.21,2.21,0,0,1-1.2-.34,2.27,2.27,0,0,1-.85-1,3.17,3.17,0,0,1-.3-1.41,3.52,3.52,0,0,1,.27-1.41,2.06,2.06,0,0,1,.81-1,2.26,2.26,0,0,1,1.22-.34,1.89,1.89,0,0,1,.88.2,1.82,1.82,0,0,1,.63.51V77.78H99v7.16Zm-2.92-2.59a2.18,2.18,0,0,0,.44,1.49,1.36,1.36,0,0,0,1,.49,1.33,1.33,0,0,0,1-.47,2.1,2.1,0,0,0,.42-1.44,2.35,2.35,0,0,0-.43-1.56,1.35,1.35,0,0,0-1.06-.5,1.3,1.3,0,0,0-1,.48A2.27,2.27,0,0,0,95.26,82.35Z"/><path d="M102.31,84.94l-2.07-5.19h1l1.17,3.11q.19.5.35,1,.12-.41.34-1l1.21-3.16h.95l-2.06,5.19Z"/><path d="M109.92,84.3a3.49,3.49,0,0,1-1,.59,3,3,0,0,1-1,.17,2,2,0,0,1-1.38-.42,1.42,1.42,0,0,1-.3-1.76,1.46,1.46,0,0,1,.48-.51,2.28,2.28,0,0,1,.66-.29,6.92,6.92,0,0,1,.82-.13,8.75,8.75,0,0,0,1.65-.3c0-.12,0-.2,0-.23a1,1,0,0,0-.26-.76,1.6,1.6,0,0,0-1.05-.3,1.7,1.7,0,0,0-1,.22,1.32,1.32,0,0,0-.46.77l-.9-.12a2.08,2.08,0,0,1,.41-.89,1.78,1.78,0,0,1,.82-.52,3.8,3.8,0,0,1,1.24-.18,3.44,3.44,0,0,1,1.13.16,1.51,1.51,0,0,1,.64.39,1.35,1.35,0,0,1,.29.6,4.71,4.71,0,0,1,0,.81v1.17a11.91,11.91,0,0,0,.06,1.55,1.9,1.9,0,0,0,.23.62h-1A1.79,1.79,0,0,1,109.92,84.3Zm-.08-2a7.12,7.12,0,0,1-1.51.33,3.59,3.59,0,0,0-.81.18.79.79,0,0,0-.36.29.72.72,0,0,0-.13.42.73.73,0,0,0,.28.59,1.24,1.24,0,0,0,.82.23,2,2,0,0,0,.95-.22,1.4,1.4,0,0,0,.61-.61,2,2,0,0,0,.15-.88Z"/><path d="M112.52,84.94V79.75h.83v.74a2,2,0,0,1,1.73-.86,2.38,2.38,0,0,1,.91.17,1.42,1.42,0,0,1,.62.44,1.65,1.65,0,0,1,.29.65,4.82,4.82,0,0,1,.05.86v3.19H116V81.78a2.25,2.25,0,0,0-.11-.8.85.85,0,0,0-.38-.42,1.26,1.26,0,0,0-.64-.16,1.54,1.54,0,0,0-1,.36,1.7,1.7,0,0,0-.43,1.35v2.83Z"/><path d="M122.23,83l.91.11a2.21,2.21,0,0,1-.76,1.4,2.29,2.29,0,0,1-1.5.5,2.4,2.4,0,0,1-1.8-.7,2.74,2.74,0,0,1-.68-2,3.49,3.49,0,0,1,.29-1.47,2,2,0,0,1,.89-.94,2.74,2.74,0,0,1,1.3-.32,2.33,2.33,0,0,1,1.45.43,1.94,1.94,0,0,1,.72,1.21l-.9.13a1.4,1.4,0,0,0-.45-.79,1.21,1.21,0,0,0-.79-.26,1.46,1.46,0,0,0-1.13.48,2.19,2.19,0,0,0-.44,1.51,2.25,2.25,0,0,0,.42,1.52,1.39,1.39,0,0,0,1.1.47,1.33,1.33,0,0,0,.91-.32A1.54,1.54,0,0,0,122.23,83Z"/><path d="M128,83.27l1,.11a2.21,2.21,0,0,1-.84,1.23,2.6,2.6,0,0,1-1.56.44,2.56,2.56,0,0,1-1.89-.7,2.66,2.66,0,0,1-.7-2,2.78,2.78,0,0,1,.71-2,2.46,2.46,0,0,1,1.84-.72,2.39,2.39,0,0,1,1.78.71,2.73,2.73,0,0,1,.69,2q0,.08,0,.23h-4.06a1.94,1.94,0,0,0,.51,1.31,1.55,1.55,0,0,0,1.14.45,1.46,1.46,0,0,0,.87-.25A1.69,1.69,0,0,0,128,83.27Zm-3-1.42h3a1.71,1.71,0,0,0-.35-1,1.45,1.45,0,0,0-1.14-.51,1.5,1.5,0,0,0-1.07.41A1.56,1.56,0,0,0,124.94,81.85Z"/><path d="M133.93,84.94v-.65a1.71,1.71,0,0,1-1.52.77,2.2,2.2,0,0,1-1.2-.34,2.27,2.27,0,0,1-.85-1,3.16,3.16,0,0,1-.3-1.41,3.52,3.52,0,0,1,.27-1.41,2.06,2.06,0,0,1,.82-1,2.26,2.26,0,0,1,1.22-.34,1.89,1.89,0,0,1,.88.2,1.82,1.82,0,0,1,.63.51V77.78h.92v7.16ZM131,82.35a2.19,2.19,0,0,0,.44,1.49,1.36,1.36,0,0,0,1,.49,1.33,1.33,0,0,0,1-.47,2.1,2.1,0,0,0,.42-1.44,2.35,2.35,0,0,0-.43-1.56,1.35,1.35,0,0,0-1.06-.5,1.3,1.3,0,0,0-1,.48A2.27,2.27,0,0,0,131,82.35Z"/><path d="M140.63,84.94h-.86V77.78h.92v2.55a1.86,1.86,0,0,1,1.49-.7,2.37,2.37,0,0,1,1,.19,1.92,1.92,0,0,1,.74.54,2.6,2.6,0,0,1,.46.84,3.34,3.34,0,0,1,.16,1.05,2.87,2.87,0,0,1-.69,2.06,2.21,2.21,0,0,1-1.66.73,1.76,1.76,0,0,1-1.51-.77Zm0-2.63a2.57,2.57,0,0,0,.27,1.35,1.34,1.34,0,0,0,1.18.68,1.35,1.35,0,0,0,1-.5,2.2,2.2,0,0,0,.44-1.49,2.23,2.23,0,0,0-.42-1.5,1.31,1.31,0,0,0-1-.48,1.35,1.35,0,0,0-1,.5A2.12,2.12,0,0,0,140.62,82.3Z"/><path d="M149.51,84.94v-.76a2,2,0,0,1-1.73.88,2.3,2.3,0,0,1-.9-.18,1.48,1.48,0,0,1-.62-.44,1.61,1.61,0,0,1-.29-.65,4.28,4.28,0,0,1-.06-.82V79.75h.92v2.88a4.87,4.87,0,0,0,.06.93.91.91,0,0,0,.37.54,1.19,1.19,0,0,0,.7.2,1.58,1.58,0,0,0,.78-.2,1.13,1.13,0,0,0,.51-.55,2.63,2.63,0,0,0,.15-1V79.75h.92v5.19Z"/><path d="M154.11,84.15l.13.78a3.54,3.54,0,0,1-.7.08,1.64,1.64,0,0,1-.78-.15.87.87,0,0,1-.39-.4,3,3,0,0,1-.11-1v-3h-.68v-.68h.68V78.47l.92-.53v1.81h.93v.68h-.93v3a1.5,1.5,0,0,0,0,.48.38.38,0,0,0,.16.17.64.64,0,0,0,.31.06Z"/><path d="M157.34,84.15l.13.78a3.54,3.54,0,0,1-.7.08,1.64,1.64,0,0,1-.78-.15.87.87,0,0,1-.39-.4,3,3,0,0,1-.11-1v-3h-.68v-.68h.68V78.47l.92-.53v1.81h.93v.68h-.93v3a1.5,1.5,0,0,0,0,.48.38.38,0,0,0,.16.17.64.64,0,0,0,.31.06Z"/><path d="M158.21,82.34a2.43,2.43,0,0,1,2.55-2.71,2.51,2.51,0,0,1,1.84.7,2.59,2.59,0,0,1,.71,1.94,3.28,3.28,0,0,1-.32,1.58,2.18,2.18,0,0,1-.92.89,2.78,2.78,0,0,1-1.31.32,2.51,2.51,0,0,1-1.85-.7A2.71,2.71,0,0,1,158.21,82.34Zm.95,0a2.13,2.13,0,0,0,.46,1.49,1.57,1.57,0,0,0,2.29,0,2.18,2.18,0,0,0,.46-1.52,2.07,2.07,0,0,0-.46-1.46,1.57,1.57,0,0,0-2.29,0A2.13,2.13,0,0,0,159.16,82.34Z"/><path d="M164.71,84.94V79.75h.83v.74a2,2,0,0,1,1.73-.86,2.38,2.38,0,0,1,.91.17,1.42,1.42,0,0,1,.62.44,1.65,1.65,0,0,1,.29.65,4.82,4.82,0,0,1,.05.86v3.19h-.92V81.78a2.25,2.25,0,0,0-.11-.8.85.85,0,0,0-.38-.42,1.26,1.26,0,0,0-.64-.16,1.54,1.54,0,0,0-1,.36,1.7,1.7,0,0,0-.43,1.35v2.83Z"/><path d="M174.32,84.94v-4.5h-.82v-.68h.82V79.2a2.31,2.31,0,0,1,.1-.78,1.13,1.13,0,0,1,.47-.55,1.76,1.76,0,0,1,.94-.21,4.73,4.73,0,0,1,.86.09l-.14.77a3.28,3.28,0,0,0-.54,0,.83.83,0,0,0-.59.17.89.89,0,0,0-.17.64v.48h1.06v.68h-1.06v4.5Z"/><path d="M177,82.34a2.43,2.43,0,0,1,2.55-2.71,2.51,2.51,0,0,1,1.84.7,2.59,2.59,0,0,1,.71,1.94,3.29,3.29,0,0,1-.32,1.58,2.19,2.19,0,0,1-.92.89,2.78,2.78,0,0,1-1.32.32,2.51,2.51,0,0,1-1.85-.7A2.71,2.71,0,0,1,177,82.34Zm.95,0a2.14,2.14,0,0,0,.46,1.49,1.57,1.57,0,0,0,2.29,0,2.19,2.19,0,0,0,.46-1.52,2.07,2.07,0,0,0-.46-1.46,1.49,1.49,0,0,0-1.14-.5,1.5,1.5,0,0,0-1.15.49A2.13,2.13,0,0,0,177.94,82.34Z"/><path d="M183.47,84.94V79.75h.83v.79a2.15,2.15,0,0,1,.59-.73,1.06,1.06,0,0,1,.59-.18,1.86,1.86,0,0,1,.95.28l-.32.82a1.37,1.37,0,0,0-.68-.19.91.91,0,0,0-.54.17.93.93,0,0,0-.34.48,3.27,3.27,0,0,0-.15,1v2.71Z"/><path d="M37.49,95.94V90.75h.83v.73a1.9,1.9,0,0,1,.68-.61,2,2,0,0,1,1-.23,1.86,1.86,0,0,1,1,.24,1.29,1.29,0,0,1,.55.67,2,2,0,0,1,1.68-.91,1.7,1.7,0,0,1,1.25.43,1.77,1.77,0,0,1,.44,1.32v3.56h-.92V92.67a2.31,2.31,0,0,0-.09-.76.74.74,0,0,0-.33-.37,1.05,1.05,0,0,0-.55-.14,1.32,1.32,0,0,0-1,.36,1.56,1.56,0,0,0-.38,1.17v3h-.92V92.57a1.43,1.43,0,0,0-.23-.88.87.87,0,0,0-.74-.29,1.39,1.39,0,0,0-.72.2,1.12,1.12,0,0,0-.48.57,3.07,3.07,0,0,0-.15,1.08v2.69Z"/><path d="M46.21,93.34a2.43,2.43,0,0,1,2.55-2.71,2.51,2.51,0,0,1,1.84.7,2.59,2.59,0,0,1,.71,1.94A3.29,3.29,0,0,1,51,94.84a2.19,2.19,0,0,1-.92.89,2.78,2.78,0,0,1-1.31.32,2.51,2.51,0,0,1-1.85-.7A2.71,2.71,0,0,1,46.21,93.34Zm.95,0a2.14,2.14,0,0,0,.46,1.49,1.57,1.57,0,0,0,2.29,0,2.19,2.19,0,0,0,.46-1.52,2.07,2.07,0,0,0-.46-1.46,1.57,1.57,0,0,0-2.29,0A2.13,2.13,0,0,0,47.15,93.34Z"/><path d="M52.69,95.94V90.75h.83v.79a2.16,2.16,0,0,1,.59-.73,1.06,1.06,0,0,1,.59-.18,1.87,1.87,0,0,1,.95.28l-.32.82a1.37,1.37,0,0,0-.68-.19.91.91,0,0,0-.54.17.93.93,0,0,0-.34.48,3.27,3.27,0,0,0-.15,1v2.71Z"/><path d="M60.24,94.27l1,.11a2.21,2.21,0,0,1-.84,1.23,2.6,2.6,0,0,1-1.56.44,2.55,2.55,0,0,1-1.89-.7,2.66,2.66,0,0,1-.7-2,2.78,2.78,0,0,1,.71-2,2.46,2.46,0,0,1,1.84-.72,2.39,2.39,0,0,1,1.78.71,2.73,2.73,0,0,1,.69,2c0,.05,0,.13,0,.23H57.16a1.94,1.94,0,0,0,.51,1.31,1.55,1.55,0,0,0,1.14.45,1.46,1.46,0,0,0,.87-.25A1.69,1.69,0,0,0,60.24,94.27Zm-3-1.42h3a1.71,1.71,0,0,0-.35-1,1.45,1.45,0,0,0-1.14-.51,1.51,1.51,0,0,0-1.07.41A1.56,1.56,0,0,0,57.21,92.85Z"/><path d="M65.91,89.79v-1h.92v1Zm0,6.15V90.75h.92v5.19Z"/><path d="M68.55,95.94V90.75h.83v.74a2,2,0,0,1,1.73-.86,2.37,2.37,0,0,1,.9.17,1.42,1.42,0,0,1,.62.44,1.65,1.65,0,0,1,.29.65,4.81,4.81,0,0,1,.05.86v3.19h-.92V92.78a2.25,2.25,0,0,0-.11-.8.86.86,0,0,0-.38-.42,1.26,1.26,0,0,0-.64-.16,1.54,1.54,0,0,0-1,.36,1.7,1.7,0,0,0-.43,1.35v2.83Z"/><path d="M74.93,95.94v-4.5h-.81v-.68h.81V90.2a2.32,2.32,0,0,1,.1-.78,1.14,1.14,0,0,1,.47-.55,1.76,1.76,0,0,1,.94-.21,4.73,4.73,0,0,1,.86.09l-.14.77a3.28,3.28,0,0,0-.54,0,.83.83,0,0,0-.59.17.89.89,0,0,0-.17.64v.48H76.9v.68H75.84v4.5Z"/><path d="M77.59,93.34a2.43,2.43,0,0,1,2.55-2.71,2.51,2.51,0,0,1,1.84.7,2.59,2.59,0,0,1,.71,1.94,3.29,3.29,0,0,1-.32,1.58,2.19,2.19,0,0,1-.92.89,2.78,2.78,0,0,1-1.31.32,2.51,2.51,0,0,1-1.85-.7A2.71,2.71,0,0,1,77.59,93.34Zm.95,0A2.14,2.14,0,0,0,79,94.83a1.57,1.57,0,0,0,2.29,0,2.19,2.19,0,0,0,.46-1.52,2.07,2.07,0,0,0-.46-1.46,1.57,1.57,0,0,0-2.29,0A2.13,2.13,0,0,0,78.54,93.34Z"/><path d="M84.08,95.94V90.75h.83v.79a2.16,2.16,0,0,1,.59-.73,1.06,1.06,0,0,1,.59-.18,1.87,1.87,0,0,1,.95.28l-.32.82a1.37,1.37,0,0,0-.68-.19.91.91,0,0,0-.54.17.93.93,0,0,0-.34.48,3.27,3.27,0,0,0-.15,1v2.71Z"/><path d="M87.9,95.94V90.75h.83v.73a1.9,1.9,0,0,1,.68-.61,2,2,0,0,1,1-.23,1.86,1.86,0,0,1,1,.24,1.29,1.29,0,0,1,.55.67,2,2,0,0,1,1.68-.91,1.7,1.7,0,0,1,1.25.43,1.77,1.77,0,0,1,.44,1.32v3.56h-.92V92.67a2.31,2.31,0,0,0-.09-.76.74.74,0,0,0-.33-.37,1.05,1.05,0,0,0-.55-.14,1.32,1.32,0,0,0-1,.36,1.56,1.56,0,0,0-.38,1.17v3h-.92V92.57a1.43,1.43,0,0,0-.23-.88.87.87,0,0,0-.74-.29,1.39,1.39,0,0,0-.72.2,1.12,1.12,0,0,0-.48.57,3.07,3.07,0,0,0-.15,1.08v2.69Z"/><path d="M100.52,95.3a3.49,3.49,0,0,1-1,.59,3,3,0,0,1-1,.17,2,2,0,0,1-1.38-.42,1.42,1.42,0,0,1-.3-1.76,1.46,1.46,0,0,1,.48-.51,2.28,2.28,0,0,1,.66-.29,6.92,6.92,0,0,1,.82-.13,8.75,8.75,0,0,0,1.65-.3c0-.12,0-.2,0-.23a1,1,0,0,0-.26-.76,1.6,1.6,0,0,0-1.05-.3,1.7,1.7,0,0,0-1,.22,1.32,1.32,0,0,0-.46.77l-.9-.12a2.08,2.08,0,0,1,.41-.89,1.78,1.78,0,0,1,.82-.52,3.8,3.8,0,0,1,1.24-.18,3.44,3.44,0,0,1,1.13.16,1.51,1.51,0,0,1,.64.39,1.35,1.35,0,0,1,.29.6,4.71,4.71,0,0,1,0,.81v1.17a11.91,11.91,0,0,0,.06,1.55,1.9,1.9,0,0,0,.23.62h-1A1.79,1.79,0,0,1,100.52,95.3Zm-.08-2a7.12,7.12,0,0,1-1.51.33,3.59,3.59,0,0,0-.81.18.79.79,0,0,0-.36.29.72.72,0,0,0-.13.42.73.73,0,0,0,.28.59,1.24,1.24,0,0,0,.82.23,2,2,0,0,0,.95-.22,1.4,1.4,0,0,0,.61-.61,2,2,0,0,0,.15-.88Z"/><path d="M105.13,95.15l.13.78a3.54,3.54,0,0,1-.7.08,1.65,1.65,0,0,1-.78-.15.87.87,0,0,1-.39-.4,3,3,0,0,1-.11-1v-3h-.68v-.68h.68V89.47l.92-.53v1.81h.93v.68h-.93v3a1.47,1.47,0,0,0,0,.48.38.38,0,0,0,.16.17.64.64,0,0,0,.31.06Z"/><path d="M106.36,89.79v-1h.92v1Zm0,6.15V90.75h.92v5.19Z"/><path d="M108.66,93.34a2.43,2.43,0,0,1,2.55-2.71,2.51,2.51,0,0,1,1.84.7,2.59,2.59,0,0,1,.71,1.94,3.29,3.29,0,0,1-.32,1.58,2.19,2.19,0,0,1-.92.89,2.78,2.78,0,0,1-1.31.32,2.51,2.51,0,0,1-1.85-.7A2.71,2.71,0,0,1,108.66,93.34Zm.95,0a2.14,2.14,0,0,0,.46,1.49,1.57,1.57,0,0,0,2.29,0,2.19,2.19,0,0,0,.46-1.52,2.07,2.07,0,0,0-.46-1.46,1.57,1.57,0,0,0-2.29,0A2.13,2.13,0,0,0,109.61,93.34Z"/><path d="M115.16,95.94V90.75H116v.74a2,2,0,0,1,1.73-.86,2.38,2.38,0,0,1,.91.17,1.42,1.42,0,0,1,.62.44,1.65,1.65,0,0,1,.29.65,4.92,4.92,0,0,1,.05.86v3.19h-.92V92.78a2.25,2.25,0,0,0-.11-.8.85.85,0,0,0-.38-.42,1.26,1.26,0,0,0-.64-.16,1.54,1.54,0,0,0-1,.36,1.7,1.7,0,0,0-.43,1.35v2.83Z"/><rect x="16.28" y="54.69" width="5.74" height="18.4" style="fill:#fff"/><circle cx="19.23" cy="78.89" r="3.68" style="fill:#fff"/></svg>