<svg id="Layer_1" data-name="Layer 1" xmlns="http://www.w3.org/2000/svg" viewBox="0 0 225.68 130.34"><title>UIM_service_contact_information_menu</title><rect x="0.5" y="0.5" width="224.67" height="129.31" style="fill:none;stroke:#000"/><rect x="1.37" y="0.64" width="223.81" height="14.46" style="stroke:#000"/><rect x="0.49" y="101.87" width="224.67" height="27.94" style="fill:none"/><path d="M71.41,8.49l1,.24a3.17,3.17,0,0,1-1.13,1.78,3.2,3.2,0,0,1-2,.61,3.71,3.71,0,0,1-2-.47,3,3,0,0,1-1.16-1.36,4.67,4.67,0,0,1-.4-1.92,4,4,0,0,1,.45-2,3,3,0,0,1,1.28-1.26,3.88,3.88,0,0,1,1.82-.43,3.19,3.19,0,0,1,1.9.55A2.84,2.84,0,0,1,72.28,5.8L71.3,6a2.21,2.21,0,0,0-.76-1.14,2.09,2.09,0,0,0-1.25-.36,2.52,2.52,0,0,0-1.45.4A2.1,2.1,0,0,0,67,6a4.09,4.09,0,0,0-.24,1.37A4.19,4.19,0,0,0,67.07,9a2,2,0,0,0,.87,1,2.53,2.53,0,0,0,1.28.34,2.21,2.21,0,0,0,1.42-.46A2.33,2.33,0,0,0,71.41,8.49Z" style="fill:#fff"/><path d="M73.43,8.41a2.61,2.61,0,0,1,.84-2.13A2.61,2.61,0,0,1,76,5.7a2.51,2.51,0,0,1,1.84.7,2.59,2.59,0,0,1,.71,1.94,3.29,3.29,0,0,1-.32,1.57,2.18,2.18,0,0,1-.92.89,2.78,2.78,0,0,1-1.31.32,2.51,2.51,0,0,1-1.85-.7A2.71,2.71,0,0,1,73.43,8.41Zm.95,0a2.14,2.14,0,0,0,.46,1.49,1.57,1.57,0,0,0,2.29,0,2.19,2.19,0,0,0,.46-1.52,2.07,2.07,0,0,0-.46-1.46,1.57,1.57,0,0,0-2.29,0A2.13,2.13,0,0,0,74.38,8.41Z" style="fill:#fff"/><path d="M79.88,11V5.81h.83v.74a2,2,0,0,1,1.73-.85,2.37,2.37,0,0,1,.9.17,1.42,1.42,0,0,1,.62.44,1.65,1.65,0,0,1,.29.65,4.8,4.8,0,0,1,.05.85V11h-.92V7.84a2.25,2.25,0,0,0-.11-.8.86.86,0,0,0-.38-.42,1.26,1.26,0,0,0-.64-.16,1.54,1.54,0,0,0-1,.36,1.71,1.71,0,0,0-.43,1.35V11Z" style="fill:#fff"/><path d="M88,10.21l.13.78a3.57,3.57,0,0,1-.7.08,1.64,1.64,0,0,1-.78-.15.87.87,0,0,1-.39-.4,3,3,0,0,1-.11-1v-3h-.68V5.81h.68V4.53L87.07,4V5.81H88V6.5h-.93v3a1.47,1.47,0,0,0,0,.48.37.37,0,0,0,.16.17.64.64,0,0,0,.31.06Z" style="fill:#fff"/><path d="M92.71,10.36a3.46,3.46,0,0,1-1,.59,3,3,0,0,1-1,.17,2,2,0,0,1-1.38-.42,1.35,1.35,0,0,1-.48-1.07,1.36,1.36,0,0,1,.18-.7,1.46,1.46,0,0,1,.48-.51,2.3,2.3,0,0,1,.66-.29A7,7,0,0,1,91,8a8.79,8.79,0,0,0,1.65-.3c0-.12,0-.2,0-.23a.94.94,0,0,0-.26-.76,1.6,1.6,0,0,0-1.05-.3,1.69,1.69,0,0,0-1,.22,1.32,1.32,0,0,0-.46.77L89,7.29a2.08,2.08,0,0,1,.41-.89,1.78,1.78,0,0,1,.82-.52,3.8,3.8,0,0,1,1.24-.18,3.42,3.42,0,0,1,1.13.16,1.5,1.5,0,0,1,.64.39,1.35,1.35,0,0,1,.29.6,4.71,4.71,0,0,1,0,.81V8.83a11.92,11.92,0,0,0,.06,1.55,1.9,1.9,0,0,0,.23.62h-1A1.79,1.79,0,0,1,92.71,10.36Zm-.08-2a7.06,7.06,0,0,1-1.51.33,3.65,3.65,0,0,0-.81.18.79.79,0,0,0-.36.29.72.72,0,0,0-.13.42.73.73,0,0,0,.28.59,1.24,1.24,0,0,0,.82.23,2,2,0,0,0,.95-.22,1.4,1.4,0,0,0,.61-.61,2,2,0,0,0,.15-.88Z" style="fill:#fff"/><path d="M98.81,9.1l.91.11a2.21,2.21,0,0,1-.76,1.4,2.29,2.29,0,0,1-1.5.51,2.4,2.4,0,0,1-1.8-.7,2.74,2.74,0,0,1-.68-2A3.47,3.47,0,0,1,95.27,7,2,2,0,0,1,96.16,6a2.75,2.75,0,0,1,1.3-.31,2.34,2.34,0,0,1,1.45.43,1.94,1.94,0,0,1,.72,1.21l-.9.13a1.4,1.4,0,0,0-.45-.79,1.21,1.21,0,0,0-.79-.26,1.46,1.46,0,0,0-1.13.48,2.18,2.18,0,0,0-.44,1.51,2.25,2.25,0,0,0,.42,1.52,1.4,1.4,0,0,0,1.1.47,1.33,1.33,0,0,0,.91-.32A1.54,1.54,0,0,0,98.81,9.1Z" style="fill:#fff"/><path d="M102.79,10.21l.13.78a3.57,3.57,0,0,1-.7.08,1.64,1.64,0,0,1-.78-.15.87.87,0,0,1-.39-.4,3,3,0,0,1-.11-1v-3h-.68V5.81h.68V4.53l.92-.53V5.81h.93V6.5h-.93v3a1.47,1.47,0,0,0,0,.48.37.37,0,0,0,.16.17.64.64,0,0,0,.31.06Z" style="fill:#fff"/><path d="M107.42,11V3.84h1V11Z" style="fill:#fff"/><path d="M110.31,11V5.81h.83v.74a2,2,0,0,1,1.73-.85,2.37,2.37,0,0,1,.9.17,1.42,1.42,0,0,1,.62.44,1.65,1.65,0,0,1,.29.65,4.81,4.81,0,0,1,.05.85V11h-.92V7.84a2.25,2.25,0,0,0-.11-.8.86.86,0,0,0-.38-.42,1.26,1.26,0,0,0-.64-.16,1.54,1.54,0,0,0-1,.36,1.71,1.71,0,0,0-.43,1.35V11Z" style="fill:#fff"/><path d="M116.64,11V6.5h-.81V5.81h.81V5.26a2.32,2.32,0,0,1,.1-.78,1.14,1.14,0,0,1,.47-.55,1.76,1.76,0,0,1,.94-.21,4.73,4.73,0,0,1,.86.09l-.14.77a3.23,3.23,0,0,0-.54,0,.83.83,0,0,0-.59.17.89.89,0,0,0-.17.64v.48h1.06V6.5h-1.06V11Z" style="fill:#fff"/><path d="M119.25,8.41a2.61,2.61,0,0,1,.84-2.13,2.61,2.61,0,0,1,1.71-.58,2.51,2.51,0,0,1,1.83.7,2.59,2.59,0,0,1,.71,1.94A3.29,3.29,0,0,1,124,9.91a2.18,2.18,0,0,1-.92.89,2.78,2.78,0,0,1-1.31.32,2.51,2.51,0,0,1-1.85-.7A2.71,2.71,0,0,1,119.25,8.41Zm.95,0a2.13,2.13,0,0,0,.46,1.49,1.57,1.57,0,0,0,2.29,0,2.18,2.18,0,0,0,.46-1.52,2.08,2.08,0,0,0-.46-1.46,1.57,1.57,0,0,0-2.29,0A2.12,2.12,0,0,0,120.2,8.41Z" style="fill:#fff"/><path d="M125.69,11V5.81h.83V6.6a2.15,2.15,0,0,1,.59-.73,1.06,1.06,0,0,1,.59-.18,1.86,1.86,0,0,1,.95.28l-.32.82a1.37,1.37,0,0,0-.68-.19.91.91,0,0,0-.54.17.93.93,0,0,0-.34.48,3.24,3.24,0,0,0-.15,1V11Z" style="fill:#fff"/><path d="M129.46,11V5.81h.83v.73a1.89,1.89,0,0,1,.68-.61,2,2,0,0,1,1-.23,1.86,1.86,0,0,1,1,.24,1.29,1.29,0,0,1,.55.67,2,2,0,0,1,1.68-.91,1.7,1.7,0,0,1,1.25.43,1.77,1.77,0,0,1,.44,1.32V11h-.92V7.73a2.33,2.33,0,0,0-.09-.76.75.75,0,0,0-.33-.37,1.06,1.06,0,0,0-.55-.14,1.32,1.32,0,0,0-1,.36A1.56,1.56,0,0,0,133.61,8v3h-.92V7.63a1.43,1.43,0,0,0-.23-.88.87.87,0,0,0-.74-.29,1.39,1.39,0,0,0-.72.2,1.12,1.12,0,0,0-.48.57,3.06,3.06,0,0,0-.15,1.08V11Z" style="fill:#fff"/><path d="M142,10.36a3.47,3.47,0,0,1-1,.59,3,3,0,0,1-1,.17,2,2,0,0,1-1.38-.42,1.35,1.35,0,0,1-.48-1.07,1.37,1.37,0,0,1,.18-.7,1.46,1.46,0,0,1,.48-.51,2.3,2.3,0,0,1,.66-.29A7,7,0,0,1,140.3,8a8.8,8.8,0,0,0,1.65-.3c0-.12,0-.2,0-.23a.94.94,0,0,0-.26-.76,1.6,1.6,0,0,0-1.05-.3,1.69,1.69,0,0,0-1,.22,1.32,1.32,0,0,0-.46.77l-.9-.12a2.07,2.07,0,0,1,.41-.89,1.79,1.79,0,0,1,.82-.52,3.8,3.8,0,0,1,1.24-.18,3.42,3.42,0,0,1,1.13.16,1.51,1.51,0,0,1,.64.39,1.35,1.35,0,0,1,.29.6,4.78,4.78,0,0,1,0,.81V8.83a11.92,11.92,0,0,0,.06,1.55,1.92,1.92,0,0,0,.23.62h-1A1.79,1.79,0,0,1,142,10.36Zm-.08-2a7,7,0,0,1-1.51.33,3.63,3.63,0,0,0-.8.18.79.79,0,0,0-.36.29.72.72,0,0,0-.13.42.73.73,0,0,0,.28.59,1.24,1.24,0,0,0,.82.23,2,2,0,0,0,.95-.22,1.4,1.4,0,0,0,.61-.61,2,2,0,0,0,.15-.88Z" style="fill:#fff"/><path d="M146.58,10.21l.13.78a3.57,3.57,0,0,1-.7.08,1.64,1.64,0,0,1-.78-.15.87.87,0,0,1-.39-.4,3,3,0,0,1-.11-1v-3h-.68V5.81h.68V4.53l.92-.53V5.81h.93V6.5h-.93v3a1.48,1.48,0,0,0,0,.48.37.37,0,0,0,.16.17.63.63,0,0,0,.31.06Z" style="fill:#fff"/><path d="M147.75,4.85v-1h.92v1Zm0,6.15V5.81h.92V11Z" style="fill:#fff"/><path d="M150,8.41a2.61,2.61,0,0,1,.84-2.13,2.61,2.61,0,0,1,1.71-.58,2.51,2.51,0,0,1,1.84.7,2.59,2.59,0,0,1,.71,1.94,3.29,3.29,0,0,1-.32,1.57,2.18,2.18,0,0,1-.92.89,2.78,2.78,0,0,1-1.32.32,2.51,2.51,0,0,1-1.85-.7A2.7,2.7,0,0,1,150,8.41Zm.95,0a2.14,2.14,0,0,0,.46,1.49,1.57,1.57,0,0,0,2.29,0,2.19,2.19,0,0,0,.46-1.52,2.07,2.07,0,0,0-.46-1.46,1.57,1.57,0,0,0-2.29,0A2.13,2.13,0,0,0,150.95,8.41Z" style="fill:#fff"/><path d="M156.44,11V5.81h.83v.74A2,2,0,0,1,159,5.7a2.37,2.37,0,0,1,.9.17,1.42,1.42,0,0,1,.62.44,1.65,1.65,0,0,1,.29.65,4.69,4.69,0,0,1,.05.85V11h-.92V7.84a2.25,2.25,0,0,0-.11-.8.86.86,0,0,0-.38-.42,1.25,1.25,0,0,0-.64-.16,1.54,1.54,0,0,0-1,.36,1.71,1.71,0,0,0-.43,1.35V11Z" style="fill:#fff"/><rect x="0.53" y="101.87" width="44.92" height="27.98" style="fill:none"/><rect x="45.65" y="101.87" width="44.92" height="27.98" style="fill:none"/><rect x="90.57" y="101.87" width="44.92" height="27.98" style="fill:#fff;stroke:#000;stroke-miterlimit:10"/><rect x="180.23" y="101.87" width="44.92" height="27.98" style="fill:none;stroke:#000;stroke-linecap:round;stroke-linejoin:round;stroke-width:0.9753649999999999px"/><rect x="135.36" y="101.87" width="44.92" height="27.98" style="fill:none"/><rect x="2.78" y="17.42" width="204.89" height="13.39" style="fill:none"/><line x1="0.53" y1="101.87" x2="225.04" y2="101.87" style="fill:none;stroke:#000;stroke-linecap:round;stroke-linejoin:round;stroke-width:0.9753649999999999px"/><path d="M193.64,118.84V111h.65v3.23h2.56V111h.65v7.87h-.65v-3.71h-2.56v3.71Z"/><path d="M199.16,118.84V111h3.57v.93h-2.91v2.41h2.73v.92h-2.73v2.68h3v.93Z"/><path d="M204.27,118.84V111h.65v6.95h2.43v.93Z"/><path d="M208.68,118.84V111h1.86a2.86,2.86,0,0,1,.75.08,1.22,1.22,0,0,1,.61.37,2,2,0,0,1,.4.76,3.66,3.66,0,0,1,.15,1.07,3.36,3.36,0,0,1-.4,1.7,1.53,1.53,0,0,1-1.45.7h-1.26v3.2Zm.65-4.13h1.27a1,1,0,0,0,.9-.38,1.81,1.81,0,0,0,.27-1.06,2.07,2.07,0,0,0-.16-.85.84.84,0,0,0-.41-.46,1.8,1.8,0,0,0-.61-.07h-1.26Z"/><rect x="209.68" y="83.2" width="15.48" height="18.65" style="fill:none;stroke:#000;stroke-width:0.9753649999999999px"/><polygon points="210.46 92.12 217.43 99.08 224.37 92.12 210.46 92.12"/><rect x="209.68" y="15.08" width="15.48" height="18.65" style="fill:none;stroke:#000;stroke-width:0.9753649999999999px"/><rect x="210.23" y="35.38" width="13.56" height="39.67"/><polygon points="224.4 24.93 217.43 17.97 210.48 24.93 224.4 24.93"/><path d="M103.71,118.84V111h1.85a1.38,1.38,0,0,1,1.44,1,2.84,2.84,0,0,1,.19,1,2.61,2.61,0,0,1-.17,1,1.66,1.66,0,0,1-.52.72,1.43,1.43,0,0,1,.69.71,2.74,2.74,0,0,1,.24,1.19,3.48,3.48,0,0,1-.15,1,2.12,2.12,0,0,1-.36.73,1.35,1.35,0,0,1-.54.39,2.11,2.11,0,0,1-.79.13Zm.65-4.57h1.07a1.52,1.52,0,0,0,.62-.09.77.77,0,0,0,.38-.39,1.64,1.64,0,0,0,.13-.69,1.86,1.86,0,0,0-.12-.69.73.73,0,0,0-.34-.41,1.82,1.82,0,0,0-.75-.11h-1Zm0,3.64h1.23a1.81,1.81,0,0,0,.44,0,.85.85,0,0,0,.38-.21,1.1,1.1,0,0,0,.25-.44,2.06,2.06,0,0,0,.1-.66,1.9,1.9,0,0,0-.14-.77.89.89,0,0,0-.39-.46,1.58,1.58,0,0,0-.72-.13h-1.14Z"/><path d="M108.34,118.84l1.89-7.87h.7l2,7.87h-.74l-.58-2.38h-2.06l-.54,2.38Zm1.42-3.23h1.67l-.51-2.18c-.16-.66-.27-1.21-.35-1.63a14.87,14.87,0,0,1-.27,1.5Z"/><path d="M117.55,116.08l.65.26a4.21,4.21,0,0,1-.74,2,1.61,1.61,0,0,1-1.3.67,1.72,1.72,0,0,1-1.3-.52,3.37,3.37,0,0,1-.76-1.5,8.2,8.2,0,0,1-.26-2.11,7,7,0,0,1,.29-2.15,3,3,0,0,1,.84-1.39,1.78,1.78,0,0,1,1.2-.48,1.56,1.56,0,0,1,1.24.6,3.59,3.59,0,0,1,.7,1.69l-.64.24a2.84,2.84,0,0,0-.5-1.25,1,1,0,0,0-.82-.39,1.22,1.22,0,0,0-1,.43,2.54,2.54,0,0,0-.54,1.17,7.29,7.29,0,0,0-.16,1.51,7.44,7.44,0,0,0,.18,1.75,2.26,2.26,0,0,0,.57,1.12,1.19,1.19,0,0,0,.84.37,1.13,1.13,0,0,0,.93-.51A3.22,3.22,0,0,0,117.55,116.08Z"/><path d="M119.53,118.84V111h.65v3.9l2.45-3.9h.88l-2.07,3.19,2.16,4.68h-.86l-1.76-4-.81,1.26v2.73Z"/><path d="M4.29,24.88l1-.09a2.17,2.17,0,0,0,.32,1,1.77,1.77,0,0,0,.79.61,3,3,0,0,0,1.21.23,2.9,2.9,0,0,0,1.05-.18,1.46,1.46,0,0,0,.68-.49,1.13,1.13,0,0,0,.22-.67,1,1,0,0,0-.21-.65,1.59,1.59,0,0,0-.71-.46,13.86,13.86,0,0,0-1.4-.38,7.16,7.16,0,0,1-1.52-.49,2.13,2.13,0,0,1-.84-.73,1.8,1.8,0,0,1-.28-1,2,2,0,0,1,.34-1.11,2.1,2.1,0,0,1,1-.79,3.75,3.75,0,0,1,1.44-.27,4,4,0,0,1,1.54.28,2.23,2.23,0,0,1,1,.83,2.39,2.39,0,0,1,.39,1.24l-1,.08a1.61,1.61,0,0,0-.55-1.13,2.12,2.12,0,0,0-1.37-.38A2.2,2.2,0,0,0,6,20.66a1,1,0,0,0-.43.83.9.9,0,0,0,.31.7,4.15,4.15,0,0,0,1.57.56,10.39,10.39,0,0,1,1.74.5,2.39,2.39,0,0,1,1,.8,2,2,0,0,1,.33,1.12,2.15,2.15,0,0,1-.36,1.18,2.37,2.37,0,0,1-1,.86,3.6,3.6,0,0,1-1.52.31,4.54,4.54,0,0,1-1.79-.31,2.51,2.51,0,0,1-1.13-.94A2.65,2.65,0,0,1,4.29,24.88Z"/><path d="M12.08,27.41V19.53h1v2.83a2.16,2.16,0,0,1,1.71-.78,2.3,2.3,0,0,1,1.1.25,1.47,1.47,0,0,1,.67.69,3.19,3.19,0,0,1,.2,1.28v3.61h-1V23.79a1.49,1.49,0,0,0-.31-1.06,1.17,1.17,0,0,0-.89-.33,1.57,1.57,0,0,0-.81.22,1.26,1.26,0,0,0-.54.6A2.78,2.78,0,0,0,13,24.29v3.12Z"/><path d="M18.06,24.56a2.94,2.94,0,0,1,.88-2.35,2.66,2.66,0,0,1,1.79-.63,2.56,2.56,0,0,1,1.92.77,2.93,2.93,0,0,1,.75,2.13,3.77,3.77,0,0,1-.33,1.73,2.34,2.34,0,0,1-1,1,2.8,2.8,0,0,1-1.38.35,2.56,2.56,0,0,1-1.94-.77A3.07,3.07,0,0,1,18.06,24.56Zm1,0a2.43,2.43,0,0,0,.48,1.64,1.59,1.59,0,0,0,2.4,0,2.49,2.49,0,0,0,.48-1.67,2.36,2.36,0,0,0-.48-1.6,1.59,1.59,0,0,0-2.4,0A2.42,2.42,0,0,0,19,24.56Z"/><path d="M25.81,27.41l-1.75-5.7h1L26,25l.34,1.22L26.6,25l.91-3.34h1L29.36,25l.28,1.09L30,25l1-3.3h.94l-1.78,5.7h-1L28.19,24,28,23l-1.15,4.39Z"/><path d="M41.94,24.65l1,.26a3.51,3.51,0,0,1-1.18,2,3.25,3.25,0,0,1-2.08.67A3.74,3.74,0,0,1,37.65,27a3.24,3.24,0,0,1-1.21-1.5A5.36,5.36,0,0,1,36,23.41a4.64,4.64,0,0,1,.47-2.15,3.22,3.22,0,0,1,1.34-1.39,3.91,3.91,0,0,1,1.91-.48,3.23,3.23,0,0,1,2,.6,3.12,3.12,0,0,1,1.12,1.69l-1,.24A2.43,2.43,0,0,0,41,20.68a2.12,2.12,0,0,0-1.31-.39,2.55,2.55,0,0,0-1.52.44,2.3,2.3,0,0,0-.86,1.17,4.71,4.71,0,0,0-.25,1.51,4.8,4.8,0,0,0,.29,1.75,2.18,2.18,0,0,0,.91,1.12,2.55,2.55,0,0,0,1.34.37,2.24,2.24,0,0,0,1.48-.5A2.58,2.58,0,0,0,41.94,24.65Z"/><path d="M44,24.56a2.94,2.94,0,0,1,.88-2.35,2.66,2.66,0,0,1,1.79-.63,2.56,2.56,0,0,1,1.92.77,2.93,2.93,0,0,1,.75,2.13A3.77,3.77,0,0,1,49,26.21a2.34,2.34,0,0,1-1,1,2.8,2.8,0,0,1-1.38.35,2.56,2.56,0,0,1-1.94-.77A3.07,3.07,0,0,1,44,24.56Zm1,0a2.43,2.43,0,0,0,.48,1.64,1.59,1.59,0,0,0,2.4,0,2.49,2.49,0,0,0,.48-1.67,2.36,2.36,0,0,0-.48-1.6,1.59,1.59,0,0,0-2.4,0A2.42,2.42,0,0,0,45,24.56Z"/><path d="M50.7,27.41V21.7h.87v.81a2.05,2.05,0,0,1,1.82-.94,2.37,2.37,0,0,1,.95.19,1.48,1.48,0,0,1,.65.49,1.87,1.87,0,0,1,.3.71,5.55,5.55,0,0,1,.05.94v3.51h-1V23.94a2.61,2.61,0,0,0-.11-.88.93.93,0,0,0-.4-.47,1.27,1.27,0,0,0-.67-.17,1.57,1.57,0,0,0-1.07.39,1.93,1.93,0,0,0-.45,1.49v3.12Z"/><path d="M59.14,26.54l.14.85a3.6,3.6,0,0,1-.73.09,1.66,1.66,0,0,1-.82-.17.93.93,0,0,1-.41-.44,3.46,3.46,0,0,1-.12-1.14V22.46H56.5V21.7h.71V20.29l1-.58v2h1v.75h-1v3.34a1.68,1.68,0,0,0,.05.53.4.4,0,0,0,.17.19.65.65,0,0,0,.33.07Z"/><path d="M64,26.7a3.6,3.6,0,0,1-1,.64,3,3,0,0,1-1.07.19,2.08,2.08,0,0,1-1.44-.46A1.52,1.52,0,0,1,60,25.9a1.56,1.56,0,0,1,.19-.77,1.58,1.58,0,0,1,.5-.56,2.35,2.35,0,0,1,.7-.32,6.85,6.85,0,0,1,.86-.15A8.84,8.84,0,0,0,64,23.79c0-.13,0-.22,0-.25a1.07,1.07,0,0,0-.27-.83,1.62,1.62,0,0,0-1.1-.33,1.71,1.71,0,0,0-1,.24,1.46,1.46,0,0,0-.48.85l-.95-.13a2.34,2.34,0,0,1,.42-1,1.86,1.86,0,0,1,.85-.58,3.82,3.82,0,0,1,1.29-.2,3.42,3.42,0,0,1,1.19.17,1.56,1.56,0,0,1,.67.43,1.52,1.52,0,0,1,.3.66,5.44,5.44,0,0,1,0,.89V25A13.6,13.6,0,0,0,65,26.72a2.15,2.15,0,0,0,.24.68h-1A2.06,2.06,0,0,1,64,26.7ZM64,24.54a7.1,7.1,0,0,1-1.58.37,3.63,3.63,0,0,0-.84.19.84.84,0,0,0-.38.31.85.85,0,0,0,.16,1.1,1.26,1.26,0,0,0,.86.26,2,2,0,0,0,1-.24,1.5,1.5,0,0,0,.64-.67,2.33,2.33,0,0,0,.16-1Z"/><path d="M70.37,25.32l1,.12a2.47,2.47,0,0,1-.8,1.54,2.33,2.33,0,0,1-1.58.56,2.45,2.45,0,0,1-1.88-.77,3.1,3.1,0,0,1-.71-2.19A4,4,0,0,1,66.66,23a2.13,2.13,0,0,1,.93-1A2.76,2.76,0,0,1,69,21.57a2.37,2.37,0,0,1,1.52.47,2.15,2.15,0,0,1,.76,1.33l-.94.15a1.56,1.56,0,0,0-.48-.86,1.23,1.23,0,0,0-.82-.29,1.5,1.5,0,0,0-1.19.52,2.49,2.49,0,0,0-.46,1.66,2.57,2.57,0,0,0,.44,1.67,1.43,1.43,0,0,0,1.15.52,1.35,1.35,0,0,0,1-.35A1.73,1.73,0,0,0,70.37,25.32Z"/><path d="M74.48,26.54l.14.85a3.6,3.6,0,0,1-.73.09,1.66,1.66,0,0,1-.82-.17.93.93,0,0,1-.41-.44,3.46,3.46,0,0,1-.12-1.14V22.46h-.71V21.7h.71V20.29l1-.58v2h1v.75h-1v3.34a1.68,1.68,0,0,0,.05.53.4.4,0,0,0,.17.19.65.65,0,0,0,.33.07Z"/><path d="M175.2,27.41V19.53h1.07l4.14,6.18V19.53h1v7.87h-1.07l-4.14-6.19v6.19Z"/><path d="M182.89,24.56a2.94,2.94,0,0,1,.88-2.35,2.65,2.65,0,0,1,1.79-.63,2.56,2.56,0,0,1,1.92.77,2.93,2.93,0,0,1,.75,2.13,3.77,3.77,0,0,1-.33,1.73,2.34,2.34,0,0,1-1,1,2.8,2.8,0,0,1-1.38.35,2.56,2.56,0,0,1-1.94-.77A3.07,3.07,0,0,1,182.89,24.56Zm1,0a2.43,2.43,0,0,0,.48,1.64,1.59,1.59,0,0,0,2.4,0,2.49,2.49,0,0,0,.48-1.67,2.36,2.36,0,0,0-.48-1.6,1.59,1.59,0,0,0-2.4,0A2.42,2.42,0,0,0,183.88,24.56Z"/><path d="M202.11,24l-5.22,2.23v-1L201,23.52l-4.13-1.7v-1l5.22,2.2Z"/><path d="M10.26,38.65l1,.26a3.51,3.51,0,0,1-1.18,2A3.25,3.25,0,0,1,8,41.54,3.74,3.74,0,0,1,6,41a3.24,3.24,0,0,1-1.21-1.5,5.36,5.36,0,0,1-.42-2.11,4.64,4.64,0,0,1,.47-2.15,3.22,3.22,0,0,1,1.34-1.39,3.91,3.91,0,0,1,1.91-.48,3.23,3.23,0,0,1,2,.6,3.12,3.12,0,0,1,1.12,1.69l-1,.24a2.43,2.43,0,0,0-.79-1.25A2.12,2.12,0,0,0,8,34.29a2.55,2.55,0,0,0-1.52.44,2.3,2.3,0,0,0-.86,1.17,4.71,4.71,0,0,0-.25,1.51,4.8,4.8,0,0,0,.29,1.75,2.18,2.18,0,0,0,.91,1.12A2.55,2.55,0,0,0,8,40.65a2.24,2.24,0,0,0,1.48-.5A2.58,2.58,0,0,0,10.26,38.65Z"/><path d="M12.69,41.41V33.53h1v2.83a2.16,2.16,0,0,1,1.71-.78,2.3,2.3,0,0,1,1.1.25,1.47,1.47,0,0,1,.67.69,3.19,3.19,0,0,1,.2,1.28v3.61h-1V37.79a1.49,1.49,0,0,0-.31-1.06,1.17,1.17,0,0,0-.89-.33,1.57,1.57,0,0,0-.81.22,1.26,1.26,0,0,0-.54.6,2.78,2.78,0,0,0-.16,1.05v3.12Z"/><path d="M22.75,40.7a3.6,3.6,0,0,1-1,.64,3,3,0,0,1-1.07.19,2.08,2.08,0,0,1-1.44-.46,1.52,1.52,0,0,1-.5-1.17,1.56,1.56,0,0,1,.19-.77,1.58,1.58,0,0,1,.5-.56,2.35,2.35,0,0,1,.7-.32,6.85,6.85,0,0,1,.86-.15,8.84,8.84,0,0,0,1.72-.33c0-.13,0-.22,0-.25a1.07,1.07,0,0,0-.27-.83,1.62,1.62,0,0,0-1.1-.33,1.71,1.71,0,0,0-1,.24,1.46,1.46,0,0,0-.48.85l-.95-.13a2.34,2.34,0,0,1,.42-1,1.86,1.86,0,0,1,.85-.58,3.82,3.82,0,0,1,1.29-.2,3.42,3.42,0,0,1,1.19.17,1.56,1.56,0,0,1,.67.43,1.52,1.52,0,0,1,.3.66,5.44,5.44,0,0,1,0,.89V39a13.6,13.6,0,0,0,.06,1.71,2.15,2.15,0,0,0,.24.68h-1A2.06,2.06,0,0,1,22.75,40.7Zm-.08-2.16a7.1,7.1,0,0,1-1.58.37,3.63,3.63,0,0,0-.84.19.84.84,0,0,0-.38.31.85.85,0,0,0,.16,1.1,1.26,1.26,0,0,0,.86.26,2,2,0,0,0,1-.24,1.5,1.5,0,0,0,.64-.67,2.33,2.33,0,0,0,.16-1Z"/><path d="M25.36,41.41V35.7h.87v.81A2.05,2.05,0,0,1,28,35.57a2.37,2.37,0,0,1,.95.19,1.48,1.48,0,0,1,.65.49,1.87,1.87,0,0,1,.3.71,5.55,5.55,0,0,1,.05.94v3.51H29V37.94a2.61,2.61,0,0,0-.11-.88.93.93,0,0,0-.4-.47,1.27,1.27,0,0,0-.67-.17,1.57,1.57,0,0,0-1.07.39,1.93,1.93,0,0,0-.45,1.49v3.12Z"/><path d="M31.52,41.88l.94.14a.9.9,0,0,0,.33.63,1.61,1.61,0,0,0,1,.27,1.73,1.73,0,0,0,1-.27,1.32,1.32,0,0,0,.49-.75,6.17,6.17,0,0,0,.07-1.24,2,2,0,0,1-1.58.75A2.15,2.15,0,0,1,32,40.56a3.27,3.27,0,0,1-.64-2,3.79,3.79,0,0,1,.3-1.51A2.36,2.36,0,0,1,32.48,36a2.31,2.31,0,0,1,1.32-.38,2,2,0,0,1,1.67.82V35.7h.89v4.93a4.67,4.67,0,0,1-.27,1.89,2,2,0,0,1-.86.88,3,3,0,0,1-1.45.32,2.73,2.73,0,0,1-1.65-.46A1.55,1.55,0,0,1,31.52,41.88Zm.8-3.43a2.47,2.47,0,0,0,.45,1.64,1.47,1.47,0,0,0,2.23,0,2.39,2.39,0,0,0,.45-1.61A2.34,2.34,0,0,0,35,36.91a1.44,1.44,0,0,0-1.12-.53,1.39,1.39,0,0,0-1.1.52A2.32,2.32,0,0,0,32.32,38.45Z"/><path d="M41.94,39.57l1,.12a2.44,2.44,0,0,1-.88,1.36,3,3,0,0,1-3.62-.29,3,3,0,0,1-.73-2.16,3.15,3.15,0,0,1,.74-2.23,2.51,2.51,0,0,1,1.92-.79,2.44,2.44,0,0,1,1.87.78A3.09,3.09,0,0,1,43,38.54c0,.06,0,.14,0,.26H38.71a2.19,2.19,0,0,0,.53,1.44,1.58,1.58,0,0,0,1.19.5,1.48,1.48,0,0,0,.91-.28A1.86,1.86,0,0,0,41.94,39.57ZM38.77,38H42a1.93,1.93,0,0,0-.37-1.08,1.48,1.48,0,0,0-1.2-.56,1.53,1.53,0,0,0-1.12.45A1.76,1.76,0,0,0,38.77,38Z"/><path d="M53.39,38.65l1,.26a3.51,3.51,0,0,1-1.18,2,3.25,3.25,0,0,1-2.08.67A3.74,3.74,0,0,1,49.1,41a3.24,3.24,0,0,1-1.21-1.5,5.36,5.36,0,0,1-.42-2.11,4.64,4.64,0,0,1,.47-2.15,3.22,3.22,0,0,1,1.34-1.39,3.91,3.91,0,0,1,1.91-.48,3.23,3.23,0,0,1,2,.6,3.12,3.12,0,0,1,1.12,1.69l-1,.24a2.43,2.43,0,0,0-.79-1.25,2.12,2.12,0,0,0-1.31-.39,2.55,2.55,0,0,0-1.52.44,2.3,2.3,0,0,0-.86,1.17,4.71,4.71,0,0,0-.25,1.51,4.8,4.8,0,0,0,.29,1.75,2.18,2.18,0,0,0,.91,1.12,2.55,2.55,0,0,0,1.34.37,2.24,2.24,0,0,0,1.48-.5A2.58,2.58,0,0,0,53.39,38.65Z"/><path d="M55.45,38.56a2.94,2.94,0,0,1,.88-2.35,2.66,2.66,0,0,1,1.79-.63,2.56,2.56,0,0,1,1.92.77,2.93,2.93,0,0,1,.75,2.13,3.77,3.77,0,0,1-.33,1.73,2.34,2.34,0,0,1-1,1,2.8,2.8,0,0,1-1.38.35,2.56,2.56,0,0,1-1.94-.77A3.07,3.07,0,0,1,55.45,38.56Zm1,0a2.43,2.43,0,0,0,.48,1.64,1.59,1.59,0,0,0,2.4,0,2.49,2.49,0,0,0,.48-1.67,2.36,2.36,0,0,0-.48-1.6,1.59,1.59,0,0,0-2.4,0A2.42,2.42,0,0,0,56.45,38.56Z"/><path d="M62.15,41.41V35.7H63v.81a2.05,2.05,0,0,1,1.82-.94,2.37,2.37,0,0,1,.95.19,1.48,1.48,0,0,1,.65.49,1.87,1.87,0,0,1,.3.71,5.55,5.55,0,0,1,.05.94v3.51h-1V37.94a2.61,2.61,0,0,0-.11-.88.93.93,0,0,0-.4-.47,1.27,1.27,0,0,0-.67-.17,1.57,1.57,0,0,0-1.07.39,1.93,1.93,0,0,0-.45,1.49v3.12Z"/><path d="M70.6,40.54l.14.85a3.6,3.6,0,0,1-.73.09,1.66,1.66,0,0,1-.82-.17.93.93,0,0,1-.41-.44,3.46,3.46,0,0,1-.12-1.14V36.46H68V35.7h.71V34.29l1-.58v2h1v.75h-1v3.34a1.68,1.68,0,0,0,.05.53.4.4,0,0,0,.17.19.65.65,0,0,0,.33.07Z"/><path d="M75.49,40.7a3.6,3.6,0,0,1-1,.64,3,3,0,0,1-1.07.19,2.08,2.08,0,0,1-1.44-.46,1.52,1.52,0,0,1-.5-1.17,1.56,1.56,0,0,1,.19-.77,1.58,1.58,0,0,1,.5-.56,2.35,2.35,0,0,1,.7-.32,6.85,6.85,0,0,1,.86-.15,8.84,8.84,0,0,0,1.72-.33c0-.13,0-.22,0-.25a1.07,1.07,0,0,0-.27-.83,1.62,1.62,0,0,0-1.1-.33,1.71,1.71,0,0,0-1,.24,1.46,1.46,0,0,0-.48.85l-.95-.13a2.34,2.34,0,0,1,.42-1,1.86,1.86,0,0,1,.85-.58,3.82,3.82,0,0,1,1.29-.2,3.42,3.42,0,0,1,1.19.17,1.56,1.56,0,0,1,.67.43,1.52,1.52,0,0,1,.3.66,5.44,5.44,0,0,1,0,.89V39a13.6,13.6,0,0,0,.06,1.71,2.15,2.15,0,0,0,.24.68h-1A2.06,2.06,0,0,1,75.49,40.7Zm-.08-2.16a7.1,7.1,0,0,1-1.58.37,3.63,3.63,0,0,0-.84.19.84.84,0,0,0-.38.31.85.85,0,0,0,.16,1.1,1.26,1.26,0,0,0,.86.26,2,2,0,0,0,1-.24,1.5,1.5,0,0,0,.64-.67,2.33,2.33,0,0,0,.16-1Z"/><path d="M81.83,39.32l1,.12A2.47,2.47,0,0,1,82,41a2.33,2.33,0,0,1-1.58.56,2.45,2.45,0,0,1-1.88-.77,3.1,3.1,0,0,1-.71-2.19A4,4,0,0,1,78.11,37a2.13,2.13,0,0,1,.93-1,2.76,2.76,0,0,1,1.36-.35,2.37,2.37,0,0,1,1.52.47,2.15,2.15,0,0,1,.76,1.33l-.94.15a1.56,1.56,0,0,0-.48-.86,1.23,1.23,0,0,0-.82-.29,1.5,1.5,0,0,0-1.19.52,2.49,2.49,0,0,0-.46,1.66,2.57,2.57,0,0,0,.44,1.67,1.43,1.43,0,0,0,1.15.52,1.35,1.35,0,0,0,1-.35A1.73,1.73,0,0,0,81.83,39.32Z"/><path d="M85.93,40.54l.14.85a3.6,3.6,0,0,1-.73.09,1.66,1.66,0,0,1-.82-.17.93.93,0,0,1-.41-.44A3.46,3.46,0,0,1,84,39.74V36.46h-.71V35.7H84V34.29l1-.58v2h1v.75H85v3.34a1.68,1.68,0,0,0,.05.53.4.4,0,0,0,.17.19.65.65,0,0,0,.33.07Z"/><path d="M90.49,41.41V33.53h1.07l4.14,6.18V33.53h1v7.87H95.62l-4.14-6.19v6.19Z"/><path d="M102.26,40.7a3.6,3.6,0,0,1-1,.64,3,3,0,0,1-1.07.19,2.08,2.08,0,0,1-1.44-.46,1.52,1.52,0,0,1-.5-1.17,1.56,1.56,0,0,1,.19-.77,1.58,1.58,0,0,1,.5-.56,2.35,2.35,0,0,1,.7-.32,6.85,6.85,0,0,1,.86-.15,8.84,8.84,0,0,0,1.72-.33c0-.13,0-.22,0-.25a1.07,1.07,0,0,0-.27-.83,1.62,1.62,0,0,0-1.1-.33,1.71,1.71,0,0,0-1,.24,1.46,1.46,0,0,0-.48.85l-.95-.13a2.34,2.34,0,0,1,.42-1,1.86,1.86,0,0,1,.85-.58,3.82,3.82,0,0,1,1.29-.2,3.42,3.42,0,0,1,1.19.17,1.56,1.56,0,0,1,.67.43,1.52,1.52,0,0,1,.3.66,5.44,5.44,0,0,1,0,.89V39a13.6,13.6,0,0,0,.06,1.71,2.15,2.15,0,0,0,.24.68h-1A2.06,2.06,0,0,1,102.26,40.7Zm-.08-2.16a7.1,7.1,0,0,1-1.58.37,3.63,3.63,0,0,0-.84.19.84.84,0,0,0-.38.31.85.85,0,0,0,.16,1.1,1.26,1.26,0,0,0,.86.26,2,2,0,0,0,1-.24,1.5,1.5,0,0,0,.64-.67,2.33,2.33,0,0,0,.16-1Z"/><path d="M104.88,41.41V35.7h.86v.8a2,2,0,0,1,.71-.67,2,2,0,0,1,1-.25,1.88,1.88,0,0,1,1,.26,1.41,1.41,0,0,1,.57.74,2,2,0,0,1,1.76-1,1.74,1.74,0,0,1,1.31.47,2,2,0,0,1,.46,1.45v3.92h-1V37.81a2.64,2.64,0,0,0-.09-.84.81.81,0,0,0-.34-.41,1.06,1.06,0,0,0-.58-.16,1.35,1.35,0,0,0-1,.4,1.76,1.76,0,0,0-.4,1.28v3.31h-1V37.7a1.63,1.63,0,0,0-.24-1,.9.9,0,0,0-.77-.32,1.41,1.41,0,0,0-.75.21,1.22,1.22,0,0,0-.5.63,3.53,3.53,0,0,0-.16,1.19v3Z"/><path d="M118.16,39.57l1,.12a2.44,2.44,0,0,1-.87,1.36,3,3,0,0,1-3.62-.29,3,3,0,0,1-.73-2.16,3.15,3.15,0,0,1,.74-2.23,2.51,2.51,0,0,1,1.92-.79,2.44,2.44,0,0,1,1.87.78,3.09,3.09,0,0,1,.73,2.19q0,.09,0,.26h-4.25a2.19,2.19,0,0,0,.53,1.44,1.59,1.59,0,0,0,1.19.5,1.48,1.48,0,0,0,.91-.28A1.86,1.86,0,0,0,118.16,39.57ZM115,38h3.18a1.93,1.93,0,0,0-.37-1.08,1.48,1.48,0,0,0-1.2-.56,1.53,1.53,0,0,0-1.12.45A1.76,1.76,0,0,0,115,38Z"/><path d="M202.11,38l-5.22,2.23v-1L201,37.52l-4.13-1.7v-1l5.22,2.2Z"/><path d="M10.26,52.65l1,.26a3.51,3.51,0,0,1-1.18,2A3.25,3.25,0,0,1,8,55.54,3.74,3.74,0,0,1,6,55a3.24,3.24,0,0,1-1.21-1.5,5.36,5.36,0,0,1-.42-2.11,4.64,4.64,0,0,1,.47-2.15,3.22,3.22,0,0,1,1.34-1.39,3.91,3.91,0,0,1,1.91-.48,3.23,3.23,0,0,1,2,.6,3.12,3.12,0,0,1,1.12,1.69l-1,.24a2.43,2.43,0,0,0-.79-1.25A2.12,2.12,0,0,0,8,48.29a2.55,2.55,0,0,0-1.52.44,2.3,2.3,0,0,0-.86,1.17,4.71,4.71,0,0,0-.25,1.51,4.8,4.8,0,0,0,.29,1.75,2.18,2.18,0,0,0,.91,1.12A2.55,2.55,0,0,0,8,54.65a2.24,2.24,0,0,0,1.48-.5A2.58,2.58,0,0,0,10.26,52.65Z"/><path d="M12.69,55.41V47.53h1v2.83a2.16,2.16,0,0,1,1.71-.78,2.3,2.3,0,0,1,1.1.25,1.47,1.47,0,0,1,.67.69,3.19,3.19,0,0,1,.2,1.28v3.61h-1V51.79a1.49,1.49,0,0,0-.31-1.06,1.17,1.17,0,0,0-.89-.33,1.57,1.57,0,0,0-.81.22,1.26,1.26,0,0,0-.54.6,2.78,2.78,0,0,0-.16,1.05v3.12Z"/><path d="M22.75,54.7a3.6,3.6,0,0,1-1,.64,3,3,0,0,1-1.07.19,2.08,2.08,0,0,1-1.44-.46,1.52,1.52,0,0,1-.5-1.17,1.56,1.56,0,0,1,.19-.77,1.58,1.58,0,0,1,.5-.56,2.35,2.35,0,0,1,.7-.32,6.85,6.85,0,0,1,.86-.15,8.84,8.84,0,0,0,1.72-.33c0-.13,0-.22,0-.25a1.07,1.07,0,0,0-.27-.83,1.62,1.62,0,0,0-1.1-.33,1.71,1.71,0,0,0-1,.24,1.46,1.46,0,0,0-.48.85l-.95-.13a2.34,2.34,0,0,1,.42-1,1.86,1.86,0,0,1,.85-.58,3.82,3.82,0,0,1,1.29-.2,3.42,3.42,0,0,1,1.19.17,1.56,1.56,0,0,1,.67.43,1.52,1.52,0,0,1,.3.66,5.44,5.44,0,0,1,0,.89V53a13.6,13.6,0,0,0,.06,1.71,2.15,2.15,0,0,0,.24.68h-1A2.06,2.06,0,0,1,22.75,54.7Zm-.08-2.16a7.1,7.1,0,0,1-1.58.37,3.63,3.63,0,0,0-.84.19.84.84,0,0,0-.38.31.85.85,0,0,0,.16,1.1,1.26,1.26,0,0,0,.86.26,2,2,0,0,0,1-.24,1.5,1.5,0,0,0,.64-.67,2.33,2.33,0,0,0,.16-1Z"/><path d="M25.36,55.41V49.7h.87v.81A2.05,2.05,0,0,1,28,49.57a2.37,2.37,0,0,1,.95.19,1.48,1.48,0,0,1,.65.49,1.87,1.87,0,0,1,.3.71,5.55,5.55,0,0,1,.05.94v3.51H29V51.94a2.61,2.61,0,0,0-.11-.88.93.93,0,0,0-.4-.47,1.27,1.27,0,0,0-.67-.17,1.57,1.57,0,0,0-1.07.39,1.93,1.93,0,0,0-.45,1.49v3.12Z"/><path d="M31.52,55.88l.94.14a.9.9,0,0,0,.33.63,1.61,1.61,0,0,0,1,.27,1.73,1.73,0,0,0,1-.27,1.32,1.32,0,0,0,.49-.75,6.17,6.17,0,0,0,.07-1.24,2,2,0,0,1-1.58.75A2.15,2.15,0,0,1,32,54.56a3.27,3.27,0,0,1-.64-2,3.79,3.79,0,0,1,.3-1.51A2.36,2.36,0,0,1,32.48,50a2.31,2.31,0,0,1,1.32-.38,2,2,0,0,1,1.67.82V49.7h.89v4.93a4.67,4.67,0,0,1-.27,1.89,2,2,0,0,1-.86.88,3,3,0,0,1-1.45.32,2.73,2.73,0,0,1-1.65-.46A1.55,1.55,0,0,1,31.52,55.88Zm.8-3.43a2.47,2.47,0,0,0,.45,1.64,1.47,1.47,0,0,0,2.23,0,2.39,2.39,0,0,0,.45-1.61A2.34,2.34,0,0,0,35,50.91a1.44,1.44,0,0,0-1.12-.53,1.39,1.39,0,0,0-1.1.52A2.32,2.32,0,0,0,32.32,52.45Z"/><path d="M41.94,53.57l1,.12a2.44,2.44,0,0,1-.88,1.36,3,3,0,0,1-3.62-.29,3,3,0,0,1-.73-2.16,3.15,3.15,0,0,1,.74-2.23,2.51,2.51,0,0,1,1.92-.79,2.44,2.44,0,0,1,1.87.78A3.09,3.09,0,0,1,43,52.54c0,.06,0,.14,0,.26H38.71a2.19,2.19,0,0,0,.53,1.44,1.58,1.58,0,0,0,1.19.5,1.48,1.48,0,0,0,.91-.28A1.86,1.86,0,0,0,41.94,53.57ZM38.77,52H42a1.93,1.93,0,0,0-.37-1.08,1.48,1.48,0,0,0-1.2-.56,1.53,1.53,0,0,0-1.12.45A1.76,1.76,0,0,0,38.77,52Z"/><path d="M53.39,52.65l1,.26a3.51,3.51,0,0,1-1.18,2,3.25,3.25,0,0,1-2.08.67A3.74,3.74,0,0,1,49.1,55a3.24,3.24,0,0,1-1.21-1.5,5.36,5.36,0,0,1-.42-2.11,4.64,4.64,0,0,1,.47-2.15,3.22,3.22,0,0,1,1.34-1.39,3.91,3.91,0,0,1,1.91-.48,3.23,3.23,0,0,1,2,.6,3.12,3.12,0,0,1,1.12,1.69l-1,.24a2.43,2.43,0,0,0-.79-1.25,2.12,2.12,0,0,0-1.31-.39,2.55,2.55,0,0,0-1.52.44,2.3,2.3,0,0,0-.86,1.17,4.71,4.71,0,0,0-.25,1.51,4.8,4.8,0,0,0,.29,1.75,2.18,2.18,0,0,0,.91,1.12,2.55,2.55,0,0,0,1.34.37,2.24,2.24,0,0,0,1.48-.5A2.58,2.58,0,0,0,53.39,52.65Z"/><path d="M55.45,52.56a2.94,2.94,0,0,1,.88-2.35,2.66,2.66,0,0,1,1.79-.63,2.56,2.56,0,0,1,1.92.77,2.93,2.93,0,0,1,.75,2.13,3.77,3.77,0,0,1-.33,1.73,2.34,2.34,0,0,1-1,1,2.8,2.8,0,0,1-1.38.35,2.56,2.56,0,0,1-1.94-.77A3.07,3.07,0,0,1,55.45,52.56Zm1,0a2.43,2.43,0,0,0,.48,1.64,1.59,1.59,0,0,0,2.4,0,2.49,2.49,0,0,0,.48-1.67,2.36,2.36,0,0,0-.48-1.6,1.59,1.59,0,0,0-2.4,0A2.42,2.42,0,0,0,56.45,52.56Z"/><path d="M62.15,55.41V49.7H63v.81a2.05,2.05,0,0,1,1.82-.94,2.37,2.37,0,0,1,.95.19,1.48,1.48,0,0,1,.65.49,1.87,1.87,0,0,1,.3.71,5.55,5.55,0,0,1,.05.94v3.51h-1V51.94a2.61,2.61,0,0,0-.11-.88.93.93,0,0,0-.4-.47,1.27,1.27,0,0,0-.67-.17,1.57,1.57,0,0,0-1.07.39,1.93,1.93,0,0,0-.45,1.49v3.12Z"/><path d="M70.6,54.54l.14.85a3.6,3.6,0,0,1-.73.09,1.66,1.66,0,0,1-.82-.17.93.93,0,0,1-.41-.44,3.46,3.46,0,0,1-.12-1.14V50.46H68V49.7h.71V48.29l1-.58v2h1v.75h-1v3.34a1.68,1.68,0,0,0,.05.53.4.4,0,0,0,.17.19.65.65,0,0,0,.33.07Z"/><path d="M75.49,54.7a3.6,3.6,0,0,1-1,.64,3,3,0,0,1-1.07.19,2.08,2.08,0,0,1-1.44-.46,1.52,1.52,0,0,1-.5-1.17,1.56,1.56,0,0,1,.19-.77,1.58,1.58,0,0,1,.5-.56,2.35,2.35,0,0,1,.7-.32,6.85,6.85,0,0,1,.86-.15,8.84,8.84,0,0,0,1.72-.33c0-.13,0-.22,0-.25a1.07,1.07,0,0,0-.27-.83,1.62,1.62,0,0,0-1.1-.33,1.71,1.71,0,0,0-1,.24,1.46,1.46,0,0,0-.48.85l-.95-.13a2.34,2.34,0,0,1,.42-1,1.86,1.86,0,0,1,.85-.58,3.82,3.82,0,0,1,1.29-.2,3.42,3.42,0,0,1,1.19.17,1.56,1.56,0,0,1,.67.43,1.52,1.52,0,0,1,.3.66,5.44,5.44,0,0,1,0,.89V53a13.6,13.6,0,0,0,.06,1.71,2.15,2.15,0,0,0,.24.68h-1A2.06,2.06,0,0,1,75.49,54.7Zm-.08-2.16a7.1,7.1,0,0,1-1.58.37,3.63,3.63,0,0,0-.84.19.84.84,0,0,0-.38.31.85.85,0,0,0,.16,1.1,1.26,1.26,0,0,0,.86.26,2,2,0,0,0,1-.24,1.5,1.5,0,0,0,.64-.67,2.33,2.33,0,0,0,.16-1Z"/><path d="M81.83,53.32l1,.12A2.47,2.47,0,0,1,82,55a2.33,2.33,0,0,1-1.58.56,2.45,2.45,0,0,1-1.88-.77,3.1,3.1,0,0,1-.71-2.19A4,4,0,0,1,78.11,51a2.13,2.13,0,0,1,.93-1,2.76,2.76,0,0,1,1.36-.35,2.37,2.37,0,0,1,1.52.47,2.15,2.15,0,0,1,.76,1.33l-.94.15a1.56,1.56,0,0,0-.48-.86,1.23,1.23,0,0,0-.82-.29,1.5,1.5,0,0,0-1.19.52,2.49,2.49,0,0,0-.46,1.66,2.57,2.57,0,0,0,.44,1.67,1.43,1.43,0,0,0,1.15.52,1.35,1.35,0,0,0,1-.35A1.73,1.73,0,0,0,81.83,53.32Z"/><path d="M85.93,54.54l.14.85a3.6,3.6,0,0,1-.73.09,1.66,1.66,0,0,1-.82-.17.93.93,0,0,1-.41-.44A3.46,3.46,0,0,1,84,53.74V50.46h-.71V49.7H84V48.29l1-.58v2h1v.75H85v3.34a1.68,1.68,0,0,0,.05.53.4.4,0,0,0,.17.19.65.65,0,0,0,.33.07Z"/><path d="M90.5,55.41V47.53h3a7.15,7.15,0,0,1,1.2.08,2.37,2.37,0,0,1,1,.37,1.93,1.93,0,0,1,.63.76,2.56,2.56,0,0,1-.4,2.77,3.07,3.07,0,0,1-2.31.7h-2v3.2Zm1-4.13h2A2.16,2.16,0,0,0,95,50.9a1.34,1.34,0,0,0,.42-1.06,1.43,1.43,0,0,0-.25-.85,1.17,1.17,0,0,0-.66-.46,4.46,4.46,0,0,0-1-.07h-2Z"/><path d="M97.93,55.41V47.53h1v2.83a2.16,2.16,0,0,1,1.71-.78,2.3,2.3,0,0,1,1.1.25,1.47,1.47,0,0,1,.67.69,3.19,3.19,0,0,1,.2,1.28v3.61h-1V51.79a1.49,1.49,0,0,0-.31-1.06,1.17,1.17,0,0,0-.89-.33,1.57,1.57,0,0,0-.81.22,1.26,1.26,0,0,0-.54.6,2.78,2.78,0,0,0-.16,1.05v3.12Z"/><path d="M103.91,52.56a2.94,2.94,0,0,1,.88-2.35,2.66,2.66,0,0,1,1.79-.63,2.56,2.56,0,0,1,1.92.77,2.93,2.93,0,0,1,.75,2.13,3.77,3.77,0,0,1-.33,1.73,2.34,2.34,0,0,1-1,1,2.8,2.8,0,0,1-1.38.35,2.56,2.56,0,0,1-1.94-.77A3.07,3.07,0,0,1,103.91,52.56Zm1,0a2.43,2.43,0,0,0,.48,1.64,1.59,1.59,0,0,0,2.4,0,2.49,2.49,0,0,0,.48-1.67,2.36,2.36,0,0,0-.48-1.6,1.59,1.59,0,0,0-2.4,0A2.42,2.42,0,0,0,104.9,52.56Z"/><path d="M110.61,55.41V49.7h.87v.81a2.05,2.05,0,0,1,1.82-.94,2.38,2.38,0,0,1,.95.19,1.48,1.48,0,0,1,.65.49,1.85,1.85,0,0,1,.3.71,5.47,5.47,0,0,1,.05.94v3.51h-1V51.94a2.6,2.6,0,0,0-.11-.88.93.93,0,0,0-.4-.47,1.27,1.27,0,0,0-.67-.17,1.57,1.57,0,0,0-1.07.39,1.93,1.93,0,0,0-.45,1.49v3.12Z"/><path d="M120.85,53.57l1,.12a2.44,2.44,0,0,1-.87,1.36,3,3,0,0,1-3.62-.29,3,3,0,0,1-.73-2.16,3.15,3.15,0,0,1,.74-2.23,2.51,2.51,0,0,1,1.92-.79,2.44,2.44,0,0,1,1.87.78,3.09,3.09,0,0,1,.73,2.19q0,.09,0,.26h-4.25a2.19,2.19,0,0,0,.53,1.44,1.59,1.59,0,0,0,1.19.5,1.48,1.48,0,0,0,.91-.28A1.86,1.86,0,0,0,120.85,53.57ZM117.68,52h3.18a1.93,1.93,0,0,0-.37-1.08,1.48,1.48,0,0,0-1.2-.56,1.53,1.53,0,0,0-1.12.45A1.76,1.76,0,0,0,117.68,52Z"/><path d="M202.11,52l-5.22,2.23v-1L201,51.52l-4.13-1.7v-1l5.22,2.2Z"/><path d="M10.26,66.65l1,.26a3.51,3.51,0,0,1-1.18,2A3.25,3.25,0,0,1,8,69.54,3.75,3.75,0,0,1,6,69a3.24,3.24,0,0,1-1.21-1.5,5.36,5.36,0,0,1-.42-2.11,4.64,4.64,0,0,1,.47-2.15,3.22,3.22,0,0,1,1.34-1.39,3.91,3.91,0,0,1,1.91-.48,3.23,3.23,0,0,1,2,.6,3.12,3.12,0,0,1,1.12,1.69l-1,.24a2.43,2.43,0,0,0-.79-1.25A2.12,2.12,0,0,0,8,62.29a2.55,2.55,0,0,0-1.52.44,2.3,2.3,0,0,0-.86,1.17,4.71,4.71,0,0,0-.25,1.51,4.79,4.79,0,0,0,.29,1.75,2.18,2.18,0,0,0,.91,1.12A2.56,2.56,0,0,0,8,68.65a2.25,2.25,0,0,0,1.48-.5A2.58,2.58,0,0,0,10.26,66.65Z"/><path d="M16.42,69.41v-.84a2.09,2.09,0,0,1-1.81,1,2.3,2.3,0,0,1-.94-.19,1.55,1.55,0,0,1-.65-.49,1.82,1.82,0,0,1-.3-.72,4.89,4.89,0,0,1-.06-.9V63.7h1v3.16a5.62,5.62,0,0,0,.06,1,1,1,0,0,0,.39.6,1.2,1.2,0,0,0,.73.22,1.59,1.59,0,0,0,.82-.22,1.24,1.24,0,0,0,.54-.61,3,3,0,0,0,.16-1.11V63.7h1v5.7Z"/><path d="M19,69.41V63.7h.87v.86a2.37,2.37,0,0,1,.61-.8,1.08,1.08,0,0,1,.62-.19,1.89,1.89,0,0,1,1,.31l-.33.9a1.38,1.38,0,0,0-.71-.21.92.92,0,0,0-.57.19,1,1,0,0,0-.36.53A3.76,3.76,0,0,0,20,66.42v3Z"/><path d="M22.9,69.41V63.7h.87v.86a2.37,2.37,0,0,1,.61-.8,1.08,1.08,0,0,1,.62-.19,1.89,1.89,0,0,1,1,.31l-.33.9a1.38,1.38,0,0,0-.71-.21.92.92,0,0,0-.57.19,1,1,0,0,0-.36.53,3.76,3.76,0,0,0-.16,1.13v3Z"/><path d="M30.69,67.57l1,.12a2.44,2.44,0,0,1-.88,1.36,3,3,0,0,1-3.62-.29,3,3,0,0,1-.73-2.16,3.15,3.15,0,0,1,.74-2.23,2.51,2.51,0,0,1,1.92-.79,2.44,2.44,0,0,1,1.87.78,3.09,3.09,0,0,1,.73,2.19c0,.06,0,.14,0,.26H27.47A2.19,2.19,0,0,0,28,68.24a1.58,1.58,0,0,0,1.19.5,1.48,1.48,0,0,0,.91-.28A1.85,1.85,0,0,0,30.69,67.57ZM27.52,66H30.7a1.93,1.93,0,0,0-.37-1.08,1.48,1.48,0,0,0-1.2-.56,1.53,1.53,0,0,0-1.12.45A1.76,1.76,0,0,0,27.52,66Z"/><path d="M33.13,69.41V63.7H34v.81a2.05,2.05,0,0,1,1.82-.94,2.37,2.37,0,0,1,.95.19,1.48,1.48,0,0,1,.65.49,1.87,1.87,0,0,1,.3.71,5.55,5.55,0,0,1,.05.94v3.51h-1V65.94a2.61,2.61,0,0,0-.11-.88.93.93,0,0,0-.4-.47,1.27,1.27,0,0,0-.67-.17,1.57,1.57,0,0,0-1.07.39,1.93,1.93,0,0,0-.45,1.49v3.11Z"/><path d="M41.58,68.54l.14.85a3.63,3.63,0,0,1-.73.09,1.66,1.66,0,0,1-.82-.17.93.93,0,0,1-.41-.44,3.46,3.46,0,0,1-.12-1.14V64.46h-.71V63.7h.71V62.29l1-.58v2h1v.75h-1v3.34a1.68,1.68,0,0,0,.05.53.41.41,0,0,0,.17.19.64.64,0,0,0,.33.07Z"/><path d="M51.76,66.65l1,.26a3.51,3.51,0,0,1-1.18,2,3.25,3.25,0,0,1-2.08.67A3.75,3.75,0,0,1,47.47,69a3.24,3.24,0,0,1-1.21-1.5,5.36,5.36,0,0,1-.42-2.11,4.64,4.64,0,0,1,.47-2.15,3.22,3.22,0,0,1,1.34-1.39,3.91,3.91,0,0,1,1.91-.48,3.23,3.23,0,0,1,2,.6,3.12,3.12,0,0,1,1.12,1.69l-1,.24a2.43,2.43,0,0,0-.79-1.25,2.12,2.12,0,0,0-1.31-.39,2.55,2.55,0,0,0-1.52.44,2.3,2.3,0,0,0-.86,1.17,4.71,4.71,0,0,0-.25,1.51,4.79,4.79,0,0,0,.29,1.75,2.18,2.18,0,0,0,.91,1.12,2.56,2.56,0,0,0,1.34.37,2.25,2.25,0,0,0,1.48-.5A2.58,2.58,0,0,0,51.76,66.65Z"/><path d="M53.82,66.56a2.94,2.94,0,0,1,.88-2.35,2.66,2.66,0,0,1,1.79-.63,2.56,2.56,0,0,1,1.92.77,2.93,2.93,0,0,1,.75,2.13,3.77,3.77,0,0,1-.33,1.73,2.34,2.34,0,0,1-1,1,2.79,2.79,0,0,1-1.38.35,2.57,2.57,0,0,1-1.94-.77A3.07,3.07,0,0,1,53.82,66.56Zm1,0a2.43,2.43,0,0,0,.48,1.64,1.59,1.59,0,0,0,2.4,0,2.49,2.49,0,0,0,.48-1.67,2.36,2.36,0,0,0-.48-1.6,1.59,1.59,0,0,0-2.4,0A2.42,2.42,0,0,0,54.81,66.56Z"/><path d="M60.52,69.41V63.7h.87v.81a2.05,2.05,0,0,1,1.82-.94,2.37,2.37,0,0,1,.95.19,1.48,1.48,0,0,1,.65.49,1.87,1.87,0,0,1,.3.71,5.55,5.55,0,0,1,.05.94v3.51h-1V65.94a2.61,2.61,0,0,0-.11-.88.93.93,0,0,0-.4-.47,1.27,1.27,0,0,0-.67-.17,1.57,1.57,0,0,0-1.07.39,1.93,1.93,0,0,0-.45,1.49v3.11Z"/><path d="M69,68.54l.14.85a3.63,3.63,0,0,1-.73.09,1.66,1.66,0,0,1-.82-.17.93.93,0,0,1-.41-.44A3.46,3.46,0,0,1,67,67.74V64.46h-.71V63.7H67V62.29l1-.58v2h1v.75H68v3.34a1.68,1.68,0,0,0,.05.53.41.41,0,0,0,.17.19.64.64,0,0,0,.33.07Z"/><path d="M73.85,68.7a3.58,3.58,0,0,1-1,.64,3,3,0,0,1-1.07.19,2.07,2.07,0,0,1-1.44-.46,1.52,1.52,0,0,1-.5-1.17,1.58,1.58,0,0,1,.69-1.32,2.32,2.32,0,0,1,.7-.32,6.85,6.85,0,0,1,.86-.15,8.84,8.84,0,0,0,1.72-.33c0-.13,0-.22,0-.25a1.07,1.07,0,0,0-.27-.83,1.62,1.62,0,0,0-1.1-.33,1.71,1.71,0,0,0-1,.24,1.46,1.46,0,0,0-.48.85L70,65.33a2.34,2.34,0,0,1,.42-1,1.86,1.86,0,0,1,.85-.58,3.82,3.82,0,0,1,1.29-.2,3.42,3.42,0,0,1,1.19.17,1.56,1.56,0,0,1,.67.43,1.52,1.52,0,0,1,.3.66,5.44,5.44,0,0,1,0,.89V67a13.6,13.6,0,0,0,.06,1.71,2.15,2.15,0,0,0,.24.68H74A2.05,2.05,0,0,1,73.85,68.7Zm-.08-2.16a7.1,7.1,0,0,1-1.58.37,3.69,3.69,0,0,0-.84.19.84.84,0,0,0-.38.31.86.86,0,0,0,.16,1.1,1.26,1.26,0,0,0,.86.26,2,2,0,0,0,1-.25,1.5,1.5,0,0,0,.64-.67,2.33,2.33,0,0,0,.16-1Z"/><path d="M80.19,67.32l1,.12a2.47,2.47,0,0,1-.8,1.54,2.33,2.33,0,0,1-1.58.55,2.44,2.44,0,0,1-1.88-.77,3.1,3.1,0,0,1-.71-2.19A4,4,0,0,1,76.48,65a2.13,2.13,0,0,1,.93-1,2.76,2.76,0,0,1,1.36-.35,2.37,2.37,0,0,1,1.52.47,2.15,2.15,0,0,1,.76,1.33l-.94.15a1.56,1.56,0,0,0-.48-.86,1.23,1.23,0,0,0-.82-.29,1.5,1.5,0,0,0-1.19.52,2.49,2.49,0,0,0-.46,1.66,2.57,2.57,0,0,0,.44,1.67,1.43,1.43,0,0,0,1.15.52,1.35,1.35,0,0,0,1-.35A1.73,1.73,0,0,0,80.19,67.32Z"/><path d="M84.3,68.54l.14.85a3.63,3.63,0,0,1-.73.09,1.66,1.66,0,0,1-.82-.17.93.93,0,0,1-.41-.44,3.46,3.46,0,0,1-.12-1.14V64.46h-.71V63.7h.71V62.29l1-.58v2h1v.75h-1v3.34a1.68,1.68,0,0,0,.05.53.41.41,0,0,0,.17.19.64.64,0,0,0,.33.07Z"/><path d="M89,69.41V61.53h1v7.87Z"/><path d="M92,69.41V63.7h.87v.81a2.05,2.05,0,0,1,1.82-.94,2.37,2.37,0,0,1,.95.19,1.48,1.48,0,0,1,.65.49,1.87,1.87,0,0,1,.3.71,5.55,5.55,0,0,1,.05.94v3.51h-1V65.94a2.61,2.61,0,0,0-.11-.88.93.93,0,0,0-.4-.47,1.27,1.27,0,0,0-.67-.17,1.57,1.57,0,0,0-1.07.39A1.93,1.93,0,0,0,93,66.29v3.11Z"/><path d="M98.59,69.41v-5h-.85V63.7h.85V63.1a2.66,2.66,0,0,1,.1-.85,1.23,1.23,0,0,1,.49-.61,1.77,1.77,0,0,1,1-.23,4.74,4.74,0,0,1,.9.1l-.15.84a3.26,3.26,0,0,0-.57-.05.85.85,0,0,0-.62.19,1,1,0,0,0-.18.7v.53h1.11v.75H99.55v5Z"/><path d="M101.27,66.56a2.94,2.94,0,0,1,.88-2.35,2.66,2.66,0,0,1,1.79-.63,2.56,2.56,0,0,1,1.92.77,2.93,2.93,0,0,1,.75,2.13,3.77,3.77,0,0,1-.33,1.73,2.34,2.34,0,0,1-1,1,2.79,2.79,0,0,1-1.38.35,2.57,2.57,0,0,1-1.94-.77A3.07,3.07,0,0,1,101.27,66.56Zm1,0a2.43,2.43,0,0,0,.48,1.64,1.59,1.59,0,0,0,2.4,0,2.49,2.49,0,0,0,.48-1.67,2.36,2.36,0,0,0-.48-1.6,1.59,1.59,0,0,0-2.4,0A2.42,2.42,0,0,0,102.27,66.56Z"/><path d="M108.24,64.8V63.7h1.1v1.1Zm0,4.6v-1.1h1.1v1.1Z"/><path d="M202.11,66l-5.22,2.23v-1L201,65.52l-4.13-1.7v-1l5.22,2.2Z" style="fill:none"/><path d="M109.83,99.72a9.65,9.65,0,0,1-1.35-2.36,7.42,7.42,0,0,1-.14-5.25,10.28,10.28,0,0,1,1.49-2.71h.69q-.65,1.12-.86,1.6a8.74,8.74,0,0,0-.52,1.55,9,9,0,0,0-.23,2,9.69,9.69,0,0,0,1.61,5.16Z"/><path d="M111.71,93.52a7.2,7.2,0,0,1,.29-2.25,2.79,2.79,0,0,1,.85-1.31,2.18,2.18,0,0,1,1.43-.46,2.33,2.33,0,0,1,1.11.26,2.12,2.12,0,0,1,.79.74,4,4,0,0,1,.49,1.17,7.78,7.78,0,0,1,.18,1.86,7.22,7.22,0,0,1-.29,2.24,2.79,2.79,0,0,1-.85,1.32,2.4,2.4,0,0,1-3.22-.35A5.19,5.19,0,0,1,111.71,93.52Zm1,0a4.93,4.93,0,0,0,.45,2.58,1.3,1.3,0,0,0,2.24,0,7.56,7.56,0,0,0,0-5.16,1.35,1.35,0,0,0-1.13-.64,1.24,1.24,0,0,0-1.06.56A5,5,0,0,0,112.7,93.52Z"/><path d="M118.16,93.52a7.21,7.21,0,0,1,.29-2.25A2.8,2.8,0,0,1,119.3,90a2.18,2.18,0,0,1,1.43-.46,2.33,2.33,0,0,1,1.11.26,2.12,2.12,0,0,1,.79.74,3.93,3.93,0,0,1,.49,1.17,7.73,7.73,0,0,1,.18,1.86,7.19,7.19,0,0,1-.29,2.24,2.78,2.78,0,0,1-.85,1.32,2.39,2.39,0,0,1-3.22-.35A5.19,5.19,0,0,1,118.16,93.52Zm1,0a4.93,4.93,0,0,0,.45,2.58,1.3,1.3,0,0,0,2.24,0,7.58,7.58,0,0,0,0-5.16,1.35,1.35,0,0,0-1.13-.64,1.24,1.24,0,0,0-1.06.56A5,5,0,0,0,119.15,93.52Z"/><path d="M124.6,93.52a7.18,7.18,0,0,1,.29-2.25,2.79,2.79,0,0,1,.85-1.31,2.18,2.18,0,0,1,1.43-.46,2.33,2.33,0,0,1,1.11.26,2.12,2.12,0,0,1,.79.74,3.93,3.93,0,0,1,.49,1.17,7.79,7.79,0,0,1,.18,1.86,7.2,7.2,0,0,1-.28,2.24,2.8,2.8,0,0,1-.85,1.32,2.4,2.4,0,0,1-3.22-.35A5.19,5.19,0,0,1,124.6,93.52Zm1,0a4.93,4.93,0,0,0,.45,2.58,1.3,1.3,0,0,0,2.24,0,7.56,7.56,0,0,0,0-5.16,1.35,1.35,0,0,0-1.13-.64,1.24,1.24,0,0,0-1.06.56A5,5,0,0,0,125.6,93.52Z"/><path d="M132,99.72h-.69a9.69,9.69,0,0,0,1.61-5.16,8.86,8.86,0,0,0-.23-2,8.5,8.5,0,0,0-.51-1.55,18.19,18.19,0,0,0-.86-1.61H132a10.29,10.29,0,0,1,1.49,2.71,7.39,7.39,0,0,1-.14,5.25A9.83,9.83,0,0,1,132,99.72Z"/><path d="M138.43,93.52a7.18,7.18,0,0,1,.29-2.25,2.79,2.79,0,0,1,.85-1.31A2.18,2.18,0,0,1,141,89.5a2.33,2.33,0,0,1,1.11.26,2.12,2.12,0,0,1,.79.74,4,4,0,0,1,.49,1.17,7.84,7.84,0,0,1,.18,1.86,7.23,7.23,0,0,1-.28,2.24,2.8,2.8,0,0,1-.85,1.32,2.4,2.4,0,0,1-3.22-.35A5.19,5.19,0,0,1,138.43,93.52Zm1,0a4.93,4.93,0,0,0,.46,2.58,1.29,1.29,0,0,0,2.24,0,7.55,7.55,0,0,0,0-5.16A1.35,1.35,0,0,0,141,90.3a1.24,1.24,0,0,0-1.06.56A5,5,0,0,0,139.42,93.52Z"/><path d="M144.88,93.52a7.21,7.21,0,0,1,.29-2.25A2.8,2.8,0,0,1,146,90a2.18,2.18,0,0,1,1.43-.46,2.33,2.33,0,0,1,1.11.26,2.12,2.12,0,0,1,.79.74,4,4,0,0,1,.49,1.17,7.78,7.78,0,0,1,.18,1.86,7.22,7.22,0,0,1-.29,2.24,2.79,2.79,0,0,1-.85,1.32,2.4,2.4,0,0,1-3.22-.35A5.19,5.19,0,0,1,144.88,93.52Zm1,0a4.93,4.93,0,0,0,.45,2.58,1.3,1.3,0,0,0,2.24,0,7.56,7.56,0,0,0,0-5.16,1.35,1.35,0,0,0-1.13-.64,1.24,1.24,0,0,0-1.06.56A5,5,0,0,0,145.87,93.52Z"/><path d="M151.33,93.52a7.21,7.21,0,0,1,.29-2.25,2.8,2.8,0,0,1,.85-1.31,2.18,2.18,0,0,1,1.43-.46,2.33,2.33,0,0,1,1.11.26,2.12,2.12,0,0,1,.79.74,3.93,3.93,0,0,1,.49,1.17,7.73,7.73,0,0,1,.18,1.86,7.19,7.19,0,0,1-.29,2.24,2.78,2.78,0,0,1-.85,1.32,2.39,2.39,0,0,1-3.22-.35A5.19,5.19,0,0,1,151.33,93.52Zm1,0a4.93,4.93,0,0,0,.45,2.58,1.3,1.3,0,0,0,2.24,0,7.58,7.58,0,0,0,0-5.16,1.35,1.35,0,0,0-1.13-.64,1.24,1.24,0,0,0-1.06.56A5,5,0,0,0,152.32,93.52Z"/><path d="M158.33,95v-1h3v1Z"/><path d="M163.09,93.52a7.18,7.18,0,0,1,.29-2.25,2.79,2.79,0,0,1,.85-1.31,2.18,2.18,0,0,1,1.43-.46,2.33,2.33,0,0,1,1.11.26,2.12,2.12,0,0,1,.79.74,4,4,0,0,1,.49,1.17,7.84,7.84,0,0,1,.18,1.86,7.23,7.23,0,0,1-.28,2.24,2.8,2.8,0,0,1-.85,1.32,2.4,2.4,0,0,1-3.22-.35A5.19,5.19,0,0,1,163.09,93.52Zm1,0a4.93,4.93,0,0,0,.46,2.58,1.29,1.29,0,0,0,2.24,0,7.55,7.55,0,0,0,0-5.16,1.35,1.35,0,0,0-1.13-.64,1.24,1.24,0,0,0-1.06.56A5,5,0,0,0,164.08,93.52Z"/><path d="M169.54,93.52a7.21,7.21,0,0,1,.29-2.25,2.8,2.8,0,0,1,.85-1.31,2.18,2.18,0,0,1,1.43-.46,2.33,2.33,0,0,1,1.11.26,2.12,2.12,0,0,1,.79.74,4,4,0,0,1,.49,1.17,7.78,7.78,0,0,1,.18,1.86,7.22,7.22,0,0,1-.29,2.24,2.79,2.79,0,0,1-.85,1.32,2.4,2.4,0,0,1-3.22-.35A5.19,5.19,0,0,1,169.54,93.52Zm1,0A4.93,4.93,0,0,0,171,96.1a1.3,1.3,0,0,0,2.24,0,7.56,7.56,0,0,0,0-5.16,1.35,1.35,0,0,0-1.13-.64,1.24,1.24,0,0,0-1.06.56A5,5,0,0,0,170.53,93.52Z"/><path d="M176,93.52a7.21,7.21,0,0,1,.29-2.25,2.8,2.8,0,0,1,.85-1.31,2.18,2.18,0,0,1,1.43-.46,2.33,2.33,0,0,1,1.11.26,2.12,2.12,0,0,1,.79.74,3.93,3.93,0,0,1,.49,1.17,7.73,7.73,0,0,1,.18,1.86,7.19,7.19,0,0,1-.29,2.24,2.78,2.78,0,0,1-.85,1.32,2.39,2.39,0,0,1-3.22-.35A5.19,5.19,0,0,1,176,93.52Zm1,0a4.93,4.93,0,0,0,.45,2.58,1.3,1.3,0,0,0,2.24,0,7.58,7.58,0,0,0,0-5.16,1.35,1.35,0,0,0-1.13-.64,1.24,1.24,0,0,0-1.06.56A5,5,0,0,0,177,93.52Z"/><path d="M182.43,93.52a7.18,7.18,0,0,1,.29-2.25,2.79,2.79,0,0,1,.85-1.31A2.18,2.18,0,0,1,185,89.5a2.33,2.33,0,0,1,1.11.26,2.12,2.12,0,0,1,.79.74,3.93,3.93,0,0,1,.49,1.17,7.79,7.79,0,0,1,.18,1.86,7.2,7.2,0,0,1-.28,2.24,2.8,2.8,0,0,1-.85,1.32,2.4,2.4,0,0,1-3.22-.35A5.19,5.19,0,0,1,182.43,93.52Zm1,0a4.93,4.93,0,0,0,.45,2.58,1.3,1.3,0,0,0,2.24,0,7.56,7.56,0,0,0,0-5.16A1.35,1.35,0,0,0,185,90.3a1.24,1.24,0,0,0-1.06.56A5,5,0,0,0,183.42,93.52Z"/><path d="M201.89,94l-5.22,2.23v-1l4.13-1.71-4.13-1.7v-1l5.22,2.2Z" style="fill:none"/></svg>