<svg id="Layer_1" data-name="Layer 1" xmlns="http://www.w3.org/2000/svg" viewBox="0 0 225.68 130.33"><title>UIM_fault_history_menu</title><rect x="0.5" y="0.5" width="224.67" height="129.31" style="fill:none;stroke:#000"/><rect x="1.37" y="0.64" width="223.81" height="14.46" style="stroke:#000"/><rect x="0.49" y="101.87" width="224.67" height="27.94" style="fill:none"/><path d="M83.24,11V3.84h5.07v.84H84.23V6.9h3.53v.84H84.23V11Z" style="fill:#fff"/><path d="M93.3,10.36a3.46,3.46,0,0,1-1,.59,3,3,0,0,1-1,.17,2,2,0,0,1-1.38-.42,1.35,1.35,0,0,1-.48-1.07,1.36,1.36,0,0,1,.18-.7,1.46,1.46,0,0,1,.48-.51,2.3,2.3,0,0,1,.66-.29A7,7,0,0,1,91.57,8a8.79,8.79,0,0,0,1.65-.3c0-.12,0-.2,0-.23A.94.94,0,0,0,93,6.72a1.6,1.6,0,0,0-1.05-.3,1.69,1.69,0,0,0-1,.22,1.32,1.32,0,0,0-.46.77l-.9-.12A2.08,2.08,0,0,1,90,6.4a1.78,1.78,0,0,1,.82-.52A3.8,3.8,0,0,1,92,5.7a3.42,3.42,0,0,1,1.13.16,1.5,1.5,0,0,1,.64.39,1.35,1.35,0,0,1,.29.6,4.71,4.71,0,0,1,0,.81V8.83a11.92,11.92,0,0,0,.06,1.55,1.9,1.9,0,0,0,.23.62h-1A1.79,1.79,0,0,1,93.3,10.36Zm-.08-2a7.06,7.06,0,0,1-1.51.33,3.65,3.65,0,0,0-.81.18.79.79,0,0,0-.36.29.72.72,0,0,0-.13.42.73.73,0,0,0,.28.59,1.24,1.24,0,0,0,.82.23,2,2,0,0,0,.95-.22,1.4,1.4,0,0,0,.61-.61,2,2,0,0,0,.15-.88Z" style="fill:#fff"/><path d="M99.41,11v-.76a2,2,0,0,1-1.73.88,2.3,2.3,0,0,1-.9-.18,1.48,1.48,0,0,1-.62-.44,1.61,1.61,0,0,1-.28-.65A4.26,4.26,0,0,1,95.83,9V5.81h.92V8.69a4.89,4.89,0,0,0,.06.93.91.91,0,0,0,.37.54,1.18,1.18,0,0,0,.7.2,1.58,1.58,0,0,0,.78-.2,1.15,1.15,0,0,0,.52-.55,2.64,2.64,0,0,0,.15-1V5.81h.92V11Z" style="fill:#fff"/><path d="M101.93,11V3.84h.92V11Z" style="fill:#fff"/><path d="M106.56,10.21l.13.78a3.57,3.57,0,0,1-.7.08,1.64,1.64,0,0,1-.78-.15.87.87,0,0,1-.39-.4,3,3,0,0,1-.11-1v-3H104V5.81h.68V4.53l.92-.53V5.81h.93V6.5h-.93v3a1.47,1.47,0,0,0,0,.48.37.37,0,0,0,.16.17.64.64,0,0,0,.31.06Z" style="fill:#fff"/><path d="M111.05,11V3.84h1V6.78H116V3.84h1V11h-1V7.62H112V11Z" style="fill:#fff"/><path d="M118.75,4.85v-1h.92v1Zm0,6.15V5.81h.92V11Z" style="fill:#fff"/><path d="M121,9.45l.91-.14a1.19,1.19,0,0,0,.43.8,1.55,1.55,0,0,0,1,.28,1.49,1.49,0,0,0,.94-.25.73.73,0,0,0,.31-.58.53.53,0,0,0-.27-.47,4.17,4.17,0,0,0-.94-.3,9,9,0,0,1-1.41-.42,1.35,1.35,0,0,1-.59-.49,1.26,1.26,0,0,1-.2-.7,1.28,1.28,0,0,1,.17-.64,1.44,1.44,0,0,1,.45-.49,2,2,0,0,1,.59-.26,2.93,2.93,0,0,1,.8-.1,3.29,3.29,0,0,1,1.13.18,1.54,1.54,0,0,1,.71.48,1.81,1.81,0,0,1,.32.8l-.9.12a.93.93,0,0,0-.36-.62,1.35,1.35,0,0,0-.83-.22,1.57,1.57,0,0,0-.91.2.58.58,0,0,0-.27.47.47.47,0,0,0,.11.31.81.81,0,0,0,.35.23l.81.22a11.71,11.71,0,0,1,1.37.41,1.38,1.38,0,0,1,.61.46,1.25,1.25,0,0,1,.22.75,1.43,1.43,0,0,1-.27.83,1.72,1.72,0,0,1-.78.6,3,3,0,0,1-1.15.21,2.65,2.65,0,0,1-1.62-.42A1.92,1.92,0,0,1,121,9.45Z" style="fill:#fff"/><path d="M128.87,10.21,129,11a3.57,3.57,0,0,1-.7.08,1.64,1.64,0,0,1-.78-.15.87.87,0,0,1-.39-.4,3,3,0,0,1-.11-1v-3h-.68V5.81H127V4.53l.92-.53V5.81h.93V6.5h-.93v3a1.51,1.51,0,0,0,0,.48.38.38,0,0,0,.16.17.63.63,0,0,0,.31.06Z" style="fill:#fff"/><path d="M129.69,8.41a2.61,2.61,0,0,1,.84-2.13,2.61,2.61,0,0,1,1.71-.58,2.5,2.5,0,0,1,1.83.7,2.59,2.59,0,0,1,.71,1.94,3.31,3.31,0,0,1-.31,1.57,2.18,2.18,0,0,1-.92.89,2.78,2.78,0,0,1-1.32.32,2.51,2.51,0,0,1-1.85-.7A2.71,2.71,0,0,1,129.69,8.41Zm.95,0a2.14,2.14,0,0,0,.46,1.49,1.57,1.57,0,0,0,2.29,0,2.19,2.19,0,0,0,.46-1.52,2.08,2.08,0,0,0-.46-1.46,1.57,1.57,0,0,0-2.29,0A2.13,2.13,0,0,0,130.64,8.41Z" style="fill:#fff"/><path d="M136.13,11V5.81H137V6.6a2.16,2.16,0,0,1,.59-.73,1.06,1.06,0,0,1,.59-.18,1.87,1.87,0,0,1,.95.28l-.32.82a1.37,1.37,0,0,0-.68-.19.91.91,0,0,0-.54.17.94.94,0,0,0-.34.48,3.27,3.27,0,0,0-.15,1V11Z" style="fill:#fff"/><path d="M139.86,13l-.1-.83a2.14,2.14,0,0,0,.53.08,1.06,1.06,0,0,0,.49-.1.82.82,0,0,0,.3-.27,4.25,4.25,0,0,0,.28-.65l.08-.21-2.07-5.2h1l1.13,3q.22.57.39,1.2a11.41,11.41,0,0,1,.38-1.18l1.16-3h.92l-2.07,5.27a10.13,10.13,0,0,1-.52,1.18,1.77,1.77,0,0,1-.56.64,1.38,1.38,0,0,1-.76.2A1.92,1.92,0,0,1,139.86,13Z" style="fill:#fff"/><rect x="0.53" y="101.87" width="44.92" height="27.98" style="fill:none"/><rect x="45.65" y="101.87" width="44.92" height="27.98" style="fill:none"/><rect x="90.57" y="101.87" width="44.92" height="27.98" style="fill:none;stroke:#000;stroke-linecap:round;stroke-linejoin:round;stroke-width:0.9753649999999999px"/><rect x="180.23" y="101.87" width="44.92" height="27.98" style="fill:none;stroke:#000;stroke-linecap:round;stroke-linejoin:round;stroke-width:0.9753649999999999px"/><rect x="135.36" y="101.87" width="44.92" height="27.98" style="fill:none"/><rect x="2.78" y="17.42" width="204.89" height="13.39" style="fill:none"/><line x1="0.53" y1="101.87" x2="225.04" y2="101.87" style="fill:none;stroke:#000;stroke-linecap:round;stroke-linejoin:round;stroke-width:0.9753649999999999px"/><path d="M193.64,118.84V111h.65v3.23h2.56V111h.65v7.87h-.65v-3.71h-2.56v3.71Z"/><path d="M199.16,118.84V111h3.57v.93h-2.91v2.41h2.73v.92h-2.73v2.68h3v.93Z"/><path d="M204.27,118.84V111h.65v6.95h2.43v.93Z"/><path d="M208.68,118.84V111h1.86a2.86,2.86,0,0,1,.75.08,1.22,1.22,0,0,1,.61.37,2,2,0,0,1,.4.76,3.66,3.66,0,0,1,.15,1.07,3.36,3.36,0,0,1-.4,1.7,1.53,1.53,0,0,1-1.45.7h-1.26v3.2Zm.65-4.13h1.27a1,1,0,0,0,.9-.38,1.81,1.81,0,0,0,.27-1.06,2.07,2.07,0,0,0-.16-.85.84.84,0,0,0-.41-.46,1.8,1.8,0,0,0-.61-.07h-1.26Z"/><rect x="209.68" y="83.2" width="15.48" height="18.65" style="fill:none;stroke:#000;stroke-width:0.9753649999999999px"/><polygon points="210.46 92.12 217.43 99.08 224.37 92.12 210.46 92.12"/><rect x="209.68" y="15.08" width="15.48" height="18.65" style="fill:none;stroke:#000;stroke-width:0.9753649999999999px"/><rect x="210.23" y="35.02" width="13.56" height="15.35"/><polygon points="224.4 24.93 217.43 17.97 210.48 24.93 224.4 24.93"/><path d="M103.71,118.84V111h1.85a1.38,1.38,0,0,1,1.44,1,2.84,2.84,0,0,1,.19,1,2.61,2.61,0,0,1-.17,1,1.66,1.66,0,0,1-.52.72,1.43,1.43,0,0,1,.69.71,2.74,2.74,0,0,1,.24,1.19,3.48,3.48,0,0,1-.15,1,2.12,2.12,0,0,1-.36.73,1.35,1.35,0,0,1-.54.39,2.11,2.11,0,0,1-.79.13Zm.65-4.57h1.07a1.52,1.52,0,0,0,.62-.09.77.77,0,0,0,.38-.39,1.64,1.64,0,0,0,.13-.69,1.86,1.86,0,0,0-.12-.69.73.73,0,0,0-.34-.41,1.82,1.82,0,0,0-.75-.11h-1Zm0,3.64h1.23a1.81,1.81,0,0,0,.44,0,.85.85,0,0,0,.38-.21,1.1,1.1,0,0,0,.25-.44,2.06,2.06,0,0,0,.1-.66,1.9,1.9,0,0,0-.14-.77.89.89,0,0,0-.39-.46,1.58,1.58,0,0,0-.72-.13h-1.14Z"/><path d="M108.34,118.84l1.89-7.87h.7l2,7.87h-.74l-.58-2.38h-2.06l-.54,2.38Zm1.42-3.23h1.67l-.51-2.18c-.16-.66-.27-1.21-.35-1.63a14.87,14.87,0,0,1-.27,1.5Z"/><path d="M117.55,116.08l.65.26a4.21,4.21,0,0,1-.74,2,1.61,1.61,0,0,1-1.3.67,1.72,1.72,0,0,1-1.3-.52,3.37,3.37,0,0,1-.76-1.5,8.2,8.2,0,0,1-.26-2.11,7,7,0,0,1,.29-2.15,3,3,0,0,1,.84-1.39,1.78,1.78,0,0,1,1.2-.48,1.56,1.56,0,0,1,1.24.6,3.59,3.59,0,0,1,.7,1.69l-.64.24a2.84,2.84,0,0,0-.5-1.25,1,1,0,0,0-.82-.39,1.22,1.22,0,0,0-1,.43,2.54,2.54,0,0,0-.54,1.17,7.29,7.29,0,0,0-.16,1.51,7.44,7.44,0,0,0,.18,1.75,2.26,2.26,0,0,0,.57,1.12,1.19,1.19,0,0,0,.84.37,1.13,1.13,0,0,0,.93-.51A3.22,3.22,0,0,0,117.55,116.08Z"/><path d="M119.53,118.84V111h.65v3.9l2.45-3.9h.88l-2.07,3.19,2.16,4.68h-.86l-1.76-4-.81,1.26v2.73Z"/><path d="M7.89,27.41h-1V21.25a5,5,0,0,1-.92.67,6.47,6.47,0,0,1-1,.5v-.93a5.84,5.84,0,0,0,1.42-.92,3.63,3.63,0,0,0,.86-1.05h.62Z"/><path d="M11.13,22.8V21.7h1.1v1.1Zm0,4.6v-1.1h1.1v1.1Z"/><path d="M36.68,19.53h1v4.55A5.38,5.38,0,0,1,37.46,26a2.3,2.3,0,0,1-1,1.14,3.43,3.43,0,0,1-1.84.44,3.78,3.78,0,0,1-1.81-.38,2.18,2.18,0,0,1-1-1.1,5.26,5.26,0,0,1-.3-2V19.53h1v4.54a4.42,4.42,0,0,0,.19,1.51,1.44,1.44,0,0,0,.66.75,2.27,2.27,0,0,0,1.14.26,2.17,2.17,0,0,0,1.64-.52,3,3,0,0,0,.49-2Z"/><path d="M39.56,29.59V21.7h.88v.74a2.16,2.16,0,0,1,.7-.65,1.93,1.93,0,0,1,1-.22,2.26,2.26,0,0,1,1.29.38A2.31,2.31,0,0,1,44.22,23a3.87,3.87,0,0,1,.28,1.5,3.82,3.82,0,0,1-.31,1.58,2.38,2.38,0,0,1-.91,1.07,2.35,2.35,0,0,1-1.26.37,1.82,1.82,0,0,1-.87-.2,2,2,0,0,1-.63-.52v2.78Zm.88-5a2.48,2.48,0,0,0,.45,1.63,1.37,1.37,0,0,0,1.08.53,1.4,1.4,0,0,0,1.1-.54,2.58,2.58,0,0,0,.46-1.69,2.52,2.52,0,0,0-.45-1.63A1.35,1.35,0,0,0,42,22.33a1.39,1.39,0,0,0-1.09.58A2.58,2.58,0,0,0,40.43,24.59Z"/><path d="M45.89,29.59V21.7h.88v.74a2.16,2.16,0,0,1,.7-.65,1.93,1.93,0,0,1,1-.22,2.26,2.26,0,0,1,1.29.38A2.31,2.31,0,0,1,50.56,23a3.87,3.87,0,0,1,.28,1.5,3.82,3.82,0,0,1-.31,1.58,2.38,2.38,0,0,1-.91,1.07,2.35,2.35,0,0,1-1.26.37,1.82,1.82,0,0,1-.87-.2,2,2,0,0,1-.63-.52v2.78Zm.88-5a2.48,2.48,0,0,0,.45,1.63,1.37,1.37,0,0,0,1.08.53,1.4,1.4,0,0,0,1.1-.54,2.58,2.58,0,0,0,.46-1.69,2.52,2.52,0,0,0-.45-1.63,1.35,1.35,0,0,0-1.07-.54,1.39,1.39,0,0,0-1.09.58A2.58,2.58,0,0,0,46.77,24.59Z"/><path d="M56.14,25.57l1,.12a2.44,2.44,0,0,1-.88,1.36,3,3,0,0,1-3.62-.29,3,3,0,0,1-.73-2.16,3.15,3.15,0,0,1,.74-2.23,2.51,2.51,0,0,1,1.92-.79,2.44,2.44,0,0,1,1.87.78,3.09,3.09,0,0,1,.73,2.19c0,.06,0,.14,0,.26H52.91a2.19,2.19,0,0,0,.53,1.44,1.58,1.58,0,0,0,1.19.5,1.48,1.48,0,0,0,.91-.28A1.86,1.86,0,0,0,56.14,25.57ZM53,24h3.19a1.93,1.93,0,0,0-.37-1.08,1.48,1.48,0,0,0-1.2-.56,1.53,1.53,0,0,0-1.12.45A1.76,1.76,0,0,0,53,24Z"/><path d="M58.56,27.41V21.7h.87v.86a2.37,2.37,0,0,1,.61-.8,1.08,1.08,0,0,1,.62-.19,1.89,1.89,0,0,1,1,.31l-.33.9a1.38,1.38,0,0,0-.71-.21.92.92,0,0,0-.57.19,1,1,0,0,0-.36.53,3.77,3.77,0,0,0-.16,1.13v3Z"/><path d="M67.66,27.41V20.46H65.06v-.93H71.3v.93H68.7v6.94Z"/><path d="M75.16,25.57l1,.12a2.44,2.44,0,0,1-.88,1.36,3,3,0,0,1-3.62-.29,3,3,0,0,1-.73-2.16,3.15,3.15,0,0,1,.74-2.23,2.51,2.51,0,0,1,1.92-.79,2.44,2.44,0,0,1,1.87.78,3.09,3.09,0,0,1,.73,2.19c0,.06,0,.14,0,.26H71.93a2.19,2.19,0,0,0,.53,1.44,1.58,1.58,0,0,0,1.19.5,1.48,1.48,0,0,0,.91-.28A1.86,1.86,0,0,0,75.16,25.57ZM72,24h3.19a1.93,1.93,0,0,0-.37-1.08,1.48,1.48,0,0,0-1.2-.56,1.53,1.53,0,0,0-1.12.45A1.76,1.76,0,0,0,72,24Z"/><path d="M77.59,27.41V21.7h.86v.8a2,2,0,0,1,.71-.67,2,2,0,0,1,1-.25,1.88,1.88,0,0,1,1,.26,1.41,1.41,0,0,1,.57.74,2,2,0,0,1,1.76-1,1.74,1.74,0,0,1,1.31.47,2,2,0,0,1,.46,1.45v3.92h-1V23.81a2.64,2.64,0,0,0-.09-.84.81.81,0,0,0-.34-.41,1.06,1.06,0,0,0-.58-.16,1.35,1.35,0,0,0-1,.4,1.76,1.76,0,0,0-.4,1.28v3.31H81V23.7a1.63,1.63,0,0,0-.24-1,.9.9,0,0,0-.77-.32,1.41,1.41,0,0,0-.75.21,1.22,1.22,0,0,0-.5.63,3.53,3.53,0,0,0-.16,1.19v3Z"/><path d="M87,29.59V21.7h.88v.74a2.16,2.16,0,0,1,.7-.65,1.93,1.93,0,0,1,1-.22A2.26,2.26,0,0,1,90.8,22,2.31,2.31,0,0,1,91.64,23a3.87,3.87,0,0,1,.28,1.5,3.82,3.82,0,0,1-.31,1.58,2.38,2.38,0,0,1-.91,1.07,2.35,2.35,0,0,1-1.26.37,1.82,1.82,0,0,1-.87-.2,2,2,0,0,1-.63-.52v2.78Zm.88-5a2.48,2.48,0,0,0,.45,1.63,1.37,1.37,0,0,0,1.08.53,1.4,1.4,0,0,0,1.1-.54,2.58,2.58,0,0,0,.46-1.69,2.52,2.52,0,0,0-.45-1.63,1.35,1.35,0,0,0-1.07-.54,1.39,1.39,0,0,0-1.09.58A2.58,2.58,0,0,0,87.85,24.59Z"/><path d="M96.71,27.41V19.53h3a7.15,7.15,0,0,1,1.2.08,2.37,2.37,0,0,1,1,.37,1.93,1.93,0,0,1,.63.76,2.56,2.56,0,0,1-.4,2.77,3.07,3.07,0,0,1-2.31.7h-2v3.2Zm1-4.13h2a2.16,2.16,0,0,0,1.43-.38,1.34,1.34,0,0,0,.42-1.06,1.43,1.43,0,0,0-.25-.85,1.17,1.17,0,0,0-.66-.46,4.46,4.46,0,0,0-1-.07h-2Z"/><path d="M104.13,27.41V21.7H105v.86a2.37,2.37,0,0,1,.61-.8,1.08,1.08,0,0,1,.62-.19,1.89,1.89,0,0,1,1,.31l-.33.9a1.38,1.38,0,0,0-.71-.21.92.92,0,0,0-.57.19,1,1,0,0,0-.36.53,3.77,3.77,0,0,0-.16,1.13v3Z"/><path d="M107.66,24.56a2.94,2.94,0,0,1,.88-2.35,2.66,2.66,0,0,1,1.79-.63,2.56,2.56,0,0,1,1.92.77,2.93,2.93,0,0,1,.75,2.13,3.77,3.77,0,0,1-.33,1.73,2.34,2.34,0,0,1-1,1,2.8,2.8,0,0,1-1.38.35,2.56,2.56,0,0,1-1.94-.77A3.07,3.07,0,0,1,107.66,24.56Zm1,0a2.43,2.43,0,0,0,.48,1.64,1.59,1.59,0,0,0,2.4,0,2.49,2.49,0,0,0,.48-1.67,2.36,2.36,0,0,0-.48-1.6,1.59,1.59,0,0,0-2.4,0A2.42,2.42,0,0,0,108.66,24.56Z"/><path d="M115.25,27.41h-.9V19.53h1v2.81a1.91,1.91,0,0,1,1.56-.77,2.4,2.4,0,0,1,1,.21,2,2,0,0,1,.77.6,2.87,2.87,0,0,1,.47.93,3.8,3.8,0,0,1,.17,1.16,3.26,3.26,0,0,1-.72,2.27,2.27,2.27,0,0,1-1.74.8,1.81,1.81,0,0,1-1.58-.84Zm0-2.9a3,3,0,0,0,.28,1.48,1.38,1.38,0,0,0,2.33.2,2.5,2.5,0,0,0,.46-1.64,2.55,2.55,0,0,0-.44-1.65,1.35,1.35,0,0,0-1.07-.53,1.39,1.39,0,0,0-1.1.55A2.41,2.41,0,0,0,115.24,24.51Z"/><path d="M124.6,25.57l1,.12a2.44,2.44,0,0,1-.88,1.36,3,3,0,0,1-3.62-.29,3,3,0,0,1-.73-2.16,3.15,3.15,0,0,1,.74-2.23,2.51,2.51,0,0,1,1.92-.79,2.44,2.44,0,0,1,1.87.78,3.09,3.09,0,0,1,.72,2.19c0,.06,0,.14,0,.26h-4.25a2.19,2.19,0,0,0,.53,1.44,1.58,1.58,0,0,0,1.19.5,1.48,1.48,0,0,0,.91-.28A1.85,1.85,0,0,0,124.6,25.57ZM121.43,24h3.19a1.93,1.93,0,0,0-.37-1.08,1.48,1.48,0,0,0-1.2-.56,1.54,1.54,0,0,0-1.12.45A1.76,1.76,0,0,0,121.43,24Z"/><path d="M132.16,29.72a9.69,9.69,0,0,1-1.35-2.36,7.42,7.42,0,0,1-.14-5.25,10.31,10.31,0,0,1,1.49-2.71h.69q-.65,1.12-.86,1.6a8.66,8.66,0,0,0-.52,1.55,9,9,0,0,0-.23,2,9.7,9.7,0,0,0,1.61,5.16Z"/><path d="M134,23.57a4.28,4.28,0,0,1,1.05-3.07,3.58,3.58,0,0,1,2.72-1.11,3.77,3.77,0,0,1,2,.52,3.41,3.41,0,0,1,1.33,1.45,4.71,4.71,0,0,1,.46,2.11,4.64,4.64,0,0,1-.48,2.14,3.3,3.3,0,0,1-1.37,1.43,3.91,3.91,0,0,1-1.91.49,3.72,3.72,0,0,1-2-.54,3.45,3.45,0,0,1-1.33-1.47A4.44,4.44,0,0,1,134,23.57Zm1.07,0a3.16,3.16,0,0,0,.76,2.24,2.67,2.67,0,0,0,3.86,0,3.35,3.35,0,0,0,.76-2.35,4,4,0,0,0-.32-1.68,2.5,2.5,0,0,0-1-1.11,2.58,2.58,0,0,0-1.4-.4,2.66,2.66,0,0,0-1.9.76A3.4,3.4,0,0,0,135.08,23.59Z"/><path d="M143,29.59V21.7h.88v.74a2.15,2.15,0,0,1,.7-.65,1.93,1.93,0,0,1,1-.22,2.26,2.26,0,0,1,1.29.38,2.31,2.31,0,0,1,.84,1.06,3.86,3.86,0,0,1,.28,1.5,3.82,3.82,0,0,1-.31,1.58,2.38,2.38,0,0,1-.91,1.07,2.35,2.35,0,0,1-1.26.37,1.82,1.82,0,0,1-.87-.2,2,2,0,0,1-.63-.52v2.78Zm.88-5a2.48,2.48,0,0,0,.45,1.63,1.37,1.37,0,0,0,1.08.53,1.4,1.4,0,0,0,1.1-.54,2.59,2.59,0,0,0,.46-1.69,2.52,2.52,0,0,0-.45-1.63,1.35,1.35,0,0,0-1.07-.54,1.39,1.39,0,0,0-1.09.58A2.58,2.58,0,0,0,143.85,24.59Z"/><path d="M153.22,25.57l1,.12a2.43,2.43,0,0,1-.88,1.36,3,3,0,0,1-3.62-.29A3,3,0,0,1,149,24.6a3.15,3.15,0,0,1,.74-2.23,2.51,2.51,0,0,1,1.92-.79,2.44,2.44,0,0,1,1.87.78,3.1,3.1,0,0,1,.72,2.19q0,.09,0,.26H150a2.19,2.19,0,0,0,.53,1.44,1.58,1.58,0,0,0,1.19.5,1.48,1.48,0,0,0,.91-.28A1.85,1.85,0,0,0,153.22,25.57ZM150,24h3.18a1.93,1.93,0,0,0-.37-1.08,1.48,1.48,0,0,0-1.2-.56,1.53,1.53,0,0,0-1.12.45A1.76,1.76,0,0,0,150,24Z"/><path d="M155.65,27.41V21.7h.87v.81a2.05,2.05,0,0,1,1.82-.94,2.37,2.37,0,0,1,.95.19,1.48,1.48,0,0,1,.65.49,1.87,1.87,0,0,1,.3.71,5.5,5.5,0,0,1,.05.94v3.51h-1V23.94a2.58,2.58,0,0,0-.11-.88.92.92,0,0,0-.4-.47,1.27,1.27,0,0,0-.67-.17,1.57,1.57,0,0,0-1.07.39,1.93,1.93,0,0,0-.45,1.49v3.12Z"/><path d="M162.62,29.72h-.69a9.69,9.69,0,0,0,1.61-5.16,8.8,8.8,0,0,0-.23-2,8.35,8.35,0,0,0-.51-1.55,18,18,0,0,0-.87-1.61h.69a10.28,10.28,0,0,1,1.49,2.71,7.41,7.41,0,0,1-.14,5.25A9.88,9.88,0,0,1,162.62,29.72Z"/><path d="M171,29.72a9.69,9.69,0,0,1-1.35-2.36,7.42,7.42,0,0,1-.14-5.25A10.28,10.28,0,0,1,171,19.4h.69a18.12,18.12,0,0,0-.86,1.6,8.66,8.66,0,0,0-.52,1.55,9,9,0,0,0-.23,2,9.69,9.69,0,0,0,1.61,5.16Z"/><path d="M175.86,27.41V25.52h-3.42v-.89l3.59-5.1h.79v5.1h1.06v.89h-1.06v1.89Zm0-2.77V21.09l-2.47,3.55Z"/><path d="M179.16,20.56v-.93h5.1v.75a10.76,10.76,0,0,0-1.49,2.13,12.9,12.9,0,0,0-1.14,2.73,10.14,10.14,0,0,0-.37,2.16h-1a9.72,9.72,0,0,1,.37-2.25,11.8,11.8,0,0,1,1-2.54A10.92,10.92,0,0,1,183,20.56Z"/><path d="M186.34,29.72h-.69a9.7,9.7,0,0,0,1.61-5.16,8.86,8.86,0,0,0-.23-2,8.5,8.5,0,0,0-.51-1.55,18.19,18.19,0,0,0-.86-1.61h.69a10.31,10.31,0,0,1,1.49,2.71,7.39,7.39,0,0,1-.14,5.25A9.84,9.84,0,0,1,186.34,29.72Z"/><path d="M202.11,24l-5.22,2.23v-1L201,23.52l-4.13-1.7v-1l5.22,2.2Z"/><path d="M41.26,37.52a7.19,7.19,0,0,1,.29-2.25A2.8,2.8,0,0,1,42.4,34a2.18,2.18,0,0,1,1.43-.46,2.33,2.33,0,0,1,1.11.25,2.12,2.12,0,0,1,.79.74,4,4,0,0,1,.49,1.17,7.78,7.78,0,0,1,.18,1.86,7.22,7.22,0,0,1-.28,2.24,2.8,2.8,0,0,1-.85,1.32,2.18,2.18,0,0,1-1.43.46A2.16,2.16,0,0,1,42,40.73,5.19,5.19,0,0,1,41.26,37.52Zm1,0a4.93,4.93,0,0,0,.45,2.58,1.3,1.3,0,0,0,2.24,0,4.94,4.94,0,0,0,.45-2.58,4.93,4.93,0,0,0-.45-2.58,1.35,1.35,0,0,0-1.13-.64,1.24,1.24,0,0,0-1.06.56A5,5,0,0,0,42.25,37.52Z"/><path d="M58.12,41.41v-.72a1.77,1.77,0,0,1-1.6.85,2.24,2.24,0,0,1-1.25-.38,2.47,2.47,0,0,1-.89-1,3.62,3.62,0,0,1-.31-1.55A4.05,4.05,0,0,1,54.35,37a2.25,2.25,0,0,1,.85-1.07,2.28,2.28,0,0,1,1.27-.37,1.9,1.9,0,0,1,1.57.78V33.53h1v7.87Zm-3.06-2.85a2.48,2.48,0,0,0,.46,1.64,1.39,1.39,0,0,0,1.09.54,1.37,1.37,0,0,0,1.08-.52,2.39,2.39,0,0,0,.44-1.58,2.68,2.68,0,0,0-.45-1.72,1.39,1.39,0,0,0-1.11-.55,1.34,1.34,0,0,0-1.08.53A2.6,2.6,0,0,0,55.06,38.56Z"/><path d="M64.48,40.7a3.6,3.6,0,0,1-1,.64,3,3,0,0,1-1.07.19,2.08,2.08,0,0,1-1.44-.46,1.52,1.52,0,0,1-.5-1.17,1.56,1.56,0,0,1,.19-.77,1.58,1.58,0,0,1,.5-.56,2.35,2.35,0,0,1,.7-.32,6.85,6.85,0,0,1,.86-.15,8.84,8.84,0,0,0,1.72-.33c0-.13,0-.22,0-.25a1.07,1.07,0,0,0-.27-.83,1.62,1.62,0,0,0-1.1-.33,1.71,1.71,0,0,0-1,.24,1.46,1.46,0,0,0-.48.85l-.95-.13a2.34,2.34,0,0,1,.42-1,1.86,1.86,0,0,1,.85-.58,3.82,3.82,0,0,1,1.29-.2,3.42,3.42,0,0,1,1.19.17,1.56,1.56,0,0,1,.67.43,1.52,1.52,0,0,1,.3.66,5.44,5.44,0,0,1,0,.89V39a13.6,13.6,0,0,0,.06,1.71,2.15,2.15,0,0,0,.24.68h-1A2.06,2.06,0,0,1,64.48,40.7Zm-.08-2.16a7.1,7.1,0,0,1-1.58.37,3.63,3.63,0,0,0-.84.19.84.84,0,0,0-.38.31.85.85,0,0,0,.16,1.1,1.26,1.26,0,0,0,.86.26,2,2,0,0,0,1-.24,1.5,1.5,0,0,0,.64-.67,2.33,2.33,0,0,0,.16-1Z"/><path d="M67.05,43.6l-.11-.91a2.16,2.16,0,0,0,.55.09,1.06,1.06,0,0,0,.52-.11.88.88,0,0,0,.32-.3,4.73,4.73,0,0,0,.3-.72l.09-.24L66.55,35.7h1L68.78,39q.23.63.41,1.32a13,13,0,0,1,.4-1.3l1.22-3.32h1L69.6,41.5a11.43,11.43,0,0,1-.54,1.29,1.9,1.9,0,0,1-.59.7,1.39,1.39,0,0,1-.79.22A1.94,1.94,0,0,1,67.05,43.6Z"/><path d="M72.43,39.71l1-.15a1.33,1.33,0,0,0,.45.88,1.56,1.56,0,0,0,1,.31,1.51,1.51,0,0,0,1-.27.81.81,0,0,0,.32-.64.59.59,0,0,0-.28-.52,4.18,4.18,0,0,0-1-.33,9,9,0,0,1-1.47-.46,1.41,1.41,0,0,1-.84-1.31,1.47,1.47,0,0,1,.17-.71,1.57,1.57,0,0,1,.48-.54,2,2,0,0,1,.62-.28,2.93,2.93,0,0,1,.83-.12,3.3,3.3,0,0,1,1.18.19,1.6,1.6,0,0,1,.75.52,2.05,2.05,0,0,1,.33.88L76,37.3a1,1,0,0,0-.37-.69,1.36,1.36,0,0,0-.87-.25,1.58,1.58,0,0,0-1,.22.64.64,0,0,0-.28.52.53.53,0,0,0,.12.34.85.85,0,0,0,.37.26l.85.25a11.89,11.89,0,0,1,1.43.45,1.45,1.45,0,0,1,.64.51,1.42,1.42,0,0,1,.23.83,1.62,1.62,0,0,1-.28.91,1.83,1.83,0,0,1-.81.66,3,3,0,0,1-1.2.23,2.68,2.68,0,0,1-1.69-.46A2.15,2.15,0,0,1,72.43,39.71Z"/><path d="M89.9,40.48v.93h-5.2a1.7,1.7,0,0,1,.11-.67,3.55,3.55,0,0,1,.64-1,10,10,0,0,1,1.27-1.19,10.7,10.7,0,0,0,1.73-1.67,2,2,0,0,0,.45-1.16,1.29,1.29,0,0,0-.41-1,1.48,1.48,0,0,0-1.07-.4,1.51,1.51,0,0,0-1.12.42,1.58,1.58,0,0,0-.42,1.16l-1-.1a2.44,2.44,0,0,1,.77-1.69,2.62,2.62,0,0,1,1.79-.58,2.5,2.5,0,0,1,1.79.63,2.06,2.06,0,0,1,.66,1.56,2.36,2.36,0,0,1-.19.93,3.6,3.6,0,0,1-.64,1A15.63,15.63,0,0,1,87.56,39q-.87.73-1.12,1a3.2,3.2,0,0,0-.41.52Z"/><path d="M98,41.41V33.53h1v2.83a2.16,2.16,0,0,1,1.71-.78,2.3,2.3,0,0,1,1.1.25,1.47,1.47,0,0,1,.67.69,3.19,3.19,0,0,1,.2,1.28v3.61h-1V37.79a1.49,1.49,0,0,0-.31-1.06,1.17,1.17,0,0,0-.89-.33,1.57,1.57,0,0,0-.81.22,1.26,1.26,0,0,0-.54.6,2.78,2.78,0,0,0-.16,1.05v3.12Z"/><path d="M104.3,41.41V35.7h.87v.86a2.37,2.37,0,0,1,.61-.8,1.08,1.08,0,0,1,.62-.19,1.89,1.89,0,0,1,1,.31l-.33.9a1.38,1.38,0,0,0-.71-.21.92.92,0,0,0-.57.19,1,1,0,0,0-.36.53,3.77,3.77,0,0,0-.16,1.13v3Z"/><path d="M107.81,39.71l1-.15a1.33,1.33,0,0,0,.45.88,1.56,1.56,0,0,0,1,.31,1.51,1.51,0,0,0,1-.27.81.81,0,0,0,.32-.64.59.59,0,0,0-.28-.52,4.18,4.18,0,0,0-1-.33,9,9,0,0,1-1.47-.46,1.41,1.41,0,0,1-.84-1.31,1.47,1.47,0,0,1,.17-.71,1.57,1.57,0,0,1,.48-.54,2,2,0,0,1,.62-.28,2.93,2.93,0,0,1,.83-.12,3.3,3.3,0,0,1,1.18.19,1.6,1.6,0,0,1,.75.52,2.05,2.05,0,0,1,.33.88l-.95.13a1,1,0,0,0-.37-.69,1.36,1.36,0,0,0-.87-.25,1.58,1.58,0,0,0-1,.22.64.64,0,0,0-.28.52.53.53,0,0,0,.12.34.85.85,0,0,0,.37.26l.85.25a11.89,11.89,0,0,1,1.43.45,1.45,1.45,0,0,1,.64.51,1.42,1.42,0,0,1,.23.83,1.62,1.62,0,0,1-.28.91,1.83,1.83,0,0,1-.81.66,3,3,0,0,1-1.2.23,2.68,2.68,0,0,1-1.69-.46A2.15,2.15,0,0,1,107.81,39.71Z"/><path d="M120.21,39.33l1-.13a2.14,2.14,0,0,0,.57,1.18,1.4,1.4,0,0,0,1,.36,1.56,1.56,0,0,0,1.15-.47,1.59,1.59,0,0,0,.47-1.17,1.48,1.48,0,0,0-.44-1.1,1.5,1.5,0,0,0-1.11-.43,2.77,2.77,0,0,0-.68.11l.11-.85h.16a2,2,0,0,0,1.11-.32,1.1,1.1,0,0,0,.49-1,1.17,1.17,0,0,0-.36-.88,1.28,1.28,0,0,0-.93-.35,1.32,1.32,0,0,0-.94.35,1.78,1.78,0,0,0-.48,1.06l-1-.17a2.49,2.49,0,0,1,.8-1.51,2.33,2.33,0,0,1,1.56-.53,2.58,2.58,0,0,1,1.19.28,2,2,0,0,1,.83.75,1.94,1.94,0,0,1,.29,1,1.66,1.66,0,0,1-.27.93,1.87,1.87,0,0,1-.81.67,1.82,1.82,0,0,1,1.08.67,2,2,0,0,1,.39,1.27,2.32,2.32,0,0,1-.75,1.75,2.64,2.64,0,0,1-1.9.72,2.48,2.48,0,0,1-1.72-.62A2.39,2.39,0,0,1,120.21,39.33Z"/><path d="M126.6,34.56v-.93h5.1v.75a10.72,10.72,0,0,0-1.49,2.13,13,13,0,0,0-1.14,2.73,10.08,10.08,0,0,0-.37,2.16h-1a9.67,9.67,0,0,1,.37-2.25,11.75,11.75,0,0,1,1-2.54,10.83,10.83,0,0,1,1.39-2.06Z"/><path d="M139.7,41.41V35.7h.86v.8a2,2,0,0,1,.71-.67,2,2,0,0,1,1-.25,1.88,1.88,0,0,1,1,.26,1.41,1.41,0,0,1,.57.74,2,2,0,0,1,1.76-1A1.74,1.74,0,0,1,147,36a2,2,0,0,1,.46,1.45v3.92h-1V37.81a2.62,2.62,0,0,0-.09-.84.81.81,0,0,0-.34-.41,1.06,1.06,0,0,0-.58-.16,1.35,1.35,0,0,0-1,.4,1.76,1.76,0,0,0-.4,1.28v3.31h-1V37.7a1.63,1.63,0,0,0-.24-1,.9.9,0,0,0-.77-.32,1.41,1.41,0,0,0-.76.21,1.22,1.22,0,0,0-.5.63,3.55,3.55,0,0,0-.16,1.19v3Z"/><path d="M149.09,34.65V33.53h1v1.11Zm0,6.76V35.7h1v5.7Z"/><path d="M151.74,41.41V35.7h.87v.81a2.05,2.05,0,0,1,1.82-.94,2.38,2.38,0,0,1,.95.19,1.48,1.48,0,0,1,.65.49,1.85,1.85,0,0,1,.3.71,5.47,5.47,0,0,1,.05.94v3.51h-1V37.94a2.6,2.6,0,0,0-.11-.88.93.93,0,0,0-.4-.47,1.27,1.27,0,0,0-.67-.17,1.57,1.57,0,0,0-1.07.39,1.93,1.93,0,0,0-.45,1.49v3.12Z"/><path d="M157.7,39.71l1-.15a1.33,1.33,0,0,0,.45.88,1.56,1.56,0,0,0,1,.31,1.51,1.51,0,0,0,1-.27.81.81,0,0,0,.32-.64.59.59,0,0,0-.28-.52,4.17,4.17,0,0,0-1-.33,9,9,0,0,1-1.47-.46,1.41,1.41,0,0,1-.84-1.31,1.48,1.48,0,0,1,.17-.71,1.57,1.57,0,0,1,.48-.54,2,2,0,0,1,.62-.28,2.92,2.92,0,0,1,.83-.12,3.3,3.3,0,0,1,1.18.19,1.61,1.61,0,0,1,.75.52,2,2,0,0,1,.33.88l-.95.13a1,1,0,0,0-.37-.69,1.37,1.37,0,0,0-.87-.25,1.58,1.58,0,0,0-1,.22.64.64,0,0,0-.28.52.54.54,0,0,0,.12.34.84.84,0,0,0,.37.26l.85.25a12,12,0,0,1,1.43.45,1.46,1.46,0,0,1,.64.51,1.42,1.42,0,0,1,.23.83,1.62,1.62,0,0,1-.28.91,1.83,1.83,0,0,1-.81.66,3,3,0,0,1-1.2.23,2.68,2.68,0,0,1-1.7-.46A2.15,2.15,0,0,1,157.7,39.71Z"/><path d="M174.08,40.7a3.6,3.6,0,0,1-1,.64,3,3,0,0,1-1.07.19,2.08,2.08,0,0,1-1.44-.46,1.52,1.52,0,0,1-.5-1.17,1.56,1.56,0,0,1,.19-.77,1.59,1.59,0,0,1,.5-.56,2.35,2.35,0,0,1,.7-.32,6.85,6.85,0,0,1,.86-.15,8.84,8.84,0,0,0,1.72-.33c0-.13,0-.22,0-.25a1.07,1.07,0,0,0-.27-.83,1.62,1.62,0,0,0-1.1-.33,1.71,1.71,0,0,0-1,.24,1.46,1.46,0,0,0-.48.85l-.95-.13a2.35,2.35,0,0,1,.42-1,1.86,1.86,0,0,1,.85-.58,3.81,3.81,0,0,1,1.29-.2,3.42,3.42,0,0,1,1.19.17,1.56,1.56,0,0,1,.67.43,1.52,1.52,0,0,1,.3.66,5.43,5.43,0,0,1,0,.89V39a13.54,13.54,0,0,0,.06,1.71,2.14,2.14,0,0,0,.24.68h-1A2,2,0,0,1,174.08,40.7ZM174,38.54a7.09,7.09,0,0,1-1.58.37,3.62,3.62,0,0,0-.84.19.84.84,0,0,0-.38.31.85.85,0,0,0,.16,1.1,1.26,1.26,0,0,0,.86.26,2,2,0,0,0,1-.24,1.5,1.5,0,0,0,.64-.67,2.32,2.32,0,0,0,.16-1Z"/><path d="M176.51,41.88l.94.14a.9.9,0,0,0,.33.63,1.61,1.61,0,0,0,1,.27,1.73,1.73,0,0,0,1-.27,1.32,1.32,0,0,0,.49-.75,6.16,6.16,0,0,0,.07-1.24,2,2,0,0,1-1.58.75,2.15,2.15,0,0,1-1.82-.85,3.27,3.27,0,0,1-.64-2,3.8,3.8,0,0,1,.29-1.51,2.36,2.36,0,0,1,.86-1.07,2.31,2.31,0,0,1,1.32-.38,2,2,0,0,1,1.67.82V35.7h.89v4.93a4.66,4.66,0,0,1-.27,1.89,2,2,0,0,1-.86.88,3,3,0,0,1-1.45.32,2.72,2.72,0,0,1-1.65-.46A1.55,1.55,0,0,1,176.51,41.88Zm.8-3.43a2.48,2.48,0,0,0,.45,1.64,1.47,1.47,0,0,0,2.23,0,2.39,2.39,0,0,0,.45-1.61,2.33,2.33,0,0,0-.46-1.58,1.44,1.44,0,0,0-1.12-.53,1.39,1.39,0,0,0-1.1.52A2.32,2.32,0,0,0,177.32,38.45Z"/><path d="M182.67,38.56a2.94,2.94,0,0,1,.88-2.35,2.66,2.66,0,0,1,1.79-.63,2.56,2.56,0,0,1,1.92.77,2.93,2.93,0,0,1,.75,2.13,3.77,3.77,0,0,1-.33,1.73,2.33,2.33,0,0,1-1,1,2.79,2.79,0,0,1-1.38.35,2.57,2.57,0,0,1-1.94-.77A3.07,3.07,0,0,1,182.67,38.56Zm1,0a2.43,2.43,0,0,0,.48,1.64,1.59,1.59,0,0,0,2.4,0,2.49,2.49,0,0,0,.48-1.67,2.36,2.36,0,0,0-.48-1.6,1.59,1.59,0,0,0-2.4,0A2.42,2.42,0,0,0,183.66,38.56Z"/><path d="M201.89,38l-5.22,2.23v-1l4.13-1.71-4.13-1.7v-1l5.22,2.2Z"/><path d="M9.33,54.48v.93H4.13a1.7,1.7,0,0,1,.11-.67,3.55,3.55,0,0,1,.64-1A10,10,0,0,1,6.14,52.5a10.7,10.7,0,0,0,1.73-1.67,2,2,0,0,0,.45-1.16,1.29,1.29,0,0,0-.41-1,1.48,1.48,0,0,0-1.07-.4,1.51,1.51,0,0,0-1.12.42,1.58,1.58,0,0,0-.42,1.16l-1-.1a2.44,2.44,0,0,1,.77-1.69,2.62,2.62,0,0,1,1.79-.58,2.5,2.5,0,0,1,1.79.63,2.06,2.06,0,0,1,.66,1.56,2.36,2.36,0,0,1-.19.93,3.6,3.6,0,0,1-.64,1A15.63,15.63,0,0,1,7,53q-.87.73-1.12,1a3.2,3.2,0,0,0-.41.52Z"/><path d="M11.13,50.8V49.7h1.1v1.1Zm0,4.6v-1.1h1.1v1.1Z"/><path d="M76.92,55.41V47.53h1v3.23h4.09V47.53h1v7.87h-1V51.7H78v3.71Z"/><path d="M88.65,54.7a3.6,3.6,0,0,1-1,.64,3,3,0,0,1-1.07.19,2.08,2.08,0,0,1-1.44-.46,1.52,1.52,0,0,1-.5-1.17,1.56,1.56,0,0,1,.19-.77,1.58,1.58,0,0,1,.5-.56,2.35,2.35,0,0,1,.7-.32,6.85,6.85,0,0,1,.86-.15,8.84,8.84,0,0,0,1.72-.33c0-.13,0-.22,0-.25a1.07,1.07,0,0,0-.27-.83,1.62,1.62,0,0,0-1.1-.33,1.71,1.71,0,0,0-1,.24,1.46,1.46,0,0,0-.48.85l-.95-.13a2.34,2.34,0,0,1,.42-1,1.86,1.86,0,0,1,.85-.58,3.82,3.82,0,0,1,1.29-.2,3.42,3.42,0,0,1,1.19.17,1.56,1.56,0,0,1,.67.43,1.52,1.52,0,0,1,.3.66,5.44,5.44,0,0,1,0,.89V53a13.6,13.6,0,0,0,.06,1.71,2.15,2.15,0,0,0,.24.68h-1A2.06,2.06,0,0,1,88.65,54.7Zm-.08-2.16a7.1,7.1,0,0,1-1.58.37,3.63,3.63,0,0,0-.84.19.84.84,0,0,0-.38.31.85.85,0,0,0,.16,1.1,1.26,1.26,0,0,0,.86.26,2,2,0,0,0,1-.24,1.5,1.5,0,0,0,.64-.67,2.33,2.33,0,0,0,.16-1Z"/><path d="M91.26,55.41V49.7h.87v.86a2.37,2.37,0,0,1,.61-.8,1.08,1.08,0,0,1,.62-.19,1.89,1.89,0,0,1,1,.31l-.33.9a1.38,1.38,0,0,0-.71-.21.92.92,0,0,0-.57.19,1,1,0,0,0-.36.53,3.77,3.77,0,0,0-.16,1.13v3Z"/><path d="M98.85,55.41v-.72a1.77,1.77,0,0,1-1.6.85A2.24,2.24,0,0,1,96,55.16a2.47,2.47,0,0,1-.89-1,3.62,3.62,0,0,1-.31-1.55A4.05,4.05,0,0,1,95.09,51a2.25,2.25,0,0,1,.85-1.07,2.28,2.28,0,0,1,1.27-.37,1.9,1.9,0,0,1,1.57.78V47.53h1v7.87ZM95.8,52.56a2.48,2.48,0,0,0,.46,1.64,1.39,1.39,0,0,0,1.09.54,1.37,1.37,0,0,0,1.08-.52,2.39,2.39,0,0,0,.44-1.58,2.68,2.68,0,0,0-.45-1.72,1.39,1.39,0,0,0-1.11-.55,1.34,1.34,0,0,0-1.08.53A2.6,2.6,0,0,0,95.8,52.56Z"/><path d="M102.54,55.41l-1.75-5.7h1L102.7,53l.34,1.22.3-1.18.91-3.34h1l.85,3.31.28,1.09.33-1.1,1-3.3h.94l-1.78,5.7h-1L104.93,52l-.22-1-1.15,4.39Z"/><path d="M113.37,54.7a3.6,3.6,0,0,1-1,.64,3,3,0,0,1-1.07.19,2.08,2.08,0,0,1-1.44-.46,1.52,1.52,0,0,1-.5-1.17,1.56,1.56,0,0,1,.19-.77,1.58,1.58,0,0,1,.5-.56,2.35,2.35,0,0,1,.7-.32,6.85,6.85,0,0,1,.86-.15,8.84,8.84,0,0,0,1.72-.33c0-.13,0-.22,0-.25a1.07,1.07,0,0,0-.27-.83,1.62,1.62,0,0,0-1.1-.33,1.71,1.71,0,0,0-1,.24,1.46,1.46,0,0,0-.48.85l-.95-.13a2.34,2.34,0,0,1,.42-1,1.86,1.86,0,0,1,.85-.58,3.82,3.82,0,0,1,1.29-.2,3.42,3.42,0,0,1,1.19.17,1.56,1.56,0,0,1,.67.43,1.52,1.52,0,0,1,.3.66,5.43,5.43,0,0,1,0,.89V53a13.54,13.54,0,0,0,.06,1.71,2.14,2.14,0,0,0,.24.68h-1A2.06,2.06,0,0,1,113.37,54.7Zm-.08-2.16a7.1,7.1,0,0,1-1.58.37,3.63,3.63,0,0,0-.84.19.84.84,0,0,0-.38.31.85.85,0,0,0,.16,1.1,1.26,1.26,0,0,0,.86.26,2,2,0,0,0,1-.24,1.5,1.5,0,0,0,.64-.67,2.33,2.33,0,0,0,.16-1Z"/><path d="M116,55.41V49.7h.87v.86a2.36,2.36,0,0,1,.61-.8,1.08,1.08,0,0,1,.62-.19,1.89,1.89,0,0,1,1,.31l-.33.9a1.38,1.38,0,0,0-.71-.21.92.92,0,0,0-.57.19,1,1,0,0,0-.36.53,3.77,3.77,0,0,0-.16,1.13v3Z"/><path d="M123.78,53.57l1,.12a2.43,2.43,0,0,1-.88,1.36,3,3,0,0,1-3.62-.29,3,3,0,0,1-.73-2.16,3.15,3.15,0,0,1,.74-2.23,2.51,2.51,0,0,1,1.92-.79,2.44,2.44,0,0,1,1.87.78,3.1,3.1,0,0,1,.72,2.19q0,.09,0,.26h-4.25a2.19,2.19,0,0,0,.53,1.44,1.58,1.58,0,0,0,1.19.5,1.48,1.48,0,0,0,.91-.28A1.85,1.85,0,0,0,123.78,53.57ZM120.6,52h3.18a1.93,1.93,0,0,0-.37-1.08,1.48,1.48,0,0,0-1.2-.56,1.53,1.53,0,0,0-1.12.45A1.76,1.76,0,0,0,120.6,52Z"/><path d="M129.66,55.41V47.53H135v.93h-4.27V50.9h3.7v.93h-3.7v3.58Z"/><path d="M140.15,54.7a3.6,3.6,0,0,1-1,.64,3,3,0,0,1-1.07.19,2.08,2.08,0,0,1-1.44-.46,1.52,1.52,0,0,1-.5-1.17,1.56,1.56,0,0,1,.19-.77,1.59,1.59,0,0,1,.5-.56,2.35,2.35,0,0,1,.7-.32,6.85,6.85,0,0,1,.86-.15,8.84,8.84,0,0,0,1.72-.33c0-.13,0-.22,0-.25a1.07,1.07,0,0,0-.27-.83,1.62,1.62,0,0,0-1.1-.33,1.71,1.71,0,0,0-1,.24,1.46,1.46,0,0,0-.48.85l-.95-.13a2.35,2.35,0,0,1,.42-1,1.86,1.86,0,0,1,.85-.58,3.81,3.81,0,0,1,1.29-.2,3.42,3.42,0,0,1,1.19.17,1.56,1.56,0,0,1,.67.43,1.52,1.52,0,0,1,.3.66,5.43,5.43,0,0,1,0,.89V53a13.54,13.54,0,0,0,.06,1.71,2.14,2.14,0,0,0,.24.68h-1A2,2,0,0,1,140.15,54.7Zm-.08-2.16a7.09,7.09,0,0,1-1.58.37,3.62,3.62,0,0,0-.84.19.84.84,0,0,0-.38.31.85.85,0,0,0,.16,1.1,1.26,1.26,0,0,0,.86.26,2,2,0,0,0,1-.24,1.5,1.5,0,0,0,.64-.67,2.32,2.32,0,0,0,.16-1Z"/><path d="M142.77,48.65V47.53h1v1.11Zm0,6.76V49.7h1v5.7Z"/><path d="M145.41,55.41V47.53h1v7.87Z"/><path d="M151.83,55.41v-.84a2.09,2.09,0,0,1-1.81,1,2.31,2.31,0,0,1-.94-.19,1.57,1.57,0,0,1-.65-.49,1.82,1.82,0,0,1-.3-.72,4.84,4.84,0,0,1-.06-.9V49.7h1v3.16a5.56,5.56,0,0,0,.06,1,1,1,0,0,0,.39.6,1.2,1.2,0,0,0,.73.22,1.59,1.59,0,0,0,.82-.22,1.24,1.24,0,0,0,.54-.61,3.05,3.05,0,0,0,.16-1.11V49.7h1v5.7Z"/><path d="M154.42,55.41V49.7h.87v.86a2.36,2.36,0,0,1,.61-.8,1.08,1.08,0,0,1,.62-.19,1.89,1.89,0,0,1,1,.31l-.33.9a1.38,1.38,0,0,0-.71-.21.92.92,0,0,0-.57.19,1,1,0,0,0-.36.53,3.77,3.77,0,0,0-.16,1.13v3Z"/><path d="M162.22,53.57l1,.12a2.44,2.44,0,0,1-.87,1.36,3,3,0,0,1-3.62-.29A3,3,0,0,1,158,52.6a3.15,3.15,0,0,1,.74-2.23,2.51,2.51,0,0,1,1.92-.79,2.44,2.44,0,0,1,1.87.78,3.09,3.09,0,0,1,.73,2.19q0,.09,0,.26H159a2.19,2.19,0,0,0,.53,1.44,1.59,1.59,0,0,0,1.19.5,1.48,1.48,0,0,0,.91-.28A1.86,1.86,0,0,0,162.22,53.57ZM159,52h3.18a1.93,1.93,0,0,0-.37-1.08,1.48,1.48,0,0,0-1.2-.56,1.53,1.53,0,0,0-1.12.45A1.76,1.76,0,0,0,159,52Z"/><path d="M169.77,57.72a9.63,9.63,0,0,1-1.35-2.36,7.42,7.42,0,0,1-.14-5.25,10.29,10.29,0,0,1,1.49-2.71h.69q-.65,1.12-.86,1.6a8.82,8.82,0,0,0-.52,1.55,9,9,0,0,0-.23,2,9.69,9.69,0,0,0,1.61,5.16Z"/><path d="M175.18,55.41h-1V49.25a5,5,0,0,1-.92.67,6.43,6.43,0,0,1-1,.5v-.93a5.83,5.83,0,0,0,1.42-.92,3.63,3.63,0,0,0,.86-1.05h.62Z"/><path d="M177.41,55.41l3-7.87h1.12l3.22,7.87h-1.19L182.67,53h-3.29l-.86,2.38Zm2.27-3.23h2.67L181.53,50q-.38-1-.56-1.63a10,10,0,0,1-.42,1.5Z"/><path d="M186.34,57.72h-.69a9.7,9.7,0,0,0,1.61-5.16,8.86,8.86,0,0,0-.23-2,8.5,8.5,0,0,0-.51-1.55,18.19,18.19,0,0,0-.86-1.61h.69a10.31,10.31,0,0,1,1.49,2.71,7.39,7.39,0,0,1-.14,5.25A9.84,9.84,0,0,1,186.34,57.72Z"/><path d="M202.11,52l-5.22,2.23v-1L201,51.52l-4.13-1.7v-1l5.22,2.2Z"/><path d="M41.26,65.52a7.19,7.19,0,0,1,.29-2.25A2.8,2.8,0,0,1,42.4,62a2.18,2.18,0,0,1,1.43-.46,2.33,2.33,0,0,1,1.11.25,2.12,2.12,0,0,1,.79.74,4,4,0,0,1,.49,1.17,7.78,7.78,0,0,1,.18,1.86,7.21,7.21,0,0,1-.28,2.24,2.79,2.79,0,0,1-.85,1.32A2.4,2.4,0,0,1,42,68.73,5.19,5.19,0,0,1,41.26,65.52Zm1,0a4.93,4.93,0,0,0,.45,2.58,1.3,1.3,0,0,0,2.24,0,4.94,4.94,0,0,0,.45-2.58,4.93,4.93,0,0,0-.45-2.58,1.35,1.35,0,0,0-1.13-.64,1.24,1.24,0,0,0-1.06.56A5,5,0,0,0,42.25,65.52Z"/><path d="M58.12,69.41v-.72a1.77,1.77,0,0,1-1.6.85,2.24,2.24,0,0,1-1.25-.37,2.48,2.48,0,0,1-.89-1.05,3.62,3.62,0,0,1-.31-1.55A4.06,4.06,0,0,1,54.35,65a2.25,2.25,0,0,1,.85-1.07,2.28,2.28,0,0,1,1.27-.37,1.9,1.9,0,0,1,1.57.78V61.53h1v7.87Zm-3.06-2.85a2.48,2.48,0,0,0,.46,1.64,1.39,1.39,0,0,0,1.09.54,1.37,1.37,0,0,0,1.08-.52,2.39,2.39,0,0,0,.44-1.58,2.68,2.68,0,0,0-.45-1.72,1.39,1.39,0,0,0-1.11-.55,1.34,1.34,0,0,0-1.08.53A2.6,2.6,0,0,0,55.06,66.56Z"/><path d="M64.48,68.7a3.58,3.58,0,0,1-1,.64,3,3,0,0,1-1.07.19,2.07,2.07,0,0,1-1.44-.46,1.52,1.52,0,0,1-.5-1.17,1.58,1.58,0,0,1,.69-1.32,2.32,2.32,0,0,1,.7-.32,6.85,6.85,0,0,1,.86-.15,8.84,8.84,0,0,0,1.72-.33c0-.13,0-.22,0-.25a1.07,1.07,0,0,0-.27-.83,1.62,1.62,0,0,0-1.1-.33,1.71,1.71,0,0,0-1,.24,1.46,1.46,0,0,0-.48.85l-.95-.13a2.34,2.34,0,0,1,.42-1,1.86,1.86,0,0,1,.85-.58,3.82,3.82,0,0,1,1.29-.2,3.42,3.42,0,0,1,1.19.17,1.56,1.56,0,0,1,.67.43,1.52,1.52,0,0,1,.3.66,5.44,5.44,0,0,1,0,.89V67a13.6,13.6,0,0,0,.06,1.71,2.15,2.15,0,0,0,.24.68h-1A2.05,2.05,0,0,1,64.48,68.7Zm-.08-2.16a7.1,7.1,0,0,1-1.58.37,3.69,3.69,0,0,0-.84.19.84.84,0,0,0-.38.31.86.86,0,0,0,.16,1.1,1.26,1.26,0,0,0,.86.26,2,2,0,0,0,1-.25,1.5,1.5,0,0,0,.64-.67,2.33,2.33,0,0,0,.16-1Z"/><path d="M67.05,71.6l-.11-.91a2.14,2.14,0,0,0,.55.09,1.05,1.05,0,0,0,.52-.11.88.88,0,0,0,.32-.3,4.68,4.68,0,0,0,.3-.72l.09-.24L66.55,63.7h1L68.78,67q.23.63.41,1.32a12.93,12.93,0,0,1,.4-1.3l1.22-3.32h1L69.6,69.5a11.45,11.45,0,0,1-.54,1.29,1.9,1.9,0,0,1-.59.7,1.39,1.39,0,0,1-.79.22A2,2,0,0,1,67.05,71.6Z"/><path d="M72.43,67.71l1-.15a1.33,1.33,0,0,0,.45.88,1.56,1.56,0,0,0,1,.31,1.51,1.51,0,0,0,1-.27.81.81,0,0,0,.32-.64.59.59,0,0,0-.28-.52,4.17,4.17,0,0,0-1-.33,9,9,0,0,1-1.47-.46,1.41,1.41,0,0,1-.84-1.31,1.47,1.47,0,0,1,.17-.71,1.57,1.57,0,0,1,.48-.54,2,2,0,0,1,.62-.28,2.93,2.93,0,0,1,.83-.12,3.3,3.3,0,0,1,1.18.19,1.6,1.6,0,0,1,.75.52,2.05,2.05,0,0,1,.33.88L76,65.3a1,1,0,0,0-.37-.69,1.36,1.36,0,0,0-.87-.25,1.58,1.58,0,0,0-1,.22.64.64,0,0,0-.28.52.53.53,0,0,0,.12.34.85.85,0,0,0,.37.26l.85.25a11.89,11.89,0,0,1,1.43.45,1.45,1.45,0,0,1,.64.51,1.41,1.41,0,0,1,.23.83,1.62,1.62,0,0,1-.28.91,1.83,1.83,0,0,1-.81.66,3,3,0,0,1-1.2.23,2.68,2.68,0,0,1-1.69-.46A2.15,2.15,0,0,1,72.43,67.71Z"/><path d="M89.9,68.48v.93h-5.2a1.7,1.7,0,0,1,.11-.67,3.56,3.56,0,0,1,.64-1,10,10,0,0,1,1.27-1.19,10.72,10.72,0,0,0,1.73-1.67,2,2,0,0,0,.45-1.16,1.29,1.29,0,0,0-.41-1,1.48,1.48,0,0,0-1.07-.4,1.51,1.51,0,0,0-1.12.42,1.58,1.58,0,0,0-.42,1.16l-1-.1a2.44,2.44,0,0,1,.77-1.69,2.62,2.62,0,0,1,1.79-.58,2.5,2.5,0,0,1,1.79.63,2.06,2.06,0,0,1,.66,1.56,2.36,2.36,0,0,1-.19.93,3.6,3.6,0,0,1-.64,1A15.63,15.63,0,0,1,87.56,67q-.87.73-1.12,1a3.23,3.23,0,0,0-.41.52Z"/><path d="M98,69.41V61.53h1v2.83a2.16,2.16,0,0,1,1.71-.78,2.3,2.3,0,0,1,1.1.25,1.47,1.47,0,0,1,.67.69,3.19,3.19,0,0,1,.2,1.28v3.61h-1V65.79a1.49,1.49,0,0,0-.31-1.06,1.17,1.17,0,0,0-.89-.33,1.57,1.57,0,0,0-.81.22,1.26,1.26,0,0,0-.54.6,2.78,2.78,0,0,0-.16,1.05v3.12Z"/><path d="M104.3,69.41V63.7h.87v.86a2.37,2.37,0,0,1,.61-.8,1.08,1.08,0,0,1,.62-.19,1.89,1.89,0,0,1,1,.31l-.33.9a1.38,1.38,0,0,0-.71-.21.92.92,0,0,0-.57.19,1,1,0,0,0-.36.53,3.76,3.76,0,0,0-.16,1.13v3Z"/><path d="M107.81,67.71l1-.15a1.33,1.33,0,0,0,.45.88,1.56,1.56,0,0,0,1,.31,1.51,1.51,0,0,0,1-.27.81.81,0,0,0,.32-.64.59.59,0,0,0-.28-.52,4.17,4.17,0,0,0-1-.33,9,9,0,0,1-1.47-.46,1.41,1.41,0,0,1-.84-1.31,1.47,1.47,0,0,1,.17-.71,1.57,1.57,0,0,1,.48-.54,2,2,0,0,1,.62-.28,2.93,2.93,0,0,1,.83-.12,3.3,3.3,0,0,1,1.18.19,1.6,1.6,0,0,1,.75.52,2.05,2.05,0,0,1,.33.88l-.95.13a1,1,0,0,0-.37-.69,1.36,1.36,0,0,0-.87-.25,1.58,1.58,0,0,0-1,.22.64.64,0,0,0-.28.52.53.53,0,0,0,.12.34.85.85,0,0,0,.37.26l.85.25a11.89,11.89,0,0,1,1.43.45,1.45,1.45,0,0,1,.64.51,1.41,1.41,0,0,1,.23.83,1.62,1.62,0,0,1-.28.91,1.83,1.83,0,0,1-.81.66,3,3,0,0,1-1.2.23,2.68,2.68,0,0,1-1.69-.46A2.15,2.15,0,0,1,107.81,67.71Z"/><path d="M120.21,67.33l1-.13a2.13,2.13,0,0,0,.57,1.18,1.4,1.4,0,0,0,1,.36,1.56,1.56,0,0,0,1.15-.47,1.59,1.59,0,0,0,.47-1.17,1.48,1.48,0,0,0-.44-1.1,1.5,1.5,0,0,0-1.11-.43,2.77,2.77,0,0,0-.68.11l.11-.85h.16a2,2,0,0,0,1.11-.32,1.1,1.1,0,0,0,.49-1,1.17,1.17,0,0,0-.36-.88,1.28,1.28,0,0,0-.93-.35,1.32,1.32,0,0,0-.94.35,1.78,1.78,0,0,0-.48,1.06l-1-.17a2.49,2.49,0,0,1,.8-1.51,2.33,2.33,0,0,1,1.56-.53,2.58,2.58,0,0,1,1.19.28,2,2,0,0,1,.83.75,1.94,1.94,0,0,1,.29,1,1.66,1.66,0,0,1-.27.93,1.87,1.87,0,0,1-.81.67,1.82,1.82,0,0,1,1.08.67,2,2,0,0,1,.39,1.27,2.32,2.32,0,0,1-.75,1.75,2.65,2.65,0,0,1-1.9.72,2.48,2.48,0,0,1-1.72-.62A2.39,2.39,0,0,1,120.21,67.33Z"/><path d="M126.6,62.56v-.93h5.1v.75a10.72,10.72,0,0,0-1.49,2.13,13,13,0,0,0-1.14,2.73,10.08,10.08,0,0,0-.37,2.16h-1a9.66,9.66,0,0,1,.37-2.24,11.75,11.75,0,0,1,1-2.54,10.83,10.83,0,0,1,1.39-2.06Z"/><path d="M139.7,69.41V63.7h.86v.8a2,2,0,0,1,.71-.67,2,2,0,0,1,1-.25,1.88,1.88,0,0,1,1,.26,1.41,1.41,0,0,1,.57.74,2,2,0,0,1,1.76-1A1.74,1.74,0,0,1,147,64a2,2,0,0,1,.46,1.45v3.92h-1V65.81a2.62,2.62,0,0,0-.09-.84.81.81,0,0,0-.34-.41,1.06,1.06,0,0,0-.58-.16,1.35,1.35,0,0,0-1,.4,1.76,1.76,0,0,0-.4,1.28v3.31h-1V65.7a1.63,1.63,0,0,0-.24-1,.9.9,0,0,0-.77-.32,1.41,1.41,0,0,0-.76.21,1.22,1.22,0,0,0-.5.63,3.55,3.55,0,0,0-.16,1.19v3Z"/><path d="M149.09,62.65V61.53h1v1.11Zm0,6.76V63.7h1v5.7Z"/><path d="M151.74,69.41V63.7h.87v.81a2.05,2.05,0,0,1,1.82-.94,2.38,2.38,0,0,1,.95.19,1.48,1.48,0,0,1,.65.49,1.85,1.85,0,0,1,.3.71,5.47,5.47,0,0,1,.05.94v3.51h-1V65.94a2.6,2.6,0,0,0-.11-.88.93.93,0,0,0-.4-.47,1.27,1.27,0,0,0-.67-.17,1.57,1.57,0,0,0-1.07.39,1.93,1.93,0,0,0-.45,1.49v3.11Z"/><path d="M157.7,67.71l1-.15a1.33,1.33,0,0,0,.45.88,1.56,1.56,0,0,0,1,.31,1.51,1.51,0,0,0,1-.27.81.81,0,0,0,.32-.64.59.59,0,0,0-.28-.52,4.16,4.16,0,0,0-1-.33,9,9,0,0,1-1.47-.46,1.41,1.41,0,0,1-.84-1.31,1.48,1.48,0,0,1,.17-.71,1.57,1.57,0,0,1,.48-.54,2,2,0,0,1,.62-.28,2.92,2.92,0,0,1,.83-.12,3.3,3.3,0,0,1,1.18.19,1.61,1.61,0,0,1,.75.52,2,2,0,0,1,.33.88l-.95.13a1,1,0,0,0-.37-.69,1.37,1.37,0,0,0-.87-.25,1.58,1.58,0,0,0-1,.22.64.64,0,0,0-.28.52.54.54,0,0,0,.12.34.84.84,0,0,0,.37.26l.85.25a12,12,0,0,1,1.43.45,1.46,1.46,0,0,1,.64.51,1.42,1.42,0,0,1,.23.83,1.62,1.62,0,0,1-.28.91,1.84,1.84,0,0,1-.81.66,3,3,0,0,1-1.2.23,2.68,2.68,0,0,1-1.7-.46A2.16,2.16,0,0,1,157.7,67.71Z"/><path d="M174.08,68.7a3.58,3.58,0,0,1-1,.64,3,3,0,0,1-1.07.19,2.07,2.07,0,0,1-1.44-.46,1.52,1.52,0,0,1-.5-1.17,1.58,1.58,0,0,1,.69-1.32,2.33,2.33,0,0,1,.7-.32,6.85,6.85,0,0,1,.86-.15,8.84,8.84,0,0,0,1.72-.33c0-.13,0-.22,0-.25a1.07,1.07,0,0,0-.27-.83,1.62,1.62,0,0,0-1.1-.33,1.71,1.71,0,0,0-1,.24,1.46,1.46,0,0,0-.48.85l-.95-.13a2.35,2.35,0,0,1,.42-1,1.86,1.86,0,0,1,.85-.58,3.81,3.81,0,0,1,1.29-.2,3.42,3.42,0,0,1,1.19.17,1.56,1.56,0,0,1,.67.43,1.52,1.52,0,0,1,.3.66,5.43,5.43,0,0,1,0,.89V67a13.54,13.54,0,0,0,.06,1.71,2.13,2.13,0,0,0,.24.68h-1A2,2,0,0,1,174.08,68.7ZM174,66.54a7.09,7.09,0,0,1-1.58.37,3.67,3.67,0,0,0-.84.19.84.84,0,0,0-.38.31.85.85,0,0,0,.16,1.1,1.26,1.26,0,0,0,.86.26,2,2,0,0,0,1-.25,1.49,1.49,0,0,0,.64-.67,2.33,2.33,0,0,0,.16-1Z"/><path d="M176.51,69.88l.94.14a.89.89,0,0,0,.33.63,1.61,1.61,0,0,0,1,.27,1.72,1.72,0,0,0,1-.27,1.32,1.32,0,0,0,.49-.75,6.15,6.15,0,0,0,.07-1.24,2,2,0,0,1-1.58.75,2.15,2.15,0,0,1-1.82-.85,3.27,3.27,0,0,1-.64-2,3.8,3.8,0,0,1,.29-1.51,2.36,2.36,0,0,1,.86-1.07,2.31,2.31,0,0,1,1.32-.38,2,2,0,0,1,1.67.82V63.7h.89v4.93a4.66,4.66,0,0,1-.27,1.89,2,2,0,0,1-.86.88,3,3,0,0,1-1.45.32,2.72,2.72,0,0,1-1.65-.46A1.55,1.55,0,0,1,176.51,69.88Zm.8-3.43a2.48,2.48,0,0,0,.45,1.64,1.42,1.42,0,0,0,1.12.52,1.43,1.43,0,0,0,1.12-.51,2.4,2.4,0,0,0,.45-1.61,2.33,2.33,0,0,0-.46-1.58,1.44,1.44,0,0,0-1.12-.53,1.39,1.39,0,0,0-1.1.52A2.32,2.32,0,0,0,177.32,66.45Z"/><path d="M182.67,66.56a2.94,2.94,0,0,1,.88-2.35,2.66,2.66,0,0,1,1.79-.63,2.56,2.56,0,0,1,1.92.77,2.93,2.93,0,0,1,.75,2.13,3.77,3.77,0,0,1-.33,1.73,2.33,2.33,0,0,1-1,1,2.79,2.79,0,0,1-1.38.35,2.57,2.57,0,0,1-1.94-.77A3.07,3.07,0,0,1,182.67,66.56Zm1,0a2.43,2.43,0,0,0,.48,1.64,1.59,1.59,0,0,0,2.4,0,2.49,2.49,0,0,0,.48-1.67,2.36,2.36,0,0,0-.48-1.6,1.59,1.59,0,0,0-2.4,0A2.42,2.42,0,0,0,183.66,66.56Z"/><path d="M201.89,66l-5.22,2.23v-1l4.13-1.71-4.13-1.7v-1l5.22,2.2Z"/><path d="M4.26,81.33l1-.13a2.12,2.12,0,0,0,.57,1.18,1.4,1.4,0,0,0,1,.36,1.56,1.56,0,0,0,1.15-.47,1.59,1.59,0,0,0,.47-1.17A1.48,1.48,0,0,0,8,80a1.5,1.5,0,0,0-1.11-.43,2.74,2.74,0,0,0-.68.11l.11-.85h.16a2,2,0,0,0,1.11-.32,1.1,1.1,0,0,0,.49-1,1.18,1.18,0,0,0-.36-.88,1.28,1.28,0,0,0-.93-.35,1.32,1.32,0,0,0-.94.36,1.78,1.78,0,0,0-.48,1.06l-1-.17A2.48,2.48,0,0,1,5.16,76a2.33,2.33,0,0,1,1.56-.54,2.57,2.57,0,0,1,1.19.28,2,2,0,0,1,.83.75,1.94,1.94,0,0,1,.29,1,1.66,1.66,0,0,1-.27.93,1.87,1.87,0,0,1-.81.67A1.83,1.83,0,0,1,9,79.81a2,2,0,0,1,.39,1.27,2.33,2.33,0,0,1-.75,1.75,2.65,2.65,0,0,1-1.9.72A2.48,2.48,0,0,1,5,82.93,2.39,2.39,0,0,1,4.26,81.33Z"/><path d="M11.13,78.8V77.7h1.1v1.1Zm0,4.6v-1.1h1.1v1.1Z"/><path d="M30.13,75.53h1v4.55A5.38,5.38,0,0,1,30.9,82a2.3,2.3,0,0,1-1,1.14,3.44,3.44,0,0,1-1.84.44,3.78,3.78,0,0,1-1.81-.38,2.18,2.18,0,0,1-1-1.1,5.26,5.26,0,0,1-.3-2V75.53h1v4.54a4.41,4.41,0,0,0,.19,1.51,1.45,1.45,0,0,0,.66.75A2.27,2.27,0,0,0,28,82.6a2.17,2.17,0,0,0,1.64-.52,3,3,0,0,0,.49-2Z"/><path d="M33,85.59V77.7h.88v.74a2.18,2.18,0,0,1,.7-.65,1.94,1.94,0,0,1,1-.22,2.26,2.26,0,0,1,1.29.38A2.32,2.32,0,0,1,37.67,79a3.87,3.87,0,0,1,.28,1.5,3.82,3.82,0,0,1-.31,1.58,2.37,2.37,0,0,1-.91,1.07,2.34,2.34,0,0,1-1.26.37,1.82,1.82,0,0,1-.87-.2,2,2,0,0,1-.63-.52v2.78Zm.88-5a2.48,2.48,0,0,0,.45,1.63,1.37,1.37,0,0,0,1.08.53,1.4,1.4,0,0,0,1.1-.54A2.58,2.58,0,0,0,37,80.51a2.52,2.52,0,0,0-.45-1.63,1.35,1.35,0,0,0-1.07-.54,1.39,1.39,0,0,0-1.09.58A2.58,2.58,0,0,0,33.88,80.59Z"/><path d="M39.34,85.59V77.7h.88v.74a2.18,2.18,0,0,1,.7-.65,1.94,1.94,0,0,1,1-.22,2.26,2.26,0,0,1,1.29.38A2.32,2.32,0,0,1,44,79a3.87,3.87,0,0,1,.28,1.5A3.82,3.82,0,0,1,44,82.09a2.37,2.37,0,0,1-.91,1.07,2.34,2.34,0,0,1-1.26.37,1.82,1.82,0,0,1-.87-.2,2,2,0,0,1-.63-.52v2.78Zm.88-5a2.48,2.48,0,0,0,.45,1.63,1.37,1.37,0,0,0,1.08.53,1.4,1.4,0,0,0,1.1-.54,2.58,2.58,0,0,0,.46-1.69,2.52,2.52,0,0,0-.45-1.63,1.35,1.35,0,0,0-1.07-.54,1.39,1.39,0,0,0-1.09.58A2.58,2.58,0,0,0,40.22,80.59Z"/><path d="M49.58,81.57l1,.12a2.44,2.44,0,0,1-.88,1.36,3,3,0,0,1-3.62-.29,3,3,0,0,1-.73-2.16,3.15,3.15,0,0,1,.74-2.23A2.51,2.51,0,0,1,48,77.58a2.44,2.44,0,0,1,1.87.78,3.09,3.09,0,0,1,.73,2.19c0,.06,0,.14,0,.26H46.36a2.19,2.19,0,0,0,.53,1.44,1.58,1.58,0,0,0,1.19.5,1.48,1.48,0,0,0,.91-.28A1.85,1.85,0,0,0,49.58,81.57ZM46.41,80H49.6a1.93,1.93,0,0,0-.37-1.08,1.48,1.48,0,0,0-1.2-.56,1.54,1.54,0,0,0-1.12.45A1.76,1.76,0,0,0,46.41,80Z"/><path d="M52,83.41V77.7h.87v.86a2.36,2.36,0,0,1,.61-.8,1.08,1.08,0,0,1,.62-.19,1.89,1.89,0,0,1,1,.31l-.33.9a1.38,1.38,0,0,0-.71-.21.92.92,0,0,0-.57.19,1,1,0,0,0-.36.53A3.76,3.76,0,0,0,53,80.42v3Z"/><path d="M61.1,83.41V76.46H58.51v-.93h6.24v.93h-2.6v6.94Z"/><path d="M68.6,81.57l1,.12a2.44,2.44,0,0,1-.88,1.36,3,3,0,0,1-3.62-.29,3,3,0,0,1-.73-2.16,3.15,3.15,0,0,1,.74-2.23A2.51,2.51,0,0,1,67,77.58a2.44,2.44,0,0,1,1.87.78,3.09,3.09,0,0,1,.73,2.19c0,.06,0,.14,0,.26H65.37a2.19,2.19,0,0,0,.53,1.44,1.58,1.58,0,0,0,1.19.5,1.48,1.48,0,0,0,.91-.28A1.85,1.85,0,0,0,68.6,81.57ZM65.43,80h3.19a1.93,1.93,0,0,0-.37-1.08,1.48,1.48,0,0,0-1.2-.56,1.54,1.54,0,0,0-1.12.45A1.76,1.76,0,0,0,65.43,80Z"/><path d="M71,83.41V77.7h.86v.8a2,2,0,0,1,.71-.67,2,2,0,0,1,1-.25,1.88,1.88,0,0,1,1,.26,1.41,1.41,0,0,1,.57.74,2,2,0,0,1,1.76-1,1.74,1.74,0,0,1,1.31.47,2,2,0,0,1,.46,1.45v3.92h-1V79.81a2.63,2.63,0,0,0-.09-.83.81.81,0,0,0-.34-.41,1.06,1.06,0,0,0-.58-.16,1.35,1.35,0,0,0-1,.4,1.76,1.76,0,0,0-.4,1.28v3.31h-1V79.7a1.63,1.63,0,0,0-.24-1,.9.9,0,0,0-.77-.32,1.4,1.4,0,0,0-.75.21,1.22,1.22,0,0,0-.5.63A3.53,3.53,0,0,0,72,80.45v3Z"/><path d="M80.42,85.59V77.7h.88v.74a2.18,2.18,0,0,1,.7-.65,1.94,1.94,0,0,1,1-.22,2.26,2.26,0,0,1,1.29.38A2.32,2.32,0,0,1,85.09,79a3.87,3.87,0,0,1,.28,1.5,3.82,3.82,0,0,1-.31,1.58,2.37,2.37,0,0,1-.91,1.07,2.34,2.34,0,0,1-1.26.37,1.82,1.82,0,0,1-.87-.2,2,2,0,0,1-.63-.52v2.78Zm.88-5a2.48,2.48,0,0,0,.45,1.63,1.37,1.37,0,0,0,1.08.53,1.4,1.4,0,0,0,1.1-.54,2.58,2.58,0,0,0,.46-1.69,2.52,2.52,0,0,0-.45-1.63,1.35,1.35,0,0,0-1.07-.54,1.39,1.39,0,0,0-1.09.58A2.58,2.58,0,0,0,81.29,80.59Z"/><path d="M90.16,83.41V75.53h3a7.23,7.23,0,0,1,1.2.07,2.36,2.36,0,0,1,1,.37,1.92,1.92,0,0,1,.63.76,2.56,2.56,0,0,1-.4,2.77,3.07,3.07,0,0,1-2.31.7h-2v3.2Zm1-4.13h2a2.16,2.16,0,0,0,1.43-.38,1.34,1.34,0,0,0,.42-1.06,1.43,1.43,0,0,0-.25-.85,1.18,1.18,0,0,0-.66-.46,4.5,4.5,0,0,0-1-.07h-2Z"/><path d="M97.58,83.41V77.7h.87v.86a2.36,2.36,0,0,1,.61-.8,1.08,1.08,0,0,1,.62-.19,1.89,1.89,0,0,1,1,.31l-.33.9a1.38,1.38,0,0,0-.71-.21.92.92,0,0,0-.57.19,1,1,0,0,0-.36.53,3.76,3.76,0,0,0-.16,1.13v3Z"/><path d="M101.11,80.56a2.94,2.94,0,0,1,.88-2.35,2.66,2.66,0,0,1,1.79-.63,2.56,2.56,0,0,1,1.92.77,2.94,2.94,0,0,1,.75,2.13,3.77,3.77,0,0,1-.33,1.73,2.34,2.34,0,0,1-1,1,2.79,2.79,0,0,1-1.38.35,2.57,2.57,0,0,1-1.94-.77A3.07,3.07,0,0,1,101.11,80.56Zm1,0a2.43,2.43,0,0,0,.48,1.64,1.59,1.59,0,0,0,2.4,0,2.49,2.49,0,0,0,.48-1.67,2.35,2.35,0,0,0-.48-1.6,1.59,1.59,0,0,0-2.4,0A2.42,2.42,0,0,0,102.11,80.56Z"/><path d="M108.7,83.41h-.9V75.53h1v2.81a1.91,1.91,0,0,1,1.56-.77,2.41,2.41,0,0,1,1,.21,2,2,0,0,1,.77.6,2.89,2.89,0,0,1,.48.93,3.81,3.81,0,0,1,.17,1.16,3.26,3.26,0,0,1-.73,2.27,2.27,2.27,0,0,1-1.74.8,1.82,1.82,0,0,1-1.58-.84Zm0-2.89A3,3,0,0,0,109,82a1.38,1.38,0,0,0,2.33.2,2.5,2.5,0,0,0,.46-1.64,2.55,2.55,0,0,0-.44-1.65,1.35,1.35,0,0,0-1.07-.53,1.39,1.39,0,0,0-1.1.55A2.41,2.41,0,0,0,108.69,80.51Z"/><path d="M118.05,81.57l1,.12a2.44,2.44,0,0,1-.87,1.36,3,3,0,0,1-3.62-.29,3,3,0,0,1-.73-2.16,3.15,3.15,0,0,1,.74-2.23,2.51,2.51,0,0,1,1.92-.79,2.44,2.44,0,0,1,1.87.78,3.09,3.09,0,0,1,.73,2.19c0,.06,0,.14,0,.26h-4.25a2.19,2.19,0,0,0,.53,1.44,1.58,1.58,0,0,0,1.19.5,1.47,1.47,0,0,0,.91-.28A1.85,1.85,0,0,0,118.05,81.57ZM114.88,80h3.19a1.92,1.92,0,0,0-.37-1.08,1.48,1.48,0,0,0-1.2-.56,1.54,1.54,0,0,0-1.12.45A1.77,1.77,0,0,0,114.88,80Z"/><path d="M128.89,85.72a9.68,9.68,0,0,1-1.35-2.36,7.42,7.42,0,0,1-.14-5.25,10.27,10.27,0,0,1,1.49-2.71h.69a18,18,0,0,0-.86,1.6,8.66,8.66,0,0,0-.52,1.55,9,9,0,0,0-.23,2,9.69,9.69,0,0,0,1.61,5.16Z"/><path d="M130.73,79.57a4.28,4.28,0,0,1,1.05-3.07,3.58,3.58,0,0,1,2.72-1.11,3.77,3.77,0,0,1,2,.52,3.39,3.39,0,0,1,1.33,1.45,4.71,4.71,0,0,1,.46,2.11,4.64,4.64,0,0,1-.48,2.14,3.3,3.3,0,0,1-1.37,1.43,3.92,3.92,0,0,1-1.91.49,3.73,3.73,0,0,1-2-.54,3.45,3.45,0,0,1-1.33-1.47A4.44,4.44,0,0,1,130.73,79.57Zm1.07,0a3.16,3.16,0,0,0,.77,2.24,2.67,2.67,0,0,0,3.86,0,3.34,3.34,0,0,0,.76-2.35,4,4,0,0,0-.33-1.68,2.48,2.48,0,0,0-1-1.11,2.57,2.57,0,0,0-1.4-.4,2.66,2.66,0,0,0-1.9.76A3.39,3.39,0,0,0,131.8,79.59Z"/><path d="M139.7,85.59V77.7h.88v.74a2.18,2.18,0,0,1,.7-.65,1.94,1.94,0,0,1,1-.22,2.26,2.26,0,0,1,1.29.38,2.32,2.32,0,0,1,.84,1.06,3.86,3.86,0,0,1,.29,1.5,3.82,3.82,0,0,1-.31,1.58,2.39,2.39,0,0,1-2.17,1.45,1.82,1.82,0,0,1-.87-.2,2,2,0,0,1-.63-.52v2.78Zm.88-5a2.49,2.49,0,0,0,.45,1.63,1.37,1.37,0,0,0,1.08.53,1.4,1.4,0,0,0,1.1-.54,2.58,2.58,0,0,0,.46-1.69,2.52,2.52,0,0,0-.45-1.63,1.35,1.35,0,0,0-1.07-.54,1.39,1.39,0,0,0-1.09.58A2.59,2.59,0,0,0,140.57,80.59Z"/><path d="M149.94,81.57l1,.12a2.44,2.44,0,0,1-.87,1.36,3,3,0,0,1-3.62-.29,3,3,0,0,1-.73-2.16,3.15,3.15,0,0,1,.74-2.23,2.51,2.51,0,0,1,1.92-.79,2.44,2.44,0,0,1,1.87.78,3.09,3.09,0,0,1,.73,2.19q0,.09,0,.26h-4.25a2.19,2.19,0,0,0,.53,1.44,1.58,1.58,0,0,0,1.19.5,1.48,1.48,0,0,0,.91-.28A1.85,1.85,0,0,0,149.94,81.57ZM146.77,80H150a1.92,1.92,0,0,0-.37-1.08,1.48,1.48,0,0,0-1.2-.56,1.53,1.53,0,0,0-1.12.45A1.76,1.76,0,0,0,146.77,80Z"/><path d="M152.37,83.41V77.7h.87v.81a2,2,0,0,1,1.81-.94,2.36,2.36,0,0,1,.95.19,1.49,1.49,0,0,1,.65.49,1.86,1.86,0,0,1,.3.71,5.61,5.61,0,0,1,.05.94v3.51h-1V79.94a2.64,2.64,0,0,0-.11-.88.94.94,0,0,0-.4-.47,1.27,1.27,0,0,0-.67-.17,1.57,1.57,0,0,0-1.07.39,1.93,1.93,0,0,0-.45,1.49v3.12Z"/><path d="M159.34,85.72h-.69a9.69,9.69,0,0,0,1.61-5.16,8.8,8.8,0,0,0-.23-2,8.42,8.42,0,0,0-.51-1.55,18.28,18.28,0,0,0-.87-1.61h.69a10.29,10.29,0,0,1,1.49,2.71,7.4,7.4,0,0,1-.14,5.25A9.87,9.87,0,0,1,159.34,85.72Z"/><path d="M171,85.72a9.68,9.68,0,0,1-1.35-2.36,7.42,7.42,0,0,1-.14-5.25A10.27,10.27,0,0,1,171,75.4h.69a18,18,0,0,0-.86,1.6,8.66,8.66,0,0,0-.52,1.55,9,9,0,0,0-.23,2,9.69,9.69,0,0,0,1.61,5.16Z"/><path d="M175.86,83.41V81.52h-3.42v-.89l3.59-5.1h.79v5.1h1.06v.89h-1.06v1.88Zm0-2.77V77.09l-2.47,3.55Z"/><path d="M179.16,76.57v-.93h5.1v.75a10.73,10.73,0,0,0-1.49,2.13,12.92,12.92,0,0,0-1.14,2.73,10.14,10.14,0,0,0-.37,2.16h-1a9.71,9.71,0,0,1,.37-2.24,11.81,11.81,0,0,1,1-2.54A10.91,10.91,0,0,1,183,76.57Z"/><path d="M186.34,85.72h-.69a9.69,9.69,0,0,0,1.61-5.16,8.86,8.86,0,0,0-.23-2,8.5,8.5,0,0,0-.51-1.55,18.19,18.19,0,0,0-.86-1.61h.69a10.29,10.29,0,0,1,1.49,2.71,7.39,7.39,0,0,1-.14,5.25A9.83,9.83,0,0,1,186.34,85.72Z"/><path d="M202.11,80l-5.22,2.23v-1L201,79.52l-4.13-1.7v-1l5.22,2.2Z"/><path d="M41.26,93.52a7.2,7.2,0,0,1,.29-2.25A2.79,2.79,0,0,1,42.4,90a2.18,2.18,0,0,1,1.43-.46,2.33,2.33,0,0,1,1.11.26,2.12,2.12,0,0,1,.79.74,4,4,0,0,1,.49,1.17,7.78,7.78,0,0,1,.18,1.86,7.21,7.21,0,0,1-.28,2.24,2.79,2.79,0,0,1-.85,1.32A2.4,2.4,0,0,1,42,96.73,5.19,5.19,0,0,1,41.26,93.52Zm1,0a4.93,4.93,0,0,0,.45,2.58,1.3,1.3,0,0,0,2.24,0,7.56,7.56,0,0,0,0-5.16,1.35,1.35,0,0,0-1.13-.64,1.24,1.24,0,0,0-1.06.56A5,5,0,0,0,42.25,93.52Z"/><path d="M58.12,97.41v-.72a1.77,1.77,0,0,1-1.6.85,2.24,2.24,0,0,1-1.25-.37,2.48,2.48,0,0,1-.89-1.05,3.62,3.62,0,0,1-.31-1.55A4.06,4.06,0,0,1,54.35,93a2.25,2.25,0,0,1,.85-1.07,2.28,2.28,0,0,1,1.27-.37,1.9,1.9,0,0,1,1.57.78V89.53h1v7.87Zm-3.06-2.85a2.48,2.48,0,0,0,.46,1.64,1.39,1.39,0,0,0,1.09.54,1.37,1.37,0,0,0,1.08-.52,2.39,2.39,0,0,0,.44-1.58,2.68,2.68,0,0,0-.45-1.72,1.39,1.39,0,0,0-1.11-.55,1.34,1.34,0,0,0-1.08.53A2.6,2.6,0,0,0,55.06,94.56Z"/><path d="M64.48,96.7a3.58,3.58,0,0,1-1,.64,3,3,0,0,1-1.07.19,2.07,2.07,0,0,1-1.44-.46,1.52,1.52,0,0,1-.5-1.17,1.58,1.58,0,0,1,.69-1.32,2.31,2.31,0,0,1,.7-.32,7,7,0,0,1,.86-.15,8.82,8.82,0,0,0,1.72-.33c0-.13,0-.22,0-.25a1.07,1.07,0,0,0-.27-.83,1.62,1.62,0,0,0-1.1-.33,1.7,1.7,0,0,0-1,.24,1.46,1.46,0,0,0-.48.85l-.95-.13a2.35,2.35,0,0,1,.42-1,1.87,1.87,0,0,1,.85-.57,3.8,3.8,0,0,1,1.29-.2,3.41,3.41,0,0,1,1.19.17,1.56,1.56,0,0,1,.67.43,1.52,1.52,0,0,1,.3.66,5.44,5.44,0,0,1,0,.89V95a13.6,13.6,0,0,0,.06,1.71,2.15,2.15,0,0,0,.24.68h-1A2.05,2.05,0,0,1,64.48,96.7Zm-.08-2.16a7.1,7.1,0,0,1-1.58.37,3.69,3.69,0,0,0-.84.19.84.84,0,0,0-.38.31.86.86,0,0,0,.16,1.1,1.26,1.26,0,0,0,.86.26,2,2,0,0,0,1-.25,1.5,1.5,0,0,0,.64-.67,2.33,2.33,0,0,0,.16-1Z"/><path d="M67.05,99.6l-.11-.91a2.14,2.14,0,0,0,.55.09,1.05,1.05,0,0,0,.52-.11.88.88,0,0,0,.32-.3,4.68,4.68,0,0,0,.3-.72l.09-.24L66.55,91.7h1L68.78,95q.23.63.41,1.32a12.93,12.93,0,0,1,.4-1.3l1.22-3.32h1L69.6,97.5a11.45,11.45,0,0,1-.54,1.29,1.9,1.9,0,0,1-.59.7,1.39,1.39,0,0,1-.79.22A2,2,0,0,1,67.05,99.6Z"/><path d="M72.43,95.71l1-.15a1.33,1.33,0,0,0,.45.88,1.56,1.56,0,0,0,1,.31,1.51,1.51,0,0,0,1-.27.81.81,0,0,0,.32-.64.59.59,0,0,0-.28-.52,4.17,4.17,0,0,0-1-.33,9,9,0,0,1-1.47-.46,1.41,1.41,0,0,1-.84-1.31,1.46,1.46,0,0,1,.17-.71,1.57,1.57,0,0,1,.48-.54,2,2,0,0,1,.62-.28,2.91,2.91,0,0,1,.83-.12,3.3,3.3,0,0,1,1.18.19,1.6,1.6,0,0,1,.75.52,2.05,2.05,0,0,1,.33.88L76,93.3a1,1,0,0,0-.37-.69,1.37,1.37,0,0,0-.87-.25,1.58,1.58,0,0,0-1,.22.64.64,0,0,0-.28.52.54.54,0,0,0,.12.34.86.86,0,0,0,.37.26l.85.25a11.85,11.85,0,0,1,1.43.45,1.45,1.45,0,0,1,.64.51,1.41,1.41,0,0,1,.23.83,1.62,1.62,0,0,1-.28.91,1.83,1.83,0,0,1-.81.66,3,3,0,0,1-1.2.23,2.68,2.68,0,0,1-1.69-.46A2.15,2.15,0,0,1,72.43,95.71Z"/><path d="M89.9,96.48v.93h-5.2a1.7,1.7,0,0,1,.11-.67,3.56,3.56,0,0,1,.64-1,10,10,0,0,1,1.27-1.19,10.72,10.72,0,0,0,1.73-1.67,2,2,0,0,0,.45-1.16,1.29,1.29,0,0,0-.41-1,1.48,1.48,0,0,0-1.07-.39,1.51,1.51,0,0,0-1.12.42,1.58,1.58,0,0,0-.42,1.16l-1-.1a2.44,2.44,0,0,1,.77-1.69,2.62,2.62,0,0,1,1.79-.58,2.5,2.5,0,0,1,1.79.63,2.06,2.06,0,0,1,.66,1.56,2.36,2.36,0,0,1-.19.93,3.6,3.6,0,0,1-.64,1A15.63,15.63,0,0,1,87.56,95q-.87.73-1.12,1a3.23,3.23,0,0,0-.41.52Z"/><path d="M98,97.41V89.53h1v2.82a2.16,2.16,0,0,1,1.71-.78,2.29,2.29,0,0,1,1.1.25,1.47,1.47,0,0,1,.67.69,3.19,3.19,0,0,1,.2,1.28v3.61h-1V93.79a1.49,1.49,0,0,0-.31-1.06,1.16,1.16,0,0,0-.89-.33,1.57,1.57,0,0,0-.81.22,1.26,1.26,0,0,0-.54.6,2.78,2.78,0,0,0-.16,1.05v3.12Z"/><path d="M104.3,97.41V91.7h.87v.86a2.36,2.36,0,0,1,.61-.8,1.08,1.08,0,0,1,.62-.19,1.89,1.89,0,0,1,1,.31l-.33.9a1.38,1.38,0,0,0-.71-.21.92.92,0,0,0-.57.19,1,1,0,0,0-.36.53,3.76,3.76,0,0,0-.16,1.13v3Z"/><path d="M107.81,95.71l1-.15a1.33,1.33,0,0,0,.45.88,1.56,1.56,0,0,0,1,.31,1.51,1.51,0,0,0,1-.27.81.81,0,0,0,.32-.64.59.59,0,0,0-.28-.52,4.17,4.17,0,0,0-1-.33,9,9,0,0,1-1.47-.46,1.41,1.41,0,0,1-.84-1.31,1.46,1.46,0,0,1,.17-.71,1.57,1.57,0,0,1,.48-.54,2,2,0,0,1,.62-.28,2.91,2.91,0,0,1,.83-.12,3.3,3.3,0,0,1,1.18.19,1.6,1.6,0,0,1,.75.52,2.05,2.05,0,0,1,.33.88l-.95.13a1,1,0,0,0-.37-.69,1.37,1.37,0,0,0-.87-.25,1.58,1.58,0,0,0-1,.22.64.64,0,0,0-.28.52.54.54,0,0,0,.12.34.86.86,0,0,0,.37.26l.85.25a11.85,11.85,0,0,1,1.43.45,1.45,1.45,0,0,1,.64.51,1.41,1.41,0,0,1,.23.83,1.62,1.62,0,0,1-.28.91,1.83,1.83,0,0,1-.81.66,3,3,0,0,1-1.2.23,2.68,2.68,0,0,1-1.69-.46A2.15,2.15,0,0,1,107.81,95.71Z"/><path d="M123.3,97.41V95.52h-3.42v-.89l3.59-5.1h.79v5.1h1.06v.89h-1.06v1.88Zm0-2.77V91.09l-2.46,3.55Z"/><path d="M126.54,93.52a7.18,7.18,0,0,1,.29-2.25,2.79,2.79,0,0,1,.85-1.31,2.18,2.18,0,0,1,1.43-.46,2.33,2.33,0,0,1,1.11.26,2.12,2.12,0,0,1,.79.74,3.93,3.93,0,0,1,.49,1.17,7.79,7.79,0,0,1,.18,1.86,7.2,7.2,0,0,1-.28,2.24,2.8,2.8,0,0,1-.85,1.32,2.4,2.4,0,0,1-3.22-.35A5.19,5.19,0,0,1,126.54,93.52Zm1,0A4.93,4.93,0,0,0,128,96.1a1.3,1.3,0,0,0,2.24,0,7.56,7.56,0,0,0,0-5.16,1.35,1.35,0,0,0-1.13-.64,1.24,1.24,0,0,0-1.06.56A5,5,0,0,0,127.53,93.52Z"/><path d="M139.7,97.41V91.7h.86v.8a2.05,2.05,0,0,1,.71-.67,2,2,0,0,1,1-.25,1.88,1.88,0,0,1,1,.26,1.41,1.41,0,0,1,.57.74,2,2,0,0,1,1.76-1A1.74,1.74,0,0,1,147,92a2,2,0,0,1,.46,1.45v3.92h-1V93.81a2.61,2.61,0,0,0-.09-.83.81.81,0,0,0-.34-.41,1.06,1.06,0,0,0-.58-.16,1.35,1.35,0,0,0-1,.4,1.76,1.76,0,0,0-.4,1.28v3.31h-1V93.7a1.63,1.63,0,0,0-.24-1,.9.9,0,0,0-.77-.32,1.41,1.41,0,0,0-.76.21,1.22,1.22,0,0,0-.5.63,3.55,3.55,0,0,0-.16,1.19v3Z"/><path d="M149.09,90.65V89.53h1v1.11Zm0,6.76V91.7h1v5.7Z"/><path d="M151.74,97.41V91.7h.87v.81a2,2,0,0,1,1.82-.94,2.36,2.36,0,0,1,.95.19,1.48,1.48,0,0,1,.65.49,1.85,1.85,0,0,1,.3.71,5.48,5.48,0,0,1,.05.94v3.51h-1V93.94a2.61,2.61,0,0,0-.11-.88.94.94,0,0,0-.4-.47,1.27,1.27,0,0,0-.67-.17,1.57,1.57,0,0,0-1.07.39,1.93,1.93,0,0,0-.45,1.49v3.12Z"/><path d="M157.7,95.71l1-.15a1.33,1.33,0,0,0,.45.88,1.56,1.56,0,0,0,1,.31,1.51,1.51,0,0,0,1-.27.81.81,0,0,0,.32-.64.59.59,0,0,0-.28-.52,4.16,4.16,0,0,0-1-.33,9,9,0,0,1-1.47-.46,1.41,1.41,0,0,1-.84-1.31,1.48,1.48,0,0,1,.17-.71,1.58,1.58,0,0,1,.48-.54,2,2,0,0,1,.62-.28,2.91,2.91,0,0,1,.83-.12,3.3,3.3,0,0,1,1.18.19,1.6,1.6,0,0,1,.75.52,2,2,0,0,1,.33.88l-.95.13a1,1,0,0,0-.37-.69,1.37,1.37,0,0,0-.87-.25,1.58,1.58,0,0,0-1,.22.64.64,0,0,0-.28.52.54.54,0,0,0,.12.34.85.85,0,0,0,.37.26l.85.25a11.92,11.92,0,0,1,1.43.45,1.45,1.45,0,0,1,.64.51,1.42,1.42,0,0,1,.23.83,1.62,1.62,0,0,1-.28.91,1.84,1.84,0,0,1-.81.66,3,3,0,0,1-1.2.23,2.68,2.68,0,0,1-1.7-.46A2.16,2.16,0,0,1,157.7,95.71Z"/><path d="M174.08,96.7a3.58,3.58,0,0,1-1,.64,3,3,0,0,1-1.07.19,2.07,2.07,0,0,1-1.44-.46,1.52,1.52,0,0,1-.5-1.17,1.58,1.58,0,0,1,.69-1.32,2.32,2.32,0,0,1,.7-.32,7,7,0,0,1,.86-.15,8.82,8.82,0,0,0,1.72-.33c0-.13,0-.22,0-.25a1.07,1.07,0,0,0-.27-.83,1.63,1.63,0,0,0-1.1-.33,1.7,1.7,0,0,0-1,.24,1.46,1.46,0,0,0-.48.85l-.95-.13a2.35,2.35,0,0,1,.42-1,1.86,1.86,0,0,1,.85-.57,3.79,3.79,0,0,1,1.29-.2,3.4,3.4,0,0,1,1.19.17,1.55,1.55,0,0,1,.67.43,1.52,1.52,0,0,1,.3.66,5.42,5.42,0,0,1,0,.89V95a13.54,13.54,0,0,0,.06,1.71,2.13,2.13,0,0,0,.24.68h-1A2,2,0,0,1,174.08,96.7ZM174,94.54a7.09,7.09,0,0,1-1.58.37,3.67,3.67,0,0,0-.84.19.84.84,0,0,0-.38.31.85.85,0,0,0,.16,1.1,1.26,1.26,0,0,0,.86.26,2,2,0,0,0,1-.25,1.49,1.49,0,0,0,.64-.67,2.33,2.33,0,0,0,.16-1Z"/><path d="M176.51,97.88l.94.14a.89.89,0,0,0,.33.63,1.61,1.61,0,0,0,1,.27,1.72,1.72,0,0,0,1-.27,1.32,1.32,0,0,0,.49-.75,6.15,6.15,0,0,0,.07-1.24,2,2,0,0,1-1.58.75,2.15,2.15,0,0,1-1.82-.85,3.27,3.27,0,0,1-.64-2,3.81,3.81,0,0,1,.29-1.51,2.36,2.36,0,0,1,.86-1.07,2.32,2.32,0,0,1,1.32-.37,2,2,0,0,1,1.67.82V91.7h.89v4.93a4.66,4.66,0,0,1-.27,1.89,2,2,0,0,1-.86.88,3,3,0,0,1-1.45.32,2.72,2.72,0,0,1-1.65-.46A1.55,1.55,0,0,1,176.51,97.88Zm.8-3.43a2.48,2.48,0,0,0,.45,1.64,1.42,1.42,0,0,0,1.12.52,1.43,1.43,0,0,0,1.12-.51,2.4,2.4,0,0,0,.45-1.61,2.33,2.33,0,0,0-.46-1.58,1.43,1.43,0,0,0-1.12-.53,1.39,1.39,0,0,0-1.1.52A2.32,2.32,0,0,0,177.32,94.45Z"/><path d="M182.67,94.56a2.94,2.94,0,0,1,.88-2.35,2.66,2.66,0,0,1,1.79-.63,2.56,2.56,0,0,1,1.92.77,2.93,2.93,0,0,1,.75,2.13,3.77,3.77,0,0,1-.33,1.73,2.33,2.33,0,0,1-1,1,2.79,2.79,0,0,1-1.38.35,2.57,2.57,0,0,1-1.94-.77A3.07,3.07,0,0,1,182.67,94.56Zm1,0a2.43,2.43,0,0,0,.48,1.64,1.59,1.59,0,0,0,2.4,0,2.49,2.49,0,0,0,.48-1.67,2.35,2.35,0,0,0-.48-1.6,1.59,1.59,0,0,0-2.4,0A2.42,2.42,0,0,0,183.66,94.56Z"/><path d="M201.89,94l-5.22,2.23v-1l4.13-1.71-4.13-1.7v-1l5.22,2.2Z"/></svg>