<svg id="Layer_1" data-name="Layer 1" xmlns="http://www.w3.org/2000/svg" viewBox="0 0 225.68 130.33"><title>UIM_temperatures_menu</title><rect x="0.5" y="0.5" width="224.67" height="129.31" style="fill:none;stroke:#000"/><rect x="1.37" y="0.64" width="223.81" height="14.46" style="stroke:#000"/><rect x="0.49" y="101.87" width="224.67" height="27.94" style="fill:none"/><path d="M81.6,11V4.69H79.12V3.84h6v.84H82.59V11Z" style="fill:#fff"/><path d="M88.81,9.33l1,.11a2.21,2.21,0,0,1-.84,1.24,2.6,2.6,0,0,1-1.56.44,2.56,2.56,0,0,1-1.89-.7,2.66,2.66,0,0,1-.7-2,2.78,2.78,0,0,1,.71-2,2.45,2.45,0,0,1,1.84-.72,2.39,2.39,0,0,1,1.78.71,2.73,2.73,0,0,1,.69,2c0,.05,0,.13,0,.23H85.72a1.94,1.94,0,0,0,.51,1.31,1.55,1.55,0,0,0,1.14.45,1.46,1.46,0,0,0,.87-.25A1.69,1.69,0,0,0,88.81,9.33Zm-3-1.42h3a1.71,1.71,0,0,0-.35-1,1.44,1.44,0,0,0-1.14-.51,1.51,1.51,0,0,0-1.07.41A1.57,1.57,0,0,0,85.78,7.91Z" style="fill:#fff"/><path d="M91.18,11V5.81H92v.73a1.91,1.91,0,0,1,.68-.61,2,2,0,0,1,1-.23,1.86,1.86,0,0,1,1,.24,1.29,1.29,0,0,1,.55.67,2,2,0,0,1,1.68-.91,1.71,1.71,0,0,1,1.25.43,1.77,1.77,0,0,1,.44,1.32V11h-.92V7.73A2.3,2.3,0,0,0,97.55,7a.74.74,0,0,0-.33-.37,1.06,1.06,0,0,0-.55-.14,1.32,1.32,0,0,0-1,.36A1.55,1.55,0,0,0,95.34,8v3h-.92V7.63a1.43,1.43,0,0,0-.23-.88.87.87,0,0,0-.74-.29,1.39,1.39,0,0,0-.72.2,1.12,1.12,0,0,0-.48.57,3.07,3.07,0,0,0-.15,1.08V11Z" style="fill:#fff"/><path d="M100.19,13V5.81H101v.67a2,2,0,0,1,.67-.59,1.92,1.92,0,0,1,.91-.2,2.23,2.23,0,0,1,1.23.34,2.12,2.12,0,0,1,.8,1,3.38,3.38,0,0,1,.27,1.36,3.32,3.32,0,0,1-.3,1.43,2.18,2.18,0,0,1-.87,1,2.32,2.32,0,0,1-1.2.34,1.81,1.81,0,0,1-.83-.19,1.86,1.86,0,0,1-.6-.47V13ZM101,8.44a2.18,2.18,0,0,0,.43,1.48,1.33,1.33,0,0,0,1,.48,1.36,1.36,0,0,0,1.05-.5A2.27,2.27,0,0,0,104,8.36a2.21,2.21,0,0,0-.43-1.48,1.31,1.31,0,0,0-1-.49,1.35,1.35,0,0,0-1,.52A2.27,2.27,0,0,0,101,8.44Z" style="fill:#fff"/><path d="M110,9.33l1,.11a2.21,2.21,0,0,1-.84,1.24,2.6,2.6,0,0,1-1.56.44,2.56,2.56,0,0,1-1.89-.7,2.66,2.66,0,0,1-.7-2,2.78,2.78,0,0,1,.71-2,2.45,2.45,0,0,1,1.84-.72,2.39,2.39,0,0,1,1.78.71,2.73,2.73,0,0,1,.69,2c0,.05,0,.13,0,.23h-4.06a1.94,1.94,0,0,0,.51,1.31,1.55,1.55,0,0,0,1.14.45,1.46,1.46,0,0,0,.87-.25A1.69,1.69,0,0,0,110,9.33Zm-3-1.42h3a1.71,1.71,0,0,0-.35-1,1.44,1.44,0,0,0-1.14-.51,1.51,1.51,0,0,0-1.07.41A1.57,1.57,0,0,0,107,7.91Z" style="fill:#fff"/><path d="M112.38,11V5.81h.83V6.6a2.16,2.16,0,0,1,.59-.73,1.06,1.06,0,0,1,.59-.18,1.86,1.86,0,0,1,.95.28l-.32.82a1.37,1.37,0,0,0-.68-.19.91.91,0,0,0-.54.17.94.94,0,0,0-.34.48,3.27,3.27,0,0,0-.15,1V11Z" style="fill:#fff"/><path d="M119.71,10.36a3.47,3.47,0,0,1-1,.59,3,3,0,0,1-1,.17,2,2,0,0,1-1.38-.42,1.35,1.35,0,0,1-.48-1.07,1.37,1.37,0,0,1,.18-.7,1.46,1.46,0,0,1,.48-.51,2.3,2.3,0,0,1,.66-.29A7,7,0,0,1,118,8a8.78,8.78,0,0,0,1.65-.3c0-.12,0-.2,0-.23a.94.94,0,0,0-.26-.76,1.6,1.6,0,0,0-1.05-.3,1.69,1.69,0,0,0-1,.22,1.32,1.32,0,0,0-.46.77l-.9-.12a2.09,2.09,0,0,1,.41-.89,1.79,1.79,0,0,1,.82-.52,3.8,3.8,0,0,1,1.24-.18,3.42,3.42,0,0,1,1.13.16,1.5,1.5,0,0,1,.64.39,1.35,1.35,0,0,1,.29.6,4.78,4.78,0,0,1,0,.81V8.83a11.92,11.92,0,0,0,.06,1.55,1.92,1.92,0,0,0,.23.62h-1A1.79,1.79,0,0,1,119.71,10.36Zm-.08-2a7,7,0,0,1-1.51.33,3.64,3.64,0,0,0-.8.18.79.79,0,0,0-.36.29.72.72,0,0,0-.13.42.73.73,0,0,0,.28.59,1.24,1.24,0,0,0,.82.23,2,2,0,0,0,.95-.22,1.4,1.4,0,0,0,.61-.61,2,2,0,0,0,.15-.88Z" style="fill:#fff"/><path d="M124.27,10.21l.13.78a3.57,3.57,0,0,1-.7.08,1.64,1.64,0,0,1-.78-.15.87.87,0,0,1-.39-.4,3,3,0,0,1-.11-1v-3h-.68V5.81h.68V4.53l.92-.53V5.81h.93V6.5h-.93v3a1.48,1.48,0,0,0,0,.48.38.38,0,0,0,.16.17.64.64,0,0,0,.32.06Z" style="fill:#fff"/><path d="M129,11v-.76a2,2,0,0,1-1.73.88,2.29,2.29,0,0,1-.9-.18,1.48,1.48,0,0,1-.62-.44,1.6,1.6,0,0,1-.29-.65,4.31,4.31,0,0,1-.06-.82V5.81h.92V8.69a5,5,0,0,0,.06.93.92.92,0,0,0,.37.54,1.19,1.19,0,0,0,.7.2,1.57,1.57,0,0,0,.78-.2,1.14,1.14,0,0,0,.52-.55,2.65,2.65,0,0,0,.15-1V5.81h.92V11Z" style="fill:#fff"/><path d="M131.53,11V5.81h.83V6.6a2.16,2.16,0,0,1,.59-.73,1.06,1.06,0,0,1,.59-.18,1.86,1.86,0,0,1,.95.28l-.32.82a1.37,1.37,0,0,0-.68-.19.91.91,0,0,0-.54.17.94.94,0,0,0-.34.48,3.27,3.27,0,0,0-.15,1V11Z" style="fill:#fff"/><path d="M139,9.33l1,.11a2.21,2.21,0,0,1-.84,1.24,2.6,2.6,0,0,1-1.56.44,2.56,2.56,0,0,1-1.89-.7,2.66,2.66,0,0,1-.7-2,2.78,2.78,0,0,1,.71-2,2.45,2.45,0,0,1,1.84-.72,2.39,2.39,0,0,1,1.78.71,2.73,2.73,0,0,1,.69,2c0,.05,0,.13,0,.23h-4.06a1.94,1.94,0,0,0,.51,1.31,1.55,1.55,0,0,0,1.14.45,1.46,1.46,0,0,0,.87-.25A1.69,1.69,0,0,0,139,9.33Zm-3-1.42h3a1.71,1.71,0,0,0-.35-1,1.45,1.45,0,0,0-1.14-.51,1.51,1.51,0,0,0-1.07.41A1.57,1.57,0,0,0,136,7.91Z" style="fill:#fff"/><path d="M141,9.45l.91-.14a1.2,1.2,0,0,0,.43.8,1.54,1.54,0,0,0,1,.28,1.49,1.49,0,0,0,.94-.25.73.73,0,0,0,.31-.58.53.53,0,0,0-.27-.47,4.17,4.17,0,0,0-.94-.3A8.93,8.93,0,0,1,142,8.38a1.34,1.34,0,0,1-.59-.49,1.26,1.26,0,0,1-.2-.7,1.28,1.28,0,0,1,.17-.64,1.45,1.45,0,0,1,.45-.49,1.94,1.94,0,0,1,.59-.26,2.93,2.93,0,0,1,.8-.1,3.3,3.3,0,0,1,1.13.18,1.54,1.54,0,0,1,.71.48,1.81,1.81,0,0,1,.32.8l-.9.12a.93.93,0,0,0-.36-.62,1.35,1.35,0,0,0-.83-.22,1.57,1.57,0,0,0-.91.2.58.58,0,0,0-.27.47.47.47,0,0,0,.11.31.82.82,0,0,0,.35.23l.81.22a11.77,11.77,0,0,1,1.37.41,1.38,1.38,0,0,1,.61.46,1.25,1.25,0,0,1,.22.75,1.42,1.42,0,0,1-.27.83,1.73,1.73,0,0,1-.78.6,3,3,0,0,1-1.15.21,2.65,2.65,0,0,1-1.62-.42A1.93,1.93,0,0,1,141,9.45Z" style="fill:#fff"/><rect x="0.53" y="101.87" width="44.92" height="27.98" style="fill:none"/><rect x="45.65" y="101.87" width="44.92" height="27.98" style="fill:none"/><rect x="90.57" y="101.87" width="44.92" height="27.98" style="fill:none;stroke:#000;stroke-linecap:round;stroke-linejoin:round;stroke-width:0.9753649999999999px"/><rect x="180.23" y="101.87" width="44.92" height="27.98" style="fill:none;stroke:#000;stroke-linecap:round;stroke-linejoin:round;stroke-width:0.9753649999999999px"/><rect x="135.36" y="101.87" width="44.92" height="27.98" style="fill:none"/><line x1="0.53" y1="101.87" x2="225.04" y2="101.87" style="fill:none;stroke:#000;stroke-linecap:round;stroke-linejoin:round;stroke-width:0.9753649999999999px"/><path d="M193.64,118.84V111h.65v3.23h2.56V111h.65v7.87h-.65v-3.71h-2.56v3.71Z"/><path d="M199.16,118.84V111h3.57v.93h-2.91v2.41h2.73v.92h-2.73v2.68h3v.93Z"/><path d="M204.27,118.84V111h.65v6.94h2.43v.93Z"/><path d="M208.68,118.84V111h1.86a2.82,2.82,0,0,1,.75.08,1.22,1.22,0,0,1,.61.37,2,2,0,0,1,.4.76,3.66,3.66,0,0,1,.15,1.07,3.36,3.36,0,0,1-.4,1.7,1.53,1.53,0,0,1-1.45.7h-1.26v3.2Zm.65-4.13h1.27a1,1,0,0,0,.9-.38,1.81,1.81,0,0,0,.27-1.06,2.07,2.07,0,0,0-.16-.85.84.84,0,0,0-.41-.46,1.76,1.76,0,0,0-.61-.07h-1.26Z"/><rect x="209.68" y="83.2" width="15.48" height="18.65" style="fill:none;stroke:#000;stroke-width:0.9753649999999999px"/><polygon points="210.46 92.12 217.43 99.08 224.37 92.12 210.46 92.12"/><rect x="209.68" y="15.08" width="15.48" height="18.65" style="fill:none;stroke:#000;stroke-width:0.9753649999999999px"/><rect x="210.23" y="35.39" width="13.56" height="46.38"/><polygon points="224.4 24.93 217.43 17.97 210.48 24.93 224.4 24.93"/><path d="M102.71,118.84V111h1.85a1.38,1.38,0,0,1,1.44,1,2.84,2.84,0,0,1,.19,1,2.61,2.61,0,0,1-.17,1,1.66,1.66,0,0,1-.52.72,1.43,1.43,0,0,1,.69.71,2.74,2.74,0,0,1,.24,1.19,3.48,3.48,0,0,1-.15,1,2.11,2.11,0,0,1-.36.73,1.35,1.35,0,0,1-.54.39,2.11,2.11,0,0,1-.79.13Zm.65-4.57h1.07a1.52,1.52,0,0,0,.62-.09.77.77,0,0,0,.38-.39,1.65,1.65,0,0,0,.13-.69,1.86,1.86,0,0,0-.12-.69.73.73,0,0,0-.34-.41,1.81,1.81,0,0,0-.75-.11h-1Zm0,3.64h1.23a1.82,1.82,0,0,0,.44,0,.86.86,0,0,0,.38-.21,1.1,1.1,0,0,0,.25-.44,2.06,2.06,0,0,0,.1-.66,1.89,1.89,0,0,0-.14-.76.89.89,0,0,0-.39-.46,1.58,1.58,0,0,0-.72-.13h-1.14Z"/><path d="M107.34,118.84l1.89-7.87h.7l2,7.87h-.74l-.58-2.38h-2.06l-.54,2.38Zm1.42-3.23h1.67l-.51-2.18q-.24-1-.35-1.63a14.92,14.92,0,0,1-.27,1.5Z"/><path d="M116.55,116.08l.65.26a4.21,4.21,0,0,1-.74,2,1.61,1.61,0,0,1-1.3.67,1.72,1.72,0,0,1-1.3-.52,3.38,3.38,0,0,1-.76-1.5,8.2,8.2,0,0,1-.26-2.11,7,7,0,0,1,.29-2.15,3,3,0,0,1,.84-1.39,1.78,1.78,0,0,1,1.2-.48,1.56,1.56,0,0,1,1.24.6,3.59,3.59,0,0,1,.7,1.69l-.64.24a2.84,2.84,0,0,0-.5-1.25,1,1,0,0,0-.82-.39,1.22,1.22,0,0,0-1,.44,2.54,2.54,0,0,0-.54,1.17,7.28,7.28,0,0,0-.16,1.51,7.44,7.44,0,0,0,.18,1.75,2.26,2.26,0,0,0,.57,1.12,1.19,1.19,0,0,0,.84.37,1.13,1.13,0,0,0,.93-.5A3.22,3.22,0,0,0,116.55,116.08Z"/><path d="M118.53,118.84V111h.65v3.9l2.45-3.9h.88l-2.07,3.19,2.16,4.68h-.86l-1.76-4-.81,1.26v2.73Z"/><path d="M4.33,25.57A4.28,4.28,0,0,1,5.38,22.5,3.58,3.58,0,0,1,8.1,21.39a3.77,3.77,0,0,1,2,.52,3.4,3.4,0,0,1,1.33,1.45,4.71,4.71,0,0,1,.46,2.11,4.64,4.64,0,0,1-.48,2.14A3.3,3.3,0,0,1,10,29.06a3.92,3.92,0,0,1-1.91.49,3.72,3.72,0,0,1-2-.54,3.46,3.46,0,0,1-1.33-1.47A4.44,4.44,0,0,1,4.33,25.57Zm1.07,0a3.16,3.16,0,0,0,.77,2.24,2.52,2.52,0,0,0,1.92.82A2.51,2.51,0,0,0,10,27.82a3.34,3.34,0,0,0,.76-2.35,4,4,0,0,0-.32-1.68,2.5,2.5,0,0,0-1-1.11,2.57,2.57,0,0,0-1.4-.4,2.66,2.66,0,0,0-1.9.76A3.4,3.4,0,0,0,5.4,25.59Z"/><path d="M13.3,31.59V23.7h.88v.74a2.16,2.16,0,0,1,.7-.65,1.93,1.93,0,0,1,1-.22,2.26,2.26,0,0,1,1.29.38A2.31,2.31,0,0,1,18,25a3.87,3.87,0,0,1,.28,1.5,3.82,3.82,0,0,1-.31,1.58A2.38,2.38,0,0,1,17,29.16a2.35,2.35,0,0,1-1.26.37,1.82,1.82,0,0,1-.87-.2,2,2,0,0,1-.63-.52v2.78Zm.88-5a2.48,2.48,0,0,0,.45,1.63,1.37,1.37,0,0,0,1.08.53,1.4,1.4,0,0,0,1.1-.54,2.58,2.58,0,0,0,.46-1.69,2.52,2.52,0,0,0-.45-1.63,1.35,1.35,0,0,0-1.07-.54,1.39,1.39,0,0,0-1.09.58A2.58,2.58,0,0,0,14.17,26.59Z"/><path d="M23.54,27.57l1,.12a2.44,2.44,0,0,1-.88,1.36,2.63,2.63,0,0,1-1.63.48,2.61,2.61,0,0,1-2-.77,3,3,0,0,1-.73-2.16,3.15,3.15,0,0,1,.74-2.23A2.51,2.51,0,0,1,22,23.57a2.44,2.44,0,0,1,1.87.78,3.09,3.09,0,0,1,.73,2.19c0,.06,0,.14,0,.26H20.31a2.19,2.19,0,0,0,.53,1.44,1.58,1.58,0,0,0,1.19.5,1.48,1.48,0,0,0,.91-.28A1.86,1.86,0,0,0,23.54,27.57ZM20.37,26h3.19a1.93,1.93,0,0,0-.37-1.08,1.48,1.48,0,0,0-1.2-.56,1.53,1.53,0,0,0-1.12.45A1.76,1.76,0,0,0,20.37,26Z"/><path d="M26,29.41V23.7h.87v.86a2.37,2.37,0,0,1,.61-.8,1.08,1.08,0,0,1,.62-.19,1.89,1.89,0,0,1,1,.31l-.33.9a1.38,1.38,0,0,0-.71-.21.92.92,0,0,0-.57.19,1,1,0,0,0-.36.53,3.77,3.77,0,0,0-.16,1.13v3Z"/><path d="M33.58,28.7a3.6,3.6,0,0,1-1,.64,3,3,0,0,1-1.07.19A2.08,2.08,0,0,1,30,29.08a1.52,1.52,0,0,1-.5-1.17,1.56,1.56,0,0,1,.19-.77,1.58,1.58,0,0,1,.5-.56,2.35,2.35,0,0,1,.7-.32,6.85,6.85,0,0,1,.86-.15,8.84,8.84,0,0,0,1.72-.33c0-.13,0-.22,0-.25a1.07,1.07,0,0,0-.27-.83,1.62,1.62,0,0,0-1.1-.33,1.71,1.71,0,0,0-1,.24,1.46,1.46,0,0,0-.48.85l-.95-.13a2.34,2.34,0,0,1,.42-1,1.86,1.86,0,0,1,.85-.58,3.82,3.82,0,0,1,1.29-.2,3.42,3.42,0,0,1,1.19.17,1.56,1.56,0,0,1,.67.43,1.52,1.52,0,0,1,.3.66,5.44,5.44,0,0,1,0,.89V27a13.6,13.6,0,0,0,.06,1.71,2.15,2.15,0,0,0,.24.68h-1A2.06,2.06,0,0,1,33.58,28.7Zm-.08-2.16a7.1,7.1,0,0,1-1.58.37,3.63,3.63,0,0,0-.84.19.84.84,0,0,0-.38.31.85.85,0,0,0,.16,1.1,1.26,1.26,0,0,0,.86.26,2,2,0,0,0,1-.24,1.5,1.5,0,0,0,.64-.67,2.33,2.33,0,0,0,.16-1Z"/><path d="M38.3,28.54l.14.85a3.6,3.6,0,0,1-.73.09,1.66,1.66,0,0,1-.82-.17.93.93,0,0,1-.41-.44,3.46,3.46,0,0,1-.12-1.14V24.46h-.71V23.7h.71V22.29l1-.58v2h1v.75h-1v3.34a1.68,1.68,0,0,0,.05.53.4.4,0,0,0,.17.19.65.65,0,0,0,.33.07Z"/><path d="M39.48,22.65V21.53h1v1.11Zm0,6.76V23.7h1v5.7Z"/><path d="M42.13,29.41V23.7H43v.81a2.05,2.05,0,0,1,1.82-.94,2.37,2.37,0,0,1,.95.19,1.48,1.48,0,0,1,.65.49,1.87,1.87,0,0,1,.3.71,5.55,5.55,0,0,1,.05.94v3.51h-1V25.94a2.61,2.61,0,0,0-.11-.88.93.93,0,0,0-.4-.47,1.27,1.27,0,0,0-.67-.17,1.57,1.57,0,0,0-1.07.39,1.93,1.93,0,0,0-.45,1.49v3.12Z"/><path d="M48.29,29.88l.94.14a.9.9,0,0,0,.33.63,1.61,1.61,0,0,0,1,.27,1.73,1.73,0,0,0,1-.27,1.32,1.32,0,0,0,.49-.75,6.17,6.17,0,0,0,.07-1.24,2,2,0,0,1-1.58.75,2.15,2.15,0,0,1-1.82-.85,3.27,3.27,0,0,1-.64-2A3.79,3.79,0,0,1,48.4,25,2.36,2.36,0,0,1,49.25,24a2.31,2.31,0,0,1,1.32-.38,2,2,0,0,1,1.67.82V23.7h.89v4.93a4.67,4.67,0,0,1-.27,1.89,2,2,0,0,1-.86.88,3,3,0,0,1-1.45.32,2.73,2.73,0,0,1-1.65-.46A1.55,1.55,0,0,1,48.29,29.88Zm.8-3.43a2.47,2.47,0,0,0,.45,1.64,1.47,1.47,0,0,0,2.23,0,2.39,2.39,0,0,0,.45-1.61,2.34,2.34,0,0,0-.46-1.58,1.44,1.44,0,0,0-1.12-.53,1.39,1.39,0,0,0-1.1.52A2.32,2.32,0,0,0,49.09,26.45Z"/><path d="M57.85,26.88l1-.09a2.17,2.17,0,0,0,.32,1,1.77,1.77,0,0,0,.79.61,3,3,0,0,0,1.21.23,2.9,2.9,0,0,0,1.05-.18,1.46,1.46,0,0,0,.68-.49,1.13,1.13,0,0,0,.22-.67,1,1,0,0,0-.21-.65,1.59,1.59,0,0,0-.71-.46,13.86,13.86,0,0,0-1.4-.38,7.16,7.16,0,0,1-1.52-.49,2.13,2.13,0,0,1-.84-.73,1.8,1.8,0,0,1-.28-1,2,2,0,0,1,.34-1.11,2.1,2.1,0,0,1,1-.79,3.75,3.75,0,0,1,1.44-.27,4,4,0,0,1,1.54.28,2.23,2.23,0,0,1,1,.83,2.39,2.39,0,0,1,.39,1.24l-1,.08a1.61,1.61,0,0,0-.55-1.13A2.12,2.12,0,0,0,61,22.32a2.2,2.2,0,0,0-1.38.35,1,1,0,0,0-.43.83.9.9,0,0,0,.31.7,4.15,4.15,0,0,0,1.57.56,10.39,10.39,0,0,1,1.74.5,2.39,2.39,0,0,1,1,.8,2,2,0,0,1,.33,1.12,2.15,2.15,0,0,1-.36,1.18,2.37,2.37,0,0,1-1,.86,3.6,3.6,0,0,1-1.52.31,4.54,4.54,0,0,1-1.79-.31,2.51,2.51,0,0,1-1.13-.94A2.65,2.65,0,0,1,57.85,26.88Z"/><path d="M69.55,27.57l1,.12a2.44,2.44,0,0,1-.88,1.36,3,3,0,0,1-3.62-.29,3,3,0,0,1-.73-2.16,3.15,3.15,0,0,1,.74-2.23A2.51,2.51,0,0,1,68,23.57a2.44,2.44,0,0,1,1.87.78,3.09,3.09,0,0,1,.73,2.19c0,.06,0,.14,0,.26H66.32a2.19,2.19,0,0,0,.53,1.44,1.58,1.58,0,0,0,1.19.5,1.48,1.48,0,0,0,.91-.28A1.86,1.86,0,0,0,69.55,27.57ZM66.37,26h3.19a1.93,1.93,0,0,0-.37-1.08,1.48,1.48,0,0,0-1.2-.56,1.53,1.53,0,0,0-1.12.45A1.76,1.76,0,0,0,66.37,26Z"/><path d="M74.09,28.54l.14.85a3.6,3.6,0,0,1-.73.09,1.66,1.66,0,0,1-.82-.17.93.93,0,0,1-.41-.44,3.46,3.46,0,0,1-.12-1.14V24.46h-.71V23.7h.71V22.29l1-.58v2h1v.75h-1v3.34a1.68,1.68,0,0,0,.05.53.4.4,0,0,0,.17.19.65.65,0,0,0,.33.07Z"/><path d="M75.26,31.59V23.7h.88v.74a2.16,2.16,0,0,1,.7-.65,1.93,1.93,0,0,1,1-.22,2.26,2.26,0,0,1,1.29.38A2.31,2.31,0,0,1,79.92,25a3.87,3.87,0,0,1,.28,1.5,3.82,3.82,0,0,1-.31,1.58A2.38,2.38,0,0,1,79,29.16a2.35,2.35,0,0,1-1.26.37,1.82,1.82,0,0,1-.87-.2,2,2,0,0,1-.63-.52v2.78Zm.88-5a2.48,2.48,0,0,0,.45,1.63,1.37,1.37,0,0,0,1.08.53,1.4,1.4,0,0,0,1.1-.54,2.58,2.58,0,0,0,.46-1.69,2.52,2.52,0,0,0-.45-1.63,1.35,1.35,0,0,0-1.07-.54,1.39,1.39,0,0,0-1.09.58A2.58,2.58,0,0,0,76.13,26.59Z"/><path d="M81.23,26.56a2.94,2.94,0,0,1,.88-2.35,2.66,2.66,0,0,1,1.79-.63,2.56,2.56,0,0,1,1.92.77,2.93,2.93,0,0,1,.75,2.13,3.77,3.77,0,0,1-.33,1.73,2.34,2.34,0,0,1-1,1,2.8,2.8,0,0,1-1.38.35A2.56,2.56,0,0,1,82,28.77,3.07,3.07,0,0,1,81.23,26.56Zm1,0a2.43,2.43,0,0,0,.48,1.64,1.59,1.59,0,0,0,2.4,0,2.49,2.49,0,0,0,.48-1.67,2.36,2.36,0,0,0-.48-1.6,1.59,1.59,0,0,0-2.4,0A2.42,2.42,0,0,0,82.23,26.56Z"/><path d="M87.94,22.65V21.53h1v1.11Zm0,6.76V23.7h1v5.7Z"/><path d="M90.6,29.41V23.7h.87v.81a2.05,2.05,0,0,1,1.82-.94,2.37,2.37,0,0,1,.95.19,1.48,1.48,0,0,1,.65.49,1.87,1.87,0,0,1,.3.71,5.55,5.55,0,0,1,.05.94v3.51h-1V25.94a2.61,2.61,0,0,0-.11-.88.93.93,0,0,0-.4-.47,1.27,1.27,0,0,0-.67-.17A1.57,1.57,0,0,0,92,24.8a1.93,1.93,0,0,0-.45,1.49v3.12Z"/><path d="M99,28.54l.14.85a3.6,3.6,0,0,1-.73.09,1.66,1.66,0,0,1-.82-.17.93.93,0,0,1-.41-.44,3.46,3.46,0,0,1-.12-1.14V24.46H96.4V23.7h.71V22.29l1-.58v2h1v.75h-1v3.34a1.68,1.68,0,0,0,.05.53.4.4,0,0,0,.17.19.65.65,0,0,0,.33.07Z"/><path d="M163.27,29.41h-1V23.25a5,5,0,0,1-.92.67,6.47,6.47,0,0,1-1,.5v-.93a5.83,5.83,0,0,0,1.42-.92,3.62,3.62,0,0,0,.86-1.05h.62Z"/><path d="M171,28.48v.93h-5.2a1.7,1.7,0,0,1,.11-.67,3.56,3.56,0,0,1,.64-1,10,10,0,0,1,1.26-1.19,10.69,10.69,0,0,0,1.74-1.67,2,2,0,0,0,.45-1.16,1.29,1.29,0,0,0-.41-1,1.48,1.48,0,0,0-1.07-.4,1.51,1.51,0,0,0-1.12.42,1.59,1.59,0,0,0-.42,1.16l-1-.1a2.44,2.44,0,0,1,.77-1.69,2.62,2.62,0,0,1,1.79-.58,2.5,2.5,0,0,1,1.79.63,2.06,2.06,0,0,1,.66,1.56,2.36,2.36,0,0,1-.19.93,3.61,3.61,0,0,1-.64,1A15.69,15.69,0,0,1,168.71,27q-.87.73-1.12,1a3.18,3.18,0,0,0-.41.52Z"/><path d="M172.3,25.52a7.21,7.21,0,0,1,.29-2.25,2.8,2.8,0,0,1,.85-1.31,2.18,2.18,0,0,1,1.43-.46,2.33,2.33,0,0,1,1.11.25,2.13,2.13,0,0,1,.79.74,4,4,0,0,1,.49,1.17,7.77,7.77,0,0,1,.18,1.86,7.2,7.2,0,0,1-.29,2.24,2.8,2.8,0,0,1-.85,1.32,2.4,2.4,0,0,1-3.22-.35A5.19,5.19,0,0,1,172.3,25.52Zm1,0a4.93,4.93,0,0,0,.45,2.58,1.3,1.3,0,0,0,2.24,0,4.94,4.94,0,0,0,.45-2.58,4.93,4.93,0,0,0-.45-2.58,1.34,1.34,0,0,0-1.13-.64,1.24,1.24,0,0,0-1.06.56A5,5,0,0,0,173.3,25.52Z"/><path d="M178.87,22.89a1.49,1.49,0,1,1,.44,1.06A1.43,1.43,0,0,1,178.87,22.89Zm.59,0a.91.91,0,1,0,.27-.64A.87.87,0,0,0,179.46,22.89Z"/><path d="M183.71,29.41V21.53H189v.93h-4.27V24.9h3.7v.93h-3.7v3.58Z"/><path d="M202.11,26l-5.22,2.23v-1L201,25.52l-4.13-1.7v-1l5.22,2.2Z"/><path d="M4.64,45.41V37.53H7.36a6.58,6.58,0,0,1,1.4.11,2.67,2.67,0,0,1,1.15.56,3.2,3.2,0,0,1,.93,1.35,5.29,5.29,0,0,1,.31,1.87A5.5,5.5,0,0,1,10.95,43a3.86,3.86,0,0,1-.54,1.15,2.85,2.85,0,0,1-.72.71,2.91,2.91,0,0,1-.94.4,5.38,5.38,0,0,1-1.27.13Zm1-.93H7.37a4.08,4.08,0,0,0,1.22-.15,1.75,1.75,0,0,0,.71-.41,2.48,2.48,0,0,0,.58-1,4.86,4.86,0,0,0,.21-1.52,3.67,3.67,0,0,0-.41-1.9,2,2,0,0,0-1-.89,4.07,4.07,0,0,0-1.35-.16H5.69Z"/><path d="M12.69,38.65V37.53h1v1.11Zm0,6.76V39.7h1v5.7Z"/><path d="M15.58,45.41v-5h-.85V39.7h.85V39.1a2.66,2.66,0,0,1,.1-.85,1.23,1.23,0,0,1,.49-.61,1.77,1.77,0,0,1,1-.23,4.74,4.74,0,0,1,.9.1l-.15.84a3.26,3.26,0,0,0-.57-.05.85.85,0,0,0-.62.19,1,1,0,0,0-.18.7v.53h1.11v.75H16.54v5Z"/><path d="M18.66,45.41v-5H17.8V39.7h.85V39.1a2.66,2.66,0,0,1,.1-.85,1.23,1.23,0,0,1,.49-.61,1.77,1.77,0,0,1,1-.23,4.74,4.74,0,0,1,.9.1l-.15.84a3.26,3.26,0,0,0-.57-.05.85.85,0,0,0-.62.19,1,1,0,0,0-.18.7v.53h1.11v.75H19.62v5Z"/><path d="M25.61,43.57l1,.12a2.44,2.44,0,0,1-.88,1.36,3,3,0,0,1-3.62-.29,3,3,0,0,1-.73-2.16,3.15,3.15,0,0,1,.74-2.23A2.51,2.51,0,0,1,24,39.57a2.44,2.44,0,0,1,1.87.78,3.09,3.09,0,0,1,.73,2.19c0,.06,0,.14,0,.26H22.38a2.19,2.19,0,0,0,.53,1.44,1.58,1.58,0,0,0,1.19.5,1.48,1.48,0,0,0,.91-.28A1.86,1.86,0,0,0,25.61,43.57ZM22.43,42h3.19a1.93,1.93,0,0,0-.37-1.08,1.48,1.48,0,0,0-1.2-.56,1.53,1.53,0,0,0-1.12.45A1.76,1.76,0,0,0,22.43,42Z"/><path d="M28,45.41V39.7h.87v.86a2.37,2.37,0,0,1,.61-.8,1.08,1.08,0,0,1,.62-.19,1.89,1.89,0,0,1,1,.31l-.33.9a1.38,1.38,0,0,0-.71-.21.92.92,0,0,0-.57.19,1,1,0,0,0-.36.53A3.77,3.77,0,0,0,29,42.42v3Z"/><path d="M35.83,43.57l1,.12A2.44,2.44,0,0,1,36,45.05a3,3,0,0,1-3.62-.29,3,3,0,0,1-.73-2.16,3.15,3.15,0,0,1,.74-2.23,2.51,2.51,0,0,1,1.92-.79,2.44,2.44,0,0,1,1.87.78,3.09,3.09,0,0,1,.73,2.19c0,.06,0,.14,0,.26H32.6a2.19,2.19,0,0,0,.53,1.44,1.58,1.58,0,0,0,1.19.5,1.48,1.48,0,0,0,.91-.28A1.86,1.86,0,0,0,35.83,43.57ZM32.65,42h3.19a1.93,1.93,0,0,0-.37-1.08,1.48,1.48,0,0,0-1.2-.56,1.53,1.53,0,0,0-1.12.45A1.76,1.76,0,0,0,32.65,42Z"/><path d="M38.26,45.41V39.7h.87v.81a2.05,2.05,0,0,1,1.82-.94,2.37,2.37,0,0,1,.95.19,1.48,1.48,0,0,1,.65.49,1.87,1.87,0,0,1,.3.71,5.55,5.55,0,0,1,.05.94v3.51h-1V41.94a2.61,2.61,0,0,0-.11-.88.93.93,0,0,0-.4-.47,1.27,1.27,0,0,0-.67-.17,1.57,1.57,0,0,0-1.07.39,1.93,1.93,0,0,0-.45,1.49v3.12Z"/><path d="M46.71,44.54l.14.85a3.6,3.6,0,0,1-.73.09,1.66,1.66,0,0,1-.82-.17.93.93,0,0,1-.41-.44,3.46,3.46,0,0,1-.12-1.14V40.46h-.71V39.7h.71V38.29l1-.58v2h1v.75h-1v3.34a1.68,1.68,0,0,0,.05.53.4.4,0,0,0,.17.19.65.65,0,0,0,.33.07Z"/><path d="M47.88,38.65V37.53h1v1.11Zm0,6.76V39.7h1v5.7Z"/><path d="M54.26,44.7a3.6,3.6,0,0,1-1,.64,3,3,0,0,1-1.07.19,2.08,2.08,0,0,1-1.44-.46,1.52,1.52,0,0,1-.5-1.17,1.56,1.56,0,0,1,.19-.77,1.58,1.58,0,0,1,.5-.56,2.35,2.35,0,0,1,.7-.32,6.85,6.85,0,0,1,.86-.15,8.84,8.84,0,0,0,1.72-.33c0-.13,0-.22,0-.25a1.07,1.07,0,0,0-.27-.83,1.62,1.62,0,0,0-1.1-.33,1.71,1.71,0,0,0-1,.24,1.46,1.46,0,0,0-.48.85l-.95-.13a2.34,2.34,0,0,1,.42-1,1.86,1.86,0,0,1,.85-.58,3.82,3.82,0,0,1,1.29-.2,3.42,3.42,0,0,1,1.19.17,1.56,1.56,0,0,1,.67.43,1.52,1.52,0,0,1,.3.66,5.44,5.44,0,0,1,0,.89V43a13.6,13.6,0,0,0,.06,1.71,2.15,2.15,0,0,0,.24.68h-1A2.06,2.06,0,0,1,54.26,44.7Zm-.08-2.16a7.1,7.1,0,0,1-1.58.37,3.63,3.63,0,0,0-.84.19.84.84,0,0,0-.38.31.85.85,0,0,0,.16,1.1,1.26,1.26,0,0,0,.86.26,2,2,0,0,0,1-.24,1.5,1.5,0,0,0,.64-.67,2.33,2.33,0,0,0,.16-1Z"/><path d="M56.85,45.41V37.53h1v7.87Z"/><path d="M173.79,41.14a1.82,1.82,0,0,1-.89-.63,1.64,1.64,0,0,1-.29-1,1.91,1.91,0,0,1,.62-1.44,2.6,2.6,0,0,1,3.3,0,1.94,1.94,0,0,1,.63,1.46,1.6,1.6,0,0,1-.29,1,1.82,1.82,0,0,1-.87.63,2,2,0,0,1,1.48,2,2.26,2.26,0,0,1-.71,1.7,2.91,2.91,0,0,1-3.76,0,2.3,2.3,0,0,1-.71-1.72,2.08,2.08,0,0,1,.39-1.29A2,2,0,0,1,173.79,41.14Zm-.5,2a1.75,1.75,0,0,0,.2.8,1.38,1.38,0,0,0,.58.6,1.7,1.7,0,0,0,.83.21A1.56,1.56,0,0,0,176,44.3a1.53,1.53,0,0,0,.45-1.13A1.55,1.55,0,0,0,176,42a1.59,1.59,0,0,0-1.16-.46,1.54,1.54,0,0,0-1.58,1.58Zm.31-3.64a1.22,1.22,0,0,0,.36.91,1.27,1.27,0,0,0,.93.35,1.25,1.25,0,0,0,.92-.35,1.16,1.16,0,0,0,.36-.86,1.2,1.2,0,0,0-.37-.89,1.25,1.25,0,0,0-.92-.36,1.27,1.27,0,0,0-.92.35A1.14,1.14,0,0,0,173.6,39.5Z"/><path d="M178.87,38.89a1.49,1.49,0,1,1,.44,1.06A1.43,1.43,0,0,1,178.87,38.89Zm.59,0a.91.91,0,1,0,.27-.64A.87.87,0,0,0,179.46,38.89Z"/><path d="M183.71,45.41V37.53H189v.93h-4.27V40.9h3.7v.93h-3.7v3.58Z"/><path d="M202.11,42l-5.22,2.23v-1L201,41.52l-4.13-1.7v-1l5.22,2.2Z"/><path d="M6.65,61.41V54.46H4.05v-.93H10.3v.93H7.69v6.94Z"/><path d="M14,60.7a3.6,3.6,0,0,1-1,.64,3,3,0,0,1-1.07.19,2.08,2.08,0,0,1-1.44-.46,1.52,1.52,0,0,1-.5-1.17,1.56,1.56,0,0,1,.19-.77,1.58,1.58,0,0,1,.5-.56,2.35,2.35,0,0,1,.7-.32,6.85,6.85,0,0,1,.86-.15,8.84,8.84,0,0,0,1.72-.33c0-.13,0-.22,0-.25a1.07,1.07,0,0,0-.27-.83,1.62,1.62,0,0,0-1.1-.33,1.71,1.71,0,0,0-1,.24,1.46,1.46,0,0,0-.48.85l-.95-.13a2.34,2.34,0,0,1,.42-1,1.86,1.86,0,0,1,.85-.58,3.82,3.82,0,0,1,1.29-.2,3.42,3.42,0,0,1,1.19.17,1.56,1.56,0,0,1,.67.43,1.52,1.52,0,0,1,.3.66,5.44,5.44,0,0,1,0,.89V59a13.6,13.6,0,0,0,.06,1.71,2.15,2.15,0,0,0,.24.68h-1A2.06,2.06,0,0,1,14,60.7Zm-.08-2.16a7.1,7.1,0,0,1-1.58.37,3.63,3.63,0,0,0-.84.19.84.84,0,0,0-.38.31.85.85,0,0,0,.16,1.1,1.26,1.26,0,0,0,.86.26,2,2,0,0,0,1-.24,1.5,1.5,0,0,0,.64-.67,2.33,2.33,0,0,0,.16-1Z"/><path d="M16.58,61.41V55.7h.87v.81a2.05,2.05,0,0,1,1.82-.94,2.37,2.37,0,0,1,.95.19,1.48,1.48,0,0,1,.65.49,1.87,1.87,0,0,1,.3.71,5.55,5.55,0,0,1,.05.94v3.51h-1V57.94a2.61,2.61,0,0,0-.11-.88.93.93,0,0,0-.4-.47,1.27,1.27,0,0,0-.67-.17A1.57,1.57,0,0,0,18,56.8a1.93,1.93,0,0,0-.45,1.49v3.12Z"/><path d="M22.92,61.41V53.53h1V58l2.29-2.32h1.25l-2.18,2.12,2.4,3.59H26.46l-1.89-2.92-.68.66v2.26Z"/><path d="M33.84,61.41V54.46H31.25v-.93h6.24v.93h-2.6v6.94Z"/><path d="M41.34,59.57l1,.12a2.44,2.44,0,0,1-.88,1.36,3,3,0,0,1-3.62-.29,3,3,0,0,1-.73-2.16,3.15,3.15,0,0,1,.74-2.23,2.51,2.51,0,0,1,1.92-.79,2.44,2.44,0,0,1,1.87.78,3.09,3.09,0,0,1,.73,2.19c0,.06,0,.14,0,.26H38.11a2.19,2.19,0,0,0,.53,1.44,1.58,1.58,0,0,0,1.19.5,1.48,1.48,0,0,0,.91-.28A1.86,1.86,0,0,0,41.34,59.57ZM38.16,58h3.19A1.93,1.93,0,0,0,41,56.93a1.48,1.48,0,0,0-1.2-.56,1.53,1.53,0,0,0-1.12.45A1.76,1.76,0,0,0,38.16,58Z"/><path d="M43.77,61.41V55.7h.86v.8a2,2,0,0,1,.71-.67,2,2,0,0,1,1-.25,1.88,1.88,0,0,1,1,.26,1.41,1.41,0,0,1,.57.74,2,2,0,0,1,1.76-1A1.74,1.74,0,0,1,51,56a2,2,0,0,1,.46,1.45v3.92h-1V57.81a2.64,2.64,0,0,0-.09-.84.81.81,0,0,0-.34-.41,1.06,1.06,0,0,0-.58-.16,1.35,1.35,0,0,0-1,.4,1.76,1.76,0,0,0-.4,1.28v3.31h-1V57.7a1.63,1.63,0,0,0-.24-1,.9.9,0,0,0-.77-.32,1.41,1.41,0,0,0-.75.21,1.22,1.22,0,0,0-.5.63,3.53,3.53,0,0,0-.16,1.19v3Z"/><path d="M53.15,63.59V55.7H54v.74a2.16,2.16,0,0,1,.7-.65,1.93,1.93,0,0,1,1-.22A2.26,2.26,0,0,1,57,56,2.31,2.31,0,0,1,57.82,57a3.87,3.87,0,0,1,.28,1.5,3.82,3.82,0,0,1-.31,1.58,2.38,2.38,0,0,1-.91,1.07,2.35,2.35,0,0,1-1.26.37,1.82,1.82,0,0,1-.87-.2,2,2,0,0,1-.63-.52v2.78Zm.88-5a2.48,2.48,0,0,0,.45,1.63,1.37,1.37,0,0,0,1.08.53,1.4,1.4,0,0,0,1.1-.54,2.58,2.58,0,0,0,.46-1.69,2.52,2.52,0,0,0-.45-1.63,1.35,1.35,0,0,0-1.07-.54,1.39,1.39,0,0,0-1.09.58A2.58,2.58,0,0,0,54,58.59Z"/><path d="M63.4,59.57l1,.12a2.44,2.44,0,0,1-.88,1.36,3,3,0,0,1-3.62-.29,3,3,0,0,1-.73-2.16,3.15,3.15,0,0,1,.74-2.23,2.51,2.51,0,0,1,1.92-.79,2.44,2.44,0,0,1,1.87.78,3.09,3.09,0,0,1,.73,2.19c0,.06,0,.14,0,.26H60.17a2.19,2.19,0,0,0,.53,1.44,1.58,1.58,0,0,0,1.19.5,1.48,1.48,0,0,0,.91-.28A1.86,1.86,0,0,0,63.4,59.57ZM60.22,58h3.19A1.93,1.93,0,0,0,63,56.93a1.48,1.48,0,0,0-1.2-.56,1.53,1.53,0,0,0-1.12.45A1.76,1.76,0,0,0,60.22,58Z"/><path d="M65.82,61.41V55.7h.87v.86a2.37,2.37,0,0,1,.61-.8,1.08,1.08,0,0,1,.62-.19,1.89,1.89,0,0,1,1,.31l-.33.9a1.38,1.38,0,0,0-.71-.21.92.92,0,0,0-.57.19,1,1,0,0,0-.36.53,3.77,3.77,0,0,0-.16,1.13v3Z"/><path d="M73.44,60.7a3.6,3.6,0,0,1-1,.64,3,3,0,0,1-1.07.19,2.08,2.08,0,0,1-1.44-.46,1.52,1.52,0,0,1-.5-1.17,1.56,1.56,0,0,1,.19-.77,1.58,1.58,0,0,1,.5-.56,2.35,2.35,0,0,1,.7-.32,6.85,6.85,0,0,1,.86-.15,8.84,8.84,0,0,0,1.72-.33c0-.13,0-.22,0-.25a1.07,1.07,0,0,0-.27-.83,1.62,1.62,0,0,0-1.1-.33,1.71,1.71,0,0,0-1,.24,1.46,1.46,0,0,0-.48.85l-.95-.13a2.34,2.34,0,0,1,.42-1,1.86,1.86,0,0,1,.85-.58,3.82,3.82,0,0,1,1.29-.2,3.42,3.42,0,0,1,1.19.17,1.56,1.56,0,0,1,.67.43,1.52,1.52,0,0,1,.3.66,5.44,5.44,0,0,1,0,.89V59a13.6,13.6,0,0,0,.06,1.71,2.15,2.15,0,0,0,.24.68h-1A2.06,2.06,0,0,1,73.44,60.7Zm-.08-2.16a7.1,7.1,0,0,1-1.58.37,3.63,3.63,0,0,0-.84.19.84.84,0,0,0-.38.31.85.85,0,0,0,.16,1.1,1.26,1.26,0,0,0,.86.26,2,2,0,0,0,1-.24,1.5,1.5,0,0,0,.64-.67,2.33,2.33,0,0,0,.16-1Z"/><path d="M78.16,60.54l.14.85a3.6,3.6,0,0,1-.73.09,1.66,1.66,0,0,1-.82-.17.93.93,0,0,1-.41-.44,3.46,3.46,0,0,1-.12-1.14V56.46h-.71V55.7h.71V54.29l1-.58v2h1v.75h-1v3.34a1.68,1.68,0,0,0,.05.53.4.4,0,0,0,.17.19.65.65,0,0,0,.33.07Z"/><path d="M83.07,61.41v-.84a2.09,2.09,0,0,1-1.81,1,2.3,2.3,0,0,1-.94-.19,1.55,1.55,0,0,1-.65-.49,1.82,1.82,0,0,1-.3-.72,4.9,4.9,0,0,1-.06-.9V55.7h1v3.16a5.62,5.62,0,0,0,.06,1,1,1,0,0,0,.39.6,1.2,1.2,0,0,0,.73.22,1.59,1.59,0,0,0,.82-.22,1.24,1.24,0,0,0,.54-.61A3.05,3.05,0,0,0,83,58.76V55.7h1v5.7Z"/><path d="M85.65,61.41V55.7h.87v.86a2.37,2.37,0,0,1,.61-.8,1.08,1.08,0,0,1,.62-.19,1.89,1.89,0,0,1,1,.31l-.33.9a1.38,1.38,0,0,0-.71-.21.92.92,0,0,0-.57.19,1,1,0,0,0-.36.53,3.77,3.77,0,0,0-.16,1.13v3Z"/><path d="M93.45,59.57l1,.12a2.44,2.44,0,0,1-.88,1.36A3,3,0,0,1,90,60.77a3,3,0,0,1-.73-2.16A3.15,3.15,0,0,1,90,56.37a2.51,2.51,0,0,1,1.92-.79,2.44,2.44,0,0,1,1.87.78,3.09,3.09,0,0,1,.73,2.19c0,.06,0,.14,0,.26H90.22a2.19,2.19,0,0,0,.53,1.44,1.58,1.58,0,0,0,1.19.5,1.48,1.48,0,0,0,.91-.28A1.86,1.86,0,0,0,93.45,59.57ZM90.28,58h3.19a1.93,1.93,0,0,0-.37-1.08,1.48,1.48,0,0,0-1.2-.56,1.53,1.53,0,0,0-1.12.45A1.76,1.76,0,0,0,90.28,58Z"/><path d="M163.36,61.41h-1V55.25a5,5,0,0,1-.92.67,6.47,6.47,0,0,1-1,.5v-.93a5.86,5.86,0,0,0,1.42-.92,3.65,3.65,0,0,0,.86-1.05h.62Z"/><path d="M171.14,60.48v.93h-5.21a1.7,1.7,0,0,1,.11-.67,3.55,3.55,0,0,1,.64-1,10,10,0,0,1,1.27-1.19,10.71,10.71,0,0,0,1.73-1.67,2,2,0,0,0,.45-1.16,1.29,1.29,0,0,0-.41-1,1.48,1.48,0,0,0-1.07-.4,1.51,1.51,0,0,0-1.12.42,1.58,1.58,0,0,0-.42,1.16l-1-.1a2.44,2.44,0,0,1,.77-1.69,2.62,2.62,0,0,1,1.79-.58,2.5,2.5,0,0,1,1.79.63,2.06,2.06,0,0,1,.66,1.56,2.36,2.36,0,0,1-.19.93,3.59,3.59,0,0,1-.64,1A15.57,15.57,0,0,1,168.8,59q-.87.73-1.12,1a3.23,3.23,0,0,0-.41.52Z"/><path d="M172.39,57.52a7.21,7.21,0,0,1,.29-2.25,2.8,2.8,0,0,1,.85-1.31A2.18,2.18,0,0,1,175,53.5a2.33,2.33,0,0,1,1.11.25,2.13,2.13,0,0,1,.79.74,4,4,0,0,1,.49,1.17,7.77,7.77,0,0,1,.18,1.86,7.2,7.2,0,0,1-.29,2.24,2.8,2.8,0,0,1-.85,1.32,2.4,2.4,0,0,1-3.22-.35A5.19,5.19,0,0,1,172.39,57.52Zm1,0a4.93,4.93,0,0,0,.45,2.58,1.3,1.3,0,0,0,2.24,0,4.94,4.94,0,0,0,.45-2.58,4.93,4.93,0,0,0-.45-2.58A1.34,1.34,0,0,0,175,54.3a1.24,1.24,0,0,0-1.06.56A5,5,0,0,0,173.39,57.52Z"/><path d="M179,54.89a1.49,1.49,0,1,1,.44,1.06A1.43,1.43,0,0,1,179,54.89Zm.58,0a.91.91,0,1,0,.27-.64A.87.87,0,0,0,179.55,54.89Z"/><path d="M183.8,61.41V53.53h5.31v.93h-4.27V56.9h3.7v.93h-3.7v3.58Z"/><path d="M6.65,77.41V70.46H4.05v-.93H10.3v.93H7.69v6.94Z"/><path d="M14,76.7a3.62,3.62,0,0,1-1,.64,3,3,0,0,1-1.07.19,2.08,2.08,0,0,1-1.44-.46,1.52,1.52,0,0,1-.5-1.17,1.56,1.56,0,0,1,.19-.77,1.58,1.58,0,0,1,.5-.56,2.33,2.33,0,0,1,.7-.32,6.83,6.83,0,0,1,.86-.15,8.81,8.81,0,0,0,1.72-.33c0-.13,0-.22,0-.25a1.07,1.07,0,0,0-.27-.83,1.62,1.62,0,0,0-1.1-.33,1.71,1.71,0,0,0-1,.24,1.46,1.46,0,0,0-.48.85l-.95-.13a2.34,2.34,0,0,1,.42-1,1.86,1.86,0,0,1,.85-.58,3.82,3.82,0,0,1,1.29-.2,3.43,3.43,0,0,1,1.19.17,1.57,1.57,0,0,1,.67.43,1.52,1.52,0,0,1,.3.66,5.44,5.44,0,0,1,0,.89V75a13.6,13.6,0,0,0,.06,1.71,2.14,2.14,0,0,0,.24.68h-1A2.05,2.05,0,0,1,14,76.7Zm-.08-2.16a7.15,7.15,0,0,1-1.58.37,3.58,3.58,0,0,0-.84.19.84.84,0,0,0-.38.31.86.86,0,0,0,.16,1.1,1.26,1.26,0,0,0,.86.26,2,2,0,0,0,1-.25,1.5,1.5,0,0,0,.64-.67,2.33,2.33,0,0,0,.16-1Z"/><path d="M16.58,77.41V71.7h.87v.81a2,2,0,0,1,1.82-.94,2.37,2.37,0,0,1,.95.19,1.48,1.48,0,0,1,.65.49,1.86,1.86,0,0,1,.3.71,5.56,5.56,0,0,1,.05.94v3.51h-1V73.94a2.61,2.61,0,0,0-.11-.88.93.93,0,0,0-.4-.47,1.28,1.28,0,0,0-.67-.17A1.56,1.56,0,0,0,18,72.8a1.93,1.93,0,0,0-.45,1.49v3.12Z"/><path d="M22.92,77.41V69.53h1V74l2.29-2.32h1.25l-2.18,2.12,2.4,3.59H26.46l-1.89-2.92-.68.66v2.26Z"/><path d="M32,77.41V69.53h3a7.21,7.21,0,0,1,1.2.08,2.37,2.37,0,0,1,1,.37,1.94,1.94,0,0,1,.63.76,2.56,2.56,0,0,1-.4,2.77,3.07,3.07,0,0,1-2.31.7h-2v3.2Zm1-4.13h2a2.16,2.16,0,0,0,1.43-.38A1.34,1.34,0,0,0,37,71.84a1.43,1.43,0,0,0-.25-.85,1.17,1.17,0,0,0-.66-.46,4.5,4.5,0,0,0-1-.07h-2Z"/><path d="M39.46,77.41V71.7h.87v.87a2.36,2.36,0,0,1,.61-.8,1.08,1.08,0,0,1,.62-.19,1.89,1.89,0,0,1,1,.31l-.33.9a1.38,1.38,0,0,0-.71-.21.92.92,0,0,0-.57.19,1,1,0,0,0-.36.53,3.77,3.77,0,0,0-.16,1.13v3Z"/><path d="M43,74.56a2.94,2.94,0,0,1,.88-2.35,2.66,2.66,0,0,1,1.79-.63,2.56,2.56,0,0,1,1.92.77,2.94,2.94,0,0,1,.75,2.13A3.77,3.77,0,0,1,48,76.21a2.34,2.34,0,0,1-1,1,2.8,2.8,0,0,1-1.38.35,2.57,2.57,0,0,1-1.94-.77A3.07,3.07,0,0,1,43,74.56Zm1,0a2.43,2.43,0,0,0,.48,1.64,1.59,1.59,0,0,0,2.4,0,2.49,2.49,0,0,0,.48-1.67,2.36,2.36,0,0,0-.48-1.6,1.59,1.59,0,0,0-2.4,0A2.42,2.42,0,0,0,44,74.56Z"/><path d="M50.58,77.41h-.9V69.53h1v2.81a1.91,1.91,0,0,1,1.56-.77,2.41,2.41,0,0,1,1,.21,2,2,0,0,1,.77.6,2.88,2.88,0,0,1,.48.93,3.81,3.81,0,0,1,.17,1.16,3.26,3.26,0,0,1-.73,2.27,2.27,2.27,0,0,1-1.74.8,1.82,1.82,0,0,1-1.58-.84Zm0-2.89A3,3,0,0,0,50.85,76a1.38,1.38,0,0,0,2.33.2,2.5,2.5,0,0,0,.46-1.64,2.55,2.55,0,0,0-.44-1.65,1.35,1.35,0,0,0-1.07-.53,1.39,1.39,0,0,0-1.1.55A2.42,2.42,0,0,0,50.57,74.51Z"/><path d="M59.93,75.57l1,.12a2.44,2.44,0,0,1-.88,1.36,3,3,0,0,1-3.62-.29,3,3,0,0,1-.73-2.16,3.15,3.15,0,0,1,.74-2.23,2.51,2.51,0,0,1,1.92-.79,2.44,2.44,0,0,1,1.87.78A3.09,3.09,0,0,1,61,74.54c0,.06,0,.14,0,.26H56.71a2.19,2.19,0,0,0,.53,1.44,1.58,1.58,0,0,0,1.19.5,1.48,1.48,0,0,0,.91-.28A1.85,1.85,0,0,0,59.93,75.57ZM56.76,74h3.19a1.93,1.93,0,0,0-.37-1.08,1.48,1.48,0,0,0-1.2-.56,1.53,1.53,0,0,0-1.12.45A1.76,1.76,0,0,0,56.76,74Z"/><path d="M65.45,73.57A4.28,4.28,0,0,1,66.5,70.5a3.58,3.58,0,0,1,2.72-1.11,3.77,3.77,0,0,1,2,.52,3.4,3.4,0,0,1,1.33,1.45A4.72,4.72,0,0,1,73,73.48a4.64,4.64,0,0,1-.48,2.14,3.3,3.3,0,0,1-1.37,1.43,3.91,3.91,0,0,1-1.91.49,3.73,3.73,0,0,1-2-.54,3.46,3.46,0,0,1-1.33-1.47A4.44,4.44,0,0,1,65.45,73.57Zm1.07,0a3.16,3.16,0,0,0,.77,2.24,2.67,2.67,0,0,0,3.86,0,3.35,3.35,0,0,0,.76-2.35,4,4,0,0,0-.32-1.68,2.5,2.5,0,0,0-1-1.11,2.57,2.57,0,0,0-1.4-.39,2.66,2.66,0,0,0-1.9.76A3.4,3.4,0,0,0,66.52,73.59Z"/><path d="M74.65,77.41v-5H73.8V71.7h.85V71.1a2.66,2.66,0,0,1,.1-.85,1.24,1.24,0,0,1,.49-.61,1.77,1.77,0,0,1,1-.23,4.74,4.74,0,0,1,.9.1l-.15.84a3.31,3.31,0,0,0-.57-.05.84.84,0,0,0-.62.19,1,1,0,0,0-.18.7v.53h1.11v.75H75.61v5Z"/><path d="M77.73,77.41v-5h-.85V71.7h.85V71.1a2.66,2.66,0,0,1,.1-.85,1.24,1.24,0,0,1,.49-.61,1.77,1.77,0,0,1,1-.23,4.74,4.74,0,0,1,.9.1l-.15.84a3.31,3.31,0,0,0-.57-.05.84.84,0,0,0-.62.19,1,1,0,0,0-.18.7v.53H79.8v.75H78.69v5Z"/><path d="M80.39,75.71l1-.15a1.34,1.34,0,0,0,.45.88,1.56,1.56,0,0,0,1,.31,1.51,1.51,0,0,0,1-.27.81.81,0,0,0,.32-.64.59.59,0,0,0-.28-.52,4.2,4.2,0,0,0-1-.33,8.94,8.94,0,0,1-1.47-.46,1.42,1.42,0,0,1-.62-.54,1.44,1.44,0,0,1-.21-.77,1.47,1.47,0,0,1,.17-.71A1.57,1.57,0,0,1,81.2,72a2,2,0,0,1,.62-.28,3,3,0,0,1,.83-.12,3.3,3.3,0,0,1,1.18.19,1.6,1.6,0,0,1,.75.52,2.06,2.06,0,0,1,.33.88L84,73.3a1,1,0,0,0-.37-.69,1.37,1.37,0,0,0-.87-.25,1.58,1.58,0,0,0-1,.22.64.64,0,0,0-.28.52.53.53,0,0,0,.12.34.84.84,0,0,0,.37.26l.85.25a11.89,11.89,0,0,1,1.43.45,1.46,1.46,0,0,1,.64.51,1.42,1.42,0,0,1,.23.83,1.62,1.62,0,0,1-.28.91,1.83,1.83,0,0,1-.81.66,3,3,0,0,1-1.2.23,2.68,2.68,0,0,1-1.69-.46A2.15,2.15,0,0,1,80.39,75.71Z"/><path d="M90.4,75.57l1,.12a2.44,2.44,0,0,1-.88,1.36,3,3,0,0,1-3.62-.29,3,3,0,0,1-.73-2.16,3.15,3.15,0,0,1,.74-2.23,2.51,2.51,0,0,1,1.92-.79,2.44,2.44,0,0,1,1.87.78,3.09,3.09,0,0,1,.73,2.19c0,.06,0,.14,0,.26H87.17a2.19,2.19,0,0,0,.53,1.44,1.58,1.58,0,0,0,1.19.5,1.48,1.48,0,0,0,.91-.28A1.85,1.85,0,0,0,90.4,75.57ZM87.22,74h3.19A1.93,1.93,0,0,0,90,72.93a1.48,1.48,0,0,0-1.2-.56,1.53,1.53,0,0,0-1.12.45A1.76,1.76,0,0,0,87.22,74Z"/><path d="M94.94,76.54l.14.85a3.56,3.56,0,0,1-.73.09,1.66,1.66,0,0,1-.82-.17.93.93,0,0,1-.41-.44A3.46,3.46,0,0,1,93,75.74V72.46H92.3V71.7H93V70.29l1-.58v2h1v.75H94v3.34a1.67,1.67,0,0,0,.05.53.4.4,0,0,0,.17.19.65.65,0,0,0,.33.07Z"/><path d="M172.3,73.52a7.21,7.21,0,0,1,.29-2.25,2.81,2.81,0,0,1,.85-1.31,2.19,2.19,0,0,1,1.43-.46,2.33,2.33,0,0,1,1.11.25,2.13,2.13,0,0,1,.79.74,4,4,0,0,1,.49,1.17,7.77,7.77,0,0,1,.18,1.86,7.2,7.2,0,0,1-.29,2.24,2.79,2.79,0,0,1-.85,1.32,2.4,2.4,0,0,1-3.22-.35A5.19,5.19,0,0,1,172.3,73.52Zm1,0a4.93,4.93,0,0,0,.45,2.58,1.3,1.3,0,0,0,2.24,0,4.94,4.94,0,0,0,.45-2.58,4.94,4.94,0,0,0-.45-2.58,1.35,1.35,0,0,0-1.13-.64,1.24,1.24,0,0,0-1.06.56A5,5,0,0,0,173.3,73.52Z"/><path d="M178.87,70.89a1.49,1.49,0,1,1,.44,1.06A1.43,1.43,0,0,1,178.87,70.89Zm.59,0a.91.91,0,1,0,.27-.64A.87.87,0,0,0,179.46,70.89Z"/><path d="M183.71,77.41V69.53H189v.93h-4.27V72.9h3.7v.93h-3.7v3.58Z"/><path d="M202.11,74l-5.22,2.23v-1L201,73.52l-4.13-1.7v-1l5.22,2.2Z"/></svg>