<svg id="Layer_1" data-name="Layer 1" xmlns="http://www.w3.org/2000/svg" viewBox="0 0 225.67 130.33"><title>UIM_wmsg_low_gas_pressure</title><rect x="0.5" y="0.5" width="224.67" height="129.31" style="fill:none;stroke:#000"/><rect x="0.49" y="101.87" width="224.67" height="27.94" style="fill:none"/><rect x="0.53" y="101.87" width="44.92" height="27.98" style="fill:none"/><rect x="45.65" y="101.87" width="44.92" height="27.98" style="fill:none"/><rect x="90.57" y="101.87" width="44.92" height="27.98" style="fill:none;stroke:#000;stroke-linecap:round;stroke-linejoin:round;stroke-width:0.9753649999999999px"/><rect x="176.45" y="101.87" width="48.71" height="27.98" style="fill:none;stroke:#000;stroke-linecap:round;stroke-linejoin:round;stroke-width:0.9753649999999999px"/><rect x="135.36" y="101.87" width="41.22" height="27.98" style="fill:none"/><line x1="0.53" y1="101.87" x2="225.04" y2="101.87" style="fill:none;stroke:#000;stroke-linecap:round;stroke-linejoin:round;stroke-width:0.9753649999999999px"/><path d="M180.52,118.84l1.89-7.87h.7l2,7.87h-.74l-.58-2.38h-2.06l-.54,2.38Zm1.42-3.23h1.67l-.51-2.18q-.24-1-.35-1.63a14.87,14.87,0,0,1-.27,1.5Z" style="fill:#231f20"/><path d="M185.8,118.84V111h1.7a2.63,2.63,0,0,1,.88.11,1.56,1.56,0,0,1,.72.56,3.64,3.64,0,0,1,.58,1.35,8.18,8.18,0,0,1,.19,1.87,8.66,8.66,0,0,1-.13,1.59,5.17,5.17,0,0,1-.34,1.15,2.59,2.59,0,0,1-.45.71,1.58,1.58,0,0,1-.59.4,2.19,2.19,0,0,1-.79.13Zm.65-.93h1.05a1.67,1.67,0,0,0,.77-.15,1.13,1.13,0,0,0,.44-.41,3.06,3.06,0,0,0,.36-1,7.57,7.57,0,0,0,.13-1.52,5.54,5.54,0,0,0-.25-1.9,1.74,1.74,0,0,0-.62-.89,1.68,1.68,0,0,0-.84-.16h-1Z" style="fill:#231f20"/><path d="M192.32,118.84,190.41,111h.71l1.28,5.72q.16.69.26,1.29.11-.64.27-1.29l1.33-5.72h.67L193,118.84Z" style="fill:#231f20"/><path d="M195,118.84l1.89-7.87h.7l2,7.87h-.74l-.58-2.38H196.2l-.54,2.38Zm1.42-3.23h1.67l-.51-2.18q-.24-1-.35-1.63a14.87,14.87,0,0,1-.27,1.5Z" style="fill:#231f20"/><path d="M200.65,118.84V111h.67l2.59,6.18V111h.63v7.87h-.67l-2.59-6.19v6.19Z" style="fill:#231f20"/><path d="M209.7,116.08l.65.26a4.21,4.21,0,0,1-.74,2,1.61,1.61,0,0,1-1.3.67,1.72,1.72,0,0,1-1.3-.52,3.37,3.37,0,0,1-.76-1.5,8.21,8.21,0,0,1-.26-2.11,7,7,0,0,1,.29-2.15,3,3,0,0,1,.84-1.39,1.78,1.78,0,0,1,1.2-.47,1.56,1.56,0,0,1,1.24.6,3.59,3.59,0,0,1,.7,1.69l-.64.24a2.85,2.85,0,0,0-.5-1.25,1,1,0,0,0-.82-.39,1.22,1.22,0,0,0-1,.43,2.54,2.54,0,0,0-.54,1.17,7.29,7.29,0,0,0-.16,1.51,7.44,7.44,0,0,0,.18,1.75,2.26,2.26,0,0,0,.57,1.12,1.19,1.19,0,0,0,.84.37,1.13,1.13,0,0,0,.93-.5A3.22,3.22,0,0,0,209.7,116.08Z" style="fill:#231f20"/><path d="M211.72,118.84V111h3.57v.93h-2.91v2.41h2.73v.92h-2.73v2.68h3v.93Z" style="fill:#231f20"/><path d="M216.85,118.84V111h1.7a2.63,2.63,0,0,1,.88.11,1.56,1.56,0,0,1,.72.56,3.64,3.64,0,0,1,.58,1.35,8.18,8.18,0,0,1,.19,1.87,8.66,8.66,0,0,1-.13,1.59,5.17,5.17,0,0,1-.34,1.15,2.59,2.59,0,0,1-.45.71,1.58,1.58,0,0,1-.59.4,2.19,2.19,0,0,1-.79.13Zm.65-.93h1.05a1.67,1.67,0,0,0,.77-.15,1.13,1.13,0,0,0,.44-.41,3.06,3.06,0,0,0,.36-1,7.57,7.57,0,0,0,.13-1.52,5.54,5.54,0,0,0-.25-1.9,1.74,1.74,0,0,0-.62-.89,1.68,1.68,0,0,0-.84-.16h-1Z" style="fill:#231f20"/><rect x="209.68" y="86.13" width="15.48" height="15.65" style="fill:none;stroke:#000;stroke-width:0.9753649999999999px"/><polygon points="210.45 93.05 217.42 100.01 224.37 93.05 210.45 93.05" style="fill:#231f20"/><rect x="209.68" y="40.98" width="15.48" height="15.65" style="fill:none;stroke:#000;stroke-width:0.9753649999999999px"/><rect x="211.23" y="58.21" width="12.5" height="14.08"/><polygon points="224.4 49.82 217.42 42.86 210.48 49.82 224.4 49.82" style="fill:#231f20"/><path d="M103.71,118.84V111h1.85a1.38,1.38,0,0,1,1.44,1,2.84,2.84,0,0,1,.19,1,2.6,2.6,0,0,1-.17,1,1.65,1.65,0,0,1-.52.72,1.43,1.43,0,0,1,.69.71,2.73,2.73,0,0,1,.24,1.19,3.48,3.48,0,0,1-.15,1,2.12,2.12,0,0,1-.36.73,1.34,1.34,0,0,1-.54.39,2.11,2.11,0,0,1-.79.13Zm.65-4.57h1.07a1.54,1.54,0,0,0,.62-.09.78.78,0,0,0,.38-.39,1.64,1.64,0,0,0,.13-.69,1.86,1.86,0,0,0-.12-.69.73.73,0,0,0-.34-.41,1.82,1.82,0,0,0-.75-.11h-1Zm0,3.64h1.23a1.76,1.76,0,0,0,.44,0,.85.85,0,0,0,.38-.21,1.09,1.09,0,0,0,.25-.44,2.05,2.05,0,0,0,.1-.66,1.9,1.9,0,0,0-.14-.77.89.89,0,0,0-.39-.46,1.6,1.6,0,0,0-.72-.13h-1.14Z"/><path d="M108.34,118.84l1.89-7.87h.7l2,7.87h-.74l-.58-2.38h-2.06l-.54,2.38Zm1.42-3.23h1.67l-.51-2.18q-.24-1-.35-1.63a14.87,14.87,0,0,1-.27,1.5Z"/><path d="M117.55,116.08l.65.26a4.21,4.21,0,0,1-.74,2,1.61,1.61,0,0,1-1.3.67,1.72,1.72,0,0,1-1.3-.52,3.37,3.37,0,0,1-.76-1.5,8.21,8.21,0,0,1-.26-2.11,7,7,0,0,1,.29-2.15,3,3,0,0,1,.84-1.39,1.78,1.78,0,0,1,1.2-.47,1.56,1.56,0,0,1,1.24.6,3.59,3.59,0,0,1,.7,1.69l-.64.24a2.85,2.85,0,0,0-.5-1.25,1,1,0,0,0-.82-.39,1.22,1.22,0,0,0-1,.43,2.54,2.54,0,0,0-.54,1.17,7.29,7.29,0,0,0-.16,1.51,7.44,7.44,0,0,0,.18,1.75,2.26,2.26,0,0,0,.57,1.12,1.19,1.19,0,0,0,.84.37,1.13,1.13,0,0,0,.93-.5A3.22,3.22,0,0,0,117.55,116.08Z"/><path d="M119.53,118.84V111h.65v3.91l2.45-3.91h.88l-2.07,3.19,2.16,4.68h-.86l-1.76-4-.81,1.26v2.73Z"/><line x1="0.53" y1="40.99" x2="225.04" y2="40.99" style="fill:none;stroke:#000;stroke-linecap:round;stroke-linejoin:round;stroke-width:0.9753649999999999px"/><line x1="209.68" y1="51.65" x2="209.68" y2="90.99" style="fill:none;stroke:#000;stroke-width:0.9753649999999999px"/><path d="M50.64,23.32a7.49,7.49,0,0,1,.25-2.16,2.72,2.72,0,0,1,.76-1.26,1.84,1.84,0,0,1,1.26-.44,1.93,1.93,0,0,1,1,.25,2,2,0,0,1,.7.71A4,4,0,0,1,55,21.53a8.13,8.13,0,0,1,.16,1.79,7.53,7.53,0,0,1-.25,2.15,2.72,2.72,0,0,1-.75,1.27,1.83,1.83,0,0,1-1.27.45,1.86,1.86,0,0,1-1.58-.79A5.33,5.33,0,0,1,50.64,23.32Zm.88,0a5.1,5.1,0,0,0,.4,2.48,1.1,1.1,0,0,0,2,0,5.11,5.11,0,0,0,.4-2.48,5.1,5.1,0,0,0-.4-2.49,1.18,1.18,0,0,0-1-.62,1.08,1.08,0,0,0-.94.54A5.16,5.16,0,0,0,51.52,23.32Z"/><path d="M64.23,27.06v-.69a1.55,1.55,0,0,1-1.41.82,1.88,1.88,0,0,1-1.11-.36,2.34,2.34,0,0,1-.79-1,3.75,3.75,0,0,1-.28-1.49,4.19,4.19,0,0,1,.25-1.49,2.14,2.14,0,0,1,.76-1,1.91,1.91,0,0,1,1.13-.36,1.58,1.58,0,0,1,.81.21,1.75,1.75,0,0,1,.58.55V19.48H65v7.58Zm-2.71-2.74a2.53,2.53,0,0,0,.41,1.58,1.2,1.2,0,0,0,1,.52,1.18,1.18,0,0,0,1-.5,2.44,2.44,0,0,0,.39-1.52,2.75,2.75,0,0,0-.4-1.65,1.2,1.2,0,0,0-1-.53,1.16,1.16,0,0,0-1,.51A2.66,2.66,0,0,0,61.52,24.32Z"/><path d="M70.64,26.38a3.17,3.17,0,0,1-.92.62,2.47,2.47,0,0,1-.94.18,1.74,1.74,0,0,1-1.28-.44,1.52,1.52,0,0,1-.45-1.13,1.6,1.6,0,0,1,.17-.74,1.49,1.49,0,0,1,.44-.54,2,2,0,0,1,.62-.3,5.6,5.6,0,0,1,.76-.14,7.3,7.3,0,0,0,1.53-.32c0-.13,0-.21,0-.24a1.08,1.08,0,0,0-.24-.8,1.36,1.36,0,0,0-1-.32,1.42,1.42,0,0,0-.89.23,1.44,1.44,0,0,0-.43.81l-.84-.12a2.36,2.36,0,0,1,.38-.94,1.65,1.65,0,0,1,.76-.55,3.14,3.14,0,0,1,1.15-.19,2.81,2.81,0,0,1,1.05.17,1.38,1.38,0,0,1,.59.42,1.53,1.53,0,0,1,.27.63,5.63,5.63,0,0,1,0,.86v1.24a14.25,14.25,0,0,0,.05,1.64,2.17,2.17,0,0,0,.22.66h-.89A2.11,2.11,0,0,1,70.64,26.38Zm-.07-2.08a5.88,5.88,0,0,1-1.4.35,3,3,0,0,0-.75.19.76.76,0,0,0-.34.3.84.84,0,0,0-.12.44.82.82,0,0,0,.26.62,1.06,1.06,0,0,0,.76.25,1.65,1.65,0,0,0,.88-.24,1.41,1.41,0,0,0,.57-.64,2.43,2.43,0,0,0,.14-.93Z"/><path d="M73.7,29.17l-.1-.87a1.75,1.75,0,0,0,.49.08.88.88,0,0,0,.46-.1.81.81,0,0,0,.28-.29,4.86,4.86,0,0,0,.26-.69l.08-.23-1.92-5.5h.92l1.05,3.18q.2.6.37,1.27.15-.64.35-1.25L77,21.57h.86L76,27.15a11.44,11.44,0,0,1-.48,1.25,1.81,1.81,0,0,1-.52.67,1.17,1.17,0,0,1-.7.21A1.6,1.6,0,0,1,73.7,29.17Z"/><path d="M79.24,25.42l.85-.14a1.33,1.33,0,0,0,.4.85,1.31,1.31,0,0,0,.91.29,1.26,1.26,0,0,0,.88-.26.8.8,0,0,0,.29-.61.58.58,0,0,0-.25-.5,3.52,3.52,0,0,0-.88-.32,7.47,7.47,0,0,1-1.31-.45,1.3,1.3,0,0,1-.55-.52,1.47,1.47,0,0,1-.19-.74,1.52,1.52,0,0,1,.15-.68,1.47,1.47,0,0,1,.42-.52,1.7,1.7,0,0,1,.54-.27,2.39,2.39,0,0,1,.74-.11,2.72,2.72,0,0,1,1,.19,1.43,1.43,0,0,1,.66.5,2.08,2.08,0,0,1,.29.85l-.84.12a1,1,0,0,0-.33-.66,1.14,1.14,0,0,0-.77-.24,1.32,1.32,0,0,0-.84.21.63.63,0,0,0-.25.5.54.54,0,0,0,.1.33.76.76,0,0,0,.33.25l.76.24a10.06,10.06,0,0,1,1.27.43,1.32,1.32,0,0,1,.56.49,1.46,1.46,0,0,1,.2.8,1.66,1.66,0,0,1-1,1.51,2.45,2.45,0,0,1-1.07.22,2.24,2.24,0,0,1-1.5-.44A2.12,2.12,0,0,1,79.24,25.42Z"/><path d="M88.87,23.32a7.49,7.49,0,0,1,.25-2.16,2.72,2.72,0,0,1,.76-1.26,1.84,1.84,0,0,1,1.26-.44,1.93,1.93,0,0,1,1,.25,2,2,0,0,1,.7.71,4,4,0,0,1,.43,1.13,8.13,8.13,0,0,1,.16,1.79,7.53,7.53,0,0,1-.25,2.15,2.72,2.72,0,0,1-.75,1.27,1.83,1.83,0,0,1-1.27.45,1.86,1.86,0,0,1-1.58-.79A5.33,5.33,0,0,1,88.87,23.32Zm.88,0a5.1,5.1,0,0,0,.4,2.48,1.1,1.1,0,0,0,2,0,5.11,5.11,0,0,0,.4-2.48,5.1,5.1,0,0,0-.4-2.49,1.18,1.18,0,0,0-1-.62,1.08,1.08,0,0,0-.94.54A5.16,5.16,0,0,0,89.75,23.32Z"/><path d="M99.19,27.06V19.48H100V22.2a1.85,1.85,0,0,1,1.51-.75,1.91,1.91,0,0,1,1,.24,1.37,1.37,0,0,1,.59.66,3.29,3.29,0,0,1,.18,1.23v3.48h-.86V23.58a1.52,1.52,0,0,0-.28-1,1,1,0,0,0-.79-.32,1.31,1.31,0,0,0-.72.21,1.18,1.18,0,0,0-.48.58,2.89,2.89,0,0,0-.14,1v3Z"/><path d="M105.57,27.06V21.57h.77v.83a2.25,2.25,0,0,1,.54-.77.9.9,0,0,1,.55-.19,1.58,1.58,0,0,1,.88.3l-.3.86a1.15,1.15,0,0,0-.63-.2.78.78,0,0,0-.5.18,1,1,0,0,0-.32.51,3.91,3.91,0,0,0-.14,1.08v2.87Z"/><path d="M109.46,25.42l.85-.14a1.33,1.33,0,0,0,.4.85,1.31,1.31,0,0,0,.91.29,1.26,1.26,0,0,0,.88-.26.8.8,0,0,0,.29-.61.58.58,0,0,0-.25-.5,3.52,3.52,0,0,0-.88-.32,7.47,7.47,0,0,1-1.31-.45,1.3,1.3,0,0,1-.55-.52,1.47,1.47,0,0,1-.19-.74,1.52,1.52,0,0,1,.15-.68,1.47,1.47,0,0,1,.42-.52,1.7,1.7,0,0,1,.54-.27,2.39,2.39,0,0,1,.74-.11,2.72,2.72,0,0,1,1,.19,1.43,1.43,0,0,1,.66.5,2.08,2.08,0,0,1,.29.85l-.84.12a1,1,0,0,0-.33-.66,1.14,1.14,0,0,0-.77-.24,1.32,1.32,0,0,0-.84.21.63.63,0,0,0-.25.5.54.54,0,0,0,.1.33.76.76,0,0,0,.33.25l.76.24a10.06,10.06,0,0,1,1.27.43,1.32,1.32,0,0,1,.56.49,1.46,1.46,0,0,1,.2.8,1.66,1.66,0,0,1-1,1.51,2.45,2.45,0,0,1-1.07.22,2.24,2.24,0,0,1-1.5-.44A2.12,2.12,0,0,1,109.46,25.42Z"/><path d="M119.09,23.32a7.49,7.49,0,0,1,.25-2.16,2.72,2.72,0,0,1,.76-1.26,1.83,1.83,0,0,1,1.26-.44,1.94,1.94,0,0,1,1,.25,2,2,0,0,1,.7.71,4,4,0,0,1,.43,1.13,8.12,8.12,0,0,1,.16,1.79,7.53,7.53,0,0,1-.25,2.15,2.72,2.72,0,0,1-.75,1.27,1.83,1.83,0,0,1-1.27.45,1.86,1.86,0,0,1-1.58-.79A5.33,5.33,0,0,1,119.09,23.32Zm.88,0a5.11,5.11,0,0,0,.4,2.48,1.1,1.1,0,0,0,2,0,5.11,5.11,0,0,0,.4-2.48,5.11,5.11,0,0,0-.4-2.49,1.18,1.18,0,0,0-1-.62,1.08,1.08,0,0,0-.94.54A5.16,5.16,0,0,0,120,23.32Z"/><path d="M129.41,27.06V21.57h.77v.77a1.88,1.88,0,0,1,.63-.65,1.67,1.67,0,0,1,.9-.25,1.56,1.56,0,0,1,.92.25,1.35,1.35,0,0,1,.51.71,1.79,1.79,0,0,1,1.56-1,1.47,1.47,0,0,1,1.16.45,2,2,0,0,1,.4,1.39v3.77h-.85V23.6a2.79,2.79,0,0,0-.08-.8.76.76,0,0,0-.3-.4.89.89,0,0,0-.51-.15,1.15,1.15,0,0,0-.88.38,1.79,1.79,0,0,0-.35,1.23v3.19h-.86V23.49a1.67,1.67,0,0,0-.21-.93.77.77,0,0,0-.69-.31,1.17,1.17,0,0,0-.67.21,1.16,1.16,0,0,0-.45.61,3.68,3.68,0,0,0-.14,1.15v2.85Z"/><path d="M138.5,20.55V19.48h.86v1.07Zm0,6.51V21.57h.86v5.49Z"/><path d="M141.64,27.06V21.57h.77v.78a1.78,1.78,0,0,1,1.61-.9,2,2,0,0,1,.84.18,1.35,1.35,0,0,1,.57.47,1.89,1.89,0,0,1,.27.69,5.85,5.85,0,0,1,0,.91v3.38h-.86V23.72a2.71,2.71,0,0,0-.1-.85.87.87,0,0,0-.35-.45,1.06,1.06,0,0,0-.6-.17,1.32,1.32,0,0,0-.94.38,2,2,0,0,0-.4,1.43v3Z"/><path d="M147.69,25.42l.85-.14a1.33,1.33,0,0,0,.4.85,1.31,1.31,0,0,0,.91.29,1.26,1.26,0,0,0,.88-.26.81.81,0,0,0,.29-.61.58.58,0,0,0-.25-.5,3.53,3.53,0,0,0-.88-.32,7.47,7.47,0,0,1-1.31-.45,1.3,1.3,0,0,1-.55-.52,1.47,1.47,0,0,1-.19-.74,1.52,1.52,0,0,1,.15-.68,1.48,1.48,0,0,1,.42-.52,1.69,1.69,0,0,1,.54-.27,2.39,2.39,0,0,1,.74-.11,2.72,2.72,0,0,1,1,.19,1.43,1.43,0,0,1,.66.5,2.08,2.08,0,0,1,.29.85l-.84.12a1,1,0,0,0-.33-.66,1.14,1.14,0,0,0-.77-.24,1.32,1.32,0,0,0-.84.21.63.63,0,0,0-.25.5.55.55,0,0,0,.1.33.76.76,0,0,0,.33.25l.76.24a10,10,0,0,1,1.27.43,1.32,1.32,0,0,1,.56.49,1.46,1.46,0,0,1,.2.8,1.66,1.66,0,0,1-1,1.51,2.45,2.45,0,0,1-1.07.22,2.24,2.24,0,0,1-1.5-.44A2.12,2.12,0,0,1,147.69,25.42Z"/><path d="M160.86,26.38a3.16,3.16,0,0,1-.92.62,2.47,2.47,0,0,1-.94.18,1.74,1.74,0,0,1-1.28-.44,1.52,1.52,0,0,1-.45-1.13,1.6,1.6,0,0,1,.17-.74,1.48,1.48,0,0,1,.44-.54,2,2,0,0,1,.62-.3,5.6,5.6,0,0,1,.76-.14,7.3,7.3,0,0,0,1.53-.32c0-.13,0-.21,0-.24a1.09,1.09,0,0,0-.24-.8,1.36,1.36,0,0,0-1-.32,1.42,1.42,0,0,0-.89.23,1.44,1.44,0,0,0-.43.81l-.84-.12a2.36,2.36,0,0,1,.38-.94,1.65,1.65,0,0,1,.76-.55,3.14,3.14,0,0,1,1.15-.19,2.81,2.81,0,0,1,1.05.17,1.38,1.38,0,0,1,.59.42,1.53,1.53,0,0,1,.27.63,5.7,5.7,0,0,1,0,.86v1.24a14.37,14.37,0,0,0,.05,1.64,2.16,2.16,0,0,0,.22.66H161A2.11,2.11,0,0,1,160.86,26.38Zm-.07-2.08a5.89,5.89,0,0,1-1.4.35,3,3,0,0,0-.75.19.76.76,0,0,0-.34.3.85.85,0,0,0-.12.44.82.82,0,0,0,.26.62,1.06,1.06,0,0,0,.76.25,1.65,1.65,0,0,0,.88-.24,1.41,1.41,0,0,0,.57-.64,2.43,2.43,0,0,0,.14-.93Z"/><path d="M163.8,27.51l.83.13a.88.88,0,0,0,.29.61,1.35,1.35,0,0,0,.87.26,1.44,1.44,0,0,0,.92-.26,1.28,1.28,0,0,0,.44-.72,6.35,6.35,0,0,0,.06-1.19,1.71,1.71,0,0,1-1.4.72,1.86,1.86,0,0,1-1.61-.82,3.33,3.33,0,0,1-.57-2,3.91,3.91,0,0,1,.26-1.45,2.24,2.24,0,0,1,.76-1,1.93,1.93,0,0,1,1.17-.36,1.76,1.76,0,0,1,1.47.79v-.66h.79v4.75a4.85,4.85,0,0,1-.24,1.82,1.84,1.84,0,0,1-.76.85,2.47,2.47,0,0,1-1.28.31,2.28,2.28,0,0,1-1.46-.44A1.55,1.55,0,0,1,163.8,27.51Zm.71-3.3a2.54,2.54,0,0,0,.39,1.58,1.24,1.24,0,0,0,2,0,2.45,2.45,0,0,0,.4-1.55,2.39,2.39,0,0,0-.41-1.52,1.24,1.24,0,0,0-1-.51,1.2,1.2,0,0,0-1,.5A2.37,2.37,0,0,0,164.5,24.22Z"/><path d="M170,24.31a3,3,0,0,1,.78-2.26,2.24,2.24,0,0,1,1.59-.61,2.18,2.18,0,0,1,1.7.74,3,3,0,0,1,.66,2,3.92,3.92,0,0,1-.29,1.67,2.17,2.17,0,0,1-.85.94,2.33,2.33,0,0,1-1.22.34,2.18,2.18,0,0,1-1.72-.74A3.12,3.12,0,0,1,170,24.31Zm.88,0a2.48,2.48,0,0,0,.42,1.58,1.34,1.34,0,0,0,2.13,0,2.54,2.54,0,0,0,.42-1.61,2.41,2.41,0,0,0-.43-1.54,1.34,1.34,0,0,0-2.12,0A2.47,2.47,0,0,0,170.91,24.31Z"/><path d="M63.11,37.62V30h5v.89H64v2.32H67.9v.89H64v2.58h4.28v.89Z"/><path d="M70.45,37.62V32.13h.77V33a2.25,2.25,0,0,1,.54-.77.9.9,0,0,1,.55-.19,1.58,1.58,0,0,1,.88.3l-.3.86a1.15,1.15,0,0,0-.63-.2.78.78,0,0,0-.5.18,1,1,0,0,0-.32.51,3.91,3.91,0,0,0-.14,1.08v2.87Z"/><path d="M74.67,37.62V32.13h.77V33a2.25,2.25,0,0,1,.54-.77.9.9,0,0,1,.55-.19,1.58,1.58,0,0,1,.88.3l-.3.86a1.15,1.15,0,0,0-.63-.2.78.78,0,0,0-.5.18,1,1,0,0,0-.32.51,3.91,3.91,0,0,0-.14,1.08v2.87Z"/><path d="M78.58,34.87a3,3,0,0,1,.78-2.26A2.24,2.24,0,0,1,80.95,32a2.18,2.18,0,0,1,1.7.74,3,3,0,0,1,.66,2A3.9,3.9,0,0,1,83,36.46a2.17,2.17,0,0,1-.85.94,2.33,2.33,0,0,1-1.22.34A2.18,2.18,0,0,1,79.23,37,3.11,3.11,0,0,1,78.58,34.87Zm.88,0a2.48,2.48,0,0,0,.42,1.58,1.34,1.34,0,0,0,2.13,0,2.54,2.54,0,0,0,.42-1.61A2.4,2.4,0,0,0,82,33.3a1.34,1.34,0,0,0-2.12,0A2.47,2.47,0,0,0,79.46,34.87Z"/><path d="M85.28,37.62V32.13h.77V33a2.25,2.25,0,0,1,.54-.77.9.9,0,0,1,.55-.19,1.58,1.58,0,0,1,.88.3l-.3.86a1.15,1.15,0,0,0-.63-.2.78.78,0,0,0-.5.18,1,1,0,0,0-.32.51,3.91,3.91,0,0,0-.14,1.08v2.87Z"/><path d="M98.28,35l.92.25a3.43,3.43,0,0,1-1,1.88,2.73,2.73,0,0,1-1.84.65,3.12,3.12,0,0,1-1.83-.5A3.08,3.08,0,0,1,93.4,35.8a5.55,5.55,0,0,1-.37-2,4.78,4.78,0,0,1,.42-2.06,3,3,0,0,1,1.18-1.34,3.24,3.24,0,0,1,1.69-.46,2.71,2.71,0,0,1,1.76.58,3,3,0,0,1,1,1.63l-.91.23a2.37,2.37,0,0,0-.7-1.2,1.78,1.78,0,0,0-1.16-.38,2.13,2.13,0,0,0-1.34.42,2.2,2.2,0,0,0-.76,1.12A4.88,4.88,0,0,0,94,33.77a5,5,0,0,0,.26,1.69,2.07,2.07,0,0,0,.81,1.08,2.12,2.12,0,0,0,1.18.36,1.89,1.89,0,0,0,1.31-.49A2.54,2.54,0,0,0,98.28,35Z"/><path d="M100.89,34.87a3,3,0,0,1,.78-2.26,2.24,2.24,0,0,1,1.59-.61,2.18,2.18,0,0,1,1.7.74,3,3,0,0,1,.66,2,3.9,3.9,0,0,1-.29,1.67,2.17,2.17,0,0,1-.85.94,2.33,2.33,0,0,1-1.22.34,2.18,2.18,0,0,1-1.71-.74A3.11,3.11,0,0,1,100.89,34.87Zm.88,0a2.48,2.48,0,0,0,.42,1.58,1.34,1.34,0,0,0,2.13,0,2.54,2.54,0,0,0,.42-1.61,2.4,2.4,0,0,0-.43-1.54,1.34,1.34,0,0,0-2.12,0A2.47,2.47,0,0,0,101.77,34.87Z"/><path d="M110.88,37.62v-.69a1.55,1.55,0,0,1-1.41.82,1.88,1.88,0,0,1-1.11-.36,2.34,2.34,0,0,1-.79-1,3.75,3.75,0,0,1-.28-1.49,4.19,4.19,0,0,1,.25-1.49,2.14,2.14,0,0,1,.76-1,1.91,1.91,0,0,1,1.13-.36,1.58,1.58,0,0,1,.81.21,1.75,1.75,0,0,1,.58.55V30h.85v7.58Zm-2.71-2.74a2.53,2.53,0,0,0,.41,1.58,1.2,1.2,0,0,0,1,.52,1.18,1.18,0,0,0,1-.5,2.44,2.44,0,0,0,.39-1.52,2.75,2.75,0,0,0-.4-1.65,1.2,1.2,0,0,0-1-.53,1.16,1.16,0,0,0-1,.51A2.66,2.66,0,0,0,108.17,34.88Z"/><path d="M117.45,35.85l.88.12a2.38,2.38,0,0,1-.78,1.31,2.47,2.47,0,0,1-3.21-.28,3.05,3.05,0,0,1-.65-2.08,3.2,3.2,0,0,1,.66-2.15,2.14,2.14,0,0,1,1.7-.76,2.08,2.08,0,0,1,1.66.75,3.15,3.15,0,0,1,.64,2.11c0,.05,0,.14,0,.25h-3.77a2.21,2.21,0,0,0,.47,1.38,1.35,1.35,0,0,0,1.06.48,1.23,1.23,0,0,0,.8-.27A1.8,1.8,0,0,0,117.45,35.85Zm-2.81-1.5h2.82a2,2,0,0,0-.32-1,1.28,1.28,0,0,0-1.06-.54,1.3,1.3,0,0,0-1,.43A1.77,1.77,0,0,0,114.64,34.35Z"/><path d="M120.62,33.19V32.13h1v1.06Zm0,4.43V36.56h1v1.06Z"/><path d="M127.09,37.62,129.77,30h1l2.85,7.58h-1.05l-.81-2.29h-2.92l-.77,2.29Zm2-3.11h2.37l-.73-2.1q-.33-1-.49-1.57a10.45,10.45,0,0,1-.38,1.45Z"/><path d="M139.43,31.89l-.85.07a1.82,1.82,0,0,0-.32-.8,1.09,1.09,0,0,0-.86-.4,1.12,1.12,0,0,0-.72.25A2.11,2.11,0,0,0,136,32a5.29,5.29,0,0,0-.24,1.75,2.06,2.06,0,0,1,.76-.76,1.91,1.91,0,0,1,.94-.25,1.87,1.87,0,0,1,1.46.69,2.58,2.58,0,0,1,.6,1.77,3.12,3.12,0,0,1-.28,1.33,2.19,2.19,0,0,1-.78.94,2,2,0,0,1-1.12.33,2.12,2.12,0,0,1-1.75-.86,4.6,4.6,0,0,1-.68-2.82,5.38,5.38,0,0,1,.75-3.19,2.08,2.08,0,0,1,1.76-.87,1.88,1.88,0,0,1,1.35.5A2.2,2.2,0,0,1,139.43,31.89Zm-3.5,3.27a2.32,2.32,0,0,0,.19.92,1.49,1.49,0,0,0,.53.67,1.24,1.24,0,0,0,.71.23,1.17,1.17,0,0,0,.93-.48,2,2,0,0,0,.39-1.29,1.85,1.85,0,0,0-.39-1.24,1.22,1.22,0,0,0-1-.45,1.27,1.27,0,0,0-1,.45A1.71,1.71,0,0,0,135.93,35.16Z"/><path d="M141.29,35.34v-.94h2.63v.94Z"/><path d="M145.6,35.63l.9-.08a1.82,1.82,0,0,0,.46,1.07,1.21,1.21,0,0,0,.88.36,1.32,1.32,0,0,0,1-.51,2,2,0,0,0,.43-1.34,1.82,1.82,0,0,0-.41-1.26,1.38,1.38,0,0,0-1.08-.46,1.41,1.41,0,0,0-.75.2,1.51,1.51,0,0,0-.52.53l-.8-.11.68-3.89h3.47V31h-2.78l-.38,2a2.15,2.15,0,0,1,1.32-.48,2,2,0,0,1,1.54.69,2.52,2.52,0,0,1,.63,1.77,2.91,2.91,0,0,1-.55,1.78,2.32,2.32,0,0,1-3.39.34A2.34,2.34,0,0,1,145.6,35.63Z"/><path d="M152,33.88a7.49,7.49,0,0,1,.25-2.16,2.72,2.72,0,0,1,.76-1.26,1.83,1.83,0,0,1,1.26-.44,1.94,1.94,0,0,1,1,.25,2,2,0,0,1,.7.71,4,4,0,0,1,.43,1.13,8.12,8.12,0,0,1,.16,1.79,7.53,7.53,0,0,1-.25,2.15,2.72,2.72,0,0,1-.75,1.27,1.83,1.83,0,0,1-1.27.45,1.86,1.86,0,0,1-1.58-.79A5.33,5.33,0,0,1,152,33.88Zm.88,0a5.11,5.11,0,0,0,.4,2.48,1.1,1.1,0,0,0,2,0,5.11,5.11,0,0,0,.4-2.48,5.11,5.11,0,0,0-.4-2.49,1.18,1.18,0,0,0-1-.62,1.08,1.08,0,0,0-.94.54A5.16,5.16,0,0,0,152.87,33.88Z"/><path d="M161.22,37.62h-.86V31.69a4.48,4.48,0,0,1-.81.64,5.66,5.66,0,0,1-.9.48v-.9a5.16,5.16,0,0,0,1.26-.89,3.44,3.44,0,0,0,.76-1h.55Z"/><path d="M43.61,14.34V3.13H45V13h5.08v1.32Z"/><path d="M52.49,10.28a4.38,4.38,0,0,1,1.15-3.34A3.31,3.31,0,0,1,56,6a3.22,3.22,0,0,1,2.52,1.1,4.39,4.39,0,0,1,1,3,5.77,5.77,0,0,1-.43,2.46A3.22,3.22,0,0,1,57.8,14a3.44,3.44,0,0,1-1.8.5,3.23,3.23,0,0,1-2.54-1.09A4.61,4.61,0,0,1,52.49,10.28Zm1.3,0a3.66,3.66,0,0,0,.63,2.33,2,2,0,0,0,3.14,0,3.76,3.76,0,0,0,.63-2.38A3.55,3.55,0,0,0,57.56,8a2,2,0,0,0-3.14,0A3.65,3.65,0,0,0,53.79,10.28Z"/><path d="M63.79,14.34,61.51,6.22h1.31L64,10.9l.44,1.74L64.83,11,66,6.22h1.3l1.12,4.71.37,1.55.43-1.57,1.28-4.69h1.23l-2.34,8.12H68.1L66.92,9.48l-.29-1.38-1.51,6.24Z"/><path d="M84.69,9.94V8.63h4.37v4.16A7.61,7.61,0,0,1,87,14.09a5.72,5.72,0,0,1-2.19.44A5.49,5.49,0,0,1,82,13.82a4.51,4.51,0,0,1-1.87-2,6.89,6.89,0,0,1-.63-3,7.43,7.43,0,0,1,.63-3.05A4.42,4.42,0,0,1,82,3.63a5.32,5.32,0,0,1,2.72-.69,5,5,0,0,1,2,.39,3.38,3.38,0,0,1,1.42,1.1,5.06,5.06,0,0,1,.78,1.83l-1.23.37a4.32,4.32,0,0,0-.58-1.34,2.39,2.39,0,0,0-1-.78,3.36,3.36,0,0,0-1.42-.29,3.9,3.9,0,0,0-1.62.31,3,3,0,0,0-1.1.81,3.93,3.93,0,0,0-.65,1.11,6.31,6.31,0,0,0-.39,2.25,5.88,5.88,0,0,0,.48,2.51,3.18,3.18,0,0,0,1.38,1.5,4,4,0,0,0,1.93.49,4.26,4.26,0,0,0,1.73-.37A4.4,4.4,0,0,0,87.72,12V9.94Z"/><path d="M97.22,13.33a4.69,4.69,0,0,1-1.35.92,3.65,3.65,0,0,1-1.4.27,2.58,2.58,0,0,1-1.89-.65,2.25,2.25,0,0,1-.66-1.67,2.37,2.37,0,0,1,.25-1.09,2.2,2.2,0,0,1,.65-.79,3,3,0,0,1,.91-.45,8.43,8.43,0,0,1,1.13-.21,10.72,10.72,0,0,0,2.26-.47c0-.19,0-.31,0-.36a1.6,1.6,0,0,0-.36-1.18,2,2,0,0,0-1.44-.47A2.1,2.1,0,0,0,94,7.52a2.12,2.12,0,0,0-.63,1.2l-1.24-.18a3.47,3.47,0,0,1,.56-1.39,2.44,2.44,0,0,1,1.12-.82A4.64,4.64,0,0,1,95.51,6a4.18,4.18,0,0,1,1.55.24,2,2,0,0,1,.88.62,2.25,2.25,0,0,1,.39.94A8.36,8.36,0,0,1,98.4,9.1v1.83a21,21,0,0,0,.08,2.43,3.24,3.24,0,0,0,.32,1H97.48A3.11,3.11,0,0,1,97.22,13.33Zm-.11-3.07a8.66,8.66,0,0,1-2.07.52,4.51,4.51,0,0,0-1.1.28,1.12,1.12,0,0,0-.5.45,1.25,1.25,0,0,0-.18.65,1.22,1.22,0,0,0,.38.92,1.57,1.57,0,0,0,1.12.37,2.44,2.44,0,0,0,1.3-.35,2.07,2.07,0,0,0,.84-1,3.57,3.57,0,0,0,.2-1.37Z"/><path d="M101.29,11.91l1.25-.21a2,2,0,0,0,.59,1.25,1.94,1.94,0,0,0,1.35.44,1.87,1.87,0,0,0,1.29-.39,1.19,1.19,0,0,0,.42-.91.86.86,0,0,0-.37-.73,5.21,5.21,0,0,0-1.29-.47,11.21,11.21,0,0,1-1.93-.66,1.93,1.93,0,0,1-.82-.77,2.18,2.18,0,0,1-.28-1.09,2.23,2.23,0,0,1,.23-1,2.18,2.18,0,0,1,.62-.77,2.53,2.53,0,0,1,.81-.4A3.55,3.55,0,0,1,104.26,6a4,4,0,0,1,1.54.28,2.11,2.11,0,0,1,1,.75,3.07,3.07,0,0,1,.44,1.26L106,8.5a1.51,1.51,0,0,0-.49-1,1.69,1.69,0,0,0-1.14-.35,1.94,1.94,0,0,0-1.25.31.94.94,0,0,0-.37.73.8.8,0,0,0,.15.48,1.12,1.12,0,0,0,.49.37q.19.08,1.12.35a14.79,14.79,0,0,1,1.87.64,1.94,1.94,0,0,1,.83.72,2.14,2.14,0,0,1,.3,1.18,2.46,2.46,0,0,1-1.44,2.23,3.61,3.61,0,0,1-1.58.33,3.31,3.31,0,0,1-2.22-.66A3.14,3.14,0,0,1,101.29,11.91Z"/><path d="M116,14.34V3.13h3.89a8.68,8.68,0,0,1,1.57.11,3,3,0,0,1,1.27.52,2.71,2.71,0,0,1,.83,1.08,3.69,3.69,0,0,1,.31,1.53,3.62,3.62,0,0,1-.84,2.42,3.81,3.81,0,0,1-3,1h-2.65v4.55Zm1.36-5.88h2.67A2.67,2.67,0,0,0,122,7.92a2,2,0,0,0,.56-1.51,2.15,2.15,0,0,0-.33-1.2,1.54,1.54,0,0,0-.86-.66,5.36,5.36,0,0,0-1.27-.1h-2.64Z"/><path d="M126.92,14.34V6.22h1.14V7.45a3.33,3.33,0,0,1,.81-1.14,1.33,1.33,0,0,1,.81-.28,2.33,2.33,0,0,1,1.3.44l-.44,1.28a1.7,1.7,0,0,0-.93-.3,1.15,1.15,0,0,0-.75.27,1.48,1.48,0,0,0-.47.75,5.79,5.79,0,0,0-.21,1.6v4.25Z"/><path d="M138.29,11.72l1.31.18a3.52,3.52,0,0,1-1.15,1.93,3.65,3.65,0,0,1-4.74-.41,4.52,4.52,0,0,1-1-3.08,4.74,4.74,0,0,1,1-3.18A3.16,3.16,0,0,1,136.24,6a3.08,3.08,0,0,1,2.45,1.11,4.65,4.65,0,0,1,.95,3.12c0,.08,0,.2,0,.37h-5.57a3.28,3.28,0,0,0,.7,2,2,2,0,0,0,1.56.71,1.84,1.84,0,0,0,1.19-.4A2.66,2.66,0,0,0,138.29,11.72ZM134.13,9.5h4.17A2.9,2.9,0,0,0,137.82,8a1.88,1.88,0,0,0-1.57-.79,1.93,1.93,0,0,0-1.47.63A2.62,2.62,0,0,0,134.13,9.5Z"/><path d="M142.12,11.91l1.25-.21A2,2,0,0,0,144,13a1.94,1.94,0,0,0,1.35.44A1.87,1.87,0,0,0,146.6,13a1.19,1.19,0,0,0,.42-.91.86.86,0,0,0-.37-.73,5.23,5.23,0,0,0-1.29-.47,11.18,11.18,0,0,1-1.93-.66,1.93,1.93,0,0,1-.82-.77,2.19,2.19,0,0,1-.28-1.09,2.23,2.23,0,0,1,.23-1,2.18,2.18,0,0,1,.62-.77,2.54,2.54,0,0,1,.81-.4A3.55,3.55,0,0,1,145.08,6a4,4,0,0,1,1.54.28,2.11,2.11,0,0,1,1,.75A3.07,3.07,0,0,1,148,8.31l-1.24.18a1.51,1.51,0,0,0-.49-1,1.69,1.69,0,0,0-1.14-.35,1.94,1.94,0,0,0-1.25.31.93.93,0,0,0-.37.73.8.8,0,0,0,.16.48,1.11,1.11,0,0,0,.49.37q.19.08,1.12.35a14.83,14.83,0,0,1,1.88.64,1.94,1.94,0,0,1,.83.72,2.14,2.14,0,0,1,.3,1.18,2.46,2.46,0,0,1-1.44,2.23,3.61,3.61,0,0,1-1.58.33,3.31,3.31,0,0,1-2.22-.66A3.13,3.13,0,0,1,142.12,11.91Z"/><path d="M150.76,11.91,152,11.7A2,2,0,0,0,152.6,13a1.94,1.94,0,0,0,1.35.44,1.87,1.87,0,0,0,1.29-.39,1.19,1.19,0,0,0,.42-.91.86.86,0,0,0-.37-.73A5.23,5.23,0,0,0,154,10.9a11.18,11.18,0,0,1-1.93-.66,1.93,1.93,0,0,1-.82-.77A2.19,2.19,0,0,1,151,8.37a2.23,2.23,0,0,1,.23-1,2.18,2.18,0,0,1,.62-.77,2.54,2.54,0,0,1,.81-.4A3.55,3.55,0,0,1,153.73,6a4,4,0,0,1,1.54.28,2.11,2.11,0,0,1,1,.75,3.07,3.07,0,0,1,.44,1.26l-1.24.18a1.51,1.51,0,0,0-.49-1,1.69,1.69,0,0,0-1.14-.35,1.94,1.94,0,0,0-1.25.31.93.93,0,0,0-.37.73.8.8,0,0,0,.16.48,1.11,1.11,0,0,0,.49.37q.19.08,1.12.35a14.83,14.83,0,0,1,1.88.64,1.94,1.94,0,0,1,.83.72A2.14,2.14,0,0,1,157,12a2.46,2.46,0,0,1-1.44,2.23,3.61,3.61,0,0,1-1.58.33,3.31,3.31,0,0,1-2.22-.66A3.13,3.13,0,0,1,150.76,11.91Z"/><path d="M164.81,14.34V13.14a2.69,2.69,0,0,1-2.37,1.38,2.82,2.82,0,0,1-1.23-.28,2.06,2.06,0,0,1-.85-.69,2.71,2.71,0,0,1-.39-1,7.55,7.55,0,0,1-.08-1.28v-5h1.27v4.5a8.7,8.7,0,0,0,.08,1.45,1.45,1.45,0,0,0,.51.85,1.49,1.49,0,0,0,1,.31,2,2,0,0,0,1.07-.32,1.72,1.72,0,0,0,.71-.86,4.67,4.67,0,0,0,.21-1.59V6.22h1.27v8.12Z"/><path d="M169.35,14.34V6.22h1.14V7.45a3.33,3.33,0,0,1,.81-1.14,1.33,1.33,0,0,1,.81-.28,2.33,2.33,0,0,1,1.3.44L173,7.76a1.7,1.7,0,0,0-.93-.3,1.15,1.15,0,0,0-.75.27,1.48,1.48,0,0,0-.47.75,5.79,5.79,0,0,0-.21,1.6v4.25Z"/><path d="M180.72,11.72l1.31.18a3.52,3.52,0,0,1-1.15,1.93,3.65,3.65,0,0,1-4.74-.41,4.52,4.52,0,0,1-1-3.08,4.74,4.74,0,0,1,1-3.18A3.16,3.16,0,0,1,178.67,6a3.08,3.08,0,0,1,2.45,1.11,4.65,4.65,0,0,1,.95,3.12c0,.08,0,.2,0,.37h-5.57a3.28,3.28,0,0,0,.7,2,2,2,0,0,0,1.56.71,1.84,1.84,0,0,0,1.19-.4A2.66,2.66,0,0,0,180.72,11.72ZM176.56,9.5h4.17A2.9,2.9,0,0,0,180.25,8a1.88,1.88,0,0,0-1.57-.79,1.93,1.93,0,0,0-1.47.63A2.62,2.62,0,0,0,176.56,9.5Z"/><path d="M37.57,51.94V44.78h1v6.31h3.7v.84Z"/><path d="M43.3,49.34a2.43,2.43,0,0,1,2.55-2.71,2.51,2.51,0,0,1,1.84.7,2.59,2.59,0,0,1,.71,1.94,3.29,3.29,0,0,1-.32,1.57,2.18,2.18,0,0,1-.92.89,2.78,2.78,0,0,1-1.31.32,2.51,2.51,0,0,1-1.85-.7A2.71,2.71,0,0,1,43.3,49.34Zm.95,0a2.14,2.14,0,0,0,.46,1.49,1.57,1.57,0,0,0,2.29,0,2.19,2.19,0,0,0,.46-1.52A2.07,2.07,0,0,0,47,47.86a1.57,1.57,0,0,0-2.29,0A2.13,2.13,0,0,0,44.25,49.34Z"/><path d="M50.8,51.94l-1.67-5.19h1l.87,3,.32,1.11.28-1.07.87-3h.95l.82,3,.27,1,.31-1,.93-3h.9l-1.7,5.19h-1l-.87-3.11-.21-.88-1.1,4Z"/><path d="M64.56,49.13v-.84h3.18v2.66a5.69,5.69,0,0,1-1.51.84,4.69,4.69,0,0,1-1.6.28,4.44,4.44,0,0,1-2-.45,3.06,3.06,0,0,1-1.37-1.31,4,4,0,0,1-.46-1.91,4.26,4.26,0,0,1,.46-2,3,3,0,0,1,1.32-1.35,4.31,4.31,0,0,1,2-.44,4.11,4.11,0,0,1,1.47.25,2.44,2.44,0,0,1,1,.7,3,3,0,0,1,.57,1.17l-.9.23a2.59,2.59,0,0,0-.42-.86,1.72,1.72,0,0,0-.72-.5,2.74,2.74,0,0,0-1-.19,3.19,3.19,0,0,0-1.18.2,2.2,2.2,0,0,0-.8.52,2.47,2.47,0,0,0-.47.71,3.59,3.59,0,0,0-.29,1.44,3.36,3.36,0,0,0,.35,1.6,2.17,2.17,0,0,0,1,1,3.25,3.25,0,0,0,1.41.31A3.48,3.48,0,0,0,65.84,51a3.3,3.3,0,0,0,.93-.51V49.13Z"/><path d="M73,51.3a3.46,3.46,0,0,1-1,.59,3,3,0,0,1-1,.17,2,2,0,0,1-1.38-.42,1.35,1.35,0,0,1-.48-1.07,1.36,1.36,0,0,1,.18-.7,1.46,1.46,0,0,1,.48-.51,2.3,2.3,0,0,1,.66-.29,7,7,0,0,1,.82-.13,8.79,8.79,0,0,0,1.65-.3c0-.12,0-.2,0-.23a.94.94,0,0,0-.26-.76,1.6,1.6,0,0,0-1.05-.3,1.69,1.69,0,0,0-1,.22,1.32,1.32,0,0,0-.46.77l-.9-.12a2.08,2.08,0,0,1,.41-.89,1.78,1.78,0,0,1,.82-.52,3.8,3.8,0,0,1,1.24-.18,3.42,3.42,0,0,1,1.13.16,1.5,1.5,0,0,1,.64.39,1.35,1.35,0,0,1,.29.6,4.71,4.71,0,0,1,0,.81v1.17a11.92,11.92,0,0,0,.06,1.55,1.9,1.9,0,0,0,.23.62h-1A1.79,1.79,0,0,1,73,51.3Zm-.08-2a7.06,7.06,0,0,1-1.51.33,3.65,3.65,0,0,0-.81.18.79.79,0,0,0-.36.29.72.72,0,0,0-.13.42.73.73,0,0,0,.28.59,1.24,1.24,0,0,0,.82.23,2,2,0,0,0,.95-.22,1.4,1.4,0,0,0,.61-.61,2,2,0,0,0,.15-.88Z"/><path d="M75.2,50.39l.91-.14a1.2,1.2,0,0,0,.43.8,1.54,1.54,0,0,0,1,.28,1.49,1.49,0,0,0,.94-.25.73.73,0,0,0,.31-.58A.53.53,0,0,0,78.5,50a4.17,4.17,0,0,0-.94-.3,8.94,8.94,0,0,1-1.41-.42,1.35,1.35,0,0,1-.59-.49,1.26,1.26,0,0,1-.2-.7,1.28,1.28,0,0,1,.17-.64A1.45,1.45,0,0,1,76,47a1.94,1.94,0,0,1,.59-.26,2.93,2.93,0,0,1,.8-.1,3.3,3.3,0,0,1,1.13.18,1.54,1.54,0,0,1,.72.48,1.81,1.81,0,0,1,.32.8l-.9.12a.93.93,0,0,0-.36-.62,1.35,1.35,0,0,0-.83-.22,1.57,1.57,0,0,0-.91.2.58.58,0,0,0-.27.47.47.47,0,0,0,.11.31.82.82,0,0,0,.35.23l.81.22a11.76,11.76,0,0,1,1.37.41,1.38,1.38,0,0,1,.61.46,1.24,1.24,0,0,1,.22.75,1.42,1.42,0,0,1-.27.83,1.72,1.72,0,0,1-.78.6,3,3,0,0,1-1.15.21,2.65,2.65,0,0,1-1.62-.42A1.93,1.93,0,0,1,75.2,50.39Z"/><path d="M84.48,51.94V44.78h2.84a7.2,7.2,0,0,1,1.14.07,2.34,2.34,0,0,1,.93.33,1.78,1.78,0,0,1,.6.69,2.1,2.1,0,0,1,.23,1,2.14,2.14,0,0,1-.61,1.55,3,3,0,0,1-2.2.63H85.47v2.91Zm1-3.75h1.94a2.14,2.14,0,0,0,1.37-.34,1.19,1.19,0,0,0,.4-1,1.25,1.25,0,0,0-.24-.77,1.11,1.11,0,0,0-.63-.42,4.44,4.44,0,0,0-.93-.06H85.47Z"/><path d="M91.67,51.94V46.75h.83v.79a2.16,2.16,0,0,1,.59-.73,1.06,1.06,0,0,1,.59-.18,1.86,1.86,0,0,1,.95.28l-.32.82a1.37,1.37,0,0,0-.68-.19.91.91,0,0,0-.54.17.94.94,0,0,0-.34.48,3.27,3.27,0,0,0-.15,1v2.71Z"/><path d="M99.22,50.27l1,.11a2.21,2.21,0,0,1-.84,1.24,2.6,2.6,0,0,1-1.56.44,2.56,2.56,0,0,1-1.89-.7,2.66,2.66,0,0,1-.7-2,2.78,2.78,0,0,1,.71-2,2.45,2.45,0,0,1,1.84-.72,2.39,2.39,0,0,1,1.78.71,2.73,2.73,0,0,1,.69,2c0,.05,0,.13,0,.23H96.14a1.94,1.94,0,0,0,.51,1.31,1.55,1.55,0,0,0,1.14.45,1.46,1.46,0,0,0,.87-.25A1.69,1.69,0,0,0,99.22,50.27Zm-3-1.42h3a1.71,1.71,0,0,0-.35-1,1.44,1.44,0,0,0-1.14-.51,1.51,1.51,0,0,0-1.07.41A1.57,1.57,0,0,0,96.19,48.84Z"/><path d="M101.28,50.39l.91-.14a1.2,1.2,0,0,0,.43.8,1.54,1.54,0,0,0,1,.28,1.49,1.49,0,0,0,.94-.25.73.73,0,0,0,.31-.58.53.53,0,0,0-.27-.47,4.17,4.17,0,0,0-.94-.3,8.94,8.94,0,0,1-1.41-.42,1.35,1.35,0,0,1-.59-.49,1.26,1.26,0,0,1-.2-.7,1.28,1.28,0,0,1,.17-.64,1.45,1.45,0,0,1,.45-.49,1.94,1.94,0,0,1,.59-.26,2.93,2.93,0,0,1,.8-.1,3.3,3.3,0,0,1,1.13.18,1.54,1.54,0,0,1,.72.48,1.81,1.81,0,0,1,.32.8l-.9.12a.93.93,0,0,0-.36-.62,1.35,1.35,0,0,0-.83-.22,1.57,1.57,0,0,0-.91.2.58.58,0,0,0-.27.47.47.47,0,0,0,.11.31.82.82,0,0,0,.35.23l.81.22a11.76,11.76,0,0,1,1.37.41,1.38,1.38,0,0,1,.61.46,1.24,1.24,0,0,1,.22.75,1.42,1.42,0,0,1-.27.83,1.72,1.72,0,0,1-.78.6,3,3,0,0,1-1.15.21,2.65,2.65,0,0,1-1.62-.42A1.93,1.93,0,0,1,101.28,50.39Z"/><path d="M106.84,50.39l.91-.14a1.2,1.2,0,0,0,.43.8,1.54,1.54,0,0,0,1,.28,1.49,1.49,0,0,0,.94-.25.73.73,0,0,0,.31-.58.53.53,0,0,0-.27-.47,4.17,4.17,0,0,0-.94-.3,8.94,8.94,0,0,1-1.41-.42,1.35,1.35,0,0,1-.59-.49,1.26,1.26,0,0,1-.2-.7,1.28,1.28,0,0,1,.17-.64,1.45,1.45,0,0,1,.45-.49,1.94,1.94,0,0,1,.59-.26,2.93,2.93,0,0,1,.8-.1,3.3,3.3,0,0,1,1.13.18,1.54,1.54,0,0,1,.72.48,1.81,1.81,0,0,1,.32.8l-.9.12a.93.93,0,0,0-.36-.62,1.35,1.35,0,0,0-.83-.22,1.57,1.57,0,0,0-.91.2.58.58,0,0,0-.27.47.47.47,0,0,0,.11.31.82.82,0,0,0,.35.23l.81.22a11.76,11.76,0,0,1,1.37.41,1.38,1.38,0,0,1,.61.46,1.24,1.24,0,0,1,.22.75,1.42,1.42,0,0,1-.27.83,1.72,1.72,0,0,1-.78.6,3,3,0,0,1-1.15.21,2.65,2.65,0,0,1-1.62-.42A1.93,1.93,0,0,1,106.84,50.39Z"/><path d="M116.34,51.94v-.76a2,2,0,0,1-1.73.88,2.3,2.3,0,0,1-.9-.18,1.48,1.48,0,0,1-.62-.44,1.61,1.61,0,0,1-.28-.65,4.26,4.26,0,0,1-.06-.82V46.75h.92v2.88a4.89,4.89,0,0,0,.06.93.91.91,0,0,0,.37.54,1.18,1.18,0,0,0,.7.2,1.58,1.58,0,0,0,.78-.2,1.15,1.15,0,0,0,.52-.55,2.66,2.66,0,0,0,.15-1V46.75h.92v5.19Z"/><path d="M118.92,51.94V46.75h.83v.79a2.16,2.16,0,0,1,.59-.73,1.06,1.06,0,0,1,.59-.18,1.86,1.86,0,0,1,.95.28l-.32.82a1.37,1.37,0,0,0-.68-.19.91.91,0,0,0-.54.17.94.94,0,0,0-.34.48,3.3,3.3,0,0,0-.15,1v2.71Z"/><path d="M126.47,50.27l1,.11a2.21,2.21,0,0,1-.84,1.24,2.6,2.6,0,0,1-1.56.44,2.56,2.56,0,0,1-1.89-.7,2.66,2.66,0,0,1-.7-2,2.78,2.78,0,0,1,.71-2,2.46,2.46,0,0,1,1.84-.72,2.39,2.39,0,0,1,1.79.71,2.73,2.73,0,0,1,.69,2q0,.08,0,.23h-4.06a2,2,0,0,0,.51,1.31,1.55,1.55,0,0,0,1.14.45,1.47,1.47,0,0,0,.87-.25A1.69,1.69,0,0,0,126.47,50.27Zm-3-1.42h3a1.71,1.71,0,0,0-.35-1,1.45,1.45,0,0,0-1.14-.51,1.51,1.51,0,0,0-1.07.41A1.56,1.56,0,0,0,123.44,48.84Z"/><path d="M37.61,70.94V63.78h2.84a7.2,7.2,0,0,1,1.14.07,2.34,2.34,0,0,1,.93.33,1.78,1.78,0,0,1,.6.69,2.1,2.1,0,0,1,.23,1,2.14,2.14,0,0,1-.61,1.55,3,3,0,0,1-2.2.63H38.6v2.91Zm1-3.75h1.94a2.14,2.14,0,0,0,1.37-.34,1.19,1.19,0,0,0,.4-1,1.25,1.25,0,0,0-.24-.77,1.11,1.11,0,0,0-.63-.42,4.44,4.44,0,0,0-.93-.06H38.6Z"/><path d="M44.8,70.94V65.75h.83v.79a2.16,2.16,0,0,1,.59-.73,1.06,1.06,0,0,1,.59-.18,1.86,1.86,0,0,1,.95.28l-.32.82a1.37,1.37,0,0,0-.68-.19.91.91,0,0,0-.54.17.94.94,0,0,0-.34.48,3.27,3.27,0,0,0-.15,1v2.71Z"/><path d="M52.35,69.27l1,.11a2.21,2.21,0,0,1-.84,1.24,2.6,2.6,0,0,1-1.56.44,2.56,2.56,0,0,1-1.89-.7,2.66,2.66,0,0,1-.7-2,2.78,2.78,0,0,1,.71-2,2.45,2.45,0,0,1,1.84-.72,2.39,2.39,0,0,1,1.78.71,2.73,2.73,0,0,1,.69,2c0,.05,0,.13,0,.23H49.26a1.94,1.94,0,0,0,.51,1.31,1.55,1.55,0,0,0,1.14.45,1.46,1.46,0,0,0,.87-.25A1.69,1.69,0,0,0,52.35,69.27Zm-3-1.42h3a1.71,1.71,0,0,0-.35-1,1.44,1.44,0,0,0-1.14-.51,1.51,1.51,0,0,0-1.07.41A1.57,1.57,0,0,0,49.32,67.84Z"/><path d="M54.4,69.39l.91-.14a1.2,1.2,0,0,0,.43.8,1.54,1.54,0,0,0,1,.28,1.49,1.49,0,0,0,.94-.25A.73.73,0,0,0,58,69.5a.53.53,0,0,0-.27-.47,4.17,4.17,0,0,0-.94-.3,8.94,8.94,0,0,1-1.41-.42,1.35,1.35,0,0,1-.59-.49,1.26,1.26,0,0,1-.2-.7,1.28,1.28,0,0,1,.17-.64,1.45,1.45,0,0,1,.45-.49,1.94,1.94,0,0,1,.59-.26,2.93,2.93,0,0,1,.8-.1,3.3,3.3,0,0,1,1.13.18,1.54,1.54,0,0,1,.72.48,1.81,1.81,0,0,1,.32.8l-.9.12a.93.93,0,0,0-.36-.62,1.35,1.35,0,0,0-.83-.22,1.57,1.57,0,0,0-.91.2.58.58,0,0,0-.27.47.47.47,0,0,0,.11.31.82.82,0,0,0,.35.23l.81.22a11.76,11.76,0,0,1,1.37.41,1.38,1.38,0,0,1,.61.46,1.24,1.24,0,0,1,.22.75,1.42,1.42,0,0,1-.27.83,1.72,1.72,0,0,1-.78.6,3,3,0,0,1-1.15.21,2.65,2.65,0,0,1-1.62-.42A1.93,1.93,0,0,1,54.4,69.39Z"/><path d="M60,69.39l.91-.14a1.2,1.2,0,0,0,.43.8,1.54,1.54,0,0,0,1,.28,1.49,1.49,0,0,0,.94-.25.73.73,0,0,0,.31-.58.53.53,0,0,0-.27-.47,4.17,4.17,0,0,0-.94-.3,8.94,8.94,0,0,1-1.41-.42,1.35,1.35,0,0,1-.59-.49,1.26,1.26,0,0,1-.2-.7,1.28,1.28,0,0,1,.17-.64,1.45,1.45,0,0,1,.45-.49,1.94,1.94,0,0,1,.59-.26,2.93,2.93,0,0,1,.8-.1,3.3,3.3,0,0,1,1.13.18,1.54,1.54,0,0,1,.72.48,1.81,1.81,0,0,1,.32.8l-.9.12a.93.93,0,0,0-.36-.62,1.35,1.35,0,0,0-.83-.22,1.57,1.57,0,0,0-.91.2A.58.58,0,0,0,61,67a.47.47,0,0,0,.11.31.82.82,0,0,0,.35.23l.81.22a11.76,11.76,0,0,1,1.37.41,1.38,1.38,0,0,1,.61.46,1.24,1.24,0,0,1,.22.75,1.42,1.42,0,0,1-.27.83,1.72,1.72,0,0,1-.78.6,3,3,0,0,1-1.15.21,2.65,2.65,0,0,1-1.62-.42A1.93,1.93,0,0,1,60,69.39Z"/><path d="M71.15,70.15l.13.78a3.57,3.57,0,0,1-.7.08,1.64,1.64,0,0,1-.78-.15.87.87,0,0,1-.39-.4,3,3,0,0,1-.11-1v-3h-.68v-.68h.68V64.47l.92-.53v1.81h.93v.68h-.93v3a1.47,1.47,0,0,0,0,.48.37.37,0,0,0,.16.17.64.64,0,0,0,.31.06Z"/><path d="M72.37,70.94V63.78h.92v2.57a2.11,2.11,0,0,1,1.63-.71,2.29,2.29,0,0,1,1.05.23,1.36,1.36,0,0,1,.64.63,2.77,2.77,0,0,1,.19,1.16v3.29h-.92V67.65a1.32,1.32,0,0,0-.3-1,1.15,1.15,0,0,0-.85-.3,1.55,1.55,0,0,0-.77.2,1.17,1.17,0,0,0-.52.55,2.42,2.42,0,0,0-.15,1v2.84Z"/><path d="M82.25,69.27l1,.11a2.21,2.21,0,0,1-.84,1.24,2.6,2.6,0,0,1-1.56.44,2.56,2.56,0,0,1-1.89-.7,2.66,2.66,0,0,1-.7-2,2.78,2.78,0,0,1,.71-2,2.45,2.45,0,0,1,1.84-.72,2.39,2.39,0,0,1,1.78.71,2.73,2.73,0,0,1,.69,2c0,.05,0,.13,0,.23H79.17a1.94,1.94,0,0,0,.51,1.31,1.55,1.55,0,0,0,1.14.45,1.46,1.46,0,0,0,.87-.25A1.69,1.69,0,0,0,82.25,69.27Zm-3-1.42h3a1.71,1.71,0,0,0-.35-1,1.44,1.44,0,0,0-1.14-.51,1.51,1.51,0,0,0-1.07.41A1.57,1.57,0,0,0,79.22,67.84Z"/><path d="M86.62,70.94l2.89-7.16h1.07l3.08,7.16H92.52l-.88-2.17H88.5l-.83,2.17ZM88.79,68h2.55l-.78-2q-.36-.9-.53-1.48a8.74,8.74,0,0,1-.41,1.37Z"/><path d="M98.18,70.94v-.65a1.72,1.72,0,0,1-1.52.77,2.21,2.21,0,0,1-1.2-.34,2.28,2.28,0,0,1-.85-1,3.17,3.17,0,0,1-.3-1.41,3.52,3.52,0,0,1,.27-1.41,2.06,2.06,0,0,1,.81-1,2.26,2.26,0,0,1,1.22-.34,1.89,1.89,0,0,1,.88.2,1.81,1.81,0,0,1,.63.52V63.78H99v7.16Zm-2.92-2.59a2.18,2.18,0,0,0,.44,1.49,1.36,1.36,0,0,0,1,.49,1.33,1.33,0,0,0,1-.47,2.1,2.1,0,0,0,.42-1.44,2.35,2.35,0,0,0-.43-1.56,1.35,1.35,0,0,0-1.06-.5,1.3,1.3,0,0,0-1,.48A2.28,2.28,0,0,0,95.26,68.35Z"/><path d="M102.31,70.94l-2.07-5.19h1l1.17,3.11q.19.5.35,1,.12-.41.34-1l1.21-3.16h.95l-2.06,5.19Z"/><path d="M109.92,70.3a3.46,3.46,0,0,1-1,.59,3,3,0,0,1-1,.17,2,2,0,0,1-1.38-.42,1.35,1.35,0,0,1-.48-1.07,1.36,1.36,0,0,1,.18-.7,1.46,1.46,0,0,1,.48-.51,2.3,2.3,0,0,1,.66-.29,7,7,0,0,1,.82-.13,8.79,8.79,0,0,0,1.65-.3c0-.12,0-.2,0-.23a.94.94,0,0,0-.26-.76,1.6,1.6,0,0,0-1.05-.3,1.69,1.69,0,0,0-1,.22,1.32,1.32,0,0,0-.46.77l-.9-.12a2.08,2.08,0,0,1,.41-.89,1.78,1.78,0,0,1,.82-.52,3.8,3.8,0,0,1,1.24-.18,3.42,3.42,0,0,1,1.13.16,1.5,1.5,0,0,1,.64.39,1.35,1.35,0,0,1,.29.6,4.71,4.71,0,0,1,0,.81v1.17a11.92,11.92,0,0,0,.06,1.55,1.9,1.9,0,0,0,.23.62h-1A1.79,1.79,0,0,1,109.92,70.3Zm-.08-2a7.06,7.06,0,0,1-1.51.33,3.65,3.65,0,0,0-.81.18.79.79,0,0,0-.36.29.72.72,0,0,0-.13.42.73.73,0,0,0,.28.59,1.24,1.24,0,0,0,.82.23,2,2,0,0,0,.95-.22,1.4,1.4,0,0,0,.61-.61,2,2,0,0,0,.15-.88Z"/><path d="M112.52,70.94V65.75h.83v.74a2,2,0,0,1,1.73-.85,2.38,2.38,0,0,1,.91.17,1.42,1.42,0,0,1,.62.44,1.65,1.65,0,0,1,.29.65,4.81,4.81,0,0,1,.05.85v3.19H116V67.78a2.25,2.25,0,0,0-.11-.8.85.85,0,0,0-.38-.42,1.26,1.26,0,0,0-.64-.16,1.54,1.54,0,0,0-1,.36,1.71,1.71,0,0,0-.43,1.35v2.83Z"/><path d="M122.23,69l.91.11a2.21,2.21,0,0,1-.76,1.4,2.29,2.29,0,0,1-1.5.51,2.4,2.4,0,0,1-1.8-.7,2.74,2.74,0,0,1-.68-2,3.48,3.48,0,0,1,.29-1.47,2,2,0,0,1,.89-.94,2.74,2.74,0,0,1,1.3-.31,2.34,2.34,0,0,1,1.45.43,1.94,1.94,0,0,1,.72,1.21l-.9.13a1.4,1.4,0,0,0-.45-.79,1.21,1.21,0,0,0-.79-.26,1.46,1.46,0,0,0-1.13.48,2.19,2.19,0,0,0-.44,1.51,2.25,2.25,0,0,0,.42,1.52,1.39,1.39,0,0,0,1.1.47,1.33,1.33,0,0,0,.91-.32A1.54,1.54,0,0,0,122.23,69Z"/><path d="M128,69.27l1,.11a2.21,2.21,0,0,1-.84,1.24,2.6,2.6,0,0,1-1.56.44,2.56,2.56,0,0,1-1.89-.7,2.66,2.66,0,0,1-.7-2,2.78,2.78,0,0,1,.71-2,2.46,2.46,0,0,1,1.84-.72,2.39,2.39,0,0,1,1.78.71,2.73,2.73,0,0,1,.69,2q0,.08,0,.23h-4.06a1.94,1.94,0,0,0,.51,1.31,1.55,1.55,0,0,0,1.14.45,1.46,1.46,0,0,0,.87-.25A1.69,1.69,0,0,0,128,69.27Zm-3-1.42h3a1.71,1.71,0,0,0-.35-1,1.44,1.44,0,0,0-1.14-.51,1.51,1.51,0,0,0-1.07.41A1.56,1.56,0,0,0,124.94,67.84Z"/><path d="M133.93,70.94v-.65a1.72,1.72,0,0,1-1.52.77,2.21,2.21,0,0,1-1.2-.34,2.28,2.28,0,0,1-.85-1,3.16,3.16,0,0,1-.3-1.41,3.52,3.52,0,0,1,.27-1.41,2.07,2.07,0,0,1,.82-1,2.26,2.26,0,0,1,1.22-.34,1.89,1.89,0,0,1,.88.2,1.81,1.81,0,0,1,.63.52V63.78h.92v7.16ZM131,68.35a2.18,2.18,0,0,0,.44,1.49,1.36,1.36,0,0,0,1,.49,1.33,1.33,0,0,0,1-.47,2.1,2.1,0,0,0,.42-1.44,2.35,2.35,0,0,0-.43-1.56,1.35,1.35,0,0,0-1.06-.5,1.3,1.3,0,0,0-1,.48A2.28,2.28,0,0,0,131,68.35Z"/><path d="M140.63,70.94h-.86V63.78h.92v2.55a1.86,1.86,0,0,1,1.49-.7,2.38,2.38,0,0,1,1,.19,1.92,1.92,0,0,1,.74.54,2.6,2.6,0,0,1,.46.84,3.35,3.35,0,0,1,.16,1.05,2.87,2.87,0,0,1-.69,2.06,2.21,2.21,0,0,1-1.66.73,1.76,1.76,0,0,1-1.51-.77Zm0-2.63a2.57,2.57,0,0,0,.27,1.35,1.34,1.34,0,0,0,1.18.68,1.35,1.35,0,0,0,1-.5,2.2,2.2,0,0,0,.44-1.49,2.23,2.23,0,0,0-.42-1.5,1.31,1.31,0,0,0-1-.48,1.35,1.35,0,0,0-1,.5A2.12,2.12,0,0,0,140.62,68.3Z"/><path d="M149.51,70.94v-.76a2,2,0,0,1-1.73.88,2.3,2.3,0,0,1-.9-.18,1.48,1.48,0,0,1-.62-.44,1.6,1.6,0,0,1-.29-.65,4.29,4.29,0,0,1-.06-.82V65.75h.92v2.88a4.86,4.86,0,0,0,.06.93.91.91,0,0,0,.37.54,1.19,1.19,0,0,0,.7.2,1.58,1.58,0,0,0,.78-.2,1.14,1.14,0,0,0,.51-.55,2.63,2.63,0,0,0,.15-1V65.75h.92v5.19Z"/><path d="M154.11,70.15l.13.78a3.57,3.57,0,0,1-.7.08,1.64,1.64,0,0,1-.78-.15.87.87,0,0,1-.39-.4,3,3,0,0,1-.11-1v-3h-.68v-.68h.68V64.47l.92-.53v1.81h.93v.68h-.93v3a1.51,1.51,0,0,0,0,.48.38.38,0,0,0,.16.17.63.63,0,0,0,.31.06Z"/><path d="M157.34,70.15l.13.78a3.57,3.57,0,0,1-.7.08,1.64,1.64,0,0,1-.78-.15.87.87,0,0,1-.39-.4,3,3,0,0,1-.11-1v-3h-.68v-.68h.68V64.47l.92-.53v1.81h.93v.68h-.93v3a1.51,1.51,0,0,0,0,.48.38.38,0,0,0,.16.17.63.63,0,0,0,.31.06Z"/><path d="M158.21,68.34a2.43,2.43,0,0,1,2.55-2.71,2.51,2.51,0,0,1,1.84.7,2.59,2.59,0,0,1,.71,1.94,3.28,3.28,0,0,1-.32,1.57,2.17,2.17,0,0,1-.92.89,2.78,2.78,0,0,1-1.31.32,2.51,2.51,0,0,1-1.85-.7A2.7,2.7,0,0,1,158.21,68.34Zm.95,0a2.13,2.13,0,0,0,.46,1.49,1.57,1.57,0,0,0,2.29,0,2.18,2.18,0,0,0,.46-1.52,2.07,2.07,0,0,0-.46-1.46,1.57,1.57,0,0,0-2.29,0A2.12,2.12,0,0,0,159.16,68.34Z"/><path d="M164.71,70.94V65.75h.83v.74a2,2,0,0,1,1.73-.85,2.38,2.38,0,0,1,.91.17,1.42,1.42,0,0,1,.62.44,1.65,1.65,0,0,1,.29.65,4.81,4.81,0,0,1,.05.85v3.19h-.92V67.78a2.25,2.25,0,0,0-.11-.8.85.85,0,0,0-.38-.42,1.26,1.26,0,0,0-.64-.16,1.54,1.54,0,0,0-1,.36,1.71,1.71,0,0,0-.43,1.35v2.83Z"/><path d="M174.32,70.94v-4.5h-.82v-.68h.82V65.2a2.3,2.3,0,0,1,.1-.78,1.13,1.13,0,0,1,.47-.55,1.76,1.76,0,0,1,.94-.21,4.73,4.73,0,0,1,.86.09l-.14.77a3.22,3.22,0,0,0-.54,0,.83.83,0,0,0-.59.17.89.89,0,0,0-.17.64v.48h1.06v.68h-1.06v4.5Z"/><path d="M177,68.34a2.43,2.43,0,0,1,2.55-2.71,2.51,2.51,0,0,1,1.84.7,2.59,2.59,0,0,1,.71,1.94,3.29,3.29,0,0,1-.32,1.57,2.18,2.18,0,0,1-.92.89,2.78,2.78,0,0,1-1.32.32,2.51,2.51,0,0,1-1.85-.7A2.7,2.7,0,0,1,177,68.34Zm.95,0a2.14,2.14,0,0,0,.46,1.49,1.57,1.57,0,0,0,2.29,0,2.19,2.19,0,0,0,.46-1.52,2.07,2.07,0,0,0-.46-1.46,1.57,1.57,0,0,0-2.29,0A2.13,2.13,0,0,0,177.94,68.34Z"/><path d="M183.47,70.94V65.75h.83v.79a2.15,2.15,0,0,1,.59-.73,1.06,1.06,0,0,1,.59-.18,1.86,1.86,0,0,1,.95.28l-.32.82a1.37,1.37,0,0,0-.68-.19.91.91,0,0,0-.54.17.94.94,0,0,0-.34.48,3.27,3.27,0,0,0-.15,1v2.71Z"/><path d="M37.49,81.94V76.75h.83v.73a1.91,1.91,0,0,1,.68-.61,2,2,0,0,1,1-.23,1.86,1.86,0,0,1,1,.24,1.29,1.29,0,0,1,.55.67,2,2,0,0,1,1.68-.91,1.71,1.71,0,0,1,1.25.43,1.77,1.77,0,0,1,.44,1.32v3.56h-.92V78.67a2.3,2.3,0,0,0-.09-.76.74.74,0,0,0-.33-.37,1.06,1.06,0,0,0-.55-.14,1.32,1.32,0,0,0-1,.36,1.55,1.55,0,0,0-.38,1.16v3h-.92V78.57a1.43,1.43,0,0,0-.23-.88.87.87,0,0,0-.74-.29,1.39,1.39,0,0,0-.72.2,1.12,1.12,0,0,0-.48.57,3.07,3.07,0,0,0-.15,1.08v2.69Z"/><path d="M46.21,79.34a2.43,2.43,0,0,1,2.55-2.71,2.51,2.51,0,0,1,1.84.7,2.59,2.59,0,0,1,.71,1.94A3.29,3.29,0,0,1,51,80.84a2.18,2.18,0,0,1-.92.89,2.78,2.78,0,0,1-1.31.32,2.51,2.51,0,0,1-1.85-.7A2.71,2.71,0,0,1,46.21,79.34Zm.95,0a2.14,2.14,0,0,0,.46,1.49,1.57,1.57,0,0,0,2.29,0,2.19,2.19,0,0,0,.46-1.52,2.07,2.07,0,0,0-.46-1.46,1.57,1.57,0,0,0-2.29,0A2.13,2.13,0,0,0,47.15,79.34Z"/><path d="M52.69,81.94V76.75h.83v.79a2.16,2.16,0,0,1,.59-.73,1.06,1.06,0,0,1,.59-.18,1.86,1.86,0,0,1,.95.28l-.32.82a1.37,1.37,0,0,0-.68-.19.91.91,0,0,0-.54.17.94.94,0,0,0-.34.48,3.27,3.27,0,0,0-.15,1v2.71Z"/><path d="M60.24,80.27l1,.11a2.21,2.21,0,0,1-.84,1.24,2.6,2.6,0,0,1-1.56.44,2.56,2.56,0,0,1-1.89-.7,2.66,2.66,0,0,1-.7-2,2.78,2.78,0,0,1,.71-2,2.45,2.45,0,0,1,1.84-.72,2.39,2.39,0,0,1,1.78.71,2.73,2.73,0,0,1,.69,2c0,.05,0,.13,0,.23H57.16a1.94,1.94,0,0,0,.51,1.31,1.55,1.55,0,0,0,1.14.45,1.46,1.46,0,0,0,.87-.25A1.69,1.69,0,0,0,60.24,80.27Zm-3-1.42h3a1.71,1.71,0,0,0-.35-1,1.44,1.44,0,0,0-1.14-.51,1.51,1.51,0,0,0-1.07.41A1.57,1.57,0,0,0,57.21,78.84Z"/><path d="M65.91,75.79v-1h.92v1Zm0,6.15V76.75h.92v5.19Z"/><path d="M68.55,81.94V76.75h.83v.74a2,2,0,0,1,1.73-.85,2.37,2.37,0,0,1,.9.17,1.42,1.42,0,0,1,.62.44,1.65,1.65,0,0,1,.29.65,4.8,4.8,0,0,1,.05.85v3.19h-.92V78.78a2.25,2.25,0,0,0-.11-.8.86.86,0,0,0-.38-.42,1.26,1.26,0,0,0-.64-.16,1.54,1.54,0,0,0-1,.36,1.71,1.71,0,0,0-.43,1.35v2.83Z"/><path d="M74.93,81.94v-4.5h-.81v-.68h.81V76.2a2.31,2.31,0,0,1,.1-.78,1.14,1.14,0,0,1,.47-.55,1.76,1.76,0,0,1,.94-.21,4.73,4.73,0,0,1,.86.09l-.14.77a3.23,3.23,0,0,0-.54,0,.83.83,0,0,0-.59.17.89.89,0,0,0-.17.64v.48H76.9v.68H75.84v4.5Z"/><path d="M77.59,79.34a2.43,2.43,0,0,1,2.55-2.71,2.51,2.51,0,0,1,1.84.7,2.59,2.59,0,0,1,.71,1.94,3.29,3.29,0,0,1-.32,1.57,2.18,2.18,0,0,1-.92.89,2.78,2.78,0,0,1-1.31.32,2.51,2.51,0,0,1-1.85-.7A2.71,2.71,0,0,1,77.59,79.34Zm.95,0A2.14,2.14,0,0,0,79,80.83a1.57,1.57,0,0,0,2.29,0,2.19,2.19,0,0,0,.46-1.52,2.07,2.07,0,0,0-.46-1.46,1.57,1.57,0,0,0-2.29,0A2.13,2.13,0,0,0,78.54,79.34Z"/><path d="M84.08,81.94V76.75h.83v.79a2.16,2.16,0,0,1,.59-.73,1.06,1.06,0,0,1,.59-.18,1.86,1.86,0,0,1,.95.28l-.32.82a1.37,1.37,0,0,0-.68-.19.91.91,0,0,0-.54.17.94.94,0,0,0-.34.48,3.27,3.27,0,0,0-.15,1v2.71Z"/><path d="M87.9,81.94V76.75h.83v.73a1.91,1.91,0,0,1,.68-.61,2,2,0,0,1,1-.23,1.86,1.86,0,0,1,1,.24,1.29,1.29,0,0,1,.55.67,2,2,0,0,1,1.68-.91,1.71,1.71,0,0,1,1.25.43,1.77,1.77,0,0,1,.44,1.32v3.56h-.92V78.67a2.3,2.3,0,0,0-.09-.76.74.74,0,0,0-.33-.37,1.06,1.06,0,0,0-.55-.14,1.32,1.32,0,0,0-1,.36,1.55,1.55,0,0,0-.38,1.16v3h-.92V78.57a1.43,1.43,0,0,0-.23-.88.87.87,0,0,0-.74-.29,1.39,1.39,0,0,0-.72.2,1.12,1.12,0,0,0-.48.57,3.07,3.07,0,0,0-.15,1.08v2.69Z"/><path d="M100.52,81.3a3.46,3.46,0,0,1-1,.59,3,3,0,0,1-1,.17,2,2,0,0,1-1.38-.42,1.35,1.35,0,0,1-.48-1.07,1.36,1.36,0,0,1,.18-.7,1.46,1.46,0,0,1,.48-.51,2.3,2.3,0,0,1,.66-.29,7,7,0,0,1,.82-.13,8.79,8.79,0,0,0,1.65-.3c0-.12,0-.2,0-.23a.94.94,0,0,0-.26-.76,1.6,1.6,0,0,0-1.05-.3,1.69,1.69,0,0,0-1,.22,1.32,1.32,0,0,0-.46.77l-.9-.12a2.08,2.08,0,0,1,.41-.89,1.78,1.78,0,0,1,.82-.52,3.8,3.8,0,0,1,1.24-.18,3.42,3.42,0,0,1,1.13.16,1.5,1.5,0,0,1,.64.39,1.35,1.35,0,0,1,.29.6,4.71,4.71,0,0,1,0,.81v1.17a11.92,11.92,0,0,0,.06,1.55,1.9,1.9,0,0,0,.23.62h-1A1.79,1.79,0,0,1,100.52,81.3Zm-.08-2a7.06,7.06,0,0,1-1.51.33,3.65,3.65,0,0,0-.81.18.79.79,0,0,0-.36.29.72.72,0,0,0-.13.42.73.73,0,0,0,.28.59,1.24,1.24,0,0,0,.82.23,2,2,0,0,0,.95-.22,1.4,1.4,0,0,0,.61-.61,2,2,0,0,0,.15-.88Z"/><path d="M105.13,81.15l.13.78a3.57,3.57,0,0,1-.7.08,1.64,1.64,0,0,1-.78-.15.87.87,0,0,1-.39-.4,3,3,0,0,1-.11-1v-3h-.68v-.68h.68V75.47l.92-.53v1.81h.93v.68h-.93v3a1.47,1.47,0,0,0,0,.48.37.37,0,0,0,.16.17.64.64,0,0,0,.31.06Z"/><path d="M106.36,75.79v-1h.92v1Zm0,6.15V76.75h.92v5.19Z"/><path d="M108.66,79.34a2.43,2.43,0,0,1,2.55-2.71,2.51,2.51,0,0,1,1.84.7,2.59,2.59,0,0,1,.71,1.94,3.29,3.29,0,0,1-.32,1.57,2.18,2.18,0,0,1-.92.89,2.78,2.78,0,0,1-1.31.32,2.51,2.51,0,0,1-1.85-.7A2.71,2.71,0,0,1,108.66,79.34Zm.95,0a2.14,2.14,0,0,0,.46,1.49,1.57,1.57,0,0,0,2.29,0,2.19,2.19,0,0,0,.46-1.52,2.07,2.07,0,0,0-.46-1.46,1.57,1.57,0,0,0-2.29,0A2.13,2.13,0,0,0,109.61,79.34Z"/><path d="M115.15,81.94V76.75H116v.74a2,2,0,0,1,1.73-.85,2.38,2.38,0,0,1,.91.17,1.43,1.43,0,0,1,.62.44,1.65,1.65,0,0,1,.29.65,4.91,4.91,0,0,1,.05.85v3.19h-.92V78.78a2.25,2.25,0,0,0-.11-.8.85.85,0,0,0-.38-.42,1.27,1.27,0,0,0-.64-.16,1.54,1.54,0,0,0-1,.36,1.71,1.71,0,0,0-.43,1.35v2.83Z"/><rect x="16.28" y="54.69" width="5.74" height="18.4"/><circle cx="19.23" cy="78.89" r="3.68"/></svg>