<svg id="Layer_1" data-name="Layer 1" xmlns="http://www.w3.org/2000/svg" viewBox="0 0 224.73 130.33"><title>UIM_wmsg_no_water</title><rect x="0.5" y="0.5" width="223.73" height="129.31" style="fill:none;stroke:#000"/><rect x="0.49" y="101.87" width="223.73" height="27.94" style="fill:none"/><rect x="0.53" y="101.87" width="44.74" height="27.98" style="fill:none"/><rect x="45.47" y="101.87" width="44.74" height="27.98" style="fill:none"/><rect x="90.19" y="101.87" width="44.74" height="27.98" style="fill:none;stroke:#000;stroke-linecap:round;stroke-linejoin:round;stroke-width:0.9753649999999999px"/><rect x="175.72" y="101.87" width="48.5" height="27.98" style="fill:none;stroke:#000;stroke-linecap:round;stroke-linejoin:round;stroke-width:0.9753649999999999px"/><rect x="134.8" y="101.87" width="41.05" height="27.98" style="fill:none"/><line x1="0.53" y1="101.87" x2="224.1" y2="101.87" style="fill:none;stroke:#000;stroke-linecap:round;stroke-linejoin:round;stroke-width:0.9753649999999999px"/><path d="M179.77,118.84l1.89-7.87h.7l2,7.87h-.74l-.57-2.38H181l-.54,2.38Zm1.42-3.23h1.67l-.51-2.18q-.23-1-.35-1.63a14.91,14.91,0,0,1-.26,1.5Z" style="fill:#231f20"/><path d="M185,118.84V111h1.69a2.64,2.64,0,0,1,.87.11,1.56,1.56,0,0,1,.72.56,3.65,3.65,0,0,1,.58,1.35,8.18,8.18,0,0,1,.19,1.87,8.66,8.66,0,0,1-.13,1.59,5.22,5.22,0,0,1-.33,1.15,2.63,2.63,0,0,1-.45.71,1.56,1.56,0,0,1-.59.39,2.15,2.15,0,0,1-.79.13Zm.65-.93h1a1.66,1.66,0,0,0,.76-.14,1.12,1.12,0,0,0,.44-.41,3.06,3.06,0,0,0,.36-1,7.65,7.65,0,0,0,.13-1.52,5.55,5.55,0,0,0-.25-1.9,1.74,1.74,0,0,0-.61-.89,1.67,1.67,0,0,0-.84-.16h-1Z" style="fill:#231f20"/><path d="M191.52,118.84l-1.9-7.87h.7l1.28,5.72q.15.69.26,1.29.11-.64.26-1.29l1.33-5.72h.66l-1.92,7.87Z" style="fill:#231f20"/><path d="M194.16,118.84,196,111h.7l2,7.87H198l-.57-2.38h-2.05l-.54,2.38Zm1.42-3.23h1.67l-.51-2.18q-.23-1-.35-1.63a14.91,14.91,0,0,1-.26,1.5Z" style="fill:#231f20"/><path d="M199.82,118.84V111h.67l2.58,6.18V111h.62v7.87H203l-2.58-6.19v6.19Z" style="fill:#231f20"/><path d="M208.83,116.08l.65.26a4.21,4.21,0,0,1-.74,2,1.6,1.6,0,0,1-1.3.67,1.71,1.71,0,0,1-1.29-.52,3.39,3.39,0,0,1-.76-1.5,8.26,8.26,0,0,1-.26-2.11,7.06,7.06,0,0,1,.29-2.15,3,3,0,0,1,.83-1.39,1.77,1.77,0,0,1,1.19-.47,1.56,1.56,0,0,1,1.24.6,3.6,3.6,0,0,1,.7,1.69l-.64.24a2.86,2.86,0,0,0-.5-1.25,1,1,0,0,0-.82-.39,1.21,1.21,0,0,0-.95.44,2.54,2.54,0,0,0-.53,1.17,7.35,7.35,0,0,0-.15,1.51,7.44,7.44,0,0,0,.18,1.75,2.26,2.26,0,0,0,.57,1.12,1.18,1.18,0,0,0,.83.37,1.13,1.13,0,0,0,.92-.5A3.24,3.24,0,0,0,208.83,116.08Z" style="fill:#231f20"/><path d="M210.84,118.84V111h3.55v.93h-2.9v2.41h2.72v.92h-2.72v2.68h3v.93Z" style="fill:#231f20"/><path d="M216,118.84V111h1.69a2.64,2.64,0,0,1,.87.11,1.56,1.56,0,0,1,.72.56,3.65,3.65,0,0,1,.58,1.35,8.18,8.18,0,0,1,.19,1.87,8.66,8.66,0,0,1-.13,1.59,5.22,5.22,0,0,1-.33,1.15,2.63,2.63,0,0,1-.45.71,1.56,1.56,0,0,1-.59.39,2.15,2.15,0,0,1-.79.13Zm.65-.93h1a1.66,1.66,0,0,0,.76-.14,1.12,1.12,0,0,0,.44-.41,3.06,3.06,0,0,0,.36-1,7.65,7.65,0,0,0,.13-1.52,5.55,5.55,0,0,0-.25-1.9,1.74,1.74,0,0,0-.61-.89,1.67,1.67,0,0,0-.84-.16h-1Z" style="fill:#231f20"/><rect x="208.81" y="86.13" width="15.41" height="15.65" style="fill:none;stroke:#000;stroke-width:0.9753649999999999px"/><polygon points="209.58 93.05 216.52 100.01 223.44 93.05 209.58 93.05" style="fill:#231f20"/><rect x="208.81" y="40.98" width="15.41" height="15.65" style="fill:none;stroke:#000;stroke-width:0.9753649999999999px"/><rect x="210.36" y="58.21" width="12.45" height="13.08"/><polygon points="223.47 49.82 216.52 42.86 209.61 49.82 223.47 49.82" style="fill:#231f20"/><path d="M103.28,118.84V111h1.84a1.37,1.37,0,0,1,1.44,1,2.85,2.85,0,0,1,.19,1,2.62,2.62,0,0,1-.17,1,1.65,1.65,0,0,1-.52.72,1.43,1.43,0,0,1,.69.71,2.75,2.75,0,0,1,.24,1.19,3.5,3.5,0,0,1-.15,1,2.11,2.11,0,0,1-.36.73,1.35,1.35,0,0,1-.54.39,2.1,2.1,0,0,1-.79.13Zm.65-4.57H105a1.53,1.53,0,0,0,.62-.09.77.77,0,0,0,.37-.39,1.65,1.65,0,0,0,.13-.69,1.87,1.87,0,0,0-.12-.69.73.73,0,0,0-.33-.41,1.8,1.8,0,0,0-.75-.11h-1Zm0,3.64h1.22a1.77,1.77,0,0,0,.44,0,.85.85,0,0,0,.38-.21,1.12,1.12,0,0,0,.25-.44,2.07,2.07,0,0,0,.1-.66,1.92,1.92,0,0,0-.14-.76.89.89,0,0,0-.39-.46,1.57,1.57,0,0,0-.72-.13h-1.14Z"/><path d="M107.9,118.84l1.89-7.87h.7l2,7.87h-.74l-.57-2.38h-2.05l-.54,2.38Zm1.42-3.23H111l-.51-2.18q-.24-1-.35-1.63a15,15,0,0,1-.26,1.5Z"/><path d="M117.07,116.08l.65.26a4.22,4.22,0,0,1-.74,2,1.6,1.6,0,0,1-1.3.67,1.71,1.71,0,0,1-1.29-.52,3.38,3.38,0,0,1-.76-1.5,8.24,8.24,0,0,1-.26-2.11,7.06,7.06,0,0,1,.29-2.15,3,3,0,0,1,.83-1.39,1.77,1.77,0,0,1,1.19-.47,1.55,1.55,0,0,1,1.24.6,3.6,3.6,0,0,1,.7,1.69l-.64.24a2.86,2.86,0,0,0-.5-1.25,1,1,0,0,0-.82-.39,1.21,1.21,0,0,0-.95.44,2.53,2.53,0,0,0-.53,1.17,7.32,7.32,0,0,0-.15,1.51,7.47,7.47,0,0,0,.18,1.75,2.26,2.26,0,0,0,.57,1.12,1.19,1.19,0,0,0,.83.37,1.12,1.12,0,0,0,.92-.5A3.23,3.23,0,0,0,117.07,116.08Z"/><path d="M119,118.84V111h.65v3.91l2.44-3.91H123l-2.06,3.19,2.15,4.68h-.86l-1.75-4-.8,1.26v2.73Z"/><rect x="0.54" y="101.87" width="44.74" height="27.98" style="fill:none;stroke:#000;stroke-linecap:round;stroke-linejoin:round;stroke-width:0.9753649999999999px"/><path d="M8,118.84,9.88,111h.7l2,7.87h-.74l-.57-2.38H9.22l-.54,2.38Zm1.42-3.23h1.67l-.51-2.18q-.24-1-.35-1.63a15,15,0,0,1-.26,1.5Z"/><path d="M17.16,116.08l.65.26a4.22,4.22,0,0,1-.74,2,1.6,1.6,0,0,1-1.3.67,1.71,1.71,0,0,1-1.29-.52,3.38,3.38,0,0,1-.76-1.5,8.24,8.24,0,0,1-.26-2.11,7.06,7.06,0,0,1,.29-2.15,3,3,0,0,1,.83-1.39,1.77,1.77,0,0,1,1.19-.47,1.55,1.55,0,0,1,1.24.6,3.6,3.6,0,0,1,.7,1.69l-.64.24a2.86,2.86,0,0,0-.5-1.25,1,1,0,0,0-.82-.39,1.21,1.21,0,0,0-.95.44,2.53,2.53,0,0,0-.53,1.17,7.32,7.32,0,0,0-.15,1.51,7.47,7.47,0,0,0,.18,1.75,2.26,2.26,0,0,0,.57,1.12,1.19,1.19,0,0,0,.83.37,1.12,1.12,0,0,0,.92-.5A3.23,3.23,0,0,0,17.16,116.08Z"/><path d="M22.67,116.08l.65.26a4.22,4.22,0,0,1-.74,2,1.6,1.6,0,0,1-1.3.67,1.71,1.71,0,0,1-1.29-.52,3.38,3.38,0,0,1-.76-1.5,8.24,8.24,0,0,1-.26-2.11,7.06,7.06,0,0,1,.29-2.15,3,3,0,0,1,.83-1.39,1.77,1.77,0,0,1,1.19-.47,1.55,1.55,0,0,1,1.24.6,3.6,3.6,0,0,1,.7,1.69l-.64.24a2.86,2.86,0,0,0-.5-1.25,1,1,0,0,0-.82-.39,1.21,1.21,0,0,0-.95.44,2.53,2.53,0,0,0-.53,1.17,7.32,7.32,0,0,0-.15,1.51,7.47,7.47,0,0,0,.18,1.75,2.26,2.26,0,0,0,.57,1.12,1.19,1.19,0,0,0,.83.37,1.12,1.12,0,0,0,.92-.5A3.23,3.23,0,0,0,22.67,116.08Z"/><path d="M24.68,118.84V111h3.55v.93h-2.9v2.41H28v.92H25.33v2.68h3v.93Z"/><path d="M29.79,118.84V111h1.85a2.84,2.84,0,0,1,.75.08,1.23,1.23,0,0,1,.61.37,2,2,0,0,1,.39.76,3.66,3.66,0,0,1,.15,1.07,3.37,3.37,0,0,1-.4,1.7,1.52,1.52,0,0,1-1.44.7H30.44v3.2Zm.65-4.13h1.27a1,1,0,0,0,.89-.37,1.82,1.82,0,0,0,.26-1.06,2.08,2.08,0,0,0-.16-.85.85.85,0,0,0-.41-.46,1.76,1.76,0,0,0-.61-.07H30.44Z"/><path d="M36.17,118.84V111.9H34.55V111h3.89v.93H36.82v6.95Z"/><line x1="0.53" y1="40.99" x2="224.1" y2="40.99" style="fill:none;stroke:#000;stroke-linecap:round;stroke-linejoin:round;stroke-width:0.9753649999999999px"/><line x1="208.81" y1="51.65" x2="208.81" y2="90.99" style="fill:none;stroke:#000;stroke-width:0.9753649999999999px"/><path d="M50.43,23.32a7.53,7.53,0,0,1,.25-2.16,2.72,2.72,0,0,1,.75-1.26,1.82,1.82,0,0,1,1.26-.44,1.91,1.91,0,0,1,1,.25,2,2,0,0,1,.7.71,4,4,0,0,1,.43,1.13A8.16,8.16,0,0,1,55,23.32a7.56,7.56,0,0,1-.25,2.15A2.72,2.72,0,0,1,54,26.74a1.83,1.83,0,0,1-1.26.45,1.85,1.85,0,0,1-1.58-.79A5.35,5.35,0,0,1,50.43,23.32Zm.88,0a5.12,5.12,0,0,0,.4,2.48,1.1,1.1,0,0,0,2,0,5.13,5.13,0,0,0,.4-2.48,5.12,5.12,0,0,0-.4-2.49,1.17,1.17,0,0,0-1-.62,1.07,1.07,0,0,0-.94.54A5.17,5.17,0,0,0,51.3,23.32Z"/><path d="M64,27.06v-.69a1.54,1.54,0,0,1-1.41.82,1.86,1.86,0,0,1-1.11-.36,2.34,2.34,0,0,1-.78-1,3.77,3.77,0,0,1-.28-1.49,4.22,4.22,0,0,1,.25-1.49,2.13,2.13,0,0,1,.75-1,1.89,1.89,0,0,1,1.12-.36,1.57,1.57,0,0,1,.81.21,1.75,1.75,0,0,1,.58.55V19.48h.85v7.58Zm-2.7-2.74a2.54,2.54,0,0,0,.41,1.58,1.19,1.19,0,0,0,1,.52,1.17,1.17,0,0,0,1-.5A2.45,2.45,0,0,0,64,24.4a2.75,2.75,0,0,0-.4-1.65,1.19,1.19,0,0,0-1-.53,1.15,1.15,0,0,0-.95.51A2.67,2.67,0,0,0,61.27,24.32Z"/><path d="M70.35,26.38a3.15,3.15,0,0,1-.91.62,2.44,2.44,0,0,1-.94.18,1.73,1.73,0,0,1-1.27-.44,1.52,1.52,0,0,1-.45-1.13,1.61,1.61,0,0,1,.17-.74,1.48,1.48,0,0,1,.44-.53A2,2,0,0,1,68,24a5.63,5.63,0,0,1,.76-.14,7.21,7.21,0,0,0,1.52-.32c0-.13,0-.21,0-.24a1.08,1.08,0,0,0-.24-.8,1.35,1.35,0,0,0-1-.32,1.41,1.41,0,0,0-.89.23,1.44,1.44,0,0,0-.42.81l-.83-.12a2.36,2.36,0,0,1,.37-.94,1.64,1.64,0,0,1,.75-.55,3.1,3.1,0,0,1,1.14-.19,2.8,2.8,0,0,1,1,.17,1.37,1.37,0,0,1,.59.42,1.52,1.52,0,0,1,.27.63,5.72,5.72,0,0,1,0,.86v1.24a14.43,14.43,0,0,0,.05,1.64,2.19,2.19,0,0,0,.22.66h-.89A2.12,2.12,0,0,1,70.35,26.38Zm-.07-2.08a5.84,5.84,0,0,1-1.39.35,3,3,0,0,0-.74.19.76.76,0,0,0-.34.3.85.85,0,0,0-.12.44.82.82,0,0,0,.26.62,1.05,1.05,0,0,0,.76.25,1.64,1.64,0,0,0,.88-.23,1.4,1.4,0,0,0,.56-.64,2.43,2.43,0,0,0,.14-.93Z"/><path d="M73.39,29.17l-.09-.87a1.77,1.77,0,0,0,.49.08.87.87,0,0,0,.45-.1.81.81,0,0,0,.28-.29,4.79,4.79,0,0,0,.26-.69l.08-.23-1.91-5.5h.92l1,3.18q.2.6.37,1.27.15-.64.35-1.25l1.08-3.2h.85l-1.91,5.58a11.61,11.61,0,0,1-.48,1.25,1.81,1.81,0,0,1-.52.67,1.16,1.16,0,0,1-.7.21A1.59,1.59,0,0,1,73.39,29.17Z"/><path d="M78.91,25.42l.84-.14a1.33,1.33,0,0,0,.4.85,1.3,1.3,0,0,0,.91.29,1.26,1.26,0,0,0,.87-.26.81.81,0,0,0,.28-.61A.58.58,0,0,0,82,25a3.53,3.53,0,0,0-.87-.32,7.49,7.49,0,0,1-1.3-.45,1.3,1.3,0,0,1-.55-.52,1.48,1.48,0,0,1-.19-.74,1.52,1.52,0,0,1,.15-.68,1.47,1.47,0,0,1,.42-.52,1.69,1.69,0,0,1,.54-.27,2.39,2.39,0,0,1,.74-.11,2.7,2.7,0,0,1,1,.19,1.43,1.43,0,0,1,.66.5,2.08,2.08,0,0,1,.29.85l-.83.12a1,1,0,0,0-.33-.66,1.14,1.14,0,0,0-.77-.24,1.31,1.31,0,0,0-.84.21.63.63,0,0,0-.25.5.55.55,0,0,0,.1.33.76.76,0,0,0,.33.25l.75.24a9.8,9.8,0,0,1,1.26.43,1.3,1.3,0,0,1,.56.49,1.46,1.46,0,0,1,.2.8,1.66,1.66,0,0,1-1,1.51,2.43,2.43,0,0,1-1.06.22,2.22,2.22,0,0,1-1.5-.44A2.12,2.12,0,0,1,78.91,25.42Z"/><path d="M88.51,23.32a7.53,7.53,0,0,1,.25-2.16,2.72,2.72,0,0,1,.75-1.26,1.82,1.82,0,0,1,1.26-.44,1.91,1.91,0,0,1,1,.25,2,2,0,0,1,.7.71,4,4,0,0,1,.43,1.13A8.16,8.16,0,0,1,93,23.32a7.56,7.56,0,0,1-.25,2.15A2.72,2.72,0,0,1,92,26.74a1.83,1.83,0,0,1-1.26.45,1.85,1.85,0,0,1-1.58-.79A5.35,5.35,0,0,1,88.51,23.32Zm.88,0a5.12,5.12,0,0,0,.4,2.48,1.1,1.1,0,0,0,2,0,5.13,5.13,0,0,0,.4-2.48,5.12,5.12,0,0,0-.4-2.49,1.17,1.17,0,0,0-1-.62,1.07,1.07,0,0,0-.94.54A5.17,5.17,0,0,0,89.38,23.32Z"/><path d="M98.78,27.06V19.48h.85V22.2a1.84,1.84,0,0,1,1.51-.75,1.9,1.9,0,0,1,1,.24,1.36,1.36,0,0,1,.59.66,3.31,3.31,0,0,1,.18,1.23v3.48H102V23.58a1.53,1.53,0,0,0-.28-1,1,1,0,0,0-.78-.32,1.3,1.3,0,0,0-.71.21,1.18,1.18,0,0,0-.48.58,2.89,2.89,0,0,0-.14,1v3Z"/><path d="M105.14,27.06V21.57h.77v.83a2.25,2.25,0,0,1,.54-.77.89.89,0,0,1,.55-.19,1.57,1.57,0,0,1,.88.3l-.29.86a1.14,1.14,0,0,0-.63-.2.77.77,0,0,0-.5.18,1,1,0,0,0-.32.51,3.92,3.92,0,0,0-.14,1.09v2.87Z"/><path d="M109,25.42l.84-.14a1.33,1.33,0,0,0,.4.85,1.3,1.3,0,0,0,.91.29,1.26,1.26,0,0,0,.87-.26.81.81,0,0,0,.28-.61.58.58,0,0,0-.25-.5,3.53,3.53,0,0,0-.87-.32,7.49,7.49,0,0,1-1.3-.45,1.3,1.3,0,0,1-.55-.52,1.48,1.48,0,0,1-.19-.74,1.52,1.52,0,0,1,.15-.68,1.47,1.47,0,0,1,.42-.52,1.69,1.69,0,0,1,.54-.27,2.39,2.39,0,0,1,.74-.11,2.7,2.7,0,0,1,1,.19,1.43,1.43,0,0,1,.66.5A2.08,2.08,0,0,1,113,23l-.83.12a1,1,0,0,0-.33-.66,1.14,1.14,0,0,0-.77-.24,1.31,1.31,0,0,0-.84.21.63.63,0,0,0-.25.5.55.55,0,0,0,.1.33.76.76,0,0,0,.33.25l.75.24a9.8,9.8,0,0,1,1.26.43,1.3,1.3,0,0,1,.56.49,1.46,1.46,0,0,1,.2.8,1.66,1.66,0,0,1-1,1.51,2.43,2.43,0,0,1-1.06.22,2.22,2.22,0,0,1-1.5-.44A2.12,2.12,0,0,1,109,25.42Z"/><path d="M118.6,23.32a7.53,7.53,0,0,1,.25-2.16,2.72,2.72,0,0,1,.75-1.26,1.82,1.82,0,0,1,1.26-.44,1.91,1.91,0,0,1,1,.25,2,2,0,0,1,.7.71,4,4,0,0,1,.43,1.13,8.16,8.16,0,0,1,.16,1.79,7.56,7.56,0,0,1-.25,2.15,2.72,2.72,0,0,1-.75,1.27,1.83,1.83,0,0,1-1.26.45,1.85,1.85,0,0,1-1.58-.79A5.35,5.35,0,0,1,118.6,23.32Zm.88,0a5.12,5.12,0,0,0,.4,2.48,1.1,1.1,0,0,0,2,0,5.13,5.13,0,0,0,.4-2.48,5.12,5.12,0,0,0-.4-2.49,1.17,1.17,0,0,0-1-.62,1.07,1.07,0,0,0-.94.54A5.17,5.17,0,0,0,119.48,23.32Z"/><path d="M128.87,27.06V21.57h.76v.77a1.87,1.87,0,0,1,.63-.65,1.65,1.65,0,0,1,.9-.25,1.55,1.55,0,0,1,.92.25,1.34,1.34,0,0,1,.5.71,1.78,1.78,0,0,1,1.55-1,1.46,1.46,0,0,1,1.15.45,2,2,0,0,1,.4,1.39v3.77h-.85V23.6a2.78,2.78,0,0,0-.08-.8.77.77,0,0,0-.3-.4.88.88,0,0,0-.51-.15,1.14,1.14,0,0,0-.88.39,1.8,1.8,0,0,0-.35,1.23v3.19h-.85V23.49a1.68,1.68,0,0,0-.21-.93.76.76,0,0,0-.68-.31,1.16,1.16,0,0,0-1.11.81,3.7,3.7,0,0,0-.14,1.15v2.85Z"/><path d="M137.93,20.55V19.48h.85v1.07Zm0,6.51V21.57h.85v5.49Z"/><path d="M141.05,27.06V21.57h.77v.78a1.77,1.77,0,0,1,1.6-.9,1.94,1.94,0,0,1,.84.18,1.33,1.33,0,0,1,.57.47,1.9,1.9,0,0,1,.27.69,5.86,5.86,0,0,1,0,.9v3.38h-.85V23.72a2.72,2.72,0,0,0-.1-.85.88.88,0,0,0-.35-.45,1.05,1.05,0,0,0-.59-.17,1.32,1.32,0,0,0-.94.38,2,2,0,0,0-.4,1.43v3Z"/><path d="M147.08,25.42l.84-.14a1.33,1.33,0,0,0,.4.85,1.3,1.3,0,0,0,.91.29,1.25,1.25,0,0,0,.87-.26.81.81,0,0,0,.29-.61.58.58,0,0,0-.25-.5,3.51,3.51,0,0,0-.87-.32,7.46,7.46,0,0,1-1.3-.45,1.3,1.3,0,0,1-.55-.52,1.48,1.48,0,0,1-.19-.74,1.52,1.52,0,0,1,.15-.68,1.47,1.47,0,0,1,.42-.52,1.69,1.69,0,0,1,.54-.27,2.39,2.39,0,0,1,.74-.11,2.69,2.69,0,0,1,1,.19,1.42,1.42,0,0,1,.66.5,2.07,2.07,0,0,1,.29.85l-.83.12a1,1,0,0,0-.33-.66,1.14,1.14,0,0,0-.77-.24,1.3,1.3,0,0,0-.84.21.63.63,0,0,0-.25.5.55.55,0,0,0,.1.33.76.76,0,0,0,.33.25l.75.24a9.91,9.91,0,0,1,1.26.43,1.31,1.31,0,0,1,.56.49,1.46,1.46,0,0,1,.2.8,1.66,1.66,0,0,1-.25.88,1.64,1.64,0,0,1-.72.64,2.42,2.42,0,0,1-1.06.22,2.22,2.22,0,0,1-1.5-.44A2.12,2.12,0,0,1,147.08,25.42Z"/><path d="M160.19,26.38a3.15,3.15,0,0,1-.91.62,2.44,2.44,0,0,1-.94.18,1.73,1.73,0,0,1-1.27-.44,1.52,1.52,0,0,1-.45-1.13,1.61,1.61,0,0,1,.17-.74,1.47,1.47,0,0,1,.44-.53,2,2,0,0,1,.61-.31,5.62,5.62,0,0,1,.76-.14,7.22,7.22,0,0,0,1.52-.32c0-.13,0-.21,0-.24a1.08,1.08,0,0,0-.24-.8,1.35,1.35,0,0,0-1-.32,1.41,1.41,0,0,0-.89.23,1.44,1.44,0,0,0-.42.81l-.83-.12a2.37,2.37,0,0,1,.38-.94,1.64,1.64,0,0,1,.75-.55,3.11,3.11,0,0,1,1.14-.19,2.8,2.8,0,0,1,1,.17,1.37,1.37,0,0,1,.59.42,1.52,1.52,0,0,1,.27.63,5.72,5.72,0,0,1,0,.86v1.24A14.14,14.14,0,0,0,161,26.4a2.18,2.18,0,0,0,.21.66h-.89A2.1,2.1,0,0,1,160.19,26.38Zm-.07-2.08a5.85,5.85,0,0,1-1.39.35,3,3,0,0,0-.74.19.76.76,0,0,0-.34.3.85.85,0,0,0-.12.44.82.82,0,0,0,.26.62,1,1,0,0,0,.76.25,1.65,1.65,0,0,0,.88-.23,1.4,1.4,0,0,0,.56-.64,2.43,2.43,0,0,0,.14-.93Z"/><path d="M163.12,27.51l.83.13a.89.89,0,0,0,.29.61,1.34,1.34,0,0,0,.87.26,1.43,1.43,0,0,0,.91-.26,1.29,1.29,0,0,0,.44-.72,6.52,6.52,0,0,0,.06-1.19,1.7,1.7,0,0,1-1.39.72,1.84,1.84,0,0,1-1.61-.82,3.34,3.34,0,0,1-.57-2,3.93,3.93,0,0,1,.26-1.45,2.25,2.25,0,0,1,.76-1,1.92,1.92,0,0,1,1.16-.36,1.75,1.75,0,0,1,1.47.79v-.66h.79v4.75a4.88,4.88,0,0,1-.24,1.82,1.84,1.84,0,0,1-.76.84,2.45,2.45,0,0,1-1.28.31,2.26,2.26,0,0,1-1.46-.44A1.55,1.55,0,0,1,163.12,27.51Zm.71-3.3a2.53,2.53,0,0,0,.39,1.58,1.21,1.21,0,0,0,1,.5,1.22,1.22,0,0,0,1-.49,2.45,2.45,0,0,0,.4-1.55,2.39,2.39,0,0,0-.41-1.52,1.23,1.23,0,0,0-1-.51,1.2,1.2,0,0,0-1,.5A2.39,2.39,0,0,0,163.82,24.22Z"/><path d="M169.32,24.31a3,3,0,0,1,.78-2.26,2.22,2.22,0,0,1,1.58-.61,2.16,2.16,0,0,1,1.7.74,3,3,0,0,1,.66,2,3.91,3.91,0,0,1-.29,1.67,2.17,2.17,0,0,1-.85.94,2.31,2.31,0,0,1-1.22.34,2.17,2.17,0,0,1-1.71-.74A3.12,3.12,0,0,1,169.32,24.31Zm.88,0a2.49,2.49,0,0,0,.42,1.58,1.33,1.33,0,0,0,2.12,0,2.55,2.55,0,0,0,.42-1.61,2.41,2.41,0,0,0-.42-1.54,1.33,1.33,0,0,0-2.12,0A2.48,2.48,0,0,0,170.2,24.31Z"/><path d="M68.66,37.62V30h5v.89h-4.1v2.32h3.84v.89H69.58v2.58h4.26v.89Z"/><path d="M76,37.62V32.13h.77V33a2.25,2.25,0,0,1,.54-.77.89.89,0,0,1,.55-.19,1.57,1.57,0,0,1,.88.3l-.29.86a1.14,1.14,0,0,0-.63-.2.77.77,0,0,0-.5.18,1,1,0,0,0-.32.51,3.92,3.92,0,0,0-.14,1.09v2.87Z"/><path d="M80.17,37.62V32.13h.77V33a2.25,2.25,0,0,1,.54-.77A.89.89,0,0,1,82,32a1.57,1.57,0,0,1,.88.3l-.29.86A1.14,1.14,0,0,0,82,33a.77.77,0,0,0-.5.18,1,1,0,0,0-.32.51A3.92,3.92,0,0,0,81,34.74v2.87Z"/><path d="M84.06,34.87a3,3,0,0,1,.78-2.26A2.23,2.23,0,0,1,86.42,32a2.17,2.17,0,0,1,1.7.74,3,3,0,0,1,.66,2,3.92,3.92,0,0,1-.29,1.67,2.17,2.17,0,0,1-.85.94,2.31,2.31,0,0,1-1.22.34A2.17,2.17,0,0,1,84.71,37,3.12,3.12,0,0,1,84.06,34.87Zm.88,0a2.49,2.49,0,0,0,.42,1.58,1.33,1.33,0,0,0,2.12,0,2.55,2.55,0,0,0,.42-1.61,2.41,2.41,0,0,0-.42-1.54,1.33,1.33,0,0,0-2.12,0A2.48,2.48,0,0,0,84.94,34.87Z"/><path d="M90.74,37.62V32.13h.77V33a2.25,2.25,0,0,1,.54-.77A.89.89,0,0,1,92.6,32a1.57,1.57,0,0,1,.88.3l-.29.86a1.14,1.14,0,0,0-.63-.2.77.77,0,0,0-.5.18,1,1,0,0,0-.32.51,3.92,3.92,0,0,0-.14,1.09v2.87Z"/><path d="M103.68,35l.92.25a3.43,3.43,0,0,1-1,1.88,2.71,2.71,0,0,1-1.84.65,2.82,2.82,0,0,1-2.9-1.94,5.56,5.56,0,0,1-.37-2,4.81,4.81,0,0,1,.41-2.06,3,3,0,0,1,1.18-1.34,3.23,3.23,0,0,1,1.68-.46,2.69,2.69,0,0,1,1.75.58,3,3,0,0,1,1,1.63l-.91.23a2.38,2.38,0,0,0-.7-1.2,1.76,1.76,0,0,0-1.16-.38,2.11,2.11,0,0,0-1.34.42,2.21,2.21,0,0,0-.76,1.12,4.89,4.89,0,0,0-.22,1.45,5,5,0,0,0,.26,1.69,2.07,2.07,0,0,0,.8,1.08,2.11,2.11,0,0,0,1.18.36A1.87,1.87,0,0,0,103,36.4,2.55,2.55,0,0,0,103.68,35Z"/><path d="M106.28,34.87a3,3,0,0,1,.78-2.26,2.23,2.23,0,0,1,1.58-.61,2.17,2.17,0,0,1,1.7.74,3,3,0,0,1,.66,2,3.92,3.92,0,0,1-.29,1.67,2.17,2.17,0,0,1-.85.94,2.31,2.31,0,0,1-1.22.34,2.17,2.17,0,0,1-1.71-.74A3.12,3.12,0,0,1,106.28,34.87Zm.88,0a2.49,2.49,0,0,0,.42,1.58,1.33,1.33,0,0,0,2.12,0,2.55,2.55,0,0,0,.42-1.61,2.41,2.41,0,0,0-.42-1.54,1.33,1.33,0,0,0-2.12,0A2.48,2.48,0,0,0,107.15,34.87Z"/><path d="M116.23,37.62v-.69a1.54,1.54,0,0,1-1.41.82,1.86,1.86,0,0,1-1.11-.36,2.34,2.34,0,0,1-.78-1,3.77,3.77,0,0,1-.28-1.49,4.22,4.22,0,0,1,.25-1.49,2.13,2.13,0,0,1,.75-1,1.89,1.89,0,0,1,1.12-.36,1.57,1.57,0,0,1,.81.21,1.75,1.75,0,0,1,.58.55V30H117v7.58Zm-2.7-2.74a2.54,2.54,0,0,0,.41,1.58,1.19,1.19,0,0,0,1,.52,1.17,1.17,0,0,0,1-.5,2.45,2.45,0,0,0,.39-1.52,2.75,2.75,0,0,0-.4-1.65,1.19,1.19,0,0,0-1-.53,1.15,1.15,0,0,0-.95.51A2.67,2.67,0,0,0,113.53,34.88Z"/><path d="M122.77,35.85l.88.12a2.37,2.37,0,0,1-.77,1.31,2.45,2.45,0,0,1-3.19-.28,3.06,3.06,0,0,1-.65-2.08,3.21,3.21,0,0,1,.65-2.15,2.13,2.13,0,0,1,1.7-.76,2.07,2.07,0,0,1,1.65.75,3.15,3.15,0,0,1,.64,2.11c0,.06,0,.14,0,.25h-3.75a2.22,2.22,0,0,0,.47,1.39,1.34,1.34,0,0,0,1.05.48,1.23,1.23,0,0,0,.8-.27A1.8,1.8,0,0,0,122.77,35.85Zm-2.8-1.5h2.81a2,2,0,0,0-.32-1,1.27,1.27,0,0,0-1.06-.54,1.3,1.3,0,0,0-1,.43A1.78,1.78,0,0,0,120,34.34Z"/><path d="M125.93,33.19V32.13h1v1.06Zm0,4.43V36.56h1v1.06Z"/><path d="M133.14,37.62V30h2.39a5.34,5.34,0,0,1,1.24.11,2.28,2.28,0,0,1,1,.54,3.1,3.1,0,0,1,.82,1.29,5.5,5.5,0,0,1,.27,1.8,5.75,5.75,0,0,1-.18,1.53,3.87,3.87,0,0,1-.47,1.1,2.62,2.62,0,0,1-.63.69,2.45,2.45,0,0,1-.83.38,4.34,4.34,0,0,1-1.12.13Zm.92-.89h1.48a3.32,3.32,0,0,0,1.08-.14,1.53,1.53,0,0,0,.62-.39,2.44,2.44,0,0,0,.51-1,5.07,5.07,0,0,0,.18-1.46,3.8,3.8,0,0,0-.36-1.83,1.86,1.86,0,0,0-.87-.86,3.31,3.31,0,0,0-1.19-.16h-1.46Z"/><path d="M145.2,31.89l-.85.07a1.84,1.84,0,0,0-.32-.8,1.09,1.09,0,0,0-.85-.4,1.11,1.11,0,0,0-.71.25,2.11,2.11,0,0,0-.63.94,5.3,5.3,0,0,0-.24,1.75,2.05,2.05,0,0,1,.75-.76,1.89,1.89,0,0,1,.93-.25,1.86,1.86,0,0,1,1.45.68,2.59,2.59,0,0,1,.6,1.77,3.14,3.14,0,0,1-.28,1.33,2.19,2.19,0,0,1-.78.94,2,2,0,0,1-1.12.33,2.11,2.11,0,0,1-1.74-.86,4.61,4.61,0,0,1-.67-2.82,5.41,5.41,0,0,1,.74-3.19,2.07,2.07,0,0,1,1.75-.87,1.86,1.86,0,0,1,1.34.5A2.2,2.2,0,0,1,145.2,31.89Zm-3.48,3.27a2.32,2.32,0,0,0,.19.92,1.49,1.49,0,0,0,.52.67,1.23,1.23,0,0,0,.71.23,1.17,1.17,0,0,0,.93-.48,2,2,0,0,0,.39-1.29,1.85,1.85,0,0,0-.38-1.24,1.22,1.22,0,0,0-1-.45,1.27,1.27,0,0,0-1,.45A1.72,1.72,0,0,0,141.71,35.16Z"/><path d="M147.24,35.34v-.94h2.62v.94Z"/><path d="M152.85,33.51a1.62,1.62,0,0,1-.79-.6,1.68,1.68,0,0,1-.26-.94,2,2,0,0,1,3.46-1.38,2,2,0,0,1,.55,1.4,1.65,1.65,0,0,1-.25.92,1.61,1.61,0,0,1-.77.6,1.88,1.88,0,0,1,1,.73,2.15,2.15,0,0,1,.33,1.21,2.28,2.28,0,0,1-.63,1.63,2.4,2.4,0,0,1-3.32,0,2.31,2.31,0,0,1-.63-1.66,2.13,2.13,0,0,1,.34-1.24A1.72,1.72,0,0,1,152.85,33.51Zm-.45,1.92a1.81,1.81,0,0,0,.17.77,1.29,1.29,0,0,0,.51.58,1.4,1.4,0,0,0,.73.2,1.32,1.32,0,0,0,1-.43,1.54,1.54,0,0,0,.4-1.09,1.56,1.56,0,0,0-.41-1.11,1.34,1.34,0,0,0-1-.44,1.29,1.29,0,0,0-1,.43A1.55,1.55,0,0,0,152.4,35.43Zm.28-3.5a1.24,1.24,0,0,0,.32.88,1.07,1.07,0,0,0,.82.34,1.05,1.05,0,0,0,.81-.34,1.17,1.17,0,0,0,.32-.83,1.22,1.22,0,0,0-.32-.86,1.12,1.12,0,0,0-1.62,0A1.15,1.15,0,0,0,152.68,31.93Z"/><path d="M77.93,14.34V3.13h1.39l5.39,8.8V3.13H86v11.2H84.62l-5.39-8.8v8.8Z"/><path d="M89.11,10.28a4.39,4.39,0,0,1,1.15-3.34A3.29,3.29,0,0,1,92.59,6a3.2,3.2,0,0,1,2.51,1.1,4.41,4.41,0,0,1,1,3,5.79,5.79,0,0,1-.43,2.46A3.21,3.21,0,0,1,94.39,14a3.42,3.42,0,0,1-1.8.5,3.2,3.2,0,0,1-2.53-1.09A4.62,4.62,0,0,1,89.11,10.28Zm1.3,0A3.68,3.68,0,0,0,91,12.61a2,2,0,0,0,3.13,0,3.77,3.77,0,0,0,.62-2.38A3.56,3.56,0,0,0,94.15,8a2,2,0,0,0-3.13,0A3.66,3.66,0,0,0,90.4,10.28Z"/><path d="M106.36,14.34l-2.72-11.2H105l1.56,7.34q.25,1.15.43,2.29.39-1.8.46-2.07l2-7.57h1.64l1.47,5.67a32.48,32.48,0,0,1,.8,4q.2-1.06.51-2.44l1.61-7.2h1.37L114,14.34h-1.31L110.55,5.8q-.27-1.07-.32-1.31-.16.77-.3,1.31l-2.18,8.54Z"/><path d="M124.24,13.33a4.65,4.65,0,0,1-1.35.92,3.61,3.61,0,0,1-1.39.27,2.56,2.56,0,0,1-1.88-.65A2.25,2.25,0,0,1,119,12.2a2.38,2.38,0,0,1,.25-1.09,2.19,2.19,0,0,1,.65-.79,3,3,0,0,1,.91-.45,8.36,8.36,0,0,1,1.12-.21,10.68,10.68,0,0,0,2.25-.47q0-.28,0-.36a1.6,1.6,0,0,0-.36-1.18,2,2,0,0,0-1.44-.47,2.09,2.09,0,0,0-1.31.34,2.13,2.13,0,0,0-.63,1.2l-1.23-.18a3.49,3.49,0,0,1,.55-1.39,2.43,2.43,0,0,1,1.11-.82A4.59,4.59,0,0,1,122.53,6a4.13,4.13,0,0,1,1.55.24,2,2,0,0,1,.88.62,2.26,2.26,0,0,1,.39.94,8.45,8.45,0,0,1,.06,1.27v1.83a21.22,21.22,0,0,0,.08,2.43,3.23,3.23,0,0,0,.32,1h-1.32A3.11,3.11,0,0,1,124.24,13.33Zm-.1-3.07a8.63,8.63,0,0,1-2.06.52,4.46,4.46,0,0,0-1.1.27,1.12,1.12,0,0,0-.5.45,1.25,1.25,0,0,0-.18.65,1.22,1.22,0,0,0,.38.92,1.55,1.55,0,0,0,1.12.37,2.43,2.43,0,0,0,1.3-.35,2.07,2.07,0,0,0,.83-1,3.6,3.6,0,0,0,.2-1.38Z"/><path d="M131.55,13.1l.18,1.22a4.32,4.32,0,0,1-1,.12,2,2,0,0,1-1.06-.24,1.29,1.29,0,0,1-.53-.62A5.33,5.33,0,0,1,129,12V7.29h-.92V6.22H129v-2l1.25-.83V6.22h1.27V7.29h-1.27V12a2.61,2.61,0,0,0,.07.76.56.56,0,0,0,.22.27.78.78,0,0,0,.43.1A3.78,3.78,0,0,0,131.55,13.1Z"/><path d="M139.31,11.72l1.3.18a3.51,3.51,0,0,1-1.14,1.93,3.62,3.62,0,0,1-4.72-.41,4.53,4.53,0,0,1-1-3.08,4.75,4.75,0,0,1,1-3.18A3.14,3.14,0,0,1,137.27,6a3.06,3.06,0,0,1,2.44,1.11,4.66,4.66,0,0,1,.95,3.12c0,.08,0,.2,0,.37H135.1a3.29,3.29,0,0,0,.69,2,2,2,0,0,0,1.56.71,1.82,1.82,0,0,0,1.18-.4A2.66,2.66,0,0,0,139.31,11.72ZM135.17,9.5h4.15A2.92,2.92,0,0,0,138.85,8a1.87,1.87,0,0,0-1.56-.79,1.92,1.92,0,0,0-1.46.63A2.62,2.62,0,0,0,135.17,9.5Z"/><path d="M143.62,14.34V6.22h1.13V7.45a3.33,3.33,0,0,1,.8-1.14,1.32,1.32,0,0,1,.81-.28,2.32,2.32,0,0,1,1.3.44l-.43,1.28a1.69,1.69,0,0,0-.92-.3,1.14,1.14,0,0,0-.74.27,1.48,1.48,0,0,0-.47.75,5.83,5.83,0,0,0-.21,1.6v4.25Z"/><path d="M37.44,51.94V44.78h1l3.93,5.62V44.78h.95v7.16h-1l-3.93-5.62v5.63Z"/><path d="M44.86,49.34a2.43,2.43,0,0,1,2.54-2.71,2.49,2.49,0,0,1,1.83.7,2.6,2.6,0,0,1,.71,1.94,3.3,3.3,0,0,1-.31,1.57,2.18,2.18,0,0,1-.91.89,2.76,2.76,0,0,1-1.31.32,2.5,2.5,0,0,1-1.84-.7A2.71,2.71,0,0,1,44.86,49.34Zm.94,0a2.14,2.14,0,0,0,.45,1.49,1.56,1.56,0,0,0,2.28,0A2.19,2.19,0,0,0,49,49.31a2.08,2.08,0,0,0-.46-1.46,1.56,1.56,0,0,0-2.28,0A2.13,2.13,0,0,0,45.8,49.34Z"/><path d="M55.55,51.94l-1.66-5.19h.95l.86,3L56,50.86l.28-1.07.86-3h.94l.81,3,.27,1,.31-1,.93-3h.89l-1.7,5.19h-1l-.86-3.11-.21-.88-1.1,4Z"/><path d="M66,51.3a3.44,3.44,0,0,1-1,.59,3,3,0,0,1-1,.17,2,2,0,0,1-1.37-.42,1.35,1.35,0,0,1-.48-1.07,1.37,1.37,0,0,1,.18-.7,1.46,1.46,0,0,1,.47-.51,2.28,2.28,0,0,1,.66-.29,6.9,6.9,0,0,1,.82-.13,8.73,8.73,0,0,0,1.64-.3c0-.12,0-.2,0-.23a.94.94,0,0,0-.26-.76,1.58,1.58,0,0,0-1-.3,1.68,1.68,0,0,0-1,.22,1.32,1.32,0,0,0-.46.77l-.9-.12a2.08,2.08,0,0,1,.4-.89,1.77,1.77,0,0,1,.81-.52,3.77,3.77,0,0,1,1.23-.18,3.4,3.4,0,0,1,1.13.16,1.49,1.49,0,0,1,.64.39,1.36,1.36,0,0,1,.29.6,4.73,4.73,0,0,1,0,.81v1.17a11.92,11.92,0,0,0,.06,1.55,1.9,1.9,0,0,0,.23.62h-1A1.8,1.8,0,0,1,66,51.3Zm-.08-2a7,7,0,0,1-1.5.33,3.63,3.63,0,0,0-.8.18.79.79,0,0,0-.36.29.73.73,0,0,0-.13.42.74.74,0,0,0,.28.59,1.23,1.23,0,0,0,.81.23,2,2,0,0,0,.94-.22,1.4,1.4,0,0,0,.61-.61,2,2,0,0,0,.15-.88Z"/><path d="M70.55,51.15l.13.78A3.55,3.55,0,0,1,70,52a1.63,1.63,0,0,1-.78-.15.86.86,0,0,1-.39-.4,3,3,0,0,1-.11-1v-3H68v-.68h.67V45.47l.91-.53v1.81h.92v.68h-.92v3a1.46,1.46,0,0,0,0,.48.37.37,0,0,0,.16.17.63.63,0,0,0,.31.06Z"/><path d="M75.47,50.27l.95.11a2.21,2.21,0,0,1-.83,1.24,2.58,2.58,0,0,1-1.55.44,2.54,2.54,0,0,1-1.89-.7,2.66,2.66,0,0,1-.7-2,2.79,2.79,0,0,1,.7-2A2.44,2.44,0,0,1,74,46.63a2.37,2.37,0,0,1,1.78.71,2.74,2.74,0,0,1,.69,2c0,.05,0,.13,0,.23h-4a2,2,0,0,0,.51,1.31,1.54,1.54,0,0,0,1.13.45,1.45,1.45,0,0,0,.86-.25A1.68,1.68,0,0,0,75.47,50.27Zm-3-1.42h3a1.71,1.71,0,0,0-.35-1A1.43,1.43,0,0,0,74,47.36a1.5,1.5,0,0,0-1.06.41A1.57,1.57,0,0,0,72.46,48.84Z"/><path d="M77.88,51.94V46.75h.83v.79a2.16,2.16,0,0,1,.58-.73,1.05,1.05,0,0,1,.59-.18,1.85,1.85,0,0,1,.94.28l-.32.82a1.36,1.36,0,0,0-.67-.19.9.9,0,0,0-.54.17.94.94,0,0,0-.34.48,3.27,3.27,0,0,0-.15,1v2.71Z"/><path d="M88.42,51.94v-.65a1.71,1.71,0,0,1-1.52.77,2.19,2.19,0,0,1-1.19-.34,2.28,2.28,0,0,1-.84-1,3.18,3.18,0,0,1-.3-1.41,3.55,3.55,0,0,1,.27-1.41,2.06,2.06,0,0,1,.81-1,2.24,2.24,0,0,1,1.21-.34,1.88,1.88,0,0,1,.87.2,1.81,1.81,0,0,1,.62.52V44.78h.91v7.16Zm-2.91-2.59A2.18,2.18,0,0,0,86,50.84a1.35,1.35,0,0,0,1,.49,1.32,1.32,0,0,0,1-.47,2.11,2.11,0,0,0,.42-1.44A2.36,2.36,0,0,0,88,47.86a1.34,1.34,0,0,0-1.06-.5,1.3,1.3,0,0,0-1,.48A2.29,2.29,0,0,0,85.52,49.35Z"/><path d="M94.74,50.27l.95.11a2.21,2.21,0,0,1-.83,1.24,2.58,2.58,0,0,1-1.55.44,2.54,2.54,0,0,1-1.89-.7,2.66,2.66,0,0,1-.7-2,2.79,2.79,0,0,1,.7-2,2.44,2.44,0,0,1,1.83-.72,2.37,2.37,0,0,1,1.78.71,2.74,2.74,0,0,1,.69,2c0,.05,0,.13,0,.23h-4a2,2,0,0,0,.51,1.31,1.54,1.54,0,0,0,1.13.45,1.45,1.45,0,0,0,.86-.25A1.68,1.68,0,0,0,94.74,50.27Zm-3-1.42h3a1.71,1.71,0,0,0-.35-1,1.43,1.43,0,0,0-1.14-.51,1.5,1.5,0,0,0-1.06.41A1.57,1.57,0,0,0,91.73,48.84Z"/><path d="M99.17,51.15l.13.78a3.55,3.55,0,0,1-.69.08,1.63,1.63,0,0,1-.78-.15.86.86,0,0,1-.39-.4,3,3,0,0,1-.11-1v-3h-.67v-.68h.67V45.47l.91-.53v1.81h.92v.68h-.92v3a1.46,1.46,0,0,0,0,.48.37.37,0,0,0,.16.17.63.63,0,0,0,.31.06Z"/><path d="M104.09,50.27l.95.11a2.21,2.21,0,0,1-.83,1.24,2.58,2.58,0,0,1-1.55.44,2.54,2.54,0,0,1-1.89-.7,2.66,2.66,0,0,1-.7-2,2.79,2.79,0,0,1,.7-2,2.44,2.44,0,0,1,1.83-.72,2.37,2.37,0,0,1,1.78.71,2.74,2.74,0,0,1,.69,2c0,.05,0,.13,0,.23h-4a2,2,0,0,0,.51,1.31,1.54,1.54,0,0,0,1.13.45,1.45,1.45,0,0,0,.86-.25A1.68,1.68,0,0,0,104.09,50.27Zm-3-1.42h3a1.71,1.71,0,0,0-.35-1,1.43,1.43,0,0,0-1.14-.51,1.5,1.5,0,0,0-1.06.41A1.57,1.57,0,0,0,101.08,48.84Z"/><path d="M110,50l.9.11a2.21,2.21,0,0,1-.76,1.4,2.27,2.27,0,0,1-1.5.51,2.38,2.38,0,0,1-1.79-.7,2.74,2.74,0,0,1-.68-2,3.47,3.47,0,0,1,.29-1.47,2,2,0,0,1,.89-.94,2.72,2.72,0,0,1,1.29-.31,2.32,2.32,0,0,1,1.45.43,1.94,1.94,0,0,1,.72,1.21l-.89.13a1.41,1.41,0,0,0-.45-.79,1.2,1.2,0,0,0-.78-.26,1.46,1.46,0,0,0-1.13.48,2.19,2.19,0,0,0-.43,1.51,2.26,2.26,0,0,0,.42,1.52,1.39,1.39,0,0,0,1.09.47,1.32,1.32,0,0,0,.9-.32A1.55,1.55,0,0,0,110,50Z"/><path d="M114.06,51.15l.13.78a3.55,3.55,0,0,1-.69.08,1.63,1.63,0,0,1-.78-.15.86.86,0,0,1-.39-.4,3,3,0,0,1-.11-1v-3h-.67v-.68h.67V45.47l.91-.53v1.81h.92v.68h-.92v3a1.46,1.46,0,0,0,0,.48.37.37,0,0,0,.16.17.63.63,0,0,0,.31.06Z"/><path d="M119,50.27l.95.11a2.21,2.21,0,0,1-.83,1.24,2.58,2.58,0,0,1-1.55.44,2.54,2.54,0,0,1-1.89-.7,2.66,2.66,0,0,1-.7-2,2.79,2.79,0,0,1,.7-2,2.44,2.44,0,0,1,1.83-.72,2.37,2.37,0,0,1,1.78.71,2.74,2.74,0,0,1,.69,2c0,.05,0,.13,0,.23h-4a2,2,0,0,0,.51,1.31,1.54,1.54,0,0,0,1.13.45,1.45,1.45,0,0,0,.86-.25A1.68,1.68,0,0,0,119,50.27Zm-3-1.42h3a1.71,1.71,0,0,0-.35-1,1.43,1.43,0,0,0-1.14-.51,1.5,1.5,0,0,0-1.06.41A1.57,1.57,0,0,0,116,48.84Z"/><path d="M124.92,51.94v-.65a1.71,1.71,0,0,1-1.52.77,2.19,2.19,0,0,1-1.19-.34,2.28,2.28,0,0,1-.84-1,3.18,3.18,0,0,1-.3-1.41,3.55,3.55,0,0,1,.27-1.41,2.06,2.06,0,0,1,.81-1,2.24,2.24,0,0,1,1.21-.34,1.88,1.88,0,0,1,.87.2,1.81,1.81,0,0,1,.62.52V44.78h.91v7.16ZM122,49.35a2.18,2.18,0,0,0,.44,1.49,1.35,1.35,0,0,0,1,.49,1.32,1.32,0,0,0,1-.47,2.11,2.11,0,0,0,.42-1.44,2.36,2.36,0,0,0-.43-1.56,1.34,1.34,0,0,0-1.06-.5,1.3,1.3,0,0,0-1,.48A2.29,2.29,0,0,0,122,49.35Z"/><path d="M131.59,51.94h-.85V44.78h.92v2.55a1.85,1.85,0,0,1,1.49-.7,2.37,2.37,0,0,1,.95.19,1.92,1.92,0,0,1,.74.54,2.57,2.57,0,0,1,.45.84,3.32,3.32,0,0,1,.16,1.05,2.88,2.88,0,0,1-.69,2.06,2.2,2.2,0,0,1-1.65.73,1.75,1.75,0,0,1-1.51-.77Zm0-2.63a2.59,2.59,0,0,0,.27,1.35,1.35,1.35,0,0,0,2.22.18,2.2,2.2,0,0,0,.44-1.49,2.24,2.24,0,0,0-.42-1.5,1.3,1.3,0,0,0-1-.48,1.34,1.34,0,0,0-1,.5A2.13,2.13,0,0,0,131.59,49.3Z"/><path d="M136.84,53.93l-.1-.83a2.13,2.13,0,0,0,.53.08,1.05,1.05,0,0,0,.49-.1.82.82,0,0,0,.3-.27,4.18,4.18,0,0,0,.28-.65l.08-.21-2.06-5.2h1l1.13,3q.22.57.39,1.2a11.4,11.4,0,0,1,.38-1.18l1.16-3h.92L139.26,52a9.92,9.92,0,0,1-.52,1.18,1.76,1.76,0,0,1-.56.64,1.37,1.37,0,0,1-.76.2A1.91,1.91,0,0,1,136.84,53.93Z"/><path d="M145.75,51.94V44.78h2.82a7.14,7.14,0,0,1,1.14.07,2.31,2.31,0,0,1,.92.33,1.77,1.77,0,0,1,.6.69,2.11,2.11,0,0,1,.23,1,2.15,2.15,0,0,1-.61,1.55,3,3,0,0,1-2.2.63h-1.92v2.91Zm1-3.75h1.94a2.12,2.12,0,0,0,1.36-.34,1.19,1.19,0,0,0,.4-1,1.26,1.26,0,0,0-.24-.77,1.11,1.11,0,0,0-.63-.42,4.41,4.41,0,0,0-.92-.06h-1.92Z"/><path d="M152.58,49.34a2.43,2.43,0,0,1,2.54-2.71,2.49,2.49,0,0,1,1.83.7,2.6,2.6,0,0,1,.71,1.94,3.31,3.31,0,0,1-.31,1.57,2.17,2.17,0,0,1-.91.89,2.76,2.76,0,0,1-1.31.32,2.5,2.5,0,0,1-1.84-.7A2.72,2.72,0,0,1,152.58,49.34Zm.94,0a2.14,2.14,0,0,0,.45,1.49,1.56,1.56,0,0,0,2.28,0,2.19,2.19,0,0,0,.45-1.52,2.08,2.08,0,0,0-.46-1.46,1.56,1.56,0,0,0-2.28,0A2.13,2.13,0,0,0,153.53,49.34Z"/><path d="M160.06,51.94l-1.66-5.19h1l.86,3,.32,1.11.28-1.07.86-3h.94l.81,3,.27,1,.31-1,.93-3h.89l-1.7,5.19h-1l-.86-3.11-.21-.88-1.1,4Z"/><path d="M170.63,50.27l.95.11a2.21,2.21,0,0,1-.83,1.24,2.58,2.58,0,0,1-1.55.44,2.54,2.54,0,0,1-1.89-.7,2.66,2.66,0,0,1-.7-2,2.79,2.79,0,0,1,.71-2,2.44,2.44,0,0,1,1.83-.72,2.37,2.37,0,0,1,1.78.71,2.74,2.74,0,0,1,.69,2q0,.08,0,.23h-4a1.94,1.94,0,0,0,.5,1.31,1.54,1.54,0,0,0,1.13.45,1.45,1.45,0,0,0,.86-.25A1.69,1.69,0,0,0,170.63,50.27Zm-3-1.42h3a1.71,1.71,0,0,0-.35-1,1.44,1.44,0,0,0-1.14-.51,1.5,1.5,0,0,0-1.06.41A1.57,1.57,0,0,0,167.61,48.84Z"/><path d="M173,51.94V46.75h.83v.79a2.16,2.16,0,0,1,.58-.73,1.05,1.05,0,0,1,.59-.18,1.85,1.85,0,0,1,.94.28l-.32.82a1.36,1.36,0,0,0-.67-.19.9.9,0,0,0-.54.17.94.94,0,0,0-.34.48,3.3,3.3,0,0,0-.15,1v2.71Z"/><path d="M180.56,50.27l.95.11a2.21,2.21,0,0,1-.83,1.24,2.58,2.58,0,0,1-1.55.44,2.54,2.54,0,0,1-1.89-.7,2.66,2.66,0,0,1-.7-2,2.79,2.79,0,0,1,.71-2,2.44,2.44,0,0,1,1.83-.72,2.37,2.37,0,0,1,1.78.71,2.74,2.74,0,0,1,.69,2q0,.08,0,.23h-4a1.94,1.94,0,0,0,.5,1.31,1.54,1.54,0,0,0,1.13.45,1.45,1.45,0,0,0,.86-.25A1.69,1.69,0,0,0,180.56,50.27Zm-3-1.42h3a1.71,1.71,0,0,0-.35-1,1.44,1.44,0,0,0-1.14-.51,1.5,1.5,0,0,0-1.06.41A1.57,1.57,0,0,0,177.54,48.84Z"/><path d="M186.49,51.94v-.65a1.71,1.71,0,0,1-1.52.77,2.2,2.2,0,0,1-1.19-.34,2.28,2.28,0,0,1-.84-1,3.18,3.18,0,0,1-.3-1.41,3.54,3.54,0,0,1,.27-1.41,2.07,2.07,0,0,1,.81-1,2.25,2.25,0,0,1,1.21-.34,1.87,1.87,0,0,1,.87.2,1.8,1.8,0,0,1,.62.52V44.78h.91v7.16Zm-2.91-2.59a2.18,2.18,0,0,0,.44,1.49,1.35,1.35,0,0,0,1,.49,1.32,1.32,0,0,0,1-.47,2.1,2.1,0,0,0,.42-1.44,2.37,2.37,0,0,0-.43-1.56,1.34,1.34,0,0,0-1.06-.5,1.3,1.3,0,0,0-1,.48A2.28,2.28,0,0,0,183.59,49.35Z"/><path d="M36.63,62.94l2.87-7.16h1.07l3.06,7.16H42.51l-.87-2.17H38.5l-.82,2.17ZM38.79,60h2.54l-.78-2q-.36-.9-.53-1.48a8.79,8.79,0,0,1-.4,1.37Z"/><path d="M44.62,62.94V57.75h.83v.74a2,2,0,0,1,1.73-.85,2.35,2.35,0,0,1,.9.17,1.41,1.41,0,0,1,.62.44,1.66,1.66,0,0,1,.29.65,4.8,4.8,0,0,1,.05.85v3.19h-.92V59.78A2.28,2.28,0,0,0,48,59a.86.86,0,0,0-.38-.42,1.25,1.25,0,0,0-.64-.16,1.53,1.53,0,0,0-1,.36,1.71,1.71,0,0,0-.43,1.35v2.83Z"/><path d="M50.41,60.34A2.43,2.43,0,0,1,53,57.63a2.49,2.49,0,0,1,1.83.7,2.6,2.6,0,0,1,.71,1.94,3.3,3.3,0,0,1-.31,1.57,2.18,2.18,0,0,1-.91.89,2.76,2.76,0,0,1-1.31.32,2.5,2.5,0,0,1-1.84-.7A2.71,2.71,0,0,1,50.41,60.34Zm.94,0a2.14,2.14,0,0,0,.45,1.49,1.56,1.56,0,0,0,2.28,0,2.19,2.19,0,0,0,.45-1.52,2.08,2.08,0,0,0-.46-1.46,1.56,1.56,0,0,0-2.28,0A2.13,2.13,0,0,0,51.35,60.34Z"/><path d="M60.4,62.94v-.65a1.71,1.71,0,0,1-1.52.77,2.19,2.19,0,0,1-1.19-.34,2.28,2.28,0,0,1-.84-1,3.18,3.18,0,0,1-.3-1.41,3.55,3.55,0,0,1,.27-1.41,2.06,2.06,0,0,1,.81-1,2.24,2.24,0,0,1,1.21-.34,1.88,1.88,0,0,1,.87.2,1.81,1.81,0,0,1,.62.52V55.78h.91v7.16Zm-2.91-2.59a2.18,2.18,0,0,0,.44,1.49,1.35,1.35,0,0,0,1,.49,1.32,1.32,0,0,0,1-.47,2.11,2.11,0,0,0,.42-1.44A2.36,2.36,0,0,0,60,58.86a1.34,1.34,0,0,0-1.06-.5,1.3,1.3,0,0,0-1,.48A2.29,2.29,0,0,0,57.49,60.35Z"/><path d="M66.72,61.27l.95.11a2.21,2.21,0,0,1-.83,1.24,2.58,2.58,0,0,1-1.55.44,2.54,2.54,0,0,1-1.89-.7,2.66,2.66,0,0,1-.7-2,2.79,2.79,0,0,1,.7-2,2.44,2.44,0,0,1,1.83-.72,2.37,2.37,0,0,1,1.78.71,2.74,2.74,0,0,1,.69,2c0,.05,0,.13,0,.23h-4a2,2,0,0,0,.51,1.31,1.54,1.54,0,0,0,1.13.45,1.45,1.45,0,0,0,.86-.25A1.68,1.68,0,0,0,66.72,61.27Zm-3-1.42h3a1.71,1.71,0,0,0-.35-1,1.43,1.43,0,0,0-1.14-.51,1.5,1.5,0,0,0-1.06.41A1.57,1.57,0,0,0,63.7,59.84Z"/><path d="M69.4,62.94v-1h1v1Z"/><path d="M39.36,81.94V75.62H36.89v-.84h5.93v.84H40.35v6.31Z"/><path d="M44,81.94V74.78H45v2.57a2.09,2.09,0,0,1,1.62-.71,2.28,2.28,0,0,1,1,.23,1.37,1.37,0,0,1,.64.63,2.77,2.77,0,0,1,.19,1.16v3.29h-.92V78.65a1.32,1.32,0,0,0-.3-1,1.14,1.14,0,0,0-.85-.3,1.55,1.55,0,0,0-.77.2,1.17,1.17,0,0,0-.51.55,2.43,2.43,0,0,0-.15,1v2.84Z"/><path d="M53.88,80.27l.95.11A2.21,2.21,0,0,1,54,81.61a2.58,2.58,0,0,1-1.55.44,2.54,2.54,0,0,1-1.89-.7,2.66,2.66,0,0,1-.7-2,2.79,2.79,0,0,1,.7-2,2.44,2.44,0,0,1,1.83-.72,2.37,2.37,0,0,1,1.78.71,2.73,2.73,0,0,1,.69,2c0,.05,0,.13,0,.23h-4a2,2,0,0,0,.51,1.31,1.54,1.54,0,0,0,1.13.45,1.45,1.45,0,0,0,.86-.25A1.68,1.68,0,0,0,53.88,80.27Zm-3-1.42h3a1.7,1.7,0,0,0-.35-1,1.43,1.43,0,0,0-1.14-.51,1.49,1.49,0,0,0-1.06.41A1.57,1.57,0,0,0,50.86,78.84Z"/><path d="M63.05,80l.9.11a2.21,2.21,0,0,1-.76,1.4,2.27,2.27,0,0,1-1.5.51,2.39,2.39,0,0,1-1.79-.7,2.75,2.75,0,0,1-.68-2,3.47,3.47,0,0,1,.29-1.47,2,2,0,0,1,.89-.95,2.73,2.73,0,0,1,1.29-.31,2.32,2.32,0,0,1,1.45.43,1.94,1.94,0,0,1,.72,1.21L63,78.4a1.4,1.4,0,0,0-.45-.79,1.2,1.2,0,0,0-.78-.26,1.45,1.45,0,0,0-1.13.48,2.19,2.19,0,0,0-.43,1.51,2.26,2.26,0,0,0,.42,1.52,1.39,1.39,0,0,0,1.09.47,1.32,1.32,0,0,0,.9-.32A1.55,1.55,0,0,0,63.05,80Z"/><path d="M64.71,79.34a2.43,2.43,0,0,1,2.54-2.71,2.49,2.49,0,0,1,1.83.7,2.6,2.6,0,0,1,.71,1.94,3.3,3.3,0,0,1-.31,1.57,2.18,2.18,0,0,1-.91.89,2.75,2.75,0,0,1-1.31.32,2.49,2.49,0,0,1-1.84-.7A2.71,2.71,0,0,1,64.71,79.34Zm.94,0a2.14,2.14,0,0,0,.45,1.49,1.56,1.56,0,0,0,2.28,0,2.19,2.19,0,0,0,.45-1.52,2.08,2.08,0,0,0-.46-1.46,1.56,1.56,0,0,0-2.28,0A2.13,2.13,0,0,0,65.66,79.34Z"/><path d="M71.18,81.94V76.75H72v.74a2,2,0,0,1,1.73-.85,2.37,2.37,0,0,1,.9.17,1.42,1.42,0,0,1,.62.44,1.66,1.66,0,0,1,.29.65,4.8,4.8,0,0,1,.05.85v3.19h-.92V78.78a2.27,2.27,0,0,0-.11-.8.86.86,0,0,0-.38-.43,1.26,1.26,0,0,0-.64-.16,1.53,1.53,0,0,0-1,.36,1.71,1.71,0,0,0-.43,1.35v2.83Z"/><path d="M79.32,81.15l.13.78a3.58,3.58,0,0,1-.69.08,1.64,1.64,0,0,1-.78-.15.86.86,0,0,1-.39-.4,3,3,0,0,1-.11-1v-3h-.67v-.68h.67V75.47l.91-.53v1.81h.92v.68H78.4v3a1.45,1.45,0,0,0,0,.48.37.37,0,0,0,.16.17.64.64,0,0,0,.31.06Z"/><path d="M80.52,81.94V76.75h.83v.79a2.16,2.16,0,0,1,.58-.73,1.05,1.05,0,0,1,.59-.18,1.85,1.85,0,0,1,.94.28l-.32.82a1.36,1.36,0,0,0-.67-.19.9.9,0,0,0-.54.17.93.93,0,0,0-.34.48,3.27,3.27,0,0,0-.15,1v2.71Z"/><path d="M84,79.34a2.43,2.43,0,0,1,2.54-2.71,2.49,2.49,0,0,1,1.83.7,2.6,2.6,0,0,1,.71,1.94,3.3,3.3,0,0,1-.31,1.57,2.18,2.18,0,0,1-.91.89,2.75,2.75,0,0,1-1.31.32,2.49,2.49,0,0,1-1.84-.7A2.71,2.71,0,0,1,84,79.34Zm.94,0a2.14,2.14,0,0,0,.45,1.49,1.56,1.56,0,0,0,2.28,0,2.19,2.19,0,0,0,.45-1.52,2.08,2.08,0,0,0-.46-1.46,1.56,1.56,0,0,0-2.28,0A2.13,2.13,0,0,0,84.93,79.34Z"/><path d="M90.44,81.94V74.78h.92v7.16Z"/><path d="M96.32,75.79v-1h.92v1Zm0,6.15V76.75h.92v5.19Z"/><path d="M98.95,81.94V76.75h.83v.74a2,2,0,0,1,1.73-.85,2.37,2.37,0,0,1,.9.17,1.42,1.42,0,0,1,.62.44,1.66,1.66,0,0,1,.29.65,4.8,4.8,0,0,1,.05.85v3.19h-.92V78.78a2.27,2.27,0,0,0-.11-.8.86.86,0,0,0-.38-.43,1.26,1.26,0,0,0-.64-.16,1.53,1.53,0,0,0-1,.36,1.71,1.71,0,0,0-.43,1.35v2.83Z"/><path d="M108.6,81.94v-.65a1.71,1.71,0,0,1-1.52.77,2.2,2.2,0,0,1-1.19-.34,2.27,2.27,0,0,1-.84-1,3.17,3.17,0,0,1-.3-1.41,3.54,3.54,0,0,1,.27-1.41,2.06,2.06,0,0,1,.81-1,2.24,2.24,0,0,1,1.21-.34,1.89,1.89,0,0,1,.87.2,1.81,1.81,0,0,1,.62.52V74.78h.91v7.16Zm-2.91-2.59a2.18,2.18,0,0,0,.44,1.49,1.34,1.34,0,0,0,1,.49,1.32,1.32,0,0,0,1-.47,2.11,2.11,0,0,0,.42-1.44,2.36,2.36,0,0,0-.43-1.56,1.34,1.34,0,0,0-1.06-.5,1.29,1.29,0,0,0-1,.48A2.29,2.29,0,0,0,105.69,79.35Z"/><path d="M111.21,75.79v-1h.92v1Zm0,6.15V76.75h.92v5.19Z"/><path d="M117.38,80l.9.11a2.21,2.21,0,0,1-.76,1.4,2.27,2.27,0,0,1-1.5.51,2.39,2.39,0,0,1-1.79-.7,2.75,2.75,0,0,1-.68-2,3.47,3.47,0,0,1,.29-1.47,2,2,0,0,1,.89-.95,2.73,2.73,0,0,1,1.29-.31,2.32,2.32,0,0,1,1.45.43,1.94,1.94,0,0,1,.72,1.21l-.89.13a1.4,1.4,0,0,0-.45-.79,1.2,1.2,0,0,0-.78-.26,1.45,1.45,0,0,0-1.13.48,2.19,2.19,0,0,0-.43,1.51,2.26,2.26,0,0,0,.42,1.52,1.39,1.39,0,0,0,1.09.47,1.32,1.32,0,0,0,.9-.32A1.55,1.55,0,0,0,117.38,80Z"/><path d="M122.92,81.3a3.46,3.46,0,0,1-1,.59,3,3,0,0,1-1,.17,2,2,0,0,1-1.37-.42,1.35,1.35,0,0,1-.48-1.07,1.36,1.36,0,0,1,.18-.7,1.45,1.45,0,0,1,.47-.51,2.29,2.29,0,0,1,.66-.29,6.7,6.7,0,0,1,.82-.13,8.77,8.77,0,0,0,1.64-.3c0-.12,0-.2,0-.23a.94.94,0,0,0-.26-.76,1.59,1.59,0,0,0-1-.3,1.68,1.68,0,0,0-1,.22,1.31,1.31,0,0,0-.46.77l-.9-.12a2.09,2.09,0,0,1,.4-.89,1.77,1.77,0,0,1,.81-.52,3.74,3.74,0,0,1,1.23-.18,3.38,3.38,0,0,1,1.13.16,1.5,1.5,0,0,1,.64.39,1.36,1.36,0,0,1,.29.6,4.72,4.72,0,0,1,0,.81v1.17a11.9,11.9,0,0,0,.06,1.55,1.9,1.9,0,0,0,.23.62h-1A1.81,1.81,0,0,1,122.92,81.3Zm-.08-2a7,7,0,0,1-1.5.33,3.57,3.57,0,0,0-.8.18.79.79,0,0,0-.36.29.72.72,0,0,0-.13.42.74.74,0,0,0,.28.59,1.23,1.23,0,0,0,.81.23,2,2,0,0,0,.94-.22,1.4,1.4,0,0,0,.61-.61,2,2,0,0,0,.15-.88Z"/><path d="M127.52,81.15l.13.78A3.58,3.58,0,0,1,127,82a1.64,1.64,0,0,1-.78-.15.86.86,0,0,1-.39-.4,3,3,0,0,1-.11-1v-3H125v-.68h.67V75.47l.91-.53v1.81h.92v.68h-.92v3a1.45,1.45,0,0,0,0,.48.37.37,0,0,0,.16.17.64.64,0,0,0,.31.06Z"/><path d="M132.45,80.27l.95.11a2.21,2.21,0,0,1-.83,1.24,2.58,2.58,0,0,1-1.55.44,2.54,2.54,0,0,1-1.89-.7,2.66,2.66,0,0,1-.7-2,2.79,2.79,0,0,1,.7-2,2.44,2.44,0,0,1,1.83-.72,2.37,2.37,0,0,1,1.78.71,2.74,2.74,0,0,1,.69,2q0,.08,0,.23h-4a2,2,0,0,0,.51,1.31,1.54,1.54,0,0,0,1.13.45,1.45,1.45,0,0,0,.86-.25A1.68,1.68,0,0,0,132.45,80.27Zm-3-1.42h3a1.71,1.71,0,0,0-.35-1,1.44,1.44,0,0,0-1.14-.51,1.49,1.49,0,0,0-1.06.41A1.57,1.57,0,0,0,129.43,78.84Z"/><path d="M134.49,80.39l.91-.14a1.2,1.2,0,0,0,.43.8,1.53,1.53,0,0,0,1,.28,1.49,1.49,0,0,0,.94-.25.73.73,0,0,0,.31-.58.53.53,0,0,0-.27-.47,4.08,4.08,0,0,0-.94-.3,9,9,0,0,1-1.4-.42,1.34,1.34,0,0,1-.59-.49,1.26,1.26,0,0,1-.2-.7,1.29,1.29,0,0,1,.17-.64,1.45,1.45,0,0,1,.45-.49,1.93,1.93,0,0,1,.58-.26,2.89,2.89,0,0,1,.79-.11,3.27,3.27,0,0,1,1.12.18,1.51,1.51,0,0,1,.71.48,1.81,1.81,0,0,1,.32.8l-.9.12a.93.93,0,0,0-.35-.62,1.34,1.34,0,0,0-.83-.22,1.55,1.55,0,0,0-.9.2.58.58,0,0,0-.27.47.47.47,0,0,0,.11.31.81.81,0,0,0,.35.23l.81.22a11.49,11.49,0,0,1,1.36.41,1.37,1.37,0,0,1,.61.46,1.25,1.25,0,0,1,.22.75,1.43,1.43,0,0,1-.27.83,1.72,1.72,0,0,1-.77.6,2.91,2.91,0,0,1-1.14.21,2.63,2.63,0,0,1-1.61-.42A1.94,1.94,0,0,1,134.49,80.39Z"/><path d="M147.16,81.3a3.48,3.48,0,0,1-1,.59,3,3,0,0,1-1,.17,2,2,0,0,1-1.37-.42,1.35,1.35,0,0,1-.48-1.07,1.37,1.37,0,0,1,.18-.7,1.45,1.45,0,0,1,.48-.51,2.29,2.29,0,0,1,.66-.29,6.67,6.67,0,0,1,.82-.13,8.77,8.77,0,0,0,1.64-.3c0-.12,0-.2,0-.23a.94.94,0,0,0-.26-.76,1.59,1.59,0,0,0-1-.3,1.68,1.68,0,0,0-1,.22,1.31,1.31,0,0,0-.46.77l-.9-.12a2.09,2.09,0,0,1,.4-.89,1.77,1.77,0,0,1,.81-.52,3.75,3.75,0,0,1,1.23-.18,3.39,3.39,0,0,1,1.13.16,1.5,1.5,0,0,1,.64.39,1.35,1.35,0,0,1,.29.6,4.77,4.77,0,0,1,0,.81v1.17a11.9,11.9,0,0,0,.06,1.55,1.91,1.91,0,0,0,.23.62h-1A1.82,1.82,0,0,1,147.16,81.3Zm-.08-2a7,7,0,0,1-1.5.33,3.57,3.57,0,0,0-.8.18.79.79,0,0,0-.36.29.72.72,0,0,0-.13.42.74.74,0,0,0,.28.59,1.23,1.23,0,0,0,.81.23,2,2,0,0,0,.94-.22,1.41,1.41,0,0,0,.61-.61,2,2,0,0,0,.15-.88Z"/><path d="M153,83.92V76.75h.84v.67a2,2,0,0,1,.67-.59,1.92,1.92,0,0,1,.9-.2,2.22,2.22,0,0,1,1.22.34,2.11,2.11,0,0,1,.8,1,3.38,3.38,0,0,1,.27,1.36,3.33,3.33,0,0,1-.3,1.43,2.18,2.18,0,0,1-.87,1,2.3,2.3,0,0,1-1.2.34,1.79,1.79,0,0,1-.83-.19,1.87,1.87,0,0,1-.6-.47v2.52Zm.83-4.55a2.19,2.19,0,0,0,.42,1.48,1.32,1.32,0,0,0,1,.48,1.35,1.35,0,0,0,1-.5,2.28,2.28,0,0,0,.44-1.54,2.22,2.22,0,0,0-.43-1.48,1.3,1.3,0,0,0-1-.49,1.34,1.34,0,0,0-1,.52A2.28,2.28,0,0,0,153.8,79.37Z"/><path d="M159.09,81.94V76.75h.83v.79a2.16,2.16,0,0,1,.58-.73,1.05,1.05,0,0,1,.59-.18,1.85,1.85,0,0,1,.94.28l-.32.82a1.36,1.36,0,0,0-.67-.19.89.89,0,0,0-.54.17.94.94,0,0,0-.34.48,3.3,3.3,0,0,0-.15,1v2.71Z"/><path d="M162.55,79.34a2.43,2.43,0,0,1,2.54-2.71,2.49,2.49,0,0,1,1.83.7,2.6,2.6,0,0,1,.71,1.94,3.3,3.3,0,0,1-.31,1.57,2.17,2.17,0,0,1-.91.89,2.75,2.75,0,0,1-1.31.32,2.5,2.5,0,0,1-1.84-.7A2.72,2.72,0,0,1,162.55,79.34Zm.94,0a2.14,2.14,0,0,0,.45,1.49,1.56,1.56,0,0,0,2.28,0,2.19,2.19,0,0,0,.45-1.52,2.08,2.08,0,0,0-.46-1.46,1.56,1.56,0,0,0-2.28,0A2.13,2.13,0,0,0,163.5,79.34Z"/><path d="M169.87,81.94H169V74.78h.92v2.55a1.85,1.85,0,0,1,1.49-.7,2.36,2.36,0,0,1,.95.19,1.92,1.92,0,0,1,.74.54,2.57,2.57,0,0,1,.45.84,3.32,3.32,0,0,1,.16,1.05,2.88,2.88,0,0,1-.69,2.06,2.2,2.2,0,0,1-1.65.73,1.75,1.75,0,0,1-1.51-.77Zm0-2.63a2.59,2.59,0,0,0,.27,1.35,1.35,1.35,0,0,0,2.22.18,2.2,2.2,0,0,0,.44-1.49,2.24,2.24,0,0,0-.42-1.5,1.3,1.3,0,0,0-1-.48,1.34,1.34,0,0,0-1,.5A2.13,2.13,0,0,0,169.86,79.3Z"/><path d="M175.13,81.94V74.78h.92v7.16Z"/><path d="M181.5,80.27l.95.11a2.21,2.21,0,0,1-.83,1.24,2.58,2.58,0,0,1-1.55.44,2.54,2.54,0,0,1-1.89-.7,2.66,2.66,0,0,1-.7-2,2.79,2.79,0,0,1,.71-2,2.44,2.44,0,0,1,1.83-.72,2.37,2.37,0,0,1,1.78.71,2.74,2.74,0,0,1,.69,2q0,.08,0,.23h-4a1.94,1.94,0,0,0,.5,1.31,1.54,1.54,0,0,0,1.13.45,1.45,1.45,0,0,0,.86-.25A1.68,1.68,0,0,0,181.5,80.27Zm-3-1.42h3a1.71,1.71,0,0,0-.35-1,1.44,1.44,0,0,0-1.14-.51,1.49,1.49,0,0,0-1.06.41A1.57,1.57,0,0,0,178.49,78.84Z"/><path d="M183.92,81.94V76.75h.82v.73a1.89,1.89,0,0,1,.68-.61,2,2,0,0,1,1-.23,1.85,1.85,0,0,1,1,.24,1.3,1.3,0,0,1,.54.67,2,2,0,0,1,1.67-.91,1.69,1.69,0,0,1,1.24.43,1.77,1.77,0,0,1,.43,1.32v3.56h-.91V78.67a2.3,2.3,0,0,0-.09-.76.75.75,0,0,0-.32-.37,1,1,0,0,0-.55-.14,1.32,1.32,0,0,0-.95.36,1.56,1.56,0,0,0-.38,1.17v3h-.92V78.57a1.44,1.44,0,0,0-.22-.88.87.87,0,0,0-.74-.29,1.39,1.39,0,0,0-.72.2,1.12,1.12,0,0,0-.48.57,3.07,3.07,0,0,0-.15,1.08v2.69Z"/><path d="M38.34,92.94l-1.66-5.19h.95l.86,3,.32,1.11.28-1.07.86-3h.94l.81,3,.27,1,.31-1,.93-3h.89l-1.7,5.19h-1l-.86-3.11-.21-.88-1.1,4Z"/><path d="M45.2,86.79v-1h.92v1Zm0,6.15V87.75h.92v5.19Z"/><path d="M49.84,92.15l.13.78a3.58,3.58,0,0,1-.69.08,1.64,1.64,0,0,1-.78-.15.86.86,0,0,1-.39-.4,3,3,0,0,1-.11-1v-3h-.67v-.68H48V86.47l.91-.53v1.81h.92v.68h-.92v3a1.45,1.45,0,0,0,0,.48.37.37,0,0,0,.16.17.64.64,0,0,0,.31.06Z"/><path d="M51.06,92.94V85.78H52v2.57a2.09,2.09,0,0,1,1.62-.71,2.28,2.28,0,0,1,1,.23,1.37,1.37,0,0,1,.64.63,2.77,2.77,0,0,1,.19,1.16v3.29h-.92V89.65a1.32,1.32,0,0,0-.3-1,1.14,1.14,0,0,0-.85-.3,1.55,1.55,0,0,0-.77.2,1.17,1.17,0,0,0-.51.55,2.43,2.43,0,0,0-.15,1v2.84Z"/><path d="M62.41,92.15l.13.78a3.58,3.58,0,0,1-.69.08,1.64,1.64,0,0,1-.78-.15.86.86,0,0,1-.39-.4,3,3,0,0,1-.11-1v-3H59.9v-.68h.67V86.47l.91-.53v1.81h.92v.68h-.92v3a1.45,1.45,0,0,0,0,.48.37.37,0,0,0,.16.17.64.64,0,0,0,.31.06Z"/><path d="M63.62,92.94V85.78h.92v2.57a2.09,2.09,0,0,1,1.62-.71,2.28,2.28,0,0,1,1,.23,1.37,1.37,0,0,1,.64.63A2.77,2.77,0,0,1,68,89.65v3.29h-.92V89.65a1.32,1.32,0,0,0-.3-1,1.14,1.14,0,0,0-.85-.3,1.55,1.55,0,0,0-.77.2,1.17,1.17,0,0,0-.51.55,2.43,2.43,0,0,0-.15,1v2.84Z"/><path d="M73.46,91.27l.95.11a2.21,2.21,0,0,1-.83,1.24,2.58,2.58,0,0,1-1.55.44,2.54,2.54,0,0,1-1.89-.7,2.66,2.66,0,0,1-.7-2,2.79,2.79,0,0,1,.7-2A2.44,2.44,0,0,1,72,87.63a2.37,2.37,0,0,1,1.78.71,2.73,2.73,0,0,1,.69,2c0,.05,0,.13,0,.23h-4a2,2,0,0,0,.51,1.31,1.54,1.54,0,0,0,1.13.45,1.45,1.45,0,0,0,.86-.25A1.68,1.68,0,0,0,73.46,91.27Zm-3-1.42h3a1.7,1.7,0,0,0-.35-1A1.43,1.43,0,0,0,72,88.35a1.49,1.49,0,0,0-1.06.41A1.57,1.57,0,0,0,70.45,89.84Z"/><path d="M82.64,92.3a3.46,3.46,0,0,1-1,.59,3,3,0,0,1-1,.17,2,2,0,0,1-1.37-.42,1.35,1.35,0,0,1-.48-1.07,1.36,1.36,0,0,1,.18-.7,1.45,1.45,0,0,1,.47-.51,2.29,2.29,0,0,1,.66-.29,6.7,6.7,0,0,1,.82-.13,8.77,8.77,0,0,0,1.64-.3c0-.12,0-.2,0-.23a.94.94,0,0,0-.26-.76,1.59,1.59,0,0,0-1-.3,1.68,1.68,0,0,0-1,.22,1.31,1.31,0,0,0-.46.77l-.9-.12a2.09,2.09,0,0,1,.4-.89,1.77,1.77,0,0,1,.81-.52,3.74,3.74,0,0,1,1.23-.18,3.38,3.38,0,0,1,1.13.16,1.5,1.5,0,0,1,.64.39,1.36,1.36,0,0,1,.29.6,4.72,4.72,0,0,1,0,.81v1.17a11.9,11.9,0,0,0,.06,1.55,1.9,1.9,0,0,0,.23.62h-1A1.81,1.81,0,0,1,82.64,92.3Zm-.08-2a7,7,0,0,1-1.5.33,3.57,3.57,0,0,0-.8.18.79.79,0,0,0-.36.29.72.72,0,0,0-.13.42.74.74,0,0,0,.28.59,1.23,1.23,0,0,0,.81.23,2,2,0,0,0,.94-.22,1.4,1.4,0,0,0,.61-.61,2,2,0,0,0,.15-.88Z"/><path d="M85.23,92.94V87.75h.83v.74a2,2,0,0,1,1.73-.85,2.37,2.37,0,0,1,.9.17,1.42,1.42,0,0,1,.62.44,1.66,1.66,0,0,1,.29.65,4.8,4.8,0,0,1,.05.85v3.19h-.92V89.78a2.27,2.27,0,0,0-.11-.8.86.86,0,0,0-.38-.43,1.26,1.26,0,0,0-.64-.16,1.53,1.53,0,0,0-1,.36,1.71,1.71,0,0,0-.43,1.35v2.83Z"/><path d="M91,90.34a2.43,2.43,0,0,1,2.54-2.71,2.49,2.49,0,0,1,1.83.7,2.6,2.6,0,0,1,.71,1.94,3.3,3.3,0,0,1-.31,1.57,2.18,2.18,0,0,1-.91.89,2.75,2.75,0,0,1-1.31.32,2.49,2.49,0,0,1-1.84-.7A2.71,2.71,0,0,1,91,90.34Zm.94,0a2.14,2.14,0,0,0,.45,1.49,1.56,1.56,0,0,0,2.28,0,2.19,2.19,0,0,0,.45-1.52,2.08,2.08,0,0,0-.46-1.46,1.56,1.56,0,0,0-2.28,0A2.13,2.13,0,0,0,92,90.34Z"/><path d="M101,92.94v-.65a1.71,1.71,0,0,1-1.52.77,2.2,2.2,0,0,1-1.19-.34,2.27,2.27,0,0,1-.84-1,3.17,3.17,0,0,1-.3-1.41,3.54,3.54,0,0,1,.27-1.41,2.06,2.06,0,0,1,.81-1,2.24,2.24,0,0,1,1.21-.34,1.89,1.89,0,0,1,.87.2,1.81,1.81,0,0,1,.62.52V85.78h.91v7.16ZM98.1,90.35a2.18,2.18,0,0,0,.44,1.49,1.34,1.34,0,0,0,1,.49,1.32,1.32,0,0,0,1-.47,2.11,2.11,0,0,0,.42-1.44,2.36,2.36,0,0,0-.43-1.56,1.34,1.34,0,0,0-1.06-.5,1.29,1.29,0,0,0-1,.48A2.29,2.29,0,0,0,98.1,90.35Z"/><path d="M107.33,91.27l.95.11a2.21,2.21,0,0,1-.83,1.24,2.58,2.58,0,0,1-1.55.44,2.54,2.54,0,0,1-1.89-.7,2.66,2.66,0,0,1-.7-2,2.79,2.79,0,0,1,.7-2,2.44,2.44,0,0,1,1.83-.72,2.37,2.37,0,0,1,1.78.71,2.73,2.73,0,0,1,.69,2c0,.05,0,.13,0,.23h-4a2,2,0,0,0,.51,1.31,1.54,1.54,0,0,0,1.13.45,1.45,1.45,0,0,0,.86-.25A1.68,1.68,0,0,0,107.33,91.27Zm-3-1.42h3a1.7,1.7,0,0,0-.35-1,1.43,1.43,0,0,0-1.14-.51,1.49,1.49,0,0,0-1.06.41A1.57,1.57,0,0,0,104.31,89.84Z"/><path d="M113,94.92V87.75h.84v.67a2,2,0,0,1,.67-.59,1.92,1.92,0,0,1,.9-.2,2.22,2.22,0,0,1,1.23.34,2.11,2.11,0,0,1,.8,1,3.38,3.38,0,0,1,.27,1.36,3.33,3.33,0,0,1-.3,1.43,2.18,2.18,0,0,1-.87,1,2.3,2.3,0,0,1-1.2.34,1.79,1.79,0,0,1-.82-.19,1.87,1.87,0,0,1-.6-.47v2.52Zm.83-4.55a2.19,2.19,0,0,0,.42,1.48,1.32,1.32,0,0,0,1,.48,1.35,1.35,0,0,0,1-.5,2.28,2.28,0,0,0,.44-1.54,2.22,2.22,0,0,0-.43-1.48,1.3,1.3,0,0,0-1-.49,1.34,1.34,0,0,0-1,.52A2.28,2.28,0,0,0,113.8,90.37Z"/><path d="M119.08,92.94V87.75h.83v.79a2.16,2.16,0,0,1,.58-.73,1.05,1.05,0,0,1,.59-.18,1.85,1.85,0,0,1,.94.28l-.32.82a1.36,1.36,0,0,0-.67-.19.9.9,0,0,0-.54.17.93.93,0,0,0-.34.48,3.27,3.27,0,0,0-.15,1v2.71Z"/><path d="M122.55,90.34a2.43,2.43,0,0,1,2.54-2.71,2.49,2.49,0,0,1,1.83.7,2.6,2.6,0,0,1,.71,1.94,3.3,3.3,0,0,1-.31,1.57,2.18,2.18,0,0,1-.91.89,2.75,2.75,0,0,1-1.31.32,2.49,2.49,0,0,1-1.84-.7A2.71,2.71,0,0,1,122.55,90.34Zm.94,0a2.14,2.14,0,0,0,.45,1.49,1.56,1.56,0,0,0,2.28,0,2.19,2.19,0,0,0,.45-1.52,2.08,2.08,0,0,0-.46-1.46,1.56,1.56,0,0,0-2.28,0A2.13,2.13,0,0,0,123.49,90.34Z"/><path d="M131,92.15l.13.78a3.58,3.58,0,0,1-.69.08,1.64,1.64,0,0,1-.78-.15.86.86,0,0,1-.39-.4,3,3,0,0,1-.11-1v-3h-.67v-.68h.67V86.47l.91-.53v1.81H131v.68h-.92v3a1.45,1.45,0,0,0,0,.48.37.37,0,0,0,.16.17.64.64,0,0,0,.31.06Z"/><path d="M135.95,91.27l.95.11a2.21,2.21,0,0,1-.83,1.24,2.58,2.58,0,0,1-1.55.44,2.54,2.54,0,0,1-1.89-.7,2.66,2.66,0,0,1-.7-2,2.79,2.79,0,0,1,.71-2,2.44,2.44,0,0,1,1.83-.72,2.37,2.37,0,0,1,1.78.71,2.74,2.74,0,0,1,.69,2q0,.08,0,.23h-4a1.94,1.94,0,0,0,.5,1.31,1.54,1.54,0,0,0,1.13.45,1.45,1.45,0,0,0,.86-.25A1.68,1.68,0,0,0,135.95,91.27Zm-3-1.42h3a1.71,1.71,0,0,0-.35-1,1.44,1.44,0,0,0-1.14-.51,1.49,1.49,0,0,0-1.06.41A1.57,1.57,0,0,0,132.93,89.84Z"/><path d="M141.9,91l.9.11a2.21,2.21,0,0,1-.76,1.4,2.27,2.27,0,0,1-1.5.51,2.39,2.39,0,0,1-1.79-.7,2.75,2.75,0,0,1-.68-2,3.48,3.48,0,0,1,.29-1.47,2,2,0,0,1,.89-.95,2.74,2.74,0,0,1,1.29-.31,2.32,2.32,0,0,1,1.44.43,1.94,1.94,0,0,1,.72,1.21l-.89.13a1.41,1.41,0,0,0-.45-.79,1.2,1.2,0,0,0-.78-.26,1.45,1.45,0,0,0-1.13.48,2.19,2.19,0,0,0-.43,1.51,2.26,2.26,0,0,0,.42,1.52,1.39,1.39,0,0,0,1.09.47,1.32,1.32,0,0,0,.9-.32A1.54,1.54,0,0,0,141.9,91Z"/><path d="M145.91,92.15l.13.78a3.57,3.57,0,0,1-.69.08,1.63,1.63,0,0,1-.78-.15.86.86,0,0,1-.39-.4,3,3,0,0,1-.11-1v-3h-.67v-.68h.67V86.47l.91-.53v1.81h.92v.68H145v3a1.47,1.47,0,0,0,0,.48.37.37,0,0,0,.16.17.64.64,0,0,0,.31.06Z"/><path d="M147.13,86.79v-1H148v1Zm0,6.15V87.75H148v5.19Z"/><path d="M149.42,90.34A2.43,2.43,0,0,1,152,87.63a2.49,2.49,0,0,1,1.83.7,2.6,2.6,0,0,1,.71,1.94,3.3,3.3,0,0,1-.31,1.57,2.17,2.17,0,0,1-.91.89,2.75,2.75,0,0,1-1.31.32,2.5,2.5,0,0,1-1.84-.7A2.72,2.72,0,0,1,149.42,90.34Zm.94,0a2.14,2.14,0,0,0,.45,1.49,1.56,1.56,0,0,0,2.28,0,2.19,2.19,0,0,0,.45-1.52,2.08,2.08,0,0,0-.46-1.46,1.56,1.56,0,0,0-2.28,0A2.13,2.13,0,0,0,150.37,90.34Z"/><path d="M155.89,92.94V87.75h.83v.74a2,2,0,0,1,1.73-.85,2.37,2.37,0,0,1,.9.17,1.43,1.43,0,0,1,.62.44,1.65,1.65,0,0,1,.29.65,4.78,4.78,0,0,1,.05.85v3.19h-.92V89.78a2.27,2.27,0,0,0-.11-.8.86.86,0,0,0-.38-.43,1.25,1.25,0,0,0-.64-.16,1.53,1.53,0,0,0-1,.36,1.71,1.71,0,0,0-.43,1.35v2.83Z"/><path d="M162.28,92.94v-1h1v1Z"/><path d="M168.53,92.94V85.78h2.81a3.63,3.63,0,0,1,1.38.22,1.75,1.75,0,0,1,.81.67,1.71,1.71,0,0,1,.29.94,1.57,1.57,0,0,1-.26.86,1.83,1.83,0,0,1-.79.65,2,2,0,0,1,1,.65,1.69,1.69,0,0,1,.37,1.08,2,2,0,0,1-.22.93,1.81,1.81,0,0,1-.55.67,2.34,2.34,0,0,1-.82.35,5.23,5.23,0,0,1-1.21.12Zm1-4.15h1.62a3.75,3.75,0,0,0,.94-.08,1.05,1.05,0,0,0,.57-.36,1,1,0,0,0,.19-.62,1.11,1.11,0,0,0-.18-.63.89.89,0,0,0-.51-.37,4.41,4.41,0,0,0-1.14-.1h-1.5Zm0,3.31h1.86a4.54,4.54,0,0,0,.67,0,1.66,1.66,0,0,0,.57-.2,1,1,0,0,0,.38-.4,1.2,1.2,0,0,0,.15-.6,1.15,1.15,0,0,0-.21-.7,1.12,1.12,0,0,0-.59-.41,3.83,3.83,0,0,0-1.09-.12h-1.73Z"/><path d="M175.71,94.93l-.1-.83a2.16,2.16,0,0,0,.53.08,1,1,0,0,0,.49-.1.82.82,0,0,0,.3-.27,4.16,4.16,0,0,0,.28-.65l.08-.21-2.06-5.2h1l1.13,3q.22.57.39,1.2a11.41,11.41,0,0,1,.38-1.18l1.16-3h.92L178.13,93a10,10,0,0,1-.52,1.18,1.76,1.76,0,0,1-.56.64,1.37,1.37,0,0,1-.76.2A1.92,1.92,0,0,1,175.71,94.93Z"/><ellipse cx="19.22" cy="78.88" rx="3.77" ry="3.78" style="stroke:#000;stroke-width:3px"/><path d="M16.37,73.08V65.74A19.86,19.86,0,0,0,20,65.16c1.77-.46,2.94-1.47,2.94-3.28A3.12,3.12,0,0,0,20,58.61a3.12,3.12,0,0,0-2.94,3.27H11.44v0c.25-7.29,5-8.36,8.87-8.36a8.93,8.93,0,0,1,9.1,8.75c0,4.19-3.06,6.81-7.15,7.43v3.41Z" style="stroke:#000;stroke-width:3px"/><ellipse cx="19.17" cy="78.88" rx="3.77" ry="3.78" style="fill:#fff"/><path d="M16.37,73.08V65.74A19.86,19.86,0,0,0,20,65.16c1.77-.46,2.94-1.47,2.94-3.28A3.12,3.12,0,0,0,20,58.61a3.12,3.12,0,0,0-2.94,3.27H11.44v0c.25-7.29,5-8.36,8.87-8.36a8.93,8.93,0,0,1,9.1,8.75c0,4.19-3.06,6.81-7.15,7.43v3.42Z" style="fill:#fff"/></svg>