<svg id="Layer_1" data-name="Layer 1" xmlns="http://www.w3.org/2000/svg" viewBox="0 0 225.68 130.33"><title>UIM_home_screen</title><rect x="0.5" y="0.5" width="224.67" height="129.31" style="fill:none;stroke:#000"/><rect x="1.37" y="0.64" width="223.38" height="14.46" style="stroke:#000"/><rect x="0.5" y="101.87" width="224.67" height="27.94" style="fill:none"/><path d="M6.47,29.77V20.93H3.17V19.75h7.94v1.18H7.79v8.84Z"/><path d="M15.5,28.87a4.59,4.59,0,0,1-1.32.82,3.8,3.8,0,0,1-1.36.24A2.64,2.64,0,0,1,11,29.35a1.93,1.93,0,0,1-.64-1.49,2,2,0,0,1,.88-1.68,3,3,0,0,1,.89-.4,8.73,8.73,0,0,1,1.09-.18,11.25,11.25,0,0,0,2.19-.42c0-.17,0-.28,0-.32a1.36,1.36,0,0,0-.35-1.06,2.06,2.06,0,0,0-1.4-.42,2.17,2.17,0,0,0-1.28.3,1.86,1.86,0,0,0-.61,1.08l-1.2-.16a3,3,0,0,1,.54-1.25,2.36,2.36,0,0,1,1.09-.73,4.85,4.85,0,0,1,1.65-.26,4.36,4.36,0,0,1,1.51.22,2,2,0,0,1,.85.55,1.94,1.94,0,0,1,.38.84,6.93,6.93,0,0,1,.06,1.13v1.64a17.45,17.45,0,0,0,.08,2.17,2.74,2.74,0,0,0,.31.87H15.74A2.62,2.62,0,0,1,15.5,28.87Zm-.1-2.75a9,9,0,0,1-2,.46,4.63,4.63,0,0,0-1.07.25,1.07,1.07,0,0,0-.49.4,1.09,1.09,0,0,0,.2,1.4,1.6,1.6,0,0,0,1.09.33,2.54,2.54,0,0,0,1.26-.31,1.92,1.92,0,0,0,.81-.85,3,3,0,0,0,.2-1.23Z"/><path d="M18.55,29.77V22.51h1.11v1A2.61,2.61,0,0,1,22,22.34a3,3,0,0,1,1.21.24,1.9,1.9,0,0,1,.82.62,2.37,2.37,0,0,1,.38.91,7.06,7.06,0,0,1,.07,1.2v4.46H23.22V25.35a3.31,3.31,0,0,0-.14-1.12,1.18,1.18,0,0,0-.51-.59,1.62,1.62,0,0,0-.86-.22,2,2,0,0,0-1.36.5,2.46,2.46,0,0,0-.57,1.89v4Z"/><path d="M26.34,29.77v-10h1.23v5.71l2.91-3h1.59L29.3,25.2l3.06,4.57H30.84l-2.4-3.71-.87.83v2.88Z"/><path d="M39.68,29.77V20.93h-3.3V19.75h7.94v1.18H41v8.84Z"/><path d="M48.94,27.43l1.27.16a3.1,3.1,0,0,1-1.11,1.73,3.77,3.77,0,0,1-4.6-.37,3.83,3.83,0,0,1-.93-2.75,4,4,0,0,1,.94-2.84,3.19,3.19,0,0,1,2.45-1,3.1,3.1,0,0,1,2.38,1,3.94,3.94,0,0,1,.92,2.79q0,.11,0,.33H44.83a2.79,2.79,0,0,0,.68,1.83,2,2,0,0,0,1.52.64,1.88,1.88,0,0,0,1.16-.36A2.36,2.36,0,0,0,48.94,27.43Zm-4-2H49a2.46,2.46,0,0,0-.46-1.37A1.89,1.89,0,0,0,47,23.36a2,2,0,0,0-1.43.57A2.25,2.25,0,0,0,44.9,25.44Z"/><path d="M51.76,29.77V22.51h1.1v1a2.59,2.59,0,0,1,.91-.86,2.56,2.56,0,0,1,1.29-.32,2.39,2.39,0,0,1,1.32.33,1.79,1.79,0,0,1,.73.94,2.61,2.61,0,0,1,2.24-1.27,2.21,2.21,0,0,1,1.66.6,2.56,2.56,0,0,1,.58,1.84v5H60.37V25.19a3.37,3.37,0,0,0-.12-1.06,1,1,0,0,0-.43-.52,1.35,1.35,0,0,0-.74-.2,1.72,1.72,0,0,0-1.27.51,2.24,2.24,0,0,0-.51,1.63v4.22H56.07V25.05a2.07,2.07,0,0,0-.3-1.23,1.14,1.14,0,0,0-1-.41,1.79,1.79,0,0,0-1,.27,1.55,1.55,0,0,0-.64.8A4.5,4.5,0,0,0,53,26v3.77Z"/><path d="M63.42,32.55v-10h1.12v.94a2.76,2.76,0,0,1,.9-.83,2.46,2.46,0,0,1,1.21-.28,2.87,2.87,0,0,1,1.64.48,2.94,2.94,0,0,1,1.07,1.35,4.93,4.93,0,0,1,.36,1.91,4.85,4.85,0,0,1-.4,2,3,3,0,0,1-1.16,1.37,3,3,0,0,1-1.6.48,2.31,2.31,0,0,1-1.1-.26,2.52,2.52,0,0,1-.8-.66v3.53Zm1.11-6.37a3.16,3.16,0,0,0,.57,2.07,1.74,1.74,0,0,0,1.37.67,1.78,1.78,0,0,0,1.4-.69,3.29,3.29,0,0,0,.58-2.15A3.21,3.21,0,0,0,67.89,24a1.72,1.72,0,0,0-1.36-.69,1.77,1.77,0,0,0-1.39.73A3.29,3.29,0,0,0,64.53,26.18Z"/><path d="M76.17,27.43l1.27.16a3.1,3.1,0,0,1-1.11,1.73,3.77,3.77,0,0,1-4.6-.37,3.83,3.83,0,0,1-.93-2.75,4,4,0,0,1,.94-2.84,3.19,3.19,0,0,1,2.45-1,3.1,3.1,0,0,1,2.38,1,3.94,3.94,0,0,1,.92,2.79q0,.11,0,.33H72.07a2.79,2.79,0,0,0,.68,1.83,2,2,0,0,0,1.52.64,1.88,1.88,0,0,0,1.16-.36A2.36,2.36,0,0,0,76.17,27.43Zm-4-2h4.05a2.46,2.46,0,0,0-.46-1.37,1.89,1.89,0,0,0-1.52-.71,2,2,0,0,0-1.43.57A2.25,2.25,0,0,0,72.13,25.44Z"/><path d="M79,29.77V22.51h1.11v1.1a3,3,0,0,1,.78-1,1.37,1.37,0,0,1,.79-.25,2.4,2.4,0,0,1,1.26.4l-.42,1.14a1.76,1.76,0,0,0-.9-.27,1.17,1.17,0,0,0-.72.24,1.31,1.31,0,0,0-.46.67A4.79,4.79,0,0,0,80.21,26v3.8Z"/><path d="M88.39,28.87a4.59,4.59,0,0,1-1.32.82,3.8,3.8,0,0,1-1.36.24,2.64,2.64,0,0,1-1.84-.58,1.93,1.93,0,0,1-.64-1.49,2,2,0,0,1,.88-1.68,3,3,0,0,1,.89-.4,8.73,8.73,0,0,1,1.09-.18,11.25,11.25,0,0,0,2.19-.42c0-.17,0-.28,0-.32a1.36,1.36,0,0,0-.35-1.06,2.06,2.06,0,0,0-1.4-.42,2.17,2.17,0,0,0-1.28.3,1.86,1.86,0,0,0-.61,1.08l-1.2-.16A3,3,0,0,1,84,23.33a2.36,2.36,0,0,1,1.09-.73,4.85,4.85,0,0,1,1.65-.26,4.36,4.36,0,0,1,1.51.22,2,2,0,0,1,.85.55,1.94,1.94,0,0,1,.38.84,6.93,6.93,0,0,1,.06,1.13v1.64a17.45,17.45,0,0,0,.08,2.17,2.74,2.74,0,0,0,.31.87H88.64A2.62,2.62,0,0,1,88.39,28.87Zm-.1-2.75a9,9,0,0,1-2,.46,4.63,4.63,0,0,0-1.07.25,1.07,1.07,0,0,0-.49.4,1.09,1.09,0,0,0,.2,1.4A1.6,1.6,0,0,0,86,29a2.54,2.54,0,0,0,1.26-.31,1.92,1.92,0,0,0,.81-.85,3,3,0,0,0,.2-1.23Z"/><path d="M94.13,28.67l.18,1.09a4.57,4.57,0,0,1-.93.11,2.11,2.11,0,0,1-1-.21,1.19,1.19,0,0,1-.52-.56,4.41,4.41,0,0,1-.15-1.45V23.47h-.9v-1h.9v-1.8L92.89,20v2.54h1.24v1H92.89v4.25a2.14,2.14,0,0,0,.06.68.51.51,0,0,0,.21.24.82.82,0,0,0,.42.09A4,4,0,0,0,94.13,28.67Z"/><path d="M100.09,29.77V28.7a2.66,2.66,0,0,1-2.3,1.23,2.94,2.94,0,0,1-1.2-.25,2,2,0,0,1-.83-.62,2.32,2.32,0,0,1-.38-.91A6.24,6.24,0,0,1,95.3,27v-4.5h1.23v4a7.16,7.16,0,0,0,.08,1.3,1.28,1.28,0,0,0,.49.76,1.52,1.52,0,0,0,.93.28,2,2,0,0,0,1-.28,1.58,1.58,0,0,0,.69-.77,3.88,3.88,0,0,0,.2-1.42V22.51h1.23v7.26Z"/><path d="M103.1,29.77V22.51h1.11v1.1a3,3,0,0,1,.78-1,1.37,1.37,0,0,1,.79-.25,2.4,2.4,0,0,1,1.26.4l-.42,1.14a1.76,1.76,0,0,0-.9-.27,1.17,1.17,0,0,0-.72.24,1.31,1.31,0,0,0-.46.67,4.79,4.79,0,0,0-.21,1.44v3.8Z"/><path d="M112.75,27.43l1.27.16a3.1,3.1,0,0,1-1.11,1.73,3.77,3.77,0,0,1-4.6-.37,3.83,3.83,0,0,1-.93-2.75,4,4,0,0,1,.94-2.84,3.19,3.19,0,0,1,2.45-1,3.1,3.1,0,0,1,2.38,1,3.94,3.94,0,0,1,.92,2.79q0,.11,0,.33h-5.41a2.79,2.79,0,0,0,.68,1.83,2,2,0,0,0,1.52.64,1.88,1.88,0,0,0,1.16-.36A2.36,2.36,0,0,0,112.75,27.43Zm-4-2h4.05a2.46,2.46,0,0,0-.46-1.37,1.89,1.89,0,0,0-1.52-.71,2,2,0,0,0-1.43.57A2.25,2.25,0,0,0,108.71,25.44Z"/><path d="M191.5,21.06V19.88H198v1a13.67,13.67,0,0,0-1.9,2.71A16.47,16.47,0,0,0,194.64,27a12.91,12.91,0,0,0-.47,2.75H192.9a12.3,12.3,0,0,1,.46-2.86,14.93,14.93,0,0,1,1.28-3.23,13.82,13.82,0,0,1,1.77-2.62Z"/><path d="M203.84,29.77h-1.23V21.93a6.35,6.35,0,0,1-1.17.85,8.26,8.26,0,0,1-1.3.64V22.22A7.42,7.42,0,0,0,202,21,4.62,4.62,0,0,0,203,19.71h.79Z"/><path d="M207.28,21.47a1.9,1.9,0,1,1,.56,1.35A1.82,1.82,0,0,1,207.28,21.47Zm.75,0a1.16,1.16,0,1,0,.34-.82A1.11,1.11,0,0,0,208,21.47Z"/><path d="M213.16,29.77v-10h6.76v1.18h-5.43V24h4.7v1.18h-4.7v4.55Z"/><path d="M3.51,41.69a5.45,5.45,0,0,1,1.34-3.91,4.56,4.56,0,0,1,3.46-1.41,4.8,4.8,0,0,1,2.5.66,4.33,4.33,0,0,1,1.7,1.85,6,6,0,0,1,.58,2.69,5.91,5.91,0,0,1-.62,2.73,4.2,4.2,0,0,1-1.74,1.82,5,5,0,0,1-2.43.62,4.74,4.74,0,0,1-2.53-.68,4.4,4.4,0,0,1-1.69-1.87A5.66,5.66,0,0,1,3.51,41.69Zm1.37,0a4,4,0,0,0,1,2.85,3.2,3.2,0,0,0,2.44,1,3.2,3.2,0,0,0,2.46-1.05,4.26,4.26,0,0,0,1-3,5.13,5.13,0,0,0-.41-2.14A3.18,3.18,0,0,0,10.11,38a3.28,3.28,0,0,0-1.79-.5,3.39,3.39,0,0,0-2.42,1A4.32,4.32,0,0,0,4.88,41.71Z"/><path d="M14.65,49.35v-10h1.12v.94a2.76,2.76,0,0,1,.9-.83,2.46,2.46,0,0,1,1.21-.28,2.87,2.87,0,0,1,1.64.48A2.94,2.94,0,0,1,20.59,41,4.93,4.93,0,0,1,21,42.88a4.85,4.85,0,0,1-.4,2,3,3,0,0,1-1.16,1.37,3,3,0,0,1-1.6.48,2.31,2.31,0,0,1-1.1-.26,2.52,2.52,0,0,1-.8-.66v3.53ZM15.76,43a3.16,3.16,0,0,0,.57,2.07,1.74,1.74,0,0,0,1.37.67,1.78,1.78,0,0,0,1.4-.69,3.29,3.29,0,0,0,.58-2.15,3.21,3.21,0,0,0-.57-2.08,1.72,1.72,0,0,0-1.36-.69,1.77,1.77,0,0,0-1.39.73A3.29,3.29,0,0,0,15.76,43Z"/><path d="M27.41,44.23l1.27.16a3.1,3.1,0,0,1-1.11,1.73,3.35,3.35,0,0,1-2.08.62,3.32,3.32,0,0,1-2.53-1A3.83,3.83,0,0,1,22,43,4,4,0,0,1,23,40.16a3.19,3.19,0,0,1,2.45-1,3.1,3.1,0,0,1,2.38,1,3.94,3.94,0,0,1,.92,2.79q0,.11,0,.33H23.3A2.79,2.79,0,0,0,24,45.08a2,2,0,0,0,1.52.64,1.88,1.88,0,0,0,1.16-.36A2.36,2.36,0,0,0,27.41,44.23Zm-4-2h4.05A2.46,2.46,0,0,0,27,40.87a1.89,1.89,0,0,0-1.52-.71,2,2,0,0,0-1.43.57A2.25,2.25,0,0,0,23.37,42.24Z"/><path d="M30.21,46.57V39.31h1.11v1.1a3,3,0,0,1,.78-1,1.37,1.37,0,0,1,.79-.25,2.4,2.4,0,0,1,1.26.4l-.42,1.14a1.76,1.76,0,0,0-.9-.27,1.17,1.17,0,0,0-.72.24,1.31,1.31,0,0,0-.46.67,4.79,4.79,0,0,0-.21,1.44v3.8Z"/><path d="M39.62,45.67a4.59,4.59,0,0,1-1.32.82,3.8,3.8,0,0,1-1.36.24,2.64,2.64,0,0,1-1.84-.58,1.93,1.93,0,0,1-.64-1.49A2,2,0,0,1,35.35,43a3,3,0,0,1,.89-.4,8.73,8.73,0,0,1,1.09-.18A11.25,11.25,0,0,0,39.52,42c0-.17,0-.28,0-.32a1.36,1.36,0,0,0-.35-1.06,2.06,2.06,0,0,0-1.4-.42,2.17,2.17,0,0,0-1.28.3,1.86,1.86,0,0,0-.61,1.08l-1.2-.16a3,3,0,0,1,.54-1.25,2.36,2.36,0,0,1,1.09-.73A4.85,4.85,0,0,1,38,39.14a4.36,4.36,0,0,1,1.51.22,2,2,0,0,1,.85.55,1.94,1.94,0,0,1,.38.84,6.93,6.93,0,0,1,.06,1.13v1.64a17.45,17.45,0,0,0,.08,2.17,2.74,2.74,0,0,0,.31.87H39.87A2.62,2.62,0,0,1,39.62,45.67Zm-.1-2.75a9,9,0,0,1-2,.46,4.63,4.63,0,0,0-1.07.25A1.07,1.07,0,0,0,36,44a1.09,1.09,0,0,0,.2,1.4,1.6,1.6,0,0,0,1.09.33,2.54,2.54,0,0,0,1.26-.31,1.92,1.92,0,0,0,.81-.85,3,3,0,0,0,.2-1.23Z"/><path d="M45.36,45.47l.18,1.09a4.57,4.57,0,0,1-.93.11,2.11,2.11,0,0,1-1-.21,1.19,1.19,0,0,1-.52-.56,4.41,4.41,0,0,1-.15-1.45V40.27H42v-1h.9v-1.8l1.22-.74v2.54h1.24v1H44.12v4.25a2.14,2.14,0,0,0,.06.68.51.51,0,0,0,.21.24.82.82,0,0,0,.42.09A4,4,0,0,0,45.36,45.47Z"/><path d="M46.57,38V36.55H47.8V38Zm0,8.61V39.31H47.8v7.26Z"/><path d="M49.67,46.57V39.31h1.11v1a2.61,2.61,0,0,1,2.31-1.2,3,3,0,0,1,1.21.24,1.9,1.9,0,0,1,.82.62,2.37,2.37,0,0,1,.38.91,7.06,7.06,0,0,1,.07,1.2v4.46H54.34V42.15A3.31,3.31,0,0,0,54.2,41a1.18,1.18,0,0,0-.51-.59,1.62,1.62,0,0,0-.86-.22,2,2,0,0,0-1.36.5,2.46,2.46,0,0,0-.57,1.89v4Z"/><path d="M57.23,47.17l1.2.18a1.14,1.14,0,0,0,.42.81,2,2,0,0,0,1.25.34,2.2,2.2,0,0,0,1.32-.34,1.68,1.68,0,0,0,.63-1,7.86,7.86,0,0,0,.09-1.58,2.53,2.53,0,0,1-2,1,2.74,2.74,0,0,1-2.32-1.08A4.16,4.16,0,0,1,57,42.9,4.82,4.82,0,0,1,57.36,41a3,3,0,0,1,1.09-1.36,2.94,2.94,0,0,1,1.68-.48,2.6,2.6,0,0,1,2.12,1v-.87h1.13v6.28A6,6,0,0,1,63,48a2.52,2.52,0,0,1-1.09,1.12,3.79,3.79,0,0,1-1.84.41,3.47,3.47,0,0,1-2.1-.58A2,2,0,0,1,57.23,47.17Zm1-4.36a3.15,3.15,0,0,0,.57,2.08,1.87,1.87,0,0,0,2.84,0,3,3,0,0,0,.57-2,3,3,0,0,0-.59-2,1.83,1.83,0,0,0-1.43-.68,1.78,1.78,0,0,0-1.39.67A3,3,0,0,0,58.25,42.81Z"/><path d="M68.84,43.35l1.25-.11a2.76,2.76,0,0,0,.41,1.23,2.26,2.26,0,0,0,1,.78,3.82,3.82,0,0,0,1.54.3,3.68,3.68,0,0,0,1.34-.23,1.86,1.86,0,0,0,.86-.62,1.44,1.44,0,0,0,.28-.86,1.31,1.31,0,0,0-.27-.82,2,2,0,0,0-.9-.59,17.66,17.66,0,0,0-1.78-.49,9.14,9.14,0,0,1-1.93-.63,2.71,2.71,0,0,1-1.07-.93,2.29,2.29,0,0,1-.35-1.25,2.55,2.55,0,0,1,.43-1.42,2.67,2.67,0,0,1,1.26-1,4.77,4.77,0,0,1,1.84-.34,5,5,0,0,1,2,.36A2.83,2.83,0,0,1,76,37.79a3,3,0,0,1,.49,1.58l-1.27.1A2.05,2.05,0,0,0,74.55,38a2.7,2.7,0,0,0-1.75-.49,2.8,2.8,0,0,0-1.75.44A1.32,1.32,0,0,0,70.5,39a1.14,1.14,0,0,0,.39.89,5.28,5.28,0,0,0,2,.71,13.23,13.23,0,0,1,2.22.64,3,3,0,0,1,1.29,1,2.49,2.49,0,0,1,.42,1.43,2.73,2.73,0,0,1-.46,1.51A3,3,0,0,1,75,46.35a4.58,4.58,0,0,1-1.93.39,5.77,5.77,0,0,1-2.28-.4,3.19,3.19,0,0,1-1.44-1.19A3.38,3.38,0,0,1,68.84,43.35Z"/><path d="M83.44,44.23l1.27.16a3.1,3.1,0,0,1-1.11,1.73,3.77,3.77,0,0,1-4.6-.37A3.83,3.83,0,0,1,78.06,43,4,4,0,0,1,79,40.16a3.19,3.19,0,0,1,2.45-1,3.1,3.1,0,0,1,2.38,1,3.94,3.94,0,0,1,.92,2.79q0,.11,0,.33H79.33A2.79,2.79,0,0,0,80,45.08a2,2,0,0,0,1.52.64,1.88,1.88,0,0,0,1.16-.36A2.36,2.36,0,0,0,83.44,44.23Zm-4-2h4.05A2.46,2.46,0,0,0,83,40.87a1.89,1.89,0,0,0-1.52-.71,2,2,0,0,0-1.43.57A2.25,2.25,0,0,0,79.4,42.24Z"/><path d="M88.94,45.47l.18,1.09a4.57,4.57,0,0,1-.93.11,2.11,2.11,0,0,1-1-.21,1.19,1.19,0,0,1-.52-.56,4.41,4.41,0,0,1-.15-1.45V40.27h-.9v-1h.9v-1.8l1.22-.74v2.54h1.24v1H87.71v4.25a2.14,2.14,0,0,0,.06.68.51.51,0,0,0,.21.24.82.82,0,0,0,.42.09A4,4,0,0,0,88.94,45.47Z"/><path d="M90.15,49.35v-10h1.12v.94a2.76,2.76,0,0,1,.9-.83,2.46,2.46,0,0,1,1.21-.28,2.87,2.87,0,0,1,1.64.48A2.94,2.94,0,0,1,96.09,41a4.93,4.93,0,0,1,.36,1.91,4.85,4.85,0,0,1-.4,2,3,3,0,0,1-1.16,1.37,3,3,0,0,1-1.6.48,2.31,2.31,0,0,1-1.1-.26,2.52,2.52,0,0,1-.8-.66v3.53ZM91.26,43a3.16,3.16,0,0,0,.57,2.07,1.74,1.74,0,0,0,1.37.67,1.78,1.78,0,0,0,1.4-.69,3.29,3.29,0,0,0,.58-2.15,3.21,3.21,0,0,0-.57-2.08,1.72,1.72,0,0,0-1.36-.69,1.77,1.77,0,0,0-1.39.73A3.29,3.29,0,0,0,91.26,43Z"/><path d="M97.47,42.94a3.74,3.74,0,0,1,1.12-3,3.38,3.38,0,0,1,2.28-.81,3.26,3.26,0,0,1,2.45,1,3.73,3.73,0,0,1,1,2.71,4.8,4.8,0,0,1-.42,2.2,3,3,0,0,1-1.22,1.25,3.56,3.56,0,0,1-1.75.44,3.26,3.26,0,0,1-2.46-1A3.91,3.91,0,0,1,97.47,42.94Zm1.26,0A3.09,3.09,0,0,0,99.35,45a2,2,0,0,0,3.06,0A3.16,3.16,0,0,0,103,42.9a3,3,0,0,0-.61-2,2,2,0,0,0-3.05,0A3.08,3.08,0,0,0,98.74,42.94Z"/><path d="M105.73,38V36.55H107V38Zm0,8.61V39.31H107v7.26Z"/><path d="M108.83,46.57V39.31h1.11v1a2.61,2.61,0,0,1,2.31-1.2,3,3,0,0,1,1.21.24,1.9,1.9,0,0,1,.82.62,2.37,2.37,0,0,1,.38.91,7.06,7.06,0,0,1,.07,1.2v4.46H113.5V42.15a3.31,3.31,0,0,0-.14-1.12,1.18,1.18,0,0,0-.51-.59,1.62,1.62,0,0,0-.86-.22,2,2,0,0,0-1.36.5,2.46,2.46,0,0,0-.57,1.89v4Z"/><path d="M119.3,45.47l.18,1.09a4.58,4.58,0,0,1-.93.11,2.1,2.1,0,0,1-1-.21,1.18,1.18,0,0,1-.52-.56,4.4,4.4,0,0,1-.15-1.45V40.27h-.9v-1h.9v-1.8l1.22-.74v2.54h1.24v1h-1.24v4.25a2.16,2.16,0,0,0,.06.68.52.52,0,0,0,.21.24.82.82,0,0,0,.42.09A4,4,0,0,0,119.3,45.47Z"/><path d="M188.05,46.57h-1.23V38.73a6.35,6.35,0,0,1-1.17.85,8.26,8.26,0,0,1-1.3.64V39a7.42,7.42,0,0,0,1.8-1.18,4.62,4.62,0,0,0,1.09-1.34h.79Z"/><path d="M197.67,45.39v1.18H191a2.19,2.19,0,0,1,.14-.85,4.53,4.53,0,0,1,.81-1.33,12.72,12.72,0,0,1,1.61-1.52,13.65,13.65,0,0,0,2.21-2.12,2.54,2.54,0,0,0,.57-1.48,1.64,1.64,0,0,0-.52-1.23,1.88,1.88,0,0,0-1.36-.5,1.92,1.92,0,0,0-1.42.53,2,2,0,0,0-.54,1.48l-1.26-.13a3.11,3.11,0,0,1,1-2.16,3.33,3.33,0,0,1,2.28-.74,3.18,3.18,0,0,1,2.28.8,2.63,2.63,0,0,1,.84,2,3,3,0,0,1-.25,1.18,4.58,4.58,0,0,1-.82,1.22,19.88,19.88,0,0,1-1.9,1.76q-1.11.93-1.42,1.26a4,4,0,0,0-.52.67Z"/><path d="M199,41.63a9.16,9.16,0,0,1,.37-2.86,3.56,3.56,0,0,1,1.09-1.67,2.78,2.78,0,0,1,1.82-.59,3,3,0,0,1,1.42.32,2.71,2.71,0,0,1,1,.94,5,5,0,0,1,.62,1.49,9.9,9.9,0,0,1,.23,2.37,9.21,9.21,0,0,1-.36,2.85,3.55,3.55,0,0,1-1.08,1.67,2.78,2.78,0,0,1-1.82.59,2.75,2.75,0,0,1-2.28-1A6.6,6.6,0,0,1,199,41.63Zm1.26,0a6.28,6.28,0,0,0,.58,3.28,1.65,1.65,0,0,0,2.85,0,6.28,6.28,0,0,0,.58-3.28,6.27,6.27,0,0,0-.58-3.29,1.71,1.71,0,0,0-1.44-.81,1.58,1.58,0,0,0-1.35.72A6.36,6.36,0,0,0,200.25,41.63Z"/><path d="M207.07,38.27a1.9,1.9,0,1,1,.56,1.35A1.82,1.82,0,0,1,207.07,38.27Zm.75,0a1.16,1.16,0,1,0,.34-.82A1.11,1.11,0,0,0,207.82,38.27Z"/><path d="M212.94,46.57v-10h6.76v1.18h-5.43v3.1H219V42h-4.7v4.55Z"/><path d="M3.2,56.33l.71-.06a1.58,1.58,0,0,0,.24.71,1.29,1.29,0,0,0,.58.45,2.18,2.18,0,0,0,.88.17,2.11,2.11,0,0,0,.77-.13,1.06,1.06,0,0,0,.49-.35A.82.82,0,0,0,7,56.61a.75.75,0,0,0-.16-.47,1.16,1.16,0,0,0-.52-.34,10.1,10.1,0,0,0-1-.28,5.23,5.23,0,0,1-1.11-.36,1.55,1.55,0,0,1-.61-.53,1.31,1.31,0,0,1-.2-.71,1.46,1.46,0,0,1,.25-.81,1.52,1.52,0,0,1,.72-.57,2.72,2.72,0,0,1,1.05-.2,2.87,2.87,0,0,1,1.12.21,1.62,1.62,0,0,1,.75.6,1.74,1.74,0,0,1,.28.9l-.73.05a1.17,1.17,0,0,0-.4-.82,1.54,1.54,0,0,0-1-.28,1.6,1.6,0,0,0-1,.25.76.76,0,0,0-.31.61.65.65,0,0,0,.22.51,3,3,0,0,0,1.14.41,7.56,7.56,0,0,1,1.27.37,1.73,1.73,0,0,1,.74.58,1.42,1.42,0,0,1,.24.81,1.56,1.56,0,0,1-.26.86,1.72,1.72,0,0,1-.75.63,2.62,2.62,0,0,1-1.1.22A3.3,3.3,0,0,1,4.34,58a1.83,1.83,0,0,1-.82-.68A1.93,1.93,0,0,1,3.2,56.33Z"/><path d="M10.44,57.54l.1.62a2.62,2.62,0,0,1-.53.06,1.2,1.2,0,0,1-.59-.12.68.68,0,0,1-.3-.32A2.52,2.52,0,0,1,9,57V54.57H8.51V54H9V53l.7-.42V54h.71v.55H9.73V57a1.22,1.22,0,0,0,0,.39.29.29,0,0,0,.12.14.47.47,0,0,0,.24.05Z"/><path d="M14,57.66a2.63,2.63,0,0,1-.75.47,2.17,2.17,0,0,1-.78.14,1.51,1.51,0,0,1-1.05-.33,1.1,1.1,0,0,1-.37-.85,1.16,1.16,0,0,1,.5-1,1.71,1.71,0,0,1,.51-.23,5,5,0,0,1,.63-.11A6.43,6.43,0,0,0,14,55.54c0-.1,0-.16,0-.18a.78.78,0,0,0-.2-.61,1.18,1.18,0,0,0-.8-.24,1.24,1.24,0,0,0-.73.17,1.06,1.06,0,0,0-.35.62l-.69-.09a1.71,1.71,0,0,1,.31-.71,1.35,1.35,0,0,1,.62-.42,2.77,2.77,0,0,1,.94-.15,2.49,2.49,0,0,1,.86.13,1.14,1.14,0,0,1,.49.31,1.11,1.11,0,0,1,.22.48,4,4,0,0,1,0,.65v.94a10,10,0,0,0,0,1.24,1.56,1.56,0,0,0,.18.5h-.73A1.5,1.5,0,0,1,14,57.66ZM14,56.09a5.16,5.16,0,0,1-1.15.27,2.64,2.64,0,0,0-.61.14.61.61,0,0,0-.28.23.62.62,0,0,0,.12.8.92.92,0,0,0,.62.19,1.45,1.45,0,0,0,.72-.18,1.1,1.1,0,0,0,.46-.49,1.69,1.69,0,0,0,.11-.7Z"/><path d="M17.51,57.54l.1.62a2.62,2.62,0,0,1-.53.06,1.2,1.2,0,0,1-.59-.12.68.68,0,0,1-.3-.32A2.52,2.52,0,0,1,16.1,57V54.57h-.52V54h.52V53l.7-.42V54h.71v.55H16.8V57a1.22,1.22,0,0,0,0,.39.29.29,0,0,0,.12.14.47.47,0,0,0,.24.05Z"/><path d="M21.11,58.17v-.61a1.52,1.52,0,0,1-1.32.7,1.68,1.68,0,0,1-.69-.14,1.13,1.13,0,0,1-.47-.35,1.32,1.32,0,0,1-.22-.52,3.56,3.56,0,0,1,0-.66V54h.7v2.3a4.08,4.08,0,0,0,0,.74.73.73,0,0,0,.28.44.87.87,0,0,0,.53.16,1.16,1.16,0,0,0,.59-.16.9.9,0,0,0,.39-.44,2.22,2.22,0,0,0,.12-.81V54h.7v4.15Z"/><path d="M22.76,56.93l.7-.11a1,1,0,0,0,.33.64,1.14,1.14,0,0,0,.75.22,1.1,1.1,0,0,0,.72-.2.59.59,0,0,0,.23-.46.43.43,0,0,0-.21-.37,3,3,0,0,0-.72-.24,6.56,6.56,0,0,1-1.07-.34,1,1,0,0,1-.61-1,1.07,1.07,0,0,1,.13-.51,1.13,1.13,0,0,1,.35-.39A1.46,1.46,0,0,1,23.8,54a2.12,2.12,0,0,1,.61-.08,2.4,2.4,0,0,1,.86.14,1.17,1.17,0,0,1,.54.38,1.49,1.49,0,0,1,.24.64l-.69.09a.75.75,0,0,0-.27-.5,1,1,0,0,0-.63-.18,1.15,1.15,0,0,0-.69.16.47.47,0,0,0-.21.38.39.39,0,0,0,.09.25.62.62,0,0,0,.27.19l.62.18a8.68,8.68,0,0,1,1,.33,1.05,1.05,0,0,1,.46.37,1,1,0,0,1,.17.6,1.18,1.18,0,0,1-.21.66,1.33,1.33,0,0,1-.59.48,2.15,2.15,0,0,1-.87.17,2,2,0,0,1-1.23-.34A1.56,1.56,0,0,1,22.76,56.93Z"/><path d="M27.44,54.82V54h.8v.8Zm0,3.35v-.8h.8v.8Z"/><path d="M31.92,56.33l.71-.06a1.58,1.58,0,0,0,.24.71,1.29,1.29,0,0,0,.58.45,2.18,2.18,0,0,0,.88.17,2.11,2.11,0,0,0,.77-.13,1.06,1.06,0,0,0,.49-.35.82.82,0,0,0,.16-.49.75.75,0,0,0-.16-.47,1.16,1.16,0,0,0-.52-.34,10.1,10.1,0,0,0-1-.28A5.23,5.23,0,0,1,33,55.17a1.55,1.55,0,0,1-.61-.53,1.31,1.31,0,0,1-.2-.71,1.46,1.46,0,0,1,.25-.81,1.52,1.52,0,0,1,.72-.57,2.72,2.72,0,0,1,1.05-.2,2.87,2.87,0,0,1,1.12.21,1.62,1.62,0,0,1,.75.6,1.74,1.74,0,0,1,.28.9l-.73.05a1.17,1.17,0,0,0-.4-.82,1.54,1.54,0,0,0-1-.28,1.6,1.6,0,0,0-1,.25.76.76,0,0,0-.31.61.65.65,0,0,0,.22.51,3,3,0,0,0,1.14.41,7.56,7.56,0,0,1,1.27.37,1.73,1.73,0,0,1,.74.58,1.42,1.42,0,0,1,.24.81,1.56,1.56,0,0,1-.26.86,1.72,1.72,0,0,1-.75.63,2.62,2.62,0,0,1-1.1.22,3.3,3.3,0,0,1-1.3-.23,1.83,1.83,0,0,1-.82-.68A1.93,1.93,0,0,1,31.92,56.33Z"/><path d="M39.16,57.54l.1.62a2.62,2.62,0,0,1-.53.06,1.2,1.2,0,0,1-.59-.12.68.68,0,0,1-.3-.32,2.52,2.52,0,0,1-.09-.83V54.57h-.52V54h.52V53l.7-.42V54h.71v.55h-.71V57a1.22,1.22,0,0,0,0,.39.29.29,0,0,0,.12.14.47.47,0,0,0,.24.05Z"/><path d="M42.76,57.66a2.63,2.63,0,0,1-.75.47,2.17,2.17,0,0,1-.78.14,1.51,1.51,0,0,1-1.05-.33,1.1,1.1,0,0,1-.37-.85,1.16,1.16,0,0,1,.5-1,1.71,1.71,0,0,1,.51-.23,5,5,0,0,1,.63-.11,6.43,6.43,0,0,0,1.25-.24c0-.1,0-.16,0-.18a.78.78,0,0,0-.2-.61,1.18,1.18,0,0,0-.8-.24,1.24,1.24,0,0,0-.73.17,1.06,1.06,0,0,0-.35.62l-.69-.09a1.71,1.71,0,0,1,.31-.71,1.35,1.35,0,0,1,.62-.42,2.77,2.77,0,0,1,.94-.15,2.49,2.49,0,0,1,.86.13,1.14,1.14,0,0,1,.49.31,1.11,1.11,0,0,1,.22.48,4,4,0,0,1,0,.65v.94a10,10,0,0,0,0,1.24,1.56,1.56,0,0,0,.18.5H42.9A1.5,1.5,0,0,1,42.76,57.66Zm-.06-1.57a5.16,5.16,0,0,1-1.15.27,2.64,2.64,0,0,0-.61.14.61.61,0,0,0-.28.23.62.62,0,0,0,.12.8.92.92,0,0,0,.62.19,1.45,1.45,0,0,0,.72-.18,1.1,1.1,0,0,0,.46-.49,1.69,1.69,0,0,0,.11-.7Z"/><path d="M44.7,58.17V54h.63v.59a1.49,1.49,0,0,1,1.32-.68,1.73,1.73,0,0,1,.69.13,1.08,1.08,0,0,1,.47.35,1.36,1.36,0,0,1,.22.52,4,4,0,0,1,0,.68v2.55h-.7V55.64a1.89,1.89,0,0,0-.08-.64.68.68,0,0,0-.29-.34.93.93,0,0,0-.49-.13,1.14,1.14,0,0,0-.78.29,1.41,1.41,0,0,0-.33,1.08v2.27Z"/><path d="M52,58.17v-.52a1.29,1.29,0,0,1-1.16.62A1.63,1.63,0,0,1,50,58a1.8,1.8,0,0,1-.64-.76,2.64,2.64,0,0,1-.23-1.13A3,3,0,0,1,49.3,55a1.63,1.63,0,0,1,.62-.78,1.66,1.66,0,0,1,.93-.27A1.38,1.38,0,0,1,52,54.5V52.44h.7v5.73ZM49.82,56.1a1.8,1.8,0,0,0,.34,1.19,1,1,0,0,0,.79.39,1,1,0,0,0,.78-.38,1.74,1.74,0,0,0,.32-1.15,2,2,0,0,0-.33-1.25,1,1,0,0,0-.81-.4,1,1,0,0,0-.78.38A1.89,1.89,0,0,0,49.82,56.1Z"/><path d="M54.65,58.17H54V52.44h.7v2a1.39,1.39,0,0,1,1.14-.56,1.74,1.74,0,0,1,.72.15,1.48,1.48,0,0,1,.56.43,2.1,2.1,0,0,1,.35.67,2.77,2.77,0,0,1,.13.84,2.37,2.37,0,0,1-.53,1.65,1.65,1.65,0,0,1-1.27.58,1.32,1.32,0,0,1-1.15-.61Zm0-2.11a2.15,2.15,0,0,0,.2,1.08,1,1,0,0,0,1.7.14,1.82,1.82,0,0,0,.34-1.19,1.85,1.85,0,0,0-.32-1.2,1,1,0,0,0-.78-.39,1,1,0,0,0-.8.4A1.76,1.76,0,0,0,54.64,56.06Z"/><path d="M58.61,59.77l-.08-.66a1.57,1.57,0,0,0,.4.06.77.77,0,0,0,.38-.08.64.64,0,0,0,.23-.22,3.44,3.44,0,0,0,.21-.52l.06-.17L58.25,54H59l.86,2.4q.17.46.3,1a9.46,9.46,0,0,1,.29-.95L61.34,54H62l-1.58,4.22a8.33,8.33,0,0,1-.39.94,1.38,1.38,0,0,1-.43.51,1,1,0,0,1-.58.16A1.41,1.41,0,0,1,58.61,59.77Z"/><path d="M193.73,118.7v-7.87h.65v3.23h2.56v-3.23h.65v7.87h-.65V115h-2.56v3.71Z"/><path d="M199.25,118.7v-7.87h3.57v.93H199.9v2.41h2.73v.92H199.9v2.68h3v.93Z"/><path d="M204.36,118.7v-7.87H205v6.94h2.43v.93Z"/><path d="M208.77,118.7v-7.87h1.86a2.86,2.86,0,0,1,.75.08,1.23,1.23,0,0,1,.61.37,2,2,0,0,1,.4.76,3.66,3.66,0,0,1,.15,1.07,3.36,3.36,0,0,1-.4,1.7,1.53,1.53,0,0,1-1.45.7h-1.26v3.2Zm.65-4.13h1.28a1,1,0,0,0,.9-.37,1.82,1.82,0,0,0,.27-1.06,2.09,2.09,0,0,0-.16-.85.85.85,0,0,0-.41-.46,1.77,1.77,0,0,0-.61-.07h-1.26Z"/><g id="therm_hot" data-name="therm hot"><path d="M26.3,85.29V83.35h2V82h-2V78.71h2V77.33h-2V74.07h2V72.69h-2V69.43h2V68.05h-2v-.32a5.07,5.07,0,0,0-10.14,0V85.29a8.17,8.17,0,1,0,10.14,0ZM21.23,98.2a6.51,6.51,0,0,1-3.77-11.83l.35-.25V67.73a3.42,3.42,0,1,1,6.84,0V86.13l.35.25A6.51,6.51,0,0,1,21.23,98.2Z"/><path d="M24.28,87.38l-.87-.62V83.66H19.05v3.11l-.87.62a5.28,5.28,0,1,0,6.1,0Z"/></g><path d="M8.09,11V3.84h1.5l1.78,5.07q.25.71.36,1.06.13-.39.4-1.15l1.8-5h1.34V11h-1V5l-2.18,6h-.9L9,4.91V11Z" style="fill:#fff"/><path d="M16.09,11,19,3.84h1.07L23.13,11H22l-.88-2.17H18L17.15,11Zm2.17-2.94h2.55l-.78-2q-.36-.9-.53-1.48A8.74,8.74,0,0,1,19.09,6Z" style="fill:#fff"/><path d="M24.17,11V3.84h1l3.95,5.62V3.84h1V11h-1L25.13,5.37V11Z" style="fill:#fff"/><path d="M37,3.84h1V8a4.68,4.68,0,0,1-.26,1.71,2.12,2.12,0,0,1-.93,1,3.41,3.41,0,0,1-1.76.4,3.76,3.76,0,0,1-1.73-.35,2,2,0,0,1-1-1A4.58,4.58,0,0,1,32,8V3.84h1V8a3.86,3.86,0,0,0,.18,1.37,1.34,1.34,0,0,0,.63.68,2.26,2.26,0,0,0,1.08.24,2.14,2.14,0,0,0,1.56-.47A2.63,2.63,0,0,0,37,8Z" style="fill:#fff"/><path d="M39.93,11V3.84H45v.84H40.92V6.9h3.53v.84H40.92V11Z" style="fill:#fff"/><path d="M44.73,11l2.89-7.16h1.07L51.76,11H50.63l-.88-2.17H46.61L45.78,11ZM46.9,8.06h2.55l-.78-2q-.36-.9-.53-1.48A8.74,8.74,0,0,1,47.72,6Z" style="fill:#fff"/><path d="M58,8.49l1,.24a3.17,3.17,0,0,1-1.13,1.78,3.2,3.2,0,0,1-2,.61,3.71,3.71,0,0,1-2-.47,3,3,0,0,1-1.16-1.36,4.67,4.67,0,0,1-.4-1.92,4,4,0,0,1,.45-2A3,3,0,0,1,54,4.15a3.88,3.88,0,0,1,1.82-.43,3.19,3.19,0,0,1,1.9.55A2.84,2.84,0,0,1,58.84,5.8l-1,.22a2.21,2.21,0,0,0-.76-1.14,2.09,2.09,0,0,0-1.25-.36,2.52,2.52,0,0,0-1.45.4A2.1,2.1,0,0,0,53.58,6a4.09,4.09,0,0,0-.24,1.37A4.19,4.19,0,0,0,53.63,9a2,2,0,0,0,.87,1,2.53,2.53,0,0,0,1.28.34,2.21,2.21,0,0,0,1.42-.46A2.33,2.33,0,0,0,58,8.49Z" style="fill:#fff"/><path d="M62.16,11V4.69H59.68V3.84h6v.84H63.15V11Z" style="fill:#fff"/><path d="M71.85,3.84h1V8a4.68,4.68,0,0,1-.26,1.71,2.12,2.12,0,0,1-.93,1,3.41,3.41,0,0,1-1.76.4,3.76,3.76,0,0,1-1.73-.35,2,2,0,0,1-1-1A4.58,4.58,0,0,1,66.94,8V3.84h1V8a3.86,3.86,0,0,0,.18,1.37,1.34,1.34,0,0,0,.63.68,2.26,2.26,0,0,0,1.08.24,2.14,2.14,0,0,0,1.56-.47A2.63,2.63,0,0,0,71.85,8Z" style="fill:#fff"/><path d="M74.78,11V3.84h3.33A4.64,4.64,0,0,1,79.64,4a1.65,1.65,0,0,1,.84.68,2,2,0,0,1,.31,1.08,1.75,1.75,0,0,1-.52,1.28,2.68,2.68,0,0,1-1.6.66,2.6,2.6,0,0,1,.6.36,5,5,0,0,1,.83,1L81.41,11H80.15l-1-1.49q-.44-.64-.72-1A2.21,2.21,0,0,0,77.94,8a1.52,1.52,0,0,0-.45-.19,3.12,3.12,0,0,0-.55,0H75.78V11Zm1-4h2.14A3.36,3.36,0,0,0,79,6.87a1.12,1.12,0,0,0,.78-1.07A1,1,0,0,0,79.38,5a1.88,1.88,0,0,0-1.22-.33H75.78Z" style="fill:#fff"/><path d="M82.42,11V3.84h5.43v.84H83.42V6.88h4.16v.84H83.42v2.44H88V11Z" style="fill:#fff"/><path d="M89.68,11V3.84H93A4.64,4.64,0,0,1,94.54,4a1.65,1.65,0,0,1,.84.68,2,2,0,0,1,.31,1.08,1.75,1.75,0,0,1-.52,1.28,2.68,2.68,0,0,1-1.6.66,2.6,2.6,0,0,1,.6.36,5,5,0,0,1,.83,1L96.31,11H95.06l-1-1.49q-.44-.64-.72-1A2.21,2.21,0,0,0,92.84,8a1.52,1.52,0,0,0-.45-.19,3.12,3.12,0,0,0-.55,0H90.68V11Zm1-4h2.14a3.36,3.36,0,0,0,1.07-.13,1.12,1.12,0,0,0,.78-1.07A1,1,0,0,0,94.28,5a1.88,1.88,0,0,0-1.22-.33H90.68Z" style="fill:#fff"/><path d="M98.17,11.12l2.18-7.4h.74l-2.17,7.4Z" style="fill:#fff"/><path d="M103.18,11V3.84h1.5l1.78,5.07q.25.71.36,1.06.13-.39.4-1.15l1.8-5h1.34V11h-1V5l-2.18,6h-.9l-2.17-6.09V11Z" style="fill:#fff"/><path d="M111.92,7.51a3.78,3.78,0,0,1,1-2.79,3.5,3.5,0,0,1,2.59-1,3.74,3.74,0,0,1,1.88.47,3.16,3.16,0,0,1,1.27,1.32,4.12,4.12,0,0,1,.44,1.92,4.05,4.05,0,0,1-.46,1.95,3.07,3.07,0,0,1-1.31,1.3,3.88,3.88,0,0,1-1.83.44,3.69,3.69,0,0,1-1.9-.49,3.2,3.2,0,0,1-1.27-1.33A3.88,3.88,0,0,1,111.92,7.51Zm1,0a2.78,2.78,0,0,0,.73,2,2.64,2.64,0,0,0,3.68,0,3,3,0,0,0,.72-2.13,3.51,3.51,0,0,0-.31-1.53,2.31,2.31,0,0,0-.91-1,2.55,2.55,0,0,0-1.34-.36,2.61,2.61,0,0,0-1.82.69A3,3,0,0,0,112.94,7.53Z" style="fill:#fff"/><path d="M120.65,11V3.84h2.59a6.59,6.59,0,0,1,1.34.1,2.6,2.6,0,0,1,1.1.51,2.91,2.91,0,0,1,.89,1.22,4.6,4.6,0,0,1,.29,1.7,4.79,4.79,0,0,1-.2,1.45,3.46,3.46,0,0,1-.51,1,2.67,2.67,0,0,1-.68.65,2.88,2.88,0,0,1-.9.36,5.35,5.35,0,0,1-1.21.12Zm1-.84h1.6a4.08,4.08,0,0,0,1.17-.13,1.68,1.68,0,0,0,.67-.37,2.23,2.23,0,0,0,.55-.91,4.25,4.25,0,0,0,.2-1.38,3.19,3.19,0,0,0-.39-1.73,1.92,1.92,0,0,0-.94-.81,4.07,4.07,0,0,0-1.29-.15h-1.58Z" style="fill:#fff"/><path d="M128.52,11V3.84H134v.84h-4.44V6.88h4.16v.84h-4.16v2.44h4.61V11Z" style="fill:#fff"/><path d="M135.72,11V3.84h1v6.31h3.7V11Z" style="fill:#fff"/><path d="M144.82,11V3.84h1V11Z" style="fill:#fff"/><path d="M147.82,11V3.84h1l3.95,5.62V3.84h1V11h-1l-3.95-5.63V11Z" style="fill:#fff"/><path d="M155.52,11V3.84h5.07v.84h-4.08V6.9H160v.84h-3.53V11Z" style="fill:#fff"/><path d="M161.63,7.51a3.78,3.78,0,0,1,1-2.79,3.5,3.5,0,0,1,2.59-1,3.74,3.74,0,0,1,1.88.47,3.16,3.16,0,0,1,1.27,1.32,4.12,4.12,0,0,1,.44,1.92,4.05,4.05,0,0,1-.46,1.95,3.07,3.07,0,0,1-1.31,1.3,3.89,3.89,0,0,1-1.83.44,3.69,3.69,0,0,1-1.9-.49,3.21,3.21,0,0,1-1.27-1.33A3.88,3.88,0,0,1,161.63,7.51Zm1,0a2.78,2.78,0,0,0,.73,2,2.64,2.64,0,0,0,3.68,0,3,3,0,0,0,.73-2.13,3.51,3.51,0,0,0-.31-1.53,2.3,2.3,0,0,0-.91-1,2.55,2.55,0,0,0-1.34-.36,2.61,2.61,0,0,0-1.82.69A3,3,0,0,0,162.66,7.53Z" style="fill:#fff"/><path d="M170.17,11V3.84h3.33A4.65,4.65,0,0,1,175,4a1.65,1.65,0,0,1,.84.68,2,2,0,0,1,.31,1.08,1.76,1.76,0,0,1-.52,1.28,2.69,2.69,0,0,1-1.6.66,2.62,2.62,0,0,1,.6.36,5,5,0,0,1,.83,1L176.79,11h-1.25l-1-1.49q-.44-.64-.72-1a2.21,2.21,0,0,0-.51-.48,1.52,1.52,0,0,0-.45-.19,3.13,3.13,0,0,0-.55,0h-1.15V11Zm1-4h2.14a3.36,3.36,0,0,0,1.07-.13,1.12,1.12,0,0,0,.78-1.07,1,1,0,0,0-.39-.83,1.88,1.88,0,0,0-1.22-.33h-2.38Z" style="fill:#fff"/><path d="M178,11V3.84h1.5l1.78,5.07q.25.71.36,1.06.13-.39.4-1.15l1.8-5h1.34V11h-1V5L182,11h-.9l-2.17-6.09V11Z" style="fill:#fff"/><path d="M186.18,11l2.89-7.16h1.07L193.22,11h-1.13l-.88-2.17h-3.14L187.24,11Zm2.17-2.94h2.55l-.78-2q-.36-.9-.53-1.48A8.74,8.74,0,0,1,189.18,6Z" style="fill:#fff"/><path d="M194.78,11V4.69H192.3V3.84h6v.84h-2.49V11Z" style="fill:#fff"/><path d="M199.71,11V3.84h1V11Z" style="fill:#fff"/><path d="M202.42,7.51a3.78,3.78,0,0,1,1-2.79,3.5,3.5,0,0,1,2.59-1,3.74,3.74,0,0,1,1.88.47,3.16,3.16,0,0,1,1.27,1.32,4.12,4.12,0,0,1,.44,1.92,4.05,4.05,0,0,1-.46,1.95,3.07,3.07,0,0,1-1.31,1.3,3.89,3.89,0,0,1-1.83.44,3.69,3.69,0,0,1-1.9-.49,3.21,3.21,0,0,1-1.27-1.33A3.88,3.88,0,0,1,202.42,7.51Zm1,0a2.78,2.78,0,0,0,.73,2,2.64,2.64,0,0,0,3.68,0,3,3,0,0,0,.73-2.13,3.51,3.51,0,0,0-.31-1.53,2.3,2.3,0,0,0-.91-1A2.55,2.55,0,0,0,206,4.53a2.61,2.61,0,0,0-1.82.69A3,3,0,0,0,203.45,7.53Z" style="fill:#fff"/><path d="M211.14,11V3.84h1l3.95,5.62V3.84h1V11h-1L212.1,5.37V11Z" style="fill:#fff"/><path d="M12.78,118.7v-7.87h1l1.17,5.58q.16.78.24,1.17.08-.43.26-1.26l1.18-5.48h.88v7.87h-.63v-6.59l-1.43,6.59h-.59L13.41,112v6.7Z"/><path d="M19.1,118.7v-7.87h3.57v.93H19.76v2.41h2.73v.92H19.76v2.68h3v.93Z"/><path d="M24.23,118.7v-7.87h.67L27.49,117v-6.18h.63v7.87h-.67l-2.59-6.19v6.19Z"/><path d="M33,110.83h.65v4.55a8.41,8.41,0,0,1-.17,1.88,2.34,2.34,0,0,1-.61,1.14,1.56,1.56,0,0,1-1.15.44,1.67,1.67,0,0,1-1.13-.38,2.12,2.12,0,0,1-.63-1.1,8.16,8.16,0,0,1-.19-2v-4.55h.65v4.54a6.92,6.92,0,0,0,.12,1.51,1.45,1.45,0,0,0,.41.75,1,1,0,0,0,.71.26,1.09,1.09,0,0,0,1-.52,4.42,4.42,0,0,0,.31-2Z"/><rect x="0.53" y="101.87" width="44.92" height="27.98" style="fill:none;stroke:#000;stroke-linecap:round;stroke-linejoin:round;stroke-width:0.9753649999999999px"/><rect x="45.65" y="101.87" width="44.92" height="27.98" style="fill:none"/><rect x="90.57" y="101.87" width="44.92" height="27.98" style="fill:none"/><rect x="180.27" y="101.87" width="44.92" height="27.98" style="fill:none;stroke:#000;stroke-linecap:round;stroke-linejoin:round;stroke-width:0.9753649999999999px"/><rect x="135.36" y="101.87" width="44.92" height="27.98" style="fill:none"/></svg>