<svg id="Layer_1" data-name="Layer 1" xmlns="http://www.w3.org/2000/svg" viewBox="0 0 230.57 153.67"><title>UIM_wmsg_blocked_air_intake</title><rect x="1" y="1" width="228.57" height="151.67" style="fill:#fff;stroke:#000;stroke-miterlimit:10;stroke-width:2px"/><line x1="0.39" y1="51.33" x2="227.52" y2="51.33" style="fill:none;stroke:#000;stroke-miterlimit:10"/><line x1="0.72" y1="114.5" x2="229.39" y2="114.5" style="fill:none;stroke:#000;stroke-miterlimit:10"/><rect x="126.32" y="90.02" width="44.92" height="27.98" style="fill:none"/><rect x="60.07" y="117.19" width="44.92" height="27.98" style="fill:none;stroke:#000;stroke-linecap:round;stroke-linejoin:round;stroke-width:0.9753649999999999px"/><path d="M71.66,133.51v-8.59h2A1.5,1.5,0,0,1,75.25,126a3.1,3.1,0,0,1,.21,1.13,2.86,2.86,0,0,1-.19,1,1.8,1.8,0,0,1-.57.79,1.57,1.57,0,0,1,.75.78,3,3,0,0,1,.26,1.3,3.8,3.8,0,0,1-.16,1.12,2.31,2.31,0,0,1-.39.8,1.49,1.49,0,0,1-.59.42,2.32,2.32,0,0,1-.87.14Zm.71-5h1.16a1.68,1.68,0,0,0,.68-.1.85.85,0,0,0,.41-.43,1.79,1.79,0,0,0,.14-.75,2,2,0,0,0-.13-.75.8.8,0,0,0-.37-.45,2,2,0,0,0-.82-.12H72.37Zm0,4h1.34a2,2,0,0,0,.48,0,.94.94,0,0,0,.41-.23,1.21,1.21,0,0,0,.27-.48A2.24,2.24,0,0,0,75,131a2.09,2.09,0,0,0-.15-.83,1,1,0,0,0-.43-.5,1.73,1.73,0,0,0-.79-.14H72.37Z" transform="translate(-0.33 0.15)"/><path d="M76.72,133.51l2.07-8.59h.77l2.2,8.59h-.81l-.63-2.6H78.06l-.59,2.6ZM78.27,130h1.82l-.56-2.38q-.26-1.08-.38-1.78-.1.83-.29,1.64Z" transform="translate(-0.33 0.15)"/><path d="M86.76,130.5l.71.29a4.6,4.6,0,0,1-.81,2.14,1.75,1.75,0,0,1-1.42.74,1.88,1.88,0,0,1-1.42-.57,3.68,3.68,0,0,1-.83-1.64,8.92,8.92,0,0,1-.29-2.3,7.68,7.68,0,0,1,.32-2.34,3.3,3.3,0,0,1,.91-1.52,1.94,1.94,0,0,1,1.3-.52,1.71,1.71,0,0,1,1.36.66,3.93,3.93,0,0,1,.77,1.85l-.7.26a3.1,3.1,0,0,0-.54-1.37,1.12,1.12,0,0,0-.9-.43,1.33,1.33,0,0,0-1,.47,2.76,2.76,0,0,0-.58,1.27,8,8,0,0,0-.17,1.65,8.09,8.09,0,0,0,.2,1.91,2.46,2.46,0,0,0,.62,1.22,1.3,1.3,0,0,0,.91.4,1.23,1.23,0,0,0,1-.55A3.5,3.5,0,0,0,86.76,130.5Z" transform="translate(-0.33 0.15)"/><path d="M88.92,133.51v-8.59h.71v4.26l2.67-4.26h1L91,128.4l2.36,5.11h-.94l-1.92-4.35-.88,1.37v3Z" transform="translate(-0.33 0.15)"/><path d="M177.5,135.18l2.07-8.59h.77l2.2,8.59h-.81l-.63-2.6h-2.25l-.59,2.6Zm1.55-3.53h1.82l-.56-2.38q-.26-1.08-.38-1.78-.1.83-.29,1.64Z" transform="translate(-0.33 0.15)" style="fill:#202020"/><path d="M183.26,135.18v-8.59h1.85a2.88,2.88,0,0,1,1,.12,1.7,1.7,0,0,1,.79.62,4,4,0,0,1,.64,1.47,8.93,8.93,0,0,1,.21,2,9.46,9.46,0,0,1-.14,1.73,5.67,5.67,0,0,1-.37,1.25,2.86,2.86,0,0,1-.49.78,1.73,1.73,0,0,1-.64.43,2.37,2.37,0,0,1-.86.15Zm.71-1h1.15A1.82,1.82,0,0,0,186,134a1.23,1.23,0,0,0,.48-.45,3.34,3.34,0,0,0,.39-1.09,8.34,8.34,0,0,0,.14-1.66,6,6,0,0,0-.28-2.07,1.9,1.9,0,0,0-.67-1,1.83,1.83,0,0,0-.92-.18H184Z" transform="translate(-0.33 0.15)" style="fill:#202020"/><path d="M190.37,135.18l-2.08-8.59h.77l1.4,6.24q.17.75.28,1.41.13-.7.29-1.41l1.45-6.24h.73l-2.11,8.59Z" transform="translate(-0.33 0.15)" style="fill:#202020"/><path d="M193.26,135.18l2.07-8.59h.77l2.2,8.59h-.81l-.63-2.6H194.6l-.59,2.6Zm1.55-3.53h1.82l-.56-2.38q-.26-1.08-.38-1.78-.1.83-.29,1.64Z" transform="translate(-0.33 0.15)" style="fill:#202020"/><path d="M199.46,135.18v-8.59h.73l2.83,6.74v-6.74h.68v8.59H203l-2.83-6.75v6.75Z" transform="translate(-0.33 0.15)" style="fill:#202020"/><path d="M209.33,132.17l.71.29a4.6,4.6,0,0,1-.81,2.14,1.75,1.75,0,0,1-1.42.74,1.88,1.88,0,0,1-1.42-.57,3.68,3.68,0,0,1-.83-1.64,8.92,8.92,0,0,1-.29-2.3,7.68,7.68,0,0,1,.32-2.34,3.3,3.3,0,0,1,.91-1.52,1.94,1.94,0,0,1,1.3-.52,1.71,1.71,0,0,1,1.36.66,3.93,3.93,0,0,1,.77,1.85l-.7.26a3.1,3.1,0,0,0-.54-1.37,1.12,1.12,0,0,0-.9-.43,1.33,1.33,0,0,0-1,.47,2.76,2.76,0,0,0-.58,1.27,8,8,0,0,0-.17,1.65,8.09,8.09,0,0,0,.2,1.91,2.46,2.46,0,0,0,.62,1.22,1.3,1.3,0,0,0,.91.4,1.23,1.23,0,0,0,1-.55A3.5,3.5,0,0,0,209.33,132.17Z" transform="translate(-0.33 0.15)" style="fill:#202020"/><path d="M211.54,135.18v-8.59h3.89v1h-3.18v2.63h3v1h-3v2.92h3.3v1Z" transform="translate(-0.33 0.15)" style="fill:#202020"/><path d="M217.14,135.18v-8.59H219a2.88,2.88,0,0,1,1,.12,1.7,1.7,0,0,1,.79.62,4,4,0,0,1,.64,1.47,8.93,8.93,0,0,1,.21,2,9.46,9.46,0,0,1-.14,1.73,5.67,5.67,0,0,1-.37,1.25,2.86,2.86,0,0,1-.49.78,1.73,1.73,0,0,1-.64.43,2.37,2.37,0,0,1-.86.15Zm.71-1H219a1.82,1.82,0,0,0,.83-.16,1.23,1.23,0,0,0,.48-.45,3.34,3.34,0,0,0,.39-1.09,8.34,8.34,0,0,0,.14-1.66,6,6,0,0,0-.28-2.07,1.9,1.9,0,0,0-.67-1,1.83,1.83,0,0,0-.92-.18h-1.13Z" transform="translate(-0.33 0.15)" style="fill:#202020"/><rect x="176.22" y="118.02" width="46.6" height="27.98" style="fill:none;stroke:#000;stroke-linecap:round;stroke-linejoin:round;stroke-width:0.9753649999999999px"/><path d="M44,4.85h4.86A14.09,14.09,0,0,1,51,5a3.17,3.17,0,0,1,1.27.5,3.11,3.11,0,0,1,.93,1,2.75,2.75,0,0,1,.37,1.42,2.89,2.89,0,0,1-1.71,2.64,3.2,3.2,0,0,1,1.71,1.1,2.93,2.93,0,0,1,.6,1.83,3.63,3.63,0,0,1-.39,1.61,3.26,3.26,0,0,1-1.05,1.25,3.48,3.48,0,0,1-1.65.58q-.61.07-3,.08H44Zm2.46,2V9.69H48q1.44,0,1.78,0a1.63,1.63,0,0,0,1-.44,1.28,1.28,0,0,0,.36-1,1.33,1.33,0,0,0-.31-.92,1.41,1.41,0,0,0-.93-.43q-.37,0-2.1,0Zm0,4.84V15h2.27a11.12,11.12,0,0,0,1.69-.07,1.52,1.52,0,0,0,.89-.49,1.49,1.49,0,0,0,.34-1,1.59,1.59,0,0,0-.27-.93,1.5,1.5,0,0,0-.77-.56,8.35,8.35,0,0,0-2.18-.17Z" transform="translate(-0.33 0.15)"/><path d="M56.2,17V4.85h2.33V17Z" transform="translate(-0.33 0.15)"/><path d="M60.39,12.49A4.77,4.77,0,0,1,61,10.24a3.93,3.93,0,0,1,1.62-1.66A4.82,4.82,0,0,1,64.93,8a4.4,4.4,0,0,1,3.28,1.3,4.49,4.49,0,0,1,1.28,3.28A4.54,4.54,0,0,1,68.2,15.9a4.36,4.36,0,0,1-3.25,1.32,5.12,5.12,0,0,1-2.31-.55A3.76,3.76,0,0,1,61,15.07,5.35,5.35,0,0,1,60.39,12.49Zm2.39.12a2.92,2.92,0,0,0,.62,2,2,2,0,0,0,3.07,0,3,3,0,0,0,.62-2,2.91,2.91,0,0,0-.62-2,2,2,0,0,0-3.07,0A2.92,2.92,0,0,0,62.78,12.61Z" transform="translate(-0.33 0.15)"/><path d="M79,10.81l-2.3.42a1.67,1.67,0,0,0-.53-1,1.59,1.59,0,0,0-1.07-.35,1.74,1.74,0,0,0-1.39.6,3.08,3.08,0,0,0-.52,2,3.57,3.57,0,0,0,.53,2.22,1.73,1.73,0,0,0,1.42.65,1.57,1.57,0,0,0,1.09-.38,2.27,2.27,0,0,0,.6-1.3l2.29.39a4.06,4.06,0,0,1-1.37,2.38,4.24,4.24,0,0,1-2.71.81A4,4,0,0,1,71.95,16a4.73,4.73,0,0,1-1.15-3.38A4.74,4.74,0,0,1,72,9.22,4.1,4.1,0,0,1,75.07,8a4.25,4.25,0,0,1,2.56.69A3.84,3.84,0,0,1,79,10.81Z" transform="translate(-0.33 0.15)"/><path d="M80.68,17V4.85H83v6.46l2.73-3.1h2.87l-3,3.22L88.84,17H86.32l-2.22-4L83,14.2V17Z" transform="translate(-0.33 0.15)"/><path d="M95.33,14.21l2.32.39a3.82,3.82,0,0,1-1.42,1.95,4.16,4.16,0,0,1-2.42.67,3.94,3.94,0,0,1-3.4-1.5,5,5,0,0,1-.87-3,4.87,4.87,0,0,1,1.15-3.43A3.77,3.77,0,0,1,93.58,8a3.91,3.91,0,0,1,3.1,1.3,5.75,5.75,0,0,1,1.09,4H91.93a2.36,2.36,0,0,0,.56,1.61,1.77,1.77,0,0,0,1.34.58,1.43,1.43,0,0,0,.92-.3A1.85,1.85,0,0,0,95.33,14.21Zm.13-2.36a2.25,2.25,0,0,0-.52-1.54,1.68,1.68,0,0,0-2.47,0A2.15,2.15,0,0,0,92,11.86Z" transform="translate(-0.33 0.15)"/><path d="M107.76,17h-2.17V15.73a3.5,3.5,0,0,1-1.27,1.13,3.27,3.27,0,0,1-1.48.37,3.36,3.36,0,0,1-2.6-1.22,5,5,0,0,1-1.08-3.42,4.92,4.92,0,0,1,1.05-3.41A3.44,3.44,0,0,1,102.87,8a3.3,3.3,0,0,1,2.56,1.23V4.85h2.33Zm-6.23-4.6a4,4,0,0,0,.39,2,1.76,1.76,0,0,0,1.58.91,1.72,1.72,0,0,0,1.37-.68,3.16,3.16,0,0,0,.56-2,3.46,3.46,0,0,0-.55-2.19,1.73,1.73,0,0,0-1.4-.67,1.76,1.76,0,0,0-1.39.66A3,3,0,0,0,101.54,12.42Z" transform="translate(-0.33 0.15)"/><path d="M125.14,17h-2.67l-1.06-2.76h-4.86l-1,2.76h-2.61l4.74-12.17h2.6Zm-4.52-4.81-1.68-4.52-1.64,4.52Z" transform="translate(-0.33 0.15)"/><path d="M126.43,7V4.85h2.33V7Zm0,10V8.2h2.33V17Z" transform="translate(-0.33 0.15)"/><path d="M133.39,17h-2.33V8.2h2.17V9.46a3.77,3.77,0,0,1,1-1.17,1.84,1.84,0,0,1,1-.28,3,3,0,0,1,1.54.44l-.72,2a2,2,0,0,0-1.1-.38,1.3,1.3,0,0,0-.83.27,1.85,1.85,0,0,0-.54,1,13.86,13.86,0,0,0-.2,3Z" transform="translate(-0.33 0.15)"/><path d="M142.43,17V4.85h2.46V17Z" transform="translate(-0.33 0.15)"/><path d="M155.23,17H152.9v-4.5a7,7,0,0,0-.15-1.85,1.3,1.3,0,0,0-.49-.65,1.39,1.39,0,0,0-.81-.23,1.87,1.87,0,0,0-1.09.33,1.67,1.67,0,0,0-.66.88,7.6,7.6,0,0,0-.18,2v4H147.2V8.2h2.17V9.5a3.61,3.61,0,0,1,4.32-1.22,2.37,2.37,0,0,1,1,.71,2.57,2.57,0,0,1,.46,1,7.28,7.28,0,0,1,.13,1.57Z" transform="translate(-0.33 0.15)"/><path d="M161.64,8.2v1.86H160v3.55a8.85,8.85,0,0,0,0,1.26.51.51,0,0,0,.21.29.66.66,0,0,0,.39.12,3,3,0,0,0,.94-.22l.2,1.81a4.63,4.63,0,0,1-1.84.35,2.92,2.92,0,0,1-1.14-.21,1.65,1.65,0,0,1-.74-.55,2.17,2.17,0,0,1-.33-.91,11.48,11.48,0,0,1-.07-1.64V10.06h-1.07V8.2h1.07V6.45L160,5.09V8.2Z" transform="translate(-0.33 0.15)"/><path d="M165,10.89l-2.12-.38a3.3,3.3,0,0,1,1.23-1.89A4.49,4.49,0,0,1,166.7,8a5.58,5.58,0,0,1,2.32.37,2.32,2.32,0,0,1,1.08.94,4.82,4.82,0,0,1,.31,2.09l0,2.72a9.41,9.41,0,0,0,.11,1.71,5,5,0,0,0,.42,1.18h-2.31q-.09-.23-.22-.69c0-.14-.07-.23-.08-.27a4.21,4.21,0,0,1-1.28.87,3.65,3.65,0,0,1-1.45.29,3,3,0,0,1-2.15-.74,2.46,2.46,0,0,1-.79-1.87,2.5,2.5,0,0,1,.36-1.33,2.33,2.33,0,0,1,1-.9,7.79,7.79,0,0,1,1.86-.54,12.66,12.66,0,0,0,2.27-.57V11a1.21,1.21,0,0,0-.33-1,2,2,0,0,0-1.25-.29,1.67,1.67,0,0,0-1,.24A1.71,1.71,0,0,0,165,10.89Zm3.12,1.89a14.51,14.51,0,0,1-1.42.36,4.28,4.28,0,0,0-1.27.41,1,1,0,0,0-.46.82,1.14,1.14,0,0,0,.37.85,1.28,1.28,0,0,0,.93.36,2,2,0,0,0,1.2-.42,1.47,1.47,0,0,0,.56-.77,4.63,4.63,0,0,0,.09-1.14Z" transform="translate(-0.33 0.15)"/><path d="M172.63,17V4.85H175v6.46l2.73-3.1h2.87l-3,3.22L180.78,17h-2.52l-2.22-4L175,14.2V17Z" transform="translate(-0.33 0.15)"/><path d="M187.27,14.21l2.32.39a3.82,3.82,0,0,1-1.42,1.95,4.16,4.16,0,0,1-2.42.67,3.94,3.94,0,0,1-3.4-1.5,5,5,0,0,1-.87-3,4.87,4.87,0,0,1,1.15-3.43A3.77,3.77,0,0,1,185.53,8a3.91,3.91,0,0,1,3.1,1.3,5.75,5.75,0,0,1,1.09,4h-5.84a2.36,2.36,0,0,0,.56,1.61,1.77,1.77,0,0,0,1.35.58,1.43,1.43,0,0,0,.92-.3A1.84,1.84,0,0,0,187.27,14.21Zm.13-2.36a2.25,2.25,0,0,0-.52-1.54,1.68,1.68,0,0,0-2.47,0,2.15,2.15,0,0,0-.49,1.51Z" transform="translate(-0.33 0.15)"/><path d="M59.35,27.18a7.86,7.86,0,0,1,.31-2.45,3.05,3.05,0,0,1,.93-1.43,2.38,2.38,0,0,1,1.56-.5,2.54,2.54,0,0,1,1.21.28,2.32,2.32,0,0,1,.86.8,4.31,4.31,0,0,1,.53,1.28,8.49,8.49,0,0,1,.19,2,7.88,7.88,0,0,1-.31,2.44,3.05,3.05,0,0,1-.93,1.44,2.38,2.38,0,0,1-1.56.51,2.36,2.36,0,0,1-2-.89A5.66,5.66,0,0,1,59.35,27.18Zm1.08,0a5.39,5.39,0,0,0,.5,2.82,1.41,1.41,0,0,0,2.44,0,5.39,5.39,0,0,0,.5-2.81,5.38,5.38,0,0,0-.5-2.82,1.47,1.47,0,0,0-1.23-.7,1.35,1.35,0,0,0-1.16.62A5.45,5.45,0,0,0,60.44,27.18Z" transform="translate(-0.33 0.15)"/><path d="M73.69,31.42v-.79a1.94,1.94,0,0,1-1.74.93,2.44,2.44,0,0,1-1.37-.41,2.7,2.7,0,0,1-1-1.15,4,4,0,0,1-.34-1.69,4.42,4.42,0,0,1,.31-1.69,2.45,2.45,0,0,1,.93-1.16,2.49,2.49,0,0,1,1.39-.4,2.08,2.08,0,0,1,1.72.86V22.83h1v8.59Zm-3.33-3.11a2.7,2.7,0,0,0,.5,1.79,1.52,1.52,0,0,0,1.19.59,1.49,1.49,0,0,0,1.17-.57,2.61,2.61,0,0,0,.48-1.73,2.93,2.93,0,0,0-.49-1.87,1.51,1.51,0,0,0-1.21-.6,1.46,1.46,0,0,0-1.17.57A2.83,2.83,0,0,0,70.36,28.31Z" transform="translate(-0.33 0.15)"/><path d="M80.39,30.65a3.93,3.93,0,0,1-1.13.7,3.26,3.26,0,0,1-1.16.21,2.26,2.26,0,0,1-1.58-.5A1.65,1.65,0,0,1,76,29.78a1.7,1.7,0,0,1,.21-.83,1.72,1.72,0,0,1,.54-.61,2.56,2.56,0,0,1,.76-.35,7.54,7.54,0,0,1,.94-.16,9.64,9.64,0,0,0,1.88-.36q0-.22,0-.28a1.16,1.16,0,0,0-.3-.91,1.77,1.77,0,0,0-1.2-.36,1.86,1.86,0,0,0-1.1.26,1.59,1.59,0,0,0-.52.92l-1-.14a2.56,2.56,0,0,1,.46-1.07,2,2,0,0,1,.93-.63A4.16,4.16,0,0,1,79,25.06a3.74,3.74,0,0,1,1.29.19,1.71,1.71,0,0,1,.73.47,1.66,1.66,0,0,1,.33.72,5.94,5.94,0,0,1,.05,1v1.41a14.93,14.93,0,0,0,.07,1.86,2.35,2.35,0,0,0,.27.75H80.6A2.24,2.24,0,0,1,80.39,30.65ZM80.3,28.3a7.74,7.74,0,0,1-1.72.4,4,4,0,0,0-.92.21.92.92,0,0,0-.42.34.93.93,0,0,0,.17,1.2,1.37,1.37,0,0,0,.93.28,2.18,2.18,0,0,0,1.08-.27,1.64,1.64,0,0,0,.7-.73,2.55,2.55,0,0,0,.17-1.05Z" transform="translate(-0.33 0.15)"/><path d="M83,33.82l-.12-1a2.35,2.35,0,0,0,.6.09A1.16,1.16,0,0,0,84,32.8a1,1,0,0,0,.35-.33,5.17,5.17,0,0,0,.32-.79l.09-.26L82.4,25.2h1.14l1.29,3.6q.25.69.45,1.44a14.19,14.19,0,0,1,.43-1.42l1.33-3.63h1.05l-2.37,6.33a12.42,12.42,0,0,1-.59,1.41,2.08,2.08,0,0,1-.64.76,1.52,1.52,0,0,1-.87.24A2.11,2.11,0,0,1,83,33.82Z" transform="translate(-0.33 0.15)"/><path d="M88.58,29.56l1-.16a1.46,1.46,0,0,0,.49,1,1.71,1.71,0,0,0,1.12.33,1.65,1.65,0,0,0,1.08-.3.88.88,0,0,0,.35-.69.64.64,0,0,0-.31-.56,4.57,4.57,0,0,0-1.08-.36,9.84,9.84,0,0,1-1.61-.51,1.54,1.54,0,0,1-.91-1.43,1.6,1.6,0,0,1,.19-.77,1.71,1.71,0,0,1,.52-.59,2.17,2.17,0,0,1,.67-.31,3.19,3.19,0,0,1,.91-.13,3.6,3.6,0,0,1,1.29.21,1.75,1.75,0,0,1,.82.57,2.23,2.23,0,0,1,.36,1l-1,.14a1.13,1.13,0,0,0-.41-.75,1.49,1.49,0,0,0-1-.27,1.72,1.72,0,0,0-1,.24.7.7,0,0,0-.31.56.58.58,0,0,0,.13.37.93.93,0,0,0,.4.28l.93.27a13,13,0,0,1,1.56.49,1.58,1.58,0,0,1,.69.55,1.55,1.55,0,0,1,.25.9,1.77,1.77,0,0,1-.31,1,2,2,0,0,1-.89.72,3.23,3.23,0,0,1-1.31.25,2.92,2.92,0,0,1-1.85-.5A2.34,2.34,0,0,1,88.58,29.56Z" transform="translate(-0.33 0.15)"/><path d="M98,27.18a7.86,7.86,0,0,1,.31-2.45,3.05,3.05,0,0,1,.93-1.43,2.38,2.38,0,0,1,1.56-.5,2.54,2.54,0,0,1,1.21.28,2.32,2.32,0,0,1,.86.8,4.31,4.31,0,0,1,.53,1.28,8.49,8.49,0,0,1,.19,2,7.88,7.88,0,0,1-.31,2.44,3.05,3.05,0,0,1-.93,1.44,2.38,2.38,0,0,1-1.56.51,2.36,2.36,0,0,1-2-.89A5.66,5.66,0,0,1,98,27.18Zm1.08,0a5.39,5.39,0,0,0,.5,2.82,1.41,1.41,0,0,0,2.44,0,5.39,5.39,0,0,0,.5-2.81,5.38,5.38,0,0,0-.5-2.82,1.47,1.47,0,0,0-1.23-.7,1.35,1.35,0,0,0-1.16.62A5.45,5.45,0,0,0,99.13,27.18Z" transform="translate(-0.33 0.15)"/><path d="M108.34,31.42V22.83h1.05v3.08a2.36,2.36,0,0,1,1.86-.86,2.51,2.51,0,0,1,1.2.27,1.6,1.6,0,0,1,.73.75,3.47,3.47,0,0,1,.22,1.39v3.94h-1.05V27.48a1.63,1.63,0,0,0-.34-1.15,1.27,1.27,0,0,0-1-.36,1.71,1.71,0,0,0-.88.24,1.37,1.37,0,0,0-.59.66A3,3,0,0,0,109.4,28v3.4Z" transform="translate(-0.33 0.15)"/><path d="M115,31.42V25.2H116v.94a2.57,2.57,0,0,1,.67-.87,1.17,1.17,0,0,1,.68-.21,2.06,2.06,0,0,1,1.08.34l-.36,1a1.51,1.51,0,0,0-.77-.23,1,1,0,0,0-.62.21,1.13,1.13,0,0,0-.39.58,4.11,4.11,0,0,0-.18,1.23v3.26Z" transform="translate(-0.33 0.15)"/><path d="M122.06,27.18a7.86,7.86,0,0,1,.31-2.45,3.05,3.05,0,0,1,.93-1.43,2.38,2.38,0,0,1,1.56-.5,2.54,2.54,0,0,1,1.21.28,2.32,2.32,0,0,1,.86.8,4.31,4.31,0,0,1,.53,1.28,8.49,8.49,0,0,1,.19,2,7.88,7.88,0,0,1-.31,2.44,3.05,3.05,0,0,1-.93,1.44,2.38,2.38,0,0,1-1.56.51,2.36,2.36,0,0,1-2-.89A5.66,5.66,0,0,1,122.06,27.18Zm1.08,0a5.39,5.39,0,0,0,.5,2.82,1.41,1.41,0,0,0,2.44,0,5.39,5.39,0,0,0,.5-2.81,5.38,5.38,0,0,0-.5-2.82,1.47,1.47,0,0,0-1.23-.7,1.35,1.35,0,0,0-1.16.62A5.45,5.45,0,0,0,123.14,27.18Z" transform="translate(-0.33 0.15)"/><path d="M132.36,31.42V25.2h.94v.87a2.22,2.22,0,0,1,.78-.74,2.19,2.19,0,0,1,1.11-.28,2,2,0,0,1,1.13.29,1.54,1.54,0,0,1,.62.8,2.23,2.23,0,0,1,1.92-1.09,1.89,1.89,0,0,1,1.42.51,2.19,2.19,0,0,1,.5,1.58v4.27h-1V27.5a2.89,2.89,0,0,0-.1-.91.88.88,0,0,0-.37-.45,1.16,1.16,0,0,0-.63-.17,1.47,1.47,0,0,0-1.09.44,1.92,1.92,0,0,0-.43,1.4v3.62h-1.05v-4a1.78,1.78,0,0,0-.26-1.05A1,1,0,0,0,135,26a1.53,1.53,0,0,0-.82.23,1.33,1.33,0,0,0-.55.69,3.86,3.86,0,0,0-.17,1.3v3.23Z" transform="translate(-0.33 0.15)"/><path d="M142.36,24V22.83h1.05V24Zm0,7.38V25.2h1.05v6.22Z" transform="translate(-0.33 0.15)"/><path d="M145,31.42V25.2H146v.88a2.24,2.24,0,0,1,2-1,2.6,2.6,0,0,1,1,.2,1.63,1.63,0,0,1,.71.53,2,2,0,0,1,.33.78,6,6,0,0,1,.06,1v3.83H149V27.63a2.84,2.84,0,0,0-.12-1,1,1,0,0,0-.44-.51,1.39,1.39,0,0,0-.74-.19,1.71,1.71,0,0,0-1.16.43,2.11,2.11,0,0,0-.49,1.62v3.4Z" transform="translate(-0.33 0.15)"/><path d="M159.09,30.65a3.93,3.93,0,0,1-1.13.7,3.26,3.26,0,0,1-1.16.21,2.26,2.26,0,0,1-1.58-.5,1.65,1.65,0,0,1-.55-1.28,1.7,1.7,0,0,1,.21-.83,1.72,1.72,0,0,1,.54-.61,2.56,2.56,0,0,1,.76-.35,7.54,7.54,0,0,1,.94-.16,9.64,9.64,0,0,0,1.88-.36q0-.22,0-.28a1.16,1.16,0,0,0-.3-.91,1.77,1.77,0,0,0-1.2-.36,1.86,1.86,0,0,0-1.1.26,1.59,1.59,0,0,0-.52.92l-1-.14a2.56,2.56,0,0,1,.46-1.07,2,2,0,0,1,.93-.63,4.16,4.16,0,0,1,1.41-.22,3.74,3.74,0,0,1,1.29.19,1.71,1.71,0,0,1,.73.47,1.66,1.66,0,0,1,.33.72,5.94,5.94,0,0,1,.05,1v1.41a14.93,14.93,0,0,0,.07,1.86,2.35,2.35,0,0,0,.27.75h-1.1A2.24,2.24,0,0,1,159.09,30.65ZM159,28.3a7.74,7.74,0,0,1-1.72.4,4,4,0,0,0-.92.21.92.92,0,0,0-.42.34.93.93,0,0,0,.17,1.2,1.37,1.37,0,0,0,.93.28,2.18,2.18,0,0,0,1.08-.27,1.64,1.64,0,0,0,.7-.73,2.55,2.55,0,0,0,.17-1.05Z" transform="translate(-0.33 0.15)"/><path d="M161.51,31.94l1,.15a1,1,0,0,0,.36.69,1.76,1.76,0,0,0,1.07.29,1.88,1.88,0,0,0,1.13-.29,1.44,1.44,0,0,0,.54-.82,6.74,6.74,0,0,0,.08-1.35,2.17,2.17,0,0,1-1.72.81,2.35,2.35,0,0,1-2-.93,3.57,3.57,0,0,1-.7-2.22,4.13,4.13,0,0,1,.32-1.64,2.58,2.58,0,0,1,.93-1.16,2.52,2.52,0,0,1,1.44-.41,2.23,2.23,0,0,1,1.82.89V25.2h1v5.38a5.1,5.1,0,0,1-.3,2.06,2.16,2.16,0,0,1-.94,1,3.25,3.25,0,0,1-1.58.35,3,3,0,0,1-1.8-.5A1.69,1.69,0,0,1,161.51,31.94Zm.87-3.74a2.7,2.7,0,0,0,.49,1.79,1.6,1.6,0,0,0,2.44,0,2.61,2.61,0,0,0,.49-1.75,2.55,2.55,0,0,0-.51-1.72,1.57,1.57,0,0,0-1.22-.58,1.52,1.52,0,0,0-1.2.57A2.54,2.54,0,0,0,162.38,28.2Z" transform="translate(-0.33 0.15)"/><path d="M168,28.31a3.21,3.21,0,0,1,1-2.56,2.9,2.9,0,0,1,2-.69,2.79,2.79,0,0,1,2.1.84,3.2,3.2,0,0,1,.81,2.32,4.12,4.12,0,0,1-.36,1.89,2.55,2.55,0,0,1-1,1.07,3.05,3.05,0,0,1-1.5.38,2.8,2.8,0,0,1-2.11-.84A3.35,3.35,0,0,1,168,28.31Zm1.08,0a2.65,2.65,0,0,0,.52,1.79,1.74,1.74,0,0,0,2.62,0,2.71,2.71,0,0,0,.52-1.82,2.57,2.57,0,0,0-.52-1.75,1.74,1.74,0,0,0-2.62,0A2.64,2.64,0,0,0,169.06,28.31Z" transform="translate(-0.33 0.15)"/><path d="M61.13,45.82V37.23h6.21v1H62.27v2.63H67v1H62.27v2.92h5.27v1Z" transform="translate(-0.33 0.15)"/><path d="M69,45.82V39.6h.95v.94a2.57,2.57,0,0,1,.67-.87,1.17,1.17,0,0,1,.68-.21,2.06,2.06,0,0,1,1.08.34l-.36,1a1.51,1.51,0,0,0-.77-.23,1,1,0,0,0-.62.21,1.13,1.13,0,0,0-.39.58A4.11,4.11,0,0,0,70,42.56v3.26Z" transform="translate(-0.33 0.15)"/><path d="M73,45.82V39.6h.95v.94a2.57,2.57,0,0,1,.67-.87,1.17,1.17,0,0,1,.68-.21,2.06,2.06,0,0,1,1.08.34l-.36,1a1.51,1.51,0,0,0-.77-.23,1,1,0,0,0-.62.21,1.13,1.13,0,0,0-.39.58A4.11,4.11,0,0,0,74,42.56v3.26Z" transform="translate(-0.33 0.15)"/><path d="M76.58,42.71a3.21,3.21,0,0,1,1-2.56,2.9,2.9,0,0,1,2-.69,2.79,2.79,0,0,1,2.1.84,3.2,3.2,0,0,1,.81,2.32A4.12,4.12,0,0,1,82,44.51a2.55,2.55,0,0,1-1,1.07,3.05,3.05,0,0,1-1.5.38,2.8,2.8,0,0,1-2.11-.84A3.35,3.35,0,0,1,76.58,42.71Zm1.08,0a2.65,2.65,0,0,0,.52,1.79,1.74,1.74,0,0,0,2.62,0,2.71,2.71,0,0,0,.52-1.82,2.57,2.57,0,0,0-.52-1.75,1.74,1.74,0,0,0-2.62,0A2.64,2.64,0,0,0,77.66,42.71Z" transform="translate(-0.33 0.15)"/><path d="M83.63,45.82V39.6h.95v.94a2.57,2.57,0,0,1,.67-.87,1.17,1.17,0,0,1,.68-.21A2.06,2.06,0,0,1,87,39.8l-.36,1a1.51,1.51,0,0,0-.77-.23,1,1,0,0,0-.62.21,1.13,1.13,0,0,0-.39.58,4.11,4.11,0,0,0-.18,1.23v3.26Z" transform="translate(-0.33 0.15)"/><path d="M97.24,42.81l1.14.29a3.83,3.83,0,0,1-1.29,2.14,3.54,3.54,0,0,1-2.27.74,4.08,4.08,0,0,1-2.26-.57,3.53,3.53,0,0,1-1.32-1.64,5.84,5.84,0,0,1-.45-2.3,5.06,5.06,0,0,1,.51-2.34,3.51,3.51,0,0,1,1.46-1.52,4.26,4.26,0,0,1,2.08-.52,3.52,3.52,0,0,1,2.17.66,3.41,3.41,0,0,1,1.22,1.85l-1.12.26a2.65,2.65,0,0,0-.87-1.37,2.31,2.31,0,0,0-1.43-.43,2.78,2.78,0,0,0-1.66.47,2.51,2.51,0,0,0-.93,1.27A5.13,5.13,0,0,0,92,41.45a5.24,5.24,0,0,0,.32,1.91,2.38,2.38,0,0,0,1,1.22,2.79,2.79,0,0,0,1.46.4,2.44,2.44,0,0,0,1.62-.55A2.82,2.82,0,0,0,97.24,42.81Z" transform="translate(-0.33 0.15)"/><path d="M99.25,42.71a3.21,3.21,0,0,1,1-2.56,2.9,2.9,0,0,1,2-.69,2.79,2.79,0,0,1,2.1.84,3.2,3.2,0,0,1,.81,2.32,4.12,4.12,0,0,1-.36,1.89,2.55,2.55,0,0,1-1,1.07,3.05,3.05,0,0,1-1.5.38,2.8,2.8,0,0,1-2.11-.84A3.35,3.35,0,0,1,99.25,42.71Zm1.08,0a2.65,2.65,0,0,0,.52,1.79,1.74,1.74,0,0,0,2.62,0,2.71,2.71,0,0,0,.52-1.82,2.57,2.57,0,0,0-.52-1.75,1.74,1.74,0,0,0-2.62,0A2.64,2.64,0,0,0,100.33,42.71Z" transform="translate(-0.33 0.15)"/><path d="M110.35,45.82V45a1.94,1.94,0,0,1-1.74.93,2.44,2.44,0,0,1-1.37-.41,2.7,2.7,0,0,1-1-1.15,4,4,0,0,1-.34-1.69,4.42,4.42,0,0,1,.31-1.69,2.45,2.45,0,0,1,.93-1.16,2.49,2.49,0,0,1,1.39-.4,2.08,2.08,0,0,1,1.72.86V37.23h1v8.59ZM107,42.71a2.7,2.7,0,0,0,.5,1.79,1.52,1.52,0,0,0,1.19.59,1.49,1.49,0,0,0,1.17-.57,2.61,2.61,0,0,0,.48-1.73,2.93,2.93,0,0,0-.49-1.87,1.51,1.51,0,0,0-1.21-.6,1.46,1.46,0,0,0-1.17.57A2.83,2.83,0,0,0,107,42.71Z" transform="translate(-0.33 0.15)"/><path d="M117.25,43.82l1.09.13a2.66,2.66,0,0,1-1,1.48,3.24,3.24,0,0,1-3.95-.31,3.29,3.29,0,0,1-.8-2.36,3.44,3.44,0,0,1,.81-2.44,2.74,2.74,0,0,1,2.1-.87,2.66,2.66,0,0,1,2,.85,3.38,3.38,0,0,1,.79,2.39q0,.09,0,.28h-4.64a2.39,2.39,0,0,0,.58,1.57,1.73,1.73,0,0,0,1.3.54,1.61,1.61,0,0,0,1-.3A2,2,0,0,0,117.25,43.82Zm-3.46-1.71h3.48a2.11,2.11,0,0,0-.4-1.18,1.62,1.62,0,0,0-1.31-.61,1.68,1.68,0,0,0-1.22.49A1.92,1.92,0,0,0,113.79,42.11Z" transform="translate(-0.33 0.15)"/><path d="M120,40.8V39.6h1.2v1.2Zm0,5v-1.2h1.2v1.2Z" transform="translate(-0.33 0.15)"/><path d="M124.86,45.82l3.3-8.59h1.22l3.52,8.59h-1.29l-1-2.6H127l-.94,2.6Zm2.48-3.53h2.91l-.9-2.38q-.41-1.08-.61-1.78a11,11,0,0,1-.46,1.64Z" transform="translate(-0.33 0.15)"/><path d="M133.45,38.36v-1H139v.82a11.72,11.72,0,0,0-1.63,2.32,14.13,14.13,0,0,0-1.25,3,11.06,11.06,0,0,0-.4,2.36h-1.08a10.53,10.53,0,0,1,.4-2.45,12.86,12.86,0,0,1,1.09-2.77,11.87,11.87,0,0,1,1.51-2.25Z" transform="translate(-0.33 0.15)"/><path d="M140.06,41.58a7.86,7.86,0,0,1,.31-2.45,3.05,3.05,0,0,1,.93-1.43,2.38,2.38,0,0,1,1.56-.5,2.54,2.54,0,0,1,1.21.28,2.32,2.32,0,0,1,.86.8,4.31,4.31,0,0,1,.53,1.28,8.49,8.49,0,0,1,.19,2,7.88,7.88,0,0,1-.31,2.44,3.05,3.05,0,0,1-.93,1.44,2.38,2.38,0,0,1-1.56.51,2.36,2.36,0,0,1-2-.89A5.66,5.66,0,0,1,140.06,41.58Zm1.08,0a5.39,5.39,0,0,0,.5,2.82,1.41,1.41,0,0,0,2.44,0,5.39,5.39,0,0,0,.5-2.81,5.38,5.38,0,0,0-.5-2.82,1.47,1.47,0,0,0-1.23-.7,1.35,1.35,0,0,0-1.16.62A5.45,5.45,0,0,0,141.14,41.58Z" transform="translate(-0.33 0.15)"/><path d="M150.7,45.82h-1.05V39.1a5.45,5.45,0,0,1-1,.73,7.08,7.08,0,0,1-1.11.54v-1a6.37,6.37,0,0,0,1.55-1A4,4,0,0,0,150,37.2h.68Z" transform="translate(-0.33 0.15)"/><path d="M158.95,44.81v1h-5.68a1.87,1.87,0,0,1,.12-.73,3.87,3.87,0,0,1,.69-1.14,10.88,10.88,0,0,1,1.38-1.3,11.7,11.7,0,0,0,1.89-1.82,2.18,2.18,0,0,0,.49-1.27,1.41,1.41,0,0,0-.45-1.06,1.62,1.62,0,0,0-1.17-.43,1.65,1.65,0,0,0-1.22.46,1.73,1.73,0,0,0-.46,1.27l-1.08-.11a2.67,2.67,0,0,1,.84-1.85,2.86,2.86,0,0,1,2-.64,2.72,2.72,0,0,1,2,.69,2.25,2.25,0,0,1,.72,1.7,2.58,2.58,0,0,1-.21,1,3.93,3.93,0,0,1-.7,1,17.06,17.06,0,0,1-1.63,1.51q-.95.8-1.22,1.08a3.47,3.47,0,0,0-.45.57Z" transform="translate(-0.33 0.15)"/><path d="M160.08,41.58a7.86,7.86,0,0,1,.31-2.45,3.05,3.05,0,0,1,.93-1.43,2.38,2.38,0,0,1,1.56-.5,2.54,2.54,0,0,1,1.21.28,2.32,2.32,0,0,1,.86.8,4.31,4.31,0,0,1,.53,1.28,8.49,8.49,0,0,1,.19,2,7.88,7.88,0,0,1-.31,2.44,3.05,3.05,0,0,1-.93,1.44,2.38,2.38,0,0,1-1.56.51,2.36,2.36,0,0,1-2-.89A5.66,5.66,0,0,1,160.08,41.58Zm1.08,0a5.39,5.39,0,0,0,.5,2.82,1.41,1.41,0,0,0,2.44,0,5.39,5.39,0,0,0,.5-2.81,5.38,5.38,0,0,0-.5-2.82,1.47,1.47,0,0,0-1.23-.7,1.35,1.35,0,0,0-1.16.62A5.45,5.45,0,0,0,161.16,41.58Z" transform="translate(-0.33 0.15)"/><path d="M170.72,45.82h-1.05V39.1a5.45,5.45,0,0,1-1,.73,7.08,7.08,0,0,1-1.11.54v-1a6.37,6.37,0,0,0,1.55-1A4,4,0,0,0,170,37.2h.68Z" transform="translate(-0.33 0.15)"/><path d="M41.42,60.06V52.18h3.49a4.66,4.66,0,0,1,1.6.21,1.75,1.75,0,0,1,.88.75,2.24,2.24,0,0,1,.33,1.19,2,2,0,0,1-.54,1.41,2.75,2.75,0,0,1-1.68.73,2.69,2.69,0,0,1,.63.39,5.41,5.41,0,0,1,.86,1l1.37,2.14H47l-1-1.64q-.46-.71-.75-1.08a2.37,2.37,0,0,0-.53-.53,1.58,1.58,0,0,0-.48-.21,3.14,3.14,0,0,0-.58,0H42.46v3.5Zm1-4.4H44.7a3.35,3.35,0,0,0,1.12-.15,1.19,1.19,0,0,0,.61-.47,1.28,1.28,0,0,0,.21-.71,1.17,1.17,0,0,0-.41-.92A1.9,1.9,0,0,0,45,53.05H42.46Z" transform="translate(-0.33 0.15)"/><path d="M53.13,58.22l1,.12a2.44,2.44,0,0,1-.88,1.36,3,3,0,0,1-3.62-.29,3,3,0,0,1-.73-2.16A3.15,3.15,0,0,1,49.64,55a2.51,2.51,0,0,1,1.92-.79,2.44,2.44,0,0,1,1.87.78,3.09,3.09,0,0,1,.73,2.19c0,.06,0,.14,0,.26H49.9a2.19,2.19,0,0,0,.53,1.44,1.58,1.58,0,0,0,1.19.5,1.48,1.48,0,0,0,.91-.28A1.86,1.86,0,0,0,53.13,58.22ZM50,56.66h3.19a1.93,1.93,0,0,0-.37-1.08,1.48,1.48,0,0,0-1.2-.56,1.53,1.53,0,0,0-1.12.45A1.76,1.76,0,0,0,50,56.66Z" transform="translate(-0.33 0.15)"/><path d="M55,58.36l1-.15a1.33,1.33,0,0,0,.45.88,1.56,1.56,0,0,0,1,.31,1.51,1.51,0,0,0,1-.27.81.81,0,0,0,.32-.64.59.59,0,0,0-.28-.52,4.18,4.18,0,0,0-1-.33A9,9,0,0,1,56,57.18a1.41,1.41,0,0,1-.84-1.31,1.47,1.47,0,0,1,.17-.71,1.57,1.57,0,0,1,.48-.54,2,2,0,0,1,.62-.28,2.93,2.93,0,0,1,.83-.12,3.3,3.3,0,0,1,1.18.19,1.6,1.6,0,0,1,.75.52,2.05,2.05,0,0,1,.33.88l-.95.13a1,1,0,0,0-.37-.69,1.36,1.36,0,0,0-.87-.25,1.58,1.58,0,0,0-1,.22.64.64,0,0,0-.28.52.53.53,0,0,0,.12.34.85.85,0,0,0,.37.26l.85.25a11.89,11.89,0,0,1,1.43.45,1.45,1.45,0,0,1,.64.51,1.42,1.42,0,0,1,.23.83,1.62,1.62,0,0,1-.28.91,1.83,1.83,0,0,1-.81.66,3,3,0,0,1-1.2.23,2.68,2.68,0,0,1-1.69-.46A2.15,2.15,0,0,1,55,58.36Z" transform="translate(-0.33 0.15)"/><path d="M63,59.19l.14.85a3.6,3.6,0,0,1-.73.09,1.66,1.66,0,0,1-.82-.17.93.93,0,0,1-.41-.44A3.46,3.46,0,0,1,61,58.39V55.11h-.71v-.75H61V52.94l1-.58v2h1v.75H62v3.34A1.68,1.68,0,0,0,62,59a.4.4,0,0,0,.17.19.65.65,0,0,0,.33.07Z" transform="translate(-0.33 0.15)"/><path d="M63.89,60.06v-5.7h.87v.86a2.37,2.37,0,0,1,.61-.8,1.08,1.08,0,0,1,.62-.19,1.89,1.89,0,0,1,1,.31l-.33.9a1.38,1.38,0,0,0-.71-.21.92.92,0,0,0-.57.19,1,1,0,0,0-.36.53,3.77,3.77,0,0,0-.16,1.13v3Z" transform="translate(-0.33 0.15)"/><path d="M67.57,53.3V52.18h1V53.3Zm0,6.76v-5.7h1v5.7Z" transform="translate(-0.33 0.15)"/><path d="M73.73,58l1,.12a2.47,2.47,0,0,1-.8,1.54,2.33,2.33,0,0,1-1.58.56,2.45,2.45,0,0,1-1.88-.77,3.1,3.1,0,0,1-.71-2.19A4,4,0,0,1,70,55.61a2.13,2.13,0,0,1,.93-1,2.76,2.76,0,0,1,1.36-.35,2.37,2.37,0,0,1,1.52.47A2.15,2.15,0,0,1,74.59,56l-.94.15a1.56,1.56,0,0,0-.48-.86,1.23,1.23,0,0,0-.82-.29,1.5,1.5,0,0,0-1.19.52,2.49,2.49,0,0,0-.46,1.66,2.57,2.57,0,0,0,.44,1.67,1.43,1.43,0,0,0,1.15.52,1.35,1.35,0,0,0,1-.35A1.73,1.73,0,0,0,73.73,58Z" transform="translate(-0.33 0.15)"/><path d="M77.62,59.19l.14.85a3.6,3.6,0,0,1-.73.09,1.66,1.66,0,0,1-.82-.17.93.93,0,0,1-.41-.44,3.46,3.46,0,0,1-.12-1.14V55.11H75v-.75h.71V52.94l1-.58v2h1v.75h-1v3.34a1.68,1.68,0,0,0,.05.53.4.4,0,0,0,.17.19.65.65,0,0,0,.33.07Z" transform="translate(-0.33 0.15)"/><path d="M78.57,53.3V52.18h1V53.3Zm0,6.76v-5.7h1v5.7Z" transform="translate(-0.33 0.15)"/><path d="M80.65,57.21a2.94,2.94,0,0,1,.88-2.35,2.66,2.66,0,0,1,1.79-.63,2.56,2.56,0,0,1,1.92.77A2.93,2.93,0,0,1,86,57.13a3.77,3.77,0,0,1-.33,1.73,2.34,2.34,0,0,1-1,1,2.8,2.8,0,0,1-1.38.35,2.56,2.56,0,0,1-1.94-.77A3.07,3.07,0,0,1,80.65,57.21Zm1,0a2.43,2.43,0,0,0,.48,1.64,1.59,1.59,0,0,0,2.4,0A2.49,2.49,0,0,0,85,57.17a2.36,2.36,0,0,0-.48-1.6,1.59,1.59,0,0,0-2.4,0A2.42,2.42,0,0,0,81.64,57.21Z" transform="translate(-0.33 0.15)"/><path d="M87.12,60.06v-5.7H88v.81a2.05,2.05,0,0,1,1.82-.94,2.37,2.37,0,0,1,.95.19,1.48,1.48,0,0,1,.65.49,1.87,1.87,0,0,1,.3.71,5.55,5.55,0,0,1,.05.94v3.51h-1V56.59a2.61,2.61,0,0,0-.11-.88.93.93,0,0,0-.4-.47,1.27,1.27,0,0,0-.67-.17,1.57,1.57,0,0,0-1.07.39,1.93,1.93,0,0,0-.45,1.49v3.12Z" transform="translate(-0.33 0.15)"/><path d="M96.3,53.3V52.18h1V53.3Zm0,6.76v-5.7h1v5.7Z" transform="translate(-0.33 0.15)"/><path d="M98.74,60.06v-5.7h.87v.81a2.05,2.05,0,0,1,1.82-.94,2.37,2.37,0,0,1,.95.19,1.48,1.48,0,0,1,.65.49,1.87,1.87,0,0,1,.3.71,5.55,5.55,0,0,1,.05.94v3.51h-1V56.59a2.61,2.61,0,0,0-.11-.88.93.93,0,0,0-.4-.47,1.27,1.27,0,0,0-.67-.17,1.57,1.57,0,0,0-1.07.39,1.93,1.93,0,0,0-.45,1.49v3.12Z" transform="translate(-0.33 0.15)"/><path d="M111.64,59.35a3.6,3.6,0,0,1-1,.64,3,3,0,0,1-1.07.19,2.08,2.08,0,0,1-1.44-.46,1.52,1.52,0,0,1-.5-1.17,1.56,1.56,0,0,1,.19-.77,1.58,1.58,0,0,1,.5-.56,2.35,2.35,0,0,1,.7-.32,6.85,6.85,0,0,1,.86-.15,8.87,8.87,0,0,0,1.72-.33c0-.13,0-.22,0-.25a1.06,1.06,0,0,0-.27-.83,1.62,1.62,0,0,0-1.1-.33,1.71,1.71,0,0,0-1,.24,1.46,1.46,0,0,0-.48.85l-.95-.13a2.34,2.34,0,0,1,.42-1,1.86,1.86,0,0,1,.85-.58,3.82,3.82,0,0,1,1.29-.2,3.43,3.43,0,0,1,1.19.17,1.57,1.57,0,0,1,.67.43,1.52,1.52,0,0,1,.3.66,5.46,5.46,0,0,1,0,.89v1.29a13.66,13.66,0,0,0,.06,1.71,2.14,2.14,0,0,0,.24.68h-1A2,2,0,0,1,111.64,59.35Zm-.08-2.16a7.11,7.11,0,0,1-1.58.37,3.63,3.63,0,0,0-.84.19.84.84,0,0,0-.38.31.85.85,0,0,0,.16,1.1,1.26,1.26,0,0,0,.86.26,2,2,0,0,0,1-.24,1.5,1.5,0,0,0,.64-.67,2.34,2.34,0,0,0,.16-1Z" transform="translate(-0.33 0.15)"/><path d="M114,53.3V52.18h1V53.3Zm0,6.76v-5.7h1v5.7Z" transform="translate(-0.33 0.15)"/><path d="M116.47,60.06v-5.7h.87v.86a2.37,2.37,0,0,1,.62-.8,1.07,1.07,0,0,1,.62-.19,1.89,1.89,0,0,1,1,.31l-.33.9a1.38,1.38,0,0,0-.71-.21.92.92,0,0,0-.57.19,1,1,0,0,0-.36.53,3.77,3.77,0,0,0-.16,1.13v3Z" transform="translate(-0.33 0.15)"/><path d="M123.2,53.3V52.18h1V53.3Zm0,6.76v-5.7h1v5.7Z" transform="translate(-0.33 0.15)"/><path d="M125.64,60.06v-5.7h.87v.81a2,2,0,0,1,1.81-.94,2.37,2.37,0,0,1,.95.19,1.49,1.49,0,0,1,.65.49,1.87,1.87,0,0,1,.3.71,5.5,5.5,0,0,1,.05.94v3.51h-1V56.59a2.63,2.63,0,0,0-.11-.88.93.93,0,0,0-.4-.47,1.27,1.27,0,0,0-.67-.17,1.57,1.57,0,0,0-1.07.39,1.93,1.93,0,0,0-.45,1.49v3.12Z" transform="translate(-0.33 0.15)"/><path d="M133.87,59.19,134,60a3.6,3.6,0,0,1-.73.09,1.66,1.66,0,0,1-.82-.17.93.93,0,0,1-.41-.44,3.45,3.45,0,0,1-.12-1.14V55.11h-.71v-.75h.71V52.94l1-.58v2h1v.75h-1v3.34a1.67,1.67,0,0,0,.05.53.4.4,0,0,0,.17.19.65.65,0,0,0,.33.07Z" transform="translate(-0.33 0.15)"/><path d="M138.53,59.35a3.61,3.61,0,0,1-1,.64,3,3,0,0,1-1.07.19,2.08,2.08,0,0,1-1.45-.46,1.52,1.52,0,0,1-.5-1.17,1.59,1.59,0,0,1,.69-1.32,2.35,2.35,0,0,1,.7-.32,6.85,6.85,0,0,1,.86-.15,8.87,8.87,0,0,0,1.72-.33c0-.13,0-.22,0-.25a1.06,1.06,0,0,0-.27-.83,1.62,1.62,0,0,0-1.1-.33,1.71,1.71,0,0,0-1,.24,1.46,1.46,0,0,0-.48.85l-.95-.13a2.33,2.33,0,0,1,.42-1,1.86,1.86,0,0,1,.85-.58,3.83,3.83,0,0,1,1.29-.2,3.43,3.43,0,0,1,1.19.17,1.57,1.57,0,0,1,.67.43,1.52,1.52,0,0,1,.3.66,5.46,5.46,0,0,1,0,.89v1.29a13.66,13.66,0,0,0,.06,1.71,2.14,2.14,0,0,0,.24.68h-1A2,2,0,0,1,138.53,59.35Zm-.08-2.16a7.11,7.11,0,0,1-1.58.37,3.65,3.65,0,0,0-.84.19.84.84,0,0,0-.38.31.83.83,0,0,0-.13.46.82.82,0,0,0,.29.64,1.26,1.26,0,0,0,.86.26,2,2,0,0,0,1-.24,1.51,1.51,0,0,0,.64-.67,2.34,2.34,0,0,0,.16-1Z" transform="translate(-0.33 0.15)"/><path d="M140.93,60.06V52.18h1v4.49l2.29-2.32h1.25l-2.18,2.12,2.4,3.59h-1.19l-1.89-2.92-.68.66v2.26Z" transform="translate(-0.33 0.15)"/><path d="M150.33,58.22l1,.12a2.44,2.44,0,0,1-.87,1.36,3,3,0,0,1-3.62-.29,3,3,0,0,1-.73-2.16,3.15,3.15,0,0,1,.74-2.23,2.51,2.51,0,0,1,1.92-.79,2.44,2.44,0,0,1,1.87.78,3.09,3.09,0,0,1,.73,2.19c0,.06,0,.14,0,.26h-4.25a2.19,2.19,0,0,0,.53,1.44,1.58,1.58,0,0,0,1.19.5,1.48,1.48,0,0,0,.91-.28A1.85,1.85,0,0,0,150.33,58.22Zm-3.17-1.56h3.19a1.93,1.93,0,0,0-.37-1.08,1.48,1.48,0,0,0-1.2-.56,1.54,1.54,0,0,0-1.12.45A1.77,1.77,0,0,0,147.16,56.66Z" transform="translate(-0.33 0.15)"/><path d="M152.82,60.06V59h1.1v1.1Z" transform="translate(-0.33 0.15)"/><path d="M47,70.5l1,.26a3.51,3.51,0,0,1-1.18,2,3.25,3.25,0,0,1-2.08.67,3.74,3.74,0,0,1-2.07-.52,3.24,3.24,0,0,1-1.21-1.5,5.36,5.36,0,0,1-.42-2.11,4.64,4.64,0,0,1,.47-2.15,3.22,3.22,0,0,1,1.34-1.39,3.91,3.91,0,0,1,1.91-.48,3.23,3.23,0,0,1,2,.6,3.12,3.12,0,0,1,1.12,1.69l-1,.24a2.43,2.43,0,0,0-.79-1.25,2.12,2.12,0,0,0-1.31-.39,2.55,2.55,0,0,0-1.52.44,2.3,2.3,0,0,0-.86,1.17,4.71,4.71,0,0,0-.25,1.51A4.8,4.8,0,0,0,42.47,71a2.18,2.18,0,0,0,.91,1.12,2.55,2.55,0,0,0,1.34.37A2.25,2.25,0,0,0,46.2,72,2.58,2.58,0,0,0,47,70.5Z" transform="translate(-0.33 0.15)"/><path d="M49.22,73.26V65.38h1v2.82a2.16,2.16,0,0,1,1.71-.78,2.3,2.3,0,0,1,1.1.25,1.47,1.47,0,0,1,.67.69,3.19,3.19,0,0,1,.2,1.28v3.61h-1V69.64a1.49,1.49,0,0,0-.31-1.06,1.16,1.16,0,0,0-.89-.33,1.57,1.57,0,0,0-.81.22,1.26,1.26,0,0,0-.54.6,2.77,2.77,0,0,0-.16,1.05v3.12Z" transform="translate(-0.33 0.15)"/><path d="M59.25,71.42l1,.12a2.44,2.44,0,0,1-.88,1.36,3,3,0,0,1-3.62-.29A3,3,0,0,1,55,70.45a3.15,3.15,0,0,1,.74-2.23,2.51,2.51,0,0,1,1.92-.79,2.44,2.44,0,0,1,1.87.78,3.09,3.09,0,0,1,.73,2.19c0,.06,0,.14,0,.26H56a2.19,2.19,0,0,0,.53,1.44,1.58,1.58,0,0,0,1.19.5,1.48,1.48,0,0,0,.91-.28A1.85,1.85,0,0,0,59.25,71.42Zm-3.17-1.56h3.19a1.93,1.93,0,0,0-.37-1.08,1.48,1.48,0,0,0-1.2-.56,1.53,1.53,0,0,0-1.12.45A1.76,1.76,0,0,0,56.07,69.86Z" transform="translate(-0.33 0.15)"/><path d="M65.18,71.17l1,.12a2.47,2.47,0,0,1-.8,1.54,2.33,2.33,0,0,1-1.58.56,2.45,2.45,0,0,1-1.88-.77,3.1,3.1,0,0,1-.71-2.19,4,4,0,0,1,.31-1.62,2.13,2.13,0,0,1,.93-1,2.76,2.76,0,0,1,1.36-.35,2.37,2.37,0,0,1,1.52.47A2.15,2.15,0,0,1,66,69.23l-.94.15a1.56,1.56,0,0,0-.48-.87,1.23,1.23,0,0,0-.82-.29,1.5,1.5,0,0,0-1.19.52,2.49,2.49,0,0,0-.46,1.66,2.57,2.57,0,0,0,.44,1.67,1.43,1.43,0,0,0,1.15.52,1.36,1.36,0,0,0,1-.35A1.73,1.73,0,0,0,65.18,71.17Z" transform="translate(-0.33 0.15)"/><path d="M67,73.26V65.38h1v4.49l2.29-2.32h1.25l-2.18,2.12,2.4,3.59H70.5l-1.89-2.92-.68.66v2.26Z" transform="translate(-0.33 0.15)"/><path d="M75.52,66.5V65.38h1V66.5Zm0,6.76v-5.7h1v5.7Z" transform="translate(-0.33 0.15)"/><path d="M78,73.26v-5.7h.87v.81a2.05,2.05,0,0,1,1.82-.94,2.37,2.37,0,0,1,.95.19,1.48,1.48,0,0,1,.65.49,1.86,1.86,0,0,1,.3.71,5.56,5.56,0,0,1,.05.94v3.51h-1V69.79a2.61,2.61,0,0,0-.11-.88.93.93,0,0,0-.4-.47,1.28,1.28,0,0,0-.67-.17,1.56,1.56,0,0,0-1.07.39,1.93,1.93,0,0,0-.45,1.49v3.12Z" transform="translate(-0.33 0.15)"/><path d="M86.19,72.39l.14.85a3.56,3.56,0,0,1-.73.09,1.66,1.66,0,0,1-.82-.17.93.93,0,0,1-.41-.44,3.46,3.46,0,0,1-.12-1.14V68.3h-.71v-.75h.71V66.14l1-.58v2h1v.75h-1v3.34a1.67,1.67,0,0,0,.05.53.4.4,0,0,0,.17.19.65.65,0,0,0,.33.07Z" transform="translate(-0.33 0.15)"/><path d="M90.86,72.55a3.62,3.62,0,0,1-1,.64,3,3,0,0,1-1.07.19,2.08,2.08,0,0,1-1.44-.46,1.52,1.52,0,0,1-.5-1.17A1.56,1.56,0,0,1,87,71a1.58,1.58,0,0,1,.5-.56,2.33,2.33,0,0,1,.7-.32,6.83,6.83,0,0,1,.86-.15,8.81,8.81,0,0,0,1.72-.33c0-.13,0-.22,0-.25a1.07,1.07,0,0,0-.27-.83,1.62,1.62,0,0,0-1.1-.33,1.71,1.71,0,0,0-1,.24,1.46,1.46,0,0,0-.48.85L87,69.18a2.34,2.34,0,0,1,.42-1,1.86,1.86,0,0,1,.85-.57,3.82,3.82,0,0,1,1.29-.2,3.42,3.42,0,0,1,1.19.17,1.56,1.56,0,0,1,.67.43,1.51,1.51,0,0,1,.3.66,5.44,5.44,0,0,1,0,.89v1.29a13.6,13.6,0,0,0,.06,1.71,2.14,2.14,0,0,0,.24.68H91A2.05,2.05,0,0,1,90.86,72.55Zm-.08-2.16a7.15,7.15,0,0,1-1.58.37,3.58,3.58,0,0,0-.84.19.84.84,0,0,0-.38.31.86.86,0,0,0,.16,1.1,1.26,1.26,0,0,0,.86.26,2,2,0,0,0,1-.25,1.5,1.5,0,0,0,.64-.67,2.33,2.33,0,0,0,.16-1Z" transform="translate(-0.33 0.15)"/><path d="M93.26,73.26V65.38h1v4.49l2.29-2.32h1.25l-2.18,2.12L98,73.26H96.79l-1.89-2.92-.68.66v2.26Z" transform="translate(-0.33 0.15)"/><path d="M102.66,71.42l1,.12a2.44,2.44,0,0,1-.88,1.36,3,3,0,0,1-3.62-.29,3,3,0,0,1-.73-2.16,3.15,3.15,0,0,1,.74-2.23,2.51,2.51,0,0,1,1.92-.79,2.44,2.44,0,0,1,1.87.78,3.09,3.09,0,0,1,.73,2.19c0,.06,0,.14,0,.26H99.43a2.19,2.19,0,0,0,.53,1.44,1.58,1.58,0,0,0,1.19.5,1.48,1.48,0,0,0,.91-.28A1.85,1.85,0,0,0,102.66,71.42Zm-3.17-1.56h3.19a1.93,1.93,0,0,0-.37-1.08,1.48,1.48,0,0,0-1.2-.56,1.53,1.53,0,0,0-1.12.45A1.76,1.76,0,0,0,99.48,69.86Z" transform="translate(-0.33 0.15)"/><path d="M107.93,75.44V67.55h.88v.74a2.17,2.17,0,0,1,.7-.65,1.93,1.93,0,0,1,1-.22,2.25,2.25,0,0,1,1.29.38,2.3,2.3,0,0,1,.84,1.06,3.88,3.88,0,0,1,.29,1.5,3.82,3.82,0,0,1-.31,1.58,2.37,2.37,0,0,1-.91,1.07,2.34,2.34,0,0,1-1.26.37,1.81,1.81,0,0,1-.87-.2,2,2,0,0,1-.63-.52v2.78Zm.88-5a2.48,2.48,0,0,0,.45,1.63,1.37,1.37,0,0,0,1.08.53,1.4,1.4,0,0,0,1.1-.54,2.58,2.58,0,0,0,.46-1.69,2.52,2.52,0,0,0-.45-1.63,1.35,1.35,0,0,0-1.07-.54,1.39,1.39,0,0,0-1.09.58A2.58,2.58,0,0,0,108.8,70.44Z" transform="translate(-0.33 0.15)"/><path d="M114,66.5V65.38h1V66.5Zm0,6.76v-5.7h1v5.7Z" transform="translate(-0.33 0.15)"/><path d="M116.49,75.44V67.55h.88v.74a2.17,2.17,0,0,1,.7-.65,1.93,1.93,0,0,1,1-.22,2.25,2.25,0,0,1,1.29.38,2.3,2.3,0,0,1,.84,1.06,3.88,3.88,0,0,1,.29,1.5,3.82,3.82,0,0,1-.31,1.58,2.37,2.37,0,0,1-.91,1.07,2.34,2.34,0,0,1-1.26.37,1.81,1.81,0,0,1-.87-.2,2,2,0,0,1-.63-.52v2.78Zm.88-5a2.48,2.48,0,0,0,.45,1.63,1.36,1.36,0,0,0,1.08.53A1.4,1.4,0,0,0,120,72a2.58,2.58,0,0,0,.46-1.69,2.52,2.52,0,0,0-.45-1.63,1.35,1.35,0,0,0-1.07-.54,1.39,1.39,0,0,0-1.09.58A2.58,2.58,0,0,0,117.36,70.44Z" transform="translate(-0.33 0.15)"/><path d="M126.51,71.42l1,.12a2.44,2.44,0,0,1-.87,1.36,3,3,0,0,1-3.62-.29,3,3,0,0,1-.73-2.16,3.15,3.15,0,0,1,.74-2.23,2.51,2.51,0,0,1,1.92-.79,2.44,2.44,0,0,1,1.87.78,3.09,3.09,0,0,1,.73,2.19c0,.06,0,.14,0,.26h-4.25a2.19,2.19,0,0,0,.53,1.44,1.58,1.58,0,0,0,1.19.5,1.47,1.47,0,0,0,.91-.28A1.85,1.85,0,0,0,126.51,71.42Zm-3.17-1.56h3.19a1.94,1.94,0,0,0-.37-1.08,1.48,1.48,0,0,0-1.2-.56,1.53,1.53,0,0,0-1.12.45A1.77,1.77,0,0,0,123.33,69.86Z" transform="translate(-0.33 0.15)"/><path d="M135.5,72.55a3.64,3.64,0,0,1-1,.64,3,3,0,0,1-1.07.19,2.08,2.08,0,0,1-1.45-.46,1.52,1.52,0,0,1-.5-1.17,1.59,1.59,0,0,1,.69-1.32,2.34,2.34,0,0,1,.7-.32,6.83,6.83,0,0,1,.86-.15,8.83,8.83,0,0,0,1.72-.33c0-.13,0-.22,0-.25a1.06,1.06,0,0,0-.27-.83,1.62,1.62,0,0,0-1.1-.33,1.71,1.71,0,0,0-1,.24,1.46,1.46,0,0,0-.48.85l-.95-.13a2.34,2.34,0,0,1,.42-1,1.87,1.87,0,0,1,.85-.57,3.83,3.83,0,0,1,1.29-.2,3.43,3.43,0,0,1,1.19.17A1.57,1.57,0,0,1,136,68a1.51,1.51,0,0,1,.3.66,5.45,5.45,0,0,1,0,.89v1.29a13.66,13.66,0,0,0,.06,1.71,2.13,2.13,0,0,0,.24.68h-1A2,2,0,0,1,135.5,72.55Zm-.08-2.16a7.16,7.16,0,0,1-1.58.37A3.6,3.6,0,0,0,133,71a.82.82,0,0,0-.52.77.82.82,0,0,0,.29.64,1.26,1.26,0,0,0,.86.26,2,2,0,0,0,1-.25,1.5,1.5,0,0,0,.64-.67,2.34,2.34,0,0,0,.16-1Z" transform="translate(-0.33 0.15)"/><path d="M137.89,73.26v-5.7h.87v.81a2,2,0,0,1,1.81-.94,2.37,2.37,0,0,1,.95.19,1.49,1.49,0,0,1,.65.49,1.86,1.86,0,0,1,.3.71,5.51,5.51,0,0,1,.05.94v3.51h-1V69.79a2.64,2.64,0,0,0-.11-.88.94.94,0,0,0-.4-.47,1.27,1.27,0,0,0-.67-.17,1.56,1.56,0,0,0-1.07.39,1.93,1.93,0,0,0-.45,1.49v3.12Z" transform="translate(-0.33 0.15)"/><path d="M147.71,73.26v-.72a1.77,1.77,0,0,1-1.6.85,2.24,2.24,0,0,1-1.25-.38,2.47,2.47,0,0,1-.89-1,3.62,3.62,0,0,1-.31-1.55,4.06,4.06,0,0,1,.28-1.55,2.25,2.25,0,0,1,.85-1.07,2.28,2.28,0,0,1,1.27-.37,1.91,1.91,0,0,1,1.57.78V65.38h1v7.87Zm-3.06-2.85a2.48,2.48,0,0,0,.46,1.64,1.39,1.39,0,0,0,1.09.54,1.37,1.37,0,0,0,1.08-.52,2.39,2.39,0,0,0,.44-1.58,2.68,2.68,0,0,0-.45-1.72,1.39,1.39,0,0,0-1.11-.55,1.34,1.34,0,0,0-1.08.53A2.6,2.6,0,0,0,144.66,70.41Z" transform="translate(-0.33 0.15)"/><path d="M155.3,72.39l.14.85a3.57,3.57,0,0,1-.73.09,1.66,1.66,0,0,1-.82-.17.93.93,0,0,1-.41-.44,3.45,3.45,0,0,1-.12-1.14V68.3h-.71v-.75h.71V66.14l1-.58v2h1v.75h-1v3.34a1.67,1.67,0,0,0,.05.53.4.4,0,0,0,.17.19.65.65,0,0,0,.33.07Z" transform="translate(-0.33 0.15)"/><path d="M160.15,71.42l1,.12a2.44,2.44,0,0,1-.87,1.36,3,3,0,0,1-3.62-.29,3,3,0,0,1-.73-2.16,3.15,3.15,0,0,1,.74-2.23,2.51,2.51,0,0,1,1.92-.79,2.44,2.44,0,0,1,1.87.78,3.09,3.09,0,0,1,.73,2.19c0,.06,0,.14,0,.26h-4.25a2.19,2.19,0,0,0,.53,1.44,1.58,1.58,0,0,0,1.19.5,1.47,1.47,0,0,0,.91-.28A1.85,1.85,0,0,0,160.15,71.42ZM157,69.86h3.19a1.94,1.94,0,0,0-.37-1.08,1.48,1.48,0,0,0-1.2-.56,1.53,1.53,0,0,0-1.12.45A1.77,1.77,0,0,0,157,69.86Z" transform="translate(-0.33 0.15)"/><path d="M162.35,73.26v-5.7h.87v.86a2.37,2.37,0,0,1,.62-.8,1.07,1.07,0,0,1,.62-.19,1.89,1.89,0,0,1,1,.31l-.33.9a1.38,1.38,0,0,0-.71-.21.92.92,0,0,0-.57.19,1,1,0,0,0-.36.53,3.77,3.77,0,0,0-.16,1.13v3Z" transform="translate(-0.33 0.15)"/><path d="M166,73.26v-5.7h.87v.8a2,2,0,0,1,.71-.67,2,2,0,0,1,1-.25,1.88,1.88,0,0,1,1,.26,1.41,1.41,0,0,1,.57.74,2,2,0,0,1,1.76-1,1.74,1.74,0,0,1,1.31.47,2,2,0,0,1,.46,1.45v3.92h-1V69.66a2.66,2.66,0,0,0-.09-.84.8.8,0,0,0-.34-.41,1.06,1.06,0,0,0-.58-.16,1.35,1.35,0,0,0-1,.4,1.76,1.76,0,0,0-.4,1.28v3.31h-1V69.55a1.63,1.63,0,0,0-.24-1,.89.89,0,0,0-.77-.32,1.41,1.41,0,0,0-.75.21,1.22,1.22,0,0,0-.5.63A3.54,3.54,0,0,0,167,70.3v3Z" transform="translate(-0.33 0.15)"/><path d="M175.19,66.5V65.38h1V66.5Zm0,6.76v-5.7h1v5.7Z" transform="translate(-0.33 0.15)"/><path d="M177.63,73.26v-5.7h.87v.81a2,2,0,0,1,1.81-.94,2.37,2.37,0,0,1,.95.19,1.49,1.49,0,0,1,.65.49,1.86,1.86,0,0,1,.3.71,5.51,5.51,0,0,1,.05.94v3.51h-1V69.79a2.64,2.64,0,0,0-.11-.88.94.94,0,0,0-.4-.47,1.27,1.27,0,0,0-.67-.17,1.56,1.56,0,0,0-1.07.39,1.93,1.93,0,0,0-.45,1.49v3.12Z" transform="translate(-0.33 0.15)"/><path d="M187.47,72.55a3.64,3.64,0,0,1-1,.64,3,3,0,0,1-1.07.19,2.08,2.08,0,0,1-1.45-.46,1.52,1.52,0,0,1-.5-1.17,1.59,1.59,0,0,1,.69-1.32,2.34,2.34,0,0,1,.7-.32,6.83,6.83,0,0,1,.86-.15,8.83,8.83,0,0,0,1.72-.33c0-.13,0-.22,0-.25a1.06,1.06,0,0,0-.27-.83,1.62,1.62,0,0,0-1.1-.33,1.71,1.71,0,0,0-1,.24,1.46,1.46,0,0,0-.48.85l-.95-.13a2.34,2.34,0,0,1,.42-1,1.87,1.87,0,0,1,.85-.57,3.83,3.83,0,0,1,1.29-.2,3.43,3.43,0,0,1,1.19.17A1.57,1.57,0,0,1,188,68a1.51,1.51,0,0,1,.3.66,5.45,5.45,0,0,1,0,.89v1.29a13.66,13.66,0,0,0,.06,1.71,2.13,2.13,0,0,0,.24.68h-1A2,2,0,0,1,187.47,72.55Zm-.08-2.16a7.16,7.16,0,0,1-1.58.37A3.6,3.6,0,0,0,185,71a.82.82,0,0,0-.52.77.82.82,0,0,0,.29.64,1.26,1.26,0,0,0,.86.26,2,2,0,0,0,1-.25,1.5,1.5,0,0,0,.64-.67,2.34,2.34,0,0,0,.16-1Z" transform="translate(-0.33 0.15)"/><path d="M192,72.39l.14.85a3.57,3.57,0,0,1-.73.09,1.66,1.66,0,0,1-.82-.17.93.93,0,0,1-.41-.44,3.45,3.45,0,0,1-.12-1.14V68.3h-.71v-.75H190V66.14l1-.58v2h1v.75h-1v3.34a1.67,1.67,0,0,0,.05.53.4.4,0,0,0,.17.19.65.65,0,0,0,.33.07Z" transform="translate(-0.33 0.15)"/><path d="M192.93,66.5V65.38h1V66.5Zm0,6.76v-5.7h1v5.7Z" transform="translate(-0.33 0.15)"/><path d="M195,70.41a2.94,2.94,0,0,1,.88-2.35,2.66,2.66,0,0,1,1.79-.63,2.56,2.56,0,0,1,1.92.77,2.93,2.93,0,0,1,.75,2.13,3.77,3.77,0,0,1-.33,1.73,2.34,2.34,0,0,1-1,1,2.8,2.8,0,0,1-1.38.35,2.56,2.56,0,0,1-1.94-.77A3.07,3.07,0,0,1,195,70.41Zm1,0a2.43,2.43,0,0,0,.48,1.64,1.59,1.59,0,0,0,2.4,0,2.49,2.49,0,0,0,.48-1.67,2.36,2.36,0,0,0-.48-1.6,1.59,1.59,0,0,0-2.4,0A2.42,2.42,0,0,0,196,70.41Z" transform="translate(-0.33 0.15)"/><path d="M201.48,73.26v-5.7h.87v.81a2,2,0,0,1,1.81-.94,2.37,2.37,0,0,1,.95.19,1.49,1.49,0,0,1,.65.49,1.86,1.86,0,0,1,.3.71,5.51,5.51,0,0,1,.05.94v3.51h-1V69.79a2.64,2.64,0,0,0-.11-.88.94.94,0,0,0-.4-.47,1.27,1.27,0,0,0-.67-.17,1.56,1.56,0,0,0-1.07.39,1.93,1.93,0,0,0-.45,1.49v3.12Z" transform="translate(-0.33 0.15)"/><path d="M41.51,86.46v-5h-.85v-.75h.85v-.61a2.66,2.66,0,0,1,.1-.85,1.24,1.24,0,0,1,.49-.61,1.77,1.77,0,0,1,1-.23,4.74,4.74,0,0,1,.9.1l-.15.84a3.31,3.31,0,0,0-.57-.05.84.84,0,0,0-.62.19,1,1,0,0,0-.18.7v.53h1.11v.75H42.47v5Z" transform="translate(-0.33 0.15)"/><path d="M44,83.61a2.94,2.94,0,0,1,.88-2.35,2.66,2.66,0,0,1,1.79-.63,2.56,2.56,0,0,1,1.92.77,2.94,2.94,0,0,1,.75,2.13A3.77,3.77,0,0,1,49,85.26a2.34,2.34,0,0,1-1,1,2.8,2.8,0,0,1-1.38.35,2.57,2.57,0,0,1-1.94-.77A3.07,3.07,0,0,1,44,83.61Zm1,0a2.43,2.43,0,0,0,.48,1.64,1.59,1.59,0,0,0,2.4,0,2.49,2.49,0,0,0,.48-1.67,2.36,2.36,0,0,0-.48-1.6,1.59,1.59,0,0,0-2.4,0A2.42,2.42,0,0,0,45,83.61Z" transform="translate(-0.33 0.15)"/><path d="M50.44,86.46v-5.7h.87v.87a2.36,2.36,0,0,1,.61-.8,1.08,1.08,0,0,1,.62-.19,1.89,1.89,0,0,1,1,.31l-.33.9a1.38,1.38,0,0,0-.71-.21.92.92,0,0,0-.57.19,1,1,0,0,0-.36.53,3.77,3.77,0,0,0-.16,1.13v3Z" transform="translate(-0.33 0.15)"/><path d="M58.07,86.46h-.9V78.58h1v2.81a1.91,1.91,0,0,1,1.56-.77,2.41,2.41,0,0,1,1,.21,2,2,0,0,1,.77.6,2.88,2.88,0,0,1,.48.93,3.81,3.81,0,0,1,.17,1.16,3.26,3.26,0,0,1-.73,2.27,2.27,2.27,0,0,1-1.74.8,1.82,1.82,0,0,1-1.58-.84Zm0-2.89A3,3,0,0,0,58.33,85a1.38,1.38,0,0,0,2.33.2,2.5,2.5,0,0,0,.46-1.64A2.55,2.55,0,0,0,60.68,82a1.35,1.35,0,0,0-1.07-.53,1.39,1.39,0,0,0-1.1.55A2.42,2.42,0,0,0,58.05,83.56Z" transform="translate(-0.33 0.15)"/><path d="M63.27,86.46V78.58h1v7.87Z" transform="translate(-0.33 0.15)"/><path d="M65.38,83.61a2.94,2.94,0,0,1,.88-2.35,2.66,2.66,0,0,1,1.79-.63,2.56,2.56,0,0,1,1.92.77,2.94,2.94,0,0,1,.75,2.13,3.77,3.77,0,0,1-.33,1.73,2.34,2.34,0,0,1-1,1,2.8,2.8,0,0,1-1.38.35,2.57,2.57,0,0,1-1.94-.77A3.07,3.07,0,0,1,65.38,83.61Zm1,0a2.43,2.43,0,0,0,.48,1.64,1.59,1.59,0,0,0,2.4,0,2.49,2.49,0,0,0,.48-1.67,2.36,2.36,0,0,0-.48-1.6,1.59,1.59,0,0,0-2.4,0A2.42,2.42,0,0,0,66.37,83.61Z" transform="translate(-0.33 0.15)"/><path d="M75.58,84.37l1,.12a2.47,2.47,0,0,1-.8,1.54,2.33,2.33,0,0,1-1.58.56,2.45,2.45,0,0,1-1.88-.77,3.1,3.1,0,0,1-.71-2.19A4,4,0,0,1,71.86,82a2.13,2.13,0,0,1,.93-1,2.76,2.76,0,0,1,1.36-.35,2.37,2.37,0,0,1,1.52.47,2.16,2.16,0,0,1,.76,1.33l-.94.15a1.56,1.56,0,0,0-.48-.87,1.23,1.23,0,0,0-.82-.29,1.5,1.5,0,0,0-1.19.52,2.49,2.49,0,0,0-.46,1.66A2.57,2.57,0,0,0,73,85.27a1.43,1.43,0,0,0,1.15.52,1.36,1.36,0,0,0,1-.35A1.73,1.73,0,0,0,75.58,84.37Z" transform="translate(-0.33 0.15)"/><path d="M77.36,86.46V78.58h1v4.49l2.29-2.32h1.25l-2.18,2.12,2.4,3.59H80.89L79,83.54l-.68.66v2.26Z" transform="translate(-0.33 0.15)"/><path d="M86.58,85.75a3.62,3.62,0,0,1-1,.64,3,3,0,0,1-1.07.19A2.08,2.08,0,0,1,83,86.13a1.52,1.52,0,0,1-.5-1.17,1.56,1.56,0,0,1,.19-.77,1.58,1.58,0,0,1,.5-.56,2.33,2.33,0,0,1,.7-.32,6.83,6.83,0,0,1,.86-.15,8.81,8.81,0,0,0,1.72-.33c0-.13,0-.22,0-.25a1.07,1.07,0,0,0-.27-.83,1.62,1.62,0,0,0-1.1-.33,1.71,1.71,0,0,0-1,.24,1.46,1.46,0,0,0-.48.85l-.95-.13a2.34,2.34,0,0,1,.42-1,1.86,1.86,0,0,1,.85-.58,3.82,3.82,0,0,1,1.29-.2,3.43,3.43,0,0,1,1.19.17,1.57,1.57,0,0,1,.67.43,1.52,1.52,0,0,1,.3.66,5.44,5.44,0,0,1,0,.89v1.29a13.6,13.6,0,0,0,.06,1.71,2.14,2.14,0,0,0,.24.68h-1A2.05,2.05,0,0,1,86.58,85.75Zm-.08-2.16a7.15,7.15,0,0,1-1.58.37,3.58,3.58,0,0,0-.84.19.84.84,0,0,0-.38.31.86.86,0,0,0,.16,1.1,1.26,1.26,0,0,0,.86.26,2,2,0,0,0,1-.25,1.5,1.5,0,0,0,.64-.67,2.33,2.33,0,0,0,.16-1Z" transform="translate(-0.33 0.15)"/><path d="M88.79,86.93l.94.14a.89.89,0,0,0,.33.63A1.6,1.6,0,0,0,91,88a1.72,1.72,0,0,0,1-.27,1.32,1.32,0,0,0,.49-.75,6.17,6.17,0,0,0,.07-1.24,2,2,0,0,1-1.58.75,2.15,2.15,0,0,1-1.82-.85,3.27,3.27,0,0,1-.64-2,3.79,3.79,0,0,1,.3-1.51A2.36,2.36,0,0,1,89.75,81a2.32,2.32,0,0,1,1.32-.38,2,2,0,0,1,1.67.82v-.69h.89v4.93a4.66,4.66,0,0,1-.27,1.89,2,2,0,0,1-.86.88,3,3,0,0,1-1.45.32,2.73,2.73,0,0,1-1.65-.46A1.55,1.55,0,0,1,88.79,86.93Zm.8-3.43A2.47,2.47,0,0,0,90,85.14a1.47,1.47,0,0,0,2.23,0,2.39,2.39,0,0,0,.45-1.61A2.34,2.34,0,0,0,92.26,82a1.44,1.44,0,0,0-1.12-.53,1.39,1.39,0,0,0-1.1.52A2.32,2.32,0,0,0,89.59,83.5Z" transform="translate(-0.33 0.15)"/><path d="M99,84.62l1,.12a2.44,2.44,0,0,1-.88,1.36,3,3,0,0,1-3.62-.29,3,3,0,0,1-.73-2.16,3.15,3.15,0,0,1,.74-2.23,2.51,2.51,0,0,1,1.92-.79,2.44,2.44,0,0,1,1.87.78,3.09,3.09,0,0,1,.73,2.19c0,.06,0,.14,0,.26H95.77a2.19,2.19,0,0,0,.53,1.44,1.58,1.58,0,0,0,1.19.5,1.48,1.48,0,0,0,.91-.28A1.85,1.85,0,0,0,99,84.62Zm-3.17-1.56H99A1.93,1.93,0,0,0,98.64,82a1.48,1.48,0,0,0-1.2-.56,1.53,1.53,0,0,0-1.12.45A1.76,1.76,0,0,0,95.82,83.06Z" transform="translate(-0.33 0.15)"/><path d="M101.48,86.46v-1.1h1.1v1.1Z" transform="translate(-0.33 0.15)"/><path d="M41.4,112.86V105h3a7.1,7.1,0,0,1,1.2.08,2.36,2.36,0,0,1,1,.37,1.93,1.93,0,0,1,.63.76,2.56,2.56,0,0,1-.4,2.77,3.07,3.07,0,0,1-2.31.7h-2v3.2Zm1-4.13h2a2.16,2.16,0,0,0,1.43-.38,1.34,1.34,0,0,0,.42-1.06,1.42,1.42,0,0,0-.25-.85,1.17,1.17,0,0,0-.66-.46,4.42,4.42,0,0,0-1-.07h-2Z" transform="translate(-0.33 0.15)"/><path d="M48.61,112.86v-5.7h.87V108a2.37,2.37,0,0,1,.61-.8,1.08,1.08,0,0,1,.62-.19,1.88,1.88,0,0,1,1,.31l-.33.9a1.38,1.38,0,0,0-.71-.21.92.92,0,0,0-.57.19,1,1,0,0,0-.36.53,3.77,3.77,0,0,0-.16,1.13v3Z" transform="translate(-0.33 0.15)"/><path d="M56.19,111l1,.12a2.44,2.44,0,0,1-.88,1.36,3,3,0,0,1-3.62-.29,3,3,0,0,1-.73-2.16,3.15,3.15,0,0,1,.74-2.23,2.51,2.51,0,0,1,1.92-.79,2.44,2.44,0,0,1,1.87.78,3.1,3.1,0,0,1,.73,2.19c0,.06,0,.14,0,.26H53a2.19,2.19,0,0,0,.53,1.44,1.58,1.58,0,0,0,1.19.5,1.48,1.48,0,0,0,.91-.28A1.86,1.86,0,0,0,56.19,111ZM53,109.46H56.2a1.93,1.93,0,0,0-.37-1.08,1.48,1.48,0,0,0-1.2-.56,1.54,1.54,0,0,0-1.12.45A1.77,1.77,0,0,0,53,109.46Z" transform="translate(-0.33 0.15)"/><path d="M58,111.15l1-.15a1.33,1.33,0,0,0,.45.88,1.56,1.56,0,0,0,1,.31,1.51,1.51,0,0,0,1-.27.81.81,0,0,0,.32-.64.59.59,0,0,0-.28-.52,4.17,4.17,0,0,0-1-.33A9,9,0,0,1,59,110a1.41,1.41,0,0,1-.84-1.31,1.47,1.47,0,0,1,.17-.71,1.56,1.56,0,0,1,.48-.54,2,2,0,0,1,.62-.28,2.91,2.91,0,0,1,.83-.12,3.3,3.3,0,0,1,1.18.19,1.6,1.6,0,0,1,.75.52,2.05,2.05,0,0,1,.33.88l-.95.13a1,1,0,0,0-.37-.69,1.36,1.36,0,0,0-.87-.25,1.58,1.58,0,0,0-1,.22.64.64,0,0,0-.28.52.54.54,0,0,0,.12.34.86.86,0,0,0,.37.26l.85.25a11.89,11.89,0,0,1,1.43.45,1.45,1.45,0,0,1,.64.51,1.42,1.42,0,0,1,.23.83,1.62,1.62,0,0,1-.28.91,1.83,1.83,0,0,1-.81.66,3,3,0,0,1-1.2.23,2.68,2.68,0,0,1-1.69-.46A2.15,2.15,0,0,1,58,111.15Z" transform="translate(-0.33 0.15)"/><path d="M63.51,111.15l1-.15a1.33,1.33,0,0,0,.45.88,1.56,1.56,0,0,0,1,.31,1.51,1.51,0,0,0,1-.27.81.81,0,0,0,.32-.64.59.59,0,0,0-.28-.52,4.17,4.17,0,0,0-1-.33,9,9,0,0,1-1.47-.46,1.41,1.41,0,0,1-.84-1.31,1.47,1.47,0,0,1,.17-.71,1.56,1.56,0,0,1,.48-.54,2,2,0,0,1,.62-.28,2.91,2.91,0,0,1,.83-.12,3.3,3.3,0,0,1,1.18.19,1.6,1.6,0,0,1,.75.52,2.05,2.05,0,0,1,.33.88l-.95.13a1,1,0,0,0-.37-.69,1.36,1.36,0,0,0-.87-.25,1.58,1.58,0,0,0-1,.22.64.64,0,0,0-.28.52.54.54,0,0,0,.12.34.86.86,0,0,0,.37.26l.85.25a11.89,11.89,0,0,1,1.43.45,1.45,1.45,0,0,1,.64.51,1.42,1.42,0,0,1,.23.83,1.62,1.62,0,0,1-.28.91,1.83,1.83,0,0,1-.81.66A3,3,0,0,1,66,113a2.68,2.68,0,0,1-1.69-.46A2.15,2.15,0,0,1,63.51,111.15Z" transform="translate(-0.33 0.15)"/><path d="M74.57,112l.14.85a3.63,3.63,0,0,1-.73.09,1.65,1.65,0,0,1-.82-.17.93.93,0,0,1-.41-.44,3.47,3.47,0,0,1-.12-1.14v-3.28h-.71v-.75h.71v-1.41l1-.58v2h1v.75h-1v3.33a1.68,1.68,0,0,0,.05.53.4.4,0,0,0,.17.19.64.64,0,0,0,.33.07Z" transform="translate(-0.33 0.15)"/><path d="M75.51,112.86V105h1v2.83a2.16,2.16,0,0,1,1.71-.78,2.3,2.3,0,0,1,1.1.25A1.47,1.47,0,0,1,80,108a3.19,3.19,0,0,1,.2,1.28v3.62h-1v-3.62a1.49,1.49,0,0,0-.31-1.05,1.17,1.17,0,0,0-.89-.33,1.56,1.56,0,0,0-.81.22,1.26,1.26,0,0,0-.54.6,2.78,2.78,0,0,0-.16,1.05v3.12Z" transform="translate(-0.33 0.15)"/><path d="M85.53,111l1,.12a2.44,2.44,0,0,1-.88,1.36,3,3,0,0,1-3.62-.29,3,3,0,0,1-.73-2.16,3.15,3.15,0,0,1,.74-2.23A2.51,2.51,0,0,1,84,107a2.44,2.44,0,0,1,1.87.78,3.1,3.1,0,0,1,.73,2.19c0,.06,0,.14,0,.26H82.31a2.19,2.19,0,0,0,.53,1.44,1.58,1.58,0,0,0,1.19.5,1.48,1.48,0,0,0,.91-.28A1.86,1.86,0,0,0,85.53,111Zm-3.17-1.56h3.19a1.93,1.93,0,0,0-.37-1.08,1.48,1.48,0,0,0-1.2-.56,1.54,1.54,0,0,0-1.12.45A1.77,1.77,0,0,0,82.36,109.46Z" transform="translate(-0.33 0.15)"/><path d="M89.45,112.86l3-7.87H93.6l3.22,7.87H95.64l-.92-2.38H91.43l-.86,2.38Zm2.27-3.23H94.4l-.82-2.18q-.38-1-.56-1.63a10,10,0,0,1-.42,1.5Z" transform="translate(-0.33 0.15)"/><path d="M101.23,112.86v-.72a1.78,1.78,0,0,1-1.6.85,2.24,2.24,0,0,1-1.25-.38,2.47,2.47,0,0,1-.89-1,3.63,3.63,0,0,1-.31-1.55,4.05,4.05,0,0,1,.28-1.55,2.25,2.25,0,0,1,.85-1.07,2.28,2.28,0,0,1,1.27-.37,1.9,1.9,0,0,1,1.57.78V105h1v7.87ZM98.18,110a2.47,2.47,0,0,0,.46,1.64,1.39,1.39,0,0,0,1.09.54,1.37,1.37,0,0,0,1.08-.52,2.39,2.39,0,0,0,.44-1.58,2.68,2.68,0,0,0-.45-1.72,1.39,1.39,0,0,0-1.11-.55,1.34,1.34,0,0,0-1.08.53A2.6,2.6,0,0,0,98.18,110Z" transform="translate(-0.33 0.15)"/><path d="M105.23,112.86l-2.17-5.7h1l1.22,3.42q.2.55.37,1.15.13-.45.36-1.08l1.27-3.48h1l-2.16,5.7Z" transform="translate(-0.33 0.15)"/><path d="M112.87,112.15a3.59,3.59,0,0,1-1,.64,3,3,0,0,1-1.07.19,2.08,2.08,0,0,1-1.45-.46,1.52,1.52,0,0,1-.5-1.17,1.56,1.56,0,0,1,.19-.77,1.58,1.58,0,0,1,.5-.56,2.36,2.36,0,0,1,.7-.32,6.88,6.88,0,0,1,.86-.14,8.9,8.9,0,0,0,1.72-.33c0-.13,0-.22,0-.25a1.06,1.06,0,0,0-.27-.83,1.61,1.61,0,0,0-1.1-.33,1.71,1.71,0,0,0-1,.24,1.46,1.46,0,0,0-.48.85l-.95-.13a2.34,2.34,0,0,1,.42-1,1.86,1.86,0,0,1,.85-.58,3.82,3.82,0,0,1,1.29-.2,3.41,3.41,0,0,1,1.19.17,1.56,1.56,0,0,1,.67.43,1.52,1.52,0,0,1,.3.66,5.46,5.46,0,0,1,0,.89v1.29a13.67,13.67,0,0,0,.06,1.71,2.15,2.15,0,0,0,.24.68h-1A2,2,0,0,1,112.87,112.15Zm-.08-2.16a7.05,7.05,0,0,1-1.58.37,3.69,3.69,0,0,0-.84.19.85.85,0,0,0-.38.31.85.85,0,0,0,.16,1.1,1.26,1.26,0,0,0,.86.26,2,2,0,0,0,1-.24,1.51,1.51,0,0,0,.64-.67,2.34,2.34,0,0,0,.16-1Z" transform="translate(-0.33 0.15)"/><path d="M115.27,112.86v-5.7h.87V108A2,2,0,0,1,118,107a2.37,2.37,0,0,1,.95.19,1.49,1.49,0,0,1,.65.49,1.87,1.87,0,0,1,.3.71,5.49,5.49,0,0,1,.05.94v3.51h-1v-3.47a2.63,2.63,0,0,0-.11-.88.93.93,0,0,0-.4-.47,1.26,1.26,0,0,0-.67-.17,1.57,1.57,0,0,0-1.07.39,1.94,1.94,0,0,0-.45,1.49v3.12Z" transform="translate(-0.33 0.15)"/><path d="M125.11,110.77l1,.12a2.47,2.47,0,0,1-.8,1.54,2.33,2.33,0,0,1-1.58.56,2.45,2.45,0,0,1-1.88-.77,3.1,3.1,0,0,1-.71-2.19,4,4,0,0,1,.31-1.62,2.13,2.13,0,0,1,.93-1,2.76,2.76,0,0,1,1.36-.35,2.36,2.36,0,0,1,1.52.47,2.15,2.15,0,0,1,.76,1.33L125,109a1.56,1.56,0,0,0-.48-.86,1.23,1.23,0,0,0-.83-.29,1.5,1.5,0,0,0-1.19.52,2.49,2.49,0,0,0-.46,1.66,2.57,2.57,0,0,0,.44,1.67,1.44,1.44,0,0,0,1.15.52,1.35,1.35,0,0,0,1-.35A1.74,1.74,0,0,0,125.11,110.77Z" transform="translate(-0.33 0.15)"/><path d="M130.79,111l1,.12a2.44,2.44,0,0,1-.87,1.36,3,3,0,0,1-3.62-.29,3,3,0,0,1-.73-2.16,3.15,3.15,0,0,1,.74-2.23,2.51,2.51,0,0,1,1.92-.79,2.44,2.44,0,0,1,1.87.78,3.09,3.09,0,0,1,.73,2.19c0,.06,0,.14,0,.26h-4.25a2.19,2.19,0,0,0,.53,1.44,1.58,1.58,0,0,0,1.19.5,1.48,1.48,0,0,0,.91-.28A1.85,1.85,0,0,0,130.79,111Zm-3.17-1.56h3.19a1.93,1.93,0,0,0-.37-1.08,1.48,1.48,0,0,0-1.2-.56,1.54,1.54,0,0,0-1.12.45A1.77,1.77,0,0,0,127.61,109.46Z" transform="translate(-0.33 0.15)"/><path d="M136.7,112.86v-.72a1.77,1.77,0,0,1-1.6.85,2.24,2.24,0,0,1-1.25-.38,2.47,2.47,0,0,1-.89-1,3.63,3.63,0,0,1-.31-1.55,4.06,4.06,0,0,1,.28-1.55,2.25,2.25,0,0,1,.85-1.07,2.28,2.28,0,0,1,1.27-.37,1.9,1.9,0,0,1,1.57.78V105h1v7.87ZM133.65,110a2.47,2.47,0,0,0,.46,1.64,1.39,1.39,0,0,0,1.09.54,1.37,1.37,0,0,0,1.08-.52,2.39,2.39,0,0,0,.44-1.58,2.68,2.68,0,0,0-.45-1.72,1.39,1.39,0,0,0-1.11-.55,1.34,1.34,0,0,0-1.08.53A2.6,2.6,0,0,0,133.65,110Z" transform="translate(-0.33 0.15)"/><path d="M143.07,112.86h-.9V105h1v2.81a1.91,1.91,0,0,1,1.56-.77,2.39,2.39,0,0,1,1,.21,2,2,0,0,1,.77.6,2.88,2.88,0,0,1,.47.93,3.81,3.81,0,0,1,.17,1.16,3.26,3.26,0,0,1-.72,2.27,2.27,2.27,0,0,1-1.74.8,1.82,1.82,0,0,1-1.58-.84Zm0-2.9a3,3,0,0,0,.28,1.48,1.38,1.38,0,0,0,2.33.2,2.5,2.5,0,0,0,.46-1.64,2.55,2.55,0,0,0-.44-1.65,1.35,1.35,0,0,0-1.07-.53,1.39,1.39,0,0,0-1.1.55A2.41,2.41,0,0,0,143.06,110Z" transform="translate(-0.33 0.15)"/><path d="M152,112.86V112a2.09,2.09,0,0,1-1.81,1,2.3,2.3,0,0,1-.94-.19,1.55,1.55,0,0,1-.65-.49,1.83,1.83,0,0,1-.3-.72,4.94,4.94,0,0,1-.06-.9v-3.53h1v3.16a5.65,5.65,0,0,0,.06,1,1,1,0,0,0,.39.6,1.2,1.2,0,0,0,.73.22,1.59,1.59,0,0,0,.82-.22,1.24,1.24,0,0,0,.54-.61,3.06,3.06,0,0,0,.16-1.12v-3.06h1v5.7Z" transform="translate(-0.33 0.15)"/><path d="M156.52,112l.14.85a3.64,3.64,0,0,1-.73.09,1.65,1.65,0,0,1-.82-.17.93.93,0,0,1-.41-.44,3.45,3.45,0,0,1-.12-1.14v-3.28h-.71v-.75h.71v-1.41l1-.58v2h1v.75h-1v3.33a1.67,1.67,0,0,0,.05.53.4.4,0,0,0,.17.19.64.64,0,0,0,.33.07Z" transform="translate(-0.33 0.15)"/><path d="M159.58,112l.14.85a3.64,3.64,0,0,1-.73.09,1.65,1.65,0,0,1-.82-.17.93.93,0,0,1-.41-.44,3.45,3.45,0,0,1-.12-1.14v-3.28h-.71v-.75h.71v-1.41l1-.58v2h1v.75h-1v3.33a1.67,1.67,0,0,0,.05.53.4.4,0,0,0,.17.19.64.64,0,0,0,.33.07Z" transform="translate(-0.33 0.15)"/><path d="M160.16,110a2.94,2.94,0,0,1,.88-2.35,2.65,2.65,0,0,1,1.79-.63,2.56,2.56,0,0,1,1.92.77,2.93,2.93,0,0,1,.75,2.13,3.77,3.77,0,0,1-.33,1.73,2.33,2.33,0,0,1-1,1,2.79,2.79,0,0,1-1.38.35,2.56,2.56,0,0,1-1.94-.77A3.07,3.07,0,0,1,160.16,110Zm1,0a2.43,2.43,0,0,0,.48,1.64,1.59,1.59,0,0,0,2.4,0,2.49,2.49,0,0,0,.48-1.67,2.36,2.36,0,0,0-.48-1.6,1.59,1.59,0,0,0-2.4,0A2.42,2.42,0,0,0,161.16,110Z" transform="translate(-0.33 0.15)"/><path d="M166.64,112.86v-5.7h.87V108a2,2,0,0,1,1.81-.94,2.37,2.37,0,0,1,.95.19,1.49,1.49,0,0,1,.65.49,1.87,1.87,0,0,1,.3.71,5.49,5.49,0,0,1,.05.94v3.51h-1v-3.47a2.63,2.63,0,0,0-.11-.88.93.93,0,0,0-.4-.47,1.26,1.26,0,0,0-.67-.17,1.57,1.57,0,0,0-1.07.39,1.94,1.94,0,0,0-.45,1.49v3.12Z" transform="translate(-0.33 0.15)"/><path d="M176,112.86v-5h-.85v-.75H176v-.61a2.64,2.64,0,0,1,.1-.85,1.23,1.23,0,0,1,.49-.61,1.76,1.76,0,0,1,1-.23,4.73,4.73,0,0,1,.9.1l-.14.84a3.22,3.22,0,0,0-.57-.05.85.85,0,0,0-.62.19,1,1,0,0,0-.18.7v.53h1.11v.75H177v5Z" transform="translate(-0.33 0.15)"/><path d="M178.51,110a2.94,2.94,0,0,1,.88-2.35,2.65,2.65,0,0,1,1.79-.63,2.56,2.56,0,0,1,1.92.77,2.93,2.93,0,0,1,.75,2.13,3.77,3.77,0,0,1-.33,1.73,2.33,2.33,0,0,1-1,1,2.79,2.79,0,0,1-1.38.35,2.56,2.56,0,0,1-1.94-.77A3.07,3.07,0,0,1,178.51,110Zm1,0a2.43,2.43,0,0,0,.48,1.64,1.59,1.59,0,0,0,2.4,0,2.49,2.49,0,0,0,.48-1.67,2.36,2.36,0,0,0-.48-1.6,1.59,1.59,0,0,0-2.4,0A2.42,2.42,0,0,0,179.51,110Z" transform="translate(-0.33 0.15)"/><path d="M185,112.86v-5.7h.87V108a2.37,2.37,0,0,1,.62-.8,1.07,1.07,0,0,1,.62-.19,1.88,1.88,0,0,1,1,.31l-.33.9A1.38,1.38,0,0,0,187,108a.92.92,0,0,0-.57.19,1,1,0,0,0-.36.53,3.77,3.77,0,0,0-.16,1.13v3Z" transform="translate(-0.33 0.15)"/><path d="M16.61,74.12,15.37,61.4V55.52h5.2V61.4L19.33,74.12Zm-1,6.46v-4.8h4.8v4.8Z" transform="translate(-0.33 0.15)"/><rect x="211.39" y="52.17" width="16.67" height="60.83" style="fill:#7e7e7e;stroke:#000;stroke-width:0.9753649999999999px"/><rect x="212.72" y="70.28" width="14" height="14.05" style="stroke:#000;stroke-width:0.9753649999999999px"/><rect x="211.39" y="52.67" width="16" height="15.29" style="fill:none;stroke:#000;stroke-width:0.9753649999999999px"/><polygon points="219.9 53.48 213.07 59.15 226.72 59.15 219.9 53.48" style="fill:#020202;stroke:#000;stroke-linecap:round;stroke-miterlimit:10"/><rect x="211.39" y="96.55" width="16" height="15.95" style="fill:none;stroke:#000;stroke-width:0.9753649999999999px"/><polygon points="219.4 111 212.57 105.34 226.22 105.34 219.4 111" style="fill:#020202;stroke:#000;stroke-linecap:round;stroke-miterlimit:10"/></svg>