<svg id="Layer_1" data-name="Layer 1" xmlns="http://www.w3.org/2000/svg" viewBox="0 0 225.68 130.33"><title>UIM_restore_factory_defaults_menu</title><rect x="0.52" y="0.5" width="224.67" height="129.31" style="fill:none;stroke:#000"/><rect x="0.51" y="101.87" width="224.67" height="27.94" style="fill:none"/><rect x="0.49" y="101.87" width="44.99" height="27.91" style="fill:none;stroke:#000;stroke-linecap:round;stroke-linejoin:round;stroke-width:0.9753649999999999px"/><rect x="90.58" y="101.87" width="44.92" height="27.98" style="fill:none"/><rect x="176.46" y="101.87" width="48.71" height="27.98" style="fill:none;stroke:#000;stroke-linecap:round;stroke-linejoin:round;stroke-width:0.9753649999999999px"/><rect x="135.38" y="101.87" width="41.22" height="27.98" style="fill:none"/><line x1="0.54" y1="101.87" x2="225.05" y2="101.87" style="fill:none;stroke:#000;stroke-linecap:round;stroke-linejoin:round;stroke-width:0.9753649999999999px"/><path d="M195.29,118.84V111h.91l3.51,6.18V111h.85v7.87h-.91l-3.52-6.19v6.19Z" style="fill:#231f20"/><path d="M202.39,116a3.23,3.23,0,0,1,.75-2.35,2.06,2.06,0,0,1,1.52-.63,2,2,0,0,1,1.63.77,3.26,3.26,0,0,1,.63,2.13,4.35,4.35,0,0,1-.28,1.73,2.21,2.21,0,0,1-.82,1,2.1,2.1,0,0,1-1.17.35,2,2,0,0,1-1.65-.77A3.42,3.42,0,0,1,202.39,116Zm.84,0a2.73,2.73,0,0,0,.41,1.64,1.23,1.23,0,0,0,2,0,2.81,2.81,0,0,0,.41-1.67,2.65,2.65,0,0,0-.41-1.6,1.23,1.23,0,0,0-2,0A2.72,2.72,0,0,0,203.24,116Z" style="fill:#231f20"/><path d="M17.58,118.84v-3.34L15,111h1.08l1.32,2.37c.24.44.47.89.68,1.33q.3-.62.73-1.39L20.1,111h1l-2.67,4.54v3.34Z"/><path d="M25.51,117l.85.12a2.51,2.51,0,0,1-.74,1.36,2,2,0,0,1-1.39.48,2.05,2.05,0,0,1-1.69-.77,3.35,3.35,0,0,1-.62-2.16,3.52,3.52,0,0,1,.63-2.23,2,2,0,0,1,1.63-.79,1.94,1.94,0,0,1,1.59.78,3.45,3.45,0,0,1,.62,2.19c0,.06,0,.14,0,.26H22.77a2.42,2.42,0,0,0,.45,1.44,1.25,1.25,0,0,0,1,.5,1.14,1.14,0,0,0,.77-.28A1.89,1.89,0,0,0,25.51,117Zm-2.7-1.56h2.71a2.15,2.15,0,0,0-.31-1.08,1.19,1.19,0,0,0-1-.56,1.21,1.21,0,0,0-1,.45A1.93,1.93,0,0,0,22.82,115.44Z"/><path d="M28.19,117.14,29,117a1.42,1.42,0,0,0,.38.88,1.19,1.19,0,0,0,.87.31,1.15,1.15,0,0,0,.84-.27.87.87,0,0,0,.27-.64.62.62,0,0,0-.24-.52,3.2,3.2,0,0,0-.84-.33A6.82,6.82,0,0,1,29,116a1.3,1.3,0,0,1-.53-.54,1.64,1.64,0,0,1-.18-.77,1.67,1.67,0,0,1,.15-.71,1.51,1.51,0,0,1,.4-.54,1.59,1.59,0,0,1,.52-.28,2.14,2.14,0,0,1,.71-.12,2.43,2.43,0,0,1,1,.19,1.39,1.39,0,0,1,.64.52,2.28,2.28,0,0,1,.28.88l-.8.13a1.09,1.09,0,0,0-.32-.69,1,1,0,0,0-.74-.25,1.19,1.19,0,0,0-.81.22.68.68,0,0,0-.24.52.59.59,0,0,0,.1.34.73.73,0,0,0,.32.26l.73.25a9.08,9.08,0,0,1,1.22.45,1.3,1.3,0,0,1,.54.51,1.6,1.6,0,0,1,.2.83,1.83,1.83,0,0,1-.24.91,1.63,1.63,0,0,1-.69.66,2.2,2.2,0,0,1-1,.23,2,2,0,0,1-1.44-.46A2.27,2.27,0,0,1,28.19,117.14Z"/><rect x="16.3" y="54.69" width="5.74" height="18.4"/><circle cx="19.25" cy="78.89" r="3.68"/><path d="M49.89,14.33V3.13h4.57a5.64,5.64,0,0,1,2.1.3A2.36,2.36,0,0,1,57.7,4.5a3.4,3.4,0,0,1,.43,1.69,3,3,0,0,1-.71,2,3.48,3.48,0,0,1-2.19,1A3.51,3.51,0,0,1,56,9.8a7.59,7.59,0,0,1,1.13,1.49l1.79,3H57.26L55.89,12q-.6-1-1-1.54a3.23,3.23,0,0,0-.69-.75,2,2,0,0,0-.62-.3,3.74,3.74,0,0,0-.76-.05H51.25v5Zm1.36-6.26h2.93a4.06,4.06,0,0,0,1.46-.21,1.58,1.58,0,0,0,.8-.67,1.93,1.93,0,0,0,.27-1,1.74,1.74,0,0,0-.53-1.31,2.35,2.35,0,0,0-1.68-.51H51.25Z"/><path d="M66.37,11.72l1.31.18a3.51,3.51,0,0,1-1.15,1.93,3.65,3.65,0,0,1-4.74-.41,4.52,4.52,0,0,1-1-3.08,4.73,4.73,0,0,1,1-3.18A3.16,3.16,0,0,1,64.33,6a3.07,3.07,0,0,1,2.45,1.11,4.64,4.64,0,0,1,.95,3.12c0,.08,0,.2,0,.37H62.15a3.28,3.28,0,0,0,.7,2,2,2,0,0,0,1.56.71,1.83,1.83,0,0,0,1.19-.4A2.66,2.66,0,0,0,66.37,11.72ZM62.22,9.5h4.17A2.9,2.9,0,0,0,65.91,8a1.88,1.88,0,0,0-1.57-.79,1.93,1.93,0,0,0-1.47.63A2.62,2.62,0,0,0,62.22,9.5Z"/><path d="M70.21,11.91l1.25-.21A2,2,0,0,0,72,13a1.94,1.94,0,0,0,1.35.44A1.87,1.87,0,0,0,74.69,13a1.19,1.19,0,0,0,.42-.91.86.86,0,0,0-.37-.73,5.21,5.21,0,0,0-1.29-.47,11.21,11.21,0,0,1-1.93-.66,1.93,1.93,0,0,1-.82-.77,2.18,2.18,0,0,1-.28-1.09,2.23,2.23,0,0,1,.23-1,2.18,2.18,0,0,1,.62-.77,2.53,2.53,0,0,1,.81-.4A3.55,3.55,0,0,1,73.17,6a4,4,0,0,1,1.54.28,2.11,2.11,0,0,1,1,.75,3.07,3.07,0,0,1,.44,1.26l-1.24.18a1.51,1.51,0,0,0-.49-1,1.69,1.69,0,0,0-1.14-.35A1.94,1.94,0,0,0,72,7.48a.94.94,0,0,0-.37.73.8.8,0,0,0,.15.48,1.12,1.12,0,0,0,.49.37q.19.08,1.12.35a14.79,14.79,0,0,1,1.87.64,1.94,1.94,0,0,1,.83.72,2.14,2.14,0,0,1,.3,1.18A2.46,2.46,0,0,1,75,14.19a3.61,3.61,0,0,1-1.58.33,3.31,3.31,0,0,1-2.22-.66A3.14,3.14,0,0,1,70.21,11.91Z"/><path d="M82.12,13.1l.18,1.21a4.31,4.31,0,0,1-1,.12,2,2,0,0,1-1.07-.24,1.29,1.29,0,0,1-.53-.62A5.33,5.33,0,0,1,79.59,12V7.29h-.93V6.22h.93v-2l1.26-.83V6.22h1.27V7.29H80.85V12a2.57,2.57,0,0,0,.07.76.56.56,0,0,0,.22.27.79.79,0,0,0,.43.1A3.74,3.74,0,0,0,82.12,13.1Z"/><path d="M84.33,10.28a4.38,4.38,0,0,1,1.15-3.34A3.31,3.31,0,0,1,87.83,6a3.22,3.22,0,0,1,2.52,1.1,4.39,4.39,0,0,1,1,3,5.77,5.77,0,0,1-.43,2.46A3.22,3.22,0,0,1,89.64,14a3.44,3.44,0,0,1-1.8.5,3.23,3.23,0,0,1-2.54-1.09A4.61,4.61,0,0,1,84.33,10.28Zm1.3,0a3.66,3.66,0,0,0,.63,2.33,2,2,0,0,0,3.14,0A3.76,3.76,0,0,0,90,10.23,3.55,3.55,0,0,0,89.4,8a2,2,0,0,0-3.14,0A3.65,3.65,0,0,0,85.63,10.28Z"/><path d="M94.24,14.33V6.22h1.14V7.45a3.33,3.33,0,0,1,.81-1.14A1.33,1.33,0,0,1,97,6a2.33,2.33,0,0,1,1.3.44l-.44,1.28a1.7,1.7,0,0,0-.93-.3,1.14,1.14,0,0,0-.75.27,1.48,1.48,0,0,0-.47.75,5.79,5.79,0,0,0-.21,1.6v4.25Z"/><path d="M105.6,11.72l1.31.18a3.51,3.51,0,0,1-1.15,1.93,3.65,3.65,0,0,1-4.74-.41,4.52,4.52,0,0,1-1-3.08,4.73,4.73,0,0,1,1-3.18A3.16,3.16,0,0,1,103.56,6,3.07,3.07,0,0,1,106,7.14a4.64,4.64,0,0,1,.95,3.12c0,.08,0,.2,0,.37h-5.57a3.28,3.28,0,0,0,.7,2,2,2,0,0,0,1.56.71,1.83,1.83,0,0,0,1.19-.4A2.66,2.66,0,0,0,105.6,11.72ZM101.45,9.5h4.17A2.9,2.9,0,0,0,105.14,8a1.88,1.88,0,0,0-1.57-.79,1.93,1.93,0,0,0-1.47.63A2.62,2.62,0,0,0,101.45,9.5Z"/><path d="M115.55,14.33V3.13h3.55a7.94,7.94,0,0,1,1.84.16,3.39,3.39,0,0,1,1.51.8A4.59,4.59,0,0,1,123.67,6a8.1,8.1,0,0,1,.4,2.66,8.43,8.43,0,0,1-.27,2.26,5.7,5.7,0,0,1-.7,1.63,3.92,3.92,0,0,1-.94,1,3.66,3.66,0,0,1-1.23.56,6.47,6.47,0,0,1-1.66.19ZM116.91,13h2.2a4.94,4.94,0,0,0,1.6-.21,2.25,2.25,0,0,0,.92-.58,3.61,3.61,0,0,0,.76-1.42,7.49,7.49,0,0,0,.27-2.16,5.59,5.59,0,0,0-.53-2.7,2.76,2.76,0,0,0-1.29-1.26,5,5,0,0,0-1.77-.23h-2.17Z"/><path d="M131.77,11.72l1.31.18a3.52,3.52,0,0,1-1.15,1.93,3.65,3.65,0,0,1-4.74-.41,4.52,4.52,0,0,1-1-3.08,4.74,4.74,0,0,1,1-3.18A3.16,3.16,0,0,1,129.72,6a3.08,3.08,0,0,1,2.45,1.11,4.65,4.65,0,0,1,.95,3.12c0,.08,0,.2,0,.37h-5.57a3.28,3.28,0,0,0,.7,2,2,2,0,0,0,1.56.71A1.84,1.84,0,0,0,131,13,2.66,2.66,0,0,0,131.77,11.72ZM127.61,9.5h4.17A2.9,2.9,0,0,0,131.3,8a1.88,1.88,0,0,0-1.57-.79,1.93,1.93,0,0,0-1.47.63A2.62,2.62,0,0,0,127.61,9.5Z"/><path d="M136.12,14.33v-7H135V6.22h1.12V5.36a4.1,4.1,0,0,1,.13-1.22,1.74,1.74,0,0,1,.64-.87,2.18,2.18,0,0,1,1.29-.33,5.72,5.72,0,0,1,1.18.14l-.19,1.2a3.93,3.93,0,0,0-.75-.08,1.05,1.05,0,0,0-.82.27,1.54,1.54,0,0,0-.24,1v.75h1.46V7.29h-1.46v7Z"/><path d="M146.14,13.33a4.68,4.68,0,0,1-1.35.92,3.65,3.65,0,0,1-1.4.27,2.58,2.58,0,0,1-1.89-.65,2.25,2.25,0,0,1-.66-1.67,2.37,2.37,0,0,1,.25-1.09,2.18,2.18,0,0,1,.65-.79,3,3,0,0,1,.91-.45,8.46,8.46,0,0,1,1.13-.21A10.72,10.72,0,0,0,146,9.18c0-.19,0-.31,0-.36a1.6,1.6,0,0,0-.36-1.18,2,2,0,0,0-1.44-.47,2.1,2.1,0,0,0-1.32.34,2.12,2.12,0,0,0-.63,1.2L141,8.54a3.49,3.49,0,0,1,.56-1.39,2.44,2.44,0,0,1,1.12-.82,4.64,4.64,0,0,1,1.7-.29,4.17,4.17,0,0,1,1.55.24,2,2,0,0,1,.88.62,2.26,2.26,0,0,1,.39.94,8.43,8.43,0,0,1,.06,1.27v1.83a21.17,21.17,0,0,0,.08,2.43,3.21,3.21,0,0,0,.32,1h-1.32A3.14,3.14,0,0,1,146.14,13.33ZM146,10.26a8.66,8.66,0,0,1-2.07.52,4.49,4.49,0,0,0-1.1.28,1.13,1.13,0,0,0-.5.45,1.25,1.25,0,0,0-.18.65,1.22,1.22,0,0,0,.38.92,1.56,1.56,0,0,0,1.12.37,2.44,2.44,0,0,0,1.3-.35,2.07,2.07,0,0,0,.84-1,3.58,3.58,0,0,0,.2-1.37Z"/><path d="M155.61,14.33V13.14a2.69,2.69,0,0,1-2.37,1.38,2.82,2.82,0,0,1-1.23-.28,2.06,2.06,0,0,1-.85-.69,2.71,2.71,0,0,1-.39-1,7.55,7.55,0,0,1-.08-1.28v-5H152v4.5a8.7,8.7,0,0,0,.08,1.45,1.45,1.45,0,0,0,.51.85,1.49,1.49,0,0,0,1,.31,2,2,0,0,0,1.07-.32,1.72,1.72,0,0,0,.71-.86,4.67,4.67,0,0,0,.21-1.59V6.22h1.27v8.12Z"/><path d="M160.14,14.33V3.13h1.27v11.2Z"/><path d="M167.57,13.1l.18,1.21a4.3,4.3,0,0,1-1,.12,2,2,0,0,1-1.07-.24,1.29,1.29,0,0,1-.53-.62A5.31,5.31,0,0,1,165,12V7.29h-.93V6.22H165v-2l1.26-.83V6.22h1.27V7.29H166.3V12a2.57,2.57,0,0,0,.07.76.56.56,0,0,0,.22.27.79.79,0,0,0,.43.1A3.74,3.74,0,0,0,167.57,13.1Z"/><path d="M169.74,11.91,171,11.7a2,2,0,0,0,.59,1.25,1.94,1.94,0,0,0,1.35.44,1.87,1.87,0,0,0,1.29-.39,1.19,1.19,0,0,0,.42-.91.86.86,0,0,0-.37-.73A5.23,5.23,0,0,0,173,10.9a11.18,11.18,0,0,1-1.93-.66,1.93,1.93,0,0,1-.82-.77A2.19,2.19,0,0,1,170,8.37a2.23,2.23,0,0,1,.23-1,2.18,2.18,0,0,1,.62-.77,2.54,2.54,0,0,1,.81-.4A3.55,3.55,0,0,1,172.7,6a4,4,0,0,1,1.54.28,2.11,2.11,0,0,1,1,.75,3.07,3.07,0,0,1,.44,1.26l-1.24.18a1.51,1.51,0,0,0-.49-1,1.69,1.69,0,0,0-1.14-.35,1.94,1.94,0,0,0-1.25.31.93.93,0,0,0-.37.73.8.8,0,0,0,.16.48,1.11,1.11,0,0,0,.49.37q.19.08,1.12.35a14.83,14.83,0,0,1,1.88.64,1.94,1.94,0,0,1,.83.72,2.14,2.14,0,0,1,.3,1.18,2.46,2.46,0,0,1-1.44,2.23,3.61,3.61,0,0,1-1.58.33,3.31,3.31,0,0,1-2.22-.66A3.13,3.13,0,0,1,169.74,11.91Z"/><path d="M36.8,51.94l2.89-7.16h1.07l3.08,7.16H42.7l-.88-2.17H38.68l-.83,2.17ZM39,49h2.55l-.78-2q-.36-.9-.53-1.48a8.74,8.74,0,0,1-.41,1.37Z"/><path d="M44.81,51.94V46.75h.83v.79a2.16,2.16,0,0,1,.59-.73,1.06,1.06,0,0,1,.59-.18,1.86,1.86,0,0,1,.95.28l-.32.82a1.37,1.37,0,0,0-.68-.19.91.91,0,0,0-.54.17.94.94,0,0,0-.34.48,3.27,3.27,0,0,0-.15,1v2.71Z"/><path d="M52.36,50.27l1,.11a2.21,2.21,0,0,1-.84,1.24,2.6,2.6,0,0,1-1.56.44,2.56,2.56,0,0,1-1.89-.7,2.66,2.66,0,0,1-.7-2,2.78,2.78,0,0,1,.71-2,2.45,2.45,0,0,1,1.84-.72,2.39,2.39,0,0,1,1.78.71,2.73,2.73,0,0,1,.69,2c0,.05,0,.13,0,.23H49.28a1.94,1.94,0,0,0,.51,1.31,1.55,1.55,0,0,0,1.14.45,1.46,1.46,0,0,0,.87-.25A1.69,1.69,0,0,0,52.36,50.27Zm-3-1.42h3a1.71,1.71,0,0,0-.35-1,1.44,1.44,0,0,0-1.14-.51,1.51,1.51,0,0,0-1.07.41A1.57,1.57,0,0,0,49.33,48.84Z"/><path d="M58,53.93l-.1-.83a2.14,2.14,0,0,0,.53.08,1.06,1.06,0,0,0,.49-.1.82.82,0,0,0,.3-.27,4.2,4.2,0,0,0,.28-.65l.08-.21-2.07-5.2h1l1.13,3q.22.57.39,1.2a11.3,11.3,0,0,1,.38-1.18l1.16-3h.92L60.41,52a10.07,10.07,0,0,1-.52,1.18,1.77,1.77,0,0,1-.56.64,1.38,1.38,0,0,1-.76.2A1.92,1.92,0,0,1,58,53.93Z"/><path d="M63.24,49.34a2.43,2.43,0,0,1,2.55-2.71,2.51,2.51,0,0,1,1.84.7,2.59,2.59,0,0,1,.71,1.94A3.29,3.29,0,0,1,68,50.84a2.18,2.18,0,0,1-.92.89,2.78,2.78,0,0,1-1.31.32,2.51,2.51,0,0,1-1.85-.7A2.71,2.71,0,0,1,63.24,49.34Zm.95,0a2.14,2.14,0,0,0,.46,1.49,1.57,1.57,0,0,0,2.29,0,2.19,2.19,0,0,0,.46-1.52,2.07,2.07,0,0,0-.46-1.46,1.57,1.57,0,0,0-2.29,0A2.13,2.13,0,0,0,64.19,49.34Z"/><path d="M73.31,51.94v-.76a2,2,0,0,1-1.73.88,2.3,2.3,0,0,1-.9-.18,1.48,1.48,0,0,1-.62-.44,1.61,1.61,0,0,1-.28-.65,4.26,4.26,0,0,1-.06-.82V46.75h.92v2.88a4.89,4.89,0,0,0,.06.93.91.91,0,0,0,.37.54,1.18,1.18,0,0,0,.7.2,1.58,1.58,0,0,0,.78-.2,1.15,1.15,0,0,0,.52-.55,2.64,2.64,0,0,0,.15-1V46.75h.92v5.19Z"/><path d="M78.76,50.39l.91-.14a1.2,1.2,0,0,0,.43.8,1.54,1.54,0,0,0,1,.28,1.49,1.49,0,0,0,.94-.25.73.73,0,0,0,.31-.58.53.53,0,0,0-.27-.47,4.17,4.17,0,0,0-.94-.3,8.94,8.94,0,0,1-1.41-.42,1.35,1.35,0,0,1-.59-.49,1.26,1.26,0,0,1-.2-.7,1.28,1.28,0,0,1,.17-.64,1.45,1.45,0,0,1,.45-.49,1.94,1.94,0,0,1,.59-.26,2.93,2.93,0,0,1,.8-.1,3.3,3.3,0,0,1,1.13.18,1.54,1.54,0,0,1,.72.48,1.81,1.81,0,0,1,.32.8l-.9.12a.93.93,0,0,0-.36-.62,1.35,1.35,0,0,0-.83-.22,1.57,1.57,0,0,0-.91.2.58.58,0,0,0-.27.47.47.47,0,0,0,.11.31.82.82,0,0,0,.35.23l.81.22a11.76,11.76,0,0,1,1.37.41,1.38,1.38,0,0,1,.61.46,1.24,1.24,0,0,1,.22.75,1.42,1.42,0,0,1-.27.83,1.72,1.72,0,0,1-.78.6,3,3,0,0,1-1.15.21,2.65,2.65,0,0,1-1.62-.42A1.93,1.93,0,0,1,78.76,50.39Z"/><path d="M88.26,51.94v-.76a2,2,0,0,1-1.73.88,2.3,2.3,0,0,1-.9-.18,1.48,1.48,0,0,1-.62-.44,1.61,1.61,0,0,1-.28-.65,4.26,4.26,0,0,1-.06-.82V46.75h.92v2.88a4.89,4.89,0,0,0,.06.93.91.91,0,0,0,.37.54,1.18,1.18,0,0,0,.7.2,1.58,1.58,0,0,0,.78-.2,1.15,1.15,0,0,0,.52-.55,2.64,2.64,0,0,0,.15-1V46.75h.92v5.19Z"/><path d="M90.84,51.94V46.75h.83v.79a2.16,2.16,0,0,1,.59-.73,1.06,1.06,0,0,1,.59-.18,1.86,1.86,0,0,1,.95.28l-.32.82a1.37,1.37,0,0,0-.68-.19.91.91,0,0,0-.54.17.94.94,0,0,0-.34.48,3.27,3.27,0,0,0-.15,1v2.71Z"/><path d="M98.39,50.27l1,.11a2.21,2.21,0,0,1-.84,1.24,2.6,2.6,0,0,1-1.56.44,2.56,2.56,0,0,1-1.89-.7,2.66,2.66,0,0,1-.7-2,2.78,2.78,0,0,1,.71-2,2.45,2.45,0,0,1,1.84-.72,2.39,2.39,0,0,1,1.78.71,2.73,2.73,0,0,1,.69,2c0,.05,0,.13,0,.23H95.3a1.94,1.94,0,0,0,.51,1.31,1.55,1.55,0,0,0,1.14.45,1.46,1.46,0,0,0,.87-.25A1.69,1.69,0,0,0,98.39,50.27Zm-3-1.42h3a1.71,1.71,0,0,0-.35-1,1.44,1.44,0,0,0-1.14-.51,1.51,1.51,0,0,0-1.07.41A1.57,1.57,0,0,0,95.36,48.84Z"/><path d="M104,53.93l-.1-.83a2.14,2.14,0,0,0,.53.08,1.06,1.06,0,0,0,.49-.1.82.82,0,0,0,.3-.27,4.2,4.2,0,0,0,.28-.65l.08-.21-2.07-5.2h1l1.13,3q.22.57.39,1.2a11.3,11.3,0,0,1,.38-1.18l1.16-3h.92L106.44,52a10.07,10.07,0,0,1-.52,1.18,1.77,1.77,0,0,1-.56.64,1.38,1.38,0,0,1-.76.2A1.92,1.92,0,0,1,104,53.93Z"/><path d="M109.27,49.34a2.43,2.43,0,0,1,2.55-2.71,2.51,2.51,0,0,1,1.84.7,2.59,2.59,0,0,1,.71,1.94,3.31,3.31,0,0,1-.31,1.57,2.18,2.18,0,0,1-.92.89,2.78,2.78,0,0,1-1.31.32,2.51,2.51,0,0,1-1.85-.7A2.71,2.71,0,0,1,109.27,49.34Zm.95,0a2.14,2.14,0,0,0,.46,1.49,1.57,1.57,0,0,0,2.29,0,2.19,2.19,0,0,0,.46-1.52,2.07,2.07,0,0,0-.46-1.46,1.57,1.57,0,0,0-2.29,0A2.13,2.13,0,0,0,110.22,49.34Z"/><path d="M119.33,51.94v-.76a2,2,0,0,1-1.73.88,2.29,2.29,0,0,1-.9-.18,1.47,1.47,0,0,1-.62-.44,1.62,1.62,0,0,1-.28-.65,4.23,4.23,0,0,1-.06-.82V46.75h.92v2.88a4.92,4.92,0,0,0,.06.93.92.92,0,0,0,.37.54,1.18,1.18,0,0,0,.7.2,1.57,1.57,0,0,0,.78-.2,1.15,1.15,0,0,0,.52-.55,2.66,2.66,0,0,0,.15-1V46.75h.92v5.19Z"/><path d="M126.16,51.94l-1.67-5.19h1l.87,3,.32,1.11.28-1.07.87-3h.95l.82,3,.27,1,.31-1,.93-3h.9l-1.7,5.19h-1l-.87-3.11-.21-.88-1.1,4Z"/><path d="M136.6,51.3a3.47,3.47,0,0,1-1,.59,3,3,0,0,1-1,.17,2,2,0,0,1-1.38-.42,1.35,1.35,0,0,1-.48-1.07,1.37,1.37,0,0,1,.18-.7,1.46,1.46,0,0,1,.48-.51,2.3,2.3,0,0,1,.66-.29,7,7,0,0,1,.82-.13,8.8,8.8,0,0,0,1.65-.3c0-.12,0-.2,0-.23a.94.94,0,0,0-.26-.76,1.6,1.6,0,0,0-1.05-.3,1.69,1.69,0,0,0-1,.22,1.32,1.32,0,0,0-.46.77l-.9-.12a2.07,2.07,0,0,1,.41-.89,1.79,1.79,0,0,1,.82-.52,3.8,3.8,0,0,1,1.24-.18,3.42,3.42,0,0,1,1.13.16,1.51,1.51,0,0,1,.64.39,1.35,1.35,0,0,1,.29.6,4.78,4.78,0,0,1,0,.81v1.17a11.92,11.92,0,0,0,.06,1.55,1.92,1.92,0,0,0,.23.62h-1A1.79,1.79,0,0,1,136.6,51.3Zm-.08-2a7,7,0,0,1-1.51.33,3.63,3.63,0,0,0-.8.18.79.79,0,0,0-.36.29.72.72,0,0,0-.13.42.73.73,0,0,0,.28.59,1.24,1.24,0,0,0,.82.23,2,2,0,0,0,.95-.22,1.4,1.4,0,0,0,.61-.61,2,2,0,0,0,.15-.88Z"/><path d="M139.2,51.94V46.75H140v.74a2,2,0,0,1,1.73-.85,2.37,2.37,0,0,1,.9.17,1.42,1.42,0,0,1,.62.44,1.65,1.65,0,0,1,.29.65,4.69,4.69,0,0,1,.05.85v3.19h-.92V48.78a2.25,2.25,0,0,0-.11-.8.86.86,0,0,0-.38-.42,1.25,1.25,0,0,0-.64-.16,1.54,1.54,0,0,0-1,.36,1.71,1.71,0,0,0-.43,1.35v2.83Z"/><path d="M147.37,51.15l.13.78a3.57,3.57,0,0,1-.7.08,1.64,1.64,0,0,1-.78-.15.87.87,0,0,1-.39-.4,3,3,0,0,1-.11-1v-3h-.68v-.68h.68V45.47l.92-.53v1.81h.93v.68h-.93v3a1.48,1.48,0,0,0,0,.48.37.37,0,0,0,.16.17.63.63,0,0,0,.31.06Z"/><path d="M153.84,51.15l.13.78a3.57,3.57,0,0,1-.7.08,1.64,1.64,0,0,1-.78-.15.87.87,0,0,1-.39-.4,3,3,0,0,1-.11-1v-3h-.68v-.68H152V45.47l.92-.53v1.81h.93v.68h-.93v3a1.48,1.48,0,0,0,0,.48.37.37,0,0,0,.16.17.63.63,0,0,0,.31.06Z"/><path d="M154.71,49.34a2.43,2.43,0,0,1,2.55-2.71,2.51,2.51,0,0,1,1.84.7,2.59,2.59,0,0,1,.71,1.94,3.29,3.29,0,0,1-.32,1.57,2.18,2.18,0,0,1-.92.89,2.78,2.78,0,0,1-1.32.32,2.51,2.51,0,0,1-1.85-.7A2.7,2.7,0,0,1,154.71,49.34Zm.95,0a2.14,2.14,0,0,0,.46,1.49,1.57,1.57,0,0,0,2.29,0,2.19,2.19,0,0,0,.46-1.52,2.07,2.07,0,0,0-.46-1.46,1.57,1.57,0,0,0-2.29,0A2.13,2.13,0,0,0,155.66,49.34Z"/><path d="M164.43,51.94V46.75h.83v.79a2.16,2.16,0,0,1,.59-.73,1.06,1.06,0,0,1,.59-.18,1.86,1.86,0,0,1,.95.28l-.32.82a1.37,1.37,0,0,0-.68-.19.91.91,0,0,0-.54.17.94.94,0,0,0-.34.48,3.3,3.3,0,0,0-.15,1v2.71Z"/><path d="M172,50.27l1,.11a2.21,2.21,0,0,1-.84,1.24,2.6,2.6,0,0,1-1.56.44,2.56,2.56,0,0,1-1.89-.7,2.66,2.66,0,0,1-.7-2,2.78,2.78,0,0,1,.71-2,2.46,2.46,0,0,1,1.84-.72,2.39,2.39,0,0,1,1.79.71,2.73,2.73,0,0,1,.69,2q0,.08,0,.23H168.9a2,2,0,0,0,.51,1.31,1.55,1.55,0,0,0,1.14.45,1.47,1.47,0,0,0,.87-.25A1.69,1.69,0,0,0,172,50.27Zm-3-1.42h3a1.71,1.71,0,0,0-.35-1,1.45,1.45,0,0,0-1.14-.51,1.51,1.51,0,0,0-1.07.41A1.56,1.56,0,0,0,169,48.84Z"/><path d="M174,50.39l.91-.14a1.19,1.19,0,0,0,.43.8,1.55,1.55,0,0,0,1,.28,1.49,1.49,0,0,0,.94-.25.73.73,0,0,0,.31-.58.53.53,0,0,0-.27-.47,4.17,4.17,0,0,0-.94-.3,9,9,0,0,1-1.41-.42,1.35,1.35,0,0,1-.59-.49,1.26,1.26,0,0,1-.2-.7,1.28,1.28,0,0,1,.17-.64,1.44,1.44,0,0,1,.45-.49,2,2,0,0,1,.59-.26,2.93,2.93,0,0,1,.8-.1,3.29,3.29,0,0,1,1.13.18,1.54,1.54,0,0,1,.71.48,1.81,1.81,0,0,1,.32.8l-.9.12a.93.93,0,0,0-.36-.62,1.35,1.35,0,0,0-.83-.22,1.57,1.57,0,0,0-.91.2.58.58,0,0,0-.27.47.47.47,0,0,0,.11.31.81.81,0,0,0,.35.23l.81.22a11.71,11.71,0,0,1,1.37.41,1.38,1.38,0,0,1,.61.46,1.25,1.25,0,0,1,.22.75,1.43,1.43,0,0,1-.27.83,1.72,1.72,0,0,1-.78.6,3,3,0,0,1-1.15.21,2.65,2.65,0,0,1-1.62-.42A1.92,1.92,0,0,1,174,50.39Z"/><path d="M182,51.15l.13.78a3.57,3.57,0,0,1-.7.08,1.64,1.64,0,0,1-.78-.15.87.87,0,0,1-.39-.4,3,3,0,0,1-.11-1v-3h-.68v-.68h.68V45.47l.92-.53v1.81H182v.68h-.93v3a1.51,1.51,0,0,0,0,.48.38.38,0,0,0,.16.17.63.63,0,0,0,.31.06Z"/><path d="M182.86,49.34a2.43,2.43,0,0,1,2.55-2.71,2.51,2.51,0,0,1,1.84.7,2.59,2.59,0,0,1,.71,1.94,3.29,3.29,0,0,1-.32,1.57,2.18,2.18,0,0,1-.92.89,2.78,2.78,0,0,1-1.32.32,2.51,2.51,0,0,1-1.85-.7A2.7,2.7,0,0,1,182.86,49.34Zm.95,0a2.14,2.14,0,0,0,.46,1.49,1.57,1.57,0,0,0,2.29,0,2.19,2.19,0,0,0,.46-1.52,2.07,2.07,0,0,0-.46-1.46,1.57,1.57,0,0,0-2.29,0A2.13,2.13,0,0,0,183.81,49.34Z"/><path d="M189.35,51.94V46.75h.83v.79a2.16,2.16,0,0,1,.59-.73,1.06,1.06,0,0,1,.59-.18,1.86,1.86,0,0,1,.95.28l-.32.82a1.37,1.37,0,0,0-.68-.19.91.91,0,0,0-.54.17.94.94,0,0,0-.34.48,3.3,3.3,0,0,0-.15,1v2.71Z"/><path d="M196.9,50.27l1,.11a2.21,2.21,0,0,1-.84,1.24,2.6,2.6,0,0,1-1.56.44,2.56,2.56,0,0,1-1.89-.7,2.66,2.66,0,0,1-.7-2,2.78,2.78,0,0,1,.71-2,2.46,2.46,0,0,1,1.84-.72,2.39,2.39,0,0,1,1.79.71,2.73,2.73,0,0,1,.69,2q0,.08,0,.23h-4.06a2,2,0,0,0,.51,1.31,1.55,1.55,0,0,0,1.14.45,1.47,1.47,0,0,0,.87-.25A1.69,1.69,0,0,0,196.9,50.27Zm-3-1.42h3a1.71,1.71,0,0,0-.35-1,1.45,1.45,0,0,0-1.14-.51,1.51,1.51,0,0,0-1.07.41A1.56,1.56,0,0,0,193.87,48.84Z"/><path d="M39.52,62.15l.13.78A3.57,3.57,0,0,1,39,63a1.64,1.64,0,0,1-.78-.15.87.87,0,0,1-.39-.4,3,3,0,0,1-.11-1v-3H37v-.68h.68V56.47l.92-.53v1.81h.93v.68h-.93v3a1.47,1.47,0,0,0,0,.48.37.37,0,0,0,.16.17.64.64,0,0,0,.31.06Z"/><path d="M40.74,62.94V55.78h.92v2.57a2.11,2.11,0,0,1,1.63-.71,2.29,2.29,0,0,1,1.05.23,1.36,1.36,0,0,1,.64.63,2.77,2.77,0,0,1,.19,1.16v3.29h-.92V59.65a1.32,1.32,0,0,0-.3-1,1.15,1.15,0,0,0-.85-.3,1.55,1.55,0,0,0-.77.2,1.17,1.17,0,0,0-.52.55,2.42,2.42,0,0,0-.15,1v2.84Z"/><path d="M50.62,61.27l1,.11a2.21,2.21,0,0,1-.84,1.24,2.6,2.6,0,0,1-1.56.44,2.56,2.56,0,0,1-1.89-.7,2.66,2.66,0,0,1-.7-2,2.78,2.78,0,0,1,.71-2,2.45,2.45,0,0,1,1.84-.72,2.39,2.39,0,0,1,1.78.71,2.73,2.73,0,0,1,.69,2c0,.05,0,.13,0,.23H47.54A1.94,1.94,0,0,0,48,61.88a1.55,1.55,0,0,0,1.14.45,1.46,1.46,0,0,0,.87-.25A1.69,1.69,0,0,0,50.62,61.27Zm-3-1.42h3a1.71,1.71,0,0,0-.35-1,1.44,1.44,0,0,0-1.14-.51,1.51,1.51,0,0,0-1.07.41A1.57,1.57,0,0,0,47.59,59.84Z"/><path d="M55.91,61.39l.91-.14a1.2,1.2,0,0,0,.43.8,1.54,1.54,0,0,0,1,.28,1.49,1.49,0,0,0,.94-.25.73.73,0,0,0,.31-.58.53.53,0,0,0-.27-.47,4.17,4.17,0,0,0-.94-.3,8.94,8.94,0,0,1-1.41-.42,1.35,1.35,0,0,1-.59-.49,1.26,1.26,0,0,1-.2-.7,1.28,1.28,0,0,1,.17-.64,1.45,1.45,0,0,1,.45-.49,1.94,1.94,0,0,1,.59-.26,2.93,2.93,0,0,1,.8-.1,3.3,3.3,0,0,1,1.13.18,1.54,1.54,0,0,1,.72.48,1.81,1.81,0,0,1,.32.8l-.9.12a.93.93,0,0,0-.36-.62,1.35,1.35,0,0,0-.83-.22,1.57,1.57,0,0,0-.91.2A.58.58,0,0,0,57,59a.47.47,0,0,0,.11.31.82.82,0,0,0,.35.23l.81.22a11.76,11.76,0,0,1,1.37.41,1.38,1.38,0,0,1,.61.46,1.24,1.24,0,0,1,.22.75,1.42,1.42,0,0,1-.27.83,1.72,1.72,0,0,1-.78.6,3,3,0,0,1-1.15.21,2.65,2.65,0,0,1-1.62-.42A1.93,1.93,0,0,1,55.91,61.39Z"/><path d="M61.8,64.93l-.1-.83a2.14,2.14,0,0,0,.53.08,1.06,1.06,0,0,0,.49-.1.82.82,0,0,0,.3-.27,4.2,4.2,0,0,0,.28-.65l.08-.21-2.07-5.2h1l1.13,3q.22.57.39,1.2a11.3,11.3,0,0,1,.38-1.18l1.16-3h.92L64.24,63a10.07,10.07,0,0,1-.52,1.18,1.77,1.77,0,0,1-.56.64,1.38,1.38,0,0,1-.76.2A1.92,1.92,0,0,1,61.8,64.93Z"/><path d="M67,61.39l.91-.14a1.2,1.2,0,0,0,.43.8,1.54,1.54,0,0,0,1,.28,1.49,1.49,0,0,0,.94-.25.73.73,0,0,0,.31-.58.53.53,0,0,0-.27-.47,4.17,4.17,0,0,0-.94-.3A8.94,8.94,0,0,1,68,60.32a1.35,1.35,0,0,1-.59-.49,1.26,1.26,0,0,1-.2-.7,1.28,1.28,0,0,1,.17-.64,1.45,1.45,0,0,1,.45-.49,1.94,1.94,0,0,1,.59-.26,2.93,2.93,0,0,1,.8-.1,3.3,3.3,0,0,1,1.13.18,1.54,1.54,0,0,1,.72.48,1.81,1.81,0,0,1,.32.8l-.9.12a.93.93,0,0,0-.36-.62,1.35,1.35,0,0,0-.83-.22,1.57,1.57,0,0,0-.91.2.58.58,0,0,0-.27.47.47.47,0,0,0,.11.31.82.82,0,0,0,.35.23l.81.22a11.76,11.76,0,0,1,1.37.41,1.38,1.38,0,0,1,.61.46,1.24,1.24,0,0,1,.22.75,1.42,1.42,0,0,1-.27.83,1.72,1.72,0,0,1-.78.6,3,3,0,0,1-1.15.21,2.65,2.65,0,0,1-1.62-.42A1.93,1.93,0,0,1,67,61.39Z"/><path d="M75,62.15l.13.78a3.57,3.57,0,0,1-.7.08,1.64,1.64,0,0,1-.78-.15.87.87,0,0,1-.39-.4,3,3,0,0,1-.11-1v-3h-.68v-.68h.68V56.47l.92-.53v1.81H75v.68h-.93v3a1.47,1.47,0,0,0,0,.48.37.37,0,0,0,.16.17.64.64,0,0,0,.31.06Z"/><path d="M79.93,61.27l1,.11A2.21,2.21,0,0,1,80,62.61a2.6,2.6,0,0,1-1.56.44,2.56,2.56,0,0,1-1.89-.7,2.66,2.66,0,0,1-.7-2,2.78,2.78,0,0,1,.71-2,2.45,2.45,0,0,1,1.84-.72,2.39,2.39,0,0,1,1.78.71,2.73,2.73,0,0,1,.69,2c0,.05,0,.13,0,.23H76.85a1.94,1.94,0,0,0,.51,1.31,1.55,1.55,0,0,0,1.14.45,1.46,1.46,0,0,0,.87-.25A1.69,1.69,0,0,0,79.93,61.27Zm-3-1.42h3a1.71,1.71,0,0,0-.35-1,1.44,1.44,0,0,0-1.14-.51,1.51,1.51,0,0,0-1.07.41A1.57,1.57,0,0,0,76.9,59.84Z"/><path d="M82.36,62.94V57.75h.83v.73a1.91,1.91,0,0,1,.68-.61,2,2,0,0,1,1-.23,1.86,1.86,0,0,1,1,.24,1.29,1.29,0,0,1,.55.67,2,2,0,0,1,1.68-.91,1.71,1.71,0,0,1,1.25.43,1.77,1.77,0,0,1,.44,1.32v3.56h-.92V59.67a2.3,2.3,0,0,0-.09-.76.74.74,0,0,0-.33-.37,1.06,1.06,0,0,0-.55-.14,1.32,1.32,0,0,0-1,.36,1.55,1.55,0,0,0-.38,1.16v3h-.92V59.57a1.43,1.43,0,0,0-.23-.88.87.87,0,0,0-.74-.29,1.39,1.39,0,0,0-.72.2,1.12,1.12,0,0,0-.48.57,3.07,3.07,0,0,0-.15,1.08v2.69Z"/><path d="M96.67,62.15l.13.78a3.57,3.57,0,0,1-.7.08,1.64,1.64,0,0,1-.78-.15.87.87,0,0,1-.39-.4,3,3,0,0,1-.11-1v-3h-.68v-.68h.68V56.47l.92-.53v1.81h.93v.68h-.93v3a1.47,1.47,0,0,0,0,.48.37.37,0,0,0,.16.17.64.64,0,0,0,.31.06Z"/><path d="M97.54,60.34a2.43,2.43,0,0,1,2.55-2.71,2.51,2.51,0,0,1,1.84.7,2.59,2.59,0,0,1,.71,1.94,3.29,3.29,0,0,1-.32,1.57,2.18,2.18,0,0,1-.92.89,2.78,2.78,0,0,1-1.31.32,2.51,2.51,0,0,1-1.85-.7A2.71,2.71,0,0,1,97.54,60.34Zm.95,0a2.14,2.14,0,0,0,.46,1.49,1.57,1.57,0,0,0,2.29,0,2.19,2.19,0,0,0,.46-1.52,2.07,2.07,0,0,0-.46-1.46,1.57,1.57,0,0,0-2.29,0A2.13,2.13,0,0,0,98.49,60.34Z"/><path d="M109.29,62.15l.13.78a3.57,3.57,0,0,1-.7.08,1.64,1.64,0,0,1-.78-.15.87.87,0,0,1-.39-.4,3,3,0,0,1-.11-1v-3h-.68v-.68h.68V56.47l.92-.53v1.81h.93v.68h-.93v3a1.47,1.47,0,0,0,0,.48.37.37,0,0,0,.16.17.64.64,0,0,0,.31.06Z"/><path d="M110.5,62.94V55.78h.92v2.57a2.11,2.11,0,0,1,1.63-.71,2.29,2.29,0,0,1,1.05.23,1.36,1.36,0,0,1,.64.63,2.76,2.76,0,0,1,.19,1.16v3.29H114V59.65a1.32,1.32,0,0,0-.3-1,1.15,1.15,0,0,0-.85-.3,1.55,1.55,0,0,0-.77.2,1.17,1.17,0,0,0-.52.55,2.42,2.42,0,0,0-.15,1v2.84Z"/><path d="M120.39,61.27l1,.11a2.21,2.21,0,0,1-.84,1.24,2.6,2.6,0,0,1-1.56.44,2.56,2.56,0,0,1-1.89-.7,2.66,2.66,0,0,1-.7-2,2.78,2.78,0,0,1,.71-2,2.45,2.45,0,0,1,1.84-.72,2.38,2.38,0,0,1,1.78.71,2.73,2.73,0,0,1,.69,2c0,.05,0,.13,0,.23h-4.06a1.93,1.93,0,0,0,.51,1.31,1.55,1.55,0,0,0,1.14.45,1.46,1.46,0,0,0,.87-.25A1.68,1.68,0,0,0,120.39,61.27Zm-3-1.42h3a1.71,1.71,0,0,0-.35-1,1.44,1.44,0,0,0-1.14-.51,1.51,1.51,0,0,0-1.07.41A1.57,1.57,0,0,0,117.36,59.84Z"/><path d="M126.27,62.94v-4.5h-.81v-.68h.81V57.2a2.3,2.3,0,0,1,.1-.78,1.13,1.13,0,0,1,.47-.55,1.76,1.76,0,0,1,.94-.21,4.73,4.73,0,0,1,.86.09l-.14.77a3.23,3.23,0,0,0-.54,0,.84.84,0,0,0-.6.17.89.89,0,0,0-.17.64v.48h1.06v.68h-1.06v4.5Z"/><path d="M132.83,62.3a3.46,3.46,0,0,1-1,.59,3,3,0,0,1-1,.17,2,2,0,0,1-1.38-.42,1.35,1.35,0,0,1-.48-1.07,1.37,1.37,0,0,1,.18-.7,1.47,1.47,0,0,1,.48-.51,2.3,2.3,0,0,1,.66-.29,7,7,0,0,1,.82-.13,8.8,8.8,0,0,0,1.65-.3c0-.12,0-.2,0-.23a.94.94,0,0,0-.26-.76,1.6,1.6,0,0,0-1.05-.3,1.69,1.69,0,0,0-1,.22,1.32,1.32,0,0,0-.46.77l-.9-.12a2.08,2.08,0,0,1,.41-.89,1.78,1.78,0,0,1,.81-.52,3.8,3.8,0,0,1,1.24-.18,3.43,3.43,0,0,1,1.13.16,1.5,1.5,0,0,1,.64.39,1.35,1.35,0,0,1,.29.6,4.65,4.65,0,0,1,0,.81v1.17a11.92,11.92,0,0,0,.06,1.55,1.91,1.91,0,0,0,.23.62h-1A1.79,1.79,0,0,1,132.83,62.3Zm-.08-2a7.07,7.07,0,0,1-1.51.33,3.66,3.66,0,0,0-.8.18.78.78,0,0,0-.36.29.72.72,0,0,0-.13.42.74.74,0,0,0,.28.59,1.24,1.24,0,0,0,.82.23,2,2,0,0,0,.95-.22,1.4,1.4,0,0,0,.61-.61,2,2,0,0,0,.15-.88Z"/><path d="M139,61l.91.11a2.21,2.21,0,0,1-.76,1.4,2.29,2.29,0,0,1-1.5.51,2.4,2.4,0,0,1-1.8-.7,2.74,2.74,0,0,1-.68-2,3.48,3.48,0,0,1,.29-1.47,2,2,0,0,1,.89-.94,2.74,2.74,0,0,1,1.3-.31,2.34,2.34,0,0,1,1.45.43,1.94,1.94,0,0,1,.72,1.21l-.9.13a1.4,1.4,0,0,0-.45-.79,1.21,1.21,0,0,0-.79-.26,1.46,1.46,0,0,0-1.13.48,2.19,2.19,0,0,0-.44,1.51,2.25,2.25,0,0,0,.42,1.52,1.39,1.39,0,0,0,1.1.47,1.33,1.33,0,0,0,.91-.32A1.54,1.54,0,0,0,139,61Z"/><path d="M143,62.15l.13.78a3.57,3.57,0,0,1-.7.08,1.64,1.64,0,0,1-.78-.15.87.87,0,0,1-.39-.4,3,3,0,0,1-.11-1v-3h-.68v-.68h.68V56.47l.92-.53v1.81H143v.68h-.93v3a1.47,1.47,0,0,0,0,.48.38.38,0,0,0,.16.17.64.64,0,0,0,.32.06Z"/><path d="M143.89,60.34a2.43,2.43,0,0,1,2.55-2.71,2.51,2.51,0,0,1,1.83.7,2.59,2.59,0,0,1,.71,1.94,3.29,3.29,0,0,1-.32,1.57,2.18,2.18,0,0,1-.92.89,2.78,2.78,0,0,1-1.31.32,2.51,2.51,0,0,1-1.85-.7A2.71,2.71,0,0,1,143.89,60.34Zm.95,0a2.13,2.13,0,0,0,.46,1.49,1.57,1.57,0,0,0,2.29,0,2.18,2.18,0,0,0,.46-1.52,2.08,2.08,0,0,0-.46-1.46,1.57,1.57,0,0,0-2.29,0A2.12,2.12,0,0,0,144.83,60.34Z"/><path d="M150.37,62.94V57.75h.83v.79a2.15,2.15,0,0,1,.59-.73,1.06,1.06,0,0,1,.59-.18,1.86,1.86,0,0,1,.95.28l-.32.82a1.37,1.37,0,0,0-.68-.19.91.91,0,0,0-.54.17.93.93,0,0,0-.34.48,3.24,3.24,0,0,0-.15,1v2.71Z"/><path d="M154.16,64.93l-.1-.83a2.14,2.14,0,0,0,.53.08,1.06,1.06,0,0,0,.49-.1.83.83,0,0,0,.3-.27,4.18,4.18,0,0,0,.28-.65l.08-.21-2.07-5.2h1l1.13,3q.22.57.39,1.2a11.41,11.41,0,0,1,.38-1.18l1.16-3h.92L156.59,63a10.17,10.17,0,0,1-.52,1.18,1.77,1.77,0,0,1-.56.64,1.38,1.38,0,0,1-.76.2A1.93,1.93,0,0,1,154.16,64.93Z"/><path d="M41,73.94v-.65a1.72,1.72,0,0,1-1.52.77,2.21,2.21,0,0,1-1.2-.34,2.29,2.29,0,0,1-.85-1,3.17,3.17,0,0,1-.3-1.41,3.52,3.52,0,0,1,.27-1.41,2.06,2.06,0,0,1,.81-1,2.26,2.26,0,0,1,1.22-.34,1.89,1.89,0,0,1,.88.2,1.81,1.81,0,0,1,.63.52V66.78h.92v7.16Zm-2.92-2.59a2.17,2.17,0,0,0,.44,1.49,1.35,1.35,0,0,0,1,.49,1.33,1.33,0,0,0,1-.47,2.1,2.1,0,0,0,.42-1.44,2.36,2.36,0,0,0-.43-1.56,1.35,1.35,0,0,0-1.06-.5,1.3,1.3,0,0,0-1,.48A2.28,2.28,0,0,0,38.12,71.35Z"/><path d="M47.39,72.27l1,.11a2.21,2.21,0,0,1-.84,1.24,2.6,2.6,0,0,1-1.56.44,2.56,2.56,0,0,1-1.89-.7,2.66,2.66,0,0,1-.7-2,2.78,2.78,0,0,1,.71-2,2.45,2.45,0,0,1,1.84-.72,2.39,2.39,0,0,1,1.78.71,2.73,2.73,0,0,1,.69,2c0,.05,0,.13,0,.23H44.3a1.94,1.94,0,0,0,.51,1.31,1.55,1.55,0,0,0,1.14.46,1.47,1.47,0,0,0,.87-.25A1.69,1.69,0,0,0,47.39,72.27Zm-3-1.42h3a1.7,1.7,0,0,0-.35-1,1.44,1.44,0,0,0-1.14-.51,1.51,1.51,0,0,0-1.07.4A1.57,1.57,0,0,0,44.36,70.84Z"/><path d="M50,73.94v-4.5h-.81v-.68H50V68.2a2.3,2.3,0,0,1,.1-.78,1.14,1.14,0,0,1,.47-.55,1.76,1.76,0,0,1,.94-.21,4.73,4.73,0,0,1,.86.09l-.14.77a3.18,3.18,0,0,0-.54,0,.84.84,0,0,0-.59.17.9.9,0,0,0-.17.64v.48H52v.68H51v4.5Z"/><path d="M56.6,73.29a3.44,3.44,0,0,1-1,.59,3,3,0,0,1-1,.17,2,2,0,0,1-1.38-.42,1.35,1.35,0,0,1-.48-1.07,1.37,1.37,0,0,1,.18-.7,1.46,1.46,0,0,1,.48-.5,2.31,2.31,0,0,1,.66-.29,7,7,0,0,1,.82-.13,8.83,8.83,0,0,0,1.65-.3c0-.12,0-.2,0-.23a.94.94,0,0,0-.26-.76,1.6,1.6,0,0,0-1.05-.3,1.69,1.69,0,0,0-1,.22,1.32,1.32,0,0,0-.46.77l-.9-.12a2.08,2.08,0,0,1,.41-.89,1.78,1.78,0,0,1,.82-.52,3.8,3.8,0,0,1,1.24-.18,3.41,3.41,0,0,1,1.13.16,1.49,1.49,0,0,1,.64.39,1.36,1.36,0,0,1,.29.6,4.71,4.71,0,0,1,0,.81v1.17a11.93,11.93,0,0,0,.06,1.55,1.91,1.91,0,0,0,.23.62h-1A1.8,1.8,0,0,1,56.6,73.29Zm-.08-2a7,7,0,0,1-1.51.33,3.71,3.71,0,0,0-.81.18.79.79,0,0,0-.36.29.72.72,0,0,0-.13.42.73.73,0,0,0,.28.59,1.24,1.24,0,0,0,.82.23,2,2,0,0,0,.95-.22,1.39,1.39,0,0,0,.61-.61,2,2,0,0,0,.15-.88Z"/><path d="M62.77,73.94v-.76a2,2,0,0,1-1.73.88,2.3,2.3,0,0,1-.9-.18,1.48,1.48,0,0,1-.62-.44,1.61,1.61,0,0,1-.28-.65,4.26,4.26,0,0,1-.06-.82V68.75h.92v2.88a4.89,4.89,0,0,0,.06.93.91.91,0,0,0,.37.54,1.18,1.18,0,0,0,.7.2,1.57,1.57,0,0,0,.78-.2,1.15,1.15,0,0,0,.52-.55,2.64,2.64,0,0,0,.15-1V68.75h.92v5.19Z"/><path d="M65.33,73.94V66.78h.92v7.16Z"/><path d="M70,73.15l.13.78a3.61,3.61,0,0,1-.7.08,1.64,1.64,0,0,1-.78-.15.86.86,0,0,1-.39-.4,3,3,0,0,1-.11-1v-3h-.68v-.68h.68V67.46l.92-.53v1.81H70v.68h-.93v3a1.48,1.48,0,0,0,0,.48.37.37,0,0,0,.16.17.63.63,0,0,0,.31.06Z"/><path d="M70.87,72.39l.91-.14a1.2,1.2,0,0,0,.43.8,1.54,1.54,0,0,0,1,.28,1.49,1.49,0,0,0,.94-.25.73.73,0,0,0,.31-.58.53.53,0,0,0-.27-.47,4.16,4.16,0,0,0-.94-.3,9,9,0,0,1-1.41-.42,1.34,1.34,0,0,1-.59-.49,1.26,1.26,0,0,1-.2-.7,1.28,1.28,0,0,1,.17-.64,1.44,1.44,0,0,1,.45-.49,1.92,1.92,0,0,1,.59-.26,3,3,0,0,1,.8-.1,3.3,3.3,0,0,1,1.13.18,1.54,1.54,0,0,1,.72.48,1.81,1.81,0,0,1,.32.8l-.9.12a.93.93,0,0,0-.36-.62,1.35,1.35,0,0,0-.83-.22,1.57,1.57,0,0,0-.91.2.58.58,0,0,0-.27.47.47.47,0,0,0,.11.31.83.83,0,0,0,.35.23l.81.22a11.68,11.68,0,0,1,1.37.41,1.38,1.38,0,0,1,.61.46,1.24,1.24,0,0,1,.22.75,1.42,1.42,0,0,1-.27.83,1.72,1.72,0,0,1-.78.6,3,3,0,0,1-1.15.21,2.66,2.66,0,0,1-1.62-.42A1.93,1.93,0,0,1,70.87,72.39Z"/><path d="M78.53,72.17c0-.12,0-.21,0-.26a2.35,2.35,0,0,1,.15-.89,2,2,0,0,1,.36-.57,6.79,6.79,0,0,1,.66-.61,3.07,3.07,0,0,0,.62-.64,1,1,0,0,0,.14-.52,1.19,1.19,0,0,0-.42-.9,1.46,1.46,0,0,0-1-.39,1.43,1.43,0,0,0-1,.35,1.82,1.82,0,0,0-.52,1.1l-.95-.11a2.29,2.29,0,0,1,.76-1.53A2.51,2.51,0,0,1,79,66.65a2.59,2.59,0,0,1,1.76.57,1.77,1.77,0,0,1,.66,1.38,1.69,1.69,0,0,1-.23.87,4.17,4.17,0,0,1-.9,1,4.38,4.38,0,0,0-.59.56,1.22,1.22,0,0,0-.21.41,3.31,3.31,0,0,0-.08.76Zm-.06,1.76v-1h1.05v1Z"/></svg>