<svg id="Layer_1" data-name="Layer 1" xmlns="http://www.w3.org/2000/svg" viewBox="0 0 45.71 67.27"><title>UIM_flame_detected_icon</title><path d="M43.27,28.62c-.62-1.39-1.68-3.7-2.47-5.09a45,45,0,0,0-4-5.52c-1.39-1.65-3.86-4.36-5.55-6-3.11-2.92-7-6.52-7-6.52L17.8,0l.86,1.52a11.08,11.08,0,0,1,1.09,2.79c.13.7.28,2,.34,2.85a16.54,16.54,0,0,1-.28,3.52,20.94,20.94,0,0,1-1.17,3.71c-.43,1-2.89,3.8-5.45,6.29A99.4,99.4,0,0,0,5.49,29.1a31.48,31.48,0,0,0-4.11,7A27.68,27.68,0,0,0,.09,41.33a39.17,39.17,0,0,0,0,5A15.46,15.46,0,0,0,1.76,52C7.13,61.22,20.83,67.66,20.4,67.25l-2.5-2.42c-.95-.92-2.62-2.56-3.71-3.65a34.93,34.93,0,0,1-3.42-4.08A26.3,26.3,0,0,1,8,52C6.63,48.17,5.3,43.83,13.41,36.5,15,35.09,17.86,32.67,19.79,31a52.46,52.46,0,0,0,4.63-4.32,24.74,24.74,0,0,0,1.84-2.56,11.07,11.07,0,0,0,1-2.13,7.44,7.44,0,0,0,.26-1.64v-.1a10.45,10.45,0,0,0,1.32,1.6,35.29,35.29,0,0,1,2.85,3.16c.84,1.06,2,2.61,2.62,3.45A23,23,0,0,1,36.45,33a31,31,0,0,1,1.47,5.61c1.07,9-2,14.45-2.56,15.53-4.79,9.33-9.75,12.37-10.26,12.83,1.54-.24,7.94-3.76,15.07-11.56a27,27,0,0,0,3.08-4.43A26.34,26.34,0,0,0,43.27,28.62Z"/><path d="M29.26,59a23.73,23.73,0,0,0,2.12-7,20.9,20.9,0,0,0-.46-7.87,27,27,0,0,0-3.54-9l-.27,1.65a12.68,12.68,0,0,1-1,3.08,13.16,13.16,0,0,1-2.28,2.89l-3,2.83a33.22,33.22,0,0,0-2.49,2.67,9.57,9.57,0,0,0-1.46,2.67,14.67,14.67,0,0,0-.51,2.61,22.18,22.18,0,0,0,0,2.83,17.34,17.34,0,0,0,.7,3.32A15.64,15.64,0,0,0,18.82,63c.79,1.13,1.39,2,1.74,2.45a10.27,10.27,0,0,0,1.54,1.51S27.51,63.07,29.26,59Z"/></svg>