<svg id="Layer_1" data-name="Layer 1" xmlns="http://www.w3.org/2000/svg" viewBox="0 0 225.68 124.33"><title>UIM_heater_status_menu</title><rect x="0.5" y="0.5" width="224.67" height="123.3" style="fill:none;stroke:#000"/><rect x="1.37" y="0.64" width="223.81" height="12.46" style="fill:#231f20;stroke:#000"/><rect x="0.49" y="99.87" width="224.67" height="23.93" style="fill:none"/><path d="M79.12,10V2.84h1V5.78H84V2.84h1V10H84V6.62H80.11V10Z" style="fill:#fff"/><path d="M90.54,8.33l1,.11a2.21,2.21,0,0,1-.84,1.24,2.6,2.6,0,0,1-1.56.44,2.56,2.56,0,0,1-1.89-.7,2.66,2.66,0,0,1-.7-2,2.78,2.78,0,0,1,.71-2,2.45,2.45,0,0,1,1.84-.72,2.39,2.39,0,0,1,1.78.71,2.73,2.73,0,0,1,.69,2c0,.05,0,.13,0,.23H87.46A1.94,1.94,0,0,0,88,8.94a1.55,1.55,0,0,0,1.14.45A1.46,1.46,0,0,0,90,9.14,1.69,1.69,0,0,0,90.54,8.33Zm-3-1.42h3a1.71,1.71,0,0,0-.35-1,1.44,1.44,0,0,0-1.14-.51A1.51,1.51,0,0,0,88,5.82,1.57,1.57,0,0,0,87.51,6.91Z" style="fill:#fff"/><path d="M96.47,9.36a3.46,3.46,0,0,1-1,.59,3,3,0,0,1-1,.17,2,2,0,0,1-1.38-.42,1.35,1.35,0,0,1-.48-1.07,1.36,1.36,0,0,1,.18-.7,1.46,1.46,0,0,1,.48-.51,2.3,2.3,0,0,1,.66-.29A7,7,0,0,1,94.75,7a8.79,8.79,0,0,0,1.65-.3c0-.12,0-.2,0-.23a.94.94,0,0,0-.26-.76,1.6,1.6,0,0,0-1.05-.3,1.69,1.69,0,0,0-1,.22,1.32,1.32,0,0,0-.46.77l-.9-.12a2.08,2.08,0,0,1,.41-.89A1.78,1.78,0,0,1,94,4.88a3.8,3.8,0,0,1,1.24-.18,3.42,3.42,0,0,1,1.13.16,1.5,1.5,0,0,1,.64.39,1.35,1.35,0,0,1,.29.6,4.71,4.71,0,0,1,0,.81V7.83a11.92,11.92,0,0,0,.06,1.55,1.9,1.9,0,0,0,.23.62h-1A1.79,1.79,0,0,1,96.47,9.36Zm-.08-2a7.06,7.06,0,0,1-1.51.33,3.65,3.65,0,0,0-.81.18.79.79,0,0,0-.36.29.72.72,0,0,0-.13.42.73.73,0,0,0,.28.59,1.24,1.24,0,0,0,.82.23,2,2,0,0,0,.95-.22,1.4,1.4,0,0,0,.61-.61,2,2,0,0,0,.15-.88Z" style="fill:#fff"/><path d="M101,9.21l.13.78a3.57,3.57,0,0,1-.7.08,1.64,1.64,0,0,1-.78-.15.87.87,0,0,1-.39-.4,3,3,0,0,1-.11-1v-3h-.68V4.81h.68V3.53l.92-.53V4.81H101V5.5h-.93v3a1.47,1.47,0,0,0,0,.48.37.37,0,0,0,.16.17.64.64,0,0,0,.31.06Z" style="fill:#fff"/><path d="M105.93,8.33l1,.11A2.21,2.21,0,0,1,106,9.68a2.6,2.6,0,0,1-1.56.44,2.56,2.56,0,0,1-1.89-.7,2.66,2.66,0,0,1-.7-2,2.78,2.78,0,0,1,.71-2,2.45,2.45,0,0,1,1.84-.72,2.39,2.39,0,0,1,1.78.71,2.73,2.73,0,0,1,.69,2c0,.05,0,.13,0,.23h-4.06a1.94,1.94,0,0,0,.51,1.31,1.55,1.55,0,0,0,1.14.45,1.46,1.46,0,0,0,.87-.25A1.69,1.69,0,0,0,105.93,8.33Zm-3-1.42h3a1.71,1.71,0,0,0-.35-1,1.44,1.44,0,0,0-1.14-.51,1.51,1.51,0,0,0-1.07.41A1.57,1.57,0,0,0,102.9,6.91Z" style="fill:#fff"/><path d="M108.29,10V4.81h.83V5.6a2.16,2.16,0,0,1,.59-.73,1.06,1.06,0,0,1,.59-.18,1.86,1.86,0,0,1,.95.28l-.32.82a1.37,1.37,0,0,0-.68-.19.91.91,0,0,0-.54.17.94.94,0,0,0-.34.48,3.27,3.27,0,0,0-.15,1V10Z" style="fill:#fff"/><path d="M115,7.7l.94-.08a1.9,1.9,0,0,0,.31.88,1.68,1.68,0,0,0,.76.56,3,3,0,0,0,1.15.21,2.88,2.88,0,0,0,1-.16,1.39,1.39,0,0,0,.65-.44,1,1,0,0,0,.21-.61.9.9,0,0,0-.21-.59,1.53,1.53,0,0,0-.68-.42,13.7,13.7,0,0,0-1.34-.35,7.07,7.07,0,0,1-1.45-.45,2,2,0,0,1-.8-.67,1.57,1.57,0,0,1-.26-.89,1.75,1.75,0,0,1,.32-1,2,2,0,0,1,.94-.72A3.74,3.74,0,0,1,118,2.72a3.94,3.94,0,0,1,1.47.26,2.05,2.05,0,0,1,1.35,1.88l-1,.07a1.44,1.44,0,0,0-.52-1A2.1,2.1,0,0,0,118,3.55a2.18,2.18,0,0,0-1.31.31.93.93,0,0,0-.41.76.8.8,0,0,0,.29.63,4.09,4.09,0,0,0,1.5.51,10.28,10.28,0,0,1,1.66.46,2.27,2.27,0,0,1,1,.73A1.72,1.72,0,0,1,121,8a1.88,1.88,0,0,1-.34,1.08,2.23,2.23,0,0,1-1,.79,3.59,3.59,0,0,1-1.45.28,4.51,4.51,0,0,1-1.71-.28A2.37,2.37,0,0,1,115.43,9,2.33,2.33,0,0,1,115,7.7Z" style="fill:#fff"/><path d="M124.52,9.21l.13.78a3.57,3.57,0,0,1-.7.08,1.64,1.64,0,0,1-.78-.15.87.87,0,0,1-.39-.4,3,3,0,0,1-.11-1v-3H122V4.81h.68V3.53l.92-.53V4.81h.93V5.5h-.93v3a1.48,1.48,0,0,0,0,.48.38.38,0,0,0,.16.17.64.64,0,0,0,.32.06Z" style="fill:#fff"/><path d="M129.24,9.36a3.46,3.46,0,0,1-1,.59,3,3,0,0,1-1,.17,2,2,0,0,1-1.38-.42,1.42,1.42,0,0,1-.3-1.76,1.46,1.46,0,0,1,.48-.51,2.29,2.29,0,0,1,.66-.29,6.93,6.93,0,0,1,.82-.13,8.8,8.8,0,0,0,1.65-.3c0-.12,0-.2,0-.23a.94.94,0,0,0-.26-.76,1.6,1.6,0,0,0-1.05-.3,1.69,1.69,0,0,0-1,.22,1.31,1.31,0,0,0-.46.77l-.9-.12a2.07,2.07,0,0,1,.41-.89,1.78,1.78,0,0,1,.82-.52A3.79,3.79,0,0,1,128,4.7a3.43,3.43,0,0,1,1.13.16,1.5,1.5,0,0,1,.64.39,1.35,1.35,0,0,1,.29.6,4.65,4.65,0,0,1,0,.81V7.83a11.92,11.92,0,0,0,.06,1.55,1.89,1.89,0,0,0,.23.62h-1A1.79,1.79,0,0,1,129.24,9.36Zm-.08-2a7.06,7.06,0,0,1-1.51.33,3.65,3.65,0,0,0-.81.18.79.79,0,0,0-.36.29.72.72,0,0,0-.13.42.74.74,0,0,0,.28.59,1.24,1.24,0,0,0,.82.23,2,2,0,0,0,.95-.22A1.4,1.4,0,0,0,129,8.6a2,2,0,0,0,.15-.88Z" style="fill:#fff"/><path d="M133.8,9.21l.13.78a3.57,3.57,0,0,1-.7.08,1.64,1.64,0,0,1-.78-.15.87.87,0,0,1-.39-.4,3,3,0,0,1-.11-1v-3h-.68V4.81H132V3.53l.92-.53V4.81h.93V5.5h-.93v3a1.47,1.47,0,0,0,0,.48.37.37,0,0,0,.16.17.63.63,0,0,0,.31.06Z" style="fill:#fff"/><path d="M138.54,10V9.24a2,2,0,0,1-1.73.88,2.3,2.3,0,0,1-.9-.18,1.48,1.48,0,0,1-.62-.44,1.62,1.62,0,0,1-.28-.65,4.21,4.21,0,0,1-.06-.82V4.81h.92V7.69a4.84,4.84,0,0,0,.06.93.91.91,0,0,0,.37.54,1.18,1.18,0,0,0,.7.2,1.58,1.58,0,0,0,.78-.2,1.15,1.15,0,0,0,.51-.55,2.63,2.63,0,0,0,.15-1V4.81h.92V10Z" style="fill:#fff"/><path d="M140.7,8.45l.91-.14a1.2,1.2,0,0,0,.43.8,1.55,1.55,0,0,0,1,.28,1.49,1.49,0,0,0,.94-.25.73.73,0,0,0,.31-.58A.53.53,0,0,0,144,8.1a4.17,4.17,0,0,0-.94-.3,9,9,0,0,1-1.41-.42,1.35,1.35,0,0,1-.59-.49,1.26,1.26,0,0,1-.2-.7,1.28,1.28,0,0,1,.17-.64,1.44,1.44,0,0,1,.45-.49,2,2,0,0,1,.59-.26,2.93,2.93,0,0,1,.8-.1,3.29,3.29,0,0,1,1.13.18,1.53,1.53,0,0,1,.72.48,1.82,1.82,0,0,1,.32.8l-.9.12a.93.93,0,0,0-.36-.62,1.35,1.35,0,0,0-.83-.22,1.57,1.57,0,0,0-.91.2.57.57,0,0,0-.27.47.47.47,0,0,0,.11.31.82.82,0,0,0,.35.23l.82.22a11.74,11.74,0,0,1,1.37.41,1.38,1.38,0,0,1,.61.46,1.24,1.24,0,0,1,.22.75,1.43,1.43,0,0,1-.27.83,1.72,1.72,0,0,1-.78.6,3,3,0,0,1-1.15.21,2.65,2.65,0,0,1-1.62-.42A1.93,1.93,0,0,1,140.7,8.45Z" style="fill:#fff"/><rect x="0.53" y="99.87" width="44.92" height="23.97" style="fill:none"/><rect x="45.65" y="99.87" width="44.92" height="23.97" style="fill:none"/><rect x="90.57" y="99.87" width="44.92" height="23.97" style="fill:none;stroke:#000;stroke-linecap:round;stroke-linejoin:round;stroke-width:0.9753649999999999px"/><rect x="180.23" y="99.87" width="44.92" height="23.97" style="fill:none;stroke:#000;stroke-linecap:round;stroke-linejoin:round;stroke-width:0.9753649999999999px"/><rect x="135.36" y="99.87" width="44.92" height="23.97" style="fill:none"/><line x1="0.53" y1="99.87" x2="225.04" y2="99.87" style="fill:none;stroke:#000;stroke-linecap:round;stroke-linejoin:round;stroke-width:0.9753649999999999px"/><path d="M193.64,115.84V108h.65v3.23h2.56V108h.65v7.88h-.65v-3.71h-2.56v3.71Z" style="fill:#231f20"/><path d="M199.16,115.84V108h3.57v.93h-2.91v2.41h2.73v.92h-2.73v2.68h3v.93Z" style="fill:#231f20"/><path d="M204.27,115.84V108h.65v6.95h2.43v.93Z" style="fill:#231f20"/><path d="M208.68,115.84V108h1.86a2.82,2.82,0,0,1,.75.08,1.23,1.23,0,0,1,.61.37,2,2,0,0,1,.4.76,3.67,3.67,0,0,1,.15,1.07,3.37,3.37,0,0,1-.4,1.7,1.53,1.53,0,0,1-1.45.7h-1.26v3.2Zm.65-4.13h1.27a1,1,0,0,0,.9-.38,1.81,1.81,0,0,0,.27-1.06,2.07,2.07,0,0,0-.16-.85.84.84,0,0,0-.41-.46,1.76,1.76,0,0,0-.61-.07h-1.26Z" style="fill:#231f20"/><rect x="209.68" y="81.2" width="15.48" height="18.65" style="fill:none;stroke:#000;stroke-width:0.9753649999999999px"/><polygon points="210.46 90.12 217.43 97.08 224.37 90.12 210.46 90.12" style="fill:#231f20"/><rect x="209.68" y="13.08" width="15.48" height="18.65" style="fill:none;stroke:#000;stroke-width:0.9753649999999999px"/><rect x="210.23" y="33.39" width="13.56" height="34.37"/><polygon points="224.4 22.92 217.43 15.96 210.48 22.92 224.4 22.92" style="fill:#231f20"/><path d="M102.71,115.84V108h1.85a1.38,1.38,0,0,1,1.44,1,2.84,2.84,0,0,1,.19,1,2.6,2.6,0,0,1-.17,1,1.66,1.66,0,0,1-.52.72,1.43,1.43,0,0,1,.69.71,2.73,2.73,0,0,1,.24,1.19,3.49,3.49,0,0,1-.15,1,2.11,2.11,0,0,1-.36.73,1.34,1.34,0,0,1-.54.39,2.11,2.11,0,0,1-.79.13Zm.65-4.57h1.07a1.53,1.53,0,0,0,.62-.09.78.78,0,0,0,.38-.39,1.65,1.65,0,0,0,.13-.69,1.86,1.86,0,0,0-.12-.69.74.74,0,0,0-.34-.41,1.83,1.83,0,0,0-.75-.11h-1Zm0,3.64h1.23a1.82,1.82,0,0,0,.44,0,.86.86,0,0,0,.38-.21,1.1,1.1,0,0,0,.25-.44,2.06,2.06,0,0,0,.1-.66,1.9,1.9,0,0,0-.14-.77.89.89,0,0,0-.39-.46,1.6,1.6,0,0,0-.72-.13h-1.14Z"/><path d="M107.34,115.84l1.89-7.87h.7l2,7.88h-.74l-.58-2.38h-2.06l-.54,2.38Zm1.42-3.23h1.67l-.51-2.18q-.24-1-.35-1.63a15,15,0,0,1-.27,1.5Z"/><path d="M116.55,113.08l.65.26a4.21,4.21,0,0,1-.74,2,1.61,1.61,0,0,1-1.3.67,1.72,1.72,0,0,1-1.3-.52,3.37,3.37,0,0,1-.76-1.5,8.2,8.2,0,0,1-.26-2.11,7,7,0,0,1,.29-2.15,3,3,0,0,1,.84-1.39,1.78,1.78,0,0,1,1.2-.48,1.56,1.56,0,0,1,1.24.6,3.59,3.59,0,0,1,.7,1.69l-.64.24a2.84,2.84,0,0,0-.5-1.25,1,1,0,0,0-.82-.39,1.21,1.21,0,0,0-1,.44,2.53,2.53,0,0,0-.54,1.17,7.27,7.27,0,0,0-.16,1.51,7.45,7.45,0,0,0,.18,1.75,2.25,2.25,0,0,0,.57,1.12,1.19,1.19,0,0,0,.84.37,1.13,1.13,0,0,0,.93-.5A3.22,3.22,0,0,0,116.55,113.08Z"/><path d="M118.53,115.84V108h.65v3.91l2.45-3.91h.88l-2.07,3.19,2.16,4.68h-.86l-1.76-4-.81,1.26v2.73Z"/><path d="M4.29,22.88l1-.09a2.17,2.17,0,0,0,.32,1,1.77,1.77,0,0,0,.79.61,3,3,0,0,0,1.21.23,2.9,2.9,0,0,0,1.05-.18,1.46,1.46,0,0,0,.68-.49,1.13,1.13,0,0,0,.22-.67,1,1,0,0,0-.21-.65,1.59,1.59,0,0,0-.71-.46,13.86,13.86,0,0,0-1.4-.38,7.16,7.16,0,0,1-1.52-.49,2.13,2.13,0,0,1-.84-.73,1.8,1.8,0,0,1-.28-1,2,2,0,0,1,.34-1.11,2.1,2.1,0,0,1,1-.79,3.75,3.75,0,0,1,1.44-.27,4,4,0,0,1,1.54.28,2.23,2.23,0,0,1,1,.83,2.39,2.39,0,0,1,.39,1.24l-1,.08a1.61,1.61,0,0,0-.55-1.13,2.12,2.12,0,0,0-1.37-.38A2.2,2.2,0,0,0,6,18.66a1,1,0,0,0-.43.83.9.9,0,0,0,.31.7,4.15,4.15,0,0,0,1.57.56,10.39,10.39,0,0,1,1.74.5,2.39,2.39,0,0,1,1,.8,2,2,0,0,1,.33,1.12,2.15,2.15,0,0,1-.36,1.18,2.37,2.37,0,0,1-1,.86,3.6,3.6,0,0,1-1.52.31,4.54,4.54,0,0,1-1.79-.31,2.51,2.51,0,0,1-1.13-.94A2.65,2.65,0,0,1,4.29,22.88Z"/><path d="M14.19,24.54l.14.85a3.6,3.6,0,0,1-.73.09,1.66,1.66,0,0,1-.82-.17.93.93,0,0,1-.41-.44,3.46,3.46,0,0,1-.12-1.14V20.45h-.71V19.7h.71V18.29l1-.58v2h1v.75h-1v3.34a1.68,1.68,0,0,0,.05.53.4.4,0,0,0,.17.19.65.65,0,0,0,.33.07Z"/><path d="M19.08,24.7a3.6,3.6,0,0,1-1,.64,3,3,0,0,1-1.07.19,2.08,2.08,0,0,1-1.44-.46A1.52,1.52,0,0,1,15,23.9a1.56,1.56,0,0,1,.19-.77,1.58,1.58,0,0,1,.5-.56,2.35,2.35,0,0,1,.7-.32,6.85,6.85,0,0,1,.86-.15A8.84,8.84,0,0,0,19,21.79c0-.13,0-.22,0-.25a1.07,1.07,0,0,0-.27-.83,1.62,1.62,0,0,0-1.1-.33,1.71,1.71,0,0,0-1,.24,1.46,1.46,0,0,0-.48.85l-.95-.13a2.34,2.34,0,0,1,.42-1,1.86,1.86,0,0,1,.85-.58,3.82,3.82,0,0,1,1.29-.2,3.42,3.42,0,0,1,1.19.17,1.56,1.56,0,0,1,.67.43,1.52,1.52,0,0,1,.3.66,5.44,5.44,0,0,1,0,.89V23A13.6,13.6,0,0,0,20,24.72a2.15,2.15,0,0,0,.24.68h-1A2.06,2.06,0,0,1,19.08,24.7ZM19,22.54a7.1,7.1,0,0,1-1.58.37,3.63,3.63,0,0,0-.84.19.84.84,0,0,0-.38.31.85.85,0,0,0,.16,1.1,1.26,1.26,0,0,0,.86.26,2,2,0,0,0,1-.24,1.5,1.5,0,0,0,.64-.67,2.33,2.33,0,0,0,.16-1Z"/><path d="M23.8,24.54l.14.85a3.6,3.6,0,0,1-.73.09,1.66,1.66,0,0,1-.82-.17.93.93,0,0,1-.41-.44,3.46,3.46,0,0,1-.12-1.14V20.45h-.71V19.7h.71V18.29l1-.58v2h1v.75h-1v3.34a1.68,1.68,0,0,0,.05.53.4.4,0,0,0,.17.19.65.65,0,0,0,.33.07Z"/><path d="M28.71,25.41v-.84a2.09,2.09,0,0,1-1.81,1,2.3,2.3,0,0,1-.94-.19,1.55,1.55,0,0,1-.65-.49,1.82,1.82,0,0,1-.3-.72,4.9,4.9,0,0,1-.06-.9V19.7h1v3.16a5.62,5.62,0,0,0,.06,1,1,1,0,0,0,.39.6,1.2,1.2,0,0,0,.73.22,1.59,1.59,0,0,0,.82-.22,1.24,1.24,0,0,0,.54-.61,3.05,3.05,0,0,0,.16-1.11V19.7h1v5.7Z"/><path d="M30.92,23.7l1-.15a1.33,1.33,0,0,0,.45.88,1.56,1.56,0,0,0,1,.31,1.51,1.51,0,0,0,1-.27.81.81,0,0,0,.32-.64.59.59,0,0,0-.28-.52,4.18,4.18,0,0,0-1-.33,9,9,0,0,1-1.47-.46,1.41,1.41,0,0,1-.84-1.31,1.47,1.47,0,0,1,.17-.71,1.57,1.57,0,0,1,.48-.54,2,2,0,0,1,.62-.28,2.93,2.93,0,0,1,.83-.12,3.3,3.3,0,0,1,1.18.19,1.6,1.6,0,0,1,.75.52,2.05,2.05,0,0,1,.33.88l-.95.13a1,1,0,0,0-.37-.69,1.36,1.36,0,0,0-.87-.25,1.58,1.58,0,0,0-1,.22.64.64,0,0,0-.28.52.53.53,0,0,0,.12.34.85.85,0,0,0,.37.26l.85.25a11.89,11.89,0,0,1,1.43.45,1.45,1.45,0,0,1,.64.51,1.42,1.42,0,0,1,.23.83,1.62,1.62,0,0,1-.28.91,1.83,1.83,0,0,1-.81.66,3,3,0,0,1-1.2.23,2.68,2.68,0,0,1-1.69-.46A2.15,2.15,0,0,1,30.92,23.7Z"/><path d="M37.29,20.8V19.7h1.1v1.1Zm0,4.6v-1.1h1.1v1.1Z"/><path d="M161.53,22.88l1-.09a2.16,2.16,0,0,0,.32,1,1.77,1.77,0,0,0,.79.61,3,3,0,0,0,1.21.23,2.89,2.89,0,0,0,1.05-.18,1.46,1.46,0,0,0,.68-.49,1.13,1.13,0,0,0,.22-.67,1,1,0,0,0-.21-.65,1.59,1.59,0,0,0-.71-.46,13.84,13.84,0,0,0-1.4-.38,7.16,7.16,0,0,1-1.52-.49,2.13,2.13,0,0,1-.84-.73,1.8,1.8,0,0,1-.28-1,2,2,0,0,1,.34-1.11,2.1,2.1,0,0,1,1-.79,3.74,3.74,0,0,1,1.44-.27,4,4,0,0,1,1.54.28,2.23,2.23,0,0,1,1,.83,2.4,2.4,0,0,1,.39,1.24l-1,.08A1.61,1.61,0,0,0,166,18.7a2.12,2.12,0,0,0-1.37-.38,2.2,2.2,0,0,0-1.38.35,1,1,0,0,0-.43.83.9.9,0,0,0,.31.7,4.16,4.16,0,0,0,1.57.56,10.42,10.42,0,0,1,1.74.5,2.39,2.39,0,0,1,1,.8,2,2,0,0,1,.33,1.12,2.14,2.14,0,0,1-.36,1.18,2.36,2.36,0,0,1-1,.86,3.6,3.6,0,0,1-1.52.31,4.54,4.54,0,0,1-1.79-.31,2.51,2.51,0,0,1-1.13-.94A2.66,2.66,0,0,1,161.53,22.88Z"/><path d="M171.43,24.54l.14.85a3.59,3.59,0,0,1-.73.09,1.66,1.66,0,0,1-.82-.17.93.93,0,0,1-.41-.44,3.48,3.48,0,0,1-.12-1.14V20.45h-.71V19.7h.71V18.29l1-.58v2h1v.75h-1v3.34a1.68,1.68,0,0,0,.05.53.41.41,0,0,0,.17.19.65.65,0,0,0,.33.07Z"/><path d="M176.31,24.7a3.59,3.59,0,0,1-1,.64,3,3,0,0,1-1.07.19,2.08,2.08,0,0,1-1.45-.46,1.52,1.52,0,0,1-.5-1.17,1.56,1.56,0,0,1,.19-.77,1.59,1.59,0,0,1,.5-.56,2.35,2.35,0,0,1,.7-.32,6.88,6.88,0,0,1,.86-.15,8.85,8.85,0,0,0,1.72-.33c0-.13,0-.22,0-.25a1.07,1.07,0,0,0-.27-.83,1.62,1.62,0,0,0-1.1-.33,1.71,1.71,0,0,0-1,.24,1.46,1.46,0,0,0-.48.85l-.95-.13a2.35,2.35,0,0,1,.42-1,1.86,1.86,0,0,1,.85-.58,3.82,3.82,0,0,1,1.29-.2,3.43,3.43,0,0,1,1.19.17,1.56,1.56,0,0,1,.67.43,1.51,1.51,0,0,1,.3.66,5.43,5.43,0,0,1,0,.89V23a13.74,13.74,0,0,0,.06,1.71,2.16,2.16,0,0,0,.24.68h-1A2.08,2.08,0,0,1,176.31,24.7Zm-.08-2.16a7.11,7.11,0,0,1-1.58.37,3.65,3.65,0,0,0-.84.19.84.84,0,0,0-.38.31.85.85,0,0,0,.16,1.1,1.26,1.26,0,0,0,.86.26,2,2,0,0,0,1-.24,1.5,1.5,0,0,0,.64-.67,2.32,2.32,0,0,0,.16-1Z"/><path d="M178.93,25.41V19.7h.87v.81a2.05,2.05,0,0,1,1.82-.94,2.37,2.37,0,0,1,.95.19,1.49,1.49,0,0,1,.65.49,1.88,1.88,0,0,1,.3.71,5.61,5.61,0,0,1,.05.94v3.51h-1V21.94a2.6,2.6,0,0,0-.11-.88.93.93,0,0,0-.4-.47,1.27,1.27,0,0,0-.67-.17,1.57,1.57,0,0,0-1.07.39,1.93,1.93,0,0,0-.45,1.49v3.12Z"/><path d="M189,25.41v-.72a1.77,1.77,0,0,1-1.6.85,2.24,2.24,0,0,1-1.25-.38,2.47,2.47,0,0,1-.89-1,3.62,3.62,0,0,1-.31-1.55A4.06,4.06,0,0,1,185.2,21a2.25,2.25,0,0,1,.85-1.07,2.28,2.28,0,0,1,1.27-.37,1.9,1.9,0,0,1,.92.22,1.92,1.92,0,0,1,.66.57V17.53h1v7.87Zm-3.06-2.85a2.48,2.48,0,0,0,.46,1.64,1.39,1.39,0,0,0,1.09.54,1.37,1.37,0,0,0,1.08-.52,2.39,2.39,0,0,0,.44-1.58,2.68,2.68,0,0,0-.45-1.72,1.39,1.39,0,0,0-1.11-.55,1.34,1.34,0,0,0-1.08.53A2.6,2.6,0,0,0,185.91,22.56Z"/><path d="M192.5,25.41h-.9V17.53h1v2.81a1.91,1.91,0,0,1,1.56-.77,2.4,2.4,0,0,1,1,.21,2,2,0,0,1,.77.6,2.89,2.89,0,0,1,.48.93,3.83,3.83,0,0,1,.17,1.16,3.26,3.26,0,0,1-.73,2.27,2.27,2.27,0,0,1-1.74.8,1.82,1.82,0,0,1-1.58-.84Zm0-2.9a3,3,0,0,0,.28,1.48,1.38,1.38,0,0,0,2.33.2,2.5,2.5,0,0,0,.46-1.64,2.55,2.55,0,0,0-.44-1.65,1.35,1.35,0,0,0-1.07-.53,1.39,1.39,0,0,0-1.1.55A2.41,2.41,0,0,0,192.49,22.51Z"/><path d="M197.9,27.6l-.11-.91a2.16,2.16,0,0,0,.55.09,1.06,1.06,0,0,0,.52-.11.89.89,0,0,0,.32-.3,4.75,4.75,0,0,0,.29-.72l.09-.24L197.4,19.7h1l1.19,3.3q.23.63.41,1.32a12.76,12.76,0,0,1,.4-1.3l1.22-3.32h1l-2.17,5.8a11.36,11.36,0,0,1-.54,1.29,1.91,1.91,0,0,1-.59.7,1.4,1.4,0,0,1-.79.22A1.94,1.94,0,0,1,197.9,27.6Z"/><path d="M4.67,39.41V31.53h5.69v.93H5.71v2.41h4.36v.92H5.71v2.68h4.83v.93Z"/><path d="M17.82,36.65l1,.26a3.51,3.51,0,0,1-1.18,2,3.25,3.25,0,0,1-2.08.67A3.74,3.74,0,0,1,13.53,39a3.24,3.24,0,0,1-1.21-1.5,5.36,5.36,0,0,1-.42-2.11,4.64,4.64,0,0,1,.47-2.15,3.22,3.22,0,0,1,1.34-1.39,3.91,3.91,0,0,1,1.91-.48,3.23,3.23,0,0,1,2,.6,3.12,3.12,0,0,1,1.12,1.69l-1,.24a2.43,2.43,0,0,0-.79-1.25,2.12,2.12,0,0,0-1.31-.39,2.55,2.55,0,0,0-1.52.44,2.3,2.3,0,0,0-.86,1.17A4.71,4.71,0,0,0,13,35.4a4.8,4.8,0,0,0,.29,1.75,2.18,2.18,0,0,0,.91,1.12,2.55,2.55,0,0,0,1.34.37,2.24,2.24,0,0,0,1.48-.5A2.58,2.58,0,0,0,17.82,36.65Z"/><path d="M20,35.57A4.28,4.28,0,0,1,21.1,32.5a3.58,3.58,0,0,1,2.72-1.11,3.77,3.77,0,0,1,2,.52,3.4,3.4,0,0,1,1.33,1.45,4.71,4.71,0,0,1,.46,2.11,4.64,4.64,0,0,1-.48,2.14,3.3,3.3,0,0,1-1.37,1.43,3.92,3.92,0,0,1-1.91.49,3.72,3.72,0,0,1-2-.54,3.46,3.46,0,0,1-1.33-1.47A4.44,4.44,0,0,1,20,35.57Zm1.07,0a3.16,3.16,0,0,0,.77,2.24,2.67,2.67,0,0,0,3.86,0,3.34,3.34,0,0,0,.76-2.35,4,4,0,0,0-.32-1.68,2.5,2.5,0,0,0-1-1.11,2.57,2.57,0,0,0-1.4-.4,2.66,2.66,0,0,0-1.9.76A3.4,3.4,0,0,0,21.12,35.59Z"/><path d="M38,36.65l1,.26a3.51,3.51,0,0,1-1.18,2,3.25,3.25,0,0,1-2.08.67A3.74,3.74,0,0,1,33.75,39a3.24,3.24,0,0,1-1.21-1.5,5.36,5.36,0,0,1-.42-2.11,4.64,4.64,0,0,1,.47-2.15,3.22,3.22,0,0,1,1.34-1.39,3.91,3.91,0,0,1,1.91-.48,3.23,3.23,0,0,1,2,.6,3.12,3.12,0,0,1,1.12,1.69l-1,.24a2.43,2.43,0,0,0-.79-1.25,2.12,2.12,0,0,0-1.31-.39,2.55,2.55,0,0,0-1.52.44,2.3,2.3,0,0,0-.86,1.17,4.71,4.71,0,0,0-.25,1.51,4.8,4.8,0,0,0,.29,1.75,2.18,2.18,0,0,0,.91,1.12,2.55,2.55,0,0,0,1.34.37,2.24,2.24,0,0,0,1.48-.5A2.58,2.58,0,0,0,38,36.65Z"/><path d="M40.1,36.55A2.94,2.94,0,0,1,41,34.21a2.66,2.66,0,0,1,1.79-.63,2.56,2.56,0,0,1,1.92.77,2.93,2.93,0,0,1,.75,2.13,3.77,3.77,0,0,1-.33,1.73,2.34,2.34,0,0,1-1,1,2.8,2.8,0,0,1-1.38.35,2.56,2.56,0,0,1-1.94-.77A3.07,3.07,0,0,1,40.1,36.55Zm1,0a2.43,2.43,0,0,0,.48,1.64,1.59,1.59,0,0,0,2.4,0,2.49,2.49,0,0,0,.48-1.67,2.36,2.36,0,0,0-.48-1.6,1.59,1.59,0,0,0-2.4,0A2.42,2.42,0,0,0,41.09,36.55Z"/><path d="M46.8,39.41V33.7h.87v.81a2.05,2.05,0,0,1,1.82-.94,2.37,2.37,0,0,1,.95.19,1.48,1.48,0,0,1,.65.49,1.87,1.87,0,0,1,.3.71,5.55,5.55,0,0,1,.05.94v3.51h-1V35.94a2.61,2.61,0,0,0-.11-.88.93.93,0,0,0-.4-.47,1.27,1.27,0,0,0-.67-.17,1.57,1.57,0,0,0-1.07.39,1.93,1.93,0,0,0-.45,1.49v3.12Z"/><path d="M55.24,38.54l.14.85a3.6,3.6,0,0,1-.73.09,1.66,1.66,0,0,1-.82-.17.93.93,0,0,1-.41-.44,3.46,3.46,0,0,1-.12-1.14V34.45H52.6V33.7h.71V32.29l1-.58v2h1v.75h-1v3.34a1.68,1.68,0,0,0,.05.53.4.4,0,0,0,.17.19.65.65,0,0,0,.33.07Z"/><path d="M60.13,38.7a3.6,3.6,0,0,1-1,.64,3,3,0,0,1-1.07.19,2.08,2.08,0,0,1-1.44-.46,1.52,1.52,0,0,1-.5-1.17,1.56,1.56,0,0,1,.19-.77,1.58,1.58,0,0,1,.5-.56,2.35,2.35,0,0,1,.7-.32,6.85,6.85,0,0,1,.86-.15,8.84,8.84,0,0,0,1.72-.33c0-.13,0-.22,0-.25a1.07,1.07,0,0,0-.27-.83,1.62,1.62,0,0,0-1.1-.33,1.71,1.71,0,0,0-1,.24,1.46,1.46,0,0,0-.48.85l-.95-.13a2.34,2.34,0,0,1,.42-1,1.86,1.86,0,0,1,.85-.58,3.82,3.82,0,0,1,1.29-.2,3.42,3.42,0,0,1,1.19.17,1.56,1.56,0,0,1,.67.43,1.52,1.52,0,0,1,.3.66,5.44,5.44,0,0,1,0,.89V37a13.6,13.6,0,0,0,.06,1.71,2.15,2.15,0,0,0,.24.68h-1A2.06,2.06,0,0,1,60.13,38.7Zm-.08-2.16a7.1,7.1,0,0,1-1.58.37,3.63,3.63,0,0,0-.84.19.84.84,0,0,0-.38.31.85.85,0,0,0,.16,1.1,1.26,1.26,0,0,0,.86.26,2,2,0,0,0,1-.24,1.5,1.5,0,0,0,.64-.67,2.33,2.33,0,0,0,.16-1Z"/><path d="M66.47,37.32l1,.12a2.47,2.47,0,0,1-.8,1.54,2.33,2.33,0,0,1-1.58.56,2.45,2.45,0,0,1-1.88-.77,3.1,3.1,0,0,1-.71-2.19A4,4,0,0,1,62.76,35a2.13,2.13,0,0,1,.93-1,2.76,2.76,0,0,1,1.36-.35,2.37,2.37,0,0,1,1.52.47,2.15,2.15,0,0,1,.76,1.33l-.94.15a1.56,1.56,0,0,0-.48-.86,1.23,1.23,0,0,0-.82-.29,1.5,1.5,0,0,0-1.19.52,2.49,2.49,0,0,0-.46,1.66,2.57,2.57,0,0,0,.44,1.67,1.43,1.43,0,0,0,1.15.52,1.35,1.35,0,0,0,1-.35A1.73,1.73,0,0,0,66.47,37.32Z"/><path d="M70.58,38.54l.14.85a3.6,3.6,0,0,1-.73.09,1.66,1.66,0,0,1-.82-.17.93.93,0,0,1-.41-.44,3.46,3.46,0,0,1-.12-1.14V34.45h-.71V33.7h.71V32.29l1-.58v2h1v.75h-1v3.34a1.68,1.68,0,0,0,.05.53.4.4,0,0,0,.17.19.65.65,0,0,0,.33.07Z"/><path d="M173.84,36.65l1,.26a3.5,3.5,0,0,1-1.18,2,3.25,3.25,0,0,1-2.08.67,3.75,3.75,0,0,1-2.07-.52,3.25,3.25,0,0,1-1.21-1.5,5.36,5.36,0,0,1-.42-2.11,4.65,4.65,0,0,1,.47-2.15,3.22,3.22,0,0,1,1.34-1.39,3.91,3.91,0,0,1,1.91-.48,3.23,3.23,0,0,1,2,.6,3.13,3.13,0,0,1,1.12,1.69l-1,.24a2.43,2.43,0,0,0-.79-1.25,2.12,2.12,0,0,0-1.31-.39,2.55,2.55,0,0,0-1.52.44,2.3,2.3,0,0,0-.86,1.17A4.73,4.73,0,0,0,169,35.4a4.8,4.8,0,0,0,.29,1.75,2.18,2.18,0,0,0,.91,1.12,2.55,2.55,0,0,0,1.34.37,2.24,2.24,0,0,0,1.48-.5A2.58,2.58,0,0,0,173.84,36.65Z"/><path d="M176.25,39.41V31.53h1v7.87Z"/><path d="M178.57,36.55a2.94,2.94,0,0,1,.88-2.35,2.65,2.65,0,0,1,1.79-.63,2.56,2.56,0,0,1,1.92.77,2.94,2.94,0,0,1,.75,2.13,3.77,3.77,0,0,1-.33,1.73,2.34,2.34,0,0,1-1,1,2.8,2.8,0,0,1-1.38.35,2.56,2.56,0,0,1-1.94-.77A3.07,3.07,0,0,1,178.57,36.55Zm1,0A2.43,2.43,0,0,0,180,38.2a1.59,1.59,0,0,0,2.4,0,2.48,2.48,0,0,0,.48-1.67,2.36,2.36,0,0,0-.48-1.6,1.59,1.59,0,0,0-2.4,0A2.42,2.42,0,0,0,179.56,36.55Z"/><path d="M184.88,37.7l1-.15a1.33,1.33,0,0,0,.45.88,1.56,1.56,0,0,0,1,.31,1.51,1.51,0,0,0,1-.27.81.81,0,0,0,.32-.64.59.59,0,0,0-.29-.52,4.17,4.17,0,0,0-1-.33,9,9,0,0,1-1.47-.46,1.42,1.42,0,0,1-.62-.54,1.44,1.44,0,0,1-.21-.77,1.47,1.47,0,0,1,.17-.71,1.56,1.56,0,0,1,.48-.54,2,2,0,0,1,.62-.28,2.93,2.93,0,0,1,.83-.12,3.3,3.3,0,0,1,1.18.19,1.6,1.6,0,0,1,.75.52,2,2,0,0,1,.33.88l-.95.13a1,1,0,0,0-.37-.69,1.37,1.37,0,0,0-.87-.25,1.58,1.58,0,0,0-1,.22.64.64,0,0,0-.29.52.54.54,0,0,0,.12.34.85.85,0,0,0,.37.26l.85.25a11.91,11.91,0,0,1,1.43.45,1.46,1.46,0,0,1,.64.51,1.42,1.42,0,0,1,.23.83,1.62,1.62,0,0,1-.28.91,1.83,1.83,0,0,1-.81.66,3,3,0,0,1-1.2.23,2.68,2.68,0,0,1-1.69-.46A2.15,2.15,0,0,1,184.88,37.7Z"/><path d="M194.89,37.57l1,.12a2.44,2.44,0,0,1-.88,1.36,3,3,0,0,1-3.62-.29,3,3,0,0,1-.73-2.16,3.15,3.15,0,0,1,.74-2.23,2.51,2.51,0,0,1,1.92-.79,2.44,2.44,0,0,1,1.87.78,3.09,3.09,0,0,1,.73,2.19q0,.09,0,.26h-4.25a2.19,2.19,0,0,0,.53,1.44,1.58,1.58,0,0,0,1.19.5,1.48,1.48,0,0,0,.91-.28A1.86,1.86,0,0,0,194.89,37.57ZM191.72,36h3.19a1.93,1.93,0,0,0-.37-1.08,1.48,1.48,0,0,0-1.2-.56,1.53,1.53,0,0,0-1.12.45A1.76,1.76,0,0,0,191.72,36Z"/><path d="M201,39.41v-.72a1.77,1.77,0,0,1-1.6.85,2.24,2.24,0,0,1-1.25-.38,2.47,2.47,0,0,1-.89-1,3.62,3.62,0,0,1-.31-1.55,4.06,4.06,0,0,1,.28-1.55,2.25,2.25,0,0,1,.85-1.07,2.28,2.28,0,0,1,1.27-.37,1.9,1.9,0,0,1,.92.22,1.92,1.92,0,0,1,.66.57V31.53h1v7.87ZM198,36.56a2.48,2.48,0,0,0,.46,1.64,1.39,1.39,0,0,0,1.09.54,1.37,1.37,0,0,0,1.08-.52,2.39,2.39,0,0,0,.44-1.58,2.68,2.68,0,0,0-.45-1.72,1.39,1.39,0,0,0-1.11-.55,1.34,1.34,0,0,0-1.08.53A2.6,2.6,0,0,0,198,36.56Z"/><path d="M4.6,53.41V45.53h1v6.94H9.52v.93Z"/><path d="M10.5,50.55a2.94,2.94,0,0,1,.88-2.35,2.66,2.66,0,0,1,1.79-.63,2.56,2.56,0,0,1,1.92.77,2.93,2.93,0,0,1,.75,2.13,3.77,3.77,0,0,1-.33,1.73,2.34,2.34,0,0,1-1,1,2.8,2.8,0,0,1-1.38.35,2.56,2.56,0,0,1-1.94-.77A3.07,3.07,0,0,1,10.5,50.55Zm1,0A2.43,2.43,0,0,0,12,52.2a1.59,1.59,0,0,0,2.4,0,2.49,2.49,0,0,0,.48-1.67,2.36,2.36,0,0,0-.48-1.6,1.59,1.59,0,0,0-2.4,0A2.42,2.42,0,0,0,11.49,50.55Z"/><path d="M18.25,53.41,16.5,47.7h1L18.41,51l.34,1.22L19,51,20,47.7h1L21.8,51l.28,1.09.33-1.1,1-3.3h.94l-1.78,5.7h-1L20.63,50l-.22-1-1.15,4.39Z"/><path d="M32.44,50.32v-.92h3.34v2.92a5.88,5.88,0,0,1-1.58.92,4.7,4.7,0,0,1-1.68.31,4.48,4.48,0,0,1-2.11-.5A3.29,3.29,0,0,1,29,51.61a4.52,4.52,0,0,1-.48-2.1A4.87,4.87,0,0,1,29,47.36a3.19,3.19,0,0,1,1.38-1.48,4.33,4.33,0,0,1,2.08-.48,4.12,4.12,0,0,1,1.54.28,2.55,2.55,0,0,1,1.08.77,3.43,3.43,0,0,1,.6,1.29l-.94.26a2.91,2.91,0,0,0-.44-.95,1.81,1.81,0,0,0-.75-.55,2.76,2.76,0,0,0-1.08-.21,3.2,3.2,0,0,0-1.24.22,2.32,2.32,0,0,0-.84.57,2.73,2.73,0,0,0-.5.78,4.12,4.12,0,0,0-.3,1.58,3.84,3.84,0,0,0,.36,1.76A2.32,2.32,0,0,0,31,52.26a3.27,3.27,0,0,0,1.47.34,3.49,3.49,0,0,0,1.32-.26,3.41,3.41,0,0,0,1-.56V50.32Z"/><path d="M41.14,52.7a3.6,3.6,0,0,1-1,.64,3,3,0,0,1-1.07.19,2.08,2.08,0,0,1-1.44-.46,1.52,1.52,0,0,1-.5-1.17,1.56,1.56,0,0,1,.19-.77,1.58,1.58,0,0,1,.5-.56,2.35,2.35,0,0,1,.7-.32,6.85,6.85,0,0,1,.86-.15,8.84,8.84,0,0,0,1.72-.33c0-.13,0-.22,0-.25a1.07,1.07,0,0,0-.27-.83,1.62,1.62,0,0,0-1.1-.33,1.71,1.71,0,0,0-1,.24,1.46,1.46,0,0,0-.48.85l-.95-.13a2.34,2.34,0,0,1,.42-1,1.86,1.86,0,0,1,.85-.58,3.82,3.82,0,0,1,1.29-.2,3.42,3.42,0,0,1,1.19.17,1.56,1.56,0,0,1,.67.43,1.52,1.52,0,0,1,.3.66,5.44,5.44,0,0,1,0,.89V51a13.6,13.6,0,0,0,.06,1.71,2.15,2.15,0,0,0,.24.68h-1A2.06,2.06,0,0,1,41.14,52.7Zm-.08-2.16a7.1,7.1,0,0,1-1.58.37,3.63,3.63,0,0,0-.84.19.84.84,0,0,0-.38.31.85.85,0,0,0,.16,1.1,1.26,1.26,0,0,0,.86.26,2,2,0,0,0,1-.24,1.5,1.5,0,0,0,.64-.67,2.33,2.33,0,0,0,.16-1Z"/><path d="M43.36,51.7l1-.15a1.33,1.33,0,0,0,.45.88,1.56,1.56,0,0,0,1,.31,1.51,1.51,0,0,0,1-.27.81.81,0,0,0,.32-.64.59.59,0,0,0-.28-.52,4.18,4.18,0,0,0-1-.33,9,9,0,0,1-1.47-.46,1.41,1.41,0,0,1-.84-1.31,1.47,1.47,0,0,1,.17-.71,1.57,1.57,0,0,1,.48-.54,2,2,0,0,1,.62-.28,2.93,2.93,0,0,1,.83-.12,3.3,3.3,0,0,1,1.18.19,1.6,1.6,0,0,1,.75.52,2.05,2.05,0,0,1,.33.88l-.95.13a1,1,0,0,0-.37-.69,1.36,1.36,0,0,0-.87-.25,1.58,1.58,0,0,0-1,.22.64.64,0,0,0-.28.52.53.53,0,0,0,.12.34.85.85,0,0,0,.37.26l.85.25a11.89,11.89,0,0,1,1.43.45,1.45,1.45,0,0,1,.64.51,1.42,1.42,0,0,1,.23.83,1.62,1.62,0,0,1-.28.91,1.83,1.83,0,0,1-.81.66,3,3,0,0,1-1.2.23,2.68,2.68,0,0,1-1.69-.46A2.15,2.15,0,0,1,43.36,51.7Z"/><path d="M52.87,53.41V45.53h3a7.15,7.15,0,0,1,1.2.08A2.37,2.37,0,0,1,58,46a1.93,1.93,0,0,1,.63.76,2.56,2.56,0,0,1-.4,2.77,3.07,3.07,0,0,1-2.31.7h-2v3.2Zm1-4.13h2a2.16,2.16,0,0,0,1.43-.38,1.34,1.34,0,0,0,.42-1.06,1.43,1.43,0,0,0-.25-.85,1.17,1.17,0,0,0-.66-.46,4.46,4.46,0,0,0-1-.07h-2Z"/><path d="M60.07,50.88l1-.09a2.17,2.17,0,0,0,.32,1,1.77,1.77,0,0,0,.79.61,3,3,0,0,0,1.21.23,2.9,2.9,0,0,0,1.05-.18,1.46,1.46,0,0,0,.68-.49,1.13,1.13,0,0,0,.22-.67,1,1,0,0,0-.21-.65,1.59,1.59,0,0,0-.71-.46,13.86,13.86,0,0,0-1.4-.38,7.16,7.16,0,0,1-1.52-.49,2.13,2.13,0,0,1-.84-.73,1.8,1.8,0,0,1-.28-1,2,2,0,0,1,.34-1.11,2.1,2.1,0,0,1,1-.79,3.75,3.75,0,0,1,1.44-.27,4,4,0,0,1,1.54.28,2.23,2.23,0,0,1,1,.83,2.39,2.39,0,0,1,.39,1.24l-1,.08a1.61,1.61,0,0,0-.55-1.13,2.12,2.12,0,0,0-1.37-.38,2.2,2.2,0,0,0-1.38.35,1,1,0,0,0-.43.83.9.9,0,0,0,.31.7,4.15,4.15,0,0,0,1.57.56,10.39,10.39,0,0,1,1.74.5,2.39,2.39,0,0,1,1,.8,2,2,0,0,1,.33,1.12A2.15,2.15,0,0,1,66,52.37a2.37,2.37,0,0,1-1,.86,3.6,3.6,0,0,1-1.52.31,4.54,4.54,0,0,1-1.79-.31,2.51,2.51,0,0,1-1.13-.94A2.65,2.65,0,0,1,60.07,50.88Z"/><path d="M173.84,50.65l1,.26a3.5,3.5,0,0,1-1.18,2,3.25,3.25,0,0,1-2.08.67,3.75,3.75,0,0,1-2.07-.52,3.25,3.25,0,0,1-1.21-1.5,5.36,5.36,0,0,1-.42-2.11,4.65,4.65,0,0,1,.47-2.15,3.22,3.22,0,0,1,1.34-1.39,3.91,3.91,0,0,1,1.91-.48,3.23,3.23,0,0,1,2,.6,3.13,3.13,0,0,1,1.12,1.69l-1,.24a2.43,2.43,0,0,0-.79-1.25,2.12,2.12,0,0,0-1.31-.39,2.55,2.55,0,0,0-1.52.44,2.3,2.3,0,0,0-.86,1.17A4.73,4.73,0,0,0,169,49.4a4.8,4.8,0,0,0,.29,1.75,2.18,2.18,0,0,0,.91,1.12,2.55,2.55,0,0,0,1.34.37,2.24,2.24,0,0,0,1.48-.5A2.58,2.58,0,0,0,173.84,50.65Z"/><path d="M176.25,53.41V45.53h1v7.87Z"/><path d="M178.57,50.55a2.94,2.94,0,0,1,.88-2.35,2.65,2.65,0,0,1,1.79-.63,2.56,2.56,0,0,1,1.92.77,2.94,2.94,0,0,1,.75,2.13,3.77,3.77,0,0,1-.33,1.73,2.34,2.34,0,0,1-1,1,2.8,2.8,0,0,1-1.38.35,2.56,2.56,0,0,1-1.94-.77A3.07,3.07,0,0,1,178.57,50.55Zm1,0A2.43,2.43,0,0,0,180,52.2a1.59,1.59,0,0,0,2.4,0,2.48,2.48,0,0,0,.48-1.67,2.36,2.36,0,0,0-.48-1.6,1.59,1.59,0,0,0-2.4,0A2.42,2.42,0,0,0,179.56,50.55Z"/><path d="M184.88,51.7l1-.15a1.33,1.33,0,0,0,.45.88,1.56,1.56,0,0,0,1,.31,1.51,1.51,0,0,0,1-.27.81.81,0,0,0,.32-.64.59.59,0,0,0-.29-.52,4.17,4.17,0,0,0-1-.33,9,9,0,0,1-1.47-.46,1.42,1.42,0,0,1-.62-.54,1.44,1.44,0,0,1-.21-.77,1.47,1.47,0,0,1,.17-.71,1.56,1.56,0,0,1,.48-.54,2,2,0,0,1,.62-.28,2.93,2.93,0,0,1,.83-.12,3.3,3.3,0,0,1,1.18.19,1.6,1.6,0,0,1,.75.52,2,2,0,0,1,.33.88l-.95.13a1,1,0,0,0-.37-.69,1.37,1.37,0,0,0-.87-.25,1.58,1.58,0,0,0-1,.22.64.64,0,0,0-.29.52.54.54,0,0,0,.12.34.85.85,0,0,0,.37.26l.85.25a11.91,11.91,0,0,1,1.43.45,1.46,1.46,0,0,1,.64.51,1.42,1.42,0,0,1,.23.83,1.62,1.62,0,0,1-.28.91,1.83,1.83,0,0,1-.81.66,3,3,0,0,1-1.2.23,2.68,2.68,0,0,1-1.69-.46A2.15,2.15,0,0,1,184.88,51.7Z"/><path d="M194.89,51.57l1,.12a2.44,2.44,0,0,1-.88,1.36,3,3,0,0,1-3.62-.29,3,3,0,0,1-.73-2.16,3.15,3.15,0,0,1,.74-2.23,2.51,2.51,0,0,1,1.92-.79,2.44,2.44,0,0,1,1.87.78,3.09,3.09,0,0,1,.73,2.19q0,.09,0,.26h-4.25a2.19,2.19,0,0,0,.53,1.44,1.58,1.58,0,0,0,1.19.5,1.48,1.48,0,0,0,.91-.28A1.86,1.86,0,0,0,194.89,51.57ZM191.72,50h3.19a1.93,1.93,0,0,0-.37-1.08,1.48,1.48,0,0,0-1.2-.56,1.53,1.53,0,0,0-1.12.45A1.76,1.76,0,0,0,191.72,50Z"/><path d="M201,53.41v-.72a1.77,1.77,0,0,1-1.6.85,2.24,2.24,0,0,1-1.25-.38,2.47,2.47,0,0,1-.89-1,3.62,3.62,0,0,1-.31-1.55,4.06,4.06,0,0,1,.28-1.55,2.25,2.25,0,0,1,.85-1.07,2.28,2.28,0,0,1,1.27-.37,1.9,1.9,0,0,1,.92.22,1.92,1.92,0,0,1,.66.57V45.53h1v7.87ZM198,50.56a2.48,2.48,0,0,0,.46,1.64,1.39,1.39,0,0,0,1.09.54,1.37,1.37,0,0,0,1.08-.52,2.39,2.39,0,0,0,.44-1.58,2.68,2.68,0,0,0-.45-1.72,1.39,1.39,0,0,0-1.11-.55,1.34,1.34,0,0,0-1.08.53A2.6,2.6,0,0,0,198,50.56Z"/><path d="M4.6,67.41V59.53h3A3.65,3.65,0,0,1,9,59.77a1.86,1.86,0,0,1,.85.74,1.94,1.94,0,0,1,.31,1,1.79,1.79,0,0,1-.27,1,2,2,0,0,1-.83.72,2.06,2.06,0,0,1,1.1.71,1.91,1.91,0,0,1,.38,1.19,2.3,2.3,0,0,1-.23,1,2,2,0,0,1-.58.73,2.41,2.41,0,0,1-.86.39,5.23,5.23,0,0,1-1.27.13Zm1-4.57h1.7a3.79,3.79,0,0,0,1-.09,1.1,1.1,0,0,0,.6-.39,1.13,1.13,0,0,0,.2-.69A1.27,1.27,0,0,0,9,61a1,1,0,0,0-.54-.41,4.5,4.5,0,0,0-1.2-.11H5.64Zm0,3.64h2a4.62,4.62,0,0,0,.71,0,1.71,1.71,0,0,0,.6-.21,1.14,1.14,0,0,0,.4-.44,1.37,1.37,0,0,0,.16-.66,1.31,1.31,0,0,0-.23-.76,1.19,1.19,0,0,0-.63-.46,3.87,3.87,0,0,0-1.15-.13H5.64Z"/><path d="M12.06,67.41V59.53h1v7.87Z"/><path d="M14.38,64.55a2.94,2.94,0,0,1,.88-2.35,2.66,2.66,0,0,1,1.79-.63,2.56,2.56,0,0,1,1.92.77,2.93,2.93,0,0,1,.75,2.13,3.77,3.77,0,0,1-.33,1.73,2.34,2.34,0,0,1-1,1,2.79,2.79,0,0,1-1.38.35,2.56,2.56,0,0,1-1.94-.77A3.07,3.07,0,0,1,14.38,64.55Zm1,0a2.43,2.43,0,0,0,.48,1.64,1.59,1.59,0,0,0,2.4,0,2.49,2.49,0,0,0,.48-1.67,2.36,2.36,0,0,0-.48-1.6,1.59,1.59,0,0,0-2.4,0A2.42,2.42,0,0,0,15.38,64.55Z"/><path d="M24.8,65.32l1,.12A2.47,2.47,0,0,1,25,67a2.33,2.33,0,0,1-1.58.56,2.45,2.45,0,0,1-1.88-.77,3.1,3.1,0,0,1-.71-2.19A4,4,0,0,1,21.09,63a2.13,2.13,0,0,1,.93-1,2.76,2.76,0,0,1,1.36-.35A2.37,2.37,0,0,1,24.9,62a2.15,2.15,0,0,1,.76,1.33l-.94.14a1.56,1.56,0,0,0-.48-.86,1.23,1.23,0,0,0-.82-.29,1.5,1.5,0,0,0-1.19.52,2.49,2.49,0,0,0-.46,1.66,2.57,2.57,0,0,0,.44,1.67,1.43,1.43,0,0,0,1.15.52,1.35,1.35,0,0,0,1-.35A1.73,1.73,0,0,0,24.8,65.32Z"/><path d="M26.81,67.41V59.53h1V64l2.29-2.32h1.25l-2.18,2.12,2.4,3.59H30.34l-1.89-2.92-.68.66v2.26Z"/><path d="M36.42,65.57l1,.12a2.44,2.44,0,0,1-.88,1.36,3,3,0,0,1-3.62-.29,3,3,0,0,1-.73-2.16,3.15,3.15,0,0,1,.74-2.23,2.51,2.51,0,0,1,1.92-.79,2.44,2.44,0,0,1,1.87.78,3.09,3.09,0,0,1,.73,2.19c0,.06,0,.14,0,.26H33.2a2.19,2.19,0,0,0,.53,1.44,1.58,1.58,0,0,0,1.19.5,1.48,1.48,0,0,0,.91-.28A1.86,1.86,0,0,0,36.42,65.57ZM33.25,64h3.19a1.93,1.93,0,0,0-.37-1.08,1.48,1.48,0,0,0-1.2-.56,1.53,1.53,0,0,0-1.12.45A1.76,1.76,0,0,0,33.25,64Z"/><path d="M42.56,67.41v-.72a1.78,1.78,0,0,1-1.6.85,2.24,2.24,0,0,1-1.25-.38,2.47,2.47,0,0,1-.89-1,3.63,3.63,0,0,1-.31-1.55A4.05,4.05,0,0,1,38.79,63a2.25,2.25,0,0,1,.85-1.07,2.28,2.28,0,0,1,1.27-.37,1.9,1.9,0,0,1,1.57.78V59.53h1v7.87ZM39.5,64.56A2.47,2.47,0,0,0,40,66.2a1.39,1.39,0,0,0,1.09.54,1.37,1.37,0,0,0,1.08-.52,2.39,2.39,0,0,0,.44-1.58,2.68,2.68,0,0,0-.45-1.72A1.39,1.39,0,0,0,41,62.37a1.34,1.34,0,0,0-1.08.53A2.6,2.6,0,0,0,39.5,64.56Z"/><path d="M48.77,67.41V59.53h1v7.87Z"/><path d="M51.75,67.41V61.7h.87v.81a2.05,2.05,0,0,1,1.82-.94,2.37,2.37,0,0,1,.95.19,1.48,1.48,0,0,1,.65.49,1.87,1.87,0,0,1,.3.71,5.55,5.55,0,0,1,.05.94v3.51h-1V63.94a2.6,2.6,0,0,0-.11-.88.93.93,0,0,0-.4-.47,1.27,1.27,0,0,0-.67-.17,1.57,1.57,0,0,0-1.07.39,1.93,1.93,0,0,0-.45,1.49v3.12Z"/><path d="M58.06,67.41V59.53h1v7.87Z"/><path d="M64.65,65.57l1,.12a2.44,2.44,0,0,1-.88,1.36,3,3,0,0,1-3.62-.29,3,3,0,0,1-.73-2.16,3.15,3.15,0,0,1,.74-2.23,2.51,2.51,0,0,1,1.92-.79,2.44,2.44,0,0,1,1.87.78,3.09,3.09,0,0,1,.73,2.19c0,.06,0,.14,0,.26H61.43A2.19,2.19,0,0,0,62,66.24a1.58,1.58,0,0,0,1.19.5,1.48,1.48,0,0,0,.91-.28A1.86,1.86,0,0,0,64.65,65.57ZM61.48,64h3.19a1.93,1.93,0,0,0-.37-1.08,1.48,1.48,0,0,0-1.2-.56,1.53,1.53,0,0,0-1.12.45A1.76,1.76,0,0,0,61.48,64Z"/><path d="M69.2,66.54l.14.85a3.63,3.63,0,0,1-.73.09,1.65,1.65,0,0,1-.82-.17.93.93,0,0,1-.41-.44,3.47,3.47,0,0,1-.12-1.14V62.45h-.71V61.7h.71V60.29l1-.58v2h1v.75h-1v3.33a1.68,1.68,0,0,0,.05.53.4.4,0,0,0,.17.19.64.64,0,0,0,.33.07Z"/><path d="M73.76,67.41V59.53h3a7.15,7.15,0,0,1,1.2.08,2.37,2.37,0,0,1,1,.37,1.93,1.93,0,0,1,.63.76,2.56,2.56,0,0,1-.4,2.77,3.07,3.07,0,0,1-2.31.7h-2v3.2Zm1-4.13h2a2.16,2.16,0,0,0,1.43-.38,1.34,1.34,0,0,0,.42-1.06,1.43,1.43,0,0,0-.25-.85,1.17,1.17,0,0,0-.66-.46,4.46,4.46,0,0,0-1-.07h-2Z"/><path d="M81,64.88l1-.09a2.17,2.17,0,0,0,.32,1,1.77,1.77,0,0,0,.79.61,3,3,0,0,0,1.21.23,2.9,2.9,0,0,0,1.05-.18,1.46,1.46,0,0,0,.68-.49,1.13,1.13,0,0,0,.22-.67,1,1,0,0,0-.21-.65,1.59,1.59,0,0,0-.71-.46,14,14,0,0,0-1.4-.38,7.22,7.22,0,0,1-1.52-.49,2.13,2.13,0,0,1-.84-.73,1.8,1.8,0,0,1-.28-1,2,2,0,0,1,.34-1.11,2.1,2.1,0,0,1,1-.79A3.75,3.75,0,0,1,84,59.4a4,4,0,0,1,1.54.28,2.23,2.23,0,0,1,1,.83A2.39,2.39,0,0,1,87,61.75l-1,.08a1.61,1.61,0,0,0-.55-1.13,2.12,2.12,0,0,0-1.37-.38,2.2,2.2,0,0,0-1.38.35,1,1,0,0,0-.43.83.9.9,0,0,0,.31.7,4.15,4.15,0,0,0,1.57.56,10.35,10.35,0,0,1,1.74.5,2.38,2.38,0,0,1,1,.8,2,2,0,0,1,.33,1.12,2.15,2.15,0,0,1-.36,1.18,2.37,2.37,0,0,1-1,.86,3.6,3.6,0,0,1-1.52.31,4.53,4.53,0,0,1-1.79-.31,2.5,2.5,0,0,1-1.13-.94A2.66,2.66,0,0,1,81,64.88Z"/><path d="M173.84,64.65l1,.26a3.5,3.5,0,0,1-1.18,2,3.25,3.25,0,0,1-2.08.67,3.75,3.75,0,0,1-2.07-.52,3.25,3.25,0,0,1-1.21-1.5,5.36,5.36,0,0,1-.42-2.11,4.65,4.65,0,0,1,.47-2.15,3.22,3.22,0,0,1,1.34-1.39,3.91,3.91,0,0,1,1.91-.48,3.23,3.23,0,0,1,2,.6,3.13,3.13,0,0,1,1.12,1.69l-1,.24a2.43,2.43,0,0,0-.79-1.25,2.12,2.12,0,0,0-1.31-.39,2.55,2.55,0,0,0-1.52.44,2.3,2.3,0,0,0-.86,1.17A4.72,4.72,0,0,0,169,63.4a4.8,4.8,0,0,0,.29,1.75,2.18,2.18,0,0,0,.91,1.12,2.55,2.55,0,0,0,1.34.37,2.24,2.24,0,0,0,1.48-.5A2.58,2.58,0,0,0,173.84,64.65Z"/><path d="M176.25,67.41V59.53h1v7.87Z"/><path d="M178.57,64.55a2.94,2.94,0,0,1,.88-2.35,2.65,2.65,0,0,1,1.79-.63,2.56,2.56,0,0,1,1.92.77,2.94,2.94,0,0,1,.75,2.13,3.77,3.77,0,0,1-.33,1.73,2.34,2.34,0,0,1-1,1,2.8,2.8,0,0,1-1.38.35,2.56,2.56,0,0,1-1.94-.77A3.07,3.07,0,0,1,178.57,64.55Zm1,0A2.43,2.43,0,0,0,180,66.2a1.59,1.59,0,0,0,2.4,0,2.48,2.48,0,0,0,.48-1.67,2.36,2.36,0,0,0-.48-1.6,1.59,1.59,0,0,0-2.4,0A2.41,2.41,0,0,0,179.56,64.55Z"/><path d="M184.88,65.7l1-.15a1.33,1.33,0,0,0,.45.88,1.56,1.56,0,0,0,1,.31,1.51,1.51,0,0,0,1-.27.81.81,0,0,0,.32-.64.59.59,0,0,0-.29-.52,4.16,4.16,0,0,0-1-.33,9,9,0,0,1-1.47-.46,1.41,1.41,0,0,1-.84-1.31,1.47,1.47,0,0,1,.17-.71,1.56,1.56,0,0,1,.48-.54,2,2,0,0,1,.62-.28,2.93,2.93,0,0,1,.83-.12,3.3,3.3,0,0,1,1.18.19,1.6,1.6,0,0,1,.75.52,2,2,0,0,1,.33.88l-.95.13a1,1,0,0,0-.37-.69,1.37,1.37,0,0,0-.87-.25,1.58,1.58,0,0,0-1,.22.64.64,0,0,0-.29.52.54.54,0,0,0,.12.34.86.86,0,0,0,.37.26l.85.25a11.91,11.91,0,0,1,1.43.45,1.45,1.45,0,0,1,.64.51,1.42,1.42,0,0,1,.23.83,1.62,1.62,0,0,1-.28.91,1.83,1.83,0,0,1-.81.66,3,3,0,0,1-1.2.23,2.68,2.68,0,0,1-1.69-.46A2.15,2.15,0,0,1,184.88,65.7Z"/><path d="M194.89,65.57l1,.12a2.44,2.44,0,0,1-.88,1.36,3,3,0,0,1-3.62-.29,3,3,0,0,1-.73-2.16,3.15,3.15,0,0,1,.74-2.23,2.51,2.51,0,0,1,1.92-.79,2.44,2.44,0,0,1,1.87.78,3.09,3.09,0,0,1,.73,2.19q0,.09,0,.26h-4.25a2.19,2.19,0,0,0,.53,1.44,1.58,1.58,0,0,0,1.19.5,1.48,1.48,0,0,0,.91-.28A1.86,1.86,0,0,0,194.89,65.57ZM191.72,64h3.19a1.93,1.93,0,0,0-.37-1.08,1.48,1.48,0,0,0-1.2-.56,1.53,1.53,0,0,0-1.12.45A1.76,1.76,0,0,0,191.72,64Z"/><path d="M201,67.41v-.72a1.78,1.78,0,0,1-1.6.85,2.24,2.24,0,0,1-1.25-.38,2.47,2.47,0,0,1-.89-1,3.63,3.63,0,0,1-.31-1.55,4.06,4.06,0,0,1,.28-1.55,2.25,2.25,0,0,1,.85-1.07,2.28,2.28,0,0,1,1.27-.37,1.9,1.9,0,0,1,.92.22,1.92,1.92,0,0,1,.66.57V59.53h1v7.87ZM198,64.56a2.48,2.48,0,0,0,.46,1.64,1.39,1.39,0,0,0,1.09.54,1.37,1.37,0,0,0,1.08-.52,2.39,2.39,0,0,0,.44-1.58,2.68,2.68,0,0,0-.45-1.72,1.39,1.39,0,0,0-1.11-.55,1.34,1.34,0,0,0-1.08.53A2.6,2.6,0,0,0,198,64.56Z"/><path d="M4.6,81.41V73.53h3A3.64,3.64,0,0,1,9,73.77a1.86,1.86,0,0,1,.85.74,1.94,1.94,0,0,1,.31,1,1.79,1.79,0,0,1-.27,1,2,2,0,0,1-.83.72,2.06,2.06,0,0,1,1.1.71,1.91,1.91,0,0,1,.38,1.19,2.3,2.3,0,0,1-.23,1,2,2,0,0,1-.58.73,2.41,2.41,0,0,1-.86.39,5.23,5.23,0,0,1-1.27.13Zm1-4.57h1.7a3.77,3.77,0,0,0,1-.09,1.1,1.1,0,0,0,.6-.39,1.13,1.13,0,0,0,.2-.69A1.27,1.27,0,0,0,9,75a1,1,0,0,0-.54-.41,4.49,4.49,0,0,0-1.2-.11H5.64Zm0,3.64h2a4.62,4.62,0,0,0,.71,0,1.71,1.71,0,0,0,.6-.21,1.14,1.14,0,0,0,.4-.44,1.37,1.37,0,0,0,.16-.66,1.31,1.31,0,0,0-.23-.76,1.19,1.19,0,0,0-.63-.46,3.87,3.87,0,0,0-1.15-.13H5.64Z"/><path d="M12.06,81.41V73.53h1v7.87Z"/><path d="M14.38,78.55a2.94,2.94,0,0,1,.88-2.35,2.65,2.65,0,0,1,1.79-.63,2.56,2.56,0,0,1,1.92.77,2.93,2.93,0,0,1,.75,2.13,3.77,3.77,0,0,1-.33,1.73,2.34,2.34,0,0,1-1,1,2.79,2.79,0,0,1-1.38.35,2.56,2.56,0,0,1-1.94-.77A3.07,3.07,0,0,1,14.38,78.55Zm1,0a2.43,2.43,0,0,0,.48,1.64,1.59,1.59,0,0,0,2.4,0,2.49,2.49,0,0,0,.48-1.67,2.36,2.36,0,0,0-.48-1.6,1.59,1.59,0,0,0-2.4,0A2.42,2.42,0,0,0,15.38,78.55Z"/><path d="M24.8,79.32l1,.12A2.47,2.47,0,0,1,25,81a2.33,2.33,0,0,1-1.58.56,2.45,2.45,0,0,1-1.88-.77,3.1,3.1,0,0,1-.71-2.19A4,4,0,0,1,21.09,77a2.13,2.13,0,0,1,.93-1,2.76,2.76,0,0,1,1.36-.35A2.37,2.37,0,0,1,24.9,76a2.15,2.15,0,0,1,.76,1.33l-.94.14a1.56,1.56,0,0,0-.48-.86,1.23,1.23,0,0,0-.82-.29,1.5,1.5,0,0,0-1.19.52,2.49,2.49,0,0,0-.46,1.66,2.57,2.57,0,0,0,.44,1.67,1.43,1.43,0,0,0,1.15.52,1.35,1.35,0,0,0,1-.35A1.73,1.73,0,0,0,24.8,79.32Z"/><path d="M26.81,81.41V73.53h1V78l2.29-2.32h1.25l-2.18,2.12,2.4,3.59H30.34l-1.89-2.92-.68.66v2.26Z"/><path d="M36.42,79.57l1,.12a2.44,2.44,0,0,1-.88,1.36,3,3,0,0,1-3.62-.29,3,3,0,0,1-.73-2.16,3.15,3.15,0,0,1,.74-2.23,2.51,2.51,0,0,1,1.92-.79,2.44,2.44,0,0,1,1.87.78,3.1,3.1,0,0,1,.73,2.19c0,.06,0,.14,0,.26H33.2a2.19,2.19,0,0,0,.53,1.44,1.58,1.58,0,0,0,1.19.5,1.48,1.48,0,0,0,.91-.28A1.86,1.86,0,0,0,36.42,79.57ZM33.25,78h3.19a1.93,1.93,0,0,0-.37-1.08,1.48,1.48,0,0,0-1.2-.56,1.54,1.54,0,0,0-1.12.45A1.77,1.77,0,0,0,33.25,78Z"/><path d="M42.56,81.41v-.72a1.78,1.78,0,0,1-1.6.85,2.24,2.24,0,0,1-1.25-.38,2.47,2.47,0,0,1-.89-1,3.63,3.63,0,0,1-.31-1.55A4.05,4.05,0,0,1,38.79,77a2.25,2.25,0,0,1,.85-1.07,2.28,2.28,0,0,1,1.27-.37,1.9,1.9,0,0,1,1.57.78V73.53h1v7.87ZM39.5,78.56A2.47,2.47,0,0,0,40,80.2a1.39,1.39,0,0,0,1.09.54,1.37,1.37,0,0,0,1.08-.52,2.39,2.39,0,0,0,.44-1.58,2.68,2.68,0,0,0-.45-1.72A1.39,1.39,0,0,0,41,76.37a1.34,1.34,0,0,0-1.08.53A2.6,2.6,0,0,0,39.5,78.56Z"/><path d="M48.28,77.57a4.28,4.28,0,0,1,1.05-3.07A3.58,3.58,0,0,1,52,73.39a3.78,3.78,0,0,1,2,.52,3.4,3.4,0,0,1,1.33,1.45,4.71,4.71,0,0,1,.46,2.11,4.64,4.64,0,0,1-.48,2.14A3.3,3.3,0,0,1,54,81.05a3.92,3.92,0,0,1-1.91.49,3.72,3.72,0,0,1-2-.54,3.45,3.45,0,0,1-1.33-1.47A4.45,4.45,0,0,1,48.28,77.57Zm1.07,0a3.16,3.16,0,0,0,.77,2.24,2.67,2.67,0,0,0,3.86,0,3.34,3.34,0,0,0,.76-2.35,4,4,0,0,0-.32-1.68,2.5,2.5,0,0,0-1-1.11,2.57,2.57,0,0,0-1.4-.4,2.67,2.67,0,0,0-1.9.76A3.39,3.39,0,0,0,49.35,77.59Z"/><path d="M61,81.41v-.84a2.09,2.09,0,0,1-1.81,1,2.3,2.3,0,0,1-.94-.19,1.55,1.55,0,0,1-.65-.49,1.83,1.83,0,0,1-.3-.72,4.9,4.9,0,0,1-.06-.9V75.7h1v3.16a5.62,5.62,0,0,0,.06,1,1,1,0,0,0,.39.6,1.2,1.2,0,0,0,.73.22,1.59,1.59,0,0,0,.82-.22,1.24,1.24,0,0,0,.54-.61,3.06,3.06,0,0,0,.16-1.12V75.7h1v5.7Z"/><path d="M65.7,80.54l.14.85a3.63,3.63,0,0,1-.73.09,1.65,1.65,0,0,1-.82-.17.93.93,0,0,1-.41-.44,3.47,3.47,0,0,1-.12-1.14V76.45h-.71V75.7h.71V74.29l1-.58v2h1v.75h-1v3.33a1.68,1.68,0,0,0,.05.53.4.4,0,0,0,.17.19.64.64,0,0,0,.33.07Z"/><path d="M66.84,81.41V73.53h1v7.87Z"/><path d="M73.43,79.57l1,.12a2.44,2.44,0,0,1-.88,1.36,3,3,0,0,1-3.62-.29,3,3,0,0,1-.73-2.16,3.15,3.15,0,0,1,.74-2.23,2.51,2.51,0,0,1,1.92-.79,2.44,2.44,0,0,1,1.87.78,3.1,3.1,0,0,1,.73,2.19c0,.06,0,.14,0,.26H70.2a2.19,2.19,0,0,0,.53,1.44,1.58,1.58,0,0,0,1.19.5,1.48,1.48,0,0,0,.91-.28A1.86,1.86,0,0,0,73.43,79.57ZM70.26,78h3.19a1.93,1.93,0,0,0-.37-1.08,1.48,1.48,0,0,0-1.2-.56,1.54,1.54,0,0,0-1.12.45A1.77,1.77,0,0,0,70.26,78Z"/><path d="M78,80.54l.14.85a3.63,3.63,0,0,1-.73.09,1.65,1.65,0,0,1-.82-.17.93.93,0,0,1-.41-.44A3.47,3.47,0,0,1,76,79.74V76.45h-.71V75.7H76V74.29l1-.58v2h1v.75H77v3.33a1.68,1.68,0,0,0,.05.53.4.4,0,0,0,.17.19.64.64,0,0,0,.33.07Z"/><path d="M82.54,81.41V73.53h3a7.1,7.1,0,0,1,1.2.08,2.36,2.36,0,0,1,1,.37,1.93,1.93,0,0,1,.63.76,2.56,2.56,0,0,1-.4,2.77,3.07,3.07,0,0,1-2.31.7h-2v3.2Zm1-4.13h2a2.16,2.16,0,0,0,1.43-.38,1.34,1.34,0,0,0,.42-1.06,1.42,1.42,0,0,0-.25-.85,1.17,1.17,0,0,0-.66-.46,4.42,4.42,0,0,0-1-.07h-2Z"/><path d="M89.74,78.88l1-.09a2.17,2.17,0,0,0,.32,1,1.77,1.77,0,0,0,.79.61,3,3,0,0,0,1.21.23,2.9,2.9,0,0,0,1.05-.18,1.46,1.46,0,0,0,.68-.49,1.13,1.13,0,0,0,.22-.67,1,1,0,0,0-.21-.65,1.59,1.59,0,0,0-.71-.46,14,14,0,0,0-1.4-.38,7.22,7.22,0,0,1-1.52-.49,2.13,2.13,0,0,1-.84-.73,1.8,1.8,0,0,1-.28-1,2,2,0,0,1,.34-1.11,2.1,2.1,0,0,1,1-.79,3.76,3.76,0,0,1,1.44-.27,4,4,0,0,1,1.54.28,2.23,2.23,0,0,1,1,.83,2.38,2.38,0,0,1,.39,1.24l-1,.08a1.61,1.61,0,0,0-.55-1.13,2.12,2.12,0,0,0-1.37-.38,2.2,2.2,0,0,0-1.38.35,1,1,0,0,0-.43.83.9.9,0,0,0,.31.7,4.16,4.16,0,0,0,1.57.56,10.35,10.35,0,0,1,1.74.5,2.38,2.38,0,0,1,1,.8A2,2,0,0,1,96,79.18a2.15,2.15,0,0,1-.36,1.18,2.37,2.37,0,0,1-1,.86,3.6,3.6,0,0,1-1.52.31,4.53,4.53,0,0,1-1.79-.31,2.5,2.5,0,0,1-1.13-.94A2.66,2.66,0,0,1,89.74,78.88Z"/><path d="M173.84,78.65l1,.26a3.5,3.5,0,0,1-1.18,2,3.25,3.25,0,0,1-2.08.67,3.75,3.75,0,0,1-2.07-.52,3.25,3.25,0,0,1-1.21-1.5,5.36,5.36,0,0,1-.42-2.11,4.65,4.65,0,0,1,.47-2.15,3.22,3.22,0,0,1,1.34-1.39,3.91,3.91,0,0,1,1.91-.48,3.23,3.23,0,0,1,2,.6,3.13,3.13,0,0,1,1.12,1.69l-1,.24a2.43,2.43,0,0,0-.79-1.25,2.12,2.12,0,0,0-1.31-.39,2.55,2.55,0,0,0-1.52.44,2.3,2.3,0,0,0-.86,1.17A4.72,4.72,0,0,0,169,77.4a4.8,4.8,0,0,0,.29,1.75,2.18,2.18,0,0,0,.91,1.12,2.55,2.55,0,0,0,1.34.37,2.24,2.24,0,0,0,1.48-.5A2.58,2.58,0,0,0,173.84,78.65Z"/><path d="M176.25,81.41V73.53h1v7.87Z"/><path d="M178.57,78.55a2.94,2.94,0,0,1,.88-2.35,2.65,2.65,0,0,1,1.79-.63,2.56,2.56,0,0,1,1.92.77,2.93,2.93,0,0,1,.75,2.13,3.77,3.77,0,0,1-.33,1.73,2.34,2.34,0,0,1-1,1,2.8,2.8,0,0,1-1.38.35,2.56,2.56,0,0,1-1.94-.77A3.07,3.07,0,0,1,178.57,78.55Zm1,0A2.43,2.43,0,0,0,180,80.2a1.59,1.59,0,0,0,2.4,0,2.48,2.48,0,0,0,.48-1.67,2.36,2.36,0,0,0-.48-1.6,1.59,1.59,0,0,0-2.4,0A2.41,2.41,0,0,0,179.56,78.55Z"/><path d="M184.88,79.7l1-.15a1.33,1.33,0,0,0,.45.88,1.56,1.56,0,0,0,1,.31,1.51,1.51,0,0,0,1-.27.81.81,0,0,0,.32-.64.59.59,0,0,0-.29-.52,4.16,4.16,0,0,0-1-.33,9,9,0,0,1-1.47-.46,1.41,1.41,0,0,1-.84-1.31,1.47,1.47,0,0,1,.17-.71,1.55,1.55,0,0,1,.48-.54,2,2,0,0,1,.62-.28,2.91,2.91,0,0,1,.83-.12,3.3,3.3,0,0,1,1.18.19,1.6,1.6,0,0,1,.75.52,2,2,0,0,1,.33.88l-.95.13a1,1,0,0,0-.37-.69,1.36,1.36,0,0,0-.87-.25,1.58,1.58,0,0,0-1,.22.64.64,0,0,0-.29.52.54.54,0,0,0,.12.34.86.86,0,0,0,.37.26l.85.25a11.91,11.91,0,0,1,1.43.45,1.45,1.45,0,0,1,.64.51,1.42,1.42,0,0,1,.23.83,1.62,1.62,0,0,1-.28.91,1.83,1.83,0,0,1-.81.66,3,3,0,0,1-1.2.23,2.68,2.68,0,0,1-1.69-.46A2.15,2.15,0,0,1,184.88,79.7Z"/><path d="M194.89,79.57l1,.12a2.44,2.44,0,0,1-.88,1.36,3,3,0,0,1-3.62-.29,3,3,0,0,1-.73-2.16,3.15,3.15,0,0,1,.74-2.23,2.51,2.51,0,0,1,1.92-.79,2.44,2.44,0,0,1,1.87.78,3.1,3.1,0,0,1,.73,2.19q0,.09,0,.26h-4.25a2.19,2.19,0,0,0,.53,1.44,1.58,1.58,0,0,0,1.19.5,1.48,1.48,0,0,0,.91-.28A1.86,1.86,0,0,0,194.89,79.57ZM191.72,78h3.19a1.93,1.93,0,0,0-.37-1.08,1.48,1.48,0,0,0-1.2-.56,1.53,1.53,0,0,0-1.12.45A1.77,1.77,0,0,0,191.72,78Z"/><path d="M201,81.41v-.72a1.78,1.78,0,0,1-1.6.85,2.24,2.24,0,0,1-1.25-.38,2.47,2.47,0,0,1-.89-1,3.63,3.63,0,0,1-.31-1.55,4.06,4.06,0,0,1,.28-1.55,2.25,2.25,0,0,1,.85-1.07,2.28,2.28,0,0,1,1.27-.37,1.9,1.9,0,0,1,1.57.78V73.53h1v7.87ZM198,78.56a2.48,2.48,0,0,0,.46,1.64,1.39,1.39,0,0,0,1.09.54,1.37,1.37,0,0,0,1.08-.52,2.39,2.39,0,0,0,.44-1.58,2.68,2.68,0,0,0-.45-1.72,1.39,1.39,0,0,0-1.11-.55,1.34,1.34,0,0,0-1.08.53A2.6,2.6,0,0,0,198,78.56Z"/><path d="M4.82,95.41V87.53h1v7.87Z"/><path d="M7.62,95.88l.94.14a.9.9,0,0,0,.33.63,1.61,1.61,0,0,0,1,.27,1.73,1.73,0,0,0,1-.27,1.32,1.32,0,0,0,.49-.75,6.18,6.18,0,0,0,.07-1.24,2,2,0,0,1-1.58.75,2.15,2.15,0,0,1-1.82-.85,3.27,3.27,0,0,1-.64-2A3.79,3.79,0,0,1,7.72,91a2.35,2.35,0,0,1,.86-1.07,2.31,2.31,0,0,1,1.32-.38,2,2,0,0,1,1.67.82V89.7h.89v4.93a4.67,4.67,0,0,1-.27,1.89,2,2,0,0,1-.86.88,3,3,0,0,1-1.45.32,2.73,2.73,0,0,1-1.65-.46A1.55,1.55,0,0,1,7.62,95.88Zm.8-3.43a2.47,2.47,0,0,0,.45,1.64,1.47,1.47,0,0,0,2.23,0,2.39,2.39,0,0,0,.45-1.61,2.34,2.34,0,0,0-.46-1.58A1.44,1.44,0,0,0,10,90.37a1.39,1.39,0,0,0-1.1.52A2.32,2.32,0,0,0,8.42,92.45Z"/><path d="M14.14,95.41V89.7H15v.81a2.05,2.05,0,0,1,1.82-.94,2.37,2.37,0,0,1,.95.19,1.49,1.49,0,0,1,.65.49,1.87,1.87,0,0,1,.3.71,5.55,5.55,0,0,1,.05.94v3.51h-1V91.94a2.6,2.6,0,0,0-.11-.88.93.93,0,0,0-.4-.47,1.27,1.27,0,0,0-.67-.17,1.57,1.57,0,0,0-1.07.39,1.93,1.93,0,0,0-.45,1.49v3.12Z"/><path d="M20.48,88.64V87.53h1v1.11Zm0,6.76V89.7h1v5.7Z"/><path d="M25.25,94.54l.14.85a3.63,3.63,0,0,1-.73.09,1.65,1.65,0,0,1-.82-.17.93.93,0,0,1-.41-.44,3.47,3.47,0,0,1-.12-1.14V90.45H22.6V89.7h.71V88.29l1-.58v2h1v.75h-1v3.33a1.68,1.68,0,0,0,.05.53.4.4,0,0,0,.17.19.64.64,0,0,0,.33.07Z"/><path d="M30.32,93.57l1,.12a2.44,2.44,0,0,1-.88,1.36,3,3,0,0,1-3.62-.29,3,3,0,0,1-.73-2.16,3.15,3.15,0,0,1,.74-2.23,2.51,2.51,0,0,1,1.92-.79,2.44,2.44,0,0,1,1.87.78,3.1,3.1,0,0,1,.73,2.19c0,.06,0,.14,0,.26H27.09a2.19,2.19,0,0,0,.53,1.44,1.58,1.58,0,0,0,1.19.5,1.48,1.48,0,0,0,.91-.28A1.86,1.86,0,0,0,30.32,93.57ZM27.14,92h3.19A1.93,1.93,0,0,0,30,90.93a1.48,1.48,0,0,0-1.2-.56,1.54,1.54,0,0,0-1.12.45A1.77,1.77,0,0,0,27.14,92Z"/><path d="M32.74,95.41V89.7h.87v.86a2.37,2.37,0,0,1,.61-.8,1.08,1.08,0,0,1,.62-.19,1.88,1.88,0,0,1,1,.31l-.33.9a1.38,1.38,0,0,0-.71-.21.92.92,0,0,0-.57.19,1,1,0,0,0-.36.53,3.77,3.77,0,0,0-.16,1.13v3Z"/><path d="M39.72,91.57a4.28,4.28,0,0,1,1.05-3.07,3.58,3.58,0,0,1,2.72-1.11,3.78,3.78,0,0,1,2,.52,3.4,3.4,0,0,1,1.33,1.45,4.71,4.71,0,0,1,.46,2.11,4.64,4.64,0,0,1-.48,2.14,3.3,3.3,0,0,1-1.37,1.43,3.92,3.92,0,0,1-1.91.49,3.72,3.72,0,0,1-2-.54,3.45,3.45,0,0,1-1.33-1.47A4.45,4.45,0,0,1,39.72,91.57Zm1.07,0a3.16,3.16,0,0,0,.77,2.24,2.67,2.67,0,0,0,3.86,0,3.34,3.34,0,0,0,.76-2.35,4,4,0,0,0-.32-1.68,2.5,2.5,0,0,0-1-1.11,2.57,2.57,0,0,0-1.4-.4,2.67,2.67,0,0,0-1.9.76A3.39,3.39,0,0,0,40.79,91.59Z"/><path d="M48.69,95.41V89.7h.87v.81a2.05,2.05,0,0,1,1.82-.94,2.37,2.37,0,0,1,.95.19,1.49,1.49,0,0,1,.65.49,1.87,1.87,0,0,1,.3.71,5.55,5.55,0,0,1,.05.94v3.51h-1V91.94a2.6,2.6,0,0,0-.11-.88.93.93,0,0,0-.4-.47,1.27,1.27,0,0,0-.67-.17,1.57,1.57,0,0,0-1.07.39,1.93,1.93,0,0,0-.45,1.49v3.12Z"/><path d="M189.27,95.41V87.53h1.07l4.14,6.18V87.53h1v7.87h-1.07l-4.14-6.19v6.19Z"/><path d="M197,92.55a2.94,2.94,0,0,1,.88-2.35,2.65,2.65,0,0,1,1.79-.63,2.56,2.56,0,0,1,1.92.77,2.93,2.93,0,0,1,.75,2.13,3.77,3.77,0,0,1-.33,1.73,2.34,2.34,0,0,1-1,1,2.8,2.8,0,0,1-1.38.35,2.56,2.56,0,0,1-1.94-.77A3.07,3.07,0,0,1,197,92.55Zm1,0a2.43,2.43,0,0,0,.48,1.64,1.59,1.59,0,0,0,2.4,0,2.48,2.48,0,0,0,.48-1.67,2.36,2.36,0,0,0-.48-1.6,1.59,1.59,0,0,0-2.4,0A2.41,2.41,0,0,0,198,92.55Z"/></svg>