<svg id="Layer_1" data-name="Layer 1" xmlns="http://www.w3.org/2000/svg" viewBox="0 0 225.68 130.33"><title>UIM_display_settings_screen</title><rect x="0.5" y="0.5" width="224.67" height="129.31" style="fill:none;stroke:#000"/><rect x="1.37" y="0.64" width="223.81" height="14.46" style="stroke:#000"/><rect x="0.49" y="101.87" width="224.67" height="27.94" style="fill:none"/><path d="M74.61,11V3.84H77.2a6.59,6.59,0,0,1,1.34.1,2.6,2.6,0,0,1,1.1.51,2.91,2.91,0,0,1,.89,1.22,4.59,4.59,0,0,1,.29,1.7,4.79,4.79,0,0,1-.2,1.45,3.46,3.46,0,0,1-.51,1,2.68,2.68,0,0,1-.68.65,2.88,2.88,0,0,1-.9.36,5.36,5.36,0,0,1-1.21.12Zm1-.84h1.6A4.08,4.08,0,0,0,78.38,10a1.69,1.69,0,0,0,.67-.37,2.24,2.24,0,0,0,.55-.91,4.24,4.24,0,0,0,.2-1.38,3.2,3.2,0,0,0-.39-1.73,1.92,1.92,0,0,0-.94-.81,4.07,4.07,0,0,0-1.29-.15H75.61Z" style="fill:#fff"/><path d="M82.35,4.85v-1h.92v1Zm0,6.15V5.81h.92V11Z" style="fill:#fff"/><path d="M84.57,9.45l.91-.14a1.2,1.2,0,0,0,.43.8,1.54,1.54,0,0,0,1,.28,1.49,1.49,0,0,0,.94-.25.73.73,0,0,0,.31-.58.53.53,0,0,0-.27-.47,4.17,4.17,0,0,0-.94-.3,8.94,8.94,0,0,1-1.41-.42,1.35,1.35,0,0,1-.59-.49,1.26,1.26,0,0,1-.2-.7,1.28,1.28,0,0,1,.17-.64,1.45,1.45,0,0,1,.45-.49,1.94,1.94,0,0,1,.59-.26,2.93,2.93,0,0,1,.8-.1,3.3,3.3,0,0,1,1.13.18,1.54,1.54,0,0,1,.72.48,1.81,1.81,0,0,1,.32.8l-.9.12a.93.93,0,0,0-.36-.62,1.35,1.35,0,0,0-.83-.22,1.57,1.57,0,0,0-.91.2.58.58,0,0,0-.27.47.47.47,0,0,0,.11.31.82.82,0,0,0,.35.23l.81.22a11.76,11.76,0,0,1,1.37.41,1.38,1.38,0,0,1,.61.46,1.24,1.24,0,0,1,.22.75,1.42,1.42,0,0,1-.27.83,1.72,1.72,0,0,1-.78.6,3,3,0,0,1-1.15.21,2.65,2.65,0,0,1-1.62-.42A1.93,1.93,0,0,1,84.57,9.45Z" style="fill:#fff"/><path d="M90.45,13V5.81h.84v.67A2,2,0,0,1,92,5.89a1.92,1.92,0,0,1,.91-.2A2.23,2.23,0,0,1,94.1,6a2.12,2.12,0,0,1,.8,1,3.38,3.38,0,0,1,.27,1.36,3.32,3.32,0,0,1-.3,1.43,2.18,2.18,0,0,1-.87,1,2.32,2.32,0,0,1-1.2.34,1.81,1.81,0,0,1-.83-.19,1.86,1.86,0,0,1-.6-.47V13Zm.84-4.55a2.18,2.18,0,0,0,.43,1.48,1.33,1.33,0,0,0,1,.48,1.36,1.36,0,0,0,1.05-.5,2.27,2.27,0,0,0,.44-1.54,2.21,2.21,0,0,0-.43-1.48,1.31,1.31,0,0,0-1-.49,1.35,1.35,0,0,0-1,.52A2.27,2.27,0,0,0,91.29,8.44Z" style="fill:#fff"/><path d="M96.53,11V3.84h.92V11Z" style="fill:#fff"/><path d="M102.7,10.36a3.46,3.46,0,0,1-1,.59,3,3,0,0,1-1,.17,2,2,0,0,1-1.38-.42,1.35,1.35,0,0,1-.48-1.07,1.36,1.36,0,0,1,.18-.7,1.46,1.46,0,0,1,.48-.51,2.3,2.3,0,0,1,.66-.29A7,7,0,0,1,101,8a8.79,8.79,0,0,0,1.65-.3c0-.12,0-.2,0-.23a.94.94,0,0,0-.26-.76,1.6,1.6,0,0,0-1.05-.3,1.69,1.69,0,0,0-1,.22,1.32,1.32,0,0,0-.46.77L99,7.29a2.08,2.08,0,0,1,.41-.89,1.78,1.78,0,0,1,.82-.52,3.8,3.8,0,0,1,1.24-.18,3.42,3.42,0,0,1,1.13.16,1.5,1.5,0,0,1,.64.39,1.35,1.35,0,0,1,.29.6,4.71,4.71,0,0,1,0,.81V8.83a11.92,11.92,0,0,0,.06,1.55,1.9,1.9,0,0,0,.23.62h-1A1.79,1.79,0,0,1,102.7,10.36Zm-.08-2a7.06,7.06,0,0,1-1.51.33,3.65,3.65,0,0,0-.81.18.79.79,0,0,0-.36.29.72.72,0,0,0-.13.42.73.73,0,0,0,.28.59,1.24,1.24,0,0,0,.82.23,2,2,0,0,0,.95-.22,1.4,1.4,0,0,0,.61-.61,2,2,0,0,0,.15-.88Z" style="fill:#fff"/><path d="M105.21,13l-.1-.83a2.14,2.14,0,0,0,.53.08,1.06,1.06,0,0,0,.49-.1.82.82,0,0,0,.3-.27,4.2,4.2,0,0,0,.28-.65l.08-.21-2.07-5.2h1l1.13,3q.22.57.39,1.2a11.3,11.3,0,0,1,.38-1.18l1.16-3h.92l-2.07,5.27a10.07,10.07,0,0,1-.52,1.18,1.77,1.77,0,0,1-.56.64,1.38,1.38,0,0,1-.76.2A1.92,1.92,0,0,1,105.21,13Z" style="fill:#fff"/><path d="M113.72,8.7l.94-.08a1.91,1.91,0,0,0,.31.88,1.68,1.68,0,0,0,.76.56,3,3,0,0,0,1.15.21,2.89,2.89,0,0,0,1-.16,1.39,1.39,0,0,0,.65-.44,1,1,0,0,0,.21-.61.9.9,0,0,0-.21-.59,1.53,1.53,0,0,0-.68-.42q-.3-.11-1.34-.35a7,7,0,0,1-1.45-.45,2,2,0,0,1-.8-.67,1.58,1.58,0,0,1-.26-.89,1.75,1.75,0,0,1,.32-1,2,2,0,0,1,.94-.72,3.74,3.74,0,0,1,1.38-.24,3.93,3.93,0,0,1,1.47.26,2.05,2.05,0,0,1,1.35,1.88l-1,.07a1.44,1.44,0,0,0-.52-1,2.1,2.1,0,0,0-1.31-.35,2.18,2.18,0,0,0-1.32.31.93.93,0,0,0-.41.76.8.8,0,0,0,.29.63,4.09,4.09,0,0,0,1.5.51,10.3,10.3,0,0,1,1.66.46,2.26,2.26,0,0,1,1,.73,1.71,1.71,0,0,1,.31,1,1.89,1.89,0,0,1-.34,1.08,2.24,2.24,0,0,1-1,.79,3.59,3.59,0,0,1-1.45.28,4.51,4.51,0,0,1-1.71-.28,2.37,2.37,0,0,1-1.08-.85A2.34,2.34,0,0,1,113.72,8.7Z" style="fill:#fff"/><path d="M124.93,9.33l1,.11a2.21,2.21,0,0,1-.84,1.24,2.6,2.6,0,0,1-1.56.44,2.56,2.56,0,0,1-1.89-.7,2.66,2.66,0,0,1-.7-2,2.78,2.78,0,0,1,.71-2,2.45,2.45,0,0,1,1.84-.72,2.39,2.39,0,0,1,1.78.71,2.73,2.73,0,0,1,.69,2c0,.05,0,.13,0,.23h-4.06a1.94,1.94,0,0,0,.51,1.31,1.55,1.55,0,0,0,1.14.45,1.46,1.46,0,0,0,.87-.25A1.69,1.69,0,0,0,124.93,9.33Zm-3-1.42h3a1.71,1.71,0,0,0-.35-1,1.45,1.45,0,0,0-1.14-.51,1.51,1.51,0,0,0-1.07.41A1.57,1.57,0,0,0,121.9,7.91Z" style="fill:#fff"/><path d="M129.32,10.21l.13.78a3.57,3.57,0,0,1-.7.08,1.64,1.64,0,0,1-.78-.15.87.87,0,0,1-.39-.4,3,3,0,0,1-.11-1v-3h-.68V5.81h.68V4.53L128.4,4V5.81h.93V6.5h-.93v3a1.48,1.48,0,0,0,0,.48.38.38,0,0,0,.16.17.64.64,0,0,0,.32.06Z" style="fill:#fff"/><path d="M132.5,10.21l.13.78a3.57,3.57,0,0,1-.7.08,1.64,1.64,0,0,1-.78-.15.87.87,0,0,1-.39-.4,3,3,0,0,1-.11-1v-3H130V5.81h.68V4.53l.92-.53V5.81h.93V6.5h-.93v3a1.48,1.48,0,0,0,0,.48.38.38,0,0,0,.16.17.64.64,0,0,0,.32.06Z" style="fill:#fff"/><path d="M133.67,4.85v-1h.92v1Zm0,6.15V5.81h.92V11Z" style="fill:#fff"/><path d="M136.26,11V5.81h.83v.74a2,2,0,0,1,1.73-.85,2.38,2.38,0,0,1,.91.17,1.42,1.42,0,0,1,.62.44,1.65,1.65,0,0,1,.29.65,4.78,4.78,0,0,1,.05.85V11h-.92V7.84a2.25,2.25,0,0,0-.11-.8.85.85,0,0,0-.38-.42,1.26,1.26,0,0,0-.64-.16,1.54,1.54,0,0,0-1,.36,1.71,1.71,0,0,0-.43,1.35V11Z" style="fill:#fff"/><path d="M142.2,11.43l.9.13a.8.8,0,0,0,.31.58,1.6,1.6,0,0,0,.94.24,1.71,1.71,0,0,0,1-.24,1.2,1.2,0,0,0,.47-.68,5.37,5.37,0,0,0,.07-1.13,1.94,1.94,0,0,1-1.51.68,2.1,2.1,0,0,1-1.74-.77A2.88,2.88,0,0,1,142,8.38,3.3,3.3,0,0,1,142.29,7a2.17,2.17,0,0,1,.82-1,2.29,2.29,0,0,1,1.26-.34,2,2,0,0,1,1.59.74V5.81h.85V10.3a4.06,4.06,0,0,1-.26,1.72,1.85,1.85,0,0,1-.82.8,3,3,0,0,1-1.38.29,2.7,2.7,0,0,1-1.57-.42A1.38,1.38,0,0,1,142.2,11.43ZM143,8.31a2.18,2.18,0,0,0,.42,1.49,1.45,1.45,0,0,0,2.13,0,2.1,2.1,0,0,0,.43-1.46,2.06,2.06,0,0,0-.44-1.44,1.4,1.4,0,0,0-1.07-.48,1.36,1.36,0,0,0-1,.48A2,2,0,0,0,143,8.31Z" style="fill:#fff"/><path d="M148.1,9.45l.91-.14a1.2,1.2,0,0,0,.43.8,1.54,1.54,0,0,0,1,.28,1.49,1.49,0,0,0,.94-.25.73.73,0,0,0,.31-.58.53.53,0,0,0-.27-.47,4.17,4.17,0,0,0-.94-.3A8.93,8.93,0,0,1,149,8.38a1.34,1.34,0,0,1-.59-.49,1.26,1.26,0,0,1-.2-.7,1.28,1.28,0,0,1,.17-.64,1.45,1.45,0,0,1,.45-.49,1.94,1.94,0,0,1,.59-.26,2.93,2.93,0,0,1,.8-.1,3.3,3.3,0,0,1,1.13.18,1.54,1.54,0,0,1,.71.48,1.81,1.81,0,0,1,.32.8l-.9.12a.93.93,0,0,0-.36-.62,1.35,1.35,0,0,0-.83-.22,1.57,1.57,0,0,0-.91.2.58.58,0,0,0-.27.47.47.47,0,0,0,.11.31.82.82,0,0,0,.35.23l.81.22a11.77,11.77,0,0,1,1.37.41,1.38,1.38,0,0,1,.61.46,1.25,1.25,0,0,1,.22.75,1.42,1.42,0,0,1-.27.83,1.73,1.73,0,0,1-.78.6,3,3,0,0,1-1.15.21,2.65,2.65,0,0,1-1.62-.42A1.93,1.93,0,0,1,148.1,9.45Z" style="fill:#fff"/><rect x="0.53" y="101.87" width="44.92" height="27.98" style="fill:none"/><rect x="45.65" y="101.87" width="44.92" height="27.98" style="fill:none"/><rect x="90.57" y="101.87" width="44.92" height="27.98" style="fill:#fff;stroke:#000;stroke-linecap:round;stroke-linejoin:round;stroke-width:0.9753649999999999px"/><rect x="180.23" y="101.87" width="44.92" height="27.98" style="fill:none;stroke:#000;stroke-linecap:round;stroke-linejoin:round;stroke-width:0.9753649999999999px"/><rect x="135.36" y="101.87" width="44.92" height="27.98" style="fill:none"/><rect x="2.78" y="17.42" width="204.89" height="13.39" style="fill:#fff"/><line x1="0.53" y1="101.87" x2="225.04" y2="101.87" style="fill:none;stroke:#000;stroke-linecap:round;stroke-linejoin:round;stroke-width:0.9753649999999999px"/><path d="M193.64,118.84V111h.65v3.23h2.56V111h.65v7.87h-.65v-3.71h-2.56v3.71Z"/><path d="M199.16,118.84V111h3.57v.93h-2.91v2.41h2.73v.92h-2.73v2.68h3v.93Z"/><path d="M204.27,118.84V111h.65v6.94h2.43v.93Z"/><path d="M208.68,118.84V111h1.86a2.82,2.82,0,0,1,.75.08,1.22,1.22,0,0,1,.61.37,2,2,0,0,1,.4.76,3.66,3.66,0,0,1,.15,1.07,3.36,3.36,0,0,1-.4,1.7,1.53,1.53,0,0,1-1.45.7h-1.26v3.2Zm.65-4.13h1.27a1,1,0,0,0,.9-.38,1.81,1.81,0,0,0,.27-1.06,2.07,2.07,0,0,0-.16-.85.84.84,0,0,0-.41-.46,1.76,1.76,0,0,0-.61-.07h-1.26Z"/><rect x="209.68" y="83.2" width="15.48" height="18.65" style="fill:none;stroke:#000;stroke-width:0.9753649999999999px"/><polygon points="210.46 92.12 217.43 99.08 224.37 92.12 210.46 92.12"/><rect x="209.68" y="15.08" width="15.48" height="18.65" style="fill:none;stroke:#000;stroke-width:0.9753649999999999px"/><rect x="210.23" y="47.65" width="13.56" height="34.37"/><polygon points="224.4 24.93 217.43 17.97 210.48 24.93 224.4 24.93"/><path d="M103.71,118.84V111h1.85a1.38,1.38,0,0,1,1.44,1,2.84,2.84,0,0,1,.19,1,2.61,2.61,0,0,1-.17,1,1.66,1.66,0,0,1-.52.72,1.43,1.43,0,0,1,.69.71,2.74,2.74,0,0,1,.24,1.19,3.48,3.48,0,0,1-.15,1,2.11,2.11,0,0,1-.36.73,1.35,1.35,0,0,1-.54.39,2.11,2.11,0,0,1-.79.13Zm.65-4.57h1.07a1.52,1.52,0,0,0,.62-.09.77.77,0,0,0,.38-.39,1.65,1.65,0,0,0,.13-.69,1.86,1.86,0,0,0-.12-.69.73.73,0,0,0-.34-.41,1.81,1.81,0,0,0-.75-.11h-1Zm0,3.64h1.23a1.82,1.82,0,0,0,.44,0,.86.86,0,0,0,.38-.21,1.1,1.1,0,0,0,.25-.44,2.06,2.06,0,0,0,.1-.66,1.89,1.89,0,0,0-.14-.76.89.89,0,0,0-.39-.46,1.58,1.58,0,0,0-.72-.13h-1.14Z"/><path d="M108.34,118.84l1.89-7.87h.7l2,7.87h-.74l-.58-2.38h-2.06l-.54,2.38Zm1.42-3.23h1.67l-.51-2.18q-.24-1-.35-1.63a14.92,14.92,0,0,1-.27,1.5Z"/><path d="M117.55,116.08l.65.26a4.21,4.21,0,0,1-.74,2,1.61,1.61,0,0,1-1.3.67,1.72,1.72,0,0,1-1.3-.52,3.38,3.38,0,0,1-.76-1.5,8.2,8.2,0,0,1-.26-2.11,7,7,0,0,1,.29-2.15,3,3,0,0,1,.84-1.39,1.78,1.78,0,0,1,1.2-.48,1.56,1.56,0,0,1,1.24.6,3.59,3.59,0,0,1,.7,1.69l-.64.24a2.84,2.84,0,0,0-.5-1.25,1,1,0,0,0-.82-.39,1.22,1.22,0,0,0-1,.44,2.54,2.54,0,0,0-.54,1.17,7.28,7.28,0,0,0-.16,1.51,7.44,7.44,0,0,0,.18,1.75,2.26,2.26,0,0,0,.57,1.12,1.19,1.19,0,0,0,.84.37,1.13,1.13,0,0,0,.93-.5A3.22,3.22,0,0,0,117.55,116.08Z"/><path d="M119.53,118.84V111h.65v3.9l2.45-3.9h.88l-2.07,3.19,2.16,4.68h-.86l-1.76-4-.81,1.26v2.73Z"/><path d="M6.65,27.41V20.46H4.05v-.93H10.3v.93H7.69v6.94Z"/><path d="M14.15,25.57l1,.12a2.44,2.44,0,0,1-.88,1.36,2.63,2.63,0,0,1-1.63.48,2.61,2.61,0,0,1-2-.77,3,3,0,0,1-.73-2.16,3.15,3.15,0,0,1,.74-2.23,2.51,2.51,0,0,1,1.92-.79,2.44,2.44,0,0,1,1.87.78,3.09,3.09,0,0,1,.73,2.19c0,.06,0,.14,0,.26H10.92a2.19,2.19,0,0,0,.53,1.44,1.58,1.58,0,0,0,1.19.5,1.48,1.48,0,0,0,.91-.28A1.86,1.86,0,0,0,14.15,25.57ZM11,24h3.19a1.93,1.93,0,0,0-.37-1.08,1.48,1.48,0,0,0-1.2-.56,1.53,1.53,0,0,0-1.12.45A1.76,1.76,0,0,0,11,24Z"/><path d="M16.58,27.41V21.7h.86v.8a2,2,0,0,1,.71-.67,2,2,0,0,1,1-.25,1.88,1.88,0,0,1,1,.26,1.41,1.41,0,0,1,.57.74,2,2,0,0,1,1.76-1,1.74,1.74,0,0,1,1.31.47,2,2,0,0,1,.46,1.45v3.92h-1V23.81a2.64,2.64,0,0,0-.09-.84.81.81,0,0,0-.34-.41,1.06,1.06,0,0,0-.58-.16,1.35,1.35,0,0,0-1,.4,1.76,1.76,0,0,0-.4,1.28v3.31H20V23.7a1.63,1.63,0,0,0-.24-1,.9.9,0,0,0-.77-.32,1.41,1.41,0,0,0-.75.21,1.22,1.22,0,0,0-.5.63,3.53,3.53,0,0,0-.16,1.19v3Z"/><path d="M26,29.59V21.7h.88v.74a2.16,2.16,0,0,1,.7-.65,1.93,1.93,0,0,1,1-.22,2.26,2.26,0,0,1,1.29.38A2.31,2.31,0,0,1,30.63,23a3.87,3.87,0,0,1,.28,1.5,3.82,3.82,0,0,1-.31,1.58,2.38,2.38,0,0,1-.91,1.07,2.35,2.35,0,0,1-1.26.37,1.82,1.82,0,0,1-.87-.2,2,2,0,0,1-.63-.52v2.78Zm.88-5a2.48,2.48,0,0,0,.45,1.63,1.37,1.37,0,0,0,1.08.53,1.4,1.4,0,0,0,1.1-.54,2.58,2.58,0,0,0,.46-1.69,2.52,2.52,0,0,0-.45-1.63,1.35,1.35,0,0,0-1.07-.54,1.39,1.39,0,0,0-1.09.58A2.58,2.58,0,0,0,26.84,24.59Z"/><path d="M36.2,25.57l1,.12a2.44,2.44,0,0,1-.88,1.36,3,3,0,0,1-3.62-.29A3,3,0,0,1,32,24.6a3.15,3.15,0,0,1,.74-2.23,2.51,2.51,0,0,1,1.92-.79,2.44,2.44,0,0,1,1.87.78,3.09,3.09,0,0,1,.73,2.19c0,.06,0,.14,0,.26H33a2.19,2.19,0,0,0,.53,1.44,1.58,1.58,0,0,0,1.19.5,1.48,1.48,0,0,0,.91-.28A1.86,1.86,0,0,0,36.2,25.57ZM33,24h3.19a1.93,1.93,0,0,0-.37-1.08,1.48,1.48,0,0,0-1.2-.56,1.53,1.53,0,0,0-1.12.45A1.76,1.76,0,0,0,33,24Z"/><path d="M38.63,27.41V21.7h.87v.86a2.37,2.37,0,0,1,.61-.8,1.08,1.08,0,0,1,.62-.19,1.89,1.89,0,0,1,1,.31l-.33.9a1.38,1.38,0,0,0-.71-.21.92.92,0,0,0-.57.19,1,1,0,0,0-.36.53,3.77,3.77,0,0,0-.16,1.13v3Z"/><path d="M46.24,26.7a3.6,3.6,0,0,1-1,.64,3,3,0,0,1-1.07.19,2.08,2.08,0,0,1-1.44-.46,1.52,1.52,0,0,1-.5-1.17,1.56,1.56,0,0,1,.19-.77,1.58,1.58,0,0,1,.5-.56,2.35,2.35,0,0,1,.7-.32,6.85,6.85,0,0,1,.86-.15,8.84,8.84,0,0,0,1.72-.33c0-.13,0-.22,0-.25a1.07,1.07,0,0,0-.27-.83,1.62,1.62,0,0,0-1.1-.33,1.71,1.71,0,0,0-1,.24,1.46,1.46,0,0,0-.48.85l-.95-.13a2.34,2.34,0,0,1,.42-1,1.86,1.86,0,0,1,.85-.58,3.82,3.82,0,0,1,1.29-.2,3.42,3.42,0,0,1,1.19.17,1.56,1.56,0,0,1,.67.43,1.52,1.52,0,0,1,.3.66,5.44,5.44,0,0,1,0,.89V25a13.6,13.6,0,0,0,.06,1.71,2.15,2.15,0,0,0,.24.68h-1A2.06,2.06,0,0,1,46.24,26.7Zm-.08-2.16a7.1,7.1,0,0,1-1.58.37,3.63,3.63,0,0,0-.84.19.84.84,0,0,0-.38.31.85.85,0,0,0,.16,1.1,1.26,1.26,0,0,0,.86.26,2,2,0,0,0,1-.24,1.5,1.5,0,0,0,.64-.67,2.33,2.33,0,0,0,.16-1Z"/><path d="M51,26.54l.14.85a3.6,3.6,0,0,1-.73.09,1.66,1.66,0,0,1-.82-.17.93.93,0,0,1-.41-.44A3.46,3.46,0,0,1,49,25.74V22.46h-.71V21.7H49V20.29l1-.58v2h1v.75H50v3.34a1.68,1.68,0,0,0,.05.53.4.4,0,0,0,.17.19.65.65,0,0,0,.33.07Z"/><path d="M55.87,27.41v-.84a2.09,2.09,0,0,1-1.81,1,2.3,2.3,0,0,1-.94-.19,1.55,1.55,0,0,1-.65-.49,1.82,1.82,0,0,1-.3-.72,4.9,4.9,0,0,1-.06-.9V21.7h1v3.16a5.62,5.62,0,0,0,.06,1,1,1,0,0,0,.39.6,1.2,1.2,0,0,0,.73.22,1.59,1.59,0,0,0,.82-.22,1.24,1.24,0,0,0,.54-.61,3.05,3.05,0,0,0,.16-1.11V21.7h1v5.7Z"/><path d="M58.46,27.41V21.7h.87v.86a2.37,2.37,0,0,1,.61-.8,1.08,1.08,0,0,1,.62-.19,1.89,1.89,0,0,1,1,.31l-.33.9a1.38,1.38,0,0,0-.71-.21.92.92,0,0,0-.57.19,1,1,0,0,0-.36.53,3.77,3.77,0,0,0-.16,1.13v3Z"/><path d="M66.26,25.57l1,.12a2.44,2.44,0,0,1-.88,1.36,3,3,0,0,1-3.62-.29A3,3,0,0,1,62,24.6a3.15,3.15,0,0,1,.74-2.23,2.51,2.51,0,0,1,1.92-.79,2.44,2.44,0,0,1,1.87.78,3.09,3.09,0,0,1,.73,2.19c0,.06,0,.14,0,.26H63a2.19,2.19,0,0,0,.53,1.44,1.58,1.58,0,0,0,1.19.5,1.48,1.48,0,0,0,.91-.28A1.86,1.86,0,0,0,66.26,25.57ZM63.09,24h3.19a1.93,1.93,0,0,0-.37-1.08,1.48,1.48,0,0,0-1.2-.56,1.53,1.53,0,0,0-1.12.45A1.76,1.76,0,0,0,63.09,24Z"/><path d="M77.26,19.53h1v4.55A5.38,5.38,0,0,1,78,26a2.3,2.3,0,0,1-1,1.14,3.43,3.43,0,0,1-1.84.44,3.78,3.78,0,0,1-1.81-.38,2.18,2.18,0,0,1-1-1.1,5.26,5.26,0,0,1-.3-2V19.53h1v4.54a4.42,4.42,0,0,0,.19,1.51,1.44,1.44,0,0,0,.66.75,2.27,2.27,0,0,0,1.14.26,2.17,2.17,0,0,0,1.64-.52,3,3,0,0,0,.49-2Z"/><path d="M80.13,27.41V21.7H81v.81a2.05,2.05,0,0,1,1.82-.94,2.37,2.37,0,0,1,.95.19,1.48,1.48,0,0,1,.65.49,1.87,1.87,0,0,1,.3.71,5.55,5.55,0,0,1,.05.94v3.51h-1V23.94a2.61,2.61,0,0,0-.11-.88.93.93,0,0,0-.4-.47,1.27,1.27,0,0,0-.67-.17,1.57,1.57,0,0,0-1.07.39,1.93,1.93,0,0,0-.45,1.49v3.12Z"/><path d="M86.48,20.65V19.53h1v1.11Zm0,6.76V21.7h1v5.7Z"/><path d="M91.25,26.54l.14.85a3.6,3.6,0,0,1-.73.09,1.66,1.66,0,0,1-.82-.17.93.93,0,0,1-.41-.44,3.46,3.46,0,0,1-.12-1.14V22.46H88.6V21.7h.71V20.29l1-.58v2h1v.75h-1v3.34a1.68,1.68,0,0,0,.05.53.4.4,0,0,0,.17.19.65.65,0,0,0,.33.07Z"/><path d="M92,25.71l1-.15a1.33,1.33,0,0,0,.45.88,1.56,1.56,0,0,0,1,.31,1.51,1.51,0,0,0,1-.27.81.81,0,0,0,.32-.64.59.59,0,0,0-.28-.52,4.18,4.18,0,0,0-1-.33A9,9,0,0,1,93,24.53a1.41,1.41,0,0,1-.84-1.31,1.47,1.47,0,0,1,.17-.71,1.57,1.57,0,0,1,.48-.54,2,2,0,0,1,.62-.28,2.93,2.93,0,0,1,.83-.12,3.3,3.3,0,0,1,1.18.19,1.6,1.6,0,0,1,.75.52,2.05,2.05,0,0,1,.33.88l-.95.13a1,1,0,0,0-.37-.69,1.36,1.36,0,0,0-.87-.25,1.58,1.58,0,0,0-1,.22.64.64,0,0,0-.28.52.53.53,0,0,0,.12.34.85.85,0,0,0,.37.26l.85.25a11.89,11.89,0,0,1,1.43.45,1.45,1.45,0,0,1,.64.51,1.42,1.42,0,0,1,.23.83,1.62,1.62,0,0,1-.28.91,1.83,1.83,0,0,1-.81.66,3,3,0,0,1-1.2.23,2.68,2.68,0,0,1-1.69-.46A2.15,2.15,0,0,1,92,25.71Z"/><path d="M178.87,20.89a1.49,1.49,0,1,1,.44,1.06A1.43,1.43,0,0,1,178.87,20.89Zm.59,0a.91.91,0,1,0,.27-.64A.87.87,0,0,0,179.46,20.89Z"/><path d="M183.71,27.41V19.53H189v.93h-4.27V22.9h3.7v.93h-3.7v3.58Z"/><path d="M202.11,24l-5.22,2.23v-1L201,23.52l-4.13-1.7v-1l5.22,2.2Z"/><path d="M4.6,41.41V33.53h3A3.65,3.65,0,0,1,9,33.77a1.86,1.86,0,0,1,.85.74,1.94,1.94,0,0,1,.31,1,1.79,1.79,0,0,1-.27,1,2,2,0,0,1-.83.72,2.06,2.06,0,0,1,1.1.71,1.91,1.91,0,0,1,.38,1.19,2.3,2.3,0,0,1-.23,1,2,2,0,0,1-.58.73,2.4,2.4,0,0,1-.86.39,5.23,5.23,0,0,1-1.27.13Zm1-4.57h1.7a3.79,3.79,0,0,0,1-.09,1.1,1.1,0,0,0,.6-.39,1.13,1.13,0,0,0,.2-.69A1.27,1.27,0,0,0,9,35a1,1,0,0,0-.54-.41,4.5,4.5,0,0,0-1.2-.11H5.64Zm0,3.64h2a4.54,4.54,0,0,0,.71,0,1.7,1.7,0,0,0,.6-.21,1.14,1.14,0,0,0,.4-.44,1.37,1.37,0,0,0,.16-.66,1.31,1.31,0,0,0-.23-.77,1.19,1.19,0,0,0-.63-.46,3.89,3.89,0,0,0-1.15-.13H5.64Z"/><path d="M12.07,41.41V35.7h.87v.86a2.37,2.37,0,0,1,.61-.8,1.08,1.08,0,0,1,.62-.19,1.89,1.89,0,0,1,1,.31l-.33.9a1.38,1.38,0,0,0-.71-.21.92.92,0,0,0-.57.19,1,1,0,0,0-.36.53A3.77,3.77,0,0,0,13,38.42v3Z"/><path d="M16,34.65V33.53h1v1.11Zm0,6.76V35.7h1v5.7Z"/><path d="M18.45,41.88l.94.14a.9.9,0,0,0,.33.63,1.61,1.61,0,0,0,1,.27,1.73,1.73,0,0,0,1-.27,1.32,1.32,0,0,0,.49-.75,6.17,6.17,0,0,0,.07-1.24,2,2,0,0,1-1.58.75,2.15,2.15,0,0,1-1.82-.85,3.27,3.27,0,0,1-.64-2,3.79,3.79,0,0,1,.3-1.51A2.36,2.36,0,0,1,19.41,36a2.31,2.31,0,0,1,1.32-.38,2,2,0,0,1,1.67.82V35.7h.89v4.93A4.67,4.67,0,0,1,23,42.52a2,2,0,0,1-.86.88,3,3,0,0,1-1.45.32,2.73,2.73,0,0,1-1.65-.46A1.55,1.55,0,0,1,18.45,41.88Zm.8-3.43a2.47,2.47,0,0,0,.45,1.64,1.47,1.47,0,0,0,2.23,0,2.39,2.39,0,0,0,.45-1.61,2.34,2.34,0,0,0-.46-1.58,1.44,1.44,0,0,0-1.12-.53,1.39,1.39,0,0,0-1.1.52A2.32,2.32,0,0,0,19.25,38.45Z"/><path d="M25,41.41V33.53h1v2.83a2.16,2.16,0,0,1,1.71-.78,2.3,2.3,0,0,1,1.1.25,1.47,1.47,0,0,1,.67.69,3.19,3.19,0,0,1,.2,1.28v3.61h-1V37.79a1.49,1.49,0,0,0-.31-1.06,1.17,1.17,0,0,0-.89-.33,1.57,1.57,0,0,0-.81.22,1.26,1.26,0,0,0-.54.6,2.78,2.78,0,0,0-.16,1.05v3.12Z"/><path d="M33.41,40.54l.14.85a3.6,3.6,0,0,1-.73.09,1.66,1.66,0,0,1-.82-.17.93.93,0,0,1-.41-.44,3.46,3.46,0,0,1-.12-1.14V36.46h-.71V35.7h.71V34.29l1-.58v2h1v.75h-1v3.34a1.68,1.68,0,0,0,.05.53.4.4,0,0,0,.17.19.65.65,0,0,0,.33.07Z"/><path d="M34.58,41.41V35.7h.87v.81a2.05,2.05,0,0,1,1.82-.94,2.37,2.37,0,0,1,.95.19,1.48,1.48,0,0,1,.65.49,1.87,1.87,0,0,1,.3.71,5.55,5.55,0,0,1,.05.94v3.51h-1V37.94a2.61,2.61,0,0,0-.11-.88.93.93,0,0,0-.4-.47,1.27,1.27,0,0,0-.67-.17A1.57,1.57,0,0,0,36,36.8a1.93,1.93,0,0,0-.45,1.49v3.12Z"/><path d="M44.82,39.57l1,.12a2.44,2.44,0,0,1-.88,1.36,3,3,0,0,1-3.62-.29,3,3,0,0,1-.73-2.16,3.15,3.15,0,0,1,.74-2.23,2.51,2.51,0,0,1,1.92-.79,2.44,2.44,0,0,1,1.87.78,3.09,3.09,0,0,1,.73,2.19c0,.06,0,.14,0,.26H41.59a2.19,2.19,0,0,0,.53,1.44,1.58,1.58,0,0,0,1.19.5,1.48,1.48,0,0,0,.91-.28A1.86,1.86,0,0,0,44.82,39.57ZM41.65,38h3.19a1.93,1.93,0,0,0-.37-1.08,1.48,1.48,0,0,0-1.2-.56,1.53,1.53,0,0,0-1.12.45A1.76,1.76,0,0,0,41.65,38Z"/><path d="M46.87,39.71l1-.15a1.33,1.33,0,0,0,.45.88,1.56,1.56,0,0,0,1,.31,1.51,1.51,0,0,0,1-.27.81.81,0,0,0,.32-.64.59.59,0,0,0-.28-.52,4.18,4.18,0,0,0-1-.33,9,9,0,0,1-1.47-.46A1.41,1.41,0,0,1,47,37.22a1.47,1.47,0,0,1,.17-.71,1.57,1.57,0,0,1,.48-.54,2,2,0,0,1,.62-.28,2.93,2.93,0,0,1,.83-.12,3.3,3.3,0,0,1,1.18.19,1.6,1.6,0,0,1,.75.52,2.05,2.05,0,0,1,.33.88l-.95.13a1,1,0,0,0-.37-.69,1.36,1.36,0,0,0-.87-.25,1.58,1.58,0,0,0-1,.22.64.64,0,0,0-.28.52.53.53,0,0,0,.12.34.85.85,0,0,0,.37.26l.85.25a11.89,11.89,0,0,1,1.43.45,1.45,1.45,0,0,1,.64.51,1.42,1.42,0,0,1,.23.83,1.62,1.62,0,0,1-.28.91,1.83,1.83,0,0,1-.81.66,3,3,0,0,1-1.2.23,2.68,2.68,0,0,1-1.69-.46A2.15,2.15,0,0,1,46.87,39.71Z"/><path d="M52.59,39.71l1-.15a1.33,1.33,0,0,0,.45.88,1.56,1.56,0,0,0,1,.31,1.51,1.51,0,0,0,1-.27.81.81,0,0,0,.32-.64.59.59,0,0,0-.28-.52,4.18,4.18,0,0,0-1-.33,9,9,0,0,1-1.47-.46,1.41,1.41,0,0,1-.84-1.31,1.47,1.47,0,0,1,.17-.71A1.57,1.57,0,0,1,53.4,36a2,2,0,0,1,.62-.28,2.93,2.93,0,0,1,.83-.12,3.3,3.3,0,0,1,1.18.19,1.6,1.6,0,0,1,.75.52,2.05,2.05,0,0,1,.33.88l-.95.13a1,1,0,0,0-.37-.69,1.36,1.36,0,0,0-.87-.25,1.58,1.58,0,0,0-1,.22.64.64,0,0,0-.28.52.53.53,0,0,0,.12.34.85.85,0,0,0,.37.26l.85.25a11.89,11.89,0,0,1,1.43.45,1.45,1.45,0,0,1,.64.51,1.42,1.42,0,0,1,.23.83,1.62,1.62,0,0,1-.28.91,1.83,1.83,0,0,1-.81.66,3,3,0,0,1-1.2.23,2.68,2.68,0,0,1-1.69-.46A2.15,2.15,0,0,1,52.59,39.71Z"/><path d="M183,39.35l1-.09a1.82,1.82,0,0,0,.52,1.11,1.42,1.42,0,0,0,1,.37,1.54,1.54,0,0,0,1.18-.53,2,2,0,0,0,.48-1.4,1.79,1.79,0,0,0-.46-1.31,1.62,1.62,0,0,0-1.22-.48,1.68,1.68,0,0,0-.84.21,1.63,1.63,0,0,0-.59.55l-.91-.12.76-4h3.92v.92h-3.14l-.42,2.12a2.56,2.56,0,0,1,1.49-.49,2.36,2.36,0,0,1,1.74.71,2.5,2.5,0,0,1,.71,1.84,2.86,2.86,0,0,1-.62,1.85,2.5,2.5,0,0,1-2.07,1,2.55,2.55,0,0,1-1.75-.6A2.35,2.35,0,0,1,183,39.35Z"/><path d="M202.11,38l-5.22,2.23v-1L201,37.52l-4.13-1.7v-1l5.22,2.2Z"/><path d="M4.6,55.41V47.53h3A3.65,3.65,0,0,1,9,47.77a1.86,1.86,0,0,1,.85.74,1.94,1.94,0,0,1,.31,1,1.79,1.79,0,0,1-.27,1,2,2,0,0,1-.83.72,2.06,2.06,0,0,1,1.1.71,1.91,1.91,0,0,1,.38,1.19,2.3,2.3,0,0,1-.23,1,2,2,0,0,1-.58.73,2.4,2.4,0,0,1-.86.39,5.23,5.23,0,0,1-1.27.13Zm1-4.57h1.7a3.79,3.79,0,0,0,1-.09,1.1,1.1,0,0,0,.6-.39,1.13,1.13,0,0,0,.2-.69A1.27,1.27,0,0,0,9,49a1,1,0,0,0-.54-.41,4.5,4.5,0,0,0-1.2-.11H5.64Zm0,3.64h2a4.54,4.54,0,0,0,.71,0,1.7,1.7,0,0,0,.6-.21,1.14,1.14,0,0,0,.4-.44,1.37,1.37,0,0,0,.16-.66,1.31,1.31,0,0,0-.23-.77,1.19,1.19,0,0,0-.63-.46,3.89,3.89,0,0,0-1.15-.13H5.64Z"/><path d="M15.8,54.7a3.6,3.6,0,0,1-1,.64,3,3,0,0,1-1.07.19,2.08,2.08,0,0,1-1.44-.46,1.52,1.52,0,0,1-.5-1.17,1.56,1.56,0,0,1,.19-.77,1.58,1.58,0,0,1,.5-.56,2.35,2.35,0,0,1,.7-.32,6.85,6.85,0,0,1,.86-.15,8.84,8.84,0,0,0,1.72-.33c0-.13,0-.22,0-.25a1.07,1.07,0,0,0-.27-.83,1.62,1.62,0,0,0-1.1-.33,1.71,1.71,0,0,0-1,.24,1.46,1.46,0,0,0-.48.85l-.95-.13a2.34,2.34,0,0,1,.42-1,1.86,1.86,0,0,1,.85-.58,3.82,3.82,0,0,1,1.29-.2,3.42,3.42,0,0,1,1.19.17,1.56,1.56,0,0,1,.67.43,1.52,1.52,0,0,1,.3.66,5.44,5.44,0,0,1,0,.89V53a13.6,13.6,0,0,0,.06,1.71,2.15,2.15,0,0,0,.24.68H16A2.06,2.06,0,0,1,15.8,54.7Zm-.08-2.16a7.1,7.1,0,0,1-1.58.37,3.63,3.63,0,0,0-.84.19.84.84,0,0,0-.38.31.85.85,0,0,0,.16,1.1,1.26,1.26,0,0,0,.86.26,2,2,0,0,0,1-.24,1.5,1.5,0,0,0,.64-.67,2.33,2.33,0,0,0,.16-1Z"/><path d="M22.14,53.32l1,.12a2.47,2.47,0,0,1-.8,1.54,2.33,2.33,0,0,1-1.58.56,2.45,2.45,0,0,1-1.88-.77,3.1,3.1,0,0,1-.71-2.19A4,4,0,0,1,18.43,51a2.13,2.13,0,0,1,.93-1,2.76,2.76,0,0,1,1.36-.35,2.37,2.37,0,0,1,1.52.47A2.15,2.15,0,0,1,23,51.38l-.94.15a1.56,1.56,0,0,0-.48-.86,1.23,1.23,0,0,0-.82-.29,1.5,1.5,0,0,0-1.19.52,2.49,2.49,0,0,0-.46,1.66,2.57,2.57,0,0,0,.44,1.67,1.43,1.43,0,0,0,1.15.52,1.35,1.35,0,0,0,1-.35A1.73,1.73,0,0,0,22.14,53.32Z"/><path d="M24.14,55.41V47.53h1V52L27.4,49.7h1.25l-2.18,2.12,2.4,3.59H27.68l-1.89-2.92-.68.66v2.26Z"/><path d="M29.83,55.41V47.53h1v7.87Z"/><path d="M32.53,48.65V47.53h1v1.11Zm0,6.76V49.7h1v5.7Z"/><path d="M35,55.88l.94.14a.9.9,0,0,0,.33.63,1.61,1.61,0,0,0,1,.27,1.73,1.73,0,0,0,1-.27,1.32,1.32,0,0,0,.49-.75,6.17,6.17,0,0,0,.07-1.24,2,2,0,0,1-1.58.75,2.15,2.15,0,0,1-1.82-.85,3.27,3.27,0,0,1-.64-2,3.79,3.79,0,0,1,.3-1.51A2.36,2.36,0,0,1,36,50a2.31,2.31,0,0,1,1.32-.38,2,2,0,0,1,1.67.82V49.7h.89v4.93a4.67,4.67,0,0,1-.27,1.89,2,2,0,0,1-.86.88,3,3,0,0,1-1.45.32,2.73,2.73,0,0,1-1.65-.46A1.55,1.55,0,0,1,35,55.88Zm.8-3.43a2.47,2.47,0,0,0,.45,1.64,1.47,1.47,0,0,0,2.23,0,2.39,2.39,0,0,0,.45-1.61,2.34,2.34,0,0,0-.46-1.58,1.44,1.44,0,0,0-1.12-.53,1.39,1.39,0,0,0-1.1.52A2.32,2.32,0,0,0,35.81,52.45Z"/><path d="M41.52,55.41V47.53h1v2.83a2.16,2.16,0,0,1,1.71-.78,2.3,2.3,0,0,1,1.1.25,1.47,1.47,0,0,1,.67.69,3.19,3.19,0,0,1,.2,1.28v3.61h-1V51.79a1.49,1.49,0,0,0-.31-1.06,1.17,1.17,0,0,0-.89-.33,1.57,1.57,0,0,0-.81.22,1.26,1.26,0,0,0-.54.6,2.78,2.78,0,0,0-.16,1.05v3.12Z"/><path d="M50,54.54l.14.85a3.6,3.6,0,0,1-.73.09,1.66,1.66,0,0,1-.82-.17.93.93,0,0,1-.41-.44A3.46,3.46,0,0,1,48,53.74V50.46h-.71V49.7H48V48.29l1-.58v2h1v.75H49v3.34a1.68,1.68,0,0,0,.05.53.4.4,0,0,0,.17.19.65.65,0,0,0,.33.07Z"/><path d="M54.54,55.41V47.53h2.71a6.58,6.58,0,0,1,1.4.11,2.67,2.67,0,0,1,1.15.56,3.2,3.2,0,0,1,.93,1.35A5.29,5.29,0,0,1,61,51.43,5.5,5.5,0,0,1,60.84,53a3.86,3.86,0,0,1-.54,1.15,2.85,2.85,0,0,1-.72.71,2.91,2.91,0,0,1-.94.4,5.38,5.38,0,0,1-1.27.13Zm1-.93h1.68a4.08,4.08,0,0,0,1.22-.15,1.75,1.75,0,0,0,.71-.41,2.48,2.48,0,0,0,.58-1A4.86,4.86,0,0,0,60,51.41a3.67,3.67,0,0,0-.41-1.9,2,2,0,0,0-1-.89,4.07,4.07,0,0,0-1.35-.16H55.58Z"/><path d="M66.48,53.57l1,.12a2.44,2.44,0,0,1-.88,1.36A3,3,0,0,1,63,54.77a3,3,0,0,1-.73-2.16A3.15,3.15,0,0,1,63,50.37a2.51,2.51,0,0,1,1.92-.79,2.44,2.44,0,0,1,1.87.78,3.09,3.09,0,0,1,.73,2.19c0,.06,0,.14,0,.26H63.25a2.19,2.19,0,0,0,.53,1.44,1.58,1.58,0,0,0,1.19.5,1.48,1.48,0,0,0,.91-.28A1.86,1.86,0,0,0,66.48,53.57ZM63.31,52h3.19a1.93,1.93,0,0,0-.37-1.08,1.48,1.48,0,0,0-1.2-.56,1.53,1.53,0,0,0-1.12.45A1.76,1.76,0,0,0,63.31,52Z"/><path d="M68.89,55.41V47.53h1v7.87Z"/><path d="M75.3,54.7a3.6,3.6,0,0,1-1,.64,3,3,0,0,1-1.07.19,2.08,2.08,0,0,1-1.44-.46,1.52,1.52,0,0,1-.5-1.17,1.56,1.56,0,0,1,.19-.77,1.58,1.58,0,0,1,.5-.56,2.35,2.35,0,0,1,.7-.32,6.85,6.85,0,0,1,.86-.15,8.84,8.84,0,0,0,1.72-.33c0-.13,0-.22,0-.25a1.07,1.07,0,0,0-.27-.83,1.62,1.62,0,0,0-1.1-.33,1.71,1.71,0,0,0-1,.24,1.46,1.46,0,0,0-.48.85l-.95-.13a2.34,2.34,0,0,1,.42-1,1.86,1.86,0,0,1,.85-.58,3.82,3.82,0,0,1,1.29-.2,3.42,3.42,0,0,1,1.19.17,1.56,1.56,0,0,1,.67.43,1.52,1.52,0,0,1,.3.66,5.44,5.44,0,0,1,0,.89V53a13.6,13.6,0,0,0,.06,1.71,2.15,2.15,0,0,0,.24.68h-1A2.06,2.06,0,0,1,75.3,54.7Zm-.08-2.16a7.1,7.1,0,0,1-1.58.37,3.63,3.63,0,0,0-.84.19.84.84,0,0,0-.38.31.85.85,0,0,0,.16,1.1,1.26,1.26,0,0,0,.86.26,2,2,0,0,0,1-.24,1.5,1.5,0,0,0,.64-.67,2.33,2.33,0,0,0,.16-1Z"/><path d="M77.87,57.6l-.11-.91a2.16,2.16,0,0,0,.55.09,1.06,1.06,0,0,0,.52-.11.88.88,0,0,0,.32-.3,4.73,4.73,0,0,0,.3-.72l.09-.24L77.37,49.7h1L79.6,53q.23.63.41,1.32a13,13,0,0,1,.4-1.3l1.22-3.32h1l-2.17,5.8a11.43,11.43,0,0,1-.54,1.29,1.9,1.9,0,0,1-.59.7,1.39,1.39,0,0,1-.79.22A1.94,1.94,0,0,1,77.87,57.6Z"/><path d="M170.93,53.33l1-.13a2.12,2.12,0,0,0,.57,1.18,1.4,1.4,0,0,0,1,.36,1.56,1.56,0,0,0,1.15-.47,1.59,1.59,0,0,0,.47-1.17,1.48,1.48,0,0,0-.43-1.1,1.5,1.5,0,0,0-1.11-.43,2.77,2.77,0,0,0-.68.11l.11-.85h.16a2,2,0,0,0,1.11-.32,1.1,1.1,0,0,0,.49-1,1.18,1.18,0,0,0-.36-.88,1.28,1.28,0,0,0-.93-.35,1.31,1.31,0,0,0-.94.35,1.78,1.78,0,0,0-.48,1.06l-1-.17a2.49,2.49,0,0,1,.81-1.51,2.33,2.33,0,0,1,1.56-.53,2.58,2.58,0,0,1,1.19.28,2,2,0,0,1,.83.75,1.94,1.94,0,0,1,.29,1,1.66,1.66,0,0,1-.27.93,1.87,1.87,0,0,1-.81.67,1.83,1.83,0,0,1,1.08.67,2,2,0,0,1,.39,1.27,2.33,2.33,0,0,1-.75,1.75,2.65,2.65,0,0,1-1.9.72,2.48,2.48,0,0,1-1.72-.62A2.39,2.39,0,0,1,170.93,53.33Z"/><path d="M177.26,51.52a7.21,7.21,0,0,1,.29-2.25A2.8,2.8,0,0,1,178.4,48a2.18,2.18,0,0,1,1.43-.46,2.33,2.33,0,0,1,1.11.25,2.13,2.13,0,0,1,.79.74,4,4,0,0,1,.49,1.17,7.77,7.77,0,0,1,.18,1.86,7.2,7.2,0,0,1-.29,2.24,2.8,2.8,0,0,1-.85,1.32,2.4,2.4,0,0,1-3.22-.35A5.19,5.19,0,0,1,177.26,51.52Zm1,0a4.93,4.93,0,0,0,.45,2.58,1.3,1.3,0,0,0,2.24,0,4.94,4.94,0,0,0,.45-2.58,4.93,4.93,0,0,0-.45-2.58,1.34,1.34,0,0,0-1.13-.64,1.24,1.24,0,0,0-1.06.56A5,5,0,0,0,178.25,51.52Z"/><path d="M183.48,53.71l1-.15a1.34,1.34,0,0,0,.45.88,1.56,1.56,0,0,0,1,.31,1.51,1.51,0,0,0,1-.27.81.81,0,0,0,.32-.64.59.59,0,0,0-.28-.52,4.19,4.19,0,0,0-1-.33,9,9,0,0,1-1.47-.46,1.41,1.41,0,0,1-.83-1.31,1.47,1.47,0,0,1,.17-.71,1.58,1.58,0,0,1,.48-.54,2,2,0,0,1,.62-.28,2.94,2.94,0,0,1,.83-.12,3.3,3.3,0,0,1,1.18.19,1.61,1.61,0,0,1,.75.52,2.06,2.06,0,0,1,.33.88l-.95.13a1,1,0,0,0-.37-.69,1.36,1.36,0,0,0-.87-.25,1.58,1.58,0,0,0-1,.22.64.64,0,0,0-.28.52.53.53,0,0,0,.12.34.85.85,0,0,0,.37.26l.85.25a11.88,11.88,0,0,1,1.43.45,1.45,1.45,0,0,1,.64.51,1.41,1.41,0,0,1,.23.83,1.63,1.63,0,0,1-.28.91,1.83,1.83,0,0,1-.81.66,3,3,0,0,1-1.2.23,2.68,2.68,0,0,1-1.7-.46A2.15,2.15,0,0,1,183.48,53.71Z"/><path d="M202.11,52l-5.22,2.23v-1L201,51.52l-4.13-1.7v-1l5.22,2.2Z"/><path d="M4.6,69.41V61.53h1v6.94H9.52v.93Z"/><path d="M14.58,68.7a3.6,3.6,0,0,1-1,.64,3,3,0,0,1-1.07.19A2.08,2.08,0,0,1,11,69.08a1.52,1.52,0,0,1-.5-1.17,1.56,1.56,0,0,1,.19-.77,1.58,1.58,0,0,1,.5-.56,2.35,2.35,0,0,1,.7-.32,6.85,6.85,0,0,1,.86-.15,8.84,8.84,0,0,0,1.72-.33c0-.13,0-.22,0-.25a1.07,1.07,0,0,0-.27-.83,1.62,1.62,0,0,0-1.1-.33,1.71,1.71,0,0,0-1,.24,1.46,1.46,0,0,0-.48.85l-.95-.13a2.34,2.34,0,0,1,.42-1,1.86,1.86,0,0,1,.85-.58,3.82,3.82,0,0,1,1.29-.2,3.42,3.42,0,0,1,1.19.17,1.56,1.56,0,0,1,.67.43,1.52,1.52,0,0,1,.3.66,5.44,5.44,0,0,1,0,.89V67a13.6,13.6,0,0,0,.06,1.71,2.15,2.15,0,0,0,.24.68h-1A2.06,2.06,0,0,1,14.58,68.7Zm-.08-2.16a7.1,7.1,0,0,1-1.58.37,3.63,3.63,0,0,0-.84.19.84.84,0,0,0-.38.31.85.85,0,0,0,.16,1.1,1.26,1.26,0,0,0,.86.26,2,2,0,0,0,1-.24,1.5,1.5,0,0,0,.64-.67,2.33,2.33,0,0,0,.16-1Z"/><path d="M17.2,69.41V63.7h.87v.81a2.05,2.05,0,0,1,1.82-.94,2.37,2.37,0,0,1,.95.19,1.48,1.48,0,0,1,.65.49,1.87,1.87,0,0,1,.3.71,5.55,5.55,0,0,1,.05.94v3.51h-1V65.94a2.61,2.61,0,0,0-.11-.88.93.93,0,0,0-.4-.47,1.27,1.27,0,0,0-.67-.17,1.57,1.57,0,0,0-1.07.39,1.93,1.93,0,0,0-.45,1.49v3.12Z"/><path d="M23.36,69.88l.94.14a.9.9,0,0,0,.33.63,1.61,1.61,0,0,0,1,.27,1.73,1.73,0,0,0,1-.27,1.32,1.32,0,0,0,.49-.75,6.17,6.17,0,0,0,.07-1.24,2,2,0,0,1-1.58.75,2.15,2.15,0,0,1-1.82-.85,3.27,3.27,0,0,1-.64-2,3.79,3.79,0,0,1,.3-1.51A2.36,2.36,0,0,1,24.32,64a2.31,2.31,0,0,1,1.32-.38,2,2,0,0,1,1.67.82V63.7h.89v4.93a4.67,4.67,0,0,1-.27,1.89,2,2,0,0,1-.86.88,3,3,0,0,1-1.45.32A2.73,2.73,0,0,1,24,71.26,1.55,1.55,0,0,1,23.36,69.88Zm.8-3.43a2.47,2.47,0,0,0,.45,1.64,1.47,1.47,0,0,0,2.23,0,2.39,2.39,0,0,0,.45-1.61,2.34,2.34,0,0,0-.46-1.58,1.44,1.44,0,0,0-1.12-.53,1.39,1.39,0,0,0-1.1.52A2.32,2.32,0,0,0,24.16,66.45Z"/><path d="M33.61,69.41v-.84a2.09,2.09,0,0,1-1.81,1,2.3,2.3,0,0,1-.94-.19,1.55,1.55,0,0,1-.65-.49,1.82,1.82,0,0,1-.3-.72,4.9,4.9,0,0,1-.06-.9V63.7h1v3.16a5.62,5.62,0,0,0,.06,1,1,1,0,0,0,.39.6,1.2,1.2,0,0,0,.73.22,1.59,1.59,0,0,0,.82-.22,1.24,1.24,0,0,0,.54-.61,3.05,3.05,0,0,0,.16-1.11V63.7h1v5.7Z"/><path d="M39.93,68.7a3.6,3.6,0,0,1-1,.64,3,3,0,0,1-1.07.19,2.08,2.08,0,0,1-1.44-.46,1.52,1.52,0,0,1-.5-1.17,1.56,1.56,0,0,1,.19-.77,1.58,1.58,0,0,1,.5-.56,2.35,2.35,0,0,1,.7-.32,6.85,6.85,0,0,1,.86-.15,8.84,8.84,0,0,0,1.72-.33c0-.13,0-.22,0-.25a1.07,1.07,0,0,0-.27-.83,1.62,1.62,0,0,0-1.1-.33,1.71,1.71,0,0,0-1,.24,1.46,1.46,0,0,0-.48.85L36,65.33a2.34,2.34,0,0,1,.42-1,1.86,1.86,0,0,1,.85-.58,3.82,3.82,0,0,1,1.29-.2,3.42,3.42,0,0,1,1.19.17,1.56,1.56,0,0,1,.67.43,1.52,1.52,0,0,1,.3.66,5.44,5.44,0,0,1,0,.89V67a13.6,13.6,0,0,0,.06,1.71,2.15,2.15,0,0,0,.24.68h-1A2.06,2.06,0,0,1,39.93,68.7Zm-.08-2.16a7.1,7.1,0,0,1-1.58.37,3.63,3.63,0,0,0-.84.19.84.84,0,0,0-.38.31.85.85,0,0,0,.16,1.1,1.26,1.26,0,0,0,.86.26,2,2,0,0,0,1-.24,1.5,1.5,0,0,0,.64-.67,2.33,2.33,0,0,0,.16-1Z"/><path d="M42.37,69.88l.94.14a.9.9,0,0,0,.33.63,1.61,1.61,0,0,0,1,.27,1.73,1.73,0,0,0,1-.27,1.32,1.32,0,0,0,.49-.75,6.17,6.17,0,0,0,.07-1.24,2,2,0,0,1-1.58.75,2.15,2.15,0,0,1-1.82-.85,3.27,3.27,0,0,1-.64-2,3.79,3.79,0,0,1,.3-1.51A2.36,2.36,0,0,1,43.33,64a2.31,2.31,0,0,1,1.32-.38,2,2,0,0,1,1.67.82V63.7h.89v4.93a4.67,4.67,0,0,1-.27,1.89,2,2,0,0,1-.86.88,3,3,0,0,1-1.45.32A2.73,2.73,0,0,1,43,71.26,1.55,1.55,0,0,1,42.37,69.88Zm.8-3.43a2.47,2.47,0,0,0,.45,1.64,1.47,1.47,0,0,0,2.23,0,2.39,2.39,0,0,0,.45-1.61,2.34,2.34,0,0,0-.46-1.58,1.44,1.44,0,0,0-1.12-.53,1.39,1.39,0,0,0-1.1.52A2.32,2.32,0,0,0,43.17,66.45Z"/><path d="M52.79,67.57l1,.12a2.44,2.44,0,0,1-.88,1.36,3,3,0,0,1-3.62-.29,3,3,0,0,1-.73-2.16,3.15,3.15,0,0,1,.74-2.23,2.51,2.51,0,0,1,1.92-.79,2.44,2.44,0,0,1,1.87.78,3.09,3.09,0,0,1,.73,2.19c0,.06,0,.14,0,.26H49.56a2.19,2.19,0,0,0,.53,1.44,1.58,1.58,0,0,0,1.19.5,1.48,1.48,0,0,0,.91-.28A1.86,1.86,0,0,0,52.79,67.57ZM49.62,66H52.8a1.93,1.93,0,0,0-.37-1.08,1.48,1.48,0,0,0-1.2-.56,1.53,1.53,0,0,0-1.12.45A1.76,1.76,0,0,0,49.62,66Z"/><path d="M152.11,69.41V61.53h5.69v.93h-4.65v2.41h4.36v.92h-4.36v2.68H158v.93Z"/><path d="M159.53,69.41V63.7h.87v.81a2.05,2.05,0,0,1,1.82-.94,2.37,2.37,0,0,1,.95.19,1.48,1.48,0,0,1,.65.49,1.85,1.85,0,0,1,.3.71,5.5,5.5,0,0,1,.05.94v3.51h-1V65.94a2.61,2.61,0,0,0-.11-.88.93.93,0,0,0-.4-.47,1.27,1.27,0,0,0-.67-.17,1.57,1.57,0,0,0-1.07.39,1.93,1.93,0,0,0-.45,1.49v3.12Z"/><path d="M165.69,69.88l.94.14a.9.9,0,0,0,.33.63,1.61,1.61,0,0,0,1,.27,1.72,1.72,0,0,0,1-.27,1.32,1.32,0,0,0,.49-.75,6.16,6.16,0,0,0,.07-1.24,2,2,0,0,1-1.58.75,2.15,2.15,0,0,1-1.82-.85,3.27,3.27,0,0,1-.64-2,3.78,3.78,0,0,1,.3-1.51,2.36,2.36,0,0,1,.86-1.07,2.31,2.31,0,0,1,1.32-.38,2,2,0,0,1,1.67.82V63.7h.89v4.93a4.66,4.66,0,0,1-.27,1.89,2,2,0,0,1-.86.88,3,3,0,0,1-1.45.32,2.73,2.73,0,0,1-1.65-.46A1.55,1.55,0,0,1,165.69,69.88Zm.8-3.43a2.48,2.48,0,0,0,.45,1.64,1.47,1.47,0,0,0,2.23,0,2.39,2.39,0,0,0,.45-1.61,2.33,2.33,0,0,0-.46-1.58,1.44,1.44,0,0,0-1.12-.53,1.39,1.39,0,0,0-1.1.52A2.32,2.32,0,0,0,166.49,66.45Z"/><path d="M172.18,69.41V61.53h1v7.87Z"/><path d="M174.87,62.65V61.53h1v1.11Zm0,6.76V63.7h1v5.7Z"/><path d="M177.14,67.71l1-.15a1.34,1.34,0,0,0,.45.88,1.56,1.56,0,0,0,1,.31,1.51,1.51,0,0,0,1-.27.81.81,0,0,0,.32-.64.59.59,0,0,0-.28-.52,4.19,4.19,0,0,0-1-.33,9,9,0,0,1-1.47-.46,1.41,1.41,0,0,1-.83-1.31,1.47,1.47,0,0,1,.17-.71A1.58,1.58,0,0,1,178,64a2,2,0,0,1,.62-.28,2.94,2.94,0,0,1,.83-.12,3.3,3.3,0,0,1,1.18.19,1.61,1.61,0,0,1,.75.52,2.06,2.06,0,0,1,.33.88l-.95.13a1,1,0,0,0-.37-.69,1.36,1.36,0,0,0-.87-.25,1.58,1.58,0,0,0-1,.22.64.64,0,0,0-.28.52.53.53,0,0,0,.12.34.85.85,0,0,0,.37.26l.85.25a11.88,11.88,0,0,1,1.43.45,1.45,1.45,0,0,1,.64.51,1.41,1.41,0,0,1,.23.83,1.63,1.63,0,0,1-.28.91,1.83,1.83,0,0,1-.81.66,3,3,0,0,1-1.2.23,2.68,2.68,0,0,1-1.7-.46A2.15,2.15,0,0,1,177.14,67.71Z"/><path d="M183.25,69.41V61.53h1v2.83a2.16,2.16,0,0,1,1.71-.78,2.3,2.3,0,0,1,1.1.25,1.47,1.47,0,0,1,.67.69,3.19,3.19,0,0,1,.2,1.28v3.61h-1V65.79a1.49,1.49,0,0,0-.31-1.06,1.17,1.17,0,0,0-.89-.33,1.56,1.56,0,0,0-.81.22,1.26,1.26,0,0,0-.54.6,2.78,2.78,0,0,0-.16,1.05v3.12Z"/><path d="M202.11,66l-5.22,2.23v-1L201,65.52l-4.13-1.7v-1l5.22,2.2Z"/></svg>