<svg id="Layer_1" data-name="Layer 1" xmlns="http://www.w3.org/2000/svg" viewBox="0 0 293.97 78.55"><title>AO_Smith_grayscale</title><path d="M5.19,57a34.47,34.47,0,0,0,6.38,7.85l-.81-5.91L5.19,57" style="fill:#fff"/><path d="M46.83,78.48c24.6,0,46.82-17.18,46.82-39.22S71.43,0,46.83,0,0,17.21,0,39.26,22.22,78.48,46.83,78.48" style="fill:#fff"/><path d="M203.21,63.79h-8.35L194.74,37c0-3.83-4-3.92-4-3.92h-3.67s-.5.09-1.08.17c-5.26,1.11-6.93,5.2-7,9.81l.07,20.72h-8.44V37.11c0-3.92-4.12-4-4.12-4h-3.66s-.5.09-1.08.17c-5.26,1.11-6.93,5.2-6.88,9.81V63.79h-8.44l0-22.34,0-16.8h8.44l0,3.49a10.49,10.49,0,0,1,7.89-3.58h3.07c3.75,0,7,1.19,10.49,4.34,3.55-3.07,6.65-4.34,10.66-4.34h3.07c7.67,0,13.14,4.86,13.18,12.87l0,26.35"/><path d="M268.51,24.57H255.72V16.72l-8.43-5.11V63.79h8.44L255.68,33h13a5,5,0,0,1,2.49.59c1.22.6,2.13,1.88,2.09,4.09V63.79h8.44l-.05-26.43c0-8-5.49-12.79-13.17-12.79"/><path d="M235.44,16.32l-7.94-4.8h-.33L227.1,33h0V50c0,6.91,3.07,12.1,9.3,13.55a11.35,11.35,0,0,0,2.09.26h1.79l0-8.44h-1.19c-3.66,0-3.58-4.34-3.58-4.34V33h4.86l0-8.44h-4.85V16.32"/><path d="M211,63.8h8.35V24.57H211V63.8m.37-52.26H211l0,8.86h8.27l0-4.06Z"/><path d="M104.6,49.38a20.66,20.66,0,0,0,14.87,6.8c7-.08,12-2.72,12-7.52,0-11.19-32.37-.4-32.37-20.87,0-9,9.35-15.11,20.79-15.11,8.31,0,15,2.64,20,7.67L133,26.52c-4.56-4.48-8.71-6-13.59-6-7.68,0-10.56,3.76-10.56,6.8,0,11.27,32.38,0,32.38,20.86,0,10.48-10.64,16.79-22.15,16.79a29.77,29.77,0,0,1-21.5-9.28l7-6.32"/><path d="M289.65,55.18a4.32,4.32,0,1,1-4.32,4.33,4.33,4.33,0,0,1,4.32-4.33m0,7.68a3.37,3.37,0,1,0-3.08-3.36A3.13,3.13,0,0,0,289.65,62.86Zm-1.74-5.78h1.81c1.22,0,1.91.36,1.91,1.44a1.19,1.19,0,0,1-1.27,1.28l1.27,2.08h-1.05l-1.15-2h-.49v2h-1Zm1.87,2c.49,0,.82-.09.82-.64s-.53-.54-.93-.54h-.73v1.18Z"/><path d="M69.76,14.59c13.84,0,24.81,10.53,24.81,24.08s-11,24.07-24.81,24.07S44.95,52.21,44.95,38.66s11-24.08,24.81-24.08m0,40a16,16,0,1,0-15.83-16A16.07,16.07,0,0,0,69.76,54.63Z" style="fill:#fff"/><path d="M19.05,45.42H32.52l-6.7-16.56L19.05,45.42m50.71,17.3C55.94,62.72,45,52.19,45,38.65s11-24.07,24.8-24.07a24.78,24.78,0,0,1,21,11.11C83.93,10.53,66.13,0,46.86,0,22.23,0,0,17.2,0,39.28A33.53,33.53,0,0,0,5.29,57.2L23.5,15.53h5.19L48.27,61.76h-9.2l-3.53-8.69H16L11.47,64.76c8.8,8.49,21.73,13.8,35.4,13.8,20.86,0,40-12.33,45.36-29.52A24.61,24.61,0,0,1,69.77,62.72ZM53.95,38.65a15.82,15.82,0,1,0,15.82-16A16.07,16.07,0,0,0,53.95,38.65Z"/></svg>