<svg id="Layer_1" data-name="Layer 1" xmlns="http://www.w3.org/2000/svg" viewBox="0 0 191.37 57.39"><defs><style>.cls-1{fill:#fff;}</style></defs><title>AHRIcert_www-black</title><path d="M191.37,28c0,14.08-5.6,29.34-12.22,29.34H11.09C4.46,57.39,0,42.13,0,28.13S4.25,0,10.88,0H180.21C186.84,0,191.37,14,191.37,28Z"/><path class="cls-1" d="M45.89,20.36H40.57V12h-6.9v9.79c6.26.15,12.75,1.23,19.12,2V12h-6.9Zm24.27,4.08a5.81,5.81,0,0,0,3.33-5.62,6.13,6.13,0,0,0-2.76-5.39A10.53,10.53,0,0,0,64.92,12H53.45V24C59.22,24.69,64.89,25.15,70.17,24.44Zm-9.72-3.29v-4.3h2.79a4.43,4.43,0,0,1,2,.3A2.06,2.06,0,0,1,66.3,19c0,1.94-1.81,2.17-3.32,2.17ZM21.21,23.26l1.29-4.57,1.12,4a38.73,38.73,0,0,1,6.27-.77L26.8,12H19.51L15.23,25.82l.08,0A27,27,0,0,1,21.21,23.26ZM74.25,12V23.62a24.75,24.75,0,0,0,7-3.07V12ZM63.57,28.49l2.33,6.1h7.69l-3-7.35A31.1,31.1,0,0,1,63.57,28.49Zm-10.12,6.1h7v-6a62.84,62.84,0,0,1-7-.5Zm20.8,0h7V21.23a30.47,30.47,0,0,1-7,4.58Zm-28.35,0h6.9V28c-2.27-.29-4.57-.66-6.9-1ZM33.67,34l-2.75-8.77a44.89,44.89,0,0,0-16.17,2.19l-2.24,7.21h5.62l1.38-4.44h6l1.28,4.44H40.57V26.13c-2.27-.33-4.57-.61-6.9-.79Z"/><path class="cls-1" d="M96.26,25.75c-.25-2.09-.82-4.22-3-4.22-1.91,0-3,2.34-3,5.94s1.11,5.94,3,5.94c2.42,0,2.73-2,2.93-4.12h2c0,3.38-1.37,5.84-4.9,5.84-2.81,0-5.1-2.46-5.1-7.66s2.29-7.66,5.1-7.66c3.52,0,4.67,2.62,4.92,5.94Z"/><path class="cls-1" d="M100.75,34.88V20h7.46v1.89h-5.37V26.2h5.37v1.89h-5.37V33h5.37v1.89Z"/><path class="cls-1" d="M111.45,34.88V20h4.14c2.44,0,4.86,1.41,4.86,4.39,0,2.34-1,4.16-3.38,4.47l4.22,6h-2.5L113.7,27.3h1.64c1.64,0,3-.82,3-2.54a2.67,2.67,0,0,0-2.93-2.83h-1.89v13Z"/><path class="cls-1" d="M130.27,20v1.89h-3.18v13H125v-13h-3.18V20Z"/><path class="cls-1" d="M132.28,34.88V20h2.09V34.88Z"/><path class="cls-1" d="M144.54,20v1.89h-5V26.2h5v1.89h-5v6.8h-2.09V20Z"/><path class="cls-1" d="M146.84,34.88V20h2.09V34.88Z"/><path class="cls-1" d="M152,34.88V20h7.46v1.89h-5.37V26.2h5.37v1.89h-5.37V33h5.37v1.89Z"/><path class="cls-1" d="M162.74,20h4.41c4.3,0,5.92,3.36,5.92,7.42s-1.62,7.42-5.92,7.42h-4.41Zm2.09,13h2c3.26,0,4.16-2.48,4.16-5.53s-.9-5.53-4.16-5.53h-2Z"/><path class="cls-1" d="M87.59,40.58h.9l.6,3.39h0l.64-3.39h1L91.35,44h0L92,40.58h.86l-1,4.3h-1l-.67-3.34h0l-.62,3.34h-1Z"/><path class="cls-1" d="M93.87,40.58h.9l.6,3.39h0L96,40.58h1L97.63,44h0l.59-3.39h.86l-1,4.3h-1l-.67-3.34h0l-.62,3.34h-1Z"/><path class="cls-1" d="M100.15,40.58h.9l.6,3.39h0l.64-3.39h1l.64,3.39h0l.59-3.39h.86l-1,4.3h-1l-.67-3.34h0l-.62,3.34h-1Z"/><path class="cls-1" d="M106.37,43.83h.91v1.06h-.91Z"/><path class="cls-1" d="M111.82,44c0,.16.1.3.22.3a.37.37,0,0,0,.14,0v.56a1,1,0,0,1-.42.1c-.38,0-.7-.15-.73-.57h0A1.12,1.12,0,0,1,110,45c-.69,0-1.12-.38-1.12-1.21a1.18,1.18,0,0,1,1-1.35l.67-.18c.31-.09.5-.18.5-.55s-.14-.64-.59-.64-.66.41-.66.82h-.81c0-.91.38-1.42,1.51-1.42.76,0,1.37.3,1.37,1.06ZM111,42.61a5.69,5.69,0,0,1-1,.4.71.71,0,0,0-.35.7c0,.36.18.65.54.65.52,0,.78-.39.78-1Z"/><path class="cls-1" d="M113.51,39.18h.86V41l0,0a1.24,1.24,0,0,1,1.05-.59c.66,0,1.07.3,1.07,1.17v3.25h-.86v-3c0-.56-.17-.78-.6-.78s-.69.28-.69.84v2.89h-.86Z"/><path class="cls-1" d="M118.15,40.58H119v.67h0a1.06,1.06,0,0,1,1-.78.68.68,0,0,1,.21,0v.88a1.61,1.61,0,0,0-.36,0c-.39,0-.86.18-.86,1v2.57h-.86Z"/><path class="cls-1" d="M121.51,39.11h.86V40h-.86Zm0,1.47h.86v4.3h-.86Z"/><path class="cls-1" d="M126.25,44.36h0a.92.92,0,0,1-.94.64c-1,0-1.41-.84-1.41-2.32,0-1.91.67-2.21,1.33-2.21a1,1,0,0,1,1,.62h0V39.18h.86v5.71h-.82Zm-.78-3.2c-.5,0-.67.4-.67,1.56,0,1,.13,1.59.73,1.59s.73-.61.73-1.53S126.13,41.16,125.47,41.16Z"/><path class="cls-1" d="M128.74,39.11h.86V40h-.86Zm0,1.47h.86v4.3h-.86Z"/><path class="cls-1" d="M131.27,40.58h.86v.67h0a1.06,1.06,0,0,1,1-.78.68.68,0,0,1,.21,0v.88a1.62,1.62,0,0,0-.36,0c-.39,0-.86.18-.86,1v2.57h-.86Z"/><path class="cls-1" d="M135.29,42.85v.25c0,.58.07,1.31.72,1.31s.69-.7.69-1h.82A1.42,1.42,0,0,1,136,45c-.7,0-1.58-.21-1.58-2.2,0-1.13.24-2.33,1.59-2.33,1.2,0,1.52.72,1.52,1.92v.46Zm1.38-.59V42c0-.54-.18-1-.66-1s-.72.54-.72,1.1v.09Z"/><path class="cls-1" d="M142,43.32c-.06,1-.41,1.68-1.47,1.68-1.25,0-1.6-.93-1.6-2.26s.35-2.26,1.6-2.26A1.38,1.38,0,0,1,142,42h-.86c0-.4-.11-.92-.62-.9s-.74.67-.74,1.62.11,1.62.74,1.62.66-.39.66-1Z"/><path class="cls-1" d="M143,40.58h.59V39.36h.86v1.22h.7v.64h-.7v2.57c0,.34.1.46.39.46a1.59,1.59,0,0,0,.31,0v.64a2.81,2.81,0,0,1-.7.07c-.58,0-.87-.16-.87-1V41.22H143Z"/><path class="cls-1" d="M147.86,40.47c1.26,0,1.61.93,1.61,2.26S149.06,45,147.86,45s-1.6-.93-1.6-2.26S146.61,40.47,147.86,40.47Zm0,3.89c.63,0,.74-.53.74-1.62s-.11-1.62-.74-1.62-.74.67-.74,1.62S147.23,44.36,147.86,44.36Z"/><path class="cls-1" d="M150.93,40.58h.86v.67h0a1.06,1.06,0,0,1,1-.78.68.68,0,0,1,.21,0v.88a1.62,1.62,0,0,0-.36,0c-.39,0-.86.18-.86,1v2.57h-.86Z"/><path class="cls-1" d="M155,40.58l.74,3.23h0l.69-3.23h.9L156.14,45c-.34,1.17-.62,1.33-1.5,1.31a2.57,2.57,0,0,1-.34,0v-.69a1.72,1.72,0,0,0,.28,0c.3,0,.49-.06.58-.34l.11-.35L154,40.58Z"/><path class="cls-1" d="M158.1,43.83H159v1.06h-.91Z"/><path class="cls-1" d="M162.16,40.47c1.26,0,1.61.93,1.61,2.26S163.36,45,162.16,45s-1.6-.93-1.6-2.26S160.91,40.47,162.16,40.47Zm0,3.89c.63,0,.74-.53.74-1.62s-.11-1.62-.74-1.62-.74.67-.74,1.62S161.54,44.36,162.16,44.36Z"/><path class="cls-1" d="M165.23,40.58h.86v.67h0a1.06,1.06,0,0,1,1-.78.68.68,0,0,1,.21,0v.88a1.62,1.62,0,0,0-.36,0c-.39,0-.86.18-.86,1v2.57h-.86Z"/><path class="cls-1" d="M169.37,45.25a.56.56,0,0,0,.62.51.72.72,0,0,0,.73-.81v-.7h0a1,1,0,0,1-1,.59c-1,0-1.29-1-1.29-2.17,0-.94.14-2.21,1.37-2.21a1,1,0,0,1,.94.64h0v-.53h.82v4.09c0,1-.45,1.68-1.61,1.68s-1.42-.75-1.42-1.1Zm.61-1.09c.67,0,.74-.85.74-1.53s-.09-1.48-.69-1.48-.73.64-.73,1.44S169.34,44.17,170,44.17Z"/><path class="cls-1" d="M179,21a3.13,3.13,0,0,1-.24,1.23,2.92,2.92,0,0,1-.64,1A2.95,2.95,0,0,1,176,24a3,3,0,0,1-1.19-.23,2.79,2.79,0,0,1-.93-.63,3,3,0,0,1-.61-1,3.18,3.18,0,0,1-.22-1.19,3.1,3.1,0,0,1,.24-1.23,2.84,2.84,0,0,1,1.58-1.56A3,3,0,0,1,176,18a3,3,0,0,1,1.12.22,2.85,2.85,0,0,1,1.58,1.56A3.13,3.13,0,0,1,179,21m-.64,0a2.78,2.78,0,0,0-.18-1,2.37,2.37,0,0,0-.49-.79A2.23,2.23,0,0,0,176,18.5a2.27,2.27,0,0,0-.91.18,2.21,2.21,0,0,0-.74.51,2.4,2.4,0,0,0-.49.79,2.8,2.8,0,0,0-.18,1,2.84,2.84,0,0,0,.16,1,2.42,2.42,0,0,0,.46.79,2.22,2.22,0,0,0,.73.53,2.28,2.28,0,0,0,2.6-.49,2.36,2.36,0,0,0,.49-.78,2.78,2.78,0,0,0,.18-1m-2.89,1.72h-.55V19.38h1.26a1.52,1.52,0,0,1,.91.22.85.85,0,0,1,.3.73.81.81,0,0,1-.25.66,1.09,1.09,0,0,1-.62.25l.93,1.46h-.62L176,21.28h-.51Zm.61-1.89h.29a.6.6,0,0,0,.24-.07.45.45,0,0,0,.17-.16.54.54,0,0,0,.07-.29.39.39,0,0,0-.07-.24.45.45,0,0,0-.17-.14.71.71,0,0,0-.23-.06h-.91v1Z"/></svg>