<?xml version="1.0" encoding="UTF-8" standalone="no"?>
<svg
   xmlns:dc="http://purl.org/dc/elements/1.1/"
   xmlns:cc="http://creativecommons.org/ns#"
   xmlns:rdf="http://www.w3.org/1999/02/22-rdf-syntax-ns#"
   xmlns:svg="http://www.w3.org/2000/svg"
   xmlns="http://www.w3.org/2000/svg"
   style="shape-rendering:crispEdges"
   version="1.1"
   x="0px"
   y="0px"
   viewBox="0 0 340.74091 258.99996"
   xml:space="preserve"
   id="svg2"
   width="340.74091"
   height="258.99997"><metadata
     id="metadata264"><rdf:RDF><cc:Work
         rdf:about=""><dc:format>image/svg+xml</dc:format><dc:type
           rdf:resource="http://purl.org/dc/dcmitype/StillImage" /><dc:title></dc:title></cc:Work></rdf:RDF></metadata><defs
     id="defs262" /><style
     type="text/css"
     id="style4">
	.Arched_x0020_Green{fill:url(#SVGID_1_);stroke:#FFFFFF;stroke-width:0.25;stroke-miterlimit:1;}
	.st0{fill:none;stroke:#000000;}
	.st1{fill:#FFFFFF;}
	.st2{font-family:'Arial-BoldMT';}
	.st3{font-size:14px;}
	.st4{font-family:'ArialMT';}
	.st5{font-size:9px;}
	.st6{display:none;}
	.st7{display:inline;}
	.st8{display:inline;fill:#FFFFFF;}
</style><linearGradient
     id="SVGID_1_"
     gradientUnits="userSpaceOnUse"
     x1="0"
     y1="792"
     x2="0.70709997"
     y2="791.29291"><stop
       offset="0"
       style="stop-color:#20AC4B"
       id="stop7" /><stop
       offset="0.9831"
       style="stop-color:#19361A"
       id="stop9" /></linearGradient><g
     id="frame"
     transform="matrix(1.1158055,0,0,0.99985727,-173.19231,-268.14302)"><g
       id="g12"><rect
         x="155.7"
         y="344"
         class="st0"
         width="300.70001"
         height="182.7"
         id="rect14"
         style="fill:none;stroke:#000000" /><rect
         x="155.7"
         y="271.70001"
         class="st0"
         width="300.70001"
         height="59.299999"
         id="rect16"
         style="fill:none;stroke:#000000" /><line
         class="st0"
         x1="155.7"
         y1="390.29999"
         x2="456.70001"
         y2="390.29999"
         id="line18"
         style="fill:none;stroke:#000000" /><line
         class="st0"
         x1="155.7"
         y1="433.29999"
         x2="456.70001"
         y2="433.29999"
         id="line20"
         style="fill:none;stroke:#000000" /><line
         class="st0"
         x1="155.7"
         y1="475.70001"
         x2="456.70001"
         y2="475.70001"
         id="line22"
         style="fill:none;stroke:#000000" /><line
         class="st0"
         x1="265.70001"
         y1="344"
         x2="265.70001"
         y2="526.70001"
         id="line24"
         style="fill:none;stroke:#000000" /><line
         class="st0"
         x1="217"
         y1="271.29999"
         x2="217"
         y2="330.89999"
         id="line26"
         style="fill:none;stroke:#000000" /></g></g><g
     id="shapes"
     transform="translate(-155.2,-268.2)"><g
       id="g29"><g
         id="g31"><g
           id="g33"><polyline
             points="163.5,383.3 260.2,383.3 260.2,354.2 163.5,354.2     "
             id="polyline35" /></g></g><g
         id="g37"><path
           class="st1"
           d="m 178.8,361.2 c -0.4,-0.9 -1.2,-0.9 -1.2,-0.9 0,0 -0.8,-0.1 -1.1,0.9 l -8.1,14.3 c -1.1,1.8 -0.1,2.5 0.9,2.6 l 16.6,0 c 1.1,-0.1 2,-0.8 0.9,-2.6 l -8,-14.3 z"
           id="path39"
           style="fill:#ffffff" /><g
           id="g41"><path
             d="m 178.2,371.9 c 0,0.3 -0.3,0.5 -0.5,0.5 l -0.1,0 c -0.3,0 -0.5,-0.2 -0.5,-0.5 -1.6,-5.3 -2.4,-9 0.5,-9 3,-0.1 2.1,3.7 0.6,9 z"
             id="path43" /><path
             d="m 177.6,377.6 c -0.8,0 -1.6,-0.7 -1.6,-1.6 0,-0.9 0.7,-1.6 1.6,-1.6 l 0.1,0 c 0.9,0 1.5,0.7 1.5,1.6 0,0.9 -0.7,1.6 -1.6,1.6 z"
             id="path45" /></g></g><text
         transform="translate(189.5,378.0835)"
         class="st1 st2 st3"
         id="text47"
         style="font-size:14px;font-family:Arial-BoldMT;fill:#ffffff">DANGER</text>
</g><g
       id="g49"><g
         id="g51"><g
           id="g53"><polyline
             points="163.5,426.3 260.2,426.3 260.2,397.2 163.5,397.2     "
             id="polyline55" /></g></g><g
         id="g57"><path
           class="st1"
           d="m 178.8,404.2 c -0.4,-0.9 -1.2,-0.9 -1.2,-0.9 0,0 -0.8,-0.1 -1.1,0.9 l -8.1,14.3 c -1.1,1.8 -0.1,2.5 0.9,2.6 l 16.6,0 c 1.1,-0.1 2,-0.8 0.9,-2.6 l -8,-14.3 z"
           id="path59"
           style="fill:#ffffff" /><g
           id="g61"><path
             d="m 178.2,414.9 c 0,0.3 -0.3,0.5 -0.5,0.5 l -0.1,0 c -0.3,0 -0.5,-0.2 -0.5,-0.5 -1.6,-5.3 -2.4,-9 0.5,-9 3,-0.1 2.1,3.7 0.6,9 z"
             id="path63" /><path
             d="m 177.6,420.6 c -0.8,0 -1.6,-0.7 -1.6,-1.6 0,-0.9 0.7,-1.6 1.6,-1.6 l 0.1,0 c 0.9,0 1.5,0.7 1.5,1.6 0,0.9 -0.7,1.6 -1.6,1.6 z"
             id="path65" /></g></g><text
         transform="translate(189.5,421.0835)"
         class="st1 st2 st3"
         id="text67"
         style="font-size:14px;font-family:Arial-BoldMT;fill:#ffffff">WARNING</text>
</g><g
       id="g69"><g
         id="g71"><g
           id="g73"><polyline
             points="163.5,469 260.2,469 260.2,439.8 163.5,439.8     "
             id="polyline75" /></g></g><g
         id="g77"><path
           class="st1"
           d="m 178.8,446.9 c -0.4,-0.9 -1.2,-0.9 -1.2,-0.9 0,0 -0.8,-0.1 -1.1,0.9 l -8.1,14.3 c -1.1,1.8 -0.1,2.5 0.9,2.6 l 16.6,0 c 1.1,-0.1 2,-0.8 0.9,-2.6 l -8,-14.3 z"
           id="path79"
           style="fill:#ffffff" /><g
           id="g81"><path
             d="m 178.2,457.5 c 0,0.3 -0.3,0.5 -0.5,0.5 l -0.1,0 c -0.3,0 -0.5,-0.2 -0.5,-0.5 -1.6,-5.3 -2.4,-9 0.5,-9 3,0 2.1,3.7 0.6,9 z"
             id="path83" /><path
             d="m 177.6,463.3 c -0.8,0 -1.6,-0.7 -1.6,-1.6 0,-0.9 0.7,-1.6 1.6,-1.6 l 0.1,0 c 0.9,0 1.5,0.7 1.5,1.6 0,0.8 -0.7,1.6 -1.6,1.6 z"
             id="path85" /></g></g><text
         transform="translate(189.5,463.7505)"
         class="st1 st2 st3"
         id="text87"
         style="font-size:14px;font-family:Arial-BoldMT;fill:#ffffff">CAUTION</text>
</g><g
       id="g89"><g
         id="g91"><g
           id="g93"><polyline
             points="163.5,514.8 260.2,514.8 260.2,485.7 163.5,485.7     "
             id="polyline95" /></g></g><text
         transform="translate(180.5,505.5845)"
         class="st1 st2 st3"
         id="text97"
         style="font-size:14px;font-family:Arial-BoldMT;fill:#ffffff">CAUTION</text>
</g><g
       id="g99"><path
         d="m 189.6,280.2 c -0.9,-2.5 -3.2,-2.3 -3.2,-2.3 0,0 -2.2,-0.2 -3,2.3 l -21.3,37.5 c -2.8,4.8 -0.4,6.7 2.4,6.9 l 43.6,0 c 3,-0.2 5.2,-2.1 2.4,-6.9 l -20.9,-37.5 z"
         id="path101" /><g
         id="g103"><path
           class="st1"
           d="m 187.9,308.1 c 0,0.8 -0.7,1.3 -1.3,1.3 l -0.2,0 c -0.7,0 -1.3,-0.6 -1.3,-1.3 -4.3,-14 -6.3,-23.7 1.3,-23.7 7.9,0 5.6,9.8 1.5,23.7 z"
           id="path105"
           style="fill:#ffffff" /><path
           class="st1"
           d="m 186.4,323.3 c -2.2,0 -4.1,-1.9 -4.1,-4.2 0,-2.3 1.9,-4.2 4.1,-4.2 l 0.2,0 c 2.2,0 3.9,1.9 3.9,4.2 0,2.2 -1.6,4.2 -4.1,4.2 z"
           id="path107"
           style="fill:#ffffff" /></g></g></g><g
     id="text"
     transform="translate(-155.2,-268.2)"><flowRoot
       transform="translate(155.2,268.2)"
       style="font-style:normal;font-variant:normal;font-weight:normal;font-stretch:normal;font-size:9px;line-height:125%;font-family:'Arial Rounded MT Bold';-inkscape-font-specification:'Arial Rounded MT Bold, Normal';text-align:start;letter-spacing:0px;word-spacing:0px;writing-mode:lr-tb;text-anchor:start;fill:#000000;fill-opacity:1;stroke:none;stroke-width:1px;stroke-linecap:butt;stroke-linejoin:miter;stroke-opacity:1"
       id="flowRoot4274"
       xml:space="preserve"><flowRegion
         id="flowRegion4276"><rect
           style="font-style:normal;font-variant:normal;font-weight:normal;font-stretch:normal;font-size:9px;line-height:125%;font-family:'Arial Rounded MT Bold';-inkscape-font-specification:'Arial Rounded MT Bold, Normal';text-align:start;writing-mode:lr-tb;text-anchor:start"
           y="22.75441"
           x="405.75943"
           height="57.910843"
           width="134.99747"
           id="rect4278" /></flowRegion><flowPara
         id="flowPara4282"></flowPara></flowRoot><flowRoot
       transform="translate(-75.850834,338.1661)"
       style="font-style:normal;font-variant:normal;font-weight:normal;font-stretch:normal;font-size:9px;line-height:125%;font-family:'Arial Rounded MT Bold';-inkscape-font-specification:'Arial Rounded MT Bold, Normal';text-align:start;letter-spacing:0px;word-spacing:0px;writing-mode:lr-tb;text-anchor:start;fill:#000000;fill-opacity:1;stroke:none;stroke-width:1px;stroke-linecap:butt;stroke-linejoin:miter;stroke-opacity:1"
       id="flowRoot4288"
       xml:space="preserve"><flowRegion
         id="flowRegion4290"><rect
           y="7.88134"
           x="358.23727"
           height="44.120487"
           width="210.27039"
           id="rect4292" /></flowRegion><flowPara
         style="font-style:normal;font-variant:normal;font-weight:bold;font-stretch:normal;font-size:9px;line-height:125%;font-family:'Trebuchet MS';-inkscape-font-specification:'Trebuchet MS, Bold';text-align:start;writing-mode:lr-tb;text-anchor:start"
         id="flowPara4294">DANGER indicates an imminently dangerous situation which, if not avoided, will result in injury or death.</flowPara></flowRoot><flowRoot
       transform="translate(155.2,268.2)"
       style="font-style:normal;font-variant:normal;font-weight:normal;font-stretch:normal;font-size:9px;line-height:125%;font-family:'Arial Rounded MT Bold';-inkscape-font-specification:'Arial Rounded MT Bold, Normal';text-align:start;letter-spacing:0px;word-spacing:0px;writing-mode:lr-tb;text-anchor:start;fill:#000000;fill-opacity:1;stroke:none;stroke-width:1px;stroke-linecap:butt;stroke-linejoin:miter;stroke-opacity:1"
       id="flowRoot4296"
       xml:space="preserve"><flowRegion
         id="flowRegion4298"><rect
           y="50.186424"
           x="450.16946"
           height="10.847457"
           width="30.101692"
           id="rect4300" /></flowRegion><flowPara
         id="flowPara4302"></flowPara></flowRoot><flowRoot
       transform="translate(267.47118,459.11524)"
       style="font-style:normal;font-variant:normal;font-weight:normal;font-stretch:normal;font-size:9px;line-height:125%;font-family:'Arial Rounded MT Bold';-inkscape-font-specification:'Arial Rounded MT Bold, Normal';text-align:start;letter-spacing:0px;word-spacing:0px;writing-mode:lr-tb;text-anchor:start;fill:#000000;fill-opacity:1;stroke:none;stroke-width:1px;stroke-linecap:butt;stroke-linejoin:miter;stroke-opacity:1"
       id="flowRoot4306"
       xml:space="preserve"><flowRegion
         id="flowRegion4308"><rect
           y="-65.338997"
           x="15.18644"
           height="35.796608"
           width="205.01695"
           id="rect4310" /></flowRegion><flowPara
         id="flowPara4312">WARNING indicates a potentially hazardous situation which, if not avoided, could result in injury or death.</flowPara></flowRoot><flowRoot
       transform="translate(268.01355,500.33558)"
       style="font-style:normal;font-variant:normal;font-weight:normal;font-stretch:normal;font-size:9px;line-height:125%;font-family:'Arial Rounded MT Bold';-inkscape-font-specification:'Arial Rounded MT Bold, Normal';text-align:start;letter-spacing:0px;word-spacing:0px;writing-mode:lr-tb;text-anchor:start;fill:#000000;fill-opacity:1;stroke:none;stroke-width:1px;stroke-linecap:butt;stroke-linejoin:miter;stroke-opacity:1"
       id="flowRoot4314"
       xml:space="preserve"><flowRegion
         id="flowRegion4316"><rect
           y="-64.796623"
           x="13.559321"
           height="37.423729"
           width="207.72881"
           id="rect4318" /></flowRegion><flowPara
         id="flowPara4320">CAUTION indicates a potentially hazardous situation which, if not avoided, could result in minor or moderate injury.</flowPara></flowRoot><flowRoot
       transform="translate(271.0644,551.65761)"
       style="font-style:normal;font-variant:normal;font-weight:normal;font-stretch:normal;font-size:9px;line-height:125%;font-family:'Arial Rounded MT Bold';-inkscape-font-specification:'Arial Rounded MT Bold, Normal';text-align:start;letter-spacing:0px;word-spacing:0px;writing-mode:lr-tb;text-anchor:start;fill:#000000;fill-opacity:1;stroke:none;stroke-width:1px;stroke-linecap:butt;stroke-linejoin:miter;stroke-opacity:1"
       id="flowRoot4322"
       xml:space="preserve"><flowRegion
         id="flowRegion4324"><rect
           y="-74.01696"
           x="9.7627115"
           height="46.644066"
           width="203.93221"
           id="rect4326" /></flowRegion><flowPara
         id="flowPara4328">CAUTION used without the safety alert symbol indicates a potientially hazardous situation which, if not avoided, could result in property damage.</flowPara></flowRoot><flowRoot
       transform="translate(200.21695,371.48813)"
       style="font-style:normal;font-variant:normal;font-weight:normal;font-stretch:normal;font-size:9px;line-height:125%;font-family:'Arial Rounded MT Bold';-inkscape-font-specification:'Arial Rounded MT Bold, Normal';text-align:start;letter-spacing:0px;word-spacing:0px;writing-mode:lr-tb;text-anchor:start;fill:#000000;fill-opacity:1;stroke:none;stroke-width:1px;stroke-linecap:butt;stroke-linejoin:miter;stroke-opacity:1"
       id="flowRoot4330"
       xml:space="preserve"><flowRegion
         id="flowRegion4332"><rect
           y="-87.576279"
           x="26.576269"
           height="55.322033"
           width="261.96606"
           id="rect4334" /></flowRegion><flowPara
         id="flowPara4336">This is the safety alert symbol. It is used to alert you to potential personal injury hazards. Obey all safety messages that follow this symbol to avoid possible injury or death.</flowPara></flowRoot></g><g
     id="shape_and_text_elements"
     class="st6"
     style="display:none"
     transform="translate(-155.2,-268.2)"><g
       class="st7"
       id="g155"
       style="display:inline"><g
         id="g157"><polyline
           points="168.1,124.6 302.5,124.6 302.5,95.5 168.1,95.5    "
           id="polyline159" /></g></g><polyline
       class="st7"
       points="169.5,90.9 303.9,90.9 303.9,61.9 169.5,61.9  "
       id="polyline161"
       style="display:inline" /><text
       transform="translate(360.4985,95.3325)"
       class="st7 st2 st3"
       id="text163"
       style="font-size:14px;font-family:Arial-BoldMT;display:inline">CAUTION</text>
<text
       transform="translate(360.498,73.6665)"
       class="st7 st2 st3"
       id="text165"
       style="font-size:14px;font-family:Arial-BoldMT;display:inline">DANGER</text>
<g
       class="st7"
       id="g167"
       style="display:inline"><path
         class="st1"
         d="m 222,101.4 c -0.4,-0.9 -1.2,-0.9 -1.2,-0.9 0,0 -0.8,-0.1 -1.1,0.9 l -8.1,14.3 c -1.1,1.8 -0.1,2.5 0.9,2.6 l 16.6,0 c 1.1,-0.1 2,-0.8 0.9,-2.6 l -8,-14.3 z"
         id="path169"
         style="fill:#ffffff" /><g
         id="g171"><path
           d="m 221.4,112 c 0,0.3 -0.3,0.5 -0.5,0.5 l -0.1,0 c -0.3,0 -0.5,-0.2 -0.5,-0.5 -1.6,-5.3 -2.4,-9 0.5,-9 3,0 2.1,3.7 0.6,9 z"
           id="path173" /><path
           d="m 220.8,117.8 c -0.8,0 -1.6,-0.7 -1.6,-1.6 0,-0.9 0.7,-1.6 1.6,-1.6 l 0.1,0 c 0.9,0 1.5,0.7 1.5,1.6 -0.1,0.8 -0.7,1.6 -1.6,1.6 z"
           id="path175" /></g></g><g
       class="st7"
       id="g177"
       style="display:inline"><path
         class="st1"
         d="m 220.7,67.2 c -0.4,-0.9 -1.2,-0.9 -1.2,-0.9 0,0 -0.8,-0.1 -1.1,0.9 l -8.1,14.3 c -1.1,1.8 -0.1,2.5 0.9,2.6 l 16.6,0 c 1.1,-0.1 2,-0.8 0.9,-2.6 l -8,-14.3 z"
         id="path179"
         style="fill:#ffffff" /><g
         id="g181"><path
           d="m 220,77.9 c 0,0.3 -0.3,0.5 -0.5,0.5 l -0.1,0 c -0.3,0 -0.5,-0.2 -0.5,-0.5 -1.6,-5.3 -2.4,-9 0.5,-9 3,-0.1 2.2,3.6 0.6,9 z"
           id="path183" /><path
           d="m 219.4,83.6 c -0.8,0 -1.6,-0.7 -1.6,-1.6 0,-0.9 0.7,-1.6 1.6,-1.6 l 0.1,0 c 0.9,0 1.5,0.7 1.5,1.6 0,0.9 -0.6,1.6 -1.6,1.6 z"
           id="path185" /></g></g><g
       class="st7"
       id="g187"
       style="display:inline"><path
         d="m 335.7,103.7 c -0.4,-0.9 -1.2,-0.9 -1.2,-0.9 0,0 -0.8,-0.1 -1.1,0.9 l -8.1,14.3 c -1.1,1.8 -0.1,2.5 0.9,2.6 l 16.6,0 c 1.1,-0.1 2,-0.8 0.9,-2.6 l -8,-14.3 z"
         id="path189" /><g
         id="g191"><path
           class="st1"
           d="m 335,114.4 c 0,0.3 -0.3,0.5 -0.5,0.5 l -0.1,0 c -0.3,0 -0.5,-0.2 -0.5,-0.5 -1.6,-5.3 -2.4,-9 0.5,-9 3,-0.1 2.2,3.7 0.6,9 z"
           id="path193"
           style="fill:#ffffff" /><path
           class="st1"
           d="m 334.5,120.1 c -0.8,0 -1.6,-0.7 -1.6,-1.6 0,-0.9 0.7,-1.6 1.6,-1.6 l 0.1,0 c 0.9,0 1.5,0.7 1.5,1.6 -0.1,0.9 -0.7,1.6 -1.6,1.6 z"
           id="path195"
           style="fill:#ffffff" /></g></g><text
       transform="translate(360.4976,117.0005)"
       class="st7 st2 st3"
       id="text197"
       style="font-size:14px;font-family:Arial-BoldMT;display:inline">WARNING</text>
<g
       class="st7"
       id="g199"
       style="display:inline"><path
         d="m 482.6,78.2 c -0.9,-2.5 -3.2,-2.3 -3.2,-2.3 0,0 -2.2,-0.2 -3,2.3 l -21.3,37.5 c -2.8,4.8 -0.4,6.7 2.4,6.9 l 43.6,0 c 3,-0.2 5.2,-2.1 2.4,-6.9 L 482.6,78.2 Z"
         id="path201" /><g
         id="g203"><path
           class="st1"
           d="m 480.9,106.1 c 0,0.8 -0.7,1.3 -1.3,1.3 l -0.2,0 c -0.7,0 -1.3,-0.6 -1.3,-1.3 -4.3,-14 -6.3,-23.7 1.3,-23.7 7.9,0 5.6,9.8 1.5,23.7 z"
           id="path205"
           style="fill:#ffffff" /><path
           class="st1"
           d="m 479.4,121.3 c -2.2,0 -4.1,-1.9 -4.1,-4.2 0,-2.3 1.9,-4.2 4.1,-4.2 l 0.2,0 c 2.2,0 3.9,1.9 3.9,4.2 0,2.2 -1.6,4.2 -4.1,4.2 z"
           id="path207"
           style="fill:#ffffff" /></g></g></g><g
     id="Layer_5"
     class="st6"
     style="display:none"
     transform="translate(-155.2,-268.2)"><g
       class="st7"
       id="g210"
       style="display:inline"><g
         id="g212"><rect
           x="20.200001"
           y="439.5"
           width="96.699997"
           height="29.200001"
           id="rect214" /></g></g><path
       class="st8"
       d="m 36.7,443.9 c -0.5,-1 -1.2,-0.9 -1.2,-0.9 0,0 -0.6,-0.1 -1.2,0.9 l -8.4,14.8 c -1.1,1.9 -0.1,2.6 1,2.7 l 17.2,0 c 1.2,-0.1 2.1,-0.8 1,-2.7 l -8.4,-14.8 z m -0.6,11.3 c -0.1,0.3 -0.3,0.5 -0.5,0.5 l -0.1,0 c -0.3,0 -0.4,-0.2 -0.5,-0.5 -1.5,-5.4 -2.3,-9 0.5,-9 2.8,0.1 2,3.6 0.6,9 z m -0.6,4.7 c -0.9,0 -1.7,-0.8 -1.7,-1.7 0,-0.9 0.8,-1.7 1.7,-1.7 l 0.1,0 c 0.9,0 1.6,0.8 1.6,1.7 0,1 -0.7,1.7 -1.7,1.7 z"
       id="path216"
       style="display:inline;fill:#ffffff" /><g
       class="st7"
       id="g218"
       style="display:inline"><g
         id="g220"><rect
           x="20.200001"
           y="397.20001"
           width="96.699997"
           height="29.200001"
           id="rect222" /></g></g><path
       class="st8"
       d="m 36.7,401.5 c -0.5,-1 -1.2,-0.9 -1.2,-0.9 0,0 -0.6,-0.1 -1.2,0.9 l -8.4,14.8 c -1.1,1.9 -0.1,2.6 1,2.7 l 17.2,0 c 1.2,-0.1 2.1,-0.8 1,-2.7 l -8.4,-14.8 z m -0.6,11.3 c -0.1,0.3 -0.3,0.5 -0.5,0.5 l -0.1,0 c -0.3,0 -0.4,-0.2 -0.5,-0.5 -1.5,-5.4 -2.3,-9 0.5,-9 2.8,0.1 2,3.7 0.6,9 z m -0.6,4.7 c -0.9,0 -1.7,-0.8 -1.7,-1.7 0,-0.9 0.8,-1.7 1.7,-1.7 l 0.1,0 c 0.9,0 1.6,0.8 1.6,1.7 0,1 -0.7,1.7 -1.7,1.7 z"
       id="path224"
       style="display:inline;fill:#ffffff" /><g
       class="st7"
       id="g226"
       style="display:inline"><g
         id="g228"><rect
           x="20.200001"
           y="354.20001"
           width="96.699997"
           height="29.200001"
           id="rect230" /></g></g><text
       transform="matrix(0.99,0,0,1,46.8789,417.1528)"
       class="st7"
       id="text232"
       style="display:inline"><tspan
         x="0"
         y="0"
         class="st1 st2 st3"
         id="tspan234"
         style="font-size:14px;font-family:Arial-BoldMT;fill:#ffffff">W</tspan><tspan
         x="12.9"
         y="0"
         class="st1 st2 st3"
         id="tspan236"
         style="font-size:14px;font-family:Arial-BoldMT;fill:#ffffff">A</tspan><tspan
         x="22.299999"
         y="0"
         class="st1 st2 st3"
         id="tspan238"
         style="font-size:14px;font-family:Arial-BoldMT;fill:#ffffff">RNING</tspan></text>
<text
       transform="matrix(1.01,0,0,1,46.8789,459.4868)"
       class="st8 st2 st3"
       id="text240"
       style="font-size:14px;font-family:Arial-BoldMT;display:inline;fill:#ffffff">CAUTION</text>
<g
       class="st7"
       id="g242"
       style="display:inline"><g
         id="g244"><rect
           x="20.200001"
           y="485.5"
           width="96.699997"
           height="29.200001"
           id="rect246" /></g></g><text
       transform="matrix(1.01,0,0,1,36.3584,505.4868)"
       class="st8 st2 st3"
       id="text248"
       style="font-size:14px;font-family:Arial-BoldMT;display:inline;fill:#ffffff">CAUTION</text>
<text
       transform="translate(48.1289,374.0942)"
       class="st7"
       id="text250"
       style="display:inline"><tspan
         x="0"
         y="0"
         class="st1 st2 st3"
         id="tspan252"
         style="font-size:14px;font-family:Arial-BoldMT;fill:#ffffff">D</tspan><tspan
         x="10.2"
         y="0"
         class="st1 st2 st3"
         id="tspan254"
         style="font-size:14px;font-family:Arial-BoldMT;fill:#ffffff">ANGER</tspan></text>
<path
       class="st7"
       d="m 47.7,280.4 c -1.4,-2.5 -3.1,-2.3 -3.1,-2.3 0,0 -1.6,-0.2 -3,2.3 l -21.1,37.3 c -2.8,4.8 -0.4,6.6 2.4,6.8 l 43.4,0 c 3,-0.2 5.2,-2.1 2.4,-6.8 l -21,-37.3 z M 46,308.9 c -0.2,0.8 -0.7,1.3 -1.2,1.3 l -0.2,0 c -0.7,0 -1,-0.5 -1.2,-1.3 -3.9,-13.5 -5.7,-22.6 1.2,-22.6 7.1,0.1 5.1,9.1 1.4,22.6 z m -1.4,11.9 c -2.3,0 -4.2,-1.9 -4.2,-4.2 0,-2.3 1.9,-4.2 4.2,-4.2 l 0.2,0 c 2.3,0 4.1,1.9 4.1,4.2 0,2.3 -1.8,4.2 -4.3,4.2 z"
       id="path256"
       style="display:inline" /><path
       class="st8"
       d="m 36.7,358.5 c -0.5,-1 -1.2,-0.9 -1.2,-0.9 0,0 -0.6,-0.1 -1.2,0.9 l -8.4,14.8 c -1.1,1.9 -0.1,2.6 1,2.7 l 17.2,0 c 1.2,-0.1 2.1,-0.8 1,-2.7 l -8.4,-14.8 z m -0.6,11.3 c -0.1,0.3 -0.3,0.5 -0.5,0.5 l -0.1,0 c -0.3,0 -0.4,-0.2 -0.5,-0.5 -1.5,-5.4 -2.3,-9 0.5,-9 2.8,0.1 2,3.7 0.6,9 z m -0.6,4.7 c -0.9,0 -1.7,-0.8 -1.7,-1.7 0,-0.9 0.8,-1.7 1.7,-1.7 l 0.1,0 c 0.9,0 1.6,0.8 1.6,1.7 0,1 -0.7,1.7 -1.7,1.7 z"
       id="path258"
       style="display:inline;fill:#ffffff" /></g></svg>